<svg width="52" height="27" viewBox="0 0 52 27" fill="none" xmlns="http://www.w3.org/2000/svg">
<path d="M10 -3.49691e-07L14 6L6 6L10 -3.49691e-07Z" fill="var(--colors-neutral-neutral-800)"/>
<rect width="52" height="21" transform="translate(0 6)" fill="var(--colors-neutral-neutral-800)"/>
<path d="M8.48295 13.5085V12.7273H13.9375V13.5085H11.6506V20H10.7699V13.5085H8.48295ZM16.679 20.1136C16.1534 20.1136 15.7 19.9976 15.3189 19.7656C14.9401 19.5312 14.6477 19.2045 14.4418 18.7855C14.2382 18.3641 14.1364 17.8741 14.1364 17.3153C14.1364 16.7566 14.2382 16.2642 14.4418 15.8381C14.6477 15.4096 14.9342 15.0758 15.3011 14.8366C15.6705 14.5952 16.1013 14.4744 16.5938 14.4744C16.8778 14.4744 17.1584 14.5218 17.4354 14.6165C17.7124 14.7112 17.9645 14.8651 18.1918 15.0781C18.419 15.2888 18.6001 15.5682 18.7351 15.9162C18.87 16.2642 18.9375 16.6927 18.9375 17.2017V17.5568H14.733V16.8324H18.0852C18.0852 16.5246 18.0237 16.25 17.9006 16.0085C17.7798 15.767 17.607 15.5765 17.3821 15.4368C17.1596 15.2971 16.8968 15.2273 16.5938 15.2273C16.2599 15.2273 15.9711 15.3101 15.7273 15.4759C15.4858 15.6392 15.3 15.8523 15.1697 16.1151C15.0395 16.3778 14.9744 16.6596 14.9744 16.9602V17.4432C14.9744 17.8551 15.0455 18.2043 15.1875 18.4908C15.3319 18.7749 15.532 18.9915 15.7876 19.1406C16.0433 19.2874 16.3404 19.3608 16.679 19.3608C16.8991 19.3608 17.098 19.33 17.2756 19.2685C17.4555 19.2045 17.6106 19.1098 17.7408 18.9844C17.871 18.8565 17.9716 18.6979 18.0426 18.5085L18.8523 18.7358C18.767 19.0104 18.6238 19.2519 18.4226 19.4602C18.2214 19.6662 17.9728 19.8272 17.6768 19.9432C17.3809 20.0568 17.0483 20.1136 16.679 20.1136ZM20.6909 14.5455L21.9977 16.7756L23.3045 14.5455H24.2704L22.5091 17.2727L24.2704 20H23.3045L21.9977 17.8835L20.6909 20H19.725L21.4579 17.2727L19.725 14.5455H20.6909ZM27.8384 14.5455V15.2557H25.0117V14.5455H27.8384ZM25.8356 13.2386H26.6737V18.4375C26.6737 18.6742 26.708 18.8518 26.7766 18.9702C26.8477 19.0862 26.9376 19.1643 27.0465 19.2045C27.1578 19.2424 27.275 19.2614 27.3981 19.2614C27.4904 19.2614 27.5662 19.2566 27.6254 19.2472C27.6845 19.2353 27.7319 19.2259 27.7674 19.2188L27.9379 19.9716C27.881 19.9929 27.8017 20.0142 27.6999 20.0355C27.5981 20.0592 27.4691 20.071 27.3129 20.071C27.0761 20.071 26.8441 20.0201 26.6168 19.9183C26.3919 19.8165 26.2049 19.6615 26.0558 19.4531C25.909 19.2448 25.8356 18.982 25.8356 18.6648V13.2386Z" fill="white"/>
<path d="M37.483 13.5085V12.7273H42.9375V13.5085H40.6506V20H39.7699V13.5085H37.483Z" fill="white"/>
</svg>
