<svg width="311" height="34" viewBox="0 0 311 34" fill="none" xmlns="http://www.w3.org/2000/svg">
<path d="M9.05682 21V12.2727H12.0057C12.6903 12.2727 13.25 12.3963 13.6847 12.6435C14.1222 12.8878 14.446 13.2188 14.6562 13.6364C14.8665 14.054 14.9716 14.5199 14.9716 15.0341C14.9716 15.5483 14.8665 16.0156 14.6562 16.4361C14.4489 16.8565 14.1278 17.1918 13.6932 17.4418C13.2585 17.6889 12.7017 17.8125 12.0227 17.8125H9.90909V16.875H11.9886C12.4574 16.875 12.8338 16.794 13.1179 16.6321C13.402 16.4702 13.608 16.2514 13.7358 15.9759C13.8665 15.6974 13.9318 15.3835 13.9318 15.0341C13.9318 14.6847 13.8665 14.3722 13.7358 14.0966C13.608 13.821 13.4006 13.6051 13.1136 13.4489C12.8267 13.2898 12.446 13.2102 11.9716 13.2102H10.1136V21H9.05682ZM16.5376 21V14.4545H17.5092V15.4432H17.5774C17.6967 15.1193 17.9126 14.8565 18.2251 14.6548C18.5376 14.4531 18.8899 14.3523 19.282 14.3523C19.3558 14.3523 19.4482 14.3537 19.5589 14.3565C19.6697 14.3594 19.7536 14.3636 19.8104 14.3693V15.392C19.7763 15.3835 19.6982 15.3707 19.576 15.3537C19.4567 15.3338 19.3303 15.3239 19.1967 15.3239C18.8786 15.3239 18.5945 15.3906 18.3445 15.5241C18.0973 15.6548 17.9013 15.8366 17.7564 16.0696C17.6143 16.2997 17.5433 16.5625 17.5433 16.858V21H16.5376ZM23.4624 21.1364C22.8714 21.1364 22.353 20.9957 21.907 20.7145C21.4638 20.4332 21.1172 20.0398 20.8672 19.5341C20.62 19.0284 20.4964 18.4375 20.4964 17.7614C20.4964 17.0795 20.62 16.4844 20.8672 15.9759C21.1172 15.4673 21.4638 15.0724 21.907 14.7912C22.353 14.5099 22.8714 14.3693 23.4624 14.3693C24.0533 14.3693 24.5703 14.5099 25.0135 14.7912C25.4595 15.0724 25.8061 15.4673 26.0533 15.9759C26.3033 16.4844 26.4283 17.0795 26.4283 17.7614C26.4283 18.4375 26.3033 19.0284 26.0533 19.5341C25.8061 20.0398 25.4595 20.4332 25.0135 20.7145C24.5703 20.9957 24.0533 21.1364 23.4624 21.1364ZM23.4624 20.233C23.9112 20.233 24.2805 20.1179 24.5703 19.8878C24.8601 19.6577 25.0746 19.3551 25.2138 18.9801C25.353 18.6051 25.4226 18.1989 25.4226 17.7614C25.4226 17.3239 25.353 16.9162 25.2138 16.5384C25.0746 16.1605 24.8601 15.8551 24.5703 15.6222C24.2805 15.3892 23.9112 15.2727 23.4624 15.2727C23.0135 15.2727 22.6442 15.3892 22.3544 15.6222C22.0646 15.8551 21.8501 16.1605 21.7109 16.5384C21.5717 16.9162 21.5021 17.3239 21.5021 17.7614C21.5021 18.1989 21.5717 18.6051 21.7109 18.9801C21.8501 19.3551 22.0646 19.6577 22.3544 19.8878C22.6442 20.1179 23.0135 20.233 23.4624 20.233ZM27.9634 14.4545H28.9691V21.4773C28.9691 21.8807 28.8995 22.2301 28.7603 22.5256C28.6239 22.821 28.4165 23.0497 28.1381 23.2116C27.8626 23.3736 27.5146 23.4545 27.0941 23.4545C27.06 23.4545 27.0259 23.4545 26.9918 23.4545C26.9577 23.4545 26.9237 23.4545 26.8896 23.4545V22.517C26.9237 22.517 26.9549 22.517 26.9833 22.517C27.0117 22.517 27.043 22.517 27.0771 22.517C27.3839 22.517 27.6083 22.4261 27.7504 22.2443C27.8924 22.0653 27.9634 21.8097 27.9634 21.4773V14.4545ZM28.4577 13.3636C28.2617 13.3636 28.0927 13.2969 27.9506 13.1634C27.8114 13.0298 27.7418 12.8693 27.7418 12.6818C27.7418 12.4943 27.8114 12.3338 27.9506 12.2003C28.0927 12.0668 28.2617 12 28.4577 12C28.6538 12 28.8214 12.0668 28.9606 12.2003C29.1026 12.3338 29.1737 12.4943 29.1737 12.6818C29.1737 12.8693 29.1026 13.0298 28.9606 13.1634C28.8214 13.2969 28.6538 13.3636 28.4577 13.3636ZM33.5554 21.1364C32.9247 21.1364 32.3807 20.9972 31.9233 20.7188C31.4688 20.4375 31.1179 20.0455 30.8707 19.5426C30.6264 19.0369 30.5043 18.4489 30.5043 17.7784C30.5043 17.108 30.6264 16.517 30.8707 16.0057C31.1179 15.4915 31.4616 15.0909 31.902 14.804C32.3452 14.5142 32.8622 14.3693 33.4531 14.3693C33.794 14.3693 34.1307 14.4261 34.4631 14.5398C34.7955 14.6534 35.098 14.8381 35.3707 15.0938C35.6435 15.3466 35.8608 15.6818 36.0227 16.0994C36.1847 16.517 36.2656 17.0312 36.2656 17.642V18.0682H31.2202V17.1989H35.2429C35.2429 16.8295 35.169 16.5 35.0213 16.2102C34.8764 15.9205 34.669 15.6918 34.3991 15.5241C34.1321 15.3565 33.8168 15.2727 33.4531 15.2727C33.0526 15.2727 32.706 15.3722 32.4134 15.571C32.1236 15.767 31.9006 16.0227 31.7443 16.3381C31.5881 16.6534 31.5099 16.9915 31.5099 17.3523V17.9318C31.5099 18.4261 31.5952 18.8452 31.7656 19.1889C31.9389 19.5298 32.179 19.7898 32.4858 19.9688C32.7926 20.1449 33.1491 20.233 33.5554 20.233C33.8196 20.233 34.0582 20.196 34.2713 20.1222C34.4872 20.0455 34.6733 19.9318 34.8295 19.7812C34.9858 19.6278 35.1065 19.4375 35.1918 19.2102L36.1634 19.483C36.0611 19.8125 35.8892 20.1023 35.6477 20.3523C35.4063 20.5994 35.108 20.7926 34.7528 20.9318C34.3977 21.0682 33.9986 21.1364 33.5554 21.1364ZM40.4545 21.1364C39.8409 21.1364 39.3125 20.9915 38.8693 20.7017C38.4261 20.4119 38.0852 20.0128 37.8466 19.5043C37.608 18.9957 37.4886 18.4148 37.4886 17.7614C37.4886 17.0966 37.6108 16.5099 37.8551 16.0014C38.1023 15.4901 38.446 15.0909 38.8864 14.804C39.3295 14.5142 39.8466 14.3693 40.4375 14.3693C40.8977 14.3693 41.3125 14.4545 41.6818 14.625C42.0511 14.7955 42.3537 15.0341 42.5895 15.3409C42.8253 15.6477 42.9716 16.0057 43.0284 16.4148H42.0227C41.946 16.1165 41.7756 15.8523 41.5114 15.6222C41.25 15.3892 40.8977 15.2727 40.4545 15.2727C40.0625 15.2727 39.7188 15.375 39.4233 15.5795C39.1307 15.7812 38.902 16.0668 38.7372 16.4361C38.5753 16.8026 38.4943 17.233 38.4943 17.7273C38.4943 18.233 38.5739 18.6733 38.733 19.0483C38.8949 19.4233 39.1222 19.7145 39.4148 19.9219C39.7102 20.1293 40.0568 20.233 40.4545 20.233C40.7159 20.233 40.9531 20.1875 41.1662 20.0966C41.3793 20.0057 41.5597 19.875 41.7074 19.7045C41.8551 19.5341 41.9602 19.3295 42.0227 19.0909H43.0284C42.9716 19.4773 42.831 19.8253 42.6065 20.1349C42.3849 20.4418 42.0909 20.6861 41.7244 20.8679C41.3608 21.0469 40.9375 21.1364 40.4545 21.1364ZM47.3452 14.4545V15.3068H43.9531V14.4545H47.3452ZM44.9418 12.8864H45.9474V19.125C45.9474 19.4091 45.9886 19.6222 46.071 19.7642C46.1563 19.9034 46.2642 19.9972 46.3949 20.0455C46.5284 20.0909 46.669 20.1136 46.8168 20.1136C46.9276 20.1136 47.0185 20.108 47.0895 20.0966C47.1605 20.0824 47.2173 20.071 47.2599 20.0625L47.4645 20.9659C47.3963 20.9915 47.3011 21.017 47.179 21.0426C47.0568 21.071 46.902 21.0852 46.7145 21.0852C46.4304 21.0852 46.152 21.0241 45.8793 20.902C45.6094 20.7798 45.3849 20.5938 45.206 20.3438C45.0298 20.0938 44.9418 19.7784 44.9418 19.3977V12.8864ZM53.2386 17.0625V21H52.233V14.4545H53.2045V15.4773H53.2898C53.4432 15.1449 53.6761 14.8778 53.9886 14.6761C54.3011 14.4716 54.7045 14.3693 55.1989 14.3693C55.642 14.3693 56.0298 14.4602 56.3622 14.642C56.6946 14.821 56.9531 15.0938 57.1378 15.4602C57.3224 15.8239 57.4148 16.2841 57.4148 16.8409V21H56.4091V16.9091C56.4091 16.3949 56.2756 15.9943 56.0085 15.7074C55.7415 15.4176 55.375 15.2727 54.9091 15.2727C54.5881 15.2727 54.3011 15.3423 54.0483 15.4815C53.7983 15.6207 53.6009 15.8239 53.456 16.0909C53.3111 16.358 53.2386 16.6818 53.2386 17.0625ZM61.1786 21.1534C60.7638 21.1534 60.3874 21.0753 60.0494 20.919C59.7113 20.7599 59.4428 20.5312 59.244 20.233C59.0451 19.9318 58.9457 19.5682 58.9457 19.142C58.9457 18.767 59.0195 18.4631 59.1673 18.2301C59.315 17.9943 59.5124 17.8097 59.7596 17.6761C60.0067 17.5426 60.2795 17.4432 60.5778 17.3778C60.8789 17.3097 61.1815 17.2557 61.4854 17.2159C61.8832 17.1648 62.2056 17.1264 62.4528 17.1009C62.7028 17.0724 62.8846 17.0256 62.9982 16.9602C63.1147 16.8949 63.1729 16.7812 63.1729 16.6193V16.5852C63.1729 16.1648 63.0579 15.8381 62.8278 15.6051C62.6005 15.3722 62.2553 15.2557 61.7923 15.2557C61.3121 15.2557 60.9357 15.3608 60.663 15.571C60.3903 15.7812 60.1985 16.0057 60.0877 16.2443L59.1332 15.9034C59.3036 15.5057 59.5309 15.196 59.815 14.9744C60.1019 14.75 60.4144 14.5937 60.7525 14.5057C61.0934 14.4148 61.4286 14.3693 61.7582 14.3693C61.9684 14.3693 62.2099 14.3949 62.4826 14.446C62.7582 14.4943 63.0238 14.5952 63.2795 14.7486C63.538 14.902 63.7525 15.1335 63.9229 15.4432C64.0934 15.7528 64.1786 16.1676 64.1786 16.6875V21H63.1729V20.1136H63.1218C63.0536 20.2557 62.94 20.4077 62.7809 20.5696C62.6218 20.7315 62.4102 20.8693 62.146 20.983C61.8817 21.0966 61.5593 21.1534 61.1786 21.1534ZM61.332 20.25C61.7298 20.25 62.065 20.1719 62.3377 20.0156C62.6133 19.8594 62.8207 19.6577 62.9599 19.4105C63.1019 19.1634 63.1729 18.9034 63.1729 18.6307V17.7102C63.1303 17.7614 63.0366 17.8082 62.8917 17.8509C62.7496 17.8906 62.5849 17.9261 62.3974 17.9574C62.2127 17.9858 62.0323 18.0114 61.8562 18.0341C61.6829 18.054 61.5423 18.071 61.4343 18.0852C61.1729 18.1193 60.9286 18.1747 60.7013 18.2514C60.4769 18.3253 60.2951 18.4375 60.1559 18.5881C60.0195 18.7358 59.9513 18.9375 59.9513 19.1932C59.9513 19.5426 60.0806 19.8068 60.3391 19.9858C60.6005 20.1619 60.9315 20.25 61.332 20.25ZM66.0142 21V14.4545H66.9858V15.4773H67.071C67.2074 15.1278 67.4276 14.8565 67.7315 14.6634C68.0355 14.4673 68.4006 14.3693 68.8267 14.3693C69.2585 14.3693 69.6179 14.4673 69.9048 14.6634C70.1946 14.8565 70.4205 15.1278 70.5824 15.4773H70.6506C70.8182 15.1392 71.0696 14.8707 71.4048 14.6719C71.7401 14.4702 72.142 14.3693 72.6108 14.3693C73.196 14.3693 73.6747 14.5526 74.0469 14.919C74.419 15.2827 74.6051 15.8494 74.6051 16.6193V21H73.5994V16.6193C73.5994 16.1364 73.4673 15.7912 73.2031 15.5838C72.9389 15.3764 72.6278 15.2727 72.2699 15.2727C71.8097 15.2727 71.4531 15.4119 71.2003 15.6903C70.9474 15.9659 70.821 16.3153 70.821 16.7386V21H69.7983V16.517C69.7983 16.1449 69.6776 15.8452 69.4361 15.6179C69.1946 15.3878 68.8835 15.2727 68.5028 15.2727C68.2415 15.2727 67.9972 15.3423 67.7699 15.4815C67.5455 15.6207 67.3636 15.8139 67.2244 16.0611C67.0881 16.3054 67.0199 16.5881 67.0199 16.9091V21H66.0142ZM79.1882 21.1364C78.5575 21.1364 78.0135 20.9972 77.5561 20.7188C77.1016 20.4375 76.7507 20.0455 76.5036 19.5426C76.2592 19.0369 76.1371 18.4489 76.1371 17.7784C76.1371 17.108 76.2592 16.517 76.5036 16.0057C76.7507 15.4915 77.0945 15.0909 77.5348 14.804C77.978 14.5142 78.495 14.3693 79.0859 14.3693C79.4268 14.3693 79.7635 14.4261 80.0959 14.5398C80.4283 14.6534 80.7308 14.8381 81.0036 15.0938C81.2763 15.3466 81.4936 15.6818 81.6555 16.0994C81.8175 16.517 81.8984 17.0312 81.8984 17.642V18.0682H76.853V17.1989H80.8757C80.8757 16.8295 80.8018 16.5 80.6541 16.2102C80.5092 15.9205 80.3018 15.6918 80.032 15.5241C79.7649 15.3565 79.4496 15.2727 79.0859 15.2727C78.6854 15.2727 78.3388 15.3722 78.0462 15.571C77.7564 15.767 77.5334 16.0227 77.3771 16.3381C77.2209 16.6534 77.1428 16.9915 77.1428 17.3523V17.9318C77.1428 18.4261 77.228 18.8452 77.3984 19.1889C77.5717 19.5298 77.8118 19.7898 78.1186 19.9688C78.4254 20.1449 78.782 20.233 79.1882 20.233C79.4524 20.233 79.6911 20.196 79.9041 20.1222C80.12 20.0455 80.3061 19.9318 80.4624 19.7812C80.6186 19.6278 80.7393 19.4375 80.8246 19.2102L81.7962 19.483C81.6939 19.8125 81.522 20.1023 81.2805 20.3523C81.0391 20.5994 80.7408 20.7926 80.3857 20.9318C80.0305 21.0682 79.6314 21.1364 79.1882 21.1364Z" fill="var(--colors-neutral-neutral-700)"/>
<path d="M103.006 11.8636L100.193 22.3125H99.2727L102.085 11.8636H103.006Z" fill="var(--colors-neutral-neutral-700)"/>
<path d="M121.057 21V12.2727H126.29V13.2102H122.114V16.1591H125.898V17.0966H122.114V21H121.057ZM128.969 12.2727V21H127.963V12.2727H128.969ZM133.47 21.1364C132.879 21.1364 132.361 20.9957 131.915 20.7145C131.472 20.4332 131.125 20.0398 130.875 19.5341C130.628 19.0284 130.504 18.4375 130.504 17.7614C130.504 17.0795 130.628 16.4844 130.875 15.9759C131.125 15.4673 131.472 15.0724 131.915 14.7912C132.361 14.5099 132.879 14.3693 133.47 14.3693C134.061 14.3693 134.578 14.5099 135.021 14.7912C135.467 15.0724 135.814 15.4673 136.061 15.9759C136.311 16.4844 136.436 17.0795 136.436 17.7614C136.436 18.4375 136.311 19.0284 136.061 19.5341C135.814 20.0398 135.467 20.4332 135.021 20.7145C134.578 20.9957 134.061 21.1364 133.47 21.1364ZM133.47 20.233C133.919 20.233 134.288 20.1179 134.578 19.8878C134.868 19.6577 135.082 19.3551 135.222 18.9801C135.361 18.6051 135.43 18.1989 135.43 17.7614C135.43 17.3239 135.361 16.9162 135.222 16.5384C135.082 16.1605 134.868 15.8551 134.578 15.6222C134.288 15.3892 133.919 15.2727 133.47 15.2727C133.021 15.2727 132.652 15.3892 132.362 15.6222C132.072 15.8551 131.858 16.1605 131.719 16.5384C131.58 16.9162 131.51 17.3239 131.51 17.7614C131.51 18.1989 131.58 18.6051 131.719 18.9801C131.858 19.3551 132.072 19.6577 132.362 19.8878C132.652 20.1179 133.021 20.233 133.47 20.233ZM140.63 21.1364C140.039 21.1364 139.521 20.9957 139.075 20.7145C138.632 20.4332 138.285 20.0398 138.035 19.5341C137.788 19.0284 137.664 18.4375 137.664 17.7614C137.664 17.0795 137.788 16.4844 138.035 15.9759C138.285 15.4673 138.632 15.0724 139.075 14.7912C139.521 14.5099 140.039 14.3693 140.63 14.3693C141.221 14.3693 141.738 14.5099 142.181 14.7912C142.627 15.0724 142.974 15.4673 143.221 15.9759C143.471 16.4844 143.596 17.0795 143.596 17.7614C143.596 18.4375 143.471 19.0284 143.221 19.5341C142.974 20.0398 142.627 20.4332 142.181 20.7145C141.738 20.9957 141.221 21.1364 140.63 21.1364ZM140.63 20.233C141.079 20.233 141.449 20.1179 141.738 19.8878C142.028 19.6577 142.243 19.3551 142.382 18.9801C142.521 18.6051 142.591 18.1989 142.591 17.7614C142.591 17.3239 142.521 16.9162 142.382 16.5384C142.243 16.1605 142.028 15.8551 141.738 15.6222C141.449 15.3892 141.079 15.2727 140.63 15.2727C140.181 15.2727 139.812 15.3892 139.522 15.6222C139.233 15.8551 139.018 16.1605 138.879 16.5384C138.74 16.9162 138.67 17.3239 138.67 17.7614C138.67 18.1989 138.74 18.6051 138.879 18.9801C139.018 19.3551 139.233 19.6577 139.522 19.8878C139.812 20.1179 140.181 20.233 140.63 20.233ZM145.131 21V14.4545H146.103V15.4432H146.171C146.29 15.1193 146.506 14.8565 146.819 14.6548C147.131 14.4531 147.484 14.3523 147.876 14.3523C147.95 14.3523 148.042 14.3537 148.153 14.3565C148.263 14.3594 148.347 14.3636 148.404 14.3693V15.392C148.37 15.3835 148.292 15.3707 148.17 15.3537C148.05 15.3338 147.924 15.3239 147.79 15.3239C147.472 15.3239 147.188 15.3906 146.938 15.5241C146.691 15.6548 146.495 15.8366 146.35 16.0696C146.208 16.2997 146.137 16.5625 146.137 16.858V21H145.131ZM153.977 17.0625V21H152.971V14.4545H153.943V15.4773H154.028C154.181 15.1449 154.414 14.8778 154.727 14.6761C155.039 14.4716 155.443 14.3693 155.937 14.3693C156.38 14.3693 156.768 14.4602 157.1 14.642C157.433 14.821 157.691 15.0938 157.876 15.4602C158.061 15.8239 158.153 16.2841 158.153 16.8409V21H157.147V16.9091C157.147 16.3949 157.014 15.9943 156.747 15.7074C156.48 15.4176 156.113 15.2727 155.647 15.2727C155.326 15.2727 155.039 15.3423 154.787 15.4815C154.537 15.6207 154.339 15.8239 154.194 16.0909C154.049 16.358 153.977 16.6818 153.977 17.0625ZM161.917 21.1534C161.502 21.1534 161.126 21.0753 160.788 20.919C160.45 20.7599 160.181 20.5312 159.982 20.233C159.783 19.9318 159.684 19.5682 159.684 19.142C159.684 18.767 159.758 18.4631 159.906 18.2301C160.053 17.9943 160.251 17.8097 160.498 17.6761C160.745 17.5426 161.018 17.4432 161.316 17.3778C161.617 17.3097 161.92 17.2557 162.224 17.2159C162.621 17.1648 162.944 17.1264 163.191 17.1009C163.441 17.0724 163.623 17.0256 163.737 16.9602C163.853 16.8949 163.911 16.7812 163.911 16.6193V16.5852C163.911 16.1648 163.796 15.8381 163.566 15.6051C163.339 15.3722 162.994 15.2557 162.531 15.2557C162.05 15.2557 161.674 15.3608 161.401 15.571C161.129 15.7812 160.937 16.0057 160.826 16.2443L159.871 15.9034C160.042 15.5057 160.269 15.196 160.553 14.9744C160.84 14.75 161.153 14.5937 161.491 14.5057C161.832 14.4148 162.167 14.3693 162.496 14.3693C162.707 14.3693 162.948 14.3949 163.221 14.446C163.496 14.4943 163.762 14.5952 164.018 14.7486C164.276 14.902 164.491 15.1335 164.661 15.4432C164.832 15.7528 164.917 16.1676 164.917 16.6875V21H163.911V20.1136H163.86C163.792 20.2557 163.678 20.4077 163.519 20.5696C163.36 20.7315 163.148 20.8693 162.884 20.983C162.62 21.0966 162.298 21.1534 161.917 21.1534ZM162.07 20.25C162.468 20.25 162.803 20.1719 163.076 20.0156C163.352 19.8594 163.559 19.6577 163.698 19.4105C163.84 19.1634 163.911 18.9034 163.911 18.6307V17.7102C163.869 17.7614 163.775 17.8082 163.63 17.8509C163.488 17.8906 163.323 17.9261 163.136 17.9574C162.951 17.9858 162.771 18.0114 162.594 18.0341C162.421 18.054 162.281 18.071 162.173 18.0852C161.911 18.1193 161.667 18.1747 161.44 18.2514C161.215 18.3253 161.033 18.4375 160.894 18.5881C160.758 18.7358 160.69 18.9375 160.69 19.1932C160.69 19.5426 160.819 19.8068 161.077 19.9858C161.339 20.1619 161.67 20.25 162.07 20.25ZM166.752 21V14.4545H167.724V15.4773H167.809C167.946 15.1278 168.166 14.8565 168.47 14.6634C168.774 14.4673 169.139 14.3693 169.565 14.3693C169.997 14.3693 170.356 14.4673 170.643 14.6634C170.933 14.8565 171.159 15.1278 171.321 15.4773H171.389C171.556 15.1392 171.808 14.8707 172.143 14.6719C172.478 14.4702 172.88 14.3693 173.349 14.3693C173.934 14.3693 174.413 14.5526 174.785 14.919C175.157 15.2827 175.343 15.8494 175.343 16.6193V21H174.338V16.6193C174.338 16.1364 174.206 15.7912 173.941 15.5838C173.677 15.3764 173.366 15.2727 173.008 15.2727C172.548 15.2727 172.191 15.4119 171.939 15.6903C171.686 15.9659 171.559 16.3153 171.559 16.7386V21H170.537V16.517C170.537 16.1449 170.416 15.8452 170.174 15.6179C169.933 15.3878 169.622 15.2727 169.241 15.2727C168.98 15.2727 168.735 15.3423 168.508 15.4815C168.284 15.6207 168.102 15.8139 167.963 16.0611C167.826 16.3054 167.758 16.5881 167.758 16.9091V21H166.752ZM179.926 21.1364C179.296 21.1364 178.752 20.9972 178.294 20.7188C177.84 20.4375 177.489 20.0455 177.242 19.5426C176.998 19.0369 176.875 18.4489 176.875 17.7784C176.875 17.108 176.998 16.517 177.242 16.0057C177.489 15.4915 177.833 15.0909 178.273 14.804C178.716 14.5142 179.233 14.3693 179.824 14.3693C180.165 14.3693 180.502 14.4261 180.834 14.5398C181.167 14.6534 181.469 14.8381 181.742 15.0938C182.015 15.3466 182.232 15.6818 182.394 16.0994C182.556 16.517 182.637 17.0312 182.637 17.642V18.0682H177.591V17.1989H181.614C181.614 16.8295 181.54 16.5 181.392 16.2102C181.248 15.9205 181.04 15.6918 180.77 15.5241C180.503 15.3565 180.188 15.2727 179.824 15.2727C179.424 15.2727 179.077 15.3722 178.784 15.571C178.495 15.767 178.272 16.0227 178.115 16.3381C177.959 16.6534 177.881 16.9915 177.881 17.3523V17.9318C177.881 18.4261 177.966 18.8452 178.137 19.1889C178.31 19.5298 178.55 19.7898 178.857 19.9688C179.164 20.1449 179.52 20.233 179.926 20.233C180.191 20.233 180.429 20.196 180.642 20.1222C180.858 20.0455 181.044 19.9318 181.201 19.7812C181.357 19.6278 181.478 19.4375 181.563 19.2102L182.534 19.483C182.432 19.8125 182.26 20.1023 182.019 20.3523C181.777 20.5994 181.479 20.7926 181.124 20.9318C180.769 21.0682 180.37 21.1364 179.926 21.1364Z" fill="var(--colors-neutral-neutral-700)"/>
<path d="M204.006 11.8636L201.193 22.3125H200.273L203.085 11.8636H204.006Z" fill="var(--colors-neutral-neutral-700)"/>
<path d="M222.415 12.2727L225.006 19.6193H225.108L227.699 12.2727H228.807L225.602 21H224.511L221.307 12.2727H222.415ZM232.165 21.1364C231.534 21.1364 230.99 20.9972 230.533 20.7188C230.078 20.4375 229.727 20.0455 229.48 19.5426C229.236 19.0369 229.114 18.4489 229.114 17.7784C229.114 17.108 229.236 16.517 229.48 16.0057C229.727 15.4915 230.071 15.0909 230.511 14.804C230.955 14.5142 231.472 14.3693 232.062 14.3693C232.403 14.3693 232.74 14.4261 233.072 14.5398C233.405 14.6534 233.707 14.8381 233.98 15.0938C234.253 15.3466 234.47 15.6818 234.632 16.0994C234.794 16.517 234.875 17.0312 234.875 17.642V18.0682H229.83V17.1989H233.852C233.852 16.8295 233.778 16.5 233.631 16.2102C233.486 15.9205 233.278 15.6918 233.009 15.5241C232.741 15.3565 232.426 15.2727 232.062 15.2727C231.662 15.2727 231.315 15.3722 231.023 15.571C230.733 15.767 230.51 16.0227 230.354 16.3381C230.197 16.6534 230.119 16.9915 230.119 17.3523V17.9318C230.119 18.4261 230.205 18.8452 230.375 19.1889C230.548 19.5298 230.788 19.7898 231.095 19.9688C231.402 20.1449 231.759 20.233 232.165 20.233C232.429 20.233 232.668 20.196 232.881 20.1222C233.097 20.0455 233.283 19.9318 233.439 19.7812C233.595 19.6278 233.716 19.4375 233.801 19.2102L234.773 19.483C234.67 19.8125 234.499 20.1023 234.257 20.3523C234.016 20.5994 233.717 20.7926 233.362 20.9318C233.007 21.0682 232.608 21.1364 232.165 21.1364ZM236.405 21V14.4545H237.376V15.4432H237.445C237.564 15.1193 237.78 14.8565 238.092 14.6548C238.405 14.4531 238.757 14.3523 239.149 14.3523C239.223 14.3523 239.315 14.3537 239.426 14.3565C239.537 14.3594 239.621 14.3636 239.678 14.3693V15.392C239.643 15.3835 239.565 15.3707 239.443 15.3537C239.324 15.3338 239.197 15.3239 239.064 15.3239C238.746 15.3239 238.462 15.3906 238.212 15.5241C237.964 15.6548 237.768 15.8366 237.624 16.0696C237.482 16.2997 237.411 16.5625 237.411 16.858V21H236.405ZM245.506 15.9205L244.603 16.1761C244.546 16.0256 244.462 15.8793 244.351 15.7372C244.243 15.5923 244.096 15.473 243.908 15.3793C243.721 15.2855 243.48 15.2386 243.188 15.2386C242.787 15.2386 242.453 15.331 242.186 15.5156C241.922 15.6974 241.79 15.929 241.79 16.2102C241.79 16.4602 241.881 16.6577 242.063 16.8026C242.245 16.9474 242.529 17.0682 242.915 17.1648L243.887 17.4034C244.472 17.5455 244.908 17.7628 245.195 18.0554C245.482 18.3452 245.625 18.7187 245.625 19.1761C245.625 19.5511 245.517 19.8864 245.301 20.1818C245.088 20.4773 244.79 20.7102 244.407 20.8807C244.023 21.0511 243.577 21.1364 243.069 21.1364C242.401 21.1364 241.848 20.9915 241.411 20.7017C240.973 20.4119 240.696 19.9886 240.58 19.4318L241.534 19.1932C241.625 19.5455 241.797 19.8097 242.05 19.9858C242.306 20.1619 242.64 20.25 243.051 20.25C243.52 20.25 243.892 20.1506 244.168 19.9517C244.446 19.75 244.586 19.5085 244.586 19.2273C244.586 19 244.506 18.8097 244.347 18.6562C244.188 18.5 243.944 18.3835 243.614 18.3068L242.523 18.0511C241.924 17.9091 241.483 17.6889 241.202 17.3906C240.924 17.0895 240.784 16.7131 240.784 16.2614C240.784 15.892 240.888 15.5653 241.096 15.2812C241.306 14.9972 241.591 14.7741 241.952 14.6122C242.316 14.4503 242.728 14.3693 243.188 14.3693C243.836 14.3693 244.344 14.5114 244.713 14.7955C245.086 15.0795 245.35 15.4545 245.506 15.9205ZM247.139 21V14.4545H248.145V21H247.139ZM247.651 13.3636C247.455 13.3636 247.286 13.2969 247.143 13.1634C247.004 13.0298 246.935 12.8693 246.935 12.6818C246.935 12.4943 247.004 12.3338 247.143 12.2003C247.286 12.0668 247.455 12 247.651 12C247.847 12 248.014 12.0668 248.153 12.2003C248.295 12.3338 248.366 12.4943 248.366 12.6818C248.366 12.8693 248.295 13.0298 248.153 13.1634C248.014 13.2969 247.847 13.3636 247.651 13.3636ZM252.646 21.1364C252.055 21.1364 251.537 20.9957 251.091 20.7145C250.647 20.4332 250.301 20.0398 250.051 19.5341C249.804 19.0284 249.68 18.4375 249.68 17.7614C249.68 17.0795 249.804 16.4844 250.051 15.9759C250.301 15.4673 250.647 15.0724 251.091 14.7912C251.537 14.5099 252.055 14.3693 252.646 14.3693C253.237 14.3693 253.754 14.5099 254.197 14.7912C254.643 15.0724 254.99 15.4673 255.237 15.9759C255.487 16.4844 255.612 17.0795 255.612 17.7614C255.612 18.4375 255.487 19.0284 255.237 19.5341C254.99 20.0398 254.643 20.4332 254.197 20.7145C253.754 20.9957 253.237 21.1364 252.646 21.1364ZM252.646 20.233C253.095 20.233 253.464 20.1179 253.754 19.8878C254.044 19.6577 254.258 19.3551 254.397 18.9801C254.537 18.6051 254.606 18.1989 254.606 17.7614C254.606 17.3239 254.537 16.9162 254.397 16.5384C254.258 16.1605 254.044 15.8551 253.754 15.6222C253.464 15.3892 253.095 15.2727 252.646 15.2727C252.197 15.2727 251.828 15.3892 251.538 15.6222C251.248 15.8551 251.034 16.1605 250.895 16.5384C250.755 16.9162 250.686 17.3239 250.686 17.7614C250.686 18.1989 250.755 18.6051 250.895 18.9801C251.034 19.3551 251.248 19.6577 251.538 19.8878C251.828 20.1179 252.197 20.233 252.646 20.233ZM258.153 17.0625V21H257.147V14.4545H258.119V15.4773H258.204C258.357 15.1449 258.59 14.8778 258.903 14.6761C259.215 14.4716 259.619 14.3693 260.113 14.3693C260.556 14.3693 260.944 14.4602 261.276 14.642C261.609 14.821 261.867 15.0938 262.052 15.4602C262.237 15.8239 262.329 16.2841 262.329 16.8409V21H261.323V16.9091C261.323 16.3949 261.19 15.9943 260.923 15.7074C260.656 15.4176 260.289 15.2727 259.823 15.2727C259.502 15.2727 259.215 15.3423 258.962 15.4815C258.712 15.6207 258.515 15.8239 258.37 16.0909C258.225 16.358 258.153 16.6818 258.153 17.0625ZM270.371 21.1193C269.729 21.1193 269.182 20.9446 268.73 20.5952C268.279 20.2429 267.934 19.733 267.695 19.0653C267.456 18.3949 267.337 17.5852 267.337 16.6364C267.337 15.6932 267.456 14.8878 267.695 14.2202C267.936 13.5497 268.283 13.0384 268.735 12.6861C269.189 12.331 269.735 12.1534 270.371 12.1534C271.007 12.1534 271.551 12.331 272.003 12.6861C272.458 13.0384 272.804 13.5497 273.043 14.2202C273.284 14.8878 273.405 15.6932 273.405 16.6364C273.405 17.5852 273.286 18.3949 273.047 19.0653C272.809 19.733 272.463 20.2429 272.012 20.5952C271.56 20.9446 271.013 21.1193 270.371 21.1193ZM270.371 20.1818C271.007 20.1818 271.502 19.875 271.854 19.2614C272.206 18.6477 272.382 17.7727 272.382 16.6364C272.382 15.8807 272.301 15.2372 272.14 14.706C271.98 14.1747 271.75 13.7699 271.449 13.4915C271.151 13.2131 270.792 13.0739 270.371 13.0739C269.74 13.0739 269.248 13.3849 268.892 14.0071C268.537 14.6264 268.36 15.5028 268.36 16.6364C268.36 17.392 268.439 18.0341 268.598 18.5625C268.757 19.0909 268.986 19.4929 269.284 19.7685C269.586 20.044 269.948 20.1818 270.371 20.1818Z" fill="var(--colors-neutral-neutral-800)"/>
<path d="M291 19.7019L285.692 14.3942L286.4 13.6865L291 18.2865L295.6 13.6865L296.308 14.3942L291 19.7019Z" fill="var(--colors-neutral-neutral-800)"/>
</svg>
