<svg width="362" height="317" viewBox="0 0 362 317" fill="none" xmlns="http://www.w3.org/2000/svg">
<path d="M12.3111 9.16619H10.3168C10.2401 8.74006 10.0973 8.36506 9.88849 8.04119C9.67969 7.71733 9.42401 7.44247 9.12145 7.21662C8.81889 6.99077 8.48011 6.82031 8.10511 6.70526C7.73438 6.5902 7.3402 6.53267 6.92259 6.53267C6.16832 6.53267 5.4929 6.7223 4.89631 7.10156C4.30398 7.48082 3.83523 8.03693 3.49006 8.76989C3.14915 9.50284 2.97869 10.3977 2.97869 11.4545C2.97869 12.5199 3.14915 13.419 3.49006 14.152C3.83523 14.8849 4.30611 15.4389 4.9027 15.8139C5.49929 16.1889 6.17045 16.3764 6.91619 16.3764C7.32955 16.3764 7.72159 16.321 8.09233 16.2102C8.46733 16.0952 8.80611 15.9268 9.10866 15.7053C9.41122 15.4837 9.6669 15.2131 9.87571 14.8935C10.0888 14.5696 10.2358 14.1989 10.3168 13.7812L12.3111 13.7876C12.2045 14.4311 11.9979 15.0234 11.6911 15.5646C11.3885 16.1016 10.9986 16.5661 10.5213 16.9581C10.0483 17.3459 9.5071 17.6463 8.89773 17.8594C8.28835 18.0724 7.62358 18.179 6.90341 18.179C5.76989 18.179 4.75994 17.9105 3.87358 17.3736C2.98722 16.8324 2.28835 16.0589 1.77699 15.0533C1.26989 14.0476 1.01634 12.848 1.01634 11.4545C1.01634 10.0568 1.27202 8.85724 1.78338 7.85582C2.29474 6.85014 2.99361 6.07883 3.87997 5.5419C4.76634 5.00071 5.77415 4.73011 6.90341 4.73011C7.59801 4.73011 8.24574 4.83026 8.84659 5.03054C9.4517 5.22656 9.99503 5.51633 10.4766 5.89986C10.9581 6.27912 11.3565 6.74361 11.6719 7.29332C11.9872 7.83878 12.2003 8.46307 12.3111 9.16619ZM14.5211 18V8.18182H16.3684V9.74148H16.4707C16.6497 9.21307 16.965 8.79758 17.4167 8.49503C17.8727 8.18821 18.3883 8.0348 18.9636 8.0348C19.0829 8.0348 19.2235 8.03906 19.3855 8.04759C19.5517 8.05611 19.6816 8.06676 19.7754 8.07955V9.90767C19.6987 9.88636 19.5623 9.86293 19.3663 9.83736C19.1703 9.80753 18.9743 9.79261 18.7782 9.79261C18.3265 9.79261 17.9238 9.88849 17.5701 10.0803C17.2207 10.2678 16.9437 10.5298 16.7392 10.8665C16.5346 11.1989 16.4324 11.5781 16.4324 12.0043V18H14.5211ZM25.3093 18.1982C24.342 18.1982 23.5089 17.9915 22.81 17.5781C22.1154 17.1605 21.5785 16.5746 21.1992 15.8203C20.8242 15.0618 20.6367 14.1733 20.6367 13.1548C20.6367 12.1491 20.8242 11.2628 21.1992 10.4957C21.5785 9.72869 22.1069 9.12997 22.7844 8.69957C23.4663 8.26918 24.2631 8.05398 25.1751 8.05398C25.729 8.05398 26.266 8.1456 26.7859 8.32884C27.3058 8.51207 27.7724 8.79972 28.1857 9.19176C28.5991 9.58381 28.9251 10.093 29.1637 10.7195C29.4023 11.3416 29.5217 12.098 29.5217 12.9886V13.6662H21.717V12.2344H27.6488C27.6488 11.7315 27.5465 11.2862 27.342 10.8984C27.1374 10.5064 26.8498 10.1974 26.479 9.97159C26.1126 9.74574 25.6822 9.63281 25.1879 9.63281C24.6509 9.63281 24.1822 9.76491 23.7816 10.0291C23.3853 10.2891 23.0785 10.63 22.8612 11.0518C22.6481 11.4695 22.5415 11.9233 22.5415 12.4134V13.532C22.5415 14.1882 22.6566 14.7464 22.8867 15.2067C23.1211 15.6669 23.4471 16.0185 23.8647 16.2614C24.2823 16.5 24.7702 16.6193 25.3285 16.6193C25.6907 16.6193 26.021 16.5682 26.3192 16.4659C26.6175 16.3594 26.8754 16.2017 27.0927 15.9929C27.31 15.7841 27.4762 15.5263 27.5913 15.2195L29.4002 15.5455C29.2553 16.0781 28.9954 16.5447 28.6204 16.9453C28.2496 17.3416 27.783 17.6506 27.2205 17.8722C26.6623 18.0895 26.0252 18.1982 25.3093 18.1982ZM34.4995 18.2173C33.8773 18.2173 33.3148 18.1023 32.812 17.8722C32.3091 17.6378 31.9107 17.299 31.6167 16.8558C31.3269 16.4126 31.182 15.8693 31.182 15.2259C31.182 14.6719 31.2885 14.2159 31.5016 13.858C31.7147 13.5 32.0023 13.2166 32.3645 13.0078C32.7267 12.799 33.1316 12.6413 33.579 12.5348C34.0265 12.4283 34.4824 12.3473 34.9469 12.2919C35.535 12.2237 36.0123 12.1683 36.3787 12.1257C36.7452 12.0788 37.0115 12.0043 37.1777 11.902C37.3439 11.7997 37.427 11.6335 37.427 11.4034V11.3587C37.427 10.8004 37.2694 10.3679 36.954 10.0611C36.6429 9.75426 36.1784 9.60085 35.5605 9.60085C34.9171 9.60085 34.41 9.74361 34.0392 10.0291C33.6728 10.3104 33.4192 10.6236 33.2786 10.9688L31.4824 10.5597C31.6955 9.96307 32.0066 9.48153 32.4157 9.11506C32.829 8.74432 33.3042 8.47585 33.8411 8.30966C34.378 8.1392 34.9426 8.05398 35.535 8.05398C35.927 8.05398 36.3425 8.10085 36.7814 8.1946C37.2246 8.28409 37.638 8.45028 38.0215 8.69318C38.4093 8.93608 38.7267 9.28338 38.9739 9.73509C39.2211 10.1825 39.3446 10.7642 39.3446 11.4801V18H37.4782V16.6577H37.4015C37.2779 16.9048 37.0925 17.1477 36.8453 17.3864C36.5982 17.625 36.2807 17.8232 35.8929 17.9808C35.5051 18.1385 35.0407 18.2173 34.4995 18.2173ZM34.915 16.6832C35.4434 16.6832 35.8951 16.5788 36.2701 16.37C36.6493 16.1612 36.937 15.8885 37.133 15.5518C37.3333 15.2109 37.4334 14.8466 37.4334 14.4588V13.1932C37.3652 13.2614 37.2331 13.3253 37.0371 13.3849C36.8453 13.4403 36.6259 13.4893 36.3787 13.532C36.1316 13.5703 35.8908 13.6065 35.6564 13.6406C35.4221 13.6705 35.226 13.696 35.0684 13.7173C34.6976 13.7642 34.3588 13.843 34.052 13.9538C33.7495 14.0646 33.5066 14.2244 33.3233 14.4332C33.1444 14.6378 33.0549 14.9105 33.0549 15.2514C33.0549 15.7244 33.2296 16.0824 33.579 16.3253C33.9284 16.5639 34.3738 16.6832 34.915 16.6832ZM46.4734 8.18182V9.71591H41.1104V8.18182H46.4734ZM42.5487 5.82955H44.4599V15.1172C44.4599 15.4879 44.5153 15.767 44.6261 15.9545C44.7369 16.1378 44.8796 16.2635 45.0543 16.3317C45.2333 16.3956 45.4272 16.4276 45.636 16.4276C45.7894 16.4276 45.9237 16.4169 46.0387 16.3956C46.1538 16.3743 46.2433 16.3572 46.3072 16.3445L46.6523 17.9233C46.5415 17.9659 46.3839 18.0085 46.1793 18.0511C45.9748 18.098 45.7191 18.1236 45.4123 18.1278C44.9094 18.1364 44.4407 18.0469 44.006 17.8594C43.5714 17.6719 43.2198 17.3821 42.9513 16.9901C42.6829 16.598 42.5487 16.1058 42.5487 15.5135V5.82955ZM52.7136 18.1982C51.7463 18.1982 50.9132 17.9915 50.2143 17.5781C49.5197 17.1605 48.9828 16.5746 48.6035 15.8203C48.2285 15.0618 48.041 14.1733 48.041 13.1548C48.041 12.1491 48.2285 11.2628 48.6035 10.4957C48.9828 9.72869 49.5112 9.12997 50.1887 8.69957C50.8706 8.26918 51.6674 8.05398 52.5794 8.05398C53.1333 8.05398 53.6703 8.1456 54.1902 8.32884C54.71 8.51207 55.1767 8.79972 55.59 9.19176C56.0034 9.58381 56.3294 10.093 56.568 10.7195C56.8066 11.3416 56.926 12.098 56.926 12.9886V13.6662H49.1213V12.2344H55.0531C55.0531 11.7315 54.9508 11.2862 54.7463 10.8984C54.5417 10.5064 54.2541 10.1974 53.8833 9.97159C53.5169 9.74574 53.0865 9.63281 52.5922 9.63281C52.0552 9.63281 51.5865 9.76491 51.1859 10.0291C50.7896 10.2891 50.4828 10.63 50.2654 11.0518C50.0524 11.4695 49.9458 11.9233 49.9458 12.4134V13.532C49.9458 14.1882 50.0609 14.7464 50.291 15.2067C50.5254 15.6669 50.8514 16.0185 51.269 16.2614C51.6866 16.5 52.1745 16.6193 52.7328 16.6193C53.095 16.6193 53.4252 16.5682 53.7235 16.4659C54.0218 16.3594 54.2797 16.2017 54.497 15.9929C54.7143 15.7841 54.8805 15.5263 54.9956 15.2195L56.8045 15.5455C56.6596 16.0781 56.3997 16.5447 56.0247 16.9453C55.6539 17.3416 55.1873 17.6506 54.6248 17.8722C54.0666 18.0895 53.4295 18.1982 52.7136 18.1982ZM65.7214 12.1705V18H63.8102V8.18182H65.6447V9.77983H65.7662C65.992 9.25994 66.3457 8.84233 66.8272 8.52699C67.313 8.21165 67.9245 8.05398 68.6618 8.05398C69.3308 8.05398 69.9167 8.1946 70.4196 8.47585C70.9224 8.75284 71.3123 9.16619 71.5893 9.71591C71.8663 10.2656 72.0048 10.9453 72.0048 11.755V18H70.0936V11.9851C70.0936 11.2734 69.9082 10.7173 69.5375 10.3168C69.1667 9.91193 68.6575 9.70952 68.0098 9.70952C67.5666 9.70952 67.1724 9.8054 66.8272 9.99716C66.4863 10.1889 66.2157 10.4702 66.0154 10.8409C65.8194 11.2074 65.7214 11.6506 65.7214 12.1705ZM78.7995 18.1982C77.8322 18.1982 76.9991 17.9915 76.3002 17.5781C75.6056 17.1605 75.0687 16.5746 74.6895 15.8203C74.3145 15.0618 74.127 14.1733 74.127 13.1548C74.127 12.1491 74.3145 11.2628 74.6895 10.4957C75.0687 9.72869 75.5971 9.12997 76.2747 8.69957C76.9565 8.26918 77.7534 8.05398 78.6653 8.05398C79.2193 8.05398 79.7562 8.1456 80.2761 8.32884C80.796 8.51207 81.2626 8.79972 81.676 9.19176C82.0893 9.58381 82.4153 10.093 82.6539 10.7195C82.8926 11.3416 83.0119 12.098 83.0119 12.9886V13.6662H75.2072V12.2344H81.139C81.139 11.7315 81.0368 11.2862 80.8322 10.8984C80.6277 10.5064 80.34 10.1974 79.9693 9.97159C79.6028 9.74574 79.1724 9.63281 78.6781 9.63281C78.1412 9.63281 77.6724 9.76491 77.2718 10.0291C76.8755 10.2891 76.5687 10.63 76.3514 11.0518C76.1383 11.4695 76.0318 11.9233 76.0318 12.4134V13.532C76.0318 14.1882 76.1468 14.7464 76.377 15.2067C76.6113 15.6669 76.9373 16.0185 77.3549 16.2614C77.7725 16.5 78.2605 16.6193 78.8187 16.6193C79.1809 16.6193 79.5112 16.5682 79.8095 16.4659C80.1078 16.3594 80.3656 16.2017 80.5829 15.9929C80.8002 15.7841 80.9664 15.5263 81.0815 15.2195L82.8904 15.5455C82.7456 16.0781 82.4856 16.5447 82.1106 16.9453C81.7399 17.3416 81.2733 17.6506 80.7108 17.8722C80.1525 18.0895 79.5154 18.1982 78.7995 18.1982ZM87.2434 18L84.3542 8.18182H86.3294L88.2534 15.392H88.3493L90.2797 8.18182H92.2548L94.1724 15.3601H94.2683L96.1795 8.18182H98.1547L95.2718 18H93.3223L91.3279 10.9112H91.1809L89.1866 18H87.2434ZM109.405 8.18182V9.71591H103.856V8.18182H109.405ZM105.378 18V7.04403C105.378 6.4304 105.512 5.92116 105.78 5.51634C106.049 5.10724 106.405 4.80256 106.848 4.60227C107.291 4.39773 107.773 4.29545 108.292 4.29545C108.676 4.29545 109.004 4.32741 109.277 4.39134C109.55 4.45099 109.752 4.50639 109.884 4.55753L109.437 6.1044C109.347 6.07883 109.232 6.04901 109.091 6.01491C108.951 5.97656 108.78 5.95739 108.58 5.95739C108.116 5.95739 107.783 6.07244 107.583 6.30256C107.387 6.53267 107.289 6.86506 107.289 7.29972V18H105.378ZM113.288 4.90909V18H111.377V4.90909H113.288ZM119.995 18.1982C119.074 18.1982 118.271 17.9872 117.585 17.5653C116.899 17.1435 116.366 16.5533 115.987 15.7947C115.608 15.0362 115.418 14.1499 115.418 13.1357C115.418 12.1172 115.608 11.2266 115.987 10.4638C116.366 9.70099 116.899 9.10866 117.585 8.68679C118.271 8.26491 119.074 8.05398 119.995 8.05398C120.915 8.05398 121.718 8.26491 122.404 8.68679C123.091 9.10866 123.623 9.70099 124.002 10.4638C124.382 11.2266 124.571 12.1172 124.571 13.1357C124.571 14.1499 124.382 15.0362 124.002 15.7947C123.623 16.5533 123.091 17.1435 122.404 17.5653C121.718 17.9872 120.915 18.1982 119.995 18.1982ZM120.001 16.5938C120.598 16.5938 121.092 16.4361 121.484 16.1207C121.876 15.8054 122.166 15.3857 122.353 14.8615C122.545 14.3374 122.641 13.7599 122.641 13.1293C122.641 12.5028 122.545 11.9276 122.353 11.4034C122.166 10.875 121.876 10.451 121.484 10.1314C121.092 9.81179 120.598 9.65199 120.001 9.65199C119.4 9.65199 118.902 9.81179 118.505 10.1314C118.113 10.451 117.821 10.875 117.63 11.4034C117.442 11.9276 117.348 12.5028 117.348 13.1293C117.348 13.7599 117.442 14.3374 117.63 14.8615C117.821 15.3857 118.113 15.8054 118.505 16.1207C118.902 16.4361 119.4 16.5938 120.001 16.5938ZM130.84 18.1982C129.92 18.1982 129.117 17.9872 128.431 17.5653C127.744 17.1435 127.212 16.5533 126.833 15.7947C126.453 15.0362 126.264 14.1499 126.264 13.1357C126.264 12.1172 126.453 11.2266 126.833 10.4638C127.212 9.70099 127.744 9.10866 128.431 8.68679C129.117 8.26491 129.92 8.05398 130.84 8.05398C131.761 8.05398 132.564 8.26491 133.25 8.68679C133.936 9.10866 134.469 9.70099 134.848 10.4638C135.227 11.2266 135.417 12.1172 135.417 13.1357C135.417 14.1499 135.227 15.0362 134.848 15.7947C134.469 16.5533 133.936 17.1435 133.25 17.5653C132.564 17.9872 131.761 18.1982 130.84 18.1982ZM130.847 16.5938C131.443 16.5938 131.938 16.4361 132.33 16.1207C132.722 15.8054 133.012 15.3857 133.199 14.8615C133.391 14.3374 133.487 13.7599 133.487 13.1293C133.487 12.5028 133.391 11.9276 133.199 11.4034C133.012 10.875 132.722 10.451 132.33 10.1314C131.938 9.81179 131.443 9.65199 130.847 9.65199C130.246 9.65199 129.747 9.81179 129.351 10.1314C128.959 10.451 128.667 10.875 128.475 11.4034C128.288 11.9276 128.194 12.5028 128.194 13.1293C128.194 13.7599 128.288 14.3374 128.475 14.8615C128.667 15.3857 128.959 15.8054 129.351 16.1207C129.747 16.4361 130.246 16.5938 130.847 16.5938ZM137.55 18V8.18182H139.398V9.74148H139.5C139.679 9.21307 139.994 8.79758 140.446 8.49503C140.902 8.18821 141.418 8.0348 141.993 8.0348C142.112 8.0348 142.253 8.03906 142.415 8.04759C142.581 8.05611 142.711 8.06676 142.805 8.07955V9.90767C142.728 9.88636 142.592 9.86293 142.396 9.83736C142.2 9.80753 142.004 9.79261 141.808 9.79261C141.356 9.79261 140.953 9.88849 140.599 10.0803C140.25 10.2678 139.973 10.5298 139.768 10.8665C139.564 11.1989 139.462 11.5781 139.462 12.0043V18H137.55ZM144.459 21.6818V8.18182H146.325V9.77344H146.485C146.596 9.56889 146.756 9.33239 146.964 9.06392C147.173 8.79545 147.463 8.56108 147.834 8.3608C148.204 8.15625 148.694 8.05398 149.304 8.05398C150.096 8.05398 150.804 8.25426 151.426 8.65483C152.048 9.0554 152.536 9.63281 152.89 10.3871C153.248 11.1413 153.427 12.049 153.427 13.1101C153.427 14.1712 153.25 15.081 152.896 15.8395C152.542 16.5937 152.057 17.1754 151.439 17.5845C150.821 17.9893 150.116 18.1918 149.323 18.1918C148.726 18.1918 148.238 18.0916 147.859 17.8913C147.484 17.6911 147.19 17.4567 146.977 17.1882C146.764 16.9197 146.6 16.6811 146.485 16.4723H146.37V21.6818H144.459ZM146.331 13.0909C146.331 13.7812 146.432 14.3864 146.632 14.9062C146.832 15.4261 147.122 15.8331 147.501 16.1271C147.881 16.4169 148.345 16.5618 148.895 16.5618C149.466 16.5618 149.943 16.4105 150.327 16.108C150.71 15.8011 151 15.3857 151.196 14.8615C151.396 14.3374 151.496 13.7472 151.496 13.0909C151.496 12.4432 151.398 11.8615 151.202 11.3459C151.01 10.8303 150.721 10.4233 150.333 10.125C149.949 9.8267 149.47 9.67756 148.895 9.67756C148.341 9.67756 147.872 9.82031 147.488 10.1058C147.109 10.3913 146.822 10.7898 146.626 11.3011C146.43 11.8125 146.331 12.4091 146.331 13.0909ZM157.479 4.90909V18H155.568V4.90909H157.479ZM162.908 18.2173C162.286 18.2173 161.723 18.1023 161.22 17.8722C160.717 17.6378 160.319 17.299 160.025 16.8558C159.735 16.4126 159.59 15.8693 159.59 15.2259C159.59 14.6719 159.697 14.2159 159.91 13.858C160.123 13.5 160.411 13.2166 160.773 13.0078C161.135 12.799 161.54 12.6413 161.987 12.5348C162.435 12.4283 162.891 12.3473 163.355 12.2919C163.943 12.2237 164.42 12.1683 164.787 12.1257C165.153 12.0788 165.42 12.0043 165.586 11.902C165.752 11.7997 165.835 11.6335 165.835 11.4034V11.3587C165.835 10.8004 165.678 10.3679 165.362 10.0611C165.051 9.75426 164.587 9.60085 163.969 9.60085C163.325 9.60085 162.818 9.74361 162.447 10.0291C162.081 10.3104 161.827 10.6236 161.687 10.9688L159.891 10.5597C160.104 9.96307 160.415 9.48153 160.824 9.11506C161.237 8.74432 161.712 8.47585 162.249 8.30966C162.786 8.1392 163.351 8.05398 163.943 8.05398C164.335 8.05398 164.751 8.10085 165.19 8.1946C165.633 8.28409 166.046 8.45028 166.43 8.69318C166.817 8.93608 167.135 9.28338 167.382 9.73509C167.629 10.1825 167.753 10.7642 167.753 11.4801V18H165.886V16.6577H165.81C165.686 16.9048 165.501 17.1477 165.254 17.3864C165.006 17.625 164.689 17.8232 164.301 17.9808C163.913 18.1385 163.449 18.2173 162.908 18.2173ZM163.323 16.6832C163.852 16.6832 164.303 16.5788 164.678 16.37C165.058 16.1612 165.345 15.8885 165.541 15.5518C165.741 15.2109 165.842 14.8466 165.842 14.4588V13.1932C165.773 13.2614 165.641 13.3253 165.445 13.3849C165.254 13.4403 165.034 13.4893 164.787 13.532C164.54 13.5703 164.299 13.6065 164.065 13.6406C163.83 13.6705 163.634 13.696 163.477 13.7173C163.106 13.7642 162.767 13.843 162.46 13.9538C162.158 14.0646 161.915 14.2244 161.732 14.4332C161.553 14.6378 161.463 14.9105 161.463 15.2514C161.463 15.7244 161.638 16.0824 161.987 16.3253C162.337 16.5639 162.782 16.6832 163.323 16.6832ZM172.21 12.1705V18H170.298V8.18182H172.133V9.77983H172.254C172.48 9.25994 172.834 8.84233 173.316 8.52699C173.801 8.21165 174.413 8.05398 175.15 8.05398C175.819 8.05398 176.405 8.1946 176.908 8.47585C177.411 8.75284 177.801 9.16619 178.078 9.71591C178.355 10.2656 178.493 10.9453 178.493 11.755V18H176.582V11.9851C176.582 11.2734 176.396 10.7173 176.026 10.3168C175.655 9.91193 175.146 9.70952 174.498 9.70952C174.055 9.70952 173.661 9.8054 173.316 9.99716C172.975 10.1889 172.704 10.4702 172.504 10.8409C172.308 11.2074 172.21 11.6506 172.21 12.1705Z" fill="#222222"/>
<path d="M10.6364 73.3636V85H9.27273L2.93182 75.8636H2.81818V85H1.40909V73.3636H2.77273L9.13636 82.5227H9.25V73.3636H10.6364ZM15.8423 85.2045C15.2893 85.2045 14.7874 85.1004 14.3366 84.892C13.8859 84.6799 13.5279 84.375 13.2628 83.9773C12.9976 83.5758 12.8651 83.0909 12.8651 82.5227C12.8651 82.0227 12.9635 81.6174 13.1605 81.3068C13.3575 80.9924 13.6207 80.7462 13.9503 80.5682C14.2798 80.3902 14.6435 80.2576 15.0412 80.1705C15.4427 80.0795 15.8461 80.0076 16.2514 79.9545C16.7817 79.8864 17.2116 79.8352 17.5412 79.8011C17.8745 79.7633 18.117 79.7008 18.2685 79.6136C18.4238 79.5265 18.5014 79.375 18.5014 79.1591V79.1136C18.5014 78.553 18.348 78.1174 18.0412 77.8068C17.7382 77.4962 17.2779 77.3409 16.6605 77.3409C16.0204 77.3409 15.5185 77.4811 15.1548 77.7614C14.7912 78.0417 14.5355 78.3409 14.3878 78.6591L13.1151 78.2045C13.3423 77.6742 13.6454 77.2614 14.0241 76.9659C14.4067 76.6667 14.8234 76.4583 15.2741 76.3409C15.7287 76.2197 16.1757 76.1591 16.6151 76.1591C16.8954 76.1591 17.2173 76.1932 17.581 76.2614C17.9484 76.3258 18.3026 76.4602 18.6435 76.6648C18.9882 76.8693 19.2741 77.178 19.5014 77.5909C19.7287 78.0038 19.8423 78.5568 19.8423 79.25V85H18.5014V83.8182H18.4332C18.3423 84.0076 18.1908 84.2102 17.9787 84.4261C17.7666 84.642 17.4844 84.8258 17.1321 84.9773C16.7798 85.1288 16.3499 85.2045 15.8423 85.2045ZM16.0469 84C16.5772 84 17.0241 83.8958 17.3878 83.6875C17.7552 83.4792 18.0317 83.2102 18.2173 82.8807C18.4067 82.5511 18.5014 82.2045 18.5014 81.8409V80.6136C18.4446 80.6818 18.3196 80.7443 18.1264 80.8011C17.937 80.8542 17.7173 80.9015 17.4673 80.9432C17.2211 80.9811 16.9806 81.0152 16.7457 81.0455C16.5147 81.072 16.3272 81.0947 16.1832 81.1136C15.8348 81.1591 15.509 81.233 15.206 81.3352C14.9067 81.4337 14.6643 81.5833 14.4787 81.7841C14.2969 81.9811 14.206 82.25 14.206 82.5909C14.206 83.0568 14.3783 83.4091 14.723 83.6477C15.0715 83.8826 15.5128 84 16.0469 84ZM22.2898 85V76.2727H23.5852V77.6364H23.6989C23.8807 77.1705 24.1742 76.8087 24.5795 76.5511C24.9848 76.2898 25.4716 76.1591 26.0398 76.1591C26.6155 76.1591 27.0947 76.2898 27.4773 76.5511C27.8636 76.8087 28.1648 77.1705 28.3807 77.6364H28.4716C28.6951 77.1856 29.0303 76.8277 29.4773 76.5625C29.9242 76.2936 30.4602 76.1591 31.0852 76.1591C31.8655 76.1591 32.5038 76.4034 33 76.892C33.4962 77.3769 33.7443 78.1326 33.7443 79.1591V85H32.4034V79.1591C32.4034 78.5152 32.2273 78.0549 31.875 77.7784C31.5227 77.5019 31.108 77.3636 30.6307 77.3636C30.017 77.3636 29.5417 77.5492 29.2045 77.9205C28.8674 78.2879 28.6989 78.7538 28.6989 79.3182V85H27.3352V79.0227C27.3352 78.5265 27.1742 78.1269 26.8523 77.8239C26.5303 77.517 26.1155 77.3636 25.608 77.3636C25.2595 77.3636 24.9337 77.4564 24.6307 77.642C24.3314 77.8277 24.089 78.0852 23.9034 78.4148C23.7216 78.7405 23.6307 79.1174 23.6307 79.5455V85H22.2898ZM39.8551 85.1818C39.0142 85.1818 38.2888 84.9962 37.679 84.625C37.0729 84.25 36.6051 83.7273 36.2756 83.0568C35.9498 82.3826 35.7869 81.5985 35.7869 80.7045C35.7869 79.8106 35.9498 79.0227 36.2756 78.3409C36.6051 77.6553 37.0634 77.1212 37.6506 76.7386C38.2415 76.3523 38.9309 76.1591 39.7188 76.1591C40.1733 76.1591 40.6222 76.2348 41.0653 76.3864C41.5085 76.5379 41.9119 76.7841 42.2756 77.125C42.6392 77.4621 42.929 77.9091 43.1449 78.4659C43.3608 79.0227 43.4688 79.7083 43.4688 80.5227V81.0909H36.7415V79.9318H42.1051C42.1051 79.4394 42.0066 79 41.8097 78.6136C41.6165 78.2273 41.34 77.9223 40.9801 77.6989C40.6241 77.4754 40.2036 77.3636 39.7188 77.3636C39.1847 77.3636 38.7225 77.4962 38.3324 77.7614C37.946 78.0227 37.6487 78.3636 37.4403 78.7841C37.232 79.2045 37.1278 79.6553 37.1278 80.1364V80.9091C37.1278 81.5682 37.2415 82.1269 37.4688 82.5852C37.6998 83.0398 38.0199 83.3864 38.429 83.625C38.8381 83.8598 39.3134 83.9773 39.8551 83.9773C40.2074 83.9773 40.5256 83.928 40.8097 83.8295C41.0975 83.7273 41.3456 83.5758 41.554 83.375C41.7623 83.1705 41.9233 82.9167 42.0369 82.6136L43.3324 82.9773C43.196 83.4167 42.9669 83.803 42.6449 84.1364C42.3229 84.4659 41.9252 84.7235 41.4517 84.9091C40.9782 85.0909 40.446 85.1818 39.8551 85.1818Z" fill="#222222"/>
<rect width="362" height="56" transform="translate(0 97)" fill="#F7F7F7"/>
<path d="M17.4091 130.5V118.864H24.3864V120.114H18.8182V124.045H23.8636V125.295H18.8182V130.5H17.4091ZM27.9588 118.864V130.5H26.6179V118.864H27.9588ZM33.9602 130.682C33.1723 130.682 32.4811 130.494 31.8864 130.119C31.2955 129.744 30.8333 129.22 30.5 128.545C30.1705 127.871 30.0057 127.083 30.0057 126.182C30.0057 125.273 30.1705 124.479 30.5 123.801C30.8333 123.123 31.2955 122.597 31.8864 122.222C32.4811 121.847 33.1723 121.659 33.9602 121.659C34.7481 121.659 35.4375 121.847 36.0284 122.222C36.6231 122.597 37.0852 123.123 37.4148 123.801C37.7481 124.479 37.9148 125.273 37.9148 126.182C37.9148 127.083 37.7481 127.871 37.4148 128.545C37.0852 129.22 36.6231 129.744 36.0284 130.119C35.4375 130.494 34.7481 130.682 33.9602 130.682ZM33.9602 129.477C34.5587 129.477 35.0511 129.324 35.4375 129.017C35.8239 128.71 36.1098 128.307 36.2955 127.807C36.4811 127.307 36.5739 126.765 36.5739 126.182C36.5739 125.598 36.4811 125.055 36.2955 124.551C36.1098 124.047 35.8239 123.64 35.4375 123.33C35.0511 123.019 34.5587 122.864 33.9602 122.864C33.3617 122.864 32.8693 123.019 32.483 123.33C32.0966 123.64 31.8106 124.047 31.625 124.551C31.4394 125.055 31.3466 125.598 31.3466 126.182C31.3466 126.765 31.4394 127.307 31.625 127.807C31.8106 128.307 32.0966 128.71 32.483 129.017C32.8693 129.324 33.3617 129.477 33.9602 129.477ZM43.5071 130.682C42.7192 130.682 42.0279 130.494 41.4332 130.119C40.8423 129.744 40.3802 129.22 40.0469 128.545C39.7173 127.871 39.5526 127.083 39.5526 126.182C39.5526 125.273 39.7173 124.479 40.0469 123.801C40.3802 123.123 40.8423 122.597 41.4332 122.222C42.0279 121.847 42.7192 121.659 43.5071 121.659C44.295 121.659 44.9844 121.847 45.5753 122.222C46.17 122.597 46.6321 123.123 46.9616 123.801C47.295 124.479 47.4616 125.273 47.4616 126.182C47.4616 127.083 47.295 127.871 46.9616 128.545C46.6321 129.22 46.17 129.744 45.5753 130.119C44.9844 130.494 44.295 130.682 43.5071 130.682ZM43.5071 129.477C44.1056 129.477 44.598 129.324 44.9844 129.017C45.3707 128.71 45.6567 128.307 45.8423 127.807C46.0279 127.307 46.1207 126.765 46.1207 126.182C46.1207 125.598 46.0279 125.055 45.8423 124.551C45.6567 124.047 45.3707 123.64 44.9844 123.33C44.598 123.019 44.1056 122.864 43.5071 122.864C42.9086 122.864 42.4162 123.019 42.0298 123.33C41.6435 123.64 41.3575 124.047 41.1719 124.551C40.9863 125.055 40.8935 125.598 40.8935 126.182C40.8935 126.765 40.9863 127.307 41.1719 127.807C41.3575 128.307 41.6435 128.71 42.0298 129.017C42.4162 129.324 42.9086 129.477 43.5071 129.477ZM49.5085 130.5V121.773H50.804V123.091H50.8949C51.054 122.659 51.3419 122.309 51.7585 122.04C52.1752 121.771 52.6449 121.636 53.1676 121.636C53.2661 121.636 53.3892 121.638 53.5369 121.642C53.6847 121.646 53.7964 121.652 53.8722 121.659V123.023C53.8267 123.011 53.7225 122.994 53.5597 122.972C53.4006 122.945 53.232 122.932 53.054 122.932C52.6297 122.932 52.2509 123.021 51.9176 123.199C51.5881 123.373 51.3267 123.616 51.1335 123.926C50.9441 124.233 50.8494 124.583 50.8494 124.977V130.5H49.5085ZM55.4616 133.773V121.773H56.7571V123.159H56.9162C57.0147 123.008 57.151 122.814 57.3253 122.58C57.5033 122.341 57.7571 122.129 58.0866 121.943C58.42 121.754 58.8707 121.659 59.4389 121.659C60.1738 121.659 60.8215 121.843 61.3821 122.21C61.9427 122.578 62.3802 123.098 62.6946 123.773C63.009 124.447 63.1662 125.242 63.1662 126.159C63.1662 127.083 63.009 127.884 62.6946 128.562C62.3802 129.237 61.9446 129.759 61.3878 130.131C60.831 130.498 60.1889 130.682 59.4616 130.682C58.901 130.682 58.4522 130.589 58.1151 130.403C57.7779 130.214 57.5185 130 57.3366 129.761C57.1548 129.519 57.0147 129.318 56.9162 129.159H56.8026V133.773H55.4616ZM56.7798 126.136C56.7798 126.795 56.8764 127.377 57.0696 127.881C57.2628 128.381 57.545 128.773 57.9162 129.057C58.2874 129.337 58.742 129.477 59.2798 129.477C59.8404 129.477 60.3082 129.33 60.6832 129.034C61.062 128.735 61.3461 128.333 61.5355 127.83C61.7287 127.322 61.8253 126.758 61.8253 126.136C61.8253 125.523 61.7306 124.97 61.5412 124.477C61.3556 123.981 61.0734 123.589 60.6946 123.301C60.3196 123.009 59.848 122.864 59.2798 122.864C58.7344 122.864 58.276 123.002 57.9048 123.278C57.5336 123.551 57.2533 123.934 57.0639 124.426C56.8745 124.915 56.7798 125.485 56.7798 126.136ZM66.5526 118.864V130.5H65.2116V118.864H66.5526ZM71.5767 130.705C71.0237 130.705 70.5218 130.6 70.071 130.392C69.6203 130.18 69.2623 129.875 68.9972 129.477C68.732 129.076 68.5994 128.591 68.5994 128.023C68.5994 127.523 68.6979 127.117 68.8949 126.807C69.0919 126.492 69.3551 126.246 69.6847 126.068C70.0142 125.89 70.3778 125.758 70.7756 125.67C71.1771 125.58 71.5805 125.508 71.9858 125.455C72.5161 125.386 72.946 125.335 73.2756 125.301C73.6089 125.263 73.8513 125.201 74.0028 125.114C74.1581 125.027 74.2358 124.875 74.2358 124.659V124.614C74.2358 124.053 74.0824 123.617 73.7756 123.307C73.4725 122.996 73.0123 122.841 72.3949 122.841C71.7547 122.841 71.2528 122.981 70.8892 123.261C70.5256 123.542 70.2699 123.841 70.1222 124.159L68.8494 123.705C69.0767 123.174 69.3797 122.761 69.7585 122.466C70.1411 122.167 70.5578 121.958 71.0085 121.841C71.4631 121.72 71.91 121.659 72.3494 121.659C72.6297 121.659 72.9517 121.693 73.3153 121.761C73.6828 121.826 74.0369 121.96 74.3778 122.165C74.7225 122.369 75.0085 122.678 75.2358 123.091C75.4631 123.504 75.5767 124.057 75.5767 124.75V130.5H74.2358V129.318H74.1676C74.0767 129.508 73.9252 129.71 73.7131 129.926C73.5009 130.142 73.2188 130.326 72.8665 130.477C72.5142 130.629 72.0843 130.705 71.5767 130.705ZM71.7812 129.5C72.3116 129.5 72.7585 129.396 73.1222 129.188C73.4896 128.979 73.7661 128.71 73.9517 128.381C74.1411 128.051 74.2358 127.705 74.2358 127.341V126.114C74.179 126.182 74.054 126.244 73.8608 126.301C73.6714 126.354 73.4517 126.402 73.2017 126.443C72.9555 126.481 72.715 126.515 72.4801 126.545C72.2491 126.572 72.0616 126.595 71.9176 126.614C71.5691 126.659 71.2434 126.733 70.9403 126.835C70.6411 126.934 70.3987 127.083 70.2131 127.284C70.0313 127.481 69.9403 127.75 69.9403 128.091C69.9403 128.557 70.1127 128.909 70.4574 129.148C70.8059 129.383 71.2472 129.5 71.7812 129.5ZM79.3651 125.25V130.5H78.0241V121.773H79.3196V123.136H79.4332C79.6378 122.693 79.9484 122.337 80.3651 122.068C80.7817 121.795 81.3196 121.659 81.9787 121.659C82.5696 121.659 83.0866 121.78 83.5298 122.023C83.973 122.261 84.3177 122.625 84.5639 123.114C84.8101 123.598 84.9332 124.212 84.9332 124.955V130.5H83.5923V125.045C83.5923 124.36 83.4143 123.826 83.0582 123.443C82.7022 123.057 82.2135 122.864 81.5923 122.864C81.1643 122.864 80.7817 122.956 80.4446 123.142C80.1113 123.328 79.848 123.598 79.6548 123.955C79.4616 124.311 79.3651 124.742 79.3651 125.25ZM91.8608 130.5V129.477L95.7017 125.273C96.1525 124.78 96.5237 124.352 96.8153 123.989C97.107 123.621 97.3229 123.277 97.4631 122.955C97.607 122.629 97.679 122.288 97.679 121.932C97.679 121.523 97.5805 121.169 97.3835 120.869C97.1903 120.57 96.9252 120.339 96.5881 120.176C96.2509 120.013 95.8722 119.932 95.4517 119.932C95.0047 119.932 94.6146 120.025 94.2812 120.21C93.9517 120.392 93.696 120.648 93.5142 120.977C93.3362 121.307 93.2472 121.693 93.2472 122.136H91.9062C91.9062 121.455 92.0634 120.856 92.3778 120.341C92.6922 119.826 93.1203 119.424 93.6619 119.136C94.2074 118.848 94.8191 118.705 95.4972 118.705C96.179 118.705 96.7831 118.848 97.3097 119.136C97.8362 119.424 98.2491 119.812 98.5483 120.301C98.8475 120.79 98.9972 121.333 98.9972 121.932C98.9972 122.36 98.9195 122.778 98.7642 123.188C98.6127 123.593 98.3475 124.045 97.9688 124.545C97.5938 125.042 97.0729 125.648 96.4062 126.364L93.7926 129.159V129.25H99.2017V130.5H91.8608Z" fill="#222222"/>
<rect width="362" height="50" transform="translate(0 201)" fill="#F325A7"/>
<path d="M119.823 224.629H118.272C118.213 224.298 118.102 224.006 117.939 223.754C117.777 223.502 117.578 223.289 117.343 223.113C117.107 222.937 116.844 222.805 116.552 222.715C116.264 222.626 115.957 222.581 115.632 222.581C115.046 222.581 114.52 222.728 114.056 223.023C113.596 223.318 113.231 223.751 112.963 224.321C112.697 224.891 112.565 225.587 112.565 226.409C112.565 227.238 112.697 227.937 112.963 228.507C113.231 229.077 113.597 229.508 114.061 229.8C114.525 230.091 115.047 230.237 115.627 230.237C115.949 230.237 116.254 230.194 116.542 230.108C116.834 230.018 117.097 229.888 117.333 229.715C117.568 229.543 117.767 229.332 117.929 229.084C118.095 228.832 118.209 228.544 118.272 228.219L119.823 228.224C119.74 228.724 119.58 229.185 119.341 229.606C119.106 230.023 118.802 230.385 118.431 230.69C118.063 230.991 117.642 231.225 117.169 231.391C116.695 231.556 116.177 231.639 115.617 231.639C114.736 231.639 113.95 231.43 113.261 231.013C112.571 230.592 112.028 229.99 111.63 229.208C111.236 228.426 111.039 227.493 111.039 226.409C111.039 225.322 111.237 224.389 111.635 223.61C112.033 222.828 112.576 222.228 113.266 221.81C113.955 221.389 114.739 221.179 115.617 221.179C116.158 221.179 116.661 221.257 117.129 221.413C117.599 221.565 118.022 221.79 118.396 222.089C118.771 222.384 119.081 222.745 119.326 223.173C119.571 223.597 119.737 224.082 119.823 224.629ZM121.662 231.5V221.318H125.291C126.08 221.318 126.734 221.454 127.255 221.726C127.778 221.998 128.169 222.374 128.428 222.854C128.686 223.332 128.816 223.884 128.816 224.51C128.816 225.133 128.685 225.682 128.423 226.156C128.164 226.626 127.773 226.992 127.25 227.254C126.729 227.516 126.075 227.647 125.286 227.647H122.537V226.325H125.147C125.644 226.325 126.048 226.253 126.36 226.111C126.675 225.968 126.905 225.761 127.051 225.489C127.197 225.218 127.27 224.891 127.27 224.51C127.27 224.125 127.195 223.792 127.046 223.511C126.9 223.229 126.67 223.013 126.355 222.864C126.043 222.712 125.634 222.636 125.127 222.636H123.198V231.5H121.662ZM126.688 226.906L129.203 231.5H127.453L124.988 226.906H126.688ZM130.685 231.5V221.318H137.069V222.641H132.221V225.743H136.735V227.06H132.221V230.178H137.128V231.5H130.685ZM139.981 231.5H138.35L142.014 221.318H143.789L147.453 231.5H145.822L142.944 223.168H142.864L139.981 231.5ZM140.254 227.513H145.544V228.805H140.254V227.513ZM147.218 222.641V221.318H155.098V222.641H151.921V231.5H150.39V222.641H147.218ZM156.839 231.5V221.318H163.223V222.641H158.376V225.743H162.89V227.06H158.376V230.178H163.282V231.5H156.839ZM168.98 231.5V221.318H175.294V222.641H170.516V225.743H174.841V227.06H170.516V231.5H168.98ZM177.183 231.5V221.318H178.719V230.178H183.333V231.5H177.183ZM193.533 226.409C193.533 227.496 193.335 228.431 192.937 229.213C192.539 229.992 191.994 230.592 191.301 231.013C190.612 231.43 189.828 231.639 188.95 231.639C188.068 231.639 187.281 231.43 186.588 231.013C185.899 230.592 185.355 229.99 184.957 229.208C184.56 228.426 184.361 227.493 184.361 226.409C184.361 225.322 184.56 224.389 184.957 223.61C185.355 222.828 185.899 222.228 186.588 221.81C187.281 221.389 188.068 221.179 188.95 221.179C189.828 221.179 190.612 221.389 191.301 221.81C191.994 222.228 192.539 222.828 192.937 223.61C193.335 224.389 193.533 225.322 193.533 226.409ZM192.012 226.409C192.012 225.58 191.878 224.883 191.609 224.316C191.344 223.746 190.98 223.315 190.516 223.023C190.055 222.728 189.533 222.581 188.95 222.581C188.363 222.581 187.839 222.728 187.379 223.023C186.918 223.315 186.553 223.746 186.285 224.316C186.02 224.883 185.887 225.58 185.887 226.409C185.887 227.238 186.02 227.937 186.285 228.507C186.553 229.074 186.918 229.505 187.379 229.8C187.839 230.091 188.363 230.237 188.95 230.237C189.533 230.237 190.055 230.091 190.516 229.8C190.98 229.505 191.344 229.074 191.609 228.507C191.878 227.937 192.012 227.238 192.012 226.409ZM204.293 226.409C204.293 227.496 204.094 228.431 203.697 229.213C203.299 229.992 202.754 230.592 202.061 231.013C201.372 231.43 200.588 231.639 199.709 231.639C198.828 231.639 198.041 231.43 197.348 231.013C196.658 230.592 196.115 229.99 195.717 229.208C195.319 228.426 195.121 227.493 195.121 226.409C195.121 225.322 195.319 224.389 195.717 223.61C196.115 222.828 196.658 222.228 197.348 221.81C198.041 221.389 198.828 221.179 199.709 221.179C200.588 221.179 201.372 221.389 202.061 221.81C202.754 222.228 203.299 222.828 203.697 223.61C204.094 224.389 204.293 225.322 204.293 226.409ZM202.772 226.409C202.772 225.58 202.638 224.883 202.369 224.316C202.104 223.746 201.739 223.315 201.275 223.023C200.815 222.728 200.293 222.581 199.709 222.581C199.123 222.581 198.599 222.728 198.138 223.023C197.678 223.315 197.313 223.746 197.045 224.316C196.779 224.883 196.647 225.58 196.647 226.409C196.647 227.238 196.779 227.937 197.045 228.507C197.313 229.074 197.678 229.505 198.138 229.8C198.599 230.091 199.123 230.237 199.709 230.237C200.293 230.237 200.815 230.091 201.275 229.8C201.739 229.505 202.104 229.074 202.369 228.507C202.638 227.937 202.772 227.238 202.772 226.409ZM206.208 231.5V221.318H209.838C210.627 221.318 211.281 221.454 211.801 221.726C212.325 221.998 212.716 222.374 212.975 222.854C213.233 223.332 213.363 223.884 213.363 224.51C213.363 225.133 213.232 225.682 212.97 226.156C212.711 226.626 212.32 226.992 211.797 227.254C211.276 227.516 210.622 227.647 209.833 227.647H207.083V226.325H209.694C210.191 226.325 210.595 226.253 210.907 226.111C211.221 225.968 211.452 225.761 211.598 225.489C211.743 225.218 211.816 224.891 211.816 224.51C211.816 224.125 211.742 223.792 211.593 223.511C211.447 223.229 211.217 223.013 210.902 222.864C210.59 222.712 210.181 222.636 209.674 222.636H207.745V231.5H206.208ZM211.235 226.906L213.75 231.5H212L209.534 226.906H211.235ZM215.232 231.5V221.318H218.861C219.653 221.318 220.31 221.462 220.83 221.751C221.35 222.039 221.74 222.433 221.998 222.934C222.257 223.431 222.386 223.991 222.386 224.614C222.386 225.241 222.255 225.804 221.993 226.305C221.735 226.802 221.344 227.196 220.82 227.488C220.3 227.776 219.645 227.92 218.856 227.92H216.36V226.618H218.717C219.217 226.618 219.623 226.532 219.935 226.359C220.247 226.184 220.475 225.945 220.621 225.643C220.767 225.342 220.84 224.999 220.84 224.614C220.84 224.23 220.767 223.888 220.621 223.59C220.475 223.292 220.245 223.058 219.93 222.889C219.618 222.72 219.208 222.636 218.697 222.636H216.768V231.5H215.232ZM224.187 231.5V221.318H225.723V230.178H230.337V231.5H224.187ZM233.469 231.5H231.838L235.502 221.318H237.277L240.941 231.5H239.311L236.432 223.168H236.352L233.469 231.5ZM233.742 227.513H239.032V228.805H233.742V227.513ZM250.63 221.318V231.5H249.218L244.042 224.033H243.948V231.5H242.412V221.318H243.833L249.014 228.795H249.108V221.318H250.63Z" fill="white"/>
<rect x="0.5" y="267.5" width="361" height="49" fill="white"/>
<rect x="0.5" y="267.5" width="361" height="49" stroke="#F325A7"/>
<path d="M162.015 290.629H160.464C160.404 290.298 160.293 290.006 160.131 289.754C159.968 289.502 159.769 289.289 159.534 289.113C159.299 288.937 159.035 288.805 158.743 288.715C158.455 288.626 158.148 288.581 157.824 288.581C157.237 288.581 156.712 288.728 156.248 289.023C155.787 289.318 155.422 289.751 155.154 290.321C154.889 290.891 154.756 291.587 154.756 292.409C154.756 293.238 154.889 293.937 155.154 294.507C155.422 295.077 155.789 295.508 156.253 295.8C156.717 296.091 157.239 296.237 157.819 296.237C158.14 296.237 158.445 296.194 158.733 296.108C159.025 296.018 159.289 295.888 159.524 295.715C159.759 295.543 159.958 295.332 160.121 295.084C160.286 294.832 160.401 294.544 160.464 294.219L162.015 294.224C161.932 294.724 161.771 295.185 161.532 295.606C161.297 296.023 160.994 296.385 160.623 296.69C160.255 296.991 159.834 297.225 159.36 297.391C158.886 297.556 158.369 297.639 157.809 297.639C156.927 297.639 156.142 297.43 155.452 297.013C154.763 296.592 154.219 295.99 153.822 295.208C153.427 294.426 153.23 293.493 153.23 292.409C153.23 291.322 153.429 290.389 153.827 289.61C154.224 288.828 154.768 288.228 155.457 287.81C156.147 287.389 156.93 287.179 157.809 287.179C158.349 287.179 158.853 287.257 159.32 287.413C159.791 287.565 160.213 287.79 160.588 288.089C160.962 288.384 161.272 288.745 161.518 289.173C161.763 289.597 161.929 290.082 162.015 290.629ZM164.645 297.5H163.014L166.678 287.318H168.453L172.117 297.5H170.486L167.608 289.168H167.528L164.645 297.5ZM164.918 293.513H170.208V294.805H164.918V293.513ZM181.805 287.318V297.5H180.393L175.218 290.033H175.124V297.5H173.587V287.318H175.009L180.19 294.795H180.284V287.318H181.805ZM192.503 290.629H190.952C190.892 290.298 190.781 290.006 190.619 289.754C190.456 289.502 190.258 289.289 190.022 289.113C189.787 288.937 189.523 288.805 189.232 288.715C188.943 288.626 188.637 288.581 188.312 288.581C187.725 288.581 187.2 288.728 186.736 289.023C186.275 289.318 185.911 289.751 185.642 290.321C185.377 290.891 185.244 291.587 185.244 292.409C185.244 293.238 185.377 293.937 185.642 294.507C185.911 295.077 186.277 295.508 186.741 295.8C187.205 296.091 187.727 296.237 188.307 296.237C188.628 296.237 188.933 296.194 189.222 296.108C189.513 296.018 189.777 295.888 190.012 295.715C190.248 295.543 190.446 295.332 190.609 295.084C190.775 294.832 190.889 294.544 190.952 294.219L192.503 294.224C192.42 294.724 192.259 295.185 192.021 295.606C191.785 296.023 191.482 296.385 191.111 296.69C190.743 296.991 190.322 297.225 189.848 297.391C189.374 297.556 188.857 297.639 188.297 297.639C187.415 297.639 186.63 297.43 185.941 297.013C185.251 296.592 184.708 295.99 184.31 295.208C183.915 294.426 183.718 293.493 183.718 292.409C183.718 291.322 183.917 290.389 184.315 289.61C184.713 288.828 185.256 288.228 185.945 287.81C186.635 287.389 187.419 287.179 188.297 287.179C188.837 287.179 189.341 287.257 189.808 287.413C190.279 287.565 190.702 287.79 191.076 288.089C191.451 288.384 191.761 288.745 192.006 289.173C192.251 289.597 192.417 290.082 192.503 290.629ZM194.341 297.5V287.318H200.725V288.641H195.877V291.743H200.392V293.06H195.877V296.178H200.784V297.5H194.341ZM202.777 297.5V287.318H204.313V296.178H208.927V297.5H202.777Z" fill="#F325A7"/>
</svg>
