<svg width="400" height="321" viewBox="0 0 400 321" fill="none" xmlns="http://www.w3.org/2000/svg">
<rect x="0.5" y="0.5" width="399" height="320" fill="white"/>
<rect x="0.5" y="0.5" width="399" height="320" stroke="var(--colors-neutral-neutral-400)"/>
<path d="M17.233 33.5V23.3182H23.3778V24.4119H18.4659V27.8523H23.0597V28.946H18.4659V32.4062H23.4574V33.5H17.233ZM26.6143 28.9062V33.5H25.4411V25.8636H26.5746V27.0568H26.674C26.853 26.669 27.1248 26.3575 27.4893 26.1222C27.8539 25.8835 28.3246 25.7642 28.9013 25.7642C29.4183 25.7642 29.8707 25.8703 30.2585 26.0824C30.6463 26.2912 30.9479 26.6094 31.1634 27.0369C31.3788 27.4612 31.4865 27.9981 31.4865 28.6477V33.5H30.3132V28.7273C30.3132 28.1274 30.1574 27.66 29.8459 27.3253C29.5343 26.9872 29.1068 26.8182 28.5632 26.8182C28.1887 26.8182 27.8539 26.8994 27.5589 27.0618C27.2673 27.2242 27.0369 27.4612 26.8679 27.7727C26.6989 28.0843 26.6143 28.4621 26.6143 28.9062ZM36.9515 25.8636V26.858H32.9941V25.8636H36.9515ZM34.1475 24.0341H35.3208V31.3125C35.3208 31.6439 35.3689 31.8925 35.465 32.0582C35.5645 32.2206 35.6904 32.33 35.8429 32.3864C35.9986 32.4394 36.1627 32.4659 36.335 32.4659C36.4643 32.4659 36.5704 32.4593 36.6532 32.446C36.7361 32.4295 36.8024 32.4162 36.8521 32.4062L37.0907 33.4602C37.0112 33.4901 36.9002 33.5199 36.7576 33.5497C36.6151 33.5829 36.4345 33.5994 36.2157 33.5994C35.8843 33.5994 35.5595 33.5282 35.2413 33.3857C34.9264 33.2431 34.6646 33.026 34.4558 32.7344C34.2503 32.4427 34.1475 32.0748 34.1475 31.6307V24.0341ZM38.7164 33.5V25.8636H39.85V27.017H39.9295C40.0687 26.6392 40.3206 26.3326 40.6852 26.0973C41.0498 25.862 41.4608 25.7443 41.9181 25.7443C42.0043 25.7443 42.112 25.746 42.2413 25.7493C42.3706 25.7526 42.4683 25.7576 42.5346 25.7642V26.9574C42.4949 26.9474 42.4037 26.9325 42.2612 26.9126C42.122 26.8894 41.9745 26.8778 41.8187 26.8778C41.4475 26.8778 41.1161 26.9557 40.8244 27.1115C40.536 27.264 40.3074 27.4761 40.1383 27.7479C39.9726 28.0163 39.8897 28.3229 39.8897 28.6676V33.5H38.7164ZM44.9135 36.3636C44.7147 36.3636 44.5373 36.3471 44.3816 36.3139C44.2258 36.2841 44.1181 36.2543 44.0584 36.2244L44.3567 35.1903C44.6417 35.2633 44.8936 35.2898 45.1124 35.2699C45.3311 35.25 45.525 35.1522 45.6941 34.9766C45.8664 34.8042 46.0239 34.5241 46.1664 34.1364L46.3851 33.5398L43.5613 25.8636H44.834L46.9419 31.9489H47.0215L49.1294 25.8636H50.4022L47.1607 34.6136C47.0149 35.008 46.8342 35.3345 46.6188 35.593C46.4034 35.8549 46.1531 36.0488 45.8681 36.1747C45.5864 36.3007 45.2682 36.3636 44.9135 36.3636ZM54.7573 22.8409L51.476 35.0312H50.4022L53.6834 22.8409H54.7573ZM56.3072 33.5V23.3182H62.4521V24.4119H57.5401V27.8523H62.1339V28.946H57.5401V32.4062H62.5316V33.5H56.3072ZM65.3903 25.8636L67.2198 28.9858L69.0494 25.8636H70.4016L67.9357 29.6818L70.4016 33.5H69.0494L67.2198 30.5369L65.3903 33.5H64.038L66.4641 29.6818L64.038 25.8636H65.3903ZM72.0758 33.5V25.8636H73.2491V33.5H72.0758ZM72.6724 24.5909C72.4437 24.5909 72.2465 24.513 72.0808 24.3572C71.9184 24.2015 71.8372 24.0142 71.8372 23.7955C71.8372 23.5767 71.9184 23.3894 72.0808 23.2337C72.2465 23.0779 72.4437 23 72.6724 23C72.9011 23 73.0967 23.0779 73.2591 23.2337C73.4248 23.3894 73.5076 23.5767 73.5076 23.7955C73.5076 24.0142 73.4248 24.2015 73.2591 24.3572C73.0967 24.513 72.9011 24.5909 72.6724 24.5909ZM78.7191 25.8636V26.858H74.7617V25.8636H78.7191ZM75.9151 24.0341H77.0884V31.3125C77.0884 31.6439 77.1365 31.8925 77.2326 32.0582C77.332 32.2206 77.458 32.33 77.6104 32.3864C77.7662 32.4394 77.9303 32.4659 78.1026 32.4659C78.2319 32.4659 78.338 32.4593 78.4208 32.446C78.5037 32.4295 78.57 32.4162 78.6197 32.4062L78.8583 33.4602C78.7788 33.4901 78.6677 33.5199 78.5252 33.5497C78.3827 33.5829 78.2021 33.5994 77.9833 33.5994C77.6519 33.5994 77.3271 33.5282 77.0089 33.3857C76.694 33.2431 76.4322 33.026 76.2234 32.7344C76.0179 32.4427 75.9151 32.0748 75.9151 31.6307V24.0341ZM89.8306 27.5739L88.7766 27.8722C88.7103 27.6965 88.6126 27.5258 88.4833 27.3601C88.3574 27.1911 88.185 27.0518 87.9663 26.9425C87.7475 26.8331 87.4674 26.7784 87.1261 26.7784C86.6587 26.7784 86.2693 26.8861 85.9577 27.1016C85.6495 27.3137 85.4954 27.5838 85.4954 27.9119C85.4954 28.2036 85.6014 28.4339 85.8136 28.603C86.0257 28.772 86.3571 28.9129 86.8079 29.0256L87.9414 29.304C88.6242 29.4697 89.1329 29.7232 89.4677 30.0646C89.8024 30.4027 89.9698 30.8385 89.9698 31.3722C89.9698 31.8097 89.8439 32.2008 89.592 32.5455C89.3434 32.8902 88.9954 33.1619 88.5479 33.3608C88.1005 33.5597 87.5801 33.6591 86.9869 33.6591C86.208 33.6591 85.5633 33.4901 85.0529 33.152C84.5425 32.8139 84.2193 32.3201 84.0835 31.6705L85.1971 31.392C85.3031 31.803 85.5037 32.1113 85.7987 32.3168C86.0969 32.5223 86.4864 32.625 86.967 32.625C87.5138 32.625 87.948 32.509 88.2695 32.277C88.5943 32.0417 88.7567 31.7599 88.7567 31.4318C88.7567 31.1667 88.6639 30.9446 88.4783 30.7656C88.2927 30.5833 88.0077 30.4474 87.6232 30.358L86.3505 30.0597C85.6512 29.8939 85.1374 29.6371 84.8093 29.2891C84.4845 28.9377 84.3221 28.4986 84.3221 27.9716C84.3221 27.5407 84.4431 27.1596 84.685 26.8281C84.9303 26.4967 85.2634 26.2365 85.6843 26.0476C86.1085 25.8587 86.5891 25.7642 87.1261 25.7642C87.8817 25.7642 88.475 25.9299 88.9059 26.2614C89.3401 26.5928 89.6483 27.0303 89.8306 27.5739ZM94.9377 33.6591C94.2019 33.6591 93.5672 33.4967 93.0336 33.1719C92.5033 32.8438 92.0939 32.3864 91.8056 31.7997C91.5205 31.2098 91.378 30.5237 91.378 29.7415C91.378 28.9593 91.5205 28.2699 91.8056 27.6733C92.0939 27.0734 92.495 26.6061 93.0087 26.2713C93.5257 25.9332 94.129 25.7642 94.8184 25.7642C95.2161 25.7642 95.6088 25.8305 95.9966 25.9631C96.3844 26.0956 96.7374 26.3111 97.0556 26.6094C97.3738 26.9044 97.6273 27.2955 97.8162 27.7827C98.0051 28.2699 98.0996 28.8698 98.0996 29.5824V30.0795H92.2132V29.0653H96.9064C96.9064 28.6345 96.8203 28.25 96.6479 27.9119C96.4789 27.5739 96.2369 27.3071 95.9221 27.1115C95.6105 26.916 95.2426 26.8182 94.8184 26.8182C94.351 26.8182 93.9467 26.9342 93.6053 27.1662C93.2672 27.3949 93.007 27.6932 92.8248 28.0611C92.6425 28.429 92.5513 28.8234 92.5513 29.2443V29.9205C92.5513 30.4972 92.6507 30.986 92.8496 31.3871C93.0518 31.7848 93.3319 32.0881 93.6898 32.2969C94.0478 32.5024 94.4637 32.6051 94.9377 32.6051C95.2459 32.6051 95.5243 32.562 95.7729 32.4759C96.0248 32.3864 96.2419 32.2538 96.4242 32.0781C96.6065 31.8991 96.7473 31.6771 96.8468 31.4119L97.9803 31.7301C97.861 32.1146 97.6605 32.4527 97.3787 32.7443C97.097 33.0327 96.749 33.258 96.3347 33.4205C95.9204 33.5795 95.4547 33.6591 94.9377 33.6591ZM103.205 25.8636V26.858H99.248V25.8636H103.205ZM100.401 24.0341H101.575V31.3125C101.575 31.6439 101.623 31.8925 101.719 32.0582C101.818 32.2206 101.944 32.33 102.097 32.3864C102.253 32.4394 102.417 32.4659 102.589 32.4659C102.718 32.4659 102.824 32.4593 102.907 32.446C102.99 32.4295 103.056 32.4162 103.106 32.4062L103.345 33.4602C103.265 33.4901 103.154 33.5199 103.012 33.5497C102.869 33.5829 102.688 33.5994 102.47 33.5994C102.138 33.5994 101.813 33.5282 101.495 33.3857C101.18 33.2431 100.919 33.026 100.71 32.7344C100.504 32.4427 100.401 32.0748 100.401 31.6307V24.0341ZM108.291 25.8636V26.858H104.334V25.8636H108.291ZM105.487 24.0341H106.661V31.3125C106.661 31.6439 106.709 31.8925 106.805 32.0582C106.904 32.2206 107.03 32.33 107.183 32.3864C107.338 32.4394 107.503 32.4659 107.675 32.4659C107.804 32.4659 107.91 32.4593 107.993 32.446C108.076 32.4295 108.142 32.4162 108.192 32.4062L108.431 33.4602C108.351 33.4901 108.24 33.5199 108.097 33.5497C107.955 33.5829 107.774 33.5994 107.556 33.5994C107.224 33.5994 106.899 33.5282 106.581 33.3857C106.266 33.2431 106.004 33.026 105.796 32.7344C105.59 32.4427 105.487 32.0748 105.487 31.6307V24.0341ZM110.056 33.5V25.8636H111.23V33.5H110.056ZM110.653 24.5909C110.424 24.5909 110.227 24.513 110.061 24.3572C109.899 24.2015 109.818 24.0142 109.818 23.7955C109.818 23.5767 109.899 23.3894 110.061 23.2337C110.227 23.0779 110.424 23 110.653 23C110.882 23 111.077 23.0779 111.24 23.2337C111.405 23.3894 111.488 23.5767 111.488 23.7955C111.488 24.0142 111.405 24.2015 111.24 24.3572C111.077 24.513 110.882 24.5909 110.653 24.5909ZM114.552 28.9062V33.5H113.379V25.8636H114.512V27.0568H114.612C114.79 26.669 115.062 26.3575 115.427 26.1222C115.791 25.8835 116.262 25.7642 116.839 25.7642C117.356 25.7642 117.808 25.8703 118.196 26.0824C118.584 26.2912 118.885 26.6094 119.101 27.0369C119.316 27.4612 119.424 27.9981 119.424 28.6477V33.5H118.251V28.7273C118.251 28.1274 118.095 27.66 117.783 27.3253C117.472 26.9872 117.044 26.8182 116.501 26.8182C116.126 26.8182 115.791 26.8994 115.496 27.0618C115.205 27.2242 114.974 27.4612 114.805 27.7727C114.636 28.0843 114.552 28.4621 114.552 28.9062ZM124.65 36.5227C124.084 36.5227 123.596 36.4498 123.189 36.304C122.781 36.1615 122.441 35.9725 122.17 35.7372C121.901 35.5052 121.687 35.2566 121.528 34.9915L122.463 34.3352C122.569 34.4744 122.703 34.6335 122.866 34.8125C123.028 34.9948 123.25 35.1522 123.532 35.2848C123.817 35.4207 124.19 35.4886 124.65 35.4886C125.267 35.4886 125.776 35.3395 126.177 35.0412C126.578 34.7429 126.778 34.2756 126.778 33.6392V32.0881H126.679C126.593 32.2273 126.47 32.3996 126.311 32.6051C126.155 32.8073 125.93 32.9879 125.635 33.147C125.343 33.3028 124.949 33.3807 124.452 33.3807C123.835 33.3807 123.282 33.2348 122.791 32.9432C122.304 32.6515 121.918 32.2273 121.633 31.6705C121.351 31.1136 121.21 30.4375 121.21 29.642C121.21 28.8598 121.348 28.1787 121.623 27.5987C121.898 27.0154 122.281 26.5646 122.771 26.2464C123.262 25.925 123.828 25.7642 124.471 25.7642C124.969 25.7642 125.363 25.8471 125.655 26.0128C125.95 26.1752 126.175 26.3608 126.331 26.5696C126.49 26.7751 126.613 26.9441 126.699 27.0767H126.818V25.8636H127.952V33.7188C127.952 34.375 127.802 34.9086 127.504 35.3196C127.209 35.7339 126.811 36.0372 126.311 36.2294C125.814 36.425 125.26 36.5227 124.65 36.5227ZM124.611 32.3267C125.081 32.3267 125.479 32.219 125.804 32.0036C126.129 31.7881 126.376 31.4782 126.545 31.0739C126.714 30.6695 126.798 30.1856 126.798 29.6222C126.798 29.072 126.715 28.5864 126.55 28.1655C126.384 27.7446 126.139 27.4148 125.814 27.1761C125.489 26.9375 125.088 26.8182 124.611 26.8182C124.113 26.8182 123.699 26.9441 123.368 27.196C123.04 27.4479 122.793 27.786 122.627 28.2102C122.465 28.6345 122.383 29.1051 122.383 29.6222C122.383 30.1525 122.466 30.6214 122.632 31.0291C122.801 31.4335 123.05 31.7517 123.378 31.9837C123.709 32.2124 124.12 32.3267 124.611 32.3267ZM135.508 27.5739L134.454 27.8722C134.388 27.6965 134.29 27.5258 134.161 27.3601C134.035 27.1911 133.863 27.0518 133.644 26.9425C133.425 26.8331 133.145 26.7784 132.804 26.7784C132.336 26.7784 131.947 26.8861 131.635 27.1016C131.327 27.3137 131.173 27.5838 131.173 27.9119C131.173 28.2036 131.279 28.4339 131.491 28.603C131.703 28.772 132.035 28.9129 132.486 29.0256L133.619 29.304C134.302 29.4697 134.811 29.7232 135.145 30.0646C135.48 30.4027 135.648 30.8385 135.648 31.3722C135.648 31.8097 135.522 32.2008 135.27 32.5455C135.021 32.8902 134.673 33.1619 134.226 33.3608C133.778 33.5597 133.258 33.6591 132.665 33.6591C131.886 33.6591 131.241 33.4901 130.731 33.152C130.22 32.8139 129.897 32.3201 129.761 31.6705L130.875 31.392C130.981 31.803 131.181 32.1113 131.476 32.3168C131.775 32.5223 132.164 32.625 132.645 32.625C133.192 32.625 133.626 32.509 133.947 32.277C134.272 32.0417 134.434 31.7599 134.434 31.4318C134.434 31.1667 134.342 30.9446 134.156 30.7656C133.97 30.5833 133.685 30.4474 133.301 30.358L132.028 30.0597C131.329 29.8939 130.815 29.6371 130.487 29.2891C130.162 28.9377 130 28.4986 130 27.9716C130 27.5407 130.121 27.1596 130.363 26.8281C130.608 26.4967 130.941 26.2365 131.362 26.0476C131.786 25.8587 132.267 25.7642 132.804 25.7642C133.559 25.7642 134.153 25.9299 134.584 26.2614C135.018 26.5928 135.326 27.0303 135.508 27.5739Z" fill="var(--colors-neutral-neutral-800)"/>
<path d="M366.4 34.3077L365.692 33.6L371.292 28L365.692 22.4L366.4 21.6923L372 27.2923L377.6 21.6923L378.308 22.4L372.708 28L378.308 33.6L377.6 34.3077L372 28.7077L366.4 34.3077Z" fill="var(--colors-neutral-neutral-800)"/>
<rect y="56" width="400" height="1" fill="var(--colors-neutral-neutral-400)"/>
<g clip-path="url(#clip0_5364_2094)">
<rect width="368" height="32" transform="translate(16 73)" fill="white"/>
<path d="M18.49 93L16.31 86.02H17.42L18.89 90.6L19.27 92.11L19.64 90.61L21.12 86.02H22.2L20.02 93H18.49ZM25.8139 93.12C25.2472 93.12 24.7572 93.0067 24.3439 92.78C23.9306 92.5467 23.6139 92.2167 23.3939 91.79C23.1739 91.3567 23.0639 90.84 23.0639 90.24C23.0639 89.64 23.1739 89.1267 23.3939 88.7C23.6206 88.2733 23.9406 87.9467 24.3539 87.72C24.7739 87.4933 25.2739 87.38 25.8539 87.38C26.7406 87.38 27.4006 87.6267 27.8339 88.12C28.2672 88.6067 28.4572 89.2767 28.4039 90.13H23.8639L23.8739 89.37L27.3739 89.38C27.3472 89.0267 27.1939 88.7433 26.9139 88.53C26.6339 88.3167 26.2806 88.21 25.8539 88.21C25.2806 88.21 24.8406 88.39 24.5339 88.75C24.2272 89.11 24.0739 89.62 24.0739 90.28C24.0739 90.6733 24.1406 91.0233 24.2739 91.33C24.4139 91.63 24.6139 91.8633 24.8739 92.03C25.1339 92.1967 25.4472 92.28 25.8139 92.28C26.2472 92.28 26.6072 92.1767 26.8939 91.97C27.1872 91.7633 27.3672 91.4833 27.4339 91.13H28.4439C28.3572 91.75 28.0806 92.2367 27.6139 92.59C27.1472 92.9433 26.5472 93.12 25.8139 93.12ZM33.7378 93V89.54C33.7378 89.1467 33.6278 88.8333 33.4078 88.6C33.1878 88.36 32.9011 88.24 32.5478 88.24C32.1411 88.24 31.7778 88.39 31.4578 88.69C31.1445 88.9833 30.8945 89.4433 30.7078 90.07L30.5478 88.95C30.7545 88.4233 31.0511 88.03 31.4378 87.77C31.8311 87.51 32.2578 87.38 32.7178 87.38C33.1311 87.38 33.4878 87.47 33.7878 87.65C34.0945 87.8233 34.3311 88.07 34.4978 88.39C34.6645 88.7033 34.7478 89.0733 34.7478 89.5V93H33.7378ZM29.8178 93V85.64H30.8278V93H29.8178ZM38.3117 93V87.5H39.3217V93H38.3117ZM36.2817 93V92.18H41.2117V93H36.2817ZM37.0117 88.32V87.5H38.8117V88.32H37.0117ZM38.2417 86.56V85.47H39.3717V86.56H38.2417ZM45.4256 93.12C44.859 93.12 44.3656 93.0033 43.9456 92.77C43.5323 92.53 43.2123 92.1967 42.9856 91.77C42.759 91.3367 42.6456 90.83 42.6456 90.25C42.6456 89.6567 42.7623 89.1467 42.9956 88.72C43.229 88.2867 43.5556 87.9567 43.9756 87.73C44.3956 87.4967 44.8856 87.38 45.4456 87.38C45.8923 87.38 46.2923 87.4633 46.6456 87.63C47.0056 87.79 47.2956 88.02 47.5156 88.32C47.7423 88.62 47.8723 88.9767 47.9056 89.39H46.8956C46.8423 89.0167 46.6823 88.73 46.4156 88.53C46.1556 88.3233 45.8323 88.22 45.4456 88.22C45.0856 88.22 44.7723 88.3033 44.5056 88.47C44.239 88.63 44.0323 88.86 43.8856 89.16C43.739 89.46 43.6656 89.8233 43.6656 90.25C43.6656 90.8833 43.8256 91.38 44.1456 91.74C44.4723 92.1 44.899 92.28 45.4256 92.28C45.6656 92.28 45.889 92.2333 46.0956 92.14C46.3023 92.0467 46.479 91.9133 46.6256 91.74C46.7723 91.56 46.8723 91.3533 46.9256 91.12H47.9456C47.879 91.5333 47.7256 91.89 47.4856 92.19C47.2523 92.4833 46.9556 92.7133 46.5956 92.88C46.2423 93.04 45.8523 93.12 45.4256 93.12ZM51.2695 93V85.65H52.2795V93H51.2695ZM49.2395 93V92.18H54.3195V93H49.2395ZM49.9695 86.47V85.65H51.7695V86.47H49.9695ZM58.3334 93.12C57.7668 93.12 57.2768 93.0067 56.8634 92.78C56.4501 92.5467 56.1334 92.2167 55.9134 91.79C55.6934 91.3567 55.5834 90.84 55.5834 90.24C55.5834 89.64 55.6934 89.1267 55.9134 88.7C56.1401 88.2733 56.4601 87.9467 56.8734 87.72C57.2934 87.4933 57.7934 87.38 58.3734 87.38C59.2601 87.38 59.9201 87.6267 60.3534 88.12C60.7868 88.6067 60.9768 89.2767 60.9234 90.13H56.3834L56.3934 89.37L59.8934 89.38C59.8668 89.0267 59.7134 88.7433 59.4334 88.53C59.1534 88.3167 58.8001 88.21 58.3734 88.21C57.8001 88.21 57.3601 88.39 57.0534 88.75C56.7468 89.11 56.5934 89.62 56.5934 90.28C56.5934 90.6733 56.6601 91.0233 56.7934 91.33C56.9334 91.63 57.1334 91.8633 57.3934 92.03C57.6534 92.1967 57.9668 92.28 58.3334 92.28C58.7668 92.28 59.1268 92.1767 59.4134 91.97C59.7068 91.7633 59.8868 91.4833 59.9534 91.13H60.9634C60.8768 91.75 60.6001 92.2367 60.1334 92.59C59.6668 92.9433 59.0668 93.12 58.3334 93.12Z" fill="var(--colors-neutral-neutral-800)"/>
<rect width="180" height="32" transform="translate(204 73)" fill="var(--colors-neutral-neutral-300)"/>
<path d="M215.852 93.1193C215.29 93.1193 214.788 93.0227 214.348 92.8295C213.911 92.6364 213.563 92.3679 213.304 92.0241C213.048 91.6776 212.909 91.2756 212.886 90.8182H213.96C213.983 91.0994 214.08 91.3423 214.25 91.5469C214.42 91.7486 214.643 91.9048 214.919 92.0156C215.195 92.1264 215.5 92.1818 215.835 92.1818C216.21 92.1818 216.543 92.1165 216.832 91.9858C217.122 91.8551 217.349 91.6733 217.514 91.4403C217.679 91.2074 217.761 90.9375 217.761 90.6307C217.761 90.3097 217.682 90.027 217.523 89.7827C217.364 89.5355 217.131 89.3423 216.824 89.2031C216.517 89.0639 216.142 88.9943 215.699 88.9943H215V88.0568H215.699C216.045 88.0568 216.349 87.9943 216.611 87.8693C216.875 87.7443 217.081 87.5682 217.229 87.3409C217.379 87.1136 217.455 86.8466 217.455 86.5398C217.455 86.2443 217.389 85.9872 217.259 85.7685C217.128 85.5497 216.943 85.3793 216.705 85.2571C216.469 85.1349 216.19 85.0739 215.869 85.0739C215.568 85.0739 215.284 85.1293 215.017 85.2401C214.753 85.348 214.537 85.5057 214.369 85.7131C214.202 85.9176 214.111 86.1648 214.097 86.4545H213.074C213.091 85.9972 213.229 85.5966 213.487 85.2528C213.746 84.9062 214.084 84.6364 214.501 84.4432C214.922 84.25 215.384 84.1534 215.886 84.1534C216.426 84.1534 216.889 84.2628 217.276 84.4815C217.662 84.6974 217.959 84.983 218.166 85.3381C218.374 85.6932 218.477 86.0767 218.477 86.4886C218.477 86.9801 218.348 87.3991 218.089 87.7457C217.834 88.0923 217.486 88.3324 217.045 88.4659V88.5341C217.597 88.625 218.027 88.8594 218.337 89.2372C218.646 89.6122 218.801 90.0767 218.801 90.6307C218.801 91.1051 218.672 91.5312 218.413 91.9091C218.158 92.2841 217.808 92.5795 217.365 92.7955C216.922 93.0114 216.418 93.1193 215.852 93.1193ZM220.22 85.2102V84.2727H226.766V85.2102H224.021V93H222.964V85.2102H220.22ZM228.397 93V84.2727H233.664V85.2102H229.453V88.1591H233.391V89.0966H229.453V92.0625H233.732V93H228.397ZM235.415 93V92.233L238.296 89.0795C238.634 88.7102 238.912 88.3892 239.131 88.1165C239.35 87.8409 239.512 87.5824 239.617 87.3409C239.725 87.0966 239.779 86.8409 239.779 86.5739C239.779 86.267 239.705 86.0014 239.557 85.777C239.412 85.5526 239.213 85.3793 238.961 85.2571C238.708 85.1349 238.424 85.0739 238.108 85.0739C237.773 85.0739 237.48 85.1435 237.23 85.2827C236.983 85.419 236.792 85.6108 236.655 85.858C236.522 86.1051 236.455 86.3949 236.455 86.7273H235.449C235.449 86.2159 235.567 85.767 235.803 85.3807C236.039 84.9943 236.36 84.6932 236.766 84.4773C237.175 84.2614 237.634 84.1534 238.142 84.1534C238.654 84.1534 239.107 84.2614 239.502 84.4773C239.897 84.6932 240.206 84.9844 240.431 85.3509C240.655 85.7173 240.767 86.125 240.767 86.5739C240.767 86.8949 240.709 87.2088 240.593 87.5156C240.479 87.8196 240.28 88.1591 239.996 88.5341C239.715 88.9062 239.324 89.3608 238.824 89.8977L236.864 91.9943V92.0625H240.921V93H235.415ZM245.408 93.1193C244.908 93.1193 244.458 93.0199 244.057 92.821C243.657 92.6222 243.336 92.3494 243.094 92.0028C242.853 91.6562 242.721 91.2614 242.698 90.8182H243.721C243.76 91.2131 243.939 91.5398 244.257 91.7983C244.578 92.054 244.962 92.1818 245.408 92.1818C245.766 92.1818 246.084 92.098 246.363 91.9304C246.644 91.7628 246.864 91.5327 247.023 91.2401C247.185 90.9446 247.266 90.6108 247.266 90.2386C247.266 89.858 247.182 89.5185 247.015 89.2202C246.85 88.919 246.623 88.6818 246.333 88.5085C246.043 88.3352 245.712 88.2472 245.34 88.2443C245.073 88.2415 244.799 88.2827 244.517 88.3679C244.236 88.4503 244.005 88.5568 243.823 88.6875L242.834 88.5682L243.363 84.2727H247.897V85.2102H244.249L243.942 87.7841H243.993C244.172 87.642 244.397 87.5241 244.667 87.4304C244.936 87.3366 245.218 87.2898 245.51 87.2898C246.044 87.2898 246.52 87.4176 246.938 87.6733C247.358 87.9261 247.688 88.2727 247.926 88.7131C248.168 89.1534 248.289 89.6562 248.289 90.2216C248.289 90.7784 248.164 91.2756 247.914 91.7131C247.667 92.1477 247.326 92.4915 246.891 92.7443C246.456 92.9943 245.962 93.1193 245.408 93.1193ZM254.516 93V93.9375H249.061V93H254.516ZM255.919 93H254.811L258.015 84.2727H259.106L262.311 93H261.203L258.595 85.6534H258.527L255.919 93ZM256.328 89.5909H260.794V90.5284H256.328V89.5909ZM263.208 84.2727L265.799 91.6193H265.901L268.492 84.2727H269.6L266.395 93H265.304L262.1 84.2727H263.208ZM274.391 93V93.9375H268.936V93H274.391ZM282.356 84.2727V93H281.333L276.578 86.1477H276.493V93H275.436V84.2727H276.458L281.231 91.142H281.316V84.2727H282.356ZM291.835 88.6364C291.835 89.5568 291.668 90.3523 291.336 91.0227C291.004 91.6932 290.548 92.2102 289.968 92.5739C289.388 92.9375 288.727 93.1193 287.982 93.1193C287.238 93.1193 286.576 92.9375 285.996 92.5739C285.417 92.2102 284.961 91.6932 284.629 91.0227C284.296 90.3523 284.13 89.5568 284.13 88.6364C284.13 87.7159 284.296 86.9205 284.629 86.25C284.961 85.5795 285.417 85.0625 285.996 84.6989C286.576 84.3352 287.238 84.1534 287.982 84.1534C288.727 84.1534 289.388 84.3352 289.968 84.6989C290.548 85.0625 291.004 85.5795 291.336 86.25C291.668 86.9205 291.835 87.7159 291.835 88.6364ZM290.812 88.6364C290.812 87.8807 290.685 87.2429 290.433 86.723C290.183 86.2031 289.843 85.8097 289.414 85.5426C288.988 85.2756 288.511 85.142 287.982 85.142C287.454 85.142 286.975 85.2756 286.546 85.5426C286.12 85.8097 285.781 86.2031 285.528 86.723C285.278 87.2429 285.153 87.8807 285.153 88.6364C285.153 89.392 285.278 90.0298 285.528 90.5497C285.781 91.0696 286.12 91.4631 286.546 91.7301C286.975 91.9972 287.454 92.1307 287.982 92.1307C288.511 92.1307 288.988 91.9972 289.414 91.7301C289.843 91.4631 290.183 91.0696 290.433 90.5497C290.685 90.0298 290.812 89.392 290.812 88.6364ZM300.532 84.2727V93H299.509L294.754 86.1477H294.668V93H293.612V84.2727H294.634L299.407 91.142H299.492V84.2727H300.532ZM302.647 93V84.2727H307.914V85.2102H303.703V88.1591H307.641V89.0966H303.703V92.0625H307.982V93H302.647ZM314.199 93V93.9375H308.745V93H314.199ZM315.091 93V92.233L317.972 89.0795C318.31 88.7102 318.588 88.3892 318.807 88.1165C319.026 87.8409 319.188 87.5824 319.293 87.3409C319.401 87.0966 319.455 86.8409 319.455 86.5739C319.455 86.267 319.381 86.0014 319.233 85.777C319.088 85.5526 318.889 85.3793 318.636 85.2571C318.384 85.1349 318.099 85.0739 317.784 85.0739C317.449 85.0739 317.156 85.1435 316.906 85.2827C316.659 85.419 316.467 85.6108 316.331 85.858C316.197 86.1051 316.131 86.3949 316.131 86.7273H315.125C315.125 86.2159 315.243 85.767 315.479 85.3807C315.714 84.9943 316.036 84.6932 316.442 84.4773C316.851 84.2614 317.31 84.1534 317.818 84.1534C318.33 84.1534 318.783 84.2614 319.178 84.4773C319.572 84.6932 319.882 84.9844 320.107 85.3509C320.331 85.7173 320.443 86.125 320.443 86.5739C320.443 86.8949 320.385 87.2088 320.268 87.5156C320.155 87.8196 319.956 88.1591 319.672 88.5341C319.391 88.9062 319 89.3608 318.5 89.8977L316.54 91.9943V92.0625H320.597V93H315.091ZM325.203 93H322.51V84.2727H325.322C326.169 84.2727 326.893 84.4474 327.496 84.7969C328.098 85.1435 328.56 85.642 328.881 86.2926C329.202 86.9403 329.362 87.7159 329.362 88.6193C329.362 89.5284 329.2 90.3111 328.876 90.9673C328.553 91.6207 328.081 92.1236 327.462 92.4759C326.842 92.8253 326.089 93 325.203 93ZM323.567 92.0625H325.135C325.857 92.0625 326.455 91.9233 326.929 91.6449C327.403 91.3665 327.757 90.9702 327.99 90.456C328.223 89.9418 328.339 89.3295 328.339 88.6193C328.339 87.9148 328.224 87.3082 327.994 86.7997C327.764 86.2884 327.42 85.8963 326.963 85.6236C326.506 85.348 325.936 85.2102 325.254 85.2102H323.567V92.0625Z" fill="var(--colors-neutral-neutral-800)"/>
<path d="M372 91.3077L368.192 87.5H375.808L372 91.3077Z" fill="var(--colors-neutral-neutral-700)"/>
</g>
<g clip-path="url(#clip1_5364_2094)">
<rect width="368" height="32" transform="translate(16 113)" fill="white"/>
<path d="M19.37 133.12C18.7567 133.12 18.2233 132.967 17.77 132.66C17.3233 132.347 16.9767 131.92 16.73 131.38C16.49 130.833 16.37 130.207 16.37 129.5C16.37 128.767 16.4967 128.13 16.75 127.59C17.0033 127.05 17.3567 126.633 17.81 126.34C18.27 126.047 18.8033 125.9 19.41 125.9C19.8967 125.9 20.3367 125.997 20.73 126.19C21.13 126.377 21.4533 126.65 21.7 127.01C21.9533 127.363 22.1 127.787 22.14 128.28H20.98C20.9267 127.833 20.76 127.477 20.48 127.21C20.2 126.937 19.84 126.8 19.4 126.8C19.02 126.8 18.6833 126.91 18.39 127.13C18.1033 127.343 17.88 127.653 17.72 128.06C17.56 128.467 17.48 128.95 17.48 129.51C17.48 130.07 17.56 130.553 17.72 130.96C17.8867 131.367 18.1133 131.68 18.4 131.9C18.6867 132.113 19.01 132.22 19.37 132.22C19.6833 132.22 19.9567 132.157 20.19 132.03C20.4233 131.897 20.61 131.713 20.75 131.48C20.8967 131.247 20.9833 130.973 21.01 130.66H22.18C22.1333 131.153 21.99 131.587 21.75 131.96C21.51 132.327 21.1867 132.613 20.78 132.82C20.38 133.02 19.91 133.12 19.37 133.12ZM27.1939 133L27.1539 131.75V129.4C27.1539 129.007 27.0239 128.7 26.7639 128.48C26.5106 128.253 26.1606 128.14 25.7139 128.14C25.2806 128.14 24.9272 128.24 24.6539 128.44C24.3806 128.633 24.2306 128.903 24.2039 129.25H23.2139C23.2472 128.857 23.3739 128.523 23.5939 128.25C23.8139 127.97 24.1072 127.757 24.4739 127.61C24.8406 127.457 25.2639 127.38 25.7439 127.38C26.2372 127.38 26.6639 127.463 27.0239 127.63C27.3839 127.79 27.6606 128.023 27.8539 128.33C28.0539 128.637 28.1539 129.01 28.1539 129.45V133H27.1939ZM25.2039 133.12C24.8439 133.12 24.5272 133.057 24.2539 132.93C23.9806 132.797 23.7672 132.61 23.6139 132.37C23.4606 132.123 23.3839 131.837 23.3839 131.51C23.3839 130.943 23.6006 130.503 24.0339 130.19C24.4739 129.877 25.0872 129.72 25.8739 129.72H27.2839V130.47H25.8339C25.3806 130.47 25.0239 130.557 24.7639 130.73C24.5106 130.903 24.3839 131.147 24.3839 131.46C24.3839 131.72 24.4739 131.923 24.6539 132.07C24.8406 132.217 25.0906 132.29 25.4039 132.29C25.8039 132.29 26.1572 132.183 26.4639 131.97C26.7772 131.75 27.0306 131.45 27.2239 131.07L27.3339 131.81C27.1606 132.23 26.8939 132.553 26.5339 132.78C26.1739 133.007 25.7306 133.12 25.2039 133.12ZM33.7578 129.86V129.2C33.7578 128.913 33.6711 128.683 33.4978 128.51C33.3245 128.33 33.0745 128.24 32.7478 128.24C32.3345 128.24 31.9645 128.397 31.6378 128.71C31.3111 129.017 31.0511 129.487 30.8578 130.12L30.7178 129.1C30.8645 128.72 31.0411 128.403 31.2478 128.15C31.4611 127.897 31.7045 127.707 31.9778 127.58C32.2578 127.447 32.5645 127.38 32.8978 127.38C33.4511 127.38 33.9011 127.54 34.2478 127.86C34.5945 128.173 34.7678 128.62 34.7678 129.2V129.86H33.7578ZM30.0378 133V127.5H30.9878L31.0478 128.75V133H30.0378ZM40.2617 129.86V129.2C40.2617 128.913 40.1751 128.683 40.0017 128.51C39.8284 128.33 39.5784 128.24 39.2517 128.24C38.8384 128.24 38.4684 128.397 38.1417 128.71C37.8151 129.017 37.5551 129.487 37.3617 130.12L37.2217 129.1C37.3684 128.72 37.5451 128.403 37.7517 128.15C37.9651 127.897 38.2084 127.707 38.4817 127.58C38.7617 127.447 39.0684 127.38 39.4017 127.38C39.9551 127.38 40.4051 127.54 40.7517 127.86C41.0984 128.173 41.2717 128.62 41.2717 129.2V129.86H40.2617ZM36.5417 133V127.5H37.4917L37.5517 128.75V133H36.5417ZM44.8156 133V127.5H45.8256V133H44.8156ZM42.7856 133V132.18H47.7156V133H42.7856ZM43.5156 128.32V127.5H45.3156V128.32H43.5156ZM44.7456 126.56V125.47H45.8756V126.56H44.7456ZM51.8295 133.12C51.2629 133.12 50.7729 133.007 50.3595 132.78C49.9462 132.547 49.6295 132.217 49.4095 131.79C49.1895 131.357 49.0795 130.84 49.0795 130.24C49.0795 129.64 49.1895 129.127 49.4095 128.7C49.6362 128.273 49.9562 127.947 50.3695 127.72C50.7895 127.493 51.2895 127.38 51.8695 127.38C52.7562 127.38 53.4162 127.627 53.8495 128.12C54.2829 128.607 54.4729 129.277 54.4195 130.13H49.8795L49.8895 129.37L53.3895 129.38C53.3629 129.027 53.2095 128.743 52.9295 128.53C52.6495 128.317 52.2962 128.21 51.8695 128.21C51.2962 128.21 50.8562 128.39 50.5495 128.75C50.2429 129.11 50.0895 129.62 50.0895 130.28C50.0895 130.673 50.1562 131.023 50.2895 131.33C50.4295 131.63 50.6295 131.863 50.8895 132.03C51.1495 132.197 51.4629 132.28 51.8295 132.28C52.2629 132.28 52.6229 132.177 52.9095 131.97C53.2029 131.763 53.3829 131.483 53.4495 131.13H54.4595C54.3729 131.75 54.0962 132.237 53.6295 132.59C53.1629 132.943 52.5629 133.12 51.8295 133.12ZM59.7734 129.86V129.2C59.7734 128.913 59.6868 128.683 59.5134 128.51C59.3401 128.33 59.0901 128.24 58.7634 128.24C58.3501 128.24 57.9801 128.397 57.6534 128.71C57.3268 129.017 57.0668 129.487 56.8734 130.12L56.7334 129.1C56.8801 128.72 57.0568 128.403 57.2634 128.15C57.4768 127.897 57.7201 127.707 57.9934 127.58C58.2734 127.447 58.5801 127.38 58.9134 127.38C59.4668 127.38 59.9168 127.54 60.2634 127.86C60.6101 128.173 60.7834 128.62 60.7834 129.2V129.86H59.7734ZM56.0534 133V127.5H57.0034L57.0634 128.75V133H56.0534Z" fill="var(--colors-neutral-neutral-800)"/>
<rect width="180" height="32" transform="translate(204 113)" fill="var(--colors-neutral-neutral-300)"/>
<path d="M218.784 124.273H219.841V130.051C219.841 130.648 219.7 131.18 219.419 131.649C219.141 132.115 218.747 132.483 218.239 132.753C217.73 133.02 217.134 133.153 216.449 133.153C215.764 133.153 215.168 133.02 214.659 132.753C214.151 132.483 213.756 132.115 213.474 131.649C213.196 131.18 213.057 130.648 213.057 130.051V124.273H214.114V129.966C214.114 130.392 214.207 130.771 214.395 131.104C214.582 131.433 214.849 131.693 215.196 131.884C215.545 132.071 215.963 132.165 216.449 132.165C216.935 132.165 217.352 132.071 217.702 131.884C218.051 131.693 218.318 131.433 218.503 131.104C218.69 130.771 218.784 130.392 218.784 129.966V124.273ZM221.951 133V124.273H223.008V132.062H227.065V133H221.951ZM231.395 133H228.701V124.273H231.514C232.36 124.273 233.085 124.447 233.687 124.797C234.289 125.143 234.751 125.642 235.072 126.293C235.393 126.94 235.554 127.716 235.554 128.619C235.554 129.528 235.392 130.311 235.068 130.967C234.744 131.621 234.272 132.124 233.653 132.476C233.034 132.825 232.281 133 231.395 133ZM229.758 132.062H231.326C232.048 132.062 232.646 131.923 233.12 131.645C233.595 131.366 233.949 130.97 234.181 130.456C234.414 129.942 234.531 129.33 234.531 128.619C234.531 127.915 234.416 127.308 234.186 126.8C233.956 126.288 233.612 125.896 233.154 125.624C232.697 125.348 232.127 125.21 231.446 125.21H229.758V132.062ZM241.227 133V133.938H235.772V133H241.227ZM242.63 133H241.522L244.726 124.273H245.817L249.022 133H247.914L245.306 125.653H245.238L242.63 133ZM243.039 129.591H247.505V130.528H243.039V129.591ZM250.381 133V124.273H251.438V128.602H251.54L255.461 124.273H256.841L253.176 128.21L256.841 133H255.563L252.529 128.943L251.438 130.17V133H250.381ZM258.209 133V124.273H263.476V125.21H259.266V128.159H263.203V129.097H259.266V132.062H263.544V133H258.209Z" fill="var(--colors-neutral-neutral-800)"/>
<path d="M372 131.308L368.192 127.5H375.808L372 131.308Z" fill="var(--colors-neutral-neutral-700)"/>
</g>
<g clip-path="url(#clip2_5364_2094)">
<rect width="368" height="32" transform="translate(16 153)" fill="white"/>
<path d="M16.69 173V166.02H18.84C19.3467 166.02 19.8033 166.103 20.21 166.27C20.6167 166.43 20.9633 166.663 21.25 166.97C21.5367 167.27 21.7567 167.633 21.91 168.06C22.0633 168.487 22.14 168.963 22.14 169.49C22.14 170.023 22.0633 170.507 21.91 170.94C21.7567 171.367 21.5367 171.737 21.25 172.05C20.9633 172.357 20.6167 172.593 20.21 172.76C19.8033 172.92 19.3467 173 18.84 173H16.69ZM17.75 172.1H18.84C19.2933 172.1 19.6833 171.993 20.01 171.78C20.3367 171.56 20.5867 171.253 20.76 170.86C20.94 170.467 21.03 170.01 21.03 169.49C21.03 168.963 20.94 168.51 20.76 168.13C20.5867 167.743 20.3367 167.447 20.01 167.24C19.6833 167.027 19.2933 166.92 18.84 166.92H17.75V172.1ZM25.3039 173V167.5H26.3139V173H25.3039ZM23.2739 173V172.18H28.2039V173H23.2739ZM24.0039 168.32V167.5H25.8039V168.32H24.0039ZM25.2339 166.56V165.47H26.3639V166.56H25.2339ZM32.4078 173.12C31.9211 173.12 31.4911 173.037 31.1178 172.87C30.7511 172.697 30.4678 172.457 30.2678 172.15C30.0678 171.837 29.9645 171.463 29.9578 171.03H30.9078C30.9078 171.437 31.0445 171.757 31.3178 171.99C31.5911 172.223 31.9511 172.34 32.3978 172.34C32.7778 172.34 33.0811 172.27 33.3078 172.13C33.5411 171.983 33.6578 171.787 33.6578 171.54C33.6578 171.347 33.5911 171.193 33.4578 171.08C33.3311 170.96 33.1611 170.867 32.9478 170.8C32.7345 170.733 32.4978 170.677 32.2378 170.63C31.9845 170.577 31.7278 170.517 31.4678 170.45C31.2145 170.377 30.9811 170.287 30.7678 170.18C30.5545 170.067 30.3811 169.917 30.2478 169.73C30.1145 169.543 30.0478 169.3 30.0478 169C30.0478 168.687 30.1378 168.41 30.3178 168.17C30.4978 167.923 30.7511 167.73 31.0778 167.59C31.4111 167.45 31.8045 167.38 32.2578 167.38C32.9445 167.38 33.4945 167.54 33.9078 167.86C34.3278 168.173 34.5545 168.607 34.5878 169.16H33.6378C33.6178 168.84 33.4845 168.593 33.2378 168.42C32.9978 168.24 32.6711 168.15 32.2578 168.15C31.8711 168.15 31.5745 168.227 31.3678 168.38C31.1678 168.533 31.0678 168.727 31.0678 168.96C31.0678 169.14 31.1345 169.283 31.2678 169.39C31.4011 169.49 31.5745 169.57 31.7878 169.63C32.0011 169.683 32.2345 169.733 32.4878 169.78C32.7478 169.82 33.0045 169.873 33.2578 169.94C33.5178 170.007 33.7545 170.1 33.9678 170.22C34.1811 170.333 34.3511 170.49 34.4778 170.69C34.6111 170.89 34.6778 171.15 34.6778 171.47C34.6778 171.983 34.4711 172.387 34.0578 172.68C33.6445 172.973 33.0945 173.12 32.4078 173.12ZM39.2117 173C38.8717 173 38.5817 172.933 38.3417 172.8C38.1017 172.66 37.9217 172.463 37.8017 172.21C37.6817 171.957 37.6217 171.66 37.6217 171.32V166.46L38.6317 165.91V171.32C38.6317 171.48 38.6551 171.627 38.7017 171.76C38.7484 171.893 38.8384 171.997 38.9717 172.07C39.1117 172.143 39.3151 172.18 39.5817 172.18H41.2317V173H39.2117ZM36.3217 168.32V167.5H40.3517V168.32H36.3217ZM46.7656 169.86V169.2C46.7656 168.913 46.679 168.683 46.5056 168.51C46.3323 168.33 46.0823 168.24 45.7556 168.24C45.3423 168.24 44.9723 168.397 44.6456 168.71C44.319 169.017 44.059 169.487 43.8656 170.12L43.7256 169.1C43.8723 168.72 44.049 168.403 44.2556 168.15C44.469 167.897 44.7123 167.707 44.9856 167.58C45.2656 167.447 45.5723 167.38 45.9056 167.38C46.459 167.38 46.909 167.54 47.2556 167.86C47.6023 168.173 47.7756 168.62 47.7756 169.2V169.86H46.7656ZM43.0456 173V167.5H43.9956L44.0556 168.75V173H43.0456ZM51.3195 173V167.5H52.3295V173H51.3195ZM49.2895 173V172.18H54.2195V173H49.2895ZM50.0195 168.32V167.5H51.8195V168.32H50.0195ZM51.2495 166.56V165.47H52.3795V166.56H51.2495ZM58.6034 167.38C59.0968 167.38 59.5268 167.503 59.8934 167.75C60.2668 167.99 60.5601 168.327 60.7734 168.76C60.9868 169.193 61.0934 169.69 61.0934 170.25C61.0934 170.803 60.9868 171.297 60.7734 171.73C60.5601 172.163 60.2668 172.503 59.8934 172.75C59.5268 172.997 59.0968 173.12 58.6034 173.12C58.2234 173.12 57.8734 173.04 57.5534 172.88C57.2401 172.713 56.9868 172.497 56.7934 172.23L56.7634 173H55.8034V165.65H56.8134V168.23C57.0068 167.963 57.2601 167.757 57.5734 167.61C57.8868 167.457 58.2301 167.38 58.6034 167.38ZM58.3834 172.27C58.7234 172.27 59.0201 172.183 59.2734 172.01C59.5268 171.837 59.7234 171.6 59.8634 171.3C60.0034 170.993 60.0734 170.643 60.0734 170.25C60.0734 169.85 60.0034 169.5 59.8634 169.2C59.7234 168.893 59.5268 168.657 59.2734 168.49C59.0201 168.317 58.7234 168.23 58.3834 168.23C58.0301 168.23 57.7134 168.33 57.4334 168.53C57.1534 168.723 56.9468 168.997 56.8134 169.35V171.14C56.9468 171.487 57.1534 171.763 57.4334 171.97C57.7134 172.17 58.0301 172.27 58.3834 172.27ZM63.2473 167.5V170.97C63.2473 171.357 63.3573 171.67 63.5773 171.91C63.7973 172.143 64.084 172.26 64.4373 172.26C64.844 172.26 65.204 172.113 65.5173 171.82C65.8373 171.52 66.0907 171.057 66.2773 170.43L66.4373 171.56C66.2307 172.08 65.9307 172.47 65.5373 172.73C65.1507 172.99 64.7273 173.12 64.2673 173.12C63.854 173.12 63.494 173.033 63.1873 172.86C62.8873 172.68 62.654 172.433 62.4873 172.12C62.3207 171.807 62.2373 171.437 62.2373 171.01V167.5H63.2473ZM67.1673 167.5V173H66.2073L66.1573 171.76V167.5H67.1673ZM71.7313 173C71.3913 173 71.1013 172.933 70.8613 172.8C70.6213 172.66 70.4413 172.463 70.3213 172.21C70.2013 171.957 70.1413 171.66 70.1413 171.32V166.46L71.1513 165.91V171.32C71.1513 171.48 71.1746 171.627 71.2213 171.76C71.2679 171.893 71.3579 171.997 71.4913 172.07C71.6313 172.143 71.8346 172.18 72.1013 172.18H73.7513V173H71.7313ZM68.8413 168.32V167.5H72.8713V168.32H68.8413ZM77.3352 173V167.5H78.3452V173H77.3352ZM75.3052 173V172.18H80.2352V173H75.3052ZM76.0352 168.32V167.5H77.8352V168.32H76.0352ZM77.2652 166.56V165.47H78.3952V166.56H77.2652ZM84.2791 173.12C83.7124 173.12 83.2224 173.003 82.8091 172.77C82.4024 172.537 82.0891 172.207 81.8691 171.78C81.6491 171.347 81.5391 170.837 81.5391 170.25C81.5391 169.65 81.6491 169.14 81.8691 168.72C82.0891 168.293 82.4024 167.963 82.8091 167.73C83.2224 167.497 83.7157 167.38 84.2891 167.38C85.1424 167.38 85.8124 167.637 86.2991 168.15C86.7857 168.657 87.0291 169.357 87.0291 170.25C87.0291 170.837 86.9191 171.347 86.6991 171.78C86.4791 172.207 86.1624 172.537 85.7491 172.77C85.3424 173.003 84.8524 173.12 84.2791 173.12ZM84.2891 172.28C84.8224 172.28 85.2424 172.1 85.5491 171.74C85.8624 171.373 86.0191 170.877 86.0191 170.25C86.0191 169.617 85.8624 169.12 85.5491 168.76C85.2424 168.4 84.8224 168.22 84.2891 168.22C83.7491 168.22 83.3257 168.4 83.0191 168.76C82.7124 169.12 82.5591 169.617 82.5591 170.25C82.5591 170.877 82.7124 171.373 83.0191 171.74C83.3257 172.1 83.7491 172.28 84.2891 172.28ZM92.273 173V169.53C92.273 169.143 92.163 168.833 91.943 168.6C91.723 168.36 91.4363 168.24 91.083 168.24C90.6763 168.24 90.313 168.39 89.993 168.69C89.6796 168.983 89.4296 169.443 89.243 170.07L89.083 168.94C89.2896 168.42 89.5863 168.03 89.973 167.77C90.3663 167.51 90.793 167.38 91.253 167.38C91.6663 167.38 92.023 167.47 92.323 167.65C92.6296 167.823 92.8663 168.067 93.033 168.38C93.1996 168.693 93.283 169.063 93.283 169.49V173H92.273ZM88.353 173V167.5H89.313L89.363 168.74V173H88.353Z" fill="var(--colors-neutral-neutral-800)"/>
<rect width="180" height="32" transform="translate(204 153)" fill="var(--colors-neutral-neutral-300)"/>
<path d="M213.057 164.273H214.318L217.284 171.517H217.386L220.352 164.273H221.614V173H220.625V166.369H220.54L217.812 173H216.858L214.131 166.369H214.045V173H213.057V164.273ZM225.522 173.153C225.108 173.153 224.731 173.075 224.393 172.919C224.055 172.76 223.787 172.531 223.588 172.233C223.389 171.932 223.289 171.568 223.289 171.142C223.289 170.767 223.363 170.463 223.511 170.23C223.659 169.994 223.856 169.81 224.103 169.676C224.35 169.543 224.623 169.443 224.922 169.378C225.223 169.31 225.525 169.256 225.829 169.216C226.227 169.165 226.549 169.126 226.797 169.101C227.047 169.072 227.228 169.026 227.342 168.96C227.458 168.895 227.517 168.781 227.517 168.619V168.585C227.517 168.165 227.402 167.838 227.172 167.605C226.944 167.372 226.599 167.256 226.136 167.256C225.656 167.256 225.279 167.361 225.007 167.571C224.734 167.781 224.542 168.006 224.431 168.244L223.477 167.903C223.647 167.506 223.875 167.196 224.159 166.974C224.446 166.75 224.758 166.594 225.096 166.506C225.437 166.415 225.772 166.369 226.102 166.369C226.312 166.369 226.554 166.395 226.826 166.446C227.102 166.494 227.368 166.595 227.623 166.749C227.882 166.902 228.096 167.134 228.267 167.443C228.437 167.753 228.522 168.168 228.522 168.688V173H227.517V172.114H227.466C227.397 172.256 227.284 172.408 227.125 172.57C226.966 172.732 226.754 172.869 226.49 172.983C226.225 173.097 225.903 173.153 225.522 173.153ZM225.676 172.25C226.074 172.25 226.409 172.172 226.681 172.016C226.957 171.859 227.164 171.658 227.304 171.411C227.446 171.163 227.517 170.903 227.517 170.631V169.71C227.474 169.761 227.38 169.808 227.235 169.851C227.093 169.891 226.929 169.926 226.741 169.957C226.556 169.986 226.376 170.011 226.2 170.034C226.027 170.054 225.886 170.071 225.778 170.085C225.517 170.119 225.272 170.175 225.045 170.251C224.821 170.325 224.639 170.437 224.5 170.588C224.363 170.736 224.295 170.937 224.295 171.193C224.295 171.543 224.424 171.807 224.683 171.986C224.944 172.162 225.275 172.25 225.676 172.25ZM230.358 173V166.455H231.33V167.443H231.398C231.517 167.119 231.733 166.857 232.045 166.655C232.358 166.453 232.71 166.352 233.102 166.352C233.176 166.352 233.268 166.354 233.379 166.357C233.49 166.359 233.574 166.364 233.631 166.369V167.392C233.597 167.384 233.518 167.371 233.396 167.354C233.277 167.334 233.151 167.324 233.017 167.324C232.699 167.324 232.415 167.391 232.165 167.524C231.918 167.655 231.722 167.837 231.577 168.07C231.435 168.3 231.364 168.562 231.364 168.858V173H230.358ZM237.266 175.591C236.78 175.591 236.362 175.528 236.013 175.403C235.663 175.281 235.372 175.119 235.139 174.918C234.909 174.719 234.726 174.506 234.589 174.278L235.391 173.716C235.482 173.835 235.597 173.972 235.736 174.125C235.875 174.281 236.065 174.416 236.307 174.53C236.551 174.646 236.871 174.705 237.266 174.705C237.794 174.705 238.23 174.577 238.574 174.321C238.918 174.065 239.089 173.665 239.089 173.119V171.79H239.004C238.93 171.909 238.825 172.057 238.689 172.233C238.555 172.406 238.362 172.561 238.109 172.697C237.859 172.831 237.521 172.898 237.095 172.898C236.567 172.898 236.092 172.773 235.672 172.523C235.254 172.273 234.923 171.909 234.679 171.432C234.438 170.955 234.317 170.375 234.317 169.693C234.317 169.023 234.435 168.439 234.67 167.942C234.906 167.442 235.234 167.055 235.655 166.783C236.075 166.507 236.561 166.369 237.112 166.369C237.538 166.369 237.876 166.44 238.126 166.582C238.379 166.722 238.572 166.881 238.706 167.06C238.842 167.236 238.947 167.381 239.021 167.494H239.124V166.455H240.095V173.188C240.095 173.75 239.967 174.207 239.712 174.56C239.459 174.915 239.118 175.175 238.689 175.339C238.263 175.507 237.788 175.591 237.266 175.591ZM237.232 171.994C237.635 171.994 237.976 171.902 238.254 171.717C238.533 171.533 238.744 171.267 238.889 170.92C239.034 170.574 239.107 170.159 239.107 169.676C239.107 169.205 239.036 168.788 238.893 168.428C238.751 168.067 238.541 167.784 238.263 167.58C237.984 167.375 237.641 167.273 237.232 167.273C236.805 167.273 236.45 167.381 236.166 167.597C235.885 167.812 235.673 168.102 235.531 168.466C235.392 168.83 235.322 169.233 235.322 169.676C235.322 170.131 235.393 170.533 235.536 170.882C235.68 171.229 235.893 171.501 236.175 171.7C236.459 171.896 236.811 171.994 237.232 171.994ZM241.936 173V166.455H242.942V173H241.936ZM242.447 165.364C242.251 165.364 242.082 165.297 241.94 165.163C241.801 165.03 241.732 164.869 241.732 164.682C241.732 164.494 241.801 164.334 241.94 164.2C242.082 164.067 242.251 164 242.447 164C242.643 164 242.811 164.067 242.95 164.2C243.092 164.334 243.163 164.494 243.163 164.682C243.163 164.869 243.092 165.03 242.95 165.163C242.811 165.297 242.643 165.364 242.447 165.364ZM245.789 169.062V173H244.784V166.455H245.755V167.477H245.841C245.994 167.145 246.227 166.878 246.539 166.676C246.852 166.472 247.255 166.369 247.75 166.369C248.193 166.369 248.581 166.46 248.913 166.642C249.245 166.821 249.504 167.094 249.689 167.46C249.873 167.824 249.966 168.284 249.966 168.841V173H248.96V168.909C248.96 168.395 248.826 167.994 248.559 167.707C248.292 167.418 247.926 167.273 247.46 167.273C247.139 167.273 246.852 167.342 246.599 167.482C246.349 167.621 246.152 167.824 246.007 168.091C245.862 168.358 245.789 168.682 245.789 169.062Z" fill="var(--colors-neutral-neutral-800)"/>
<path d="M372 171.308L368.192 167.5H375.808L372 171.308Z" fill="var(--colors-neutral-neutral-700)"/>
</g>
<g clip-path="url(#clip3_5364_2094)">
<rect width="368" height="32" transform="translate(16 193)" fill="white"/>
<path d="M19.39 213.12C18.77 213.12 18.23 212.97 17.77 212.67C17.31 212.37 16.95 211.95 16.69 211.41C16.4367 210.87 16.31 210.237 16.31 209.51C16.31 208.79 16.44 208.16 16.7 207.62C16.96 207.08 17.3233 206.66 17.79 206.36C18.2567 206.053 18.8 205.9 19.42 205.9C19.9 205.9 20.33 205.993 20.71 206.18C21.0967 206.367 21.41 206.637 21.65 206.99C21.89 207.343 22.03 207.77 22.07 208.27H20.9C20.8467 207.823 20.6867 207.467 20.42 207.2C20.16 206.933 19.82 206.8 19.4 206.8C19.0267 206.8 18.69 206.91 18.39 207.13C18.0967 207.343 17.8633 207.653 17.69 208.06C17.5167 208.46 17.43 208.943 17.43 209.51C17.43 210.09 17.5167 210.583 17.69 210.99C17.87 211.39 18.1133 211.697 18.42 211.91C18.7333 212.117 19.0833 212.22 19.47 212.22C19.81 212.22 20.11 212.16 20.37 212.04C20.63 211.913 20.8467 211.753 21.02 211.56V210.18L19.8 210.22L19.84 209.31H22.07V211.87C21.7967 212.263 21.4267 212.57 20.96 212.79C20.5 213.01 19.9767 213.12 19.39 213.12ZM27.1939 213L27.1539 211.75V209.4C27.1539 209.007 27.0239 208.7 26.7639 208.48C26.5106 208.253 26.1606 208.14 25.7139 208.14C25.2806 208.14 24.9272 208.24 24.6539 208.44C24.3806 208.633 24.2306 208.903 24.2039 209.25H23.2139C23.2472 208.857 23.3739 208.523 23.5939 208.25C23.8139 207.97 24.1072 207.757 24.4739 207.61C24.8406 207.457 25.2639 207.38 25.7439 207.38C26.2372 207.38 26.6639 207.463 27.0239 207.63C27.3839 207.79 27.6606 208.023 27.8539 208.33C28.0539 208.637 28.1539 209.01 28.1539 209.45V213H27.1939ZM25.2039 213.12C24.8439 213.12 24.5272 213.057 24.2539 212.93C23.9806 212.797 23.7672 212.61 23.6139 212.37C23.4606 212.123 23.3839 211.837 23.3839 211.51C23.3839 210.943 23.6006 210.503 24.0339 210.19C24.4739 209.877 25.0872 209.72 25.8739 209.72H27.2839V210.47H25.8339C25.3806 210.47 25.0239 210.557 24.7639 210.73C24.5106 210.903 24.3839 211.147 24.3839 211.46C24.3839 211.72 24.4739 211.923 24.6539 212.07C24.8406 212.217 25.0906 212.29 25.4039 212.29C25.8039 212.29 26.1572 212.183 26.4639 211.97C26.7772 211.75 27.0306 211.45 27.2239 211.07L27.3339 211.81C27.1606 212.23 26.8939 212.553 26.5339 212.78C26.1739 213.007 25.7306 213.12 25.2039 213.12ZM32.5778 207.38C33.0711 207.38 33.5011 207.503 33.8678 207.75C34.2411 207.99 34.5345 208.327 34.7478 208.76C34.9611 209.193 35.0678 209.69 35.0678 210.25C35.0678 210.803 34.9611 211.297 34.7478 211.73C34.5345 212.163 34.2411 212.503 33.8678 212.75C33.5011 212.997 33.0711 213.12 32.5778 213.12C32.2045 213.12 31.8611 213.043 31.5478 212.89C31.2411 212.737 30.9878 212.527 30.7878 212.26V214.78H29.7778V207.5H30.7378L30.7678 208.25C30.9678 207.983 31.2245 207.773 31.5378 207.62C31.8511 207.46 32.1978 207.38 32.5778 207.38ZM32.3578 212.27C32.6978 212.27 32.9945 212.183 33.2478 212.01C33.5011 211.837 33.6978 211.6 33.8378 211.3C33.9778 210.993 34.0478 210.643 34.0478 210.25C34.0478 209.85 33.9778 209.5 33.8378 209.2C33.6978 208.893 33.5011 208.657 33.2478 208.49C32.9945 208.317 32.6978 208.23 32.3578 208.23C32.0111 208.23 31.6945 208.33 31.4078 208.53C31.1278 208.723 30.9211 208.99 30.7878 209.33V211.15C30.9211 211.497 31.1278 211.77 31.4078 211.97C31.6945 212.17 32.0111 212.27 32.3578 212.27Z" fill="var(--colors-neutral-neutral-800)"/>
<rect width="180" height="32" transform="translate(204 193)" fill="var(--colors-neutral-neutral-300)"/>
<path d="M212.903 213V212.233L215.784 209.08C216.122 208.71 216.401 208.389 216.619 208.116C216.838 207.841 217 207.582 217.105 207.341C217.213 207.097 217.267 206.841 217.267 206.574C217.267 206.267 217.193 206.001 217.045 205.777C216.901 205.553 216.702 205.379 216.449 205.257C216.196 205.135 215.912 205.074 215.597 205.074C215.261 205.074 214.969 205.143 214.719 205.283C214.472 205.419 214.28 205.611 214.143 205.858C214.01 206.105 213.943 206.395 213.943 206.727H212.938C212.938 206.216 213.055 205.767 213.291 205.381C213.527 204.994 213.848 204.693 214.254 204.477C214.663 204.261 215.122 204.153 215.631 204.153C216.142 204.153 216.595 204.261 216.99 204.477C217.385 204.693 217.695 204.984 217.919 205.351C218.143 205.717 218.256 206.125 218.256 206.574C218.256 206.895 218.197 207.209 218.081 207.516C217.967 207.82 217.768 208.159 217.484 208.534C217.203 208.906 216.812 209.361 216.312 209.898L214.352 211.994V212.062H218.409V213H212.903ZM223.016 213.119C222.374 213.119 221.827 212.945 221.375 212.595C220.923 212.243 220.578 211.733 220.339 211.065C220.101 210.395 219.982 209.585 219.982 208.636C219.982 207.693 220.101 206.888 220.339 206.22C220.581 205.55 220.928 205.038 221.379 204.686C221.834 204.331 222.379 204.153 223.016 204.153C223.652 204.153 224.196 204.331 224.648 204.686C225.102 205.038 225.449 205.55 225.688 206.22C225.929 206.888 226.05 207.693 226.05 208.636C226.05 209.585 225.93 210.395 225.692 211.065C225.453 211.733 225.108 212.243 224.656 212.595C224.205 212.945 223.658 213.119 223.016 213.119ZM223.016 212.182C223.652 212.182 224.146 211.875 224.499 211.261C224.851 210.648 225.027 209.773 225.027 208.636C225.027 207.881 224.946 207.237 224.784 206.706C224.625 206.175 224.395 205.77 224.094 205.491C223.795 205.213 223.436 205.074 223.016 205.074C222.385 205.074 221.892 205.385 221.537 206.007C221.182 206.626 221.004 207.503 221.004 208.636C221.004 209.392 221.084 210.034 221.243 210.562C221.402 211.091 221.631 211.493 221.929 211.768C222.23 212.044 222.592 212.182 223.016 212.182ZM230.516 213.119C229.874 213.119 229.327 212.945 228.875 212.595C228.423 212.243 228.078 211.733 227.839 211.065C227.601 210.395 227.482 209.585 227.482 208.636C227.482 207.693 227.601 206.888 227.839 206.22C228.081 205.55 228.428 205.038 228.879 204.686C229.334 204.331 229.879 204.153 230.516 204.153C231.152 204.153 231.696 204.331 232.148 204.686C232.602 205.038 232.949 205.55 233.188 206.22C233.429 206.888 233.55 207.693 233.55 208.636C233.55 209.585 233.43 210.395 233.192 211.065C232.953 211.733 232.608 212.243 232.156 212.595C231.705 212.945 231.158 213.119 230.516 213.119ZM230.516 212.182C231.152 212.182 231.646 211.875 231.999 211.261C232.351 210.648 232.527 209.773 232.527 208.636C232.527 207.881 232.446 207.237 232.284 206.706C232.125 206.175 231.895 205.77 231.594 205.491C231.295 205.213 230.936 205.074 230.516 205.074C229.885 205.074 229.392 205.385 229.037 206.007C228.682 206.626 228.504 207.503 228.504 208.636C228.504 209.392 228.584 210.034 228.743 210.562C228.902 211.091 229.131 211.493 229.429 211.768C229.73 212.044 230.092 212.182 230.516 212.182ZM238.016 213.119C237.374 213.119 236.827 212.945 236.375 212.595C235.923 212.243 235.578 211.733 235.339 211.065C235.101 210.395 234.982 209.585 234.982 208.636C234.982 207.693 235.101 206.888 235.339 206.22C235.581 205.55 235.928 205.038 236.379 204.686C236.834 204.331 237.379 204.153 238.016 204.153C238.652 204.153 239.196 204.331 239.648 204.686C240.102 205.038 240.449 205.55 240.688 206.22C240.929 206.888 241.05 207.693 241.05 208.636C241.05 209.585 240.93 210.395 240.692 211.065C240.453 211.733 240.108 212.243 239.656 212.595C239.205 212.945 238.658 213.119 238.016 213.119ZM238.016 212.182C238.652 212.182 239.146 211.875 239.499 211.261C239.851 210.648 240.027 209.773 240.027 208.636C240.027 207.881 239.946 207.237 239.784 206.706C239.625 206.175 239.395 205.77 239.094 205.491C238.795 205.213 238.436 205.074 238.016 205.074C237.385 205.074 236.892 205.385 236.537 206.007C236.182 206.626 236.004 207.503 236.004 208.636C236.004 209.392 236.084 210.034 236.243 210.562C236.402 211.091 236.631 211.493 236.929 211.768C237.23 212.044 237.592 212.182 238.016 212.182Z" fill="var(--colors-neutral-neutral-800)"/>
<path d="M361.384 212.5V207.045H362.194V207.898H362.265C362.379 207.607 362.562 207.38 362.815 207.219C363.069 207.056 363.373 206.974 363.728 206.974C364.088 206.974 364.387 207.056 364.626 207.219C364.868 207.38 365.056 207.607 365.191 207.898H365.248C365.388 207.616 365.597 207.392 365.876 207.227C366.156 207.058 366.491 206.974 366.881 206.974C367.369 206.974 367.768 207.127 368.078 207.433C368.388 207.736 368.543 208.208 368.543 208.849V212.5H367.705V208.849C367.705 208.447 367.595 208.159 367.375 207.987C367.155 207.814 366.896 207.727 366.597 207.727C366.214 207.727 365.917 207.843 365.706 208.075C365.495 208.305 365.39 208.596 365.39 208.949V212.5H364.538V208.764C364.538 208.454 364.437 208.204 364.236 208.015C364.035 207.823 363.775 207.727 363.458 207.727C363.24 207.727 363.037 207.785 362.847 207.901C362.66 208.017 362.509 208.178 362.393 208.384C362.279 208.588 362.222 208.823 362.222 209.091V212.5H361.384ZM370.076 212.5V207.045H370.885V207.898H370.956C371.07 207.607 371.253 207.38 371.507 207.219C371.76 207.056 372.064 206.974 372.419 206.974C372.779 206.974 373.079 207.056 373.318 207.219C373.559 207.38 373.748 207.607 373.882 207.898H373.939C374.079 207.616 374.288 207.392 374.568 207.227C374.847 207.058 375.182 206.974 375.573 206.974C376.06 206.974 376.459 207.127 376.77 207.433C377.08 207.736 377.235 208.208 377.235 208.849V212.5H376.397V208.849C376.397 208.447 376.287 208.159 376.066 207.987C375.846 207.814 375.587 207.727 375.289 207.727C374.905 207.727 374.608 207.843 374.397 208.075C374.187 208.305 374.081 208.596 374.081 208.949V212.5H373.229V208.764C373.229 208.454 373.128 208.204 372.927 208.015C372.726 207.823 372.467 207.727 372.15 207.727C371.932 207.727 371.728 207.785 371.539 207.901C371.352 208.017 371.2 208.178 371.084 208.384C370.971 208.588 370.914 208.823 370.914 209.091V212.5H370.076Z" fill="var(--colors-neutral-neutral-700)"/>
</g>
<g clip-path="url(#clip4_5364_2094)">
<rect width="368" height="32" transform="translate(16 233)" fill="white"/>
<path d="M16.26 253L16.78 246.02H18.17L19.06 250.15L19.27 251.51L19.49 250.15L20.36 246.02H21.73L22.26 253H21.21L20.98 248.63L20.94 247.09L20.64 248.63L19.69 253H18.79L17.85 248.63L17.57 247.07L17.51 248.63L17.29 253H16.26ZM27.1939 253L27.1539 251.75V249.4C27.1539 249.007 27.0239 248.7 26.7639 248.48C26.5106 248.253 26.1606 248.14 25.7139 248.14C25.2806 248.14 24.9272 248.24 24.6539 248.44C24.3806 248.633 24.2306 248.903 24.2039 249.25H23.2139C23.2472 248.857 23.3739 248.523 23.5939 248.25C23.8139 247.97 24.1072 247.757 24.4739 247.61C24.8406 247.457 25.2639 247.38 25.7439 247.38C26.2372 247.38 26.6639 247.463 27.0239 247.63C27.3839 247.79 27.6606 248.023 27.8539 248.33C28.0539 248.637 28.1539 249.01 28.1539 249.45V253H27.1939ZM25.2039 253.12C24.8439 253.12 24.5272 253.057 24.2539 252.93C23.9806 252.797 23.7672 252.61 23.6139 252.37C23.4606 252.123 23.3839 251.837 23.3839 251.51C23.3839 250.943 23.6006 250.503 24.0339 250.19C24.4739 249.877 25.0872 249.72 25.8739 249.72H27.2839V250.47H25.8339C25.3806 250.47 25.0239 250.557 24.7639 250.73C24.5106 250.903 24.3839 251.147 24.3839 251.46C24.3839 251.72 24.4739 251.923 24.6539 252.07C24.8406 252.217 25.0906 252.29 25.4039 252.29C25.8039 252.29 26.1572 252.183 26.4639 251.97C26.7772 251.75 27.0306 251.45 27.2239 251.07L27.3339 251.81C27.1606 252.23 26.8939 252.553 26.5339 252.78C26.1739 253.007 25.7306 253.12 25.2039 253.12ZM33.7578 249.86V249.2C33.7578 248.913 33.6711 248.683 33.4978 248.51C33.3245 248.33 33.0745 248.24 32.7478 248.24C32.3345 248.24 31.9645 248.397 31.6378 248.71C31.3111 249.017 31.0511 249.487 30.8578 250.12L30.7178 249.1C30.8645 248.72 31.0411 248.403 31.2478 248.15C31.4611 247.897 31.7045 247.707 31.9778 247.58C32.2578 247.447 32.5645 247.38 32.8978 247.38C33.4511 247.38 33.9011 247.54 34.2478 247.86C34.5945 248.173 34.7678 248.62 34.7678 249.2V249.86H33.7578ZM30.0378 253V247.5H30.9878L31.0478 248.75V253H30.0378ZM40.2917 248.29L40.3217 247.5H41.2717V252.4C41.2717 253.213 41.0517 253.833 40.6117 254.26C40.1784 254.687 39.5217 254.9 38.6417 254.9C38.1551 254.9 37.7317 254.833 37.3717 254.7C37.0184 254.567 36.7384 254.367 36.5317 254.1C36.3317 253.84 36.2184 253.513 36.1917 253.12H37.2417C37.2751 253.42 37.4084 253.65 37.6417 253.81C37.8817 253.977 38.2317 254.06 38.6917 254.06C39.2117 254.06 39.6017 253.927 39.8617 253.66C40.1284 253.393 40.2617 253.013 40.2617 252.52V251.79C40.0751 252.07 39.8251 252.29 39.5117 252.45C39.2051 252.61 38.8617 252.69 38.4817 252.69C38.0084 252.69 37.5884 252.577 37.2217 252.35C36.8617 252.123 36.5784 251.81 36.3717 251.41C36.1651 251.003 36.0617 250.547 36.0617 250.04C36.0617 249.493 36.1684 249.023 36.3817 248.63C36.5951 248.23 36.8884 247.923 37.2617 247.71C37.6351 247.49 38.0584 247.38 38.5317 247.38C38.9117 247.38 39.2551 247.463 39.5617 247.63C39.8684 247.797 40.1117 248.017 40.2917 248.29ZM38.7017 251.9C39.0617 251.9 39.3817 251.797 39.6617 251.59C39.9484 251.377 40.1484 251.09 40.2617 250.73V249.34C40.1484 248.98 39.9484 248.697 39.6617 248.49C39.3817 248.277 39.0617 248.17 38.7017 248.17C38.3751 248.17 38.0884 248.25 37.8417 248.41C37.6017 248.57 37.4117 248.79 37.2717 249.07C37.1384 249.343 37.0717 249.663 37.0717 250.03C37.0717 250.39 37.1384 250.713 37.2717 251C37.4117 251.28 37.6017 251.5 37.8417 251.66C38.0884 251.82 38.3751 251.9 38.7017 251.9ZM44.8156 253V247.5H45.8256V253H44.8156ZM42.7856 253V252.18H47.7156V253H42.7856ZM43.5156 248.32V247.5H45.3156V248.32H43.5156ZM44.7456 246.56V245.47H45.8756V246.56H44.7456ZM53.2495 253V249.53C53.2495 249.143 53.1395 248.833 52.9195 248.6C52.6995 248.36 52.4129 248.24 52.0595 248.24C51.6529 248.24 51.2895 248.39 50.9695 248.69C50.6562 248.983 50.4062 249.443 50.2195 250.07L50.0595 248.94C50.2662 248.42 50.5629 248.03 50.9495 247.77C51.3429 247.51 51.7695 247.38 52.2295 247.38C52.6429 247.38 52.9995 247.47 53.2995 247.65C53.6062 247.823 53.8429 248.067 54.0095 248.38C54.1762 248.693 54.2595 249.063 54.2595 249.49V253H53.2495ZM49.3295 253V247.5H50.2895L50.3395 248.74V253H49.3295Z" fill="var(--colors-neutral-neutral-800)"/>
<rect width="180" height="32" transform="translate(204 233)" fill="var(--colors-neutral-neutral-300)"/>
<path d="M212.903 253V252.233L215.784 249.08C216.122 248.71 216.401 248.389 216.619 248.116C216.838 247.841 217 247.582 217.105 247.341C217.213 247.097 217.267 246.841 217.267 246.574C217.267 246.267 217.193 246.001 217.045 245.777C216.901 245.553 216.702 245.379 216.449 245.257C216.196 245.135 215.912 245.074 215.597 245.074C215.261 245.074 214.969 245.143 214.719 245.283C214.472 245.419 214.28 245.611 214.143 245.858C214.01 246.105 213.943 246.395 213.943 246.727H212.938C212.938 246.216 213.055 245.767 213.291 245.381C213.527 244.994 213.848 244.693 214.254 244.477C214.663 244.261 215.122 244.153 215.631 244.153C216.142 244.153 216.595 244.261 216.99 244.477C217.385 244.693 217.695 244.984 217.919 245.351C218.143 245.717 218.256 246.125 218.256 246.574C218.256 246.895 218.197 247.209 218.081 247.516C217.967 247.82 217.768 248.159 217.484 248.534C217.203 248.906 216.812 249.361 216.312 249.898L214.352 251.994V252.062H218.409V253H212.903ZM223.016 253.119C222.374 253.119 221.827 252.945 221.375 252.595C220.923 252.243 220.578 251.733 220.339 251.065C220.101 250.395 219.982 249.585 219.982 248.636C219.982 247.693 220.101 246.888 220.339 246.22C220.581 245.55 220.928 245.038 221.379 244.686C221.834 244.331 222.379 244.153 223.016 244.153C223.652 244.153 224.196 244.331 224.648 244.686C225.102 245.038 225.449 245.55 225.688 246.22C225.929 246.888 226.05 247.693 226.05 248.636C226.05 249.585 225.93 250.395 225.692 251.065C225.453 251.733 225.108 252.243 224.656 252.595C224.205 252.945 223.658 253.119 223.016 253.119ZM223.016 252.182C223.652 252.182 224.146 251.875 224.499 251.261C224.851 250.648 225.027 249.773 225.027 248.636C225.027 247.881 224.946 247.237 224.784 246.706C224.625 246.175 224.395 245.77 224.094 245.491C223.795 245.213 223.436 245.074 223.016 245.074C222.385 245.074 221.892 245.385 221.537 246.007C221.182 246.626 221.004 247.503 221.004 248.636C221.004 249.392 221.084 250.034 221.243 250.562C221.402 251.091 221.631 251.493 221.929 251.768C222.23 252.044 222.592 252.182 223.016 252.182ZM230.516 253.119C229.874 253.119 229.327 252.945 228.875 252.595C228.423 252.243 228.078 251.733 227.839 251.065C227.601 250.395 227.482 249.585 227.482 248.636C227.482 247.693 227.601 246.888 227.839 246.22C228.081 245.55 228.428 245.038 228.879 244.686C229.334 244.331 229.879 244.153 230.516 244.153C231.152 244.153 231.696 244.331 232.148 244.686C232.602 245.038 232.949 245.55 233.188 246.22C233.429 246.888 233.55 247.693 233.55 248.636C233.55 249.585 233.43 250.395 233.192 251.065C232.953 251.733 232.608 252.243 232.156 252.595C231.705 252.945 231.158 253.119 230.516 253.119ZM230.516 252.182C231.152 252.182 231.646 251.875 231.999 251.261C232.351 250.648 232.527 249.773 232.527 248.636C232.527 247.881 232.446 247.237 232.284 246.706C232.125 246.175 231.895 245.77 231.594 245.491C231.295 245.213 230.936 245.074 230.516 245.074C229.885 245.074 229.392 245.385 229.037 246.007C228.682 246.626 228.504 247.503 228.504 248.636C228.504 249.392 228.584 250.034 228.743 250.562C228.902 251.091 229.131 251.493 229.429 251.768C229.73 252.044 230.092 252.182 230.516 252.182ZM238.016 253.119C237.374 253.119 236.827 252.945 236.375 252.595C235.923 252.243 235.578 251.733 235.339 251.065C235.101 250.395 234.982 249.585 234.982 248.636C234.982 247.693 235.101 246.888 235.339 246.22C235.581 245.55 235.928 245.038 236.379 244.686C236.834 244.331 237.379 244.153 238.016 244.153C238.652 244.153 239.196 244.331 239.648 244.686C240.102 245.038 240.449 245.55 240.688 246.22C240.929 246.888 241.05 247.693 241.05 248.636C241.05 249.585 240.93 250.395 240.692 251.065C240.453 251.733 240.108 252.243 239.656 252.595C239.205 252.945 238.658 253.119 238.016 253.119ZM238.016 252.182C238.652 252.182 239.146 251.875 239.499 251.261C239.851 250.648 240.027 249.773 240.027 248.636C240.027 247.881 239.946 247.237 239.784 246.706C239.625 246.175 239.395 245.77 239.094 245.491C238.795 245.213 238.436 245.074 238.016 245.074C237.385 245.074 236.892 245.385 236.537 246.007C236.182 246.626 236.004 247.503 236.004 248.636C236.004 249.392 236.084 250.034 236.243 250.562C236.402 251.091 236.631 251.493 236.929 251.768C237.23 252.044 237.592 252.182 238.016 252.182Z" fill="var(--colors-neutral-neutral-800)"/>
<path d="M361.384 252.5V247.045H362.194V247.898H362.265C362.379 247.607 362.562 247.38 362.815 247.219C363.069 247.056 363.373 246.974 363.728 246.974C364.088 246.974 364.387 247.056 364.626 247.219C364.868 247.38 365.056 247.607 365.191 247.898H365.248C365.388 247.616 365.597 247.392 365.876 247.227C366.156 247.058 366.491 246.974 366.881 246.974C367.369 246.974 367.768 247.127 368.078 247.433C368.388 247.736 368.543 248.208 368.543 248.849V252.5H367.705V248.849C367.705 248.447 367.595 248.159 367.375 247.987C367.155 247.814 366.896 247.727 366.597 247.727C366.214 247.727 365.917 247.843 365.706 248.075C365.495 248.305 365.39 248.596 365.39 248.949V252.5H364.538V248.764C364.538 248.454 364.437 248.204 364.236 248.015C364.035 247.823 363.775 247.727 363.458 247.727C363.24 247.727 363.037 247.785 362.847 247.901C362.66 248.017 362.509 248.178 362.393 248.384C362.279 248.588 362.222 248.823 362.222 249.091V252.5H361.384ZM370.076 252.5V247.045H370.885V247.898H370.956C371.07 247.607 371.253 247.38 371.507 247.219C371.76 247.056 372.064 246.974 372.419 246.974C372.779 246.974 373.079 247.056 373.318 247.219C373.559 247.38 373.748 247.607 373.882 247.898H373.939C374.079 247.616 374.288 247.392 374.568 247.227C374.847 247.058 375.182 246.974 375.573 246.974C376.06 246.974 376.459 247.127 376.77 247.433C377.08 247.736 377.235 248.208 377.235 248.849V252.5H376.397V248.849C376.397 248.447 376.287 248.159 376.066 247.987C375.846 247.814 375.587 247.727 375.289 247.727C374.905 247.727 374.608 247.843 374.397 248.075C374.187 248.305 374.081 248.596 374.081 248.949V252.5H373.229V248.764C373.229 248.454 373.128 248.204 372.927 248.015C372.726 247.823 372.467 247.727 372.15 247.727C371.932 247.727 371.728 247.785 371.539 247.901C371.352 248.017 371.2 248.178 371.084 248.384C370.971 248.588 370.914 248.823 370.914 249.091V252.5H370.076Z" fill="var(--colors-neutral-neutral-700)"/>
</g>
<g clip-path="url(#clip5_5364_2094)">
<rect width="368" height="32" transform="translate(16 273)" fill="white"/>
<path d="M17.57 290.45V289.55H19.39C19.8367 289.55 20.1967 289.427 20.47 289.18C20.7433 288.933 20.88 288.61 20.88 288.21C20.88 287.823 20.7533 287.513 20.5 287.28C20.2467 287.04 19.91 286.92 19.49 286.92H17.57V286.02H19.49C19.9967 286.02 20.4367 286.11 20.81 286.29C21.1833 286.47 21.4733 286.723 21.68 287.05C21.8867 287.377 21.99 287.763 21.99 288.21C21.99 288.657 21.8833 289.05 21.67 289.39C21.4567 289.723 21.1533 289.983 20.76 290.17C20.3733 290.357 19.92 290.45 19.4 290.45H17.57ZM16.81 293V286.02H17.87V293H16.81ZM27.1939 293L27.1539 291.75V289.4C27.1539 289.007 27.0239 288.7 26.7639 288.48C26.5106 288.253 26.1606 288.14 25.7139 288.14C25.2806 288.14 24.9272 288.24 24.6539 288.44C24.3806 288.633 24.2306 288.903 24.2039 289.25H23.2139C23.2472 288.857 23.3739 288.523 23.5939 288.25C23.8139 287.97 24.1072 287.757 24.4739 287.61C24.8406 287.457 25.2639 287.38 25.7439 287.38C26.2372 287.38 26.6639 287.463 27.0239 287.63C27.3839 287.79 27.6606 288.023 27.8539 288.33C28.0539 288.637 28.1539 289.01 28.1539 289.45V293H27.1939ZM25.2039 293.12C24.8439 293.12 24.5272 293.057 24.2539 292.93C23.9806 292.797 23.7672 292.61 23.6139 292.37C23.4606 292.123 23.3839 291.837 23.3839 291.51C23.3839 290.943 23.6006 290.503 24.0339 290.19C24.4739 289.877 25.0872 289.72 25.8739 289.72H27.2839V290.47H25.8339C25.3806 290.47 25.0239 290.557 24.7639 290.73C24.5106 290.903 24.3839 291.147 24.3839 291.46C24.3839 291.72 24.4739 291.923 24.6539 292.07C24.8406 292.217 25.0906 292.29 25.4039 292.29C25.8039 292.29 26.1572 292.183 26.4639 291.97C26.7772 291.75 27.0306 291.45 27.2239 291.07L27.3339 291.81C27.1606 292.23 26.8939 292.553 26.5339 292.78C26.1739 293.007 25.7306 293.12 25.2039 293.12ZM33.7578 289.86V289.2C33.7578 288.913 33.6711 288.683 33.4978 288.51C33.3245 288.33 33.0745 288.24 32.7478 288.24C32.3345 288.24 31.9645 288.397 31.6378 288.71C31.3111 289.017 31.0511 289.487 30.8578 290.12L30.7178 289.1C30.8645 288.72 31.0411 288.403 31.2478 288.15C31.4611 287.897 31.7045 287.707 31.9778 287.58C32.2578 287.447 32.5645 287.38 32.8978 287.38C33.4511 287.38 33.9011 287.54 34.2478 287.86C34.5945 288.173 34.7678 288.62 34.7678 289.2V289.86H33.7578ZM30.0378 293V287.5H30.9878L31.0478 288.75V293H30.0378ZM36.1917 293V285.65H37.2017V288.4L37.1517 289.91L38.2117 288.84L39.7117 287.5H41.0517L37.2017 291V293H36.1917ZM39.9817 293L38.0517 289.63L38.9417 289.19L41.1617 293H39.9817ZM44.8156 293V287.5H45.8256V293H44.8156ZM42.7856 293V292.18H47.7156V293H42.7856ZM43.5156 288.32V287.5H45.3156V288.32H43.5156ZM44.7456 286.56V285.47H45.8756V286.56H44.7456ZM53.2495 293V289.53C53.2495 289.143 53.1395 288.833 52.9195 288.6C52.6995 288.36 52.4129 288.24 52.0595 288.24C51.6529 288.24 51.2895 288.39 50.9695 288.69C50.6562 288.983 50.4062 289.443 50.2195 290.07L50.0595 288.94C50.2662 288.42 50.5629 288.03 50.9495 287.77C51.3429 287.51 51.7695 287.38 52.2295 287.38C52.6429 287.38 52.9995 287.47 53.2995 287.65C53.6062 287.823 53.8429 288.067 54.0095 288.38C54.1762 288.693 54.2595 289.063 54.2595 289.49V293H53.2495ZM49.3295 293V287.5H50.2895L50.3395 288.74V293H49.3295ZM59.8034 288.29L59.8334 287.5H60.7834V292.4C60.7834 293.213 60.5634 293.833 60.1234 294.26C59.6901 294.687 59.0334 294.9 58.1534 294.9C57.6668 294.9 57.2434 294.833 56.8834 294.7C56.5301 294.567 56.2501 294.367 56.0434 294.1C55.8434 293.84 55.7301 293.513 55.7034 293.12H56.7534C56.7868 293.42 56.9201 293.65 57.1534 293.81C57.3934 293.977 57.7434 294.06 58.2034 294.06C58.7234 294.06 59.1134 293.927 59.3734 293.66C59.6401 293.393 59.7734 293.013 59.7734 292.52V291.79C59.5868 292.07 59.3368 292.29 59.0234 292.45C58.7168 292.61 58.3734 292.69 57.9934 292.69C57.5201 292.69 57.1001 292.577 56.7334 292.35C56.3734 292.123 56.0901 291.81 55.8834 291.41C55.6768 291.003 55.5734 290.547 55.5734 290.04C55.5734 289.493 55.6801 289.023 55.8934 288.63C56.1068 288.23 56.4001 287.923 56.7734 287.71C57.1468 287.49 57.5701 287.38 58.0434 287.38C58.4234 287.38 58.7668 287.463 59.0734 287.63C59.3801 287.797 59.6234 288.017 59.8034 288.29ZM58.2134 291.9C58.5734 291.9 58.8934 291.797 59.1734 291.59C59.4601 291.377 59.6601 291.09 59.7734 290.73V289.34C59.6601 288.98 59.4601 288.697 59.1734 288.49C58.8934 288.277 58.5734 288.17 58.2134 288.17C57.8868 288.17 57.6001 288.25 57.3534 288.41C57.1134 288.57 56.9234 288.79 56.7834 289.07C56.6501 289.343 56.5834 289.663 56.5834 290.03C56.5834 290.39 56.6501 290.713 56.7834 291C56.9234 291.28 57.1134 291.5 57.3534 291.66C57.6001 291.82 57.8868 291.9 58.2134 291.9ZM70.9913 287.38C71.3713 287.38 71.7179 287.457 72.0313 287.61C72.3446 287.757 72.5979 287.963 72.7913 288.23V285.65H73.7913V293H72.8413L72.8113 292.23C72.6179 292.497 72.3613 292.713 72.0413 292.88C71.7279 293.04 71.3779 293.12 70.9913 293.12C70.5046 293.12 70.0746 292.997 69.7013 292.75C69.3279 292.503 69.0346 292.163 68.8213 291.73C68.6146 291.297 68.5113 290.803 68.5113 290.25C68.5113 289.69 68.6146 289.193 68.8213 288.76C69.0346 288.327 69.3279 287.99 69.7013 287.75C70.0746 287.503 70.5046 287.38 70.9913 287.38ZM71.2113 292.27C71.5713 292.27 71.8913 292.17 72.1713 291.97C72.4513 291.763 72.6579 291.487 72.7913 291.14V289.35C72.6579 288.997 72.4513 288.723 72.1713 288.53C71.8913 288.33 71.5713 288.23 71.2113 288.23C70.8779 288.23 70.5846 288.317 70.3313 288.49C70.0779 288.657 69.8779 288.893 69.7313 289.2C69.5913 289.5 69.5213 289.85 69.5213 290.25C69.5213 290.643 69.5913 290.993 69.7313 291.3C69.8779 291.6 70.0779 291.837 70.3313 292.01C70.5846 292.183 70.8779 292.27 71.2113 292.27ZM77.3352 293V287.5H78.3452V293H77.3352ZM75.3052 293V292.18H80.2352V293H75.3052ZM76.0352 288.32V287.5H77.8352V288.32H76.0352ZM77.2652 286.56V285.47H78.3952V286.56H77.2652ZM85.7891 289.86V289.2C85.7891 288.913 85.7024 288.683 85.5291 288.51C85.3557 288.33 85.1057 288.24 84.7791 288.24C84.3657 288.24 83.9957 288.397 83.6691 288.71C83.3424 289.017 83.0824 289.487 82.8891 290.12L82.7491 289.1C82.8957 288.72 83.0724 288.403 83.2791 288.15C83.4924 287.897 83.7357 287.707 84.0091 287.58C84.2891 287.447 84.5957 287.38 84.9291 287.38C85.4824 287.38 85.9324 287.54 86.2791 287.86C86.6257 288.173 86.7991 288.62 86.7991 289.2V289.86H85.7891ZM82.0691 293V287.5H83.0191L83.0791 288.75V293H82.0691ZM90.853 293.12C90.2863 293.12 89.7963 293.007 89.383 292.78C88.9696 292.547 88.653 292.217 88.433 291.79C88.213 291.357 88.103 290.84 88.103 290.24C88.103 289.64 88.213 289.127 88.433 288.7C88.6596 288.273 88.9796 287.947 89.393 287.72C89.813 287.493 90.313 287.38 90.893 287.38C91.7796 287.38 92.4396 287.627 92.873 288.12C93.3063 288.607 93.4963 289.277 93.443 290.13H88.903L88.913 289.37L92.413 289.38C92.3863 289.027 92.233 288.743 91.953 288.53C91.673 288.317 91.3196 288.21 90.893 288.21C90.3196 288.21 89.8796 288.39 89.573 288.75C89.2663 289.11 89.113 289.62 89.113 290.28C89.113 290.673 89.1796 291.023 89.313 291.33C89.453 291.63 89.653 291.863 89.913 292.03C90.173 292.197 90.4863 292.28 90.853 292.28C91.2863 292.28 91.6463 292.177 91.933 291.97C92.2263 291.763 92.4063 291.483 92.473 291.13H93.483C93.3963 291.75 93.1196 292.237 92.653 292.59C92.1863 292.943 91.5863 293.12 90.853 293.12ZM97.4569 293.12C96.8902 293.12 96.3969 293.003 95.9769 292.77C95.5635 292.53 95.2435 292.197 95.0169 291.77C94.7902 291.337 94.6769 290.83 94.6769 290.25C94.6769 289.657 94.7935 289.147 95.0269 288.72C95.2602 288.287 95.5869 287.957 96.0069 287.73C96.4269 287.497 96.9169 287.38 97.4769 287.38C97.9235 287.38 98.3235 287.463 98.6769 287.63C99.0369 287.79 99.3269 288.02 99.5469 288.32C99.7735 288.62 99.9035 288.977 99.9369 289.39H98.9269C98.8735 289.017 98.7135 288.73 98.4469 288.53C98.1869 288.323 97.8635 288.22 97.4769 288.22C97.1169 288.22 96.8035 288.303 96.5369 288.47C96.2702 288.63 96.0635 288.86 95.9169 289.16C95.7702 289.46 95.6969 289.823 95.6969 290.25C95.6969 290.883 95.8569 291.38 96.1769 291.74C96.5035 292.1 96.9302 292.28 97.4569 292.28C97.6969 292.28 97.9202 292.233 98.1269 292.14C98.3335 292.047 98.5102 291.913 98.6569 291.74C98.8035 291.56 98.9035 291.353 98.9569 291.12H99.9769C99.9102 291.533 99.7569 291.89 99.5169 292.19C99.2835 292.483 98.9869 292.713 98.6269 292.88C98.2735 293.04 97.8835 293.12 97.4569 293.12ZM104.251 293C103.911 293 103.621 292.933 103.381 292.8C103.141 292.66 102.961 292.463 102.841 292.21C102.721 291.957 102.661 291.66 102.661 291.32V286.46L103.671 285.91V291.32C103.671 291.48 103.694 291.627 103.741 291.76C103.787 291.893 103.877 291.997 104.011 292.07C104.151 292.143 104.354 292.18 104.621 292.18H106.271V293H104.251ZM101.361 288.32V287.5H105.391V288.32H101.361ZM109.855 293V287.5H110.865V293H109.855ZM107.825 293V292.18H112.755V293H107.825ZM108.555 288.32V287.5H110.355V288.32H108.555ZM109.785 286.56V285.47H110.915V286.56H109.785ZM116.799 293.12C116.232 293.12 115.742 293.003 115.329 292.77C114.922 292.537 114.609 292.207 114.389 291.78C114.169 291.347 114.059 290.837 114.059 290.25C114.059 289.65 114.169 289.14 114.389 288.72C114.609 288.293 114.922 287.963 115.329 287.73C115.742 287.497 116.235 287.38 116.809 287.38C117.662 287.38 118.332 287.637 118.819 288.15C119.305 288.657 119.549 289.357 119.549 290.25C119.549 290.837 119.439 291.347 119.219 291.78C118.999 292.207 118.682 292.537 118.269 292.77C117.862 293.003 117.372 293.12 116.799 293.12ZM116.809 292.28C117.342 292.28 117.762 292.1 118.069 291.74C118.382 291.373 118.539 290.877 118.539 290.25C118.539 289.617 118.382 289.12 118.069 288.76C117.762 288.4 117.342 288.22 116.809 288.22C116.269 288.22 115.845 288.4 115.539 288.76C115.232 289.12 115.079 289.617 115.079 290.25C115.079 290.877 115.232 291.373 115.539 291.74C115.845 292.1 116.269 292.28 116.809 292.28ZM124.793 293V289.53C124.793 289.143 124.683 288.833 124.463 288.6C124.243 288.36 123.956 288.24 123.603 288.24C123.196 288.24 122.833 288.39 122.513 288.69C122.199 288.983 121.949 289.443 121.763 290.07L121.603 288.94C121.809 288.42 122.106 288.03 122.493 287.77C122.886 287.51 123.313 287.38 123.773 287.38C124.186 287.38 124.543 287.47 124.843 287.65C125.149 287.823 125.386 288.067 125.553 288.38C125.719 288.693 125.803 289.063 125.803 289.49V293H124.793ZM120.873 293V287.5H121.833L121.883 288.74V293H120.873Z" fill="var(--colors-neutral-neutral-800)"/>
<rect width="180" height="32" transform="translate(204 273)" fill="var(--colors-neutral-neutral-300)"/>
<path d="M213.057 293V284.273H218.29V285.21H214.114V288.159H217.898V289.097H214.114V293H213.057ZM222.142 293.136C221.551 293.136 221.033 292.996 220.587 292.714C220.143 292.433 219.797 292.04 219.547 291.534C219.3 291.028 219.176 290.437 219.176 289.761C219.176 289.08 219.3 288.484 219.547 287.976C219.797 287.467 220.143 287.072 220.587 286.791C221.033 286.51 221.551 286.369 222.142 286.369C222.733 286.369 223.25 286.51 223.693 286.791C224.139 287.072 224.486 287.467 224.733 287.976C224.983 288.484 225.108 289.08 225.108 289.761C225.108 290.437 224.983 291.028 224.733 291.534C224.486 292.04 224.139 292.433 223.693 292.714C223.25 292.996 222.733 293.136 222.142 293.136ZM222.142 292.233C222.591 292.233 222.96 292.118 223.25 291.888C223.54 291.658 223.754 291.355 223.893 290.98C224.033 290.605 224.102 290.199 224.102 289.761C224.102 289.324 224.033 288.916 223.893 288.538C223.754 288.161 223.54 287.855 223.25 287.622C222.96 287.389 222.591 287.273 222.142 287.273C221.693 287.273 221.324 287.389 221.034 287.622C220.744 287.855 220.53 288.161 220.391 288.538C220.251 288.916 220.182 289.324 220.182 289.761C220.182 290.199 220.251 290.605 220.391 290.98C220.53 291.355 220.744 291.658 221.034 291.888C221.324 292.118 221.693 292.233 222.142 292.233ZM226.643 293V286.455H227.615V287.443H227.683C227.802 287.119 228.018 286.857 228.331 286.655C228.643 286.453 228.995 286.352 229.387 286.352C229.461 286.352 229.554 286.354 229.664 286.357C229.775 286.359 229.859 286.364 229.916 286.369V287.392C229.882 287.384 229.804 287.371 229.681 287.354C229.562 287.334 229.436 287.324 229.302 287.324C228.984 287.324 228.7 287.391 228.45 287.524C228.203 287.655 228.007 287.837 227.862 288.07C227.72 288.3 227.649 288.562 227.649 288.858V293H226.643ZM232.696 293L230.702 286.455H231.759L233.174 291.466H233.242L234.64 286.455H235.713L237.094 291.449H237.162L238.577 286.455H239.634L237.64 293H236.651L235.219 287.972H235.117L233.685 293H232.696ZM242.89 293.153C242.475 293.153 242.098 293.075 241.76 292.919C241.422 292.76 241.154 292.531 240.955 292.233C240.756 291.932 240.657 291.568 240.657 291.142C240.657 290.767 240.73 290.463 240.878 290.23C241.026 289.994 241.223 289.81 241.471 289.676C241.718 289.543 241.99 289.443 242.289 289.378C242.59 289.31 242.892 289.256 243.196 289.216C243.594 289.165 243.917 289.126 244.164 289.101C244.414 289.072 244.596 289.026 244.709 288.96C244.826 288.895 244.884 288.781 244.884 288.619V288.585C244.884 288.165 244.769 287.838 244.539 287.605C244.311 287.372 243.966 287.256 243.503 287.256C243.023 287.256 242.647 287.361 242.374 287.571C242.101 287.781 241.909 288.006 241.799 288.244L240.844 287.903C241.015 287.506 241.242 287.196 241.526 286.974C241.813 286.75 242.125 286.594 242.463 286.506C242.804 286.415 243.14 286.369 243.469 286.369C243.679 286.369 243.921 286.395 244.194 286.446C244.469 286.494 244.735 286.595 244.99 286.749C245.249 286.902 245.463 287.134 245.634 287.443C245.804 287.753 245.89 288.168 245.89 288.688V293H244.884V292.114H244.833C244.765 292.256 244.651 292.408 244.492 292.57C244.333 292.732 244.121 292.869 243.857 292.983C243.593 293.097 243.27 293.153 242.89 293.153ZM243.043 292.25C243.441 292.25 243.776 292.172 244.049 292.016C244.324 291.859 244.532 291.658 244.671 291.411C244.813 291.163 244.884 290.903 244.884 290.631V289.71C244.841 289.761 244.748 289.808 244.603 289.851C244.461 289.891 244.296 289.926 244.108 289.957C243.924 289.986 243.743 290.011 243.567 290.034C243.394 290.054 243.253 290.071 243.145 290.085C242.884 290.119 242.64 290.175 242.412 290.251C242.188 290.325 242.006 290.437 241.867 290.588C241.73 290.736 241.662 290.937 241.662 291.193C241.662 291.543 241.792 291.807 242.05 291.986C242.311 292.162 242.642 292.25 243.043 292.25ZM247.725 293V286.455H248.697V287.443H248.765C248.884 287.119 249.1 286.857 249.413 286.655C249.725 286.453 250.077 286.352 250.469 286.352C250.543 286.352 250.636 286.354 250.746 286.357C250.857 286.359 250.941 286.364 250.998 286.369V287.392C250.964 287.384 250.886 287.371 250.763 287.354C250.644 287.334 250.518 287.324 250.384 287.324C250.066 287.324 249.782 287.391 249.532 287.524C249.285 287.655 249.089 287.837 248.944 288.07C248.802 288.3 248.731 288.562 248.731 288.858V293H247.725ZM254.462 293.136C253.917 293.136 253.435 292.999 253.018 292.723C252.6 292.445 252.273 292.053 252.038 291.547C251.802 291.038 251.684 290.438 251.684 289.744C251.684 289.057 251.802 288.46 252.038 287.955C252.273 287.449 252.602 287.058 253.022 286.783C253.442 286.507 253.928 286.369 254.479 286.369C254.906 286.369 255.242 286.44 255.489 286.582C255.739 286.722 255.93 286.881 256.06 287.06C256.194 287.236 256.298 287.381 256.371 287.494H256.457V284.273H257.462V293H256.491V291.994H256.371C256.298 292.114 256.192 292.264 256.056 292.446C255.92 292.625 255.725 292.786 255.472 292.928C255.219 293.067 254.883 293.136 254.462 293.136ZM254.599 292.233C255.002 292.233 255.343 292.128 255.621 291.918C255.9 291.705 256.112 291.411 256.256 291.036C256.401 290.658 256.474 290.222 256.474 289.727C256.474 289.239 256.403 288.811 256.261 288.445C256.119 288.075 255.908 287.788 255.63 287.584C255.352 287.376 255.008 287.273 254.599 287.273C254.173 287.273 253.817 287.382 253.533 287.601C253.252 287.817 253.04 288.111 252.898 288.483C252.759 288.852 252.69 289.267 252.69 289.727C252.69 290.193 252.761 290.616 252.903 290.997C253.048 291.375 253.261 291.676 253.542 291.901C253.826 292.122 254.178 292.233 254.599 292.233Z" fill="var(--colors-neutral-neutral-800)"/>
<path d="M372 291.308L368.192 287.5H375.808L372 291.308Z" fill="var(--colors-neutral-neutral-700)"/>
</g>
<defs>
<clipPath id="clip0_5364_2094">
<rect width="368" height="32" fill="white" transform="translate(16 73)"/>
</clipPath>
<clipPath id="clip1_5364_2094">
<rect width="368" height="32" fill="white" transform="translate(16 113)"/>
</clipPath>
<clipPath id="clip2_5364_2094">
<rect width="368" height="32" fill="white" transform="translate(16 153)"/>
</clipPath>
<clipPath id="clip3_5364_2094">
<rect width="368" height="32" fill="white" transform="translate(16 193)"/>
</clipPath>
<clipPath id="clip4_5364_2094">
<rect width="368" height="32" fill="white" transform="translate(16 233)"/>
</clipPath>
<clipPath id="clip5_5364_2094">
<rect width="368" height="32" fill="white" transform="translate(16 273)"/>
</clipPath>
</defs>
</svg>
