<svg width="372" height="140" viewBox="0 0 372 140" fill="none" xmlns="http://www.w3.org/2000/svg">
<g clip-path="url(#clip0_322_27)">
<path d="M135.512 109.562V37.1772H152.441V66.2311H180.044V37.1772H196.943V109.562H180.044V80.4726H152.441V109.562H135.512Z" fill="var(--colors-neutral-neutral-800)"/>
<path d="M214.773 48.934C212.526 48.9771 210.351 48.1072 208.72 46.5117C207.925 45.7793 207.286 44.881 206.851 43.8763C206.415 42.8716 206.19 41.7834 206.19 40.6821C206.19 39.5813 206.415 38.4929 206.851 37.4882C207.286 36.4835 207.925 35.5854 208.72 34.853C210.378 33.2942 212.539 32.4311 214.782 32.4311C217.024 32.4311 219.185 33.2942 220.844 34.853C221.634 35.5881 222.267 36.4871 222.703 37.4914C223.134 38.4957 223.359 39.5826 223.359 40.6821C223.359 41.7815 223.134 42.869 222.703 43.8733C222.267 44.8774 221.634 45.7765 220.844 46.5117C219.207 48.1126 217.028 48.9829 214.773 48.934ZM206.393 109.553V55.2735H223.116V109.562L206.393 109.553Z" fill="var(--colors-neutral-neutral-800)"/>
<path d="M283.531 55.2734L265.504 109.562H246.349L228.358 55.2734H245.963L255.646 92.6672H256.195L265.913 55.2734H283.531Z" fill="var(--colors-neutral-neutral-800)"/>
<path d="M336.556 86.5878V82.2743C336.623 78.2393 335.985 74.2224 334.668 70.4215C333.537 67.1634 331.739 64.1939 329.402 61.7109C327.134 59.3456 324.392 57.5231 321.368 56.371C318.08 55.1381 314.606 54.5288 311.106 54.5723C305.812 54.5723 301.216 55.7442 297.321 58.0875C293.452 60.397 290.306 63.807 288.258 67.9111C286.115 72.1172 285.04 77.0262 285.04 82.6382C285.04 88.4075 286.106 93.3907 288.239 97.5829C290.289 101.676 293.484 105.037 297.406 107.234C301.396 109.485 306.132 110.613 311.619 110.609C315.752 110.69 319.863 109.953 323.728 108.434C326.999 107.149 329.91 105.051 332.207 102.319C334.372 99.6677 335.818 96.4641 336.394 93.0446L321.04 92.5774C320.632 93.7411 319.966 94.7836 319.091 95.6193C318.192 96.4641 317.132 97.1066 315.977 97.4975C314.673 97.9334 313.312 98.149 311.941 98.131C310.009 98.1849 308.095 97.7087 306.398 96.7561C304.864 95.8484 303.615 94.5049 302.807 92.8828C301.926 91.0856 301.486 89.0905 301.526 87.0731V86.6148L336.556 86.5878ZM302.896 71.8338C303.754 70.369 304.968 69.1625 306.419 68.3338C307.947 67.4969 309.649 67.0529 311.38 67.0403C313.11 67.0278 314.817 67.4469 316.355 68.2615C317.756 69.0497 318.919 70.2166 319.728 71.6378C320.559 73.1305 320.996 74.8245 320.986 76.5498H301.535C301.598 74.8829 302.065 73.2608 302.896 71.8338Z" fill="var(--colors-neutral-neutral-800)"/>
<path d="M51.6394 140.291L-0.438965 109.665V37.2234L61.1561 1L122.762 37.2234V109.665L71.6856 139.703V81.7261H94.7194V64.1281H27.6027V81.7261H51.6394V140.291Z" fill="var(--colors-brand-brand-800)"/>
</g>
<defs>
<clipPath id="clip0_322_27">
<rect width="372" height="140" fill="white"/>
</clipPath>
</defs>
</svg>
