<svg width="551" height="198" viewBox="0 0 551 198" fill="none" xmlns="http://www.w3.org/2000/svg">
<rect x="255.5" width="40" height="16" rx="8" fill="#E6E6E6"/>
<path d="M268.31 4.22727V11.5H267.458L263.494 5.78977H263.423V11.5H262.543V4.22727H263.395L267.372 9.9517H267.443V4.22727H268.31ZM271.564 11.6278C271.218 11.6278 270.904 11.5627 270.623 11.4325C270.341 11.3 270.117 11.1094 269.951 10.8608C269.786 10.6098 269.703 10.3068 269.703 9.9517C269.703 9.6392 269.764 9.38589 269.887 9.19176C270.011 8.99527 270.175 8.84138 270.381 8.73011C270.587 8.61884 270.814 8.53598 271.063 8.48153C271.314 8.42472 271.566 8.37973 271.819 8.34659C272.151 8.30398 272.419 8.27202 272.625 8.25071C272.834 8.22704 272.985 8.18797 273.08 8.13352C273.177 8.07907 273.225 7.98437 273.225 7.84943V7.82102C273.225 7.47064 273.13 7.19839 272.938 7.00426C272.748 6.81013 272.461 6.71307 272.075 6.71307C271.675 6.71307 271.361 6.80066 271.134 6.97585C270.907 7.15104 270.747 7.33807 270.654 7.53693L269.859 7.25284C270.001 6.9214 270.19 6.66335 270.427 6.47869C270.666 6.29167 270.927 6.16146 271.208 6.08807C271.493 6.01231 271.772 5.97443 272.047 5.97443C272.222 5.97443 272.423 5.99574 272.65 6.03835C272.88 6.0786 273.101 6.16264 273.314 6.29048C273.53 6.41832 273.708 6.61127 273.85 6.86932C273.993 7.12737 274.064 7.47301 274.064 7.90625V11.5H273.225V10.7614H273.183C273.126 10.8797 273.031 11.0064 272.899 11.1413C272.766 11.2763 272.59 11.3911 272.37 11.4858C272.15 11.5805 271.881 11.6278 271.564 11.6278ZM271.691 10.875C272.023 10.875 272.302 10.8099 272.529 10.6797C272.759 10.5495 272.932 10.3814 273.048 10.1754C273.166 9.96946 273.225 9.75284 273.225 9.52557V8.75852C273.19 8.80114 273.112 8.8402 272.991 8.87571C272.873 8.90885 272.735 8.93845 272.579 8.96449C272.425 8.98816 272.275 9.00947 272.128 9.02841C271.984 9.04498 271.867 9.05919 271.777 9.07102C271.559 9.09943 271.355 9.1456 271.166 9.20952C270.979 9.27107 270.827 9.36458 270.711 9.49006C270.598 9.61316 270.541 9.78125 270.541 9.99432C270.541 10.2855 270.649 10.5057 270.864 10.6548C271.082 10.8016 271.358 10.875 271.691 10.875ZM275.593 11.5V6.04545H276.403V6.89773H276.474C276.588 6.60653 276.771 6.38045 277.024 6.21946C277.278 6.05611 277.582 5.97443 277.937 5.97443C278.297 5.97443 278.596 6.05611 278.835 6.21946C279.077 6.38045 279.265 6.60653 279.4 6.89773H279.457C279.597 6.616 279.806 6.39228 280.085 6.22656C280.365 6.05848 280.7 5.97443 281.09 5.97443C281.578 5.97443 281.977 6.12713 282.287 6.43253C282.597 6.73556 282.752 7.20786 282.752 7.84943V11.5H281.914V7.84943C281.914 7.44697 281.804 7.15933 281.584 6.98651C281.364 6.81368 281.105 6.72727 280.806 6.72727C280.423 6.72727 280.126 6.84328 279.915 7.07528C279.704 7.30492 279.599 7.59612 279.599 7.94886V11.5H278.747V7.7642C278.747 7.45407 278.646 7.20431 278.445 7.01491C278.244 6.82315 277.984 6.72727 277.667 6.72727C277.449 6.72727 277.246 6.78527 277.056 6.90128C276.869 7.01728 276.718 7.17827 276.602 7.38423C276.488 7.58783 276.431 7.82339 276.431 8.09091V11.5H275.593ZM286.572 11.6136C286.046 11.6136 285.593 11.4976 285.211 11.2656C284.833 11.0312 284.54 10.7045 284.334 10.2855C284.131 9.86411 284.029 9.37405 284.029 8.81534C284.029 8.25663 284.131 7.7642 284.334 7.33807C284.54 6.90956 284.827 6.57576 285.194 6.33665C285.563 6.09517 285.994 5.97443 286.486 5.97443C286.77 5.97443 287.051 6.02178 287.328 6.11648C287.605 6.21117 287.857 6.36506 288.084 6.57812C288.312 6.78883 288.493 7.06818 288.628 7.41619C288.763 7.7642 288.83 8.19271 288.83 8.7017V9.05682H284.626V8.33239H287.978C287.978 8.02462 287.916 7.75 287.793 7.50852C287.672 7.26705 287.5 7.07647 287.275 6.93679C287.052 6.79711 286.789 6.72727 286.486 6.72727C286.153 6.72727 285.864 6.81013 285.62 6.97585C285.378 7.1392 285.193 7.35227 285.062 7.61506C284.932 7.87784 284.867 8.15956 284.867 8.46023V8.94318C284.867 9.35511 284.938 9.70431 285.08 9.99077C285.224 10.2749 285.425 10.4915 285.68 10.6406C285.936 10.7874 286.233 10.8608 286.572 10.8608C286.792 10.8608 286.991 10.83 287.168 10.7685C287.348 10.7045 287.503 10.6098 287.633 10.4844C287.764 10.3565 287.864 10.1979 287.935 10.0085L288.745 10.2358C288.66 10.5104 288.516 10.7519 288.315 10.9602C288.114 11.1662 287.865 11.3272 287.569 11.4432C287.273 11.5568 286.941 11.6136 286.572 11.6136Z" fill="#222222"/>
<rect width="539" height="154" transform="translate(6 22)" fill="#B6DFFD"/>
<rect width="32" height="48" transform="translate(43.5 128)" fill="#A3C8E3"/>
<rect x="51.5" y="128" width="16" height="24" fill="#62B5EF"/>
<rect width="32" height="48" transform="translate(91.5 128)" fill="#A3C8E3"/>
<rect x="99.5" y="128" width="16" height="24" fill="#62B5EF"/>
<rect width="32" height="48" transform="translate(139.5 128)" fill="#A3C8E3"/>
<rect x="147.5" y="128" width="16" height="24" fill="#62B5EF"/>
<rect width="32" height="48" transform="translate(187.5 128)" fill="#A3C8E3"/>
<rect x="195.5" y="128" width="16" height="24" fill="#62B5EF"/>
<rect width="32" height="48" transform="translate(235.5 128)" fill="#A3C8E3"/>
<rect x="243.5" y="128" width="16" height="24" fill="#62B5EF"/>
<rect width="32" height="48" transform="translate(283.5 128)" fill="#A3C8E3"/>
<rect x="291.5" y="128" width="16" height="24" fill="#62B5EF"/>
<rect width="32" height="48" transform="translate(331.5 128)" fill="#A3C8E3"/>
<rect x="339.5" y="128" width="16" height="24" fill="#62B5EF"/>
<rect width="32" height="48" transform="translate(379.5 128)" fill="#A3C8E3"/>
<rect x="387.5" y="128" width="16" height="24" fill="#62B5EF"/>
<rect width="32" height="48" transform="translate(427.5 128)" fill="#A3C8E3"/>
<rect x="435.5" y="128" width="16" height="24" fill="#62B5EF"/>
<rect width="32" height="48" transform="translate(475.5 128)" fill="#A3C8E3"/>
<rect x="483.5" y="128" width="16" height="24" fill="#62B5EF"/>
<rect x="225" y="182" width="101" height="16" rx="8" fill="#E6E6E6"/>
<path d="M232.235 186.227L234.394 192.349H234.479L236.638 186.227H237.561L234.891 193.5H233.982L231.311 186.227H232.235ZM239.678 193.628C239.332 193.628 239.018 193.563 238.737 193.433C238.455 193.3 238.231 193.109 238.066 192.861C237.9 192.61 237.817 192.307 237.817 191.952C237.817 191.639 237.879 191.386 238.002 191.192C238.125 190.995 238.289 190.841 238.495 190.73C238.701 190.619 238.929 190.536 239.177 190.482C239.428 190.425 239.68 190.38 239.934 190.347C240.265 190.304 240.534 190.272 240.74 190.251C240.948 190.227 241.099 190.188 241.194 190.134C241.291 190.079 241.34 189.984 241.34 189.849V189.821C241.34 189.471 241.244 189.198 241.052 189.004C240.863 188.81 240.575 188.713 240.189 188.713C239.789 188.713 239.475 188.801 239.248 188.976C239.021 189.151 238.861 189.338 238.769 189.537L237.973 189.253C238.115 188.921 238.305 188.663 238.541 188.479C238.781 188.292 239.041 188.161 239.323 188.088C239.607 188.012 239.886 187.974 240.161 187.974C240.336 187.974 240.537 187.996 240.764 188.038C240.994 188.079 241.215 188.163 241.429 188.29C241.644 188.418 241.823 188.611 241.965 188.869C242.107 189.127 242.178 189.473 242.178 189.906V193.5H241.34V192.761H241.297C241.24 192.88 241.146 193.006 241.013 193.141C240.88 193.276 240.704 193.391 240.484 193.486C240.264 193.58 239.995 193.628 239.678 193.628ZM239.806 192.875C240.137 192.875 240.416 192.81 240.644 192.68C240.873 192.549 241.046 192.381 241.162 192.175C241.281 191.969 241.34 191.753 241.34 191.526V190.759C241.304 190.801 241.226 190.84 241.105 190.876C240.987 190.909 240.85 190.938 240.693 190.964C240.54 190.988 240.389 191.009 240.242 191.028C240.098 191.045 239.981 191.059 239.891 191.071C239.673 191.099 239.469 191.146 239.28 191.21C239.093 191.271 238.942 191.365 238.826 191.49C238.712 191.613 238.655 191.781 238.655 191.994C238.655 192.286 238.763 192.506 238.978 192.655C239.196 192.802 239.472 192.875 239.806 192.875ZM244.546 186.227V193.5H243.707V186.227H244.546ZM249.518 191.27V188.045H250.356V193.5H249.518V192.577H249.461C249.333 192.854 249.134 193.089 248.865 193.283C248.595 193.475 248.254 193.571 247.842 193.571C247.501 193.571 247.198 193.496 246.933 193.347C246.668 193.196 246.459 192.969 246.308 192.665C246.156 192.36 246.081 191.975 246.081 191.511V188.045H246.919V191.455C246.919 191.852 247.03 192.17 247.252 192.406C247.477 192.643 247.764 192.761 248.112 192.761C248.32 192.761 248.532 192.708 248.747 192.602C248.965 192.495 249.148 192.332 249.294 192.112C249.443 191.891 249.518 191.611 249.518 191.27ZM254.178 193.614C253.652 193.614 253.199 193.498 252.818 193.266C252.439 193.031 252.147 192.705 251.941 192.286C251.737 191.864 251.635 191.374 251.635 190.815C251.635 190.257 251.737 189.764 251.941 189.338C252.147 188.91 252.433 188.576 252.8 188.337C253.169 188.095 253.6 187.974 254.093 187.974C254.377 187.974 254.657 188.022 254.934 188.116C255.211 188.211 255.464 188.365 255.691 188.578C255.918 188.789 256.099 189.068 256.234 189.416C256.369 189.764 256.437 190.193 256.437 190.702V191.057H252.232V190.332H255.584C255.584 190.025 255.523 189.75 255.4 189.509C255.279 189.267 255.106 189.076 254.881 188.937C254.659 188.797 254.396 188.727 254.093 188.727C253.759 188.727 253.47 188.81 253.226 188.976C252.985 189.139 252.799 189.352 252.669 189.615C252.539 189.878 252.473 190.16 252.473 190.46V190.943C252.473 191.355 252.544 191.704 252.687 191.991C252.831 192.275 253.031 192.491 253.287 192.641C253.542 192.787 253.839 192.861 254.178 192.861C254.398 192.861 254.597 192.83 254.775 192.768C254.955 192.705 255.11 192.61 255.24 192.484C255.37 192.357 255.471 192.198 255.542 192.009L256.351 192.236C256.266 192.51 256.123 192.752 255.922 192.96C255.72 193.166 255.472 193.327 255.176 193.443C254.88 193.557 254.547 193.614 254.178 193.614Z" fill="#222222"/>
<path d="M262.2 193.154L261.846 192.8L264.646 190L261.846 187.2L262.2 186.846L265 189.646L267.8 186.846L268.154 187.2L265.354 190L268.154 192.8L267.8 193.154L265 190.354L262.2 193.154Z" fill="#222222"/>
<path d="M274.637 186.227L276.796 192.349H276.881L279.04 186.227H279.964L277.293 193.5H276.384L273.714 186.227H274.637ZM282.08 193.628C281.735 193.628 281.421 193.563 281.139 193.433C280.857 193.3 280.634 193.109 280.468 192.861C280.302 192.61 280.219 192.307 280.219 191.952C280.219 191.639 280.281 191.386 280.404 191.192C280.527 190.995 280.692 190.841 280.898 190.73C281.104 190.619 281.331 190.536 281.579 190.482C281.83 190.425 282.083 190.38 282.336 190.347C282.667 190.304 282.936 190.272 283.142 190.251C283.35 190.227 283.502 190.188 283.597 190.134C283.694 190.079 283.742 189.984 283.742 189.849V189.821C283.742 189.471 283.646 189.198 283.454 189.004C283.265 188.81 282.977 188.713 282.592 188.713C282.191 188.713 281.878 188.801 281.65 188.976C281.423 189.151 281.263 189.338 281.171 189.537L280.376 189.253C280.518 188.921 280.707 188.663 280.944 188.479C281.183 188.292 281.443 188.161 281.725 188.088C282.009 188.012 282.289 187.974 282.563 187.974C282.738 187.974 282.94 187.996 283.167 188.038C283.396 188.079 283.618 188.163 283.831 188.29C284.046 188.418 284.225 188.611 284.367 188.869C284.509 189.127 284.58 189.473 284.58 189.906V193.5H283.742V192.761H283.699C283.643 192.88 283.548 193.006 283.415 193.141C283.283 193.276 283.106 193.391 282.886 193.486C282.666 193.58 282.397 193.628 282.08 193.628ZM282.208 192.875C282.539 192.875 282.819 192.81 283.046 192.68C283.276 192.549 283.449 192.381 283.565 192.175C283.683 191.969 283.742 191.753 283.742 191.526V190.759C283.707 190.801 283.628 190.84 283.508 190.876C283.389 190.909 283.252 190.938 283.096 190.964C282.942 190.988 282.792 191.009 282.645 191.028C282.5 191.045 282.383 191.059 282.293 191.071C282.075 191.099 281.872 191.146 281.682 191.21C281.495 191.271 281.344 191.365 281.228 191.49C281.114 191.613 281.057 191.781 281.057 191.994C281.057 192.286 281.165 192.506 281.381 192.655C281.598 192.802 281.874 192.875 282.208 192.875ZM286.948 186.227V193.5H286.11V186.227H286.948ZM291.92 191.27V188.045H292.758V193.5H291.92V192.577H291.864C291.736 192.854 291.537 193.089 291.267 193.283C290.997 193.475 290.656 193.571 290.244 193.571C289.903 193.571 289.6 193.496 289.335 193.347C289.07 193.196 288.862 192.969 288.71 192.665C288.559 192.36 288.483 191.975 288.483 191.511V188.045H289.321V191.455C289.321 191.852 289.432 192.17 289.655 192.406C289.88 192.643 290.166 192.761 290.514 192.761C290.722 192.761 290.934 192.708 291.15 192.602C291.368 192.495 291.55 192.332 291.697 192.112C291.846 191.891 291.92 191.611 291.92 191.27ZM296.58 193.614C296.055 193.614 295.601 193.498 295.22 193.266C294.841 193.031 294.549 192.705 294.343 192.286C294.14 191.864 294.038 191.374 294.038 190.815C294.038 190.257 294.14 189.764 294.343 189.338C294.549 188.91 294.836 188.576 295.203 188.337C295.572 188.095 296.003 187.974 296.495 187.974C296.779 187.974 297.06 188.022 297.337 188.116C297.614 188.211 297.866 188.365 298.093 188.578C298.32 188.789 298.502 189.068 298.636 189.416C298.771 189.764 298.839 190.193 298.839 190.702V191.057H294.634V190.332H297.987C297.987 190.025 297.925 189.75 297.802 189.509C297.681 189.267 297.508 189.076 297.283 188.937C297.061 188.797 296.798 188.727 296.495 188.727C296.161 188.727 295.872 188.81 295.629 188.976C295.387 189.139 295.201 189.352 295.071 189.615C294.941 189.878 294.876 190.16 294.876 190.46V190.943C294.876 191.355 294.947 191.704 295.089 191.991C295.233 192.275 295.433 192.491 295.689 192.641C295.945 192.787 296.242 192.861 296.58 192.861C296.801 192.861 296.999 192.83 297.177 192.768C297.357 192.705 297.512 192.61 297.642 192.484C297.772 192.357 297.873 192.198 297.944 192.009L298.754 192.236C298.668 192.51 298.525 192.752 298.324 192.96C298.123 193.166 297.874 193.327 297.578 193.443C297.282 193.557 296.95 193.614 296.58 193.614ZM302.926 193.5V188.045H303.736V188.898H303.807C303.921 188.607 304.104 188.38 304.357 188.219C304.611 188.056 304.915 187.974 305.27 187.974C305.63 187.974 305.929 188.056 306.168 188.219C306.41 188.38 306.598 188.607 306.733 188.898H306.79C306.93 188.616 307.139 188.392 307.418 188.227C307.698 188.058 308.033 187.974 308.423 187.974C308.911 187.974 309.31 188.127 309.62 188.433C309.93 188.736 310.085 189.208 310.085 189.849V193.5H309.247V189.849C309.247 189.447 309.137 189.159 308.917 188.987C308.697 188.814 308.438 188.727 308.139 188.727C307.756 188.727 307.459 188.843 307.248 189.075C307.037 189.305 306.932 189.596 306.932 189.949V193.5H306.08V189.764C306.08 189.454 305.979 189.204 305.778 189.015C305.577 188.823 305.317 188.727 305 188.727C304.782 188.727 304.579 188.785 304.389 188.901C304.202 189.017 304.051 189.178 303.935 189.384C303.821 189.588 303.764 189.823 303.764 190.091V193.5H302.926ZM311.618 193.5V188.045H312.427V188.898H312.498C312.612 188.607 312.795 188.38 313.049 188.219C313.302 188.056 313.606 187.974 313.961 187.974C314.321 187.974 314.621 188.056 314.86 188.219C315.101 188.38 315.29 188.607 315.424 188.898H315.481C315.621 188.616 315.83 188.392 316.11 188.227C316.389 188.058 316.724 187.974 317.115 187.974C317.602 187.974 318.001 188.127 318.312 188.433C318.622 188.736 318.777 189.208 318.777 189.849V193.5H317.939V189.849C317.939 189.447 317.829 189.159 317.608 188.987C317.388 188.814 317.129 188.727 316.831 188.727C316.447 188.727 316.15 188.843 315.939 189.075C315.729 189.305 315.623 189.596 315.623 189.949V193.5H314.771V189.764C314.771 189.454 314.67 189.204 314.469 189.015C314.268 188.823 314.009 188.727 313.691 188.727C313.474 188.727 313.27 188.785 313.081 188.901C312.894 189.017 312.742 189.178 312.626 189.384C312.513 189.588 312.456 189.823 312.456 190.091V193.5H311.618Z" fill="#222222"/>
</svg>
