<svg width="551" height="194" viewBox="0 0 551 194" fill="none" xmlns="http://www.w3.org/2000/svg">
<rect x="255.5" width="40" height="16" rx="8" fill="#E6E6E6"/>
<path d="M268.31 4.22727V11.5H267.458L263.494 5.78977H263.423V11.5H262.543V4.22727H263.395L267.372 9.9517H267.443V4.22727H268.31ZM271.564 11.6278C271.218 11.6278 270.904 11.5627 270.623 11.4325C270.341 11.3 270.117 11.1094 269.951 10.8608C269.786 10.6098 269.703 10.3068 269.703 9.9517C269.703 9.6392 269.764 9.38589 269.887 9.19176C270.011 8.99527 270.175 8.84138 270.381 8.73011C270.587 8.61884 270.814 8.53598 271.063 8.48153C271.314 8.42472 271.566 8.37973 271.819 8.34659C272.151 8.30398 272.419 8.27202 272.625 8.25071C272.834 8.22704 272.985 8.18797 273.08 8.13352C273.177 8.07907 273.225 7.98437 273.225 7.84943V7.82102C273.225 7.47064 273.13 7.19839 272.938 7.00426C272.748 6.81013 272.461 6.71307 272.075 6.71307C271.675 6.71307 271.361 6.80066 271.134 6.97585C270.907 7.15104 270.747 7.33807 270.654 7.53693L269.859 7.25284C270.001 6.9214 270.19 6.66335 270.427 6.47869C270.666 6.29167 270.927 6.16146 271.208 6.08807C271.493 6.01231 271.772 5.97443 272.047 5.97443C272.222 5.97443 272.423 5.99574 272.65 6.03835C272.88 6.0786 273.101 6.16264 273.314 6.29048C273.53 6.41832 273.708 6.61127 273.85 6.86932C273.993 7.12737 274.064 7.47301 274.064 7.90625V11.5H273.225V10.7614H273.183C273.126 10.8797 273.031 11.0064 272.899 11.1413C272.766 11.2763 272.59 11.3911 272.37 11.4858C272.15 11.5805 271.881 11.6278 271.564 11.6278ZM271.691 10.875C272.023 10.875 272.302 10.8099 272.529 10.6797C272.759 10.5495 272.932 10.3814 273.048 10.1754C273.166 9.96946 273.225 9.75284 273.225 9.52557V8.75852C273.19 8.80114 273.112 8.8402 272.991 8.87571C272.873 8.90885 272.735 8.93845 272.579 8.96449C272.425 8.98816 272.275 9.00947 272.128 9.02841C271.984 9.04498 271.867 9.05919 271.777 9.07102C271.559 9.09943 271.355 9.1456 271.166 9.20952C270.979 9.27107 270.827 9.36458 270.711 9.49006C270.598 9.61316 270.541 9.78125 270.541 9.99432C270.541 10.2855 270.649 10.5057 270.864 10.6548C271.082 10.8016 271.358 10.875 271.691 10.875ZM275.593 11.5V6.04545H276.403V6.89773H276.474C276.588 6.60653 276.771 6.38045 277.024 6.21946C277.278 6.05611 277.582 5.97443 277.937 5.97443C278.297 5.97443 278.596 6.05611 278.835 6.21946C279.077 6.38045 279.265 6.60653 279.4 6.89773H279.457C279.597 6.616 279.806 6.39228 280.085 6.22656C280.365 6.05848 280.7 5.97443 281.09 5.97443C281.578 5.97443 281.977 6.12713 282.287 6.43253C282.597 6.73556 282.752 7.20786 282.752 7.84943V11.5H281.914V7.84943C281.914 7.44697 281.804 7.15933 281.584 6.98651C281.364 6.81368 281.105 6.72727 280.806 6.72727C280.423 6.72727 280.126 6.84328 279.915 7.07528C279.704 7.30492 279.599 7.59612 279.599 7.94886V11.5H278.747V7.7642C278.747 7.45407 278.646 7.20431 278.445 7.01491C278.244 6.82315 277.984 6.72727 277.667 6.72727C277.449 6.72727 277.246 6.78527 277.056 6.90128C276.869 7.01728 276.718 7.17827 276.602 7.38423C276.488 7.58783 276.431 7.82339 276.431 8.09091V11.5H275.593ZM286.572 11.6136C286.046 11.6136 285.593 11.4976 285.211 11.2656C284.833 11.0312 284.54 10.7045 284.334 10.2855C284.131 9.86411 284.029 9.37405 284.029 8.81534C284.029 8.25663 284.131 7.7642 284.334 7.33807C284.54 6.90956 284.827 6.57576 285.194 6.33665C285.563 6.09517 285.994 5.97443 286.486 5.97443C286.77 5.97443 287.051 6.02178 287.328 6.11648C287.605 6.21117 287.857 6.36506 288.084 6.57812C288.312 6.78883 288.493 7.06818 288.628 7.41619C288.763 7.7642 288.83 8.19271 288.83 8.7017V9.05682H284.626V8.33239H287.978C287.978 8.02462 287.916 7.75 287.793 7.50852C287.672 7.26705 287.5 7.07647 287.275 6.93679C287.052 6.79711 286.789 6.72727 286.486 6.72727C286.153 6.72727 285.864 6.81013 285.62 6.97585C285.378 7.1392 285.193 7.35227 285.062 7.61506C284.932 7.87784 284.867 8.15956 284.867 8.46023V8.94318C284.867 9.35511 284.938 9.70431 285.08 9.99077C285.224 10.2749 285.425 10.4915 285.68 10.6406C285.936 10.7874 286.233 10.8608 286.572 10.8608C286.792 10.8608 286.991 10.83 287.168 10.7685C287.348 10.7045 287.503 10.6098 287.633 10.4844C287.764 10.3565 287.864 10.1979 287.935 10.0085L288.745 10.2358C288.66 10.5104 288.516 10.7519 288.315 10.9602C288.114 11.1662 287.865 11.3272 287.569 11.4432C287.273 11.5568 286.941 11.6136 286.572 11.6136Z" fill="#222222"/>
<rect width="539" height="150" transform="matrix(-1 0 0 -1 545 172)" fill="#B6DFFD"/>
<g clip-path="url(#clip0_1844_9565)">
<rect width="32" height="48" transform="matrix(-1 0 0 -1 507.5 70)" fill="#A3C8E3"/>
<rect x="499.5" y="70" width="16" height="24" transform="rotate(-180 499.5 70)" fill="#62B5EF"/>
</g>
<g clip-path="url(#clip1_1844_9565)">
<rect width="32" height="48" transform="matrix(-1 0 0 -1 459.5 70)" fill="#A3C8E3"/>
<rect x="451.5" y="70" width="16" height="24" transform="rotate(-180 451.5 70)" fill="#62B5EF"/>
</g>
<g clip-path="url(#clip2_1844_9565)">
<rect width="32" height="48" transform="matrix(-1 0 0 -1 411.5 70)" fill="#A3C8E3"/>
<rect x="403.5" y="70" width="16" height="24" transform="rotate(-180 403.5 70)" fill="#62B5EF"/>
</g>
<g clip-path="url(#clip3_1844_9565)">
<rect width="32" height="48" transform="matrix(-1 0 0 -1 363.5 70)" fill="#A3C8E3"/>
<rect x="355.5" y="70" width="16" height="24" transform="rotate(-180 355.5 70)" fill="#62B5EF"/>
</g>
<g clip-path="url(#clip4_1844_9565)">
<rect width="32" height="48" transform="matrix(-1 0 0 -1 315.5 70)" fill="#A3C8E3"/>
<rect x="307.5" y="70" width="16" height="24" transform="rotate(-180 307.5 70)" fill="#62B5EF"/>
</g>
<g clip-path="url(#clip5_1844_9565)">
<rect width="32" height="48" transform="matrix(-1 0 0 -1 267.5 70)" fill="#A3C8E3"/>
<rect x="259.5" y="70" width="16" height="24" transform="rotate(-180 259.5 70)" fill="#62B5EF"/>
</g>
<g clip-path="url(#clip6_1844_9565)">
<rect width="32" height="48" transform="matrix(-1 0 0 -1 219.5 70)" fill="#A3C8E3"/>
<rect x="211.5" y="70" width="16" height="24" transform="rotate(-180 211.5 70)" fill="#62B5EF"/>
</g>
<g clip-path="url(#clip7_1844_9565)">
<rect width="32" height="48" transform="matrix(-1 0 0 -1 171.5 70)" fill="#A3C8E3"/>
<rect x="163.5" y="70" width="16" height="24" transform="rotate(-180 163.5 70)" fill="#62B5EF"/>
</g>
<g clip-path="url(#clip8_1844_9565)">
<rect width="32" height="48" transform="matrix(-1 0 0 -1 123.5 70)" fill="#A3C8E3"/>
<rect x="115.5" y="70" width="16" height="24" transform="rotate(-180 115.5 70)" fill="#62B5EF"/>
</g>
<g clip-path="url(#clip9_1844_9565)">
<rect width="32" height="48" transform="matrix(-1 0 0 -1 75.5 70)" fill="#A3C8E3"/>
<rect x="67.5" y="70" width="16" height="24" transform="rotate(-180 67.5 70)" fill="#62B5EF"/>
</g>
<rect x="225" y="178" width="101" height="16" rx="8" fill="#E6E6E6"/>
<path d="M232.235 182.227L234.394 188.349H234.479L236.638 182.227H237.561L234.891 189.5H233.982L231.311 182.227H232.235ZM239.678 189.628C239.332 189.628 239.018 189.563 238.737 189.433C238.455 189.3 238.231 189.109 238.066 188.861C237.9 188.61 237.817 188.307 237.817 187.952C237.817 187.639 237.879 187.386 238.002 187.192C238.125 186.995 238.289 186.841 238.495 186.73C238.701 186.619 238.929 186.536 239.177 186.482C239.428 186.425 239.68 186.38 239.934 186.347C240.265 186.304 240.534 186.272 240.74 186.251C240.948 186.227 241.099 186.188 241.194 186.134C241.291 186.079 241.34 185.984 241.34 185.849V185.821C241.34 185.471 241.244 185.198 241.052 185.004C240.863 184.81 240.575 184.713 240.189 184.713C239.789 184.713 239.475 184.801 239.248 184.976C239.021 185.151 238.861 185.338 238.769 185.537L237.973 185.253C238.115 184.921 238.305 184.663 238.541 184.479C238.781 184.292 239.041 184.161 239.323 184.088C239.607 184.012 239.886 183.974 240.161 183.974C240.336 183.974 240.537 183.996 240.764 184.038C240.994 184.079 241.215 184.163 241.429 184.29C241.644 184.418 241.823 184.611 241.965 184.869C242.107 185.127 242.178 185.473 242.178 185.906V189.5H241.34V188.761H241.297C241.24 188.88 241.146 189.006 241.013 189.141C240.88 189.276 240.704 189.391 240.484 189.486C240.264 189.58 239.995 189.628 239.678 189.628ZM239.806 188.875C240.137 188.875 240.416 188.81 240.644 188.68C240.873 188.549 241.046 188.381 241.162 188.175C241.281 187.969 241.34 187.753 241.34 187.526V186.759C241.304 186.801 241.226 186.84 241.105 186.876C240.987 186.909 240.85 186.938 240.693 186.964C240.54 186.988 240.389 187.009 240.242 187.028C240.098 187.045 239.981 187.059 239.891 187.071C239.673 187.099 239.469 187.146 239.28 187.21C239.093 187.271 238.942 187.365 238.826 187.49C238.712 187.613 238.655 187.781 238.655 187.994C238.655 188.286 238.763 188.506 238.978 188.655C239.196 188.802 239.472 188.875 239.806 188.875ZM244.546 182.227V189.5H243.707V182.227H244.546ZM249.518 187.27V184.045H250.356V189.5H249.518V188.577H249.461C249.333 188.854 249.134 189.089 248.865 189.283C248.595 189.475 248.254 189.571 247.842 189.571C247.501 189.571 247.198 189.496 246.933 189.347C246.668 189.196 246.459 188.969 246.308 188.665C246.156 188.36 246.081 187.975 246.081 187.511V184.045H246.919V187.455C246.919 187.852 247.03 188.17 247.252 188.406C247.477 188.643 247.764 188.761 248.112 188.761C248.32 188.761 248.532 188.708 248.747 188.602C248.965 188.495 249.148 188.332 249.294 188.112C249.443 187.891 249.518 187.611 249.518 187.27ZM254.178 189.614C253.652 189.614 253.199 189.498 252.818 189.266C252.439 189.031 252.147 188.705 251.941 188.286C251.737 187.864 251.635 187.374 251.635 186.815C251.635 186.257 251.737 185.764 251.941 185.338C252.147 184.91 252.433 184.576 252.8 184.337C253.169 184.095 253.6 183.974 254.093 183.974C254.377 183.974 254.657 184.022 254.934 184.116C255.211 184.211 255.464 184.365 255.691 184.578C255.918 184.789 256.099 185.068 256.234 185.416C256.369 185.764 256.437 186.193 256.437 186.702V187.057H252.232V186.332H255.584C255.584 186.025 255.523 185.75 255.4 185.509C255.279 185.267 255.106 185.076 254.881 184.937C254.659 184.797 254.396 184.727 254.093 184.727C253.759 184.727 253.47 184.81 253.226 184.976C252.985 185.139 252.799 185.352 252.669 185.615C252.539 185.878 252.473 186.16 252.473 186.46V186.943C252.473 187.355 252.544 187.704 252.687 187.991C252.831 188.275 253.031 188.491 253.287 188.641C253.542 188.787 253.839 188.861 254.178 188.861C254.398 188.861 254.597 188.83 254.775 188.768C254.955 188.705 255.11 188.61 255.24 188.484C255.37 188.357 255.471 188.198 255.542 188.009L256.351 188.236C256.266 188.51 256.123 188.752 255.922 188.96C255.72 189.166 255.472 189.327 255.176 189.443C254.88 189.557 254.547 189.614 254.178 189.614Z" fill="#222222"/>
<path d="M262.2 189.154L261.846 188.8L264.646 186L261.846 183.2L262.2 182.846L265 185.646L267.8 182.846L268.154 183.2L265.354 186L268.154 188.8L267.8 189.154L265 186.354L262.2 189.154Z" fill="#222222"/>
<path d="M274.637 182.227L276.796 188.349H276.881L279.04 182.227H279.964L277.293 189.5H276.384L273.714 182.227H274.637ZM282.08 189.628C281.735 189.628 281.421 189.563 281.139 189.433C280.857 189.3 280.634 189.109 280.468 188.861C280.302 188.61 280.219 188.307 280.219 187.952C280.219 187.639 280.281 187.386 280.404 187.192C280.527 186.995 280.692 186.841 280.898 186.73C281.104 186.619 281.331 186.536 281.579 186.482C281.83 186.425 282.083 186.38 282.336 186.347C282.667 186.304 282.936 186.272 283.142 186.251C283.35 186.227 283.502 186.188 283.597 186.134C283.694 186.079 283.742 185.984 283.742 185.849V185.821C283.742 185.471 283.646 185.198 283.454 185.004C283.265 184.81 282.977 184.713 282.592 184.713C282.191 184.713 281.878 184.801 281.65 184.976C281.423 185.151 281.263 185.338 281.171 185.537L280.376 185.253C280.518 184.921 280.707 184.663 280.944 184.479C281.183 184.292 281.443 184.161 281.725 184.088C282.009 184.012 282.289 183.974 282.563 183.974C282.738 183.974 282.94 183.996 283.167 184.038C283.396 184.079 283.618 184.163 283.831 184.29C284.046 184.418 284.225 184.611 284.367 184.869C284.509 185.127 284.58 185.473 284.58 185.906V189.5H283.742V188.761H283.699C283.643 188.88 283.548 189.006 283.415 189.141C283.283 189.276 283.106 189.391 282.886 189.486C282.666 189.58 282.397 189.628 282.08 189.628ZM282.208 188.875C282.539 188.875 282.819 188.81 283.046 188.68C283.276 188.549 283.449 188.381 283.565 188.175C283.683 187.969 283.742 187.753 283.742 187.526V186.759C283.707 186.801 283.628 186.84 283.508 186.876C283.389 186.909 283.252 186.938 283.096 186.964C282.942 186.988 282.792 187.009 282.645 187.028C282.5 187.045 282.383 187.059 282.293 187.071C282.075 187.099 281.872 187.146 281.682 187.21C281.495 187.271 281.344 187.365 281.228 187.49C281.114 187.613 281.057 187.781 281.057 187.994C281.057 188.286 281.165 188.506 281.381 188.655C281.598 188.802 281.874 188.875 282.208 188.875ZM286.948 182.227V189.5H286.11V182.227H286.948ZM291.92 187.27V184.045H292.758V189.5H291.92V188.577H291.864C291.736 188.854 291.537 189.089 291.267 189.283C290.997 189.475 290.656 189.571 290.244 189.571C289.903 189.571 289.6 189.496 289.335 189.347C289.07 189.196 288.862 188.969 288.71 188.665C288.559 188.36 288.483 187.975 288.483 187.511V184.045H289.321V187.455C289.321 187.852 289.432 188.17 289.655 188.406C289.88 188.643 290.166 188.761 290.514 188.761C290.722 188.761 290.934 188.708 291.15 188.602C291.368 188.495 291.55 188.332 291.697 188.112C291.846 187.891 291.92 187.611 291.92 187.27ZM296.58 189.614C296.055 189.614 295.601 189.498 295.22 189.266C294.841 189.031 294.549 188.705 294.343 188.286C294.14 187.864 294.038 187.374 294.038 186.815C294.038 186.257 294.14 185.764 294.343 185.338C294.549 184.91 294.836 184.576 295.203 184.337C295.572 184.095 296.003 183.974 296.495 183.974C296.779 183.974 297.06 184.022 297.337 184.116C297.614 184.211 297.866 184.365 298.093 184.578C298.32 184.789 298.502 185.068 298.636 185.416C298.771 185.764 298.839 186.193 298.839 186.702V187.057H294.634V186.332H297.987C297.987 186.025 297.925 185.75 297.802 185.509C297.681 185.267 297.508 185.076 297.283 184.937C297.061 184.797 296.798 184.727 296.495 184.727C296.161 184.727 295.872 184.81 295.629 184.976C295.387 185.139 295.201 185.352 295.071 185.615C294.941 185.878 294.876 186.16 294.876 186.46V186.943C294.876 187.355 294.947 187.704 295.089 187.991C295.233 188.275 295.433 188.491 295.689 188.641C295.945 188.787 296.242 188.861 296.58 188.861C296.801 188.861 296.999 188.83 297.177 188.768C297.357 188.705 297.512 188.61 297.642 188.484C297.772 188.357 297.873 188.198 297.944 188.009L298.754 188.236C298.668 188.51 298.525 188.752 298.324 188.96C298.123 189.166 297.874 189.327 297.578 189.443C297.282 189.557 296.95 189.614 296.58 189.614ZM302.926 189.5V184.045H303.736V184.898H303.807C303.921 184.607 304.104 184.38 304.357 184.219C304.611 184.056 304.915 183.974 305.27 183.974C305.63 183.974 305.929 184.056 306.168 184.219C306.41 184.38 306.598 184.607 306.733 184.898H306.79C306.93 184.616 307.139 184.392 307.418 184.227C307.698 184.058 308.033 183.974 308.423 183.974C308.911 183.974 309.31 184.127 309.62 184.433C309.93 184.736 310.085 185.208 310.085 185.849V189.5H309.247V185.849C309.247 185.447 309.137 185.159 308.917 184.987C308.697 184.814 308.438 184.727 308.139 184.727C307.756 184.727 307.459 184.843 307.248 185.075C307.037 185.305 306.932 185.596 306.932 185.949V189.5H306.08V185.764C306.08 185.454 305.979 185.204 305.778 185.015C305.577 184.823 305.317 184.727 305 184.727C304.782 184.727 304.579 184.785 304.389 184.901C304.202 185.017 304.051 185.178 303.935 185.384C303.821 185.588 303.764 185.823 303.764 186.091V189.5H302.926ZM311.618 189.5V184.045H312.427V184.898H312.498C312.612 184.607 312.795 184.38 313.049 184.219C313.302 184.056 313.606 183.974 313.961 183.974C314.321 183.974 314.621 184.056 314.86 184.219C315.101 184.38 315.29 184.607 315.424 184.898H315.481C315.621 184.616 315.83 184.392 316.11 184.227C316.389 184.058 316.724 183.974 317.115 183.974C317.602 183.974 318.001 184.127 318.312 184.433C318.622 184.736 318.777 185.208 318.777 185.849V189.5H317.939V185.849C317.939 185.447 317.829 185.159 317.608 184.987C317.388 184.814 317.129 184.727 316.831 184.727C316.447 184.727 316.15 184.843 315.939 185.075C315.729 185.305 315.623 185.596 315.623 185.949V189.5H314.771V185.764C314.771 185.454 314.67 185.204 314.469 185.015C314.268 184.823 314.009 184.727 313.691 184.727C313.474 184.727 313.27 184.785 313.081 184.901C312.894 185.017 312.742 185.178 312.626 185.384C312.513 185.588 312.456 185.823 312.456 186.091V189.5H311.618Z" fill="#222222"/>
<defs>
<clipPath id="clip0_1844_9565">
<rect width="32" height="48" fill="white" transform="matrix(-1 0 0 -1 507.5 70)"/>
</clipPath>
<clipPath id="clip1_1844_9565">
<rect width="32" height="48" fill="white" transform="matrix(-1 0 0 -1 459.5 70)"/>
</clipPath>
<clipPath id="clip2_1844_9565">
<rect width="32" height="48" fill="white" transform="matrix(-1 0 0 -1 411.5 70)"/>
</clipPath>
<clipPath id="clip3_1844_9565">
<rect width="32" height="48" fill="white" transform="matrix(-1 0 0 -1 363.5 70)"/>
</clipPath>
<clipPath id="clip4_1844_9565">
<rect width="32" height="48" fill="white" transform="matrix(-1 0 0 -1 315.5 70)"/>
</clipPath>
<clipPath id="clip5_1844_9565">
<rect width="32" height="48" fill="white" transform="matrix(-1 0 0 -1 267.5 70)"/>
</clipPath>
<clipPath id="clip6_1844_9565">
<rect width="32" height="48" fill="white" transform="matrix(-1 0 0 -1 219.5 70)"/>
</clipPath>
<clipPath id="clip7_1844_9565">
<rect width="32" height="48" fill="white" transform="matrix(-1 0 0 -1 171.5 70)"/>
</clipPath>
<clipPath id="clip8_1844_9565">
<rect width="32" height="48" fill="white" transform="matrix(-1 0 0 -1 123.5 70)"/>
</clipPath>
<clipPath id="clip9_1844_9565">
<rect width="32" height="48" fill="white" transform="matrix(-1 0 0 -1 75.5 70)"/>
</clipPath>
</defs>
</svg>
