<svg width="288" height="24" viewBox="0 0 288 24" fill="none" xmlns="http://www.w3.org/2000/svg">
<path d="M7.71429 18.8571V5.14282H12.8572C14.033 5.14282 15.0412 5.56315 15.8819 6.40381C16.7225 7.24447 17.1429 8.25271 17.1429 9.42854C17.1429 10.6044 16.7225 11.6126 15.8819 12.4533C15.0412 13.2939 14.033 13.7143 12.8572 13.7143H9.42858V18.8571H7.71429ZM9.42858 12H12.8967C13.6039 12 14.2092 11.7482 14.7128 11.2446C15.2164 10.741 15.4681 10.1357 15.4681 9.42854C15.4681 8.72139 15.2164 8.11604 14.7128 7.61247C14.2092 7.10889 13.6039 6.85711 12.8967 6.85711H9.42858V12Z" fill="var(--colors-neutral-neutral-800)"/>
<path d="M42.7572 17.3143L47.1929 12H43.7643L44.3857 7.13573L40.4214 12.8572H43.4L42.7572 17.3143ZM41.5605 19.6154L42.4176 13.7143H38.7747L45.1868 4.46704H45.5824L44.7418 11.1429H49.0275L41.956 19.6154H41.5605Z" fill="var(--colors-neutral-neutral-800)"/>
<path d="M72.9143 15.6925L76 12.6068L79.0857 15.6925L79.6923 15.0859L76.6066 12.0002L79.6923 8.91446L79.0857 8.30786L76 11.3936L72.9143 8.30786L72.3077 8.91446L75.3934 12.0002L72.3077 15.0859L72.9143 15.6925ZM76.0029 19.7145C74.9361 19.7145 73.9332 19.512 72.9941 19.1072C72.055 18.7023 71.2381 18.1529 70.5434 17.4589C69.8488 16.7648 69.2988 15.9487 68.8936 15.0105C68.4884 14.0723 68.2857 13.0698 68.2857 12.003C68.2857 10.9363 68.4882 9.93336 68.893 8.99426C69.2979 8.05516 69.8473 7.23827 70.5413 6.54358C71.2354 5.84891 72.0515 5.29896 72.9897 4.89373C73.9279 4.4885 74.9304 4.28589 75.9972 4.28589C77.0639 4.28589 78.0668 4.48831 79.0059 4.89315C79.945 5.29801 80.7619 5.84745 81.4566 6.54148C82.1513 7.23551 82.7012 8.05163 83.1065 8.98985C83.5117 9.92807 83.7143 10.9306 83.7143 11.9973C83.7143 13.0641 83.5119 14.067 83.107 15.0061C82.7022 15.9452 82.1527 16.7621 81.4587 17.4568C80.7647 18.1514 79.9486 18.7014 79.0104 19.1066C78.0721 19.5118 77.0696 19.7145 76.0029 19.7145ZM76 18.8573C77.9143 18.8573 79.5357 18.193 80.8643 16.8645C82.1929 15.5359 82.8572 13.9145 82.8572 12.0002C82.8572 10.0859 82.1929 8.46446 80.8643 7.13589C79.5357 5.80732 77.9143 5.14303 76 5.14303C74.0857 5.14303 72.4643 5.80732 71.1357 7.13589C69.8072 8.46446 69.1429 10.0859 69.1429 12.0002C69.1429 13.9145 69.8072 15.5359 71.1357 16.8645C72.4643 18.193 74.0857 18.8573 76 18.8573Z" fill="var(--colors-neutral-neutral-800)"/>
<path d="M104.143 12.4287H111.857V11.5716H104.143V12.4287ZM108.003 19.7145C106.936 19.7145 105.933 19.512 104.994 19.1072C104.055 18.7023 103.238 18.1529 102.543 17.4589C101.849 16.7649 101.299 15.9487 100.894 15.0105C100.488 14.0723 100.286 13.0698 100.286 12.003C100.286 10.9362 100.488 9.93332 100.893 8.99417C101.298 8.05517 101.847 7.23832 102.541 6.5436C103.235 5.84889 104.051 5.29896 104.99 4.89382C105.928 4.48853 106.93 4.28589 107.997 4.28589C109.064 4.28589 110.067 4.48832 111.006 4.89318C111.945 5.29803 112.762 5.84746 113.457 6.54146C114.151 7.23546 114.701 8.0516 115.106 8.98989C115.512 9.92803 115.714 10.9305 115.714 11.9974C115.714 13.0641 115.512 14.067 115.107 15.0062C114.702 15.9452 114.153 16.762 113.459 17.4567C112.765 18.1515 111.949 18.7014 111.01 19.1065C110.072 19.5118 109.07 19.7145 108.003 19.7145ZM108 18.8573C109.914 18.8573 111.536 18.193 112.864 16.8645C114.193 15.5359 114.857 13.9145 114.857 12.0002C114.857 10.0859 114.193 8.46446 112.864 7.13589C111.536 5.80732 109.914 5.14303 108 5.14303C106.086 5.14303 104.464 5.80732 103.136 7.13589C101.807 8.46446 101.143 10.0859 101.143 12.0002C101.143 13.9145 101.807 15.5359 103.136 16.8645C104.464 18.193 106.086 18.8573 108 18.8573Z" fill="var(--colors-neutral-neutral-800)"/>
<path d="M138.767 15.3496L144.249 9.86722L143.643 9.26062L138.767 14.1364L136.324 11.6936L135.718 12.3002L138.767 15.3496ZM140.003 19.7145C138.936 19.7145 137.933 19.512 136.994 19.1072C136.055 18.7023 135.238 18.1529 134.543 17.4589C133.849 16.7648 133.299 15.9487 132.894 15.0105C132.488 14.0723 132.286 13.0698 132.286 12.003C132.286 10.9363 132.488 9.93336 132.893 8.99426C133.298 8.05516 133.847 7.23827 134.541 6.54358C135.235 5.84891 136.051 5.29896 136.99 4.89373C137.928 4.4885 138.93 4.28589 139.997 4.28589C141.064 4.28589 142.067 4.48831 143.006 4.89315C143.945 5.29801 144.762 5.84745 145.457 6.54148C146.151 7.23551 146.701 8.05163 147.106 8.98985C147.512 9.92807 147.714 10.9306 147.714 11.9973C147.714 13.0641 147.512 14.067 147.107 15.0061C146.702 15.9452 146.153 16.7621 145.459 17.4568C144.765 18.1514 143.949 18.7014 143.01 19.1066C142.072 19.5118 141.07 19.7145 140.003 19.7145ZM140 18.8573C141.914 18.8573 143.536 18.193 144.864 16.8645C146.193 15.5359 146.857 13.9145 146.857 12.0002C146.857 10.0859 146.193 8.46446 144.864 7.13589C143.536 5.80732 141.914 5.14303 140 5.14303C138.086 5.14303 136.464 5.80732 135.136 7.13589C133.807 8.46446 133.143 10.0859 133.143 12.0002C133.143 13.9145 133.807 15.5359 135.136 16.8645C136.464 18.193 138.086 18.8573 140 18.8573Z" fill="var(--colors-neutral-neutral-800)"/>
<path d="M282.407 18.9857L277.05 13.6285C276.621 13.9857 276.129 14.2642 275.571 14.4642C275.014 14.6642 274.457 14.7642 273.9 14.7642C272.514 14.7642 271.347 14.2891 270.397 13.3388C269.447 12.3891 268.971 11.2285 268.971 9.85709C268.971 8.48567 269.447 7.32481 270.397 6.37452C271.347 5.42481 272.507 4.94995 273.879 4.94995C275.25 4.94995 276.414 5.42481 277.371 6.37452C278.329 7.32481 278.807 8.48567 278.807 9.85709C278.807 10.4571 278.7 11.0357 278.486 11.5928C278.271 12.15 277.993 12.6214 277.65 13.0071L283.029 18.3857L282.407 18.9857ZM273.9 13.9071C275.029 13.9071 275.986 13.518 276.771 12.7397C277.557 11.9608 277.95 11 277.95 9.85709C277.95 8.71424 277.557 7.75338 276.771 6.97452C275.986 6.19624 275.029 5.80709 273.9 5.80709C272.757 5.80709 271.793 6.19624 271.007 6.97452C270.221 7.75338 269.829 8.71424 269.829 9.85709C269.829 11 270.221 11.9608 271.007 12.7397C271.793 13.518 272.757 13.9071 273.9 13.9071Z" fill="var(--colors-neutral-neutral-800)"/>
</svg>
