<svg width="362" height="83" viewBox="0 0 362 83" fill="none" xmlns="http://www.w3.org/2000/svg">
<path d="M1.40909 15V3.36364H5.34091C6.25379 3.36364 7 3.52841 7.57955 3.85795C8.16288 4.18371 8.5947 4.625 8.875 5.18182C9.1553 5.73864 9.29545 6.35985 9.29545 7.04545C9.29545 7.73106 9.1553 8.35417 8.875 8.91477C8.59849 9.47538 8.17046 9.92235 7.59091 10.2557C7.01136 10.5852 6.26894 10.75 5.36364 10.75H2.54545V9.5H5.31818C5.94318 9.5 6.44508 9.39205 6.82386 9.17614C7.20265 8.96023 7.47727 8.66856 7.64773 8.30114C7.82197 7.92992 7.90909 7.51136 7.90909 7.04545C7.90909 6.57955 7.82197 6.16288 7.64773 5.79545C7.47727 5.42803 7.20076 5.14015 6.81818 4.93182C6.43561 4.7197 5.92803 4.61364 5.29545 4.61364H2.81818V15H1.40909ZM13.9517 15.2045C13.3987 15.2045 12.8968 15.1004 12.446 14.892C11.9953 14.6799 11.6373 14.375 11.3722 13.9773C11.107 13.5758 10.9744 13.0909 10.9744 12.5227C10.9744 12.0227 11.0729 11.6174 11.2699 11.3068C11.4669 10.9924 11.7301 10.7462 12.0597 10.5682C12.3892 10.3902 12.7528 10.2576 13.1506 10.1705C13.5521 10.0795 13.9555 10.0076 14.3608 9.95455C14.8911 9.88636 15.321 9.83523 15.6506 9.80114C15.9839 9.76326 16.2263 9.70076 16.3778 9.61364C16.5331 9.52652 16.6108 9.375 16.6108 9.15909V9.11364C16.6108 8.55303 16.4574 8.11742 16.1506 7.80682C15.8475 7.49621 15.3873 7.34091 14.7699 7.34091C14.1297 7.34091 13.6278 7.48106 13.2642 7.76136C12.9006 8.04167 12.6449 8.34091 12.4972 8.65909L11.2244 8.20455C11.4517 7.67424 11.7547 7.26136 12.1335 6.96591C12.5161 6.66667 12.9328 6.45833 13.3835 6.34091C13.8381 6.2197 14.285 6.15909 14.7244 6.15909C15.0047 6.15909 15.3267 6.19318 15.6903 6.26136C16.0578 6.32576 16.4119 6.46023 16.7528 6.66477C17.0975 6.86932 17.3835 7.17803 17.6108 7.59091C17.8381 8.00379 17.9517 8.55682 17.9517 9.25V15H16.6108V13.8182H16.5426C16.4517 14.0076 16.3002 14.2102 16.0881 14.4261C15.8759 14.642 15.5938 14.8258 15.2415 14.9773C14.8892 15.1288 14.4593 15.2045 13.9517 15.2045ZM14.1562 14C14.6866 14 15.1335 13.8958 15.4972 13.6875C15.8646 13.4792 16.1411 13.2102 16.3267 12.8807C16.5161 12.5511 16.6108 12.2045 16.6108 11.8409V10.6136C16.554 10.6818 16.429 10.7443 16.2358 10.8011C16.0464 10.8542 15.8267 10.9015 15.5767 10.9432C15.3305 10.9811 15.09 11.0152 14.8551 11.0455C14.6241 11.072 14.4366 11.0947 14.2926 11.1136C13.9441 11.1591 13.6184 11.233 13.3153 11.3352C13.0161 11.4337 12.7737 11.5833 12.5881 11.7841C12.4063 11.9811 12.3153 12.25 12.3153 12.5909C12.3153 13.0568 12.4877 13.4091 12.8324 13.6477C13.1809 13.8826 13.6222 14 14.1562 14ZM26.581 8.22727L25.3764 8.56818C25.3007 8.36742 25.1889 8.17235 25.0412 7.98295C24.8973 7.78977 24.7003 7.63068 24.4503 7.50568C24.2003 7.38068 23.8802 7.31818 23.4901 7.31818C22.956 7.31818 22.5109 7.44129 22.1548 7.6875C21.8026 7.92992 21.6264 8.23864 21.6264 8.61364C21.6264 8.94697 21.7476 9.21023 21.9901 9.40341C22.2325 9.59659 22.6113 9.75758 23.1264 9.88636L24.4219 10.2045C25.2022 10.3939 25.7836 10.6837 26.1662 11.0739C26.5488 11.4602 26.7401 11.9583 26.7401 12.5682C26.7401 13.0682 26.5961 13.5152 26.3082 13.9091C26.0241 14.303 25.6264 14.6136 25.1151 14.8409C24.6037 15.0682 24.009 15.1818 23.331 15.1818C22.4408 15.1818 21.7041 14.9886 21.1207 14.6023C20.5374 14.2159 20.1681 13.6515 20.0128 12.9091L21.2855 12.5909C21.4067 13.0606 21.6359 13.4129 21.973 13.6477C22.3139 13.8826 22.759 14 23.3082 14C23.9332 14 24.4295 13.8674 24.7969 13.6023C25.1681 13.3333 25.3537 13.0114 25.3537 12.6364C25.3537 12.3333 25.2476 12.0795 25.0355 11.875C24.8234 11.6667 24.4976 11.5114 24.0582 11.4091L22.6037 11.0682C21.8045 10.8788 21.2173 10.5852 20.8423 10.1875C20.4711 9.78598 20.2855 9.28409 20.2855 8.68182C20.2855 8.18939 20.4238 7.75379 20.7003 7.375C20.9806 6.99621 21.3613 6.69886 21.8423 6.48295C22.3272 6.26705 22.8764 6.15909 23.4901 6.15909C24.3537 6.15909 25.0317 6.34848 25.5241 6.72727C26.0204 7.10606 26.3726 7.60606 26.581 8.22727ZM34.9403 8.22727L33.7358 8.56818C33.66 8.36742 33.5483 8.17235 33.4006 7.98295C33.2566 7.78977 33.0597 7.63068 32.8097 7.50568C32.5597 7.38068 32.2396 7.31818 31.8494 7.31818C31.3153 7.31818 30.8703 7.44129 30.5142 7.6875C30.1619 7.92992 29.9858 8.23864 29.9858 8.61364C29.9858 8.94697 30.107 9.21023 30.3494 9.40341C30.5919 9.59659 30.9706 9.75758 31.4858 9.88636L32.7812 10.2045C33.5616 10.3939 34.143 10.6837 34.5256 11.0739C34.9081 11.4602 35.0994 11.9583 35.0994 12.5682C35.0994 13.0682 34.9555 13.5152 34.6676 13.9091C34.3835 14.303 33.9858 14.6136 33.4744 14.8409C32.9631 15.0682 32.3684 15.1818 31.6903 15.1818C30.8002 15.1818 30.0634 14.9886 29.4801 14.6023C28.8968 14.2159 28.5275 13.6515 28.3722 12.9091L29.6449 12.5909C29.7661 13.0606 29.9953 13.4129 30.3324 13.6477C30.6733 13.8826 31.1184 14 31.6676 14C32.2926 14 32.7888 13.8674 33.1562 13.6023C33.5275 13.3333 33.7131 13.0114 33.7131 12.6364C33.7131 12.3333 33.607 12.0795 33.3949 11.875C33.1828 11.6667 32.857 11.5114 32.4176 11.4091L30.9631 11.0682C30.1638 10.8788 29.5767 10.5852 29.2017 10.1875C28.8305 9.78598 28.6449 9.28409 28.6449 8.68182C28.6449 8.18939 28.7831 7.75379 29.0597 7.375C29.34 6.99621 29.7206 6.69886 30.2017 6.48295C30.6866 6.26705 31.2358 6.15909 31.8494 6.15909C32.7131 6.15909 33.3911 6.34848 33.8835 6.72727C34.3797 7.10606 34.732 7.60606 34.9403 8.22727ZM39.0952 15L36.4361 6.27273H37.8452L39.7315 12.9545H39.8224L41.6861 6.27273H43.1179L44.9588 12.9318H45.0497L46.9361 6.27273H48.3452L45.6861 15H44.3679L42.4588 8.29545H42.3224L40.4134 15H39.0952ZM53.3665 15.1818C52.5786 15.1818 51.8873 14.9943 51.2926 14.6193C50.7017 14.2443 50.2396 13.7197 49.9062 13.0455C49.5767 12.3712 49.4119 11.5833 49.4119 10.6818C49.4119 9.77273 49.5767 8.97917 49.9062 8.30114C50.2396 7.62311 50.7017 7.09659 51.2926 6.72159C51.8873 6.34659 52.5786 6.15909 53.3665 6.15909C54.1544 6.15909 54.8438 6.34659 55.4347 6.72159C56.0294 7.09659 56.4915 7.62311 56.821 8.30114C57.1544 8.97917 57.321 9.77273 57.321 10.6818C57.321 11.5833 57.1544 12.3712 56.821 13.0455C56.4915 13.7197 56.0294 14.2443 55.4347 14.6193C54.8438 14.9943 54.1544 15.1818 53.3665 15.1818ZM53.3665 13.9773C53.965 13.9773 54.4574 13.8239 54.8438 13.517C55.2301 13.2102 55.5161 12.8068 55.7017 12.3068C55.8873 11.8068 55.9801 11.2652 55.9801 10.6818C55.9801 10.0985 55.8873 9.55492 55.7017 9.05114C55.5161 8.54735 55.2301 8.14015 54.8438 7.82955C54.4574 7.51894 53.965 7.36364 53.3665 7.36364C52.768 7.36364 52.2756 7.51894 51.8892 7.82955C51.5028 8.14015 51.2169 8.54735 51.0312 9.05114C50.8456 9.55492 50.7528 10.0985 50.7528 10.6818C50.7528 11.2652 50.8456 11.8068 51.0312 12.3068C51.2169 12.8068 51.5028 13.2102 51.8892 13.517C52.2756 13.8239 52.768 13.9773 53.3665 13.9773ZM59.3679 15V6.27273H60.6634V7.59091H60.7543C60.9134 7.15909 61.2012 6.80871 61.6179 6.53977C62.0346 6.27083 62.5043 6.13636 63.027 6.13636C63.1255 6.13636 63.2486 6.13826 63.3963 6.14205C63.544 6.14583 63.6558 6.15152 63.7315 6.15909V7.52273C63.6861 7.51136 63.5819 7.49432 63.419 7.47159C63.2599 7.44508 63.0914 7.43182 62.9134 7.43182C62.4891 7.43182 62.1103 7.52083 61.777 7.69886C61.4474 7.87311 61.1861 8.11553 60.9929 8.42614C60.8035 8.73295 60.7088 9.08333 60.7088 9.47727V15H59.3679ZM68.3509 15.1818C67.6236 15.1818 66.9815 14.9981 66.4247 14.6307C65.8679 14.2595 65.4323 13.7367 65.1179 13.0625C64.8035 12.3845 64.6463 11.5833 64.6463 10.6591C64.6463 9.74242 64.8035 8.94697 65.1179 8.27273C65.4323 7.59848 65.8698 7.07765 66.4304 6.71023C66.991 6.3428 67.6387 6.15909 68.3736 6.15909C68.9418 6.15909 69.3906 6.25379 69.7202 6.44318C70.0535 6.62879 70.3073 6.84091 70.4815 7.07955C70.6596 7.31439 70.7978 7.50758 70.8963 7.65909H71.0099V3.36364H72.3509V15H71.0554V13.6591H70.8963C70.7978 13.8182 70.6577 14.0189 70.4759 14.2614C70.294 14.5 70.0346 14.714 69.6974 14.9034C69.3603 15.089 68.9115 15.1818 68.3509 15.1818ZM68.5327 13.9773C69.0705 13.9773 69.5251 13.8371 69.8963 13.5568C70.2675 13.2727 70.5497 12.8807 70.7429 12.3807C70.9361 11.8769 71.0327 11.2955 71.0327 10.6364C71.0327 9.98485 70.938 9.41477 70.7486 8.92614C70.5592 8.43371 70.2789 8.05114 69.9077 7.77841C69.5365 7.50189 69.0781 7.36364 68.5327 7.36364C67.9645 7.36364 67.491 7.50947 67.1122 7.80114C66.7372 8.08902 66.455 8.48106 66.2656 8.97727C66.08 9.4697 65.9872 10.0227 65.9872 10.6364C65.9872 11.2576 66.0819 11.822 66.2713 12.3295C66.4645 12.8333 66.7486 13.2348 67.1236 13.5341C67.5024 13.8295 67.9721 13.9773 68.5327 13.9773Z" fill="#222222"/>
<rect width="362" height="56" transform="translate(0 27)" fill="#F7F7F7"/>
<path d="M17.4091 60.5V48.8636H24.4318V50.1136H18.8182V54.0455H24.0682V55.2955H18.8182V59.25H24.5227V60.5H17.4091ZM28.1307 55.25V60.5H26.7898V51.7727H28.0852V53.1364H28.1989C28.4034 52.6932 28.714 52.3371 29.1307 52.0682C29.5473 51.7955 30.0852 51.6591 30.7443 51.6591C31.3352 51.6591 31.8523 51.7803 32.2955 52.0227C32.7386 52.2614 33.0833 52.625 33.3295 53.1136C33.5758 53.5985 33.6989 54.2121 33.6989 54.9545V60.5H32.358V55.0455C32.358 54.3598 32.1799 53.8258 31.8239 53.4432C31.4678 53.0568 30.9792 52.8636 30.358 52.8636C29.9299 52.8636 29.5473 52.9564 29.2102 53.142C28.8769 53.3277 28.6136 53.5985 28.4205 53.9545C28.2273 54.3106 28.1307 54.7424 28.1307 55.25ZM39.9446 51.7727V52.9091H35.4219V51.7727H39.9446ZM36.7401 49.6818H38.081V58C38.081 58.3788 38.1359 58.6629 38.2457 58.8523C38.3594 59.0379 38.5033 59.1629 38.6776 59.2273C38.8556 59.2879 39.0431 59.3182 39.2401 59.3182C39.3878 59.3182 39.509 59.3106 39.6037 59.2955C39.6984 59.2765 39.7741 59.2614 39.831 59.25L40.1037 60.4545C40.0128 60.4886 39.8859 60.5227 39.723 60.5568C39.5601 60.5947 39.3537 60.6136 39.1037 60.6136C38.7249 60.6136 38.3537 60.5322 37.9901 60.3693C37.6302 60.2064 37.331 59.9583 37.0923 59.625C36.8575 59.2917 36.7401 58.8712 36.7401 58.3636V49.6818ZM45.527 60.6818C44.6861 60.6818 43.9607 60.4962 43.3509 60.125C42.7448 59.75 42.277 59.2273 41.9474 58.5568C41.6217 57.8826 41.4588 57.0985 41.4588 56.2045C41.4588 55.3106 41.6217 54.5227 41.9474 53.8409C42.277 53.1553 42.7353 52.6212 43.3224 52.2386C43.9134 51.8523 44.6027 51.6591 45.3906 51.6591C45.8452 51.6591 46.294 51.7348 46.7372 51.8864C47.1804 52.0379 47.5838 52.2841 47.9474 52.625C48.3111 52.9621 48.6009 53.4091 48.8168 53.9659C49.0327 54.5227 49.1406 55.2083 49.1406 56.0227V56.5909H42.4134V55.4318H47.777C47.777 54.9394 47.6785 54.5 47.4815 54.1136C47.2884 53.7273 47.0118 53.4223 46.652 53.1989C46.2959 52.9754 45.8755 52.8636 45.3906 52.8636C44.8565 52.8636 44.3944 52.9962 44.0043 53.2614C43.6179 53.5227 43.3205 53.8636 43.1122 54.2841C42.9039 54.7045 42.7997 55.1553 42.7997 55.6364V56.4091C42.7997 57.0682 42.9134 57.6269 43.1406 58.0852C43.3717 58.5398 43.6918 58.8864 44.1009 59.125C44.5099 59.3598 44.9853 59.4773 45.527 59.4773C45.8793 59.4773 46.1974 59.428 46.4815 59.3295C46.7694 59.2273 47.0175 59.0758 47.2259 58.875C47.4342 58.6705 47.5952 58.4167 47.7088 58.1136L49.0043 58.4773C48.8679 58.9167 48.6387 59.303 48.3168 59.6364C47.9948 59.9659 47.5971 60.2235 47.1236 60.4091C46.6501 60.5909 46.1179 60.6818 45.527 60.6818ZM51.1804 60.5V51.7727H52.4759V53.0909H52.5668C52.7259 52.6591 53.0137 52.3087 53.4304 52.0398C53.8471 51.7708 54.3168 51.6364 54.8395 51.6364C54.938 51.6364 55.0611 51.6383 55.2088 51.642C55.3565 51.6458 55.4683 51.6515 55.544 51.6591V53.0227C55.4986 53.0114 55.3944 52.9943 55.2315 52.9716C55.0724 52.9451 54.9039 52.9318 54.7259 52.9318C54.3016 52.9318 53.9228 53.0208 53.5895 53.1989C53.2599 53.3731 52.9986 53.6155 52.8054 53.9261C52.616 54.233 52.5213 54.5833 52.5213 54.9773V60.5H51.1804ZM61.6335 63.7727V51.7727H62.929V53.1591H63.0881C63.1866 53.0076 63.3229 52.8144 63.4972 52.5795C63.6752 52.3409 63.929 52.1288 64.2585 51.9432C64.5919 51.7538 65.0426 51.6591 65.6108 51.6591C66.3456 51.6591 66.9934 51.8428 67.554 52.2102C68.1146 52.5777 68.5521 53.0985 68.8665 53.7727C69.1809 54.447 69.3381 55.2424 69.3381 56.1591C69.3381 57.0833 69.1809 57.8845 68.8665 58.5625C68.5521 59.2367 68.1165 59.7595 67.5597 60.1307C67.0028 60.4981 66.3608 60.6818 65.6335 60.6818C65.0729 60.6818 64.6241 60.589 64.2869 60.4034C63.9498 60.214 63.6903 60 63.5085 59.7614C63.3267 59.5189 63.1866 59.3182 63.0881 59.1591H62.9744V63.7727H61.6335ZM62.9517 56.1364C62.9517 56.7955 63.0483 57.3769 63.2415 57.8807C63.4347 58.3807 63.7169 58.7727 64.0881 59.0568C64.4593 59.3371 64.9138 59.4773 65.4517 59.4773C66.0123 59.4773 66.4801 59.3295 66.8551 59.0341C67.2339 58.7348 67.518 58.3333 67.7074 57.8295C67.9006 57.322 67.9972 56.7576 67.9972 56.1364C67.9972 55.5227 67.9025 54.9697 67.7131 54.4773C67.5275 53.9811 67.2453 53.589 66.8665 53.3011C66.4915 53.0095 66.0199 52.8636 65.4517 52.8636C64.9063 52.8636 64.4479 53.0019 64.0767 53.2784C63.7055 53.5511 63.4252 53.9337 63.2358 54.4261C63.0464 54.9148 62.9517 55.4848 62.9517 56.1364ZM73.9517 60.7045C73.3987 60.7045 72.8968 60.6004 72.446 60.392C71.9953 60.1799 71.6373 59.875 71.3722 59.4773C71.107 59.0758 70.9744 58.5909 70.9744 58.0227C70.9744 57.5227 71.0729 57.1174 71.2699 56.8068C71.4669 56.4924 71.7301 56.2462 72.0597 56.0682C72.3892 55.8902 72.7528 55.7576 73.1506 55.6705C73.5521 55.5795 73.9555 55.5076 74.3608 55.4545C74.8911 55.3864 75.321 55.3352 75.6506 55.3011C75.9839 55.2633 76.2263 55.2008 76.3778 55.1136C76.5331 55.0265 76.6108 54.875 76.6108 54.6591V54.6136C76.6108 54.053 76.4574 53.6174 76.1506 53.3068C75.8475 52.9962 75.3873 52.8409 74.7699 52.8409C74.1297 52.8409 73.6278 52.9811 73.2642 53.2614C72.9006 53.5417 72.6449 53.8409 72.4972 54.1591L71.2244 53.7045C71.4517 53.1742 71.7547 52.7614 72.1335 52.4659C72.5161 52.1667 72.9328 51.9583 73.3835 51.8409C73.8381 51.7197 74.285 51.6591 74.7244 51.6591C75.0047 51.6591 75.3267 51.6932 75.6903 51.7614C76.0578 51.8258 76.4119 51.9602 76.7528 52.1648C77.0975 52.3693 77.3835 52.678 77.6108 53.0909C77.8381 53.5038 77.9517 54.0568 77.9517 54.75V60.5H76.6108V59.3182H76.5426C76.4517 59.5076 76.3002 59.7102 76.0881 59.9261C75.8759 60.142 75.5938 60.3258 75.2415 60.4773C74.8892 60.6288 74.4593 60.7045 73.9517 60.7045ZM74.1562 59.5C74.6866 59.5 75.1335 59.3958 75.4972 59.1875C75.8646 58.9792 76.1411 58.7102 76.3267 58.3807C76.5161 58.0511 76.6108 57.7045 76.6108 57.3409V56.1136C76.554 56.1818 76.429 56.2443 76.2358 56.3011C76.0464 56.3542 75.8267 56.4015 75.5767 56.4432C75.3305 56.4811 75.09 56.5152 74.8551 56.5455C74.6241 56.572 74.4366 56.5947 74.2926 56.6136C73.9441 56.6591 73.6184 56.733 73.3153 56.8352C73.0161 56.9337 72.7737 57.0833 72.5881 57.2841C72.4063 57.4811 72.3153 57.75 72.3153 58.0909C72.3153 58.5568 72.4877 58.9091 72.8324 59.1477C73.1809 59.3826 73.6222 59.5 74.1562 59.5ZM86.581 53.7273L85.3764 54.0682C85.3007 53.8674 85.1889 53.6723 85.0412 53.483C84.8973 53.2898 84.7003 53.1307 84.4503 53.0057C84.2003 52.8807 83.8802 52.8182 83.4901 52.8182C82.956 52.8182 82.5109 52.9413 82.1548 53.1875C81.8026 53.4299 81.6264 53.7386 81.6264 54.1136C81.6264 54.447 81.7476 54.7102 81.9901 54.9034C82.2325 55.0966 82.6113 55.2576 83.1264 55.3864L84.4219 55.7045C85.2022 55.8939 85.7836 56.1837 86.1662 56.5739C86.5488 56.9602 86.7401 57.4583 86.7401 58.0682C86.7401 58.5682 86.5961 59.0152 86.3082 59.4091C86.0241 59.803 85.6264 60.1136 85.1151 60.3409C84.6037 60.5682 84.009 60.6818 83.331 60.6818C82.4408 60.6818 81.7041 60.4886 81.1207 60.1023C80.5374 59.7159 80.1681 59.1515 80.0128 58.4091L81.2855 58.0909C81.4067 58.5606 81.6359 58.9129 81.973 59.1477C82.3139 59.3826 82.759 59.5 83.3082 59.5C83.9332 59.5 84.4295 59.3674 84.7969 59.1023C85.1681 58.8333 85.3537 58.5114 85.3537 58.1364C85.3537 57.8333 85.2476 57.5795 85.0355 57.375C84.8234 57.1667 84.4976 57.0114 84.0582 56.9091L82.6037 56.5682C81.8045 56.3788 81.2173 56.0852 80.8423 55.6875C80.4711 55.286 80.2855 54.7841 80.2855 54.1818C80.2855 53.6894 80.4238 53.2538 80.7003 52.875C80.9806 52.4962 81.3613 52.1989 81.8423 51.983C82.3272 51.767 82.8764 51.6591 83.4901 51.6591C84.3537 51.6591 85.0317 51.8485 85.5241 52.2273C86.0204 52.6061 86.3726 53.1061 86.581 53.7273ZM94.9403 53.7273L93.7358 54.0682C93.66 53.8674 93.5483 53.6723 93.4006 53.483C93.2566 53.2898 93.0597 53.1307 92.8097 53.0057C92.5597 52.8807 92.2396 52.8182 91.8494 52.8182C91.3153 52.8182 90.8703 52.9413 90.5142 53.1875C90.1619 53.4299 89.9858 53.7386 89.9858 54.1136C89.9858 54.447 90.107 54.7102 90.3494 54.9034C90.5919 55.0966 90.9706 55.2576 91.4858 55.3864L92.7812 55.7045C93.5616 55.8939 94.143 56.1837 94.5256 56.5739C94.9081 56.9602 95.0994 57.4583 95.0994 58.0682C95.0994 58.5682 94.9555 59.0152 94.6676 59.4091C94.3835 59.803 93.9858 60.1136 93.4744 60.3409C92.9631 60.5682 92.3684 60.6818 91.6903 60.6818C90.8002 60.6818 90.0634 60.4886 89.4801 60.1023C88.8968 59.7159 88.5275 59.1515 88.3722 58.4091L89.6449 58.0909C89.7661 58.5606 89.9953 58.9129 90.3324 59.1477C90.6733 59.3826 91.1184 59.5 91.6676 59.5C92.2926 59.5 92.7888 59.3674 93.1562 59.1023C93.5275 58.8333 93.7131 58.5114 93.7131 58.1364C93.7131 57.8333 93.607 57.5795 93.3949 57.375C93.1828 57.1667 92.857 57.0114 92.4176 56.9091L90.9631 56.5682C90.1638 56.3788 89.5767 56.0852 89.2017 55.6875C88.8305 55.286 88.6449 54.7841 88.6449 54.1818C88.6449 53.6894 88.7831 53.2538 89.0597 52.875C89.34 52.4962 89.7206 52.1989 90.2017 51.983C90.6866 51.767 91.2358 51.6591 91.8494 51.6591C92.7131 51.6591 93.3911 51.8485 93.8835 52.2273C94.3797 52.6061 94.732 53.1061 94.9403 53.7273ZM99.0952 60.5L96.4361 51.7727H97.8452L99.7315 58.4545H99.8224L101.686 51.7727H103.118L104.959 58.4318H105.05L106.936 51.7727H108.345L105.686 60.5H104.368L102.459 53.7955H102.322L100.413 60.5H99.0952ZM113.366 60.6818C112.579 60.6818 111.887 60.4943 111.293 60.1193C110.702 59.7443 110.24 59.2197 109.906 58.5455C109.577 57.8712 109.412 57.0833 109.412 56.1818C109.412 55.2727 109.577 54.4792 109.906 53.8011C110.24 53.1231 110.702 52.5966 111.293 52.2216C111.887 51.8466 112.579 51.6591 113.366 51.6591C114.154 51.6591 114.844 51.8466 115.435 52.2216C116.029 52.5966 116.491 53.1231 116.821 53.8011C117.154 54.4792 117.321 55.2727 117.321 56.1818C117.321 57.0833 117.154 57.8712 116.821 58.5455C116.491 59.2197 116.029 59.7443 115.435 60.1193C114.844 60.4943 114.154 60.6818 113.366 60.6818ZM113.366 59.4773C113.965 59.4773 114.457 59.3239 114.844 59.017C115.23 58.7102 115.516 58.3068 115.702 57.8068C115.887 57.3068 115.98 56.7652 115.98 56.1818C115.98 55.5985 115.887 55.0549 115.702 54.5511C115.516 54.0473 115.23 53.6402 114.844 53.3295C114.457 53.0189 113.965 52.8636 113.366 52.8636C112.768 52.8636 112.276 53.0189 111.889 53.3295C111.503 53.6402 111.217 54.0473 111.031 54.5511C110.846 55.0549 110.753 55.5985 110.753 56.1818C110.753 56.7652 110.846 57.3068 111.031 57.8068C111.217 58.3068 111.503 58.7102 111.889 59.017C112.276 59.3239 112.768 59.4773 113.366 59.4773ZM119.368 60.5V51.7727H120.663V53.0909H120.754C120.913 52.6591 121.201 52.3087 121.618 52.0398C122.035 51.7708 122.504 51.6364 123.027 51.6364C123.125 51.6364 123.249 51.6383 123.396 51.642C123.544 51.6458 123.656 51.6515 123.732 51.6591V53.0227C123.686 53.0114 123.582 52.9943 123.419 52.9716C123.26 52.9451 123.091 52.9318 122.913 52.9318C122.489 52.9318 122.11 53.0208 121.777 53.1989C121.447 53.3731 121.186 53.6155 120.993 53.9261C120.804 54.233 120.709 54.5833 120.709 54.9773V60.5H119.368ZM128.351 60.6818C127.624 60.6818 126.982 60.4981 126.425 60.1307C125.868 59.7595 125.432 59.2367 125.118 58.5625C124.804 57.8845 124.646 57.0833 124.646 56.1591C124.646 55.2424 124.804 54.447 125.118 53.7727C125.432 53.0985 125.87 52.5777 126.43 52.2102C126.991 51.8428 127.639 51.6591 128.374 51.6591C128.942 51.6591 129.391 51.7538 129.72 51.9432C130.054 52.1288 130.307 52.3409 130.482 52.5795C130.66 52.8144 130.798 53.0076 130.896 53.1591H131.01V48.8636H132.351V60.5H131.055V59.1591H130.896C130.798 59.3182 130.658 59.5189 130.476 59.7614C130.294 60 130.035 60.214 129.697 60.4034C129.36 60.589 128.911 60.6818 128.351 60.6818ZM128.533 59.4773C129.071 59.4773 129.525 59.3371 129.896 59.0568C130.268 58.7727 130.55 58.3807 130.743 57.8807C130.936 57.3769 131.033 56.7955 131.033 56.1364C131.033 55.4848 130.938 54.9148 130.749 54.4261C130.559 53.9337 130.279 53.5511 129.908 53.2784C129.536 53.0019 129.078 52.8636 128.533 52.8636C127.964 52.8636 127.491 53.0095 127.112 53.3011C126.737 53.589 126.455 53.9811 126.266 54.4773C126.08 54.9697 125.987 55.5227 125.987 56.1364C125.987 56.7576 126.082 57.322 126.271 57.8295C126.464 58.3333 126.749 58.7348 127.124 59.0341C127.502 59.3295 127.972 59.4773 128.533 59.4773Z" fill="#808080"/>
<path d="M337.446 55.6461L336.65 54.85C336.8 53.9769 336.553 53.2211 335.908 52.5827C335.263 51.9442 334.51 51.7 333.65 51.85L332.854 51.0538C333.022 50.9846 333.197 50.9327 333.38 50.8981C333.563 50.8635 333.769 50.8461 334 50.8461C335.019 50.8461 335.883 51.2003 336.591 51.9086C337.3 52.617 337.654 53.4808 337.654 54.5C337.654 54.7308 337.637 54.9439 337.602 55.1394C337.567 55.3349 337.515 55.5038 337.446 55.6461ZM340.608 58.7192L339.85 58.05C340.483 57.5667 341.046 57.0375 341.538 56.4625C342.029 55.8875 342.45 55.2333 342.8 54.5C341.967 52.8167 340.771 51.4792 339.213 50.4875C337.654 49.4958 335.917 49 334 49C333.517 49 333.042 49.0333 332.575 49.1C332.108 49.1667 331.65 49.2667 331.2 49.4L330.419 48.6192C331 48.4 331.591 48.242 332.192 48.1452C332.794 48.0484 333.396 48 334 48C336.171 48 338.156 48.5965 339.956 49.7894C341.756 50.9824 343.078 52.5526 343.923 54.5C343.565 55.3038 343.113 56.0593 342.564 56.7663C342.016 57.4734 341.364 58.1244 340.608 58.7192ZM341.723 64.1385L337.831 60.2577C337.388 60.4538 336.839 60.6266 336.184 60.776C335.528 60.9253 334.8 61 334 61C331.817 61 329.831 60.4035 328.044 59.2106C326.257 58.0176 324.935 56.4474 324.077 54.5C324.465 53.6167 324.978 52.7894 325.613 52.0183C326.249 51.2471 326.928 50.6 327.65 50.0769L324.862 47.2769L325.569 46.5692L342.431 63.4308L341.723 64.1385ZM328.358 50.7846C327.785 51.1923 327.199 51.7282 326.6 52.3923C326.001 53.0564 325.535 53.759 325.2 54.5C326.033 56.1833 327.229 57.5208 328.788 58.5125C330.346 59.5042 332.083 60 334 60C334.577 60 335.158 59.9439 335.744 59.8317C336.33 59.7196 336.771 59.6064 337.065 59.4923L335.435 57.85C335.277 57.9385 335.057 58.0112 334.775 58.0683C334.493 58.1253 334.235 58.1538 334 58.1538C332.981 58.1538 332.117 57.7997 331.409 57.0913C330.7 56.383 330.346 55.5192 330.346 54.5C330.346 54.2782 330.375 54.0295 330.432 53.7538C330.489 53.4782 330.562 53.2487 330.65 53.0654L328.358 50.7846Z" fill="#808080"/>
</svg>
