<svg width="320" height="44" viewBox="0 0 320 44" fill="none" xmlns="http://www.w3.org/2000/svg">
<path d="M24.75 14.5834H35.25V13.4167H24.75V14.5834ZM22.5512 23.3334C22.0143 23.3334 21.5659 23.1536 21.2062 22.7938C20.8465 22.4341 20.6666 21.9858 20.6666 21.4488V6.55135C20.6666 6.01439 20.8465 5.56605 21.2062 5.20633C21.5659 4.84661 22.0143 4.66675 22.5512 4.66675H37.4487C37.9856 4.66675 38.434 4.84661 38.7937 5.20633C39.1534 5.56605 39.3333 6.01439 39.3333 6.55135V21.4488C39.3333 21.9858 39.1534 22.4341 38.7937 22.7938C38.434 23.1536 37.9856 23.3334 37.4487 23.3334H22.5512ZM22.5512 22.1667H37.4487C37.6282 22.1667 37.7927 22.092 37.9423 21.9424C38.0918 21.7928 38.1666 21.6283 38.1666 21.4488V6.55135C38.1666 6.37188 38.0918 6.20735 37.9423 6.05776C37.7927 5.9082 37.6282 5.83341 37.4487 5.83341H22.5512C22.3718 5.83341 22.2072 5.9082 22.0576 6.05776C21.9081 6.20735 21.8333 6.37188 21.8333 6.55135V21.4488C21.8333 21.6283 21.9081 21.7928 22.0576 21.9424C22.2072 22.092 22.3718 22.1667 22.5512 22.1667Z" fill="#222222"/>
<path d="M53.054 19V18.1051L56.4148 14.4261C56.8092 13.9953 57.134 13.6207 57.3892 13.3026C57.6444 12.9811 57.8333 12.6795 57.956 12.3977C58.0819 12.1127 58.1449 11.8144 58.1449 11.5028C58.1449 11.1449 58.0587 10.835 57.8864 10.5732C57.7173 10.3113 57.4853 10.1091 57.1903 9.96662C56.8954 9.8241 56.5639 9.75284 56.196 9.75284C55.8049 9.75284 55.4635 9.83404 55.1719 9.99645C54.8835 10.1555 54.6598 10.3793 54.5007 10.6676C54.3449 10.956 54.267 11.294 54.267 11.6818H53.0938C53.0938 11.0852 53.2313 10.5616 53.5064 10.1108C53.7815 9.66004 54.156 9.30871 54.63 9.05682C55.1072 8.80492 55.6425 8.67898 56.2358 8.67898C56.8324 8.67898 57.361 8.80492 57.8217 9.05682C58.2824 9.30871 58.6437 9.64844 58.9055 10.076C59.1674 10.5036 59.2983 10.9792 59.2983 11.5028C59.2983 11.8774 59.2304 12.2436 59.0945 12.6016C58.9619 12.9562 58.7299 13.3523 58.3984 13.7898C58.0703 14.224 57.6146 14.7543 57.0312 15.3807L54.7443 17.8267V17.9062H59.4773V19H53.054ZM70.897 13.0739L69.843 13.3722C69.7768 13.1965 69.679 13.0258 69.5497 12.8601C69.4238 12.6911 69.2514 12.5518 69.0327 12.4425C68.8139 12.3331 68.5339 12.2784 68.1925 12.2784C67.7251 12.2784 67.3357 12.3861 67.0241 12.6016C66.7159 12.8137 66.5618 13.0838 66.5618 13.4119C66.5618 13.7036 66.6679 13.9339 66.88 14.103C67.0921 14.272 67.4235 14.4129 67.8743 14.5256L69.0078 14.804C69.6906 14.9697 70.1993 15.2232 70.5341 15.5646C70.8688 15.9027 71.0362 16.3385 71.0362 16.8722C71.0362 17.3097 70.9103 17.7008 70.6584 18.0455C70.4098 18.3902 70.0618 18.6619 69.6143 18.8608C69.1669 19.0597 68.6465 19.1591 68.0533 19.1591C67.2744 19.1591 66.6297 18.9901 66.1193 18.652C65.6089 18.3139 65.2857 17.8201 65.1499 17.1705L66.2635 16.892C66.3696 17.303 66.5701 17.6113 66.8651 17.8168C67.1634 18.0223 67.5528 18.125 68.0334 18.125C68.5803 18.125 69.0144 18.009 69.3359 17.777C69.6607 17.5417 69.8232 17.2599 69.8232 16.9318C69.8232 16.6667 69.7304 16.4446 69.5447 16.2656C69.3591 16.0833 69.0741 15.9474 68.6896 15.858L67.4169 15.5597C66.7176 15.3939 66.2038 15.1371 65.8757 14.7891C65.5509 14.4377 65.3885 13.9986 65.3885 13.4716C65.3885 13.0407 65.5095 12.6596 65.7514 12.3281C65.9967 11.9967 66.3298 11.7365 66.7507 11.5476C67.175 11.3587 67.6555 11.2642 68.1925 11.2642C68.9482 11.2642 69.5414 11.4299 69.9723 11.7614C70.4065 12.0928 70.7147 12.5303 70.897 13.0739ZM76.0041 19.1591C75.2683 19.1591 74.6336 18.9967 74.1 18.6719C73.5697 18.3438 73.1603 17.8864 72.872 17.2997C72.5869 16.7098 72.4444 16.0237 72.4444 15.2415C72.4444 14.4593 72.5869 13.7699 72.872 13.1733C73.1603 12.5734 73.5614 12.1061 74.0751 11.7713C74.5922 11.4332 75.1954 11.2642 75.8848 11.2642C76.2825 11.2642 76.6752 11.3305 77.063 11.4631C77.4508 11.5956 77.8038 11.8111 78.122 12.1094C78.4402 12.4044 78.6937 12.7955 78.8826 13.2827C79.0716 13.7699 79.166 14.3698 79.166 15.0824V15.5795H73.2797V14.5653H77.9728C77.9728 14.1345 77.8867 13.75 77.7143 13.4119C77.5453 13.0739 77.3033 12.8071 76.9885 12.6115C76.6769 12.416 76.309 12.3182 75.8848 12.3182C75.4174 12.3182 75.0131 12.4342 74.6717 12.6662C74.3336 12.8949 74.0734 13.1932 73.8912 13.5611C73.7089 13.929 73.6177 14.3234 73.6177 14.7443V15.4205C73.6177 15.9972 73.7172 16.486 73.916 16.8871C74.1182 17.2848 74.3983 17.5881 74.7562 17.7969C75.1142 18.0024 75.5301 18.1051 76.0041 18.1051C76.3123 18.1051 76.5907 18.062 76.8393 17.9759C77.0912 17.8864 77.3083 17.7538 77.4906 17.5781C77.6729 17.3991 77.8137 17.1771 77.9132 16.9119L79.0467 17.2301C78.9274 17.6146 78.7269 17.9527 78.4451 18.2443C78.1634 18.5327 77.8154 18.758 77.4011 18.9205C76.9868 19.0795 76.5211 19.1591 76.0041 19.1591ZM82.1241 8.81818V19H80.9508V8.81818H82.1241ZM87.4748 19.1591C86.739 19.1591 86.1043 18.9967 85.5707 18.6719C85.0404 18.3438 84.631 17.8864 84.3427 17.2997C84.0576 16.7098 83.9151 16.0237 83.9151 15.2415C83.9151 14.4593 84.0576 13.7699 84.3427 13.1733C84.631 12.5734 85.0321 12.1061 85.5458 11.7713C86.0629 11.4332 86.6661 11.2642 87.3555 11.2642C87.7532 11.2642 88.146 11.3305 88.5337 11.4631C88.9215 11.5956 89.2745 11.8111 89.5927 12.1094C89.9109 12.4044 90.1644 12.7955 90.3533 13.2827C90.5423 13.7699 90.6367 14.3698 90.6367 15.0824V15.5795H84.7504V14.5653H89.4435C89.4435 14.1345 89.3574 13.75 89.185 13.4119C89.016 13.0739 88.774 12.8071 88.4592 12.6115C88.1476 12.416 87.7797 12.3182 87.3555 12.3182C86.8881 12.3182 86.4838 12.4342 86.1424 12.6662C85.8043 12.8949 85.5442 13.1932 85.3619 13.5611C85.1796 13.929 85.0884 14.3234 85.0884 14.7443V15.4205C85.0884 15.9972 85.1879 16.486 85.3867 16.8871C85.5889 17.2848 85.869 17.5881 86.2269 17.7969C86.5849 18.0024 87.0008 18.1051 87.4748 18.1051C87.783 18.1051 88.0614 18.062 88.31 17.9759C88.5619 17.8864 88.779 17.7538 88.9613 17.5781C89.1436 17.3991 89.2844 17.1771 89.3839 16.9119L90.5174 17.2301C90.3981 17.6146 90.1976 17.9527 89.9158 18.2443C89.6341 18.5327 89.2861 18.758 88.8718 18.9205C88.4575 19.0795 87.9918 19.1591 87.4748 19.1591ZM95.5238 19.1591C94.8079 19.1591 94.1914 18.9901 93.6744 18.652C93.1573 18.3139 92.7596 17.8482 92.4812 17.255C92.2028 16.6617 92.0636 15.9839 92.0636 15.2216C92.0636 14.446 92.2061 13.7616 92.4911 13.1683C92.7795 12.5717 93.1805 12.1061 93.6942 11.7713C94.2113 11.4332 94.8145 11.2642 95.5039 11.2642C96.0408 11.2642 96.5247 11.3636 96.9556 11.5625C97.3865 11.7614 97.7395 12.0398 98.0146 12.3977C98.2897 12.7557 98.4603 13.1733 98.5266 13.6506H97.3533C97.2638 13.3026 97.065 12.9943 96.7567 12.7259C96.4518 12.4541 96.0408 12.3182 95.5238 12.3182C95.0664 12.3182 94.6654 12.4375 94.3207 12.6761C93.9793 12.9115 93.7125 13.2446 93.5202 13.6754C93.3313 14.103 93.2369 14.6051 93.2369 15.1818C93.2369 15.7718 93.3297 16.2855 93.5153 16.723C93.7042 17.1605 93.9693 17.5002 94.3107 17.7422C94.6554 17.9841 95.0598 18.1051 95.5238 18.1051C95.8287 18.1051 96.1055 18.0521 96.354 17.946C96.6026 17.84 96.8131 17.6875 96.9854 17.4886C97.1578 17.2898 97.2804 17.0511 97.3533 16.7727H98.5266C98.4603 17.2235 98.2963 17.6295 98.0344 17.9908C97.7759 18.3487 97.4329 18.6338 97.0053 18.8459C96.5811 19.0547 96.0872 19.1591 95.5238 19.1591ZM103.563 11.3636V12.358H99.6055V11.3636H103.563ZM100.759 9.53409H101.932V16.8125C101.932 17.1439 101.98 17.3925 102.076 17.5582C102.176 17.7206 102.302 17.83 102.454 17.8864C102.61 17.9394 102.774 17.9659 102.946 17.9659C103.076 17.9659 103.182 17.9593 103.265 17.946C103.347 17.9295 103.414 17.9162 103.463 17.9062L103.702 18.9602C103.623 18.9901 103.511 19.0199 103.369 19.0497C103.226 19.0829 103.046 19.0994 102.827 19.0994C102.496 19.0994 102.171 19.0282 101.853 18.8857C101.538 18.7431 101.276 18.526 101.067 18.2344C100.862 17.9427 100.759 17.5748 100.759 17.1307V9.53409ZM108.447 19.1591C107.712 19.1591 107.077 18.9967 106.543 18.6719C106.013 18.3438 105.604 17.8864 105.315 17.2997C105.03 16.7098 104.888 16.0237 104.888 15.2415C104.888 14.4593 105.03 13.7699 105.315 13.1733C105.604 12.5734 106.005 12.1061 106.518 11.7713C107.036 11.4332 107.639 11.2642 108.328 11.2642C108.726 11.2642 109.119 11.3305 109.506 11.4631C109.894 11.5956 110.247 11.8111 110.565 12.1094C110.884 12.4044 111.137 12.7955 111.326 13.2827C111.515 13.7699 111.609 14.3698 111.609 15.0824V15.5795H105.723V14.5653H110.416C110.416 14.1345 110.33 13.75 110.158 13.4119C109.989 13.0739 109.747 12.8071 109.432 12.6115C109.12 12.416 108.752 12.3182 108.328 12.3182C107.861 12.3182 107.456 12.4342 107.115 12.6662C106.777 12.8949 106.517 13.1932 106.335 13.5611C106.152 13.929 106.061 14.3234 106.061 14.7443V15.4205C106.061 15.9972 106.161 16.486 106.359 16.8871C106.562 17.2848 106.842 17.5881 107.2 17.7969C107.558 18.0024 107.973 18.1051 108.447 18.1051C108.756 18.1051 109.034 18.062 109.283 17.9759C109.535 17.8864 109.752 17.7538 109.934 17.5781C110.116 17.3991 110.257 17.1771 110.357 16.9119L111.49 17.2301C111.371 17.6146 111.17 17.9527 110.888 18.2443C110.607 18.5327 110.259 18.758 109.844 18.9205C109.43 19.0795 108.964 19.1591 108.447 19.1591ZM116.278 19.1591C115.641 19.1591 115.08 18.9983 114.592 18.6768C114.105 18.352 113.724 17.8946 113.449 17.3047C113.174 16.7114 113.036 16.0104 113.036 15.2017C113.036 14.3996 113.174 13.7036 113.449 13.1136C113.724 12.5237 114.107 12.0679 114.597 11.7464C115.088 11.425 115.655 11.2642 116.298 11.2642C116.795 11.2642 117.188 11.3471 117.476 11.5128C117.768 11.6752 117.99 11.8608 118.142 12.0696C118.298 12.2751 118.419 12.4441 118.505 12.5767H118.604V8.81818H119.778V19H118.644V17.8267H118.505C118.419 17.9659 118.296 18.1416 118.137 18.3537C117.978 18.5625 117.751 18.7498 117.456 18.9155C117.161 19.0779 116.768 19.1591 116.278 19.1591ZM116.437 18.1051C116.907 18.1051 117.305 17.9825 117.63 17.7372C117.955 17.4886 118.202 17.1456 118.371 16.7081C118.54 16.2673 118.624 15.7585 118.624 15.1818C118.624 14.6117 118.541 14.1129 118.376 13.6854C118.21 13.2545 117.965 12.9197 117.64 12.6811C117.315 12.4392 116.914 12.3182 116.437 12.3182C115.94 12.3182 115.525 12.4458 115.194 12.701C114.866 12.9529 114.619 13.2959 114.453 13.7301C114.291 14.161 114.21 14.6449 114.21 15.1818C114.21 15.7254 114.292 16.2192 114.458 16.6634C114.627 17.1042 114.876 17.4555 115.204 17.7173C115.535 17.9759 115.946 18.1051 116.437 18.1051Z" fill="#222222"/>
<path d="M285.615 22C285.168 22 284.787 21.8426 284.472 21.5279C284.157 21.2131 284 20.832 284 20.3846V7.99996H283V6.99996H287V6.23071H293V6.99996H297V7.99996H296V20.3846C296 20.8448 295.846 21.2291 295.538 21.5375C295.229 21.8458 294.845 22 294.385 22H285.615ZM295 7.99996H285V20.3846C285 20.5641 285.058 20.7115 285.173 20.8269C285.288 20.9423 285.436 21 285.615 21H294.385C294.538 21 294.679 20.9359 294.808 20.8077C294.936 20.6794 295 20.5384 295 20.3846V7.99996ZM287.808 19H288.808V9.99996H287.808V19ZM291.192 19H292.192V9.99996H291.192V19Z" fill="#222222"/>
</svg>
