<svg width="66" height="32" viewBox="0 0 66 32" fill="none" xmlns="http://www.w3.org/2000/svg">
<path d="M0.880682 20V12.7273H1.76136V19.2188H5.14205V20H0.880682ZM7.99716 20.1278C7.65152 20.1278 7.33783 20.0627 7.05611 19.9325C6.77438 19.8 6.55066 19.6094 6.38494 19.3608C6.21922 19.1098 6.13636 18.8068 6.13636 18.4517C6.13636 18.1392 6.19792 17.8859 6.32102 17.6918C6.44413 17.4953 6.60866 17.3414 6.81463 17.2301C7.0206 17.1188 7.24787 17.036 7.49645 16.9815C7.7474 16.9247 7.99953 16.8797 8.25284 16.8466C8.58428 16.804 8.85298 16.772 9.05895 16.7507C9.26728 16.727 9.4188 16.688 9.51349 16.6335C9.61056 16.5791 9.65909 16.4844 9.65909 16.3494V16.321C9.65909 15.9706 9.56321 15.6984 9.37145 15.5043C9.18206 15.3101 8.89441 15.2131 8.50852 15.2131C8.10843 15.2131 7.79474 15.3007 7.56747 15.4759C7.3402 15.651 7.1804 15.8381 7.08807 16.0369L6.29261 15.7528C6.43466 15.4214 6.62405 15.1634 6.8608 14.9787C7.09991 14.7917 7.36032 14.6615 7.64205 14.5881C7.92614 14.5123 8.20549 14.4744 8.48011 14.4744C8.6553 14.4744 8.85653 14.4957 9.08381 14.5384C9.31345 14.5786 9.5348 14.6626 9.74787 14.7905C9.9633 14.9183 10.142 15.1113 10.2841 15.3693C10.4261 15.6274 10.4972 15.973 10.4972 16.4062V20H9.65909V19.2614H9.61648C9.55966 19.3797 9.46496 19.5064 9.33239 19.6413C9.19981 19.7763 9.02344 19.8911 8.80327 19.9858C8.5831 20.0805 8.31439 20.1278 7.99716 20.1278ZM8.125 19.375C8.45644 19.375 8.7358 19.3099 8.96307 19.1797C9.19271 19.0495 9.36553 18.8814 9.48153 18.6754C9.59991 18.4695 9.65909 18.2528 9.65909 18.0256V17.2585C9.62358 17.3011 9.54545 17.3402 9.42472 17.3757C9.30634 17.4089 9.16903 17.4384 9.01278 17.4645C8.8589 17.4882 8.70857 17.5095 8.56179 17.5284C8.41738 17.545 8.30019 17.5592 8.21023 17.571C7.99242 17.5994 7.78883 17.6456 7.59943 17.7095C7.41241 17.7711 7.26089 17.8646 7.14489 17.9901C7.03125 18.1132 6.97443 18.2812 6.97443 18.4943C6.97443 18.7855 7.08215 19.0057 7.29759 19.1548C7.51539 19.3016 7.79119 19.375 8.125 19.375ZM12.1404 20V12.7273H12.9785V15.4119H13.0495C13.1111 15.3172 13.1963 15.1965 13.3052 15.0497C13.4165 14.9006 13.5751 14.768 13.7811 14.652C13.9894 14.5336 14.2711 14.4744 14.6262 14.4744C15.0855 14.4744 15.4904 14.5893 15.8407 14.8189C16.1911 15.0485 16.4645 15.3741 16.661 15.7955C16.8575 16.2169 16.9558 16.714 16.9558 17.2869C16.9558 17.8646 16.8575 18.3653 16.661 18.7891C16.4645 19.2105 16.1923 19.5372 15.8443 19.7692C15.4963 19.9988 15.095 20.1136 14.6404 20.1136C14.2901 20.1136 14.0095 20.0556 13.7988 19.9396C13.5881 19.8213 13.426 19.6875 13.3123 19.5384C13.1987 19.3868 13.1111 19.2614 13.0495 19.1619H12.9501V20H12.1404ZM12.9643 17.2727C12.9643 17.6847 13.0247 18.0481 13.1454 18.3629C13.2662 18.6754 13.4425 18.9205 13.6745 19.098C13.9065 19.2732 14.1906 19.3608 14.5268 19.3608C14.8772 19.3608 15.1696 19.2685 15.4039 19.0838C15.6407 18.8968 15.8182 18.6458 15.9366 18.331C16.0574 18.0137 16.1177 17.661 16.1177 17.2727C16.1177 16.8892 16.0585 16.5436 15.9402 16.2358C15.8242 15.9257 15.6478 15.6806 15.411 15.5007C15.1767 15.3184 14.8819 15.2273 14.5268 15.2273C14.1859 15.2273 13.8994 15.3137 13.6674 15.4865C13.4354 15.657 13.2602 15.8961 13.1419 16.2038C13.0235 16.5092 12.9643 16.8655 12.9643 17.2727ZM20.5247 20.1136C19.9991 20.1136 19.5458 19.9976 19.1646 19.7656C18.7858 19.5312 18.4934 19.2045 18.2875 18.7855C18.0839 18.3641 17.9821 17.8741 17.9821 17.3153C17.9821 16.7566 18.0839 16.2642 18.2875 15.8381C18.4934 15.4096 18.7799 15.0758 19.1468 14.8366C19.5162 14.5952 19.947 14.4744 20.4395 14.4744C20.7235 14.4744 21.0041 14.5218 21.2811 14.6165C21.5581 14.7112 21.8102 14.8651 22.0375 15.0781C22.2647 15.2888 22.4458 15.5682 22.5808 15.9162C22.7157 16.2642 22.7832 16.6927 22.7832 17.2017V17.5568H18.5787V16.8324H21.9309C21.9309 16.5246 21.8694 16.25 21.7463 16.0085C21.6255 15.767 21.4527 15.5765 21.2278 15.4368C21.0053 15.2971 20.7425 15.2273 20.4395 15.2273C20.1056 15.2273 19.8168 15.3101 19.573 15.4759C19.3315 15.6392 19.1457 15.8523 19.0154 16.1151C18.8852 16.3778 18.8201 16.6596 18.8201 16.9602V17.4432C18.8201 17.8551 18.8912 18.2043 19.0332 18.4908C19.1776 18.7749 19.3777 18.9915 19.6333 19.1406C19.889 19.2874 20.1861 19.3608 20.5247 19.3608C20.7449 19.3608 20.9437 19.33 21.1213 19.2685C21.3012 19.2045 21.4563 19.1098 21.5865 18.9844C21.7167 18.8565 21.8173 18.6979 21.8883 18.5085L22.698 18.7358C22.6127 19.0104 22.4695 19.2519 22.2683 19.4602C22.0671 19.6662 21.8185 19.8272 21.5225 19.9432C21.2266 20.0568 20.894 20.1136 20.5247 20.1136ZM24.8961 12.7273V20H24.0581V12.7273H24.8961ZM30.0817 16.7188V20H29.2436V14.5455H30.0533V15.3977H30.1243C30.2521 15.1207 30.4463 14.8982 30.7067 14.7301C30.9671 14.5597 31.3033 14.4744 31.7152 14.4744C32.0845 14.4744 32.4077 14.5502 32.6847 14.7017C32.9616 14.8509 33.1771 15.0781 33.331 15.3835C33.4848 15.6866 33.5618 16.0701 33.5618 16.5341V20H32.7237V16.5909C32.7237 16.1624 32.6125 15.8286 32.3899 15.5895C32.1674 15.348 31.862 15.2273 31.4737 15.2273C31.2062 15.2273 30.9671 15.2853 30.7564 15.4013C30.5481 15.5173 30.3835 15.6866 30.2628 15.9091C30.142 16.1316 30.0817 16.4015 30.0817 16.7188ZM36.6983 20.1278C36.3527 20.1278 36.039 20.0627 35.7573 19.9325C35.4756 19.8 35.2518 19.6094 35.0861 19.3608C34.9204 19.1098 34.8375 18.8068 34.8375 18.4517C34.8375 18.1392 34.8991 17.8859 35.0222 17.6918C35.1453 17.4953 35.3098 17.3414 35.5158 17.2301C35.7218 17.1188 35.949 17.036 36.1976 16.9815C36.4486 16.9247 36.7007 16.8797 36.954 16.8466C37.2855 16.804 37.5542 16.772 37.7601 16.7507C37.9685 16.727 38.12 16.688 38.2147 16.6335C38.3117 16.5791 38.3603 16.4844 38.3603 16.3494V16.321C38.3603 15.9706 38.2644 15.6984 38.0726 15.5043C37.8832 15.3101 37.5956 15.2131 37.2097 15.2131C36.8096 15.2131 36.4959 15.3007 36.2686 15.4759C36.0414 15.651 35.8816 15.8381 35.7892 16.0369L34.9938 15.7528C35.1358 15.4214 35.3252 15.1634 35.562 14.9787C35.8011 14.7917 36.0615 14.6615 36.3432 14.5881C36.6273 14.5123 36.9067 14.4744 37.1813 14.4744C37.3565 14.4744 37.5577 14.4957 37.785 14.5384C38.0146 14.5786 38.236 14.6626 38.449 14.7905C38.6645 14.9183 38.8432 15.1113 38.9853 15.3693C39.1273 15.6274 39.1983 15.973 39.1983 16.4062V20H38.3603V19.2614H38.3176C38.2608 19.3797 38.1661 19.5064 38.0336 19.6413C37.901 19.7763 37.7246 19.8911 37.5044 19.9858C37.2843 20.0805 37.0156 20.1278 36.6983 20.1278ZM36.8262 19.375C37.1576 19.375 37.437 19.3099 37.6642 19.1797C37.8939 19.0495 38.0667 18.8814 38.1827 18.6754C38.3011 18.4695 38.3603 18.2528 38.3603 18.0256V17.2585C38.3248 17.3011 38.2466 17.3402 38.1259 17.3757C38.0075 17.4089 37.8702 17.4384 37.714 17.4645C37.5601 17.4882 37.4097 17.5095 37.263 17.5284C37.1185 17.545 37.0014 17.5592 36.9114 17.571C36.6936 17.5994 36.49 17.6456 36.3006 17.7095C36.1136 17.7711 35.9621 17.8646 35.8461 17.9901C35.7324 18.1132 35.6756 18.2812 35.6756 18.4943C35.6756 18.7855 35.7833 19.0057 35.9988 19.1548C36.2166 19.3016 36.4924 19.375 36.8262 19.375ZM40.728 20V14.5455H41.5376V15.3977H41.6087C41.7223 15.1065 41.9058 14.8804 42.1591 14.7195C42.4124 14.5561 42.7166 14.4744 43.0717 14.4744C43.4316 14.4744 43.7311 14.5561 43.9702 14.7195C44.2116 14.8804 44.3999 15.1065 44.5348 15.3977H44.5916C44.7313 15.116 44.9408 14.8923 45.2202 14.7266C45.4995 14.5585 45.8345 14.4744 46.2251 14.4744C46.7128 14.4744 47.1117 14.6271 47.4219 14.9325C47.732 15.2356 47.8871 15.7079 47.8871 16.3494V20H47.049V16.3494C47.049 15.947 46.9389 15.6593 46.7188 15.4865C46.4986 15.3137 46.2393 15.2273 45.9411 15.2273C45.5575 15.2273 45.2604 15.3433 45.0497 15.5753C44.839 15.8049 44.7337 16.0961 44.7337 16.4489V20H43.8814V16.2642C43.8814 15.9541 43.7808 15.7043 43.5795 15.5149C43.3783 15.3232 43.1191 15.2273 42.8018 15.2273C42.584 15.2273 42.3804 15.2853 42.1911 15.4013C42.004 15.5173 41.8525 15.6783 41.7365 15.8842C41.6229 16.0878 41.5661 16.3234 41.5661 16.5909V20H40.728ZM51.7063 20.1136C51.1808 20.1136 50.7274 19.9976 50.3462 19.7656C49.9674 19.5312 49.6751 19.2045 49.4691 18.7855C49.2655 18.3641 49.1637 17.8741 49.1637 17.3153C49.1637 16.7566 49.2655 16.2642 49.4691 15.8381C49.6751 15.4096 49.9615 15.0758 50.3285 14.8366C50.6978 14.5952 51.1287 14.4744 51.6211 14.4744C51.9052 14.4744 52.1857 14.5218 52.4627 14.6165C52.7397 14.7112 52.9918 14.8651 53.2191 15.0781C53.4464 15.2888 53.6275 15.5682 53.7624 15.9162C53.8974 16.2642 53.9648 16.6927 53.9648 17.2017V17.5568H49.7603V16.8324H53.1126C53.1126 16.5246 53.051 16.25 52.9279 16.0085C52.8072 15.767 52.6344 15.5765 52.4094 15.4368C52.1869 15.2971 51.9241 15.2273 51.6211 15.2273C51.2873 15.2273 50.9985 15.3101 50.7546 15.4759C50.5131 15.6392 50.3273 15.8523 50.1971 16.1151C50.0669 16.3778 50.0018 16.6596 50.0018 16.9602V17.4432C50.0018 17.8551 50.0728 18.2043 50.2148 18.4908C50.3593 18.7749 50.5593 18.9915 50.815 19.1406C51.0707 19.2874 51.3678 19.3608 51.7063 19.3608C51.9265 19.3608 52.1254 19.33 52.3029 19.2685C52.4828 19.2045 52.6379 19.1098 52.7681 18.9844C52.8983 18.8565 52.9989 18.6979 53.07 18.5085L53.8796 18.7358C53.7944 19.0104 53.6512 19.2519 53.4499 19.4602C53.2487 19.6662 53.0001 19.8272 52.7042 19.9432C52.4083 20.0568 52.0756 20.1136 51.7063 20.1136Z" fill="var(--colors-neutral-neutral-800)"/>
</svg>
