<svg width="150" height="24" viewBox="0 0 150 24" fill="none" xmlns="http://www.w3.org/2000/svg">
<rect width="86" height="24" fill="white"/>
<rect width="86" height="24" fill="var(--colors-neutral-neutral-300)"/>
<path d="M14.2727 9.45455L11.8523 16H10.8295L8.40909 9.45455H9.5L11.3068 14.6705H11.375L13.1818 9.45455H14.2727ZM17.3271 16.1534C16.9123 16.1534 16.5359 16.0753 16.1978 15.919C15.8597 15.7599 15.5913 15.5312 15.3924 15.233C15.1935 14.9318 15.0941 14.5682 15.0941 14.142C15.0941 13.767 15.168 13.4631 15.3157 13.2301C15.4634 12.9943 15.6609 12.8097 15.908 12.6761C16.1552 12.5426 16.4279 12.4432 16.7262 12.3778C17.0273 12.3097 17.3299 12.2557 17.6339 12.2159C18.0316 12.1648 18.354 12.1264 18.6012 12.1009C18.8512 12.0724 19.033 12.0256 19.1467 11.9602C19.2631 11.8949 19.3214 11.7812 19.3214 11.6193V11.5852C19.3214 11.1648 19.2063 10.8381 18.9762 10.6051C18.7489 10.3722 18.4038 10.2557 17.9407 10.2557C17.4606 10.2557 17.0842 10.3608 16.8114 10.571C16.5387 10.7812 16.3469 11.0057 16.2362 11.2443L15.2816 10.9034C15.4521 10.5057 15.6793 10.196 15.9634 9.97443C16.2504 9.75 16.5629 9.59375 16.9009 9.50568C17.2418 9.41477 17.5771 9.36932 17.9066 9.36932C18.1168 9.36932 18.3583 9.39489 18.631 9.44602C18.9066 9.49432 19.1722 9.59517 19.4279 9.74858C19.6864 9.90199 19.9009 10.1335 20.0714 10.4432C20.2418 10.7528 20.3271 11.1676 20.3271 11.6875V16H19.3214V15.1136H19.2702C19.2021 15.2557 19.0884 15.4077 18.9293 15.5696C18.7702 15.7315 18.5586 15.8693 18.2944 15.983C18.0302 16.0966 17.7077 16.1534 17.3271 16.1534ZM17.4805 15.25C17.8782 15.25 18.2134 15.1719 18.4862 15.0156C18.7617 14.8594 18.9691 14.6577 19.1083 14.4105C19.2504 14.1634 19.3214 13.9034 19.3214 13.6307V12.7102C19.2788 12.7614 19.185 12.8082 19.0401 12.8509C18.8981 12.8906 18.7333 12.9261 18.5458 12.9574C18.3612 12.9858 18.1808 13.0114 18.0046 13.0341C17.8313 13.054 17.6907 13.071 17.5827 13.0852C17.3214 13.1193 17.0771 13.1747 16.8498 13.2514C16.6254 13.3253 16.4435 13.4375 16.3043 13.5881C16.168 13.7358 16.0998 13.9375 16.0998 14.1932C16.0998 14.5426 16.229 14.8068 16.4876 14.9858C16.7489 15.1619 17.0799 15.25 17.4805 15.25ZM23.1683 7.27273V16H22.1626V7.27273H23.1683Z" fill="var(--colors-neutral-neutral-800)"/>
<path d="M76.3352 14.1364V13.7528C76.3352 13.4877 76.3897 13.245 76.4986 13.0249C76.6098 12.8023 76.7708 12.6248 76.9815 12.4922C77.1946 12.3572 77.4527 12.2898 77.7557 12.2898C78.0634 12.2898 78.3215 12.3572 78.5298 12.4922C78.7382 12.6248 78.8956 12.8023 79.0021 13.0249C79.1087 13.245 79.1619 13.4877 79.1619 13.7528V14.1364C79.1619 14.4015 79.1075 14.6454 78.9986 14.8679C78.892 15.0881 78.7334 15.2656 78.5227 15.4006C78.3144 15.5331 78.0587 15.5994 77.7557 15.5994C77.4479 15.5994 77.1887 15.5331 76.978 15.4006C76.7673 15.2656 76.6075 15.0881 76.4986 14.8679C76.3897 14.6454 76.3352 14.4015 76.3352 14.1364ZM77.0597 13.7528V14.1364C77.0597 14.3565 77.1117 14.5542 77.2159 14.7294C77.3201 14.9022 77.5 14.9886 77.7557 14.9886C78.0043 14.9886 78.1795 14.9022 78.2812 14.7294C78.3854 14.5542 78.4375 14.3565 78.4375 14.1364V13.7528C78.4375 13.5327 78.3878 13.3362 78.2884 13.1634C78.1889 12.9882 78.0114 12.9006 77.7557 12.9006C77.5071 12.9006 77.3284 12.9882 77.2195 13.1634C77.1129 13.3362 77.0597 13.5327 77.0597 13.7528ZM72.7131 9.97443V9.59091C72.7131 9.32576 72.7675 9.0831 72.8764 8.86293C72.9877 8.64039 73.1487 8.46283 73.3594 8.33026C73.5724 8.19531 73.8305 8.12784 74.1335 8.12784C74.4413 8.12784 74.6993 8.19531 74.9077 8.33026C75.116 8.46283 75.2734 8.64039 75.38 8.86293C75.4865 9.0831 75.5398 9.32576 75.5398 9.59091V9.97443C75.5398 10.2396 75.4853 10.4834 75.3764 10.706C75.2699 10.9261 75.1113 11.1037 74.9006 11.2386C74.6922 11.3712 74.4366 11.4375 74.1335 11.4375C73.8258 11.4375 73.5665 11.3712 73.3558 11.2386C73.1451 11.1037 72.9853 10.9261 72.8764 10.706C72.7675 10.4834 72.7131 10.2396 72.7131 9.97443ZM73.4375 9.59091V9.97443C73.4375 10.1946 73.4896 10.3923 73.5938 10.5675C73.6979 10.7403 73.8778 10.8267 74.1335 10.8267C74.3821 10.8267 74.5573 10.7403 74.6591 10.5675C74.7633 10.3923 74.8153 10.1946 74.8153 9.97443V9.59091C74.8153 9.37074 74.7656 9.17424 74.6662 9.00142C74.5668 8.82623 74.3892 8.73864 74.1335 8.73864C73.8849 8.73864 73.7062 8.82623 73.5973 9.00142C73.4908 9.17424 73.4375 9.37074 73.4375 9.59091ZM72.983 15.5L77.983 8.22727H78.7926L73.7926 15.5H72.983Z" fill="var(--colors-neutral-neutral-700)"/>
<path d="M100.615 9H109V7C109 6.16667 108.708 5.45833 108.125 4.875C107.542 4.29167 106.833 4 106 4C105.167 4 104.458 4.29167 103.875 4.875C103.292 5.45833 103 6.16667 103 7H102C102 5.8859 102.388 4.94071 103.164 4.16442C103.941 3.38814 104.886 3 106 3C107.114 3 108.059 3.38814 108.836 4.16442C109.612 4.94071 110 5.8859 110 7V9H111.385C111.832 9 112.213 9.15737 112.528 9.4721C112.843 9.78685 113 10.1679 113 10.6154V19.3846C113 19.8321 112.843 20.2132 112.528 20.5279C112.213 20.8426 111.832 21 111.385 21H100.615C100.168 21 99.7869 20.8426 99.4721 20.5279C99.1574 20.2132 99 19.8321 99 19.3846V10.6154C99 10.1679 99.1574 9.78685 99.4721 9.4721C99.7869 9.15737 100.168 9 100.615 9ZM100.615 20H111.385C111.564 20 111.712 19.9423 111.827 19.8269C111.942 19.7115 112 19.5641 112 19.3846V10.6154C112 10.4359 111.942 10.2885 111.827 10.1731C111.712 10.0577 111.564 10 111.385 10H100.615C100.436 10 100.288 10.0577 100.173 10.1731C100.058 10.2885 100 10.4359 100 10.6154V19.3846C100 19.5641 100.058 19.7115 100.173 19.8269C100.288 19.9423 100.436 20 100.615 20ZM106 16.5C106.422 16.5 106.777 16.3554 107.066 16.0663C107.355 15.7773 107.5 15.4218 107.5 15C107.5 14.5782 107.355 14.2228 107.066 13.9337C106.777 13.6446 106.422 13.5 106 13.5C105.578 13.5 105.223 13.6446 104.934 13.9337C104.645 14.2228 104.5 14.5782 104.5 15C104.5 15.4218 104.645 15.7773 104.934 16.0663C105.223 16.3554 105.578 16.5 106 16.5Z" fill="var(--colors-neutral-neutral-600)"/>
<path d="M141.446 12.6461L140.65 11.85C140.8 10.9769 140.553 10.2211 139.908 9.58269C139.263 8.94422 138.51 8.69999 137.65 8.84999L136.854 8.05384C137.022 7.98461 137.197 7.93268 137.38 7.89806C137.563 7.86345 137.769 7.84614 138 7.84614C139.019 7.84614 139.883 8.20031 140.591 8.90864C141.3 9.61697 141.654 10.4808 141.654 11.5C141.654 11.7308 141.637 11.9439 141.602 12.1394C141.567 12.3349 141.515 12.5038 141.446 12.6461ZM144.608 15.7192L143.85 15.05C144.483 14.5667 145.046 14.0375 145.538 13.4625C146.029 12.8875 146.45 12.2333 146.8 11.5C145.967 9.81666 144.771 8.47916 143.213 7.48749C141.654 6.49582 139.917 5.99999 138 5.99999C137.517 5.99999 137.042 6.03332 136.575 6.09999C136.108 6.16666 135.65 6.26666 135.2 6.39999L134.419 5.61921C135 5.39998 135.591 5.24196 136.192 5.14516C136.794 5.04838 137.396 4.99999 138 4.99999C140.171 4.99999 142.156 5.59646 143.956 6.78941C145.756 7.98236 147.078 9.55256 147.923 11.5C147.565 12.3038 147.113 13.0593 146.564 13.7663C146.016 14.4734 145.364 15.1243 144.608 15.7192ZM145.723 21.1385L141.831 17.2577C141.388 17.4538 140.839 17.6266 140.184 17.776C139.528 17.9253 138.8 18 138 18C135.817 18 133.831 17.4035 132.044 16.2106C130.257 15.0176 128.935 13.4474 128.077 11.5C128.465 10.6167 128.978 9.78941 129.613 9.01826C130.249 8.24711 130.928 7.6 131.65 7.07691L128.862 4.27691L129.569 3.56921L146.431 20.4308L145.723 21.1385ZM132.358 7.78461C131.785 8.1923 131.199 8.72819 130.6 9.39229C130.001 10.0564 129.535 10.759 129.2 11.5C130.033 13.1833 131.229 14.5208 132.788 15.5125C134.346 16.5042 136.083 17 138 17C138.577 17 139.158 16.9439 139.744 16.8317C140.33 16.7195 140.771 16.6064 141.065 16.4923L139.435 14.85C139.277 14.9385 139.057 15.0112 138.775 15.0683C138.493 15.1253 138.235 15.1538 138 15.1538C136.981 15.1538 136.117 14.7997 135.409 14.0913C134.7 13.383 134.346 12.5192 134.346 11.5C134.346 11.2782 134.375 11.0295 134.432 10.7538C134.489 10.4782 134.562 10.2487 134.65 10.0654L132.358 7.78461Z" fill="var(--colors-neutral-neutral-600)"/>
</svg>
