<svg width="54" height="102" viewBox="0 0 54 102" fill="none" xmlns="http://www.w3.org/2000/svg">
<g opacity="0.8" filter="url(#filter0_d_1426_9156)">
<rect x="3" y="2" width="48" height="96" rx="4" fill="white"/>
<rect x="7" y="6" width="40" height="40" rx="4" fill="white"/>
<path d="M34.4038 32.5V29C34.4038 28.0256 34.0641 27.1987 33.3846 26.5192C32.7051 25.8397 31.8782 25.5 30.9038 25.5H20.5115L24.6115 29.6L23.9038 30.3077L18.5961 25L23.9038 19.6923L24.6115 20.4L20.5115 24.5H30.9038C32.1461 24.5 33.2067 24.9394 34.0856 25.8183C34.9644 26.6971 35.4038 27.7577 35.4038 29V32.5H34.4038Z" fill="#222222"/>
<rect x="7" y="54" width="40" height="40" rx="4" fill="white"/>
<path d="M18.5961 80.5V77C18.5961 75.7577 19.0356 74.6971 19.9144 73.8183C20.7933 72.9394 21.8538 72.5 23.0961 72.5H33.4884L29.3884 68.4L30.0961 67.6923L35.4038 73L30.0961 78.3077L29.3884 77.6L33.4884 73.5H23.0961C22.1218 73.5 21.2949 73.8397 20.6154 74.5192C19.9359 75.1987 19.5961 76.0256 19.5961 77V80.5H18.5961Z" fill="#222222"/>
</g>
<defs>
<filter id="filter0_d_1426_9156" x="0" y="0" width="54" height="102" filterUnits="userSpaceOnUse" color-interpolation-filters="sRGB">
<feFlood flood-opacity="0" result="BackgroundImageFix"/>
<feColorMatrix in="SourceAlpha" type="matrix" values="0 0 0 0 0 0 0 0 0 0 0 0 0 0 0 0 0 0 127 0" result="hardAlpha"/>
<feOffset dy="1"/>
<feGaussianBlur stdDeviation="1.5"/>
<feComposite in2="hardAlpha" operator="out"/>
<feColorMatrix type="matrix" values="0 0 0 0 0 0 0 0 0 0 0 0 0 0 0 0 0 0 0.2 0"/>
<feBlend mode="normal" in2="BackgroundImageFix" result="effect1_dropShadow_1426_9156"/>
<feBlend mode="normal" in="SourceGraphic" in2="effect1_dropShadow_1426_9156" result="shape"/>
</filter>
</defs>
</svg>
