<svg width="400" height="161" viewBox="0 0 400 161" fill="none" xmlns="http://www.w3.org/2000/svg">
<rect x="0.5" y="0.5" width="399" height="160" fill="white"/>
<rect x="0.5" y="0.5" width="399" height="160" stroke="var(--colors-neutral-neutral-400)"/>
<path d="M17.233 23.3182H18.7045L22.1648 31.7699H22.2841L25.7443 23.3182H27.2159V33.5H26.0625V25.7642H25.9631L22.7812 33.5H21.6676L18.4858 25.7642H18.3864V33.5H17.233V23.3182ZM31.7761 33.679C31.2922 33.679 30.853 33.5878 30.4586 33.4055C30.0642 33.2199 29.751 32.9531 29.519 32.6051C29.287 32.2538 29.171 31.8295 29.171 31.3324C29.171 30.8949 29.2572 30.5402 29.4295 30.2685C29.6019 29.9934 29.8322 29.7779 30.1206 29.6222C30.4089 29.4664 30.7271 29.3504 31.0751 29.2741C31.4264 29.1946 31.7794 29.1316 32.1341 29.0852C32.5981 29.0256 32.9743 28.9808 33.2626 28.951C33.5543 28.9179 33.7664 28.8632 33.899 28.7869C34.0349 28.7107 34.1028 28.5781 34.1028 28.3892V28.3494C34.1028 27.8589 33.9686 27.4777 33.7001 27.206C33.435 26.9342 33.0323 26.7983 32.492 26.7983C31.9319 26.7983 31.4927 26.9209 31.1745 27.1662C30.8564 27.4115 30.6326 27.6733 30.5034 27.9517L29.3897 27.554C29.5886 27.09 29.8538 26.7287 30.1852 26.4702C30.5199 26.2083 30.8845 26.026 31.2789 25.9233C31.6767 25.8172 32.0678 25.7642 32.4522 25.7642C32.6975 25.7642 32.9792 25.794 33.2974 25.8537C33.6189 25.91 33.9288 26.0277 34.2271 26.2067C34.5287 26.3857 34.7789 26.6558 34.9778 27.017C35.1767 27.3783 35.2761 27.8622 35.2761 28.4688V33.5H34.1028V32.4659H34.0431C33.9636 32.6316 33.831 32.8089 33.6454 32.9979C33.4598 33.1868 33.2129 33.3475 32.9047 33.4801C32.5964 33.6127 32.2202 33.679 31.7761 33.679ZM31.9551 32.625C32.4191 32.625 32.8102 32.5339 33.1284 32.3516C33.4499 32.1693 33.6918 31.9339 33.8542 31.6456C34.0199 31.3572 34.1028 31.054 34.1028 30.7358V29.6619C34.0531 29.7216 33.9437 29.7763 33.7747 29.826C33.609 29.8724 33.4167 29.9138 33.198 29.9503C32.9825 29.9834 32.7721 30.0133 32.5666 30.0398C32.3644 30.063 32.2003 30.0829 32.0744 30.0994C31.7695 30.1392 31.4844 30.2038 31.2193 30.2933C30.9574 30.3795 30.7453 30.5104 30.5829 30.6861C30.4238 30.8584 30.3443 31.0937 30.3443 31.392C30.3443 31.7997 30.4951 32.108 30.7967 32.3168C31.1016 32.5223 31.4877 32.625 31.9551 32.625ZM38.5909 28.9062V33.5H37.4176V25.8636H38.5511V27.0568H38.6506C38.8295 26.669 39.1013 26.3575 39.4659 26.1222C39.8305 25.8835 40.3011 25.7642 40.8778 25.7642C41.3949 25.7642 41.8473 25.8703 42.2351 26.0824C42.6229 26.2912 42.9245 26.6094 43.1399 27.0369C43.3554 27.4612 43.4631 27.9981 43.4631 28.6477V33.5H42.2898V28.7273C42.2898 28.1274 42.134 27.66 41.8224 27.3253C41.5109 26.9872 41.0833 26.8182 40.5398 26.8182C40.1652 26.8182 39.8305 26.8994 39.5355 27.0618C39.2438 27.2242 39.0135 27.4612 38.8445 27.7727C38.6754 28.0843 38.5909 28.4621 38.5909 28.9062ZM50.4196 30.3778V25.8636H51.5929V33.5H50.4196V32.2074H50.34C50.161 32.5952 49.8826 32.925 49.5048 33.1967C49.127 33.4652 48.6497 33.5994 48.073 33.5994C47.5957 33.5994 47.1715 33.495 46.8002 33.2862C46.429 33.0741 46.1374 32.7559 45.9252 32.3317C45.7131 31.9041 45.6071 31.3655 45.6071 30.7159V25.8636H46.7804V30.6364C46.7804 31.1932 46.9361 31.6373 47.2477 31.9688C47.5626 32.3002 47.9636 32.4659 48.4508 32.4659C48.7425 32.4659 49.0391 32.3913 49.3407 32.2422C49.6457 32.093 49.9009 31.8643 50.1064 31.5561C50.3152 31.2479 50.4196 30.8551 50.4196 30.3778ZM55.989 33.679C55.5051 33.679 55.0659 33.5878 54.6715 33.4055C54.2771 33.2199 53.9639 32.9531 53.7319 32.6051C53.4999 32.2538 53.3839 31.8295 53.3839 31.3324C53.3839 30.8949 53.4701 30.5402 53.6424 30.2685C53.8147 29.9934 54.0451 29.7779 54.3335 29.6222C54.6218 29.4664 54.94 29.3504 55.288 29.2741C55.6393 29.1946 55.9923 29.1316 56.3469 29.0852C56.811 29.0256 57.1871 28.9808 57.4755 28.951C57.7672 28.9179 57.9793 28.8632 58.1119 28.7869C58.2478 28.7107 58.3157 28.5781 58.3157 28.3892V28.3494C58.3157 27.8589 58.1815 27.4777 57.913 27.206C57.6478 26.9342 57.2451 26.7983 56.7049 26.7983C56.1448 26.7983 55.7056 26.9209 55.3874 27.1662C55.0692 27.4115 54.8455 27.6733 54.7163 27.9517L53.6026 27.554C53.8015 27.09 54.0666 26.7287 54.3981 26.4702C54.7328 26.2083 55.0974 26.026 55.4918 25.9233C55.8896 25.8172 56.2807 25.7642 56.6651 25.7642C56.9104 25.7642 57.1921 25.794 57.5103 25.8537C57.8318 25.91 58.1417 26.0277 58.44 26.2067C58.7416 26.3857 58.9918 26.6558 59.1907 27.017C59.3896 27.3783 59.489 27.8622 59.489 28.4688V33.5H58.3157V32.4659H58.256C58.1765 32.6316 58.0439 32.8089 57.8583 32.9979C57.6727 33.1868 57.4258 33.3475 57.1175 33.4801C56.8093 33.6127 56.4331 33.679 55.989 33.679ZM56.168 32.625C56.632 32.625 57.0231 32.5339 57.3413 32.3516C57.6628 32.1693 57.9047 31.9339 58.0671 31.6456C58.2328 31.3572 58.3157 31.054 58.3157 30.7358V29.6619C58.266 29.7216 58.1566 29.7763 57.9876 29.826C57.8219 29.8724 57.6296 29.9138 57.4109 29.9503C57.1954 29.9834 56.985 30.0133 56.7795 30.0398C56.5773 30.063 56.4132 30.0829 56.2873 30.0994C55.9824 30.1392 55.6973 30.2038 55.4322 30.2933C55.1703 30.3795 54.9582 30.5104 54.7958 30.6861C54.6367 30.8584 54.5572 31.0937 54.5572 31.392C54.5572 31.7997 54.708 32.108 55.0096 32.3168C55.3145 32.5223 55.7006 32.625 56.168 32.625ZM62.8038 23.3182V33.5H61.6305V23.3182H62.8038ZM68.8903 36.3636V25.8636H70.0238V27.0767H70.163C70.2492 26.9441 70.3685 26.7751 70.521 26.5696C70.6767 26.3608 70.8988 26.1752 71.1871 26.0128C71.4788 25.8471 71.8732 25.7642 72.3704 25.7642C73.0134 25.7642 73.5801 25.925 74.0707 26.2464C74.5612 26.5679 74.944 27.0237 75.2191 27.6136C75.4942 28.2036 75.6317 28.8996 75.6317 29.7017C75.6317 30.5104 75.4942 31.2114 75.2191 31.8047C74.944 32.3946 74.5629 32.852 74.0756 33.1768C73.5884 33.4983 73.0266 33.6591 72.3903 33.6591C71.8997 33.6591 71.507 33.5779 71.212 33.4155C70.917 33.2498 70.69 33.0625 70.5309 32.8537C70.3718 32.6416 70.2492 32.4659 70.163 32.3267H70.0636V36.3636H68.8903ZM70.0437 29.6818C70.0437 30.2585 70.1282 30.7673 70.2972 31.2081C70.4663 31.6456 70.7132 31.9886 71.038 32.2372C71.3628 32.4825 71.7605 32.6051 72.2312 32.6051C72.7217 32.6051 73.131 32.4759 73.4592 32.2173C73.7906 31.9555 74.0392 31.6042 74.2049 31.1634C74.3739 30.7192 74.4585 30.2254 74.4585 29.6818C74.4585 29.1449 74.3756 28.661 74.2099 28.2301C74.0475 27.7959 73.8005 27.4529 73.4691 27.201C73.141 26.9458 72.7283 26.8182 72.2312 26.8182C71.7539 26.8182 71.3529 26.9392 71.0281 27.1811C70.7032 27.4197 70.458 27.7545 70.2923 28.1854C70.1265 28.6129 70.0437 29.1117 70.0437 29.6818ZM77.4215 33.5V25.8636H78.555V27.017H78.6346C78.7738 26.6392 79.0257 26.3326 79.3903 26.0973C79.7549 25.862 80.1658 25.7443 80.6232 25.7443C80.7094 25.7443 80.8171 25.746 80.9464 25.7493C81.0756 25.7526 81.1734 25.7576 81.2397 25.7642V26.9574C81.1999 26.9474 81.1088 26.9325 80.9663 26.9126C80.8271 26.8894 80.6796 26.8778 80.5238 26.8778C80.1526 26.8778 79.8211 26.9557 79.5295 27.1115C79.2411 27.264 79.0124 27.4761 78.8434 27.7479C78.6777 28.0163 78.5948 28.3229 78.5948 28.6676V33.5H77.4215ZM85.5004 33.6591C84.811 33.6591 84.2061 33.495 83.6857 33.1669C83.1687 32.8388 82.7643 32.3797 82.4727 31.7898C82.1843 31.1998 82.0401 30.5104 82.0401 29.7216C82.0401 28.9261 82.1843 28.2318 82.4727 27.6385C82.7643 27.0452 83.1687 26.5845 83.6857 26.2564C84.2061 25.9283 84.811 25.7642 85.5004 25.7642C86.1897 25.7642 86.793 25.9283 87.31 26.2564C87.8304 26.5845 88.2347 27.0452 88.5231 27.6385C88.8147 28.2318 88.9606 28.9261 88.9606 29.7216C88.9606 30.5104 88.8147 31.1998 88.5231 31.7898C88.2347 32.3797 87.8304 32.8388 87.31 33.1669C86.793 33.495 86.1897 33.6591 85.5004 33.6591ZM85.5004 32.6051C86.024 32.6051 86.4549 32.4709 86.793 32.2024C87.131 31.9339 87.3813 31.581 87.5437 31.1435C87.7061 30.706 87.7873 30.232 87.7873 29.7216C87.7873 29.2112 87.7061 28.7356 87.5437 28.2947C87.3813 27.8539 87.131 27.4976 86.793 27.2259C86.4549 26.9541 86.024 26.8182 85.5004 26.8182C84.9767 26.8182 84.5458 26.9541 84.2077 27.2259C83.8697 27.4976 83.6194 27.8539 83.457 28.2947C83.2946 28.7356 83.2134 29.2112 83.2134 29.7216C83.2134 30.232 83.2946 30.706 83.457 31.1435C83.6194 31.581 83.8697 31.9339 84.2077 32.2024C84.5458 32.4709 84.9767 32.6051 85.5004 32.6051ZM93.8539 33.6591C93.138 33.6591 92.5215 33.4901 92.0044 33.152C91.4874 32.8139 91.0897 32.3482 90.8113 31.755C90.5328 31.1617 90.3936 30.4839 90.3936 29.7216C90.3936 28.946 90.5362 28.2616 90.8212 27.6683C91.1096 27.0717 91.5106 26.6061 92.0243 26.2713C92.5414 25.9332 93.1446 25.7642 93.834 25.7642C94.3709 25.7642 94.8548 25.8636 95.2857 26.0625C95.7166 26.2614 96.0695 26.5398 96.3446 26.8977C96.6197 27.2557 96.7904 27.6733 96.8567 28.1506H95.6834C95.5939 27.8026 95.3951 27.4943 95.0868 27.2259C94.7819 26.9541 94.3709 26.8182 93.8539 26.8182C93.3965 26.8182 92.9954 26.9375 92.6507 27.1761C92.3094 27.4115 92.0426 27.7446 91.8503 28.1754C91.6614 28.603 91.5669 29.1051 91.5669 29.6818C91.5669 30.2718 91.6597 30.7855 91.8453 31.223C92.0343 31.6605 92.2994 32.0002 92.6408 32.2422C92.9855 32.4841 93.3899 32.6051 93.8539 32.6051C94.1588 32.6051 94.4355 32.5521 94.6841 32.446C94.9327 32.34 95.1432 32.1875 95.3155 31.9886C95.4879 31.7898 95.6105 31.5511 95.6834 31.2727H96.8567C96.7904 31.7235 96.6264 32.1295 96.3645 32.4908C96.106 32.8487 95.763 33.1338 95.3354 33.3459C94.9112 33.5547 94.4173 33.6591 93.8539 33.6591ZM101.774 33.6591C101.038 33.6591 100.403 33.4967 99.8695 33.1719C99.3392 32.8438 98.9299 32.3864 98.6415 31.7997C98.3565 31.2098 98.214 30.5237 98.214 29.7415C98.214 28.9593 98.3565 28.2699 98.6415 27.6733C98.9299 27.0734 99.3309 26.6061 99.8446 26.2713C100.362 25.9332 100.965 25.7642 101.654 25.7642C102.052 25.7642 102.445 25.8305 102.833 25.9631C103.22 26.0956 103.573 26.3111 103.892 26.6094C104.21 26.9044 104.463 27.2955 104.652 27.7827C104.841 28.2699 104.936 28.8698 104.936 29.5824V30.0795H99.0492V29.0653H103.742C103.742 28.6345 103.656 28.25 103.484 27.9119C103.315 27.5739 103.073 27.3071 102.758 27.1115C102.446 26.916 102.079 26.8182 101.654 26.8182C101.187 26.8182 100.783 26.9342 100.441 27.1662C100.103 27.3949 99.843 27.6932 99.6607 28.0611C99.4784 28.429 99.3873 28.8234 99.3873 29.2443V29.9205C99.3873 30.4972 99.4867 30.986 99.6855 31.3871C99.8877 31.7848 100.168 32.0881 100.526 32.2969C100.884 32.5024 101.3 32.6051 101.774 32.6051C102.082 32.6051 102.36 32.562 102.609 32.4759C102.861 32.3864 103.078 32.2538 103.26 32.0781C103.442 31.8991 103.583 31.6771 103.683 31.4119L104.816 31.7301C104.697 32.1146 104.496 32.4527 104.215 32.7443C103.933 33.0327 103.585 33.258 103.171 33.4205C102.756 33.5795 102.291 33.6591 101.774 33.6591ZM112.129 27.5739L111.075 27.8722C111.009 27.6965 110.911 27.5258 110.782 27.3601C110.656 27.1911 110.484 27.0518 110.265 26.9425C110.046 26.8331 109.766 26.7784 109.425 26.7784C108.958 26.7784 108.568 26.8861 108.257 27.1016C107.948 27.3137 107.794 27.5838 107.794 27.9119C107.794 28.2036 107.9 28.4339 108.112 28.603C108.325 28.772 108.656 28.9129 109.107 29.0256L110.24 29.304C110.923 29.4697 111.432 29.7232 111.767 30.0646C112.101 30.4027 112.269 30.8385 112.269 31.3722C112.269 31.8097 112.143 32.2008 111.891 32.5455C111.642 32.8902 111.294 33.1619 110.847 33.3608C110.399 33.5597 109.879 33.6591 109.286 33.6591C108.507 33.6591 107.862 33.4901 107.352 33.152C106.841 32.8139 106.518 32.3201 106.382 31.6705L107.496 31.392C107.602 31.803 107.802 32.1113 108.097 32.3168C108.396 32.5223 108.785 32.625 109.266 32.625C109.813 32.625 110.247 32.509 110.568 32.277C110.893 32.0417 111.056 31.7599 111.056 31.4318C111.056 31.1667 110.963 30.9446 110.777 30.7656C110.592 30.5833 110.307 30.4474 109.922 30.358L108.649 30.0597C107.95 29.8939 107.436 29.6371 107.108 29.2891C106.783 28.9377 106.621 28.4986 106.621 27.9716C106.621 27.5407 106.742 27.1596 106.984 26.8281C107.229 26.4967 107.562 26.2365 107.983 26.0476C108.407 25.8587 108.888 25.7642 109.425 25.7642C110.181 25.7642 110.774 25.9299 111.205 26.2614C111.639 26.5928 111.947 27.0303 112.129 27.5739ZM119.444 27.5739L118.39 27.8722C118.324 27.6965 118.226 27.5258 118.097 27.3601C117.971 27.1911 117.798 27.0518 117.58 26.9425C117.361 26.8331 117.081 26.7784 116.739 26.7784C116.272 26.7784 115.883 26.8861 115.571 27.1016C115.263 27.3137 115.109 27.5838 115.109 27.9119C115.109 28.2036 115.215 28.4339 115.427 28.603C115.639 28.772 115.97 28.9129 116.421 29.0256L117.555 29.304C118.237 29.4697 118.746 29.7232 119.081 30.0646C119.416 30.4027 119.583 30.8385 119.583 31.3722C119.583 31.8097 119.457 32.2008 119.205 32.5455C118.957 32.8902 118.609 33.1619 118.161 33.3608C117.714 33.5597 117.193 33.6591 116.6 33.6591C115.821 33.6591 115.177 33.4901 114.666 33.152C114.156 32.8139 113.833 32.3201 113.697 31.6705L114.81 31.392C114.916 31.803 115.117 32.1113 115.412 32.3168C115.71 32.5223 116.1 32.625 116.58 32.625C117.127 32.625 117.561 32.509 117.883 32.277C118.208 32.0417 118.37 31.7599 118.37 31.4318C118.37 31.1667 118.277 30.9446 118.092 30.7656C117.906 30.5833 117.621 30.4474 117.237 30.358L115.964 30.0597C115.264 29.8939 114.751 29.6371 114.423 29.2891C114.098 28.9377 113.935 28.4986 113.935 27.9716C113.935 27.5407 114.056 27.1596 114.298 26.8281C114.544 26.4967 114.877 26.2365 115.298 26.0476C115.722 25.8587 116.202 25.7642 116.739 25.7642C117.495 25.7642 118.088 25.9299 118.519 26.2614C118.953 26.5928 119.262 27.0303 119.444 27.5739ZM130.696 27.5739L129.642 27.8722C129.576 27.6965 129.478 27.5258 129.349 27.3601C129.223 27.1911 129.05 27.0518 128.831 26.9425C128.613 26.8331 128.333 26.7784 127.991 26.7784C127.524 26.7784 127.135 26.8861 126.823 27.1016C126.515 27.3137 126.361 27.5838 126.361 27.9119C126.361 28.2036 126.467 28.4339 126.679 28.603C126.891 28.772 127.222 28.9129 127.673 29.0256L128.807 29.304C129.489 29.4697 129.998 29.7232 130.333 30.0646C130.668 30.4027 130.835 30.8385 130.835 31.3722C130.835 31.8097 130.709 32.2008 130.457 32.5455C130.209 32.8902 129.861 33.1619 129.413 33.3608C128.966 33.5597 128.445 33.6591 127.852 33.6591C127.073 33.6591 126.429 33.4901 125.918 33.152C125.408 32.8139 125.085 32.3201 124.949 31.6705L126.062 31.392C126.168 31.803 126.369 32.1113 126.664 32.3168C126.962 32.5223 127.352 32.625 127.832 32.625C128.379 32.625 128.813 32.509 129.135 32.277C129.46 32.0417 129.622 31.7599 129.622 31.4318C129.622 31.1667 129.529 30.9446 129.344 30.7656C129.158 30.5833 128.873 30.4474 128.488 30.358L127.216 30.0597C126.516 29.8939 126.003 29.6371 125.675 29.2891C125.35 28.9377 125.187 28.4986 125.187 27.9716C125.187 27.5407 125.308 27.1596 125.55 26.8281C125.796 26.4967 126.129 26.2365 126.55 26.0476C126.974 25.8587 127.454 25.7642 127.991 25.7642C128.747 25.7642 129.34 25.9299 129.771 26.2614C130.205 26.5928 130.514 27.0303 130.696 27.5739ZM135.803 33.6591C135.067 33.6591 134.432 33.4967 133.899 33.1719C133.368 32.8438 132.959 32.3864 132.671 31.7997C132.386 31.2098 132.243 30.5237 132.243 29.7415C132.243 28.9593 132.386 28.2699 132.671 27.6733C132.959 27.0734 133.36 26.6061 133.874 26.2713C134.391 25.9332 134.994 25.7642 135.684 25.7642C136.081 25.7642 136.474 25.8305 136.862 25.9631C137.25 26.0956 137.603 26.3111 137.921 26.6094C138.239 26.9044 138.493 27.2955 138.681 27.7827C138.87 28.2699 138.965 28.8698 138.965 29.5824V30.0795H133.078V29.0653H137.772C137.772 28.6345 137.685 28.25 137.513 27.9119C137.344 27.5739 137.102 27.3071 136.787 27.1115C136.476 26.916 136.108 26.8182 135.684 26.8182C135.216 26.8182 134.812 26.9342 134.471 27.1662C134.132 27.3949 133.872 27.6932 133.69 28.0611C133.508 28.429 133.417 28.8234 133.417 29.2443V29.9205C133.417 30.4972 133.516 30.986 133.715 31.3871C133.917 31.7848 134.197 32.0881 134.555 32.2969C134.913 32.5024 135.329 32.6051 135.803 32.6051C136.111 32.6051 136.39 32.562 136.638 32.4759C136.89 32.3864 137.107 32.2538 137.289 32.0781C137.472 31.8991 137.613 31.6771 137.712 31.4119L138.846 31.7301C138.726 32.1146 138.526 32.4527 138.244 32.7443C137.962 33.0327 137.614 33.258 137.2 33.4205C136.786 33.5795 136.32 33.6591 135.803 33.6591ZM144.071 25.8636V26.858H140.113V25.8636H144.071ZM141.267 24.0341H142.44V31.3125C142.44 31.6439 142.488 31.8925 142.584 32.0582C142.684 32.2206 142.81 32.33 142.962 32.3864C143.118 32.4394 143.282 32.4659 143.454 32.4659C143.583 32.4659 143.69 32.4593 143.772 32.446C143.855 32.4295 143.922 32.4162 143.971 32.4062L144.21 33.4602C144.13 33.4901 144.019 33.5199 143.877 33.5497C143.734 33.5829 143.554 33.5994 143.335 33.5994C143.003 33.5994 142.679 33.5282 142.36 33.3857C142.046 33.2431 141.784 33.026 141.575 32.7344C141.369 32.4427 141.267 32.0748 141.267 31.6307V24.0341ZM149.157 25.8636V26.858H145.199V25.8636H149.157ZM146.353 24.0341H147.526V31.3125C147.526 31.6439 147.574 31.8925 147.67 32.0582C147.77 32.2206 147.895 32.33 148.048 32.3864C148.204 32.4394 148.368 32.4659 148.54 32.4659C148.669 32.4659 148.775 32.4593 148.858 32.446C148.941 32.4295 149.007 32.4162 149.057 32.4062L149.296 33.4602C149.216 33.4901 149.105 33.5199 148.963 33.5497C148.82 33.5829 148.64 33.5994 148.421 33.5994C148.089 33.5994 147.765 33.5282 147.446 33.3857C147.132 33.2431 146.87 33.026 146.661 32.7344C146.455 32.4427 146.353 32.0748 146.353 31.6307V24.0341ZM150.922 33.5V25.8636H152.095V33.5H150.922ZM151.518 24.5909C151.289 24.5909 151.092 24.513 150.926 24.3572C150.764 24.2015 150.683 24.0142 150.683 23.7955C150.683 23.5767 150.764 23.3894 150.926 23.2337C151.092 23.0779 151.289 23 151.518 23C151.747 23 151.942 23.0779 152.105 23.2337C152.27 23.3894 152.353 23.5767 152.353 23.7955C152.353 24.0142 152.27 24.2015 152.105 24.3572C151.942 24.513 151.747 24.5909 151.518 24.5909ZM155.417 28.9062V33.5H154.244V25.8636H155.377V27.0568H155.477C155.656 26.669 155.927 26.3575 156.292 26.1222C156.657 25.8835 157.127 25.7642 157.704 25.7642C158.221 25.7642 158.673 25.8703 159.061 26.0824C159.449 26.2912 159.751 26.6094 159.966 27.0369C160.182 27.4612 160.289 27.9981 160.289 28.6477V33.5H159.116V28.7273C159.116 28.1274 158.96 27.66 158.649 27.3253C158.337 26.9872 157.91 26.8182 157.366 26.8182C156.991 26.8182 156.657 26.8994 156.362 27.0618C156.07 27.2242 155.84 27.4612 155.671 27.7727C155.502 28.0843 155.417 28.4621 155.417 28.9062ZM165.516 36.5227C164.949 36.5227 164.462 36.4498 164.054 36.304C163.646 36.1615 163.307 35.9725 163.035 35.7372C162.766 35.5052 162.553 35.2566 162.393 34.9915L163.328 34.3352C163.434 34.4744 163.568 34.6335 163.731 34.8125C163.893 34.9948 164.115 35.1522 164.397 35.2848C164.682 35.4207 165.055 35.4886 165.516 35.4886C166.132 35.4886 166.641 35.3395 167.042 35.0412C167.443 34.7429 167.643 34.2756 167.643 33.6392V32.0881H167.544C167.458 32.2273 167.335 32.3996 167.176 32.6051C167.02 32.8073 166.795 32.9879 166.5 33.147C166.208 33.3028 165.814 33.3807 165.317 33.3807C164.7 33.3807 164.147 33.2348 163.656 32.9432C163.169 32.6515 162.783 32.2273 162.498 31.6705C162.216 31.1136 162.075 30.4375 162.075 29.642C162.075 28.8598 162.213 28.1787 162.488 27.5987C162.763 27.0154 163.146 26.5646 163.636 26.2464C164.127 25.925 164.694 25.7642 165.337 25.7642C165.834 25.7642 166.228 25.8471 166.52 26.0128C166.815 26.1752 167.04 26.3608 167.196 26.5696C167.355 26.7751 167.478 26.9441 167.564 27.0767H167.683V25.8636H168.817V33.7188C168.817 34.375 168.668 34.9086 168.369 35.3196C168.074 35.7339 167.677 36.0372 167.176 36.2294C166.679 36.425 166.125 36.5227 165.516 36.5227ZM165.476 32.3267C165.946 32.3267 166.344 32.219 166.669 32.0036C166.994 31.7881 167.241 31.4782 167.41 31.0739C167.579 30.6695 167.663 30.1856 167.663 29.6222C167.663 29.072 167.58 28.5864 167.415 28.1655C167.249 27.7446 167.004 27.4148 166.679 27.1761C166.354 26.9375 165.953 26.8182 165.476 26.8182C164.979 26.8182 164.564 26.9441 164.233 27.196C163.905 27.4479 163.658 27.786 163.492 28.2102C163.33 28.6345 163.249 29.1051 163.249 29.6222C163.249 30.1525 163.331 30.6214 163.497 31.0291C163.666 31.4335 163.915 31.7517 164.243 31.9837C164.574 32.2124 164.985 32.3267 165.476 32.3267ZM176.374 27.5739L175.32 27.8722C175.253 27.6965 175.156 27.5258 175.026 27.3601C174.9 27.1911 174.728 27.0518 174.509 26.9425C174.29 26.8331 174.01 26.7784 173.669 26.7784C173.202 26.7784 172.812 26.8861 172.501 27.1016C172.192 27.3137 172.038 27.5838 172.038 27.9119C172.038 28.2036 172.144 28.4339 172.357 28.603C172.569 28.772 172.9 28.9129 173.351 29.0256L174.484 29.304C175.167 29.4697 175.676 29.7232 176.011 30.0646C176.345 30.4027 176.513 30.8385 176.513 31.3722C176.513 31.8097 176.387 32.2008 176.135 32.5455C175.886 32.8902 175.538 33.1619 175.091 33.3608C174.643 33.5597 174.123 33.6591 173.53 33.6591C172.751 33.6591 172.106 33.4901 171.596 33.152C171.085 32.8139 170.762 32.3201 170.626 31.6705L171.74 31.392C171.846 31.803 172.047 32.1113 172.342 32.3168C172.64 32.5223 173.029 32.625 173.51 32.625C174.057 32.625 174.491 32.509 174.812 32.277C175.137 32.0417 175.3 31.7599 175.3 31.4318C175.3 31.1667 175.207 30.9446 175.021 30.7656C174.836 30.5833 174.551 30.4474 174.166 30.358L172.893 30.0597C172.194 29.8939 171.68 29.6371 171.352 29.2891C171.027 28.9377 170.865 28.4986 170.865 27.9716C170.865 27.5407 170.986 27.1596 171.228 26.8281C171.473 26.4967 171.806 26.2365 172.227 26.0476C172.652 25.8587 173.132 25.7642 173.669 25.7642C174.425 25.7642 175.018 25.9299 175.449 26.2614C175.883 26.5928 176.191 27.0303 176.374 27.5739Z" fill="var(--colors-neutral-neutral-800)"/>
<path d="M366.4 34.3077L365.692 33.6L371.292 28L365.692 22.4L366.4 21.6923L372 27.2923L377.6 21.6923L378.308 22.4L372.708 28L378.308 33.6L377.6 34.3077L372 28.7077L366.4 34.3077Z" fill="var(--colors-neutral-neutral-800)"/>
<rect y="56" width="400" height="1" fill="var(--colors-neutral-neutral-400)"/>
<g clip-path="url(#clip0_5362_3192)">
<rect width="368" height="32" transform="translate(16 73)" fill="white"/>
<path d="M18.49 93L16.31 86.02H17.42L18.89 90.6L19.27 92.11L19.64 90.61L21.12 86.02H22.2L20.02 93H18.49ZM25.8139 93.12C25.2472 93.12 24.7572 93.0067 24.3439 92.78C23.9306 92.5467 23.6139 92.2167 23.3939 91.79C23.1739 91.3567 23.0639 90.84 23.0639 90.24C23.0639 89.64 23.1739 89.1267 23.3939 88.7C23.6206 88.2733 23.9406 87.9467 24.3539 87.72C24.7739 87.4933 25.2739 87.38 25.8539 87.38C26.7406 87.38 27.4006 87.6267 27.8339 88.12C28.2672 88.6067 28.4572 89.2767 28.4039 90.13H23.8639L23.8739 89.37L27.3739 89.38C27.3472 89.0267 27.1939 88.7433 26.9139 88.53C26.6339 88.3167 26.2806 88.21 25.8539 88.21C25.2806 88.21 24.8406 88.39 24.5339 88.75C24.2272 89.11 24.0739 89.62 24.0739 90.28C24.0739 90.6733 24.1406 91.0233 24.2739 91.33C24.4139 91.63 24.6139 91.8633 24.8739 92.03C25.1339 92.1967 25.4472 92.28 25.8139 92.28C26.2472 92.28 26.6072 92.1767 26.8939 91.97C27.1872 91.7633 27.3672 91.4833 27.4339 91.13H28.4439C28.3572 91.75 28.0806 92.2367 27.6139 92.59C27.1472 92.9433 26.5472 93.12 25.8139 93.12ZM33.7378 93V89.54C33.7378 89.1467 33.6278 88.8333 33.4078 88.6C33.1878 88.36 32.9011 88.24 32.5478 88.24C32.1411 88.24 31.7778 88.39 31.4578 88.69C31.1445 88.9833 30.8945 89.4433 30.7078 90.07L30.5478 88.95C30.7545 88.4233 31.0511 88.03 31.4378 87.77C31.8311 87.51 32.2578 87.38 32.7178 87.38C33.1311 87.38 33.4878 87.47 33.7878 87.65C34.0945 87.8233 34.3311 88.07 34.4978 88.39C34.6645 88.7033 34.7478 89.0733 34.7478 89.5V93H33.7378ZM29.8178 93V85.64H30.8278V93H29.8178ZM38.3117 93V87.5H39.3217V93H38.3117ZM36.2817 93V92.18H41.2117V93H36.2817ZM37.0117 88.32V87.5H38.8117V88.32H37.0117ZM38.2417 86.56V85.47H39.3717V86.56H38.2417ZM45.4256 93.12C44.859 93.12 44.3656 93.0033 43.9456 92.77C43.5323 92.53 43.2123 92.1967 42.9856 91.77C42.759 91.3367 42.6456 90.83 42.6456 90.25C42.6456 89.6567 42.7623 89.1467 42.9956 88.72C43.229 88.2867 43.5556 87.9567 43.9756 87.73C44.3956 87.4967 44.8856 87.38 45.4456 87.38C45.8923 87.38 46.2923 87.4633 46.6456 87.63C47.0056 87.79 47.2956 88.02 47.5156 88.32C47.7423 88.62 47.8723 88.9767 47.9056 89.39H46.8956C46.8423 89.0167 46.6823 88.73 46.4156 88.53C46.1556 88.3233 45.8323 88.22 45.4456 88.22C45.0856 88.22 44.7723 88.3033 44.5056 88.47C44.239 88.63 44.0323 88.86 43.8856 89.16C43.739 89.46 43.6656 89.8233 43.6656 90.25C43.6656 90.8833 43.8256 91.38 44.1456 91.74C44.4723 92.1 44.899 92.28 45.4256 92.28C45.6656 92.28 45.889 92.2333 46.0956 92.14C46.3023 92.0467 46.479 91.9133 46.6256 91.74C46.7723 91.56 46.8723 91.3533 46.9256 91.12H47.9456C47.879 91.5333 47.7256 91.89 47.4856 92.19C47.2523 92.4833 46.9556 92.7133 46.5956 92.88C46.2423 93.04 45.8523 93.12 45.4256 93.12ZM51.2695 93V85.65H52.2795V93H51.2695ZM49.2395 93V92.18H54.3195V93H49.2395ZM49.9695 86.47V85.65H51.7695V86.47H49.9695ZM58.3334 93.12C57.7668 93.12 57.2768 93.0067 56.8634 92.78C56.4501 92.5467 56.1334 92.2167 55.9134 91.79C55.6934 91.3567 55.5834 90.84 55.5834 90.24C55.5834 89.64 55.6934 89.1267 55.9134 88.7C56.1401 88.2733 56.4601 87.9467 56.8734 87.72C57.2934 87.4933 57.7934 87.38 58.3734 87.38C59.2601 87.38 59.9201 87.6267 60.3534 88.12C60.7868 88.6067 60.9768 89.2767 60.9234 90.13H56.3834L56.3934 89.37L59.8934 89.38C59.8668 89.0267 59.7134 88.7433 59.4334 88.53C59.1534 88.3167 58.8001 88.21 58.3734 88.21C57.8001 88.21 57.3601 88.39 57.0534 88.75C56.7468 89.11 56.5934 89.62 56.5934 90.28C56.5934 90.6733 56.6601 91.0233 56.7934 91.33C56.9334 91.63 57.1334 91.8633 57.3934 92.03C57.6534 92.1967 57.9668 92.28 58.3334 92.28C58.7668 92.28 59.1268 92.1767 59.4134 91.97C59.7068 91.7633 59.8868 91.4833 59.9534 91.13H60.9634C60.8768 91.75 60.6001 92.2367 60.1334 92.59C59.6668 92.9433 59.0668 93.12 58.3334 93.12Z" fill="var(--colors-neutral-neutral-800)"/>
<rect width="180" height="32" transform="translate(204 73)" fill="var(--colors-neutral-neutral-300)"/>
<path d="M215.852 93.1193C215.29 93.1193 214.788 93.0227 214.348 92.8295C213.911 92.6364 213.563 92.3679 213.304 92.0241C213.048 91.6776 212.909 91.2756 212.886 90.8182H213.96C213.983 91.0994 214.08 91.3423 214.25 91.5469C214.42 91.7486 214.643 91.9048 214.919 92.0156C215.195 92.1264 215.5 92.1818 215.835 92.1818C216.21 92.1818 216.543 92.1165 216.832 91.9858C217.122 91.8551 217.349 91.6733 217.514 91.4403C217.679 91.2074 217.761 90.9375 217.761 90.6307C217.761 90.3097 217.682 90.027 217.523 89.7827C217.364 89.5355 217.131 89.3423 216.824 89.2031C216.517 89.0639 216.142 88.9943 215.699 88.9943H215V88.0568H215.699C216.045 88.0568 216.349 87.9943 216.611 87.8693C216.875 87.7443 217.081 87.5682 217.229 87.3409C217.379 87.1136 217.455 86.8466 217.455 86.5398C217.455 86.2443 217.389 85.9872 217.259 85.7685C217.128 85.5497 216.943 85.3793 216.705 85.2571C216.469 85.1349 216.19 85.0739 215.869 85.0739C215.568 85.0739 215.284 85.1293 215.017 85.2401C214.753 85.348 214.537 85.5057 214.369 85.7131C214.202 85.9176 214.111 86.1648 214.097 86.4545H213.074C213.091 85.9972 213.229 85.5966 213.487 85.2528C213.746 84.9062 214.084 84.6364 214.501 84.4432C214.922 84.25 215.384 84.1534 215.886 84.1534C216.426 84.1534 216.889 84.2628 217.276 84.4815C217.662 84.6974 217.959 84.983 218.166 85.3381C218.374 85.6932 218.477 86.0767 218.477 86.4886C218.477 86.9801 218.348 87.3991 218.089 87.7457C217.834 88.0923 217.486 88.3324 217.045 88.4659V88.5341C217.597 88.625 218.027 88.8594 218.337 89.2372C218.646 89.6122 218.801 90.0767 218.801 90.6307C218.801 91.1051 218.672 91.5312 218.413 91.9091C218.158 92.2841 217.808 92.5795 217.365 92.7955C216.922 93.0114 216.418 93.1193 215.852 93.1193ZM220.22 85.2102V84.2727H226.766V85.2102H224.021V93H222.964V85.2102H220.22ZM228.397 93V84.2727H233.664V85.2102H229.453V88.1591H233.391V89.0966H229.453V92.0625H233.732V93H228.397ZM235.415 93V92.233L238.296 89.0795C238.634 88.7102 238.912 88.3892 239.131 88.1165C239.35 87.8409 239.512 87.5824 239.617 87.3409C239.725 87.0966 239.779 86.8409 239.779 86.5739C239.779 86.267 239.705 86.0014 239.557 85.777C239.412 85.5526 239.213 85.3793 238.961 85.2571C238.708 85.1349 238.424 85.0739 238.108 85.0739C237.773 85.0739 237.48 85.1435 237.23 85.2827C236.983 85.419 236.792 85.6108 236.655 85.858C236.522 86.1051 236.455 86.3949 236.455 86.7273H235.449C235.449 86.2159 235.567 85.767 235.803 85.3807C236.039 84.9943 236.36 84.6932 236.766 84.4773C237.175 84.2614 237.634 84.1534 238.142 84.1534C238.654 84.1534 239.107 84.2614 239.502 84.4773C239.897 84.6932 240.206 84.9844 240.431 85.3509C240.655 85.7173 240.767 86.125 240.767 86.5739C240.767 86.8949 240.709 87.2088 240.593 87.5156C240.479 87.8196 240.28 88.1591 239.996 88.5341C239.715 88.9062 239.324 89.3608 238.824 89.8977L236.864 91.9943V92.0625H240.921V93H235.415ZM245.408 93.1193C244.908 93.1193 244.458 93.0199 244.057 92.821C243.657 92.6222 243.336 92.3494 243.094 92.0028C242.853 91.6562 242.721 91.2614 242.698 90.8182H243.721C243.76 91.2131 243.939 91.5398 244.257 91.7983C244.578 92.054 244.962 92.1818 245.408 92.1818C245.766 92.1818 246.084 92.098 246.363 91.9304C246.644 91.7628 246.864 91.5327 247.023 91.2401C247.185 90.9446 247.266 90.6108 247.266 90.2386C247.266 89.858 247.182 89.5185 247.015 89.2202C246.85 88.919 246.623 88.6818 246.333 88.5085C246.043 88.3352 245.712 88.2472 245.34 88.2443C245.073 88.2415 244.799 88.2827 244.517 88.3679C244.236 88.4503 244.005 88.5568 243.823 88.6875L242.834 88.5682L243.363 84.2727H247.897V85.2102H244.249L243.942 87.7841H243.993C244.172 87.642 244.397 87.5241 244.667 87.4304C244.936 87.3366 245.218 87.2898 245.51 87.2898C246.044 87.2898 246.52 87.4176 246.938 87.6733C247.358 87.9261 247.688 88.2727 247.926 88.7131C248.168 89.1534 248.289 89.6562 248.289 90.2216C248.289 90.7784 248.164 91.2756 247.914 91.7131C247.667 92.1477 247.326 92.4915 246.891 92.7443C246.456 92.9943 245.962 93.1193 245.408 93.1193ZM254.516 93V93.9375H249.061V93H254.516ZM255.919 93H254.811L258.015 84.2727H259.106L262.311 93H261.203L258.595 85.6534H258.527L255.919 93ZM256.328 89.5909H260.794V90.5284H256.328V89.5909ZM263.208 84.2727L265.799 91.6193H265.901L268.492 84.2727H269.6L266.395 93H265.304L262.1 84.2727H263.208ZM274.391 93V93.9375H268.936V93H274.391ZM282.356 84.2727V93H281.333L276.578 86.1477H276.493V93H275.436V84.2727H276.458L281.231 91.142H281.316V84.2727H282.356ZM291.835 88.6364C291.835 89.5568 291.668 90.3523 291.336 91.0227C291.004 91.6932 290.548 92.2102 289.968 92.5739C289.388 92.9375 288.727 93.1193 287.982 93.1193C287.238 93.1193 286.576 92.9375 285.996 92.5739C285.417 92.2102 284.961 91.6932 284.629 91.0227C284.296 90.3523 284.13 89.5568 284.13 88.6364C284.13 87.7159 284.296 86.9205 284.629 86.25C284.961 85.5795 285.417 85.0625 285.996 84.6989C286.576 84.3352 287.238 84.1534 287.982 84.1534C288.727 84.1534 289.388 84.3352 289.968 84.6989C290.548 85.0625 291.004 85.5795 291.336 86.25C291.668 86.9205 291.835 87.7159 291.835 88.6364ZM290.812 88.6364C290.812 87.8807 290.685 87.2429 290.433 86.723C290.183 86.2031 289.843 85.8097 289.414 85.5426C288.988 85.2756 288.511 85.142 287.982 85.142C287.454 85.142 286.975 85.2756 286.546 85.5426C286.12 85.8097 285.781 86.2031 285.528 86.723C285.278 87.2429 285.153 87.8807 285.153 88.6364C285.153 89.392 285.278 90.0298 285.528 90.5497C285.781 91.0696 286.12 91.4631 286.546 91.7301C286.975 91.9972 287.454 92.1307 287.982 92.1307C288.511 92.1307 288.988 91.9972 289.414 91.7301C289.843 91.4631 290.183 91.0696 290.433 90.5497C290.685 90.0298 290.812 89.392 290.812 88.6364ZM300.532 84.2727V93H299.509L294.754 86.1477H294.668V93H293.612V84.2727H294.634L299.407 91.142H299.492V84.2727H300.532ZM302.647 93V84.2727H307.914V85.2102H303.703V88.1591H307.641V89.0966H303.703V92.0625H307.982V93H302.647ZM314.199 93V93.9375H308.745V93H314.199ZM315.091 93V92.233L317.972 89.0795C318.31 88.7102 318.588 88.3892 318.807 88.1165C319.026 87.8409 319.188 87.5824 319.293 87.3409C319.401 87.0966 319.455 86.8409 319.455 86.5739C319.455 86.267 319.381 86.0014 319.233 85.777C319.088 85.5526 318.889 85.3793 318.636 85.2571C318.384 85.1349 318.099 85.0739 317.784 85.0739C317.449 85.0739 317.156 85.1435 316.906 85.2827C316.659 85.419 316.467 85.6108 316.331 85.858C316.197 86.1051 316.131 86.3949 316.131 86.7273H315.125C315.125 86.2159 315.243 85.767 315.479 85.3807C315.714 84.9943 316.036 84.6932 316.442 84.4773C316.851 84.2614 317.31 84.1534 317.818 84.1534C318.33 84.1534 318.783 84.2614 319.178 84.4773C319.572 84.6932 319.882 84.9844 320.107 85.3509C320.331 85.7173 320.443 86.125 320.443 86.5739C320.443 86.8949 320.385 87.2088 320.268 87.5156C320.155 87.8196 319.956 88.1591 319.672 88.5341C319.391 88.9062 319 89.3608 318.5 89.8977L316.54 91.9943V92.0625H320.597V93H315.091ZM325.203 93H322.51V84.2727H325.322C326.169 84.2727 326.893 84.4474 327.496 84.7969C328.098 85.1435 328.56 85.642 328.881 86.2926C329.202 86.9403 329.362 87.7159 329.362 88.6193C329.362 89.5284 329.2 90.3111 328.876 90.9673C328.553 91.6207 328.081 92.1236 327.462 92.4759C326.842 92.8253 326.089 93 325.203 93ZM323.567 92.0625H325.135C325.857 92.0625 326.455 91.9233 326.929 91.6449C327.403 91.3665 327.757 90.9702 327.99 90.456C328.223 89.9418 328.339 89.3295 328.339 88.6193C328.339 87.9148 328.224 87.3082 327.994 86.7997C327.764 86.2884 327.42 85.8963 326.963 85.6236C326.506 85.348 325.936 85.2102 325.254 85.2102H323.567V92.0625Z" fill="var(--colors-neutral-neutral-800)"/>
<path d="M372 91.3077L368.192 87.5H375.808L372 91.3077Z" fill="var(--colors-neutral-neutral-700)"/>
</g>
<g clip-path="url(#clip1_5362_3192)">
<rect width="368" height="32" transform="translate(16 113)" fill="white"/>
<path d="M19.37 133.12C18.7567 133.12 18.2233 132.967 17.77 132.66C17.3233 132.347 16.9767 131.92 16.73 131.38C16.49 130.833 16.37 130.207 16.37 129.5C16.37 128.767 16.4967 128.13 16.75 127.59C17.0033 127.05 17.3567 126.633 17.81 126.34C18.27 126.047 18.8033 125.9 19.41 125.9C19.8967 125.9 20.3367 125.997 20.73 126.19C21.13 126.377 21.4533 126.65 21.7 127.01C21.9533 127.363 22.1 127.787 22.14 128.28H20.98C20.9267 127.833 20.76 127.477 20.48 127.21C20.2 126.937 19.84 126.8 19.4 126.8C19.02 126.8 18.6833 126.91 18.39 127.13C18.1033 127.343 17.88 127.653 17.72 128.06C17.56 128.467 17.48 128.95 17.48 129.51C17.48 130.07 17.56 130.553 17.72 130.96C17.8867 131.367 18.1133 131.68 18.4 131.9C18.6867 132.113 19.01 132.22 19.37 132.22C19.6833 132.22 19.9567 132.157 20.19 132.03C20.4233 131.897 20.61 131.713 20.75 131.48C20.8967 131.247 20.9833 130.973 21.01 130.66H22.18C22.1333 131.153 21.99 131.587 21.75 131.96C21.51 132.327 21.1867 132.613 20.78 132.82C20.38 133.02 19.91 133.12 19.37 133.12ZM27.1939 133L27.1539 131.75V129.4C27.1539 129.007 27.0239 128.7 26.7639 128.48C26.5106 128.253 26.1606 128.14 25.7139 128.14C25.2806 128.14 24.9272 128.24 24.6539 128.44C24.3806 128.633 24.2306 128.903 24.2039 129.25H23.2139C23.2472 128.857 23.3739 128.523 23.5939 128.25C23.8139 127.97 24.1072 127.757 24.4739 127.61C24.8406 127.457 25.2639 127.38 25.7439 127.38C26.2372 127.38 26.6639 127.463 27.0239 127.63C27.3839 127.79 27.6606 128.023 27.8539 128.33C28.0539 128.637 28.1539 129.01 28.1539 129.45V133H27.1939ZM25.2039 133.12C24.8439 133.12 24.5272 133.057 24.2539 132.93C23.9806 132.797 23.7672 132.61 23.6139 132.37C23.4606 132.123 23.3839 131.837 23.3839 131.51C23.3839 130.943 23.6006 130.503 24.0339 130.19C24.4739 129.877 25.0872 129.72 25.8739 129.72H27.2839V130.47H25.8339C25.3806 130.47 25.0239 130.557 24.7639 130.73C24.5106 130.903 24.3839 131.147 24.3839 131.46C24.3839 131.72 24.4739 131.923 24.6539 132.07C24.8406 132.217 25.0906 132.29 25.4039 132.29C25.8039 132.29 26.1572 132.183 26.4639 131.97C26.7772 131.75 27.0306 131.45 27.2239 131.07L27.3339 131.81C27.1606 132.23 26.8939 132.553 26.5339 132.78C26.1739 133.007 25.7306 133.12 25.2039 133.12ZM33.7578 129.86V129.2C33.7578 128.913 33.6711 128.683 33.4978 128.51C33.3245 128.33 33.0745 128.24 32.7478 128.24C32.3345 128.24 31.9645 128.397 31.6378 128.71C31.3111 129.017 31.0511 129.487 30.8578 130.12L30.7178 129.1C30.8645 128.72 31.0411 128.403 31.2478 128.15C31.4611 127.897 31.7045 127.707 31.9778 127.58C32.2578 127.447 32.5645 127.38 32.8978 127.38C33.4511 127.38 33.9011 127.54 34.2478 127.86C34.5945 128.173 34.7678 128.62 34.7678 129.2V129.86H33.7578ZM30.0378 133V127.5H30.9878L31.0478 128.75V133H30.0378ZM40.2617 129.86V129.2C40.2617 128.913 40.1751 128.683 40.0017 128.51C39.8284 128.33 39.5784 128.24 39.2517 128.24C38.8384 128.24 38.4684 128.397 38.1417 128.71C37.8151 129.017 37.5551 129.487 37.3617 130.12L37.2217 129.1C37.3684 128.72 37.5451 128.403 37.7517 128.15C37.9651 127.897 38.2084 127.707 38.4817 127.58C38.7617 127.447 39.0684 127.38 39.4017 127.38C39.9551 127.38 40.4051 127.54 40.7517 127.86C41.0984 128.173 41.2717 128.62 41.2717 129.2V129.86H40.2617ZM36.5417 133V127.5H37.4917L37.5517 128.75V133H36.5417ZM44.8156 133V127.5H45.8256V133H44.8156ZM42.7856 133V132.18H47.7156V133H42.7856ZM43.5156 128.32V127.5H45.3156V128.32H43.5156ZM44.7456 126.56V125.47H45.8756V126.56H44.7456ZM51.8295 133.12C51.2629 133.12 50.7729 133.007 50.3595 132.78C49.9462 132.547 49.6295 132.217 49.4095 131.79C49.1895 131.357 49.0795 130.84 49.0795 130.24C49.0795 129.64 49.1895 129.127 49.4095 128.7C49.6362 128.273 49.9562 127.947 50.3695 127.72C50.7895 127.493 51.2895 127.38 51.8695 127.38C52.7562 127.38 53.4162 127.627 53.8495 128.12C54.2829 128.607 54.4729 129.277 54.4195 130.13H49.8795L49.8895 129.37L53.3895 129.38C53.3629 129.027 53.2095 128.743 52.9295 128.53C52.6495 128.317 52.2962 128.21 51.8695 128.21C51.2962 128.21 50.8562 128.39 50.5495 128.75C50.2429 129.11 50.0895 129.62 50.0895 130.28C50.0895 130.673 50.1562 131.023 50.2895 131.33C50.4295 131.63 50.6295 131.863 50.8895 132.03C51.1495 132.197 51.4629 132.28 51.8295 132.28C52.2629 132.28 52.6229 132.177 52.9095 131.97C53.2029 131.763 53.3829 131.483 53.4495 131.13H54.4595C54.3729 131.75 54.0962 132.237 53.6295 132.59C53.1629 132.943 52.5629 133.12 51.8295 133.12ZM59.7734 129.86V129.2C59.7734 128.913 59.6868 128.683 59.5134 128.51C59.3401 128.33 59.0901 128.24 58.7634 128.24C58.3501 128.24 57.9801 128.397 57.6534 128.71C57.3268 129.017 57.0668 129.487 56.8734 130.12L56.7334 129.1C56.8801 128.72 57.0568 128.403 57.2634 128.15C57.4768 127.897 57.7201 127.707 57.9934 127.58C58.2734 127.447 58.5801 127.38 58.9134 127.38C59.4668 127.38 59.9168 127.54 60.2634 127.86C60.6101 128.173 60.7834 128.62 60.7834 129.2V129.86H59.7734ZM56.0534 133V127.5H57.0034L57.0634 128.75V133H56.0534Z" fill="var(--colors-neutral-neutral-800)"/>
<rect width="180" height="32" transform="translate(204 113)" fill="var(--colors-neutral-neutral-300)"/>
<path d="M218.784 124.273H219.841V130.051C219.841 130.648 219.7 131.18 219.419 131.649C219.141 132.115 218.747 132.483 218.239 132.753C217.73 133.02 217.134 133.153 216.449 133.153C215.764 133.153 215.168 133.02 214.659 132.753C214.151 132.483 213.756 132.115 213.474 131.649C213.196 131.18 213.057 130.648 213.057 130.051V124.273H214.114V129.966C214.114 130.392 214.207 130.771 214.395 131.104C214.582 131.433 214.849 131.693 215.196 131.884C215.545 132.071 215.963 132.165 216.449 132.165C216.935 132.165 217.352 132.071 217.702 131.884C218.051 131.693 218.318 131.433 218.503 131.104C218.69 130.771 218.784 130.392 218.784 129.966V124.273ZM221.951 133V124.273H223.008V132.062H227.065V133H221.951ZM231.395 133H228.701V124.273H231.514C232.36 124.273 233.085 124.447 233.687 124.797C234.289 125.143 234.751 125.642 235.072 126.293C235.393 126.94 235.554 127.716 235.554 128.619C235.554 129.528 235.392 130.311 235.068 130.967C234.744 131.621 234.272 132.124 233.653 132.476C233.034 132.825 232.281 133 231.395 133ZM229.758 132.062H231.326C232.048 132.062 232.646 131.923 233.12 131.645C233.595 131.366 233.949 130.97 234.181 130.456C234.414 129.942 234.531 129.33 234.531 128.619C234.531 127.915 234.416 127.308 234.186 126.8C233.956 126.288 233.612 125.896 233.154 125.624C232.697 125.348 232.127 125.21 231.446 125.21H229.758V132.062ZM241.227 133V133.938H235.772V133H241.227ZM242.63 133H241.522L244.726 124.273H245.817L249.022 133H247.914L245.306 125.653H245.238L242.63 133ZM243.039 129.591H247.505V130.528H243.039V129.591ZM250.381 133V124.273H251.438V128.602H251.54L255.461 124.273H256.841L253.176 128.21L256.841 133H255.563L252.529 128.943L251.438 130.17V133H250.381ZM258.209 133V124.273H263.476V125.21H259.266V128.159H263.203V129.097H259.266V132.062H263.544V133H258.209Z" fill="var(--colors-neutral-neutral-800)"/>
<path d="M372 131.308L368.192 127.5H375.808L372 131.308Z" fill="var(--colors-neutral-neutral-700)"/>
</g>
<defs>
<clipPath id="clip0_5362_3192">
<rect width="368" height="32" fill="white" transform="translate(16 73)"/>
</clipPath>
<clipPath id="clip1_5362_3192">
<rect width="368" height="32" fill="white" transform="translate(16 113)"/>
</clipPath>
</defs>
</svg>
