<svg width="35" height="35" viewBox="0 0 35 35" fill="none" xmlns="http://www.w3.org/2000/svg">
<g filter="url(#filter0_d_1091_6755)">
<mask id="path-1-inside-1_1091_6755" fill="white">
<path fill-rule="evenodd" clip-rule="evenodd" d="M13.5557 17.5742C13.4577 17.1992 13.3597 16.7272 13.1497 16.0222C12.9827 15.4652 12.8077 15.1632 12.6797 14.7892C12.5247 14.3342 12.3767 14.0682 12.1837 13.6082C12.0447 13.2792 11.8197 12.5602 11.7267 12.1682C11.6077 11.6592 11.7597 11.2442 11.9707 10.9622C12.2237 10.6232 12.9327 10.4722 13.3277 10.6112C13.6987 10.7412 14.0717 11.1232 14.2437 11.3992C14.5317 11.8592 14.6007 12.0312 14.9607 12.9412C15.3537 13.9332 15.5247 14.8592 15.5717 15.1722L15.6567 15.6242C15.6557 15.5842 15.6137 14.5022 15.6127 14.4622C15.5777 13.4332 15.5527 12.6392 15.5747 11.5232C15.5767 11.3972 15.6387 10.9362 15.6587 10.8082C15.7367 10.3082 15.9637 10.0082 16.3317 9.82919C16.7437 9.62819 17.2577 9.61419 17.7327 9.81219C18.1557 9.98519 18.3587 10.3622 18.4197 10.8342C18.4337 10.9432 18.5137 11.8212 18.5127 11.9412C18.4997 12.9662 18.5187 13.5822 18.5277 14.1152C18.5317 14.3462 18.5307 15.7402 18.5447 15.5842C18.6057 14.9282 18.6387 12.3952 18.8887 11.6422C19.0327 11.2092 19.2937 10.8962 19.6827 10.7132C20.1137 10.5102 20.7957 10.6432 21.0867 10.9562C21.3717 11.2612 21.5327 11.6482 21.5687 12.1092C21.6007 12.5142 21.5497 13.0062 21.5487 13.3542C21.5487 14.2212 21.5277 14.6782 21.5117 15.4752C21.5107 15.5132 21.4967 15.7732 21.5347 15.6572C21.6287 15.3772 21.7227 15.1152 21.8007 14.9122C21.8497 14.7872 22.0417 14.2982 22.1597 14.0532C22.2737 13.8192 22.3707 13.6842 22.5747 13.3652C22.7747 13.0522 22.9897 12.9172 23.2427 12.8042C23.7827 12.5692 24.3517 12.9162 24.5437 13.3952C24.6297 13.6102 24.5527 14.1082 24.5157 14.5002C24.4547 15.1472 24.2617 15.8062 24.1637 16.1482C24.0357 16.5952 23.8897 17.3832 23.8237 17.7492C23.7517 18.1432 23.5897 19.1312 23.4647 19.5692C23.3787 19.8702 23.0937 20.5472 22.8127 20.9532C22.8127 20.9532 21.7387 22.2032 21.6207 22.7652C21.5037 23.3282 21.5427 23.3322 21.5197 23.7302C21.4957 24.1292 21.6407 24.6532 21.6407 24.6532C21.6407 24.6532 20.8387 24.7572 20.4067 24.6872C20.0157 24.6252 19.5317 23.8462 19.4067 23.6092C19.2347 23.2812 18.8677 23.3442 18.7247 23.5862C18.4997 23.9692 18.0157 24.6562 17.6737 24.6992C17.0057 24.7832 15.6197 24.7292 14.5347 24.7192C14.5347 24.7192 14.7197 23.7082 14.3077 23.3612C14.0027 23.1012 13.4777 22.5772 13.1637 22.3012L12.3317 21.3802C12.0477 21.0202 11.7027 20.2872 11.0887 19.3952C10.7407 18.8912 10.0617 18.3102 9.8047 17.8162C9.5817 17.3912 9.4737 16.8622 9.6147 16.4912C9.8397 15.8972 10.2897 15.5942 10.9767 15.6592C11.4957 15.7092 11.8247 15.8652 12.2147 16.1962C12.4397 16.3862 12.7877 16.7302 12.9647 16.9442C13.1277 17.1392 13.1677 17.2202 13.3417 17.4532C13.5717 17.7602 13.6437 17.9122 13.5557 17.5742Z"/>
</mask>
<path fill-rule="evenodd" clip-rule="evenodd" d="M13.5557 17.5742C13.4577 17.1992 13.3597 16.7272 13.1497 16.0222C12.9827 15.4652 12.8077 15.1632 12.6797 14.7892C12.5247 14.3342 12.3767 14.0682 12.1837 13.6082C12.0447 13.2792 11.8197 12.5602 11.7267 12.1682C11.6077 11.6592 11.7597 11.2442 11.9707 10.9622C12.2237 10.6232 12.9327 10.4722 13.3277 10.6112C13.6987 10.7412 14.0717 11.1232 14.2437 11.3992C14.5317 11.8592 14.6007 12.0312 14.9607 12.9412C15.3537 13.9332 15.5247 14.8592 15.5717 15.1722L15.6567 15.6242C15.6557 15.5842 15.6137 14.5022 15.6127 14.4622C15.5777 13.4332 15.5527 12.6392 15.5747 11.5232C15.5767 11.3972 15.6387 10.9362 15.6587 10.8082C15.7367 10.3082 15.9637 10.0082 16.3317 9.82919C16.7437 9.62819 17.2577 9.61419 17.7327 9.81219C18.1557 9.98519 18.3587 10.3622 18.4197 10.8342C18.4337 10.9432 18.5137 11.8212 18.5127 11.9412C18.4997 12.9662 18.5187 13.5822 18.5277 14.1152C18.5317 14.3462 18.5307 15.7402 18.5447 15.5842C18.6057 14.9282 18.6387 12.3952 18.8887 11.6422C19.0327 11.2092 19.2937 10.8962 19.6827 10.7132C20.1137 10.5102 20.7957 10.6432 21.0867 10.9562C21.3717 11.2612 21.5327 11.6482 21.5687 12.1092C21.6007 12.5142 21.5497 13.0062 21.5487 13.3542C21.5487 14.2212 21.5277 14.6782 21.5117 15.4752C21.5107 15.5132 21.4967 15.7732 21.5347 15.6572C21.6287 15.3772 21.7227 15.1152 21.8007 14.9122C21.8497 14.7872 22.0417 14.2982 22.1597 14.0532C22.2737 13.8192 22.3707 13.6842 22.5747 13.3652C22.7747 13.0522 22.9897 12.9172 23.2427 12.8042C23.7827 12.5692 24.3517 12.9162 24.5437 13.3952C24.6297 13.6102 24.5527 14.1082 24.5157 14.5002C24.4547 15.1472 24.2617 15.8062 24.1637 16.1482C24.0357 16.5952 23.8897 17.3832 23.8237 17.7492C23.7517 18.1432 23.5897 19.1312 23.4647 19.5692C23.3787 19.8702 23.0937 20.5472 22.8127 20.9532C22.8127 20.9532 21.7387 22.2032 21.6207 22.7652C21.5037 23.3282 21.5427 23.3322 21.5197 23.7302C21.4957 24.1292 21.6407 24.6532 21.6407 24.6532C21.6407 24.6532 20.8387 24.7572 20.4067 24.6872C20.0157 24.6252 19.5317 23.8462 19.4067 23.6092C19.2347 23.2812 18.8677 23.3442 18.7247 23.5862C18.4997 23.9692 18.0157 24.6562 17.6737 24.6992C17.0057 24.7832 15.6197 24.7292 14.5347 24.7192C14.5347 24.7192 14.7197 23.7082 14.3077 23.3612C14.0027 23.1012 13.4777 22.5772 13.1637 22.3012L12.3317 21.3802C12.0477 21.0202 11.7027 20.2872 11.0887 19.3952C10.7407 18.8912 10.0617 18.3102 9.8047 17.8162C9.5817 17.3912 9.4737 16.8622 9.6147 16.4912C9.8397 15.8972 10.2897 15.5942 10.9767 15.6592C11.4957 15.7092 11.8247 15.8652 12.2147 16.1962C12.4397 16.3862 12.7877 16.7302 12.9647 16.9442C13.1277 17.1392 13.1677 17.2202 13.3417 17.4532C13.5717 17.7602 13.6437 17.9122 13.5557 17.5742Z" fill="white"/>
<path d="M13.1497 16.0222L14.1081 15.7367L14.1076 15.735L13.1497 16.0222ZM12.6797 14.7892L11.7331 15.1117L11.7336 15.113L12.6797 14.7892ZM12.1837 13.6082L13.1058 13.2213L13.1049 13.219L12.1837 13.6082ZM11.7267 12.1682L10.7529 12.3958L10.7537 12.399L11.7267 12.1682ZM11.9707 10.9622L12.7714 11.5613L12.7721 11.5603L11.9707 10.9622ZM13.3277 10.6112L12.9958 11.5545L12.997 11.5549L13.3277 10.6112ZM14.2437 11.3992L13.395 11.9281L13.3961 11.9299L14.2437 11.3992ZM14.9607 12.9412L14.0308 13.3091L14.031 13.3095L14.9607 12.9412ZM15.5717 15.1722L14.5828 15.3207L14.5855 15.3389L14.5889 15.357L15.5717 15.1722ZM15.6567 15.6242L14.6739 15.809L16.6564 15.5992L15.6567 15.6242ZM15.6127 14.4622L16.6124 14.4372L16.6121 14.4282L15.6127 14.4622ZM15.5747 11.5232L16.5745 11.5429L16.5746 11.5391L15.5747 11.5232ZM15.6587 10.8082L16.6467 10.9626L16.6467 10.9623L15.6587 10.8082ZM16.3317 9.82919L16.7691 10.7284L16.7702 10.7279L16.3317 9.82919ZM17.7327 9.81219L17.3479 10.7352L17.3541 10.7378L17.7327 9.81219ZM18.4197 10.8342L19.4116 10.7068L19.4114 10.706L18.4197 10.8342ZM18.5127 11.9412L19.5126 11.9539L19.5127 11.9495L18.5127 11.9412ZM18.5277 14.1152L17.5278 14.1321L17.5278 14.1325L18.5277 14.1152ZM18.5447 15.5842L17.549 15.4916L17.5487 15.4948L18.5447 15.5842ZM18.8887 11.6422L17.9398 11.3266L17.9396 11.3271L18.8887 11.6422ZM19.6827 10.7132L20.1084 11.6181L20.1088 11.6179L19.6827 10.7132ZM21.0867 10.9562L20.3543 11.6371L20.356 11.6389L21.0867 10.9562ZM21.5687 12.1092L20.5717 12.187L20.5718 12.188L21.5687 12.1092ZM21.5487 13.3542L20.5487 13.3513V13.3542H21.5487ZM21.5117 15.4752L22.5114 15.5015L22.5115 15.4953L21.5117 15.4752ZM21.5347 15.6572L20.5867 15.3389L20.5844 15.3459L21.5347 15.6572ZM21.8007 14.9122L20.8697 14.5472L20.8672 14.5535L21.8007 14.9122ZM22.1597 14.0532L21.2607 13.6152L21.2587 13.6193L22.1597 14.0532ZM22.5747 13.3652L23.4172 13.9039L23.4174 13.9036L22.5747 13.3652ZM23.2427 12.8042L22.8436 11.8872L22.8349 11.8911L23.2427 12.8042ZM24.5437 13.3952L25.4722 13.0238L25.4719 13.0231L24.5437 13.3952ZM24.5157 14.5002L23.5201 14.4062L23.5201 14.4063L24.5157 14.5002ZM24.1637 16.1482L23.2024 15.8727L23.2023 15.8729L24.1637 16.1482ZM23.8237 17.7492L24.8074 17.929L24.8078 17.9267L23.8237 17.7492ZM23.4647 19.5692L24.4262 19.8439L24.4263 19.8436L23.4647 19.5692ZM22.8127 20.9532L23.5712 21.6049L23.6052 21.5653L23.635 21.5223L22.8127 20.9532ZM21.6207 22.7652L20.642 22.5597L20.6416 22.5617L21.6207 22.7652ZM21.5197 23.7302L22.5179 23.7902L22.518 23.7879L21.5197 23.7302ZM21.6407 24.6532L21.7693 25.6449L22.9117 25.4967L22.6045 24.3865L21.6407 24.6532ZM20.4067 24.6872L20.5666 23.7001L20.5633 23.6995L20.4067 24.6872ZM19.4067 23.6092L18.5211 24.0736L18.5222 24.0757L19.4067 23.6092ZM18.7247 23.5862L17.8638 23.0775L17.8625 23.0797L18.7247 23.5862ZM17.6737 24.6992L17.5489 23.707L17.5489 23.707L17.6737 24.6992ZM14.5347 24.7192L13.551 24.5392L13.3371 25.7082L14.5255 25.7191L14.5347 24.7192ZM14.3077 23.3612L13.659 24.1222L13.6635 24.1261L14.3077 23.3612ZM13.1637 22.3012L12.4216 22.9715L12.4602 23.0143L12.5035 23.0523L13.1637 22.3012ZM12.3317 21.3802L11.5466 21.9995L11.5673 22.0258L11.5896 22.0505L12.3317 21.3802ZM11.0887 19.3952L11.9124 18.8282L11.9116 18.827L11.0887 19.3952ZM9.8047 17.8162L10.6918 17.3547L10.6902 17.3516L9.8047 17.8162ZM9.6147 16.4912L10.5495 16.8464L10.5499 16.8454L9.6147 16.4912ZM10.9767 15.6592L11.0726 14.6638L11.0709 14.6636L10.9767 15.6592ZM12.2147 16.1962L11.5676 16.9586L11.5695 16.9602L12.2147 16.1962ZM12.9647 16.9442L12.1941 17.5815L12.1974 17.5855L12.9647 16.9442ZM13.3417 17.4532L12.5405 18.0515L12.5414 18.0528L13.3417 17.4532ZM14.5232 17.3213C14.44 17.0031 14.323 16.4583 14.1081 15.7367L12.1913 16.3077C12.3964 16.9961 12.4753 17.3952 12.5882 17.827L14.5232 17.3213ZM14.1076 15.735C14.0098 15.4089 13.9095 15.1579 13.822 14.9497C13.7298 14.7302 13.6754 14.6101 13.6258 14.4654L11.7336 15.113C11.812 15.3422 11.9091 15.5602 11.9782 15.7244C12.0519 15.9 12.1226 16.0785 12.1918 16.3094L14.1076 15.735ZM13.6263 14.4667C13.4593 13.9767 13.2554 13.5779 13.1058 13.2213L11.2616 13.9951C11.498 14.5585 11.5901 14.6917 11.7331 15.1117L13.6263 14.4667ZM13.1049 13.219C12.9926 12.9532 12.7832 12.2896 12.6997 11.9374L10.7537 12.399C10.8561 12.8308 11.0968 13.6051 11.2625 13.9974L13.1049 13.219ZM12.7004 11.9405C12.6774 11.8419 12.6835 11.7702 12.6964 11.7174C12.7103 11.6605 12.7369 11.6074 12.7714 11.5613L11.17 10.3631C10.8124 10.841 10.556 11.5533 10.753 12.3958L12.7004 11.9405ZM12.7721 11.5603C12.7266 11.6212 12.6935 11.6333 12.7167 11.6205C12.7357 11.6101 12.7751 11.593 12.8321 11.5792C12.8882 11.5655 12.9422 11.5597 12.9839 11.5597C13.0303 11.5598 13.0308 11.5668 12.9958 11.5545L13.6596 9.66789C13.2203 9.51329 12.7341 9.54477 12.3598 9.63571C11.998 9.72362 11.4953 9.9272 11.1693 10.3641L12.7721 11.5603ZM12.997 11.5549C12.9963 11.5547 13.0017 11.5566 13.013 11.5623C13.0243 11.568 13.0394 11.5766 13.058 11.5887C13.0962 11.6135 13.1408 11.6479 13.1882 11.6909C13.2886 11.782 13.363 11.8767 13.395 11.9281L15.0924 10.8703C14.9524 10.6457 14.7543 10.4114 14.5324 10.21C14.3159 10.0134 14.0159 9.79272 13.6584 9.66745L12.997 11.5549ZM13.3961 11.9299C13.6304 12.304 13.6706 12.3985 14.0308 13.3091L15.8906 12.5733C15.5308 11.6639 15.433 11.4144 15.0913 10.8685L13.3961 11.9299ZM14.031 13.3095C14.3868 14.2076 14.5427 15.0536 14.5828 15.3207L16.5606 15.0237C16.5067 14.6647 16.3206 13.6587 15.8904 12.5729L14.031 13.3095ZM14.5889 15.357L14.6739 15.809L16.6395 15.4394L16.5545 14.9874L14.5889 15.357ZM16.6564 15.5992C16.6557 15.5703 16.6444 15.2773 16.634 15.0049C16.6286 14.8646 16.6232 14.7245 16.6191 14.617C16.6171 14.5632 16.6154 14.5179 16.6141 14.4848C16.6127 14.4467 16.6123 14.4343 16.6124 14.4372L14.613 14.4872C14.6137 14.516 14.625 14.809 14.6354 15.0815C14.6408 15.2218 14.6462 15.3619 14.6503 15.4694C14.6523 15.5231 14.654 15.5685 14.6553 15.6016C14.6567 15.6397 14.6571 15.6521 14.657 15.6492L16.6564 15.5992ZM16.6121 14.4282C16.5772 13.4018 16.5531 12.6304 16.5745 11.5429L14.5749 11.5035C14.5523 12.648 14.5782 13.4646 14.6133 14.4962L16.6121 14.4282ZM16.5746 11.5391C16.5743 11.5554 16.5742 11.542 16.5807 11.4776C16.5861 11.4247 16.5937 11.3592 16.6023 11.2896C16.6198 11.1485 16.6389 11.0125 16.6467 10.9626L14.6707 10.6538C14.6535 10.7636 14.5781 11.298 14.5748 11.5073L16.5746 11.5391ZM16.6467 10.9623C16.6676 10.8285 16.6986 10.7818 16.7043 10.7738C16.7067 10.7703 16.7161 10.7542 16.7691 10.7284L15.8943 8.92993C15.5793 9.08315 15.2912 9.30656 15.0686 9.62284C14.8492 9.9346 14.7278 10.2878 14.6706 10.6541L16.6467 10.9623ZM16.7702 10.7279C16.9068 10.6613 17.1199 10.6401 17.3479 10.7352L18.1175 8.88917C17.3955 8.58823 16.5806 8.59508 15.8932 8.93044L16.7702 10.7279ZM17.3541 10.7378C17.3665 10.7428 17.368 10.7453 17.3651 10.7428C17.3623 10.7405 17.3635 10.7404 17.3682 10.7478C17.3797 10.7659 17.4105 10.827 17.4279 10.9624L19.4114 10.706C19.3233 10.0236 18.9843 9.24369 18.1112 8.88661L17.3541 10.7378ZM17.4278 10.9616C17.4277 10.9603 17.4292 10.9734 17.4329 11.0093C17.4361 11.041 17.4402 11.0824 17.4448 11.1308C17.4539 11.2276 17.465 11.3487 17.4756 11.4704C17.4862 11.5925 17.4962 11.7125 17.5034 11.8078C17.5123 11.9263 17.5126 11.9545 17.5127 11.9329L19.5127 11.9495C19.5137 11.828 19.4867 11.5113 19.468 11.2967C19.4472 11.057 19.4218 10.7863 19.4115 10.7068L17.4278 10.9616ZM17.5128 11.9285C17.4995 12.9722 17.519 13.6073 17.5278 14.1321L19.5276 14.0983C19.5184 13.5571 19.4999 12.9602 19.5126 11.9539L17.5128 11.9285ZM17.5278 14.1325C17.5297 14.2404 17.5304 14.631 17.5325 15.0004C17.5335 15.1791 17.5348 15.3513 17.5368 15.4702C17.5378 15.5244 17.5391 15.5854 17.5417 15.6311C17.5423 15.6428 17.5437 15.6653 17.5464 15.6915C17.5476 15.7037 17.5504 15.7291 17.5557 15.7605C17.5558 15.7608 17.572 15.8764 17.6301 16.0059C17.6481 16.0459 17.6835 16.1182 17.7439 16.1983C17.7985 16.2706 17.9241 16.4175 18.1427 16.5129C18.4024 16.6262 18.6951 16.623 18.9492 16.51C19.1628 16.4149 19.2859 16.2712 19.3393 16.2008C19.4432 16.0639 19.4847 15.9335 19.4929 15.9083C19.5087 15.8604 19.5175 15.8213 19.5217 15.8015C19.5358 15.7352 19.5403 15.6784 19.5407 15.6736L17.5487 15.4948C17.5491 15.49 17.5501 15.4798 17.5518 15.4663C17.553 15.4565 17.5569 15.4261 17.5651 15.3872C17.5691 15.3684 17.5777 15.33 17.5933 15.2827C17.6014 15.2582 17.6426 15.1282 17.7463 14.9916C17.7997 14.9213 17.9227 14.7777 18.1362 14.6827C18.3902 14.5697 18.6827 14.5665 18.9424 14.6797C19.1609 14.7751 19.2864 14.9219 19.3408 14.9941C19.4011 15.0741 19.4365 15.1462 19.4544 15.186C19.49 15.2654 19.5069 15.3314 19.5128 15.3553C19.5206 15.3868 19.5252 15.4122 19.5277 15.4269C19.5326 15.4561 19.535 15.4786 19.5359 15.4874C19.537 15.4983 19.5377 15.5066 19.538 15.5107C19.5383 15.5152 19.5385 15.5184 19.5386 15.5196C19.5387 15.522 19.5384 15.5166 19.5379 15.4988C19.5375 15.4828 19.537 15.4618 19.5365 15.4357C19.5347 15.3299 19.5334 15.1684 19.5324 14.9892C19.5305 14.6429 19.5297 14.221 19.5275 14.0979L17.5278 14.1325ZM19.5404 15.6768C19.5725 15.3319 19.6006 14.4545 19.6441 13.7077C19.6673 13.3096 19.6956 12.9219 19.732 12.5937C19.7709 12.2422 19.8116 12.036 19.8378 11.9573L17.9396 11.3271C17.8408 11.6249 17.7836 12.0177 17.7441 12.3734C17.7021 12.7524 17.6715 13.1801 17.6475 13.5914C17.5967 14.4634 17.5779 15.1805 17.549 15.4916L19.5404 15.6768ZM19.8376 11.9578C19.9055 11.7536 19.9951 11.6713 20.1084 11.6181L19.257 9.80832C18.5923 10.121 18.1599 10.6648 17.9398 11.3266L19.8376 11.9578ZM20.1088 11.6179C20.0894 11.627 20.0935 11.6209 20.1293 11.6178C20.1636 11.6148 20.2094 11.6162 20.2598 11.6253C20.3105 11.6345 20.3501 11.6485 20.3741 11.6599C20.401 11.6728 20.3865 11.6717 20.3543 11.6371L21.8191 10.2753C21.4785 9.90894 21.0069 9.72777 20.6146 9.65705C20.2148 9.58499 19.7125 9.59378 19.2566 9.80851L20.1088 11.6179ZM20.356 11.6389C20.4683 11.759 20.5512 11.9243 20.5717 12.187L22.5657 12.0313C22.5142 11.3721 22.2751 10.7633 21.8174 10.2734L20.356 11.6389ZM20.5718 12.188C20.5828 12.327 20.5806 12.5007 20.5719 12.7122C20.5644 12.8965 20.5493 13.1523 20.5487 13.3513L22.5487 13.3571C22.5491 13.2081 22.56 13.0439 22.5702 12.7939C22.5793 12.5712 22.5866 12.2964 22.5656 12.0304L20.5718 12.188ZM20.5487 13.3542C20.5487 14.2082 20.5283 14.6379 20.5119 15.4551L22.5115 15.4953C22.5271 14.7185 22.5487 14.2342 22.5487 13.3542H20.5487ZM20.512 15.4489C20.5127 15.4243 20.507 15.5585 20.5088 15.6443C20.5093 15.67 20.5106 15.712 20.5154 15.7595C20.5155 15.7607 20.5259 15.9273 20.6078 16.1039C20.626 16.1432 20.8128 16.5699 21.3305 16.6689C21.9066 16.7791 22.2456 16.3791 22.2922 16.3229C22.3813 16.2156 22.4272 16.1141 22.4417 16.0813C22.4624 16.0349 22.4765 15.9945 22.485 15.9685L20.5844 15.3459C20.5882 15.3343 20.5979 15.3055 20.6146 15.268C20.6252 15.2442 20.6675 15.1489 20.7533 15.0456C20.7967 14.9933 21.1327 14.5948 21.7063 14.7045C22.2214 14.8031 22.4058 15.2272 22.4221 15.2622C22.4711 15.3679 22.4887 15.4565 22.4937 15.4822C22.501 15.5195 22.5042 15.5482 22.5056 15.5617C22.5071 15.577 22.5077 15.5882 22.508 15.5935C22.5083 15.5993 22.5084 15.6029 22.5084 15.6036C22.5084 15.6046 22.5083 15.6015 22.5084 15.5934C22.5085 15.5859 22.5087 15.5769 22.5091 15.5667C22.5094 15.5567 22.5097 15.5469 22.5101 15.5371C22.5103 15.532 22.511 15.5142 22.5114 15.5015L20.512 15.4489ZM22.4827 15.9754C22.573 15.7063 22.6622 15.4581 22.7342 15.2709L20.8672 14.5535C20.7832 14.7723 20.6843 15.048 20.5867 15.3389L22.4827 15.9754ZM22.7317 15.2771C22.7863 15.1378 22.9628 14.6902 23.0606 14.4871L21.2587 13.6193C21.1206 13.9062 20.9131 14.4365 20.8697 14.5472L22.7317 15.2771ZM23.0587 14.4912C23.1397 14.3249 23.1885 14.2615 23.4172 13.9039L21.7322 12.8264C21.5529 13.1069 21.4077 13.3135 21.2607 13.6152L23.0587 14.4912ZM23.4174 13.9036C23.462 13.8338 23.4921 13.8075 23.5079 13.7951C23.5278 13.7793 23.5625 13.7566 23.6505 13.7173L22.8349 11.8911C22.4629 12.0573 22.0676 12.3016 21.732 12.8267L23.4174 13.9036ZM23.6417 13.7211C23.638 13.7227 23.631 13.7252 23.6215 13.7269C23.612 13.7286 23.6026 13.7291 23.5942 13.7286C23.5773 13.7278 23.5711 13.7237 23.5753 13.7258C23.5802 13.7282 23.5901 13.7347 23.6004 13.7459C23.6108 13.7571 23.615 13.7659 23.6155 13.7672L25.4719 13.0231C25.1257 12.1595 24.0279 11.3719 22.8437 11.8873L23.6417 13.7211ZM23.6152 13.7666C23.5765 13.6698 23.58 13.6134 23.5821 13.6551C23.5836 13.6829 23.5833 13.7341 23.578 13.816C23.5728 13.8955 23.5641 13.985 23.5533 14.0876C23.5432 14.1831 23.53 14.3011 23.5201 14.4062L25.5113 14.5942C25.5247 14.4514 25.5597 14.1607 25.5737 13.9467C25.5814 13.8281 25.5866 13.69 25.5795 13.5518C25.573 13.4274 25.5539 13.228 25.4722 13.0238L23.6152 13.7666ZM23.5201 14.4063C23.4692 14.9461 23.3042 15.5173 23.2024 15.8727L25.125 16.4237C25.2192 16.0951 25.4402 15.3482 25.5113 14.5941L23.5201 14.4063ZM23.2023 15.8729C23.0577 16.378 22.9031 17.2197 22.8396 17.5717L24.8078 17.9267C24.8763 17.5467 25.0137 16.8124 25.1251 16.4235L23.2023 15.8729ZM22.84 17.5694C22.7576 18.0202 22.6103 18.9191 22.5031 19.2948L24.4263 19.8436C24.5691 19.3433 24.7458 18.2661 24.8074 17.929L22.84 17.5694ZM22.5032 19.2945C22.4788 19.3798 22.4074 19.5749 22.3015 19.8079C22.1958 20.0404 22.0827 20.2508 21.9904 20.3841L23.635 21.5223C23.9893 21.0104 24.3161 20.2294 24.4262 19.8439L22.5032 19.2945ZM22.8127 20.9532C22.0542 20.3015 22.0542 20.3016 22.0541 20.3016C22.0541 20.3017 22.054 20.3017 22.0539 20.3018C22.0538 20.3019 22.0537 20.3021 22.0536 20.3022C22.0533 20.3025 22.053 20.3029 22.0526 20.3034C22.0518 20.3044 22.0507 20.3056 22.0494 20.3071C22.0467 20.3102 22.0431 20.3145 22.0385 20.3199C22.0294 20.3307 22.0164 20.3459 22.0002 20.3653C21.9679 20.4038 21.9223 20.4587 21.8675 20.526C21.7585 20.6599 21.6105 20.8463 21.4571 21.0536C21.3055 21.2585 21.1391 21.4965 20.9984 21.7319C20.8734 21.941 20.708 22.2455 20.642 22.5597L22.5994 22.9707C22.5924 23.0039 22.6055 22.9414 22.7151 22.758C22.809 22.601 22.9331 22.4212 23.0648 22.2433C23.1947 22.0678 23.3226 21.9066 23.4186 21.7885C23.4664 21.7299 23.5056 21.6827 23.5324 21.6507C23.5458 21.6348 23.5561 21.6227 23.5627 21.6148C23.566 21.6109 23.5684 21.6081 23.5699 21.6064C23.5706 21.6056 23.571 21.605 23.5713 21.6048C23.5714 21.6046 23.5714 21.6046 23.5714 21.6046C23.5714 21.6046 23.5714 21.6046 23.5713 21.6047C23.5713 21.6047 23.5713 21.6048 23.5713 21.6048C23.5712 21.6048 23.5712 21.6049 22.8127 20.9532ZM20.6416 22.5617C20.579 22.863 20.5491 23.0569 20.537 23.2457C20.5315 23.3321 20.5302 23.4114 20.529 23.4691C20.5277 23.5297 20.5261 23.5907 20.5214 23.6725L22.518 23.7879C22.5248 23.6706 22.527 23.5819 22.5285 23.5123C22.5301 23.4396 22.5307 23.4082 22.5329 23.3734C22.5363 23.32 22.5454 23.2304 22.5998 22.9687L20.6416 22.5617ZM20.5215 23.6701C20.5022 23.9913 20.5498 24.3163 20.5877 24.5221C20.6081 24.6333 20.6294 24.7287 20.6458 24.7973C20.654 24.8319 20.6612 24.8602 20.6665 24.8809C20.6692 24.8913 20.6715 24.8999 20.6733 24.9064C20.6741 24.9097 20.6749 24.9125 20.6755 24.9147C20.6758 24.9158 20.6761 24.9168 20.6763 24.9177C20.6764 24.9181 20.6765 24.9185 20.6766 24.9189C20.6767 24.9191 20.6767 24.9192 20.6768 24.9194C20.6768 24.9195 20.6768 24.9196 20.6769 24.9197C20.6769 24.9198 20.6769 24.9199 21.6407 24.6532C22.6045 24.3865 22.6045 24.3866 22.6045 24.3867C22.6045 24.3867 22.6046 24.3869 22.6046 24.3869C22.6046 24.3871 22.6047 24.3872 22.6047 24.3873C22.6048 24.3875 22.6048 24.3877 22.6049 24.3879C22.605 24.3883 22.605 24.3885 22.6051 24.3886C22.6051 24.3889 22.6051 24.3887 22.6049 24.388C22.6045 24.3867 22.6037 24.3836 22.6025 24.3789C22.6 24.3694 22.596 24.3537 22.5911 24.3328C22.581 24.2907 22.5675 24.2302 22.5547 24.1605C22.526 24.0045 22.5132 23.8681 22.5179 23.7902L20.5215 23.6701ZM21.6407 24.6532C21.5121 23.6615 21.5122 23.6615 21.5122 23.6615C21.5123 23.6615 21.5123 23.6615 21.5124 23.6615C21.5124 23.6614 21.5125 23.6614 21.5126 23.6614C21.5127 23.6614 21.5127 23.6614 21.5127 23.6614C21.5127 23.6614 21.5126 23.6614 21.5122 23.6615C21.5115 23.6616 21.5101 23.6617 21.508 23.662C21.5038 23.6625 21.4968 23.6634 21.4874 23.6645C21.4684 23.6668 21.4398 23.6701 21.4036 23.6739C21.3307 23.6816 21.2298 23.6912 21.1181 23.6987C20.866 23.7158 20.6589 23.715 20.5666 23.7001L20.2467 25.6743C20.5865 25.7294 20.9963 25.7116 21.2533 25.6941C21.3961 25.6845 21.5227 25.6724 21.6137 25.6628C21.6594 25.658 21.6968 25.6537 21.7234 25.6505C21.7368 25.6489 21.7474 25.6476 21.7552 25.6467C21.759 25.6462 21.7622 25.6458 21.7645 25.6455C21.7657 25.6453 21.7667 25.6452 21.7675 25.6451C21.7679 25.6451 21.7682 25.645 21.7685 25.645C21.7687 25.645 21.7688 25.6449 21.769 25.6449C21.769 25.6449 21.7691 25.6449 21.7691 25.6449C21.7692 25.6449 21.7693 25.6449 21.6407 24.6532ZM20.5633 23.6995C20.6557 23.7142 20.7146 23.7435 20.7346 23.7544C20.7559 23.766 20.759 23.7708 20.7441 23.7584C20.712 23.7316 20.6578 23.6767 20.5881 23.5895C20.4484 23.4146 20.3295 23.2153 20.2912 23.1427L18.5222 24.0757C18.6089 24.24 18.7945 24.5487 19.0258 24.8381C19.1416 24.9831 19.2896 25.1494 19.462 25.2934C19.6169 25.4228 19.8887 25.6175 20.2501 25.6748L20.5633 23.6995ZM20.2923 23.1448C20.0383 22.6603 19.5562 22.3641 19.0167 22.3847C18.532 22.4031 18.1012 22.6757 17.8638 23.0775L19.5856 24.0949C19.4912 24.2547 19.3153 24.3747 19.0929 24.3832C18.9742 24.3877 18.8474 24.3591 18.7338 24.2911C18.6197 24.2227 18.5537 24.1357 18.5211 24.0736L20.2923 23.1448ZM17.8625 23.0797C17.7701 23.2369 17.6257 23.453 17.4822 23.6213C17.4097 23.7063 17.3579 23.7548 17.3316 23.7756C17.3196 23.7851 17.3271 23.7773 17.3538 23.7638C17.3787 23.751 17.4462 23.7199 17.5489 23.707L17.7984 25.6914C18.1535 25.6467 18.4222 25.4625 18.5696 25.3464C18.7372 25.2143 18.8845 25.0591 19.004 24.9191C19.2441 24.6374 19.4543 24.3184 19.5869 24.0927L17.8625 23.0797ZM17.5489 23.707C17.2906 23.7395 16.8414 23.7488 16.2681 23.7445C15.6486 23.7398 15.1649 23.725 14.5439 23.7192L14.5255 25.7191C14.9895 25.7234 15.7413 25.7406 16.2531 25.7444C16.811 25.7486 17.3888 25.7429 17.7985 25.6914L17.5489 23.707ZM14.5347 24.7192C15.5184 24.8992 15.5184 24.899 15.5184 24.8987C15.5185 24.8987 15.5185 24.8984 15.5185 24.8983C15.5186 24.8979 15.5187 24.8976 15.5187 24.8972C15.5188 24.8965 15.519 24.8957 15.5191 24.8949C15.5194 24.8932 15.5198 24.8913 15.5202 24.8891C15.5209 24.8847 15.5219 24.8793 15.5229 24.8729C15.5251 24.8602 15.5277 24.8436 15.5307 24.8236C15.5368 24.7836 15.5442 24.7292 15.5513 24.664C15.5652 24.5358 15.5791 24.3546 15.5755 24.1526C15.5721 23.956 15.5517 23.7038 15.4793 23.4477C15.4088 23.1986 15.2647 22.8598 14.9519 22.5963L13.6635 24.1261C13.5567 24.0361 13.544 23.9538 13.5547 23.9918C13.5635 24.0229 13.5741 24.0885 13.5759 24.188C13.5775 24.2821 13.5709 24.3754 13.563 24.4476C13.5592 24.4826 13.5554 24.5099 13.5529 24.5265C13.5517 24.5348 13.5508 24.5403 13.5504 24.5426C13.5502 24.5437 13.5502 24.544 13.5503 24.5435C13.5503 24.5432 13.5504 24.5427 13.5505 24.542C13.5506 24.5416 13.5507 24.5412 13.5507 24.5408C13.5508 24.5405 13.5508 24.5403 13.5509 24.54C13.5509 24.5399 13.5509 24.5397 13.551 24.5396C13.551 24.5394 13.551 24.5392 14.5347 24.7192ZM14.9564 22.6002C14.8285 22.4912 14.6422 22.3157 14.4275 22.1119C14.2264 21.921 13.999 21.704 13.8239 21.5501L12.5035 23.0523C12.6424 23.1743 12.8345 23.3574 13.0507 23.5625C13.2532 23.7547 13.4818 23.9712 13.659 24.1222L14.9564 22.6002ZM13.9057 21.6308L13.0737 20.7098L11.5896 22.0505L12.4216 22.9715L13.9057 21.6308ZM13.1168 20.7608C13.0295 20.6501 12.9154 20.4558 12.6974 20.0827C12.4972 19.74 12.2418 19.3067 11.9124 18.8282L10.265 19.9622C10.5496 20.3757 10.7737 20.7549 10.9705 21.0917C11.1495 21.398 11.3499 21.7503 11.5466 21.9995L13.1168 20.7608ZM11.9116 18.827C11.6889 18.5044 11.3683 18.1667 11.1526 17.9294C10.8916 17.6422 10.7504 17.4672 10.6918 17.3547L8.91757 18.2777C9.11603 18.6592 9.44278 19.0217 9.67252 19.2745C9.94757 19.5771 10.1405 19.782 10.2658 19.9634L11.9116 18.827ZM10.6902 17.3516C10.6242 17.2258 10.579 17.09 10.5605 16.9747C10.5405 16.8501 10.5612 16.8155 10.5495 16.8464L8.67993 16.1359C8.52715 16.5379 8.5314 16.9533 8.58587 17.2921C8.64185 17.6404 8.7622 17.9816 8.91919 18.2808L10.6902 17.3516ZM10.5499 16.8454C10.6035 16.7037 10.6516 16.6766 10.6533 16.6755C10.6542 16.675 10.7069 16.6381 10.8825 16.6547L11.0709 14.6636C10.5595 14.6152 10.0437 14.6974 9.59161 14.9806C9.14026 15.2633 8.85086 15.6847 8.67954 16.137L10.5499 16.8454ZM10.8808 16.6546C11.1743 16.6829 11.3152 16.7444 11.5676 16.9586L12.8618 15.4338C12.3342 14.986 11.8171 14.7355 11.0726 14.6638L10.8808 16.6546ZM11.5695 16.9602C11.7574 17.1189 12.0615 17.4211 12.1941 17.5815L13.7353 16.3068C13.5139 16.0392 13.122 15.6535 12.8599 15.4322L11.5695 16.9602ZM12.1974 17.5855C12.2571 17.6569 12.2912 17.7033 12.3325 17.7616C12.3765 17.8239 12.4431 17.9211 12.5405 18.0515L14.1429 16.8548C14.0425 16.7204 13.9077 16.5131 13.7319 16.3028L12.1974 17.5855ZM12.5414 18.0528C12.5922 18.1206 12.6308 18.1752 12.6743 18.2353C12.687 18.2528 12.777 18.3831 12.8775 18.4789C12.9058 18.5059 12.9912 18.5862 13.121 18.6532C13.2247 18.7067 13.6269 18.8872 14.0727 18.6397C14.4818 18.4125 14.5601 18.0193 14.575 17.9379C14.5981 17.8118 14.592 17.709 14.5892 17.6699C14.5793 17.531 14.5387 17.381 14.5234 17.3222L12.588 17.8261C12.6167 17.9364 12.6001 17.8941 12.5943 17.8122C12.5925 17.7874 12.5861 17.6956 12.6077 17.5776C12.6212 17.5043 12.6967 17.116 13.1019 16.8911C13.5437 16.6458 13.9407 16.8256 14.038 16.8758C14.1614 16.9395 14.2391 17.0137 14.2584 17.0322C14.3231 17.0939 14.3575 17.1498 14.2948 17.063C14.2628 17.0188 14.2062 16.9393 14.142 16.8536L12.5414 18.0528Z" fill="var(--colors-neutral-neutral-800)" mask="url(#path-1-inside-1_1091_6755)"/>
<path fill-rule="evenodd" clip-rule="evenodd" d="M13.5557 17.5742C13.4577 17.1992 13.3597 16.7272 13.1497 16.0222C12.9827 15.4652 12.8077 15.1632 12.6797 14.7892C12.5247 14.3342 12.3767 14.0682 12.1837 13.6082C12.0447 13.2792 11.8197 12.5602 11.7267 12.1682C11.6077 11.6592 11.7597 11.2442 11.9707 10.9622C12.2237 10.6232 12.9327 10.4722 13.3277 10.6112C13.6987 10.7412 14.0717 11.1232 14.2437 11.3992C14.5317 11.8592 14.6007 12.0312 14.9607 12.9412C15.3537 13.9332 15.5247 14.8592 15.5717 15.1722L15.6567 15.6242C15.6557 15.5842 15.6137 14.5022 15.6127 14.4622C15.5777 13.4332 15.5527 12.6392 15.5747 11.5232C15.5767 11.3972 15.6387 10.9362 15.6587 10.8082C15.7367 10.3082 15.9637 10.0082 16.3317 9.82919C16.7437 9.62819 17.2577 9.61419 17.7327 9.81219C18.1557 9.98519 18.3587 10.3622 18.4197 10.8342C18.4337 10.9432 18.5137 11.8212 18.5127 11.9412C18.4997 12.9662 18.5187 13.5822 18.5277 14.1152C18.5317 14.3462 18.5307 15.7402 18.5447 15.5842C18.6057 14.9282 18.6387 12.3952 18.8887 11.6422C19.0327 11.2092 19.2937 10.8962 19.6827 10.7132C20.1137 10.5102 20.7957 10.6432 21.0867 10.9562C21.3717 11.2612 21.5327 11.6482 21.5687 12.1092C21.6007 12.5142 21.5497 13.0062 21.5487 13.3542C21.5487 14.2212 21.5277 14.6782 21.5117 15.4752C21.5107 15.5132 21.4967 15.7732 21.5347 15.6572C21.6287 15.3772 21.7227 15.1152 21.8007 14.9122C21.8497 14.7872 22.0417 14.2982 22.1597 14.0532C22.2737 13.8192 22.3707 13.6842 22.5747 13.3652C22.7747 13.0522 22.9897 12.9172 23.2427 12.8042C23.7827 12.5692 24.3517 12.9162 24.5437 13.3952C24.6297 13.6102 24.5527 14.1082 24.5157 14.5002C24.4547 15.1472 24.2617 15.8062 24.1637 16.1482C24.0357 16.5952 23.8897 17.3832 23.8237 17.7492C23.7517 18.1432 23.5897 19.1312 23.4647 19.5692C23.3787 19.8702 23.0937 20.5472 22.8127 20.9532C22.8127 20.9532 21.7387 22.2032 21.6207 22.7652C21.5037 23.3282 21.5427 23.3322 21.5197 23.7302C21.4957 24.1292 21.6407 24.6532 21.6407 24.6532C21.6407 24.6532 20.8387 24.7572 20.4067 24.6872C20.0157 24.6252 19.5317 23.8462 19.4067 23.6092C19.2347 23.2812 18.8677 23.3442 18.7247 23.5862C18.4997 23.9692 18.0157 24.6562 17.6737 24.6992C17.0057 24.7832 15.6197 24.7292 14.5347 24.7192C14.5347 24.7192 14.7197 23.7082 14.3077 23.3612C14.0027 23.1012 13.4777 22.5772 13.1637 22.3012L12.3317 21.3802C12.0477 21.0202 11.7027 20.2872 11.0887 19.3952C10.7407 18.8912 10.0617 18.3102 9.8047 17.8162C9.5817 17.3912 9.4737 16.8622 9.6147 16.4912C9.8397 15.8972 10.2897 15.5942 10.9767 15.6592C11.4957 15.7092 11.8247 15.8652 12.2147 16.1962C12.4397 16.3862 12.7877 16.7302 12.9647 16.9442C13.1277 17.1392 13.1677 17.2202 13.3417 17.4532C13.5717 17.7602 13.6437 17.9122 13.5557 17.5742Z" stroke="var(--colors-neutral-neutral-800)" stroke-width="0.75" stroke-linecap="round" stroke-linejoin="round"/>
<path d="M20.5664 21.7344V18.2754" stroke="var(--colors-neutral-neutral-800)" stroke-width="0.75" stroke-linecap="round"/>
<path d="M18.5508 21.7461L18.5348 18.2731" stroke="var(--colors-neutral-neutral-800)" stroke-width="0.75" stroke-linecap="round"/>
<path d="M16.5547 18.3047L16.5757 21.7307" stroke="var(--colors-neutral-neutral-800)" stroke-width="0.75" stroke-linecap="round"/>
</g>
<defs>
<filter id="filter0_d_1091_6755" x="5.17637" y="7.29584" width="23.7815" height="23.8247" filterUnits="userSpaceOnUse" color-interpolation-filters="sRGB">
<feFlood flood-opacity="0" result="BackgroundImageFix"/>
<feColorMatrix in="SourceAlpha" type="matrix" values="0 0 0 0 0 0 0 0 0 0 0 0 0 0 0 0 0 0 127 0" result="hardAlpha"/>
<feOffset dy="2"/>
<feGaussianBlur stdDeviation="2"/>
<feComposite in2="hardAlpha" operator="out"/>
<feColorMatrix type="matrix" values="0 0 0 0 0 0 0 0 0 0 0 0 0 0 0 0 0 0 0.25 0"/>
<feBlend mode="normal" in2="BackgroundImageFix" result="effect1_dropShadow_1091_6755"/>
<feBlend mode="normal" in="SourceGraphic" in2="effect1_dropShadow_1091_6755" result="shape"/>
</filter>
</defs>
</svg>
