<svg width="320" height="152" viewBox="0 0 320 152" fill="none" xmlns="http://www.w3.org/2000/svg">
<g clip-path="url(#clip0_3028_10709)">
<rect width="288" height="32" transform="translate(16)" fill="white"/>
<path d="M19.125 20H16.8807V12.7273H19.2244C19.9299 12.7273 20.5336 12.8729 21.0355 13.1641C21.5374 13.4529 21.9221 13.8684 22.1896 14.4105C22.4571 14.9503 22.5909 15.5966 22.5909 16.3494C22.5909 17.107 22.456 17.7592 22.1861 18.3061C21.9162 18.8506 21.5232 19.2696 21.0071 19.5632C20.491 19.8544 19.8636 20 19.125 20ZM17.7614 19.2188H19.0682C19.6695 19.2188 20.1679 19.1027 20.5632 18.8707C20.9586 18.6387 21.2533 18.3085 21.4474 17.88C21.6416 17.4515 21.7386 16.9413 21.7386 16.3494C21.7386 15.7623 21.6428 15.2569 21.451 14.8331C21.2592 14.407 20.9728 14.0803 20.5916 13.853C20.2105 13.6233 19.7358 13.5085 19.1676 13.5085H17.7614V19.2188ZM26.2415 20.1136C25.7159 20.1136 25.2625 19.9976 24.8814 19.7656C24.5026 19.5312 24.2102 19.2045 24.0043 18.7855C23.8007 18.3641 23.6989 17.8741 23.6989 17.3153C23.6989 16.7566 23.8007 16.2642 24.0043 15.8381C24.2102 15.4096 24.4967 15.0758 24.8636 14.8366C25.233 14.5952 25.6638 14.4744 26.1562 14.4744C26.4403 14.4744 26.7209 14.5218 26.9979 14.6165C27.2749 14.7112 27.527 14.8651 27.7543 15.0781C27.9815 15.2888 28.1626 15.5682 28.2976 15.9162C28.4325 16.2642 28.5 16.6927 28.5 17.2017V17.5568H24.2955V16.8324H27.6477C27.6477 16.5246 27.5862 16.25 27.4631 16.0085C27.3423 15.767 27.1695 15.5765 26.9446 15.4368C26.7221 15.2971 26.4593 15.2273 26.1562 15.2273C25.8224 15.2273 25.5336 15.3101 25.2898 15.4759C25.0483 15.6392 24.8625 15.8523 24.7322 16.1151C24.602 16.3778 24.5369 16.6596 24.5369 16.9602V17.4432C24.5369 17.8551 24.608 18.2043 24.75 18.4908C24.8944 18.7749 25.0945 18.9915 25.3501 19.1406C25.6058 19.2874 25.9029 19.3608 26.2415 19.3608C26.4616 19.3608 26.6605 19.33 26.8381 19.2685C27.018 19.2045 27.1731 19.1098 27.3033 18.9844C27.4335 18.8565 27.5341 18.6979 27.6051 18.5085L28.4148 18.7358C28.3295 19.0104 28.1863 19.2519 27.9851 19.4602C27.7839 19.6662 27.5353 19.8272 27.2393 19.9432C26.9434 20.0568 26.6108 20.1136 26.2415 20.1136ZM30.6129 12.7273V20H29.7749V12.7273H30.6129ZM34.5201 14.5455V15.2557H31.6934V14.5455H34.5201ZM32.5172 13.2386H33.3553V18.4375C33.3553 18.6742 33.3896 18.8518 33.4583 18.9702C33.5293 19.0862 33.6193 19.1643 33.7282 19.2045C33.8394 19.2424 33.9566 19.2614 34.0797 19.2614C34.1721 19.2614 34.2478 19.2566 34.307 19.2472C34.3662 19.2353 34.4135 19.2259 34.449 19.2188L34.6195 19.9716C34.5627 19.9929 34.4834 20.0142 34.3816 20.0355C34.2798 20.0592 34.1507 20.071 33.9945 20.071C33.7578 20.071 33.5257 20.0201 33.2985 19.9183C33.0736 19.8165 32.8865 19.6615 32.7374 19.4531C32.5906 19.2448 32.5172 18.982 32.5172 18.6648V13.2386ZM37.3858 20.1278C37.0402 20.1278 36.7265 20.0627 36.4448 19.9325C36.1631 19.8 35.9393 19.6094 35.7736 19.3608C35.6079 19.1098 35.525 18.8068 35.525 18.4517C35.525 18.1392 35.5866 17.8859 35.7097 17.6918C35.8328 17.4953 35.9973 17.3414 36.2033 17.2301C36.4093 17.1188 36.6365 17.036 36.8851 16.9815C37.1361 16.9247 37.3882 16.8797 37.6415 16.8466C37.973 16.804 38.2417 16.772 38.4476 16.7507C38.656 16.727 38.8075 16.688 38.9022 16.6335C38.9992 16.5791 39.0478 16.4844 39.0478 16.3494V16.321C39.0478 15.9706 38.9519 15.6984 38.7601 15.5043C38.5707 15.3101 38.2831 15.2131 37.8972 15.2131C37.4971 15.2131 37.1834 15.3007 36.9561 15.4759C36.7289 15.651 36.5691 15.8381 36.4767 16.0369L35.6813 15.7528C35.8233 15.4214 36.0127 15.1634 36.2495 14.9787C36.4886 14.7917 36.749 14.6615 37.0307 14.5881C37.3148 14.5123 37.5942 14.4744 37.8688 14.4744C38.044 14.4744 38.2452 14.4957 38.4725 14.5384C38.7021 14.5786 38.9235 14.6626 39.1365 14.7905C39.352 14.9183 39.5307 15.1113 39.6728 15.3693C39.8148 15.6274 39.8858 15.973 39.8858 16.4062V20H39.0478V19.2614H39.0051C38.9483 19.3797 38.8536 19.5064 38.7211 19.6413C38.5885 19.7763 38.4121 19.8911 38.1919 19.9858C37.9718 20.0805 37.7031 20.1278 37.3858 20.1278ZM37.5137 19.375C37.8451 19.375 38.1245 19.3099 38.3517 19.1797C38.5814 19.0495 38.7542 18.8814 38.8702 18.6754C38.9886 18.4695 39.0478 18.2528 39.0478 18.0256V17.2585C39.0123 17.3011 38.9341 17.3402 38.8134 17.3757C38.695 17.4089 38.5577 17.4384 38.4015 17.4645C38.2476 17.4882 38.0972 17.5095 37.9505 17.5284C37.806 17.545 37.6889 17.5592 37.5989 17.571C37.3811 17.5994 37.1775 17.6456 36.9881 17.7095C36.8011 17.7711 36.6496 17.8646 36.5336 17.9901C36.4199 18.1132 36.3631 18.2812 36.3631 18.4943C36.3631 18.7855 36.4708 19.0057 36.6863 19.1548C36.9041 19.3016 37.1799 19.375 37.5137 19.375ZM44.7678 12.7273L46.6428 15.7528H46.6996L48.5746 12.7273H49.6115L47.3246 16.3636L49.6115 20H48.5746L46.6996 17.0312H46.6428L44.7678 20H43.7308L46.0746 16.3636L43.7308 12.7273H44.7678Z" fill="var(--colors-neutral-neutral-800)"/>
<rect width="184" height="32" transform="translate(120)" fill="var(--colors-neutral-neutral-300)"/>
<path d="M131.631 20.1193C131.131 20.1193 130.68 20.0199 130.28 19.821C129.879 19.6222 129.558 19.3494 129.317 19.0028C129.075 18.6562 128.943 18.2614 128.92 17.8182H129.943C129.983 18.2131 130.162 18.5398 130.48 18.7983C130.801 19.054 131.185 19.1818 131.631 19.1818C131.989 19.1818 132.307 19.098 132.585 18.9304C132.866 18.7628 133.087 18.5327 133.246 18.2401C133.408 17.9446 133.489 17.6108 133.489 17.2386C133.489 16.858 133.405 16.5185 133.237 16.2202C133.072 15.919 132.845 15.6818 132.555 15.5085C132.266 15.3352 131.935 15.2472 131.562 15.2443C131.295 15.2415 131.021 15.2827 130.74 15.3679C130.459 15.4503 130.227 15.5568 130.045 15.6875L129.057 15.5682L129.585 11.2727H134.119V12.2102H130.472L130.165 14.7841H130.216C130.395 14.642 130.619 14.5241 130.889 14.4304C131.159 14.3366 131.44 14.2898 131.733 14.2898C132.267 14.2898 132.743 14.4176 133.161 14.6733C133.581 14.9261 133.911 15.2727 134.149 15.7131C134.391 16.1534 134.511 16.6562 134.511 17.2216C134.511 17.7784 134.386 18.2756 134.136 18.7131C133.889 19.1477 133.548 19.4915 133.114 19.7443C132.679 19.9943 132.185 20.1193 131.631 20.1193ZM139.051 20.1193C138.409 20.1193 137.862 19.9446 137.41 19.5952C136.958 19.2429 136.613 18.733 136.375 18.0653C136.136 17.3949 136.017 16.5852 136.017 15.6364C136.017 14.6932 136.136 13.8878 136.375 13.2202C136.616 12.5497 136.963 12.0384 137.414 11.6861C137.869 11.331 138.414 11.1534 139.051 11.1534C139.687 11.1534 140.231 11.331 140.683 11.6861C141.137 12.0384 141.484 12.5497 141.723 13.2202C141.964 13.8878 142.085 14.6932 142.085 15.6364C142.085 16.5852 141.966 17.3949 141.727 18.0653C141.488 18.733 141.143 19.2429 140.691 19.5952C140.24 19.9446 139.693 20.1193 139.051 20.1193ZM139.051 19.1818C139.687 19.1818 140.181 18.875 140.534 18.2614C140.886 17.6477 141.062 16.7727 141.062 15.6364C141.062 14.8807 140.981 14.2372 140.819 13.706C140.66 13.1747 140.43 12.7699 140.129 12.4915C139.831 12.2131 139.471 12.0739 139.051 12.0739C138.42 12.0739 137.927 12.3849 137.572 13.0071C137.217 13.6264 137.039 14.5028 137.039 15.6364C137.039 16.392 137.119 17.0341 137.278 17.5625C137.437 18.0909 137.666 18.4929 137.964 18.7685C138.265 19.044 138.627 19.1818 139.051 19.1818Z" fill="var(--colors-neutral-neutral-800)"/>
<path d="M281.384 19.5V14.0455H282.194V14.8977H282.265C282.379 14.6065 282.562 14.3804 282.815 14.2195C283.069 14.0561 283.373 13.9744 283.728 13.9744C284.088 13.9744 284.387 14.0561 284.626 14.2195C284.868 14.3804 285.056 14.6065 285.191 14.8977H285.248C285.388 14.616 285.597 14.3923 285.876 14.2266C286.156 14.0585 286.491 13.9744 286.881 13.9744C287.369 13.9744 287.768 14.1271 288.078 14.4325C288.388 14.7356 288.543 15.2079 288.543 15.8494V19.5H287.705V15.8494C287.705 15.447 287.595 15.1593 287.375 14.9865C287.155 14.8137 286.896 14.7273 286.597 14.7273C286.214 14.7273 285.917 14.8433 285.706 15.0753C285.495 15.3049 285.39 15.5961 285.39 15.9489V19.5H284.538V15.7642C284.538 15.4541 284.437 15.2043 284.236 15.0149C284.035 14.8232 283.775 14.7273 283.458 14.7273C283.24 14.7273 283.037 14.7853 282.847 14.9013C282.66 15.0173 282.509 15.1783 282.393 15.3842C282.279 15.5878 282.222 15.8234 282.222 16.0909V19.5H281.384ZM290.076 19.5V14.0455H290.885V14.8977H290.956C291.07 14.6065 291.253 14.3804 291.507 14.2195C291.76 14.0561 292.064 13.9744 292.419 13.9744C292.779 13.9744 293.079 14.0561 293.318 14.2195C293.559 14.3804 293.748 14.6065 293.882 14.8977H293.939C294.079 14.616 294.288 14.3923 294.568 14.2266C294.847 14.0585 295.182 13.9744 295.573 13.9744C296.06 13.9744 296.459 14.1271 296.77 14.4325C297.08 14.7356 297.235 15.2079 297.235 15.8494V19.5H296.397V15.8494C296.397 15.447 296.287 15.1593 296.066 14.9865C295.846 14.8137 295.587 14.7273 295.289 14.7273C294.905 14.7273 294.608 14.8433 294.397 15.0753C294.187 15.3049 294.081 15.5961 294.081 15.9489V19.5H293.229V15.7642C293.229 15.4541 293.128 15.2043 292.927 15.0149C292.726 14.8232 292.467 14.7273 292.15 14.7273C291.932 14.7273 291.728 14.7853 291.539 14.9013C291.352 15.0173 291.2 15.1783 291.084 15.3842C290.971 15.5878 290.914 15.8234 290.914 16.0909V19.5H290.076Z" fill="var(--colors-neutral-neutral-700)"/>
</g>
<g clip-path="url(#clip1_3028_10709)">
<rect width="288" height="32" transform="translate(16 40)" fill="white"/>
<path d="M19.125 60H16.8807V52.7273H19.2244C19.9299 52.7273 20.5336 52.8729 21.0355 53.1641C21.5374 53.4529 21.9221 53.8684 22.1896 54.4105C22.4571 54.9503 22.5909 55.5966 22.5909 56.3494C22.5909 57.107 22.456 57.7592 22.1861 58.3061C21.9162 58.8506 21.5232 59.2696 21.0071 59.5632C20.491 59.8544 19.8636 60 19.125 60ZM17.7614 59.2188H19.0682C19.6695 59.2188 20.1679 59.1027 20.5632 58.8707C20.9586 58.6387 21.2533 58.3085 21.4474 57.88C21.6416 57.4515 21.7386 56.9413 21.7386 56.3494C21.7386 55.7623 21.6428 55.2569 21.451 54.8331C21.2592 54.407 20.9728 54.0803 20.5916 53.853C20.2105 53.6233 19.7358 53.5085 19.1676 53.5085H17.7614V59.2188ZM26.2415 60.1136C25.7159 60.1136 25.2625 59.9976 24.8814 59.7656C24.5026 59.5312 24.2102 59.2045 24.0043 58.7855C23.8007 58.3641 23.6989 57.8741 23.6989 57.3153C23.6989 56.7566 23.8007 56.2642 24.0043 55.8381C24.2102 55.4096 24.4967 55.0758 24.8636 54.8366C25.233 54.5952 25.6638 54.4744 26.1562 54.4744C26.4403 54.4744 26.7209 54.5218 26.9979 54.6165C27.2749 54.7112 27.527 54.8651 27.7543 55.0781C27.9815 55.2888 28.1626 55.5682 28.2976 55.9162C28.4325 56.2642 28.5 56.6927 28.5 57.2017V57.5568H24.2955V56.8324H27.6477C27.6477 56.5246 27.5862 56.25 27.4631 56.0085C27.3423 55.767 27.1695 55.5765 26.9446 55.4368C26.7221 55.2971 26.4593 55.2273 26.1562 55.2273C25.8224 55.2273 25.5336 55.3101 25.2898 55.4759C25.0483 55.6392 24.8625 55.8523 24.7322 56.1151C24.602 56.3778 24.5369 56.6596 24.5369 56.9602V57.4432C24.5369 57.8551 24.608 58.2043 24.75 58.4908C24.8944 58.7749 25.0945 58.9915 25.3501 59.1406C25.6058 59.2874 25.9029 59.3608 26.2415 59.3608C26.4616 59.3608 26.6605 59.33 26.8381 59.2685C27.018 59.2045 27.1731 59.1098 27.3033 58.9844C27.4335 58.8565 27.5341 58.6979 27.6051 58.5085L28.4148 58.7358C28.3295 59.0104 28.1863 59.2519 27.9851 59.4602C27.7839 59.6662 27.5353 59.8272 27.2393 59.9432C26.9434 60.0568 26.6108 60.1136 26.2415 60.1136ZM30.6129 52.7273V60H29.7749V52.7273H30.6129ZM34.5201 54.5455V55.2557H31.6934V54.5455H34.5201ZM32.5172 53.2386H33.3553V58.4375C33.3553 58.6742 33.3896 58.8518 33.4583 58.9702C33.5293 59.0862 33.6193 59.1643 33.7282 59.2045C33.8394 59.2424 33.9566 59.2614 34.0797 59.2614C34.1721 59.2614 34.2478 59.2566 34.307 59.2472C34.3662 59.2353 34.4135 59.2259 34.449 59.2188L34.6195 59.9716C34.5627 59.9929 34.4834 60.0142 34.3816 60.0355C34.2798 60.0592 34.1507 60.071 33.9945 60.071C33.7578 60.071 33.5257 60.0201 33.2985 59.9183C33.0736 59.8165 32.8865 59.6615 32.7374 59.4531C32.5906 59.2448 32.5172 58.982 32.5172 58.6648V53.2386ZM37.3858 60.1278C37.0402 60.1278 36.7265 60.0627 36.4448 59.9325C36.1631 59.8 35.9393 59.6094 35.7736 59.3608C35.6079 59.1098 35.525 58.8068 35.525 58.4517C35.525 58.1392 35.5866 57.8859 35.7097 57.6918C35.8328 57.4953 35.9973 57.3414 36.2033 57.2301C36.4093 57.1188 36.6365 57.036 36.8851 56.9815C37.1361 56.9247 37.3882 56.8797 37.6415 56.8466C37.973 56.804 38.2417 56.772 38.4476 56.7507C38.656 56.727 38.8075 56.688 38.9022 56.6335C38.9992 56.5791 39.0478 56.4844 39.0478 56.3494V56.321C39.0478 55.9706 38.9519 55.6984 38.7601 55.5043C38.5707 55.3101 38.2831 55.2131 37.8972 55.2131C37.4971 55.2131 37.1834 55.3007 36.9561 55.4759C36.7289 55.651 36.5691 55.8381 36.4767 56.0369L35.6813 55.7528C35.8233 55.4214 36.0127 55.1634 36.2495 54.9787C36.4886 54.7917 36.749 54.6615 37.0307 54.5881C37.3148 54.5123 37.5942 54.4744 37.8688 54.4744C38.044 54.4744 38.2452 54.4957 38.4725 54.5384C38.7021 54.5786 38.9235 54.6626 39.1365 54.7905C39.352 54.9183 39.5307 55.1113 39.6728 55.3693C39.8148 55.6274 39.8858 55.973 39.8858 56.4062V60H39.0478V59.2614H39.0051C38.9483 59.3797 38.8536 59.5064 38.7211 59.6413C38.5885 59.7763 38.4121 59.8911 38.1919 59.9858C37.9718 60.0805 37.7031 60.1278 37.3858 60.1278ZM37.5137 59.375C37.8451 59.375 38.1245 59.3099 38.3517 59.1797C38.5814 59.0495 38.7542 58.8814 38.8702 58.6754C38.9886 58.4695 39.0478 58.2528 39.0478 58.0256V57.2585C39.0123 57.3011 38.9341 57.3402 38.8134 57.3757C38.695 57.4089 38.5577 57.4384 38.4015 57.4645C38.2476 57.4882 38.0972 57.5095 37.9505 57.5284C37.806 57.545 37.6889 57.5592 37.5989 57.571C37.3811 57.5994 37.1775 57.6456 36.9881 57.7095C36.8011 57.7711 36.6496 57.8646 36.5336 57.9901C36.4199 58.1132 36.3631 58.2812 36.3631 58.4943C36.3631 58.7855 36.4708 59.0057 36.6863 59.1548C36.9041 59.3016 37.1799 59.375 37.5137 59.375ZM43.7166 52.7273H44.7251L46.7422 56.1222H46.8274L48.8445 52.7273H49.853L47.2251 57.0028V60H46.3445V57.0028L43.7166 52.7273Z" fill="var(--colors-neutral-neutral-800)"/>
<rect width="184" height="32" transform="translate(120 40)" fill="var(--colors-neutral-neutral-300)"/>
<path d="M131.631 60.1193C131.131 60.1193 130.68 60.0199 130.28 59.821C129.879 59.6222 129.558 59.3494 129.317 59.0028C129.075 58.6562 128.943 58.2614 128.92 57.8182H129.943C129.983 58.2131 130.162 58.5398 130.48 58.7983C130.801 59.054 131.185 59.1818 131.631 59.1818C131.989 59.1818 132.307 59.098 132.585 58.9304C132.866 58.7628 133.087 58.5327 133.246 58.2401C133.408 57.9446 133.489 57.6108 133.489 57.2386C133.489 56.858 133.405 56.5185 133.237 56.2202C133.072 55.919 132.845 55.6818 132.555 55.5085C132.266 55.3352 131.935 55.2472 131.562 55.2443C131.295 55.2415 131.021 55.2827 130.74 55.3679C130.459 55.4503 130.227 55.5568 130.045 55.6875L129.057 55.5682L129.585 51.2727H134.119V52.2102H130.472L130.165 54.7841H130.216C130.395 54.642 130.619 54.5241 130.889 54.4304C131.159 54.3366 131.44 54.2898 131.733 54.2898C132.267 54.2898 132.743 54.4176 133.161 54.6733C133.581 54.9261 133.911 55.2727 134.149 55.7131C134.391 56.1534 134.511 56.6562 134.511 57.2216C134.511 57.7784 134.386 58.2756 134.136 58.7131C133.889 59.1477 133.548 59.4915 133.114 59.7443C132.679 59.9943 132.185 60.1193 131.631 60.1193ZM139.051 60.1193C138.409 60.1193 137.862 59.9446 137.41 59.5952C136.958 59.2429 136.613 58.733 136.375 58.0653C136.136 57.3949 136.017 56.5852 136.017 55.6364C136.017 54.6932 136.136 53.8878 136.375 53.2202C136.616 52.5497 136.963 52.0384 137.414 51.6861C137.869 51.331 138.414 51.1534 139.051 51.1534C139.687 51.1534 140.231 51.331 140.683 51.6861C141.137 52.0384 141.484 52.5497 141.723 53.2202C141.964 53.8878 142.085 54.6932 142.085 55.6364C142.085 56.5852 141.966 57.3949 141.727 58.0653C141.488 58.733 141.143 59.2429 140.691 59.5952C140.24 59.9446 139.693 60.1193 139.051 60.1193ZM139.051 59.1818C139.687 59.1818 140.181 58.875 140.534 58.2614C140.886 57.6477 141.062 56.7727 141.062 55.6364C141.062 54.8807 140.981 54.2372 140.819 53.706C140.66 53.1747 140.43 52.7699 140.129 52.4915C139.831 52.2131 139.471 52.0739 139.051 52.0739C138.42 52.0739 137.927 52.3849 137.572 53.0071C137.217 53.6264 137.039 54.5028 137.039 55.6364C137.039 56.392 137.119 57.0341 137.278 57.5625C137.437 58.0909 137.666 58.4929 137.964 58.7685C138.265 59.044 138.627 59.1818 139.051 59.1818Z" fill="var(--colors-neutral-neutral-800)"/>
<path d="M281.384 59.5V54.0455H282.194V54.8977H282.265C282.379 54.6065 282.562 54.3804 282.815 54.2195C283.069 54.0561 283.373 53.9744 283.728 53.9744C284.088 53.9744 284.387 54.0561 284.626 54.2195C284.868 54.3804 285.056 54.6065 285.191 54.8977H285.248C285.388 54.616 285.597 54.3923 285.876 54.2266C286.156 54.0585 286.491 53.9744 286.881 53.9744C287.369 53.9744 287.768 54.1271 288.078 54.4325C288.388 54.7356 288.543 55.2079 288.543 55.8494V59.5H287.705V55.8494C287.705 55.447 287.595 55.1593 287.375 54.9865C287.155 54.8137 286.896 54.7273 286.597 54.7273C286.214 54.7273 285.917 54.8433 285.706 55.0753C285.495 55.3049 285.39 55.5961 285.39 55.9489V59.5H284.538V55.7642C284.538 55.4541 284.437 55.2043 284.236 55.0149C284.035 54.8232 283.775 54.7273 283.458 54.7273C283.24 54.7273 283.037 54.7853 282.847 54.9013C282.66 55.0173 282.509 55.1783 282.393 55.3842C282.279 55.5878 282.222 55.8234 282.222 56.0909V59.5H281.384ZM290.076 59.5V54.0455H290.885V54.8977H290.956C291.07 54.6065 291.253 54.3804 291.507 54.2195C291.76 54.0561 292.064 53.9744 292.419 53.9744C292.779 53.9744 293.079 54.0561 293.318 54.2195C293.559 54.3804 293.748 54.6065 293.882 54.8977H293.939C294.079 54.616 294.288 54.3923 294.568 54.2266C294.847 54.0585 295.182 53.9744 295.573 53.9744C296.06 53.9744 296.459 54.1271 296.77 54.4325C297.08 54.7356 297.235 55.2079 297.235 55.8494V59.5H296.397V55.8494C296.397 55.447 296.287 55.1593 296.066 54.9865C295.846 54.8137 295.587 54.7273 295.289 54.7273C294.905 54.7273 294.608 54.8433 294.397 55.0753C294.187 55.3049 294.081 55.5961 294.081 55.9489V59.5H293.229V55.7642C293.229 55.4541 293.128 55.2043 292.927 55.0149C292.726 54.8232 292.467 54.7273 292.15 54.7273C291.932 54.7273 291.728 54.7853 291.539 54.9013C291.352 55.0173 291.2 55.1783 291.084 55.3842C290.971 55.5878 290.914 55.8234 290.914 56.0909V59.5H290.076Z" fill="var(--colors-neutral-neutral-700)"/>
</g>
<g clip-path="url(#clip2_3028_10709)">
<rect width="288" height="32" transform="translate(16 80)" fill="white"/>
<path d="M19.125 100H16.8807V92.7273H19.2244C19.9299 92.7273 20.5336 92.8729 21.0355 93.1641C21.5374 93.4529 21.9221 93.8684 22.1896 94.4105C22.4571 94.9503 22.5909 95.5966 22.5909 96.3494C22.5909 97.107 22.456 97.7592 22.1861 98.3061C21.9162 98.8506 21.5232 99.2696 21.0071 99.5632C20.491 99.8544 19.8636 100 19.125 100ZM17.7614 99.2188H19.0682C19.6695 99.2188 20.1679 99.1027 20.5632 98.8707C20.9586 98.6387 21.2533 98.3085 21.4474 97.88C21.6416 97.4515 21.7386 96.9413 21.7386 96.3494C21.7386 95.7623 21.6428 95.2569 21.451 94.8331C21.2592 94.407 20.9728 94.0803 20.5916 93.853C20.2105 93.6233 19.7358 93.5085 19.1676 93.5085H17.7614V99.2188ZM26.2415 100.114C25.7159 100.114 25.2625 99.9976 24.8814 99.7656C24.5026 99.5312 24.2102 99.2045 24.0043 98.7855C23.8007 98.3641 23.6989 97.8741 23.6989 97.3153C23.6989 96.7566 23.8007 96.2642 24.0043 95.8381C24.2102 95.4096 24.4967 95.0758 24.8636 94.8366C25.233 94.5952 25.6638 94.4744 26.1562 94.4744C26.4403 94.4744 26.7209 94.5218 26.9979 94.6165C27.2749 94.7112 27.527 94.8651 27.7543 95.0781C27.9815 95.2888 28.1626 95.5682 28.2976 95.9162C28.4325 96.2642 28.5 96.6927 28.5 97.2017V97.5568H24.2955V96.8324H27.6477C27.6477 96.5246 27.5862 96.25 27.4631 96.0085C27.3423 95.767 27.1695 95.5765 26.9446 95.4368C26.7221 95.2971 26.4593 95.2273 26.1562 95.2273C25.8224 95.2273 25.5336 95.3101 25.2898 95.4759C25.0483 95.6392 24.8625 95.8523 24.7322 96.1151C24.602 96.3778 24.5369 96.6596 24.5369 96.9602V97.4432C24.5369 97.8551 24.608 98.2043 24.75 98.4908C24.8944 98.7749 25.0945 98.9915 25.3501 99.1406C25.6058 99.2874 25.9029 99.3608 26.2415 99.3608C26.4616 99.3608 26.6605 99.33 26.8381 99.2685C27.018 99.2045 27.1731 99.1098 27.3033 98.9844C27.4335 98.8565 27.5341 98.6979 27.6051 98.5085L28.4148 98.7358C28.3295 99.0104 28.1863 99.2519 27.9851 99.4602C27.7839 99.6662 27.5353 99.8272 27.2393 99.9432C26.9434 100.057 26.6108 100.114 26.2415 100.114ZM30.6129 92.7273V100H29.7749V92.7273H30.6129ZM34.5201 94.5455V95.2557H31.6934V94.5455H34.5201ZM32.5172 93.2386H33.3553V98.4375C33.3553 98.6742 33.3896 98.8518 33.4583 98.9702C33.5293 99.0862 33.6193 99.1643 33.7282 99.2045C33.8394 99.2424 33.9566 99.2614 34.0797 99.2614C34.1721 99.2614 34.2478 99.2566 34.307 99.2472C34.3662 99.2353 34.4135 99.2259 34.449 99.2188L34.6195 99.9716C34.5627 99.9929 34.4834 100.014 34.3816 100.036C34.2798 100.059 34.1507 100.071 33.9945 100.071C33.7578 100.071 33.5257 100.02 33.2985 99.9183C33.0736 99.8165 32.8865 99.6615 32.7374 99.4531C32.5906 99.2448 32.5172 98.982 32.5172 98.6648V93.2386ZM37.3858 100.128C37.0402 100.128 36.7265 100.063 36.4448 99.9325C36.1631 99.8 35.9393 99.6094 35.7736 99.3608C35.6079 99.1098 35.525 98.8068 35.525 98.4517C35.525 98.1392 35.5866 97.8859 35.7097 97.6918C35.8328 97.4953 35.9973 97.3414 36.2033 97.2301C36.4093 97.1188 36.6365 97.036 36.8851 96.9815C37.1361 96.9247 37.3882 96.8797 37.6415 96.8466C37.973 96.804 38.2417 96.772 38.4476 96.7507C38.656 96.727 38.8075 96.688 38.9022 96.6335C38.9992 96.5791 39.0478 96.4844 39.0478 96.3494V96.321C39.0478 95.9706 38.9519 95.6984 38.7601 95.5043C38.5707 95.3101 38.2831 95.2131 37.8972 95.2131C37.4971 95.2131 37.1834 95.3007 36.9561 95.4759C36.7289 95.651 36.5691 95.8381 36.4767 96.0369L35.6813 95.7528C35.8233 95.4214 36.0127 95.1634 36.2495 94.9787C36.4886 94.7917 36.749 94.6615 37.0307 94.5881C37.3148 94.5123 37.5942 94.4744 37.8688 94.4744C38.044 94.4744 38.2452 94.4957 38.4725 94.5384C38.7021 94.5786 38.9235 94.6626 39.1365 94.7905C39.352 94.9183 39.5307 95.1113 39.6728 95.3693C39.8148 95.6274 39.8858 95.973 39.8858 96.4062V100H39.0478V99.2614H39.0051C38.9483 99.3797 38.8536 99.5064 38.7211 99.6413C38.5885 99.7763 38.4121 99.8911 38.1919 99.9858C37.9718 100.08 37.7031 100.128 37.3858 100.128ZM37.5137 99.375C37.8451 99.375 38.1245 99.3099 38.3517 99.1797C38.5814 99.0495 38.7542 98.8814 38.8702 98.6754C38.9886 98.4695 39.0478 98.2528 39.0478 98.0256V97.2585C39.0123 97.3011 38.9341 97.3402 38.8134 97.3757C38.695 97.4089 38.5577 97.4384 38.4015 97.4645C38.2476 97.4882 38.0972 97.5095 37.9505 97.5284C37.806 97.545 37.6889 97.5592 37.5989 97.571C37.3811 97.5994 37.1775 97.6456 36.9881 97.7095C36.8011 97.7711 36.6496 97.8646 36.5336 97.9901C36.4199 98.1132 36.3631 98.2812 36.3631 98.4943C36.3631 98.7855 36.4708 99.0057 36.6863 99.1548C36.9041 99.3016 37.1799 99.375 37.5137 99.375ZM44.1001 100V99.3608L48.0206 93.5085H44.0575V92.7273H49.0717V93.3665L45.1513 99.2188H49.1143V100H44.1001Z" fill="var(--colors-neutral-neutral-800)"/>
<rect width="184" height="32" transform="translate(120 80)" fill="var(--colors-neutral-neutral-300)"/>
<path d="M131.631 100.119C131.131 100.119 130.68 100.02 130.28 99.821C129.879 99.6222 129.558 99.3494 129.317 99.0028C129.075 98.6562 128.943 98.2614 128.92 97.8182H129.943C129.983 98.2131 130.162 98.5398 130.48 98.7983C130.801 99.054 131.185 99.1818 131.631 99.1818C131.989 99.1818 132.307 99.098 132.585 98.9304C132.866 98.7628 133.087 98.5327 133.246 98.2401C133.408 97.9446 133.489 97.6108 133.489 97.2386C133.489 96.858 133.405 96.5185 133.237 96.2202C133.072 95.919 132.845 95.6818 132.555 95.5085C132.266 95.3352 131.935 95.2472 131.562 95.2443C131.295 95.2415 131.021 95.2827 130.74 95.3679C130.459 95.4503 130.227 95.5568 130.045 95.6875L129.057 95.5682L129.585 91.2727H134.119V92.2102H130.472L130.165 94.7841H130.216C130.395 94.642 130.619 94.5241 130.889 94.4304C131.159 94.3366 131.44 94.2898 131.733 94.2898C132.267 94.2898 132.743 94.4176 133.161 94.6733C133.581 94.9261 133.911 95.2727 134.149 95.7131C134.391 96.1534 134.511 96.6562 134.511 97.2216C134.511 97.7784 134.386 98.2756 134.136 98.7131C133.889 99.1477 133.548 99.4915 133.114 99.7443C132.679 99.9943 132.185 100.119 131.631 100.119ZM139.051 100.119C138.409 100.119 137.862 99.9446 137.41 99.5952C136.958 99.2429 136.613 98.733 136.375 98.0653C136.136 97.3949 136.017 96.5852 136.017 95.6364C136.017 94.6932 136.136 93.8878 136.375 93.2202C136.616 92.5497 136.963 92.0384 137.414 91.6861C137.869 91.331 138.414 91.1534 139.051 91.1534C139.687 91.1534 140.231 91.331 140.683 91.6861C141.137 92.0384 141.484 92.5497 141.723 93.2202C141.964 93.8878 142.085 94.6932 142.085 95.6364C142.085 96.5852 141.966 97.3949 141.727 98.0653C141.488 98.733 141.143 99.2429 140.691 99.5952C140.24 99.9446 139.693 100.119 139.051 100.119ZM139.051 99.1818C139.687 99.1818 140.181 98.875 140.534 98.2614C140.886 97.6477 141.062 96.7727 141.062 95.6364C141.062 94.8807 140.981 94.2372 140.819 93.706C140.66 93.1747 140.43 92.7699 140.129 92.4915C139.831 92.2131 139.471 92.0739 139.051 92.0739C138.42 92.0739 137.927 92.3849 137.572 93.0071C137.217 93.6264 137.039 94.5028 137.039 95.6364C137.039 96.392 137.119 97.0341 137.278 97.5625C137.437 98.0909 137.666 98.4929 137.964 98.7685C138.265 99.044 138.627 99.1818 139.051 99.1818Z" fill="var(--colors-neutral-neutral-800)"/>
<path d="M281.384 99.5V94.0455H282.194V94.8977H282.265C282.379 94.6065 282.562 94.3804 282.815 94.2195C283.069 94.0561 283.373 93.9744 283.728 93.9744C284.088 93.9744 284.387 94.0561 284.626 94.2195C284.868 94.3804 285.056 94.6065 285.191 94.8977H285.248C285.388 94.616 285.597 94.3923 285.876 94.2266C286.156 94.0585 286.491 93.9744 286.881 93.9744C287.369 93.9744 287.768 94.1271 288.078 94.4325C288.388 94.7356 288.543 95.2079 288.543 95.8494V99.5H287.705V95.8494C287.705 95.447 287.595 95.1593 287.375 94.9865C287.155 94.8137 286.896 94.7273 286.597 94.7273C286.214 94.7273 285.917 94.8433 285.706 95.0753C285.495 95.3049 285.39 95.5961 285.39 95.9489V99.5H284.538V95.7642C284.538 95.4541 284.437 95.2043 284.236 95.0149C284.035 94.8232 283.775 94.7273 283.458 94.7273C283.24 94.7273 283.037 94.7853 282.847 94.9013C282.66 95.0173 282.509 95.1783 282.393 95.3842C282.279 95.5878 282.222 95.8234 282.222 96.0909V99.5H281.384ZM290.076 99.5V94.0455H290.885V94.8977H290.956C291.07 94.6065 291.253 94.3804 291.507 94.2195C291.76 94.0561 292.064 93.9744 292.419 93.9744C292.779 93.9744 293.079 94.0561 293.318 94.2195C293.559 94.3804 293.748 94.6065 293.882 94.8977H293.939C294.079 94.616 294.288 94.3923 294.568 94.2266C294.847 94.0585 295.182 93.9744 295.573 93.9744C296.06 93.9744 296.459 94.1271 296.77 94.4325C297.08 94.7356 297.235 95.2079 297.235 95.8494V99.5H296.397V95.8494C296.397 95.447 296.287 95.1593 296.066 94.9865C295.846 94.8137 295.587 94.7273 295.289 94.7273C294.905 94.7273 294.608 94.8433 294.397 95.0753C294.187 95.3049 294.081 95.5961 294.081 95.9489V99.5H293.229V95.7642C293.229 95.4541 293.128 95.2043 292.927 95.0149C292.726 94.8232 292.467 94.7273 292.15 94.7273C291.932 94.7273 291.728 94.7853 291.539 94.9013C291.352 95.0173 291.2 95.1783 291.084 95.3842C290.971 95.5878 290.914 95.8234 290.914 96.0909V99.5H290.076Z" fill="var(--colors-neutral-neutral-700)"/>
</g>
<g clip-path="url(#clip3_3028_10709)">
<rect width="288" height="32" transform="translate(16 120)" fill="white"/>
<path d="M19.125 139.5H16.8807V132.227H19.2244C19.9299 132.227 20.5336 132.373 21.0355 132.664C21.5374 132.953 21.9221 133.368 22.1896 133.911C22.4571 134.45 22.5909 135.097 22.5909 135.849C22.5909 136.607 22.456 137.259 22.1861 137.806C21.9162 138.351 21.5232 138.77 21.0071 139.063C20.491 139.354 19.8636 139.5 19.125 139.5ZM17.7614 138.719H19.0682C19.6695 138.719 20.1679 138.603 20.5632 138.371C20.9586 138.139 21.2533 137.808 21.4474 137.38C21.6416 136.951 21.7386 136.441 21.7386 135.849C21.7386 135.262 21.6428 134.757 21.451 134.333C21.2592 133.907 20.9728 133.58 20.5916 133.353C20.2105 133.123 19.7358 133.009 19.1676 133.009H17.7614V138.719ZM26.2415 139.614C25.7159 139.614 25.2625 139.498 24.8814 139.266C24.5026 139.031 24.2102 138.705 24.0043 138.286C23.8007 137.864 23.6989 137.374 23.6989 136.815C23.6989 136.257 23.8007 135.764 24.0043 135.338C24.2102 134.91 24.4967 134.576 24.8636 134.337C25.233 134.095 25.6638 133.974 26.1562 133.974C26.4403 133.974 26.7209 134.022 26.9979 134.116C27.2749 134.211 27.527 134.365 27.7543 134.578C27.9815 134.789 28.1626 135.068 28.2976 135.416C28.4325 135.764 28.5 136.193 28.5 136.702V137.057H24.2955V136.332H27.6477C27.6477 136.025 27.5862 135.75 27.4631 135.509C27.3423 135.267 27.1695 135.076 26.9446 134.937C26.7221 134.797 26.4593 134.727 26.1562 134.727C25.8224 134.727 25.5336 134.81 25.2898 134.976C25.0483 135.139 24.8625 135.352 24.7322 135.615C24.602 135.878 24.5369 136.16 24.5369 136.46V136.943C24.5369 137.355 24.608 137.704 24.75 137.991C24.8944 138.275 25.0945 138.491 25.3501 138.641C25.6058 138.787 25.9029 138.861 26.2415 138.861C26.4616 138.861 26.6605 138.83 26.8381 138.768C27.018 138.705 27.1731 138.61 27.3033 138.484C27.4335 138.357 27.5341 138.198 27.6051 138.009L28.4148 138.236C28.3295 138.51 28.1863 138.752 27.9851 138.96C27.7839 139.166 27.5353 139.327 27.2393 139.443C26.9434 139.557 26.6108 139.614 26.2415 139.614ZM30.6129 132.227V139.5H29.7749V132.227H30.6129ZM34.5201 134.045V134.756H31.6934V134.045H34.5201ZM32.5172 132.739H33.3553V137.938C33.3553 138.174 33.3896 138.352 33.4583 138.47C33.5293 138.586 33.6193 138.664 33.7282 138.705C33.8394 138.742 33.9566 138.761 34.0797 138.761C34.1721 138.761 34.2478 138.757 34.307 138.747C34.3662 138.735 34.4135 138.726 34.449 138.719L34.6195 139.472C34.5627 139.493 34.4834 139.514 34.3816 139.536C34.2798 139.559 34.1507 139.571 33.9945 139.571C33.7578 139.571 33.5257 139.52 33.2985 139.418C33.0736 139.317 32.8865 139.161 32.7374 138.953C32.5906 138.745 32.5172 138.482 32.5172 138.165V132.739ZM37.3858 139.628C37.0402 139.628 36.7265 139.563 36.4448 139.433C36.1631 139.3 35.9393 139.109 35.7736 138.861C35.6079 138.61 35.525 138.307 35.525 137.952C35.525 137.639 35.5866 137.386 35.7097 137.192C35.8328 136.995 35.9973 136.841 36.2033 136.73C36.4093 136.619 36.6365 136.536 36.8851 136.482C37.1361 136.425 37.3882 136.38 37.6415 136.347C37.973 136.304 38.2417 136.272 38.4476 136.251C38.656 136.227 38.8075 136.188 38.9022 136.134C38.9992 136.079 39.0478 135.984 39.0478 135.849V135.821C39.0478 135.471 38.9519 135.198 38.7601 135.004C38.5707 134.81 38.2831 134.713 37.8972 134.713C37.4971 134.713 37.1834 134.801 36.9561 134.976C36.7289 135.151 36.5691 135.338 36.4767 135.537L35.6813 135.253C35.8233 134.921 36.0127 134.663 36.2495 134.479C36.4886 134.292 36.749 134.161 37.0307 134.088C37.3148 134.012 37.5942 133.974 37.8688 133.974C38.044 133.974 38.2452 133.996 38.4725 134.038C38.7021 134.079 38.9235 134.163 39.1365 134.29C39.352 134.418 39.5307 134.611 39.6728 134.869C39.8148 135.127 39.8858 135.473 39.8858 135.906V139.5H39.0478V138.761H39.0051C38.9483 138.88 38.8536 139.006 38.7211 139.141C38.5885 139.276 38.4121 139.391 38.1919 139.486C37.9718 139.58 37.7031 139.628 37.3858 139.628ZM37.5137 138.875C37.8451 138.875 38.1245 138.81 38.3517 138.68C38.5814 138.549 38.7542 138.381 38.8702 138.175C38.9886 137.969 39.0478 137.753 39.0478 137.526V136.759C39.0123 136.801 38.9341 136.84 38.8134 136.876C38.695 136.909 38.5577 136.938 38.4015 136.964C38.2476 136.988 38.0972 137.009 37.9505 137.028C37.806 137.045 37.6889 137.059 37.5989 137.071C37.3811 137.099 37.1775 137.146 36.9881 137.21C36.8011 137.271 36.6496 137.365 36.5336 137.49C36.4199 137.613 36.3631 137.781 36.3631 137.994C36.3631 138.286 36.4708 138.506 36.6863 138.655C36.9041 138.802 37.1799 138.875 37.5137 138.875ZM44.1001 139.5V138.861L48.0206 133.009H44.0575V132.227H49.0717V132.866L45.1513 138.719H49.1143V139.5H44.1001Z" fill="var(--colors-neutral-neutral-800)"/>
<path d="M66.6599 140.65C66.6733 140.537 66.6799 140.423 66.6799 140.31C66.6799 137.55 64.4333 135.31 61.6733 135.31C61.5599 135.31 61.4533 135.317 61.3466 135.33V130.683H60.6799V141.317H71.3199V140.65H66.6599ZM61.3466 140.65V135.99C61.4533 135.983 61.5599 135.977 61.6733 135.977C64.0666 135.977 66.0133 137.917 66.0133 140.31C66.0133 140.423 66.0066 140.537 65.9999 140.65H61.3466Z" fill="var(--colors-neutral-neutral-700)" stroke="var(--colors-neutral-neutral-700)" stroke-width="0.333333" stroke-miterlimit="10"/>
<rect width="184" height="32" transform="translate(120 120)" fill="var(--colors-neutral-neutral-300)"/>
<path d="M131.631 140.119C131.131 140.119 130.68 140.02 130.28 139.821C129.879 139.622 129.558 139.349 129.317 139.003C129.075 138.656 128.943 138.261 128.92 137.818H129.943C129.983 138.213 130.162 138.54 130.48 138.798C130.801 139.054 131.185 139.182 131.631 139.182C131.989 139.182 132.307 139.098 132.585 138.93C132.866 138.763 133.087 138.533 133.246 138.24C133.408 137.945 133.489 137.611 133.489 137.239C133.489 136.858 133.405 136.518 133.237 136.22C133.072 135.919 132.845 135.682 132.555 135.509C132.266 135.335 131.935 135.247 131.562 135.244C131.295 135.241 131.021 135.283 130.74 135.368C130.459 135.45 130.227 135.557 130.045 135.688L129.057 135.568L129.585 131.273H134.119V132.21H130.472L130.165 134.784H130.216C130.395 134.642 130.619 134.524 130.889 134.43C131.159 134.337 131.44 134.29 131.733 134.29C132.267 134.29 132.743 134.418 133.161 134.673C133.581 134.926 133.911 135.273 134.149 135.713C134.391 136.153 134.511 136.656 134.511 137.222C134.511 137.778 134.386 138.276 134.136 138.713C133.889 139.148 133.548 139.491 133.114 139.744C132.679 139.994 132.185 140.119 131.631 140.119ZM139.051 140.119C138.409 140.119 137.862 139.945 137.41 139.595C136.958 139.243 136.613 138.733 136.375 138.065C136.136 137.395 136.017 136.585 136.017 135.636C136.017 134.693 136.136 133.888 136.375 133.22C136.616 132.55 136.963 132.038 137.414 131.686C137.869 131.331 138.414 131.153 139.051 131.153C139.687 131.153 140.231 131.331 140.683 131.686C141.137 132.038 141.484 132.55 141.723 133.22C141.964 133.888 142.085 134.693 142.085 135.636C142.085 136.585 141.966 137.395 141.727 138.065C141.488 138.733 141.143 139.243 140.691 139.595C140.24 139.945 139.693 140.119 139.051 140.119ZM139.051 139.182C139.687 139.182 140.181 138.875 140.534 138.261C140.886 137.648 141.062 136.773 141.062 135.636C141.062 134.881 140.981 134.237 140.819 133.706C140.66 133.175 140.43 132.77 140.129 132.491C139.831 132.213 139.471 132.074 139.051 132.074C138.42 132.074 137.927 132.385 137.572 133.007C137.217 133.626 137.039 134.503 137.039 135.636C137.039 136.392 137.119 137.034 137.278 137.562C137.437 138.091 137.666 138.493 137.964 138.768C138.265 139.044 138.627 139.182 139.051 139.182Z" fill="var(--colors-neutral-neutral-800)"/>
<path d="M281.384 139.5V134.045H282.194V134.898H282.265C282.379 134.607 282.562 134.38 282.815 134.219C283.069 134.056 283.373 133.974 283.728 133.974C284.088 133.974 284.387 134.056 284.626 134.219C284.868 134.38 285.056 134.607 285.191 134.898H285.248C285.388 134.616 285.597 134.392 285.876 134.227C286.156 134.058 286.491 133.974 286.881 133.974C287.369 133.974 287.768 134.127 288.078 134.433C288.388 134.736 288.543 135.208 288.543 135.849V139.5H287.705V135.849C287.705 135.447 287.595 135.159 287.375 134.987C287.155 134.814 286.896 134.727 286.597 134.727C286.214 134.727 285.917 134.843 285.706 135.075C285.495 135.305 285.39 135.596 285.39 135.949V139.5H284.538V135.764C284.538 135.454 284.437 135.204 284.236 135.015C284.035 134.823 283.775 134.727 283.458 134.727C283.24 134.727 283.037 134.785 282.847 134.901C282.66 135.017 282.509 135.178 282.393 135.384C282.279 135.588 282.222 135.823 282.222 136.091V139.5H281.384ZM290.076 139.5V134.045H290.885V134.898H290.956C291.07 134.607 291.253 134.38 291.507 134.219C291.76 134.056 292.064 133.974 292.419 133.974C292.779 133.974 293.079 134.056 293.318 134.219C293.559 134.38 293.748 134.607 293.882 134.898H293.939C294.079 134.616 294.288 134.392 294.568 134.227C294.847 134.058 295.182 133.974 295.573 133.974C296.06 133.974 296.459 134.127 296.77 134.433C297.08 134.736 297.235 135.208 297.235 135.849V139.5H296.397V135.849C296.397 135.447 296.287 135.159 296.066 134.987C295.846 134.814 295.587 134.727 295.289 134.727C294.905 134.727 294.608 134.843 294.397 135.075C294.187 135.305 294.081 135.596 294.081 135.949V139.5H293.229V135.764C293.229 135.454 293.128 135.204 292.927 135.015C292.726 134.823 292.467 134.727 292.15 134.727C291.932 134.727 291.728 134.785 291.539 134.901C291.352 135.017 291.2 135.178 291.084 135.384C290.971 135.588 290.914 135.823 290.914 136.091V139.5H290.076Z" fill="var(--colors-neutral-neutral-700)"/>
</g>
<defs>
<clipPath id="clip0_3028_10709">
<rect width="288" height="32" fill="white" transform="translate(16)"/>
</clipPath>
<clipPath id="clip1_3028_10709">
<rect width="288" height="32" fill="white" transform="translate(16 40)"/>
</clipPath>
<clipPath id="clip2_3028_10709">
<rect width="288" height="32" fill="white" transform="translate(16 80)"/>
</clipPath>
<clipPath id="clip3_3028_10709">
<rect width="288" height="32" fill="white" transform="translate(16 120)"/>
</clipPath>
</defs>
</svg>
