<svg width="320" height="152" viewBox="0 0 320 152" fill="none" xmlns="http://www.w3.org/2000/svg">
<path d="M16.8807 20V12.7273H17.7614V19.2188H21.142V20H16.8807ZM24.679 20.1136C24.1534 20.1136 23.7 19.9976 23.3189 19.7656C22.9401 19.5312 22.6477 19.2045 22.4418 18.7855C22.2382 18.3641 22.1364 17.8741 22.1364 17.3153C22.1364 16.7566 22.2382 16.2642 22.4418 15.8381C22.6477 15.4096 22.9342 15.0758 23.3011 14.8366C23.6705 14.5952 24.1013 14.4744 24.5938 14.4744C24.8778 14.4744 25.1584 14.5218 25.4354 14.6165C25.7124 14.7112 25.9645 14.8651 26.1918 15.0781C26.419 15.2888 26.6001 15.5682 26.7351 15.9162C26.87 16.2642 26.9375 16.6927 26.9375 17.2017V17.5568H22.733V16.8324H26.0852C26.0852 16.5246 26.0237 16.25 25.9006 16.0085C25.7798 15.767 25.607 15.5765 25.3821 15.4368C25.1596 15.2971 24.8968 15.2273 24.5938 15.2273C24.2599 15.2273 23.9711 15.3101 23.7273 15.4759C23.4858 15.6392 23.3 15.8523 23.1697 16.1151C23.0395 16.3778 22.9744 16.6596 22.9744 16.9602V17.4432C22.9744 17.8551 23.0455 18.2043 23.1875 18.4908C23.3319 18.7749 23.532 18.9915 23.7876 19.1406C24.0433 19.2874 24.3404 19.3608 24.679 19.3608C24.8991 19.3608 25.098 19.33 25.2756 19.2685C25.4555 19.2045 25.6106 19.1098 25.7408 18.9844C25.871 18.8565 25.9716 18.6979 26.0426 18.5085L26.8523 18.7358C26.767 19.0104 26.6238 19.2519 26.4226 19.4602C26.2214 19.6662 25.9728 19.8272 25.6768 19.9432C25.3809 20.0568 25.0483 20.1136 24.679 20.1136ZM32.5066 14.5455L30.4895 20H29.6373L27.6202 14.5455H28.5293L30.035 18.892H30.0918L31.5975 14.5455H32.5066ZM35.7044 20.1136C35.1788 20.1136 34.7254 19.9976 34.3443 19.7656C33.9655 19.5312 33.6731 19.2045 33.4672 18.7855C33.2636 18.3641 33.1618 17.8741 33.1618 17.3153C33.1618 16.7566 33.2636 16.2642 33.4672 15.8381C33.6731 15.4096 33.9596 15.0758 34.3265 14.8366C34.6958 14.5952 35.1267 14.4744 35.6191 14.4744C35.9032 14.4744 36.1838 14.5218 36.4608 14.6165C36.7377 14.7112 36.9899 14.8651 37.2172 15.0781C37.4444 15.2888 37.6255 15.5682 37.7605 15.9162C37.8954 16.2642 37.9629 16.6927 37.9629 17.2017V17.5568H33.7583V16.8324H37.1106C37.1106 16.5246 37.0491 16.25 36.926 16.0085C36.8052 15.767 36.6324 15.5765 36.4075 15.4368C36.185 15.2971 35.9222 15.2273 35.6191 15.2273C35.2853 15.2273 34.9965 15.3101 34.7527 15.4759C34.5112 15.6392 34.3253 15.8523 34.1951 16.1151C34.0649 16.3778 33.9998 16.6596 33.9998 16.9602V17.4432C33.9998 17.8551 34.0708 18.2043 34.2129 18.4908C34.3573 18.7749 34.5574 18.9915 34.813 19.1406C35.0687 19.2874 35.3658 19.3608 35.7044 19.3608C35.9245 19.3608 36.1234 19.33 36.301 19.2685C36.4809 19.2045 36.6359 19.1098 36.7662 18.9844C36.8964 18.8565 36.997 18.6979 37.068 18.5085L37.8777 18.7358C37.7924 19.0104 37.6492 19.2519 37.448 19.4602C37.2467 19.6662 36.9982 19.8272 36.7022 19.9432C36.4063 20.0568 36.0737 20.1136 35.7044 20.1136ZM40.0758 12.7273V20H39.2377V12.7273H40.0758ZM45.4744 15.767L44.7216 15.9801C44.6742 15.8546 44.6044 15.7327 44.5121 15.6143C44.4221 15.4936 44.299 15.3942 44.1428 15.3161C43.9865 15.2379 43.7865 15.1989 43.5426 15.1989C43.2088 15.1989 42.9306 15.2758 42.7081 15.4297C42.4879 15.5812 42.3778 15.7741 42.3778 16.0085C42.3778 16.2169 42.4536 16.3814 42.6051 16.5021C42.7566 16.6229 42.9934 16.7235 43.3153 16.804L44.125 17.0028C44.6127 17.1212 44.9761 17.3023 45.2152 17.5462C45.4543 17.7876 45.5739 18.099 45.5739 18.4801C45.5739 18.7926 45.4839 19.072 45.304 19.3182C45.1264 19.5644 44.8778 19.7585 44.5582 19.9006C44.2386 20.0426 43.867 20.1136 43.4432 20.1136C42.8868 20.1136 42.4264 19.9929 42.0618 19.7514C41.6972 19.5099 41.4664 19.1572 41.3693 18.6932L42.1648 18.4943C42.2405 18.7879 42.3838 19.008 42.5945 19.1548C42.8075 19.3016 43.0857 19.375 43.429 19.375C43.8196 19.375 44.1297 19.2921 44.3594 19.1264C44.5914 18.9583 44.7074 18.7571 44.7074 18.5227C44.7074 18.3333 44.6411 18.1747 44.5085 18.0469C44.3759 17.9167 44.1723 17.8196 43.8977 17.7557L42.9886 17.5426C42.4891 17.4242 42.1222 17.2408 41.8878 16.9922C41.6558 16.7412 41.5398 16.4276 41.5398 16.0511C41.5398 15.7434 41.6262 15.4711 41.799 15.2344C41.9742 14.9976 42.2121 14.8118 42.5128 14.6768C42.8158 14.5419 43.1591 14.4744 43.5426 14.4744C44.0824 14.4744 44.5062 14.5928 44.8139 14.8295C45.1241 15.0663 45.3442 15.3788 45.4744 15.767Z" fill="var(--colors-neutral-neutral-800)"/>
<rect width="184" height="32" transform="translate(120)" fill="var(--colors-neutral-neutral-300)"/>
<path d="M131.631 20.1193C131.131 20.1193 130.68 20.0199 130.28 19.821C129.879 19.6222 129.558 19.3494 129.317 19.0028C129.075 18.6562 128.943 18.2614 128.92 17.8182H129.943C129.983 18.2131 130.162 18.5398 130.48 18.7983C130.801 19.054 131.185 19.1818 131.631 19.1818C131.989 19.1818 132.307 19.098 132.585 18.9304C132.866 18.7628 133.087 18.5327 133.246 18.2401C133.408 17.9446 133.489 17.6108 133.489 17.2386C133.489 16.858 133.405 16.5185 133.237 16.2202C133.072 15.919 132.845 15.6818 132.555 15.5085C132.266 15.3352 131.935 15.2472 131.562 15.2443C131.295 15.2415 131.021 15.2827 130.74 15.3679C130.459 15.4503 130.227 15.5568 130.045 15.6875L129.057 15.5682L129.585 11.2727H134.119V12.2102H130.472L130.165 14.7841H130.216C130.395 14.642 130.619 14.5241 130.889 14.4304C131.159 14.3366 131.44 14.2898 131.733 14.2898C132.267 14.2898 132.743 14.4176 133.161 14.6733C133.581 14.9261 133.911 15.2727 134.149 15.7131C134.391 16.1534 134.511 16.6562 134.511 17.2216C134.511 17.7784 134.386 18.2756 134.136 18.7131C133.889 19.1477 133.548 19.4915 133.114 19.7443C132.679 19.9943 132.185 20.1193 131.631 20.1193Z" fill="var(--colors-neutral-neutral-800)"/>
<g clip-path="url(#clip0_5342_26205)">
<rect width="288" height="32" transform="translate(16 40)" fill="white"/>
<path d="M22.733 55H21.8523C21.8002 54.7467 21.709 54.5241 21.5788 54.3324C21.451 54.1406 21.2947 53.9796 21.1101 53.8494C20.9278 53.7169 20.7254 53.6174 20.5028 53.5511C20.2803 53.4848 20.0483 53.4517 19.8068 53.4517C19.3665 53.4517 18.9676 53.563 18.6101 53.7855C18.255 54.008 17.9721 54.3359 17.7614 54.7692C17.553 55.2024 17.4489 55.7339 17.4489 56.3636C17.4489 56.9934 17.553 57.5249 17.7614 57.9581C17.9721 58.3913 18.255 58.7192 18.6101 58.9418C18.9676 59.1643 19.3665 59.2756 19.8068 59.2756C20.0483 59.2756 20.2803 59.2424 20.5028 59.1761C20.7254 59.1098 20.9278 59.0116 21.1101 58.8814C21.2947 58.7488 21.451 58.5866 21.5788 58.3949C21.709 58.2008 21.8002 57.9782 21.8523 57.7273H22.733C22.6667 58.099 22.5459 58.4316 22.3707 58.7251C22.1955 59.0187 21.9777 59.2685 21.7173 59.4744C21.4569 59.678 21.1645 59.8331 20.8402 59.9396C20.5182 60.0462 20.1738 60.0994 19.8068 60.0994C19.1866 60.0994 18.6349 59.9479 18.152 59.6449C17.669 59.3419 17.2891 58.911 17.0121 58.3523C16.7351 57.7936 16.5966 57.1307 16.5966 56.3636C16.5966 55.5966 16.7351 54.9337 17.0121 54.375C17.2891 53.8163 17.669 53.3854 18.152 53.0824C18.6349 52.7794 19.1866 52.6278 19.8068 52.6278C20.1738 52.6278 20.5182 52.6811 20.8402 52.7876C21.1645 52.8942 21.4569 53.0504 21.7173 53.2564C21.9777 53.46 22.1955 53.7086 22.3707 54.0021C22.5459 54.2933 22.6667 54.6259 22.733 55ZM24.8805 56.7188V60H24.0424V52.7273H24.8805V55.3977H24.9515C25.0794 55.116 25.2711 54.8923 25.5268 54.7266C25.7849 54.5585 26.1281 54.4744 26.5566 54.4744C26.9283 54.4744 27.2538 54.549 27.5332 54.6982C27.8126 54.8449 28.0292 55.071 28.1831 55.3764C28.3393 55.6795 28.4174 56.0653 28.4174 56.5341V60H27.5794V56.5909C27.5794 56.1577 27.4669 55.8227 27.242 55.5859C27.0195 55.3468 26.7105 55.2273 26.3152 55.2273C26.0405 55.2273 25.7943 55.2853 25.5765 55.4013C25.3611 55.5173 25.1906 55.6866 25.0652 55.9091C24.9421 56.1316 24.8805 56.4015 24.8805 56.7188ZM31.5558 60.1278C31.2101 60.1278 30.8964 60.0627 30.6147 59.9325C30.333 59.8 30.1093 59.6094 29.9435 59.3608C29.7778 59.1098 29.695 58.8068 29.695 58.4517C29.695 58.1392 29.7565 57.8859 29.8796 57.6918C30.0027 57.4953 30.1673 57.3414 30.3732 57.2301C30.5792 57.1188 30.8065 57.036 31.055 56.9815C31.306 56.9247 31.5581 56.8797 31.8114 56.8466C32.1429 56.804 32.4116 56.772 32.6175 56.7507C32.8259 56.727 32.9774 56.688 33.0721 56.6335C33.1692 56.5791 33.2177 56.4844 33.2177 56.3494V56.321C33.2177 55.9706 33.1218 55.6984 32.93 55.5043C32.7406 55.3101 32.453 55.2131 32.0671 55.2131C31.667 55.2131 31.3533 55.3007 31.1261 55.4759C30.8988 55.651 30.739 55.8381 30.6467 56.0369L29.8512 55.7528C29.9933 55.4214 30.1826 55.1634 30.4194 54.9787C30.6585 54.7917 30.9189 54.6615 31.2006 54.5881C31.4847 54.5123 31.7641 54.4744 32.0387 54.4744C32.2139 54.4744 32.4151 54.4957 32.6424 54.5384C32.872 54.5786 33.0934 54.6626 33.3065 54.7905C33.5219 54.9183 33.7006 55.1113 33.8427 55.3693C33.9847 55.6274 34.0558 55.973 34.0558 56.4062V60H33.2177V59.2614H33.1751C33.1183 59.3797 33.0236 59.5064 32.891 59.6413C32.7584 59.7763 32.582 59.8911 32.3619 59.9858C32.1417 60.0805 31.873 60.1278 31.5558 60.1278ZM31.6836 59.375C32.015 59.375 32.2944 59.3099 32.5217 59.1797C32.7513 59.0495 32.9241 58.8814 33.0401 58.6754C33.1585 58.4695 33.2177 58.2528 33.2177 58.0256V57.2585C33.1822 57.3011 33.104 57.3402 32.9833 57.3757C32.8649 57.4089 32.7276 57.4384 32.5714 57.4645C32.4175 57.4882 32.2672 57.5095 32.1204 57.5284C31.976 57.545 31.8588 57.5592 31.7688 57.571C31.551 57.5994 31.3474 57.6456 31.158 57.7095C30.971 57.7711 30.8195 57.8646 30.7035 57.9901C30.5898 58.1132 30.533 58.2812 30.533 58.4943C30.533 58.7855 30.6407 59.0057 30.8562 59.1548C31.074 59.3016 31.3498 59.375 31.6836 59.375ZM36.4235 56.7188V60H35.5854V54.5455H36.3951V55.3977H36.4661C36.5939 55.1207 36.7881 54.8982 37.0485 54.7301C37.3089 54.5597 37.6451 54.4744 38.057 54.4744C38.4263 54.4744 38.7495 54.5502 39.0265 54.7017C39.3034 54.8509 39.5189 55.0781 39.6728 55.3835C39.8266 55.6866 39.9036 56.0701 39.9036 56.5341V60H39.0655V56.5909C39.0655 56.1624 38.9542 55.8286 38.7317 55.5895C38.5092 55.348 38.2038 55.2273 37.8155 55.2273C37.548 55.2273 37.3089 55.2853 37.0982 55.4013C36.8899 55.5173 36.7253 55.6866 36.6046 55.9091C36.4838 56.1316 36.4235 56.4015 36.4235 56.7188ZM42.2731 56.7188V60H41.435V54.5455H42.2447V55.3977H42.3157C42.4435 55.1207 42.6377 54.8982 42.8981 54.7301C43.1585 54.5597 43.4947 54.4744 43.9066 54.4744C44.2759 54.4744 44.5991 54.5502 44.8761 54.7017C45.1531 54.8509 45.3685 55.0781 45.5224 55.3835C45.6763 55.6866 45.7532 56.0701 45.7532 56.5341V60H44.9151V56.5909C44.9151 56.1624 44.8039 55.8286 44.5813 55.5895C44.3588 55.348 44.0534 55.2273 43.6651 55.2273C43.3976 55.2273 43.1585 55.2853 42.9478 55.4013C42.7395 55.5173 42.5749 55.6866 42.4542 55.9091C42.3335 56.1316 42.2731 56.4015 42.2731 56.7188ZM49.5716 60.1136C49.046 60.1136 48.5926 59.9976 48.2115 59.7656C47.8327 59.5312 47.5403 59.2045 47.3343 58.7855C47.1307 58.3641 47.0289 57.8741 47.0289 57.3153C47.0289 56.7566 47.1307 56.2642 47.3343 55.8381C47.5403 55.4096 47.8268 55.0758 48.1937 54.8366C48.563 54.5952 48.9939 54.4744 49.4863 54.4744C49.7704 54.4744 50.051 54.5218 50.3279 54.6165C50.6049 54.7112 50.8571 54.8651 51.0843 55.0781C51.3116 55.2888 51.4927 55.5682 51.6277 55.9162C51.7626 56.2642 51.8301 56.6927 51.8301 57.2017V57.5568H47.6255V56.8324H50.9778C50.9778 56.5246 50.9163 56.25 50.7931 56.0085C50.6724 55.767 50.4996 55.5765 50.2747 55.4368C50.0521 55.2971 49.7894 55.2273 49.4863 55.2273C49.1525 55.2273 48.8637 55.3101 48.6199 55.4759C48.3784 55.6392 48.1925 55.8523 48.0623 56.1151C47.9321 56.3778 47.867 56.6596 47.867 56.9602V57.4432C47.867 57.8551 47.938 58.2043 48.0801 58.4908C48.2245 58.7749 48.4245 58.9915 48.6802 59.1406C48.9359 59.2874 49.233 59.3608 49.5716 59.3608C49.7917 59.3608 49.9906 59.33 50.1681 59.2685C50.3481 59.2045 50.5031 59.1098 50.6333 58.9844C50.7636 58.8565 50.8642 58.6979 50.9352 58.5085L51.7449 58.7358C51.6596 59.0104 51.5164 59.2519 51.3152 59.4602C51.1139 59.6662 50.8654 59.8272 50.5694 59.9432C50.2735 60.0568 49.9409 60.1136 49.5716 60.1136ZM53.943 52.7273V60H53.1049V52.7273H53.943ZM59.1286 56.7188V60H58.2905V52.7273H59.1286V55.3977H59.1996C59.3274 55.116 59.5192 54.8923 59.7749 54.7266C60.0329 54.5585 60.3762 54.4744 60.8047 54.4744C61.1764 54.4744 61.5019 54.549 61.7812 54.6982C62.0606 54.8449 62.2772 55.071 62.4311 55.3764C62.5874 55.6795 62.6655 56.0653 62.6655 56.5341V60H61.8274V56.5909C61.8274 56.1577 61.715 55.8227 61.4901 55.5859C61.2675 55.3468 60.9586 55.2273 60.5632 55.2273C60.2886 55.2273 60.0424 55.2853 59.8246 55.4013C59.6091 55.5173 59.4387 55.6866 59.3132 55.9091C59.1901 56.1316 59.1286 56.4015 59.1286 56.7188ZM66.4856 60.1136C65.96 60.1136 65.5067 59.9976 65.1255 59.7656C64.7467 59.5312 64.4544 59.2045 64.2484 58.7855C64.0448 58.3641 63.943 57.8741 63.943 57.3153C63.943 56.7566 64.0448 56.2642 64.2484 55.8381C64.4544 55.4096 64.7408 55.0758 65.1078 54.8366C65.4771 54.5952 65.908 54.4744 66.4004 54.4744C66.6845 54.4744 66.965 54.5218 67.242 54.6165C67.519 54.7112 67.7711 54.8651 67.9984 55.0781C68.2257 55.2888 68.4068 55.5682 68.5417 55.9162C68.6767 56.2642 68.7441 56.6927 68.7441 57.2017V57.5568H64.5396V56.8324H67.8919C67.8919 56.5246 67.8303 56.25 67.7072 56.0085C67.5865 55.767 67.4136 55.5765 67.1887 55.4368C66.9662 55.2971 66.7034 55.2273 66.4004 55.2273C66.0666 55.2273 65.7778 55.3101 65.5339 55.4759C65.2924 55.6392 65.1066 55.8523 64.9764 56.1151C64.8462 56.3778 64.7811 56.6596 64.7811 56.9602V57.4432C64.7811 57.8551 64.8521 58.2043 64.9941 58.4908C65.1386 58.7749 65.3386 58.9915 65.5943 59.1406C65.85 59.2874 66.1471 59.3608 66.4856 59.3608C66.7058 59.3608 66.9047 59.33 67.0822 59.2685C67.2621 59.2045 67.4172 59.1098 67.5474 58.9844C67.6776 58.8565 67.7782 58.6979 67.8493 58.5085L68.6589 58.7358C68.5737 59.0104 68.4305 59.2519 68.2292 59.4602C68.028 59.6662 67.7794 59.8272 67.4835 59.9432C67.1876 60.0568 66.8549 60.1136 66.4856 60.1136ZM70.019 60V54.5455H70.8571V60H70.019ZM70.4451 53.6364C70.2818 53.6364 70.1409 53.5807 70.0225 53.4695C69.9065 53.3582 69.8485 53.2244 69.8485 53.0682C69.8485 52.9119 69.9065 52.7782 70.0225 52.6669C70.1409 52.5556 70.2818 52.5 70.4451 52.5C70.6085 52.5 70.7482 52.5556 70.8642 52.6669C70.9825 52.7782 71.0417 52.9119 71.0417 53.0682C71.0417 53.2244 70.9825 53.3582 70.8642 53.4695C70.7482 53.5807 70.6085 53.6364 70.4451 53.6364ZM74.5938 62.1591C74.1889 62.1591 73.8409 62.107 73.5497 62.0028C73.2585 61.901 73.0159 61.7661 72.8217 61.598C72.63 61.4323 72.4773 61.2547 72.3636 61.0653L73.0312 60.5966C73.107 60.696 73.2029 60.8097 73.3189 60.9375C73.4349 61.0677 73.5935 61.1802 73.7947 61.2749C73.9983 61.3719 74.2647 61.4205 74.5938 61.4205C75.0341 61.4205 75.3975 61.3139 75.6839 61.1009C75.9704 60.8878 76.1136 60.554 76.1136 60.0994V58.9915H76.0426C75.9811 59.0909 75.8935 59.214 75.7798 59.3608C75.6686 59.5052 75.5076 59.6342 75.2969 59.7479C75.0885 59.8591 74.8068 59.9148 74.4517 59.9148C74.0114 59.9148 73.616 59.8106 73.2656 59.6023C72.9176 59.3939 72.6418 59.0909 72.4382 58.6932C72.237 58.2955 72.1364 57.8125 72.1364 57.2443C72.1364 56.6856 72.2346 56.1991 72.4311 55.7848C72.6276 55.3681 72.901 55.0462 73.2514 54.8189C73.6018 54.5893 74.0066 54.4744 74.4659 54.4744C74.821 54.4744 75.1027 54.5336 75.3111 54.652C75.5218 54.768 75.6828 54.9006 75.794 55.0497C75.9077 55.1965 75.9953 55.3172 76.0568 55.4119H76.142V54.5455H76.9517V60.1562C76.9517 60.625 76.8452 61.0062 76.6321 61.2997C76.4214 61.5956 76.1373 61.8123 75.7798 61.9496C75.4247 62.0893 75.0294 62.1591 74.5938 62.1591ZM74.5653 59.1619C74.9015 59.1619 75.1856 59.085 75.4176 58.9311C75.6496 58.7772 75.826 58.5559 75.9467 58.267C76.0675 57.9782 76.1278 57.6326 76.1278 57.2301C76.1278 56.8371 76.0687 56.4903 75.9503 56.1896C75.8319 55.889 75.6567 55.6534 75.4247 55.483C75.1927 55.3125 74.9063 55.2273 74.5653 55.2273C74.2102 55.2273 73.9143 55.3172 73.6776 55.4972C73.4432 55.6771 73.2668 55.9186 73.1484 56.2216C73.0324 56.5246 72.9744 56.8608 72.9744 57.2301C72.9744 57.6089 73.0336 57.9439 73.152 58.2351C73.2727 58.5239 73.4503 58.7512 73.6847 58.9169C73.9214 59.0803 74.215 59.1619 74.5653 59.1619ZM79.3239 56.7188V60H78.4858V52.7273H79.3239V55.3977H79.3949C79.5227 55.116 79.7145 54.8923 79.9702 54.7266C80.2282 54.5585 80.5715 54.4744 81 54.4744C81.3717 54.4744 81.6972 54.549 81.9766 54.6982C82.2559 54.8449 82.4725 55.071 82.6264 55.3764C82.7827 55.6795 82.8608 56.0653 82.8608 56.5341V60H82.0227V56.5909C82.0227 56.1577 81.9103 55.8227 81.6854 55.5859C81.4628 55.3468 81.1539 55.2273 80.7585 55.2273C80.4839 55.2273 80.2377 55.2853 80.0199 55.4013C79.8045 55.5173 79.634 55.6866 79.5085 55.9091C79.3854 56.1316 79.3239 56.4015 79.3239 56.7188ZM86.7662 54.5455V55.2557H83.9395V54.5455H86.7662ZM84.7633 53.2386H85.6014V58.4375C85.6014 58.6742 85.6357 58.8518 85.7044 58.9702C85.7754 59.0862 85.8654 59.1643 85.9743 59.2045C86.0855 59.2424 86.2027 59.2614 86.3258 59.2614C86.4181 59.2614 86.4939 59.2566 86.5531 59.2472C86.6123 59.2353 86.6596 59.2259 86.6951 59.2188L86.8656 59.9716C86.8088 59.9929 86.7295 60.0142 86.6277 60.0355C86.5259 60.0592 86.3968 60.071 86.2406 60.071C86.0038 60.071 85.7718 60.0201 85.5446 59.9183C85.3197 59.8165 85.1326 59.6615 84.9835 59.4531C84.8367 59.2448 84.7633 58.982 84.7633 58.6648V53.2386Z" fill="var(--colors-neutral-neutral-800)"/>
<rect width="184" height="32" transform="translate(120 40)" fill="var(--colors-neutral-neutral-300)"/>
<path d="M131.972 51.2727V60H130.915V52.3807H130.864L128.733 53.7955V52.7216L130.915 51.2727H131.972ZM137.26 51.1534C137.618 51.1562 137.976 51.2244 138.334 51.358C138.692 51.4915 139.018 51.7131 139.314 52.0227C139.609 52.3295 139.847 52.7486 140.026 53.2798C140.205 53.8111 140.294 54.4773 140.294 55.2784C140.294 56.054 140.22 56.7429 140.072 57.3452C139.928 57.9446 139.717 58.4503 139.442 58.8622C139.169 59.2741 138.837 59.5866 138.445 59.7997C138.055 60.0128 137.615 60.1193 137.124 60.1193C136.635 60.1193 136.199 60.0227 135.815 59.8295C135.435 59.6335 135.122 59.3622 134.878 59.0156C134.636 58.6662 134.482 58.2614 134.413 57.8011H135.453C135.547 58.2017 135.733 58.5327 136.011 58.794C136.293 59.0526 136.663 59.1818 137.124 59.1818C137.797 59.1818 138.328 58.8878 138.717 58.2997C139.109 57.7116 139.305 56.8807 139.305 55.8068H139.237C139.078 56.0455 138.889 56.2514 138.67 56.4247C138.452 56.598 138.209 56.7315 137.942 56.8253C137.675 56.919 137.391 56.9659 137.089 56.9659C136.589 56.9659 136.131 56.8423 135.713 56.5952C135.298 56.3452 134.966 56.0028 134.716 55.5682C134.469 55.1307 134.345 54.6307 134.345 54.0682C134.345 53.5341 134.464 53.0455 134.703 52.6023C134.945 52.1562 135.283 51.8011 135.717 51.5369C136.155 51.2727 136.669 51.1449 137.26 51.1534ZM137.26 52.0909C136.902 52.0909 136.58 52.1804 136.293 52.3594C136.009 52.5355 135.783 52.7741 135.615 53.0753C135.45 53.3736 135.368 53.7045 135.368 54.0682C135.368 54.4318 135.447 54.7628 135.607 55.0611C135.768 55.3565 135.989 55.5923 136.267 55.7685C136.548 55.9418 136.868 56.0284 137.226 56.0284C137.496 56.0284 137.747 55.9759 137.98 55.8707C138.213 55.7628 138.416 55.6165 138.589 55.4318C138.766 55.2443 138.903 55.0327 139.003 54.7969C139.102 54.5582 139.152 54.3097 139.152 54.0511C139.152 53.7102 139.07 53.3906 138.905 53.0923C138.743 52.794 138.518 52.5526 138.232 52.3679C137.947 52.1832 137.624 52.0909 137.26 52.0909ZM144.697 60.1193C144.197 60.1193 143.747 60.0199 143.346 59.821C142.946 59.6222 142.625 59.3494 142.383 59.0028C142.142 58.6562 142.01 58.2614 141.987 57.8182H143.01C143.049 58.2131 143.228 58.5398 143.547 58.7983C143.868 59.054 144.251 59.1818 144.697 59.1818C145.055 59.1818 145.373 59.098 145.652 58.9304C145.933 58.7628 146.153 58.5327 146.312 58.2401C146.474 57.9446 146.555 57.6108 146.555 57.2386C146.555 56.858 146.471 56.5185 146.304 56.2202C146.139 55.919 145.912 55.6818 145.622 55.5085C145.332 55.3352 145.001 55.2472 144.629 55.2443C144.362 55.2415 144.088 55.2827 143.806 55.3679C143.525 55.4503 143.294 55.5568 143.112 55.6875L142.123 55.5682L142.652 51.2727H147.186V52.2102H143.538L143.231 54.7841H143.282C143.461 54.642 143.686 54.5241 143.956 54.4304C144.225 54.3366 144.507 54.2898 144.799 54.2898C145.333 54.2898 145.809 54.4176 146.227 54.6733C146.647 54.9261 146.977 55.2727 147.216 55.7131C147.457 56.1534 147.578 56.6562 147.578 57.2216C147.578 57.7784 147.453 58.2756 147.203 58.7131C146.956 59.1477 146.615 59.4915 146.18 59.7443C145.745 59.9943 145.251 60.1193 144.697 60.1193ZM152.117 60.1193C151.475 60.1193 150.928 59.9446 150.477 59.5952C150.025 59.2429 149.68 58.733 149.441 58.0653C149.202 57.3949 149.083 56.5852 149.083 55.6364C149.083 54.6932 149.202 53.8878 149.441 53.2202C149.683 52.5497 150.029 52.0384 150.481 51.6861C150.935 51.331 151.481 51.1534 152.117 51.1534C152.754 51.1534 153.298 51.331 153.749 51.6861C154.204 52.0384 154.55 52.5497 154.789 53.2202C155.031 53.8878 155.151 54.6932 155.151 55.6364C155.151 56.5852 155.032 57.3949 154.793 58.0653C154.555 58.733 154.21 59.2429 153.758 59.5952C153.306 59.9446 152.759 60.1193 152.117 60.1193ZM152.117 59.1818C152.754 59.1818 153.248 58.875 153.6 58.2614C153.952 57.6477 154.129 56.7727 154.129 55.6364C154.129 54.8807 154.048 54.2372 153.886 53.706C153.727 53.1747 153.496 52.7699 153.195 52.4915C152.897 52.2131 152.538 52.0739 152.117 52.0739C151.487 52.0739 150.994 52.3849 150.638 53.0071C150.283 53.6264 150.106 54.5028 150.106 55.6364C150.106 56.392 150.185 57.0341 150.344 57.5625C150.504 58.0909 150.732 58.4929 151.031 58.7685C151.332 59.044 151.694 59.1818 152.117 59.1818Z" fill="var(--colors-neutral-neutral-800)"/>
<path d="M281.384 59.5V54.0455H282.194V54.8977H282.265C282.379 54.6065 282.562 54.3804 282.815 54.2195C283.069 54.0561 283.373 53.9744 283.728 53.9744C284.088 53.9744 284.387 54.0561 284.626 54.2195C284.868 54.3804 285.056 54.6065 285.191 54.8977H285.248C285.388 54.616 285.597 54.3923 285.876 54.2266C286.156 54.0585 286.491 53.9744 286.881 53.9744C287.369 53.9744 287.768 54.1271 288.078 54.4325C288.388 54.7356 288.543 55.2079 288.543 55.8494V59.5H287.705V55.8494C287.705 55.447 287.595 55.1593 287.375 54.9865C287.155 54.8137 286.896 54.7273 286.597 54.7273C286.214 54.7273 285.917 54.8433 285.706 55.0753C285.495 55.3049 285.39 55.5961 285.39 55.9489V59.5H284.538V55.7642C284.538 55.4541 284.437 55.2043 284.236 55.0149C284.035 54.8232 283.775 54.7273 283.458 54.7273C283.24 54.7273 283.037 54.7853 282.847 54.9013C282.66 55.0173 282.509 55.1783 282.393 55.3842C282.279 55.5878 282.222 55.8234 282.222 56.0909V59.5H281.384ZM290.076 59.5V54.0455H290.885V54.8977H290.956C291.07 54.6065 291.253 54.3804 291.507 54.2195C291.76 54.0561 292.064 53.9744 292.419 53.9744C292.779 53.9744 293.079 54.0561 293.318 54.2195C293.559 54.3804 293.748 54.6065 293.882 54.8977H293.939C294.079 54.616 294.288 54.3923 294.568 54.2266C294.847 54.0585 295.182 53.9744 295.573 53.9744C296.06 53.9744 296.459 54.1271 296.77 54.4325C297.08 54.7356 297.235 55.2079 297.235 55.8494V59.5H296.397V55.8494C296.397 55.447 296.287 55.1593 296.066 54.9865C295.846 54.8137 295.587 54.7273 295.289 54.7273C294.905 54.7273 294.608 54.8433 294.397 55.0753C294.187 55.3049 294.081 55.5961 294.081 55.9489V59.5H293.229V55.7642C293.229 55.4541 293.128 55.2043 292.927 55.0149C292.726 54.8232 292.467 54.7273 292.15 54.7273C291.932 54.7273 291.728 54.7853 291.539 54.9013C291.352 55.0173 291.2 55.1783 291.084 55.3842C290.971 55.5878 290.914 55.8234 290.914 56.0909V59.5H290.076Z" fill="var(--colors-neutral-neutral-700)"/>
</g>
<g clip-path="url(#clip1_5342_26205)">
<rect width="288" height="32" transform="translate(16 80)" fill="white"/>
<path d="M22.733 95H21.8523C21.8002 94.7467 21.709 94.5241 21.5788 94.3324C21.451 94.1406 21.2947 93.9796 21.1101 93.8494C20.9278 93.7169 20.7254 93.6174 20.5028 93.5511C20.2803 93.4848 20.0483 93.4517 19.8068 93.4517C19.3665 93.4517 18.9676 93.563 18.6101 93.7855C18.255 94.008 17.9721 94.3359 17.7614 94.7692C17.553 95.2024 17.4489 95.7339 17.4489 96.3636C17.4489 96.9934 17.553 97.5249 17.7614 97.9581C17.9721 98.3913 18.255 98.7192 18.6101 98.9418C18.9676 99.1643 19.3665 99.2756 19.8068 99.2756C20.0483 99.2756 20.2803 99.2424 20.5028 99.1761C20.7254 99.1098 20.9278 99.0116 21.1101 98.8814C21.2947 98.7488 21.451 98.5866 21.5788 98.3949C21.709 98.2008 21.8002 97.9782 21.8523 97.7273H22.733C22.6667 98.099 22.5459 98.4316 22.3707 98.7251C22.1955 99.0187 21.9777 99.2685 21.7173 99.4744C21.4569 99.678 21.1645 99.8331 20.8402 99.9396C20.5182 100.046 20.1738 100.099 19.8068 100.099C19.1866 100.099 18.6349 99.9479 18.152 99.6449C17.669 99.3419 17.2891 98.911 17.0121 98.3523C16.7351 97.7936 16.5966 97.1307 16.5966 96.3636C16.5966 95.5966 16.7351 94.9337 17.0121 94.375C17.2891 93.8163 17.669 93.3854 18.152 93.0824C18.6349 92.7794 19.1866 92.6278 19.8068 92.6278C20.1738 92.6278 20.5182 92.6811 20.8402 92.7876C21.1645 92.8942 21.4569 93.0504 21.7173 93.2564C21.9777 93.46 22.1955 93.7086 22.3707 94.0021C22.5459 94.2933 22.6667 94.6259 22.733 95ZM26.2583 100.114C25.7659 100.114 25.3339 99.9964 24.9622 99.7621C24.5929 99.5277 24.304 99.1998 24.0957 98.7784C23.8897 98.357 23.7868 97.8646 23.7868 97.3011C23.7868 96.733 23.8897 96.237 24.0957 95.8132C24.304 95.3894 24.5929 95.0604 24.9622 94.826C25.3339 94.5916 25.7659 94.4744 26.2583 94.4744C26.7508 94.4744 27.1816 94.5916 27.551 94.826C27.9226 95.0604 28.2115 95.3894 28.4174 95.8132C28.6258 96.237 28.7299 96.733 28.7299 97.3011C28.7299 97.8646 28.6258 98.357 28.4174 98.7784C28.2115 99.1998 27.9226 99.5277 27.551 99.7621C27.1816 99.9964 26.7508 100.114 26.2583 100.114ZM26.2583 99.3608C26.6324 99.3608 26.9402 99.2649 27.1816 99.0732C27.4231 98.8814 27.6019 98.6293 27.7179 98.3168C27.8339 98.0043 27.8919 97.6657 27.8919 97.3011C27.8919 96.9366 27.8339 96.5968 27.7179 96.282C27.6019 95.9671 27.4231 95.7126 27.1816 95.5185C26.9402 95.3243 26.6324 95.2273 26.2583 95.2273C25.8843 95.2273 25.5765 95.3243 25.335 95.5185C25.0936 95.7126 24.9148 95.9671 24.7988 96.282C24.6828 96.5968 24.6248 96.9366 24.6248 97.3011C24.6248 97.6657 24.6828 98.0043 24.7988 98.3168C24.9148 98.6293 25.0936 98.8814 25.335 99.0732C25.5765 99.2649 25.8843 99.3608 26.2583 99.3608ZM30.8473 92.7273V100H30.0092V92.7273H30.8473ZM35.8198 97.7699V94.5455H36.6578V100H35.8198V99.0767H35.763C35.6351 99.3537 35.4363 99.5893 35.1664 99.7834C34.8965 99.9751 34.5556 100.071 34.1436 100.071C33.8027 100.071 33.4997 99.9964 33.2346 99.8473C32.9694 99.6958 32.7611 99.4685 32.6096 99.1655C32.458 98.8601 32.3823 98.4754 32.3823 98.0114V94.5455H33.2203V97.9545C33.2203 98.3523 33.3316 98.6695 33.5542 98.9062C33.7791 99.143 34.0655 99.2614 34.4135 99.2614C34.6219 99.2614 34.8337 99.2081 35.0492 99.1016C35.267 98.995 35.4493 98.8317 35.5961 98.6115C35.7452 98.3913 35.8198 98.1108 35.8198 97.7699ZM38.1928 100V94.5455H39.0025V95.3977H39.0735C39.1871 95.1065 39.3706 94.8804 39.6239 94.7195C39.8772 94.5561 40.1815 94.4744 40.5366 94.4744C40.8964 94.4744 41.1959 94.5561 41.435 94.7195C41.6765 94.8804 41.8647 95.1065 41.9996 95.3977H42.0565C42.1961 95.116 42.4057 94.8923 42.685 94.7266C42.9644 94.5585 43.2994 94.4744 43.69 94.4744C44.1777 94.4744 44.5766 94.6271 44.8867 94.9325C45.1969 95.2356 45.3519 95.7079 45.3519 96.3494V100H44.5138V96.3494C44.5138 95.947 44.4038 95.6593 44.1836 95.4865C43.9634 95.3137 43.7042 95.2273 43.4059 95.2273C43.0224 95.2273 42.7253 95.3433 42.5146 95.5753C42.3039 95.8049 42.1985 96.0961 42.1985 96.4489V100H41.3462V96.2642C41.3462 95.9541 41.2456 95.7043 41.0444 95.5149C40.8432 95.3232 40.5839 95.2273 40.2667 95.2273C40.0489 95.2273 39.8453 95.2853 39.6559 95.4013C39.4689 95.5173 39.3174 95.6783 39.2013 95.8842C39.0877 96.0878 39.0309 96.3234 39.0309 96.5909V100H38.1928ZM47.7223 96.7188V100H46.8842V94.5455H47.6939V95.3977H47.7649C47.8928 95.1207 48.0869 94.8982 48.3473 94.7301C48.6077 94.5597 48.9439 94.4744 49.3558 94.4744C49.7251 94.4744 50.0483 94.5502 50.3253 94.7017C50.6023 94.8509 50.8177 95.0781 50.9716 95.3835C51.1255 95.6866 51.2024 96.0701 51.2024 96.5341V100H50.3643V96.5909C50.3643 96.1624 50.2531 95.8286 50.0305 95.5895C49.808 95.348 49.5026 95.2273 49.1143 95.2273C48.8468 95.2273 48.6077 95.2853 48.397 95.4013C48.1887 95.5173 48.0241 95.6866 47.9034 95.9091C47.7827 96.1316 47.7223 96.4015 47.7223 96.7188ZM56.5975 95.767L55.8446 95.9801C55.7973 95.8546 55.7275 95.7327 55.6351 95.6143C55.5452 95.4936 55.4221 95.3942 55.2658 95.3161C55.1096 95.2379 54.9095 95.1989 54.6657 95.1989C54.3319 95.1989 54.0537 95.2758 53.8311 95.4297C53.611 95.5812 53.5009 95.7741 53.5009 96.0085C53.5009 96.2169 53.5766 96.3814 53.7282 96.5021C53.8797 96.6229 54.1164 96.7235 54.4384 96.804L55.248 97.0028C55.7357 97.1212 56.0991 97.3023 56.3382 97.5462C56.5774 97.7876 56.6969 98.099 56.6969 98.4801C56.6969 98.7926 56.6069 99.072 56.427 99.3182C56.2495 99.5644 56.0009 99.7585 55.6813 99.9006C55.3617 100.043 54.99 100.114 54.5662 100.114C54.0099 100.114 53.5494 99.9929 53.1848 99.7514C52.8203 99.5099 52.5894 99.1572 52.4924 98.6932L53.2878 98.4943C53.3636 98.7879 53.5068 99.008 53.7175 99.1548C53.9306 99.3016 54.2087 99.375 54.552 99.375C54.9426 99.375 55.2528 99.2921 55.4824 99.1264C55.7144 98.9583 55.8304 98.7571 55.8304 98.5227C55.8304 98.3333 55.7641 98.1747 55.6316 98.0469C55.499 97.9167 55.2954 97.8196 55.0208 97.7557L54.1117 97.5426C53.6122 97.4242 53.2452 97.2408 53.0108 96.9922C52.7788 96.7412 52.6628 96.4276 52.6628 96.0511C52.6628 95.7434 52.7492 95.4711 52.9221 95.2344C53.0972 94.9976 53.3352 94.8118 53.6358 94.6768C53.9389 94.5419 54.2821 94.4744 54.6657 94.4744C55.2054 94.4744 55.6292 94.5928 55.937 94.8295C56.2471 95.0663 56.4673 95.3788 56.5975 95.767Z" fill="var(--colors-neutral-neutral-800)"/>
<rect width="184" height="32" transform="translate(120 80)" fill="var(--colors-neutral-neutral-300)"/>
<path d="M128.699 98.2102V97.3409L132.534 91.2727H133.165V92.6193H132.739L129.841 97.2045V97.2727H135.006V98.2102H128.699ZM132.807 100V97.946V97.5412V91.2727H133.812V100H132.807Z" fill="var(--colors-neutral-neutral-800)"/>
</g>
<g clip-path="url(#clip2_5342_26205)">
<rect width="288" height="32" transform="translate(16 120)" fill="white"/>
<path d="M21.6534 132.727H22.5341V137.543C22.5341 138.04 22.4169 138.484 22.1825 138.874C21.9505 139.263 21.6226 139.569 21.1989 139.794C20.7751 140.017 20.2779 140.128 19.7074 140.128C19.1368 140.128 18.6397 140.017 18.2159 139.794C17.7921 139.569 17.4631 139.263 17.2287 138.874C16.9967 138.484 16.8807 138.04 16.8807 137.543V132.727H17.7614V137.472C17.7614 137.827 17.8395 138.143 17.9957 138.42C18.152 138.694 18.3745 138.911 18.6634 139.07C18.9545 139.226 19.3026 139.304 19.7074 139.304C20.1122 139.304 20.4602 139.226 20.7514 139.07C21.0426 138.911 21.2652 138.694 21.419 138.42C21.5753 138.143 21.6534 137.827 21.6534 137.472V132.727ZM25.0172 136.719V140H24.1792V134.545H24.9888V135.398H25.0598C25.1877 135.121 25.3818 134.898 25.6422 134.73C25.9026 134.56 26.2388 134.474 26.6507 134.474C27.0201 134.474 27.3432 134.55 27.6202 134.702C27.8972 134.851 28.1126 135.078 28.2665 135.384C28.4204 135.687 28.4973 136.07 28.4973 136.534V140H27.6593V136.591C27.6593 136.162 27.548 135.829 27.3255 135.589C27.1029 135.348 26.7975 135.227 26.4093 135.227C26.1417 135.227 25.9026 135.285 25.6919 135.401C25.4836 135.517 25.3191 135.687 25.1983 135.909C25.0776 136.132 25.0172 136.402 25.0172 136.719ZM30.0288 140V134.545H30.8668V140H30.0288ZM30.4549 133.636C30.2915 133.636 30.1507 133.581 30.0323 133.469C29.9163 133.358 29.8583 133.224 29.8583 133.068C29.8583 132.912 29.9163 132.778 30.0323 132.667C30.1507 132.556 30.2915 132.5 30.4549 132.5C30.6183 132.5 30.7579 132.556 30.8739 132.667C30.9923 132.778 31.0515 132.912 31.0515 133.068C31.0515 133.224 30.9923 133.358 30.8739 133.469C30.7579 133.581 30.6183 133.636 30.4549 133.636ZM34.774 134.545V135.256H31.9473V134.545H34.774ZM32.7711 133.239H33.6092V138.438C33.6092 138.674 33.6435 138.852 33.7122 138.97C33.7832 139.086 33.8732 139.164 33.9821 139.205C34.0933 139.242 34.2105 139.261 34.3336 139.261C34.426 139.261 34.5017 139.257 34.5609 139.247C34.6201 139.235 34.6674 139.226 34.7029 139.219L34.8734 139.972C34.8166 139.993 34.7373 140.014 34.6355 140.036C34.5337 140.059 34.4047 140.071 34.2484 140.071C34.0117 140.071 33.7797 140.02 33.5524 139.918C33.3275 139.817 33.1404 139.661 32.9913 139.453C32.8445 139.245 32.7711 138.982 32.7711 138.665V133.239ZM39.6852 132.727V140H38.8471V132.727H39.6852ZM43.4361 140.114C42.9437 140.114 42.5116 139.996 42.1399 139.762C41.7706 139.528 41.4818 139.2 41.2734 138.778C41.0675 138.357 40.9645 137.865 40.9645 137.301C40.9645 136.733 41.0675 136.237 41.2734 135.813C41.4818 135.389 41.7706 135.06 42.1399 134.826C42.5116 134.592 42.9437 134.474 43.4361 134.474C43.9285 134.474 44.3594 134.592 44.7287 134.826C45.1004 135.06 45.3892 135.389 45.5952 135.813C45.8035 136.237 45.9077 136.733 45.9077 137.301C45.9077 137.865 45.8035 138.357 45.5952 138.778C45.3892 139.2 45.1004 139.528 44.7287 139.762C44.3594 139.996 43.9285 140.114 43.4361 140.114ZM43.4361 139.361C43.8101 139.361 44.1179 139.265 44.3594 139.073C44.6009 138.881 44.7796 138.629 44.8956 138.317C45.0116 138.004 45.0696 137.666 45.0696 137.301C45.0696 136.937 45.0116 136.597 44.8956 136.282C44.7796 135.967 44.6009 135.713 44.3594 135.518C44.1179 135.324 43.8101 135.227 43.4361 135.227C43.062 135.227 42.7543 135.324 42.5128 135.518C42.2713 135.713 42.0926 135.967 41.9766 136.282C41.8606 136.597 41.8026 136.937 41.8026 137.301C41.8026 137.666 41.8606 138.004 41.9766 138.317C42.0926 138.629 42.2713 138.881 42.5128 139.073C42.7543 139.265 43.062 139.361 43.4361 139.361ZM48.7921 140.128C48.4464 140.128 48.1328 140.063 47.851 139.933C47.5693 139.8 47.3456 139.609 47.1799 139.361C47.0141 139.11 46.9313 138.807 46.9313 138.452C46.9313 138.139 46.9928 137.886 47.1159 137.692C47.2391 137.495 47.4036 137.341 47.6096 137.23C47.8155 137.119 48.0428 137.036 48.2914 136.982C48.5423 136.925 48.7944 136.88 49.0478 136.847C49.3792 136.804 49.6479 136.772 49.8539 136.751C50.0622 136.727 50.2137 136.688 50.3084 136.634C50.4055 136.579 50.454 136.484 50.454 136.349V136.321C50.454 135.971 50.3581 135.698 50.1664 135.504C49.977 135.31 49.6893 135.213 49.3034 135.213C48.9033 135.213 48.5897 135.301 48.3624 135.476C48.1351 135.651 47.9753 135.838 47.883 136.037L47.0875 135.753C47.2296 135.421 47.419 135.163 47.6557 134.979C47.8948 134.792 48.1552 134.661 48.437 134.588C48.7211 134.512 49.0004 134.474 49.275 134.474C49.4502 134.474 49.6515 134.496 49.8787 134.538C50.1084 134.579 50.3297 134.663 50.5428 134.79C50.7582 134.918 50.937 135.111 51.079 135.369C51.2211 135.627 51.2921 135.973 51.2921 136.406V140H50.454V139.261H50.4114C50.3546 139.38 50.2599 139.506 50.1273 139.641C49.9947 139.776 49.8184 139.891 49.5982 139.986C49.378 140.08 49.1093 140.128 48.7921 140.128ZM48.9199 139.375C49.2514 139.375 49.5307 139.31 49.758 139.18C49.9876 139.049 50.1605 138.881 50.2765 138.675C50.3948 138.469 50.454 138.253 50.454 138.026V137.259C50.4185 137.301 50.3404 137.34 50.2196 137.376C50.1013 137.409 49.964 137.438 49.8077 137.464C49.6538 137.488 49.5035 137.509 49.3567 137.528C49.2123 137.545 49.0951 137.559 49.0051 137.571C48.7873 137.599 48.5837 137.646 48.3944 137.71C48.2073 137.771 48.0558 137.865 47.9398 137.99C47.8262 138.113 47.7694 138.281 47.7694 138.494C47.7694 138.786 47.8771 139.006 48.0925 139.155C48.3103 139.302 48.5861 139.375 48.9199 139.375ZM54.8814 140.114C54.4268 140.114 54.0256 139.999 53.6776 139.769C53.3295 139.537 53.0573 139.21 52.8608 138.789C52.6643 138.365 52.5661 137.865 52.5661 137.287C52.5661 136.714 52.6643 136.217 52.8608 135.795C53.0573 135.374 53.3307 135.049 53.6811 134.819C54.0315 134.589 54.4363 134.474 54.8956 134.474C55.2507 134.474 55.5313 134.534 55.7372 134.652C55.9455 134.768 56.1042 134.901 56.2131 135.05C56.3243 135.196 56.4107 135.317 56.4723 135.412H56.5433V132.727H57.3814V140H56.5717V139.162H56.4723C56.4107 139.261 56.3232 139.387 56.2095 139.538C56.0959 139.687 55.9337 139.821 55.723 139.94C55.5123 140.056 55.2318 140.114 54.8814 140.114ZM54.995 139.361C55.3312 139.361 55.6153 139.273 55.8473 139.098C56.0793 138.92 56.2557 138.675 56.3764 138.363C56.4972 138.048 56.5575 137.685 56.5575 137.273C56.5575 136.866 56.4983 136.509 56.38 136.204C56.2616 135.896 56.0864 135.657 55.8544 135.487C55.6224 135.314 55.3359 135.227 54.995 135.227C54.6399 135.227 54.344 135.318 54.1072 135.501C53.8729 135.681 53.6965 135.926 53.5781 136.236C53.4621 136.544 53.4041 136.889 53.4041 137.273C53.4041 137.661 53.4633 138.014 53.5817 138.331C53.7024 138.646 53.88 138.897 54.1143 139.084C54.3511 139.268 54.6446 139.361 54.995 139.361ZM62.8963 135.767L62.1435 135.98C62.0961 135.855 62.0263 135.733 61.9339 135.614C61.844 135.494 61.7209 135.394 61.5646 135.316C61.4084 135.238 61.2083 135.199 60.9645 135.199C60.6307 135.199 60.3525 135.276 60.13 135.43C59.9098 135.581 59.7997 135.774 59.7997 136.009C59.7997 136.217 59.8755 136.381 60.027 136.502C60.1785 136.623 60.4152 136.723 60.7372 136.804L61.5469 137.003C62.0346 137.121 62.398 137.302 62.6371 137.546C62.8762 137.788 62.9957 138.099 62.9957 138.48C62.9957 138.793 62.9058 139.072 62.7259 139.318C62.5483 139.564 62.2997 139.759 61.9801 139.901C61.6605 140.043 61.2888 140.114 60.8651 140.114C60.3087 140.114 59.8482 139.993 59.4837 139.751C59.1191 139.51 58.8883 139.157 58.7912 138.693L59.5866 138.494C59.6624 138.788 59.8056 139.008 60.0163 139.155C60.2294 139.302 60.5076 139.375 60.8509 139.375C61.2415 139.375 61.5516 139.292 61.7812 139.126C62.0133 138.958 62.1293 138.757 62.1293 138.523C62.1293 138.333 62.063 138.175 61.9304 138.047C61.7978 137.917 61.5942 137.82 61.3196 137.756L60.4105 137.543C59.911 137.424 59.544 137.241 59.3097 136.992C59.0777 136.741 58.9616 136.428 58.9616 136.051C58.9616 135.743 59.0481 135.471 59.2209 135.234C59.3961 134.998 59.634 134.812 59.9347 134.677C60.2377 134.542 60.581 134.474 60.9645 134.474C61.5043 134.474 61.928 134.593 62.2358 134.83C62.5459 135.066 62.7661 135.379 62.8963 135.767ZM67.1834 140V132.727H68.0215V135.412H68.0925C68.1541 135.317 68.2393 135.196 68.3482 135.05C68.4595 134.901 68.6181 134.768 68.824 134.652C69.0324 134.534 69.3141 134.474 69.6692 134.474C70.1285 134.474 70.5333 134.589 70.8837 134.819C71.2341 135.049 71.5075 135.374 71.704 135.795C71.9005 136.217 71.9988 136.714 71.9988 137.287C71.9988 137.865 71.9005 138.365 71.704 138.789C71.5075 139.21 71.2353 139.537 70.8873 139.769C70.5392 139.999 70.138 140.114 69.6834 140.114C69.333 140.114 69.0525 140.056 68.8418 139.94C68.6311 139.821 68.4689 139.687 68.3553 139.538C68.2417 139.387 68.1541 139.261 68.0925 139.162H67.9931V140H67.1834ZM68.0073 137.273C68.0073 137.685 68.0676 138.048 68.1884 138.363C68.3091 138.675 68.4855 138.92 68.7175 139.098C68.9495 139.273 69.2336 139.361 69.5698 139.361C69.9202 139.361 70.2125 139.268 70.4469 139.084C70.6837 138.897 70.8612 138.646 70.9796 138.331C71.1003 138.014 71.1607 137.661 71.1607 137.273C71.1607 136.889 71.1015 136.544 70.9831 136.236C70.8671 135.926 70.6908 135.681 70.454 135.501C70.2196 135.318 69.9249 135.227 69.5698 135.227C69.2289 135.227 68.9424 135.314 68.7104 135.487C68.4784 135.657 68.3032 135.896 68.1848 136.204C68.0665 136.509 68.0073 136.866 68.0073 137.273ZM73.6252 142.045C73.4831 142.045 73.3565 142.034 73.2452 142.01C73.1339 141.989 73.057 141.967 73.0144 141.946L73.2275 141.207C73.431 141.259 73.611 141.278 73.7672 141.264C73.9235 141.25 74.062 141.18 74.1827 141.055C74.3058 140.932 74.4183 140.732 74.5201 140.455L74.6763 140.028L72.6593 134.545H73.5684L75.074 138.892H75.1309L76.6365 134.545H77.5456L75.2303 140.795C75.1261 141.077 74.9971 141.31 74.8432 141.495C74.6893 141.682 74.5106 141.821 74.307 141.911C74.1058 142 73.8785 142.045 73.6252 142.045ZM83.524 140.114C83.0694 140.114 82.6681 139.999 82.3201 139.769C81.9721 139.537 81.6999 139.21 81.5034 138.789C81.3069 138.365 81.2086 137.865 81.2086 137.287C81.2086 136.714 81.3069 136.217 81.5034 135.795C81.6999 135.374 81.9733 135.049 82.3237 134.819C82.6741 134.589 83.0789 134.474 83.5382 134.474C83.8933 134.474 84.1738 134.534 84.3798 134.652C84.5881 134.768 84.7467 134.901 84.8556 135.05C84.9669 135.196 85.0533 135.317 85.1149 135.412H85.1859V132.727H86.024V140H85.2143V139.162H85.1149C85.0533 139.261 84.9657 139.387 84.8521 139.538C84.7385 139.687 84.5763 139.821 84.3656 139.94C84.1549 140.056 83.8743 140.114 83.524 140.114ZM83.6376 139.361C83.9738 139.361 84.2579 139.273 84.4899 139.098C84.7219 138.92 84.8983 138.675 85.019 138.363C85.1397 138.048 85.2001 137.685 85.2001 137.273C85.2001 136.866 85.1409 136.509 85.0225 136.204C84.9042 135.896 84.729 135.657 84.497 135.487C84.265 135.314 83.9785 135.227 83.6376 135.227C83.2825 135.227 82.9866 135.318 82.7498 135.501C82.5154 135.681 82.3391 135.926 82.2207 136.236C82.1047 136.544 82.0467 136.889 82.0467 137.273C82.0467 137.661 82.1059 138.014 82.2243 138.331C82.345 138.646 82.5225 138.897 82.7569 139.084C82.9937 139.268 83.2872 139.361 83.6376 139.361ZM89.9622 140.114C89.4366 140.114 88.9833 139.998 88.6021 139.766C88.2233 139.531 87.9309 139.205 87.725 138.786C87.5214 138.364 87.4196 137.874 87.4196 137.315C87.4196 136.757 87.5214 136.264 87.725 135.838C87.9309 135.41 88.2174 135.076 88.5843 134.837C88.9537 134.595 89.3845 134.474 89.877 134.474C90.161 134.474 90.4416 134.522 90.7186 134.616C90.9956 134.711 91.2477 134.865 91.475 135.078C91.7022 135.289 91.8833 135.568 92.0183 135.916C92.1532 136.264 92.2207 136.693 92.2207 137.202V137.557H88.0162V136.832H91.3684C91.3684 136.525 91.3069 136.25 91.1838 136.009C91.063 135.767 90.8902 135.576 90.6653 135.437C90.4428 135.297 90.18 135.227 89.877 135.227C89.5431 135.227 89.2543 135.31 89.0105 135.476C88.769 135.639 88.5832 135.852 88.4529 136.115C88.3227 136.378 88.2576 136.66 88.2576 136.96V137.443C88.2576 137.855 88.3287 138.204 88.4707 138.491C88.6151 138.775 88.8152 138.991 89.0708 139.141C89.3265 139.287 89.6236 139.361 89.9622 139.361C90.1824 139.361 90.3812 139.33 90.5588 139.268C90.7387 139.205 90.8938 139.11 91.024 138.984C91.1542 138.857 91.2548 138.698 91.3258 138.509L92.1355 138.736C92.0502 139.01 91.907 139.252 91.7058 139.46C91.5046 139.666 91.256 139.827 90.96 139.943C90.6641 140.057 90.3315 140.114 89.9622 140.114ZM93.4956 142.045V134.545H94.3052V135.412H94.4047C94.4662 135.317 94.5514 135.196 94.6603 135.05C94.7716 134.901 94.9302 134.768 95.1362 134.652C95.3445 134.534 95.6262 134.474 95.9814 134.474C96.4406 134.474 96.8455 134.589 97.1958 134.819C97.5462 135.049 97.8197 135.374 98.0162 135.795C98.2127 136.217 98.3109 136.714 98.3109 137.287C98.3109 137.865 98.2127 138.365 98.0162 138.789C97.8197 139.21 97.5474 139.537 97.1994 139.769C96.8514 139.999 96.4501 140.114 95.9956 140.114C95.6452 140.114 95.3646 140.056 95.1539 139.94C94.9432 139.821 94.7811 139.687 94.6674 139.538C94.5538 139.387 94.4662 139.261 94.4047 139.162H94.3336V142.045H93.4956ZM94.3194 137.273C94.3194 137.685 94.3798 138.048 94.5005 138.363C94.6213 138.675 94.7976 138.92 95.0297 139.098C95.2617 139.273 95.5458 139.361 95.8819 139.361C96.2323 139.361 96.5247 139.268 96.7591 139.084C96.9958 138.897 97.1734 138.646 97.2917 138.331C97.4125 138.014 97.4728 137.661 97.4728 137.273C97.4728 136.889 97.4136 136.544 97.2953 136.236C97.1793 135.926 97.0029 135.681 96.7662 135.501C96.5318 135.318 96.237 135.227 95.8819 135.227C95.541 135.227 95.2546 135.314 95.0225 135.487C94.7905 135.657 94.6154 135.896 94.497 136.204C94.3786 136.509 94.3194 136.866 94.3194 137.273ZM101.961 134.545V135.256H99.1348V134.545H101.961ZM99.9586 133.239H100.797V138.438C100.797 138.674 100.831 138.852 100.9 138.97C100.971 139.086 101.061 139.164 101.17 139.205C101.281 139.242 101.398 139.261 101.521 139.261C101.613 139.261 101.689 139.257 101.748 139.247C101.808 139.235 101.855 139.226 101.89 139.219L102.061 139.972C102.004 139.993 101.925 140.014 101.823 140.036C101.721 140.059 101.592 140.071 101.436 140.071C101.199 140.071 100.967 140.02 100.74 139.918C100.515 139.817 100.328 139.661 100.179 139.453C100.032 139.245 99.9586 138.982 99.9586 138.665V133.239ZM104.177 136.719V140H103.339V132.727H104.177V135.398H104.248C104.376 135.116 104.568 134.892 104.824 134.727C105.082 134.558 105.425 134.474 105.854 134.474C106.225 134.474 106.551 134.549 106.83 134.698C107.109 134.845 107.326 135.071 107.48 135.376C107.636 135.679 107.714 136.065 107.714 136.534V140H106.876V136.591C106.876 136.158 106.764 135.823 106.539 135.586C106.316 135.347 106.007 135.227 105.612 135.227C105.337 135.227 105.091 135.285 104.873 135.401C104.658 135.517 104.488 135.687 104.362 135.909C104.239 136.132 104.177 136.402 104.177 136.719Z" fill="var(--colors-neutral-neutral-800)"/>
<rect width="184" height="32" transform="translate(120 120)" fill="var(--colors-neutral-neutral-300)"/>
<path d="M128.699 138.21V137.341L132.534 131.273H133.165V132.619H132.739L129.841 137.205V137.273H135.006V138.21H128.699ZM132.807 140V137.946V137.541V131.273H133.812V140H132.807Z" fill="var(--colors-neutral-neutral-800)"/>
</g>
<defs>
<clipPath id="clip0_5342_26205">
<rect width="288" height="32" fill="white" transform="translate(16 40)"/>
</clipPath>
<clipPath id="clip1_5342_26205">
<rect width="288" height="32" fill="white" transform="translate(16 80)"/>
</clipPath>
<clipPath id="clip2_5342_26205">
<rect width="288" height="32" fill="white" transform="translate(16 120)"/>
</clipPath>
</defs>
</svg>
