<svg width="300" height="230" viewBox="0 0 300 230" fill="none" xmlns="http://www.w3.org/2000/svg">
<rect x="0.5" y="0.5" width="299" height="229" fill="#F7F7F7"/>
<rect x="0.5" y="0.5" width="299" height="229" stroke="#E6E6E6"/>
<path d="M100.5 121.5V115.5H94.5V114.5H100.5V108.5H101.5V114.5H107.5V115.5H101.5V121.5H100.5Z" fill="#222222"/>
<path d="M126.698 110.318V120.5H125.505L119.957 112.506H119.858V120.5H118.625V110.318H119.818L125.386 118.332H125.485V110.318H126.698ZM132.208 120.659C131.472 120.659 130.838 120.497 130.304 120.172C129.774 119.844 129.364 119.386 129.076 118.8C128.791 118.21 128.649 117.524 128.649 116.741C128.649 115.959 128.791 115.27 129.076 114.673C129.364 114.073 129.765 113.606 130.279 113.271C130.796 112.933 131.399 112.764 132.089 112.764C132.487 112.764 132.879 112.83 133.267 112.963C133.655 113.096 134.008 113.311 134.326 113.609C134.644 113.904 134.898 114.295 135.087 114.783C135.276 115.27 135.37 115.87 135.37 116.582V117.08H129.484V116.065H134.177C134.177 115.634 134.091 115.25 133.918 114.912C133.749 114.574 133.507 114.307 133.193 114.112C132.881 113.916 132.513 113.818 132.089 113.818C131.622 113.818 131.217 113.934 130.876 114.166C130.538 114.395 130.278 114.693 130.095 115.061C129.913 115.429 129.822 115.823 129.822 116.244V116.92C129.822 117.497 129.921 117.986 130.12 118.387C130.322 118.785 130.602 119.088 130.96 119.297C131.318 119.502 131.734 119.605 132.208 119.605C132.516 119.605 132.795 119.562 133.043 119.476C133.295 119.386 133.512 119.254 133.695 119.078C133.877 118.899 134.018 118.677 134.117 118.412L135.251 118.73C135.131 119.115 134.931 119.453 134.649 119.744C134.368 120.033 134.02 120.258 133.605 120.42C133.191 120.58 132.725 120.659 132.208 120.659ZM138.885 120.5L136.558 112.864H137.791L139.442 118.71H139.521L141.152 112.864H142.405L144.016 118.69H144.095L145.746 112.864H146.979L144.652 120.5H143.499L141.828 114.634H141.709L140.038 120.5H138.885ZM155.868 112.864V113.858H151.752V112.864H155.868ZM152.984 120.5V111.81C152.984 111.372 153.087 111.008 153.293 110.716C153.498 110.424 153.765 110.205 154.093 110.06C154.421 109.914 154.768 109.841 155.132 109.841C155.421 109.841 155.656 109.864 155.838 109.911C156.02 109.957 156.156 110 156.246 110.04L155.908 111.054C155.848 111.034 155.765 111.009 155.659 110.979C155.556 110.95 155.421 110.935 155.252 110.935C154.864 110.935 154.584 111.032 154.411 111.228C154.242 111.424 154.158 111.71 154.158 112.088V120.5H152.984ZM158.686 110.318V120.5H157.512V110.318H158.686ZM163.937 120.659C163.247 120.659 162.643 120.495 162.122 120.167C161.605 119.839 161.201 119.38 160.909 118.79C160.621 118.2 160.477 117.51 160.477 116.722C160.477 115.926 160.621 115.232 160.909 114.638C161.201 114.045 161.605 113.585 162.122 113.256C162.643 112.928 163.247 112.764 163.937 112.764C164.626 112.764 165.229 112.928 165.747 113.256C166.267 113.585 166.671 114.045 166.96 114.638C167.251 115.232 167.397 115.926 167.397 116.722C167.397 117.51 167.251 118.2 166.96 118.79C166.671 119.38 166.267 119.839 165.747 120.167C165.229 120.495 164.626 120.659 163.937 120.659ZM163.937 119.605C164.461 119.605 164.891 119.471 165.229 119.202C165.568 118.934 165.818 118.581 165.98 118.143C166.143 117.706 166.224 117.232 166.224 116.722C166.224 116.211 166.143 115.736 165.98 115.295C165.818 114.854 165.568 114.498 165.229 114.226C164.891 113.954 164.461 113.818 163.937 113.818C163.413 113.818 162.982 113.954 162.644 114.226C162.306 114.498 162.056 114.854 161.894 115.295C161.731 115.736 161.65 116.211 161.65 116.722C161.65 117.232 161.731 117.706 161.894 118.143C162.056 118.581 162.306 118.934 162.644 119.202C162.982 119.471 163.413 119.605 163.937 119.605ZM172.29 120.659C171.601 120.659 170.996 120.495 170.476 120.167C169.959 119.839 169.554 119.38 169.263 118.79C168.974 118.2 168.83 117.51 168.83 116.722C168.83 115.926 168.974 115.232 169.263 114.638C169.554 114.045 169.959 113.585 170.476 113.256C170.996 112.928 171.601 112.764 172.29 112.764C172.98 112.764 173.583 112.928 174.1 113.256C174.62 113.585 175.025 114.045 175.313 114.638C175.605 115.232 175.751 115.926 175.751 116.722C175.751 117.51 175.605 118.2 175.313 118.79C175.025 119.38 174.62 119.839 174.1 120.167C173.583 120.495 172.98 120.659 172.29 120.659ZM172.29 119.605C172.814 119.605 173.245 119.471 173.583 119.202C173.921 118.934 174.171 118.581 174.334 118.143C174.496 117.706 174.577 117.232 174.577 116.722C174.577 116.211 174.496 115.736 174.334 115.295C174.171 114.854 173.921 114.498 173.583 114.226C173.245 113.954 172.814 113.818 172.29 113.818C171.767 113.818 171.336 113.954 170.998 114.226C170.66 114.498 170.409 114.854 170.247 115.295C170.085 115.736 170.003 116.211 170.003 116.722C170.003 117.232 170.085 117.706 170.247 118.143C170.409 118.581 170.66 118.934 170.998 119.202C171.336 119.471 171.767 119.605 172.29 119.605ZM177.542 120.5V112.864H178.675V114.017H178.755C178.894 113.639 179.146 113.333 179.51 113.097C179.875 112.862 180.286 112.744 180.743 112.744C180.83 112.744 180.937 112.746 181.066 112.749C181.196 112.753 181.294 112.758 181.36 112.764V113.957C181.32 113.947 181.229 113.933 181.086 113.913C180.947 113.889 180.8 113.878 180.644 113.878C180.273 113.878 179.941 113.956 179.65 114.112C179.361 114.264 179.133 114.476 178.964 114.748C178.798 115.016 178.715 115.323 178.715 115.668V120.5H177.542ZM182.751 123.364V112.864H183.884V114.077H184.023C184.11 113.944 184.229 113.775 184.381 113.57C184.537 113.361 184.759 113.175 185.047 113.013C185.339 112.847 185.734 112.764 186.231 112.764C186.874 112.764 187.44 112.925 187.931 113.246C188.422 113.568 188.804 114.024 189.079 114.614C189.355 115.204 189.492 115.9 189.492 116.702C189.492 117.51 189.355 118.211 189.079 118.805C188.804 119.395 188.423 119.852 187.936 120.177C187.449 120.498 186.887 120.659 186.251 120.659C185.76 120.659 185.367 120.578 185.072 120.415C184.777 120.25 184.55 120.062 184.391 119.854C184.232 119.642 184.11 119.466 184.023 119.327H183.924V123.364H182.751ZM183.904 116.682C183.904 117.259 183.989 117.767 184.158 118.208C184.327 118.646 184.574 118.989 184.898 119.237C185.223 119.482 185.621 119.605 186.092 119.605C186.582 119.605 186.991 119.476 187.32 119.217C187.651 118.955 187.9 118.604 188.065 118.163C188.234 117.719 188.319 117.225 188.319 116.682C188.319 116.145 188.236 115.661 188.07 115.23C187.908 114.796 187.661 114.453 187.329 114.201C187.001 113.946 186.589 113.818 186.092 113.818C185.614 113.818 185.213 113.939 184.888 114.181C184.564 114.42 184.318 114.754 184.153 115.185C183.987 115.613 183.904 116.112 183.904 116.682ZM192.455 110.318V120.5H191.282V110.318H192.455ZM196.851 120.679C196.367 120.679 195.928 120.588 195.534 120.406C195.139 120.22 194.826 119.953 194.594 119.605C194.362 119.254 194.246 118.83 194.246 118.332C194.246 117.895 194.332 117.54 194.505 117.268C194.677 116.993 194.907 116.778 195.196 116.622C195.484 116.466 195.802 116.35 196.15 116.274C196.502 116.195 196.855 116.132 197.209 116.085C197.673 116.026 198.049 115.981 198.338 115.951C198.629 115.918 198.842 115.863 198.974 115.787C199.11 115.711 199.178 115.578 199.178 115.389V115.349C199.178 114.859 199.044 114.478 198.775 114.206C198.51 113.934 198.107 113.798 197.567 113.798C197.007 113.798 196.568 113.921 196.25 114.166C195.932 114.411 195.708 114.673 195.579 114.952L194.465 114.554C194.664 114.09 194.929 113.729 195.26 113.47C195.595 113.208 195.96 113.026 196.354 112.923C196.752 112.817 197.143 112.764 197.527 112.764C197.773 112.764 198.054 112.794 198.373 112.854C198.694 112.91 199.004 113.028 199.302 113.207C199.604 113.386 199.854 113.656 200.053 114.017C200.252 114.378 200.351 114.862 200.351 115.469V120.5H199.178V119.466H199.118C199.039 119.632 198.906 119.809 198.721 119.998C198.535 120.187 198.288 120.348 197.98 120.48C197.672 120.613 197.295 120.679 196.851 120.679ZM197.03 119.625C197.494 119.625 197.885 119.534 198.204 119.352C198.525 119.169 198.767 118.934 198.929 118.646C199.095 118.357 199.178 118.054 199.178 117.736V116.662C199.128 116.722 199.019 116.776 198.85 116.826C198.684 116.872 198.492 116.914 198.273 116.95C198.058 116.983 197.847 117.013 197.642 117.04C197.44 117.063 197.276 117.083 197.15 117.099C196.845 117.139 196.56 117.204 196.294 117.293C196.033 117.379 195.821 117.51 195.658 117.686C195.499 117.858 195.419 118.094 195.419 118.392C195.419 118.8 195.57 119.108 195.872 119.317C196.177 119.522 196.563 119.625 197.03 119.625ZM203.666 115.906V120.5H202.493V112.864H203.626V114.057H203.726C203.905 113.669 204.177 113.357 204.541 113.122C204.906 112.884 205.376 112.764 205.953 112.764C206.47 112.764 206.922 112.87 207.31 113.082C207.698 113.291 208 113.609 208.215 114.037C208.431 114.461 208.538 114.998 208.538 115.648V120.5H207.365V115.727C207.365 115.127 207.209 114.66 206.898 114.325C206.586 113.987 206.159 113.818 205.615 113.818C205.24 113.818 204.906 113.899 204.611 114.062C204.319 114.224 204.089 114.461 203.92 114.773C203.751 115.084 203.666 115.462 203.666 115.906Z" fill="#222222"/>
</svg>
