<svg width="320" height="232" viewBox="0 0 320 232" fill="none" xmlns="http://www.w3.org/2000/svg">
<g clip-path="url(#clip0_5367_24597)">
<rect width="288" height="32" transform="translate(16)" fill="white"/>
<path d="M18.72 20V13.92H16.47V13.02H22.03V13.92H19.78V20H18.72ZM27.1939 20L27.1539 18.75V16.4C27.1539 16.0067 27.0239 15.7 26.7639 15.48C26.5106 15.2533 26.1606 15.14 25.7139 15.14C25.2806 15.14 24.9272 15.24 24.6539 15.44C24.3806 15.6333 24.2306 15.9033 24.2039 16.25H23.2139C23.2472 15.8567 23.3739 15.5233 23.5939 15.25C23.8139 14.97 24.1072 14.7567 24.4739 14.61C24.8406 14.4567 25.2639 14.38 25.7439 14.38C26.2372 14.38 26.6639 14.4633 27.0239 14.63C27.3839 14.79 27.6606 15.0233 27.8539 15.33C28.0539 15.6367 28.1539 16.01 28.1539 16.45V20H27.1939ZM25.2039 20.12C24.8439 20.12 24.5272 20.0567 24.2539 19.93C23.9806 19.7967 23.7672 19.61 23.6139 19.37C23.4606 19.1233 23.3839 18.8367 23.3839 18.51C23.3839 17.9433 23.6006 17.5033 24.0339 17.19C24.4739 16.8767 25.0872 16.72 25.8739 16.72H27.2839V17.47H25.8339C25.3806 17.47 25.0239 17.5567 24.7639 17.73C24.5106 17.9033 24.3839 18.1467 24.3839 18.46C24.3839 18.72 24.4739 18.9233 24.6539 19.07C24.8406 19.2167 25.0906 19.29 25.4039 19.29C25.8039 19.29 26.1572 19.1833 26.4639 18.97C26.7772 18.75 27.0306 18.45 27.2239 18.07L27.3339 18.81C27.1606 19.23 26.8939 19.5533 26.5339 19.78C26.1739 20.0067 25.7306 20.12 25.2039 20.12ZM33.7578 16.86V16.2C33.7578 15.9133 33.6711 15.6833 33.4978 15.51C33.3245 15.33 33.0745 15.24 32.7478 15.24C32.3345 15.24 31.9645 15.3967 31.6378 15.71C31.3111 16.0167 31.0511 16.4867 30.8578 17.12L30.7178 16.1C30.8645 15.72 31.0411 15.4033 31.2478 15.15C31.4611 14.8967 31.7045 14.7067 31.9778 14.58C32.2578 14.4467 32.5645 14.38 32.8978 14.38C33.4511 14.38 33.9011 14.54 34.2478 14.86C34.5945 15.1733 34.7678 15.62 34.7678 16.2V16.86H33.7578ZM30.0378 20V14.5H30.9878L31.0478 15.75V20H30.0378ZM40.2917 15.29L40.3217 14.5H41.2717V19.4C41.2717 20.2133 41.0517 20.8333 40.6117 21.26C40.1784 21.6867 39.5217 21.9 38.6417 21.9C38.1551 21.9 37.7317 21.8333 37.3717 21.7C37.0184 21.5667 36.7384 21.3667 36.5317 21.1C36.3317 20.84 36.2184 20.5133 36.1917 20.12H37.2417C37.2751 20.42 37.4084 20.65 37.6417 20.81C37.8817 20.9767 38.2317 21.06 38.6917 21.06C39.2117 21.06 39.6017 20.9267 39.8617 20.66C40.1284 20.3933 40.2617 20.0133 40.2617 19.52V18.79C40.0751 19.07 39.8251 19.29 39.5117 19.45C39.2051 19.61 38.8617 19.69 38.4817 19.69C38.0084 19.69 37.5884 19.5767 37.2217 19.35C36.8617 19.1233 36.5784 18.81 36.3717 18.41C36.1651 18.0033 36.0617 17.5467 36.0617 17.04C36.0617 16.4933 36.1684 16.0233 36.3817 15.63C36.5951 15.23 36.8884 14.9233 37.2617 14.71C37.6351 14.49 38.0584 14.38 38.5317 14.38C38.9117 14.38 39.2551 14.4633 39.5617 14.63C39.8684 14.7967 40.1117 15.0167 40.2917 15.29ZM38.7017 18.9C39.0617 18.9 39.3817 18.7967 39.6617 18.59C39.9484 18.3767 40.1484 18.09 40.2617 17.73V16.34C40.1484 15.98 39.9484 15.6967 39.6617 15.49C39.3817 15.2767 39.0617 15.17 38.7017 15.17C38.3751 15.17 38.0884 15.25 37.8417 15.41C37.6017 15.57 37.4117 15.79 37.2717 16.07C37.1384 16.3433 37.0717 16.6633 37.0717 17.03C37.0717 17.39 37.1384 17.7133 37.2717 18C37.4117 18.28 37.6017 18.5 37.8417 18.66C38.0884 18.82 38.3751 18.9 38.7017 18.9ZM45.3256 20.12C44.759 20.12 44.269 20.0067 43.8556 19.78C43.4423 19.5467 43.1256 19.2167 42.9056 18.79C42.6856 18.3567 42.5756 17.84 42.5756 17.24C42.5756 16.64 42.6856 16.1267 42.9056 15.7C43.1323 15.2733 43.4523 14.9467 43.8656 14.72C44.2856 14.4933 44.7856 14.38 45.3656 14.38C46.2523 14.38 46.9123 14.6267 47.3456 15.12C47.779 15.6067 47.969 16.2767 47.9156 17.13H43.3756L43.3856 16.37L46.8856 16.38C46.859 16.0267 46.7056 15.7433 46.4256 15.53C46.1456 15.3167 45.7923 15.21 45.3656 15.21C44.7923 15.21 44.3523 15.39 44.0456 15.75C43.739 16.11 43.5856 16.62 43.5856 17.28C43.5856 17.6733 43.6523 18.0233 43.7856 18.33C43.9256 18.63 44.1256 18.8633 44.3856 19.03C44.6456 19.1967 44.959 19.28 45.3256 19.28C45.759 19.28 46.119 19.1767 46.4056 18.97C46.699 18.7633 46.879 18.4833 46.9456 18.13H47.9556C47.869 18.75 47.5923 19.2367 47.1256 19.59C46.659 19.9433 46.059 20.12 45.3256 20.12ZM52.2195 20C51.8795 20 51.5895 19.9333 51.3495 19.8C51.1095 19.66 50.9295 19.4633 50.8095 19.21C50.6895 18.9567 50.6295 18.66 50.6295 18.32V13.46L51.6395 12.91V18.32C51.6395 18.48 51.6629 18.6267 51.7095 18.76C51.7562 18.8933 51.8462 18.9967 51.9795 19.07C52.1195 19.1433 52.3229 19.18 52.5895 19.18H54.2395V20H52.2195ZM49.3295 15.32V14.5H53.3595V15.32H49.3295ZM64.6973 20V15.69L64.7473 14.27L63.6173 15.19L62.3673 16.19V14.94L64.9873 13.02H65.7573V20H64.6973ZM62.3673 20V19.1H67.3073V20H62.3673Z" fill="var(--colors-neutral-neutral-800)"/>
<rect width="120" height="32" transform="translate(120)" fill="var(--colors-neutral-neutral-300)"/>
<path d="M129.032 20V11.624H134.984V12.524H130.076V15.212H133.52V16.112H130.076V19.1H135.032V20H129.032ZM141.637 20V15.824C141.637 15.32 141.489 14.912 141.193 14.6C140.905 14.288 140.521 14.132 140.041 14.132C139.505 14.132 139.029 14.336 138.613 14.744C138.197 15.144 137.893 15.756 137.701 16.58L137.521 15.296C137.761 14.64 138.117 14.14 138.589 13.796C139.069 13.452 139.601 13.28 140.185 13.28C140.681 13.28 141.109 13.388 141.469 13.604C141.837 13.812 142.121 14.104 142.321 14.48C142.529 14.856 142.633 15.296 142.633 15.8V20H141.637ZM136.837 20V13.424H137.773L137.833 15.008V20H136.837ZM148.049 20C147.649 20 147.313 19.924 147.041 19.772C146.777 19.62 146.577 19.404 146.441 19.124C146.313 18.836 146.249 18.5 146.249 18.116V12.128L147.233 11.528V18.116C147.233 18.308 147.261 18.488 147.317 18.656C147.373 18.816 147.485 18.948 147.653 19.052C147.821 19.148 148.065 19.196 148.385 19.196H150.461V20H148.049ZM144.605 14.228V13.424H149.453V14.228H144.605ZM157.234 16.1V15.344C157.234 14.976 157.122 14.684 156.898 14.468C156.674 14.244 156.354 14.132 155.938 14.132C155.394 14.132 154.914 14.34 154.498 14.756C154.09 15.172 153.778 15.788 153.562 16.604L153.394 15.5C153.562 15.012 153.774 14.604 154.03 14.276C154.286 13.948 154.582 13.7 154.918 13.532C155.262 13.364 155.642 13.28 156.058 13.28C156.706 13.28 157.23 13.464 157.63 13.832C158.03 14.192 158.23 14.696 158.23 15.344V16.1H157.234ZM152.77 20V13.424H153.682L153.766 15.02V20H152.77ZM162.495 17L163.131 18.62L163.767 17L165.279 13.424H166.323L163.227 20.708C163.051 21.116 162.863 21.432 162.663 21.656C162.471 21.888 162.251 22.048 162.003 22.136C161.763 22.232 161.479 22.28 161.151 22.28H159.999V21.476H161.103C161.303 21.476 161.475 21.432 161.619 21.344C161.771 21.256 161.907 21.12 162.027 20.936C162.147 20.752 162.271 20.508 162.399 20.204L162.603 19.712L159.939 13.424H160.983L162.495 17ZM175.812 20V19.244C176.94 18.388 177.844 17.64 178.524 17C179.212 16.36 179.712 15.796 180.024 15.308C180.336 14.812 180.492 14.36 180.492 13.952C180.492 13.48 180.348 13.1 180.06 12.812C179.772 12.524 179.36 12.38 178.824 12.38C178.28 12.38 177.828 12.544 177.468 12.872C177.116 13.2 176.92 13.664 176.88 14.264H175.836C175.876 13.672 176.028 13.168 176.292 12.752C176.556 12.336 176.908 12.02 177.348 11.804C177.788 11.588 178.284 11.48 178.836 11.48C179.412 11.48 179.904 11.584 180.312 11.792C180.72 11.992 181.032 12.272 181.248 12.632C181.464 12.992 181.572 13.412 181.572 13.892C181.572 14.42 181.432 14.948 181.152 15.476C180.872 15.996 180.42 16.552 179.796 17.144C179.172 17.728 178.348 18.38 177.324 19.1H181.596V20H175.812Z" fill="var(--colors-neutral-neutral-800)"/>
<path d="M228 18.3077L224.192 14.5H231.808L228 18.3077Z" fill="var(--colors-neutral-neutral-700)"/>
<path d="M260 19.5155L256.484 16L260 12.4845L263.515 16L260 19.5155ZM261.15 23.8557C260.992 24.0134 260.814 24.1326 260.615 24.2135C260.417 24.2943 260.211 24.3347 260 24.3347C259.788 24.3347 259.583 24.2943 259.384 24.2135C259.186 24.1326 259.008 24.0134 258.85 23.8557L252.086 17.0922C251.942 16.9474 251.829 16.7756 251.748 16.577C251.667 16.3781 251.627 16.1794 251.627 15.9807C251.627 15.782 251.667 15.5833 251.748 15.3845C251.829 15.1858 251.942 15.014 252.086 14.8692L258.844 8.11145C259.006 7.94995 259.185 7.82879 259.382 7.74795C259.579 7.66729 259.785 7.62695 260 7.62695C260.215 7.62695 260.421 7.66729 260.618 7.74795C260.815 7.82879 260.994 7.94995 261.156 8.11145L267.913 14.8692C268.058 15.014 268.171 15.1858 268.252 15.3845C268.333 15.5833 268.373 15.782 268.373 15.9807C268.373 16.1794 268.333 16.3781 268.252 16.577C268.171 16.7756 268.058 16.9474 267.913 17.0922L261.15 23.8557ZM260.327 22.8537L266.873 16.3077C266.963 16.2179 267.008 16.1089 267.008 15.9807C267.008 15.8525 266.963 15.7435 266.873 15.6537L260.327 9.1077C260.237 9.01787 260.128 8.9762 260 8.9827C259.872 8.98904 259.763 9.03712 259.673 9.12695L253.108 15.6922C253.018 15.782 252.976 15.8846 252.983 16C252.989 16.1153 253.037 16.2179 253.127 16.3077L259.673 22.8537C259.763 22.9435 259.872 22.9885 260 22.9885C260.128 22.9885 260.237 22.9435 260.327 22.8537Z" fill="var(--colors-neutral-neutral-800)"/>
<path d="M285.5 16.5V15.5H298.5V16.5H285.5Z" fill="var(--colors-neutral-neutral-800)"/>
</g>
<g clip-path="url(#clip1_5367_24597)">
<rect width="288" height="32" transform="translate(16 40)" fill="white"/>
<path d="M18.72 60V53.92H16.47V53.02H22.03V53.92H19.78V60H18.72ZM27.1939 60L27.1539 58.75V56.4C27.1539 56.0067 27.0239 55.7 26.7639 55.48C26.5106 55.2533 26.1606 55.14 25.7139 55.14C25.2806 55.14 24.9272 55.24 24.6539 55.44C24.3806 55.6333 24.2306 55.9033 24.2039 56.25H23.2139C23.2472 55.8567 23.3739 55.5233 23.5939 55.25C23.8139 54.97 24.1072 54.7567 24.4739 54.61C24.8406 54.4567 25.2639 54.38 25.7439 54.38C26.2372 54.38 26.6639 54.4633 27.0239 54.63C27.3839 54.79 27.6606 55.0233 27.8539 55.33C28.0539 55.6367 28.1539 56.01 28.1539 56.45V60H27.1939ZM25.2039 60.12C24.8439 60.12 24.5272 60.0567 24.2539 59.93C23.9806 59.7967 23.7672 59.61 23.6139 59.37C23.4606 59.1233 23.3839 58.8367 23.3839 58.51C23.3839 57.9433 23.6006 57.5033 24.0339 57.19C24.4739 56.8767 25.0872 56.72 25.8739 56.72H27.2839V57.47H25.8339C25.3806 57.47 25.0239 57.5567 24.7639 57.73C24.5106 57.9033 24.3839 58.1467 24.3839 58.46C24.3839 58.72 24.4739 58.9233 24.6539 59.07C24.8406 59.2167 25.0906 59.29 25.4039 59.29C25.8039 59.29 26.1572 59.1833 26.4639 58.97C26.7772 58.75 27.0306 58.45 27.2239 58.07L27.3339 58.81C27.1606 59.23 26.8939 59.5533 26.5339 59.78C26.1739 60.0067 25.7306 60.12 25.2039 60.12ZM33.7578 56.86V56.2C33.7578 55.9133 33.6711 55.6833 33.4978 55.51C33.3245 55.33 33.0745 55.24 32.7478 55.24C32.3345 55.24 31.9645 55.3967 31.6378 55.71C31.3111 56.0167 31.0511 56.4867 30.8578 57.12L30.7178 56.1C30.8645 55.72 31.0411 55.4033 31.2478 55.15C31.4611 54.8967 31.7045 54.7067 31.9778 54.58C32.2578 54.4467 32.5645 54.38 32.8978 54.38C33.4511 54.38 33.9011 54.54 34.2478 54.86C34.5945 55.1733 34.7678 55.62 34.7678 56.2V56.86H33.7578ZM30.0378 60V54.5H30.9878L31.0478 55.75V60H30.0378ZM40.2917 55.29L40.3217 54.5H41.2717V59.4C41.2717 60.2133 41.0517 60.8333 40.6117 61.26C40.1784 61.6867 39.5217 61.9 38.6417 61.9C38.1551 61.9 37.7317 61.8333 37.3717 61.7C37.0184 61.5667 36.7384 61.3667 36.5317 61.1C36.3317 60.84 36.2184 60.5133 36.1917 60.12H37.2417C37.2751 60.42 37.4084 60.65 37.6417 60.81C37.8817 60.9767 38.2317 61.06 38.6917 61.06C39.2117 61.06 39.6017 60.9267 39.8617 60.66C40.1284 60.3933 40.2617 60.0133 40.2617 59.52V58.79C40.0751 59.07 39.8251 59.29 39.5117 59.45C39.2051 59.61 38.8617 59.69 38.4817 59.69C38.0084 59.69 37.5884 59.5767 37.2217 59.35C36.8617 59.1233 36.5784 58.81 36.3717 58.41C36.1651 58.0033 36.0617 57.5467 36.0617 57.04C36.0617 56.4933 36.1684 56.0233 36.3817 55.63C36.5951 55.23 36.8884 54.9233 37.2617 54.71C37.6351 54.49 38.0584 54.38 38.5317 54.38C38.9117 54.38 39.2551 54.4633 39.5617 54.63C39.8684 54.7967 40.1117 55.0167 40.2917 55.29ZM38.7017 58.9C39.0617 58.9 39.3817 58.7967 39.6617 58.59C39.9484 58.3767 40.1484 58.09 40.2617 57.73V56.34C40.1484 55.98 39.9484 55.6967 39.6617 55.49C39.3817 55.2767 39.0617 55.17 38.7017 55.17C38.3751 55.17 38.0884 55.25 37.8417 55.41C37.6017 55.57 37.4117 55.79 37.2717 56.07C37.1384 56.3433 37.0717 56.6633 37.0717 57.03C37.0717 57.39 37.1384 57.7133 37.2717 58C37.4117 58.28 37.6017 58.5 37.8417 58.66C38.0884 58.82 38.3751 58.9 38.7017 58.9ZM45.3256 60.12C44.759 60.12 44.269 60.0067 43.8556 59.78C43.4423 59.5467 43.1256 59.2167 42.9056 58.79C42.6856 58.3567 42.5756 57.84 42.5756 57.24C42.5756 56.64 42.6856 56.1267 42.9056 55.7C43.1323 55.2733 43.4523 54.9467 43.8656 54.72C44.2856 54.4933 44.7856 54.38 45.3656 54.38C46.2523 54.38 46.9123 54.6267 47.3456 55.12C47.779 55.6067 47.969 56.2767 47.9156 57.13H43.3756L43.3856 56.37L46.8856 56.38C46.859 56.0267 46.7056 55.7433 46.4256 55.53C46.1456 55.3167 45.7923 55.21 45.3656 55.21C44.7923 55.21 44.3523 55.39 44.0456 55.75C43.739 56.11 43.5856 56.62 43.5856 57.28C43.5856 57.6733 43.6523 58.0233 43.7856 58.33C43.9256 58.63 44.1256 58.8633 44.3856 59.03C44.6456 59.1967 44.959 59.28 45.3256 59.28C45.759 59.28 46.119 59.1767 46.4056 58.97C46.699 58.7633 46.879 58.4833 46.9456 58.13H47.9556C47.869 58.75 47.5923 59.2367 47.1256 59.59C46.659 59.9433 46.059 60.12 45.3256 60.12ZM52.2195 60C51.8795 60 51.5895 59.9333 51.3495 59.8C51.1095 59.66 50.9295 59.4633 50.8095 59.21C50.6895 58.9567 50.6295 58.66 50.6295 58.32V53.46L51.6395 52.91V58.32C51.6395 58.48 51.6629 58.6267 51.7095 58.76C51.7562 58.8933 51.8462 58.9967 51.9795 59.07C52.1195 59.1433 52.3229 59.18 52.5895 59.18H54.2395V60H52.2195ZM49.3295 55.32V54.5H53.3595V55.32H49.3295ZM62.2973 60V59.24C63.2173 58.5533 63.9573 57.9567 64.5173 57.45C65.0773 56.9367 65.484 56.4833 65.7373 56.09C65.9907 55.69 66.1173 55.3267 66.1173 55C66.1173 54.64 66.004 54.35 65.7773 54.13C65.5573 53.91 65.2473 53.8 64.8473 53.8C64.4273 53.8 64.0807 53.93 63.8073 54.19C63.534 54.4433 63.3873 54.8033 63.3673 55.27H62.2973C62.3307 54.77 62.4573 54.3433 62.6773 53.99C62.904 53.63 63.204 53.36 63.5773 53.18C63.9573 52.9933 64.3873 52.9 64.8673 52.9C65.3473 52.9 65.764 52.9867 66.1173 53.16C66.4707 53.3267 66.7407 53.5667 66.9273 53.88C67.1207 54.1867 67.2173 54.5433 67.2173 54.95C67.2173 55.39 67.104 55.8233 66.8773 56.25C66.6573 56.67 66.3007 57.1133 65.8073 57.58C65.3207 58.04 64.674 58.5467 63.8673 59.1H67.2373V60H62.2973Z" fill="var(--colors-neutral-neutral-800)"/>
<rect width="120" height="32" transform="translate(120 40)" fill="var(--colors-neutral-neutral-300)"/>
<path d="M129.032 60V51.624H134.984V52.524H130.076V55.212H133.52V56.112H130.076V59.1H135.032V60H129.032ZM141.637 60V55.824C141.637 55.32 141.489 54.912 141.193 54.6C140.905 54.288 140.521 54.132 140.041 54.132C139.505 54.132 139.029 54.336 138.613 54.744C138.197 55.144 137.893 55.756 137.701 56.58L137.521 55.296C137.761 54.64 138.117 54.14 138.589 53.796C139.069 53.452 139.601 53.28 140.185 53.28C140.681 53.28 141.109 53.388 141.469 53.604C141.837 53.812 142.121 54.104 142.321 54.48C142.529 54.856 142.633 55.296 142.633 55.8V60H141.637ZM136.837 60V53.424H137.773L137.833 55.008V60H136.837ZM148.049 60C147.649 60 147.313 59.924 147.041 59.772C146.777 59.62 146.577 59.404 146.441 59.124C146.313 58.836 146.249 58.5 146.249 58.116V52.128L147.233 51.528V58.116C147.233 58.308 147.261 58.488 147.317 58.656C147.373 58.816 147.485 58.948 147.653 59.052C147.821 59.148 148.065 59.196 148.385 59.196H150.461V60H148.049ZM144.605 54.228V53.424H149.453V54.228H144.605ZM157.234 56.1V55.344C157.234 54.976 157.122 54.684 156.898 54.468C156.674 54.244 156.354 54.132 155.938 54.132C155.394 54.132 154.914 54.34 154.498 54.756C154.09 55.172 153.778 55.788 153.562 56.604L153.394 55.5C153.562 55.012 153.774 54.604 154.03 54.276C154.286 53.948 154.582 53.7 154.918 53.532C155.262 53.364 155.642 53.28 156.058 53.28C156.706 53.28 157.23 53.464 157.63 53.832C158.03 54.192 158.23 54.696 158.23 55.344V56.1H157.234ZM152.77 60V53.424H153.682L153.766 55.02V60H152.77ZM162.495 57L163.131 58.62L163.767 57L165.279 53.424H166.323L163.227 60.708C163.051 61.116 162.863 61.432 162.663 61.656C162.471 61.888 162.251 62.048 162.003 62.136C161.763 62.232 161.479 62.28 161.151 62.28H159.999V61.476H161.103C161.303 61.476 161.475 61.432 161.619 61.344C161.771 61.256 161.907 61.12 162.027 60.936C162.147 60.752 162.271 60.508 162.399 60.204L162.603 59.712L159.939 53.424H160.983L162.495 57ZM178.812 60.144C178.276 60.144 177.78 60.036 177.324 59.82C176.876 59.604 176.516 59.292 176.244 58.884C175.972 58.468 175.832 57.96 175.824 57.36H176.88C176.888 57.736 176.976 58.064 177.144 58.344C177.32 58.624 177.552 58.844 177.84 59.004C178.128 59.156 178.452 59.232 178.812 59.232C179.372 59.232 179.824 59.088 180.168 58.8C180.512 58.504 180.684 58.124 180.684 57.66C180.684 57.308 180.584 57.016 180.384 56.784C180.192 56.544 179.932 56.364 179.604 56.244C179.276 56.124 178.912 56.064 178.512 56.064H178.056V55.2H178.548C178.916 55.2 179.228 55.132 179.484 54.996C179.74 54.86 179.936 54.68 180.072 54.456C180.216 54.224 180.288 53.976 180.288 53.712C180.288 53.312 180.148 52.992 179.868 52.752C179.588 52.504 179.228 52.38 178.788 52.38C178.268 52.38 177.836 52.536 177.492 52.848C177.156 53.152 176.972 53.6 176.94 54.192H175.896C175.928 53.584 176.08 53.08 176.352 52.68C176.632 52.272 176.984 51.972 177.408 51.78C177.84 51.58 178.304 51.48 178.8 51.48C179.312 51.48 179.76 51.572 180.144 51.756C180.528 51.932 180.828 52.18 181.044 52.5C181.268 52.82 181.38 53.196 181.38 53.628C181.38 53.924 181.312 54.208 181.176 54.48C181.04 54.752 180.856 54.984 180.624 55.176C180.4 55.36 180.136 55.488 179.832 55.56C180.2 55.616 180.528 55.74 180.816 55.932C181.112 56.116 181.344 56.356 181.512 56.652C181.68 56.948 181.764 57.288 181.764 57.672C181.764 58.152 181.64 58.58 181.392 58.956C181.152 59.332 180.812 59.624 180.372 59.832C179.932 60.04 179.412 60.144 178.812 60.144Z" fill="var(--colors-neutral-neutral-800)"/>
<path d="M228 58.3077L224.192 54.5H231.808L228 58.3077Z" fill="var(--colors-neutral-neutral-700)"/>
<path d="M260 59.5155L256.484 56L260 52.4845L263.515 56L260 59.5155ZM261.15 63.8557C260.992 64.0134 260.814 64.1326 260.615 64.2135C260.417 64.2943 260.211 64.3347 260 64.3347C259.788 64.3347 259.583 64.2943 259.384 64.2135C259.186 64.1326 259.008 64.0134 258.85 63.8557L252.086 57.0922C251.942 56.9474 251.829 56.7756 251.748 56.577C251.667 56.3781 251.627 56.1794 251.627 55.9807C251.627 55.782 251.667 55.5833 251.748 55.3845C251.829 55.1858 251.942 55.014 252.086 54.8692L258.844 48.1115C259.006 47.95 259.185 47.8288 259.382 47.748C259.579 47.6673 259.785 47.627 260 47.627C260.215 47.627 260.421 47.6673 260.618 47.748C260.815 47.8288 260.994 47.95 261.156 48.1115L267.913 54.8692C268.058 55.014 268.171 55.1858 268.252 55.3845C268.333 55.5833 268.373 55.782 268.373 55.9807C268.373 56.1794 268.333 56.3781 268.252 56.577C268.171 56.7756 268.058 56.9474 267.913 57.0922L261.15 63.8557ZM260.327 62.8537L266.873 56.3077C266.963 56.2179 267.008 56.1089 267.008 55.9807C267.008 55.8525 266.963 55.7435 266.873 55.6537L260.327 49.1077C260.237 49.0179 260.128 48.9762 260 48.9827C259.872 48.989 259.763 49.0371 259.673 49.127L253.108 55.6922C253.018 55.782 252.976 55.8846 252.983 56C252.989 56.1153 253.037 56.2179 253.127 56.3077L259.673 62.8537C259.763 62.9435 259.872 62.9885 260 62.9885C260.128 62.9885 260.237 62.9435 260.327 62.8537Z" fill="var(--colors-neutral-neutral-800)"/>
<path d="M285.5 56.5V55.5H298.5V56.5H285.5Z" fill="var(--colors-neutral-neutral-800)"/>
</g>
<g clip-path="url(#clip2_5367_24597)">
<rect width="288" height="32" transform="translate(16 80)" fill="white"/>
<path d="M18.72 100V93.92H16.47V93.02H22.03V93.92H19.78V100H18.72ZM27.1939 100L27.1539 98.75V96.4C27.1539 96.0067 27.0239 95.7 26.7639 95.48C26.5106 95.2533 26.1606 95.14 25.7139 95.14C25.2806 95.14 24.9272 95.24 24.6539 95.44C24.3806 95.6333 24.2306 95.9033 24.2039 96.25H23.2139C23.2472 95.8567 23.3739 95.5233 23.5939 95.25C23.8139 94.97 24.1072 94.7567 24.4739 94.61C24.8406 94.4567 25.2639 94.38 25.7439 94.38C26.2372 94.38 26.6639 94.4633 27.0239 94.63C27.3839 94.79 27.6606 95.0233 27.8539 95.33C28.0539 95.6367 28.1539 96.01 28.1539 96.45V100H27.1939ZM25.2039 100.12C24.8439 100.12 24.5272 100.057 24.2539 99.93C23.9806 99.7967 23.7672 99.61 23.6139 99.37C23.4606 99.1233 23.3839 98.8367 23.3839 98.51C23.3839 97.9433 23.6006 97.5033 24.0339 97.19C24.4739 96.8767 25.0872 96.72 25.8739 96.72H27.2839V97.47H25.8339C25.3806 97.47 25.0239 97.5567 24.7639 97.73C24.5106 97.9033 24.3839 98.1467 24.3839 98.46C24.3839 98.72 24.4739 98.9233 24.6539 99.07C24.8406 99.2167 25.0906 99.29 25.4039 99.29C25.8039 99.29 26.1572 99.1833 26.4639 98.97C26.7772 98.75 27.0306 98.45 27.2239 98.07L27.3339 98.81C27.1606 99.23 26.8939 99.5533 26.5339 99.78C26.1739 100.007 25.7306 100.12 25.2039 100.12ZM33.7578 96.86V96.2C33.7578 95.9133 33.6711 95.6833 33.4978 95.51C33.3245 95.33 33.0745 95.24 32.7478 95.24C32.3345 95.24 31.9645 95.3967 31.6378 95.71C31.3111 96.0167 31.0511 96.4867 30.8578 97.12L30.7178 96.1C30.8645 95.72 31.0411 95.4033 31.2478 95.15C31.4611 94.8967 31.7045 94.7067 31.9778 94.58C32.2578 94.4467 32.5645 94.38 32.8978 94.38C33.4511 94.38 33.9011 94.54 34.2478 94.86C34.5945 95.1733 34.7678 95.62 34.7678 96.2V96.86H33.7578ZM30.0378 100V94.5H30.9878L31.0478 95.75V100H30.0378ZM40.2917 95.29L40.3217 94.5H41.2717V99.4C41.2717 100.213 41.0517 100.833 40.6117 101.26C40.1784 101.687 39.5217 101.9 38.6417 101.9C38.1551 101.9 37.7317 101.833 37.3717 101.7C37.0184 101.567 36.7384 101.367 36.5317 101.1C36.3317 100.84 36.2184 100.513 36.1917 100.12H37.2417C37.2751 100.42 37.4084 100.65 37.6417 100.81C37.8817 100.977 38.2317 101.06 38.6917 101.06C39.2117 101.06 39.6017 100.927 39.8617 100.66C40.1284 100.393 40.2617 100.013 40.2617 99.52V98.79C40.0751 99.07 39.8251 99.29 39.5117 99.45C39.2051 99.61 38.8617 99.69 38.4817 99.69C38.0084 99.69 37.5884 99.5767 37.2217 99.35C36.8617 99.1233 36.5784 98.81 36.3717 98.41C36.1651 98.0033 36.0617 97.5467 36.0617 97.04C36.0617 96.4933 36.1684 96.0233 36.3817 95.63C36.5951 95.23 36.8884 94.9233 37.2617 94.71C37.6351 94.49 38.0584 94.38 38.5317 94.38C38.9117 94.38 39.2551 94.4633 39.5617 94.63C39.8684 94.7967 40.1117 95.0167 40.2917 95.29ZM38.7017 98.9C39.0617 98.9 39.3817 98.7967 39.6617 98.59C39.9484 98.3767 40.1484 98.09 40.2617 97.73V96.34C40.1484 95.98 39.9484 95.6967 39.6617 95.49C39.3817 95.2767 39.0617 95.17 38.7017 95.17C38.3751 95.17 38.0884 95.25 37.8417 95.41C37.6017 95.57 37.4117 95.79 37.2717 96.07C37.1384 96.3433 37.0717 96.6633 37.0717 97.03C37.0717 97.39 37.1384 97.7133 37.2717 98C37.4117 98.28 37.6017 98.5 37.8417 98.66C38.0884 98.82 38.3751 98.9 38.7017 98.9ZM45.3256 100.12C44.759 100.12 44.269 100.007 43.8556 99.78C43.4423 99.5467 43.1256 99.2167 42.9056 98.79C42.6856 98.3567 42.5756 97.84 42.5756 97.24C42.5756 96.64 42.6856 96.1267 42.9056 95.7C43.1323 95.2733 43.4523 94.9467 43.8656 94.72C44.2856 94.4933 44.7856 94.38 45.3656 94.38C46.2523 94.38 46.9123 94.6267 47.3456 95.12C47.779 95.6067 47.969 96.2767 47.9156 97.13H43.3756L43.3856 96.37L46.8856 96.38C46.859 96.0267 46.7056 95.7433 46.4256 95.53C46.1456 95.3167 45.7923 95.21 45.3656 95.21C44.7923 95.21 44.3523 95.39 44.0456 95.75C43.739 96.11 43.5856 96.62 43.5856 97.28C43.5856 97.6733 43.6523 98.0233 43.7856 98.33C43.9256 98.63 44.1256 98.8633 44.3856 99.03C44.6456 99.1967 44.959 99.28 45.3256 99.28C45.759 99.28 46.119 99.1767 46.4056 98.97C46.699 98.7633 46.879 98.4833 46.9456 98.13H47.9556C47.869 98.75 47.5923 99.2367 47.1256 99.59C46.659 99.9433 46.059 100.12 45.3256 100.12ZM52.2195 100C51.8795 100 51.5895 99.9333 51.3495 99.8C51.1095 99.66 50.9295 99.4633 50.8095 99.21C50.6895 98.9567 50.6295 98.66 50.6295 98.32V93.46L51.6395 92.91V98.32C51.6395 98.48 51.6629 98.6267 51.7095 98.76C51.7562 98.8933 51.8462 98.9967 51.9795 99.07C52.1195 99.1433 52.3229 99.18 52.5895 99.18H54.2395V100H52.2195ZM49.3295 95.32V94.5H53.3595V95.32H49.3295ZM64.8373 100.12C64.3773 100.12 63.954 100.027 63.5673 99.84C63.1807 99.6533 62.8707 99.3833 62.6373 99.03C62.4107 98.6767 62.2973 98.2433 62.2973 97.73H63.3573C63.364 98.0233 63.4307 98.2833 63.5573 98.51C63.684 98.73 63.8573 98.9 64.0773 99.02C64.304 99.14 64.5573 99.2 64.8373 99.2C65.264 99.2 65.6073 99.09 65.8673 98.87C66.1273 98.65 66.2573 98.3667 66.2573 98.02C66.2573 97.7467 66.1807 97.5233 66.0273 97.35C65.8807 97.17 65.6807 97.0367 65.4273 96.95C65.1807 96.8633 64.904 96.82 64.5973 96.82H64.2273V95.94H64.6273C64.9007 95.94 65.134 95.89 65.3273 95.79C65.5273 95.6833 65.6807 95.5433 65.7873 95.37C65.894 95.1967 65.9473 95.01 65.9473 94.81C65.9473 94.5033 65.8407 94.26 65.6273 94.08C65.4207 93.8933 65.1507 93.8 64.8173 93.8C64.4107 93.8 64.0807 93.92 63.8273 94.16C63.574 94.3933 63.4373 94.7333 63.4173 95.18H62.3573C62.3773 94.68 62.5007 94.26 62.7273 93.92C62.9607 93.58 63.2607 93.3267 63.6273 93.16C63.994 92.9867 64.394 92.9 64.8273 92.9C65.274 92.9 65.6607 92.9767 65.9873 93.13C66.3207 93.2767 66.5807 93.4867 66.7673 93.76C66.954 94.0267 67.0473 94.3433 67.0473 94.71C67.0473 94.9567 66.994 95.19 66.8873 95.41C66.7807 95.63 66.634 95.82 66.4473 95.98C66.2673 96.1333 66.0573 96.2433 65.8173 96.31C66.1173 96.3567 66.3807 96.46 66.6073 96.62C66.8407 96.7733 67.024 96.9733 67.1573 97.22C67.2907 97.46 67.3573 97.73 67.3573 98.03C67.3573 98.4367 67.254 98.8 67.0473 99.12C66.8407 99.4333 66.5473 99.68 66.1673 99.86C65.794 100.033 65.3507 100.12 64.8373 100.12Z" fill="var(--colors-neutral-neutral-800)"/>
<rect width="120" height="32" transform="translate(120 80)" fill="var(--colors-neutral-neutral-300)"/>
<path d="M129.032 100V91.624H134.984V92.524H130.076V95.212H133.52V96.112H130.076V99.1H135.032V100H129.032ZM141.637 100V95.824C141.637 95.32 141.489 94.912 141.193 94.6C140.905 94.288 140.521 94.132 140.041 94.132C139.505 94.132 139.029 94.336 138.613 94.744C138.197 95.144 137.893 95.756 137.701 96.58L137.521 95.296C137.761 94.64 138.117 94.14 138.589 93.796C139.069 93.452 139.601 93.28 140.185 93.28C140.681 93.28 141.109 93.388 141.469 93.604C141.837 93.812 142.121 94.104 142.321 94.48C142.529 94.856 142.633 95.296 142.633 95.8V100H141.637ZM136.837 100V93.424H137.773L137.833 95.008V100H136.837ZM148.049 100C147.649 100 147.313 99.924 147.041 99.772C146.777 99.62 146.577 99.404 146.441 99.124C146.313 98.836 146.249 98.5 146.249 98.116V92.128L147.233 91.528V98.116C147.233 98.308 147.261 98.488 147.317 98.656C147.373 98.816 147.485 98.948 147.653 99.052C147.821 99.148 148.065 99.196 148.385 99.196H150.461V100H148.049ZM144.605 94.228V93.424H149.453V94.228H144.605ZM157.234 96.1V95.344C157.234 94.976 157.122 94.684 156.898 94.468C156.674 94.244 156.354 94.132 155.938 94.132C155.394 94.132 154.914 94.34 154.498 94.756C154.09 95.172 153.778 95.788 153.562 96.604L153.394 95.5C153.562 95.012 153.774 94.604 154.03 94.276C154.286 93.948 154.582 93.7 154.918 93.532C155.262 93.364 155.642 93.28 156.058 93.28C156.706 93.28 157.23 93.464 157.63 93.832C158.03 94.192 158.23 94.696 158.23 95.344V96.1H157.234ZM152.77 100V93.424H153.682L153.766 95.02V100H152.77ZM162.495 97L163.131 98.62L163.767 97L165.279 93.424H166.323L163.227 100.708C163.051 101.116 162.863 101.432 162.663 101.656C162.471 101.888 162.251 102.048 162.003 102.136C161.763 102.232 161.479 102.28 161.151 102.28H159.999V101.476H161.103C161.303 101.476 161.475 101.432 161.619 101.344C161.771 101.256 161.907 101.12 162.027 100.936C162.147 100.752 162.271 100.508 162.399 100.204L162.603 99.712L159.939 93.424H160.983L162.495 97ZM179.604 100V97.948H175.356V97.192L179.244 91.624H180.66V97.048H182.112V97.948H180.66V100H179.604ZM176.496 97.048H179.604V94.216L179.628 92.512L178.68 93.94L176.496 97.048Z" fill="var(--colors-neutral-neutral-800)"/>
<path d="M228 98.3077L224.192 94.5H231.808L228 98.3077Z" fill="var(--colors-neutral-neutral-700)"/>
<path d="M260 99.5155L256.484 96L260 92.4845L263.515 96L260 99.5155ZM261.15 103.856C260.992 104.013 260.814 104.133 260.615 104.213C260.417 104.294 260.211 104.335 260 104.335C259.788 104.335 259.583 104.294 259.384 104.213C259.186 104.133 259.008 104.013 258.85 103.856L252.086 97.0922C251.942 96.9474 251.829 96.7756 251.748 96.577C251.667 96.3781 251.627 96.1794 251.627 95.9807C251.627 95.782 251.667 95.5833 251.748 95.3845C251.829 95.1858 251.942 95.014 252.086 94.8692L258.844 88.1115C259.006 87.95 259.185 87.8288 259.382 87.748C259.579 87.6673 259.785 87.627 260 87.627C260.215 87.627 260.421 87.6673 260.618 87.748C260.815 87.8288 260.994 87.95 261.156 88.1115L267.913 94.8692C268.058 95.014 268.171 95.1858 268.252 95.3845C268.333 95.5833 268.373 95.782 268.373 95.9807C268.373 96.1794 268.333 96.3781 268.252 96.577C268.171 96.7756 268.058 96.9474 267.913 97.0922L261.15 103.856ZM260.327 102.854L266.873 96.3077C266.963 96.2179 267.008 96.1089 267.008 95.9807C267.008 95.8525 266.963 95.7435 266.873 95.6537L260.327 89.1077C260.237 89.0179 260.128 88.9762 260 88.9827C259.872 88.989 259.763 89.0371 259.673 89.127L253.108 95.6922C253.018 95.782 252.976 95.8846 252.983 96C252.989 96.1153 253.037 96.2179 253.127 96.3077L259.673 102.854C259.763 102.944 259.872 102.988 260 102.988C260.128 102.988 260.237 102.944 260.327 102.854Z" fill="var(--colors-neutral-neutral-800)"/>
<path d="M285.5 96.5V95.5H298.5V96.5H285.5Z" fill="var(--colors-neutral-neutral-800)"/>
</g>
<rect width="288" height="32" transform="translate(16 120)" fill="white"/>
<path d="M291.5 142.5V136.5H285.5V135.5H291.5V129.5H292.5V135.5H298.5V136.5H292.5V142.5H291.5Z" fill="var(--colors-neutral-neutral-800)"/>
<rect width="320" height="32" transform="translate(0 160)" fill="white"/>
<path d="M16.95 180L16.17 173.02H17.18L17.64 177.45L17.75 179.05L18 177.45L18.79 173.02H19.76L20.56 177.45L20.82 179.09L20.91 177.45L21.35 173.02H22.35L21.56 180H20.15L19.48 176.13L19.28 174.56L19.06 176.13L18.37 180H16.95ZM27.1939 180L27.1539 178.75V176.4C27.1539 176.007 27.0239 175.7 26.7639 175.48C26.5106 175.253 26.1606 175.14 25.7139 175.14C25.2806 175.14 24.9272 175.24 24.6539 175.44C24.3806 175.633 24.2306 175.903 24.2039 176.25H23.2139C23.2472 175.857 23.3739 175.523 23.5939 175.25C23.8139 174.97 24.1072 174.757 24.4739 174.61C24.8406 174.457 25.2639 174.38 25.7439 174.38C26.2372 174.38 26.6639 174.463 27.0239 174.63C27.3839 174.79 27.6606 175.023 27.8539 175.33C28.0539 175.637 28.1539 176.01 28.1539 176.45V180H27.1939ZM25.2039 180.12C24.8439 180.12 24.5272 180.057 24.2539 179.93C23.9806 179.797 23.7672 179.61 23.6139 179.37C23.4606 179.123 23.3839 178.837 23.3839 178.51C23.3839 177.943 23.6006 177.503 24.0339 177.19C24.4739 176.877 25.0872 176.72 25.8739 176.72H27.2839V177.47H25.8339C25.3806 177.47 25.0239 177.557 24.7639 177.73C24.5106 177.903 24.3839 178.147 24.3839 178.46C24.3839 178.72 24.4739 178.923 24.6539 179.07C24.8406 179.217 25.0906 179.29 25.4039 179.29C25.8039 179.29 26.1572 179.183 26.4639 178.97C26.7772 178.75 27.0306 178.45 27.2239 178.07L27.3339 178.81C27.1606 179.23 26.8939 179.553 26.5339 179.78C26.1739 180.007 25.7306 180.12 25.2039 180.12ZM31.8078 180V174.5H32.8178V180H31.8078ZM29.7778 180V179.18H34.7078V180H29.7778ZM30.5078 175.32V174.5H32.3078V175.32H30.5078ZM31.7378 173.56V172.47H32.8678V173.56H31.7378ZM39.2117 180C38.8717 180 38.5817 179.933 38.3417 179.8C38.1017 179.66 37.9217 179.463 37.8017 179.21C37.6817 178.957 37.6217 178.66 37.6217 178.32V173.46L38.6317 172.91V178.32C38.6317 178.48 38.6551 178.627 38.7017 178.76C38.7484 178.893 38.8384 178.997 38.9717 179.07C39.1117 179.143 39.3151 179.18 39.5817 179.18H41.2317V180H39.2117ZM36.3217 175.32V174.5H40.3517V175.32H36.3217ZM53.2095 180L53.1695 178.75V176.4C53.1695 176.007 53.0395 175.7 52.7795 175.48C52.5262 175.253 52.1762 175.14 51.7295 175.14C51.2962 175.14 50.9429 175.24 50.6695 175.44C50.3962 175.633 50.2462 175.903 50.2195 176.25H49.2295C49.2629 175.857 49.3895 175.523 49.6095 175.25C49.8295 174.97 50.1229 174.757 50.4895 174.61C50.8562 174.457 51.2795 174.38 51.7595 174.38C52.2529 174.38 52.6795 174.463 53.0395 174.63C53.3995 174.79 53.6762 175.023 53.8695 175.33C54.0695 175.637 54.1695 176.01 54.1695 176.45V180H53.2095ZM51.2195 180.12C50.8595 180.12 50.5429 180.057 50.2695 179.93C49.9962 179.797 49.7829 179.61 49.6295 179.37C49.4762 179.123 49.3995 178.837 49.3995 178.51C49.3995 177.943 49.6162 177.503 50.0495 177.19C50.4895 176.877 51.1029 176.72 51.8895 176.72H53.2995V177.47H51.8495C51.3962 177.47 51.0395 177.557 50.7795 177.73C50.5262 177.903 50.3995 178.147 50.3995 178.46C50.3995 178.72 50.4895 178.923 50.6695 179.07C50.8562 179.217 51.1062 179.29 51.4195 179.29C51.8195 179.29 52.1729 179.183 52.4795 178.97C52.7929 178.75 53.0462 178.45 53.2395 178.07L53.3495 178.81C53.1762 179.23 52.9095 179.553 52.5495 179.78C52.1895 180.007 51.7462 180.12 51.2195 180.12ZM59.7734 176.86V176.2C59.7734 175.913 59.6868 175.683 59.5134 175.51C59.3401 175.33 59.0901 175.24 58.7634 175.24C58.3501 175.24 57.9801 175.397 57.6534 175.71C57.3268 176.017 57.0668 176.487 56.8734 177.12L56.7334 176.1C56.8801 175.72 57.0568 175.403 57.2634 175.15C57.4768 174.897 57.7201 174.707 57.9934 174.58C58.2734 174.447 58.5801 174.38 58.9134 174.38C59.4668 174.38 59.9168 174.54 60.2634 174.86C60.6101 175.173 60.7834 175.62 60.7834 176.2V176.86H59.7734ZM56.0534 180V174.5H57.0034L57.0634 175.75V180H56.0534ZM64.8373 180.12C64.2707 180.12 63.7807 180.007 63.3673 179.78C62.954 179.547 62.6373 179.217 62.4173 178.79C62.1973 178.357 62.0873 177.84 62.0873 177.24C62.0873 176.64 62.1973 176.127 62.4173 175.7C62.644 175.273 62.964 174.947 63.3773 174.72C63.7973 174.493 64.2973 174.38 64.8773 174.38C65.764 174.38 66.424 174.627 66.8573 175.12C67.2907 175.607 67.4807 176.277 67.4273 177.13H62.8873L62.8973 176.37L66.3973 176.38C66.3707 176.027 66.2173 175.743 65.9373 175.53C65.6573 175.317 65.304 175.21 64.8773 175.21C64.304 175.21 63.864 175.39 63.5573 175.75C63.2507 176.11 63.0973 176.62 63.0973 177.28C63.0973 177.673 63.164 178.023 63.2973 178.33C63.4373 178.63 63.6373 178.863 63.8973 179.03C64.1573 179.197 64.4707 179.28 64.8373 179.28C65.2707 179.28 65.6307 179.177 65.9173 178.97C66.2107 178.763 66.3907 178.483 66.4573 178.13H67.4673C67.3807 178.75 67.104 179.237 66.6373 179.59C66.1707 179.943 65.5707 180.12 64.8373 180.12ZM72.7213 180L72.6813 178.75V176.4C72.6813 176.007 72.5513 175.7 72.2913 175.48C72.0379 175.253 71.6879 175.14 71.2413 175.14C70.8079 175.14 70.4546 175.24 70.1813 175.44C69.9079 175.633 69.7579 175.903 69.7313 176.25H68.7413C68.7746 175.857 68.9013 175.523 69.1213 175.25C69.3413 174.97 69.6346 174.757 70.0013 174.61C70.3679 174.457 70.7913 174.38 71.2713 174.38C71.7646 174.38 72.1913 174.463 72.5513 174.63C72.9113 174.79 73.1879 175.023 73.3813 175.33C73.5813 175.637 73.6812 176.01 73.6812 176.45V180H72.7213ZM70.7313 180.12C70.3713 180.12 70.0546 180.057 69.7813 179.93C69.5079 179.797 69.2946 179.61 69.1413 179.37C68.9879 179.123 68.9113 178.837 68.9113 178.51C68.9113 177.943 69.1279 177.503 69.5613 177.19C70.0013 176.877 70.6146 176.72 71.4013 176.72H72.8113V177.47H71.3613C70.9079 177.47 70.5513 177.557 70.2913 177.73C70.0379 177.903 69.9113 178.147 69.9113 178.46C69.9113 178.72 70.0013 178.923 70.1813 179.07C70.3679 179.217 70.6179 179.29 70.9313 179.29C71.3313 179.29 71.6846 179.183 71.9913 178.97C72.3046 178.75 72.5579 178.45 72.7513 178.07L72.8613 178.81C72.6879 179.23 72.4213 179.553 72.0613 179.78C71.7013 180.007 71.2579 180.12 70.7313 180.12Z" fill="var(--colors-neutral-neutral-800)"/>
<rect width="184" height="32" transform="translate(120 160)" fill="var(--colors-neutral-neutral-300)"/>
<path d="M129.8 176.796V175.896H132.08C132.664 175.896 133.136 175.74 133.496 175.428C133.856 175.116 134.036 174.704 134.036 174.192C134.036 173.688 133.868 173.284 133.532 172.98C133.204 172.676 132.768 172.524 132.224 172.524H129.8V171.624H132.236C132.82 171.624 133.328 171.732 133.76 171.948C134.192 172.156 134.528 172.452 134.768 172.836C135.008 173.212 135.128 173.664 135.128 174.192C135.128 174.712 135 175.168 134.744 175.56C134.496 175.952 134.144 176.256 133.688 176.472C133.232 176.688 132.696 176.796 132.08 176.796H129.8ZM129.056 180V171.624H130.088V180H129.056ZM141.577 180L141.529 178.404V175.74C141.529 175.22 141.361 174.812 141.025 174.516C140.689 174.212 140.233 174.06 139.657 174.06C139.097 174.06 138.637 174.192 138.277 174.456C137.925 174.712 137.733 175.068 137.701 175.524H136.729C136.761 175.052 136.905 174.652 137.161 174.324C137.425 173.988 137.773 173.732 138.205 173.556C138.637 173.372 139.129 173.28 139.681 173.28C140.257 173.28 140.757 173.38 141.181 173.58C141.605 173.78 141.933 174.068 142.165 174.444C142.397 174.812 142.513 175.256 142.513 175.776V180H141.577ZM139.105 180.144C138.673 180.144 138.293 180.068 137.965 179.916C137.637 179.764 137.381 179.548 137.197 179.268C137.021 178.98 136.933 178.64 136.933 178.248C136.933 177.568 137.193 177.04 137.713 176.664C138.233 176.288 138.965 176.1 139.909 176.1H141.685V176.868H139.861C139.253 176.868 138.777 176.984 138.433 177.216C138.089 177.448 137.917 177.776 137.917 178.2C137.917 178.552 138.041 178.828 138.289 179.028C138.537 179.22 138.861 179.316 139.261 179.316C139.781 179.316 140.237 179.172 140.629 178.884C141.029 178.596 141.353 178.204 141.601 177.708L141.721 178.476C141.505 179.004 141.177 179.416 140.737 179.712C140.297 180 139.753 180.144 139.105 180.144ZM149.429 176.1V175.344C149.429 174.976 149.317 174.684 149.093 174.468C148.869 174.244 148.549 174.132 148.133 174.132C147.589 174.132 147.109 174.34 146.693 174.756C146.285 175.172 145.973 175.788 145.757 176.604L145.589 175.5C145.757 175.012 145.969 174.604 146.225 174.276C146.481 173.948 146.777 173.7 147.113 173.532C147.457 173.364 147.837 173.28 148.253 173.28C148.901 173.28 149.425 173.464 149.825 173.832C150.225 174.192 150.425 174.696 150.425 175.344V176.1H149.429ZM144.965 180V173.424H145.877L145.961 175.02V180H144.965ZM152.326 180V171.204H153.31V174.66L153.274 176.4L154.546 175.2L156.598 173.424H157.942L153.31 177.504V180H152.326ZM156.922 180L154.546 175.896L155.398 175.404L158.086 180H156.922ZM162.699 180V173.424H163.695V180H162.699ZM160.179 180V179.196H165.999V180H160.179ZM161.067 174.228V173.424H163.203V174.228H161.067ZM162.615 172.212V171.06H163.767V172.212H162.615ZM172.855 180V175.824C172.855 175.32 172.707 174.912 172.411 174.6C172.123 174.288 171.739 174.132 171.259 174.132C170.723 174.132 170.247 174.336 169.831 174.744C169.415 175.144 169.111 175.756 168.919 176.58L168.739 175.296C168.979 174.64 169.335 174.14 169.807 173.796C170.287 173.452 170.819 173.28 171.403 173.28C171.899 173.28 172.327 173.388 172.687 173.604C173.055 173.812 173.339 174.104 173.539 174.48C173.747 174.856 173.851 175.296 173.851 175.8V180H172.855ZM168.055 180V173.424H168.991L169.051 175.008V180H168.055ZM180.684 174.456L180.72 173.424H181.644V179.34C181.644 180.292 181.384 181.02 180.864 181.524C180.352 182.028 179.588 182.28 178.572 182.28C178.012 182.28 177.524 182.2 177.108 182.04C176.692 181.88 176.36 181.64 176.112 181.32C175.872 181.008 175.732 180.616 175.692 180.144H176.724C176.764 180.552 176.936 180.868 177.24 181.092C177.552 181.324 178.012 181.44 178.62 181.44C179.284 181.44 179.788 181.268 180.132 180.924C180.476 180.588 180.648 180.104 180.648 179.472V178.428C180.424 178.796 180.116 179.084 179.724 179.292C179.34 179.5 178.904 179.604 178.416 179.604C177.84 179.604 177.332 179.472 176.892 179.208C176.46 178.936 176.12 178.56 175.872 178.08C175.624 177.6 175.5 177.056 175.5 176.448C175.5 175.792 175.624 175.232 175.872 174.768C176.128 174.296 176.48 173.932 176.928 173.676C177.376 173.412 177.884 173.28 178.452 173.28C178.94 173.28 179.38 173.388 179.772 173.604C180.164 173.82 180.468 174.104 180.684 174.456ZM178.608 178.812C179.072 178.812 179.488 178.68 179.856 178.416C180.232 178.152 180.496 177.788 180.648 177.324V175.56C180.496 175.096 180.232 174.732 179.856 174.468C179.488 174.204 179.072 174.072 178.608 174.072C178.184 174.072 177.812 174.172 177.492 174.372C177.18 174.564 176.936 174.84 176.76 175.2C176.584 175.552 176.496 175.964 176.496 176.436C176.496 176.9 176.584 177.312 176.76 177.672C176.936 178.032 177.18 178.312 177.492 178.512C177.812 178.712 178.184 178.812 178.608 178.812ZM191.422 180V179.244C192.55 178.388 193.454 177.64 194.134 177C194.822 176.36 195.322 175.796 195.634 175.308C195.946 174.812 196.102 174.36 196.102 173.952C196.102 173.48 195.958 173.1 195.67 172.812C195.382 172.524 194.97 172.38 194.434 172.38C193.89 172.38 193.438 172.544 193.078 172.872C192.726 173.2 192.53 173.664 192.49 174.264H191.446C191.486 173.672 191.638 173.168 191.902 172.752C192.166 172.336 192.518 172.02 192.958 171.804C193.398 171.588 193.894 171.48 194.446 171.48C195.022 171.48 195.514 171.584 195.922 171.792C196.33 171.992 196.642 172.272 196.858 172.632C197.074 172.992 197.182 173.412 197.182 173.892C197.182 174.42 197.042 174.948 196.762 175.476C196.482 175.996 196.03 176.552 195.406 177.144C194.782 177.728 193.958 178.38 192.934 179.1H197.206V180H191.422Z" fill="var(--colors-neutral-neutral-800)"/>
<path d="M292 178.308L288.192 174.5H295.808L292 178.308Z" fill="var(--colors-neutral-neutral-700)"/>
<rect width="320" height="32" transform="translate(0 200)" fill="white"/>
<path d="M17.61 209.08V208.18H19.38C19.6733 208.18 19.93 208.133 20.15 208.04C20.3767 207.94 20.5533 207.8 20.68 207.62C20.8133 207.44 20.88 207.233 20.88 207C20.88 206.773 20.8233 206.58 20.71 206.42C20.5967 206.26 20.4433 206.137 20.25 206.05C20.0567 205.963 19.84 205.92 19.6 205.92H17.61V205.02H19.6C20.06 205.02 20.47 205.1 20.83 205.26C21.19 205.413 21.4733 205.637 21.68 205.93C21.8867 206.223 21.99 206.58 21.99 207C21.99 207.267 21.9267 207.523 21.8 207.77C21.68 208.017 21.5033 208.24 21.27 208.44C21.0433 208.633 20.7667 208.79 20.44 208.91C20.1133 209.023 19.7433 209.08 19.33 209.08H17.61ZM16.85 212V205.02H17.91V212H16.85ZM20.86 212C20.82 211.687 20.7333 211.377 20.6 211.07C20.4733 210.763 20.3 210.47 20.08 210.19C19.86 209.91 19.5867 209.65 19.26 209.41C18.94 209.17 18.5667 208.953 18.14 208.76L19.32 208.5C19.76 208.72 20.1367 208.967 20.45 209.24C20.77 209.507 21.0333 209.79 21.24 210.09C21.4533 210.39 21.6133 210.7 21.72 211.02C21.8333 211.34 21.9067 211.667 21.94 212H20.86ZM25.8139 212.12C25.2472 212.12 24.7572 212.007 24.3439 211.78C23.9306 211.547 23.6139 211.217 23.3939 210.79C23.1739 210.357 23.0639 209.84 23.0639 209.24C23.0639 208.64 23.1739 208.127 23.3939 207.7C23.6206 207.273 23.9406 206.947 24.3539 206.72C24.7739 206.493 25.2739 206.38 25.8539 206.38C26.7406 206.38 27.4006 206.627 27.8339 207.12C28.2672 207.607 28.4572 208.277 28.4039 209.13H23.8639L23.8739 208.37L27.3739 208.38C27.3472 208.027 27.1939 207.743 26.9139 207.53C26.6339 207.317 26.2806 207.21 25.8539 207.21C25.2806 207.21 24.8406 207.39 24.5339 207.75C24.2272 208.11 24.0739 208.62 24.0739 209.28C24.0739 209.673 24.1406 210.023 24.2739 210.33C24.4139 210.63 24.6139 210.863 24.8739 211.03C25.1339 211.197 25.4472 211.28 25.8139 211.28C26.2472 211.28 26.6072 211.177 26.8939 210.97C27.1872 210.763 27.3672 210.483 27.4339 210.13H28.4439C28.3572 210.75 28.0806 211.237 27.6139 211.59C27.1472 211.943 26.5472 212.12 25.8139 212.12ZM31.7578 212V204.65H32.7678V212H31.7578ZM29.7278 212V211.18H34.8078V212H29.7278ZM30.4578 205.47V204.65H32.2578V205.47H30.4578ZM40.2017 212L40.1617 210.75V208.4C40.1617 208.007 40.0317 207.7 39.7717 207.48C39.5184 207.253 39.1684 207.14 38.7217 207.14C38.2884 207.14 37.9351 207.24 37.6617 207.44C37.3884 207.633 37.2384 207.903 37.2117 208.25H36.2217C36.2551 207.857 36.3817 207.523 36.6017 207.25C36.8217 206.97 37.1151 206.757 37.4817 206.61C37.8484 206.457 38.2717 206.38 38.7517 206.38C39.2451 206.38 39.6717 206.463 40.0317 206.63C40.3917 206.79 40.6684 207.023 40.8617 207.33C41.0617 207.637 41.1617 208.01 41.1617 208.45V212H40.2017ZM38.2117 212.12C37.8517 212.12 37.5351 212.057 37.2617 211.93C36.9884 211.797 36.7751 211.61 36.6217 211.37C36.4684 211.123 36.3917 210.837 36.3917 210.51C36.3917 209.943 36.6084 209.503 37.0417 209.19C37.4817 208.877 38.0951 208.72 38.8817 208.72H40.2917V209.47H38.8417C38.3884 209.47 38.0317 209.557 37.7717 209.73C37.5184 209.903 37.3917 210.147 37.3917 210.46C37.3917 210.72 37.4817 210.923 37.6617 211.07C37.8484 211.217 38.0984 211.29 38.4117 211.29C38.8117 211.29 39.1651 211.183 39.4717 210.97C39.7851 210.75 40.0384 210.45 40.2317 210.07L40.3417 210.81C40.1684 211.23 39.9017 211.553 39.5417 211.78C39.1817 212.007 38.7384 212.12 38.2117 212.12ZM45.7156 212C45.3756 212 45.0856 211.933 44.8456 211.8C44.6056 211.66 44.4256 211.463 44.3056 211.21C44.1856 210.957 44.1256 210.66 44.1256 210.32V205.46L45.1356 204.91V210.32C45.1356 210.48 45.159 210.627 45.2056 210.76C45.2523 210.893 45.3423 210.997 45.4756 211.07C45.6156 211.143 45.819 211.18 46.0856 211.18H47.7356V212H45.7156ZM42.8256 207.32V206.5H46.8556V207.32H42.8256ZM51.3195 212V206.5H52.3295V212H51.3195ZM49.2895 212V211.18H54.2195V212H49.2895ZM50.0195 207.32V206.5H51.8195V207.32H50.0195ZM51.2495 205.56V204.47H52.3795V205.56H51.2495ZM57.7034 212L55.5534 206.5H56.6234L57.8934 209.81L58.2834 211.07L58.6834 209.81L59.9534 206.5H60.9834L58.8434 212H57.7034ZM64.8373 212.12C64.2707 212.12 63.7807 212.007 63.3673 211.78C62.954 211.547 62.6373 211.217 62.4173 210.79C62.1973 210.357 62.0873 209.84 62.0873 209.24C62.0873 208.64 62.1973 208.127 62.4173 207.7C62.644 207.273 62.964 206.947 63.3773 206.72C63.7973 206.493 64.2973 206.38 64.8773 206.38C65.764 206.38 66.424 206.627 66.8573 207.12C67.2907 207.607 67.4807 208.277 67.4273 209.13H62.8873L62.8973 208.37L66.3973 208.38C66.3707 208.027 66.2173 207.743 65.9373 207.53C65.6573 207.317 65.304 207.21 64.8773 207.21C64.304 207.21 63.864 207.39 63.5573 207.75C63.2507 208.11 63.0973 208.62 63.0973 209.28C63.0973 209.673 63.164 210.023 63.2973 210.33C63.4373 210.63 63.6373 210.863 63.8973 211.03C64.1573 211.197 64.4707 211.28 64.8373 211.28C65.2707 211.28 65.6307 211.177 65.9173 210.97C66.2107 210.763 66.3907 210.483 66.4573 210.13H67.4673C67.3807 210.75 67.104 211.237 66.6373 211.59C66.1707 211.943 65.5707 212.12 64.8373 212.12ZM19.57 222.38C20.0633 222.38 20.4933 222.503 20.86 222.75C21.2333 222.99 21.5267 223.327 21.74 223.76C21.9533 224.193 22.06 224.69 22.06 225.25C22.06 225.803 21.9533 226.297 21.74 226.73C21.5267 227.163 21.2333 227.503 20.86 227.75C20.4933 227.997 20.0633 228.12 19.57 228.12C19.1967 228.12 18.8533 228.043 18.54 227.89C18.2333 227.737 17.98 227.527 17.78 227.26V229.78H16.77V222.5H17.73L17.76 223.25C17.96 222.983 18.2167 222.773 18.53 222.62C18.8433 222.46 19.19 222.38 19.57 222.38ZM19.35 227.27C19.69 227.27 19.9867 227.183 20.24 227.01C20.4933 226.837 20.69 226.6 20.83 226.3C20.97 225.993 21.04 225.643 21.04 225.25C21.04 224.85 20.97 224.5 20.83 224.2C20.69 223.893 20.4933 223.657 20.24 223.49C19.9867 223.317 19.69 223.23 19.35 223.23C19.0033 223.23 18.6867 223.33 18.4 223.53C18.12 223.723 17.9133 223.99 17.78 224.33V226.15C17.9133 226.497 18.12 226.77 18.4 226.97C18.6867 227.17 19.0033 227.27 19.35 227.27ZM25.7439 228.12C25.1772 228.12 24.6872 228.003 24.2739 227.77C23.8672 227.537 23.5539 227.207 23.3339 226.78C23.1139 226.347 23.0039 225.837 23.0039 225.25C23.0039 224.65 23.1139 224.14 23.3339 223.72C23.5539 223.293 23.8672 222.963 24.2739 222.73C24.6872 222.497 25.1806 222.38 25.7539 222.38C26.6072 222.38 27.2772 222.637 27.7639 223.15C28.2506 223.657 28.4939 224.357 28.4939 225.25C28.4939 225.837 28.3839 226.347 28.1639 226.78C27.9439 227.207 27.6272 227.537 27.2139 227.77C26.8072 228.003 26.3172 228.12 25.7439 228.12ZM25.7539 227.28C26.2872 227.28 26.7072 227.1 27.0139 226.74C27.3272 226.373 27.4839 225.877 27.4839 225.25C27.4839 224.617 27.3272 224.12 27.0139 223.76C26.7072 223.4 26.2872 223.22 25.7539 223.22C25.2139 223.22 24.7906 223.4 24.4839 223.76C24.1772 224.12 24.0239 224.617 24.0239 225.25C24.0239 225.877 24.1772 226.373 24.4839 226.74C24.7906 227.1 25.2139 227.28 25.7539 227.28ZM32.4078 228.12C31.9211 228.12 31.4911 228.037 31.1178 227.87C30.7511 227.697 30.4678 227.457 30.2678 227.15C30.0678 226.837 29.9645 226.463 29.9578 226.03H30.9078C30.9078 226.437 31.0445 226.757 31.3178 226.99C31.5911 227.223 31.9511 227.34 32.3978 227.34C32.7778 227.34 33.0811 227.27 33.3078 227.13C33.5411 226.983 33.6578 226.787 33.6578 226.54C33.6578 226.347 33.5911 226.193 33.4578 226.08C33.3311 225.96 33.1611 225.867 32.9478 225.8C32.7345 225.733 32.4978 225.677 32.2378 225.63C31.9845 225.577 31.7278 225.517 31.4678 225.45C31.2145 225.377 30.9811 225.287 30.7678 225.18C30.5545 225.067 30.3811 224.917 30.2478 224.73C30.1145 224.543 30.0478 224.3 30.0478 224C30.0478 223.687 30.1378 223.41 30.3178 223.17C30.4978 222.923 30.7511 222.73 31.0778 222.59C31.4111 222.45 31.8045 222.38 32.2578 222.38C32.9445 222.38 33.4945 222.54 33.9078 222.86C34.3278 223.173 34.5545 223.607 34.5878 224.16H33.6378C33.6178 223.84 33.4845 223.593 33.2378 223.42C32.9978 223.24 32.6711 223.15 32.2578 223.15C31.8711 223.15 31.5745 223.227 31.3678 223.38C31.1678 223.533 31.0678 223.727 31.0678 223.96C31.0678 224.14 31.1345 224.283 31.2678 224.39C31.4011 224.49 31.5745 224.57 31.7878 224.63C32.0011 224.683 32.2345 224.733 32.4878 224.78C32.7478 224.82 33.0045 224.873 33.2578 224.94C33.5178 225.007 33.7545 225.1 33.9678 225.22C34.1811 225.333 34.3511 225.49 34.4778 225.69C34.6111 225.89 34.6778 226.15 34.6778 226.47C34.6778 226.983 34.4711 227.387 34.0578 227.68C33.6445 227.973 33.0945 228.12 32.4078 228.12ZM38.3117 228V222.5H39.3217V228H38.3117ZM36.2817 228V227.18H41.2117V228H36.2817ZM37.0117 223.32V222.5H38.8117V223.32H37.0117ZM38.2417 221.56V220.47H39.3717V221.56H38.2417ZM45.7156 228C45.3756 228 45.0856 227.933 44.8456 227.8C44.6056 227.66 44.4256 227.463 44.3056 227.21C44.1856 226.957 44.1256 226.66 44.1256 226.32V221.46L45.1356 220.91V226.32C45.1356 226.48 45.159 226.627 45.2056 226.76C45.2523 226.893 45.3423 226.997 45.4756 227.07C45.6156 227.143 45.819 227.18 46.0856 227.18H47.7356V228H45.7156ZM42.8256 223.32V222.5H46.8556V223.32H42.8256ZM51.3195 228V222.5H52.3295V228H51.3195ZM49.2895 228V227.18H54.2195V228H49.2895ZM50.0195 223.32V222.5H51.8195V223.32H50.0195ZM51.2495 221.56V220.47H52.3795V221.56H51.2495ZM58.2634 228.12C57.6968 228.12 57.2068 228.003 56.7934 227.77C56.3868 227.537 56.0734 227.207 55.8534 226.78C55.6334 226.347 55.5234 225.837 55.5234 225.25C55.5234 224.65 55.6334 224.14 55.8534 223.72C56.0734 223.293 56.3868 222.963 56.7934 222.73C57.2068 222.497 57.7001 222.38 58.2734 222.38C59.1268 222.38 59.7968 222.637 60.2834 223.15C60.7701 223.657 61.0134 224.357 61.0134 225.25C61.0134 225.837 60.9034 226.347 60.6834 226.78C60.4634 227.207 60.1468 227.537 59.7334 227.77C59.3268 228.003 58.8368 228.12 58.2634 228.12ZM58.2734 227.28C58.8068 227.28 59.2268 227.1 59.5334 226.74C59.8468 226.373 60.0034 225.877 60.0034 225.25C60.0034 224.617 59.8468 224.12 59.5334 223.76C59.2268 223.4 58.8068 223.22 58.2734 223.22C57.7334 223.22 57.3101 223.4 57.0034 223.76C56.6968 224.12 56.5434 224.617 56.5434 225.25C56.5434 225.877 56.6968 226.373 57.0034 226.74C57.3101 227.1 57.7334 227.28 58.2734 227.28ZM66.2573 228V224.53C66.2573 224.143 66.1473 223.833 65.9273 223.6C65.7073 223.36 65.4207 223.24 65.0673 223.24C64.6607 223.24 64.2973 223.39 63.9773 223.69C63.664 223.983 63.414 224.443 63.2273 225.07L63.0673 223.94C63.274 223.42 63.5707 223.03 63.9573 222.77C64.3507 222.51 64.7773 222.38 65.2373 222.38C65.6507 222.38 66.0073 222.47 66.3073 222.65C66.614 222.823 66.8507 223.067 67.0173 223.38C67.184 223.693 67.2673 224.063 67.2673 224.49V228H66.2573ZM62.3373 228V222.5H63.2973L63.3473 223.74V228H62.3373Z" fill="var(--colors-neutral-neutral-800)"/>
<rect width="184" height="32" transform="translate(120 200)" fill="var(--colors-neutral-neutral-300)"/>
<rect width="184" height="32" transform="translate(120 200)" fill="var(--colors-neutral-neutral-300)"/>
<path d="M131.75 220.119C131.108 220.119 130.561 219.945 130.109 219.595C129.658 219.243 129.313 218.733 129.074 218.065C128.835 217.395 128.716 216.585 128.716 215.636C128.716 214.693 128.835 213.888 129.074 213.22C129.315 212.55 129.662 212.038 130.114 211.686C130.568 211.331 131.114 211.153 131.75 211.153C132.386 211.153 132.93 211.331 133.382 211.686C133.837 212.038 134.183 212.55 134.422 213.22C134.663 213.888 134.784 214.693 134.784 215.636C134.784 216.585 134.665 217.395 134.426 218.065C134.188 218.733 133.842 219.243 133.391 219.595C132.939 219.945 132.392 220.119 131.75 220.119ZM131.75 219.182C132.386 219.182 132.881 218.875 133.233 218.261C133.585 217.648 133.761 216.773 133.761 215.636C133.761 214.881 133.68 214.237 133.518 213.706C133.359 213.175 133.129 212.77 132.828 212.491C132.53 212.213 132.17 212.074 131.75 212.074C131.119 212.074 130.626 212.385 130.271 213.007C129.916 213.626 129.739 214.503 129.739 215.636C129.739 216.392 129.818 217.034 129.977 217.562C130.136 218.091 130.365 218.493 130.663 218.768C130.964 219.044 131.327 219.182 131.75 219.182Z" fill="var(--colors-neutral-neutral-800)"/>
<path d="M294.335 218.136V217.753C294.335 217.488 294.39 217.245 294.499 217.025C294.61 216.802 294.771 216.625 294.982 216.492C295.195 216.357 295.453 216.29 295.756 216.29C296.063 216.29 296.321 216.357 296.53 216.492C296.738 216.625 296.896 216.802 297.002 217.025C297.109 217.245 297.162 217.488 297.162 217.753V218.136C297.162 218.402 297.107 218.645 296.999 218.868C296.892 219.088 296.733 219.266 296.523 219.401C296.314 219.533 296.059 219.599 295.756 219.599C295.448 219.599 295.189 219.533 294.978 219.401C294.767 219.266 294.607 219.088 294.499 218.868C294.39 218.645 294.335 218.402 294.335 218.136ZM295.06 217.753V218.136C295.06 218.357 295.112 218.554 295.216 218.729C295.32 218.902 295.5 218.989 295.756 218.989C296.004 218.989 296.179 218.902 296.281 218.729C296.385 218.554 296.438 218.357 296.438 218.136V217.753C296.438 217.533 296.388 217.336 296.288 217.163C296.189 216.988 296.011 216.901 295.756 216.901C295.507 216.901 295.328 216.988 295.219 217.163C295.113 217.336 295.06 217.533 295.06 217.753ZM290.713 213.974V213.591C290.713 213.326 290.768 213.083 290.876 212.863C290.988 212.64 291.149 212.463 291.359 212.33C291.572 212.195 291.83 212.128 292.134 212.128C292.441 212.128 292.699 212.195 292.908 212.33C293.116 212.463 293.273 212.64 293.38 212.863C293.487 213.083 293.54 213.326 293.54 213.591V213.974C293.54 214.24 293.485 214.483 293.376 214.706C293.27 214.926 293.111 215.104 292.901 215.239C292.692 215.371 292.437 215.438 292.134 215.438C291.826 215.438 291.567 215.371 291.356 215.239C291.145 215.104 290.985 214.926 290.876 214.706C290.768 214.483 290.713 214.24 290.713 213.974ZM291.438 213.591V213.974C291.438 214.195 291.49 214.392 291.594 214.567C291.698 214.74 291.878 214.827 292.134 214.827C292.382 214.827 292.557 214.74 292.659 214.567C292.763 214.392 292.815 214.195 292.815 213.974V213.591C292.815 213.371 292.766 213.174 292.666 213.001C292.567 212.826 292.389 212.739 292.134 212.739C291.885 212.739 291.706 212.826 291.597 213.001C291.491 213.174 291.438 213.371 291.438 213.591ZM290.983 219.5L295.983 212.227H296.793L291.793 219.5H290.983Z" fill="var(--colors-neutral-neutral-700)"/>
<defs>
<clipPath id="clip0_5367_24597">
<rect width="288" height="32" fill="white" transform="translate(16)"/>
</clipPath>
<clipPath id="clip1_5367_24597">
<rect width="288" height="32" fill="white" transform="translate(16 40)"/>
</clipPath>
<clipPath id="clip2_5367_24597">
<rect width="288" height="32" fill="white" transform="translate(16 80)"/>
</clipPath>
</defs>
</svg>
