<svg width="24" height="24" viewBox="0 0 24 24" fill="none" xmlns="http://www.w3.org/2000/svg">
<rect width="24" height="24" rx="2" fill="var(--colors-primary-primary-300)"/>
<path d="M2.73074 20L12 4L21.2692 20H2.73074ZM4.44999 19H19.55L12 6L4.44999 19ZM12 17.6154C12.1744 17.6154 12.3205 17.5564 12.4385 17.4385C12.5564 17.3205 12.6154 17.1744 12.6154 17C12.6154 16.8256 12.5564 16.6795 12.4385 16.5615C12.3205 16.4436 12.1744 16.3846 12 16.3846C11.8256 16.3846 11.6795 16.4436 11.5615 16.5615C11.4436 16.6795 11.3846 16.8256 11.3846 17C11.3846 17.1744 11.4436 17.3205 11.5615 17.4385C11.6795 17.5564 11.8256 17.6154 12 17.6154ZM11.5 15.3846H12.5V10.3846H11.5V15.3846Z" fill="var(--colors-primary-primary-700)"/>
</svg>
