<svg width="304" height="451" viewBox="0 0 304 451" fill="none" xmlns="http://www.w3.org/2000/svg">
<rect x="0.5" y="0.5" width="303" height="449" stroke="var(--colors-neutral-neutral-400)"/>
<mask id="path-2-inside-1_3815_56554" fill="white">
<path d="M0 0H304V52H0V0Z"/>
</mask>
<path d="M304 51H0V53H304V51Z" fill="var(--colors-neutral-neutral-400)" mask="url(#path-2-inside-1_3815_56554)"/>
<path d="M20.02 30.144C19.372 30.144 18.808 30.02 18.328 29.772C17.848 29.524 17.476 29.168 17.212 28.704C16.948 28.24 16.816 27.676 16.816 27.012H18.076C18.076 27.668 18.248 28.176 18.592 28.536C18.936 28.888 19.408 29.064 20.008 29.064C20.52 29.064 20.932 28.948 21.244 28.716C21.556 28.476 21.712 28.144 21.712 27.72C21.712 27.432 21.624 27.2 21.448 27.024C21.28 26.848 21.052 26.704 20.764 26.592C20.484 26.48 20.176 26.38 19.84 26.292C19.504 26.204 19.164 26.108 18.82 26.004C18.484 25.892 18.172 25.752 17.884 25.584C17.604 25.416 17.376 25.192 17.2 24.912C17.032 24.632 16.948 24.276 16.948 23.844C16.948 23.388 17.068 22.984 17.308 22.632C17.556 22.272 17.896 21.992 18.328 21.792C18.768 21.584 19.284 21.48 19.876 21.48C20.452 21.48 20.968 21.588 21.424 21.804C21.88 22.012 22.244 22.312 22.516 22.704C22.796 23.088 22.94 23.552 22.948 24.096H21.676C21.668 23.776 21.58 23.504 21.412 23.28C21.252 23.048 21.036 22.872 20.764 22.752C20.5 22.624 20.204 22.56 19.876 22.56C19.404 22.56 19.02 22.672 18.724 22.896C18.428 23.12 18.28 23.424 18.28 23.808C18.28 24.08 18.364 24.296 18.532 24.456C18.708 24.616 18.936 24.748 19.216 24.852C19.504 24.948 19.816 25.04 20.152 25.128C20.496 25.208 20.836 25.304 21.172 25.416C21.508 25.52 21.816 25.664 22.096 25.848C22.384 26.024 22.612 26.264 22.78 26.568C22.956 26.864 23.044 27.244 23.044 27.708C23.044 28.204 22.912 28.636 22.648 29.004C22.384 29.364 22.024 29.644 21.568 29.844C21.112 30.044 20.596 30.144 20.02 30.144ZM27.5367 30.144C26.8567 30.144 26.2687 30.008 25.7727 29.736C25.2767 29.456 24.8967 29.06 24.6327 28.548C24.3687 28.028 24.2367 27.408 24.2367 26.688C24.2367 25.968 24.3687 25.352 24.6327 24.84C24.9047 24.328 25.2887 23.936 25.7847 23.664C26.2887 23.392 26.8887 23.256 27.5847 23.256C28.6487 23.256 29.4407 23.552 29.9607 24.144C30.4807 24.728 30.7087 25.532 30.6447 26.556H25.1967L25.2087 25.644L29.4087 25.656C29.3767 25.232 29.1927 24.892 28.8567 24.636C28.5207 24.38 28.0967 24.252 27.5847 24.252C26.8967 24.252 26.3687 24.468 26.0007 24.9C25.6327 25.332 25.4487 25.944 25.4487 26.736C25.4487 27.208 25.5287 27.628 25.6887 27.996C25.8567 28.356 26.0967 28.636 26.4087 28.836C26.7207 29.036 27.0967 29.136 27.5367 29.136C28.0567 29.136 28.4887 29.012 28.8327 28.764C29.1847 28.516 29.4007 28.18 29.4807 27.756H30.6927C30.5887 28.5 30.2567 29.084 29.6967 29.508C29.1367 29.932 28.4167 30.144 27.5367 30.144ZM35.5694 30C35.1614 30 34.8134 29.92 34.5254 29.76C34.2374 29.592 34.0214 29.356 33.8774 29.052C33.7334 28.748 33.6614 28.392 33.6614 27.984V22.152L34.8734 21.492V27.984C34.8734 28.176 34.9014 28.352 34.9574 28.512C35.0134 28.672 35.1214 28.796 35.2814 28.884C35.4494 28.972 35.6934 29.016 36.0134 29.016H37.9934V30H35.5694ZM32.1014 24.384V23.4H36.9374V24.384H32.1014ZM40.7581 23.4V27.564C40.7581 28.028 40.8901 28.404 41.1541 28.692C41.4181 28.972 41.7621 29.112 42.1861 29.112C42.6741 29.112 43.1061 28.936 43.4821 28.584C43.8661 28.224 44.1701 27.668 44.3941 26.916L44.5861 28.272C44.3381 28.896 43.9781 29.364 43.5061 29.676C43.0421 29.988 42.5341 30.144 41.9821 30.144C41.4861 30.144 41.0541 30.04 40.6861 29.832C40.3261 29.616 40.0461 29.32 39.8461 28.944C39.6461 28.568 39.5461 28.124 39.5461 27.612V23.4H40.7581ZM45.4621 23.4V30H44.3101L44.2501 28.512V23.4H45.4621ZM50.5428 23.256C51.1348 23.256 51.6508 23.404 52.0908 23.7C52.5388 23.988 52.8908 24.392 53.1468 24.912C53.4028 25.432 53.5308 26.028 53.5308 26.7C53.5308 27.364 53.4028 27.956 53.1468 28.476C52.8908 28.996 52.5388 29.404 52.0908 29.7C51.6508 29.996 51.1348 30.144 50.5428 30.144C50.0948 30.144 49.6828 30.052 49.3068 29.868C48.9388 29.684 48.6348 29.432 48.3948 29.112V32.136H47.1828V23.4H48.3348L48.3708 24.3C48.6108 23.98 48.9188 23.728 49.2948 23.544C49.6708 23.352 50.0868 23.256 50.5428 23.256ZM50.2788 29.124C50.6868 29.124 51.0428 29.02 51.3468 28.812C51.6508 28.604 51.8868 28.32 52.0548 27.96C52.2228 27.592 52.3068 27.172 52.3068 26.7C52.3068 26.22 52.2228 25.8 52.0548 25.44C51.8868 25.072 51.6508 24.788 51.3468 24.588C51.0428 24.38 50.6868 24.276 50.2788 24.276C49.8628 24.276 49.4828 24.396 49.1388 24.636C48.8028 24.868 48.5548 25.188 48.3948 25.596V27.78C48.5548 28.196 48.8028 28.524 49.1388 28.764C49.4828 29.004 49.8628 29.124 50.2788 29.124Z" fill="var(--colors-neutral-neutral-700)"/>
<path d="M80.104 30V21.624H81.844V28.56H86.008V30H80.104ZM92.1447 30L92.0847 28.704V25.572C92.0847 25.204 91.9567 24.916 91.7007 24.708C91.4447 24.5 91.0927 24.396 90.6447 24.396C90.2047 24.396 89.8487 24.492 89.5767 24.684C89.3047 24.868 89.1487 25.128 89.1087 25.464H87.5127C87.5527 24.992 87.7087 24.588 87.9807 24.252C88.2607 23.916 88.6327 23.66 89.0967 23.484C89.5607 23.3 90.0967 23.208 90.7047 23.208C91.3207 23.208 91.8527 23.304 92.3007 23.496C92.7567 23.688 93.1087 23.968 93.3567 24.336C93.6047 24.696 93.7287 25.14 93.7287 25.668V30H92.1447ZM89.9247 30.144C89.4847 30.144 89.0967 30.06 88.7607 29.892C88.4327 29.724 88.1767 29.492 87.9927 29.196C87.8087 28.9 87.7167 28.556 87.7167 28.164C87.7167 27.484 87.9807 26.956 88.5087 26.58C89.0367 26.196 89.7727 26.004 90.7167 26.004H92.2647V27.168H90.6687C90.2527 27.168 89.9247 27.244 89.6847 27.396C89.4447 27.548 89.3247 27.772 89.3247 28.068C89.3247 28.284 89.4127 28.468 89.5887 28.62C89.7647 28.764 90.0047 28.836 90.3087 28.836C90.7167 28.836 91.0807 28.728 91.4007 28.512C91.7207 28.296 91.9847 28.004 92.1927 27.636L92.3727 28.776C92.1647 29.232 91.8527 29.576 91.4367 29.808C91.0207 30.032 90.5167 30.144 89.9247 30.144ZM97.8974 25.98L98.5094 27.672L99.1214 25.98L100.225 23.352H101.917L98.9294 30.42C98.7374 30.884 98.5174 31.248 98.2694 31.512C98.0294 31.784 97.7534 31.98 97.4414 32.1C97.1374 32.22 96.7854 32.28 96.3854 32.28H95.1734V30.948H96.2294C96.4454 30.948 96.6294 30.896 96.7814 30.792C96.9334 30.696 97.0694 30.56 97.1894 30.384C97.3094 30.208 97.4214 30 97.5254 29.76L97.6574 29.436L95.1014 23.352H96.8054L97.8974 25.98ZM106.314 30.144C105.61 30.144 105.002 30.004 104.49 29.724C103.986 29.444 103.598 29.048 103.326 28.536C103.062 28.016 102.93 27.396 102.93 26.676C102.93 25.956 103.062 25.34 103.326 24.828C103.598 24.308 103.986 23.908 104.49 23.628C105.002 23.348 105.61 23.208 106.314 23.208C107.37 23.208 108.194 23.516 108.786 24.132C109.386 24.748 109.686 25.596 109.686 26.676C109.686 27.396 109.55 28.016 109.278 28.536C109.014 29.048 108.63 29.444 108.126 29.724C107.622 30.004 107.018 30.144 106.314 30.144ZM106.314 28.8C106.85 28.8 107.27 28.612 107.574 28.236C107.886 27.852 108.042 27.332 108.042 26.676C108.042 26.012 107.886 25.492 107.574 25.116C107.27 24.74 106.85 24.552 106.314 24.552C105.77 24.552 105.342 24.74 105.03 25.116C104.726 25.492 104.574 26.012 104.574 26.676C104.574 27.332 104.726 27.852 105.03 28.236C105.342 28.612 105.77 28.8 106.314 28.8ZM112.559 23.352V27.48C112.559 27.864 112.659 28.176 112.859 28.416C113.067 28.648 113.339 28.764 113.675 28.764C114.059 28.764 114.407 28.632 114.719 28.368C115.031 28.096 115.323 27.656 115.595 27.048L115.835 28.56C115.547 29.112 115.183 29.516 114.743 29.772C114.303 30.02 113.839 30.144 113.351 30.144C112.847 30.144 112.411 30.036 112.043 29.82C111.683 29.604 111.403 29.308 111.203 28.932C111.003 28.548 110.903 28.096 110.903 27.576V23.352H112.559ZM117.095 23.352V30H115.511L115.451 28.716V23.352H117.095ZM122.463 30C122.031 30 121.651 29.904 121.323 29.712C121.003 29.52 120.755 29.252 120.579 28.908C120.411 28.564 120.327 28.172 120.327 27.732V22.188L121.983 21.408V27.732C121.983 27.932 122.011 28.104 122.067 28.248C122.123 28.384 122.235 28.488 122.403 28.56C122.571 28.632 122.803 28.668 123.099 28.668H124.887V30H122.463ZM118.935 24.684V23.352H123.747V24.684H118.935Z" fill="var(--colors-neutral-neutral-800)"/>
<path d="M154.02 30.144C153.372 30.144 152.808 30.02 152.328 29.772C151.848 29.524 151.476 29.168 151.212 28.704C150.948 28.24 150.816 27.676 150.816 27.012H152.076C152.076 27.668 152.248 28.176 152.592 28.536C152.936 28.888 153.408 29.064 154.008 29.064C154.52 29.064 154.932 28.948 155.244 28.716C155.556 28.476 155.712 28.144 155.712 27.72C155.712 27.432 155.624 27.2 155.448 27.024C155.28 26.848 155.052 26.704 154.764 26.592C154.484 26.48 154.176 26.38 153.84 26.292C153.504 26.204 153.164 26.108 152.82 26.004C152.484 25.892 152.172 25.752 151.884 25.584C151.604 25.416 151.376 25.192 151.2 24.912C151.032 24.632 150.948 24.276 150.948 23.844C150.948 23.388 151.068 22.984 151.308 22.632C151.556 22.272 151.896 21.992 152.328 21.792C152.768 21.584 153.284 21.48 153.876 21.48C154.452 21.48 154.968 21.588 155.424 21.804C155.88 22.012 156.244 22.312 156.516 22.704C156.796 23.088 156.94 23.552 156.948 24.096H155.676C155.668 23.776 155.58 23.504 155.412 23.28C155.252 23.048 155.036 22.872 154.764 22.752C154.5 22.624 154.204 22.56 153.876 22.56C153.404 22.56 153.02 22.672 152.724 22.896C152.428 23.12 152.28 23.424 152.28 23.808C152.28 24.08 152.364 24.296 152.532 24.456C152.708 24.616 152.936 24.748 153.216 24.852C153.504 24.948 153.816 25.04 154.152 25.128C154.496 25.208 154.836 25.304 155.172 25.416C155.508 25.52 155.816 25.664 156.096 25.848C156.384 26.024 156.612 26.264 156.78 26.568C156.956 26.864 157.044 27.244 157.044 27.708C157.044 28.204 156.912 28.636 156.648 29.004C156.384 29.364 156.024 29.644 155.568 29.844C155.112 30.044 154.596 30.144 154.02 30.144ZM160.925 30V23.4H162.137V30H160.925ZM158.489 30V29.016H164.405V30H158.489ZM159.365 24.384V23.4H161.525V24.384H159.365ZM160.841 22.272V20.964H162.197V22.272H160.841ZM171.213 30V25.176C171.213 24.888 171.161 24.664 171.057 24.504C170.961 24.344 170.809 24.264 170.601 24.264C170.313 24.264 170.053 24.448 169.821 24.816C169.597 25.184 169.441 25.764 169.353 26.556L169.245 25.536C169.269 24.816 169.437 24.256 169.749 23.856C170.069 23.456 170.461 23.256 170.925 23.256C171.357 23.256 171.697 23.416 171.945 23.736C172.201 24.048 172.329 24.496 172.329 25.08V30H171.213ZM165.729 30V23.4H166.797L166.845 24.684V30H165.729ZM168.477 30V25.176C168.477 24.872 168.421 24.644 168.309 24.492C168.205 24.34 168.045 24.264 167.829 24.264C167.525 24.264 167.265 24.456 167.049 24.84C166.833 25.224 166.681 25.796 166.593 26.556L166.569 25.5C166.585 25.028 166.669 24.624 166.821 24.288C166.973 23.952 167.169 23.696 167.409 23.52C167.649 23.344 167.905 23.256 168.177 23.256C168.625 23.256 168.969 23.42 169.209 23.748C169.457 24.068 169.581 24.508 169.581 25.068V30H168.477ZM174.758 23.4V27.564C174.758 28.028 174.89 28.404 175.154 28.692C175.418 28.972 175.762 29.112 176.186 29.112C176.674 29.112 177.106 28.936 177.482 28.584C177.866 28.224 178.17 27.668 178.394 26.916L178.586 28.272C178.338 28.896 177.978 29.364 177.506 29.676C177.042 29.988 176.534 30.144 175.982 30.144C175.486 30.144 175.054 30.04 174.686 29.832C174.326 29.616 174.046 29.32 173.846 28.944C173.646 28.568 173.546 28.124 173.546 27.612V23.4H174.758ZM179.462 23.4V30H178.31L178.25 28.512V23.4H179.462ZM183.559 30V21.18H184.771V30H183.559ZM181.123 30V29.016H187.219V30H181.123ZM181.999 22.164V21.18H184.159V22.164H181.999ZM193.451 30L193.403 28.5V25.68C193.403 25.208 193.247 24.84 192.935 24.576C192.631 24.304 192.211 24.168 191.675 24.168C191.155 24.168 190.731 24.288 190.403 24.528C190.075 24.76 189.895 25.084 189.863 25.5H188.675C188.715 25.028 188.867 24.628 189.131 24.3C189.395 23.964 189.747 23.708 190.187 23.532C190.627 23.348 191.135 23.256 191.711 23.256C192.303 23.256 192.815 23.356 193.247 23.556C193.679 23.748 194.011 24.028 194.243 24.396C194.483 24.764 194.603 25.212 194.603 25.74V30H193.451ZM191.063 30.144C190.631 30.144 190.251 30.068 189.923 29.916C189.595 29.756 189.339 29.532 189.155 29.244C188.971 28.948 188.879 28.604 188.879 28.212C188.879 27.532 189.139 27.004 189.659 26.628C190.187 26.252 190.923 26.064 191.867 26.064H193.559V26.964H191.819C191.275 26.964 190.847 27.068 190.535 27.276C190.231 27.484 190.079 27.776 190.079 28.152C190.079 28.464 190.187 28.708 190.403 28.884C190.627 29.06 190.927 29.148 191.303 29.148C191.783 29.148 192.207 29.02 192.575 28.764C192.951 28.5 193.255 28.14 193.487 27.684L193.619 28.572C193.411 29.076 193.091 29.464 192.659 29.736C192.227 30.008 191.695 30.144 191.063 30.144ZM199.828 30C199.42 30 199.072 29.92 198.784 29.76C198.496 29.592 198.28 29.356 198.136 29.052C197.992 28.748 197.92 28.392 197.92 27.984V22.152L199.132 21.492V27.984C199.132 28.176 199.16 28.352 199.216 28.512C199.272 28.672 199.38 28.796 199.54 28.884C199.708 28.972 199.952 29.016 200.272 29.016H202.252V30H199.828ZM196.36 24.384V23.4H201.196V24.384H196.36ZM206.313 30V23.4H207.525V30H206.313ZM203.877 30V29.016H209.793V30H203.877ZM204.753 24.384V23.4H206.913V24.384H204.753ZM206.229 22.272V20.964H207.585V22.272H206.229ZM214.406 30.144C213.726 30.144 213.138 30.004 212.642 29.724C212.154 29.444 211.778 29.048 211.514 28.536C211.25 28.016 211.118 27.404 211.118 26.7C211.118 25.98 211.25 25.368 211.514 24.864C211.778 24.352 212.154 23.956 212.642 23.676C213.138 23.396 213.73 23.256 214.418 23.256C215.442 23.256 216.246 23.564 216.83 24.18C217.414 24.788 217.706 25.628 217.706 26.7C217.706 27.404 217.574 28.016 217.31 28.536C217.046 29.048 216.666 29.444 216.17 29.724C215.682 30.004 215.094 30.144 214.406 30.144ZM214.418 29.136C215.058 29.136 215.562 28.92 215.93 28.488C216.306 28.048 216.494 27.452 216.494 26.7C216.494 25.94 216.306 25.344 215.93 24.912C215.562 24.48 215.058 24.264 214.418 24.264C213.77 24.264 213.262 24.48 212.894 24.912C212.526 25.344 212.342 25.94 212.342 26.7C212.342 27.452 212.526 28.048 212.894 28.488C213.262 28.92 213.77 29.136 214.418 29.136ZM223.758 30V25.836C223.758 25.372 223.626 25 223.362 24.72C223.098 24.432 222.754 24.288 222.33 24.288C221.842 24.288 221.406 24.468 221.022 24.828C220.646 25.18 220.346 25.732 220.122 26.484L219.93 25.128C220.178 24.504 220.534 24.036 220.998 23.724C221.47 23.412 221.982 23.256 222.534 23.256C223.03 23.256 223.458 23.364 223.818 23.58C224.186 23.788 224.47 24.08 224.67 24.456C224.87 24.832 224.97 25.276 224.97 25.788V30H223.758ZM219.054 30V23.4H220.206L220.266 24.888V30H219.054Z" fill="var(--colors-neutral-neutral-700)"/>
<path d="M304 210V209.5H0V210V210.5H304V210Z" fill="var(--colors-neutral-neutral-400)"/>
<path d="M20.02 80.144C19.276 80.144 18.632 79.964 18.088 79.604C17.552 79.236 17.136 78.724 16.84 78.068C16.544 77.412 16.396 76.66 16.396 75.812C16.396 74.932 16.548 74.168 16.852 73.52C17.156 72.872 17.584 72.372 18.136 72.02C18.688 71.66 19.336 71.48 20.08 71.48C20.672 71.48 21.208 71.596 21.688 71.828C22.176 72.06 22.572 72.392 22.876 72.824C23.188 73.248 23.364 73.764 23.404 74.372H21.76C21.704 73.876 21.528 73.48 21.232 73.184C20.936 72.888 20.548 72.74 20.068 72.74C19.66 72.74 19.296 72.864 18.976 73.112C18.656 73.352 18.408 73.704 18.232 74.168C18.056 74.624 17.968 75.172 17.968 75.812C17.968 76.46 18.056 77.012 18.232 77.468C18.416 77.924 18.66 78.276 18.964 78.524C19.276 78.764 19.628 78.884 20.02 78.884C20.356 78.884 20.648 78.816 20.896 78.68C21.152 78.536 21.36 78.336 21.52 78.08C21.68 77.824 21.772 77.524 21.796 77.18H23.452C23.396 77.78 23.22 78.304 22.924 78.752C22.636 79.192 22.244 79.536 21.748 79.784C21.26 80.024 20.684 80.144 20.02 80.144ZM29.3247 80V75.872C29.3247 75.44 29.2047 75.096 28.9647 74.84C28.7327 74.576 28.4287 74.444 28.0527 74.444C27.6207 74.444 27.2287 74.6 26.8767 74.912C26.5327 75.216 26.2367 75.708 25.9887 76.388L25.7727 74.972C26.0367 74.38 26.3967 73.944 26.8527 73.664C27.3087 73.376 27.7967 73.232 28.3167 73.232C28.8207 73.232 29.2527 73.34 29.6127 73.556C29.9807 73.764 30.2607 74.06 30.4527 74.444C30.6527 74.828 30.7527 75.276 30.7527 75.788V80H29.3247ZM24.7047 80V71.144H26.1327V80H24.7047ZM37.0934 80L37.0334 78.596V75.62C37.0334 75.204 36.8934 74.876 36.6134 74.636C36.3334 74.396 35.9454 74.276 35.4494 74.276C34.9774 74.276 34.5894 74.384 34.2854 74.6C33.9894 74.816 33.8214 75.112 33.7814 75.488H32.3894C32.4294 75.016 32.5814 74.612 32.8454 74.276C33.1174 73.94 33.4774 73.684 33.9254 73.508C34.3814 73.324 34.9054 73.232 35.4974 73.232C36.1054 73.232 36.6294 73.328 37.0694 73.52C37.5174 73.712 37.8614 73.992 38.1014 74.36C38.3414 74.728 38.4614 75.176 38.4614 75.704V80H37.0934ZM34.7894 80.144C34.3574 80.144 33.9734 80.064 33.6374 79.904C33.3094 79.744 33.0534 79.516 32.8694 79.22C32.6854 78.924 32.5934 78.58 32.5934 78.188C32.5934 77.508 32.8574 76.98 33.3854 76.604C33.9134 76.22 34.6454 76.028 35.5814 76.028H37.2014V77.06L35.5334 77.072C35.0534 77.072 34.6774 77.164 34.4054 77.348C34.1334 77.524 33.9974 77.78 33.9974 78.116C33.9974 78.38 34.0934 78.592 34.2854 78.752C34.4854 78.912 34.7574 78.992 35.1014 78.992C35.5414 78.992 35.9334 78.876 36.2774 78.644C36.6294 78.404 36.9134 78.076 37.1294 77.66L37.2854 78.668C37.0774 79.156 36.7614 79.524 36.3374 79.772C35.9134 80.02 35.3974 80.144 34.7894 80.144ZM44.9941 76.376V75.548C44.9941 75.22 44.8941 74.956 44.6941 74.756C44.5021 74.548 44.2221 74.444 43.8541 74.444C43.4061 74.444 42.9981 74.608 42.6301 74.936C42.2621 75.264 41.9541 75.78 41.7061 76.484L41.5261 75.14C41.7101 74.724 41.9261 74.376 42.1741 74.096C42.4301 73.808 42.7181 73.592 43.0381 73.448C43.3661 73.304 43.7221 73.232 44.1061 73.232C44.7861 73.232 45.3421 73.432 45.7741 73.832C46.2061 74.232 46.4221 74.804 46.4221 75.548V76.376H44.9941ZM40.5301 80V73.376H41.8861L41.9581 74.78V80H40.5301ZM52.8228 74.24L52.8588 73.376H54.2268V79.22C54.2268 80.22 53.9588 80.98 53.4228 81.5C52.8868 82.02 52.0708 82.28 50.9748 82.28C50.3748 82.28 49.8548 82.2 49.4148 82.04C48.9748 81.888 48.6308 81.652 48.3828 81.332C48.1428 81.02 48.0068 80.624 47.9748 80.144H49.4748C49.5148 80.464 49.6628 80.704 49.9188 80.864C50.1748 81.024 50.5508 81.104 51.0468 81.104C51.6308 81.104 52.0668 80.952 52.3548 80.648C52.6508 80.352 52.7988 79.932 52.7988 79.388V78.668C52.5748 78.98 52.2828 79.224 51.9228 79.4C51.5708 79.576 51.1788 79.664 50.7467 79.664C50.1868 79.664 49.6868 79.524 49.2468 79.244C48.8148 78.964 48.4748 78.584 48.2268 78.104C47.9788 77.616 47.8548 77.068 47.8548 76.46C47.8548 75.796 47.9828 75.224 48.2388 74.744C48.5028 74.256 48.8588 73.884 49.3068 73.628C49.7548 73.372 50.2628 73.244 50.8308 73.244C51.2548 73.244 51.6388 73.336 51.9828 73.52C52.3348 73.704 52.6148 73.944 52.8228 74.24ZM51.0828 78.56C51.4828 78.56 51.8348 78.44 52.1388 78.2C52.4508 77.952 52.6708 77.628 52.7988 77.228V75.668C52.6708 75.26 52.4508 74.94 52.1388 74.708C51.8348 74.468 51.4828 74.348 51.0828 74.348C50.7308 74.348 50.4188 74.44 50.1468 74.624C49.8748 74.808 49.6628 75.056 49.5108 75.368C49.3588 75.68 49.2828 76.036 49.2828 76.436C49.2828 76.844 49.3588 77.208 49.5108 77.528C49.6628 77.84 49.8748 78.092 50.1468 78.284C50.4188 78.468 50.7308 78.56 51.0828 78.56ZM58.2514 80V73.376H59.6794V80H58.2514ZM55.9114 80V78.836H61.9234V80H55.9114ZM56.7634 74.54V73.376H58.9594V74.54H56.7634ZM58.1674 72.332V70.868H59.7274V72.332H58.1674ZM68.3481 80V75.86C68.3481 75.428 68.2281 75.084 67.9881 74.828C67.7561 74.572 67.4521 74.444 67.0761 74.444C66.6441 74.444 66.2521 74.6 65.9001 74.912C65.5561 75.216 65.2601 75.708 65.0121 76.388L64.7961 74.96C65.0601 74.376 65.4201 73.944 65.8761 73.664C66.3321 73.376 66.8201 73.232 67.3401 73.232C67.8441 73.232 68.2761 73.34 68.6361 73.556C69.0041 73.764 69.2841 74.06 69.4761 74.444C69.6761 74.82 69.7761 75.264 69.7761 75.776V80H68.3481ZM63.7281 80V73.376H65.0961L65.1561 74.768V80H63.7281ZM76.2368 74.24L76.2728 73.376H77.6408V79.22C77.6408 80.22 77.3728 80.98 76.8368 81.5C76.3008 82.02 75.4848 82.28 74.3888 82.28C73.7888 82.28 73.2688 82.2 72.8288 82.04C72.3888 81.888 72.0448 81.652 71.7968 81.332C71.5568 81.02 71.4208 80.624 71.3888 80.144H72.8888C72.9288 80.464 73.0768 80.704 73.3328 80.864C73.5888 81.024 73.9648 81.104 74.4608 81.104C75.0448 81.104 75.4808 80.952 75.7688 80.648C76.0648 80.352 76.2128 79.932 76.2128 79.388V78.668C75.9888 78.98 75.6968 79.224 75.3368 79.4C74.9848 79.576 74.5928 79.664 74.1608 79.664C73.6008 79.664 73.1008 79.524 72.6608 79.244C72.2288 78.964 71.8888 78.584 71.6408 78.104C71.3928 77.616 71.2688 77.068 71.2688 76.46C71.2688 75.796 71.3968 75.224 71.6528 74.744C71.9168 74.256 72.2728 73.884 72.7208 73.628C73.1688 73.372 73.6768 73.244 74.2448 73.244C74.6688 73.244 75.0528 73.336 75.3968 73.52C75.7488 73.704 76.0288 73.944 76.2368 74.24ZM74.4968 78.56C74.8968 78.56 75.2488 78.44 75.5528 78.2C75.8648 77.952 76.0848 77.628 76.2128 77.228V75.668C76.0848 75.26 75.8648 74.94 75.5528 74.708C75.2488 74.468 74.8968 74.348 74.4968 74.348C74.1448 74.348 73.8328 74.44 73.5608 74.624C73.2888 74.808 73.0768 75.056 72.9248 75.368C72.7728 75.68 72.6968 76.036 72.6968 76.436C72.6968 76.844 72.7728 77.208 72.9248 77.528C73.0768 77.84 73.2888 78.092 73.5608 78.284C73.8328 78.468 74.1448 78.56 74.4968 78.56ZM89.8782 80V75.104L89.9622 73.376L88.5822 74.492L87.1062 75.668V73.928L90.2862 71.624H91.3902V80H89.8782ZM87.1062 80V78.74H93.2742V80H87.1062Z" fill="var(--colors-neutral-neutral-800)"/>
<path fill-rule="evenodd" clip-rule="evenodd" d="M242.175 68.175C242.394 67.9562 242.691 67.8333 243 67.8333H255C255.31 67.8333 255.606 67.9562 255.825 68.175C256.044 68.3938 256.167 68.6905 256.167 68.9999V80.9999C256.167 81.3093 256.044 81.6061 255.825 81.8249C255.606 82.0437 255.31 82.1666 255 82.1666H253.5V82.9999C253.5 83.3093 253.377 83.6061 253.158 83.8249C252.94 84.0437 252.643 84.1666 252.333 84.1666H241C240.691 84.1666 240.394 84.0437 240.175 83.8249C239.956 83.6061 239.833 83.3093 239.833 82.9999V71.6666C239.833 71.3572 239.956 71.0604 240.175 70.8416C240.394 70.6228 240.691 70.4999 241 70.4999H241.833V68.9999C241.833 68.6905 241.956 68.3938 242.175 68.175ZM241.833 71.4999H241C240.956 71.4999 240.914 71.5175 240.882 71.5487C240.851 71.58 240.833 71.6224 240.833 71.6666V82.9999C240.833 83.0441 240.851 83.0865 240.882 83.1178C240.914 83.149 240.956 83.1666 241 83.1666H252.333C252.378 83.1666 252.42 83.149 252.451 83.1178C252.483 83.0865 252.5 83.0441 252.5 82.9999V82.1666H243C242.691 82.1666 242.394 82.0437 242.175 81.8249C241.956 81.6061 241.833 81.3093 241.833 80.9999V71.4999ZM243 81.1666C242.956 81.1666 242.914 81.149 242.882 81.1178C242.851 81.0865 242.833 81.0441 242.833 80.9999V68.9999C242.833 68.9557 242.851 68.9133 242.882 68.8821C242.914 68.8508 242.956 68.8333 243 68.8333H255C255.044 68.8333 255.087 68.8508 255.118 68.8821C255.149 68.9133 255.167 68.9557 255.167 68.9999V80.9999C255.167 81.0441 255.149 81.0865 255.118 81.1178C255.087 81.149 255.044 81.1666 255 81.1666H243Z" fill="var(--colors-neutral-neutral-800)"/>
<path fill-rule="evenodd" clip-rule="evenodd" d="M249 72C249.276 72 249.5 72.0001 249.5 72.0001V74.5L252 74.5C252 74.5 252 74.7239 252 75C252 75.2761 252 75.5 252 75.5H249.5L249.5 78C249.5 78 249.276 78 249 78C248.724 78 248.5 78 248.5 78L248.5 75.5H246C246 75.5 246 75.2761 246 75C246 74.7239 246 74.5 246 74.5L248.5 74.5V72.0001C248.5 72.0001 248.724 72 249 72Z" fill="var(--colors-neutral-neutral-800)"/>
<path fill-rule="evenodd" clip-rule="evenodd" d="M274.175 68.1751C274.394 67.9563 274.691 67.8334 275 67.8334H287C287.31 67.8334 287.606 67.9563 287.825 68.1751C288.044 68.3939 288.167 68.6906 288.167 69V81C288.167 81.3095 288.044 81.6062 287.825 81.825C287.606 82.0438 287.31 82.1667 287 82.1667H285.5V83C285.5 83.3095 285.377 83.6062 285.158 83.825C284.94 84.0438 284.643 84.1667 284.333 84.1667H273C272.691 84.1667 272.394 84.0438 272.175 83.825C271.956 83.6062 271.833 83.3095 271.833 83V71.6667C271.833 71.3573 271.956 71.0605 272.175 70.8417C272.394 70.623 272.691 70.5 273 70.5H273.833V69C273.833 68.6906 273.956 68.3939 274.175 68.1751ZM273.833 71.5H273C272.956 71.5 272.914 71.5176 272.882 71.5489C272.851 71.5801 272.833 71.6225 272.833 71.6667V83C272.833 83.0442 272.851 83.0866 272.882 83.1179C272.914 83.1491 272.956 83.1667 273 83.1667H284.333C284.378 83.1667 284.42 83.1491 284.451 83.1179C284.483 83.0866 284.5 83.0442 284.5 83V82.1667H275C274.691 82.1667 274.394 82.0438 274.175 81.825C273.956 81.6062 273.833 81.3095 273.833 81V71.5ZM275 81.1667C274.956 81.1667 274.914 81.1491 274.882 81.1179C274.851 81.0866 274.833 81.0442 274.833 81V69C274.833 68.9558 274.851 68.9134 274.882 68.8822C274.914 68.8509 274.956 68.8334 275 68.8334H287C287.044 68.8334 287.087 68.8509 287.118 68.8822C287.149 68.9134 287.167 68.9558 287.167 69V81C287.167 81.0442 287.149 81.0866 287.118 81.1179C287.087 81.1491 287.044 81.1667 287 81.1667H275Z" fill="var(--colors-neutral-neutral-800)"/>
<rect width="272" height="94" transform="translate(16 100)" fill="var(--colors-neutral-neutral-200)"/>
<path d="M36.044 129.144C35.308 129.144 34.668 128.96 34.124 128.592C33.588 128.216 33.172 127.704 32.876 127.056C32.588 126.4 32.444 125.648 32.444 124.8C32.444 123.92 32.596 123.156 32.9 122.508C33.204 121.86 33.628 121.36 34.172 121.008C34.724 120.656 35.364 120.48 36.092 120.48C36.676 120.48 37.204 120.596 37.676 120.828C38.156 121.052 38.544 121.38 38.84 121.812C39.144 122.236 39.32 122.744 39.368 123.336H37.976C37.912 122.8 37.712 122.372 37.376 122.052C37.04 121.724 36.608 121.56 36.08 121.56C35.624 121.56 35.22 121.692 34.868 121.956C34.524 122.212 34.256 122.584 34.064 123.072C33.872 123.56 33.776 124.14 33.776 124.812C33.776 125.484 33.872 126.064 34.064 126.552C34.264 127.04 34.536 127.416 34.88 127.68C35.224 127.936 35.612 128.064 36.044 128.064C36.42 128.064 36.748 127.988 37.028 127.836C37.308 127.676 37.532 127.456 37.7 127.176C37.876 126.896 37.98 126.568 38.012 126.192H39.416C39.36 126.784 39.188 127.304 38.9 127.752C38.612 128.192 38.224 128.536 37.736 128.784C37.256 129.024 36.692 129.144 36.044 129.144ZM40.3927 129V120.624H42.9727C43.5807 120.624 44.1287 120.724 44.6167 120.924C45.1047 121.116 45.5207 121.396 45.8647 121.764C46.2087 122.124 46.4727 122.56 46.6567 123.072C46.8407 123.584 46.9327 124.156 46.9327 124.788C46.9327 125.428 46.8407 126.008 46.6567 126.528C46.4727 127.04 46.2087 127.484 45.8647 127.86C45.5207 128.228 45.1047 128.512 44.6167 128.712C44.1287 128.904 43.5807 129 42.9727 129H40.3927ZM41.6647 127.92H42.9727C43.5167 127.92 43.9847 127.792 44.3767 127.536C44.7687 127.272 45.0687 126.904 45.2767 126.432C45.4927 125.96 45.6007 125.412 45.6007 124.788C45.6007 124.156 45.4927 123.612 45.2767 123.156C45.0687 122.692 44.7687 122.336 44.3767 122.088C43.9847 121.832 43.5167 121.704 42.9727 121.704H41.6647V127.92ZM50.3934 129V120.624H51.6654V129H50.3934ZM48.2934 120.624H53.7534V121.704H48.2934V120.624ZM48.2934 127.92H53.7534V129H48.2934V127.92Z" fill="var(--colors-neutral-neutral-800)"/>
<path d="M35.37 154.12C34.7567 154.12 34.2233 153.967 33.77 153.66C33.3233 153.347 32.9767 152.92 32.73 152.38C32.49 151.833 32.37 151.207 32.37 150.5C32.37 149.767 32.4967 149.13 32.75 148.59C33.0033 148.05 33.3567 147.633 33.81 147.34C34.27 147.047 34.8033 146.9 35.41 146.9C35.8967 146.9 36.3367 146.997 36.73 147.19C37.13 147.377 37.4533 147.65 37.7 148.01C37.9533 148.363 38.1 148.787 38.14 149.28H36.98C36.9267 148.833 36.76 148.477 36.48 148.21C36.2 147.937 35.84 147.8 35.4 147.8C35.02 147.8 34.6833 147.91 34.39 148.13C34.1033 148.343 33.88 148.653 33.72 149.06C33.56 149.467 33.48 149.95 33.48 150.51C33.48 151.07 33.56 151.553 33.72 151.96C33.8867 152.367 34.1133 152.68 34.4 152.9C34.6867 153.113 35.01 153.22 35.37 153.22C35.6833 153.22 35.9567 153.157 36.19 153.03C36.4233 152.897 36.61 152.713 36.75 152.48C36.8967 152.247 36.9833 151.973 37.01 151.66H38.18C38.1333 152.153 37.99 152.587 37.75 152.96C37.51 153.327 37.1867 153.613 36.78 153.82C36.38 154.02 35.91 154.12 35.37 154.12ZM42.6339 154V150.54C42.6339 150.147 42.5239 149.833 42.3039 149.6C42.0839 149.36 41.7972 149.24 41.4439 149.24C41.0372 149.24 40.6739 149.39 40.3539 149.69C40.0406 149.983 39.7906 150.443 39.6039 151.07L39.4439 149.95C39.6506 149.423 39.9472 149.03 40.3339 148.77C40.7272 148.51 41.1539 148.38 41.6139 148.38C42.0272 148.38 42.3839 148.47 42.6839 148.65C42.9906 148.823 43.2272 149.07 43.3939 149.39C43.5606 149.703 43.6439 150.073 43.6439 150.5V154H42.6339ZM38.7139 154V146.64H39.7239V154H38.7139ZM48.4978 154L48.4578 152.75V150.4C48.4578 150.007 48.3278 149.7 48.0678 149.48C47.8145 149.253 47.4645 149.14 47.0178 149.14C46.5845 149.14 46.2311 149.24 45.9578 149.44C45.6845 149.633 45.5345 149.903 45.5078 150.25H44.5178C44.5511 149.857 44.6778 149.523 44.8978 149.25C45.1178 148.97 45.4111 148.757 45.7778 148.61C46.1445 148.457 46.5678 148.38 47.0478 148.38C47.5411 148.38 47.9678 148.463 48.3278 148.63C48.6878 148.79 48.9645 149.023 49.1578 149.33C49.3578 149.637 49.4578 150.01 49.4578 150.45V154H48.4978ZM46.5078 154.12C46.1478 154.12 45.8311 154.057 45.5578 153.93C45.2845 153.797 45.0711 153.61 44.9178 153.37C44.7645 153.123 44.6878 152.837 44.6878 152.51C44.6878 151.943 44.9045 151.503 45.3378 151.19C45.7778 150.877 46.3911 150.72 47.1778 150.72H48.5878V151.47H47.1378C46.6845 151.47 46.3278 151.557 46.0678 151.73C45.8145 151.903 45.6878 152.147 45.6878 152.46C45.6878 152.72 45.7778 152.923 45.9578 153.07C46.1445 153.217 46.3945 153.29 46.7078 153.29C47.1078 153.29 47.4611 153.183 47.7678 152.97C48.0811 152.75 48.3345 152.45 48.5278 152.07L48.6378 152.81C48.4645 153.23 48.1978 153.553 47.8378 153.78C47.4778 154.007 47.0345 154.12 46.5078 154.12ZM54.4617 150.86V150.2C54.4617 149.913 54.3751 149.683 54.2017 149.51C54.0284 149.33 53.7784 149.24 53.4517 149.24C53.0384 149.24 52.6684 149.397 52.3417 149.71C52.0151 150.017 51.7551 150.487 51.5617 151.12L51.4217 150.1C51.5684 149.72 51.7451 149.403 51.9517 149.15C52.1651 148.897 52.4084 148.707 52.6817 148.58C52.9617 148.447 53.2684 148.38 53.6017 148.38C54.1551 148.38 54.6051 148.54 54.9517 148.86C55.2984 149.173 55.4717 149.62 55.4717 150.2V150.86H54.4617ZM50.7417 154V148.5H51.6917L51.7517 149.75V154H50.7417ZM60.3956 149.29L60.4256 148.5H61.3756V153.4C61.3756 154.213 61.1556 154.833 60.7156 155.26C60.2823 155.687 59.6256 155.9 58.7456 155.9C58.259 155.9 57.8356 155.833 57.4756 155.7C57.1223 155.567 56.8423 155.367 56.6356 155.1C56.4356 154.84 56.3223 154.513 56.2956 154.12H57.3456C57.379 154.42 57.5123 154.65 57.7456 154.81C57.9856 154.977 58.3356 155.06 58.7956 155.06C59.3156 155.06 59.7056 154.927 59.9656 154.66C60.2323 154.393 60.3656 154.013 60.3656 153.52V152.79C60.179 153.07 59.929 153.29 59.6156 153.45C59.309 153.61 58.9656 153.69 58.5856 153.69C58.1123 153.69 57.6923 153.577 57.3256 153.35C56.9656 153.123 56.6823 152.81 56.4756 152.41C56.269 152.003 56.1656 151.547 56.1656 151.04C56.1656 150.493 56.2723 150.023 56.4856 149.63C56.699 149.23 56.9923 148.923 57.3656 148.71C57.739 148.49 58.1623 148.38 58.6356 148.38C59.0156 148.38 59.359 148.463 59.6656 148.63C59.9723 148.797 60.2156 149.017 60.3956 149.29ZM58.8056 152.9C59.1656 152.9 59.4856 152.797 59.7656 152.59C60.0523 152.377 60.2523 152.09 60.3656 151.73V150.34C60.2523 149.98 60.0523 149.697 59.7656 149.49C59.4856 149.277 59.1656 149.17 58.8056 149.17C58.479 149.17 58.1923 149.25 57.9456 149.41C57.7056 149.57 57.5156 149.79 57.3756 150.07C57.2423 150.343 57.1756 150.663 57.1756 151.03C57.1756 151.39 57.2423 151.713 57.3756 152C57.5156 152.28 57.7056 152.5 57.9456 152.66C58.1923 152.82 58.479 152.9 58.8056 152.9ZM64.8295 154.12C64.2629 154.12 63.7729 154.007 63.3595 153.78C62.9462 153.547 62.6295 153.217 62.4095 152.79C62.1895 152.357 62.0795 151.84 62.0795 151.24C62.0795 150.64 62.1895 150.127 62.4095 149.7C62.6362 149.273 62.9562 148.947 63.3695 148.72C63.7895 148.493 64.2895 148.38 64.8695 148.38C65.7562 148.38 66.4162 148.627 66.8495 149.12C67.2829 149.607 67.4729 150.277 67.4195 151.13H62.8795L62.8895 150.37L66.3895 150.38C66.3629 150.027 66.2095 149.743 65.9295 149.53C65.6495 149.317 65.2962 149.21 64.8695 149.21C64.2962 149.21 63.8562 149.39 63.5495 149.75C63.2429 150.11 63.0895 150.62 63.0895 151.28C63.0895 151.673 63.1562 152.023 63.2895 152.33C63.4295 152.63 63.6295 152.863 63.8895 153.03C64.1495 153.197 64.4629 153.28 64.8295 153.28C65.2629 153.28 65.6229 153.177 65.9095 152.97C66.2029 152.763 66.3829 152.483 66.4495 152.13H67.4595C67.3729 152.75 67.0962 153.237 66.6295 153.59C66.1629 153.943 65.5629 154.12 64.8295 154.12ZM77.0273 154C76.6873 154 76.3973 153.933 76.1573 153.8C75.9173 153.66 75.7373 153.463 75.6173 153.21C75.4973 152.957 75.4373 152.66 75.4373 152.32V147.46L76.4473 146.91V152.32C76.4473 152.48 76.4707 152.627 76.5173 152.76C76.564 152.893 76.654 152.997 76.7873 153.07C76.9273 153.143 77.1307 153.18 77.3973 153.18H79.0473V154H77.0273ZM74.1373 149.32V148.5H78.1673V149.32H74.1373ZM82.0313 154V148.5H83.0413V154H82.0313ZM80.0013 154V153.18H84.9313V154H80.0013ZM80.7313 149.32V148.5H82.5313V149.32H80.7313ZM81.9613 147.56V146.47H83.0913V147.56H81.9613ZM90.2052 154V149.98C90.2052 149.74 90.1618 149.553 90.0752 149.42C89.9952 149.287 89.8685 149.22 89.6952 149.22C89.4552 149.22 89.2385 149.373 89.0452 149.68C88.8585 149.987 88.7285 150.47 88.6552 151.13L88.5652 150.28C88.5852 149.68 88.7252 149.213 88.9852 148.88C89.2518 148.547 89.5785 148.38 89.9652 148.38C90.3252 148.38 90.6085 148.513 90.8152 148.78C91.0285 149.04 91.1352 149.413 91.1352 149.9V154H90.2052ZM85.6352 154V148.5H86.5252L86.5652 149.57V154H85.6352ZM87.9252 154V149.98C87.9252 149.727 87.8785 149.537 87.7852 149.41C87.6985 149.283 87.5652 149.22 87.3852 149.22C87.1318 149.22 86.9152 149.38 86.7352 149.7C86.5552 150.02 86.4285 150.497 86.3552 151.13L86.3352 150.25C86.3485 149.857 86.4185 149.52 86.5452 149.24C86.6718 148.96 86.8352 148.747 87.0352 148.6C87.2352 148.453 87.4485 148.38 87.6752 148.38C88.0485 148.38 88.3352 148.517 88.5352 148.79C88.7418 149.057 88.8452 149.423 88.8452 149.89V154H87.9252ZM94.3491 154.12C93.7824 154.12 93.2924 154.007 92.8791 153.78C92.4657 153.547 92.1491 153.217 91.9291 152.79C91.7091 152.357 91.5991 151.84 91.5991 151.24C91.5991 150.64 91.7091 150.127 91.9291 149.7C92.1557 149.273 92.4757 148.947 92.8891 148.72C93.3091 148.493 93.8091 148.38 94.3891 148.38C95.2757 148.38 95.9357 148.627 96.3691 149.12C96.8024 149.607 96.9924 150.277 96.9391 151.13H92.3991L92.4091 150.37L95.9091 150.38C95.8824 150.027 95.7291 149.743 95.4491 149.53C95.1691 149.317 94.8157 149.21 94.3891 149.21C93.8157 149.21 93.3757 149.39 93.0691 149.75C92.7624 150.11 92.6091 150.62 92.6091 151.28C92.6091 151.673 92.6757 152.023 92.8091 152.33C92.9491 152.63 93.1491 152.863 93.4091 153.03C93.6691 153.197 93.9824 153.28 94.3491 153.28C94.7824 153.28 95.1424 153.177 95.4291 152.97C95.7224 152.763 95.9024 152.483 95.9691 152.13H96.9791C96.8924 152.75 96.6157 153.237 96.1491 153.59C95.6824 153.943 95.0824 154.12 94.3491 154.12ZM106.017 154V149.69L106.067 148.27L104.937 149.19L103.687 150.19V148.94L106.307 147.02H107.077V154H106.017ZM103.687 154V153.1H108.627V154H103.687ZM112.001 154.12C111.434 154.12 110.951 153.973 110.551 153.68C110.151 153.38 109.844 152.96 109.631 152.42C109.417 151.873 109.311 151.237 109.311 150.51C109.311 149.77 109.417 149.13 109.631 148.59C109.844 148.05 110.151 147.633 110.551 147.34C110.951 147.047 111.434 146.9 112.001 146.9C112.574 146.9 113.057 147.047 113.451 147.34C113.851 147.633 114.157 148.05 114.371 148.59C114.584 149.123 114.691 149.763 114.691 150.51C114.691 151.243 114.584 151.88 114.371 152.42C114.157 152.96 113.851 153.38 113.451 153.68C113.057 153.973 112.574 154.12 112.001 154.12ZM112.001 153.22C112.527 153.22 112.924 152.983 113.191 152.51C113.457 152.03 113.591 151.363 113.591 150.51C113.591 149.643 113.457 148.977 113.191 148.51C112.924 148.037 112.527 147.8 112.001 147.8C111.481 147.8 111.087 148.037 110.821 148.51C110.554 148.977 110.421 149.643 110.421 150.51C110.421 151.363 110.554 152.03 110.821 152.51C111.087 152.983 111.481 153.22 112.001 153.22ZM115.265 154L119.685 147.02H120.545L116.135 154H115.265ZM119.405 154.12C119.118 154.12 118.865 154.053 118.645 153.92C118.425 153.78 118.251 153.587 118.125 153.34C118.005 153.093 117.945 152.803 117.945 152.47C117.945 152.137 118.005 151.85 118.125 151.61C118.251 151.363 118.425 151.173 118.645 151.04C118.865 150.9 119.118 150.83 119.405 150.83C119.705 150.83 119.965 150.9 120.185 151.04C120.405 151.173 120.575 151.363 120.695 151.61C120.821 151.85 120.885 152.137 120.885 152.47C120.885 152.803 120.821 153.093 120.695 153.34C120.575 153.587 120.405 153.78 120.185 153.92C119.965 154.053 119.705 154.12 119.405 154.12ZM119.415 153.44C119.621 153.44 119.788 153.353 119.915 153.18C120.048 153 120.115 152.763 120.115 152.47C120.115 152.183 120.048 151.953 119.915 151.78C119.788 151.6 119.621 151.51 119.415 151.51C119.208 151.51 119.038 151.6 118.905 151.78C118.778 151.953 118.715 152.183 118.715 152.47C118.715 152.763 118.778 153 118.905 153.18C119.038 153.353 119.208 153.44 119.415 153.44ZM116.395 150.17C116.101 150.17 115.845 150.103 115.625 149.97C115.405 149.83 115.235 149.637 115.115 149.39C114.995 149.143 114.935 148.853 114.935 148.52C114.935 148.187 114.995 147.9 115.115 147.66C115.235 147.413 115.405 147.223 115.625 147.09C115.845 146.95 116.101 146.88 116.395 146.88C116.695 146.88 116.955 146.95 117.175 147.09C117.395 147.223 117.565 147.413 117.685 147.66C117.805 147.9 117.865 148.187 117.865 148.52C117.865 148.853 117.805 149.143 117.685 149.39C117.565 149.637 117.395 149.83 117.175 149.97C116.955 150.103 116.695 150.17 116.395 150.17ZM116.395 149.49C116.608 149.49 116.778 149.403 116.905 149.23C117.038 149.05 117.105 148.813 117.105 148.52C117.105 148.233 117.038 148.003 116.905 147.83C116.778 147.65 116.608 147.56 116.395 147.56C116.188 147.56 116.021 147.65 115.895 147.83C115.768 148.003 115.705 148.233 115.705 148.52C115.705 148.813 115.768 149.05 115.895 149.23C116.021 149.403 116.188 149.49 116.395 149.49Z" fill="var(--colors-neutral-neutral-600)"/>
<path d="M35.86 174V172.33H32.4V171.58L35.48 167.02H36.94V171.43H38.12V172.33H36.94V174H35.86ZM33.52 171.43H35.86V169.33L35.88 167.89L35.1 169.11L33.52 171.43ZM47.2078 174.12C46.7211 174.12 46.2911 174.037 45.9178 173.87C45.5511 173.697 45.2678 173.457 45.0678 173.15C44.8678 172.837 44.7645 172.463 44.7578 172.03H45.7078C45.7078 172.437 45.8445 172.757 46.1178 172.99C46.3911 173.223 46.7511 173.34 47.1978 173.34C47.5778 173.34 47.8811 173.27 48.1078 173.13C48.3411 172.983 48.4578 172.787 48.4578 172.54C48.4578 172.347 48.3911 172.193 48.2578 172.08C48.1311 171.96 47.9611 171.867 47.7478 171.8C47.5345 171.733 47.2978 171.677 47.0378 171.63C46.7845 171.577 46.5278 171.517 46.2678 171.45C46.0145 171.377 45.7811 171.287 45.5678 171.18C45.3545 171.067 45.1811 170.917 45.0478 170.73C44.9145 170.543 44.8478 170.3 44.8478 170C44.8478 169.687 44.9378 169.41 45.1178 169.17C45.2978 168.923 45.5511 168.73 45.8778 168.59C46.2111 168.45 46.6045 168.38 47.0578 168.38C47.7445 168.38 48.2945 168.54 48.7078 168.86C49.1278 169.173 49.3545 169.607 49.3878 170.16H48.4378C48.4178 169.84 48.2845 169.593 48.0378 169.42C47.7978 169.24 47.4711 169.15 47.0578 169.15C46.6711 169.15 46.3745 169.227 46.1678 169.38C45.9678 169.533 45.8678 169.727 45.8678 169.96C45.8678 170.14 45.9345 170.283 46.0678 170.39C46.2011 170.49 46.3745 170.57 46.5878 170.63C46.8011 170.683 47.0345 170.733 47.2878 170.78C47.5478 170.82 47.8045 170.873 48.0578 170.94C48.3178 171.007 48.5545 171.1 48.7678 171.22C48.9811 171.333 49.1511 171.49 49.2778 171.69C49.4111 171.89 49.4778 172.15 49.4778 172.47C49.4778 172.983 49.2711 173.387 48.8578 173.68C48.4445 173.973 47.8945 174.12 47.2078 174.12ZM53.4117 174C53.0717 174 52.7817 173.933 52.5417 173.8C52.3017 173.66 52.1217 173.463 52.0017 173.21C51.8817 172.957 51.8217 172.66 51.8217 172.32V167.46L52.8317 166.91V172.32C52.8317 172.48 52.8551 172.627 52.9017 172.76C52.9484 172.893 53.0384 172.997 53.1717 173.07C53.3117 173.143 53.5151 173.18 53.7817 173.18H55.4317V174H53.4117ZM50.5217 169.32V168.5H54.5517V169.32H50.5217ZM60.3056 174L60.2656 172.75V170.4C60.2656 170.007 60.1356 169.7 59.8756 169.48C59.6223 169.253 59.2723 169.14 58.8256 169.14C58.3923 169.14 58.039 169.24 57.7656 169.44C57.4923 169.633 57.3423 169.903 57.3156 170.25H56.3256C56.359 169.857 56.4856 169.523 56.7056 169.25C56.9256 168.97 57.219 168.757 57.5856 168.61C57.9523 168.457 58.3756 168.38 58.8556 168.38C59.349 168.38 59.7756 168.463 60.1356 168.63C60.4956 168.79 60.7723 169.023 60.9656 169.33C61.1656 169.637 61.2656 170.01 61.2656 170.45V174H60.3056ZM58.3156 174.12C57.9556 174.12 57.639 174.057 57.3656 173.93C57.0923 173.797 56.879 173.61 56.7256 173.37C56.5723 173.123 56.4956 172.837 56.4956 172.51C56.4956 171.943 56.7123 171.503 57.1456 171.19C57.5856 170.877 58.199 170.72 58.9856 170.72H60.3956V171.47H58.9456C58.4923 171.47 58.1356 171.557 57.8756 171.73C57.6223 171.903 57.4956 172.147 57.4956 172.46C57.4956 172.72 57.5856 172.923 57.7656 173.07C57.9523 173.217 58.2023 173.29 58.5156 173.29C58.9156 173.29 59.269 173.183 59.5756 172.97C59.889 172.75 60.1423 172.45 60.3356 172.07L60.4456 172.81C60.2723 173.23 60.0056 173.553 59.6456 173.78C59.2856 174.007 58.8423 174.12 58.3156 174.12ZM65.2195 174C64.8795 174 64.5895 173.933 64.3495 173.8C64.1095 173.66 63.9295 173.463 63.8095 173.21C63.6895 172.957 63.6295 172.66 63.6295 172.32V167.46L64.6395 166.91V172.32C64.6395 172.48 64.6629 172.627 64.7095 172.76C64.7562 172.893 64.8462 172.997 64.9795 173.07C65.1195 173.143 65.3229 173.18 65.5895 173.18H67.2395V174H65.2195ZM62.3295 169.32V168.5H66.3595V169.32H62.3295ZM70.2234 174V168.5H71.2334V174H70.2234ZM68.1934 174V173.18H73.1234V174H68.1934ZM68.9234 169.32V168.5H70.7234V169.32H68.9234ZM70.1534 167.56V166.47H71.2834V167.56H70.1534ZM76.5673 174.12C76.0007 174.12 75.5107 174.003 75.0973 173.77C74.6907 173.537 74.3773 173.207 74.1573 172.78C73.9373 172.347 73.8273 171.837 73.8273 171.25C73.8273 170.65 73.9373 170.14 74.1573 169.72C74.3773 169.293 74.6907 168.963 75.0973 168.73C75.5107 168.497 76.004 168.38 76.5773 168.38C77.4307 168.38 78.1007 168.637 78.5873 169.15C79.074 169.657 79.3173 170.357 79.3173 171.25C79.3173 171.837 79.2073 172.347 78.9873 172.78C78.7673 173.207 78.4507 173.537 78.0373 173.77C77.6307 174.003 77.1407 174.12 76.5673 174.12ZM76.5773 173.28C77.1107 173.28 77.5307 173.1 77.8373 172.74C78.1507 172.373 78.3073 171.877 78.3073 171.25C78.3073 170.617 78.1507 170.12 77.8373 169.76C77.5307 169.4 77.1107 169.22 76.5773 169.22C76.0373 169.22 75.614 169.4 75.3073 169.76C75.0007 170.12 74.8473 170.617 74.8473 171.25C74.8473 171.877 75.0007 172.373 75.3073 172.74C75.614 173.1 76.0373 173.28 76.5773 173.28ZM83.9613 174V170.53C83.9613 170.143 83.8513 169.833 83.6313 169.6C83.4113 169.36 83.1246 169.24 82.7713 169.24C82.3646 169.24 82.0013 169.39 81.6813 169.69C81.3679 169.983 81.1179 170.443 80.9313 171.07L80.7713 169.94C80.9779 169.42 81.2746 169.03 81.6613 168.77C82.0546 168.51 82.4813 168.38 82.9413 168.38C83.3546 168.38 83.7113 168.47 84.0113 168.65C84.3179 168.823 84.5546 169.067 84.7213 169.38C84.8879 169.693 84.9713 170.063 84.9713 170.49V174H83.9613ZM80.0413 174V168.5H81.0013L81.0513 169.74V174H80.0413ZM88.5352 174.12C88.0485 174.12 87.6185 174.037 87.2452 173.87C86.8785 173.697 86.5952 173.457 86.3952 173.15C86.1952 172.837 86.0918 172.463 86.0852 172.03H87.0352C87.0352 172.437 87.1718 172.757 87.4452 172.99C87.7185 173.223 88.0785 173.34 88.5252 173.34C88.9052 173.34 89.2085 173.27 89.4352 173.13C89.6685 172.983 89.7852 172.787 89.7852 172.54C89.7852 172.347 89.7185 172.193 89.5852 172.08C89.4585 171.96 89.2885 171.867 89.0752 171.8C88.8618 171.733 88.6252 171.677 88.3652 171.63C88.1118 171.577 87.8552 171.517 87.5952 171.45C87.3418 171.377 87.1085 171.287 86.8952 171.18C86.6818 171.067 86.5085 170.917 86.3752 170.73C86.2418 170.543 86.1752 170.3 86.1752 170C86.1752 169.687 86.2652 169.41 86.4452 169.17C86.6252 168.923 86.8785 168.73 87.2052 168.59C87.5385 168.45 87.9318 168.38 88.3852 168.38C89.0718 168.38 89.6218 168.54 90.0352 168.86C90.4552 169.173 90.6818 169.607 90.7152 170.16H89.7652C89.7452 169.84 89.6118 169.593 89.3652 169.42C89.1252 169.24 88.7985 169.15 88.3852 169.15C87.9985 169.15 87.7018 169.227 87.4952 169.38C87.2952 169.533 87.1952 169.727 87.1952 169.96C87.1952 170.14 87.2618 170.283 87.3952 170.39C87.5285 170.49 87.7018 170.57 87.9152 170.63C88.1285 170.683 88.3618 170.733 88.6152 170.78C88.8752 170.82 89.1318 170.873 89.3852 170.94C89.6452 171.007 89.8818 171.1 90.0952 171.22C90.3085 171.333 90.4785 171.49 90.6052 171.69C90.7385 171.89 90.8052 172.15 90.8052 172.47C90.8052 172.983 90.5985 173.387 90.1852 173.68C89.7718 173.973 89.2218 174.12 88.5352 174.12Z" fill="var(--colors-neutral-neutral-600)"/>
<path d="M304 257.5H0V258.5H304V257.5Z" fill="var(--colors-neutral-neutral-400)"/>
<path d="M16.768 238V229.624H19.42C20.044 229.624 20.6 229.724 21.088 229.924C21.584 230.116 22.004 230.396 22.348 230.764C22.692 231.124 22.956 231.56 23.14 232.072C23.324 232.584 23.416 233.156 23.416 233.788C23.416 234.428 23.324 235.008 23.14 235.528C22.956 236.04 22.692 236.484 22.348 236.86C22.004 237.228 21.584 237.512 21.088 237.712C20.6 237.904 20.044 238 19.42 238H16.768ZM18.268 236.74H19.42C19.932 236.74 20.368 236.62 20.728 236.38C21.088 236.132 21.364 235.788 21.556 235.348C21.756 234.9 21.856 234.38 21.856 233.788C21.856 233.196 21.756 232.684 21.556 232.252C21.364 231.812 21.088 231.476 20.728 231.244C20.368 231.004 19.932 230.884 19.42 230.884H18.268V236.74ZM27.0327 238V231.376H28.4607V238H27.0327ZM24.6927 238V236.836H30.7047V238H24.6927ZM25.5447 232.54V231.376H27.7407V232.54H25.5447ZM26.9487 230.332V228.868H28.5087V230.332H26.9487ZM37.5374 238V233.224C37.5374 232.968 37.4934 232.768 37.4054 232.624C37.3254 232.48 37.1934 232.408 37.0094 232.408C36.7534 232.408 36.5254 232.576 36.3254 232.912C36.1334 233.24 35.9934 233.776 35.9054 234.52L35.7974 233.548C35.7894 232.82 35.9374 232.252 36.2414 231.844C36.5534 231.436 36.9454 231.232 37.4174 231.232C37.8414 231.232 38.1814 231.392 38.4374 231.712C38.7014 232.032 38.8334 232.492 38.8334 233.092V238H37.5374ZM32.1854 238V231.376H33.4334L33.4814 232.648V238H32.1854ZM34.8614 238V233.224C34.8614 232.952 34.8134 232.748 34.7174 232.612C34.6294 232.476 34.4934 232.408 34.3094 232.408C34.0374 232.408 33.8094 232.584 33.6254 232.936C33.4414 233.288 33.3054 233.816 33.2174 234.52L33.2054 233.5C33.2054 233.028 33.2774 232.624 33.4214 232.288C33.5734 231.944 33.7654 231.684 33.9974 231.508C34.2294 231.324 34.4814 231.232 34.7534 231.232C35.1934 231.232 35.5374 231.4 35.7854 231.736C36.0334 232.064 36.1574 232.508 36.1574 233.068V238H34.8614ZM43.3861 238.144C42.6901 238.144 42.0901 238.008 41.5861 237.736C41.0821 237.456 40.6941 237.056 40.4221 236.536C40.1581 236.016 40.0261 235.396 40.0261 234.676C40.0261 233.956 40.1621 233.34 40.4341 232.828C40.7061 232.308 41.0981 231.912 41.6101 231.64C42.1221 231.368 42.7341 231.232 43.4461 231.232C44.5501 231.232 45.3621 231.54 45.8821 232.156C46.4101 232.772 46.6381 233.616 46.5661 234.688H41.1661L41.1781 233.644L45.1021 233.656C45.0701 233.272 44.9021 232.964 44.5981 232.732C44.2941 232.5 43.9101 232.384 43.4461 232.384C42.7901 232.384 42.2941 232.588 41.9581 232.996C41.6221 233.404 41.4541 233.984 41.4541 234.736C41.4541 235.168 41.5301 235.556 41.6821 235.9C41.8341 236.236 42.0501 236.5 42.3301 236.692C42.6181 236.876 42.9701 236.968 43.3861 236.968C43.8581 236.968 44.2501 236.856 44.5621 236.632C44.8821 236.408 45.0781 236.108 45.1501 235.732H46.5901C46.4941 236.476 46.1581 237.064 45.5821 237.496C45.0141 237.928 44.2821 238.144 43.3861 238.144ZM52.7388 238V233.86C52.7388 233.428 52.6188 233.084 52.3788 232.828C52.1468 232.572 51.8428 232.444 51.4668 232.444C51.0348 232.444 50.6428 232.6 50.2908 232.912C49.9468 233.216 49.6508 233.708 49.4028 234.388L49.1868 232.96C49.4508 232.376 49.8108 231.944 50.2668 231.664C50.7228 231.376 51.2108 231.232 51.7308 231.232C52.2348 231.232 52.6668 231.34 53.0268 231.556C53.3948 231.764 53.6748 232.06 53.8668 232.444C54.0668 232.82 54.1668 233.264 54.1668 233.776V238H52.7388ZM48.1188 238V231.376H49.4868L49.5468 232.768V238H48.1188ZM59.0914 238.144C58.4994 238.144 57.9754 238.044 57.5194 237.844C57.0714 237.636 56.7234 237.344 56.4754 236.968C56.2274 236.592 56.0994 236.148 56.0914 235.636H57.4354C57.4274 236.084 57.5714 236.436 57.8674 236.692C58.1714 236.948 58.5794 237.076 59.0914 237.076C59.4994 237.076 59.8274 237 60.0754 236.848C60.3234 236.696 60.4474 236.488 60.4474 236.224C60.4474 236.016 60.3714 235.848 60.2194 235.72C60.0674 235.592 59.8634 235.492 59.6074 235.42C59.3594 235.348 59.0834 235.284 58.7794 235.228C58.4834 235.164 58.1834 235.092 57.8794 235.012C57.5754 234.924 57.2954 234.812 57.0394 234.676C56.7914 234.532 56.5914 234.344 56.4394 234.112C56.2874 233.88 56.2114 233.584 56.2114 233.224C56.2114 232.832 56.3194 232.488 56.5354 232.192C56.7594 231.888 57.0754 231.652 57.4834 231.484C57.8914 231.316 58.3714 231.232 58.9234 231.232C59.7554 231.232 60.4274 231.428 60.9394 231.82C61.4514 232.204 61.7274 232.736 61.7674 233.416H60.4354C60.4114 233.056 60.2634 232.78 59.9914 232.588C59.7274 232.396 59.3714 232.3 58.9234 232.3C58.5154 232.3 58.1994 232.38 57.9754 232.54C57.7594 232.7 57.6514 232.904 57.6514 233.152C57.6514 233.36 57.7274 233.52 57.8794 233.632C58.0394 233.744 58.2434 233.832 58.4914 233.896C58.7394 233.96 59.0154 234.02 59.3194 234.076C59.6234 234.124 59.9234 234.188 60.2194 234.268C60.5234 234.348 60.7994 234.46 61.0474 234.604C61.3034 234.74 61.5074 234.928 61.6594 235.168C61.8194 235.408 61.8994 235.72 61.8994 236.104C61.8994 236.736 61.6434 237.236 61.1314 237.604C60.6274 237.964 59.9474 238.144 59.0914 238.144ZM66.0561 238V231.376H67.4841V238H66.0561ZM63.7161 238V236.836H69.7281V238H63.7161ZM64.5681 232.54V231.376H66.7641V232.54H64.5681ZM65.9721 230.332V228.868H67.5321V230.332H65.9721ZM74.5328 238.144C73.8368 238.144 73.2368 238.004 72.7328 237.724C72.2368 237.444 71.8528 237.048 71.5808 236.536C71.3168 236.016 71.1848 235.4 71.1848 234.688C71.1848 233.968 71.3168 233.352 71.5808 232.84C71.8528 232.328 72.2368 231.932 72.7328 231.652C73.2368 231.372 73.8368 231.232 74.5328 231.232C75.5728 231.232 76.3888 231.54 76.9808 232.156C77.5728 232.764 77.8688 233.608 77.8688 234.688C77.8688 235.4 77.7328 236.016 77.4608 236.536C77.1968 237.048 76.8128 237.444 76.3088 237.724C75.8128 238.004 75.2208 238.144 74.5328 238.144ZM74.5328 236.968C75.1168 236.968 75.5768 236.764 75.9128 236.356C76.2568 235.948 76.4288 235.392 76.4288 234.688C76.4288 233.976 76.2568 233.42 75.9128 233.02C75.5768 232.612 75.1168 232.408 74.5328 232.408C73.9328 232.408 73.4648 232.612 73.1288 233.02C72.7928 233.42 72.6248 233.976 72.6248 234.688C72.6248 235.392 72.7928 235.948 73.1288 236.356C73.4648 236.764 73.9328 236.968 74.5328 236.968ZM83.9575 238V233.86C83.9575 233.428 83.8375 233.084 83.5975 232.828C83.3655 232.572 83.0615 232.444 82.6855 232.444C82.2535 232.444 81.8615 232.6 81.5095 232.912C81.1655 233.216 80.8695 233.708 80.6215 234.388L80.4055 232.96C80.6695 232.376 81.0295 231.944 81.4855 231.664C81.9415 231.376 82.4295 231.232 82.9495 231.232C83.4535 231.232 83.8855 231.34 84.2455 231.556C84.6135 231.764 84.8935 232.06 85.0855 232.444C85.2855 232.82 85.3855 233.264 85.3855 233.776V238H83.9575ZM79.3375 238V231.376H80.7055L80.7655 232.768V238H79.3375ZM90.3102 238.144C89.7182 238.144 89.1942 238.044 88.7382 237.844C88.2902 237.636 87.9422 237.344 87.6942 236.968C87.4462 236.592 87.3182 236.148 87.3102 235.636H88.6542C88.6462 236.084 88.7902 236.436 89.0862 236.692C89.3902 236.948 89.7982 237.076 90.3102 237.076C90.7182 237.076 91.0462 237 91.2942 236.848C91.5422 236.696 91.6662 236.488 91.6662 236.224C91.6662 236.016 91.5902 235.848 91.4382 235.72C91.2862 235.592 91.0822 235.492 90.8262 235.42C90.5782 235.348 90.3022 235.284 89.9982 235.228C89.7022 235.164 89.4022 235.092 89.0982 235.012C88.7942 234.924 88.5142 234.812 88.2582 234.676C88.0102 234.532 87.8102 234.344 87.6582 234.112C87.5062 233.88 87.4302 233.584 87.4302 233.224C87.4302 232.832 87.5382 232.488 87.7542 232.192C87.9782 231.888 88.2942 231.652 88.7022 231.484C89.1102 231.316 89.5902 231.232 90.1422 231.232C90.9742 231.232 91.6462 231.428 92.1582 231.82C92.6702 232.204 92.9462 232.736 92.9862 233.416H91.6542C91.6302 233.056 91.4822 232.78 91.2102 232.588C90.9462 232.396 90.5902 232.3 90.1422 232.3C89.7342 232.3 89.4182 232.38 89.1942 232.54C88.9782 232.7 88.8702 232.904 88.8702 233.152C88.8702 233.36 88.9462 233.52 89.0982 233.632C89.2582 233.744 89.4622 233.832 89.7102 233.896C89.9582 233.96 90.2342 234.02 90.5382 234.076C90.8422 234.124 91.1422 234.188 91.4382 234.268C91.7422 234.348 92.0182 234.46 92.2662 234.604C92.5222 234.74 92.7262 234.928 92.8782 235.168C93.0382 235.408 93.1182 235.72 93.1182 236.104C93.1182 236.736 92.8622 237.236 92.3502 237.604C91.8462 237.964 91.1662 238.144 90.3102 238.144Z" fill="var(--colors-neutral-neutral-800)"/>
<path d="M280 236.702L274.692 231.394L275.4 230.687L280 235.287L284.6 230.687L285.308 231.394L280 236.702Z" fill="var(--colors-neutral-neutral-800)"/>
<path d="M304 353.5H0V354.5H304V353.5Z" fill="var(--colors-neutral-neutral-400)"/>
<path d="M20.02 286.144C19.276 286.144 18.632 285.964 18.088 285.604C17.552 285.236 17.136 284.724 16.84 284.068C16.544 283.412 16.396 282.66 16.396 281.812C16.396 280.932 16.548 280.168 16.852 279.52C17.156 278.872 17.584 278.372 18.136 278.02C18.688 277.66 19.336 277.48 20.08 277.48C20.672 277.48 21.208 277.596 21.688 277.828C22.176 278.06 22.572 278.392 22.876 278.824C23.188 279.248 23.364 279.764 23.404 280.372H21.76C21.704 279.876 21.528 279.48 21.232 279.184C20.936 278.888 20.548 278.74 20.068 278.74C19.66 278.74 19.296 278.864 18.976 279.112C18.656 279.352 18.408 279.704 18.232 280.168C18.056 280.624 17.968 281.172 17.968 281.812C17.968 282.46 18.056 283.012 18.232 283.468C18.416 283.924 18.66 284.276 18.964 284.524C19.276 284.764 19.628 284.884 20.02 284.884C20.356 284.884 20.648 284.816 20.896 284.68C21.152 284.536 21.36 284.336 21.52 284.08C21.68 283.824 21.772 283.524 21.796 283.18H23.452C23.396 283.78 23.22 284.304 22.924 284.752C22.636 285.192 22.244 285.536 21.748 285.784C21.26 286.024 20.684 286.144 20.02 286.144ZM29.3247 286V281.872C29.3247 281.44 29.2047 281.096 28.9647 280.84C28.7327 280.576 28.4287 280.444 28.0527 280.444C27.6207 280.444 27.2287 280.6 26.8767 280.912C26.5327 281.216 26.2367 281.708 25.9887 282.388L25.7727 280.972C26.0367 280.38 26.3967 279.944 26.8527 279.664C27.3087 279.376 27.7967 279.232 28.3167 279.232C28.8207 279.232 29.2527 279.34 29.6127 279.556C29.9807 279.764 30.2607 280.06 30.4527 280.444C30.6527 280.828 30.7527 281.276 30.7527 281.788V286H29.3247ZM24.7047 286V277.144H26.1327V286H24.7047ZM37.0934 286L37.0334 284.596V281.62C37.0334 281.204 36.8934 280.876 36.6134 280.636C36.3334 280.396 35.9454 280.276 35.4494 280.276C34.9774 280.276 34.5894 280.384 34.2854 280.6C33.9894 280.816 33.8214 281.112 33.7814 281.488H32.3894C32.4294 281.016 32.5814 280.612 32.8454 280.276C33.1174 279.94 33.4774 279.684 33.9254 279.508C34.3814 279.324 34.9054 279.232 35.4974 279.232C36.1054 279.232 36.6294 279.328 37.0694 279.52C37.5174 279.712 37.8614 279.992 38.1014 280.36C38.3414 280.728 38.4614 281.176 38.4614 281.704V286H37.0934ZM34.7894 286.144C34.3574 286.144 33.9734 286.064 33.6374 285.904C33.3094 285.744 33.0534 285.516 32.8694 285.22C32.6854 284.924 32.5934 284.58 32.5934 284.188C32.5934 283.508 32.8574 282.98 33.3854 282.604C33.9134 282.22 34.6454 282.028 35.5814 282.028H37.2014V283.06L35.5334 283.072C35.0534 283.072 34.6774 283.164 34.4054 283.348C34.1334 283.524 33.9974 283.78 33.9974 284.116C33.9974 284.38 34.0934 284.592 34.2854 284.752C34.4854 284.912 34.7574 284.992 35.1014 284.992C35.5414 284.992 35.9334 284.876 36.2774 284.644C36.6294 284.404 36.9134 284.076 37.1294 283.66L37.2854 284.668C37.0774 285.156 36.7614 285.524 36.3374 285.772C35.9134 286.02 35.3974 286.144 34.7894 286.144ZM44.9941 282.376V281.548C44.9941 281.22 44.8941 280.956 44.6941 280.756C44.5021 280.548 44.2221 280.444 43.8541 280.444C43.4061 280.444 42.9981 280.608 42.6301 280.936C42.2621 281.264 41.9541 281.78 41.7061 282.484L41.5261 281.14C41.7101 280.724 41.9261 280.376 42.1741 280.096C42.4301 279.808 42.7181 279.592 43.0381 279.448C43.3661 279.304 43.7221 279.232 44.1061 279.232C44.7861 279.232 45.3421 279.432 45.7741 279.832C46.2061 280.232 46.4221 280.804 46.4221 281.548V282.376H44.9941ZM40.5301 286V279.376H41.8861L41.9581 280.78V286H40.5301ZM52.8228 280.24L52.8588 279.376H54.2268V285.22C54.2268 286.22 53.9588 286.98 53.4228 287.5C52.8868 288.02 52.0708 288.28 50.9748 288.28C50.3748 288.28 49.8548 288.2 49.4148 288.04C48.9748 287.888 48.6308 287.652 48.3828 287.332C48.1428 287.02 48.0068 286.624 47.9748 286.144H49.4748C49.5148 286.464 49.6628 286.704 49.9188 286.864C50.1748 287.024 50.5508 287.104 51.0468 287.104C51.6308 287.104 52.0668 286.952 52.3548 286.648C52.6508 286.352 52.7988 285.932 52.7988 285.388V284.668C52.5748 284.98 52.2828 285.224 51.9228 285.4C51.5708 285.576 51.1788 285.664 50.7467 285.664C50.1868 285.664 49.6868 285.524 49.2468 285.244C48.8148 284.964 48.4748 284.584 48.2268 284.104C47.9788 283.616 47.8548 283.068 47.8548 282.46C47.8548 281.796 47.9828 281.224 48.2388 280.744C48.5028 280.256 48.8588 279.884 49.3068 279.628C49.7548 279.372 50.2628 279.244 50.8308 279.244C51.2548 279.244 51.6388 279.336 51.9828 279.52C52.3348 279.704 52.6148 279.944 52.8228 280.24ZM51.0828 284.56C51.4828 284.56 51.8348 284.44 52.1388 284.2C52.4508 283.952 52.6708 283.628 52.7988 283.228V281.668C52.6708 281.26 52.4508 280.94 52.1388 280.708C51.8348 280.468 51.4828 280.348 51.0828 280.348C50.7308 280.348 50.4188 280.44 50.1468 280.624C49.8748 280.808 49.6628 281.056 49.5108 281.368C49.3588 281.68 49.2828 282.036 49.2828 282.436C49.2828 282.844 49.3588 283.208 49.5108 283.528C49.6628 283.84 49.8748 284.092 50.1468 284.284C50.4188 284.468 50.7308 284.56 51.0828 284.56ZM58.2514 286V279.376H59.6794V286H58.2514ZM55.9114 286V284.836H61.9234V286H55.9114ZM56.7634 280.54V279.376H58.9594V280.54H56.7634ZM58.1674 278.332V276.868H59.7274V278.332H58.1674ZM68.3481 286V281.86C68.3481 281.428 68.2281 281.084 67.9881 280.828C67.7561 280.572 67.4521 280.444 67.0761 280.444C66.6441 280.444 66.2521 280.6 65.9001 280.912C65.5561 281.216 65.2601 281.708 65.0121 282.388L64.7961 280.96C65.0601 280.376 65.4201 279.944 65.8761 279.664C66.3321 279.376 66.8201 279.232 67.3401 279.232C67.8441 279.232 68.2761 279.34 68.6361 279.556C69.0041 279.764 69.2841 280.06 69.4761 280.444C69.6761 280.82 69.7761 281.264 69.7761 281.776V286H68.3481ZM63.7281 286V279.376H65.0961L65.1561 280.768V286H63.7281ZM76.2368 280.24L76.2728 279.376H77.6408V285.22C77.6408 286.22 77.3728 286.98 76.8368 287.5C76.3008 288.02 75.4848 288.28 74.3888 288.28C73.7888 288.28 73.2688 288.2 72.8288 288.04C72.3888 287.888 72.0448 287.652 71.7968 287.332C71.5568 287.02 71.4208 286.624 71.3888 286.144H72.8888C72.9288 286.464 73.0768 286.704 73.3328 286.864C73.5888 287.024 73.9648 287.104 74.4608 287.104C75.0448 287.104 75.4808 286.952 75.7688 286.648C76.0648 286.352 76.2128 285.932 76.2128 285.388V284.668C75.9888 284.98 75.6968 285.224 75.3368 285.4C74.9848 285.576 74.5928 285.664 74.1608 285.664C73.6008 285.664 73.1008 285.524 72.6608 285.244C72.2288 284.964 71.8888 284.584 71.6408 284.104C71.3928 283.616 71.2688 283.068 71.2688 282.46C71.2688 281.796 71.3968 281.224 71.6528 280.744C71.9168 280.256 72.2728 279.884 72.7208 279.628C73.1688 279.372 73.6768 279.244 74.2448 279.244C74.6688 279.244 75.0528 279.336 75.3968 279.52C75.7488 279.704 76.0288 279.944 76.2368 280.24ZM74.4968 284.56C74.8968 284.56 75.2488 284.44 75.5528 284.2C75.8648 283.952 76.0848 283.628 76.2128 283.228V281.668C76.0848 281.26 75.8648 280.94 75.5528 280.708C75.2488 280.468 74.8968 280.348 74.4968 280.348C74.1448 280.348 73.8328 280.44 73.5608 280.624C73.2888 280.808 73.0768 281.056 72.9248 281.368C72.7728 281.68 72.6968 282.036 72.6968 282.436C72.6968 282.844 72.7728 283.208 72.9248 283.528C73.0768 283.84 73.2888 284.092 73.5608 284.284C73.8328 284.468 74.1448 284.56 74.4968 284.56ZM91.7262 286L91.6662 284.596V281.62C91.6662 281.204 91.5262 280.876 91.2462 280.636C90.9662 280.396 90.5782 280.276 90.0822 280.276C89.6102 280.276 89.2222 280.384 88.9182 280.6C88.6222 280.816 88.4542 281.112 88.4142 281.488H87.0222C87.0622 281.016 87.2142 280.612 87.4782 280.276C87.7502 279.94 88.1102 279.684 88.5582 279.508C89.0142 279.324 89.5382 279.232 90.1302 279.232C90.7382 279.232 91.2622 279.328 91.7022 279.52C92.1502 279.712 92.4942 279.992 92.7342 280.36C92.9742 280.728 93.0942 281.176 93.0942 281.704V286H91.7262ZM89.4222 286.144C88.9902 286.144 88.6062 286.064 88.2702 285.904C87.9422 285.744 87.6862 285.516 87.5022 285.22C87.3182 284.924 87.2262 284.58 87.2262 284.188C87.2262 283.508 87.4902 282.98 88.0182 282.604C88.5462 282.22 89.2782 282.028 90.2142 282.028H91.8342V283.06L90.1662 283.072C89.6862 283.072 89.3102 283.164 89.0382 283.348C88.7662 283.524 88.6302 283.78 88.6302 284.116C88.6302 284.38 88.7262 284.592 88.9182 284.752C89.1182 284.912 89.3902 284.992 89.7342 284.992C90.1742 284.992 90.5662 284.876 90.9102 284.644C91.2622 284.404 91.5462 284.076 91.7622 283.66L91.9182 284.668C91.7102 285.156 91.3942 285.524 90.9702 285.772C90.5462 286.02 90.0302 286.144 89.4222 286.144ZM99.6269 282.376V281.548C99.6269 281.22 99.5269 280.956 99.3269 280.756C99.1349 280.548 98.8549 280.444 98.4869 280.444C98.0389 280.444 97.6309 280.608 97.2629 280.936C96.8949 281.264 96.5869 281.78 96.3389 282.484L96.1589 281.14C96.3429 280.724 96.5589 280.376 96.8069 280.096C97.0629 279.808 97.3509 279.592 97.6709 279.448C97.9989 279.304 98.3549 279.232 98.7389 279.232C99.4189 279.232 99.9749 279.432 100.407 279.832C100.839 280.232 101.055 280.804 101.055 281.548V282.376H99.6269ZM95.1629 286V279.376H96.5189L96.5909 280.78V286H95.1629ZM105.824 286.144C105.128 286.144 104.528 286.008 104.024 285.736C103.52 285.456 103.132 285.056 102.86 284.536C102.596 284.016 102.464 283.396 102.464 282.676C102.464 281.956 102.6 281.34 102.872 280.828C103.144 280.308 103.536 279.912 104.048 279.64C104.56 279.368 105.172 279.232 105.884 279.232C106.988 279.232 107.8 279.54 108.32 280.156C108.848 280.772 109.076 281.616 109.004 282.688H103.604L103.616 281.644L107.54 281.656C107.508 281.272 107.34 280.964 107.036 280.732C106.732 280.5 106.348 280.384 105.884 280.384C105.228 280.384 104.732 280.588 104.396 280.996C104.06 281.404 103.892 281.984 103.892 282.736C103.892 283.168 103.968 283.556 104.12 283.9C104.272 284.236 104.488 284.5 104.768 284.692C105.056 284.876 105.408 284.968 105.824 284.968C106.296 284.968 106.688 284.856 107 284.632C107.32 284.408 107.516 284.108 107.588 283.732H109.028C108.932 284.476 108.596 285.064 108.02 285.496C107.452 285.928 106.72 286.144 105.824 286.144ZM115.14 286L115.08 284.596V281.62C115.08 281.204 114.94 280.876 114.66 280.636C114.38 280.396 113.992 280.276 113.496 280.276C113.024 280.276 112.636 280.384 112.332 280.6C112.036 280.816 111.868 281.112 111.828 281.488H110.436C110.476 281.016 110.628 280.612 110.892 280.276C111.164 279.94 111.524 279.684 111.972 279.508C112.428 279.324 112.952 279.232 113.544 279.232C114.152 279.232 114.676 279.328 115.116 279.52C115.564 279.712 115.908 279.992 116.148 280.36C116.388 280.728 116.508 281.176 116.508 281.704V286H115.14ZM112.836 286.144C112.404 286.144 112.02 286.064 111.684 285.904C111.356 285.744 111.1 285.516 110.916 285.22C110.732 284.924 110.64 284.58 110.64 284.188C110.64 283.508 110.904 282.98 111.432 282.604C111.96 282.22 112.692 282.028 113.628 282.028H115.248V283.06L113.58 283.072C113.1 283.072 112.724 283.164 112.452 283.348C112.18 283.524 112.044 283.78 112.044 284.116C112.044 284.38 112.14 284.592 112.332 284.752C112.532 284.912 112.804 284.992 113.148 284.992C113.588 284.992 113.98 284.876 114.324 284.644C114.676 284.404 114.96 284.076 115.176 283.66L115.332 284.668C115.124 285.156 114.808 285.524 114.384 285.772C113.96 286.02 113.444 286.144 112.836 286.144Z" fill="var(--colors-neutral-neutral-800)"/>
<path d="M275.4 284.702L274.692 283.994L280 278.687L285.308 283.994L284.6 284.702L280 280.102L275.4 284.702Z" fill="var(--colors-neutral-neutral-800)"/>
<path d="M17.179 318.227L19.3381 324.349H19.4233L21.5824 318.227H22.5057L19.8352 325.5H18.9261L16.2557 318.227H17.179ZM25.304 325.614C24.7784 325.614 24.325 325.498 23.9439 325.266C23.5651 325.031 23.2727 324.705 23.0668 324.286C22.8632 323.864 22.7614 323.374 22.7614 322.815C22.7614 322.257 22.8632 321.764 23.0668 321.338C23.2727 320.91 23.5592 320.576 23.9261 320.337C24.2955 320.095 24.7263 319.974 25.2188 319.974C25.5028 319.974 25.7834 320.022 26.0604 320.116C26.3374 320.211 26.5895 320.365 26.8168 320.578C27.044 320.789 27.2251 321.068 27.3601 321.416C27.495 321.764 27.5625 322.193 27.5625 322.702V323.057H23.358V322.332H26.7102C26.7102 322.025 26.6487 321.75 26.5256 321.509C26.4048 321.267 26.232 321.076 26.0071 320.937C25.7846 320.797 25.5218 320.727 25.2188 320.727C24.8849 320.727 24.5961 320.81 24.3523 320.976C24.1108 321.139 23.925 321.352 23.7947 321.615C23.6645 321.878 23.5994 322.16 23.5994 322.46V322.943C23.5994 323.355 23.6705 323.704 23.8125 323.991C23.9569 324.275 24.157 324.491 24.4126 324.641C24.6683 324.787 24.9654 324.861 25.304 324.861C25.5241 324.861 25.723 324.83 25.9006 324.768C26.0805 324.705 26.2356 324.61 26.3658 324.484C26.496 324.357 26.5966 324.198 26.6676 324.009L27.4773 324.236C27.392 324.51 27.2488 324.752 27.0476 324.96C26.8464 325.166 26.5978 325.327 26.3018 325.443C26.0059 325.557 25.6733 325.614 25.304 325.614ZM29.6754 322.219V325.5H28.8374V318.227H29.6754V320.898H29.7464C29.8743 320.616 30.0661 320.392 30.3217 320.227C30.5798 320.058 30.9231 319.974 31.3516 319.974C31.7232 319.974 32.0488 320.049 32.3281 320.198C32.6075 320.345 32.8241 320.571 32.978 320.876C33.1342 321.179 33.2124 321.565 33.2124 322.034V325.5H32.3743V322.091C32.3743 321.658 32.2618 321.323 32.0369 321.086C31.8144 320.847 31.5054 320.727 31.1101 320.727C30.8355 320.727 30.5893 320.785 30.3714 320.901C30.156 321.017 29.9856 321.187 29.8601 321.409C29.737 321.632 29.6754 321.902 29.6754 322.219ZM34.7456 325.5V320.045H35.5836V325.5H34.7456ZM35.1717 319.136C35.0083 319.136 34.8675 319.081 34.7491 318.969C34.6331 318.858 34.5751 318.724 34.5751 318.568C34.5751 318.412 34.6331 318.278 34.7491 318.167C34.8675 318.056 35.0083 318 35.1717 318C35.335 318 35.4747 318.056 35.5907 318.167C35.7091 318.278 35.7683 318.412 35.7683 318.568C35.7683 318.724 35.7091 318.858 35.5907 318.969C35.4747 319.081 35.335 319.136 35.1717 319.136ZM39.3345 325.614C38.8232 325.614 38.3828 325.493 38.0135 325.251C37.6442 325.01 37.3601 324.677 37.1612 324.254C36.9624 323.83 36.8629 323.346 36.8629 322.801C36.8629 322.247 36.9647 321.758 37.1683 321.335C37.3743 320.908 37.6607 320.576 38.0277 320.337C38.397 320.095 38.8279 319.974 39.3203 319.974C39.7038 319.974 40.0495 320.045 40.3572 320.188C40.665 320.33 40.9171 320.528 41.1136 320.784C41.3101 321.04 41.4321 321.338 41.4794 321.679H40.6413C40.5774 321.43 40.4354 321.21 40.2152 321.018C39.9974 320.824 39.7038 320.727 39.3345 320.727C39.0078 320.727 38.7214 320.812 38.4751 320.983C38.2313 321.151 38.0407 321.389 37.9034 321.697C37.7685 322.002 37.701 322.361 37.701 322.773C37.701 323.194 37.7673 323.561 37.8999 323.874C38.0348 324.186 38.2242 324.429 38.468 324.602C38.7143 324.774 39.0031 324.861 39.3345 324.861C39.5523 324.861 39.75 324.823 39.9276 324.747C40.1051 324.671 40.2554 324.562 40.3786 324.42C40.5017 324.278 40.5893 324.108 40.6413 323.909H41.4794C41.4321 324.231 41.3149 324.521 41.1278 324.779C40.9432 325.035 40.6982 325.238 40.3928 325.39C40.0897 325.539 39.737 325.614 39.3345 325.614ZM43.5426 318.227V325.5H42.7045V318.227H43.5426ZM47.3645 325.614C46.839 325.614 46.3856 325.498 46.0044 325.266C45.6257 325.031 45.3333 324.705 45.1273 324.286C44.9237 323.864 44.8219 323.374 44.8219 322.815C44.8219 322.257 44.9237 321.764 45.1273 321.338C45.3333 320.91 45.6197 320.576 45.9867 320.337C46.356 320.095 46.7869 319.974 47.2793 319.974C47.5634 319.974 47.8439 320.022 48.1209 320.116C48.3979 320.211 48.65 320.365 48.8773 320.578C49.1046 320.789 49.2857 321.068 49.4206 321.416C49.5556 321.764 49.623 322.193 49.623 322.702V323.057H45.4185V322.332H48.7708C48.7708 322.025 48.7092 321.75 48.5861 321.509C48.4654 321.267 48.2926 321.076 48.0676 320.937C47.8451 320.797 47.5823 320.727 47.2793 320.727C46.9455 320.727 46.6567 320.81 46.4128 320.976C46.1713 321.139 45.9855 321.352 45.8553 321.615C45.7251 321.878 45.66 322.16 45.66 322.46V322.943C45.66 323.355 45.731 323.704 45.873 323.991C46.0175 324.275 46.2175 324.491 46.4732 324.641C46.7289 324.787 47.026 324.861 47.3645 324.861C47.5847 324.861 47.7836 324.83 47.9611 324.768C48.141 324.705 48.2961 324.61 48.4263 324.484C48.5565 324.357 48.6571 324.198 48.7282 324.009L49.5378 324.236C49.4526 324.51 49.3094 324.752 49.1081 324.96C48.9069 325.166 48.6583 325.327 48.3624 325.443C48.0665 325.557 47.7338 325.614 47.3645 325.614Z" fill="var(--colors-neutral-neutral-800)"/>
<path d="M145.179 325.5H144.256L146.926 318.227H147.835L150.506 325.5H149.582L147.409 319.378H147.352L145.179 325.5ZM145.52 322.659H149.241V323.44H145.52V322.659ZM156.268 320.5C156.19 320.261 156.087 320.047 155.959 319.857C155.834 319.665 155.684 319.502 155.508 319.367C155.336 319.232 155.139 319.129 154.919 319.058C154.699 318.987 154.457 318.952 154.194 318.952C153.764 318.952 153.372 319.063 153.019 319.286C152.666 319.508 152.386 319.836 152.177 320.269C151.969 320.702 151.865 321.234 151.865 321.864C151.865 322.493 151.97 323.025 152.181 323.458C152.392 323.891 152.677 324.219 153.037 324.442C153.397 324.664 153.801 324.776 154.251 324.776C154.668 324.776 155.035 324.687 155.352 324.509C155.672 324.329 155.92 324.076 156.098 323.749C156.278 323.42 156.368 323.033 156.368 322.588L156.638 322.645H154.45V321.864H157.22V322.645C157.22 323.244 157.092 323.765 156.836 324.207C156.583 324.65 156.233 324.993 155.785 325.237C155.34 325.479 154.829 325.599 154.251 325.599C153.607 325.599 153.041 325.448 152.554 325.145C152.068 324.842 151.69 324.411 151.417 323.852C151.148 323.294 151.013 322.631 151.013 321.864C151.013 321.288 151.09 320.771 151.243 320.312C151.4 319.85 151.62 319.457 151.904 319.133C152.188 318.808 152.524 318.56 152.912 318.387C153.301 318.214 153.728 318.128 154.194 318.128C154.578 318.128 154.935 318.186 155.267 318.302C155.601 318.415 155.898 318.578 156.158 318.788C156.421 318.997 156.64 319.246 156.815 319.538C156.99 319.826 157.111 320.147 157.177 320.5H156.268ZM158.728 325.5V318.227H163.089V319.009H159.609V321.466H162.762V322.247H159.609V325.5H158.728ZM167.906 325.5V326.281H163.361V325.5H167.906ZM170.52 325.599C170.032 325.599 169.601 325.513 169.227 325.34C168.856 325.165 168.566 324.925 168.357 324.619C168.149 324.312 168.046 323.961 168.048 323.568C168.046 323.26 168.106 322.976 168.229 322.716C168.353 322.453 168.521 322.234 168.734 322.059C168.949 321.881 169.189 321.769 169.455 321.722V321.679C169.107 321.589 168.83 321.394 168.624 321.093C168.418 320.79 168.316 320.446 168.318 320.06C168.316 319.69 168.409 319.36 168.599 319.069C168.788 318.778 169.049 318.548 169.38 318.38C169.714 318.212 170.094 318.128 170.52 318.128C170.941 318.128 171.318 318.212 171.649 318.38C171.981 318.548 172.241 318.778 172.43 319.069C172.622 319.36 172.719 319.69 172.722 320.06C172.719 320.446 172.614 320.79 172.406 321.093C172.2 321.394 171.926 321.589 171.585 321.679V321.722C171.848 321.769 172.085 321.881 172.295 322.059C172.506 322.234 172.674 322.453 172.8 322.716C172.925 322.976 172.989 323.26 172.991 323.568C172.989 323.961 172.883 324.312 172.672 324.619C172.464 324.925 172.174 325.165 171.802 325.34C171.433 325.513 171.005 325.599 170.52 325.599ZM170.52 324.818C170.849 324.818 171.133 324.765 171.372 324.658C171.611 324.552 171.796 324.402 171.926 324.207C172.056 324.013 172.123 323.786 172.125 323.526C172.123 323.251 172.052 323.008 171.912 322.798C171.772 322.587 171.582 322.421 171.34 322.3C171.101 322.18 170.828 322.119 170.52 322.119C170.21 322.119 169.933 322.18 169.689 322.3C169.447 322.421 169.257 322.587 169.117 322.798C168.98 323.008 168.912 323.251 168.915 323.526C168.912 323.786 168.975 324.013 169.103 324.207C169.233 324.402 169.419 324.552 169.661 324.658C169.902 324.765 170.188 324.818 170.52 324.818ZM170.52 321.366C170.78 321.366 171.011 321.314 171.212 321.21C171.416 321.106 171.576 320.96 171.692 320.773C171.808 320.586 171.867 320.367 171.869 320.116C171.867 319.87 171.809 319.656 171.695 319.474C171.582 319.289 171.424 319.147 171.223 319.048C171.022 318.946 170.787 318.895 170.52 318.895C170.248 318.895 170.01 318.946 169.806 319.048C169.603 319.147 169.445 319.289 169.334 319.474C169.223 319.656 169.168 319.87 169.17 320.116C169.168 320.367 169.224 320.586 169.337 320.773C169.453 320.96 169.613 321.106 169.817 321.21C170.02 321.314 170.255 321.366 170.52 321.366ZM174.779 325.5H173.855L176.526 318.227H177.435L180.105 325.5H179.182L177.009 319.378H176.952L174.779 325.5ZM175.119 322.659H178.841V323.44H175.119V322.659ZM181.238 325.5V318.227H185.599V319.009H182.119V321.466H185.272V322.247H182.119V325.5H181.238ZM187.107 325.5V318.227H189.65C190.156 318.227 190.574 318.315 190.903 318.49C191.232 318.663 191.478 318.896 191.638 319.19C191.799 319.481 191.88 319.804 191.88 320.159C191.88 320.472 191.824 320.73 191.713 320.933C191.604 321.137 191.46 321.298 191.28 321.416C191.102 321.535 190.909 321.622 190.701 321.679V321.75C190.924 321.764 191.147 321.842 191.372 321.984C191.597 322.126 191.785 322.33 191.937 322.595C192.088 322.86 192.164 323.185 192.164 323.568C192.164 323.933 192.081 324.261 191.915 324.552C191.75 324.843 191.488 325.074 191.131 325.244C190.773 325.415 190.308 325.5 189.735 325.5H187.107ZM187.988 324.719H189.735C190.31 324.719 190.719 324.607 190.96 324.385C191.204 324.16 191.326 323.888 191.326 323.568C191.326 323.322 191.263 323.095 191.138 322.886C191.012 322.676 190.834 322.508 190.602 322.382C190.37 322.254 190.095 322.19 189.778 322.19H187.988V324.719ZM187.988 321.423H189.621C189.887 321.423 190.126 321.371 190.339 321.267C190.554 321.163 190.725 321.016 190.85 320.827C190.978 320.637 191.042 320.415 191.042 320.159C191.042 319.839 190.931 319.568 190.708 319.346C190.486 319.121 190.133 319.009 189.65 319.009H187.988V321.423ZM193.611 325.5V318.227H196.069C196.637 318.227 197.103 318.324 197.468 318.518C197.832 318.71 198.102 318.974 198.277 319.31C198.453 319.647 198.54 320.029 198.54 320.457C198.54 320.886 198.453 321.266 198.277 321.597C198.102 321.929 197.833 322.189 197.471 322.379C197.109 322.566 196.646 322.659 196.083 322.659H194.094V321.864H196.054C196.443 321.864 196.755 321.807 196.992 321.693C197.231 321.58 197.404 321.419 197.51 321.21C197.619 321 197.674 320.749 197.674 320.457C197.674 320.166 197.619 319.912 197.51 319.694C197.401 319.476 197.227 319.308 196.988 319.19C196.749 319.069 196.433 319.009 196.04 319.009H194.492V325.5H193.611ZM197.034 322.233L198.824 325.5H197.801L196.04 322.233H197.034ZM202.337 325.599C201.868 325.599 201.451 325.519 201.084 325.358C200.719 325.197 200.429 324.973 200.214 324.687C200.001 324.398 199.885 324.063 199.866 323.682H200.76C200.779 323.916 200.86 324.119 201.002 324.289C201.144 324.457 201.33 324.587 201.559 324.68C201.789 324.772 202.044 324.818 202.323 324.818C202.635 324.818 202.912 324.764 203.154 324.655C203.395 324.546 203.585 324.394 203.722 324.2C203.859 324.006 203.928 323.781 203.928 323.526C203.928 323.258 203.862 323.022 203.729 322.819C203.597 322.613 203.403 322.452 203.147 322.336C202.891 322.22 202.579 322.162 202.209 322.162H201.627V321.381H202.209C202.498 321.381 202.751 321.329 202.969 321.224C203.189 321.12 203.361 320.973 203.484 320.784C203.61 320.595 203.672 320.372 203.672 320.116C203.672 319.87 203.618 319.656 203.509 319.474C203.4 319.291 203.246 319.149 203.047 319.048C202.851 318.946 202.619 318.895 202.351 318.895C202.1 318.895 201.864 318.941 201.641 319.033C201.421 319.123 201.241 319.255 201.101 319.428C200.962 319.598 200.886 319.804 200.874 320.045H200.022C200.036 319.664 200.151 319.33 200.366 319.044C200.582 318.755 200.863 318.53 201.211 318.369C201.562 318.208 201.947 318.128 202.366 318.128C202.815 318.128 203.201 318.219 203.523 318.401C203.845 318.581 204.093 318.819 204.265 319.115C204.438 319.411 204.525 319.731 204.525 320.074C204.525 320.483 204.417 320.833 204.202 321.121C203.988 321.41 203.698 321.61 203.331 321.722V321.778C203.791 321.854 204.149 322.049 204.407 322.364C204.666 322.677 204.795 323.064 204.795 323.526C204.795 323.921 204.687 324.276 204.471 324.591C204.258 324.903 203.967 325.15 203.598 325.33C203.229 325.509 202.808 325.599 202.337 325.599ZM208.619 325.599C208.084 325.599 207.628 325.454 207.252 325.163C206.876 324.869 206.588 324.444 206.389 323.888C206.19 323.329 206.091 322.654 206.091 321.864C206.091 321.078 206.19 320.406 206.389 319.85C206.59 319.291 206.879 318.865 207.256 318.572C207.634 318.276 208.089 318.128 208.619 318.128C209.149 318.128 209.603 318.276 209.979 318.572C210.358 318.865 210.647 319.291 210.846 319.85C211.047 320.406 211.148 321.078 211.148 321.864C211.148 322.654 211.048 323.329 210.849 323.888C210.65 324.444 210.363 324.869 209.986 325.163C209.61 325.454 209.154 325.599 208.619 325.599ZM208.619 324.818C209.149 324.818 209.561 324.562 209.855 324.051C210.148 323.54 210.295 322.811 210.295 321.864C210.295 321.234 210.228 320.698 210.093 320.255C209.96 319.812 209.769 319.475 209.518 319.243C209.269 319.011 208.97 318.895 208.619 318.895C208.094 318.895 207.683 319.154 207.387 319.673C207.091 320.189 206.943 320.919 206.943 321.864C206.943 322.493 207.009 323.028 207.142 323.469C207.274 323.909 207.465 324.244 207.714 324.474C207.965 324.703 208.266 324.818 208.619 324.818Z" fill="var(--colors-neutral-neutral-800)"/>
<path d="M221 323.801L217.461 320.263L217.933 319.791L221 322.858L224.067 319.791L224.538 320.263L221 323.801Z" fill="var(--colors-neutral-neutral-500)"/>
<path d="M274.461 323C274.186 323 273.951 322.902 273.755 322.706C273.559 322.51 273.461 322.275 273.461 322C273.461 321.725 273.559 321.49 273.755 321.294C273.951 321.098 274.186 321 274.461 321C274.736 321 274.972 321.098 275.168 321.294C275.364 321.49 275.461 321.725 275.461 322C275.461 322.275 275.364 322.51 275.168 322.706C274.972 322.902 274.736 323 274.461 323ZM280 323C279.725 323 279.489 322.902 279.294 322.706C279.098 322.51 279 322.275 279 322C279 321.725 279.098 321.49 279.294 321.294C279.489 321.098 279.725 321 280 321C280.275 321 280.51 321.098 280.706 321.294C280.902 321.49 281 321.725 281 322C281 322.275 280.902 322.51 280.706 322.706C280.51 322.902 280.275 323 280 323ZM285.538 323C285.263 323 285.028 322.902 284.832 322.706C284.636 322.51 284.538 322.275 284.538 322C284.538 321.725 284.636 321.49 284.832 321.294C285.028 321.098 285.263 321 285.538 321C285.813 321 286.049 321.098 286.245 321.294C286.44 321.49 286.538 321.725 286.538 322C286.538 322.275 286.44 322.51 286.245 322.706C286.049 322.902 285.813 323 285.538 323Z" fill="var(--colors-neutral-neutral-800)"/>
<path d="M304 401.5H0V402.5H304V401.5Z" fill="var(--colors-neutral-neutral-400)"/>
<path d="M16.864 382V373.624H23.02V374.884H18.376V377.032H21.532V378.292H18.376V382H16.864ZM26.9847 382V373.156H28.4247V382H26.9847ZM24.6447 382V380.836H30.7887V382H24.6447ZM25.5087 374.32V373.156H27.7047V374.32H25.5087ZM35.5094 382.144C34.8134 382.144 34.2134 382.004 33.7094 381.724C33.2134 381.444 32.8294 381.048 32.5574 380.536C32.2934 380.016 32.1614 379.4 32.1614 378.688C32.1614 377.968 32.2934 377.352 32.5574 376.84C32.8294 376.328 33.2134 375.932 33.7094 375.652C34.2134 375.372 34.8134 375.232 35.5094 375.232C36.5494 375.232 37.3654 375.54 37.9574 376.156C38.5494 376.764 38.8454 377.608 38.8454 378.688C38.8454 379.4 38.7094 380.016 38.4374 380.536C38.1734 381.048 37.7894 381.444 37.2854 381.724C36.7894 382.004 36.1974 382.144 35.5094 382.144ZM35.5094 380.968C36.0934 380.968 36.5534 380.764 36.8894 380.356C37.2334 379.948 37.4054 379.392 37.4054 378.688C37.4054 377.976 37.2334 377.42 36.8894 377.02C36.5534 376.612 36.0934 376.408 35.5094 376.408C34.9094 376.408 34.4414 376.612 34.1054 377.02C33.7694 377.42 33.6014 377.976 33.6014 378.688C33.6014 379.392 33.7694 379.948 34.1054 380.356C34.4414 380.764 34.9094 380.968 35.5094 380.968ZM40.6741 382L39.6421 375.352H40.9741L41.4781 378.976L41.6821 380.512L41.9581 378.976L42.6901 375.352H43.9741L44.7421 378.976L45.0301 380.536L45.2221 378.976L45.7261 375.352H46.9981L45.9781 382H44.3101L43.5421 378.532L43.3261 376.72L43.0981 378.532L42.3421 382H40.6741ZM51.2868 382.144C50.6948 382.144 50.1708 382.044 49.7148 381.844C49.2668 381.636 48.9188 381.344 48.6708 380.968C48.4228 380.592 48.2948 380.148 48.2868 379.636H49.6308C49.6228 380.084 49.7668 380.436 50.0628 380.692C50.3668 380.948 50.7748 381.076 51.2868 381.076C51.6948 381.076 52.0228 381 52.2708 380.848C52.5188 380.696 52.6428 380.488 52.6428 380.224C52.6428 380.016 52.5668 379.848 52.4148 379.72C52.2628 379.592 52.0588 379.492 51.8028 379.42C51.5548 379.348 51.2788 379.284 50.9748 379.228C50.6788 379.164 50.3788 379.092 50.0748 379.012C49.7708 378.924 49.4908 378.812 49.2348 378.676C48.9868 378.532 48.7868 378.344 48.6348 378.112C48.4828 377.88 48.4068 377.584 48.4068 377.224C48.4068 376.832 48.5148 376.488 48.7308 376.192C48.9548 375.888 49.2708 375.652 49.6788 375.484C50.0868 375.316 50.5668 375.232 51.1188 375.232C51.9508 375.232 52.6228 375.428 53.1348 375.82C53.6468 376.204 53.9228 376.736 53.9628 377.416H52.6308C52.6068 377.056 52.4588 376.78 52.1868 376.588C51.9228 376.396 51.5668 376.3 51.1188 376.3C50.7108 376.3 50.3948 376.38 50.1708 376.54C49.9548 376.7 49.8468 376.904 49.8468 377.152C49.8468 377.36 49.9228 377.52 50.0748 377.632C50.2348 377.744 50.4388 377.832 50.6868 377.896C50.9348 377.96 51.2108 378.02 51.5148 378.076C51.8188 378.124 52.1188 378.188 52.4148 378.268C52.7188 378.348 52.9948 378.46 53.2428 378.604C53.4988 378.74 53.7028 378.928 53.8548 379.168C54.0148 379.408 54.0948 379.72 54.0948 380.104C54.0948 380.736 53.8388 381.236 53.3268 381.604C52.8228 381.964 52.1428 382.144 51.2868 382.144Z" fill="var(--colors-neutral-neutral-800)"/>
<rect x="64" y="370" width="16" height="16" rx="8" fill="var(--colors-neutral-neutral-300)"/>
<path d="M69.518 381.5V380.74C70.438 380.053 71.178 379.457 71.738 378.95C72.298 378.437 72.7047 377.983 72.958 377.59C73.2114 377.19 73.338 376.827 73.338 376.5C73.338 376.14 73.2247 375.85 72.998 375.63C72.778 375.41 72.468 375.3 72.068 375.3C71.648 375.3 71.3014 375.43 71.028 375.69C70.7547 375.943 70.608 376.303 70.588 376.77H69.518C69.5514 376.27 69.678 375.843 69.898 375.49C70.1247 375.13 70.4247 374.86 70.798 374.68C71.178 374.493 71.608 374.4 72.088 374.4C72.568 374.4 72.9847 374.487 73.338 374.66C73.6914 374.827 73.9614 375.067 74.148 375.38C74.3414 375.687 74.438 376.043 74.438 376.45C74.438 376.89 74.3247 377.323 74.098 377.75C73.878 378.17 73.5214 378.613 73.028 379.08C72.5414 379.54 71.8947 380.047 71.088 380.6H74.458V381.5H69.518Z" fill="var(--colors-neutral-neutral-800)"/>
<path d="M241.615 387C241.155 387 240.771 386.846 240.463 386.538C240.154 386.229 240 385.845 240 385.385V372.615C240 372.155 240.154 371.771 240.463 371.463C240.771 371.154 241.155 371 241.615 371H243.385V368.769H244.462V371H251.615V368.769H252.615V371H254.385C254.845 371 255.229 371.154 255.538 371.463C255.846 371.771 256 372.155 256 372.615V385.385C256 385.845 255.846 386.229 255.538 386.538C255.229 386.846 254.845 387 254.385 387H241.615ZM241.615 386H254.385C254.538 386 254.679 385.936 254.808 385.808C254.936 385.679 255 385.538 255 385.385V376.615H241V385.385C241 385.538 241.064 385.679 241.192 385.808C241.321 385.936 241.462 386 241.615 386ZM241 375.615H255V372.615C255 372.462 254.936 372.321 254.808 372.192C254.679 372.064 254.538 372 254.385 372H241.615C241.462 372 241.321 372.064 241.192 372.192C241.064 372.321 241 372.462 241 372.615V375.615ZM243.5 379.5V378.5H252.5V379.5H243.5ZM243.5 383.5V382.5H249.5V383.5H243.5Z" fill="var(--colors-neutral-neutral-800)"/>
<path d="M280 380.702L274.692 375.394L275.4 374.687L280 379.287L284.6 374.687L285.308 375.394L280 380.702Z" fill="var(--colors-neutral-neutral-800)"/>
<path d="M304 449.5H0V450.5H304V449.5Z" fill="var(--colors-neutral-neutral-400)"/>
<path d="M17.212 430V421.624H18.724V428.74H22.996V430H17.212ZM29.2887 430L29.2287 428.596V425.62C29.2287 425.204 29.0887 424.876 28.8087 424.636C28.5287 424.396 28.1407 424.276 27.6447 424.276C27.1727 424.276 26.7847 424.384 26.4807 424.6C26.1847 424.816 26.0167 425.112 25.9767 425.488H24.5847C24.6247 425.016 24.7767 424.612 25.0407 424.276C25.3127 423.94 25.6727 423.684 26.1207 423.508C26.5767 423.324 27.1007 423.232 27.6927 423.232C28.3007 423.232 28.8247 423.328 29.2647 423.52C29.7127 423.712 30.0567 423.992 30.2967 424.36C30.5367 424.728 30.6567 425.176 30.6567 425.704V430H29.2887ZM26.9847 430.144C26.5527 430.144 26.1687 430.064 25.8327 429.904C25.5047 429.744 25.2487 429.516 25.0647 429.22C24.8807 428.924 24.7887 428.58 24.7887 428.188C24.7887 427.508 25.0527 426.98 25.5807 426.604C26.1087 426.22 26.8407 426.028 27.7767 426.028H29.3967V427.06L27.7287 427.072C27.2487 427.072 26.8727 427.164 26.6007 427.348C26.3287 427.524 26.1927 427.78 26.1927 428.116C26.1927 428.38 26.2887 428.592 26.4807 428.752C26.6807 428.912 26.9527 428.992 27.2967 428.992C27.7367 428.992 28.1287 428.876 28.4727 428.644C28.8247 428.404 29.1087 428.076 29.3247 427.66L29.4807 428.668C29.2727 429.156 28.9567 429.524 28.5327 429.772C28.1087 430.02 27.5927 430.144 26.9847 430.144ZM34.8974 426.328L35.5094 427.996L36.1334 426.316L37.3814 423.376H38.8454L35.8214 430.516C35.6374 430.964 35.4294 431.316 35.1974 431.572C34.9734 431.828 34.7174 432.008 34.4294 432.112C34.1414 432.224 33.8094 432.28 33.4334 432.28H32.2454V431.116H33.3134C33.5294 431.116 33.7094 431.068 33.8534 430.972C34.0054 430.884 34.1414 430.748 34.2614 430.564C34.3814 430.388 34.4974 430.168 34.6094 429.904L34.7774 429.52L32.1734 423.376H33.6614L34.8974 426.328ZM43.3861 430.144C42.6901 430.144 42.0901 430.008 41.5861 429.736C41.0821 429.456 40.6941 429.056 40.4221 428.536C40.1581 428.016 40.0261 427.396 40.0261 426.676C40.0261 425.956 40.1621 425.34 40.4341 424.828C40.7061 424.308 41.0981 423.912 41.6101 423.64C42.1221 423.368 42.7341 423.232 43.4461 423.232C44.5501 423.232 45.3621 423.54 45.8821 424.156C46.4101 424.772 46.6381 425.616 46.5661 426.688H41.1661L41.1781 425.644L45.1021 425.656C45.0701 425.272 44.9021 424.964 44.5981 424.732C44.2941 424.5 43.9101 424.384 43.4461 424.384C42.7901 424.384 42.2941 424.588 41.9581 424.996C41.6221 425.404 41.4541 425.984 41.4541 426.736C41.4541 427.168 41.5301 427.556 41.6821 427.9C41.8341 428.236 42.0501 428.5 42.3301 428.692C42.6181 428.876 42.9701 428.968 43.3861 428.968C43.8581 428.968 44.2501 428.856 44.5621 428.632C44.8821 428.408 45.0781 428.108 45.1501 427.732H46.5901C46.4941 428.476 46.1581 429.064 45.5821 429.496C45.0141 429.928 44.2821 430.144 43.3861 430.144ZM52.7988 426.376V425.548C52.7988 425.22 52.6988 424.956 52.4988 424.756C52.3068 424.548 52.0268 424.444 51.6588 424.444C51.2108 424.444 50.8028 424.608 50.4348 424.936C50.0668 425.264 49.7588 425.78 49.5108 426.484L49.3308 425.14C49.5148 424.724 49.7308 424.376 49.9788 424.096C50.2348 423.808 50.5228 423.592 50.8428 423.448C51.1708 423.304 51.5268 423.232 51.9108 423.232C52.5908 423.232 53.1468 423.432 53.5788 423.832C54.0108 424.232 54.2268 424.804 54.2268 425.548V426.376H52.7988ZM48.3348 430V423.376H49.6908L49.7628 424.78V430H48.3348ZM59.0914 430.144C58.4994 430.144 57.9754 430.044 57.5194 429.844C57.0714 429.636 56.7234 429.344 56.4754 428.968C56.2274 428.592 56.0994 428.148 56.0914 427.636H57.4354C57.4274 428.084 57.5714 428.436 57.8674 428.692C58.1714 428.948 58.5794 429.076 59.0914 429.076C59.4994 429.076 59.8274 429 60.0754 428.848C60.3234 428.696 60.4474 428.488 60.4474 428.224C60.4474 428.016 60.3714 427.848 60.2194 427.72C60.0674 427.592 59.8634 427.492 59.6074 427.42C59.3594 427.348 59.0834 427.284 58.7794 427.228C58.4834 427.164 58.1834 427.092 57.8794 427.012C57.5754 426.924 57.2954 426.812 57.0394 426.676C56.7914 426.532 56.5914 426.344 56.4394 426.112C56.2874 425.88 56.2114 425.584 56.2114 425.224C56.2114 424.832 56.3194 424.488 56.5354 424.192C56.7594 423.888 57.0754 423.652 57.4834 423.484C57.8914 423.316 58.3714 423.232 58.9234 423.232C59.7554 423.232 60.4274 423.428 60.9394 423.82C61.4514 424.204 61.7274 424.736 61.7674 425.416H60.4354C60.4114 425.056 60.2634 424.78 59.9914 424.588C59.7274 424.396 59.3714 424.3 58.9234 424.3C58.5154 424.3 58.1994 424.38 57.9754 424.54C57.7594 424.7 57.6514 424.904 57.6514 425.152C57.6514 425.36 57.7274 425.52 57.8794 425.632C58.0394 425.744 58.2434 425.832 58.4914 425.896C58.7394 425.96 59.0154 426.02 59.3194 426.076C59.6234 426.124 59.9234 426.188 60.2194 426.268C60.5234 426.348 60.7994 426.46 61.0474 426.604C61.3034 426.74 61.5074 426.928 61.6594 427.168C61.8194 427.408 61.8994 427.72 61.8994 428.104C61.8994 428.736 61.6434 429.236 61.1314 429.604C60.6274 429.964 59.9474 430.144 59.0914 430.144Z" fill="var(--colors-neutral-neutral-800)"/>
<path d="M280 428.702L274.692 423.394L275.4 422.687L280 427.287L284.6 422.687L285.308 423.394L280 428.702Z" fill="var(--colors-neutral-neutral-800)"/>
</svg>
