<svg width="304" height="32" viewBox="0 0 304 32" fill="none" xmlns="http://www.w3.org/2000/svg">
<path d="M54.5182 15.0088L51.9996 17.5264L49.4821 15.0088H54.5182Z" fill="#808080" stroke="#808080" stroke-width="0.0166667"/>
<path d="M64.8807 19.5V12.2273H65.7614V18.7188H69.142V19.5H64.8807ZM71.9972 19.6278C71.6515 19.6278 71.3378 19.5627 71.0561 19.4325C70.7744 19.3 70.5507 19.1094 70.3849 18.8608C70.2192 18.6098 70.1364 18.3068 70.1364 17.9517C70.1364 17.6392 70.1979 17.3859 70.321 17.1918C70.4441 16.9953 70.6087 16.8414 70.8146 16.7301C71.0206 16.6188 71.2479 16.536 71.4964 16.4815C71.7474 16.4247 71.9995 16.3797 72.2528 16.3466C72.5843 16.304 72.853 16.272 73.0589 16.2507C73.2673 16.227 73.4188 16.188 73.5135 16.1335C73.6106 16.0791 73.6591 15.9844 73.6591 15.8494V15.821C73.6591 15.4706 73.5632 15.1984 73.3714 15.0043C73.1821 14.8101 72.8944 14.7131 72.5085 14.7131C72.1084 14.7131 71.7947 14.8007 71.5675 14.9759C71.3402 15.151 71.1804 15.3381 71.0881 15.5369L70.2926 15.2528C70.4347 14.9214 70.6241 14.6634 70.8608 14.4787C71.0999 14.2917 71.3603 14.1615 71.642 14.0881C71.9261 14.0123 72.2055 13.9744 72.4801 13.9744C72.6553 13.9744 72.8565 13.9957 73.0838 14.0384C73.3134 14.0786 73.5348 14.1626 73.7479 14.2905C73.9633 14.4183 74.142 14.6113 74.2841 14.8693C74.4261 15.1274 74.4972 15.473 74.4972 15.9062V19.5H73.6591V18.7614H73.6165C73.5597 18.8797 73.465 19.0064 73.3324 19.1413C73.1998 19.2763 73.0234 19.3911 72.8033 19.4858C72.5831 19.5805 72.3144 19.6278 71.9972 19.6278ZM72.125 18.875C72.4564 18.875 72.7358 18.8099 72.9631 18.6797C73.1927 18.5495 73.3655 18.3814 73.4815 18.1754C73.5999 17.9695 73.6591 17.7528 73.6591 17.5256V16.7585C73.6236 16.8011 73.5455 16.8402 73.4247 16.8757C73.3063 16.9089 73.169 16.9384 73.0128 16.9645C72.8589 16.9882 72.7086 17.0095 72.5618 17.0284C72.4174 17.045 72.3002 17.0592 72.2102 17.071C71.9924 17.0994 71.7888 17.1456 71.5994 17.2095C71.4124 17.2711 71.2609 17.3646 71.1449 17.4901C71.0313 17.6132 70.9744 17.7812 70.9744 17.9943C70.9744 18.2855 71.0821 18.5057 71.2976 18.6548C71.5154 18.8016 71.7912 18.875 72.125 18.875ZM76.1404 19.5V12.2273H76.9785V14.9119H77.0495C77.1111 14.8172 77.1963 14.6965 77.3052 14.5497C77.4165 14.4006 77.5751 14.268 77.7811 14.152C77.9894 14.0336 78.2711 13.9744 78.6262 13.9744C79.0855 13.9744 79.4904 14.0893 79.8407 14.3189C80.1911 14.5485 80.4645 14.8741 80.661 15.2955C80.8575 15.7169 80.9558 16.214 80.9558 16.7869C80.9558 17.3646 80.8575 17.8653 80.661 18.2891C80.4645 18.7105 80.1923 19.0372 79.8443 19.2692C79.4963 19.4988 79.095 19.6136 78.6404 19.6136C78.2901 19.6136 78.0095 19.5556 77.7988 19.4396C77.5881 19.3213 77.426 19.1875 77.3123 19.0384C77.1987 18.8868 77.1111 18.7614 77.0495 18.6619H76.9501V19.5H76.1404ZM76.9643 16.7727C76.9643 17.1847 77.0247 17.5481 77.1454 17.8629C77.2662 18.1754 77.4425 18.4205 77.6745 18.598C77.9065 18.7732 78.1906 18.8608 78.5268 18.8608C78.8772 18.8608 79.1696 18.7685 79.4039 18.5838C79.6407 18.3968 79.8182 18.1458 79.9366 17.831C80.0574 17.5137 80.1177 17.161 80.1177 16.7727C80.1177 16.3892 80.0585 16.0436 79.9402 15.7358C79.8242 15.4257 79.6478 15.1806 79.411 15.0007C79.1767 14.8184 78.8819 14.7273 78.5268 14.7273C78.1859 14.7273 77.8994 14.8137 77.6674 14.9865C77.4354 15.157 77.2602 15.3961 77.1419 15.7038C77.0235 16.0092 76.9643 16.3655 76.9643 16.7727ZM84.5247 19.6136C83.9991 19.6136 83.5458 19.4976 83.1646 19.2656C82.7858 19.0312 82.4934 18.7045 82.2875 18.2855C82.0839 17.8641 81.9821 17.3741 81.9821 16.8153C81.9821 16.2566 82.0839 15.7642 82.2875 15.3381C82.4934 14.9096 82.7799 14.5758 83.1468 14.3366C83.5162 14.0952 83.947 13.9744 84.4395 13.9744C84.7235 13.9744 85.0041 14.0218 85.2811 14.1165C85.5581 14.2112 85.8102 14.3651 86.0375 14.5781C86.2647 14.7888 86.4458 15.0682 86.5808 15.4162C86.7157 15.7642 86.7832 16.1927 86.7832 16.7017V17.0568H82.5787V16.3324H85.9309C85.9309 16.0246 85.8694 15.75 85.7463 15.5085C85.6255 15.267 85.4527 15.0765 85.2278 14.9368C85.0053 14.7971 84.7425 14.7273 84.4395 14.7273C84.1056 14.7273 83.8168 14.8101 83.573 14.9759C83.3315 15.1392 83.1457 15.3523 83.0154 15.6151C82.8852 15.8778 82.8201 16.1596 82.8201 16.4602V16.9432C82.8201 17.3551 82.8912 17.7043 83.0332 17.9908C83.1776 18.2749 83.3777 18.4915 83.6333 18.6406C83.889 18.7874 84.1861 18.8608 84.5247 18.8608C84.7449 18.8608 84.9437 18.83 85.1213 18.7685C85.3012 18.7045 85.4563 18.6098 85.5865 18.4844C85.7167 18.3565 85.8173 18.1979 85.8883 18.0085L86.698 18.2358C86.6127 18.5104 86.4695 18.7519 86.2683 18.9602C86.0671 19.1662 85.8185 19.3272 85.5225 19.4432C85.2266 19.5568 84.894 19.6136 84.5247 19.6136ZM88.8961 12.2273V19.5H88.0581V12.2273H88.8961Z" fill="#222222"/>
</svg>
