<svg width="327" height="415" viewBox="0 0 327 415" fill="none" xmlns="http://www.w3.org/2000/svg">
<g filter="url(#filter0_d_4352_41198)">
<rect width="305" height="393" transform="translate(11 9)" fill="white"/>
<path d="M28.644 38.888V37.808H33.288V38.888H28.644ZM29.988 32.624H31.812L34.404 41H33.096L31.404 35.456L30.9 33.62L30.396 35.468L28.68 41H27.396L29.988 32.624ZM38.1167 34.256C38.5727 34.256 38.9887 34.348 39.3647 34.532C39.7407 34.708 40.0447 34.956 40.2767 35.276V32.18H41.4767V41H40.3367L40.3007 40.076C40.0687 40.396 39.7607 40.656 39.3767 40.856C39.0007 41.048 38.5807 41.144 38.1167 41.144C37.5327 41.144 37.0167 40.996 36.5687 40.7C36.1207 40.404 35.7687 39.996 35.5127 39.476C35.2647 38.956 35.1407 38.364 35.1407 37.7C35.1407 37.028 35.2647 36.432 35.5127 35.912C35.7687 35.392 36.1207 34.988 36.5687 34.7C37.0167 34.404 37.5327 34.256 38.1167 34.256ZM38.3807 40.124C38.8127 40.124 39.1967 40.004 39.5327 39.764C39.8687 39.516 40.1167 39.184 40.2767 38.768V36.62C40.1167 36.196 39.8687 35.868 39.5327 35.636C39.1967 35.396 38.8127 35.276 38.3807 35.276C37.9807 35.276 37.6287 35.38 37.3247 35.588C37.0207 35.788 36.7807 36.072 36.6047 36.44C36.4367 36.8 36.3527 37.22 36.3527 37.7C36.3527 38.172 36.4367 38.592 36.6047 38.96C36.7807 39.32 37.0207 39.604 37.3247 39.812C37.6287 40.02 37.9807 40.124 38.3807 40.124ZM45.3454 41L42.7654 34.4H44.0494L45.5734 38.372L46.0414 39.884L46.5214 38.372L48.0454 34.4H49.2814L46.7134 41H45.3454ZM55.3221 41L55.2741 39.5V36.68C55.2741 36.208 55.1181 35.84 54.8061 35.576C54.5021 35.304 54.0821 35.168 53.5461 35.168C53.0261 35.168 52.6021 35.288 52.2741 35.528C51.9461 35.76 51.7661 36.084 51.7341 36.5H50.5461C50.5861 36.028 50.7381 35.628 51.0021 35.3C51.2661 34.964 51.6181 34.708 52.0581 34.532C52.4981 34.348 53.0061 34.256 53.5821 34.256C54.1741 34.256 54.6861 34.356 55.1181 34.556C55.5501 34.748 55.8821 35.028 56.1141 35.396C56.3541 35.764 56.4741 36.212 56.4741 36.74V41H55.3221ZM52.9341 41.144C52.5021 41.144 52.1221 41.068 51.7941 40.916C51.4661 40.756 51.2101 40.532 51.0261 40.244C50.8421 39.948 50.7501 39.604 50.7501 39.212C50.7501 38.532 51.0101 38.004 51.5301 37.628C52.0581 37.252 52.7941 37.064 53.7381 37.064H55.4301V37.964H53.6901C53.1461 37.964 52.7181 38.068 52.4061 38.276C52.1021 38.484 51.9501 38.776 51.9501 39.152C51.9501 39.464 52.0581 39.708 52.2741 39.884C52.4981 40.06 52.7981 40.148 53.1741 40.148C53.6541 40.148 54.0781 40.02 54.4461 39.764C54.8221 39.5 55.1261 39.14 55.3581 38.684L55.4901 39.572C55.2821 40.076 54.9621 40.464 54.5301 40.736C54.0981 41.008 53.5661 41.144 52.9341 41.144ZM62.9348 41V36.836C62.9348 36.372 62.8028 36 62.5388 35.72C62.2748 35.432 61.9308 35.288 61.5068 35.288C61.0188 35.288 60.5828 35.468 60.1988 35.828C59.8228 36.18 59.5228 36.732 59.2988 37.484L59.1068 36.128C59.3548 35.504 59.7108 35.036 60.1748 34.724C60.6468 34.412 61.1588 34.256 61.7108 34.256C62.2068 34.256 62.6348 34.364 62.9948 34.58C63.3628 34.788 63.6468 35.08 63.8468 35.456C64.0468 35.832 64.1468 36.276 64.1468 36.788V41H62.9348ZM58.2308 41V34.4H59.3828L59.4428 35.888V41H58.2308ZM68.9154 41.144C68.2354 41.144 67.6434 41.004 67.1394 40.724C66.6434 40.436 66.2594 40.036 65.9874 39.524C65.7154 39.004 65.5794 38.396 65.5794 37.7C65.5794 36.988 65.7194 36.376 65.9994 35.864C66.2794 35.344 66.6714 34.948 67.1754 34.676C67.6794 34.396 68.2674 34.256 68.9394 34.256C69.4754 34.256 69.9554 34.356 70.3794 34.556C70.8114 34.748 71.1594 35.024 71.4234 35.384C71.6954 35.744 71.8514 36.172 71.8914 36.668H70.6794C70.6154 36.22 70.4234 35.876 70.1034 35.636C69.7914 35.388 69.4034 35.264 68.9394 35.264C68.5074 35.264 68.1314 35.364 67.8114 35.564C67.4914 35.756 67.2434 36.032 67.0674 36.392C66.8914 36.752 66.8034 37.188 66.8034 37.7C66.8034 38.46 66.9954 39.056 67.3794 39.488C67.7714 39.92 68.2834 40.136 68.9154 40.136C69.2034 40.136 69.4714 40.08 69.7194 39.968C69.9674 39.856 70.1794 39.696 70.3554 39.488C70.5314 39.272 70.6514 39.024 70.7154 38.744H71.9394C71.8594 39.24 71.6754 39.668 71.3874 40.028C71.1074 40.38 70.7514 40.656 70.3194 40.856C69.8954 41.048 69.4274 41.144 68.9154 41.144ZM76.3601 41.144C75.6801 41.144 75.0921 41.008 74.5961 40.736C74.1001 40.456 73.7201 40.06 73.4561 39.548C73.1921 39.028 73.0601 38.408 73.0601 37.688C73.0601 36.968 73.1921 36.352 73.4561 35.84C73.7281 35.328 74.1121 34.936 74.6081 34.664C75.1121 34.392 75.7121 34.256 76.4081 34.256C77.4721 34.256 78.2641 34.552 78.7841 35.144C79.3041 35.728 79.5321 36.532 79.4681 37.556H74.0201L74.0321 36.644L78.2321 36.656C78.2001 36.232 78.0161 35.892 77.6801 35.636C77.3441 35.38 76.9201 35.252 76.4081 35.252C75.7201 35.252 75.1921 35.468 74.8241 35.9C74.4561 36.332 74.2721 36.944 74.2721 37.736C74.2721 38.208 74.3521 38.628 74.5121 38.996C74.6801 39.356 74.9201 39.636 75.2321 39.836C75.5441 40.036 75.9201 40.136 76.3601 40.136C76.8801 40.136 77.3121 40.012 77.6561 39.764C78.0081 39.516 78.2241 39.18 78.3041 38.756H79.5161C79.4121 39.5 79.0801 40.084 78.5201 40.508C77.9601 40.932 77.2401 41.144 76.3601 41.144ZM83.5048 34.256C83.9608 34.256 84.3768 34.348 84.7528 34.532C85.1288 34.708 85.4328 34.956 85.6648 35.276V32.18H86.8648V41H85.7248L85.6888 40.076C85.4568 40.396 85.1488 40.656 84.7648 40.856C84.3888 41.048 83.9688 41.144 83.5048 41.144C82.9208 41.144 82.4048 40.996 81.9568 40.7C81.5088 40.404 81.1568 39.996 80.9008 39.476C80.6528 38.956 80.5288 38.364 80.5288 37.7C80.5288 37.028 80.6528 36.432 80.9008 35.912C81.1568 35.392 81.5088 34.988 81.9568 34.7C82.4048 34.404 82.9208 34.256 83.5048 34.256ZM83.7688 40.124C84.2008 40.124 84.5848 40.004 84.9208 39.764C85.2568 39.516 85.5048 39.184 85.6648 38.768V36.62C85.5048 36.196 85.2568 35.868 84.9208 35.636C84.5848 35.396 84.2008 35.276 83.7688 35.276C83.3688 35.276 83.0168 35.38 82.7128 35.588C82.4088 35.788 82.1688 36.072 81.9928 36.44C81.8248 36.8 81.7408 37.22 81.7408 37.7C81.7408 38.172 81.8248 38.592 81.9928 38.96C82.1688 39.32 82.4088 39.604 82.7128 39.812C83.0168 40.02 83.3688 40.124 83.7688 40.124ZM100.782 37.232V36.44C100.782 36.096 100.678 35.82 100.47 35.612C100.262 35.396 99.9622 35.288 99.5702 35.288C99.0742 35.288 98.6302 35.476 98.2382 35.852C97.8462 36.22 97.5342 36.784 97.3022 37.544L97.1342 36.32C97.3102 35.864 97.5222 35.484 97.7702 35.18C98.0262 34.876 98.3182 34.648 98.6462 34.496C98.9822 34.336 99.3502 34.256 99.7502 34.256C100.414 34.256 100.954 34.448 101.37 34.832C101.786 35.208 101.994 35.744 101.994 36.44V37.232H100.782ZM96.3182 41V34.4H97.4582L97.5302 35.9V41H96.3182ZM108.275 41L108.227 39.5V36.68C108.227 36.208 108.071 35.84 107.759 35.576C107.455 35.304 107.035 35.168 106.499 35.168C105.979 35.168 105.555 35.288 105.227 35.528C104.899 35.76 104.719 36.084 104.687 36.5H103.499C103.539 36.028 103.691 35.628 103.955 35.3C104.219 34.964 104.571 34.708 105.011 34.532C105.451 34.348 105.959 34.256 106.535 34.256C107.127 34.256 107.639 34.356 108.071 34.556C108.503 34.748 108.835 35.028 109.067 35.396C109.307 35.764 109.427 36.212 109.427 36.74V41H108.275ZM105.887 41.144C105.455 41.144 105.075 41.068 104.747 40.916C104.419 40.756 104.163 40.532 103.979 40.244C103.795 39.948 103.703 39.604 103.703 39.212C103.703 38.532 103.963 38.004 104.483 37.628C105.011 37.252 105.747 37.064 106.691 37.064H108.383V37.964H106.643C106.099 37.964 105.671 38.068 105.359 38.276C105.055 38.484 104.903 38.776 104.903 39.152C104.903 39.464 105.011 39.708 105.227 39.884C105.451 40.06 105.751 40.148 106.127 40.148C106.607 40.148 107.031 40.02 107.399 39.764C107.775 39.5 108.079 39.14 108.311 38.684L108.443 39.572C108.235 40.076 107.915 40.464 107.483 40.736C107.051 41.008 106.519 41.144 105.887 41.144ZM114.304 41.144C113.624 41.144 113.032 41.004 112.528 40.724C112.032 40.436 111.648 40.036 111.376 39.524C111.104 39.004 110.968 38.396 110.968 37.7C110.968 36.988 111.108 36.376 111.388 35.864C111.668 35.344 112.06 34.948 112.564 34.676C113.068 34.396 113.656 34.256 114.328 34.256C114.864 34.256 115.344 34.356 115.768 34.556C116.2 34.748 116.548 35.024 116.812 35.384C117.084 35.744 117.24 36.172 117.28 36.668H116.068C116.004 36.22 115.812 35.876 115.492 35.636C115.18 35.388 114.792 35.264 114.328 35.264C113.896 35.264 113.52 35.364 113.2 35.564C112.88 35.756 112.632 36.032 112.456 36.392C112.28 36.752 112.192 37.188 112.192 37.7C112.192 38.46 112.384 39.056 112.768 39.488C113.16 39.92 113.672 40.136 114.304 40.136C114.592 40.136 114.86 40.08 115.108 39.968C115.356 39.856 115.568 39.696 115.744 39.488C115.92 39.272 116.04 39.024 116.104 38.744H117.328C117.248 39.24 117.064 39.668 116.776 40.028C116.496 40.38 116.14 40.656 115.708 40.856C115.284 41.048 114.816 41.144 114.304 41.144ZM118.592 41V32.18H119.804V35.48L119.744 37.292L121.016 36.008L122.816 34.4H124.424L119.804 38.6V41H118.592ZM123.14 41L120.824 36.956L121.892 36.428L124.556 41H123.14ZM128.701 41V34.4H129.913V41H128.701ZM126.265 41V40.016H132.181V41H126.265ZM127.141 35.384V34.4H129.301V35.384H127.141ZM128.617 33.272V31.964H129.973V33.272H128.617ZM138.582 41V36.836C138.582 36.372 138.45 36 138.186 35.72C137.922 35.432 137.578 35.288 137.154 35.288C136.666 35.288 136.23 35.468 135.846 35.828C135.47 36.18 135.17 36.732 134.946 37.484L134.754 36.128C135.002 35.504 135.358 35.036 135.822 34.724C136.294 34.412 136.806 34.256 137.358 34.256C137.854 34.256 138.282 34.364 138.642 34.58C139.01 34.788 139.294 35.08 139.494 35.456C139.694 35.832 139.794 36.276 139.794 36.788V41H138.582ZM133.878 41V34.4H135.03L135.09 35.888V41H133.878ZM146.206 35.348L146.242 34.4H147.382V40.28C147.382 41.256 147.118 42 146.59 42.512C146.07 43.024 145.282 43.28 144.226 43.28C143.642 43.28 143.134 43.2 142.702 43.04C142.278 42.88 141.942 42.64 141.694 42.32C141.454 42.008 141.318 41.616 141.286 41.144H142.546C142.586 41.504 142.746 41.78 143.026 41.972C143.314 42.172 143.734 42.272 144.286 42.272C144.91 42.272 145.378 42.112 145.69 41.792C146.01 41.472 146.17 41.016 146.17 40.424V39.548C145.946 39.884 145.646 40.148 145.27 40.34C144.902 40.532 144.49 40.628 144.034 40.628C143.466 40.628 142.962 40.492 142.522 40.22C142.09 39.948 141.75 39.572 141.502 39.092C141.254 38.604 141.13 38.056 141.13 37.448C141.13 36.792 141.258 36.228 141.514 35.756C141.77 35.276 142.122 34.908 142.57 34.652C143.018 34.388 143.526 34.256 144.094 34.256C144.55 34.256 144.962 34.356 145.33 34.556C145.698 34.756 145.99 35.02 146.206 35.348ZM144.298 39.68C144.73 39.68 145.114 39.556 145.45 39.308C145.794 39.052 146.034 38.708 146.17 38.276V36.608C146.034 36.176 145.794 35.836 145.45 35.588C145.114 35.332 144.73 35.204 144.298 35.204C143.906 35.204 143.562 35.3 143.266 35.492C142.978 35.684 142.75 35.948 142.582 36.284C142.422 36.612 142.342 36.996 142.342 37.436C142.342 37.868 142.422 38.256 142.582 38.6C142.75 38.936 142.978 39.2 143.266 39.392C143.562 39.584 143.906 39.68 144.298 39.68ZM159.68 41.144C159.096 41.144 158.58 41.044 158.132 40.844C157.692 40.636 157.352 40.348 157.112 39.98C156.872 39.604 156.748 39.156 156.74 38.636H157.88C157.88 39.124 158.044 39.508 158.372 39.788C158.7 40.068 159.132 40.208 159.668 40.208C160.124 40.208 160.488 40.124 160.76 39.956C161.04 39.78 161.18 39.544 161.18 39.248C161.18 39.016 161.1 38.832 160.94 38.696C160.788 38.552 160.584 38.44 160.328 38.36C160.072 38.28 159.788 38.212 159.476 38.156C159.172 38.092 158.864 38.02 158.552 37.94C158.248 37.852 157.968 37.744 157.712 37.616C157.456 37.48 157.248 37.3 157.088 37.076C156.928 36.852 156.848 36.56 156.848 36.2C156.848 35.824 156.956 35.492 157.172 35.204C157.388 34.908 157.692 34.676 158.084 34.508C158.484 34.34 158.956 34.256 159.5 34.256C160.324 34.256 160.984 34.448 161.48 34.832C161.984 35.208 162.256 35.728 162.296 36.392H161.156C161.132 36.008 160.972 35.712 160.676 35.504C160.388 35.288 159.996 35.18 159.5 35.18C159.036 35.18 158.68 35.272 158.432 35.456C158.192 35.64 158.072 35.872 158.072 36.152C158.072 36.368 158.152 36.54 158.312 36.668C158.472 36.788 158.68 36.884 158.936 36.956C159.192 37.02 159.472 37.08 159.776 37.136C160.088 37.184 160.396 37.248 160.7 37.328C161.012 37.408 161.296 37.52 161.552 37.664C161.808 37.8 162.012 37.988 162.164 38.228C162.324 38.468 162.404 38.78 162.404 39.164C162.404 39.78 162.156 40.264 161.66 40.616C161.164 40.968 160.504 41.144 159.68 41.144ZM167.136 41.144C166.456 41.144 165.868 41.008 165.372 40.736C164.876 40.456 164.496 40.06 164.232 39.548C163.968 39.028 163.836 38.408 163.836 37.688C163.836 36.968 163.968 36.352 164.232 35.84C164.504 35.328 164.888 34.936 165.384 34.664C165.888 34.392 166.488 34.256 167.184 34.256C168.248 34.256 169.04 34.552 169.56 35.144C170.08 35.728 170.308 36.532 170.244 37.556H164.796L164.808 36.644L169.008 36.656C168.976 36.232 168.792 35.892 168.456 35.636C168.12 35.38 167.696 35.252 167.184 35.252C166.496 35.252 165.968 35.468 165.6 35.9C165.232 36.332 165.048 36.944 165.048 37.736C165.048 38.208 165.128 38.628 165.288 38.996C165.456 39.356 165.696 39.636 166.008 39.836C166.32 40.036 166.696 40.136 167.136 40.136C167.656 40.136 168.088 40.012 168.432 39.764C168.784 39.516 169 39.18 169.08 38.756H170.292C170.188 39.5 169.856 40.084 169.296 40.508C168.736 40.932 168.016 41.144 167.136 41.144ZM175.169 41C174.761 41 174.413 40.92 174.125 40.76C173.837 40.592 173.621 40.356 173.477 40.052C173.333 39.748 173.261 39.392 173.261 38.984V33.152L174.473 32.492V38.984C174.473 39.176 174.501 39.352 174.557 39.512C174.613 39.672 174.721 39.796 174.881 39.884C175.049 39.972 175.293 40.016 175.613 40.016H177.593V41H175.169ZM171.701 35.384V34.4H176.537V35.384H171.701ZM182.734 41C182.326 41 181.978 40.92 181.69 40.76C181.402 40.592 181.186 40.356 181.042 40.052C180.898 39.748 180.826 39.392 180.826 38.984V33.152L182.038 32.492V38.984C182.038 39.176 182.066 39.352 182.122 39.512C182.178 39.672 182.286 39.796 182.446 39.884C182.614 39.972 182.858 40.016 183.178 40.016H185.158V41H182.734ZM179.266 35.384V34.4H184.102V35.384H179.266ZM189.218 41V34.4H190.43V41H189.218ZM186.782 41V40.016H192.698V41H186.782ZM187.658 35.384V34.4H189.818V35.384H187.658ZM189.134 33.272V31.964H190.49V33.272H189.134ZM199.099 41V36.836C199.099 36.372 198.967 36 198.703 35.72C198.439 35.432 198.095 35.288 197.671 35.288C197.183 35.288 196.747 35.468 196.363 35.828C195.987 36.18 195.687 36.732 195.463 37.484L195.271 36.128C195.519 35.504 195.875 35.036 196.339 34.724C196.811 34.412 197.323 34.256 197.875 34.256C198.371 34.256 198.799 34.364 199.159 34.58C199.527 34.788 199.811 35.08 200.011 35.456C200.211 35.832 200.311 36.276 200.311 36.788V41H199.099ZM194.395 41V34.4H195.547L195.607 35.888V41H194.395ZM206.724 35.348L206.76 34.4H207.9V40.28C207.9 41.256 207.636 42 207.108 42.512C206.588 43.024 205.8 43.28 204.744 43.28C204.16 43.28 203.652 43.2 203.22 43.04C202.796 42.88 202.46 42.64 202.212 42.32C201.972 42.008 201.836 41.616 201.804 41.144H203.064C203.104 41.504 203.264 41.78 203.544 41.972C203.832 42.172 204.252 42.272 204.804 42.272C205.428 42.272 205.896 42.112 206.208 41.792C206.528 41.472 206.688 41.016 206.688 40.424V39.548C206.464 39.884 206.164 40.148 205.788 40.34C205.42 40.532 205.008 40.628 204.552 40.628C203.984 40.628 203.48 40.492 203.04 40.22C202.608 39.948 202.268 39.572 202.02 39.092C201.772 38.604 201.648 38.056 201.648 37.448C201.648 36.792 201.776 36.228 202.032 35.756C202.288 35.276 202.64 34.908 203.088 34.652C203.536 34.388 204.044 34.256 204.612 34.256C205.068 34.256 205.48 34.356 205.848 34.556C206.216 34.756 206.508 35.02 206.724 35.348ZM204.816 39.68C205.248 39.68 205.632 39.556 205.968 39.308C206.312 39.052 206.552 38.708 206.688 38.276V36.608C206.552 36.176 206.312 35.836 205.968 35.588C205.632 35.332 205.248 35.204 204.816 35.204C204.424 35.204 204.08 35.3 203.784 35.492C203.496 35.684 203.268 35.948 203.1 36.284C202.94 36.612 202.86 36.996 202.86 37.436C202.86 37.868 202.94 38.256 203.1 38.6C203.268 38.936 203.496 39.2 203.784 39.392C204.08 39.584 204.424 39.68 204.816 39.68ZM212.633 41.144C212.049 41.144 211.533 41.044 211.085 40.844C210.645 40.636 210.305 40.348 210.065 39.98C209.825 39.604 209.701 39.156 209.693 38.636H210.833C210.833 39.124 210.997 39.508 211.325 39.788C211.653 40.068 212.085 40.208 212.621 40.208C213.077 40.208 213.441 40.124 213.713 39.956C213.993 39.78 214.133 39.544 214.133 39.248C214.133 39.016 214.053 38.832 213.893 38.696C213.741 38.552 213.537 38.44 213.281 38.36C213.025 38.28 212.741 38.212 212.429 38.156C212.125 38.092 211.817 38.02 211.505 37.94C211.201 37.852 210.921 37.744 210.665 37.616C210.409 37.48 210.201 37.3 210.041 37.076C209.881 36.852 209.801 36.56 209.801 36.2C209.801 35.824 209.909 35.492 210.125 35.204C210.341 34.908 210.645 34.676 211.037 34.508C211.437 34.34 211.909 34.256 212.453 34.256C213.277 34.256 213.937 34.448 214.433 34.832C214.937 35.208 215.209 35.728 215.249 36.392H214.109C214.085 36.008 213.925 35.712 213.629 35.504C213.341 35.288 212.949 35.18 212.453 35.18C211.989 35.18 211.633 35.272 211.385 35.456C211.145 35.64 211.025 35.872 211.025 36.152C211.025 36.368 211.105 36.54 211.265 36.668C211.425 36.788 211.633 36.884 211.889 36.956C212.145 37.02 212.425 37.08 212.729 37.136C213.041 37.184 213.349 37.248 213.653 37.328C213.965 37.408 214.249 37.52 214.505 37.664C214.761 37.8 214.965 37.988 215.117 38.228C215.277 38.468 215.357 38.78 215.357 39.164C215.357 39.78 215.109 40.264 214.613 40.616C214.117 40.968 213.457 41.144 212.633 41.144Z" fill="#222222"/>
<path d="M282.4 43.3078L281.692 42.6001L287.292 37.0001L281.692 31.4001L282.4 30.6924L288 36.2924L293.6 30.6924L294.308 31.4001L288.708 37.0001L294.308 42.6001L293.6 43.3078L288 37.7078L282.4 43.3078Z" fill="#222222"/>
<rect width="305" height="167" transform="translate(11 65)" fill="#FCFCFC"/>
<mask id="path-3-inside-1_4352_41198" fill="white">
<path d="M11 232H316V278H11V232Z"/>
</mask>
<path d="M316 277H11V279H316V277Z" fill="#E6E6E6" mask="url(#path-3-inside-1_4352_41198)"/>
<path d="M27.924 259V250.624H33.996V251.704H29.196V254.116H32.52V255.196H29.196V259H27.924ZM40.2647 255.232V254.44C40.2647 254.096 40.1607 253.82 39.9527 253.612C39.7447 253.396 39.4447 253.288 39.0527 253.288C38.5567 253.288 38.1127 253.476 37.7207 253.852C37.3287 254.22 37.0167 254.784 36.7847 255.544L36.6167 254.32C36.7927 253.864 37.0047 253.484 37.2527 253.18C37.5087 252.876 37.8007 252.648 38.1287 252.496C38.4647 252.336 38.8327 252.256 39.2327 252.256C39.8967 252.256 40.4367 252.448 40.8527 252.832C41.2687 253.208 41.4767 253.744 41.4767 254.44V255.232H40.2647ZM35.8007 259V252.4H36.9407L37.0127 253.9V259H35.8007ZM46.0174 259.144C45.3374 259.144 44.7494 259.004 44.2534 258.724C43.7654 258.444 43.3894 258.048 43.1254 257.536C42.8614 257.016 42.7294 256.404 42.7294 255.7C42.7294 254.98 42.8614 254.368 43.1254 253.864C43.3894 253.352 43.7654 252.956 44.2534 252.676C44.7494 252.396 45.3414 252.256 46.0294 252.256C47.0534 252.256 47.8574 252.564 48.4414 253.18C49.0254 253.788 49.3174 254.628 49.3174 255.7C49.3174 256.404 49.1854 257.016 48.9214 257.536C48.6574 258.048 48.2774 258.444 47.7814 258.724C47.2934 259.004 46.7054 259.144 46.0174 259.144ZM46.0294 258.136C46.6694 258.136 47.1734 257.92 47.5414 257.488C47.9174 257.048 48.1054 256.452 48.1054 255.7C48.1054 254.94 47.9174 254.344 47.5414 253.912C47.1734 253.48 46.6694 253.264 46.0294 253.264C45.3814 253.264 44.8734 253.48 44.5054 253.912C44.1374 254.344 43.9534 254.94 43.9534 255.7C43.9534 256.452 44.1374 257.048 44.5054 257.488C44.8734 257.92 45.3814 258.136 46.0294 258.136ZM55.3701 259V254.836C55.3701 254.372 55.2381 254 54.9741 253.72C54.7101 253.432 54.3661 253.288 53.9421 253.288C53.4541 253.288 53.0181 253.468 52.6341 253.828C52.2581 254.18 51.9581 254.732 51.7341 255.484L51.5421 254.128C51.7901 253.504 52.1461 253.036 52.6101 252.724C53.0821 252.412 53.5941 252.256 54.1461 252.256C54.6421 252.256 55.0701 252.364 55.4301 252.58C55.7981 252.788 56.0821 253.08 56.2821 253.456C56.4821 253.832 56.5821 254.276 56.5821 254.788V259H55.3701ZM50.6661 259V252.4H51.8181L51.8781 253.888V259H50.6661ZM61.6988 259C61.2908 259 60.9428 258.92 60.6548 258.76C60.3668 258.592 60.1508 258.356 60.0068 258.052C59.8628 257.748 59.7908 257.392 59.7908 256.984V251.152L61.0028 250.492V256.984C61.0028 257.176 61.0308 257.352 61.0868 257.512C61.1428 257.672 61.2508 257.796 61.4108 257.884C61.5788 257.972 61.8228 258.016 62.1428 258.016H64.1228V259H61.6988ZM58.2308 253.384V252.4H63.0668V253.384H58.2308Z" fill="#808080"/>
<path d="M93.972 259.144C93.3 259.144 92.72 259.016 92.232 258.76C91.744 258.504 91.368 258.14 91.104 257.668C90.84 257.196 90.708 256.636 90.708 255.988H92.424C92.424 256.54 92.552 256.964 92.808 257.26C93.072 257.556 93.46 257.704 93.972 257.704C94.38 257.704 94.704 257.616 94.944 257.44C95.192 257.256 95.316 256.996 95.316 256.66C95.316 256.42 95.236 256.228 95.076 256.084C94.916 255.94 94.7 255.824 94.428 255.736C94.164 255.64 93.872 255.552 93.552 255.472C93.24 255.392 92.924 255.296 92.604 255.184C92.284 255.072 91.988 254.928 91.716 254.752C91.452 254.576 91.24 254.344 91.08 254.056C90.92 253.76 90.84 253.388 90.84 252.94C90.84 252.476 90.964 252.06 91.212 251.692C91.468 251.316 91.824 251.02 92.28 250.804C92.736 250.588 93.272 250.48 93.888 250.48C94.456 250.48 94.976 250.588 95.448 250.804C95.928 251.02 96.316 251.332 96.612 251.74C96.908 252.148 97.064 252.644 97.08 253.228H95.328C95.32 252.94 95.244 252.7 95.1 252.508C94.964 252.316 94.788 252.172 94.572 252.076C94.364 251.972 94.136 251.92 93.888 251.92C93.528 251.92 93.228 252.004 92.988 252.172C92.756 252.34 92.64 252.58 92.64 252.892C92.64 253.116 92.72 253.296 92.88 253.432C93.04 253.568 93.252 253.68 93.516 253.768C93.788 253.848 94.084 253.928 94.404 254.008C94.724 254.08 95.04 254.172 95.352 254.284C95.672 254.388 95.964 254.536 96.228 254.728C96.5 254.912 96.716 255.16 96.876 255.472C97.036 255.784 97.116 256.18 97.116 256.66C97.116 257.148 96.98 257.58 96.708 257.956C96.436 258.332 96.064 258.624 95.592 258.832C95.12 259.04 94.58 259.144 93.972 259.144ZM100.901 259V252.352H102.545V259H100.901ZM98.6447 259V257.668H104.765V259H98.6447ZM99.4967 253.684V252.352H101.729V253.684H99.4967ZM100.829 251.38V249.784H102.605V251.38H100.829ZM109.089 252.208C109.497 252.208 109.873 252.288 110.217 252.448C110.569 252.6 110.861 252.808 111.093 253.072V250.144H112.725V259H111.153L111.117 258.244C110.885 258.516 110.593 258.736 110.241 258.904C109.897 259.064 109.513 259.144 109.089 259.144C108.513 259.144 108.001 258.992 107.553 258.688C107.105 258.376 106.753 257.96 106.497 257.44C106.241 256.912 106.113 256.324 106.113 255.676C106.113 255.02 106.241 254.432 106.497 253.912C106.753 253.384 107.105 252.968 107.553 252.664C108.001 252.36 108.513 252.208 109.089 252.208ZM109.497 257.776C109.865 257.776 110.189 257.668 110.469 257.452C110.757 257.228 110.965 256.932 111.093 256.564V254.776C110.965 254.4 110.757 254.108 110.469 253.9C110.189 253.684 109.865 253.576 109.497 253.576C109.161 253.576 108.861 253.668 108.597 253.852C108.333 254.028 108.129 254.276 107.985 254.596C107.841 254.908 107.769 255.268 107.769 255.676C107.769 256.076 107.841 256.436 107.985 256.756C108.129 257.068 108.333 257.316 108.597 257.5C108.861 257.684 109.161 257.776 109.497 257.776ZM117.386 259.144C116.674 259.144 116.062 259.004 115.55 258.724C115.046 258.444 114.654 258.044 114.374 257.524C114.102 257.004 113.966 256.388 113.966 255.676C113.966 254.948 114.102 254.328 114.374 253.816C114.654 253.296 115.054 252.9 115.574 252.628C116.094 252.348 116.722 252.208 117.458 252.208C118.602 252.208 119.434 252.528 119.954 253.168C120.482 253.808 120.706 254.688 120.626 255.808H115.286V254.656H118.946C118.914 254.312 118.758 254.036 118.478 253.828C118.206 253.612 117.862 253.504 117.446 253.504C116.83 253.504 116.37 253.696 116.066 254.08C115.77 254.464 115.622 255.02 115.622 255.748C115.622 256.132 115.69 256.48 115.826 256.792C115.962 257.104 116.158 257.352 116.414 257.536C116.678 257.72 117.002 257.812 117.386 257.812C117.802 257.812 118.154 257.708 118.442 257.5C118.738 257.292 118.918 257.024 118.982 256.696H120.626C120.538 257.448 120.206 258.044 119.63 258.484C119.054 258.924 118.306 259.144 117.386 259.144Z" fill="#222222"/>
<path d="M27.8807 309.5V302.227H32.2415V303.009H28.7614V305.466H31.9148V306.247H28.7614V309.5H27.8807ZM33.5776 309.5V304.045H34.3873V304.869H34.4441C34.5435 304.599 34.7234 304.38 34.9838 304.212C35.2443 304.044 35.5378 303.96 35.8645 303.96C35.9261 303.96 36.003 303.961 36.0953 303.964C36.1877 303.966 36.2575 303.97 36.3049 303.974V304.827C36.2765 304.82 36.2114 304.809 36.1096 304.795C36.0101 304.778 35.9048 304.77 35.7935 304.77C35.5284 304.77 35.2916 304.826 35.0833 304.937C34.8773 305.046 34.714 305.197 34.5932 305.391C34.4748 305.583 34.4157 305.802 34.4157 306.048V309.5H33.5776ZM38.9034 309.628C38.5578 309.628 38.2441 309.563 37.9624 309.433C37.6806 309.3 37.4569 309.109 37.2912 308.861C37.1255 308.61 37.0426 308.307 37.0426 307.952C37.0426 307.639 37.1042 307.386 37.2273 307.192C37.3504 306.995 37.5149 306.841 37.7209 306.73C37.9268 306.619 38.1541 306.536 38.4027 306.482C38.6536 306.425 38.9058 306.38 39.1591 306.347C39.4905 306.304 39.7592 306.272 39.9652 306.251C40.1735 306.227 40.325 306.188 40.4197 306.134C40.5168 306.079 40.5653 305.984 40.5653 305.849V305.821C40.5653 305.471 40.4695 305.198 40.2777 305.004C40.0883 304.81 39.8007 304.713 39.4148 304.713C39.0147 304.713 38.701 304.801 38.4737 304.976C38.2464 305.151 38.0866 305.338 37.9943 305.537L37.1989 305.253C37.3409 304.921 37.5303 304.663 37.767 304.479C38.0062 304.292 38.2666 304.161 38.5483 304.088C38.8324 304.012 39.1117 303.974 39.3864 303.974C39.5616 303.974 39.7628 303.996 39.9901 304.038C40.2197 304.079 40.4411 304.163 40.6541 304.29C40.8696 304.418 41.0483 304.611 41.1903 304.869C41.3324 305.127 41.4034 305.473 41.4034 305.906V309.5H40.5653V308.761H40.5227C40.4659 308.88 40.3712 309.006 40.2386 309.141C40.1061 309.276 39.9297 309.391 39.7095 309.486C39.4893 309.58 39.2206 309.628 38.9034 309.628ZM39.0312 308.875C39.3627 308.875 39.642 308.81 39.8693 308.68C40.099 308.549 40.2718 308.381 40.3878 308.175C40.5062 307.969 40.5653 307.753 40.5653 307.526V306.759C40.5298 306.801 40.4517 306.84 40.331 306.876C40.2126 306.909 40.0753 306.938 39.919 306.964C39.7652 306.988 39.6148 307.009 39.468 307.028C39.3236 307.045 39.2064 307.059 39.1165 307.071C38.8987 307.099 38.6951 307.146 38.5057 307.21C38.3187 307.271 38.1671 307.365 38.0511 307.49C37.9375 307.613 37.8807 307.781 37.8807 307.994C37.8807 308.286 37.9884 308.506 38.2038 308.655C38.4216 308.802 38.6974 308.875 39.0312 308.875ZM42.9331 309.5V304.045H43.7427V304.898H43.8137C43.9274 304.607 44.1109 304.38 44.3642 304.219C44.6175 304.056 44.9217 303.974 45.2768 303.974C45.6367 303.974 45.9361 304.056 46.1752 304.219C46.4167 304.38 46.6049 304.607 46.7399 304.898H46.7967C46.9364 304.616 47.1459 304.392 47.4252 304.227C47.7046 304.058 48.0396 303.974 48.4302 303.974C48.9179 303.974 49.3168 304.127 49.627 304.433C49.9371 304.736 50.0922 305.208 50.0922 305.849V309.5H49.2541V305.849C49.2541 305.447 49.144 305.159 48.9238 304.987C48.7037 304.814 48.4444 304.727 48.1461 304.727C47.7626 304.727 47.4655 304.843 47.2548 305.075C47.0441 305.305 46.9387 305.596 46.9387 305.949V309.5H46.0865V305.764C46.0865 305.454 45.9859 305.204 45.7846 305.015C45.5834 304.823 45.3242 304.727 45.0069 304.727C44.7891 304.727 44.5855 304.785 44.3961 304.901C44.2091 305.017 44.0576 305.178 43.9416 305.384C43.8279 305.588 43.7711 305.823 43.7711 306.091V309.5H42.9331ZM53.9114 309.614C53.3858 309.614 52.9325 309.498 52.5513 309.266C52.1725 309.031 51.8801 308.705 51.6742 308.286C51.4706 307.864 51.3688 307.374 51.3688 306.815C51.3688 306.257 51.4706 305.764 51.6742 305.338C51.8801 304.91 52.1666 304.576 52.5336 304.337C52.9029 304.095 53.3337 303.974 53.8262 303.974C54.1103 303.974 54.3908 304.022 54.6678 304.116C54.9448 304.211 55.1969 304.365 55.4242 304.578C55.6515 304.789 55.8326 305.068 55.9675 305.416C56.1025 305.764 56.1699 306.193 56.1699 306.702V307.057H51.9654V306.332H55.3176C55.3176 306.025 55.2561 305.75 55.133 305.509C55.0123 305.267 54.8394 305.076 54.6145 304.937C54.392 304.797 54.1292 304.727 53.8262 304.727C53.4924 304.727 53.2035 304.81 52.9597 304.976C52.7182 305.139 52.5324 305.352 52.4022 305.615C52.272 305.878 52.2069 306.16 52.2069 306.46V306.943C52.2069 307.355 52.2779 307.704 52.4199 307.991C52.5643 308.275 52.7644 308.491 53.0201 308.641C53.2757 308.787 53.5729 308.861 53.9114 308.861C54.1316 308.861 54.3304 308.83 54.508 308.768C54.6879 308.705 54.843 308.61 54.9732 308.484C55.1034 308.357 55.204 308.198 55.275 308.009L56.0847 308.236C55.9995 308.51 55.8562 308.752 55.655 308.96C55.4538 309.166 55.2052 309.327 54.9093 309.443C54.6133 309.557 54.2807 309.614 53.9114 309.614ZM62.3169 309.614C61.8624 309.614 61.4611 309.499 61.1131 309.269C60.7651 309.037 60.4928 308.71 60.2963 308.289C60.0998 307.865 60.0016 307.365 60.0016 306.787C60.0016 306.214 60.0998 305.717 60.2963 305.295C60.4928 304.874 60.7663 304.549 61.1167 304.319C61.467 304.089 61.8719 303.974 62.3311 303.974C62.6863 303.974 62.9668 304.034 63.1728 304.152C63.3811 304.268 63.5397 304.401 63.6486 304.55C63.7599 304.696 63.8463 304.817 63.9078 304.912H63.9789V302.227H64.8169V309.5H64.0073V308.662H63.9078C63.8463 308.761 63.7587 308.887 63.6451 309.038C63.5314 309.187 63.3693 309.321 63.1586 309.44C62.9479 309.556 62.6673 309.614 62.3169 309.614ZM62.4306 308.861C62.7667 308.861 63.0508 308.773 63.2828 308.598C63.5149 308.42 63.6912 308.175 63.812 307.863C63.9327 307.548 63.9931 307.185 63.9931 306.773C63.9931 306.366 63.9339 306.009 63.8155 305.704C63.6971 305.396 63.522 305.157 63.29 304.987C63.0579 304.814 62.7715 304.727 62.4306 304.727C62.0755 304.727 61.7795 304.818 61.5428 305.001C61.3084 305.181 61.132 305.426 61.0137 305.736C60.8977 306.044 60.8397 306.389 60.8397 306.773C60.8397 307.161 60.8989 307.514 61.0172 307.831C61.138 308.146 61.3155 308.397 61.5499 308.584C61.7866 308.768 62.0802 308.861 62.4306 308.861ZM68.7551 309.614C68.2296 309.614 67.7762 309.498 67.3951 309.266C67.0163 309.031 66.7239 308.705 66.5179 308.286C66.3143 307.864 66.2125 307.374 66.2125 306.815C66.2125 306.257 66.3143 305.764 66.5179 305.338C66.7239 304.91 67.0104 304.576 67.3773 304.337C67.7466 304.095 68.1775 303.974 68.6699 303.974C68.954 303.974 69.2346 304.022 69.5115 304.116C69.7885 304.211 70.0407 304.365 70.2679 304.578C70.4952 304.789 70.6763 305.068 70.8113 305.416C70.9462 305.764 71.0137 306.193 71.0137 306.702V307.057H66.8091V306.332H70.1614C70.1614 306.025 70.0998 305.75 69.9767 305.509C69.856 305.267 69.6832 305.076 69.4583 304.937C69.2357 304.797 68.973 304.727 68.6699 304.727C68.3361 304.727 68.0473 304.81 67.8034 304.976C67.562 305.139 67.3761 305.352 67.2459 305.615C67.1157 305.878 67.0506 306.16 67.0506 306.46V306.943C67.0506 307.355 67.1216 307.704 67.2637 307.991C67.4081 308.275 67.6081 308.491 67.8638 308.641C68.1195 308.787 68.4166 308.861 68.7551 308.861C68.9753 308.861 69.1742 308.83 69.3517 308.768C69.5317 308.705 69.6867 308.61 69.8169 308.484C69.9471 308.357 70.0478 308.198 70.1188 308.009L70.9284 308.236C70.8432 308.51 70.7 308.752 70.4988 308.96C70.2975 309.166 70.0489 309.327 69.753 309.443C69.4571 309.557 69.1245 309.614 68.7551 309.614ZM72.2885 311.545V304.045H73.0982V304.912H73.1976C73.2592 304.817 73.3444 304.696 73.4533 304.55C73.5646 304.401 73.7232 304.268 73.9292 304.152C74.1375 304.034 74.4192 303.974 74.7743 303.974C75.2336 303.974 75.6384 304.089 75.9888 304.319C76.3392 304.549 76.6126 304.874 76.8091 305.295C77.0056 305.717 77.1039 306.214 77.1039 306.787C77.1039 307.365 77.0056 307.865 76.8091 308.289C76.6126 308.71 76.3404 309.037 75.9924 309.269C75.6444 309.499 75.2431 309.614 74.7885 309.614C74.4382 309.614 74.1576 309.556 73.9469 309.44C73.7362 309.321 73.574 309.187 73.4604 309.038C73.3468 308.887 73.2592 308.761 73.1976 308.662H73.1266V311.545H72.2885ZM73.1124 306.773C73.1124 307.185 73.1728 307.548 73.2935 307.863C73.4142 308.175 73.5906 308.42 73.8226 308.598C74.0546 308.773 74.3387 308.861 74.6749 308.861C75.0253 308.861 75.3176 308.768 75.552 308.584C75.7888 308.397 75.9663 308.146 76.0847 307.831C76.2054 307.514 76.2658 307.161 76.2658 306.773C76.2658 306.389 76.2066 306.044 76.0882 305.736C75.9722 305.426 75.7959 305.181 75.5591 305.001C75.3248 304.818 75.03 304.727 74.6749 304.727C74.334 304.727 74.0475 304.814 73.8155 304.987C73.5835 305.157 73.4083 305.396 73.29 305.704C73.1716 306.009 73.1124 306.366 73.1124 306.773ZM80.7544 304.045V304.756H77.9277V304.045H80.7544ZM78.7516 302.739H79.5897V307.938C79.5897 308.174 79.624 308.352 79.6926 308.47C79.7637 308.586 79.8536 308.664 79.9625 308.705C80.0738 308.742 80.191 308.761 80.3141 308.761C80.4064 308.761 80.4822 308.757 80.5414 308.747C80.6006 308.735 80.6479 308.726 80.6834 308.719L80.8539 309.472C80.7971 309.493 80.7177 309.514 80.6159 309.536C80.5141 309.559 80.3851 309.571 80.2289 309.571C79.9921 309.571 79.7601 309.52 79.5328 309.418C79.3079 309.317 79.1209 309.161 78.9718 308.953C78.825 308.745 78.7516 308.482 78.7516 308.165V302.739ZM82.9703 306.219V309.5H82.1323V302.227H82.9703V304.898H83.0414C83.1692 304.616 83.361 304.392 83.6167 304.227C83.8747 304.058 84.218 303.974 84.6465 303.974C85.0182 303.974 85.3437 304.049 85.623 304.198C85.9024 304.345 86.119 304.571 86.2729 304.876C86.4292 305.179 86.5073 305.565 86.5073 306.034V309.5H85.6692V306.091C85.6692 305.658 85.5568 305.323 85.3319 305.086C85.1093 304.847 84.8004 304.727 84.405 304.727C84.1304 304.727 83.8842 304.785 83.6664 304.901C83.4509 305.017 83.2805 305.187 83.155 305.409C83.0319 305.632 82.9703 305.902 82.9703 306.219Z" fill="#222222"/>
<path d="M257.17 310V305.69L257.22 304.27L256.09 305.19L254.84 306.19V304.94L257.46 303.02H258.23V310H257.17ZM254.84 310V309.1H259.78V310H254.84ZM263.724 310.11C263.257 310.11 262.851 310.027 262.504 309.86C262.157 309.693 261.881 309.457 261.674 309.15C261.474 308.843 261.364 308.487 261.344 308.08H262.404C262.437 308.42 262.571 308.693 262.804 308.9C263.037 309.107 263.347 309.21 263.734 309.21C264.034 309.21 264.294 309.143 264.514 309.01C264.734 308.877 264.904 308.687 265.024 308.44C265.144 308.193 265.204 307.907 265.204 307.58C265.204 307.153 265.077 306.81 264.824 306.55C264.571 306.283 264.237 306.15 263.824 306.15C263.537 306.15 263.267 306.223 263.014 306.37C262.761 306.51 262.557 306.693 262.404 306.92H261.424L262.014 303.02H265.954V303.92H262.874L262.554 305.94C262.747 305.727 262.981 305.557 263.254 305.43C263.527 305.303 263.807 305.24 264.094 305.24C264.527 305.24 264.911 305.34 265.244 305.54C265.577 305.733 265.837 306.003 266.024 306.35C266.211 306.69 266.304 307.093 266.304 307.56C266.304 308.08 266.197 308.533 265.984 308.92C265.771 309.3 265.471 309.593 265.084 309.8C264.697 310.007 264.244 310.11 263.724 310.11ZM270.258 310.12C269.691 310.12 269.208 309.973 268.808 309.68C268.408 309.38 268.101 308.96 267.888 308.42C267.674 307.873 267.568 307.237 267.568 306.51C267.568 305.77 267.674 305.13 267.888 304.59C268.101 304.05 268.408 303.633 268.808 303.34C269.208 303.047 269.691 302.9 270.258 302.9C270.831 302.9 271.314 303.047 271.708 303.34C272.108 303.633 272.414 304.05 272.628 304.59C272.841 305.123 272.948 305.763 272.948 306.51C272.948 307.243 272.841 307.88 272.628 308.42C272.414 308.96 272.108 309.38 271.708 309.68C271.314 309.973 270.831 310.12 270.258 310.12ZM270.258 309.22C270.784 309.22 271.181 308.983 271.448 308.51C271.714 308.03 271.848 307.363 271.848 306.51C271.848 305.643 271.714 304.977 271.448 304.51C271.181 304.037 270.784 303.8 270.258 303.8C269.738 303.8 269.344 304.037 269.078 304.51C268.811 304.977 268.678 305.643 268.678 306.51C268.678 307.363 268.811 308.03 269.078 308.51C269.344 308.983 269.738 309.22 270.258 309.22ZM276.762 310.12C276.195 310.12 275.712 309.973 275.312 309.68C274.912 309.38 274.605 308.96 274.392 308.42C274.178 307.873 274.072 307.237 274.072 306.51C274.072 305.77 274.178 305.13 274.392 304.59C274.605 304.05 274.912 303.633 275.312 303.34C275.712 303.047 276.195 302.9 276.762 302.9C277.335 302.9 277.818 303.047 278.212 303.34C278.612 303.633 278.918 304.05 279.132 304.59C279.345 305.123 279.452 305.763 279.452 306.51C279.452 307.243 279.345 307.88 279.132 308.42C278.918 308.96 278.612 309.38 278.212 309.68C277.818 309.973 277.335 310.12 276.762 310.12ZM276.762 309.22C277.288 309.22 277.685 308.983 277.952 308.51C278.218 308.03 278.352 307.363 278.352 306.51C278.352 305.643 278.218 304.977 277.952 304.51C277.685 304.037 277.288 303.8 276.762 303.8C276.242 303.8 275.848 304.037 275.582 304.51C275.315 304.977 275.182 305.643 275.182 306.51C275.182 307.363 275.315 308.03 275.582 308.51C275.848 308.983 276.242 309.22 276.762 309.22ZM291.59 310V305.98C291.59 305.74 291.546 305.553 291.46 305.42C291.38 305.287 291.253 305.22 291.08 305.22C290.84 305.22 290.623 305.373 290.43 305.68C290.243 305.987 290.113 306.47 290.04 307.13L289.95 306.28C289.97 305.68 290.11 305.213 290.37 304.88C290.636 304.547 290.963 304.38 291.35 304.38C291.71 304.38 291.993 304.513 292.2 304.78C292.413 305.04 292.52 305.413 292.52 305.9V310H291.59ZM287.02 310V304.5H287.91L287.95 305.57V310H287.02ZM289.31 310V305.98C289.31 305.727 289.263 305.537 289.17 305.41C289.083 305.283 288.95 305.22 288.77 305.22C288.516 305.22 288.3 305.38 288.12 305.7C287.94 306.02 287.813 306.497 287.74 307.13L287.72 306.25C287.733 305.857 287.803 305.52 287.93 305.24C288.056 304.96 288.22 304.747 288.42 304.6C288.62 304.453 288.833 304.38 289.06 304.38C289.433 304.38 289.72 304.517 289.92 304.79C290.126 305.057 290.23 305.423 290.23 305.89V310H289.31ZM298.093 310V305.98C298.093 305.74 298.05 305.553 297.963 305.42C297.883 305.287 297.757 305.22 297.583 305.22C297.343 305.22 297.127 305.373 296.933 305.68C296.747 305.987 296.617 306.47 296.543 307.13L296.453 306.28C296.473 305.68 296.613 305.213 296.873 304.88C297.14 304.547 297.467 304.38 297.853 304.38C298.213 304.38 298.497 304.513 298.703 304.78C298.917 305.04 299.023 305.413 299.023 305.9V310H298.093ZM293.523 310V304.5H294.413L294.453 305.57V310H293.523ZM295.813 310V305.98C295.813 305.727 295.767 305.537 295.673 305.41C295.587 305.283 295.453 305.22 295.273 305.22C295.02 305.22 294.803 305.38 294.623 305.7C294.443 306.02 294.317 306.497 294.243 307.13L294.223 306.25C294.237 305.857 294.307 305.52 294.433 305.24C294.56 304.96 294.723 304.747 294.923 304.6C295.123 304.453 295.337 304.38 295.563 304.38C295.937 304.38 296.223 304.517 296.423 304.79C296.63 305.057 296.733 305.423 296.733 305.89V310H295.813Z" fill="#222222"/>
<path d="M34.017 339.864C34.017 340.631 33.8786 341.294 33.6016 341.852C33.3246 342.411 32.9446 342.842 32.4616 343.145C31.9787 343.448 31.4271 343.599 30.8068 343.599C30.1866 343.599 29.6349 343.448 29.152 343.145C28.669 342.842 28.2891 342.411 28.0121 341.852C27.7351 341.294 27.5966 340.631 27.5966 339.864C27.5966 339.097 27.7351 338.434 28.0121 337.875C28.2891 337.316 28.669 336.885 29.152 336.582C29.6349 336.279 30.1866 336.128 30.8068 336.128C31.4271 336.128 31.9787 336.279 32.4616 336.582C32.9446 336.885 33.3246 337.316 33.6016 337.875C33.8786 338.434 34.017 339.097 34.017 339.864ZM33.1648 339.864C33.1648 339.234 33.0594 338.702 32.8487 338.269C32.6404 337.836 32.3575 337.508 32 337.286C31.6449 337.063 31.2472 336.952 30.8068 336.952C30.3665 336.952 29.9676 337.063 29.6101 337.286C29.255 337.508 28.9721 337.836 28.7614 338.269C28.553 338.702 28.4489 339.234 28.4489 339.864C28.4489 340.493 28.553 341.025 28.7614 341.458C28.9721 341.891 29.255 342.219 29.6101 342.442C29.9676 342.664 30.3665 342.776 30.8068 342.776C31.2472 342.776 31.6449 342.664 32 342.442C32.3575 342.219 32.6404 341.891 32.8487 341.458C33.0594 341.025 33.1648 340.493 33.1648 339.864ZM39.8445 338.045L37.8274 343.5H36.9751L34.9581 338.045H35.8672L37.3729 342.392H37.4297L38.9354 338.045H39.8445ZM43.0423 343.614C42.5167 343.614 42.0633 343.498 41.6822 343.266C41.3034 343.031 41.011 342.705 40.805 342.286C40.6014 341.864 40.4996 341.374 40.4996 340.815C40.4996 340.257 40.6014 339.764 40.805 339.338C41.011 338.91 41.2975 338.576 41.6644 338.337C42.0337 338.095 42.4646 337.974 42.957 337.974C43.2411 337.974 43.5217 338.022 43.7987 338.116C44.0756 338.211 44.3278 338.365 44.555 338.578C44.7823 338.789 44.9634 339.068 45.0984 339.416C45.2333 339.764 45.3008 340.193 45.3008 340.702V341.057H41.0962V340.332H44.4485C44.4485 340.025 44.387 339.75 44.2638 339.509C44.1431 339.267 43.9703 339.076 43.7454 338.937C43.5228 338.797 43.2601 338.727 42.957 338.727C42.6232 338.727 42.3344 338.81 42.0906 338.976C41.8491 339.139 41.6632 339.352 41.533 339.615C41.4028 339.878 41.3377 340.16 41.3377 340.46V340.943C41.3377 341.355 41.4087 341.704 41.5508 341.991C41.6952 342.275 41.8952 342.491 42.1509 342.641C42.4066 342.787 42.7037 342.861 43.0423 342.861C43.2624 342.861 43.4613 342.83 43.6388 342.768C43.8188 342.705 43.9738 342.61 44.104 342.484C44.2343 342.357 44.3349 342.198 44.4059 342.009L45.2156 342.236C45.1303 342.51 44.9871 342.752 44.7859 342.96C44.5846 343.166 44.3361 343.327 44.0401 343.443C43.7442 343.557 43.4116 343.614 43.0423 343.614ZM46.5756 343.5V338.045H47.3853V338.869H47.4421C47.5415 338.599 47.7215 338.38 47.9819 338.212C48.2423 338.044 48.5359 337.96 48.8626 337.96C48.9241 337.96 49.0011 337.961 49.0934 337.964C49.1857 337.966 49.2556 337.97 49.3029 337.974V338.827C49.2745 338.82 49.2094 338.809 49.1076 338.795C49.0082 338.778 48.9028 338.77 48.7915 338.77C48.5264 338.77 48.2897 338.826 48.0813 338.937C47.8754 339.046 47.712 339.197 47.5913 339.391C47.4729 339.583 47.4137 339.802 47.4137 340.048V343.5H46.5756ZM51.1344 340.219V343.5H50.2963V336.227H51.1344V338.898H51.2054C51.3333 338.616 51.525 338.392 51.7807 338.227C52.0388 338.058 52.382 337.974 52.8105 337.974C53.1822 337.974 53.5078 338.049 53.7871 338.198C54.0665 338.345 54.2831 338.571 54.437 338.876C54.5932 339.179 54.6713 339.565 54.6713 340.034V343.5H53.8333V340.091C53.8333 339.658 53.7208 339.323 53.4959 339.086C53.2734 338.847 52.9644 338.727 52.5691 338.727C52.2944 338.727 52.0482 338.785 51.8304 338.901C51.615 339.017 51.4445 339.187 51.3191 339.409C51.196 339.632 51.1344 339.902 51.1344 340.219ZM57.8097 343.628C57.464 343.628 57.1503 343.563 56.8686 343.433C56.5869 343.3 56.3632 343.109 56.1974 342.861C56.0317 342.61 55.9489 342.307 55.9489 341.952C55.9489 341.639 56.0104 341.386 56.1335 341.192C56.2566 340.995 56.4212 340.841 56.6271 340.73C56.8331 340.619 57.0604 340.536 57.3089 340.482C57.5599 340.425 57.812 340.38 58.0653 340.347C58.3968 340.304 58.6655 340.272 58.8714 340.251C59.0798 340.227 59.2313 340.188 59.326 340.134C59.4231 340.079 59.4716 339.984 59.4716 339.849V339.821C59.4716 339.471 59.3757 339.198 59.1839 339.004C58.9946 338.81 58.7069 338.713 58.321 338.713C57.9209 338.713 57.6072 338.801 57.38 338.976C57.1527 339.151 56.9929 339.338 56.9006 339.537L56.1051 339.253C56.2472 338.921 56.4366 338.663 56.6733 338.479C56.9124 338.292 57.1728 338.161 57.4545 338.088C57.7386 338.012 58.018 337.974 58.2926 337.974C58.4678 337.974 58.669 337.996 58.8963 338.038C59.1259 338.079 59.3473 338.163 59.5604 338.29C59.7758 338.418 59.9545 338.611 60.0966 338.869C60.2386 339.127 60.3097 339.473 60.3097 339.906V343.5H59.4716V342.761H59.429C59.3722 342.88 59.2775 343.006 59.1449 343.141C59.0123 343.276 58.8359 343.391 58.6158 343.486C58.3956 343.58 58.1269 343.628 57.8097 343.628ZM57.9375 342.875C58.2689 342.875 58.5483 342.81 58.7756 342.68C59.0052 342.549 59.178 342.381 59.294 342.175C59.4124 341.969 59.4716 341.753 59.4716 341.526V340.759C59.4361 340.801 59.358 340.84 59.2372 340.876C59.1188 340.909 58.9815 340.938 58.8253 340.964C58.6714 340.988 58.5211 341.009 58.3743 341.028C58.2299 341.045 58.1127 341.059 58.0227 341.071C57.8049 341.099 57.6013 341.146 57.4119 341.21C57.2249 341.271 57.0734 341.365 56.9574 341.49C56.8438 341.613 56.7869 341.781 56.7869 341.994C56.7869 342.286 56.8946 342.506 57.1101 342.655C57.3279 342.802 57.6037 342.875 57.9375 342.875ZM62.6774 340.219V343.5H61.8393V338.045H62.649V338.898H62.72C62.8478 338.621 63.042 338.398 63.3024 338.23C63.5628 338.06 63.899 337.974 64.3109 337.974C64.6802 337.974 65.0034 338.05 65.2804 338.202C65.5574 338.351 65.7728 338.578 65.9267 338.884C66.0806 339.187 66.1575 339.57 66.1575 340.034V343.5H65.3194V340.091C65.3194 339.662 65.2082 339.329 64.9856 339.089C64.7631 338.848 64.4577 338.727 64.0694 338.727C63.8019 338.727 63.5628 338.785 63.3521 338.901C63.1438 339.017 62.9792 339.187 62.8585 339.409C62.7377 339.632 62.6774 339.902 62.6774 340.219ZM69.8906 345.659C69.4858 345.659 69.1378 345.607 68.8466 345.503C68.5554 345.401 68.3127 345.266 68.1186 345.098C67.9268 344.932 67.7741 344.755 67.6605 344.565L68.3281 344.097C68.4039 344.196 68.4998 344.31 68.6158 344.438C68.7318 344.568 68.8904 344.68 69.0916 344.775C69.2952 344.872 69.5616 344.92 69.8906 344.92C70.331 344.92 70.6944 344.814 70.9808 344.601C71.2673 344.388 71.4105 344.054 71.4105 343.599V342.491H71.3395C71.2779 342.591 71.1903 342.714 71.0767 342.861C70.9654 343.005 70.8045 343.134 70.5938 343.248C70.3854 343.359 70.1037 343.415 69.7486 343.415C69.3082 343.415 68.9129 343.311 68.5625 343.102C68.2145 342.894 67.9387 342.591 67.7351 342.193C67.5339 341.795 67.4332 341.312 67.4332 340.744C67.4332 340.186 67.5315 339.699 67.728 339.285C67.9245 338.868 68.1979 338.546 68.5483 338.319C68.8987 338.089 69.3035 337.974 69.7628 337.974C70.1179 337.974 70.3996 338.034 70.608 338.152C70.8187 338.268 70.9796 338.401 71.0909 338.55C71.2045 338.696 71.2921 338.817 71.3537 338.912H71.4389V338.045H72.2486V343.656C72.2486 344.125 72.142 344.506 71.929 344.8C71.7183 345.096 71.4342 345.312 71.0767 345.45C70.7216 345.589 70.3262 345.659 69.8906 345.659ZM69.8622 342.662C70.1984 342.662 70.4825 342.585 70.7145 342.431C70.9465 342.277 71.1229 342.056 71.2436 341.767C71.3643 341.478 71.4247 341.133 71.4247 340.73C71.4247 340.337 71.3655 339.99 71.2472 339.69C71.1288 339.389 70.9536 339.153 70.7216 338.983C70.4896 338.812 70.2031 338.727 69.8622 338.727C69.5071 338.727 69.2112 338.817 68.9744 338.997C68.7401 339.177 68.5637 339.419 68.4453 339.722C68.3293 340.025 68.2713 340.361 68.2713 340.73C68.2713 341.109 68.3305 341.444 68.4489 341.735C68.5696 342.024 68.7472 342.251 68.9815 342.417C69.2183 342.58 69.5118 342.662 69.8622 342.662ZM79.0241 338.045V338.756H76.0838V338.045H79.0241ZM76.9645 343.5V337.293C76.9645 336.98 77.0379 336.72 77.1847 336.511C77.3314 336.303 77.522 336.147 77.7564 336.043C77.9908 335.938 78.2382 335.886 78.4986 335.886C78.7045 335.886 78.8726 335.903 79.0028 335.936C79.133 335.969 79.2301 336 79.294 336.028L79.0526 336.753C79.0099 336.739 78.9508 336.721 78.875 336.7C78.8016 336.678 78.7045 336.668 78.5838 336.668C78.3068 336.668 78.1068 336.737 77.9837 336.877C77.8629 337.017 77.8026 337.222 77.8026 337.491V343.5H76.9645ZM80.1987 343.5V338.045H81.0083V338.869H81.0652C81.1646 338.599 81.3445 338.38 81.6049 338.212C81.8654 338.044 82.1589 337.96 82.4856 337.96C82.5472 337.96 82.6241 337.961 82.7164 337.964C82.8088 337.966 82.8786 337.97 82.926 337.974V338.827C82.8975 338.82 82.8324 338.809 82.7306 338.795C82.6312 338.778 82.5259 338.77 82.4146 338.77C82.1494 338.77 81.9127 338.826 81.7044 338.937C81.4984 339.046 81.335 339.197 81.2143 339.391C81.0959 339.583 81.0368 339.802 81.0368 340.048V343.5H80.1987ZM85.9693 343.614C85.4769 343.614 85.0448 343.496 84.6731 343.262C84.3038 343.028 84.015 342.7 83.8066 342.278C83.6007 341.857 83.4977 341.365 83.4977 340.801C83.4977 340.233 83.6007 339.737 83.8066 339.313C84.015 338.889 84.3038 338.56 84.6731 338.326C85.0448 338.092 85.4769 337.974 85.9693 337.974C86.4617 337.974 86.8926 338.092 87.2619 338.326C87.6336 338.56 87.9224 338.889 88.1284 339.313C88.3367 339.737 88.4409 340.233 88.4409 340.801C88.4409 341.365 88.3367 341.857 88.1284 342.278C87.9224 342.7 87.6336 343.028 87.2619 343.262C86.8926 343.496 86.4617 343.614 85.9693 343.614ZM85.9693 342.861C86.3433 342.861 86.6511 342.765 86.8926 342.573C87.1341 342.381 87.3128 342.129 87.4288 341.817C87.5448 341.504 87.6028 341.166 87.6028 340.801C87.6028 340.437 87.5448 340.097 87.4288 339.782C87.3128 339.467 87.1341 339.213 86.8926 339.018C86.6511 338.824 86.3433 338.727 85.9693 338.727C85.5952 338.727 85.2875 338.824 85.046 339.018C84.8045 339.213 84.6258 339.467 84.5098 339.782C84.3938 340.097 84.3358 340.437 84.3358 340.801C84.3358 341.166 84.3938 341.504 84.5098 341.817C84.6258 342.129 84.8045 342.381 85.046 342.573C85.2875 342.765 85.5952 342.861 85.9693 342.861ZM90.5582 340.219V343.5H89.7202V338.045H90.5298V338.898H90.6009C90.7287 338.621 90.9228 338.398 91.1832 338.23C91.4437 338.06 91.7798 337.974 92.1918 337.974C92.5611 337.974 92.8842 338.05 93.1612 338.202C93.4382 338.351 93.6536 338.578 93.8075 338.884C93.9614 339.187 94.0384 339.57 94.0384 340.034V343.5H93.2003V340.091C93.2003 339.662 93.089 339.329 92.8665 339.089C92.6439 338.848 92.3385 338.727 91.9503 338.727C91.6828 338.727 91.4437 338.785 91.233 338.901C91.0246 339.017 90.8601 339.187 90.7393 339.409C90.6186 339.632 90.5582 339.902 90.5582 340.219ZM97.9419 338.045V338.756H95.1152V338.045H97.9419ZM95.9391 336.739H96.7772V341.938C96.7772 342.174 96.8115 342.352 96.8801 342.47C96.9512 342.586 97.0411 342.664 97.15 342.705C97.2613 342.742 97.3785 342.761 97.5016 342.761C97.5939 342.761 97.6697 342.757 97.7289 342.747C97.7881 342.735 97.8354 342.726 97.8709 342.719L98.0414 343.472C97.9846 343.493 97.9052 343.514 97.8034 343.536C97.7016 343.559 97.5726 343.571 97.4164 343.571C97.1796 343.571 96.9476 343.52 96.7203 343.418C96.4954 343.317 96.3084 343.161 96.1593 342.953C96.0125 342.745 95.9391 342.482 95.9391 342.165V336.739Z" fill="#222222"/>
<path d="M257.17 344V339.69L257.22 338.27L256.09 339.19L254.84 340.19V338.94L257.46 337.02H258.23V344H257.17ZM254.84 344V343.1H259.78V344H254.84ZM263.724 344.11C263.257 344.11 262.851 344.027 262.504 343.86C262.157 343.693 261.881 343.457 261.674 343.15C261.474 342.843 261.364 342.487 261.344 342.08H262.404C262.437 342.42 262.571 342.693 262.804 342.9C263.037 343.107 263.347 343.21 263.734 343.21C264.034 343.21 264.294 343.143 264.514 343.01C264.734 342.877 264.904 342.687 265.024 342.44C265.144 342.193 265.204 341.907 265.204 341.58C265.204 341.153 265.077 340.81 264.824 340.55C264.571 340.283 264.237 340.15 263.824 340.15C263.537 340.15 263.267 340.223 263.014 340.37C262.761 340.51 262.557 340.693 262.404 340.92H261.424L262.014 337.02H265.954V337.92H262.874L262.554 339.94C262.747 339.727 262.981 339.557 263.254 339.43C263.527 339.303 263.807 339.24 264.094 339.24C264.527 339.24 264.911 339.34 265.244 339.54C265.577 339.733 265.837 340.003 266.024 340.35C266.211 340.69 266.304 341.093 266.304 341.56C266.304 342.08 266.197 342.533 265.984 342.92C265.771 343.3 265.471 343.593 265.084 343.8C264.697 344.007 264.244 344.11 263.724 344.11ZM270.258 344.12C269.691 344.12 269.208 343.973 268.808 343.68C268.408 343.38 268.101 342.96 267.888 342.42C267.674 341.873 267.568 341.237 267.568 340.51C267.568 339.77 267.674 339.13 267.888 338.59C268.101 338.05 268.408 337.633 268.808 337.34C269.208 337.047 269.691 336.9 270.258 336.9C270.831 336.9 271.314 337.047 271.708 337.34C272.108 337.633 272.414 338.05 272.628 338.59C272.841 339.123 272.948 339.763 272.948 340.51C272.948 341.243 272.841 341.88 272.628 342.42C272.414 342.96 272.108 343.38 271.708 343.68C271.314 343.973 270.831 344.12 270.258 344.12ZM270.258 343.22C270.784 343.22 271.181 342.983 271.448 342.51C271.714 342.03 271.848 341.363 271.848 340.51C271.848 339.643 271.714 338.977 271.448 338.51C271.181 338.037 270.784 337.8 270.258 337.8C269.738 337.8 269.344 338.037 269.078 338.51C268.811 338.977 268.678 339.643 268.678 340.51C268.678 341.363 268.811 342.03 269.078 342.51C269.344 342.983 269.738 343.22 270.258 343.22ZM276.762 344.12C276.195 344.12 275.712 343.973 275.312 343.68C274.912 343.38 274.605 342.96 274.392 342.42C274.178 341.873 274.072 341.237 274.072 340.51C274.072 339.77 274.178 339.13 274.392 338.59C274.605 338.05 274.912 337.633 275.312 337.34C275.712 337.047 276.195 336.9 276.762 336.9C277.335 336.9 277.818 337.047 278.212 337.34C278.612 337.633 278.918 338.05 279.132 338.59C279.345 339.123 279.452 339.763 279.452 340.51C279.452 341.243 279.345 341.88 279.132 342.42C278.918 342.96 278.612 343.38 278.212 343.68C277.818 343.973 277.335 344.12 276.762 344.12ZM276.762 343.22C277.288 343.22 277.685 342.983 277.952 342.51C278.218 342.03 278.352 341.363 278.352 340.51C278.352 339.643 278.218 338.977 277.952 338.51C277.685 338.037 277.288 337.8 276.762 337.8C276.242 337.8 275.848 338.037 275.582 338.51C275.315 338.977 275.182 339.643 275.182 340.51C275.182 341.363 275.315 342.03 275.582 342.51C275.848 342.983 276.242 343.22 276.762 343.22ZM291.59 344V339.98C291.59 339.74 291.546 339.553 291.46 339.42C291.38 339.287 291.253 339.22 291.08 339.22C290.84 339.22 290.623 339.373 290.43 339.68C290.243 339.987 290.113 340.47 290.04 341.13L289.95 340.28C289.97 339.68 290.11 339.213 290.37 338.88C290.636 338.547 290.963 338.38 291.35 338.38C291.71 338.38 291.993 338.513 292.2 338.78C292.413 339.04 292.52 339.413 292.52 339.9V344H291.59ZM287.02 344V338.5H287.91L287.95 339.57V344H287.02ZM289.31 344V339.98C289.31 339.727 289.263 339.537 289.17 339.41C289.083 339.283 288.95 339.22 288.77 339.22C288.516 339.22 288.3 339.38 288.12 339.7C287.94 340.02 287.813 340.497 287.74 341.13L287.72 340.25C287.733 339.857 287.803 339.52 287.93 339.24C288.056 338.96 288.22 338.747 288.42 338.6C288.62 338.453 288.833 338.38 289.06 338.38C289.433 338.38 289.72 338.517 289.92 338.79C290.126 339.057 290.23 339.423 290.23 339.89V344H289.31ZM298.093 344V339.98C298.093 339.74 298.05 339.553 297.963 339.42C297.883 339.287 297.757 339.22 297.583 339.22C297.343 339.22 297.127 339.373 296.933 339.68C296.747 339.987 296.617 340.47 296.543 341.13L296.453 340.28C296.473 339.68 296.613 339.213 296.873 338.88C297.14 338.547 297.467 338.38 297.853 338.38C298.213 338.38 298.497 338.513 298.703 338.78C298.917 339.04 299.023 339.413 299.023 339.9V344H298.093ZM293.523 344V338.5H294.413L294.453 339.57V344H293.523ZM295.813 344V339.98C295.813 339.727 295.767 339.537 295.673 339.41C295.587 339.283 295.453 339.22 295.273 339.22C295.02 339.22 294.803 339.38 294.623 339.7C294.443 340.02 294.317 340.497 294.243 341.13L294.223 340.25C294.237 339.857 294.307 339.52 294.433 339.24C294.56 338.96 294.723 338.747 294.923 338.6C295.123 338.453 295.337 338.38 295.563 338.38C295.937 338.38 296.223 338.517 296.423 338.79C296.63 339.057 296.733 339.423 296.733 339.89V344H295.813Z" fill="#222222"/>
<path d="M34.017 373.864C34.017 374.631 33.8786 375.294 33.6016 375.852C33.3246 376.411 32.9446 376.842 32.4616 377.145C31.9787 377.448 31.4271 377.599 30.8068 377.599C30.1866 377.599 29.6349 377.448 29.152 377.145C28.669 376.842 28.2891 376.411 28.0121 375.852C27.7351 375.294 27.5966 374.631 27.5966 373.864C27.5966 373.097 27.7351 372.434 28.0121 371.875C28.2891 371.316 28.669 370.885 29.152 370.582C29.6349 370.279 30.1866 370.128 30.8068 370.128C31.4271 370.128 31.9787 370.279 32.4616 370.582C32.9446 370.885 33.3246 371.316 33.6016 371.875C33.8786 372.434 34.017 373.097 34.017 373.864ZM33.1648 373.864C33.1648 373.234 33.0594 372.702 32.8487 372.269C32.6404 371.836 32.3575 371.508 32 371.286C31.6449 371.063 31.2472 370.952 30.8068 370.952C30.3665 370.952 29.9676 371.063 29.6101 371.286C29.255 371.508 28.9721 371.836 28.7614 372.269C28.553 372.702 28.4489 373.234 28.4489 373.864C28.4489 374.493 28.553 375.025 28.7614 375.458C28.9721 375.891 29.255 376.219 29.6101 376.442C29.9676 376.664 30.3665 376.776 30.8068 376.776C31.2472 376.776 31.6449 376.664 32 376.442C32.3575 376.219 32.6404 375.891 32.8487 375.458C33.0594 375.025 33.1648 374.493 33.1648 373.864ZM39.8445 372.045L37.8274 377.5H36.9751L34.9581 372.045H35.8672L37.3729 376.392H37.4297L38.9354 372.045H39.8445ZM43.0423 377.614C42.5167 377.614 42.0633 377.498 41.6822 377.266C41.3034 377.031 41.011 376.705 40.805 376.286C40.6014 375.864 40.4996 375.374 40.4996 374.815C40.4996 374.257 40.6014 373.764 40.805 373.338C41.011 372.91 41.2975 372.576 41.6644 372.337C42.0337 372.095 42.4646 371.974 42.957 371.974C43.2411 371.974 43.5217 372.022 43.7987 372.116C44.0756 372.211 44.3278 372.365 44.555 372.578C44.7823 372.789 44.9634 373.068 45.0984 373.416C45.2333 373.764 45.3008 374.193 45.3008 374.702V375.057H41.0962V374.332H44.4485C44.4485 374.025 44.387 373.75 44.2638 373.509C44.1431 373.267 43.9703 373.076 43.7454 372.937C43.5228 372.797 43.2601 372.727 42.957 372.727C42.6232 372.727 42.3344 372.81 42.0906 372.976C41.8491 373.139 41.6632 373.352 41.533 373.615C41.4028 373.878 41.3377 374.16 41.3377 374.46V374.943C41.3377 375.355 41.4087 375.704 41.5508 375.991C41.6952 376.275 41.8952 376.491 42.1509 376.641C42.4066 376.787 42.7037 376.861 43.0423 376.861C43.2624 376.861 43.4613 376.83 43.6388 376.768C43.8188 376.705 43.9738 376.61 44.104 376.484C44.2343 376.357 44.3349 376.198 44.4059 376.009L45.2156 376.236C45.1303 376.51 44.9871 376.752 44.7859 376.96C44.5846 377.166 44.3361 377.327 44.0401 377.443C43.7442 377.557 43.4116 377.614 43.0423 377.614ZM46.5756 377.5V372.045H47.3853V372.869H47.4421C47.5415 372.599 47.7215 372.38 47.9819 372.212C48.2423 372.044 48.5359 371.96 48.8626 371.96C48.9241 371.96 49.0011 371.961 49.0934 371.964C49.1857 371.966 49.2556 371.97 49.3029 371.974V372.827C49.2745 372.82 49.2094 372.809 49.1076 372.795C49.0082 372.778 48.9028 372.77 48.7915 372.77C48.5264 372.77 48.2897 372.826 48.0813 372.937C47.8754 373.046 47.712 373.197 47.5913 373.391C47.4729 373.583 47.4137 373.802 47.4137 374.048V377.5H46.5756ZM51.1344 374.219V377.5H50.2963V370.227H51.1344V372.898H51.2054C51.3333 372.616 51.525 372.392 51.7807 372.227C52.0388 372.058 52.382 371.974 52.8105 371.974C53.1822 371.974 53.5078 372.049 53.7871 372.198C54.0665 372.345 54.2831 372.571 54.437 372.876C54.5932 373.179 54.6713 373.565 54.6713 374.034V377.5H53.8333V374.091C53.8333 373.658 53.7208 373.323 53.4959 373.086C53.2734 372.847 52.9644 372.727 52.5691 372.727C52.2944 372.727 52.0482 372.785 51.8304 372.901C51.615 373.017 51.4445 373.187 51.3191 373.409C51.196 373.632 51.1344 373.902 51.1344 374.219ZM57.8097 377.628C57.464 377.628 57.1503 377.563 56.8686 377.433C56.5869 377.3 56.3632 377.109 56.1974 376.861C56.0317 376.61 55.9489 376.307 55.9489 375.952C55.9489 375.639 56.0104 375.386 56.1335 375.192C56.2566 374.995 56.4212 374.841 56.6271 374.73C56.8331 374.619 57.0604 374.536 57.3089 374.482C57.5599 374.425 57.812 374.38 58.0653 374.347C58.3968 374.304 58.6655 374.272 58.8714 374.251C59.0798 374.227 59.2313 374.188 59.326 374.134C59.4231 374.079 59.4716 373.984 59.4716 373.849V373.821C59.4716 373.471 59.3757 373.198 59.1839 373.004C58.9946 372.81 58.7069 372.713 58.321 372.713C57.9209 372.713 57.6072 372.801 57.38 372.976C57.1527 373.151 56.9929 373.338 56.9006 373.537L56.1051 373.253C56.2472 372.921 56.4366 372.663 56.6733 372.479C56.9124 372.292 57.1728 372.161 57.4545 372.088C57.7386 372.012 58.018 371.974 58.2926 371.974C58.4678 371.974 58.669 371.996 58.8963 372.038C59.1259 372.079 59.3473 372.163 59.5604 372.29C59.7758 372.418 59.9545 372.611 60.0966 372.869C60.2386 373.127 60.3097 373.473 60.3097 373.906V377.5H59.4716V376.761H59.429C59.3722 376.88 59.2775 377.006 59.1449 377.141C59.0123 377.276 58.8359 377.391 58.6158 377.486C58.3956 377.58 58.1269 377.628 57.8097 377.628ZM57.9375 376.875C58.2689 376.875 58.5483 376.81 58.7756 376.68C59.0052 376.549 59.178 376.381 59.294 376.175C59.4124 375.969 59.4716 375.753 59.4716 375.526V374.759C59.4361 374.801 59.358 374.84 59.2372 374.876C59.1188 374.909 58.9815 374.938 58.8253 374.964C58.6714 374.988 58.5211 375.009 58.3743 375.028C58.2299 375.045 58.1127 375.059 58.0227 375.071C57.8049 375.099 57.6013 375.146 57.4119 375.21C57.2249 375.271 57.0734 375.365 56.9574 375.49C56.8438 375.613 56.7869 375.781 56.7869 375.994C56.7869 376.286 56.8946 376.506 57.1101 376.655C57.3279 376.802 57.6037 376.875 57.9375 376.875ZM62.6774 374.219V377.5H61.8393V372.045H62.649V372.898H62.72C62.8478 372.621 63.042 372.398 63.3024 372.23C63.5628 372.06 63.899 371.974 64.3109 371.974C64.6802 371.974 65.0034 372.05 65.2804 372.202C65.5574 372.351 65.7728 372.578 65.9267 372.884C66.0806 373.187 66.1575 373.57 66.1575 374.034V377.5H65.3194V374.091C65.3194 373.662 65.2082 373.329 64.9856 373.089C64.7631 372.848 64.4577 372.727 64.0694 372.727C63.8019 372.727 63.5628 372.785 63.3521 372.901C63.1438 373.017 62.9792 373.187 62.8585 373.409C62.7377 373.632 62.6774 373.902 62.6774 374.219ZM69.8906 379.659C69.4858 379.659 69.1378 379.607 68.8466 379.503C68.5554 379.401 68.3127 379.266 68.1186 379.098C67.9268 378.932 67.7741 378.755 67.6605 378.565L68.3281 378.097C68.4039 378.196 68.4998 378.31 68.6158 378.438C68.7318 378.568 68.8904 378.68 69.0916 378.775C69.2952 378.872 69.5616 378.92 69.8906 378.92C70.331 378.92 70.6944 378.814 70.9808 378.601C71.2673 378.388 71.4105 378.054 71.4105 377.599V376.491H71.3395C71.2779 376.591 71.1903 376.714 71.0767 376.861C70.9654 377.005 70.8045 377.134 70.5938 377.248C70.3854 377.359 70.1037 377.415 69.7486 377.415C69.3082 377.415 68.9129 377.311 68.5625 377.102C68.2145 376.894 67.9387 376.591 67.7351 376.193C67.5339 375.795 67.4332 375.312 67.4332 374.744C67.4332 374.186 67.5315 373.699 67.728 373.285C67.9245 372.868 68.1979 372.546 68.5483 372.319C68.8987 372.089 69.3035 371.974 69.7628 371.974C70.1179 371.974 70.3996 372.034 70.608 372.152C70.8187 372.268 70.9796 372.401 71.0909 372.55C71.2045 372.696 71.2921 372.817 71.3537 372.912H71.4389V372.045H72.2486V377.656C72.2486 378.125 72.142 378.506 71.929 378.8C71.7183 379.096 71.4342 379.312 71.0767 379.45C70.7216 379.589 70.3262 379.659 69.8906 379.659ZM69.8622 376.662C70.1984 376.662 70.4825 376.585 70.7145 376.431C70.9465 376.277 71.1229 376.056 71.2436 375.767C71.3643 375.478 71.4247 375.133 71.4247 374.73C71.4247 374.337 71.3655 373.99 71.2472 373.69C71.1288 373.389 70.9536 373.153 70.7216 372.983C70.4896 372.812 70.2031 372.727 69.8622 372.727C69.5071 372.727 69.2112 372.817 68.9744 372.997C68.7401 373.177 68.5637 373.419 68.4453 373.722C68.3293 374.025 68.2713 374.361 68.2713 374.73C68.2713 375.109 68.3305 375.444 68.4489 375.735C68.5696 376.024 68.7472 376.251 68.9815 376.417C69.2183 376.58 69.5118 376.662 69.8622 376.662ZM76.7088 377.5V370.227H77.5469V372.912H77.6179C77.6795 372.817 77.7647 372.696 77.8736 372.55C77.9848 372.401 78.1435 372.268 78.3494 372.152C78.5578 372.034 78.8395 371.974 79.1946 371.974C79.6539 371.974 80.0587 372.089 80.4091 372.319C80.7595 372.549 81.0329 372.874 81.2294 373.295C81.4259 373.717 81.5241 374.214 81.5241 374.787C81.5241 375.365 81.4259 375.865 81.2294 376.289C81.0329 376.71 80.7607 377.037 80.4126 377.269C80.0646 377.499 79.6634 377.614 79.2088 377.614C78.8584 377.614 78.5779 377.556 78.3672 377.44C78.1565 377.321 77.9943 377.187 77.8807 377.038C77.767 376.887 77.6795 376.761 77.6179 376.662H77.5185V377.5H76.7088ZM77.5327 374.773C77.5327 375.185 77.593 375.548 77.7138 375.863C77.8345 376.175 78.0109 376.42 78.2429 376.598C78.4749 376.773 78.759 376.861 79.0952 376.861C79.4455 376.861 79.7379 376.768 79.9723 376.584C80.209 376.397 80.3866 376.146 80.505 375.831C80.6257 375.514 80.6861 375.161 80.6861 374.773C80.6861 374.389 80.6269 374.044 80.5085 373.736C80.3925 373.426 80.2161 373.181 79.9794 373.001C79.745 372.818 79.4503 372.727 79.0952 372.727C78.7543 372.727 78.4678 372.814 78.2358 372.987C78.0038 373.157 77.8286 373.396 77.7102 373.704C77.5919 374.009 77.5327 374.366 77.5327 374.773ZM84.4112 377.628C84.0656 377.628 83.7519 377.563 83.4702 377.433C83.1884 377.3 82.9647 377.109 82.799 376.861C82.6333 376.61 82.5504 376.307 82.5504 375.952C82.5504 375.639 82.612 375.386 82.7351 375.192C82.8582 374.995 83.0227 374.841 83.2287 374.73C83.4347 374.619 83.6619 374.536 83.9105 374.482C84.1615 374.425 84.4136 374.38 84.6669 374.347C84.9983 374.304 85.267 374.272 85.473 374.251C85.6813 374.227 85.8329 374.188 85.9276 374.134C86.0246 374.079 86.0732 373.984 86.0732 373.849V373.821C86.0732 373.471 85.9773 373.198 85.7855 373.004C85.5961 372.81 85.3085 372.713 84.9226 372.713C84.5225 372.713 84.2088 372.801 83.9815 372.976C83.7543 373.151 83.5945 373.338 83.5021 373.537L82.7067 373.253C82.8487 372.921 83.0381 372.663 83.2749 372.479C83.514 372.292 83.7744 372.161 84.0561 372.088C84.3402 372.012 84.6196 371.974 84.8942 371.974C85.0694 371.974 85.2706 371.996 85.4979 372.038C85.7275 372.079 85.9489 372.163 86.1619 372.29C86.3774 372.418 86.5561 372.611 86.6982 372.869C86.8402 373.127 86.9112 373.473 86.9112 373.906V377.5H86.0732V376.761H86.0305C85.9737 376.88 85.879 377.006 85.7464 377.141C85.6139 377.276 85.4375 377.391 85.2173 377.486C84.9972 377.58 84.7285 377.628 84.4112 377.628ZM84.5391 376.875C84.8705 376.875 85.1499 376.81 85.3771 376.68C85.6068 376.549 85.7796 376.381 85.8956 376.175C86.014 375.969 86.0732 375.753 86.0732 375.526V374.759C86.0376 374.801 85.9595 374.84 85.8388 374.876C85.7204 374.909 85.5831 374.938 85.4268 374.964C85.273 374.988 85.1226 375.009 84.9759 375.028C84.8314 375.045 84.7143 375.059 84.6243 375.071C84.4065 375.099 84.2029 375.146 84.0135 375.21C83.8265 375.271 83.675 375.365 83.5589 375.49C83.4453 375.613 83.3885 375.781 83.3885 375.994C83.3885 376.286 83.4962 376.506 83.7116 376.655C83.9295 376.802 84.2053 376.875 84.5391 376.875ZM90.6568 377.614C90.1454 377.614 89.7051 377.493 89.3358 377.251C88.9664 377.01 88.6824 376.677 88.4835 376.254C88.2846 375.83 88.1852 375.346 88.1852 374.801C88.1852 374.247 88.287 373.758 88.4906 373.335C88.6966 372.908 88.983 372.576 89.35 372.337C89.7193 372.095 90.1502 371.974 90.6426 371.974C91.0261 371.974 91.3717 372.045 91.6795 372.188C91.9873 372.33 92.2394 372.528 92.4359 372.784C92.6324 373.04 92.7543 373.338 92.8017 373.679H91.9636C91.8997 373.43 91.7576 373.21 91.5375 373.018C91.3197 372.824 91.0261 372.727 90.6568 372.727C90.3301 372.727 90.0436 372.812 89.7974 372.983C89.5536 373.151 89.363 373.389 89.2257 373.697C89.0907 374.002 89.0233 374.361 89.0233 374.773C89.0233 375.194 89.0895 375.561 89.2221 375.874C89.3571 376.186 89.5465 376.429 89.7903 376.602C90.0365 376.774 90.3253 376.861 90.6568 376.861C90.8746 376.861 91.0723 376.823 91.2498 376.747C91.4274 376.671 91.5777 376.562 91.7008 376.42C91.8239 376.278 91.9115 376.108 91.9636 375.909H92.8017C92.7543 376.231 92.6371 376.521 92.4501 376.779C92.2654 377.035 92.0204 377.238 91.715 377.39C91.412 377.539 91.0592 377.614 90.6568 377.614ZM94.8081 375.511L94.7939 374.474H94.9643L97.3507 372.045H98.3876L95.845 374.616H95.774L94.8081 375.511ZM94.0268 377.5V370.227H94.8649V377.5H94.0268ZM97.4927 377.5L95.362 374.801L95.9586 374.219L98.5581 377.5H97.4927Z" fill="#222222"/>
<path d="M257.17 378V373.69L257.22 372.27L256.09 373.19L254.84 374.19V372.94L257.46 371.02H258.23V378H257.17ZM254.84 378V377.1H259.78V378H254.84ZM263.724 378.11C263.257 378.11 262.851 378.027 262.504 377.86C262.157 377.693 261.881 377.457 261.674 377.15C261.474 376.843 261.364 376.487 261.344 376.08H262.404C262.437 376.42 262.571 376.693 262.804 376.9C263.037 377.107 263.347 377.21 263.734 377.21C264.034 377.21 264.294 377.143 264.514 377.01C264.734 376.877 264.904 376.687 265.024 376.44C265.144 376.193 265.204 375.907 265.204 375.58C265.204 375.153 265.077 374.81 264.824 374.55C264.571 374.283 264.237 374.15 263.824 374.15C263.537 374.15 263.267 374.223 263.014 374.37C262.761 374.51 262.557 374.693 262.404 374.92H261.424L262.014 371.02H265.954V371.92H262.874L262.554 373.94C262.747 373.727 262.981 373.557 263.254 373.43C263.527 373.303 263.807 373.24 264.094 373.24C264.527 373.24 264.911 373.34 265.244 373.54C265.577 373.733 265.837 374.003 266.024 374.35C266.211 374.69 266.304 375.093 266.304 375.56C266.304 376.08 266.197 376.533 265.984 376.92C265.771 377.3 265.471 377.593 265.084 377.8C264.697 378.007 264.244 378.11 263.724 378.11ZM270.258 378.12C269.691 378.12 269.208 377.973 268.808 377.68C268.408 377.38 268.101 376.96 267.888 376.42C267.674 375.873 267.568 375.237 267.568 374.51C267.568 373.77 267.674 373.13 267.888 372.59C268.101 372.05 268.408 371.633 268.808 371.34C269.208 371.047 269.691 370.9 270.258 370.9C270.831 370.9 271.314 371.047 271.708 371.34C272.108 371.633 272.414 372.05 272.628 372.59C272.841 373.123 272.948 373.763 272.948 374.51C272.948 375.243 272.841 375.88 272.628 376.42C272.414 376.96 272.108 377.38 271.708 377.68C271.314 377.973 270.831 378.12 270.258 378.12ZM270.258 377.22C270.784 377.22 271.181 376.983 271.448 376.51C271.714 376.03 271.848 375.363 271.848 374.51C271.848 373.643 271.714 372.977 271.448 372.51C271.181 372.037 270.784 371.8 270.258 371.8C269.738 371.8 269.344 372.037 269.078 372.51C268.811 372.977 268.678 373.643 268.678 374.51C268.678 375.363 268.811 376.03 269.078 376.51C269.344 376.983 269.738 377.22 270.258 377.22ZM276.762 378.12C276.195 378.12 275.712 377.973 275.312 377.68C274.912 377.38 274.605 376.96 274.392 376.42C274.178 375.873 274.072 375.237 274.072 374.51C274.072 373.77 274.178 373.13 274.392 372.59C274.605 372.05 274.912 371.633 275.312 371.34C275.712 371.047 276.195 370.9 276.762 370.9C277.335 370.9 277.818 371.047 278.212 371.34C278.612 371.633 278.918 372.05 279.132 372.59C279.345 373.123 279.452 373.763 279.452 374.51C279.452 375.243 279.345 375.88 279.132 376.42C278.918 376.96 278.612 377.38 278.212 377.68C277.818 377.973 277.335 378.12 276.762 378.12ZM276.762 377.22C277.288 377.22 277.685 376.983 277.952 376.51C278.218 376.03 278.352 375.363 278.352 374.51C278.352 373.643 278.218 372.977 277.952 372.51C277.685 372.037 277.288 371.8 276.762 371.8C276.242 371.8 275.848 372.037 275.582 372.51C275.315 372.977 275.182 373.643 275.182 374.51C275.182 375.363 275.315 376.03 275.582 376.51C275.848 376.983 276.242 377.22 276.762 377.22ZM291.59 378V373.98C291.59 373.74 291.546 373.553 291.46 373.42C291.38 373.287 291.253 373.22 291.08 373.22C290.84 373.22 290.623 373.373 290.43 373.68C290.243 373.987 290.113 374.47 290.04 375.13L289.95 374.28C289.97 373.68 290.11 373.213 290.37 372.88C290.636 372.547 290.963 372.38 291.35 372.38C291.71 372.38 291.993 372.513 292.2 372.78C292.413 373.04 292.52 373.413 292.52 373.9V378H291.59ZM287.02 378V372.5H287.91L287.95 373.57V378H287.02ZM289.31 378V373.98C289.31 373.727 289.263 373.537 289.17 373.41C289.083 373.283 288.95 373.22 288.77 373.22C288.516 373.22 288.3 373.38 288.12 373.7C287.94 374.02 287.813 374.497 287.74 375.13L287.72 374.25C287.733 373.857 287.803 373.52 287.93 373.24C288.056 372.96 288.22 372.747 288.42 372.6C288.62 372.453 288.833 372.38 289.06 372.38C289.433 372.38 289.72 372.517 289.92 372.79C290.126 373.057 290.23 373.423 290.23 373.89V378H289.31ZM298.093 378V373.98C298.093 373.74 298.05 373.553 297.963 373.42C297.883 373.287 297.757 373.22 297.583 373.22C297.343 373.22 297.127 373.373 296.933 373.68C296.747 373.987 296.617 374.47 296.543 375.13L296.453 374.28C296.473 373.68 296.613 373.213 296.873 372.88C297.14 372.547 297.467 372.38 297.853 372.38C298.213 372.38 298.497 372.513 298.703 372.78C298.917 373.04 299.023 373.413 299.023 373.9V378H298.093ZM293.523 378V372.5H294.413L294.453 373.57V378H293.523ZM295.813 378V373.98C295.813 373.727 295.767 373.537 295.673 373.41C295.587 373.283 295.453 373.22 295.273 373.22C295.02 373.22 294.803 373.38 294.623 373.7C294.443 374.02 294.317 374.497 294.243 375.13L294.223 374.25C294.237 373.857 294.307 373.52 294.433 373.24C294.56 372.96 294.723 372.747 294.923 372.6C295.123 372.453 295.337 372.38 295.563 372.38C295.937 372.38 296.223 372.517 296.423 372.79C296.63 373.057 296.733 373.423 296.733 373.89V378H295.813Z" fill="#222222"/>
</g>
<defs>
<filter id="filter0_d_4352_41198" x="0" y="0" width="327" height="415" filterUnits="userSpaceOnUse" color-interpolation-filters="sRGB">
<feFlood flood-opacity="0" result="BackgroundImageFix"/>
<feColorMatrix in="SourceAlpha" type="matrix" values="0 0 0 0 0 0 0 0 0 0 0 0 0 0 0 0 0 0 127 0" result="hardAlpha"/>
<feMorphology radius="3" operator="dilate" in="SourceAlpha" result="effect1_dropShadow_4352_41198"/>
<feOffset dy="2"/>
<feGaussianBlur stdDeviation="4"/>
<feComposite in2="hardAlpha" operator="out"/>
<feColorMatrix type="matrix" values="0 0 0 0 0 0 0 0 0 0 0 0 0 0 0 0 0 0 0.04 0"/>
<feBlend mode="normal" in2="BackgroundImageFix" result="effect1_dropShadow_4352_41198"/>
<feBlend mode="normal" in="SourceGraphic" in2="effect1_dropShadow_4352_41198" result="shape"/>
</filter>
</defs>
</svg>
