<svg width="320" height="72" viewBox="0 0 320 72" fill="none" xmlns="http://www.w3.org/2000/svg">
<g clip-path="url(#clip0_5362_26854)">
<rect width="288" height="32" transform="translate(16)" fill="white"/>
<path d="M16.8807 5.72727H17.9318L20.4034 11.7642H20.4886L22.9602 5.72727H24.0114V13H23.1875V7.47443H23.1165L20.8438 13H20.0483L17.7756 7.47443H17.7045V13H16.8807V5.72727ZM27.2686 13.1278C26.923 13.1278 26.6093 13.0627 26.3276 12.9325C26.0459 12.8 25.8221 12.6094 25.6564 12.3608C25.4907 12.1098 25.4078 11.8068 25.4078 11.4517C25.4078 11.1392 25.4694 10.8859 25.5925 10.6918C25.7156 10.4953 25.8801 10.3414 26.0861 10.2301C26.2921 10.1188 26.5194 10.036 26.7679 9.98153C27.0189 9.92472 27.271 9.87973 27.5243 9.84659C27.8558 9.80398 28.1245 9.77202 28.3304 9.75071C28.5388 9.72704 28.6903 9.68797 28.785 9.63352C28.882 9.57907 28.9306 9.48437 28.9306 9.34943V9.32102C28.9306 8.97064 28.8347 8.69839 28.6429 8.50426C28.4535 8.31013 28.1659 8.21307 27.78 8.21307C27.3799 8.21307 27.0662 8.30066 26.839 8.47585C26.6117 8.65104 26.4519 8.83807 26.3596 9.03693L25.5641 8.75284C25.7061 8.4214 25.8955 8.16335 26.1323 7.97869C26.3714 7.79167 26.6318 7.66146 26.9135 7.58807C27.1976 7.51231 27.477 7.47443 27.7516 7.47443C27.9268 7.47443 28.128 7.49574 28.3553 7.53835C28.5849 7.5786 28.8063 7.66264 29.0194 7.79048C29.2348 7.91832 29.4135 8.11127 29.5556 8.36932C29.6976 8.62737 29.7686 8.97301 29.7686 9.40625V13H28.9306V12.2614H28.888C28.8311 12.3797 28.7364 12.5064 28.6039 12.6413C28.4713 12.7763 28.2949 12.8911 28.0748 12.9858C27.8546 13.0805 27.5859 13.1278 27.2686 13.1278ZM27.3965 12.375C27.7279 12.375 28.0073 12.3099 28.2346 12.1797C28.4642 12.0495 28.637 11.8814 28.753 11.6754C28.8714 11.4695 28.9306 11.2528 28.9306 11.0256V10.2585C28.8951 10.3011 28.8169 10.3402 28.6962 10.3757C28.5778 10.4089 28.4405 10.4384 28.2843 10.4645C28.1304 10.4882 27.9801 10.5095 27.8333 10.5284C27.6889 10.545 27.5717 10.5592 27.4817 10.571C27.2639 10.5994 27.0603 10.6456 26.8709 10.7095C26.6839 10.7711 26.5324 10.8646 26.4164 10.9901C26.3027 11.1132 26.2459 11.2812 26.2459 11.4943C26.2459 11.7855 26.3536 12.0057 26.5691 12.1548C26.7869 12.3016 27.0627 12.375 27.3965 12.375ZM32.1364 9.71875V13H31.2983V7.54545H32.108V8.39773H32.179C32.3068 8.12074 32.5009 7.8982 32.7614 7.73011C33.0218 7.55966 33.358 7.47443 33.7699 7.47443C34.1392 7.47443 34.4624 7.55019 34.7393 7.7017C35.0163 7.85085 35.2318 8.07812 35.3857 8.38352C35.5395 8.68655 35.6165 9.07008 35.6165 9.53409V13H34.7784V9.59091C34.7784 9.16241 34.6671 8.8286 34.4446 8.58949C34.2221 8.34801 33.9167 8.22727 33.5284 8.22727C33.2609 8.22727 33.0218 8.28527 32.8111 8.40128C32.6027 8.51728 32.4382 8.68655 32.3175 8.90909C32.1967 9.13163 32.1364 9.40152 32.1364 9.71875ZM40.5854 10.7699V7.54545H41.4235V13H40.5854V12.0767H40.5286C40.4007 12.3537 40.2019 12.5893 39.932 12.7834C39.6621 12.9751 39.3212 13.071 38.9093 13.071C38.5684 13.071 38.2653 12.9964 38.0002 12.8473C37.735 12.6958 37.5267 12.4685 37.3752 12.1655C37.2237 11.8601 37.1479 11.4754 37.1479 11.0114V7.54545H37.986V10.9545C37.986 11.3523 38.0972 11.6695 38.3198 11.9062C38.5447 12.143 38.8311 12.2614 39.1792 12.2614C39.3875 12.2614 39.5994 12.2081 39.8148 12.1016C40.0326 11.995 40.2149 11.8317 40.3617 11.6115C40.5108 11.3913 40.5854 11.1108 40.5854 10.7699ZM44.5636 13.1278C44.2179 13.1278 43.9042 13.0627 43.6225 12.9325C43.3408 12.8 43.1171 12.6094 42.9513 12.3608C42.7856 12.1098 42.7028 11.8068 42.7028 11.4517C42.7028 11.1392 42.7643 10.8859 42.8874 10.6918C43.0105 10.4953 43.1751 10.3414 43.381 10.2301C43.587 10.1188 43.8143 10.036 44.0629 9.98153C44.3138 9.92472 44.5659 9.87973 44.8192 9.84659C45.1507 9.80398 45.4194 9.77202 45.6254 9.75071C45.8337 9.72704 45.9852 9.68797 46.0799 9.63352C46.177 9.57907 46.2255 9.48437 46.2255 9.34943V9.32102C46.2255 8.97064 46.1296 8.69839 45.9379 8.50426C45.7485 8.31013 45.4608 8.21307 45.0749 8.21307C44.6748 8.21307 44.3612 8.30066 44.1339 8.47585C43.9066 8.65104 43.7468 8.83807 43.6545 9.03693L42.859 8.75284C43.0011 8.4214 43.1905 8.16335 43.4272 7.97869C43.6663 7.79167 43.9267 7.66146 44.2085 7.58807C44.4925 7.51231 44.7719 7.47443 45.0465 7.47443C45.2217 7.47443 45.4229 7.49574 45.6502 7.53835C45.8799 7.5786 46.1012 7.66264 46.3143 7.79048C46.5297 7.91832 46.7085 8.11127 46.8505 8.36932C46.9925 8.62737 47.0636 8.97301 47.0636 9.40625V13H46.2255V12.2614H46.1829C46.1261 12.3797 46.0314 12.5064 45.8988 12.6413C45.7662 12.7763 45.5898 12.8911 45.3697 12.9858C45.1495 13.0805 44.8808 13.1278 44.5636 13.1278ZM44.6914 12.375C45.0228 12.375 45.3022 12.3099 45.5295 12.1797C45.7591 12.0495 45.9319 11.8814 46.0479 11.6754C46.1663 11.4695 46.2255 11.2528 46.2255 11.0256V10.2585C46.19 10.3011 46.1119 10.3402 45.9911 10.3757C45.8728 10.4089 45.7354 10.4384 45.5792 10.4645C45.4253 10.4882 45.275 10.5095 45.1282 10.5284C44.9838 10.545 44.8666 10.5592 44.7766 10.571C44.5588 10.5994 44.3552 10.6456 44.1658 10.7095C43.9788 10.7711 43.8273 10.8646 43.7113 10.9901C43.5977 11.1132 43.5408 11.2812 43.5408 11.4943C43.5408 11.7855 43.6486 12.0057 43.864 12.1548C44.0818 12.3016 44.3576 12.375 44.6914 12.375ZM49.4313 5.72727V13H48.5932V5.72727H49.4313ZM53.7788 15.0455V7.54545H54.5884V8.41193H54.6879C54.7494 8.31723 54.8346 8.1965 54.9435 8.04972C55.0548 7.90057 55.2134 7.76799 55.4194 7.65199C55.6277 7.53362 55.9094 7.47443 56.2646 7.47443C56.7238 7.47443 57.1287 7.58925 57.479 7.81889C57.8294 8.04853 58.1029 8.37405 58.2994 8.79545C58.4959 9.21686 58.5941 9.71402 58.5941 10.2869C58.5941 10.8646 58.4959 11.3653 58.2994 11.7891C58.1029 12.2105 57.8306 12.5372 57.4826 12.7692C57.1346 12.9988 56.7333 13.1136 56.2788 13.1136C55.9284 13.1136 55.6478 13.0556 55.4371 12.9396C55.2264 12.8213 55.0643 12.6875 54.9506 12.5384C54.837 12.3868 54.7494 12.2614 54.6879 12.1619H54.6168V15.0455H53.7788ZM54.6026 10.2727C54.6026 10.6847 54.663 11.0481 54.7837 11.3629C54.9045 11.6754 55.0808 11.9205 55.3129 12.098C55.5449 12.2732 55.829 12.3608 56.1651 12.3608C56.5155 12.3608 56.8079 12.2685 57.0423 12.0838C57.279 11.8968 57.4566 11.6458 57.5749 11.331C57.6957 11.0137 57.756 10.661 57.756 10.2727C57.756 9.8892 57.6969 9.54356 57.5785 9.2358C57.4625 8.92566 57.2861 8.68063 57.0494 8.50071C56.815 8.31842 56.5202 8.22727 56.1651 8.22727C55.8242 8.22727 55.5378 8.31368 55.3058 8.48651C55.0737 8.65696 54.8986 8.89607 54.7802 9.20384C54.6618 9.50923 54.6026 9.86553 54.6026 10.2727ZM59.8725 13V7.54545H60.6822V8.36932H60.739C60.8384 8.09943 61.0183 7.88045 61.2788 7.71236C61.5392 7.54427 61.8327 7.46023 62.1594 7.46023C62.221 7.46023 62.2979 7.46141 62.3903 7.46378C62.4826 7.46615 62.5524 7.4697 62.5998 7.47443V8.3267C62.5714 8.3196 62.5063 8.30895 62.4045 8.29474C62.305 8.27817 62.1997 8.26989 62.0884 8.26989C61.8233 8.26989 61.5865 8.32552 61.3782 8.43679C61.1722 8.54569 61.0089 8.69721 60.8881 8.89134C60.7698 9.0831 60.7106 9.30208 60.7106 9.5483V13H59.8725ZM65.6431 13.1136C65.1507 13.1136 64.7186 12.9964 64.3469 12.7621C63.9776 12.5277 63.6888 12.1998 63.4805 11.7784C63.2745 11.357 63.1715 10.8646 63.1715 10.3011C63.1715 9.73295 63.2745 9.23698 63.4805 8.81321C63.6888 8.38944 63.9776 8.06037 64.3469 7.82599C64.7186 7.59162 65.1507 7.47443 65.6431 7.47443C66.1355 7.47443 66.5664 7.59162 66.9357 7.82599C67.3074 8.06037 67.5962 8.38944 67.8022 8.81321C68.0105 9.23698 68.1147 9.73295 68.1147 10.3011C68.1147 10.8646 68.0105 11.357 67.8022 11.7784C67.5962 12.1998 67.3074 12.5277 66.9357 12.7621C66.5664 12.9964 66.1355 13.1136 65.6431 13.1136ZM65.6431 12.3608C66.0172 12.3608 66.3249 12.2649 66.5664 12.0732C66.8079 11.8814 66.9866 11.6293 67.1026 11.3168C67.2186 11.0043 67.2766 10.6657 67.2766 10.3011C67.2766 9.93655 67.2186 9.59683 67.1026 9.28196C66.9866 8.96709 66.8079 8.71259 66.5664 8.51847C66.3249 8.32434 66.0172 8.22727 65.6431 8.22727C65.2691 8.22727 64.9613 8.32434 64.7198 8.51847C64.4783 8.71259 64.2996 8.96709 64.1836 9.28196C64.0676 9.59683 64.0096 9.93655 64.0096 10.3011C64.0096 10.6657 64.0676 11.0043 64.1836 11.3168C64.2996 11.6293 64.4783 11.8814 64.7198 12.0732C64.9613 12.2649 65.2691 12.3608 65.6431 12.3608ZM71.6099 13.1136C71.0985 13.1136 70.6582 12.9929 70.2889 12.7514C69.9196 12.5099 69.6355 12.1773 69.4366 11.7536C69.2377 11.3298 69.1383 10.8456 69.1383 10.3011C69.1383 9.74716 69.2401 9.25829 69.4437 8.83452C69.6497 8.40838 69.9361 8.07576 70.3031 7.83665C70.6724 7.59517 71.1033 7.47443 71.5957 7.47443C71.9792 7.47443 72.3249 7.54545 72.6326 7.6875C72.9404 7.82955 73.1925 8.02841 73.389 8.28409C73.5855 8.53977 73.7074 8.83807 73.7548 9.17898H72.9167C72.8528 8.9304 72.7108 8.71023 72.4906 8.51847C72.2728 8.32434 71.9792 8.22727 71.6099 8.22727C71.2832 8.22727 70.9967 8.3125 70.7505 8.48295C70.5067 8.65104 70.3161 8.88897 70.1788 9.19673C70.0439 9.50213 69.9764 9.8608 69.9764 10.2727C69.9764 10.6941 70.0427 11.0611 70.1752 11.3736C70.3102 11.6861 70.4996 11.9287 70.7434 12.1016C70.9896 12.2744 71.2785 12.3608 71.6099 12.3608C71.8277 12.3608 72.0254 12.3229 72.2029 12.2472C72.3805 12.1714 72.5308 12.0625 72.6539 11.9205C72.777 11.7784 72.8646 11.608 72.9167 11.4091H73.7548C73.7074 11.7311 73.5903 12.0211 73.4032 12.2791C73.2186 12.5348 72.9735 12.7384 72.6681 12.8899C72.3651 13.0391 72.0124 13.1136 71.6099 13.1136ZM77.2669 13.1136C76.7413 13.1136 76.2879 12.9976 75.9068 12.7656C75.528 12.5312 75.2356 12.2045 75.0297 11.7855C74.8261 11.3641 74.7243 10.8741 74.7243 10.3153C74.7243 9.75663 74.8261 9.2642 75.0297 8.83807C75.2356 8.40956 75.5221 8.07576 75.889 7.83665C76.2583 7.59517 76.6892 7.47443 77.1816 7.47443C77.4657 7.47443 77.7463 7.52178 78.0233 7.61648C78.3002 7.71117 78.5524 7.86506 78.7797 8.07812C79.0069 8.28883 79.188 8.56818 79.323 8.91619C79.4579 9.2642 79.5254 9.69271 79.5254 10.2017V10.5568H75.3208V9.83239H78.6731C78.6731 9.52462 78.6116 9.25 78.4885 9.00852C78.3677 8.76705 78.1949 8.57647 77.97 8.43679C77.7475 8.29711 77.4847 8.22727 77.1816 8.22727C76.8478 8.22727 76.559 8.31013 76.3152 8.47585C76.0737 8.6392 75.8878 8.85227 75.7576 9.11506C75.6274 9.37784 75.5623 9.65956 75.5623 9.96023V10.4432C75.5623 10.8551 75.6333 11.2043 75.7754 11.4908C75.9198 11.7749 76.1199 11.9915 76.3755 12.1406C76.6312 12.2874 76.9283 12.3608 77.2669 12.3608C77.487 12.3608 77.6859 12.33 77.8635 12.2685C78.0434 12.2045 78.1984 12.1098 78.3287 11.9844C78.4589 11.8565 78.5595 11.6979 78.6305 11.5085L79.4402 11.7358C79.3549 12.0104 79.2117 12.2519 79.0105 12.4602C78.8092 12.6662 78.5607 12.8272 78.2647 12.9432C77.9688 13.0568 77.6362 13.1136 77.2669 13.1136ZM84.6639 8.76705L83.911 8.98011C83.8637 8.85464 83.7939 8.73272 83.7015 8.61435C83.6116 8.49361 83.4885 8.39418 83.3322 8.31605C83.176 8.23793 82.9759 8.19886 82.7321 8.19886C82.3983 8.19886 82.1201 8.2758 81.8975 8.42969C81.6774 8.5812 81.5673 8.77415 81.5673 9.00852C81.5673 9.21686 81.6431 9.38139 81.7946 9.50213C81.9461 9.62287 82.1828 9.72348 82.5048 9.80398L83.3145 10.0028C83.8021 10.1212 84.1655 10.3023 84.4047 10.5462C84.6438 10.7876 84.7633 11.099 84.7633 11.4801C84.7633 11.7926 84.6734 12.072 84.4934 12.3182C84.3159 12.5644 84.0673 12.7585 83.7477 12.9006C83.4281 13.0426 83.0564 13.1136 82.6326 13.1136C82.0763 13.1136 81.6158 12.9929 81.2512 12.7514C80.8867 12.5099 80.6558 12.1572 80.5588 11.6932L81.3542 11.4943C81.43 11.7879 81.5732 12.008 81.7839 12.1548C81.997 12.3016 82.2752 12.375 82.6184 12.375C83.0091 12.375 83.3192 12.2921 83.5488 12.1264C83.7808 11.9583 83.8968 11.7571 83.8968 11.5227C83.8968 11.3333 83.8306 11.1747 83.698 11.0469C83.5654 10.9167 83.3618 10.8196 83.0872 10.7557L82.1781 10.5426C81.6786 10.4242 81.3116 10.2408 81.0772 9.99219C80.8452 9.74124 80.7292 9.42756 80.7292 9.05114C80.7292 8.74337 80.8156 8.47112 80.9885 8.23438C81.1636 7.99763 81.4016 7.81179 81.7022 7.67685C82.0053 7.5419 82.3485 7.47443 82.7321 7.47443C83.2718 7.47443 83.6956 7.5928 84.0034 7.82955C84.3135 8.06629 84.5337 8.37879 84.6639 8.76705ZM89.8885 8.76705L89.1357 8.98011C89.0883 8.85464 89.0185 8.73272 88.9261 8.61435C88.8362 8.49361 88.7131 8.39418 88.5568 8.31605C88.4006 8.23793 88.2005 8.19886 87.9567 8.19886C87.6229 8.19886 87.3447 8.2758 87.1222 8.42969C86.902 8.5812 86.7919 8.77415 86.7919 9.00852C86.7919 9.21686 86.8677 9.38139 87.0192 9.50213C87.1707 9.62287 87.4074 9.72348 87.7294 9.80398L88.5391 10.0028C89.0268 10.1212 89.3902 10.3023 89.6293 10.5462C89.8684 10.7876 89.9879 11.099 89.9879 11.4801C89.9879 11.7926 89.898 12.072 89.718 12.3182C89.5405 12.5644 89.2919 12.7585 88.9723 12.9006C88.6527 13.0426 88.281 13.1136 87.8572 13.1136C87.3009 13.1136 86.8404 12.9929 86.4759 12.7514C86.1113 12.5099 85.8804 12.1572 85.7834 11.6932L86.5788 11.4943C86.6546 11.7879 86.7978 12.008 87.0085 12.1548C87.2216 12.3016 87.4998 12.375 87.843 12.375C88.2337 12.375 88.5438 12.2921 88.7734 12.1264C89.0054 11.9583 89.1214 11.7571 89.1214 11.5227C89.1214 11.3333 89.0552 11.1747 88.9226 11.0469C88.79 10.9167 88.5864 10.8196 88.3118 10.7557L87.4027 10.5426C86.9032 10.4242 86.5362 10.2408 86.3018 9.99219C86.0698 9.74124 85.9538 9.42756 85.9538 9.05114C85.9538 8.74337 86.0402 8.47112 86.2131 8.23438C86.3883 7.99763 86.6262 7.81179 86.9268 7.67685C87.2299 7.5419 87.5732 7.47443 87.9567 7.47443C88.4964 7.47443 88.9202 7.5928 89.228 7.82955C89.5381 8.06629 89.7583 8.37879 89.8885 8.76705ZM19.1392 20.5455V21.2557H16.3125V20.5455H19.1392ZM17.1364 19.2386H17.9744V24.4375C17.9744 24.6742 18.0088 24.8518 18.0774 24.9702C18.1484 25.0862 18.2384 25.1643 18.3473 25.2045C18.4586 25.2424 18.5758 25.2614 18.6989 25.2614C18.7912 25.2614 18.867 25.2566 18.9261 25.2472C18.9853 25.2353 19.0327 25.2259 19.0682 25.2188L19.2386 25.9716C19.1818 25.9929 19.1025 26.0142 19.0007 26.0355C18.8989 26.0592 18.7699 26.071 18.6136 26.071C18.3769 26.071 18.1449 26.0201 17.9176 25.9183C17.6927 25.8165 17.5057 25.6615 17.3565 25.4531C17.2098 25.2448 17.1364 24.982 17.1364 24.6648V19.2386ZM20.3999 26V20.5455H21.2379V26H20.3999ZM20.826 19.6364C20.6626 19.6364 20.5218 19.5807 20.4034 19.4695C20.2874 19.3582 20.2294 19.2244 20.2294 19.0682C20.2294 18.9119 20.2874 18.7782 20.4034 18.6669C20.5218 18.5556 20.6626 18.5 20.826 18.5C20.9893 18.5 21.129 18.5556 21.245 18.6669C21.3634 18.7782 21.4226 18.9119 21.4226 19.0682C21.4226 19.2244 21.3634 19.3582 21.245 19.4695C21.129 19.5807 20.9893 19.6364 20.826 19.6364ZM22.7729 26V20.5455H23.5826V21.3977H23.6536C23.7672 21.1065 23.9507 20.8804 24.204 20.7195C24.4573 20.5561 24.7615 20.4744 25.1167 20.4744C25.4765 20.4744 25.776 20.5561 26.0151 20.7195C26.2566 20.8804 26.4448 21.1065 26.5797 21.3977H26.6365C26.7762 21.116 26.9857 20.8923 27.2651 20.7266C27.5444 20.5585 27.8794 20.4744 28.2701 20.4744C28.7578 20.4744 29.1567 20.6271 29.4668 20.9325C29.7769 21.2356 29.932 21.7079 29.932 22.3494V26H29.0939V22.3494C29.0939 21.947 28.9838 21.6593 28.7637 21.4865C28.5435 21.3137 28.2843 21.2273 27.986 21.2273C27.6025 21.2273 27.3053 21.3433 27.0946 21.5753C26.8839 21.8049 26.7786 22.0961 26.7786 22.4489V26H25.9263V22.2642C25.9263 21.9541 25.8257 21.7043 25.6245 21.5149C25.4232 21.3232 25.164 21.2273 24.8468 21.2273C24.629 21.2273 24.4254 21.2853 24.236 21.4013C24.0489 21.5173 23.8974 21.6783 23.7814 21.8842C23.6678 22.0878 23.611 22.3234 23.611 22.5909V26H22.7729ZM33.7512 26.1136C33.2257 26.1136 32.7723 25.9976 32.3912 25.7656C32.0124 25.5312 31.72 25.2045 31.514 24.7855C31.3104 24.3641 31.2086 23.8741 31.2086 23.3153C31.2086 22.7566 31.3104 22.2642 31.514 21.8381C31.72 21.4096 32.0065 21.0758 32.3734 20.8366C32.7427 20.5952 33.1736 20.4744 33.666 20.4744C33.9501 20.4744 34.2306 20.5218 34.5076 20.6165C34.7846 20.7112 35.0368 20.8651 35.264 21.0781C35.4913 21.2888 35.6724 21.5682 35.8074 21.9162C35.9423 22.2642 36.0098 22.6927 36.0098 23.2017V23.5568H31.8052V22.8324H35.1575C35.1575 22.5246 35.0959 22.25 34.9728 22.0085C34.8521 21.767 34.6793 21.5765 34.4544 21.4368C34.2318 21.2971 33.969 21.2273 33.666 21.2273C33.3322 21.2273 33.0434 21.3101 32.7995 21.4759C32.5581 21.6392 32.3722 21.8523 32.242 22.1151C32.1118 22.3778 32.0467 22.6596 32.0467 22.9602V23.4432C32.0467 23.8551 32.1177 24.2043 32.2598 24.4908C32.4042 24.7749 32.6042 24.9915 32.8599 25.1406C33.1156 25.2874 33.4127 25.3608 33.7512 25.3608C33.9714 25.3608 34.1703 25.33 34.3478 25.2685C34.5278 25.2045 34.6828 25.1098 34.813 24.9844C34.9432 24.8565 35.0439 24.6979 35.1149 24.5085L35.9245 24.7358C35.8393 25.0104 35.6961 25.2519 35.4949 25.4602C35.2936 25.6662 35.045 25.8272 34.7491 25.9432C34.4532 26.0568 34.1206 26.1136 33.7512 26.1136Z" fill="var(--colors-neutral-neutral-800)"/>
<rect width="184" height="32" transform="translate(120)" fill="var(--colors-neutral-neutral-300)"/>
<path d="M131.972 11.2727V20H130.915V12.3807H130.864L128.733 13.7955V12.7216L130.915 11.2727H131.972ZM137.328 20.1193C136.686 20.1193 136.139 19.9446 135.688 19.5952C135.236 19.2429 134.891 18.733 134.652 18.0653C134.413 17.3949 134.294 16.5852 134.294 15.6364C134.294 14.6932 134.413 13.8878 134.652 13.2202C134.893 12.5497 135.24 12.0384 135.692 11.6861C136.146 11.331 136.692 11.1534 137.328 11.1534C137.964 11.1534 138.509 11.331 138.96 11.6861C139.415 12.0384 139.761 12.5497 140 13.2202C140.241 13.8878 140.362 14.6932 140.362 15.6364C140.362 16.5852 140.243 17.3949 140.004 18.0653C139.766 18.733 139.42 19.2429 138.969 19.5952C138.517 19.9446 137.97 20.1193 137.328 20.1193ZM137.328 19.1818C137.964 19.1818 138.459 18.875 138.811 18.2614C139.163 17.6477 139.339 16.7727 139.339 15.6364C139.339 14.8807 139.259 14.2372 139.097 13.706C138.938 13.1747 138.707 12.7699 138.406 12.4915C138.108 12.2131 137.749 12.0739 137.328 12.0739C136.697 12.0739 136.205 12.3849 135.849 13.0071C135.494 13.6264 135.317 14.5028 135.317 15.6364C135.317 16.392 135.396 17.0341 135.555 17.5625C135.714 18.0909 135.943 18.4929 136.241 18.7685C136.543 19.044 136.905 19.1818 137.328 19.1818Z" fill="var(--colors-neutral-neutral-800)"/>
<path d="M286 15.267L285.247 15.4801C285.2 15.3546 285.13 15.2327 285.037 15.1143C284.948 14.9936 284.824 14.8942 284.668 14.8161C284.512 14.7379 284.312 14.6989 284.068 14.6989C283.734 14.6989 283.456 14.7758 283.233 14.9297C283.013 15.0812 282.903 15.2741 282.903 15.5085C282.903 15.7169 282.979 15.8814 283.131 16.0021C283.282 16.1229 283.519 16.2235 283.841 16.304L284.65 16.5028C285.138 16.6212 285.501 16.8023 285.741 17.0462C285.98 17.2876 286.099 17.599 286.099 17.9801C286.099 18.2926 286.009 18.572 285.829 18.8182C285.652 19.0644 285.403 19.2585 285.084 19.4006C284.764 19.5426 284.392 19.6136 283.969 19.6136C283.412 19.6136 282.952 19.4929 282.587 19.2514C282.223 19.0099 281.992 18.6572 281.895 18.1932L282.69 17.9943C282.766 18.2879 282.909 18.508 283.12 18.6548C283.333 18.8016 283.611 18.875 283.954 18.875C284.345 18.875 284.655 18.7921 284.885 18.6264C285.117 18.4583 285.233 18.2571 285.233 18.0227C285.233 17.8333 285.166 17.6747 285.034 17.5469C284.901 17.4167 284.698 17.3196 284.423 17.2557L283.514 17.0426C283.015 16.9242 282.648 16.7408 282.413 16.4922C282.181 16.2412 282.065 15.9276 282.065 15.5511C282.065 15.2434 282.152 14.9711 282.324 14.7344C282.5 14.4976 282.738 14.3118 283.038 14.1768C283.341 14.0419 283.684 13.9744 284.068 13.9744C284.608 13.9744 285.032 14.0928 285.339 14.3295C285.649 14.5663 285.87 14.8788 286 15.267ZM289.648 19.6136C289.122 19.6136 288.669 19.4976 288.288 19.2656C287.909 19.0312 287.616 18.7045 287.411 18.2855C287.207 17.8641 287.105 17.3741 287.105 16.8153C287.105 16.2566 287.207 15.7642 287.411 15.3381C287.616 14.9096 287.903 14.5758 288.27 14.3366C288.639 14.0952 289.07 13.9744 289.562 13.9744C289.847 13.9744 290.127 14.0218 290.404 14.1165C290.681 14.2112 290.933 14.3651 291.161 14.5781C291.388 14.7888 291.569 15.0682 291.704 15.4162C291.839 15.7642 291.906 16.1927 291.906 16.7017V17.0568H287.702V16.3324H291.054C291.054 16.0246 290.992 15.75 290.869 15.5085C290.749 15.267 290.576 15.0765 290.351 14.9368C290.128 14.7971 289.866 14.7273 289.562 14.7273C289.229 14.7273 288.94 14.8101 288.696 14.9759C288.455 15.1392 288.269 15.3523 288.138 15.6151C288.008 15.8778 287.943 16.1596 287.943 16.4602V16.9432C287.943 17.3551 288.014 17.7043 288.156 17.9908C288.301 18.2749 288.501 18.4915 288.756 18.6406C289.012 18.7874 289.309 18.8608 289.648 18.8608C289.868 18.8608 290.067 18.83 290.244 18.7685C290.424 18.7045 290.579 18.6098 290.71 18.4844C290.84 18.3565 290.94 18.1979 291.011 18.0085L291.821 18.2358C291.736 18.5104 291.593 18.7519 291.391 18.9602C291.19 19.1662 290.942 19.3272 290.646 19.4432C290.35 19.5568 290.017 19.6136 289.648 19.6136ZM295.397 19.6136C294.886 19.6136 294.445 19.4929 294.076 19.2514C293.707 19.0099 293.423 18.6773 293.224 18.2536C293.025 17.8298 292.925 17.3456 292.925 16.8011C292.925 16.2472 293.027 15.7583 293.231 15.3345C293.437 14.9084 293.723 14.5758 294.09 14.3366C294.46 14.0952 294.89 13.9744 295.383 13.9744C295.766 13.9744 296.112 14.0455 296.42 14.1875C296.728 14.3295 296.98 14.5284 297.176 14.7841C297.373 15.0398 297.495 15.3381 297.542 15.679H296.704C296.64 15.4304 296.498 15.2102 296.278 15.0185C296.06 14.8243 295.766 14.7273 295.397 14.7273C295.07 14.7273 294.784 14.8125 294.538 14.983C294.294 15.151 294.103 15.389 293.966 15.6967C293.831 16.0021 293.763 16.3608 293.763 16.7727C293.763 17.1941 293.83 17.5611 293.962 17.8736C294.097 18.1861 294.287 18.4287 294.531 18.6016C294.777 18.7744 295.066 18.8608 295.397 18.8608C295.615 18.8608 295.812 18.8229 295.99 18.7472C296.168 18.6714 296.318 18.5625 296.441 18.4205C296.564 18.2784 296.652 18.108 296.704 17.9091H297.542C297.495 18.2311 297.377 18.5211 297.19 18.7791C297.006 19.0348 296.761 19.2384 296.455 19.3899C296.152 19.5391 295.799 19.6136 295.397 19.6136Z" fill="var(--colors-neutral-neutral-700)"/>
</g>
<g clip-path="url(#clip1_5362_26854)">
<rect width="288" height="32" transform="translate(16 40)" fill="white"/>
<path d="M16.8807 60V52.7273H17.7614V59.2188H21.142V60H16.8807ZM24.608 60.1136C24.1155 60.1136 23.6835 59.9964 23.3118 59.7621C22.9425 59.5277 22.6536 59.1998 22.4453 58.7784C22.2393 58.357 22.1364 57.8646 22.1364 57.3011C22.1364 56.733 22.2393 56.237 22.4453 55.8132C22.6536 55.3894 22.9425 55.0604 23.3118 54.826C23.6835 54.5916 24.1155 54.4744 24.608 54.4744C25.1004 54.4744 25.5313 54.5916 25.9006 54.826C26.2723 55.0604 26.5611 55.3894 26.767 55.8132C26.9754 56.237 27.0795 56.733 27.0795 57.3011C27.0795 57.8646 26.9754 58.357 26.767 58.7784C26.5611 59.1998 26.2723 59.5277 25.9006 59.7621C25.5313 59.9964 25.1004 60.1136 24.608 60.1136ZM24.608 59.3608C24.982 59.3608 25.2898 59.2649 25.5312 59.0732C25.7727 58.8814 25.9515 58.6293 26.0675 58.3168C26.1835 58.0043 26.2415 57.6657 26.2415 57.3011C26.2415 56.9366 26.1835 56.5968 26.0675 56.282C25.9515 55.9671 25.7727 55.7126 25.5312 55.5185C25.2898 55.3243 24.982 55.2273 24.608 55.2273C24.2339 55.2273 23.9261 55.3243 23.6847 55.5185C23.4432 55.7126 23.2644 55.9671 23.1484 56.282C23.0324 56.5968 22.9744 56.9366 22.9744 57.3011C22.9744 57.6657 23.0324 58.0043 23.1484 58.3168C23.2644 58.6293 23.4432 58.8814 23.6847 59.0732C23.9261 59.2649 24.2339 59.3608 24.608 59.3608ZM29.964 60.1278C29.6183 60.1278 29.3046 60.0627 29.0229 59.9325C28.7412 59.8 28.5175 59.6094 28.3517 59.3608C28.186 59.1098 28.1032 58.8068 28.1032 58.4517C28.1032 58.1392 28.1647 57.8859 28.2878 57.6918C28.4109 57.4953 28.5755 57.3414 28.7814 57.2301C28.9874 57.1188 29.2147 57.036 29.4632 56.9815C29.7142 56.9247 29.9663 56.8797 30.2196 56.8466C30.5511 56.804 30.8198 56.772 31.0257 56.7507C31.2341 56.727 31.3856 56.688 31.4803 56.6335C31.5774 56.5791 31.6259 56.4844 31.6259 56.3494V56.321C31.6259 55.9706 31.53 55.6984 31.3382 55.5043C31.1489 55.3101 30.8612 55.2131 30.4753 55.2131C30.0752 55.2131 29.7615 55.3007 29.5343 55.4759C29.307 55.651 29.1472 55.8381 29.0549 56.0369L28.2594 55.7528C28.4015 55.4214 28.5908 55.1634 28.8276 54.9787C29.0667 54.7917 29.3271 54.6615 29.6088 54.5881C29.8929 54.5123 30.1723 54.4744 30.4469 54.4744C30.6221 54.4744 30.8233 54.4957 31.0506 54.5384C31.2802 54.5786 31.5016 54.6626 31.7147 54.7905C31.9301 54.9183 32.1088 55.1113 32.2509 55.3693C32.3929 55.6274 32.464 55.973 32.464 56.4062V60H31.6259V59.2614H31.5833C31.5265 59.3797 31.4318 59.5064 31.2992 59.6413C31.1666 59.7763 30.9902 59.8911 30.7701 59.9858C30.5499 60.0805 30.2812 60.1278 29.964 60.1278ZM30.0918 59.375C30.4232 59.375 30.7026 59.3099 30.9299 59.1797C31.1595 59.0495 31.3323 58.8814 31.4483 58.6754C31.5667 58.4695 31.6259 58.2528 31.6259 58.0256V57.2585C31.5904 57.3011 31.5123 57.3402 31.3915 57.3757C31.2731 57.4089 31.1358 57.4384 30.9796 57.4645C30.8257 57.4882 30.6754 57.5095 30.5286 57.5284C30.3842 57.545 30.267 57.5592 30.177 57.571C29.9592 57.5994 29.7556 57.6456 29.5662 57.7095C29.3792 57.7711 29.2277 57.8646 29.1117 57.9901C28.998 58.1132 28.9412 58.2812 28.9412 58.4943C28.9412 58.7855 29.0489 59.0057 29.2644 59.1548C29.4822 59.3016 29.758 59.375 30.0918 59.375ZM36.0533 60.1136C35.5987 60.1136 35.1974 59.9988 34.8494 59.7692C34.5014 59.5372 34.2292 59.2105 34.0327 58.7891C33.8362 58.3653 33.7379 57.8646 33.7379 57.2869C33.7379 56.714 33.8362 56.2169 34.0327 55.7955C34.2292 55.3741 34.5026 55.0485 34.853 54.8189C35.2034 54.5893 35.6082 54.4744 36.0675 54.4744C36.4226 54.4744 36.7031 54.5336 36.9091 54.652C37.1174 54.768 37.276 54.9006 37.3849 55.0497C37.4962 55.1965 37.5826 55.3172 37.6442 55.4119H37.7152V52.7273H38.5533V60H37.7436V59.1619H37.6442C37.5826 59.2614 37.495 59.3868 37.3814 59.5384C37.2678 59.6875 37.1056 59.8213 36.8949 59.9396C36.6842 60.0556 36.4036 60.1136 36.0533 60.1136ZM36.1669 59.3608C36.5031 59.3608 36.7872 59.2732 37.0192 59.098C37.2512 58.9205 37.4276 58.6754 37.5483 58.3629C37.669 58.0481 37.7294 57.6847 37.7294 57.2727C37.7294 56.8655 37.6702 56.5092 37.5518 56.2038C37.4335 55.8961 37.2583 55.657 37.0263 55.4865C36.7943 55.3137 36.5078 55.2273 36.1669 55.2273C35.8118 55.2273 35.5159 55.3184 35.2791 55.5007C35.0447 55.6806 34.8684 55.9257 34.75 56.2358C34.634 56.5436 34.576 56.8892 34.576 57.2727C34.576 57.661 34.6352 58.0137 34.7536 58.331C34.8743 58.6458 35.0518 58.8968 35.2862 59.0838C35.523 59.2685 35.8165 59.3608 36.1669 59.3608ZM44.6222 60.1278C44.2765 60.1278 43.9628 60.0627 43.6811 59.9325C43.3994 59.8 43.1757 59.6094 43.0099 59.3608C42.8442 59.1098 42.7614 58.8068 42.7614 58.4517C42.7614 58.1392 42.8229 57.8859 42.946 57.6918C43.0691 57.4953 43.2337 57.3414 43.4396 57.2301C43.6456 57.1188 43.8729 57.036 44.1214 56.9815C44.3724 56.9247 44.6245 56.8797 44.8778 56.8466C45.2093 56.804 45.478 56.772 45.6839 56.7507C45.8923 56.727 46.0438 56.688 46.1385 56.6335C46.2356 56.5791 46.2841 56.4844 46.2841 56.3494V56.321C46.2841 55.9706 46.1882 55.6984 45.9964 55.5043C45.8071 55.3101 45.5194 55.2131 45.1335 55.2131C44.7334 55.2131 44.4197 55.3007 44.1925 55.4759C43.9652 55.651 43.8054 55.8381 43.7131 56.0369L42.9176 55.7528C43.0597 55.4214 43.2491 55.1634 43.4858 54.9787C43.7249 54.7917 43.9853 54.6615 44.267 54.5881C44.5511 54.5123 44.8305 54.4744 45.1051 54.4744C45.2803 54.4744 45.4815 54.4957 45.7088 54.5384C45.9384 54.5786 46.1598 54.6626 46.3729 54.7905C46.5883 54.9183 46.767 55.1113 46.9091 55.3693C47.0511 55.6274 47.1222 55.973 47.1222 56.4062V60H46.2841V59.2614H46.2415C46.1847 59.3797 46.09 59.5064 45.9574 59.6413C45.8248 59.7763 45.6484 59.8911 45.4283 59.9858C45.2081 60.0805 44.9394 60.1278 44.6222 60.1278ZM44.75 59.375C45.0814 59.375 45.3608 59.3099 45.5881 59.1797C45.8177 59.0495 45.9905 58.8814 46.1065 58.6754C46.2249 58.4695 46.2841 58.2528 46.2841 58.0256V57.2585C46.2486 57.3011 46.1705 57.3402 46.0497 57.3757C45.9313 57.4089 45.794 57.4384 45.6378 57.4645C45.4839 57.4882 45.3336 57.5095 45.1868 57.5284C45.0424 57.545 44.9252 57.5592 44.8352 57.571C44.6174 57.5994 44.4138 57.6456 44.2244 57.7095C44.0374 57.7711 43.8859 57.8646 43.7699 57.9901C43.6563 58.1132 43.5994 58.2812 43.5994 58.4943C43.5994 58.7855 43.7071 59.0057 43.9226 59.1548C44.1404 59.3016 44.4162 59.375 44.75 59.375ZM50.8677 60.1136C50.3564 60.1136 49.916 59.9929 49.5467 59.7514C49.1774 59.5099 48.8933 59.1773 48.6944 58.7536C48.4956 58.3298 48.3961 57.8456 48.3961 57.3011C48.3961 56.7472 48.4979 56.2583 48.7015 55.8345C48.9075 55.4084 49.194 55.0758 49.5609 54.8366C49.9302 54.5952 50.3611 54.4744 50.8535 54.4744C51.237 54.4744 51.5827 54.5455 51.8904 54.6875C52.1982 54.8295 52.4503 55.0284 52.6468 55.2841C52.8433 55.5398 52.9653 55.8381 53.0126 56.179H52.1745C52.1106 55.9304 51.9686 55.7102 51.7484 55.5185C51.5306 55.3243 51.237 55.2273 50.8677 55.2273C50.541 55.2273 50.2546 55.3125 50.0083 55.483C49.7645 55.651 49.5739 55.889 49.4366 56.1967C49.3017 56.5021 49.2342 56.8608 49.2342 57.2727C49.2342 57.6941 49.3005 58.0611 49.4331 58.3736C49.568 58.6861 49.7574 58.9287 50.0012 59.1016C50.2475 59.2744 50.5363 59.3608 50.8677 59.3608C51.0855 59.3608 51.2832 59.3229 51.4608 59.2472C51.6383 59.1714 51.7886 59.0625 51.9118 58.9205C52.0349 58.7784 52.1225 58.608 52.1745 58.4091H53.0126C52.9653 58.7311 52.8481 59.0211 52.661 59.2791C52.4764 59.5348 52.2314 59.7384 51.926 59.8899C51.6229 60.0391 51.2702 60.1136 50.8677 60.1136ZM56.6099 54.5455V55.2557H53.7832V54.5455H56.6099ZM54.6071 53.2386H55.4451V58.4375C55.4451 58.6742 55.4795 58.8518 55.5481 58.9702C55.6191 59.0862 55.7091 59.1643 55.818 59.2045C55.9293 59.2424 56.0465 59.2614 56.1696 59.2614C56.2619 59.2614 56.3377 59.2566 56.3968 59.2472C56.456 59.2353 56.5034 59.2259 56.5389 59.2188L56.7093 59.9716C56.6525 59.9929 56.5732 60.0142 56.4714 60.0355C56.3696 60.0592 56.2406 60.071 56.0843 60.071C55.8476 60.071 55.6156 60.0201 55.3883 59.9183C55.1634 59.8165 54.9764 59.6615 54.8272 59.4531C54.6805 59.2448 54.6071 58.982 54.6071 58.6648V53.2386ZM57.8706 60V54.5455H58.7086V60H57.8706ZM58.2967 53.6364C58.1333 53.6364 57.9925 53.5807 57.8741 53.4695C57.7581 53.3582 57.7001 53.2244 57.7001 53.0682C57.7001 52.9119 57.7581 52.7782 57.8741 52.6669C57.9925 52.5556 58.1333 52.5 58.2967 52.5C58.46 52.5 58.5997 52.5556 58.7157 52.6669C58.8341 52.7782 58.8933 52.9119 58.8933 53.0682C58.8933 53.2244 58.8341 53.3582 58.7157 53.4695C58.5997 53.5807 58.46 53.6364 58.2967 53.6364ZM62.4595 60.1136C61.9671 60.1136 61.535 59.9964 61.1634 59.7621C60.794 59.5277 60.5052 59.1998 60.2969 58.7784C60.0909 58.357 59.9879 57.8646 59.9879 57.3011C59.9879 56.733 60.0909 56.237 60.2969 55.8132C60.5052 55.3894 60.794 55.0604 61.1634 54.826C61.535 54.5916 61.9671 54.4744 62.4595 54.4744C62.9519 54.4744 63.3828 54.5916 63.7521 54.826C64.1238 55.0604 64.4126 55.3894 64.6186 55.8132C64.8269 56.237 64.9311 56.733 64.9311 57.3011C64.9311 57.8646 64.8269 58.357 64.6186 58.7784C64.4126 59.1998 64.1238 59.5277 63.7521 59.7621C63.3828 59.9964 62.9519 60.1136 62.4595 60.1136ZM62.4595 59.3608C62.8336 59.3608 63.1413 59.2649 63.3828 59.0732C63.6243 58.8814 63.803 58.6293 63.919 58.3168C64.035 58.0043 64.093 57.6657 64.093 57.3011C64.093 56.9366 64.035 56.5968 63.919 56.282C63.803 55.9671 63.6243 55.7126 63.3828 55.5185C63.1413 55.3243 62.8336 55.2273 62.4595 55.2273C62.0855 55.2273 61.7777 55.3243 61.5362 55.5185C61.2947 55.7126 61.116 55.9671 61 56.282C60.884 56.5968 60.826 56.9366 60.826 57.3011C60.826 57.6657 60.884 58.0043 61 58.3168C61.116 58.6293 61.2947 58.8814 61.5362 59.0732C61.7777 59.2649 62.0855 59.3608 62.4595 59.3608ZM67.0485 56.7188V60H66.2104V54.5455H67.0201V55.3977H67.0911C67.2189 55.1207 67.4131 54.8982 67.6735 54.7301C67.9339 54.5597 68.2701 54.4744 68.682 54.4744C69.0513 54.4744 69.3745 54.5502 69.6515 54.7017C69.9284 54.8509 70.1439 55.0781 70.2978 55.3835C70.4516 55.6866 70.5286 56.0701 70.5286 56.5341V60H69.6905V56.5909C69.6905 56.1624 69.5792 55.8286 69.3567 55.5895C69.1342 55.348 68.8288 55.2273 68.4405 55.2273C68.173 55.2273 67.9339 55.2853 67.7232 55.4013C67.5149 55.5173 67.3503 55.6866 67.2296 55.9091C67.1088 56.1316 67.0485 56.4015 67.0485 56.7188Z" fill="var(--colors-neutral-neutral-800)"/>
<rect width="184" height="32" transform="translate(120 40)" fill="var(--colors-neutral-neutral-300)"/>
<path d="M129.057 60V51.2727H130.114V59.0625H134.17V60H129.057ZM138.33 60.1364C137.739 60.1364 137.22 59.9957 136.774 59.7145C136.331 59.4332 135.984 59.0398 135.734 58.5341C135.487 58.0284 135.364 57.4375 135.364 56.7614C135.364 56.0795 135.487 55.4844 135.734 54.9759C135.984 54.4673 136.331 54.0724 136.774 53.7912C137.22 53.5099 137.739 53.3693 138.33 53.3693C138.92 53.3693 139.438 53.5099 139.881 53.7912C140.327 54.0724 140.673 54.4673 140.92 54.9759C141.17 55.4844 141.295 56.0795 141.295 56.7614C141.295 57.4375 141.17 58.0284 140.92 58.5341C140.673 59.0398 140.327 59.4332 139.881 59.7145C139.438 59.9957 138.92 60.1364 138.33 60.1364ZM138.33 59.233C138.778 59.233 139.148 59.1179 139.438 58.8878C139.727 58.6577 139.942 58.3551 140.081 57.9801C140.22 57.6051 140.29 57.1989 140.29 56.7614C140.29 56.3239 140.22 55.9162 140.081 55.5384C139.942 55.1605 139.727 54.8551 139.438 54.6222C139.148 54.3892 138.778 54.2727 138.33 54.2727C137.881 54.2727 137.511 54.3892 137.222 54.6222C136.932 54.8551 136.717 55.1605 136.578 55.5384C136.439 55.9162 136.369 56.3239 136.369 56.7614C136.369 57.1989 136.439 57.6051 136.578 57.9801C136.717 58.3551 136.932 58.6577 137.222 58.8878C137.511 59.1179 137.881 59.233 138.33 59.233ZM144.757 60.1534C144.342 60.1534 143.966 60.0753 143.627 59.919C143.289 59.7599 143.021 59.5312 142.822 59.233C142.623 58.9318 142.524 58.5682 142.524 58.142C142.524 57.767 142.598 57.4631 142.745 57.2301C142.893 56.9943 143.091 56.8097 143.338 56.6761C143.585 56.5426 143.858 56.4432 144.156 56.3778C144.457 56.3097 144.76 56.2557 145.064 56.2159C145.461 56.1648 145.784 56.1264 146.031 56.1009C146.281 56.0724 146.463 56.0256 146.576 55.9602C146.693 55.8949 146.751 55.7812 146.751 55.6193V55.5852C146.751 55.1648 146.636 54.8381 146.406 54.6051C146.179 54.3722 145.833 54.2557 145.37 54.2557C144.89 54.2557 144.514 54.3608 144.241 54.571C143.968 54.7812 143.777 55.0057 143.666 55.2443L142.711 54.9034C142.882 54.5057 143.109 54.196 143.393 53.9744C143.68 53.75 143.993 53.5937 144.331 53.5057C144.672 53.4148 145.007 53.3693 145.336 53.3693C145.547 53.3693 145.788 53.3949 146.061 53.446C146.336 53.4943 146.602 53.5952 146.858 53.7486C147.116 53.902 147.331 54.1335 147.501 54.4432C147.672 54.7528 147.757 55.1676 147.757 55.6875V60H146.751V59.1136H146.7C146.632 59.2557 146.518 59.4077 146.359 59.5696C146.2 59.7315 145.988 59.8693 145.724 59.983C145.46 60.0966 145.137 60.1534 144.757 60.1534ZM144.91 59.25C145.308 59.25 145.643 59.1719 145.916 59.0156C146.191 58.8594 146.399 58.6577 146.538 58.4105C146.68 58.1634 146.751 57.9034 146.751 57.6307V56.7102C146.708 56.7614 146.615 56.8082 146.47 56.8509C146.328 56.8906 146.163 56.9261 145.975 56.9574C145.791 56.9858 145.61 57.0114 145.434 57.0341C145.261 57.054 145.12 57.071 145.012 57.0852C144.751 57.1193 144.507 57.1747 144.279 57.2514C144.055 57.3253 143.873 57.4375 143.734 57.5881C143.598 57.7358 143.529 57.9375 143.529 58.1932C143.529 58.5426 143.659 58.8068 143.917 58.9858C144.179 59.1619 144.51 59.25 144.91 59.25ZM152.064 60.1364C151.518 60.1364 151.037 59.9986 150.619 59.723C150.202 59.4446 149.875 59.0526 149.639 58.5469C149.403 58.0384 149.286 57.4375 149.286 56.7443C149.286 56.0568 149.403 55.4602 149.639 54.9545C149.875 54.4489 150.203 54.0582 150.624 53.7827C151.044 53.5071 151.53 53.3693 152.081 53.3693C152.507 53.3693 152.844 53.4403 153.091 53.5824C153.341 53.7216 153.531 53.8807 153.662 54.0597C153.795 54.2358 153.899 54.3807 153.973 54.4943H154.058V51.2727H155.064V60H154.092V58.9943H153.973C153.899 59.1136 153.794 59.2642 153.658 59.446C153.521 59.625 153.327 59.7855 153.074 59.9276C152.821 60.0668 152.484 60.1364 152.064 60.1364ZM152.2 59.233C152.604 59.233 152.945 59.1278 153.223 58.9176C153.501 58.7045 153.713 58.4105 153.858 58.0355C154.003 57.6577 154.075 57.2216 154.075 56.7273C154.075 56.2386 154.004 55.8111 153.862 55.4446C153.72 55.0753 153.51 54.7884 153.232 54.5838C152.953 54.3764 152.609 54.2727 152.2 54.2727C151.774 54.2727 151.419 54.3821 151.135 54.6009C150.854 54.8168 150.642 55.1108 150.5 55.483C150.361 55.8523 150.291 56.267 150.291 56.7273C150.291 57.1932 150.362 57.6165 150.504 57.9972C150.649 58.375 150.862 58.6761 151.143 58.9006C151.428 59.1222 151.78 59.233 152.2 59.233Z" fill="var(--colors-neutral-neutral-800)"/>
<path d="M292 58.3077L288.192 54.5H295.808L292 58.3077Z" fill="var(--colors-neutral-neutral-700)"/>
</g>
<defs>
<clipPath id="clip0_5362_26854">
<rect width="288" height="32" fill="white" transform="translate(16)"/>
</clipPath>
<clipPath id="clip1_5362_26854">
<rect width="288" height="32" fill="white" transform="translate(16 40)"/>
</clipPath>
</defs>
</svg>
