<svg width="304" height="129" viewBox="0 0 304 129" fill="none" xmlns="http://www.w3.org/2000/svg">
<path d="M304 127.5H0V128.5H304V127.5Z" fill="var(--colors-neutral-neutral-400)"/>
<path d="M17.212 28V19.624H18.724V26.74H22.996V28H17.212ZM27.7047 28.144C27.0087 28.144 26.4087 28.004 25.9047 27.724C25.4087 27.444 25.0247 27.048 24.7527 26.536C24.4887 26.016 24.3567 25.4 24.3567 24.688C24.3567 23.968 24.4887 23.352 24.7527 22.84C25.0247 22.328 25.4087 21.932 25.9047 21.652C26.4087 21.372 27.0087 21.232 27.7047 21.232C28.7447 21.232 29.5607 21.54 30.1527 22.156C30.7447 22.764 31.0407 23.608 31.0407 24.688C31.0407 25.4 30.9047 26.016 30.6327 26.536C30.3687 27.048 29.9847 27.444 29.4807 27.724C28.9847 28.004 28.3927 28.144 27.7047 28.144ZM27.7047 26.968C28.2887 26.968 28.7487 26.764 29.0847 26.356C29.4287 25.948 29.6007 25.392 29.6007 24.688C29.6007 23.976 29.4287 23.42 29.0847 23.02C28.7487 22.612 28.2887 22.408 27.7047 22.408C27.1047 22.408 26.6367 22.612 26.3007 23.02C25.9647 23.42 25.7967 23.976 25.7967 24.688C25.7967 25.392 25.9647 25.948 26.3007 26.356C26.6367 26.764 27.1047 26.968 27.7047 26.968ZM35.6654 28.144C34.9774 28.144 34.3814 28.004 33.8774 27.724C33.3734 27.444 32.9854 27.044 32.7134 26.524C32.4494 26.004 32.3174 25.392 32.3174 24.688C32.3174 23.968 32.4574 23.352 32.7374 22.84C33.0174 22.32 33.4094 21.924 33.9134 21.652C34.4254 21.372 35.0214 21.232 35.7014 21.232C36.2614 21.232 36.7614 21.336 37.2014 21.544C37.6414 21.744 37.9974 22.028 38.2694 22.396C38.5414 22.764 38.6934 23.204 38.7254 23.716H37.2974C37.2334 23.292 37.0574 22.972 36.7694 22.756C36.4894 22.532 36.1334 22.42 35.7014 22.42C35.3094 22.42 34.9654 22.512 34.6694 22.696C34.3814 22.872 34.1574 23.128 33.9974 23.464C33.8374 23.8 33.7574 24.208 33.7574 24.688C33.7574 25.408 33.9334 25.972 34.2854 26.38C34.6454 26.78 35.1054 26.98 35.6654 26.98C35.9374 26.98 36.1854 26.928 36.4094 26.824C36.6414 26.712 36.8374 26.56 36.9974 26.368C37.1654 26.176 37.2774 25.952 37.3334 25.696H38.7734C38.7014 26.192 38.5214 26.624 38.2334 26.992C37.9534 27.36 37.5894 27.644 37.1414 27.844C36.7014 28.044 36.2094 28.144 35.6654 28.144ZM44.8981 28L44.8381 26.596V23.62C44.8381 23.204 44.6981 22.876 44.4181 22.636C44.1381 22.396 43.7501 22.276 43.2541 22.276C42.7821 22.276 42.3941 22.384 42.0901 22.6C41.7941 22.816 41.6261 23.112 41.5861 23.488H40.1941C40.2341 23.016 40.3861 22.612 40.6501 22.276C40.9221 21.94 41.2821 21.684 41.7301 21.508C42.1861 21.324 42.7101 21.232 43.3021 21.232C43.9101 21.232 44.4341 21.328 44.8741 21.52C45.3221 21.712 45.6661 21.992 45.9061 22.36C46.1461 22.728 46.2661 23.176 46.2661 23.704V28H44.8981ZM42.5941 28.144C42.1621 28.144 41.7781 28.064 41.4421 27.904C41.1141 27.744 40.8581 27.516 40.6741 27.22C40.4901 26.924 40.3981 26.58 40.3981 26.188C40.3981 25.508 40.6621 24.98 41.1901 24.604C41.7181 24.22 42.4501 24.028 43.3861 24.028H45.0061V25.06L43.3381 25.072C42.8581 25.072 42.4821 25.164 42.2101 25.348C41.9381 25.524 41.8021 25.78 41.8021 26.116C41.8021 26.38 41.8981 26.592 42.0901 26.752C42.2901 26.912 42.5621 26.992 42.9061 26.992C43.3461 26.992 43.7381 26.876 44.0821 26.644C44.4341 26.404 44.7181 26.076 44.9341 25.66L45.0901 26.668C44.8821 27.156 44.5661 27.524 44.1421 27.772C43.7181 28.02 43.2021 28.144 42.5941 28.144ZM50.3988 28V19.156H51.8388V28H50.3988ZM48.0588 28V26.836H54.2028V28H48.0588ZM48.9228 20.32V19.156H51.1188V20.32H48.9228ZM58.2514 28V21.376H59.6794V28H58.2514ZM55.9114 28V26.836H61.9234V28H55.9114ZM56.7634 22.54V21.376H58.9594V22.54H56.7634ZM58.1674 20.332V18.868H59.7274V20.332H58.1674ZM63.8961 28V26.956L66.6801 23.764L67.8801 22.528L66.1161 22.54H64.0521V21.376H69.5841V22.396L66.7761 25.6L65.5641 26.848L67.3281 26.836H69.5841V28H63.8961ZM76.1168 28L76.0568 26.596V23.62C76.0568 23.204 75.9168 22.876 75.6368 22.636C75.3568 22.396 74.9688 22.276 74.4728 22.276C74.0008 22.276 73.6128 22.384 73.3088 22.6C73.0128 22.816 72.8448 23.112 72.8048 23.488H71.4128C71.4528 23.016 71.6048 22.612 71.8688 22.276C72.1408 21.94 72.5008 21.684 72.9488 21.508C73.4048 21.324 73.9288 21.232 74.5208 21.232C75.1288 21.232 75.6528 21.328 76.0928 21.52C76.5408 21.712 76.8848 21.992 77.1248 22.36C77.3648 22.728 77.4848 23.176 77.4848 23.704V28H76.1168ZM73.8128 28.144C73.3808 28.144 72.9968 28.064 72.6608 27.904C72.3328 27.744 72.0768 27.516 71.8928 27.22C71.7088 26.924 71.6168 26.58 71.6168 26.188C71.6168 25.508 71.8808 24.98 72.4088 24.604C72.9368 24.22 73.6688 24.028 74.6048 24.028H76.2248V25.06L74.5568 25.072C74.0768 25.072 73.7008 25.164 73.4288 25.348C73.1568 25.524 73.0208 25.78 73.0208 26.116C73.0208 26.38 73.1168 26.592 73.3088 26.752C73.5088 26.912 73.7808 26.992 74.1248 26.992C74.5648 26.992 74.9568 26.876 75.3008 26.644C75.6528 26.404 75.9368 26.076 76.1528 25.66L76.3088 26.668C76.1008 27.156 75.7848 27.524 75.3608 27.772C74.9368 28.02 74.4208 28.144 73.8128 28.144ZM82.8775 28C82.4535 28 82.0895 27.912 81.7855 27.736C81.4815 27.56 81.2495 27.312 81.0895 26.992C80.9295 26.664 80.8495 26.284 80.8495 25.852V20.176L82.2895 19.456V25.852C82.2895 26.052 82.3175 26.228 82.3735 26.38C82.4295 26.532 82.5375 26.648 82.6975 26.728C82.8655 26.8 83.1055 26.836 83.4175 26.836H85.3015V28H82.8775ZM79.3735 22.54V21.376H84.2095V22.54H79.3735ZM89.4702 28V21.376H90.8982V28H89.4702ZM87.1302 28V26.836H93.1422V28H87.1302ZM87.9822 22.54V21.376H90.1782V22.54H87.9822ZM89.3862 20.332V18.868H90.9462V20.332H89.3862ZM97.9469 28.144C97.2509 28.144 96.6509 28.004 96.1469 27.724C95.6509 27.444 95.2669 27.048 94.9949 26.536C94.7309 26.016 94.5989 25.4 94.5989 24.688C94.5989 23.968 94.7309 23.352 94.9949 22.84C95.2669 22.328 95.6509 21.932 96.1469 21.652C96.6509 21.372 97.2509 21.232 97.9469 21.232C98.9869 21.232 99.8029 21.54 100.395 22.156C100.987 22.764 101.283 23.608 101.283 24.688C101.283 25.4 101.147 26.016 100.875 26.536C100.611 27.048 100.227 27.444 99.7229 27.724C99.2269 28.004 98.6349 28.144 97.9469 28.144ZM97.9469 26.968C98.5309 26.968 98.9909 26.764 99.3269 26.356C99.6709 25.948 99.8429 25.392 99.8429 24.688C99.8429 23.976 99.6709 23.42 99.3269 23.02C98.9909 22.612 98.5309 22.408 97.9469 22.408C97.3469 22.408 96.8789 22.612 96.5429 23.02C96.2069 23.42 96.0389 23.976 96.0389 24.688C96.0389 25.392 96.2069 25.948 96.5429 26.356C96.8789 26.764 97.3469 26.968 97.9469 26.968ZM107.372 28V23.86C107.372 23.428 107.252 23.084 107.012 22.828C106.78 22.572 106.476 22.444 106.1 22.444C105.668 22.444 105.276 22.6 104.924 22.912C104.58 23.216 104.284 23.708 104.036 24.388L103.82 22.96C104.084 22.376 104.444 21.944 104.9 21.664C105.356 21.376 105.844 21.232 106.364 21.232C106.868 21.232 107.3 21.34 107.66 21.556C108.028 21.764 108.308 22.06 108.5 22.444C108.7 22.82 108.8 23.264 108.8 23.776V28H107.372ZM102.752 28V21.376H104.12L104.18 22.768V28H102.752ZM120.641 28V19.156H122.081V28H120.641ZM118.301 28V26.836H124.445V28H118.301ZM119.165 20.32V19.156H121.361V20.32H119.165ZM130.75 28L130.69 26.596V23.62C130.69 23.204 130.55 22.876 130.27 22.636C129.99 22.396 129.602 22.276 129.106 22.276C128.634 22.276 128.246 22.384 127.942 22.6C127.646 22.816 127.478 23.112 127.438 23.488H126.046C126.086 23.016 126.238 22.612 126.502 22.276C126.774 21.94 127.134 21.684 127.582 21.508C128.038 21.324 128.562 21.232 129.154 21.232C129.762 21.232 130.286 21.328 130.726 21.52C131.174 21.712 131.518 21.992 131.758 22.36C131.998 22.728 132.118 23.176 132.118 23.704V28H130.75ZM128.446 28.144C128.014 28.144 127.63 28.064 127.294 27.904C126.966 27.744 126.71 27.516 126.526 27.22C126.342 26.924 126.25 26.58 126.25 26.188C126.25 25.508 126.514 24.98 127.042 24.604C127.57 24.22 128.302 24.028 129.238 24.028H130.858V25.06L129.19 25.072C128.71 25.072 128.334 25.164 128.062 25.348C127.79 25.524 127.654 25.78 127.654 26.116C127.654 26.38 127.75 26.592 127.942 26.752C128.142 26.912 128.414 26.992 128.758 26.992C129.198 26.992 129.59 26.876 129.934 26.644C130.286 26.404 130.57 26.076 130.786 25.66L130.942 26.668C130.734 27.156 130.418 27.524 129.994 27.772C129.57 28.02 129.054 28.144 128.446 28.144ZM136.358 24.328L136.97 25.996L137.594 24.316L138.842 21.376H140.306L137.282 28.516C137.098 28.964 136.89 29.316 136.658 29.572C136.434 29.828 136.178 30.008 135.89 30.112C135.602 30.224 135.27 30.28 134.894 30.28H133.706V29.116H134.774C134.99 29.116 135.17 29.068 135.314 28.972C135.466 28.884 135.602 28.748 135.722 28.564C135.842 28.388 135.958 28.168 136.07 27.904L136.238 27.52L133.634 21.376H135.122L136.358 24.328ZM144.847 28.144C144.151 28.144 143.551 28.008 143.047 27.736C142.543 27.456 142.155 27.056 141.883 26.536C141.619 26.016 141.487 25.396 141.487 24.676C141.487 23.956 141.623 23.34 141.895 22.828C142.167 22.308 142.559 21.912 143.071 21.64C143.583 21.368 144.195 21.232 144.907 21.232C146.011 21.232 146.823 21.54 147.343 22.156C147.871 22.772 148.099 23.616 148.027 24.688H142.627L142.639 23.644L146.563 23.656C146.531 23.272 146.363 22.964 146.059 22.732C145.755 22.5 145.371 22.384 144.907 22.384C144.251 22.384 143.755 22.588 143.419 22.996C143.083 23.404 142.915 23.984 142.915 24.736C142.915 25.168 142.991 25.556 143.143 25.9C143.295 26.236 143.511 26.5 143.791 26.692C144.079 26.876 144.431 26.968 144.847 26.968C145.319 26.968 145.711 26.856 146.023 26.632C146.343 26.408 146.539 26.108 146.611 25.732H148.051C147.955 26.476 147.619 27.064 147.043 27.496C146.475 27.928 145.743 28.144 144.847 28.144ZM154.26 24.376V23.548C154.26 23.22 154.16 22.956 153.96 22.756C153.768 22.548 153.488 22.444 153.12 22.444C152.672 22.444 152.264 22.608 151.896 22.936C151.528 23.264 151.22 23.78 150.972 24.484L150.792 23.14C150.976 22.724 151.192 22.376 151.44 22.096C151.696 21.808 151.984 21.592 152.304 21.448C152.632 21.304 152.988 21.232 153.372 21.232C154.052 21.232 154.608 21.432 155.04 21.832C155.472 22.232 155.688 22.804 155.688 23.548V24.376H154.26ZM149.796 28V21.376H151.152L151.224 22.78V28H149.796Z" fill="var(--colors-neutral-neutral-800)"/>
<path d="M275.4 26.7019L274.692 25.9942L280 20.6865L285.308 25.9942L284.6 26.7019L280 22.1019L275.4 26.7019Z" fill="var(--colors-neutral-neutral-800)"/>
<path d="M16.8807 67.5V60.2273H17.7614V63.8352H17.8466L21.1136 60.2273H22.2642L19.2102 63.5085L22.2642 67.5H21.1989L18.6705 64.1193L17.7614 65.142V67.5H16.8807ZM25.106 67.6136C24.6136 67.6136 24.1815 67.4964 23.8098 67.2621C23.4405 67.0277 23.1517 66.6998 22.9434 66.2784C22.7374 65.857 22.6344 65.3646 22.6344 64.8011C22.6344 64.233 22.7374 63.737 22.9434 63.3132C23.1517 62.8894 23.4405 62.5604 23.8098 62.326C24.1815 62.0916 24.6136 61.9744 25.106 61.9744C25.5984 61.9744 26.0293 62.0916 26.3986 62.326C26.7703 62.5604 27.0591 62.8894 27.2651 63.3132C27.4734 63.737 27.5776 64.233 27.5776 64.8011C27.5776 65.3646 27.4734 65.857 27.2651 66.2784C27.0591 66.6998 26.7703 67.0277 26.3986 67.2621C26.0293 67.4964 25.5984 67.6136 25.106 67.6136ZM25.106 66.8608C25.4801 66.8608 25.7878 66.7649 26.0293 66.5732C26.2708 66.3814 26.4495 66.1293 26.5655 65.8168C26.6815 65.5043 26.7395 65.1657 26.7395 64.8011C26.7395 64.4366 26.6815 64.0968 26.5655 63.782C26.4495 63.4671 26.2708 63.2126 26.0293 63.0185C25.7878 62.8243 25.4801 62.7273 25.106 62.7273C24.7319 62.7273 24.4242 62.8243 24.1827 63.0185C23.9412 63.2126 23.7625 63.4671 23.6465 63.782C23.5305 64.0968 23.4725 64.4366 23.4725 64.8011C23.4725 65.1657 23.5305 65.5043 23.6465 65.8168C23.7625 66.1293 23.9412 66.3814 24.1827 66.5732C24.4242 66.7649 24.7319 66.8608 25.106 66.8608ZM29.695 60.2273V67.5H28.8569V60.2273H29.695ZM32.068 60.2273V67.5H31.2299V60.2273H32.068ZM33.603 67.5V62.0455H34.4126V62.8977H34.4837C34.5973 62.6065 34.7808 62.3804 35.0341 62.2195C35.2874 62.0561 35.5916 61.9744 35.9467 61.9744C36.3066 61.9744 36.6061 62.0561 36.8452 62.2195C37.0866 62.3804 37.2749 62.6065 37.4098 62.8977H37.4666C37.6063 62.616 37.8158 62.3923 38.0952 62.2266C38.3745 62.0585 38.7095 61.9744 39.1001 61.9744C39.5878 61.9744 39.9867 62.1271 40.2969 62.4325C40.607 62.7356 40.7621 63.2079 40.7621 63.8494V67.5H39.924V63.8494C39.924 63.447 39.8139 63.1593 39.5938 62.9865C39.3736 62.8137 39.1143 62.7273 38.8161 62.7273C38.4325 62.7273 38.1354 62.8433 37.9247 63.0753C37.714 63.3049 37.6087 63.5961 37.6087 63.9489V67.5H36.7564V63.7642C36.7564 63.4541 36.6558 63.2043 36.4545 63.0149C36.2533 62.8232 35.9941 62.7273 35.6768 62.7273C35.459 62.7273 35.2554 62.7853 35.0661 62.9013C34.879 63.0173 34.7275 63.1783 34.6115 63.3842C34.4979 63.5878 34.4411 63.8234 34.4411 64.0909V67.5H33.603ZM44.5103 67.6136C44.0179 67.6136 43.5858 67.4964 43.2141 67.2621C42.8448 67.0277 42.556 66.6998 42.3477 66.2784C42.1417 65.857 42.0387 65.3646 42.0387 64.8011C42.0387 64.233 42.1417 63.737 42.3477 63.3132C42.556 62.8894 42.8448 62.5604 43.2141 62.326C43.5858 62.0916 44.0179 61.9744 44.5103 61.9744C45.0027 61.9744 45.4336 62.0916 45.8029 62.326C46.1746 62.5604 46.4634 62.8894 46.6694 63.3132C46.8777 63.737 46.9819 64.233 46.9819 64.8011C46.9819 65.3646 46.8777 65.857 46.6694 66.2784C46.4634 66.6998 46.1746 67.0277 45.8029 67.2621C45.4336 67.4964 45.0027 67.6136 44.5103 67.6136ZM44.5103 66.8608C44.8844 66.8608 45.1921 66.7649 45.4336 66.5732C45.6751 66.3814 45.8538 66.1293 45.9698 65.8168C46.0858 65.5043 46.1438 65.1657 46.1438 64.8011C46.1438 64.4366 46.0858 64.0968 45.9698 63.782C45.8538 63.4671 45.6751 63.2126 45.4336 63.0185C45.1921 62.8243 44.8844 62.7273 44.5103 62.7273C44.1362 62.7273 43.8285 62.8243 43.587 63.0185C43.3455 63.2126 43.1668 63.4671 43.0508 63.782C42.9348 64.0968 42.8768 64.4366 42.8768 64.8011C42.8768 65.1657 42.9348 65.5043 43.0508 65.8168C43.1668 66.1293 43.3455 66.3814 43.587 66.5732C43.8285 66.7649 44.1362 66.8608 44.5103 66.8608ZM48.2612 67.5V62.0455H49.0708V62.8693H49.1277C49.2271 62.5994 49.407 62.3804 49.6674 62.2124C49.9279 62.0443 50.2214 61.9602 50.5481 61.9602C50.6097 61.9602 50.6866 61.9614 50.7789 61.9638C50.8713 61.9661 50.9411 61.9697 50.9885 61.9744V62.8267C50.96 62.8196 50.8949 62.8089 50.7931 62.7947C50.6937 62.7782 50.5884 62.7699 50.4771 62.7699C50.2119 62.7699 49.9752 62.8255 49.7669 62.9368C49.5609 63.0457 49.3975 63.1972 49.2768 63.3913C49.1584 63.5831 49.0993 63.8021 49.0993 64.0483V67.5H48.2612ZM54.0176 69.6591C53.6127 69.6591 53.2647 69.607 52.9735 69.5028C52.6824 69.401 52.4397 69.2661 52.2456 69.098C52.0538 68.9323 51.9011 68.7547 51.7875 68.5653L52.4551 68.0966C52.5308 68.196 52.6267 68.3097 52.7427 68.4375C52.8587 68.5677 53.0173 68.6802 53.2186 68.7749C53.4222 68.8719 53.6885 68.9205 54.0176 68.9205C54.4579 68.9205 54.8213 68.8139 55.1078 68.6009C55.3942 68.3878 55.5375 68.054 55.5375 67.5994V66.4915H55.4664C55.4049 66.5909 55.3173 66.714 55.2037 66.8608C55.0924 67.0052 54.9314 67.1342 54.7207 67.2479C54.5124 67.3591 54.2306 67.4148 53.8755 67.4148C53.4352 67.4148 53.0398 67.3106 52.6895 67.1023C52.3414 66.8939 52.0656 66.5909 51.862 66.1932C51.6608 65.7955 51.5602 65.3125 51.5602 64.7443C51.5602 64.1856 51.6584 63.6991 51.8549 63.2848C52.0514 62.8681 52.3249 62.5462 52.6752 62.3189C53.0256 62.0893 53.4305 61.9744 53.8897 61.9744C54.2449 61.9744 54.5266 62.0336 54.7349 62.152C54.9456 62.268 55.1066 62.4006 55.2179 62.5497C55.3315 62.6965 55.4191 62.8172 55.4806 62.9119H55.5659V62.0455H56.3755V67.6562C56.3755 68.125 56.269 68.5062 56.0559 68.7997C55.8452 69.0956 55.5611 69.3123 55.2037 69.4496C54.8485 69.5893 54.4532 69.6591 54.0176 69.6591ZM53.9892 66.6619C54.3253 66.6619 54.6094 66.585 54.8414 66.4311C55.0734 66.2772 55.2498 66.0559 55.3706 65.767C55.4913 65.4782 55.5517 65.1326 55.5517 64.7301C55.5517 64.3371 55.4925 63.9903 55.3741 63.6896C55.2557 63.389 55.0806 63.1534 54.8485 62.983C54.6165 62.8125 54.3301 62.7273 53.9892 62.7273C53.6341 62.7273 53.3381 62.8172 53.1014 62.9972C52.867 63.1771 52.6906 63.4186 52.5723 63.7216C52.4563 64.0246 52.3983 64.3608 52.3983 64.7301C52.3983 65.1089 52.4574 65.4439 52.5758 65.7351C52.6966 66.0239 52.8741 66.2512 53.1085 66.4169C53.3452 66.5803 53.6388 66.6619 53.9892 66.6619ZM60.1966 67.6136C59.671 67.6136 59.2176 67.4976 58.8365 67.2656C58.4577 67.0312 58.1653 66.7045 57.9593 66.2855C57.7557 65.8641 57.6539 65.3741 57.6539 64.8153C57.6539 64.2566 57.7557 63.7642 57.9593 63.3381C58.1653 62.9096 58.4518 62.5758 58.8187 62.3366C59.188 62.0952 59.6189 61.9744 60.1113 61.9744C60.3954 61.9744 60.676 62.0218 60.9529 62.1165C61.2299 62.2112 61.4821 62.3651 61.7093 62.5781C61.9366 62.7888 62.1177 63.0682 62.2527 63.4162C62.3876 63.7642 62.4551 64.1927 62.4551 64.7017V65.0568H58.2505V64.3324H61.6028C61.6028 64.0246 61.5413 63.75 61.4181 63.5085C61.2974 63.267 61.1246 63.0765 60.8997 62.9368C60.6771 62.7971 60.4144 62.7273 60.1113 62.7273C59.7775 62.7273 59.4887 62.8101 59.2449 62.9759C59.0034 63.1392 58.8175 63.3523 58.6873 63.6151C58.5571 63.8778 58.492 64.1596 58.492 64.4602V64.9432C58.492 65.3551 58.563 65.7043 58.7051 65.9908C58.8495 66.2749 59.0495 66.4915 59.3052 66.6406C59.5609 66.7874 59.858 66.8608 60.1966 66.8608C60.4167 66.8608 60.6156 66.83 60.7931 66.7685C60.9731 66.7045 61.1281 66.6098 61.2583 66.4844C61.3886 66.3565 61.4892 66.1979 61.5602 66.0085L62.3699 66.2358C62.2846 66.5104 62.1414 66.7519 61.9402 66.9602C61.7389 67.1662 61.4904 67.3272 61.1944 67.4432C60.8985 67.5568 60.5659 67.6136 60.1966 67.6136ZM64.568 64.2188V67.5H63.7299V62.0455H64.5396V62.8977H64.6106C64.7385 62.6207 64.9326 62.3982 65.193 62.2301C65.4534 62.0597 65.7896 61.9744 66.2015 61.9744C66.5708 61.9744 66.894 62.0502 67.171 62.2017C67.448 62.3509 67.6634 62.5781 67.8173 62.8835C67.9712 63.1866 68.0481 63.5701 68.0481 64.0341V67.5H67.21V64.0909C67.21 63.6624 67.0988 63.3286 66.8762 63.0895C66.6537 62.848 66.3483 62.7273 65.96 62.7273C65.6925 62.7273 65.4534 62.7853 65.2427 62.9013C65.0344 63.0173 64.8699 63.1866 64.7491 63.4091C64.6284 63.6316 64.568 63.9015 64.568 64.2188Z" fill="var(--colors-neutral-neutral-800)"/>
<path d="M279.5 70.5V64.5H273.5V63.5H279.5V57.5H280.5V63.5H286.5V64.5H280.5V70.5H279.5Z" fill="var(--colors-neutral-neutral-800)"/>
<path d="M20.858 94.0455C20.8153 93.6856 20.6425 93.4062 20.3395 93.2074C20.0365 93.0085 19.6648 92.9091 19.2244 92.9091C18.9025 92.9091 18.6207 92.9612 18.3793 93.0653C18.1402 93.1695 17.9531 93.3127 17.8182 93.495C17.6856 93.6773 17.6193 93.8845 17.6193 94.1165C17.6193 94.3106 17.6655 94.4775 17.7578 94.6172C17.8525 94.7545 17.9732 94.8693 18.12 94.9616C18.2668 95.0516 18.4207 95.1262 18.5817 95.1854C18.7427 95.2422 18.8906 95.2884 19.0256 95.3239L19.7642 95.5227C19.9536 95.5724 20.1643 95.6411 20.3963 95.7287C20.6307 95.8163 20.8544 95.9358 21.0675 96.0874C21.2829 96.2365 21.4605 96.4283 21.6001 96.6626C21.7398 96.897 21.8097 97.1847 21.8097 97.5256C21.8097 97.9186 21.7067 98.2737 21.5007 98.5909C21.2971 98.9081 20.9988 99.1603 20.6058 99.3473C20.2152 99.5343 19.7405 99.6278 19.1818 99.6278C18.661 99.6278 18.21 99.5438 17.8288 99.3757C17.45 99.2076 17.1518 98.9732 16.9339 98.6726C16.7185 98.3719 16.5966 98.0227 16.5682 97.625H17.4773C17.5009 97.8996 17.5933 98.1269 17.7543 98.3068C17.9176 98.4844 18.1236 98.617 18.3722 98.7045C18.6231 98.7898 18.893 98.8324 19.1818 98.8324C19.518 98.8324 19.8198 98.7779 20.0874 98.669C20.3549 98.5578 20.5668 98.4039 20.723 98.2074C20.8793 98.0085 20.9574 97.7765 20.9574 97.5114C20.9574 97.2699 20.8899 97.0734 20.755 96.9219C20.62 96.7704 20.4425 96.6473 20.2223 96.5526C20.0021 96.4579 19.7642 96.375 19.5085 96.304L18.6136 96.0483C18.0455 95.8849 17.5956 95.6518 17.2642 95.3487C16.9328 95.0457 16.767 94.6491 16.767 94.1591C16.767 93.7519 16.8771 93.3968 17.0973 93.0938C17.3198 92.7884 17.6181 92.5516 17.9922 92.3835C18.3686 92.2131 18.7888 92.1278 19.2528 92.1278C19.7216 92.1278 20.1383 92.2119 20.5028 92.38C20.8674 92.5457 21.1563 92.773 21.3693 93.0618C21.5848 93.3506 21.6984 93.6785 21.7102 94.0455H20.858ZM25.4309 99.6136C24.9054 99.6136 24.452 99.4976 24.0708 99.2656C23.6921 99.0312 23.3997 98.7045 23.1937 98.2855C22.9901 97.8641 22.8883 97.3741 22.8883 96.8153C22.8883 96.2566 22.9901 95.7642 23.1937 95.3381C23.3997 94.9096 23.6861 94.5758 24.0531 94.3366C24.4224 94.0952 24.8533 93.9744 25.3457 93.9744C25.6298 93.9744 25.9103 94.0218 26.1873 94.1165C26.4643 94.2112 26.7164 94.3651 26.9437 94.5781C27.171 94.7888 27.3521 95.0682 27.487 95.4162C27.622 95.7642 27.6895 96.1927 27.6895 96.7017V97.0568H23.4849V96.3324H26.8372C26.8372 96.0246 26.7756 95.75 26.6525 95.5085C26.5318 95.267 26.359 95.0765 26.1341 94.9368C25.9115 94.7971 25.6487 94.7273 25.3457 94.7273C25.0119 94.7273 24.7231 94.8101 24.4792 94.9759C24.2377 95.1392 24.0519 95.3523 23.9217 95.6151C23.7915 95.8778 23.7264 96.1596 23.7264 96.4602V96.9432C23.7264 97.3551 23.7974 97.7043 23.9395 97.9908C24.0839 98.2749 24.2839 98.4915 24.5396 98.6406C24.7953 98.7874 25.0924 98.8608 25.4309 98.8608C25.6511 98.8608 25.85 98.83 26.0275 98.7685C26.2074 98.7045 26.3625 98.6098 26.4927 98.4844C26.6229 98.3565 26.7235 98.1979 26.7946 98.0085L27.6042 98.2358C27.519 98.5104 27.3758 98.7519 27.1745 98.9602C26.9733 99.1662 26.7247 99.3272 26.4288 99.4432C26.1329 99.5568 25.8002 99.6136 25.4309 99.6136ZM33.2585 94.0455L31.2415 99.5H30.3892L28.3722 94.0455H29.2812L30.7869 98.392H30.8438L32.3494 94.0455H33.2585ZM36.4563 99.6136C35.9308 99.6136 35.4774 99.4976 35.0962 99.2656C34.7174 99.0312 34.4251 98.7045 34.2191 98.2855C34.0155 97.8641 33.9137 97.3741 33.9137 96.8153C33.9137 96.2566 34.0155 95.7642 34.2191 95.3381C34.4251 94.9096 34.7115 94.5758 35.0785 94.3366C35.4478 94.0952 35.8787 93.9744 36.3711 93.9744C36.6552 93.9744 36.9357 94.0218 37.2127 94.1165C37.4897 94.2112 37.7418 94.3651 37.9691 94.5781C38.1964 94.7888 38.3775 95.0682 38.5124 95.4162C38.6474 95.7642 38.7148 96.1927 38.7148 96.7017V97.0568H34.5103V96.3324H37.8626C37.8626 96.0246 37.801 95.75 37.6779 95.5085C37.5572 95.267 37.3844 95.0765 37.1594 94.9368C36.9369 94.7971 36.6741 94.7273 36.3711 94.7273C36.0373 94.7273 35.7485 94.8101 35.5046 94.9759C35.2631 95.1392 35.0773 95.3523 34.9471 95.6151C34.8169 95.8778 34.7518 96.1596 34.7518 96.4602V96.9432C34.7518 97.3551 34.8228 97.7043 34.9648 97.9908C35.1093 98.2749 35.3093 98.4915 35.565 98.6406C35.8207 98.7874 36.1178 98.8608 36.4563 98.8608C36.6765 98.8608 36.8754 98.83 37.0529 98.7685C37.2328 98.7045 37.3879 98.6098 37.5181 98.4844C37.6483 98.3565 37.7489 98.1979 37.82 98.0085L38.6296 98.2358C38.5444 98.5104 38.4012 98.7519 38.1999 98.9602C37.9987 99.1662 37.7501 99.3272 37.4542 99.4432C37.1583 99.5568 36.8256 99.6136 36.4563 99.6136ZM40.8278 96.2188V99.5H39.9897V94.0455H40.7994V94.8977H40.8704C40.9982 94.6207 41.1924 94.3982 41.4528 94.2301C41.7132 94.0597 42.0494 93.9744 42.4613 93.9744C42.8306 93.9744 43.1538 94.0502 43.4308 94.2017C43.7077 94.3509 43.9232 94.5781 44.0771 94.8835C44.2309 95.1866 44.3079 95.5701 44.3079 96.0341V99.5H43.4698V96.0909C43.4698 95.6624 43.3585 95.3286 43.136 95.0895C42.9135 94.848 42.6081 94.7273 42.2198 94.7273C41.9523 94.7273 41.7132 94.7853 41.5025 94.9013C41.2942 95.0173 41.1296 95.1866 41.0089 95.4091C40.8881 95.6316 40.8278 95.9015 40.8278 96.2188ZM52.5154 95.267L51.7626 95.4801C51.7153 95.3546 51.6454 95.2327 51.5531 95.1143C51.4631 94.9936 51.34 94.8942 51.1838 94.8161C51.0275 94.7379 50.8275 94.6989 50.5836 94.6989C50.2498 94.6989 49.9717 94.7758 49.7491 94.9297C49.5289 95.0812 49.4189 95.2741 49.4189 95.5085C49.4189 95.7169 49.4946 95.8814 49.6461 96.0021C49.7976 96.1229 50.0344 96.2235 50.3564 96.304L51.166 96.5028C51.6537 96.6212 52.0171 96.8023 52.2562 97.0462C52.4953 97.2876 52.6149 97.599 52.6149 97.9801C52.6149 98.2926 52.5249 98.572 52.345 98.8182C52.1674 99.0644 51.9189 99.2585 51.5993 99.4006C51.2797 99.5426 50.908 99.6136 50.4842 99.6136C49.9279 99.6136 49.4674 99.4929 49.1028 99.2514C48.7382 99.0099 48.5074 98.6572 48.4103 98.1932L49.2058 97.9943C49.2815 98.2879 49.4248 98.508 49.6355 98.6548C49.8485 98.8016 50.1267 98.875 50.47 98.875C50.8606 98.875 51.1708 98.7921 51.4004 98.6264C51.6324 98.4583 51.7484 98.2571 51.7484 98.0227C51.7484 97.8333 51.6821 97.6747 51.5495 97.5469C51.417 97.4167 51.2134 97.3196 50.9387 97.2557L50.0297 97.0426C49.5301 96.9242 49.1632 96.7408 48.9288 96.4922C48.6968 96.2412 48.5808 95.9276 48.5808 95.5511C48.5808 95.2434 48.6672 94.9711 48.84 94.7344C49.0152 94.4976 49.2531 94.3118 49.5538 94.1768C49.8568 94.0419 50.2001 93.9744 50.5836 93.9744C51.1234 93.9744 51.5472 94.0928 51.8549 94.3295C52.1651 94.5663 52.3852 94.8788 52.5154 95.267ZM56.1634 99.6136C55.6378 99.6136 55.1844 99.4976 54.8033 99.2656C54.4245 99.0312 54.1321 98.7045 53.9261 98.2855C53.7225 97.8641 53.6207 97.3741 53.6207 96.8153C53.6207 96.2566 53.7225 95.7642 53.9261 95.3381C54.1321 94.9096 54.4186 94.5758 54.7855 94.3366C55.1548 94.0952 55.5857 93.9744 56.0781 93.9744C56.3622 93.9744 56.6428 94.0218 56.9197 94.1165C57.1967 94.2112 57.4489 94.3651 57.6761 94.5781C57.9034 94.7888 58.0845 95.0682 58.2195 95.4162C58.3544 95.7642 58.4219 96.1927 58.4219 96.7017V97.0568H54.2173V96.3324H57.5696C57.5696 96.0246 57.508 95.75 57.3849 95.5085C57.2642 95.267 57.0914 95.0765 56.8665 94.9368C56.6439 94.7971 56.3812 94.7273 56.0781 94.7273C55.7443 94.7273 55.4555 94.8101 55.2116 94.9759C54.9702 95.1392 54.7843 95.3523 54.6541 95.6151C54.5239 95.8778 54.4588 96.1596 54.4588 96.4602V96.9432C54.4588 97.3551 54.5298 97.7043 54.6719 97.9908C54.8163 98.2749 55.0163 98.4915 55.272 98.6406C55.5277 98.7874 55.8248 98.8608 56.1634 98.8608C56.3835 98.8608 56.5824 98.83 56.7599 98.7685C56.9399 98.7045 57.0949 98.6098 57.2251 98.4844C57.3554 98.3565 57.456 98.1979 57.527 98.0085L58.3366 98.2358C58.2514 98.5104 58.1082 98.7519 57.907 98.9602C57.7057 99.1662 57.4571 99.3272 57.1612 99.4432C56.8653 99.5568 56.5327 99.6136 56.1634 99.6136ZM60.5348 96.2188V99.5H59.6967V94.0455H60.5064V94.8977H60.5774C60.7053 94.6207 60.8994 94.3982 61.1598 94.2301C61.4202 94.0597 61.7564 93.9744 62.1683 93.9744C62.5376 93.9744 62.8608 94.0502 63.1378 94.2017C63.4148 94.3509 63.6302 94.5781 63.7841 94.8835C63.938 95.1866 64.0149 95.5701 64.0149 96.0341V99.5H63.1768V96.0909C63.1768 95.6624 63.0656 95.3286 62.843 95.0895C62.6205 94.848 62.3151 94.7273 61.9268 94.7273C61.6593 94.7273 61.4202 94.7853 61.2095 94.9013C61.0012 95.0173 60.8366 95.1866 60.7159 95.4091C60.5952 95.6316 60.5348 95.9015 60.5348 96.2188ZM69.41 95.267L68.6571 95.4801C68.6098 95.3546 68.54 95.2327 68.4476 95.1143C68.3577 94.9936 68.2346 94.8942 68.0783 94.8161C67.9221 94.7379 67.722 94.6989 67.4782 94.6989C67.1444 94.6989 66.8662 94.7758 66.6436 94.9297C66.4235 95.0812 66.3134 95.2741 66.3134 95.5085C66.3134 95.7169 66.3891 95.8814 66.5407 96.0021C66.6922 96.1229 66.9289 96.2235 67.2509 96.304L68.0605 96.5028C68.5482 96.6212 68.9116 96.8023 69.1507 97.0462C69.3899 97.2876 69.5094 97.599 69.5094 97.9801C69.5094 98.2926 69.4194 98.572 69.2395 98.8182C69.062 99.0644 68.8134 99.2585 68.4938 99.4006C68.1742 99.5426 67.8025 99.6136 67.3787 99.6136C66.8224 99.6136 66.3619 99.4929 65.9973 99.2514C65.6328 99.0099 65.4019 98.6572 65.3049 98.1932L66.1003 97.9943C66.1761 98.2879 66.3193 98.508 66.53 98.6548C66.7431 98.8016 67.0212 98.875 67.3645 98.875C67.7551 98.875 68.0653 98.7921 68.2949 98.6264C68.5269 98.4583 68.6429 98.2571 68.6429 98.0227C68.6429 97.8333 68.5766 97.6747 68.4441 97.5469C68.3115 97.4167 68.1079 97.3196 67.8333 97.2557L66.9242 97.0426C66.4247 96.9242 66.0577 96.7408 65.8233 96.4922C65.5913 96.2412 65.4753 95.9276 65.4753 95.5511C65.4753 95.2434 65.5617 94.9711 65.7346 94.7344C65.9097 94.4976 66.1477 94.3118 66.4483 94.1768C66.7514 94.0419 67.0946 93.9744 67.4782 93.9744C68.0179 93.9744 68.4417 94.0928 68.7495 94.3295C69.0596 94.5663 69.2798 94.8788 69.41 95.267ZM73.0579 99.6136C72.5323 99.6136 72.079 99.4976 71.6978 99.2656C71.319 99.0312 71.0266 98.7045 70.8207 98.2855C70.6171 97.8641 70.5153 97.3741 70.5153 96.8153C70.5153 96.2566 70.6171 95.7642 70.8207 95.3381C71.0266 94.9096 71.3131 94.5758 71.68 94.3366C72.0494 94.0952 72.4802 93.9744 72.9727 93.9744C73.2567 93.9744 73.5373 94.0218 73.8143 94.1165C74.0913 94.2112 74.3434 94.3651 74.5707 94.5781C74.7979 94.7888 74.979 95.0682 75.114 95.4162C75.2489 95.7642 75.3164 96.1927 75.3164 96.7017V97.0568H71.1119V96.3324H74.4641C74.4641 96.0246 74.4026 95.75 74.2795 95.5085C74.1587 95.267 73.9859 95.0765 73.761 94.9368C73.5385 94.7971 73.2757 94.7273 72.9727 94.7273C72.6388 94.7273 72.35 94.8101 72.1062 94.9759C71.8647 95.1392 71.6789 95.3523 71.5487 95.6151C71.4184 95.8778 71.3533 96.1596 71.3533 96.4602V96.9432C71.3533 97.3551 71.4244 97.7043 71.5664 97.9908C71.7108 98.2749 71.9109 98.4915 72.1665 98.6406C72.4222 98.7874 72.7193 98.8608 73.0579 98.8608C73.2781 98.8608 73.4769 98.83 73.6545 98.7685C73.8344 98.7045 73.9895 98.6098 74.1197 98.4844C74.2499 98.3565 74.3505 98.1979 74.4215 98.0085L75.2312 98.2358C75.146 98.5104 75.0027 98.7519 74.8015 98.9602C74.6003 99.1662 74.3517 99.3272 74.0558 99.4432C73.7598 99.5568 73.4272 99.6136 73.0579 99.6136Z" fill="var(--colors-neutral-neutral-800)"/>
<path d="M279.5 102.5V96.5H273.5V95.5H279.5V89.5H280.5V95.5H286.5V96.5H280.5V102.5H279.5Z" fill="var(--colors-neutral-neutral-800)"/>
</svg>
