<svg width="1440" height="56" viewBox="0 0 1440 56" fill="none" xmlns="http://www.w3.org/2000/svg">
<rect width="1440" height="56" fill="white"/>
<path d="M78.733 26.5H77.8523C77.8002 26.2467 77.709 26.0241 77.5788 25.8324C77.451 25.6406 77.2947 25.4796 77.1101 25.3494C76.9278 25.2169 76.7254 25.1174 76.5028 25.0511C76.2803 24.9848 76.0483 24.9517 75.8068 24.9517C75.3665 24.9517 74.9676 25.063 74.6101 25.2855C74.255 25.508 73.9721 25.8359 73.7614 26.2692C73.553 26.7024 73.4489 27.2339 73.4489 27.8636C73.4489 28.4934 73.553 29.0249 73.7614 29.4581C73.9721 29.8913 74.255 30.2192 74.6101 30.4418C74.9676 30.6643 75.3665 30.7756 75.8068 30.7756C76.0483 30.7756 76.2803 30.7424 76.5028 30.6761C76.7254 30.6098 76.9278 30.5116 77.1101 30.3814C77.2947 30.2488 77.451 30.0866 77.5788 29.8949C77.709 29.7008 77.8002 29.4782 77.8523 29.2273H78.733C78.6667 29.599 78.5459 29.9316 78.3707 30.2251C78.1955 30.5187 77.9777 30.7685 77.7173 30.9744C77.4569 31.178 77.1645 31.3331 76.8402 31.4396C76.5182 31.5462 76.1738 31.5994 75.8068 31.5994C75.1866 31.5994 74.6349 31.4479 74.152 31.1449C73.669 30.8419 73.2891 30.411 73.0121 29.8523C72.7351 29.2936 72.5966 28.6307 72.5966 27.8636C72.5966 27.0966 72.7351 26.4337 73.0121 25.875C73.2891 25.3163 73.669 24.8854 74.152 24.5824C74.6349 24.2794 75.1866 24.1278 75.8068 24.1278C76.1738 24.1278 76.5182 24.1811 76.8402 24.2876C77.1645 24.3942 77.4569 24.5504 77.7173 24.7564C77.9777 24.96 78.1955 25.2086 78.3707 25.5021C78.5459 25.7933 78.6667 26.1259 78.733 26.5ZM81.6475 31.6278C81.3019 31.6278 80.9882 31.5627 80.7065 31.4325C80.4248 31.3 80.2011 31.1094 80.0353 30.8608C79.8696 30.6098 79.7868 30.3068 79.7868 29.9517C79.7868 29.6392 79.8483 29.3859 79.9714 29.1918C80.0945 28.9953 80.2591 28.8414 80.465 28.7301C80.671 28.6188 80.8983 28.536 81.1468 28.4815C81.3978 28.4247 81.6499 28.3797 81.9032 28.3466C82.2347 28.304 82.5034 28.272 82.7093 28.2507C82.9177 28.227 83.0692 28.188 83.1639 28.1335C83.2609 28.0791 83.3095 27.9844 83.3095 27.8494V27.821C83.3095 27.4706 83.2136 27.1984 83.0218 27.0043C82.8324 26.8101 82.5448 26.7131 82.1589 26.7131C81.7588 26.7131 81.4451 26.8007 81.2179 26.9759C80.9906 27.151 80.8308 27.3381 80.7385 27.5369L79.943 27.2528C80.085 26.9214 80.2744 26.6634 80.5112 26.4787C80.7503 26.2917 81.0107 26.1615 81.2924 26.0881C81.5765 26.0123 81.8559 25.9744 82.1305 25.9744C82.3057 25.9744 82.5069 25.9957 82.7342 26.0384C82.9638 26.0786 83.1852 26.1626 83.3983 26.2905C83.6137 26.4183 83.7924 26.6113 83.9345 26.8693C84.0765 27.1274 84.1475 27.473 84.1475 27.9062V31.5H83.3095V30.7614H83.2669C83.21 30.8797 83.1154 31.0064 82.9828 31.1413C82.8502 31.2763 82.6738 31.3911 82.4537 31.4858C82.2335 31.5805 81.9648 31.6278 81.6475 31.6278ZM81.7754 30.875C82.1068 30.875 82.3862 30.8099 82.6135 30.6797C82.8431 30.5495 83.0159 30.3814 83.1319 30.1754C83.2503 29.9695 83.3095 29.7528 83.3095 29.5256V28.7585C83.274 28.8011 83.1958 28.8402 83.0751 28.8757C82.9567 28.9089 82.8194 28.9384 82.6632 28.9645C82.5093 28.9882 82.359 29.0095 82.2122 29.0284C82.0678 29.045 81.9506 29.0592 81.8606 29.071C81.6428 29.0994 81.4392 29.1456 81.2498 29.2095C81.0628 29.2711 80.9113 29.3646 80.7953 29.4901C80.6816 29.6132 80.6248 29.7812 80.6248 29.9943C80.6248 30.2855 80.7325 30.5057 80.948 30.6548C81.1658 30.8016 81.4416 30.875 81.7754 30.875ZM89.5408 27.267L88.788 27.4801C88.7406 27.3546 88.6708 27.2327 88.5785 27.1143C88.4885 26.9936 88.3654 26.8942 88.2092 26.8161C88.0529 26.7379 87.8529 26.6989 87.609 26.6989C87.2752 26.6989 86.997 26.7758 86.7745 26.9297C86.5543 27.0812 86.4442 27.2741 86.4442 27.5085C86.4442 27.7169 86.52 27.8814 86.6715 28.0021C86.823 28.1229 87.0598 28.2235 87.3817 28.304L88.1914 28.5028C88.6791 28.6212 89.0425 28.8023 89.2816 29.0462C89.5207 29.2876 89.6403 29.599 89.6403 29.9801C89.6403 30.2926 89.5503 30.572 89.3704 30.8182C89.1928 31.0644 88.9442 31.2585 88.6246 31.4006C88.305 31.5426 87.9334 31.6136 87.5096 31.6136C86.9532 31.6136 86.4928 31.4929 86.1282 31.2514C85.7636 31.0099 85.5328 30.6572 85.4357 30.1932L86.2312 29.9943C86.3069 30.2879 86.4502 30.508 86.6609 30.6548C86.8739 30.8016 87.1521 30.875 87.4954 30.875C87.886 30.875 88.1961 30.7921 88.4258 30.6264C88.6578 30.4583 88.7738 30.2571 88.7738 30.0227C88.7738 29.8333 88.7075 29.6747 88.5749 29.5469C88.4424 29.4167 88.2388 29.3196 87.9641 29.2557L87.055 29.0426C86.5555 28.9242 86.1886 28.7408 85.9542 28.4922C85.7222 28.2412 85.6062 27.9276 85.6062 27.5511C85.6062 27.2434 85.6926 26.9711 85.8654 26.7344C86.0406 26.4976 86.2785 26.3118 86.5792 26.1768C86.8822 26.0419 87.2255 25.9744 87.609 25.9744C88.1488 25.9744 88.5726 26.0928 88.8803 26.3295C89.1905 26.5663 89.4106 26.8788 89.5408 27.267ZM93.1887 31.6136C92.6632 31.6136 92.2098 31.4976 91.8287 31.2656C91.4499 31.0312 91.1575 30.7045 90.9515 30.2855C90.7479 29.8641 90.6461 29.3741 90.6461 28.8153C90.6461 28.2566 90.7479 27.7642 90.9515 27.3381C91.1575 26.9096 91.444 26.5758 91.8109 26.3366C92.1802 26.0952 92.6111 25.9744 93.1035 25.9744C93.3876 25.9744 93.6681 26.0218 93.9451 26.1165C94.2221 26.2112 94.4743 26.3651 94.7015 26.5781C94.9288 26.7888 95.1099 27.0682 95.2449 27.4162C95.3798 27.7642 95.4473 28.1927 95.4473 28.7017V29.0568H91.2427V28.3324H94.595C94.595 28.0246 94.5334 27.75 94.4103 27.5085C94.2896 27.267 94.1168 27.0765 93.8919 26.9368C93.6693 26.7971 93.4065 26.7273 93.1035 26.7273C92.7697 26.7273 92.4809 26.8101 92.237 26.9759C91.9956 27.1392 91.8097 27.3523 91.6795 27.6151C91.5493 27.8778 91.4842 28.1596 91.4842 28.4602V28.9432C91.4842 29.3551 91.5552 29.7043 91.6973 29.9908C91.8417 30.2749 92.0417 30.4915 92.2974 30.6406C92.5531 30.7874 92.8502 30.8608 93.1887 30.8608C93.4089 30.8608 93.6078 30.83 93.7853 30.7685C93.9653 30.7045 94.1203 30.6098 94.2505 30.4844C94.3807 30.3565 94.4814 30.1979 94.5524 30.0085L95.362 30.2358C95.2768 30.5104 95.1336 30.7519 94.9324 30.9602C94.7311 31.1662 94.4825 31.3272 94.1866 31.4432C93.8907 31.5568 93.5581 31.6136 93.1887 31.6136ZM100.373 28.2188V31.5H99.5346V26.0455H100.344V26.8977H100.415C100.543 26.6207 100.737 26.3982 100.998 26.2301C101.258 26.0597 101.594 25.9744 102.006 25.9744C102.376 25.9744 102.699 26.0502 102.976 26.2017C103.253 26.3509 103.468 26.5781 103.622 26.8835C103.776 27.1866 103.853 27.5701 103.853 28.0341V31.5H103.015V28.0909C103.015 27.6624 102.903 27.3286 102.681 27.0895C102.458 26.848 102.153 26.7273 101.765 26.7273C101.497 26.7273 101.258 26.7853 101.047 26.9013C100.839 27.0173 100.675 27.1866 100.554 27.4091C100.433 27.6316 100.373 27.9015 100.373 28.2188ZM106.989 31.6278C106.644 31.6278 106.33 31.5627 106.048 31.4325C105.767 31.3 105.543 31.1094 105.377 30.8608C105.211 30.6098 105.129 30.3068 105.129 29.9517C105.129 29.6392 105.19 29.3859 105.313 29.1918C105.436 28.9953 105.601 28.8414 105.807 28.7301C106.013 28.6188 106.24 28.536 106.489 28.4815C106.74 28.4247 106.992 28.3797 107.245 28.3466C107.576 28.304 107.845 28.272 108.051 28.2507C108.259 28.227 108.411 28.188 108.506 28.1335C108.603 28.0791 108.651 27.9844 108.651 27.8494V27.821C108.651 27.4706 108.555 27.1984 108.364 27.0043C108.174 26.8101 107.887 26.7131 107.501 26.7131C107.101 26.7131 106.787 26.8007 106.56 26.9759C106.332 27.151 106.173 27.3381 106.08 27.5369L105.285 27.2528C105.427 26.9214 105.616 26.6634 105.853 26.4787C106.092 26.2917 106.353 26.1615 106.634 26.0881C106.918 26.0123 107.198 25.9744 107.472 25.9744C107.647 25.9744 107.849 25.9957 108.076 26.0384C108.306 26.0786 108.527 26.1626 108.74 26.2905C108.955 26.4183 109.134 26.6113 109.276 26.8693C109.418 27.1274 109.489 27.473 109.489 27.9062V31.5H108.651V30.7614H108.609C108.552 30.8797 108.457 31.0064 108.325 31.1413C108.192 31.2763 108.016 31.3911 107.795 31.4858C107.575 31.5805 107.307 31.6278 106.989 31.6278ZM107.117 30.875C107.449 30.875 107.728 30.8099 107.955 30.6797C108.185 30.5495 108.358 30.3814 108.474 30.1754C108.592 29.9695 108.651 29.7528 108.651 29.5256V28.7585C108.616 28.8011 108.538 28.8402 108.417 28.8757C108.299 28.9089 108.161 28.9384 108.005 28.9645C107.851 28.9882 107.701 29.0095 107.554 29.0284C107.41 29.045 107.292 29.0592 107.202 29.071C106.985 29.0994 106.781 29.1456 106.592 29.2095C106.405 29.2711 106.253 29.3646 106.137 29.4901C106.023 29.6132 105.967 29.7812 105.967 29.9943C105.967 30.2855 106.074 30.5057 106.29 30.6548C106.508 30.8016 106.783 30.875 107.117 30.875ZM111.019 31.5V26.0455H111.829V26.8977H111.9C112.013 26.6065 112.197 26.3804 112.45 26.2195C112.703 26.0561 113.008 25.9744 113.363 25.9744C113.723 25.9744 114.022 26.0561 114.261 26.2195C114.503 26.3804 114.691 26.6065 114.826 26.8977H114.883C115.022 26.616 115.232 26.3923 115.511 26.2266C115.791 26.0585 116.126 25.9744 116.516 25.9744C117.004 25.9744 117.403 26.1271 117.713 26.4325C118.023 26.7356 118.178 27.2079 118.178 27.8494V31.5H117.34V27.8494C117.34 27.447 117.23 27.1593 117.01 26.9865C116.79 26.8137 116.53 26.7273 116.232 26.7273C115.849 26.7273 115.551 26.8433 115.341 27.0753C115.13 27.3049 115.025 27.5961 115.025 27.9489V31.5H114.172V27.7642C114.172 27.4541 114.072 27.2043 113.871 27.0149C113.669 26.8232 113.41 26.7273 113.093 26.7273C112.875 26.7273 112.671 26.7853 112.482 26.9013C112.295 27.0173 112.144 27.1783 112.028 27.3842C111.914 27.5878 111.857 27.8234 111.857 28.0909V31.5H111.019ZM121.997 31.6136C121.472 31.6136 121.018 31.4976 120.637 31.2656C120.258 31.0312 119.966 30.7045 119.76 30.2855C119.557 29.8641 119.455 29.3741 119.455 28.8153C119.455 28.2566 119.557 27.7642 119.76 27.3381C119.966 26.9096 120.253 26.5758 120.619 26.3366C120.989 26.0952 121.42 25.9744 121.912 25.9744C122.196 25.9744 122.477 26.0218 122.754 26.1165C123.031 26.2112 123.283 26.3651 123.51 26.5781C123.737 26.7888 123.919 27.0682 124.053 27.4162C124.188 27.7642 124.256 28.1927 124.256 28.7017V29.0568H120.051V28.3324H123.404C123.404 28.0246 123.342 27.75 123.219 27.5085C123.098 27.267 122.925 27.0765 122.7 26.9368C122.478 26.7971 122.215 26.7273 121.912 26.7273C121.578 26.7273 121.289 26.8101 121.046 26.9759C120.804 27.1392 120.618 27.3523 120.488 27.6151C120.358 27.8778 120.293 28.1596 120.293 28.4602V28.9432C120.293 29.3551 120.364 29.7043 120.506 29.9908C120.65 30.2749 120.85 30.4915 121.106 30.6406C121.362 30.7874 121.659 30.8608 121.997 30.8608C122.218 30.8608 122.416 30.83 122.594 30.7685C122.774 30.7045 122.929 30.6098 123.059 30.4844C123.189 30.3565 123.29 30.1979 123.361 30.0085L124.171 30.2358C124.085 30.5104 123.942 30.7519 123.741 30.9602C123.54 31.1662 123.291 31.3272 122.995 31.4432C122.699 31.5568 122.367 31.6136 121.997 31.6136Z" fill="var(--colors-neutral-neutral-700)"/>
<path d="M133.2 25.5L137 21.7L140.8 25.5H133.2Z" fill="var(--colors-neutral-neutral-800)"/>
<path d="M137 34.3077L133.192 30.5H140.808L137 34.3077Z" fill="var(--colors-neutral-neutral-800)"/>
<path d="M580.881 31.5V24.2273H581.761V30.7188H585.142V31.5H580.881ZM587.997 31.6278C587.652 31.6278 587.338 31.5627 587.056 31.4325C586.774 31.3 586.551 31.1094 586.385 30.8608C586.219 30.6098 586.136 30.3068 586.136 29.9517C586.136 29.6392 586.198 29.3859 586.321 29.1918C586.444 28.9953 586.609 28.8414 586.815 28.7301C587.021 28.6188 587.248 28.536 587.496 28.4815C587.747 28.4247 588 28.3797 588.253 28.3466C588.584 28.304 588.853 28.272 589.059 28.2507C589.267 28.227 589.419 28.188 589.513 28.1335C589.611 28.0791 589.659 27.9844 589.659 27.8494V27.821C589.659 27.4706 589.563 27.1984 589.371 27.0043C589.182 26.8101 588.894 26.7131 588.509 26.7131C588.108 26.7131 587.795 26.8007 587.567 26.9759C587.34 27.151 587.18 27.3381 587.088 27.5369L586.293 27.2528C586.435 26.9214 586.624 26.6634 586.861 26.4787C587.1 26.2917 587.36 26.1615 587.642 26.0881C587.926 26.0123 588.205 25.9744 588.48 25.9744C588.655 25.9744 588.857 25.9957 589.084 26.0384C589.313 26.0786 589.535 26.1626 589.748 26.2905C589.963 26.4183 590.142 26.6113 590.284 26.8693C590.426 27.1274 590.497 27.473 590.497 27.9062V31.5H589.659V30.7614H589.616C589.56 30.8797 589.465 31.0064 589.332 31.1413C589.2 31.2763 589.023 31.3911 588.803 31.4858C588.583 31.5805 588.314 31.6278 587.997 31.6278ZM588.125 30.875C588.456 30.875 588.736 30.8099 588.963 30.6797C589.193 30.5495 589.366 30.3814 589.482 30.1754C589.6 29.9695 589.659 29.7528 589.659 29.5256V28.7585C589.624 28.8011 589.545 28.8402 589.425 28.8757C589.306 28.9089 589.169 28.9384 589.013 28.9645C588.859 28.9882 588.709 29.0095 588.562 29.0284C588.417 29.045 588.3 29.0592 588.21 29.071C587.992 29.0994 587.789 29.1456 587.599 29.2095C587.412 29.2711 587.261 29.3646 587.145 29.4901C587.031 29.6132 586.974 29.7812 586.974 29.9943C586.974 30.2855 587.082 30.5057 587.298 30.6548C587.515 30.8016 587.791 30.875 588.125 30.875ZM595.89 27.267L595.138 27.4801C595.09 27.3546 595.02 27.2327 594.928 27.1143C594.838 26.9936 594.715 26.8942 594.559 26.8161C594.403 26.7379 594.202 26.6989 593.959 26.6989C593.625 26.6989 593.347 26.7758 593.124 26.9297C592.904 27.0812 592.794 27.2741 592.794 27.5085C592.794 27.7169 592.87 27.8814 593.021 28.0021C593.173 28.1229 593.409 28.2235 593.731 28.304L594.541 28.5028C595.029 28.6212 595.392 28.8023 595.631 29.0462C595.87 29.2876 595.99 29.599 595.99 29.9801C595.99 30.2926 595.9 30.572 595.72 30.8182C595.542 31.0644 595.294 31.2585 594.974 31.4006C594.655 31.5426 594.283 31.6136 593.859 31.6136C593.303 31.6136 592.842 31.4929 592.478 31.2514C592.113 31.0099 591.882 30.6572 591.785 30.1932L592.581 29.9943C592.657 30.2879 592.8 30.508 593.01 30.6548C593.224 30.8016 593.502 30.875 593.845 30.875C594.236 30.875 594.546 30.7921 594.775 30.6264C595.007 30.4583 595.123 30.2571 595.123 30.0227C595.123 29.8333 595.057 29.6747 594.925 29.5469C594.792 29.4167 594.588 29.3196 594.314 29.2557L593.405 29.0426C592.905 28.9242 592.538 28.7408 592.304 28.4922C592.072 28.2412 591.956 27.9276 591.956 27.5511C591.956 27.2434 592.042 26.9711 592.215 26.7344C592.39 26.4976 592.628 26.3118 592.929 26.1768C593.232 26.0419 593.575 25.9744 593.959 25.9744C594.498 25.9744 594.922 26.0928 595.23 26.3295C595.54 26.5663 595.76 26.8788 595.89 27.267ZM599.624 26.0455V26.7557H596.797V26.0455H599.624ZM597.621 24.7386H598.459V29.9375C598.459 30.1742 598.493 30.3518 598.562 30.4702C598.633 30.5862 598.723 30.6643 598.832 30.7045C598.943 30.7424 599.06 30.7614 599.183 30.7614C599.276 30.7614 599.351 30.7566 599.411 30.7472C599.47 30.7353 599.517 30.7259 599.553 30.7188L599.723 31.4716C599.666 31.4929 599.587 31.5142 599.485 31.5355C599.383 31.5592 599.254 31.571 599.098 31.571C598.861 31.571 598.629 31.5201 598.402 31.4183C598.177 31.3165 597.99 31.1615 597.841 30.9531C597.694 30.7448 597.621 30.482 597.621 30.1648V24.7386ZM603.697 31.5V26.0455H604.506V26.8977H604.577C604.691 26.6065 604.875 26.3804 605.128 26.2195C605.381 26.0561 605.685 25.9744 606.04 25.9744C606.4 25.9744 606.7 26.0561 606.939 26.2195C607.18 26.3804 607.369 26.6065 607.504 26.8977H607.56C607.7 26.616 607.91 26.3923 608.189 26.2266C608.468 26.0585 608.803 25.9744 609.194 25.9744C609.682 25.9744 610.08 26.1271 610.391 26.4325C610.701 26.7356 610.856 27.2079 610.856 27.8494V31.5H610.018V27.8494C610.018 27.447 609.908 27.1593 609.688 26.9865C609.467 26.8137 609.208 26.7273 608.91 26.7273C608.526 26.7273 608.229 26.8433 608.018 27.0753C607.808 27.3049 607.702 27.5961 607.702 27.9489V31.5H606.85V27.7642C606.85 27.4541 606.75 27.2043 606.548 27.0149C606.347 26.8232 606.088 26.7273 605.771 26.7273C605.553 26.7273 605.349 26.7853 605.16 26.9013C604.973 27.0173 604.821 27.1783 604.705 27.3842C604.592 27.5878 604.535 27.8234 604.535 28.0909V31.5H603.697ZM614.604 31.6136C614.112 31.6136 613.68 31.4964 613.308 31.2621C612.939 31.0277 612.65 30.6998 612.441 30.2784C612.235 29.857 612.132 29.3646 612.132 28.8011C612.132 28.233 612.235 27.737 612.441 27.3132C612.65 26.8894 612.939 26.5604 613.308 26.326C613.68 26.0916 614.112 25.9744 614.604 25.9744C615.096 25.9744 615.527 26.0916 615.897 26.326C616.268 26.5604 616.557 26.8894 616.763 27.3132C616.971 27.737 617.076 28.233 617.076 28.8011C617.076 29.3646 616.971 29.857 616.763 30.2784C616.557 30.6998 616.268 31.0277 615.897 31.2621C615.527 31.4964 615.096 31.6136 614.604 31.6136ZM614.604 30.8608C614.978 30.8608 615.286 30.7649 615.527 30.5732C615.769 30.3814 615.948 30.1293 616.064 29.8168C616.18 29.5043 616.238 29.1657 616.238 28.8011C616.238 28.4366 616.18 28.0968 616.064 27.782C615.948 27.4671 615.769 27.2126 615.527 27.0185C615.286 26.8243 614.978 26.7273 614.604 26.7273C614.23 26.7273 613.922 26.8243 613.681 27.0185C613.439 27.2126 613.261 27.4671 613.145 27.782C613.029 28.0968 612.971 28.4366 612.971 28.8011C612.971 29.1657 613.029 29.5043 613.145 29.8168C613.261 30.1293 613.439 30.3814 613.681 30.5732C613.922 30.7649 614.23 30.8608 614.604 30.8608ZM620.415 31.6136C619.96 31.6136 619.559 31.4988 619.211 31.2692C618.863 31.0372 618.59 30.7105 618.394 30.2891C618.198 29.8653 618.099 29.3646 618.099 28.7869C618.099 28.214 618.198 27.7169 618.394 27.2955C618.59 26.8741 618.864 26.5485 619.214 26.3189C619.565 26.0893 619.97 25.9744 620.429 25.9744C620.784 25.9744 621.064 26.0336 621.27 26.152C621.479 26.268 621.637 26.4006 621.746 26.5497C621.858 26.6965 621.944 26.8172 622.006 26.9119H622.077V24.2273H622.915V31.5H622.105V30.6619H622.006C621.944 30.7614 621.856 30.8868 621.743 31.0384C621.629 31.1875 621.467 31.3213 621.256 31.4396C621.046 31.5556 620.765 31.6136 620.415 31.6136ZM620.528 30.8608C620.864 30.8608 621.148 30.7732 621.381 30.598C621.613 30.4205 621.789 30.1754 621.91 29.8629C622.03 29.5481 622.091 29.1847 622.091 28.7727C622.091 28.3655 622.032 28.0092 621.913 27.7038C621.795 27.3961 621.62 27.157 621.388 26.9865C621.156 26.8137 620.869 26.7273 620.528 26.7273C620.173 26.7273 619.877 26.8184 619.64 27.0007C619.406 27.1806 619.23 27.4257 619.111 27.7358C618.995 28.0436 618.937 28.3892 618.937 28.7727C618.937 29.161 618.997 29.5137 619.115 29.831C619.236 30.1458 619.413 30.3968 619.648 30.5838C619.884 30.7685 620.178 30.8608 620.528 30.8608ZM624.566 31.5V26.0455H625.404V31.5H624.566ZM624.992 25.1364C624.829 25.1364 624.688 25.0807 624.569 24.9695C624.453 24.8582 624.395 24.7244 624.395 24.5682C624.395 24.4119 624.453 24.2782 624.569 24.1669C624.688 24.0556 624.829 24 624.992 24C625.155 24 625.295 24.0556 625.411 24.1669C625.529 24.2782 625.589 24.4119 625.589 24.5682C625.589 24.7244 625.529 24.8582 625.411 24.9695C625.295 25.0807 625.155 25.1364 624.992 25.1364ZM629.368 26.0455V26.7557H626.428V26.0455H629.368ZM627.308 31.5V25.2926C627.308 24.9801 627.382 24.7197 627.528 24.5114C627.675 24.303 627.866 24.1468 628.1 24.0426C628.335 23.9384 628.582 23.8864 628.842 23.8864C629.048 23.8864 629.216 23.9029 629.347 23.9361C629.477 23.9692 629.574 24 629.638 24.0284L629.396 24.7528C629.354 24.7386 629.295 24.7209 629.219 24.6996C629.145 24.6783 629.048 24.6676 628.928 24.6676C628.651 24.6676 628.451 24.7375 628.327 24.8771C628.207 25.0168 628.146 25.2216 628.146 25.4915V31.5H627.308ZM630.542 31.5V26.0455H631.381V31.5H630.542ZM630.969 25.1364C630.805 25.1364 630.664 25.0807 630.546 24.9695C630.43 24.8582 630.372 24.7244 630.372 24.5682C630.372 24.4119 630.43 24.2782 630.546 24.1669C630.664 24.0556 630.805 24 630.969 24C631.132 24 631.272 24.0556 631.388 24.1669C631.506 24.2782 631.565 24.4119 631.565 24.5682C631.565 24.7244 631.506 24.8582 631.388 24.9695C631.272 25.0807 631.132 25.1364 630.969 25.1364ZM635.202 31.6136C634.677 31.6136 634.223 31.4976 633.842 31.2656C633.464 31.0312 633.171 30.7045 632.965 30.2855C632.762 29.8641 632.66 29.3741 632.66 28.8153C632.66 28.2566 632.762 27.7642 632.965 27.3381C633.171 26.9096 633.458 26.5758 633.825 26.3366C634.194 26.0952 634.625 25.9744 635.117 25.9744C635.401 25.9744 635.682 26.0218 635.959 26.1165C636.236 26.2112 636.488 26.3651 636.715 26.5781C636.942 26.7888 637.124 27.0682 637.259 27.4162C637.393 27.7642 637.461 28.1927 637.461 28.7017V29.0568H633.256V28.3324H636.609C636.609 28.0246 636.547 27.75 636.424 27.5085C636.303 27.267 636.13 27.0765 635.906 26.9368C635.683 26.7971 635.42 26.7273 635.117 26.7273C634.783 26.7273 634.495 26.8101 634.251 26.9759C634.009 27.1392 633.823 27.3523 633.693 27.6151C633.563 27.8778 633.498 28.1596 633.498 28.4602V28.9432C633.498 29.3551 633.569 29.7043 633.711 29.9908C633.855 30.2749 634.055 30.4915 634.311 30.6406C634.567 30.7874 634.864 30.8608 635.202 30.8608C635.423 30.8608 635.621 30.83 635.799 30.7685C635.979 30.7045 636.134 30.6098 636.264 30.4844C636.394 30.3565 636.495 30.1979 636.566 30.0085L637.376 30.2358C637.29 30.5104 637.147 30.7519 636.946 30.9602C636.745 31.1662 636.496 31.3272 636.2 31.4432C635.904 31.5568 635.572 31.6136 635.202 31.6136ZM640.795 31.6136C640.341 31.6136 639.94 31.4988 639.592 31.2692C639.244 31.0372 638.971 30.7105 638.775 30.2891C638.578 29.8653 638.48 29.3646 638.48 28.7869C638.48 28.214 638.578 27.7169 638.775 27.2955C638.971 26.8741 639.245 26.5485 639.595 26.3189C639.946 26.0893 640.35 25.9744 640.81 25.9744C641.165 25.9744 641.445 26.0336 641.651 26.152C641.86 26.268 642.018 26.4006 642.127 26.5497C642.238 26.6965 642.325 26.8172 642.386 26.9119H642.457V24.2273H643.295V31.5H642.486V30.6619H642.386C642.325 30.7614 642.237 30.8868 642.124 31.0384C642.01 31.1875 641.848 31.3213 641.637 31.4396C641.426 31.5556 641.146 31.6136 640.795 31.6136ZM640.909 30.8608C641.245 30.8608 641.529 30.7732 641.761 30.598C641.993 30.4205 642.17 30.1754 642.29 29.8629C642.411 29.5481 642.472 29.1847 642.472 28.7727C642.472 28.3655 642.412 28.0092 642.294 27.7038C642.176 27.3961 642 27.157 641.768 26.9865C641.536 26.8137 641.25 26.7273 640.909 26.7273C640.554 26.7273 640.258 26.8184 640.021 27.0007C639.787 27.1806 639.611 27.4257 639.492 27.7358C639.376 28.0436 639.318 28.3892 639.318 28.7727C639.318 29.161 639.377 29.5137 639.496 29.831C639.616 30.1458 639.794 30.3968 640.028 30.5838C640.265 30.7685 640.559 30.8608 640.909 30.8608ZM647.873 31.5V24.2273H648.711V26.9119H648.782C648.844 26.8172 648.929 26.6965 649.038 26.5497C649.149 26.4006 649.308 26.268 649.513 26.152C649.722 26.0336 650.004 25.9744 650.359 25.9744C650.818 25.9744 651.223 26.0893 651.573 26.3189C651.924 26.5485 652.197 26.8741 652.393 27.2955C652.59 27.7169 652.688 28.214 652.688 28.7869C652.688 29.3646 652.59 29.8653 652.393 30.2891C652.197 30.7105 651.925 31.0372 651.577 31.2692C651.229 31.4988 650.827 31.6136 650.373 31.6136C650.022 31.6136 649.742 31.5556 649.531 31.4396C649.321 31.3213 649.158 31.1875 649.045 31.0384C648.931 30.8868 648.844 30.7614 648.782 30.6619H648.683V31.5H647.873ZM648.697 28.7727C648.697 29.1847 648.757 29.5481 648.878 29.8629C648.999 30.1754 649.175 30.4205 649.407 30.598C649.639 30.7732 649.923 30.8608 650.259 30.8608C650.61 30.8608 650.902 30.7685 651.136 30.5838C651.373 30.3968 651.551 30.1458 651.669 29.831C651.79 29.5137 651.85 29.161 651.85 28.7727C651.85 28.3892 651.791 28.0436 651.673 27.7358C651.557 27.4257 651.38 27.1806 651.143 27.0007C650.909 26.8184 650.614 26.7273 650.259 26.7273C649.918 26.7273 649.632 26.8137 649.4 26.9865C649.168 27.157 648.993 27.3961 648.874 27.7038C648.756 28.0092 648.697 28.3655 648.697 28.7727ZM654.315 33.5455C654.173 33.5455 654.046 33.5336 653.935 33.5099C653.823 33.4886 653.746 33.4673 653.704 33.446L653.917 32.7074C654.121 32.7595 654.3 32.7784 654.457 32.7642C654.613 32.75 654.751 32.6802 654.872 32.5547C654.995 32.4316 655.108 32.2315 655.21 31.9545L655.366 31.5284L653.349 26.0455H654.258L655.763 30.392H655.82L657.326 26.0455H658.235L655.92 32.2955C655.816 32.5772 655.687 32.8104 655.533 32.995C655.379 33.1821 655.2 33.3205 654.996 33.4105C654.795 33.5005 654.568 33.5455 654.315 33.5455Z" fill="var(--colors-neutral-neutral-700)"/>
<path d="M667.2 25.5L671 21.7L674.8 25.5H667.2Z" fill="var(--colors-neutral-neutral-800)"/>
<path d="M671 34.3077L667.192 30.5H674.808L671 34.3077Z" fill="var(--colors-neutral-neutral-800)"/>
<path d="M763.881 31.5V24.2273H764.761V30.7188H768.142V31.5H763.881ZM770.997 31.6278C770.652 31.6278 770.338 31.5627 770.056 31.4325C769.774 31.3 769.551 31.1094 769.385 30.8608C769.219 30.6098 769.136 30.3068 769.136 29.9517C769.136 29.6392 769.198 29.3859 769.321 29.1918C769.444 28.9953 769.609 28.8414 769.815 28.7301C770.021 28.6188 770.248 28.536 770.496 28.4815C770.747 28.4247 771 28.3797 771.253 28.3466C771.584 28.304 771.853 28.272 772.059 28.2507C772.267 28.227 772.419 28.188 772.513 28.1335C772.611 28.0791 772.659 27.9844 772.659 27.8494V27.821C772.659 27.4706 772.563 27.1984 772.371 27.0043C772.182 26.8101 771.894 26.7131 771.509 26.7131C771.108 26.7131 770.795 26.8007 770.567 26.9759C770.34 27.151 770.18 27.3381 770.088 27.5369L769.293 27.2528C769.435 26.9214 769.624 26.6634 769.861 26.4787C770.1 26.2917 770.36 26.1615 770.642 26.0881C770.926 26.0123 771.205 25.9744 771.48 25.9744C771.655 25.9744 771.857 25.9957 772.084 26.0384C772.313 26.0786 772.535 26.1626 772.748 26.2905C772.963 26.4183 773.142 26.6113 773.284 26.8693C773.426 27.1274 773.497 27.473 773.497 27.9062V31.5H772.659V30.7614H772.616C772.56 30.8797 772.465 31.0064 772.332 31.1413C772.2 31.2763 772.023 31.3911 771.803 31.4858C771.583 31.5805 771.314 31.6278 770.997 31.6278ZM771.125 30.875C771.456 30.875 771.736 30.8099 771.963 30.6797C772.193 30.5495 772.366 30.3814 772.482 30.1754C772.6 29.9695 772.659 29.7528 772.659 29.5256V28.7585C772.624 28.8011 772.545 28.8402 772.425 28.8757C772.306 28.9089 772.169 28.9384 772.013 28.9645C771.859 28.9882 771.709 29.0095 771.562 29.0284C771.417 29.045 771.3 29.0592 771.21 29.071C770.992 29.0994 770.789 29.1456 770.599 29.2095C770.412 29.2711 770.261 29.3646 770.145 29.4901C770.031 29.6132 769.974 29.7812 769.974 29.9943C769.974 30.2855 770.082 30.5057 770.298 30.6548C770.515 30.8016 770.791 30.875 771.125 30.875ZM778.89 27.267L778.138 27.4801C778.09 27.3546 778.02 27.2327 777.928 27.1143C777.838 26.9936 777.715 26.8942 777.559 26.8161C777.403 26.7379 777.202 26.6989 776.959 26.6989C776.625 26.6989 776.347 26.7758 776.124 26.9297C775.904 27.0812 775.794 27.2741 775.794 27.5085C775.794 27.7169 775.87 27.8814 776.021 28.0021C776.173 28.1229 776.409 28.2235 776.731 28.304L777.541 28.5028C778.029 28.6212 778.392 28.8023 778.631 29.0462C778.87 29.2876 778.99 29.599 778.99 29.9801C778.99 30.2926 778.9 30.572 778.72 30.8182C778.542 31.0644 778.294 31.2585 777.974 31.4006C777.655 31.5426 777.283 31.6136 776.859 31.6136C776.303 31.6136 775.842 31.4929 775.478 31.2514C775.113 31.0099 774.882 30.6572 774.785 30.1932L775.581 29.9943C775.657 30.2879 775.8 30.508 776.01 30.6548C776.224 30.8016 776.502 30.875 776.845 30.875C777.236 30.875 777.546 30.7921 777.775 30.6264C778.007 30.4583 778.123 30.2571 778.123 30.0227C778.123 29.8333 778.057 29.6747 777.925 29.5469C777.792 29.4167 777.588 29.3196 777.314 29.2557L776.405 29.0426C775.905 28.9242 775.538 28.7408 775.304 28.4922C775.072 28.2412 774.956 27.9276 774.956 27.5511C774.956 27.2434 775.042 26.9711 775.215 26.7344C775.39 26.4976 775.628 26.3118 775.929 26.1768C776.232 26.0419 776.575 25.9744 776.959 25.9744C777.498 25.9744 777.922 26.0928 778.23 26.3295C778.54 26.5663 778.76 26.8788 778.89 27.267ZM782.624 26.0455V26.7557H779.797V26.0455H782.624ZM780.621 24.7386H781.459V29.9375C781.459 30.1742 781.493 30.3518 781.562 30.4702C781.633 30.5862 781.723 30.6643 781.832 30.7045C781.943 30.7424 782.06 30.7614 782.183 30.7614C782.276 30.7614 782.351 30.7566 782.411 30.7472C782.47 30.7353 782.517 30.7259 782.553 30.7188L782.723 31.4716C782.666 31.4929 782.587 31.5142 782.485 31.5355C782.383 31.5592 782.254 31.571 782.098 31.571C781.861 31.571 781.629 31.5201 781.402 31.4183C781.177 31.3165 780.99 31.1615 780.841 30.9531C780.694 30.7448 780.621 30.482 780.621 30.1648V24.7386ZM786.697 31.5V26.0455H787.506V26.8977H787.577C787.691 26.6065 787.875 26.3804 788.128 26.2195C788.381 26.0561 788.685 25.9744 789.04 25.9744C789.4 25.9744 789.7 26.0561 789.939 26.2195C790.18 26.3804 790.369 26.6065 790.504 26.8977H790.56C790.7 26.616 790.91 26.3923 791.189 26.2266C791.468 26.0585 791.803 25.9744 792.194 25.9744C792.682 25.9744 793.08 26.1271 793.391 26.4325C793.701 26.7356 793.856 27.2079 793.856 27.8494V31.5H793.018V27.8494C793.018 27.447 792.908 27.1593 792.688 26.9865C792.467 26.8137 792.208 26.7273 791.91 26.7273C791.526 26.7273 791.229 26.8433 791.018 27.0753C790.808 27.3049 790.702 27.5961 790.702 27.9489V31.5H789.85V27.7642C789.85 27.4541 789.75 27.2043 789.548 27.0149C789.347 26.8232 789.088 26.7273 788.771 26.7273C788.553 26.7273 788.349 26.7853 788.16 26.9013C787.973 27.0173 787.821 27.1783 787.705 27.3842C787.592 27.5878 787.535 27.8234 787.535 28.0909V31.5H786.697ZM797.604 31.6136C797.112 31.6136 796.68 31.4964 796.308 31.2621C795.939 31.0277 795.65 30.6998 795.441 30.2784C795.235 29.857 795.132 29.3646 795.132 28.8011C795.132 28.233 795.235 27.737 795.441 27.3132C795.65 26.8894 795.939 26.5604 796.308 26.326C796.68 26.0916 797.112 25.9744 797.604 25.9744C798.096 25.9744 798.527 26.0916 798.897 26.326C799.268 26.5604 799.557 26.8894 799.763 27.3132C799.971 27.737 800.076 28.233 800.076 28.8011C800.076 29.3646 799.971 29.857 799.763 30.2784C799.557 30.6998 799.268 31.0277 798.897 31.2621C798.527 31.4964 798.096 31.6136 797.604 31.6136ZM797.604 30.8608C797.978 30.8608 798.286 30.7649 798.527 30.5732C798.769 30.3814 798.948 30.1293 799.064 29.8168C799.18 29.5043 799.238 29.1657 799.238 28.8011C799.238 28.4366 799.18 28.0968 799.064 27.782C798.948 27.4671 798.769 27.2126 798.527 27.0185C798.286 26.8243 797.978 26.7273 797.604 26.7273C797.23 26.7273 796.922 26.8243 796.681 27.0185C796.439 27.2126 796.261 27.4671 796.145 27.782C796.029 28.0968 795.971 28.4366 795.971 28.8011C795.971 29.1657 796.029 29.5043 796.145 29.8168C796.261 30.1293 796.439 30.3814 796.681 30.5732C796.922 30.7649 797.23 30.8608 797.604 30.8608ZM803.415 31.6136C802.96 31.6136 802.559 31.4988 802.211 31.2692C801.863 31.0372 801.59 30.7105 801.394 30.2891C801.198 29.8653 801.099 29.3646 801.099 28.7869C801.099 28.214 801.198 27.7169 801.394 27.2955C801.59 26.8741 801.864 26.5485 802.214 26.3189C802.565 26.0893 802.97 25.9744 803.429 25.9744C803.784 25.9744 804.064 26.0336 804.27 26.152C804.479 26.268 804.637 26.4006 804.746 26.5497C804.858 26.6965 804.944 26.8172 805.006 26.9119H805.077V24.2273H805.915V31.5H805.105V30.6619H805.006C804.944 30.7614 804.856 30.8868 804.743 31.0384C804.629 31.1875 804.467 31.3213 804.256 31.4396C804.046 31.5556 803.765 31.6136 803.415 31.6136ZM803.528 30.8608C803.864 30.8608 804.148 30.7732 804.381 30.598C804.613 30.4205 804.789 30.1754 804.91 29.8629C805.03 29.5481 805.091 29.1847 805.091 28.7727C805.091 28.3655 805.032 28.0092 804.913 27.7038C804.795 27.3961 804.62 27.157 804.388 26.9865C804.156 26.8137 803.869 26.7273 803.528 26.7273C803.173 26.7273 802.877 26.8184 802.64 27.0007C802.406 27.1806 802.23 27.4257 802.111 27.7358C801.995 28.0436 801.937 28.3892 801.937 28.7727C801.937 29.161 801.997 29.5137 802.115 29.831C802.236 30.1458 802.413 30.3968 802.648 30.5838C802.884 30.7685 803.178 30.8608 803.528 30.8608ZM807.566 31.5V26.0455H808.404V31.5H807.566ZM807.992 25.1364C807.829 25.1364 807.688 25.0807 807.569 24.9695C807.453 24.8582 807.395 24.7244 807.395 24.5682C807.395 24.4119 807.453 24.2782 807.569 24.1669C807.688 24.0556 807.829 24 807.992 24C808.155 24 808.295 24.0556 808.411 24.1669C808.529 24.2782 808.589 24.4119 808.589 24.5682C808.589 24.7244 808.529 24.8582 808.411 24.9695C808.295 25.0807 808.155 25.1364 807.992 25.1364ZM812.368 26.0455V26.7557H809.428V26.0455H812.368ZM810.308 31.5V25.2926C810.308 24.9801 810.382 24.7197 810.528 24.5114C810.675 24.303 810.866 24.1468 811.1 24.0426C811.335 23.9384 811.582 23.8864 811.842 23.8864C812.048 23.8864 812.216 23.9029 812.347 23.9361C812.477 23.9692 812.574 24 812.638 24.0284L812.396 24.7528C812.354 24.7386 812.295 24.7209 812.219 24.6996C812.145 24.6783 812.048 24.6676 811.928 24.6676C811.651 24.6676 811.451 24.7375 811.327 24.8771C811.207 25.0168 811.146 25.2216 811.146 25.4915V31.5H810.308ZM813.542 31.5V26.0455H814.381V31.5H813.542ZM813.969 25.1364C813.805 25.1364 813.664 25.0807 813.546 24.9695C813.43 24.8582 813.372 24.7244 813.372 24.5682C813.372 24.4119 813.43 24.2782 813.546 24.1669C813.664 24.0556 813.805 24 813.969 24C814.132 24 814.272 24.0556 814.388 24.1669C814.506 24.2782 814.565 24.4119 814.565 24.5682C814.565 24.7244 814.506 24.8582 814.388 24.9695C814.272 25.0807 814.132 25.1364 813.969 25.1364ZM818.202 31.6136C817.677 31.6136 817.223 31.4976 816.842 31.2656C816.464 31.0312 816.171 30.7045 815.965 30.2855C815.762 29.8641 815.66 29.3741 815.66 28.8153C815.66 28.2566 815.762 27.7642 815.965 27.3381C816.171 26.9096 816.458 26.5758 816.825 26.3366C817.194 26.0952 817.625 25.9744 818.117 25.9744C818.401 25.9744 818.682 26.0218 818.959 26.1165C819.236 26.2112 819.488 26.3651 819.715 26.5781C819.942 26.7888 820.124 27.0682 820.259 27.4162C820.393 27.7642 820.461 28.1927 820.461 28.7017V29.0568H816.256V28.3324H819.609C819.609 28.0246 819.547 27.75 819.424 27.5085C819.303 27.267 819.13 27.0765 818.906 26.9368C818.683 26.7971 818.42 26.7273 818.117 26.7273C817.783 26.7273 817.495 26.8101 817.251 26.9759C817.009 27.1392 816.823 27.3523 816.693 27.6151C816.563 27.8778 816.498 28.1596 816.498 28.4602V28.9432C816.498 29.3551 816.569 29.7043 816.711 29.9908C816.855 30.2749 817.055 30.4915 817.311 30.6406C817.567 30.7874 817.864 30.8608 818.202 30.8608C818.423 30.8608 818.621 30.83 818.799 30.7685C818.979 30.7045 819.134 30.6098 819.264 30.4844C819.394 30.3565 819.495 30.1979 819.566 30.0085L820.376 30.2358C820.29 30.5104 820.147 30.7519 819.946 30.9602C819.745 31.1662 819.496 31.3272 819.2 31.4432C818.904 31.5568 818.572 31.6136 818.202 31.6136ZM823.795 31.6136C823.341 31.6136 822.94 31.4988 822.592 31.2692C822.244 31.0372 821.971 30.7105 821.775 30.2891C821.578 29.8653 821.48 29.3646 821.48 28.7869C821.48 28.214 821.578 27.7169 821.775 27.2955C821.971 26.8741 822.245 26.5485 822.595 26.3189C822.946 26.0893 823.35 25.9744 823.81 25.9744C824.165 25.9744 824.445 26.0336 824.651 26.152C824.86 26.268 825.018 26.4006 825.127 26.5497C825.238 26.6965 825.325 26.8172 825.386 26.9119H825.457V24.2273H826.295V31.5H825.486V30.6619H825.386C825.325 30.7614 825.237 30.8868 825.124 31.0384C825.01 31.1875 824.848 31.3213 824.637 31.4396C824.426 31.5556 824.146 31.6136 823.795 31.6136ZM823.909 30.8608C824.245 30.8608 824.529 30.7732 824.761 30.598C824.993 30.4205 825.17 30.1754 825.29 29.8629C825.411 29.5481 825.472 29.1847 825.472 28.7727C825.472 28.3655 825.412 28.0092 825.294 27.7038C825.176 27.3961 825 27.157 824.768 26.9865C824.536 26.8137 824.25 26.7273 823.909 26.7273C823.554 26.7273 823.258 26.8184 823.021 27.0007C822.787 27.1806 822.611 27.4257 822.492 27.7358C822.376 28.0436 822.318 28.3892 822.318 28.7727C822.318 29.161 822.377 29.5137 822.496 29.831C822.616 30.1458 822.794 30.3968 823.028 30.5838C823.265 30.7685 823.559 30.8608 823.909 30.8608Z" fill="var(--colors-neutral-neutral-700)"/>
<path d="M836.2 25.5L840 21.7L843.8 25.5H836.2Z" fill="var(--colors-neutral-neutral-800)"/>
<path d="M840 34.3077L836.192 30.5H843.808L840 34.3077Z" fill="var(--colors-neutral-neutral-800)"/>
<path d="M965.733 26.5H964.852C964.8 26.2467 964.709 26.0241 964.579 25.8324C964.451 25.6406 964.295 25.4796 964.11 25.3494C963.928 25.2169 963.725 25.1174 963.503 25.0511C963.28 24.9848 963.048 24.9517 962.807 24.9517C962.366 24.9517 961.968 25.063 961.61 25.2855C961.255 25.508 960.972 25.8359 960.761 26.2692C960.553 26.7024 960.449 27.2339 960.449 27.8636C960.449 28.4934 960.553 29.0249 960.761 29.4581C960.972 29.8913 961.255 30.2192 961.61 30.4418C961.968 30.6643 962.366 30.7756 962.807 30.7756C963.048 30.7756 963.28 30.7424 963.503 30.6761C963.725 30.6098 963.928 30.5116 964.11 30.3814C964.295 30.2488 964.451 30.0866 964.579 29.8949C964.709 29.7008 964.8 29.4782 964.852 29.2273H965.733C965.667 29.599 965.546 29.9316 965.371 30.2251C965.196 30.5187 964.978 30.7685 964.717 30.9744C964.457 31.178 964.165 31.3331 963.84 31.4396C963.518 31.5462 963.174 31.5994 962.807 31.5994C962.187 31.5994 961.635 31.4479 961.152 31.1449C960.669 30.8419 960.289 30.411 960.012 29.8523C959.735 29.2936 959.597 28.6307 959.597 27.8636C959.597 27.0966 959.735 26.4337 960.012 25.875C960.289 25.3163 960.669 24.8854 961.152 24.5824C961.635 24.2794 962.187 24.1278 962.807 24.1278C963.174 24.1278 963.518 24.1811 963.84 24.2876C964.165 24.3942 964.457 24.5504 964.717 24.7564C964.978 24.96 965.196 25.2086 965.371 25.5021C965.546 25.7933 965.667 26.1259 965.733 26.5ZM967.042 31.5V26.0455H967.852V26.8693H967.909C968.008 26.5994 968.188 26.3804 968.449 26.2124C968.709 26.0443 969.003 25.9602 969.329 25.9602C969.391 25.9602 969.468 25.9614 969.56 25.9638C969.653 25.9661 969.722 25.9697 969.77 25.9744V26.8267C969.741 26.8196 969.676 26.8089 969.574 26.7947C969.475 26.7782 969.37 26.7699 969.258 26.7699C968.993 26.7699 968.756 26.8255 968.548 26.9368C968.342 27.0457 968.179 27.1972 968.058 27.3913C967.94 27.5831 967.881 27.8021 967.881 28.0483V31.5H967.042ZM972.884 31.6136C972.358 31.6136 971.905 31.4976 971.524 31.2656C971.145 31.0312 970.853 30.7045 970.647 30.2855C970.443 29.8641 970.341 29.3741 970.341 28.8153C970.341 28.2566 970.443 27.7642 970.647 27.3381C970.853 26.9096 971.139 26.5758 971.506 26.3366C971.876 26.0952 972.306 25.9744 972.799 25.9744C973.083 25.9744 973.363 26.0218 973.64 26.1165C973.917 26.2112 974.17 26.3651 974.397 26.5781C974.624 26.7888 974.805 27.0682 974.94 27.4162C975.075 27.7642 975.143 28.1927 975.143 28.7017V29.0568H970.938V28.3324H974.29C974.29 28.0246 974.229 27.75 974.106 27.5085C973.985 27.267 973.812 27.0765 973.587 26.9368C973.365 26.7971 973.102 26.7273 972.799 26.7273C972.465 26.7273 972.176 26.8101 971.932 26.9759C971.691 27.1392 971.505 27.3523 971.375 27.6151C971.245 27.8778 971.18 28.1596 971.18 28.4602V28.9432C971.18 29.3551 971.251 29.7043 971.393 29.9908C971.537 30.2749 971.737 30.4915 971.993 30.6406C972.248 30.7874 972.546 30.8608 972.884 30.8608C973.104 30.8608 973.303 30.83 973.481 30.7685C973.661 30.7045 973.816 30.6098 973.946 30.4844C974.076 30.3565 974.177 30.1979 974.248 30.0085L975.057 30.2358C974.972 30.5104 974.829 30.7519 974.628 30.9602C974.426 31.1662 974.178 31.3272 973.882 31.4432C973.586 31.5568 973.253 31.6136 972.884 31.6136ZM978.023 31.6278C977.677 31.6278 977.363 31.5627 977.081 31.4325C976.8 31.3 976.576 31.1094 976.41 30.8608C976.245 30.6098 976.162 30.3068 976.162 29.9517C976.162 29.6392 976.223 29.3859 976.346 29.1918C976.47 28.9953 976.634 28.8414 976.84 28.7301C977.046 28.6188 977.273 28.536 977.522 28.4815C977.773 28.4247 978.025 28.3797 978.278 28.3466C978.61 28.304 978.878 28.272 979.084 28.2507C979.293 28.227 979.444 28.188 979.539 28.1335C979.636 28.0791 979.684 27.9844 979.684 27.8494V27.821C979.684 27.4706 979.589 27.1984 979.397 27.0043C979.207 26.8101 978.92 26.7131 978.534 26.7131C978.134 26.7131 977.82 26.8007 977.593 26.9759C977.366 27.151 977.206 27.3381 977.113 27.5369L976.318 27.2528C976.46 26.9214 976.649 26.6634 976.886 26.4787C977.125 26.2917 977.386 26.1615 977.667 26.0881C977.952 26.0123 978.231 25.9744 978.506 25.9744C978.681 25.9744 978.882 25.9957 979.109 26.0384C979.339 26.0786 979.56 26.1626 979.773 26.2905C979.989 26.4183 980.167 26.6113 980.309 26.8693C980.452 27.1274 980.523 27.473 980.523 27.9062V31.5H979.684V30.7614H979.642C979.585 30.8797 979.49 31.0064 979.358 31.1413C979.225 31.2763 979.049 31.3911 978.829 31.4858C978.608 31.5805 978.34 31.6278 978.023 31.6278ZM978.15 30.875C978.482 30.875 978.761 30.8099 978.988 30.6797C979.218 30.5495 979.391 30.3814 979.507 30.1754C979.625 29.9695 979.684 29.7528 979.684 29.5256V28.7585C979.649 28.8011 979.571 28.8402 979.45 28.8757C979.332 28.9089 979.194 28.9384 979.038 28.9645C978.884 28.9882 978.734 29.0095 978.587 29.0284C978.443 29.045 978.326 29.0592 978.236 29.071C978.018 29.0994 977.814 29.1456 977.625 29.2095C977.438 29.2711 977.286 29.3646 977.17 29.4901C977.057 29.6132 977 29.7812 977 29.9943C977 30.2855 977.108 30.5057 977.323 30.6548C977.541 30.8016 977.817 30.875 978.15 30.875ZM984.424 26.0455V26.7557H981.598V26.0455H984.424ZM982.422 24.7386H983.26V29.9375C983.26 30.1742 983.294 30.3518 983.363 30.4702C983.434 30.5862 983.524 30.6643 983.632 30.7045C983.744 30.7424 983.861 30.7614 983.984 30.7614C984.076 30.7614 984.152 30.7566 984.211 30.7472C984.27 30.7353 984.318 30.7259 984.353 30.7188L984.524 31.4716C984.467 31.4929 984.388 31.5142 984.286 31.5355C984.184 31.5592 984.055 31.571 983.899 31.571C983.662 31.571 983.43 31.5201 983.203 31.4183C982.978 31.3165 982.791 31.1615 982.642 30.9531C982.495 30.7448 982.422 30.482 982.422 30.1648V24.7386ZM987.913 31.6136C987.388 31.6136 986.934 31.4976 986.553 31.2656C986.174 31.0312 985.882 30.7045 985.676 30.2855C985.473 29.8641 985.371 29.3741 985.371 28.8153C985.371 28.2566 985.473 27.7642 985.676 27.3381C985.882 26.9096 986.169 26.5758 986.536 26.3366C986.905 26.0952 987.336 25.9744 987.828 25.9744C988.112 25.9744 988.393 26.0218 988.67 26.1165C988.947 26.2112 989.199 26.3651 989.426 26.5781C989.653 26.7888 989.835 27.0682 989.969 27.4162C990.104 27.7642 990.172 28.1927 990.172 28.7017V29.0568H985.967V28.3324H989.32C989.32 28.0246 989.258 27.75 989.135 27.5085C989.014 27.267 988.841 27.0765 988.616 26.9368C988.394 26.7971 988.131 26.7273 987.828 26.7273C987.494 26.7273 987.205 26.8101 986.962 26.9759C986.72 27.1392 986.534 27.3523 986.404 27.6151C986.274 27.8778 986.209 28.1596 986.209 28.4602V28.9432C986.209 29.3551 986.28 29.7043 986.422 29.9908C986.566 30.2749 986.766 30.4915 987.022 30.6406C987.278 30.7874 987.575 30.8608 987.913 30.8608C988.134 30.8608 988.332 30.83 988.51 30.7685C988.69 30.7045 988.845 30.6098 988.975 30.4844C989.105 30.3565 989.206 30.1979 989.277 30.0085L990.087 30.2358C990.001 30.5104 989.858 30.7519 989.657 30.9602C989.456 31.1662 989.207 31.3272 988.911 31.4432C988.615 31.5568 988.283 31.6136 987.913 31.6136ZM993.506 31.6136C993.052 31.6136 992.651 31.4988 992.303 31.2692C991.955 31.0372 991.682 30.7105 991.486 30.2891C991.289 29.8653 991.191 29.3646 991.191 28.7869C991.191 28.214 991.289 27.7169 991.486 27.2955C991.682 26.8741 991.956 26.5485 992.306 26.3189C992.656 26.0893 993.061 25.9744 993.521 25.9744C993.876 25.9744 994.156 26.0336 994.362 26.152C994.571 26.268 994.729 26.4006 994.838 26.5497C994.949 26.6965 995.036 26.8172 995.097 26.9119H995.168V24.2273H996.006V31.5H995.197V30.6619H995.097C995.036 30.7614 994.948 30.8868 994.835 31.0384C994.721 31.1875 994.559 31.3213 994.348 31.4396C994.137 31.5556 993.857 31.6136 993.506 31.6136ZM993.62 30.8608C993.956 30.8608 994.24 30.7732 994.472 30.598C994.704 30.4205 994.881 30.1754 995.001 29.8629C995.122 29.5481 995.183 29.1847 995.183 28.7727C995.183 28.3655 995.123 28.0092 995.005 27.7038C994.887 27.3961 994.711 27.157 994.479 26.9865C994.247 26.8137 993.961 26.7273 993.62 26.7273C993.265 26.7273 992.969 26.8184 992.732 27.0007C992.498 27.1806 992.321 27.4257 992.203 27.7358C992.087 28.0436 992.029 28.3892 992.029 28.7727C992.029 29.161 992.088 29.5137 992.207 29.831C992.327 30.1458 992.505 30.3968 992.739 30.5838C992.976 30.7685 993.27 30.8608 993.62 30.8608Z" fill="var(--colors-neutral-neutral-700)"/>
<path d="M1005.2 25.5L1009 21.7L1012.8 25.5H1005.2Z" fill="var(--colors-neutral-neutral-800)"/>
<path d="M1009 34.3077L1005.19 30.5H1012.81L1009 34.3077Z" fill="var(--colors-neutral-neutral-800)"/>
<path d="M1220.86 26.0455C1220.82 25.6856 1220.64 25.4062 1220.34 25.2074C1220.04 25.0085 1219.66 24.9091 1219.22 24.9091C1218.9 24.9091 1218.62 24.9612 1218.38 25.0653C1218.14 25.1695 1217.95 25.3127 1217.82 25.495C1217.69 25.6773 1217.62 25.8845 1217.62 26.1165C1217.62 26.3106 1217.67 26.4775 1217.76 26.6172C1217.85 26.7545 1217.97 26.8693 1218.12 26.9616C1218.27 27.0516 1218.42 27.1262 1218.58 27.1854C1218.74 27.2422 1218.89 27.2884 1219.03 27.3239L1219.76 27.5227C1219.95 27.5724 1220.16 27.6411 1220.4 27.7287C1220.63 27.8163 1220.85 27.9358 1221.07 28.0874C1221.28 28.2365 1221.46 28.4283 1221.6 28.6626C1221.74 28.897 1221.81 29.1847 1221.81 29.5256C1221.81 29.9186 1221.71 30.2737 1221.5 30.5909C1221.3 30.9081 1221 31.1603 1220.61 31.3473C1220.22 31.5343 1219.74 31.6278 1219.18 31.6278C1218.66 31.6278 1218.21 31.5438 1217.83 31.3757C1217.45 31.2076 1217.15 30.9732 1216.93 30.6726C1216.72 30.3719 1216.6 30.0227 1216.57 29.625H1217.48C1217.5 29.8996 1217.59 30.1269 1217.75 30.3068C1217.92 30.4844 1218.12 30.617 1218.37 30.7045C1218.62 30.7898 1218.89 30.8324 1219.18 30.8324C1219.52 30.8324 1219.82 30.7779 1220.09 30.669C1220.35 30.5578 1220.57 30.4039 1220.72 30.2074C1220.88 30.0085 1220.96 29.7765 1220.96 29.5114C1220.96 29.2699 1220.89 29.0734 1220.75 28.9219C1220.62 28.7704 1220.44 28.6473 1220.22 28.5526C1220 28.4579 1219.76 28.375 1219.51 28.304L1218.61 28.0483C1218.05 27.8849 1217.6 27.6518 1217.26 27.3487C1216.93 27.0457 1216.77 26.6491 1216.77 26.1591C1216.77 25.7519 1216.88 25.3968 1217.1 25.0938C1217.32 24.7884 1217.62 24.5516 1217.99 24.3835C1218.37 24.2131 1218.79 24.1278 1219.25 24.1278C1219.72 24.1278 1220.14 24.2119 1220.5 24.38C1220.87 24.5457 1221.16 24.773 1221.37 25.0618C1221.58 25.3506 1221.7 25.6785 1221.71 26.0455H1220.86ZM1225.52 26.0455V26.7557H1222.69V26.0455H1225.52ZM1223.51 24.7386H1224.35V29.9375C1224.35 30.1742 1224.39 30.3518 1224.45 30.4702C1224.53 30.5862 1224.62 30.6643 1224.72 30.7045C1224.84 30.7424 1224.95 30.7614 1225.08 30.7614C1225.17 30.7614 1225.24 30.7566 1225.3 30.7472C1225.36 30.7353 1225.41 30.7259 1225.45 30.7188L1225.62 31.4716C1225.56 31.4929 1225.48 31.5142 1225.38 31.5355C1225.28 31.5592 1225.15 31.571 1224.99 31.571C1224.75 31.571 1224.52 31.5201 1224.29 31.4183C1224.07 31.3165 1223.88 31.1615 1223.73 30.9531C1223.59 30.7448 1223.51 30.482 1223.51 30.1648V24.7386ZM1228.38 31.6278C1228.04 31.6278 1227.72 31.5627 1227.44 31.4325C1227.16 31.3 1226.94 31.1094 1226.77 30.8608C1226.6 30.6098 1226.52 30.3068 1226.52 29.9517C1226.52 29.6392 1226.58 29.3859 1226.71 29.1918C1226.83 28.9953 1226.99 28.8414 1227.2 28.7301C1227.41 28.6188 1227.63 28.536 1227.88 28.4815C1228.13 28.4247 1228.38 28.3797 1228.64 28.3466C1228.97 28.304 1229.24 28.272 1229.44 28.2507C1229.65 28.227 1229.8 28.188 1229.9 28.1335C1230 28.0791 1230.04 27.9844 1230.04 27.8494V27.821C1230.04 27.4706 1229.95 27.1984 1229.76 27.0043C1229.57 26.8101 1229.28 26.7131 1228.89 26.7131C1228.49 26.7131 1228.18 26.8007 1227.95 26.9759C1227.72 27.151 1227.57 27.3381 1227.47 27.5369L1226.68 27.2528C1226.82 26.9214 1227.01 26.6634 1227.25 26.4787C1227.48 26.2917 1227.75 26.1615 1228.03 26.0881C1228.31 26.0123 1228.59 25.9744 1228.86 25.9744C1229.04 25.9744 1229.24 25.9957 1229.47 26.0384C1229.7 26.0786 1229.92 26.1626 1230.13 26.2905C1230.35 26.4183 1230.53 26.6113 1230.67 26.8693C1230.81 27.1274 1230.88 27.473 1230.88 27.9062V31.5H1230.04V30.7614H1230C1229.94 30.8797 1229.85 31.0064 1229.72 31.1413C1229.58 31.2763 1229.41 31.3911 1229.19 31.4858C1228.97 31.5805 1228.7 31.6278 1228.38 31.6278ZM1228.51 30.875C1228.84 30.875 1229.12 30.8099 1229.35 30.6797C1229.58 30.5495 1229.75 30.3814 1229.87 30.1754C1229.98 29.9695 1230.04 29.7528 1230.04 29.5256V28.7585C1230.01 28.8011 1229.93 28.8402 1229.81 28.8757C1229.69 28.9089 1229.55 28.9384 1229.4 28.9645C1229.24 28.9882 1229.09 29.0095 1228.95 29.0284C1228.8 29.045 1228.68 29.0592 1228.59 29.071C1228.38 29.0994 1228.17 29.1456 1227.98 29.2095C1227.8 29.2711 1227.65 29.3646 1227.53 29.4901C1227.42 29.6132 1227.36 29.7812 1227.36 29.9943C1227.36 30.2855 1227.47 30.5057 1227.68 30.6548C1227.9 30.8016 1228.18 30.875 1228.51 30.875ZM1234.78 26.0455V26.7557H1231.96V26.0455H1234.78ZM1232.78 24.7386H1233.62V29.9375C1233.62 30.1742 1233.65 30.3518 1233.72 30.4702C1233.79 30.5862 1233.88 30.6643 1233.99 30.7045C1234.1 30.7424 1234.22 30.7614 1234.34 30.7614C1234.44 30.7614 1234.51 30.7566 1234.57 30.7472C1234.63 30.7353 1234.68 30.7259 1234.71 30.7188L1234.88 31.4716C1234.83 31.4929 1234.75 31.5142 1234.65 31.5355C1234.54 31.5592 1234.41 31.571 1234.26 31.571C1234.02 31.571 1233.79 31.5201 1233.56 31.4183C1233.34 31.3165 1233.15 31.1615 1233 30.9531C1232.85 30.7448 1232.78 30.482 1232.78 30.1648V24.7386ZM1239.48 29.2699V26.0455H1240.32V31.5H1239.48V30.5767H1239.43C1239.3 30.8537 1239.1 31.0893 1238.83 31.2834C1238.56 31.4751 1238.22 31.571 1237.81 31.571C1237.46 31.571 1237.16 31.4964 1236.9 31.3473C1236.63 31.1958 1236.42 30.9685 1236.27 30.6655C1236.12 30.3601 1236.04 29.9754 1236.04 29.5114V26.0455H1236.88V29.4545C1236.88 29.8523 1236.99 30.1695 1237.22 30.4062C1237.44 30.643 1237.73 30.7614 1238.08 30.7614C1238.28 30.7614 1238.5 30.7081 1238.71 30.6016C1238.93 30.495 1239.11 30.3317 1239.26 30.1115C1239.41 29.8913 1239.48 29.6108 1239.48 29.2699ZM1245.72 27.267L1244.97 27.4801C1244.92 27.3546 1244.85 27.2327 1244.76 27.1143C1244.67 26.9936 1244.54 26.8942 1244.39 26.8161C1244.23 26.7379 1244.03 26.6989 1243.79 26.6989C1243.45 26.6989 1243.17 26.7758 1242.95 26.9297C1242.73 27.0812 1242.62 27.2741 1242.62 27.5085C1242.62 27.7169 1242.7 27.8814 1242.85 28.0021C1243 28.1229 1243.24 28.2235 1243.56 28.304L1244.37 28.5028C1244.86 28.6212 1245.22 28.8023 1245.46 29.0462C1245.7 29.2876 1245.82 29.599 1245.82 29.9801C1245.82 30.2926 1245.73 30.572 1245.55 30.8182C1245.37 31.0644 1245.12 31.2585 1244.8 31.4006C1244.48 31.5426 1244.11 31.6136 1243.69 31.6136C1243.13 31.6136 1242.67 31.4929 1242.31 31.2514C1241.94 31.0099 1241.71 30.6572 1241.61 30.1932L1242.41 29.9943C1242.48 30.2879 1242.63 30.508 1242.84 30.6548C1243.05 30.8016 1243.33 30.875 1243.67 30.875C1244.06 30.875 1244.37 30.7921 1244.6 30.6264C1244.84 30.4583 1244.95 30.2571 1244.95 30.0227C1244.95 29.8333 1244.89 29.6747 1244.75 29.5469C1244.62 29.4167 1244.42 29.3196 1244.14 29.2557L1243.23 29.0426C1242.73 28.9242 1242.37 28.7408 1242.13 28.4922C1241.9 28.2412 1241.78 27.9276 1241.78 27.5511C1241.78 27.2434 1241.87 26.9711 1242.04 26.7344C1242.22 26.4976 1242.46 26.3118 1242.76 26.1768C1243.06 26.0419 1243.4 25.9744 1243.79 25.9744C1244.33 25.9744 1244.75 26.0928 1245.06 26.3295C1245.37 26.5663 1245.59 26.8788 1245.72 27.267Z" fill="var(--colors-neutral-neutral-700)"/>
<path d="M1255.2 25.5L1259 21.7L1262.8 25.5H1255.2Z" fill="var(--colors-neutral-neutral-800)"/>
<path d="M1259 34.3077L1255.19 30.5H1262.81L1259 34.3077Z" fill="var(--colors-neutral-neutral-800)"/>
</svg>
