<svg width="304" height="96" viewBox="0 0 304 96" fill="none" xmlns="http://www.w3.org/2000/svg">
<path d="M17.179 12.2273L19.3381 18.3494H19.4233L21.5824 12.2273H22.5057L19.8352 19.5H18.9261L16.2557 12.2273H17.179ZM25.304 19.6136C24.7784 19.6136 24.325 19.4976 23.9439 19.2656C23.5651 19.0312 23.2727 18.7045 23.0668 18.2855C22.8632 17.8641 22.7614 17.3741 22.7614 16.8153C22.7614 16.2566 22.8632 15.7642 23.0668 15.3381C23.2727 14.9096 23.5592 14.5758 23.9261 14.3366C24.2955 14.0952 24.7263 13.9744 25.2188 13.9744C25.5028 13.9744 25.7834 14.0218 26.0604 14.1165C26.3374 14.2112 26.5895 14.3651 26.8168 14.5781C27.044 14.7888 27.2251 15.0682 27.3601 15.4162C27.495 15.7642 27.5625 16.1927 27.5625 16.7017V17.0568H23.358V16.3324H26.7102C26.7102 16.0246 26.6487 15.75 26.5256 15.5085C26.4048 15.267 26.232 15.0765 26.0071 14.9368C25.7846 14.7971 25.5218 14.7273 25.2188 14.7273C24.8849 14.7273 24.5961 14.8101 24.3523 14.9759C24.1108 15.1392 23.925 15.3523 23.7947 15.6151C23.6645 15.8778 23.5994 16.1596 23.5994 16.4602V16.9432C23.5994 17.3551 23.6705 17.7043 23.8125 17.9908C23.9569 18.2749 24.157 18.4915 24.4126 18.6406C24.6683 18.7874 24.9654 18.8608 25.304 18.8608C25.5241 18.8608 25.723 18.83 25.9006 18.7685C26.0805 18.7045 26.2356 18.6098 26.3658 18.4844C26.496 18.3565 26.5966 18.1979 26.6676 18.0085L27.4773 18.2358C27.392 18.5104 27.2488 18.7519 27.0476 18.9602C26.8464 19.1662 26.5978 19.3272 26.3018 19.4432C26.0059 19.5568 25.6733 19.6136 25.304 19.6136ZM29.6754 16.2188V19.5H28.8374V12.2273H29.6754V14.8977H29.7464C29.8743 14.616 30.0661 14.3923 30.3217 14.2266C30.5798 14.0585 30.9231 13.9744 31.3516 13.9744C31.7232 13.9744 32.0488 14.049 32.3281 14.1982C32.6075 14.3449 32.8241 14.571 32.978 14.8764C33.1342 15.1795 33.2124 15.5653 33.2124 16.0341V19.5H32.3743V16.0909C32.3743 15.6577 32.2618 15.3227 32.0369 15.0859C31.8144 14.8468 31.5054 14.7273 31.1101 14.7273C30.8355 14.7273 30.5893 14.7853 30.3714 14.9013C30.156 15.0173 29.9856 15.1866 29.8601 15.4091C29.737 15.6316 29.6754 15.9015 29.6754 16.2188ZM34.7456 19.5V14.0455H35.5836V19.5H34.7456ZM35.1717 13.1364C35.0083 13.1364 34.8675 13.0807 34.7491 12.9695C34.6331 12.8582 34.5751 12.7244 34.5751 12.5682C34.5751 12.4119 34.6331 12.2782 34.7491 12.1669C34.8675 12.0556 35.0083 12 35.1717 12C35.335 12 35.4747 12.0556 35.5907 12.1669C35.7091 12.2782 35.7683 12.4119 35.7683 12.5682C35.7683 12.7244 35.7091 12.8582 35.5907 12.9695C35.4747 13.0807 35.335 13.1364 35.1717 13.1364ZM39.3345 19.6136C38.8232 19.6136 38.3828 19.4929 38.0135 19.2514C37.6442 19.0099 37.3601 18.6773 37.1612 18.2536C36.9624 17.8298 36.8629 17.3456 36.8629 16.8011C36.8629 16.2472 36.9647 15.7583 37.1683 15.3345C37.3743 14.9084 37.6607 14.5758 38.0277 14.3366C38.397 14.0952 38.8279 13.9744 39.3203 13.9744C39.7038 13.9744 40.0495 14.0455 40.3572 14.1875C40.665 14.3295 40.9171 14.5284 41.1136 14.7841C41.3101 15.0398 41.4321 15.3381 41.4794 15.679H40.6413C40.5774 15.4304 40.4354 15.2102 40.2152 15.0185C39.9974 14.8243 39.7038 14.7273 39.3345 14.7273C39.0078 14.7273 38.7214 14.8125 38.4751 14.983C38.2313 15.151 38.0407 15.389 37.9034 15.6967C37.7685 16.0021 37.701 16.3608 37.701 16.7727C37.701 17.1941 37.7673 17.5611 37.8999 17.8736C38.0348 18.1861 38.2242 18.4287 38.468 18.6016C38.7143 18.7744 39.0031 18.8608 39.3345 18.8608C39.5523 18.8608 39.75 18.8229 39.9276 18.7472C40.1051 18.6714 40.2554 18.5625 40.3786 18.4205C40.5017 18.2784 40.5893 18.108 40.6413 17.9091H41.4794C41.4321 18.2311 41.3149 18.5211 41.1278 18.7791C40.9432 19.0348 40.6982 19.2384 40.3928 19.3899C40.0897 19.5391 39.737 19.6136 39.3345 19.6136ZM43.5426 12.2273V19.5H42.7045V12.2273H43.5426ZM47.3645 19.6136C46.839 19.6136 46.3856 19.4976 46.0044 19.2656C45.6257 19.0312 45.3333 18.7045 45.1273 18.2855C44.9237 17.8641 44.8219 17.3741 44.8219 16.8153C44.8219 16.2566 44.9237 15.7642 45.1273 15.3381C45.3333 14.9096 45.6197 14.5758 45.9867 14.3366C46.356 14.0952 46.7869 13.9744 47.2793 13.9744C47.5634 13.9744 47.8439 14.0218 48.1209 14.1165C48.3979 14.2112 48.65 14.3651 48.8773 14.5781C49.1046 14.7888 49.2857 15.0682 49.4206 15.4162C49.5556 15.7642 49.623 16.1927 49.623 16.7017V17.0568H45.4185V16.3324H48.7708C48.7708 16.0246 48.7092 15.75 48.5861 15.5085C48.4654 15.267 48.2926 15.0765 48.0676 14.9368C47.8451 14.7971 47.5823 14.7273 47.2793 14.7273C46.9455 14.7273 46.6567 14.8101 46.4128 14.9759C46.1713 15.1392 45.9855 15.3523 45.8553 15.6151C45.7251 15.8778 45.66 16.1596 45.66 16.4602V16.9432C45.66 17.3551 45.731 17.7043 45.873 17.9908C46.0175 18.2749 46.2175 18.4915 46.4732 18.6406C46.7289 18.7874 47.026 18.8608 47.3645 18.8608C47.5847 18.8608 47.7836 18.83 47.9611 18.7685C48.141 18.7045 48.2961 18.6098 48.4263 18.4844C48.5565 18.3565 48.6571 18.1979 48.7282 18.0085L49.5378 18.2358C49.4526 18.5104 49.3094 18.7519 49.1081 18.9602C48.9069 19.1662 48.6583 19.3272 48.3624 19.4432C48.0665 19.5568 47.7338 19.6136 47.3645 19.6136Z" fill="#222222"/>
<path d="M145.179 19.5H144.256L146.926 12.2273H147.835L150.506 19.5H149.582L147.409 13.3778H147.352L145.179 19.5ZM145.52 16.6591H149.241V17.4403H145.52V16.6591ZM152.363 12.2273V19.5H151.525V12.2273H152.363ZM154.736 12.2273V19.5H153.898V12.2273H154.736Z" fill="#222222"/>
<path d="M18.2017 51.5L16.2131 44.2273H17.108L18.6278 50.1506H18.6989L20.2472 44.2273H21.2415L22.7898 50.1506H22.8608L24.3807 44.2273H25.2756L23.2869 51.5H22.3778L20.7727 45.7045H20.7159L19.1108 51.5H18.2017ZM26.2592 51.5V46.0455H27.0973V51.5H26.2592ZM26.6854 45.1364C26.522 45.1364 26.3812 45.0807 26.2628 44.9695C26.1468 44.8582 26.0888 44.7244 26.0888 44.5682C26.0888 44.4119 26.1468 44.2782 26.2628 44.1669C26.3812 44.0556 26.522 44 26.6854 44C26.8487 44 26.9884 44.0556 27.1044 44.1669C27.2228 44.2782 27.282 44.4119 27.282 44.5682C27.282 44.7244 27.2228 44.8582 27.1044 44.9695C26.9884 45.0807 26.8487 45.1364 26.6854 45.1364ZM30.6919 51.6136C30.2374 51.6136 29.8361 51.4988 29.4881 51.2692C29.1401 51.0372 28.8678 50.7105 28.6713 50.2891C28.4748 49.8653 28.3766 49.3646 28.3766 48.7869C28.3766 48.214 28.4748 47.7169 28.6713 47.2955C28.8678 46.8741 29.1413 46.5485 29.4917 46.3189C29.842 46.0893 30.2469 45.9744 30.7061 45.9744C31.0613 45.9744 31.3418 46.0336 31.5478 46.152C31.7561 46.268 31.9147 46.4006 32.0236 46.5497C32.1349 46.6965 32.2213 46.8172 32.2828 46.9119H32.3539V44.2273H33.1919V51.5H32.3823V50.6619H32.2828C32.2213 50.7614 32.1337 50.8868 32.0201 51.0384C31.9064 51.1875 31.7443 51.3213 31.5336 51.4396C31.3229 51.5556 31.0423 51.6136 30.6919 51.6136ZM30.8056 50.8608C31.1417 50.8608 31.4258 50.7732 31.6578 50.598C31.8899 50.4205 32.0662 50.1754 32.187 49.8629C32.3077 49.5481 32.3681 49.1847 32.3681 48.7727C32.3681 48.3655 32.3089 48.0092 32.1905 47.7038C32.0721 47.3961 31.897 47.157 31.665 46.9865C31.4329 46.8137 31.1465 46.7273 30.8056 46.7273C30.4505 46.7273 30.1545 46.8184 29.9178 47.0007C29.6834 47.1806 29.507 47.4257 29.3887 47.7358C29.2727 48.0436 29.2147 48.3892 29.2147 48.7727C29.2147 49.161 29.2739 49.5137 29.3922 49.831C29.513 50.1458 29.6905 50.3968 29.9249 50.5838C30.1616 50.7685 30.4552 50.8608 30.8056 50.8608ZM37.2154 46.0455V46.7557H34.3887V46.0455H37.2154ZM35.2125 44.7386H36.0506V49.9375C36.0506 50.1742 36.0849 50.3518 36.1536 50.4702C36.2246 50.5862 36.3146 50.6643 36.4235 50.7045C36.5347 50.7424 36.6519 50.7614 36.775 50.7614C36.8674 50.7614 36.9431 50.7566 37.0023 50.7472C37.0615 50.7353 37.1088 50.7259 37.1444 50.7188L37.3148 51.4716C37.258 51.4929 37.1787 51.5142 37.0769 51.5355C36.9751 51.5592 36.8461 51.571 36.6898 51.571C36.4531 51.571 36.2211 51.5201 35.9938 51.4183C35.7689 51.3165 35.5819 51.1615 35.4327 50.9531C35.2859 50.7448 35.2125 50.482 35.2125 50.1648V44.7386ZM39.4313 48.2188V51.5H38.5932V44.2273H39.4313V46.8977H39.5023C39.6301 46.616 39.8219 46.3923 40.0776 46.2266C40.3356 46.0585 40.6789 45.9744 41.1074 45.9744C41.4791 45.9744 41.8046 46.049 42.084 46.1982C42.3633 46.3449 42.58 46.571 42.7338 46.8764C42.8901 47.1795 42.9682 47.5653 42.9682 48.0341V51.5H42.1301V48.0909C42.1301 47.6577 42.0177 47.3227 41.7928 47.0859C41.5703 46.8468 41.2613 46.7273 40.8659 46.7273C40.5913 46.7273 40.3451 46.7853 40.1273 46.9013C39.9119 47.0173 39.7414 47.1866 39.6159 47.4091C39.4928 47.6316 39.4313 47.9015 39.4313 48.2188Z" fill="#222222"/>
<path d="M144.753 51.5V50.8608L147.153 48.233C147.435 47.9252 147.667 47.6577 147.849 47.4304C148.032 47.2008 148.167 46.9853 148.254 46.7841C148.344 46.5805 148.389 46.3674 148.389 46.1449C148.389 45.8892 148.328 45.6679 148.205 45.4808C148.084 45.2938 147.918 45.1494 147.707 45.0476C147.497 44.9458 147.26 44.8949 146.997 44.8949C146.718 44.8949 146.474 44.9529 146.266 45.0689C146.06 45.1825 145.9 45.3423 145.786 45.5483C145.675 45.7543 145.619 45.9957 145.619 46.2727H144.781C144.781 45.8466 144.879 45.4725 145.076 45.1506C145.272 44.8286 145.54 44.5777 145.879 44.3977C146.219 44.2178 146.602 44.1278 147.026 44.1278C147.452 44.1278 147.829 44.2178 148.158 44.3977C148.487 44.5777 148.746 44.8203 148.933 45.1257C149.12 45.4311 149.213 45.7708 149.213 46.1449C149.213 46.4124 149.165 46.674 149.067 46.9297C148.973 47.183 148.807 47.4659 148.57 47.7784C148.336 48.0885 148.01 48.4673 147.594 48.9148L145.96 50.6619V50.7188H149.341V51.5H144.753ZM153.18 51.5994C152.645 51.5994 152.189 51.4538 151.812 51.1626C151.436 50.8691 151.148 50.4441 150.95 49.8878C150.751 49.3291 150.651 48.6544 150.651 47.8636C150.651 47.0777 150.751 46.4065 150.95 45.8501C151.151 45.2914 151.44 44.8653 151.816 44.5717C152.195 44.2758 152.649 44.1278 153.18 44.1278C153.71 44.1278 154.163 44.2758 154.54 44.5717C154.919 44.8653 155.207 45.2914 155.406 45.8501C155.607 46.4065 155.708 47.0777 155.708 47.8636C155.708 48.6544 155.609 49.3291 155.41 49.8878C155.211 50.4441 154.923 50.8691 154.547 51.1626C154.17 51.4538 153.715 51.5994 153.18 51.5994ZM153.18 50.8182C153.71 50.8182 154.122 50.5625 154.415 50.0511C154.709 49.5398 154.856 48.8106 154.856 47.8636C154.856 47.2339 154.788 46.6977 154.653 46.255C154.521 45.8123 154.329 45.4749 154.078 45.2429C153.83 45.0109 153.53 44.8949 153.18 44.8949C152.654 44.8949 152.243 45.1541 151.947 45.6726C151.652 46.1887 151.504 46.919 151.504 47.8636C151.504 48.4934 151.57 49.0284 151.702 49.4688C151.835 49.9091 152.026 50.2441 152.274 50.4737C152.525 50.7034 152.827 50.8182 153.18 50.8182ZM159.43 51.5994C158.895 51.5994 158.439 51.4538 158.062 51.1626C157.686 50.8691 157.398 50.4441 157.2 49.8878C157.001 49.3291 156.901 48.6544 156.901 47.8636C156.901 47.0777 157.001 46.4065 157.2 45.8501C157.401 45.2914 157.69 44.8653 158.066 44.5717C158.445 44.2758 158.899 44.1278 159.43 44.1278C159.96 44.1278 160.413 44.2758 160.79 44.5717C161.169 44.8653 161.457 45.2914 161.656 45.8501C161.857 46.4065 161.958 47.0777 161.958 47.8636C161.958 48.6544 161.859 49.3291 161.66 49.8878C161.461 50.4441 161.173 50.8691 160.797 51.1626C160.42 51.4538 159.965 51.5994 159.43 51.5994ZM159.43 50.8182C159.96 50.8182 160.372 50.5625 160.665 50.0511C160.959 49.5398 161.106 48.8106 161.106 47.8636C161.106 47.2339 161.038 46.6977 160.903 46.255C160.771 45.8123 160.579 45.4749 160.328 45.2429C160.08 45.0109 159.78 44.8949 159.43 44.8949C158.904 44.8949 158.493 45.1541 158.197 45.6726C157.902 46.1887 157.754 46.919 157.754 47.8636C157.754 48.4934 157.82 49.0284 157.952 49.4688C158.085 49.9091 158.276 50.2441 158.524 50.4737C158.775 50.7034 159.077 50.8182 159.43 50.8182ZM165.68 51.5994C165.145 51.5994 164.689 51.4538 164.312 51.1626C163.936 50.8691 163.648 50.4441 163.45 49.8878C163.251 49.3291 163.151 48.6544 163.151 47.8636C163.151 47.0777 163.251 46.4065 163.45 45.8501C163.651 45.2914 163.94 44.8653 164.316 44.5717C164.695 44.2758 165.149 44.1278 165.68 44.1278C166.21 44.1278 166.663 44.2758 167.04 44.5717C167.419 44.8653 167.707 45.2914 167.906 45.8501C168.107 46.4065 168.208 47.0777 168.208 47.8636C168.208 48.6544 168.109 49.3291 167.91 49.8878C167.711 50.4441 167.423 50.8691 167.047 51.1626C166.67 51.4538 166.215 51.5994 165.68 51.5994ZM165.68 50.8182C166.21 50.8182 166.622 50.5625 166.915 50.0511C167.209 49.5398 167.356 48.8106 167.356 47.8636C167.356 47.2339 167.288 46.6977 167.153 46.255C167.021 45.8123 166.829 45.4749 166.578 45.2429C166.33 45.0109 166.03 44.8949 165.68 44.8949C165.154 44.8949 164.743 45.1541 164.447 45.6726C164.152 46.1887 164.004 46.919 164.004 47.8636C164.004 48.4934 164.07 49.0284 164.202 49.4688C164.335 49.9091 164.526 50.2441 164.774 50.4737C165.025 50.7034 165.327 50.8182 165.68 50.8182ZM172.384 51.5V46.0455H173.194V46.8977H173.265C173.379 46.6065 173.562 46.3804 173.815 46.2195C174.069 46.0561 174.373 45.9744 174.728 45.9744C175.088 45.9744 175.387 46.0561 175.626 46.2195C175.868 46.3804 176.056 46.6065 176.191 46.8977H176.248C176.388 46.616 176.597 46.3923 176.876 46.2266C177.156 46.0585 177.491 45.9744 177.881 45.9744C178.369 45.9744 178.768 46.1271 179.078 46.4325C179.388 46.7356 179.543 47.2079 179.543 47.8494V51.5H178.705V47.8494C178.705 47.447 178.595 47.1593 178.375 46.9865C178.155 46.8137 177.896 46.7273 177.597 46.7273C177.214 46.7273 176.917 46.8433 176.706 47.0753C176.495 47.3049 176.39 47.5961 176.39 47.9489V51.5H175.538V47.7642C175.538 47.4541 175.437 47.2043 175.236 47.0149C175.035 46.8232 174.775 46.7273 174.458 46.7273C174.24 46.7273 174.037 46.7853 173.847 46.9013C173.66 47.0173 173.509 47.1783 173.393 47.3842C173.279 47.5878 173.222 47.8234 173.222 48.0909V51.5H172.384ZM181.076 51.5V46.0455H181.885V46.8977H181.956C182.07 46.6065 182.253 46.3804 182.507 46.2195C182.76 46.0561 183.064 45.9744 183.419 45.9744C183.779 45.9744 184.079 46.0561 184.318 46.2195C184.559 46.3804 184.748 46.6065 184.882 46.8977H184.939C185.079 46.616 185.288 46.3923 185.568 46.2266C185.847 46.0585 186.182 45.9744 186.573 45.9744C187.06 45.9744 187.459 46.1271 187.77 46.4325C188.08 46.7356 188.235 47.2079 188.235 47.8494V51.5H187.397V47.8494C187.397 47.447 187.287 47.1593 187.066 46.9865C186.846 46.8137 186.587 46.7273 186.289 46.7273C185.905 46.7273 185.608 46.8433 185.397 47.0753C185.187 47.3049 185.081 47.5961 185.081 47.9489V51.5H184.229V47.7642C184.229 47.4541 184.128 47.2043 183.927 47.0149C183.726 46.8232 183.467 46.7273 183.15 46.7273C182.932 46.7273 182.728 46.7853 182.539 46.9013C182.352 47.0173 182.2 47.1783 182.084 47.3842C181.971 47.5878 181.914 47.8234 181.914 48.0909V51.5H181.076Z" fill="#222222"/>
<path d="M16.8807 83.5V76.2273H17.7614V82.7188H21.142V83.5H16.8807ZM23.9972 83.6278C23.6515 83.6278 23.3378 83.5627 23.0561 83.4325C22.7744 83.3 22.5507 83.1094 22.3849 82.8608C22.2192 82.6098 22.1364 82.3068 22.1364 81.9517C22.1364 81.6392 22.1979 81.3859 22.321 81.1918C22.4441 80.9953 22.6087 80.8414 22.8146 80.7301C23.0206 80.6188 23.2479 80.536 23.4964 80.4815C23.7474 80.4247 23.9995 80.3797 24.2528 80.3466C24.5843 80.304 24.853 80.272 25.0589 80.2507C25.2673 80.227 25.4188 80.188 25.5135 80.1335C25.6106 80.0791 25.6591 79.9844 25.6591 79.8494V79.821C25.6591 79.4706 25.5632 79.1984 25.3714 79.0043C25.1821 78.8101 24.8944 78.7131 24.5085 78.7131C24.1084 78.7131 23.7947 78.8007 23.5675 78.9759C23.3402 79.151 23.1804 79.3381 23.0881 79.5369L22.2926 79.2528C22.4347 78.9214 22.6241 78.6634 22.8608 78.4787C23.0999 78.2917 23.3603 78.1615 23.642 78.0881C23.9261 78.0123 24.2055 77.9744 24.4801 77.9744C24.6553 77.9744 24.8565 77.9957 25.0838 78.0384C25.3134 78.0786 25.5348 78.1626 25.7479 78.2905C25.9633 78.4183 26.142 78.6113 26.2841 78.8693C26.4261 79.1274 26.4972 79.473 26.4972 79.9062V83.5H25.6591V82.7614H25.6165C25.5597 82.8797 25.465 83.0064 25.3324 83.1413C25.1998 83.2763 25.0234 83.3911 24.8033 83.4858C24.5831 83.5805 24.3144 83.6278 23.9972 83.6278ZM24.125 82.875C24.4564 82.875 24.7358 82.8099 24.9631 82.6797C25.1927 82.5495 25.3655 82.3814 25.4815 82.1754C25.5999 81.9695 25.6591 81.7528 25.6591 81.5256V80.7585C25.6236 80.8011 25.5455 80.8402 25.4247 80.8757C25.3063 80.9089 25.169 80.9384 25.0128 80.9645C24.8589 80.9882 24.7086 81.0095 24.5618 81.0284C24.4174 81.045 24.3002 81.0592 24.2102 81.071C23.9924 81.0994 23.7888 81.1456 23.5994 81.2095C23.4124 81.2711 23.2609 81.3646 23.1449 81.4901C23.0313 81.6132 22.9744 81.7812 22.9744 81.9943C22.9744 82.2855 23.0821 82.5057 23.2976 82.6548C23.5154 82.8016 23.7912 82.875 24.125 82.875ZM28.8649 80.2188V83.5H28.0268V78.0455H28.8365V78.8977H28.9075C29.0353 78.6207 29.2295 78.3982 29.4899 78.2301C29.7503 78.0597 30.0865 77.9744 30.4984 77.9744C30.8677 77.9744 31.1909 78.0502 31.4679 78.2017C31.7449 78.3509 31.9603 78.5781 32.1142 78.8835C32.2681 79.1866 32.345 79.5701 32.345 80.0341V83.5H31.5069V80.0909C31.5069 79.6624 31.3957 79.3286 31.1731 79.0895C30.9506 78.848 30.6452 78.7273 30.2569 78.7273C29.9894 78.7273 29.7503 78.7853 29.5396 78.9013C29.3313 79.0173 29.1667 79.1866 29.046 79.4091C28.9252 79.6316 28.8649 79.9015 28.8649 80.2188ZM36.1634 83.6136C35.6378 83.6136 35.1844 83.4976 34.8033 83.2656C34.4245 83.0312 34.1321 82.7045 33.9261 82.2855C33.7225 81.8641 33.6207 81.3741 33.6207 80.8153C33.6207 80.2566 33.7225 79.7642 33.9261 79.3381C34.1321 78.9096 34.4186 78.5758 34.7855 78.3366C35.1548 78.0952 35.5857 77.9744 36.0781 77.9744C36.3622 77.9744 36.6428 78.0218 36.9197 78.1165C37.1967 78.2112 37.4489 78.3651 37.6761 78.5781C37.9034 78.7888 38.0845 79.0682 38.2195 79.4162C38.3544 79.7642 38.4219 80.1927 38.4219 80.7017V81.0568H34.2173V80.3324H37.5696C37.5696 80.0246 37.508 79.75 37.3849 79.5085C37.2642 79.267 37.0914 79.0765 36.8665 78.9368C36.6439 78.7971 36.3812 78.7273 36.0781 78.7273C35.7443 78.7273 35.4555 78.8101 35.2116 78.9759C34.9702 79.1392 34.7843 79.3523 34.6541 79.6151C34.5239 79.8778 34.4588 80.1596 34.4588 80.4602V80.9432C34.4588 81.3551 34.5298 81.7043 34.6719 81.9908C34.8163 82.2749 35.0163 82.4915 35.272 82.6406C35.5277 82.7874 35.8248 82.8608 36.1634 82.8608C36.3835 82.8608 36.5824 82.83 36.7599 82.7685C36.9399 82.7045 37.0949 82.6098 37.2251 82.4844C37.3554 82.3565 37.456 82.1979 37.527 82.0085L38.3366 82.2358C38.2514 82.5104 38.1082 82.7519 37.907 82.9602C37.7057 83.1662 37.4571 83.3272 37.1612 83.4432C36.8653 83.5568 36.5327 83.6136 36.1634 83.6136ZM44.5689 83.6136C44.1143 83.6136 43.7131 83.4988 43.3651 83.2692C43.017 83.0372 42.7448 82.7105 42.5483 82.2891C42.3518 81.8653 42.2536 81.3646 42.2536 80.7869C42.2536 80.214 42.3518 79.7169 42.5483 79.2955C42.7448 78.8741 43.0182 78.5485 43.3686 78.3189C43.719 78.0893 44.1238 77.9744 44.5831 77.9744C44.9382 77.9744 45.2188 78.0336 45.4247 78.152C45.633 78.268 45.7917 78.4006 45.9006 78.5497C46.0118 78.6965 46.0982 78.8172 46.1598 78.9119H46.2308V76.2273H47.0689V83.5H46.2592V82.6619H46.1598C46.0982 82.7614 46.0107 82.8868 45.897 83.0384C45.7834 83.1875 45.6212 83.3213 45.4105 83.4396C45.1998 83.5556 44.9193 83.6136 44.5689 83.6136ZM44.6825 82.8608C45.0187 82.8608 45.3028 82.7732 45.5348 82.598C45.7668 82.4205 45.9432 82.1754 46.0639 81.8629C46.1847 81.5481 46.245 81.1847 46.245 80.7727C46.245 80.3655 46.1858 80.0092 46.0675 79.7038C45.9491 79.3961 45.7739 79.157 45.5419 78.9865C45.3099 78.8137 45.0234 78.7273 44.6825 78.7273C44.3274 78.7273 44.0315 78.8184 43.7947 79.0007C43.5604 79.1806 43.384 79.4257 43.2656 79.7358C43.1496 80.0436 43.0916 80.3892 43.0916 80.7727C43.0916 81.161 43.1508 81.5137 43.2692 81.831C43.3899 82.1458 43.5675 82.3968 43.8018 82.5838C44.0386 82.7685 44.3321 82.8608 44.6825 82.8608ZM48.7202 83.5V78.0455H49.5582V83.5H48.7202ZM49.1463 77.1364C48.983 77.1364 48.8421 77.0807 48.7237 76.9695C48.6077 76.8582 48.5497 76.7244 48.5497 76.5682C48.5497 76.4119 48.6077 76.2782 48.7237 76.1669C48.8421 76.0556 48.983 76 49.1463 76C49.3097 76 49.4493 76.0556 49.5653 76.1669C49.6837 76.2782 49.7429 76.4119 49.7429 76.5682C49.7429 76.7244 49.6837 76.8582 49.5653 76.9695C49.4493 77.0807 49.3097 77.1364 49.1463 77.1364ZM51.0932 83.5V78.0455H51.9029V78.8693H51.9597C52.0591 78.5994 52.2391 78.3804 52.4995 78.2124C52.7599 78.0443 53.0534 77.9602 53.3801 77.9602C53.4417 77.9602 53.5186 77.9614 53.611 77.9638C53.7033 77.9661 53.7731 77.9697 53.8205 77.9744V78.8267C53.7921 78.8196 53.727 78.8089 53.6252 78.7947C53.5257 78.7782 53.4204 78.7699 53.3091 78.7699C53.044 78.7699 52.8072 78.8255 52.5989 78.9368C52.3929 79.0457 52.2296 79.1972 52.1088 79.3913C51.9905 79.5831 51.9313 79.8021 51.9313 80.0483V83.5H51.0932ZM56.9348 83.6136C56.4093 83.6136 55.9559 83.4976 55.5748 83.2656C55.196 83.0312 54.9036 82.7045 54.6976 82.2855C54.494 81.8641 54.3922 81.3741 54.3922 80.8153C54.3922 80.2566 54.494 79.7642 54.6976 79.3381C54.9036 78.9096 55.19 78.5758 55.557 78.3366C55.9263 78.0952 56.3572 77.9744 56.8496 77.9744C57.1337 77.9744 57.4142 78.0218 57.6912 78.1165C57.9682 78.2112 58.2203 78.3651 58.4476 78.5781C58.6749 78.7888 58.856 79.0682 58.9909 79.4162C59.1259 79.7642 59.1934 80.1927 59.1934 80.7017V81.0568H54.9888V80.3324H58.3411C58.3411 80.0246 58.2795 79.75 58.1564 79.5085C58.0357 79.267 57.8629 79.0765 57.638 78.9368C57.4154 78.7971 57.1526 78.7273 56.8496 78.7273C56.5158 78.7273 56.227 78.8101 55.9831 78.9759C55.7417 79.1392 55.5558 79.3523 55.4256 79.6151C55.2954 79.8778 55.2303 80.1596 55.2303 80.4602V80.9432C55.2303 81.3551 55.3013 81.7043 55.4434 81.9908C55.5878 82.2749 55.7878 82.4915 56.0435 82.6406C56.2992 82.7874 56.5963 82.8608 56.9348 82.8608C57.155 82.8608 57.3539 82.83 57.5314 82.7685C57.7114 82.7045 57.8664 82.6098 57.9966 82.4844C58.1268 82.3565 58.2275 82.1979 58.2985 82.0085L59.1081 82.2358C59.0229 82.5104 58.8797 82.7519 58.6784 82.9602C58.4772 83.1662 58.2286 83.3272 57.9327 83.4432C57.6368 83.5568 57.3042 83.6136 56.9348 83.6136ZM62.6841 83.6136C62.1728 83.6136 61.7324 83.4929 61.3631 83.2514C60.9938 83.0099 60.7097 82.6773 60.5108 82.2536C60.312 81.8298 60.2125 81.3456 60.2125 80.8011C60.2125 80.2472 60.3143 79.7583 60.5179 79.3345C60.7239 78.9084 61.0104 78.5758 61.3773 78.3366C61.7466 78.0952 62.1775 77.9744 62.6699 77.9744C63.0534 77.9744 63.3991 78.0455 63.7069 78.1875C64.0146 78.3295 64.2667 78.5284 64.4632 78.7841C64.6597 79.0398 64.7817 79.3381 64.829 79.679H63.9909C63.927 79.4304 63.785 79.2102 63.5648 79.0185C63.347 78.8243 63.0534 78.7273 62.6841 78.7273C62.3574 78.7273 62.071 78.8125 61.8248 78.983C61.5809 79.151 61.3903 79.389 61.253 79.6967C61.1181 80.0021 61.0506 80.3608 61.0506 80.7727C61.0506 81.1941 61.1169 81.5611 61.2495 81.8736C61.3844 82.1861 61.5738 82.4287 61.8176 82.6016C62.0639 82.7744 62.3527 82.8608 62.6841 82.8608C62.9019 82.8608 63.0996 82.8229 63.2772 82.7472C63.4547 82.6714 63.6051 82.5625 63.7282 82.4205C63.8513 82.2784 63.9389 82.108 63.9909 81.9091H64.829C64.7817 82.2311 64.6645 82.5211 64.4775 82.7791C64.2928 83.0348 64.0478 83.2384 63.7424 83.3899C63.4393 83.5391 63.0866 83.6136 62.6841 83.6136ZM68.4263 78.0455V78.7557H65.5996V78.0455H68.4263ZM66.4235 76.7386H67.2615V81.9375C67.2615 82.1742 67.2959 82.3518 67.3645 82.4702C67.4355 82.5862 67.5255 82.6643 67.6344 82.7045C67.7457 82.7424 67.8629 82.7614 67.986 82.7614C68.0783 82.7614 68.1541 82.7566 68.2132 82.7472C68.2724 82.7353 68.3198 82.7259 68.3553 82.7188L68.5257 83.4716C68.4689 83.4929 68.3896 83.5142 68.2878 83.5355C68.186 83.5592 68.057 83.571 67.9007 83.571C67.664 83.571 67.432 83.5201 67.2047 83.4183C66.9798 83.3165 66.7928 83.1615 66.6436 82.9531C66.4969 82.7448 66.4235 82.482 66.4235 82.1648V76.7386ZM69.687 83.5V78.0455H70.525V83.5H69.687ZM70.1131 77.1364C69.9498 77.1364 69.8089 77.0807 69.6905 76.9695C69.5745 76.8582 69.5165 76.7244 69.5165 76.5682C69.5165 76.4119 69.5745 76.2782 69.6905 76.1669C69.8089 76.0556 69.9498 76 70.1131 76C70.2765 76 70.4161 76.0556 70.5321 76.1669C70.6505 76.2782 70.7097 76.4119 70.7097 76.5682C70.7097 76.7244 70.6505 76.8582 70.5321 76.9695C70.4161 77.0807 70.2765 77.1364 70.1131 77.1364ZM74.2759 83.6136C73.7835 83.6136 73.3514 83.4964 72.9798 83.2621C72.6104 83.0277 72.3216 82.6998 72.1133 82.2784C71.9073 81.857 71.8043 81.3646 71.8043 80.8011C71.8043 80.233 71.9073 79.737 72.1133 79.3132C72.3216 78.8894 72.6104 78.5604 72.9798 78.326C73.3514 78.0916 73.7835 77.9744 74.2759 77.9744C74.7683 77.9744 75.1992 78.0916 75.5685 78.326C75.9402 78.5604 76.229 78.8894 76.435 79.3132C76.6433 79.737 76.7475 80.233 76.7475 80.8011C76.7475 81.3646 76.6433 81.857 76.435 82.2784C76.229 82.6998 75.9402 83.0277 75.5685 83.2621C75.1992 83.4964 74.7683 83.6136 74.2759 83.6136ZM74.2759 82.8608C74.65 82.8608 74.9577 82.7649 75.1992 82.5732C75.4407 82.3814 75.6194 82.1293 75.7354 81.8168C75.8514 81.5043 75.9094 81.1657 75.9094 80.8011C75.9094 80.4366 75.8514 80.0968 75.7354 79.782C75.6194 79.4671 75.4407 79.2126 75.1992 79.0185C74.9577 78.8243 74.65 78.7273 74.2759 78.7273C73.9019 78.7273 73.5941 78.8243 73.3526 79.0185C73.1112 79.2126 72.9324 79.4671 72.8164 79.782C72.7004 80.0968 72.6424 80.4366 72.6424 80.8011C72.6424 81.1657 72.7004 81.5043 72.8164 81.8168C72.9324 82.1293 73.1112 82.3814 73.3526 82.5732C73.5941 82.7649 73.9019 82.8608 74.2759 82.8608ZM78.8649 80.2188V83.5H78.0268V78.0455H78.8365V78.8977H78.9075C79.0353 78.6207 79.2295 78.3982 79.4899 78.2301C79.7503 78.0597 80.0865 77.9744 80.4984 77.9744C80.8677 77.9744 81.1909 78.0502 81.4679 78.2017C81.7449 78.3509 81.9603 78.5781 82.1142 78.8835C82.2681 79.1866 82.345 79.5701 82.345 80.0341V83.5H81.5069V80.0909C81.5069 79.6624 81.3957 79.3286 81.1731 79.0895C80.9506 78.848 80.6452 78.7273 80.2569 78.7273C79.9894 78.7273 79.7503 78.7853 79.5396 78.9013C79.3313 79.0173 79.1667 79.1866 79.046 79.4091C78.9252 79.6316 78.8649 79.9015 78.8649 80.2188Z" fill="#222222"/>
<path d="M153.066 84.2116L152.535 83.6808L155.981 80.2308L152.535 76.7808L153.066 76.25L157.046 80.2308L153.066 84.2116ZM157.641 84.2116L157.11 83.6808L160.556 80.2308L157.11 76.7808L157.641 76.25L161.621 80.2308L157.641 84.2116Z" fill="#222222"/>
<path d="M148.446 84.2116L144.465 80.2308L148.446 76.25L148.976 76.7808L145.531 80.2308L148.976 83.6808L148.446 84.2116ZM153.021 84.2116L149.04 80.2308L153.021 76.25L153.551 76.7808L150.106 80.2308L153.551 83.6808L153.021 84.2116Z" fill="#222222"/>
<path d="M176.437 83.9807L172.457 79.9999L176.437 76.0192L176.968 76.5499L173.522 79.9999L176.968 83.4499L176.437 83.9807ZM181.012 83.9807L177.032 79.9999L181.012 76.0192L181.543 76.5499L178.097 79.9999L181.543 83.4499L181.012 83.9807Z" fill="#222222"/>
<path d="M196.987 83.9807L196.457 83.4499L199.902 79.9999L196.457 76.5499L196.987 76.0192L200.968 79.9999L196.987 83.9807ZM201.562 83.9807L201.032 83.4499L204.477 79.9999L201.032 76.5499L201.562 76.0192L205.543 79.9999L201.562 83.9807Z" fill="#222222"/>
<path d="M274.461 81C274.186 81 273.951 80.9021 273.755 80.7063C273.559 80.5104 273.461 80.275 273.461 80C273.461 79.725 273.559 79.4896 273.755 79.2938C273.951 79.0979 274.186 79 274.461 79C274.736 79 274.972 79.0979 275.168 79.2938C275.364 79.4896 275.461 79.725 275.461 80C275.461 80.275 275.364 80.5104 275.168 80.7063C274.972 80.9021 274.736 81 274.461 81ZM280 81C279.725 81 279.489 80.9021 279.294 80.7063C279.098 80.5104 279 80.275 279 80C279 79.725 279.098 79.4896 279.294 79.2938C279.489 79.0979 279.725 79 280 79C280.275 79 280.51 79.0979 280.706 79.2938C280.902 79.4896 281 79.725 281 80C281 80.275 280.902 80.5104 280.706 80.7063C280.51 80.9021 280.275 81 280 81ZM285.538 81C285.263 81 285.028 80.9021 284.832 80.7063C284.636 80.5104 284.538 80.275 284.538 80C284.538 79.725 284.636 79.4896 284.832 79.2938C285.028 79.0979 285.263 79 285.538 79C285.813 79 286.049 79.0979 286.245 79.2938C286.44 79.4896 286.538 79.725 286.538 80C286.538 80.275 286.44 80.5104 286.245 80.7063C286.049 80.9021 285.813 81 285.538 81Z" fill="#222222"/>
</svg>
