<svg width="321" height="467" viewBox="0 0 321 467" fill="none" xmlns="http://www.w3.org/2000/svg">
<mask id="path-1-outside-1_3028_9125" maskUnits="userSpaceOnUse" x="0" y="0" width="321" height="467" fill="black">
<rect fill="white" width="321" height="467"/>
<path d="M1 0H321V467H1V0Z"/>
</mask>
<path d="M1 0H321V467H1V0Z" fill="white"/>
<path d="M2 467V0H0V467H2Z" fill="#E6E6E6" mask="url(#path-1-outside-1_3028_9125)"/>
<path d="M26.5753 25.1293H25.0241C24.9645 24.7978 24.8535 24.5062 24.6911 24.2543C24.5286 24.0024 24.3298 23.7886 24.0945 23.6129C23.8591 23.4373 23.5956 23.3047 23.304 23.2152C23.0156 23.1257 22.709 23.081 22.3842 23.081C21.7976 23.081 21.2723 23.2285 20.8082 23.5234C20.3475 23.8184 19.983 24.2509 19.7145 24.821C19.4493 25.3911 19.3168 26.0871 19.3168 26.9091C19.3168 27.7377 19.4493 28.437 19.7145 29.0071C19.983 29.5772 20.3492 30.008 20.8132 30.2997C21.2772 30.5914 21.7992 30.7372 22.3793 30.7372C22.7008 30.7372 23.0057 30.6941 23.294 30.608C23.5857 30.5185 23.8492 30.3875 24.0845 30.2152C24.3198 30.0429 24.5187 29.8324 24.6811 29.5838C24.8468 29.3319 24.9612 29.0436 25.0241 28.7188L26.5753 28.7237C26.4924 29.2242 26.3317 29.6849 26.093 30.1058C25.8577 30.5234 25.5545 30.8847 25.1832 31.1896C24.8153 31.4912 24.3944 31.7249 23.9205 31.8906C23.4465 32.0563 22.9295 32.1392 22.3693 32.1392C21.4877 32.1392 20.7022 31.9304 20.0128 31.5128C19.3234 31.0919 18.7798 30.4903 18.3821 29.7081C17.9877 28.9259 17.7905 27.9929 17.7905 26.9091C17.7905 25.822 17.9893 24.889 18.3871 24.1101C18.7848 23.3279 19.3284 22.728 20.0178 22.3104C20.7071 21.8894 21.491 21.679 22.3693 21.679C22.9096 21.679 23.4134 21.7569 23.8807 21.9126C24.3513 22.0651 24.7739 22.2905 25.1484 22.5888C25.523 22.8838 25.8329 23.245 26.0781 23.6726C26.3234 24.0968 26.4891 24.5824 26.5753 25.1293ZM31.5108 32.1541C30.7949 32.1541 30.1702 31.9901 29.6365 31.6619C29.1029 31.3338 28.6886 30.8748 28.3936 30.2848C28.0987 29.6948 27.9512 29.0054 27.9512 28.2166C27.9512 27.4245 28.0987 26.7318 28.3936 26.1385C28.6886 25.5452 29.1029 25.0845 29.6365 24.7564C30.1702 24.4283 30.7949 24.2642 31.5108 24.2642C32.2267 24.2642 32.8515 24.4283 33.3851 24.7564C33.9187 25.0845 34.333 25.5452 34.628 26.1385C34.923 26.7318 35.0705 27.4245 35.0705 28.2166C35.0705 29.0054 34.923 29.6948 34.628 30.2848C34.333 30.8748 33.9187 31.3338 33.3851 31.6619C32.8515 31.9901 32.2267 32.1541 31.5108 32.1541ZM31.5158 30.9062C31.9798 30.9062 32.3643 30.7836 32.6692 30.5384C32.9741 30.2931 33.1995 29.9666 33.3453 29.5589C33.4945 29.1513 33.5691 28.7022 33.5691 28.2116C33.5691 27.7244 33.4945 27.277 33.3453 26.8693C33.1995 26.4583 32.9741 26.1286 32.6692 25.88C32.3643 25.6314 31.9798 25.5071 31.5158 25.5071C31.0485 25.5071 30.6607 25.6314 30.3525 25.88C30.0475 26.1286 29.8205 26.4583 29.6713 26.8693C29.5255 27.277 29.4526 27.7244 29.4526 28.2116C29.4526 28.7022 29.5255 29.1513 29.6713 29.5589C29.8205 29.9666 30.0475 30.2931 30.3525 30.5384C30.6607 30.7836 31.0485 30.9062 31.5158 30.9062ZM36.7298 32V24.3636H38.1566V25.6065H38.2511C38.4102 25.1856 38.6703 24.8575 39.0316 24.6222C39.3929 24.3835 39.8254 24.2642 40.3292 24.2642C40.8396 24.2642 41.2672 24.3835 41.6119 24.6222C41.9599 24.8608 42.2167 25.1889 42.3825 25.6065H42.462C42.6443 25.1989 42.9343 24.8741 43.332 24.6321C43.7298 24.3868 44.2037 24.2642 44.7539 24.2642C45.4466 24.2642 46.0117 24.4813 46.4492 24.9155C46.89 25.3497 47.1104 26.0043 47.1104 26.8793V32H45.6239V27.0185C45.6239 26.5014 45.4831 26.1269 45.2013 25.8949C44.9196 25.6629 44.5832 25.5469 44.1921 25.5469C43.7082 25.5469 43.332 25.696 43.0636 25.9943C42.7951 26.2893 42.6609 26.6688 42.6609 27.1328V32H41.1793V26.924C41.1793 26.5097 41.0501 26.1766 40.7915 25.9247C40.533 25.6728 40.1966 25.5469 39.7823 25.5469C39.5006 25.5469 39.2404 25.6214 39.0018 25.7706C38.7665 25.9164 38.5759 26.1203 38.43 26.3821C38.2875 26.6439 38.2163 26.9472 38.2163 27.2919V32H36.7298ZM49.1028 32V24.3636H50.5297V25.6065H50.6241C50.7832 25.1856 51.0434 24.8575 51.4047 24.6222C51.7659 24.3835 52.1984 24.2642 52.7022 24.2642C53.2127 24.2642 53.6402 24.3835 53.9849 24.6222C54.3329 24.8608 54.5898 25.1889 54.7555 25.6065H54.835C55.0173 25.1989 55.3074 24.8741 55.7051 24.6321C56.1028 24.3868 56.5768 24.2642 57.127 24.2642C57.8197 24.2642 58.3848 24.4813 58.8223 24.9155C59.2631 25.3497 59.4835 26.0043 59.4835 26.8793V32H57.997V27.0185C57.997 26.5014 57.8561 26.1269 57.5744 25.8949C57.2927 25.6629 56.9563 25.5469 56.5652 25.5469C56.0813 25.5469 55.7051 25.696 55.4366 25.9943C55.1681 26.2893 55.0339 26.6688 55.0339 27.1328V32H53.5524V26.924C53.5524 26.5097 53.4231 26.1766 53.1646 25.9247C52.9061 25.6728 52.5697 25.5469 52.1554 25.5469C51.8736 25.5469 51.6135 25.6214 51.3748 25.7706C51.1395 25.9164 50.9489 26.1203 50.8031 26.3821C50.6606 26.6439 50.5893 26.9472 50.5893 27.2919V32H49.1028ZM61.4759 32V24.3636H62.9624V32H61.4759ZM62.2266 23.1854C61.968 23.1854 61.746 23.0992 61.5604 22.9268C61.3781 22.7512 61.2869 22.5424 61.2869 22.3004C61.2869 22.0552 61.3781 21.8464 61.5604 21.674C61.746 21.4983 61.968 21.4105 62.2266 21.4105C62.4851 21.4105 62.7055 21.4983 62.8878 21.674C63.0734 21.8464 63.1662 22.0552 63.1662 22.3004C63.1662 22.5424 63.0734 22.7512 62.8878 22.9268C62.7055 23.0992 62.4851 23.1854 62.2266 23.1854ZM70.6845 26.228L69.3372 26.4666C69.2808 26.2943 69.1913 26.1302 69.0687 25.9744C68.9494 25.8187 68.787 25.6911 68.5815 25.5916C68.376 25.4922 68.1191 25.4425 67.8109 25.4425C67.39 25.4425 67.0386 25.5369 66.7569 25.7259C66.4752 25.9115 66.3343 26.1518 66.3343 26.4467C66.3343 26.7019 66.4288 26.9074 66.6177 27.0632C66.8066 27.219 67.1116 27.3466 67.5325 27.446L68.7456 27.7244C69.4482 27.8868 69.9719 28.1371 70.3166 28.4751C70.6613 28.8132 70.8336 29.2524 70.8336 29.7926C70.8336 30.25 70.7011 30.6577 70.4359 31.0156C70.1741 31.3703 69.8078 31.6487 69.3372 31.8509C68.8699 32.053 68.3279 32.1541 67.7115 32.1541C66.8564 32.1541 66.1587 31.9718 65.6184 31.6072C65.0782 31.2393 64.7467 30.7173 64.6241 30.0412L66.0609 29.8224C66.1504 30.197 66.3343 30.4804 66.6127 30.6726C66.8912 30.8615 67.2541 30.956 67.7015 30.956C68.1887 30.956 68.5782 30.8549 68.8699 30.6527C69.1615 30.4472 69.3074 30.197 69.3074 29.902C69.3074 29.6634 69.2179 29.4628 69.0389 29.3004C68.8632 29.138 68.5931 29.0154 68.2285 28.9325L66.9359 28.6491C66.2233 28.4867 65.6963 28.2282 65.3549 27.8736C65.0169 27.5189 64.8478 27.0698 64.8478 26.5263C64.8478 26.0755 64.9738 25.6811 65.2257 25.343C65.4776 25.005 65.8256 24.7415 66.2697 24.5526C66.7138 24.3603 67.2226 24.2642 67.796 24.2642C68.6213 24.2642 69.2709 24.4432 69.7449 24.8011C70.2188 25.1558 70.532 25.6314 70.6845 26.228ZM78.1903 26.228L76.843 26.4666C76.7867 26.2943 76.6972 26.1302 76.5746 25.9744C76.4553 25.8187 76.2929 25.6911 76.0874 25.5916C75.8819 25.4922 75.625 25.4425 75.3168 25.4425C74.8958 25.4425 74.5445 25.5369 74.2628 25.7259C73.9811 25.9115 73.8402 26.1518 73.8402 26.4467C73.8402 26.7019 73.9347 26.9074 74.1236 27.0632C74.3125 27.219 74.6174 27.3466 75.0384 27.446L76.2514 27.7244C76.9541 27.8868 77.4777 28.1371 77.8224 28.4751C78.1671 28.8132 78.3395 29.2524 78.3395 29.7926C78.3395 30.25 78.2069 30.6577 77.9418 31.0156C77.6799 31.3703 77.3137 31.6487 76.843 31.8509C76.3757 32.053 75.8338 32.1541 75.2173 32.1541C74.3622 32.1541 73.6645 31.9718 73.1243 31.6072C72.584 31.2393 72.2526 30.7173 72.13 30.0412L73.5668 29.8224C73.6563 30.197 73.8402 30.4804 74.1186 30.6726C74.397 30.8615 74.7599 30.956 75.2074 30.956C75.6946 30.956 76.084 30.8549 76.3757 30.6527C76.6674 30.4472 76.8132 30.197 76.8132 29.902C76.8132 29.6634 76.7237 29.4628 76.5447 29.3004C76.3691 29.138 76.099 29.0154 75.7344 28.9325L74.4418 28.6491C73.7292 28.4867 73.2022 28.2282 72.8608 27.8736C72.5227 27.5189 72.3537 27.0698 72.3537 26.5263C72.3537 26.0755 72.4796 25.6811 72.7315 25.343C72.9834 25.005 73.3314 24.7415 73.7756 24.5526C74.2197 24.3603 74.7285 24.2642 75.3018 24.2642C76.1271 24.2642 76.7768 24.4432 77.2507 24.8011C77.7247 25.1558 78.0379 25.6314 78.1903 26.228ZM79.9739 32V24.3636H81.4604V32H79.9739ZM80.7246 23.1854C80.4661 23.1854 80.244 23.0992 80.0584 22.9268C79.8761 22.7512 79.785 22.5424 79.785 22.3004C79.785 22.0552 79.8761 21.8464 80.0584 21.674C80.244 21.4983 80.4661 21.4105 80.7246 21.4105C80.9831 21.4105 81.2035 21.4983 81.3858 21.674C81.5714 21.8464 81.6642 22.0552 81.6642 22.3004C81.6642 22.5424 81.5714 22.7512 81.3858 22.9268C81.2035 23.0992 80.9831 23.1854 80.7246 23.1854ZM86.6768 32.1541C85.9609 32.1541 85.3362 31.9901 84.8026 31.6619C84.2689 31.3338 83.8546 30.8748 83.5597 30.2848C83.2647 29.6948 83.1172 29.0054 83.1172 28.2166C83.1172 27.4245 83.2647 26.7318 83.5597 26.1385C83.8546 25.5452 84.2689 25.0845 84.8026 24.7564C85.3362 24.4283 85.9609 24.2642 86.6768 24.2642C87.3928 24.2642 88.0175 24.4283 88.5511 24.7564C89.0848 25.0845 89.4991 25.5452 89.794 26.1385C90.089 26.7318 90.2365 27.4245 90.2365 28.2166C90.2365 29.0054 90.089 29.6948 89.794 30.2848C89.4991 30.8748 89.0848 31.3338 88.5511 31.6619C88.0175 31.9901 87.3928 32.1541 86.6768 32.1541ZM86.6818 30.9062C87.1458 30.9062 87.5303 30.7836 87.8352 30.5384C88.1402 30.2931 88.3655 29.9666 88.5114 29.5589C88.6605 29.1513 88.7351 28.7022 88.7351 28.2116C88.7351 27.7244 88.6605 27.277 88.5114 26.8693C88.3655 26.4583 88.1402 26.1286 87.8352 25.88C87.5303 25.6314 87.1458 25.5071 86.6818 25.5071C86.2145 25.5071 85.8267 25.6314 85.5185 25.88C85.2135 26.1286 84.9865 26.4583 84.8374 26.8693C84.6915 27.277 84.6186 27.7244 84.6186 28.2116C84.6186 28.7022 84.6915 29.1513 84.8374 29.5589C84.9865 29.9666 85.2135 30.2931 85.5185 30.5384C85.8267 30.7836 86.2145 30.9062 86.6818 30.9062ZM93.3823 27.4659V32H91.8958V24.3636H93.3226V25.6065H93.4171C93.5927 25.2022 93.8678 24.8774 94.2424 24.6321C94.6202 24.3868 95.0958 24.2642 95.6692 24.2642C96.1896 24.2642 96.6453 24.3736 97.0364 24.5923C97.4275 24.8078 97.7308 25.1293 97.9462 25.5568C98.1616 25.9844 98.2694 26.513 98.2694 27.1428V32H96.7828V27.3217C96.7828 26.7682 96.6387 26.3357 96.3503 26.0241C96.062 25.7093 95.6659 25.5518 95.1621 25.5518C94.8174 25.5518 94.5108 25.6264 94.2424 25.7756C93.9772 25.9247 93.7667 26.1435 93.611 26.4318C93.4585 26.7169 93.3823 27.0616 93.3823 27.4659ZM100.263 32V24.3636H101.749V32H100.263ZM101.014 23.1854C100.755 23.1854 100.533 23.0992 100.347 22.9268C100.165 22.7512 100.074 22.5424 100.074 22.3004C100.074 22.0552 100.165 21.8464 100.347 21.674C100.533 21.4983 100.755 21.4105 101.014 21.4105C101.272 21.4105 101.493 21.4983 101.675 21.674C101.86 21.8464 101.953 22.0552 101.953 22.3004C101.953 22.5424 101.86 22.7512 101.675 22.9268C101.493 23.0992 101.272 23.1854 101.014 23.1854ZM105.236 27.4659V32H103.749V24.3636H105.176V25.6065H105.271C105.446 25.2022 105.721 24.8774 106.096 24.6321C106.474 24.3868 106.949 24.2642 107.523 24.2642C108.043 24.2642 108.499 24.3736 108.89 24.5923C109.281 24.8078 109.584 25.1293 109.8 25.5568C110.015 25.9844 110.123 26.513 110.123 27.1428V32H108.636V27.3217C108.636 26.7682 108.492 26.3357 108.204 26.0241C107.915 25.7093 107.519 25.5518 107.016 25.5518C106.671 25.5518 106.364 25.6264 106.096 25.7756C105.831 25.9247 105.62 26.1435 105.464 26.4318C105.312 26.7169 105.236 27.0616 105.236 27.4659ZM115.318 35.0227C114.712 35.0227 114.19 34.9432 113.752 34.7841C113.318 34.625 112.963 34.4145 112.688 34.1527C112.413 33.8909 112.208 33.6042 112.072 33.2926L113.349 32.7656C113.439 32.9115 113.558 33.0656 113.707 33.228C113.86 33.3937 114.065 33.5346 114.324 33.6506C114.586 33.7666 114.922 33.8246 115.333 33.8246C115.897 33.8246 116.362 33.687 116.73 33.4119C117.098 33.1402 117.282 32.706 117.282 32.1094V30.608H117.188C117.098 30.7704 116.969 30.951 116.8 31.1499C116.634 31.3487 116.405 31.5211 116.114 31.6669C115.822 31.8127 115.442 31.8857 114.975 31.8857C114.372 31.8857 113.828 31.7448 113.344 31.4631C112.864 31.178 112.483 30.7588 112.201 30.2053C111.923 29.6484 111.783 28.964 111.783 28.152C111.783 27.34 111.921 26.6439 112.196 26.0639C112.474 25.4839 112.856 25.0398 113.339 24.7315C113.823 24.42 114.372 24.2642 114.985 24.2642C115.459 24.2642 115.842 24.3438 116.134 24.5028C116.425 24.6586 116.652 24.8409 116.815 25.0497C116.98 25.2585 117.108 25.4425 117.197 25.6016H117.307V24.3636H118.763V32.169C118.763 32.8253 118.611 33.3639 118.306 33.7848C118.001 34.2057 117.589 34.5173 117.068 34.7195C116.551 34.9216 115.968 35.0227 115.318 35.0227ZM115.303 30.6527C115.731 30.6527 116.092 30.5533 116.387 30.3544C116.685 30.1522 116.911 29.8639 117.063 29.4893C117.219 29.1115 117.297 28.6591 117.297 28.1321C117.297 27.6184 117.221 27.166 117.068 26.7749C116.916 26.3838 116.692 26.0788 116.397 25.8601C116.102 25.638 115.737 25.527 115.303 25.527C114.856 25.527 114.483 25.643 114.185 25.875C113.886 26.1037 113.661 26.4152 113.509 26.8097C113.359 27.2041 113.285 27.6449 113.285 28.1321C113.285 28.6326 113.361 29.0717 113.513 29.4496C113.666 29.8274 113.891 30.1224 114.19 30.3345C114.491 30.5466 114.862 30.6527 115.303 30.6527Z" fill="#222222"/>
<path d="M287.4 32.8077L286.692 32.1L292.292 26.5L286.692 20.9L287.4 20.1923L293 25.7923L298.6 20.1923L299.308 20.9L293.708 26.5L299.308 32.1L298.6 32.8077L293 27.2077L287.4 32.8077Z" fill="#222222"/>
<rect x="1" y="53" width="320" height="1" fill="#E6E6E6"/>
<mask id="path-6-inside-2_3028_9125" fill="white">
<path d="M17 62H63V110H17V62Z"/>
</mask>
<path d="M63 110V108H17V110V112H63V110Z" fill="#222222" mask="url(#path-6-inside-2_3028_9125)"/>
<path d="M23.751 84.4929C23.6979 84.0223 23.4792 83.6577 23.0947 83.3991C22.7103 83.1373 22.2264 83.0064 21.643 83.0064C21.2254 83.0064 20.8641 83.0727 20.5592 83.2053C20.2543 83.3345 20.0173 83.5135 19.8483 83.7422C19.6826 83.9676 19.5997 84.2244 19.5997 84.5128C19.5997 84.7547 19.656 84.9635 19.7687 85.1392C19.8847 85.3149 20.0355 85.4624 20.2211 85.5817C20.4101 85.6977 20.6122 85.7955 20.8277 85.875C21.0431 85.9512 21.2503 86.0142 21.4491 86.0639L22.4434 86.3224C22.7683 86.402 23.1014 86.5097 23.4427 86.6456C23.7841 86.7815 24.1006 86.9605 24.3923 87.1825C24.684 87.4046 24.9193 87.6797 25.0983 88.0078C25.2806 88.3359 25.3717 88.7287 25.3717 89.1861C25.3717 89.7628 25.2226 90.2749 24.9243 90.7223C24.6293 91.1697 24.2001 91.5227 23.6366 91.7812C23.0765 92.0398 22.3987 92.169 21.6032 92.169C20.8409 92.169 20.1814 92.0481 19.6246 91.8061C19.0677 91.5642 18.6319 91.2211 18.317 90.777C18.0022 90.3295 17.8282 89.7992 17.795 89.1861H19.3362C19.366 89.554 19.4854 89.8606 19.6942 90.1058C19.9063 90.3478 20.1764 90.5284 20.5045 90.6477C20.836 90.7637 21.1989 90.8217 21.5933 90.8217C22.0275 90.8217 22.4136 90.7538 22.7517 90.6179C23.0931 90.4787 23.3615 90.2865 23.5571 90.0412C23.7526 89.7926 23.8504 89.5026 23.8504 89.1712C23.8504 88.8696 23.7642 88.6226 23.5919 88.4304C23.4229 88.2382 23.1925 88.0791 22.9008 87.9531C22.6125 87.8272 22.286 87.7161 21.9214 87.62L20.7183 87.2919C19.903 87.0698 19.2567 86.7434 18.7794 86.3125C18.3054 85.8816 18.0684 85.3116 18.0684 84.6023C18.0684 84.0156 18.2275 83.5036 18.5457 83.0661C18.8639 82.6286 19.2948 82.2888 19.8383 82.0469C20.3819 81.8016 20.9951 81.679 21.6778 81.679C22.3672 81.679 22.9754 81.8 23.5024 82.0419C24.0327 82.2839 24.4503 82.617 24.7552 83.0412C25.0602 83.4621 25.2193 83.946 25.2325 84.4929H23.751ZM27.2075 92V81.8182H33.591V83.1406H28.7437V86.2429H33.2579V87.5604H28.7437V90.6776H33.6507V92H27.2075ZM35.1409 83.1406V81.8182H43.0209V83.1406H39.844V92H38.3128V83.1406H35.1409ZM51.3097 81.8182H52.8509V88.5149C52.8509 89.2275 52.6836 89.8589 52.3488 90.4091C52.0141 90.956 51.5434 91.3868 50.9369 91.7017C50.3303 92.0133 49.6194 92.169 48.8041 92.169C47.992 92.169 47.2828 92.0133 46.6762 91.7017C46.0697 91.3868 45.599 90.956 45.2643 90.4091C44.9295 89.8589 44.7622 89.2275 44.7622 88.5149V81.8182H46.2984V88.3906C46.2984 88.8513 46.3995 89.2607 46.6017 89.6186C46.8071 89.9766 47.0972 90.2583 47.4717 90.4638C47.8462 90.666 48.2903 90.767 48.8041 90.767C49.3211 90.767 49.7669 90.666 50.1414 90.4638C50.5193 90.2583 50.8076 89.9766 51.0065 89.6186C51.2087 89.2607 51.3097 88.8513 51.3097 88.3906V81.8182ZM55.0844 92V81.8182H58.7137C59.5058 81.8182 60.1621 81.9624 60.6824 82.2507C61.2028 82.5391 61.5922 82.9335 61.8508 83.4339C62.1093 83.9311 62.2385 84.4912 62.2385 85.1143C62.2385 85.7408 62.1076 86.3042 61.8458 86.8047C61.5873 87.3018 61.1962 87.6963 60.6725 87.9879C60.1521 88.2763 59.4975 88.4205 58.7087 88.4205H56.213V87.1179H58.5695C59.07 87.1179 59.476 87.0317 59.7876 86.8594C60.0991 86.6837 60.3278 86.4451 60.4736 86.1435C60.6195 85.8419 60.6924 85.4988 60.6924 85.1143C60.6924 84.7299 60.6195 84.3885 60.4736 84.0902C60.3278 83.7919 60.0974 83.5582 59.7826 83.3892C59.471 83.2202 59.06 83.1357 58.5496 83.1357H56.6206V92H55.0844Z" fill="#222222"/>
<path d="M149.838 87C149.728 86.6652 149.584 86.3653 149.405 86.1001C149.23 85.8317 149.019 85.603 148.774 85.4141C148.532 85.2251 148.257 85.081 147.949 84.9815C147.64 84.8821 147.302 84.8324 146.934 84.8324C146.331 84.8324 145.783 84.9882 145.289 85.2997C144.795 85.6113 144.402 86.0703 144.11 86.6768C143.819 87.2834 143.673 88.0275 143.673 88.9091C143.673 89.7907 143.82 90.5348 144.115 91.1413C144.41 91.7479 144.81 92.2069 145.314 92.5185C145.817 92.83 146.384 92.9858 147.014 92.9858C147.597 92.9858 148.111 92.8615 148.555 92.6129C149.002 92.361 149.35 92.0064 149.599 91.549C149.851 91.0883 149.977 90.5464 149.977 89.9233L150.355 90.0028H147.292V88.9091H151.17V90.0028C151.17 90.8414 150.991 91.5705 150.633 92.1903C150.279 92.8101 149.788 93.2907 149.162 93.6321C148.538 93.9702 147.823 94.1392 147.014 94.1392C146.112 94.1392 145.32 93.9271 144.637 93.5028C143.958 93.0786 143.428 92.4754 143.047 91.6932C142.669 90.911 142.48 89.983 142.48 88.9091C142.48 88.1037 142.587 87.3795 142.803 86.7365C143.022 86.0902 143.33 85.54 143.728 85.0859C144.125 84.6319 144.596 84.2839 145.14 84.0419C145.683 83.8 146.281 83.679 146.934 83.679C147.471 83.679 147.972 83.7602 148.436 83.9226C148.903 84.0817 149.319 84.3087 149.684 84.6037C150.051 84.8954 150.358 85.245 150.603 85.6527C150.849 86.0571 151.018 86.5062 151.11 87H149.838ZM153.385 94H152.092L155.831 83.8182H157.104L160.842 94H159.55L156.507 85.429H156.428L153.385 94ZM153.862 90.0227H159.072V91.1165H153.862V90.0227ZM160.682 84.9119V83.8182H168.318V84.9119H165.117V94H163.884V84.9119H160.682ZM170.221 94V83.8182H176.366V84.9119H171.454V88.3523H176.048V89.446H171.454V92.9062H176.446V94H170.221Z" fill="#808080"/>
<path d="M263.15 86.3636C263.09 85.8598 262.848 85.4688 262.424 85.1903C262 84.9119 261.479 84.7727 260.863 84.7727C260.412 84.7727 260.018 84.8456 259.68 84.9915C259.345 85.1373 259.083 85.3378 258.894 85.593C258.708 85.8482 258.616 86.1383 258.616 86.4631C258.616 86.7348 258.68 86.9685 258.81 87.1641C258.942 87.3563 259.111 87.517 259.317 87.6463C259.522 87.7723 259.738 87.8767 259.963 87.9595C260.188 88.0391 260.396 88.1037 260.584 88.1534L261.619 88.4318C261.884 88.5014 262.179 88.5975 262.503 88.7202C262.832 88.8428 263.145 89.0102 263.443 89.2223C263.745 89.4311 263.993 89.6996 264.189 90.0277C264.384 90.3558 264.482 90.7585 264.482 91.2358C264.482 91.786 264.338 92.2831 264.05 92.7273C263.765 93.1714 263.347 93.5244 262.797 93.7862C262.25 94.0481 261.585 94.179 260.803 94.179C260.074 94.179 259.443 94.0613 258.909 93.826C258.379 93.5907 257.961 93.2625 257.656 92.8416C257.355 92.4207 257.184 91.9318 257.144 91.375H258.417C258.45 91.7595 258.579 92.0777 258.805 92.3295C259.033 92.5781 259.322 92.7637 259.67 92.8864C260.021 93.0057 260.399 93.0653 260.803 93.0653C261.274 93.0653 261.696 92.9891 262.071 92.8366C262.445 92.6809 262.742 92.4654 262.961 92.1903C263.18 91.9119 263.289 91.5871 263.289 91.2159C263.289 90.8778 263.195 90.6027 263.006 90.3906C262.817 90.1785 262.568 90.0062 262.26 89.8736C261.952 89.741 261.619 89.625 261.261 89.5256L260.008 89.1676C259.212 88.9389 258.583 88.6125 258.119 88.1882C257.655 87.764 257.422 87.2088 257.422 86.5227C257.422 85.9527 257.577 85.4555 257.885 85.0312C258.196 84.6037 258.614 84.2723 259.138 84.0369C259.665 83.7983 260.253 83.679 260.903 83.679C261.559 83.679 262.142 83.7966 262.653 84.032C263.163 84.264 263.567 84.5821 263.866 84.9865C264.167 85.3909 264.326 85.8499 264.343 86.3636H263.15ZM266.509 94V83.8182H269.95C270.748 83.8182 271.401 83.9624 271.908 84.2507C272.419 84.5357 272.797 84.9219 273.042 85.4091C273.287 85.8963 273.41 86.4399 273.41 87.0398C273.41 87.6397 273.287 88.1849 273.042 88.6754C272.8 89.166 272.426 89.5571 271.918 89.8487C271.411 90.1371 270.762 90.2812 269.97 90.2812H267.504V89.1875H269.93C270.477 89.1875 270.916 89.093 271.247 88.9041C271.579 88.7152 271.819 88.46 271.968 88.1385C272.121 87.8137 272.197 87.4474 272.197 87.0398C272.197 86.6321 272.121 86.2675 271.968 85.946C271.819 85.6245 271.577 85.3726 271.242 85.1903C270.908 85.0047 270.463 84.9119 269.91 84.9119H267.742V94H266.509ZM275.396 94V83.8182H276.629V92.9062H281.362V94H275.396ZM284.504 83.8182V94H283.271V83.8182H284.504ZM295.05 83.8182V94H293.857L288.309 86.0057H288.209V94H286.976V83.8182H288.169L293.737 91.8324H293.837V83.8182H295.05ZM297.517 94V83.8182H303.662V84.9119H298.75V88.3523H303.344V89.446H298.75V92.9062H303.742V94H297.517Z" fill="#808080"/>
<rect x="1" y="134" width="320" height="1" fill="#E6E6E6"/>
<path d="M21.4148 167H18.1186V156.818H21.5192C22.5168 156.818 23.3736 157.022 24.0895 157.43C24.8054 157.834 25.3539 158.416 25.7351 159.175C26.1196 159.93 26.3118 160.837 26.3118 161.894C26.3118 162.955 26.1179 163.866 25.7301 164.629C25.3456 165.391 24.7888 165.978 24.0597 166.388C23.3305 166.796 22.4489 167 21.4148 167ZM19.6548 165.658H21.3303C22.1058 165.658 22.7505 165.512 23.2642 165.22C23.7779 164.925 24.1624 164.499 24.4176 163.942C24.6728 163.382 24.8004 162.7 24.8004 161.894C24.8004 161.095 24.6728 160.418 24.4176 159.861C24.1657 159.304 23.7895 158.881 23.2891 158.593C22.7886 158.305 22.1671 158.161 21.4247 158.161H19.6548V165.658ZM28.1028 167V159.364H29.5893V167H28.1028ZM28.8535 158.185C28.595 158.185 28.3729 158.099 28.1873 157.927C28.005 157.751 27.9139 157.542 27.9139 157.3C27.9139 157.055 28.005 156.846 28.1873 156.674C28.3729 156.498 28.595 156.411 28.8535 156.411C29.112 156.411 29.3324 156.498 29.5147 156.674C29.7003 156.846 29.7931 157.055 29.7931 157.3C29.7931 157.542 29.7003 157.751 29.5147 157.927C29.3324 158.099 29.112 158.185 28.8535 158.185ZM31.5891 167V159.364H33.016V160.607H33.1104C33.2695 160.186 33.5297 159.857 33.891 159.622C34.2522 159.384 34.6848 159.264 35.1886 159.264C35.699 159.264 36.1265 159.384 36.4712 159.622C36.8192 159.861 37.0761 160.189 37.2418 160.607H37.3214C37.5037 160.199 37.7937 159.874 38.1914 159.632C38.5891 159.387 39.0631 159.264 39.6133 159.264C40.306 159.264 40.8711 159.481 41.3086 159.915C41.7494 160.35 41.9698 161.004 41.9698 161.879V167H40.4833V162.018C40.4833 161.501 40.3424 161.127 40.0607 160.895C39.779 160.663 39.4426 160.547 39.0515 160.547C38.5676 160.547 38.1914 160.696 37.9229 160.994C37.6545 161.289 37.5202 161.669 37.5202 162.133V167H36.0387V161.924C36.0387 161.51 35.9094 161.177 35.6509 160.925C35.3924 160.673 35.056 160.547 34.6417 160.547C34.36 160.547 34.0998 160.621 33.8612 160.771C33.6258 160.916 33.4353 161.12 33.2894 161.382C33.1469 161.644 33.0756 161.947 33.0756 162.292V167H31.5891ZM47.2534 167.154C46.501 167.154 45.853 166.993 45.3095 166.672C44.7692 166.347 44.3516 165.891 44.0566 165.305C43.765 164.715 43.6191 164.024 43.6191 163.232C43.6191 162.449 43.765 161.76 44.0566 161.163C44.3516 160.567 44.7626 160.101 45.2896 159.766C45.8199 159.432 46.4397 159.264 47.149 159.264C47.5798 159.264 47.9975 159.335 48.4018 159.478C48.8062 159.621 49.1691 159.844 49.4906 160.149C49.8121 160.454 50.0656 160.85 50.2512 161.337C50.4368 161.821 50.5297 162.41 50.5297 163.102V163.629H44.4593V162.516H49.073C49.073 162.125 48.9934 161.778 48.8343 161.477C48.6752 161.172 48.4515 160.931 48.1632 160.756C47.8781 160.58 47.5434 160.492 47.1589 160.492C46.7413 160.492 46.3767 160.595 46.0652 160.8C45.7569 161.003 45.5183 161.268 45.3493 161.596C45.1835 161.921 45.1007 162.274 45.1007 162.655V163.525C45.1007 164.035 45.1902 164.469 45.3691 164.827C45.5514 165.185 45.805 165.459 46.1298 165.648C46.4546 165.833 46.8341 165.926 47.2683 165.926C47.55 165.926 47.8069 165.886 48.0389 165.807C48.2709 165.724 48.4714 165.601 48.6404 165.439C48.8095 165.277 48.9387 165.076 49.0282 164.837L50.4352 165.091C50.3225 165.505 50.1203 165.868 49.8287 166.18C49.5403 166.488 49.1774 166.728 48.7399 166.901C48.3057 167.07 47.8102 167.154 47.2534 167.154ZM53.6655 162.466V167H52.179V159.364H53.6058V160.607H53.7003C53.8759 160.202 54.151 159.877 54.5256 159.632C54.9034 159.387 55.379 159.264 55.9524 159.264C56.4728 159.264 56.9285 159.374 57.3196 159.592C57.7107 159.808 58.014 160.129 58.2294 160.557C58.4448 160.984 58.5526 161.513 58.5526 162.143V167H57.0661V162.322C57.0661 161.768 56.9219 161.336 56.6335 161.024C56.3452 160.709 55.9491 160.552 55.4453 160.552C55.1006 160.552 54.794 160.626 54.5256 160.776C54.2604 160.925 54.05 161.143 53.8942 161.432C53.7417 161.717 53.6655 162.062 53.6655 162.466ZM66.2685 161.228L64.9212 161.467C64.8648 161.294 64.7753 161.13 64.6527 160.974C64.5334 160.819 64.371 160.691 64.1655 160.592C63.96 160.492 63.7031 160.442 63.3949 160.442C62.974 160.442 62.6226 160.537 62.3409 160.726C62.0592 160.911 61.9183 161.152 61.9183 161.447C61.9183 161.702 62.0128 161.907 62.2017 162.063C62.3906 162.219 62.6955 162.347 63.1165 162.446L64.3295 162.724C65.0322 162.887 65.5559 163.137 65.9006 163.475C66.2453 163.813 66.4176 164.252 66.4176 164.793C66.4176 165.25 66.285 165.658 66.0199 166.016C65.758 166.37 65.3918 166.649 64.9212 166.851C64.4538 167.053 63.9119 167.154 63.2955 167.154C62.4403 167.154 61.7427 166.972 61.2024 166.607C60.6622 166.239 60.3307 165.717 60.2081 165.041L61.6449 164.822C61.7344 165.197 61.9183 165.48 62.1967 165.673C62.4751 165.862 62.8381 165.956 63.2855 165.956C63.7727 165.956 64.1622 165.855 64.4538 165.653C64.7455 165.447 64.8913 165.197 64.8913 164.902C64.8913 164.663 64.8018 164.463 64.6229 164.3C64.4472 164.138 64.1771 164.015 63.8125 163.933L62.5199 163.649C61.8073 163.487 61.2803 163.228 60.9389 162.874C60.6009 162.519 60.4318 162.07 60.4318 161.526C60.4318 161.076 60.5578 160.681 60.8097 160.343C61.0616 160.005 61.4096 159.741 61.8537 159.553C62.2978 159.36 62.8066 159.264 63.38 159.264C64.2053 159.264 64.8549 159.443 65.3288 159.801C65.8028 160.156 66.116 160.631 66.2685 161.228ZM68.052 167V159.364H69.5385V167H68.052ZM68.8027 158.185C68.5442 158.185 68.3221 158.099 68.1365 157.927C67.9542 157.751 67.8631 157.542 67.8631 157.3C67.8631 157.055 67.9542 156.846 68.1365 156.674C68.3221 156.498 68.5442 156.411 68.8027 156.411C69.0613 156.411 69.2817 156.498 69.464 156.674C69.6496 156.846 69.7424 157.055 69.7424 157.3C69.7424 157.542 69.6496 157.751 69.464 157.927C69.2817 158.099 69.0613 158.185 68.8027 158.185ZM74.755 167.154C74.0391 167.154 73.4143 166.99 72.8807 166.662C72.3471 166.334 71.9328 165.875 71.6378 165.285C71.3428 164.695 71.1953 164.005 71.1953 163.217C71.1953 162.424 71.3428 161.732 71.6378 161.138C71.9328 160.545 72.3471 160.085 72.8807 159.756C73.4143 159.428 74.0391 159.264 74.755 159.264C75.4709 159.264 76.0956 159.428 76.6293 159.756C77.1629 160.085 77.5772 160.545 77.8722 161.138C78.1671 161.732 78.3146 162.424 78.3146 163.217C78.3146 164.005 78.1671 164.695 77.8722 165.285C77.5772 165.875 77.1629 166.334 76.6293 166.662C76.0956 166.99 75.4709 167.154 74.755 167.154ZM74.7599 165.906C75.224 165.906 75.6084 165.784 75.9134 165.538C76.2183 165.293 76.4437 164.967 76.5895 164.559C76.7386 164.151 76.8132 163.702 76.8132 163.212C76.8132 162.724 76.7386 162.277 76.5895 161.869C76.4437 161.458 76.2183 161.129 75.9134 160.88C75.6084 160.631 75.224 160.507 74.7599 160.507C74.2926 160.507 73.9048 160.631 73.5966 160.88C73.2917 161.129 73.0646 161.458 72.9155 161.869C72.7696 162.277 72.6967 162.724 72.6967 163.212C72.6967 163.702 72.7696 164.151 72.9155 164.559C73.0646 164.967 73.2917 165.293 73.5966 165.538C73.9048 165.784 74.2926 165.906 74.7599 165.906ZM81.4604 162.466V167H79.9739V159.364H81.4007V160.607H81.4952C81.6709 160.202 81.946 159.877 82.3205 159.632C82.6983 159.387 83.1739 159.264 83.7473 159.264C84.2677 159.264 84.7234 159.374 85.1145 159.592C85.5056 159.808 85.8089 160.129 86.0243 160.557C86.2398 160.984 86.3475 161.513 86.3475 162.143V167H84.861V162.322C84.861 161.768 84.7168 161.336 84.4284 161.024C84.1401 160.709 83.744 160.552 83.2402 160.552C82.8955 160.552 82.589 160.626 82.3205 160.776C82.0553 160.925 81.8449 161.143 81.6891 161.432C81.5366 161.717 81.4604 162.062 81.4604 162.466ZM94.0634 161.228L92.7161 161.467C92.6597 161.294 92.5703 161.13 92.4476 160.974C92.3283 160.819 92.1659 160.691 91.9604 160.592C91.7549 160.492 91.498 160.442 91.1898 160.442C90.7689 160.442 90.4176 160.537 90.1358 160.726C89.8541 160.911 89.7132 161.152 89.7132 161.447C89.7132 161.702 89.8077 161.907 89.9966 162.063C90.1855 162.219 90.4905 162.347 90.9114 162.446L92.1245 162.724C92.8271 162.887 93.3508 163.137 93.6955 163.475C94.0402 163.813 94.2125 164.252 94.2125 164.793C94.2125 165.25 94.08 165.658 93.8148 166.016C93.553 166.37 93.1867 166.649 92.7161 166.851C92.2488 167.053 91.7069 167.154 91.0904 167.154C90.2353 167.154 89.5376 166.972 88.9973 166.607C88.4571 166.239 88.1257 165.717 88.003 165.041L89.4398 164.822C89.5293 165.197 89.7132 165.48 89.9917 165.673C90.2701 165.862 90.633 165.956 91.0804 165.956C91.5676 165.956 91.9571 165.855 92.2488 165.653C92.5404 165.447 92.6863 165.197 92.6863 164.902C92.6863 164.663 92.5968 164.463 92.4178 164.3C92.2421 164.138 91.972 164.015 91.6074 163.933L90.3148 163.649C89.6022 163.487 89.0752 163.228 88.7338 162.874C88.3958 162.519 88.2267 162.07 88.2267 161.526C88.2267 161.076 88.3527 160.681 88.6046 160.343C88.8565 160.005 89.2045 159.741 89.6486 159.553C90.0927 159.36 90.6015 159.264 91.1749 159.264C92.0002 159.264 92.6498 159.443 93.1238 159.801C93.5977 160.156 93.9109 160.631 94.0634 161.228Z" fill="#222222"/>
<path d="M288.4 164.202L287.692 163.494L293 158.187L298.308 163.494L297.6 164.202L293 159.602L288.4 164.202Z" fill="#222222"/>
<path d="M17.8807 208V200.727H20.3381C20.9086 200.727 21.375 200.83 21.7372 201.036C22.1018 201.24 22.3717 201.516 22.5469 201.864C22.7221 202.212 22.8097 202.6 22.8097 203.028C22.8097 203.457 22.7221 203.846 22.5469 204.197C22.3741 204.547 22.1065 204.826 21.7443 205.035C21.3821 205.241 20.9181 205.344 20.3523 205.344H18.5909V204.562H20.3239C20.7145 204.562 21.0282 204.495 21.2649 204.36C21.5017 204.225 21.6733 204.043 21.7798 203.813C21.8887 203.581 21.9432 203.32 21.9432 203.028C21.9432 202.737 21.8887 202.477 21.7798 202.247C21.6733 202.018 21.5005 201.838 21.2614 201.707C21.0223 201.575 20.705 201.509 20.3097 201.509H18.7614V208H17.8807ZM26.272 208.114C25.7796 208.114 25.3475 207.996 24.9759 207.762C24.6065 207.528 24.3177 207.2 24.1094 206.778C23.9034 206.357 23.8004 205.865 23.8004 205.301C23.8004 204.733 23.9034 204.237 24.1094 203.813C24.3177 203.389 24.6065 203.06 24.9759 202.826C25.3475 202.592 25.7796 202.474 26.272 202.474C26.7644 202.474 27.1953 202.592 27.5646 202.826C27.9363 203.06 28.2251 203.389 28.4311 203.813C28.6394 204.237 28.7436 204.733 28.7436 205.301C28.7436 205.865 28.6394 206.357 28.4311 206.778C28.2251 207.2 27.9363 207.528 27.5646 207.762C27.1953 207.996 26.7644 208.114 26.272 208.114ZM26.272 207.361C26.6461 207.361 26.9538 207.265 27.1953 207.073C27.4368 206.881 27.6155 206.629 27.7315 206.317C27.8475 206.004 27.9055 205.666 27.9055 205.301C27.9055 204.937 27.8475 204.597 27.7315 204.282C27.6155 203.967 27.4368 203.713 27.1953 203.518C26.9538 203.324 26.6461 203.227 26.272 203.227C25.898 203.227 25.5902 203.324 25.3487 203.518C25.1072 203.713 24.9285 203.967 24.8125 204.282C24.6965 204.597 24.6385 204.937 24.6385 205.301C24.6385 205.666 24.6965 206.004 24.8125 206.317C24.9285 206.629 25.1072 206.881 25.3487 207.073C25.5902 207.265 25.898 207.361 26.272 207.361ZM33.8865 203.767L33.1337 203.98C33.0864 203.855 33.0165 203.733 32.9242 203.614C32.8342 203.494 32.7111 203.394 32.5549 203.316C32.3986 203.238 32.1986 203.199 31.9547 203.199C31.6209 203.199 31.3427 203.276 31.1202 203.43C30.9 203.581 30.79 203.774 30.79 204.009C30.79 204.217 30.8657 204.381 31.0172 204.502C31.1687 204.623 31.4055 204.723 31.7275 204.804L32.5371 205.003C33.0248 205.121 33.3882 205.302 33.6273 205.546C33.8664 205.788 33.986 206.099 33.986 206.48C33.986 206.793 33.896 207.072 33.7161 207.318C33.5385 207.564 33.29 207.759 32.9703 207.901C32.6507 208.043 32.2791 208.114 31.8553 208.114C31.2989 208.114 30.8385 207.993 30.4739 207.751C30.1093 207.51 29.8785 207.157 29.7814 206.693L30.5769 206.494C30.6526 206.788 30.7959 207.008 31.0066 207.155C31.2196 207.302 31.4978 207.375 31.8411 207.375C32.2317 207.375 32.5418 207.292 32.7715 207.126C33.0035 206.958 33.1195 206.757 33.1195 206.523C33.1195 206.333 33.0532 206.175 32.9206 206.047C32.7881 205.917 32.5845 205.82 32.3098 205.756L31.4007 205.543C30.9012 205.424 30.5343 205.241 30.2999 204.992C30.0679 204.741 29.9519 204.428 29.9519 204.051C29.9519 203.743 30.0383 203.471 30.2111 203.234C30.3863 202.998 30.6242 202.812 30.9249 202.677C31.2279 202.542 31.5712 202.474 31.9547 202.474C32.4945 202.474 32.9183 202.593 33.226 202.83C33.5362 203.066 33.7563 203.379 33.8865 203.767ZM35.2475 208V202.545H36.0856V208H35.2475ZM35.6737 201.636C35.5103 201.636 35.3694 201.581 35.2511 201.469C35.1351 201.358 35.0771 201.224 35.0771 201.068C35.0771 200.912 35.1351 200.778 35.2511 200.667C35.3694 200.556 35.5103 200.5 35.6737 200.5C35.837 200.5 35.9767 200.556 36.0927 200.667C36.2111 200.778 36.2702 200.912 36.2702 201.068C36.2702 201.224 36.2111 201.358 36.0927 201.469C35.9767 201.581 35.837 201.636 35.6737 201.636ZM39.9927 202.545V203.256H37.166V202.545H39.9927ZM37.9899 201.239H38.8279V206.438C38.8279 206.674 38.8623 206.852 38.9309 206.97C39.002 207.086 39.0919 207.164 39.2008 207.205C39.3121 207.242 39.4293 207.261 39.5524 207.261C39.6447 207.261 39.7205 207.257 39.7797 207.247C39.8388 207.235 39.8862 207.226 39.9217 207.219L40.0922 207.972C40.0353 207.993 39.956 208.014 39.8542 208.036C39.7524 208.059 39.6234 208.071 39.4672 208.071C39.2304 208.071 38.9984 208.02 38.7711 207.918C38.5462 207.817 38.3592 207.661 38.21 207.453C38.0633 207.245 37.9899 206.982 37.9899 206.665V201.239ZM41.2534 208V202.545H42.0914V208H41.2534ZM41.6795 201.636C41.5162 201.636 41.3753 201.581 41.2569 201.469C41.1409 201.358 41.0829 201.224 41.0829 201.068C41.0829 200.912 41.1409 200.778 41.2569 200.667C41.3753 200.556 41.5162 200.5 41.6795 200.5C41.8429 200.5 41.9825 200.556 42.0985 200.667C42.2169 200.778 42.2761 200.912 42.2761 201.068C42.2761 201.224 42.2169 201.358 42.0985 201.469C41.9825 201.581 41.8429 201.636 41.6795 201.636ZM45.8423 208.114C45.3499 208.114 44.9179 207.996 44.5462 207.762C44.1768 207.528 43.888 207.2 43.6797 206.778C43.4737 206.357 43.3707 205.865 43.3707 205.301C43.3707 204.733 43.4737 204.237 43.6797 203.813C43.888 203.389 44.1768 203.06 44.5462 202.826C44.9179 202.592 45.3499 202.474 45.8423 202.474C46.3348 202.474 46.7656 202.592 47.1349 202.826C47.5066 203.06 47.7955 203.389 48.0014 203.813C48.2098 204.237 48.3139 204.733 48.3139 205.301C48.3139 205.865 48.2098 206.357 48.0014 206.778C47.7955 207.2 47.5066 207.528 47.1349 207.762C46.7656 207.996 46.3348 208.114 45.8423 208.114ZM45.8423 207.361C46.2164 207.361 46.5241 207.265 46.7656 207.073C47.0071 206.881 47.1858 206.629 47.3018 206.317C47.4179 206.004 47.4759 205.666 47.4759 205.301C47.4759 204.937 47.4179 204.597 47.3018 204.282C47.1858 203.967 47.0071 203.713 46.7656 203.518C46.5241 203.324 46.2164 203.227 45.8423 203.227C45.4683 203.227 45.1605 203.324 44.919 203.518C44.6776 203.713 44.4988 203.967 44.3828 204.282C44.2668 204.597 44.2088 204.937 44.2088 205.301C44.2088 205.666 44.2668 206.004 44.3828 206.317C44.4988 206.629 44.6776 206.881 44.919 207.073C45.1605 207.265 45.4683 207.361 45.8423 207.361ZM50.4313 204.719V208H49.5932V202.545H50.4029V203.398H50.4739C50.6017 203.121 50.7959 202.898 51.0563 202.73C51.3167 202.56 51.6529 202.474 52.0648 202.474C52.4341 202.474 52.7573 202.55 53.0343 202.702C53.3113 202.851 53.5267 203.078 53.6806 203.384C53.8345 203.687 53.9114 204.07 53.9114 204.534V208H53.0733V204.591C53.0733 204.162 52.9621 203.829 52.7395 203.589C52.517 203.348 52.2116 203.227 51.8233 203.227C51.5558 203.227 51.3167 203.285 51.106 203.401C50.8977 203.517 50.7331 203.687 50.6124 203.909C50.4917 204.132 50.4313 204.402 50.4313 204.719Z" fill="#222222"/>
<rect width="88" height="32" transform="translate(121 188)" fill="#F7F7F7"/>
<path d="M130.807 200.727L132.682 203.753H132.739L134.614 200.727H135.651L133.364 204.364L135.651 208H134.614L132.739 205.031H132.682L130.807 208H129.77L132.114 204.364L129.77 200.727H130.807Z" fill="#808080"/>
<path d="M156.631 208.119C156.131 208.119 155.68 208.02 155.28 207.821C154.879 207.622 154.558 207.349 154.317 207.003C154.075 206.656 153.943 206.261 153.92 205.818H154.943C154.983 206.213 155.162 206.54 155.48 206.798C155.801 207.054 156.185 207.182 156.631 207.182C156.989 207.182 157.307 207.098 157.585 206.93C157.866 206.763 158.087 206.533 158.246 206.24C158.408 205.945 158.489 205.611 158.489 205.239C158.489 204.858 158.405 204.518 158.237 204.22C158.072 203.919 157.845 203.682 157.555 203.509C157.266 203.335 156.935 203.247 156.562 203.244C156.295 203.241 156.021 203.283 155.74 203.368C155.459 203.45 155.227 203.557 155.045 203.688L154.057 203.568L154.585 199.273H159.119V200.21H155.472L155.165 202.784H155.216C155.395 202.642 155.619 202.524 155.889 202.43C156.159 202.337 156.44 202.29 156.733 202.29C157.267 202.29 157.743 202.418 158.161 202.673C158.581 202.926 158.911 203.273 159.149 203.713C159.391 204.153 159.511 204.656 159.511 205.222C159.511 205.778 159.386 206.276 159.136 206.713C158.889 207.148 158.548 207.491 158.114 207.744C157.679 207.994 157.185 208.119 156.631 208.119ZM164.051 208.119C163.409 208.119 162.862 207.945 162.41 207.595C161.958 207.243 161.613 206.733 161.375 206.065C161.136 205.395 161.017 204.585 161.017 203.636C161.017 202.693 161.136 201.888 161.375 201.22C161.616 200.55 161.963 200.038 162.414 199.686C162.869 199.331 163.414 199.153 164.051 199.153C164.687 199.153 165.231 199.331 165.683 199.686C166.137 200.038 166.484 200.55 166.723 201.22C166.964 201.888 167.085 202.693 167.085 203.636C167.085 204.585 166.966 205.395 166.727 206.065C166.488 206.733 166.143 207.243 165.691 207.595C165.24 207.945 164.693 208.119 164.051 208.119ZM164.051 207.182C164.687 207.182 165.181 206.875 165.534 206.261C165.886 205.648 166.062 204.773 166.062 203.636C166.062 202.881 165.981 202.237 165.819 201.706C165.66 201.175 165.43 200.77 165.129 200.491C164.831 200.213 164.471 200.074 164.051 200.074C163.42 200.074 162.927 200.385 162.572 201.007C162.217 201.626 162.039 202.503 162.039 203.636C162.039 204.392 162.119 205.034 162.278 205.562C162.437 206.091 162.666 206.493 162.964 206.768C163.265 207.044 163.627 207.182 164.051 207.182ZM171.551 208.119C170.909 208.119 170.362 207.945 169.91 207.595C169.458 207.243 169.113 206.733 168.875 206.065C168.636 205.395 168.517 204.585 168.517 203.636C168.517 202.693 168.636 201.888 168.875 201.22C169.116 200.55 169.463 200.038 169.914 199.686C170.369 199.331 170.914 199.153 171.551 199.153C172.187 199.153 172.731 199.331 173.183 199.686C173.637 200.038 173.984 200.55 174.223 201.22C174.464 201.888 174.585 202.693 174.585 203.636C174.585 204.585 174.466 205.395 174.227 206.065C173.988 206.733 173.643 207.243 173.191 207.595C172.74 207.945 172.193 208.119 171.551 208.119ZM171.551 207.182C172.187 207.182 172.681 206.875 173.034 206.261C173.386 205.648 173.562 204.773 173.562 203.636C173.562 202.881 173.481 202.237 173.319 201.706C173.16 201.175 172.93 200.77 172.629 200.491C172.331 200.213 171.971 200.074 171.551 200.074C170.92 200.074 170.427 200.385 170.072 201.007C169.717 201.626 169.539 202.503 169.539 203.636C169.539 204.392 169.619 205.034 169.778 205.562C169.937 206.091 170.166 206.493 170.464 206.768C170.765 207.044 171.127 207.182 171.551 207.182Z" fill="#222222"/>
<rect width="88" height="32" transform="translate(217 188)" fill="#F7F7F7"/>
<path d="M225.756 200.727H226.764L228.781 204.122H228.866L230.884 200.727H231.892L229.264 205.003V208H228.384V205.003L225.756 200.727Z" fill="#808080"/>
<path d="M252.631 208.119C252.131 208.119 251.68 208.02 251.28 207.821C250.879 207.622 250.558 207.349 250.317 207.003C250.075 206.656 249.943 206.261 249.92 205.818H250.943C250.983 206.213 251.162 206.54 251.48 206.798C251.801 207.054 252.185 207.182 252.631 207.182C252.989 207.182 253.307 207.098 253.585 206.93C253.866 206.763 254.087 206.533 254.246 206.24C254.408 205.945 254.489 205.611 254.489 205.239C254.489 204.858 254.405 204.518 254.237 204.22C254.072 203.919 253.845 203.682 253.555 203.509C253.266 203.335 252.935 203.247 252.562 203.244C252.295 203.241 252.021 203.283 251.74 203.368C251.459 203.45 251.227 203.557 251.045 203.688L250.057 203.568L250.585 199.273H255.119V200.21H251.472L251.165 202.784H251.216C251.395 202.642 251.619 202.524 251.889 202.43C252.159 202.337 252.44 202.29 252.733 202.29C253.267 202.29 253.743 202.418 254.161 202.673C254.581 202.926 254.911 203.273 255.149 203.713C255.391 204.153 255.511 204.656 255.511 205.222C255.511 205.778 255.386 206.276 255.136 206.713C254.889 207.148 254.548 207.491 254.114 207.744C253.679 207.994 253.185 208.119 252.631 208.119ZM260.051 208.119C259.409 208.119 258.862 207.945 258.41 207.595C257.958 207.243 257.613 206.733 257.375 206.065C257.136 205.395 257.017 204.585 257.017 203.636C257.017 202.693 257.136 201.888 257.375 201.22C257.616 200.55 257.963 200.038 258.414 199.686C258.869 199.331 259.414 199.153 260.051 199.153C260.687 199.153 261.231 199.331 261.683 199.686C262.137 200.038 262.484 200.55 262.723 201.22C262.964 201.888 263.085 202.693 263.085 203.636C263.085 204.585 262.966 205.395 262.727 206.065C262.488 206.733 262.143 207.243 261.691 207.595C261.24 207.945 260.693 208.119 260.051 208.119ZM260.051 207.182C260.687 207.182 261.181 206.875 261.534 206.261C261.886 205.648 262.062 204.773 262.062 203.636C262.062 202.881 261.981 202.237 261.819 201.706C261.66 201.175 261.43 200.77 261.129 200.491C260.831 200.213 260.471 200.074 260.051 200.074C259.42 200.074 258.927 200.385 258.572 201.007C258.217 201.626 258.039 202.503 258.039 203.636C258.039 204.392 258.119 205.034 258.278 205.562C258.437 206.091 258.666 206.493 258.964 206.768C259.265 207.044 259.627 207.182 260.051 207.182ZM267.551 208.119C266.909 208.119 266.362 207.945 265.91 207.595C265.458 207.243 265.113 206.733 264.875 206.065C264.636 205.395 264.517 204.585 264.517 203.636C264.517 202.693 264.636 201.888 264.875 201.22C265.116 200.55 265.463 200.038 265.914 199.686C266.369 199.331 266.914 199.153 267.551 199.153C268.187 199.153 268.731 199.331 269.183 199.686C269.637 200.038 269.984 200.55 270.223 201.22C270.464 201.888 270.585 202.693 270.585 203.636C270.585 204.585 270.466 205.395 270.227 206.065C269.988 206.733 269.643 207.243 269.191 207.595C268.74 207.945 268.193 208.119 267.551 208.119ZM267.551 207.182C268.187 207.182 268.681 206.875 269.034 206.261C269.386 205.648 269.562 204.773 269.562 203.636C269.562 202.881 269.481 202.237 269.319 201.706C269.16 201.175 268.93 200.77 268.629 200.491C268.331 200.213 267.971 200.074 267.551 200.074C266.92 200.074 266.427 200.385 266.072 201.007C265.717 201.626 265.539 202.503 265.539 203.636C265.539 204.392 265.619 205.034 265.778 205.562C265.937 206.091 266.166 206.493 266.464 206.768C266.765 207.044 267.127 207.182 267.551 207.182Z" fill="#222222"/>
<path d="M21.858 242.545C21.8153 242.186 21.6425 241.906 21.3395 241.707C21.0365 241.509 20.6648 241.409 20.2244 241.409C19.9025 241.409 19.6207 241.461 19.3793 241.565C19.1402 241.67 18.9531 241.813 18.8182 241.995C18.6856 242.177 18.6193 242.384 18.6193 242.616C18.6193 242.811 18.6655 242.978 18.7578 243.117C18.8525 243.254 18.9732 243.369 19.12 243.462C19.2668 243.552 19.4207 243.626 19.5817 243.685C19.7427 243.742 19.8906 243.788 20.0256 243.824L20.7642 244.023C20.9536 244.072 21.1643 244.141 21.3963 244.229C21.6307 244.316 21.8544 244.436 22.0675 244.587C22.2829 244.737 22.4605 244.928 22.6001 245.163C22.7398 245.397 22.8097 245.685 22.8097 246.026C22.8097 246.419 22.7067 246.774 22.5007 247.091C22.2971 247.408 21.9988 247.66 21.6058 247.847C21.2152 248.034 20.7405 248.128 20.1818 248.128C19.661 248.128 19.21 248.044 18.8288 247.876C18.45 247.708 18.1518 247.473 17.9339 247.173C17.7185 246.872 17.5966 246.523 17.5682 246.125H18.4773C18.5009 246.4 18.5933 246.627 18.7543 246.807C18.9176 246.984 19.1236 247.117 19.3722 247.205C19.6231 247.29 19.893 247.332 20.1818 247.332C20.518 247.332 20.8198 247.278 21.0874 247.169C21.3549 247.058 21.5668 246.904 21.723 246.707C21.8793 246.509 21.9574 246.277 21.9574 246.011C21.9574 245.77 21.8899 245.573 21.755 245.422C21.62 245.27 21.4425 245.147 21.2223 245.053C21.0021 244.958 20.7642 244.875 20.5085 244.804L19.6136 244.548C19.0455 244.385 18.5956 244.152 18.2642 243.849C17.9328 243.546 17.767 243.149 17.767 242.659C17.767 242.252 17.8771 241.897 18.0973 241.594C18.3198 241.288 18.6181 241.052 18.9922 240.884C19.3686 240.713 19.7888 240.628 20.2528 240.628C20.7216 240.628 21.1383 240.712 21.5028 240.88C21.8674 241.046 22.1563 241.273 22.3693 241.562C22.5848 241.851 22.6984 242.179 22.7102 242.545H21.858ZM24.144 248V242.545H24.9821V248H24.144ZM24.5701 241.636C24.4068 241.636 24.2659 241.581 24.1475 241.469C24.0315 241.358 23.9735 241.224 23.9735 241.068C23.9735 240.912 24.0315 240.778 24.1475 240.667C24.2659 240.556 24.4068 240.5 24.5701 240.5C24.7335 240.5 24.8732 240.556 24.9892 240.667C25.1075 240.778 25.1667 240.912 25.1667 241.068C25.1667 241.224 25.1075 241.358 24.9892 241.469C24.8732 241.581 24.7335 241.636 24.5701 241.636ZM26.3608 248V247.361L29.4574 243.384V243.327H26.4602V242.545H30.5369V243.213L27.5256 247.162V247.219H30.6364V248H26.3608ZM34.0579 248.114C33.5323 248.114 33.079 247.998 32.6978 247.766C32.319 247.531 32.0266 247.205 31.8207 246.786C31.6171 246.364 31.5153 245.874 31.5153 245.315C31.5153 244.757 31.6171 244.264 31.8207 243.838C32.0266 243.41 32.3131 243.076 32.68 242.837C33.0494 242.595 33.4802 242.474 33.9727 242.474C34.2567 242.474 34.5373 242.522 34.8143 242.616C35.0913 242.711 35.3434 242.865 35.5707 243.078C35.7979 243.289 35.979 243.568 36.114 243.916C36.2489 244.264 36.3164 244.693 36.3164 245.202V245.557H32.1119V244.832H35.4641C35.4641 244.525 35.4026 244.25 35.2795 244.009C35.1587 243.767 34.9859 243.576 34.761 243.437C34.5385 243.297 34.2757 243.227 33.9727 243.227C33.6388 243.227 33.35 243.31 33.1062 243.476C32.8647 243.639 32.6789 243.852 32.5487 244.115C32.4184 244.378 32.3533 244.66 32.3533 244.96V245.443C32.3533 245.855 32.4244 246.204 32.5664 246.491C32.7108 246.775 32.9109 246.991 33.1665 247.141C33.4222 247.287 33.7193 247.361 34.0579 247.361C34.2781 247.361 34.4769 247.33 34.6545 247.268C34.8344 247.205 34.9895 247.11 35.1197 246.984C35.2499 246.857 35.3505 246.698 35.4215 246.509L36.2312 246.736C36.146 247.01 36.0027 247.252 35.8015 247.46C35.6003 247.666 35.3517 247.827 35.0558 247.943C34.7598 248.057 34.4272 248.114 34.0579 248.114Z" fill="#222222"/>
<rect width="88" height="32" transform="translate(121 228)" fill="#F7F7F7"/>
<path d="M131.702 248L129.713 240.727H130.608L132.128 246.651H132.199L133.747 240.727H134.741L136.29 246.651H136.361L137.881 240.727H138.776L136.787 248H135.878L134.273 242.205H134.216L132.611 248H131.702Z" fill="#808080"/>
<path d="M156.631 248.119C156.131 248.119 155.68 248.02 155.28 247.821C154.879 247.622 154.558 247.349 154.317 247.003C154.075 246.656 153.943 246.261 153.92 245.818H154.943C154.983 246.213 155.162 246.54 155.48 246.798C155.801 247.054 156.185 247.182 156.631 247.182C156.989 247.182 157.307 247.098 157.585 246.93C157.866 246.763 158.087 246.533 158.246 246.24C158.408 245.945 158.489 245.611 158.489 245.239C158.489 244.858 158.405 244.518 158.237 244.22C158.072 243.919 157.845 243.682 157.555 243.509C157.266 243.335 156.935 243.247 156.562 243.244C156.295 243.241 156.021 243.283 155.74 243.368C155.459 243.45 155.227 243.557 155.045 243.688L154.057 243.568L154.585 239.273H159.119V240.21H155.472L155.165 242.784H155.216C155.395 242.642 155.619 242.524 155.889 242.43C156.159 242.337 156.44 242.29 156.733 242.29C157.267 242.29 157.743 242.418 158.161 242.673C158.581 242.926 158.911 243.273 159.149 243.713C159.391 244.153 159.511 244.656 159.511 245.222C159.511 245.778 159.386 246.276 159.136 246.713C158.889 247.148 158.548 247.491 158.114 247.744C157.679 247.994 157.185 248.119 156.631 248.119ZM164.051 248.119C163.409 248.119 162.862 247.945 162.41 247.595C161.958 247.243 161.613 246.733 161.375 246.065C161.136 245.395 161.017 244.585 161.017 243.636C161.017 242.693 161.136 241.888 161.375 241.22C161.616 240.55 161.963 240.038 162.414 239.686C162.869 239.331 163.414 239.153 164.051 239.153C164.687 239.153 165.231 239.331 165.683 239.686C166.137 240.038 166.484 240.55 166.723 241.22C166.964 241.888 167.085 242.693 167.085 243.636C167.085 244.585 166.966 245.395 166.727 246.065C166.488 246.733 166.143 247.243 165.691 247.595C165.24 247.945 164.693 248.119 164.051 248.119ZM164.051 247.182C164.687 247.182 165.181 246.875 165.534 246.261C165.886 245.648 166.062 244.773 166.062 243.636C166.062 242.881 165.981 242.237 165.819 241.706C165.66 241.175 165.43 240.77 165.129 240.491C164.831 240.213 164.471 240.074 164.051 240.074C163.42 240.074 162.927 240.385 162.572 241.007C162.217 241.626 162.039 242.503 162.039 243.636C162.039 244.392 162.119 245.034 162.278 245.562C162.437 246.091 162.666 246.493 162.964 246.768C163.265 247.044 163.627 247.182 164.051 247.182ZM171.551 248.119C170.909 248.119 170.362 247.945 169.91 247.595C169.458 247.243 169.113 246.733 168.875 246.065C168.636 245.395 168.517 244.585 168.517 243.636C168.517 242.693 168.636 241.888 168.875 241.22C169.116 240.55 169.463 240.038 169.914 239.686C170.369 239.331 170.914 239.153 171.551 239.153C172.187 239.153 172.731 239.331 173.183 239.686C173.637 240.038 173.984 240.55 174.223 241.22C174.464 241.888 174.585 242.693 174.585 243.636C174.585 244.585 174.466 245.395 174.227 246.065C173.988 246.733 173.643 247.243 173.191 247.595C172.74 247.945 172.193 248.119 171.551 248.119ZM171.551 247.182C172.187 247.182 172.681 246.875 173.034 246.261C173.386 245.648 173.562 244.773 173.562 243.636C173.562 242.881 173.481 242.237 173.319 241.706C173.16 241.175 172.93 240.77 172.629 240.491C172.331 240.213 171.971 240.074 171.551 240.074C170.92 240.074 170.427 240.385 170.072 241.007C169.717 241.626 169.539 242.503 169.539 243.636C169.539 244.392 169.619 245.034 169.778 245.562C169.937 246.091 170.166 246.493 170.464 246.768C170.765 247.044 171.127 247.182 171.551 247.182Z" fill="#222222"/>
<rect width="88" height="32" transform="translate(217 228)" fill="#F7F7F7"/>
<path d="M226.381 248V240.727H227.261V243.966H231.139V240.727H232.02V248H231.139V244.747H227.261V248H226.381Z" fill="#808080"/>
<path d="M252.631 248.119C252.131 248.119 251.68 248.02 251.28 247.821C250.879 247.622 250.558 247.349 250.317 247.003C250.075 246.656 249.943 246.261 249.92 245.818H250.943C250.983 246.213 251.162 246.54 251.48 246.798C251.801 247.054 252.185 247.182 252.631 247.182C252.989 247.182 253.307 247.098 253.585 246.93C253.866 246.763 254.087 246.533 254.246 246.24C254.408 245.945 254.489 245.611 254.489 245.239C254.489 244.858 254.405 244.518 254.237 244.22C254.072 243.919 253.845 243.682 253.555 243.509C253.266 243.335 252.935 243.247 252.562 243.244C252.295 243.241 252.021 243.283 251.74 243.368C251.459 243.45 251.227 243.557 251.045 243.688L250.057 243.568L250.585 239.273H255.119V240.21H251.472L251.165 242.784H251.216C251.395 242.642 251.619 242.524 251.889 242.43C252.159 242.337 252.44 242.29 252.733 242.29C253.267 242.29 253.743 242.418 254.161 242.673C254.581 242.926 254.911 243.273 255.149 243.713C255.391 244.153 255.511 244.656 255.511 245.222C255.511 245.778 255.386 246.276 255.136 246.713C254.889 247.148 254.548 247.491 254.114 247.744C253.679 247.994 253.185 248.119 252.631 248.119ZM260.051 248.119C259.409 248.119 258.862 247.945 258.41 247.595C257.958 247.243 257.613 246.733 257.375 246.065C257.136 245.395 257.017 244.585 257.017 243.636C257.017 242.693 257.136 241.888 257.375 241.22C257.616 240.55 257.963 240.038 258.414 239.686C258.869 239.331 259.414 239.153 260.051 239.153C260.687 239.153 261.231 239.331 261.683 239.686C262.137 240.038 262.484 240.55 262.723 241.22C262.964 241.888 263.085 242.693 263.085 243.636C263.085 244.585 262.966 245.395 262.727 246.065C262.488 246.733 262.143 247.243 261.691 247.595C261.24 247.945 260.693 248.119 260.051 248.119ZM260.051 247.182C260.687 247.182 261.181 246.875 261.534 246.261C261.886 245.648 262.062 244.773 262.062 243.636C262.062 242.881 261.981 242.237 261.819 241.706C261.66 241.175 261.43 240.77 261.129 240.491C260.831 240.213 260.471 240.074 260.051 240.074C259.42 240.074 258.927 240.385 258.572 241.007C258.217 241.626 258.039 242.503 258.039 243.636C258.039 244.392 258.119 245.034 258.278 245.562C258.437 246.091 258.666 246.493 258.964 246.768C259.265 247.044 259.627 247.182 260.051 247.182ZM267.551 248.119C266.909 248.119 266.362 247.945 265.91 247.595C265.458 247.243 265.113 246.733 264.875 246.065C264.636 245.395 264.517 244.585 264.517 243.636C264.517 242.693 264.636 241.888 264.875 241.22C265.116 240.55 265.463 240.038 265.914 239.686C266.369 239.331 266.914 239.153 267.551 239.153C268.187 239.153 268.731 239.331 269.183 239.686C269.637 240.038 269.984 240.55 270.223 241.22C270.464 241.888 270.585 242.693 270.585 243.636C270.585 244.585 270.466 245.395 270.227 246.065C269.988 246.733 269.643 247.243 269.191 247.595C268.74 247.945 268.193 248.119 267.551 248.119ZM267.551 247.182C268.187 247.182 268.681 246.875 269.034 246.261C269.386 245.648 269.562 244.773 269.562 243.636C269.562 242.881 269.481 242.237 269.319 241.706C269.16 241.175 268.93 240.77 268.629 240.491C268.331 240.213 267.971 240.074 267.551 240.074C266.92 240.074 266.427 240.385 266.072 241.007C265.717 241.626 265.539 242.503 265.539 243.636C265.539 244.392 265.619 245.034 265.778 245.562C265.937 246.091 266.166 246.493 266.464 246.768C266.765 247.044 267.127 247.182 267.551 247.182Z" fill="#222222"/>
<path d="M17.8807 288V280.727H20.3381C20.9063 280.727 21.3726 280.824 21.7372 281.018C22.1018 281.21 22.3717 281.474 22.5469 281.81C22.7221 282.147 22.8097 282.529 22.8097 282.957C22.8097 283.386 22.7221 283.766 22.5469 284.097C22.3717 284.429 22.103 284.689 21.7408 284.879C21.3786 285.066 20.9157 285.159 20.3523 285.159H18.3636V284.364H20.3239C20.7121 284.364 21.0246 284.307 21.2614 284.193C21.5005 284.08 21.6733 283.919 21.7798 283.71C21.8887 283.5 21.9432 283.249 21.9432 282.957C21.9432 282.666 21.8887 282.412 21.7798 282.194C21.6709 281.976 21.4969 281.808 21.2578 281.69C21.0187 281.569 20.7027 281.509 20.3097 281.509H18.7614V288H17.8807ZM21.304 284.733L23.0938 288H22.071L20.3097 284.733H21.304ZM26.3208 288.114C25.8284 288.114 25.3964 287.996 25.0247 287.762C24.6554 287.528 24.3665 287.2 24.1582 286.778C23.9522 286.357 23.8493 285.865 23.8493 285.301C23.8493 284.733 23.9522 284.237 24.1582 283.813C24.3665 283.389 24.6554 283.06 25.0247 282.826C25.3964 282.592 25.8284 282.474 26.3208 282.474C26.8133 282.474 27.2441 282.592 27.6135 282.826C27.9851 283.06 28.274 283.389 28.4799 283.813C28.6883 284.237 28.7924 284.733 28.7924 285.301C28.7924 285.865 28.6883 286.357 28.4799 286.778C28.274 287.2 27.9851 287.528 27.6135 287.762C27.2441 287.996 26.8133 288.114 26.3208 288.114ZM26.3208 287.361C26.6949 287.361 27.0027 287.265 27.2441 287.073C27.4856 286.881 27.6644 286.629 27.7804 286.317C27.8964 286.004 27.9544 285.666 27.9544 285.301C27.9544 284.937 27.8964 284.597 27.7804 284.282C27.6644 283.967 27.4856 283.713 27.2441 283.518C27.0027 283.324 26.6949 283.227 26.3208 283.227C25.9468 283.227 25.639 283.324 25.3975 283.518C25.1561 283.713 24.9773 283.967 24.8613 284.282C24.7453 284.597 24.6873 284.937 24.6873 285.301C24.6873 285.666 24.7453 286.004 24.8613 286.317C24.9773 286.629 25.1561 286.881 25.3975 287.073C25.639 287.265 25.9468 287.361 26.3208 287.361ZM32.4439 282.545V283.256H29.6172V282.545H32.4439ZM30.4411 281.239H31.2791V286.438C31.2791 286.674 31.3134 286.852 31.3821 286.97C31.4531 287.086 31.5431 287.164 31.652 287.205C31.7633 287.242 31.8804 287.261 32.0036 287.261C32.0959 287.261 32.1716 287.257 32.2308 287.247C32.29 287.235 32.3374 287.226 32.3729 287.219L32.5433 287.972C32.4865 287.993 32.4072 288.014 32.3054 288.036C32.2036 288.059 32.0746 288.071 31.9183 288.071C31.6816 288.071 31.4496 288.02 31.2223 287.918C30.9974 287.817 30.8104 287.661 30.6612 287.453C30.5144 287.245 30.4411 286.982 30.4411 286.665V281.239ZM35.3097 288.128C34.964 288.128 34.6503 288.063 34.3686 287.933C34.0869 287.8 33.8632 287.609 33.6974 287.361C33.5317 287.11 33.4489 286.807 33.4489 286.452C33.4489 286.139 33.5104 285.886 33.6335 285.692C33.7566 285.495 33.9212 285.341 34.1271 285.23C34.3331 285.119 34.5604 285.036 34.8089 284.982C35.0599 284.925 35.312 284.88 35.5653 284.847C35.8968 284.804 36.1655 284.772 36.3714 284.751C36.5798 284.727 36.7313 284.688 36.826 284.634C36.9231 284.579 36.9716 284.484 36.9716 284.349V284.321C36.9716 283.971 36.8757 283.698 36.6839 283.504C36.4946 283.31 36.2069 283.213 35.821 283.213C35.4209 283.213 35.1072 283.301 34.88 283.476C34.6527 283.651 34.4929 283.838 34.4006 284.037L33.6051 283.753C33.7472 283.421 33.9366 283.163 34.1733 282.979C34.4124 282.792 34.6728 282.661 34.9545 282.588C35.2386 282.512 35.518 282.474 35.7926 282.474C35.9678 282.474 36.169 282.496 36.3963 282.538C36.6259 282.579 36.8473 282.663 37.0604 282.79C37.2758 282.918 37.4545 283.111 37.5966 283.369C37.7386 283.627 37.8097 283.973 37.8097 284.406V288H36.9716V287.261H36.929C36.8722 287.38 36.7775 287.506 36.6449 287.641C36.5123 287.776 36.3359 287.891 36.1158 287.986C35.8956 288.08 35.6269 288.128 35.3097 288.128ZM35.4375 287.375C35.7689 287.375 36.0483 287.31 36.2756 287.18C36.5052 287.049 36.678 286.881 36.794 286.675C36.9124 286.469 36.9716 286.253 36.9716 286.026V285.259C36.9361 285.301 36.858 285.34 36.7372 285.376C36.6188 285.409 36.4815 285.438 36.3253 285.464C36.1714 285.488 36.0211 285.509 35.8743 285.528C35.7299 285.545 35.6127 285.559 35.5227 285.571C35.3049 285.599 35.1013 285.646 34.9119 285.71C34.7249 285.771 34.5734 285.865 34.4574 285.99C34.3438 286.113 34.2869 286.281 34.2869 286.494C34.2869 286.786 34.3946 287.006 34.6101 287.155C34.8279 287.302 35.1037 287.375 35.4375 287.375ZM41.7115 282.545V283.256H38.8848V282.545H41.7115ZM39.7086 281.239H40.5467V286.438C40.5467 286.674 40.581 286.852 40.6497 286.97C40.7207 287.086 40.8107 287.164 40.9196 287.205C41.0308 287.242 41.148 287.261 41.2711 287.261C41.3635 287.261 41.4392 287.257 41.4984 287.247C41.5576 287.235 41.6049 287.226 41.6404 287.219L41.8109 287.972C41.7541 287.993 41.6748 288.014 41.573 288.036C41.4712 288.059 41.3422 288.071 41.1859 288.071C40.9492 288.071 40.7172 288.02 40.4899 287.918C40.265 287.817 40.0779 287.661 39.9288 287.453C39.782 287.245 39.7086 286.982 39.7086 286.665V281.239ZM42.9721 288V282.545H43.8102V288H42.9721ZM43.3983 281.636C43.2349 281.636 43.094 281.581 42.9757 281.469C42.8597 281.358 42.8017 281.224 42.8017 281.068C42.8017 280.912 42.8597 280.778 42.9757 280.667C43.094 280.556 43.2349 280.5 43.3983 280.5C43.5616 280.5 43.7013 280.556 43.8173 280.667C43.9357 280.778 43.9949 280.912 43.9949 281.068C43.9949 281.224 43.9357 281.358 43.8173 281.469C43.7013 281.581 43.5616 281.636 43.3983 281.636ZM47.5611 288.114C47.0687 288.114 46.6366 287.996 46.2649 287.762C45.8956 287.528 45.6068 287.2 45.3984 286.778C45.1925 286.357 45.0895 285.865 45.0895 285.301C45.0895 284.733 45.1925 284.237 45.3984 283.813C45.6068 283.389 45.8956 283.06 46.2649 282.826C46.6366 282.592 47.0687 282.474 47.5611 282.474C48.0535 282.474 48.4844 282.592 48.8537 282.826C49.2254 283.06 49.5142 283.389 49.7202 283.813C49.9285 284.237 50.0327 284.733 50.0327 285.301C50.0327 285.865 49.9285 286.357 49.7202 286.778C49.5142 287.2 49.2254 287.528 48.8537 287.762C48.4844 287.996 48.0535 288.114 47.5611 288.114ZM47.5611 287.361C47.9351 287.361 48.2429 287.265 48.4844 287.073C48.7259 286.881 48.9046 286.629 49.0206 286.317C49.1366 286.004 49.1946 285.666 49.1946 285.301C49.1946 284.937 49.1366 284.597 49.0206 284.282C48.9046 283.967 48.7259 283.713 48.4844 283.518C48.2429 283.324 47.9351 283.227 47.5611 283.227C47.187 283.227 46.8793 283.324 46.6378 283.518C46.3963 283.713 46.2176 283.967 46.1016 284.282C45.9856 284.597 45.9276 284.937 45.9276 285.301C45.9276 285.666 45.9856 286.004 46.1016 286.317C46.2176 286.629 46.3963 286.881 46.6378 287.073C46.8793 287.265 47.187 287.361 47.5611 287.361ZM52.15 284.719V288H51.312V282.545H52.1216V283.398H52.1926C52.3205 283.121 52.5146 282.898 52.775 282.73C53.0355 282.56 53.3716 282.474 53.7836 282.474C54.1529 282.474 54.476 282.55 54.753 282.702C55.03 282.851 55.2454 283.078 55.3993 283.384C55.5532 283.687 55.6301 284.07 55.6301 284.534V288H54.7921V284.591C54.7921 284.162 54.6808 283.829 54.4583 283.589C54.2357 283.348 53.9303 283.227 53.5421 283.227C53.2746 283.227 53.0355 283.285 52.8248 283.401C52.6164 283.517 52.4519 283.687 52.3311 283.909C52.2104 284.132 52.15 284.402 52.15 284.719Z" fill="#222222"/>
<rect width="88" height="32" transform="translate(217 268)" fill="#F7F7F7"/>
<path d="M229.66 288.65C229.673 288.537 229.68 288.423 229.68 288.31C229.68 285.55 227.433 283.31 224.673 283.31C224.56 283.31 224.453 283.317 224.347 283.33V278.683H223.68V289.317H234.32V288.65H229.66ZM224.347 288.65V283.99C224.453 283.983 224.56 283.977 224.673 283.977C227.067 283.977 229.013 285.917 229.013 288.31C229.013 288.423 229.007 288.537 229 288.65H224.347Z" fill="#808080" stroke="#808080" stroke-width="0.333333" stroke-miterlimit="10"/>
<path d="M252.852 288.119C252.29 288.119 251.788 288.023 251.348 287.83C250.911 287.636 250.563 287.368 250.304 287.024C250.048 286.678 249.909 286.276 249.886 285.818H250.96C250.983 286.099 251.08 286.342 251.25 286.547C251.42 286.749 251.643 286.905 251.919 287.016C252.195 287.126 252.5 287.182 252.835 287.182C253.21 287.182 253.543 287.116 253.832 286.986C254.122 286.855 254.349 286.673 254.514 286.44C254.679 286.207 254.761 285.938 254.761 285.631C254.761 285.31 254.682 285.027 254.523 284.783C254.364 284.536 254.131 284.342 253.824 284.203C253.517 284.064 253.142 283.994 252.699 283.994H252V283.057H252.699C253.045 283.057 253.349 282.994 253.611 282.869C253.875 282.744 254.081 282.568 254.229 282.341C254.379 282.114 254.455 281.847 254.455 281.54C254.455 281.244 254.389 280.987 254.259 280.768C254.128 280.55 253.943 280.379 253.705 280.257C253.469 280.135 253.19 280.074 252.869 280.074C252.568 280.074 252.284 280.129 252.017 280.24C251.753 280.348 251.537 280.506 251.369 280.713C251.202 280.918 251.111 281.165 251.097 281.455H250.074C250.091 280.997 250.229 280.597 250.487 280.253C250.746 279.906 251.084 279.636 251.501 279.443C251.922 279.25 252.384 279.153 252.886 279.153C253.426 279.153 253.889 279.263 254.276 279.482C254.662 279.697 254.959 279.983 255.166 280.338C255.374 280.693 255.477 281.077 255.477 281.489C255.477 281.98 255.348 282.399 255.089 282.746C254.834 283.092 254.486 283.332 254.045 283.466V283.534C254.597 283.625 255.027 283.859 255.337 284.237C255.646 284.612 255.801 285.077 255.801 285.631C255.801 286.105 255.672 286.531 255.413 286.909C255.158 287.284 254.808 287.58 254.365 287.795C253.922 288.011 253.418 288.119 252.852 288.119ZM260.442 288.119C260.084 288.114 259.726 288.045 259.368 287.915C259.01 287.784 258.683 287.564 258.388 287.254C258.092 286.942 257.855 286.52 257.676 285.989C257.497 285.455 257.408 284.784 257.408 283.977C257.408 283.205 257.48 282.52 257.625 281.923C257.77 281.324 257.98 280.82 258.256 280.411C258.531 279.999 258.864 279.686 259.253 279.473C259.645 279.26 260.087 279.153 260.578 279.153C261.067 279.153 261.501 279.251 261.882 279.447C262.266 279.641 262.578 279.911 262.82 280.257C263.061 280.604 263.217 281.003 263.288 281.455H262.249C262.152 281.062 261.964 280.737 261.686 280.479C261.408 280.22 261.038 280.091 260.578 280.091C259.902 280.091 259.369 280.385 258.98 280.973C258.594 281.561 258.399 282.386 258.396 283.449H258.464C258.624 283.207 258.812 283.001 259.031 282.831C259.253 282.658 259.497 282.524 259.764 282.43C260.031 282.337 260.314 282.29 260.612 282.29C261.112 282.29 261.57 282.415 261.984 282.665C262.399 282.912 262.732 283.254 262.982 283.692C263.232 284.126 263.357 284.625 263.357 285.188C263.357 285.727 263.236 286.222 262.994 286.67C262.753 287.116 262.413 287.472 261.976 287.736C261.541 287.997 261.03 288.125 260.442 288.119ZM260.442 287.182C260.8 287.182 261.121 287.092 261.405 286.913C261.692 286.734 261.918 286.494 262.082 286.193C262.25 285.892 262.334 285.557 262.334 285.188C262.334 284.827 262.253 284.499 262.091 284.203C261.932 283.905 261.712 283.668 261.43 283.491C261.152 283.315 260.834 283.227 260.476 283.227C260.206 283.227 259.955 283.281 259.722 283.389C259.489 283.494 259.284 283.639 259.108 283.824C258.935 284.009 258.798 284.22 258.699 284.459C258.599 284.695 258.55 284.943 258.55 285.205C258.55 285.551 258.631 285.875 258.793 286.176C258.957 286.477 259.182 286.72 259.466 286.905C259.753 287.089 260.078 287.182 260.442 287.182ZM267.879 288.119C267.237 288.119 266.69 287.945 266.238 287.595C265.787 287.243 265.441 286.733 265.203 286.065C264.964 285.395 264.845 284.585 264.845 283.636C264.845 282.693 264.964 281.888 265.203 281.22C265.444 280.55 265.791 280.038 266.243 279.686C266.697 279.331 267.243 279.153 267.879 279.153C268.515 279.153 269.059 279.331 269.511 279.686C269.966 280.038 270.312 280.55 270.551 281.22C270.792 281.888 270.913 282.693 270.913 283.636C270.913 284.585 270.794 285.395 270.555 286.065C270.316 286.733 269.971 287.243 269.52 287.595C269.068 287.945 268.521 288.119 267.879 288.119ZM267.879 287.182C268.515 287.182 269.01 286.875 269.362 286.261C269.714 285.648 269.89 284.773 269.89 283.636C269.89 282.881 269.809 282.237 269.647 281.706C269.488 281.175 269.258 280.77 268.957 280.491C268.659 280.213 268.299 280.074 267.879 280.074C267.248 280.074 266.755 280.385 266.4 281.007C266.045 281.626 265.868 282.503 265.868 283.636C265.868 284.392 265.947 285.034 266.106 285.562C266.265 286.091 266.494 286.493 266.792 286.768C267.093 287.044 267.456 287.182 267.879 287.182Z" fill="#222222"/>
<path d="M296.732 283.438C296.431 283.438 296.156 283.364 295.908 283.217C295.662 283.071 295.465 282.874 295.318 282.628C295.172 282.379 295.098 282.105 295.098 281.804C295.098 281.503 295.172 281.23 295.318 280.984C295.465 280.735 295.662 280.537 295.908 280.391C296.156 280.244 296.431 280.17 296.732 280.17C297.032 280.17 297.306 280.244 297.552 280.391C297.801 280.537 297.998 280.735 298.145 280.984C298.292 281.23 298.365 281.503 298.365 281.804C298.365 282.105 298.292 282.379 298.145 282.628C297.998 282.874 297.801 283.071 297.552 283.217C297.306 283.364 297.032 283.438 296.732 283.438ZM296.732 282.727C296.902 282.727 297.057 282.686 297.197 282.603C297.337 282.52 297.448 282.409 297.531 282.269C297.614 282.129 297.655 281.974 297.655 281.804C297.655 281.634 297.614 281.478 297.531 281.339C297.448 281.199 297.337 281.088 297.197 281.005C297.057 280.922 296.902 280.881 296.732 280.881C296.561 280.881 296.406 280.922 296.267 281.005C296.127 281.088 296.016 281.199 295.933 281.339C295.85 281.478 295.808 281.634 295.808 281.804C295.808 281.974 295.85 282.129 295.933 282.269C296.016 282.409 296.127 282.52 296.267 282.603C296.406 282.686 296.561 282.727 296.732 282.727Z" fill="#808080"/>
<rect x="1" y="316" width="320" height="1" fill="#E6E6E6"/>
<path d="M18.1186 349V338.818H19.6548V347.678H24.2685V349H18.1186ZM29.1183 349.154C28.4023 349.154 27.7776 348.99 27.244 348.662C26.7103 348.334 26.296 347.875 26.0011 347.285C25.7061 346.695 25.5586 346.005 25.5586 345.217C25.5586 344.424 25.7061 343.732 26.0011 343.138C26.296 342.545 26.7103 342.085 27.244 341.756C27.7776 341.428 28.4023 341.264 29.1183 341.264C29.8342 341.264 30.4589 341.428 30.9925 341.756C31.5262 342.085 31.9405 342.545 32.2354 343.138C32.5304 343.732 32.6779 344.424 32.6779 345.217C32.6779 346.005 32.5304 346.695 32.2354 347.285C31.9405 347.875 31.5262 348.334 30.9925 348.662C30.4589 348.99 29.8342 349.154 29.1183 349.154ZM29.1232 347.906C29.5872 347.906 29.9717 347.784 30.2766 347.538C30.5816 347.293 30.8069 346.967 30.9528 346.559C31.1019 346.151 31.1765 345.702 31.1765 345.212C31.1765 344.724 31.1019 344.277 30.9528 343.869C30.8069 343.458 30.5816 343.129 30.2766 342.88C29.9717 342.631 29.5872 342.507 29.1232 342.507C28.6559 342.507 28.2681 342.631 27.9599 342.88C27.6549 343.129 27.4279 343.458 27.2788 343.869C27.1329 344.277 27.06 344.724 27.06 345.212C27.06 345.702 27.1329 346.151 27.2788 346.559C27.4279 346.967 27.6549 347.293 27.9599 347.538C28.2681 347.784 28.6559 347.906 29.1232 347.906ZM37.5538 349.154C36.8147 349.154 36.1783 348.987 35.6447 348.652C35.1144 348.314 34.7067 347.848 34.4217 347.255C34.1367 346.662 33.9941 345.982 33.9941 345.217C33.9941 344.441 34.14 343.757 34.4316 343.163C34.7233 342.567 35.1343 342.101 35.6646 341.766C36.1949 341.432 36.8197 341.264 37.5389 341.264C38.1189 341.264 38.6359 341.372 39.09 341.587C39.5441 341.799 39.9103 342.098 40.1887 342.482C40.4705 342.867 40.6378 343.316 40.6909 343.83H39.2441C39.1646 343.472 38.9823 343.163 38.6973 342.905C38.4155 342.646 38.0377 342.517 37.5637 342.517C37.1494 342.517 36.7865 342.626 36.475 342.845C36.1667 343.061 35.9264 343.369 35.7541 343.77C35.5817 344.168 35.4956 344.638 35.4956 345.182C35.4956 345.739 35.5801 346.219 35.7491 346.624C35.9181 347.028 36.1568 347.341 36.465 347.563C36.7766 347.785 37.1428 347.896 37.5637 347.896C37.8455 347.896 38.1007 347.845 38.3294 347.742C38.5614 347.636 38.7553 347.485 38.911 347.29C39.0701 347.094 39.1812 346.859 39.2441 346.584H40.6909C40.6378 347.078 40.4771 347.518 40.2086 347.906C39.9402 348.294 39.5806 348.599 39.1298 348.821C38.6824 349.043 38.157 349.154 37.5538 349.154ZM44.5028 349.169C44.0189 349.169 43.5814 349.08 43.1903 348.901C42.7992 348.718 42.4893 348.455 42.2607 348.11C42.0353 347.765 41.9226 347.343 41.9226 346.842C41.9226 346.411 42.0054 346.057 42.1712 345.778C42.3369 345.5 42.5606 345.28 42.8423 345.117C43.1241 344.955 43.4389 344.832 43.7869 344.749C44.1349 344.666 44.4896 344.603 44.8509 344.56C45.3082 344.507 45.6795 344.464 45.9645 344.431C46.2495 344.395 46.4567 344.337 46.5859 344.257C46.7152 344.178 46.7798 344.048 46.7798 343.869V343.835C46.7798 343.4 46.6572 343.064 46.4119 342.825C46.17 342.587 45.8087 342.467 45.3281 342.467C44.8277 342.467 44.4332 342.578 44.1449 342.8C43.8598 343.019 43.6626 343.263 43.5533 343.531L42.1562 343.213C42.322 342.749 42.5639 342.375 42.8821 342.089C43.2036 341.801 43.5732 341.592 43.9908 341.463C44.4084 341.33 44.8475 341.264 45.3082 341.264C45.6132 341.264 45.9363 341.301 46.2777 341.374C46.6224 341.443 46.9439 341.572 47.2422 341.761C47.5438 341.95 47.7907 342.22 47.983 342.572C48.1752 342.92 48.2713 343.372 48.2713 343.929V349H46.8196V347.956H46.7599C46.6638 348.148 46.5196 348.337 46.3274 348.523C46.1352 348.708 45.8883 348.862 45.5866 348.985C45.285 349.108 44.9238 349.169 44.5028 349.169ZM44.826 347.976C45.237 347.976 45.5883 347.895 45.88 347.732C46.175 347.57 46.3987 347.358 46.5511 347.096C46.7069 346.831 46.7848 346.547 46.7848 346.246V345.261C46.7318 345.314 46.629 345.364 46.4766 345.411C46.3274 345.454 46.1567 345.492 45.9645 345.525C45.7723 345.555 45.585 345.583 45.4027 345.609C45.2204 345.633 45.0679 345.652 44.9453 345.669C44.657 345.705 44.3935 345.767 44.1548 345.853C43.9195 345.939 43.7306 346.063 43.5881 346.226C43.4489 346.385 43.3793 346.597 43.3793 346.862C43.3793 347.23 43.5152 347.509 43.7869 347.697C44.0587 347.883 44.4051 347.976 44.826 347.976ZM51.7377 338.818V349H50.2512V338.818H51.7377ZM53.7376 349V341.364H55.2241V349H53.7376ZM54.4883 340.185C54.2298 340.185 54.0077 340.099 53.8221 339.927C53.6398 339.751 53.5487 339.542 53.5487 339.3C53.5487 339.055 53.6398 338.846 53.8221 338.674C54.0077 338.498 54.2298 338.411 54.4883 338.411C54.7468 338.411 54.9672 338.498 55.1495 338.674C55.3351 338.846 55.4279 339.055 55.4279 339.3C55.4279 339.542 55.3351 339.751 55.1495 339.927C54.9672 340.099 54.7468 340.185 54.4883 340.185ZM57.0648 349V347.981L61.2012 342.726V342.656H57.199V341.364H63.0556V342.447L59.0783 347.638V347.707H63.1948V349H57.0648ZM67.1708 349.169C66.6869 349.169 66.2494 349.08 65.8583 348.901C65.4672 348.718 65.1573 348.455 64.9286 348.11C64.7032 347.765 64.5906 347.343 64.5906 346.842C64.5906 346.411 64.6734 346.057 64.8391 345.778C65.0049 345.5 65.2286 345.28 65.5103 345.117C65.792 344.955 66.1069 344.832 66.4549 344.749C66.8029 344.666 67.1576 344.603 67.5188 344.56C67.9762 344.507 68.3474 344.464 68.6325 344.431C68.9175 344.395 69.1246 344.337 69.2539 344.257C69.3832 344.178 69.4478 344.048 69.4478 343.869V343.835C69.4478 343.4 69.3252 343.064 69.0799 342.825C68.838 342.587 68.4767 342.467 67.9961 342.467C67.4956 342.467 67.1012 342.578 66.8129 342.8C66.5278 343.019 66.3306 343.263 66.2212 343.531L64.8242 343.213C64.9899 342.749 65.2319 342.375 65.5501 342.089C65.8716 341.801 66.2411 341.592 66.6587 341.463C67.0763 341.33 67.5155 341.264 67.9762 341.264C68.2811 341.264 68.6043 341.301 68.9457 341.374C69.2904 341.443 69.6119 341.572 69.9102 341.761C70.2118 341.95 70.4587 342.22 70.6509 342.572C70.8432 342.92 70.9393 343.372 70.9393 343.929V349H69.4876V347.956H69.4279C69.3318 348.148 69.1876 348.337 68.9954 348.523C68.8031 348.708 68.5562 348.862 68.2546 348.985C67.953 349.108 67.5917 349.169 67.1708 349.169ZM67.494 347.976C67.9049 347.976 68.2563 347.895 68.5479 347.732C68.8429 347.57 69.0666 347.358 69.2191 347.096C69.3749 346.831 69.4528 346.547 69.4528 346.246V345.261C69.3997 345.314 69.297 345.364 69.1445 345.411C68.9954 345.454 68.8247 345.492 68.6325 345.525C68.4402 345.555 68.253 345.583 68.0707 345.609C67.8884 345.633 67.7359 345.652 67.6133 345.669C67.3249 345.705 67.0614 345.767 66.8228 345.853C66.5875 345.939 66.3986 346.063 66.256 346.226C66.1168 346.385 66.0472 346.597 66.0472 346.862C66.0472 347.23 66.1831 347.509 66.4549 347.697C66.7267 347.883 67.073 347.976 67.494 347.976ZM76.4838 341.364V342.557H72.3127V341.364H76.4838ZM73.4313 339.534H74.9178V346.758C74.9178 347.046 74.9609 347.263 75.0471 347.409C75.1332 347.552 75.2443 347.649 75.3801 347.702C75.5194 347.752 75.6702 347.777 75.8326 347.777C75.9519 347.777 76.0563 347.769 76.1458 347.752C76.2353 347.736 76.3049 347.722 76.3546 347.712L76.623 348.94C76.5369 348.973 76.4142 349.007 76.2551 349.04C76.0961 349.076 75.8972 349.096 75.6586 349.099C75.2675 349.106 74.9029 349.036 74.5648 348.891C74.2267 348.745 73.9533 348.519 73.7445 348.214C73.5357 347.91 73.4313 347.527 73.4313 347.066V339.534ZM78.1282 349V341.364H79.6147V349H78.1282ZM78.8789 340.185C78.6204 340.185 78.3983 340.099 78.2127 339.927C78.0304 339.751 77.9393 339.542 77.9393 339.3C77.9393 339.055 78.0304 338.846 78.2127 338.674C78.3983 338.498 78.6204 338.411 78.8789 338.411C79.1374 338.411 79.3578 338.498 79.5401 338.674C79.7257 338.846 79.8185 339.055 79.8185 339.3C79.8185 339.542 79.7257 339.751 79.5401 339.927C79.3578 340.099 79.1374 340.185 78.8789 340.185ZM84.8311 349.154C84.1152 349.154 83.4905 348.99 82.9569 348.662C82.4232 348.334 82.0089 347.875 81.714 347.285C81.419 346.695 81.2715 346.005 81.2715 345.217C81.2715 344.424 81.419 343.732 81.714 343.138C82.0089 342.545 82.4232 342.085 82.9569 341.756C83.4905 341.428 84.1152 341.264 84.8311 341.264C85.5471 341.264 86.1718 341.428 86.7054 341.756C87.2391 342.085 87.6533 342.545 87.9483 343.138C88.2433 343.732 88.3908 344.424 88.3908 345.217C88.3908 346.005 88.2433 346.695 87.9483 347.285C87.6533 347.875 87.2391 348.334 86.7054 348.662C86.1718 348.99 85.5471 349.154 84.8311 349.154ZM84.8361 347.906C85.3001 347.906 85.6846 347.784 85.9895 347.538C86.2944 347.293 86.5198 346.967 86.6657 346.559C86.8148 346.151 86.8894 345.702 86.8894 345.212C86.8894 344.724 86.8148 344.277 86.6657 343.869C86.5198 343.458 86.2944 343.129 85.9895 342.88C85.6846 342.631 85.3001 342.507 84.8361 342.507C84.3688 342.507 83.981 342.631 83.6728 342.88C83.3678 343.129 83.1408 343.458 82.9917 343.869C82.8458 344.277 82.7729 344.724 82.7729 345.212C82.7729 345.702 82.8458 346.151 82.9917 346.559C83.1408 346.967 83.3678 347.293 83.6728 347.538C83.981 347.784 84.3688 347.906 84.8361 347.906ZM91.5366 344.466V349H90.0501V341.364H91.4769V342.607H91.5714C91.747 342.202 92.0221 341.877 92.3967 341.632C92.7745 341.387 93.2501 341.264 93.8235 341.264C94.3439 341.264 94.7996 341.374 95.1907 341.592C95.5818 341.808 95.8851 342.129 96.1005 342.557C96.3159 342.984 96.4237 343.513 96.4237 344.143V349H94.9371V344.322C94.9371 343.768 94.793 343.336 94.5046 343.024C94.2163 342.709 93.8202 342.552 93.3164 342.552C92.9717 342.552 92.6651 342.626 92.3967 342.776C92.1315 342.925 91.921 343.143 91.7653 343.432C91.6128 343.717 91.5366 344.062 91.5366 344.466ZM103.609 338.818V349H102.122V338.818H103.609ZM107.831 349.169C107.347 349.169 106.91 349.08 106.518 348.901C106.127 348.718 105.817 348.455 105.589 348.11C105.363 347.765 105.251 347.343 105.251 346.842C105.251 346.411 105.334 346.057 105.499 345.778C105.665 345.5 105.889 345.28 106.17 345.117C106.452 344.955 106.767 344.832 107.115 344.749C107.463 344.666 107.818 344.603 108.179 344.56C108.636 344.507 109.008 344.464 109.293 344.431C109.578 344.395 109.785 344.337 109.914 344.257C110.043 344.178 110.108 344.048 110.108 343.869V343.835C110.108 343.4 109.985 343.064 109.74 342.825C109.498 342.587 109.137 342.467 108.656 342.467C108.156 342.467 107.761 342.578 107.473 342.8C107.188 343.019 106.991 343.263 106.881 343.531L105.484 343.213C105.65 342.749 105.892 342.375 106.21 342.089C106.532 341.801 106.901 341.592 107.319 341.463C107.737 341.33 108.176 341.264 108.636 341.264C108.941 341.264 109.264 341.301 109.606 341.374C109.951 341.443 110.272 341.572 110.57 341.761C110.872 341.95 111.119 342.22 111.311 342.572C111.503 342.92 111.599 343.372 111.599 343.929V349H110.148V347.956H110.088C109.992 348.148 109.848 348.337 109.656 348.523C109.463 348.708 109.216 348.862 108.915 348.985C108.613 349.108 108.252 349.169 107.831 349.169ZM108.154 347.976C108.565 347.976 108.916 347.895 109.208 347.732C109.503 347.57 109.727 347.358 109.879 347.096C110.035 346.831 110.113 346.547 110.113 346.246V345.261C110.06 345.314 109.957 345.364 109.805 345.411C109.656 345.454 109.485 345.492 109.293 345.525C109.1 345.555 108.913 345.583 108.731 345.609C108.549 345.633 108.396 345.652 108.273 345.669C107.985 345.705 107.722 345.767 107.483 345.853C107.248 345.939 107.059 346.063 106.916 346.226C106.777 346.385 106.707 346.597 106.707 346.862C106.707 347.23 106.843 347.509 107.115 347.697C107.387 347.883 107.733 347.976 108.154 347.976ZM114.246 351.864C114.023 351.864 113.821 351.845 113.639 351.809C113.457 351.776 113.321 351.739 113.231 351.7L113.589 350.482C113.861 350.554 114.103 350.586 114.315 350.576C114.527 350.566 114.715 350.487 114.877 350.337C115.043 350.188 115.189 349.945 115.314 349.607L115.498 349.099L112.704 341.364H114.295L116.229 347.29H116.309L118.243 341.364H119.839L116.692 350.019C116.546 350.417 116.36 350.753 116.135 351.028C115.909 351.307 115.641 351.516 115.329 351.655C115.018 351.794 114.657 351.864 114.246 351.864ZM124.267 349.154C123.515 349.154 122.867 348.993 122.323 348.672C121.783 348.347 121.365 347.891 121.07 347.305C120.779 346.715 120.633 346.024 120.633 345.232C120.633 344.449 120.779 343.76 121.07 343.163C121.365 342.567 121.776 342.101 122.303 341.766C122.834 341.432 123.453 341.264 124.163 341.264C124.594 341.264 125.011 341.335 125.415 341.478C125.82 341.621 126.183 341.844 126.504 342.149C126.826 342.454 127.079 342.85 127.265 343.337C127.451 343.821 127.543 344.41 127.543 345.102V345.629H121.473V344.516H126.087C126.087 344.125 126.007 343.778 125.848 343.477C125.689 343.172 125.465 342.931 125.177 342.756C124.892 342.58 124.557 342.492 124.173 342.492C123.755 342.492 123.39 342.595 123.079 342.8C122.771 343.003 122.532 343.268 122.363 343.596C122.197 343.921 122.114 344.274 122.114 344.655V345.525C122.114 346.035 122.204 346.469 122.383 346.827C122.565 347.185 122.819 347.459 123.143 347.648C123.468 347.833 123.848 347.926 124.282 347.926C124.564 347.926 124.821 347.886 125.053 347.807C125.285 347.724 125.485 347.601 125.654 347.439C125.823 347.277 125.952 347.076 126.042 346.837L127.449 347.091C127.336 347.505 127.134 347.868 126.842 348.18C126.554 348.488 126.191 348.728 125.754 348.901C125.319 349.07 124.824 349.154 124.267 349.154ZM129.193 349V341.364H130.629V342.577H130.709C130.848 342.166 131.093 341.843 131.445 341.607C131.799 341.369 132.2 341.249 132.648 341.249C132.741 341.249 132.85 341.253 132.976 341.259C133.105 341.266 133.206 341.274 133.279 341.284V342.706C133.22 342.689 133.114 342.671 132.961 342.651C132.809 342.628 132.656 342.616 132.504 342.616C132.152 342.616 131.839 342.691 131.564 342.84C131.292 342.986 131.077 343.19 130.918 343.452C130.759 343.71 130.679 344.005 130.679 344.337V349H129.193Z" fill="#222222"/>
<path d="M288.4 346.202L287.692 345.494L293 340.187L298.308 345.494L297.6 346.202L293 341.602L288.4 346.202Z" fill="#222222"/>
<path d="M18.0568 390V381.273H19.1136V385.602H19.2159L23.1364 381.273H24.517L20.8523 385.21L24.517 390H23.2386L20.2045 385.943L19.1136 387.17V390H18.0568ZM27.9272 390.136C27.3363 390.136 26.8178 389.996 26.3718 389.714C25.9286 389.433 25.582 389.04 25.332 388.534C25.0849 388.028 24.9613 387.437 24.9613 386.761C24.9613 386.08 25.0849 385.484 25.332 384.976C25.582 384.467 25.9286 384.072 26.3718 383.791C26.8178 383.51 27.3363 383.369 27.9272 383.369C28.5181 383.369 29.0352 383.51 29.4783 383.791C29.9244 384.072 30.271 384.467 30.5181 384.976C30.7681 385.484 30.8931 386.08 30.8931 386.761C30.8931 387.437 30.7681 388.028 30.5181 388.534C30.271 389.04 29.9244 389.433 29.4783 389.714C29.0352 389.996 28.5181 390.136 27.9272 390.136ZM27.9272 389.233C28.3761 389.233 28.7454 389.118 29.0352 388.888C29.3249 388.658 29.5394 388.355 29.6786 387.98C29.8178 387.605 29.8874 387.199 29.8874 386.761C29.8874 386.324 29.8178 385.916 29.6786 385.538C29.5394 385.161 29.3249 384.855 29.0352 384.622C28.7454 384.389 28.3761 384.273 27.9272 384.273C27.4783 384.273 27.109 384.389 26.8192 384.622C26.5295 384.855 26.315 385.161 26.1758 385.538C26.0366 385.916 25.967 386.324 25.967 386.761C25.967 387.199 26.0366 387.605 26.1758 387.98C26.315 388.355 26.5295 388.658 26.8192 388.888C27.109 389.118 27.4783 389.233 27.9272 389.233ZM33.4339 381.273V390H32.4283V381.273H33.4339ZM36.2816 381.273V390H35.2759V381.273H36.2816ZM38.1236 390V383.455H39.0952V384.477H39.1804C39.3168 384.128 39.5369 383.857 39.8409 383.663C40.1449 383.467 40.5099 383.369 40.9361 383.369C41.3679 383.369 41.7273 383.467 42.0142 383.663C42.304 383.857 42.5298 384.128 42.6918 384.477H42.7599C42.9276 384.139 43.179 383.871 43.5142 383.672C43.8494 383.47 44.2514 383.369 44.7202 383.369C45.3054 383.369 45.7841 383.553 46.1562 383.919C46.5284 384.283 46.7145 384.849 46.7145 385.619V390H45.7088V385.619C45.7088 385.136 45.5767 384.791 45.3125 384.584C45.0483 384.376 44.7372 384.273 44.3793 384.273C43.919 384.273 43.5625 384.412 43.3097 384.69C43.0568 384.966 42.9304 385.315 42.9304 385.739V390H41.9077V385.517C41.9077 385.145 41.7869 384.845 41.5455 384.618C41.304 384.388 40.9929 384.273 40.6122 384.273C40.3509 384.273 40.1065 384.342 39.8793 384.482C39.6548 384.621 39.473 384.814 39.3338 385.061C39.1974 385.305 39.1293 385.588 39.1293 385.909V390H38.1236ZM51.2124 390.136C50.6214 390.136 50.103 389.996 49.657 389.714C49.2138 389.433 48.8672 389.04 48.6172 388.534C48.37 388.028 48.2464 387.437 48.2464 386.761C48.2464 386.08 48.37 385.484 48.6172 384.976C48.8672 384.467 49.2138 384.072 49.657 383.791C50.103 383.51 50.6214 383.369 51.2124 383.369C51.8033 383.369 52.3203 383.51 52.7635 383.791C53.2095 384.072 53.5561 384.467 53.8033 384.976C54.0533 385.484 54.1783 386.08 54.1783 386.761C54.1783 387.437 54.0533 388.028 53.8033 388.534C53.5561 389.04 53.2095 389.433 52.7635 389.714C52.3203 389.996 51.8033 390.136 51.2124 390.136ZM51.2124 389.233C51.6612 389.233 52.0305 389.118 52.3203 388.888C52.6101 388.658 52.8246 388.355 52.9638 387.98C53.103 387.605 53.1726 387.199 53.1726 386.761C53.1726 386.324 53.103 385.916 52.9638 385.538C52.8246 385.161 52.6101 384.855 52.3203 384.622C52.0305 384.389 51.6612 384.273 51.2124 384.273C50.7635 384.273 50.3942 384.389 50.1044 384.622C49.8146 384.855 49.6001 385.161 49.4609 385.538C49.3217 385.916 49.2521 386.324 49.2521 386.761C49.2521 387.199 49.3217 387.605 49.4609 387.98C49.6001 388.355 49.8146 388.658 50.1044 388.888C50.3942 389.118 50.7635 389.233 51.2124 389.233ZM55.7134 390V383.455H56.685V384.443H56.7532C56.8725 384.119 57.0884 383.857 57.4009 383.655C57.7134 383.453 58.0657 383.352 58.4577 383.352C58.5316 383.352 58.6239 383.354 58.7347 383.357C58.8455 383.359 58.9293 383.364 58.9862 383.369V384.392C58.9521 384.384 58.8739 384.371 58.7518 384.354C58.6325 384.334 58.506 384.324 58.3725 384.324C58.0543 384.324 57.7702 384.391 57.5202 384.524C57.2731 384.655 57.0771 384.837 56.9322 385.07C56.7901 385.3 56.7191 385.562 56.7191 385.858V390H55.7134ZM62.6211 392.591C62.1353 392.591 61.7177 392.528 61.3683 392.403C61.0188 392.281 60.7276 392.119 60.4947 391.918C60.2646 391.719 60.0813 391.506 59.945 391.278L60.7461 390.716C60.837 390.835 60.9521 390.972 61.0913 391.125C61.2305 391.281 61.4208 391.416 61.6623 391.53C61.9066 391.646 62.2262 391.705 62.6211 391.705C63.1495 391.705 63.5856 391.577 63.9293 391.321C64.2731 391.065 64.445 390.665 64.445 390.119V388.79H64.3597C64.2859 388.909 64.1808 389.057 64.0444 389.233C63.9109 389.406 63.7177 389.561 63.4648 389.697C63.2148 389.831 62.8768 389.898 62.4506 389.898C61.9222 389.898 61.4478 389.773 61.0273 389.523C60.6097 389.273 60.2788 388.909 60.0344 388.432C59.793 387.955 59.6722 387.375 59.6722 386.693C59.6722 386.023 59.7901 385.439 60.0259 384.942C60.2617 384.442 60.5898 384.055 61.0103 383.783C61.4308 383.507 61.9165 383.369 62.4677 383.369C62.8938 383.369 63.2319 383.44 63.4819 383.582C63.7347 383.722 63.9279 383.881 64.0614 384.06C64.1978 384.236 64.3029 384.381 64.3768 384.494H64.479V383.455H65.4506V390.188C65.4506 390.75 65.3228 391.207 65.0671 391.56C64.8143 391.915 64.4734 392.175 64.0444 392.339C63.6183 392.507 63.1438 392.591 62.6211 392.591ZM62.587 388.994C62.9904 388.994 63.3313 388.902 63.6097 388.717C63.8881 388.533 64.0998 388.267 64.2447 387.92C64.3896 387.574 64.462 387.159 64.462 386.676C64.462 386.205 64.391 385.788 64.2489 385.428C64.1069 385.067 63.8967 384.784 63.6183 384.58C63.3398 384.375 62.9961 384.273 62.587 384.273C62.1609 384.273 61.8058 384.381 61.5217 384.597C61.2404 384.812 61.0288 385.102 60.8867 385.466C60.7475 385.83 60.6779 386.233 60.6779 386.676C60.6779 387.131 60.7489 387.533 60.891 387.882C61.0359 388.229 61.2489 388.501 61.5302 388.7C61.8143 388.896 62.1665 388.994 62.587 388.994ZM70.0359 390.136C69.4052 390.136 68.8612 389.997 68.4038 389.719C67.9492 389.438 67.5984 389.045 67.3512 388.543C67.1069 388.037 66.9847 387.449 66.9847 386.778C66.9847 386.108 67.1069 385.517 67.3512 385.006C67.5984 384.491 67.9421 384.091 68.3825 383.804C68.8256 383.514 69.3427 383.369 69.9336 383.369C70.2745 383.369 70.6112 383.426 70.9435 383.54C71.2759 383.653 71.5785 383.838 71.8512 384.094C72.1239 384.347 72.3413 384.682 72.5032 385.099C72.6651 385.517 72.7461 386.031 72.7461 386.642V387.068H67.7006V386.199H71.7234C71.7234 385.83 71.6495 385.5 71.5018 385.21C71.3569 384.92 71.1495 384.692 70.8796 384.524C70.6126 384.357 70.2972 384.273 69.9336 384.273C69.533 384.273 69.1864 384.372 68.8938 384.571C68.604 384.767 68.381 385.023 68.2248 385.338C68.0685 385.653 67.9904 385.991 67.9904 386.352V386.932C67.9904 387.426 68.0756 387.845 68.2461 388.189C68.4194 388.53 68.6594 388.79 68.9663 388.969C69.2731 389.145 69.6296 389.233 70.0359 389.233C70.3001 389.233 70.5387 389.196 70.7518 389.122C70.9677 389.045 71.1538 388.932 71.31 388.781C71.4663 388.628 71.587 388.437 71.6722 388.21L72.6438 388.483C72.5415 388.812 72.3697 389.102 72.1282 389.352C71.8867 389.599 71.5884 389.793 71.2333 389.932C70.8782 390.068 70.479 390.136 70.0359 390.136ZM75.2816 386.062V390H74.2759V383.455H75.2475V384.477H75.3327C75.4862 384.145 75.7191 383.878 76.0316 383.676C76.3441 383.472 76.7475 383.369 77.2418 383.369C77.685 383.369 78.0728 383.46 78.4052 383.642C78.7376 383.821 78.9961 384.094 79.1808 384.46C79.3654 384.824 79.4577 385.284 79.4577 385.841V390H78.4521V385.909C78.4521 385.395 78.3185 384.994 78.0515 384.707C77.7844 384.418 77.418 384.273 76.9521 384.273C76.631 384.273 76.3441 384.342 76.0913 384.482C75.8413 384.621 75.6438 384.824 75.4989 385.091C75.354 385.358 75.2816 385.682 75.2816 386.062Z" fill="#222222"/>
<path d="M292.5 392.5V386.5H286.5V385.5H292.5V379.5H293.5V385.5H299.5V386.5H293.5V392.5H292.5Z" fill="#222222"/>
<path d="M22.8295 423.455C22.7784 423.023 22.571 422.688 22.2074 422.449C21.8438 422.21 21.3977 422.091 20.8693 422.091C20.483 422.091 20.1449 422.153 19.8551 422.278C19.5682 422.403 19.3438 422.575 19.1818 422.794C19.0227 423.013 18.9432 423.261 18.9432 423.54C18.9432 423.773 18.9986 423.973 19.1094 424.141C19.223 424.305 19.3679 424.443 19.544 424.554C19.7202 424.662 19.9048 424.751 20.098 424.822C20.2912 424.891 20.4688 424.946 20.6307 424.989L21.517 425.227C21.7443 425.287 21.9972 425.369 22.2756 425.474C22.5568 425.58 22.8253 425.723 23.081 425.905C23.3395 426.084 23.5526 426.314 23.7202 426.595C23.8878 426.876 23.9716 427.222 23.9716 427.631C23.9716 428.102 23.848 428.528 23.6009 428.909C23.3565 429.29 22.9986 429.592 22.527 429.817C22.0582 430.041 21.4886 430.153 20.8182 430.153C20.1932 430.153 19.652 430.053 19.1946 429.851C18.7401 429.649 18.3821 429.368 18.1207 429.007C17.8622 428.646 17.7159 428.227 17.6818 427.75H18.7727C18.8011 428.08 18.9119 428.352 19.1051 428.568C19.3011 428.781 19.5483 428.94 19.8466 429.045C20.1477 429.148 20.4716 429.199 20.8182 429.199C21.2216 429.199 21.5838 429.134 21.9048 429.003C22.2259 428.869 22.4801 428.685 22.6676 428.449C22.8551 428.21 22.9489 427.932 22.9489 427.614C22.9489 427.324 22.8679 427.088 22.706 426.906C22.544 426.724 22.331 426.577 22.0668 426.463C21.8026 426.349 21.517 426.25 21.2102 426.165L20.1364 425.858C19.4545 425.662 18.9148 425.382 18.517 425.018C18.1193 424.655 17.9205 424.179 17.9205 423.591C17.9205 423.102 18.0526 422.676 18.3168 422.312C18.5838 421.946 18.9418 421.662 19.3906 421.46C19.8423 421.256 20.3466 421.153 20.9034 421.153C21.4659 421.153 21.9659 421.254 22.4034 421.456C22.8409 421.655 23.1875 421.928 23.4432 422.274C23.7017 422.621 23.8381 423.014 23.8523 423.455H22.8295ZM28.3171 430.136C27.6864 430.136 27.1424 429.997 26.685 429.719C26.2305 429.438 25.8796 429.045 25.6325 428.543C25.3881 428.037 25.266 427.449 25.266 426.778C25.266 426.108 25.3881 425.517 25.6325 425.006C25.8796 424.491 26.2234 424.091 26.6637 423.804C27.1069 423.514 27.6239 423.369 28.2148 423.369C28.5558 423.369 28.8924 423.426 29.2248 423.54C29.5572 423.653 29.8597 423.838 30.1325 424.094C30.4052 424.347 30.6225 424.682 30.7844 425.099C30.9464 425.517 31.0273 426.031 31.0273 426.642V427.068H25.9819V426.199H30.0046C30.0046 425.83 29.9308 425.5 29.783 425.21C29.6381 424.92 29.4308 424.692 29.1609 424.524C28.8938 424.357 28.5785 424.273 28.2148 424.273C27.8143 424.273 27.4677 424.372 27.1751 424.571C26.8853 424.767 26.6623 425.023 26.506 425.338C26.3498 425.653 26.2717 425.991 26.2717 426.352V426.932C26.2717 427.426 26.3569 427.845 26.5273 428.189C26.7006 428.53 26.9407 428.79 27.2475 428.969C27.5543 429.145 27.9109 429.233 28.3171 429.233C28.5813 429.233 28.82 429.196 29.033 429.122C29.2489 429.045 29.435 428.932 29.5913 428.781C29.7475 428.628 29.8683 428.437 29.9535 428.21L30.9251 428.483C30.8228 428.812 30.6509 429.102 30.4094 429.352C30.168 429.599 29.8697 429.793 29.5146 429.932C29.1594 430.068 28.7603 430.136 28.3171 430.136ZM37.7102 423.455L35.2898 430H34.267L31.8466 423.455H32.9375L34.7443 428.67H34.8125L36.6193 423.455H37.7102ZM41.5476 430.136C40.9169 430.136 40.3729 429.997 39.9155 429.719C39.4609 429.438 39.1101 429.045 38.8629 428.543C38.6186 428.037 38.4964 427.449 38.4964 426.778C38.4964 426.108 38.6186 425.517 38.8629 425.006C39.1101 424.491 39.4538 424.091 39.8942 423.804C40.3374 423.514 40.8544 423.369 41.4453 423.369C41.7862 423.369 42.1229 423.426 42.4553 423.54C42.7876 423.653 43.0902 423.838 43.3629 424.094C43.6357 424.347 43.853 424.682 44.0149 425.099C44.1768 425.517 44.2578 426.031 44.2578 426.642V427.068H39.2124V426.199H43.2351C43.2351 425.83 43.1612 425.5 43.0135 425.21C42.8686 424.92 42.6612 424.692 42.3913 424.524C42.1243 424.357 41.8089 424.273 41.4453 424.273C41.0447 424.273 40.6982 424.372 40.4055 424.571C40.1158 424.767 39.8928 425.023 39.7365 425.338C39.5803 425.653 39.5021 425.991 39.5021 426.352V426.932C39.5021 427.426 39.5874 427.845 39.7578 428.189C39.9311 428.53 40.1712 428.79 40.478 428.969C40.7848 429.145 41.1413 429.233 41.5476 429.233C41.8118 429.233 42.0504 429.196 42.2635 429.122C42.4794 429.045 42.6655 428.932 42.8217 428.781C42.978 428.628 43.0987 428.437 43.1839 428.21L44.1555 428.483C44.0533 428.812 43.8814 429.102 43.6399 429.352C43.3984 429.599 43.1001 429.793 42.745 429.932C42.3899 430.068 41.9908 430.136 41.5476 430.136ZM46.7933 426.062V430H45.7876V423.455H46.7592V424.477H46.8445C46.9979 424.145 47.2308 423.878 47.5433 423.676C47.8558 423.472 48.2592 423.369 48.7536 423.369C49.1967 423.369 49.5845 423.46 49.9169 423.642C50.2493 423.821 50.5078 424.094 50.6925 424.46C50.8771 424.824 50.9695 425.284 50.9695 425.841V430H49.9638V425.909C49.9638 425.395 49.8303 424.994 49.5632 424.707C49.2962 424.418 48.9297 424.273 48.4638 424.273C48.1428 424.273 47.8558 424.342 47.603 424.482C47.353 424.621 47.1555 424.824 47.0107 425.091C46.8658 425.358 46.7933 425.682 46.7933 426.062ZM60.8185 424.92L59.9151 425.176C59.8583 425.026 59.7745 424.879 59.6637 424.737C59.5558 424.592 59.408 424.473 59.2205 424.379C59.033 424.286 58.793 424.239 58.5004 424.239C58.0998 424.239 57.766 424.331 57.4989 424.516C57.2347 424.697 57.1026 424.929 57.1026 425.21C57.1026 425.46 57.1935 425.658 57.3754 425.803C57.5572 425.947 57.8413 426.068 58.2276 426.165L59.1992 426.403C59.7844 426.545 60.2205 426.763 60.5075 427.055C60.7944 427.345 60.9379 427.719 60.9379 428.176C60.9379 428.551 60.8299 428.886 60.614 429.182C60.4009 429.477 60.1026 429.71 59.7191 429.881C59.3356 430.051 58.8896 430.136 58.381 430.136C57.7134 430.136 57.1609 429.991 56.7234 429.702C56.2859 429.412 56.0089 428.989 55.8924 428.432L56.8469 428.193C56.9379 428.545 57.1097 428.81 57.3626 428.986C57.6183 429.162 57.9521 429.25 58.364 429.25C58.8327 429.25 59.2049 429.151 59.4805 428.952C59.7589 428.75 59.8981 428.509 59.8981 428.227C59.8981 428 59.8185 427.81 59.6594 427.656C59.5004 427.5 59.256 427.384 58.9265 427.307L57.8356 427.051C57.2362 426.909 56.7958 426.689 56.5146 426.391C56.2362 426.089 56.0969 425.713 56.0969 425.261C56.0969 424.892 56.2006 424.565 56.408 424.281C56.6183 423.997 56.9038 423.774 57.2646 423.612C57.6282 423.45 58.0401 423.369 58.5004 423.369C59.1481 423.369 59.6566 423.511 60.0259 423.795C60.3981 424.08 60.6623 424.455 60.8185 424.92ZM65.196 430.136C64.5653 430.136 64.0213 429.997 63.5639 429.719C63.1094 429.438 62.7585 429.045 62.5114 428.543C62.267 428.037 62.1449 427.449 62.1449 426.778C62.1449 426.108 62.267 425.517 62.5114 425.006C62.7585 424.491 63.1023 424.091 63.5426 423.804C63.9858 423.514 64.5028 423.369 65.0938 423.369C65.4347 423.369 65.7713 423.426 66.1037 423.54C66.4361 423.653 66.7386 423.838 67.0114 424.094C67.2841 424.347 67.5014 424.682 67.6634 425.099C67.8253 425.517 67.9062 426.031 67.9062 426.642V427.068H62.8608V426.199H66.8835C66.8835 425.83 66.8097 425.5 66.6619 425.21C66.517 424.92 66.3097 424.692 66.0398 424.524C65.7727 424.357 65.4574 424.273 65.0938 424.273C64.6932 424.273 64.3466 424.372 64.054 424.571C63.7642 424.767 63.5412 425.023 63.3849 425.338C63.2287 425.653 63.1506 425.991 63.1506 426.352V426.932C63.1506 427.426 63.2358 427.845 63.4062 428.189C63.5795 428.53 63.8196 428.79 64.1264 428.969C64.4332 429.145 64.7898 429.233 65.196 429.233C65.4602 429.233 65.6989 429.196 65.9119 429.122C66.1278 429.045 66.3139 428.932 66.4702 428.781C66.6264 428.628 66.7472 428.437 66.8324 428.21L67.804 428.483C67.7017 428.812 67.5298 429.102 67.2884 429.352C67.0469 429.599 66.7486 429.793 66.3935 429.932C66.0384 430.068 65.6392 430.136 65.196 430.136ZM70.4418 426.062V430H69.4361V423.455H70.4077V424.477H70.4929C70.6463 424.145 70.8793 423.878 71.1918 423.676C71.5043 423.472 71.9077 423.369 72.402 423.369C72.8452 423.369 73.233 423.46 73.5653 423.642C73.8977 423.821 74.1563 424.094 74.3409 424.46C74.5256 424.824 74.6179 425.284 74.6179 425.841V430H73.6122V425.909C73.6122 425.395 73.4787 424.994 73.2116 424.707C72.9446 424.418 72.5781 424.273 72.1122 424.273C71.7912 424.273 71.5043 424.342 71.2514 424.482C71.0014 424.621 70.804 424.824 70.6591 425.091C70.5142 425.358 70.4418 425.682 70.4418 426.062ZM81.092 424.92L80.1886 425.176C80.1317 425.026 80.0479 424.879 79.9371 424.737C79.8292 424.592 79.6815 424.473 79.494 424.379C79.3065 424.286 79.0664 424.239 78.7738 424.239C78.3732 424.239 78.0394 424.331 77.7724 424.516C77.5082 424.697 77.3761 424.929 77.3761 425.21C77.3761 425.46 77.467 425.658 77.6488 425.803C77.8306 425.947 78.1147 426.068 78.5011 426.165L79.4727 426.403C80.0579 426.545 80.494 426.763 80.7809 427.055C81.0678 427.345 81.2113 427.719 81.2113 428.176C81.2113 428.551 81.1033 428.886 80.8874 429.182C80.6744 429.477 80.3761 429.71 79.9925 429.881C79.609 430.051 79.163 430.136 78.6545 430.136C77.9869 430.136 77.4343 429.991 76.9968 429.702C76.5593 429.412 76.2823 428.989 76.1658 428.432L77.1204 428.193C77.2113 428.545 77.3832 428.81 77.636 428.986C77.8917 429.162 78.2255 429.25 78.6374 429.25C79.1062 429.25 79.4783 429.151 79.7539 428.952C80.0323 428.75 80.1715 428.509 80.1715 428.227C80.1715 428 80.092 427.81 79.9329 427.656C79.7738 427.5 79.5295 427.384 79.1999 427.307L78.109 427.051C77.5096 426.909 77.0692 426.689 76.788 426.391C76.5096 426.089 76.3704 425.713 76.3704 425.261C76.3704 424.892 76.4741 424.565 76.6815 424.281C76.8917 423.997 77.1772 423.774 77.538 423.612C77.9016 423.45 78.3136 423.369 78.7738 423.369C79.4215 423.369 79.93 423.511 80.2994 423.795C80.6715 424.08 80.9357 424.455 81.092 424.92ZM85.4695 430.136C84.8388 430.136 84.2947 429.997 83.8374 429.719C83.3828 429.438 83.032 429.045 82.7848 428.543C82.5405 428.037 82.4183 427.449 82.4183 426.778C82.4183 426.108 82.5405 425.517 82.7848 425.006C83.032 424.491 83.3757 424.091 83.8161 423.804C84.2592 423.514 84.7763 423.369 85.3672 423.369C85.7081 423.369 86.0447 423.426 86.3771 423.54C86.7095 423.653 87.0121 423.838 87.2848 424.094C87.5575 424.347 87.7749 424.682 87.9368 425.099C88.0987 425.517 88.1797 426.031 88.1797 426.642V427.068H83.1342V426.199H87.157C87.157 425.83 87.0831 425.5 86.9354 425.21C86.7905 424.92 86.5831 424.692 86.3132 424.524C86.0462 424.357 85.7308 424.273 85.3672 424.273C84.9666 424.273 84.62 424.372 84.3274 424.571C84.0376 424.767 83.8146 425.023 83.6584 425.338C83.5021 425.653 83.424 425.991 83.424 426.352V426.932C83.424 427.426 83.5092 427.845 83.6797 428.189C83.853 428.53 84.093 428.79 84.3999 428.969C84.7067 429.145 85.0632 429.233 85.4695 429.233C85.7337 429.233 85.9723 429.196 86.1854 429.122C86.4013 429.045 86.5874 428.932 86.7436 428.781C86.8999 428.628 87.0206 428.437 87.1058 428.21L88.0774 428.483C87.9751 428.812 87.8033 429.102 87.5618 429.352C87.3203 429.599 87.022 429.793 86.6669 429.932C86.3118 430.068 85.9126 430.136 85.4695 430.136Z" fill="#222222"/>
<path d="M292.5 432.5V426.5H286.5V425.5H292.5V419.5H293.5V425.5H299.5V426.5H293.5V432.5H292.5Z" fill="#222222"/>
<rect x="1" y="450" width="320" height="1" fill="#E6E6E6"/>
</svg>
