<svg width="288" height="24" viewBox="0 0 288 24" fill="none" xmlns="http://www.w3.org/2000/svg">
<path d="M5.61538 20C5.15513 20 4.77083 19.8458 4.4625 19.5375C4.15417 19.2292 4 18.8449 4 18.3846V5.61537C4 5.15512 4.15417 4.77083 4.4625 4.4625C4.77083 4.15417 5.15513 4 5.61538 4H18.3846C18.8449 4 19.2292 4.15417 19.5375 4.4625C19.8458 4.77083 20 5.15512 20 5.61537V18.3846C20 18.8449 19.8458 19.2292 19.5375 19.5375C19.2292 19.8458 18.8449 20 18.3846 20H5.61538ZM5.61538 19H18.3846C18.5385 19 18.6795 18.9359 18.8077 18.8077C18.9359 18.6795 19 18.5385 19 18.3846V5.61537C19 5.46154 18.9359 5.32052 18.8077 5.1923C18.6795 5.0641 18.5385 5 18.3846 5H5.61538C5.46154 5 5.32052 5.0641 5.1923 5.1923C5.0641 5.32052 5 5.46154 5 5.61537V18.3846C5 18.5385 5.0641 18.6795 5.1923 18.8077C5.32052 18.9359 5.46154 19 5.61538 19ZM7.5 16.5H16.6538L13.8269 12.7308L11.2116 16.0385L9.46152 13.9231L7.5 16.5Z" fill="var(--colors-neutral-neutral-800)"/>
<path d="M33.0568 16V7.27273H36.0057C36.6875 7.27273 37.2472 7.3892 37.6847 7.62216C38.1222 7.85227 38.446 8.16903 38.6562 8.57244C38.8665 8.97585 38.9716 9.43466 38.9716 9.94886C38.9716 10.4631 38.8665 10.919 38.6562 11.3168C38.446 11.7145 38.1236 12.027 37.6889 12.2543C37.2543 12.4787 36.6989 12.5909 36.0227 12.5909H33.6364V11.6364H35.9886C36.4545 11.6364 36.8295 11.5682 37.1136 11.4318C37.4006 11.2955 37.608 11.1023 37.7358 10.8523C37.8665 10.5994 37.9318 10.2983 37.9318 9.94886C37.9318 9.59943 37.8665 9.29403 37.7358 9.03267C37.6051 8.77131 37.3963 8.5696 37.1094 8.42756C36.8224 8.28267 36.4432 8.21023 35.9716 8.21023H34.1136V16H33.0568ZM37.1648 12.0795L39.3125 16H38.0852L35.9716 12.0795H37.1648ZM43.2702 16.1364C42.6396 16.1364 42.0955 15.9972 41.6381 15.7188C41.1836 15.4375 40.8327 15.0455 40.5856 14.5426C40.3413 14.0369 40.2191 13.4489 40.2191 12.7784C40.2191 12.108 40.3413 11.517 40.5856 11.0057C40.8327 10.4915 41.1765 10.0909 41.6168 9.80398C42.06 9.5142 42.5771 9.36932 43.168 9.36932C43.5089 9.36932 43.8455 9.42614 44.1779 9.53977C44.5103 9.65341 44.8129 9.83807 45.0856 10.0938C45.3583 10.3466 45.5756 10.6818 45.7376 11.0994C45.8995 11.517 45.9805 12.0312 45.9805 12.642V13.0682H40.935V12.1989H44.9577C44.9577 11.8295 44.8839 11.5 44.7362 11.2102C44.5913 10.9205 44.3839 10.6918 44.114 10.5241C43.8469 10.3565 43.5316 10.2727 43.168 10.2727C42.7674 10.2727 42.4208 10.3722 42.1282 10.571C41.8384 10.767 41.6154 11.0227 41.4592 11.3381C41.3029 11.6534 41.2248 11.9915 41.2248 12.3523V12.9318C41.2248 13.4261 41.31 13.8452 41.4805 14.1889C41.6538 14.5298 41.8938 14.7898 42.2006 14.9688C42.5075 15.1449 42.864 15.233 43.2702 15.233C43.5344 15.233 43.7731 15.196 43.9862 15.1222C44.2021 15.0455 44.3881 14.9318 44.5444 14.7812C44.7006 14.6278 44.8214 14.4375 44.9066 14.2102L45.8782 14.483C45.7759 14.8125 45.604 15.1023 45.3626 15.3523C45.1211 15.5994 44.8228 15.7926 44.4677 15.9318C44.1126 16.0682 43.7134 16.1364 43.2702 16.1364ZM50.4251 9.45455V10.3068H46.8967V9.45455H50.4251ZM47.9535 16V8.55114C47.9535 8.17614 48.0415 7.86364 48.2177 7.61364C48.3938 7.36364 48.6225 7.17614 48.9038 7.05114C49.185 6.92614 49.4819 6.86364 49.7944 6.86364C50.0415 6.86364 50.2433 6.88352 50.3995 6.9233C50.5558 6.96307 50.6722 7 50.7489 7.03409L50.4592 7.90341C50.408 7.88636 50.337 7.86506 50.2461 7.83949C50.158 7.81392 50.0415 7.80114 49.8967 7.80114C49.5643 7.80114 49.3242 7.88494 49.1765 8.05256C49.0316 8.22017 48.9592 8.46591 48.9592 8.78977V16H47.9535ZM52.8402 7.27273V16H51.8345V7.27273H52.8402ZM57.4265 16.1364C56.7958 16.1364 56.2518 15.9972 55.7944 15.7188C55.3398 15.4375 54.989 15.0455 54.7418 14.5426C54.4975 14.0369 54.3754 13.4489 54.3754 12.7784C54.3754 12.108 54.4975 11.517 54.7418 11.0057C54.989 10.4915 55.3327 10.0909 55.7731 9.80398C56.2163 9.5142 56.7333 9.36932 57.3242 9.36932C57.6651 9.36932 58.0018 9.42614 58.3342 9.53977C58.6665 9.65341 58.9691 9.83807 59.2418 10.0938C59.5146 10.3466 59.7319 10.6818 59.8938 11.0994C60.0558 11.517 60.1367 12.0312 60.1367 12.642V13.0682H55.0913V12.1989H59.114C59.114 11.8295 59.0401 11.5 58.8924 11.2102C58.7475 10.9205 58.5401 10.6918 58.2702 10.5241C58.0032 10.3565 57.6879 10.2727 57.3242 10.2727C56.9237 10.2727 56.5771 10.3722 56.2844 10.571C55.9947 10.767 55.7717 11.0227 55.6154 11.3381C55.4592 11.6534 55.381 11.9915 55.381 12.3523V12.9318C55.381 13.4261 55.4663 13.8452 55.6367 14.1889C55.81 14.5298 56.0501 14.7898 56.3569 14.9688C56.6637 15.1449 57.0202 15.233 57.4265 15.233C57.6907 15.233 57.9293 15.196 58.1424 15.1222C58.3583 15.0455 58.5444 14.9318 58.7006 14.7812C58.8569 14.6278 58.9776 14.4375 59.0629 14.2102L60.0344 14.483C59.9322 14.8125 59.7603 15.1023 59.5188 15.3523C59.2773 15.5994 58.979 15.7926 58.6239 15.9318C58.2688 16.0682 57.8697 16.1364 57.4265 16.1364ZM64.3256 16.1364C63.712 16.1364 63.1836 15.9915 62.7404 15.7017C62.2972 15.4119 61.9563 15.0128 61.7177 14.5043C61.479 13.9957 61.3597 13.4148 61.3597 12.7614C61.3597 12.0966 61.4819 11.5099 61.7262 11.0014C61.9734 10.4901 62.3171 10.0909 62.7575 9.80398C63.2006 9.5142 63.7177 9.36932 64.3086 9.36932C64.7688 9.36932 65.1836 9.45455 65.5529 9.625C65.9222 9.79545 66.2248 10.0341 66.4606 10.3409C66.6964 10.6477 66.8427 11.0057 66.8995 11.4148H65.8938C65.8171 11.1165 65.6467 10.8523 65.3825 10.6222C65.1211 10.3892 64.7688 10.2727 64.3256 10.2727C63.9336 10.2727 63.5898 10.375 63.2944 10.5795C63.0018 10.7812 62.7731 11.0668 62.6083 11.4361C62.4464 11.8026 62.3654 12.233 62.3654 12.7273C62.3654 13.233 62.445 13.6733 62.604 14.0483C62.766 14.4233 62.9933 14.7145 63.2859 14.9219C63.5813 15.1293 63.9279 15.233 64.3256 15.233C64.587 15.233 64.8242 15.1875 65.0373 15.0966C65.2504 15.0057 65.4308 14.875 65.5785 14.7045C65.7262 14.5341 65.8313 14.3295 65.8938 14.0909H66.8995C66.8427 14.4773 66.7021 14.8253 66.4776 15.1349C66.256 15.4418 65.962 15.6861 65.5955 15.8679C65.2319 16.0469 64.8086 16.1364 64.3256 16.1364ZM71.2163 9.45455V10.3068H67.8242V9.45455H71.2163ZM68.8129 7.88636H69.8185V14.125C69.8185 14.4091 69.8597 14.6222 69.9421 14.7642C70.0273 14.9034 70.1353 14.9972 70.266 15.0455C70.3995 15.0909 70.5401 15.1136 70.6879 15.1136C70.7987 15.1136 70.8896 15.108 70.9606 15.0966C71.0316 15.0824 71.0884 15.071 71.131 15.0625L71.3356 15.9659C71.2674 15.9915 71.1722 16.017 71.0501 16.0426C70.9279 16.071 70.7731 16.0852 70.5856 16.0852C70.3015 16.0852 70.0231 16.0241 69.7504 15.902C69.4805 15.7798 69.256 15.5938 69.0771 15.3438C68.9009 15.0938 68.8129 14.7784 68.8129 14.3977V7.88636ZM75.3178 16.1364C74.7269 16.1364 74.2085 15.9957 73.7624 15.7145C73.3192 15.4332 72.9727 15.0398 72.7227 14.5341C72.4755 14.0284 72.3519 13.4375 72.3519 12.7614C72.3519 12.0795 72.4755 11.4844 72.7227 10.9759C72.9727 10.4673 73.3192 10.0724 73.7624 9.79119C74.2085 9.50994 74.7269 9.36932 75.3178 9.36932C75.9087 9.36932 76.4258 9.50994 76.869 9.79119C77.315 10.0724 77.6616 10.4673 77.9087 10.9759C78.1587 11.4844 78.2837 12.0795 78.2837 12.7614C78.2837 13.4375 78.1587 14.0284 77.9087 14.5341C77.6616 15.0398 77.315 15.4332 76.869 15.7145C76.4258 15.9957 75.9087 16.1364 75.3178 16.1364ZM75.3178 15.233C75.7667 15.233 76.136 15.1179 76.4258 14.8878C76.7156 14.6577 76.93 14.3551 77.0692 13.9801C77.2085 13.6051 77.2781 13.1989 77.2781 12.7614C77.2781 12.3239 77.2085 11.9162 77.0692 11.5384C76.93 11.1605 76.7156 10.8551 76.4258 10.6222C76.136 10.3892 75.7667 10.2727 75.3178 10.2727C74.869 10.2727 74.4996 10.3892 74.2099 10.6222C73.9201 10.8551 73.7056 11.1605 73.5664 11.5384C73.4272 11.9162 73.3576 12.3239 73.3576 12.7614C73.3576 13.1989 73.4272 13.6051 73.5664 13.9801C73.7056 14.3551 73.9201 14.6577 74.2099 14.8878C74.4996 15.1179 74.869 15.233 75.3178 15.233ZM79.8189 16V9.45455H80.7905V10.4432H80.8587C80.978 10.1193 81.1939 9.85653 81.5064 9.65483C81.8189 9.45312 82.1712 9.35227 82.5632 9.35227C82.6371 9.35227 82.7294 9.35369 82.8402 9.35653C82.951 9.35937 83.0348 9.36364 83.0916 9.36932V10.392C83.0575 10.3835 82.9794 10.3707 82.8572 10.3537C82.7379 10.3338 82.6115 10.3239 82.478 10.3239C82.1598 10.3239 81.8757 10.3906 81.6257 10.5241C81.3786 10.6548 81.1825 10.8366 81.0376 11.0696C80.8956 11.2997 80.8246 11.5625 80.8246 11.858V16H79.8189ZM84.2837 16V9.45455H85.2553V10.4773H85.3406C85.4769 10.1278 85.6971 9.85653 86.0011 9.66335C86.305 9.46733 86.6701 9.36932 87.0962 9.36932C87.5281 9.36932 87.8874 9.46733 88.1744 9.66335C88.4641 9.85653 88.69 10.1278 88.8519 10.4773H88.9201C89.0877 10.1392 89.3391 9.87074 89.6744 9.67188C90.0096 9.47017 90.4116 9.36932 90.8803 9.36932C91.4656 9.36932 91.9442 9.55256 92.3164 9.91903C92.6886 10.2827 92.8746 10.8494 92.8746 11.6193V16H91.869V11.6193C91.869 11.1364 91.7369 10.7912 91.4727 10.5838C91.2085 10.3764 90.8974 10.2727 90.5394 10.2727C90.0792 10.2727 89.7227 10.4119 89.4698 10.6903C89.217 10.9659 89.0906 11.3153 89.0906 11.7386V16H88.0678V11.517C88.0678 11.1449 87.9471 10.8452 87.7056 10.6179C87.4641 10.3878 87.1531 10.2727 86.7724 10.2727C86.511 10.2727 86.2667 10.3423 86.0394 10.4815C85.815 10.6207 85.6332 10.8139 85.494 11.0611C85.3576 11.3054 85.2894 11.5881 85.2894 11.9091V16H84.2837ZM96.6396 16.1534C96.2248 16.1534 95.8484 16.0753 95.5103 15.919C95.1722 15.7599 94.9038 15.5312 94.7049 15.233C94.506 14.9318 94.4066 14.5682 94.4066 14.142C94.4066 13.767 94.4805 13.4631 94.6282 13.2301C94.7759 12.9943 94.9734 12.8097 95.2205 12.6761C95.4677 12.5426 95.7404 12.4432 96.0387 12.3778C96.3398 12.3097 96.6424 12.2557 96.9464 12.2159C97.3441 12.1648 97.6665 12.1264 97.9137 12.1009C98.1637 12.0724 98.3455 12.0256 98.4592 11.9602C98.5756 11.8949 98.6339 11.7812 98.6339 11.6193V11.5852C98.6339 11.1648 98.5188 10.8381 98.2887 10.6051C98.0614 10.3722 97.7163 10.2557 97.2532 10.2557C96.7731 10.2557 96.3967 10.3608 96.1239 10.571C95.8512 10.7812 95.6594 11.0057 95.5487 11.2443L94.5941 10.9034C94.7646 10.5057 94.9918 10.196 95.2759 9.97443C95.5629 9.75 95.8754 9.59375 96.2134 9.50568C96.5543 9.41477 96.8896 9.36932 97.2191 9.36932C97.4293 9.36932 97.6708 9.39489 97.9435 9.44602C98.2191 9.49432 98.4847 9.59517 98.7404 9.74858C98.9989 9.90199 99.2134 10.1335 99.3839 10.4432C99.5543 10.7528 99.6396 11.1676 99.6396 11.6875V16H98.6339V15.1136H98.5827C98.5146 15.2557 98.4009 15.4077 98.2418 15.5696C98.0827 15.7315 97.8711 15.8693 97.6069 15.983C97.3427 16.0966 97.0202 16.1534 96.6396 16.1534ZM96.793 15.25C97.1907 15.25 97.5259 15.1719 97.7987 15.0156C98.0742 14.8594 98.2816 14.6577 98.4208 14.4105C98.5629 14.1634 98.6339 13.9034 98.6339 13.6307V12.7102C98.5913 12.7614 98.4975 12.8082 98.3526 12.8509C98.2106 12.8906 98.0458 12.9261 97.8583 12.9574C97.6737 12.9858 97.4933 13.0114 97.3171 13.0341C97.1438 13.054 97.0032 13.071 96.8952 13.0852C96.6339 13.1193 96.3896 13.1747 96.1623 13.2514C95.9379 13.3253 95.756 13.4375 95.6168 13.5881C95.4805 13.7358 95.4123 13.9375 95.4123 14.1932C95.4123 14.5426 95.5415 14.8068 95.8001 14.9858C96.0614 15.1619 96.3924 15.25 96.793 15.25ZM101.475 18.4545V9.45455H102.447V10.4943H102.566C102.64 10.3807 102.742 10.2358 102.873 10.0597C103.006 9.88068 103.197 9.72159 103.444 9.58239C103.694 9.44034 104.032 9.36932 104.458 9.36932C105.009 9.36932 105.495 9.5071 105.915 9.78267C106.336 10.0582 106.664 10.4489 106.9 10.9545C107.136 11.4602 107.254 12.0568 107.254 12.7443C107.254 13.4375 107.136 14.0384 106.9 14.5469C106.664 15.0526 106.337 15.4446 105.92 15.723C105.502 15.9986 105.021 16.1364 104.475 16.1364C104.055 16.1364 103.718 16.0668 103.465 15.9276C103.212 15.7855 103.018 15.625 102.881 15.446C102.745 15.2642 102.64 15.1136 102.566 14.9943H102.481V18.4545H101.475ZM102.464 12.7273C102.464 13.2216 102.536 13.6577 102.681 14.0355C102.826 14.4105 103.038 14.7045 103.316 14.9176C103.594 15.1278 103.935 15.233 104.339 15.233C104.759 15.233 105.11 15.1222 105.391 14.9006C105.675 14.6761 105.888 14.375 106.031 13.9972C106.175 13.6165 106.248 13.1932 106.248 12.7273C106.248 12.267 106.177 11.8523 106.035 11.483C105.896 11.1108 105.684 10.8168 105.4 10.6009C105.119 10.3821 104.765 10.2727 104.339 10.2727C103.93 10.2727 103.586 10.3764 103.308 10.5838C103.029 10.7884 102.819 11.0753 102.677 11.4446C102.535 11.8111 102.464 12.2386 102.464 12.7273ZM109.793 12.0625V16H108.788V9.45455H109.759V10.4773H109.844C109.998 10.1449 110.231 9.87784 110.543 9.67614C110.856 9.47159 111.259 9.36932 111.754 9.36932C112.197 9.36932 112.585 9.46023 112.917 9.64205C113.249 9.82102 113.508 10.0938 113.692 10.4602C113.877 10.8239 113.969 11.2841 113.969 11.8409V16H112.964V11.9091C112.964 11.3949 112.83 10.9943 112.563 10.7074C112.296 10.4176 111.93 10.2727 111.464 10.2727C111.143 10.2727 110.856 10.3423 110.603 10.4815C110.353 10.6207 110.156 10.8239 110.011 11.0909C109.866 11.358 109.793 11.6818 109.793 12.0625ZM117.733 16.1534C117.319 16.1534 116.942 16.0753 116.604 15.919C116.266 15.7599 115.998 15.5312 115.799 15.233C115.6 14.9318 115.5 14.5682 115.5 14.142C115.5 13.767 115.574 13.4631 115.722 13.2301C115.87 12.9943 116.067 12.8097 116.314 12.6761C116.561 12.5426 116.834 12.4432 117.132 12.3778C117.434 12.3097 117.736 12.2557 118.04 12.2159C118.438 12.1648 118.76 12.1264 119.007 12.1009C119.257 12.0724 119.439 12.0256 119.553 11.9602C119.669 11.8949 119.728 11.7812 119.728 11.6193V11.5852C119.728 11.1648 119.613 10.8381 119.382 10.6051C119.155 10.3722 118.81 10.2557 118.347 10.2557C117.867 10.2557 117.49 10.3608 117.218 10.571C116.945 10.7812 116.753 11.0057 116.642 11.2443L115.688 10.9034C115.858 10.5057 116.086 10.196 116.37 9.97443C116.657 9.75 116.969 9.59375 117.307 9.50568C117.648 9.41477 117.983 9.36932 118.313 9.36932C118.523 9.36932 118.765 9.39489 119.037 9.44602C119.313 9.49432 119.578 9.59517 119.834 9.74858C120.093 9.90199 120.307 10.1335 120.478 10.4432C120.648 10.7528 120.733 11.1676 120.733 11.6875V16H119.728V15.1136H119.676C119.608 15.2557 119.495 15.4077 119.336 15.5696C119.176 15.7315 118.965 15.8693 118.701 15.983C118.436 16.0966 118.114 16.1534 117.733 16.1534ZM117.887 15.25C118.284 15.25 118.62 15.1719 118.892 15.0156C119.168 14.8594 119.375 14.6577 119.515 14.4105C119.657 14.1634 119.728 13.9034 119.728 13.6307V12.7102C119.685 12.7614 119.591 12.8082 119.446 12.8509C119.304 12.8906 119.14 12.9261 118.952 12.9574C118.767 12.9858 118.587 13.0114 118.411 13.0341C118.238 13.054 118.097 13.071 117.989 13.0852C117.728 13.1193 117.483 13.1747 117.256 13.2514C117.032 13.3253 116.85 13.4375 116.711 13.5881C116.574 13.7358 116.506 13.9375 116.506 14.1932C116.506 14.5426 116.635 14.8068 116.894 14.9858C117.155 15.1619 117.486 15.25 117.887 15.25ZM122.569 16V9.45455H123.54V10.4773H123.626C123.762 10.1278 123.982 9.85653 124.286 9.66335C124.59 9.46733 124.955 9.36932 125.381 9.36932C125.813 9.36932 126.173 9.46733 126.46 9.66335C126.749 9.85653 126.975 10.1278 127.137 10.4773H127.205C127.373 10.1392 127.624 9.87074 127.96 9.67188C128.295 9.47017 128.697 9.36932 129.165 9.36932C129.751 9.36932 130.229 9.55256 130.602 9.91903C130.974 10.2827 131.16 10.8494 131.16 11.6193V16H130.154V11.6193C130.154 11.1364 130.022 10.7912 129.758 10.5838C129.494 10.3764 129.183 10.2727 128.825 10.2727C128.364 10.2727 128.008 10.4119 127.755 10.6903C127.502 10.9659 127.376 11.3153 127.376 11.7386V16H126.353V11.517C126.353 11.1449 126.232 10.8452 125.991 10.6179C125.749 10.3878 125.438 10.2727 125.058 10.2727C124.796 10.2727 124.552 10.3423 124.325 10.4815C124.1 10.6207 123.918 10.8139 123.779 11.0611C123.643 11.3054 123.575 11.5881 123.575 11.9091V16H122.569ZM135.743 16.1364C135.112 16.1364 134.568 15.9972 134.111 15.7188C133.656 15.4375 133.305 15.0455 133.058 14.5426C132.814 14.0369 132.692 13.4489 132.692 12.7784C132.692 12.108 132.814 11.517 133.058 11.0057C133.305 10.4915 133.649 10.0909 134.089 9.80398C134.533 9.5142 135.05 9.36932 135.641 9.36932C135.982 9.36932 136.318 9.42614 136.651 9.53977C136.983 9.65341 137.286 9.83807 137.558 10.0938C137.831 10.3466 138.048 10.6818 138.21 11.0994C138.372 11.517 138.453 12.0312 138.453 12.642V13.0682H133.408V12.1989H137.43C137.43 11.8295 137.357 11.5 137.209 11.2102C137.064 10.9205 136.857 10.6918 136.587 10.5241C136.32 10.3565 136.004 10.2727 135.641 10.2727C135.24 10.2727 134.893 10.3722 134.601 10.571C134.311 10.767 134.088 11.0227 133.932 11.3381C133.776 11.6534 133.697 11.9915 133.697 12.3523V12.9318C133.697 13.4261 133.783 13.8452 133.953 14.1889C134.126 14.5298 134.366 14.7898 134.673 14.9688C134.98 15.1449 135.337 15.233 135.743 15.233C136.007 15.233 136.246 15.196 136.459 15.1222C136.675 15.0455 136.861 14.9318 137.017 14.7812C137.173 14.6278 137.294 14.4375 137.379 14.2102L138.351 14.483C138.249 14.8125 138.077 15.1023 137.835 15.3523C137.594 15.5994 137.295 15.7926 136.94 15.9318C136.585 16.0682 136.186 16.1364 135.743 16.1364ZM140.716 16.0682C140.506 16.0682 140.325 15.9929 140.175 15.8423C140.024 15.6918 139.949 15.5114 139.949 15.3011C139.949 15.0909 140.024 14.9105 140.175 14.7599C140.325 14.6094 140.506 14.5341 140.716 14.5341C140.926 14.5341 141.107 14.6094 141.257 14.7599C141.408 14.9105 141.483 15.0909 141.483 15.3011C141.483 15.4403 141.447 15.5682 141.376 15.6847C141.308 15.8011 141.216 15.8949 141.099 15.9659C140.986 16.0341 140.858 16.0682 140.716 16.0682ZM146.134 9.45455V10.3068H142.742V9.45455H146.134ZM143.731 7.88636H144.737V14.125C144.737 14.4091 144.778 14.6222 144.86 14.7642C144.945 14.9034 145.053 14.9972 145.184 15.0455C145.317 15.0909 145.458 15.1136 145.606 15.1136C145.717 15.1136 145.808 15.108 145.879 15.0966C145.95 15.0824 146.006 15.071 146.049 15.0625L146.254 15.9659C146.185 15.9915 146.09 16.017 145.968 16.0426C145.846 16.071 145.691 16.0852 145.504 16.0852C145.219 16.0852 144.941 16.0241 144.668 15.902C144.398 15.7798 144.174 15.5938 143.995 15.3438C143.819 15.0938 143.731 14.7784 143.731 14.3977V7.88636ZM148.397 9.45455L149.965 12.1307L151.533 9.45455H152.692L150.579 12.7273L152.692 16H151.533L149.965 13.4602L148.397 16H147.238L149.317 12.7273L147.238 9.45455H148.397ZM156.974 9.45455V10.3068H153.582V9.45455H156.974ZM154.571 7.88636H155.576V14.125C155.576 14.4091 155.618 14.6222 155.7 14.7642C155.785 14.9034 155.893 14.9972 156.024 15.0455C156.157 15.0909 156.298 15.1136 156.446 15.1136C156.556 15.1136 156.647 15.108 156.718 15.0966C156.789 15.0824 156.846 15.071 156.889 15.0625L157.093 15.9659C157.025 15.9915 156.93 16.017 156.808 16.0426C156.686 16.071 156.531 16.0852 156.343 16.0852C156.059 16.0852 155.781 16.0241 155.508 15.902C155.238 15.7798 155.014 15.5938 154.835 15.3438C154.659 15.0938 154.571 14.7784 154.571 14.3977V7.88636Z" fill="var(--colors-neutral-neutral-800)"/>
<path d="M238.615 21C238.168 21 237.787 20.8426 237.472 20.5279C237.157 20.2132 237 19.8321 237 19.3846V10.6154C237 10.1679 237.157 9.78685 237.472 9.4721C237.787 9.15737 238.168 9 238.615 9H240V7C240 5.8859 240.388 4.94071 241.164 4.16442C241.941 3.38814 242.886 3 244 3C245.114 3 246.059 3.38814 246.836 4.16442C247.612 4.94071 248 5.8859 248 7V9H249.385C249.832 9 250.213 9.15737 250.528 9.4721C250.843 9.78685 251 10.1679 251 10.6154V19.3846C251 19.8321 250.843 20.2132 250.528 20.5279C250.213 20.8426 249.832 21 249.385 21H238.615ZM238.615 20H249.385C249.564 20 249.712 19.9423 249.827 19.8269C249.942 19.7115 250 19.5641 250 19.3846V10.6154C250 10.4359 249.942 10.2885 249.827 10.1731C249.712 10.0577 249.564 10 249.385 10H238.615C238.436 10 238.288 10.0577 238.173 10.1731C238.058 10.2885 238 10.4359 238 10.6154V19.3846C238 19.5641 238.058 19.7115 238.173 19.8269C238.288 19.9423 238.436 20 238.615 20ZM244 16.5C244.422 16.5 244.777 16.3554 245.066 16.0663C245.355 15.7773 245.5 15.4218 245.5 15C245.5 14.5782 245.355 14.2228 245.066 13.9337C244.777 13.6446 244.422 13.5 244 13.5C243.578 13.5 243.223 13.6446 242.934 13.9337C242.645 14.2228 242.5 14.5782 242.5 15C242.5 15.4218 242.645 15.7773 242.934 16.0663C243.223 16.3554 243.578 16.5 244 16.5ZM241 9H247V7C247 6.16667 246.708 5.45833 246.125 4.875C245.542 4.29167 244.833 4 244 4C243.167 4 242.458 4.29167 241.875 4.875C241.292 5.45833 241 6.16667 241 7V9Z" fill="var(--colors-neutral-neutral-800)"/>
<path d="M271.615 20C271.168 20 270.787 19.8426 270.472 19.5279C270.157 19.2131 270 18.832 270 18.3846V5.99996H269V4.99996H273V4.23071H279V4.99996H283V5.99996H282V18.3846C282 18.8448 281.846 19.2291 281.538 19.5375C281.229 19.8458 280.845 20 280.385 20H271.615ZM281 5.99996H271V18.3846C271 18.5641 271.058 18.7115 271.173 18.8269C271.288 18.9423 271.436 19 271.615 19H280.385C280.538 19 280.679 18.9359 280.808 18.8077C280.936 18.6794 281 18.5384 281 18.3846V5.99996ZM273.808 17H274.808V7.99996H273.808V17ZM277.192 17H278.192V7.99996H277.192V17Z" fill="var(--colors-neutral-neutral-800)"/>
</svg>
