<svg width="304" height="129" viewBox="0 0 304 129" fill="none" xmlns="http://www.w3.org/2000/svg">
<path d="M304 127.5H0V128.5H304V127.5Z" fill="#E6E6E6"/>
<path d="M18.004 24.616V23.368H20.056C20.368 23.368 20.644 23.316 20.884 23.212C21.124 23.1 21.312 22.948 21.448 22.756C21.584 22.556 21.652 22.328 21.652 22.072C21.652 21.824 21.592 21.612 21.472 21.436C21.352 21.26 21.188 21.124 20.98 21.028C20.772 20.932 20.536 20.884 20.272 20.884H18.004V19.624H20.272C20.84 19.624 21.344 19.72 21.784 19.912C22.232 20.104 22.584 20.384 22.84 20.752C23.096 21.112 23.224 21.552 23.224 22.072C23.224 22.392 23.148 22.704 22.996 23.008C22.844 23.312 22.628 23.588 22.348 23.836C22.068 24.076 21.728 24.268 21.328 24.412C20.928 24.548 20.476 24.616 19.972 24.616H18.004ZM16.924 28V19.624H18.436V28H16.924ZM21.652 28C21.62 27.632 21.532 27.268 21.388 26.908C21.244 26.54 21.04 26.188 20.776 25.852C20.52 25.516 20.204 25.208 19.828 24.928C19.452 24.64 19.012 24.392 18.508 24.184L20.188 23.824C20.692 24.08 21.128 24.368 21.496 24.688C21.864 25.008 22.168 25.352 22.408 25.72C22.656 26.08 22.844 26.456 22.972 26.848C23.1 27.232 23.176 27.616 23.2 28H21.652ZM27.7767 28.144C27.0807 28.144 26.4807 28.008 25.9767 27.736C25.4727 27.456 25.0847 27.056 24.8127 26.536C24.5487 26.016 24.4167 25.396 24.4167 24.676C24.4167 23.956 24.5527 23.34 24.8247 22.828C25.0967 22.308 25.4887 21.912 26.0007 21.64C26.5127 21.368 27.1247 21.232 27.8367 21.232C28.9407 21.232 29.7527 21.54 30.2727 22.156C30.8007 22.772 31.0287 23.616 30.9567 24.688H25.5567L25.5687 23.644L29.4927 23.656C29.4607 23.272 29.2927 22.964 28.9887 22.732C28.6847 22.5 28.3007 22.384 27.8367 22.384C27.1807 22.384 26.6847 22.588 26.3487 22.996C26.0127 23.404 25.8447 23.984 25.8447 24.736C25.8447 25.168 25.9207 25.556 26.0727 25.9C26.2247 26.236 26.4407 26.5 26.7207 26.692C27.0087 26.876 27.3607 26.968 27.7767 26.968C28.2487 26.968 28.6407 26.856 28.9527 26.632C29.2727 26.408 29.4687 26.108 29.5407 25.732H30.9807C30.8847 26.476 30.5487 27.064 29.9727 27.496C29.4047 27.928 28.6727 28.144 27.7767 28.144ZM34.5494 28V20.656C34.5494 20.232 34.6334 19.86 34.8014 19.54C34.9774 19.212 35.2254 18.956 35.5454 18.772C35.8654 18.588 36.2454 18.496 36.6854 18.496H38.6894V19.66H37.1774C36.9534 19.66 36.7494 19.688 36.5654 19.744C36.3814 19.792 36.2374 19.884 36.1334 20.02C36.0294 20.156 35.9774 20.36 35.9774 20.632V28H34.5494ZM33.0734 22.54V21.376H37.8974V22.54H33.0734ZM32.5094 28V26.836H38.5574V28H32.5094ZM43.3861 28.144C42.6901 28.144 42.0901 28.008 41.5861 27.736C41.0821 27.456 40.6941 27.056 40.4221 26.536C40.1581 26.016 40.0261 25.396 40.0261 24.676C40.0261 23.956 40.1621 23.34 40.4341 22.828C40.7061 22.308 41.0981 21.912 41.6101 21.64C42.1221 21.368 42.7341 21.232 43.4461 21.232C44.5501 21.232 45.3621 21.54 45.8821 22.156C46.4101 22.772 46.6381 23.616 46.5661 24.688H41.1661L41.1781 23.644L45.1021 23.656C45.0701 23.272 44.9021 22.964 44.5981 22.732C44.2941 22.5 43.9101 22.384 43.4461 22.384C42.7901 22.384 42.2941 22.588 41.9581 22.996C41.6221 23.404 41.4541 23.984 41.4541 24.736C41.4541 25.168 41.5301 25.556 41.6821 25.9C41.8341 26.236 42.0501 26.5 42.3301 26.692C42.6181 26.876 42.9701 26.968 43.3861 26.968C43.8581 26.968 44.2501 26.856 44.5621 26.632C44.8821 26.408 45.0781 26.108 45.1501 25.732H46.5901C46.4941 26.476 46.1581 27.064 45.5821 27.496C45.0141 27.928 44.2821 28.144 43.3861 28.144ZM52.7988 24.376V23.548C52.7988 23.22 52.6988 22.956 52.4988 22.756C52.3068 22.548 52.0268 22.444 51.6588 22.444C51.2108 22.444 50.8028 22.608 50.4348 22.936C50.0668 23.264 49.7588 23.78 49.5108 24.484L49.3308 23.14C49.5148 22.724 49.7308 22.376 49.9788 22.096C50.2348 21.808 50.5228 21.592 50.8428 21.448C51.1708 21.304 51.5268 21.232 51.9108 21.232C52.5908 21.232 53.1468 21.432 53.5788 21.832C54.0108 22.232 54.2268 22.804 54.2268 23.548V24.376H52.7988ZM48.3348 28V21.376H49.6908L49.7628 22.78V28H48.3348ZM58.9954 28.144C58.2994 28.144 57.6994 28.008 57.1954 27.736C56.6914 27.456 56.3034 27.056 56.0314 26.536C55.7674 26.016 55.6354 25.396 55.6354 24.676C55.6354 23.956 55.7714 23.34 56.0434 22.828C56.3154 22.308 56.7074 21.912 57.2194 21.64C57.7314 21.368 58.3434 21.232 59.0554 21.232C60.1594 21.232 60.9714 21.54 61.4914 22.156C62.0194 22.772 62.2474 23.616 62.1754 24.688H56.7754L56.7874 23.644L60.7114 23.656C60.6794 23.272 60.5114 22.964 60.2074 22.732C59.9034 22.5 59.5194 22.384 59.0554 22.384C58.3994 22.384 57.9034 22.588 57.5674 22.996C57.2314 23.404 57.0634 23.984 57.0634 24.736C57.0634 25.168 57.1394 25.556 57.2914 25.9C57.4434 26.236 57.6594 26.5 57.9394 26.692C58.2274 26.876 58.5794 26.968 58.9954 26.968C59.4674 26.968 59.8594 26.856 60.1714 26.632C60.4914 26.408 60.6874 26.108 60.7594 25.732H62.1994C62.1034 26.476 61.7674 27.064 61.1914 27.496C60.6234 27.928 59.8914 28.144 58.9954 28.144ZM68.3481 28V23.86C68.3481 23.428 68.2281 23.084 67.9881 22.828C67.7561 22.572 67.4521 22.444 67.0761 22.444C66.6441 22.444 66.2521 22.6 65.9001 22.912C65.5561 23.216 65.2601 23.708 65.0121 24.388L64.7961 22.96C65.0601 22.376 65.4201 21.944 65.8761 21.664C66.3321 21.376 66.8201 21.232 67.3401 21.232C67.8441 21.232 68.2761 21.34 68.6361 21.556C69.0041 21.764 69.2841 22.06 69.4761 22.444C69.6761 22.82 69.7761 23.264 69.7761 23.776V28H68.3481ZM63.7281 28V21.376H65.0961L65.1561 22.768V28H63.7281ZM74.6888 28.144C74.0008 28.144 73.4048 28.004 72.9008 27.724C72.3968 27.444 72.0088 27.044 71.7368 26.524C71.4728 26.004 71.3408 25.392 71.3408 24.688C71.3408 23.968 71.4808 23.352 71.7608 22.84C72.0408 22.32 72.4328 21.924 72.9368 21.652C73.4488 21.372 74.0448 21.232 74.7248 21.232C75.2848 21.232 75.7848 21.336 76.2248 21.544C76.6648 21.744 77.0208 22.028 77.2928 22.396C77.5648 22.764 77.7168 23.204 77.7488 23.716H76.3208C76.2568 23.292 76.0808 22.972 75.7928 22.756C75.5128 22.532 75.1568 22.42 74.7248 22.42C74.3328 22.42 73.9888 22.512 73.6928 22.696C73.4048 22.872 73.1808 23.128 73.0208 23.464C72.8608 23.8 72.7808 24.208 72.7808 24.688C72.7808 25.408 72.9568 25.972 73.3088 26.38C73.6688 26.78 74.1288 26.98 74.6888 26.98C74.9608 26.98 75.2088 26.928 75.4328 26.824C75.6648 26.712 75.8608 26.56 76.0208 26.368C76.1888 26.176 76.3008 25.952 76.3568 25.696H77.7968C77.7248 26.192 77.5448 26.624 77.2568 26.992C76.9768 27.36 76.6128 27.644 76.1648 27.844C75.7248 28.044 75.2328 28.144 74.6888 28.144ZM82.4095 28.144C81.7135 28.144 81.1135 28.008 80.6095 27.736C80.1055 27.456 79.7175 27.056 79.4455 26.536C79.1815 26.016 79.0495 25.396 79.0495 24.676C79.0495 23.956 79.1855 23.34 79.4575 22.828C79.7295 22.308 80.1215 21.912 80.6335 21.64C81.1455 21.368 81.7575 21.232 82.4695 21.232C83.5735 21.232 84.3855 21.54 84.9055 22.156C85.4335 22.772 85.6615 23.616 85.5895 24.688H80.1895L80.2015 23.644L84.1255 23.656C84.0935 23.272 83.9255 22.964 83.6215 22.732C83.3175 22.5 82.9335 22.384 82.4695 22.384C81.8135 22.384 81.3175 22.588 80.9815 22.996C80.6455 23.404 80.4775 23.984 80.4775 24.736C80.4775 25.168 80.5535 25.556 80.7055 25.9C80.8575 26.236 81.0735 26.5 81.3535 26.692C81.6415 26.876 81.9935 26.968 82.4095 26.968C82.8815 26.968 83.2735 26.856 83.5855 26.632C83.9055 26.408 84.1015 26.108 84.1735 25.732H85.6135C85.5175 26.476 85.1815 27.064 84.6055 27.496C84.0375 27.928 83.3055 28.144 82.4095 28.144ZM97.2749 28V21.376H98.7029V28H97.2749ZM94.9349 28V26.836H100.947V28H94.9349ZM95.7869 22.54V21.376H97.9829V22.54H95.7869ZM97.1909 20.332V18.868H98.7509V20.332H97.1909ZM107.78 28V23.224C107.78 22.968 107.736 22.768 107.648 22.624C107.568 22.48 107.436 22.408 107.252 22.408C106.996 22.408 106.768 22.576 106.568 22.912C106.376 23.24 106.236 23.776 106.148 24.52L106.04 23.548C106.032 22.82 106.18 22.252 106.484 21.844C106.796 21.436 107.188 21.232 107.66 21.232C108.084 21.232 108.424 21.392 108.68 21.712C108.944 22.032 109.076 22.492 109.076 23.092V28H107.78ZM102.428 28V21.376H103.676L103.724 22.648V28H102.428ZM105.104 28V23.224C105.104 22.952 105.056 22.748 104.96 22.612C104.872 22.476 104.736 22.408 104.552 22.408C104.28 22.408 104.052 22.584 103.868 22.936C103.684 23.288 103.548 23.816 103.46 24.52L103.448 23.5C103.448 23.028 103.52 22.624 103.664 22.288C103.816 21.944 104.008 21.684 104.24 21.508C104.472 21.324 104.724 21.232 104.996 21.232C105.436 21.232 105.78 21.4 106.028 21.736C106.276 22.064 106.4 22.508 106.4 23.068V28H105.104ZM115.14 28L115.08 26.596V23.62C115.08 23.204 114.94 22.876 114.66 22.636C114.38 22.396 113.992 22.276 113.496 22.276C113.024 22.276 112.636 22.384 112.332 22.6C112.036 22.816 111.868 23.112 111.828 23.488H110.436C110.476 23.016 110.628 22.612 110.892 22.276C111.164 21.94 111.524 21.684 111.972 21.508C112.428 21.324 112.952 21.232 113.544 21.232C114.152 21.232 114.676 21.328 115.116 21.52C115.564 21.712 115.908 21.992 116.148 22.36C116.388 22.728 116.508 23.176 116.508 23.704V28H115.14ZM112.836 28.144C112.404 28.144 112.02 28.064 111.684 27.904C111.356 27.744 111.1 27.516 110.916 27.22C110.732 26.924 110.64 26.58 110.64 26.188C110.64 25.508 110.904 24.98 111.432 24.604C111.96 24.22 112.692 24.028 113.628 24.028H115.248V25.06L113.58 25.072C113.1 25.072 112.724 25.164 112.452 25.348C112.18 25.524 112.044 25.78 112.044 26.116C112.044 26.38 112.14 26.592 112.332 26.752C112.532 26.912 112.804 26.992 113.148 26.992C113.588 26.992 113.98 26.876 114.324 26.644C114.676 26.404 114.96 26.076 115.176 25.66L115.332 26.668C115.124 27.156 114.808 27.524 114.384 27.772C113.96 28.02 113.444 28.144 112.836 28.144ZM123.065 22.24L123.101 21.376H124.469V27.22C124.469 28.22 124.201 28.98 123.665 29.5C123.129 30.02 122.313 30.28 121.217 30.28C120.617 30.28 120.097 30.2 119.657 30.04C119.217 29.888 118.873 29.652 118.625 29.332C118.385 29.02 118.249 28.624 118.217 28.144H119.717C119.757 28.464 119.905 28.704 120.161 28.864C120.417 29.024 120.793 29.104 121.289 29.104C121.873 29.104 122.309 28.952 122.597 28.648C122.893 28.352 123.041 27.932 123.041 27.388V26.668C122.817 26.98 122.525 27.224 122.165 27.4C121.813 27.576 121.421 27.664 120.989 27.664C120.429 27.664 119.929 27.524 119.489 27.244C119.057 26.964 118.717 26.584 118.469 26.104C118.221 25.616 118.097 25.068 118.097 24.46C118.097 23.796 118.225 23.224 118.481 22.744C118.745 22.256 119.101 21.884 119.549 21.628C119.997 21.372 120.505 21.244 121.073 21.244C121.497 21.244 121.881 21.336 122.225 21.52C122.577 21.704 122.857 21.944 123.065 22.24ZM121.325 26.56C121.725 26.56 122.077 26.44 122.381 26.2C122.693 25.952 122.913 25.628 123.041 25.228V23.668C122.913 23.26 122.693 22.94 122.381 22.708C122.077 22.468 121.725 22.348 121.325 22.348C120.973 22.348 120.661 22.44 120.389 22.624C120.117 22.808 119.905 23.056 119.753 23.368C119.601 23.68 119.525 24.036 119.525 24.436C119.525 24.844 119.601 25.208 119.753 25.528C119.905 25.84 120.117 26.092 120.389 26.284C120.661 26.468 120.973 26.56 121.325 26.56ZM129.238 28.144C128.542 28.144 127.942 28.008 127.438 27.736C126.934 27.456 126.546 27.056 126.274 26.536C126.01 26.016 125.878 25.396 125.878 24.676C125.878 23.956 126.014 23.34 126.286 22.828C126.558 22.308 126.95 21.912 127.462 21.64C127.974 21.368 128.586 21.232 129.298 21.232C130.402 21.232 131.214 21.54 131.734 22.156C132.262 22.772 132.49 23.616 132.418 24.688H127.018L127.03 23.644L130.954 23.656C130.922 23.272 130.754 22.964 130.45 22.732C130.146 22.5 129.762 22.384 129.298 22.384C128.642 22.384 128.146 22.588 127.81 22.996C127.474 23.404 127.306 23.984 127.306 24.736C127.306 25.168 127.382 25.556 127.534 25.9C127.686 26.236 127.902 26.5 128.182 26.692C128.47 26.876 128.822 26.968 129.238 26.968C129.71 26.968 130.102 26.856 130.414 26.632C130.734 26.408 130.93 26.108 131.002 25.732H132.442C132.346 26.476 132.01 27.064 131.434 27.496C130.866 27.928 130.134 28.144 129.238 28.144Z" fill="#222222"/>
<path d="M275.4 26.7019L274.692 25.9942L280 20.6865L285.308 25.9942L284.6 26.7019L280 22.1019L275.4 26.7019Z" fill="#222222"/>
<rect x="16.5" y="48.5" width="271" height="31" fill="white"/>
<rect x="16.5" y="48.5" width="271" height="31" stroke="#222222"/>
<path d="M115.185 59.3182H116.726V66.0149C116.726 66.7275 116.559 67.3589 116.224 67.9091C115.889 68.456 115.418 68.8868 114.812 69.2017C114.205 69.5133 113.494 69.669 112.679 69.669C111.867 69.669 111.158 69.5133 110.551 69.2017C109.945 68.8868 109.474 68.456 109.139 67.9091C108.805 67.3589 108.637 66.7275 108.637 66.0149V59.3182H110.173V65.8906C110.173 66.3513 110.274 66.7607 110.477 67.1186C110.682 67.4766 110.972 67.7583 111.347 67.9638C111.721 68.166 112.165 68.267 112.679 68.267C113.196 68.267 113.642 68.166 114.016 67.9638C114.394 67.7583 114.683 67.4766 114.881 67.1186C115.084 66.7607 115.185 66.3513 115.185 65.8906V59.3182ZM118.959 69.5V59.3182H122.589C123.381 59.3182 124.037 59.4624 124.557 59.7507C125.078 60.0391 125.467 60.4335 125.726 60.9339C125.984 61.4311 126.114 61.9912 126.114 62.6143C126.114 63.2408 125.983 63.8042 125.721 64.3047C125.462 64.8018 125.071 65.1963 124.547 65.4879C124.027 65.7763 123.373 65.9205 122.584 65.9205H120.088V64.6179H122.445C122.945 64.6179 123.351 64.5317 123.663 64.3594C123.974 64.1837 124.203 63.9451 124.349 63.6435C124.494 63.3419 124.567 62.9988 124.567 62.6143C124.567 62.2299 124.494 61.8885 124.349 61.5902C124.203 61.2919 123.972 61.0582 123.658 60.8892C123.346 60.7202 122.935 60.6357 122.425 60.6357H120.496V69.5H118.959ZM127.915 69.5V59.3182H129.451V68.1776H134.064V69.5H127.915ZM144.265 64.4091C144.265 65.4962 144.066 66.4309 143.668 67.2131C143.271 67.992 142.725 68.5919 142.033 69.0128C141.343 69.4304 140.559 69.6392 139.681 69.6392C138.799 69.6392 138.012 69.4304 137.32 69.0128C136.63 68.5919 136.087 67.9903 135.689 67.2081C135.291 66.4259 135.092 65.4929 135.092 64.4091C135.092 63.322 135.291 62.389 135.689 61.6101C136.087 60.8279 136.63 60.228 137.32 59.8104C138.012 59.3894 138.799 59.179 139.681 59.179C140.559 59.179 141.343 59.3894 142.033 59.8104C142.725 60.228 143.271 60.8279 143.668 61.6101C144.066 62.389 144.265 63.322 144.265 64.4091ZM142.744 64.4091C142.744 63.5805 142.609 62.8828 142.341 62.3161C142.076 61.746 141.711 61.3151 141.247 61.0234C140.786 60.7285 140.264 60.581 139.681 60.581C139.094 60.581 138.571 60.7285 138.11 61.0234C137.649 61.3151 137.285 61.746 137.016 62.3161C136.751 62.8828 136.619 63.5805 136.619 64.4091C136.619 65.2377 136.751 65.937 137.016 66.5071C137.285 67.0739 137.649 67.5047 138.11 67.7997C138.571 68.0914 139.094 68.2372 139.681 68.2372C140.264 68.2372 140.786 68.0914 141.247 67.7997C141.711 67.5047 142.076 67.0739 142.341 66.5071C142.609 65.937 142.744 65.2377 142.744 64.4091ZM146.534 69.5H144.904L148.568 59.3182H150.343L154.007 69.5H152.376L149.497 61.1676H149.418L146.534 69.5ZM146.808 65.5128H152.098V66.8054H146.808V65.5128ZM158.773 69.5H155.477V59.3182H158.878C159.875 59.3182 160.732 59.522 161.448 59.9297C162.164 60.334 162.712 60.9157 163.093 61.6747C163.478 62.4304 163.67 63.3369 163.67 64.3942C163.67 65.4548 163.476 66.3662 163.089 67.1286C162.704 67.8909 162.147 68.4775 161.418 68.8885C160.689 69.2962 159.807 69.5 158.773 69.5ZM157.013 68.1577H158.689C159.464 68.1577 160.109 68.0118 160.623 67.7202C161.136 67.4252 161.521 66.9993 161.776 66.4425C162.031 65.8823 162.159 65.1996 162.159 64.3942C162.159 63.5954 162.031 62.9176 161.776 62.3608C161.524 61.804 161.148 61.3814 160.647 61.093C160.147 60.8047 159.526 60.6605 158.783 60.6605H157.013V68.1577ZM169.286 69.5V59.3182H175.6V60.6406H170.822V63.7429H175.147V65.0604H170.822V69.5H169.286ZM179.025 59.3182V69.5H177.489V59.3182H179.025ZM181.262 69.5V59.3182H182.798V68.1776H187.412V69.5H181.262ZM189.165 69.5V59.3182H195.548V60.6406H190.701V63.7429H195.215V65.0604H190.701V68.1776H195.608V69.5H189.165Z" fill="#222222"/>
<path d="M17.179 99.5H16.2557L18.9261 92.2273H19.8352L22.5057 99.5H21.5824L19.4091 93.3778H19.3523L17.179 99.5ZM17.5199 96.6591H21.2415V97.4403H17.5199V96.6591ZM24.3629 92.2273V99.5H23.5249V92.2273H24.3629ZM26.736 92.2273V99.5H25.8979V92.2273H26.736ZM30.4869 99.6136C29.9944 99.6136 29.5624 99.4964 29.1907 99.2621C28.8214 99.0277 28.5326 98.6998 28.3242 98.2784C28.1183 97.857 28.0153 97.3646 28.0153 96.8011C28.0153 96.233 28.1183 95.737 28.3242 95.3132C28.5326 94.8894 28.8214 94.5604 29.1907 94.326C29.5624 94.0916 29.9944 93.9744 30.4869 93.9744C30.9793 93.9744 31.4102 94.0916 31.7795 94.326C32.1512 94.5604 32.44 94.8894 32.646 95.3132C32.8543 95.737 32.9585 96.233 32.9585 96.8011C32.9585 97.3646 32.8543 97.857 32.646 98.2784C32.44 98.6998 32.1512 99.0277 31.7795 99.2621C31.4102 99.4964 30.9793 99.6136 30.4869 99.6136ZM30.4869 98.8608C30.8609 98.8608 31.1687 98.7649 31.4102 98.5732C31.6516 98.3814 31.8304 98.1293 31.9464 97.8168C32.0624 97.5043 32.1204 97.1657 32.1204 96.8011C32.1204 96.4366 32.0624 96.0968 31.9464 95.782C31.8304 95.4671 31.6516 95.2126 31.4102 95.0185C31.1687 94.8243 30.8609 94.7273 30.4869 94.7273C30.1128 94.7273 29.805 94.8243 29.5636 95.0185C29.3221 95.2126 29.1433 95.4671 29.0273 95.782C28.9113 96.0968 28.8533 96.4366 28.8533 96.8011C28.8533 97.1657 28.9113 97.5043 29.0273 97.8168C29.1433 98.1293 29.3221 98.3814 29.5636 98.5732C29.805 98.7649 30.1128 98.8608 30.4869 98.8608ZM35.288 99.5L33.6261 94.0455H34.5067L35.6857 98.2216H35.7425L36.9073 94.0455H37.8022L38.9528 98.2074H39.0096L40.1886 94.0455H41.0692L39.4073 99.5H38.5835L37.3903 95.3097H37.305L36.1119 99.5H35.288ZM44.2786 99.6136C43.753 99.6136 43.2997 99.4976 42.9185 99.2656C42.5397 99.0312 42.2473 98.7045 42.0414 98.2855C41.8378 97.8641 41.736 97.3741 41.736 96.8153C41.736 96.2566 41.8378 95.7642 42.0414 95.3381C42.2473 94.9096 42.5338 94.5758 42.9007 94.3366C43.2701 94.0952 43.7009 93.9744 44.1934 93.9744C44.4775 93.9744 44.758 94.0218 45.035 94.1165C45.312 94.2112 45.5641 94.3651 45.7914 94.5781C46.0186 94.7888 46.1998 95.0682 46.3347 95.4162C46.4696 95.7642 46.5371 96.1927 46.5371 96.7017V97.0568H42.3326V96.3324H45.6848C45.6848 96.0246 45.6233 95.75 45.5002 95.5085C45.3794 95.267 45.2066 95.0765 44.9817 94.9368C44.7592 94.7971 44.4964 94.7273 44.1934 94.7273C43.8596 94.7273 43.5707 94.8101 43.3269 94.9759C43.0854 95.1392 42.8996 95.3523 42.7694 95.6151C42.6391 95.8778 42.574 96.1596 42.574 96.4602V96.9432C42.574 97.3551 42.6451 97.7043 42.7871 97.9908C42.9315 98.2749 43.1316 98.4915 43.3873 98.6406C43.6429 98.7874 43.94 98.8608 44.2786 98.8608C44.4988 98.8608 44.6976 98.83 44.8752 98.7685C45.0551 98.7045 45.2102 98.6098 45.3404 98.4844C45.4706 98.3565 45.5712 98.1979 45.6422 98.0085L46.4519 98.2358C46.3667 98.5104 46.2234 98.7519 46.0222 98.9602C45.821 99.1662 45.5724 99.3272 45.2765 99.4432C44.9805 99.5568 44.6479 99.6136 44.2786 99.6136ZM49.8716 99.6136C49.4171 99.6136 49.0158 99.4988 48.6678 99.2692C48.3198 99.0372 48.0475 98.7105 47.851 98.2891C47.6545 97.8653 47.5563 97.3646 47.5563 96.7869C47.5563 96.214 47.6545 95.7169 47.851 95.2955C48.0475 94.8741 48.321 94.5485 48.6713 94.3189C49.0217 94.0893 49.4266 93.9744 49.8858 93.9744C50.2409 93.9744 50.5215 94.0336 50.7275 94.152C50.9358 94.268 51.0944 94.4006 51.2033 94.5497C51.3146 94.6965 51.401 94.8172 51.4625 94.9119H51.5336V92.2273H52.3716V99.5H51.562V98.6619H51.4625C51.401 98.7614 51.3134 98.8868 51.1998 99.0384C51.0861 99.1875 50.9239 99.3213 50.7132 99.4396C50.5025 99.5556 50.222 99.6136 49.8716 99.6136ZM49.9853 98.8608C50.3214 98.8608 50.6055 98.7732 50.8375 98.598C51.0695 98.4205 51.2459 98.1754 51.3667 97.8629C51.4874 97.5481 51.5478 97.1847 51.5478 96.7727C51.5478 96.3655 51.4886 96.0092 51.3702 95.7038C51.2518 95.3961 51.0766 95.157 50.8446 94.9865C50.6126 94.8137 50.3262 94.7273 49.9853 94.7273C49.6301 94.7273 49.3342 94.8184 49.0975 95.0007C48.8631 95.1806 48.6867 95.4257 48.5684 95.7358C48.4524 96.0436 48.3944 96.3892 48.3944 96.7727C48.3944 97.161 48.4535 97.5137 48.5719 97.831C48.6926 98.1458 48.8702 98.3968 49.1046 98.5838C49.3413 98.7685 49.6349 98.8608 49.9853 98.8608ZM59.2644 94.0455V94.7557H56.324V94.0455H59.2644ZM57.2047 99.5V93.2926C57.2047 92.9801 57.2781 92.7197 57.4249 92.5114C57.5717 92.303 57.7623 92.1468 57.9966 92.0426C58.231 91.9384 58.4784 91.8864 58.7388 91.8864C58.9448 91.8864 59.1129 91.9029 59.2431 91.9361C59.3733 91.9692 59.4703 92 59.5343 92.0284L59.2928 92.7528C59.2502 92.7386 59.191 92.7209 59.1152 92.6996C59.0418 92.6783 58.9448 92.6676 58.824 92.6676C58.5471 92.6676 58.347 92.7375 58.2239 92.8771C58.1032 93.0168 58.0428 93.2216 58.0428 93.4915V99.5H57.2047ZM62.4302 99.6136C61.9378 99.6136 61.5057 99.4964 61.1341 99.2621C60.7647 99.0277 60.4759 98.6998 60.2676 98.2784C60.0616 97.857 59.9586 97.3646 59.9586 96.8011C59.9586 96.233 60.0616 95.737 60.2676 95.3132C60.4759 94.8894 60.7647 94.5604 61.1341 94.326C61.5057 94.0916 61.9378 93.9744 62.4302 93.9744C62.9226 93.9744 63.3535 94.0916 63.7228 94.326C64.0945 94.5604 64.3833 94.8894 64.5893 95.3132C64.7976 95.737 64.9018 96.233 64.9018 96.8011C64.9018 97.3646 64.7976 97.857 64.5893 98.2784C64.3833 98.6998 64.0945 99.0277 63.7228 99.2621C63.3535 99.4964 62.9226 99.6136 62.4302 99.6136ZM62.4302 98.8608C62.8043 98.8608 63.112 98.7649 63.3535 98.5732C63.595 98.3814 63.7737 98.1293 63.8897 97.8168C64.0057 97.5043 64.0637 97.1657 64.0637 96.8011C64.0637 96.4366 64.0057 96.0968 63.8897 95.782C63.7737 95.4671 63.595 95.2126 63.3535 95.0185C63.112 94.8243 62.8043 94.7273 62.4302 94.7273C62.0562 94.7273 61.7484 94.8243 61.5069 95.0185C61.2654 95.2126 61.0867 95.4671 60.9707 95.782C60.8547 96.0968 60.7967 96.4366 60.7967 96.8011C60.7967 97.1657 60.8547 97.5043 60.9707 97.8168C61.0867 98.1293 61.2654 98.3814 61.5069 98.5732C61.7484 98.7649 62.0562 98.8608 62.4302 98.8608ZM66.1811 99.5V94.0455H66.9908V94.8693H67.0476C67.147 94.5994 67.3269 94.3804 67.5874 94.2124C67.8478 94.0443 68.1413 93.9602 68.468 93.9602C68.5296 93.9602 68.6065 93.9614 68.6989 93.9638C68.7912 93.9661 68.861 93.9697 68.9084 93.9744V94.8267C68.88 94.8196 68.8149 94.8089 68.7131 94.7947C68.6136 94.7782 68.5083 94.7699 68.397 94.7699C68.1319 94.7699 67.8951 94.8255 67.6868 94.9368C67.4808 95.0457 67.3175 95.1972 67.1967 95.3913C67.0784 95.5831 67.0192 95.8021 67.0192 96.0483V99.5H66.1811ZM69.9018 99.5V94.0455H70.7115V94.8977H70.7825C70.8961 94.6065 71.0796 94.3804 71.3329 94.2195C71.5862 94.0561 71.8904 93.9744 72.2456 93.9744C72.6054 93.9744 72.9049 94.0561 73.144 94.2195C73.3855 94.3804 73.5737 94.6065 73.7086 94.8977H73.7654C73.9051 94.616 74.1146 94.3923 74.394 94.2266C74.6734 94.0585 75.0083 93.9744 75.399 93.9744C75.8867 93.9744 76.2856 94.1271 76.5957 94.4325C76.9058 94.7356 77.0609 95.2079 77.0609 95.8494V99.5H76.2228V95.8494C76.2228 95.447 76.1127 95.1593 75.8926 94.9865C75.6724 94.8137 75.4132 94.7273 75.1149 94.7273C74.7314 94.7273 74.4342 94.8433 74.2235 95.0753C74.0128 95.3049 73.9075 95.5961 73.9075 95.9489V99.5H73.0552V95.7642C73.0552 95.4541 72.9546 95.2043 72.7534 95.0149C72.5521 94.8232 72.2929 94.7273 71.9757 94.7273C71.7579 94.7273 71.5543 94.7853 71.3649 94.9013C71.1779 95.0173 71.0263 95.1783 70.9103 95.3842C70.7967 95.5878 70.7399 95.8234 70.7399 96.0909V99.5H69.9018ZM80.1983 99.6278C79.8527 99.6278 79.539 99.5627 79.2573 99.4325C78.9756 99.3 78.7518 99.1094 78.5861 98.8608C78.4204 98.6098 78.3375 98.3068 78.3375 97.9517C78.3375 97.6392 78.3991 97.3859 78.5222 97.1918C78.6453 96.9953 78.8098 96.8414 79.0158 96.7301C79.2218 96.6188 79.449 96.536 79.6976 96.4815C79.9486 96.4247 80.2007 96.3797 80.454 96.3466C80.7855 96.304 81.0542 96.272 81.2601 96.2507C81.4685 96.227 81.62 96.188 81.7147 96.1335C81.8117 96.0791 81.8603 95.9844 81.8603 95.8494V95.821C81.8603 95.4706 81.7644 95.1984 81.5726 95.0043C81.3832 94.8101 81.0956 94.7131 80.7097 94.7131C80.3096 94.7131 79.9959 94.8007 79.7686 94.9759C79.5414 95.151 79.3816 95.3381 79.2892 95.5369L78.4938 95.2528C78.6358 94.9214 78.8252 94.6634 79.062 94.4787C79.3011 94.2917 79.5615 94.1615 79.8432 94.0881C80.1273 94.0123 80.4067 93.9744 80.6813 93.9744C80.8565 93.9744 81.0577 93.9957 81.285 94.0384C81.5146 94.0786 81.736 94.1626 81.949 94.2905C82.1645 94.4183 82.3432 94.6113 82.4853 94.8693C82.6273 95.1274 82.6983 95.473 82.6983 95.9062V99.5H81.8603V98.7614H81.8176C81.7608 98.8797 81.6661 99.0064 81.5336 99.1413C81.401 99.2763 81.2246 99.3911 81.0044 99.4858C80.7843 99.5805 80.5156 99.6278 80.1983 99.6278ZM80.3262 98.875C80.6576 98.875 80.937 98.8099 81.1642 98.6797C81.3939 98.5495 81.5667 98.3814 81.6827 98.1754C81.8011 97.9695 81.8603 97.7528 81.8603 97.5256V96.7585C81.8248 96.8011 81.7466 96.8402 81.6259 96.8757C81.5075 96.9089 81.3702 96.9384 81.214 96.9645C81.0601 96.9882 80.9097 97.0095 80.763 97.0284C80.6185 97.045 80.5014 97.0592 80.4114 97.071C80.1936 97.0994 79.99 97.1456 79.8006 97.2095C79.6136 97.2711 79.4621 97.3646 79.3461 97.4901C79.2324 97.6132 79.1756 97.7812 79.1756 97.9943C79.1756 98.2855 79.2833 98.5057 79.4988 98.6548C79.7166 98.8016 79.9924 98.875 80.3262 98.875ZM86.6001 94.0455V94.7557H83.7734V94.0455H86.6001ZM84.5973 92.7386H85.4354V97.9375C85.4354 98.1742 85.4697 98.3518 85.5384 98.4702C85.6094 98.5862 85.6993 98.6643 85.8082 98.7045C85.9195 98.7424 86.0367 98.7614 86.1598 98.7614C86.2521 98.7614 86.3279 98.7566 86.3871 98.7472C86.4463 98.7353 86.4936 98.7259 86.5291 98.7188L86.6996 99.4716C86.6428 99.4929 86.5634 99.5142 86.4616 99.5355C86.3598 99.5592 86.2308 99.571 86.0746 99.571C85.8378 99.571 85.6058 99.5201 85.3786 99.4183C85.1536 99.3165 84.9666 99.1615 84.8175 98.9531C84.6707 98.7448 84.5973 98.482 84.5973 98.1648V92.7386ZM91.6268 95.267L90.8739 95.4801C90.8266 95.3546 90.7567 95.2327 90.6644 95.1143C90.5745 94.9936 90.4513 94.8942 90.2951 94.8161C90.1388 94.7379 89.9388 94.6989 89.695 94.6989C89.3612 94.6989 89.083 94.7758 88.8604 94.9297C88.6403 95.0812 88.5302 95.2741 88.5302 95.5085C88.5302 95.7169 88.6059 95.8814 88.7575 96.0021C88.909 96.1229 89.1457 96.2235 89.4677 96.304L90.2773 96.5028C90.765 96.6212 91.1284 96.8023 91.3675 97.0462C91.6067 97.2876 91.7262 97.599 91.7262 97.9801C91.7262 98.2926 91.6362 98.572 91.4563 98.8182C91.2788 99.0644 91.0302 99.2585 90.7106 99.4006C90.391 99.5426 90.0193 99.6136 89.5955 99.6136C89.0392 99.6136 88.5787 99.4929 88.2141 99.2514C87.8496 99.0099 87.6187 98.6572 87.5217 98.1932L88.3171 97.9943C88.3929 98.2879 88.5361 98.508 88.7468 98.6548C88.9599 98.8016 89.238 98.875 89.5813 98.875C89.9719 98.875 90.2821 98.7921 90.5117 98.6264C90.7437 98.4583 90.8597 98.2571 90.8597 98.0227C90.8597 97.8333 90.7934 97.6747 90.6609 97.5469C90.5283 97.4167 90.3247 97.3196 90.0501 97.2557L89.141 97.0426C88.6415 96.9242 88.2745 96.7408 88.0401 96.4922C87.8081 96.2412 87.6921 95.9276 87.6921 95.5511C87.6921 95.2434 87.7785 94.9711 87.9513 94.7344C88.1265 94.4976 88.3645 94.3118 88.6651 94.1768C88.9682 94.0419 89.3114 93.9744 89.695 93.9744C90.2347 93.9744 90.6585 94.0928 90.9663 94.3295C91.2764 94.5663 91.4966 94.8788 91.6268 95.267ZM93.5985 99.5568C93.4234 99.5568 93.273 99.4941 93.1475 99.3686C93.0221 99.2431 92.9593 99.0928 92.9593 98.9176C92.9593 98.7424 93.0221 98.5921 93.1475 98.4666C93.273 98.3411 93.4234 98.2784 93.5985 98.2784C93.7737 98.2784 93.9241 98.3411 94.0495 98.4666C94.175 98.5921 94.2377 98.7424 94.2377 98.9176C94.2377 99.0336 94.2082 99.1402 94.149 99.2372C94.0922 99.3343 94.0152 99.4124 93.9181 99.4716C93.8234 99.5284 93.7169 99.5568 93.5985 99.5568ZM93.5985 95.5085C93.4234 95.5085 93.273 95.4458 93.1475 95.3203C93.0221 95.1948 92.9593 95.0445 92.9593 94.8693C92.9593 94.6941 93.0221 94.5438 93.1475 94.4183C93.273 94.2929 93.4234 94.2301 93.5985 94.2301C93.7737 94.2301 93.9241 94.2929 94.0495 94.4183C94.175 94.5438 94.2377 94.6941 94.2377 94.8693C94.2377 94.9853 94.2082 95.0919 94.149 95.1889C94.0922 95.286 94.0152 95.3641 93.9181 95.4233C93.8234 95.4801 93.7169 95.5085 93.5985 95.5085ZM101.452 92.2273H102.333V97.4261C102.333 97.8902 102.247 98.2843 102.077 98.6087C101.906 98.933 101.666 99.1792 101.356 99.3473C101.046 99.5154 100.68 99.5994 100.259 99.5994C99.861 99.5994 99.507 99.5272 99.1969 99.3828C98.8868 99.236 98.6429 99.0277 98.4654 98.7578C98.2878 98.4879 98.199 98.1671 98.199 97.7955H99.0655C99.0655 98.0014 99.1164 98.1813 99.2182 98.3352C99.3224 98.4867 99.4644 98.6051 99.6444 98.6903C99.8243 98.7756 100.029 98.8182 100.259 98.8182C100.512 98.8182 100.727 98.7649 100.905 98.6584C101.083 98.5518 101.218 98.3956 101.31 98.1896C101.405 97.9813 101.452 97.7268 101.452 97.4261V92.2273ZM104.097 99.5V92.2273H106.555C107.125 92.2273 107.592 92.3303 107.954 92.5362C108.319 92.7398 108.588 93.0156 108.764 93.3636C108.939 93.7116 109.026 94.0999 109.026 94.5284C109.026 94.9569 108.939 95.3464 108.764 95.6967C108.591 96.0471 108.323 96.3265 107.961 96.5348C107.599 96.7408 107.135 96.8438 106.569 96.8438H104.808V96.0625H106.541C106.931 96.0625 107.245 95.995 107.482 95.8601C107.718 95.7251 107.89 95.5429 107.997 95.3132C108.106 95.0812 108.16 94.8196 108.16 94.5284C108.16 94.2372 108.106 93.9768 107.997 93.7472C107.89 93.5175 107.717 93.3376 107.478 93.2074C107.239 93.0748 106.922 93.0085 106.526 93.0085H104.978V99.5H104.097ZM115.417 94.5C115.339 94.2609 115.236 94.0466 115.108 93.8572C114.982 93.6655 114.832 93.5021 114.657 93.3672C114.484 93.2322 114.287 93.1293 114.067 93.0582C113.847 92.9872 113.606 92.9517 113.343 92.9517C112.912 92.9517 112.52 93.063 112.167 93.2855C111.815 93.508 111.534 93.8359 111.326 94.2692C111.117 94.7024 111.013 95.2339 111.013 95.8636C111.013 96.4934 111.119 97.0249 111.329 97.4581C111.54 97.8913 111.825 98.2192 112.185 98.4418C112.545 98.6643 112.95 98.7756 113.4 98.7756C113.816 98.7756 114.183 98.6868 114.501 98.5092C114.82 98.3293 115.069 98.076 115.246 97.7493C115.426 97.4202 115.516 97.0331 115.516 96.5881L115.786 96.6449H113.599V95.8636H116.368V96.6449C116.368 97.2438 116.241 97.7647 115.985 98.2074C115.732 98.6501 115.381 98.9934 114.934 99.2372C114.489 99.4787 113.977 99.5994 113.4 99.5994C112.756 99.5994 112.19 99.4479 111.702 99.1449C111.217 98.8419 110.838 98.411 110.566 97.8523C110.296 97.2936 110.161 96.6307 110.161 95.8636C110.161 95.2884 110.238 94.7711 110.392 94.3118C110.548 93.8501 110.768 93.4571 111.052 93.1328C111.336 92.8085 111.673 92.5599 112.061 92.3871C112.449 92.2143 112.876 92.1278 113.343 92.1278C113.726 92.1278 114.084 92.1858 114.415 92.3018C114.749 92.4155 115.046 92.5777 115.307 92.7884C115.569 92.9967 115.788 93.2464 115.964 93.5376C116.139 93.8265 116.26 94.1473 116.326 94.5H115.417ZM119.013 98.5057L118.956 98.8892C118.916 99.1591 118.855 99.4479 118.772 99.7557C118.691 100.063 118.607 100.353 118.52 100.626C118.432 100.898 118.36 101.115 118.303 101.276H117.664C117.694 101.124 117.735 100.924 117.784 100.675C117.834 100.427 117.884 100.149 117.934 99.8409C117.986 99.5355 118.028 99.223 118.061 98.9034L118.104 98.5057H119.013ZM123.492 99.5V92.2273H125.949C126.52 92.2273 126.986 92.3303 127.349 92.5362C127.713 92.7398 127.983 93.0156 128.158 93.3636C128.333 93.7116 128.421 94.0999 128.421 94.5284C128.421 94.9569 128.333 95.3464 128.158 95.6967C127.985 96.0471 127.718 96.3265 127.356 96.5348C126.993 96.7408 126.529 96.8438 125.964 96.8438H124.202V96.0625H125.935C126.326 96.0625 126.64 95.995 126.876 95.8601C127.113 95.7251 127.285 95.5429 127.391 95.3132C127.5 95.0812 127.555 94.8196 127.555 94.5284C127.555 94.2372 127.5 93.9768 127.391 93.7472C127.285 93.5175 127.112 93.3376 126.873 93.2074C126.634 93.0748 126.316 93.0085 125.921 93.0085H124.373V99.5H123.492ZM135.607 92.2273V99.5H134.754L130.791 93.7898H130.72V99.5H129.84V92.2273H130.692L134.669 97.9517H134.74V92.2273H135.607ZM142.341 94.5C142.262 94.2609 142.159 94.0466 142.032 93.8572C141.906 93.6655 141.756 93.5021 141.581 93.3672C141.408 93.2322 141.211 93.1293 140.991 93.0582C140.771 92.9872 140.529 92.9517 140.267 92.9517C139.836 92.9517 139.444 93.063 139.091 93.2855C138.739 93.508 138.458 93.8359 138.25 94.2692C138.041 94.7024 137.937 95.2339 137.937 95.8636C137.937 96.4934 138.042 97.0249 138.253 97.4581C138.464 97.8913 138.749 98.2192 139.109 98.4418C139.469 98.6643 139.874 98.7756 140.324 98.7756C140.74 98.7756 141.107 98.6868 141.424 98.5092C141.744 98.3293 141.993 98.076 142.17 97.7493C142.35 97.4202 142.44 97.0331 142.44 96.5881L142.71 96.6449H140.522V95.8636H143.292V96.6449C143.292 97.2438 143.164 97.7647 142.909 98.2074C142.655 98.6501 142.305 98.9934 141.858 99.2372C141.413 99.4787 140.901 99.5994 140.324 99.5994C139.68 99.5994 139.114 99.4479 138.626 99.1449C138.141 98.8419 137.762 98.411 137.49 97.8523C137.22 97.2936 137.085 96.6307 137.085 95.8636C137.085 95.2884 137.162 94.7711 137.316 94.3118C137.472 93.8501 137.692 93.4571 137.976 93.1328C138.26 92.8085 138.596 92.5599 138.985 92.3871C139.373 92.2143 139.8 92.1278 140.267 92.1278C140.65 92.1278 141.008 92.1858 141.339 92.3018C141.673 92.4155 141.97 92.5777 142.23 92.7884C142.493 92.9967 142.712 93.2464 142.887 93.5376C143.063 93.8265 143.183 94.1473 143.25 94.5H142.341ZM145.937 98.5057L145.88 98.8892C145.84 99.1591 145.778 99.4479 145.695 99.7557C145.615 100.063 145.531 100.353 145.443 100.626C145.356 100.898 145.284 101.115 145.227 101.276H144.588C144.618 101.124 144.659 100.924 144.708 100.675C144.758 100.427 144.808 100.149 144.857 99.8409C144.91 99.5355 144.952 99.223 144.985 98.9034L145.028 98.5057H145.937ZM150.416 99.5V92.2273H152.873C153.444 92.2273 153.91 92.3303 154.272 92.5362C154.637 92.7398 154.907 93.0156 155.082 93.3636C155.257 93.7116 155.345 94.0999 155.345 94.5284C155.345 94.9569 155.257 95.3464 155.082 95.6967C154.909 96.0471 154.642 96.3265 154.279 96.5348C153.917 96.7408 153.453 96.8438 152.887 96.8438H151.126V96.0625H152.859C153.25 96.0625 153.563 95.995 153.8 95.8601C154.037 95.7251 154.208 95.5429 154.315 95.3132C154.424 95.0812 154.478 94.8196 154.478 94.5284C154.478 94.2372 154.424 93.9768 154.315 93.7472C154.208 93.5175 154.036 93.3376 153.797 93.2074C153.557 93.0748 153.24 93.0085 152.845 93.0085H151.297V99.5H150.416ZM159.008 99.5H156.763V92.2273H159.107C159.813 92.2273 160.416 92.3729 160.918 92.6641C161.42 92.9529 161.805 93.3684 162.072 93.9105C162.34 94.4503 162.474 95.0966 162.474 95.8494C162.474 96.607 162.339 97.2592 162.069 97.8061C161.799 98.3506 161.406 98.7696 160.89 99.0632C160.374 99.3544 159.746 99.5 159.008 99.5ZM157.644 98.7188H158.951C159.552 98.7188 160.051 98.6027 160.446 98.3707C160.841 98.1387 161.136 97.8085 161.33 97.38C161.524 96.9515 161.621 96.4413 161.621 95.8494C161.621 95.2623 161.526 94.7569 161.334 94.3331C161.142 93.907 160.856 93.5803 160.474 93.353C160.093 93.1233 159.619 93.0085 159.05 93.0085H157.644V98.7188ZM163.951 99.5V92.2273H168.312V93.0085H164.832V95.4659H167.985V96.2472H164.832V99.5H163.951ZM174.735 99.6136C174.242 99.6136 173.81 99.4964 173.439 99.2621C173.069 99.0277 172.781 98.6998 172.572 98.2784C172.366 97.857 172.263 97.3646 172.263 96.8011C172.263 96.233 172.366 95.737 172.572 95.3132C172.781 94.8894 173.069 94.5604 173.439 94.326C173.81 94.0916 174.242 93.9744 174.735 93.9744C175.227 93.9744 175.658 94.0916 176.028 94.326C176.399 94.5604 176.688 94.8894 176.894 95.3132C177.102 95.737 177.206 96.233 177.206 96.8011C177.206 97.3646 177.102 97.857 176.894 98.2784C176.688 98.6998 176.399 99.0277 176.028 99.2621C175.658 99.4964 175.227 99.6136 174.735 99.6136ZM174.735 98.8608C175.109 98.8608 175.417 98.7649 175.658 98.5732C175.9 98.3814 176.078 98.1293 176.194 97.8168C176.31 97.5043 176.368 97.1657 176.368 96.8011C176.368 96.4366 176.31 96.0968 176.194 95.782C176.078 95.4671 175.9 95.2126 175.658 95.0185C175.417 94.8243 175.109 94.7273 174.735 94.7273C174.361 94.7273 174.053 94.8243 173.812 95.0185C173.57 95.2126 173.391 95.4671 173.275 95.782C173.159 96.0968 173.101 96.4366 173.101 96.8011C173.101 97.1657 173.159 97.5043 173.275 97.8168C173.391 98.1293 173.57 98.3814 173.812 98.5732C174.053 98.7649 174.361 98.8608 174.735 98.8608ZM178.486 99.5V94.0455H179.295V94.8693H179.352C179.452 94.5994 179.632 94.3804 179.892 94.2124C180.152 94.0443 180.446 93.9602 180.773 93.9602C180.834 93.9602 180.911 93.9614 181.004 93.9638C181.096 93.9661 181.166 93.9697 181.213 93.9744V94.8267C181.185 94.8196 181.12 94.8089 181.018 94.7947C180.918 94.7782 180.813 94.7699 180.702 94.7699C180.437 94.7699 180.2 94.8255 179.991 94.9368C179.786 95.0457 179.622 95.1972 179.501 95.3913C179.383 95.5831 179.324 95.8021 179.324 96.0483V99.5H178.486ZM187.377 99.5H185.133V92.2273H187.476C188.182 92.2273 188.786 92.3729 189.287 92.6641C189.789 92.9529 190.174 93.3684 190.442 93.9105C190.709 94.4503 190.843 95.0966 190.843 95.8494C190.843 96.607 190.708 97.2592 190.438 97.8061C190.168 98.3506 189.775 98.7696 189.259 99.0632C188.743 99.3544 188.116 99.5 187.377 99.5ZM186.013 98.7188H187.32C187.921 98.7188 188.42 98.6027 188.815 98.3707C189.211 98.1387 189.505 97.8085 189.699 97.38C189.894 96.9515 189.991 96.4413 189.991 95.8494C189.991 95.2623 189.895 94.7569 189.703 94.3331C189.511 93.907 189.225 93.5803 188.844 93.353C188.462 93.1233 187.988 93.0085 187.42 93.0085H186.013V98.7188ZM193.641 99.5L191.653 92.2273H192.547L194.067 98.1506H194.138L195.687 92.2273H196.681L198.229 98.1506H198.3L199.82 92.2273H200.715L198.726 99.5H197.817L196.212 93.7045H196.155L194.55 99.5H193.641ZM206.442 94.5C206.364 94.2609 206.261 94.0466 206.133 93.8572C206.008 93.6655 205.857 93.5021 205.682 93.3672C205.509 93.2322 205.313 93.1293 205.093 93.0582C204.873 92.9872 204.631 92.9517 204.368 92.9517C203.937 92.9517 203.546 93.063 203.193 93.2855C202.84 93.508 202.56 93.8359 202.351 94.2692C202.143 94.7024 202.039 95.2339 202.039 95.8636C202.039 96.4934 202.144 97.0249 202.355 97.4581C202.565 97.8913 202.851 98.2192 203.211 98.4418C203.57 98.6643 203.975 98.7756 204.425 98.7756C204.842 98.7756 205.209 98.6868 205.526 98.5092C205.846 98.3293 206.094 98.076 206.272 97.7493C206.452 97.4202 206.542 97.0331 206.542 96.5881L206.811 96.6449H204.624V95.8636H207.394V96.6449C207.394 97.2438 207.266 97.7647 207.01 98.2074C206.757 98.6501 206.407 98.9934 205.959 99.2372C205.514 99.4787 205.003 99.5994 204.425 99.5994C203.781 99.5994 203.215 99.4479 202.728 99.1449C202.242 98.8419 201.864 98.411 201.591 97.8523C201.321 97.2936 201.186 96.6307 201.186 95.8636C201.186 95.2884 201.263 94.7711 201.417 94.3118C201.574 93.8501 201.794 93.4571 202.078 93.1328C202.362 92.8085 202.698 92.5599 203.086 92.3871C203.475 92.2143 203.902 92.1278 204.368 92.1278C204.752 92.1278 205.109 92.1858 205.441 92.3018C205.775 92.4155 206.072 92.5777 206.332 92.7884C206.595 92.9967 206.814 93.2464 206.989 93.5376C207.164 93.8265 207.285 94.1473 207.351 94.5H206.442Z" fill="#B3B3B3"/>
</svg>
