<svg width="288" height="98" viewBox="0 0 288 98" fill="none" xmlns="http://www.w3.org/2000/svg">
<path d="M1.11861 24V13.8182H4.74787C5.5367 13.8182 6.19129 13.9541 6.71165 14.2259C7.23532 14.4976 7.62642 14.8738 7.88494 15.3544C8.14347 15.8317 8.27273 16.3835 8.27273 17.0099C8.27273 17.633 8.14181 18.1816 7.87997 18.6555C7.62145 19.1262 7.23035 19.4924 6.70668 19.7543C6.18632 20.0161 5.53172 20.147 4.7429 20.147H1.99361V18.8246H4.60369C5.10085 18.8246 5.50521 18.7533 5.81676 18.6108C6.13163 18.4683 6.36198 18.2611 6.50781 17.9893C6.65365 17.7176 6.72656 17.3911 6.72656 17.0099C6.72656 16.6255 6.65199 16.2924 6.50284 16.0107C6.35701 15.7289 6.12666 15.5135 5.81179 15.3643C5.50024 15.2119 5.09091 15.1357 4.58381 15.1357H2.65483V24H1.11861ZM6.14489 19.4062L8.66051 24H6.91051L4.4446 19.4062H6.14489ZM13.2182 24.1541C12.4658 24.1541 11.8179 23.9934 11.2743 23.6719C10.7341 23.3471 10.3165 22.8913 10.0215 22.3047C9.72982 21.7147 9.58398 21.0237 9.58398 20.2315C9.58398 19.4493 9.72982 18.7599 10.0215 18.1634C10.3165 17.5668 10.7275 17.1011 11.2544 16.7663C11.7847 16.4316 12.4045 16.2642 13.1138 16.2642C13.5447 16.2642 13.9623 16.3355 14.3667 16.478C14.771 16.6205 15.1339 16.8442 15.4554 17.1491C15.7769 17.4541 16.0305 17.8501 16.2161 18.3374C16.4017 18.8213 16.4945 19.4096 16.4945 20.1023V20.6293H10.4242V19.5156H15.0378C15.0378 19.1245 14.9583 18.7782 14.7992 18.4766C14.6401 18.1716 14.4164 17.9313 14.128 17.7557C13.843 17.58 13.5082 17.4922 13.1238 17.4922C12.7061 17.4922 12.3416 17.5949 12.03 17.8004C11.7218 18.0026 11.4831 18.2678 11.3141 18.5959C11.1484 18.9207 11.0655 19.2737 11.0655 19.6548V20.5249C11.0655 21.0353 11.155 21.4695 11.334 21.8274C11.5163 22.1854 11.7698 22.4588 12.0946 22.6477C12.4194 22.8333 12.7989 22.9261 13.2331 22.9261C13.5149 22.9261 13.7717 22.8864 14.0037 22.8068C14.2357 22.724 14.4363 22.6013 14.6053 22.4389C14.7743 22.2765 14.9036 22.076 14.9931 21.8374L16.4 22.0909C16.2873 22.5052 16.0852 22.8681 15.7935 23.1797C15.5051 23.4879 15.1422 23.7282 14.7047 23.9006C14.2705 24.0696 13.775 24.1541 13.2182 24.1541ZM21.7781 16.3636V17.5568H17.4627V16.3636H21.7781ZM18.646 24V15.4787C18.646 15.0014 18.7504 14.6053 18.9592 14.2905C19.168 13.9723 19.4447 13.7353 19.7894 13.5795C20.1341 13.4205 20.5086 13.3409 20.913 13.3409C21.2113 13.3409 21.4665 13.3658 21.6786 13.4155C21.8907 13.4619 22.0482 13.505 22.1509 13.5447L21.8029 14.7479C21.7333 14.728 21.6438 14.7048 21.5344 14.6783C21.4251 14.6484 21.2925 14.6335 21.1367 14.6335C20.7754 14.6335 20.5169 14.723 20.3612 14.902C20.2087 15.081 20.1325 15.3395 20.1325 15.6776V24H18.646ZM26.3022 24.1541C25.5498 24.1541 24.9019 23.9934 24.3583 23.6719C23.8181 23.3471 23.4004 22.8913 23.1055 22.3047C22.8138 21.7147 22.668 21.0237 22.668 20.2315C22.668 19.4493 22.8138 18.7599 23.1055 18.1634C23.4004 17.5668 23.8114 17.1011 24.3384 16.7663C24.8687 16.4316 25.4885 16.2642 26.1978 16.2642C26.6287 16.2642 27.0463 16.3355 27.4506 16.478C27.855 16.6205 28.2179 16.8442 28.5394 17.1491C28.8609 17.4541 29.1145 17.8501 29.3001 18.3374C29.4857 18.8213 29.5785 19.4096 29.5785 20.1023V20.6293H23.5082V19.5156H28.1218C28.1218 19.1245 28.0423 18.7782 27.8832 18.4766C27.7241 18.1716 27.5004 17.9313 27.212 17.7557C26.927 17.58 26.5922 17.4922 26.2077 17.4922C25.7901 17.4922 25.4255 17.5949 25.114 17.8004C24.8058 18.0026 24.5671 18.2678 24.3981 18.5959C24.2324 18.9207 24.1495 19.2737 24.1495 19.6548V20.5249C24.1495 21.0353 24.239 21.4695 24.418 21.8274C24.6003 22.1854 24.8538 22.4588 25.1786 22.6477C25.5034 22.8333 25.8829 22.9261 26.3171 22.9261C26.5988 22.9261 26.8557 22.8864 27.0877 22.8068C27.3197 22.724 27.5202 22.6013 27.6893 22.4389C27.8583 22.2765 27.9876 22.076 28.0771 21.8374L29.484 22.0909C29.3713 22.5052 29.1692 22.8681 28.8775 23.1797C28.5891 23.4879 28.2262 23.7282 27.7887 23.9006C27.3545 24.0696 26.859 24.1541 26.3022 24.1541ZM31.2278 24V16.3636H32.6646V17.5767H32.7441C32.8833 17.1657 33.1286 16.8426 33.4799 16.6072C33.8346 16.3686 34.2356 16.2493 34.6831 16.2493C34.7759 16.2493 34.8852 16.2526 35.0112 16.2592C35.1404 16.2659 35.2415 16.2741 35.3145 16.2841V17.706C35.2548 17.6894 35.1487 17.6712 34.9963 17.6513C34.8438 17.6281 34.6913 17.6165 34.5389 17.6165C34.1876 17.6165 33.8743 17.6911 33.5993 17.8402C33.3275 17.986 33.112 18.1899 32.9529 18.4517C32.7939 18.7102 32.7143 19.0052 32.7143 19.3366V24H31.2278ZM39.6186 24.1541C38.8662 24.1541 38.2183 23.9934 37.6747 23.6719C37.1345 23.3471 36.7169 22.8913 36.4219 22.3047C36.1302 21.7147 35.9844 21.0237 35.9844 20.2315C35.9844 19.4493 36.1302 18.7599 36.4219 18.1634C36.7169 17.5668 37.1278 17.1011 37.6548 16.7663C38.1851 16.4316 38.8049 16.2642 39.5142 16.2642C39.9451 16.2642 40.3627 16.3355 40.767 16.478C41.1714 16.6205 41.5343 16.8442 41.8558 17.1491C42.1773 17.4541 42.4309 17.8501 42.6165 18.3374C42.8021 18.8213 42.8949 19.4096 42.8949 20.1023V20.6293H36.8246V19.5156H41.4382C41.4382 19.1245 41.3587 18.7782 41.1996 18.4766C41.0405 18.1716 40.8168 17.9313 40.5284 17.7557C40.2434 17.58 39.9086 17.4922 39.5241 17.4922C39.1065 17.4922 38.742 17.5949 38.4304 17.8004C38.1222 18.0026 37.8835 18.2678 37.7145 18.5959C37.5488 18.9207 37.4659 19.2737 37.4659 19.6548V20.5249C37.4659 21.0353 37.5554 21.4695 37.7344 21.8274C37.9167 22.1854 38.1702 22.4588 38.495 22.6477C38.8198 22.8333 39.1993 22.9261 39.6335 22.9261C39.9152 22.9261 40.1721 22.8864 40.4041 22.8068C40.6361 22.724 40.8366 22.6013 41.0057 22.4389C41.1747 22.2765 41.304 22.076 41.3935 21.8374L42.8004 22.0909C42.6877 22.5052 42.4856 22.8681 42.1939 23.1797C41.9055 23.4879 41.5426 23.7282 41.1051 23.9006C40.6709 24.0696 40.1754 24.1541 39.6186 24.1541ZM46.0307 19.4659V24H44.5442V16.3636H45.9711V17.6065H46.0655C46.2412 17.2022 46.5163 16.8774 46.8908 16.6321C47.2686 16.3868 47.7443 16.2642 48.3176 16.2642C48.838 16.2642 49.2937 16.3736 49.6848 16.5923C50.0759 16.8078 50.3792 17.1293 50.5946 17.5568C50.8101 17.9844 50.9178 18.513 50.9178 19.1428V24H49.4313V19.3217C49.4313 18.7682 49.2871 18.3357 48.9988 18.0241C48.7104 17.7093 48.3143 17.5518 47.8105 17.5518C47.4658 17.5518 47.1593 17.6264 46.8908 17.7756C46.6257 17.9247 46.4152 18.1435 46.2594 18.4318C46.1069 18.7169 46.0307 19.0616 46.0307 19.4659ZM56.128 24.1541C55.3889 24.1541 54.7525 23.9867 54.2189 23.652C53.6886 23.3139 53.281 22.8482 52.9959 22.255C52.7109 21.6617 52.5684 20.9822 52.5684 20.2166C52.5684 19.4411 52.7142 18.7566 53.0059 18.1634C53.2975 17.5668 53.7085 17.1011 54.2388 16.7663C54.7691 16.4316 55.3939 16.2642 56.1131 16.2642C56.6931 16.2642 57.2102 16.3719 57.6642 16.5874C58.1183 16.7995 58.4846 17.0978 58.763 17.4822C59.0447 17.8667 59.2121 18.3158 59.2651 18.8295H57.8184C57.7388 18.4716 57.5565 18.1634 57.2715 17.9048C56.9898 17.6463 56.6119 17.517 56.138 17.517C55.7237 17.517 55.3607 17.6264 55.0492 17.8452C54.7409 18.0606 54.5007 18.3688 54.3283 18.7699C54.156 19.1676 54.0698 19.6383 54.0698 20.1818C54.0698 20.7386 54.1543 21.2192 54.3233 21.6236C54.4924 22.0279 54.731 22.3411 55.0392 22.5632C55.3508 22.7853 55.717 22.8963 56.138 22.8963C56.4197 22.8963 56.6749 22.8449 56.9036 22.7422C57.1356 22.6361 57.3295 22.4853 57.4853 22.2898C57.6444 22.0942 57.7554 21.8589 57.8184 21.5838H59.2651C59.2121 22.0777 59.0513 22.5185 58.7828 22.9062C58.5144 23.294 58.1548 23.599 57.704 23.821C57.2566 24.0431 56.7312 24.1541 56.128 24.1541ZM64.146 24.1541C63.3936 24.1541 62.7456 23.9934 62.2021 23.6719C61.6618 23.3471 61.2442 22.8913 60.9492 22.3047C60.6576 21.7147 60.5117 21.0237 60.5117 20.2315C60.5117 19.4493 60.6576 18.7599 60.9492 18.1634C61.2442 17.5668 61.6552 17.1011 62.1822 16.7663C62.7125 16.4316 63.3323 16.2642 64.0415 16.2642C64.4724 16.2642 64.89 16.3355 65.2944 16.478C65.6987 16.6205 66.0617 16.8442 66.3832 17.1491C66.7047 17.4541 66.9582 17.8501 67.1438 18.3374C67.3294 18.8213 67.4222 19.4096 67.4222 20.1023V20.6293H61.3519V19.5156H65.9656C65.9656 19.1245 65.886 18.7782 65.7269 18.4766C65.5678 18.1716 65.3441 17.9313 65.0558 17.7557C64.7707 17.58 64.436 17.4922 64.0515 17.4922C63.6339 17.4922 63.2693 17.5949 62.9577 17.8004C62.6495 18.0026 62.4109 18.2678 62.2418 18.5959C62.0761 18.9207 61.9933 19.2737 61.9933 19.6548V20.5249C61.9933 21.0353 62.0827 21.4695 62.2617 21.8274C62.444 22.1854 62.6976 22.4588 63.0224 22.6477C63.3472 22.8333 63.7267 22.9261 64.1609 22.9261C64.4426 22.9261 64.6995 22.8864 64.9315 22.8068C65.1635 22.724 65.364 22.6013 65.533 22.4389C65.7021 22.2765 65.8313 22.076 65.9208 21.8374L67.3278 22.0909C67.2151 22.5052 67.0129 22.8681 66.7212 23.1797C66.4329 23.4879 66.07 23.7282 65.6325 23.9006C65.1983 24.0696 64.7028 24.1541 64.146 24.1541ZM72.7766 24V16.3636H74.2631V24H72.7766ZM73.5273 15.1854C73.2688 15.1854 73.0468 15.0992 72.8612 14.9268C72.6789 14.7512 72.5877 14.5424 72.5877 14.3004C72.5877 14.0552 72.6789 13.8464 72.8612 13.674C73.0468 13.4983 73.2688 13.4105 73.5273 13.4105C73.7859 13.4105 74.0063 13.4983 74.1886 13.674C74.3742 13.8464 74.467 14.0552 74.467 14.3004C74.467 14.5424 74.3742 14.7512 74.1886 14.9268C74.0063 15.0992 73.7859 15.1854 73.5273 15.1854ZM76.263 24V16.3636H77.6898V17.6065H77.7843C77.9434 17.1856 78.2035 16.8575 78.5648 16.6222C78.9261 16.3835 79.3586 16.2642 79.8624 16.2642C80.3728 16.2642 80.8004 16.3835 81.1451 16.6222C81.4931 16.8608 81.7499 17.1889 81.9157 17.6065H81.9952C82.1775 17.1989 82.4675 16.8741 82.8652 16.6321C83.263 16.3868 83.7369 16.2642 84.2871 16.2642C84.9798 16.2642 85.5449 16.4813 85.9824 16.9155C86.4232 17.3497 86.6436 18.0043 86.6436 18.8793V24H85.1571V19.0185C85.1571 18.5014 85.0163 18.1269 84.7346 17.8949C84.4528 17.6629 84.1164 17.5469 83.7253 17.5469C83.2414 17.5469 82.8652 17.696 82.5968 17.9943C82.3283 18.2893 82.1941 18.6688 82.1941 19.1328V24H80.7125V18.924C80.7125 18.5097 80.5833 18.1766 80.3248 17.9247C80.0662 17.6728 79.7298 17.5469 79.3155 17.5469C79.0338 17.5469 78.7736 17.6214 78.535 17.7706C78.2997 17.9164 78.1091 18.1203 77.9632 18.3821C77.8207 18.6439 77.7495 18.9472 77.7495 19.2919V24H76.263ZM90.8583 24.169C90.3744 24.169 89.9369 24.0795 89.5458 23.9006C89.1547 23.7183 88.8448 23.4548 88.6161 23.1101C88.3907 22.7654 88.2781 22.3428 88.2781 21.8423C88.2781 21.4115 88.3609 21.0568 88.5266 20.7784C88.6924 20.5 88.9161 20.2796 89.1978 20.1172C89.4795 19.9548 89.7944 19.8321 90.1424 19.7493C90.4904 19.6664 90.8451 19.6035 91.2063 19.5604C91.6637 19.5073 92.0349 19.4643 92.32 19.4311C92.605 19.3946 92.8121 19.3366 92.9414 19.2571C93.0707 19.1776 93.1353 19.0483 93.1353 18.8693V18.8345C93.1353 18.4003 93.0127 18.0639 92.7674 17.8253C92.5255 17.5866 92.1642 17.4673 91.6836 17.4673C91.1831 17.4673 90.7887 17.5784 90.5004 17.8004C90.2153 18.0192 90.0181 18.2628 89.9087 18.5312L88.5117 18.2131C88.6774 17.7491 88.9194 17.3745 89.2376 17.0895C89.5591 16.8011 89.9286 16.5923 90.3462 16.4631C90.7638 16.3305 91.203 16.2642 91.6637 16.2642C91.9686 16.2642 92.2918 16.3007 92.6332 16.3736C92.9779 16.4432 93.2994 16.5724 93.5977 16.7614C93.8993 16.9503 94.1462 17.2204 94.3384 17.5717C94.5307 17.9197 94.6268 18.3722 94.6268 18.929V24H93.1751V22.956H93.1154C93.0193 23.1482 92.8751 23.3371 92.6829 23.5227C92.4906 23.7083 92.2437 23.8625 91.9421 23.9851C91.6405 24.1077 91.2792 24.169 90.8583 24.169ZM91.1815 22.9759C91.5924 22.9759 91.9438 22.8946 92.2354 22.7322C92.5304 22.5698 92.7541 22.3577 92.9066 22.0959C93.0624 21.8307 93.1403 21.5473 93.1403 21.2457V20.2614C93.0872 20.3144 92.9845 20.3641 92.832 20.4105C92.6829 20.4536 92.5122 20.4917 92.32 20.5249C92.1277 20.5547 91.9405 20.5829 91.7582 20.6094C91.5759 20.6326 91.4234 20.6525 91.3008 20.669C91.0124 20.7055 90.7489 20.7668 90.5103 20.853C90.275 20.9392 90.0861 21.0634 89.9435 21.2259C89.8043 21.3849 89.7347 21.5971 89.7347 21.8622C89.7347 22.2301 89.8706 22.5085 90.1424 22.6974C90.4142 22.883 90.7605 22.9759 91.1815 22.9759ZM99.8084 27.0227C99.2019 27.0227 98.6799 26.9432 98.2424 26.7841C97.8082 26.625 97.4535 26.4145 97.1784 26.1527C96.9033 25.8909 96.6979 25.6042 96.562 25.2926L97.8397 24.7656C97.9292 24.9115 98.0485 25.0656 98.1976 25.228C98.3501 25.3937 98.5556 25.5346 98.8141 25.6506C99.0759 25.7666 99.4123 25.8246 99.8233 25.8246C100.387 25.8246 100.852 25.687 101.22 25.4119C101.588 25.1402 101.772 24.706 101.772 24.1094V22.608H101.678C101.588 22.7704 101.459 22.951 101.29 23.1499C101.124 23.3487 100.896 23.5211 100.604 23.6669C100.312 23.8127 99.9327 23.8857 99.4654 23.8857C98.8622 23.8857 98.3186 23.7448 97.8347 23.4631C97.3541 23.178 96.973 22.7588 96.6912 22.2053C96.4128 21.6484 96.2736 20.964 96.2736 20.152C96.2736 19.34 96.4112 18.6439 96.6863 18.0639C96.9647 17.4839 97.3458 17.0398 97.8297 16.7315C98.3136 16.42 98.8622 16.2642 99.4753 16.2642C99.9493 16.2642 100.332 16.3438 100.624 16.5028C100.915 16.6586 101.142 16.8409 101.305 17.0497C101.471 17.2585 101.598 17.4425 101.688 17.6016H101.797V16.3636H103.254V24.169C103.254 24.8253 103.101 25.3639 102.796 25.7848C102.491 26.2057 102.079 26.5173 101.558 26.7195C101.041 26.9216 100.458 27.0227 99.8084 27.0227ZM99.7935 22.6527C100.221 22.6527 100.582 22.5533 100.877 22.3544C101.176 22.1522 101.401 21.8639 101.553 21.4893C101.709 21.1115 101.787 20.6591 101.787 20.1321C101.787 19.6184 101.711 19.166 101.558 18.7749C101.406 18.3838 101.182 18.0788 100.887 17.8601C100.592 17.638 100.228 17.527 99.7935 17.527C99.3461 17.527 98.9732 17.643 98.6749 17.875C98.3766 18.1037 98.1512 18.4152 97.9988 18.8097C97.8496 19.2041 97.775 19.6449 97.775 20.1321C97.775 20.6326 97.8513 21.0717 98.0037 21.4496C98.1562 21.8274 98.3816 22.1224 98.6799 22.3345C98.9815 22.5466 99.3527 22.6527 99.7935 22.6527ZM108.539 24.1541C107.786 24.1541 107.138 23.9934 106.595 23.6719C106.054 23.3471 105.637 22.8913 105.342 22.3047C105.05 21.7147 104.904 21.0237 104.904 20.2315C104.904 19.4493 105.05 18.7599 105.342 18.1634C105.637 17.5668 106.048 17.1011 106.575 16.7663C107.105 16.4316 107.725 16.2642 108.434 16.2642C108.865 16.2642 109.283 16.3355 109.687 16.478C110.091 16.6205 110.454 16.8442 110.776 17.1491C111.097 17.4541 111.351 17.8501 111.536 18.3374C111.722 18.8213 111.815 19.4096 111.815 20.1023V20.6293H105.744V19.5156H110.358C110.358 19.1245 110.279 18.7782 110.119 18.4766C109.96 18.1716 109.737 17.9313 109.448 17.7557C109.163 17.58 108.829 17.4922 108.444 17.4922C108.026 17.4922 107.662 17.5949 107.35 17.8004C107.042 18.0026 106.803 18.2678 106.634 18.5959C106.469 18.9207 106.386 19.2737 106.386 19.6548V20.5249C106.386 21.0353 106.475 21.4695 106.654 21.8274C106.837 22.1854 107.09 22.4588 107.415 22.6477C107.74 22.8333 108.119 22.9261 108.553 22.9261C108.835 22.9261 109.092 22.8864 109.324 22.8068C109.556 22.724 109.757 22.6013 109.926 22.4389C110.095 22.2765 110.224 22.076 110.313 21.8374L111.72 22.0909C111.608 22.5052 111.405 22.8681 111.114 23.1797C110.825 23.4879 110.463 23.7282 110.025 23.9006C109.591 24.0696 109.095 24.1541 108.539 24.1541Z" fill="var(--colors-neutral-neutral-800)"/>
<path d="M271.4 21.2019L270.692 20.4942L276 15.1865L281.308 20.4942L280.6 21.2019L276 16.6019L271.4 21.2019Z" fill="var(--colors-neutral-neutral-800)"/>
<path d="M5.61538 65C5.15513 65 4.77083 64.8458 4.4625 64.5375C4.15417 64.2292 4 63.8449 4 63.3846V50.6154C4 50.1551 4.15417 49.7708 4.4625 49.4625C4.77083 49.1542 5.15513 49 5.61538 49H18.3846C18.8449 49 19.2292 49.1542 19.5375 49.4625C19.8458 49.7708 20 50.1551 20 50.6154V63.3846C20 63.8449 19.8458 64.2292 19.5375 64.5375C19.2292 64.8458 18.8449 65 18.3846 65H5.61538ZM5.61538 64H18.3846C18.5385 64 18.6795 63.9359 18.8077 63.8077C18.9359 63.6795 19 63.5385 19 63.3846V50.6154C19 50.4615 18.9359 50.3205 18.8077 50.1923C18.6795 50.0641 18.5385 50 18.3846 50H5.61538C5.46154 50 5.32052 50.0641 5.1923 50.1923C5.0641 50.3205 5 50.4615 5 50.6154V63.3846C5 63.5385 5.0641 63.6795 5.1923 63.8077C5.32052 63.9359 5.46154 64 5.61538 64ZM7.5 61.5H16.6538L13.8269 57.7308L11.2116 61.0385L9.46152 58.9231L7.5 61.5Z" fill="var(--colors-neutral-neutral-800)"/>
<path d="M33.0568 61V52.2727H38.2898V53.2102H34.1136V56.1591H37.8977V57.0966H34.1136V61H33.0568ZM40.9691 52.2727V61H39.9634V52.2727H40.9691ZM45.4702 61.1364C44.8793 61.1364 44.3608 60.9957 43.9148 60.7145C43.4716 60.4332 43.125 60.0398 42.875 59.5341C42.6278 59.0284 42.5043 58.4375 42.5043 57.7614C42.5043 57.0795 42.6278 56.4844 42.875 55.9759C43.125 55.4673 43.4716 55.0724 43.9148 54.7912C44.3608 54.5099 44.8793 54.3693 45.4702 54.3693C46.0611 54.3693 46.5781 54.5099 47.0213 54.7912C47.4673 55.0724 47.8139 55.4673 48.0611 55.9759C48.3111 56.4844 48.4361 57.0795 48.4361 57.7614C48.4361 58.4375 48.3111 59.0284 48.0611 59.5341C47.8139 60.0398 47.4673 60.4332 47.0213 60.7145C46.5781 60.9957 46.0611 61.1364 45.4702 61.1364ZM45.4702 60.233C45.919 60.233 46.2884 60.1179 46.5781 59.8878C46.8679 59.6577 47.0824 59.3551 47.2216 58.9801C47.3608 58.6051 47.4304 58.1989 47.4304 57.7614C47.4304 57.3239 47.3608 56.9162 47.2216 56.5384C47.0824 56.1605 46.8679 55.8551 46.5781 55.6222C46.2884 55.3892 45.919 55.2727 45.4702 55.2727C45.0213 55.2727 44.652 55.3892 44.3622 55.6222C44.0724 55.8551 43.858 56.1605 43.7188 56.5384C43.5795 56.9162 43.5099 57.3239 43.5099 57.7614C43.5099 58.1989 43.5795 58.6051 43.7188 58.9801C43.858 59.3551 44.0724 59.6577 44.3622 59.8878C44.652 60.1179 45.0213 60.233 45.4702 60.233ZM52.6303 61.1364C52.0394 61.1364 51.521 60.9957 51.0749 60.7145C50.6317 60.4332 50.2852 60.0398 50.0352 59.5341C49.788 59.0284 49.6644 58.4375 49.6644 57.7614C49.6644 57.0795 49.788 56.4844 50.0352 55.9759C50.2852 55.4673 50.6317 55.0724 51.0749 54.7912C51.521 54.5099 52.0394 54.3693 52.6303 54.3693C53.2212 54.3693 53.7383 54.5099 54.1815 54.7912C54.6275 55.0724 54.9741 55.4673 55.2212 55.9759C55.4712 56.4844 55.5962 57.0795 55.5962 57.7614C55.5962 58.4375 55.4712 59.0284 55.2212 59.5341C54.9741 60.0398 54.6275 60.4332 54.1815 60.7145C53.7383 60.9957 53.2212 61.1364 52.6303 61.1364ZM52.6303 60.233C53.0792 60.233 53.4485 60.1179 53.7383 59.8878C54.0281 59.6577 54.2425 59.3551 54.3817 58.9801C54.521 58.6051 54.5906 58.1989 54.5906 57.7614C54.5906 57.3239 54.521 56.9162 54.3817 56.5384C54.2425 56.1605 54.0281 55.8551 53.7383 55.6222C53.4485 55.3892 53.0792 55.2727 52.6303 55.2727C52.1815 55.2727 51.8121 55.3892 51.5224 55.6222C51.2326 55.8551 51.0181 56.1605 50.8789 56.5384C50.7397 56.9162 50.6701 57.3239 50.6701 57.7614C50.6701 58.1989 50.7397 58.6051 50.8789 58.9801C51.0181 59.3551 51.2326 59.6577 51.5224 59.8878C51.8121 60.1179 52.1815 60.233 52.6303 60.233ZM57.1314 61V54.4545H58.103V55.4432H58.1712C58.2905 55.1193 58.5064 54.8565 58.8189 54.6548C59.1314 54.4531 59.4837 54.3523 59.8757 54.3523C59.9496 54.3523 60.0419 54.3537 60.1527 54.3565C60.2635 54.3594 60.3473 54.3636 60.4041 54.3693V55.392C60.37 55.3835 60.2919 55.3707 60.1697 55.3537C60.0504 55.3338 59.924 55.3239 59.7905 55.3239C59.4723 55.3239 59.1882 55.3906 58.9382 55.5241C58.6911 55.6548 58.495 55.8366 58.3501 56.0696C58.2081 56.2997 58.1371 56.5625 58.1371 56.858V61H57.1314ZM61.5962 63.4545V54.4545H62.5678V55.4943H62.6871C62.761 55.3807 62.8633 55.2358 62.994 55.0597C63.1275 54.8807 63.3178 54.7216 63.565 54.5824C63.815 54.4403 64.1531 54.3693 64.5792 54.3693C65.1303 54.3693 65.6161 54.5071 66.0366 54.7827C66.457 55.0582 66.7852 55.4489 67.021 55.9545C67.2567 56.4602 67.3746 57.0568 67.3746 57.7443C67.3746 58.4375 67.2567 59.0384 67.021 59.5469C66.7852 60.0526 66.4585 60.4446 66.0408 60.723C65.6232 60.9986 65.1417 61.1364 64.5962 61.1364C64.1758 61.1364 63.8391 61.0668 63.5863 60.9276C63.3335 60.7855 63.1388 60.625 63.0025 60.446C62.8661 60.2642 62.761 60.1136 62.6871 59.9943H62.6019V63.4545H61.5962ZM62.5849 57.7273C62.5849 58.2216 62.6573 58.6577 62.8022 59.0355C62.9471 59.4105 63.1587 59.7045 63.4371 59.9176C63.7156 60.1278 64.0565 60.233 64.4599 60.233C64.8803 60.233 65.2312 60.1222 65.5124 59.9006C65.7965 59.6761 66.0096 59.375 66.1516 58.9972C66.2965 58.6165 66.369 58.1932 66.369 57.7273C66.369 57.267 66.2979 56.8523 66.1559 56.483C66.0167 56.1108 65.805 55.8168 65.521 55.6009C65.2397 55.3821 64.886 55.2727 64.4599 55.2727C64.0508 55.2727 63.707 55.3764 63.4286 55.5838C63.1502 55.7884 62.94 56.0753 62.7979 56.4446C62.6559 56.8111 62.5849 57.2386 62.5849 57.7273ZM69.9144 52.2727V61H68.9087V52.2727H69.9144ZM73.6825 61.1534C73.2678 61.1534 72.8913 61.0753 72.5533 60.919C72.2152 60.7599 71.9467 60.5312 71.7479 60.233C71.549 59.9318 71.4496 59.5682 71.4496 59.142C71.4496 58.767 71.5234 58.4631 71.6712 58.2301C71.8189 57.9943 72.0163 57.8097 72.2635 57.6761C72.5107 57.5426 72.7834 57.4432 73.0817 57.3778C73.3828 57.3097 73.6854 57.2557 73.9893 57.2159C74.3871 57.1648 74.7095 57.1264 74.9567 57.1009C75.2067 57.0724 75.3885 57.0256 75.5021 56.9602C75.6186 56.8949 75.6768 56.7812 75.6768 56.6193V56.5852C75.6768 56.1648 75.5618 55.8381 75.3317 55.6051C75.1044 55.3722 74.7592 55.2557 74.2962 55.2557C73.8161 55.2557 73.4396 55.3608 73.1669 55.571C72.8942 55.7812 72.7024 56.0057 72.5916 56.2443L71.6371 55.9034C71.8075 55.5057 72.0348 55.196 72.3189 54.9744C72.6058 54.75 72.9183 54.5937 73.2564 54.5057C73.5973 54.4148 73.9325 54.3693 74.2621 54.3693C74.4723 54.3693 74.7138 54.3949 74.9865 54.446C75.2621 54.4943 75.5277 54.5952 75.7834 54.7486C76.0419 54.902 76.2564 55.1335 76.4268 55.4432C76.5973 55.7528 76.6825 56.1676 76.6825 56.6875V61H75.6768V60.1136H75.6257C75.5575 60.2557 75.4439 60.4077 75.2848 60.5696C75.1257 60.7315 74.9141 60.8693 74.6499 60.983C74.3857 61.0966 74.0632 61.1534 73.6825 61.1534ZM73.8359 60.25C74.2337 60.25 74.5689 60.1719 74.8416 60.0156C75.1172 59.8594 75.3246 59.6577 75.4638 59.4105C75.6058 59.1634 75.6768 58.9034 75.6768 58.6307V57.7102C75.6342 57.7614 75.5405 57.8082 75.3956 57.8509C75.2536 57.8906 75.0888 57.9261 74.9013 57.9574C74.7166 57.9858 74.5362 58.0114 74.3601 58.0341C74.1868 58.054 74.0462 58.071 73.9382 58.0852C73.6768 58.1193 73.4325 58.1747 73.2053 58.2514C72.9808 58.3253 72.799 58.4375 72.6598 58.5881C72.5234 58.7358 72.4553 58.9375 72.4553 59.1932C72.4553 59.5426 72.5845 59.8068 72.843 59.9858C73.1044 60.1619 73.4354 60.25 73.8359 60.25ZM79.5238 57.0625V61H78.5181V54.4545H79.4897V55.4773H79.5749C79.7283 55.1449 79.9613 54.8778 80.2738 54.6761C80.5863 54.4716 80.9897 54.3693 81.484 54.3693C81.9272 54.3693 82.315 54.4602 82.6474 54.642C82.9798 54.821 83.2383 55.0938 83.4229 55.4602C83.6076 55.8239 83.6999 56.2841 83.6999 56.8409V61H82.6942V56.9091C82.6942 56.3949 82.5607 55.9943 82.2937 55.7074C82.0266 55.4176 81.6602 55.2727 81.1942 55.2727C80.8732 55.2727 80.5863 55.3423 80.3335 55.4815C80.0835 55.6207 79.886 55.8239 79.7411 56.0909C79.5962 56.358 79.5238 56.6818 79.5238 57.0625ZM86.2706 61.0682C86.0604 61.0682 85.88 60.9929 85.7294 60.8423C85.5788 60.6918 85.5036 60.5114 85.5036 60.3011C85.5036 60.0909 85.5788 59.9105 85.7294 59.7599C85.88 59.6094 86.0604 59.5341 86.2706 59.5341C86.4808 59.5341 86.6612 59.6094 86.8118 59.7599C86.9624 59.9105 87.0376 60.0909 87.0376 60.3011C87.0376 60.4403 87.0021 60.5682 86.9311 60.6847C86.8629 60.8011 86.7706 60.8949 86.6541 60.9659C86.5405 61.0341 86.4126 61.0682 86.2706 61.0682ZM91.6719 61H88.9787V52.2727H91.7912C92.6378 52.2727 93.3622 52.4474 93.9645 52.7969C94.5668 53.1435 95.0284 53.642 95.3494 54.2926C95.6705 54.9403 95.831 55.7159 95.831 56.6193C95.831 57.5284 95.669 58.3111 95.3452 58.9673C95.0213 59.6207 94.5497 60.1236 93.9304 60.4759C93.3111 60.8253 92.5582 61 91.6719 61ZM90.0355 60.0625H91.6037C92.3253 60.0625 92.9233 59.9233 93.3977 59.6449C93.8722 59.3665 94.2259 58.9702 94.4588 58.456C94.6918 57.9418 94.8082 57.3295 94.8082 56.6193C94.8082 55.9148 94.6932 55.3082 94.4631 54.7997C94.233 54.2884 93.8892 53.8963 93.4318 53.6236C92.9744 53.348 92.4048 53.2102 91.723 53.2102H90.0355V60.0625ZM99.1889 61L96.8026 52.2727H97.8764L99.7003 59.3807H99.7855L101.643 52.2727H102.837L104.695 59.3807H104.78L106.604 52.2727H107.678L105.291 61H104.2L102.274 54.0455H102.206L100.28 61H99.1889ZM114.55 55C114.456 54.7131 114.333 54.456 114.179 54.2287C114.029 53.9986 113.848 53.8026 113.638 53.6406C113.431 53.4787 113.195 53.3551 112.931 53.2699C112.667 53.1847 112.377 53.142 112.061 53.142C111.544 53.142 111.074 53.2756 110.651 53.5426C110.228 53.8097 109.891 54.2031 109.641 54.723C109.391 55.2429 109.266 55.8807 109.266 56.6364C109.266 57.392 109.392 58.0298 109.645 58.5497C109.898 59.0696 110.24 59.4631 110.672 59.7301C111.104 59.9972 111.59 60.1307 112.13 60.1307C112.63 60.1307 113.07 60.0241 113.451 59.8111C113.834 59.5952 114.132 59.2912 114.346 58.8991C114.561 58.5043 114.669 58.0398 114.669 57.5057L114.993 57.5739H112.368V56.6364H115.692V57.5739C115.692 58.2926 115.539 58.9176 115.232 59.4489C114.928 59.9801 114.507 60.392 113.971 60.6847C113.436 60.9744 112.823 61.1193 112.13 61.1193C111.357 61.1193 110.678 60.9375 110.093 60.5739C109.51 60.2102 109.056 59.6932 108.729 59.0227C108.405 58.3523 108.243 57.5568 108.243 56.6364C108.243 55.946 108.336 55.3253 108.52 54.7741C108.708 54.2202 108.972 53.7486 109.313 53.3594C109.654 52.9702 110.057 52.6719 110.523 52.4645C110.989 52.2571 111.502 52.1534 112.061 52.1534C112.522 52.1534 112.951 52.223 113.348 52.3622C113.749 52.4986 114.105 52.6932 114.418 52.946C114.733 53.196 114.996 53.4957 115.206 53.8452C115.417 54.1918 115.561 54.5767 115.641 55H114.55Z" fill="var(--colors-neutral-neutral-800)"/>
<path d="M256 57C256 61.9706 251.971 66 247 66C242.029 66 238 61.9706 238 57C238 52.0294 242.029 48 247 48C251.971 48 256 52.0294 256 57ZM239.8 57C239.8 60.9764 243.024 64.2 247 64.2C250.976 64.2 254.2 60.9764 254.2 57C254.2 53.0235 250.976 49.8 247 49.8C243.024 49.8 239.8 53.0235 239.8 57Z" fill="var(--colors-neutral-neutral-300)"/>
<path d="M247 48C249.387 48 251.676 48.9482 253.364 50.636C255.052 52.3239 256 54.6131 256 57H254.2C254.2 55.0904 253.441 53.2591 252.091 51.9088C250.741 50.5586 248.91 49.8 247 49.8V48Z" fill="var(--colors-neutral-neutral-800)"/>
<path d="M272.4 61.3077L276 57.7077L279.6 61.3077L280.308 60.6L276.708 57L280.308 53.4L279.6 52.6923L276 56.2923L272.4 52.6923L271.692 53.4L275.292 57L271.692 60.6L272.4 61.3077ZM276.003 66C274.759 66 273.589 65.7638 272.493 65.2915C271.397 64.8192 270.444 64.1782 269.634 63.3685C268.824 62.5588 268.182 61.6066 267.709 60.512C267.236 59.4174 267 58.2479 267 57.0033C267 55.7588 267.236 54.5887 267.708 53.4931C268.181 52.3975 268.822 51.4444 269.632 50.634C270.441 49.8235 271.393 49.1819 272.488 48.7091C273.583 48.2364 274.752 48 275.997 48C277.241 48 278.411 48.2362 279.507 48.7085C280.603 49.1808 281.556 49.8218 282.366 50.6315C283.176 51.4412 283.818 52.3934 284.291 53.488C284.764 54.5826 285 55.7521 285 56.9967C285 58.2412 284.764 59.4113 284.292 60.5069C283.819 61.6025 283.178 62.5556 282.368 63.366C281.559 64.1765 280.607 64.8181 279.512 65.2908C278.417 65.7636 277.248 66 276.003 66ZM276 65C278.233 65 280.125 64.225 281.675 62.675C283.225 61.125 284 59.2333 284 57C284 54.7667 283.225 52.875 281.675 51.325C280.125 49.775 278.233 49 276 49C273.767 49 271.875 49.775 270.325 51.325C268.775 52.875 268 54.7667 268 57C268 59.2333 268.775 61.125 270.325 62.675C271.875 64.225 273.767 65 276 65Z" fill="var(--colors-neutral-neutral-800)"/>
<path d="M37.6534 71.7273H38.5341V76.5426C38.5341 77.0398 38.4169 77.4837 38.1825 77.8743C37.9505 78.2625 37.6226 78.5691 37.1989 78.794C36.7751 79.0166 36.2779 79.1278 35.7074 79.1278C35.1368 79.1278 34.6397 79.0166 34.2159 78.794C33.7921 78.5691 33.4631 78.2625 33.2287 77.8743C32.9967 77.4837 32.8807 77.0398 32.8807 76.5426V71.7273H33.7614V76.4716C33.7614 76.8267 33.8395 77.1428 33.9957 77.4197C34.152 77.6944 34.3745 77.911 34.6634 78.0696C34.9545 78.2259 35.3026 78.304 35.7074 78.304C36.1122 78.304 36.4602 78.2259 36.7514 78.0696C37.0426 77.911 37.2652 77.6944 37.419 77.4197C37.5753 77.1428 37.6534 76.8267 37.6534 76.4716V71.7273ZM40.1792 81.0455V73.5455H40.9888V74.4119H41.0882C41.1498 74.3172 41.235 74.1965 41.3439 74.0497C41.4552 73.9006 41.6138 73.768 41.8198 73.652C42.0281 73.5336 42.3098 73.4744 42.665 73.4744C43.1242 73.4744 43.5291 73.5893 43.8794 73.8189C44.2298 74.0485 44.5033 74.3741 44.6998 74.7955C44.8962 75.2169 44.9945 75.714 44.9945 76.2869C44.9945 76.8646 44.8962 77.3653 44.6998 77.7891C44.5033 78.2105 44.231 78.5372 43.883 78.7692C43.535 78.9988 43.1337 79.1136 42.6792 79.1136C42.3288 79.1136 42.0482 79.0556 41.8375 78.9396C41.6268 78.8213 41.4647 78.6875 41.351 78.5384C41.2374 78.3868 41.1498 78.2614 41.0882 78.1619H41.0172V81.0455H40.1792ZM41.003 76.2727C41.003 76.6847 41.0634 77.0481 41.1841 77.3629C41.3049 77.6754 41.4812 77.9205 41.7132 78.098C41.9453 78.2732 42.2293 78.3608 42.5655 78.3608C42.9159 78.3608 43.2083 78.2685 43.4426 78.0838C43.6794 77.8968 43.8569 77.6458 43.9753 77.331C44.0961 77.0137 44.1564 76.661 44.1564 76.2727C44.1564 75.8892 44.0972 75.5436 43.9789 75.2358C43.8629 74.9257 43.6865 74.6806 43.4498 74.5007C43.2154 74.3184 42.9206 74.2273 42.5655 74.2273C42.2246 74.2273 41.9382 74.3137 41.7061 74.4865C41.4741 74.657 41.2989 74.8961 41.1806 75.2038C41.0622 75.5092 41.003 75.8655 41.003 76.2727ZM47.111 71.7273V79H46.2729V71.7273H47.111ZM50.8619 79.1136C50.3694 79.1136 49.9374 78.9964 49.5657 78.7621C49.1964 78.5277 48.9076 78.1998 48.6992 77.7784C48.4933 77.357 48.3903 76.8646 48.3903 76.3011C48.3903 75.733 48.4933 75.237 48.6992 74.8132C48.9076 74.3894 49.1964 74.0604 49.5657 73.826C49.9374 73.5916 50.3694 73.4744 50.8619 73.4744C51.3543 73.4744 51.7852 73.5916 52.1545 73.826C52.5262 74.0604 52.815 74.3894 53.021 74.8132C53.2293 75.237 53.3335 75.733 53.3335 76.3011C53.3335 76.8646 53.2293 77.357 53.021 77.7784C52.815 78.1998 52.5262 78.5277 52.1545 78.7621C51.7852 78.9964 51.3543 79.1136 50.8619 79.1136ZM50.8619 78.3608C51.2359 78.3608 51.5437 78.2649 51.7852 78.0732C52.0266 77.8814 52.2054 77.6293 52.3214 77.3168C52.4374 77.0043 52.4954 76.6657 52.4954 76.3011C52.4954 75.9366 52.4374 75.5968 52.3214 75.282C52.2054 74.9671 52.0266 74.7126 51.7852 74.5185C51.5437 74.3243 51.2359 74.2273 50.8619 74.2273C50.4878 74.2273 50.18 74.3243 49.9386 74.5185C49.6971 74.7126 49.5183 74.9671 49.4023 75.282C49.2863 75.5968 49.2283 75.9366 49.2283 76.3011C49.2283 76.6657 49.2863 77.0043 49.4023 77.3168C49.5183 77.6293 49.6971 77.8814 49.9386 78.0732C50.18 78.2649 50.4878 78.3608 50.8619 78.3608ZM56.2179 79.1278C55.8722 79.1278 55.5585 79.0627 55.2768 78.9325C54.9951 78.8 54.7714 78.6094 54.6056 78.3608C54.4399 78.1098 54.3571 77.8068 54.3571 77.4517C54.3571 77.1392 54.4186 76.8859 54.5417 76.6918C54.6648 76.4953 54.8294 76.3414 55.0353 76.2301C55.2413 76.1188 55.4686 76.036 55.7172 75.9815C55.9681 75.9247 56.2202 75.8797 56.4735 75.8466C56.805 75.804 57.0737 75.772 57.2797 75.7507C57.488 75.727 57.6395 75.688 57.7342 75.6335C57.8313 75.5791 57.8798 75.4844 57.8798 75.3494V75.321C57.8798 74.9706 57.7839 74.6984 57.5922 74.5043C57.4028 74.3101 57.1151 74.2131 56.7292 74.2131C56.3291 74.2131 56.0154 74.3007 55.7882 74.4759C55.5609 74.651 55.4011 74.8381 55.3088 75.0369L54.5133 74.7528C54.6554 74.4214 54.8448 74.1634 55.0815 73.9787C55.3206 73.7917 55.581 73.6615 55.8627 73.5881C56.1468 73.5123 56.4262 73.4744 56.7008 73.4744C56.876 73.4744 57.0772 73.4957 57.3045 73.5384C57.5342 73.5786 57.7555 73.6626 57.9686 73.7905C58.184 73.9183 58.3627 74.1113 58.5048 74.3693C58.6468 74.6274 58.7179 74.973 58.7179 75.4062V79H57.8798V78.2614H57.8372C57.7804 78.3797 57.6857 78.5064 57.5531 78.6413C57.4205 78.7763 57.2441 78.8911 57.024 78.9858C56.8038 79.0805 56.5351 79.1278 56.2179 79.1278ZM56.3457 78.375C56.6771 78.375 56.9565 78.3099 57.1838 78.1797C57.4134 78.0495 57.5862 77.8814 57.7022 77.6754C57.8206 77.4695 57.8798 77.2528 57.8798 77.0256V76.2585C57.8443 76.3011 57.7662 76.3402 57.6454 76.3757C57.527 76.4089 57.3897 76.4384 57.2335 76.4645C57.0796 76.4882 56.9293 76.5095 56.7825 76.5284C56.6381 76.545 56.5209 76.5592 56.4309 76.571C56.2131 76.5994 56.0095 76.6456 55.8201 76.7095C55.6331 76.7711 55.4816 76.8646 55.3656 76.9901C55.252 77.1132 55.1951 77.2812 55.1951 77.4943C55.1951 77.7855 55.3029 78.0057 55.5183 78.1548C55.7361 78.3016 56.0119 78.375 56.3457 78.375ZM62.3072 79.1136C61.8526 79.1136 61.4513 78.9988 61.1033 78.7692C60.7553 78.5372 60.4831 78.2105 60.2866 77.7891C60.0901 77.3653 59.9918 76.8646 59.9918 76.2869C59.9918 75.714 60.0901 75.2169 60.2866 74.7955C60.4831 74.3741 60.7565 74.0485 61.1069 73.8189C61.4573 73.5893 61.8621 73.4744 62.3214 73.4744C62.6765 73.4744 62.957 73.5336 63.163 73.652C63.3713 73.768 63.5299 73.9006 63.6388 74.0497C63.7501 74.1965 63.8365 74.3172 63.8981 74.4119H63.9691V71.7273H64.8072V79H63.9975V78.1619H63.8981C63.8365 78.2614 63.7489 78.3868 63.6353 78.5384C63.5217 78.6875 63.3595 78.8213 63.1488 78.9396C62.9381 79.0556 62.6576 79.1136 62.3072 79.1136ZM62.4208 78.3608C62.757 78.3608 63.0411 78.2732 63.2731 78.098C63.5051 77.9205 63.6815 77.6754 63.8022 77.3629C63.9229 77.0481 63.9833 76.6847 63.9833 76.2727C63.9833 75.8655 63.9241 75.5092 63.8058 75.2038C63.6874 74.8961 63.5122 74.657 63.2802 74.4865C63.0482 74.3137 62.7617 74.2273 62.4208 74.2273C62.0657 74.2273 61.7698 74.3184 61.533 74.5007C61.2987 74.6806 61.1223 74.9257 61.0039 75.2358C60.8879 75.5436 60.8299 75.8892 60.8299 76.2727C60.8299 76.661 60.8891 77.0137 61.0075 77.331C61.1282 77.6458 61.3058 77.8968 61.5401 78.0838C61.7769 78.2685 62.0704 78.3608 62.4208 78.3608ZM66.4585 79V73.5455H67.2965V79H66.4585ZM66.8846 72.6364C66.7212 72.6364 66.5804 72.5807 66.462 72.4695C66.346 72.3582 66.288 72.2244 66.288 72.0682C66.288 71.9119 66.346 71.7782 66.462 71.6669C66.5804 71.5556 66.7212 71.5 66.8846 71.5C67.0479 71.5 67.1876 71.5556 67.3036 71.6669C67.422 71.7782 67.4812 71.9119 67.4812 72.0682C67.4812 72.2244 67.422 72.3582 67.3036 72.4695C67.1876 72.5807 67.0479 72.6364 66.8846 72.6364ZM69.6696 75.7188V79H68.8315V73.5455H69.6412V74.3977H69.7122C69.84 74.1207 70.0342 73.8982 70.2946 73.7301C70.555 73.5597 70.8912 73.4744 71.3031 73.4744C71.6724 73.4744 71.9956 73.5502 72.2725 73.7017C72.5495 73.8509 72.765 74.0781 72.9189 74.3835C73.0727 74.6866 73.1497 75.0701 73.1497 75.5341V79H72.3116V75.5909C72.3116 75.1624 72.2003 74.8286 71.9778 74.5895C71.7553 74.348 71.4499 74.2273 71.0616 74.2273C70.7941 74.2273 70.555 74.2853 70.3443 74.4013C70.1359 74.5173 69.9714 74.6866 69.8507 74.9091C69.7299 75.1316 69.6696 75.4015 69.6696 75.7188ZM76.8828 81.1591C76.478 81.1591 76.13 81.107 75.8388 81.0028C75.5476 80.901 75.3049 80.7661 75.1108 80.598C74.919 80.4323 74.7663 80.2547 74.6527 80.0653L75.3203 79.5966C75.3961 79.696 75.492 79.8097 75.608 79.9375C75.724 80.0677 75.8826 80.1802 76.0838 80.2749C76.2874 80.3719 76.5537 80.4205 76.8828 80.4205C77.3232 80.4205 77.6866 80.3139 77.973 80.1009C78.2595 79.8878 78.4027 79.554 78.4027 79.0994V77.9915H78.3317C78.2701 78.0909 78.1825 78.214 78.0689 78.3608C77.9576 78.5052 77.7966 78.6342 77.5859 78.7479C77.3776 78.8591 77.0959 78.9148 76.7408 78.9148C76.3004 78.9148 75.9051 78.8106 75.5547 78.6023C75.2067 78.3939 74.9309 78.0909 74.7273 77.6932C74.526 77.2955 74.4254 76.8125 74.4254 76.2443C74.4254 75.6856 74.5237 75.1991 74.7202 74.7848C74.9167 74.3681 75.1901 74.0462 75.5405 73.8189C75.8909 73.5893 76.2957 73.4744 76.755 73.4744C77.1101 73.4744 77.3918 73.5336 77.6001 73.652C77.8108 73.768 77.9718 73.9006 78.0831 74.0497C78.1967 74.1965 78.2843 74.3172 78.3459 74.4119H78.4311V73.5455H79.2408V79.1562C79.2408 79.625 79.1342 80.0062 78.9212 80.2997C78.7105 80.5956 78.4264 80.8123 78.0689 80.9496C77.7138 81.0893 77.3184 81.1591 76.8828 81.1591ZM76.8544 78.1619C77.1906 78.1619 77.4747 78.085 77.7067 77.9311C77.9387 77.7772 78.1151 77.5559 78.2358 77.267C78.3565 76.9782 78.4169 76.6326 78.4169 76.2301C78.4169 75.8371 78.3577 75.4903 78.2393 75.1896C78.121 74.889 77.9458 74.6534 77.7138 74.483C77.4818 74.3125 77.1953 74.2273 76.8544 74.2273C76.4993 74.2273 76.2034 74.3172 75.9666 74.4972C75.7322 74.6771 75.5559 74.9186 75.4375 75.2216C75.3215 75.5246 75.2635 75.8608 75.2635 76.2301C75.2635 76.6089 75.3227 76.9439 75.4411 77.2351C75.5618 77.5239 75.7393 77.7512 75.9737 77.9169C76.2105 78.0803 76.504 78.1619 76.8544 78.1619ZM84.8089 69.3835V81.3438H84.0987V69.3835H84.8089ZM91.9867 79.0994C91.499 79.0994 91.0681 79.013 90.6941 78.8402C90.3224 78.665 90.0324 78.4247 89.824 78.1193C89.6157 77.8116 89.5127 77.4612 89.5151 77.0682C89.5127 76.7604 89.5731 76.4763 89.6962 76.2159C89.8193 75.9531 89.9874 75.7341 90.2005 75.5589C90.4159 75.3814 90.6562 75.2689 90.9213 75.2216V75.179C90.5733 75.089 90.2963 74.8937 90.0904 74.593C89.8844 74.29 89.7826 73.9455 89.785 73.5597C89.7826 73.1903 89.8761 72.8601 90.0655 72.5689C90.2549 72.2777 90.5153 72.0481 90.8468 71.88C91.1806 71.7119 91.5605 71.6278 91.9867 71.6278C92.4081 71.6278 92.7845 71.7119 93.1159 71.88C93.4474 72.0481 93.7078 72.2777 93.8972 72.5689C94.089 72.8601 94.186 73.1903 94.1884 73.5597C94.186 73.9455 94.0807 74.29 93.8723 74.593C93.6664 74.8937 93.3929 75.089 93.052 75.179V75.2216C93.3148 75.2689 93.5516 75.3814 93.7623 75.5589C93.973 75.7341 94.141 75.9531 94.2665 76.2159C94.392 76.4763 94.4559 76.7604 94.4583 77.0682C94.4559 77.4612 94.3494 77.8116 94.1387 78.1193C93.9303 78.4247 93.6403 78.665 93.2686 78.8402C92.8993 79.013 92.472 79.0994 91.9867 79.0994ZM91.9867 78.3182C92.3158 78.3182 92.5998 78.2649 92.839 78.1584C93.0781 78.0518 93.2627 77.9015 93.3929 77.7074C93.5231 77.5133 93.5894 77.286 93.5918 77.0256C93.5894 76.7509 93.5184 76.5083 93.3787 76.2976C93.2391 76.0869 93.0485 75.9212 92.807 75.8004C92.5679 75.6797 92.2944 75.6193 91.9867 75.6193C91.6766 75.6193 91.3996 75.6797 91.1557 75.8004C90.9142 75.9212 90.7237 76.0869 90.584 76.2976C90.4467 76.5083 90.3792 76.7509 90.3816 77.0256C90.3792 77.286 90.4419 77.5133 90.5698 77.7074C90.7 77.9015 90.8858 78.0518 91.1273 78.1584C91.3688 78.2649 91.6552 78.3182 91.9867 78.3182ZM91.9867 74.8665C92.2471 74.8665 92.4779 74.8144 92.6792 74.7102C92.8828 74.6061 93.0426 74.4605 93.1586 74.2734C93.2746 74.0864 93.3337 73.8674 93.3361 73.6165C93.3337 73.3703 93.2757 73.156 93.1621 72.9737C93.0485 72.7891 92.891 72.647 92.6898 72.5476C92.4886 72.4458 92.2542 72.3949 91.9867 72.3949C91.7144 72.3949 91.4765 72.4458 91.2729 72.5476C91.0693 72.647 90.9119 72.7891 90.8006 72.9737C90.6893 73.156 90.6349 73.3703 90.6373 73.6165C90.6349 73.8674 90.6905 74.0864 90.8042 74.2734C90.9202 74.4605 91.08 74.6061 91.2836 74.7102C91.4872 74.8144 91.7215 74.8665 91.9867 74.8665ZM99.5266 77.6364V77.2528C99.5266 76.9877 99.5811 76.745 99.69 76.5249C99.8013 76.3023 99.9622 76.1248 100.173 75.9922C100.386 75.8572 100.644 75.7898 100.947 75.7898C101.255 75.7898 101.513 75.8572 101.721 75.9922C101.93 76.1248 102.087 76.3023 102.194 76.5249C102.3 76.745 102.353 76.9877 102.353 77.2528V77.6364C102.353 77.9015 102.299 78.1454 102.19 78.3679C102.083 78.5881 101.925 78.7656 101.714 78.9006C101.506 79.0331 101.25 79.0994 100.947 79.0994C100.639 79.0994 100.38 79.0331 100.169 78.9006C99.9587 78.7656 99.7989 78.5881 99.69 78.3679C99.5811 78.1454 99.5266 77.9015 99.5266 77.6364ZM100.251 77.2528V77.6364C100.251 77.8565 100.303 78.0542 100.407 78.2294C100.511 78.4022 100.691 78.4886 100.947 78.4886C101.196 78.4886 101.371 78.4022 101.473 78.2294C101.577 78.0542 101.629 77.8565 101.629 77.6364V77.2528C101.629 77.0327 101.579 76.8362 101.48 76.6634C101.38 76.4882 101.203 76.4006 100.947 76.4006C100.699 76.4006 100.52 76.4882 100.411 76.6634C100.304 76.8362 100.251 77.0327 100.251 77.2528ZM95.9045 73.4744V73.0909C95.9045 72.8258 95.9589 72.5831 96.0678 72.3629C96.1791 72.1404 96.3401 71.9628 96.5508 71.8303C96.7638 71.6953 97.0219 71.6278 97.3249 71.6278C97.6327 71.6278 97.8907 71.6953 98.0991 71.8303C98.3074 71.9628 98.4648 72.1404 98.5714 72.3629C98.6779 72.5831 98.7312 72.8258 98.7312 73.0909V73.4744C98.7312 73.7396 98.6767 73.9834 98.5678 74.206C98.4613 74.4261 98.3027 74.6037 98.092 74.7386C97.8836 74.8712 97.628 74.9375 97.3249 74.9375C97.0172 74.9375 96.7579 74.8712 96.5472 74.7386C96.3365 74.6037 96.1767 74.4261 96.0678 74.206C95.9589 73.9834 95.9045 73.7396 95.9045 73.4744ZM96.6289 73.0909V73.4744C96.6289 73.6946 96.681 73.8923 96.7852 74.0675C96.8893 74.2403 97.0692 74.3267 97.3249 74.3267C97.5735 74.3267 97.7487 74.2403 97.8505 74.0675C97.9547 73.8923 98.0067 73.6946 98.0067 73.4744V73.0909C98.0067 72.8707 97.957 72.6742 97.8576 72.5014C97.7582 72.3262 97.5806 72.2386 97.3249 72.2386C97.0763 72.2386 96.8976 72.3262 96.7887 72.5014C96.6822 72.6742 96.6289 72.8707 96.6289 73.0909ZM96.1744 79L101.174 71.7273H101.984L96.984 79H96.1744Z" fill="var(--colors-neutral-neutral-700)"/>
</svg>
