<svg width="327" height="415" viewBox="0 0 327 415" fill="none" xmlns="http://www.w3.org/2000/svg">
<g filter="url(#filter0_d_3769_48378)">
<rect width="305" height="393" transform="translate(11 9)" fill="white"/>
<path d="M28.644 38.888V37.808H33.288V38.888H28.644ZM29.988 32.624H31.812L34.404 41H33.096L31.404 35.456L30.9 33.62L30.396 35.468L28.68 41H27.396L29.988 32.624ZM38.1167 34.256C38.5727 34.256 38.9887 34.348 39.3647 34.532C39.7407 34.708 40.0447 34.956 40.2767 35.276V32.18H41.4767V41H40.3367L40.3007 40.076C40.0687 40.396 39.7607 40.656 39.3767 40.856C39.0007 41.048 38.5807 41.144 38.1167 41.144C37.5327 41.144 37.0167 40.996 36.5687 40.7C36.1207 40.404 35.7687 39.996 35.5127 39.476C35.2647 38.956 35.1407 38.364 35.1407 37.7C35.1407 37.028 35.2647 36.432 35.5127 35.912C35.7687 35.392 36.1207 34.988 36.5687 34.7C37.0167 34.404 37.5327 34.256 38.1167 34.256ZM38.3807 40.124C38.8127 40.124 39.1967 40.004 39.5327 39.764C39.8687 39.516 40.1167 39.184 40.2767 38.768V36.62C40.1167 36.196 39.8687 35.868 39.5327 35.636C39.1967 35.396 38.8127 35.276 38.3807 35.276C37.9807 35.276 37.6287 35.38 37.3247 35.588C37.0207 35.788 36.7807 36.072 36.6047 36.44C36.4367 36.8 36.3527 37.22 36.3527 37.7C36.3527 38.172 36.4367 38.592 36.6047 38.96C36.7807 39.32 37.0207 39.604 37.3247 39.812C37.6287 40.02 37.9807 40.124 38.3807 40.124ZM45.3454 41L42.7654 34.4H44.0494L45.5734 38.372L46.0414 39.884L46.5214 38.372L48.0454 34.4H49.2814L46.7134 41H45.3454ZM55.3221 41L55.2741 39.5V36.68C55.2741 36.208 55.1181 35.84 54.8061 35.576C54.5021 35.304 54.0821 35.168 53.5461 35.168C53.0261 35.168 52.6021 35.288 52.2741 35.528C51.9461 35.76 51.7661 36.084 51.7341 36.5H50.5461C50.5861 36.028 50.7381 35.628 51.0021 35.3C51.2661 34.964 51.6181 34.708 52.0581 34.532C52.4981 34.348 53.0061 34.256 53.5821 34.256C54.1741 34.256 54.6861 34.356 55.1181 34.556C55.5501 34.748 55.8821 35.028 56.1141 35.396C56.3541 35.764 56.4741 36.212 56.4741 36.74V41H55.3221ZM52.9341 41.144C52.5021 41.144 52.1221 41.068 51.7941 40.916C51.4661 40.756 51.2101 40.532 51.0261 40.244C50.8421 39.948 50.7501 39.604 50.7501 39.212C50.7501 38.532 51.0101 38.004 51.5301 37.628C52.0581 37.252 52.7941 37.064 53.7381 37.064H55.4301V37.964H53.6901C53.1461 37.964 52.7181 38.068 52.4061 38.276C52.1021 38.484 51.9501 38.776 51.9501 39.152C51.9501 39.464 52.0581 39.708 52.2741 39.884C52.4981 40.06 52.7981 40.148 53.1741 40.148C53.6541 40.148 54.0781 40.02 54.4461 39.764C54.8221 39.5 55.1261 39.14 55.3581 38.684L55.4901 39.572C55.2821 40.076 54.9621 40.464 54.5301 40.736C54.0981 41.008 53.5661 41.144 52.9341 41.144ZM62.9348 41V36.836C62.9348 36.372 62.8028 36 62.5388 35.72C62.2748 35.432 61.9308 35.288 61.5068 35.288C61.0188 35.288 60.5828 35.468 60.1988 35.828C59.8228 36.18 59.5228 36.732 59.2988 37.484L59.1068 36.128C59.3548 35.504 59.7108 35.036 60.1748 34.724C60.6468 34.412 61.1588 34.256 61.7108 34.256C62.2068 34.256 62.6348 34.364 62.9948 34.58C63.3628 34.788 63.6468 35.08 63.8468 35.456C64.0468 35.832 64.1468 36.276 64.1468 36.788V41H62.9348ZM58.2308 41V34.4H59.3828L59.4428 35.888V41H58.2308ZM68.9154 41.144C68.2354 41.144 67.6434 41.004 67.1394 40.724C66.6434 40.436 66.2594 40.036 65.9874 39.524C65.7154 39.004 65.5794 38.396 65.5794 37.7C65.5794 36.988 65.7194 36.376 65.9994 35.864C66.2794 35.344 66.6714 34.948 67.1754 34.676C67.6794 34.396 68.2674 34.256 68.9394 34.256C69.4754 34.256 69.9554 34.356 70.3794 34.556C70.8114 34.748 71.1594 35.024 71.4234 35.384C71.6954 35.744 71.8514 36.172 71.8914 36.668H70.6794C70.6154 36.22 70.4234 35.876 70.1034 35.636C69.7914 35.388 69.4034 35.264 68.9394 35.264C68.5074 35.264 68.1314 35.364 67.8114 35.564C67.4914 35.756 67.2434 36.032 67.0674 36.392C66.8914 36.752 66.8034 37.188 66.8034 37.7C66.8034 38.46 66.9954 39.056 67.3794 39.488C67.7714 39.92 68.2834 40.136 68.9154 40.136C69.2034 40.136 69.4714 40.08 69.7194 39.968C69.9674 39.856 70.1794 39.696 70.3554 39.488C70.5314 39.272 70.6514 39.024 70.7154 38.744H71.9394C71.8594 39.24 71.6754 39.668 71.3874 40.028C71.1074 40.38 70.7514 40.656 70.3194 40.856C69.8954 41.048 69.4274 41.144 68.9154 41.144ZM76.3601 41.144C75.6801 41.144 75.0921 41.008 74.5961 40.736C74.1001 40.456 73.7201 40.06 73.4561 39.548C73.1921 39.028 73.0601 38.408 73.0601 37.688C73.0601 36.968 73.1921 36.352 73.4561 35.84C73.7281 35.328 74.1121 34.936 74.6081 34.664C75.1121 34.392 75.7121 34.256 76.4081 34.256C77.4721 34.256 78.2641 34.552 78.7841 35.144C79.3041 35.728 79.5321 36.532 79.4681 37.556H74.0201L74.0321 36.644L78.2321 36.656C78.2001 36.232 78.0161 35.892 77.6801 35.636C77.3441 35.38 76.9201 35.252 76.4081 35.252C75.7201 35.252 75.1921 35.468 74.8241 35.9C74.4561 36.332 74.2721 36.944 74.2721 37.736C74.2721 38.208 74.3521 38.628 74.5121 38.996C74.6801 39.356 74.9201 39.636 75.2321 39.836C75.5441 40.036 75.9201 40.136 76.3601 40.136C76.8801 40.136 77.3121 40.012 77.6561 39.764C78.0081 39.516 78.2241 39.18 78.3041 38.756H79.5161C79.4121 39.5 79.0801 40.084 78.5201 40.508C77.9601 40.932 77.2401 41.144 76.3601 41.144ZM83.5048 34.256C83.9608 34.256 84.3768 34.348 84.7528 34.532C85.1288 34.708 85.4328 34.956 85.6648 35.276V32.18H86.8648V41H85.7248L85.6888 40.076C85.4568 40.396 85.1488 40.656 84.7648 40.856C84.3888 41.048 83.9688 41.144 83.5048 41.144C82.9208 41.144 82.4048 40.996 81.9568 40.7C81.5088 40.404 81.1568 39.996 80.9008 39.476C80.6528 38.956 80.5288 38.364 80.5288 37.7C80.5288 37.028 80.6528 36.432 80.9008 35.912C81.1568 35.392 81.5088 34.988 81.9568 34.7C82.4048 34.404 82.9208 34.256 83.5048 34.256ZM83.7688 40.124C84.2008 40.124 84.5848 40.004 84.9208 39.764C85.2568 39.516 85.5048 39.184 85.6648 38.768V36.62C85.5048 36.196 85.2568 35.868 84.9208 35.636C84.5848 35.396 84.2008 35.276 83.7688 35.276C83.3688 35.276 83.0168 35.38 82.7128 35.588C82.4088 35.788 82.1688 36.072 81.9928 36.44C81.8248 36.8 81.7408 37.22 81.7408 37.7C81.7408 38.172 81.8248 38.592 81.9928 38.96C82.1688 39.32 82.4088 39.604 82.7128 39.812C83.0168 40.02 83.3688 40.124 83.7688 40.124ZM98.4422 41V34.4H99.6542V41H98.4422ZM96.0062 41V40.016H101.922V41H96.0062ZM96.8822 35.384V34.4H99.0422V35.384H96.8822ZM98.3582 33.272V31.964H99.7142V33.272H98.3582ZM108.323 41V36.836C108.323 36.372 108.191 36 107.927 35.72C107.663 35.432 107.319 35.288 106.895 35.288C106.407 35.288 105.971 35.468 105.587 35.828C105.211 36.18 104.911 36.732 104.687 37.484L104.495 36.128C104.743 35.504 105.099 35.036 105.563 34.724C106.035 34.412 106.547 34.256 107.099 34.256C107.595 34.256 108.023 34.364 108.383 34.58C108.751 34.788 109.035 35.08 109.235 35.456C109.435 35.832 109.535 36.276 109.535 36.788V41H108.323ZM103.619 41V34.4H104.771L104.831 35.888V41H103.619ZM114.652 41C114.244 41 113.896 40.92 113.608 40.76C113.32 40.592 113.104 40.356 112.96 40.052C112.816 39.748 112.744 39.392 112.744 38.984V33.152L113.956 32.492V38.984C113.956 39.176 113.984 39.352 114.04 39.512C114.096 39.672 114.204 39.796 114.364 39.884C114.532 39.972 114.776 40.016 115.096 40.016H117.076V41H114.652ZM111.184 35.384V34.4H116.02V35.384H111.184ZM123.404 41L123.356 39.5V36.68C123.356 36.208 123.2 35.84 122.888 35.576C122.584 35.304 122.164 35.168 121.628 35.168C121.108 35.168 120.684 35.288 120.356 35.528C120.028 35.76 119.848 36.084 119.816 36.5H118.628C118.668 36.028 118.82 35.628 119.084 35.3C119.348 34.964 119.7 34.708 120.14 34.532C120.58 34.348 121.088 34.256 121.664 34.256C122.256 34.256 122.768 34.356 123.2 34.556C123.632 34.748 123.964 35.028 124.196 35.396C124.436 35.764 124.556 36.212 124.556 36.74V41H123.404ZM121.016 41.144C120.584 41.144 120.204 41.068 119.876 40.916C119.548 40.756 119.292 40.532 119.108 40.244C118.924 39.948 118.832 39.604 118.832 39.212C118.832 38.532 119.092 38.004 119.612 37.628C120.14 37.252 120.876 37.064 121.82 37.064H123.512V37.964H121.772C121.228 37.964 120.8 38.068 120.488 38.276C120.184 38.484 120.032 38.776 120.032 39.152C120.032 39.464 120.14 39.708 120.356 39.884C120.58 40.06 120.88 40.148 121.256 40.148C121.736 40.148 122.16 40.02 122.528 39.764C122.904 39.5 123.208 39.14 123.44 38.684L123.572 39.572C123.364 40.076 123.044 40.464 122.612 40.736C122.18 41.008 121.648 41.144 121.016 41.144ZM126.157 41V32.18H127.369V35.48L127.309 37.292L128.581 36.008L130.381 34.4H131.989L127.369 38.6V41H126.157ZM130.705 41L128.389 36.956L129.457 36.428L132.121 41H130.705ZM136.878 41.144C136.198 41.144 135.61 41.008 135.114 40.736C134.618 40.456 134.238 40.06 133.974 39.548C133.71 39.028 133.578 38.408 133.578 37.688C133.578 36.968 133.71 36.352 133.974 35.84C134.246 35.328 134.63 34.936 135.126 34.664C135.63 34.392 136.23 34.256 136.926 34.256C137.99 34.256 138.782 34.552 139.302 35.144C139.822 35.728 140.05 36.532 139.986 37.556H134.538L134.55 36.644L138.75 36.656C138.718 36.232 138.534 35.892 138.198 35.636C137.862 35.38 137.438 35.252 136.926 35.252C136.238 35.252 135.71 35.468 135.342 35.9C134.974 36.332 134.79 36.944 134.79 37.736C134.79 38.208 134.87 38.628 135.03 38.996C135.198 39.356 135.438 39.636 135.75 39.836C136.062 40.036 136.438 40.136 136.878 40.136C137.398 40.136 137.83 40.012 138.174 39.764C138.526 39.516 138.742 39.18 138.822 38.756H140.034C139.93 39.5 139.598 40.084 139.038 40.508C138.478 40.932 137.758 41.144 136.878 41.144ZM152.115 41.144C151.531 41.144 151.015 41.044 150.567 40.844C150.127 40.636 149.787 40.348 149.547 39.98C149.307 39.604 149.183 39.156 149.175 38.636H150.315C150.315 39.124 150.479 39.508 150.807 39.788C151.135 40.068 151.567 40.208 152.103 40.208C152.559 40.208 152.923 40.124 153.195 39.956C153.475 39.78 153.615 39.544 153.615 39.248C153.615 39.016 153.535 38.832 153.375 38.696C153.223 38.552 153.019 38.44 152.763 38.36C152.507 38.28 152.223 38.212 151.911 38.156C151.607 38.092 151.299 38.02 150.987 37.94C150.683 37.852 150.403 37.744 150.147 37.616C149.891 37.48 149.683 37.3 149.523 37.076C149.363 36.852 149.283 36.56 149.283 36.2C149.283 35.824 149.391 35.492 149.607 35.204C149.823 34.908 150.127 34.676 150.519 34.508C150.919 34.34 151.391 34.256 151.935 34.256C152.759 34.256 153.419 34.448 153.915 34.832C154.419 35.208 154.691 35.728 154.731 36.392H153.591C153.567 36.008 153.407 35.712 153.111 35.504C152.823 35.288 152.431 35.18 151.935 35.18C151.471 35.18 151.115 35.272 150.867 35.456C150.627 35.64 150.507 35.872 150.507 36.152C150.507 36.368 150.587 36.54 150.747 36.668C150.907 36.788 151.115 36.884 151.371 36.956C151.627 37.02 151.907 37.08 152.211 37.136C152.523 37.184 152.831 37.248 153.135 37.328C153.447 37.408 153.731 37.52 153.987 37.664C154.243 37.8 154.447 37.988 154.599 38.228C154.759 38.468 154.839 38.78 154.839 39.164C154.839 39.78 154.591 40.264 154.095 40.616C153.599 40.968 152.939 41.144 152.115 41.144ZM159.572 41.144C158.892 41.144 158.304 41.008 157.808 40.736C157.312 40.456 156.932 40.06 156.668 39.548C156.404 39.028 156.272 38.408 156.272 37.688C156.272 36.968 156.404 36.352 156.668 35.84C156.94 35.328 157.324 34.936 157.82 34.664C158.324 34.392 158.924 34.256 159.62 34.256C160.684 34.256 161.476 34.552 161.996 35.144C162.516 35.728 162.744 36.532 162.68 37.556H157.232L157.244 36.644L161.444 36.656C161.412 36.232 161.228 35.892 160.892 35.636C160.556 35.38 160.132 35.252 159.62 35.252C158.932 35.252 158.404 35.468 158.036 35.9C157.668 36.332 157.484 36.944 157.484 37.736C157.484 38.208 157.564 38.628 157.724 38.996C157.892 39.356 158.132 39.636 158.444 39.836C158.756 40.036 159.132 40.136 159.572 40.136C160.092 40.136 160.524 40.012 160.868 39.764C161.22 39.516 161.436 39.18 161.516 38.756H162.728C162.624 39.5 162.292 40.084 161.732 40.508C161.172 40.932 160.452 41.144 159.572 41.144ZM167.604 41C167.196 41 166.848 40.92 166.56 40.76C166.272 40.592 166.056 40.356 165.912 40.052C165.768 39.748 165.696 39.392 165.696 38.984V33.152L166.908 32.492V38.984C166.908 39.176 166.936 39.352 166.992 39.512C167.048 39.672 167.156 39.796 167.316 39.884C167.484 39.972 167.728 40.016 168.048 40.016H170.028V41H167.604ZM164.136 35.384V34.4H168.972V35.384H164.136ZM175.169 41C174.761 41 174.413 40.92 174.125 40.76C173.837 40.592 173.621 40.356 173.477 40.052C173.333 39.748 173.261 39.392 173.261 38.984V33.152L174.473 32.492V38.984C174.473 39.176 174.501 39.352 174.557 39.512C174.613 39.672 174.721 39.796 174.881 39.884C175.049 39.972 175.293 40.016 175.613 40.016H177.593V41H175.169ZM171.701 35.384V34.4H176.537V35.384H171.701ZM181.654 41V34.4H182.866V41H181.654ZM179.218 41V40.016H185.134V41H179.218ZM180.094 35.384V34.4H182.254V35.384H180.094ZM181.57 33.272V31.964H182.926V33.272H181.57ZM191.534 41V36.836C191.534 36.372 191.402 36 191.138 35.72C190.874 35.432 190.53 35.288 190.106 35.288C189.618 35.288 189.182 35.468 188.798 35.828C188.422 36.18 188.122 36.732 187.898 37.484L187.706 36.128C187.954 35.504 188.31 35.036 188.774 34.724C189.246 34.412 189.758 34.256 190.31 34.256C190.806 34.256 191.234 34.364 191.594 34.58C191.962 34.788 192.246 35.08 192.446 35.456C192.646 35.832 192.746 36.276 192.746 36.788V41H191.534ZM186.83 41V34.4H187.982L188.042 35.888V41H186.83ZM199.159 35.348L199.195 34.4H200.335V40.28C200.335 41.256 200.071 42 199.543 42.512C199.023 43.024 198.235 43.28 197.179 43.28C196.595 43.28 196.087 43.2 195.655 43.04C195.231 42.88 194.895 42.64 194.647 42.32C194.407 42.008 194.271 41.616 194.239 41.144H195.499C195.539 41.504 195.699 41.78 195.979 41.972C196.267 42.172 196.687 42.272 197.239 42.272C197.863 42.272 198.331 42.112 198.643 41.792C198.963 41.472 199.123 41.016 199.123 40.424V39.548C198.899 39.884 198.599 40.148 198.223 40.34C197.855 40.532 197.443 40.628 196.987 40.628C196.419 40.628 195.915 40.492 195.475 40.22C195.043 39.948 194.703 39.572 194.455 39.092C194.207 38.604 194.083 38.056 194.083 37.448C194.083 36.792 194.211 36.228 194.467 35.756C194.723 35.276 195.075 34.908 195.523 34.652C195.971 34.388 196.479 34.256 197.047 34.256C197.503 34.256 197.915 34.356 198.283 34.556C198.651 34.756 198.943 35.02 199.159 35.348ZM197.251 39.68C197.683 39.68 198.067 39.556 198.403 39.308C198.747 39.052 198.987 38.708 199.123 38.276V36.608C198.987 36.176 198.747 35.836 198.403 35.588C198.067 35.332 197.683 35.204 197.251 35.204C196.859 35.204 196.515 35.3 196.219 35.492C195.931 35.684 195.703 35.948 195.535 36.284C195.375 36.612 195.295 36.996 195.295 37.436C195.295 37.868 195.375 38.256 195.535 38.6C195.703 38.936 195.931 39.2 196.219 39.392C196.515 39.584 196.859 39.68 197.251 39.68ZM205.068 41.144C204.484 41.144 203.968 41.044 203.52 40.844C203.08 40.636 202.74 40.348 202.5 39.98C202.26 39.604 202.136 39.156 202.128 38.636H203.268C203.268 39.124 203.432 39.508 203.76 39.788C204.088 40.068 204.52 40.208 205.056 40.208C205.512 40.208 205.876 40.124 206.148 39.956C206.428 39.78 206.568 39.544 206.568 39.248C206.568 39.016 206.488 38.832 206.328 38.696C206.176 38.552 205.972 38.44 205.716 38.36C205.46 38.28 205.176 38.212 204.864 38.156C204.56 38.092 204.252 38.02 203.94 37.94C203.636 37.852 203.356 37.744 203.1 37.616C202.844 37.48 202.636 37.3 202.476 37.076C202.316 36.852 202.236 36.56 202.236 36.2C202.236 35.824 202.344 35.492 202.56 35.204C202.776 34.908 203.08 34.676 203.472 34.508C203.872 34.34 204.344 34.256 204.888 34.256C205.712 34.256 206.372 34.448 206.868 34.832C207.372 35.208 207.644 35.728 207.684 36.392H206.544C206.52 36.008 206.36 35.712 206.064 35.504C205.776 35.288 205.384 35.18 204.888 35.18C204.424 35.18 204.068 35.272 203.82 35.456C203.58 35.64 203.46 35.872 203.46 36.152C203.46 36.368 203.54 36.54 203.7 36.668C203.86 36.788 204.068 36.884 204.324 36.956C204.58 37.02 204.86 37.08 205.164 37.136C205.476 37.184 205.784 37.248 206.088 37.328C206.4 37.408 206.684 37.52 206.94 37.664C207.196 37.8 207.4 37.988 207.552 38.228C207.712 38.468 207.792 38.78 207.792 39.164C207.792 39.78 207.544 40.264 207.048 40.616C206.552 40.968 205.892 41.144 205.068 41.144Z" fill="#222222"/>
<path d="M282.4 43.3078L281.692 42.6001L287.292 37.0001L281.692 31.4001L282.4 30.6924L288 36.2924L293.6 30.6924L294.308 31.4001L288.708 37.0001L294.308 42.6001L293.6 43.3078L288 37.7078L282.4 43.3078Z" fill="#222222"/>
<rect width="305" height="167" transform="translate(11 65)" fill="#FCFCFC"/>
<path d="M133.698 149.43V148.17H136.246C136.871 148.17 137.375 147.997 137.758 147.652C138.141 147.307 138.332 146.854 138.332 146.294C138.332 145.753 138.155 145.319 137.8 144.992C137.445 144.656 136.974 144.488 136.386 144.488H133.698V143.228H136.386C137.095 143.228 137.711 143.354 138.234 143.606C138.757 143.858 139.163 144.213 139.452 144.67C139.741 145.127 139.886 145.669 139.886 146.294C139.886 146.919 139.737 147.47 139.438 147.946C139.139 148.413 138.715 148.777 138.164 149.038C137.623 149.299 136.988 149.43 136.26 149.43H133.698ZM132.634 153V143.228H134.118V153H132.634ZM147.255 148.604V147.68C147.255 147.279 147.134 146.957 146.891 146.714C146.649 146.462 146.299 146.336 145.841 146.336C145.263 146.336 144.745 146.555 144.287 146.994C143.83 147.423 143.466 148.081 143.195 148.968L142.999 147.54C143.205 147.008 143.452 146.565 143.741 146.21C144.04 145.855 144.381 145.589 144.763 145.412C145.155 145.225 145.585 145.132 146.051 145.132C146.826 145.132 147.456 145.356 147.941 145.804C148.427 146.243 148.669 146.868 148.669 147.68V148.604H147.255ZM142.047 153V145.3H143.377L143.461 147.05V153H142.047ZM154.345 153.168C153.552 153.168 152.866 153.009 152.287 152.692C151.708 152.365 151.265 151.903 150.957 151.306C150.649 150.699 150.495 149.976 150.495 149.136C150.495 148.296 150.649 147.577 150.957 146.98C151.274 146.383 151.722 145.925 152.301 145.608C152.889 145.291 153.589 145.132 154.401 145.132C155.642 145.132 156.566 145.477 157.173 146.168C157.78 146.849 158.046 147.787 157.971 148.982H151.615L151.629 147.918L156.529 147.932C156.492 147.437 156.277 147.041 155.885 146.742C155.493 146.443 154.998 146.294 154.401 146.294C153.598 146.294 152.982 146.546 152.553 147.05C152.124 147.554 151.909 148.268 151.909 149.192C151.909 149.743 152.002 150.233 152.189 150.662C152.385 151.082 152.665 151.409 153.029 151.642C153.393 151.875 153.832 151.992 154.345 151.992C154.952 151.992 155.456 151.847 155.857 151.558C156.268 151.269 156.52 150.877 156.613 150.382H158.027C157.906 151.25 157.518 151.931 156.865 152.426C156.212 152.921 155.372 153.168 154.345 153.168ZM162.568 153L159.558 145.3H161.056L162.834 149.934L163.38 151.698L163.94 149.934L165.718 145.3H167.16L164.164 153H162.568ZM171.842 153V145.3H173.256V153H171.842ZM169 153V151.852H175.902V153H169ZM170.022 146.448V145.3H172.542V146.448H170.022ZM171.744 143.984V142.458H173.326V143.984H171.744ZM181.661 153.168C180.868 153.168 180.182 153.009 179.603 152.692C179.025 152.365 178.581 151.903 178.273 151.306C177.965 150.699 177.811 149.976 177.811 149.136C177.811 148.296 177.965 147.577 178.273 146.98C178.591 146.383 179.039 145.925 179.617 145.608C180.205 145.291 180.905 145.132 181.717 145.132C182.959 145.132 183.883 145.477 184.489 146.168C185.096 146.849 185.362 147.787 185.287 148.982H178.931L178.945 147.918L183.845 147.932C183.808 147.437 183.593 147.041 183.201 146.742C182.809 146.443 182.315 146.294 181.717 146.294C180.915 146.294 180.299 146.546 179.869 147.05C179.44 147.554 179.225 148.268 179.225 149.192C179.225 149.743 179.319 150.233 179.505 150.662C179.701 151.082 179.981 151.409 180.345 151.642C180.709 151.875 181.148 151.992 181.661 151.992C182.268 151.992 182.772 151.847 183.173 151.558C183.584 151.269 183.836 150.877 183.929 150.382H185.343C185.222 151.25 184.835 151.931 184.181 152.426C183.528 152.921 182.688 153.168 181.661 153.168ZM187.701 153L186.427 145.272H187.743L188.415 149.64L188.695 151.516L189.087 149.64L190.067 145.272H191.341L192.363 149.64L192.755 151.53L193.021 149.64L193.693 145.272H194.967L193.693 153H192.027L191.019 148.772L190.697 146.686L190.375 148.772L189.367 153H187.701Z" fill="#808080"/>
<mask id="path-4-inside-1_3769_48378" fill="white">
<path d="M11 232H316V278H11V232Z"/>
</mask>
<path d="M316 277H11V279H316V277Z" fill="#E6E6E6" mask="url(#path-4-inside-1_3769_48378)"/>
<path d="M32.796 254.62C33.108 254.724 33.372 254.864 33.588 255.04C33.812 255.216 33.98 255.436 34.092 255.7C34.212 255.956 34.272 256.252 34.272 256.588C34.272 257.076 34.148 257.504 33.9 257.872C33.652 258.232 33.3 258.512 32.844 258.712C32.388 258.904 31.856 259 31.248 259H27.852V250.624H31.128C32.064 250.624 32.788 250.824 33.3 251.224C33.82 251.616 34.08 252.132 34.08 252.772C34.08 253.068 34.024 253.336 33.912 253.576C33.808 253.808 33.66 254.012 33.468 254.188C33.284 254.364 33.06 254.508 32.796 254.62ZM31.032 252.064H29.592V254.044H31.032C31.408 254.044 31.708 253.952 31.932 253.768C32.164 253.576 32.28 253.332 32.28 253.036C32.28 252.74 32.164 252.504 31.932 252.328C31.7 252.152 31.4 252.064 31.032 252.064ZM29.592 257.56H31.2C31.584 257.56 31.892 257.468 32.124 257.284C32.356 257.092 32.472 256.84 32.472 256.528C32.472 256.2 32.356 255.944 32.124 255.76C31.892 255.576 31.568 255.484 31.152 255.484H29.592V257.56ZM40.1447 259L40.0847 257.704V254.572C40.0847 254.204 39.9567 253.916 39.7007 253.708C39.4447 253.5 39.0927 253.396 38.6447 253.396C38.2047 253.396 37.8487 253.492 37.5767 253.684C37.3047 253.868 37.1487 254.128 37.1087 254.464H35.5127C35.5527 253.992 35.7087 253.588 35.9807 253.252C36.2607 252.916 36.6327 252.66 37.0967 252.484C37.5607 252.3 38.0967 252.208 38.7047 252.208C39.3207 252.208 39.8527 252.304 40.3007 252.496C40.7567 252.688 41.1087 252.968 41.3567 253.336C41.6047 253.696 41.7287 254.14 41.7287 254.668V259H40.1447ZM37.9247 259.144C37.4847 259.144 37.0967 259.06 36.7607 258.892C36.4327 258.724 36.1767 258.492 35.9927 258.196C35.8087 257.9 35.7167 257.556 35.7167 257.164C35.7167 256.484 35.9807 255.956 36.5087 255.58C37.0367 255.196 37.7727 255.004 38.7167 255.004H40.2647V256.168H38.6687C38.2527 256.168 37.9247 256.244 37.6847 256.396C37.4447 256.548 37.3247 256.772 37.3247 257.068C37.3247 257.284 37.4127 257.468 37.5887 257.62C37.7647 257.764 38.0047 257.836 38.3087 257.836C38.7167 257.836 39.0807 257.728 39.4007 257.512C39.7207 257.296 39.9847 257.004 40.1927 256.636L40.3727 257.776C40.1647 258.232 39.8527 258.576 39.4367 258.808C39.0207 259.032 38.5167 259.144 37.9247 259.144ZM46.6774 259.144C46.0694 259.144 45.5334 259.044 45.0694 258.844C44.6054 258.636 44.2454 258.344 43.9894 257.968C43.7414 257.592 43.6134 257.144 43.6054 256.624H45.1414C45.1334 257.032 45.2654 257.352 45.5374 257.584C45.8174 257.816 46.1934 257.932 46.6654 257.932C47.0334 257.932 47.3294 257.868 47.5534 257.74C47.7774 257.612 47.8894 257.432 47.8894 257.2C47.8894 257.008 47.8134 256.856 47.6614 256.744C47.5094 256.632 47.3094 256.544 47.0614 256.48C46.8214 256.408 46.5534 256.344 46.2574 256.288C45.9614 256.224 45.6654 256.152 45.3694 256.072C45.0734 255.984 44.8014 255.868 44.5534 255.724C44.3054 255.58 44.1054 255.392 43.9534 255.16C43.8014 254.92 43.7254 254.616 43.7254 254.248C43.7254 253.84 43.8414 253.484 44.0734 253.18C44.3054 252.876 44.6294 252.64 45.0454 252.472C45.4694 252.296 45.9574 252.208 46.5094 252.208C47.3574 252.208 48.0414 252.404 48.5614 252.796C49.0814 253.188 49.3654 253.732 49.4134 254.428H47.8894C47.8654 254.1 47.7294 253.852 47.4814 253.684C47.2414 253.508 46.9214 253.42 46.5214 253.42C46.1694 253.42 45.8934 253.488 45.6934 253.624C45.4934 253.752 45.3934 253.932 45.3934 254.164C45.3934 254.348 45.4694 254.492 45.6214 254.596C45.7734 254.692 45.9694 254.772 46.2094 254.836C46.4574 254.9 46.7294 254.956 47.0254 255.004C47.3294 255.052 47.6254 255.12 47.9134 255.208C48.2094 255.288 48.4774 255.4 48.7174 255.544C48.9654 255.68 49.1654 255.868 49.3174 256.108C49.4694 256.348 49.5454 256.656 49.5454 257.032C49.5454 257.696 49.2854 258.216 48.7654 258.592C48.2454 258.96 47.5494 259.144 46.6774 259.144ZM53.5101 259V252.352H55.1541V259H53.5101ZM51.2541 259V257.668H57.3741V259H51.2541ZM52.1061 253.684V252.352H54.3381V253.684H52.1061ZM53.4381 251.38V249.784H55.2141V251.38H53.4381ZM62.2508 259.144C61.5548 259.144 60.9508 259.004 60.4388 258.724C59.9348 258.444 59.5468 258.044 59.2748 257.524C59.0108 257.004 58.8788 256.388 58.8788 255.676C58.8788 254.948 59.0188 254.328 59.2988 253.816C59.5868 253.296 59.9828 252.9 60.4868 252.628C60.9988 252.348 61.5988 252.208 62.2868 252.208C62.8708 252.208 63.3908 252.316 63.8468 252.532C64.3028 252.74 64.6668 253.032 64.9388 253.408C65.2108 253.784 65.3628 254.232 65.3948 254.752H63.7388C63.6748 254.36 63.5148 254.064 63.2588 253.864C63.0108 253.664 62.6868 253.564 62.2868 253.564C61.9428 253.564 61.6348 253.648 61.3628 253.816C61.0988 253.976 60.8948 254.212 60.7508 254.524C60.6068 254.836 60.5348 255.22 60.5348 255.676C60.5348 256.348 60.6948 256.872 61.0148 257.248C61.3428 257.624 61.7548 257.812 62.2508 257.812C62.5068 257.812 62.7388 257.764 62.9468 257.668C63.1548 257.572 63.3308 257.436 63.4748 257.26C63.6188 257.076 63.7188 256.868 63.7748 256.636H65.4308C65.3748 257.148 65.2028 257.592 64.9148 257.968C64.6268 258.336 64.2508 258.624 63.7868 258.832C63.3308 259.04 62.8188 259.144 62.2508 259.144Z" fill="#222222"/>
<path d="M95.02 259.144C94.372 259.144 93.808 259.02 93.328 258.772C92.848 258.524 92.476 258.168 92.212 257.704C91.948 257.24 91.816 256.676 91.816 256.012H93.076C93.076 256.668 93.248 257.176 93.592 257.536C93.936 257.888 94.408 258.064 95.008 258.064C95.52 258.064 95.932 257.948 96.244 257.716C96.556 257.476 96.712 257.144 96.712 256.72C96.712 256.432 96.624 256.2 96.448 256.024C96.28 255.848 96.052 255.704 95.764 255.592C95.484 255.48 95.176 255.38 94.84 255.292C94.504 255.204 94.164 255.108 93.82 255.004C93.484 254.892 93.172 254.752 92.884 254.584C92.604 254.416 92.376 254.192 92.2 253.912C92.032 253.632 91.948 253.276 91.948 252.844C91.948 252.388 92.068 251.984 92.308 251.632C92.556 251.272 92.896 250.992 93.328 250.792C93.768 250.584 94.284 250.48 94.876 250.48C95.452 250.48 95.968 250.588 96.424 250.804C96.88 251.012 97.244 251.312 97.516 251.704C97.796 252.088 97.94 252.552 97.948 253.096H96.676C96.668 252.776 96.58 252.504 96.412 252.28C96.252 252.048 96.036 251.872 95.764 251.752C95.5 251.624 95.204 251.56 94.876 251.56C94.404 251.56 94.02 251.672 93.724 251.896C93.428 252.12 93.28 252.424 93.28 252.808C93.28 253.08 93.364 253.296 93.532 253.456C93.708 253.616 93.936 253.748 94.216 253.852C94.504 253.948 94.816 254.04 95.152 254.128C95.496 254.208 95.836 254.304 96.172 254.416C96.508 254.52 96.816 254.664 97.096 254.848C97.384 255.024 97.612 255.264 97.78 255.568C97.956 255.864 98.044 256.244 98.044 256.708C98.044 257.204 97.912 257.636 97.648 258.004C97.384 258.364 97.024 258.644 96.568 258.844C96.112 259.044 95.596 259.144 95.02 259.144ZM102.849 252.256C103.441 252.256 103.957 252.404 104.397 252.7C104.845 252.988 105.197 253.392 105.453 253.912C105.709 254.432 105.837 255.028 105.837 255.7C105.837 256.364 105.709 256.956 105.453 257.476C105.197 257.996 104.845 258.404 104.397 258.7C103.957 258.996 103.441 259.144 102.849 259.144C102.401 259.144 101.989 259.052 101.613 258.868C101.245 258.684 100.941 258.432 100.701 258.112V261.136H99.4887V252.4H100.641L100.677 253.3C100.917 252.98 101.225 252.728 101.601 252.544C101.977 252.352 102.393 252.256 102.849 252.256ZM102.585 258.124C102.993 258.124 103.349 258.02 103.653 257.812C103.957 257.604 104.193 257.32 104.361 256.96C104.529 256.592 104.613 256.172 104.613 255.7C104.613 255.22 104.529 254.8 104.361 254.44C104.193 254.072 103.957 253.788 103.653 253.588C103.349 253.38 102.993 253.276 102.585 253.276C102.169 253.276 101.789 253.396 101.445 253.636C101.109 253.868 100.861 254.188 100.701 254.596V256.78C100.861 257.196 101.109 257.524 101.445 257.764C101.789 258.004 102.169 258.124 102.585 258.124ZM111.757 259L111.709 257.5V254.68C111.709 254.208 111.553 253.84 111.241 253.576C110.937 253.304 110.517 253.168 109.981 253.168C109.461 253.168 109.037 253.288 108.709 253.528C108.381 253.76 108.201 254.084 108.169 254.5H106.981C107.021 254.028 107.173 253.628 107.437 253.3C107.701 252.964 108.053 252.708 108.493 252.532C108.933 252.348 109.441 252.256 110.017 252.256C110.609 252.256 111.121 252.356 111.553 252.556C111.985 252.748 112.317 253.028 112.549 253.396C112.789 253.764 112.909 254.212 112.909 254.74V259H111.757ZM109.369 259.144C108.937 259.144 108.557 259.068 108.229 258.916C107.901 258.756 107.645 258.532 107.461 258.244C107.277 257.948 107.185 257.604 107.185 257.212C107.185 256.532 107.445 256.004 107.965 255.628C108.493 255.252 109.229 255.064 110.173 255.064H111.865V255.964H110.125C109.581 255.964 109.153 256.068 108.841 256.276C108.537 256.484 108.385 256.776 108.385 257.152C108.385 257.464 108.493 257.708 108.709 257.884C108.933 258.06 109.233 258.148 109.609 258.148C110.089 258.148 110.513 258.02 110.881 257.764C111.257 257.5 111.561 257.14 111.793 256.684L111.925 257.572C111.717 258.076 111.397 258.464 110.965 258.736C110.533 259.008 110.001 259.144 109.369 259.144ZM117.786 259.144C117.106 259.144 116.514 259.004 116.01 258.724C115.514 258.436 115.13 258.036 114.858 257.524C114.586 257.004 114.45 256.396 114.45 255.7C114.45 254.988 114.59 254.376 114.87 253.864C115.15 253.344 115.542 252.948 116.046 252.676C116.55 252.396 117.138 252.256 117.81 252.256C118.346 252.256 118.826 252.356 119.25 252.556C119.682 252.748 120.03 253.024 120.294 253.384C120.566 253.744 120.722 254.172 120.762 254.668H119.55C119.486 254.22 119.294 253.876 118.974 253.636C118.662 253.388 118.274 253.264 117.81 253.264C117.378 253.264 117.002 253.364 116.682 253.564C116.362 253.756 116.114 254.032 115.938 254.392C115.762 254.752 115.674 255.188 115.674 255.7C115.674 256.46 115.866 257.056 116.25 257.488C116.642 257.92 117.154 258.136 117.786 258.136C118.074 258.136 118.342 258.08 118.59 257.968C118.838 257.856 119.05 257.696 119.226 257.488C119.402 257.272 119.522 257.024 119.586 256.744H120.81C120.73 257.24 120.546 257.668 120.258 258.028C119.978 258.38 119.622 258.656 119.19 258.856C118.766 259.048 118.298 259.144 117.786 259.144ZM124.619 259V252.4H125.831V259H124.619ZM122.183 259V258.016H128.099V259H122.183ZM123.059 253.384V252.4H125.219V253.384H123.059ZM124.535 251.272V249.964H125.891V251.272H124.535ZM134.499 259V254.836C134.499 254.372 134.367 254 134.103 253.72C133.839 253.432 133.495 253.288 133.071 253.288C132.583 253.288 132.147 253.468 131.763 253.828C131.387 254.18 131.087 254.732 130.863 255.484L130.671 254.128C130.919 253.504 131.275 253.036 131.739 252.724C132.211 252.412 132.723 252.256 133.275 252.256C133.771 252.256 134.199 252.364 134.559 252.58C134.927 252.788 135.211 253.08 135.411 253.456C135.611 253.832 135.711 254.276 135.711 254.788V259H134.499ZM129.795 259V252.4H130.947L131.007 253.888V259H129.795ZM142.124 253.348L142.16 252.4H143.3V258.28C143.3 259.256 143.036 260 142.508 260.512C141.988 261.024 141.2 261.28 140.144 261.28C139.56 261.28 139.052 261.2 138.62 261.04C138.196 260.88 137.86 260.64 137.612 260.32C137.372 260.008 137.236 259.616 137.204 259.144H138.464C138.504 259.504 138.664 259.78 138.944 259.972C139.232 260.172 139.652 260.272 140.204 260.272C140.828 260.272 141.296 260.112 141.608 259.792C141.928 259.472 142.088 259.016 142.088 258.424V257.548C141.864 257.884 141.564 258.148 141.188 258.34C140.82 258.532 140.408 258.628 139.952 258.628C139.384 258.628 138.88 258.492 138.44 258.22C138.008 257.948 137.668 257.572 137.42 257.092C137.172 256.604 137.048 256.056 137.048 255.448C137.048 254.792 137.176 254.228 137.432 253.756C137.688 253.276 138.04 252.908 138.488 252.652C138.936 252.388 139.444 252.256 140.012 252.256C140.468 252.256 140.88 252.356 141.248 252.556C141.616 252.756 141.908 253.02 142.124 253.348ZM140.216 257.68C140.648 257.68 141.032 257.556 141.368 257.308C141.712 257.052 141.952 256.708 142.088 256.276V254.608C141.952 254.176 141.712 253.836 141.368 253.588C141.032 253.332 140.648 253.204 140.216 253.204C139.824 253.204 139.48 253.3 139.184 253.492C138.896 253.684 138.668 253.948 138.5 254.284C138.34 254.612 138.26 254.996 138.26 255.436C138.26 255.868 138.34 256.256 138.5 256.6C138.668 256.936 138.896 257.2 139.184 257.392C139.48 257.584 139.824 257.68 140.216 257.68Z" fill="#808080"/>
<path d="M30.125 310H27.8807V302.727H30.2244C30.9299 302.727 31.5336 302.873 32.0355 303.164C32.5374 303.453 32.9221 303.868 33.1896 304.411C33.4571 304.95 33.5909 305.597 33.5909 306.349C33.5909 307.107 33.456 307.759 33.1861 308.306C32.9162 308.851 32.5232 309.27 32.0071 309.563C31.491 309.854 30.8636 310 30.125 310ZM28.7614 309.219H30.0682C30.6695 309.219 31.1679 309.103 31.5632 308.871C31.9586 308.639 32.2533 308.308 32.4474 307.88C32.6416 307.451 32.7386 306.941 32.7386 306.349C32.7386 305.762 32.6428 305.257 32.451 304.833C32.2592 304.407 31.9728 304.08 31.5916 303.853C31.2105 303.623 30.7358 303.509 30.1676 303.509H28.7614V309.219ZM34.9545 310V304.545H35.7926V310H34.9545ZM35.3807 303.636C35.2173 303.636 35.0765 303.581 34.9581 303.469C34.8421 303.358 34.7841 303.224 34.7841 303.068C34.7841 302.912 34.8421 302.778 34.9581 302.667C35.0765 302.556 35.2173 302.5 35.3807 302.5C35.544 302.5 35.6837 302.556 35.7997 302.667C35.9181 302.778 35.9773 302.912 35.9773 303.068C35.9773 303.224 35.9181 303.358 35.7997 303.469C35.6837 303.581 35.544 303.636 35.3807 303.636ZM37.3276 310V304.545H38.1373V305.369H38.1941C38.2935 305.099 38.4734 304.88 38.7338 304.712C38.9943 304.544 39.2878 304.46 39.6145 304.46C39.6761 304.46 39.753 304.461 39.8453 304.464C39.9377 304.466 40.0075 304.47 40.0549 304.474V305.327C40.0265 305.32 39.9614 305.309 39.8596 305.295C39.7601 305.278 39.6548 305.27 39.5435 305.27C39.2784 305.27 39.0416 305.326 38.8333 305.437C38.6273 305.546 38.464 305.697 38.3432 305.891C38.2248 306.083 38.1657 306.302 38.1657 306.548V310H37.3276ZM43.1692 310.114C42.6436 310.114 42.1903 309.998 41.8091 309.766C41.4303 309.531 41.138 309.205 40.932 308.786C40.7284 308.364 40.6266 307.874 40.6266 307.315C40.6266 306.757 40.7284 306.264 40.932 305.838C41.138 305.41 41.4244 305.076 41.7914 304.837C42.1607 304.595 42.5916 304.474 43.084 304.474C43.3681 304.474 43.6486 304.522 43.9256 304.616C44.2026 304.711 44.4547 304.865 44.682 305.078C44.9093 305.289 45.0904 305.568 45.2253 305.916C45.3603 306.264 45.4277 306.693 45.4277 307.202V307.557H41.2232V306.832H44.5755C44.5755 306.525 44.5139 306.25 44.3908 306.009C44.2701 305.767 44.0972 305.576 43.8723 305.437C43.6498 305.297 43.387 305.227 43.084 305.227C42.7502 305.227 42.4614 305.31 42.2175 305.476C41.976 305.639 41.7902 305.852 41.66 306.115C41.5298 306.378 41.4647 306.66 41.4647 306.96V307.443C41.4647 307.855 41.5357 308.204 41.6777 308.491C41.8221 308.775 42.0222 308.991 42.2779 309.141C42.5336 309.287 42.8307 309.361 43.1692 309.361C43.3894 309.361 43.5882 309.33 43.7658 309.268C43.9457 309.205 44.1008 309.11 44.231 308.984C44.3612 308.857 44.4618 308.698 44.5328 308.509L45.3425 308.736C45.2573 309.01 45.1141 309.252 44.9128 309.46C44.7116 309.666 44.463 309.827 44.1671 309.943C43.8712 310.057 43.5385 310.114 43.1692 310.114ZM48.9185 310.114C48.4071 310.114 47.9668 309.993 47.5975 309.751C47.2282 309.51 46.9441 309.177 46.7452 308.754C46.5463 308.33 46.4469 307.846 46.4469 307.301C46.4469 306.747 46.5487 306.258 46.7523 305.835C46.9583 305.408 47.2447 305.076 47.6117 304.837C47.981 304.595 48.4119 304.474 48.9043 304.474C49.2878 304.474 49.6335 304.545 49.9412 304.688C50.249 304.83 50.5011 305.028 50.6976 305.284C50.8941 305.54 51.016 305.838 51.0634 306.179H50.2253C50.1614 305.93 50.0194 305.71 49.7992 305.518C49.5814 305.324 49.2878 305.227 48.9185 305.227C48.5918 305.227 48.3053 305.312 48.0591 305.483C47.8153 305.651 47.6247 305.889 47.4874 306.197C47.3525 306.502 47.285 306.861 47.285 307.273C47.285 307.694 47.3513 308.061 47.4838 308.374C47.6188 308.686 47.8082 308.929 48.052 309.102C48.2982 309.274 48.5871 309.361 48.9185 309.361C49.1363 309.361 49.334 309.323 49.5115 309.247C49.6891 309.171 49.8394 309.062 49.9625 308.92C50.0856 308.778 50.1732 308.608 50.2253 308.409H51.0634C51.016 308.731 50.8989 309.021 50.7118 309.279C50.5272 309.535 50.2821 309.738 49.9767 309.89C49.6737 310.039 49.321 310.114 48.9185 310.114ZM54.6607 304.545V305.256H51.834V304.545H54.6607ZM52.6578 303.239H53.4959V308.438C53.4959 308.674 53.5302 308.852 53.5989 308.97C53.6699 309.086 53.7599 309.164 53.8688 309.205C53.9801 309.242 54.0972 309.261 54.2203 309.261C54.3127 309.261 54.3884 309.257 54.4476 309.247C54.5068 309.235 54.5542 309.226 54.5897 309.219L54.7601 309.972C54.7033 309.993 54.624 310.014 54.5222 310.036C54.4204 310.059 54.2914 310.071 54.1351 310.071C53.8984 310.071 53.6664 310.02 53.4391 309.918C53.2142 309.817 53.0272 309.661 52.878 309.453C52.7312 309.245 52.6578 308.982 52.6578 308.665V303.239ZM55.9213 310V304.545H56.7594V310H55.9213ZM56.3475 303.636C56.1841 303.636 56.0433 303.581 55.9249 303.469C55.8089 303.358 55.7509 303.224 55.7509 303.068C55.7509 302.912 55.8089 302.778 55.9249 302.667C56.0433 302.556 56.1841 302.5 56.3475 302.5C56.5108 302.5 56.6505 302.556 56.7665 302.667C56.8849 302.778 56.9441 302.912 56.9441 303.068C56.9441 303.224 56.8849 303.358 56.7665 303.469C56.6505 303.581 56.5108 303.636 56.3475 303.636ZM60.5103 310.114C60.0179 310.114 59.5858 309.996 59.2141 309.762C58.8448 309.528 58.556 309.2 58.3477 308.778C58.1417 308.357 58.0387 307.865 58.0387 307.301C58.0387 306.733 58.1417 306.237 58.3477 305.813C58.556 305.389 58.8448 305.06 59.2141 304.826C59.5858 304.592 60.0179 304.474 60.5103 304.474C61.0027 304.474 61.4336 304.592 61.8029 304.826C62.1746 305.06 62.4634 305.389 62.6694 305.813C62.8777 306.237 62.9819 306.733 62.9819 307.301C62.9819 307.865 62.8777 308.357 62.6694 308.778C62.4634 309.2 62.1746 309.528 61.8029 309.762C61.4336 309.996 61.0027 310.114 60.5103 310.114ZM60.5103 309.361C60.8844 309.361 61.1921 309.265 61.4336 309.073C61.6751 308.881 61.8538 308.629 61.9698 308.317C62.0858 308.004 62.1438 307.666 62.1438 307.301C62.1438 306.937 62.0858 306.597 61.9698 306.282C61.8538 305.967 61.6751 305.713 61.4336 305.518C61.1921 305.324 60.8844 305.227 60.5103 305.227C60.1362 305.227 59.8285 305.324 59.587 305.518C59.3455 305.713 59.1668 305.967 59.0508 306.282C58.9348 306.597 58.8768 306.937 58.8768 307.301C58.8768 307.666 58.9348 308.004 59.0508 308.317C59.1668 308.629 59.3455 308.881 59.587 309.073C59.8285 309.265 60.1362 309.361 60.5103 309.361ZM65.0993 306.719V310H64.2612V304.545H65.0708V305.398H65.1419C65.2697 305.121 65.4638 304.898 65.7243 304.73C65.9847 304.56 66.3208 304.474 66.7328 304.474C67.1021 304.474 67.4252 304.55 67.7022 304.702C67.9792 304.851 68.1947 305.078 68.3485 305.384C68.5024 305.687 68.5794 306.07 68.5794 306.534V310H67.7413V306.591C67.7413 306.162 67.63 305.829 67.4075 305.589C67.185 305.348 66.8796 305.227 66.4913 305.227C66.2238 305.227 65.9847 305.285 65.774 305.401C65.5656 305.517 65.4011 305.687 65.2804 305.909C65.1596 306.132 65.0993 306.402 65.0993 306.719Z" fill="#222222"/>
<path d="M238.875 305.625H245.525L242.469 302.55L243 302.034L246.966 306L243 309.966L242.469 309.45L245.525 306.375H238.875V305.625Z" fill="#808080"/>
<path d="M223.125 306.375H216.475L219.531 309.45L219 309.966L215.034 306L219 302.034L219.531 302.55L216.475 305.625H223.125V306.375Z" fill="#808080"/>
<path d="M266.625 310.125V303.475L263.55 306.531L263.034 306L267 302.034L270.966 306L270.45 306.531L267.375 303.475V310.125H266.625Z" fill="#808080"/>
<path d="M291 310.125L287.034 306.159L287.55 305.628L290.625 308.684V302.034H291.375V308.684L294.45 305.628L294.966 306.159L291 310.125Z" fill="#808080"/>
<path d="M28.179 344H27.2557L29.9261 336.727H30.8352L33.5057 344H32.5824L30.4091 337.878H30.3523L28.179 344ZM28.5199 341.159H32.2415V341.94H28.5199V341.159ZM35.3629 336.727V344H34.5249V336.727H35.3629ZM36.8979 344V338.545H37.736V344H36.8979ZM37.324 337.636C37.1607 337.636 37.0198 337.581 36.9015 337.469C36.7855 337.358 36.7275 337.224 36.7275 337.068C36.7275 336.912 36.7855 336.778 36.9015 336.667C37.0198 336.556 37.1607 336.5 37.324 336.5C37.4874 336.5 37.6271 336.556 37.7431 336.667C37.8614 336.778 37.9206 336.912 37.9206 337.068C37.9206 337.224 37.8614 337.358 37.7431 337.469C37.6271 337.581 37.4874 337.636 37.324 337.636ZM41.4727 346.159C41.0678 346.159 40.7198 346.107 40.4286 346.003C40.1374 345.901 39.8948 345.766 39.7006 345.598C39.5089 345.432 39.3562 345.255 39.2425 345.065L39.9102 344.597C39.9859 344.696 40.0818 344.81 40.1978 344.938C40.3138 345.068 40.4724 345.18 40.6737 345.275C40.8772 345.372 41.1436 345.42 41.4727 345.42C41.913 345.42 42.2764 345.314 42.5629 345.101C42.8493 344.888 42.9925 344.554 42.9925 344.099V342.991H42.9215C42.86 343.091 42.7724 343.214 42.6587 343.361C42.5475 343.505 42.3865 343.634 42.1758 343.748C41.9674 343.859 41.6857 343.915 41.3306 343.915C40.8903 343.915 40.4949 343.811 40.1445 343.602C39.7965 343.394 39.5207 343.091 39.3171 342.693C39.1159 342.295 39.0153 341.812 39.0153 341.244C39.0153 340.686 39.1135 340.199 39.31 339.785C39.5065 339.368 39.7799 339.046 40.1303 338.819C40.4807 338.589 40.8855 338.474 41.3448 338.474C41.6999 338.474 41.9817 338.534 42.19 338.652C42.4007 338.768 42.5617 338.901 42.6729 339.05C42.7866 339.196 42.8742 339.317 42.9357 339.412H43.021V338.545H43.8306V344.156C43.8306 344.625 43.7241 345.006 43.511 345.3C43.3003 345.596 43.0162 345.812 42.6587 345.95C42.3036 346.089 41.9083 346.159 41.4727 346.159ZM41.4442 343.162C41.7804 343.162 42.0645 343.085 42.2965 342.931C42.5285 342.777 42.7049 342.556 42.8256 342.267C42.9464 341.978 43.0067 341.633 43.0067 341.23C43.0067 340.837 42.9476 340.49 42.8292 340.19C42.7108 339.889 42.5356 339.653 42.3036 339.483C42.0716 339.312 41.7852 339.227 41.4442 339.227C41.0891 339.227 40.7932 339.317 40.5565 339.497C40.3221 339.677 40.1457 339.919 40.0273 340.222C39.9113 340.525 39.8533 340.861 39.8533 341.23C39.8533 341.609 39.9125 341.944 40.0309 342.235C40.1516 342.524 40.3292 342.751 40.5636 342.917C40.8003 343.08 41.0939 343.162 41.4442 343.162ZM46.2028 340.719V344H45.3647V338.545H46.1744V339.398H46.2454C46.3732 339.121 46.5674 338.898 46.8278 338.73C47.0882 338.56 47.4244 338.474 47.8363 338.474C48.2056 338.474 48.5288 338.55 48.8058 338.702C49.0827 338.851 49.2982 339.078 49.4521 339.384C49.6059 339.687 49.6829 340.07 49.6829 340.534V344H48.8448V340.591C48.8448 340.162 48.7335 339.829 48.511 339.589C48.2885 339.348 47.9831 339.227 47.5948 339.227C47.3273 339.227 47.0882 339.285 46.8775 339.401C46.6692 339.517 46.5046 339.687 46.3839 339.909C46.2631 340.132 46.2028 340.402 46.2028 340.719ZM51.2143 344V338.545H52.024V339.398H52.095C52.2086 339.107 52.3921 338.88 52.6454 338.719C52.8987 338.556 53.2029 338.474 53.5581 338.474C53.9179 338.474 54.2174 338.556 54.4565 338.719C54.698 338.88 54.8862 339.107 55.0211 339.398H55.0779C55.2176 339.116 55.4271 338.892 55.7065 338.727C55.9859 338.558 56.3208 338.474 56.7115 338.474C57.1992 338.474 57.5981 338.627 57.9082 338.933C58.2183 339.236 58.3734 339.708 58.3734 340.349V344H57.5353V340.349C57.5353 339.947 57.4252 339.659 57.2051 339.487C56.9849 339.314 56.7257 339.227 56.4274 339.227C56.0439 339.227 55.7467 339.343 55.536 339.575C55.3253 339.805 55.22 340.096 55.22 340.449V344H54.3677V340.264C54.3677 339.954 54.2671 339.704 54.0659 339.515C53.8646 339.323 53.6054 339.227 53.2882 339.227C53.0704 339.227 52.8668 339.285 52.6774 339.401C52.4904 339.517 52.3388 339.678 52.2228 339.884C52.1092 340.088 52.0524 340.323 52.0524 340.591V344H51.2143ZM62.1926 344.114C61.6671 344.114 61.2137 343.998 60.8326 343.766C60.4538 343.531 60.1614 343.205 59.9554 342.786C59.7518 342.364 59.65 341.874 59.65 341.315C59.65 340.757 59.7518 340.264 59.9554 339.838C60.1614 339.41 60.4479 339.076 60.8148 338.837C61.1841 338.595 61.615 338.474 62.1074 338.474C62.3915 338.474 62.6721 338.522 62.949 338.616C63.226 338.711 63.4782 338.865 63.7054 339.078C63.9327 339.289 64.1138 339.568 64.2488 339.916C64.3837 340.264 64.4512 340.693 64.4512 341.202V341.557H60.2466V340.832H63.5989C63.5989 340.525 63.5373 340.25 63.4142 340.009C63.2935 339.767 63.1207 339.576 62.8958 339.437C62.6732 339.297 62.4105 339.227 62.1074 339.227C61.7736 339.227 61.4848 339.31 61.2409 339.476C60.9995 339.639 60.8136 339.852 60.6834 340.115C60.5532 340.378 60.4881 340.66 60.4881 340.96V341.443C60.4881 341.855 60.5591 342.204 60.7012 342.491C60.8456 342.775 61.0456 342.991 61.3013 343.141C61.557 343.287 61.8541 343.361 62.1926 343.361C62.4128 343.361 62.6117 343.33 62.7892 343.268C62.9692 343.205 63.1242 343.11 63.2544 342.984C63.3846 342.857 63.4853 342.698 63.5563 342.509L64.3659 342.736C64.2807 343.01 64.1375 343.252 63.9363 343.46C63.735 343.666 63.4864 343.827 63.1905 343.943C62.8946 344.057 62.562 344.114 62.1926 344.114ZM66.5641 340.719V344H65.726V338.545H66.5357V339.398H66.6067C66.7346 339.121 66.9287 338.898 67.1891 338.73C67.4495 338.56 67.7857 338.474 68.1976 338.474C68.5669 338.474 68.8901 338.55 69.1671 338.702C69.4441 338.851 69.6595 339.078 69.8134 339.384C69.9673 339.687 70.0442 340.07 70.0442 340.534V344H69.2061V340.591C69.2061 340.162 69.0949 339.829 68.8723 339.589C68.6498 339.348 68.3444 339.227 67.9561 339.227C67.6886 339.227 67.4495 339.285 67.2388 339.401C67.0305 339.517 66.8659 339.687 66.7452 339.909C66.6245 340.132 66.5641 340.402 66.5641 340.719ZM73.9478 338.545V339.256H71.1211V338.545H73.9478ZM71.945 337.239H72.783V342.438C72.783 342.674 72.8174 342.852 72.886 342.97C72.957 343.086 73.047 343.164 73.1559 343.205C73.2672 343.242 73.3844 343.261 73.5075 343.261C73.5998 343.261 73.6755 343.257 73.7347 343.247C73.7939 343.235 73.8413 343.226 73.8768 343.219L74.0472 343.972C73.9904 343.993 73.9111 344.014 73.8093 344.036C73.7075 344.059 73.5785 344.071 73.4222 344.071C73.1855 344.071 72.9535 344.02 72.7262 343.918C72.5013 343.817 72.3143 343.661 72.1651 343.453C72.0183 343.245 71.945 342.982 71.945 342.665V337.239Z" fill="#222222"/>
<path d="M239.769 346.375V336.293H241.298V346.375H239.769ZM244.702 341.875V336.293H246.231V341.875H244.702ZM236.25 334.361V333.611H249.75V334.361H236.25Z" fill="#808080"/>
<path d="M263.697 346V340.375H260.25V339.625H263.697V334H265.226V339.625H268.774V336.25H270.303V339.625H273.75V340.375H270.303V343.75H268.774V340.375H265.226V346H263.697Z" fill="#808080"/>
<path d="M284.25 346.375V345.625H297.75V346.375H284.25ZM287.769 343.692V333.611H289.298V343.692H287.769ZM292.702 343.692V338.111H294.231V343.692H292.702Z" fill="#808080"/>
<path d="M27.8807 377.5V370.227H30.3381C30.9086 370.227 31.375 370.33 31.7372 370.536C32.1018 370.74 32.3717 371.016 32.5469 371.364C32.7221 371.712 32.8097 372.1 32.8097 372.528C32.8097 372.957 32.7221 373.346 32.5469 373.697C32.3741 374.047 32.1065 374.326 31.7443 374.535C31.3821 374.741 30.9181 374.844 30.3523 374.844H28.5909V374.062H30.3239C30.7145 374.062 31.0282 373.995 31.2649 373.86C31.5017 373.725 31.6733 373.543 31.7798 373.313C31.8887 373.081 31.9432 372.82 31.9432 372.528C31.9432 372.237 31.8887 371.977 31.7798 371.747C31.6733 371.518 31.5005 371.338 31.2614 371.207C31.0223 371.075 30.705 371.009 30.3097 371.009H28.7614V377.5H27.8807ZM35.7198 377.628C35.3742 377.628 35.0605 377.563 34.7788 377.433C34.497 377.3 34.2733 377.109 34.1076 376.861C33.9419 376.61 33.859 376.307 33.859 375.952C33.859 375.639 33.9206 375.386 34.0437 375.192C34.1668 374.995 34.3313 374.841 34.5373 374.73C34.7433 374.619 34.9705 374.536 35.2191 374.482C35.4701 374.425 35.7222 374.38 35.9755 374.347C36.3069 374.304 36.5756 374.272 36.7816 374.251C36.9899 374.227 37.1415 374.188 37.2362 374.134C37.3332 374.079 37.3817 373.984 37.3817 373.849V373.821C37.3817 373.471 37.2859 373.198 37.0941 373.004C36.9047 372.81 36.6171 372.713 36.2312 372.713C35.8311 372.713 35.5174 372.801 35.2901 372.976C35.0629 373.151 34.9031 373.338 34.8107 373.537L34.0153 373.253C34.1573 372.921 34.3467 372.663 34.5835 372.479C34.8226 372.292 35.083 372.161 35.3647 372.088C35.6488 372.012 35.9281 371.974 36.2028 371.974C36.378 371.974 36.5792 371.996 36.8065 372.038C37.0361 372.079 37.2575 372.163 37.4705 372.29C37.686 372.418 37.8647 372.611 38.0067 372.869C38.1488 373.127 38.2198 373.473 38.2198 373.906V377.5H37.3817V376.761H37.3391C37.2823 376.88 37.1876 377.006 37.055 377.141C36.9225 377.276 36.7461 377.391 36.5259 377.486C36.3058 377.58 36.0371 377.628 35.7198 377.628ZM35.8477 376.875C36.1791 376.875 36.4585 376.81 36.6857 376.68C36.9154 376.549 37.0882 376.381 37.2042 376.175C37.3226 375.969 37.3817 375.753 37.3817 375.526V374.759C37.3462 374.801 37.2681 374.84 37.1474 374.876C37.029 374.909 36.8917 374.938 36.7354 374.964C36.5816 374.988 36.4312 375.009 36.2844 375.028C36.14 375.045 36.0228 375.059 35.9329 375.071C35.7151 375.099 35.5115 375.146 35.3221 375.21C35.1351 375.271 34.9835 375.365 34.8675 375.49C34.7539 375.613 34.6971 375.781 34.6971 375.994C34.6971 376.286 34.8048 376.506 35.0202 376.655C35.238 376.802 35.5138 376.875 35.8477 376.875ZM39.7495 377.5V372.045H40.5591V372.869H40.6159C40.7154 372.599 40.8953 372.38 41.1557 372.212C41.4161 372.044 41.7097 371.96 42.0364 371.96C42.098 371.96 42.1749 371.961 42.2672 371.964C42.3596 371.966 42.4294 371.97 42.4767 371.974V372.827C42.4483 372.82 42.3832 372.809 42.2814 372.795C42.182 372.778 42.0766 372.77 41.9654 372.77C41.7002 372.77 41.4635 372.826 41.2551 372.937C41.0492 373.046 40.8858 373.197 40.7651 373.391C40.6467 373.583 40.5875 373.802 40.5875 374.048V377.5H39.7495ZM44.2514 375.511L44.2372 374.474H44.4077L46.794 372.045H47.831L45.2884 374.616H45.2173L44.2514 375.511ZM43.4702 377.5V370.227H44.3082V377.5H43.4702ZM46.9361 377.5L44.8054 374.801L45.402 374.219L48.0014 377.5H46.9361ZM48.9096 377.5V372.045H49.7477V377.5H48.9096ZM49.3358 371.136C49.1724 371.136 49.0315 371.081 48.9132 370.969C48.7972 370.858 48.7392 370.724 48.7392 370.568C48.7392 370.412 48.7972 370.278 48.9132 370.167C49.0315 370.056 49.1724 370 49.3358 370C49.4991 370 49.6388 370.056 49.7548 370.167C49.8732 370.278 49.9324 370.412 49.9324 370.568C49.9324 370.724 49.8732 370.858 49.7548 370.969C49.6388 371.081 49.4991 371.136 49.3358 371.136ZM52.1207 374.219V377.5H51.2827V372.045H52.0923V372.898H52.1634C52.2912 372.621 52.4853 372.398 52.7457 372.23C53.0062 372.06 53.3423 371.974 53.7543 371.974C54.1236 371.974 54.4467 372.05 54.7237 372.202C55.0007 372.351 55.2161 372.578 55.37 372.884C55.5239 373.187 55.6009 373.57 55.6009 374.034V377.5H54.7628V374.091C54.7628 373.662 54.6515 373.329 54.429 373.089C54.2064 372.848 53.901 372.727 53.5128 372.727C53.2453 372.727 53.0062 372.785 52.7955 372.901C52.5871 373.017 52.4226 373.187 52.3018 373.409C52.1811 373.632 52.1207 373.902 52.1207 374.219ZM59.334 379.659C58.9292 379.659 58.5811 379.607 58.29 379.503C57.9988 379.401 57.7561 379.266 57.562 379.098C57.3702 378.932 57.2175 378.755 57.1039 378.565L57.7715 378.097C57.8472 378.196 57.9431 378.31 58.0591 378.438C58.1751 378.568 58.3337 378.68 58.535 378.775C58.7386 378.872 59.0049 378.92 59.334 378.92C59.7743 378.92 60.1377 378.814 60.4242 378.601C60.7106 378.388 60.8539 378.054 60.8539 377.599V376.491H60.7828C60.7213 376.591 60.6337 376.714 60.5201 376.861C60.4088 377.005 60.2478 377.134 60.0371 377.248C59.8288 377.359 59.5471 377.415 59.1919 377.415C58.7516 377.415 58.3562 377.311 58.0059 377.102C57.6578 376.894 57.382 376.591 57.1784 376.193C56.9772 375.795 56.8766 375.312 56.8766 374.744C56.8766 374.186 56.9748 373.699 57.1713 373.285C57.3678 372.868 57.6413 372.546 57.9917 372.319C58.342 372.089 58.7469 371.974 59.2061 371.974C59.5613 371.974 59.843 372.034 60.0513 372.152C60.262 372.268 60.423 372.401 60.5343 372.55C60.6479 372.696 60.7355 372.817 60.7971 372.912H60.8823V372.045H61.6919V377.656C61.6919 378.125 61.5854 378.506 61.3723 378.8C61.1616 379.096 60.8775 379.312 60.5201 379.45C60.165 379.589 59.7696 379.659 59.334 379.659ZM59.3056 376.662C59.6417 376.662 59.9258 376.585 60.1578 376.431C60.3899 376.277 60.5662 376.056 60.687 375.767C60.8077 375.478 60.8681 375.133 60.8681 374.73C60.8681 374.337 60.8089 373.99 60.6905 373.69C60.5721 373.389 60.397 373.153 60.165 372.983C59.9329 372.812 59.6465 372.727 59.3056 372.727C58.9505 372.727 58.6545 372.817 58.4178 372.997C58.1834 373.177 58.007 373.419 57.8887 373.722C57.7727 374.025 57.7147 374.361 57.7147 374.73C57.7147 375.109 57.7739 375.444 57.8922 375.735C58.013 376.024 58.1905 376.251 58.4249 376.417C58.6616 376.58 58.9552 376.662 59.3056 376.662ZM68.0982 377.614C67.6436 377.614 67.2424 377.499 66.8944 377.269C66.5463 377.037 66.2741 376.71 66.0776 376.289C65.8811 375.865 65.7828 375.365 65.7828 374.787C65.7828 374.214 65.8811 373.717 66.0776 373.295C66.2741 372.874 66.5475 372.549 66.8979 372.319C67.2483 372.089 67.6531 371.974 68.1124 371.974C68.4675 371.974 68.748 372.034 68.954 372.152C69.1623 372.268 69.321 372.401 69.4299 372.55C69.5411 372.696 69.6275 372.817 69.6891 372.912H69.7601V370.227H70.5982V377.5H69.7885V376.662H69.6891C69.6275 376.761 69.54 376.887 69.4263 377.038C69.3127 377.187 69.1505 377.321 68.9398 377.44C68.7291 377.556 68.4486 377.614 68.0982 377.614ZM68.2118 376.861C68.548 376.861 68.8321 376.773 69.0641 376.598C69.2961 376.42 69.4725 376.175 69.5932 375.863C69.714 375.548 69.7743 375.185 69.7743 374.773C69.7743 374.366 69.7151 374.009 69.5968 373.704C69.4784 373.396 69.3032 373.157 69.0712 372.987C68.8392 372.814 68.5527 372.727 68.2118 372.727C67.8567 372.727 67.5608 372.818 67.324 373.001C67.0897 373.181 66.9133 373.426 66.7949 373.736C66.6789 374.044 66.6209 374.389 66.6209 374.773C66.6209 375.161 66.6801 375.514 66.7985 375.831C66.9192 376.146 67.0968 376.397 67.3311 376.584C67.5679 376.768 67.8614 376.861 68.2118 376.861ZM72.2495 377.5V372.045H73.0875V377.5H72.2495ZM72.6756 371.136C72.5123 371.136 72.3714 371.081 72.253 370.969C72.137 370.858 72.079 370.724 72.079 370.568C72.079 370.412 72.137 370.278 72.253 370.167C72.3714 370.056 72.5123 370 72.6756 370C72.839 370 72.9786 370.056 73.0946 370.167C73.213 370.278 73.2722 370.412 73.2722 370.568C73.2722 370.724 73.213 370.858 73.0946 370.969C72.9786 371.081 72.839 371.136 72.6756 371.136ZM74.6225 377.5V372.045H75.4322V372.869H75.489C75.5884 372.599 75.7683 372.38 76.0288 372.212C76.2892 372.044 76.5827 371.96 76.9094 371.96C76.971 371.96 77.0479 371.961 77.1403 371.964C77.2326 371.966 77.3024 371.97 77.3498 371.974V372.827C77.3214 372.82 77.2563 372.809 77.1545 372.795C77.055 372.778 76.9497 372.77 76.8384 372.77C76.5733 372.77 76.3365 372.826 76.1282 372.937C75.9222 373.046 75.7589 373.197 75.6381 373.391C75.5198 373.583 75.4606 373.802 75.4606 374.048V377.5H74.6225ZM80.4641 377.614C79.9386 377.614 79.4852 377.498 79.104 377.266C78.7253 377.031 78.4329 376.705 78.2269 376.286C78.0233 375.864 77.9215 375.374 77.9215 374.815C77.9215 374.257 78.0233 373.764 78.2269 373.338C78.4329 372.91 78.7193 372.576 79.0863 372.337C79.4556 372.095 79.8865 371.974 80.3789 371.974C80.663 371.974 80.9435 372.022 81.2205 372.116C81.4975 372.211 81.7496 372.365 81.9769 372.578C82.2042 372.789 82.3853 373.068 82.5202 373.416C82.6552 373.764 82.7227 374.193 82.7227 374.702V375.057H78.5181V374.332H81.8704C81.8704 374.025 81.8088 373.75 81.6857 373.509C81.565 373.267 81.3922 373.076 81.1673 372.937C80.9447 372.797 80.6819 372.727 80.3789 372.727C80.0451 372.727 79.7563 372.81 79.5124 372.976C79.271 373.139 79.0851 373.352 78.9549 373.615C78.8247 373.878 78.7596 374.16 78.7596 374.46V374.943C78.7596 375.355 78.8306 375.704 78.9727 375.991C79.1171 376.275 79.3171 376.491 79.5728 376.641C79.8285 376.787 80.1256 376.861 80.4641 376.861C80.6843 376.861 80.8832 376.83 81.0607 376.768C81.2406 376.705 81.3957 376.61 81.5259 376.484C81.6561 376.357 81.7567 376.198 81.8278 376.009L82.6374 376.236C82.5522 376.51 82.409 376.752 82.2077 376.96C82.0065 377.166 81.7579 377.327 81.462 377.443C81.1661 377.557 80.8335 377.614 80.4641 377.614ZM86.2134 377.614C85.7021 377.614 85.2617 377.493 84.8924 377.251C84.5231 377.01 84.239 376.677 84.0401 376.254C83.8413 375.83 83.7418 375.346 83.7418 374.801C83.7418 374.247 83.8436 373.758 84.0472 373.335C84.2532 372.908 84.5397 372.576 84.9066 372.337C85.2759 372.095 85.7068 371.974 86.1992 371.974C86.5827 371.974 86.9284 372.045 87.2362 372.188C87.5439 372.33 87.796 372.528 87.9925 372.784C88.189 373.04 88.311 373.338 88.3583 373.679H87.5202C87.4563 373.43 87.3143 373.21 87.0941 373.018C86.8763 372.824 86.5827 372.727 86.2134 372.727C85.8867 372.727 85.6003 372.812 85.354 372.983C85.1102 373.151 84.9196 373.389 84.7823 373.697C84.6474 374.002 84.5799 374.361 84.5799 374.773C84.5799 375.194 84.6462 375.561 84.7788 375.874C84.9137 376.186 85.1031 376.429 85.3469 376.602C85.5932 376.774 85.882 376.861 86.2134 376.861C86.4312 376.861 86.6289 376.823 86.8065 376.747C86.984 376.671 87.1344 376.562 87.2575 376.42C87.3806 376.278 87.4682 376.108 87.5202 375.909H88.3583C88.311 376.231 88.1938 376.521 88.0067 376.779C87.8221 377.035 87.5771 377.238 87.2717 377.39C86.9686 377.539 86.6159 377.614 86.2134 377.614ZM91.9556 372.045V372.756H89.1289V372.045H91.9556ZM89.9528 370.739H90.7908V375.938C90.7908 376.174 90.8252 376.352 90.8938 376.47C90.9648 376.586 91.0548 376.664 91.1637 376.705C91.275 376.742 91.3922 376.761 91.5153 376.761C91.6076 376.761 91.6834 376.757 91.7425 376.747C91.8017 376.735 91.8491 376.726 91.8846 376.719L92.055 377.472C91.9982 377.493 91.9189 377.514 91.8171 377.536C91.7153 377.559 91.5863 377.571 91.43 377.571C91.1933 377.571 90.9613 377.52 90.734 377.418C90.5091 377.317 90.3221 377.161 90.1729 376.953C90.0262 376.745 89.9528 376.482 89.9528 376.165V370.739ZM93.2163 377.5V372.045H94.0543V377.5H93.2163ZM93.6424 371.136C93.479 371.136 93.3382 371.081 93.2198 370.969C93.1038 370.858 93.0458 370.724 93.0458 370.568C93.0458 370.412 93.1038 370.278 93.2198 370.167C93.3382 370.056 93.479 370 93.6424 370C93.8058 370 93.9454 370.056 94.0614 370.167C94.1798 370.278 94.239 370.412 94.239 370.568C94.239 370.724 94.1798 370.858 94.0614 370.969C93.9454 371.081 93.8058 371.136 93.6424 371.136ZM97.8052 377.614C97.3128 377.614 96.8807 377.496 96.5091 377.262C96.1397 377.028 95.8509 376.7 95.6426 376.278C95.4366 375.857 95.3336 375.365 95.3336 374.801C95.3336 374.233 95.4366 373.737 95.6426 373.313C95.8509 372.889 96.1397 372.56 96.5091 372.326C96.8807 372.092 97.3128 371.974 97.8052 371.974C98.2976 371.974 98.7285 372.092 99.0978 372.326C99.4695 372.56 99.7583 372.889 99.9643 373.313C100.173 373.737 100.277 374.233 100.277 374.801C100.277 375.365 100.173 375.857 99.9643 376.278C99.7583 376.7 99.4695 377.028 99.0978 377.262C98.7285 377.496 98.2976 377.614 97.8052 377.614ZM97.8052 376.861C98.1793 376.861 98.487 376.765 98.7285 376.573C98.97 376.381 99.1487 376.129 99.2647 375.817C99.3807 375.504 99.4387 375.166 99.4387 374.801C99.4387 374.437 99.3807 374.097 99.2647 373.782C99.1487 373.467 98.97 373.213 98.7285 373.018C98.487 372.824 98.1793 372.727 97.8052 372.727C97.4312 372.727 97.1234 372.824 96.8819 373.018C96.6404 373.213 96.4617 373.467 96.3457 373.782C96.2297 374.097 96.1717 374.437 96.1717 374.801C96.1717 375.166 96.2297 375.504 96.3457 375.817C96.4617 376.129 96.6404 376.381 96.8819 376.573C97.1234 376.765 97.4312 376.861 97.8052 376.861ZM102.394 374.219V377.5H101.556V372.045H102.366V372.898H102.437C102.565 372.621 102.759 372.398 103.019 372.23C103.28 372.06 103.616 371.974 104.028 371.974C104.397 371.974 104.72 372.05 104.997 372.202C105.274 372.351 105.49 372.578 105.643 372.884C105.797 373.187 105.874 373.57 105.874 374.034V377.5H105.036V374.091C105.036 373.662 104.925 373.329 104.702 373.089C104.48 372.848 104.174 372.727 103.786 372.727C103.519 372.727 103.28 372.785 103.069 372.901C102.861 373.017 102.696 373.187 102.575 373.409C102.455 373.632 102.394 373.902 102.394 374.219Z" fill="#222222"/>
<path d="M234.63 374.34C234.883 374.413 235.107 374.523 235.3 374.67C235.5 374.817 235.657 375.007 235.77 375.24C235.89 375.467 235.95 375.733 235.95 376.04C235.95 376.433 235.85 376.777 235.65 377.07C235.457 377.363 235.18 377.593 234.82 377.76C234.46 377.92 234.033 378 233.54 378H230.84V371.02H233.44C234.173 371.02 234.747 371.18 235.16 371.5C235.573 371.82 235.78 372.24 235.78 372.76C235.78 373.007 235.733 373.237 235.64 373.45C235.553 373.663 235.423 373.847 235.25 374C235.077 374.153 234.87 374.267 234.63 374.34ZM233.39 371.92H231.9V373.98H233.39C233.783 373.98 234.093 373.883 234.32 373.69C234.553 373.497 234.67 373.24 234.67 372.92C234.67 372.607 234.553 372.363 234.32 372.19C234.087 372.01 233.777 371.92 233.39 371.92ZM231.9 377.1H233.52C233.927 377.1 234.247 377 234.48 376.8C234.72 376.6 234.84 376.33 234.84 375.99C234.84 375.637 234.713 375.363 234.46 375.17C234.213 374.977 233.867 374.88 233.42 374.88H231.9V377.1ZM241.194 378L241.154 376.75V374.4C241.154 374.007 241.024 373.7 240.764 373.48C240.511 373.253 240.161 373.14 239.714 373.14C239.281 373.14 238.927 373.24 238.654 373.44C238.381 373.633 238.231 373.903 238.204 374.25H237.214C237.247 373.857 237.374 373.523 237.594 373.25C237.814 372.97 238.107 372.757 238.474 372.61C238.841 372.457 239.264 372.38 239.744 372.38C240.237 372.38 240.664 372.463 241.024 372.63C241.384 372.79 241.661 373.023 241.854 373.33C242.054 373.637 242.154 374.01 242.154 374.45V378H241.194ZM239.204 378.12C238.844 378.12 238.527 378.057 238.254 377.93C237.981 377.797 237.767 377.61 237.614 377.37C237.461 377.123 237.384 376.837 237.384 376.51C237.384 375.943 237.601 375.503 238.034 375.19C238.474 374.877 239.087 374.72 239.874 374.72H241.284V375.47H239.834C239.381 375.47 239.024 375.557 238.764 375.73C238.511 375.903 238.384 376.147 238.384 376.46C238.384 376.72 238.474 376.923 238.654 377.07C238.841 377.217 239.091 377.29 239.404 377.29C239.804 377.29 240.157 377.183 240.464 376.97C240.777 376.75 241.031 376.45 241.224 376.07L241.334 376.81C241.161 377.23 240.894 377.553 240.534 377.78C240.174 378.007 239.731 378.12 239.204 378.12ZM246.418 378.12C245.851 378.12 245.358 378.003 244.938 377.77C244.524 377.53 244.204 377.197 243.978 376.77C243.751 376.337 243.638 375.83 243.638 375.25C243.638 374.657 243.754 374.147 243.988 373.72C244.221 373.287 244.548 372.957 244.968 372.73C245.388 372.497 245.878 372.38 246.438 372.38C246.884 372.38 247.284 372.463 247.638 372.63C247.998 372.79 248.288 373.02 248.508 373.32C248.734 373.62 248.864 373.977 248.898 374.39H247.888C247.834 374.017 247.674 373.73 247.408 373.53C247.148 373.323 246.824 373.22 246.438 373.22C246.078 373.22 245.764 373.303 245.498 373.47C245.231 373.63 245.024 373.86 244.878 374.16C244.731 374.46 244.658 374.823 244.658 375.25C244.658 375.883 244.818 376.38 245.138 376.74C245.464 377.1 245.891 377.28 246.418 377.28C246.658 377.28 246.881 377.233 247.088 377.14C247.294 377.047 247.471 376.913 247.618 376.74C247.764 376.56 247.864 376.353 247.918 376.12H248.938C248.871 376.533 248.718 376.89 248.478 377.19C248.244 377.483 247.948 377.713 247.588 377.88C247.234 378.04 246.844 378.12 246.418 378.12ZM250.192 378V370.65H251.202V373.4L251.152 374.91L252.212 373.84L253.712 372.5H255.052L251.202 376V378H250.192ZM253.982 378L252.052 374.63L252.942 374.19L255.162 378H253.982ZM257.136 378L256.226 372.48H257.166L257.646 375.6L257.846 376.94L258.126 375.6L258.826 372.48H259.736L260.466 375.6L260.746 376.95L260.936 375.6L261.416 372.48H262.326L261.416 378H260.226L259.506 374.98L259.276 373.49L259.046 374.98L258.326 378H257.136ZM267.21 378L267.17 376.75V374.4C267.17 374.007 267.04 373.7 266.78 373.48C266.526 373.253 266.176 373.14 265.73 373.14C265.296 373.14 264.943 373.24 264.67 373.44C264.396 373.633 264.246 373.903 264.22 374.25H263.23C263.263 373.857 263.39 373.523 263.61 373.25C263.83 372.97 264.123 372.757 264.49 372.61C264.856 372.457 265.28 372.38 265.76 372.38C266.253 372.38 266.68 372.463 267.04 372.63C267.4 372.79 267.676 373.023 267.87 373.33C268.07 373.637 268.17 374.01 268.17 374.45V378H267.21ZM265.22 378.12C264.86 378.12 264.543 378.057 264.27 377.93C263.996 377.797 263.783 377.61 263.63 377.37C263.476 377.123 263.4 376.837 263.4 376.51C263.4 375.943 263.616 375.503 264.05 375.19C264.49 374.877 265.103 374.72 265.89 374.72H267.3V375.47H265.85C265.396 375.47 265.04 375.557 264.78 375.73C264.526 375.903 264.4 376.147 264.4 376.46C264.4 376.72 264.49 376.923 264.67 377.07C264.856 377.217 265.106 377.29 265.42 377.29C265.82 377.29 266.173 377.183 266.48 376.97C266.793 376.75 267.046 376.45 267.24 376.07L267.35 376.81C267.176 377.23 266.91 377.553 266.55 377.78C266.19 378.007 265.746 378.12 265.22 378.12ZM273.773 374.86V374.2C273.773 373.913 273.687 373.683 273.513 373.51C273.34 373.33 273.09 373.24 272.763 373.24C272.35 373.24 271.98 373.397 271.653 373.71C271.327 374.017 271.067 374.487 270.873 375.12L270.733 374.1C270.88 373.72 271.057 373.403 271.263 373.15C271.477 372.897 271.72 372.707 271.993 372.58C272.273 372.447 272.58 372.38 272.913 372.38C273.467 372.38 273.917 372.54 274.263 372.86C274.61 373.173 274.783 373.62 274.783 374.2V374.86H273.773ZM270.053 378V372.5H271.003L271.063 373.75V378H270.053ZM278.487 372.38C278.867 372.38 279.214 372.457 279.527 372.61C279.841 372.757 280.094 372.963 280.287 373.23V370.65H281.287V378H280.337L280.307 377.23C280.114 377.497 279.857 377.713 279.537 377.88C279.224 378.04 278.874 378.12 278.487 378.12C278.001 378.12 277.571 377.997 277.197 377.75C276.824 377.503 276.531 377.163 276.317 376.73C276.111 376.297 276.007 375.803 276.007 375.25C276.007 374.69 276.111 374.193 276.317 373.76C276.531 373.327 276.824 372.99 277.197 372.75C277.571 372.503 278.001 372.38 278.487 372.38ZM278.707 377.27C279.067 377.27 279.387 377.17 279.667 376.97C279.947 376.763 280.154 376.487 280.287 376.14V374.35C280.154 373.997 279.947 373.723 279.667 373.53C279.387 373.33 279.067 373.23 278.707 373.23C278.374 373.23 278.081 373.317 277.827 373.49C277.574 373.657 277.374 373.893 277.227 374.2C277.087 374.5 277.017 374.85 277.017 375.25C277.017 375.643 277.087 375.993 277.227 376.3C277.374 376.6 277.574 376.837 277.827 377.01C278.081 377.183 278.374 377.27 278.707 377.27Z" fill="#222222"/>
<path d="M292 375.801L288.461 372.263L288.933 371.791L292 374.858L295.067 371.791L295.538 372.263L292 375.801Z" fill="#D9D9D9"/>
</g>
<defs>
<filter id="filter0_d_3769_48378" x="0" y="0" width="327" height="415" filterUnits="userSpaceOnUse" color-interpolation-filters="sRGB">
<feFlood flood-opacity="0" result="BackgroundImageFix"/>
<feColorMatrix in="SourceAlpha" type="matrix" values="0 0 0 0 0 0 0 0 0 0 0 0 0 0 0 0 0 0 127 0" result="hardAlpha"/>
<feMorphology radius="3" operator="dilate" in="SourceAlpha" result="effect1_dropShadow_3769_48378"/>
<feOffset dy="2"/>
<feGaussianBlur stdDeviation="4"/>
<feComposite in2="hardAlpha" operator="out"/>
<feColorMatrix type="matrix" values="0 0 0 0 0 0 0 0 0 0 0 0 0 0 0 0 0 0 0.04 0"/>
<feBlend mode="normal" in2="BackgroundImageFix" result="effect1_dropShadow_3769_48378"/>
<feBlend mode="normal" in="SourceGraphic" in2="effect1_dropShadow_3769_48378" result="shape"/>
</filter>
</defs>
</svg>
