<svg width="304" height="129" viewBox="0 0 304 129" fill="none" xmlns="http://www.w3.org/2000/svg">
<path d="M304 127.5H0V128.5H304V127.5Z" fill="var(--colors-neutral-neutral-400)"/>
<path d="M21.604 28V19.624H23.116V28H21.604ZM16.696 28V19.624H18.208V28H16.696ZM18.016 24.292V23.032H21.784V24.292H18.016ZM27.0327 28V21.376H28.4607V28H27.0327ZM24.6927 28V26.836H30.7047V28H24.6927ZM25.5447 22.54V21.376H27.7407V22.54H25.5447ZM26.9487 20.332V18.868H28.5087V20.332H26.9487ZM37.2134 22.24L37.2494 21.376H38.6174V27.22C38.6174 28.22 38.3494 28.98 37.8134 29.5C37.2774 30.02 36.4614 30.28 35.3654 30.28C34.7654 30.28 34.2454 30.2 33.8054 30.04C33.3654 29.888 33.0214 29.652 32.7734 29.332C32.5334 29.02 32.3974 28.624 32.3654 28.144H33.8654C33.9054 28.464 34.0534 28.704 34.3094 28.864C34.5654 29.024 34.9414 29.104 35.4374 29.104C36.0214 29.104 36.4574 28.952 36.7454 28.648C37.0414 28.352 37.1894 27.932 37.1894 27.388V26.668C36.9654 26.98 36.6734 27.224 36.3134 27.4C35.9614 27.576 35.5694 27.664 35.1374 27.664C34.5774 27.664 34.0774 27.524 33.6374 27.244C33.2054 26.964 32.8654 26.584 32.6174 26.104C32.3694 25.616 32.2454 25.068 32.2454 24.46C32.2454 23.796 32.3734 23.224 32.6294 22.744C32.8934 22.256 33.2494 21.884 33.6974 21.628C34.1454 21.372 34.6534 21.244 35.2214 21.244C35.6454 21.244 36.0294 21.336 36.3734 21.52C36.7254 21.704 37.0054 21.944 37.2134 22.24ZM35.4734 26.56C35.8734 26.56 36.2254 26.44 36.5294 26.2C36.8414 25.952 37.0614 25.628 37.1894 25.228V23.668C37.0614 23.26 36.8414 22.94 36.5294 22.708C36.2254 22.468 35.8734 22.348 35.4734 22.348C35.1214 22.348 34.8094 22.44 34.5374 22.624C34.2654 22.808 34.0534 23.056 33.9014 23.368C33.7494 23.68 33.6734 24.036 33.6734 24.436C33.6734 24.844 33.7494 25.208 33.9014 25.528C34.0534 25.84 34.2654 26.092 34.5374 26.284C34.8094 26.468 35.1214 26.56 35.4734 26.56ZM44.9341 28V23.872C44.9341 23.44 44.8141 23.096 44.5741 22.84C44.3421 22.576 44.0381 22.444 43.6621 22.444C43.2301 22.444 42.8381 22.6 42.4861 22.912C42.1421 23.216 41.8461 23.708 41.5981 24.388L41.3821 22.972C41.6461 22.38 42.0061 21.944 42.4621 21.664C42.9181 21.376 43.4061 21.232 43.9261 21.232C44.4301 21.232 44.8621 21.34 45.2221 21.556C45.5901 21.764 45.8701 22.06 46.0621 22.444C46.2621 22.828 46.3621 23.276 46.3621 23.788V28H44.9341ZM40.3141 28V19.144H41.7421V28H40.3141ZM48.4788 28L47.4468 21.352H48.7788L49.2828 24.976L49.4868 26.512L49.7628 24.976L50.4948 21.352H51.7788L52.5468 24.976L52.8348 26.536L53.0268 24.976L53.5308 21.352H54.8028L53.7828 28H52.1148L51.3468 24.532L51.1308 22.72L50.9028 24.532L50.1468 28H48.4788ZM60.5074 28L60.4474 26.596V23.62C60.4474 23.204 60.3074 22.876 60.0274 22.636C59.7474 22.396 59.3594 22.276 58.8634 22.276C58.3914 22.276 58.0034 22.384 57.6994 22.6C57.4034 22.816 57.2354 23.112 57.1954 23.488H55.8034C55.8434 23.016 55.9954 22.612 56.2594 22.276C56.5314 21.94 56.8914 21.684 57.3394 21.508C57.7954 21.324 58.3194 21.232 58.9114 21.232C59.5194 21.232 60.0434 21.328 60.4834 21.52C60.9314 21.712 61.2754 21.992 61.5154 22.36C61.7554 22.728 61.8754 23.176 61.8754 23.704V28H60.5074ZM58.2034 28.144C57.7714 28.144 57.3874 28.064 57.0514 27.904C56.7234 27.744 56.4674 27.516 56.2834 27.22C56.0994 26.924 56.0074 26.58 56.0074 26.188C56.0074 25.508 56.2714 24.98 56.7994 24.604C57.3274 24.22 58.0594 24.028 58.9954 24.028H60.6154V25.06L58.9474 25.072C58.4674 25.072 58.0914 25.164 57.8194 25.348C57.5474 25.524 57.4114 25.78 57.4114 26.116C57.4114 26.38 57.5074 26.592 57.6994 26.752C57.8994 26.912 58.1714 26.992 58.5154 26.992C58.9554 26.992 59.3474 26.876 59.6914 26.644C60.0434 26.404 60.3274 26.076 60.5434 25.66L60.6994 26.668C60.4914 27.156 60.1754 27.524 59.7514 27.772C59.3274 28.02 58.8114 28.144 58.2034 28.144ZM66.1161 24.328L66.7281 25.996L67.3521 24.316L68.6001 21.376H70.0641L67.0401 28.516C66.8561 28.964 66.6481 29.316 66.4161 29.572C66.1921 29.828 65.9361 30.008 65.6481 30.112C65.3601 30.224 65.0281 30.28 64.6521 30.28H63.4641V29.116H64.5321C64.7481 29.116 64.9281 29.068 65.0721 28.972C65.2241 28.884 65.3601 28.748 65.4801 28.564C65.6001 28.388 65.7161 28.168 65.8281 27.904L65.9961 27.52L63.3921 21.376H64.8801L66.1161 24.328Z" fill="var(--colors-neutral-neutral-800)"/>
<path d="M275.4 26.7019L274.692 25.9942L280 20.6865L285.308 25.9942L284.6 26.7019L280 22.1019L275.4 26.7019Z" fill="var(--colors-neutral-neutral-800)"/>
<path d="M17.179 60.2273L19.3381 66.3494H19.4233L21.5824 60.2273H22.5057L19.8352 67.5H18.9261L16.2557 60.2273H17.179ZM25.304 67.6136C24.7784 67.6136 24.325 67.4976 23.9439 67.2656C23.5651 67.0312 23.2727 66.7045 23.0668 66.2855C22.8632 65.8641 22.7614 65.3741 22.7614 64.8153C22.7614 64.2566 22.8632 63.7642 23.0668 63.3381C23.2727 62.9096 23.5592 62.5758 23.9261 62.3366C24.2955 62.0952 24.7263 61.9744 25.2188 61.9744C25.5028 61.9744 25.7834 62.0218 26.0604 62.1165C26.3374 62.2112 26.5895 62.3651 26.8168 62.5781C27.044 62.7888 27.2251 63.0682 27.3601 63.4162C27.495 63.7642 27.5625 64.1927 27.5625 64.7017V65.0568H23.358V64.3324H26.7102C26.7102 64.0246 26.6487 63.75 26.5256 63.5085C26.4048 63.267 26.232 63.0765 26.0071 62.9368C25.7846 62.7971 25.5218 62.7273 25.2188 62.7273C24.8849 62.7273 24.5961 62.8101 24.3523 62.9759C24.1108 63.1392 23.925 63.3523 23.7947 63.6151C23.6645 63.8778 23.5994 64.1596 23.5994 64.4602V64.9432C23.5994 65.3551 23.6705 65.7043 23.8125 65.9908C23.9569 66.2749 24.157 66.4915 24.4126 66.6406C24.6683 66.7874 24.9654 66.8608 25.304 66.8608C25.5241 66.8608 25.723 66.83 25.9006 66.7685C26.0805 66.7045 26.2356 66.6098 26.3658 66.4844C26.496 66.3565 26.5966 66.1979 26.6676 66.0085L27.4773 66.2358C27.392 66.5104 27.2488 66.7519 27.0476 66.9602C26.8464 67.1662 26.5978 67.3272 26.3018 67.4432C26.0059 67.5568 25.6733 67.6136 25.304 67.6136ZM29.6754 64.2188V67.5H28.8374V60.2273H29.6754V62.8977H29.7464C29.8743 62.616 30.0661 62.3923 30.3217 62.2266C30.5798 62.0585 30.9231 61.9744 31.3516 61.9744C31.7232 61.9744 32.0488 62.049 32.3281 62.1982C32.6075 62.3449 32.8241 62.571 32.978 62.8764C33.1342 63.1795 33.2124 63.5653 33.2124 64.0341V67.5H32.3743V64.0909C32.3743 63.6577 32.2618 63.3227 32.0369 63.0859C31.8144 62.8468 31.5054 62.7273 31.1101 62.7273C30.8355 62.7273 30.5893 62.7853 30.3714 62.9013C30.156 63.0173 29.9856 63.1866 29.8601 63.4091C29.737 63.6316 29.6754 63.9015 29.6754 64.2188ZM34.7456 67.5V62.0455H35.5836V67.5H34.7456ZM35.1717 61.1364C35.0083 61.1364 34.8675 61.0807 34.7491 60.9695C34.6331 60.8582 34.5751 60.7244 34.5751 60.5682C34.5751 60.4119 34.6331 60.2782 34.7491 60.1669C34.8675 60.0556 35.0083 60 35.1717 60C35.335 60 35.4747 60.0556 35.5907 60.1669C35.7091 60.2782 35.7683 60.4119 35.7683 60.5682C35.7683 60.7244 35.7091 60.8582 35.5907 60.9695C35.4747 61.0807 35.335 61.1364 35.1717 61.1364ZM39.3345 67.6136C38.8232 67.6136 38.3828 67.4929 38.0135 67.2514C37.6442 67.0099 37.3601 66.6773 37.1612 66.2536C36.9624 65.8298 36.8629 65.3456 36.8629 64.8011C36.8629 64.2472 36.9647 63.7583 37.1683 63.3345C37.3743 62.9084 37.6607 62.5758 38.0277 62.3366C38.397 62.0952 38.8279 61.9744 39.3203 61.9744C39.7038 61.9744 40.0495 62.0455 40.3572 62.1875C40.665 62.3295 40.9171 62.5284 41.1136 62.7841C41.3101 63.0398 41.4321 63.3381 41.4794 63.679H40.6413C40.5774 63.4304 40.4354 63.2102 40.2152 63.0185C39.9974 62.8243 39.7038 62.7273 39.3345 62.7273C39.0078 62.7273 38.7214 62.8125 38.4751 62.983C38.2313 63.151 38.0407 63.389 37.9034 63.6967C37.7685 64.0021 37.701 64.3608 37.701 64.7727C37.701 65.1941 37.7673 65.5611 37.8999 65.8736C38.0348 66.1861 38.2242 66.4287 38.468 66.6016C38.7143 66.7744 39.0031 66.8608 39.3345 66.8608C39.5523 66.8608 39.75 66.8229 39.9276 66.7472C40.1051 66.6714 40.2554 66.5625 40.3786 66.4205C40.5017 66.2784 40.5893 66.108 40.6413 65.9091H41.4794C41.4321 66.2311 41.3149 66.5211 41.1278 66.7791C40.9432 67.0348 40.6982 67.2384 40.3928 67.3899C40.0897 67.5391 39.737 67.6136 39.3345 67.6136ZM43.5426 60.2273V67.5H42.7045V60.2273H43.5426ZM47.3645 67.6136C46.839 67.6136 46.3856 67.4976 46.0044 67.2656C45.6257 67.0312 45.3333 66.7045 45.1273 66.2855C44.9237 65.8641 44.8219 65.3741 44.8219 64.8153C44.8219 64.2566 44.9237 63.7642 45.1273 63.3381C45.3333 62.9096 45.6197 62.5758 45.9867 62.3366C46.356 62.0952 46.7869 61.9744 47.2793 61.9744C47.5634 61.9744 47.8439 62.0218 48.1209 62.1165C48.3979 62.2112 48.65 62.3651 48.8773 62.5781C49.1046 62.7888 49.2857 63.0682 49.4206 63.4162C49.5556 63.7642 49.623 64.1927 49.623 64.7017V65.0568H45.4185V64.3324H48.7708C48.7708 64.0246 48.7092 63.75 48.5861 63.5085C48.4654 63.267 48.2926 63.0765 48.0676 62.9368C47.8451 62.7971 47.5823 62.7273 47.2793 62.7273C46.9455 62.7273 46.6567 62.8101 46.4128 62.9759C46.1713 63.1392 45.9855 63.3523 45.8553 63.6151C45.7251 63.8778 45.66 64.1596 45.66 64.4602V64.9432C45.66 65.3551 45.731 65.7043 45.873 65.9908C46.0175 66.2749 46.2175 66.4915 46.4732 66.6406C46.7289 66.7874 47.026 66.8608 47.3645 66.8608C47.5847 66.8608 47.7836 66.83 47.9611 66.7685C48.141 66.7045 48.2961 66.6098 48.4263 66.4844C48.5565 66.3565 48.6571 66.1979 48.7282 66.0085L49.5378 66.2358C49.4526 66.5104 49.3094 66.7519 49.1081 66.9602C48.9069 67.1662 48.6583 67.3272 48.3624 67.4432C48.0665 67.5568 47.7338 67.6136 47.3645 67.6136Z" fill="var(--colors-neutral-neutral-800)"/>
<path d="M145.179 67.5H144.256L146.926 60.2273H147.835L150.506 67.5H149.582L147.409 61.3778H147.352L145.179 67.5ZM145.52 64.6591H149.241V65.4403H145.52V64.6591ZM152.363 60.2273V67.5H151.525V60.2273H152.363ZM154.736 60.2273V67.5H153.898V60.2273H154.736Z" fill="var(--colors-neutral-neutral-800)"/>
<path d="M16.8807 99.5V92.2273H17.7614V98.7188H21.142V99.5H16.8807ZM23.9972 99.6278C23.6515 99.6278 23.3378 99.5627 23.0561 99.4325C22.7744 99.3 22.5507 99.1094 22.3849 98.8608C22.2192 98.6098 22.1364 98.3068 22.1364 97.9517C22.1364 97.6392 22.1979 97.3859 22.321 97.1918C22.4441 96.9953 22.6087 96.8414 22.8146 96.7301C23.0206 96.6188 23.2479 96.536 23.4964 96.4815C23.7474 96.4247 23.9995 96.3797 24.2528 96.3466C24.5843 96.304 24.853 96.272 25.0589 96.2507C25.2673 96.227 25.4188 96.188 25.5135 96.1335C25.6106 96.0791 25.6591 95.9844 25.6591 95.8494V95.821C25.6591 95.4706 25.5632 95.1984 25.3714 95.0043C25.1821 94.8101 24.8944 94.7131 24.5085 94.7131C24.1084 94.7131 23.7947 94.8007 23.5675 94.9759C23.3402 95.151 23.1804 95.3381 23.0881 95.5369L22.2926 95.2528C22.4347 94.9214 22.6241 94.6634 22.8608 94.4787C23.0999 94.2917 23.3603 94.1615 23.642 94.0881C23.9261 94.0123 24.2055 93.9744 24.4801 93.9744C24.6553 93.9744 24.8565 93.9957 25.0838 94.0384C25.3134 94.0786 25.5348 94.1626 25.7479 94.2905C25.9633 94.4183 26.142 94.6113 26.2841 94.8693C26.4261 95.1274 26.4972 95.473 26.4972 95.9062V99.5H25.6591V98.7614H25.6165C25.5597 98.8797 25.465 99.0064 25.3324 99.1413C25.1998 99.2763 25.0234 99.3911 24.8033 99.4858C24.5831 99.5805 24.3144 99.6278 23.9972 99.6278ZM24.125 98.875C24.4564 98.875 24.7358 98.8099 24.9631 98.6797C25.1927 98.5495 25.3655 98.3814 25.4815 98.1754C25.5999 97.9695 25.6591 97.7528 25.6591 97.5256V96.7585C25.6236 96.8011 25.5455 96.8402 25.4247 96.8757C25.3063 96.9089 25.169 96.9384 25.0128 96.9645C24.8589 96.9882 24.7086 97.0095 24.5618 97.0284C24.4174 97.045 24.3002 97.0592 24.2102 97.071C23.9924 97.0994 23.7888 97.1456 23.5994 97.2095C23.4124 97.2711 23.2609 97.3646 23.1449 97.4901C23.0313 97.6132 22.9744 97.7812 22.9744 97.9943C22.9744 98.2855 23.0821 98.5057 23.2976 98.6548C23.5154 98.8016 23.7912 98.875 24.125 98.875ZM28.8649 96.2188V99.5H28.0268V94.0455H28.8365V94.8977H28.9075C29.0353 94.6207 29.2295 94.3982 29.4899 94.2301C29.7503 94.0597 30.0865 93.9744 30.4984 93.9744C30.8677 93.9744 31.1909 94.0502 31.4679 94.2017C31.7449 94.3509 31.9603 94.5781 32.1142 94.8835C32.2681 95.1866 32.345 95.5701 32.345 96.0341V99.5H31.5069V96.0909C31.5069 95.6624 31.3957 95.3286 31.1731 95.0895C30.9506 94.848 30.6452 94.7273 30.2569 94.7273C29.9894 94.7273 29.7503 94.7853 29.5396 94.9013C29.3313 95.0173 29.1667 95.1866 29.046 95.4091C28.9252 95.6316 28.8649 95.9015 28.8649 96.2188ZM36.1634 99.6136C35.6378 99.6136 35.1844 99.4976 34.8033 99.2656C34.4245 99.0312 34.1321 98.7045 33.9261 98.2855C33.7225 97.8641 33.6207 97.3741 33.6207 96.8153C33.6207 96.2566 33.7225 95.7642 33.9261 95.3381C34.1321 94.9096 34.4186 94.5758 34.7855 94.3366C35.1548 94.0952 35.5857 93.9744 36.0781 93.9744C36.3622 93.9744 36.6428 94.0218 36.9197 94.1165C37.1967 94.2112 37.4489 94.3651 37.6761 94.5781C37.9034 94.7888 38.0845 95.0682 38.2195 95.4162C38.3544 95.7642 38.4219 96.1927 38.4219 96.7017V97.0568H34.2173V96.3324H37.5696C37.5696 96.0246 37.508 95.75 37.3849 95.5085C37.2642 95.267 37.0914 95.0765 36.8665 94.9368C36.6439 94.7971 36.3812 94.7273 36.0781 94.7273C35.7443 94.7273 35.4555 94.8101 35.2116 94.9759C34.9702 95.1392 34.7843 95.3523 34.6541 95.6151C34.5239 95.8778 34.4588 96.1596 34.4588 96.4602V96.9432C34.4588 97.3551 34.5298 97.7043 34.6719 97.9908C34.8163 98.2749 35.0163 98.4915 35.272 98.6406C35.5277 98.7874 35.8248 98.8608 36.1634 98.8608C36.3835 98.8608 36.5824 98.83 36.7599 98.7685C36.9399 98.7045 37.0949 98.6098 37.2251 98.4844C37.3554 98.3565 37.456 98.1979 37.527 98.0085L38.3366 98.2358C38.2514 98.5104 38.1082 98.7519 37.907 98.9602C37.7057 99.1662 37.4571 99.3272 37.1612 99.4432C36.8653 99.5568 36.5327 99.6136 36.1634 99.6136ZM44.5689 99.6136C44.1143 99.6136 43.7131 99.4988 43.3651 99.2692C43.017 99.0372 42.7448 98.7105 42.5483 98.2891C42.3518 97.8653 42.2536 97.3646 42.2536 96.7869C42.2536 96.214 42.3518 95.7169 42.5483 95.2955C42.7448 94.8741 43.0182 94.5485 43.3686 94.3189C43.719 94.0893 44.1238 93.9744 44.5831 93.9744C44.9382 93.9744 45.2188 94.0336 45.4247 94.152C45.633 94.268 45.7917 94.4006 45.9006 94.5497C46.0118 94.6965 46.0982 94.8172 46.1598 94.9119H46.2308V92.2273H47.0689V99.5H46.2592V98.6619H46.1598C46.0982 98.7614 46.0107 98.8868 45.897 99.0384C45.7834 99.1875 45.6212 99.3213 45.4105 99.4396C45.1998 99.5556 44.9193 99.6136 44.5689 99.6136ZM44.6825 98.8608C45.0187 98.8608 45.3028 98.7732 45.5348 98.598C45.7668 98.4205 45.9432 98.1754 46.0639 97.8629C46.1847 97.5481 46.245 97.1847 46.245 96.7727C46.245 96.3655 46.1858 96.0092 46.0675 95.7038C45.9491 95.3961 45.7739 95.157 45.5419 94.9865C45.3099 94.8137 45.0234 94.7273 44.6825 94.7273C44.3274 94.7273 44.0315 94.8184 43.7947 95.0007C43.5604 95.1806 43.384 95.4257 43.2656 95.7358C43.1496 96.0436 43.0916 96.3892 43.0916 96.7727C43.0916 97.161 43.1508 97.5137 43.2692 97.831C43.3899 98.1458 43.5675 98.3968 43.8018 98.5838C44.0386 98.7685 44.3321 98.8608 44.6825 98.8608ZM48.7202 99.5V94.0455H49.5582V99.5H48.7202ZM49.1463 93.1364C48.983 93.1364 48.8421 93.0807 48.7237 92.9695C48.6077 92.8582 48.5497 92.7244 48.5497 92.5682C48.5497 92.4119 48.6077 92.2782 48.7237 92.1669C48.8421 92.0556 48.983 92 49.1463 92C49.3097 92 49.4493 92.0556 49.5653 92.1669C49.6837 92.2782 49.7429 92.4119 49.7429 92.5682C49.7429 92.7244 49.6837 92.8582 49.5653 92.9695C49.4493 93.0807 49.3097 93.1364 49.1463 93.1364ZM51.0932 99.5V94.0455H51.9029V94.8693H51.9597C52.0591 94.5994 52.2391 94.3804 52.4995 94.2124C52.7599 94.0443 53.0534 93.9602 53.3801 93.9602C53.4417 93.9602 53.5186 93.9614 53.611 93.9638C53.7033 93.9661 53.7731 93.9697 53.8205 93.9744V94.8267C53.7921 94.8196 53.727 94.8089 53.6252 94.7947C53.5257 94.7782 53.4204 94.7699 53.3091 94.7699C53.044 94.7699 52.8072 94.8255 52.5989 94.9368C52.3929 95.0457 52.2296 95.1972 52.1088 95.3913C51.9905 95.5831 51.9313 95.8021 51.9313 96.0483V99.5H51.0932ZM56.9348 99.6136C56.4093 99.6136 55.9559 99.4976 55.5748 99.2656C55.196 99.0312 54.9036 98.7045 54.6976 98.2855C54.494 97.8641 54.3922 97.3741 54.3922 96.8153C54.3922 96.2566 54.494 95.7642 54.6976 95.3381C54.9036 94.9096 55.19 94.5758 55.557 94.3366C55.9263 94.0952 56.3572 93.9744 56.8496 93.9744C57.1337 93.9744 57.4142 94.0218 57.6912 94.1165C57.9682 94.2112 58.2203 94.3651 58.4476 94.5781C58.6749 94.7888 58.856 95.0682 58.9909 95.4162C59.1259 95.7642 59.1934 96.1927 59.1934 96.7017V97.0568H54.9888V96.3324H58.3411C58.3411 96.0246 58.2795 95.75 58.1564 95.5085C58.0357 95.267 57.8629 95.0765 57.638 94.9368C57.4154 94.7971 57.1526 94.7273 56.8496 94.7273C56.5158 94.7273 56.227 94.8101 55.9831 94.9759C55.7417 95.1392 55.5558 95.3523 55.4256 95.6151C55.2954 95.8778 55.2303 96.1596 55.2303 96.4602V96.9432C55.2303 97.3551 55.3013 97.7043 55.4434 97.9908C55.5878 98.2749 55.7878 98.4915 56.0435 98.6406C56.2992 98.7874 56.5963 98.8608 56.9348 98.8608C57.155 98.8608 57.3539 98.83 57.5314 98.7685C57.7114 98.7045 57.8664 98.6098 57.9966 98.4844C58.1268 98.3565 58.2275 98.1979 58.2985 98.0085L59.1081 98.2358C59.0229 98.5104 58.8797 98.7519 58.6784 98.9602C58.4772 99.1662 58.2286 99.3272 57.9327 99.4432C57.6368 99.5568 57.3042 99.6136 56.9348 99.6136ZM62.6841 99.6136C62.1728 99.6136 61.7324 99.4929 61.3631 99.2514C60.9938 99.0099 60.7097 98.6773 60.5108 98.2536C60.312 97.8298 60.2125 97.3456 60.2125 96.8011C60.2125 96.2472 60.3143 95.7583 60.5179 95.3345C60.7239 94.9084 61.0104 94.5758 61.3773 94.3366C61.7466 94.0952 62.1775 93.9744 62.6699 93.9744C63.0534 93.9744 63.3991 94.0455 63.7069 94.1875C64.0146 94.3295 64.2667 94.5284 64.4632 94.7841C64.6597 95.0398 64.7817 95.3381 64.829 95.679H63.9909C63.927 95.4304 63.785 95.2102 63.5648 95.0185C63.347 94.8243 63.0534 94.7273 62.6841 94.7273C62.3574 94.7273 62.071 94.8125 61.8248 94.983C61.5809 95.151 61.3903 95.389 61.253 95.6967C61.1181 96.0021 61.0506 96.3608 61.0506 96.7727C61.0506 97.1941 61.1169 97.5611 61.2495 97.8736C61.3844 98.1861 61.5738 98.4287 61.8176 98.6016C62.0639 98.7744 62.3527 98.8608 62.6841 98.8608C62.9019 98.8608 63.0996 98.8229 63.2772 98.7472C63.4547 98.6714 63.6051 98.5625 63.7282 98.4205C63.8513 98.2784 63.9389 98.108 63.9909 97.9091H64.829C64.7817 98.2311 64.6645 98.5211 64.4775 98.7791C64.2928 99.0348 64.0478 99.2384 63.7424 99.3899C63.4393 99.5391 63.0866 99.6136 62.6841 99.6136ZM68.4263 94.0455V94.7557H65.5996V94.0455H68.4263ZM66.4235 92.7386H67.2615V97.9375C67.2615 98.1742 67.2959 98.3518 67.3645 98.4702C67.4355 98.5862 67.5255 98.6643 67.6344 98.7045C67.7457 98.7424 67.8629 98.7614 67.986 98.7614C68.0783 98.7614 68.1541 98.7566 68.2132 98.7472C68.2724 98.7353 68.3198 98.7259 68.3553 98.7188L68.5257 99.4716C68.4689 99.4929 68.3896 99.5142 68.2878 99.5355C68.186 99.5592 68.057 99.571 67.9007 99.571C67.664 99.571 67.432 99.5201 67.2047 99.4183C66.9798 99.3165 66.7928 99.1615 66.6436 98.9531C66.4969 98.7448 66.4235 98.482 66.4235 98.1648V92.7386ZM69.687 99.5V94.0455H70.525V99.5H69.687ZM70.1131 93.1364C69.9498 93.1364 69.8089 93.0807 69.6905 92.9695C69.5745 92.8582 69.5165 92.7244 69.5165 92.5682C69.5165 92.4119 69.5745 92.2782 69.6905 92.1669C69.8089 92.0556 69.9498 92 70.1131 92C70.2765 92 70.4161 92.0556 70.5321 92.1669C70.6505 92.2782 70.7097 92.4119 70.7097 92.5682C70.7097 92.7244 70.6505 92.8582 70.5321 92.9695C70.4161 93.0807 70.2765 93.1364 70.1131 93.1364ZM74.2759 99.6136C73.7835 99.6136 73.3514 99.4964 72.9798 99.2621C72.6104 99.0277 72.3216 98.6998 72.1133 98.2784C71.9073 97.857 71.8043 97.3646 71.8043 96.8011C71.8043 96.233 71.9073 95.737 72.1133 95.3132C72.3216 94.8894 72.6104 94.5604 72.9798 94.326C73.3514 94.0916 73.7835 93.9744 74.2759 93.9744C74.7683 93.9744 75.1992 94.0916 75.5685 94.326C75.9402 94.5604 76.229 94.8894 76.435 95.3132C76.6433 95.737 76.7475 96.233 76.7475 96.8011C76.7475 97.3646 76.6433 97.857 76.435 98.2784C76.229 98.6998 75.9402 99.0277 75.5685 99.2621C75.1992 99.4964 74.7683 99.6136 74.2759 99.6136ZM74.2759 98.8608C74.65 98.8608 74.9577 98.7649 75.1992 98.5732C75.4407 98.3814 75.6194 98.1293 75.7354 97.8168C75.8514 97.5043 75.9094 97.1657 75.9094 96.8011C75.9094 96.4366 75.8514 96.0968 75.7354 95.782C75.6194 95.4671 75.4407 95.2126 75.1992 95.0185C74.9577 94.8243 74.65 94.7273 74.2759 94.7273C73.9019 94.7273 73.5941 94.8243 73.3526 95.0185C73.1112 95.2126 72.9324 95.4671 72.8164 95.782C72.7004 96.0968 72.6424 96.4366 72.6424 96.8011C72.6424 97.1657 72.7004 97.5043 72.8164 97.8168C72.9324 98.1293 73.1112 98.3814 73.3526 98.5732C73.5941 98.7649 73.9019 98.8608 74.2759 98.8608ZM78.8649 96.2188V99.5H78.0268V94.0455H78.8365V94.8977H78.9075C79.0353 94.6207 79.2295 94.3982 79.4899 94.2301C79.7503 94.0597 80.0865 93.9744 80.4984 93.9744C80.8677 93.9744 81.1909 94.0502 81.4679 94.2017C81.7449 94.3509 81.9603 94.5781 82.1142 94.8835C82.2681 95.1866 82.345 95.5701 82.345 96.0341V99.5H81.5069V96.0909C81.5069 95.6624 81.3957 95.3286 81.1731 95.0895C80.9506 94.848 80.6452 94.7273 80.2569 94.7273C79.9894 94.7273 79.7503 94.7853 79.5396 94.9013C79.3313 95.0173 79.1667 95.1866 79.046 95.4091C78.9252 95.6316 78.8649 95.9015 78.8649 96.2188Z" fill="var(--colors-neutral-neutral-800)"/>
<path d="M153.066 100.212L152.535 99.6808L155.981 96.2308L152.535 92.7808L153.066 92.25L157.047 96.2308L153.066 100.212ZM157.641 100.212L157.11 99.6808L160.556 96.2308L157.11 92.7808L157.641 92.25L161.622 96.2308L157.641 100.212Z" fill="var(--colors-neutral-neutral-800)"/>
<path d="M148.446 100.212L144.465 96.2308L148.446 92.25L148.977 92.7808L145.531 96.2308L148.977 99.6808L148.446 100.212ZM153.021 100.212L149.04 96.2308L153.021 92.25L153.552 92.7808L150.106 96.2308L153.552 99.6808L153.021 100.212Z" fill="var(--colors-neutral-neutral-800)"/>
<path d="M176.438 99.9808L172.457 96.0001L176.438 92.0193L176.968 92.5501L173.523 96.0001L176.968 99.4501L176.438 99.9808ZM181.013 99.9808L177.032 96.0001L181.013 92.0193L181.543 92.5501L178.098 96.0001L181.543 99.4501L181.013 99.9808Z" fill="var(--colors-neutral-neutral-800)"/>
<path d="M196.988 99.9808L196.457 99.4501L199.902 96.0001L196.457 92.5501L196.988 92.0193L200.968 96.0001L196.988 99.9808ZM201.563 99.9808L201.032 99.4501L204.477 96.0001L201.032 92.5501L201.563 92.0193L205.543 96.0001L201.563 99.9808Z" fill="var(--colors-neutral-neutral-800)"/>
<path d="M274.461 97C274.186 97 273.951 96.9021 273.755 96.7063C273.559 96.5104 273.461 96.275 273.461 96C273.461 95.725 273.559 95.4896 273.755 95.2938C273.951 95.0979 274.186 95 274.461 95C274.736 95 274.972 95.0979 275.168 95.2938C275.364 95.4896 275.461 95.725 275.461 96C275.461 96.275 275.364 96.5104 275.168 96.7063C274.972 96.9021 274.736 97 274.461 97ZM280 97C279.725 97 279.489 96.9021 279.294 96.7063C279.098 96.5104 279 96.275 279 96C279 95.725 279.098 95.4896 279.294 95.2938C279.489 95.0979 279.725 95 280 95C280.275 95 280.51 95.0979 280.706 95.2938C280.902 95.4896 281 95.725 281 96C281 96.275 280.902 96.5104 280.706 96.7063C280.51 96.9021 280.275 97 280 97ZM285.538 97C285.263 97 285.028 96.9021 284.832 96.7063C284.636 96.5104 284.538 96.275 284.538 96C284.538 95.725 284.636 95.4896 284.832 95.2938C285.028 95.0979 285.263 95 285.538 95C285.813 95 286.049 95.0979 286.245 95.2938C286.44 95.4896 286.538 95.725 286.538 96C286.538 96.275 286.44 96.5104 286.245 96.7063C286.049 96.9021 285.813 97 285.538 97Z" fill="var(--colors-neutral-neutral-800)"/>
</svg>
