<svg width="304" height="177" viewBox="0 0 304 177" fill="none" xmlns="http://www.w3.org/2000/svg">
<path d="M304 175.5H0V176.5H304V175.5Z" fill="var(--colors-neutral-neutral-400)"/>
<path d="M17.212 28V19.624H18.724V26.74H22.996V28H17.212ZM27.7047 28.144C27.0087 28.144 26.4087 28.004 25.9047 27.724C25.4087 27.444 25.0247 27.048 24.7527 26.536C24.4887 26.016 24.3567 25.4 24.3567 24.688C24.3567 23.968 24.4887 23.352 24.7527 22.84C25.0247 22.328 25.4087 21.932 25.9047 21.652C26.4087 21.372 27.0087 21.232 27.7047 21.232C28.7447 21.232 29.5607 21.54 30.1527 22.156C30.7447 22.764 31.0407 23.608 31.0407 24.688C31.0407 25.4 30.9047 26.016 30.6327 26.536C30.3687 27.048 29.9847 27.444 29.4807 27.724C28.9847 28.004 28.3927 28.144 27.7047 28.144ZM27.7047 26.968C28.2887 26.968 28.7487 26.764 29.0847 26.356C29.4287 25.948 29.6007 25.392 29.6007 24.688C29.6007 23.976 29.4287 23.42 29.0847 23.02C28.7487 22.612 28.2887 22.408 27.7047 22.408C27.1047 22.408 26.6367 22.612 26.3007 23.02C25.9647 23.42 25.7967 23.976 25.7967 24.688C25.7967 25.392 25.9647 25.948 26.3007 26.356C26.6367 26.764 27.1047 26.968 27.7047 26.968ZM37.0934 28L37.0334 26.596V23.62C37.0334 23.204 36.8934 22.876 36.6134 22.636C36.3334 22.396 35.9454 22.276 35.4494 22.276C34.9774 22.276 34.5894 22.384 34.2854 22.6C33.9894 22.816 33.8214 23.112 33.7814 23.488H32.3894C32.4294 23.016 32.5814 22.612 32.8454 22.276C33.1174 21.94 33.4774 21.684 33.9254 21.508C34.3814 21.324 34.9054 21.232 35.4974 21.232C36.1054 21.232 36.6294 21.328 37.0694 21.52C37.5174 21.712 37.8614 21.992 38.1014 22.36C38.3414 22.728 38.4614 23.176 38.4614 23.704V28H37.0934ZM34.7894 28.144C34.3574 28.144 33.9734 28.064 33.6374 27.904C33.3094 27.744 33.0534 27.516 32.8694 27.22C32.6854 26.924 32.5934 26.58 32.5934 26.188C32.5934 25.508 32.8574 24.98 33.3854 24.604C33.9134 24.22 34.6454 24.028 35.5814 24.028H37.2014V25.06L35.5334 25.072C35.0534 25.072 34.6774 25.164 34.4054 25.348C34.1334 25.524 33.9974 25.78 33.9974 26.116C33.9974 26.38 34.0934 26.592 34.2854 26.752C34.4854 26.912 34.7574 26.992 35.1014 26.992C35.5414 26.992 35.9334 26.876 36.2774 26.644C36.6294 26.404 36.9134 26.076 37.1294 25.66L37.2854 26.668C37.0774 27.156 36.7614 27.524 36.3374 27.772C35.9134 28.02 35.3974 28.144 34.7894 28.144ZM42.9301 21.232C43.3621 21.232 43.7581 21.316 44.1181 21.484C44.4781 21.652 44.7741 21.88 45.0061 22.168V19.156H46.4341V28H45.0661L45.0301 27.16C44.8061 27.456 44.5101 27.696 44.1421 27.88C43.7741 28.056 43.3701 28.144 42.9301 28.144C42.3461 28.144 41.8301 27.996 41.3821 27.7C40.9341 27.396 40.5821 26.984 40.3261 26.464C40.0781 25.936 39.9541 25.344 39.9541 24.688C39.9541 24.024 40.0781 23.432 40.3261 22.912C40.5821 22.392 40.9341 21.984 41.3821 21.688C41.8301 21.384 42.3461 21.232 42.9301 21.232ZM43.2661 26.956C43.6661 26.956 44.0181 26.84 44.3221 26.608C44.6341 26.368 44.8621 26.052 45.0061 25.66V23.704C44.8621 23.304 44.6341 22.992 44.3221 22.768C44.0181 22.536 43.6661 22.42 43.2661 22.42C42.8981 22.42 42.5701 22.52 42.2821 22.72C42.0021 22.912 41.7821 23.18 41.6221 23.524C41.4621 23.86 41.3821 24.248 41.3821 24.688C41.3821 25.12 41.4621 25.508 41.6221 25.852C41.7821 26.188 42.0021 26.456 42.2821 26.656C42.5701 26.856 42.8981 26.956 43.2661 26.956Z" fill="var(--colors-neutral-neutral-800)"/>
<path d="M275.4 26.7019L274.692 25.9942L280 20.6865L285.308 25.9942L284.6 26.7019L280 22.1019L275.4 26.7019Z" fill="var(--colors-neutral-neutral-800)"/>
<mask id="path-5-inside-1_3832_44618" fill="white">
<path d="M16 52H288V76H16V52Z"/>
</mask>
<path d="M288 76V75.5H16V76V76.5H288V76Z" fill="var(--colors-neutral-neutral-500)" mask="url(#path-5-inside-1_3832_44618)"/>
<path d="M17.179 67.5H16.2557L18.9261 60.2273H19.8352L22.5057 67.5H21.5824L19.4091 61.3778H19.3523L17.179 67.5ZM17.5199 64.6591H21.2415V65.4403H17.5199V64.6591ZM25.5845 67.6136C25.13 67.6136 24.7287 67.4988 24.3807 67.2692C24.0327 67.0372 23.7604 66.7105 23.5639 66.2891C23.3674 65.8653 23.2692 65.3646 23.2692 64.7869C23.2692 64.214 23.3674 63.7169 23.5639 63.2955C23.7604 62.8741 24.0339 62.5485 24.3842 62.3189C24.7346 62.0893 25.1394 61.9744 25.5987 61.9744C25.9538 61.9744 26.2344 62.0336 26.4403 62.152C26.6487 62.268 26.8073 62.4006 26.9162 62.5497C27.0275 62.6965 27.1139 62.8172 27.1754 62.9119H27.2464V60.2273H28.0845V67.5H27.2749V66.6619H27.1754C27.1139 66.7614 27.0263 66.8868 26.9126 67.0384C26.799 67.1875 26.6368 67.3213 26.4261 67.4396C26.2154 67.5556 25.9349 67.6136 25.5845 67.6136ZM25.6982 66.8608C26.0343 66.8608 26.3184 66.7732 26.5504 66.598C26.7824 66.4205 26.9588 66.1754 27.0795 65.8629C27.2003 65.5481 27.2607 65.1847 27.2607 64.7727C27.2607 64.3655 27.2015 64.0092 27.0831 63.7038C26.9647 63.3961 26.7895 63.157 26.5575 62.9865C26.3255 62.8137 26.0391 62.7273 25.6982 62.7273C25.343 62.7273 25.0471 62.8184 24.8104 63.0007C24.576 63.1806 24.3996 63.4257 24.2812 63.7358C24.1652 64.0436 24.1072 64.3892 24.1072 64.7727C24.1072 65.161 24.1664 65.5137 24.2848 65.831C24.4055 66.1458 24.5831 66.3968 24.8175 66.5838C25.0542 66.7685 25.3478 66.8608 25.6982 66.8608ZM31.7955 67.6136C31.3409 67.6136 30.9396 67.4988 30.5916 67.2692C30.2436 67.0372 29.9714 66.7105 29.7749 66.2891C29.5784 65.8653 29.4801 65.3646 29.4801 64.7869C29.4801 64.214 29.5784 63.7169 29.7749 63.2955C29.9714 62.8741 30.2448 62.5485 30.5952 62.3189C30.9455 62.0893 31.3504 61.9744 31.8097 61.9744C32.1648 61.9744 32.4453 62.0336 32.6513 62.152C32.8596 62.268 33.0182 62.4006 33.1271 62.5497C33.2384 62.6965 33.3248 62.8172 33.3864 62.9119H33.4574V60.2273H34.2955V67.5H33.4858V66.6619H33.3864C33.3248 66.7614 33.2372 66.8868 33.1236 67.0384C33.0099 67.1875 32.8478 67.3213 32.6371 67.4396C32.4264 67.5556 32.1458 67.6136 31.7955 67.6136ZM31.9091 66.8608C32.2453 66.8608 32.5294 66.7732 32.7614 66.598C32.9934 66.4205 33.1697 66.1754 33.2905 65.8629C33.4112 65.5481 33.4716 65.1847 33.4716 64.7727C33.4716 64.3655 33.4124 64.0092 33.294 63.7038C33.1757 63.3961 33.0005 63.157 32.7685 62.9865C32.5365 62.8137 32.25 62.7273 31.9091 62.7273C31.554 62.7273 31.258 62.8184 31.0213 63.0007C30.7869 63.1806 30.6106 63.4257 30.4922 63.7358C30.3762 64.0436 30.3182 64.3892 30.3182 64.7727C30.3182 65.161 30.3774 65.5137 30.4957 65.831C30.6165 66.1458 30.794 66.3968 31.0284 66.5838C31.2652 66.7685 31.5587 66.8608 31.9091 66.8608ZM39.5973 60.2273V67.5H38.7592V60.2273H39.5973ZM41.1323 67.5V62.0455H41.9703V67.5H41.1323ZM41.5584 61.1364C41.3951 61.1364 41.2542 61.0807 41.1358 60.9695C41.0198 60.8582 40.9618 60.7244 40.9618 60.5682C40.9618 60.4119 41.0198 60.2782 41.1358 60.1669C41.2542 60.0556 41.3951 60 41.5584 60C41.7218 60 41.8614 60.0556 41.9775 60.1669C42.0958 60.2782 42.155 60.4119 42.155 60.5682C42.155 60.7244 42.0958 60.8582 41.9775 60.9695C41.8614 61.0807 41.7218 61.1364 41.5584 61.1364ZM44.3434 64.2188V67.5H43.5053V62.0455H44.315V62.8977H44.386C44.5138 62.6207 44.708 62.3982 44.9684 62.2301C45.2288 62.0597 45.565 61.9744 45.9769 61.9744C46.3462 61.9744 46.6694 62.0502 46.9464 62.2017C47.2234 62.3509 47.4388 62.5781 47.5927 62.8835C47.7466 63.1866 47.8235 63.5701 47.8235 64.0341V67.5H46.9854V64.0909C46.9854 63.6624 46.8742 63.3286 46.6516 63.0895C46.4291 62.848 46.1237 62.7273 45.7354 62.7273C45.4679 62.7273 45.2288 62.7853 45.0181 62.9013C44.8098 63.0173 44.6452 63.1866 44.5245 63.4091C44.4038 63.6316 44.3434 63.9015 44.3434 64.2188ZM50.1362 65.5114L50.122 64.4744H50.2924L52.6788 62.0455H53.7157L51.1731 64.6165H51.1021L50.1362 65.5114ZM49.3549 67.5V60.2273H50.193V67.5H49.3549ZM52.8208 67.5L50.6902 64.8011L51.2868 64.2188L53.8862 67.5H52.8208Z" fill="var(--colors-neutral-neutral-500)"/>
<path d="M21.8523 94.5C21.7741 94.2609 21.6712 94.0466 21.5433 93.8572C21.4179 93.6655 21.2675 93.5021 21.0923 93.3672C20.9195 93.2322 20.723 93.1293 20.5028 93.0582C20.2827 92.9872 20.0412 92.9517 19.7784 92.9517C19.3475 92.9517 18.9557 93.063 18.603 93.2855C18.2502 93.508 17.9697 93.8359 17.7614 94.2692C17.553 94.7024 17.4489 95.2339 17.4489 95.8636C17.4489 96.4934 17.5542 97.0249 17.7649 97.4581C17.9756 97.8913 18.2609 98.2192 18.6207 98.4418C18.9806 98.6643 19.3854 98.7756 19.8352 98.7756C20.2519 98.7756 20.6188 98.6868 20.9361 98.5092C21.2557 98.3293 21.5043 98.076 21.6818 97.7493C21.8617 97.4202 21.9517 97.0331 21.9517 96.5881L22.2216 96.6449H20.0341V95.8636H22.804V96.6449C22.804 97.2438 22.6761 97.7647 22.4205 98.2074C22.1671 98.6501 21.8168 98.9934 21.3693 99.2372C20.9242 99.4787 20.4129 99.5994 19.8352 99.5994C19.1913 99.5994 18.6255 99.4479 18.1378 99.1449C17.6525 98.8419 17.2737 98.411 17.0014 97.8523C16.7315 97.2936 16.5966 96.6307 16.5966 95.8636C16.5966 95.2884 16.6735 94.7711 16.8274 94.3118C16.9837 93.8501 17.2038 93.4571 17.4879 93.1328C17.772 92.8085 18.1082 92.5599 18.4964 92.3871C18.8847 92.2143 19.312 92.1278 19.7784 92.1278C20.1619 92.1278 20.5194 92.1858 20.8509 92.3018C21.1847 92.4155 21.4818 92.5777 21.7422 92.7884C22.005 92.9967 22.224 93.2464 22.3991 93.5376C22.5743 93.8265 22.6951 94.1473 22.7614 94.5H21.8523ZM24.3123 99.5V92.2273H25.193V98.7188H28.5737V99.5H24.3123ZM28.5728 93.0085V92.2273H34.0273V93.0085H31.7404V99.5H30.8597V93.0085H28.5728ZM35.3865 99.5V92.2273H39.7473V93.0085H36.2672V95.4659H39.4206V96.2472H36.2672V99.5H35.3865ZM46.1705 99.6136C45.678 99.6136 45.246 99.4964 44.8743 99.2621C44.505 99.0277 44.2161 98.6998 44.0078 98.2784C43.8018 97.857 43.6989 97.3646 43.6989 96.8011C43.6989 96.233 43.8018 95.737 44.0078 95.3132C44.2161 94.8894 44.505 94.5604 44.8743 94.326C45.246 94.0916 45.678 93.9744 46.1705 93.9744C46.6629 93.9744 47.0938 94.0916 47.4631 94.326C47.8348 94.5604 48.1236 94.8894 48.3295 95.3132C48.5379 95.737 48.642 96.233 48.642 96.8011C48.642 97.3646 48.5379 97.857 48.3295 98.2784C48.1236 98.6998 47.8348 99.0277 47.4631 99.2621C47.0938 99.4964 46.6629 99.6136 46.1705 99.6136ZM46.1705 98.8608C46.5445 98.8608 46.8523 98.7649 47.0938 98.5732C47.3352 98.3814 47.514 98.1293 47.63 97.8168C47.746 97.5043 47.804 97.1657 47.804 96.8011C47.804 96.4366 47.746 96.0968 47.63 95.782C47.514 95.4671 47.3352 95.2126 47.0938 95.0185C46.8523 94.8243 46.5445 94.7273 46.1705 94.7273C45.7964 94.7273 45.4886 94.8243 45.2472 95.0185C45.0057 95.2126 44.8269 95.4671 44.7109 95.782C44.5949 96.0968 44.5369 96.4366 44.5369 96.8011C44.5369 97.1657 44.5949 97.5043 44.7109 97.8168C44.8269 98.1293 45.0057 98.3814 45.2472 98.5732C45.4886 98.7649 45.7964 98.8608 46.1705 98.8608ZM50.035 99.5V92.2273H50.873V94.9119H50.9441C51.0056 94.8172 51.0908 94.6965 51.1998 94.5497C51.311 94.4006 51.4696 94.268 51.6756 94.152C51.8839 94.0336 52.1657 93.9744 52.5208 93.9744C52.9801 93.9744 53.3849 94.0893 53.7353 94.3189C54.0856 94.5485 54.3591 94.8741 54.5556 95.2955C54.7521 95.7169 54.8503 96.214 54.8503 96.7869C54.8503 97.3646 54.7521 97.8653 54.5556 98.2891C54.3591 98.7105 54.0868 99.0372 53.7388 99.2692C53.3908 99.4988 52.9895 99.6136 52.535 99.6136C52.1846 99.6136 51.9041 99.5556 51.6934 99.4396C51.4827 99.3213 51.3205 99.1875 51.2069 99.0384C51.0932 98.8868 51.0056 98.7614 50.9441 98.6619H50.8446V99.5H50.035ZM50.8588 96.7727C50.8588 97.1847 50.9192 97.5481 51.04 97.8629C51.1607 98.1754 51.3371 98.4205 51.5691 98.598C51.8011 98.7732 52.0852 98.8608 52.4213 98.8608C52.7717 98.8608 53.0641 98.7685 53.2985 98.5838C53.5352 98.3968 53.7128 98.1458 53.8311 97.831C53.9519 97.5137 54.0123 97.161 54.0123 96.7727C54.0123 96.3892 53.9531 96.0436 53.8347 95.7358C53.7187 95.4257 53.5423 95.1806 53.3056 95.0007C53.0712 94.8184 52.7765 94.7273 52.4213 94.7273C52.0804 94.7273 51.794 94.8137 51.562 94.9865C51.33 95.157 51.1548 95.3961 51.0364 95.7038C50.918 96.0092 50.8588 96.3655 50.8588 96.7727ZM56.1323 94.0455H56.9703V99.8977C56.9703 100.234 56.9123 100.525 56.7963 100.771C56.6827 101.018 56.5099 101.208 56.2779 101.343C56.0482 101.478 55.7582 101.545 55.4078 101.545C55.3794 101.545 55.351 101.545 55.3226 101.545C55.2942 101.545 55.2658 101.545 55.2374 101.545V100.764C55.2658 100.764 55.2918 100.764 55.3155 100.764C55.3392 100.764 55.3652 100.764 55.3936 100.764C55.6493 100.764 55.8364 100.688 55.9547 100.537C56.0731 100.388 56.1323 100.175 56.1323 99.8977V94.0455ZM56.5442 93.1364C56.3809 93.1364 56.24 93.0807 56.1216 92.9695C56.0056 92.8582 55.9476 92.7244 55.9476 92.5682C55.9476 92.4119 56.0056 92.2782 56.1216 92.1669C56.24 92.0556 56.3809 92 56.5442 92C56.7076 92 56.8472 92.0556 56.9632 92.1669C57.0816 92.2782 57.1408 92.4119 57.1408 92.5682C57.1408 92.7244 57.0816 92.8582 56.9632 92.9695C56.8472 93.0807 56.7076 93.1364 56.5442 93.1364ZM60.7923 99.6136C60.2667 99.6136 59.8133 99.4976 59.4322 99.2656C59.0534 99.0312 58.761 98.7045 58.555 98.2855C58.3514 97.8641 58.2496 97.3741 58.2496 96.8153C58.2496 96.2566 58.3514 95.7642 58.555 95.3381C58.761 94.9096 59.0475 94.5758 59.4144 94.3366C59.7837 94.0952 60.2146 93.9744 60.707 93.9744C60.9911 93.9744 61.2717 94.0218 61.5487 94.1165C61.8256 94.2112 62.0778 94.3651 62.305 94.5781C62.5323 94.7888 62.7134 95.0682 62.8484 95.4162C62.9833 95.7642 63.0508 96.1927 63.0508 96.7017V97.0568H58.8462V96.3324H62.1985C62.1985 96.0246 62.137 95.75 62.0138 95.5085C61.8931 95.267 61.7203 95.0765 61.4954 94.9368C61.2728 94.7971 61.0101 94.7273 60.707 94.7273C60.3732 94.7273 60.0844 94.8101 59.8406 94.9759C59.5991 95.1392 59.4132 95.3523 59.283 95.6151C59.1528 95.8778 59.0877 96.1596 59.0877 96.4602V96.9432C59.0877 97.3551 59.1587 97.7043 59.3008 97.9908C59.4452 98.2749 59.6452 98.4915 59.9009 98.6406C60.1566 98.7874 60.4537 98.8608 60.7923 98.8608C61.0124 98.8608 61.2113 98.83 61.3888 98.7685C61.5688 98.7045 61.7238 98.6098 61.854 98.4844C61.9843 98.3565 62.0849 98.1979 62.1559 98.0085L62.9656 98.2358C62.8803 98.5104 62.7371 98.7519 62.5359 98.9602C62.3346 99.1662 62.0861 99.3272 61.7901 99.4432C61.4942 99.5568 61.1616 99.6136 60.7923 99.6136ZM66.5415 99.6136C66.0302 99.6136 65.5898 99.4929 65.2205 99.2514C64.8512 99.0099 64.5671 98.6773 64.3683 98.2536C64.1694 97.8298 64.07 97.3456 64.07 96.8011C64.07 96.2472 64.1718 95.7583 64.3754 95.3345C64.5813 94.9084 64.8678 94.5758 65.2347 94.3366C65.604 94.0952 66.0349 93.9744 66.5273 93.9744C66.9109 93.9744 67.2565 94.0455 67.5643 94.1875C67.872 94.3295 68.1242 94.5284 68.3207 94.7841C68.5172 95.0398 68.6391 95.3381 68.6864 95.679H67.8484C67.7844 95.4304 67.6424 95.2102 67.4222 95.0185C67.2044 94.8243 66.9109 94.7273 66.5415 94.7273C66.2148 94.7273 65.9284 94.8125 65.6822 94.983C65.4383 95.151 65.2478 95.389 65.1104 95.6967C64.9755 96.0021 64.908 96.3608 64.908 96.7727C64.908 97.1941 64.9743 97.5611 65.1069 97.8736C65.2418 98.1861 65.4312 98.4287 65.6751 98.6016C65.9213 98.7744 66.2101 98.8608 66.5415 98.8608C66.7594 98.8608 66.957 98.8229 67.1346 98.7472C67.3121 98.6714 67.4625 98.5625 67.5856 98.4205C67.7087 98.2784 67.7963 98.108 67.8484 97.9091H68.6864C68.6391 98.2311 68.5219 98.5211 68.3349 98.7791C68.1502 99.0348 67.9052 99.2384 67.5998 99.3899C67.2968 99.5391 66.944 99.6136 66.5415 99.6136ZM72.2837 94.0455V94.7557H69.457V94.0455H72.2837ZM70.2809 92.7386H71.119V97.9375C71.119 98.1742 71.1533 98.3518 71.2219 98.4702C71.293 98.5862 71.3829 98.6643 71.4918 98.7045C71.6031 98.7424 71.7203 98.7614 71.8434 98.7614C71.9357 98.7614 72.0115 98.7566 72.0707 98.7472C72.1299 98.7353 72.1772 98.7259 72.2127 98.7188L72.3832 99.4716C72.3263 99.4929 72.247 99.5142 72.1452 99.5355C72.0434 99.5592 71.9144 99.571 71.7582 99.571C71.5214 99.571 71.2894 99.5201 71.0621 99.4183C70.8372 99.3165 70.6502 99.1615 70.5011 98.9531C70.3543 98.7448 70.2809 98.482 70.2809 98.1648V92.7386Z" fill="var(--colors-neutral-neutral-800)"/>
<path d="M81.9999 97.8013L78.4614 94.2628L78.9332 93.791L81.9999 96.8577L85.0666 93.791L85.5384 94.2628L81.9999 97.8013Z" fill="var(--colors-neutral-neutral-500)"/>
<rect x="16.5" y="128.5" width="271" height="31" fill="white"/>
<rect x="16.5" y="128.5" width="271" height="31" stroke="var(--colors-neutral-neutral-800)"/>
<path d="M136.582 149.5V139.318H138.119V148.178H142.732V149.5H136.582ZM147.582 149.654C146.866 149.654 146.241 149.49 145.708 149.162C145.174 148.834 144.76 148.375 144.465 147.785C144.17 147.195 144.022 146.505 144.022 145.717C144.022 144.924 144.17 144.232 144.465 143.638C144.76 143.045 145.174 142.585 145.708 142.256C146.241 141.928 146.866 141.764 147.582 141.764C148.298 141.764 148.923 141.928 149.456 142.256C149.99 142.585 150.404 143.045 150.699 143.638C150.994 144.232 151.142 144.924 151.142 145.717C151.142 146.505 150.994 147.195 150.699 147.785C150.404 148.375 149.99 148.834 149.456 149.162C148.923 149.49 148.298 149.654 147.582 149.654ZM147.587 148.406C148.051 148.406 148.436 148.284 148.741 148.038C149.045 147.793 149.271 147.467 149.417 147.059C149.566 146.651 149.64 146.202 149.64 145.712C149.64 145.224 149.566 144.777 149.417 144.369C149.271 143.958 149.045 143.629 148.741 143.38C148.436 143.131 148.051 143.007 147.587 143.007C147.12 143.007 146.732 143.131 146.424 143.38C146.119 143.629 145.892 143.958 145.743 144.369C145.597 144.777 145.524 145.224 145.524 145.712C145.524 146.202 145.597 146.651 145.743 147.059C145.892 147.467 146.119 147.793 146.424 148.038C146.732 148.284 147.12 148.406 147.587 148.406ZM155.023 149.669C154.539 149.669 154.102 149.58 153.711 149.401C153.32 149.218 153.01 148.955 152.781 148.61C152.556 148.265 152.443 147.843 152.443 147.342C152.443 146.911 152.526 146.557 152.692 146.278C152.857 146 153.081 145.78 153.363 145.617C153.645 145.455 153.959 145.332 154.307 145.249C154.655 145.166 155.01 145.103 155.371 145.06C155.829 145.007 156.2 144.964 156.485 144.931C156.77 144.895 156.977 144.837 157.106 144.757C157.236 144.678 157.3 144.548 157.3 144.369V144.335C157.3 143.9 157.178 143.564 156.932 143.325C156.69 143.087 156.329 142.967 155.849 142.967C155.348 142.967 154.954 143.078 154.665 143.3C154.38 143.519 154.183 143.763 154.074 144.031L152.677 143.713C152.842 143.249 153.084 142.875 153.403 142.589C153.724 142.301 154.094 142.092 154.511 141.963C154.929 141.83 155.368 141.764 155.829 141.764C156.134 141.764 156.457 141.801 156.798 141.874C157.143 141.943 157.464 142.072 157.763 142.261C158.064 142.45 158.311 142.72 158.503 143.072C158.696 143.42 158.792 143.872 158.792 144.429V149.5H157.34V148.456H157.28C157.184 148.648 157.04 148.837 156.848 149.023C156.656 149.208 156.409 149.362 156.107 149.485C155.806 149.608 155.444 149.669 155.023 149.669ZM155.347 148.476C155.757 148.476 156.109 148.395 156.4 148.232C156.695 148.07 156.919 147.858 157.072 147.596C157.227 147.331 157.305 147.047 157.305 146.746V145.761C157.252 145.814 157.15 145.864 156.997 145.911C156.848 145.954 156.677 145.992 156.485 146.025C156.293 146.055 156.105 146.083 155.923 146.109C155.741 146.133 155.588 146.152 155.466 146.169C155.177 146.205 154.914 146.267 154.675 146.353C154.44 146.439 154.251 146.563 154.109 146.726C153.969 146.885 153.9 147.097 153.9 147.362C153.9 147.73 154.036 148.009 154.307 148.197C154.579 148.383 154.926 148.476 155.347 148.476ZM163.63 149.649C163.014 149.649 162.464 149.492 161.98 149.177C161.499 148.859 161.121 148.406 160.846 147.82C160.575 147.23 160.439 146.522 160.439 145.697C160.439 144.871 160.576 144.165 160.851 143.579C161.13 142.992 161.511 142.543 161.995 142.232C162.479 141.92 163.027 141.764 163.64 141.764C164.114 141.764 164.495 141.844 164.784 142.003C165.075 142.159 165.301 142.341 165.46 142.55C165.622 142.759 165.748 142.942 165.838 143.102H165.927V139.318H167.414V149.5H165.962V148.312H165.838C165.748 148.474 165.619 148.66 165.45 148.869C165.284 149.077 165.056 149.26 164.764 149.415C164.472 149.571 164.094 149.649 163.63 149.649ZM163.959 148.381C164.386 148.381 164.747 148.269 165.042 148.043C165.341 147.815 165.566 147.498 165.718 147.094C165.874 146.689 165.952 146.219 165.952 145.682C165.952 145.152 165.876 144.687 165.723 144.29C165.571 143.892 165.347 143.582 165.052 143.36C164.757 143.138 164.393 143.027 163.959 143.027C163.511 143.027 163.138 143.143 162.84 143.375C162.542 143.607 162.316 143.924 162.164 144.325C162.015 144.726 161.94 145.178 161.94 145.682C161.94 146.192 162.016 146.651 162.169 147.059C162.321 147.467 162.547 147.79 162.845 148.028C163.147 148.264 163.518 148.381 163.959 148.381Z" fill="var(--colors-neutral-neutral-800)"/>
</svg>
