<svg width="304" height="32" viewBox="0 0 304 32" fill="none" xmlns="http://www.w3.org/2000/svg">
<path d="M24.612 20V18.944L28.2 14.192L29.304 12.884H27.54H24.768V11.624H31.152V12.68L27.564 17.432L26.46 18.74H28.224H31.152V20H24.612Z" fill="var(--colors-neutral-neutral-600)"/>
<path d="M47.0256 19.5994C46.6089 19.5994 46.2337 19.5166 45.8999 19.3509C45.5661 19.1851 45.2985 18.9579 45.0973 18.669C44.8961 18.3802 44.786 18.0511 44.767 17.6818H45.6193C45.6525 18.0109 45.8016 18.2831 46.0668 18.4986C46.3343 18.7116 46.6539 18.8182 47.0256 18.8182C47.3239 18.8182 47.589 18.7483 47.821 18.6087C48.0554 18.469 48.2389 18.2772 48.3714 18.0334C48.5064 17.7872 48.5739 17.509 48.5739 17.1989C48.5739 16.8816 48.504 16.5987 48.3643 16.3501C48.227 16.0992 48.0376 15.9015 47.7962 15.7571C47.5547 15.6127 47.2789 15.5393 46.9688 15.5369C46.7462 15.5346 46.5178 15.5689 46.2834 15.6399C46.049 15.7086 45.8561 15.7973 45.7045 15.9062L44.8807 15.8068L45.321 12.2273H49.0994V13.0085H46.0597L45.804 15.1534H45.8466C45.9957 15.035 46.1828 14.9368 46.4077 14.8587C46.6326 14.7805 46.867 14.7415 47.1108 14.7415C47.5559 14.7415 47.9524 14.848 48.3004 15.0611C48.6508 15.2718 48.9254 15.5606 49.1243 15.9276C49.3255 16.2945 49.4261 16.7135 49.4261 17.1847C49.4261 17.6487 49.322 18.063 49.1136 18.4276C48.9077 18.7898 48.6236 19.0762 48.2614 19.2869C47.8991 19.4953 47.4872 19.5994 47.0256 19.5994ZM53.209 19.5994C52.6739 19.5994 52.2182 19.4538 51.8418 19.1626C51.4654 18.8691 51.1777 18.4441 50.9789 17.8878C50.78 17.3291 50.6806 16.6544 50.6806 15.8636C50.6806 15.0777 50.78 14.4065 50.9789 13.8501C51.1801 13.2914 51.4689 12.8653 51.8453 12.5717C52.2241 12.2758 52.6787 12.1278 53.209 12.1278C53.7393 12.1278 54.1926 12.2758 54.5691 12.5717C54.9479 12.8653 55.2367 13.2914 55.4355 13.8501C55.6368 14.4065 55.7374 15.0777 55.7374 15.8636C55.7374 16.6544 55.638 17.3291 55.4391 17.8878C55.2402 18.4441 54.9526 18.8691 54.5762 19.1626C54.1998 19.4538 53.744 19.5994 53.209 19.5994ZM53.209 18.8182C53.7393 18.8182 54.1512 18.5625 54.4448 18.0511C54.7383 17.5398 54.8851 16.8106 54.8851 15.8636C54.8851 15.2339 54.8176 14.6977 54.6827 14.255C54.5501 13.8123 54.3584 13.4749 54.1074 13.2429C53.8588 13.0109 53.5594 12.8949 53.209 12.8949C52.6834 12.8949 52.2727 13.1541 51.9767 13.6726C51.6808 14.1887 51.5328 14.919 51.5328 15.8636C51.5328 16.4934 51.5991 17.0284 51.7317 17.4688C51.8643 17.9091 52.0549 18.2441 52.3034 18.4737C52.5544 18.7034 52.8562 18.8182 53.209 18.8182ZM59.459 19.5994C58.9239 19.5994 58.4682 19.4538 58.0918 19.1626C57.7154 18.8691 57.4277 18.4441 57.2289 17.8878C57.03 17.3291 56.9306 16.6544 56.9306 15.8636C56.9306 15.0777 57.03 14.4065 57.2289 13.8501C57.4301 13.2914 57.7189 12.8653 58.0953 12.5717C58.4741 12.2758 58.9287 12.1278 59.459 12.1278C59.9893 12.1278 60.4426 12.2758 60.8191 12.5717C61.1979 12.8653 61.4867 13.2914 61.6855 13.8501C61.8868 14.4065 61.9874 15.0777 61.9874 15.8636C61.9874 16.6544 61.888 17.3291 61.6891 17.8878C61.4902 18.4441 61.2026 18.8691 60.8262 19.1626C60.4498 19.4538 59.994 19.5994 59.459 19.5994ZM59.459 18.8182C59.9893 18.8182 60.4012 18.5625 60.6948 18.0511C60.9883 17.5398 61.1351 16.8106 61.1351 15.8636C61.1351 15.2339 61.0676 14.6977 60.9327 14.255C60.8001 13.8123 60.6084 13.4749 60.3574 13.2429C60.1088 13.0109 59.8094 12.8949 59.459 12.8949C58.9334 12.8949 58.5227 13.1541 58.2267 13.6726C57.9308 14.1887 57.7828 14.919 57.7828 15.8636C57.7828 16.4934 57.8491 17.0284 57.9817 17.4688C58.1143 17.9091 58.3049 18.2441 58.5534 18.4737C58.8044 18.7034 59.1062 18.8182 59.459 18.8182Z" fill="var(--colors-neutral-neutral-800)"/>
<path d="M154.66 20.65C154.674 20.5367 154.68 20.4233 154.68 20.31C154.68 17.55 152.434 15.31 149.674 15.31C149.56 15.31 149.454 15.3167 149.347 15.33V10.6833H148.68V21.3167H159.32V20.65H154.66ZM149.347 20.65V15.99C149.454 15.9833 149.56 15.9767 149.674 15.9767C152.067 15.9767 154.014 17.9167 154.014 20.31C154.014 20.4233 154.007 20.5367 154 20.65H149.347Z" fill="var(--colors-neutral-neutral-700)" stroke="var(--colors-neutral-neutral-700)" stroke-width="0.333333" stroke-miterlimit="10"/>
<path d="M173.168 19.5994C172.869 19.5947 172.571 19.5379 172.273 19.429C171.974 19.3201 171.702 19.1366 171.456 18.8786C171.21 18.6181 171.012 18.2666 170.863 17.8239C170.714 17.3788 170.639 16.8201 170.639 16.1477C170.639 15.5038 170.7 14.9332 170.82 14.4361C170.941 13.9366 171.116 13.5163 171.346 13.1754C171.576 12.8321 171.853 12.5717 172.177 12.3942C172.504 12.2166 172.872 12.1278 173.281 12.1278C173.688 12.1278 174.051 12.2095 174.368 12.3729C174.688 12.5339 174.948 12.7588 175.149 13.0476C175.35 13.3364 175.481 13.669 175.54 14.0455H174.673C174.593 13.7187 174.437 13.4477 174.205 13.2322C173.973 13.0168 173.665 12.9091 173.281 12.9091C172.718 12.9091 172.274 13.1541 171.95 13.6442C171.628 14.1342 171.465 14.822 171.463 15.7074H171.52C171.652 15.5062 171.81 15.3345 171.992 15.1925C172.177 15.0481 172.38 14.9368 172.603 14.8587C172.826 14.7805 173.061 14.7415 173.31 14.7415C173.726 14.7415 174.107 14.8456 174.453 15.054C174.799 15.2599 175.076 15.5452 175.284 15.9098C175.492 16.272 175.597 16.6875 175.597 17.1562C175.597 17.6061 175.496 18.018 175.295 18.392C175.094 18.7637 174.811 19.0597 174.446 19.2798C174.084 19.4976 173.658 19.6042 173.168 19.5994ZM173.168 18.8182C173.466 18.8182 173.733 18.7436 173.97 18.5945C174.209 18.4453 174.397 18.2453 174.535 17.9943C174.674 17.7434 174.744 17.464 174.744 17.1562C174.744 16.8556 174.677 16.5821 174.542 16.3359C174.409 16.0874 174.226 15.8897 173.991 15.7429C173.759 15.5961 173.494 15.5227 173.196 15.5227C172.971 15.5227 172.762 15.5677 172.567 15.6577C172.373 15.7453 172.203 15.866 172.056 16.0199C171.912 16.1738 171.798 16.3501 171.715 16.549C171.632 16.7455 171.591 16.9527 171.591 17.1705C171.591 17.4593 171.658 17.7292 171.793 17.9801C171.931 18.2311 172.118 18.4335 172.354 18.5874C172.594 18.7412 172.865 18.8182 173.168 18.8182ZM179.308 12.1278C179.607 12.1302 179.905 12.187 180.203 12.2983C180.502 12.4096 180.774 12.5942 181.02 12.8523C181.266 13.108 181.464 13.4571 181.613 13.8999C181.762 14.3426 181.837 14.8977 181.837 15.5653C181.837 16.2116 181.775 16.7857 181.652 17.2876C181.531 17.7872 181.356 18.2086 181.127 18.5518C180.899 18.8951 180.622 19.1555 180.296 19.3331C179.971 19.5107 179.604 19.5994 179.195 19.5994C178.788 19.5994 178.424 19.5189 178.105 19.358C177.787 19.1946 177.527 18.9685 177.323 18.6797C177.122 18.3885 176.993 18.0511 176.936 17.6676H177.803C177.881 18.0014 178.036 18.2772 178.268 18.495C178.502 18.7105 178.811 18.8182 179.195 18.8182C179.756 18.8182 180.199 18.5732 180.523 18.0831C180.85 17.593 181.013 16.9006 181.013 16.0057H180.956C180.824 16.2045 180.666 16.3762 180.484 16.5206C180.302 16.665 180.099 16.7763 179.877 16.8544C179.654 16.9325 179.417 16.9716 179.166 16.9716C178.75 16.9716 178.367 16.8686 178.019 16.6626C177.674 16.4543 177.397 16.169 177.188 15.8068C176.982 15.4422 176.879 15.0256 176.879 14.5568C176.879 14.1117 176.979 13.7045 177.178 13.3352C177.379 12.9635 177.661 12.6676 178.023 12.4474C178.387 12.2273 178.816 12.1207 179.308 12.1278ZM179.308 12.9091C179.01 12.9091 178.741 12.9837 178.502 13.1328C178.266 13.2796 178.077 13.4785 177.938 13.7294C177.8 13.978 177.732 14.2538 177.732 14.5568C177.732 14.8598 177.798 15.1357 177.931 15.3842C178.066 15.6304 178.249 15.8269 178.481 15.9737C178.715 16.1181 178.982 16.1903 179.28 16.1903C179.505 16.1903 179.714 16.1465 179.909 16.0589C180.103 15.969 180.272 15.8471 180.416 15.6932C180.563 15.5369 180.678 15.3606 180.761 15.1641C180.844 14.9652 180.885 14.758 180.885 14.5426C180.885 14.2585 180.816 13.9922 180.679 13.7436C180.544 13.495 180.357 13.2938 180.118 13.1399C179.881 12.986 179.611 12.9091 179.308 12.9091ZM185.563 19.5994C185.075 19.5994 184.644 19.513 184.27 19.3402C183.899 19.165 183.609 18.9247 183.4 18.6193C183.192 18.3116 183.089 17.9612 183.091 17.5682C183.089 17.2604 183.149 16.9763 183.272 16.7159C183.395 16.4531 183.564 16.2341 183.777 16.0589C183.992 15.8814 184.232 15.7689 184.498 15.7216V15.679C184.15 15.589 183.873 15.3937 183.667 15.093C183.461 14.79 183.359 14.4455 183.361 14.0597C183.359 13.6903 183.452 13.3601 183.642 13.0689C183.831 12.7777 184.092 12.5481 184.423 12.38C184.757 12.2119 185.137 12.1278 185.563 12.1278C185.984 12.1278 186.361 12.2119 186.692 12.38C187.024 12.5481 187.284 12.7777 187.473 13.0689C187.665 13.3601 187.762 13.6903 187.765 14.0597C187.762 14.4455 187.657 14.79 187.449 15.093C187.243 15.3937 186.969 15.589 186.628 15.679V15.7216C186.891 15.7689 187.128 15.8814 187.338 16.0589C187.549 16.2341 187.717 16.4531 187.843 16.7159C187.968 16.9763 188.032 17.2604 188.034 17.5682C188.032 17.9612 187.926 18.3116 187.715 18.6193C187.507 18.9247 187.217 19.165 186.845 19.3402C186.475 19.513 186.048 19.5994 185.563 19.5994ZM185.563 18.8182C185.892 18.8182 186.176 18.7649 186.415 18.6584C186.654 18.5518 186.839 18.4015 186.969 18.2074C187.099 18.0133 187.166 17.786 187.168 17.5256C187.166 17.2509 187.095 17.0083 186.955 16.7976C186.815 16.5869 186.625 16.4212 186.383 16.3004C186.144 16.1797 185.871 16.1193 185.563 16.1193C185.253 16.1193 184.976 16.1797 184.732 16.3004C184.49 16.4212 184.3 16.5869 184.16 16.7976C184.023 17.0083 183.955 17.2509 183.958 17.5256C183.955 17.786 184.018 18.0133 184.146 18.2074C184.276 18.4015 184.462 18.5518 184.703 18.6584C184.945 18.7649 185.231 18.8182 185.563 18.8182ZM185.563 15.3665C185.823 15.3665 186.054 15.3144 186.255 15.2102C186.459 15.1061 186.619 14.9605 186.735 14.7734C186.851 14.5864 186.91 14.3674 186.912 14.1165C186.91 13.8703 186.852 13.656 186.738 13.4737C186.625 13.2891 186.467 13.147 186.266 13.0476C186.065 12.9458 185.83 12.8949 185.563 12.8949C185.291 12.8949 185.053 12.9458 184.849 13.0476C184.645 13.147 184.488 13.2891 184.377 13.4737C184.266 13.656 184.211 13.8703 184.213 14.1165C184.211 14.3674 184.267 14.5864 184.38 14.7734C184.496 14.9605 184.656 15.1061 184.86 15.2102C185.063 15.3144 185.298 15.3665 185.563 15.3665ZM191.853 19.5994C191.384 19.5994 190.966 19.5189 190.599 19.358C190.235 19.197 189.945 18.9732 189.729 18.6868C189.516 18.398 189.4 18.063 189.381 17.6818H190.276C190.295 17.9162 190.376 18.1186 190.518 18.2891C190.66 18.4571 190.845 18.5874 191.075 18.6797C191.305 18.772 191.559 18.8182 191.839 18.8182C192.151 18.8182 192.428 18.7637 192.67 18.6548C192.911 18.5459 193.1 18.3944 193.238 18.2003C193.375 18.0062 193.444 17.7812 193.444 17.5256C193.444 17.258 193.377 17.0225 193.245 16.8189C193.112 16.6129 192.918 16.4519 192.662 16.3359C192.407 16.2199 192.094 16.1619 191.725 16.1619H191.143V15.3807H191.725C192.014 15.3807 192.267 15.3286 192.485 15.2244C192.705 15.1203 192.877 14.9735 193 14.7841C193.125 14.5947 193.188 14.3722 193.188 14.1165C193.188 13.8703 193.134 13.656 193.025 13.4737C192.916 13.2914 192.762 13.1494 192.563 13.0476C192.367 12.9458 192.135 12.8949 191.867 12.8949C191.616 12.8949 191.379 12.9411 191.157 13.0334C190.937 13.1233 190.757 13.2547 190.617 13.4276C190.477 13.598 190.402 13.804 190.39 14.0455H189.537C189.552 13.6643 189.666 13.3305 189.882 13.044C190.097 12.7552 190.379 12.5303 190.727 12.3693C191.077 12.2083 191.462 12.1278 191.881 12.1278C192.331 12.1278 192.717 12.219 193.039 12.4013C193.361 12.5812 193.608 12.8191 193.781 13.1151C193.954 13.411 194.04 13.7306 194.04 14.0739C194.04 14.4834 193.933 14.8326 193.717 15.1214C193.504 15.4103 193.214 15.6103 192.847 15.7216V15.7784C193.306 15.8542 193.665 16.0495 193.923 16.3643C194.181 16.6768 194.31 17.0639 194.31 17.5256C194.31 17.9209 194.202 18.276 193.987 18.5909C193.774 18.9034 193.483 19.1496 193.113 19.3295C192.744 19.5095 192.324 19.5994 191.853 19.5994ZM196.163 19.5568C195.988 19.5568 195.837 19.4941 195.712 19.3686C195.587 19.2431 195.524 19.0928 195.524 18.9176C195.524 18.7424 195.587 18.5921 195.712 18.4666C195.837 18.3411 195.988 18.2784 196.163 18.2784C196.338 18.2784 196.489 18.3411 196.614 18.4666C196.739 18.5921 196.802 18.7424 196.802 18.9176C196.802 19.0336 196.773 19.1402 196.713 19.2372C196.657 19.3343 196.58 19.4124 196.483 19.4716C196.388 19.5284 196.281 19.5568 196.163 19.5568ZM200.41 19.5994C199.875 19.5994 199.419 19.4538 199.043 19.1626C198.667 18.8691 198.379 18.4441 198.18 17.8878C197.981 17.3291 197.882 16.6544 197.882 15.8636C197.882 15.0777 197.981 14.4065 198.18 13.8501C198.381 13.2914 198.67 12.8653 199.047 12.5717C199.425 12.2758 199.88 12.1278 200.41 12.1278C200.94 12.1278 201.394 12.2758 201.77 12.5717C202.149 12.8653 202.438 13.2914 202.637 13.8501C202.838 14.4065 202.939 15.0777 202.939 15.8636C202.939 16.6544 202.839 17.3291 202.64 17.8878C202.441 18.4441 202.154 18.8691 201.777 19.1626C201.401 19.4538 200.945 19.5994 200.41 19.5994ZM200.41 18.8182C200.94 18.8182 201.352 18.5625 201.646 18.0511C201.94 17.5398 202.086 16.8106 202.086 15.8636C202.086 15.2339 202.019 14.6977 201.884 14.255C201.751 13.8123 201.56 13.4749 201.309 13.2429C201.06 13.0109 200.761 12.8949 200.41 12.8949C199.885 12.8949 199.474 13.1541 199.178 13.6726C198.882 14.1887 198.734 14.919 198.734 15.8636C198.734 16.4934 198.8 17.0284 198.933 17.4688C199.065 17.9091 199.256 18.2441 199.505 18.4737C199.756 18.7034 200.057 18.8182 200.41 18.8182ZM204.32 19.5L207.573 13.0653V13.0085H203.823V12.2273H208.482V13.0511L205.243 19.5H204.32Z" fill="var(--colors-neutral-neutral-800)"/>
</svg>
