<svg width="1122" height="855" viewBox="0 0 1122 855" fill="none" xmlns="http://www.w3.org/2000/svg">
<mask id="path-1-inside-1_3169_1790" fill="white">
<path d="M1 21H21V855H1V21Z"/>
</mask>
<path d="M1 21H21V855H1V21Z" fill="white"/>
<path d="M20 21V855H22V21H20Z" fill="#E6E6E6" mask="url(#path-1-inside-1_3169_1790)"/>
<path d="M3.72727 122.69L11 122.69L11 123.571L4.65057 123.571L4.65057 123.614L5.82954 125.389L4.93466 125.389L3.72727 123.571L3.72727 122.69ZM11.0994 118.227C11.0994 118.762 10.9538 119.217 10.6626 119.594C10.3691 119.97 9.94413 120.258 9.38778 120.457C8.82907 120.656 8.15436 120.755 7.36364 120.755C6.57765 120.755 5.90649 120.656 5.35014 120.457C4.79143 120.255 4.36529 119.967 4.07173 119.59C3.7758 119.211 3.62784 118.757 3.62784 118.227C3.62784 117.696 3.7758 117.243 4.07173 116.866C4.36529 116.488 4.79143 116.199 5.35014 116C5.90649 115.799 6.57765 115.698 7.36364 115.698C8.15436 115.698 8.82907 115.798 9.38778 115.996C9.94413 116.195 10.3691 116.483 10.6626 116.859C10.9538 117.236 11.0994 117.692 11.0994 118.227ZM10.3182 118.227C10.3182 117.696 10.0625 117.284 9.55114 116.991C9.03977 116.697 8.31061 116.55 7.36364 116.55C6.7339 116.55 6.19768 116.618 5.75497 116.753C5.31226 116.885 4.9749 117.077 4.7429 117.328C4.51089 117.577 4.39489 117.876 4.39489 118.227C4.39489 118.752 4.65412 119.163 5.17258 119.459C5.68868 119.755 6.41903 119.903 7.36364 119.903C7.99337 119.903 8.52841 119.836 8.96875 119.704C9.40909 119.571 9.74408 119.381 9.97372 119.132C10.2034 118.881 10.3182 118.579 10.3182 118.227ZM11.0994 111.977C11.0994 112.512 10.9538 112.967 10.6626 113.344C10.3691 113.72 9.94413 114.008 9.38778 114.207C8.82907 114.406 8.15436 114.505 7.36364 114.505C6.57765 114.505 5.90649 114.406 5.35014 114.207C4.79143 114.005 4.36529 113.717 4.07173 113.34C3.7758 112.961 3.62784 112.507 3.62784 111.977C3.62784 111.446 3.7758 110.993 4.07173 110.616C4.36529 110.238 4.79143 109.949 5.35014 109.75C5.90649 109.549 6.57765 109.448 7.36364 109.448C8.15436 109.448 8.82907 109.548 9.38778 109.746C9.94413 109.945 10.3691 110.233 10.6626 110.609C10.9538 110.986 11.0994 111.442 11.0994 111.977ZM10.3182 111.977C10.3182 111.446 10.0625 111.034 9.55114 110.741C9.03977 110.447 8.31061 110.3 7.36364 110.3C6.7339 110.3 6.19768 110.368 5.75497 110.503C5.31226 110.635 4.9749 110.827 4.7429 111.078C4.51089 111.327 4.39489 111.626 4.39489 111.977C4.39489 112.502 4.65412 112.913 5.17258 113.209C5.68868 113.505 6.41903 113.653 7.36364 113.653C7.99337 113.653 8.52841 113.586 8.96875 113.454C9.40909 113.321 9.74408 113.131 9.97372 112.882C10.2034 112.631 10.3182 112.329 10.3182 111.977Z" fill="#808080"/>
<rect x="14" y="116.5" width="3" height="1" fill="#808080"/>
<path d="M11 224.247L10.3608 224.247L7.73295 221.847C7.42519 221.565 7.15767 221.333 6.9304 221.151C6.70076 220.968 6.48532 220.833 6.28409 220.746C6.08049 220.656 5.86742 220.611 5.64489 220.611C5.3892 220.611 5.16785 220.672 4.98082 220.795C4.7938 220.916 4.64938 221.082 4.54758 221.293C4.44579 221.503 4.39489 221.74 4.39489 222.003C4.39489 222.282 4.45289 222.526 4.56889 222.734C4.68253 222.94 4.84233 223.1 5.04829 223.214C5.25426 223.325 5.49574 223.381 5.77273 223.381L5.77273 224.219C5.34659 224.219 4.97254 224.121 4.65057 223.924C4.3286 223.728 4.07765 223.46 3.89773 223.121C3.7178 222.781 3.62784 222.398 3.62784 221.974C3.62784 221.548 3.7178 221.171 3.89773 220.842C4.07765 220.513 4.32031 220.254 4.62571 220.067C4.93111 219.88 5.27083 219.787 5.64489 219.787C5.9124 219.787 6.17401 219.835 6.42969 219.933C6.683 220.027 6.96591 220.193 7.27841 220.43C7.58854 220.664 7.96733 220.99 8.41477 221.406L10.1619 223.04L10.2187 223.04L10.2187 219.659L11 219.659L11 224.247ZM11.0994 215.82C11.0994 216.355 10.9538 216.811 10.6626 217.187C10.3691 217.564 9.94413 217.852 9.38778 218.05C8.82907 218.249 8.15436 218.349 7.36364 218.349C6.57765 218.349 5.90649 218.249 5.35014 218.05C4.79143 217.849 4.36529 217.56 4.07173 217.184C3.7758 216.805 3.62784 216.351 3.62784 215.82C3.62784 215.29 3.7758 214.837 4.07173 214.46C4.36529 214.081 4.79143 213.793 5.35014 213.594C5.90649 213.393 6.57765 213.292 7.36364 213.292C8.15436 213.292 8.82907 213.391 9.38778 213.59C9.94413 213.789 10.3691 214.077 10.6626 214.453C10.9538 214.83 11.0994 215.285 11.0994 215.82ZM10.3182 215.82C10.3182 215.29 10.0625 214.878 9.55114 214.585C9.03977 214.291 8.31061 214.144 7.36364 214.144C6.7339 214.144 6.19768 214.212 5.75497 214.347C5.31226 214.479 4.9749 214.671 4.7429 214.922C4.51089 215.17 4.39489 215.47 4.39489 215.82C4.39489 216.346 4.65412 216.757 5.17258 217.053C5.68868 217.348 6.41903 217.496 7.36364 217.496C7.99337 217.496 8.52841 217.43 8.96875 217.298C9.40909 217.165 9.74408 216.974 9.97372 216.726C10.2034 216.475 10.3182 216.173 10.3182 215.82ZM11.0994 209.57C11.0994 210.105 10.9538 210.561 10.6626 210.937C10.3691 211.314 9.94413 211.602 9.38778 211.8C8.82907 211.999 8.15436 212.099 7.36364 212.099C6.57765 212.099 5.90649 211.999 5.35014 211.8C4.79143 211.599 4.36529 211.31 4.07173 210.934C3.7758 210.555 3.62784 210.101 3.62784 209.57C3.62784 209.04 3.7758 208.587 4.07173 208.21C4.36529 207.831 4.79143 207.543 5.35014 207.344C5.90649 207.143 6.57765 207.042 7.36364 207.042C8.15436 207.042 8.82907 207.141 9.38778 207.34C9.94413 207.539 10.3691 207.827 10.6626 208.203C10.9538 208.58 11.0994 209.035 11.0994 209.57ZM10.3182 209.57C10.3182 209.04 10.0625 208.628 9.55114 208.335C9.03977 208.041 8.31061 207.894 7.36364 207.894C6.7339 207.894 6.19768 207.962 5.75497 208.097C5.31226 208.229 4.9749 208.421 4.7429 208.672C4.51089 208.92 4.39489 209.22 4.39489 209.57C4.39489 210.096 4.65412 210.507 5.17258 210.803C5.68868 211.098 6.41903 211.246 7.36364 211.246C7.99337 211.246 8.52841 211.18 8.96875 211.048C9.40909 210.915 9.74408 210.724 9.97372 210.476C10.2034 210.225 10.3182 209.923 10.3182 209.57Z" fill="#808080"/>
<rect x="14" y="215" width="3" height="1" fill="#808080"/>
<path d="M11.0994 320.79C11.0994 321.259 11.0189 321.676 10.858 322.043C10.697 322.408 10.4732 322.698 10.1868 322.913C9.89796 323.126 9.56297 323.242 9.18182 323.261L9.18182 322.366C9.41619 322.348 9.61861 322.267 9.78906 322.125C9.95715 321.983 10.0874 321.797 10.1797 321.567C10.272 321.338 10.3182 321.083 10.3182 320.804C10.3182 320.491 10.2637 320.214 10.1548 319.973C10.0459 319.732 9.89441 319.542 9.70028 319.405C9.50616 319.268 9.28125 319.199 9.02557 319.199C8.75805 319.199 8.52249 319.265 8.31889 319.398C8.11293 319.53 7.95194 319.724 7.83594 319.98C7.71993 320.236 7.66193 320.548 7.66193 320.918L7.66193 321.5L6.88068 321.5L6.88068 320.918C6.88068 320.629 6.8286 320.375 6.72443 320.158C6.62026 319.937 6.47348 319.766 6.28409 319.643C6.0947 319.517 5.87216 319.455 5.61648 319.455C5.37026 319.455 5.15601 319.509 4.97372 319.618C4.79143 319.727 4.64938 319.881 4.54758 320.08C4.44579 320.276 4.39489 320.508 4.39489 320.776C4.39489 321.027 4.44105 321.263 4.53338 321.486C4.62334 321.706 4.75473 321.886 4.92756 322.026C5.09801 322.165 5.30398 322.241 5.54545 322.253L5.54545 323.105C5.1643 323.091 4.83049 322.976 4.54403 322.761C4.25521 322.545 4.0303 322.263 3.86932 321.915C3.70833 321.565 3.62784 321.18 3.62784 320.761C3.62784 320.312 3.71899 319.926 3.90128 319.604C4.0812 319.282 4.31913 319.034 4.61506 318.862C4.91098 318.689 5.23059 318.602 5.57386 318.602C5.98343 318.602 6.33262 318.71 6.62145 318.925C6.91027 319.138 7.11032 319.429 7.22159 319.795L7.27841 319.795C7.35417 319.336 7.54948 318.978 7.86435 318.719C8.17685 318.461 8.56392 318.332 9.02557 318.332C9.42093 318.332 9.77604 318.44 10.0909 318.656C10.4034 318.869 10.6496 319.16 10.8295 319.529C11.0095 319.898 11.0994 320.319 11.0994 320.79ZM11.0994 314.508C11.0994 315.043 10.9538 315.499 10.6626 315.875C10.3691 316.251 9.94413 316.539 9.38778 316.738C8.82907 316.937 8.15436 317.036 7.36364 317.036C6.57765 317.036 5.90649 316.937 5.35014 316.738C4.79143 316.537 4.36529 316.248 4.07173 315.871C3.7758 315.493 3.62784 315.038 3.62784 314.508C3.62784 313.978 3.7758 313.524 4.07173 313.148C4.36529 312.769 4.79143 312.48 5.35014 312.281C5.90649 312.08 6.57765 311.979 7.36364 311.979C8.15436 311.979 8.82907 312.079 9.38778 312.278C9.94413 312.477 10.3691 312.764 10.6626 313.141C10.9538 313.517 11.0994 313.973 11.0994 314.508ZM10.3182 314.508C10.3182 313.978 10.0625 313.566 9.55114 313.272C9.03977 312.978 8.31061 312.832 7.36364 312.832C6.7339 312.832 6.19768 312.899 5.75497 313.034C5.31226 313.167 4.9749 313.358 4.7429 313.609C4.51089 313.858 4.39489 314.157 4.39489 314.508C4.39489 315.033 4.65412 315.444 5.17258 315.74C5.68868 316.036 6.41903 316.184 7.36364 316.184C7.99337 316.184 8.52841 316.118 8.96875 315.985C9.40909 315.853 9.74408 315.662 9.97372 315.413C10.2034 315.162 10.3182 314.861 10.3182 314.508ZM11.0994 308.258C11.0994 308.793 10.9538 309.249 10.6626 309.625C10.3691 310.001 9.94413 310.289 9.38778 310.488C8.82907 310.687 8.15436 310.786 7.36364 310.786C6.57765 310.786 5.90649 310.687 5.35014 310.488C4.79143 310.287 4.36529 309.998 4.07173 309.621C3.7758 309.243 3.62784 308.788 3.62784 308.258C3.62784 307.728 3.7758 307.274 4.07173 306.898C4.36529 306.519 4.79143 306.23 5.35014 306.031C5.90649 305.83 6.57765 305.729 7.36364 305.729C8.15436 305.729 8.82907 305.829 9.38778 306.028C9.94413 306.227 10.3691 306.514 10.6626 306.891C10.9538 307.267 11.0994 307.723 11.0994 308.258ZM10.3182 308.258C10.3182 307.728 10.0625 307.316 9.55114 307.022C9.03977 306.728 8.31061 306.582 7.36364 306.582C6.7339 306.582 6.19768 306.649 5.75497 306.784C5.31226 306.917 4.9749 307.108 4.7429 307.359C4.51089 307.608 4.39489 307.907 4.39489 308.258C4.39489 308.783 4.65412 309.194 5.17258 309.49C5.68868 309.786 6.41903 309.934 7.36364 309.934C7.99337 309.934 8.52841 309.868 8.96875 309.735C9.40909 309.603 9.74408 309.412 9.97372 309.163C10.2034 308.912 10.3182 308.611 10.3182 308.258Z" fill="#808080"/>
<rect x="14" y="314" width="3" height="1" fill="#808080"/>
<path d="M9.50852 422.418L8.78409 422.418L3.72727 419.222L3.72727 418.696L4.84943 418.696L4.84943 419.051L8.67045 421.466L8.72727 421.466L8.72727 417.162L9.50852 417.162L9.50852 422.418ZM11 418.994L9.28835 418.994L8.95099 418.994L3.72727 418.994L3.72727 418.156L11 418.156L11 418.994ZM11.0994 413.459C11.0994 413.994 10.9538 414.45 10.6626 414.826C10.3691 415.203 9.94413 415.49 9.38778 415.689C8.82907 415.888 8.15436 415.987 7.36364 415.987C6.57765 415.987 5.90649 415.888 5.35014 415.689C4.79143 415.488 4.36529 415.199 4.07173 414.823C3.7758 414.444 3.62784 413.989 3.62784 413.459C3.62784 412.929 3.7758 412.475 4.07173 412.099C4.36529 411.72 4.79143 411.431 5.35014 411.232C5.90649 411.031 6.57765 410.931 7.36364 410.931C8.15436 410.931 8.82907 411.03 9.38778 411.229C9.94413 411.428 10.3691 411.715 10.6626 412.092C10.9538 412.468 11.0994 412.924 11.0994 413.459ZM10.3182 413.459C10.3182 412.929 10.0625 412.517 9.55114 412.223C9.03977 411.93 8.31061 411.783 7.36364 411.783C6.7339 411.783 6.19768 411.85 5.75497 411.985C5.31226 412.118 4.9749 412.31 4.7429 412.561C4.51089 412.809 4.39489 413.109 4.39489 413.459C4.39489 413.985 4.65412 414.395 5.17258 414.691C5.68868 414.987 6.41903 415.135 7.36364 415.135C7.99337 415.135 8.52841 415.069 8.96875 414.936C9.40909 414.804 9.74408 414.613 9.97372 414.365C10.2034 414.114 10.3182 413.812 10.3182 413.459ZM11.0994 407.209C11.0994 407.744 10.9538 408.2 10.6626 408.576C10.3691 408.953 9.94413 409.24 9.38778 409.439C8.82907 409.638 8.15436 409.737 7.36364 409.737C6.57765 409.737 5.90649 409.638 5.35014 409.439C4.79143 409.238 4.36529 408.949 4.07173 408.573C3.7758 408.194 3.62784 407.739 3.62784 407.209C3.62784 406.679 3.7758 406.225 4.07173 405.849C4.36529 405.47 4.79143 405.181 5.35014 404.982C5.90649 404.781 6.57765 404.681 7.36364 404.681C8.15436 404.681 8.82907 404.78 9.38778 404.979C9.94413 405.178 10.3691 405.465 10.6626 405.842C10.9538 406.218 11.0994 406.674 11.0994 407.209ZM10.3182 407.209C10.3182 406.679 10.0625 406.267 9.55114 405.973C9.03977 405.68 8.31061 405.533 7.36364 405.533C6.7339 405.533 6.19768 405.6 5.75497 405.735C5.31226 405.868 4.9749 406.06 4.7429 406.311C4.51089 406.559 4.39489 406.859 4.39489 407.209C4.39489 407.735 4.65412 408.145 5.17258 408.441C5.68868 408.737 6.41903 408.885 7.36364 408.885C7.99337 408.885 8.52841 408.819 8.96875 408.686C9.40909 408.554 9.74408 408.363 9.97372 408.115C10.2034 407.864 10.3182 407.562 10.3182 407.209Z" fill="#808080"/>
<rect x="14" y="413" width="3" height="1" fill="#808080"/>
<path d="M11.0994 518.974C11.0994 519.391 11.0166 519.766 10.8509 520.1C10.6851 520.434 10.4579 520.701 10.169 520.903C9.88021 521.104 9.55114 521.214 9.18182 521.233L9.18182 520.381C9.51089 520.348 9.78314 520.198 9.99858 519.933C10.2116 519.666 10.3182 519.346 10.3182 518.974C10.3182 518.676 10.2483 518.411 10.1087 518.179C9.96899 517.945 9.77723 517.761 9.53338 517.629C9.28717 517.494 9.009 517.426 8.69886 517.426C8.38163 517.426 8.09872 517.496 7.85014 517.636C7.59919 517.773 7.40151 517.962 7.2571 518.204C7.11269 518.445 7.0393 518.721 7.03693 519.031C7.03456 519.254 7.06889 519.482 7.13991 519.717C7.20857 519.951 7.29735 520.144 7.40625 520.295L7.30682 521.119L3.72727 520.679L3.72727 516.901L4.50852 516.901L4.50852 519.94L6.65341 520.196L6.65341 520.153C6.53504 520.004 6.43679 519.817 6.35866 519.592C6.28054 519.367 6.24148 519.133 6.24148 518.889C6.24148 518.444 6.34801 518.048 6.56108 517.7C6.77178 517.349 7.06061 517.075 7.42756 516.876C7.79451 516.674 8.21354 516.574 8.68466 516.574C9.14867 516.574 9.56297 516.678 9.92756 516.886C10.2898 517.092 10.5762 517.376 10.7869 517.739C10.9953 518.101 11.0994 518.513 11.0994 518.974ZM11.0994 512.791C11.0994 513.326 10.9538 513.782 10.6626 514.158C10.3691 514.535 9.94413 514.822 9.38778 515.021C8.82907 515.22 8.15436 515.319 7.36364 515.319C6.57765 515.319 5.90649 515.22 5.35014 515.021C4.79143 514.82 4.36529 514.531 4.07173 514.155C3.7758 513.776 3.62784 513.321 3.62784 512.791C3.62784 512.261 3.7758 511.807 4.07173 511.431C4.36529 511.052 4.79143 510.763 5.35014 510.564C5.90649 510.363 6.57765 510.263 7.36364 510.263C8.15436 510.263 8.82907 510.362 9.38778 510.561C9.94413 510.76 10.3691 511.047 10.6626 511.424C10.9538 511.8 11.0994 512.256 11.0994 512.791ZM10.3182 512.791C10.3182 512.261 10.0625 511.849 9.55114 511.555C9.03977 511.262 8.31061 511.115 7.36364 511.115C6.7339 511.115 6.19768 511.182 5.75497 511.317C5.31226 511.45 4.9749 511.642 4.7429 511.893C4.51089 512.141 4.39489 512.441 4.39489 512.791C4.39489 513.317 4.65412 513.727 5.17258 514.023C5.68868 514.319 6.41903 514.467 7.36364 514.467C7.99337 514.467 8.52841 514.401 8.96875 514.268C9.40909 514.136 9.74408 513.945 9.97372 513.697C10.2034 513.446 10.3182 513.144 10.3182 512.791ZM11.0994 506.541C11.0994 507.076 10.9538 507.532 10.6626 507.908C10.3691 508.285 9.94413 508.572 9.38778 508.771C8.82907 508.97 8.15436 509.069 7.36364 509.069C6.57765 509.069 5.90649 508.97 5.35014 508.771C4.79143 508.57 4.36529 508.281 4.07173 507.905C3.7758 507.526 3.62784 507.071 3.62784 506.541C3.62784 506.011 3.7758 505.557 4.07173 505.181C4.36529 504.802 4.79143 504.513 5.35014 504.314C5.90649 504.113 6.57765 504.013 7.36364 504.013C8.15436 504.013 8.82907 504.112 9.38778 504.311C9.94413 504.51 10.3691 504.797 10.6626 505.174C10.9538 505.55 11.0994 506.006 11.0994 506.541ZM10.3182 506.541C10.3182 506.011 10.0625 505.599 9.55114 505.305C9.03977 505.012 8.31061 504.865 7.36364 504.865C6.7339 504.865 6.19768 504.932 5.75497 505.067C5.31226 505.2 4.9749 505.392 4.7429 505.643C4.51089 505.891 4.39489 506.191 4.39489 506.541C4.39489 507.067 4.65412 507.477 5.17258 507.773C5.68868 508.069 6.41903 508.217 7.36364 508.217C7.99337 508.217 8.52841 508.151 8.96875 508.018C9.40909 507.886 9.74408 507.695 9.97372 507.447C10.2034 507.196 10.3182 506.894 10.3182 506.541Z" fill="#808080"/>
<rect x="14" y="512" width="3" height="1" fill="#808080"/>
<path d="M11.0994 617.832C11.0947 618.131 11.0379 618.429 10.929 618.727C10.8201 619.026 10.6366 619.298 10.3786 619.544C10.1181 619.79 9.76657 619.988 9.32386 620.137C8.87879 620.286 8.32008 620.361 7.64773 620.361C7.00379 620.361 6.43324 620.3 5.93608 620.18C5.43655 620.059 5.01633 619.884 4.67543 619.654C4.33215 619.424 4.07173 619.147 3.89418 618.823C3.71662 618.496 3.62784 618.128 3.62784 617.719C3.62784 617.312 3.70952 616.949 3.87287 616.632C4.03385 616.312 4.25876 616.052 4.54758 615.851C4.83641 615.65 5.16903 615.519 5.54545 615.46L5.54545 616.327C5.21875 616.407 4.94768 616.563 4.73224 616.795C4.51681 617.027 4.40909 617.335 4.40909 617.719C4.40909 618.282 4.65412 618.726 5.14418 619.05C5.63423 619.372 6.32197 619.535 7.20739 619.537L7.20739 619.48C7.00616 619.348 6.83452 619.19 6.69247 619.008C6.54806 618.823 6.43679 618.62 6.35866 618.397C6.28054 618.174 6.24148 617.939 6.24148 617.69C6.24148 617.274 6.34564 616.893 6.55398 616.547C6.75994 616.201 7.04522 615.924 7.4098 615.716C7.77202 615.508 8.1875 615.403 8.65625 615.403C9.10606 615.403 9.51799 615.504 9.89205 615.705C10.2637 615.906 10.5597 616.189 10.7798 616.554C10.9976 616.916 11.1042 617.342 11.0994 617.832ZM10.3182 617.832C10.3182 617.534 10.2436 617.267 10.0945 617.03C9.94531 616.791 9.74526 616.603 9.49432 616.465C9.24337 616.326 8.96401 616.256 8.65625 616.256C8.35559 616.256 8.08215 616.323 7.83594 616.458C7.58736 616.591 7.38968 616.774 7.2429 617.009C7.09612 617.241 7.02273 617.506 7.02273 617.804C7.02273 618.029 7.06771 618.238 7.15767 618.433C7.24527 618.627 7.366 618.797 7.51989 618.944C7.67377 619.088 7.85014 619.202 8.04901 619.285C8.2455 619.368 8.45265 619.409 8.67045 619.409C8.95928 619.409 9.22917 619.342 9.48011 619.207C9.73106 619.069 9.93348 618.882 10.0874 618.646C10.2412 618.406 10.3182 618.135 10.3182 617.832ZM11.0994 611.635C11.0994 612.17 10.9538 612.626 10.6626 613.002C10.3691 613.378 9.94413 613.666 9.38778 613.865C8.82907 614.064 8.15436 614.163 7.36364 614.163C6.57765 614.163 5.90649 614.064 5.35014 613.865C4.79143 613.664 4.36529 613.375 4.07173 612.998C3.7758 612.62 3.62784 612.165 3.62784 611.635C3.62784 611.104 3.7758 610.651 4.07173 610.275C4.36529 609.896 4.79143 609.607 5.35014 609.408C5.90649 609.207 6.57765 609.106 7.36364 609.106C8.15436 609.106 8.82907 609.206 9.38778 609.405C9.94413 609.604 10.3691 609.891 10.6626 610.268C10.9538 610.644 11.0994 611.1 11.0994 611.635ZM10.3182 611.635C10.3182 611.104 10.0625 610.693 9.55114 610.399C9.03977 610.105 8.31061 609.959 7.36364 609.959C6.7339 609.959 6.19768 610.026 5.75497 610.161C5.31226 610.294 4.9749 610.485 4.7429 610.736C4.51089 610.985 4.39489 611.284 4.39489 611.635C4.39489 612.16 4.65412 612.571 5.17258 612.867C5.68868 613.163 6.41903 613.311 7.36364 613.311C7.99337 613.311 8.52841 613.245 8.96875 613.112C9.40909 612.979 9.74408 612.789 9.97372 612.54C10.2034 612.289 10.3182 611.988 10.3182 611.635ZM11.0994 605.385C11.0994 605.92 10.9538 606.376 10.6626 606.752C10.3691 607.128 9.94413 607.416 9.38778 607.615C8.82907 607.814 8.15436 607.913 7.36364 607.913C6.57765 607.913 5.90649 607.814 5.35014 607.615C4.79143 607.414 4.36529 607.125 4.07173 606.748C3.7758 606.37 3.62784 605.915 3.62784 605.385C3.62784 604.854 3.7758 604.401 4.07173 604.025C4.36529 603.646 4.79143 603.357 5.35014 603.158C5.90649 602.957 6.57765 602.856 7.36364 602.856C8.15436 602.856 8.82907 602.956 9.38778 603.155C9.94413 603.354 10.3691 603.641 10.6626 604.018C10.9538 604.394 11.0994 604.85 11.0994 605.385ZM10.3182 605.385C10.3182 604.854 10.0625 604.443 9.55114 604.149C9.03977 603.855 8.31061 603.709 7.36364 603.709C6.7339 603.709 6.19768 603.776 5.75497 603.911C5.31226 604.044 4.9749 604.235 4.7429 604.486C4.51089 604.735 4.39489 605.034 4.39489 605.385C4.39489 605.91 4.65412 606.321 5.17258 606.617C5.68868 606.913 6.41903 607.061 7.36364 607.061C7.99337 607.061 8.52841 606.995 8.96875 606.862C9.40909 606.729 9.74408 606.539 9.97372 606.29C10.2034 606.039 10.3182 605.738 10.3182 605.385Z" fill="#808080"/>
<rect x="14" y="611" width="3" height="1" fill="#808080"/>
<path d="M11 719.02L4.56534 715.767L4.50852 715.767L4.50852 719.517L3.72727 719.517L3.72727 714.858L4.55114 714.858L11 718.097L11 719.02ZM11.0994 711.318C11.0994 711.853 10.9538 712.309 10.6626 712.686C10.3691 713.062 9.94413 713.35 9.38778 713.548C8.82907 713.747 8.15436 713.847 7.36364 713.847C6.57765 713.847 5.90649 713.747 5.35014 713.548C4.79143 713.347 4.36529 713.058 4.07173 712.682C3.7758 712.303 3.62784 711.849 3.62784 711.318C3.62784 710.788 3.7758 710.335 4.07173 709.958C4.36529 709.579 4.79143 709.291 5.35014 709.092C5.90649 708.891 6.57765 708.79 7.36364 708.79C8.15436 708.79 8.82907 708.889 9.38778 709.088C9.94413 709.287 10.3691 709.575 10.6626 709.951C10.9538 710.328 11.0994 710.783 11.0994 711.318ZM10.3182 711.318C10.3182 710.788 10.0625 710.376 9.55114 710.083C9.03977 709.789 8.31061 709.642 7.36364 709.642C6.7339 709.642 6.19768 709.71 5.75497 709.845C5.31226 709.977 4.9749 710.169 4.7429 710.42C4.51089 710.669 4.39489 710.968 4.39489 711.318C4.39489 711.844 4.65412 712.255 5.17258 712.551C5.68868 712.847 6.41903 712.994 7.36364 712.994C7.99337 712.994 8.52841 712.928 8.96875 712.796C9.40909 712.663 9.74408 712.472 9.97372 712.224C10.2034 711.973 10.3182 711.671 10.3182 711.318ZM11.0994 705.068C11.0994 705.603 10.9538 706.059 10.6626 706.436C10.3691 706.812 9.94413 707.1 9.38778 707.298C8.82907 707.497 8.15436 707.597 7.36364 707.597C6.57765 707.597 5.90649 707.497 5.35014 707.298C4.79143 707.097 4.36529 706.808 4.07173 706.432C3.7758 706.053 3.62784 705.599 3.62784 705.068C3.62784 704.538 3.7758 704.085 4.07173 703.708C4.36529 703.329 4.79143 703.041 5.35014 702.842C5.90649 702.641 6.57765 702.54 7.36364 702.54C8.15436 702.54 8.82907 702.639 9.38778 702.838C9.94413 703.037 10.3691 703.325 10.6626 703.701C10.9538 704.078 11.0994 704.533 11.0994 705.068ZM10.3182 705.068C10.3182 704.538 10.0625 704.126 9.55114 703.833C9.03977 703.539 8.31061 703.392 7.36364 703.392C6.7339 703.392 6.19768 703.46 5.75497 703.595C5.31226 703.727 4.9749 703.919 4.7429 704.17C4.51089 704.419 4.39489 704.718 4.39489 705.068C4.39489 705.594 4.65412 706.005 5.17258 706.301C5.68868 706.597 6.41903 706.744 7.36364 706.744C7.99337 706.744 8.52841 706.678 8.96875 706.546C9.40909 706.413 9.74408 706.222 9.97372 705.974C10.2034 705.723 10.3182 705.421 10.3182 705.068Z" fill="#808080"/>
<rect x="14" y="710" width="3" height="1" fill="#808080"/>
<path d="M11.0994 815.918C11.0994 816.405 11.013 816.836 10.8402 817.21C10.665 817.582 10.4247 817.872 10.1193 818.08C9.81155 818.289 9.46117 818.392 9.06818 818.389C8.76042 818.392 8.47633 818.331 8.21591 818.208C7.95312 818.085 7.73414 817.917 7.55895 817.704C7.38139 817.488 7.26894 817.248 7.22159 816.983L7.17898 816.983C7.08902 817.331 6.8937 817.608 6.59304 817.814C6.29001 818.02 5.94555 818.122 5.55966 818.119C5.19034 818.122 4.86009 818.028 4.56889 817.839C4.2777 817.649 4.04806 817.389 3.87997 817.058C3.71188 816.724 3.62784 816.344 3.62784 815.918C3.62784 815.496 3.71188 815.12 3.87997 814.788C4.04806 814.457 4.2777 814.196 4.56889 814.007C4.86008 813.815 5.19034 813.718 5.55966 813.716C5.94555 813.718 6.29001 813.824 6.59304 814.032C6.8937 814.238 7.08901 814.511 7.17898 814.852L7.22159 814.852C7.26894 814.589 7.38139 814.353 7.55895 814.142C7.73414 813.931 7.95312 813.763 8.21591 813.638C8.47633 813.512 8.76042 813.448 9.06818 813.446C9.46117 813.448 9.81155 813.555 10.1193 813.766C10.4247 813.974 10.665 814.264 10.8402 814.636C11.013 815.005 11.0994 815.432 11.0994 815.918ZM10.3182 815.918C10.3182 815.589 10.2649 815.304 10.1584 815.065C10.0518 814.826 9.90151 814.642 9.70739 814.511C9.51326 814.381 9.28598 814.315 9.02557 814.312C8.75095 814.315 8.50829 814.386 8.29758 814.526C8.08688 814.665 7.92116 814.856 7.80043 815.097C7.67969 815.336 7.61932 815.61 7.61932 815.918C7.61932 816.228 7.67969 816.505 7.80043 816.749C7.92116 816.99 8.08688 817.181 8.29758 817.32C8.50829 817.458 8.75095 817.525 9.02557 817.523C9.28598 817.525 9.51326 817.462 9.70739 817.335C9.90152 817.204 10.0518 817.018 10.1584 816.777C10.2649 816.536 10.3182 816.249 10.3182 815.918ZM6.86648 815.918C6.86648 815.657 6.81439 815.426 6.71023 815.225C6.60606 815.022 6.46046 814.862 6.27344 814.746C6.08641 814.63 5.86742 814.571 5.61648 814.568C5.37026 814.571 5.15601 814.629 4.97372 814.742C4.78906 814.856 4.64702 815.013 4.54758 815.214C4.44579 815.416 4.39489 815.65 4.39489 815.918C4.39489 816.19 4.44579 816.428 4.54758 816.631C4.64702 816.835 4.78906 816.992 4.97372 817.104C5.15601 817.215 5.37026 817.269 5.61648 817.267C5.86742 817.269 6.08641 817.214 6.27344 817.1C6.46046 816.984 6.60606 816.824 6.71023 816.621C6.81439 816.417 6.86648 816.183 6.86648 815.918ZM11.0994 809.713C11.0994 810.248 10.9538 810.704 10.6626 811.08C10.3691 811.456 9.94413 811.744 9.38778 811.943C8.82907 812.142 8.15436 812.241 7.36364 812.241C6.57765 812.241 5.90649 812.142 5.35014 811.943C4.79143 811.742 4.36529 811.453 4.07173 811.077C3.7758 810.698 3.62784 810.243 3.62784 809.713C3.62784 809.183 3.7758 808.729 4.07173 808.353C4.36529 807.974 4.79143 807.685 5.35014 807.486C5.90649 807.285 6.57765 807.184 7.36364 807.184C8.15436 807.184 8.82907 807.284 9.38778 807.483C9.94413 807.682 10.3691 807.969 10.6626 808.346C10.9538 808.722 11.0994 809.178 11.0994 809.713ZM10.3182 809.713C10.3182 809.183 10.0625 808.771 9.55114 808.477C9.03977 808.184 8.31061 808.037 7.36364 808.037C6.7339 808.037 6.19768 808.104 5.75497 808.239C5.31226 808.372 4.9749 808.564 4.7429 808.814C4.51089 809.063 4.39489 809.363 4.39489 809.713C4.39489 810.238 4.65412 810.649 5.17258 810.945C5.68868 811.241 6.41903 811.389 7.36364 811.389C7.99337 811.389 8.52841 811.323 8.96875 811.19C9.40909 811.058 9.74408 810.867 9.97372 810.618C10.2034 810.367 10.3182 810.066 10.3182 809.713ZM11.0994 803.463C11.0994 803.998 10.9538 804.454 10.6626 804.83C10.3691 805.206 9.94413 805.494 9.38778 805.693C8.82907 805.892 8.15436 805.991 7.36364 805.991C6.57765 805.991 5.90649 805.892 5.35014 805.693C4.79143 805.492 4.36529 805.203 4.07173 804.827C3.7758 804.448 3.62784 803.993 3.62784 803.463C3.62784 802.933 3.7758 802.479 4.07173 802.103C4.36529 801.724 4.79143 801.435 5.35014 801.236C5.90649 801.035 6.57765 800.934 7.36364 800.934C8.15436 800.934 8.82907 801.034 9.38778 801.233C9.94413 801.432 10.3691 801.719 10.6626 802.096C10.9538 802.472 11.0994 802.928 11.0994 803.463ZM10.3182 803.463C10.3182 802.933 10.0625 802.521 9.55114 802.227C9.03977 801.934 8.31061 801.787 7.36364 801.787C6.7339 801.787 6.19768 801.854 5.75497 801.989C5.31226 802.122 4.9749 802.314 4.7429 802.564C4.51089 802.813 4.39489 803.113 4.39489 803.463C4.39489 803.988 4.65412 804.399 5.17258 804.695C5.68868 804.991 6.41903 805.139 7.36364 805.139C7.99337 805.139 8.52841 805.073 8.96875 804.94C9.40909 804.808 9.74408 804.617 9.97372 804.368C10.2034 804.117 10.3182 803.816 10.3182 803.463Z" fill="#808080"/>
<rect x="14" y="809" width="3" height="1" fill="#808080"/>
<mask id="path-19-inside-2_3169_1790" fill="white">
<path d="M1122 1L1122 21L21 21L21 0.999952L1122 1Z"/>
</mask>
<path d="M1122 1L1122 21L21 21L21 0.999952L1122 1Z" fill="white"/>
<path d="M1122 20L21 20L21 22L1122 22L1122 20Z" fill="#E6E6E6" mask="url(#path-19-inside-2_3169_1790)"/>
<path d="M1103.31 3.72727V11H1102.43V4.65057H1102.39L1100.61 5.82955V4.93466L1102.43 3.72727H1103.31ZM1107.96 3.72727V11H1107.08V4.65057H1107.03L1105.26 5.82955V4.93466L1107.08 3.72727H1107.96ZM1112.42 11.0994C1111.89 11.0994 1111.43 10.9538 1111.05 10.6626C1110.68 10.3691 1110.39 9.94413 1110.19 9.38778C1109.99 8.82907 1109.89 8.15436 1109.89 7.36364C1109.89 6.57765 1109.99 5.90649 1110.19 5.35014C1110.39 4.79143 1110.68 4.36529 1111.06 4.07173C1111.44 3.7758 1111.89 3.62784 1112.42 3.62784C1112.95 3.62784 1113.41 3.7758 1113.78 4.07173C1114.16 4.36529 1114.45 4.79143 1114.65 5.35014C1114.85 5.90649 1114.95 6.57765 1114.95 7.36364C1114.95 8.15436 1114.85 8.82907 1114.65 9.38778C1114.45 9.94413 1114.17 10.3691 1113.79 10.6626C1113.41 10.9538 1112.96 11.0994 1112.42 11.0994ZM1112.42 10.3182C1112.95 10.3182 1113.36 10.0625 1113.66 9.55114C1113.95 9.03977 1114.1 8.31061 1114.1 7.36364C1114.1 6.7339 1114.03 6.19768 1113.9 5.75497C1113.76 5.31226 1113.57 4.97491 1113.32 4.7429C1113.07 4.51089 1112.77 4.39489 1112.42 4.39489C1111.9 4.39489 1111.49 4.65412 1111.19 5.17259C1110.89 5.68868 1110.75 6.41903 1110.75 7.36364C1110.75 7.99337 1110.81 8.52841 1110.94 8.96875C1111.08 9.40909 1111.27 9.74408 1111.52 9.97372C1111.77 10.2034 1112.07 10.3182 1112.42 10.3182ZM1118.67 11.0994C1118.14 11.0994 1117.68 10.9538 1117.3 10.6626C1116.93 10.3691 1116.64 9.94413 1116.44 9.38778C1116.24 8.82907 1116.14 8.15436 1116.14 7.36364C1116.14 6.57765 1116.24 5.90649 1116.44 5.35014C1116.64 4.79143 1116.93 4.36529 1117.31 4.07173C1117.69 3.7758 1118.14 3.62784 1118.67 3.62784C1119.2 3.62784 1119.66 3.7758 1120.03 4.07173C1120.41 4.36529 1120.7 4.79143 1120.9 5.35014C1121.1 5.90649 1121.2 6.57765 1121.2 7.36364C1121.2 8.15436 1121.1 8.82907 1120.9 9.38778C1120.7 9.94413 1120.42 10.3691 1120.04 10.6626C1119.66 10.9538 1119.21 11.0994 1118.67 11.0994ZM1118.67 10.3182C1119.2 10.3182 1119.61 10.0625 1119.91 9.55114C1120.2 9.03977 1120.35 8.31061 1120.35 7.36364C1120.35 6.7339 1120.28 6.19768 1120.15 5.75497C1120.01 5.31226 1119.82 4.97491 1119.57 4.7429C1119.32 4.51089 1119.02 4.39489 1118.67 4.39489C1118.15 4.39489 1117.74 4.65412 1117.44 5.17259C1117.14 5.68868 1117 6.41903 1117 7.36364C1117 7.99337 1117.06 8.52841 1117.19 8.96875C1117.33 9.40909 1117.52 9.74408 1117.77 9.97372C1118.02 10.2034 1118.32 10.3182 1118.67 10.3182Z" fill="#808080"/>
<rect x="1111.5" y="14" width="3" height="1" transform="rotate(90 1111.5 14)" fill="#808080"/>
<path d="M999.31 3.72727V11H998.429V4.65057H998.386L996.611 5.82955V4.93466L998.429 3.72727H999.31ZM1003.77 11.0994C1003.24 11.0994 1002.78 10.9538 1002.41 10.6626C1002.03 10.3691 1001.74 9.94413 1001.54 9.38778C1001.34 8.82907 1001.25 8.15436 1001.25 7.36364C1001.25 6.57765 1001.34 5.90649 1001.54 5.35014C1001.74 4.79143 1002.03 4.36529 1002.41 4.07173C1002.79 3.7758 1003.24 3.62784 1003.77 3.62784C1004.3 3.62784 1004.76 3.7758 1005.13 4.07173C1005.51 4.36529 1005.8 4.79143 1006 5.35014C1006.2 5.90649 1006.3 6.57765 1006.3 7.36364C1006.3 8.15436 1006.2 8.82907 1006 9.38778C1005.8 9.94413 1005.52 10.3691 1005.14 10.6626C1004.76 10.9538 1004.31 11.0994 1003.77 11.0994ZM1003.77 10.3182C1004.3 10.3182 1004.72 10.0625 1005.01 9.55114C1005.3 9.03977 1005.45 8.31061 1005.45 7.36364C1005.45 6.7339 1005.38 6.19768 1005.25 5.75497C1005.11 5.31226 1004.92 4.97491 1004.67 4.7429C1004.42 4.51089 1004.12 4.39489 1003.77 4.39489C1003.25 4.39489 1002.84 4.65412 1002.54 5.17259C1002.25 5.68868 1002.1 6.41903 1002.1 7.36364C1002.1 7.99337 1002.16 8.52841 1002.3 8.96875C1002.43 9.40909 1002.62 9.74408 1002.87 9.97372C1003.12 10.2034 1003.42 10.3182 1003.77 10.3182ZM1010.02 11.0994C1009.49 11.0994 1009.03 10.9538 1008.66 10.6626C1008.28 10.3691 1007.99 9.94413 1007.79 9.38778C1007.59 8.82907 1007.5 8.15436 1007.5 7.36364C1007.5 6.57765 1007.59 5.90649 1007.79 5.35014C1007.99 4.79143 1008.28 4.36529 1008.66 4.07173C1009.04 3.7758 1009.49 3.62784 1010.02 3.62784C1010.55 3.62784 1011.01 3.7758 1011.38 4.07173C1011.76 4.36529 1012.05 4.79143 1012.25 5.35014C1012.45 5.90649 1012.55 6.57765 1012.55 7.36364C1012.55 8.15436 1012.45 8.82907 1012.25 9.38778C1012.05 9.94413 1011.77 10.3691 1011.39 10.6626C1011.01 10.9538 1010.56 11.0994 1010.02 11.0994ZM1010.02 10.3182C1010.55 10.3182 1010.97 10.0625 1011.26 9.55114C1011.55 9.03977 1011.7 8.31061 1011.7 7.36364C1011.7 6.7339 1011.63 6.19768 1011.5 5.75497C1011.36 5.31226 1011.17 4.97491 1010.92 4.7429C1010.67 4.51089 1010.37 4.39489 1010.02 4.39489C1009.5 4.39489 1009.09 4.65412 1008.79 5.17259C1008.5 5.68868 1008.35 6.41903 1008.35 7.36364C1008.35 7.99337 1008.41 8.52841 1008.55 8.96875C1008.68 9.40909 1008.87 9.74408 1009.12 9.97372C1009.37 10.2034 1009.67 10.3182 1010.02 10.3182ZM1016.27 11.0994C1015.74 11.0994 1015.28 10.9538 1014.91 10.6626C1014.53 10.3691 1014.24 9.94413 1014.04 9.38778C1013.84 8.82907 1013.75 8.15436 1013.75 7.36364C1013.75 6.57765 1013.84 5.90649 1014.04 5.35014C1014.24 4.79143 1014.53 4.36529 1014.91 4.07173C1015.29 3.7758 1015.74 3.62784 1016.27 3.62784C1016.8 3.62784 1017.26 3.7758 1017.63 4.07173C1018.01 4.36529 1018.3 4.79143 1018.5 5.35014C1018.7 5.90649 1018.8 6.57765 1018.8 7.36364C1018.8 8.15436 1018.7 8.82907 1018.5 9.38778C1018.3 9.94413 1018.02 10.3691 1017.64 10.6626C1017.26 10.9538 1016.81 11.0994 1016.27 11.0994ZM1016.27 10.3182C1016.8 10.3182 1017.22 10.0625 1017.51 9.55114C1017.8 9.03977 1017.95 8.31061 1017.95 7.36364C1017.95 6.7339 1017.88 6.19768 1017.75 5.75497C1017.61 5.31226 1017.42 4.97491 1017.17 4.7429C1016.92 4.51089 1016.62 4.39489 1016.27 4.39489C1015.75 4.39489 1015.34 4.65412 1015.04 5.17259C1014.75 5.68868 1014.6 6.41903 1014.6 7.36364C1014.6 7.99337 1014.66 8.52841 1014.8 8.96875C1014.93 9.40909 1015.12 9.74408 1015.37 9.97372C1015.62 10.2034 1015.92 10.3182 1016.27 10.3182Z" fill="#808080"/>
<rect x="1008.5" y="14" width="3" height="1" transform="rotate(90 1008.5 14)" fill="#808080"/>
<path d="M900.068 3.62784C900.366 3.63021 900.665 3.68703 900.963 3.7983C901.261 3.90956 901.534 4.09422 901.78 4.35227C902.026 4.60795 902.224 4.95715 902.373 5.39986C902.522 5.84257 902.597 6.39773 902.597 7.06534C902.597 7.71165 902.535 8.28575 902.412 8.78764C902.291 9.28717 902.116 9.70857 901.886 10.0518C901.659 10.3951 901.382 10.6555 901.055 10.8331C900.731 11.0107 900.364 11.0994 899.955 11.0994C899.547 11.0994 899.184 11.0189 898.864 10.858C898.547 10.6946 898.287 10.4685 898.083 10.1797C897.882 9.88849 897.753 9.55114 897.696 9.16761H898.562C898.641 9.50142 898.796 9.77723 899.028 9.99503C899.262 10.2105 899.571 10.3182 899.955 10.3182C900.516 10.3182 900.958 10.0732 901.283 9.5831C901.609 9.09304 901.773 8.40057 901.773 7.50568H901.716C901.583 7.70455 901.426 7.87618 901.244 8.0206C901.061 8.16501 900.859 8.27628 900.636 8.3544C900.414 8.43253 900.177 8.47159 899.926 8.47159C899.509 8.47159 899.127 8.36861 898.779 8.16264C898.433 7.95431 898.156 7.66903 897.948 7.30682C897.742 6.94223 897.639 6.52557 897.639 6.05682C897.639 5.61174 897.739 5.20455 897.938 4.83523C898.139 4.46354 898.42 4.16761 898.783 3.94744C899.147 3.72727 899.576 3.62074 900.068 3.62784ZM900.068 4.40909C899.77 4.40909 899.501 4.48366 899.262 4.63281C899.025 4.77959 898.837 4.97846 898.697 5.2294C898.56 5.47798 898.491 5.75379 898.491 6.05682C898.491 6.35985 898.558 6.63565 898.69 6.88423C898.825 7.13044 899.009 7.32694 899.241 7.47372C899.475 7.61813 899.741 7.69034 900.04 7.69034C900.265 7.69034 900.474 7.64654 900.668 7.55895C900.862 7.46899 901.032 7.34706 901.176 7.19318C901.323 7.03693 901.438 6.86056 901.521 6.66406C901.603 6.4652 901.645 6.25805 901.645 6.04261C901.645 5.75852 901.576 5.49219 901.439 5.24361C901.304 4.99503 901.117 4.7938 900.878 4.63991C900.641 4.48603 900.371 4.40909 900.068 4.40909ZM906.365 11.0994C905.83 11.0994 905.374 10.9538 904.998 10.6626C904.622 10.3691 904.334 9.94413 904.135 9.38778C903.936 8.82907 903.837 8.15436 903.837 7.36364C903.837 6.57765 903.936 5.90649 904.135 5.35014C904.336 4.79143 904.625 4.36529 905.002 4.07173C905.38 3.7758 905.835 3.62784 906.365 3.62784C906.896 3.62784 907.349 3.7758 907.725 4.07173C908.104 4.36529 908.393 4.79143 908.592 5.35014C908.793 5.90649 908.894 6.57765 908.894 7.36364C908.894 8.15436 908.794 8.82907 908.595 9.38778C908.396 9.94413 908.109 10.3691 907.732 10.6626C907.356 10.9538 906.9 11.0994 906.365 11.0994ZM906.365 10.3182C906.896 10.3182 907.307 10.0625 907.601 9.55114C907.895 9.03977 908.041 8.31061 908.041 7.36364C908.041 6.7339 907.974 6.19768 907.839 5.75497C907.706 5.31226 907.515 4.97491 907.264 4.7429C907.015 4.51089 906.716 4.39489 906.365 4.39489C905.84 4.39489 905.429 4.65412 905.133 5.17259C904.837 5.68868 904.689 6.41903 904.689 7.36364C904.689 7.99337 904.755 8.52841 904.888 8.96875C905.021 9.40909 905.211 9.74408 905.46 9.97372C905.711 10.2034 906.012 10.3182 906.365 10.3182ZM912.615 11.0994C912.08 11.0994 911.624 10.9538 911.248 10.6626C910.872 10.3691 910.584 9.94413 910.385 9.38778C910.186 8.82907 910.087 8.15436 910.087 7.36364C910.087 6.57765 910.186 5.90649 910.385 5.35014C910.586 4.79143 910.875 4.36529 911.252 4.07173C911.63 3.7758 912.085 3.62784 912.615 3.62784C913.146 3.62784 913.599 3.7758 913.975 4.07173C914.354 4.36529 914.643 4.79143 914.842 5.35014C915.043 5.90649 915.144 6.57765 915.144 7.36364C915.144 8.15436 915.044 8.82907 914.845 9.38778C914.646 9.94413 914.359 10.3691 913.982 10.6626C913.606 10.9538 913.15 11.0994 912.615 11.0994ZM912.615 10.3182C913.146 10.3182 913.557 10.0625 913.851 9.55114C914.145 9.03977 914.291 8.31061 914.291 7.36364C914.291 6.7339 914.224 6.19768 914.089 5.75497C913.956 5.31226 913.765 4.97491 913.514 4.7429C913.265 4.51089 912.966 4.39489 912.615 4.39489C912.09 4.39489 911.679 4.65412 911.383 5.17259C911.087 5.68868 910.939 6.41903 910.939 7.36364C910.939 7.99337 911.005 8.52841 911.138 8.96875C911.271 9.40909 911.461 9.74408 911.71 9.97372C911.961 10.2034 912.262 10.3182 912.615 10.3182Z" fill="#808080"/>
<rect x="907" y="14" width="3" height="1" transform="rotate(90 907 14)" fill="#808080"/>
<path d="M801.082 11.0994C800.595 11.0994 800.164 11.013 799.79 10.8402C799.418 10.665 799.128 10.4247 798.92 10.1193C798.711 9.81155 798.608 9.46117 798.611 9.06818C798.608 8.76042 798.669 8.47633 798.792 8.21591C798.915 7.95312 799.083 7.73414 799.296 7.55895C799.512 7.38139 799.752 7.26894 800.017 7.22159V7.17898C799.669 7.08902 799.392 6.8937 799.186 6.59304C798.98 6.29001 798.878 5.94555 798.881 5.55966C798.878 5.19034 798.972 4.86009 799.161 4.56889C799.351 4.2777 799.611 4.04806 799.942 3.87997C800.276 3.71188 800.656 3.62784 801.082 3.62784C801.504 3.62784 801.88 3.71188 802.212 3.87997C802.543 4.04806 802.804 4.2777 802.993 4.56889C803.185 4.86009 803.282 5.19034 803.284 5.55966C803.282 5.94555 803.176 6.29001 802.968 6.59304C802.762 6.8937 802.489 7.08902 802.148 7.17898V7.22159C802.411 7.26894 802.647 7.38139 802.858 7.55895C803.069 7.73414 803.237 7.95312 803.362 8.21591C803.488 8.47633 803.552 8.76042 803.554 9.06818C803.552 9.46117 803.445 9.81155 803.234 10.1193C803.026 10.4247 802.736 10.665 802.364 10.8402C801.995 11.013 801.568 11.0994 801.082 11.0994ZM801.082 10.3182C801.411 10.3182 801.696 10.2649 801.935 10.1584C802.174 10.0518 802.358 9.90152 802.489 9.70739C802.619 9.51326 802.685 9.28598 802.688 9.02557C802.685 8.75095 802.614 8.50829 802.474 8.29759C802.335 8.08688 802.144 7.92116 801.903 7.80043C801.664 7.67969 801.39 7.61932 801.082 7.61932C800.772 7.61932 800.495 7.67969 800.251 7.80043C800.01 7.92116 799.819 8.08688 799.68 8.29759C799.542 8.50829 799.475 8.75095 799.477 9.02557C799.475 9.28598 799.538 9.51326 799.665 9.70739C799.796 9.90152 799.982 10.0518 800.223 10.1584C800.464 10.2649 800.751 10.3182 801.082 10.3182ZM801.082 6.86648C801.343 6.86648 801.574 6.81439 801.775 6.71023C801.978 6.60606 802.138 6.46046 802.254 6.27344C802.37 6.08641 802.429 5.86742 802.432 5.61648C802.429 5.37026 802.371 5.15601 802.258 4.97372C802.144 4.78906 801.987 4.64702 801.786 4.54759C801.584 4.44579 801.35 4.39489 801.082 4.39489C800.81 4.39489 800.572 4.44579 800.369 4.54759C800.165 4.64702 800.008 4.78906 799.896 4.97372C799.785 5.15601 799.731 5.37026 799.733 5.61648C799.731 5.86742 799.786 6.08641 799.9 6.27344C800.016 6.46046 800.176 6.60606 800.379 6.71023C800.583 6.81439 800.817 6.86648 801.082 6.86648ZM807.287 11.0994C806.752 11.0994 806.296 10.9538 805.92 10.6626C805.544 10.3691 805.256 9.94413 805.057 9.38778C804.858 8.82907 804.759 8.15436 804.759 7.36364C804.759 6.57765 804.858 5.90649 805.057 5.35014C805.258 4.79143 805.547 4.36529 805.923 4.07173C806.302 3.7758 806.757 3.62784 807.287 3.62784C807.817 3.62784 808.271 3.7758 808.647 4.07173C809.026 4.36529 809.315 4.79143 809.514 5.35014C809.715 5.90649 809.816 6.57765 809.816 7.36364C809.816 8.15436 809.716 8.82907 809.517 9.38778C809.318 9.94413 809.031 10.3691 808.654 10.6626C808.278 10.9538 807.822 11.0994 807.287 11.0994ZM807.287 10.3182C807.817 10.3182 808.229 10.0625 808.523 9.55114C808.816 9.03977 808.963 8.31061 808.963 7.36364C808.963 6.7339 808.896 6.19768 808.761 5.75497C808.628 5.31226 808.436 4.97491 808.186 4.7429C807.937 4.51089 807.637 4.39489 807.287 4.39489C806.762 4.39489 806.351 4.65412 806.055 5.17259C805.759 5.68868 805.611 6.41903 805.611 7.36364C805.611 7.99337 805.677 8.52841 805.81 8.96875C805.942 9.40909 806.133 9.74408 806.382 9.97372C806.633 10.2034 806.934 10.3182 807.287 10.3182ZM813.537 11.0994C813.002 11.0994 812.546 10.9538 812.17 10.6626C811.794 10.3691 811.506 9.94413 811.307 9.38778C811.108 8.82907 811.009 8.15436 811.009 7.36364C811.009 6.57765 811.108 5.90649 811.307 5.35014C811.508 4.79143 811.797 4.36529 812.173 4.07173C812.552 3.7758 813.007 3.62784 813.537 3.62784C814.067 3.62784 814.521 3.7758 814.897 4.07173C815.276 4.36529 815.565 4.79143 815.764 5.35014C815.965 5.90649 816.066 6.57765 816.066 7.36364C816.066 8.15436 815.966 8.82907 815.767 9.38778C815.568 9.94413 815.281 10.3691 814.904 10.6626C814.528 10.9538 814.072 11.0994 813.537 11.0994ZM813.537 10.3182C814.067 10.3182 814.479 10.0625 814.773 9.55114C815.066 9.03977 815.213 8.31061 815.213 7.36364C815.213 6.7339 815.146 6.19768 815.011 5.75497C814.878 5.31226 814.686 4.97491 814.436 4.7429C814.187 4.51089 813.887 4.39489 813.537 4.39489C813.012 4.39489 812.601 4.65412 812.305 5.17259C812.009 5.68868 811.861 6.41903 811.861 7.36364C811.861 7.99337 811.927 8.52841 812.06 8.96875C812.192 9.40909 812.383 9.74408 812.632 9.97372C812.883 10.2034 813.184 10.3182 813.537 10.3182Z" fill="#808080"/>
<rect x="808" y="14" width="3" height="1" transform="rotate(90 808 14)" fill="#808080"/>
<path d="M699.98 11L703.233 4.56534V4.50852H699.483V3.72727H704.142V4.55114L700.903 11H699.98ZM707.682 11.0994C707.147 11.0994 706.691 10.9538 706.314 10.6626C705.938 10.3691 705.65 9.94413 705.452 9.38778C705.253 8.82907 705.153 8.15436 705.153 7.36364C705.153 6.57765 705.253 5.90649 705.452 5.35014C705.653 4.79143 705.942 4.36529 706.318 4.07173C706.697 3.7758 707.151 3.62784 707.682 3.62784C708.212 3.62784 708.665 3.7758 709.042 4.07173C709.421 4.36529 709.709 4.79143 709.908 5.35014C710.109 5.90649 710.21 6.57765 710.21 7.36364C710.21 8.15436 710.111 8.82907 709.912 9.38778C709.713 9.94413 709.425 10.3691 709.049 10.6626C708.672 10.9538 708.217 11.0994 707.682 11.0994ZM707.682 10.3182C708.212 10.3182 708.624 10.0625 708.917 9.55114C709.211 9.03977 709.358 8.31061 709.358 7.36364C709.358 6.7339 709.29 6.19768 709.155 5.75497C709.023 5.31226 708.831 4.97491 708.58 4.7429C708.331 4.51089 708.032 4.39489 707.682 4.39489C707.156 4.39489 706.745 4.65412 706.449 5.17259C706.153 5.68868 706.006 6.41903 706.006 7.36364C706.006 7.99337 706.072 8.52841 706.204 8.96875C706.337 9.40909 706.528 9.74408 706.776 9.97372C707.027 10.2034 707.329 10.3182 707.682 10.3182ZM713.932 11.0994C713.397 11.0994 712.941 10.9538 712.564 10.6626C712.188 10.3691 711.9 9.94413 711.702 9.38778C711.503 8.82907 711.403 8.15436 711.403 7.36364C711.403 6.57765 711.503 5.90649 711.702 5.35014C711.903 4.79143 712.192 4.36529 712.568 4.07173C712.947 3.7758 713.401 3.62784 713.932 3.62784C714.462 3.62784 714.915 3.7758 715.292 4.07173C715.671 4.36529 715.959 4.79143 716.158 5.35014C716.359 5.90649 716.46 6.57765 716.46 7.36364C716.46 8.15436 716.361 8.82907 716.162 9.38778C715.963 9.94413 715.675 10.3691 715.299 10.6626C714.922 10.9538 714.467 11.0994 713.932 11.0994ZM713.932 10.3182C714.462 10.3182 714.874 10.0625 715.167 9.55114C715.461 9.03977 715.608 8.31061 715.608 7.36364C715.608 6.7339 715.54 6.19768 715.405 5.75497C715.273 5.31226 715.081 4.97491 714.83 4.7429C714.581 4.51089 714.282 4.39489 713.932 4.39489C713.406 4.39489 712.995 4.65412 712.699 5.17259C712.403 5.68868 712.256 6.41903 712.256 7.36364C712.256 7.99337 712.322 8.52841 712.454 8.96875C712.587 9.40909 712.778 9.74408 713.026 9.97372C713.277 10.2034 713.579 10.3182 713.932 10.3182Z" fill="#808080"/>
<rect x="709" y="14" width="3" height="1" transform="rotate(90 709 14)" fill="#808080"/>
<path d="M603.168 11.0994C602.869 11.0947 602.571 11.0379 602.273 10.929C601.974 10.8201 601.702 10.6366 601.456 10.3786C601.21 10.1181 601.012 9.76657 600.863 9.32386C600.714 8.87879 600.639 8.32008 600.639 7.64773C600.639 7.00379 600.7 6.43324 600.82 5.93608C600.941 5.43655 601.116 5.01634 601.346 4.67543C601.576 4.33215 601.853 4.07173 602.177 3.89418C602.504 3.71662 602.872 3.62784 603.281 3.62784C603.688 3.62784 604.051 3.70952 604.368 3.87287C604.688 4.03385 604.948 4.25876 605.149 4.54759C605.35 4.83641 605.481 5.16903 605.54 5.54545H604.673C604.593 5.21875 604.437 4.94768 604.205 4.73224C603.973 4.51681 603.665 4.40909 603.281 4.40909C602.718 4.40909 602.274 4.65412 601.95 5.14418C601.628 5.63423 601.465 6.32197 601.463 7.20739H601.52C601.652 7.00616 601.81 6.83452 601.992 6.69247C602.177 6.54806 602.38 6.43679 602.603 6.35866C602.826 6.28054 603.061 6.24148 603.31 6.24148C603.726 6.24148 604.107 6.34564 604.453 6.55398C604.799 6.75994 605.076 7.04522 605.284 7.4098C605.492 7.77202 605.597 8.1875 605.597 8.65625C605.597 9.10606 605.496 9.51799 605.295 9.89205C605.094 10.2637 604.811 10.5597 604.446 10.7798C604.084 10.9976 603.658 11.1042 603.168 11.0994ZM603.168 10.3182C603.466 10.3182 603.733 10.2436 603.97 10.0945C604.209 9.94531 604.397 9.74527 604.535 9.49432C604.674 9.24337 604.744 8.96402 604.744 8.65625C604.744 8.35559 604.677 8.08215 604.542 7.83594C604.409 7.58736 604.226 7.38968 603.991 7.2429C603.759 7.09612 603.494 7.02273 603.196 7.02273C602.971 7.02273 602.762 7.06771 602.567 7.15767C602.373 7.24527 602.203 7.366 602.056 7.51989C601.912 7.67377 601.798 7.85014 601.715 8.04901C601.632 8.2455 601.591 8.45265 601.591 8.67045C601.591 8.95928 601.658 9.22917 601.793 9.48011C601.931 9.73106 602.118 9.93348 602.354 10.0874C602.594 10.2412 602.865 10.3182 603.168 10.3182ZM609.365 11.0994C608.83 11.0994 608.374 10.9538 607.998 10.6626C607.622 10.3691 607.334 9.94413 607.135 9.38778C606.936 8.82907 606.837 8.15436 606.837 7.36364C606.837 6.57765 606.936 5.90649 607.135 5.35014C607.336 4.79143 607.625 4.36529 608.002 4.07173C608.38 3.7758 608.835 3.62784 609.365 3.62784C609.896 3.62784 610.349 3.7758 610.725 4.07173C611.104 4.36529 611.393 4.79143 611.592 5.35014C611.793 5.90649 611.894 6.57765 611.894 7.36364C611.894 8.15436 611.794 8.82907 611.595 9.38778C611.396 9.94413 611.109 10.3691 610.732 10.6626C610.356 10.9538 609.9 11.0994 609.365 11.0994ZM609.365 10.3182C609.896 10.3182 610.307 10.0625 610.601 9.55114C610.895 9.03977 611.041 8.31061 611.041 7.36364C611.041 6.7339 610.974 6.19768 610.839 5.75497C610.706 5.31226 610.515 4.97491 610.264 4.7429C610.015 4.51089 609.716 4.39489 609.365 4.39489C608.84 4.39489 608.429 4.65412 608.133 5.17259C607.837 5.68868 607.689 6.41903 607.689 7.36364C607.689 7.99337 607.755 8.52841 607.888 8.96875C608.021 9.40909 608.211 9.74408 608.46 9.97372C608.711 10.2034 609.012 10.3182 609.365 10.3182ZM615.615 11.0994C615.08 11.0994 614.624 10.9538 614.248 10.6626C613.872 10.3691 613.584 9.94413 613.385 9.38778C613.186 8.82907 613.087 8.15436 613.087 7.36364C613.087 6.57765 613.186 5.90649 613.385 5.35014C613.586 4.79143 613.875 4.36529 614.252 4.07173C614.63 3.7758 615.085 3.62784 615.615 3.62784C616.146 3.62784 616.599 3.7758 616.975 4.07173C617.354 4.36529 617.643 4.79143 617.842 5.35014C618.043 5.90649 618.144 6.57765 618.144 7.36364C618.144 8.15436 618.044 8.82907 617.845 9.38778C617.646 9.94413 617.359 10.3691 616.982 10.6626C616.606 10.9538 616.15 11.0994 615.615 11.0994ZM615.615 10.3182C616.146 10.3182 616.557 10.0625 616.851 9.55114C617.145 9.03977 617.291 8.31061 617.291 7.36364C617.291 6.7339 617.224 6.19768 617.089 5.75497C616.956 5.31226 616.765 4.97491 616.514 4.7429C616.265 4.51089 615.966 4.39489 615.615 4.39489C615.09 4.39489 614.679 4.65412 614.383 5.17259C614.087 5.68868 613.939 6.41903 613.939 7.36364C613.939 7.99337 614.005 8.52841 614.138 8.96875C614.271 9.40909 614.461 9.74408 614.71 9.97372C614.961 10.2034 615.262 10.3182 615.615 10.3182Z" fill="#808080"/>
<rect x="610" y="14" width="3" height="1" transform="rotate(90 610 14)" fill="#808080"/>
<path d="M504.026 11.0994C503.609 11.0994 503.234 11.0166 502.9 10.8509C502.566 10.6851 502.299 10.4579 502.097 10.169C501.896 9.88021 501.786 9.55114 501.767 9.18182H502.619C502.652 9.51089 502.802 9.78314 503.067 9.99858C503.334 10.2116 503.654 10.3182 504.026 10.3182C504.324 10.3182 504.589 10.2483 504.821 10.1087C505.055 9.96899 505.239 9.77723 505.371 9.53338C505.506 9.28717 505.574 9.009 505.574 8.69886C505.574 8.38163 505.504 8.09872 505.364 7.85014C505.227 7.5992 505.038 7.40152 504.796 7.2571C504.555 7.11269 504.279 7.0393 503.969 7.03693C503.746 7.03456 503.518 7.06889 503.283 7.13991C503.049 7.20857 502.856 7.29735 502.705 7.40625L501.881 7.30682L502.321 3.72727H506.099V4.50852H503.06L502.804 6.65341H502.847C502.996 6.53504 503.183 6.43679 503.408 6.35866C503.633 6.28054 503.867 6.24148 504.111 6.24148C504.556 6.24148 504.952 6.34801 505.3 6.56108C505.651 6.77178 505.925 7.06061 506.124 7.42756C506.326 7.79451 506.426 8.21354 506.426 8.68466C506.426 9.14867 506.322 9.56297 506.114 9.92756C505.908 10.2898 505.624 10.5762 505.261 10.7869C504.899 10.9953 504.487 11.0994 504.026 11.0994ZM510.209 11.0994C509.674 11.0994 509.218 10.9538 508.842 10.6626C508.465 10.3691 508.178 9.94413 507.979 9.38778C507.78 8.82907 507.681 8.15436 507.681 7.36364C507.681 6.57765 507.78 5.90649 507.979 5.35014C508.18 4.79143 508.469 4.36529 508.845 4.07173C509.224 3.7758 509.679 3.62784 510.209 3.62784C510.739 3.62784 511.193 3.7758 511.569 4.07173C511.948 4.36529 512.237 4.79143 512.436 5.35014C512.637 5.90649 512.737 6.57765 512.737 7.36364C512.737 8.15436 512.638 8.82907 512.439 9.38778C512.24 9.94413 511.953 10.3691 511.576 10.6626C511.2 10.9538 510.744 11.0994 510.209 11.0994ZM510.209 10.3182C510.739 10.3182 511.151 10.0625 511.445 9.55114C511.738 9.03977 511.885 8.31061 511.885 7.36364C511.885 6.7339 511.818 6.19768 511.683 5.75497C511.55 5.31226 511.358 4.97491 511.107 4.7429C510.859 4.51089 510.559 4.39489 510.209 4.39489C509.683 4.39489 509.273 4.65412 508.977 5.17259C508.681 5.68868 508.533 6.41903 508.533 7.36364C508.533 7.99337 508.599 8.52841 508.732 8.96875C508.864 9.40909 509.055 9.74408 509.303 9.97372C509.554 10.2034 509.856 10.3182 510.209 10.3182ZM516.459 11.0994C515.924 11.0994 515.468 10.9538 515.092 10.6626C514.715 10.3691 514.428 9.94413 514.229 9.38778C514.03 8.82907 513.931 8.15436 513.931 7.36364C513.931 6.57765 514.03 5.90649 514.229 5.35014C514.43 4.79143 514.719 4.36529 515.095 4.07173C515.474 3.7758 515.929 3.62784 516.459 3.62784C516.989 3.62784 517.443 3.7758 517.819 4.07173C518.198 4.36529 518.487 4.79143 518.686 5.35014C518.887 5.90649 518.987 6.57765 518.987 7.36364C518.987 8.15436 518.888 8.82907 518.689 9.38778C518.49 9.94413 518.203 10.3691 517.826 10.6626C517.45 10.9538 516.994 11.0994 516.459 11.0994ZM516.459 10.3182C516.989 10.3182 517.401 10.0625 517.695 9.55114C517.988 9.03977 518.135 8.31061 518.135 7.36364C518.135 6.7339 518.068 6.19768 517.933 5.75497C517.8 5.31226 517.608 4.97491 517.357 4.7429C517.109 4.51089 516.809 4.39489 516.459 4.39489C515.933 4.39489 515.523 4.65412 515.227 5.17259C514.931 5.68868 514.783 6.41903 514.783 7.36364C514.783 7.99337 514.849 8.52841 514.982 8.96875C515.114 9.40909 515.305 9.74408 515.553 9.97372C515.804 10.2034 516.106 10.3182 516.459 10.3182Z" fill="#808080"/>
<rect x="511" y="14" width="3" height="1" transform="rotate(90 511 14)" fill="#808080"/>
<path d="M402.582 9.50852V8.78409L405.778 3.72727H406.304V4.84943H405.949L403.534 8.67045V8.72727H407.838V9.50852H402.582ZM406.006 11V9.28835V8.95099V3.72727H406.844V11H406.006ZM411.541 11.0994C411.006 11.0994 410.55 10.9538 410.174 10.6626C409.797 10.3691 409.51 9.94413 409.311 9.38778C409.112 8.82907 409.013 8.15436 409.013 7.36364C409.013 6.57765 409.112 5.90649 409.311 5.35014C409.512 4.79143 409.801 4.36529 410.177 4.07173C410.556 3.7758 411.011 3.62784 411.541 3.62784C412.071 3.62784 412.525 3.7758 412.901 4.07173C413.28 4.36529 413.569 4.79143 413.768 5.35014C413.969 5.90649 414.069 6.57765 414.069 7.36364C414.069 8.15436 413.97 8.82907 413.771 9.38778C413.572 9.94413 413.285 10.3691 412.908 10.6626C412.532 10.9538 412.076 11.0994 411.541 11.0994ZM411.541 10.3182C412.071 10.3182 412.483 10.0625 412.777 9.55114C413.07 9.03977 413.217 8.31061 413.217 7.36364C413.217 6.7339 413.15 6.19768 413.015 5.75497C412.882 5.31226 412.69 4.97491 412.439 4.7429C412.191 4.51089 411.891 4.39489 411.541 4.39489C411.015 4.39489 410.605 4.65412 410.309 5.17259C410.013 5.68868 409.865 6.41903 409.865 7.36364C409.865 7.99337 409.931 8.52841 410.064 8.96875C410.196 9.40909 410.387 9.74408 410.635 9.97372C410.886 10.2034 411.188 10.3182 411.541 10.3182ZM417.791 11.0994C417.256 11.0994 416.8 10.9538 416.424 10.6626C416.047 10.3691 415.76 9.94413 415.561 9.38778C415.362 8.82907 415.263 8.15436 415.263 7.36364C415.263 6.57765 415.362 5.90649 415.561 5.35014C415.762 4.79143 416.051 4.36529 416.427 4.07173C416.806 3.7758 417.261 3.62784 417.791 3.62784C418.321 3.62784 418.775 3.7758 419.151 4.07173C419.53 4.36529 419.819 4.79143 420.018 5.35014C420.219 5.90649 420.319 6.57765 420.319 7.36364C420.319 8.15436 420.22 8.82907 420.021 9.38778C419.822 9.94413 419.535 10.3691 419.158 10.6626C418.782 10.9538 418.326 11.0994 417.791 11.0994ZM417.791 10.3182C418.321 10.3182 418.733 10.0625 419.027 9.55114C419.32 9.03977 419.467 8.31061 419.467 7.36364C419.467 6.7339 419.4 6.19768 419.265 5.75497C419.132 5.31226 418.94 4.97491 418.689 4.7429C418.441 4.51089 418.141 4.39489 417.791 4.39489C417.265 4.39489 416.855 4.65412 416.559 5.17259C416.263 5.68868 416.115 6.41903 416.115 7.36364C416.115 7.99337 416.181 8.52841 416.314 8.96875C416.446 9.40909 416.637 9.74408 416.885 9.97372C417.136 10.2034 417.438 10.3182 417.791 10.3182Z" fill="#808080"/>
<rect x="412" y="14" width="3" height="1" transform="rotate(90 412 14)" fill="#808080"/>
<path d="M306.21 11.0994C305.741 11.0994 305.324 11.0189 304.957 10.858C304.592 10.697 304.302 10.4732 304.087 10.1868C303.874 9.89796 303.758 9.56297 303.739 9.18182H304.634C304.652 9.41619 304.733 9.61861 304.875 9.78906C305.017 9.95715 305.203 10.0874 305.433 10.1797C305.662 10.272 305.917 10.3182 306.196 10.3182C306.509 10.3182 306.786 10.2637 307.027 10.1548C307.268 10.0459 307.458 9.89441 307.595 9.70028C307.732 9.50616 307.801 9.28125 307.801 9.02557C307.801 8.75805 307.735 8.52249 307.602 8.31889C307.47 8.11293 307.276 7.95194 307.02 7.83594C306.764 7.71993 306.452 7.66193 306.082 7.66193H305.5V6.88068H306.082C306.371 6.88068 306.625 6.8286 306.842 6.72443C307.063 6.62026 307.234 6.47348 307.357 6.28409C307.483 6.0947 307.545 5.87216 307.545 5.61648C307.545 5.37026 307.491 5.15601 307.382 4.97372C307.273 4.79143 307.119 4.64938 306.92 4.54759C306.724 4.44579 306.492 4.39489 306.224 4.39489C305.973 4.39489 305.737 4.44105 305.514 4.53338C305.294 4.62334 305.114 4.75473 304.974 4.92756C304.835 5.09801 304.759 5.30398 304.747 5.54545H303.895C303.909 5.1643 304.024 4.83049 304.239 4.54403C304.455 4.25521 304.737 4.0303 305.085 3.86932C305.435 3.70833 305.82 3.62784 306.239 3.62784C306.688 3.62784 307.074 3.71899 307.396 3.90128C307.718 4.0812 307.966 4.31913 308.138 4.61506C308.311 4.91098 308.398 5.23059 308.398 5.57386C308.398 5.98343 308.29 6.33262 308.075 6.62145C307.862 6.91027 307.571 7.11032 307.205 7.22159V7.27841C307.664 7.35417 308.022 7.54948 308.281 7.86435C308.539 8.17685 308.668 8.56392 308.668 9.02557C308.668 9.42093 308.56 9.77604 308.344 10.0909C308.131 10.4034 307.84 10.6496 307.471 10.8295C307.102 11.0095 306.681 11.0994 306.21 11.0994ZM312.492 11.0994C311.957 11.0994 311.501 10.9538 311.125 10.6626C310.749 10.3691 310.461 9.94413 310.262 9.38778C310.063 8.82907 309.964 8.15436 309.964 7.36364C309.964 6.57765 310.063 5.90649 310.262 5.35014C310.463 4.79143 310.752 4.36529 311.129 4.07173C311.507 3.7758 311.962 3.62784 312.492 3.62784C313.022 3.62784 313.476 3.7758 313.852 4.07173C314.231 4.36529 314.52 4.79143 314.719 5.35014C314.92 5.90649 315.021 6.57765 315.021 7.36364C315.021 8.15436 314.921 8.82907 314.722 9.38778C314.523 9.94413 314.236 10.3691 313.859 10.6626C313.483 10.9538 313.027 11.0994 312.492 11.0994ZM312.492 10.3182C313.022 10.3182 313.434 10.0625 313.728 9.55114C314.022 9.03977 314.168 8.31061 314.168 7.36364C314.168 6.7339 314.101 6.19768 313.966 5.75497C313.833 5.31226 313.642 4.97491 313.391 4.7429C313.142 4.51089 312.843 4.39489 312.492 4.39489C311.967 4.39489 311.556 4.65412 311.26 5.17259C310.964 5.68868 310.816 6.41903 310.816 7.36364C310.816 7.99337 310.882 8.52841 311.015 8.96875C311.147 9.40909 311.338 9.74408 311.587 9.97372C311.838 10.2034 312.139 10.3182 312.492 10.3182ZM318.742 11.0994C318.207 11.0994 317.751 10.9538 317.375 10.6626C316.999 10.3691 316.711 9.94413 316.512 9.38778C316.313 8.82907 316.214 8.15436 316.214 7.36364C316.214 6.57765 316.313 5.90649 316.512 5.35014C316.713 4.79143 317.002 4.36529 317.379 4.07173C317.757 3.7758 318.212 3.62784 318.742 3.62784C319.272 3.62784 319.726 3.7758 320.102 4.07173C320.481 4.36529 320.77 4.79143 320.969 5.35014C321.17 5.90649 321.271 6.57765 321.271 7.36364C321.271 8.15436 321.171 8.82907 320.972 9.38778C320.773 9.94413 320.486 10.3691 320.109 10.6626C319.733 10.9538 319.277 11.0994 318.742 11.0994ZM318.742 10.3182C319.272 10.3182 319.684 10.0625 319.978 9.55114C320.272 9.03977 320.418 8.31061 320.418 7.36364C320.418 6.7339 320.351 6.19768 320.216 5.75497C320.083 5.31226 319.892 4.97491 319.641 4.7429C319.392 4.51089 319.093 4.39489 318.742 4.39489C318.217 4.39489 317.806 4.65412 317.51 5.17259C317.214 5.68868 317.066 6.41903 317.066 7.36364C317.066 7.99337 317.132 8.52841 317.265 8.96875C317.397 9.40909 317.588 9.74408 317.837 9.97372C318.088 10.2034 318.389 10.3182 318.742 10.3182Z" fill="#808080"/>
<rect x="313" y="14" width="3" height="1" transform="rotate(90 313 14)" fill="#808080"/>
<path d="M204.753 11V10.3608L207.153 7.73295C207.435 7.42519 207.667 7.15767 207.849 6.9304C208.032 6.70076 208.167 6.48532 208.254 6.28409C208.344 6.08049 208.389 5.86742 208.389 5.64489C208.389 5.3892 208.328 5.16785 208.205 4.98082C208.084 4.7938 207.918 4.64938 207.707 4.54759C207.497 4.44579 207.26 4.39489 206.997 4.39489C206.718 4.39489 206.474 4.45289 206.266 4.56889C206.06 4.68253 205.9 4.84233 205.786 5.0483C205.675 5.25426 205.619 5.49574 205.619 5.77273H204.781C204.781 5.34659 204.879 4.97254 205.076 4.65057C205.272 4.3286 205.54 4.07765 205.879 3.89773C206.219 3.7178 206.602 3.62784 207.026 3.62784C207.452 3.62784 207.829 3.7178 208.158 3.89773C208.487 4.07765 208.746 4.32031 208.933 4.62571C209.12 4.93111 209.213 5.27083 209.213 5.64489C209.213 5.91241 209.165 6.17401 209.067 6.42969C208.973 6.683 208.807 6.96591 208.57 7.27841C208.336 7.58854 208.01 7.96733 207.594 8.41477L205.96 10.1619V10.2188H209.341V11H204.753ZM213.18 11.0994C212.645 11.0994 212.189 10.9538 211.812 10.6626C211.436 10.3691 211.148 9.94413 210.95 9.38778C210.751 8.82907 210.651 8.15436 210.651 7.36364C210.651 6.57765 210.751 5.90649 210.95 5.35014C211.151 4.79143 211.44 4.36529 211.816 4.07173C212.195 3.7758 212.649 3.62784 213.18 3.62784C213.71 3.62784 214.163 3.7758 214.54 4.07173C214.919 4.36529 215.207 4.79143 215.406 5.35014C215.607 5.90649 215.708 6.57765 215.708 7.36364C215.708 8.15436 215.609 8.82907 215.41 9.38778C215.211 9.94413 214.923 10.3691 214.547 10.6626C214.17 10.9538 213.715 11.0994 213.18 11.0994ZM213.18 10.3182C213.71 10.3182 214.122 10.0625 214.415 9.55114C214.709 9.03977 214.856 8.31061 214.856 7.36364C214.856 6.7339 214.788 6.19768 214.653 5.75497C214.521 5.31226 214.329 4.97491 214.078 4.7429C213.83 4.51089 213.53 4.39489 213.18 4.39489C212.654 4.39489 212.243 4.65412 211.947 5.17259C211.652 5.68868 211.504 6.41903 211.504 7.36364C211.504 7.99337 211.57 8.52841 211.702 8.96875C211.835 9.40909 212.026 9.74408 212.274 9.97372C212.525 10.2034 212.827 10.3182 213.18 10.3182ZM219.43 11.0994C218.895 11.0994 218.439 10.9538 218.062 10.6626C217.686 10.3691 217.398 9.94413 217.2 9.38778C217.001 8.82907 216.901 8.15436 216.901 7.36364C216.901 6.57765 217.001 5.90649 217.2 5.35014C217.401 4.79143 217.69 4.36529 218.066 4.07173C218.445 3.7758 218.899 3.62784 219.43 3.62784C219.96 3.62784 220.413 3.7758 220.79 4.07173C221.169 4.36529 221.457 4.79143 221.656 5.35014C221.857 5.90649 221.958 6.57765 221.958 7.36364C221.958 8.15436 221.859 8.82907 221.66 9.38778C221.461 9.94413 221.173 10.3691 220.797 10.6626C220.42 10.9538 219.965 11.0994 219.43 11.0994ZM219.43 10.3182C219.96 10.3182 220.372 10.0625 220.665 9.55114C220.959 9.03977 221.106 8.31061 221.106 7.36364C221.106 6.7339 221.038 6.19768 220.903 5.75497C220.771 5.31226 220.579 4.97491 220.328 4.7429C220.08 4.51089 219.78 4.39489 219.43 4.39489C218.904 4.39489 218.493 4.65412 218.197 5.17259C217.902 5.68868 217.754 6.41903 217.754 7.36364C217.754 7.99337 217.82 8.52841 217.952 8.96875C218.085 9.40909 218.276 9.74408 218.524 9.97372C218.775 10.2034 219.077 10.3182 219.43 10.3182Z" fill="#808080"/>
<rect x="214" y="14" width="3" height="1" transform="rotate(90 214 14)" fill="#808080"/>
<path d="M109.31 3.72727V11H108.429V4.65057H108.386L106.611 5.82955V4.93466L108.429 3.72727H109.31ZM113.773 11.0994C113.238 11.0994 112.783 10.9538 112.406 10.6626C112.03 10.3691 111.742 9.94413 111.543 9.38778C111.344 8.82907 111.245 8.15436 111.245 7.36364C111.245 6.57765 111.344 5.90649 111.543 5.35014C111.745 4.79143 112.033 4.36529 112.41 4.07173C112.789 3.7758 113.243 3.62784 113.773 3.62784C114.304 3.62784 114.757 3.7758 115.134 4.07173C115.512 4.36529 115.801 4.79143 116 5.35014C116.201 5.90649 116.302 6.57765 116.302 7.36364C116.302 8.15436 116.202 8.82907 116.004 9.38778C115.805 9.94413 115.517 10.3691 115.141 10.6626C114.764 10.9538 114.308 11.0994 113.773 11.0994ZM113.773 10.3182C114.304 10.3182 114.716 10.0625 115.009 9.55114C115.303 9.03977 115.45 8.31061 115.45 7.36364C115.45 6.7339 115.382 6.19768 115.247 5.75497C115.115 5.31226 114.923 4.97491 114.672 4.7429C114.423 4.51089 114.124 4.39489 113.773 4.39489C113.248 4.39489 112.837 4.65412 112.541 5.17259C112.245 5.68868 112.097 6.41903 112.097 7.36364C112.097 7.99337 112.164 8.52841 112.296 8.96875C112.429 9.40909 112.619 9.74408 112.868 9.97372C113.119 10.2034 113.421 10.3182 113.773 10.3182ZM120.023 11.0994C119.488 11.0994 119.033 10.9538 118.656 10.6626C118.28 10.3691 117.992 9.94413 117.793 9.38778C117.594 8.82907 117.495 8.15436 117.495 7.36364C117.495 6.57765 117.594 5.90649 117.793 5.35014C117.995 4.79143 118.283 4.36529 118.66 4.07173C119.039 3.7758 119.493 3.62784 120.023 3.62784C120.554 3.62784 121.007 3.7758 121.384 4.07173C121.762 4.36529 122.051 4.79143 122.25 5.35014C122.451 5.90649 122.552 6.57765 122.552 7.36364C122.552 8.15436 122.452 8.82907 122.254 9.38778C122.055 9.94413 121.767 10.3691 121.391 10.6626C121.014 10.9538 120.558 11.0994 120.023 11.0994ZM120.023 10.3182C120.554 10.3182 120.966 10.0625 121.259 9.55114C121.553 9.03977 121.7 8.31061 121.7 7.36364C121.7 6.7339 121.632 6.19768 121.497 5.75497C121.365 5.31226 121.173 4.97491 120.922 4.7429C120.673 4.51089 120.374 4.39489 120.023 4.39489C119.498 4.39489 119.087 4.65412 118.791 5.17259C118.495 5.68868 118.347 6.41903 118.347 7.36364C118.347 7.99337 118.414 8.52841 118.546 8.96875C118.679 9.40909 118.869 9.74408 119.118 9.97372C119.369 10.2034 119.671 10.3182 120.023 10.3182Z" fill="#808080"/>
<rect x="115.5" y="14" width="3" height="1" transform="rotate(90 115.5 14)" fill="#808080"/>
<rect x="0.5" y="0.5" width="20" height="20" fill="white" stroke="#E6E6E6"/>
</svg>
