<svg width="327" height="403" viewBox="0 0 327 403" fill="none" xmlns="http://www.w3.org/2000/svg">
<g filter="url(#filter0_d_3769_48380)">
<rect width="305" height="381" transform="translate(11 9)" fill="white"/>
<path d="M28.644 38.888V37.808H33.288V38.888H28.644ZM29.988 32.624H31.812L34.404 41H33.096L31.404 35.456L30.9 33.62L30.396 35.468L28.68 41H27.396L29.988 32.624ZM38.1167 34.256C38.5727 34.256 38.9887 34.348 39.3647 34.532C39.7407 34.708 40.0447 34.956 40.2767 35.276V32.18H41.4767V41H40.3367L40.3007 40.076C40.0687 40.396 39.7607 40.656 39.3767 40.856C39.0007 41.048 38.5807 41.144 38.1167 41.144C37.5327 41.144 37.0167 40.996 36.5687 40.7C36.1207 40.404 35.7687 39.996 35.5127 39.476C35.2647 38.956 35.1407 38.364 35.1407 37.7C35.1407 37.028 35.2647 36.432 35.5127 35.912C35.7687 35.392 36.1207 34.988 36.5687 34.7C37.0167 34.404 37.5327 34.256 38.1167 34.256ZM38.3807 40.124C38.8127 40.124 39.1967 40.004 39.5327 39.764C39.8687 39.516 40.1167 39.184 40.2767 38.768V36.62C40.1167 36.196 39.8687 35.868 39.5327 35.636C39.1967 35.396 38.8127 35.276 38.3807 35.276C37.9807 35.276 37.6287 35.38 37.3247 35.588C37.0207 35.788 36.7807 36.072 36.6047 36.44C36.4367 36.8 36.3527 37.22 36.3527 37.7C36.3527 38.172 36.4367 38.592 36.6047 38.96C36.7807 39.32 37.0207 39.604 37.3247 39.812C37.6287 40.02 37.9807 40.124 38.3807 40.124ZM45.3454 41L42.7654 34.4H44.0494L45.5734 38.372L46.0414 39.884L46.5214 38.372L48.0454 34.4H49.2814L46.7134 41H45.3454ZM55.3221 41L55.2741 39.5V36.68C55.2741 36.208 55.1181 35.84 54.8061 35.576C54.5021 35.304 54.0821 35.168 53.5461 35.168C53.0261 35.168 52.6021 35.288 52.2741 35.528C51.9461 35.76 51.7661 36.084 51.7341 36.5H50.5461C50.5861 36.028 50.7381 35.628 51.0021 35.3C51.2661 34.964 51.6181 34.708 52.0581 34.532C52.4981 34.348 53.0061 34.256 53.5821 34.256C54.1741 34.256 54.6861 34.356 55.1181 34.556C55.5501 34.748 55.8821 35.028 56.1141 35.396C56.3541 35.764 56.4741 36.212 56.4741 36.74V41H55.3221ZM52.9341 41.144C52.5021 41.144 52.1221 41.068 51.7941 40.916C51.4661 40.756 51.2101 40.532 51.0261 40.244C50.8421 39.948 50.7501 39.604 50.7501 39.212C50.7501 38.532 51.0101 38.004 51.5301 37.628C52.0581 37.252 52.7941 37.064 53.7381 37.064H55.4301V37.964H53.6901C53.1461 37.964 52.7181 38.068 52.4061 38.276C52.1021 38.484 51.9501 38.776 51.9501 39.152C51.9501 39.464 52.0581 39.708 52.2741 39.884C52.4981 40.06 52.7981 40.148 53.1741 40.148C53.6541 40.148 54.0781 40.02 54.4461 39.764C54.8221 39.5 55.1261 39.14 55.3581 38.684L55.4901 39.572C55.2821 40.076 54.9621 40.464 54.5301 40.736C54.0981 41.008 53.5661 41.144 52.9341 41.144ZM62.9348 41V36.836C62.9348 36.372 62.8028 36 62.5388 35.72C62.2748 35.432 61.9308 35.288 61.5068 35.288C61.0188 35.288 60.5828 35.468 60.1988 35.828C59.8228 36.18 59.5228 36.732 59.2988 37.484L59.1068 36.128C59.3548 35.504 59.7108 35.036 60.1748 34.724C60.6468 34.412 61.1588 34.256 61.7108 34.256C62.2068 34.256 62.6348 34.364 62.9948 34.58C63.3628 34.788 63.6468 35.08 63.8468 35.456C64.0468 35.832 64.1468 36.276 64.1468 36.788V41H62.9348ZM58.2308 41V34.4H59.3828L59.4428 35.888V41H58.2308ZM68.9154 41.144C68.2354 41.144 67.6434 41.004 67.1394 40.724C66.6434 40.436 66.2594 40.036 65.9874 39.524C65.7154 39.004 65.5794 38.396 65.5794 37.7C65.5794 36.988 65.7194 36.376 65.9994 35.864C66.2794 35.344 66.6714 34.948 67.1754 34.676C67.6794 34.396 68.2674 34.256 68.9394 34.256C69.4754 34.256 69.9554 34.356 70.3794 34.556C70.8114 34.748 71.1594 35.024 71.4234 35.384C71.6954 35.744 71.8514 36.172 71.8914 36.668H70.6794C70.6154 36.22 70.4234 35.876 70.1034 35.636C69.7914 35.388 69.4034 35.264 68.9394 35.264C68.5074 35.264 68.1314 35.364 67.8114 35.564C67.4914 35.756 67.2434 36.032 67.0674 36.392C66.8914 36.752 66.8034 37.188 66.8034 37.7C66.8034 38.46 66.9954 39.056 67.3794 39.488C67.7714 39.92 68.2834 40.136 68.9154 40.136C69.2034 40.136 69.4714 40.08 69.7194 39.968C69.9674 39.856 70.1794 39.696 70.3554 39.488C70.5314 39.272 70.6514 39.024 70.7154 38.744H71.9394C71.8594 39.24 71.6754 39.668 71.3874 40.028C71.1074 40.38 70.7514 40.656 70.3194 40.856C69.8954 41.048 69.4274 41.144 68.9154 41.144ZM76.3601 41.144C75.6801 41.144 75.0921 41.008 74.5961 40.736C74.1001 40.456 73.7201 40.06 73.4561 39.548C73.1921 39.028 73.0601 38.408 73.0601 37.688C73.0601 36.968 73.1921 36.352 73.4561 35.84C73.7281 35.328 74.1121 34.936 74.6081 34.664C75.1121 34.392 75.7121 34.256 76.4081 34.256C77.4721 34.256 78.2641 34.552 78.7841 35.144C79.3041 35.728 79.5321 36.532 79.4681 37.556H74.0201L74.0321 36.644L78.2321 36.656C78.2001 36.232 78.0161 35.892 77.6801 35.636C77.3441 35.38 76.9201 35.252 76.4081 35.252C75.7201 35.252 75.1921 35.468 74.8241 35.9C74.4561 36.332 74.2721 36.944 74.2721 37.736C74.2721 38.208 74.3521 38.628 74.5121 38.996C74.6801 39.356 74.9201 39.636 75.2321 39.836C75.5441 40.036 75.9201 40.136 76.3601 40.136C76.8801 40.136 77.3121 40.012 77.6561 39.764C78.0081 39.516 78.2241 39.18 78.3041 38.756H79.5161C79.4121 39.5 79.0801 40.084 78.5201 40.508C77.9601 40.932 77.2401 41.144 76.3601 41.144ZM83.5048 34.256C83.9608 34.256 84.3768 34.348 84.7528 34.532C85.1288 34.708 85.4328 34.956 85.6648 35.276V32.18H86.8648V41H85.7248L85.6888 40.076C85.4568 40.396 85.1488 40.656 84.7648 40.856C84.3888 41.048 83.9688 41.144 83.5048 41.144C82.9208 41.144 82.4048 40.996 81.9568 40.7C81.5088 40.404 81.1568 39.996 80.9008 39.476C80.6528 38.956 80.5288 38.364 80.5288 37.7C80.5288 37.028 80.6528 36.432 80.9008 35.912C81.1568 35.392 81.5088 34.988 81.9568 34.7C82.4048 34.404 82.9208 34.256 83.5048 34.256ZM83.7688 40.124C84.2008 40.124 84.5848 40.004 84.9208 39.764C85.2568 39.516 85.5048 39.184 85.6648 38.768V36.62C85.5048 36.196 85.2568 35.868 84.9208 35.636C84.5848 35.396 84.2008 35.276 83.7688 35.276C83.3688 35.276 83.0168 35.38 82.7128 35.588C82.4088 35.788 82.1688 36.072 81.9928 36.44C81.8248 36.8 81.7408 37.22 81.7408 37.7C81.7408 38.172 81.8248 38.592 81.9928 38.96C82.1688 39.32 82.4088 39.604 82.7128 39.812C83.0168 40.02 83.3688 40.124 83.7688 40.124ZM100.758 41V36.848C100.758 36.376 100.626 36 100.362 35.72C100.098 35.432 99.7542 35.288 99.3302 35.288C98.8422 35.288 98.4062 35.468 98.0222 35.828C97.6462 36.18 97.3462 36.732 97.1222 37.484L96.9302 36.14C97.1782 35.508 97.5342 35.036 97.9982 34.724C98.4702 34.412 98.9822 34.256 99.5342 34.256C100.03 34.256 100.458 34.364 100.818 34.58C101.186 34.788 101.47 35.084 101.67 35.468C101.87 35.844 101.97 36.288 101.97 36.8V41H100.758ZM96.0542 41V32.168H97.2662V41H96.0542ZM106.007 41V34.4H107.219V41H106.007ZM103.571 41V40.016H109.487V41H103.571ZM104.447 35.384V34.4H106.607V35.384H104.447ZM105.923 33.272V31.964H107.279V33.272H105.923ZM115.948 35.348L115.984 34.4H117.124V40.28C117.124 41.256 116.86 42 116.332 42.512C115.812 43.024 115.024 43.28 113.968 43.28C113.384 43.28 112.876 43.2 112.444 43.04C112.02 42.88 111.684 42.64 111.436 42.32C111.196 42.008 111.06 41.616 111.028 41.144H112.288C112.328 41.504 112.488 41.78 112.768 41.972C113.056 42.172 113.476 42.272 114.028 42.272C114.652 42.272 115.12 42.112 115.432 41.792C115.752 41.472 115.912 41.016 115.912 40.424V39.548C115.688 39.884 115.388 40.148 115.012 40.34C114.644 40.532 114.232 40.628 113.776 40.628C113.208 40.628 112.704 40.492 112.264 40.22C111.832 39.948 111.492 39.572 111.244 39.092C110.996 38.604 110.872 38.056 110.872 37.448C110.872 36.792 111 36.228 111.256 35.756C111.512 35.276 111.864 34.908 112.312 34.652C112.76 34.388 113.268 34.256 113.836 34.256C114.292 34.256 114.704 34.356 115.072 34.556C115.44 34.756 115.732 35.02 115.948 35.348ZM114.04 39.68C114.472 39.68 114.856 39.556 115.192 39.308C115.536 39.052 115.776 38.708 115.912 38.276V36.608C115.776 36.176 115.536 35.836 115.192 35.588C114.856 35.332 114.472 35.204 114.04 35.204C113.648 35.204 113.304 35.3 113.008 35.492C112.72 35.684 112.492 35.948 112.324 36.284C112.164 36.612 112.084 36.996 112.084 37.436C112.084 37.868 112.164 38.256 112.324 38.6C112.492 38.936 112.72 39.2 113.008 39.392C113.304 39.584 113.648 39.68 114.04 39.68ZM123.452 41V36.848C123.452 36.376 123.32 36 123.056 35.72C122.792 35.432 122.448 35.288 122.024 35.288C121.536 35.288 121.1 35.468 120.716 35.828C120.34 36.18 120.04 36.732 119.816 37.484L119.624 36.14C119.872 35.508 120.228 35.036 120.692 34.724C121.164 34.412 121.676 34.256 122.228 34.256C122.724 34.256 123.152 34.364 123.512 34.58C123.88 34.788 124.164 35.084 124.364 35.468C124.564 35.844 124.664 36.288 124.664 36.8V41H123.452ZM118.748 41V32.168H119.96V41H118.748ZM126.685 41L125.593 34.376H126.721L127.297 38.12L127.537 39.728L127.873 38.12L128.713 34.376H129.805L130.681 38.12L131.017 39.74L131.245 38.12L131.821 34.376H132.913L131.821 41H130.393L129.529 37.376L129.253 35.588L128.977 37.376L128.113 41H126.685ZM138.534 41L138.486 39.5V36.68C138.486 36.208 138.33 35.84 138.018 35.576C137.714 35.304 137.294 35.168 136.758 35.168C136.238 35.168 135.814 35.288 135.486 35.528C135.158 35.76 134.978 36.084 134.946 36.5H133.758C133.798 36.028 133.95 35.628 134.214 35.3C134.478 34.964 134.83 34.708 135.27 34.532C135.71 34.348 136.218 34.256 136.794 34.256C137.386 34.256 137.898 34.356 138.33 34.556C138.762 34.748 139.094 35.028 139.326 35.396C139.566 35.764 139.686 36.212 139.686 36.74V41H138.534ZM136.146 41.144C135.714 41.144 135.334 41.068 135.006 40.916C134.678 40.756 134.422 40.532 134.238 40.244C134.054 39.948 133.962 39.604 133.962 39.212C133.962 38.532 134.222 38.004 134.742 37.628C135.27 37.252 136.006 37.064 136.95 37.064H138.642V37.964H136.902C136.358 37.964 135.93 38.068 135.618 38.276C135.314 38.484 135.162 38.776 135.162 39.152C135.162 39.464 135.27 39.708 135.486 39.884C135.71 40.06 136.01 40.148 136.386 40.148C136.866 40.148 137.29 40.02 137.658 39.764C138.034 39.5 138.338 39.14 138.57 38.684L138.702 39.572C138.494 40.076 138.174 40.464 137.742 40.736C137.31 41.008 136.778 41.144 136.146 41.144ZM143.758 37.664L144.382 39.308L145.006 37.652L146.386 34.4H147.646L144.586 41.612C144.402 42.036 144.202 42.368 143.986 42.608C143.778 42.856 143.542 43.028 143.278 43.124C143.014 43.228 142.706 43.28 142.354 43.28H141.178V42.296H142.27C142.478 42.296 142.654 42.248 142.798 42.152C142.95 42.064 143.086 41.928 143.206 41.744C143.326 41.568 143.446 41.336 143.566 41.048L143.746 40.616L141.118 34.4H142.378L143.758 37.664ZM159.68 41.144C159.096 41.144 158.58 41.044 158.132 40.844C157.692 40.636 157.352 40.348 157.112 39.98C156.872 39.604 156.748 39.156 156.74 38.636H157.88C157.88 39.124 158.044 39.508 158.372 39.788C158.7 40.068 159.132 40.208 159.668 40.208C160.124 40.208 160.488 40.124 160.76 39.956C161.04 39.78 161.18 39.544 161.18 39.248C161.18 39.016 161.1 38.832 160.94 38.696C160.788 38.552 160.584 38.44 160.328 38.36C160.072 38.28 159.788 38.212 159.476 38.156C159.172 38.092 158.864 38.02 158.552 37.94C158.248 37.852 157.968 37.744 157.712 37.616C157.456 37.48 157.248 37.3 157.088 37.076C156.928 36.852 156.848 36.56 156.848 36.2C156.848 35.824 156.956 35.492 157.172 35.204C157.388 34.908 157.692 34.676 158.084 34.508C158.484 34.34 158.956 34.256 159.5 34.256C160.324 34.256 160.984 34.448 161.48 34.832C161.984 35.208 162.256 35.728 162.296 36.392H161.156C161.132 36.008 160.972 35.712 160.676 35.504C160.388 35.288 159.996 35.18 159.5 35.18C159.036 35.18 158.68 35.272 158.432 35.456C158.192 35.64 158.072 35.872 158.072 36.152C158.072 36.368 158.152 36.54 158.312 36.668C158.472 36.788 158.68 36.884 158.936 36.956C159.192 37.02 159.472 37.08 159.776 37.136C160.088 37.184 160.396 37.248 160.7 37.328C161.012 37.408 161.296 37.52 161.552 37.664C161.808 37.8 162.012 37.988 162.164 38.228C162.324 38.468 162.404 38.78 162.404 39.164C162.404 39.78 162.156 40.264 161.66 40.616C161.164 40.968 160.504 41.144 159.68 41.144ZM167.136 41.144C166.456 41.144 165.868 41.008 165.372 40.736C164.876 40.456 164.496 40.06 164.232 39.548C163.968 39.028 163.836 38.408 163.836 37.688C163.836 36.968 163.968 36.352 164.232 35.84C164.504 35.328 164.888 34.936 165.384 34.664C165.888 34.392 166.488 34.256 167.184 34.256C168.248 34.256 169.04 34.552 169.56 35.144C170.08 35.728 170.308 36.532 170.244 37.556H164.796L164.808 36.644L169.008 36.656C168.976 36.232 168.792 35.892 168.456 35.636C168.12 35.38 167.696 35.252 167.184 35.252C166.496 35.252 165.968 35.468 165.6 35.9C165.232 36.332 165.048 36.944 165.048 37.736C165.048 38.208 165.128 38.628 165.288 38.996C165.456 39.356 165.696 39.636 166.008 39.836C166.32 40.036 166.696 40.136 167.136 40.136C167.656 40.136 168.088 40.012 168.432 39.764C168.784 39.516 169 39.18 169.08 38.756H170.292C170.188 39.5 169.856 40.084 169.296 40.508C168.736 40.932 168.016 41.144 167.136 41.144ZM175.169 41C174.761 41 174.413 40.92 174.125 40.76C173.837 40.592 173.621 40.356 173.477 40.052C173.333 39.748 173.261 39.392 173.261 38.984V33.152L174.473 32.492V38.984C174.473 39.176 174.501 39.352 174.557 39.512C174.613 39.672 174.721 39.796 174.881 39.884C175.049 39.972 175.293 40.016 175.613 40.016H177.593V41H175.169ZM171.701 35.384V34.4H176.537V35.384H171.701ZM182.734 41C182.326 41 181.978 40.92 181.69 40.76C181.402 40.592 181.186 40.356 181.042 40.052C180.898 39.748 180.826 39.392 180.826 38.984V33.152L182.038 32.492V38.984C182.038 39.176 182.066 39.352 182.122 39.512C182.178 39.672 182.286 39.796 182.446 39.884C182.614 39.972 182.858 40.016 183.178 40.016H185.158V41H182.734ZM179.266 35.384V34.4H184.102V35.384H179.266ZM189.218 41V34.4H190.43V41H189.218ZM186.782 41V40.016H192.698V41H186.782ZM187.658 35.384V34.4H189.818V35.384H187.658ZM189.134 33.272V31.964H190.49V33.272H189.134ZM199.099 41V36.836C199.099 36.372 198.967 36 198.703 35.72C198.439 35.432 198.095 35.288 197.671 35.288C197.183 35.288 196.747 35.468 196.363 35.828C195.987 36.18 195.687 36.732 195.463 37.484L195.271 36.128C195.519 35.504 195.875 35.036 196.339 34.724C196.811 34.412 197.323 34.256 197.875 34.256C198.371 34.256 198.799 34.364 199.159 34.58C199.527 34.788 199.811 35.08 200.011 35.456C200.211 35.832 200.311 36.276 200.311 36.788V41H199.099ZM194.395 41V34.4H195.547L195.607 35.888V41H194.395ZM206.724 35.348L206.76 34.4H207.9V40.28C207.9 41.256 207.636 42 207.108 42.512C206.588 43.024 205.8 43.28 204.744 43.28C204.16 43.28 203.652 43.2 203.22 43.04C202.796 42.88 202.46 42.64 202.212 42.32C201.972 42.008 201.836 41.616 201.804 41.144H203.064C203.104 41.504 203.264 41.78 203.544 41.972C203.832 42.172 204.252 42.272 204.804 42.272C205.428 42.272 205.896 42.112 206.208 41.792C206.528 41.472 206.688 41.016 206.688 40.424V39.548C206.464 39.884 206.164 40.148 205.788 40.34C205.42 40.532 205.008 40.628 204.552 40.628C203.984 40.628 203.48 40.492 203.04 40.22C202.608 39.948 202.268 39.572 202.02 39.092C201.772 38.604 201.648 38.056 201.648 37.448C201.648 36.792 201.776 36.228 202.032 35.756C202.288 35.276 202.64 34.908 203.088 34.652C203.536 34.388 204.044 34.256 204.612 34.256C205.068 34.256 205.48 34.356 205.848 34.556C206.216 34.756 206.508 35.02 206.724 35.348ZM204.816 39.68C205.248 39.68 205.632 39.556 205.968 39.308C206.312 39.052 206.552 38.708 206.688 38.276V36.608C206.552 36.176 206.312 35.836 205.968 35.588C205.632 35.332 205.248 35.204 204.816 35.204C204.424 35.204 204.08 35.3 203.784 35.492C203.496 35.684 203.268 35.948 203.1 36.284C202.94 36.612 202.86 36.996 202.86 37.436C202.86 37.868 202.94 38.256 203.1 38.6C203.268 38.936 203.496 39.2 203.784 39.392C204.08 39.584 204.424 39.68 204.816 39.68ZM212.633 41.144C212.049 41.144 211.533 41.044 211.085 40.844C210.645 40.636 210.305 40.348 210.065 39.98C209.825 39.604 209.701 39.156 209.693 38.636H210.833C210.833 39.124 210.997 39.508 211.325 39.788C211.653 40.068 212.085 40.208 212.621 40.208C213.077 40.208 213.441 40.124 213.713 39.956C213.993 39.78 214.133 39.544 214.133 39.248C214.133 39.016 214.053 38.832 213.893 38.696C213.741 38.552 213.537 38.44 213.281 38.36C213.025 38.28 212.741 38.212 212.429 38.156C212.125 38.092 211.817 38.02 211.505 37.94C211.201 37.852 210.921 37.744 210.665 37.616C210.409 37.48 210.201 37.3 210.041 37.076C209.881 36.852 209.801 36.56 209.801 36.2C209.801 35.824 209.909 35.492 210.125 35.204C210.341 34.908 210.645 34.676 211.037 34.508C211.437 34.34 211.909 34.256 212.453 34.256C213.277 34.256 213.937 34.448 214.433 34.832C214.937 35.208 215.209 35.728 215.249 36.392H214.109C214.085 36.008 213.925 35.712 213.629 35.504C213.341 35.288 212.949 35.18 212.453 35.18C211.989 35.18 211.633 35.272 211.385 35.456C211.145 35.64 211.025 35.872 211.025 36.152C211.025 36.368 211.105 36.54 211.265 36.668C211.425 36.788 211.633 36.884 211.889 36.956C212.145 37.02 212.425 37.08 212.729 37.136C213.041 37.184 213.349 37.248 213.653 37.328C213.965 37.408 214.249 37.52 214.505 37.664C214.761 37.8 214.965 37.988 215.117 38.228C215.277 38.468 215.357 38.78 215.357 39.164C215.357 39.78 215.109 40.264 214.613 40.616C214.117 40.968 213.457 41.144 212.633 41.144Z" fill="var(--colors-neutral-neutral-800)"/>
<path d="M282.4 43.3078L281.692 42.6001L287.292 37.0001L281.692 31.4001L282.4 30.6924L288 36.2924L293.6 30.6924L294.308 31.4001L288.708 37.0001L294.308 42.6001L293.6 43.3078L288 37.7078L282.4 43.3078Z" fill="var(--colors-neutral-neutral-800)"/>
<rect width="305" height="167" transform="translate(11 65)" fill="var(--colors-neutral-neutral-200)"/>
<path d="M110 208V89H217V208H110Z" fill="#F6EDFD"/>
<rect x="129" y="97" width="22" height="40" fill="var(--colors-areas-highway-vehicle, var(--colors-areas-highway-vehicle, #DACCE5))"/>
<rect x="129" y="160" width="22" height="40" fill="var(--colors-areas-highway-vehicle, var(--colors-areas-highway-vehicle, #DACCE5))"/>
<rect x="176" y="97" width="22" height="40" fill="var(--colors-areas-highway-vehicle, var(--colors-areas-highway-vehicle, #DACCE5))"/>
<rect x="176" y="160" width="22" height="40" fill="var(--colors-areas-highway-vehicle, var(--colors-areas-highway-vehicle, #DACCE5))"/>
<path d="M113.823 116.823C113.726 116.921 113.726 117.079 113.823 117.177L115.414 118.768C115.512 118.865 115.67 118.865 115.768 118.768C115.865 118.67 115.865 118.512 115.768 118.414L114.354 117L115.768 115.586C115.865 115.488 115.865 115.33 115.768 115.232C115.67 115.135 115.512 115.135 115.414 115.232L113.823 116.823ZM125.177 117.177C125.274 117.079 125.274 116.921 125.177 116.823L123.586 115.232C123.488 115.135 123.33 115.135 123.232 115.232C123.135 115.33 123.135 115.488 123.232 115.586L124.646 117L123.232 118.414C123.135 118.512 123.135 118.67 123.232 118.768C123.33 118.865 123.488 118.865 123.586 118.768L125.177 117.177ZM114 117.25H125V116.75H114V117.25Z" fill="var(--colors-neutral-neutral-800)"/>
<path d="M113.823 179.823C113.726 179.921 113.726 180.079 113.823 180.177L115.414 181.768C115.512 181.865 115.67 181.865 115.768 181.768C115.865 181.67 115.865 181.512 115.768 181.414L114.354 180L115.768 178.586C115.865 178.488 115.865 178.33 115.768 178.232C115.67 178.135 115.512 178.135 115.414 178.232L113.823 179.823ZM125.177 180.177C125.274 180.079 125.274 179.921 125.177 179.823L123.586 178.232C123.488 178.135 123.33 178.135 123.232 178.232C123.135 178.33 123.135 178.488 123.232 178.586L124.646 180L123.232 181.414C123.135 181.512 123.135 181.67 123.232 181.768C123.33 181.865 123.488 181.865 123.586 181.768L125.177 180.177ZM114 180.25H125V179.75H114V180.25Z" fill="var(--colors-neutral-neutral-800)"/>
<path d="M27.8807 263.5V256.227H28.7614V262.719H32.142V263.5H27.8807ZM34.9972 263.628C34.6515 263.628 34.3378 263.563 34.0561 263.433C33.7744 263.3 33.5507 263.109 33.3849 262.861C33.2192 262.61 33.1364 262.307 33.1364 261.952C33.1364 261.639 33.1979 261.386 33.321 261.192C33.4441 260.995 33.6087 260.841 33.8146 260.73C34.0206 260.619 34.2479 260.536 34.4964 260.482C34.7474 260.425 34.9995 260.38 35.2528 260.347C35.5843 260.304 35.853 260.272 36.0589 260.251C36.2673 260.227 36.4188 260.188 36.5135 260.134C36.6106 260.079 36.6591 259.984 36.6591 259.849V259.821C36.6591 259.471 36.5632 259.198 36.3714 259.004C36.1821 258.81 35.8944 258.713 35.5085 258.713C35.1084 258.713 34.7947 258.801 34.5675 258.976C34.3402 259.151 34.1804 259.338 34.0881 259.537L33.2926 259.253C33.4347 258.921 33.6241 258.663 33.8608 258.479C34.0999 258.292 34.3603 258.161 34.642 258.088C34.9261 258.012 35.2055 257.974 35.4801 257.974C35.6553 257.974 35.8565 257.996 36.0838 258.038C36.3134 258.079 36.5348 258.163 36.7479 258.29C36.9633 258.418 37.142 258.611 37.2841 258.869C37.4261 259.127 37.4972 259.473 37.4972 259.906V263.5H36.6591V262.761H36.6165C36.5597 262.88 36.465 263.006 36.3324 263.141C36.1998 263.276 36.0234 263.391 35.8033 263.486C35.5831 263.58 35.3144 263.628 34.9972 263.628ZM35.125 262.875C35.4564 262.875 35.7358 262.81 35.9631 262.68C36.1927 262.549 36.3655 262.381 36.4815 262.175C36.5999 261.969 36.6591 261.753 36.6591 261.526V260.759C36.6236 260.801 36.5455 260.84 36.4247 260.876C36.3063 260.909 36.169 260.938 36.0128 260.964C35.8589 260.988 35.7086 261.009 35.5618 261.028C35.4174 261.045 35.3002 261.059 35.2102 261.071C34.9924 261.099 34.7888 261.146 34.5994 261.21C34.4124 261.271 34.2609 261.365 34.1449 261.49C34.0313 261.613 33.9744 261.781 33.9744 261.994C33.9744 262.286 34.0821 262.506 34.2976 262.655C34.5154 262.802 34.7912 262.875 35.125 262.875ZM39.8649 260.219V263.5H39.0268V258.045H39.8365V258.898H39.9075C40.0353 258.621 40.2295 258.398 40.4899 258.23C40.7503 258.06 41.0865 257.974 41.4984 257.974C41.8677 257.974 42.1909 258.05 42.4679 258.202C42.7449 258.351 42.9603 258.578 43.1142 258.884C43.2681 259.187 43.345 259.57 43.345 260.034V263.5H42.5069V260.091C42.5069 259.662 42.3957 259.329 42.1731 259.089C41.9506 258.848 41.6452 258.727 41.2569 258.727C40.9894 258.727 40.7503 258.785 40.5396 258.901C40.3313 259.017 40.1667 259.187 40.046 259.409C39.9252 259.632 39.8649 259.902 39.8649 260.219ZM47.1634 263.614C46.6378 263.614 46.1844 263.498 45.8033 263.266C45.4245 263.031 45.1321 262.705 44.9261 262.286C44.7225 261.864 44.6207 261.374 44.6207 260.815C44.6207 260.257 44.7225 259.764 44.9261 259.338C45.1321 258.91 45.4186 258.576 45.7855 258.337C46.1548 258.095 46.5857 257.974 47.0781 257.974C47.3622 257.974 47.6428 258.022 47.9197 258.116C48.1967 258.211 48.4489 258.365 48.6761 258.578C48.9034 258.789 49.0845 259.068 49.2195 259.416C49.3544 259.764 49.4219 260.193 49.4219 260.702V261.057H45.2173V260.332H48.5696C48.5696 260.025 48.508 259.75 48.3849 259.509C48.2642 259.267 48.0914 259.076 47.8665 258.937C47.6439 258.797 47.3812 258.727 47.0781 258.727C46.7443 258.727 46.4555 258.81 46.2116 258.976C45.9702 259.139 45.7843 259.352 45.6541 259.615C45.5239 259.878 45.4588 260.16 45.4588 260.46V260.943C45.4588 261.355 45.5298 261.704 45.6719 261.991C45.8163 262.275 46.0163 262.491 46.272 262.641C46.5277 262.787 46.8248 262.861 47.1634 262.861C47.3835 262.861 47.5824 262.83 47.7599 262.768C47.9399 262.705 48.0949 262.61 48.2251 262.484C48.3554 262.357 48.456 262.198 48.527 262.009L49.3366 262.236C49.2514 262.51 49.1082 262.752 48.907 262.96C48.7057 263.166 48.4571 263.327 48.1612 263.443C47.8653 263.557 47.5327 263.614 47.1634 263.614ZM53.5092 263.5V258.045H54.3189V258.898H54.3899C54.5036 258.607 54.687 258.38 54.9403 258.219C55.1937 258.056 55.4979 257.974 55.853 257.974C56.2128 257.974 56.5123 258.056 56.7514 258.219C56.9929 258.38 57.1811 258.607 57.3161 258.898H57.3729C57.5125 258.616 57.7221 258.392 58.0014 258.227C58.2808 258.058 58.6158 257.974 59.0064 257.974C59.4941 257.974 59.893 258.127 60.2031 258.433C60.5133 258.736 60.6683 259.208 60.6683 259.849V263.5H59.8303V259.849C59.8303 259.447 59.7202 259.159 59.5 258.987C59.2798 258.814 59.0206 258.727 58.7223 258.727C58.3388 258.727 58.0417 258.843 57.831 259.075C57.6203 259.305 57.5149 259.596 57.5149 259.949V263.5H56.6626V259.764C56.6626 259.454 56.562 259.204 56.3608 259.015C56.1596 258.823 55.9003 258.727 55.5831 258.727C55.3653 258.727 55.1617 258.785 54.9723 258.901C54.7853 259.017 54.6338 259.178 54.5178 259.384C54.4041 259.588 54.3473 259.823 54.3473 260.091V263.5H53.5092ZM63.8058 263.628C63.4601 263.628 63.1464 263.563 62.8647 263.433C62.583 263.3 62.3593 263.109 62.1935 262.861C62.0278 262.61 61.945 262.307 61.945 261.952C61.945 261.639 62.0065 261.386 62.1296 261.192C62.2527 260.995 62.4173 260.841 62.6232 260.73C62.8292 260.619 63.0565 260.536 63.305 260.482C63.556 260.425 63.8081 260.38 64.0614 260.347C64.3929 260.304 64.6616 260.272 64.8675 260.251C65.0759 260.227 65.2274 260.188 65.3221 260.134C65.4192 260.079 65.4677 259.984 65.4677 259.849V259.821C65.4677 259.471 65.3718 259.198 65.18 259.004C64.9906 258.81 64.703 258.713 64.3171 258.713C63.917 258.713 63.6033 258.801 63.3761 258.976C63.1488 259.151 62.989 259.338 62.8967 259.537L62.1012 259.253C62.2433 258.921 62.4326 258.663 62.6694 258.479C62.9085 258.292 63.1689 258.161 63.4506 258.088C63.7347 258.012 64.0141 257.974 64.2887 257.974C64.4639 257.974 64.6651 257.996 64.8924 258.038C65.122 258.079 65.3434 258.163 65.5565 258.29C65.7719 258.418 65.9506 258.611 66.0927 258.869C66.2347 259.127 66.3058 259.473 66.3058 259.906V263.5H65.4677V262.761H65.4251C65.3683 262.88 65.2736 263.006 65.141 263.141C65.0084 263.276 64.832 263.391 64.6119 263.486C64.3917 263.58 64.123 263.628 63.8058 263.628ZM63.9336 262.875C64.265 262.875 64.5444 262.81 64.7717 262.68C65.0013 262.549 65.1741 262.381 65.2901 262.175C65.4085 261.969 65.4677 261.753 65.4677 261.526V260.759C65.4322 260.801 65.354 260.84 65.2333 260.876C65.1149 260.909 64.9776 260.938 64.8214 260.964C64.6675 260.988 64.5172 261.009 64.3704 261.028C64.226 261.045 64.1088 261.059 64.0188 261.071C63.801 261.099 63.5974 261.146 63.408 261.21C63.221 261.271 63.0695 261.365 62.9535 261.49C62.8398 261.613 62.783 261.781 62.783 261.994C62.783 262.286 62.8907 262.506 63.1062 262.655C63.324 262.802 63.5998 262.875 63.9336 262.875ZM67.8354 263.5V258.045H68.6451V258.869H68.7019C68.8013 258.599 68.9812 258.38 69.2417 258.212C69.5021 258.044 69.7956 257.96 70.1223 257.96C70.1839 257.96 70.2608 257.961 70.3532 257.964C70.4455 257.966 70.5153 257.97 70.5627 257.974V258.827C70.5343 258.82 70.4692 258.809 70.3674 258.795C70.2679 258.778 70.1626 258.77 70.0513 258.77C69.7862 258.77 69.5494 258.826 69.3411 258.937C69.1351 259.046 68.9718 259.197 68.851 259.391C68.7327 259.583 68.6735 259.802 68.6735 260.048V263.5H67.8354ZM73.5918 265.659C73.187 265.659 72.839 265.607 72.5478 265.503C72.2566 265.401 72.0139 265.266 71.8198 265.098C71.628 264.932 71.4753 264.755 71.3617 264.565L72.0293 264.097C72.1051 264.196 72.2009 264.31 72.3169 264.438C72.4329 264.568 72.5916 264.68 72.7928 264.775C72.9964 264.872 73.2627 264.92 73.5918 264.92C74.0321 264.92 74.3955 264.814 74.682 264.601C74.9685 264.388 75.1117 264.054 75.1117 263.599V262.491H75.0407C74.9791 262.591 74.8915 262.714 74.7779 262.861C74.6666 263.005 74.5056 263.134 74.2949 263.248C74.0866 263.359 73.8049 263.415 73.4498 263.415C73.0094 263.415 72.6141 263.311 72.2637 263.102C71.9157 262.894 71.6399 262.591 71.4363 262.193C71.235 261.795 71.1344 261.312 71.1344 260.744C71.1344 260.186 71.2327 259.699 71.4292 259.285C71.6257 258.868 71.8991 258.546 72.2495 258.319C72.5998 258.089 73.0047 257.974 73.464 257.974C73.8191 257.974 74.1008 258.034 74.3091 258.152C74.5198 258.268 74.6808 258.401 74.7921 258.55C74.9057 258.696 74.9933 258.817 75.0549 258.912H75.1401V258.045H75.9498V263.656C75.9498 264.125 75.8432 264.506 75.6301 264.8C75.4194 265.096 75.1354 265.312 74.7779 265.45C74.4228 265.589 74.0274 265.659 73.5918 265.659ZM73.5634 262.662C73.8996 262.662 74.1837 262.585 74.4157 262.431C74.6477 262.277 74.824 262.056 74.9448 261.767C75.0655 261.478 75.1259 261.133 75.1259 260.73C75.1259 260.337 75.0667 259.99 74.9483 259.69C74.83 259.389 74.6548 259.153 74.4228 258.983C74.1908 258.812 73.9043 258.727 73.5634 258.727C73.2083 258.727 72.9123 258.817 72.6756 258.997C72.4412 259.177 72.2649 259.419 72.1465 259.722C72.0305 260.025 71.9725 260.361 71.9725 260.73C71.9725 261.109 72.0317 261.444 72.15 261.735C72.2708 262.024 72.4483 262.251 72.6827 262.417C72.9194 262.58 73.213 262.662 73.5634 262.662ZM77.4838 263.5V258.045H78.3219V263.5H77.4838ZM77.91 257.136C77.7466 257.136 77.6058 257.081 77.4874 256.969C77.3714 256.858 77.3134 256.724 77.3134 256.568C77.3134 256.412 77.3714 256.278 77.4874 256.167C77.6058 256.056 77.7466 256 77.91 256C78.0733 256 78.213 256.056 78.329 256.167C78.4474 256.278 78.5066 256.412 78.5066 256.568C78.5066 256.724 78.4474 256.858 78.329 256.969C78.213 257.081 78.0733 257.136 77.91 257.136ZM80.695 260.219V263.5H79.8569V258.045H80.6665V258.898H80.7376C80.8654 258.621 81.0595 258.398 81.32 258.23C81.5804 258.06 81.9165 257.974 82.3285 257.974C82.6978 257.974 83.021 258.05 83.2979 258.202C83.5749 258.351 83.7904 258.578 83.9442 258.884C84.0981 259.187 84.1751 259.57 84.1751 260.034V263.5H83.337V260.091C83.337 259.662 83.2257 259.329 83.0032 259.089C82.7807 258.848 82.4753 258.727 82.087 258.727C81.8195 258.727 81.5804 258.785 81.3697 258.901C81.1613 259.017 80.9968 259.187 80.8761 259.409C80.7553 259.632 80.695 259.902 80.695 260.219Z" fill="var(--colors-neutral-neutral-800)"/>
<path d="M254.77 264V263.24C255.69 262.553 256.43 261.957 256.99 261.45C257.55 260.937 257.957 260.483 258.21 260.09C258.463 259.69 258.59 259.327 258.59 259C258.59 258.64 258.477 258.35 258.25 258.13C258.03 257.91 257.72 257.8 257.32 257.8C256.9 257.8 256.553 257.93 256.28 258.19C256.007 258.443 255.86 258.803 255.84 259.27H254.77C254.803 258.77 254.93 258.343 255.15 257.99C255.377 257.63 255.677 257.36 256.05 257.18C256.43 256.993 256.86 256.9 257.34 256.9C257.82 256.9 258.237 256.987 258.59 257.16C258.943 257.327 259.213 257.567 259.4 257.88C259.593 258.187 259.69 258.543 259.69 258.95C259.69 259.39 259.577 259.823 259.35 260.25C259.13 260.67 258.773 261.113 258.28 261.58C257.793 262.04 257.147 262.547 256.34 263.1H259.71V264H254.77ZM263.754 264.12C263.187 264.12 262.704 263.973 262.304 263.68C261.904 263.38 261.597 262.96 261.384 262.42C261.171 261.873 261.064 261.237 261.064 260.51C261.064 259.77 261.171 259.13 261.384 258.59C261.597 258.05 261.904 257.633 262.304 257.34C262.704 257.047 263.187 256.9 263.754 256.9C264.327 256.9 264.811 257.047 265.204 257.34C265.604 257.633 265.911 258.05 266.124 258.59C266.337 259.123 266.444 259.763 266.444 260.51C266.444 261.243 266.337 261.88 266.124 262.42C265.911 262.96 265.604 263.38 265.204 263.68C264.811 263.973 264.327 264.12 263.754 264.12ZM263.754 263.22C264.281 263.22 264.677 262.983 264.944 262.51C265.211 262.03 265.344 261.363 265.344 260.51C265.344 259.643 265.211 258.977 264.944 258.51C264.677 258.037 264.281 257.8 263.754 257.8C263.234 257.8 262.841 258.037 262.574 258.51C262.307 258.977 262.174 259.643 262.174 260.51C262.174 261.363 262.307 262.03 262.574 262.51C262.841 262.983 263.234 263.22 263.754 263.22ZM270.258 264.12C269.691 264.12 269.208 263.973 268.808 263.68C268.408 263.38 268.101 262.96 267.888 262.42C267.674 261.873 267.568 261.237 267.568 260.51C267.568 259.77 267.674 259.13 267.888 258.59C268.101 258.05 268.408 257.633 268.808 257.34C269.208 257.047 269.691 256.9 270.258 256.9C270.831 256.9 271.314 257.047 271.708 257.34C272.108 257.633 272.414 258.05 272.628 258.59C272.841 259.123 272.948 259.763 272.948 260.51C272.948 261.243 272.841 261.88 272.628 262.42C272.414 262.96 272.108 263.38 271.708 263.68C271.314 263.973 270.831 264.12 270.258 264.12ZM270.258 263.22C270.784 263.22 271.181 262.983 271.448 262.51C271.714 262.03 271.848 261.363 271.848 260.51C271.848 259.643 271.714 258.977 271.448 258.51C271.181 258.037 270.784 257.8 270.258 257.8C269.738 257.8 269.344 258.037 269.078 258.51C268.811 258.977 268.678 259.643 268.678 260.51C268.678 261.363 268.811 262.03 269.078 262.51C269.344 262.983 269.738 263.22 270.258 263.22ZM276.762 264.12C276.195 264.12 275.712 263.973 275.312 263.68C274.912 263.38 274.605 262.96 274.392 262.42C274.178 261.873 274.072 261.237 274.072 260.51C274.072 259.77 274.178 259.13 274.392 258.59C274.605 258.05 274.912 257.633 275.312 257.34C275.712 257.047 276.195 256.9 276.762 256.9C277.335 256.9 277.818 257.047 278.212 257.34C278.612 257.633 278.918 258.05 279.132 258.59C279.345 259.123 279.452 259.763 279.452 260.51C279.452 261.243 279.345 261.88 279.132 262.42C278.918 262.96 278.612 263.38 278.212 263.68C277.818 263.973 277.335 264.12 276.762 264.12ZM276.762 263.22C277.288 263.22 277.685 262.983 277.952 262.51C278.218 262.03 278.352 261.363 278.352 260.51C278.352 259.643 278.218 258.977 277.952 258.51C277.685 258.037 277.288 257.8 276.762 257.8C276.242 257.8 275.848 258.037 275.582 258.51C275.315 258.977 275.182 259.643 275.182 260.51C275.182 261.363 275.315 262.03 275.582 262.51C275.848 262.983 276.242 263.22 276.762 263.22ZM291.59 264V259.98C291.59 259.74 291.546 259.553 291.46 259.42C291.38 259.287 291.253 259.22 291.08 259.22C290.84 259.22 290.623 259.373 290.43 259.68C290.243 259.987 290.113 260.47 290.04 261.13L289.95 260.28C289.97 259.68 290.11 259.213 290.37 258.88C290.636 258.547 290.963 258.38 291.35 258.38C291.71 258.38 291.993 258.513 292.2 258.78C292.413 259.04 292.52 259.413 292.52 259.9V264H291.59ZM287.02 264V258.5H287.91L287.95 259.57V264H287.02ZM289.31 264V259.98C289.31 259.727 289.263 259.537 289.17 259.41C289.083 259.283 288.95 259.22 288.77 259.22C288.516 259.22 288.3 259.38 288.12 259.7C287.94 260.02 287.813 260.497 287.74 261.13L287.72 260.25C287.733 259.857 287.803 259.52 287.93 259.24C288.056 258.96 288.22 258.747 288.42 258.6C288.62 258.453 288.833 258.38 289.06 258.38C289.433 258.38 289.72 258.517 289.92 258.79C290.126 259.057 290.23 259.423 290.23 259.89V264H289.31ZM298.093 264V259.98C298.093 259.74 298.05 259.553 297.963 259.42C297.883 259.287 297.757 259.22 297.583 259.22C297.343 259.22 297.127 259.373 296.933 259.68C296.747 259.987 296.617 260.47 296.543 261.13L296.453 260.28C296.473 259.68 296.613 259.213 296.873 258.88C297.14 258.547 297.467 258.38 297.853 258.38C298.213 258.38 298.497 258.513 298.703 258.78C298.917 259.04 299.023 259.413 299.023 259.9V264H298.093ZM293.523 264V258.5H294.413L294.453 259.57V264H293.523ZM295.813 264V259.98C295.813 259.727 295.767 259.537 295.673 259.41C295.587 259.283 295.453 259.22 295.273 259.22C295.02 259.22 294.803 259.38 294.623 259.7C294.443 260.02 294.317 260.497 294.243 261.13L294.223 260.25C294.237 259.857 294.307 259.52 294.433 259.24C294.56 258.96 294.723 258.747 294.923 258.6C295.123 258.453 295.337 258.38 295.563 258.38C295.937 258.38 296.223 258.517 296.423 258.79C296.63 259.057 296.733 259.423 296.733 259.89V264H295.813Z" fill="var(--colors-neutral-neutral-800)"/>
<path d="M33.733 292.5H32.8523C32.8002 292.247 32.709 292.024 32.5788 291.832C32.451 291.641 32.2947 291.48 32.1101 291.349C31.9278 291.217 31.7254 291.117 31.5028 291.051C31.2803 290.985 31.0483 290.952 30.8068 290.952C30.3665 290.952 29.9676 291.063 29.6101 291.286C29.255 291.508 28.9721 291.836 28.7614 292.269C28.553 292.702 28.4489 293.234 28.4489 293.864C28.4489 294.493 28.553 295.025 28.7614 295.458C28.9721 295.891 29.255 296.219 29.6101 296.442C29.9676 296.664 30.3665 296.776 30.8068 296.776C31.0483 296.776 31.2803 296.742 31.5028 296.676C31.7254 296.61 31.9278 296.512 32.1101 296.381C32.2947 296.249 32.451 296.087 32.5788 295.895C32.709 295.701 32.8002 295.478 32.8523 295.227H33.733C33.6667 295.599 33.5459 295.932 33.3707 296.225C33.1955 296.519 32.9777 296.768 32.7173 296.974C32.4569 297.178 32.1645 297.333 31.8402 297.44C31.5182 297.546 31.1738 297.599 30.8068 297.599C30.1866 297.599 29.6349 297.448 29.152 297.145C28.669 296.842 28.2891 296.411 28.0121 295.852C27.7351 295.294 27.5966 294.631 27.5966 293.864C27.5966 293.097 27.7351 292.434 28.0121 291.875C28.2891 291.316 28.669 290.885 29.152 290.582C29.6349 290.279 30.1866 290.128 30.8068 290.128C31.1738 290.128 31.5182 290.181 31.8402 290.288C32.1645 290.394 32.4569 290.55 32.7173 290.756C32.9777 290.96 33.1955 291.209 33.3707 291.502C33.5459 291.793 33.6667 292.126 33.733 292.5ZM35.0424 297.5V292.045H35.8521V292.869H35.9089C36.0083 292.599 36.1883 292.38 36.4487 292.212C36.7091 292.044 37.0027 291.96 37.3294 291.96C37.3909 291.96 37.4679 291.961 37.5602 291.964C37.6525 291.966 37.7224 291.97 37.7697 291.974V292.827C37.7413 292.82 37.6762 292.809 37.5744 292.795C37.475 292.778 37.3696 292.77 37.2583 292.77C36.9932 292.77 36.7565 292.826 36.5481 292.937C36.3422 293.046 36.1788 293.197 36.0581 293.391C35.9397 293.583 35.8805 293.802 35.8805 294.048V297.5H35.0424ZM40.813 297.614C40.3206 297.614 39.8886 297.496 39.5169 297.262C39.1475 297.028 38.8587 296.7 38.6504 296.278C38.4444 295.857 38.3414 295.365 38.3414 294.801C38.3414 294.233 38.4444 293.737 38.6504 293.313C38.8587 292.889 39.1475 292.56 39.5169 292.326C39.8886 292.092 40.3206 291.974 40.813 291.974C41.3055 291.974 41.7363 292.092 42.1056 292.326C42.4773 292.56 42.7662 292.889 42.9721 293.313C43.1805 293.737 43.2846 294.233 43.2846 294.801C43.2846 295.365 43.1805 295.857 42.9721 296.278C42.7662 296.7 42.4773 297.028 42.1056 297.262C41.7363 297.496 41.3055 297.614 40.813 297.614ZM40.813 296.861C41.1871 296.861 41.4949 296.765 41.7363 296.573C41.9778 296.381 42.1565 296.129 42.2725 295.817C42.3886 295.504 42.4466 295.166 42.4466 294.801C42.4466 294.437 42.3886 294.097 42.2725 293.782C42.1565 293.467 41.9778 293.213 41.7363 293.018C41.4949 292.824 41.1871 292.727 40.813 292.727C40.439 292.727 40.1312 292.824 39.8897 293.018C39.6483 293.213 39.4695 293.467 39.3535 293.782C39.2375 294.097 39.1795 294.437 39.1795 294.801C39.1795 295.166 39.2375 295.504 39.3535 295.817C39.4695 296.129 39.6483 296.381 39.8897 296.573C40.1312 296.765 40.439 296.861 40.813 296.861ZM48.4276 293.267L47.6747 293.48C47.6274 293.355 47.5575 293.233 47.4652 293.114C47.3752 292.994 47.2521 292.894 47.0959 292.816C46.9396 292.738 46.7396 292.699 46.4957 292.699C46.1619 292.699 45.8838 292.776 45.6612 292.93C45.4411 293.081 45.331 293.274 45.331 293.509C45.331 293.717 45.4067 293.881 45.5582 294.002C45.7098 294.123 45.9465 294.223 46.2685 294.304L47.0781 294.503C47.5658 294.621 47.9292 294.802 48.1683 295.046C48.4074 295.288 48.527 295.599 48.527 295.98C48.527 296.293 48.437 296.572 48.2571 296.818C48.0795 297.064 47.831 297.259 47.5114 297.401C47.1918 297.543 46.8201 297.614 46.3963 297.614C45.84 297.614 45.3795 297.493 45.0149 297.251C44.6503 297.01 44.4195 296.657 44.3224 296.193L45.1179 295.994C45.1937 296.288 45.3369 296.508 45.5476 296.655C45.7607 296.802 46.0388 296.875 46.3821 296.875C46.7727 296.875 47.0829 296.792 47.3125 296.626C47.5445 296.458 47.6605 296.257 47.6605 296.023C47.6605 295.833 47.5942 295.675 47.4616 295.547C47.3291 295.417 47.1255 295.32 46.8509 295.256L45.9418 295.043C45.4422 294.924 45.0753 294.741 44.8409 294.492C44.6089 294.241 44.4929 293.928 44.4929 293.551C44.4929 293.243 44.5793 292.971 44.7521 292.734C44.9273 292.498 45.1652 292.312 45.4659 292.177C45.7689 292.042 46.1122 291.974 46.4957 291.974C47.0355 291.974 47.4593 292.093 47.767 292.33C48.0772 292.566 48.2973 292.879 48.4276 293.267ZM53.6522 293.267L52.8993 293.48C52.852 293.355 52.7821 293.233 52.6898 293.114C52.5998 292.994 52.4767 292.894 52.3205 292.816C52.1642 292.738 51.9642 292.699 51.7203 292.699C51.3865 292.699 51.1084 292.776 50.8858 292.93C50.6657 293.081 50.5556 293.274 50.5556 293.509C50.5556 293.717 50.6313 293.881 50.7828 294.002C50.9344 294.123 51.1711 294.223 51.4931 294.304L52.3027 294.503C52.7904 294.621 53.1538 294.802 53.3929 295.046C53.632 295.288 53.7516 295.599 53.7516 295.98C53.7516 296.293 53.6616 296.572 53.4817 296.818C53.3042 297.064 53.0556 297.259 52.736 297.401C52.4164 297.543 52.0447 297.614 51.6209 297.614C51.0646 297.614 50.6041 297.493 50.2395 297.251C49.8749 297.01 49.6441 296.657 49.5471 296.193L50.3425 295.994C50.4183 296.288 50.5615 296.508 50.7722 296.655C50.9853 296.802 51.2634 296.875 51.6067 296.875C51.9973 296.875 52.3075 296.792 52.5371 296.626C52.7691 296.458 52.8851 296.257 52.8851 296.023C52.8851 295.833 52.8188 295.675 52.6863 295.547C52.5537 295.417 52.3501 295.32 52.0755 295.256L51.1664 295.043C50.6668 294.924 50.2999 294.741 50.0655 294.492C49.8335 294.241 49.7175 293.928 49.7175 293.551C49.7175 293.243 49.8039 292.971 49.9767 292.734C50.1519 292.498 50.3899 292.312 50.6905 292.177C50.9935 292.042 51.3368 291.974 51.7203 291.974C52.2601 291.974 52.6839 292.093 52.9917 292.33C53.3018 292.566 53.522 292.879 53.6522 293.267ZM55.0131 297.5V292.045H55.8512V297.5H55.0131ZM55.4393 291.136C55.2759 291.136 55.1351 291.081 55.0167 290.969C54.9007 290.858 54.8427 290.724 54.8427 290.568C54.8427 290.412 54.9007 290.278 55.0167 290.167C55.1351 290.056 55.2759 290 55.4393 290C55.6026 290 55.7423 290.056 55.8583 290.167C55.9767 290.278 56.0359 290.412 56.0359 290.568C56.0359 290.724 55.9767 290.858 55.8583 290.969C55.7423 291.081 55.6026 291.136 55.4393 291.136ZM58.2243 294.219V297.5H57.3862V292.045H58.1958V292.898H58.2669C58.3947 292.621 58.5888 292.398 58.8493 292.23C59.1097 292.06 59.4458 291.974 59.8578 291.974C60.2271 291.974 60.5502 292.05 60.8272 292.202C61.1042 292.351 61.3197 292.578 61.4735 292.884C61.6274 293.187 61.7044 293.57 61.7044 294.034V297.5H60.8663V294.091C60.8663 293.662 60.755 293.329 60.5325 293.089C60.31 292.848 60.0046 292.727 59.6163 292.727C59.3488 292.727 59.1097 292.785 58.899 292.901C58.6906 293.017 58.5261 293.187 58.4054 293.409C58.2846 293.632 58.2243 293.902 58.2243 294.219ZM65.4375 299.659C65.0327 299.659 64.6847 299.607 64.3935 299.503C64.1023 299.401 63.8596 299.266 63.6655 299.098C63.4737 298.932 63.321 298.755 63.2074 298.565L63.875 298.097C63.9508 298.196 64.0466 298.31 64.1626 298.438C64.2786 298.568 64.4373 298.68 64.6385 298.775C64.8421 298.872 65.1084 298.92 65.4375 298.92C65.8778 298.92 66.2412 298.814 66.5277 298.601C66.8142 298.388 66.9574 298.054 66.9574 297.599V296.491H66.8864C66.8248 296.591 66.7372 296.714 66.6236 296.861C66.5123 297.005 66.3513 297.134 66.1406 297.248C65.9323 297.359 65.6506 297.415 65.2955 297.415C64.8551 297.415 64.4598 297.311 64.1094 297.102C63.7614 296.894 63.4856 296.591 63.282 296.193C63.0807 295.795 62.9801 295.312 62.9801 294.744C62.9801 294.186 63.0784 293.699 63.2749 293.285C63.4714 292.868 63.7448 292.546 64.0952 292.319C64.4455 292.089 64.8504 291.974 65.3097 291.974C65.6648 291.974 65.9465 292.034 66.1548 292.152C66.3655 292.268 66.5265 292.401 66.6378 292.55C66.7514 292.696 66.839 292.817 66.9006 292.912H66.9858V292.045H67.7955V297.656C67.7955 298.125 67.6889 298.506 67.4759 298.8C67.2652 299.096 66.9811 299.312 66.6236 299.45C66.2685 299.589 65.8731 299.659 65.4375 299.659ZM65.4091 296.662C65.7453 296.662 66.0294 296.585 66.2614 296.431C66.4934 296.277 66.6697 296.056 66.7905 295.767C66.9112 295.478 66.9716 295.133 66.9716 294.73C66.9716 294.337 66.9124 293.99 66.794 293.69C66.6757 293.389 66.5005 293.153 66.2685 292.983C66.0365 292.812 65.75 292.727 65.4091 292.727C65.054 292.727 64.758 292.817 64.5213 292.997C64.2869 293.177 64.1106 293.419 63.9922 293.722C63.8762 294.025 63.8182 294.361 63.8182 294.73C63.8182 295.109 63.8774 295.444 63.9957 295.735C64.1165 296.024 64.294 296.251 64.5284 296.417C64.7652 296.58 65.0587 296.662 65.4091 296.662ZM72.9801 294.219V297.5H72.142V290.227H72.9801V292.898H73.0511C73.179 292.616 73.3707 292.392 73.6264 292.227C73.8845 292.058 74.2277 291.974 74.6562 291.974C75.0279 291.974 75.3535 292.049 75.6328 292.198C75.9122 292.345 76.1288 292.571 76.2827 292.876C76.4389 293.179 76.517 293.565 76.517 294.034V297.5H75.679V294.091C75.679 293.658 75.5665 293.323 75.3416 293.086C75.1191 292.847 74.8101 292.727 74.4148 292.727C74.1402 292.727 73.8939 292.785 73.6761 292.901C73.4607 293.017 73.2902 293.187 73.1648 293.409C73.0417 293.632 72.9801 293.902 72.9801 294.219ZM78.0502 297.5V292.045H78.8883V297.5H78.0502ZM78.4764 291.136C78.313 291.136 78.1722 291.081 78.0538 290.969C77.9378 290.858 77.8798 290.724 77.8798 290.568C77.8798 290.412 77.9378 290.278 78.0538 290.167C78.1722 290.056 78.313 290 78.4764 290C78.6397 290 78.7794 290.056 78.8954 290.167C79.0138 290.278 79.073 290.412 79.073 290.568C79.073 290.724 79.0138 290.858 78.8954 290.969C78.7794 291.081 78.6397 291.136 78.4764 291.136ZM82.625 299.659C82.2202 299.659 81.8722 299.607 81.581 299.503C81.2898 299.401 81.0471 299.266 80.853 299.098C80.6612 298.932 80.5085 298.755 80.3949 298.565L81.0625 298.097C81.1383 298.196 81.2341 298.31 81.3501 298.438C81.4661 298.568 81.6248 298.68 81.826 298.775C82.0296 298.872 82.2959 298.92 82.625 298.92C83.0653 298.92 83.4287 298.814 83.7152 298.601C84.0017 298.388 84.1449 298.054 84.1449 297.599V296.491H84.0739C84.0123 296.591 83.9247 296.714 83.8111 296.861C83.6998 297.005 83.5388 297.134 83.3281 297.248C83.1198 297.359 82.8381 297.415 82.483 297.415C82.0426 297.415 81.6473 297.311 81.2969 297.102C80.9489 296.894 80.6731 296.591 80.4695 296.193C80.2682 295.795 80.1676 295.312 80.1676 294.744C80.1676 294.186 80.2659 293.699 80.4624 293.285C80.6589 292.868 80.9323 292.546 81.2827 292.319C81.633 292.089 82.0379 291.974 82.4972 291.974C82.8523 291.974 83.134 292.034 83.3423 292.152C83.553 292.268 83.714 292.401 83.8253 292.55C83.9389 292.696 84.0265 292.817 84.0881 292.912H84.1733V292.045H84.983V297.656C84.983 298.125 84.8764 298.506 84.6634 298.8C84.4527 299.096 84.1686 299.312 83.8111 299.45C83.456 299.589 83.0606 299.659 82.625 299.659ZM82.5966 296.662C82.9328 296.662 83.2169 296.585 83.4489 296.431C83.6809 296.277 83.8572 296.056 83.978 295.767C84.0987 295.478 84.1591 295.133 84.1591 294.73C84.1591 294.337 84.0999 293.99 83.9815 293.69C83.8632 293.389 83.688 293.153 83.456 292.983C83.224 292.812 82.9375 292.727 82.5966 292.727C82.2415 292.727 81.9455 292.817 81.7088 292.997C81.4744 293.177 81.2981 293.419 81.1797 293.722C81.0637 294.025 81.0057 294.361 81.0057 294.73C81.0057 295.109 81.0649 295.444 81.1832 295.735C81.304 296.024 81.4815 296.251 81.7159 296.417C81.9527 296.58 82.2462 296.662 82.5966 296.662ZM87.3551 294.219V297.5H86.517V290.227H87.3551V292.898H87.4261C87.554 292.616 87.7457 292.392 88.0014 292.227C88.2595 292.058 88.6027 291.974 89.0312 291.974C89.4029 291.974 89.7285 292.049 90.0078 292.198C90.2872 292.345 90.5038 292.571 90.6577 292.876C90.8139 293.179 90.892 293.565 90.892 294.034V297.5H90.054V294.091C90.054 293.658 89.9415 293.323 89.7166 293.086C89.4941 292.847 89.1851 292.727 88.7898 292.727C88.5152 292.727 88.2689 292.785 88.0511 292.901C87.8357 293.017 87.6652 293.187 87.5398 293.409C87.4167 293.632 87.3551 293.902 87.3551 294.219ZM93.661 297.5L91.9991 292.045H92.8798L94.0588 296.222H94.1156L95.2804 292.045H96.1752L97.3258 296.207H97.3826L98.5616 292.045H99.4423L97.7804 297.5H96.9565L95.7633 293.31H95.6781L94.4849 297.5H93.661ZM102.155 297.628C101.81 297.628 101.496 297.563 101.214 297.433C100.933 297.3 100.709 297.109 100.543 296.861C100.377 296.61 100.295 296.307 100.295 295.952C100.295 295.639 100.356 295.386 100.479 295.192C100.602 294.995 100.767 294.841 100.973 294.73C101.179 294.619 101.406 294.536 101.655 294.482C101.906 294.425 102.158 294.38 102.411 294.347C102.742 294.304 103.011 294.272 103.217 294.251C103.425 294.227 103.577 294.188 103.672 294.134C103.769 294.079 103.817 293.984 103.817 293.849V293.821C103.817 293.471 103.721 293.198 103.53 293.004C103.34 292.81 103.053 292.713 102.667 292.713C102.267 292.713 101.953 292.801 101.726 292.976C101.498 293.151 101.339 293.338 101.246 293.537L100.451 293.253C100.593 292.921 100.782 292.663 101.019 292.479C101.258 292.292 101.519 292.161 101.8 292.088C102.084 292.012 102.364 291.974 102.638 291.974C102.814 291.974 103.015 291.996 103.242 292.038C103.472 292.079 103.693 292.163 103.906 292.29C104.122 292.418 104.3 292.611 104.442 292.869C104.584 293.127 104.655 293.473 104.655 293.906V297.5H103.817V296.761H103.775C103.718 296.88 103.623 297.006 103.491 297.141C103.358 297.276 103.182 297.391 102.961 297.486C102.741 297.58 102.473 297.628 102.155 297.628ZM102.283 296.875C102.615 296.875 102.894 296.81 103.121 296.68C103.351 296.549 103.524 296.381 103.64 296.175C103.758 295.969 103.817 295.753 103.817 295.526V294.759C103.782 294.801 103.704 294.84 103.583 294.876C103.465 294.909 103.327 294.938 103.171 294.964C103.017 294.988 102.867 295.009 102.72 295.028C102.576 295.045 102.458 295.059 102.368 295.071C102.151 295.099 101.947 295.146 101.758 295.21C101.571 295.271 101.419 295.365 101.303 295.49C101.189 295.613 101.133 295.781 101.133 295.994C101.133 296.286 101.24 296.506 101.456 296.655C101.674 296.802 101.949 296.875 102.283 296.875ZM106.529 299.545C106.387 299.545 106.261 299.534 106.15 299.51C106.038 299.489 105.961 299.467 105.919 299.446L106.132 298.707C106.335 298.759 106.515 298.778 106.672 298.764C106.828 298.75 106.966 298.68 107.087 298.555C107.21 298.432 107.323 298.232 107.424 297.955L107.581 297.528L105.564 292.045H106.473L107.978 296.392H108.035L109.541 292.045H110.45L108.135 298.295C108.03 298.577 107.901 298.81 107.748 298.995C107.594 299.182 107.415 299.321 107.211 299.411C107.01 299.5 106.783 299.545 106.529 299.545ZM114.369 297.5V292.045H115.178V292.898H115.249C115.363 292.607 115.546 292.38 115.8 292.219C116.053 292.056 116.357 291.974 116.712 291.974C117.072 291.974 117.372 292.056 117.611 292.219C117.852 292.38 118.04 292.607 118.175 292.898H118.232C118.372 292.616 118.581 292.392 118.861 292.227C119.14 292.058 119.475 291.974 119.866 291.974C120.353 291.974 120.752 292.127 121.062 292.433C121.373 292.736 121.528 293.208 121.528 293.849V297.5H120.69V293.849C120.69 293.447 120.58 293.159 120.359 292.987C120.139 292.814 119.88 292.727 119.582 292.727C119.198 292.727 118.901 292.843 118.69 293.075C118.48 293.305 118.374 293.596 118.374 293.949V297.5H117.522V293.764C117.522 293.454 117.421 293.204 117.22 293.015C117.019 292.823 116.76 292.727 116.442 292.727C116.225 292.727 116.021 292.785 115.832 292.901C115.645 293.017 115.493 293.178 115.377 293.384C115.263 293.588 115.207 293.823 115.207 294.091V297.5H114.369ZM124.665 297.628C124.319 297.628 124.006 297.563 123.724 297.433C123.442 297.3 123.219 297.109 123.053 296.861C122.887 296.61 122.804 296.307 122.804 295.952C122.804 295.639 122.866 295.386 122.989 295.192C123.112 294.995 123.277 294.841 123.483 294.73C123.689 294.619 123.916 294.536 124.164 294.482C124.415 294.425 124.667 294.38 124.921 294.347C125.252 294.304 125.521 294.272 125.727 294.251C125.935 294.227 126.087 294.188 126.181 294.134C126.279 294.079 126.327 293.984 126.327 293.849V293.821C126.327 293.471 126.231 293.198 126.039 293.004C125.85 292.81 125.562 292.713 125.176 292.713C124.776 292.713 124.463 292.801 124.235 292.976C124.008 293.151 123.848 293.338 123.756 293.537L122.961 293.253C123.103 292.921 123.292 292.663 123.529 292.479C123.768 292.292 124.028 292.161 124.31 292.088C124.594 292.012 124.873 291.974 125.148 291.974C125.323 291.974 125.525 291.996 125.752 292.038C125.981 292.079 126.203 292.163 126.416 292.29C126.631 292.418 126.81 292.611 126.952 292.869C127.094 293.127 127.165 293.473 127.165 293.906V297.5H126.327V296.761H126.284C126.228 296.88 126.133 297.006 126 297.141C125.868 297.276 125.691 297.391 125.471 297.486C125.251 297.58 124.982 297.628 124.665 297.628ZM124.793 296.875C125.124 296.875 125.404 296.81 125.631 296.68C125.861 296.549 126.033 296.381 126.15 296.175C126.268 295.969 126.327 295.753 126.327 295.526V294.759C126.292 294.801 126.213 294.84 126.093 294.876C125.974 294.909 125.837 294.938 125.681 294.964C125.527 294.988 125.377 295.009 125.23 295.028C125.085 295.045 124.968 295.059 124.878 295.071C124.66 295.099 124.457 295.146 124.267 295.21C124.08 295.271 123.929 295.365 123.813 295.49C123.699 295.613 123.642 295.781 123.642 295.994C123.642 296.286 123.75 296.506 123.966 296.655C124.183 296.802 124.459 296.875 124.793 296.875ZM128.695 297.5V292.045H129.504V292.869H129.561C129.661 292.599 129.841 292.38 130.101 292.212C130.361 292.044 130.655 291.96 130.982 291.96C131.043 291.96 131.12 291.961 131.213 291.964C131.305 291.966 131.375 291.97 131.422 291.974V292.827C131.394 292.82 131.329 292.809 131.227 292.795C131.127 292.778 131.022 292.77 130.911 292.77C130.646 292.77 130.409 292.826 130.2 292.937C129.994 293.046 129.831 293.197 129.71 293.391C129.592 293.583 129.533 293.802 129.533 294.048V297.5H128.695ZM134.451 299.659C134.046 299.659 133.698 299.607 133.407 299.503C133.116 299.401 132.873 299.266 132.679 299.098C132.487 298.932 132.335 298.755 132.221 298.565L132.889 298.097C132.964 298.196 133.06 298.31 133.176 298.438C133.292 298.568 133.451 298.68 133.652 298.775C133.856 298.872 134.122 298.92 134.451 298.92C134.892 298.92 135.255 298.814 135.541 298.601C135.828 298.388 135.971 298.054 135.971 297.599V296.491H135.9C135.838 296.591 135.751 296.714 135.637 296.861C135.526 297.005 135.365 297.134 135.154 297.248C134.946 297.359 134.664 297.415 134.309 297.415C133.869 297.415 133.473 297.311 133.123 297.102C132.775 296.894 132.499 296.591 132.296 296.193C132.094 295.795 131.994 295.312 131.994 294.744C131.994 294.186 132.092 293.699 132.289 293.285C132.485 292.868 132.758 292.546 133.109 292.319C133.459 292.089 133.864 291.974 134.323 291.974C134.678 291.974 134.96 292.034 135.169 292.152C135.379 292.268 135.54 292.401 135.651 292.55C135.765 292.696 135.853 292.817 135.914 292.912H135.999V292.045H136.809V297.656C136.809 298.125 136.703 298.506 136.49 298.8C136.279 299.096 135.995 299.312 135.637 299.45C135.282 299.589 134.887 299.659 134.451 299.659ZM134.423 296.662C134.759 296.662 135.043 296.585 135.275 296.431C135.507 296.277 135.683 296.056 135.804 295.767C135.925 295.478 135.985 295.133 135.985 294.73C135.985 294.337 135.926 293.99 135.808 293.69C135.689 293.389 135.514 293.153 135.282 292.983C135.05 292.812 134.764 292.727 134.423 292.727C134.068 292.727 133.772 292.817 133.535 292.997C133.301 293.177 133.124 293.419 133.006 293.722C132.89 294.025 132.832 294.361 132.832 294.73C132.832 295.109 132.891 295.444 133.009 295.735C133.13 296.024 133.308 296.251 133.542 296.417C133.779 296.58 134.072 296.662 134.423 296.662ZM138.343 297.5V292.045H139.181V297.5H138.343ZM138.769 291.136C138.606 291.136 138.465 291.081 138.347 290.969C138.231 290.858 138.173 290.724 138.173 290.568C138.173 290.412 138.231 290.278 138.347 290.167C138.465 290.056 138.606 290 138.769 290C138.933 290 139.072 290.056 139.188 290.167C139.307 290.278 139.366 290.412 139.366 290.568C139.366 290.724 139.307 290.858 139.188 290.969C139.072 291.081 138.933 291.136 138.769 291.136ZM141.554 294.219V297.5H140.716V292.045H141.526V292.898H141.597C141.725 292.621 141.919 292.398 142.179 292.23C142.44 292.06 142.776 291.974 143.188 291.974C143.557 291.974 143.88 292.05 144.157 292.202C144.434 292.351 144.65 292.578 144.804 292.884C144.958 293.187 145.034 293.57 145.034 294.034V297.5H144.196V294.091C144.196 293.662 144.085 293.329 143.863 293.089C143.64 292.848 143.335 292.727 142.946 292.727C142.679 292.727 142.44 292.785 142.229 292.901C142.021 293.017 141.856 293.187 141.735 293.409C141.615 293.632 141.554 293.902 141.554 294.219Z" fill="var(--colors-neutral-neutral-800)"/>
<path d="M257.17 298V293.69L257.22 292.27L256.09 293.19L254.84 294.19V292.94L257.46 291.02H258.23V298H257.17ZM254.84 298V297.1H259.78V298H254.84ZM263.754 298.12C263.187 298.12 262.704 297.973 262.304 297.68C261.904 297.38 261.597 296.96 261.384 296.42C261.171 295.873 261.064 295.237 261.064 294.51C261.064 293.77 261.171 293.13 261.384 292.59C261.597 292.05 261.904 291.633 262.304 291.34C262.704 291.047 263.187 290.9 263.754 290.9C264.327 290.9 264.811 291.047 265.204 291.34C265.604 291.633 265.911 292.05 266.124 292.59C266.337 293.123 266.444 293.763 266.444 294.51C266.444 295.243 266.337 295.88 266.124 296.42C265.911 296.96 265.604 297.38 265.204 297.68C264.811 297.973 264.327 298.12 263.754 298.12ZM263.754 297.22C264.281 297.22 264.677 296.983 264.944 296.51C265.211 296.03 265.344 295.363 265.344 294.51C265.344 293.643 265.211 292.977 264.944 292.51C264.677 292.037 264.281 291.8 263.754 291.8C263.234 291.8 262.841 292.037 262.574 292.51C262.307 292.977 262.174 293.643 262.174 294.51C262.174 295.363 262.307 296.03 262.574 296.51C262.841 296.983 263.234 297.22 263.754 297.22ZM270.258 298.12C269.691 298.12 269.208 297.973 268.808 297.68C268.408 297.38 268.101 296.96 267.888 296.42C267.674 295.873 267.568 295.237 267.568 294.51C267.568 293.77 267.674 293.13 267.888 292.59C268.101 292.05 268.408 291.633 268.808 291.34C269.208 291.047 269.691 290.9 270.258 290.9C270.831 290.9 271.314 291.047 271.708 291.34C272.108 291.633 272.414 292.05 272.628 292.59C272.841 293.123 272.948 293.763 272.948 294.51C272.948 295.243 272.841 295.88 272.628 296.42C272.414 296.96 272.108 297.38 271.708 297.68C271.314 297.973 270.831 298.12 270.258 298.12ZM270.258 297.22C270.784 297.22 271.181 296.983 271.448 296.51C271.714 296.03 271.848 295.363 271.848 294.51C271.848 293.643 271.714 292.977 271.448 292.51C271.181 292.037 270.784 291.8 270.258 291.8C269.738 291.8 269.344 292.037 269.078 292.51C268.811 292.977 268.678 293.643 268.678 294.51C268.678 295.363 268.811 296.03 269.078 296.51C269.344 296.983 269.738 297.22 270.258 297.22ZM276.762 298.12C276.195 298.12 275.712 297.973 275.312 297.68C274.912 297.38 274.605 296.96 274.392 296.42C274.178 295.873 274.072 295.237 274.072 294.51C274.072 293.77 274.178 293.13 274.392 292.59C274.605 292.05 274.912 291.633 275.312 291.34C275.712 291.047 276.195 290.9 276.762 290.9C277.335 290.9 277.818 291.047 278.212 291.34C278.612 291.633 278.918 292.05 279.132 292.59C279.345 293.123 279.452 293.763 279.452 294.51C279.452 295.243 279.345 295.88 279.132 296.42C278.918 296.96 278.612 297.38 278.212 297.68C277.818 297.973 277.335 298.12 276.762 298.12ZM276.762 297.22C277.288 297.22 277.685 296.983 277.952 296.51C278.218 296.03 278.352 295.363 278.352 294.51C278.352 293.643 278.218 292.977 277.952 292.51C277.685 292.037 277.288 291.8 276.762 291.8C276.242 291.8 275.848 292.037 275.582 292.51C275.315 292.977 275.182 293.643 275.182 294.51C275.182 295.363 275.315 296.03 275.582 296.51C275.848 296.983 276.242 297.22 276.762 297.22ZM291.59 298V293.98C291.59 293.74 291.546 293.553 291.46 293.42C291.38 293.287 291.253 293.22 291.08 293.22C290.84 293.22 290.623 293.373 290.43 293.68C290.243 293.987 290.113 294.47 290.04 295.13L289.95 294.28C289.97 293.68 290.11 293.213 290.37 292.88C290.636 292.547 290.963 292.38 291.35 292.38C291.71 292.38 291.993 292.513 292.2 292.78C292.413 293.04 292.52 293.413 292.52 293.9V298H291.59ZM287.02 298V292.5H287.91L287.95 293.57V298H287.02ZM289.31 298V293.98C289.31 293.727 289.263 293.537 289.17 293.41C289.083 293.283 288.95 293.22 288.77 293.22C288.516 293.22 288.3 293.38 288.12 293.7C287.94 294.02 287.813 294.497 287.74 295.13L287.72 294.25C287.733 293.857 287.803 293.52 287.93 293.24C288.056 292.96 288.22 292.747 288.42 292.6C288.62 292.453 288.833 292.38 289.06 292.38C289.433 292.38 289.72 292.517 289.92 292.79C290.126 293.057 290.23 293.423 290.23 293.89V298H289.31ZM298.093 298V293.98C298.093 293.74 298.05 293.553 297.963 293.42C297.883 293.287 297.757 293.22 297.583 293.22C297.343 293.22 297.127 293.373 296.933 293.68C296.747 293.987 296.617 294.47 296.543 295.13L296.453 294.28C296.473 293.68 296.613 293.213 296.873 292.88C297.14 292.547 297.467 292.38 297.853 292.38C298.213 292.38 298.497 292.513 298.703 292.78C298.917 293.04 299.023 293.413 299.023 293.9V298H298.093ZM293.523 298V292.5H294.413L294.453 293.57V298H293.523ZM295.813 298V293.98C295.813 293.727 295.767 293.537 295.673 293.41C295.587 293.283 295.453 293.22 295.273 293.22C295.02 293.22 294.803 293.38 294.623 293.7C294.443 294.02 294.317 294.497 294.243 295.13L294.223 294.25C294.237 293.857 294.307 293.52 294.433 293.24C294.56 292.96 294.723 292.747 294.923 292.6C295.123 292.453 295.337 292.38 295.563 292.38C295.937 292.38 296.223 292.517 296.423 292.79C296.63 293.057 296.733 293.423 296.733 293.89V298H295.813Z" fill="var(--colors-neutral-neutral-800)"/>
<path d="M27.8807 331.5V324.227H28.7614V330.719H32.142V331.5H27.8807ZM34.9972 331.628C34.6515 331.628 34.3378 331.563 34.0561 331.433C33.7744 331.3 33.5507 331.109 33.3849 330.861C33.2192 330.61 33.1364 330.307 33.1364 329.952C33.1364 329.639 33.1979 329.386 33.321 329.192C33.4441 328.995 33.6087 328.841 33.8146 328.73C34.0206 328.619 34.2479 328.536 34.4964 328.482C34.7474 328.425 34.9995 328.38 35.2528 328.347C35.5843 328.304 35.853 328.272 36.0589 328.251C36.2673 328.227 36.4188 328.188 36.5135 328.134C36.6106 328.079 36.6591 327.984 36.6591 327.849V327.821C36.6591 327.471 36.5632 327.198 36.3714 327.004C36.1821 326.81 35.8944 326.713 35.5085 326.713C35.1084 326.713 34.7947 326.801 34.5675 326.976C34.3402 327.151 34.1804 327.338 34.0881 327.537L33.2926 327.253C33.4347 326.921 33.6241 326.663 33.8608 326.479C34.0999 326.292 34.3603 326.161 34.642 326.088C34.9261 326.012 35.2055 325.974 35.4801 325.974C35.6553 325.974 35.8565 325.996 36.0838 326.038C36.3134 326.079 36.5348 326.163 36.7479 326.29C36.9633 326.418 37.142 326.611 37.2841 326.869C37.4261 327.127 37.4972 327.473 37.4972 327.906V331.5H36.6591V330.761H36.6165C36.5597 330.88 36.465 331.006 36.3324 331.141C36.1998 331.276 36.0234 331.391 35.8033 331.486C35.5831 331.58 35.3144 331.628 34.9972 331.628ZM35.125 330.875C35.4564 330.875 35.7358 330.81 35.9631 330.68C36.1927 330.549 36.3655 330.381 36.4815 330.175C36.5999 329.969 36.6591 329.753 36.6591 329.526V328.759C36.6236 328.801 36.5455 328.84 36.4247 328.876C36.3063 328.909 36.169 328.938 36.0128 328.964C35.8589 328.988 35.7086 329.009 35.5618 329.028C35.4174 329.045 35.3002 329.059 35.2102 329.071C34.9924 329.099 34.7888 329.146 34.5994 329.21C34.4124 329.271 34.2609 329.365 34.1449 329.49C34.0313 329.613 33.9744 329.781 33.9744 329.994C33.9744 330.286 34.0821 330.506 34.2976 330.655C34.5154 330.802 34.7912 330.875 35.125 330.875ZM39.8649 328.219V331.5H39.0268V326.045H39.8365V326.898H39.9075C40.0353 326.621 40.2295 326.398 40.4899 326.23C40.7503 326.06 41.0865 325.974 41.4984 325.974C41.8677 325.974 42.1909 326.05 42.4679 326.202C42.7449 326.351 42.9603 326.578 43.1142 326.884C43.2681 327.187 43.345 327.57 43.345 328.034V331.5H42.5069V328.091C42.5069 327.662 42.3957 327.329 42.1731 327.089C41.9506 326.848 41.6452 326.727 41.2569 326.727C40.9894 326.727 40.7503 326.785 40.5396 326.901C40.3313 327.017 40.1667 327.187 40.046 327.409C39.9252 327.632 39.8649 327.902 39.8649 328.219ZM47.1634 331.614C46.6378 331.614 46.1844 331.498 45.8033 331.266C45.4245 331.031 45.1321 330.705 44.9261 330.286C44.7225 329.864 44.6207 329.374 44.6207 328.815C44.6207 328.257 44.7225 327.764 44.9261 327.338C45.1321 326.91 45.4186 326.576 45.7855 326.337C46.1548 326.095 46.5857 325.974 47.0781 325.974C47.3622 325.974 47.6428 326.022 47.9197 326.116C48.1967 326.211 48.4489 326.365 48.6761 326.578C48.9034 326.789 49.0845 327.068 49.2195 327.416C49.3544 327.764 49.4219 328.193 49.4219 328.702V329.057H45.2173V328.332H48.5696C48.5696 328.025 48.508 327.75 48.3849 327.509C48.2642 327.267 48.0914 327.076 47.8665 326.937C47.6439 326.797 47.3812 326.727 47.0781 326.727C46.7443 326.727 46.4555 326.81 46.2116 326.976C45.9702 327.139 45.7843 327.352 45.6541 327.615C45.5239 327.878 45.4588 328.16 45.4588 328.46V328.943C45.4588 329.355 45.5298 329.704 45.6719 329.991C45.8163 330.275 46.0163 330.491 46.272 330.641C46.5277 330.787 46.8248 330.861 47.1634 330.861C47.3835 330.861 47.5824 330.83 47.7599 330.768C47.9399 330.705 48.0949 330.61 48.2251 330.484C48.3554 330.357 48.456 330.198 48.527 330.009L49.3366 330.236C49.2514 330.51 49.1082 330.752 48.907 330.96C48.7057 331.166 48.4571 331.327 48.1612 331.443C47.8653 331.557 47.5327 331.614 47.1634 331.614ZM55.7109 333.659C55.3061 333.659 54.9581 333.607 54.6669 333.503C54.3757 333.401 54.133 333.266 53.9389 333.098C53.7472 332.932 53.5945 332.755 53.4808 332.565L54.1484 332.097C54.2242 332.196 54.3201 332.31 54.4361 332.438C54.5521 332.568 54.7107 332.68 54.9119 332.775C55.1155 332.872 55.3819 332.92 55.7109 332.92C56.1513 332.92 56.5147 332.814 56.8011 332.601C57.0876 332.388 57.2308 332.054 57.2308 331.599V330.491H57.1598C57.0982 330.591 57.0107 330.714 56.897 330.861C56.7857 331.005 56.6248 331.134 56.4141 331.248C56.2057 331.359 55.924 331.415 55.5689 331.415C55.1286 331.415 54.7332 331.311 54.3828 331.102C54.0348 330.894 53.759 330.591 53.5554 330.193C53.3542 329.795 53.2536 329.312 53.2536 328.744C53.2536 328.186 53.3518 327.699 53.5483 327.285C53.7448 326.868 54.0182 326.546 54.3686 326.319C54.719 326.089 55.1238 325.974 55.5831 325.974C55.9382 325.974 56.2199 326.034 56.4283 326.152C56.639 326.268 56.8 326.401 56.9112 326.55C57.0249 326.696 57.1125 326.817 57.174 326.912H57.2592V326.045H58.0689V331.656C58.0689 332.125 57.9624 332.506 57.7493 332.8C57.5386 333.096 57.2545 333.312 56.897 333.45C56.5419 333.589 56.1465 333.659 55.7109 333.659ZM55.6825 330.662C56.0187 330.662 56.3028 330.585 56.5348 330.431C56.7668 330.277 56.9432 330.056 57.0639 329.767C57.1847 329.478 57.245 329.133 57.245 328.73C57.245 328.337 57.1858 327.99 57.0675 327.69C56.9491 327.389 56.7739 327.153 56.5419 326.983C56.3099 326.812 56.0234 326.727 55.6825 326.727C55.3274 326.727 55.0315 326.817 54.7947 326.997C54.5604 327.177 54.384 327.419 54.2656 327.722C54.1496 328.025 54.0916 328.361 54.0916 328.73C54.0916 329.109 54.1508 329.444 54.2692 329.735C54.3899 330.024 54.5675 330.251 54.8018 330.417C55.0386 330.58 55.3321 330.662 55.6825 330.662ZM61.2081 331.628C60.8625 331.628 60.5488 331.563 60.267 331.433C59.9853 331.3 59.7616 331.109 59.5959 330.861C59.4302 330.61 59.3473 330.307 59.3473 329.952C59.3473 329.639 59.4089 329.386 59.532 329.192C59.6551 328.995 59.8196 328.841 60.0256 328.73C60.2315 328.619 60.4588 328.536 60.7074 328.482C60.9583 328.425 61.2105 328.38 61.4638 328.347C61.7952 328.304 62.0639 328.272 62.2699 328.251C62.4782 328.227 62.6297 328.188 62.7244 328.134C62.8215 328.079 62.87 327.984 62.87 327.849V327.821C62.87 327.471 62.7741 327.198 62.5824 327.004C62.393 326.81 62.1054 326.713 61.7195 326.713C61.3194 326.713 61.0057 326.801 60.7784 326.976C60.5511 327.151 60.3913 327.338 60.299 327.537L59.5036 327.253C59.6456 326.921 59.835 326.663 60.0717 326.479C60.3108 326.292 60.5713 326.161 60.853 326.088C61.1371 326.012 61.4164 325.974 61.6911 325.974C61.8662 325.974 62.0675 325.996 62.2947 326.038C62.5244 326.079 62.7457 326.163 62.9588 326.29C63.1742 326.418 63.353 326.611 63.495 326.869C63.6371 327.127 63.7081 327.473 63.7081 327.906V331.5H62.87V330.761H62.8274C62.7706 330.88 62.6759 331.006 62.5433 331.141C62.4107 331.276 62.2344 331.391 62.0142 331.486C61.794 331.58 61.5253 331.628 61.2081 331.628ZM61.3359 330.875C61.6674 330.875 61.9467 330.81 62.174 330.68C62.4036 330.549 62.5765 330.381 62.6925 330.175C62.8108 329.969 62.87 329.753 62.87 329.526V328.759C62.8345 328.801 62.7564 328.84 62.6357 328.876C62.5173 328.909 62.38 328.938 62.2237 328.964C62.0698 328.988 61.9195 329.009 61.7727 329.028C61.6283 329.045 61.5111 329.059 61.4212 329.071C61.2034 329.099 60.9998 329.146 60.8104 329.21C60.6233 329.271 60.4718 329.365 60.3558 329.49C60.2422 329.613 60.1854 329.781 60.1854 329.994C60.1854 330.286 60.2931 330.506 60.5085 330.655C60.7263 330.802 61.0021 330.875 61.3359 330.875ZM65.2377 333.545V326.045H66.0474V326.912H66.1468C66.2084 326.817 66.2936 326.696 66.4025 326.55C66.5138 326.401 66.6724 326.268 66.8784 326.152C67.0867 326.034 67.3684 325.974 67.7235 325.974C68.1828 325.974 68.5877 326.089 68.938 326.319C69.2884 326.549 69.5618 326.874 69.7583 327.295C69.9548 327.717 70.0531 328.214 70.0531 328.787C70.0531 329.365 69.9548 329.865 69.7583 330.289C69.5618 330.71 69.2896 331.037 68.9416 331.269C68.5936 331.499 68.1923 331.614 67.7377 331.614C67.3874 331.614 67.1068 331.556 66.8961 331.44C66.6854 331.321 66.5233 331.187 66.4096 331.038C66.296 330.887 66.2084 330.761 66.1468 330.662H66.0758V333.545H65.2377ZM66.0616 328.773C66.0616 329.185 66.122 329.548 66.2427 329.863C66.3635 330.175 66.5398 330.42 66.7718 330.598C67.0038 330.773 67.2879 330.861 67.6241 330.861C67.9745 330.861 68.2669 330.768 68.5012 330.584C68.738 330.397 68.9155 330.146 69.0339 329.831C69.1547 329.514 69.215 329.161 69.215 328.773C69.215 328.389 69.1558 328.044 69.0375 327.736C68.9215 327.426 68.7451 327.181 68.5083 327.001C68.274 326.818 67.9792 326.727 67.6241 326.727C67.2832 326.727 66.9967 326.814 66.7647 326.987C66.5327 327.157 66.3575 327.396 66.2392 327.704C66.1208 328.009 66.0616 328.366 66.0616 328.773Z" fill="var(--colors-neutral-neutral-800)"/>
<path d="M263.22 332.11C262.753 332.11 262.347 332.027 262 331.86C261.653 331.693 261.377 331.457 261.17 331.15C260.97 330.843 260.86 330.487 260.84 330.08H261.9C261.933 330.42 262.067 330.693 262.3 330.9C262.533 331.107 262.843 331.21 263.23 331.21C263.53 331.21 263.79 331.143 264.01 331.01C264.23 330.877 264.4 330.687 264.52 330.44C264.64 330.193 264.7 329.907 264.7 329.58C264.7 329.153 264.573 328.81 264.32 328.55C264.067 328.283 263.733 328.15 263.32 328.15C263.033 328.15 262.763 328.223 262.51 328.37C262.257 328.51 262.053 328.693 261.9 328.92H260.92L261.51 325.02H265.45V325.92H262.37L262.05 327.94C262.243 327.727 262.477 327.557 262.75 327.43C263.023 327.303 263.303 327.24 263.59 327.24C264.023 327.24 264.407 327.34 264.74 327.54C265.073 327.733 265.333 328.003 265.52 328.35C265.707 328.69 265.8 329.093 265.8 329.56C265.8 330.08 265.693 330.533 265.48 330.92C265.267 331.3 264.967 331.593 264.58 331.8C264.193 332.007 263.74 332.11 263.22 332.11ZM269.754 332.12C269.187 332.12 268.704 331.973 268.304 331.68C267.904 331.38 267.597 330.96 267.384 330.42C267.171 329.873 267.064 329.237 267.064 328.51C267.064 327.77 267.171 327.13 267.384 326.59C267.597 326.05 267.904 325.633 268.304 325.34C268.704 325.047 269.187 324.9 269.754 324.9C270.327 324.9 270.811 325.047 271.204 325.34C271.604 325.633 271.911 326.05 272.124 326.59C272.337 327.123 272.444 327.763 272.444 328.51C272.444 329.243 272.337 329.88 272.124 330.42C271.911 330.96 271.604 331.38 271.204 331.68C270.811 331.973 270.327 332.12 269.754 332.12ZM269.754 331.22C270.281 331.22 270.677 330.983 270.944 330.51C271.211 330.03 271.344 329.363 271.344 328.51C271.344 327.643 271.211 326.977 270.944 326.51C270.677 326.037 270.281 325.8 269.754 325.8C269.234 325.8 268.841 326.037 268.574 326.51C268.307 326.977 268.174 327.643 268.174 328.51C268.174 329.363 268.307 330.03 268.574 330.51C268.841 330.983 269.234 331.22 269.754 331.22ZM276.258 332.12C275.691 332.12 275.208 331.973 274.808 331.68C274.408 331.38 274.101 330.96 273.888 330.42C273.674 329.873 273.568 329.237 273.568 328.51C273.568 327.77 273.674 327.13 273.888 326.59C274.101 326.05 274.408 325.633 274.808 325.34C275.208 325.047 275.691 324.9 276.258 324.9C276.831 324.9 277.314 325.047 277.708 325.34C278.108 325.633 278.414 326.05 278.628 326.59C278.841 327.123 278.948 327.763 278.948 328.51C278.948 329.243 278.841 329.88 278.628 330.42C278.414 330.96 278.108 331.38 277.708 331.68C277.314 331.973 276.831 332.12 276.258 332.12ZM276.258 331.22C276.784 331.22 277.181 330.983 277.448 330.51C277.714 330.03 277.848 329.363 277.848 328.51C277.848 327.643 277.714 326.977 277.448 326.51C277.181 326.037 276.784 325.8 276.258 325.8C275.738 325.8 275.344 326.037 275.078 326.51C274.811 326.977 274.678 327.643 274.678 328.51C274.678 329.363 274.811 330.03 275.078 330.51C275.344 330.983 275.738 331.22 276.258 331.22ZM291.086 332V327.98C291.086 327.74 291.042 327.553 290.956 327.42C290.876 327.287 290.749 327.22 290.576 327.22C290.336 327.22 290.119 327.373 289.926 327.68C289.739 327.987 289.609 328.47 289.536 329.13L289.446 328.28C289.466 327.68 289.606 327.213 289.866 326.88C290.132 326.547 290.459 326.38 290.846 326.38C291.206 326.38 291.489 326.513 291.696 326.78C291.909 327.04 292.016 327.413 292.016 327.9V332H291.086ZM286.516 332V326.5H287.406L287.446 327.57V332H286.516ZM288.806 332V327.98C288.806 327.727 288.759 327.537 288.666 327.41C288.579 327.283 288.446 327.22 288.266 327.22C288.012 327.22 287.796 327.38 287.616 327.7C287.436 328.02 287.309 328.497 287.236 329.13L287.216 328.25C287.229 327.857 287.299 327.52 287.426 327.24C287.552 326.96 287.716 326.747 287.916 326.6C288.116 326.453 288.329 326.38 288.556 326.38C288.929 326.38 289.216 326.517 289.416 326.79C289.622 327.057 289.726 327.423 289.726 327.89V332H288.806ZM297.59 332V327.98C297.59 327.74 297.546 327.553 297.46 327.42C297.38 327.287 297.253 327.22 297.08 327.22C296.84 327.22 296.623 327.373 296.43 327.68C296.243 327.987 296.113 328.47 296.04 329.13L295.95 328.28C295.97 327.68 296.11 327.213 296.37 326.88C296.636 326.547 296.963 326.38 297.35 326.38C297.71 326.38 297.993 326.513 298.2 326.78C298.413 327.04 298.52 327.413 298.52 327.9V332H297.59ZM293.02 332V326.5H293.91L293.95 327.57V332H293.02ZM295.31 332V327.98C295.31 327.727 295.263 327.537 295.17 327.41C295.083 327.283 294.95 327.22 294.77 327.22C294.516 327.22 294.3 327.38 294.12 327.7C293.94 328.02 293.813 328.497 293.74 329.13L293.72 328.25C293.733 327.857 293.803 327.52 293.93 327.24C294.056 326.96 294.22 326.747 294.42 326.6C294.62 326.453 294.833 326.38 295.06 326.38C295.433 326.38 295.72 326.517 295.92 326.79C296.126 327.057 296.23 327.423 296.23 327.89V332H295.31Z" fill="var(--colors-neutral-neutral-800)"/>
<path d="M32.8523 360.5C32.7741 360.261 32.6712 360.047 32.5433 359.857C32.4179 359.665 32.2675 359.502 32.0923 359.367C31.9195 359.232 31.723 359.129 31.5028 359.058C31.2827 358.987 31.0412 358.952 30.7784 358.952C30.3475 358.952 29.9557 359.063 29.603 359.286C29.2502 359.508 28.9697 359.836 28.7614 360.269C28.553 360.702 28.4489 361.234 28.4489 361.864C28.4489 362.493 28.5542 363.025 28.7649 363.458C28.9756 363.891 29.2609 364.219 29.6207 364.442C29.9806 364.664 30.3854 364.776 30.8352 364.776C31.2519 364.776 31.6188 364.687 31.9361 364.509C32.2557 364.329 32.5043 364.076 32.6818 363.749C32.8617 363.42 32.9517 363.033 32.9517 362.588L33.2216 362.645H31.0341V361.864H33.804V362.645C33.804 363.244 33.6761 363.765 33.4205 364.207C33.1671 364.65 32.8168 364.993 32.3693 365.237C31.9242 365.479 31.4129 365.599 30.8352 365.599C30.1913 365.599 29.6255 365.448 29.1378 365.145C28.6525 364.842 28.2737 364.411 28.0014 363.852C27.7315 363.294 27.5966 362.631 27.5966 361.864C27.5966 361.288 27.6735 360.771 27.8274 360.312C27.9837 359.85 28.2038 359.457 28.4879 359.133C28.772 358.808 29.1082 358.56 29.4964 358.387C29.8847 358.214 30.312 358.128 30.7784 358.128C31.1619 358.128 31.5194 358.186 31.8509 358.302C32.1847 358.415 32.4818 358.578 32.7422 358.788C33.005 358.997 33.224 359.246 33.3991 359.538C33.5743 359.826 33.6951 360.147 33.7614 360.5H32.8523ZM36.8038 365.628C36.4582 365.628 36.1445 365.563 35.8627 365.433C35.581 365.3 35.3573 365.109 35.1916 364.861C35.0259 364.61 34.943 364.307 34.943 363.952C34.943 363.639 35.0046 363.386 35.1277 363.192C35.2508 362.995 35.4153 362.841 35.6213 362.73C35.8272 362.619 36.0545 362.536 36.3031 362.482C36.554 362.425 36.8062 362.38 37.0595 362.347C37.3909 362.304 37.6596 362.272 37.8656 362.251C38.0739 362.227 38.2254 362.188 38.3201 362.134C38.4172 362.079 38.4657 361.984 38.4657 361.849V361.821C38.4657 361.471 38.3699 361.198 38.1781 361.004C37.9887 360.81 37.7011 360.713 37.3152 360.713C36.9151 360.713 36.6014 360.801 36.3741 360.976C36.1468 361.151 35.987 361.338 35.8947 361.537L35.0993 361.253C35.2413 360.921 35.4307 360.663 35.6674 360.479C35.9065 360.292 36.167 360.161 36.4487 360.088C36.7328 360.012 37.0121 359.974 37.2868 359.974C37.4619 359.974 37.6632 359.996 37.8904 360.038C38.1201 360.079 38.3414 360.163 38.5545 360.29C38.7699 360.418 38.9487 360.611 39.0907 360.869C39.2328 361.127 39.3038 361.473 39.3038 361.906V365.5H38.4657V364.761H38.4231C38.3663 364.88 38.2716 365.006 38.139 365.141C38.0065 365.276 37.8301 365.391 37.6099 365.486C37.3897 365.58 37.121 365.628 36.8038 365.628ZM36.9316 364.875C37.2631 364.875 37.5424 364.81 37.7697 364.68C37.9993 364.549 38.1722 364.381 38.2882 364.175C38.4065 363.969 38.4657 363.753 38.4657 363.526V362.759C38.4302 362.801 38.3521 362.84 38.2314 362.876C38.113 362.909 37.9757 362.938 37.8194 362.964C37.6655 362.988 37.5152 363.009 37.3684 363.028C37.224 363.045 37.1068 363.059 37.0169 363.071C36.7991 363.099 36.5955 363.146 36.4061 363.21C36.219 363.271 36.0675 363.365 35.9515 363.49C35.8379 363.613 35.7811 363.781 35.7811 363.994C35.7811 364.286 35.8888 364.506 36.1042 364.655C36.322 364.802 36.5978 364.875 36.9316 364.875ZM40.8335 367.545V360.045H41.6431V360.912H41.7425C41.8041 360.817 41.8893 360.696 41.9982 360.55C42.1095 360.401 42.2681 360.268 42.4741 360.152C42.6824 360.034 42.9641 359.974 43.3192 359.974C43.7785 359.974 44.1834 360.089 44.5337 360.319C44.8841 360.549 45.1576 360.874 45.354 361.295C45.5505 361.717 45.6488 362.214 45.6488 362.787C45.6488 363.365 45.5505 363.865 45.354 364.289C45.1576 364.71 44.8853 365.037 44.5373 365.269C44.1893 365.499 43.788 365.614 43.3335 365.614C42.9831 365.614 42.7025 365.556 42.4918 365.44C42.2811 365.321 42.119 365.187 42.0053 365.038C41.8917 364.887 41.8041 364.761 41.7425 364.662H41.6715V367.545H40.8335ZM41.6573 362.773C41.6573 363.185 41.7177 363.548 41.8384 363.863C41.9592 364.175 42.1355 364.42 42.3675 364.598C42.5996 364.773 42.8836 364.861 43.2198 364.861C43.5702 364.861 43.8626 364.768 44.0969 364.584C44.3337 364.397 44.5112 364.146 44.6296 363.831C44.7504 363.514 44.8107 363.161 44.8107 362.773C44.8107 362.389 44.7515 362.044 44.6332 361.736C44.5172 361.426 44.3408 361.181 44.104 361.001C43.8697 360.818 43.5749 360.727 43.2198 360.727C42.8789 360.727 42.5924 360.814 42.3604 360.987C42.1284 361.157 41.9532 361.396 41.8349 361.704C41.7165 362.009 41.6573 362.366 41.6573 362.773ZM49.8533 365.5V358.227H50.6914V360.912H50.7624C50.824 360.817 50.9092 360.696 51.0181 360.55C51.1294 360.401 51.288 360.268 51.494 360.152C51.7023 360.034 51.984 359.974 52.3391 359.974C52.7984 359.974 53.2032 360.089 53.5536 360.319C53.904 360.549 54.1774 360.874 54.3739 361.295C54.5704 361.717 54.6687 362.214 54.6687 362.787C54.6687 363.365 54.5704 363.865 54.3739 364.289C54.1774 364.71 53.9052 365.037 53.5572 365.269C53.2092 365.499 52.8079 365.614 52.3533 365.614C52.003 365.614 51.7224 365.556 51.5117 365.44C51.301 365.321 51.1388 365.187 51.0252 365.038C50.9116 364.887 50.824 364.761 50.7624 364.662H50.663V365.5H49.8533ZM50.6772 362.773C50.6772 363.185 50.7376 363.548 50.8583 363.863C50.979 364.175 51.1554 364.42 51.3874 364.598C51.6194 364.773 51.9035 364.861 52.2397 364.861C52.5901 364.861 52.8825 364.768 53.1168 364.584C53.3536 364.397 53.5311 364.146 53.6495 363.831C53.7702 363.514 53.8306 363.161 53.8306 362.773C53.8306 362.389 53.7714 362.044 53.6531 361.736C53.5371 361.426 53.3607 361.181 53.1239 361.001C52.8896 360.818 52.5948 360.727 52.2397 360.727C51.8988 360.727 51.6123 360.814 51.3803 360.987C51.1483 361.157 50.9731 361.396 50.8548 361.704C50.7364 362.009 50.6772 362.366 50.6772 362.773ZM58.2376 365.614C57.712 365.614 57.2586 365.498 56.8775 365.266C56.4987 365.031 56.2063 364.705 56.0004 364.286C55.7968 363.864 55.695 363.374 55.695 362.815C55.695 362.257 55.7968 361.764 56.0004 361.338C56.2063 360.91 56.4928 360.576 56.8597 360.337C57.229 360.095 57.6599 359.974 58.1523 359.974C58.4364 359.974 58.717 360.022 58.994 360.116C59.271 360.211 59.5231 360.365 59.7504 360.578C59.9776 360.789 60.1587 361.068 60.2937 361.416C60.4286 361.764 60.4961 362.193 60.4961 362.702V363.057H56.2915V362.332H59.6438C59.6438 362.025 59.5823 361.75 59.4592 361.509C59.3384 361.267 59.1656 361.076 58.9407 360.937C58.7182 360.797 58.4554 360.727 58.1523 360.727C57.8185 360.727 57.5297 360.81 57.2859 360.976C57.0444 361.139 56.8585 361.352 56.7283 361.615C56.5981 361.878 56.533 362.16 56.533 362.46V362.943C56.533 363.355 56.604 363.704 56.7461 363.991C56.8905 364.275 57.0906 364.491 57.3462 364.641C57.6019 364.787 57.899 364.861 58.2376 364.861C58.4577 364.861 58.6566 364.83 58.8342 364.768C59.0141 364.705 59.1692 364.61 59.2994 364.484C59.4296 364.357 59.5302 364.198 59.6012 364.009L60.4109 364.236C60.3256 364.51 60.1824 364.752 59.9812 364.96C59.7799 365.166 59.5314 365.327 59.2354 365.443C58.9395 365.557 58.6069 365.614 58.2376 365.614ZM64.1431 360.045V360.756H61.3164V360.045H64.1431ZM62.1403 358.739H62.9783V363.938C62.9783 364.174 63.0127 364.352 63.0813 364.47C63.1523 364.586 63.2423 364.664 63.3512 364.705C63.4625 364.742 63.5797 364.761 63.7028 364.761C63.7951 364.761 63.8709 364.757 63.93 364.747C63.9892 364.735 64.0366 364.726 64.0721 364.719L64.2425 365.472C64.1857 365.493 64.1064 365.514 64.0046 365.536C63.9028 365.559 63.7738 365.571 63.6175 365.571C63.3808 365.571 63.1488 365.52 62.9215 365.418C62.6966 365.317 62.5096 365.161 62.3604 364.953C62.2137 364.745 62.1403 364.482 62.1403 364.165V358.739ZM66.6396 365.5L64.9776 360.045H65.8583L67.0373 364.222H67.0941L68.2589 360.045H69.1538L70.3043 364.207H70.3612L71.5401 360.045H72.4208L70.7589 365.5H69.935L68.7418 361.31H68.6566L67.4634 365.5H66.6396ZM75.6301 365.614C75.1046 365.614 74.6512 365.498 74.2701 365.266C73.8913 365.031 73.5989 364.705 73.3929 364.286C73.1893 363.864 73.0875 363.374 73.0875 362.815C73.0875 362.257 73.1893 361.764 73.3929 361.338C73.5989 360.91 73.8854 360.576 74.2523 360.337C74.6216 360.095 75.0525 359.974 75.5449 359.974C75.829 359.974 76.1096 360.022 76.3865 360.116C76.6635 360.211 76.9157 360.365 77.1429 360.578C77.3702 360.789 77.5513 361.068 77.6863 361.416C77.8212 361.764 77.8887 362.193 77.8887 362.702V363.057H73.6841V362.332H77.0364C77.0364 362.025 76.9748 361.75 76.8517 361.509C76.731 361.267 76.5582 361.076 76.3333 360.937C76.1107 360.797 75.848 360.727 75.5449 360.727C75.2111 360.727 74.9223 360.81 74.6784 360.976C74.437 361.139 74.2511 361.352 74.1209 361.615C73.9907 361.878 73.9256 362.16 73.9256 362.46V362.943C73.9256 363.355 73.9966 363.704 74.1387 363.991C74.2831 364.275 74.4831 364.491 74.7388 364.641C74.9945 364.787 75.2916 364.861 75.6301 364.861C75.8503 364.861 76.0492 364.83 76.2267 364.768C76.4067 364.705 76.5617 364.61 76.6919 364.484C76.8221 364.357 76.9228 364.198 76.9938 364.009L77.8034 364.236C77.7182 364.51 77.575 364.752 77.3738 364.96C77.1725 365.166 76.9239 365.327 76.628 365.443C76.3321 365.557 75.9995 365.614 75.6301 365.614ZM81.4505 365.614C80.9249 365.614 80.4715 365.498 80.0904 365.266C79.7116 365.031 79.4192 364.705 79.2132 364.286C79.0096 363.864 78.9078 363.374 78.9078 362.815C78.9078 362.257 79.0096 361.764 79.2132 361.338C79.4192 360.91 79.7057 360.576 80.0726 360.337C80.4419 360.095 80.8728 359.974 81.3652 359.974C81.6493 359.974 81.9299 360.022 82.2069 360.116C82.4838 360.211 82.736 360.365 82.9632 360.578C83.1905 360.789 83.3716 361.068 83.5066 361.416C83.6415 361.764 83.709 362.193 83.709 362.702V363.057H79.5044V362.332H82.8567C82.8567 362.025 82.7952 361.75 82.6721 361.509C82.5513 361.267 82.3785 361.076 82.1536 360.937C81.931 360.797 81.6683 360.727 81.3652 360.727C81.0314 360.727 80.7426 360.81 80.4988 360.976C80.2573 361.139 80.0714 361.352 79.9412 361.615C79.811 361.878 79.7459 362.16 79.7459 362.46V362.943C79.7459 363.355 79.8169 363.704 79.959 363.991C80.1034 364.275 80.3034 364.491 80.5591 364.641C80.8148 364.787 81.1119 364.861 81.4505 364.861C81.6706 364.861 81.8695 364.83 82.0471 364.768C82.227 364.705 82.382 364.61 82.5123 364.484C82.6425 364.357 82.7431 364.198 82.8141 364.009L83.6238 364.236C83.5385 364.51 83.3953 364.752 83.1941 364.96C82.9928 365.166 82.7443 365.327 82.4483 365.443C82.1524 365.557 81.8198 365.614 81.4505 365.614ZM85.8219 362.219V365.5H84.9838V360.045H85.7935V360.898H85.8645C85.9924 360.621 86.1865 360.398 86.4469 360.23C86.7073 360.06 87.0435 359.974 87.4554 359.974C87.8248 359.974 88.1479 360.05 88.4249 360.202C88.7019 360.351 88.9173 360.578 89.0712 360.884C89.2251 361.187 89.302 361.57 89.302 362.034V365.5H88.464V362.091C88.464 361.662 88.3527 361.329 88.1301 361.089C87.9076 360.848 87.6022 360.727 87.214 360.727C86.9464 360.727 86.7073 360.785 86.4966 360.901C86.2883 361.017 86.1238 361.187 86.003 361.409C85.8823 361.632 85.8219 361.902 85.8219 362.219ZM98.1062 360.045L96.0891 365.5H95.2369L93.2198 360.045H94.1289L95.6346 364.392H95.6914L97.1971 360.045H98.1062ZM101.304 365.614C100.778 365.614 100.325 365.498 99.9439 365.266C99.5651 365.031 99.2727 364.705 99.0668 364.286C98.8632 363.864 98.7614 363.374 98.7614 362.815C98.7614 362.257 98.8632 361.764 99.0668 361.338C99.2727 360.91 99.5592 360.576 99.9261 360.337C100.295 360.095 100.726 359.974 101.219 359.974C101.503 359.974 101.783 360.022 102.06 360.116C102.337 360.211 102.589 360.365 102.817 360.578C103.044 360.789 103.225 361.068 103.36 361.416C103.495 361.764 103.562 362.193 103.562 362.702V363.057H99.358V362.332H102.71C102.71 362.025 102.649 361.75 102.526 361.509C102.405 361.267 102.232 361.076 102.007 360.937C101.785 360.797 101.522 360.727 101.219 360.727C100.885 360.727 100.596 360.81 100.352 360.976C100.111 361.139 99.925 361.352 99.7947 361.615C99.6645 361.878 99.5994 362.16 99.5994 362.46V362.943C99.5994 363.355 99.6705 363.704 99.8125 363.991C99.9569 364.275 100.157 364.491 100.413 364.641C100.668 364.787 100.965 364.861 101.304 364.861C101.524 364.861 101.723 364.83 101.901 364.768C102.08 364.705 102.236 364.61 102.366 364.484C102.496 364.357 102.597 364.198 102.668 364.009L103.477 364.236C103.392 364.51 103.249 364.752 103.048 364.96C102.846 365.166 102.598 365.327 102.302 365.443C102.006 365.557 101.673 365.614 101.304 365.614ZM105.675 362.219V365.5H104.837V358.227H105.675V360.898H105.746C105.874 360.616 106.066 360.392 106.322 360.227C106.58 360.058 106.923 359.974 107.352 359.974C107.723 359.974 108.049 360.049 108.328 360.198C108.607 360.345 108.824 360.571 108.978 360.876C109.134 361.179 109.212 361.565 109.212 362.034V365.5H108.374V362.091C108.374 361.658 108.262 361.323 108.037 361.086C107.814 360.847 107.505 360.727 107.11 360.727C106.835 360.727 106.589 360.785 106.371 360.901C106.156 361.017 105.986 361.187 105.86 361.409C105.737 361.632 105.675 361.902 105.675 362.219ZM110.746 365.5V360.045H111.584V365.5H110.746ZM111.172 359.136C111.008 359.136 110.867 359.081 110.749 358.969C110.633 358.858 110.575 358.724 110.575 358.568C110.575 358.412 110.633 358.278 110.749 358.167C110.867 358.056 111.008 358 111.172 358C111.335 358 111.475 358.056 111.591 358.167C111.709 358.278 111.768 358.412 111.768 358.568C111.768 358.724 111.709 358.858 111.591 358.969C111.475 359.081 111.335 359.136 111.172 359.136ZM115.335 365.614C114.823 365.614 114.383 365.493 114.013 365.251C113.644 365.01 113.36 364.677 113.161 364.254C112.962 363.83 112.863 363.346 112.863 362.801C112.863 362.247 112.965 361.758 113.168 361.335C113.374 360.908 113.661 360.576 114.028 360.337C114.397 360.095 114.828 359.974 115.32 359.974C115.704 359.974 116.049 360.045 116.357 360.188C116.665 360.33 116.917 360.528 117.114 360.784C117.31 361.04 117.432 361.338 117.479 361.679H116.641C116.577 361.43 116.435 361.21 116.215 361.018C115.997 360.824 115.704 360.727 115.335 360.727C115.008 360.727 114.721 360.812 114.475 360.983C114.231 361.151 114.041 361.389 113.903 361.697C113.768 362.002 113.701 362.361 113.701 362.773C113.701 363.194 113.767 363.561 113.9 363.874C114.035 364.186 114.224 364.429 114.468 364.602C114.714 364.774 115.003 364.861 115.335 364.861C115.552 364.861 115.75 364.823 115.928 364.747C116.105 364.671 116.255 364.562 116.379 364.42C116.502 364.278 116.589 364.108 116.641 363.909H117.479C117.432 364.231 117.315 364.521 117.128 364.779C116.943 365.035 116.698 365.238 116.393 365.39C116.09 365.539 115.737 365.614 115.335 365.614ZM119.543 358.227V365.5H118.705V358.227H119.543ZM123.365 365.614C122.839 365.614 122.386 365.498 122.004 365.266C121.626 365.031 121.333 364.705 121.127 364.286C120.924 363.864 120.822 363.374 120.822 362.815C120.822 362.257 120.924 361.764 121.127 361.338C121.333 360.91 121.62 360.576 121.987 360.337C122.356 360.095 122.787 359.974 123.279 359.974C123.563 359.974 123.844 360.022 124.121 360.116C124.398 360.211 124.65 360.365 124.877 360.578C125.105 360.789 125.286 361.068 125.421 361.416C125.556 361.764 125.623 362.193 125.623 362.702V363.057H121.419V362.332H124.771C124.771 362.025 124.709 361.75 124.586 361.509C124.465 361.267 124.293 361.076 124.068 360.937C123.845 360.797 123.582 360.727 123.279 360.727C122.945 360.727 122.657 360.81 122.413 360.976C122.171 361.139 121.985 361.352 121.855 361.615C121.725 361.878 121.66 362.16 121.66 362.46V362.943C121.66 363.355 121.731 363.704 121.873 363.991C122.017 364.275 122.218 364.491 122.473 364.641C122.729 364.787 123.026 364.861 123.365 364.861C123.585 364.861 123.784 364.83 123.961 364.768C124.141 364.705 124.296 364.61 124.426 364.484C124.557 364.357 124.657 364.198 124.728 364.009L125.538 364.236C125.453 364.51 125.309 364.752 125.108 364.96C124.907 365.166 124.658 365.327 124.362 365.443C124.066 365.557 123.734 365.614 123.365 365.614ZM130.762 361.267L130.009 361.48C129.961 361.355 129.892 361.233 129.799 361.114C129.709 360.994 129.586 360.894 129.43 360.816C129.274 360.738 129.074 360.699 128.83 360.699C128.496 360.699 128.218 360.776 127.995 360.93C127.775 361.081 127.665 361.274 127.665 361.509C127.665 361.717 127.741 361.881 127.892 362.002C128.044 362.123 128.28 362.223 128.602 362.304L129.412 362.503C129.9 362.621 130.263 362.802 130.502 363.046C130.741 363.288 130.861 363.599 130.861 363.98C130.861 364.293 130.771 364.572 130.591 364.818C130.414 365.064 130.165 365.259 129.845 365.401C129.526 365.543 129.154 365.614 128.73 365.614C128.174 365.614 127.713 365.493 127.349 365.251C126.984 365.01 126.753 364.657 126.656 364.193L127.452 363.994C127.528 364.288 127.671 364.508 127.882 364.655C128.095 364.802 128.373 364.875 128.716 364.875C129.107 364.875 129.417 364.792 129.646 364.626C129.878 364.458 129.994 364.257 129.994 364.023C129.994 363.833 129.928 363.675 129.796 363.547C129.663 363.417 129.459 363.32 129.185 363.256L128.276 363.043C127.776 362.924 127.409 362.741 127.175 362.492C126.943 362.241 126.827 361.928 126.827 361.551C126.827 361.243 126.913 360.971 127.086 360.734C127.261 360.498 127.499 360.312 127.8 360.177C128.103 360.042 128.446 359.974 128.83 359.974C129.369 359.974 129.793 360.093 130.101 360.33C130.411 360.566 130.631 360.879 130.762 361.267Z" fill="var(--colors-neutral-neutral-800)"/>
<path d="M263.22 366.11C262.753 366.11 262.347 366.027 262 365.86C261.653 365.693 261.377 365.457 261.17 365.15C260.97 364.843 260.86 364.487 260.84 364.08H261.9C261.933 364.42 262.067 364.693 262.3 364.9C262.533 365.107 262.843 365.21 263.23 365.21C263.53 365.21 263.79 365.143 264.01 365.01C264.23 364.877 264.4 364.687 264.52 364.44C264.64 364.193 264.7 363.907 264.7 363.58C264.7 363.153 264.573 362.81 264.32 362.55C264.067 362.283 263.733 362.15 263.32 362.15C263.033 362.15 262.763 362.223 262.51 362.37C262.257 362.51 262.053 362.693 261.9 362.92H260.92L261.51 359.02H265.45V359.92H262.37L262.05 361.94C262.243 361.727 262.477 361.557 262.75 361.43C263.023 361.303 263.303 361.24 263.59 361.24C264.023 361.24 264.407 361.34 264.74 361.54C265.073 361.733 265.333 362.003 265.52 362.35C265.707 362.69 265.8 363.093 265.8 363.56C265.8 364.08 265.693 364.533 265.48 364.92C265.267 365.3 264.967 365.593 264.58 365.8C264.193 366.007 263.74 366.11 263.22 366.11ZM269.754 366.12C269.187 366.12 268.704 365.973 268.304 365.68C267.904 365.38 267.597 364.96 267.384 364.42C267.171 363.873 267.064 363.237 267.064 362.51C267.064 361.77 267.171 361.13 267.384 360.59C267.597 360.05 267.904 359.633 268.304 359.34C268.704 359.047 269.187 358.9 269.754 358.9C270.327 358.9 270.811 359.047 271.204 359.34C271.604 359.633 271.911 360.05 272.124 360.59C272.337 361.123 272.444 361.763 272.444 362.51C272.444 363.243 272.337 363.88 272.124 364.42C271.911 364.96 271.604 365.38 271.204 365.68C270.811 365.973 270.327 366.12 269.754 366.12ZM269.754 365.22C270.281 365.22 270.677 364.983 270.944 364.51C271.211 364.03 271.344 363.363 271.344 362.51C271.344 361.643 271.211 360.977 270.944 360.51C270.677 360.037 270.281 359.8 269.754 359.8C269.234 359.8 268.841 360.037 268.574 360.51C268.307 360.977 268.174 361.643 268.174 362.51C268.174 363.363 268.307 364.03 268.574 364.51C268.841 364.983 269.234 365.22 269.754 365.22ZM276.258 366.12C275.691 366.12 275.208 365.973 274.808 365.68C274.408 365.38 274.101 364.96 273.888 364.42C273.674 363.873 273.568 363.237 273.568 362.51C273.568 361.77 273.674 361.13 273.888 360.59C274.101 360.05 274.408 359.633 274.808 359.34C275.208 359.047 275.691 358.9 276.258 358.9C276.831 358.9 277.314 359.047 277.708 359.34C278.108 359.633 278.414 360.05 278.628 360.59C278.841 361.123 278.948 361.763 278.948 362.51C278.948 363.243 278.841 363.88 278.628 364.42C278.414 364.96 278.108 365.38 277.708 365.68C277.314 365.973 276.831 366.12 276.258 366.12ZM276.258 365.22C276.784 365.22 277.181 364.983 277.448 364.51C277.714 364.03 277.848 363.363 277.848 362.51C277.848 361.643 277.714 360.977 277.448 360.51C277.181 360.037 276.784 359.8 276.258 359.8C275.738 359.8 275.344 360.037 275.078 360.51C274.811 360.977 274.678 361.643 274.678 362.51C274.678 363.363 274.811 364.03 275.078 364.51C275.344 364.983 275.738 365.22 276.258 365.22ZM291.086 366V361.98C291.086 361.74 291.042 361.553 290.956 361.42C290.876 361.287 290.749 361.22 290.576 361.22C290.336 361.22 290.119 361.373 289.926 361.68C289.739 361.987 289.609 362.47 289.536 363.13L289.446 362.28C289.466 361.68 289.606 361.213 289.866 360.88C290.132 360.547 290.459 360.38 290.846 360.38C291.206 360.38 291.489 360.513 291.696 360.78C291.909 361.04 292.016 361.413 292.016 361.9V366H291.086ZM286.516 366V360.5H287.406L287.446 361.57V366H286.516ZM288.806 366V361.98C288.806 361.727 288.759 361.537 288.666 361.41C288.579 361.283 288.446 361.22 288.266 361.22C288.012 361.22 287.796 361.38 287.616 361.7C287.436 362.02 287.309 362.497 287.236 363.13L287.216 362.25C287.229 361.857 287.299 361.52 287.426 361.24C287.552 360.96 287.716 360.747 287.916 360.6C288.116 360.453 288.329 360.38 288.556 360.38C288.929 360.38 289.216 360.517 289.416 360.79C289.622 361.057 289.726 361.423 289.726 361.89V366H288.806ZM297.59 366V361.98C297.59 361.74 297.546 361.553 297.46 361.42C297.38 361.287 297.253 361.22 297.08 361.22C296.84 361.22 296.623 361.373 296.43 361.68C296.243 361.987 296.113 362.47 296.04 363.13L295.95 362.28C295.97 361.68 296.11 361.213 296.37 360.88C296.636 360.547 296.963 360.38 297.35 360.38C297.71 360.38 297.993 360.513 298.2 360.78C298.413 361.04 298.52 361.413 298.52 361.9V366H297.59ZM293.02 366V360.5H293.91L293.95 361.57V366H293.02ZM295.31 366V361.98C295.31 361.727 295.263 361.537 295.17 361.41C295.083 361.283 294.95 361.22 294.77 361.22C294.516 361.22 294.3 361.38 294.12 361.7C293.94 362.02 293.813 362.497 293.74 363.13L293.72 362.25C293.733 361.857 293.803 361.52 293.93 361.24C294.056 360.96 294.22 360.747 294.42 360.6C294.62 360.453 294.833 360.38 295.06 360.38C295.433 360.38 295.72 360.517 295.92 360.79C296.126 361.057 296.23 361.423 296.23 361.89V366H295.31Z" fill="var(--colors-neutral-neutral-800)"/>
</g>
<defs>
<filter id="filter0_d_3769_48380" x="0" y="0" width="327" height="403" filterUnits="userSpaceOnUse" color-interpolation-filters="sRGB">
<feFlood flood-opacity="0" result="BackgroundImageFix"/>
<feColorMatrix in="SourceAlpha" type="matrix" values="0 0 0 0 0 0 0 0 0 0 0 0 0 0 0 0 0 0 127 0" result="hardAlpha"/>
<feMorphology radius="3" operator="dilate" in="SourceAlpha" result="effect1_dropShadow_3769_48380"/>
<feOffset dy="2"/>
<feGaussianBlur stdDeviation="4"/>
<feComposite in2="hardAlpha" operator="out"/>
<feColorMatrix type="matrix" values="0 0 0 0 0 0 0 0 0 0 0 0 0 0 0 0 0 0 0.04 0"/>
<feBlend mode="normal" in2="BackgroundImageFix" result="effect1_dropShadow_3769_48380"/>
<feBlend mode="normal" in="SourceGraphic" in2="effect1_dropShadow_3769_48380" result="shape"/>
</filter>
</defs>
</svg>
