<svg width="24" height="24" viewBox="0 0 24 24" fill="none" xmlns="http://www.w3.org/2000/svg">
<path d="M4.15858 16.6539C3.97466 16.6539 3.81892 16.5917 3.69135 16.4673C3.56378 16.3429 3.5 16.1887 3.5 16.0048C3.5 15.8209 3.56221 15.6651 3.68662 15.5375C3.81104 15.41 3.96521 15.3462 4.14912 15.3462C4.33304 15.3462 4.48878 15.4084 4.61635 15.5328C4.74392 15.6572 4.8077 15.8114 4.8077 15.9953C4.8077 16.1792 4.74549 16.335 4.62108 16.4625C4.49666 16.5901 4.34249 16.6539 4.15858 16.6539ZM4.15858 12.6539C3.97466 12.6539 3.81892 12.5917 3.69135 12.4673C3.56378 12.3429 3.5 12.1887 3.5 12.0048C3.5 11.8209 3.56221 11.6651 3.68662 11.5375C3.81104 11.41 3.96521 11.3462 4.14912 11.3462C4.33304 11.3462 4.48878 11.4084 4.61635 11.5328C4.74392 11.6572 4.8077 11.8114 4.8077 11.9953C4.8077 12.1792 4.74549 12.335 4.62108 12.4625C4.49666 12.5901 4.34249 12.6539 4.15858 12.6539ZM4.15858 8.65389C3.97466 8.65389 3.81892 8.59168 3.69135 8.46727C3.56378 8.34285 3.5 8.18868 3.5 8.00477C3.5 7.82085 3.56221 7.66511 3.68662 7.53754C3.81104 7.40997 3.96521 7.34619 4.14912 7.34619C4.33304 7.34619 4.48878 7.4084 4.61635 7.53282C4.74392 7.65723 4.8077 7.8114 4.8077 7.99532C4.8077 8.17923 4.74549 8.33497 4.62108 8.46254C4.49666 8.59011 4.34249 8.65389 4.15858 8.65389ZM7.23077 16.5V15.5H20.5V16.5H7.23077ZM7.23077 12.5V11.5H20.5V12.5H7.23077ZM7.23077 8.50004V7.50004H20.5V8.50004H7.23077Z" fill="#222222"/>
</svg>
