<svg width="280" height="280" viewBox="0 0 280 280" fill="none" xmlns="http://www.w3.org/2000/svg">
<rect width="280" height="280" fill="white"/>
<path d="M163.934 152.568L137.695 133.058H61.3347L87.9987 152.568H163.934Z" fill="var(--colors-neutral-neutral-400)"/>
<path d="M136.013 132.721V90H61.3347V132.721H136.013Z" fill="white"/>
<path d="M164.607 152.905V108.838L137.696 90V133.058L164.607 152.905Z" fill="var(--colors-neutral-neutral-200)"/>
<path d="M61 90H137.697M61 90V133.058M61 90L88 109M137.697 90L164.608 108.838M137.697 90V133.058M164.608 108.838V152.905M164.608 108.838L88 109M164.608 152.905L88 152M164.608 152.905L137.697 133.058M88 152L61 133.058M88 152V109M61 133.058H137.697" stroke="var(--colors-neutral-neutral-500)" stroke-width="0.672779"/>
<path d="M190.934 171.568L164.695 152.058H88.3347L114.999 171.568H190.934Z" fill="var(--colors-neutral-neutral-400)"/>
<path d="M163.013 151.721V109H88.3347V151.721H163.013Z" fill="white"/>
<path d="M191.607 171.905V127.838L164.696 109V152.058L191.607 171.905Z" fill="var(--colors-neutral-neutral-200)"/>
<path d="M88 109H164.697M88 109V152.058M88 109L115 128M164.697 109L191.608 127.838M164.697 109V152.058M191.608 127.838V171.905M191.608 127.838L115 128M191.608 171.905L115 171M191.608 171.905L164.697 152.058M115 171L88 152.058M115 171V128M88 152.058H164.697" stroke="var(--colors-neutral-neutral-500)" stroke-width="0.672779"/>
<path d="M217.935 190.568L191.696 171.058H115.336L141.238 190.568H217.935Z" fill="var(--colors-neutral-neutral-500)"/>
<path d="M190.014 170.721V128H115.336V170.721H190.014Z" fill="white"/>
<path d="M218.606 190.905V146.838L191.695 128V171.058L218.606 190.905Z" fill="var(--colors-neutral-neutral-200)"/>
<path d="M115 128H191.697M115 128V171.058M115 128L141.238 146.838M191.697 128L218.608 146.838M191.697 128V171.058M218.608 146.838V190.905M218.608 146.838H141.238M218.608 190.905H141.238M218.608 190.905L191.697 171.058M141.238 190.905L115 171.058M141.238 190.905V146.838M115 171.058H191.697" stroke="var(--colors-neutral-neutral-800)" stroke-width="0.672779"/>
<path d="M74.9191 159.702C74.6466 159.747 74.4619 160.004 74.5066 160.276L75.2346 164.717C75.2793 164.989 75.5364 165.174 75.8089 165.129C76.0814 165.085 76.2661 164.828 76.2215 164.555L75.5743 160.608L79.5216 159.961C79.7941 159.916 79.9788 159.659 79.9341 159.386C79.8895 159.114 79.6323 158.929 79.3598 158.974L74.9191 159.702ZM126.872 196.839L75.2917 159.789L74.7083 160.601L126.289 197.651L126.872 196.839Z" fill="var(--colors-neutral-neutral-800)"/>
</svg>
