<svg width="192" height="124" viewBox="0 0 192 124" fill="none" xmlns="http://www.w3.org/2000/svg">
<path d="M192 124L0 124L1.47869e-06 0L192 2.28958e-06L192 124Z" fill="#F6EDFD"/>
<rect x="30" y="96" width="24" height="50" transform="rotate(-90 30 96)" fill="var(--colors-areas-highway-vehicle, var(--colors-areas-highway-vehicle, #DACCE5))"/>
<rect x="30" y="52" width="24" height="50" transform="rotate(-90 30 52)" fill="var(--colors-areas-highway-vehicle, var(--colors-areas-highway-vehicle, #DACCE5))"/>
<rect x="112" y="96" width="24" height="50" transform="rotate(-90 112 96)" fill="var(--colors-areas-highway-vehicle, var(--colors-areas-highway-vehicle, #DACCE5))"/>
<rect x="112" y="52" width="24" height="50" transform="rotate(-90 112 52)" fill="var(--colors-areas-highway-vehicle, var(--colors-areas-highway-vehicle, #DACCE5))"/>
<path d="M55.1768 7.82322C55.0791 7.72559 54.9209 7.72559 54.8232 7.82322L53.2322 9.41421C53.1346 9.51184 53.1346 9.67014 53.2322 9.76777C53.3299 9.8654 53.4882 9.8654 53.5858 9.76777L55 8.35355L56.4142 9.76777C56.5118 9.8654 56.6701 9.8654 56.7678 9.76777C56.8654 9.67014 56.8654 9.51184 56.7678 9.41421L55.1768 7.82322ZM54.8232 20.1768C54.9209 20.2744 55.0791 20.2744 55.1768 20.1768L56.7678 18.5858C56.8654 18.4882 56.8654 18.3299 56.7678 18.2322C56.6701 18.1346 56.5118 18.1346 56.4142 18.2322L55 19.6464L53.5858 18.2322C53.4882 18.1346 53.3299 18.1346 53.2322 18.2322C53.1346 18.3299 53.1346 18.4882 53.2322 18.5858L54.8232 20.1768ZM54.75 8L54.75 20L55.25 20L55.25 8L54.75 8Z" fill="var(--colors-neutral-neutral-800)"/>
<path d="M137.177 7.82322C137.079 7.72559 136.921 7.72559 136.823 7.82322L135.232 9.41421C135.135 9.51184 135.135 9.67014 135.232 9.76777C135.33 9.8654 135.488 9.8654 135.586 9.76777L137 8.35355L138.414 9.76777C138.512 9.8654 138.67 9.8654 138.768 9.76777C138.865 9.67014 138.865 9.51184 138.768 9.41421L137.177 7.82322ZM136.823 20.1768C136.921 20.2744 137.079 20.2744 137.177 20.1768L138.768 18.5858C138.865 18.4882 138.865 18.3299 138.768 18.2322C138.67 18.1346 138.512 18.1346 138.414 18.2322L137 19.6464L135.586 18.2322C135.488 18.1346 135.33 18.1346 135.232 18.2322C135.135 18.3299 135.135 18.4882 135.232 18.5858L136.823 20.1768ZM136.75 8L136.75 20L137.25 20L137.25 8L136.75 8Z" fill="var(--colors-neutral-neutral-800)"/>
</svg>
