<svg width="24" height="24" viewBox="0 0 24 24" fill="none" xmlns="http://www.w3.org/2000/svg">
<path d="M16.4348 16.1304C15.4258 16.1304 14.5489 15.8118 13.8042 15.1746C13.0594 14.5374 12.5992 13.7193 12.4234 12.7203H7.4073C7.2718 13.1134 7.03467 13.4385 6.6959 13.6955C6.35712 13.9525 5.96375 14.081 5.5158 14.081C4.95474 14.081 4.4785 13.8853 4.08709 13.4939C3.6957 13.1025 3.5 12.6263 3.5 12.0652C3.5 11.5041 3.6957 11.0279 4.08709 10.6365C4.4785 10.2451 4.95474 10.0494 5.5158 10.0494C5.96375 10.0494 6.35712 10.1779 6.6959 10.4349C7.03467 10.692 7.2718 11.017 7.4073 11.4101H12.4234C12.5992 10.4111 13.0594 9.59305 13.8042 8.95583C14.5489 8.31861 15.4258 8 16.4348 8C17.5592 8 18.5178 8.39924 19.3107 9.19773C20.1036 9.99621 20.5 10.9576 20.5 12.082C20.5 13.1952 20.1036 14.1482 19.3107 14.9411C18.5178 15.734 17.5592 16.1304 16.4348 16.1304ZM16.4348 14.8202C17.1963 14.8202 17.8459 14.5514 18.3834 14.0138C18.921 13.4763 19.1897 12.8267 19.1897 12.0652C19.1897 11.3037 18.921 10.6541 18.3834 10.1166C17.8459 9.57903 17.1963 9.31026 16.4348 9.31026C15.6733 9.31026 15.0237 9.57903 14.4862 10.1166C13.9486 10.6541 13.6798 11.3037 13.6798 12.0652C13.6798 12.8267 13.9486 13.4763 14.4862 14.0138C15.0237 14.5514 15.6733 14.8202 16.4348 14.8202Z" fill="var(--colors-neutral-neutral-600)"/>
</svg>
