<svg width="304" height="423" viewBox="0 0 304 423" fill="none" xmlns="http://www.w3.org/2000/svg">
<rect x="0.5" y="0.5" width="303" height="421" stroke="var(--colors-neutral-neutral-400)"/>
<mask id="path-2-inside-1_3815_56547" fill="white">
<path d="M0 0H304V52H0V0Z"/>
</mask>
<path d="M304 51H0V53H304V51Z" fill="var(--colors-neutral-neutral-400)" mask="url(#path-2-inside-1_3815_56547)"/>
<path d="M20.02 30.144C19.372 30.144 18.808 30.02 18.328 29.772C17.848 29.524 17.476 29.168 17.212 28.704C16.948 28.24 16.816 27.676 16.816 27.012H18.076C18.076 27.668 18.248 28.176 18.592 28.536C18.936 28.888 19.408 29.064 20.008 29.064C20.52 29.064 20.932 28.948 21.244 28.716C21.556 28.476 21.712 28.144 21.712 27.72C21.712 27.432 21.624 27.2 21.448 27.024C21.28 26.848 21.052 26.704 20.764 26.592C20.484 26.48 20.176 26.38 19.84 26.292C19.504 26.204 19.164 26.108 18.82 26.004C18.484 25.892 18.172 25.752 17.884 25.584C17.604 25.416 17.376 25.192 17.2 24.912C17.032 24.632 16.948 24.276 16.948 23.844C16.948 23.388 17.068 22.984 17.308 22.632C17.556 22.272 17.896 21.992 18.328 21.792C18.768 21.584 19.284 21.48 19.876 21.48C20.452 21.48 20.968 21.588 21.424 21.804C21.88 22.012 22.244 22.312 22.516 22.704C22.796 23.088 22.94 23.552 22.948 24.096H21.676C21.668 23.776 21.58 23.504 21.412 23.28C21.252 23.048 21.036 22.872 20.764 22.752C20.5 22.624 20.204 22.56 19.876 22.56C19.404 22.56 19.02 22.672 18.724 22.896C18.428 23.12 18.28 23.424 18.28 23.808C18.28 24.08 18.364 24.296 18.532 24.456C18.708 24.616 18.936 24.748 19.216 24.852C19.504 24.948 19.816 25.04 20.152 25.128C20.496 25.208 20.836 25.304 21.172 25.416C21.508 25.52 21.816 25.664 22.096 25.848C22.384 26.024 22.612 26.264 22.78 26.568C22.956 26.864 23.044 27.244 23.044 27.708C23.044 28.204 22.912 28.636 22.648 29.004C22.384 29.364 22.024 29.644 21.568 29.844C21.112 30.044 20.596 30.144 20.02 30.144ZM27.5367 30.144C26.8567 30.144 26.2687 30.008 25.7727 29.736C25.2767 29.456 24.8967 29.06 24.6327 28.548C24.3687 28.028 24.2367 27.408 24.2367 26.688C24.2367 25.968 24.3687 25.352 24.6327 24.84C24.9047 24.328 25.2887 23.936 25.7847 23.664C26.2887 23.392 26.8887 23.256 27.5847 23.256C28.6487 23.256 29.4407 23.552 29.9607 24.144C30.4807 24.728 30.7087 25.532 30.6447 26.556H25.1967L25.2087 25.644L29.4087 25.656C29.3767 25.232 29.1927 24.892 28.8567 24.636C28.5207 24.38 28.0967 24.252 27.5847 24.252C26.8967 24.252 26.3687 24.468 26.0007 24.9C25.6327 25.332 25.4487 25.944 25.4487 26.736C25.4487 27.208 25.5287 27.628 25.6887 27.996C25.8567 28.356 26.0967 28.636 26.4087 28.836C26.7207 29.036 27.0967 29.136 27.5367 29.136C28.0567 29.136 28.4887 29.012 28.8327 28.764C29.1847 28.516 29.4007 28.18 29.4807 27.756H30.6927C30.5887 28.5 30.2567 29.084 29.6967 29.508C29.1367 29.932 28.4167 30.144 27.5367 30.144ZM35.5694 30C35.1614 30 34.8134 29.92 34.5254 29.76C34.2374 29.592 34.0214 29.356 33.8774 29.052C33.7334 28.748 33.6614 28.392 33.6614 27.984V22.152L34.8734 21.492V27.984C34.8734 28.176 34.9014 28.352 34.9574 28.512C35.0134 28.672 35.1214 28.796 35.2814 28.884C35.4494 28.972 35.6934 29.016 36.0134 29.016H37.9934V30H35.5694ZM32.1014 24.384V23.4H36.9374V24.384H32.1014ZM40.7581 23.4V27.564C40.7581 28.028 40.8901 28.404 41.1541 28.692C41.4181 28.972 41.7621 29.112 42.1861 29.112C42.6741 29.112 43.1061 28.936 43.4821 28.584C43.8661 28.224 44.1701 27.668 44.3941 26.916L44.5861 28.272C44.3381 28.896 43.9781 29.364 43.5061 29.676C43.0421 29.988 42.5341 30.144 41.9821 30.144C41.4861 30.144 41.0541 30.04 40.6861 29.832C40.3261 29.616 40.0461 29.32 39.8461 28.944C39.6461 28.568 39.5461 28.124 39.5461 27.612V23.4H40.7581ZM45.4621 23.4V30H44.3101L44.2501 28.512V23.4H45.4621ZM50.5428 23.256C51.1348 23.256 51.6508 23.404 52.0908 23.7C52.5388 23.988 52.8908 24.392 53.1468 24.912C53.4028 25.432 53.5308 26.028 53.5308 26.7C53.5308 27.364 53.4028 27.956 53.1468 28.476C52.8908 28.996 52.5388 29.404 52.0908 29.7C51.6508 29.996 51.1348 30.144 50.5428 30.144C50.0948 30.144 49.6828 30.052 49.3068 29.868C48.9388 29.684 48.6348 29.432 48.3948 29.112V32.136H47.1828V23.4H48.3348L48.3708 24.3C48.6108 23.98 48.9188 23.728 49.2948 23.544C49.6708 23.352 50.0868 23.256 50.5428 23.256ZM50.2788 29.124C50.6868 29.124 51.0428 29.02 51.3468 28.812C51.6508 28.604 51.8868 28.32 52.0548 27.96C52.2228 27.592 52.3068 27.172 52.3068 26.7C52.3068 26.22 52.2228 25.8 52.0548 25.44C51.8868 25.072 51.6508 24.788 51.3468 24.588C51.0428 24.38 50.6868 24.276 50.2788 24.276C49.8628 24.276 49.4828 24.396 49.1388 24.636C48.8028 24.868 48.5548 25.188 48.3948 25.596V27.78C48.5548 28.196 48.8028 28.524 49.1388 28.764C49.4828 29.004 49.8628 29.124 50.2788 29.124Z" fill="var(--colors-neutral-neutral-700)"/>
<path d="M80.104 30V21.624H81.844V28.56H86.008V30H80.104ZM92.1447 30L92.0847 28.704V25.572C92.0847 25.204 91.9567 24.916 91.7007 24.708C91.4447 24.5 91.0927 24.396 90.6447 24.396C90.2047 24.396 89.8487 24.492 89.5767 24.684C89.3047 24.868 89.1487 25.128 89.1087 25.464H87.5127C87.5527 24.992 87.7087 24.588 87.9807 24.252C88.2607 23.916 88.6327 23.66 89.0967 23.484C89.5607 23.3 90.0967 23.208 90.7047 23.208C91.3207 23.208 91.8527 23.304 92.3007 23.496C92.7567 23.688 93.1087 23.968 93.3567 24.336C93.6047 24.696 93.7287 25.14 93.7287 25.668V30H92.1447ZM89.9247 30.144C89.4847 30.144 89.0967 30.06 88.7607 29.892C88.4327 29.724 88.1767 29.492 87.9927 29.196C87.8087 28.9 87.7167 28.556 87.7167 28.164C87.7167 27.484 87.9807 26.956 88.5087 26.58C89.0367 26.196 89.7727 26.004 90.7167 26.004H92.2647V27.168H90.6687C90.2527 27.168 89.9247 27.244 89.6847 27.396C89.4447 27.548 89.3247 27.772 89.3247 28.068C89.3247 28.284 89.4127 28.468 89.5887 28.62C89.7647 28.764 90.0047 28.836 90.3087 28.836C90.7167 28.836 91.0807 28.728 91.4007 28.512C91.7207 28.296 91.9847 28.004 92.1927 27.636L92.3727 28.776C92.1647 29.232 91.8527 29.576 91.4367 29.808C91.0207 30.032 90.5167 30.144 89.9247 30.144ZM97.8974 25.98L98.5094 27.672L99.1214 25.98L100.225 23.352H101.917L98.9294 30.42C98.7374 30.884 98.5174 31.248 98.2694 31.512C98.0294 31.784 97.7534 31.98 97.4414 32.1C97.1374 32.22 96.7854 32.28 96.3854 32.28H95.1734V30.948H96.2294C96.4454 30.948 96.6294 30.896 96.7814 30.792C96.9334 30.696 97.0694 30.56 97.1894 30.384C97.3094 30.208 97.4214 30 97.5254 29.76L97.6574 29.436L95.1014 23.352H96.8054L97.8974 25.98ZM106.314 30.144C105.61 30.144 105.002 30.004 104.49 29.724C103.986 29.444 103.598 29.048 103.326 28.536C103.062 28.016 102.93 27.396 102.93 26.676C102.93 25.956 103.062 25.34 103.326 24.828C103.598 24.308 103.986 23.908 104.49 23.628C105.002 23.348 105.61 23.208 106.314 23.208C107.37 23.208 108.194 23.516 108.786 24.132C109.386 24.748 109.686 25.596 109.686 26.676C109.686 27.396 109.55 28.016 109.278 28.536C109.014 29.048 108.63 29.444 108.126 29.724C107.622 30.004 107.018 30.144 106.314 30.144ZM106.314 28.8C106.85 28.8 107.27 28.612 107.574 28.236C107.886 27.852 108.042 27.332 108.042 26.676C108.042 26.012 107.886 25.492 107.574 25.116C107.27 24.74 106.85 24.552 106.314 24.552C105.77 24.552 105.342 24.74 105.03 25.116C104.726 25.492 104.574 26.012 104.574 26.676C104.574 27.332 104.726 27.852 105.03 28.236C105.342 28.612 105.77 28.8 106.314 28.8ZM112.559 23.352V27.48C112.559 27.864 112.659 28.176 112.859 28.416C113.067 28.648 113.339 28.764 113.675 28.764C114.059 28.764 114.407 28.632 114.719 28.368C115.031 28.096 115.323 27.656 115.595 27.048L115.835 28.56C115.547 29.112 115.183 29.516 114.743 29.772C114.303 30.02 113.839 30.144 113.351 30.144C112.847 30.144 112.411 30.036 112.043 29.82C111.683 29.604 111.403 29.308 111.203 28.932C111.003 28.548 110.903 28.096 110.903 27.576V23.352H112.559ZM117.095 23.352V30H115.511L115.451 28.716V23.352H117.095ZM122.463 30C122.031 30 121.651 29.904 121.323 29.712C121.003 29.52 120.755 29.252 120.579 28.908C120.411 28.564 120.327 28.172 120.327 27.732V22.188L121.983 21.408V27.732C121.983 27.932 122.011 28.104 122.067 28.248C122.123 28.384 122.235 28.488 122.403 28.56C122.571 28.632 122.803 28.668 123.099 28.668H124.887V30H122.463ZM118.935 24.684V23.352H123.747V24.684H118.935Z" fill="var(--colors-neutral-neutral-800)"/>
<path d="M154.02 30.144C153.372 30.144 152.808 30.02 152.328 29.772C151.848 29.524 151.476 29.168 151.212 28.704C150.948 28.24 150.816 27.676 150.816 27.012H152.076C152.076 27.668 152.248 28.176 152.592 28.536C152.936 28.888 153.408 29.064 154.008 29.064C154.52 29.064 154.932 28.948 155.244 28.716C155.556 28.476 155.712 28.144 155.712 27.72C155.712 27.432 155.624 27.2 155.448 27.024C155.28 26.848 155.052 26.704 154.764 26.592C154.484 26.48 154.176 26.38 153.84 26.292C153.504 26.204 153.164 26.108 152.82 26.004C152.484 25.892 152.172 25.752 151.884 25.584C151.604 25.416 151.376 25.192 151.2 24.912C151.032 24.632 150.948 24.276 150.948 23.844C150.948 23.388 151.068 22.984 151.308 22.632C151.556 22.272 151.896 21.992 152.328 21.792C152.768 21.584 153.284 21.48 153.876 21.48C154.452 21.48 154.968 21.588 155.424 21.804C155.88 22.012 156.244 22.312 156.516 22.704C156.796 23.088 156.94 23.552 156.948 24.096H155.676C155.668 23.776 155.58 23.504 155.412 23.28C155.252 23.048 155.036 22.872 154.764 22.752C154.5 22.624 154.204 22.56 153.876 22.56C153.404 22.56 153.02 22.672 152.724 22.896C152.428 23.12 152.28 23.424 152.28 23.808C152.28 24.08 152.364 24.296 152.532 24.456C152.708 24.616 152.936 24.748 153.216 24.852C153.504 24.948 153.816 25.04 154.152 25.128C154.496 25.208 154.836 25.304 155.172 25.416C155.508 25.52 155.816 25.664 156.096 25.848C156.384 26.024 156.612 26.264 156.78 26.568C156.956 26.864 157.044 27.244 157.044 27.708C157.044 28.204 156.912 28.636 156.648 29.004C156.384 29.364 156.024 29.644 155.568 29.844C155.112 30.044 154.596 30.144 154.02 30.144ZM160.925 30V23.4H162.137V30H160.925ZM158.489 30V29.016H164.405V30H158.489ZM159.365 24.384V23.4H161.525V24.384H159.365ZM160.841 22.272V20.964H162.197V22.272H160.841ZM171.213 30V25.176C171.213 24.888 171.161 24.664 171.057 24.504C170.961 24.344 170.809 24.264 170.601 24.264C170.313 24.264 170.053 24.448 169.821 24.816C169.597 25.184 169.441 25.764 169.353 26.556L169.245 25.536C169.269 24.816 169.437 24.256 169.749 23.856C170.069 23.456 170.461 23.256 170.925 23.256C171.357 23.256 171.697 23.416 171.945 23.736C172.201 24.048 172.329 24.496 172.329 25.08V30H171.213ZM165.729 30V23.4H166.797L166.845 24.684V30H165.729ZM168.477 30V25.176C168.477 24.872 168.421 24.644 168.309 24.492C168.205 24.34 168.045 24.264 167.829 24.264C167.525 24.264 167.265 24.456 167.049 24.84C166.833 25.224 166.681 25.796 166.593 26.556L166.569 25.5C166.585 25.028 166.669 24.624 166.821 24.288C166.973 23.952 167.169 23.696 167.409 23.52C167.649 23.344 167.905 23.256 168.177 23.256C168.625 23.256 168.969 23.42 169.209 23.748C169.457 24.068 169.581 24.508 169.581 25.068V30H168.477ZM174.758 23.4V27.564C174.758 28.028 174.89 28.404 175.154 28.692C175.418 28.972 175.762 29.112 176.186 29.112C176.674 29.112 177.106 28.936 177.482 28.584C177.866 28.224 178.17 27.668 178.394 26.916L178.586 28.272C178.338 28.896 177.978 29.364 177.506 29.676C177.042 29.988 176.534 30.144 175.982 30.144C175.486 30.144 175.054 30.04 174.686 29.832C174.326 29.616 174.046 29.32 173.846 28.944C173.646 28.568 173.546 28.124 173.546 27.612V23.4H174.758ZM179.462 23.4V30H178.31L178.25 28.512V23.4H179.462ZM183.559 30V21.18H184.771V30H183.559ZM181.123 30V29.016H187.219V30H181.123ZM181.999 22.164V21.18H184.159V22.164H181.999ZM193.451 30L193.403 28.5V25.68C193.403 25.208 193.247 24.84 192.935 24.576C192.631 24.304 192.211 24.168 191.675 24.168C191.155 24.168 190.731 24.288 190.403 24.528C190.075 24.76 189.895 25.084 189.863 25.5H188.675C188.715 25.028 188.867 24.628 189.131 24.3C189.395 23.964 189.747 23.708 190.187 23.532C190.627 23.348 191.135 23.256 191.711 23.256C192.303 23.256 192.815 23.356 193.247 23.556C193.679 23.748 194.011 24.028 194.243 24.396C194.483 24.764 194.603 25.212 194.603 25.74V30H193.451ZM191.063 30.144C190.631 30.144 190.251 30.068 189.923 29.916C189.595 29.756 189.339 29.532 189.155 29.244C188.971 28.948 188.879 28.604 188.879 28.212C188.879 27.532 189.139 27.004 189.659 26.628C190.187 26.252 190.923 26.064 191.867 26.064H193.559V26.964H191.819C191.275 26.964 190.847 27.068 190.535 27.276C190.231 27.484 190.079 27.776 190.079 28.152C190.079 28.464 190.187 28.708 190.403 28.884C190.627 29.06 190.927 29.148 191.303 29.148C191.783 29.148 192.207 29.02 192.575 28.764C192.951 28.5 193.255 28.14 193.487 27.684L193.619 28.572C193.411 29.076 193.091 29.464 192.659 29.736C192.227 30.008 191.695 30.144 191.063 30.144ZM199.828 30C199.42 30 199.072 29.92 198.784 29.76C198.496 29.592 198.28 29.356 198.136 29.052C197.992 28.748 197.92 28.392 197.92 27.984V22.152L199.132 21.492V27.984C199.132 28.176 199.16 28.352 199.216 28.512C199.272 28.672 199.38 28.796 199.54 28.884C199.708 28.972 199.952 29.016 200.272 29.016H202.252V30H199.828ZM196.36 24.384V23.4H201.196V24.384H196.36ZM206.313 30V23.4H207.525V30H206.313ZM203.877 30V29.016H209.793V30H203.877ZM204.753 24.384V23.4H206.913V24.384H204.753ZM206.229 22.272V20.964H207.585V22.272H206.229ZM214.406 30.144C213.726 30.144 213.138 30.004 212.642 29.724C212.154 29.444 211.778 29.048 211.514 28.536C211.25 28.016 211.118 27.404 211.118 26.7C211.118 25.98 211.25 25.368 211.514 24.864C211.778 24.352 212.154 23.956 212.642 23.676C213.138 23.396 213.73 23.256 214.418 23.256C215.442 23.256 216.246 23.564 216.83 24.18C217.414 24.788 217.706 25.628 217.706 26.7C217.706 27.404 217.574 28.016 217.31 28.536C217.046 29.048 216.666 29.444 216.17 29.724C215.682 30.004 215.094 30.144 214.406 30.144ZM214.418 29.136C215.058 29.136 215.562 28.92 215.93 28.488C216.306 28.048 216.494 27.452 216.494 26.7C216.494 25.94 216.306 25.344 215.93 24.912C215.562 24.48 215.058 24.264 214.418 24.264C213.77 24.264 213.262 24.48 212.894 24.912C212.526 25.344 212.342 25.94 212.342 26.7C212.342 27.452 212.526 28.048 212.894 28.488C213.262 28.92 213.77 29.136 214.418 29.136ZM223.758 30V25.836C223.758 25.372 223.626 25 223.362 24.72C223.098 24.432 222.754 24.288 222.33 24.288C221.842 24.288 221.406 24.468 221.022 24.828C220.646 25.18 220.346 25.732 220.122 26.484L219.93 25.128C220.178 24.504 220.534 24.036 220.998 23.724C221.47 23.412 221.982 23.256 222.534 23.256C223.03 23.256 223.458 23.364 223.818 23.58C224.186 23.788 224.47 24.08 224.67 24.456C224.87 24.832 224.97 25.276 224.97 25.788V30H223.758ZM219.054 30V23.4H220.206L220.266 24.888V30H219.054Z" fill="var(--colors-neutral-neutral-700)"/>
<path d="M304 229.5H0V230.5H304V229.5Z" fill="var(--colors-neutral-neutral-400)"/>
<path d="M19.144 80V71.624H20.644V80H19.144ZM17.104 71.624H22.684V72.884H17.104V71.624ZM17.104 78.74H22.684V80H17.104V78.74ZM29.3247 80V75.86C29.3247 75.428 29.2047 75.084 28.9647 74.828C28.7327 74.572 28.4287 74.444 28.0527 74.444C27.6207 74.444 27.2287 74.6 26.8767 74.912C26.5327 75.216 26.2367 75.708 25.9887 76.388L25.7727 74.96C26.0367 74.376 26.3967 73.944 26.8527 73.664C27.3087 73.376 27.7967 73.232 28.3167 73.232C28.8207 73.232 29.2527 73.34 29.6127 73.556C29.9807 73.764 30.2607 74.06 30.4527 74.444C30.6527 74.82 30.7527 75.264 30.7527 75.776V80H29.3247ZM24.7047 80V73.376H26.0727L26.1327 74.768V80H24.7047ZM36.0494 80C35.6254 80 35.2614 79.912 34.9574 79.736C34.6534 79.56 34.4214 79.312 34.2614 78.992C34.1014 78.664 34.0214 78.284 34.0214 77.852V72.176L35.4614 71.456V77.852C35.4614 78.052 35.4894 78.228 35.5454 78.38C35.6014 78.532 35.7094 78.648 35.8694 78.728C36.0374 78.8 36.2774 78.836 36.5894 78.836H38.4734V80H36.0494ZM32.5454 74.54V73.376H37.3814V74.54H32.5454ZM44.8981 80L44.8381 78.596V75.62C44.8381 75.204 44.6981 74.876 44.4181 74.636C44.1381 74.396 43.7501 74.276 43.2541 74.276C42.7821 74.276 42.3941 74.384 42.0901 74.6C41.7941 74.816 41.6261 75.112 41.5861 75.488H40.1941C40.2341 75.016 40.3861 74.612 40.6501 74.276C40.9221 73.94 41.2821 73.684 41.7301 73.508C42.1861 73.324 42.7101 73.232 43.3021 73.232C43.9101 73.232 44.4341 73.328 44.8741 73.52C45.3221 73.712 45.6661 73.992 45.9061 74.36C46.1461 74.728 46.2661 75.176 46.2661 75.704V80H44.8981ZM42.5941 80.144C42.1621 80.144 41.7781 80.064 41.4421 79.904C41.1141 79.744 40.8581 79.516 40.6741 79.22C40.4901 78.924 40.3981 78.58 40.3981 78.188C40.3981 77.508 40.6621 76.98 41.1901 76.604C41.7181 76.22 42.4501 76.028 43.3861 76.028H45.0061V77.06L43.3381 77.072C42.8581 77.072 42.4821 77.164 42.2101 77.348C41.9381 77.524 41.8021 77.78 41.8021 78.116C41.8021 78.38 41.8981 78.592 42.0901 78.752C42.2901 78.912 42.5621 78.992 42.9061 78.992C43.3461 78.992 43.7381 78.876 44.0821 78.644C44.4341 78.404 44.7181 78.076 44.9341 77.66L45.0901 78.668C44.8821 79.156 44.5661 79.524 44.1421 79.772C43.7181 80.02 43.2021 80.144 42.5941 80.144ZM47.9268 80V71.156H49.3668V74.312L49.2828 76.196L50.5548 74.816L52.1028 73.376H53.9748L49.3668 77.696V80H47.9268ZM52.4268 80L50.1828 76.028L51.4668 75.452L54.0948 80H52.4268ZM58.9954 80.144C58.2994 80.144 57.6994 80.008 57.1954 79.736C56.6914 79.456 56.3034 79.056 56.0314 78.536C55.7674 78.016 55.6354 77.396 55.6354 76.676C55.6354 75.956 55.7714 75.34 56.0434 74.828C56.3154 74.308 56.7074 73.912 57.2194 73.64C57.7314 73.368 58.3434 73.232 59.0554 73.232C60.1594 73.232 60.9714 73.54 61.4914 74.156C62.0194 74.772 62.2474 75.616 62.1754 76.688H56.7754L56.7874 75.644L60.7114 75.656C60.6794 75.272 60.5114 74.964 60.2074 74.732C59.9034 74.5 59.5194 74.384 59.0554 74.384C58.3994 74.384 57.9034 74.588 57.5674 74.996C57.2314 75.404 57.0634 75.984 57.0634 76.736C57.0634 77.168 57.1394 77.556 57.2914 77.9C57.4434 78.236 57.6594 78.5 57.9394 78.692C58.2274 78.876 58.5794 78.968 58.9954 78.968C59.4674 78.968 59.8594 78.856 60.1714 78.632C60.4914 78.408 60.6874 78.108 60.7594 77.732H62.1994C62.1034 78.476 61.7674 79.064 61.1914 79.496C60.6234 79.928 59.8914 80.144 58.9954 80.144ZM74.2688 80V75.104L74.3528 73.376L72.9728 74.492L71.4968 75.668V73.928L74.6768 71.624H75.7808V80H74.2688ZM71.4968 80V78.74H77.6648V80H71.4968Z" fill="var(--colors-neutral-neutral-800)"/>
<path fill-rule="evenodd" clip-rule="evenodd" d="M242.175 68.175C242.394 67.9562 242.691 67.8333 243 67.8333H255C255.31 67.8333 255.606 67.9562 255.825 68.175C256.044 68.3938 256.167 68.6905 256.167 68.9999V80.9999C256.167 81.3093 256.044 81.6061 255.825 81.8249C255.606 82.0437 255.31 82.1666 255 82.1666H253.5V82.9999C253.5 83.3093 253.377 83.6061 253.158 83.8249C252.94 84.0437 252.643 84.1666 252.333 84.1666H241C240.691 84.1666 240.394 84.0437 240.175 83.8249C239.956 83.6061 239.833 83.3093 239.833 82.9999V71.6666C239.833 71.3572 239.956 71.0604 240.175 70.8416C240.394 70.6228 240.691 70.4999 241 70.4999H241.833V68.9999C241.833 68.6905 241.956 68.3938 242.175 68.175ZM241.833 71.4999H241C240.956 71.4999 240.914 71.5175 240.882 71.5487C240.851 71.58 240.833 71.6224 240.833 71.6666V82.9999C240.833 83.0441 240.851 83.0865 240.882 83.1178C240.914 83.149 240.956 83.1666 241 83.1666H252.333C252.378 83.1666 252.42 83.149 252.451 83.1178C252.483 83.0865 252.5 83.0441 252.5 82.9999V82.1666H243C242.691 82.1666 242.394 82.0437 242.175 81.8249C241.956 81.6061 241.833 81.3093 241.833 80.9999V71.4999ZM243 81.1666C242.956 81.1666 242.914 81.149 242.882 81.1178C242.851 81.0865 242.833 81.0441 242.833 80.9999V68.9999C242.833 68.9557 242.851 68.9133 242.882 68.8821C242.914 68.8508 242.956 68.8333 243 68.8333H255C255.044 68.8333 255.087 68.8508 255.118 68.8821C255.149 68.9133 255.167 68.9557 255.167 68.9999V80.9999C255.167 81.0441 255.149 81.0865 255.118 81.1178C255.087 81.149 255.044 81.1666 255 81.1666H243Z" fill="var(--colors-neutral-neutral-800)"/>
<path fill-rule="evenodd" clip-rule="evenodd" d="M249 72C249.276 72 249.5 72.0001 249.5 72.0001V74.5L252 74.5C252 74.5 252 74.7239 252 75C252 75.2761 252 75.5 252 75.5H249.5L249.5 78C249.5 78 249.276 78 249 78C248.724 78 248.5 78 248.5 78L248.5 75.5H246C246 75.5 246 75.2761 246 75C246 74.7239 246 74.5 246 74.5L248.5 74.5V72.0001C248.5 72.0001 248.724 72 249 72Z" fill="var(--colors-neutral-neutral-800)"/>
<path fill-rule="evenodd" clip-rule="evenodd" d="M274.175 68.1751C274.394 67.9563 274.691 67.8334 275 67.8334H287C287.31 67.8334 287.606 67.9563 287.825 68.1751C288.044 68.3939 288.167 68.6906 288.167 69V81C288.167 81.3095 288.044 81.6062 287.825 81.825C287.606 82.0438 287.31 82.1667 287 82.1667H285.5V83C285.5 83.3095 285.377 83.6062 285.158 83.825C284.94 84.0438 284.643 84.1667 284.333 84.1667H273C272.691 84.1667 272.394 84.0438 272.175 83.825C271.956 83.6062 271.833 83.3095 271.833 83V71.6667C271.833 71.3573 271.956 71.0605 272.175 70.8417C272.394 70.623 272.691 70.5 273 70.5H273.833V69C273.833 68.6906 273.956 68.3939 274.175 68.1751ZM273.833 71.5H273C272.956 71.5 272.914 71.5176 272.882 71.5489C272.851 71.5801 272.833 71.6225 272.833 71.6667V83C272.833 83.0442 272.851 83.0866 272.882 83.1179C272.914 83.1491 272.956 83.1667 273 83.1667H284.333C284.378 83.1667 284.42 83.1491 284.451 83.1179C284.483 83.0866 284.5 83.0442 284.5 83V82.1667H275C274.691 82.1667 274.394 82.0438 274.175 81.825C273.956 81.6062 273.833 81.3095 273.833 81V71.5ZM275 81.1667C274.956 81.1667 274.914 81.1491 274.882 81.1179C274.851 81.0866 274.833 81.0442 274.833 81V69C274.833 68.9558 274.851 68.9134 274.882 68.8822C274.914 68.8509 274.956 68.8334 275 68.8334H287C287.044 68.8334 287.087 68.8509 287.118 68.8822C287.149 68.9134 287.167 68.9558 287.167 69V81C287.167 81.0442 287.149 81.0866 287.118 81.1179C287.087 81.1491 287.044 81.1667 287 81.1667H275Z" fill="var(--colors-neutral-neutral-800)"/>
<rect width="272" height="114" transform="translate(16 100)" fill="var(--colors-neutral-neutral-200)"/>
<path d="M32.996 129V120.624H39.008V121.704H34.268V124.116H37.532V125.196H34.268V127.92H39.056V129H32.996ZM41.4487 125.94V124.86H43.6327C44.1687 124.86 44.6007 124.712 44.9287 124.416C45.2567 124.12 45.4207 123.732 45.4207 123.252C45.4207 122.788 45.2687 122.416 44.9647 122.136C44.6607 121.848 44.2567 121.704 43.7527 121.704H41.4487V120.624H43.7527C44.3607 120.624 44.8887 120.732 45.3367 120.948C45.7847 121.164 46.1327 121.468 46.3807 121.86C46.6287 122.252 46.7527 122.716 46.7527 123.252C46.7527 123.788 46.6247 124.26 46.3687 124.668C46.1127 125.068 45.7487 125.38 45.2767 125.604C44.8127 125.828 44.2687 125.94 43.6447 125.94H41.4487ZM40.5367 129V120.624H41.8087V129H40.5367ZM48.7734 126.888V125.808H53.4174V126.888H48.7734ZM50.1174 120.624H51.9414L54.5334 129H53.2254L51.5334 123.456L51.0294 121.62L50.5254 123.468L48.8094 129H47.5254L50.1174 120.624ZM56.0141 129V120.624H57.2861V127.92H61.6781V129H56.0141ZM63.2668 130.056V129H69.0628V130.056H63.2668ZM73.6274 129V123.828L73.6874 122.124L72.3314 123.228L70.8314 124.428V122.928L73.9754 120.624H74.8994V129H73.6274ZM70.8314 129V127.92H76.7594V129H70.8314Z" fill="var(--colors-neutral-neutral-800)"/>
<mask id="path-14-inside-2_3815_56547" fill="white">
<rect x="36.5" y="185.5" width="3" height="9" rx="0.333333"/>
</mask>
<rect x="36.5" y="185.5" width="3" height="9" rx="0.333333" stroke="var(--colors-neutral-neutral-700)" stroke-width="1.33333" mask="url(#path-14-inside-2_3815_56547)"/>
<mask id="path-15-inside-3_3815_56547" fill="white">
<rect x="40.5" y="185.5" width="3" height="9" rx="0.333333"/>
</mask>
<rect x="40.5" y="185.5" width="3" height="9" rx="0.333333" stroke="var(--colors-neutral-neutral-700)" stroke-width="1.33333" mask="url(#path-15-inside-3_3815_56547)"/>
<path d="M52.77 194V193.24C53.69 192.553 54.43 191.957 54.99 191.45C55.55 190.937 55.9567 190.483 56.21 190.09C56.4633 189.69 56.59 189.327 56.59 189C56.59 188.64 56.4767 188.35 56.25 188.13C56.03 187.91 55.72 187.8 55.32 187.8C54.9 187.8 54.5533 187.93 54.28 188.19C54.0067 188.443 53.86 188.803 53.84 189.27H52.77C52.8033 188.77 52.93 188.343 53.15 187.99C53.3767 187.63 53.6767 187.36 54.05 187.18C54.43 186.993 54.86 186.9 55.34 186.9C55.82 186.9 56.2367 186.987 56.59 187.16C56.9433 187.327 57.2133 187.567 57.4 187.88C57.5933 188.187 57.69 188.543 57.69 188.95C57.69 189.39 57.5767 189.823 57.35 190.25C57.13 190.67 56.7733 191.113 56.28 191.58C55.7933 192.04 55.1467 192.547 54.34 193.1H57.71V194H52.77ZM66.5578 194V186.65H67.5678V194H66.5578ZM64.5278 194V193.18H69.6078V194H64.5278ZM65.2578 187.47V186.65H67.0578V187.47H65.2578ZM74.4017 194L74.3617 192.75V190.4C74.3617 190.007 74.2317 189.7 73.9717 189.48C73.7184 189.253 73.3684 189.14 72.9217 189.14C72.4884 189.14 72.1351 189.24 71.8617 189.44C71.5884 189.633 71.4384 189.903 71.4117 190.25H70.4217C70.4551 189.857 70.5817 189.523 70.8017 189.25C71.0217 188.97 71.3151 188.757 71.6817 188.61C72.0484 188.457 72.4717 188.38 72.9517 188.38C73.4451 188.38 73.8717 188.463 74.2317 188.63C74.5917 188.79 74.8684 189.023 75.0617 189.33C75.2617 189.637 75.3617 190.01 75.3617 190.45V194H74.4017ZM72.4117 194.12C72.0517 194.12 71.7351 194.057 71.4617 193.93C71.1884 193.797 70.9751 193.61 70.8217 193.37C70.6684 193.123 70.5917 192.837 70.5917 192.51C70.5917 191.943 70.8084 191.503 71.2417 191.19C71.6817 190.877 72.2951 190.72 73.0817 190.72H74.4917V191.47H73.0417C72.5884 191.47 72.2317 191.557 71.9717 191.73C71.7184 191.903 71.5917 192.147 71.5917 192.46C71.5917 192.72 71.6817 192.923 71.8617 193.07C72.0484 193.217 72.2984 193.29 72.6117 193.29C73.0117 193.29 73.3651 193.183 73.6717 192.97C73.9851 192.75 74.2384 192.45 74.4317 192.07L74.5417 192.81C74.3684 193.23 74.1017 193.553 73.7417 193.78C73.3817 194.007 72.9384 194.12 72.4117 194.12ZM80.3456 194V190.53C80.3456 190.143 80.2356 189.833 80.0156 189.6C79.7956 189.36 79.509 189.24 79.1556 189.24C78.749 189.24 78.3856 189.39 78.0656 189.69C77.7523 189.983 77.5023 190.443 77.3156 191.07L77.1556 189.94C77.3623 189.42 77.659 189.03 78.0456 188.77C78.439 188.51 78.8656 188.38 79.3256 188.38C79.739 188.38 80.0956 188.47 80.3956 188.65C80.7023 188.823 80.939 189.067 81.1056 189.38C81.2723 189.693 81.3556 190.063 81.3556 190.49V194H80.3456ZM76.4256 194V188.5H77.3856L77.4356 189.74V194H76.4256ZM84.8295 194.12C84.2629 194.12 83.7729 194.007 83.3595 193.78C82.9462 193.547 82.6295 193.217 82.4095 192.79C82.1895 192.357 82.0795 191.84 82.0795 191.24C82.0795 190.64 82.1895 190.127 82.4095 189.7C82.6362 189.273 82.9562 188.947 83.3695 188.72C83.7895 188.493 84.2895 188.38 84.8695 188.38C85.7562 188.38 86.4162 188.627 86.8495 189.12C87.2829 189.607 87.4729 190.277 87.4195 191.13H82.8795L82.8895 190.37L86.3895 190.38C86.3629 190.027 86.2095 189.743 85.9295 189.53C85.6495 189.317 85.2962 189.21 84.8695 189.21C84.2962 189.21 83.8562 189.39 83.5495 189.75C83.2429 190.11 83.0895 190.62 83.0895 191.28C83.0895 191.673 83.1562 192.023 83.2895 192.33C83.4295 192.63 83.6295 192.863 83.8895 193.03C84.1495 193.197 84.4629 193.28 84.8295 193.28C85.2629 193.28 85.6229 193.177 85.9095 192.97C86.2029 192.763 86.3829 192.483 86.4495 192.13H87.4595C87.3729 192.75 87.0962 193.237 86.6295 193.59C86.1629 193.943 85.5629 194.12 84.8295 194.12ZM90.8234 194.12C90.3368 194.12 89.9068 194.037 89.5334 193.87C89.1668 193.697 88.8834 193.457 88.6834 193.15C88.4834 192.837 88.3801 192.463 88.3734 192.03H89.3234C89.3234 192.437 89.4601 192.757 89.7334 192.99C90.0068 193.223 90.3668 193.34 90.8134 193.34C91.1934 193.34 91.4968 193.27 91.7234 193.13C91.9568 192.983 92.0734 192.787 92.0734 192.54C92.0734 192.347 92.0068 192.193 91.8734 192.08C91.7468 191.96 91.5768 191.867 91.3634 191.8C91.1501 191.733 90.9134 191.677 90.6534 191.63C90.4001 191.577 90.1434 191.517 89.8834 191.45C89.6301 191.377 89.3968 191.287 89.1834 191.18C88.9701 191.067 88.7968 190.917 88.6634 190.73C88.5301 190.543 88.4634 190.3 88.4634 190C88.4634 189.687 88.5534 189.41 88.7334 189.17C88.9134 188.923 89.1668 188.73 89.4934 188.59C89.8268 188.45 90.2201 188.38 90.6734 188.38C91.3601 188.38 91.9101 188.54 92.3234 188.86C92.7434 189.173 92.9701 189.607 93.0034 190.16H92.0534C92.0334 189.84 91.9001 189.593 91.6534 189.42C91.4134 189.24 91.0868 189.15 90.6734 189.15C90.2868 189.15 89.9901 189.227 89.7834 189.38C89.5834 189.533 89.4834 189.727 89.4834 189.96C89.4834 190.14 89.5501 190.283 89.6834 190.39C89.8168 190.49 89.9901 190.57 90.2034 190.63C90.4168 190.683 90.6501 190.733 90.9034 190.78C91.1634 190.82 91.4201 190.873 91.6734 190.94C91.9334 191.007 92.1701 191.1 92.3834 191.22C92.5968 191.333 92.7668 191.49 92.8934 191.69C93.0268 191.89 93.0934 192.15 93.0934 192.47C93.0934 192.983 92.8868 193.387 92.4734 193.68C92.0601 193.973 91.5101 194.12 90.8234 194.12Z" fill="var(--colors-neutral-neutral-600)"/>
<path d="M41.7365 152.263L42.2634 151.737L40.375 149.848V147.5H39.625V150.152L41.7365 152.263ZM40.0008 154.75C39.3439 154.75 38.7263 154.625 38.1483 154.376C37.5702 154.127 37.0674 153.788 36.6398 153.361C36.2121 152.933 35.8736 152.431 35.6242 151.853C35.3747 151.275 35.25 150.658 35.25 150.001C35.25 149.344 35.3747 148.726 35.624 148.148C35.8733 147.57 36.2117 147.067 36.6391 146.64C37.0666 146.212 37.5692 145.874 38.147 145.624C38.7248 145.375 39.3422 145.25 39.9992 145.25C40.6561 145.25 41.2736 145.375 41.8517 145.624C42.4298 145.873 42.9326 146.212 43.3602 146.639C43.7878 147.067 44.1264 147.569 44.3758 148.147C44.6253 148.725 44.75 149.342 44.75 149.999C44.75 150.656 44.6253 151.274 44.376 151.852C44.1266 152.43 43.7883 152.933 43.3609 153.36C42.9334 153.788 42.4308 154.126 41.853 154.376C41.2752 154.625 40.6578 154.75 40.0008 154.75ZM40 154C41.1083 154 42.0521 153.61 42.8312 152.831C43.6104 152.052 44 151.108 44 150C44 148.892 43.6104 147.948 42.8312 147.169C42.0521 146.39 41.1083 146 40 146C38.8917 146 37.9479 146.39 37.1687 147.169C36.3896 147.948 36 148.892 36 150C36 151.108 36.3896 152.052 37.1687 152.831C37.9479 153.61 38.8917 154 40 154Z" fill="var(--colors-neutral-neutral-700)"/>
<path d="M55.31 154.12C54.85 154.12 54.4267 154.027 54.04 153.84C53.6533 153.653 53.3433 153.383 53.11 153.03C52.8833 152.677 52.77 152.243 52.77 151.73H53.83C53.8367 152.023 53.9033 152.283 54.03 152.51C54.1567 152.73 54.33 152.9 54.55 153.02C54.7767 153.14 55.03 153.2 55.31 153.2C55.7367 153.2 56.08 153.09 56.34 152.87C56.6 152.65 56.73 152.367 56.73 152.02C56.73 151.747 56.6533 151.523 56.5 151.35C56.3533 151.17 56.1533 151.037 55.9 150.95C55.6533 150.863 55.3767 150.82 55.07 150.82H54.7V149.94H55.1C55.3733 149.94 55.6067 149.89 55.8 149.79C56 149.683 56.1533 149.543 56.26 149.37C56.3667 149.197 56.42 149.01 56.42 148.81C56.42 148.503 56.3133 148.26 56.1 148.08C55.8933 147.893 55.6233 147.8 55.29 147.8C54.8833 147.8 54.5533 147.92 54.3 148.16C54.0467 148.393 53.91 148.733 53.89 149.18H52.83C52.85 148.68 52.9733 148.26 53.2 147.92C53.4333 147.58 53.7333 147.327 54.1 147.16C54.4667 146.987 54.8667 146.9 55.3 146.9C55.7467 146.9 56.1333 146.977 56.46 147.13C56.7933 147.277 57.0533 147.487 57.24 147.76C57.4267 148.027 57.52 148.343 57.52 148.71C57.52 148.957 57.4667 149.19 57.36 149.41C57.2533 149.63 57.1067 149.82 56.92 149.98C56.74 150.133 56.53 150.243 56.29 150.31C56.59 150.357 56.8533 150.46 57.08 150.62C57.3133 150.773 57.4967 150.973 57.63 151.22C57.7633 151.46 57.83 151.73 57.83 152.03C57.83 152.437 57.7267 152.8 57.52 153.12C57.3133 153.433 57.02 153.68 56.64 153.86C56.2667 154.033 55.8233 154.12 55.31 154.12ZM61.1539 154.12C60.5872 154.12 60.1039 153.973 59.7039 153.68C59.3039 153.38 58.9972 152.96 58.7839 152.42C58.5706 151.873 58.4639 151.237 58.4639 150.51C58.4639 149.77 58.5706 149.13 58.7839 148.59C58.9972 148.05 59.3039 147.633 59.7039 147.34C60.1039 147.047 60.5872 146.9 61.1539 146.9C61.7272 146.9 62.2106 147.047 62.6039 147.34C63.0039 147.633 63.3106 148.05 63.5239 148.59C63.7372 149.123 63.8439 149.763 63.8439 150.51C63.8439 151.243 63.7372 151.88 63.5239 152.42C63.3106 152.96 63.0039 153.38 62.6039 153.68C62.2106 153.973 61.7272 154.12 61.1539 154.12ZM61.1539 153.22C61.6806 153.22 62.0772 152.983 62.3439 152.51C62.6106 152.03 62.7439 151.363 62.7439 150.51C62.7439 149.643 62.6106 148.977 62.3439 148.51C62.0772 148.037 61.6806 147.8 61.1539 147.8C60.6339 147.8 60.2406 148.037 59.9739 148.51C59.7072 148.977 59.5739 149.643 59.5739 150.51C59.5739 151.363 59.7072 152.03 59.9739 152.51C60.2406 152.983 60.6339 153.22 61.1539 153.22ZM72.9517 154.12C72.3851 154.12 71.8951 154.003 71.4817 153.77C71.0751 153.537 70.7617 153.207 70.5417 152.78C70.3217 152.347 70.2117 151.837 70.2117 151.25C70.2117 150.65 70.3217 150.14 70.5417 149.72C70.7617 149.293 71.0751 148.963 71.4817 148.73C71.8951 148.497 72.3884 148.38 72.9617 148.38C73.8151 148.38 74.4851 148.637 74.9717 149.15C75.4584 149.657 75.7017 150.357 75.7017 151.25C75.7017 151.837 75.5917 152.347 75.3717 152.78C75.1517 153.207 74.8351 153.537 74.4217 153.77C74.0151 154.003 73.5251 154.12 72.9517 154.12ZM72.9617 153.28C73.4951 153.28 73.9151 153.1 74.2217 152.74C74.5351 152.373 74.6917 151.877 74.6917 151.25C74.6917 150.617 74.5351 150.12 74.2217 149.76C73.9151 149.4 73.4951 149.22 72.9617 149.22C72.4217 149.22 71.9984 149.4 71.6917 149.76C71.3851 150.12 71.2317 150.617 71.2317 151.25C71.2317 151.877 71.3851 152.373 71.6917 152.74C71.9984 153.1 72.4217 153.28 72.9617 153.28ZM80.3656 150.86V150.2C80.3656 149.913 80.279 149.683 80.1056 149.51C79.9323 149.33 79.6823 149.24 79.3556 149.24C78.9423 149.24 78.5723 149.397 78.2456 149.71C77.919 150.017 77.659 150.487 77.4656 151.12L77.3256 150.1C77.4723 149.72 77.649 149.403 77.8556 149.15C78.069 148.897 78.3123 148.707 78.5856 148.58C78.8656 148.447 79.1723 148.38 79.5056 148.38C80.059 148.38 80.509 148.54 80.8556 148.86C81.2023 149.173 81.3756 149.62 81.3756 150.2V150.86H80.3656ZM76.6456 154V148.5H77.5956L77.6556 149.75V154H76.6456ZM84.4795 148.38C84.8595 148.38 85.2062 148.457 85.5195 148.61C85.8329 148.757 86.0862 148.963 86.2795 149.23V146.65H87.2795V154H86.3295L86.2995 153.23C86.1062 153.497 85.8495 153.713 85.5295 153.88C85.2162 154.04 84.8662 154.12 84.4795 154.12C83.9929 154.12 83.5629 153.997 83.1895 153.75C82.8162 153.503 82.5229 153.163 82.3095 152.73C82.1029 152.297 81.9995 151.803 81.9995 151.25C81.9995 150.69 82.1029 150.193 82.3095 149.76C82.5229 149.327 82.8162 148.99 83.1895 148.75C83.5629 148.503 83.9929 148.38 84.4795 148.38ZM84.6995 153.27C85.0595 153.27 85.3795 153.17 85.6595 152.97C85.9395 152.763 86.1462 152.487 86.2795 152.14V150.35C86.1462 149.997 85.9395 149.723 85.6595 149.53C85.3795 149.33 85.0595 149.23 84.6995 149.23C84.3662 149.23 84.0729 149.317 83.8195 149.49C83.5662 149.657 83.3662 149.893 83.2195 150.2C83.0795 150.5 83.0095 150.85 83.0095 151.25C83.0095 151.643 83.0795 151.993 83.2195 152.3C83.3662 152.6 83.5662 152.837 83.8195 153.01C84.0729 153.183 84.3662 153.27 84.6995 153.27ZM90.7334 154.12C90.1668 154.12 89.6768 154.007 89.2634 153.78C88.8501 153.547 88.5334 153.217 88.3134 152.79C88.0934 152.357 87.9834 151.84 87.9834 151.24C87.9834 150.64 88.0934 150.127 88.3134 149.7C88.5401 149.273 88.8601 148.947 89.2734 148.72C89.6934 148.493 90.1934 148.38 90.7734 148.38C91.6601 148.38 92.3201 148.627 92.7534 149.12C93.1868 149.607 93.3768 150.277 93.3234 151.13H88.7834L88.7934 150.37L92.2934 150.38C92.2668 150.027 92.1134 149.743 91.8334 149.53C91.5534 149.317 91.2001 149.21 90.7734 149.21C90.2001 149.21 89.7601 149.39 89.4534 149.75C89.1468 150.11 88.9934 150.62 88.9934 151.28C88.9934 151.673 89.0601 152.023 89.1934 152.33C89.3334 152.63 89.5334 152.863 89.7934 153.03C90.0534 153.197 90.3668 153.28 90.7334 153.28C91.1668 153.28 91.5268 153.177 91.8134 152.97C92.1068 152.763 92.2868 152.483 92.3534 152.13H93.3634C93.2768 152.75 93.0001 153.237 92.5334 153.59C92.0668 153.943 91.4668 154.12 90.7334 154.12ZM98.0773 150.86V150.2C98.0773 149.913 97.9907 149.683 97.8173 149.51C97.644 149.33 97.394 149.24 97.0673 149.24C96.654 149.24 96.284 149.397 95.9573 149.71C95.6307 150.017 95.3707 150.487 95.1773 151.12L95.0373 150.1C95.184 149.72 95.3607 149.403 95.5673 149.15C95.7807 148.897 96.024 148.707 96.2973 148.58C96.5773 148.447 96.884 148.38 97.2173 148.38C97.7707 148.38 98.2207 148.54 98.5673 148.86C98.914 149.173 99.0873 149.62 99.0873 150.2V150.86H98.0773ZM94.3573 154V148.5H95.3073L95.3673 149.75V154H94.3573ZM102.631 154.12C102.145 154.12 101.715 154.037 101.341 153.87C100.975 153.697 100.691 153.457 100.491 153.15C100.291 152.837 100.188 152.463 100.181 152.03H101.131C101.131 152.437 101.268 152.757 101.541 152.99C101.815 153.223 102.175 153.34 102.621 153.34C103.001 153.34 103.305 153.27 103.531 153.13C103.765 152.983 103.881 152.787 103.881 152.54C103.881 152.347 103.815 152.193 103.681 152.08C103.555 151.96 103.385 151.867 103.171 151.8C102.958 151.733 102.721 151.677 102.461 151.63C102.208 151.577 101.951 151.517 101.691 151.45C101.438 151.377 101.205 151.287 100.991 151.18C100.778 151.067 100.605 150.917 100.471 150.73C100.338 150.543 100.271 150.3 100.271 150C100.271 149.687 100.361 149.41 100.541 149.17C100.721 148.923 100.975 148.73 101.301 148.59C101.635 148.45 102.028 148.38 102.481 148.38C103.168 148.38 103.718 148.54 104.131 148.86C104.551 149.173 104.778 149.607 104.811 150.16H103.861C103.841 149.84 103.708 149.593 103.461 149.42C103.221 149.24 102.895 149.15 102.481 149.15C102.095 149.15 101.798 149.227 101.591 149.38C101.391 149.533 101.291 149.727 101.291 149.96C101.291 150.14 101.358 150.283 101.491 150.39C101.625 150.49 101.798 150.57 102.011 150.63C102.225 150.683 102.458 150.733 102.711 150.78C102.971 150.82 103.228 150.873 103.481 150.94C103.741 151.007 103.978 151.1 104.191 151.22C104.405 151.333 104.575 151.49 104.701 151.69C104.835 151.89 104.901 152.15 104.901 152.47C104.901 152.983 104.695 153.387 104.281 153.68C103.868 153.973 103.318 154.12 102.631 154.12ZM105.925 154.97L109.795 147.01H110.845L106.975 154.97H105.925ZM115.769 154V150.54C115.769 150.147 115.659 149.833 115.439 149.6C115.219 149.36 114.932 149.24 114.579 149.24C114.172 149.24 113.809 149.39 113.489 149.69C113.176 149.983 112.926 150.443 112.739 151.07L112.579 149.95C112.786 149.423 113.082 149.03 113.469 148.77C113.862 148.51 114.289 148.38 114.749 148.38C115.162 148.38 115.519 148.47 115.819 148.65C116.126 148.823 116.362 149.07 116.529 149.39C116.696 149.703 116.779 150.073 116.779 150.5V154H115.769ZM111.849 154V146.64H112.859V154H111.849Z" fill="var(--colors-neutral-neutral-600)"/>
<path d="M33 170.611L34.7325 167.724C34.7692 167.662 34.8353 167.625 34.9066 167.625H45.4267C45.498 167.625 45.5641 167.662 45.6008 167.724L47.3333 170.611" stroke="var(--colors-neutral-neutral-700)" stroke-width="0.5"/>
<path d="M35.3892 171.806L35.3892 172.941C35.3892 172.974 35.3624 173 35.3294 173L33.06 173C33.027 173 33.0003 172.974 33.0003 172.941L33.0003 171.806L35.3892 171.806Z" stroke="var(--colors-neutral-neutral-700)" stroke-width="0.5"/>
<path d="M41.3608 171.806L41.3608 172.941C41.3608 172.974 41.3341 173 41.3011 173L39.0317 173C38.9987 173 38.972 172.974 38.972 172.941L38.972 171.806L41.3608 171.806Z" stroke="var(--colors-neutral-neutral-700)" stroke-width="0.5"/>
<path d="M47.3335 171.806L47.3335 172.941C47.3335 172.974 47.3068 173 47.2738 173L45.0043 173C44.9713 173 44.9446 172.974 44.9446 172.941L44.9446 171.806L47.3335 171.806Z" stroke="var(--colors-neutral-neutral-700)" stroke-width="0.5"/>
<path d="M37.7779 167.625L36.5835 170.611" stroke="var(--colors-neutral-neutral-700)" stroke-width="0.5"/>
<path d="M40.1665 167.625V170.611" stroke="var(--colors-neutral-neutral-700)" stroke-width="0.5"/>
<path d="M42.5556 167.625L43.75 170.611" stroke="var(--colors-neutral-neutral-700)" stroke-width="0.5"/>
<path d="M33 170.623V171.805H47.3333V170.623C47.3333 170.616 47.328 170.611 47.3214 170.611H33.0119C33.0053 170.611 33 170.616 33 170.623Z" stroke="var(--colors-neutral-neutral-700)" stroke-width="0.5"/>
<path d="M55.86 174V172.33H52.4V171.58L55.48 167.02H56.94V171.43H58.12V172.33H56.94V174H55.86ZM53.52 171.43H55.86V169.33L55.88 167.89L55.1 169.11L53.52 171.43ZM67.3778 168.38C67.8711 168.38 68.3011 168.503 68.6678 168.75C69.0411 168.99 69.3345 169.327 69.5478 169.76C69.7611 170.193 69.8678 170.69 69.8678 171.25C69.8678 171.803 69.7611 172.297 69.5478 172.73C69.3345 173.163 69.0411 173.503 68.6678 173.75C68.3011 173.997 67.8711 174.12 67.3778 174.12C67.0045 174.12 66.6611 174.043 66.3478 173.89C66.0411 173.737 65.7878 173.527 65.5878 173.26V175.78H64.5778V168.5H65.5378L65.5678 169.25C65.7678 168.983 66.0245 168.773 66.3378 168.62C66.6511 168.46 66.9978 168.38 67.3778 168.38ZM67.1578 173.27C67.4978 173.27 67.7945 173.183 68.0478 173.01C68.3011 172.837 68.4978 172.6 68.6378 172.3C68.7778 171.993 68.8478 171.643 68.8478 171.25C68.8478 170.85 68.7778 170.5 68.6378 170.2C68.4978 169.893 68.3011 169.657 68.0478 169.49C67.7945 169.317 67.4978 169.23 67.1578 169.23C66.8111 169.23 66.4945 169.33 66.2078 169.53C65.9278 169.723 65.7211 169.99 65.5878 170.33V172.15C65.7211 172.497 65.9278 172.77 66.2078 172.97C66.4945 173.17 66.8111 173.27 67.1578 173.27ZM74.4017 174L74.3617 172.75V170.4C74.3617 170.007 74.2317 169.7 73.9717 169.48C73.7184 169.253 73.3684 169.14 72.9217 169.14C72.4884 169.14 72.1351 169.24 71.8617 169.44C71.5884 169.633 71.4384 169.903 71.4117 170.25H70.4217C70.4551 169.857 70.5817 169.523 70.8017 169.25C71.0217 168.97 71.3151 168.757 71.6817 168.61C72.0484 168.457 72.4717 168.38 72.9517 168.38C73.4451 168.38 73.8717 168.463 74.2317 168.63C74.5917 168.79 74.8684 169.023 75.0617 169.33C75.2617 169.637 75.3617 170.01 75.3617 170.45V174H74.4017ZM72.4117 174.12C72.0517 174.12 71.7351 174.057 71.4617 173.93C71.1884 173.797 70.9751 173.61 70.8217 173.37C70.6684 173.123 70.5917 172.837 70.5917 172.51C70.5917 171.943 70.8084 171.503 71.2417 171.19C71.6817 170.877 72.2951 170.72 73.0817 170.72H74.4917V171.47H73.0417C72.5884 171.47 72.2317 171.557 71.9717 171.73C71.7184 171.903 71.5917 172.147 71.5917 172.46C71.5917 172.72 71.6817 172.923 71.8617 173.07C72.0484 173.217 72.2984 173.29 72.6117 173.29C73.0117 173.29 73.3651 173.183 73.6717 172.97C73.9851 172.75 74.2384 172.45 74.4317 172.07L74.5417 172.81C74.3684 173.23 74.1017 173.553 73.7417 173.78C73.3817 174.007 72.9384 174.12 72.4117 174.12ZM78.3656 174V166.65H79.3756V174H78.3656ZM76.3356 174V173.18H81.4156V174H76.3356ZM77.0656 167.47V166.65H78.8656V167.47H77.0656ZM84.2695 174V166.65H85.2795V174H84.2695ZM82.2395 174V173.18H87.3195V174H82.2395ZM82.9695 167.47V166.65H84.7695V167.47H82.9695ZM90.7334 174.12C90.1668 174.12 89.6768 174.007 89.2634 173.78C88.8501 173.547 88.5334 173.217 88.3134 172.79C88.0934 172.357 87.9834 171.84 87.9834 171.24C87.9834 170.64 88.0934 170.127 88.3134 169.7C88.5401 169.273 88.8601 168.947 89.2734 168.72C89.6934 168.493 90.1934 168.38 90.7734 168.38C91.6601 168.38 92.3201 168.627 92.7534 169.12C93.1868 169.607 93.3768 170.277 93.3234 171.13H88.7834L88.7934 170.37L92.2934 170.38C92.2668 170.027 92.1134 169.743 91.8334 169.53C91.5534 169.317 91.2001 169.21 90.7734 169.21C90.2001 169.21 89.7601 169.39 89.4534 169.75C89.1468 170.11 88.9934 170.62 88.9934 171.28C88.9934 171.673 89.0601 172.023 89.1934 172.33C89.3334 172.63 89.5334 172.863 89.7934 173.03C90.0534 173.197 90.3668 173.28 90.7334 173.28C91.1668 173.28 91.5268 173.177 91.8134 172.97C92.1068 172.763 92.2868 172.483 92.3534 172.13H93.3634C93.2768 172.75 93.0001 173.237 92.5334 173.59C92.0668 173.943 91.4668 174.12 90.7334 174.12ZM97.0273 174C96.6873 174 96.3973 173.933 96.1573 173.8C95.9173 173.66 95.7373 173.463 95.6173 173.21C95.4973 172.957 95.4373 172.66 95.4373 172.32V167.46L96.4473 166.91V172.32C96.4473 172.48 96.4707 172.627 96.5173 172.76C96.564 172.893 96.654 172.997 96.7873 173.07C96.9273 173.143 97.1307 173.18 97.3973 173.18H99.0473V174H97.0273ZM94.1373 169.32V168.5H98.1673V169.32H94.1373ZM102.631 174.12C102.145 174.12 101.715 174.037 101.341 173.87C100.975 173.697 100.691 173.457 100.491 173.15C100.291 172.837 100.188 172.463 100.181 172.03H101.131C101.131 172.437 101.268 172.757 101.541 172.99C101.815 173.223 102.175 173.34 102.621 173.34C103.001 173.34 103.305 173.27 103.531 173.13C103.765 172.983 103.881 172.787 103.881 172.54C103.881 172.347 103.815 172.193 103.681 172.08C103.555 171.96 103.385 171.867 103.171 171.8C102.958 171.733 102.721 171.677 102.461 171.63C102.208 171.577 101.951 171.517 101.691 171.45C101.438 171.377 101.205 171.287 100.991 171.18C100.778 171.067 100.605 170.917 100.471 170.73C100.338 170.543 100.271 170.3 100.271 170C100.271 169.687 100.361 169.41 100.541 169.17C100.721 168.923 100.975 168.73 101.301 168.59C101.635 168.45 102.028 168.38 102.481 168.38C103.168 168.38 103.718 168.54 104.131 168.86C104.551 169.173 104.778 169.607 104.811 170.16H103.861C103.841 169.84 103.708 169.593 103.461 169.42C103.221 169.24 102.895 169.15 102.481 169.15C102.095 169.15 101.798 169.227 101.591 169.38C101.391 169.533 101.291 169.727 101.291 169.96C101.291 170.14 101.358 170.283 101.491 170.39C101.625 170.49 101.798 170.57 102.011 170.63C102.225 170.683 102.458 170.733 102.711 170.78C102.971 170.82 103.228 170.873 103.481 170.94C103.741 171.007 103.978 171.1 104.191 171.22C104.405 171.333 104.575 171.49 104.701 171.69C104.835 171.89 104.901 172.15 104.901 172.47C104.901 172.983 104.695 173.387 104.281 173.68C103.868 173.973 103.318 174.12 102.631 174.12ZM114.499 174.97C114.092 174.263 113.799 173.59 113.619 172.95C113.446 172.31 113.359 171.66 113.359 171C113.359 170.32 113.446 169.663 113.619 169.03C113.799 168.39 114.092 167.72 114.499 167.02H115.529C115.109 167.7 114.812 168.367 114.639 169.02C114.466 169.673 114.379 170.333 114.379 171C114.379 171.653 114.466 172.307 114.639 172.96C114.812 173.613 115.109 174.283 115.529 174.97H114.499ZM117.713 174V173.24C118.633 172.553 119.373 171.957 119.933 171.45C120.493 170.937 120.9 170.483 121.153 170.09C121.406 169.69 121.533 169.327 121.533 169C121.533 168.64 121.42 168.35 121.193 168.13C120.973 167.91 120.663 167.8 120.263 167.8C119.843 167.8 119.496 167.93 119.223 168.19C118.95 168.443 118.803 168.803 118.783 169.27H117.713C117.746 168.77 117.873 168.343 118.093 167.99C118.32 167.63 118.62 167.36 118.993 167.18C119.373 166.993 119.803 166.9 120.283 166.9C120.763 166.9 121.18 166.987 121.533 167.16C121.886 167.327 122.156 167.567 122.343 167.88C122.536 168.187 122.633 168.543 122.633 168.95C122.633 169.39 122.52 169.823 122.293 170.25C122.073 170.67 121.716 171.113 121.223 171.58C120.736 172.04 120.09 172.547 119.283 173.1H122.653V174H117.713ZM123.637 174.97L127.507 167.01H128.557L124.687 174.97H123.637ZM131.501 174V166.65H132.511V174H131.501ZM129.471 174V173.18H134.551V174H129.471ZM130.201 167.47V166.65H132.001V167.47H130.201ZM139.345 174L139.305 172.75V170.4C139.305 170.007 139.175 169.7 138.915 169.48C138.661 169.253 138.311 169.14 137.865 169.14C137.431 169.14 137.078 169.24 136.805 169.44C136.531 169.633 136.381 169.903 136.355 170.25H135.365C135.398 169.857 135.525 169.523 135.745 169.25C135.965 168.97 136.258 168.757 136.625 168.61C136.991 168.457 137.415 168.38 137.895 168.38C138.388 168.38 138.815 168.463 139.175 168.63C139.535 168.79 139.811 169.023 140.005 169.33C140.205 169.637 140.305 170.01 140.305 170.45V174H139.345ZM137.355 174.12C136.995 174.12 136.678 174.057 136.405 173.93C136.131 173.797 135.918 173.61 135.765 173.37C135.611 173.123 135.535 172.837 135.535 172.51C135.535 171.943 135.751 171.503 136.185 171.19C136.625 170.877 137.238 170.72 138.025 170.72H139.435V171.47H137.985C137.531 171.47 137.175 171.557 136.915 171.73C136.661 171.903 136.535 172.147 136.535 172.46C136.535 172.72 136.625 172.923 136.805 173.07C136.991 173.217 137.241 173.29 137.555 173.29C137.955 173.29 138.308 173.183 138.615 172.97C138.928 172.75 139.181 172.45 139.375 172.07L139.485 172.81C139.311 173.23 139.045 173.553 138.685 173.78C138.325 174.007 137.881 174.12 137.355 174.12ZM145.289 174V170.53C145.289 170.143 145.179 169.833 144.959 169.6C144.739 169.36 144.452 169.24 144.099 169.24C143.692 169.24 143.329 169.39 143.009 169.69C142.695 169.983 142.445 170.443 142.259 171.07L142.099 169.94C142.305 169.42 142.602 169.03 142.989 168.77C143.382 168.51 143.809 168.38 144.269 168.38C144.682 168.38 145.039 168.47 145.339 168.65C145.645 168.823 145.882 169.067 146.049 169.38C146.215 169.693 146.299 170.063 146.299 170.49V174H145.289ZM141.369 174V168.5H142.329L142.379 169.74V174H141.369ZM149.773 174.12C149.206 174.12 148.716 174.007 148.303 173.78C147.889 173.547 147.573 173.217 147.353 172.79C147.133 172.357 147.023 171.84 147.023 171.24C147.023 170.64 147.133 170.127 147.353 169.7C147.579 169.273 147.899 168.947 148.313 168.72C148.733 168.493 149.233 168.38 149.813 168.38C150.699 168.38 151.359 168.627 151.793 169.12C152.226 169.607 152.416 170.277 152.363 171.13H147.823L147.833 170.37L151.333 170.38C151.306 170.027 151.153 169.743 150.873 169.53C150.593 169.317 150.239 169.21 149.813 169.21C149.239 169.21 148.799 169.39 148.493 169.75C148.186 170.11 148.033 170.62 148.033 171.28C148.033 171.673 148.099 172.023 148.233 172.33C148.373 172.63 148.573 172.863 148.833 173.03C149.093 173.197 149.406 173.28 149.773 173.28C150.206 173.28 150.566 173.177 150.853 172.97C151.146 172.763 151.326 172.483 151.393 172.13H152.403C152.316 172.75 152.039 173.237 151.573 173.59C151.106 173.943 150.506 174.12 149.773 174.12ZM155.416 174.97H154.386C154.806 174.283 155.103 173.613 155.276 172.96C155.45 172.307 155.536 171.653 155.536 171C155.536 170.333 155.45 169.673 155.276 169.02C155.103 168.367 154.806 167.7 154.386 167.02H155.416C155.823 167.72 156.113 168.39 156.286 169.03C156.46 169.663 156.546 170.32 156.546 171C156.546 171.66 156.46 172.31 156.286 172.95C156.113 173.59 155.823 174.263 155.416 174.97Z" fill="var(--colors-neutral-neutral-600)"/>
<path d="M304 277.5H0V278.5H304V277.5Z" fill="var(--colors-neutral-neutral-400)"/>
<path d="M16.768 258V249.624H19.42C20.044 249.624 20.6 249.724 21.088 249.924C21.584 250.116 22.004 250.396 22.348 250.764C22.692 251.124 22.956 251.56 23.14 252.072C23.324 252.584 23.416 253.156 23.416 253.788C23.416 254.428 23.324 255.008 23.14 255.528C22.956 256.04 22.692 256.484 22.348 256.86C22.004 257.228 21.584 257.512 21.088 257.712C20.6 257.904 20.044 258 19.42 258H16.768ZM18.268 256.74H19.42C19.932 256.74 20.368 256.62 20.728 256.38C21.088 256.132 21.364 255.788 21.556 255.348C21.756 254.9 21.856 254.38 21.856 253.788C21.856 253.196 21.756 252.684 21.556 252.252C21.364 251.812 21.088 251.476 20.728 251.244C20.368 251.004 19.932 250.884 19.42 250.884H18.268V256.74ZM27.0327 258V251.376H28.4607V258H27.0327ZM24.6927 258V256.836H30.7047V258H24.6927ZM25.5447 252.54V251.376H27.7407V252.54H25.5447ZM26.9487 250.332V248.868H28.5087V250.332H26.9487ZM37.5374 258V253.224C37.5374 252.968 37.4934 252.768 37.4054 252.624C37.3254 252.48 37.1934 252.408 37.0094 252.408C36.7534 252.408 36.5254 252.576 36.3254 252.912C36.1334 253.24 35.9934 253.776 35.9054 254.52L35.7974 253.548C35.7894 252.82 35.9374 252.252 36.2414 251.844C36.5534 251.436 36.9454 251.232 37.4174 251.232C37.8414 251.232 38.1814 251.392 38.4374 251.712C38.7014 252.032 38.8334 252.492 38.8334 253.092V258H37.5374ZM32.1854 258V251.376H33.4334L33.4814 252.648V258H32.1854ZM34.8614 258V253.224C34.8614 252.952 34.8134 252.748 34.7174 252.612C34.6294 252.476 34.4934 252.408 34.3094 252.408C34.0374 252.408 33.8094 252.584 33.6254 252.936C33.4414 253.288 33.3054 253.816 33.2174 254.52L33.2054 253.5C33.2054 253.028 33.2774 252.624 33.4214 252.288C33.5734 251.944 33.7654 251.684 33.9974 251.508C34.2294 251.324 34.4814 251.232 34.7534 251.232C35.1934 251.232 35.5374 251.4 35.7854 251.736C36.0334 252.064 36.1574 252.508 36.1574 253.068V258H34.8614ZM43.3861 258.144C42.6901 258.144 42.0901 258.008 41.5861 257.736C41.0821 257.456 40.6941 257.056 40.4221 256.536C40.1581 256.016 40.0261 255.396 40.0261 254.676C40.0261 253.956 40.1621 253.34 40.4341 252.828C40.7061 252.308 41.0981 251.912 41.6101 251.64C42.1221 251.368 42.7341 251.232 43.4461 251.232C44.5501 251.232 45.3621 251.54 45.8821 252.156C46.4101 252.772 46.6381 253.616 46.5661 254.688H41.1661L41.1781 253.644L45.1021 253.656C45.0701 253.272 44.9021 252.964 44.5981 252.732C44.2941 252.5 43.9101 252.384 43.4461 252.384C42.7901 252.384 42.2941 252.588 41.9581 252.996C41.6221 253.404 41.4541 253.984 41.4541 254.736C41.4541 255.168 41.5301 255.556 41.6821 255.9C41.8341 256.236 42.0501 256.5 42.3301 256.692C42.6181 256.876 42.9701 256.968 43.3861 256.968C43.8581 256.968 44.2501 256.856 44.5621 256.632C44.8821 256.408 45.0781 256.108 45.1501 255.732H46.5901C46.4941 256.476 46.1581 257.064 45.5821 257.496C45.0141 257.928 44.2821 258.144 43.3861 258.144ZM52.7388 258V253.86C52.7388 253.428 52.6188 253.084 52.3788 252.828C52.1468 252.572 51.8428 252.444 51.4668 252.444C51.0348 252.444 50.6428 252.6 50.2908 252.912C49.9468 253.216 49.6508 253.708 49.4028 254.388L49.1868 252.96C49.4508 252.376 49.8108 251.944 50.2668 251.664C50.7228 251.376 51.2108 251.232 51.7308 251.232C52.2348 251.232 52.6668 251.34 53.0268 251.556C53.3948 251.764 53.6748 252.06 53.8668 252.444C54.0668 252.82 54.1668 253.264 54.1668 253.776V258H52.7388ZM48.1188 258V251.376H49.4868L49.5468 252.768V258H48.1188ZM59.0914 258.144C58.4994 258.144 57.9754 258.044 57.5194 257.844C57.0714 257.636 56.7234 257.344 56.4754 256.968C56.2274 256.592 56.0994 256.148 56.0914 255.636H57.4354C57.4274 256.084 57.5714 256.436 57.8674 256.692C58.1714 256.948 58.5794 257.076 59.0914 257.076C59.4994 257.076 59.8274 257 60.0754 256.848C60.3234 256.696 60.4474 256.488 60.4474 256.224C60.4474 256.016 60.3714 255.848 60.2194 255.72C60.0674 255.592 59.8634 255.492 59.6074 255.42C59.3594 255.348 59.0834 255.284 58.7794 255.228C58.4834 255.164 58.1834 255.092 57.8794 255.012C57.5754 254.924 57.2954 254.812 57.0394 254.676C56.7914 254.532 56.5914 254.344 56.4394 254.112C56.2874 253.88 56.2114 253.584 56.2114 253.224C56.2114 252.832 56.3194 252.488 56.5354 252.192C56.7594 251.888 57.0754 251.652 57.4834 251.484C57.8914 251.316 58.3714 251.232 58.9234 251.232C59.7554 251.232 60.4274 251.428 60.9394 251.82C61.4514 252.204 61.7274 252.736 61.7674 253.416H60.4354C60.4114 253.056 60.2634 252.78 59.9914 252.588C59.7274 252.396 59.3714 252.3 58.9234 252.3C58.5154 252.3 58.1994 252.38 57.9754 252.54C57.7594 252.7 57.6514 252.904 57.6514 253.152C57.6514 253.36 57.7274 253.52 57.8794 253.632C58.0394 253.744 58.2434 253.832 58.4914 253.896C58.7394 253.96 59.0154 254.02 59.3194 254.076C59.6234 254.124 59.9234 254.188 60.2194 254.268C60.5234 254.348 60.7994 254.46 61.0474 254.604C61.3034 254.74 61.5074 254.928 61.6594 255.168C61.8194 255.408 61.8994 255.72 61.8994 256.104C61.8994 256.736 61.6434 257.236 61.1314 257.604C60.6274 257.964 59.9474 258.144 59.0914 258.144ZM66.0561 258V251.376H67.4841V258H66.0561ZM63.7161 258V256.836H69.7281V258H63.7161ZM64.5681 252.54V251.376H66.7641V252.54H64.5681ZM65.9721 250.332V248.868H67.5321V250.332H65.9721ZM74.5328 258.144C73.8368 258.144 73.2368 258.004 72.7328 257.724C72.2368 257.444 71.8528 257.048 71.5808 256.536C71.3168 256.016 71.1848 255.4 71.1848 254.688C71.1848 253.968 71.3168 253.352 71.5808 252.84C71.8528 252.328 72.2368 251.932 72.7328 251.652C73.2368 251.372 73.8368 251.232 74.5328 251.232C75.5728 251.232 76.3888 251.54 76.9808 252.156C77.5728 252.764 77.8688 253.608 77.8688 254.688C77.8688 255.4 77.7328 256.016 77.4608 256.536C77.1968 257.048 76.8128 257.444 76.3088 257.724C75.8128 258.004 75.2208 258.144 74.5328 258.144ZM74.5328 256.968C75.1168 256.968 75.5768 256.764 75.9128 256.356C76.2568 255.948 76.4288 255.392 76.4288 254.688C76.4288 253.976 76.2568 253.42 75.9128 253.02C75.5768 252.612 75.1168 252.408 74.5328 252.408C73.9328 252.408 73.4648 252.612 73.1288 253.02C72.7928 253.42 72.6248 253.976 72.6248 254.688C72.6248 255.392 72.7928 255.948 73.1288 256.356C73.4648 256.764 73.9328 256.968 74.5328 256.968ZM83.9575 258V253.86C83.9575 253.428 83.8375 253.084 83.5975 252.828C83.3655 252.572 83.0615 252.444 82.6855 252.444C82.2535 252.444 81.8615 252.6 81.5095 252.912C81.1655 253.216 80.8695 253.708 80.6215 254.388L80.4055 252.96C80.6695 252.376 81.0295 251.944 81.4855 251.664C81.9415 251.376 82.4295 251.232 82.9495 251.232C83.4535 251.232 83.8855 251.34 84.2455 251.556C84.6135 251.764 84.8935 252.06 85.0855 252.444C85.2855 252.82 85.3855 253.264 85.3855 253.776V258H83.9575ZM79.3375 258V251.376H80.7055L80.7655 252.768V258H79.3375ZM90.3102 258.144C89.7182 258.144 89.1942 258.044 88.7382 257.844C88.2902 257.636 87.9422 257.344 87.6942 256.968C87.4462 256.592 87.3182 256.148 87.3102 255.636H88.6542C88.6462 256.084 88.7902 256.436 89.0862 256.692C89.3902 256.948 89.7982 257.076 90.3102 257.076C90.7182 257.076 91.0462 257 91.2942 256.848C91.5422 256.696 91.6662 256.488 91.6662 256.224C91.6662 256.016 91.5902 255.848 91.4382 255.72C91.2862 255.592 91.0822 255.492 90.8262 255.42C90.5782 255.348 90.3022 255.284 89.9982 255.228C89.7022 255.164 89.4022 255.092 89.0982 255.012C88.7942 254.924 88.5142 254.812 88.2582 254.676C88.0102 254.532 87.8102 254.344 87.6582 254.112C87.5062 253.88 87.4302 253.584 87.4302 253.224C87.4302 252.832 87.5382 252.488 87.7542 252.192C87.9782 251.888 88.2942 251.652 88.7022 251.484C89.1102 251.316 89.5902 251.232 90.1422 251.232C90.9742 251.232 91.6462 251.428 92.1582 251.82C92.6702 252.204 92.9462 252.736 92.9862 253.416H91.6542C91.6302 253.056 91.4822 252.78 91.2102 252.588C90.9462 252.396 90.5902 252.3 90.1422 252.3C89.7342 252.3 89.4182 252.38 89.1942 252.54C88.9782 252.7 88.8702 252.904 88.8702 253.152C88.8702 253.36 88.9462 253.52 89.0982 253.632C89.2582 253.744 89.4622 253.832 89.7102 253.896C89.9582 253.96 90.2342 254.02 90.5382 254.076C90.8422 254.124 91.1422 254.188 91.4382 254.268C91.7422 254.348 92.0182 254.46 92.2662 254.604C92.5222 254.74 92.7262 254.928 92.8782 255.168C93.0382 255.408 93.1182 255.72 93.1182 256.104C93.1182 256.736 92.8622 257.236 92.3502 257.604C91.8462 257.964 91.1662 258.144 90.3102 258.144Z" fill="var(--colors-neutral-neutral-800)"/>
<path d="M280 256.702L274.692 251.394L275.4 250.687L280 255.287L284.6 250.687L285.308 251.394L280 256.702Z" fill="var(--colors-neutral-neutral-800)"/>
<path d="M304 325.5H0V326.5H304V325.5Z" fill="var(--colors-neutral-neutral-400)"/>
<path d="M19.144 306V297.624H20.644V306H19.144ZM17.104 297.624H22.684V298.884H17.104V297.624ZM17.104 304.74H22.684V306H17.104V304.74ZM29.3247 306V301.86C29.3247 301.428 29.2047 301.084 28.9647 300.828C28.7327 300.572 28.4287 300.444 28.0527 300.444C27.6207 300.444 27.2287 300.6 26.8767 300.912C26.5327 301.216 26.2367 301.708 25.9887 302.388L25.7727 300.96C26.0367 300.376 26.3967 299.944 26.8527 299.664C27.3087 299.376 27.7967 299.232 28.3167 299.232C28.8207 299.232 29.2527 299.34 29.6127 299.556C29.9807 299.764 30.2607 300.06 30.4527 300.444C30.6527 300.82 30.7527 301.264 30.7527 301.776V306H29.3247ZM24.7047 306V299.376H26.0727L26.1327 300.768V306H24.7047ZM36.0494 306C35.6254 306 35.2614 305.912 34.9574 305.736C34.6534 305.56 34.4214 305.312 34.2614 304.992C34.1014 304.664 34.0214 304.284 34.0214 303.852V298.176L35.4614 297.456V303.852C35.4614 304.052 35.4894 304.228 35.5454 304.38C35.6014 304.532 35.7094 304.648 35.8694 304.728C36.0374 304.8 36.2774 304.836 36.5894 304.836H38.4734V306H36.0494ZM32.5454 300.54V299.376H37.3814V300.54H32.5454ZM44.8981 306L44.8381 304.596V301.62C44.8381 301.204 44.6981 300.876 44.4181 300.636C44.1381 300.396 43.7501 300.276 43.2541 300.276C42.7821 300.276 42.3941 300.384 42.0901 300.6C41.7941 300.816 41.6261 301.112 41.5861 301.488H40.1941C40.2341 301.016 40.3861 300.612 40.6501 300.276C40.9221 299.94 41.2821 299.684 41.7301 299.508C42.1861 299.324 42.7101 299.232 43.3021 299.232C43.9101 299.232 44.4341 299.328 44.8741 299.52C45.3221 299.712 45.6661 299.992 45.9061 300.36C46.1461 300.728 46.2661 301.176 46.2661 301.704V306H44.8981ZM42.5941 306.144C42.1621 306.144 41.7781 306.064 41.4421 305.904C41.1141 305.744 40.8581 305.516 40.6741 305.22C40.4901 304.924 40.3981 304.58 40.3981 304.188C40.3981 303.508 40.6621 302.98 41.1901 302.604C41.7181 302.22 42.4501 302.028 43.3861 302.028H45.0061V303.06L43.3381 303.072C42.8581 303.072 42.4821 303.164 42.2101 303.348C41.9381 303.524 41.8021 303.78 41.8021 304.116C41.8021 304.38 41.8981 304.592 42.0901 304.752C42.2901 304.912 42.5621 304.992 42.9061 304.992C43.3461 304.992 43.7381 304.876 44.0821 304.644C44.4341 304.404 44.7181 304.076 44.9341 303.66L45.0901 304.668C44.8821 305.156 44.5661 305.524 44.1421 305.772C43.7181 306.02 43.2021 306.144 42.5941 306.144ZM47.9268 306V297.156H49.3668V300.312L49.2828 302.196L50.5548 300.816L52.1028 299.376H53.9748L49.3668 303.696V306H47.9268ZM52.4268 306L50.1828 302.028L51.4668 301.452L54.0948 306H52.4268ZM58.9954 306.144C58.2994 306.144 57.6994 306.008 57.1954 305.736C56.6914 305.456 56.3034 305.056 56.0314 304.536C55.7674 304.016 55.6354 303.396 55.6354 302.676C55.6354 301.956 55.7714 301.34 56.0434 300.828C56.3154 300.308 56.7074 299.912 57.2194 299.64C57.7314 299.368 58.3434 299.232 59.0554 299.232C60.1594 299.232 60.9714 299.54 61.4914 300.156C62.0194 300.772 62.2474 301.616 62.1754 302.688H56.7754L56.7874 301.644L60.7114 301.656C60.6794 301.272 60.5114 300.964 60.2074 300.732C59.9034 300.5 59.5194 300.384 59.0554 300.384C58.3994 300.384 57.9034 300.588 57.5674 300.996C57.2314 301.404 57.0634 301.984 57.0634 302.736C57.0634 303.168 57.1394 303.556 57.2914 303.9C57.4434 304.236 57.6594 304.5 57.9394 304.692C58.2274 304.876 58.5794 304.968 58.9954 304.968C59.4674 304.968 59.8594 304.856 60.1714 304.632C60.4914 304.408 60.6874 304.108 60.7594 303.732H62.1994C62.1034 304.476 61.7674 305.064 61.1914 305.496C60.6234 305.928 59.8914 306.144 58.9954 306.144ZM76.1168 306L76.0568 304.596V301.62C76.0568 301.204 75.9168 300.876 75.6368 300.636C75.3568 300.396 74.9688 300.276 74.4728 300.276C74.0008 300.276 73.6128 300.384 73.3088 300.6C73.0128 300.816 72.8448 301.112 72.8048 301.488H71.4128C71.4528 301.016 71.6048 300.612 71.8688 300.276C72.1408 299.94 72.5008 299.684 72.9488 299.508C73.4048 299.324 73.9288 299.232 74.5208 299.232C75.1288 299.232 75.6528 299.328 76.0928 299.52C76.5408 299.712 76.8848 299.992 77.1248 300.36C77.3648 300.728 77.4848 301.176 77.4848 301.704V306H76.1168ZM73.8128 306.144C73.3808 306.144 72.9968 306.064 72.6608 305.904C72.3328 305.744 72.0768 305.516 71.8928 305.22C71.7088 304.924 71.6168 304.58 71.6168 304.188C71.6168 303.508 71.8808 302.98 72.4088 302.604C72.9368 302.22 73.6688 302.028 74.6048 302.028H76.2248V303.06L74.5568 303.072C74.0768 303.072 73.7008 303.164 73.4288 303.348C73.1568 303.524 73.0208 303.78 73.0208 304.116C73.0208 304.38 73.1168 304.592 73.3088 304.752C73.5088 304.912 73.7808 304.992 74.1248 304.992C74.5648 304.992 74.9568 304.876 75.3008 304.644C75.6528 304.404 75.9368 304.076 76.1528 303.66L76.3088 304.668C76.1008 305.156 75.7848 305.524 75.3608 305.772C74.9368 306.02 74.4208 306.144 73.8128 306.144ZM84.0175 302.376V301.548C84.0175 301.22 83.9175 300.956 83.7175 300.756C83.5255 300.548 83.2455 300.444 82.8775 300.444C82.4295 300.444 82.0215 300.608 81.6535 300.936C81.2855 301.264 80.9775 301.78 80.7295 302.484L80.5495 301.14C80.7335 300.724 80.9495 300.376 81.1975 300.096C81.4535 299.808 81.7415 299.592 82.0615 299.448C82.3895 299.304 82.7455 299.232 83.1295 299.232C83.8095 299.232 84.3655 299.432 84.7975 299.832C85.2295 300.232 85.4455 300.804 85.4455 301.548V302.376H84.0175ZM79.5535 306V299.376H80.9095L80.9815 300.78V306H79.5535ZM90.2142 306.144C89.5182 306.144 88.9182 306.008 88.4142 305.736C87.9102 305.456 87.5222 305.056 87.2502 304.536C86.9862 304.016 86.8542 303.396 86.8542 302.676C86.8542 301.956 86.9902 301.34 87.2622 300.828C87.5342 300.308 87.9262 299.912 88.4382 299.64C88.9502 299.368 89.5622 299.232 90.2742 299.232C91.3782 299.232 92.1902 299.54 92.7102 300.156C93.2382 300.772 93.4662 301.616 93.3942 302.688H87.9942L88.0062 301.644L91.9302 301.656C91.8982 301.272 91.7302 300.964 91.4262 300.732C91.1222 300.5 90.7382 300.384 90.2742 300.384C89.6182 300.384 89.1222 300.588 88.7862 300.996C88.4502 301.404 88.2822 301.984 88.2822 302.736C88.2822 303.168 88.3582 303.556 88.5102 303.9C88.6622 304.236 88.8782 304.5 89.1582 304.692C89.4462 304.876 89.7982 304.968 90.2142 304.968C90.6862 304.968 91.0782 304.856 91.3902 304.632C91.7102 304.408 91.9062 304.108 91.9782 303.732H93.4182C93.3222 304.476 92.9862 305.064 92.4102 305.496C91.8422 305.928 91.1102 306.144 90.2142 306.144ZM99.5309 306L99.4709 304.596V301.62C99.4709 301.204 99.3309 300.876 99.0509 300.636C98.7709 300.396 98.3829 300.276 97.8869 300.276C97.4149 300.276 97.0269 300.384 96.7229 300.6C96.4269 300.816 96.2589 301.112 96.2189 301.488H94.8269C94.8669 301.016 95.0189 300.612 95.2829 300.276C95.5549 299.94 95.9149 299.684 96.3629 299.508C96.8189 299.324 97.3429 299.232 97.9349 299.232C98.5429 299.232 99.0669 299.328 99.5069 299.52C99.9549 299.712 100.299 299.992 100.539 300.36C100.779 300.728 100.899 301.176 100.899 301.704V306H99.5309ZM97.2269 306.144C96.7949 306.144 96.4109 306.064 96.0749 305.904C95.7469 305.744 95.4909 305.516 95.3069 305.22C95.1229 304.924 95.0309 304.58 95.0309 304.188C95.0309 303.508 95.2949 302.98 95.8229 302.604C96.3509 302.22 97.0829 302.028 98.0189 302.028H99.6389V303.06L97.9709 303.072C97.4909 303.072 97.1149 303.164 96.8429 303.348C96.5709 303.524 96.4349 303.78 96.4349 304.116C96.4349 304.38 96.5309 304.592 96.7229 304.752C96.9229 304.912 97.1949 304.992 97.5389 304.992C97.9789 304.992 98.3709 304.876 98.7149 304.644C99.0669 304.404 99.3509 304.076 99.5669 303.66L99.7229 304.668C99.5149 305.156 99.1989 305.524 98.7749 305.772C98.3509 306.02 97.8349 306.144 97.2269 306.144Z" fill="var(--colors-neutral-neutral-800)"/>
<path d="M280 304.702L274.692 299.394L275.4 298.687L280 303.287L284.6 298.687L285.308 299.394L280 304.702Z" fill="var(--colors-neutral-neutral-800)"/>
<path d="M304 373.5H0V374.5H304V373.5Z" fill="var(--colors-neutral-neutral-400)"/>
<path d="M16.864 354V345.624H23.02V346.884H18.376V349.032H21.532V350.292H18.376V354H16.864ZM26.9847 354V345.156H28.4247V354H26.9847ZM24.6447 354V352.836H30.7887V354H24.6447ZM25.5087 346.32V345.156H27.7047V346.32H25.5087ZM35.5094 354.144C34.8134 354.144 34.2134 354.004 33.7094 353.724C33.2134 353.444 32.8294 353.048 32.5574 352.536C32.2934 352.016 32.1614 351.4 32.1614 350.688C32.1614 349.968 32.2934 349.352 32.5574 348.84C32.8294 348.328 33.2134 347.932 33.7094 347.652C34.2134 347.372 34.8134 347.232 35.5094 347.232C36.5494 347.232 37.3654 347.54 37.9574 348.156C38.5494 348.764 38.8454 349.608 38.8454 350.688C38.8454 351.4 38.7094 352.016 38.4374 352.536C38.1734 353.048 37.7894 353.444 37.2854 353.724C36.7894 354.004 36.1974 354.144 35.5094 354.144ZM35.5094 352.968C36.0934 352.968 36.5534 352.764 36.8894 352.356C37.2334 351.948 37.4054 351.392 37.4054 350.688C37.4054 349.976 37.2334 349.42 36.8894 349.02C36.5534 348.612 36.0934 348.408 35.5094 348.408C34.9094 348.408 34.4414 348.612 34.1054 349.02C33.7694 349.42 33.6014 349.976 33.6014 350.688C33.6014 351.392 33.7694 351.948 34.1054 352.356C34.4414 352.764 34.9094 352.968 35.5094 352.968ZM40.6741 354L39.6421 347.352H40.9741L41.4781 350.976L41.6821 352.512L41.9581 350.976L42.6901 347.352H43.9741L44.7421 350.976L45.0301 352.536L45.2221 350.976L45.7261 347.352H46.9981L45.9781 354H44.3101L43.5421 350.532L43.3261 348.72L43.0981 350.532L42.3421 354H40.6741ZM51.2868 354.144C50.6948 354.144 50.1708 354.044 49.7148 353.844C49.2668 353.636 48.9188 353.344 48.6708 352.968C48.4228 352.592 48.2948 352.148 48.2868 351.636H49.6308C49.6228 352.084 49.7668 352.436 50.0628 352.692C50.3668 352.948 50.7748 353.076 51.2868 353.076C51.6948 353.076 52.0228 353 52.2708 352.848C52.5188 352.696 52.6428 352.488 52.6428 352.224C52.6428 352.016 52.5668 351.848 52.4148 351.72C52.2628 351.592 52.0588 351.492 51.8028 351.42C51.5548 351.348 51.2788 351.284 50.9748 351.228C50.6788 351.164 50.3788 351.092 50.0748 351.012C49.7708 350.924 49.4908 350.812 49.2348 350.676C48.9868 350.532 48.7868 350.344 48.6348 350.112C48.4828 349.88 48.4068 349.584 48.4068 349.224C48.4068 348.832 48.5148 348.488 48.7308 348.192C48.9548 347.888 49.2708 347.652 49.6788 347.484C50.0868 347.316 50.5668 347.232 51.1188 347.232C51.9508 347.232 52.6228 347.428 53.1348 347.82C53.6468 348.204 53.9228 348.736 53.9628 349.416H52.6308C52.6068 349.056 52.4588 348.78 52.1868 348.588C51.9228 348.396 51.5668 348.3 51.1188 348.3C50.7108 348.3 50.3948 348.38 50.1708 348.54C49.9548 348.7 49.8468 348.904 49.8468 349.152C49.8468 349.36 49.9228 349.52 50.0748 349.632C50.2348 349.744 50.4388 349.832 50.6868 349.896C50.9348 349.96 51.2108 350.02 51.5148 350.076C51.8188 350.124 52.1188 350.188 52.4148 350.268C52.7188 350.348 52.9948 350.46 53.2428 350.604C53.4988 350.74 53.7028 350.928 53.8548 351.168C54.0148 351.408 54.0948 351.72 54.0948 352.104C54.0948 352.736 53.8388 353.236 53.3268 353.604C52.8228 353.964 52.1428 354.144 51.2868 354.144Z" fill="var(--colors-neutral-neutral-800)"/>
<rect x="64" y="342" width="16" height="16" rx="8" fill="var(--colors-neutral-neutral-300)"/>
<path d="M69.518 353.5V352.74C70.438 352.053 71.178 351.457 71.738 350.95C72.298 350.437 72.7047 349.983 72.958 349.59C73.2114 349.19 73.338 348.827 73.338 348.5C73.338 348.14 73.2247 347.85 72.998 347.63C72.778 347.41 72.468 347.3 72.068 347.3C71.648 347.3 71.3014 347.43 71.028 347.69C70.7547 347.943 70.608 348.303 70.588 348.77H69.518C69.5514 348.27 69.678 347.843 69.898 347.49C70.1247 347.13 70.4247 346.86 70.798 346.68C71.178 346.493 71.608 346.4 72.088 346.4C72.568 346.4 72.9847 346.487 73.338 346.66C73.6914 346.827 73.9614 347.067 74.148 347.38C74.3414 347.687 74.438 348.043 74.438 348.45C74.438 348.89 74.3247 349.323 74.098 349.75C73.878 350.17 73.5214 350.613 73.028 351.08C72.5414 351.54 71.8947 352.047 71.088 352.6H74.458V353.5H69.518Z" fill="var(--colors-neutral-neutral-800)"/>
<path d="M241.615 359C241.155 359 240.771 358.846 240.463 358.538C240.154 358.229 240 357.845 240 357.385V344.615C240 344.155 240.154 343.771 240.463 343.463C240.771 343.154 241.155 343 241.615 343H243.385V340.769H244.462V343H251.615V340.769H252.615V343H254.385C254.845 343 255.229 343.154 255.538 343.463C255.846 343.771 256 344.155 256 344.615V357.385C256 357.845 255.846 358.229 255.538 358.538C255.229 358.846 254.845 359 254.385 359H241.615ZM241.615 358H254.385C254.538 358 254.679 357.936 254.808 357.808C254.936 357.679 255 357.538 255 357.385V348.615H241V357.385C241 357.538 241.064 357.679 241.192 357.808C241.321 357.936 241.462 358 241.615 358ZM241 347.615H255V344.615C255 344.462 254.936 344.321 254.808 344.192C254.679 344.064 254.538 344 254.385 344H241.615C241.462 344 241.321 344.064 241.192 344.192C241.064 344.321 241 344.462 241 344.615V347.615ZM243.5 351.5V350.5H252.5V351.5H243.5ZM243.5 355.5V354.5H249.5V355.5H243.5Z" fill="var(--colors-neutral-neutral-800)"/>
<path d="M280 352.702L274.692 347.394L275.4 346.687L280 351.287L284.6 346.687L285.308 347.394L280 352.702Z" fill="var(--colors-neutral-neutral-800)"/>
<path d="M304 421.5H0V422.5H304V421.5Z" fill="var(--colors-neutral-neutral-400)"/>
<path d="M17.212 402V393.624H18.724V400.74H22.996V402H17.212ZM29.2887 402L29.2287 400.596V397.62C29.2287 397.204 29.0887 396.876 28.8087 396.636C28.5287 396.396 28.1407 396.276 27.6447 396.276C27.1727 396.276 26.7847 396.384 26.4807 396.6C26.1847 396.816 26.0167 397.112 25.9767 397.488H24.5847C24.6247 397.016 24.7767 396.612 25.0407 396.276C25.3127 395.94 25.6727 395.684 26.1207 395.508C26.5767 395.324 27.1007 395.232 27.6927 395.232C28.3007 395.232 28.8247 395.328 29.2647 395.52C29.7127 395.712 30.0567 395.992 30.2967 396.36C30.5367 396.728 30.6567 397.176 30.6567 397.704V402H29.2887ZM26.9847 402.144C26.5527 402.144 26.1687 402.064 25.8327 401.904C25.5047 401.744 25.2487 401.516 25.0647 401.22C24.8807 400.924 24.7887 400.58 24.7887 400.188C24.7887 399.508 25.0527 398.98 25.5807 398.604C26.1087 398.22 26.8407 398.028 27.7767 398.028H29.3967V399.06L27.7287 399.072C27.2487 399.072 26.8727 399.164 26.6007 399.348C26.3287 399.524 26.1927 399.78 26.1927 400.116C26.1927 400.38 26.2887 400.592 26.4807 400.752C26.6807 400.912 26.9527 400.992 27.2967 400.992C27.7367 400.992 28.1287 400.876 28.4727 400.644C28.8247 400.404 29.1087 400.076 29.3247 399.66L29.4807 400.668C29.2727 401.156 28.9567 401.524 28.5327 401.772C28.1087 402.02 27.5927 402.144 26.9847 402.144ZM34.8974 398.328L35.5094 399.996L36.1334 398.316L37.3814 395.376H38.8454L35.8214 402.516C35.6374 402.964 35.4294 403.316 35.1974 403.572C34.9734 403.828 34.7174 404.008 34.4294 404.112C34.1414 404.224 33.8094 404.28 33.4334 404.28H32.2454V403.116H33.3134C33.5294 403.116 33.7094 403.068 33.8534 402.972C34.0054 402.884 34.1414 402.748 34.2614 402.564C34.3814 402.388 34.4974 402.168 34.6094 401.904L34.7774 401.52L32.1734 395.376H33.6614L34.8974 398.328ZM43.3861 402.144C42.6901 402.144 42.0901 402.008 41.5861 401.736C41.0821 401.456 40.6941 401.056 40.4221 400.536C40.1581 400.016 40.0261 399.396 40.0261 398.676C40.0261 397.956 40.1621 397.34 40.4341 396.828C40.7061 396.308 41.0981 395.912 41.6101 395.64C42.1221 395.368 42.7341 395.232 43.4461 395.232C44.5501 395.232 45.3621 395.54 45.8821 396.156C46.4101 396.772 46.6381 397.616 46.5661 398.688H41.1661L41.1781 397.644L45.1021 397.656C45.0701 397.272 44.9021 396.964 44.5981 396.732C44.2941 396.5 43.9101 396.384 43.4461 396.384C42.7901 396.384 42.2941 396.588 41.9581 396.996C41.6221 397.404 41.4541 397.984 41.4541 398.736C41.4541 399.168 41.5301 399.556 41.6821 399.9C41.8341 400.236 42.0501 400.5 42.3301 400.692C42.6181 400.876 42.9701 400.968 43.3861 400.968C43.8581 400.968 44.2501 400.856 44.5621 400.632C44.8821 400.408 45.0781 400.108 45.1501 399.732H46.5901C46.4941 400.476 46.1581 401.064 45.5821 401.496C45.0141 401.928 44.2821 402.144 43.3861 402.144ZM52.7988 398.376V397.548C52.7988 397.22 52.6988 396.956 52.4988 396.756C52.3068 396.548 52.0268 396.444 51.6588 396.444C51.2108 396.444 50.8028 396.608 50.4348 396.936C50.0668 397.264 49.7588 397.78 49.5108 398.484L49.3308 397.14C49.5148 396.724 49.7308 396.376 49.9788 396.096C50.2348 395.808 50.5228 395.592 50.8428 395.448C51.1708 395.304 51.5268 395.232 51.9108 395.232C52.5908 395.232 53.1468 395.432 53.5788 395.832C54.0108 396.232 54.2268 396.804 54.2268 397.548V398.376H52.7988ZM48.3348 402V395.376H49.6908L49.7628 396.78V402H48.3348ZM59.0914 402.144C58.4994 402.144 57.9754 402.044 57.5194 401.844C57.0714 401.636 56.7234 401.344 56.4754 400.968C56.2274 400.592 56.0994 400.148 56.0914 399.636H57.4354C57.4274 400.084 57.5714 400.436 57.8674 400.692C58.1714 400.948 58.5794 401.076 59.0914 401.076C59.4994 401.076 59.8274 401 60.0754 400.848C60.3234 400.696 60.4474 400.488 60.4474 400.224C60.4474 400.016 60.3714 399.848 60.2194 399.72C60.0674 399.592 59.8634 399.492 59.6074 399.42C59.3594 399.348 59.0834 399.284 58.7794 399.228C58.4834 399.164 58.1834 399.092 57.8794 399.012C57.5754 398.924 57.2954 398.812 57.0394 398.676C56.7914 398.532 56.5914 398.344 56.4394 398.112C56.2874 397.88 56.2114 397.584 56.2114 397.224C56.2114 396.832 56.3194 396.488 56.5354 396.192C56.7594 395.888 57.0754 395.652 57.4834 395.484C57.8914 395.316 58.3714 395.232 58.9234 395.232C59.7554 395.232 60.4274 395.428 60.9394 395.82C61.4514 396.204 61.7274 396.736 61.7674 397.416H60.4354C60.4114 397.056 60.2634 396.78 59.9914 396.588C59.7274 396.396 59.3714 396.3 58.9234 396.3C58.5154 396.3 58.1994 396.38 57.9754 396.54C57.7594 396.7 57.6514 396.904 57.6514 397.152C57.6514 397.36 57.7274 397.52 57.8794 397.632C58.0394 397.744 58.2434 397.832 58.4914 397.896C58.7394 397.96 59.0154 398.02 59.3194 398.076C59.6234 398.124 59.9234 398.188 60.2194 398.268C60.5234 398.348 60.7994 398.46 61.0474 398.604C61.3034 398.74 61.5074 398.928 61.6594 399.168C61.8194 399.408 61.8994 399.72 61.8994 400.104C61.8994 400.736 61.6434 401.236 61.1314 401.604C60.6274 401.964 59.9474 402.144 59.0914 402.144Z" fill="var(--colors-neutral-neutral-800)"/>
<path d="M280 400.702L274.692 395.394L275.4 394.687L280 399.287L284.6 394.687L285.308 395.394L280 400.702Z" fill="var(--colors-neutral-neutral-800)"/>
</svg>
