<svg width="304" height="32" viewBox="0 0 304 32" fill="none" xmlns="http://www.w3.org/2000/svg">
<rect width="304" height="32" fill="var(--colors-neutral-neutral-300)"/>
<path d="M22.5182 15.0088L19.9996 17.5264L17.4821 15.0088H22.5182Z" fill="var(--colors-neutral-neutral-700)" stroke="var(--colors-neutral-neutral-700)" stroke-width="0.0166667"/>
<path d="M32.8807 19.5V12.2273H33.7614V18.7188H37.142V19.5H32.8807ZM39.9972 19.6278C39.6515 19.6278 39.3378 19.5627 39.0561 19.4325C38.7744 19.3 38.5507 19.1094 38.3849 18.8608C38.2192 18.6098 38.1364 18.3068 38.1364 17.9517C38.1364 17.6392 38.1979 17.3859 38.321 17.1918C38.4441 16.9953 38.6087 16.8414 38.8146 16.7301C39.0206 16.6188 39.2479 16.536 39.4964 16.4815C39.7474 16.4247 39.9995 16.3797 40.2528 16.3466C40.5843 16.304 40.853 16.272 41.0589 16.2507C41.2673 16.227 41.4188 16.188 41.5135 16.1335C41.6106 16.0791 41.6591 15.9844 41.6591 15.8494V15.821C41.6591 15.4706 41.5632 15.1984 41.3714 15.0043C41.1821 14.8101 40.8944 14.7131 40.5085 14.7131C40.1084 14.7131 39.7947 14.8007 39.5675 14.9759C39.3402 15.151 39.1804 15.3381 39.0881 15.5369L38.2926 15.2528C38.4347 14.9214 38.6241 14.6634 38.8608 14.4787C39.0999 14.2917 39.3603 14.1615 39.642 14.0881C39.9261 14.0123 40.2055 13.9744 40.4801 13.9744C40.6553 13.9744 40.8565 13.9957 41.0838 14.0384C41.3134 14.0786 41.5348 14.1626 41.7479 14.2905C41.9633 14.4183 42.142 14.6113 42.2841 14.8693C42.4261 15.1274 42.4972 15.473 42.4972 15.9062V19.5H41.6591V18.7614H41.6165C41.5597 18.8797 41.465 19.0064 41.3324 19.1413C41.1998 19.2763 41.0234 19.3911 40.8033 19.4858C40.5831 19.5805 40.3144 19.6278 39.9972 19.6278ZM40.125 18.875C40.4564 18.875 40.7358 18.8099 40.9631 18.6797C41.1927 18.5495 41.3655 18.3814 41.4815 18.1754C41.5999 17.9695 41.6591 17.7528 41.6591 17.5256V16.7585C41.6236 16.8011 41.5455 16.8402 41.4247 16.8757C41.3063 16.9089 41.169 16.9384 41.0128 16.9645C40.8589 16.9882 40.7086 17.0095 40.5618 17.0284C40.4174 17.045 40.3002 17.0592 40.2102 17.071C39.9924 17.0994 39.7888 17.1456 39.5994 17.2095C39.4124 17.2711 39.2609 17.3646 39.1449 17.4901C39.0313 17.6132 38.9744 17.7812 38.9744 17.9943C38.9744 18.2855 39.0821 18.5057 39.2976 18.6548C39.5154 18.8016 39.7912 18.875 40.125 18.875ZM44.1404 19.5V12.2273H44.9785V14.9119H45.0495C45.1111 14.8172 45.1963 14.6965 45.3052 14.5497C45.4165 14.4006 45.5751 14.268 45.7811 14.152C45.9894 14.0336 46.2711 13.9744 46.6262 13.9744C47.0855 13.9744 47.4904 14.0893 47.8407 14.3189C48.1911 14.5485 48.4645 14.8741 48.661 15.2955C48.8575 15.7169 48.9558 16.214 48.9558 16.7869C48.9558 17.3646 48.8575 17.8653 48.661 18.2891C48.4645 18.7105 48.1923 19.0372 47.8443 19.2692C47.4963 19.4988 47.095 19.6136 46.6404 19.6136C46.2901 19.6136 46.0095 19.5556 45.7988 19.4396C45.5881 19.3213 45.426 19.1875 45.3123 19.0384C45.1987 18.8868 45.1111 18.7614 45.0495 18.6619H44.9501V19.5H44.1404ZM44.9643 16.7727C44.9643 17.1847 45.0247 17.5481 45.1454 17.8629C45.2662 18.1754 45.4425 18.4205 45.6745 18.598C45.9065 18.7732 46.1906 18.8608 46.5268 18.8608C46.8772 18.8608 47.1696 18.7685 47.4039 18.5838C47.6407 18.3968 47.8182 18.1458 47.9366 17.831C48.0574 17.5137 48.1177 17.161 48.1177 16.7727C48.1177 16.3892 48.0585 16.0436 47.9402 15.7358C47.8242 15.4257 47.6478 15.1806 47.411 15.0007C47.1767 14.8184 46.8819 14.7273 46.5268 14.7273C46.1859 14.7273 45.8994 14.8137 45.6674 14.9865C45.4354 15.157 45.2602 15.3961 45.1419 15.7038C45.0235 16.0092 44.9643 16.3655 44.9643 16.7727ZM52.5247 19.6136C51.9991 19.6136 51.5458 19.4976 51.1646 19.2656C50.7858 19.0312 50.4934 18.7045 50.2875 18.2855C50.0839 17.8641 49.9821 17.3741 49.9821 16.8153C49.9821 16.2566 50.0839 15.7642 50.2875 15.3381C50.4934 14.9096 50.7799 14.5758 51.1468 14.3366C51.5162 14.0952 51.947 13.9744 52.4395 13.9744C52.7235 13.9744 53.0041 14.0218 53.2811 14.1165C53.5581 14.2112 53.8102 14.3651 54.0375 14.5781C54.2647 14.7888 54.4458 15.0682 54.5808 15.4162C54.7157 15.7642 54.7832 16.1927 54.7832 16.7017V17.0568H50.5787V16.3324H53.9309C53.9309 16.0246 53.8694 15.75 53.7463 15.5085C53.6255 15.267 53.4527 15.0765 53.2278 14.9368C53.0053 14.7971 52.7425 14.7273 52.4395 14.7273C52.1056 14.7273 51.8168 14.8101 51.573 14.9759C51.3315 15.1392 51.1457 15.3523 51.0154 15.6151C50.8852 15.8778 50.8201 16.1596 50.8201 16.4602V16.9432C50.8201 17.3551 50.8912 17.7043 51.0332 17.9908C51.1776 18.2749 51.3777 18.4915 51.6333 18.6406C51.889 18.7874 52.1861 18.8608 52.5247 18.8608C52.7449 18.8608 52.9437 18.83 53.1213 18.7685C53.3012 18.7045 53.4563 18.6098 53.5865 18.4844C53.7167 18.3565 53.8173 18.1979 53.8883 18.0085L54.698 18.2358C54.6127 18.5104 54.4695 18.7519 54.2683 18.9602C54.0671 19.1662 53.8185 19.3272 53.5225 19.4432C53.2266 19.5568 52.894 19.6136 52.5247 19.6136ZM56.8961 12.2273V19.5H56.0581V12.2273H56.8961Z" fill="var(--colors-neutral-neutral-800)"/>
<path d="M212.17 20V15.69L212.22 14.27L211.09 15.19L209.84 16.19V14.94L212.46 13.02H213.23V20H212.17ZM209.84 20V19.1H214.78V20H209.84ZM218.754 20.12C218.187 20.12 217.704 19.9733 217.304 19.68C216.904 19.38 216.597 18.96 216.384 18.42C216.171 17.8733 216.064 17.2367 216.064 16.51C216.064 15.77 216.171 15.13 216.384 14.59C216.597 14.05 216.904 13.6333 217.304 13.34C217.704 13.0467 218.187 12.9 218.754 12.9C219.327 12.9 219.811 13.0467 220.204 13.34C220.604 13.6333 220.911 14.05 221.124 14.59C221.337 15.1233 221.444 15.7633 221.444 16.51C221.444 17.2433 221.337 17.88 221.124 18.42C220.911 18.96 220.604 19.38 220.204 19.68C219.811 19.9733 219.327 20.12 218.754 20.12ZM218.754 19.22C219.281 19.22 219.677 18.9833 219.944 18.51C220.211 18.03 220.344 17.3633 220.344 16.51C220.344 15.6433 220.211 14.9767 219.944 14.51C219.677 14.0367 219.281 13.8 218.754 13.8C218.234 13.8 217.841 14.0367 217.574 14.51C217.307 14.9767 217.174 15.6433 217.174 16.51C217.174 17.3633 217.307 18.03 217.574 18.51C217.841 18.9833 218.234 19.22 218.754 19.22ZM225.258 20.12C224.691 20.12 224.208 19.9733 223.808 19.68C223.408 19.38 223.101 18.96 222.888 18.42C222.674 17.8733 222.568 17.2367 222.568 16.51C222.568 15.77 222.674 15.13 222.888 14.59C223.101 14.05 223.408 13.6333 223.808 13.34C224.208 13.0467 224.691 12.9 225.258 12.9C225.831 12.9 226.314 13.0467 226.708 13.34C227.108 13.6333 227.414 14.05 227.628 14.59C227.841 15.1233 227.948 15.7633 227.948 16.51C227.948 17.2433 227.841 17.88 227.628 18.42C227.414 18.96 227.108 19.38 226.708 19.68C226.314 19.9733 225.831 20.12 225.258 20.12ZM225.258 19.22C225.784 19.22 226.181 18.9833 226.448 18.51C226.714 18.03 226.848 17.3633 226.848 16.51C226.848 15.6433 226.714 14.9767 226.448 14.51C226.181 14.0367 225.784 13.8 225.258 13.8C224.738 13.8 224.344 14.0367 224.078 14.51C223.811 14.9767 223.678 15.6433 223.678 16.51C223.678 17.3633 223.811 18.03 224.078 18.51C224.344 18.9833 224.738 19.22 225.258 19.22ZM229.122 20L233.542 13.02H234.402L229.992 20H229.122ZM233.262 20.12C232.975 20.12 232.722 20.0533 232.502 19.92C232.282 19.78 232.108 19.5867 231.982 19.34C231.862 19.0933 231.802 18.8033 231.802 18.47C231.802 18.1367 231.862 17.85 231.982 17.61C232.108 17.3633 232.282 17.1733 232.502 17.04C232.722 16.9 232.975 16.83 233.262 16.83C233.562 16.83 233.822 16.9 234.042 17.04C234.262 17.1733 234.432 17.3633 234.552 17.61C234.678 17.85 234.742 18.1367 234.742 18.47C234.742 18.8033 234.678 19.0933 234.552 19.34C234.432 19.5867 234.262 19.78 234.042 19.92C233.822 20.0533 233.562 20.12 233.262 20.12ZM233.272 19.44C233.478 19.44 233.645 19.3533 233.772 19.18C233.905 19 233.972 18.7633 233.972 18.47C233.972 18.1833 233.905 17.9533 233.772 17.78C233.645 17.6 233.478 17.51 233.272 17.51C233.065 17.51 232.895 17.6 232.762 17.78C232.635 17.9533 232.572 18.1833 232.572 18.47C232.572 18.7633 232.635 19 232.762 19.18C232.895 19.3533 233.065 19.44 233.272 19.44ZM230.252 16.17C229.958 16.17 229.702 16.1033 229.482 15.97C229.262 15.83 229.092 15.6367 228.972 15.39C228.852 15.1433 228.792 14.8533 228.792 14.52C228.792 14.1867 228.852 13.9 228.972 13.66C229.092 13.4133 229.262 13.2233 229.482 13.09C229.702 12.95 229.958 12.88 230.252 12.88C230.552 12.88 230.812 12.95 231.032 13.09C231.252 13.2233 231.422 13.4133 231.542 13.66C231.662 13.9 231.722 14.1867 231.722 14.52C231.722 14.8533 231.662 15.1433 231.542 15.39C231.422 15.6367 231.252 15.83 231.032 15.97C230.812 16.1033 230.552 16.17 230.252 16.17ZM230.252 15.49C230.465 15.49 230.635 15.4033 230.762 15.23C230.895 15.05 230.962 14.8133 230.962 14.52C230.962 14.2333 230.895 14.0033 230.762 13.83C230.635 13.65 230.465 13.56 230.252 13.56C230.045 13.56 229.878 13.65 229.752 13.83C229.625 14.0033 229.562 14.2333 229.562 14.52C229.562 14.8133 229.625 15.05 229.752 15.23C229.878 15.4033 230.045 15.49 230.252 15.49Z" fill="var(--colors-neutral-neutral-800)"/>
<path d="M256.41 14H262V12.6667C262 12.1111 261.806 11.6389 261.417 11.25C261.028 10.8611 260.556 10.6667 260 10.6667C259.444 10.6667 258.972 10.8611 258.583 11.25C258.194 11.6389 258 12.1111 258 12.6667H257.333C257.333 11.9239 257.592 11.2938 258.11 10.7763C258.627 10.2588 259.257 10 260 10C260.743 10 261.373 10.2588 261.89 10.7763C262.408 11.2938 262.667 11.9239 262.667 12.6667V14H263.59C263.888 14 264.142 14.1049 264.352 14.3147C264.562 14.5246 264.667 14.7786 264.667 15.0769V20.9231C264.667 21.2214 264.562 21.4754 264.352 21.6853C264.142 21.8951 263.888 22 263.59 22H256.41C256.112 22 255.858 21.8951 255.648 21.6853C255.438 21.4754 255.333 21.2214 255.333 20.9231V15.0769C255.333 14.7786 255.438 14.5246 255.648 14.3147C255.858 14.1049 256.112 14 256.41 14ZM256.41 21.3333H263.59C263.709 21.3333 263.808 21.2949 263.885 21.218C263.962 21.141 264 21.0427 264 20.9231V15.0769C264 14.9573 263.962 14.859 263.885 14.7821C263.808 14.7051 263.709 14.6667 263.59 14.6667H256.41C256.291 14.6667 256.192 14.7051 256.115 14.7821C256.039 14.859 256 14.9573 256 15.0769V20.9231C256 21.0427 256.039 21.141 256.115 21.218C256.192 21.2949 256.291 21.3333 256.41 21.3333ZM260 19C260.281 19 260.518 18.9036 260.711 18.7109C260.904 18.5182 261 18.2812 261 18C261 17.7188 260.904 17.4818 260.711 17.2891C260.518 17.0964 260.281 17 260 17C259.719 17 259.482 17.0964 259.289 17.2891C259.096 17.4818 259 17.7188 259 18C259 18.2812 259.096 18.5182 259.289 18.7109C259.482 18.9036 259.719 19 260 19Z" fill="var(--colors-neutral-neutral-800)"/>
<path d="M284.003 18.1025C284.681 18.1025 285.255 17.8654 285.728 17.3911C286.2 16.9169 286.436 16.341 286.436 15.6636C286.436 14.9861 286.199 14.4112 285.725 13.939C285.25 13.4668 284.674 13.2307 283.997 13.2307C283.32 13.2307 282.745 13.4678 282.272 13.942C281.8 14.4163 281.564 14.9921 281.564 15.6696C281.564 16.3471 281.801 16.9219 282.275 17.3942C282.75 17.8664 283.326 18.1025 284.003 18.1025ZM284 17.4666C283.5 17.4666 283.075 17.2916 282.725 16.9416C282.375 16.5916 282.2 16.1666 282.2 15.6666C282.2 15.1666 282.375 14.7416 282.725 14.3916C283.075 14.0416 283.5 13.8666 284 13.8666C284.5 13.8666 284.925 14.0416 285.275 14.3916C285.625 14.7416 285.8 15.1666 285.8 15.6666C285.8 16.1666 285.625 16.5916 285.275 16.9416C284.925 17.2916 284.5 17.4666 284 17.4666ZM284.002 19.9999C282.558 19.9999 281.242 19.607 280.054 18.8211C278.866 18.0352 277.976 16.9837 277.385 15.6666C277.976 14.3495 278.865 13.298 280.052 12.5121C281.239 11.7262 282.554 11.3333 283.998 11.3333C285.442 11.3333 286.758 11.7262 287.946 12.5121C289.134 13.298 290.024 14.3495 290.615 15.6666C290.024 16.9837 289.135 18.0352 287.948 18.8211C286.761 19.607 285.446 19.9999 284.002 19.9999ZM284 19.3333C285.256 19.3333 286.408 19.0027 287.458 18.3416C288.508 17.6805 289.311 16.7888 289.867 15.6666C289.311 14.5444 288.508 13.6527 287.458 12.9916C286.408 12.3305 285.256 11.9999 284 11.9999C282.744 11.9999 281.592 12.3305 280.542 12.9916C279.492 13.6527 278.689 14.5444 278.133 15.6666C278.689 16.7888 279.492 17.6805 280.542 18.3416C281.592 19.0027 282.744 19.3333 284 19.3333Z" fill="var(--colors-neutral-neutral-800)"/>
</svg>
