<svg width="140" height="192" viewBox="0 0 140 192" fill="none" xmlns="http://www.w3.org/2000/svg">
<rect x="9.28315" y="84.3011" width="121.434" height="2.00717" fill="var(--colors-brand-brand-700)" stroke="var(--colors-neutral-neutral-800)" stroke-width="0.5"/>
<rect x="63.4767" y="86.3082" width="13.0466" height="2.00717" fill="var(--colors-brand-brand-700)" stroke="var(--colors-neutral-neutral-800)" stroke-width="0.5"/>
<rect x="9.28315" y="86.3082" width="13.0466" height="2.00717" fill="var(--colors-brand-brand-700)" stroke="var(--colors-neutral-neutral-800)" stroke-width="0.5"/>
<rect x="117.67" y="86.3082" width="13.0466" height="2.00717" fill="var(--colors-brand-brand-700)" stroke="var(--colors-neutral-neutral-800)" stroke-width="0.5"/>
<rect x="9.28315" y="94.3369" width="121.434" height="2.00717" fill="var(--colors-brand-brand-700)" stroke="var(--colors-neutral-neutral-800)" stroke-width="0.5"/>
<rect x="63.4767" y="88.3154" width="13.0466" height="6.02151" fill="var(--colors-brand-brand-700)" stroke="var(--colors-neutral-neutral-800)" stroke-width="0.5"/>
<rect x="9.28315" y="88.3154" width="13.0466" height="6.02151" fill="var(--colors-brand-brand-700)" stroke="var(--colors-neutral-neutral-800)" stroke-width="0.5"/>
<rect x="117.67" y="88.3154" width="13.0466" height="6.02151" fill="var(--colors-brand-brand-700)" stroke="var(--colors-neutral-neutral-800)" stroke-width="0.5"/>
<rect x="130.717" y="96.3441" width="4.01434" height="121.434" transform="rotate(90 130.717 96.3441)" fill="var(--colors-primary-primary-400)" stroke="var(--colors-neutral-neutral-800)" stroke-width="0.5"/>
<rect x="130.717" y="20.0717" width="4.01434" height="121.434" transform="rotate(90 130.717 20.0717)" fill="var(--colors-primary-primary-400)" stroke="var(--colors-neutral-neutral-800)" stroke-width="0.5"/>
<path d="M13.2975 4.01434L18.3154 6.91144L18.3154 1.11724L13.2975 4.01434ZM126.703 4.01435L121.685 1.11725L121.685 6.91144L126.703 4.01435ZM17.8136 4.51613L122.186 4.51614L122.186 3.51255L17.8136 3.51255L17.8136 4.51613Z" fill="var(--colors-neutral-neutral-800)"/>
<rect x="9.28315" y="179.642" width="121.434" height="2.00717" fill="var(--colors-brand-brand-700)" stroke="var(--colors-neutral-neutral-800)" stroke-width="0.5"/>
<rect x="63.4767" y="181.649" width="13.0466" height="2.00717" fill="var(--colors-brand-brand-700)" stroke="var(--colors-neutral-neutral-800)" stroke-width="0.5"/>
<rect x="9.28315" y="181.649" width="13.0466" height="2.00717" fill="var(--colors-brand-brand-700)" stroke="var(--colors-neutral-neutral-800)" stroke-width="0.5"/>
<rect x="117.67" y="181.649" width="13.0466" height="2.00717" fill="var(--colors-brand-brand-700)" stroke="var(--colors-neutral-neutral-800)" stroke-width="0.5"/>
<rect x="9.28315" y="189.677" width="4.01434" height="2.00717" fill="var(--colors-brand-brand-700)" stroke="var(--colors-neutral-neutral-800)" stroke-width="0.5"/>
<rect x="9.28315" y="189.677" width="121.434" height="2.00717" fill="var(--colors-brand-brand-700)" stroke="var(--colors-neutral-neutral-800)" stroke-width="0.5"/>
<rect x="63.4767" y="183.656" width="13.0466" height="6.02151" fill="var(--colors-brand-brand-700)" stroke="var(--colors-neutral-neutral-800)" stroke-width="0.5"/>
<rect x="9.28315" y="183.656" width="13.0466" height="6.02151" fill="var(--colors-brand-brand-700)" stroke="var(--colors-neutral-neutral-800)" stroke-width="0.5"/>
<rect x="117.67" y="183.656" width="13.0466" height="6.02151" fill="var(--colors-brand-brand-700)" stroke="var(--colors-neutral-neutral-800)" stroke-width="0.5"/>
<rect x="17.3118" y="151.541" width="41.147" height="28.1004" fill="var(--colors-neutral-neutral-500)" stroke="var(--colors-neutral-neutral-800)" stroke-width="0.5"/>
<rect x="81.5412" y="56.2007" width="41.147" height="28.1004" fill="var(--colors-neutral-neutral-500)" stroke="var(--colors-neutral-neutral-800)" stroke-width="0.5"/>
<rect x="81.5412" y="140.502" width="41.147" height="39.1398" fill="var(--colors-neutral-neutral-500)" stroke="var(--colors-neutral-neutral-800)" stroke-width="0.5"/>
<rect x="17.3118" y="45.1613" width="41.147" height="39.1398" fill="var(--colors-neutral-neutral-500)" stroke="var(--colors-neutral-neutral-800)" stroke-width="0.5"/>
<rect x="130.717" y="16.0573" width="9.03226" height="174.624" fill="var(--colors-primary-primary-600)" stroke="var(--colors-neutral-neutral-800)" stroke-width="0.5"/>
<rect x="130.717" y="189.677" width="9.03226" height="2.00717" fill="var(--colors-feedback-error-red-300)" stroke="var(--colors-neutral-neutral-800)" stroke-width="0.5"/>
<rect x="0.250896" y="16.0573" width="9.03226" height="174.624" fill="var(--colors-primary-primary-600)" stroke="var(--colors-neutral-neutral-800)" stroke-width="0.5"/>
<rect x="0.250896" y="189.677" width="9.03226" height="2.00717" fill="var(--colors-feedback-error-red-300)" stroke="var(--colors-neutral-neutral-800)" stroke-width="0.5"/>
<path d="M9.28315 20.0717L9.28315 -7.069e-07" stroke="var(--colors-neutral-neutral-800)" stroke-width="0.5"/>
<path d="M130.717 20.0717L130.717 -7.069e-07" stroke="var(--colors-neutral-neutral-800)" stroke-width="0.5"/>
</svg>
