<svg width="192" height="124" viewBox="0 0 192 124" fill="none" xmlns="http://www.w3.org/2000/svg">
<path d="M192 124L0 124L1.47869e-06 0L192 2.28958e-06L192 124Z" fill="#F6EDFD"/>
<rect x="30" y="96" width="24" height="50" transform="rotate(-90 30 96)" fill="#DACCE5"/>
<rect x="30" y="52" width="24" height="50" transform="rotate(-90 30 52)" fill="#DACCE5"/>
<rect x="112" y="96" width="24" height="50" transform="rotate(-90 112 96)" fill="#DACCE5"/>
<rect x="112" y="52" width="24" height="50" transform="rotate(-90 112 52)" fill="#DACCE5"/>
<path d="M89.8232 39.8232C89.7256 39.9209 89.7256 40.0791 89.8232 40.1768L91.4142 41.7678C91.5118 41.8654 91.6701 41.8654 91.7678 41.7678C91.8654 41.6701 91.8654 41.5118 91.7678 41.4142L90.3536 40L91.7678 38.5858C91.8654 38.4882 91.8654 38.3299 91.7678 38.2322C91.6701 38.1346 91.5118 38.1346 91.4142 38.2322L89.8232 39.8232ZM102.177 40.1768C102.274 40.0791 102.274 39.9209 102.177 39.8232L100.586 38.2322C100.488 38.1346 100.33 38.1346 100.232 38.2322C100.135 38.3299 100.135 38.4882 100.232 38.5858L101.646 40L100.232 41.4142C100.135 41.5118 100.135 41.6701 100.232 41.7678C100.33 41.8654 100.488 41.8654 100.586 41.7678L102.177 40.1768ZM90 40.25H102V39.75H90V40.25Z" fill="#222222"/>
<path d="M89.8232 83.8232C89.7256 83.9209 89.7256 84.0791 89.8232 84.1768L91.4142 85.7678C91.5118 85.8654 91.6701 85.8654 91.7678 85.7678C91.8654 85.6701 91.8654 85.5118 91.7678 85.4142L90.3536 84L91.7678 82.5858C91.8654 82.4882 91.8654 82.3299 91.7678 82.2322C91.6701 82.1346 91.5118 82.1346 91.4142 82.2322L89.8232 83.8232ZM102.177 84.1768C102.274 84.0791 102.274 83.9209 102.177 83.8232L100.586 82.2322C100.488 82.1346 100.33 82.1346 100.232 82.2322C100.135 82.3299 100.135 82.4882 100.232 82.5858L101.646 84L100.232 85.4142C100.135 85.5118 100.135 85.6701 100.232 85.7678C100.33 85.8654 100.488 85.8654 100.586 85.7678L102.177 84.1768ZM90 84.25H102V83.75H90V84.25Z" fill="#222222"/>
</svg>
