<svg width="196" height="88" viewBox="0 0 196 88" fill="none" xmlns="http://www.w3.org/2000/svg">
<path d="M196 88L0 88L-2.30796e-06 1.52588e-05L196 9.79735e-07L196 88Z" fill="#DFE5FC"/>
<rect x="28" y="64" width="40" height="20" transform="rotate(-90 28 64)" fill="#5E6BF0"/>
<rect x="108" y="64" width="40" height="20" transform="rotate(-90 108 64)" fill="#5E6BF0"/>
<rect x="68" y="64" width="40" height="20" transform="rotate(-90 68 64)" fill="#5E6BF0"/>
<rect x="148" y="64" width="40" height="20" transform="rotate(-90 148 64)" fill="#5E6BF0"/>
<path d="M51.8232 43.8232C51.7256 43.9209 51.7256 44.0791 51.8232 44.1768L53.4142 45.7678C53.5118 45.8654 53.6701 45.8654 53.7678 45.7678C53.8654 45.6701 53.8654 45.5118 53.7678 45.4142L52.3536 44L53.7678 42.5858C53.8654 42.4882 53.8654 42.3299 53.7678 42.2322C53.6701 42.1346 53.5118 42.1346 53.4142 42.2322L51.8232 43.8232ZM64.1768 44.1768C64.2744 44.0791 64.2744 43.9209 64.1768 43.8232L62.5858 42.2322C62.4882 42.1346 62.3299 42.1346 62.2322 42.2322C62.1346 42.3299 62.1346 42.4882 62.2322 42.5858L63.6464 44L62.2322 45.4142C62.1346 45.5118 62.1346 45.6701 62.2322 45.7678C62.3299 45.8654 62.4882 45.8654 62.5858 45.7678L64.1768 44.1768ZM52 44.25H64L64 43.75H52L52 44.25Z" fill="#222222"/>
<path d="M91.8232 43.8232C91.7256 43.9209 91.7256 44.0791 91.8232 44.1768L93.4142 45.7678C93.5118 45.8654 93.6701 45.8654 93.7678 45.7678C93.8654 45.6701 93.8654 45.5118 93.7678 45.4142L92.3536 44L93.7678 42.5858C93.8654 42.4882 93.8654 42.3299 93.7678 42.2322C93.6701 42.1346 93.5118 42.1346 93.4142 42.2322L91.8232 43.8232ZM104.177 44.1768C104.274 44.0791 104.274 43.9209 104.177 43.8232L102.586 42.2322C102.488 42.1346 102.33 42.1346 102.232 42.2322C102.135 42.3299 102.135 42.4882 102.232 42.5858L103.646 44L102.232 45.4142C102.135 45.5118 102.135 45.6701 102.232 45.7678C102.33 45.8654 102.488 45.8654 102.586 45.7678L104.177 44.1768ZM92 44.25H104L104 43.75H92L92 44.25Z" fill="#222222"/>
<path d="M131.823 43.8232C131.726 43.9209 131.726 44.0791 131.823 44.1768L133.414 45.7678C133.512 45.8654 133.67 45.8654 133.768 45.7678C133.865 45.6701 133.865 45.5118 133.768 45.4142L132.354 44L133.768 42.5858C133.865 42.4882 133.865 42.3299 133.768 42.2322C133.67 42.1346 133.512 42.1346 133.414 42.2322L131.823 43.8232ZM144.177 44.1768C144.274 44.0791 144.274 43.9209 144.177 43.8232L142.586 42.2322C142.488 42.1346 142.33 42.1346 142.232 42.2322C142.135 42.3299 142.135 42.4882 142.232 42.5858L143.646 44L142.232 45.4142C142.135 45.5118 142.135 45.6701 142.232 45.7678C142.33 45.8654 142.488 45.8654 142.586 45.7678L144.177 44.1768ZM132 44.25H144L144 43.75H132L132 44.25Z" fill="#222222"/>
</svg>
