<svg width="304" height="325" viewBox="0 0 304 325" fill="none" xmlns="http://www.w3.org/2000/svg">
<rect x="0.5" y="0.5" width="303" height="323" stroke="var(--colors-neutral-neutral-400)"/>
<mask id="path-2-inside-1_3815_56557" fill="white">
<path d="M0 0H304V52H0V0Z"/>
</mask>
<path d="M304 51H0V53H304V51Z" fill="var(--colors-neutral-neutral-400)" mask="url(#path-2-inside-1_3815_56557)"/>
<path d="M20.02 30.144C19.372 30.144 18.808 30.02 18.328 29.772C17.848 29.524 17.476 29.168 17.212 28.704C16.948 28.24 16.816 27.676 16.816 27.012H18.076C18.076 27.668 18.248 28.176 18.592 28.536C18.936 28.888 19.408 29.064 20.008 29.064C20.52 29.064 20.932 28.948 21.244 28.716C21.556 28.476 21.712 28.144 21.712 27.72C21.712 27.432 21.624 27.2 21.448 27.024C21.28 26.848 21.052 26.704 20.764 26.592C20.484 26.48 20.176 26.38 19.84 26.292C19.504 26.204 19.164 26.108 18.82 26.004C18.484 25.892 18.172 25.752 17.884 25.584C17.604 25.416 17.376 25.192 17.2 24.912C17.032 24.632 16.948 24.276 16.948 23.844C16.948 23.388 17.068 22.984 17.308 22.632C17.556 22.272 17.896 21.992 18.328 21.792C18.768 21.584 19.284 21.48 19.876 21.48C20.452 21.48 20.968 21.588 21.424 21.804C21.88 22.012 22.244 22.312 22.516 22.704C22.796 23.088 22.94 23.552 22.948 24.096H21.676C21.668 23.776 21.58 23.504 21.412 23.28C21.252 23.048 21.036 22.872 20.764 22.752C20.5 22.624 20.204 22.56 19.876 22.56C19.404 22.56 19.02 22.672 18.724 22.896C18.428 23.12 18.28 23.424 18.28 23.808C18.28 24.08 18.364 24.296 18.532 24.456C18.708 24.616 18.936 24.748 19.216 24.852C19.504 24.948 19.816 25.04 20.152 25.128C20.496 25.208 20.836 25.304 21.172 25.416C21.508 25.52 21.816 25.664 22.096 25.848C22.384 26.024 22.612 26.264 22.78 26.568C22.956 26.864 23.044 27.244 23.044 27.708C23.044 28.204 22.912 28.636 22.648 29.004C22.384 29.364 22.024 29.644 21.568 29.844C21.112 30.044 20.596 30.144 20.02 30.144ZM27.5367 30.144C26.8567 30.144 26.2687 30.008 25.7727 29.736C25.2767 29.456 24.8967 29.06 24.6327 28.548C24.3687 28.028 24.2367 27.408 24.2367 26.688C24.2367 25.968 24.3687 25.352 24.6327 24.84C24.9047 24.328 25.2887 23.936 25.7847 23.664C26.2887 23.392 26.8887 23.256 27.5847 23.256C28.6487 23.256 29.4407 23.552 29.9607 24.144C30.4807 24.728 30.7087 25.532 30.6447 26.556H25.1967L25.2087 25.644L29.4087 25.656C29.3767 25.232 29.1927 24.892 28.8567 24.636C28.5207 24.38 28.0967 24.252 27.5847 24.252C26.8967 24.252 26.3687 24.468 26.0007 24.9C25.6327 25.332 25.4487 25.944 25.4487 26.736C25.4487 27.208 25.5287 27.628 25.6887 27.996C25.8567 28.356 26.0967 28.636 26.4087 28.836C26.7207 29.036 27.0967 29.136 27.5367 29.136C28.0567 29.136 28.4887 29.012 28.8327 28.764C29.1847 28.516 29.4007 28.18 29.4807 27.756H30.6927C30.5887 28.5 30.2567 29.084 29.6967 29.508C29.1367 29.932 28.4167 30.144 27.5367 30.144ZM35.5694 30C35.1614 30 34.8134 29.92 34.5254 29.76C34.2374 29.592 34.0214 29.356 33.8774 29.052C33.7334 28.748 33.6614 28.392 33.6614 27.984V22.152L34.8734 21.492V27.984C34.8734 28.176 34.9014 28.352 34.9574 28.512C35.0134 28.672 35.1214 28.796 35.2814 28.884C35.4494 28.972 35.6934 29.016 36.0134 29.016H37.9934V30H35.5694ZM32.1014 24.384V23.4H36.9374V24.384H32.1014ZM40.7581 23.4V27.564C40.7581 28.028 40.8901 28.404 41.1541 28.692C41.4181 28.972 41.7621 29.112 42.1861 29.112C42.6741 29.112 43.1061 28.936 43.4821 28.584C43.8661 28.224 44.1701 27.668 44.3941 26.916L44.5861 28.272C44.3381 28.896 43.9781 29.364 43.5061 29.676C43.0421 29.988 42.5341 30.144 41.9821 30.144C41.4861 30.144 41.0541 30.04 40.6861 29.832C40.3261 29.616 40.0461 29.32 39.8461 28.944C39.6461 28.568 39.5461 28.124 39.5461 27.612V23.4H40.7581ZM45.4621 23.4V30H44.3101L44.2501 28.512V23.4H45.4621ZM50.5428 23.256C51.1348 23.256 51.6508 23.404 52.0908 23.7C52.5388 23.988 52.8908 24.392 53.1468 24.912C53.4028 25.432 53.5308 26.028 53.5308 26.7C53.5308 27.364 53.4028 27.956 53.1468 28.476C52.8908 28.996 52.5388 29.404 52.0908 29.7C51.6508 29.996 51.1348 30.144 50.5428 30.144C50.0948 30.144 49.6828 30.052 49.3068 29.868C48.9388 29.684 48.6348 29.432 48.3948 29.112V32.136H47.1828V23.4H48.3348L48.3708 24.3C48.6108 23.98 48.9188 23.728 49.2948 23.544C49.6708 23.352 50.0868 23.256 50.5428 23.256ZM50.2788 29.124C50.6868 29.124 51.0428 29.02 51.3468 28.812C51.6508 28.604 51.8868 28.32 52.0548 27.96C52.2228 27.592 52.3068 27.172 52.3068 26.7C52.3068 26.22 52.2228 25.8 52.0548 25.44C51.8868 25.072 51.6508 24.788 51.3468 24.588C51.0428 24.38 50.6868 24.276 50.2788 24.276C49.8628 24.276 49.4828 24.396 49.1388 24.636C48.8028 24.868 48.5548 25.188 48.3948 25.596V27.78C48.5548 28.196 48.8028 28.524 49.1388 28.764C49.4828 29.004 49.8628 29.124 50.2788 29.124Z" fill="var(--colors-neutral-neutral-700)"/>
<path d="M80.104 30V21.624H81.844V28.56H86.008V30H80.104ZM92.1447 30L92.0847 28.704V25.572C92.0847 25.204 91.9567 24.916 91.7007 24.708C91.4447 24.5 91.0927 24.396 90.6447 24.396C90.2047 24.396 89.8487 24.492 89.5767 24.684C89.3047 24.868 89.1487 25.128 89.1087 25.464H87.5127C87.5527 24.992 87.7087 24.588 87.9807 24.252C88.2607 23.916 88.6327 23.66 89.0967 23.484C89.5607 23.3 90.0967 23.208 90.7047 23.208C91.3207 23.208 91.8527 23.304 92.3007 23.496C92.7567 23.688 93.1087 23.968 93.3567 24.336C93.6047 24.696 93.7287 25.14 93.7287 25.668V30H92.1447ZM89.9247 30.144C89.4847 30.144 89.0967 30.06 88.7607 29.892C88.4327 29.724 88.1767 29.492 87.9927 29.196C87.8087 28.9 87.7167 28.556 87.7167 28.164C87.7167 27.484 87.9807 26.956 88.5087 26.58C89.0367 26.196 89.7727 26.004 90.7167 26.004H92.2647V27.168H90.6687C90.2527 27.168 89.9247 27.244 89.6847 27.396C89.4447 27.548 89.3247 27.772 89.3247 28.068C89.3247 28.284 89.4127 28.468 89.5887 28.62C89.7647 28.764 90.0047 28.836 90.3087 28.836C90.7167 28.836 91.0807 28.728 91.4007 28.512C91.7207 28.296 91.9847 28.004 92.1927 27.636L92.3727 28.776C92.1647 29.232 91.8527 29.576 91.4367 29.808C91.0207 30.032 90.5167 30.144 89.9247 30.144ZM97.8974 25.98L98.5094 27.672L99.1214 25.98L100.225 23.352H101.917L98.9294 30.42C98.7374 30.884 98.5174 31.248 98.2694 31.512C98.0294 31.784 97.7534 31.98 97.4414 32.1C97.1374 32.22 96.7854 32.28 96.3854 32.28H95.1734V30.948H96.2294C96.4454 30.948 96.6294 30.896 96.7814 30.792C96.9334 30.696 97.0694 30.56 97.1894 30.384C97.3094 30.208 97.4214 30 97.5254 29.76L97.6574 29.436L95.1014 23.352H96.8054L97.8974 25.98ZM106.314 30.144C105.61 30.144 105.002 30.004 104.49 29.724C103.986 29.444 103.598 29.048 103.326 28.536C103.062 28.016 102.93 27.396 102.93 26.676C102.93 25.956 103.062 25.34 103.326 24.828C103.598 24.308 103.986 23.908 104.49 23.628C105.002 23.348 105.61 23.208 106.314 23.208C107.37 23.208 108.194 23.516 108.786 24.132C109.386 24.748 109.686 25.596 109.686 26.676C109.686 27.396 109.55 28.016 109.278 28.536C109.014 29.048 108.63 29.444 108.126 29.724C107.622 30.004 107.018 30.144 106.314 30.144ZM106.314 28.8C106.85 28.8 107.27 28.612 107.574 28.236C107.886 27.852 108.042 27.332 108.042 26.676C108.042 26.012 107.886 25.492 107.574 25.116C107.27 24.74 106.85 24.552 106.314 24.552C105.77 24.552 105.342 24.74 105.03 25.116C104.726 25.492 104.574 26.012 104.574 26.676C104.574 27.332 104.726 27.852 105.03 28.236C105.342 28.612 105.77 28.8 106.314 28.8ZM112.559 23.352V27.48C112.559 27.864 112.659 28.176 112.859 28.416C113.067 28.648 113.339 28.764 113.675 28.764C114.059 28.764 114.407 28.632 114.719 28.368C115.031 28.096 115.323 27.656 115.595 27.048L115.835 28.56C115.547 29.112 115.183 29.516 114.743 29.772C114.303 30.02 113.839 30.144 113.351 30.144C112.847 30.144 112.411 30.036 112.043 29.82C111.683 29.604 111.403 29.308 111.203 28.932C111.003 28.548 110.903 28.096 110.903 27.576V23.352H112.559ZM117.095 23.352V30H115.511L115.451 28.716V23.352H117.095ZM122.463 30C122.031 30 121.651 29.904 121.323 29.712C121.003 29.52 120.755 29.252 120.579 28.908C120.411 28.564 120.327 28.172 120.327 27.732V22.188L121.983 21.408V27.732C121.983 27.932 122.011 28.104 122.067 28.248C122.123 28.384 122.235 28.488 122.403 28.56C122.571 28.632 122.803 28.668 123.099 28.668H124.887V30H122.463ZM118.935 24.684V23.352H123.747V24.684H118.935Z" fill="var(--colors-neutral-neutral-800)"/>
<path d="M154.02 30.144C153.372 30.144 152.808 30.02 152.328 29.772C151.848 29.524 151.476 29.168 151.212 28.704C150.948 28.24 150.816 27.676 150.816 27.012H152.076C152.076 27.668 152.248 28.176 152.592 28.536C152.936 28.888 153.408 29.064 154.008 29.064C154.52 29.064 154.932 28.948 155.244 28.716C155.556 28.476 155.712 28.144 155.712 27.72C155.712 27.432 155.624 27.2 155.448 27.024C155.28 26.848 155.052 26.704 154.764 26.592C154.484 26.48 154.176 26.38 153.84 26.292C153.504 26.204 153.164 26.108 152.82 26.004C152.484 25.892 152.172 25.752 151.884 25.584C151.604 25.416 151.376 25.192 151.2 24.912C151.032 24.632 150.948 24.276 150.948 23.844C150.948 23.388 151.068 22.984 151.308 22.632C151.556 22.272 151.896 21.992 152.328 21.792C152.768 21.584 153.284 21.48 153.876 21.48C154.452 21.48 154.968 21.588 155.424 21.804C155.88 22.012 156.244 22.312 156.516 22.704C156.796 23.088 156.94 23.552 156.948 24.096H155.676C155.668 23.776 155.58 23.504 155.412 23.28C155.252 23.048 155.036 22.872 154.764 22.752C154.5 22.624 154.204 22.56 153.876 22.56C153.404 22.56 153.02 22.672 152.724 22.896C152.428 23.12 152.28 23.424 152.28 23.808C152.28 24.08 152.364 24.296 152.532 24.456C152.708 24.616 152.936 24.748 153.216 24.852C153.504 24.948 153.816 25.04 154.152 25.128C154.496 25.208 154.836 25.304 155.172 25.416C155.508 25.52 155.816 25.664 156.096 25.848C156.384 26.024 156.612 26.264 156.78 26.568C156.956 26.864 157.044 27.244 157.044 27.708C157.044 28.204 156.912 28.636 156.648 29.004C156.384 29.364 156.024 29.644 155.568 29.844C155.112 30.044 154.596 30.144 154.02 30.144ZM160.925 30V23.4H162.137V30H160.925ZM158.489 30V29.016H164.405V30H158.489ZM159.365 24.384V23.4H161.525V24.384H159.365ZM160.841 22.272V20.964H162.197V22.272H160.841ZM171.213 30V25.176C171.213 24.888 171.161 24.664 171.057 24.504C170.961 24.344 170.809 24.264 170.601 24.264C170.313 24.264 170.053 24.448 169.821 24.816C169.597 25.184 169.441 25.764 169.353 26.556L169.245 25.536C169.269 24.816 169.437 24.256 169.749 23.856C170.069 23.456 170.461 23.256 170.925 23.256C171.357 23.256 171.697 23.416 171.945 23.736C172.201 24.048 172.329 24.496 172.329 25.08V30H171.213ZM165.729 30V23.4H166.797L166.845 24.684V30H165.729ZM168.477 30V25.176C168.477 24.872 168.421 24.644 168.309 24.492C168.205 24.34 168.045 24.264 167.829 24.264C167.525 24.264 167.265 24.456 167.049 24.84C166.833 25.224 166.681 25.796 166.593 26.556L166.569 25.5C166.585 25.028 166.669 24.624 166.821 24.288C166.973 23.952 167.169 23.696 167.409 23.52C167.649 23.344 167.905 23.256 168.177 23.256C168.625 23.256 168.969 23.42 169.209 23.748C169.457 24.068 169.581 24.508 169.581 25.068V30H168.477ZM174.758 23.4V27.564C174.758 28.028 174.89 28.404 175.154 28.692C175.418 28.972 175.762 29.112 176.186 29.112C176.674 29.112 177.106 28.936 177.482 28.584C177.866 28.224 178.17 27.668 178.394 26.916L178.586 28.272C178.338 28.896 177.978 29.364 177.506 29.676C177.042 29.988 176.534 30.144 175.982 30.144C175.486 30.144 175.054 30.04 174.686 29.832C174.326 29.616 174.046 29.32 173.846 28.944C173.646 28.568 173.546 28.124 173.546 27.612V23.4H174.758ZM179.462 23.4V30H178.31L178.25 28.512V23.4H179.462ZM183.559 30V21.18H184.771V30H183.559ZM181.123 30V29.016H187.219V30H181.123ZM181.999 22.164V21.18H184.159V22.164H181.999ZM193.451 30L193.403 28.5V25.68C193.403 25.208 193.247 24.84 192.935 24.576C192.631 24.304 192.211 24.168 191.675 24.168C191.155 24.168 190.731 24.288 190.403 24.528C190.075 24.76 189.895 25.084 189.863 25.5H188.675C188.715 25.028 188.867 24.628 189.131 24.3C189.395 23.964 189.747 23.708 190.187 23.532C190.627 23.348 191.135 23.256 191.711 23.256C192.303 23.256 192.815 23.356 193.247 23.556C193.679 23.748 194.011 24.028 194.243 24.396C194.483 24.764 194.603 25.212 194.603 25.74V30H193.451ZM191.063 30.144C190.631 30.144 190.251 30.068 189.923 29.916C189.595 29.756 189.339 29.532 189.155 29.244C188.971 28.948 188.879 28.604 188.879 28.212C188.879 27.532 189.139 27.004 189.659 26.628C190.187 26.252 190.923 26.064 191.867 26.064H193.559V26.964H191.819C191.275 26.964 190.847 27.068 190.535 27.276C190.231 27.484 190.079 27.776 190.079 28.152C190.079 28.464 190.187 28.708 190.403 28.884C190.627 29.06 190.927 29.148 191.303 29.148C191.783 29.148 192.207 29.02 192.575 28.764C192.951 28.5 193.255 28.14 193.487 27.684L193.619 28.572C193.411 29.076 193.091 29.464 192.659 29.736C192.227 30.008 191.695 30.144 191.063 30.144ZM199.828 30C199.42 30 199.072 29.92 198.784 29.76C198.496 29.592 198.28 29.356 198.136 29.052C197.992 28.748 197.92 28.392 197.92 27.984V22.152L199.132 21.492V27.984C199.132 28.176 199.16 28.352 199.216 28.512C199.272 28.672 199.38 28.796 199.54 28.884C199.708 28.972 199.952 29.016 200.272 29.016H202.252V30H199.828ZM196.36 24.384V23.4H201.196V24.384H196.36ZM206.313 30V23.4H207.525V30H206.313ZM203.877 30V29.016H209.793V30H203.877ZM204.753 24.384V23.4H206.913V24.384H204.753ZM206.229 22.272V20.964H207.585V22.272H206.229ZM214.406 30.144C213.726 30.144 213.138 30.004 212.642 29.724C212.154 29.444 211.778 29.048 211.514 28.536C211.25 28.016 211.118 27.404 211.118 26.7C211.118 25.98 211.25 25.368 211.514 24.864C211.778 24.352 212.154 23.956 212.642 23.676C213.138 23.396 213.73 23.256 214.418 23.256C215.442 23.256 216.246 23.564 216.83 24.18C217.414 24.788 217.706 25.628 217.706 26.7C217.706 27.404 217.574 28.016 217.31 28.536C217.046 29.048 216.666 29.444 216.17 29.724C215.682 30.004 215.094 30.144 214.406 30.144ZM214.418 29.136C215.058 29.136 215.562 28.92 215.93 28.488C216.306 28.048 216.494 27.452 216.494 26.7C216.494 25.94 216.306 25.344 215.93 24.912C215.562 24.48 215.058 24.264 214.418 24.264C213.77 24.264 213.262 24.48 212.894 24.912C212.526 25.344 212.342 25.94 212.342 26.7C212.342 27.452 212.526 28.048 212.894 28.488C213.262 28.92 213.77 29.136 214.418 29.136ZM223.758 30V25.836C223.758 25.372 223.626 25 223.362 24.72C223.098 24.432 222.754 24.288 222.33 24.288C221.842 24.288 221.406 24.468 221.022 24.828C220.646 25.18 220.346 25.732 220.122 26.484L219.93 25.128C220.178 24.504 220.534 24.036 220.998 23.724C221.47 23.412 221.982 23.256 222.534 23.256C223.03 23.256 223.458 23.364 223.818 23.58C224.186 23.788 224.47 24.08 224.67 24.456C224.87 24.832 224.97 25.276 224.97 25.788V30H223.758ZM219.054 30V23.4H220.206L220.266 24.888V30H219.054Z" fill="var(--colors-neutral-neutral-700)"/>
<path d="M304 99.5H0V100.5H304V99.5Z" fill="var(--colors-neutral-neutral-400)"/>
<path d="M21.604 80V71.624H23.116V80H21.604ZM16.696 80V71.624H18.208V80H16.696ZM18.016 76.292V75.032H21.784V76.292H18.016ZM27.0327 80V73.376H28.4607V80H27.0327ZM24.6927 80V78.836H30.7047V80H24.6927ZM25.5447 74.54V73.376H27.7407V74.54H25.5447ZM26.9487 72.332V70.868H28.5087V72.332H26.9487ZM37.2134 74.24L37.2494 73.376H38.6174V79.22C38.6174 80.22 38.3494 80.98 37.8134 81.5C37.2774 82.02 36.4614 82.28 35.3654 82.28C34.7654 82.28 34.2454 82.2 33.8054 82.04C33.3654 81.888 33.0214 81.652 32.7734 81.332C32.5334 81.02 32.3974 80.624 32.3654 80.144H33.8654C33.9054 80.464 34.0534 80.704 34.3094 80.864C34.5654 81.024 34.9414 81.104 35.4374 81.104C36.0214 81.104 36.4574 80.952 36.7454 80.648C37.0414 80.352 37.1894 79.932 37.1894 79.388V78.668C36.9654 78.98 36.6734 79.224 36.3134 79.4C35.9614 79.576 35.5694 79.664 35.1374 79.664C34.5774 79.664 34.0774 79.524 33.6374 79.244C33.2054 78.964 32.8654 78.584 32.6174 78.104C32.3694 77.616 32.2454 77.068 32.2454 76.46C32.2454 75.796 32.3734 75.224 32.6294 74.744C32.8934 74.256 33.2494 73.884 33.6974 73.628C34.1454 73.372 34.6534 73.244 35.2214 73.244C35.6454 73.244 36.0294 73.336 36.3734 73.52C36.7254 73.704 37.0054 73.944 37.2134 74.24ZM35.4734 78.56C35.8734 78.56 36.2254 78.44 36.5294 78.2C36.8414 77.952 37.0614 77.628 37.1894 77.228V75.668C37.0614 75.26 36.8414 74.94 36.5294 74.708C36.2254 74.468 35.8734 74.348 35.4734 74.348C35.1214 74.348 34.8094 74.44 34.5374 74.624C34.2654 74.808 34.0534 75.056 33.9014 75.368C33.7494 75.68 33.6734 76.036 33.6734 76.436C33.6734 76.844 33.7494 77.208 33.9014 77.528C34.0534 77.84 34.2654 78.092 34.5374 78.284C34.8094 78.468 35.1214 78.56 35.4734 78.56ZM44.9341 80V75.872C44.9341 75.44 44.8141 75.096 44.5741 74.84C44.3421 74.576 44.0381 74.444 43.6621 74.444C43.2301 74.444 42.8381 74.6 42.4861 74.912C42.1421 75.216 41.8461 75.708 41.5981 76.388L41.3821 74.972C41.6461 74.38 42.0061 73.944 42.4621 73.664C42.9181 73.376 43.4061 73.232 43.9261 73.232C44.4301 73.232 44.8621 73.34 45.2221 73.556C45.5901 73.764 45.8701 74.06 46.0621 74.444C46.2621 74.828 46.3621 75.276 46.3621 75.788V80H44.9341ZM40.3141 80V71.144H41.7421V80H40.3141ZM48.4788 80L47.4468 73.352H48.7788L49.2828 76.976L49.4868 78.512L49.7628 76.976L50.4948 73.352H51.7788L52.5468 76.976L52.8348 78.536L53.0268 76.976L53.5308 73.352H54.8028L53.7828 80H52.1148L51.3468 76.532L51.1308 74.72L50.9028 76.532L50.1468 80H48.4788ZM60.5074 80L60.4474 78.596V75.62C60.4474 75.204 60.3074 74.876 60.0274 74.636C59.7474 74.396 59.3594 74.276 58.8634 74.276C58.3914 74.276 58.0034 74.384 57.6994 74.6C57.4034 74.816 57.2354 75.112 57.1954 75.488H55.8034C55.8434 75.016 55.9954 74.612 56.2594 74.276C56.5314 73.94 56.8914 73.684 57.3394 73.508C57.7954 73.324 58.3194 73.232 58.9114 73.232C59.5194 73.232 60.0434 73.328 60.4834 73.52C60.9314 73.712 61.2754 73.992 61.5154 74.36C61.7554 74.728 61.8754 75.176 61.8754 75.704V80H60.5074ZM58.2034 80.144C57.7714 80.144 57.3874 80.064 57.0514 79.904C56.7234 79.744 56.4674 79.516 56.2834 79.22C56.0994 78.924 56.0074 78.58 56.0074 78.188C56.0074 77.508 56.2714 76.98 56.7994 76.604C57.3274 76.22 58.0594 76.028 58.9954 76.028H60.6154V77.06L58.9474 77.072C58.4674 77.072 58.0914 77.164 57.8194 77.348C57.5474 77.524 57.4114 77.78 57.4114 78.116C57.4114 78.38 57.5074 78.592 57.6994 78.752C57.8994 78.912 58.1714 78.992 58.5154 78.992C58.9554 78.992 59.3474 78.876 59.6914 78.644C60.0434 78.404 60.3274 78.076 60.5434 77.66L60.6994 78.668C60.4914 79.156 60.1754 79.524 59.7514 79.772C59.3274 80.02 58.8114 80.144 58.2034 80.144ZM66.1161 76.328L66.7281 77.996L67.3521 76.316L68.6001 73.376H70.0641L67.0401 80.516C66.8561 80.964 66.6481 81.316 66.4161 81.572C66.1921 81.828 65.9361 82.008 65.6481 82.112C65.3601 82.224 65.0281 82.28 64.6521 82.28H63.4641V81.116H64.5321C64.7481 81.116 64.9281 81.068 65.0721 80.972C65.2241 80.884 65.3601 80.748 65.4801 80.564C65.6001 80.388 65.7161 80.168 65.8281 79.904L65.9961 79.52L63.3921 73.376H64.8801L66.1161 76.328ZM82.0735 80V75.104L82.1575 73.376L80.7775 74.492L79.3015 75.668V73.928L82.4815 71.624H83.5855V80H82.0735ZM79.3015 80V78.74H85.4695V80H79.3015Z" fill="var(--colors-neutral-neutral-800)"/>
<path fill-rule="evenodd" clip-rule="evenodd" d="M242.175 68.175C242.394 67.9562 242.69 67.8333 243 67.8333H255C255.309 67.8333 255.606 67.9562 255.825 68.175C256.044 68.3938 256.167 68.6905 256.167 68.9999V80.9999C256.167 81.3093 256.044 81.6061 255.825 81.8249C255.606 82.0437 255.309 82.1666 255 82.1666H253.5V82.9999C253.5 83.3093 253.377 83.6061 253.158 83.8249C252.939 84.0437 252.643 84.1666 252.333 84.1666H241C240.69 84.1666 240.394 84.0437 240.175 83.8249C239.956 83.6061 239.833 83.3093 239.833 82.9999V71.6666C239.833 71.3572 239.956 71.0604 240.175 70.8416C240.394 70.6228 240.69 70.4999 241 70.4999H241.833V68.9999C241.833 68.6905 241.956 68.3938 242.175 68.175ZM241.833 71.4999H241C240.956 71.4999 240.913 71.5175 240.882 71.5487C240.851 71.58 240.833 71.6224 240.833 71.6666V82.9999C240.833 83.0441 240.851 83.0865 240.882 83.1178C240.913 83.149 240.956 83.1666 241 83.1666H252.333C252.377 83.1666 252.42 83.149 252.451 83.1178C252.482 83.0865 252.5 83.0441 252.5 82.9999V82.1666H243C242.69 82.1666 242.394 82.0437 242.175 81.8249C241.956 81.6061 241.833 81.3093 241.833 80.9999V71.4999ZM243 81.1666C242.956 81.1666 242.913 81.149 242.882 81.1178C242.851 81.0865 242.833 81.0441 242.833 80.9999V68.9999C242.833 68.9557 242.851 68.9133 242.882 68.8821C242.913 68.8508 242.956 68.8333 243 68.8333H255C255.044 68.8333 255.087 68.8508 255.118 68.8821C255.149 68.9133 255.167 68.9557 255.167 68.9999V80.9999C255.167 81.0441 255.149 81.0865 255.118 81.1178C255.087 81.149 255.044 81.1666 255 81.1666H243Z" fill="var(--colors-neutral-neutral-800)"/>
<path fill-rule="evenodd" clip-rule="evenodd" d="M249 72C249.276 72 249.5 72.0001 249.5 72.0001V74.5L252 74.5C252 74.5 252 74.7239 252 75C252 75.2761 252 75.5 252 75.5H249.5L249.5 78C249.5 78 249.276 78 249 78C248.724 78 248.5 78 248.5 78L248.5 75.5H246C246 75.5 246 75.2761 246 75C246 74.7239 246 74.5 246 74.5L248.5 74.5V72.0001C248.5 72.0001 248.724 72 249 72Z" fill="var(--colors-neutral-neutral-800)"/>
<path fill-rule="evenodd" clip-rule="evenodd" d="M274.175 68.1751C274.394 67.9563 274.69 67.8334 275 67.8334H287C287.309 67.8334 287.606 67.9563 287.825 68.1751C288.044 68.3939 288.167 68.6906 288.167 69V81C288.167 81.3095 288.044 81.6062 287.825 81.825C287.606 82.0438 287.309 82.1667 287 82.1667H285.5V83C285.5 83.3095 285.377 83.6062 285.158 83.825C284.939 84.0438 284.643 84.1667 284.333 84.1667H273C272.69 84.1667 272.394 84.0438 272.175 83.825C271.956 83.6062 271.833 83.3095 271.833 83V71.6667C271.833 71.3573 271.956 71.0605 272.175 70.8417C272.394 70.623 272.69 70.5 273 70.5H273.833V69C273.833 68.6906 273.956 68.3939 274.175 68.1751ZM273.833 71.5H273C272.956 71.5 272.913 71.5176 272.882 71.5489C272.851 71.5801 272.833 71.6225 272.833 71.6667V83C272.833 83.0442 272.851 83.0866 272.882 83.1179C272.913 83.1491 272.956 83.1667 273 83.1667H284.333C284.377 83.1667 284.42 83.1491 284.451 83.1179C284.482 83.0866 284.5 83.0442 284.5 83V82.1667H275C274.69 82.1667 274.394 82.0438 274.175 81.825C273.956 81.6062 273.833 81.3095 273.833 81V71.5ZM275 81.1667C274.956 81.1667 274.913 81.1491 274.882 81.1179C274.851 81.0866 274.833 81.0442 274.833 81V69C274.833 68.9558 274.851 68.9134 274.882 68.8822C274.913 68.8509 274.956 68.8334 275 68.8334H287C287.044 68.8334 287.087 68.8509 287.118 68.8822C287.149 68.9134 287.167 68.9558 287.167 69V81C287.167 81.0442 287.149 81.0866 287.118 81.1179C287.087 81.1491 287.044 81.1667 287 81.1667H275Z" fill="var(--colors-neutral-neutral-800)"/>
<path d="M304 147.5H0V148.5H304V147.5Z" fill="var(--colors-neutral-neutral-400)"/>
<path d="M16.768 128V119.624H19.42C20.044 119.624 20.6 119.724 21.088 119.924C21.584 120.116 22.004 120.396 22.348 120.764C22.692 121.124 22.956 121.56 23.14 122.072C23.324 122.584 23.416 123.156 23.416 123.788C23.416 124.428 23.324 125.008 23.14 125.528C22.956 126.04 22.692 126.484 22.348 126.86C22.004 127.228 21.584 127.512 21.088 127.712C20.6 127.904 20.044 128 19.42 128H16.768ZM18.268 126.74H19.42C19.932 126.74 20.368 126.62 20.728 126.38C21.088 126.132 21.364 125.788 21.556 125.348C21.756 124.9 21.856 124.38 21.856 123.788C21.856 123.196 21.756 122.684 21.556 122.252C21.364 121.812 21.088 121.476 20.728 121.244C20.368 121.004 19.932 120.884 19.42 120.884H18.268V126.74ZM27.0327 128V121.376H28.4607V128H27.0327ZM24.6927 128V126.836H30.7047V128H24.6927ZM25.5447 122.54V121.376H27.7407V122.54H25.5447ZM26.9487 120.332V118.868H28.5087V120.332H26.9487ZM37.5374 128V123.224C37.5374 122.968 37.4934 122.768 37.4054 122.624C37.3254 122.48 37.1934 122.408 37.0094 122.408C36.7534 122.408 36.5254 122.576 36.3254 122.912C36.1334 123.24 35.9934 123.776 35.9054 124.52L35.7974 123.548C35.7894 122.82 35.9374 122.252 36.2414 121.844C36.5534 121.436 36.9454 121.232 37.4174 121.232C37.8414 121.232 38.1814 121.392 38.4374 121.712C38.7014 122.032 38.8334 122.492 38.8334 123.092V128H37.5374ZM32.1854 128V121.376H33.4334L33.4814 122.648V128H32.1854ZM34.8614 128V123.224C34.8614 122.952 34.8134 122.748 34.7174 122.612C34.6294 122.476 34.4934 122.408 34.3094 122.408C34.0374 122.408 33.8094 122.584 33.6254 122.936C33.4414 123.288 33.3054 123.816 33.2174 124.52L33.2054 123.5C33.2054 123.028 33.2774 122.624 33.4214 122.288C33.5734 121.944 33.7654 121.684 33.9974 121.508C34.2294 121.324 34.4814 121.232 34.7534 121.232C35.1934 121.232 35.5374 121.4 35.7854 121.736C36.0334 122.064 36.1574 122.508 36.1574 123.068V128H34.8614ZM43.3861 128.144C42.6901 128.144 42.0901 128.008 41.5861 127.736C41.0821 127.456 40.6941 127.056 40.4221 126.536C40.1581 126.016 40.0261 125.396 40.0261 124.676C40.0261 123.956 40.1621 123.34 40.4341 122.828C40.7061 122.308 41.0981 121.912 41.6101 121.64C42.1221 121.368 42.7341 121.232 43.4461 121.232C44.5501 121.232 45.3621 121.54 45.8821 122.156C46.4101 122.772 46.6381 123.616 46.5661 124.688H41.1661L41.1781 123.644L45.1021 123.656C45.0701 123.272 44.9021 122.964 44.5981 122.732C44.2941 122.5 43.9101 122.384 43.4461 122.384C42.7901 122.384 42.2941 122.588 41.9581 122.996C41.6221 123.404 41.4541 123.984 41.4541 124.736C41.4541 125.168 41.5301 125.556 41.6821 125.9C41.8341 126.236 42.0501 126.5 42.3301 126.692C42.6181 126.876 42.9701 126.968 43.3861 126.968C43.8581 126.968 44.2501 126.856 44.5621 126.632C44.8821 126.408 45.0781 126.108 45.1501 125.732H46.5901C46.4941 126.476 46.1581 127.064 45.5821 127.496C45.0141 127.928 44.2821 128.144 43.3861 128.144ZM52.7388 128V123.86C52.7388 123.428 52.6188 123.084 52.3788 122.828C52.1468 122.572 51.8428 122.444 51.4668 122.444C51.0348 122.444 50.6428 122.6 50.2908 122.912C49.9468 123.216 49.6508 123.708 49.4028 124.388L49.1868 122.96C49.4508 122.376 49.8108 121.944 50.2668 121.664C50.7228 121.376 51.2108 121.232 51.7308 121.232C52.2348 121.232 52.6668 121.34 53.0268 121.556C53.3948 121.764 53.6748 122.06 53.8668 122.444C54.0668 122.82 54.1668 123.264 54.1668 123.776V128H52.7388ZM48.1188 128V121.376H49.4868L49.5468 122.768V128H48.1188ZM59.0914 128.144C58.4994 128.144 57.9754 128.044 57.5194 127.844C57.0714 127.636 56.7234 127.344 56.4754 126.968C56.2274 126.592 56.0994 126.148 56.0914 125.636H57.4354C57.4274 126.084 57.5714 126.436 57.8674 126.692C58.1714 126.948 58.5794 127.076 59.0914 127.076C59.4994 127.076 59.8274 127 60.0754 126.848C60.3234 126.696 60.4474 126.488 60.4474 126.224C60.4474 126.016 60.3714 125.848 60.2194 125.72C60.0674 125.592 59.8634 125.492 59.6074 125.42C59.3594 125.348 59.0834 125.284 58.7794 125.228C58.4834 125.164 58.1834 125.092 57.8794 125.012C57.5754 124.924 57.2954 124.812 57.0394 124.676C56.7914 124.532 56.5914 124.344 56.4394 124.112C56.2874 123.88 56.2114 123.584 56.2114 123.224C56.2114 122.832 56.3194 122.488 56.5354 122.192C56.7594 121.888 57.0754 121.652 57.4834 121.484C57.8914 121.316 58.3714 121.232 58.9234 121.232C59.7554 121.232 60.4274 121.428 60.9394 121.82C61.4514 122.204 61.7274 122.736 61.7674 123.416H60.4354C60.4114 123.056 60.2634 122.78 59.9914 122.588C59.7274 122.396 59.3714 122.3 58.9234 122.3C58.5154 122.3 58.1994 122.38 57.9754 122.54C57.7594 122.7 57.6514 122.904 57.6514 123.152C57.6514 123.36 57.7274 123.52 57.8794 123.632C58.0394 123.744 58.2434 123.832 58.4914 123.896C58.7394 123.96 59.0154 124.02 59.3194 124.076C59.6234 124.124 59.9234 124.188 60.2194 124.268C60.5234 124.348 60.7994 124.46 61.0474 124.604C61.3034 124.74 61.5074 124.928 61.6594 125.168C61.8194 125.408 61.8994 125.72 61.8994 126.104C61.8994 126.736 61.6434 127.236 61.1314 127.604C60.6274 127.964 59.9474 128.144 59.0914 128.144ZM66.0561 128V121.376H67.4841V128H66.0561ZM63.7161 128V126.836H69.7281V128H63.7161ZM64.5681 122.54V121.376H66.7641V122.54H64.5681ZM65.9721 120.332V118.868H67.5321V120.332H65.9721ZM74.5328 128.144C73.8368 128.144 73.2368 128.004 72.7328 127.724C72.2368 127.444 71.8528 127.048 71.5808 126.536C71.3168 126.016 71.1848 125.4 71.1848 124.688C71.1848 123.968 71.3168 123.352 71.5808 122.84C71.8528 122.328 72.2368 121.932 72.7328 121.652C73.2368 121.372 73.8368 121.232 74.5328 121.232C75.5728 121.232 76.3888 121.54 76.9808 122.156C77.5728 122.764 77.8688 123.608 77.8688 124.688C77.8688 125.4 77.7328 126.016 77.4608 126.536C77.1968 127.048 76.8128 127.444 76.3088 127.724C75.8128 128.004 75.2208 128.144 74.5328 128.144ZM74.5328 126.968C75.1168 126.968 75.5768 126.764 75.9128 126.356C76.2568 125.948 76.4288 125.392 76.4288 124.688C76.4288 123.976 76.2568 123.42 75.9128 123.02C75.5768 122.612 75.1168 122.408 74.5328 122.408C73.9328 122.408 73.4648 122.612 73.1288 123.02C72.7928 123.42 72.6248 123.976 72.6248 124.688C72.6248 125.392 72.7928 125.948 73.1288 126.356C73.4648 126.764 73.9328 126.968 74.5328 126.968ZM83.9575 128V123.86C83.9575 123.428 83.8375 123.084 83.5975 122.828C83.3655 122.572 83.0615 122.444 82.6855 122.444C82.2535 122.444 81.8615 122.6 81.5095 122.912C81.1655 123.216 80.8695 123.708 80.6215 124.388L80.4055 122.96C80.6695 122.376 81.0295 121.944 81.4855 121.664C81.9415 121.376 82.4295 121.232 82.9495 121.232C83.4535 121.232 83.8855 121.34 84.2455 121.556C84.6135 121.764 84.8935 122.06 85.0855 122.444C85.2855 122.82 85.3855 123.264 85.3855 123.776V128H83.9575ZM79.3375 128V121.376H80.7055L80.7655 122.768V128H79.3375ZM90.3102 128.144C89.7182 128.144 89.1942 128.044 88.7382 127.844C88.2902 127.636 87.9422 127.344 87.6942 126.968C87.4462 126.592 87.3182 126.148 87.3102 125.636H88.6542C88.6462 126.084 88.7902 126.436 89.0862 126.692C89.3902 126.948 89.7982 127.076 90.3102 127.076C90.7182 127.076 91.0462 127 91.2942 126.848C91.5422 126.696 91.6662 126.488 91.6662 126.224C91.6662 126.016 91.5902 125.848 91.4382 125.72C91.2862 125.592 91.0822 125.492 90.8262 125.42C90.5782 125.348 90.3022 125.284 89.9982 125.228C89.7022 125.164 89.4022 125.092 89.0982 125.012C88.7942 124.924 88.5142 124.812 88.2582 124.676C88.0102 124.532 87.8102 124.344 87.6582 124.112C87.5062 123.88 87.4302 123.584 87.4302 123.224C87.4302 122.832 87.5382 122.488 87.7542 122.192C87.9782 121.888 88.2942 121.652 88.7022 121.484C89.1102 121.316 89.5902 121.232 90.1422 121.232C90.9742 121.232 91.6462 121.428 92.1582 121.82C92.6702 122.204 92.9462 122.736 92.9862 123.416H91.6542C91.6302 123.056 91.4822 122.78 91.2102 122.588C90.9462 122.396 90.5902 122.3 90.1422 122.3C89.7342 122.3 89.4182 122.38 89.1942 122.54C88.9782 122.7 88.8702 122.904 88.8702 123.152C88.8702 123.36 88.9462 123.52 89.0982 123.632C89.2582 123.744 89.4622 123.832 89.7102 123.896C89.9582 123.96 90.2342 124.02 90.5382 124.076C90.8422 124.124 91.1422 124.188 91.4382 124.268C91.7422 124.348 92.0182 124.46 92.2662 124.604C92.5222 124.74 92.7262 124.928 92.8782 125.168C93.0382 125.408 93.1182 125.72 93.1182 126.104C93.1182 126.736 92.8622 127.236 92.3502 127.604C91.8462 127.964 91.1662 128.144 90.3102 128.144Z" fill="var(--colors-neutral-neutral-800)"/>
<path d="M280 126.702L274.692 121.394L275.4 120.687L280 125.287L284.6 120.687L285.308 121.394L280 126.702Z" fill="var(--colors-neutral-neutral-800)"/>
<path d="M304 275.5H0V276.5H304V275.5Z" fill="var(--colors-neutral-neutral-400)"/>
<path d="M21.604 176V167.624H23.116V176H21.604ZM16.696 176V167.624H18.208V176H16.696ZM18.016 172.292V171.032H21.784V172.292H18.016ZM27.0327 176V169.376H28.4607V176H27.0327ZM24.6927 176V174.836H30.7047V176H24.6927ZM25.5447 170.54V169.376H27.7407V170.54H25.5447ZM26.9487 168.332V166.868H28.5087V168.332H26.9487ZM37.2134 170.24L37.2494 169.376H38.6174V175.22C38.6174 176.22 38.3494 176.98 37.8134 177.5C37.2774 178.02 36.4614 178.28 35.3654 178.28C34.7654 178.28 34.2454 178.2 33.8054 178.04C33.3654 177.888 33.0214 177.652 32.7734 177.332C32.5334 177.02 32.3974 176.624 32.3654 176.144H33.8654C33.9054 176.464 34.0534 176.704 34.3094 176.864C34.5654 177.024 34.9414 177.104 35.4374 177.104C36.0214 177.104 36.4574 176.952 36.7454 176.648C37.0414 176.352 37.1894 175.932 37.1894 175.388V174.668C36.9654 174.98 36.6734 175.224 36.3134 175.4C35.9614 175.576 35.5694 175.664 35.1374 175.664C34.5774 175.664 34.0774 175.524 33.6374 175.244C33.2054 174.964 32.8654 174.584 32.6174 174.104C32.3694 173.616 32.2454 173.068 32.2454 172.46C32.2454 171.796 32.3734 171.224 32.6294 170.744C32.8934 170.256 33.2494 169.884 33.6974 169.628C34.1454 169.372 34.6534 169.244 35.2214 169.244C35.6454 169.244 36.0294 169.336 36.3734 169.52C36.7254 169.704 37.0054 169.944 37.2134 170.24ZM35.4734 174.56C35.8734 174.56 36.2254 174.44 36.5294 174.2C36.8414 173.952 37.0614 173.628 37.1894 173.228V171.668C37.0614 171.26 36.8414 170.94 36.5294 170.708C36.2254 170.468 35.8734 170.348 35.4734 170.348C35.1214 170.348 34.8094 170.44 34.5374 170.624C34.2654 170.808 34.0534 171.056 33.9014 171.368C33.7494 171.68 33.6734 172.036 33.6734 172.436C33.6734 172.844 33.7494 173.208 33.9014 173.528C34.0534 173.84 34.2654 174.092 34.5374 174.284C34.8094 174.468 35.1214 174.56 35.4734 174.56ZM44.9341 176V171.872C44.9341 171.44 44.8141 171.096 44.5741 170.84C44.3421 170.576 44.0381 170.444 43.6621 170.444C43.2301 170.444 42.8381 170.6 42.4861 170.912C42.1421 171.216 41.8461 171.708 41.5981 172.388L41.3821 170.972C41.6461 170.38 42.0061 169.944 42.4621 169.664C42.9181 169.376 43.4061 169.232 43.9261 169.232C44.4301 169.232 44.8621 169.34 45.2221 169.556C45.5901 169.764 45.8701 170.06 46.0621 170.444C46.2621 170.828 46.3621 171.276 46.3621 171.788V176H44.9341ZM40.3141 176V167.144H41.7421V176H40.3141ZM48.4788 176L47.4468 169.352H48.7788L49.2828 172.976L49.4868 174.512L49.7628 172.976L50.4948 169.352H51.7788L52.5468 172.976L52.8348 174.536L53.0268 172.976L53.5308 169.352H54.8028L53.7828 176H52.1148L51.3468 172.532L51.1308 170.72L50.9028 172.532L50.1468 176H48.4788ZM60.5074 176L60.4474 174.596V171.62C60.4474 171.204 60.3074 170.876 60.0274 170.636C59.7474 170.396 59.3594 170.276 58.8634 170.276C58.3914 170.276 58.0034 170.384 57.6994 170.6C57.4034 170.816 57.2354 171.112 57.1954 171.488H55.8034C55.8434 171.016 55.9954 170.612 56.2594 170.276C56.5314 169.94 56.8914 169.684 57.3394 169.508C57.7954 169.324 58.3194 169.232 58.9114 169.232C59.5194 169.232 60.0434 169.328 60.4834 169.52C60.9314 169.712 61.2754 169.992 61.5154 170.36C61.7554 170.728 61.8754 171.176 61.8754 171.704V176H60.5074ZM58.2034 176.144C57.7714 176.144 57.3874 176.064 57.0514 175.904C56.7234 175.744 56.4674 175.516 56.2834 175.22C56.0994 174.924 56.0074 174.58 56.0074 174.188C56.0074 173.508 56.2714 172.98 56.7994 172.604C57.3274 172.22 58.0594 172.028 58.9954 172.028H60.6154V173.06L58.9474 173.072C58.4674 173.072 58.0914 173.164 57.8194 173.348C57.5474 173.524 57.4114 173.78 57.4114 174.116C57.4114 174.38 57.5074 174.592 57.6994 174.752C57.8994 174.912 58.1714 174.992 58.5154 174.992C58.9554 174.992 59.3474 174.876 59.6914 174.644C60.0434 174.404 60.3274 174.076 60.5434 173.66L60.6994 174.668C60.4914 175.156 60.1754 175.524 59.7514 175.772C59.3274 176.02 58.8114 176.144 58.2034 176.144ZM66.1161 172.328L66.7281 173.996L67.3521 172.316L68.6001 169.376H70.0641L67.0401 176.516C66.8561 176.964 66.6481 177.316 66.4161 177.572C66.1921 177.828 65.9361 178.008 65.6481 178.112C65.3601 178.224 65.0281 178.28 64.6521 178.28H63.4641V177.116H64.5321C64.7481 177.116 64.9281 177.068 65.0721 176.972C65.2241 176.884 65.3601 176.748 65.4801 176.564C65.6001 176.388 65.7161 176.168 65.8281 175.904L65.9961 175.52L63.3921 169.376H64.8801L66.1161 172.328Z" fill="var(--colors-neutral-neutral-800)"/>
<path d="M275.4 174.702L274.692 173.994L280 168.687L285.308 173.994L284.6 174.702L280 170.102L275.4 174.702Z" fill="var(--colors-neutral-neutral-800)"/>
<path d="M17.179 208.227L19.3381 214.349H19.4233L21.5824 208.227H22.5057L19.8352 215.5H18.9261L16.2557 208.227H17.179ZM25.304 215.614C24.7784 215.614 24.325 215.498 23.9439 215.266C23.5651 215.031 23.2727 214.705 23.0668 214.286C22.8632 213.864 22.7614 213.374 22.7614 212.815C22.7614 212.257 22.8632 211.764 23.0668 211.338C23.2727 210.91 23.5592 210.576 23.9261 210.337C24.2955 210.095 24.7263 209.974 25.2188 209.974C25.5028 209.974 25.7834 210.022 26.0604 210.116C26.3374 210.211 26.5895 210.365 26.8168 210.578C27.044 210.789 27.2251 211.068 27.3601 211.416C27.495 211.764 27.5625 212.193 27.5625 212.702V213.057H23.358V212.332H26.7102C26.7102 212.025 26.6487 211.75 26.5256 211.509C26.4048 211.267 26.232 211.076 26.0071 210.937C25.7846 210.797 25.5218 210.727 25.2188 210.727C24.8849 210.727 24.5961 210.81 24.3523 210.976C24.1108 211.139 23.925 211.352 23.7947 211.615C23.6645 211.878 23.5994 212.16 23.5994 212.46V212.943C23.5994 213.355 23.6705 213.704 23.8125 213.991C23.9569 214.275 24.157 214.491 24.4126 214.641C24.6683 214.787 24.9654 214.861 25.304 214.861C25.5241 214.861 25.723 214.83 25.9006 214.768C26.0805 214.705 26.2356 214.61 26.3658 214.484C26.496 214.357 26.5966 214.198 26.6676 214.009L27.4773 214.236C27.392 214.51 27.2488 214.752 27.0476 214.96C26.8464 215.166 26.5978 215.327 26.3018 215.443C26.0059 215.557 25.6733 215.614 25.304 215.614ZM29.6754 212.219V215.5H28.8374V208.227H29.6754V210.898H29.7464C29.8743 210.616 30.0661 210.392 30.3217 210.227C30.5798 210.058 30.9231 209.974 31.3516 209.974C31.7232 209.974 32.0488 210.049 32.3281 210.198C32.6075 210.345 32.8241 210.571 32.978 210.876C33.1342 211.179 33.2124 211.565 33.2124 212.034V215.5H32.3743V212.091C32.3743 211.658 32.2618 211.323 32.0369 211.086C31.8144 210.847 31.5054 210.727 31.1101 210.727C30.8355 210.727 30.5893 210.785 30.3714 210.901C30.156 211.017 29.9856 211.187 29.8601 211.409C29.737 211.632 29.6754 211.902 29.6754 212.219ZM34.7456 215.5V210.045H35.5836V215.5H34.7456ZM35.1717 209.136C35.0083 209.136 34.8675 209.081 34.7491 208.969C34.6331 208.858 34.5751 208.724 34.5751 208.568C34.5751 208.412 34.6331 208.278 34.7491 208.167C34.8675 208.056 35.0083 208 35.1717 208C35.335 208 35.4747 208.056 35.5907 208.167C35.7091 208.278 35.7683 208.412 35.7683 208.568C35.7683 208.724 35.7091 208.858 35.5907 208.969C35.4747 209.081 35.335 209.136 35.1717 209.136ZM39.3345 215.614C38.8232 215.614 38.3828 215.493 38.0135 215.251C37.6442 215.01 37.3601 214.677 37.1612 214.254C36.9624 213.83 36.8629 213.346 36.8629 212.801C36.8629 212.247 36.9647 211.758 37.1683 211.335C37.3743 210.908 37.6607 210.576 38.0277 210.337C38.397 210.095 38.8279 209.974 39.3203 209.974C39.7038 209.974 40.0495 210.045 40.3572 210.188C40.665 210.33 40.9171 210.528 41.1136 210.784C41.3101 211.04 41.4321 211.338 41.4794 211.679H40.6413C40.5774 211.43 40.4354 211.21 40.2152 211.018C39.9974 210.824 39.7038 210.727 39.3345 210.727C39.0078 210.727 38.7214 210.812 38.4751 210.983C38.2313 211.151 38.0407 211.389 37.9034 211.697C37.7685 212.002 37.701 212.361 37.701 212.773C37.701 213.194 37.7673 213.561 37.8999 213.874C38.0348 214.186 38.2242 214.429 38.468 214.602C38.7143 214.774 39.0031 214.861 39.3345 214.861C39.5523 214.861 39.75 214.823 39.9276 214.747C40.1051 214.671 40.2554 214.562 40.3786 214.42C40.5017 214.278 40.5893 214.108 40.6413 213.909H41.4794C41.4321 214.231 41.3149 214.521 41.1278 214.779C40.9432 215.035 40.6982 215.238 40.3928 215.39C40.0897 215.539 39.737 215.614 39.3345 215.614ZM43.5426 208.227V215.5H42.7045V208.227H43.5426ZM47.3645 215.614C46.839 215.614 46.3856 215.498 46.0044 215.266C45.6257 215.031 45.3333 214.705 45.1273 214.286C44.9237 213.864 44.8219 213.374 44.8219 212.815C44.8219 212.257 44.9237 211.764 45.1273 211.338C45.3333 210.91 45.6197 210.576 45.9867 210.337C46.356 210.095 46.7869 209.974 47.2793 209.974C47.5634 209.974 47.8439 210.022 48.1209 210.116C48.3979 210.211 48.65 210.365 48.8773 210.578C49.1046 210.789 49.2857 211.068 49.4206 211.416C49.5556 211.764 49.623 212.193 49.623 212.702V213.057H45.4185V212.332H48.7708C48.7708 212.025 48.7092 211.75 48.5861 211.509C48.4654 211.267 48.2926 211.076 48.0676 210.937C47.8451 210.797 47.5823 210.727 47.2793 210.727C46.9455 210.727 46.6567 210.81 46.4128 210.976C46.1713 211.139 45.9855 211.352 45.8553 211.615C45.7251 211.878 45.66 212.16 45.66 212.46V212.943C45.66 213.355 45.731 213.704 45.873 213.991C46.0175 214.275 46.2175 214.491 46.4732 214.641C46.7289 214.787 47.026 214.861 47.3645 214.861C47.5847 214.861 47.7836 214.83 47.9611 214.768C48.141 214.705 48.2961 214.61 48.4263 214.484C48.5565 214.357 48.6571 214.198 48.7282 214.009L49.5378 214.236C49.4526 214.51 49.3094 214.752 49.1081 214.96C48.9069 215.166 48.6583 215.327 48.3624 215.443C48.0665 215.557 47.7338 215.614 47.3645 215.614Z" fill="var(--colors-neutral-neutral-800)"/>
<path d="M145.179 215.5H144.256L146.926 208.227H147.835L150.506 215.5H149.582L147.409 209.378H147.352L145.179 215.5ZM145.52 212.659H149.241V213.44H145.52V212.659ZM152.363 208.227V215.5H151.525V208.227H152.363ZM154.736 208.227V215.5H153.898V208.227H154.736Z" fill="var(--colors-neutral-neutral-800)"/>
<path d="M16.8807 247.5V240.227H17.7614V246.719H21.142V247.5H16.8807ZM23.9972 247.628C23.6515 247.628 23.3378 247.563 23.0561 247.433C22.7744 247.3 22.5507 247.109 22.3849 246.861C22.2192 246.61 22.1364 246.307 22.1364 245.952C22.1364 245.639 22.1979 245.386 22.321 245.192C22.4441 244.995 22.6087 244.841 22.8146 244.73C23.0206 244.619 23.2479 244.536 23.4964 244.482C23.7474 244.425 23.9995 244.38 24.2528 244.347C24.5843 244.304 24.853 244.272 25.0589 244.251C25.2673 244.227 25.4188 244.188 25.5135 244.134C25.6106 244.079 25.6591 243.984 25.6591 243.849V243.821C25.6591 243.471 25.5632 243.198 25.3714 243.004C25.1821 242.81 24.8944 242.713 24.5085 242.713C24.1084 242.713 23.7947 242.801 23.5675 242.976C23.3402 243.151 23.1804 243.338 23.0881 243.537L22.2926 243.253C22.4347 242.921 22.6241 242.663 22.8608 242.479C23.0999 242.292 23.3603 242.161 23.642 242.088C23.9261 242.012 24.2055 241.974 24.4801 241.974C24.6553 241.974 24.8565 241.996 25.0838 242.038C25.3134 242.079 25.5348 242.163 25.7479 242.29C25.9633 242.418 26.142 242.611 26.2841 242.869C26.4261 243.127 26.4972 243.473 26.4972 243.906V247.5H25.6591V246.761H25.6165C25.5597 246.88 25.465 247.006 25.3324 247.141C25.1998 247.276 25.0234 247.391 24.8033 247.486C24.5831 247.58 24.3144 247.628 23.9972 247.628ZM24.125 246.875C24.4564 246.875 24.7358 246.81 24.9631 246.68C25.1927 246.549 25.3655 246.381 25.4815 246.175C25.5999 245.969 25.6591 245.753 25.6591 245.526V244.759C25.6236 244.801 25.5455 244.84 25.4247 244.876C25.3063 244.909 25.169 244.938 25.0128 244.964C24.8589 244.988 24.7086 245.009 24.5618 245.028C24.4174 245.045 24.3002 245.059 24.2102 245.071C23.9924 245.099 23.7888 245.146 23.5994 245.21C23.4124 245.271 23.2609 245.365 23.1449 245.49C23.0313 245.613 22.9744 245.781 22.9744 245.994C22.9744 246.286 23.0821 246.506 23.2976 246.655C23.5154 246.802 23.7912 246.875 24.125 246.875ZM28.8649 244.219V247.5H28.0268V242.045H28.8365V242.898H28.9075C29.0353 242.621 29.2295 242.398 29.4899 242.23C29.7503 242.06 30.0865 241.974 30.4984 241.974C30.8677 241.974 31.1909 242.05 31.4679 242.202C31.7449 242.351 31.9603 242.578 32.1142 242.884C32.2681 243.187 32.345 243.57 32.345 244.034V247.5H31.5069V244.091C31.5069 243.662 31.3957 243.329 31.1731 243.089C30.9506 242.848 30.6452 242.727 30.2569 242.727C29.9894 242.727 29.7503 242.785 29.5396 242.901C29.3313 243.017 29.1667 243.187 29.046 243.409C28.9252 243.632 28.8649 243.902 28.8649 244.219ZM36.1634 247.614C35.6378 247.614 35.1844 247.498 34.8033 247.266C34.4245 247.031 34.1321 246.705 33.9261 246.286C33.7225 245.864 33.6207 245.374 33.6207 244.815C33.6207 244.257 33.7225 243.764 33.9261 243.338C34.1321 242.91 34.4186 242.576 34.7855 242.337C35.1548 242.095 35.5857 241.974 36.0781 241.974C36.3622 241.974 36.6428 242.022 36.9197 242.116C37.1967 242.211 37.4489 242.365 37.6761 242.578C37.9034 242.789 38.0845 243.068 38.2195 243.416C38.3544 243.764 38.4219 244.193 38.4219 244.702V245.057H34.2173V244.332H37.5696C37.5696 244.025 37.508 243.75 37.3849 243.509C37.2642 243.267 37.0914 243.076 36.8665 242.937C36.6439 242.797 36.3812 242.727 36.0781 242.727C35.7443 242.727 35.4555 242.81 35.2116 242.976C34.9702 243.139 34.7843 243.352 34.6541 243.615C34.5239 243.878 34.4588 244.16 34.4588 244.46V244.943C34.4588 245.355 34.5298 245.704 34.6719 245.991C34.8163 246.275 35.0163 246.491 35.272 246.641C35.5277 246.787 35.8248 246.861 36.1634 246.861C36.3835 246.861 36.5824 246.83 36.7599 246.768C36.9399 246.705 37.0949 246.61 37.2251 246.484C37.3554 246.357 37.456 246.198 37.527 246.009L38.3366 246.236C38.2514 246.51 38.1082 246.752 37.907 246.96C37.7057 247.166 37.4571 247.327 37.1612 247.443C36.8653 247.557 36.5327 247.614 36.1634 247.614ZM44.5689 247.614C44.1143 247.614 43.7131 247.499 43.3651 247.269C43.017 247.037 42.7448 246.71 42.5483 246.289C42.3518 245.865 42.2536 245.365 42.2536 244.787C42.2536 244.214 42.3518 243.717 42.5483 243.295C42.7448 242.874 43.0182 242.549 43.3686 242.319C43.719 242.089 44.1238 241.974 44.5831 241.974C44.9382 241.974 45.2188 242.034 45.4247 242.152C45.633 242.268 45.7917 242.401 45.9006 242.55C46.0118 242.696 46.0982 242.817 46.1598 242.912H46.2308V240.227H47.0689V247.5H46.2592V246.662H46.1598C46.0982 246.761 46.0107 246.887 45.897 247.038C45.7834 247.187 45.6212 247.321 45.4105 247.44C45.1998 247.556 44.9193 247.614 44.5689 247.614ZM44.6825 246.861C45.0187 246.861 45.3028 246.773 45.5348 246.598C45.7668 246.42 45.9432 246.175 46.0639 245.863C46.1847 245.548 46.245 245.185 46.245 244.773C46.245 244.366 46.1858 244.009 46.0675 243.704C45.9491 243.396 45.7739 243.157 45.5419 242.987C45.3099 242.814 45.0234 242.727 44.6825 242.727C44.3274 242.727 44.0315 242.818 43.7947 243.001C43.5604 243.181 43.384 243.426 43.2656 243.736C43.1496 244.044 43.0916 244.389 43.0916 244.773C43.0916 245.161 43.1508 245.514 43.2692 245.831C43.3899 246.146 43.5675 246.397 43.8018 246.584C44.0386 246.768 44.3321 246.861 44.6825 246.861ZM48.7202 247.5V242.045H49.5582V247.5H48.7202ZM49.1463 241.136C48.983 241.136 48.8421 241.081 48.7237 240.969C48.6077 240.858 48.5497 240.724 48.5497 240.568C48.5497 240.412 48.6077 240.278 48.7237 240.167C48.8421 240.056 48.983 240 49.1463 240C49.3097 240 49.4493 240.056 49.5653 240.167C49.6837 240.278 49.7429 240.412 49.7429 240.568C49.7429 240.724 49.6837 240.858 49.5653 240.969C49.4493 241.081 49.3097 241.136 49.1463 241.136ZM51.0932 247.5V242.045H51.9029V242.869H51.9597C52.0591 242.599 52.2391 242.38 52.4995 242.212C52.7599 242.044 53.0534 241.96 53.3801 241.96C53.4417 241.96 53.5186 241.961 53.611 241.964C53.7033 241.966 53.7731 241.97 53.8205 241.974V242.827C53.7921 242.82 53.727 242.809 53.6252 242.795C53.5257 242.778 53.4204 242.77 53.3091 242.77C53.044 242.77 52.8072 242.826 52.5989 242.937C52.3929 243.046 52.2296 243.197 52.1088 243.391C51.9905 243.583 51.9313 243.802 51.9313 244.048V247.5H51.0932ZM56.9348 247.614C56.4093 247.614 55.9559 247.498 55.5748 247.266C55.196 247.031 54.9036 246.705 54.6976 246.286C54.494 245.864 54.3922 245.374 54.3922 244.815C54.3922 244.257 54.494 243.764 54.6976 243.338C54.9036 242.91 55.19 242.576 55.557 242.337C55.9263 242.095 56.3572 241.974 56.8496 241.974C57.1337 241.974 57.4142 242.022 57.6912 242.116C57.9682 242.211 58.2203 242.365 58.4476 242.578C58.6749 242.789 58.856 243.068 58.9909 243.416C59.1259 243.764 59.1934 244.193 59.1934 244.702V245.057H54.9888V244.332H58.3411C58.3411 244.025 58.2795 243.75 58.1564 243.509C58.0357 243.267 57.8629 243.076 57.638 242.937C57.4154 242.797 57.1526 242.727 56.8496 242.727C56.5158 242.727 56.227 242.81 55.9831 242.976C55.7417 243.139 55.5558 243.352 55.4256 243.615C55.2954 243.878 55.2303 244.16 55.2303 244.46V244.943C55.2303 245.355 55.3013 245.704 55.4434 245.991C55.5878 246.275 55.7878 246.491 56.0435 246.641C56.2992 246.787 56.5963 246.861 56.9348 246.861C57.155 246.861 57.3539 246.83 57.5314 246.768C57.7114 246.705 57.8664 246.61 57.9966 246.484C58.1268 246.357 58.2275 246.198 58.2985 246.009L59.1081 246.236C59.0229 246.51 58.8797 246.752 58.6784 246.96C58.4772 247.166 58.2286 247.327 57.9327 247.443C57.6368 247.557 57.3042 247.614 56.9348 247.614ZM62.6841 247.614C62.1728 247.614 61.7324 247.493 61.3631 247.251C60.9938 247.01 60.7097 246.677 60.5108 246.254C60.312 245.83 60.2125 245.346 60.2125 244.801C60.2125 244.247 60.3143 243.758 60.5179 243.335C60.7239 242.908 61.0104 242.576 61.3773 242.337C61.7466 242.095 62.1775 241.974 62.6699 241.974C63.0534 241.974 63.3991 242.045 63.7069 242.188C64.0146 242.33 64.2667 242.528 64.4632 242.784C64.6597 243.04 64.7817 243.338 64.829 243.679H63.9909C63.927 243.43 63.785 243.21 63.5648 243.018C63.347 242.824 63.0534 242.727 62.6841 242.727C62.3574 242.727 62.071 242.812 61.8248 242.983C61.5809 243.151 61.3903 243.389 61.253 243.697C61.1181 244.002 61.0506 244.361 61.0506 244.773C61.0506 245.194 61.1169 245.561 61.2495 245.874C61.3844 246.186 61.5738 246.429 61.8176 246.602C62.0639 246.774 62.3527 246.861 62.6841 246.861C62.9019 246.861 63.0996 246.823 63.2772 246.747C63.4547 246.671 63.6051 246.562 63.7282 246.42C63.8513 246.278 63.9389 246.108 63.9909 245.909H64.829C64.7817 246.231 64.6645 246.521 64.4775 246.779C64.2928 247.035 64.0478 247.238 63.7424 247.39C63.4393 247.539 63.0866 247.614 62.6841 247.614ZM68.4263 242.045V242.756H65.5996V242.045H68.4263ZM66.4235 240.739H67.2615V245.938C67.2615 246.174 67.2959 246.352 67.3645 246.47C67.4355 246.586 67.5255 246.664 67.6344 246.705C67.7457 246.742 67.8629 246.761 67.986 246.761C68.0783 246.761 68.1541 246.757 68.2132 246.747C68.2724 246.735 68.3198 246.726 68.3553 246.719L68.5257 247.472C68.4689 247.493 68.3896 247.514 68.2878 247.536C68.186 247.559 68.057 247.571 67.9007 247.571C67.664 247.571 67.432 247.52 67.2047 247.418C66.9798 247.317 66.7928 247.161 66.6436 246.953C66.4969 246.745 66.4235 246.482 66.4235 246.165V240.739ZM69.687 247.5V242.045H70.525V247.5H69.687ZM70.1131 241.136C69.9498 241.136 69.8089 241.081 69.6905 240.969C69.5745 240.858 69.5165 240.724 69.5165 240.568C69.5165 240.412 69.5745 240.278 69.6905 240.167C69.8089 240.056 69.9498 240 70.1131 240C70.2765 240 70.4161 240.056 70.5321 240.167C70.6505 240.278 70.7097 240.412 70.7097 240.568C70.7097 240.724 70.6505 240.858 70.5321 240.969C70.4161 241.081 70.2765 241.136 70.1131 241.136ZM74.2759 247.614C73.7835 247.614 73.3514 247.496 72.9798 247.262C72.6104 247.028 72.3216 246.7 72.1133 246.278C71.9073 245.857 71.8043 245.365 71.8043 244.801C71.8043 244.233 71.9073 243.737 72.1133 243.313C72.3216 242.889 72.6104 242.56 72.9798 242.326C73.3514 242.092 73.7835 241.974 74.2759 241.974C74.7683 241.974 75.1992 242.092 75.5685 242.326C75.9402 242.56 76.229 242.889 76.435 243.313C76.6433 243.737 76.7475 244.233 76.7475 244.801C76.7475 245.365 76.6433 245.857 76.435 246.278C76.229 246.7 75.9402 247.028 75.5685 247.262C75.1992 247.496 74.7683 247.614 74.2759 247.614ZM74.2759 246.861C74.65 246.861 74.9577 246.765 75.1992 246.573C75.4407 246.381 75.6194 246.129 75.7354 245.817C75.8514 245.504 75.9094 245.166 75.9094 244.801C75.9094 244.437 75.8514 244.097 75.7354 243.782C75.6194 243.467 75.4407 243.213 75.1992 243.018C74.9577 242.824 74.65 242.727 74.2759 242.727C73.9019 242.727 73.5941 242.824 73.3526 243.018C73.1112 243.213 72.9324 243.467 72.8164 243.782C72.7004 244.097 72.6424 244.437 72.6424 244.801C72.6424 245.166 72.7004 245.504 72.8164 245.817C72.9324 246.129 73.1112 246.381 73.3526 246.573C73.5941 246.765 73.9019 246.861 74.2759 246.861ZM78.8649 244.219V247.5H78.0268V242.045H78.8365V242.898H78.9075C79.0353 242.621 79.2295 242.398 79.4899 242.23C79.7503 242.06 80.0865 241.974 80.4984 241.974C80.8677 241.974 81.1909 242.05 81.4679 242.202C81.7449 242.351 81.9603 242.578 82.1142 242.884C82.2681 243.187 82.345 243.57 82.345 244.034V247.5H81.5069V244.091C81.5069 243.662 81.3957 243.329 81.1731 243.089C80.9506 242.848 80.6452 242.727 80.2569 242.727C79.9894 242.727 79.7503 242.785 79.5396 242.901C79.3313 243.017 79.1667 243.187 79.046 243.409C78.9252 243.632 78.8649 243.902 78.8649 244.219Z" fill="var(--colors-neutral-neutral-800)"/>
<path d="M153.066 248.212L152.535 247.681L155.981 244.231L152.535 240.781L153.066 240.25L157.047 244.231L153.066 248.212ZM157.641 248.212L157.11 247.681L160.556 244.231L157.11 240.781L157.641 240.25L161.622 244.231L157.641 248.212Z" fill="var(--colors-neutral-neutral-800)"/>
<path d="M148.446 248.212L144.465 244.231L148.446 240.25L148.977 240.781L145.531 244.231L148.977 247.681L148.446 248.212ZM153.021 248.212L149.04 244.231L153.021 240.25L153.552 240.781L150.106 244.231L153.552 247.681L153.021 248.212Z" fill="var(--colors-neutral-neutral-800)"/>
<path d="M176.438 247.981L172.457 244L176.438 240.019L176.968 240.55L173.523 244L176.968 247.45L176.438 247.981ZM181.013 247.981L177.032 244L181.013 240.019L181.543 240.55L178.098 244L181.543 247.45L181.013 247.981Z" fill="var(--colors-neutral-neutral-800)"/>
<path d="M196.988 247.981L196.457 247.45L199.902 244L196.457 240.55L196.988 240.019L200.968 244L196.988 247.981ZM201.563 247.981L201.032 247.45L204.477 244L201.032 240.55L201.563 240.019L205.543 244L201.563 247.981Z" fill="var(--colors-neutral-neutral-800)"/>
<path d="M274.461 245C274.186 245 273.951 244.902 273.755 244.706C273.559 244.51 273.461 244.275 273.461 244C273.461 243.725 273.559 243.49 273.755 243.294C273.951 243.098 274.186 243 274.461 243C274.736 243 274.972 243.098 275.168 243.294C275.364 243.49 275.461 243.725 275.461 244C275.461 244.275 275.364 244.51 275.168 244.706C274.972 244.902 274.736 245 274.461 245ZM280 245C279.725 245 279.489 244.902 279.294 244.706C279.098 244.51 279 244.275 279 244C279 243.725 279.098 243.49 279.294 243.294C279.489 243.098 279.725 243 280 243C280.275 243 280.51 243.098 280.706 243.294C280.902 243.49 281 243.725 281 244C281 244.275 280.902 244.51 280.706 244.706C280.51 244.902 280.275 245 280 245ZM285.538 245C285.263 245 285.028 244.902 284.832 244.706C284.636 244.51 284.538 244.275 284.538 244C284.538 243.725 284.636 243.49 284.832 243.294C285.028 243.098 285.263 243 285.538 243C285.813 243 286.049 243.098 286.245 243.294C286.44 243.49 286.538 243.725 286.538 244C286.538 244.275 286.44 244.51 286.245 244.706C286.049 244.902 285.813 245 285.538 245Z" fill="var(--colors-neutral-neutral-800)"/>
<path d="M304 323.5H0V324.5H304V323.5Z" fill="var(--colors-neutral-neutral-400)"/>
<path d="M17.212 304V295.624H18.724V302.74H22.996V304H17.212ZM29.2887 304L29.2287 302.596V299.62C29.2287 299.204 29.0887 298.876 28.8087 298.636C28.5287 298.396 28.1407 298.276 27.6447 298.276C27.1727 298.276 26.7847 298.384 26.4807 298.6C26.1847 298.816 26.0167 299.112 25.9767 299.488H24.5847C24.6247 299.016 24.7767 298.612 25.0407 298.276C25.3127 297.94 25.6727 297.684 26.1207 297.508C26.5767 297.324 27.1007 297.232 27.6927 297.232C28.3007 297.232 28.8247 297.328 29.2647 297.52C29.7127 297.712 30.0567 297.992 30.2967 298.36C30.5367 298.728 30.6567 299.176 30.6567 299.704V304H29.2887ZM26.9847 304.144C26.5527 304.144 26.1687 304.064 25.8327 303.904C25.5047 303.744 25.2487 303.516 25.0647 303.22C24.8807 302.924 24.7887 302.58 24.7887 302.188C24.7887 301.508 25.0527 300.98 25.5807 300.604C26.1087 300.22 26.8407 300.028 27.7767 300.028H29.3967V301.06L27.7287 301.072C27.2487 301.072 26.8727 301.164 26.6007 301.348C26.3287 301.524 26.1927 301.78 26.1927 302.116C26.1927 302.38 26.2887 302.592 26.4807 302.752C26.6807 302.912 26.9527 302.992 27.2967 302.992C27.7367 302.992 28.1287 302.876 28.4727 302.644C28.8247 302.404 29.1087 302.076 29.3247 301.66L29.4807 302.668C29.2727 303.156 28.9567 303.524 28.5327 303.772C28.1087 304.02 27.5927 304.144 26.9847 304.144ZM34.8974 300.328L35.5094 301.996L36.1334 300.316L37.3814 297.376H38.8454L35.8214 304.516C35.6374 304.964 35.4294 305.316 35.1974 305.572C34.9734 305.828 34.7174 306.008 34.4294 306.112C34.1414 306.224 33.8094 306.28 33.4334 306.28H32.2454V305.116H33.3134C33.5294 305.116 33.7094 305.068 33.8534 304.972C34.0054 304.884 34.1414 304.748 34.2614 304.564C34.3814 304.388 34.4974 304.168 34.6094 303.904L34.7774 303.52L32.1734 297.376H33.6614L34.8974 300.328ZM43.3861 304.144C42.6901 304.144 42.0901 304.008 41.5861 303.736C41.0821 303.456 40.6941 303.056 40.4221 302.536C40.1581 302.016 40.0261 301.396 40.0261 300.676C40.0261 299.956 40.1621 299.34 40.4341 298.828C40.7061 298.308 41.0981 297.912 41.6101 297.64C42.1221 297.368 42.7341 297.232 43.4461 297.232C44.5501 297.232 45.3621 297.54 45.8821 298.156C46.4101 298.772 46.6381 299.616 46.5661 300.688H41.1661L41.1781 299.644L45.1021 299.656C45.0701 299.272 44.9021 298.964 44.5981 298.732C44.2941 298.5 43.9101 298.384 43.4461 298.384C42.7901 298.384 42.2941 298.588 41.9581 298.996C41.6221 299.404 41.4541 299.984 41.4541 300.736C41.4541 301.168 41.5301 301.556 41.6821 301.9C41.8341 302.236 42.0501 302.5 42.3301 302.692C42.6181 302.876 42.9701 302.968 43.3861 302.968C43.8581 302.968 44.2501 302.856 44.5621 302.632C44.8821 302.408 45.0781 302.108 45.1501 301.732H46.5901C46.4941 302.476 46.1581 303.064 45.5821 303.496C45.0141 303.928 44.2821 304.144 43.3861 304.144ZM52.7988 300.376V299.548C52.7988 299.22 52.6988 298.956 52.4988 298.756C52.3068 298.548 52.0268 298.444 51.6588 298.444C51.2108 298.444 50.8028 298.608 50.4348 298.936C50.0668 299.264 49.7588 299.78 49.5108 300.484L49.3308 299.14C49.5148 298.724 49.7308 298.376 49.9788 298.096C50.2348 297.808 50.5228 297.592 50.8428 297.448C51.1708 297.304 51.5268 297.232 51.9108 297.232C52.5908 297.232 53.1468 297.432 53.5788 297.832C54.0108 298.232 54.2268 298.804 54.2268 299.548V300.376H52.7988ZM48.3348 304V297.376H49.6908L49.7628 298.78V304H48.3348ZM59.0914 304.144C58.4994 304.144 57.9754 304.044 57.5194 303.844C57.0714 303.636 56.7234 303.344 56.4754 302.968C56.2274 302.592 56.0994 302.148 56.0914 301.636H57.4354C57.4274 302.084 57.5714 302.436 57.8674 302.692C58.1714 302.948 58.5794 303.076 59.0914 303.076C59.4994 303.076 59.8274 303 60.0754 302.848C60.3234 302.696 60.4474 302.488 60.4474 302.224C60.4474 302.016 60.3714 301.848 60.2194 301.72C60.0674 301.592 59.8634 301.492 59.6074 301.42C59.3594 301.348 59.0834 301.284 58.7794 301.228C58.4834 301.164 58.1834 301.092 57.8794 301.012C57.5754 300.924 57.2954 300.812 57.0394 300.676C56.7914 300.532 56.5914 300.344 56.4394 300.112C56.2874 299.88 56.2114 299.584 56.2114 299.224C56.2114 298.832 56.3194 298.488 56.5354 298.192C56.7594 297.888 57.0754 297.652 57.4834 297.484C57.8914 297.316 58.3714 297.232 58.9234 297.232C59.7554 297.232 60.4274 297.428 60.9394 297.82C61.4514 298.204 61.7274 298.736 61.7674 299.416H60.4354C60.4114 299.056 60.2634 298.78 59.9914 298.588C59.7274 298.396 59.3714 298.3 58.9234 298.3C58.5154 298.3 58.1994 298.38 57.9754 298.54C57.7594 298.7 57.6514 298.904 57.6514 299.152C57.6514 299.36 57.7274 299.52 57.8794 299.632C58.0394 299.744 58.2434 299.832 58.4914 299.896C58.7394 299.96 59.0154 300.02 59.3194 300.076C59.6234 300.124 59.9234 300.188 60.2194 300.268C60.5234 300.348 60.7994 300.46 61.0474 300.604C61.3034 300.74 61.5074 300.928 61.6594 301.168C61.8194 301.408 61.8994 301.72 61.8994 302.104C61.8994 302.736 61.6434 303.236 61.1314 303.604C60.6274 303.964 59.9474 304.144 59.0914 304.144Z" fill="var(--colors-neutral-neutral-800)"/>
<path d="M280 302.702L274.692 297.394L275.4 296.687L280 301.287L284.6 296.687L285.308 297.394L280 302.702Z" fill="var(--colors-neutral-neutral-800)"/>
</svg>
