<svg width="320" height="232" viewBox="0 0 320 232" fill="none" xmlns="http://www.w3.org/2000/svg">
<g clip-path="url(#clip0_2996_4684)">
<rect width="288" height="32" transform="translate(16)" fill="white"/>
<path d="M16.8807 20V12.7273H17.7614V19.2188H21.142V20H16.8807ZM23.9972 20.1278C23.6515 20.1278 23.3378 20.0627 23.0561 19.9325C22.7744 19.8 22.5507 19.6094 22.3849 19.3608C22.2192 19.1098 22.1364 18.8068 22.1364 18.4517C22.1364 18.1392 22.1979 17.8859 22.321 17.6918C22.4441 17.4953 22.6087 17.3414 22.8146 17.2301C23.0206 17.1188 23.2479 17.036 23.4964 16.9815C23.7474 16.9247 23.9995 16.8797 24.2528 16.8466C24.5843 16.804 24.853 16.772 25.0589 16.7507C25.2673 16.727 25.4188 16.688 25.5135 16.6335C25.6106 16.5791 25.6591 16.4844 25.6591 16.3494V16.321C25.6591 15.9706 25.5632 15.6984 25.3714 15.5043C25.1821 15.3101 24.8944 15.2131 24.5085 15.2131C24.1084 15.2131 23.7947 15.3007 23.5675 15.4759C23.3402 15.651 23.1804 15.8381 23.0881 16.0369L22.2926 15.7528C22.4347 15.4214 22.6241 15.1634 22.8608 14.9787C23.0999 14.7917 23.3603 14.6615 23.642 14.5881C23.9261 14.5123 24.2055 14.4744 24.4801 14.4744C24.6553 14.4744 24.8565 14.4957 25.0838 14.5384C25.3134 14.5786 25.5348 14.6626 25.7479 14.7905C25.9633 14.9183 26.142 15.1113 26.2841 15.3693C26.4261 15.6274 26.4972 15.973 26.4972 16.4062V20H25.6591V19.2614H25.6165C25.5597 19.3797 25.465 19.5064 25.3324 19.6413C25.1998 19.7763 25.0234 19.8911 24.8033 19.9858C24.5831 20.0805 24.3144 20.1278 23.9972 20.1278ZM24.125 19.375C24.4564 19.375 24.7358 19.3099 24.9631 19.1797C25.1927 19.0495 25.3655 18.8814 25.4815 18.6754C25.5999 18.4695 25.6591 18.2528 25.6591 18.0256V17.2585C25.6236 17.3011 25.5455 17.3402 25.4247 17.3757C25.3063 17.4089 25.169 17.4384 25.0128 17.4645C24.8589 17.4882 24.7086 17.5095 24.5618 17.5284C24.4174 17.545 24.3002 17.5592 24.2102 17.571C23.9924 17.5994 23.7888 17.6456 23.5994 17.7095C23.4124 17.7711 23.2609 17.8646 23.1449 17.9901C23.0313 18.1132 22.9744 18.2812 22.9744 18.4943C22.9744 18.7855 23.0821 19.0057 23.2976 19.1548C23.5154 19.3016 23.7912 19.375 24.125 19.375ZM28.8649 16.7188V20H28.0268V14.5455H28.8365V15.3977H28.9075C29.0353 15.1207 29.2295 14.8982 29.4899 14.7301C29.7503 14.5597 30.0865 14.4744 30.4984 14.4744C30.8677 14.4744 31.1909 14.5502 31.4679 14.7017C31.7449 14.8509 31.9603 15.0781 32.1142 15.3835C32.2681 15.6866 32.345 16.0701 32.345 16.5341V20H31.5069V16.5909C31.5069 16.1624 31.3957 15.8286 31.1731 15.5895C30.9506 15.348 30.6452 15.2273 30.2569 15.2273C29.9894 15.2273 29.7503 15.2853 29.5396 15.4013C29.3313 15.5173 29.1667 15.6866 29.046 15.9091C28.9252 16.1316 28.8649 16.4015 28.8649 16.7188ZM36.1634 20.1136C35.6378 20.1136 35.1844 19.9976 34.8033 19.7656C34.4245 19.5312 34.1321 19.2045 33.9261 18.7855C33.7225 18.3641 33.6207 17.8741 33.6207 17.3153C33.6207 16.7566 33.7225 16.2642 33.9261 15.8381C34.1321 15.4096 34.4186 15.0758 34.7855 14.8366C35.1548 14.5952 35.5857 14.4744 36.0781 14.4744C36.3622 14.4744 36.6428 14.5218 36.9197 14.6165C37.1967 14.7112 37.4489 14.8651 37.6761 15.0781C37.9034 15.2888 38.0845 15.5682 38.2195 15.9162C38.3544 16.2642 38.4219 16.6927 38.4219 17.2017V17.5568H34.2173V16.8324H37.5696C37.5696 16.5246 37.508 16.25 37.3849 16.0085C37.2642 15.767 37.0914 15.5765 36.8665 15.4368C36.6439 15.2971 36.3812 15.2273 36.0781 15.2273C35.7443 15.2273 35.4555 15.3101 35.2116 15.4759C34.9702 15.6392 34.7843 15.8523 34.6541 16.1151C34.5239 16.3778 34.4588 16.6596 34.4588 16.9602V17.4432C34.4588 17.8551 34.5298 18.2043 34.6719 18.4908C34.8163 18.7749 35.0163 18.9915 35.272 19.1406C35.5277 19.2874 35.8248 19.3608 36.1634 19.3608C36.3835 19.3608 36.5824 19.33 36.7599 19.2685C36.9399 19.2045 37.0949 19.1098 37.2251 18.9844C37.3554 18.8565 37.456 18.6979 37.527 18.5085L38.3366 18.7358C38.2514 19.0104 38.1082 19.2519 37.907 19.4602C37.7057 19.6662 37.4571 19.8272 37.1612 19.9432C36.8653 20.0568 36.5327 20.1136 36.1634 20.1136ZM44.5689 20.1136C44.1143 20.1136 43.7131 19.9988 43.3651 19.7692C43.017 19.5372 42.7448 19.2105 42.5483 18.7891C42.3518 18.3653 42.2536 17.8646 42.2536 17.2869C42.2536 16.714 42.3518 16.2169 42.5483 15.7955C42.7448 15.3741 43.0182 15.0485 43.3686 14.8189C43.719 14.5893 44.1238 14.4744 44.5831 14.4744C44.9382 14.4744 45.2188 14.5336 45.4247 14.652C45.633 14.768 45.7917 14.9006 45.9006 15.0497C46.0118 15.1965 46.0982 15.3172 46.1598 15.4119H46.2308V12.7273H47.0689V20H46.2592V19.1619H46.1598C46.0982 19.2614 46.0107 19.3868 45.897 19.5384C45.7834 19.6875 45.6212 19.8213 45.4105 19.9396C45.1998 20.0556 44.9193 20.1136 44.5689 20.1136ZM44.6825 19.3608C45.0187 19.3608 45.3028 19.2732 45.5348 19.098C45.7668 18.9205 45.9432 18.6754 46.0639 18.3629C46.1847 18.0481 46.245 17.6847 46.245 17.2727C46.245 16.8655 46.1858 16.5092 46.0675 16.2038C45.9491 15.8961 45.7739 15.657 45.5419 15.4865C45.3099 15.3137 45.0234 15.2273 44.6825 15.2273C44.3274 15.2273 44.0315 15.3184 43.7947 15.5007C43.5604 15.6806 43.384 15.9257 43.2656 16.2358C43.1496 16.5436 43.0916 16.8892 43.0916 17.2727C43.0916 17.661 43.1508 18.0137 43.2692 18.331C43.3899 18.6458 43.5675 18.8968 43.8018 19.0838C44.0386 19.2685 44.3321 19.3608 44.6825 19.3608ZM48.7202 20V14.5455H49.5582V20H48.7202ZM49.1463 13.6364C48.983 13.6364 48.8421 13.5807 48.7237 13.4695C48.6077 13.3582 48.5497 13.2244 48.5497 13.0682C48.5497 12.9119 48.6077 12.7782 48.7237 12.6669C48.8421 12.5556 48.983 12.5 49.1463 12.5C49.3097 12.5 49.4493 12.5556 49.5653 12.6669C49.6837 12.7782 49.7429 12.9119 49.7429 13.0682C49.7429 13.2244 49.6837 13.3582 49.5653 13.4695C49.4493 13.5807 49.3097 13.6364 49.1463 13.6364ZM51.0932 20V14.5455H51.9029V15.3693H51.9597C52.0591 15.0994 52.2391 14.8804 52.4995 14.7124C52.7599 14.5443 53.0534 14.4602 53.3801 14.4602C53.4417 14.4602 53.5186 14.4614 53.611 14.4638C53.7033 14.4661 53.7731 14.4697 53.8205 14.4744V15.3267C53.7921 15.3196 53.727 15.3089 53.6252 15.2947C53.5257 15.2782 53.4204 15.2699 53.3091 15.2699C53.044 15.2699 52.8072 15.3255 52.5989 15.4368C52.3929 15.5457 52.2296 15.6972 52.1088 15.8913C51.9905 16.0831 51.9313 16.3021 51.9313 16.5483V20H51.0932ZM56.9348 20.1136C56.4093 20.1136 55.9559 19.9976 55.5748 19.7656C55.196 19.5312 54.9036 19.2045 54.6976 18.7855C54.494 18.3641 54.3922 17.8741 54.3922 17.3153C54.3922 16.7566 54.494 16.2642 54.6976 15.8381C54.9036 15.4096 55.19 15.0758 55.557 14.8366C55.9263 14.5952 56.3572 14.4744 56.8496 14.4744C57.1337 14.4744 57.4142 14.5218 57.6912 14.6165C57.9682 14.7112 58.2203 14.8651 58.4476 15.0781C58.6749 15.2888 58.856 15.5682 58.9909 15.9162C59.1259 16.2642 59.1934 16.6927 59.1934 17.2017V17.5568H54.9888V16.8324H58.3411C58.3411 16.5246 58.2795 16.25 58.1564 16.0085C58.0357 15.767 57.8629 15.5765 57.638 15.4368C57.4154 15.2971 57.1526 15.2273 56.8496 15.2273C56.5158 15.2273 56.227 15.3101 55.9831 15.4759C55.7417 15.6392 55.5558 15.8523 55.4256 16.1151C55.2954 16.3778 55.2303 16.6596 55.2303 16.9602V17.4432C55.2303 17.8551 55.3013 18.2043 55.4434 18.4908C55.5878 18.7749 55.7878 18.9915 56.0435 19.1406C56.2992 19.2874 56.5963 19.3608 56.9348 19.3608C57.155 19.3608 57.3539 19.33 57.5314 19.2685C57.7114 19.2045 57.8664 19.1098 57.9966 18.9844C58.1268 18.8565 58.2275 18.6979 58.2985 18.5085L59.1081 18.7358C59.0229 19.0104 58.8797 19.2519 58.6784 19.4602C58.4772 19.6662 58.2286 19.8272 57.9327 19.9432C57.6368 20.0568 57.3042 20.1136 56.9348 20.1136ZM62.6841 20.1136C62.1728 20.1136 61.7324 19.9929 61.3631 19.7514C60.9938 19.5099 60.7097 19.1773 60.5108 18.7536C60.312 18.3298 60.2125 17.8456 60.2125 17.3011C60.2125 16.7472 60.3143 16.2583 60.5179 15.8345C60.7239 15.4084 61.0104 15.0758 61.3773 14.8366C61.7466 14.5952 62.1775 14.4744 62.6699 14.4744C63.0534 14.4744 63.3991 14.5455 63.7069 14.6875C64.0146 14.8295 64.2667 15.0284 64.4632 15.2841C64.6597 15.5398 64.7817 15.8381 64.829 16.179H63.9909C63.927 15.9304 63.785 15.7102 63.5648 15.5185C63.347 15.3243 63.0534 15.2273 62.6841 15.2273C62.3574 15.2273 62.071 15.3125 61.8248 15.483C61.5809 15.651 61.3903 15.889 61.253 16.1967C61.1181 16.5021 61.0506 16.8608 61.0506 17.2727C61.0506 17.6941 61.1169 18.0611 61.2495 18.3736C61.3844 18.6861 61.5738 18.9287 61.8176 19.1016C62.0639 19.2744 62.3527 19.3608 62.6841 19.3608C62.9019 19.3608 63.0996 19.3229 63.2772 19.2472C63.4547 19.1714 63.6051 19.0625 63.7282 18.9205C63.8513 18.7784 63.9389 18.608 63.9909 18.4091H64.829C64.7817 18.7311 64.6645 19.0211 64.4775 19.2791C64.2928 19.5348 64.0478 19.7384 63.7424 19.8899C63.4393 20.0391 63.0866 20.1136 62.6841 20.1136ZM68.4263 14.5455V15.2557H65.5996V14.5455H68.4263ZM66.4235 13.2386H67.2615V18.4375C67.2615 18.6742 67.2959 18.8518 67.3645 18.9702C67.4355 19.0862 67.5255 19.1643 67.6344 19.2045C67.7457 19.2424 67.8629 19.2614 67.986 19.2614C68.0783 19.2614 68.1541 19.2566 68.2132 19.2472C68.2724 19.2353 68.3198 19.2259 68.3553 19.2188L68.5257 19.9716C68.4689 19.9929 68.3896 20.0142 68.2878 20.0355C68.186 20.0592 68.057 20.071 67.9007 20.071C67.664 20.071 67.432 20.0201 67.2047 19.9183C66.9798 19.8165 66.7928 19.6615 66.6436 19.4531C66.4969 19.2448 66.4235 18.982 66.4235 18.6648V13.2386ZM69.687 20V14.5455H70.525V20H69.687ZM70.1131 13.6364C69.9498 13.6364 69.8089 13.5807 69.6905 13.4695C69.5745 13.3582 69.5165 13.2244 69.5165 13.0682C69.5165 12.9119 69.5745 12.7782 69.6905 12.6669C69.8089 12.5556 69.9498 12.5 70.1131 12.5C70.2765 12.5 70.4161 12.5556 70.5321 12.6669C70.6505 12.7782 70.7097 12.9119 70.7097 13.0682C70.7097 13.2244 70.6505 13.3582 70.5321 13.4695C70.4161 13.5807 70.2765 13.6364 70.1131 13.6364ZM74.2759 20.1136C73.7835 20.1136 73.3514 19.9964 72.9798 19.7621C72.6104 19.5277 72.3216 19.1998 72.1133 18.7784C71.9073 18.357 71.8043 17.8646 71.8043 17.3011C71.8043 16.733 71.9073 16.237 72.1133 15.8132C72.3216 15.3894 72.6104 15.0604 72.9798 14.826C73.3514 14.5916 73.7835 14.4744 74.2759 14.4744C74.7683 14.4744 75.1992 14.5916 75.5685 14.826C75.9402 15.0604 76.229 15.3894 76.435 15.8132C76.6433 16.237 76.7475 16.733 76.7475 17.3011C76.7475 17.8646 76.6433 18.357 76.435 18.7784C76.229 19.1998 75.9402 19.5277 75.5685 19.7621C75.1992 19.9964 74.7683 20.1136 74.2759 20.1136ZM74.2759 19.3608C74.65 19.3608 74.9577 19.2649 75.1992 19.0732C75.4407 18.8814 75.6194 18.6293 75.7354 18.3168C75.8514 18.0043 75.9094 17.6657 75.9094 17.3011C75.9094 16.9366 75.8514 16.5968 75.7354 16.282C75.6194 15.9671 75.4407 15.7126 75.1992 15.5185C74.9577 15.3243 74.65 15.2273 74.2759 15.2273C73.9019 15.2273 73.5941 15.3243 73.3526 15.5185C73.1112 15.7126 72.9324 15.9671 72.8164 16.282C72.7004 16.5968 72.6424 16.9366 72.6424 17.3011C72.6424 17.6657 72.7004 18.0043 72.8164 18.3168C72.9324 18.6293 73.1112 18.8814 73.3526 19.0732C73.5941 19.2649 73.9019 19.3608 74.2759 19.3608ZM78.8649 16.7188V20H78.0268V14.5455H78.8365V15.3977H78.9075C79.0353 15.1207 79.2295 14.8982 79.4899 14.7301C79.7503 14.5597 80.0865 14.4744 80.4984 14.4744C80.8677 14.4744 81.1909 14.5502 81.4679 14.7017C81.7449 14.8509 81.9603 15.0781 82.1142 15.3835C82.2681 15.6866 82.345 16.0701 82.345 16.5341V20H81.5069V16.5909C81.5069 16.1624 81.3957 15.8286 81.1731 15.5895C80.9506 15.348 80.6452 15.2273 80.2569 15.2273C79.9894 15.2273 79.7503 15.2853 79.5396 15.4013C79.3313 15.5173 79.1667 15.6866 79.046 15.9091C78.9252 16.1316 78.8649 16.4015 78.8649 16.7188Z" fill="var(--colors-neutral-neutral-800)"/>
<rect width="184" height="32" transform="translate(120)" fill="var(--colors-neutral-neutral-300)"/>
<g clip-path="url(#clip1_2996_4684)">
<rect width="24" height="24" transform="translate(141.333 4)" fill="var(--colors-neutral-neutral-300)"/>
<path d="M153.421 21.6154L152.713 20.9077L157.308 16.3077L152.713 11.7077L153.421 11L158.729 16.3077L153.421 21.6154ZM159.521 21.6154L158.813 20.9077L163.408 16.3077L158.813 11.7077L159.521 11L164.829 16.3077L159.521 21.6154Z" fill="var(--colors-neutral-neutral-700)"/>
<path d="M147.261 21.6154L141.953 16.3077L147.261 11L147.969 11.7077L143.375 16.3077L147.969 20.9077L147.261 21.6154ZM153.361 21.6154L148.053 16.3077L153.361 11L154.069 11.7077L149.475 16.3077L154.069 20.9077L153.361 21.6154Z" fill="var(--colors-neutral-neutral-700)"/>
</g>
<rect width="58.6667" height="24" transform="translate(182.667 4)" fill="white"/>
<rect width="24" height="24" transform="translate(200 4)" fill="white"/>
<path d="M211.25 21.3078L205.942 16.0001L211.25 10.6924L211.958 11.4001L207.364 16.0001L211.958 20.6001L211.25 21.3078ZM217.35 21.3078L212.042 16.0001L217.35 10.6924L218.058 11.4001L213.464 16.0001L218.058 20.6001L217.35 21.3078Z" fill="var(--colors-neutral-neutral-800)"/>
<path d="M265.317 21.3078L264.609 20.6001L269.203 16.0001L264.609 11.4001L265.317 10.6924L270.624 16.0001L265.317 21.3078ZM271.417 21.3078L270.709 20.6001L275.303 16.0001L270.709 11.4001L271.417 10.6924L276.724 16.0001L271.417 21.3078Z" fill="var(--colors-neutral-neutral-700)"/>
</g>
<g clip-path="url(#clip2_2996_4684)">
<rect width="288" height="32" transform="translate(16 40)" fill="white"/>
<path d="M17.179 52.7273L19.3381 58.8494H19.4233L21.5824 52.7273H22.5057L19.8352 60H18.9261L16.2557 52.7273H17.179ZM25.304 60.1136C24.7784 60.1136 24.325 59.9976 23.9439 59.7656C23.5651 59.5312 23.2727 59.2045 23.0668 58.7855C22.8632 58.3641 22.7614 57.8741 22.7614 57.3153C22.7614 56.7566 22.8632 56.2642 23.0668 55.8381C23.2727 55.4096 23.5592 55.0758 23.9261 54.8366C24.2955 54.5952 24.7263 54.4744 25.2188 54.4744C25.5028 54.4744 25.7834 54.5218 26.0604 54.6165C26.3374 54.7112 26.5895 54.8651 26.8168 55.0781C27.044 55.2888 27.2251 55.5682 27.3601 55.9162C27.495 56.2642 27.5625 56.6927 27.5625 57.2017V57.5568H23.358V56.8324H26.7102C26.7102 56.5246 26.6487 56.25 26.5256 56.0085C26.4048 55.767 26.232 55.5765 26.0071 55.4368C25.7846 55.2971 25.5218 55.2273 25.2188 55.2273C24.8849 55.2273 24.5961 55.3101 24.3523 55.4759C24.1108 55.6392 23.925 55.8523 23.7947 56.1151C23.6645 56.3778 23.5994 56.6596 23.5994 56.9602V57.4432C23.5994 57.8551 23.6705 58.2043 23.8125 58.4908C23.9569 58.7749 24.157 58.9915 24.4126 59.1406C24.6683 59.2874 24.9654 59.3608 25.304 59.3608C25.5241 59.3608 25.723 59.33 25.9006 59.2685C26.0805 59.2045 26.2356 59.1098 26.3658 58.9844C26.496 58.8565 26.5966 58.6979 26.6676 58.5085L27.4773 58.7358C27.392 59.0104 27.2488 59.2519 27.0476 59.4602C26.8464 59.6662 26.5978 59.8272 26.3018 59.9432C26.0059 60.0568 25.6733 60.1136 25.304 60.1136ZM29.6754 56.7188V60H28.8374V52.7273H29.6754V55.3977H29.7464C29.8743 55.116 30.0661 54.8923 30.3217 54.7266C30.5798 54.5585 30.9231 54.4744 31.3516 54.4744C31.7232 54.4744 32.0488 54.549 32.3281 54.6982C32.6075 54.8449 32.8241 55.071 32.978 55.3764C33.1342 55.6795 33.2124 56.0653 33.2124 56.5341V60H32.3743V56.5909C32.3743 56.1577 32.2618 55.8227 32.0369 55.5859C31.8144 55.3468 31.5054 55.2273 31.1101 55.2273C30.8355 55.2273 30.5893 55.2853 30.3714 55.4013C30.156 55.5173 29.9856 55.6866 29.8601 55.9091C29.737 56.1316 29.6754 56.4015 29.6754 56.7188ZM34.7456 60V54.5455H35.5836V60H34.7456ZM35.1717 53.6364C35.0083 53.6364 34.8675 53.5807 34.7491 53.4695C34.6331 53.3582 34.5751 53.2244 34.5751 53.0682C34.5751 52.9119 34.6331 52.7782 34.7491 52.6669C34.8675 52.5556 35.0083 52.5 35.1717 52.5C35.335 52.5 35.4747 52.5556 35.5907 52.6669C35.7091 52.7782 35.7683 52.9119 35.7683 53.0682C35.7683 53.2244 35.7091 53.3582 35.5907 53.4695C35.4747 53.5807 35.335 53.6364 35.1717 53.6364ZM39.3345 60.1136C38.8232 60.1136 38.3828 59.9929 38.0135 59.7514C37.6442 59.5099 37.3601 59.1773 37.1612 58.7536C36.9624 58.3298 36.8629 57.8456 36.8629 57.3011C36.8629 56.7472 36.9647 56.2583 37.1683 55.8345C37.3743 55.4084 37.6607 55.0758 38.0277 54.8366C38.397 54.5952 38.8279 54.4744 39.3203 54.4744C39.7038 54.4744 40.0495 54.5455 40.3572 54.6875C40.665 54.8295 40.9171 55.0284 41.1136 55.2841C41.3101 55.5398 41.4321 55.8381 41.4794 56.179H40.6413C40.5774 55.9304 40.4354 55.7102 40.2152 55.5185C39.9974 55.3243 39.7038 55.2273 39.3345 55.2273C39.0078 55.2273 38.7214 55.3125 38.4751 55.483C38.2313 55.651 38.0407 55.889 37.9034 56.1967C37.7685 56.5021 37.701 56.8608 37.701 57.2727C37.701 57.6941 37.7673 58.0611 37.8999 58.3736C38.0348 58.6861 38.2242 58.9287 38.468 59.1016C38.7143 59.2744 39.0031 59.3608 39.3345 59.3608C39.5523 59.3608 39.75 59.3229 39.9276 59.2472C40.1051 59.1714 40.2554 59.0625 40.3786 58.9205C40.5017 58.7784 40.5893 58.608 40.6413 58.4091H41.4794C41.4321 58.7311 41.3149 59.0211 41.1278 59.2791C40.9432 59.5348 40.6982 59.7384 40.3928 59.8899C40.0897 60.0391 39.737 60.1136 39.3345 60.1136ZM43.5426 52.7273V60H42.7045V52.7273H43.5426ZM47.3645 60.1136C46.839 60.1136 46.3856 59.9976 46.0044 59.7656C45.6257 59.5312 45.3333 59.2045 45.1273 58.7855C44.9237 58.3641 44.8219 57.8741 44.8219 57.3153C44.8219 56.7566 44.9237 56.2642 45.1273 55.8381C45.3333 55.4096 45.6197 55.0758 45.9867 54.8366C46.356 54.5952 46.7869 54.4744 47.2793 54.4744C47.5634 54.4744 47.8439 54.5218 48.1209 54.6165C48.3979 54.7112 48.65 54.8651 48.8773 55.0781C49.1046 55.2888 49.2857 55.5682 49.4206 55.9162C49.5556 56.2642 49.623 56.6927 49.623 57.2017V57.5568H45.4185V56.8324H48.7708C48.7708 56.5246 48.7092 56.25 48.5861 56.0085C48.4654 55.767 48.2926 55.5765 48.0676 55.4368C47.8451 55.2971 47.5823 55.2273 47.2793 55.2273C46.9455 55.2273 46.6567 55.3101 46.4128 55.4759C46.1713 55.6392 45.9855 55.8523 45.8553 56.1151C45.7251 56.3778 45.66 56.6596 45.66 56.9602V57.4432C45.66 57.8551 45.731 58.2043 45.873 58.4908C46.0175 58.7749 46.2175 58.9915 46.4732 59.1406C46.7289 59.2874 47.026 59.3608 47.3645 59.3608C47.5847 59.3608 47.7836 59.33 47.9611 59.2685C48.141 59.2045 48.2961 59.1098 48.4263 58.9844C48.5565 58.8565 48.6571 58.6979 48.7282 58.5085L49.5378 58.7358C49.4526 59.0104 49.3094 59.2519 49.1081 59.4602C48.9069 59.6662 48.6583 59.8272 48.3624 59.9432C48.0665 60.0568 47.7338 60.1136 47.3645 60.1136ZM54.7615 55.767L54.0087 55.9801C53.9614 55.8546 53.8915 55.7327 53.7992 55.6143C53.7092 55.4936 53.5861 55.3942 53.4299 55.3161C53.2736 55.2379 53.0736 55.1989 52.8297 55.1989C52.4959 55.1989 52.2177 55.2758 51.9952 55.4297C51.775 55.5812 51.665 55.7741 51.665 56.0085C51.665 56.2169 51.7407 56.3814 51.8922 56.5021C52.0437 56.6229 52.2805 56.7235 52.6025 56.804L53.4121 57.0028C53.8998 57.1212 54.2632 57.3023 54.5023 57.5462C54.7414 57.7876 54.861 58.099 54.861 58.4801C54.861 58.7926 54.771 59.072 54.5911 59.3182C54.4135 59.5644 54.165 59.7585 53.8453 59.9006C53.5257 60.0426 53.1541 60.1136 52.7303 60.1136C52.1739 60.1136 51.7135 59.9929 51.3489 59.7514C50.9843 59.5099 50.7535 59.1572 50.6564 58.6932L51.4519 58.4943C51.5276 58.7879 51.6709 59.008 51.8816 59.1548C52.0946 59.3016 52.3728 59.375 52.7161 59.375C53.1067 59.375 53.4168 59.2921 53.6465 59.1264C53.8785 58.9583 53.9945 58.7571 53.9945 58.5227C53.9945 58.3333 53.9282 58.1747 53.7956 58.0469C53.6631 57.9167 53.4595 57.8196 53.1848 57.7557L52.2757 57.5426C51.7762 57.4242 51.4093 57.2408 51.1749 56.9922C50.9429 56.7412 50.8269 56.4276 50.8269 56.0511C50.8269 55.7434 50.9133 55.4711 51.0861 55.2344C51.2613 54.9976 51.4992 54.8118 51.7999 54.6768C52.1029 54.5419 52.4462 54.4744 52.8297 54.4744C53.3695 54.4744 53.7933 54.5928 54.101 54.8295C54.4112 55.0663 54.6313 55.3788 54.7615 55.767Z" fill="var(--colors-neutral-neutral-800)"/>
<rect width="184" height="32" transform="translate(120 40)" fill="var(--colors-neutral-neutral-300)"/>
<path d="M129.415 60H128.307L131.511 51.2727H132.602L135.807 60H134.699L132.091 52.6534H132.023L129.415 60ZM129.824 56.5909H134.29V57.5284H129.824V56.5909ZM138.036 51.2727V60H137.03V51.2727H138.036ZM140.883 51.2727V60H139.877V51.2727H140.883Z" fill="var(--colors-neutral-neutral-800)"/>
</g>
<g clip-path="url(#clip3_2996_4684)">
<rect width="288" height="32" transform="translate(16 80)" fill="white"/>
<path d="M18.2017 100L16.2131 92.7273H17.108L18.6278 98.6506H18.6989L20.2472 92.7273H21.2415L22.7898 98.6506H22.8608L24.3807 92.7273H25.2756L23.2869 100H22.3778L20.7727 94.2045H20.7159L19.1108 100H18.2017ZM26.2592 100V94.5455H27.0973V100H26.2592ZM26.6854 93.6364C26.522 93.6364 26.3812 93.5807 26.2628 93.4695C26.1468 93.3582 26.0888 93.2244 26.0888 93.0682C26.0888 92.9119 26.1468 92.7782 26.2628 92.6669C26.3812 92.5556 26.522 92.5 26.6854 92.5C26.8487 92.5 26.9884 92.5556 27.1044 92.6669C27.2228 92.7782 27.282 92.9119 27.282 93.0682C27.282 93.2244 27.2228 93.3582 27.1044 93.4695C26.9884 93.5807 26.8487 93.6364 26.6854 93.6364ZM30.6919 100.114C30.2374 100.114 29.8361 99.9988 29.4881 99.7692C29.1401 99.5372 28.8678 99.2105 28.6713 98.7891C28.4748 98.3653 28.3766 97.8646 28.3766 97.2869C28.3766 96.714 28.4748 96.2169 28.6713 95.7955C28.8678 95.3741 29.1413 95.0485 29.4917 94.8189C29.842 94.5893 30.2469 94.4744 30.7061 94.4744C31.0613 94.4744 31.3418 94.5336 31.5478 94.652C31.7561 94.768 31.9147 94.9006 32.0236 95.0497C32.1349 95.1965 32.2213 95.3172 32.2828 95.4119H32.3539V92.7273H33.1919V100H32.3823V99.1619H32.2828C32.2213 99.2614 32.1337 99.3868 32.0201 99.5384C31.9064 99.6875 31.7443 99.8213 31.5336 99.9396C31.3229 100.056 31.0423 100.114 30.6919 100.114ZM30.8056 99.3608C31.1417 99.3608 31.4258 99.2732 31.6578 99.098C31.8899 98.9205 32.0662 98.6754 32.187 98.3629C32.3077 98.0481 32.3681 97.6847 32.3681 97.2727C32.3681 96.8655 32.3089 96.5092 32.1905 96.2038C32.0721 95.8961 31.897 95.657 31.665 95.4865C31.4329 95.3137 31.1465 95.2273 30.8056 95.2273C30.4505 95.2273 30.1545 95.3184 29.9178 95.5007C29.6834 95.6806 29.507 95.9257 29.3887 96.2358C29.2727 96.5436 29.2147 96.8892 29.2147 97.2727C29.2147 97.661 29.2739 98.0137 29.3922 98.331C29.513 98.6458 29.6905 98.8968 29.9249 99.0838C30.1616 99.2685 30.4552 99.3608 30.8056 99.3608ZM37.2154 94.5455V95.2557H34.3887V94.5455H37.2154ZM35.2125 93.2386H36.0506V98.4375C36.0506 98.6742 36.0849 98.8518 36.1536 98.9702C36.2246 99.0862 36.3146 99.1643 36.4235 99.2045C36.5347 99.2424 36.6519 99.2614 36.775 99.2614C36.8674 99.2614 36.9431 99.2566 37.0023 99.2472C37.0615 99.2353 37.1088 99.2259 37.1444 99.2188L37.3148 99.9716C37.258 99.9929 37.1787 100.014 37.0769 100.036C36.9751 100.059 36.8461 100.071 36.6898 100.071C36.4531 100.071 36.2211 100.02 35.9938 99.9183C35.7689 99.8165 35.5819 99.6615 35.4327 99.4531C35.2859 99.2448 35.2125 98.982 35.2125 98.6648V93.2386ZM39.4313 96.7188V100H38.5932V92.7273H39.4313V95.3977H39.5023C39.6301 95.116 39.8219 94.8923 40.0776 94.7266C40.3356 94.5585 40.6789 94.4744 41.1074 94.4744C41.4791 94.4744 41.8046 94.549 42.084 94.6982C42.3633 94.8449 42.58 95.071 42.7338 95.3764C42.8901 95.6795 42.9682 96.0653 42.9682 96.5341V100H42.1301V96.5909C42.1301 96.1577 42.0177 95.8227 41.7928 95.5859C41.5703 95.3468 41.2613 95.2273 40.8659 95.2273C40.5913 95.2273 40.3451 95.2853 40.1273 95.4013C39.9119 95.5173 39.7414 95.6866 39.6159 95.9091C39.4928 96.1316 39.4313 96.4015 39.4313 96.7188Z" fill="var(--colors-neutral-neutral-800)"/>
<rect width="184" height="32" transform="translate(120 80)" fill="var(--colors-neutral-neutral-300)"/>
<path d="M131.972 91.2727V100H130.915V92.3807H130.864L128.733 93.7955V92.7216L130.915 91.2727H131.972ZM137.209 100.119C136.709 100.119 136.259 100.02 135.858 99.821C135.457 99.6222 135.136 99.3494 134.895 99.0028C134.653 98.6562 134.521 98.2614 134.499 97.8182H135.521C135.561 98.2131 135.74 98.5398 136.058 98.7983C136.379 99.054 136.763 99.1818 137.209 99.1818C137.567 99.1818 137.885 99.098 138.163 98.9304C138.445 98.7628 138.665 98.5327 138.824 98.2401C138.986 97.9446 139.067 97.6108 139.067 97.2386C139.067 96.858 138.983 96.5185 138.815 96.2202C138.651 95.919 138.423 95.6818 138.134 95.5085C137.844 95.3352 137.513 95.2472 137.141 95.2443C136.874 95.2415 136.599 95.2827 136.318 95.3679C136.037 95.4503 135.805 95.5568 135.624 95.6875L134.635 95.5682L135.163 91.2727H139.697V92.2102H136.05L135.743 94.7841H135.794C135.973 94.642 136.197 94.5241 136.467 94.4304C136.737 94.3366 137.018 94.2898 137.311 94.2898C137.845 94.2898 138.321 94.4176 138.739 94.6733C139.159 94.9261 139.489 95.2727 139.727 95.7131C139.969 96.1534 140.089 96.6562 140.089 97.2216C140.089 97.7784 139.964 98.2756 139.714 98.7131C139.467 99.1477 139.126 99.4915 138.692 99.7443C138.257 99.9943 137.763 100.119 137.209 100.119Z" fill="var(--colors-neutral-neutral-800)"/>
<path d="M281.384 99.5V94.0455H282.194V94.8977H282.265C282.379 94.6065 282.562 94.3804 282.815 94.2195C283.069 94.0561 283.373 93.9744 283.728 93.9744C284.088 93.9744 284.387 94.0561 284.626 94.2195C284.868 94.3804 285.056 94.6065 285.191 94.8977H285.248C285.388 94.616 285.597 94.3923 285.876 94.2266C286.156 94.0585 286.491 93.9744 286.881 93.9744C287.369 93.9744 287.768 94.1271 288.078 94.4325C288.388 94.7356 288.543 95.2079 288.543 95.8494V99.5H287.705V95.8494C287.705 95.447 287.595 95.1593 287.375 94.9865C287.155 94.8137 286.896 94.7273 286.597 94.7273C286.214 94.7273 285.917 94.8433 285.706 95.0753C285.495 95.3049 285.39 95.5961 285.39 95.9489V99.5H284.538V95.7642C284.538 95.4541 284.437 95.2043 284.236 95.0149C284.035 94.8232 283.775 94.7273 283.458 94.7273C283.24 94.7273 283.037 94.7853 282.847 94.9013C282.66 95.0173 282.509 95.1783 282.393 95.3842C282.279 95.5878 282.222 95.8234 282.222 96.0909V99.5H281.384ZM290.076 99.5V94.0455H290.885V94.8977H290.956C291.07 94.6065 291.253 94.3804 291.507 94.2195C291.76 94.0561 292.064 93.9744 292.419 93.9744C292.779 93.9744 293.079 94.0561 293.318 94.2195C293.559 94.3804 293.748 94.6065 293.882 94.8977H293.939C294.079 94.616 294.288 94.3923 294.568 94.2266C294.847 94.0585 295.182 93.9744 295.573 93.9744C296.06 93.9744 296.459 94.1271 296.77 94.4325C297.08 94.7356 297.235 95.2079 297.235 95.8494V99.5H296.397V95.8494C296.397 95.447 296.287 95.1593 296.066 94.9865C295.846 94.8137 295.587 94.7273 295.289 94.7273C294.905 94.7273 294.608 94.8433 294.397 95.0753C294.187 95.3049 294.081 95.5961 294.081 95.9489V99.5H293.229V95.7642C293.229 95.4541 293.128 95.2043 292.927 95.0149C292.726 94.8232 292.467 94.7273 292.15 94.7273C291.932 94.7273 291.728 94.7853 291.539 94.9013C291.352 95.0173 291.2 95.1783 291.084 95.3842C290.971 95.5878 290.914 95.8234 290.914 96.0909V99.5H290.076Z" fill="var(--colors-neutral-neutral-700)"/>
</g>
<g clip-path="url(#clip4_2996_4684)">
<rect width="288" height="32" transform="translate(16 120)" fill="white"/>
<path d="M19.125 140H16.8807V132.727H19.2244C19.9299 132.727 20.5336 132.873 21.0355 133.164C21.5374 133.453 21.9221 133.868 22.1896 134.411C22.4571 134.95 22.5909 135.597 22.5909 136.349C22.5909 137.107 22.456 137.759 22.1861 138.306C21.9162 138.851 21.5232 139.27 21.0071 139.563C20.491 139.854 19.8636 140 19.125 140ZM17.7614 139.219H19.0682C19.6695 139.219 20.1679 139.103 20.5632 138.871C20.9586 138.639 21.2533 138.308 21.4474 137.88C21.6416 137.451 21.7386 136.941 21.7386 136.349C21.7386 135.762 21.6428 135.257 21.451 134.833C21.2592 134.407 20.9728 134.08 20.5916 133.853C20.2105 133.623 19.7358 133.509 19.1676 133.509H17.7614V139.219ZM23.9545 140V134.545H24.7926V140H23.9545ZM24.3807 133.636C24.2173 133.636 24.0765 133.581 23.9581 133.469C23.8421 133.358 23.7841 133.224 23.7841 133.068C23.7841 132.912 23.8421 132.778 23.9581 132.667C24.0765 132.556 24.2173 132.5 24.3807 132.5C24.544 132.5 24.6837 132.556 24.7997 132.667C24.9181 132.778 24.9773 132.912 24.9773 133.068C24.9773 133.224 24.9181 133.358 24.7997 133.469C24.6837 133.581 24.544 133.636 24.3807 133.636ZM30.1912 135.767L29.4384 135.98C29.391 135.855 29.3212 135.733 29.2289 135.614C29.1389 135.494 29.0158 135.394 28.8596 135.316C28.7033 135.238 28.5033 135.199 28.2594 135.199C27.9256 135.199 27.6474 135.276 27.4249 135.43C27.2047 135.581 27.0946 135.774 27.0946 136.009C27.0946 136.217 27.1704 136.381 27.3219 136.502C27.4734 136.623 27.7102 136.723 28.0321 136.804L28.8418 137.003C29.3295 137.121 29.6929 137.302 29.932 137.546C30.1711 137.788 30.2907 138.099 30.2907 138.48C30.2907 138.793 30.2007 139.072 30.0208 139.318C29.8432 139.564 29.5946 139.759 29.275 139.901C28.9554 140.043 28.5837 140.114 28.16 140.114C27.6036 140.114 27.1432 139.993 26.7786 139.751C26.414 139.51 26.1832 139.157 26.0861 138.693L26.8816 138.494C26.9573 138.788 27.1006 139.008 27.3113 139.155C27.5243 139.302 27.8025 139.375 28.1458 139.375C28.5364 139.375 28.8465 139.292 29.0762 139.126C29.3082 138.958 29.4242 138.757 29.4242 138.523C29.4242 138.333 29.3579 138.175 29.2253 138.047C29.0927 137.917 28.8891 137.82 28.6145 137.756L27.7054 137.543C27.2059 137.424 26.839 137.241 26.6046 136.992C26.3726 136.741 26.2566 136.428 26.2566 136.051C26.2566 135.743 26.343 135.471 26.5158 135.234C26.691 134.998 26.9289 134.812 27.2296 134.677C27.5326 134.542 27.8759 134.474 28.2594 134.474C28.7992 134.474 29.223 134.593 29.5307 134.83C29.8408 135.066 30.061 135.379 30.1912 135.767ZM33.9244 134.545V135.256H31.0977V134.545H33.9244ZM31.9215 133.239H32.7596V138.438C32.7596 138.674 32.7939 138.852 32.8626 138.97C32.9336 139.086 33.0236 139.164 33.1325 139.205C33.2437 139.242 33.3609 139.261 33.484 139.261C33.5763 139.261 33.6521 139.257 33.7113 139.247C33.7705 139.235 33.8178 139.226 33.8533 139.219L34.0238 139.972C33.967 139.993 33.8877 140.014 33.7859 140.036C33.6841 140.059 33.555 140.071 33.3988 140.071C33.1621 140.071 32.93 140.02 32.7028 139.918C32.4779 139.817 32.2908 139.661 32.1417 139.453C31.9949 139.245 31.9215 138.982 31.9215 138.665V133.239ZM35.185 140V134.545H35.9947V135.369H36.0515C36.1509 135.099 36.3308 134.88 36.5913 134.712C36.8517 134.544 37.1452 134.46 37.4719 134.46C37.5335 134.46 37.6104 134.461 37.7028 134.464C37.7951 134.466 37.8649 134.47 37.9123 134.474V135.327C37.8839 135.32 37.8188 135.309 37.717 135.295C37.6175 135.278 37.5122 135.27 37.4009 135.27C37.1358 135.27 36.899 135.326 36.6907 135.437C36.4847 135.546 36.3214 135.697 36.2006 135.891C36.0823 136.083 36.0231 136.302 36.0231 136.548V140H35.185ZM38.9057 140V134.545H39.7438V140H38.9057ZM39.3319 133.636C39.1685 133.636 39.0276 133.581 38.9093 133.469C38.7933 133.358 38.7353 133.224 38.7353 133.068C38.7353 132.912 38.7933 132.778 38.9093 132.667C39.0276 132.556 39.1685 132.5 39.3319 132.5C39.4952 132.5 39.6349 132.556 39.7509 132.667C39.8693 132.778 39.9284 132.912 39.9284 133.068C39.9284 133.224 39.8693 133.358 39.7509 133.469C39.6349 133.581 39.4952 133.636 39.3319 133.636ZM41.3924 140V132.727H42.2305V135.412H42.3015C42.363 135.317 42.4483 135.196 42.5572 135.05C42.6684 134.901 42.8271 134.768 43.033 134.652C43.2414 134.534 43.5231 134.474 43.8782 134.474C44.3375 134.474 44.7423 134.589 45.0927 134.819C45.4431 135.049 45.7165 135.374 45.913 135.795C46.1095 136.217 46.2077 136.714 46.2077 137.287C46.2077 137.865 46.1095 138.365 45.913 138.789C45.7165 139.21 45.4442 139.537 45.0962 139.769C44.7482 139.999 44.3469 140.114 43.8924 140.114C43.542 140.114 43.2615 140.056 43.0508 139.94C42.8401 139.821 42.6779 139.687 42.5643 139.538C42.4506 139.387 42.363 139.261 42.3015 139.162H42.2021V140H41.3924ZM42.2163 137.273C42.2163 137.685 42.2766 138.048 42.3974 138.363C42.5181 138.675 42.6945 138.92 42.9265 139.098C43.1585 139.273 43.4426 139.361 43.7788 139.361C44.1291 139.361 44.4215 139.268 44.6559 139.084C44.8926 138.897 45.0702 138.646 45.1886 138.331C45.3093 138.014 45.3697 137.661 45.3697 137.273C45.3697 136.889 45.3105 136.544 45.1921 136.236C45.0761 135.926 44.8997 135.681 44.663 135.501C44.4286 135.318 44.1339 135.227 43.7788 135.227C43.4379 135.227 43.1514 135.314 42.9194 135.487C42.6874 135.657 42.5122 135.896 42.3938 136.204C42.2754 136.509 42.2163 136.866 42.2163 137.273ZM50.9272 137.77V134.545H51.7653V140H50.9272V139.077H50.8704C50.7425 139.354 50.5437 139.589 50.2738 139.783C50.0039 139.975 49.663 140.071 49.2511 140.071C48.9102 140.071 48.6071 139.996 48.342 139.847C48.0768 139.696 47.8685 139.469 47.717 139.165C47.5655 138.86 47.4897 138.475 47.4897 138.011V134.545H48.3278V137.955C48.3278 138.352 48.439 138.67 48.6616 138.906C48.8865 139.143 49.1729 139.261 49.521 139.261C49.7293 139.261 49.9412 139.208 50.1566 139.102C50.3744 138.995 50.5567 138.832 50.7035 138.612C50.8526 138.391 50.9272 138.111 50.9272 137.77ZM55.6724 134.545V135.256H52.8457V134.545H55.6724ZM53.6696 133.239H54.5076V138.438C54.5076 138.674 54.542 138.852 54.6106 138.97C54.6816 139.086 54.7716 139.164 54.8805 139.205C54.9918 139.242 55.109 139.261 55.2321 139.261C55.3244 139.261 55.4002 139.257 55.4593 139.247C55.5185 139.235 55.5659 139.226 55.6014 139.219L55.7718 139.972C55.715 139.993 55.6357 140.014 55.5339 140.036C55.4321 140.059 55.3031 140.071 55.1468 140.071C54.9101 140.071 54.6781 140.02 54.4508 139.918C54.2259 139.817 54.0389 139.661 53.8897 139.453C53.743 139.245 53.6696 138.982 53.6696 138.665V133.239ZM56.9331 140V134.545H57.7711V140H56.9331ZM57.3592 133.636C57.1958 133.636 57.055 133.581 56.9366 133.469C56.8206 133.358 56.7626 133.224 56.7626 133.068C56.7626 132.912 56.8206 132.778 56.9366 132.667C57.055 132.556 57.1958 132.5 57.3592 132.5C57.5225 132.5 57.6622 132.556 57.7782 132.667C57.8966 132.778 57.9558 132.912 57.9558 133.068C57.9558 133.224 57.8966 133.358 57.7782 133.469C57.6622 133.581 57.5225 133.636 57.3592 133.636ZM61.522 140.114C61.0296 140.114 60.5975 139.996 60.2259 139.762C59.8565 139.528 59.5677 139.2 59.3594 138.778C59.1534 138.357 59.0504 137.865 59.0504 137.301C59.0504 136.733 59.1534 136.237 59.3594 135.813C59.5677 135.389 59.8565 135.06 60.2259 134.826C60.5975 134.592 61.0296 134.474 61.522 134.474C62.0144 134.474 62.4453 134.592 62.8146 134.826C63.1863 135.06 63.4751 135.389 63.6811 135.813C63.8894 136.237 63.9936 136.733 63.9936 137.301C63.9936 137.865 63.8894 138.357 63.6811 138.778C63.4751 139.2 63.1863 139.528 62.8146 139.762C62.4453 139.996 62.0144 140.114 61.522 140.114ZM61.522 139.361C61.8961 139.361 62.2038 139.265 62.4453 139.073C62.6868 138.881 62.8655 138.629 62.9815 138.317C63.0975 138.004 63.1555 137.666 63.1555 137.301C63.1555 136.937 63.0975 136.597 62.9815 136.282C62.8655 135.967 62.6868 135.713 62.4453 135.518C62.2038 135.324 61.8961 135.227 61.522 135.227C61.148 135.227 60.8402 135.324 60.5987 135.518C60.3572 135.713 60.1785 135.967 60.0625 136.282C59.9465 136.597 59.8885 136.937 59.8885 137.301C59.8885 137.666 59.9465 138.004 60.0625 138.317C60.1785 138.629 60.3572 138.881 60.5987 139.073C60.8402 139.265 61.148 139.361 61.522 139.361ZM66.111 136.719V140H65.2729V134.545H66.0826V135.398H66.1536C66.2814 135.121 66.4756 134.898 66.736 134.73C66.9964 134.56 67.3326 134.474 67.7445 134.474C68.1138 134.474 68.437 134.55 68.714 134.702C68.9909 134.851 69.2064 135.078 69.3603 135.384C69.5141 135.687 69.5911 136.07 69.5911 136.534V140H68.753V136.591C68.753 136.162 68.6417 135.829 68.4192 135.589C68.1967 135.348 67.8913 135.227 67.503 135.227C67.2355 135.227 66.9964 135.285 66.7857 135.401C66.5774 135.517 66.4128 135.687 66.2921 135.909C66.1713 136.132 66.111 136.402 66.111 136.719Z" fill="var(--colors-neutral-neutral-800)"/>
<rect width="184" height="32" transform="translate(120 120)" fill="var(--colors-neutral-neutral-300)"/>
<path d="M129.057 131.273H130.318L133.284 138.517H133.386L136.352 131.273H137.614V140H136.625V133.369H136.54L133.812 140H132.858L130.131 133.369H130.045V140H129.057V131.273ZM141.522 140.153C141.108 140.153 140.731 140.075 140.393 139.919C140.055 139.76 139.787 139.531 139.588 139.233C139.389 138.932 139.289 138.568 139.289 138.142C139.289 137.767 139.363 137.463 139.511 137.23C139.659 136.994 139.856 136.81 140.103 136.676C140.35 136.543 140.623 136.443 140.922 136.378C141.223 136.31 141.525 136.256 141.829 136.216C142.227 136.165 142.549 136.126 142.797 136.101C143.047 136.072 143.228 136.026 143.342 135.96C143.458 135.895 143.517 135.781 143.517 135.619V135.585C143.517 135.165 143.402 134.838 143.172 134.605C142.944 134.372 142.599 134.256 142.136 134.256C141.656 134.256 141.279 134.361 141.007 134.571C140.734 134.781 140.542 135.006 140.431 135.244L139.477 134.903C139.647 134.506 139.875 134.196 140.159 133.974C140.446 133.75 140.758 133.594 141.096 133.506C141.437 133.415 141.772 133.369 142.102 133.369C142.312 133.369 142.554 133.395 142.826 133.446C143.102 133.494 143.368 133.595 143.623 133.749C143.882 133.902 144.096 134.134 144.267 134.443C144.437 134.753 144.522 135.168 144.522 135.688V140H143.517V139.114H143.466C143.397 139.256 143.284 139.408 143.125 139.57C142.966 139.732 142.754 139.869 142.49 139.983C142.225 140.097 141.903 140.153 141.522 140.153ZM141.676 139.25C142.074 139.25 142.409 139.172 142.681 139.016C142.957 138.859 143.164 138.658 143.304 138.411C143.446 138.163 143.517 137.903 143.517 137.631V136.71C143.474 136.761 143.38 136.808 143.235 136.851C143.093 136.891 142.929 136.926 142.741 136.957C142.556 136.986 142.376 137.011 142.2 137.034C142.027 137.054 141.886 137.071 141.778 137.085C141.517 137.119 141.272 137.175 141.045 137.251C140.821 137.325 140.639 137.437 140.5 137.588C140.363 137.736 140.295 137.937 140.295 138.193C140.295 138.543 140.424 138.807 140.683 138.986C140.944 139.162 141.275 139.25 141.676 139.25ZM146.358 140V133.455H147.33V134.443H147.398C147.517 134.119 147.733 133.857 148.045 133.655C148.358 133.453 148.71 133.352 149.102 133.352C149.176 133.352 149.268 133.354 149.379 133.357C149.49 133.359 149.574 133.364 149.631 133.369V134.392C149.597 134.384 149.518 134.371 149.396 134.354C149.277 134.334 149.151 134.324 149.017 134.324C148.699 134.324 148.415 134.391 148.165 134.524C147.918 134.655 147.722 134.837 147.577 135.07C147.435 135.3 147.364 135.562 147.364 135.858V140H146.358ZM153.266 142.591C152.78 142.591 152.362 142.528 152.013 142.403C151.663 142.281 151.372 142.119 151.139 141.918C150.909 141.719 150.726 141.506 150.589 141.278L151.391 140.716C151.482 140.835 151.597 140.972 151.736 141.125C151.875 141.281 152.065 141.416 152.307 141.53C152.551 141.646 152.871 141.705 153.266 141.705C153.794 141.705 154.23 141.577 154.574 141.321C154.918 141.065 155.089 140.665 155.089 140.119V138.79H155.004C154.93 138.909 154.825 139.057 154.689 139.233C154.555 139.406 154.362 139.561 154.109 139.697C153.859 139.831 153.521 139.898 153.095 139.898C152.567 139.898 152.092 139.773 151.672 139.523C151.254 139.273 150.923 138.909 150.679 138.432C150.438 137.955 150.317 137.375 150.317 136.693C150.317 136.023 150.435 135.439 150.67 134.942C150.906 134.442 151.234 134.055 151.655 133.783C152.075 133.507 152.561 133.369 153.112 133.369C153.538 133.369 153.876 133.44 154.126 133.582C154.379 133.722 154.572 133.881 154.706 134.06C154.842 134.236 154.947 134.381 155.021 134.494H155.124V133.455H156.095V140.188C156.095 140.75 155.967 141.207 155.712 141.56C155.459 141.915 155.118 142.175 154.689 142.339C154.263 142.507 153.788 142.591 153.266 142.591ZM153.232 138.994C153.635 138.994 153.976 138.902 154.254 138.717C154.533 138.533 154.744 138.267 154.889 137.92C155.034 137.574 155.107 137.159 155.107 136.676C155.107 136.205 155.036 135.788 154.893 135.428C154.751 135.067 154.541 134.784 154.263 134.58C153.984 134.375 153.641 134.273 153.232 134.273C152.805 134.273 152.45 134.381 152.166 134.597C151.885 134.812 151.673 135.102 151.531 135.466C151.392 135.83 151.322 136.233 151.322 136.676C151.322 137.131 151.393 137.533 151.536 137.882C151.68 138.229 151.893 138.501 152.175 138.7C152.459 138.896 152.811 138.994 153.232 138.994ZM157.936 140V133.455H158.942V140H157.936ZM158.447 132.364C158.251 132.364 158.082 132.297 157.94 132.163C157.801 132.03 157.732 131.869 157.732 131.682C157.732 131.494 157.801 131.334 157.94 131.2C158.082 131.067 158.251 131 158.447 131C158.643 131 158.811 131.067 158.95 131.2C159.092 131.334 159.163 131.494 159.163 131.682C159.163 131.869 159.092 132.03 158.95 132.163C158.811 132.297 158.643 132.364 158.447 132.364ZM161.789 136.062V140H160.784V133.455H161.755V134.477H161.841C161.994 134.145 162.227 133.878 162.539 133.676C162.852 133.472 163.255 133.369 163.75 133.369C164.193 133.369 164.581 133.46 164.913 133.642C165.245 133.821 165.504 134.094 165.689 134.46C165.873 134.824 165.966 135.284 165.966 135.841V140H164.96V135.909C164.96 135.395 164.826 134.994 164.559 134.707C164.292 134.418 163.926 134.273 163.46 134.273C163.139 134.273 162.852 134.342 162.599 134.482C162.349 134.621 162.152 134.824 162.007 135.091C161.862 135.358 161.789 135.682 161.789 136.062Z" fill="var(--colors-neutral-neutral-800)"/>
<path d="M292 138.308L288.192 134.5H295.808L292 138.308Z" fill="var(--colors-neutral-neutral-700)"/>
</g>
<path d="M22.733 175H21.8523C21.8002 174.747 21.709 174.524 21.5788 174.332C21.451 174.141 21.2947 173.98 21.1101 173.849C20.9278 173.717 20.7254 173.617 20.5028 173.551C20.2803 173.485 20.0483 173.452 19.8068 173.452C19.3665 173.452 18.9676 173.563 18.6101 173.786C18.255 174.008 17.9721 174.336 17.7614 174.769C17.553 175.202 17.4489 175.734 17.4489 176.364C17.4489 176.993 17.553 177.525 17.7614 177.958C17.9721 178.391 18.255 178.719 18.6101 178.942C18.9676 179.164 19.3665 179.276 19.8068 179.276C20.0483 179.276 20.2803 179.242 20.5028 179.176C20.7254 179.11 20.9278 179.012 21.1101 178.881C21.2947 178.749 21.451 178.587 21.5788 178.395C21.709 178.201 21.8002 177.978 21.8523 177.727H22.733C22.6667 178.099 22.5459 178.432 22.3707 178.725C22.1955 179.019 21.9777 179.268 21.7173 179.474C21.4569 179.678 21.1645 179.833 20.8402 179.94C20.5182 180.046 20.1738 180.099 19.8068 180.099C19.1866 180.099 18.6349 179.948 18.152 179.645C17.669 179.342 17.2891 178.911 17.0121 178.352C16.7351 177.794 16.5966 177.131 16.5966 176.364C16.5966 175.597 16.7351 174.934 17.0121 174.375C17.2891 173.816 17.669 173.385 18.152 173.082C18.6349 172.779 19.1866 172.628 19.8068 172.628C20.1738 172.628 20.5182 172.681 20.8402 172.788C21.1645 172.894 21.4569 173.05 21.7173 173.256C21.9777 173.46 22.1955 173.709 22.3707 174.002C22.5459 174.293 22.6667 174.626 22.733 175ZM24.8805 172.727V180H24.0424V172.727H24.8805ZM28.7024 180.114C28.1768 180.114 27.7235 179.998 27.3423 179.766C26.9635 179.531 26.6712 179.205 26.4652 178.786C26.2616 178.364 26.1598 177.874 26.1598 177.315C26.1598 176.757 26.2616 176.264 26.4652 175.838C26.6712 175.41 26.9576 175.076 27.3246 174.837C27.6939 174.595 28.1248 174.474 28.6172 174.474C28.9013 174.474 29.1818 174.522 29.4588 174.616C29.7358 174.711 29.9879 174.865 30.2152 175.078C30.4425 175.289 30.6236 175.568 30.7585 175.916C30.8935 176.264 30.9609 176.693 30.9609 177.202V177.557H26.7564V176.832H30.1087C30.1087 176.525 30.0471 176.25 29.924 176.009C29.8033 175.767 29.6304 175.576 29.4055 175.437C29.183 175.297 28.9202 175.227 28.6172 175.227C28.2834 175.227 27.9946 175.31 27.7507 175.476C27.5092 175.639 27.3234 175.852 27.1932 176.115C27.063 176.378 26.9979 176.66 26.9979 176.96V177.443C26.9979 177.855 27.0689 178.204 27.2109 178.491C27.3554 178.775 27.5554 178.991 27.8111 179.141C28.0668 179.287 28.3639 179.361 28.7024 179.361C28.9226 179.361 29.1214 179.33 29.299 179.268C29.4789 179.205 29.634 179.11 29.7642 178.984C29.8944 178.857 29.995 178.698 30.0661 178.509L30.8757 178.736C30.7905 179.01 30.6473 179.252 30.446 179.46C30.2448 179.666 29.9962 179.827 29.7003 179.943C29.4044 180.057 29.0717 180.114 28.7024 180.114ZM33.8409 180.128C33.4953 180.128 33.1816 180.063 32.8999 179.933C32.6181 179.8 32.3944 179.609 32.2287 179.361C32.063 179.11 31.9801 178.807 31.9801 178.452C31.9801 178.139 32.0417 177.886 32.1648 177.692C32.2879 177.495 32.4524 177.341 32.6584 177.23C32.8643 177.119 33.0916 177.036 33.3402 176.982C33.5911 176.925 33.8433 176.88 34.0966 176.847C34.428 176.804 34.6967 176.772 34.9027 176.751C35.111 176.727 35.2625 176.688 35.3572 176.634C35.4543 176.579 35.5028 176.484 35.5028 176.349V176.321C35.5028 175.971 35.407 175.698 35.2152 175.504C35.0258 175.31 34.7382 175.213 34.3523 175.213C33.9522 175.213 33.6385 175.301 33.4112 175.476C33.1839 175.651 33.0241 175.838 32.9318 176.037L32.1364 175.753C32.2784 175.421 32.4678 175.163 32.7045 174.979C32.9437 174.792 33.2041 174.661 33.4858 174.588C33.7699 174.512 34.0492 174.474 34.3239 174.474C34.4991 174.474 34.7003 174.496 34.9276 174.538C35.1572 174.579 35.3786 174.663 35.5916 174.79C35.8071 174.918 35.9858 175.111 36.1278 175.369C36.2699 175.627 36.3409 175.973 36.3409 176.406V180H35.5028V179.261H35.4602C35.4034 179.38 35.3087 179.506 35.1761 179.641C35.0436 179.776 34.8672 179.891 34.647 179.986C34.4268 180.08 34.1581 180.128 33.8409 180.128ZM33.9688 179.375C34.3002 179.375 34.5795 179.31 34.8068 179.18C35.0365 179.049 35.2093 178.881 35.3253 178.675C35.4437 178.469 35.5028 178.253 35.5028 178.026V177.259C35.4673 177.301 35.3892 177.34 35.2685 177.376C35.1501 177.409 35.0128 177.438 34.8565 177.464C34.7027 177.488 34.5523 177.509 34.4055 177.528C34.2611 177.545 34.1439 177.559 34.054 177.571C33.8362 177.599 33.6326 177.646 33.4432 177.71C33.2562 177.771 33.1046 177.865 32.9886 177.99C32.875 178.113 32.8182 178.281 32.8182 178.494C32.8182 178.786 32.9259 179.006 33.1413 179.155C33.3591 179.302 33.6349 179.375 33.9688 179.375ZM37.8706 180V174.545H38.6802V175.369H38.737C38.8365 175.099 39.0164 174.88 39.2768 174.712C39.5372 174.544 39.8308 174.46 40.1575 174.46C40.219 174.46 40.296 174.461 40.3883 174.464C40.4806 174.466 40.5505 174.47 40.5978 174.474V175.327C40.5694 175.32 40.5043 175.309 40.4025 175.295C40.3031 175.278 40.1977 175.27 40.0865 175.27C39.8213 175.27 39.5846 175.326 39.3762 175.437C39.1703 175.546 39.0069 175.697 38.8862 175.891C38.7678 176.083 38.7086 176.302 38.7086 176.548V180H37.8706ZM43.1964 180.128C42.8507 180.128 42.5371 180.063 42.2553 179.933C41.9736 179.8 41.7499 179.609 41.5842 179.361C41.4184 179.11 41.3356 178.807 41.3356 178.452C41.3356 178.139 41.3971 177.886 41.5202 177.692C41.6433 177.495 41.8079 177.341 42.0138 177.23C42.2198 177.119 42.4471 177.036 42.6957 176.982C42.9466 176.925 43.1987 176.88 43.4521 176.847C43.7835 176.804 44.0522 176.772 44.2582 176.751C44.4665 176.727 44.618 176.688 44.7127 176.634C44.8098 176.579 44.8583 176.484 44.8583 176.349V176.321C44.8583 175.971 44.7624 175.698 44.5707 175.504C44.3813 175.31 44.0936 175.213 43.7077 175.213C43.3076 175.213 42.994 175.301 42.7667 175.476C42.5394 175.651 42.3796 175.838 42.2873 176.037L41.4918 175.753C41.6339 175.421 41.8233 175.163 42.06 174.979C42.2991 174.792 42.5595 174.661 42.8413 174.588C43.1254 174.512 43.4047 174.474 43.6793 174.474C43.8545 174.474 44.0558 174.496 44.283 174.538C44.5127 174.579 44.734 174.663 44.9471 174.79C45.1625 174.918 45.3413 175.111 45.4833 175.369C45.6254 175.627 45.6964 175.973 45.6964 176.406V180H44.8583V179.261H44.8157C44.7589 179.38 44.6642 179.506 44.5316 179.641C44.399 179.776 44.2227 179.891 44.0025 179.986C43.7823 180.08 43.5136 180.128 43.1964 180.128ZM43.3242 179.375C43.6557 179.375 43.935 179.31 44.1623 179.18C44.3919 179.049 44.5647 178.881 44.6808 178.675C44.7991 178.469 44.8583 178.253 44.8583 178.026V177.259C44.8228 177.301 44.7447 177.34 44.6239 177.376C44.5056 177.409 44.3683 177.438 44.212 177.464C44.0581 177.488 43.9078 177.509 43.761 177.528C43.6166 177.545 43.4994 177.559 43.4094 177.571C43.1916 177.599 42.988 177.646 42.7987 177.71C42.6116 177.771 42.4601 177.865 42.3441 177.99C42.2305 178.113 42.1737 178.281 42.1737 178.494C42.1737 178.786 42.2814 179.006 42.4968 179.155C42.7146 179.302 42.9904 179.375 43.3242 179.375ZM48.0641 176.719V180H47.226V174.545H48.0357V175.398H48.1067C48.2346 175.121 48.4287 174.898 48.6891 174.73C48.9495 174.56 49.2857 174.474 49.6976 174.474C50.0669 174.474 50.3901 174.55 50.6671 174.702C50.9441 174.851 51.1595 175.078 51.3134 175.384C51.4673 175.687 51.5442 176.07 51.5442 176.534V180H50.7061V176.591C50.7061 176.162 50.5949 175.829 50.3723 175.589C50.1498 175.348 49.8444 175.227 49.4561 175.227C49.1886 175.227 48.9495 175.285 48.7388 175.401C48.5305 175.517 48.3659 175.687 48.2452 175.909C48.1245 176.132 48.0641 176.402 48.0641 176.719ZM55.2915 180.114C54.7802 180.114 54.3398 179.993 53.9705 179.751C53.6012 179.51 53.3171 179.177 53.1183 178.754C52.9194 178.33 52.82 177.846 52.82 177.301C52.82 176.747 52.9218 176.258 53.1254 175.835C53.3313 175.408 53.6178 175.076 53.9847 174.837C54.354 174.595 54.7849 174.474 55.2773 174.474C55.6609 174.474 56.0065 174.545 56.3143 174.688C56.622 174.83 56.8742 175.028 57.0707 175.284C57.2672 175.54 57.3891 175.838 57.4364 176.179H56.5984C56.5344 175.93 56.3924 175.71 56.1722 175.518C55.9544 175.324 55.6609 175.227 55.2915 175.227C54.9648 175.227 54.6784 175.312 54.4322 175.483C54.1883 175.651 53.9978 175.889 53.8604 176.197C53.7255 176.502 53.658 176.861 53.658 177.273C53.658 177.694 53.7243 178.061 53.8569 178.374C53.9918 178.686 54.1812 178.929 54.4251 179.102C54.6713 179.274 54.9601 179.361 55.2915 179.361C55.5094 179.361 55.707 179.323 55.8846 179.247C56.0621 179.171 56.2125 179.062 56.3356 178.92C56.4587 178.778 56.5463 178.608 56.5984 178.409H57.4364C57.3891 178.731 57.2719 179.021 57.0849 179.279C56.9002 179.535 56.6552 179.738 56.3498 179.89C56.0468 180.039 55.694 180.114 55.2915 180.114ZM60.9485 180.114C60.4229 180.114 59.9696 179.998 59.5884 179.766C59.2096 179.531 58.9173 179.205 58.7113 178.786C58.5077 178.364 58.4059 177.874 58.4059 177.315C58.4059 176.757 58.5077 176.264 58.7113 175.838C58.9173 175.41 59.2037 175.076 59.5707 174.837C59.94 174.595 60.3709 174.474 60.8633 174.474C61.1474 174.474 61.4279 174.522 61.7049 174.616C61.9819 174.711 62.234 174.865 62.4613 175.078C62.6886 175.289 62.8697 175.568 63.0046 175.916C63.1396 176.264 63.207 176.693 63.207 177.202V177.557H59.0025V176.832H62.3548C62.3548 176.525 62.2932 176.25 62.1701 176.009C62.0494 175.767 61.8765 175.576 61.6516 175.437C61.4291 175.297 61.1663 175.227 60.8633 175.227C60.5295 175.227 60.2406 175.31 59.9968 175.476C59.7553 175.639 59.5695 175.852 59.4393 176.115C59.3091 176.378 59.244 176.66 59.244 176.96V177.443C59.244 177.855 59.315 178.204 59.457 178.491C59.6014 178.775 59.8015 178.991 60.0572 179.141C60.3129 179.287 60.61 179.361 60.9485 179.361C61.1687 179.361 61.3675 179.33 61.5451 179.268C61.725 179.205 61.8801 179.11 62.0103 178.984C62.1405 178.857 62.2411 178.698 62.3121 178.509L63.1218 178.736C63.0366 179.01 62.8933 179.252 62.6921 179.46C62.4909 179.666 62.2423 179.827 61.9464 179.943C61.6504 180.057 61.3178 180.114 60.9485 180.114Z" fill="var(--colors-neutral-neutral-800)"/>
<rect width="88" height="32" transform="translate(120 160)" fill="var(--colors-neutral-neutral-300)"/>
<path d="M126 182L126 170" stroke="var(--colors-neutral-neutral-700)"/>
<path d="M138 182L138 170" stroke="var(--colors-neutral-neutral-700)"/>
<path d="M134.5 173.5H129.5V178.5H134.5V173.5Z" stroke="var(--colors-neutral-neutral-700)"/>
<path d="M155.631 180.119C155.131 180.119 154.68 180.02 154.28 179.821C153.879 179.622 153.558 179.349 153.317 179.003C153.075 178.656 152.943 178.261 152.92 177.818H153.943C153.983 178.213 154.162 178.54 154.48 178.798C154.801 179.054 155.185 179.182 155.631 179.182C155.989 179.182 156.307 179.098 156.585 178.93C156.866 178.763 157.087 178.533 157.246 178.24C157.408 177.945 157.489 177.611 157.489 177.239C157.489 176.858 157.405 176.518 157.237 176.22C157.072 175.919 156.845 175.682 156.555 175.509C156.266 175.335 155.935 175.247 155.562 175.244C155.295 175.241 155.021 175.283 154.74 175.368C154.459 175.45 154.227 175.557 154.045 175.688L153.057 175.568L153.585 171.273H158.119V172.21H154.472L154.165 174.784H154.216C154.395 174.642 154.619 174.524 154.889 174.43C155.159 174.337 155.44 174.29 155.733 174.29C156.267 174.29 156.743 174.418 157.161 174.673C157.581 174.926 157.911 175.273 158.149 175.713C158.391 176.153 158.511 176.656 158.511 177.222C158.511 177.778 158.386 178.276 158.136 178.713C157.889 179.148 157.548 179.491 157.114 179.744C156.679 179.994 156.185 180.119 155.631 180.119ZM163.051 180.119C162.409 180.119 161.862 179.945 161.41 179.595C160.958 179.243 160.613 178.733 160.375 178.065C160.136 177.395 160.017 176.585 160.017 175.636C160.017 174.693 160.136 173.888 160.375 173.22C160.616 172.55 160.963 172.038 161.414 171.686C161.869 171.331 162.414 171.153 163.051 171.153C163.687 171.153 164.231 171.331 164.683 171.686C165.137 172.038 165.484 172.55 165.723 173.22C165.964 173.888 166.085 174.693 166.085 175.636C166.085 176.585 165.966 177.395 165.727 178.065C165.488 178.733 165.143 179.243 164.691 179.595C164.24 179.945 163.693 180.119 163.051 180.119ZM163.051 179.182C163.687 179.182 164.181 178.875 164.534 178.261C164.886 177.648 165.062 176.773 165.062 175.636C165.062 174.881 164.981 174.237 164.819 173.706C164.66 173.175 164.43 172.77 164.129 172.491C163.831 172.213 163.471 172.074 163.051 172.074C162.42 172.074 161.927 172.385 161.572 173.007C161.217 173.626 161.039 174.503 161.039 175.636C161.039 176.392 161.119 177.034 161.278 177.562C161.437 178.091 161.666 178.493 161.964 178.768C162.265 179.044 162.627 179.182 163.051 179.182ZM170.551 180.119C169.909 180.119 169.362 179.945 168.91 179.595C168.458 179.243 168.113 178.733 167.875 178.065C167.636 177.395 167.517 176.585 167.517 175.636C167.517 174.693 167.636 173.888 167.875 173.22C168.116 172.55 168.463 172.038 168.914 171.686C169.369 171.331 169.914 171.153 170.551 171.153C171.187 171.153 171.731 171.331 172.183 171.686C172.637 172.038 172.984 172.55 173.223 173.22C173.464 173.888 173.585 174.693 173.585 175.636C173.585 176.585 173.466 177.395 173.227 178.065C172.988 178.733 172.643 179.243 172.191 179.595C171.74 179.945 171.193 180.119 170.551 180.119ZM170.551 179.182C171.187 179.182 171.681 178.875 172.034 178.261C172.386 177.648 172.562 176.773 172.562 175.636C172.562 174.881 172.481 174.237 172.319 173.706C172.16 173.175 171.93 172.77 171.629 172.491C171.331 172.213 170.971 172.074 170.551 172.074C169.92 172.074 169.427 172.385 169.072 173.007C168.717 173.626 168.539 174.503 168.539 175.636C168.539 176.392 168.619 177.034 168.778 177.562C168.937 178.091 169.166 178.493 169.464 178.768C169.765 179.044 170.127 179.182 170.551 179.182Z" fill="var(--colors-neutral-neutral-800)"/>
<rect width="88" height="32" transform="translate(216 160)" fill="var(--colors-neutral-neutral-300)"/>
<path d="M222 170.5L234 170.5" stroke="var(--colors-neutral-neutral-700)"/>
<path d="M222 181.5L234 181.5" stroke="var(--colors-neutral-neutral-700)"/>
<path d="M230.5 178.5L230.5 173.5L225.5 173.5L225.5 178.5L230.5 178.5Z" stroke="var(--colors-neutral-neutral-700)"/>
<path d="M251.631 180.119C251.131 180.119 250.68 180.02 250.28 179.821C249.879 179.622 249.558 179.349 249.317 179.003C249.075 178.656 248.943 178.261 248.92 177.818H249.943C249.983 178.213 250.162 178.54 250.48 178.798C250.801 179.054 251.185 179.182 251.631 179.182C251.989 179.182 252.307 179.098 252.585 178.93C252.866 178.763 253.087 178.533 253.246 178.24C253.408 177.945 253.489 177.611 253.489 177.239C253.489 176.858 253.405 176.518 253.237 176.22C253.072 175.919 252.845 175.682 252.555 175.509C252.266 175.335 251.935 175.247 251.562 175.244C251.295 175.241 251.021 175.283 250.74 175.368C250.459 175.45 250.227 175.557 250.045 175.688L249.057 175.568L249.585 171.273H254.119V172.21H250.472L250.165 174.784H250.216C250.395 174.642 250.619 174.524 250.889 174.43C251.159 174.337 251.44 174.29 251.733 174.29C252.267 174.29 252.743 174.418 253.161 174.673C253.581 174.926 253.911 175.273 254.149 175.713C254.391 176.153 254.511 176.656 254.511 177.222C254.511 177.778 254.386 178.276 254.136 178.713C253.889 179.148 253.548 179.491 253.114 179.744C252.679 179.994 252.185 180.119 251.631 180.119ZM259.051 180.119C258.409 180.119 257.862 179.945 257.41 179.595C256.958 179.243 256.613 178.733 256.375 178.065C256.136 177.395 256.017 176.585 256.017 175.636C256.017 174.693 256.136 173.888 256.375 173.22C256.616 172.55 256.963 172.038 257.414 171.686C257.869 171.331 258.414 171.153 259.051 171.153C259.687 171.153 260.231 171.331 260.683 171.686C261.137 172.038 261.484 172.55 261.723 173.22C261.964 173.888 262.085 174.693 262.085 175.636C262.085 176.585 261.966 177.395 261.727 178.065C261.488 178.733 261.143 179.243 260.691 179.595C260.24 179.945 259.693 180.119 259.051 180.119ZM259.051 179.182C259.687 179.182 260.181 178.875 260.534 178.261C260.886 177.648 261.062 176.773 261.062 175.636C261.062 174.881 260.981 174.237 260.819 173.706C260.66 173.175 260.43 172.77 260.129 172.491C259.831 172.213 259.471 172.074 259.051 172.074C258.42 172.074 257.927 172.385 257.572 173.007C257.217 173.626 257.039 174.503 257.039 175.636C257.039 176.392 257.119 177.034 257.278 177.562C257.437 178.091 257.666 178.493 257.964 178.768C258.265 179.044 258.627 179.182 259.051 179.182ZM266.551 180.119C265.909 180.119 265.362 179.945 264.91 179.595C264.458 179.243 264.113 178.733 263.875 178.065C263.636 177.395 263.517 176.585 263.517 175.636C263.517 174.693 263.636 173.888 263.875 173.22C264.116 172.55 264.463 172.038 264.914 171.686C265.369 171.331 265.914 171.153 266.551 171.153C267.187 171.153 267.731 171.331 268.183 171.686C268.637 172.038 268.984 172.55 269.223 173.22C269.464 173.888 269.585 174.693 269.585 175.636C269.585 176.585 269.466 177.395 269.227 178.065C268.988 178.733 268.643 179.243 268.191 179.595C267.74 179.945 267.193 180.119 266.551 180.119ZM266.551 179.182C267.187 179.182 267.681 178.875 268.034 178.261C268.386 177.648 268.562 176.773 268.562 175.636C268.562 174.881 268.481 174.237 268.319 173.706C268.16 173.175 267.93 172.77 267.629 172.491C267.331 172.213 266.971 172.074 266.551 172.074C265.92 172.074 265.427 172.385 265.072 173.007C264.717 173.626 264.539 174.503 264.539 175.636C264.539 176.392 264.619 177.034 264.778 177.562C264.937 178.091 265.166 178.493 265.464 178.768C265.765 179.044 266.127 179.182 266.551 179.182Z" fill="var(--colors-neutral-neutral-800)"/>
<rect width="88" height="32" transform="translate(120 200)" fill="var(--colors-neutral-neutral-300)"/>
<path d="M139 210.5L136 210.5L136 221.5L139 221.5" stroke="var(--colors-neutral-neutral-700)"/>
<path d="M125 221.5L128 221.5L128 210.5L125 210.5" stroke="var(--colors-neutral-neutral-700)"/>
<path d="M132 212.5L132 219.5" stroke="var(--colors-neutral-neutral-700)"/>
<path d="M155.631 220.119C155.131 220.119 154.68 220.02 154.28 219.821C153.879 219.622 153.558 219.349 153.317 219.003C153.075 218.656 152.943 218.261 152.92 217.818H153.943C153.983 218.213 154.162 218.54 154.48 218.798C154.801 219.054 155.185 219.182 155.631 219.182C155.989 219.182 156.307 219.098 156.585 218.93C156.866 218.763 157.087 218.533 157.246 218.24C157.408 217.945 157.489 217.611 157.489 217.239C157.489 216.858 157.405 216.518 157.237 216.22C157.072 215.919 156.845 215.682 156.555 215.509C156.266 215.335 155.935 215.247 155.562 215.244C155.295 215.241 155.021 215.283 154.74 215.368C154.459 215.45 154.227 215.557 154.045 215.688L153.057 215.568L153.585 211.273H158.119V212.21H154.472L154.165 214.784H154.216C154.395 214.642 154.619 214.524 154.889 214.43C155.159 214.337 155.44 214.29 155.733 214.29C156.267 214.29 156.743 214.418 157.161 214.673C157.581 214.926 157.911 215.273 158.149 215.713C158.391 216.153 158.511 216.656 158.511 217.222C158.511 217.778 158.386 218.276 158.136 218.713C157.889 219.148 157.548 219.491 157.114 219.744C156.679 219.994 156.185 220.119 155.631 220.119ZM163.051 220.119C162.409 220.119 161.862 219.945 161.41 219.595C160.958 219.243 160.613 218.733 160.375 218.065C160.136 217.395 160.017 216.585 160.017 215.636C160.017 214.693 160.136 213.888 160.375 213.22C160.616 212.55 160.963 212.038 161.414 211.686C161.869 211.331 162.414 211.153 163.051 211.153C163.687 211.153 164.231 211.331 164.683 211.686C165.137 212.038 165.484 212.55 165.723 213.22C165.964 213.888 166.085 214.693 166.085 215.636C166.085 216.585 165.966 217.395 165.727 218.065C165.488 218.733 165.143 219.243 164.691 219.595C164.24 219.945 163.693 220.119 163.051 220.119ZM163.051 219.182C163.687 219.182 164.181 218.875 164.534 218.261C164.886 217.648 165.062 216.773 165.062 215.636C165.062 214.881 164.981 214.237 164.819 213.706C164.66 213.175 164.43 212.77 164.129 212.491C163.831 212.213 163.471 212.074 163.051 212.074C162.42 212.074 161.927 212.385 161.572 213.007C161.217 213.626 161.039 214.503 161.039 215.636C161.039 216.392 161.119 217.034 161.278 217.562C161.437 218.091 161.666 218.493 161.964 218.768C162.265 219.044 162.627 219.182 163.051 219.182ZM170.551 220.119C169.909 220.119 169.362 219.945 168.91 219.595C168.458 219.243 168.113 218.733 167.875 218.065C167.636 217.395 167.517 216.585 167.517 215.636C167.517 214.693 167.636 213.888 167.875 213.22C168.116 212.55 168.463 212.038 168.914 211.686C169.369 211.331 169.914 211.153 170.551 211.153C171.187 211.153 171.731 211.331 172.183 211.686C172.637 212.038 172.984 212.55 173.223 213.22C173.464 213.888 173.585 214.693 173.585 215.636C173.585 216.585 173.466 217.395 173.227 218.065C172.988 218.733 172.643 219.243 172.191 219.595C171.74 219.945 171.193 220.119 170.551 220.119ZM170.551 219.182C171.187 219.182 171.681 218.875 172.034 218.261C172.386 217.648 172.562 216.773 172.562 215.636C172.562 214.881 172.481 214.237 172.319 213.706C172.16 213.175 171.93 212.77 171.629 212.491C171.331 212.213 170.971 212.074 170.551 212.074C169.92 212.074 169.427 212.385 169.072 213.007C168.717 213.626 168.539 214.503 168.539 215.636C168.539 216.392 168.619 217.034 168.778 217.562C168.937 218.091 169.166 218.493 169.464 218.768C169.765 219.044 170.127 219.182 170.551 219.182Z" fill="var(--colors-neutral-neutral-800)"/>
<rect width="88" height="32" transform="translate(216 200)" fill="var(--colors-neutral-neutral-300)"/>
<path d="M222.5 209V212H233.5V209" stroke="var(--colors-neutral-neutral-700)"/>
<path d="M233.5 223L233.5 220L222.5 220L222.5 223" stroke="var(--colors-neutral-neutral-700)"/>
<path d="M224.5 216H231.5" stroke="var(--colors-neutral-neutral-700)"/>
<path d="M251.631 220.119C251.131 220.119 250.68 220.02 250.28 219.821C249.879 219.622 249.558 219.349 249.317 219.003C249.075 218.656 248.943 218.261 248.92 217.818H249.943C249.983 218.213 250.162 218.54 250.48 218.798C250.801 219.054 251.185 219.182 251.631 219.182C251.989 219.182 252.307 219.098 252.585 218.93C252.866 218.763 253.087 218.533 253.246 218.24C253.408 217.945 253.489 217.611 253.489 217.239C253.489 216.858 253.405 216.518 253.237 216.22C253.072 215.919 252.845 215.682 252.555 215.509C252.266 215.335 251.935 215.247 251.562 215.244C251.295 215.241 251.021 215.283 250.74 215.368C250.459 215.45 250.227 215.557 250.045 215.688L249.057 215.568L249.585 211.273H254.119V212.21H250.472L250.165 214.784H250.216C250.395 214.642 250.619 214.524 250.889 214.43C251.159 214.337 251.44 214.29 251.733 214.29C252.267 214.29 252.743 214.418 253.161 214.673C253.581 214.926 253.911 215.273 254.149 215.713C254.391 216.153 254.511 216.656 254.511 217.222C254.511 217.778 254.386 218.276 254.136 218.713C253.889 219.148 253.548 219.491 253.114 219.744C252.679 219.994 252.185 220.119 251.631 220.119ZM259.051 220.119C258.409 220.119 257.862 219.945 257.41 219.595C256.958 219.243 256.613 218.733 256.375 218.065C256.136 217.395 256.017 216.585 256.017 215.636C256.017 214.693 256.136 213.888 256.375 213.22C256.616 212.55 256.963 212.038 257.414 211.686C257.869 211.331 258.414 211.153 259.051 211.153C259.687 211.153 260.231 211.331 260.683 211.686C261.137 212.038 261.484 212.55 261.723 213.22C261.964 213.888 262.085 214.693 262.085 215.636C262.085 216.585 261.966 217.395 261.727 218.065C261.488 218.733 261.143 219.243 260.691 219.595C260.24 219.945 259.693 220.119 259.051 220.119ZM259.051 219.182C259.687 219.182 260.181 218.875 260.534 218.261C260.886 217.648 261.062 216.773 261.062 215.636C261.062 214.881 260.981 214.237 260.819 213.706C260.66 213.175 260.43 212.77 260.129 212.491C259.831 212.213 259.471 212.074 259.051 212.074C258.42 212.074 257.927 212.385 257.572 213.007C257.217 213.626 257.039 214.503 257.039 215.636C257.039 216.392 257.119 217.034 257.278 217.562C257.437 218.091 257.666 218.493 257.964 218.768C258.265 219.044 258.627 219.182 259.051 219.182ZM266.551 220.119C265.909 220.119 265.362 219.945 264.91 219.595C264.458 219.243 264.113 218.733 263.875 218.065C263.636 217.395 263.517 216.585 263.517 215.636C263.517 214.693 263.636 213.888 263.875 213.22C264.116 212.55 264.463 212.038 264.914 211.686C265.369 211.331 265.914 211.153 266.551 211.153C267.187 211.153 267.731 211.331 268.183 211.686C268.637 212.038 268.984 212.55 269.223 213.22C269.464 213.888 269.585 214.693 269.585 215.636C269.585 216.585 269.466 217.395 269.227 218.065C268.988 218.733 268.643 219.243 268.191 219.595C267.74 219.945 267.193 220.119 266.551 220.119ZM266.551 219.182C267.187 219.182 267.681 218.875 268.034 218.261C268.386 217.648 268.562 216.773 268.562 215.636C268.562 214.881 268.481 214.237 268.319 213.706C268.16 213.175 267.93 212.77 267.629 212.491C267.331 212.213 266.971 212.074 266.551 212.074C265.92 212.074 265.427 212.385 265.072 213.007C264.717 213.626 264.539 214.503 264.539 215.636C264.539 216.392 264.619 217.034 264.778 217.562C264.937 218.091 265.166 218.493 265.464 218.768C265.765 219.044 266.127 219.182 266.551 219.182Z" fill="var(--colors-neutral-neutral-800)"/>
<defs>
<clipPath id="clip0_2996_4684">
<rect width="288" height="32" fill="white" transform="translate(16)"/>
</clipPath>
<clipPath id="clip1_2996_4684">
<rect width="24" height="24" fill="white" transform="translate(141.333 4)"/>
</clipPath>
<clipPath id="clip2_2996_4684">
<rect width="288" height="32" fill="white" transform="translate(16 40)"/>
</clipPath>
<clipPath id="clip3_2996_4684">
<rect width="288" height="32" fill="white" transform="translate(16 80)"/>
</clipPath>
<clipPath id="clip4_2996_4684">
<rect width="288" height="32" fill="white" transform="translate(16 120)"/>
</clipPath>
</defs>
</svg>
