<svg width="320" height="141" viewBox="0 0 320 141" fill="none" xmlns="http://www.w3.org/2000/svg">
<path d="M119.209 35.8182V46H117.797L112.621 38.5327H112.527V46H110.991V35.8182H112.413L117.593 43.2955H117.687V35.8182H119.209ZM124.547 46.1541C123.831 46.1541 123.206 45.9901 122.673 45.6619C122.139 45.3338 121.725 44.8748 121.43 44.2848C121.135 43.6948 120.987 43.0054 120.987 42.2166C120.987 41.4245 121.135 40.7318 121.43 40.1385C121.725 39.5452 122.139 39.0845 122.673 38.7564C123.206 38.4283 123.831 38.2642 124.547 38.2642C125.263 38.2642 125.888 38.4283 126.421 38.7564C126.955 39.0845 127.369 39.5452 127.664 40.1385C127.959 40.7318 128.107 41.4245 128.107 42.2166C128.107 43.0054 127.959 43.6948 127.664 44.2848C127.369 44.8748 126.955 45.3338 126.421 45.6619C125.888 45.9901 125.263 46.1541 124.547 46.1541ZM124.552 44.9062C125.016 44.9062 125.4 44.7836 125.705 44.5384C126.01 44.2931 126.236 43.9666 126.381 43.5589C126.531 43.1513 126.605 42.7022 126.605 42.2116C126.605 41.7244 126.531 41.277 126.381 40.8693C126.236 40.4583 126.01 40.1286 125.705 39.88C125.4 39.6314 125.016 39.5071 124.552 39.5071C124.085 39.5071 123.697 39.6314 123.389 39.88C123.084 40.1286 122.857 40.4583 122.707 40.8693C122.562 41.277 122.489 41.7244 122.489 42.2116C122.489 42.7022 122.562 43.1513 122.707 43.5589C122.857 43.9666 123.084 44.2931 123.389 44.5384C123.697 44.7836 124.085 44.9062 124.552 44.9062ZM139.144 38.4929C139.091 38.0223 138.872 37.6577 138.487 37.3991C138.103 37.1373 137.619 37.0064 137.036 37.0064C136.618 37.0064 136.257 37.0727 135.952 37.2053C135.647 37.3345 135.41 37.5135 135.241 37.7422C135.075 37.9676 134.992 38.2244 134.992 38.5128C134.992 38.7547 135.049 38.9635 135.161 39.1392C135.277 39.3149 135.428 39.4624 135.614 39.5817C135.803 39.6977 136.005 39.7955 136.22 39.875C136.436 39.9512 136.643 40.0142 136.842 40.0639L137.836 40.3224C138.161 40.402 138.494 40.5097 138.835 40.6456C139.177 40.7815 139.493 40.9605 139.785 41.1825C140.077 41.4046 140.312 41.6797 140.491 42.0078C140.673 42.3359 140.764 42.7287 140.764 43.1861C140.764 43.7628 140.615 44.2749 140.317 44.7223C140.022 45.1697 139.593 45.5227 139.029 45.7812C138.469 46.0398 137.791 46.169 136.996 46.169C136.234 46.169 135.574 46.0481 135.017 45.8061C134.46 45.5642 134.024 45.2211 133.71 44.777C133.395 44.3295 133.221 43.7992 133.188 43.1861H134.729C134.759 43.554 134.878 43.8606 135.087 44.1058C135.299 44.3478 135.569 44.5284 135.897 44.6477C136.229 44.7637 136.591 44.8217 136.986 44.8217C137.42 44.8217 137.806 44.7538 138.144 44.6179C138.486 44.4787 138.754 44.2865 138.95 44.0412C139.145 43.7926 139.243 43.5026 139.243 43.1712C139.243 42.8696 139.157 42.6226 138.984 42.4304C138.815 42.2382 138.585 42.0791 138.293 41.9531C138.005 41.8272 137.679 41.7161 137.314 41.62L136.111 41.2919C135.296 41.0698 134.649 40.7434 134.172 40.3125C133.698 39.8816 133.461 39.3116 133.461 38.6023C133.461 38.0156 133.62 37.5036 133.938 37.0661C134.256 36.6286 134.687 36.2888 135.231 36.0469C135.774 35.8016 136.388 35.679 137.07 35.679C137.76 35.679 138.368 35.8 138.895 36.0419C139.425 36.2839 139.843 36.617 140.148 37.0412C140.453 37.4621 140.612 37.946 140.625 38.4929H139.144ZM142.481 46V38.3636H143.967V46H142.481ZM143.231 37.1854C142.973 37.1854 142.751 37.0992 142.565 36.9268C142.383 36.7512 142.292 36.5424 142.292 36.3004C142.292 36.0552 142.383 35.8464 142.565 35.674C142.751 35.4983 142.973 35.4105 143.231 35.4105C143.49 35.4105 143.71 35.4983 143.893 35.674C144.078 35.8464 144.171 36.0552 144.171 36.3004C144.171 36.5424 144.078 36.7512 143.893 36.9268C143.71 37.0992 143.49 37.1854 143.231 37.1854ZM145.967 46V38.3636H147.394V39.6065H147.488C147.647 39.1856 147.908 38.8575 148.269 38.6222C148.63 38.3835 149.063 38.2642 149.566 38.2642C150.077 38.2642 150.504 38.3835 150.849 38.6222C151.197 38.8608 151.454 39.1889 151.62 39.6065H151.699C151.882 39.1989 152.172 38.8741 152.569 38.6321C152.967 38.3868 153.441 38.2642 153.991 38.2642C154.684 38.2642 155.249 38.4813 155.687 38.9155C156.127 39.3497 156.348 40.0043 156.348 40.8793V46H154.861V41.0185C154.861 40.5014 154.72 40.1269 154.439 39.8949C154.157 39.6629 153.821 39.5469 153.429 39.5469C152.946 39.5469 152.569 39.696 152.301 39.9943C152.032 40.2893 151.898 40.6688 151.898 41.1328V46H150.417V40.924C150.417 40.5097 150.287 40.1766 150.029 39.9247C149.77 39.6728 149.434 39.5469 149.02 39.5469C148.738 39.5469 148.478 39.6214 148.239 39.7706C148.004 39.9164 147.813 40.1203 147.667 40.3821C147.525 40.6439 147.454 40.9472 147.454 41.2919V46H145.967ZM163.177 42.8331V38.3636H164.669V46H163.207V44.6776H163.128C162.952 45.0852 162.67 45.425 162.283 45.6967C161.898 45.9652 161.419 46.0994 160.846 46.0994C160.355 46.0994 159.921 45.9917 159.543 45.7763C159.169 45.5575 158.874 45.2344 158.658 44.8068C158.446 44.3793 158.34 43.8506 158.34 43.2209V38.3636H159.827V43.0419C159.827 43.5623 159.971 43.9766 160.259 44.2848C160.547 44.593 160.922 44.7472 161.383 44.7472C161.661 44.7472 161.938 44.6776 162.213 44.5384C162.491 44.3991 162.722 44.1887 162.904 43.907C163.09 43.6252 163.181 43.2673 163.177 42.8331ZM168.153 35.8182V46H166.666V35.8182H168.153ZM172.375 46.169C171.891 46.169 171.454 46.0795 171.062 45.9006C170.671 45.7183 170.361 45.4548 170.133 45.1101C169.907 44.7654 169.795 44.3428 169.795 43.8423C169.795 43.4115 169.878 43.0568 170.043 42.7784C170.209 42.5 170.433 42.2796 170.714 42.1172C170.996 41.9548 171.311 41.8321 171.659 41.7493C172.007 41.6664 172.362 41.6035 172.723 41.5604C173.18 41.5073 173.552 41.4643 173.837 41.4311C174.122 41.3946 174.329 41.3366 174.458 41.2571C174.587 41.1776 174.652 41.0483 174.652 40.8693V40.8345C174.652 40.4003 174.529 40.0639 174.284 39.8253C174.042 39.5866 173.681 39.4673 173.2 39.4673C172.7 39.4673 172.305 39.5784 172.017 39.8004C171.732 40.0192 171.535 40.2628 171.425 40.5312L170.028 40.2131C170.194 39.7491 170.436 39.3745 170.754 39.0895C171.076 38.8011 171.445 38.5923 171.863 38.4631C172.28 38.3305 172.72 38.2642 173.18 38.2642C173.485 38.2642 173.808 38.3007 174.15 38.3736C174.494 38.4432 174.816 38.5724 175.114 38.7614C175.416 38.9503 175.663 39.2204 175.855 39.5717C176.047 39.9197 176.143 40.3722 176.143 40.929V46H174.692V44.956H174.632C174.536 45.1482 174.392 45.3371 174.199 45.5227C174.007 45.7083 173.76 45.8625 173.459 45.9851C173.157 46.1077 172.796 46.169 172.375 46.169ZM172.698 44.9759C173.109 44.9759 173.46 44.8946 173.752 44.7322C174.047 44.5698 174.271 44.3577 174.423 44.0959C174.579 43.8307 174.657 43.5473 174.657 43.2457V42.2614C174.604 42.3144 174.501 42.3641 174.349 42.4105C174.199 42.4536 174.029 42.4917 173.837 42.5249C173.644 42.5547 173.457 42.5829 173.275 42.6094C173.092 42.6326 172.94 42.6525 172.817 42.669C172.529 42.7055 172.266 42.7668 172.027 42.853C171.792 42.9392 171.603 43.0634 171.46 43.2259C171.321 43.3849 171.251 43.5971 171.251 43.8622C171.251 44.2301 171.387 44.5085 171.659 44.6974C171.931 44.883 172.277 44.9759 172.698 44.9759ZM181.688 38.3636V39.5568H177.517V38.3636H181.688ZM178.635 36.5341H180.122V43.7578C180.122 44.0462 180.165 44.2633 180.251 44.4091C180.337 44.5516 180.448 44.6494 180.584 44.7024C180.723 44.7521 180.874 44.777 181.037 44.777C181.156 44.777 181.26 44.7687 181.35 44.7521C181.439 44.7356 181.509 44.7223 181.559 44.7124L181.827 45.9403C181.741 45.9735 181.618 46.0066 181.459 46.0398C181.3 46.0762 181.101 46.0961 180.863 46.0994C180.472 46.1061 180.107 46.0365 179.769 45.8906C179.431 45.7448 179.157 45.5194 178.949 45.2145C178.74 44.9096 178.635 44.5268 178.635 44.0661V36.5341ZM183.332 46V38.3636H184.819V46H183.332ZM184.083 37.1854C183.824 37.1854 183.602 37.0992 183.417 36.9268C183.235 36.7512 183.143 36.5424 183.143 36.3004C183.143 36.0552 183.235 35.8464 183.417 35.674C183.602 35.4983 183.824 35.4105 184.083 35.4105C184.342 35.4105 184.562 35.4983 184.744 35.674C184.93 35.8464 185.023 36.0552 185.023 36.3004C185.023 36.5424 184.93 36.7512 184.744 36.9268C184.562 37.0992 184.342 37.1854 184.083 37.1854ZM190.035 46.1541C189.319 46.1541 188.695 45.9901 188.161 45.6619C187.627 45.3338 187.213 44.8748 186.918 44.2848C186.623 43.6948 186.476 43.0054 186.476 42.2166C186.476 41.4245 186.623 40.7318 186.918 40.1385C187.213 39.5452 187.627 39.0845 188.161 38.7564C188.695 38.4283 189.319 38.2642 190.035 38.2642C190.751 38.2642 191.376 38.4283 191.91 38.7564C192.443 39.0845 192.857 39.5452 193.152 40.1385C193.447 40.7318 193.595 41.4245 193.595 42.2166C193.595 43.0054 193.447 43.6948 193.152 44.2848C192.857 44.8748 192.443 45.3338 191.91 45.6619C191.376 45.9901 190.751 46.1541 190.035 46.1541ZM190.04 44.9062C190.504 44.9062 190.889 44.7836 191.194 44.5384C191.499 44.2931 191.724 43.9666 191.87 43.5589C192.019 43.1513 192.093 42.7022 192.093 42.2116C192.093 41.7244 192.019 41.277 191.87 40.8693C191.724 40.4583 191.499 40.1286 191.194 39.88C190.889 39.6314 190.504 39.5071 190.04 39.5071C189.573 39.5071 189.185 39.6314 188.877 39.88C188.572 40.1286 188.345 40.4583 188.196 40.8693C188.05 41.277 187.977 41.7244 187.977 42.2116C187.977 42.7022 188.05 43.1513 188.196 43.5589C188.345 43.9666 188.572 44.2931 188.877 44.5384C189.185 44.7836 189.573 44.9062 190.04 44.9062ZM196.741 41.4659V46H195.254V38.3636H196.681V39.6065H196.775C196.951 39.2022 197.226 38.8774 197.601 38.6321C197.979 38.3868 198.454 38.2642 199.028 38.2642C199.548 38.2642 200.004 38.3736 200.395 38.5923C200.786 38.8078 201.089 39.1293 201.305 39.5568C201.52 39.9844 201.628 40.513 201.628 41.1428V46H200.141V41.3217C200.141 40.7682 199.997 40.3357 199.709 40.0241C199.42 39.7093 199.024 39.5518 198.521 39.5518C198.176 39.5518 197.869 39.6264 197.601 39.7756C197.336 39.9247 197.125 40.1435 196.969 40.4318C196.817 40.7169 196.741 41.0616 196.741 41.4659ZM209.344 40.228L207.996 40.4666C207.94 40.2943 207.851 40.1302 207.728 39.9744C207.609 39.8187 207.446 39.6911 207.241 39.5916C207.035 39.4922 206.778 39.4425 206.47 39.4425C206.049 39.4425 205.698 39.5369 205.416 39.7259C205.134 39.9115 204.994 40.1518 204.994 40.4467C204.994 40.7019 205.088 40.9074 205.277 41.0632C205.466 41.219 205.771 41.3466 206.192 41.446L207.405 41.7244C208.107 41.8868 208.631 42.1371 208.976 42.4751C209.32 42.8132 209.493 43.2524 209.493 43.7926C209.493 44.25 209.36 44.6577 209.095 45.0156C208.833 45.3703 208.467 45.6487 207.996 45.8509C207.529 46.053 206.987 46.1541 206.371 46.1541C205.516 46.1541 204.818 45.9718 204.278 45.6072C203.737 45.2393 203.406 44.7173 203.283 44.0412L204.72 43.8224C204.81 44.197 204.994 44.4804 205.272 44.6726C205.55 44.8615 205.913 44.956 206.361 44.956C206.848 44.956 207.237 44.8549 207.529 44.6527C207.821 44.4472 207.967 44.197 207.967 43.902C207.967 43.6634 207.877 43.4628 207.698 43.3004C207.522 43.138 207.252 43.0154 206.888 42.9325L205.595 42.6491C204.882 42.4867 204.355 42.2282 204.014 41.8736C203.676 41.5189 203.507 41.0698 203.507 40.5263C203.507 40.0755 203.633 39.6811 203.885 39.343C204.137 39.005 204.485 38.7415 204.929 38.5526C205.373 38.3603 205.882 38.2642 206.455 38.2642C207.28 38.2642 207.93 38.4432 208.404 38.8011C208.878 39.1558 209.191 39.6314 209.344 40.228Z" fill="var(--colors-neutral-neutral-800)"/>
<path d="M48.5483 80H47.4915C47.429 79.696 47.3196 79.429 47.1634 79.1989C47.0099 78.9688 46.8224 78.7756 46.6009 78.6193C46.3821 78.4602 46.1392 78.3409 45.8722 78.2614C45.6051 78.1818 45.3267 78.142 45.0369 78.142C44.5085 78.142 44.0298 78.2756 43.6009 78.5426C43.1747 78.8097 42.8352 79.2031 42.5824 79.723C42.3324 80.2429 42.2074 80.8807 42.2074 81.6364C42.2074 82.392 42.3324 83.0298 42.5824 83.5497C42.8352 84.0696 43.1747 84.4631 43.6009 84.7301C44.0298 84.9972 44.5085 85.1307 45.0369 85.1307C45.3267 85.1307 45.6051 85.0909 45.8722 85.0114C46.1392 84.9318 46.3821 84.8139 46.6009 84.6577C46.8224 84.4986 47.0099 84.304 47.1634 84.0739C47.3196 83.8409 47.429 83.5739 47.4915 83.2727H48.5483C48.4688 83.7187 48.3239 84.1179 48.1136 84.4702C47.9034 84.8224 47.642 85.1222 47.3295 85.3693C47.017 85.6136 46.6662 85.7997 46.277 85.9276C45.8906 86.0554 45.4773 86.1193 45.0369 86.1193C44.2926 86.1193 43.6307 85.9375 43.0511 85.5739C42.4716 85.2102 42.0156 84.6932 41.6832 84.0227C41.3509 83.3523 41.1847 82.5568 41.1847 81.6364C41.1847 80.7159 41.3509 79.9205 41.6832 79.25C42.0156 78.5795 42.4716 78.0625 43.0511 77.6989C43.6307 77.3352 44.2926 77.1534 45.0369 77.1534C45.4773 77.1534 45.8906 77.2173 46.277 77.3452C46.6662 77.473 47.017 77.6605 47.3295 77.9077C47.642 78.152 47.9034 78.4503 48.1136 78.8026C48.3239 79.152 48.4688 79.5511 48.5483 80ZM51.1254 77.2727V86H50.1197V77.2727H51.1254ZM52.9673 86V79.4545H53.973V86H52.9673ZM53.4787 78.3636C53.2827 78.3636 53.1136 78.2969 52.9716 78.1634C52.8324 78.0298 52.7628 77.8693 52.7628 77.6818C52.7628 77.4943 52.8324 77.3338 52.9716 77.2003C53.1136 77.0668 53.2827 77 53.4787 77C53.6747 77 53.8423 77.0668 53.9815 77.2003C54.1236 77.3338 54.1946 77.4943 54.1946 77.6818C54.1946 77.8693 54.1236 78.0298 53.9815 78.1634C53.8423 78.2969 53.6747 78.3636 53.4787 78.3636ZM58.4741 86.1364C57.8604 86.1364 57.332 85.9915 56.8888 85.7017C56.4457 85.4119 56.1048 85.0128 55.8661 84.5043C55.6275 83.9957 55.5082 83.4148 55.5082 82.7614C55.5082 82.0966 55.6303 81.5099 55.8746 81.0014C56.1218 80.4901 56.4656 80.0909 56.9059 79.804C57.3491 79.5142 57.8661 79.3693 58.457 79.3693C58.9173 79.3693 59.332 79.4545 59.7013 79.625C60.0707 79.7955 60.3732 80.0341 60.609 80.3409C60.8448 80.6477 60.9911 81.0057 61.0479 81.4148H60.0423C59.9656 81.1165 59.7951 80.8523 59.5309 80.6222C59.2695 80.3892 58.9173 80.2727 58.4741 80.2727C58.082 80.2727 57.7383 80.375 57.4428 80.5795C57.1502 80.7812 56.9215 81.0668 56.7567 81.4361C56.5948 81.8026 56.5138 82.233 56.5138 82.7273C56.5138 83.233 56.5934 83.6733 56.7525 84.0483C56.9144 84.4233 57.1417 84.7145 57.4343 84.9219C57.7298 85.1293 58.0763 85.233 58.4741 85.233C58.7354 85.233 58.9727 85.1875 59.1857 85.0966C59.3988 85.0057 59.5792 84.875 59.7269 84.7045C59.8746 84.5341 59.9798 84.3295 60.0423 84.0909H61.0479C60.9911 84.4773 60.8505 84.8253 60.6261 85.1349C60.4045 85.4418 60.1104 85.6861 59.744 85.8679C59.3803 86.0469 58.957 86.1364 58.4741 86.1364ZM63.4556 83.6136L63.4386 82.3693H63.6431L66.5067 79.4545H67.7511L64.6999 82.5398H64.6147L63.4556 83.6136ZM62.5181 86V77.2727H63.5238V86H62.5181ZM66.6772 86L64.1204 82.7614L64.8363 82.0625L67.9556 86H66.6772ZM75.267 79.4545V80.3068H71.875V79.4545H75.267ZM72.8636 77.8864H73.8693V84.125C73.8693 84.4091 73.9105 84.6222 73.9929 84.7642C74.0781 84.9034 74.1861 84.9972 74.3168 85.0455C74.4503 85.0909 74.5909 85.1136 74.7386 85.1136C74.8494 85.1136 74.9403 85.108 75.0114 85.0966C75.0824 85.0824 75.1392 85.071 75.1818 85.0625L75.3864 85.9659C75.3182 85.9915 75.223 86.017 75.1009 86.0426C74.9787 86.071 74.8239 86.0852 74.6364 86.0852C74.3523 86.0852 74.0739 86.0241 73.8011 85.902C73.5313 85.7798 73.3068 85.5938 73.1278 85.3438C72.9517 85.0938 72.8636 84.7784 72.8636 84.3977V77.8864ZM77.9261 82.0625V86H76.9205V77.2727H77.9261V80.4773H78.0114C78.1648 80.1392 78.3949 79.8707 78.7017 79.6719C79.0114 79.4702 79.4233 79.3693 79.9375 79.3693C80.3835 79.3693 80.7741 79.4588 81.1094 79.6378C81.4446 79.8139 81.7045 80.0852 81.8892 80.4517C82.0767 80.8153 82.1705 81.2784 82.1705 81.8409V86H81.1648V81.9091C81.1648 81.3892 81.0298 80.9872 80.7599 80.7031C80.4929 80.4162 80.1222 80.2727 79.6477 80.2727C79.3182 80.2727 79.0227 80.3423 78.7614 80.4815C78.5028 80.6207 78.2983 80.8239 78.1477 81.0909C78 81.358 77.9261 81.6818 77.9261 82.0625ZM86.7546 86.1364C86.1239 86.1364 85.5799 85.9972 85.1225 85.7188C84.668 85.4375 84.3171 85.0455 84.07 84.5426C83.8256 84.0369 83.7035 83.4489 83.7035 82.7784C83.7035 82.108 83.8256 81.517 84.07 81.0057C84.3171 80.4915 84.6609 80.0909 85.1012 79.804C85.5444 79.5142 86.0614 79.3693 86.6523 79.3693C86.9933 79.3693 87.3299 79.4261 87.6623 79.5398C87.9947 79.6534 88.2972 79.8381 88.57 80.0938C88.8427 80.3466 89.06 80.6818 89.2219 81.0994C89.3839 81.517 89.4648 82.0312 89.4648 82.642V83.0682H84.4194V82.1989H88.4421C88.4421 81.8295 88.3683 81.5 88.2205 81.2102C88.0756 80.9205 87.8683 80.6918 87.5984 80.5241C87.3313 80.3565 87.016 80.2727 86.6523 80.2727C86.2518 80.2727 85.9052 80.3722 85.6126 80.571C85.3228 80.767 85.0998 81.0227 84.9435 81.3381C84.7873 81.6534 84.7092 81.9915 84.7092 82.3523V82.9318C84.7092 83.4261 84.7944 83.8452 84.9648 84.1889C85.1381 84.5298 85.3782 84.7898 85.685 84.9688C85.9918 85.1449 86.3484 85.233 86.7546 85.233C87.0188 85.233 87.2575 85.196 87.4705 85.1222C87.6864 85.0455 87.8725 84.9318 88.0288 84.7812C88.185 84.6278 88.3058 84.4375 88.391 84.2102L89.3626 84.483C89.2603 84.8125 89.0884 85.1023 88.8469 85.3523C88.6055 85.5994 88.3072 85.7926 87.9521 85.9318C87.5969 86.0682 87.1978 86.1364 86.7546 86.1364ZM94.0288 80V79.233C94.0288 79 94.07 78.7528 94.1523 78.4915C94.2376 78.2273 94.3597 77.973 94.5188 77.7287C94.6808 77.4815 94.8754 77.267 95.1026 77.0852L95.6481 77.5284C95.4691 77.7841 95.3129 78.0511 95.1793 78.3295C95.0487 78.6051 94.9833 78.9006 94.9833 79.2159V80H94.0288ZM103.817 77.2727V86H102.794L98.0387 79.1477H97.9535V86H96.8967V77.2727H97.9194L102.692 84.142H102.777V77.2727H103.817ZM108.54 86.1364C107.909 86.1364 107.365 85.9972 106.908 85.7188C106.453 85.4375 106.102 85.0455 105.855 84.5426C105.611 84.0369 105.489 83.4489 105.489 82.7784C105.489 82.108 105.611 81.517 105.855 81.0057C106.102 80.4915 106.446 80.0909 106.886 79.804C107.33 79.5142 107.847 79.3693 108.438 79.3693C108.778 79.3693 109.115 79.4261 109.447 79.5398C109.78 79.6534 110.082 79.8381 110.355 80.0938C110.628 80.3466 110.845 80.6818 111.007 81.0994C111.169 81.517 111.25 82.0312 111.25 82.642V83.0682H106.205V82.1989H110.227C110.227 81.8295 110.153 81.5 110.006 81.2102C109.861 80.9205 109.653 80.6918 109.384 80.5241C109.116 80.3565 108.801 80.2727 108.438 80.2727C108.037 80.2727 107.69 80.3722 107.398 80.571C107.108 80.767 106.885 81.0227 106.729 81.3381C106.572 81.6534 106.494 81.9915 106.494 82.3523V82.9318C106.494 83.4261 106.58 83.8452 106.75 84.1889C106.923 84.5298 107.163 84.7898 107.47 84.9688C107.777 85.1449 108.134 85.233 108.54 85.233C108.804 85.233 109.043 85.196 109.256 85.1222C109.472 85.0455 109.658 84.9318 109.814 84.7812C109.97 84.6278 110.091 84.4375 110.176 84.2102L111.148 84.483C111.045 84.8125 110.874 85.1023 110.632 85.3523C110.391 85.5994 110.092 85.7926 109.737 85.9318C109.382 86.0682 108.983 86.1364 108.54 86.1364ZM114.263 86L112.268 79.4545H113.325L114.74 84.4659H114.808L116.206 79.4545H117.28L118.661 84.4489H118.729L120.143 79.4545H121.2L119.206 86H118.217L116.786 80.9716H116.683L115.251 86H114.263ZM130.541 80.9205L129.638 81.1761C129.581 81.0256 129.497 80.8793 129.386 80.7372C129.278 80.5923 129.131 80.473 128.943 80.3793C128.756 80.2855 128.516 80.2386 128.223 80.2386C127.822 80.2386 127.489 80.331 127.222 80.5156C126.957 80.6974 126.825 80.929 126.825 81.2102C126.825 81.4602 126.916 81.6577 127.098 81.8026C127.28 81.9474 127.564 82.0682 127.95 82.1648L128.922 82.4034C129.507 82.5455 129.943 82.7628 130.23 83.0554C130.517 83.3452 130.661 83.7187 130.661 84.1761C130.661 84.5511 130.553 84.8864 130.337 85.1818C130.124 85.4773 129.825 85.7102 129.442 85.8807C129.058 86.0511 128.612 86.1364 128.104 86.1364C127.436 86.1364 126.884 85.9915 126.446 85.7017C126.009 85.4119 125.732 84.9886 125.615 84.4318L126.57 84.1932C126.661 84.5455 126.832 84.8097 127.085 84.9858C127.341 85.1619 127.675 85.25 128.087 85.25C128.555 85.25 128.928 85.1506 129.203 84.9517C129.482 84.75 129.621 84.5085 129.621 84.2273C129.621 84 129.541 83.8097 129.382 83.6562C129.223 83.5 128.979 83.3835 128.649 83.3068L127.558 83.0511C126.959 82.9091 126.518 82.6889 126.237 82.3906C125.959 82.0895 125.82 81.7131 125.82 81.2614C125.82 80.892 125.923 80.5653 126.131 80.2812C126.341 79.9972 126.626 79.7741 126.987 79.6122C127.351 79.4503 127.763 79.3693 128.223 79.3693C128.871 79.3693 129.379 79.5114 129.749 79.7955C130.121 80.0795 130.385 80.4545 130.541 80.9205ZM132.174 86V79.4545H133.18V86H132.174ZM132.686 78.3636C132.49 78.3636 132.321 78.2969 132.179 78.1634C132.039 78.0298 131.97 77.8693 131.97 77.6818C131.97 77.4943 132.039 77.3338 132.179 77.2003C132.321 77.0668 132.49 77 132.686 77C132.882 77 133.049 77.0668 133.189 77.2003C133.331 77.3338 133.402 77.4943 133.402 77.6818C133.402 77.8693 133.331 78.0298 133.189 78.1634C133.049 78.2969 132.882 78.3636 132.686 78.3636ZM135.022 86V79.4545H135.994V80.4773H136.079C136.215 80.1278 136.435 79.8565 136.739 79.6634C137.043 79.4673 137.408 79.3693 137.835 79.3693C138.266 79.3693 138.626 79.4673 138.913 79.6634C139.202 79.8565 139.428 80.1278 139.59 80.4773H139.658C139.826 80.1392 140.077 79.8707 140.413 79.6719C140.748 79.4702 141.15 79.3693 141.619 79.3693C142.204 79.3693 142.683 79.5526 143.055 79.919C143.427 80.2827 143.613 80.8494 143.613 81.6193V86H142.607V81.6193C142.607 81.1364 142.475 80.7912 142.211 80.5838C141.947 80.3764 141.636 80.2727 141.278 80.2727C140.817 80.2727 140.461 80.4119 140.208 80.6903C139.955 80.9659 139.829 81.3153 139.829 81.7386V86H138.806V81.517C138.806 81.1449 138.685 80.8452 138.444 80.6179C138.202 80.3878 137.891 80.2727 137.511 80.2727C137.249 80.2727 137.005 80.3423 136.778 80.4815C136.553 80.6207 136.371 80.8139 136.232 81.0611C136.096 81.3054 136.028 81.5881 136.028 81.9091V86H135.022ZM149.577 83.3239V79.4545H150.582V86H149.577V84.892H149.509C149.355 85.2244 149.116 85.5071 148.793 85.7401C148.469 85.9702 148.06 86.0852 147.565 86.0852C147.156 86.0852 146.793 85.9957 146.474 85.8168C146.156 85.6349 145.906 85.3622 145.724 84.9986C145.543 84.6321 145.452 84.1705 145.452 83.6136V79.4545H146.457V83.5455C146.457 84.0227 146.591 84.4034 146.858 84.6875C147.128 84.9716 147.472 85.1136 147.889 85.1136C148.139 85.1136 148.393 85.0497 148.652 84.9219C148.913 84.794 149.132 84.598 149.308 84.3338C149.487 84.0696 149.577 83.733 149.577 83.3239ZM153.43 77.2727V86H152.424V77.2727H153.43ZM157.198 86.1534C156.783 86.1534 156.407 86.0753 156.069 85.919C155.731 85.7599 155.462 85.5312 155.263 85.233C155.065 84.9318 154.965 84.5682 154.965 84.142C154.965 83.767 155.039 83.4631 155.187 83.2301C155.335 82.9943 155.532 82.8097 155.779 82.6761C156.026 82.5426 156.299 82.4432 156.597 82.3778C156.898 82.3097 157.201 82.2557 157.505 82.2159C157.903 82.1648 158.225 82.1264 158.472 82.1009C158.722 82.0724 158.904 82.0256 159.018 81.9602C159.134 81.8949 159.192 81.7812 159.192 81.6193V81.5852C159.192 81.1648 159.077 80.8381 158.847 80.6051C158.62 80.3722 158.275 80.2557 157.812 80.2557C157.332 80.2557 156.955 80.3608 156.683 80.571C156.41 80.7812 156.218 81.0057 156.107 81.2443L155.153 80.9034C155.323 80.5057 155.55 80.196 155.835 79.9744C156.121 79.75 156.434 79.5937 156.772 79.5057C157.113 79.4148 157.448 79.3693 157.778 79.3693C157.988 79.3693 158.229 79.3949 158.502 79.446C158.778 79.4943 159.043 79.5952 159.299 79.7486C159.558 79.902 159.772 80.1335 159.942 80.4432C160.113 80.7528 160.198 81.1676 160.198 81.6875V86H159.192V85.1136H159.141C159.073 85.2557 158.96 85.4077 158.8 85.5696C158.641 85.7315 158.43 85.8693 158.165 85.983C157.901 86.0966 157.579 86.1534 157.198 86.1534ZM157.352 85.25C157.749 85.25 158.085 85.1719 158.357 85.0156C158.633 84.8594 158.84 84.6577 158.979 84.4105C159.121 84.1634 159.192 83.9034 159.192 83.6307V82.7102C159.15 82.7614 159.056 82.8082 158.911 82.8509C158.769 82.8906 158.604 82.9261 158.417 82.9574C158.232 82.9858 158.052 83.0114 157.876 83.0341C157.702 83.054 157.562 83.071 157.454 83.0852C157.192 83.1193 156.948 83.1747 156.721 83.2514C156.496 83.3253 156.315 83.4375 156.175 83.5881C156.039 83.7358 155.971 83.9375 155.971 84.1932C155.971 84.5426 156.1 84.8068 156.359 84.9858C156.62 85.1619 156.951 85.25 157.352 85.25ZM164.88 79.4545V80.3068H161.488V79.4545H164.88ZM162.477 77.8864H163.483V84.125C163.483 84.4091 163.524 84.6222 163.606 84.7642C163.691 84.9034 163.799 84.9972 163.93 85.0455C164.064 85.0909 164.204 85.1136 164.352 85.1136C164.463 85.1136 164.554 85.108 164.625 85.0966C164.696 85.0824 164.752 85.071 164.795 85.0625L165 85.9659C164.931 85.9915 164.836 86.017 164.714 86.0426C164.592 86.071 164.437 86.0852 164.25 86.0852C163.966 86.0852 163.687 86.0241 163.414 85.902C163.145 85.7798 162.92 85.5938 162.741 85.3438C162.565 85.0938 162.477 84.7784 162.477 84.3977V77.8864ZM166.393 86V79.4545H167.399V86H166.393ZM166.904 78.3636C166.708 78.3636 166.539 78.2969 166.397 78.1634C166.258 78.0298 166.189 77.8693 166.189 77.6818C166.189 77.4943 166.258 77.3338 166.397 77.2003C166.539 77.0668 166.708 77 166.904 77C167.1 77 167.268 77.0668 167.407 77.2003C167.549 77.3338 167.62 77.4943 167.62 77.6818C167.62 77.8693 167.549 78.0298 167.407 78.1634C167.268 78.2969 167.1 78.3636 166.904 78.3636ZM171.9 86.1364C171.309 86.1364 170.79 85.9957 170.344 85.7145C169.901 85.4332 169.555 85.0398 169.305 84.5341C169.058 84.0284 168.934 83.4375 168.934 82.7614C168.934 82.0795 169.058 81.4844 169.305 80.9759C169.555 80.4673 169.901 80.0724 170.344 79.7912C170.79 79.5099 171.309 79.3693 171.9 79.3693C172.491 79.3693 173.008 79.5099 173.451 79.7912C173.897 80.0724 174.244 80.4673 174.491 80.9759C174.741 81.4844 174.866 82.0795 174.866 82.7614C174.866 83.4375 174.741 84.0284 174.491 84.5341C174.244 85.0398 173.897 85.4332 173.451 85.7145C173.008 85.9957 172.491 86.1364 171.9 86.1364ZM171.9 85.233C172.349 85.233 172.718 85.1179 173.008 84.8878C173.298 84.6577 173.512 84.3551 173.651 83.9801C173.79 83.6051 173.86 83.1989 173.86 82.7614C173.86 82.3239 173.79 81.9162 173.651 81.5384C173.512 81.1605 173.298 80.8551 173.008 80.6222C172.718 80.3892 172.349 80.2727 171.9 80.2727C171.451 80.2727 171.082 80.3892 170.792 80.6222C170.502 80.8551 170.288 81.1605 170.148 81.5384C170.009 81.9162 169.94 82.3239 169.94 82.7614C169.94 83.1989 170.009 83.6051 170.148 83.9801C170.288 84.3551 170.502 84.6577 170.792 84.8878C171.082 85.1179 171.451 85.233 171.9 85.233ZM177.407 82.0625V86H176.401V79.4545H177.373V80.4773H177.458C177.611 80.1449 177.844 79.8778 178.157 79.6761C178.469 79.4716 178.873 79.3693 179.367 79.3693C179.81 79.3693 180.198 79.4602 180.53 79.642C180.863 79.821 181.121 80.0938 181.306 80.4602C181.49 80.8239 181.583 81.2841 181.583 81.8409V86H180.577V81.9091C180.577 81.3949 180.444 80.9943 180.176 80.7074C179.909 80.4176 179.543 80.2727 179.077 80.2727C178.756 80.2727 178.469 80.3423 178.216 80.4815C177.966 80.6207 177.769 80.8239 177.624 81.0909C177.479 81.358 177.407 81.6818 177.407 82.0625ZM184.307 77.2727V78.0398C184.307 78.2727 184.264 78.5213 184.179 78.7855C184.097 79.0469 183.974 79.3011 183.812 79.5483C183.653 79.7926 183.46 80.0057 183.233 80.1875L182.688 79.7443C182.866 79.4886 183.021 79.223 183.152 78.9474C183.286 78.669 183.352 78.3722 183.352 78.0568V77.2727H184.307ZM189.147 86V77.2727H190.152V80.4943H190.238C190.311 80.3807 190.414 80.2358 190.544 80.0597C190.678 79.8807 190.868 79.7216 191.115 79.5824C191.365 79.4403 191.703 79.3693 192.13 79.3693C192.681 79.3693 193.167 79.5071 193.587 79.7827C194.007 80.0582 194.336 80.4489 194.571 80.9545C194.807 81.4602 194.925 82.0568 194.925 82.7443C194.925 83.4375 194.807 84.0384 194.571 84.5469C194.336 85.0526 194.009 85.4446 193.591 85.723C193.174 85.9986 192.692 86.1364 192.147 86.1364C191.726 86.1364 191.39 86.0668 191.137 85.9276C190.884 85.7855 190.689 85.625 190.553 85.446C190.417 85.2642 190.311 85.1136 190.238 84.9943H190.118V86H189.147ZM190.135 82.7273C190.135 83.2216 190.208 83.6577 190.353 84.0355C190.498 84.4105 190.709 84.7045 190.988 84.9176C191.266 85.1278 191.607 85.233 192.01 85.233C192.431 85.233 192.782 85.1222 193.063 84.9006C193.347 84.6761 193.56 84.375 193.702 83.9972C193.847 83.6165 193.919 83.1932 193.919 82.7273C193.919 82.267 193.848 81.8523 193.706 81.483C193.567 81.1108 193.355 80.8168 193.071 80.6009C192.79 80.3821 192.436 80.2727 192.01 80.2727C191.601 80.2727 191.257 80.3764 190.979 80.5838C190.701 80.7884 190.49 81.0753 190.348 81.4446C190.206 81.8111 190.135 82.2386 190.135 82.7273ZM200.588 83.3239V79.4545H201.594V86H200.588V84.892H200.52C200.367 85.2244 200.128 85.5071 199.804 85.7401C199.48 85.9702 199.071 86.0852 198.577 86.0852C198.168 86.0852 197.804 85.9957 197.486 85.8168C197.168 85.6349 196.918 85.3622 196.736 84.9986C196.554 84.6321 196.463 84.1705 196.463 83.6136V79.4545H197.469V83.5455C197.469 84.0227 197.603 84.4034 197.87 84.6875C198.14 84.9716 198.483 85.1136 198.901 85.1136C199.151 85.1136 199.405 85.0497 199.664 84.9219C199.925 84.794 200.144 84.598 200.32 84.3338C200.499 84.0696 200.588 83.733 200.588 83.3239ZM206.283 79.4545V80.3068H202.891V79.4545H206.283ZM203.879 77.8864H204.885V84.125C204.885 84.4091 204.926 84.6222 205.009 84.7642C205.094 84.9034 205.202 84.9972 205.332 85.0455C205.466 85.0909 205.607 85.1136 205.754 85.1136C205.865 85.1136 205.956 85.108 206.027 85.0966C206.098 85.0824 206.155 85.071 206.197 85.0625L206.402 85.9659C206.334 85.9915 206.239 86.017 206.116 86.0426C205.994 86.071 205.839 86.0852 205.652 86.0852C205.368 86.0852 205.089 86.0241 204.817 85.902C204.547 85.7798 204.322 85.5938 204.143 85.3438C203.967 85.0938 203.879 84.7784 203.879 84.3977V77.8864ZM210.642 79.4545V80.3068H207.25V79.4545H210.642ZM208.239 77.8864H209.244V84.125C209.244 84.4091 209.286 84.6222 209.368 84.7642C209.453 84.9034 209.561 84.9972 209.692 85.0455C209.825 85.0909 209.966 85.1136 210.114 85.1136C210.224 85.1136 210.315 85.108 210.386 85.0966C210.457 85.0824 210.514 85.071 210.557 85.0625L210.761 85.9659C210.693 85.9915 210.598 86.017 210.476 86.0426C210.354 86.071 210.199 86.0852 210.011 86.0852C209.727 86.0852 209.449 86.0241 209.176 85.902C208.906 85.7798 208.682 85.5938 208.503 85.3438C208.327 85.0938 208.239 84.7784 208.239 84.3977V77.8864ZM214.744 86.1364C214.153 86.1364 213.634 85.9957 213.188 85.7145C212.745 85.4332 212.398 85.0398 212.148 84.5341C211.901 84.0284 211.778 83.4375 211.778 82.7614C211.778 82.0795 211.901 81.4844 212.148 80.9759C212.398 80.4673 212.745 80.0724 213.188 79.7912C213.634 79.5099 214.153 79.3693 214.744 79.3693C215.335 79.3693 215.852 79.5099 216.295 79.7912C216.741 80.0724 217.087 80.4673 217.335 80.9759C217.585 81.4844 217.71 82.0795 217.71 82.7614C217.71 83.4375 217.585 84.0284 217.335 84.5341C217.087 85.0398 216.741 85.4332 216.295 85.7145C215.852 85.9957 215.335 86.1364 214.744 86.1364ZM214.744 85.233C215.192 85.233 215.562 85.1179 215.852 84.8878C216.141 84.6577 216.356 84.3551 216.495 83.9801C216.634 83.6051 216.704 83.1989 216.704 82.7614C216.704 82.3239 216.634 81.9162 216.495 81.5384C216.356 81.1605 216.141 80.8551 215.852 80.6222C215.562 80.3892 215.192 80.2727 214.744 80.2727C214.295 80.2727 213.925 80.3892 213.636 80.6222C213.346 80.8551 213.131 81.1605 212.992 81.5384C212.853 81.9162 212.783 82.3239 212.783 82.7614C212.783 83.1989 212.853 83.6051 212.992 83.9801C213.131 84.3551 213.346 84.6577 213.636 84.8878C213.925 85.1179 214.295 85.233 214.744 85.233ZM220.25 82.0625V86H219.245V79.4545H220.216V80.4773H220.301C220.455 80.1449 220.688 79.8778 221 79.6761C221.313 79.4716 221.716 79.3693 222.211 79.3693C222.654 79.3693 223.042 79.4602 223.374 79.642C223.706 79.821 223.965 80.0938 224.15 80.4602C224.334 80.8239 224.426 81.2841 224.426 81.8409V86H223.421V81.9091C223.421 81.3949 223.287 80.9943 223.02 80.7074C222.753 80.4176 222.387 80.2727 221.921 80.2727C221.6 80.2727 221.313 80.3423 221.06 80.4815C220.81 80.6207 220.613 80.8239 220.468 81.0909C220.323 81.358 220.25 81.6818 220.25 82.0625ZM232.486 79.4545V80.3068H229.094V79.4545H232.486ZM230.082 77.8864H231.088V84.125C231.088 84.4091 231.129 84.6222 231.212 84.7642C231.297 84.9034 231.405 84.9972 231.536 85.0455C231.669 85.0909 231.81 85.1136 231.957 85.1136C232.068 85.1136 232.159 85.108 232.23 85.0966C232.301 85.0824 232.358 85.071 232.401 85.0625L232.605 85.9659C232.537 85.9915 232.442 86.017 232.32 86.0426C232.197 86.071 232.043 86.0852 231.855 86.0852C231.571 86.0852 231.293 86.0241 231.02 85.902C230.75 85.7798 230.526 85.5938 230.347 85.3438C230.17 85.0938 230.082 84.7784 230.082 84.3977V77.8864ZM236.587 86.1364C235.996 86.1364 235.478 85.9957 235.032 85.7145C234.589 85.4332 234.242 85.0398 233.992 84.5341C233.745 84.0284 233.621 83.4375 233.621 82.7614C233.621 82.0795 233.745 81.4844 233.992 80.9759C234.242 80.4673 234.589 80.0724 235.032 79.7912C235.478 79.5099 235.996 79.3693 236.587 79.3693C237.178 79.3693 237.695 79.5099 238.138 79.7912C238.585 80.0724 238.931 80.4673 239.178 80.9759C239.428 81.4844 239.553 82.0795 239.553 82.7614C239.553 83.4375 239.428 84.0284 239.178 84.5341C238.931 85.0398 238.585 85.4332 238.138 85.7145C237.695 85.9957 237.178 86.1364 236.587 86.1364ZM236.587 85.233C237.036 85.233 237.406 85.1179 237.695 84.8878C237.985 84.6577 238.2 84.3551 238.339 83.9801C238.478 83.6051 238.548 83.1989 238.548 82.7614C238.548 82.3239 238.478 81.9162 238.339 81.5384C238.2 81.1605 237.985 80.8551 237.695 80.6222C237.406 80.3892 237.036 80.2727 236.587 80.2727C236.138 80.2727 235.769 80.3892 235.479 80.6222C235.19 80.8551 234.975 81.1605 234.836 81.5384C234.697 81.9162 234.627 82.3239 234.627 82.7614C234.627 83.1989 234.697 83.6051 234.836 83.9801C234.975 84.3551 235.19 84.6577 235.479 84.8878C235.769 85.1179 236.138 85.233 236.587 85.233ZM247.123 86.1364C246.509 86.1364 245.98 85.9915 245.537 85.7017C245.094 85.4119 244.753 85.0128 244.515 84.5043C244.276 83.9957 244.157 83.4148 244.157 82.7614C244.157 82.0966 244.279 81.5099 244.523 81.0014C244.77 80.4901 245.114 80.0909 245.554 79.804C245.998 79.5142 246.515 79.3693 247.105 79.3693C247.566 79.3693 247.98 79.4545 248.35 79.625C248.719 79.7955 249.022 80.0341 249.257 80.3409C249.493 80.6477 249.64 81.0057 249.696 81.4148H248.691C248.614 81.1165 248.444 80.8523 248.179 80.6222C247.918 80.3892 247.566 80.2727 247.123 80.2727C246.73 80.2727 246.387 80.375 246.091 80.5795C245.799 80.7812 245.57 81.0668 245.405 81.4361C245.243 81.8026 245.162 82.233 245.162 82.7273C245.162 83.233 245.242 83.6733 245.401 84.0483C245.563 84.4233 245.79 84.7145 246.083 84.9219C246.378 85.1293 246.725 85.233 247.123 85.233C247.384 85.233 247.621 85.1875 247.834 85.0966C248.047 85.0057 248.228 84.875 248.375 84.7045C248.523 84.5341 248.628 84.3295 248.691 84.0909H249.696C249.64 84.4773 249.499 84.8253 249.275 85.1349C249.053 85.4418 248.759 85.6861 248.392 85.8679C248.029 86.0469 247.605 86.1364 247.123 86.1364ZM251.167 86V79.4545H252.138V80.4432H252.206C252.326 80.1193 252.542 79.8565 252.854 79.6548C253.167 79.4531 253.519 79.3523 253.911 79.3523C253.985 79.3523 254.077 79.3537 254.188 79.3565C254.299 79.3594 254.382 79.3636 254.439 79.3693V80.392C254.405 80.3835 254.327 80.3707 254.205 80.3537C254.086 80.3338 253.959 80.3239 253.826 80.3239C253.507 80.3239 253.223 80.3906 252.973 80.5241C252.726 80.6548 252.53 80.8366 252.385 81.0696C252.243 81.2997 252.172 81.5625 252.172 81.858V86H251.167ZM258.176 86.1364C257.546 86.1364 257.002 85.9972 256.544 85.7188C256.09 85.4375 255.739 85.0455 255.492 84.5426C255.248 84.0369 255.125 83.4489 255.125 82.7784C255.125 82.108 255.248 81.517 255.492 81.0057C255.739 80.4915 256.083 80.0909 256.523 79.804C256.966 79.5142 257.483 79.3693 258.074 79.3693C258.415 79.3693 258.752 79.4261 259.084 79.5398C259.417 79.6534 259.719 79.8381 259.992 80.0938C260.265 80.3466 260.482 80.6818 260.644 81.0994C260.806 81.517 260.887 82.0312 260.887 82.642V83.0682H255.841V82.1989H259.864C259.864 81.8295 259.79 81.5 259.642 81.2102C259.498 80.9205 259.29 80.6918 259.02 80.5241C258.753 80.3565 258.438 80.2727 258.074 80.2727C257.674 80.2727 257.327 80.3722 257.034 80.571C256.745 80.767 256.522 81.0227 256.365 81.3381C256.209 81.6534 256.131 81.9915 256.131 82.3523V82.9318C256.131 83.4261 256.216 83.8452 256.387 84.1889C256.56 84.5298 256.8 84.7898 257.107 84.9688C257.414 85.1449 257.77 85.233 258.176 85.233C258.441 85.233 258.679 85.196 258.892 85.1222C259.108 85.0455 259.294 84.9318 259.451 84.7812C259.607 84.6278 259.728 84.4375 259.813 84.2102L260.784 84.483C260.682 84.8125 260.51 85.1023 260.269 85.3523C260.027 85.5994 259.729 85.7926 259.374 85.9318C259.019 86.0682 258.62 86.1364 258.176 86.1364ZM264.343 86.1534C263.928 86.1534 263.551 86.0753 263.213 85.919C262.875 85.7599 262.607 85.5312 262.408 85.233C262.209 84.9318 262.11 84.5682 262.11 84.142C262.11 83.767 262.184 83.4631 262.331 83.2301C262.479 82.9943 262.676 82.8097 262.924 82.6761C263.171 82.5426 263.444 82.4432 263.742 82.3778C264.043 82.3097 264.346 82.2557 264.65 82.2159C265.047 82.1648 265.37 82.1264 265.617 82.1009C265.867 82.0724 266.049 82.0256 266.162 81.9602C266.279 81.8949 266.337 81.7812 266.337 81.6193V81.5852C266.337 81.1648 266.222 80.8381 265.992 80.6051C265.765 80.3722 265.419 80.2557 264.956 80.2557C264.476 80.2557 264.1 80.3608 263.827 80.571C263.554 80.7812 263.363 81.0057 263.252 81.2443L262.297 80.9034C262.468 80.5057 262.695 80.196 262.979 79.9744C263.266 79.75 263.578 79.5937 263.917 79.5057C264.257 79.4148 264.593 79.3693 264.922 79.3693C265.132 79.3693 265.374 79.3949 265.647 79.446C265.922 79.4943 266.188 79.5952 266.444 79.7486C266.702 79.902 266.917 80.1335 267.087 80.4432C267.257 80.7528 267.343 81.1676 267.343 81.6875V86H266.337V85.1136H266.286C266.218 85.2557 266.104 85.4077 265.945 85.5696C265.786 85.7315 265.574 85.8693 265.31 85.983C265.046 86.0966 264.723 86.1534 264.343 86.1534ZM264.496 85.25C264.894 85.25 265.229 85.1719 265.502 85.0156C265.777 84.8594 265.985 84.6577 266.124 84.4105C266.266 84.1634 266.337 83.9034 266.337 83.6307V82.7102C266.294 82.7614 266.201 82.8082 266.056 82.8509C265.914 82.8906 265.749 82.9261 265.561 82.9574C265.377 82.9858 265.196 83.0114 265.02 83.0341C264.847 83.054 264.706 83.071 264.598 83.0852C264.337 83.1193 264.093 83.1747 263.865 83.2514C263.641 83.3253 263.459 83.4375 263.32 83.5881C263.184 83.7358 263.115 83.9375 263.115 84.1932C263.115 84.5426 263.245 84.8068 263.503 84.9858C263.765 85.1619 264.096 85.25 264.496 85.25ZM272.025 79.4545V80.3068H268.633V79.4545H272.025ZM269.621 77.8864H270.627V84.125C270.627 84.4091 270.668 84.6222 270.751 84.7642C270.836 84.9034 270.944 84.9972 271.075 85.0455C271.208 85.0909 271.349 85.1136 271.496 85.1136C271.607 85.1136 271.698 85.108 271.769 85.0966C271.84 85.0824 271.897 85.071 271.94 85.0625L272.144 85.9659C272.076 85.9915 271.981 86.017 271.859 86.0426C271.737 86.071 271.582 86.0852 271.394 86.0852C271.11 86.0852 270.832 86.0241 270.559 85.902C270.289 85.7798 270.065 85.5938 269.886 85.3438C269.71 85.0938 269.621 84.7784 269.621 84.3977V77.8864ZM276.212 86.1364C275.581 86.1364 275.037 85.9972 274.58 85.7188C274.125 85.4375 273.774 85.0455 273.527 84.5426C273.283 84.0369 273.161 83.4489 273.161 82.7784C273.161 82.108 273.283 81.517 273.527 81.0057C273.774 80.4915 274.118 80.0909 274.558 79.804C275.001 79.5142 275.518 79.3693 276.109 79.3693C276.45 79.3693 276.787 79.4261 277.119 79.5398C277.452 79.6534 277.754 79.8381 278.027 80.0938C278.3 80.3466 278.517 80.6818 278.679 81.0994C278.841 81.517 278.922 82.0312 278.922 82.642V83.0682H273.876V82.1989H277.899C277.899 81.8295 277.825 81.5 277.678 81.2102C277.533 80.9205 277.325 80.6918 277.055 80.5241C276.788 80.3565 276.473 80.2727 276.109 80.2727C275.709 80.2727 275.362 80.3722 275.07 80.571C274.78 80.767 274.557 81.0227 274.401 81.3381C274.244 81.6534 274.166 81.9915 274.166 82.3523V82.9318C274.166 83.4261 274.251 83.8452 274.422 84.1889C274.595 84.5298 274.835 84.7898 275.142 84.9688C275.449 85.1449 275.805 85.233 276.212 85.233C276.476 85.233 276.714 85.196 276.928 85.1222C277.143 85.0455 277.33 84.9318 277.486 84.7812C277.642 84.6278 277.763 84.4375 277.848 84.2102L278.82 84.483C278.717 84.8125 278.545 85.1023 278.304 85.3523C278.063 85.5994 277.764 85.7926 277.409 85.9318C277.054 86.0682 276.655 86.1364 276.212 86.1364ZM127.368 104.153C126.953 104.153 126.577 104.075 126.239 103.919C125.901 103.76 125.632 103.531 125.433 103.233C125.235 102.932 125.135 102.568 125.135 102.142C125.135 101.767 125.209 101.463 125.357 101.23C125.504 100.994 125.702 100.81 125.949 100.676C126.196 100.543 126.469 100.443 126.767 100.378C127.068 100.31 127.371 100.256 127.675 100.216C128.073 100.165 128.395 100.126 128.642 100.101C128.892 100.072 129.074 100.026 129.188 99.9602C129.304 99.8949 129.362 99.7812 129.362 99.6193V99.5852C129.362 99.1648 129.247 98.8381 129.017 98.6051C128.79 98.3722 128.445 98.2557 127.982 98.2557C127.502 98.2557 127.125 98.3608 126.852 98.571C126.58 98.7812 126.388 99.0057 126.277 99.2443L125.323 98.9034C125.493 98.5057 125.72 98.196 126.004 97.9744C126.291 97.75 126.604 97.5937 126.942 97.5057C127.283 97.4148 127.618 97.3693 127.948 97.3693C128.158 97.3693 128.399 97.3949 128.672 97.446C128.948 97.4943 129.213 97.5952 129.469 97.7486C129.727 97.902 129.942 98.1335 130.112 98.4432C130.283 98.7528 130.368 99.1676 130.368 99.6875V104H129.362V103.114H129.311C129.243 103.256 129.129 103.408 128.97 103.57C128.811 103.732 128.6 103.869 128.335 103.983C128.071 104.097 127.749 104.153 127.368 104.153ZM127.521 103.25C127.919 103.25 128.254 103.172 128.527 103.016C128.803 102.859 129.01 102.658 129.149 102.411C129.291 102.163 129.362 101.903 129.362 101.631V100.71C129.32 100.761 129.226 100.808 129.081 100.851C128.939 100.891 128.774 100.926 128.587 100.957C128.402 100.986 128.222 101.011 128.046 101.034C127.872 101.054 127.732 101.071 127.624 101.085C127.362 101.119 127.118 101.175 126.891 101.251C126.666 101.325 126.485 101.437 126.345 101.588C126.209 101.736 126.141 101.937 126.141 102.193C126.141 102.543 126.27 102.807 126.529 102.986C126.79 103.162 127.121 103.25 127.521 103.25ZM140.215 98.9205L139.312 99.1761C139.255 99.0256 139.171 98.8793 139.06 98.7372C138.952 98.5923 138.805 98.473 138.617 98.3793C138.43 98.2855 138.189 98.2386 137.897 98.2386C137.496 98.2386 137.162 98.331 136.895 98.5156C136.631 98.6974 136.499 98.929 136.499 99.2102C136.499 99.4602 136.59 99.6577 136.772 99.8026C136.954 99.9474 137.238 100.068 137.624 100.165L138.596 100.403C139.181 100.545 139.617 100.763 139.904 101.055C140.191 101.345 140.334 101.719 140.334 102.176C140.334 102.551 140.226 102.886 140.01 103.182C139.797 103.477 139.499 103.71 139.116 103.881C138.732 104.051 138.286 104.136 137.778 104.136C137.11 104.136 136.557 103.991 136.12 103.702C135.682 103.412 135.405 102.989 135.289 102.432L136.243 102.193C136.334 102.545 136.506 102.81 136.759 102.986C137.015 103.162 137.349 103.25 137.76 103.25C138.229 103.25 138.601 103.151 138.877 102.952C139.155 102.75 139.295 102.509 139.295 102.227C139.295 102 139.215 101.81 139.056 101.656C138.897 101.5 138.653 101.384 138.323 101.307L137.232 101.051C136.633 100.909 136.192 100.689 135.911 100.391C135.633 100.089 135.493 99.7131 135.493 99.2614C135.493 98.892 135.597 98.5653 135.805 98.2812C136.015 97.9972 136.3 97.7741 136.661 97.6122C137.025 97.4503 137.437 97.3693 137.897 97.3693C138.545 97.3693 139.053 97.5114 139.422 97.7955C139.795 98.0795 140.059 98.4545 140.215 98.9205ZM141.848 104V97.4545H142.854V104H141.848ZM142.36 96.3636C142.164 96.3636 141.994 96.2969 141.852 96.1634C141.713 96.0298 141.644 95.8693 141.644 95.6818C141.644 95.4943 141.713 95.3338 141.852 95.2003C141.994 95.0668 142.164 95 142.36 95C142.556 95 142.723 95.0668 142.862 95.2003C143.004 95.3338 143.075 95.4943 143.075 95.6818C143.075 95.8693 143.004 96.0298 142.862 96.1634C142.723 96.2969 142.556 96.3636 142.36 96.3636ZM144.696 104V97.4545H145.667V98.4773H145.753C145.889 98.1278 146.109 97.8565 146.413 97.6634C146.717 97.4673 147.082 97.3693 147.508 97.3693C147.94 97.3693 148.3 97.4673 148.586 97.6634C148.876 97.8565 149.102 98.1278 149.264 98.4773H149.332C149.5 98.1392 149.751 97.8707 150.086 97.6719C150.422 97.4702 150.824 97.3693 151.292 97.3693C151.878 97.3693 152.356 97.5526 152.729 97.919C153.101 98.2827 153.287 98.8494 153.287 99.6193V104H152.281V99.6193C152.281 99.1364 152.149 98.7912 151.885 98.5838C151.621 98.3764 151.309 98.2727 150.952 98.2727C150.491 98.2727 150.135 98.4119 149.882 98.6903C149.629 98.9659 149.503 99.3153 149.503 99.7386V104H148.48V99.517C148.48 99.1449 148.359 98.8452 148.118 98.6179C147.876 98.3878 147.565 98.2727 147.184 98.2727C146.923 98.2727 146.679 98.3423 146.452 98.4815C146.227 98.6207 146.045 98.8139 145.906 99.0611C145.77 99.3054 145.702 99.5881 145.702 99.9091V104H144.696ZM159.251 101.324V97.4545H160.256V104H159.251V102.892H159.182C159.029 103.224 158.79 103.507 158.466 103.74C158.143 103.97 157.733 104.085 157.239 104.085C156.83 104.085 156.466 103.996 156.148 103.817C155.83 103.635 155.58 103.362 155.398 102.999C155.216 102.632 155.126 102.17 155.126 101.614V97.4545H156.131V101.545C156.131 102.023 156.265 102.403 156.532 102.688C156.802 102.972 157.145 103.114 157.563 103.114C157.813 103.114 158.067 103.05 158.326 102.922C158.587 102.794 158.806 102.598 158.982 102.334C159.161 102.07 159.251 101.733 159.251 101.324ZM163.104 95.2727V104H162.098V95.2727H163.104ZM166.872 104.153C166.457 104.153 166.081 104.075 165.743 103.919C165.405 103.76 165.136 103.531 164.937 103.233C164.738 102.932 164.639 102.568 164.639 102.142C164.639 101.767 164.713 101.463 164.861 101.23C165.008 100.994 165.206 100.81 165.453 100.676C165.7 100.543 165.973 100.443 166.271 100.378C166.572 100.31 166.875 100.256 167.179 100.216C167.577 100.165 167.899 100.126 168.146 100.101C168.396 100.072 168.578 100.026 168.692 99.9602C168.808 99.8949 168.866 99.7812 168.866 99.6193V99.5852C168.866 99.1648 168.751 98.8381 168.521 98.6051C168.294 98.3722 167.949 98.2557 167.486 98.2557C167.006 98.2557 166.629 98.3608 166.356 98.571C166.084 98.7812 165.892 99.0057 165.781 99.2443L164.827 98.9034C164.997 98.5057 165.224 98.196 165.508 97.9744C165.795 97.75 166.108 97.5937 166.446 97.5057C166.787 97.4148 167.122 97.3693 167.452 97.3693C167.662 97.3693 167.903 97.3949 168.176 97.446C168.452 97.4943 168.717 97.5952 168.973 97.7486C169.231 97.902 169.446 98.1335 169.616 98.4432C169.787 98.7528 169.872 99.1676 169.872 99.6875V104H168.866V103.114H168.815C168.747 103.256 168.633 103.408 168.474 103.57C168.315 103.732 168.104 103.869 167.839 103.983C167.575 104.097 167.253 104.153 166.872 104.153ZM167.025 103.25C167.423 103.25 167.758 103.172 168.031 103.016C168.307 102.859 168.514 102.658 168.653 102.411C168.795 102.163 168.866 101.903 168.866 101.631V100.71C168.824 100.761 168.73 100.808 168.585 100.851C168.443 100.891 168.278 100.926 168.091 100.957C167.906 100.986 167.726 101.011 167.55 101.034C167.376 101.054 167.236 101.071 167.128 101.085C166.866 101.119 166.622 101.175 166.395 101.251C166.17 101.325 165.988 101.437 165.849 101.588C165.713 101.736 165.645 101.937 165.645 102.193C165.645 102.543 165.774 102.807 166.032 102.986C166.294 103.162 166.625 103.25 167.025 103.25ZM174.554 97.4545V98.3068H171.162V97.4545H174.554ZM172.151 95.8864H173.156V102.125C173.156 102.409 173.198 102.622 173.28 102.764C173.365 102.903 173.473 102.997 173.604 103.045C173.737 103.091 173.878 103.114 174.026 103.114C174.137 103.114 174.227 103.108 174.298 103.097C174.369 103.082 174.426 103.071 174.469 103.062L174.673 103.966C174.605 103.991 174.51 104.017 174.388 104.043C174.266 104.071 174.111 104.085 173.923 104.085C173.639 104.085 173.361 104.024 173.088 103.902C172.818 103.78 172.594 103.594 172.415 103.344C172.239 103.094 172.151 102.778 172.151 102.398V95.8864ZM176.067 104V97.4545H177.073V104H176.067ZM176.578 96.3636C176.382 96.3636 176.213 96.2969 176.071 96.1634C175.932 96.0298 175.862 95.8693 175.862 95.6818C175.862 95.4943 175.932 95.3338 176.071 95.2003C176.213 95.0668 176.382 95 176.578 95C176.774 95 176.942 95.0668 177.081 95.2003C177.223 95.3338 177.294 95.4943 177.294 95.6818C177.294 95.8693 177.223 96.0298 177.081 96.1634C176.942 96.2969 176.774 96.3636 176.578 96.3636ZM181.574 104.136C180.983 104.136 180.464 103.996 180.018 103.714C179.575 103.433 179.229 103.04 178.979 102.534C178.731 102.028 178.608 101.437 178.608 100.761C178.608 100.08 178.731 99.4844 178.979 98.9759C179.229 98.4673 179.575 98.0724 180.018 97.7912C180.464 97.5099 180.983 97.3693 181.574 97.3693C182.165 97.3693 182.682 97.5099 183.125 97.7912C183.571 98.0724 183.917 98.4673 184.165 98.9759C184.415 99.4844 184.54 100.08 184.54 100.761C184.54 101.437 184.415 102.028 184.165 102.534C183.917 103.04 183.571 103.433 183.125 103.714C182.682 103.996 182.165 104.136 181.574 104.136ZM181.574 103.233C182.023 103.233 182.392 103.118 182.682 102.888C182.971 102.658 183.186 102.355 183.325 101.98C183.464 101.605 183.534 101.199 183.534 100.761C183.534 100.324 183.464 99.9162 183.325 99.5384C183.186 99.1605 182.971 98.8551 182.682 98.6222C182.392 98.3892 182.023 98.2727 181.574 98.2727C181.125 98.2727 180.756 98.3892 180.466 98.6222C180.176 98.8551 179.961 99.1605 179.822 99.5384C179.683 99.9162 179.613 100.324 179.613 100.761C179.613 101.199 179.683 101.605 179.822 101.98C179.961 102.355 180.176 102.658 180.466 102.888C180.756 103.118 181.125 103.233 181.574 103.233ZM187.08 100.062V104H186.075V97.4545H187.046V98.4773H187.132C187.285 98.1449 187.518 97.8778 187.83 97.6761C188.143 97.4716 188.546 97.3693 189.041 97.3693C189.484 97.3693 189.872 97.4602 190.204 97.642C190.536 97.821 190.795 98.0938 190.98 98.4602C191.164 98.8239 191.257 99.2841 191.257 99.8409V104H190.251V99.9091C190.251 99.3949 190.117 98.9943 189.85 98.7074C189.583 98.4176 189.217 98.2727 188.751 98.2727C188.43 98.2727 188.143 98.3423 187.89 98.4815C187.64 98.6207 187.443 98.8239 187.298 99.0909C187.153 99.358 187.08 99.6818 187.08 100.062ZM193.827 104.068C193.617 104.068 193.437 103.993 193.286 103.842C193.135 103.692 193.06 103.511 193.06 103.301C193.06 103.091 193.135 102.911 193.286 102.76C193.437 102.609 193.617 102.534 193.827 102.534C194.037 102.534 194.218 102.609 194.368 102.76C194.519 102.911 194.594 103.091 194.594 103.301C194.594 103.44 194.559 103.568 194.488 103.685C194.42 103.801 194.327 103.895 194.211 103.966C194.097 104.034 193.969 104.068 193.827 104.068Z" fill="var(--colors-neutral-neutral-700)"/>
</svg>
