<svg width="304" height="32" viewBox="0 0 304 32" fill="none" xmlns="http://www.w3.org/2000/svg">
<path d="M23.017 15.8636C23.017 16.6307 22.8786 17.2936 22.6016 17.8523C22.3246 18.411 21.9446 18.8419 21.4616 19.1449C20.9787 19.4479 20.4271 19.5994 19.8068 19.5994C19.1866 19.5994 18.6349 19.4479 18.152 19.1449C17.669 18.8419 17.2891 18.411 17.0121 17.8523C16.7351 17.2936 16.5966 16.6307 16.5966 15.8636C16.5966 15.0966 16.7351 14.4337 17.0121 13.875C17.2891 13.3163 17.669 12.8854 18.152 12.5824C18.6349 12.2794 19.1866 12.1278 19.8068 12.1278C20.4271 12.1278 20.9787 12.2794 21.4616 12.5824C21.9446 12.8854 22.3246 13.3163 22.6016 13.875C22.8786 14.4337 23.017 15.0966 23.017 15.8636ZM22.1648 15.8636C22.1648 15.2339 22.0594 14.7024 21.8487 14.2692C21.6404 13.8359 21.3575 13.508 21 13.2855C20.6449 13.063 20.2472 12.9517 19.8068 12.9517C19.3665 12.9517 18.9676 13.063 18.6101 13.2855C18.255 13.508 17.9721 13.8359 17.7614 14.2692C17.553 14.7024 17.4489 15.2339 17.4489 15.8636C17.4489 16.4934 17.553 17.0249 17.7614 17.4581C17.9721 17.8913 18.255 18.2192 18.6101 18.4418C18.9676 18.6643 19.3665 18.7756 19.8068 18.7756C20.2472 18.7756 20.6449 18.6643 21 18.4418C21.3575 18.2192 21.6404 17.8913 21.8487 17.4581C22.0594 17.0249 22.1648 16.4934 22.1648 15.8636ZM24.3842 21.5455V14.0455H25.1939V14.9119H25.2933C25.3549 14.8172 25.4401 14.6965 25.549 14.5497C25.6603 14.4006 25.8189 14.268 26.0249 14.152C26.2332 14.0336 26.5149 13.9744 26.87 13.9744C27.3293 13.9744 27.7341 14.0893 28.0845 14.3189C28.4349 14.5485 28.7083 14.8741 28.9048 15.2955C29.1013 15.7169 29.1996 16.214 29.1996 16.7869C29.1996 17.3646 29.1013 17.8653 28.9048 18.2891C28.7083 18.7105 28.4361 19.0372 28.0881 19.2692C27.7401 19.4988 27.3388 19.6136 26.8842 19.6136C26.5339 19.6136 26.2533 19.5556 26.0426 19.4396C25.8319 19.3213 25.6697 19.1875 25.5561 19.0384C25.4425 18.8868 25.3549 18.7614 25.2933 18.6619H25.2223V21.5455H24.3842ZM25.2081 16.7727C25.2081 17.1847 25.2685 17.5481 25.3892 17.8629C25.5099 18.1754 25.6863 18.4205 25.9183 18.598C26.1503 18.7732 26.4344 18.8608 26.7706 18.8608C27.121 18.8608 27.4134 18.7685 27.6477 18.5838C27.8845 18.3968 28.062 18.1458 28.1804 17.831C28.3011 17.5137 28.3615 17.161 28.3615 16.7727C28.3615 16.3892 28.3023 16.0436 28.1839 15.7358C28.0679 15.4257 27.8916 15.1806 27.6548 15.0007C27.4205 14.8184 27.1257 14.7273 26.7706 14.7273C26.4297 14.7273 26.1432 14.8137 25.9112 14.9865C25.6792 15.157 25.504 15.3961 25.3857 15.7038C25.2673 16.0092 25.2081 16.3655 25.2081 16.7727ZM32.7649 19.6136C32.2393 19.6136 31.786 19.4976 31.4048 19.2656C31.026 19.0312 30.7337 18.7045 30.5277 18.2855C30.3241 17.8641 30.2223 17.3741 30.2223 16.8153C30.2223 16.2566 30.3241 15.7642 30.5277 15.3381C30.7337 14.9096 31.0201 14.5758 31.3871 14.3366C31.7564 14.0952 32.1873 13.9744 32.6797 13.9744C32.9638 13.9744 33.2443 14.0218 33.5213 14.1165C33.7983 14.2112 34.0504 14.3651 34.2777 14.5781C34.505 14.7888 34.6861 15.0682 34.821 15.4162C34.956 15.7642 35.0234 16.1927 35.0234 16.7017V17.0568H30.8189V16.3324H34.1712C34.1712 16.0246 34.1096 15.75 33.9865 15.5085C33.8658 15.267 33.6929 15.0765 33.468 14.9368C33.2455 14.7971 32.9827 14.7273 32.6797 14.7273C32.3459 14.7273 32.0571 14.8101 31.8132 14.9759C31.5717 15.1392 31.3859 15.3523 31.2557 15.6151C31.1255 15.8778 31.0604 16.1596 31.0604 16.4602V16.9432C31.0604 17.3551 31.1314 17.7043 31.2734 17.9908C31.4179 18.2749 31.6179 18.4915 31.8736 18.6406C32.1293 18.7874 32.4264 18.8608 32.7649 18.8608C32.9851 18.8608 33.1839 18.83 33.3615 18.7685C33.5414 18.7045 33.6965 18.6098 33.8267 18.4844C33.9569 18.3565 34.0575 18.1979 34.1286 18.0085L34.9382 18.2358C34.853 18.5104 34.7098 18.7519 34.5085 18.9602C34.3073 19.1662 34.0587 19.3272 33.7628 19.4432C33.4669 19.5568 33.1342 19.6136 32.7649 19.6136ZM36.2983 19.5V14.0455H37.108V14.8693H37.1648C37.2642 14.5994 37.4441 14.3804 37.7045 14.2124C37.965 14.0443 38.2585 13.9602 38.5852 13.9602C38.6468 13.9602 38.7237 13.9614 38.8161 13.9638C38.9084 13.9661 38.9782 13.9697 39.0256 13.9744V14.8267C38.9972 14.8196 38.9321 14.8089 38.8303 14.7947C38.7308 14.7782 38.6255 14.7699 38.5142 14.7699C38.2491 14.7699 38.0123 14.8255 37.804 14.9368C37.598 15.0457 37.4347 15.1972 37.3139 15.3913C37.1955 15.5831 37.1364 15.8021 37.1364 16.0483V19.5H36.2983ZM41.6241 19.6278C41.2785 19.6278 40.9648 19.5627 40.6831 19.4325C40.4013 19.3 40.1776 19.1094 40.0119 18.8608C39.8462 18.6098 39.7633 18.3068 39.7633 17.9517C39.7633 17.6392 39.8249 17.3859 39.948 17.1918C40.0711 16.9953 40.2356 16.8414 40.4416 16.7301C40.6475 16.6188 40.8748 16.536 41.1234 16.4815C41.3743 16.4247 41.6265 16.3797 41.8798 16.3466C42.2112 16.304 42.4799 16.272 42.6859 16.2507C42.8942 16.227 43.0458 16.188 43.1404 16.1335C43.2375 16.0791 43.286 15.9844 43.286 15.8494V15.821C43.286 15.4706 43.1902 15.1984 42.9984 15.0043C42.809 14.8101 42.5214 14.7131 42.1355 14.7131C41.7354 14.7131 41.4217 14.8007 41.1944 14.9759C40.9672 15.151 40.8074 15.3381 40.715 15.5369L39.9196 15.2528C40.0616 14.9214 40.251 14.6634 40.4877 14.4787C40.7269 14.2917 40.9873 14.1615 41.269 14.0881C41.5531 14.0123 41.8324 13.9744 42.1071 13.9744C42.2823 13.9744 42.4835 13.9957 42.7108 14.0384C42.9404 14.0786 43.1618 14.1626 43.3748 14.2905C43.5903 14.4183 43.769 14.6113 43.911 14.8693C44.0531 15.1274 44.1241 15.473 44.1241 15.9062V19.5H43.286V18.7614H43.2434C43.1866 18.8797 43.0919 19.0064 42.9593 19.1413C42.8268 19.2763 42.6504 19.3911 42.4302 19.4858C42.21 19.5805 41.9413 19.6278 41.6241 19.6278ZM41.752 18.875C42.0834 18.875 42.3627 18.8099 42.59 18.6797C42.8197 18.5495 42.9925 18.3814 43.1085 18.1754C43.2269 17.9695 43.286 17.7528 43.286 17.5256V16.7585C43.2505 16.8011 43.1724 16.8402 43.0517 16.8757C42.9333 16.9089 42.796 16.9384 42.6397 16.9645C42.4859 16.9882 42.3355 17.0095 42.1887 17.0284C42.0443 17.045 41.9271 17.0592 41.8372 17.071C41.6194 17.0994 41.4158 17.1456 41.2264 17.2095C41.0394 17.2711 40.8878 17.3646 40.7718 17.4901C40.6582 17.6132 40.6014 17.7812 40.6014 17.9943C40.6014 18.2855 40.7091 18.5057 40.9245 18.6548C41.1423 18.8016 41.4181 18.875 41.752 18.875ZM48.0259 14.0455V14.7557H45.1992V14.0455H48.0259ZM46.0231 12.7386H46.8612V17.9375C46.8612 18.1742 46.8955 18.3518 46.9641 18.4702C47.0352 18.5862 47.1251 18.6643 47.234 18.7045C47.3453 18.7424 47.4625 18.7614 47.5856 18.7614C47.6779 18.7614 47.7537 18.7566 47.8129 18.7472C47.872 18.7353 47.9194 18.7259 47.9549 18.7188L48.1254 19.4716C48.0685 19.4929 47.9892 19.5142 47.8874 19.5355C47.7856 19.5592 47.6566 19.571 47.5004 19.571C47.2636 19.571 47.0316 19.5201 46.8043 19.4183C46.5794 19.3165 46.3924 19.1615 46.2433 18.9531C46.0965 18.7448 46.0231 18.482 46.0231 18.1648V12.7386ZM49.2866 19.5V14.0455H50.1246V19.5H49.2866ZM49.7127 13.1364C49.5494 13.1364 49.4085 13.0807 49.2901 12.9695C49.1741 12.8582 49.1161 12.7244 49.1161 12.5682C49.1161 12.4119 49.1741 12.2782 49.2901 12.1669C49.4085 12.0556 49.5494 12 49.7127 12C49.8761 12 50.0157 12.0556 50.1317 12.1669C50.2501 12.2782 50.3093 12.4119 50.3093 12.5682C50.3093 12.7244 50.2501 12.8582 50.1317 12.9695C50.0157 13.0807 49.8761 13.1364 49.7127 13.1364ZM53.8755 19.6136C53.3831 19.6136 52.9511 19.4964 52.5794 19.2621C52.21 19.0277 51.9212 18.6998 51.7129 18.2784C51.5069 17.857 51.4039 17.3646 51.4039 16.8011C51.4039 16.233 51.5069 15.737 51.7129 15.3132C51.9212 14.8894 52.21 14.5604 52.5794 14.326C52.9511 14.0916 53.3831 13.9744 53.8755 13.9744C54.368 13.9744 54.7988 14.0916 55.1681 14.326C55.5398 14.5604 55.8287 14.8894 56.0346 15.3132C56.243 15.737 56.3471 16.233 56.3471 16.8011C56.3471 17.3646 56.243 17.857 56.0346 18.2784C55.8287 18.6998 55.5398 19.0277 55.1681 19.2621C54.7988 19.4964 54.368 19.6136 53.8755 19.6136ZM53.8755 18.8608C54.2496 18.8608 54.5574 18.7649 54.7988 18.5732C55.0403 18.3814 55.219 18.1293 55.335 17.8168C55.4511 17.5043 55.5091 17.1657 55.5091 16.8011C55.5091 16.4366 55.4511 16.0968 55.335 15.782C55.219 15.4671 55.0403 15.2126 54.7988 15.0185C54.5574 14.8243 54.2496 14.7273 53.8755 14.7273C53.5015 14.7273 53.1937 14.8243 52.9522 15.0185C52.7108 15.2126 52.532 15.4671 52.416 15.782C52.3 16.0968 52.242 16.4366 52.242 16.8011C52.242 17.1657 52.3 17.5043 52.416 17.8168C52.532 18.1293 52.7108 18.3814 52.9522 18.5732C53.1937 18.7649 53.5015 18.8608 53.8755 18.8608ZM58.4645 16.2188V19.5H57.6264V14.0455H58.4361V14.8977H58.5071C58.6349 14.6207 58.8291 14.3982 59.0895 14.2301C59.3499 14.0597 59.6861 13.9744 60.098 13.9744C60.4673 13.9744 60.7905 14.0502 61.0675 14.2017C61.3445 14.3509 61.5599 14.5781 61.7138 14.8835C61.8677 15.1866 61.9446 15.5701 61.9446 16.0341V19.5H61.1065V16.0909C61.1065 15.6624 60.9953 15.3286 60.7727 15.0895C60.5502 14.848 60.2448 14.7273 59.8565 14.7273C59.589 14.7273 59.3499 14.7853 59.1392 14.9013C58.9309 15.0173 58.7663 15.1866 58.6456 15.4091C58.5249 15.6316 58.4645 15.9015 58.4645 16.2188ZM68.6607 14.0455V14.7557H65.834V14.0455H68.6607ZM66.6578 12.7386H67.4959V17.9375C67.4959 18.1742 67.5302 18.3518 67.5989 18.4702C67.6699 18.5862 67.7599 18.6643 67.8688 18.7045C67.9801 18.7424 68.0972 18.7614 68.2203 18.7614C68.3127 18.7614 68.3884 18.7566 68.4476 18.7472C68.5068 18.7353 68.5542 18.7259 68.5897 18.7188L68.7601 19.4716C68.7033 19.4929 68.624 19.5142 68.5222 19.5355C68.4204 19.5592 68.2914 19.571 68.1351 19.571C67.8984 19.571 67.6664 19.5201 67.4391 19.4183C67.2142 19.3165 67.0272 19.1615 66.878 18.9531C66.7312 18.7448 66.6578 18.482 66.6578 18.1648V12.7386ZM69.9213 19.5V14.0455H70.7594V19.5H69.9213ZM70.3475 13.1364C70.1841 13.1364 70.0433 13.0807 69.9249 12.9695C69.8089 12.8582 69.7509 12.7244 69.7509 12.5682C69.7509 12.4119 69.8089 12.2782 69.9249 12.1669C70.0433 12.0556 70.1841 12 70.3475 12C70.5108 12 70.6505 12.0556 70.7665 12.1669C70.8849 12.2782 70.9441 12.4119 70.9441 12.5682C70.9441 12.7244 70.8849 12.8582 70.7665 12.9695C70.6505 13.0807 70.5108 13.1364 70.3475 13.1364ZM72.2944 19.5V14.0455H73.104V14.8977H73.1751C73.2887 14.6065 73.4722 14.3804 73.7255 14.2195C73.9788 14.0561 74.283 13.9744 74.6381 13.9744C74.998 13.9744 75.2975 14.0561 75.5366 14.2195C75.7781 14.3804 75.9663 14.6065 76.1012 14.8977H76.158C76.2977 14.616 76.5072 14.3923 76.7866 14.2266C77.0659 14.0585 77.4009 13.9744 77.7915 13.9744C78.2792 13.9744 78.6781 14.1271 78.9883 14.4325C79.2984 14.7356 79.4535 15.2079 79.4535 15.8494V19.5H78.6154V15.8494C78.6154 15.447 78.5053 15.1593 78.2852 14.9865C78.065 14.8137 77.8058 14.7273 77.5075 14.7273C77.1239 14.7273 76.8268 14.8433 76.6161 15.0753C76.4054 15.3049 76.3001 15.5961 76.3001 15.9489V19.5H75.4478V15.7642C75.4478 15.4541 75.3472 15.2043 75.146 15.0149C74.9447 14.8232 74.6855 14.7273 74.3683 14.7273C74.1504 14.7273 73.9469 14.7853 73.7575 14.9013C73.5704 15.0173 73.4189 15.1783 73.3029 15.3842C73.1893 15.5878 73.1325 15.8234 73.1325 16.0909V19.5H72.2944ZM83.2727 19.6136C82.7472 19.6136 82.2938 19.4976 81.9126 19.2656C81.5339 19.0312 81.2415 18.7045 81.0355 18.2855C80.8319 17.8641 80.7301 17.3741 80.7301 16.8153C80.7301 16.2566 80.8319 15.7642 81.0355 15.3381C81.2415 14.9096 81.5279 14.5758 81.8949 14.3366C82.2642 14.0952 82.6951 13.9744 83.1875 13.9744C83.4716 13.9744 83.7521 14.0218 84.0291 14.1165C84.3061 14.2112 84.5582 14.3651 84.7855 14.5781C85.0128 14.7888 85.1939 15.0682 85.3288 15.4162C85.4638 15.7642 85.5312 16.1927 85.5312 16.7017V17.0568H81.3267V16.3324H84.679C84.679 16.0246 84.6174 15.75 84.4943 15.5085C84.3736 15.267 84.2008 15.0765 83.9759 14.9368C83.7533 14.7971 83.4905 14.7273 83.1875 14.7273C82.8537 14.7273 82.5649 14.8101 82.321 14.9759C82.0795 15.1392 81.8937 15.3523 81.7635 15.6151C81.6333 15.8778 81.5682 16.1596 81.5682 16.4602V16.9432C81.5682 17.3551 81.6392 17.7043 81.7812 17.9908C81.9257 18.2749 82.1257 18.4915 82.3814 18.6406C82.6371 18.7874 82.9342 18.8608 83.2727 18.8608C83.4929 18.8608 83.6918 18.83 83.8693 18.7685C84.0492 18.7045 84.2043 18.6098 84.3345 18.4844C84.4647 18.3565 84.5653 18.1979 84.6364 18.0085L85.446 18.2358C85.3608 18.5104 85.2176 18.7519 85.0163 18.9602C84.8151 19.1662 84.5665 19.3272 84.2706 19.4432C83.9747 19.5568 83.642 19.6136 83.2727 19.6136Z" fill="var(--colors-neutral-neutral-800)"/>
<path d="M147.31 12.2273V19.5H146.429V13.1506H146.386L144.611 14.3295V13.4347L146.429 12.2273H147.31ZM151.816 19.5994C151.518 19.5947 151.219 19.5379 150.921 19.429C150.623 19.3201 150.351 19.1366 150.104 18.8786C149.858 18.6181 149.661 18.2666 149.511 17.8239C149.362 17.3788 149.288 16.8201 149.288 16.1477C149.288 15.5038 149.348 14.9332 149.469 14.4361C149.589 13.9366 149.765 13.5163 149.994 13.1754C150.224 12.8321 150.501 12.5717 150.825 12.3942C151.152 12.2166 151.52 12.1278 151.93 12.1278C152.337 12.1278 152.699 12.2095 153.016 12.3729C153.336 12.5339 153.596 12.7588 153.798 13.0476C153.999 13.3364 154.129 13.669 154.188 14.0455H153.322C153.241 13.7187 153.085 13.4477 152.853 13.2322C152.621 13.0168 152.313 12.9091 151.93 12.9091C151.366 12.9091 150.922 13.1541 150.598 13.6442C150.276 14.1342 150.114 14.822 150.112 15.7074H150.168C150.301 15.5062 150.458 15.3345 150.641 15.1925C150.825 15.0481 151.029 14.9368 151.251 14.8587C151.474 14.7805 151.71 14.7415 151.958 14.7415C152.375 14.7415 152.756 14.8456 153.102 15.054C153.447 15.2599 153.724 15.5452 153.933 15.9098C154.141 16.272 154.245 16.6875 154.245 17.1562C154.245 17.6061 154.144 18.018 153.943 18.392C153.742 18.7637 153.459 19.0597 153.094 19.2798C152.732 19.4976 152.306 19.6042 151.816 19.5994ZM151.816 18.8182C152.114 18.8182 152.382 18.7436 152.619 18.5945C152.858 18.4453 153.046 18.2453 153.183 17.9943C153.323 17.7434 153.393 17.464 153.393 17.1562C153.393 16.8556 153.325 16.5821 153.19 16.3359C153.058 16.0874 152.874 15.8897 152.64 15.7429C152.408 15.5961 152.143 15.5227 151.844 15.5227C151.62 15.5227 151.41 15.5677 151.216 15.6577C151.022 15.7453 150.851 15.866 150.705 16.0199C150.56 16.1738 150.446 16.3501 150.364 16.549C150.281 16.7455 150.239 16.9527 150.239 17.1705C150.239 17.4593 150.307 17.7292 150.442 17.9801C150.579 18.2311 150.766 18.4335 151.003 18.5874C151.242 18.7412 151.513 18.8182 151.816 18.8182ZM162.332 15.267L161.579 15.4801C161.532 15.3546 161.462 15.2327 161.369 15.1143C161.28 14.9936 161.156 14.8942 161 14.8161C160.844 14.7379 160.644 14.6989 160.4 14.6989C160.066 14.6989 159.788 14.7758 159.566 14.9297C159.345 15.0812 159.235 15.2741 159.235 15.5085C159.235 15.7169 159.311 15.8814 159.463 16.0021C159.614 16.1229 159.851 16.2235 160.173 16.304L160.982 16.5028C161.47 16.6212 161.834 16.8023 162.073 17.0462C162.312 17.2876 162.431 17.599 162.431 17.9801C162.431 18.2926 162.341 18.572 162.161 18.8182C161.984 19.0644 161.735 19.2585 161.416 19.4006C161.096 19.5426 160.724 19.6136 160.301 19.6136C159.744 19.6136 159.284 19.4929 158.919 19.2514C158.555 19.0099 158.324 18.6572 158.227 18.1932L159.022 17.9943C159.098 18.2879 159.241 18.508 159.452 18.6548C159.665 18.8016 159.943 18.875 160.286 18.875C160.677 18.875 160.987 18.7921 161.217 18.6264C161.449 18.4583 161.565 18.2571 161.565 18.0227C161.565 17.8333 161.499 17.6747 161.366 17.5469C161.233 17.4167 161.03 17.3196 160.755 17.2557L159.846 17.0426C159.347 16.9242 158.98 16.7408 158.745 16.4922C158.513 16.2412 158.397 15.9276 158.397 15.5511C158.397 15.2434 158.484 14.9711 158.656 14.7344C158.832 14.4976 159.07 14.3118 159.37 14.1768C159.673 14.0419 160.017 13.9744 160.4 13.9744C160.94 13.9744 161.364 14.0928 161.671 14.3295C161.981 14.5663 162.202 14.8788 162.332 15.267ZM165.98 19.6136C165.454 19.6136 165.001 19.4976 164.62 19.2656C164.241 19.0312 163.949 18.7045 163.743 18.2855C163.539 17.8641 163.437 17.3741 163.437 16.8153C163.437 16.2566 163.539 15.7642 163.743 15.3381C163.949 14.9096 164.235 14.5758 164.602 14.3366C164.971 14.0952 165.402 13.9744 165.895 13.9744C166.179 13.9744 166.459 14.0218 166.736 14.1165C167.013 14.2112 167.265 14.3651 167.493 14.5781C167.72 14.7888 167.901 15.0682 168.036 15.4162C168.171 15.7642 168.238 16.1927 168.238 16.7017V17.0568H164.034V16.3324H167.386C167.386 16.0246 167.324 15.75 167.201 15.5085C167.081 15.267 166.908 15.0765 166.683 14.9368C166.46 14.7971 166.198 14.7273 165.895 14.7273C165.561 14.7273 165.272 14.8101 165.028 14.9759C164.787 15.1392 164.601 15.3523 164.471 15.6151C164.34 15.8778 164.275 16.1596 164.275 16.4602V16.9432C164.275 17.3551 164.346 17.7043 164.488 17.9908C164.633 18.2749 164.833 18.4915 165.088 18.6406C165.344 18.7874 165.641 18.8608 165.98 18.8608C166.2 18.8608 166.399 18.83 166.576 18.7685C166.756 18.7045 166.911 18.6098 167.042 18.4844C167.172 18.3565 167.272 18.1979 167.343 18.0085L168.153 18.2358C168.068 18.5104 167.925 18.7519 167.723 18.9602C167.522 19.1662 167.274 19.3272 166.978 19.4432C166.682 19.5568 166.349 19.6136 165.98 19.6136ZM171.729 19.6136C171.218 19.6136 170.777 19.4929 170.408 19.2514C170.039 19.0099 169.755 18.6773 169.556 18.2536C169.357 17.8298 169.257 17.3456 169.257 16.8011C169.257 16.2472 169.359 15.7583 169.563 15.3345C169.769 14.9084 170.055 14.5758 170.422 14.3366C170.792 14.0952 171.222 13.9744 171.715 13.9744C172.098 13.9744 172.444 14.0455 172.752 14.1875C173.06 14.3295 173.312 14.5284 173.508 14.7841C173.705 15.0398 173.827 15.3381 173.874 15.679H173.036C172.972 15.4304 172.83 15.2102 172.61 15.0185C172.392 14.8243 172.098 14.7273 171.729 14.7273C171.402 14.7273 171.116 14.8125 170.87 14.983C170.626 15.151 170.435 15.389 170.298 15.6967C170.163 16.0021 170.096 16.3608 170.096 16.7727C170.096 17.1941 170.162 17.5611 170.294 17.8736C170.429 18.1861 170.619 18.4287 170.863 18.6016C171.109 18.7744 171.398 18.8608 171.729 18.8608C171.947 18.8608 172.145 18.8229 172.322 18.7472C172.5 18.6714 172.65 18.5625 172.773 18.4205C172.896 18.2784 172.984 18.108 173.036 17.9091H173.874C173.827 18.2311 173.709 18.5211 173.522 18.7791C173.338 19.0348 173.093 19.2384 172.787 19.3899C172.484 19.5391 172.132 19.6136 171.729 19.6136Z" fill="var(--colors-neutral-neutral-800)"/>
</svg>
