<svg width="210" height="138" viewBox="0 0 210 138" fill="none" xmlns="http://www.w3.org/2000/svg">
<path d="M181 115L139.5 86H28.5L67 115H181Z" fill="var(--colors-neutral-neutral-500)"/>
<path d="M140 86V22H28V86H140Z" fill="white"/>
<path d="M182 115.5V50L140 22V86L182 115.5Z" fill="var(--colors-neutral-neutral-200)"/>
<path d="M21.9465 91.5029C21.6719 91.5324 21.4733 91.779 21.5029 92.0535L21.9847 96.5277C22.0143 96.8022 22.2608 97.0008 22.5354 96.9713C22.8099 96.9417 23.0085 96.6951 22.979 96.4206L22.5507 92.4436L26.5277 92.0153C26.8022 91.9857 27.0008 91.7392 26.9713 91.4646C26.9417 91.1901 26.6951 90.9915 26.4206 91.021L21.9465 91.5029ZM58.0535 121.497C58.3281 121.468 58.5267 121.221 58.4971 120.946L58.0153 116.472C57.9857 116.198 57.7392 115.999 57.4646 116.029C57.1901 116.058 56.9915 116.305 57.021 116.579L57.4493 120.556L53.4723 120.985C53.1978 121.014 52.9992 121.261 53.0287 121.535C53.0583 121.81 53.3049 122.009 53.5794 121.979L58.0535 121.497ZM21.6863 92.3894L57.6863 121.389L58.3137 120.611L22.3137 91.6106L21.6863 92.3894Z" fill="var(--colors-neutral-neutral-800)"/>
<path d="M28 22H140M28 22V86M28 22L67 50M140 22L182 50M140 22V86M182 50V115.5M182 50H67M182 115.5H67M182 115.5L140 86M67 115.5L28 86M67 115.5V50M28 86H140" stroke="var(--colors-neutral-neutral-800)"/>
</svg>
