<svg width="656" height="96" viewBox="0 0 656 96" fill="none" xmlns="http://www.w3.org/2000/svg">
<g clip-path="url(#clip0_4672_42042)">
<mask id="mask0_4672_42042" style="mask-type:luminance" maskUnits="userSpaceOnUse" x="0" y="0" width="233" height="96">
<path d="M232.041 0H0V95.9102H232.041V0Z" fill="white"/>
</mask>
<g mask="url(#mask0_4672_42042)">
<path d="M93.6104 74.751V24.9099H105.267V44.9152H124.273V24.9099H135.909V74.751H124.273V54.7213H105.267V74.751H93.6104Z" fill="#222222"/>
<path d="M148.186 33.0053C146.639 33.035 145.141 32.436 144.018 31.3374C143.471 30.8331 143.031 30.2146 142.731 29.5228C142.431 28.831 142.276 28.0817 142.276 27.3234C142.276 26.5654 142.431 25.816 142.731 25.1242C143.031 24.4324 143.471 23.814 144.018 23.3097C145.16 22.2364 146.648 21.6421 148.192 21.6421C149.736 21.6421 151.224 22.2364 152.366 23.3097C152.91 23.8159 153.346 24.4349 153.646 25.1264C153.943 25.8179 154.098 26.5663 154.098 27.3234C154.098 28.0804 153.943 28.8292 153.646 29.5207C153.346 30.2121 152.91 30.8312 152.366 31.3374C151.239 32.4397 149.739 33.039 148.186 33.0053ZM142.416 74.7451V37.3704H153.931V74.7513L142.416 74.7451Z" fill="#222222"/>
<path d="M195.53 37.3704L183.117 74.7512H169.928L157.54 37.3704H169.662L176.329 63.1182H176.707L183.399 37.3704H195.53Z" fill="#222222"/>
<path d="M232.041 58.9322V55.9621C232.087 53.1838 231.648 50.4179 230.741 47.8008C229.962 45.5574 228.724 43.5127 227.115 41.803C225.553 40.1744 223.665 38.9195 221.583 38.1262C219.319 37.2773 216.927 36.8577 214.517 36.8877C210.872 36.8877 207.707 37.6946 205.025 39.3081C202.361 40.8983 200.195 43.2463 198.785 46.0722C197.309 48.9684 196.569 52.3485 196.569 56.2127C196.569 60.1852 197.303 63.6164 198.772 66.503C200.183 69.3215 202.383 71.6357 205.084 73.1486C207.831 74.6986 211.092 75.4752 214.87 75.4721C217.716 75.5278 220.547 75.0204 223.208 73.9747C225.46 73.0898 227.465 71.645 229.046 69.7639C230.537 67.9385 231.533 65.7326 231.929 63.3781L221.357 63.0564C221.076 63.8577 220.618 64.5755 220.015 65.1509C219.396 65.7326 218.666 66.175 217.871 66.4442C216.973 66.7443 216.036 66.8928 215.092 66.8804C213.762 66.9175 212.444 66.5896 211.275 65.9337C210.219 65.3087 209.359 64.3836 208.803 63.2667C208.196 62.0292 207.893 60.6555 207.921 59.2664V58.9508L232.041 58.9322ZM208.864 48.7732C209.455 47.7646 210.291 46.9339 211.29 46.3633C212.342 45.787 213.514 45.4813 214.706 45.4726C215.897 45.464 217.072 45.7526 218.131 46.3135C219.096 46.8562 219.897 47.6597 220.454 48.6383C221.026 49.6661 221.327 50.8325 221.32 52.0205H207.927C207.97 50.8727 208.292 49.7558 208.864 48.7732Z" fill="#222222"/>
<path d="M35.859 95.9102L0 74.8223V24.9419L42.4118 0L84.8307 24.9419V74.8223L49.662 95.5049V55.5846H65.5221V43.4674H19.3083V55.5846H35.859V95.9102Z" fill="#222222"/>
</g>
<path d="M272 11V89" stroke="#222222"/>
<path d="M308.026 61L306.604 57.112H301.618L300.196 61H298.324L303.148 48.22H305.128L309.97 61H308.026ZM302.158 55.6H306.046L304.102 50.272L302.158 55.6ZM323.88 48.22V49.858H320.424V61H318.588V49.858H315.078V48.22H323.88ZM328.402 61.18C325.558 61.18 323.578 59.218 323.578 56.464C323.578 53.728 325.558 51.748 328.402 51.748C331.264 51.748 333.244 53.728 333.244 56.464C333.244 59.218 331.264 61.18 328.402 61.18ZM328.402 59.578C330.238 59.578 331.48 58.3 331.48 56.464C331.48 54.61 330.22 53.35 328.42 53.35C326.584 53.35 325.342 54.61 325.342 56.464C325.342 58.336 326.602 59.578 328.402 59.578ZM341.113 51.928H342.913L338.791 62.224C338.089 63.988 337.081 64.852 335.461 64.852C335.065 64.852 334.615 64.798 334.201 64.654L334.435 63.142C334.633 63.214 334.885 63.268 335.173 63.268C336.091 63.268 336.721 62.926 337.243 61.702L337.729 60.586L333.931 51.928H335.803L338.611 58.606L341.113 51.928ZM348.3 61.18C345.456 61.18 343.476 59.218 343.476 56.464C343.476 53.728 345.456 51.748 348.3 51.748C351.162 51.748 353.142 53.728 353.142 56.464C353.142 59.218 351.162 61.18 348.3 61.18ZM348.3 59.578C350.136 59.578 351.378 58.3 351.378 56.464C351.378 54.61 350.118 53.35 348.318 53.35C346.482 53.35 345.24 54.61 345.24 56.464C345.24 58.336 346.5 59.578 348.3 59.578ZM358.291 61.18C356.761 61.18 355.771 60.298 355.771 58.48V53.386H354.457V51.928H355.771V49.318L357.481 49.084V51.928H360.037V53.386H357.481V58.264C357.481 59.164 357.913 59.614 358.669 59.614C359.317 59.614 359.893 59.326 360.271 59.092L360.559 60.514C360.073 60.874 359.245 61.18 358.291 61.18ZM365.798 51.748C368.102 51.748 369.542 52.882 369.542 55.33V61H367.832V59.596C367.256 60.514 366.122 61.18 364.592 61.18C362.72 61.18 361.568 60.154 361.568 58.498C361.568 56.41 363.386 55.6 367.832 55.564V55.366C367.832 54.052 367.058 53.206 365.51 53.206C364.214 53.206 363.206 53.8 362.612 54.232L362.18 52.81C362.972 52.27 364.25 51.748 365.798 51.748ZM365.114 59.866C366.356 59.866 367.832 59.164 367.832 57.472V56.698C364.43 56.734 363.35 57.238 363.35 58.408C363.35 59.29 363.962 59.866 365.114 59.866ZM377.054 61V48.22H378.908V61H377.054ZM387.079 51.748C389.149 51.748 390.319 52.972 390.319 55.366V61H388.609V55.942C388.609 54.178 387.889 53.296 386.467 53.296C384.901 53.296 383.839 54.376 383.839 55.996V61H382.129V51.928H383.839V53.512C384.451 52.396 385.621 51.748 387.079 51.748ZM400.222 47.464H401.932V61.018H400.222V59.344C399.502 60.64 398.314 61.18 396.928 61.18C394.372 61.18 392.554 59.218 392.554 56.482C392.554 53.71 394.39 51.748 396.928 51.748C398.332 51.748 399.574 52.342 400.222 53.548V47.464ZM397.234 59.596C398.998 59.596 400.312 58.246 400.312 56.464C400.312 54.664 398.998 53.332 397.252 53.332C395.524 53.332 394.318 54.592 394.318 56.482C394.318 58.336 395.488 59.596 397.234 59.596ZM411.3 51.928H413.01V61H411.3V59.416C410.688 60.532 409.518 61.18 408.024 61.18C406.008 61.18 404.802 59.974 404.802 57.58V51.928H406.512V57.004C406.512 58.768 407.232 59.65 408.654 59.65C410.22 59.65 411.3 58.552 411.3 56.95V51.928ZM418.738 61.18C417.496 61.18 416.182 60.802 415.48 60.226L415.894 58.804C416.596 59.38 417.712 59.83 418.828 59.83C419.89 59.83 420.556 59.38 420.556 58.588C420.556 57.76 419.8 57.508 418.45 57.094C417.046 56.662 415.732 56.14 415.732 54.466C415.732 52.756 417.082 51.748 419.08 51.748C420.214 51.748 421.24 52.09 421.924 52.504L421.582 53.908C420.97 53.494 420.034 53.098 419.044 53.098C418.09 53.098 417.424 53.512 417.424 54.25C417.424 55.078 418.27 55.348 419.332 55.636C421.006 56.086 422.23 56.698 422.23 58.336C422.23 60.028 420.952 61.18 418.738 61.18ZM427.567 61.18C426.037 61.18 425.047 60.298 425.047 58.48V53.386H423.733V51.928H425.047V49.318L426.757 49.084V51.928H429.313V53.386H426.757V58.264C426.757 59.164 427.189 59.614 427.945 59.614C428.593 59.614 429.169 59.326 429.547 59.092L429.835 60.514C429.349 60.874 428.521 61.18 427.567 61.18ZM435.414 51.73C435.828 51.73 436.242 51.82 436.548 51.946L436.206 53.602C435.954 53.494 435.612 53.404 435.27 53.404C433.812 53.404 433.128 54.592 433.128 56.41V61H431.436V51.928H433.128V53.476C433.65 52.198 434.46 51.73 435.414 51.73ZM439.068 50.164C438.42 50.164 437.916 49.66 437.916 49.012C437.916 48.364 438.42 47.86 439.068 47.86C439.716 47.86 440.202 48.364 440.202 49.012C440.202 49.66 439.716 50.164 439.068 50.164ZM438.186 61V51.928H439.896V61H438.186ZM451.015 56.5V56.734H443.923C444.031 58.588 445.237 59.686 447.091 59.686C448.387 59.686 449.503 59.182 450.223 58.57L450.673 59.974C449.863 60.64 448.549 61.18 446.947 61.18C444.031 61.18 442.195 59.128 442.195 56.482C442.195 53.728 444.139 51.748 446.713 51.748C449.269 51.748 451.015 53.692 451.015 56.5ZM443.995 55.51H449.251C449.071 54.124 448.081 53.152 446.713 53.152C445.381 53.152 444.283 54.106 443.995 55.51ZM455.951 61.18C454.709 61.18 453.395 60.802 452.693 60.226L453.107 58.804C453.809 59.38 454.925 59.83 456.041 59.83C457.103 59.83 457.769 59.38 457.769 58.588C457.769 57.76 457.013 57.508 455.663 57.094C454.259 56.662 452.945 56.14 452.945 54.466C452.945 52.756 454.295 51.748 456.293 51.748C457.427 51.748 458.453 52.09 459.137 52.504L458.795 53.908C458.183 53.494 457.247 53.098 456.257 53.098C455.303 53.098 454.637 53.512 454.637 54.25C454.637 55.078 455.483 55.348 456.545 55.636C458.219 56.086 459.443 56.698 459.443 58.336C459.443 60.028 458.165 61.18 455.951 61.18ZM472.448 61.18C468.596 61.18 465.842 58.444 465.842 54.592C465.842 50.722 468.668 48.04 472.502 48.04C474.194 48.04 475.634 48.58 476.75 49.372L476.138 51.064C475.148 50.29 473.906 49.786 472.556 49.786C469.712 49.786 467.75 51.802 467.75 54.574C467.75 57.364 469.712 59.434 472.556 59.434C474.086 59.434 475.436 58.822 476.408 58.102L476.948 59.758C475.67 60.694 474.23 61.18 472.448 61.18ZM482.773 61.18C479.929 61.18 477.949 59.218 477.949 56.464C477.949 53.728 479.929 51.748 482.773 51.748C485.635 51.748 487.615 53.728 487.615 56.464C487.615 59.218 485.635 61.18 482.773 61.18ZM482.773 59.578C484.609 59.578 485.851 58.3 485.851 56.464C485.851 54.61 484.591 53.35 482.791 53.35C480.955 53.35 479.713 54.61 479.713 56.464C479.713 58.336 480.973 59.578 482.773 59.578ZM493.896 51.73C494.31 51.73 494.724 51.82 495.03 51.946L494.688 53.602C494.436 53.494 494.094 53.404 493.752 53.404C492.294 53.404 491.61 54.592 491.61 56.41V61H489.918V51.928H491.61V53.476C492.132 52.198 492.942 51.73 493.896 51.73ZM501.69 51.748C504.228 51.748 506.028 53.728 506.028 56.464C506.028 59.182 504.228 61.18 501.6 61.18C500.358 61.18 499.062 60.586 498.378 59.38V64.78H496.668V51.928H498.378V53.53C499.098 52.36 500.376 51.748 501.69 51.748ZM501.348 59.596C503.076 59.596 504.282 58.318 504.282 56.464C504.282 54.664 503.148 53.332 501.366 53.332C499.656 53.332 498.288 54.61 498.288 56.464C498.288 58.264 499.62 59.596 501.348 59.596ZM512.48 61.18C509.636 61.18 507.656 59.218 507.656 56.464C507.656 53.728 509.636 51.748 512.48 51.748C515.342 51.748 517.322 53.728 517.322 56.464C517.322 59.218 515.342 61.18 512.48 61.18ZM512.48 59.578C514.316 59.578 515.558 58.3 515.558 56.464C515.558 54.61 514.298 53.35 512.498 53.35C510.662 53.35 509.42 54.61 509.42 56.464C509.42 58.336 510.68 59.578 512.48 59.578ZM523.603 51.73C524.017 51.73 524.431 51.82 524.737 51.946L524.395 53.602C524.143 53.494 523.801 53.404 523.459 53.404C522.001 53.404 521.317 54.592 521.317 56.41V61H519.625V51.928H521.317V53.476C521.839 52.198 522.649 51.73 523.603 51.73ZM529.679 51.748C531.983 51.748 533.423 52.882 533.423 55.33V61H531.713V59.596C531.137 60.514 530.003 61.18 528.473 61.18C526.601 61.18 525.449 60.154 525.449 58.498C525.449 56.41 527.267 55.6 531.713 55.564V55.366C531.713 54.052 530.939 53.206 529.391 53.206C528.095 53.206 527.087 53.8 526.493 54.232L526.061 52.81C526.853 52.27 528.131 51.748 529.679 51.748ZM528.995 59.866C530.237 59.866 531.713 59.164 531.713 57.472V56.698C528.311 56.734 527.231 57.238 527.231 58.408C527.231 59.29 527.843 59.866 528.995 59.866ZM539.188 61.18C537.658 61.18 536.668 60.298 536.668 58.48V53.386H535.354V51.928H536.668V49.318L538.378 49.084V51.928H540.934V53.386H538.378V58.264C538.378 59.164 538.81 59.614 539.566 59.614C540.214 59.614 540.79 59.326 541.168 59.092L541.456 60.514C540.97 60.874 540.142 61.18 539.188 61.18ZM543.939 50.164C543.291 50.164 542.787 49.66 542.787 49.012C542.787 48.364 543.291 47.86 543.939 47.86C544.587 47.86 545.073 48.364 545.073 49.012C545.073 49.66 544.587 50.164 543.939 50.164ZM543.057 61V51.928H544.767V61H543.057ZM551.89 61.18C549.046 61.18 547.066 59.218 547.066 56.464C547.066 53.728 549.046 51.748 551.89 51.748C554.752 51.748 556.732 53.728 556.732 56.464C556.732 59.218 554.752 61.18 551.89 61.18ZM551.89 59.578C553.726 59.578 554.968 58.3 554.968 56.464C554.968 54.61 553.708 53.35 551.908 53.35C550.072 53.35 548.83 54.61 548.83 56.464C548.83 58.336 550.09 59.578 551.89 59.578ZM563.985 51.748C566.055 51.748 567.225 52.972 567.225 55.366V61H565.515V55.942C565.515 54.178 564.795 53.296 563.373 53.296C561.807 53.296 560.745 54.376 560.745 55.996V61H559.035V51.928H560.745V53.512C561.357 52.396 562.527 51.748 563.985 51.748ZM580.677 61.18C576.825 61.18 574.071 58.444 574.071 54.592C574.071 50.722 576.897 48.04 580.731 48.04C582.423 48.04 583.863 48.58 584.979 49.372L584.367 51.064C583.377 50.29 582.135 49.786 580.785 49.786C577.941 49.786 575.979 51.802 575.979 54.574C575.979 57.364 577.941 59.434 580.785 59.434C582.315 59.434 583.665 58.822 584.637 58.102L585.177 59.758C583.899 60.694 582.459 61.18 580.677 61.18ZM591.001 61.18C588.157 61.18 586.177 59.218 586.177 56.464C586.177 53.728 588.157 51.748 591.001 51.748C593.863 51.748 595.843 53.728 595.843 56.464C595.843 59.218 593.863 61.18 591.001 61.18ZM591.001 59.578C592.837 59.578 594.079 58.3 594.079 56.464C594.079 54.61 592.819 53.35 591.019 53.35C589.183 53.35 587.941 54.61 587.941 56.464C587.941 58.336 589.201 59.578 591.001 59.578ZM608.569 51.73C610.549 51.73 611.665 52.936 611.665 55.348V61H609.955V55.924C609.955 54.16 609.307 53.278 607.993 53.278C606.679 53.278 605.761 54.358 605.761 55.87V61H604.051V55.924C604.051 54.16 603.421 53.278 602.107 53.278C600.757 53.278 599.857 54.358 599.857 55.96V61H598.147V51.928H599.857V53.404C600.415 52.342 601.423 51.73 602.701 51.73C604.141 51.73 605.113 52.378 605.527 53.692C606.103 52.414 607.165 51.73 608.569 51.73ZM619.604 51.748C622.142 51.748 623.942 53.728 623.942 56.464C623.942 59.182 622.142 61.18 619.514 61.18C618.272 61.18 616.976 60.586 616.292 59.38V64.78H614.582V51.928H616.292V53.53C617.012 52.36 618.29 51.748 619.604 51.748ZM619.262 59.596C620.99 59.596 622.196 58.318 622.196 56.464C622.196 54.664 621.062 53.332 619.28 53.332C617.57 53.332 616.202 54.61 616.202 56.464C616.202 58.264 617.534 59.596 619.262 59.596ZM629.857 51.748C632.161 51.748 633.601 52.882 633.601 55.33V61H631.891V59.596C631.315 60.514 630.181 61.18 628.651 61.18C626.779 61.18 625.627 60.154 625.627 58.498C625.627 56.41 627.445 55.6 631.891 55.564V55.366C631.891 54.052 631.117 53.206 629.569 53.206C628.273 53.206 627.265 53.8 626.671 54.232L626.239 52.81C627.031 52.27 628.309 51.748 629.857 51.748ZM629.173 59.866C630.415 59.866 631.891 59.164 631.891 57.472V56.698C628.489 56.734 627.409 57.238 627.409 58.408C627.409 59.29 628.021 59.866 629.173 59.866ZM641.47 51.748C643.54 51.748 644.71 52.972 644.71 55.366V61H643V55.942C643 54.178 642.28 53.296 640.858 53.296C639.292 53.296 638.23 54.376 638.23 55.996V61H636.52V51.928H638.23V53.512C638.842 52.396 640.012 51.748 641.47 51.748ZM653.371 51.928H655.171L651.049 62.224C650.347 63.988 649.339 64.852 647.719 64.852C647.323 64.852 646.873 64.798 646.459 64.654L646.693 63.142C646.891 63.214 647.143 63.268 647.431 63.268C648.349 63.268 648.979 62.926 649.501 61.702L649.987 60.586L646.189 51.928H648.061L650.869 58.606L653.371 51.928Z" fill="#222222"/>
</g>
<defs>
<clipPath id="clip0_4672_42042">
<rect width="656" height="96" fill="white"/>
</clipPath>
</defs>
</svg>
