<svg width="304" height="241" viewBox="0 0 304 241" fill="none" xmlns="http://www.w3.org/2000/svg">
<path d="M304 239.5H0V240.5H304V239.5Z" fill="#E6E6E6"/>
<path d="M18.796 28L16.348 19.624H17.92L19.492 24.844L19.924 26.788L20.344 24.856L21.928 19.624H23.464L21.004 28H18.796ZM27.7767 28.144C27.0807 28.144 26.4807 28.008 25.9767 27.736C25.4727 27.456 25.0847 27.056 24.8127 26.536C24.5487 26.016 24.4167 25.396 24.4167 24.676C24.4167 23.956 24.5527 23.34 24.8247 22.828C25.0967 22.308 25.4887 21.912 26.0007 21.64C26.5127 21.368 27.1247 21.232 27.8367 21.232C28.9407 21.232 29.7527 21.54 30.2727 22.156C30.8007 22.772 31.0287 23.616 30.9567 24.688H25.5567L25.5687 23.644L29.4927 23.656C29.4607 23.272 29.2927 22.964 28.9887 22.732C28.6847 22.5 28.3007 22.384 27.8367 22.384C27.1807 22.384 26.6847 22.588 26.3487 22.996C26.0127 23.404 25.8447 23.984 25.8447 24.736C25.8447 25.168 25.9207 25.556 26.0727 25.9C26.2247 26.236 26.4407 26.5 26.7207 26.692C27.0087 26.876 27.3607 26.968 27.7767 26.968C28.2487 26.968 28.6407 26.856 28.9527 26.632C29.2727 26.408 29.4687 26.108 29.5407 25.732H30.9807C30.8847 26.476 30.5487 27.064 29.9727 27.496C29.4047 27.928 28.6727 28.144 27.7767 28.144ZM37.1294 28V23.872C37.1294 23.44 37.0094 23.096 36.7694 22.84C36.5374 22.576 36.2334 22.444 35.8574 22.444C35.4254 22.444 35.0334 22.6 34.6814 22.912C34.3374 23.216 34.0414 23.708 33.7934 24.388L33.5774 22.972C33.8414 22.38 34.2014 21.944 34.6574 21.664C35.1134 21.376 35.6014 21.232 36.1214 21.232C36.6254 21.232 37.0574 21.34 37.4174 21.556C37.7854 21.764 38.0654 22.06 38.2574 22.444C38.4574 22.828 38.5574 23.276 38.5574 23.788V28H37.1294ZM32.5094 28V19.144H33.9374V28H32.5094ZM42.6421 28V21.376H44.0701V28H42.6421ZM40.3021 28V26.836H46.3141V28H40.3021ZM41.1541 22.54V21.376H43.3501V22.54H41.1541ZM42.5581 20.332V18.868H44.1181V20.332H42.5581ZM51.2748 28.144C50.5868 28.144 49.9908 28.004 49.4868 27.724C48.9828 27.444 48.5948 27.044 48.3228 26.524C48.0588 26.004 47.9268 25.392 47.9268 24.688C47.9268 23.968 48.0668 23.352 48.3468 22.84C48.6268 22.32 49.0188 21.924 49.5228 21.652C50.0348 21.372 50.6308 21.232 51.3108 21.232C51.8708 21.232 52.3708 21.336 52.8108 21.544C53.2508 21.744 53.6068 22.028 53.8788 22.396C54.1508 22.764 54.3028 23.204 54.3348 23.716H52.9068C52.8428 23.292 52.6668 22.972 52.3788 22.756C52.0988 22.532 51.7428 22.42 51.3108 22.42C50.9188 22.42 50.5748 22.512 50.2788 22.696C49.9908 22.872 49.7668 23.128 49.6068 23.464C49.4468 23.8 49.3668 24.208 49.3668 24.688C49.3668 25.408 49.5428 25.972 49.8948 26.38C50.2548 26.78 50.7148 26.98 51.2748 26.98C51.5468 26.98 51.7948 26.928 52.0188 26.824C52.2508 26.712 52.4468 26.56 52.6068 26.368C52.7748 26.176 52.8868 25.952 52.9428 25.696H54.3828C54.3108 26.192 54.1308 26.624 53.8428 26.992C53.5628 27.36 53.1988 27.644 52.7508 27.844C52.3108 28.044 51.8188 28.144 51.2748 28.144ZM58.2034 28V19.156H59.6434V28H58.2034ZM55.8634 28V26.836H62.0074V28H55.8634ZM56.7274 20.32V19.156H58.9234V20.32H56.7274ZM66.8001 28.144C66.1041 28.144 65.5041 28.008 65.0001 27.736C64.4961 27.456 64.1081 27.056 63.8361 26.536C63.5721 26.016 63.4401 25.396 63.4401 24.676C63.4401 23.956 63.5761 23.34 63.8481 22.828C64.1201 22.308 64.5121 21.912 65.0241 21.64C65.5361 21.368 66.1481 21.232 66.8601 21.232C67.9641 21.232 68.7761 21.54 69.2961 22.156C69.8241 22.772 70.0521 23.616 69.9801 24.688H64.5801L64.5921 23.644L68.5161 23.656C68.4841 23.272 68.3161 22.964 68.0121 22.732C67.7081 22.5 67.3241 22.384 66.8601 22.384C66.2041 22.384 65.7081 22.588 65.3721 22.996C65.0361 23.404 64.8681 23.984 64.8681 24.736C64.8681 25.168 64.9441 25.556 65.0961 25.9C65.2481 26.236 65.4641 26.5 65.7441 26.692C66.0321 26.876 66.3841 26.968 66.8001 26.968C67.2721 26.968 67.6641 26.856 67.9761 26.632C68.2961 26.408 68.4921 26.108 68.5641 25.732H70.0041C69.9081 26.476 69.5721 27.064 68.9961 27.496C68.4281 27.928 67.6961 28.144 66.8001 28.144ZM74.7008 28.144C74.1088 28.144 73.5848 28.044 73.1288 27.844C72.6808 27.636 72.3328 27.344 72.0848 26.968C71.8368 26.592 71.7088 26.148 71.7008 25.636H73.0448C73.0368 26.084 73.1808 26.436 73.4768 26.692C73.7808 26.948 74.1888 27.076 74.7008 27.076C75.1088 27.076 75.4368 27 75.6848 26.848C75.9328 26.696 76.0568 26.488 76.0568 26.224C76.0568 26.016 75.9808 25.848 75.8288 25.72C75.6768 25.592 75.4728 25.492 75.2168 25.42C74.9688 25.348 74.6928 25.284 74.3888 25.228C74.0928 25.164 73.7928 25.092 73.4888 25.012C73.1848 24.924 72.9048 24.812 72.6488 24.676C72.4008 24.532 72.2008 24.344 72.0488 24.112C71.8968 23.88 71.8208 23.584 71.8208 23.224C71.8208 22.832 71.9288 22.488 72.1448 22.192C72.3688 21.888 72.6848 21.652 73.0928 21.484C73.5008 21.316 73.9808 21.232 74.5328 21.232C75.3648 21.232 76.0368 21.428 76.5488 21.82C77.0608 22.204 77.3368 22.736 77.3768 23.416H76.0448C76.0208 23.056 75.8728 22.78 75.6008 22.588C75.3368 22.396 74.9808 22.3 74.5328 22.3C74.1248 22.3 73.8088 22.38 73.5848 22.54C73.3688 22.7 73.2608 22.904 73.2608 23.152C73.2608 23.36 73.3368 23.52 73.4888 23.632C73.6488 23.744 73.8528 23.832 74.1008 23.896C74.3488 23.96 74.6248 24.02 74.9288 24.076C75.2328 24.124 75.5328 24.188 75.8288 24.268C76.1328 24.348 76.4088 24.46 76.6568 24.604C76.9128 24.74 77.1168 24.928 77.2688 25.168C77.4288 25.408 77.5088 25.72 77.5088 26.104C77.5088 26.736 77.2528 27.236 76.7408 27.604C76.2368 27.964 75.5568 28.144 74.7008 28.144Z" fill="#222222"/>
<path d="M275.4 26.7019L274.692 25.9942L280 20.6865L285.308 25.9942L284.6 26.7019L280 22.1019L275.4 26.7019Z" fill="#222222"/>
<path d="M16.8807 67.5V60.2273H19.3381C19.9063 60.2273 20.3726 60.3243 20.7372 60.5185C21.1018 60.7102 21.3717 60.9742 21.5469 61.3104C21.7221 61.6465 21.8097 62.0289 21.8097 62.4574C21.8097 62.8859 21.7221 63.2659 21.5469 63.5973C21.3717 63.9287 21.103 64.1892 20.7408 64.3786C20.3786 64.5656 19.9157 64.6591 19.3523 64.6591H17.3636V63.8636H19.3239C19.7121 63.8636 20.0246 63.8068 20.2614 63.6932C20.5005 63.5795 20.6733 63.4186 20.7798 63.2102C20.8887 62.9995 20.9432 62.7486 20.9432 62.4574C20.9432 62.1662 20.8887 61.9117 20.7798 61.6939C20.6709 61.4761 20.4969 61.308 20.2578 61.1896C20.0187 61.0689 19.7027 61.0085 19.3097 61.0085H17.7614V67.5H16.8807ZM20.304 64.233L22.0938 67.5H21.071L19.3097 64.233H20.304ZM24.7686 67.6278C24.423 67.6278 24.1093 67.5627 23.8276 67.4325C23.5459 67.3 23.3221 67.1094 23.1564 66.8608C22.9907 66.6098 22.9078 66.3068 22.9078 65.9517C22.9078 65.6392 22.9694 65.3859 23.0925 65.1918C23.2156 64.9953 23.3801 64.8414 23.5861 64.7301C23.7921 64.6188 24.0194 64.536 24.2679 64.4815C24.5189 64.4247 24.771 64.3797 25.0243 64.3466C25.3558 64.304 25.6245 64.272 25.8304 64.2507C26.0388 64.227 26.1903 64.188 26.285 64.1335C26.382 64.0791 26.4306 63.9844 26.4306 63.8494V63.821C26.4306 63.4706 26.3347 63.1984 26.1429 63.0043C25.9535 62.8101 25.6659 62.7131 25.28 62.7131C24.8799 62.7131 24.5662 62.8007 24.339 62.9759C24.1117 63.151 23.9519 63.3381 23.8596 63.5369L23.0641 63.2528C23.2061 62.9214 23.3955 62.6634 23.6323 62.4787C23.8714 62.2917 24.1318 62.1615 24.4135 62.0881C24.6976 62.0123 24.977 61.9744 25.2516 61.9744C25.4268 61.9744 25.628 61.9957 25.8553 62.0384C26.0849 62.0786 26.3063 62.1626 26.5194 62.2905C26.7348 62.4183 26.9135 62.6113 27.0556 62.8693C27.1976 63.1274 27.2686 63.473 27.2686 63.9062V67.5H26.4306V66.7614H26.388C26.3311 66.8797 26.2364 67.0064 26.1039 67.1413C25.9713 67.2763 25.7949 67.3911 25.5748 67.4858C25.3546 67.5805 25.0859 67.6278 24.7686 67.6278ZM24.8965 66.875C25.2279 66.875 25.5073 66.8099 25.7346 66.6797C25.9642 66.5495 26.137 66.3814 26.253 66.1754C26.3714 65.9695 26.4306 65.7528 26.4306 65.5256V64.7585C26.3951 64.8011 26.3169 64.8402 26.1962 64.8757C26.0778 64.9089 25.9405 64.9384 25.7843 64.9645C25.6304 64.9882 25.4801 65.0095 25.3333 65.0284C25.1889 65.045 25.0717 65.0592 24.9817 65.071C24.7639 65.0994 24.5603 65.1456 24.3709 65.2095C24.1839 65.2711 24.0324 65.3646 23.9164 65.4901C23.8027 65.6132 23.7459 65.7812 23.7459 65.9943C23.7459 66.2855 23.8536 66.5057 24.0691 66.6548C24.2869 66.8016 24.5627 66.875 24.8965 66.875ZM29.1428 69.5455C29.0007 69.5455 28.8741 69.5336 28.7628 69.5099C28.6515 69.4886 28.5746 69.4673 28.532 69.446L28.745 68.7074C28.9486 68.7595 29.1286 68.7784 29.2848 68.7642C29.4411 68.75 29.5795 68.6802 29.7003 68.5547C29.8234 68.4316 29.9358 68.2315 30.0376 67.9545L30.1939 67.5284L28.1768 62.0455H29.0859L30.5916 66.392H30.6484L32.1541 62.0455H33.0632L30.7479 68.2955C30.6437 68.5772 30.5147 68.8104 30.3608 68.995C30.2069 69.1821 30.0282 69.3205 29.8246 69.4105C29.6233 69.5005 29.3961 69.5455 29.1428 69.5455ZM34.1694 67.5V62.0455H34.979V62.8977H35.0501C35.1637 62.6065 35.3472 62.3804 35.6005 62.2195C35.8538 62.0561 36.158 61.9744 36.5131 61.9744C36.873 61.9744 37.1725 62.0561 37.4116 62.2195C37.6531 62.3804 37.8413 62.6065 37.9762 62.8977H38.033C38.1727 62.616 38.3822 62.3923 38.6616 62.2266C38.9409 62.0585 39.2759 61.9744 39.6665 61.9744C40.1542 61.9744 40.5531 62.1271 40.8633 62.4325C41.1734 62.7356 41.3285 63.2079 41.3285 63.8494V67.5H40.4904V63.8494C40.4904 63.447 40.3803 63.1593 40.1602 62.9865C39.94 62.8137 39.6808 62.7273 39.3825 62.7273C38.9989 62.7273 38.7018 62.8433 38.4911 63.0753C38.2804 63.3049 38.1751 63.5961 38.1751 63.9489V67.5H37.3228V63.7642C37.3228 63.4541 37.2222 63.2043 37.021 63.0149C36.8197 62.8232 36.5605 62.7273 36.2433 62.7273C36.0254 62.7273 35.8219 62.7853 35.6325 62.9013C35.4454 63.0173 35.2939 63.1783 35.1779 63.3842C35.0643 63.5878 35.0075 63.8234 35.0075 64.0909V67.5H34.1694ZM45.0767 67.6136C44.5843 67.6136 44.1522 67.4964 43.7805 67.2621C43.4112 67.0277 43.1224 66.6998 42.9141 66.2784C42.7081 65.857 42.6051 65.3646 42.6051 64.8011C42.6051 64.233 42.7081 63.737 42.9141 63.3132C43.1224 62.8894 43.4112 62.5604 43.7805 62.326C44.1522 62.0916 44.5843 61.9744 45.0767 61.9744C45.5691 61.9744 46 62.0916 46.3693 62.326C46.741 62.5604 47.0298 62.8894 47.2358 63.3132C47.4441 63.737 47.5483 64.233 47.5483 64.8011C47.5483 65.3646 47.4441 65.857 47.2358 66.2784C47.0298 66.6998 46.741 67.0277 46.3693 67.2621C46 67.4964 45.5691 67.6136 45.0767 67.6136ZM45.0767 66.8608C45.4508 66.8608 45.7585 66.7649 46 66.5732C46.2415 66.3814 46.4202 66.1293 46.5362 65.8168C46.6522 65.5043 46.7102 65.1657 46.7102 64.8011C46.7102 64.4366 46.6522 64.0968 46.5362 63.782C46.4202 63.4671 46.2415 63.2126 46 63.0185C45.7585 62.8243 45.4508 62.7273 45.0767 62.7273C44.7027 62.7273 44.3949 62.8243 44.1534 63.0185C43.9119 63.2126 43.7332 63.4671 43.6172 63.782C43.5012 64.0968 43.4432 64.4366 43.4432 64.8011C43.4432 65.1657 43.5012 65.5043 43.6172 65.8168C43.7332 66.1293 43.9119 66.3814 44.1534 66.5732C44.3949 66.7649 44.7027 66.8608 45.0767 66.8608ZM49.6657 64.2188V67.5H48.8276V62.0455H49.6373V62.8977H49.7083C49.8361 62.6207 50.0302 62.3982 50.2907 62.2301C50.5511 62.0597 50.8873 61.9744 51.2992 61.9744C51.6685 61.9744 51.9917 62.0502 52.2686 62.2017C52.5456 62.3509 52.7611 62.5781 52.915 62.8835C53.0688 63.1866 53.1458 63.5701 53.1458 64.0341V67.5H52.3077V64.0909C52.3077 63.6624 52.1964 63.3286 51.9739 63.0895C51.7514 62.848 51.446 62.7273 51.0577 62.7273C50.7902 62.7273 50.5511 62.7853 50.3404 62.9013C50.132 63.0173 49.9675 63.1866 49.8468 63.4091C49.726 63.6316 49.6657 63.9015 49.6657 64.2188ZM56.7369 67.6136C56.2823 67.6136 55.881 67.4988 55.533 67.2692C55.185 67.0372 54.9128 66.7105 54.7163 66.2891C54.5198 65.8653 54.4215 65.3646 54.4215 64.7869C54.4215 64.214 54.5198 63.7169 54.7163 63.2955C54.9128 62.8741 55.1862 62.5485 55.5366 62.3189C55.887 62.0893 56.2918 61.9744 56.7511 61.9744C57.1062 61.9744 57.3867 62.0336 57.5927 62.152C57.801 62.268 57.9596 62.4006 58.0685 62.5497C58.1798 62.6965 58.2662 62.8172 58.3278 62.9119H58.3988V60.2273H59.2369V67.5H58.4272V66.6619H58.3278C58.2662 66.7614 58.1786 66.8868 58.065 67.0384C57.9513 67.1875 57.7892 67.3213 57.5785 67.4396C57.3678 67.5556 57.0872 67.6136 56.7369 67.6136ZM56.8505 66.8608C57.1867 66.8608 57.4708 66.7732 57.7028 66.598C57.9348 66.4205 58.1112 66.1754 58.2319 65.8629C58.3526 65.5481 58.413 65.1847 58.413 64.7727C58.413 64.3655 58.3538 64.0092 58.2354 63.7038C58.1171 63.3961 57.9419 63.157 57.7099 62.9865C57.4779 62.8137 57.1914 62.7273 56.8505 62.7273C56.4954 62.7273 56.1995 62.8184 55.9627 63.0007C55.7283 63.1806 55.552 63.4257 55.4336 63.7358C55.3176 64.0436 55.2596 64.3892 55.2596 64.7727C55.2596 65.161 55.3188 65.5137 55.4371 65.831C55.5579 66.1458 55.7354 66.3968 55.9698 66.5838C56.2066 66.7685 56.5001 66.8608 56.8505 66.8608ZM63.1893 60.1278C63.4876 60.1302 63.7859 60.187 64.0842 60.2983C64.3825 60.4096 64.6547 60.5942 64.9009 60.8523C65.1471 61.108 65.3448 61.4571 65.494 61.8999C65.6431 62.3426 65.7177 62.8977 65.7177 63.5653C65.7177 64.2116 65.6561 64.7857 65.533 65.2876C65.4123 65.7872 65.2371 66.2086 65.0075 66.5518C64.7802 66.8951 64.5032 67.1555 64.1765 67.3331C63.8522 67.5107 63.4852 67.5994 63.0756 67.5994C62.6684 67.5994 62.305 67.5189 61.9854 67.358C61.6682 67.1946 61.4078 66.9685 61.2042 66.6797C61.003 66.3885 60.8739 66.0511 60.8171 65.6676H61.6836C61.7617 66.0014 61.9168 66.2772 62.1488 66.495C62.3832 66.7105 62.6921 66.8182 63.0756 66.8182C63.6367 66.8182 64.0794 66.5732 64.4038 66.0831C64.7305 65.593 64.8938 64.9006 64.8938 64.0057H64.837C64.7044 64.2045 64.547 64.3762 64.3647 64.5206C64.1824 64.665 63.98 64.7763 63.7575 64.8544C63.5349 64.9325 63.2982 64.9716 63.0472 64.9716C62.6306 64.9716 62.2482 64.8686 61.9002 64.6626C61.5546 64.4543 61.2776 64.169 61.0692 63.8068C60.8633 63.4422 60.7603 63.0256 60.7603 62.5568C60.7603 62.1117 60.8597 61.7045 61.0586 61.3352C61.2598 60.9635 61.5415 60.6676 61.9038 60.4474C62.2683 60.2273 62.6969 60.1207 63.1893 60.1278ZM63.1893 60.9091C62.891 60.9091 62.6223 60.9837 62.3832 61.1328C62.1464 61.2796 61.9582 61.4785 61.8185 61.7294C61.6812 61.978 61.6126 62.2538 61.6126 62.5568C61.6126 62.8598 61.6789 63.1357 61.8114 63.3842C61.9464 63.6304 62.1299 63.8269 62.3619 63.9737C62.5962 64.1181 62.8626 64.1903 63.1609 64.1903C63.3858 64.1903 63.5953 64.1465 63.7894 64.0589C63.9835 63.969 64.1528 63.8471 64.2972 63.6932C64.444 63.5369 64.5588 63.3606 64.6417 63.1641C64.7246 62.9652 64.766 62.758 64.766 62.5426C64.766 62.2585 64.6973 61.9922 64.56 61.7436C64.4251 61.495 64.238 61.2938 63.9989 61.1399C63.7622 60.986 63.4923 60.9091 63.1893 60.9091ZM67.1461 67.5L70.399 61.0653V61.0085H66.649V60.2273H71.3081V61.0511L68.0694 67.5H67.1461ZM74.8477 67.5994C74.3126 67.5994 73.8569 67.4538 73.4805 67.1626C73.104 66.8691 72.8164 66.4441 72.6175 65.8878C72.4187 65.3291 72.3192 64.6544 72.3192 63.8636C72.3192 63.0777 72.4187 62.4065 72.6175 61.8501C72.8188 61.2914 73.1076 60.8653 73.484 60.5717C73.8628 60.2758 74.3174 60.1278 74.8477 60.1278C75.378 60.1278 75.8313 60.2758 76.2077 60.5717C76.5865 60.8653 76.8754 61.2914 77.0742 61.8501C77.2754 62.4065 77.3761 63.0777 77.3761 63.8636C77.3761 64.6544 77.2766 65.3291 77.0778 65.8878C76.8789 66.4441 76.5913 66.8691 76.2148 67.1626C75.8384 67.4538 75.3827 67.5994 74.8477 67.5994ZM74.8477 66.8182C75.378 66.8182 75.7899 66.5625 76.0835 66.0511C76.377 65.5398 76.5238 64.8106 76.5238 63.8636C76.5238 63.2339 76.4563 62.6977 76.3214 62.255C76.1888 61.8123 75.997 61.4749 75.7461 61.2429C75.4975 61.0109 75.198 60.8949 74.8477 60.8949C74.3221 60.8949 73.9113 61.1541 73.6154 61.6726C73.3195 62.1887 73.1715 62.919 73.1715 63.8636C73.1715 64.4934 73.2378 65.0284 73.3704 65.4688C73.503 65.9091 73.6935 66.2441 73.9421 66.4737C74.1931 66.7034 74.4949 66.8182 74.8477 66.8182ZM81.0977 67.5994C80.5626 67.5994 80.1069 67.4538 79.7305 67.1626C79.354 66.8691 79.0664 66.4441 78.8675 65.8878C78.6687 65.3291 78.5692 64.6544 78.5692 63.8636C78.5692 63.0777 78.6687 62.4065 78.8675 61.8501C79.0688 61.2914 79.3576 60.8653 79.734 60.5717C80.1128 60.2758 80.5674 60.1278 81.0977 60.1278C81.628 60.1278 82.0813 60.2758 82.4577 60.5717C82.8365 60.8653 83.1254 61.2914 83.3242 61.8501C83.5254 62.4065 83.6261 63.0777 83.6261 63.8636C83.6261 64.6544 83.5266 65.3291 83.3278 65.8878C83.1289 66.4441 82.8413 66.8691 82.4648 67.1626C82.0884 67.4538 81.6327 67.5994 81.0977 67.5994ZM81.0977 66.8182C81.628 66.8182 82.0399 66.5625 82.3335 66.0511C82.627 65.5398 82.7738 64.8106 82.7738 63.8636C82.7738 63.2339 82.7063 62.6977 82.5714 62.255C82.4388 61.8123 82.247 61.4749 81.9961 61.2429C81.7475 61.0109 81.448 60.8949 81.0977 60.8949C80.5721 60.8949 80.1613 61.1541 79.8654 61.6726C79.5695 62.1887 79.4215 62.919 79.4215 63.8636C79.4215 64.4934 79.4878 65.0284 79.6204 65.4688C79.753 65.9091 79.9435 66.2441 80.1921 66.4737C80.4431 66.7034 80.7449 66.8182 81.0977 66.8182Z" fill="#222222"/>
<path d="M147.125 67.5994C146.59 67.5994 146.134 67.4538 145.758 67.1626C145.381 66.8691 145.094 66.4441 144.895 65.8878C144.696 65.3291 144.597 64.6544 144.597 63.8636C144.597 63.0777 144.696 62.4065 144.895 61.8501C145.096 61.2914 145.385 60.8653 145.761 60.5717C146.14 60.2758 146.595 60.1278 147.125 60.1278C147.655 60.1278 148.109 60.2758 148.485 60.5717C148.864 60.8653 149.153 61.2914 149.352 61.8501C149.553 62.4065 149.653 63.0777 149.653 63.8636C149.653 64.6544 149.554 65.3291 149.355 65.8878C149.156 66.4441 148.869 66.8691 148.492 67.1626C148.116 67.4538 147.66 67.5994 147.125 67.5994ZM147.125 66.8182C147.655 66.8182 148.067 66.5625 148.361 66.0511C148.654 65.5398 148.801 64.8106 148.801 63.8636C148.801 63.2339 148.734 62.6977 148.599 62.255C148.466 61.8123 148.274 61.4749 148.023 61.2429C147.775 61.0109 147.475 60.8949 147.125 60.8949C146.599 60.8949 146.189 61.1541 145.893 61.6726C145.597 62.1887 145.449 62.919 145.449 63.8636C145.449 64.4934 145.515 65.0284 145.648 65.4688C145.78 65.9091 145.971 66.2441 146.219 66.4737C146.47 66.7034 146.772 66.8182 147.125 66.8182ZM156.955 63.473V64.2543H153.773V63.473H156.955ZM163.784 60.2273V67.5H162.904V61.1506H162.861L161.085 62.3295V61.4347L162.904 60.2273H163.784Z" fill="#222222"/>
<path d="M276.2 65.5L280 61.7L283.8 65.5H276.2Z" fill="#222222"/>
<path d="M16.8807 99.5V92.2273H17.7614V98.7188H21.142V99.5H16.8807ZM24.608 99.6136C24.1155 99.6136 23.6835 99.4964 23.3118 99.2621C22.9425 99.0277 22.6536 98.6998 22.4453 98.2784C22.2393 97.857 22.1364 97.3646 22.1364 96.8011C22.1364 96.233 22.2393 95.737 22.4453 95.3132C22.6536 94.8894 22.9425 94.5604 23.3118 94.326C23.6835 94.0916 24.1155 93.9744 24.608 93.9744C25.1004 93.9744 25.5313 94.0916 25.9006 94.326C26.2723 94.5604 26.5611 94.8894 26.767 95.3132C26.9754 95.737 27.0795 96.233 27.0795 96.8011C27.0795 97.3646 26.9754 97.857 26.767 98.2784C26.5611 98.6998 26.2723 99.0277 25.9006 99.2621C25.5313 99.4964 25.1004 99.6136 24.608 99.6136ZM24.608 98.8608C24.982 98.8608 25.2898 98.7649 25.5312 98.5732C25.7727 98.3814 25.9515 98.1293 26.0675 97.8168C26.1835 97.5043 26.2415 97.1657 26.2415 96.8011C26.2415 96.4366 26.1835 96.0968 26.0675 95.782C25.9515 95.4671 25.7727 95.2126 25.5312 95.0185C25.2898 94.8243 24.982 94.7273 24.608 94.7273C24.2339 94.7273 23.9261 94.8243 23.6847 95.0185C23.4432 95.2126 23.2644 95.4671 23.1484 95.782C23.0324 96.0968 22.9744 96.4366 22.9744 96.8011C22.9744 97.1657 23.0324 97.5043 23.1484 97.8168C23.2644 98.1293 23.4432 98.3814 23.6847 98.5732C23.9261 98.7649 24.2339 98.8608 24.608 98.8608ZM29.964 99.6278C29.6183 99.6278 29.3046 99.5627 29.0229 99.4325C28.7412 99.3 28.5175 99.1094 28.3517 98.8608C28.186 98.6098 28.1032 98.3068 28.1032 97.9517C28.1032 97.6392 28.1647 97.3859 28.2878 97.1918C28.4109 96.9953 28.5755 96.8414 28.7814 96.7301C28.9874 96.6188 29.2147 96.536 29.4632 96.4815C29.7142 96.4247 29.9663 96.3797 30.2196 96.3466C30.5511 96.304 30.8198 96.272 31.0257 96.2507C31.2341 96.227 31.3856 96.188 31.4803 96.1335C31.5774 96.0791 31.6259 95.9844 31.6259 95.8494V95.821C31.6259 95.4706 31.53 95.1984 31.3382 95.0043C31.1489 94.8101 30.8612 94.7131 30.4753 94.7131C30.0752 94.7131 29.7615 94.8007 29.5343 94.9759C29.307 95.151 29.1472 95.3381 29.0549 95.5369L28.2594 95.2528C28.4015 94.9214 28.5908 94.6634 28.8276 94.4787C29.0667 94.2917 29.3271 94.1615 29.6088 94.0881C29.8929 94.0123 30.1723 93.9744 30.4469 93.9744C30.6221 93.9744 30.8233 93.9957 31.0506 94.0384C31.2802 94.0786 31.5016 94.1626 31.7147 94.2905C31.9301 94.4183 32.1088 94.6113 32.2509 94.8693C32.3929 95.1274 32.464 95.473 32.464 95.9062V99.5H31.6259V98.7614H31.5833C31.5265 98.8797 31.4318 99.0064 31.2992 99.1413C31.1666 99.2763 30.9902 99.3911 30.7701 99.4858C30.5499 99.5805 30.2812 99.6278 29.964 99.6278ZM30.0918 98.875C30.4232 98.875 30.7026 98.8099 30.9299 98.6797C31.1595 98.5495 31.3323 98.3814 31.4483 98.1754C31.5667 97.9695 31.6259 97.7528 31.6259 97.5256V96.7585C31.5904 96.8011 31.5123 96.8402 31.3915 96.8757C31.2731 96.9089 31.1358 96.9384 30.9796 96.9645C30.8257 96.9882 30.6754 97.0095 30.5286 97.0284C30.3842 97.045 30.267 97.0592 30.177 97.071C29.9592 97.0994 29.7556 97.1456 29.5662 97.2095C29.3792 97.2711 29.2277 97.3646 29.1117 97.4901C28.998 97.6132 28.9412 97.7812 28.9412 97.9943C28.9412 98.2855 29.0489 98.5057 29.2644 98.6548C29.4822 98.8016 29.758 98.875 30.0918 98.875ZM36.0533 99.6136C35.5987 99.6136 35.1974 99.4988 34.8494 99.2692C34.5014 99.0372 34.2292 98.7105 34.0327 98.2891C33.8362 97.8653 33.7379 97.3646 33.7379 96.7869C33.7379 96.214 33.8362 95.7169 34.0327 95.2955C34.2292 94.8741 34.5026 94.5485 34.853 94.3189C35.2034 94.0893 35.6082 93.9744 36.0675 93.9744C36.4226 93.9744 36.7031 94.0336 36.9091 94.152C37.1174 94.268 37.276 94.4006 37.3849 94.5497C37.4962 94.6965 37.5826 94.8172 37.6442 94.9119H37.7152V92.2273H38.5533V99.5H37.7436V98.6619H37.6442C37.5826 98.7614 37.495 98.8868 37.3814 99.0384C37.2678 99.1875 37.1056 99.3213 36.8949 99.4396C36.6842 99.5556 36.4036 99.6136 36.0533 99.6136ZM36.1669 98.8608C36.5031 98.8608 36.7872 98.7732 37.0192 98.598C37.2512 98.4205 37.4276 98.1754 37.5483 97.8629C37.669 97.5481 37.7294 97.1847 37.7294 96.7727C37.7294 96.3655 37.6702 96.0092 37.5518 95.7038C37.4335 95.3961 37.2583 95.157 37.0263 94.9865C36.7943 94.8137 36.5078 94.7273 36.1669 94.7273C35.8118 94.7273 35.5159 94.8184 35.2791 95.0007C35.0447 95.1806 34.8684 95.4257 34.75 95.7358C34.634 96.0436 34.576 96.3892 34.576 96.7727C34.576 97.161 34.6352 97.5137 34.7536 97.831C34.8743 98.1458 35.0518 98.3968 35.2862 98.5838C35.523 98.7685 35.8165 98.8608 36.1669 98.8608ZM45.3892 94.0455V94.7557H42.5625V94.0455H45.3892ZM43.3864 92.7386H44.2244V97.9375C44.2244 98.1742 44.2588 98.3518 44.3274 98.4702C44.3984 98.5862 44.4884 98.6643 44.5973 98.7045C44.7086 98.7424 44.8258 98.7614 44.9489 98.7614C45.0412 98.7614 45.117 98.7566 45.1761 98.7472C45.2353 98.7353 45.2827 98.7259 45.3182 98.7188L45.4886 99.4716C45.4318 99.4929 45.3525 99.5142 45.2507 99.5355C45.1489 99.5592 45.0199 99.571 44.8636 99.571C44.6269 99.571 44.3949 99.5201 44.1676 99.4183C43.9427 99.3165 43.7557 99.1615 43.6065 98.9531C43.4598 98.7448 43.3864 98.482 43.3864 98.1648V92.7386ZM46.6499 99.5V94.0455H47.4879V99.5H46.6499ZM47.076 93.1364C46.9126 93.1364 46.7718 93.0807 46.6534 92.9695C46.5374 92.8582 46.4794 92.7244 46.4794 92.5682C46.4794 92.4119 46.5374 92.2782 46.6534 92.1669C46.7718 92.0556 46.9126 92 47.076 92C47.2393 92 47.379 92.0556 47.495 92.1669C47.6134 92.2782 47.6726 92.4119 47.6726 92.5682C47.6726 92.7244 47.6134 92.8582 47.495 92.9695C47.379 93.0807 47.2393 93.1364 47.076 93.1364ZM49.0229 99.5V94.0455H49.8326V94.8977H49.9036C50.0172 94.6065 50.2007 94.3804 50.454 94.2195C50.7073 94.0561 51.0115 93.9744 51.3667 93.9744C51.7265 93.9744 52.026 94.0561 52.2651 94.2195C52.5066 94.3804 52.6948 94.6065 52.8297 94.8977H52.8865C53.0262 94.616 53.2357 94.3923 53.5151 94.2266C53.7944 94.0585 54.1294 93.9744 54.5201 93.9744C55.0078 93.9744 55.4067 94.1271 55.7168 94.4325C56.0269 94.7356 56.182 95.2079 56.182 95.8494V99.5H55.3439V95.8494C55.3439 95.447 55.2338 95.1593 55.0137 94.9865C54.7935 94.8137 54.5343 94.7273 54.236 94.7273C53.8525 94.7273 53.5553 94.8433 53.3446 95.0753C53.1339 95.3049 53.0286 95.5961 53.0286 95.9489V99.5H52.1763V95.7642C52.1763 95.4541 52.0757 95.2043 51.8745 95.0149C51.6732 94.8232 51.414 94.7273 51.0968 94.7273C50.879 94.7273 50.6754 94.7853 50.486 94.9013C50.2989 95.0173 50.1474 95.1783 50.0314 95.3842C49.9178 95.5878 49.861 95.8234 49.861 96.0909V99.5H49.0229ZM60.0012 99.6136C59.4757 99.6136 59.0223 99.4976 58.6412 99.2656C58.2624 99.0312 57.97 98.7045 57.764 98.2855C57.5604 97.8641 57.4586 97.3741 57.4586 96.8153C57.4586 96.2566 57.5604 95.7642 57.764 95.3381C57.97 94.9096 58.2565 94.5758 58.6234 94.3366C58.9927 94.0952 59.4236 93.9744 59.916 93.9744C60.2001 93.9744 60.4806 94.0218 60.7576 94.1165C61.0346 94.2112 61.2868 94.3651 61.514 94.5781C61.7413 94.7888 61.9224 95.0682 62.0574 95.4162C62.1923 95.7642 62.2598 96.1927 62.2598 96.7017V97.0568H58.0552V96.3324H61.4075C61.4075 96.0246 61.3459 95.75 61.2228 95.5085C61.1021 95.267 60.9293 95.0765 60.7044 94.9368C60.4818 94.7971 60.219 94.7273 59.916 94.7273C59.5822 94.7273 59.2934 94.8101 59.0495 94.9759C58.8081 95.1392 58.6222 95.3523 58.492 95.6151C58.3618 95.8778 58.2967 96.1596 58.2967 96.4602V96.9432C58.2967 97.3551 58.3677 97.7043 58.5098 97.9908C58.6542 98.2749 58.8542 98.4915 59.1099 98.6406C59.3656 98.7874 59.6627 98.8608 60.0012 98.8608C60.2214 98.8608 60.4203 98.83 60.5978 98.7685C60.7778 98.7045 60.9328 98.6098 61.063 98.4844C61.1932 98.3565 61.2939 98.1979 61.3649 98.0085L62.1745 98.2358C62.0893 98.5104 61.9461 98.7519 61.7449 98.9602C61.5436 99.1662 61.295 99.3272 60.9991 99.4432C60.7032 99.5568 60.3706 99.6136 60.0012 99.6136Z" fill="#222222"/>
<path d="M147.31 92.2273V99.5H146.429V93.1506H146.386L144.611 94.3295V93.4347L146.429 92.2273H147.31ZM151.674 99.5994C151.257 99.5994 150.882 99.5166 150.548 99.3509C150.214 99.1851 149.947 98.9579 149.746 98.669C149.545 98.3802 149.434 98.0511 149.415 97.6818H150.268C150.301 98.0109 150.45 98.2831 150.715 98.4986C150.983 98.7116 151.302 98.8182 151.674 98.8182C151.972 98.8182 152.237 98.7483 152.469 98.6087C152.704 98.469 152.887 98.2772 153.02 98.0334C153.155 97.7872 153.222 97.509 153.222 97.1989C153.222 96.8816 153.152 96.5987 153.013 96.3501C152.875 96.0992 152.686 95.9015 152.445 95.7571C152.203 95.6127 151.927 95.5393 151.617 95.5369C151.395 95.5346 151.166 95.5689 150.932 95.6399C150.697 95.7086 150.504 95.7973 150.353 95.9062L149.529 95.8068L149.969 92.2273H153.748V93.0085H150.708L150.452 95.1534H150.495C150.644 95.035 150.831 94.9368 151.056 94.8587C151.281 94.7805 151.515 94.7415 151.759 94.7415C152.204 94.7415 152.601 94.848 152.949 95.0611C153.299 95.2718 153.574 95.5606 153.773 95.9276C153.974 96.2945 154.075 96.7135 154.075 97.1847C154.075 97.6487 153.97 98.063 153.762 98.4276C153.556 98.7898 153.272 99.0762 152.91 99.2869C152.548 99.4953 152.136 99.5994 151.674 99.5994ZM162.176 95.267L161.423 95.4801C161.375 95.3546 161.306 95.2327 161.213 95.1143C161.123 94.9936 161 94.8942 160.844 94.8161C160.688 94.7379 160.488 94.6989 160.244 94.6989C159.91 94.6989 159.632 94.7758 159.409 94.9297C159.189 95.0812 159.079 95.2741 159.079 95.5085C159.079 95.7169 159.155 95.8814 159.306 96.0021C159.458 96.1229 159.695 96.2235 160.017 96.304L160.826 96.5028C161.314 96.6212 161.677 96.8023 161.916 97.0462C162.155 97.2876 162.275 97.599 162.275 97.9801C162.275 98.2926 162.185 98.572 162.005 98.8182C161.828 99.0644 161.579 99.2585 161.259 99.4006C160.94 99.5426 160.568 99.6136 160.144 99.6136C159.588 99.6136 159.128 99.4929 158.763 99.2514C158.398 99.0099 158.168 98.6572 158.07 98.1932L158.866 97.9943C158.942 98.2879 159.085 98.508 159.296 98.6548C159.509 98.8016 159.787 98.875 160.13 98.875C160.521 98.875 160.831 98.7921 161.061 98.6264C161.293 98.4583 161.409 98.2571 161.409 98.0227C161.409 97.8333 161.342 97.6747 161.21 97.5469C161.077 97.4167 160.874 97.3196 160.599 97.2557L159.69 97.0426C159.19 96.9242 158.823 96.7408 158.589 96.4922C158.357 96.2412 158.241 95.9276 158.241 95.5511C158.241 95.2434 158.327 94.9711 158.5 94.7344C158.675 94.4976 158.913 94.3118 159.214 94.1768C159.517 94.0419 159.86 93.9744 160.244 93.9744C160.784 93.9744 161.207 94.0928 161.515 94.3295C161.825 94.5663 162.045 94.8788 162.176 95.267ZM165.824 99.6136C165.298 99.6136 164.845 99.4976 164.463 99.2656C164.085 99.0312 163.792 98.7045 163.586 98.2855C163.383 97.8641 163.281 97.3741 163.281 96.8153C163.281 96.2566 163.383 95.7642 163.586 95.3381C163.792 94.9096 164.079 94.5758 164.446 94.3366C164.815 94.0952 165.246 93.9744 165.738 93.9744C166.022 93.9744 166.303 94.0218 166.58 94.1165C166.857 94.2112 167.109 94.3651 167.336 94.5781C167.564 94.7888 167.745 95.0682 167.88 95.4162C168.015 95.7642 168.082 96.1927 168.082 96.7017V97.0568H163.877V96.3324H167.23C167.23 96.0246 167.168 95.75 167.045 95.5085C166.924 95.267 166.752 95.0765 166.527 94.9368C166.304 94.7971 166.041 94.7273 165.738 94.7273C165.404 94.7273 165.116 94.8101 164.872 94.9759C164.63 95.1392 164.444 95.3523 164.314 95.6151C164.184 95.8778 164.119 96.1596 164.119 96.4602V96.9432C164.119 97.3551 164.19 97.7043 164.332 97.9908C164.476 98.2749 164.676 98.4915 164.932 98.6406C165.188 98.7874 165.485 98.8608 165.824 98.8608C166.044 98.8608 166.243 98.83 166.42 98.7685C166.6 98.7045 166.755 98.6098 166.885 98.4844C167.016 98.3565 167.116 98.1979 167.187 98.0085L167.997 98.2358C167.912 98.5104 167.768 98.7519 167.567 98.9602C167.366 99.1662 167.117 99.3272 166.821 99.4432C166.525 99.5568 166.193 99.6136 165.824 99.6136ZM171.573 99.6136C171.061 99.6136 170.621 99.4929 170.252 99.2514C169.882 99.0099 169.598 98.6773 169.4 98.2536C169.201 97.8298 169.101 97.3456 169.101 96.8011C169.101 96.2472 169.203 95.7583 169.407 95.3345C169.613 94.9084 169.899 94.5758 170.266 94.3366C170.635 94.0952 171.066 93.9744 171.559 93.9744C171.942 93.9744 172.288 94.0455 172.596 94.1875C172.903 94.3295 173.155 94.5284 173.352 94.7841C173.548 95.0398 173.67 95.3381 173.718 95.679H172.88C172.816 95.4304 172.674 95.2102 172.453 95.0185C172.236 94.8243 171.942 94.7273 171.573 94.7273C171.246 94.7273 170.96 94.8125 170.713 94.983C170.47 95.151 170.279 95.389 170.142 95.6967C170.007 96.0021 169.939 96.3608 169.939 96.7727C169.939 97.1941 170.006 97.5611 170.138 97.8736C170.273 98.1861 170.462 98.4287 170.706 98.6016C170.953 98.7744 171.241 98.8608 171.573 98.8608C171.791 98.8608 171.988 98.8229 172.166 98.7472C172.343 98.6714 172.494 98.5625 172.617 98.4205C172.74 98.2784 172.828 98.108 172.88 97.9091H173.718C173.67 98.2311 173.553 98.5211 173.366 98.7791C173.181 99.0348 172.936 99.2384 172.631 99.3899C172.328 99.5391 171.975 99.6136 171.573 99.6136Z" fill="#222222"/>
<path d="M21.6534 124.227H22.5341V129.043C22.5341 129.54 22.4169 129.984 22.1825 130.374C21.9505 130.763 21.6226 131.069 21.1989 131.294C20.7751 131.517 20.2779 131.628 19.7074 131.628C19.1368 131.628 18.6397 131.517 18.2159 131.294C17.7921 131.069 17.4631 130.763 17.2287 130.374C16.9967 129.984 16.8807 129.54 16.8807 129.043V124.227H17.7614V128.972C17.7614 129.327 17.8395 129.643 17.9957 129.92C18.152 130.194 18.3745 130.411 18.6634 130.57C18.9545 130.726 19.3026 130.804 19.7074 130.804C20.1122 130.804 20.4602 130.726 20.7514 130.57C21.0426 130.411 21.2652 130.194 21.419 129.92C21.5753 129.643 21.6534 129.327 21.6534 128.972V124.227ZM25.0172 128.219V131.5H24.1792V126.045H24.9888V126.898H25.0598C25.1877 126.621 25.3818 126.398 25.6422 126.23C25.9026 126.06 26.2388 125.974 26.6507 125.974C27.0201 125.974 27.3432 126.05 27.6202 126.202C27.8972 126.351 28.1126 126.578 28.2665 126.884C28.4204 127.187 28.4973 127.57 28.4973 128.034V131.5H27.6593V128.091C27.6593 127.662 27.548 127.329 27.3255 127.089C27.1029 126.848 26.7975 126.727 26.4093 126.727C26.1417 126.727 25.9026 126.785 25.6919 126.901C25.4836 127.017 25.3191 127.187 25.1983 127.409C25.0776 127.632 25.0172 127.902 25.0172 128.219ZM30.8668 124.227V131.5H30.0288V124.227H30.8668ZM34.6177 131.614C34.1253 131.614 33.6932 131.496 33.3216 131.262C32.9522 131.028 32.6634 130.7 32.4551 130.278C32.2491 129.857 32.1461 129.365 32.1461 128.801C32.1461 128.233 32.2491 127.737 32.4551 127.313C32.6634 126.889 32.9522 126.56 33.3216 126.326C33.6932 126.092 34.1253 125.974 34.6177 125.974C35.1101 125.974 35.541 126.092 35.9103 126.326C36.282 126.56 36.5708 126.889 36.7768 127.313C36.9851 127.737 37.0893 128.233 37.0893 128.801C37.0893 129.365 36.9851 129.857 36.7768 130.278C36.5708 130.7 36.282 131.028 35.9103 131.262C35.541 131.496 35.1101 131.614 34.6177 131.614ZM34.6177 130.861C34.9918 130.861 35.2995 130.765 35.541 130.573C35.7825 130.381 35.9612 130.129 36.0772 129.817C36.1932 129.504 36.2512 129.166 36.2512 128.801C36.2512 128.437 36.1932 128.097 36.0772 127.782C35.9612 127.467 35.7825 127.213 35.541 127.018C35.2995 126.824 34.9918 126.727 34.6177 126.727C34.2437 126.727 33.9359 126.824 33.6944 127.018C33.4529 127.213 33.2742 127.467 33.1582 127.782C33.0422 128.097 32.9842 128.437 32.9842 128.801C32.9842 129.166 33.0422 129.504 33.1582 129.817C33.2742 130.129 33.4529 130.381 33.6944 130.573C33.9359 130.765 34.2437 130.861 34.6177 130.861ZM39.9737 131.628C39.6281 131.628 39.3144 131.563 39.0327 131.433C38.7509 131.3 38.5272 131.109 38.3615 130.861C38.1958 130.61 38.1129 130.307 38.1129 129.952C38.1129 129.639 38.1745 129.386 38.2976 129.192C38.4207 128.995 38.5852 128.841 38.7912 128.73C38.9972 128.619 39.2244 128.536 39.473 128.482C39.724 128.425 39.9761 128.38 40.2294 128.347C40.5608 128.304 40.8295 128.272 41.0355 128.251C41.2438 128.227 41.3954 128.188 41.4901 128.134C41.5871 128.079 41.6357 127.984 41.6357 127.849V127.821C41.6357 127.471 41.5398 127.198 41.348 127.004C41.1586 126.81 40.871 126.713 40.4851 126.713C40.085 126.713 39.7713 126.801 39.544 126.976C39.3168 127.151 39.157 127.338 39.0646 127.537L38.2692 127.253C38.4112 126.921 38.6006 126.663 38.8374 126.479C39.0765 126.292 39.3369 126.161 39.6186 126.088C39.9027 126.012 40.1821 125.974 40.4567 125.974C40.6319 125.974 40.8331 125.996 41.0604 126.038C41.29 126.079 41.5114 126.163 41.7244 126.29C41.9399 126.418 42.1186 126.611 42.2607 126.869C42.4027 127.127 42.4737 127.473 42.4737 127.906V131.5H41.6357V130.761H41.593C41.5362 130.88 41.4415 131.006 41.3089 131.141C41.1764 131.276 41 131.391 40.7798 131.486C40.5597 131.58 40.291 131.628 39.9737 131.628ZM40.1016 130.875C40.433 130.875 40.7124 130.81 40.9396 130.68C41.1693 130.549 41.3421 130.381 41.4581 130.175C41.5765 129.969 41.6357 129.753 41.6357 129.526V128.759C41.6001 128.801 41.522 128.84 41.4013 128.876C41.2829 128.909 41.1456 128.938 40.9893 128.964C40.8355 128.988 40.6851 129.009 40.5384 129.028C40.3939 129.045 40.2768 129.059 40.1868 129.071C39.969 129.099 39.7654 129.146 39.576 129.21C39.389 129.271 39.2375 129.365 39.1214 129.49C39.0078 129.613 38.951 129.781 38.951 129.994C38.951 130.286 39.0587 130.506 39.2741 130.655C39.492 130.802 39.7678 130.875 40.1016 130.875ZM46.063 131.614C45.6085 131.614 45.2072 131.499 44.8592 131.269C44.5112 131.037 44.2389 130.71 44.0424 130.289C43.8459 129.865 43.7477 129.365 43.7477 128.787C43.7477 128.214 43.8459 127.717 44.0424 127.295C44.2389 126.874 44.5124 126.549 44.8627 126.319C45.2131 126.089 45.618 125.974 46.0772 125.974C46.4324 125.974 46.7129 126.034 46.9189 126.152C47.1272 126.268 47.2858 126.401 47.3947 126.55C47.506 126.696 47.5924 126.817 47.6539 126.912H47.725V124.227H48.563V131.5H47.7534V130.662H47.6539C47.5924 130.761 47.5048 130.887 47.3912 131.038C47.2775 131.187 47.1154 131.321 46.9047 131.44C46.694 131.556 46.4134 131.614 46.063 131.614ZM46.1767 130.861C46.5128 130.861 46.7969 130.773 47.0289 130.598C47.2609 130.42 47.4373 130.175 47.5581 129.863C47.6788 129.548 47.7392 129.185 47.7392 128.773C47.7392 128.366 47.68 128.009 47.5616 127.704C47.4432 127.396 47.2681 127.157 47.036 126.987C46.804 126.814 46.5176 126.727 46.1767 126.727C45.8216 126.727 45.5256 126.818 45.2889 127.001C45.0545 127.181 44.8781 127.426 44.7598 127.736C44.6438 128.044 44.5858 128.389 44.5858 128.773C44.5858 129.161 44.6449 129.514 44.7633 129.831C44.8841 130.146 45.0616 130.397 45.296 130.584C45.5327 130.768 45.8263 130.861 46.1767 130.861ZM55.399 126.045V126.756H52.5723V126.045H55.399ZM53.3961 124.739H54.2342V129.938C54.2342 130.174 54.2685 130.352 54.3372 130.47C54.4082 130.586 54.4982 130.664 54.6071 130.705C54.7183 130.742 54.8355 130.761 54.9586 130.761C55.051 130.761 55.1267 130.757 55.1859 130.747C55.2451 130.735 55.2924 130.726 55.3279 130.719L55.4984 131.472C55.4416 131.493 55.3623 131.514 55.2605 131.536C55.1587 131.559 55.0297 131.571 54.8734 131.571C54.6367 131.571 54.4047 131.52 54.1774 131.418C53.9525 131.317 53.7654 131.161 53.6163 130.953C53.4695 130.745 53.3961 130.482 53.3961 130.165V124.739ZM56.6596 131.5V126.045H57.4977V131.5H56.6596ZM57.0858 125.136C56.9224 125.136 56.7815 125.081 56.6632 124.969C56.5472 124.858 56.4892 124.724 56.4892 124.568C56.4892 124.412 56.5472 124.278 56.6632 124.167C56.7815 124.056 56.9224 124 57.0858 124C57.2491 124 57.3888 124.056 57.5048 124.167C57.6232 124.278 57.6824 124.412 57.6824 124.568C57.6824 124.724 57.6232 124.858 57.5048 124.969C57.3888 125.081 57.2491 125.136 57.0858 125.136ZM59.0327 131.5V126.045H59.8423V126.898H59.9134C60.027 126.607 60.2105 126.38 60.4638 126.219C60.7171 126.056 61.0213 125.974 61.3764 125.974C61.7363 125.974 62.0357 126.056 62.2749 126.219C62.5163 126.38 62.7045 126.607 62.8395 126.898H62.8963C63.036 126.616 63.2455 126.392 63.5249 126.227C63.8042 126.058 64.1392 125.974 64.5298 125.974C65.0175 125.974 65.4164 126.127 65.7266 126.433C66.0367 126.736 66.1918 127.208 66.1918 127.849V131.5H65.3537V127.849C65.3537 127.447 65.2436 127.159 65.0234 126.987C64.8033 126.814 64.544 126.727 64.2457 126.727C63.8622 126.727 63.5651 126.843 63.3544 127.075C63.1437 127.305 63.0384 127.596 63.0384 127.949V131.5H62.1861V127.764C62.1861 127.454 62.0855 127.204 61.8842 127.015C61.683 126.823 61.4238 126.727 61.1065 126.727C60.8887 126.727 60.6851 126.785 60.4957 126.901C60.3087 127.017 60.1572 127.178 60.0412 127.384C59.9276 127.588 59.8707 127.823 59.8707 128.091V131.5H59.0327ZM70.011 131.614C69.4854 131.614 69.0321 131.498 68.6509 131.266C68.2721 131.031 67.9798 130.705 67.7738 130.286C67.5702 129.864 67.4684 129.374 67.4684 128.815C67.4684 128.257 67.5702 127.764 67.7738 127.338C67.9798 126.91 68.2662 126.576 68.6332 126.337C69.0025 126.095 69.4334 125.974 69.9258 125.974C70.2099 125.974 70.4904 126.022 70.7674 126.116C71.0444 126.211 71.2965 126.365 71.5238 126.578C71.7511 126.789 71.9322 127.068 72.0671 127.416C72.2021 127.764 72.2695 128.193 72.2695 128.702V129.057H68.065V128.332H71.4173C71.4173 128.025 71.3557 127.75 71.2326 127.509C71.1119 127.267 70.939 127.076 70.7141 126.937C70.4916 126.797 70.2288 126.727 69.9258 126.727C69.592 126.727 69.3031 126.81 69.0593 126.976C68.8178 127.139 68.632 127.352 68.5018 127.615C68.3716 127.878 68.3065 128.16 68.3065 128.46V128.943C68.3065 129.355 68.3775 129.704 68.5195 129.991C68.6639 130.275 68.864 130.491 69.1197 130.641C69.3754 130.787 69.6725 130.861 70.011 130.861C70.2312 130.861 70.43 130.83 70.6076 130.768C70.7875 130.705 70.9426 130.61 71.0728 130.484C71.203 130.357 71.3036 130.198 71.3746 130.009L72.1843 130.236C72.0991 130.51 71.9558 130.752 71.7546 130.96C71.5534 131.166 71.3048 131.327 71.0089 131.443C70.7129 131.557 70.3803 131.614 70.011 131.614Z" fill="#222222"/>
<path d="M147.31 124.227V131.5H146.429V125.151H146.386L144.611 126.33V125.435L146.429 124.227H147.31ZM151.674 131.599C151.257 131.599 150.882 131.517 150.548 131.351C150.214 131.185 149.947 130.958 149.746 130.669C149.545 130.38 149.434 130.051 149.415 129.682H150.268C150.301 130.011 150.45 130.283 150.715 130.499C150.983 130.712 151.302 130.818 151.674 130.818C151.972 130.818 152.237 130.748 152.469 130.609C152.704 130.469 152.887 130.277 153.02 130.033C153.155 129.787 153.222 129.509 153.222 129.199C153.222 128.882 153.152 128.599 153.013 128.35C152.875 128.099 152.686 127.902 152.445 127.757C152.203 127.613 151.927 127.539 151.617 127.537C151.395 127.535 151.166 127.569 150.932 127.64C150.697 127.709 150.504 127.797 150.353 127.906L149.529 127.807L149.969 124.227H153.748V125.009H150.708L150.452 127.153H150.495C150.644 127.035 150.831 126.937 151.056 126.859C151.281 126.781 151.515 126.741 151.759 126.741C152.204 126.741 152.601 126.848 152.949 127.061C153.299 127.272 153.574 127.561 153.773 127.928C153.974 128.295 154.075 128.714 154.075 129.185C154.075 129.649 153.97 130.063 153.762 130.428C153.556 130.79 153.272 131.076 152.91 131.287C152.548 131.495 152.136 131.599 151.674 131.599ZM162.176 127.267L161.423 127.48C161.375 127.355 161.306 127.233 161.213 127.114C161.123 126.994 161 126.894 160.844 126.816C160.688 126.738 160.488 126.699 160.244 126.699C159.91 126.699 159.632 126.776 159.409 126.93C159.189 127.081 159.079 127.274 159.079 127.509C159.079 127.717 159.155 127.881 159.306 128.002C159.458 128.123 159.695 128.223 160.017 128.304L160.826 128.503C161.314 128.621 161.677 128.802 161.916 129.046C162.155 129.288 162.275 129.599 162.275 129.98C162.275 130.293 162.185 130.572 162.005 130.818C161.828 131.064 161.579 131.259 161.259 131.401C160.94 131.543 160.568 131.614 160.144 131.614C159.588 131.614 159.128 131.493 158.763 131.251C158.398 131.01 158.168 130.657 158.07 130.193L158.866 129.994C158.942 130.288 159.085 130.508 159.296 130.655C159.509 130.802 159.787 130.875 160.13 130.875C160.521 130.875 160.831 130.792 161.061 130.626C161.293 130.458 161.409 130.257 161.409 130.023C161.409 129.833 161.342 129.675 161.21 129.547C161.077 129.417 160.874 129.32 160.599 129.256L159.69 129.043C159.19 128.924 158.823 128.741 158.589 128.492C158.357 128.241 158.241 127.928 158.241 127.551C158.241 127.243 158.327 126.971 158.5 126.734C158.675 126.498 158.913 126.312 159.214 126.177C159.517 126.042 159.86 125.974 160.244 125.974C160.784 125.974 161.207 126.093 161.515 126.33C161.825 126.566 162.045 126.879 162.176 127.267ZM165.824 131.614C165.298 131.614 164.845 131.498 164.463 131.266C164.085 131.031 163.792 130.705 163.586 130.286C163.383 129.864 163.281 129.374 163.281 128.815C163.281 128.257 163.383 127.764 163.586 127.338C163.792 126.91 164.079 126.576 164.446 126.337C164.815 126.095 165.246 125.974 165.738 125.974C166.022 125.974 166.303 126.022 166.58 126.116C166.857 126.211 167.109 126.365 167.336 126.578C167.564 126.789 167.745 127.068 167.88 127.416C168.015 127.764 168.082 128.193 168.082 128.702V129.057H163.877V128.332H167.23C167.23 128.025 167.168 127.75 167.045 127.509C166.924 127.267 166.752 127.076 166.527 126.937C166.304 126.797 166.041 126.727 165.738 126.727C165.404 126.727 165.116 126.81 164.872 126.976C164.63 127.139 164.444 127.352 164.314 127.615C164.184 127.878 164.119 128.16 164.119 128.46V128.943C164.119 129.355 164.19 129.704 164.332 129.991C164.476 130.275 164.676 130.491 164.932 130.641C165.188 130.787 165.485 130.861 165.824 130.861C166.044 130.861 166.243 130.83 166.42 130.768C166.6 130.705 166.755 130.61 166.885 130.484C167.016 130.357 167.116 130.198 167.187 130.009L167.997 130.236C167.912 130.51 167.768 130.752 167.567 130.96C167.366 131.166 167.117 131.327 166.821 131.443C166.525 131.557 166.193 131.614 165.824 131.614ZM171.573 131.614C171.061 131.614 170.621 131.493 170.252 131.251C169.882 131.01 169.598 130.677 169.4 130.254C169.201 129.83 169.101 129.346 169.101 128.801C169.101 128.247 169.203 127.758 169.407 127.335C169.613 126.908 169.899 126.576 170.266 126.337C170.635 126.095 171.066 125.974 171.559 125.974C171.942 125.974 172.288 126.045 172.596 126.188C172.903 126.33 173.155 126.528 173.352 126.784C173.548 127.04 173.67 127.338 173.718 127.679H172.88C172.816 127.43 172.674 127.21 172.453 127.018C172.236 126.824 171.942 126.727 171.573 126.727C171.246 126.727 170.96 126.812 170.713 126.983C170.47 127.151 170.279 127.389 170.142 127.697C170.007 128.002 169.939 128.361 169.939 128.773C169.939 129.194 170.006 129.561 170.138 129.874C170.273 130.186 170.462 130.429 170.706 130.602C170.953 130.774 171.241 130.861 171.573 130.861C171.791 130.861 171.988 130.823 172.166 130.747C172.343 130.671 172.494 130.562 172.617 130.42C172.74 130.278 172.828 130.108 172.88 129.909H173.718C173.67 130.231 173.553 130.521 173.366 130.779C173.181 131.035 172.936 131.238 172.631 131.39C172.328 131.539 171.975 131.614 171.573 131.614Z" fill="#222222"/>
<path d="M22.733 174.5H21.8523C21.8002 174.247 21.709 174.024 21.5788 173.832C21.451 173.641 21.2947 173.48 21.1101 173.349C20.9278 173.217 20.7254 173.117 20.5028 173.051C20.2803 172.985 20.0483 172.952 19.8068 172.952C19.3665 172.952 18.9676 173.063 18.6101 173.286C18.255 173.508 17.9721 173.836 17.7614 174.269C17.553 174.702 17.4489 175.234 17.4489 175.864C17.4489 176.493 17.553 177.025 17.7614 177.458C17.9721 177.891 18.255 178.219 18.6101 178.442C18.9676 178.664 19.3665 178.776 19.8068 178.776C20.0483 178.776 20.2803 178.742 20.5028 178.676C20.7254 178.61 20.9278 178.512 21.1101 178.381C21.2947 178.249 21.451 178.087 21.5788 177.895C21.709 177.701 21.8002 177.478 21.8523 177.227H22.733C22.6667 177.599 22.5459 177.932 22.3707 178.225C22.1955 178.519 21.9777 178.768 21.7173 178.974C21.4569 179.178 21.1645 179.333 20.8402 179.44C20.5182 179.546 20.1738 179.599 19.8068 179.599C19.1866 179.599 18.6349 179.448 18.152 179.145C17.669 178.842 17.2891 178.411 17.0121 177.852C16.7351 177.294 16.5966 176.631 16.5966 175.864C16.5966 175.097 16.7351 174.434 17.0121 173.875C17.2891 173.316 17.669 172.885 18.152 172.582C18.6349 172.279 19.1866 172.128 19.8068 172.128C20.1738 172.128 20.5182 172.181 20.8402 172.288C21.1645 172.394 21.4569 172.55 21.7173 172.756C21.9777 172.96 22.1955 173.209 22.3707 173.502C22.5459 173.793 22.6667 174.126 22.733 174.5ZM24.8805 176.219V179.5H24.0424V172.227H24.8805V174.898H24.9515C25.0794 174.616 25.2711 174.392 25.5268 174.227C25.7849 174.058 26.1281 173.974 26.5566 173.974C26.9283 173.974 27.2538 174.049 27.5332 174.198C27.8126 174.345 28.0292 174.571 28.1831 174.876C28.3393 175.179 28.4174 175.565 28.4174 176.034V179.5H27.5794V176.091C27.5794 175.658 27.4669 175.323 27.242 175.086C27.0195 174.847 26.7105 174.727 26.3152 174.727C26.0405 174.727 25.7943 174.785 25.5765 174.901C25.3611 175.017 25.1906 175.187 25.0652 175.409C24.9421 175.632 24.8805 175.902 24.8805 176.219ZM31.5558 179.628C31.2101 179.628 30.8964 179.563 30.6147 179.433C30.333 179.3 30.1093 179.109 29.9435 178.861C29.7778 178.61 29.695 178.307 29.695 177.952C29.695 177.639 29.7565 177.386 29.8796 177.192C30.0027 176.995 30.1673 176.841 30.3732 176.73C30.5792 176.619 30.8065 176.536 31.055 176.482C31.306 176.425 31.5581 176.38 31.8114 176.347C32.1429 176.304 32.4116 176.272 32.6175 176.251C32.8259 176.227 32.9774 176.188 33.0721 176.134C33.1692 176.079 33.2177 175.984 33.2177 175.849V175.821C33.2177 175.471 33.1218 175.198 32.93 175.004C32.7406 174.81 32.453 174.713 32.0671 174.713C31.667 174.713 31.3533 174.801 31.1261 174.976C30.8988 175.151 30.739 175.338 30.6467 175.537L29.8512 175.253C29.9933 174.921 30.1826 174.663 30.4194 174.479C30.6585 174.292 30.9189 174.161 31.2006 174.088C31.4847 174.012 31.7641 173.974 32.0387 173.974C32.2139 173.974 32.4151 173.996 32.6424 174.038C32.872 174.079 33.0934 174.163 33.3065 174.29C33.5219 174.418 33.7006 174.611 33.8427 174.869C33.9847 175.127 34.0558 175.473 34.0558 175.906V179.5H33.2177V178.761H33.1751C33.1183 178.88 33.0236 179.006 32.891 179.141C32.7584 179.276 32.582 179.391 32.3619 179.486C32.1417 179.58 31.873 179.628 31.5558 179.628ZM31.6836 178.875C32.015 178.875 32.2944 178.81 32.5217 178.68C32.7513 178.549 32.9241 178.381 33.0401 178.175C33.1585 177.969 33.2177 177.753 33.2177 177.526V176.759C33.1822 176.801 33.104 176.84 32.9833 176.876C32.8649 176.909 32.7276 176.938 32.5714 176.964C32.4175 176.988 32.2672 177.009 32.1204 177.028C31.976 177.045 31.8588 177.059 31.7688 177.071C31.551 177.099 31.3474 177.146 31.158 177.21C30.971 177.271 30.8195 177.365 30.7035 177.49C30.5898 177.613 30.533 177.781 30.533 177.994C30.533 178.286 30.6407 178.506 30.8562 178.655C31.074 178.802 31.3498 178.875 31.6836 178.875ZM35.5854 179.5V174.045H36.3951V174.869H36.4519C36.5513 174.599 36.7312 174.38 36.9917 174.212C37.2521 174.044 37.5456 173.96 37.8723 173.96C37.9339 173.96 38.0108 173.961 38.1032 173.964C38.1955 173.966 38.2653 173.97 38.3127 173.974V174.827C38.2843 174.82 38.2192 174.809 38.1174 174.795C38.0179 174.778 37.9126 174.77 37.8013 174.77C37.5362 174.77 37.2994 174.826 37.0911 174.937C36.8851 175.046 36.7218 175.197 36.601 175.391C36.4827 175.583 36.4235 175.802 36.4235 176.048V179.5H35.5854ZM39.3061 179.5V174.045H40.1158V174.898H40.1868C40.3004 174.607 40.4839 174.38 40.7372 174.219C40.9905 174.056 41.2947 173.974 41.6499 173.974C42.0097 173.974 42.3092 174.056 42.5483 174.219C42.7898 174.38 42.978 174.607 43.1129 174.898H43.1697C43.3094 174.616 43.5189 174.392 43.7983 174.227C44.0777 174.058 44.4126 173.974 44.8033 173.974C45.291 173.974 45.6899 174.127 46 174.433C46.3101 174.736 46.4652 175.208 46.4652 175.849V179.5H45.6271V175.849C45.6271 175.447 45.517 175.159 45.2969 174.987C45.0767 174.814 44.8175 174.727 44.5192 174.727C44.1357 174.727 43.8385 174.843 43.6278 175.075C43.4171 175.305 43.3118 175.596 43.3118 175.949V179.5H42.4595V175.764C42.4595 175.454 42.3589 175.204 42.1577 175.015C41.9564 174.823 41.6972 174.727 41.38 174.727C41.1622 174.727 40.9586 174.785 40.7692 174.901C40.5821 175.017 40.4306 175.178 40.3146 175.384C40.201 175.588 40.1442 175.823 40.1442 176.091V179.5H39.3061Z" fill="#222222"/>
<path d="M147.125 179.599C146.59 179.599 146.134 179.454 145.758 179.163C145.381 178.869 145.094 178.444 144.895 177.888C144.696 177.329 144.597 176.654 144.597 175.864C144.597 175.078 144.696 174.406 144.895 173.85C145.096 173.291 145.385 172.865 145.761 172.572C146.14 172.276 146.595 172.128 147.125 172.128C147.655 172.128 148.109 172.276 148.485 172.572C148.864 172.865 149.153 173.291 149.352 173.85C149.553 174.406 149.653 175.078 149.653 175.864C149.653 176.654 149.554 177.329 149.355 177.888C149.156 178.444 148.869 178.869 148.492 179.163C148.116 179.454 147.66 179.599 147.125 179.599ZM147.125 178.818C147.655 178.818 148.067 178.562 148.361 178.051C148.654 177.54 148.801 176.811 148.801 175.864C148.801 175.234 148.734 174.698 148.599 174.255C148.466 173.812 148.274 173.475 148.023 173.243C147.775 173.011 147.475 172.895 147.125 172.895C146.599 172.895 146.189 173.154 145.893 173.673C145.597 174.189 145.449 174.919 145.449 175.864C145.449 176.493 145.515 177.028 145.648 177.469C145.78 177.909 145.971 178.244 146.219 178.474C146.47 178.703 146.772 178.818 147.125 178.818ZM156.955 175.473V176.254H153.773V175.473H156.955ZM163.784 172.227V179.5H162.904V173.151H162.861L161.085 174.33V173.435L162.904 172.227H163.784Z" fill="#222222"/>
<path d="M280 178.308L276.192 174.5H283.808L280 178.308Z" fill="#222222"/>
<path d="M22.733 206.5H21.8523C21.8002 206.247 21.709 206.024 21.5788 205.832C21.451 205.641 21.2947 205.48 21.1101 205.349C20.9278 205.217 20.7254 205.117 20.5028 205.051C20.2803 204.985 20.0483 204.952 19.8068 204.952C19.3665 204.952 18.9676 205.063 18.6101 205.286C18.255 205.508 17.9721 205.836 17.7614 206.269C17.553 206.702 17.4489 207.234 17.4489 207.864C17.4489 208.493 17.553 209.025 17.7614 209.458C17.9721 209.891 18.255 210.219 18.6101 210.442C18.9676 210.664 19.3665 210.776 19.8068 210.776C20.0483 210.776 20.2803 210.742 20.5028 210.676C20.7254 210.61 20.9278 210.512 21.1101 210.381C21.2947 210.249 21.451 210.087 21.5788 209.895C21.709 209.701 21.8002 209.478 21.8523 209.227H22.733C22.6667 209.599 22.5459 209.932 22.3707 210.225C22.1955 210.519 21.9777 210.768 21.7173 210.974C21.4569 211.178 21.1645 211.333 20.8402 211.44C20.5182 211.546 20.1738 211.599 19.8068 211.599C19.1866 211.599 18.6349 211.448 18.152 211.145C17.669 210.842 17.2891 210.411 17.0121 209.852C16.7351 209.294 16.5966 208.631 16.5966 207.864C16.5966 207.097 16.7351 206.434 17.0121 205.875C17.2891 205.316 17.669 204.885 18.152 204.582C18.6349 204.279 19.1866 204.128 19.8068 204.128C20.1738 204.128 20.5182 204.181 20.8402 204.288C21.1645 204.394 21.4569 204.55 21.7173 204.756C21.9777 204.96 22.1955 205.209 22.3707 205.502C22.5459 205.793 22.6667 206.126 22.733 206.5ZM26.4004 211.5H24.1561V204.227H26.4998C27.2053 204.227 27.809 204.373 28.3109 204.664C28.8128 204.953 29.1975 205.368 29.465 205.911C29.7325 206.45 29.8663 207.097 29.8663 207.849C29.8663 208.607 29.7314 209.259 29.4615 209.806C29.1916 210.351 28.7986 210.77 28.2825 211.063C27.7664 211.354 27.139 211.5 26.4004 211.5ZM25.0368 210.719H26.3436C26.9449 210.719 27.4432 210.603 27.8386 210.371C28.234 210.139 28.5287 209.808 28.7228 209.38C28.917 208.951 29.014 208.441 29.014 207.849C29.014 207.262 28.9181 206.757 28.7264 206.333C28.5346 205.907 28.2482 205.58 27.867 205.353C27.4859 205.123 27.0112 205.009 26.443 205.009H25.0368V210.719ZM32.2243 204.227V211.5H31.3436V204.227H32.2243Z" fill="#222222"/>
<path d="M147.125 211.599C146.59 211.599 146.134 211.454 145.758 211.163C145.381 210.869 145.094 210.444 144.895 209.888C144.696 209.329 144.597 208.654 144.597 207.864C144.597 207.078 144.696 206.406 144.895 205.85C145.096 205.291 145.385 204.865 145.761 204.572C146.14 204.276 146.595 204.128 147.125 204.128C147.655 204.128 148.109 204.276 148.485 204.572C148.864 204.865 149.153 205.291 149.352 205.85C149.553 206.406 149.653 207.078 149.653 207.864C149.653 208.654 149.554 209.329 149.355 209.888C149.156 210.444 148.869 210.869 148.492 211.163C148.116 211.454 147.66 211.599 147.125 211.599ZM147.125 210.818C147.655 210.818 148.067 210.562 148.361 210.051C148.654 209.54 148.801 208.811 148.801 207.864C148.801 207.234 148.734 206.698 148.599 206.255C148.466 205.812 148.274 205.475 148.023 205.243C147.775 205.011 147.475 204.895 147.125 204.895C146.599 204.895 146.189 205.154 145.893 205.673C145.597 206.189 145.449 206.919 145.449 207.864C145.449 208.493 145.515 209.028 145.648 209.469C145.78 209.909 145.971 210.244 146.219 210.474C146.47 210.703 146.772 210.818 147.125 210.818ZM156.955 207.473V208.254H153.773V207.473H156.955ZM163.784 204.227V211.5H162.904V205.151H162.861L161.085 206.33V205.435L162.904 204.227H163.784Z" fill="#222222"/>
<path d="M280 210.308L276.192 206.5H283.808L280 210.308Z" fill="#222222"/>
</svg>
