<svg width="288" height="72" viewBox="0 0 288 72" fill="none" xmlns="http://www.w3.org/2000/svg">
<path d="M268.615 17C268.155 17 267.771 16.8458 267.463 16.5375C267.154 16.2292 267 15.8449 267 15.3846V8.61537C267 8.15512 267.154 7.77083 267.463 7.4625C267.771 7.15417 268.155 7 268.615 7H283.385C283.845 7 284.229 7.15417 284.538 7.4625C284.846 7.77083 285 8.15512 285 8.61537V15.3846C285 15.8449 284.846 16.2292 284.538 16.5375C284.229 16.8458 283.845 17 283.385 17H268.615ZM268.615 16H283.385C283.538 16 283.679 15.9359 283.808 15.8077C283.936 15.6795 284 15.5385 284 15.3846V8.61537C284 8.46154 283.936 8.32052 283.808 8.1923C283.679 8.0641 283.538 8 283.385 8H280.5V11.2308H279.5V8H276.5V11.2308H275.5V8H272.5V11.2308H271.5V8H268.615C268.462 8 268.321 8.0641 268.192 8.1923C268.064 8.32052 268 8.46154 268 8.61537V15.3846C268 15.5385 268.064 15.6795 268.192 15.8077C268.321 15.9359 268.462 16 268.615 16Z" fill="var(--colors-neutral-neutral-800)"/>
<path d="M0.880682 51.5V44.2273H3.33807C3.90625 44.2273 4.37263 44.3243 4.73722 44.5185C5.1018 44.7102 5.37169 44.9742 5.54688 45.3104C5.72206 45.6465 5.80966 46.0289 5.80966 46.4574C5.80966 46.8859 5.72206 47.2659 5.54688 47.5973C5.37169 47.9287 5.10298 48.1892 4.74077 48.3786C4.37855 48.5656 3.91572 48.6591 3.35227 48.6591H1.36364V47.8636H3.32386C3.71212 47.8636 4.02462 47.8068 4.26136 47.6932C4.50047 47.5795 4.6733 47.4186 4.77983 47.2102C4.88873 46.9995 4.94318 46.7486 4.94318 46.4574C4.94318 46.1662 4.88873 45.9117 4.77983 45.6939C4.67093 45.4761 4.49692 45.308 4.25781 45.1896C4.0187 45.0689 3.70265 45.0085 3.30966 45.0085H1.76136V51.5H0.880682ZM4.30398 48.233L6.09375 51.5H5.07102L3.30966 48.233H4.30398ZM9.39187 51.6136C8.8663 51.6136 8.41294 51.4976 8.03178 51.2656C7.65299 51.0312 7.36062 50.7045 7.15465 50.2855C6.95105 49.8641 6.84925 49.3741 6.84925 48.8153C6.84925 48.2566 6.95105 47.7642 7.15465 47.3381C7.36062 46.9096 7.64708 46.5758 8.01403 46.3366C8.38335 46.0952 8.81422 45.9744 9.30664 45.9744C9.59073 45.9744 9.87127 46.0218 10.1483 46.1165C10.4252 46.2112 10.6774 46.3651 10.9047 46.5781C11.1319 46.7888 11.313 47.0682 11.448 47.4162C11.5829 47.7642 11.6504 48.1927 11.6504 48.7017V49.0568H7.44585V48.3324H10.7981C10.7981 48.0246 10.7366 47.75 10.6135 47.5085C10.4927 47.267 10.3199 47.0765 10.095 46.9368C9.87246 46.7971 9.60967 46.7273 9.30664 46.7273C8.97283 46.7273 8.68401 46.8101 8.44016 46.9759C8.19869 47.1392 8.01284 47.3523 7.88263 47.6151C7.75243 47.8778 7.68732 48.1596 7.68732 48.4602V48.9432C7.68732 49.3551 7.75835 49.7043 7.90039 49.9908C8.0448 50.2749 8.24485 50.4915 8.50053 50.6406C8.75621 50.7874 9.05333 50.8608 9.39187 50.8608C9.61204 50.8608 9.8109 50.83 9.98846 50.7685C10.1684 50.7045 10.3234 50.6098 10.4537 50.4844C10.5839 50.3565 10.6845 50.1979 10.7555 50.0085L11.5652 50.2358C11.4799 50.5104 11.3367 50.7519 11.1355 50.9602C10.9342 51.1662 10.6857 51.3272 10.3897 51.4432C10.0938 51.5568 9.76119 51.6136 9.39187 51.6136ZM14.5304 51.6278C14.1847 51.6278 13.871 51.5627 13.5893 51.4325C13.3076 51.3 13.0839 51.1094 12.9181 50.8608C12.7524 50.6098 12.6696 50.3068 12.6696 49.9517C12.6696 49.6392 12.7311 49.3859 12.8542 49.1918C12.9773 48.9953 13.1419 48.8414 13.3478 48.7301C13.5538 48.6188 13.7811 48.536 14.0297 48.4815C14.2806 48.4247 14.5327 48.3797 14.786 48.3466C15.1175 48.304 15.3862 48.272 15.5922 48.2507C15.8005 48.227 15.952 48.188 16.0467 48.1335C16.1438 48.0791 16.1923 47.9844 16.1923 47.8494V47.821C16.1923 47.4706 16.0964 47.1984 15.9047 47.0043C15.7153 46.8101 15.4276 46.7131 15.0417 46.7131C14.6416 46.7131 14.3279 46.8007 14.1007 46.9759C13.8734 47.151 13.7136 47.3381 13.6213 47.5369L12.8258 47.2528C12.9679 46.9214 13.1573 46.6634 13.394 46.4787C13.6331 46.2917 13.8935 46.1615 14.1752 46.0881C14.4593 46.0123 14.7387 45.9744 15.0133 45.9744C15.1885 45.9744 15.3897 45.9957 15.617 46.0384C15.8467 46.0786 16.068 46.1626 16.2811 46.2905C16.4965 46.4183 16.6752 46.6113 16.8173 46.8693C16.9593 47.1274 17.0304 47.473 17.0304 47.9062V51.5H16.1923V50.7614H16.1497C16.0929 50.8797 15.9982 51.0064 15.8656 51.1413C15.733 51.2763 15.5566 51.3911 15.3365 51.4858C15.1163 51.5805 14.8476 51.6278 14.5304 51.6278ZM14.6582 50.875C14.9896 50.875 15.269 50.8099 15.4963 50.6797C15.7259 50.5495 15.8987 50.3814 16.0147 50.1754C16.1331 49.9695 16.1923 49.7528 16.1923 49.5256V48.7585C16.1568 48.8011 16.0787 48.8402 15.9579 48.8757C15.8395 48.9089 15.7022 48.9384 15.546 48.9645C15.3921 48.9882 15.2418 49.0095 15.095 49.0284C14.9506 49.045 14.8334 49.0592 14.7434 49.071C14.5256 49.0994 14.322 49.1456 14.1326 49.2095C13.9456 49.2711 13.7941 49.3646 13.6781 49.4901C13.5645 49.6132 13.5076 49.7812 13.5076 49.9943C13.5076 50.2855 13.6154 50.5057 13.8308 50.6548C14.0486 50.8016 14.3244 50.875 14.6582 50.875ZM19.3981 44.2273V51.5H18.56V44.2273H19.3981ZM25.8052 51.6136C25.3507 51.6136 24.9494 51.4988 24.6014 51.2692C24.2534 51.0372 23.9811 50.7105 23.7846 50.2891C23.5881 49.8653 23.4899 49.3646 23.4899 48.7869C23.4899 48.214 23.5881 47.7169 23.7846 47.2955C23.9811 46.8741 24.2546 46.5485 24.6049 46.3189C24.9553 46.0893 25.3601 45.9744 25.8194 45.9744C26.1745 45.9744 26.4551 46.0336 26.661 46.152C26.8694 46.268 27.028 46.4006 27.1369 46.5497C27.2482 46.6965 27.3346 46.8172 27.3961 46.9119H27.4672V44.2273H28.3052V51.5H27.4956V50.6619H27.3961C27.3346 50.7614 27.247 50.8868 27.1333 51.0384C27.0197 51.1875 26.8575 51.3213 26.6468 51.4396C26.4361 51.5556 26.1556 51.6136 25.8052 51.6136ZM25.9189 50.8608C26.255 50.8608 26.5391 50.7732 26.7711 50.598C27.0031 50.4205 27.1795 50.1754 27.3002 49.8629C27.421 49.5481 27.4814 49.1847 27.4814 48.7727C27.4814 48.3655 27.4222 48.0092 27.3038 47.7038C27.1854 47.3961 27.0102 47.157 26.7782 46.9865C26.5462 46.8137 26.2598 46.7273 25.9189 46.7273C25.5637 46.7273 25.2678 46.8184 25.0311 47.0007C24.7967 47.1806 24.6203 47.4257 24.502 47.7358C24.3859 48.0436 24.3279 48.3892 24.3279 48.7727C24.3279 49.161 24.3871 49.5137 24.5055 49.831C24.6262 50.1458 24.8038 50.3968 25.0382 50.5838C25.2749 50.7685 25.5685 50.8608 25.9189 50.8608ZM29.9565 51.5V46.0455H30.7946V51.5H29.9565ZM30.3826 45.1364C30.2193 45.1364 30.0784 45.0807 29.96 44.9695C29.844 44.8582 29.786 44.7244 29.786 44.5682C29.786 44.4119 29.844 44.2782 29.96 44.1669C30.0784 44.0556 30.2193 44 30.3826 44C30.546 44 30.6857 44.0556 30.8017 44.1669C30.92 44.2782 30.9792 44.4119 30.9792 44.5682C30.9792 44.7244 30.92 44.8582 30.8017 44.9695C30.6857 45.0807 30.546 45.1364 30.3826 45.1364ZM32.3295 51.5V46.0455H33.1392V46.8977H33.2102C33.3239 46.6065 33.5073 46.3804 33.7607 46.2195C34.014 46.0561 34.3182 45.9744 34.6733 45.9744C35.0331 45.9744 35.3326 46.0561 35.5717 46.2195C35.8132 46.3804 36.0014 46.6065 36.1364 46.8977H36.1932C36.3329 46.616 36.5424 46.3923 36.8217 46.2266C37.1011 46.0585 37.4361 45.9744 37.8267 45.9744C38.3144 45.9744 38.7133 46.1271 39.0234 46.4325C39.3336 46.7356 39.4886 47.2079 39.4886 47.8494V51.5H38.6506V47.8494C38.6506 47.447 38.5405 47.1593 38.3203 46.9865C38.1001 46.8137 37.8409 46.7273 37.5426 46.7273C37.1591 46.7273 36.862 46.8433 36.6513 47.0753C36.4406 47.3049 36.3352 47.5961 36.3352 47.9489V51.5H35.483V47.7642C35.483 47.4541 35.3823 47.2043 35.1811 47.0149C34.9799 46.8232 34.7206 46.7273 34.4034 46.7273C34.1856 46.7273 33.982 46.7853 33.7926 46.9013C33.6056 47.0173 33.4541 47.1783 33.3381 47.3842C33.2244 47.5878 33.1676 47.8234 33.1676 48.0909V51.5H32.3295ZM43.3079 51.6136C42.7823 51.6136 42.329 51.4976 41.9478 51.2656C41.569 51.0312 41.2766 50.7045 41.0707 50.2855C40.8671 49.8641 40.7653 49.3741 40.7653 48.8153C40.7653 48.2566 40.8671 47.7642 41.0707 47.3381C41.2766 46.9096 41.5631 46.5758 41.93 46.3366C42.2994 46.0952 42.7302 45.9744 43.2227 45.9744C43.5067 45.9744 43.7873 46.0218 44.0643 46.1165C44.3413 46.2112 44.5934 46.3651 44.8207 46.5781C45.0479 46.7888 45.229 47.0682 45.364 47.4162C45.4989 47.7642 45.5664 48.1927 45.5664 48.7017V49.0568H41.3619V48.3324H44.7141C44.7141 48.0246 44.6526 47.75 44.5295 47.5085C44.4087 47.267 44.2359 47.0765 44.011 46.9368C43.7885 46.7971 43.5257 46.7273 43.2227 46.7273C42.8888 46.7273 42.6 46.8101 42.3562 46.9759C42.1147 47.1392 41.9289 47.3523 41.7987 47.6151C41.6684 47.8778 41.6033 48.1596 41.6033 48.4602V48.9432C41.6033 49.3551 41.6744 49.7043 41.8164 49.9908C41.9608 50.2749 42.1609 50.4915 42.4165 50.6406C42.6722 50.7874 42.9693 50.8608 43.3079 50.8608C43.5281 50.8608 43.7269 50.83 43.9045 50.7685C44.0844 50.7045 44.2395 50.6098 44.3697 50.4844C44.4999 50.3565 44.6005 50.1979 44.6715 50.0085L45.4812 50.2358C45.396 50.5104 45.2527 50.7519 45.0515 50.9602C44.8503 51.1662 44.6017 51.3272 44.3058 51.4432C44.0098 51.5568 43.6772 51.6136 43.3079 51.6136ZM47.6793 48.2188V51.5H46.8413V46.0455H47.6509V46.8977H47.7219C47.8498 46.6207 48.0439 46.3982 48.3043 46.2301C48.5647 46.0597 48.9009 45.9744 49.3129 45.9744C49.6822 45.9744 50.0053 46.0502 50.2823 46.2017C50.5593 46.3509 50.7747 46.5781 50.9286 46.8835C51.0825 47.1866 51.1594 47.5701 51.1594 48.0341V51.5H50.3214V48.0909C50.3214 47.6624 50.2101 47.3286 49.9876 47.0895C49.765 46.848 49.4596 46.7273 49.0714 46.7273C48.8039 46.7273 48.5647 46.7853 48.354 46.9013C48.1457 47.0173 47.9812 47.1866 47.8604 47.4091C47.7397 47.6316 47.6793 47.9015 47.6793 48.2188ZM56.5545 47.267L55.8017 47.4801C55.7543 47.3546 55.6845 47.2327 55.5922 47.1143C55.5022 46.9936 55.3791 46.8942 55.2228 46.8161C55.0666 46.7379 54.8665 46.6989 54.6227 46.6989C54.2889 46.6989 54.0107 46.7758 53.7882 46.9297C53.568 47.0812 53.4579 47.2741 53.4579 47.5085C53.4579 47.7169 53.5337 47.8814 53.6852 48.0021C53.8367 48.1229 54.0734 48.2235 54.3954 48.304L55.2051 48.5028C55.6928 48.6212 56.0562 48.8023 56.2953 49.0462C56.5344 49.2876 56.6539 49.599 56.6539 49.9801C56.6539 50.2926 56.564 50.572 56.3841 50.8182C56.2065 51.0644 55.9579 51.2585 55.6383 51.4006C55.3187 51.5426 54.947 51.6136 54.5233 51.6136C53.9669 51.6136 53.5065 51.4929 53.1419 51.2514C52.7773 51.0099 52.5465 50.6572 52.4494 50.1932L53.2449 49.9943C53.3206 50.2879 53.4638 50.508 53.6745 50.6548C53.8876 50.8016 54.1658 50.875 54.5091 50.875C54.8997 50.875 55.2098 50.7921 55.4395 50.6264C55.6715 50.4583 55.7875 50.2571 55.7875 50.0227C55.7875 49.8333 55.7212 49.6747 55.5886 49.5469C55.456 49.4167 55.2524 49.3196 54.9778 49.2557L54.0687 49.0426C53.5692 48.9242 53.2022 48.7408 52.9679 48.4922C52.7359 48.2412 52.6199 47.9276 52.6199 47.5511C52.6199 47.2434 52.7063 46.9711 52.8791 46.7344C53.0543 46.4976 53.2922 46.3118 53.5929 46.1768C53.8959 46.0419 54.2392 45.9744 54.6227 45.9744C55.1625 45.9744 55.5862 46.0928 55.894 46.3295C56.2041 46.5663 56.4243 46.8788 56.5545 47.267ZM57.9155 51.5V46.0455H58.7536V51.5H57.9155ZM58.3416 45.1364C58.1783 45.1364 58.0374 45.0807 57.919 44.9695C57.803 44.8582 57.745 44.7244 57.745 44.5682C57.745 44.4119 57.803 44.2782 57.919 44.1669C58.0374 44.0556 58.1783 44 58.3416 44C58.505 44 58.6446 44.0556 58.7607 44.1669C58.879 44.2782 58.9382 44.4119 58.9382 44.5682C58.9382 44.7244 58.879 44.8582 58.7607 44.9695C58.6446 45.0807 58.505 45.1364 58.3416 45.1364ZM62.5044 51.6136C62.012 51.6136 61.58 51.4964 61.2083 51.2621C60.839 51.0277 60.5501 50.6998 60.3418 50.2784C60.1358 49.857 60.0328 49.3646 60.0328 48.8011C60.0328 48.233 60.1358 47.737 60.3418 47.3132C60.5501 46.8894 60.839 46.5604 61.2083 46.326C61.58 46.0916 62.012 45.9744 62.5044 45.9744C62.9969 45.9744 63.4277 46.0916 63.7971 46.326C64.1687 46.5604 64.4576 46.8894 64.6635 47.3132C64.8719 47.737 64.976 48.233 64.976 48.8011C64.976 49.3646 64.8719 49.857 64.6635 50.2784C64.4576 50.6998 64.1687 51.0277 63.7971 51.2621C63.4277 51.4964 62.9969 51.6136 62.5044 51.6136ZM62.5044 50.8608C62.8785 50.8608 63.1863 50.7649 63.4277 50.5732C63.6692 50.3814 63.848 50.1293 63.964 49.8168C64.08 49.5043 64.138 49.1657 64.138 48.8011C64.138 48.4366 64.08 48.0968 63.964 47.782C63.848 47.4671 63.6692 47.2126 63.4277 47.0185C63.1863 46.8243 62.8785 46.7273 62.5044 46.7273C62.1304 46.7273 61.8226 46.8243 61.5811 47.0185C61.3397 47.2126 61.1609 47.4671 61.0449 47.782C60.9289 48.0968 60.8709 48.4366 60.8709 48.8011C60.8709 49.1657 60.9289 49.5043 61.0449 49.8168C61.1609 50.1293 61.3397 50.3814 61.5811 50.5732C61.8226 50.7649 62.1304 50.8608 62.5044 50.8608ZM67.0934 48.2188V51.5H66.2553V46.0455H67.065V46.8977H67.136C67.2638 46.6207 67.458 46.3982 67.7184 46.2301C67.9788 46.0597 68.315 45.9744 68.7269 45.9744C69.0962 45.9744 69.4194 46.0502 69.6964 46.2017C69.9734 46.3509 70.1888 46.5781 70.3427 46.8835C70.4966 47.1866 70.5735 47.5701 70.5735 48.0341V51.5H69.7354V48.0909C69.7354 47.6624 69.6242 47.3286 69.4016 47.0895C69.1791 46.848 68.8737 46.7273 68.4854 46.7273C68.2179 46.7273 67.9788 46.7853 67.7681 46.9013C67.5598 47.0173 67.3952 47.1866 67.2745 47.4091C67.1538 47.6316 67.0934 47.9015 67.0934 48.2188Z" fill="var(--colors-neutral-neutral-800)"/>
<rect width="88" height="32" transform="translate(200 32)" fill="var(--colors-neutral-neutral-300)"/>
<path d="M211.75 52.1193C211.108 52.1193 210.561 51.9446 210.109 51.5952C209.658 51.2429 209.313 50.733 209.074 50.0653C208.835 49.3949 208.716 48.5852 208.716 47.6364C208.716 46.6932 208.835 45.8878 209.074 45.2202C209.315 44.5497 209.662 44.0384 210.114 43.6861C210.568 43.331 211.114 43.1534 211.75 43.1534C212.386 43.1534 212.93 43.331 213.382 43.6861C213.837 44.0384 214.183 44.5497 214.422 45.2202C214.663 45.8878 214.784 46.6932 214.784 47.6364C214.784 48.5852 214.665 49.3949 214.426 50.0653C214.188 50.733 213.842 51.2429 213.391 51.5952C212.939 51.9446 212.392 52.1193 211.75 52.1193ZM211.75 51.1818C212.386 51.1818 212.881 50.875 213.233 50.2614C213.585 49.6477 213.761 48.7727 213.761 47.6364C213.761 46.8807 213.68 46.2372 213.518 45.706C213.359 45.1747 213.129 44.7699 212.828 44.4915C212.53 44.2131 212.17 44.0739 211.75 44.0739C211.119 44.0739 210.626 44.3849 210.271 45.0071C209.916 45.6264 209.739 46.5028 209.739 47.6364C209.739 48.392 209.818 49.0341 209.977 49.5625C210.136 50.0909 210.365 50.4929 210.663 50.7685C210.964 51.044 211.327 51.1818 211.75 51.1818Z" fill="var(--colors-neutral-neutral-800)"/>
<path d="M265.384 51.5V46.0455H266.194V46.8977H266.265C266.379 46.6065 266.562 46.3804 266.815 46.2195C267.069 46.0561 267.373 45.9744 267.728 45.9744C268.088 45.9744 268.387 46.0561 268.626 46.2195C268.868 46.3804 269.056 46.6065 269.191 46.8977H269.248C269.388 46.616 269.597 46.3923 269.876 46.2266C270.156 46.0585 270.491 45.9744 270.881 45.9744C271.369 45.9744 271.768 46.1271 272.078 46.4325C272.388 46.7356 272.543 47.2079 272.543 47.8494V51.5H271.705V47.8494C271.705 47.447 271.595 47.1593 271.375 46.9865C271.155 46.8137 270.896 46.7273 270.597 46.7273C270.214 46.7273 269.917 46.8433 269.706 47.0753C269.495 47.3049 269.39 47.5961 269.39 47.9489V51.5H268.538V47.7642C268.538 47.4541 268.437 47.2043 268.236 47.0149C268.035 46.8232 267.775 46.7273 267.458 46.7273C267.24 46.7273 267.037 46.7853 266.847 46.9013C266.66 47.0173 266.509 47.1783 266.393 47.3842C266.279 47.5878 266.222 47.8234 266.222 48.0909V51.5H265.384ZM274.076 51.5V46.0455H274.885V46.8977H274.956C275.07 46.6065 275.253 46.3804 275.507 46.2195C275.76 46.0561 276.064 45.9744 276.419 45.9744C276.779 45.9744 277.079 46.0561 277.318 46.2195C277.559 46.3804 277.748 46.6065 277.882 46.8977H277.939C278.079 46.616 278.288 46.3923 278.568 46.2266C278.847 46.0585 279.182 45.9744 279.573 45.9744C280.06 45.9744 280.459 46.1271 280.77 46.4325C281.08 46.7356 281.235 47.2079 281.235 47.8494V51.5H280.397V47.8494C280.397 47.447 280.287 47.1593 280.066 46.9865C279.846 46.8137 279.587 46.7273 279.289 46.7273C278.905 46.7273 278.608 46.8433 278.397 47.0753C278.187 47.3049 278.081 47.5961 278.081 47.9489V51.5H277.229V47.7642C277.229 47.4541 277.128 47.2043 276.927 47.0149C276.726 46.8232 276.467 46.7273 276.15 46.7273C275.932 46.7273 275.728 46.7853 275.539 46.9013C275.352 47.0173 275.2 47.1783 275.084 47.3842C274.971 47.5878 274.914 47.8234 274.914 48.0909V51.5H274.076Z" fill="var(--colors-neutral-neutral-700)"/>
</svg>
