<svg width="24" height="24" viewBox="0 0 24 24" fill="none" xmlns="http://www.w3.org/2000/svg">
<path d="M12 15C11.175 15 10.4688 14.7063 9.88125 14.1188C9.29375 13.5312 9 12.825 9 12C9 11.175 9.29375 10.4688 9.88125 9.88125C10.4688 9.29375 11.175 9 12 9C12.825 9 13.5312 9.29375 14.1188 9.88125C14.7063 10.4688 15 11.175 15 12C15 12.825 14.7063 13.5312 14.1188 14.1188C13.5312 14.7063 12.825 15 12 15ZM12 14C12.55 14 13.0208 13.8042 13.4125 13.4125C13.8042 13.0208 14 12.55 14 12C14 11.45 13.8042 10.9792 13.4125 10.5875C13.0208 10.1958 12.55 10 12 10C11.45 10 10.9792 10.1958 10.5875 10.5875C10.1958 10.9792 10 11.45 10 12C10 12.55 10.1958 13.0208 10.5875 13.4125C10.9792 13.8042 11.45 14 12 14ZM5.62175 20C5.15725 20 4.77083 19.8458 4.4625 19.5375C4.15417 19.2292 4 18.8428 4 18.3783V15H5V18.3845C5 18.5385 5.06408 18.6796 5.19225 18.8077C5.32042 18.9359 5.4615 19 5.6155 19H9V20H5.62175ZM15 20V19H18.3845C18.5385 19 18.6796 18.9359 18.8077 18.8077C18.9359 18.6796 19 18.5385 19 18.3845V15H20V18.3783C20 18.8428 19.8458 19.2292 19.5375 19.5375C19.2292 19.8458 18.8428 20 18.3783 20H15ZM4 9V5.62175C4 5.15725 4.15417 4.77083 4.4625 4.4625C4.77083 4.15417 5.15725 4 5.62175 4H9V5H5.6155C5.4615 5 5.32042 5.06408 5.19225 5.19225C5.06408 5.32042 5 5.4615 5 5.6155V9H4ZM19 9V5.6155C19 5.4615 18.9359 5.32042 18.8077 5.19225C18.6796 5.06408 18.5385 5 18.3845 5H15V4H18.3783C18.8428 4 19.2292 4.15417 19.5375 4.4625C19.8458 4.77083 20 5.15725 20 5.62175V9H19Z" fill="var(--colors-neutral-neutral-800)"/>
</svg>
