<svg width="288" height="24" viewBox="0 0 288 24" fill="none" xmlns="http://www.w3.org/2000/svg">
<path d="M5.65341 8.72727H6.53409V13.5426C6.53409 14.0398 6.4169 14.4837 6.18253 14.8743C5.95052 15.2625 5.62263 15.5691 5.19886 15.794C4.77509 16.0166 4.27794 16.1278 3.70739 16.1278C3.13684 16.1278 2.63968 16.0166 2.21591 15.794C1.79214 15.5691 1.46307 15.2625 1.22869 14.8743C0.996686 14.4837 0.880682 14.0398 0.880682 13.5426V8.72727H1.76136V13.4716C1.76136 13.8267 1.83949 14.1428 1.99574 14.4197C2.15199 14.6944 2.37453 14.911 2.66335 15.0696C2.95455 15.2259 3.30256 15.304 3.70739 15.304C4.11222 15.304 4.46023 15.2259 4.75142 15.0696C5.04261 14.911 5.26515 14.6944 5.41903 14.4197C5.57528 14.1428 5.65341 13.8267 5.65341 13.4716V8.72727ZM12.0428 11.767L11.29 11.9801C11.2426 11.8546 11.1728 11.7327 11.0804 11.6143C10.9905 11.4936 10.8674 11.3942 10.7111 11.3161C10.5549 11.2379 10.3548 11.1989 10.111 11.1989C9.77717 11.1989 9.49899 11.2758 9.27646 11.4297C9.05629 11.5812 8.9462 11.7741 8.9462 12.0085C8.9462 12.2169 9.02196 12.3814 9.17347 12.5021C9.32499 12.6229 9.56173 12.7235 9.8837 12.804L10.6934 13.0028C11.181 13.1212 11.5444 13.3023 11.7836 13.5462C12.0227 13.7876 12.1422 14.099 12.1422 14.4801C12.1422 14.7926 12.0523 15.072 11.8723 15.3182C11.6948 15.5644 11.4462 15.7585 11.1266 15.9006C10.807 16.0426 10.4353 16.1136 10.0115 16.1136C9.4552 16.1136 8.99473 15.9929 8.63015 15.7514C8.26557 15.5099 8.03474 15.1572 7.93768 14.6932L8.73313 14.4943C8.80889 14.7879 8.95212 15.008 9.16282 15.1548C9.37589 15.3016 9.65406 15.375 9.99734 15.375C10.388 15.375 10.6981 15.2921 10.9277 15.1264C11.1597 14.9583 11.2757 14.7571 11.2757 14.5227C11.2757 14.3333 11.2095 14.1747 11.0769 14.0469C10.9443 13.9167 10.7407 13.8196 10.4661 13.7557L9.557 13.5426C9.05747 13.4242 8.69052 13.2408 8.45614 12.9922C8.22414 12.7412 8.10813 12.4276 8.10813 12.0511C8.10813 11.7434 8.19454 11.4711 8.36737 11.2344C8.54255 10.9976 8.78048 10.8118 9.08114 10.6768C9.38417 10.5419 9.72745 10.4744 10.111 10.4744C10.6507 10.4744 11.0745 10.5928 11.3823 10.8295C11.6924 11.0663 11.9126 11.3788 12.0428 11.767ZM15.6907 16.1136C15.1651 16.1136 14.7118 15.9976 14.3306 15.7656C13.9518 15.5312 13.6594 15.2045 13.4535 14.7855C13.2499 14.3641 13.1481 13.8741 13.1481 13.3153C13.1481 12.7566 13.2499 12.2642 13.4535 11.8381C13.6594 11.4096 13.9459 11.0758 14.3129 10.8366C14.6822 10.5952 15.113 10.4744 15.6055 10.4744C15.8896 10.4744 16.1701 10.5218 16.4471 10.6165C16.7241 10.7112 16.9762 10.8651 17.2035 11.0781C17.4308 11.2888 17.6119 11.5682 17.7468 11.9162C17.8817 12.2642 17.9492 12.6927 17.9492 13.2017V13.5568H13.7447V12.8324H17.0969C17.0969 12.5246 17.0354 12.25 16.9123 12.0085C16.7915 11.767 16.6187 11.5765 16.3938 11.4368C16.1713 11.2971 15.9085 11.2273 15.6055 11.2273C15.2717 11.2273 14.9828 11.3101 14.739 11.4759C14.4975 11.6392 14.3117 11.8523 14.1815 12.1151C14.0513 12.3778 13.9862 12.6596 13.9862 12.9602V13.4432C13.9862 13.8551 14.0572 14.2043 14.1992 14.4908C14.3436 14.7749 14.5437 14.9915 14.7994 15.1406C15.055 15.2874 15.3522 15.3608 15.6907 15.3608C15.9109 15.3608 16.1097 15.33 16.2873 15.2685C16.4672 15.2045 16.6223 15.1098 16.7525 14.9844C16.8827 14.8565 16.9833 14.6979 17.0543 14.5085L17.864 14.7358C17.7788 15.0104 17.6355 15.2519 17.4343 15.4602C17.2331 15.6662 16.9845 15.8272 16.6886 15.9432C16.3926 16.0568 16.06 16.1136 15.6907 16.1136ZM26.1275 10.5455C26.0849 10.1856 25.9121 9.90625 25.609 9.70739C25.306 9.50852 24.9343 9.40909 24.494 9.40909C24.172 9.40909 23.8903 9.46117 23.6488 9.56534C23.4097 9.66951 23.2227 9.81274 23.0877 9.99503C22.9551 10.1773 22.8888 10.3845 22.8888 10.6165C22.8888 10.8106 22.935 10.9775 23.0273 11.1172C23.122 11.2545 23.2428 11.3693 23.3896 11.4616C23.5363 11.5516 23.6902 11.6262 23.8512 11.6854C24.0122 11.7422 24.1602 11.7884 24.2951 11.8239L25.0337 12.0227C25.2231 12.0724 25.4338 12.1411 25.6658 12.2287C25.9002 12.3163 26.1239 12.4358 26.337 12.5874C26.5524 12.7365 26.73 12.9283 26.8697 13.1626C27.0094 13.397 27.0792 13.6847 27.0792 14.0256C27.0792 14.4186 26.9762 14.7737 26.7702 15.0909C26.5666 15.4081 26.2683 15.6603 25.8754 15.8473C25.4847 16.0343 25.0101 16.1278 24.4513 16.1278C23.9305 16.1278 23.4795 16.0438 23.0984 15.8757C22.7196 15.7076 22.4213 15.4732 22.2035 15.1726C21.988 14.8719 21.8661 14.5227 21.8377 14.125H22.7468C22.7705 14.3996 22.8628 14.6269 23.0238 14.8068C23.1871 14.9844 23.3931 15.117 23.6417 15.2045C23.8926 15.2898 24.1625 15.3324 24.4513 15.3324C24.7875 15.3324 25.0894 15.2779 25.3569 15.169C25.6244 15.0578 25.8363 14.9039 25.9925 14.7074C26.1488 14.5085 26.2269 14.2765 26.2269 14.0114C26.2269 13.7699 26.1594 13.5734 26.0245 13.4219C25.8896 13.2704 25.712 13.1473 25.4918 13.0526C25.2717 12.9579 25.0337 12.875 24.7781 12.804L23.8832 12.5483C23.315 12.3849 22.8652 12.1518 22.5337 11.8487C22.2023 11.5457 22.0366 11.1491 22.0366 10.6591C22.0366 10.2519 22.1467 9.89678 22.3668 9.59375C22.5894 9.28835 22.8877 9.05161 23.2617 8.88352C23.6381 8.71307 24.0584 8.62784 24.5224 8.62784C24.9911 8.62784 25.4078 8.71188 25.7724 8.87997C26.137 9.04569 26.4258 9.27296 26.6388 9.56179C26.8543 9.85062 26.9679 10.1785 26.9798 10.5455H26.1275ZM30.7005 16.1136C30.1749 16.1136 29.7215 15.9976 29.3404 15.7656C28.9616 15.5312 28.6692 15.2045 28.4632 14.7855C28.2596 14.3641 28.1578 13.8741 28.1578 13.3153C28.1578 12.7566 28.2596 12.2642 28.4632 11.8381C28.6692 11.4096 28.9557 11.0758 29.3226 10.8366C29.6919 10.5952 30.1228 10.4744 30.6152 10.4744C30.8993 10.4744 31.1799 10.5218 31.4569 10.6165C31.7338 10.7112 31.986 10.8651 32.2132 11.0781C32.4405 11.2888 32.6216 11.5682 32.7566 11.9162C32.8915 12.2642 32.959 12.6927 32.959 13.2017V13.5568H28.7544V12.8324H32.1067C32.1067 12.5246 32.0452 12.25 31.9221 12.0085C31.8013 11.767 31.6285 11.5765 31.4036 11.4368C31.181 11.2971 30.9183 11.2273 30.6152 11.2273C30.2814 11.2273 29.9926 11.3101 29.7488 11.4759C29.5073 11.6392 29.3214 11.8523 29.1912 12.1151C29.061 12.3778 28.9959 12.6596 28.9959 12.9602V13.4432C28.9959 13.8551 29.0669 14.2043 29.209 14.4908C29.3534 14.7749 29.5534 14.9915 29.8091 15.1406C30.0648 15.2874 30.3619 15.3608 30.7005 15.3608C30.9206 15.3608 31.1195 15.33 31.2971 15.2685C31.477 15.2045 31.632 15.1098 31.7623 14.9844C31.8925 14.8565 31.9931 14.6979 32.0641 14.5085L32.8738 14.7358C32.7885 15.0104 32.6453 15.2519 32.4441 15.4602C32.2428 15.6662 31.9943 15.8272 31.6983 15.9432C31.4024 16.0568 31.0698 16.1136 30.7005 16.1136ZM34.2338 16V10.5455H35.0435V11.3693H35.1003C35.1998 11.0994 35.3797 10.8804 35.6401 10.7124C35.9005 10.5443 36.1941 10.4602 36.5208 10.4602C36.5823 10.4602 36.6593 10.4614 36.7516 10.4638C36.8439 10.4661 36.9138 10.4697 36.9611 10.4744V11.3267C36.9327 11.3196 36.8676 11.3089 36.7658 11.2947C36.6664 11.2782 36.561 11.2699 36.4498 11.2699C36.1846 11.2699 35.9479 11.3255 35.7395 11.4368C35.5336 11.5457 35.3702 11.6972 35.2495 11.8913C35.1311 12.0831 35.0719 12.3021 35.0719 12.5483V16H34.2338ZM42.5808 10.5455L40.5637 16H39.7115L37.6944 10.5455H38.6035L40.1092 14.892H40.166L41.6717 10.5455H42.5808ZM45.7786 16.1136C45.253 16.1136 44.7997 15.9976 44.4185 15.7656C44.0397 15.5312 43.7473 15.2045 43.5414 14.7855C43.3378 14.3641 43.236 13.8741 43.236 13.3153C43.236 12.7566 43.3378 12.2642 43.5414 11.8381C43.7473 11.4096 44.0338 11.0758 44.4007 10.8366C44.7701 10.5952 45.2009 10.4744 45.6934 10.4744C45.9775 10.4744 46.258 10.5218 46.535 10.6165C46.812 10.7112 47.0641 10.8651 47.2914 11.0781C47.5186 11.2888 47.6998 11.5682 47.8347 11.9162C47.9696 12.2642 48.0371 12.6927 48.0371 13.2017V13.5568H43.8326V12.8324H47.1848C47.1848 12.5246 47.1233 12.25 47.0002 12.0085C46.8794 11.767 46.7066 11.5765 46.4817 11.4368C46.2592 11.2971 45.9964 11.2273 45.6934 11.2273C45.3596 11.2273 45.0707 11.3101 44.8269 11.4759C44.5854 11.6392 44.3996 11.8523 44.2694 12.1151C44.1391 12.3778 44.074 12.6596 44.074 12.9602V13.4432C44.074 13.8551 44.1451 14.2043 44.2871 14.4908C44.4315 14.7749 44.6316 14.9915 44.8873 15.1406C45.1429 15.2874 45.44 15.3608 45.7786 15.3608C45.9988 15.3608 46.1976 15.33 46.3752 15.2685C46.5551 15.2045 46.7102 15.1098 46.8404 14.9844C46.9706 14.8565 47.0712 14.6979 47.1422 14.5085L47.9519 14.7358C47.8667 15.0104 47.7234 15.2519 47.5222 15.4602C47.321 15.6662 47.0724 15.8272 46.7765 15.9432C46.4805 16.0568 46.1479 16.1136 45.7786 16.1136ZM49.312 16V10.5455H50.1216V11.3693H50.1784C50.2779 11.0994 50.4578 10.8804 50.7182 10.7124C50.9786 10.5443 51.2722 10.4602 51.5989 10.4602C51.6605 10.4602 51.7374 10.4614 51.8297 10.4638C51.9221 10.4661 51.9919 10.4697 52.0392 10.4744V11.3267C52.0108 11.3196 51.9457 11.3089 51.8439 11.2947C51.7445 11.2782 51.6391 11.2699 51.5279 11.2699C51.2627 11.2699 51.026 11.3255 50.8176 11.4368C50.6117 11.5457 50.4483 11.6972 50.3276 11.8913C50.2092 12.0831 50.15 12.3021 50.15 12.5483V16H49.312ZM55.5611 9.50852V8.72727H61.0156V9.50852H58.7287V16H57.848V9.50852H55.5611ZM62.2612 16V10.5455H63.0993V16H62.2612ZM62.6873 9.63636C62.524 9.63636 62.3831 9.58073 62.2647 9.46946C62.1487 9.35819 62.0907 9.22443 62.0907 9.06818C62.0907 8.91193 62.1487 8.77817 62.2647 8.6669C62.3831 8.55563 62.524 8.5 62.6873 8.5C62.8507 8.5 62.9904 8.55563 63.1064 8.6669C63.2247 8.77817 63.2839 8.91193 63.2839 9.06818C63.2839 9.22443 63.2247 9.35819 63.1064 9.46946C62.9904 9.58073 62.8507 9.63636 62.6873 9.63636ZM64.6342 16V10.5455H65.4439V11.3977H65.5149C65.6286 11.1065 65.812 10.8804 66.0653 10.7195C66.3187 10.5561 66.6229 10.4744 66.978 10.4744C67.3378 10.4744 67.6373 10.5561 67.8764 10.7195C68.1179 10.8804 68.3061 11.1065 68.4411 11.3977H68.4979C68.6375 11.116 68.8471 10.8923 69.1264 10.7266C69.4058 10.5585 69.7408 10.4744 70.1314 10.4744C70.6191 10.4744 71.018 10.6271 71.3281 10.9325C71.6383 11.2356 71.7933 11.7079 71.7933 12.3494V16H70.9553V12.3494C70.9553 11.947 70.8452 11.6593 70.625 11.4865C70.4048 11.3137 70.1456 11.2273 69.8473 11.2273C69.4638 11.2273 69.1667 11.3433 68.956 11.5753C68.7453 11.8049 68.6399 12.0961 68.6399 12.4489V16H67.7876V12.2642C67.7876 11.9541 67.687 11.7043 67.4858 11.5149C67.2846 11.3232 67.0253 11.2273 66.7081 11.2273C66.4903 11.2273 66.2867 11.2853 66.0973 11.4013C65.9103 11.5173 65.7588 11.6783 65.6428 11.8842C65.5291 12.0878 65.4723 12.3234 65.4723 12.5909V16H64.6342ZM75.6126 16.1136C75.087 16.1136 74.6336 15.9976 74.2525 15.7656C73.8737 15.5312 73.5813 15.2045 73.3754 14.7855C73.1718 14.3641 73.07 13.8741 73.07 13.3153C73.07 12.7566 73.1718 12.2642 73.3754 11.8381C73.5813 11.4096 73.8678 11.0758 74.2347 10.8366C74.604 10.5952 75.0349 10.4744 75.5273 10.4744C75.8114 10.4744 76.092 10.5218 76.369 10.6165C76.646 10.7112 76.8981 10.8651 77.1254 11.0781C77.3526 11.2888 77.5337 11.5682 77.6687 11.9162C77.8036 12.2642 77.8711 12.6927 77.8711 13.2017V13.5568H73.6665V12.8324H77.0188C77.0188 12.5246 76.9573 12.25 76.8342 12.0085C76.7134 11.767 76.5406 11.5765 76.3157 11.4368C76.0932 11.2971 75.8304 11.2273 75.5273 11.2273C75.1935 11.2273 74.9047 11.3101 74.6609 11.4759C74.4194 11.6392 74.2335 11.8523 74.1033 12.1151C73.9731 12.3778 73.908 12.6596 73.908 12.9602V13.4432C73.908 13.8551 73.979 14.2043 74.1211 14.4908C74.2655 14.7749 74.4656 14.9915 74.7212 15.1406C74.9769 15.2874 75.274 15.3608 75.6126 15.3608C75.8327 15.3608 76.0316 15.33 76.2092 15.2685C76.3891 15.2045 76.5442 15.1098 76.6744 14.9844C76.8046 14.8565 76.9052 14.6979 76.9762 14.5085L77.7859 14.7358C77.7006 15.0104 77.5574 15.2519 77.3562 15.4602C77.1549 15.6662 76.9064 15.8272 76.6104 15.9432C76.3145 16.0568 75.9819 16.1136 75.6126 16.1136Z" fill="#222222"/>
<rect x="248.5" y="0.5" width="39" height="23" rx="11.5" fill="white"/>
<rect x="248.5" y="0.5" width="39" height="23" rx="11.5" stroke="#808080"/>
<circle cx="260" cy="12" r="9" fill="#808080"/>
</svg>
