<svg width="304" height="32" viewBox="0 0 304 32" fill="none" xmlns="http://www.w3.org/2000/svg">
<path d="M16.8807 19.5V12.2273H19.3381C19.9063 12.2273 20.3726 12.3243 20.7372 12.5185C21.1018 12.7102 21.3717 12.9742 21.5469 13.3104C21.7221 13.6465 21.8097 14.0289 21.8097 14.4574C21.8097 14.8859 21.7221 15.2659 21.5469 15.5973C21.3717 15.9287 21.103 16.1892 20.7408 16.3786C20.3786 16.5656 19.9157 16.6591 19.3523 16.6591H17.3636V15.8636H19.3239C19.7121 15.8636 20.0246 15.8068 20.2614 15.6932C20.5005 15.5795 20.6733 15.4186 20.7798 15.2102C20.8887 14.9995 20.9432 14.7486 20.9432 14.4574C20.9432 14.1662 20.8887 13.9117 20.7798 13.6939C20.6709 13.4761 20.4969 13.308 20.2578 13.1896C20.0187 13.0689 19.7027 13.0085 19.3097 13.0085H17.7614V19.5H16.8807ZM20.304 16.233L22.0938 19.5H21.071L19.3097 16.233H20.304ZM25.3919 19.6136C24.8663 19.6136 24.4129 19.4976 24.0318 19.2656C23.653 19.0312 23.3606 18.7045 23.1547 18.2855C22.9511 17.8641 22.8493 17.3741 22.8493 16.8153C22.8493 16.2566 22.9511 15.7642 23.1547 15.3381C23.3606 14.9096 23.6471 14.5758 24.014 14.3366C24.3833 14.0952 24.8142 13.9744 25.3066 13.9744C25.5907 13.9744 25.8713 14.0218 26.1483 14.1165C26.4252 14.2112 26.6774 14.3651 26.9047 14.5781C27.1319 14.7888 27.313 15.0682 27.448 15.4162C27.5829 15.7642 27.6504 16.1927 27.6504 16.7017V17.0568H23.4458V16.3324H26.7981C26.7981 16.0246 26.7366 15.75 26.6135 15.5085C26.4927 15.267 26.3199 15.0765 26.095 14.9368C25.8725 14.7971 25.6097 14.7273 25.3066 14.7273C24.9728 14.7273 24.684 14.8101 24.4402 14.9759C24.1987 15.1392 24.0128 15.3523 23.8826 15.6151C23.7524 15.8778 23.6873 16.1596 23.6873 16.4602V16.9432C23.6873 17.3551 23.7583 17.7043 23.9004 17.9908C24.0448 18.2749 24.2449 18.4915 24.5005 18.6406C24.7562 18.7874 25.0533 18.8608 25.3919 18.8608C25.612 18.8608 25.8109 18.83 25.9885 18.7685C26.1684 18.7045 26.3234 18.6098 26.4537 18.4844C26.5839 18.3565 26.6845 18.1979 26.7555 18.0085L27.5652 18.2358C27.4799 18.5104 27.3367 18.7519 27.1355 18.9602C26.9342 19.1662 26.6857 19.3272 26.3897 19.4432C26.0938 19.5568 25.7612 19.6136 25.3919 19.6136ZM31.3542 14.0455V14.7557H28.4139V14.0455H31.3542ZM29.2946 19.5V13.2926C29.2946 12.9801 29.368 12.7197 29.5147 12.5114C29.6615 12.303 29.8521 12.1468 30.0865 12.0426C30.3208 11.9384 30.5682 11.8864 30.8287 11.8864C31.0346 11.8864 31.2027 11.9029 31.3329 11.9361C31.4631 11.9692 31.5602 12 31.6241 12.0284L31.3826 12.7528C31.34 12.7386 31.2808 12.7209 31.2051 12.6996C31.1317 12.6783 31.0346 12.6676 30.9139 12.6676C30.6369 12.6676 30.4368 12.7375 30.3137 12.8771C30.193 13.0168 30.1326 13.2216 30.1326 13.4915V19.5H29.2946ZM34.5911 19.6136C34.0655 19.6136 33.6122 19.4976 33.231 19.2656C32.8522 19.0312 32.5598 18.7045 32.3539 18.2855C32.1503 17.8641 32.0485 17.3741 32.0485 16.8153C32.0485 16.2566 32.1503 15.7642 32.3539 15.3381C32.5598 14.9096 32.8463 14.5758 33.2132 14.3366C33.5826 14.0952 34.0134 13.9744 34.5059 13.9744C34.79 13.9744 35.0705 14.0218 35.3475 14.1165C35.6245 14.2112 35.8766 14.3651 36.1039 14.5781C36.3311 14.7888 36.5123 15.0682 36.6472 15.4162C36.7821 15.7642 36.8496 16.1927 36.8496 16.7017V17.0568H32.6451V16.3324H35.9973C35.9973 16.0246 35.9358 15.75 35.8127 15.5085C35.6919 15.267 35.5191 15.0765 35.2942 14.9368C35.0717 14.7971 34.8089 14.7273 34.5059 14.7273C34.1721 14.7273 33.8832 14.8101 33.6394 14.9759C33.3979 15.1392 33.2121 15.3523 33.0819 15.6151C32.9516 15.8778 32.8865 16.1596 32.8865 16.4602V16.9432C32.8865 17.3551 32.9576 17.7043 33.0996 17.9908C33.244 18.2749 33.4441 18.4915 33.6998 18.6406C33.9554 18.7874 34.2525 18.8608 34.5911 18.8608C34.8113 18.8608 35.0101 18.83 35.1877 18.7685C35.3676 18.7045 35.5227 18.6098 35.6529 18.4844C35.7831 18.3565 35.8837 18.1979 35.9547 18.0085L36.7644 18.2358C36.6792 18.5104 36.5359 18.7519 36.3347 18.9602C36.1335 19.1662 35.8849 19.3272 35.589 19.4432C35.293 19.5568 34.9604 19.6136 34.5911 19.6136ZM38.1245 19.5V14.0455H38.9341V14.8693H38.9909C39.0904 14.5994 39.2703 14.3804 39.5307 14.2124C39.7911 14.0443 40.0847 13.9602 40.4114 13.9602C40.473 13.9602 40.5499 13.9614 40.6422 13.9638C40.7346 13.9661 40.8044 13.9697 40.8517 13.9744V14.8267C40.8233 14.8196 40.7582 14.8089 40.6564 14.7947C40.557 14.7782 40.4516 14.7699 40.3404 14.7699C40.0752 14.7699 39.8385 14.8255 39.6301 14.9368C39.4242 15.0457 39.2608 15.1972 39.1401 15.3913C39.0217 15.5831 38.9625 15.8021 38.9625 16.0483V19.5H38.1245ZM43.9661 19.6136C43.4405 19.6136 42.9872 19.4976 42.606 19.2656C42.2272 19.0312 41.9348 18.7045 41.7289 18.2855C41.5253 17.8641 41.4235 17.3741 41.4235 16.8153C41.4235 16.2566 41.5253 15.7642 41.7289 15.3381C41.9348 14.9096 42.2213 14.5758 42.5882 14.3366C42.9576 14.0952 43.3884 13.9744 43.8809 13.9744C44.165 13.9744 44.4455 14.0218 44.7225 14.1165C44.9995 14.2112 45.2516 14.3651 45.4789 14.5781C45.7061 14.7888 45.8873 15.0682 46.0222 15.4162C46.1571 15.7642 46.2246 16.1927 46.2246 16.7017V17.0568H42.0201V16.3324H45.3723C45.3723 16.0246 45.3108 15.75 45.1877 15.5085C45.0669 15.267 44.8941 15.0765 44.6692 14.9368C44.4467 14.7971 44.1839 14.7273 43.8809 14.7273C43.5471 14.7273 43.2582 14.8101 43.0144 14.9759C42.7729 15.1392 42.5871 15.3523 42.4569 15.6151C42.3266 15.8778 42.2615 16.1596 42.2615 16.4602V16.9432C42.2615 17.3551 42.3326 17.7043 42.4746 17.9908C42.619 18.2749 42.8191 18.4915 43.0748 18.6406C43.3304 18.7874 43.6275 18.8608 43.9661 18.8608C44.1863 18.8608 44.3851 18.83 44.5627 18.7685C44.7426 18.7045 44.8977 18.6098 45.0279 18.4844C45.1581 18.3565 45.2587 18.1979 45.3297 18.0085L46.1394 18.2358C46.0542 18.5104 45.9109 18.7519 45.7097 18.9602C45.5085 19.1662 45.2599 19.3272 44.964 19.4432C44.668 19.5568 44.3354 19.6136 43.9661 19.6136ZM48.3375 16.2188V19.5H47.4995V14.0455H48.3091V14.8977H48.3801C48.508 14.6207 48.7021 14.3982 48.9625 14.2301C49.223 14.0597 49.5591 13.9744 49.9711 13.9744C50.3404 13.9744 50.6635 14.0502 50.9405 14.2017C51.2175 14.3509 51.4329 14.5781 51.5868 14.8835C51.7407 15.1866 51.8176 15.5701 51.8176 16.0341V19.5H50.9796V16.0909C50.9796 15.6624 50.8683 15.3286 50.6458 15.0895C50.4232 14.848 50.1178 14.7273 49.7296 14.7273C49.4621 14.7273 49.223 14.7853 49.0123 14.9013C48.8039 15.0173 48.6394 15.1866 48.5186 15.4091C48.3979 15.6316 48.3375 15.9015 48.3375 16.2188ZM55.565 19.6136C55.0536 19.6136 54.6133 19.4929 54.244 19.2514C53.8746 19.0099 53.5906 18.6773 53.3917 18.2536C53.1928 17.8298 53.0934 17.3456 53.0934 16.8011C53.0934 16.2472 53.1952 15.7583 53.3988 15.3345C53.6048 14.9084 53.8912 14.5758 54.2582 14.3366C54.6275 14.0952 55.0584 13.9744 55.5508 13.9744C55.9343 13.9744 56.2799 14.0455 56.5877 14.1875C56.8955 14.3295 57.1476 14.5284 57.3441 14.7841C57.5406 15.0398 57.6625 15.3381 57.7099 15.679H56.8718C56.8079 15.4304 56.6658 15.2102 56.4457 15.0185C56.2279 14.8243 55.9343 14.7273 55.565 14.7273C55.2383 14.7273 54.9518 14.8125 54.7056 14.983C54.4618 15.151 54.2712 15.389 54.1339 15.6967C53.9989 16.0021 53.9315 16.3608 53.9315 16.7727C53.9315 17.1941 53.9978 17.5611 54.1303 17.8736C54.2653 18.1861 54.4547 18.4287 54.6985 18.6016C54.9447 18.7744 55.2335 18.8608 55.565 18.8608C55.7828 18.8608 55.9805 18.8229 56.158 18.7472C56.3356 18.6714 56.4859 18.5625 56.609 18.4205C56.7321 18.2784 56.8197 18.108 56.8718 17.9091H57.7099C57.6625 18.2311 57.5453 18.5211 57.3583 18.7791C57.1737 19.0348 56.9286 19.2384 56.6232 19.3899C56.3202 19.5391 55.9674 19.6136 55.565 19.6136ZM61.2219 19.6136C60.6964 19.6136 60.243 19.4976 59.8619 19.2656C59.4831 19.0312 59.1907 18.7045 58.9847 18.2855C58.7811 17.8641 58.6793 17.3741 58.6793 16.8153C58.6793 16.2566 58.7811 15.7642 58.9847 15.3381C59.1907 14.9096 59.4772 14.5758 59.8441 14.3366C60.2134 14.0952 60.6443 13.9744 61.1367 13.9744C61.4208 13.9744 61.7013 14.0218 61.9783 14.1165C62.2553 14.2112 62.5075 14.3651 62.7347 14.5781C62.962 14.7888 63.1431 15.0682 63.2781 15.4162C63.413 15.7642 63.4805 16.1927 63.4805 16.7017V17.0568H59.2759V16.3324H62.6282C62.6282 16.0246 62.5666 15.75 62.4435 15.5085C62.3228 15.267 62.15 15.0765 61.9251 14.9368C61.7025 14.7971 61.4397 14.7273 61.1367 14.7273C60.8029 14.7273 60.5141 14.8101 60.2702 14.9759C60.0288 15.1392 59.8429 15.3523 59.7127 15.6151C59.5825 15.8778 59.5174 16.1596 59.5174 16.4602V16.9432C59.5174 17.3551 59.5884 17.7043 59.7305 17.9908C59.8749 18.2749 60.0749 18.4915 60.3306 18.6406C60.5863 18.7874 60.8834 18.8608 61.2219 18.8608C61.4421 18.8608 61.641 18.83 61.8185 18.7685C61.9985 18.7045 62.1535 18.6098 62.2837 18.4844C62.4139 18.3565 62.5146 18.1979 62.5856 18.0085L63.3952 18.2358C63.31 18.5104 63.1668 18.7519 62.9656 18.9602C62.7643 19.1662 62.5157 19.3272 62.2198 19.4432C61.9239 19.5568 61.5913 19.6136 61.2219 19.6136ZM64.7553 19.5V14.0455H65.5934V19.5H64.7553ZM65.1815 13.1364C65.0181 13.1364 64.8772 13.0807 64.7589 12.9695C64.6429 12.8582 64.5849 12.7244 64.5849 12.5682C64.5849 12.4119 64.6429 12.2782 64.7589 12.1669C64.8772 12.0556 65.0181 12 65.1815 12C65.3448 12 65.4845 12.0556 65.6005 12.1669C65.7189 12.2782 65.7781 12.4119 65.7781 12.5682C65.7781 12.7244 65.7189 12.8582 65.6005 12.9695C65.4845 13.0807 65.3448 13.1364 65.1815 13.1364ZM67.1284 19.5V14.0455H67.938V14.8977H68.0091C68.1227 14.6065 68.3062 14.3804 68.5595 14.2195C68.8128 14.0561 69.117 13.9744 69.4721 13.9744C69.832 13.9744 70.1315 14.0561 70.3706 14.2195C70.612 14.3804 70.8002 14.6065 70.9352 14.8977H70.992C71.1317 14.616 71.3412 14.3923 71.6206 14.2266C71.8999 14.0585 72.2349 13.9744 72.6255 13.9744C73.1132 13.9744 73.5121 14.1271 73.8223 14.4325C74.1324 14.7356 74.2875 15.2079 74.2875 15.8494V19.5H73.4494V15.8494C73.4494 15.447 73.3393 15.1593 73.1191 14.9865C72.899 14.8137 72.6397 14.7273 72.3414 14.7273C71.9579 14.7273 71.6608 14.8433 71.4501 15.0753C71.2394 15.3049 71.1341 15.5961 71.1341 15.9489V19.5H70.2818V15.7642C70.2818 15.4541 70.1812 15.2043 69.9799 15.0149C69.7787 14.8232 69.5195 14.7273 69.2022 14.7273C68.9844 14.7273 68.7808 14.7853 68.5914 14.9013C68.4044 15.0173 68.2529 15.1783 68.1369 15.3842C68.0233 15.5878 67.9664 15.8234 67.9664 16.0909V19.5H67.1284ZM77.4249 19.6278C77.0792 19.6278 76.7656 19.5627 76.4838 19.4325C76.2021 19.3 75.9784 19.1094 75.8127 18.8608C75.647 18.6098 75.5641 18.3068 75.5641 17.9517C75.5641 17.6392 75.6257 17.3859 75.7488 17.1918C75.8719 16.9953 76.0364 16.8414 76.2424 16.7301C76.4483 16.6188 76.6756 16.536 76.9242 16.4815C77.1751 16.4247 77.4273 16.3797 77.6806 16.3466C78.012 16.304 78.2807 16.272 78.4867 16.2507C78.695 16.227 78.8465 16.188 78.9412 16.1335C79.0383 16.0791 79.0868 15.9844 79.0868 15.8494V15.821C79.0868 15.4706 78.9909 15.1984 78.7992 15.0043C78.6098 14.8101 78.3221 14.7131 77.9363 14.7131C77.5362 14.7131 77.2225 14.8007 76.9952 14.9759C76.7679 15.151 76.6081 15.3381 76.5158 15.5369L75.7203 15.2528C75.8624 14.9214 76.0518 14.6634 76.2885 14.4787C76.5276 14.2917 76.7881 14.1615 77.0698 14.0881C77.3539 14.0123 77.6332 13.9744 77.9078 13.9744C78.083 13.9744 78.2843 13.9957 78.5115 14.0384C78.7412 14.0786 78.9625 14.1626 79.1756 14.2905C79.391 14.4183 79.5698 14.6113 79.7118 14.8693C79.8539 15.1274 79.9249 15.473 79.9249 15.9062V19.5H79.0868V18.7614H79.0442C78.9874 18.8797 78.8927 19.0064 78.7601 19.1413C78.6275 19.2763 78.4512 19.3911 78.231 19.4858C78.0108 19.5805 77.7421 19.6278 77.4249 19.6278ZM77.5527 18.875C77.8842 18.875 78.1635 18.8099 78.3908 18.6797C78.6204 18.5495 78.7933 18.3814 78.9093 18.1754C79.0276 17.9695 79.0868 17.7528 79.0868 17.5256V16.7585C79.0513 16.8011 78.9732 16.8402 78.8525 16.8757C78.7341 16.9089 78.5968 16.9384 78.4405 16.9645C78.2866 16.9882 78.1363 17.0095 77.9895 17.0284C77.8451 17.045 77.7279 17.0592 77.638 17.071C77.4202 17.0994 77.2166 17.1456 77.0272 17.2095C76.8401 17.2711 76.6886 17.3646 76.5726 17.4901C76.459 17.6132 76.4022 17.7812 76.4022 17.9943C76.4022 18.2855 76.5099 18.5057 76.7253 18.6548C76.9431 18.8016 77.2189 18.875 77.5527 18.875ZM83.6562 21.6591C83.2514 21.6591 82.9034 21.607 82.6122 21.5028C82.321 21.401 82.0784 21.2661 81.8842 21.098C81.6925 20.9323 81.5398 20.7547 81.4261 20.5653L82.0938 20.0966C82.1695 20.196 82.2654 20.3097 82.3814 20.4375C82.4974 20.5677 82.656 20.6802 82.8572 20.7749C83.0608 20.8719 83.3272 20.9205 83.6562 20.9205C84.0966 20.9205 84.46 20.8139 84.7464 20.6009C85.0329 20.3878 85.1761 20.054 85.1761 19.5994V18.4915H85.1051C85.0436 18.5909 84.956 18.714 84.8423 18.8608C84.7311 19.0052 84.5701 19.1342 84.3594 19.2479C84.151 19.3591 83.8693 19.4148 83.5142 19.4148C83.0739 19.4148 82.6785 19.3106 82.3281 19.1023C81.9801 18.8939 81.7043 18.5909 81.5007 18.1932C81.2995 17.7955 81.1989 17.3125 81.1989 16.7443C81.1989 16.1856 81.2971 15.6991 81.4936 15.2848C81.6901 14.8681 81.9635 14.5462 82.3139 14.3189C82.6643 14.0893 83.0691 13.9744 83.5284 13.9744C83.8835 13.9744 84.1652 14.0336 84.3736 14.152C84.5843 14.268 84.7453 14.4006 84.8565 14.5497C84.9702 14.6965 85.0578 14.8172 85.1193 14.9119H85.2045V14.0455H86.0142V19.6562C86.0142 20.125 85.9077 20.5062 85.6946 20.7997C85.4839 21.0956 85.1998 21.3123 84.8423 21.4496C84.4872 21.5893 84.0919 21.6591 83.6562 21.6591ZM83.6278 18.6619C83.964 18.6619 84.2481 18.585 84.4801 18.4311C84.7121 18.2772 84.8885 18.0559 85.0092 17.767C85.13 17.4782 85.1903 17.1326 85.1903 16.7301C85.1903 16.3371 85.1312 15.9903 85.0128 15.6896C84.8944 15.389 84.7192 15.1534 84.4872 14.983C84.2552 14.8125 83.9688 14.7273 83.6278 14.7273C83.2727 14.7273 82.9768 14.8172 82.7401 14.9972C82.5057 15.1771 82.3293 15.4186 82.2109 15.7216C82.0949 16.0246 82.0369 16.3608 82.0369 16.7301C82.0369 17.1089 82.0961 17.4439 82.2145 17.7351C82.3352 18.0239 82.5128 18.2512 82.7472 18.4169C82.9839 18.5803 83.2775 18.6619 83.6278 18.6619ZM89.8352 19.6136C89.3097 19.6136 88.8563 19.4976 88.4751 19.2656C88.0964 19.0312 87.804 18.7045 87.598 18.2855C87.3944 17.8641 87.2926 17.3741 87.2926 16.8153C87.2926 16.2566 87.3944 15.7642 87.598 15.3381C87.804 14.9096 88.0904 14.5758 88.4574 14.3366C88.8267 14.0952 89.2576 13.9744 89.75 13.9744C90.0341 13.9744 90.3146 14.0218 90.5916 14.1165C90.8686 14.2112 91.1207 14.3651 91.348 14.5781C91.5753 14.7888 91.7564 15.0682 91.8913 15.4162C92.0263 15.7642 92.0938 16.1927 92.0938 16.7017V17.0568H87.8892V16.3324H91.2415C91.2415 16.0246 91.1799 15.75 91.0568 15.5085C90.9361 15.267 90.7633 15.0765 90.5384 14.9368C90.3158 14.7971 90.053 14.7273 89.75 14.7273C89.4162 14.7273 89.1274 14.8101 88.8835 14.9759C88.642 15.1392 88.4562 15.3523 88.326 15.6151C88.1958 15.8778 88.1307 16.1596 88.1307 16.4602V16.9432C88.1307 17.3551 88.2017 17.7043 88.3438 17.9908C88.4882 18.2749 88.6882 18.4915 88.9439 18.6406C89.1996 18.7874 89.4967 18.8608 89.8352 18.8608C90.0554 18.8608 90.2543 18.83 90.4318 18.7685C90.6117 18.7045 90.7668 18.6098 90.897 18.4844C91.0272 18.3565 91.1278 18.1979 91.1989 18.0085L92.0085 18.2358C91.9233 18.5104 91.7801 18.7519 91.5788 18.9602C91.3776 19.1662 91.129 19.3272 90.8331 19.4432C90.5372 19.5568 90.2045 19.6136 89.8352 19.6136ZM94.2067 16.2188V19.5H93.3686V14.0455H94.1783V14.8977H94.2493C94.3771 14.6207 94.5713 14.3982 94.8317 14.2301C95.0921 14.0597 95.4283 13.9744 95.8402 13.9744C96.2095 13.9744 96.5327 14.0502 96.8097 14.2017C97.0866 14.3509 97.3021 14.5781 97.456 14.8835C97.6098 15.1866 97.6868 15.5701 97.6868 16.0341V19.5H96.8487V16.0909C96.8487 15.6624 96.7375 15.3286 96.5149 15.0895C96.2924 14.848 95.987 14.7273 95.5987 14.7273C95.3312 14.7273 95.0921 14.7853 94.8814 14.9013C94.6731 15.0173 94.5085 15.1866 94.3878 15.4091C94.267 15.6316 94.2067 15.9015 94.2067 16.2188ZM100.823 19.6278C100.478 19.6278 100.164 19.5627 99.8823 19.4325C99.6006 19.3 99.3768 19.1094 99.2111 18.8608C99.0454 18.6098 98.9625 18.3068 98.9625 17.9517C98.9625 17.6392 99.0241 17.3859 99.1472 17.1918C99.2703 16.9953 99.4348 16.8414 99.6408 16.7301C99.8468 16.6188 100.074 16.536 100.323 16.4815C100.574 16.4247 100.826 16.3797 101.079 16.3466C101.41 16.304 101.679 16.272 101.885 16.2507C102.093 16.227 102.245 16.188 102.34 16.1335C102.437 16.0791 102.485 15.9844 102.485 15.8494V15.821C102.485 15.4706 102.389 15.1984 102.198 15.0043C102.008 14.8101 101.721 14.7131 101.335 14.7131C100.935 14.7131 100.621 14.8007 100.394 14.9759C100.166 15.151 100.007 15.3381 99.9142 15.5369L99.1188 15.2528C99.2608 14.9214 99.4502 14.6634 99.687 14.4787C99.9261 14.2917 100.186 14.1615 100.468 14.0881C100.752 14.0123 101.032 13.9744 101.306 13.9744C101.481 13.9744 101.683 13.9957 101.91 14.0384C102.14 14.0786 102.361 14.1626 102.574 14.2905C102.789 14.4183 102.968 14.6113 103.11 14.8693C103.252 15.1274 103.323 15.473 103.323 15.9062V19.5H102.485V18.7614H102.443C102.386 18.8797 102.291 19.0064 102.159 19.1413C102.026 19.2763 101.85 19.3911 101.629 19.4858C101.409 19.5805 101.141 19.6278 100.823 19.6278ZM100.951 18.875C101.283 18.875 101.562 18.8099 101.789 18.6797C102.019 18.5495 102.192 18.3814 102.308 18.1754C102.426 17.9695 102.485 17.7528 102.485 17.5256V16.7585C102.45 16.8011 102.372 16.8402 102.251 16.8757C102.133 16.9089 101.995 16.9384 101.839 16.9645C101.685 16.9882 101.535 17.0095 101.388 17.0284C101.244 17.045 101.126 17.0592 101.036 17.071C100.819 17.0994 100.615 17.1456 100.426 17.2095C100.239 17.2711 100.087 17.3646 99.9711 17.4901C99.8574 17.6132 99.8006 17.7812 99.8006 17.9943C99.8006 18.2855 99.9083 18.5057 100.124 18.6548C100.342 18.8016 100.617 18.875 100.951 18.875ZM104.853 19.5V14.0455H105.663V14.8977H105.734C105.847 14.6065 106.031 14.3804 106.284 14.2195C106.537 14.0561 106.842 13.9744 107.197 13.9744C107.557 13.9744 107.856 14.0561 108.095 14.2195C108.337 14.3804 108.525 14.6065 108.66 14.8977H108.717C108.856 14.616 109.066 14.3923 109.345 14.2266C109.625 14.0585 109.96 13.9744 110.35 13.9744C110.838 13.9744 111.237 14.1271 111.547 14.4325C111.857 14.7356 112.012 15.2079 112.012 15.8494V19.5H111.174V15.8494C111.174 15.447 111.064 15.1593 110.844 14.9865C110.624 14.8137 110.364 14.7273 110.066 14.7273C109.683 14.7273 109.385 14.8433 109.175 15.0753C108.964 15.3049 108.859 15.5961 108.859 15.9489V19.5H108.006V15.7642C108.006 15.4541 107.906 15.2043 107.705 15.0149C107.503 14.8232 107.244 14.7273 106.927 14.7273C106.709 14.7273 106.505 14.7853 106.316 14.9013C106.129 15.0173 105.978 15.1783 105.862 15.3842C105.748 15.5878 105.691 15.8234 105.691 16.0909V19.5H104.853ZM115.831 19.6136C115.306 19.6136 114.852 19.4976 114.471 19.2656C114.092 19.0312 113.8 18.7045 113.594 18.2855C113.391 17.8641 113.289 17.3741 113.289 16.8153C113.289 16.2566 113.391 15.7642 113.594 15.3381C113.8 14.9096 114.087 14.5758 114.453 14.3366C114.823 14.0952 115.254 13.9744 115.746 13.9744C116.03 13.9744 116.311 14.0218 116.588 14.1165C116.865 14.2112 117.117 14.3651 117.344 14.5781C117.571 14.7888 117.752 15.0682 117.887 15.4162C118.022 15.7642 118.09 16.1927 118.09 16.7017V17.0568H113.885V16.3324H117.238C117.238 16.0246 117.176 15.75 117.053 15.5085C116.932 15.267 116.759 15.0765 116.534 14.9368C116.312 14.7971 116.049 14.7273 115.746 14.7273C115.412 14.7273 115.123 14.8101 114.88 14.9759C114.638 15.1392 114.452 15.3523 114.322 15.6151C114.192 15.8778 114.127 16.1596 114.127 16.4602V16.9432C114.127 17.3551 114.198 17.7043 114.34 17.9908C114.484 18.2749 114.684 18.4915 114.94 18.6406C115.196 18.7874 115.493 18.8608 115.831 18.8608C116.051 18.8608 116.25 18.83 116.428 18.7685C116.608 18.7045 116.763 18.6098 116.893 18.4844C117.023 18.3565 117.124 18.1979 117.195 18.0085L118.005 18.2358C117.919 18.5104 117.776 18.7519 117.575 18.9602C117.374 19.1662 117.125 19.3272 116.829 19.4432C116.533 19.5568 116.201 19.6136 115.831 19.6136ZM119.975 19.5568C119.8 19.5568 119.65 19.4941 119.525 19.3686C119.399 19.2431 119.336 19.0928 119.336 18.9176C119.336 18.7424 119.399 18.5921 119.525 18.4666C119.65 18.3411 119.8 18.2784 119.975 18.2784C120.151 18.2784 120.301 18.3411 120.426 18.4666C120.552 18.5921 120.615 18.7424 120.615 18.9176C120.615 19.0336 120.585 19.1402 120.526 19.2372C120.469 19.3343 120.392 19.4124 120.295 19.4716C120.2 19.5284 120.094 19.5568 119.975 19.5568ZM124.178 19.6136C123.724 19.6136 123.322 19.4988 122.974 19.2692C122.626 19.0372 122.354 18.7105 122.158 18.2891C121.961 17.8653 121.863 17.3646 121.863 16.7869C121.863 16.214 121.961 15.7169 122.158 15.2955C122.354 14.8741 122.628 14.5485 122.978 14.3189C123.328 14.0893 123.733 13.9744 124.192 13.9744C124.548 13.9744 124.828 14.0336 125.034 14.152C125.242 14.268 125.401 14.4006 125.51 14.5497C125.621 14.6965 125.708 14.8172 125.769 14.9119H125.84V12.2273H126.678V19.5H125.869V18.6619H125.769C125.708 18.7614 125.62 18.8868 125.506 19.0384C125.393 19.1875 125.231 19.3213 125.02 19.4396C124.809 19.5556 124.529 19.6136 124.178 19.6136ZM124.292 18.8608C124.628 18.8608 124.912 18.7732 125.144 18.598C125.376 18.4205 125.553 18.1754 125.673 17.8629C125.794 17.5481 125.854 17.1847 125.854 16.7727C125.854 16.3655 125.795 16.0092 125.677 15.7038C125.558 15.3961 125.383 15.157 125.151 14.9865C124.919 14.8137 124.633 14.7273 124.292 14.7273C123.937 14.7273 123.641 14.8184 123.404 15.0007C123.17 15.1806 122.993 15.4257 122.875 15.7358C122.759 16.0436 122.701 16.3892 122.701 16.7727C122.701 17.161 122.76 17.5137 122.879 17.831C122.999 18.1458 123.177 18.3968 123.411 18.5838C123.648 18.7685 123.942 18.8608 124.292 18.8608ZM129.565 19.5L127.903 14.0455H128.784L129.963 18.2216H130.02L131.185 14.0455H132.08L133.23 18.2074H133.287L134.466 14.0455H135.347L133.685 19.5H132.861L131.668 15.3097H131.582L130.389 19.5H129.565ZM138.471 21.6591C138.066 21.6591 137.718 21.607 137.427 21.5028C137.135 21.401 136.893 21.2661 136.699 21.098C136.507 20.9323 136.354 20.7547 136.241 20.5653L136.908 20.0966C136.984 20.196 137.08 20.3097 137.196 20.4375C137.312 20.5677 137.47 20.6802 137.672 20.7749C137.875 20.8719 138.142 20.9205 138.471 20.9205C138.911 20.9205 139.274 20.8139 139.561 20.6009C139.847 20.3878 139.991 20.054 139.991 19.5994V18.4915H139.92C139.858 18.5909 139.77 18.714 139.657 18.8608C139.546 19.0052 139.385 19.1342 139.174 19.2479C138.965 19.3591 138.684 19.4148 138.329 19.4148C137.888 19.4148 137.493 19.3106 137.143 19.1023C136.795 18.8939 136.519 18.5909 136.315 18.1932C136.114 17.7955 136.013 17.3125 136.013 16.7443C136.013 16.1856 136.112 15.6991 136.308 15.2848C136.505 14.8681 136.778 14.5462 137.128 14.3189C137.479 14.0893 137.884 13.9744 138.343 13.9744C138.698 13.9744 138.98 14.0336 139.188 14.152C139.399 14.268 139.56 14.4006 139.671 14.5497C139.785 14.6965 139.872 14.8172 139.934 14.9119H140.019V14.0455H140.829V19.6562C140.829 20.125 140.722 20.5062 140.509 20.7997C140.298 21.0956 140.014 21.3123 139.657 21.4496C139.302 21.5893 138.906 21.6591 138.471 21.6591ZM138.442 18.6619C138.778 18.6619 139.063 18.585 139.295 18.4311C139.527 18.2772 139.703 18.0559 139.824 17.767C139.944 17.4782 140.005 17.1326 140.005 16.7301C140.005 16.3371 139.946 15.9903 139.827 15.6896C139.709 15.389 139.534 15.1534 139.302 14.983C139.07 14.8125 138.783 14.7273 138.442 14.7273C138.087 14.7273 137.791 14.8172 137.555 14.9972C137.32 15.1771 137.144 15.4186 137.025 15.7216C136.909 16.0246 136.851 16.3608 136.851 16.7301C136.851 17.1089 136.911 17.4439 137.029 17.7351C137.15 18.0239 137.327 18.2512 137.562 18.4169C137.798 18.5803 138.092 18.6619 138.442 18.6619Z" fill="var(--colors-neutral-neutral-800)"/>
<path d="M260 16C260 20.9706 255.971 25 251 25C246.029 25 242 20.9706 242 16C242 11.0294 246.029 7 251 7C255.971 7 260 11.0294 260 16ZM243.8 16C243.8 19.9764 247.024 23.2 251 23.2C254.976 23.2 258.2 19.9764 258.2 16C258.2 12.0235 254.976 8.8 251 8.8C247.024 8.8 243.8 12.0235 243.8 16Z" fill="var(--colors-neutral-neutral-300)"/>
<path d="M251 7C253.387 7 255.676 7.94821 257.364 9.63604C259.052 11.3239 260 13.6131 260 16H258.2C258.2 14.0904 257.441 12.2591 256.091 10.9088C254.741 9.55857 252.91 8.8 251 8.8V7Z" fill="var(--colors-neutral-neutral-800)"/>
<path d="M276.4 20.3077L280 16.7077L283.6 20.3077L284.308 19.6L280.708 16L284.308 12.4L283.6 11.6923L280 15.2923L276.4 11.6923L275.692 12.4L279.292 16L275.692 19.6L276.4 20.3077ZM280.003 25C278.759 25 277.589 24.7638 276.493 24.2915C275.397 23.8192 274.444 23.1782 273.634 22.3685C272.824 21.5588 272.182 20.6066 271.709 19.512C271.236 18.4174 271 17.2479 271 16.0033C271 14.7588 271.236 13.5887 271.708 12.4931C272.181 11.3975 272.822 10.4444 273.632 9.63398C274.441 8.82353 275.393 8.18192 276.488 7.70915C277.583 7.23638 278.752 7 279.997 7C281.241 7 282.411 7.23616 283.507 7.70848C284.603 8.18081 285.556 8.82182 286.366 9.63152C287.176 10.4412 287.818 11.3934 288.291 12.488C288.764 13.5826 289 14.7521 289 15.9967C289 17.2412 288.764 18.4113 288.292 19.5069C287.819 20.6025 287.178 21.5556 286.368 22.366C285.559 23.1765 284.607 23.8181 283.512 24.2908C282.417 24.7636 281.248 25 280.003 25ZM280 24C282.233 24 284.125 23.225 285.675 21.675C287.225 20.125 288 18.2333 288 16C288 13.7667 287.225 11.875 285.675 10.325C284.125 8.775 282.233 8 280 8C277.767 8 275.875 8.775 274.325 10.325C272.775 11.875 272 13.7667 272 16C272 18.2333 272.775 20.125 274.325 21.675C275.875 23.225 277.767 24 280 24Z" fill="var(--colors-neutral-neutral-800)"/>
</svg>
