<svg width="304" height="256" viewBox="0 0 304 256" fill="none" xmlns="http://www.w3.org/2000/svg">
<path d="M17.179 12.2273L19.3381 18.3494H19.4233L21.5824 12.2273H22.5057L19.8352 19.5H18.9261L16.2557 12.2273H17.179ZM25.304 19.6136C24.7784 19.6136 24.325 19.4976 23.9439 19.2656C23.5651 19.0312 23.2727 18.7045 23.0668 18.2855C22.8632 17.8641 22.7614 17.3741 22.7614 16.8153C22.7614 16.2566 22.8632 15.7642 23.0668 15.3381C23.2727 14.9096 23.5592 14.5758 23.9261 14.3366C24.2955 14.0952 24.7263 13.9744 25.2188 13.9744C25.5028 13.9744 25.7834 14.0218 26.0604 14.1165C26.3374 14.2112 26.5895 14.3651 26.8168 14.5781C27.044 14.7888 27.2251 15.0682 27.3601 15.4162C27.495 15.7642 27.5625 16.1927 27.5625 16.7017V17.0568H23.358V16.3324H26.7102C26.7102 16.0246 26.6487 15.75 26.5256 15.5085C26.4048 15.267 26.232 15.0765 26.0071 14.9368C25.7846 14.7971 25.5218 14.7273 25.2188 14.7273C24.8849 14.7273 24.5961 14.8101 24.3523 14.9759C24.1108 15.1392 23.925 15.3523 23.7947 15.6151C23.6645 15.8778 23.5994 16.1596 23.5994 16.4602V16.9432C23.5994 17.3551 23.6705 17.7043 23.8125 17.9908C23.9569 18.2749 24.157 18.4915 24.4126 18.6406C24.6683 18.7874 24.9654 18.8608 25.304 18.8608C25.5241 18.8608 25.723 18.83 25.9006 18.7685C26.0805 18.7045 26.2356 18.6098 26.3658 18.4844C26.496 18.3565 26.5966 18.1979 26.6676 18.0085L27.4773 18.2358C27.392 18.5104 27.2488 18.7519 27.0476 18.9602C26.8464 19.1662 26.5978 19.3272 26.3018 19.4432C26.0059 19.5568 25.6733 19.6136 25.304 19.6136ZM29.6754 16.2188V19.5H28.8374V12.2273H29.6754V14.8977H29.7464C29.8743 14.616 30.0661 14.3923 30.3217 14.2266C30.5798 14.0585 30.9231 13.9744 31.3516 13.9744C31.7232 13.9744 32.0488 14.049 32.3281 14.1982C32.6075 14.3449 32.8241 14.571 32.978 14.8764C33.1342 15.1795 33.2124 15.5653 33.2124 16.0341V19.5H32.3743V16.0909C32.3743 15.6577 32.2618 15.3227 32.0369 15.0859C31.8144 14.8468 31.5054 14.7273 31.1101 14.7273C30.8355 14.7273 30.5893 14.7853 30.3714 14.9013C30.156 15.0173 29.9856 15.1866 29.8601 15.4091C29.737 15.6316 29.6754 15.9015 29.6754 16.2188ZM34.7456 19.5V14.0455H35.5836V19.5H34.7456ZM35.1717 13.1364C35.0083 13.1364 34.8675 13.0807 34.7491 12.9695C34.6331 12.8582 34.5751 12.7244 34.5751 12.5682C34.5751 12.4119 34.6331 12.2782 34.7491 12.1669C34.8675 12.0556 35.0083 12 35.1717 12C35.335 12 35.4747 12.0556 35.5907 12.1669C35.7091 12.2782 35.7683 12.4119 35.7683 12.5682C35.7683 12.7244 35.7091 12.8582 35.5907 12.9695C35.4747 13.0807 35.335 13.1364 35.1717 13.1364ZM39.3345 19.6136C38.8232 19.6136 38.3828 19.4929 38.0135 19.2514C37.6442 19.0099 37.3601 18.6773 37.1612 18.2536C36.9624 17.8298 36.8629 17.3456 36.8629 16.8011C36.8629 16.2472 36.9647 15.7583 37.1683 15.3345C37.3743 14.9084 37.6607 14.5758 38.0277 14.3366C38.397 14.0952 38.8279 13.9744 39.3203 13.9744C39.7038 13.9744 40.0495 14.0455 40.3572 14.1875C40.665 14.3295 40.9171 14.5284 41.1136 14.7841C41.3101 15.0398 41.4321 15.3381 41.4794 15.679H40.6413C40.5774 15.4304 40.4354 15.2102 40.2152 15.0185C39.9974 14.8243 39.7038 14.7273 39.3345 14.7273C39.0078 14.7273 38.7214 14.8125 38.4751 14.983C38.2313 15.151 38.0407 15.389 37.9034 15.6967C37.7685 16.0021 37.701 16.3608 37.701 16.7727C37.701 17.1941 37.7673 17.5611 37.8999 17.8736C38.0348 18.1861 38.2242 18.4287 38.468 18.6016C38.7143 18.7744 39.0031 18.8608 39.3345 18.8608C39.5523 18.8608 39.75 18.8229 39.9276 18.7472C40.1051 18.6714 40.2554 18.5625 40.3786 18.4205C40.5017 18.2784 40.5893 18.108 40.6413 17.9091H41.4794C41.4321 18.2311 41.3149 18.5211 41.1278 18.7791C40.9432 19.0348 40.6982 19.2384 40.3928 19.3899C40.0897 19.5391 39.737 19.6136 39.3345 19.6136ZM43.5426 12.2273V19.5H42.7045V12.2273H43.5426ZM47.3645 19.6136C46.839 19.6136 46.3856 19.4976 46.0044 19.2656C45.6257 19.0312 45.3333 18.7045 45.1273 18.2855C44.9237 17.8641 44.8219 17.3741 44.8219 16.8153C44.8219 16.2566 44.9237 15.7642 45.1273 15.3381C45.3333 14.9096 45.6197 14.5758 45.9867 14.3366C46.356 14.0952 46.7869 13.9744 47.2793 13.9744C47.5634 13.9744 47.8439 14.0218 48.1209 14.1165C48.3979 14.2112 48.65 14.3651 48.8773 14.5781C49.1046 14.7888 49.2857 15.0682 49.4206 15.4162C49.5556 15.7642 49.623 16.1927 49.623 16.7017V17.0568H45.4185V16.3324H48.7708C48.7708 16.0246 48.7092 15.75 48.5861 15.5085C48.4654 15.267 48.2926 15.0765 48.0676 14.9368C47.8451 14.7971 47.5823 14.7273 47.2793 14.7273C46.9455 14.7273 46.6567 14.8101 46.4128 14.9759C46.1713 15.1392 45.9855 15.3523 45.8553 15.6151C45.7251 15.8778 45.66 16.1596 45.66 16.4602V16.9432C45.66 17.3551 45.731 17.7043 45.873 17.9908C46.0175 18.2749 46.2175 18.4915 46.4732 18.6406C46.7289 18.7874 47.026 18.8608 47.3645 18.8608C47.5847 18.8608 47.7836 18.83 47.9611 18.7685C48.141 18.7045 48.2961 18.6098 48.4263 18.4844C48.5565 18.3565 48.6571 18.1979 48.7282 18.0085L49.5378 18.2358C49.4526 18.5104 49.3094 18.7519 49.1081 18.9602C48.9069 19.1662 48.6583 19.3272 48.3624 19.4432C48.0665 19.5568 47.7338 19.6136 47.3645 19.6136Z" fill="#222222"/>
<path d="M145.179 19.5H144.256L146.926 12.2273H147.835L150.506 19.5H149.582L147.409 13.3778H147.352L145.179 19.5ZM145.52 16.6591H149.241V17.4403H145.52V16.6591ZM156.268 14.5C156.19 14.2609 156.087 14.0466 155.959 13.8572C155.834 13.6655 155.684 13.5021 155.508 13.3672C155.336 13.2322 155.139 13.1293 154.919 13.0582C154.699 12.9872 154.457 12.9517 154.194 12.9517C153.764 12.9517 153.372 13.063 153.019 13.2855C152.666 13.508 152.386 13.8359 152.177 14.2692C151.969 14.7024 151.865 15.2339 151.865 15.8636C151.865 16.4934 151.97 17.0249 152.181 17.4581C152.392 17.8913 152.677 18.2192 153.037 18.4418C153.397 18.6643 153.801 18.7756 154.251 18.7756C154.668 18.7756 155.035 18.6868 155.352 18.5092C155.672 18.3293 155.92 18.076 156.098 17.7493C156.278 17.4202 156.368 17.0331 156.368 16.5881L156.638 16.6449H154.45V15.8636H157.22V16.6449C157.22 17.2438 157.092 17.7647 156.836 18.2074C156.583 18.6501 156.233 18.9934 155.785 19.2372C155.34 19.4787 154.829 19.5994 154.251 19.5994C153.607 19.5994 153.041 19.4479 152.554 19.1449C152.068 18.8419 151.69 18.411 151.417 17.8523C151.148 17.2936 151.013 16.6307 151.013 15.8636C151.013 15.2884 151.09 14.7711 151.243 14.3118C151.4 13.8501 151.62 13.4571 151.904 13.1328C152.188 12.8085 152.524 12.5599 152.912 12.3871C153.301 12.2143 153.728 12.1278 154.194 12.1278C154.578 12.1278 154.935 12.1858 155.267 12.3018C155.601 12.4155 155.898 12.5777 156.158 12.7884C156.421 12.9967 156.64 13.2464 156.815 13.5376C156.99 13.8265 157.111 14.1473 157.177 14.5H156.268ZM158.728 19.5V12.2273H163.089V13.0085H159.609V15.4659H162.762V16.2472H159.609V19.5H158.728ZM167.906 19.5V20.2812H163.361V19.5H167.906ZM170.52 19.5994C170.032 19.5994 169.601 19.513 169.227 19.3402C168.856 19.165 168.566 18.9247 168.357 18.6193C168.149 18.3116 168.046 17.9612 168.048 17.5682C168.046 17.2604 168.106 16.9763 168.229 16.7159C168.353 16.4531 168.521 16.2341 168.734 16.0589C168.949 15.8814 169.189 15.7689 169.455 15.7216V15.679C169.107 15.589 168.83 15.3937 168.624 15.093C168.418 14.79 168.316 14.4455 168.318 14.0597C168.316 13.6903 168.409 13.3601 168.599 13.0689C168.788 12.7777 169.049 12.5481 169.38 12.38C169.714 12.2119 170.094 12.1278 170.52 12.1278C170.941 12.1278 171.318 12.2119 171.649 12.38C171.981 12.5481 172.241 12.7777 172.43 13.0689C172.622 13.3601 172.719 13.6903 172.722 14.0597C172.719 14.4455 172.614 14.79 172.406 15.093C172.2 15.3937 171.926 15.589 171.585 15.679V15.7216C171.848 15.7689 172.085 15.8814 172.295 16.0589C172.506 16.2341 172.674 16.4531 172.8 16.7159C172.925 16.9763 172.989 17.2604 172.991 17.5682C172.989 17.9612 172.883 18.3116 172.672 18.6193C172.464 18.9247 172.174 19.165 171.802 19.3402C171.433 19.513 171.005 19.5994 170.52 19.5994ZM170.52 18.8182C170.849 18.8182 171.133 18.7649 171.372 18.6584C171.611 18.5518 171.796 18.4015 171.926 18.2074C172.056 18.0133 172.123 17.786 172.125 17.5256C172.123 17.2509 172.052 17.0083 171.912 16.7976C171.772 16.5869 171.582 16.4212 171.34 16.3004C171.101 16.1797 170.828 16.1193 170.52 16.1193C170.21 16.1193 169.933 16.1797 169.689 16.3004C169.447 16.4212 169.257 16.5869 169.117 16.7976C168.98 17.0083 168.912 17.2509 168.915 17.5256C168.912 17.786 168.975 18.0133 169.103 18.2074C169.233 18.4015 169.419 18.5518 169.661 18.6584C169.902 18.7649 170.188 18.8182 170.52 18.8182ZM170.52 15.3665C170.78 15.3665 171.011 15.3144 171.212 15.2102C171.416 15.1061 171.576 14.9605 171.692 14.7734C171.808 14.5864 171.867 14.3674 171.869 14.1165C171.867 13.8703 171.809 13.656 171.695 13.4737C171.582 13.2891 171.424 13.147 171.223 13.0476C171.022 12.9458 170.787 12.8949 170.52 12.8949C170.248 12.8949 170.01 12.9458 169.806 13.0476C169.603 13.147 169.445 13.2891 169.334 13.4737C169.223 13.656 169.168 13.8703 169.17 14.1165C169.168 14.3674 169.224 14.5864 169.337 14.7734C169.453 14.9605 169.613 15.1061 169.817 15.2102C170.02 15.3144 170.255 15.3665 170.52 15.3665ZM174.779 19.5H173.855L176.526 12.2273H177.435L180.105 19.5H179.182L177.009 13.3778H176.952L174.779 19.5ZM175.119 16.6591H178.841V17.4403H175.119V16.6591ZM181.238 19.5V12.2273H185.599V13.0085H182.119V15.4659H185.272V16.2472H182.119V19.5H181.238ZM187.107 19.5V12.2273H189.65C190.156 12.2273 190.574 12.3149 190.903 12.4901C191.232 12.6629 191.478 12.8961 191.638 13.1896C191.799 13.4808 191.88 13.804 191.88 14.1591C191.88 14.4716 191.824 14.7296 191.713 14.9332C191.604 15.1368 191.46 15.2978 191.28 15.4162C191.102 15.5346 190.909 15.6222 190.701 15.679V15.75C190.924 15.7642 191.147 15.8423 191.372 15.9844C191.597 16.1264 191.785 16.33 191.937 16.5952C192.088 16.8603 192.164 17.1847 192.164 17.5682C192.164 17.9328 192.081 18.2607 191.915 18.5518C191.75 18.843 191.488 19.0739 191.131 19.2443C190.773 19.4148 190.308 19.5 189.735 19.5H187.107ZM187.988 18.7188H189.735C190.31 18.7188 190.719 18.6075 190.96 18.3849C191.204 18.16 191.326 17.8878 191.326 17.5682C191.326 17.322 191.263 17.0947 191.138 16.8864C191.012 16.6757 190.834 16.5076 190.602 16.3821C190.37 16.2543 190.095 16.1903 189.778 16.1903H187.988V18.7188ZM187.988 15.4233H189.621C189.887 15.4233 190.126 15.3712 190.339 15.267C190.554 15.1629 190.725 15.0161 190.85 14.8267C190.978 14.6373 191.042 14.4148 191.042 14.1591C191.042 13.8395 190.931 13.5684 190.708 13.3459C190.486 13.121 190.133 13.0085 189.65 13.0085H187.988V15.4233ZM193.611 19.5V12.2273H196.069C196.637 12.2273 197.103 12.3243 197.468 12.5185C197.832 12.7102 198.102 12.9742 198.277 13.3104C198.453 13.6465 198.54 14.0289 198.54 14.4574C198.54 14.8859 198.453 15.2659 198.277 15.5973C198.102 15.9287 197.833 16.1892 197.471 16.3786C197.109 16.5656 196.646 16.6591 196.083 16.6591H194.094V15.8636H196.054C196.443 15.8636 196.755 15.8068 196.992 15.6932C197.231 15.5795 197.404 15.4186 197.51 15.2102C197.619 14.9995 197.674 14.7486 197.674 14.4574C197.674 14.1662 197.619 13.9117 197.51 13.6939C197.401 13.4761 197.227 13.308 196.988 13.1896C196.749 13.0689 196.433 13.0085 196.04 13.0085H194.492V19.5H193.611ZM197.034 16.233L198.824 19.5H197.801L196.04 16.233H197.034ZM202.337 19.5994C201.868 19.5994 201.451 19.5189 201.084 19.358C200.719 19.197 200.429 18.9732 200.214 18.6868C200.001 18.398 199.885 18.063 199.866 17.6818H200.76C200.779 17.9162 200.86 18.1186 201.002 18.2891C201.144 18.4571 201.33 18.5874 201.559 18.6797C201.789 18.772 202.044 18.8182 202.323 18.8182C202.635 18.8182 202.912 18.7637 203.154 18.6548C203.395 18.5459 203.585 18.3944 203.722 18.2003C203.859 18.0062 203.928 17.7812 203.928 17.5256C203.928 17.258 203.862 17.0225 203.729 16.8189C203.597 16.6129 203.403 16.4519 203.147 16.3359C202.891 16.2199 202.579 16.1619 202.209 16.1619H201.627V15.3807H202.209C202.498 15.3807 202.751 15.3286 202.969 15.2244C203.189 15.1203 203.361 14.9735 203.484 14.7841C203.61 14.5947 203.672 14.3722 203.672 14.1165C203.672 13.8703 203.618 13.656 203.509 13.4737C203.4 13.2914 203.246 13.1494 203.047 13.0476C202.851 12.9458 202.619 12.8949 202.351 12.8949C202.1 12.8949 201.864 12.9411 201.641 13.0334C201.421 13.1233 201.241 13.2547 201.101 13.4276C200.962 13.598 200.886 13.804 200.874 14.0455H200.022C200.036 13.6643 200.151 13.3305 200.366 13.044C200.582 12.7552 200.863 12.5303 201.211 12.3693C201.562 12.2083 201.947 12.1278 202.366 12.1278C202.815 12.1278 203.201 12.219 203.523 12.4013C203.845 12.5812 204.093 12.8191 204.265 13.1151C204.438 13.411 204.525 13.7306 204.525 14.0739C204.525 14.4834 204.417 14.8326 204.202 15.1214C203.988 15.4103 203.698 15.6103 203.331 15.7216V15.7784C203.791 15.8542 204.149 16.0495 204.407 16.3643C204.666 16.6768 204.795 17.0639 204.795 17.5256C204.795 17.9209 204.687 18.276 204.471 18.5909C204.258 18.9034 203.967 19.1496 203.598 19.3295C203.229 19.5095 202.808 19.5994 202.337 19.5994ZM208.619 19.5994C208.084 19.5994 207.628 19.4538 207.252 19.1626C206.876 18.8691 206.588 18.4441 206.389 17.8878C206.19 17.3291 206.091 16.6544 206.091 15.8636C206.091 15.0777 206.19 14.4065 206.389 13.8501C206.59 13.2914 206.879 12.8653 207.256 12.5717C207.634 12.2758 208.089 12.1278 208.619 12.1278C209.149 12.1278 209.603 12.2758 209.979 12.5717C210.358 12.8653 210.647 13.2914 210.846 13.8501C211.047 14.4065 211.148 15.0777 211.148 15.8636C211.148 16.6544 211.048 17.3291 210.849 17.8878C210.65 18.4441 210.363 18.8691 209.986 19.1626C209.61 19.4538 209.154 19.5994 208.619 19.5994ZM208.619 18.8182C209.149 18.8182 209.561 18.5625 209.855 18.0511C210.148 17.5398 210.295 16.8106 210.295 15.8636C210.295 15.2339 210.228 14.6977 210.093 14.255C209.96 13.8123 209.769 13.4749 209.518 13.2429C209.269 13.0109 208.97 12.8949 208.619 12.8949C208.094 12.8949 207.683 13.1541 207.387 13.6726C207.091 14.1887 206.943 14.919 206.943 15.8636C206.943 16.4934 207.009 17.0284 207.142 17.4688C207.274 17.9091 207.465 18.2441 207.714 18.4737C207.965 18.7034 208.266 18.8182 208.619 18.8182Z" fill="#222222"/>
<path d="M221 17.8013L217.461 14.2628L217.933 13.791L221 16.8577L224.067 13.791L224.538 14.2628L221 17.8013Z" fill="#D9D9D9"/>
<path d="M22.733 46.5H21.8523C21.8002 46.2467 21.709 46.0241 21.5788 45.8324C21.451 45.6406 21.2947 45.4796 21.1101 45.3494C20.9278 45.2169 20.7254 45.1174 20.5028 45.0511C20.2803 44.9848 20.0483 44.9517 19.8068 44.9517C19.3665 44.9517 18.9676 45.063 18.6101 45.2855C18.255 45.508 17.9721 45.8359 17.7614 46.2692C17.553 46.7024 17.4489 47.2339 17.4489 47.8636C17.4489 48.4934 17.553 49.0249 17.7614 49.4581C17.9721 49.8913 18.255 50.2192 18.6101 50.4418C18.9676 50.6643 19.3665 50.7756 19.8068 50.7756C20.0483 50.7756 20.2803 50.7424 20.5028 50.6761C20.7254 50.6098 20.9278 50.5116 21.1101 50.3814C21.2947 50.2488 21.451 50.0866 21.5788 49.8949C21.709 49.7008 21.8002 49.4782 21.8523 49.2273H22.733C22.6667 49.599 22.5459 49.9316 22.3707 50.2251C22.1955 50.5187 21.9777 50.7685 21.7173 50.9744C21.4569 51.178 21.1645 51.3331 20.8402 51.4396C20.5182 51.5462 20.1738 51.5994 19.8068 51.5994C19.1866 51.5994 18.6349 51.4479 18.152 51.1449C17.669 50.8419 17.2891 50.411 17.0121 49.8523C16.7351 49.2936 16.5966 48.6307 16.5966 47.8636C16.5966 47.0966 16.7351 46.4337 17.0121 45.875C17.2891 45.3163 17.669 44.8854 18.152 44.5824C18.6349 44.2794 19.1866 44.1278 19.8068 44.1278C20.1738 44.1278 20.5182 44.1811 20.8402 44.2876C21.1645 44.3942 21.4569 44.5504 21.7173 44.7564C21.9777 44.96 22.1955 45.2086 22.3707 45.5021C22.5459 45.7933 22.6667 46.1259 22.733 46.5ZM25.6475 51.6278C25.3019 51.6278 24.9882 51.5627 24.7065 51.4325C24.4248 51.3 24.2011 51.1094 24.0353 50.8608C23.8696 50.6098 23.7868 50.3068 23.7868 49.9517C23.7868 49.6392 23.8483 49.3859 23.9714 49.1918C24.0945 48.9953 24.2591 48.8414 24.465 48.7301C24.671 48.6188 24.8983 48.536 25.1468 48.4815C25.3978 48.4247 25.6499 48.3797 25.9032 48.3466C26.2347 48.304 26.5034 48.272 26.7093 48.2507C26.9177 48.227 27.0692 48.188 27.1639 48.1335C27.2609 48.0791 27.3095 47.9844 27.3095 47.8494V47.821C27.3095 47.4706 27.2136 47.1984 27.0218 47.0043C26.8324 46.8101 26.5448 46.7131 26.1589 46.7131C25.7588 46.7131 25.4451 46.8007 25.2179 46.9759C24.9906 47.151 24.8308 47.3381 24.7385 47.5369L23.943 47.2528C24.085 46.9214 24.2744 46.6634 24.5112 46.4787C24.7503 46.2917 25.0107 46.1615 25.2924 46.0881C25.5765 46.0123 25.8559 45.9744 26.1305 45.9744C26.3057 45.9744 26.5069 45.9957 26.7342 46.0384C26.9638 46.0786 27.1852 46.1626 27.3983 46.2905C27.6137 46.4183 27.7924 46.6113 27.9345 46.8693C28.0765 47.1274 28.1475 47.473 28.1475 47.9062V51.5H27.3095V50.7614H27.2669C27.21 50.8797 27.1154 51.0064 26.9828 51.1413C26.8502 51.2763 26.6738 51.3911 26.4537 51.4858C26.2335 51.5805 25.9648 51.6278 25.6475 51.6278ZM25.7754 50.875C26.1068 50.875 26.3862 50.8099 26.6135 50.6797C26.8431 50.5495 27.0159 50.3814 27.1319 50.1754C27.2503 49.9695 27.3095 49.7528 27.3095 49.5256V48.7585C27.274 48.8011 27.1958 48.8402 27.0751 48.8757C26.9567 48.9089 26.8194 48.9384 26.6632 48.9645C26.5093 48.9882 26.359 49.0095 26.2122 49.0284C26.0678 49.045 25.9506 49.0592 25.8606 49.071C25.6428 49.0994 25.4392 49.1456 25.2498 49.2095C25.0628 49.2711 24.9113 49.3646 24.7953 49.4901C24.6816 49.6132 24.6248 49.7812 24.6248 49.9943C24.6248 50.2855 24.7325 50.5057 24.948 50.6548C25.1658 50.8016 25.4416 50.875 25.7754 50.875ZM29.6772 51.5V46.0455H30.4869V46.8693H30.5437C30.6431 46.5994 30.823 46.3804 31.0835 46.2124C31.3439 46.0443 31.6374 45.9602 31.9641 45.9602C32.0257 45.9602 32.1026 45.9614 32.195 45.9638C32.2873 45.9661 32.3571 45.9697 32.4045 45.9744V46.8267C32.3761 46.8196 32.311 46.8089 32.2092 46.7947C32.1097 46.7782 32.0044 46.7699 31.8931 46.7699C31.628 46.7699 31.3912 46.8255 31.1829 46.9368C30.9769 47.0457 30.8136 47.1972 30.6928 47.3913C30.5745 47.5831 30.5153 47.8021 30.5153 48.0483V51.5H29.6772ZM33.3979 51.5V46.0455H34.2076V46.8693H34.2644C34.3638 46.5994 34.5437 46.3804 34.8042 46.2124C35.0646 46.0443 35.3581 45.9602 35.6848 45.9602C35.7464 45.9602 35.8233 45.9614 35.9157 45.9638C36.008 45.9661 36.0778 45.9697 36.1252 45.9744V46.8267C36.0968 46.8196 36.0317 46.8089 35.9299 46.7947C35.8304 46.7782 35.7251 46.7699 35.6138 46.7699C35.3487 46.7699 35.1119 46.8255 34.9036 46.9368C34.6976 47.0457 34.5343 47.1972 34.4135 47.3913C34.2952 47.5831 34.236 47.8021 34.236 48.0483V51.5H33.3979ZM37.1186 51.5V46.0455H37.9567V51.5H37.1186ZM37.5447 45.1364C37.3814 45.1364 37.2405 45.0807 37.1222 44.9695C37.0062 44.8582 36.9482 44.7244 36.9482 44.5682C36.9482 44.4119 37.0062 44.2782 37.1222 44.1669C37.2405 44.0556 37.3814 44 37.5447 44C37.7081 44 37.8478 44.0556 37.9638 44.1669C38.0821 44.2782 38.1413 44.4119 38.1413 44.5682C38.1413 44.7244 38.0821 44.8582 37.9638 44.9695C37.8478 45.0807 37.7081 45.1364 37.5447 45.1364ZM41.7786 51.6136C41.253 51.6136 40.7997 51.4976 40.4185 51.2656C40.0397 51.0312 39.7473 50.7045 39.5414 50.2855C39.3378 49.8641 39.236 49.3741 39.236 48.8153C39.236 48.2566 39.3378 47.7642 39.5414 47.3381C39.7473 46.9096 40.0338 46.5758 40.4007 46.3366C40.7701 46.0952 41.2009 45.9744 41.6934 45.9744C41.9775 45.9744 42.258 46.0218 42.535 46.1165C42.812 46.2112 43.0641 46.3651 43.2914 46.5781C43.5186 46.7888 43.6998 47.0682 43.8347 47.4162C43.9696 47.7642 44.0371 48.1927 44.0371 48.7017V49.0568H39.8326V48.3324H43.1848C43.1848 48.0246 43.1233 47.75 43.0002 47.5085C42.8794 47.267 42.7066 47.0765 42.4817 46.9368C42.2592 46.7971 41.9964 46.7273 41.6934 46.7273C41.3596 46.7273 41.0707 46.8101 40.8269 46.9759C40.5854 47.1392 40.3996 47.3523 40.2694 47.6151C40.1391 47.8778 40.074 48.1596 40.074 48.4602V48.9432C40.074 49.3551 40.1451 49.7043 40.2871 49.9908C40.4315 50.2749 40.6316 50.4915 40.8873 50.6406C41.1429 50.7874 41.44 50.8608 41.7786 50.8608C41.9988 50.8608 42.1976 50.83 42.3752 50.7685C42.5551 50.7045 42.7102 50.6098 42.8404 50.4844C42.9706 50.3565 43.0712 50.1979 43.1422 50.0085L43.9519 50.2358C43.8667 50.5104 43.7234 50.7519 43.5222 50.9602C43.321 51.1662 43.0724 51.3272 42.7765 51.4432C42.4805 51.5568 42.1479 51.6136 41.7786 51.6136ZM45.312 51.5V46.0455H46.1216V46.8693H46.1784C46.2779 46.5994 46.4578 46.3804 46.7182 46.2124C46.9786 46.0443 47.2722 45.9602 47.5989 45.9602C47.6605 45.9602 47.7374 45.9614 47.8297 45.9638C47.9221 45.9661 47.9919 45.9697 48.0392 45.9744V46.8267C48.0108 46.8196 47.9457 46.8089 47.8439 46.7947C47.7445 46.7782 47.6391 46.7699 47.5279 46.7699C47.2627 46.7699 47.026 46.8255 46.8176 46.9368C46.6117 47.0457 46.4483 47.1972 46.3276 47.3913C46.2092 47.5831 46.15 47.8021 46.15 48.0483V51.5H45.312Z" fill="#222222"/>
<path d="M144.881 51.5V44.2273H149.27V45.0085H145.761V47.4659H149.043V48.2472H145.761V50.7188H149.327V51.5H144.881ZM150.857 51.5V44.2273H153.315C153.885 44.2273 154.352 44.3303 154.714 44.5362C155.078 44.7398 155.348 45.0156 155.523 45.3636C155.699 45.7116 155.786 46.0999 155.786 46.5284C155.786 46.9569 155.699 47.3464 155.523 47.6967C155.351 48.0471 155.083 48.3265 154.721 48.5348C154.359 48.7408 153.895 48.8438 153.329 48.8438H151.567V48.0625H153.3C153.691 48.0625 154.005 47.995 154.241 47.8601C154.478 47.7251 154.65 47.5429 154.756 47.3132C154.865 47.0812 154.92 46.8196 154.92 46.5284C154.92 46.2372 154.865 45.9768 154.756 45.7472C154.65 45.5175 154.477 45.3376 154.238 45.2074C153.999 45.0748 153.682 45.0085 153.286 45.0085H151.738V51.5H150.857ZM156.761 51.5H155.838L158.508 44.2273H159.417L162.088 51.5H161.164L158.991 45.3778H158.934L156.761 51.5ZM157.102 48.6591H160.824V49.4403H157.102V48.6591ZM163.221 51.5V44.2273H164.101V50.7188H167.482V51.5H163.221ZM172.496 51.5V52.2812H167.951V51.5H172.496ZM174.712 44.2273V51.5H173.831V45.1506H173.789L172.013 46.3295V45.4347L173.831 44.2273H174.712Z" fill="#222222"/>
<path d="M186 49.8013L182.461 46.2628L182.933 45.791L186 48.8577L189.067 45.791L189.538 46.2628L186 49.8013Z" fill="#D9D9D9"/>
<path d="M22.733 78.5H21.8523C21.8002 78.2467 21.709 78.0241 21.5788 77.8324C21.451 77.6406 21.2947 77.4796 21.1101 77.3494C20.9278 77.2169 20.7254 77.1174 20.5028 77.0511C20.2803 76.9848 20.0483 76.9517 19.8068 76.9517C19.3665 76.9517 18.9676 77.063 18.6101 77.2855C18.255 77.508 17.9721 77.8359 17.7614 78.2692C17.553 78.7024 17.4489 79.2339 17.4489 79.8636C17.4489 80.4934 17.553 81.0249 17.7614 81.4581C17.9721 81.8913 18.255 82.2192 18.6101 82.4418C18.9676 82.6643 19.3665 82.7756 19.8068 82.7756C20.0483 82.7756 20.2803 82.7424 20.5028 82.6761C20.7254 82.6098 20.9278 82.5116 21.1101 82.3814C21.2947 82.2488 21.451 82.0866 21.5788 81.8949C21.709 81.7008 21.8002 81.4782 21.8523 81.2273H22.733C22.6667 81.599 22.5459 81.9316 22.3707 82.2251C22.1955 82.5187 21.9777 82.7685 21.7173 82.9744C21.4569 83.178 21.1645 83.3331 20.8402 83.4396C20.5182 83.5462 20.1738 83.5994 19.8068 83.5994C19.1866 83.5994 18.6349 83.4479 18.152 83.1449C17.669 82.8419 17.2891 82.411 17.0121 81.8523C16.7351 81.2936 16.5966 80.6307 16.5966 79.8636C16.5966 79.0966 16.7351 78.4337 17.0121 77.875C17.2891 77.3163 17.669 76.8854 18.152 76.5824C18.6349 76.2794 19.1866 76.1278 19.8068 76.1278C20.1738 76.1278 20.5182 76.1811 20.8402 76.2876C21.1645 76.3942 21.4569 76.5504 21.7173 76.7564C21.9777 76.96 22.1955 77.2086 22.3707 77.5021C22.5459 77.7933 22.6667 78.1259 22.733 78.5ZM25.6475 83.6278C25.3019 83.6278 24.9882 83.5627 24.7065 83.4325C24.4248 83.3 24.2011 83.1094 24.0353 82.8608C23.8696 82.6098 23.7868 82.3068 23.7868 81.9517C23.7868 81.6392 23.8483 81.3859 23.9714 81.1918C24.0945 80.9953 24.2591 80.8414 24.465 80.7301C24.671 80.6188 24.8983 80.536 25.1468 80.4815C25.3978 80.4247 25.6499 80.3797 25.9032 80.3466C26.2347 80.304 26.5034 80.272 26.7093 80.2507C26.9177 80.227 27.0692 80.188 27.1639 80.1335C27.2609 80.0791 27.3095 79.9844 27.3095 79.8494V79.821C27.3095 79.4706 27.2136 79.1984 27.0218 79.0043C26.8324 78.8101 26.5448 78.7131 26.1589 78.7131C25.7588 78.7131 25.4451 78.8007 25.2179 78.9759C24.9906 79.151 24.8308 79.3381 24.7385 79.5369L23.943 79.2528C24.085 78.9214 24.2744 78.6634 24.5112 78.4787C24.7503 78.2917 25.0107 78.1615 25.2924 78.0881C25.5765 78.0123 25.8559 77.9744 26.1305 77.9744C26.3057 77.9744 26.5069 77.9957 26.7342 78.0384C26.9638 78.0786 27.1852 78.1626 27.3983 78.2905C27.6137 78.4183 27.7924 78.6113 27.9345 78.8693C28.0765 79.1274 28.1475 79.473 28.1475 79.9062V83.5H27.3095V82.7614H27.2669C27.21 82.8797 27.1154 83.0064 26.9828 83.1413C26.8502 83.2763 26.6738 83.3911 26.4537 83.4858C26.2335 83.5805 25.9648 83.6278 25.6475 83.6278ZM25.7754 82.875C26.1068 82.875 26.3862 82.8099 26.6135 82.6797C26.8431 82.5495 27.0159 82.3814 27.1319 82.1754C27.2503 81.9695 27.3095 81.7528 27.3095 81.5256V80.7585C27.274 80.8011 27.1958 80.8402 27.0751 80.8757C26.9567 80.9089 26.8194 80.9384 26.6632 80.9645C26.5093 80.9882 26.359 81.0095 26.2122 81.0284C26.0678 81.045 25.9506 81.0592 25.8606 81.071C25.6428 81.0994 25.4392 81.1456 25.2498 81.2095C25.0628 81.2711 24.9113 81.3646 24.7953 81.4901C24.6816 81.6132 24.6248 81.7812 24.6248 81.9943C24.6248 82.2855 24.7325 82.5057 24.948 82.6548C25.1658 82.8016 25.4416 82.875 25.7754 82.875ZM29.6772 83.5V78.0455H30.4869V78.8693H30.5437C30.6431 78.5994 30.823 78.3804 31.0835 78.2124C31.3439 78.0443 31.6374 77.9602 31.9641 77.9602C32.0257 77.9602 32.1026 77.9614 32.195 77.9638C32.2873 77.9661 32.3571 77.9697 32.4045 77.9744V78.8267C32.3761 78.8196 32.311 78.8089 32.2092 78.7947C32.1097 78.7782 32.0044 78.7699 31.8931 78.7699C31.628 78.7699 31.3912 78.8255 31.1829 78.9368C30.9769 79.0457 30.8136 79.1972 30.6928 79.3913C30.5745 79.5831 30.5153 79.8021 30.5153 80.0483V83.5H29.6772ZM33.3979 83.5V78.0455H34.2076V78.8693H34.2644C34.3638 78.5994 34.5437 78.3804 34.8042 78.2124C35.0646 78.0443 35.3581 77.9602 35.6848 77.9602C35.7464 77.9602 35.8233 77.9614 35.9157 77.9638C36.008 77.9661 36.0778 77.9697 36.1252 77.9744V78.8267C36.0968 78.8196 36.0317 78.8089 35.9299 78.7947C35.8304 78.7782 35.7251 78.7699 35.6138 78.7699C35.3487 78.7699 35.1119 78.8255 34.9036 78.9368C34.6976 79.0457 34.5343 79.1972 34.4135 79.3913C34.2952 79.5831 34.236 79.8021 34.236 80.0483V83.5H33.3979ZM37.1186 83.5V78.0455H37.9567V83.5H37.1186ZM37.5447 77.1364C37.3814 77.1364 37.2405 77.0807 37.1222 76.9695C37.0062 76.8582 36.9482 76.7244 36.9482 76.5682C36.9482 76.4119 37.0062 76.2782 37.1222 76.1669C37.2405 76.0556 37.3814 76 37.5447 76C37.7081 76 37.8478 76.0556 37.9638 76.1669C38.0821 76.2782 38.1413 76.4119 38.1413 76.5682C38.1413 76.7244 38.0821 76.8582 37.9638 76.9695C37.8478 77.0807 37.7081 77.1364 37.5447 77.1364ZM41.7786 83.6136C41.253 83.6136 40.7997 83.4976 40.4185 83.2656C40.0397 83.0312 39.7473 82.7045 39.5414 82.2855C39.3378 81.8641 39.236 81.3741 39.236 80.8153C39.236 80.2566 39.3378 79.7642 39.5414 79.3381C39.7473 78.9096 40.0338 78.5758 40.4007 78.3366C40.7701 78.0952 41.2009 77.9744 41.6934 77.9744C41.9775 77.9744 42.258 78.0218 42.535 78.1165C42.812 78.2112 43.0641 78.3651 43.2914 78.5781C43.5186 78.7888 43.6998 79.0682 43.8347 79.4162C43.9696 79.7642 44.0371 80.1927 44.0371 80.7017V81.0568H39.8326V80.3324H43.1848C43.1848 80.0246 43.1233 79.75 43.0002 79.5085C42.8794 79.267 42.7066 79.0765 42.4817 78.9368C42.2592 78.7971 41.9964 78.7273 41.6934 78.7273C41.3596 78.7273 41.0707 78.8101 40.8269 78.9759C40.5854 79.1392 40.3996 79.3523 40.2694 79.6151C40.1391 79.8778 40.074 80.1596 40.074 80.4602V80.9432C40.074 81.3551 40.1451 81.7043 40.2871 81.9908C40.4315 82.2749 40.6316 82.4915 40.8873 82.6406C41.1429 82.7874 41.44 82.8608 41.7786 82.8608C41.9988 82.8608 42.1976 82.83 42.3752 82.7685C42.5551 82.7045 42.7102 82.6098 42.8404 82.4844C42.9706 82.3565 43.0712 82.1979 43.1422 82.0085L43.9519 82.2358C43.8667 82.5104 43.7234 82.7519 43.5222 82.9602C43.321 83.1662 43.0724 83.3272 42.7765 83.4432C42.4805 83.5568 42.1479 83.6136 41.7786 83.6136ZM45.312 83.5V78.0455H46.1216V78.8693H46.1784C46.2779 78.5994 46.4578 78.3804 46.7182 78.2124C46.9786 78.0443 47.2722 77.9602 47.5989 77.9602C47.6605 77.9602 47.7374 77.9614 47.8297 77.9638C47.9221 77.9661 47.9919 77.9697 48.0392 77.9744V78.8267C48.0108 78.8196 47.9457 78.8089 47.8439 78.7947C47.7445 78.7782 47.6391 78.7699 47.5279 78.7699C47.2627 78.7699 47.026 78.8255 46.8176 78.9368C46.6117 79.0457 46.4483 79.1972 46.3276 79.3913C46.2092 79.5831 46.15 79.8021 46.15 80.0483V83.5H45.312ZM55.7088 79.267L54.956 79.4801C54.9086 79.3546 54.8388 79.2327 54.7464 79.1143C54.6565 78.9936 54.5334 78.8942 54.3771 78.8161C54.2209 78.7379 54.0208 78.6989 53.777 78.6989C53.4432 78.6989 53.165 78.7758 52.9425 78.9297C52.7223 79.0812 52.6122 79.2741 52.6122 79.5085C52.6122 79.7169 52.688 79.8814 52.8395 80.0021C52.991 80.1229 53.2277 80.2235 53.5497 80.304L54.3594 80.5028C54.8471 80.6212 55.2105 80.8023 55.4496 81.0462C55.6887 81.2876 55.8082 81.599 55.8082 81.9801C55.8082 82.2926 55.7183 82.572 55.5384 82.8182C55.3608 83.0644 55.1122 83.2585 54.7926 83.4006C54.473 83.5426 54.1013 83.6136 53.6776 83.6136C53.1212 83.6136 52.6607 83.4929 52.2962 83.2514C51.9316 83.0099 51.7008 82.6572 51.6037 82.1932L52.3991 81.9943C52.4749 82.2879 52.6181 82.508 52.8288 82.6548C53.0419 82.8016 53.3201 82.875 53.6634 82.875C54.054 82.875 54.3641 82.7921 54.5938 82.6264C54.8258 82.4583 54.9418 82.2571 54.9418 82.0227C54.9418 81.8333 54.8755 81.6747 54.7429 81.5469C54.6103 81.4167 54.4067 81.3196 54.1321 81.2557L53.223 81.0426C52.7235 80.9242 52.3565 80.7408 52.1222 80.4922C51.8902 80.2412 51.7741 79.9276 51.7741 79.5511C51.7741 79.2434 51.8606 78.9711 52.0334 78.7344C52.2086 78.4976 52.4465 78.3118 52.7472 78.1768C53.0502 78.0419 53.3935 77.9744 53.777 77.9744C54.3168 77.9744 54.7405 78.0928 55.0483 78.3295C55.3584 78.5663 55.5786 78.8788 55.7088 79.267ZM57.0698 83.5V78.0455H57.9078V83.5H57.0698ZM57.4959 77.1364C57.3326 77.1364 57.1917 77.0807 57.0733 76.9695C56.9573 76.8582 56.8993 76.7244 56.8993 76.5682C56.8993 76.4119 56.9573 76.2782 57.0733 76.1669C57.1917 76.0556 57.3326 76 57.4959 76C57.6593 76 57.7989 76.0556 57.915 76.1669C58.0333 76.2782 58.0925 76.4119 58.0925 76.5682C58.0925 76.7244 58.0333 76.8582 57.915 76.9695C57.7989 77.0807 57.6593 77.1364 57.4959 77.1364ZM61.5025 83.6136C61.0479 83.6136 60.6467 83.4988 60.2987 83.2692C59.9506 83.0372 59.6784 82.7105 59.4819 82.2891C59.2854 81.8653 59.1871 81.3646 59.1871 80.7869C59.1871 80.214 59.2854 79.7169 59.4819 79.2955C59.6784 78.8741 59.9518 78.5485 60.3022 78.3189C60.6526 78.0893 61.0574 77.9744 61.5167 77.9744C61.8718 77.9744 62.1523 78.0336 62.3583 78.152C62.5666 78.268 62.7253 78.4006 62.8342 78.5497C62.9454 78.6965 63.0318 78.8172 63.0934 78.9119H63.1644V76.2273H64.0025V83.5H63.1928V82.6619H63.0934C63.0318 82.7614 62.9442 82.8868 62.8306 83.0384C62.717 83.1875 62.5548 83.3213 62.3441 83.4396C62.1334 83.5556 61.8529 83.6136 61.5025 83.6136ZM61.6161 82.8608C61.9523 82.8608 62.2364 82.7732 62.4684 82.598C62.7004 82.4205 62.8768 82.1754 62.9975 81.8629C63.1183 81.5481 63.1786 81.1847 63.1786 80.7727C63.1786 80.3655 63.1194 80.0092 63.0011 79.7038C62.8827 79.3961 62.7075 79.157 62.4755 78.9865C62.2435 78.8137 61.957 78.7273 61.6161 78.7273C61.261 78.7273 60.9651 78.8184 60.7283 79.0007C60.494 79.1806 60.3176 79.4257 60.1992 79.7358C60.0832 80.0436 60.0252 80.3892 60.0252 80.7727C60.0252 81.161 60.0844 81.5137 60.2028 81.831C60.3235 82.1458 60.5011 82.3968 60.7354 82.5838C60.9722 82.7685 61.2657 82.8608 61.6161 82.8608ZM67.9407 83.6136C67.4151 83.6136 66.9618 83.4976 66.5806 83.2656C66.2018 83.0312 65.9094 82.7045 65.7035 82.2855C65.4999 81.8641 65.3981 81.3741 65.3981 80.8153C65.3981 80.2566 65.4999 79.7642 65.7035 79.3381C65.9094 78.9096 66.1959 78.5758 66.5629 78.3366C66.9322 78.0952 67.363 77.9744 67.8555 77.9744C68.1396 77.9744 68.4201 78.0218 68.6971 78.1165C68.9741 78.2112 69.2262 78.3651 69.4535 78.5781C69.6808 78.7888 69.8619 79.0682 69.9968 79.4162C70.1317 79.7642 70.1992 80.1927 70.1992 80.7017V81.0568H65.9947V80.3324H69.3469C69.3469 80.0246 69.2854 79.75 69.1623 79.5085C69.0415 79.267 68.8687 79.0765 68.6438 78.9368C68.4213 78.7971 68.1585 78.7273 67.8555 78.7273C67.5217 78.7273 67.2328 78.8101 66.989 78.9759C66.7475 79.1392 66.5617 79.3523 66.4315 79.6151C66.3013 79.8778 66.2362 80.1596 66.2362 80.4602V80.9432C66.2362 81.3551 66.3072 81.7043 66.4492 81.9908C66.5936 82.2749 66.7937 82.4915 67.0494 82.6406C67.305 82.7874 67.6022 82.8608 67.9407 82.8608C68.1609 82.8608 68.3597 82.83 68.5373 82.7685C68.7172 82.7045 68.8723 82.6098 69.0025 82.4844C69.1327 82.3565 69.2333 82.1979 69.3043 82.0085L70.114 82.2358C70.0288 82.5104 69.8855 82.7519 69.6843 82.9602C69.4831 83.1662 69.2345 83.3272 68.9386 83.4432C68.6426 83.5568 68.31 83.6136 67.9407 83.6136Z" fill="#222222"/>
<path d="M148.858 78.0455C148.815 77.6856 148.643 77.4062 148.339 77.2074C148.036 77.0085 147.665 76.9091 147.224 76.9091C146.902 76.9091 146.621 76.9612 146.379 77.0653C146.14 77.1695 145.953 77.3127 145.818 77.495C145.686 77.6773 145.619 77.8845 145.619 78.1165C145.619 78.3106 145.665 78.4775 145.758 78.6172C145.853 78.7545 145.973 78.8693 146.12 78.9616C146.267 79.0516 146.421 79.1262 146.582 79.1854C146.743 79.2422 146.891 79.2884 147.026 79.3239L147.764 79.5227C147.954 79.5724 148.164 79.6411 148.396 79.7287C148.631 79.8163 148.854 79.9358 149.067 80.0874C149.283 80.2365 149.46 80.4283 149.6 80.6626C149.74 80.897 149.81 81.1847 149.81 81.5256C149.81 81.9186 149.707 82.2737 149.501 82.5909C149.297 82.9081 148.999 83.1603 148.606 83.3473C148.215 83.5343 147.741 83.6278 147.182 83.6278C146.661 83.6278 146.21 83.5438 145.829 83.3757C145.45 83.2076 145.152 82.9732 144.934 82.6726C144.719 82.3719 144.597 82.0227 144.568 81.625H145.477C145.501 81.8996 145.593 82.1269 145.754 82.3068C145.918 82.4844 146.124 82.617 146.372 82.7045C146.623 82.7898 146.893 82.8324 147.182 82.8324C147.518 82.8324 147.82 82.7779 148.087 82.669C148.355 82.5578 148.567 82.4039 148.723 82.2074C148.879 82.0085 148.957 81.7765 148.957 81.5114C148.957 81.2699 148.89 81.0734 148.755 80.9219C148.62 80.7704 148.442 80.6473 148.222 80.5526C148.002 80.4579 147.764 80.375 147.509 80.304L146.614 80.0483C146.045 79.8849 145.596 79.6518 145.264 79.3487C144.933 79.0457 144.767 78.6491 144.767 78.1591C144.767 77.7519 144.877 77.3968 145.097 77.0938C145.32 76.7884 145.618 76.5516 145.992 76.3835C146.369 76.2131 146.789 76.1278 147.253 76.1278C147.722 76.1278 148.138 76.2119 148.503 76.38C148.867 76.5457 149.156 76.773 149.369 77.0618C149.585 77.3506 149.698 77.6785 149.71 78.0455H148.858ZM151.982 80.2188V83.5H151.144V76.2273H151.982V78.8977H152.053C152.181 78.616 152.373 78.3923 152.628 78.2266C152.886 78.0585 153.23 77.9744 153.658 77.9744C154.03 77.9744 154.355 78.049 154.635 78.1982C154.914 78.3449 155.131 78.571 155.285 78.8764C155.441 79.1795 155.519 79.5653 155.519 80.0341V83.5H154.681V80.0909C154.681 79.6577 154.568 79.3227 154.344 79.0859C154.121 78.8468 153.812 78.7273 153.417 78.7273C153.142 78.7273 152.896 78.7853 152.678 78.9013C152.463 79.0173 152.292 79.1866 152.167 79.4091C152.044 79.6316 151.982 79.9015 151.982 80.2188ZM159.268 83.6136C158.776 83.6136 158.344 83.4964 157.972 83.2621C157.603 83.0277 157.314 82.6998 157.105 82.2784C156.9 81.857 156.797 81.3646 156.797 80.8011C156.797 80.233 156.9 79.737 157.105 79.3132C157.314 78.8894 157.603 78.5604 157.972 78.326C158.344 78.0916 158.776 77.9744 159.268 77.9744C159.761 77.9744 160.191 78.0916 160.561 78.326C160.932 78.5604 161.221 78.8894 161.427 79.3132C161.636 79.737 161.74 80.233 161.74 80.8011C161.74 81.3646 161.636 81.857 161.427 82.2784C161.221 82.6998 160.932 83.0277 160.561 83.2621C160.191 83.4964 159.761 83.6136 159.268 83.6136ZM159.268 82.8608C159.642 82.8608 159.95 82.7649 160.191 82.5732C160.433 82.3814 160.612 82.1293 160.728 81.8168C160.844 81.5043 160.902 81.1657 160.902 80.8011C160.902 80.4366 160.844 80.0968 160.728 79.782C160.612 79.4671 160.433 79.2126 160.191 79.0185C159.95 78.8243 159.642 78.7273 159.268 78.7273C158.894 78.7273 158.586 78.8243 158.345 79.0185C158.103 79.2126 157.925 79.4671 157.809 79.782C157.693 80.0968 157.635 80.4366 157.635 80.8011C157.635 81.1657 157.693 81.5043 157.809 81.8168C157.925 82.1293 158.103 82.3814 158.345 82.5732C158.586 82.7649 158.894 82.8608 159.268 82.8608ZM163.019 83.5V78.0455H163.829V78.8693H163.885C163.985 78.5994 164.165 78.3804 164.425 78.2124C164.686 78.0443 164.979 77.9602 165.306 77.9602C165.367 77.9602 165.444 77.9614 165.537 77.9638C165.629 77.9661 165.699 77.9697 165.746 77.9744V78.8267C165.718 78.8196 165.653 78.8089 165.551 78.7947C165.452 78.7782 165.346 78.7699 165.235 78.7699C164.97 78.7699 164.733 78.8255 164.525 78.9368C164.319 79.0457 164.155 79.1972 164.035 79.3913C163.916 79.5831 163.857 79.8021 163.857 80.0483V83.5H163.019ZM169.454 78.0455V78.7557H166.627V78.0455H169.454ZM167.451 76.7386H168.289V81.9375C168.289 82.1742 168.323 82.3518 168.392 82.4702C168.463 82.5862 168.553 82.6643 168.662 82.7045C168.773 82.7424 168.89 82.7614 169.013 82.7614C169.106 82.7614 169.181 82.7566 169.241 82.7472C169.3 82.7353 169.347 82.7259 169.383 82.7188L169.553 83.4716C169.496 83.4929 169.417 83.5142 169.315 83.5355C169.213 83.5592 169.084 83.571 168.928 83.571C168.691 83.571 168.459 83.5201 168.232 83.4183C168.007 83.3165 167.82 83.1615 167.671 82.9531C167.524 82.7448 167.451 82.482 167.451 82.1648V76.7386Z" fill="#222222"/>
<path d="M179 81.8013L175.461 78.2628L175.933 77.791L179 80.8577L182.067 77.791L182.538 78.2628L179 81.8013Z" fill="#D9D9D9"/>
<path d="M274.461 81C274.186 81 273.951 80.9021 273.755 80.7063C273.559 80.5104 273.461 80.275 273.461 80C273.461 79.725 273.559 79.4896 273.755 79.2938C273.951 79.0979 274.186 79 274.461 79C274.736 79 274.972 79.0979 275.168 79.2938C275.364 79.4896 275.461 79.725 275.461 80C275.461 80.275 275.364 80.5104 275.168 80.7063C274.972 80.9021 274.736 81 274.461 81ZM280 81C279.725 81 279.489 80.9021 279.294 80.7063C279.098 80.5104 279 80.275 279 80C279 79.725 279.098 79.4896 279.294 79.2938C279.489 79.0979 279.725 79 280 79C280.275 79 280.51 79.0979 280.706 79.2938C280.902 79.4896 281 79.725 281 80C281 80.275 280.902 80.5104 280.706 80.7063C280.51 80.9021 280.275 81 280 81ZM285.538 81C285.263 81 285.028 80.9021 284.832 80.7063C284.636 80.5104 284.538 80.275 284.538 80C284.538 79.725 284.636 79.4896 284.832 79.2938C285.028 79.0979 285.263 79 285.538 79C285.813 79 286.049 79.0979 286.245 79.2938C286.44 79.4896 286.538 79.725 286.538 80C286.538 80.275 286.44 80.5104 286.245 80.7063C286.049 80.9021 285.813 81 285.538 81Z" fill="#222222"/>
<path d="M20.858 110.045C20.8153 109.686 20.6425 109.406 20.3395 109.207C20.0365 109.009 19.6648 108.909 19.2244 108.909C18.9025 108.909 18.6207 108.961 18.3793 109.065C18.1402 109.17 17.9531 109.313 17.8182 109.495C17.6856 109.677 17.6193 109.884 17.6193 110.116C17.6193 110.311 17.6655 110.478 17.7578 110.617C17.8525 110.754 17.9732 110.869 18.12 110.962C18.2668 111.052 18.4207 111.126 18.5817 111.185C18.7427 111.242 18.8906 111.288 19.0256 111.324L19.7642 111.523C19.9536 111.572 20.1643 111.641 20.3963 111.729C20.6307 111.816 20.8544 111.936 21.0675 112.087C21.2829 112.237 21.4605 112.428 21.6001 112.663C21.7398 112.897 21.8097 113.185 21.8097 113.526C21.8097 113.919 21.7067 114.274 21.5007 114.591C21.2971 114.908 20.9988 115.16 20.6058 115.347C20.2152 115.534 19.7405 115.628 19.1818 115.628C18.661 115.628 18.21 115.544 17.8288 115.376C17.45 115.208 17.1518 114.973 16.9339 114.673C16.7185 114.372 16.5966 114.023 16.5682 113.625H17.4773C17.5009 113.9 17.5933 114.127 17.7543 114.307C17.9176 114.484 18.1236 114.617 18.3722 114.705C18.6231 114.79 18.893 114.832 19.1818 114.832C19.518 114.832 19.8198 114.778 20.0874 114.669C20.3549 114.558 20.5668 114.404 20.723 114.207C20.8793 114.009 20.9574 113.777 20.9574 113.511C20.9574 113.27 20.8899 113.073 20.755 112.922C20.62 112.77 20.4425 112.647 20.2223 112.553C20.0021 112.458 19.7642 112.375 19.5085 112.304L18.6136 112.048C18.0455 111.885 17.5956 111.652 17.2642 111.349C16.9328 111.046 16.767 110.649 16.767 110.159C16.767 109.752 16.8771 109.397 17.0973 109.094C17.3198 108.788 17.6181 108.552 17.9922 108.384C18.3686 108.213 18.7888 108.128 19.2528 108.128C19.7216 108.128 20.1383 108.212 20.5028 108.38C20.8674 108.546 21.1563 108.773 21.3693 109.062C21.5848 109.351 21.6984 109.679 21.7102 110.045H20.858ZM25.5162 110.045V110.756H22.6895V110.045H25.5162ZM23.5133 108.739H24.3514V113.938C24.3514 114.174 24.3857 114.352 24.4544 114.47C24.5254 114.586 24.6154 114.664 24.7243 114.705C24.8355 114.742 24.9527 114.761 25.0758 114.761C25.1681 114.761 25.2439 114.757 25.3031 114.747C25.3623 114.735 25.4096 114.726 25.4451 114.719L25.6156 115.472C25.5588 115.493 25.4795 115.514 25.3777 115.536C25.2759 115.559 25.1468 115.571 24.9906 115.571C24.7538 115.571 24.5218 115.52 24.2946 115.418C24.0697 115.317 23.8826 115.161 23.7335 114.953C23.5867 114.745 23.5133 114.482 23.5133 114.165V108.739ZM28.9341 115.614C28.4417 115.614 28.0096 115.496 27.638 115.262C27.2686 115.028 26.9798 114.7 26.7715 114.278C26.5655 113.857 26.4625 113.365 26.4625 112.801C26.4625 112.233 26.5655 111.737 26.7715 111.313C26.9798 110.889 27.2686 110.56 27.638 110.326C28.0096 110.092 28.4417 109.974 28.9341 109.974C29.4266 109.974 29.8574 110.092 30.2267 110.326C30.5984 110.56 30.8873 110.889 31.0932 111.313C31.3016 111.737 31.4057 112.233 31.4057 112.801C31.4057 113.365 31.3016 113.857 31.0932 114.278C30.8873 114.7 30.5984 115.028 30.2267 115.262C29.8574 115.496 29.4266 115.614 28.9341 115.614ZM28.9341 114.861C29.3082 114.861 29.6159 114.765 29.8574 114.573C30.0989 114.381 30.2776 114.129 30.3936 113.817C30.5096 113.504 30.5676 113.166 30.5676 112.801C30.5676 112.437 30.5096 112.097 30.3936 111.782C30.2776 111.467 30.0989 111.213 29.8574 111.018C29.6159 110.824 29.3082 110.727 28.9341 110.727C28.5601 110.727 28.2523 110.824 28.0108 111.018C27.7694 111.213 27.5906 111.467 27.4746 111.782C27.3586 112.097 27.3006 112.437 27.3006 112.801C27.3006 113.166 27.3586 113.504 27.4746 113.817C27.5906 114.129 27.7694 114.381 28.0108 114.573C28.2523 114.765 28.5601 114.861 28.9341 114.861ZM32.685 115.5V110.045H33.4947V110.869H33.5515C33.6509 110.599 33.8308 110.38 34.0913 110.212C34.3517 110.044 34.6452 109.96 34.9719 109.96C35.0335 109.96 35.1104 109.961 35.2028 109.964C35.2951 109.966 35.3649 109.97 35.4123 109.974V110.827C35.3839 110.82 35.3188 110.809 35.217 110.795C35.1175 110.778 35.0122 110.77 34.9009 110.77C34.6358 110.77 34.399 110.826 34.1907 110.937C33.9847 111.046 33.8214 111.197 33.7006 111.391C33.5823 111.583 33.5231 111.802 33.5231 112.048V115.5H32.685ZM38.0108 115.628C37.6652 115.628 37.3515 115.563 37.0698 115.433C36.7881 115.3 36.5643 115.109 36.3986 114.861C36.2329 114.61 36.15 114.307 36.15 113.952C36.15 113.639 36.2116 113.386 36.3347 113.192C36.4578 112.995 36.6223 112.841 36.8283 112.73C37.0343 112.619 37.2615 112.536 37.5101 112.482C37.7611 112.425 38.0132 112.38 38.2665 112.347C38.598 112.304 38.8667 112.272 39.0726 112.251C39.281 112.227 39.4325 112.188 39.5272 112.134C39.6242 112.079 39.6728 111.984 39.6728 111.849V111.821C39.6728 111.471 39.5769 111.198 39.3851 111.004C39.1957 110.81 38.9081 110.713 38.5222 110.713C38.1221 110.713 37.8084 110.801 37.5811 110.976C37.3539 111.151 37.1941 111.338 37.1017 111.537L36.3063 111.253C36.4483 110.921 36.6377 110.663 36.8745 110.479C37.1136 110.292 37.374 110.161 37.6557 110.088C37.9398 110.012 38.2192 109.974 38.4938 109.974C38.669 109.974 38.8702 109.996 39.0975 110.038C39.3271 110.079 39.5485 110.163 39.7615 110.29C39.977 110.418 40.1557 110.611 40.2978 110.869C40.4398 111.127 40.5108 111.473 40.5108 111.906V115.5H39.6728V114.761H39.6301C39.5733 114.88 39.4786 115.006 39.3461 115.141C39.2135 115.276 39.0371 115.391 38.8169 115.486C38.5968 115.58 38.3281 115.628 38.0108 115.628ZM38.1387 114.875C38.4701 114.875 38.7495 114.81 38.9767 114.68C39.2064 114.549 39.3792 114.381 39.4952 114.175C39.6136 113.969 39.6728 113.753 39.6728 113.526V112.759C39.6373 112.801 39.5591 112.84 39.4384 112.876C39.32 112.909 39.1827 112.938 39.0265 112.964C38.8726 112.988 38.7222 113.009 38.5755 113.028C38.431 113.045 38.3139 113.059 38.2239 113.071C38.0061 113.099 37.8025 113.146 37.6131 113.21C37.4261 113.271 37.2746 113.365 37.1586 113.49C37.0449 113.613 36.9881 113.781 36.9881 113.994C36.9881 114.286 37.0958 114.506 37.3113 114.655C37.5291 114.802 37.8049 114.875 38.1387 114.875ZM44.2422 117.659C43.8374 117.659 43.4893 117.607 43.1982 117.503C42.907 117.401 42.6643 117.266 42.4702 117.098C42.2784 116.932 42.1257 116.755 42.0121 116.565L42.6797 116.097C42.7554 116.196 42.8513 116.31 42.9673 116.438C43.0833 116.568 43.242 116.68 43.4432 116.775C43.6468 116.872 43.9131 116.92 44.2422 116.92C44.6825 116.92 45.0459 116.814 45.3324 116.601C45.6188 116.388 45.7621 116.054 45.7621 115.599V114.491H45.6911C45.6295 114.591 45.5419 114.714 45.4283 114.861C45.317 115.005 45.156 115.134 44.9453 115.248C44.737 115.359 44.4553 115.415 44.1001 115.415C43.6598 115.415 43.2644 115.311 42.9141 115.102C42.5661 114.894 42.2902 114.591 42.0866 114.193C41.8854 113.795 41.7848 113.312 41.7848 112.744C41.7848 112.186 41.883 111.699 42.0795 111.285C42.276 110.868 42.5495 110.546 42.8999 110.319C43.2502 110.089 43.6551 109.974 44.1143 109.974C44.4695 109.974 44.7512 110.034 44.9595 110.152C45.1702 110.268 45.3312 110.401 45.4425 110.55C45.5561 110.696 45.6437 110.817 45.7053 110.912H45.7905V110.045H46.6001V115.656C46.6001 116.125 46.4936 116.506 46.2805 116.8C46.0698 117.096 45.7857 117.312 45.4283 117.45C45.0732 117.589 44.6778 117.659 44.2422 117.659ZM44.2138 114.662C44.55 114.662 44.834 114.585 45.0661 114.431C45.2981 114.277 45.4744 114.056 45.5952 113.767C45.7159 113.478 45.7763 113.133 45.7763 112.73C45.7763 112.337 45.7171 111.99 45.5987 111.69C45.4804 111.389 45.3052 111.153 45.0732 110.983C44.8411 110.812 44.5547 110.727 44.2138 110.727C43.8587 110.727 43.5627 110.817 43.326 110.997C43.0916 111.177 42.9152 111.419 42.7969 111.722C42.6809 112.025 42.6229 112.361 42.6229 112.73C42.6229 113.109 42.6821 113.444 42.8004 113.735C42.9212 114.024 43.0987 114.251 43.3331 114.417C43.5698 114.58 43.8634 114.662 44.2138 114.662ZM50.4212 115.614C49.8956 115.614 49.4422 115.498 49.0611 115.266C48.6823 115.031 48.3899 114.705 48.1839 114.286C47.9804 113.864 47.8786 113.374 47.8786 112.815C47.8786 112.257 47.9804 111.764 48.1839 111.338C48.3899 110.91 48.6764 110.576 49.0433 110.337C49.4126 110.095 49.8435 109.974 50.3359 109.974C50.62 109.974 50.9006 110.022 51.1776 110.116C51.4545 110.211 51.7067 110.365 51.9339 110.578C52.1612 110.789 52.3423 111.068 52.4773 111.416C52.6122 111.764 52.6797 112.193 52.6797 112.702V113.057H48.4751V112.332H51.8274C51.8274 112.025 51.7659 111.75 51.6428 111.509C51.522 111.267 51.3492 111.076 51.1243 110.937C50.9018 110.797 50.639 110.727 50.3359 110.727C50.0021 110.727 49.7133 110.81 49.4695 110.976C49.228 111.139 49.0421 111.352 48.9119 111.615C48.7817 111.878 48.7166 112.16 48.7166 112.46V112.943C48.7166 113.355 48.7876 113.704 48.9297 113.991C49.0741 114.275 49.2741 114.491 49.5298 114.641C49.7855 114.787 50.0826 114.861 50.4212 114.861C50.6413 114.861 50.8402 114.83 51.0178 114.768C51.1977 114.705 51.3527 114.61 51.483 114.484C51.6132 114.357 51.7138 114.198 51.7848 114.009L52.5945 114.236C52.5092 114.51 52.366 114.752 52.1648 114.96C51.9635 115.166 51.715 115.327 51.419 115.443C51.1231 115.557 50.7905 115.614 50.4212 115.614ZM59.1392 110.045V110.756H56.3125V110.045H59.1392ZM57.1364 108.739H57.9744V113.938C57.9744 114.174 58.0088 114.352 58.0774 114.47C58.1484 114.586 58.2384 114.664 58.3473 114.705C58.4586 114.742 58.5758 114.761 58.6989 114.761C58.7912 114.761 58.867 114.757 58.9261 114.747C58.9853 114.735 59.0327 114.726 59.0682 114.719L59.2386 115.472C59.1818 115.493 59.1025 115.514 59.0007 115.536C58.8989 115.559 58.7699 115.571 58.6136 115.571C58.3769 115.571 58.1449 115.52 57.9176 115.418C57.6927 115.317 57.5057 115.161 57.3565 114.953C57.2098 114.745 57.1364 114.482 57.1364 114.165V108.739ZM60.9396 117.545C60.7976 117.545 60.6709 117.534 60.5597 117.51C60.4484 117.489 60.3714 117.467 60.3288 117.446L60.5419 116.707C60.7455 116.759 60.9254 116.778 61.0817 116.764C61.2379 116.75 61.3764 116.68 61.4972 116.555C61.6203 116.432 61.7327 116.232 61.8345 115.955L61.9908 115.528L59.9737 110.045H60.8828L62.3885 114.392H62.4453L63.951 110.045H64.8601L62.5447 116.295C62.4406 116.577 62.3116 116.81 62.1577 116.995C62.0038 117.182 61.825 117.321 61.6214 117.411C61.4202 117.5 61.1929 117.545 60.9396 117.545ZM65.9663 117.545V110.045H66.7759V110.912H66.8754C66.9369 110.817 67.0221 110.696 67.131 110.55C67.2423 110.401 67.4009 110.268 67.6069 110.152C67.8152 110.034 68.0969 109.974 68.4521 109.974C68.9113 109.974 69.3162 110.089 69.6665 110.319C70.0169 110.549 70.2904 110.874 70.4869 111.295C70.6834 111.717 70.7816 112.214 70.7816 112.787C70.7816 113.365 70.6834 113.865 70.4869 114.289C70.2904 114.71 70.0181 115.037 69.6701 115.269C69.3221 115.499 68.9208 115.614 68.4663 115.614C68.1159 115.614 67.8353 115.556 67.6246 115.44C67.4139 115.321 67.2518 115.187 67.1381 115.038C67.0245 114.887 66.9369 114.761 66.8754 114.662H66.8043V117.545H65.9663ZM66.7901 112.773C66.7901 113.185 66.8505 113.548 66.9712 113.863C67.092 114.175 67.2683 114.42 67.5004 114.598C67.7324 114.773 68.0165 114.861 68.3526 114.861C68.703 114.861 68.9954 114.768 69.2298 114.584C69.4665 114.397 69.6441 114.146 69.7624 113.831C69.8832 113.514 69.9435 113.161 69.9435 112.773C69.9435 112.389 69.8844 112.044 69.766 111.736C69.65 111.426 69.4736 111.181 69.2369 111.001C69.0025 110.818 68.7077 110.727 68.3526 110.727C68.0117 110.727 67.7253 110.814 67.4933 110.987C67.2612 111.157 67.0861 111.396 66.9677 111.704C66.8493 112.009 66.7901 112.366 66.7901 112.773ZM74.3469 115.614C73.8214 115.614 73.368 115.498 72.9869 115.266C72.6081 115.031 72.3157 114.705 72.1097 114.286C71.9061 113.864 71.8043 113.374 71.8043 112.815C71.8043 112.257 71.9061 111.764 72.1097 111.338C72.3157 110.91 72.6022 110.576 72.9691 110.337C73.3384 110.095 73.7693 109.974 74.2617 109.974C74.5458 109.974 74.8263 110.022 75.1033 110.116C75.3803 110.211 75.6325 110.365 75.8597 110.578C76.087 110.789 76.2681 111.068 76.4031 111.416C76.538 111.764 76.6055 112.193 76.6055 112.702V113.057H72.4009V112.332H75.7532C75.7532 112.025 75.6916 111.75 75.5685 111.509C75.4478 111.267 75.275 111.076 75.0501 110.937C74.8275 110.797 74.5647 110.727 74.2617 110.727C73.9279 110.727 73.6391 110.81 73.3952 110.976C73.1538 111.139 72.9679 111.352 72.8377 111.615C72.7075 111.878 72.6424 112.16 72.6424 112.46V112.943C72.6424 113.355 72.7134 113.704 72.8555 113.991C72.9999 114.275 73.1999 114.491 73.4556 114.641C73.7113 114.787 74.0084 114.861 74.3469 114.861C74.5671 114.861 74.766 114.83 74.9435 114.768C75.1235 114.705 75.2785 114.61 75.4087 114.484C75.5389 114.357 75.6396 114.198 75.7106 114.009L76.5202 114.236C76.435 114.51 76.2918 114.752 76.0906 114.96C75.8893 115.166 75.6407 115.327 75.3448 115.443C75.0489 115.557 74.7163 115.614 74.3469 115.614Z" fill="#222222"/>
<path d="M145.179 115.5H144.256L146.926 108.227H147.835L150.506 115.5H149.582L147.409 109.378H147.352L145.179 115.5ZM145.52 112.659H149.241V113.44H145.52V112.659ZM155.616 110.045C155.573 109.686 155.4 109.406 155.097 109.207C154.794 109.009 154.423 108.909 153.982 108.909C153.66 108.909 153.379 108.961 153.137 109.065C152.898 109.17 152.711 109.313 152.576 109.495C152.443 109.677 152.377 109.884 152.377 110.116C152.377 110.311 152.423 110.478 152.516 110.617C152.61 110.754 152.731 110.869 152.878 110.962C153.025 111.052 153.179 111.126 153.339 111.185C153.5 111.242 153.648 111.288 153.783 111.324L154.522 111.523C154.711 111.572 154.922 111.641 155.154 111.729C155.388 111.816 155.612 111.936 155.825 112.087C156.041 112.237 156.218 112.428 156.358 112.663C156.498 112.897 156.567 113.185 156.567 113.526C156.567 113.919 156.464 114.274 156.259 114.591C156.055 114.908 155.757 115.16 155.364 115.347C154.973 115.534 154.498 115.628 153.94 115.628C153.419 115.628 152.968 115.544 152.587 115.376C152.208 115.208 151.91 114.973 151.692 114.673C151.476 114.372 151.354 114.023 151.326 113.625H152.235C152.259 113.9 152.351 114.127 152.512 114.307C152.675 114.484 152.881 114.617 153.13 114.705C153.381 114.79 153.651 114.832 153.94 114.832C154.276 114.832 154.578 114.778 154.845 114.669C155.113 114.558 155.325 114.404 155.481 114.207C155.637 114.009 155.715 113.777 155.715 113.511C155.715 113.27 155.648 113.073 155.513 112.922C155.378 112.77 155.2 112.647 154.98 112.553C154.76 112.458 154.522 112.375 154.266 112.304L153.371 112.048C152.803 111.885 152.353 111.652 152.022 111.349C151.691 111.046 151.525 110.649 151.525 110.159C151.525 109.752 151.635 109.397 151.855 109.094C152.078 108.788 152.376 108.552 152.75 108.384C153.126 108.213 153.547 108.128 154.011 108.128C154.479 108.128 154.896 108.212 155.261 108.38C155.625 108.546 155.914 108.773 156.127 109.062C156.343 109.351 156.456 109.679 156.468 110.045H155.616ZM160.473 107.886L158.129 116.594H157.362L159.706 107.886H160.473ZM161.58 115.5V108.227H164.037C164.605 108.227 165.072 108.324 165.436 108.518C165.801 108.71 166.071 108.974 166.246 109.31C166.421 109.647 166.509 110.029 166.509 110.457C166.509 110.886 166.421 111.266 166.246 111.597C166.071 111.929 165.802 112.189 165.44 112.379C165.078 112.566 164.615 112.659 164.051 112.659H162.063V111.864H164.023C164.411 111.864 164.724 111.807 164.961 111.693C165.2 111.58 165.373 111.419 165.479 111.21C165.588 111 165.642 110.749 165.642 110.457C165.642 110.166 165.588 109.912 165.479 109.694C165.37 109.476 165.196 109.308 164.957 109.19C164.718 109.069 164.402 109.009 164.009 109.009H162.461V115.5H161.58ZM165.003 112.233L166.793 115.5H165.77L164.009 112.233H165.003ZM171.954 110.045C171.911 109.686 171.738 109.406 171.435 109.207C171.132 109.009 170.76 108.909 170.32 108.909C169.998 108.909 169.716 108.961 169.475 109.065C169.236 109.17 169.049 109.313 168.914 109.495C168.781 109.677 168.715 109.884 168.715 110.116C168.715 110.311 168.761 110.478 168.854 110.617C168.948 110.754 169.069 110.869 169.216 110.962C169.363 111.052 169.516 111.126 169.677 111.185C169.838 111.242 169.986 111.288 170.121 111.324L170.86 111.523C171.049 111.572 171.26 111.641 171.492 111.729C171.726 111.816 171.95 111.936 172.163 112.087C172.379 112.237 172.556 112.428 172.696 112.663C172.836 112.897 172.905 113.185 172.905 113.526C172.905 113.919 172.802 114.274 172.596 114.591C172.393 114.908 172.095 115.16 171.702 115.347C171.311 115.534 170.836 115.628 170.278 115.628C169.757 115.628 169.306 115.544 168.925 115.376C168.546 115.208 168.247 114.973 168.03 114.673C167.814 114.372 167.692 114.023 167.664 113.625H168.573C168.597 113.9 168.689 114.127 168.85 114.307C169.013 114.484 169.219 114.617 169.468 114.705C169.719 114.79 169.989 114.832 170.278 114.832C170.614 114.832 170.916 114.778 171.183 114.669C171.451 114.558 171.662 114.404 171.819 114.207C171.975 114.009 172.053 113.777 172.053 113.511C172.053 113.27 171.986 113.073 171.851 112.922C171.716 112.77 171.538 112.647 171.318 112.553C171.098 112.458 170.86 112.375 170.604 112.304L169.709 112.048C169.141 111.885 168.691 111.652 168.36 111.349C168.028 111.046 167.863 110.649 167.863 110.159C167.863 109.752 167.973 109.397 168.193 109.094C168.416 108.788 168.714 108.552 169.088 108.384C169.464 108.213 169.885 108.128 170.349 108.128C170.817 108.128 171.234 108.212 171.599 108.38C171.963 108.546 172.252 108.773 172.465 109.062C172.68 109.351 172.794 109.679 172.806 110.045H171.954Z" fill="#222222"/>
<path d="M183 113.801L179.461 110.263L179.933 109.791L183 112.858L186.067 109.791L186.538 110.263L183 113.801Z" fill="#D9D9D9"/>
<path d="M22.733 142.5H21.8523C21.8002 142.247 21.709 142.024 21.5788 141.832C21.451 141.641 21.2947 141.48 21.1101 141.349C20.9278 141.217 20.7254 141.117 20.5028 141.051C20.2803 140.985 20.0483 140.952 19.8068 140.952C19.3665 140.952 18.9676 141.063 18.6101 141.286C18.255 141.508 17.9721 141.836 17.7614 142.269C17.553 142.702 17.4489 143.234 17.4489 143.864C17.4489 144.493 17.553 145.025 17.7614 145.458C17.9721 145.891 18.255 146.219 18.6101 146.442C18.9676 146.664 19.3665 146.776 19.8068 146.776C20.0483 146.776 20.2803 146.742 20.5028 146.676C20.7254 146.61 20.9278 146.512 21.1101 146.381C21.2947 146.249 21.451 146.087 21.5788 145.895C21.709 145.701 21.8002 145.478 21.8523 145.227H22.733C22.6667 145.599 22.5459 145.932 22.3707 146.225C22.1955 146.519 21.9777 146.768 21.7173 146.974C21.4569 147.178 21.1645 147.333 20.8402 147.44C20.5182 147.546 20.1738 147.599 19.8068 147.599C19.1866 147.599 18.6349 147.448 18.152 147.145C17.669 146.842 17.2891 146.411 17.0121 145.852C16.7351 145.294 16.5966 144.631 16.5966 143.864C16.5966 143.097 16.7351 142.434 17.0121 141.875C17.2891 141.316 17.669 140.885 18.152 140.582C18.6349 140.279 19.1866 140.128 19.8068 140.128C20.1738 140.128 20.5182 140.181 20.8402 140.288C21.1645 140.394 21.4569 140.55 21.7173 140.756C21.9777 140.96 22.1955 141.209 22.3707 141.502C22.5459 141.793 22.6667 142.126 22.733 142.5ZM26.2583 147.614C25.7659 147.614 25.3339 147.496 24.9622 147.262C24.5929 147.028 24.304 146.7 24.0957 146.278C23.8897 145.857 23.7868 145.365 23.7868 144.801C23.7868 144.233 23.8897 143.737 24.0957 143.313C24.304 142.889 24.5929 142.56 24.9622 142.326C25.3339 142.092 25.7659 141.974 26.2583 141.974C26.7508 141.974 27.1816 142.092 27.551 142.326C27.9226 142.56 28.2115 142.889 28.4174 143.313C28.6258 143.737 28.7299 144.233 28.7299 144.801C28.7299 145.365 28.6258 145.857 28.4174 146.278C28.2115 146.7 27.9226 147.028 27.551 147.262C27.1816 147.496 26.7508 147.614 26.2583 147.614ZM26.2583 146.861C26.6324 146.861 26.9402 146.765 27.1816 146.573C27.4231 146.381 27.6019 146.129 27.7179 145.817C27.8339 145.504 27.8919 145.166 27.8919 144.801C27.8919 144.437 27.8339 144.097 27.7179 143.782C27.6019 143.467 27.4231 143.213 27.1816 143.018C26.9402 142.824 26.6324 142.727 26.2583 142.727C25.8843 142.727 25.5765 142.824 25.335 143.018C25.0936 143.213 24.9148 143.467 24.7988 143.782C24.6828 144.097 24.6248 144.437 24.6248 144.801C24.6248 145.166 24.6828 145.504 24.7988 145.817C24.9148 146.129 25.0936 146.381 25.335 146.573C25.5765 146.765 25.8843 146.861 26.2583 146.861ZM30.8473 144.219V147.5H30.0092V142.045H30.8189V142.898H30.8899C31.0178 142.621 31.2119 142.398 31.4723 142.23C31.7327 142.06 32.0689 141.974 32.4808 141.974C32.8501 141.974 33.1733 142.05 33.4503 142.202C33.7273 142.351 33.9427 142.578 34.0966 142.884C34.2505 143.187 34.3274 143.57 34.3274 144.034V147.5H33.4893V144.091C33.4893 143.662 33.3781 143.329 33.1555 143.089C32.933 142.848 32.6276 142.727 32.2393 142.727C31.9718 142.727 31.7327 142.785 31.522 142.901C31.3137 143.017 31.1491 143.187 31.0284 143.409C30.9077 143.632 30.8473 143.902 30.8473 144.219ZM38.231 142.045V142.756H35.4043V142.045H38.231ZM36.2282 140.739H37.0662V145.938C37.0662 146.174 37.1006 146.352 37.1692 146.47C37.2402 146.586 37.3302 146.664 37.4391 146.705C37.5504 146.742 37.6676 146.761 37.7907 146.761C37.883 146.761 37.9587 146.757 38.0179 146.747C38.0771 146.735 38.1245 146.726 38.16 146.719L38.3304 147.472C38.2736 147.493 38.1943 147.514 38.0925 147.536C37.9907 147.559 37.8617 147.571 37.7054 147.571C37.4687 147.571 37.2367 147.52 37.0094 147.418C36.7845 147.317 36.5975 147.161 36.4483 146.953C36.3016 146.745 36.2282 146.482 36.2282 146.165V140.739ZM41.0968 147.628C40.7511 147.628 40.4374 147.563 40.1557 147.433C39.874 147.3 39.6503 147.109 39.4846 146.861C39.3188 146.61 39.236 146.307 39.236 145.952C39.236 145.639 39.2975 145.386 39.4206 145.192C39.5437 144.995 39.7083 144.841 39.9142 144.73C40.1202 144.619 40.3475 144.536 40.5961 144.482C40.847 144.425 41.0991 144.38 41.3525 144.347C41.6839 144.304 41.9526 144.272 42.1586 144.251C42.3669 144.227 42.5184 144.188 42.6131 144.134C42.7102 144.079 42.7587 143.984 42.7587 143.849V143.821C42.7587 143.471 42.6628 143.198 42.4711 143.004C42.2817 142.81 41.994 142.713 41.6081 142.713C41.208 142.713 40.8944 142.801 40.6671 142.976C40.4398 143.151 40.28 143.338 40.1877 143.537L39.3922 143.253C39.5343 142.921 39.7237 142.663 39.9604 142.479C40.1995 142.292 40.4599 142.161 40.7417 142.088C41.0257 142.012 41.3051 141.974 41.5797 141.974C41.7549 141.974 41.9561 141.996 42.1834 142.038C42.4131 142.079 42.6344 142.163 42.8475 142.29C43.0629 142.418 43.2417 142.611 43.3837 142.869C43.5257 143.127 43.5968 143.473 43.5968 143.906V147.5H42.7587V146.761H42.7161C42.6593 146.88 42.5646 147.006 42.432 147.141C42.2994 147.276 42.123 147.391 41.9029 147.486C41.6827 147.58 41.414 147.628 41.0968 147.628ZM41.2246 146.875C41.556 146.875 41.8354 146.81 42.0627 146.68C42.2923 146.549 42.4651 146.381 42.5811 146.175C42.6995 145.969 42.7587 145.753 42.7587 145.526V144.759C42.7232 144.801 42.6451 144.84 42.5243 144.876C42.406 144.909 42.2686 144.938 42.1124 144.964C41.9585 144.988 41.8082 145.009 41.6614 145.028C41.517 145.045 41.3998 145.059 41.3098 145.071C41.092 145.099 40.8884 145.146 40.699 145.21C40.512 145.271 40.3605 145.365 40.2445 145.49C40.1309 145.613 40.074 145.781 40.074 145.994C40.074 146.286 40.1818 146.506 40.3972 146.655C40.615 146.802 40.8908 146.875 41.2246 146.875ZM45.1264 147.5V142.045H45.9645V147.5H45.1264ZM45.5526 141.136C45.3892 141.136 45.2483 141.081 45.13 140.969C45.014 140.858 44.956 140.724 44.956 140.568C44.956 140.412 45.014 140.278 45.13 140.167C45.2483 140.056 45.3892 140 45.5526 140C45.7159 140 45.8556 140.056 45.9716 140.167C46.09 140.278 46.1491 140.412 46.1491 140.568C46.1491 140.724 46.09 140.858 45.9716 140.969C45.8556 141.081 45.7159 141.136 45.5526 141.136ZM48.3375 144.219V147.5H47.4995V142.045H48.3091V142.898H48.3801C48.508 142.621 48.7021 142.398 48.9625 142.23C49.223 142.06 49.5591 141.974 49.9711 141.974C50.3404 141.974 50.6635 142.05 50.9405 142.202C51.2175 142.351 51.4329 142.578 51.5868 142.884C51.7407 143.187 51.8176 143.57 51.8176 144.034V147.5H50.9796V144.091C50.9796 143.662 50.8683 143.329 50.6458 143.089C50.4232 142.848 50.1178 142.727 49.7296 142.727C49.4621 142.727 49.223 142.785 49.0123 142.901C48.8039 143.017 48.6394 143.187 48.5186 143.409C48.3979 143.632 48.3375 143.902 48.3375 144.219ZM55.636 147.614C55.1104 147.614 54.6571 147.498 54.2759 147.266C53.8971 147.031 53.6048 146.705 53.3988 146.286C53.1952 145.864 53.0934 145.374 53.0934 144.815C53.0934 144.257 53.1952 143.764 53.3988 143.338C53.6048 142.91 53.8912 142.576 54.2582 142.337C54.6275 142.095 55.0584 141.974 55.5508 141.974C55.8349 141.974 56.1154 142.022 56.3924 142.116C56.6694 142.211 56.9215 142.365 57.1488 142.578C57.3761 142.789 57.5572 143.068 57.6921 143.416C57.8271 143.764 57.8945 144.193 57.8945 144.702V145.057H53.69V144.332H57.0423C57.0423 144.025 56.9807 143.75 56.8576 143.509C56.7369 143.267 56.564 143.076 56.3391 142.937C56.1166 142.797 55.8538 142.727 55.5508 142.727C55.217 142.727 54.9281 142.81 54.6843 142.976C54.4428 143.139 54.257 143.352 54.1268 143.615C53.9966 143.878 53.9315 144.16 53.9315 144.46V144.943C53.9315 145.355 54.0025 145.704 54.1445 145.991C54.2889 146.275 54.489 146.491 54.7447 146.641C55.0004 146.787 55.2975 146.861 55.636 146.861C55.8562 146.861 56.055 146.83 56.2326 146.768C56.4125 146.705 56.5676 146.61 56.6978 146.484C56.828 146.357 56.9286 146.198 56.9996 146.009L57.8093 146.236C57.7241 146.51 57.5808 146.752 57.3796 146.96C57.1784 147.166 56.9298 147.327 56.6339 147.443C56.3379 147.557 56.0053 147.614 55.636 147.614ZM59.1694 147.5V142.045H59.979V142.869H60.0359C60.1353 142.599 60.3152 142.38 60.5756 142.212C60.8361 142.044 61.1296 141.96 61.4563 141.96C61.5179 141.96 61.5948 141.961 61.6871 141.964C61.7795 141.966 61.8493 141.97 61.8967 141.974V142.827C61.8683 142.82 61.8031 142.809 61.7013 142.795C61.6019 142.778 61.4966 142.77 61.3853 142.77C61.1201 142.77 60.8834 142.826 60.6751 142.937C60.4691 143.046 60.3058 143.197 60.185 143.391C60.0666 143.583 60.0075 143.802 60.0075 144.048V147.5H59.1694Z" fill="#222222"/>
<path d="M144.483 141.009V140.227H149.938V141.009H147.651V147.5H146.77V141.009H144.483ZM152.608 147.614C152.116 147.614 151.683 147.496 151.312 147.262C150.942 147.028 150.654 146.7 150.445 146.278C150.239 145.857 150.136 145.365 150.136 144.801C150.136 144.233 150.239 143.737 150.445 143.313C150.654 142.889 150.942 142.56 151.312 142.326C151.683 142.092 152.116 141.974 152.608 141.974C153.1 141.974 153.531 142.092 153.901 142.326C154.272 142.56 154.561 142.889 154.767 143.313C154.975 143.737 155.08 144.233 155.08 144.801C155.08 145.365 154.975 145.857 154.767 146.278C154.561 146.7 154.272 147.028 153.901 147.262C153.531 147.496 153.1 147.614 152.608 147.614ZM152.608 146.861C152.982 146.861 153.29 146.765 153.531 146.573C153.773 146.381 153.951 146.129 154.067 145.817C154.183 145.504 154.241 145.166 154.241 144.801C154.241 144.437 154.183 144.097 154.067 143.782C153.951 143.467 153.773 143.213 153.531 143.018C153.29 142.824 152.982 142.727 152.608 142.727C152.234 142.727 151.926 142.824 151.685 143.018C151.443 143.213 151.264 143.467 151.148 143.782C151.032 144.097 150.974 144.437 150.974 144.801C150.974 145.166 151.032 145.504 151.148 145.817C151.264 146.129 151.443 146.381 151.685 146.573C151.926 146.765 152.234 146.861 152.608 146.861ZM158.731 142.045V142.756H155.904V142.045H158.731ZM156.728 140.739H157.566V145.938C157.566 146.174 157.601 146.352 157.669 146.47C157.74 146.586 157.83 146.664 157.939 146.705C158.05 146.742 158.168 146.761 158.291 146.761C158.383 146.761 158.459 146.757 158.518 146.747C158.577 146.735 158.624 146.726 158.66 146.719L158.83 147.472C158.774 147.493 158.694 147.514 158.593 147.536C158.491 147.559 158.362 147.571 158.205 147.571C157.969 147.571 157.737 147.52 157.509 147.418C157.285 147.317 157.097 147.161 156.948 146.953C156.802 146.745 156.728 146.482 156.728 146.165V140.739ZM162.22 147.614C161.694 147.614 161.241 147.498 160.86 147.266C160.481 147.031 160.189 146.705 159.983 146.286C159.779 145.864 159.677 145.374 159.677 144.815C159.677 144.257 159.779 143.764 159.983 143.338C160.189 142.91 160.475 142.576 160.842 142.337C161.211 142.095 161.642 141.974 162.135 141.974C162.419 141.974 162.699 142.022 162.976 142.116C163.253 142.211 163.506 142.365 163.733 142.578C163.96 142.789 164.141 143.068 164.276 143.416C164.411 143.764 164.479 144.193 164.479 144.702V145.057H160.274V144.332H163.626C163.626 144.025 163.565 143.75 163.442 143.509C163.321 143.267 163.148 143.076 162.923 142.937C162.701 142.797 162.438 142.727 162.135 142.727C161.801 142.727 161.512 142.81 161.268 142.976C161.027 143.139 160.841 143.352 160.711 143.615C160.581 143.878 160.515 144.16 160.515 144.46V144.943C160.515 145.355 160.586 145.704 160.729 145.991C160.873 146.275 161.073 146.491 161.329 146.641C161.584 146.787 161.881 146.861 162.22 146.861C162.44 146.861 162.639 146.83 162.817 146.768C162.997 146.705 163.152 146.61 163.282 146.484C163.412 146.357 163.513 146.198 163.584 146.009L164.393 146.236C164.308 146.51 164.165 146.752 163.964 146.96C163.762 147.166 163.514 147.327 163.218 147.443C162.922 147.557 162.589 147.614 162.22 147.614ZM169.617 143.267L168.864 143.48C168.817 143.355 168.747 143.233 168.655 143.114C168.565 142.994 168.442 142.894 168.285 142.816C168.129 142.738 167.929 142.699 167.685 142.699C167.351 142.699 167.073 142.776 166.851 142.93C166.631 143.081 166.52 143.274 166.52 143.509C166.52 143.717 166.596 143.881 166.748 144.002C166.899 144.123 167.136 144.223 167.458 144.304L168.268 144.503C168.755 144.621 169.119 144.802 169.358 145.046C169.597 145.288 169.716 145.599 169.716 145.98C169.716 146.293 169.626 146.572 169.447 146.818C169.269 147.064 169.02 147.259 168.701 147.401C168.381 147.543 168.01 147.614 167.586 147.614C167.029 147.614 166.569 147.493 166.204 147.251C165.84 147.01 165.609 146.657 165.512 146.193L166.307 145.994C166.383 146.288 166.526 146.508 166.737 146.655C166.95 146.802 167.228 146.875 167.572 146.875C167.962 146.875 168.272 146.792 168.502 146.626C168.734 146.458 168.85 146.257 168.85 146.023C168.85 145.833 168.784 145.675 168.651 145.547C168.519 145.417 168.315 145.32 168.04 145.256L167.131 145.043C166.632 144.924 166.265 144.741 166.03 144.492C165.798 144.241 165.682 143.928 165.682 143.551C165.682 143.243 165.769 142.971 165.942 142.734C166.117 142.498 166.355 142.312 166.655 142.177C166.958 142.042 167.302 141.974 167.685 141.974C168.225 141.974 168.649 142.093 168.956 142.33C169.267 142.566 169.487 142.879 169.617 143.267Z" fill="#222222"/>
<path d="M180 145.801L176.461 142.263L176.933 141.791L180 144.858L183.067 141.791L183.538 142.263L180 145.801Z" fill="#D9D9D9"/>
<path d="M16.8807 179.5V172.227H19.3381C19.9063 172.227 20.3726 172.324 20.7372 172.518C21.1018 172.71 21.3717 172.974 21.5469 173.31C21.7221 173.647 21.8097 174.029 21.8097 174.457C21.8097 174.886 21.7221 175.266 21.5469 175.597C21.3717 175.929 21.103 176.189 20.7408 176.379C20.3786 176.566 19.9157 176.659 19.3523 176.659H17.3636V175.864H19.3239C19.7121 175.864 20.0246 175.807 20.2614 175.693C20.5005 175.58 20.6733 175.419 20.7798 175.21C20.8887 175 20.9432 174.749 20.9432 174.457C20.9432 174.166 20.8887 173.912 20.7798 173.694C20.6709 173.476 20.4969 173.308 20.2578 173.19C20.0187 173.069 19.7027 173.009 19.3097 173.009H17.7614V179.5H16.8807ZM20.304 176.233L22.0938 179.5H21.071L19.3097 176.233H20.304ZM25.3208 179.614C24.8284 179.614 24.3964 179.496 24.0247 179.262C23.6554 179.028 23.3665 178.7 23.1582 178.278C22.9522 177.857 22.8493 177.365 22.8493 176.801C22.8493 176.233 22.9522 175.737 23.1582 175.313C23.3665 174.889 23.6554 174.56 24.0247 174.326C24.3964 174.092 24.8284 173.974 25.3208 173.974C25.8133 173.974 26.2441 174.092 26.6135 174.326C26.9851 174.56 27.274 174.889 27.4799 175.313C27.6883 175.737 27.7924 176.233 27.7924 176.801C27.7924 177.365 27.6883 177.857 27.4799 178.278C27.274 178.7 26.9851 179.028 26.6135 179.262C26.2441 179.496 25.8133 179.614 25.3208 179.614ZM25.3208 178.861C25.6949 178.861 26.0027 178.765 26.2441 178.573C26.4856 178.381 26.6644 178.129 26.7804 177.817C26.8964 177.504 26.9544 177.166 26.9544 176.801C26.9544 176.437 26.8964 176.097 26.7804 175.782C26.6644 175.467 26.4856 175.213 26.2441 175.018C26.0027 174.824 25.6949 174.727 25.3208 174.727C24.9468 174.727 24.639 174.824 24.3975 175.018C24.1561 175.213 23.9773 175.467 23.8613 175.782C23.7453 176.097 23.6873 176.437 23.6873 176.801C23.6873 177.166 23.7453 177.504 23.8613 177.817C23.9773 178.129 24.1561 178.381 24.3975 178.573C24.639 178.765 24.9468 178.861 25.3208 178.861ZM30.122 179.5L28.46 174.045H29.3407L30.5197 178.222H30.5765L31.7413 174.045H32.6362L33.7868 178.207H33.8436L35.0225 174.045H35.9032L34.2413 179.5H33.4174L32.2243 175.31H32.139L30.9458 179.5H30.122ZM40.8748 175.267L40.122 175.48C40.0746 175.355 40.0048 175.233 39.9125 175.114C39.8225 174.994 39.6994 174.894 39.5431 174.816C39.3869 174.738 39.1868 174.699 38.943 174.699C38.6092 174.699 38.331 174.776 38.1085 174.93C37.8883 175.081 37.7782 175.274 37.7782 175.509C37.7782 175.717 37.854 175.881 38.0055 176.002C38.157 176.123 38.3938 176.223 38.7157 176.304L39.5254 176.503C40.0131 176.621 40.3765 176.802 40.6156 177.046C40.8547 177.288 40.9743 177.599 40.9743 177.98C40.9743 178.293 40.8843 178.572 40.7044 178.818C40.5268 179.064 40.2782 179.259 39.9586 179.401C39.639 179.543 39.2673 179.614 38.8436 179.614C38.2872 179.614 37.8268 179.493 37.4622 179.251C37.0976 179.01 36.8668 178.657 36.7697 178.193L37.5652 177.994C37.6409 178.288 37.7842 178.508 37.9949 178.655C38.2079 178.802 38.4861 178.875 38.8294 178.875C39.22 178.875 39.5301 178.792 39.7598 178.626C39.9918 178.458 40.1078 178.257 40.1078 178.023C40.1078 177.833 40.0415 177.675 39.9089 177.547C39.7763 177.417 39.5727 177.32 39.2981 177.256L38.389 177.043C37.8895 176.924 37.5225 176.741 37.2882 176.492C37.0562 176.241 36.9402 175.928 36.9402 175.551C36.9402 175.243 37.0266 174.971 37.1994 174.734C37.3746 174.498 37.6125 174.312 37.9132 174.177C38.2162 174.042 38.5595 173.974 38.943 173.974C39.4828 173.974 39.9065 174.093 40.2143 174.33C40.5244 174.566 40.7446 174.879 40.8748 175.267Z" fill="#222222"/>
<path d="M144.582 178.009V177.284L147.778 172.227H148.304V173.349H147.949L145.534 177.17V177.227H149.838V178.009H144.582ZM148.006 179.5V177.788V177.451V172.227H148.844V179.5H148.006Z" fill="#222222"/>
<path d="M22.733 206.5H21.8523C21.8002 206.247 21.709 206.024 21.5788 205.832C21.451 205.641 21.2947 205.48 21.1101 205.349C20.9278 205.217 20.7254 205.117 20.5028 205.051C20.2803 204.985 20.0483 204.952 19.8068 204.952C19.3665 204.952 18.9676 205.063 18.6101 205.286C18.255 205.508 17.9721 205.836 17.7614 206.269C17.553 206.702 17.4489 207.234 17.4489 207.864C17.4489 208.493 17.553 209.025 17.7614 209.458C17.9721 209.891 18.255 210.219 18.6101 210.442C18.9676 210.664 19.3665 210.776 19.8068 210.776C20.0483 210.776 20.2803 210.742 20.5028 210.676C20.7254 210.61 20.9278 210.512 21.1101 210.381C21.2947 210.249 21.451 210.087 21.5788 209.895C21.709 209.701 21.8002 209.478 21.8523 209.227H22.733C22.6667 209.599 22.5459 209.932 22.3707 210.225C22.1955 210.519 21.9777 210.768 21.7173 210.974C21.4569 211.178 21.1645 211.333 20.8402 211.44C20.5182 211.546 20.1738 211.599 19.8068 211.599C19.1866 211.599 18.6349 211.448 18.152 211.145C17.669 210.842 17.2891 210.411 17.0121 209.852C16.7351 209.294 16.5966 208.631 16.5966 207.864C16.5966 207.097 16.7351 206.434 17.0121 205.875C17.2891 205.316 17.669 204.885 18.152 204.582C18.6349 204.279 19.1866 204.128 19.8068 204.128C20.1738 204.128 20.5182 204.181 20.8402 204.288C21.1645 204.394 21.4569 204.55 21.7173 204.756C21.9777 204.96 22.1955 205.209 22.3707 205.502C22.5459 205.793 22.6667 206.126 22.733 206.5ZM26.2583 211.614C25.7659 211.614 25.3339 211.496 24.9622 211.262C24.5929 211.028 24.304 210.7 24.0957 210.278C23.8897 209.857 23.7868 209.365 23.7868 208.801C23.7868 208.233 23.8897 207.737 24.0957 207.313C24.304 206.889 24.5929 206.56 24.9622 206.326C25.3339 206.092 25.7659 205.974 26.2583 205.974C26.7508 205.974 27.1816 206.092 27.551 206.326C27.9226 206.56 28.2115 206.889 28.4174 207.313C28.6258 207.737 28.7299 208.233 28.7299 208.801C28.7299 209.365 28.6258 209.857 28.4174 210.278C28.2115 210.7 27.9226 211.028 27.551 211.262C27.1816 211.496 26.7508 211.614 26.2583 211.614ZM26.2583 210.861C26.6324 210.861 26.9402 210.765 27.1816 210.573C27.4231 210.381 27.6019 210.129 27.7179 209.817C27.8339 209.504 27.8919 209.166 27.8919 208.801C27.8919 208.437 27.8339 208.097 27.7179 207.782C27.6019 207.467 27.4231 207.213 27.1816 207.018C26.9402 206.824 26.6324 206.727 26.2583 206.727C25.8843 206.727 25.5765 206.824 25.335 207.018C25.0936 207.213 24.9148 207.467 24.7988 207.782C24.6828 208.097 24.6248 208.437 24.6248 208.801C24.6248 209.166 24.6828 209.504 24.7988 209.817C24.9148 210.129 25.0936 210.381 25.335 210.573C25.5765 210.765 25.8843 210.861 26.2583 210.861ZM30.8473 204.227V211.5H30.0092V204.227H30.8473ZM35.8198 209.27V206.045H36.6578V211.5H35.8198V210.577H35.763C35.6351 210.854 35.4363 211.089 35.1664 211.283C34.8965 211.475 34.5556 211.571 34.1436 211.571C33.8027 211.571 33.4997 211.496 33.2346 211.347C32.9694 211.196 32.7611 210.969 32.6096 210.665C32.458 210.36 32.3823 209.975 32.3823 209.511V206.045H33.2203V209.455C33.2203 209.852 33.3316 210.17 33.5542 210.406C33.7791 210.643 34.0655 210.761 34.4135 210.761C34.6219 210.761 34.8337 210.708 35.0492 210.602C35.267 210.495 35.4493 210.332 35.5961 210.112C35.7452 209.891 35.8198 209.611 35.8198 209.27ZM38.1928 211.5V206.045H39.0025V206.898H39.0735C39.1871 206.607 39.3706 206.38 39.6239 206.219C39.8772 206.056 40.1815 205.974 40.5366 205.974C40.8964 205.974 41.1959 206.056 41.435 206.219C41.6765 206.38 41.8647 206.607 41.9996 206.898H42.0565C42.1961 206.616 42.4057 206.392 42.685 206.227C42.9644 206.058 43.2994 205.974 43.69 205.974C44.1777 205.974 44.5766 206.127 44.8867 206.433C45.1969 206.736 45.3519 207.208 45.3519 207.849V211.5H44.5138V207.849C44.5138 207.447 44.4038 207.159 44.1836 206.987C43.9634 206.814 43.7042 206.727 43.4059 206.727C43.0224 206.727 42.7253 206.843 42.5146 207.075C42.3039 207.305 42.1985 207.596 42.1985 207.949V211.5H41.3462V207.764C41.3462 207.454 41.2456 207.204 41.0444 207.015C40.8432 206.823 40.5839 206.727 40.2667 206.727C40.0489 206.727 39.8453 206.785 39.6559 206.901C39.4689 207.017 39.3174 207.178 39.2013 207.384C39.0877 207.588 39.0309 207.823 39.0309 208.091V211.5H38.1928ZM47.7223 208.219V211.5H46.8842V206.045H47.6939V206.898H47.7649C47.8928 206.621 48.0869 206.398 48.3473 206.23C48.6077 206.06 48.9439 205.974 49.3558 205.974C49.7251 205.974 50.0483 206.05 50.3253 206.202C50.6023 206.351 50.8177 206.578 50.9716 206.884C51.1255 207.187 51.2024 207.57 51.2024 208.034V211.5H50.3643V208.091C50.3643 207.662 50.2531 207.329 50.0305 207.089C49.808 206.848 49.5026 206.727 49.1143 206.727C48.8468 206.727 48.6077 206.785 48.397 206.901C48.1887 207.017 48.0241 207.187 47.9034 207.409C47.7827 207.632 47.7223 207.902 47.7223 208.219ZM56.5975 207.267L55.8446 207.48C55.7973 207.355 55.7275 207.233 55.6351 207.114C55.5452 206.994 55.4221 206.894 55.2658 206.816C55.1096 206.738 54.9095 206.699 54.6657 206.699C54.3319 206.699 54.0537 206.776 53.8311 206.93C53.611 207.081 53.5009 207.274 53.5009 207.509C53.5009 207.717 53.5766 207.881 53.7282 208.002C53.8797 208.123 54.1164 208.223 54.4384 208.304L55.248 208.503C55.7357 208.621 56.0991 208.802 56.3382 209.046C56.5774 209.288 56.6969 209.599 56.6969 209.98C56.6969 210.293 56.6069 210.572 56.427 210.818C56.2495 211.064 56.0009 211.259 55.6813 211.401C55.3617 211.543 54.99 211.614 54.5662 211.614C54.0099 211.614 53.5494 211.493 53.1848 211.251C52.8203 211.01 52.5894 210.657 52.4924 210.193L53.2878 209.994C53.3636 210.288 53.5068 210.508 53.7175 210.655C53.9306 210.802 54.2087 210.875 54.552 210.875C54.9426 210.875 55.2528 210.792 55.4824 210.626C55.7144 210.458 55.8304 210.257 55.8304 210.023C55.8304 209.833 55.7641 209.675 55.6316 209.547C55.499 209.417 55.2954 209.32 55.0208 209.256L54.1117 209.043C53.6122 208.924 53.2452 208.741 53.0108 208.492C52.7788 208.241 52.6628 207.928 52.6628 207.551C52.6628 207.243 52.7492 206.971 52.9221 206.734C53.0972 206.498 53.3352 206.312 53.6358 206.177C53.9389 206.042 54.2821 205.974 54.6657 205.974C55.2054 205.974 55.6292 206.093 55.937 206.33C56.2471 206.566 56.4673 206.879 56.5975 207.267Z" fill="#222222"/>
<path d="M144.753 211.5V210.861L147.153 208.233C147.435 207.925 147.667 207.658 147.849 207.43C148.032 207.201 148.167 206.985 148.254 206.784C148.344 206.58 148.389 206.367 148.389 206.145C148.389 205.889 148.328 205.668 148.205 205.481C148.084 205.294 147.918 205.149 147.707 205.048C147.497 204.946 147.26 204.895 146.997 204.895C146.718 204.895 146.474 204.953 146.266 205.069C146.06 205.183 145.9 205.342 145.786 205.548C145.675 205.754 145.619 205.996 145.619 206.273H144.781C144.781 205.847 144.879 205.473 145.076 205.151C145.272 204.829 145.54 204.578 145.879 204.398C146.219 204.218 146.602 204.128 147.026 204.128C147.452 204.128 147.829 204.218 148.158 204.398C148.487 204.578 148.746 204.82 148.933 205.126C149.12 205.431 149.213 205.771 149.213 206.145C149.213 206.412 149.165 206.674 149.067 206.93C148.973 207.183 148.807 207.466 148.57 207.778C148.336 208.089 148.01 208.467 147.594 208.915L145.96 210.662V210.719H149.341V211.5H144.753Z" fill="#222222"/>
<path d="M22.733 238.5H21.8523C21.8002 238.247 21.709 238.024 21.5788 237.832C21.451 237.641 21.2947 237.48 21.1101 237.349C20.9278 237.217 20.7254 237.117 20.5028 237.051C20.2803 236.985 20.0483 236.952 19.8068 236.952C19.3665 236.952 18.9676 237.063 18.6101 237.286C18.255 237.508 17.9721 237.836 17.7614 238.269C17.553 238.702 17.4489 239.234 17.4489 239.864C17.4489 240.493 17.553 241.025 17.7614 241.458C17.9721 241.891 18.255 242.219 18.6101 242.442C18.9676 242.664 19.3665 242.776 19.8068 242.776C20.0483 242.776 20.2803 242.742 20.5028 242.676C20.7254 242.61 20.9278 242.512 21.1101 242.381C21.2947 242.249 21.451 242.087 21.5788 241.895C21.709 241.701 21.8002 241.478 21.8523 241.227H22.733C22.6667 241.599 22.5459 241.932 22.3707 242.225C22.1955 242.519 21.9777 242.768 21.7173 242.974C21.4569 243.178 21.1645 243.333 20.8402 243.44C20.5182 243.546 20.1738 243.599 19.8068 243.599C19.1866 243.599 18.6349 243.448 18.152 243.145C17.669 242.842 17.2891 242.411 17.0121 241.852C16.7351 241.294 16.5966 240.631 16.5966 239.864C16.5966 239.097 16.7351 238.434 17.0121 237.875C17.2891 237.316 17.669 236.885 18.152 236.582C18.6349 236.279 19.1866 236.128 19.8068 236.128C20.1738 236.128 20.5182 236.181 20.8402 236.288C21.1645 236.394 21.4569 236.55 21.7173 236.756C21.9777 236.96 22.1955 237.209 22.3707 237.502C22.5459 237.793 22.6667 238.126 22.733 238.5ZM24.8805 240.219V243.5H24.0424V236.227H24.8805V238.898H24.9515C25.0794 238.616 25.2711 238.392 25.5268 238.227C25.7849 238.058 26.1281 237.974 26.5566 237.974C26.9283 237.974 27.2538 238.049 27.5332 238.198C27.8126 238.345 28.0292 238.571 28.1831 238.876C28.3393 239.179 28.4174 239.565 28.4174 240.034V243.5H27.5794V240.091C27.5794 239.658 27.4669 239.323 27.242 239.086C27.0195 238.847 26.7105 238.727 26.3152 238.727C26.0405 238.727 25.7943 238.785 25.5765 238.901C25.3611 239.017 25.1906 239.187 25.0652 239.409C24.9421 239.632 24.8805 239.902 24.8805 240.219ZM31.5558 243.628C31.2101 243.628 30.8964 243.563 30.6147 243.433C30.333 243.3 30.1093 243.109 29.9435 242.861C29.7778 242.61 29.695 242.307 29.695 241.952C29.695 241.639 29.7565 241.386 29.8796 241.192C30.0027 240.995 30.1673 240.841 30.3732 240.73C30.5792 240.619 30.8065 240.536 31.055 240.482C31.306 240.425 31.5581 240.38 31.8114 240.347C32.1429 240.304 32.4116 240.272 32.6175 240.251C32.8259 240.227 32.9774 240.188 33.0721 240.134C33.1692 240.079 33.2177 239.984 33.2177 239.849V239.821C33.2177 239.471 33.1218 239.198 32.93 239.004C32.7406 238.81 32.453 238.713 32.0671 238.713C31.667 238.713 31.3533 238.801 31.1261 238.976C30.8988 239.151 30.739 239.338 30.6467 239.537L29.8512 239.253C29.9933 238.921 30.1826 238.663 30.4194 238.479C30.6585 238.292 30.9189 238.161 31.2006 238.088C31.4847 238.012 31.7641 237.974 32.0387 237.974C32.2139 237.974 32.4151 237.996 32.6424 238.038C32.872 238.079 33.0934 238.163 33.3065 238.29C33.5219 238.418 33.7006 238.611 33.8427 238.869C33.9847 239.127 34.0558 239.473 34.0558 239.906V243.5H33.2177V242.761H33.1751C33.1183 242.88 33.0236 243.006 32.891 243.141C32.7584 243.276 32.582 243.391 32.3619 243.486C32.1417 243.58 31.873 243.628 31.5558 243.628ZM31.6836 242.875C32.015 242.875 32.2944 242.81 32.5217 242.68C32.7513 242.549 32.9241 242.381 33.0401 242.175C33.1585 241.969 33.2177 241.753 33.2177 241.526V240.759C33.1822 240.801 33.104 240.84 32.9833 240.876C32.8649 240.909 32.7276 240.938 32.5714 240.964C32.4175 240.988 32.2672 241.009 32.1204 241.028C31.976 241.045 31.8588 241.059 31.7688 241.071C31.551 241.099 31.3474 241.146 31.158 241.21C30.971 241.271 30.8195 241.365 30.7035 241.49C30.5898 241.613 30.533 241.781 30.533 241.994C30.533 242.286 30.6407 242.506 30.8562 242.655C31.074 242.802 31.3498 242.875 31.6836 242.875ZM36.4235 240.219V243.5H35.5854V238.045H36.3951V238.898H36.4661C36.5939 238.621 36.7881 238.398 37.0485 238.23C37.3089 238.06 37.6451 237.974 38.057 237.974C38.4263 237.974 38.7495 238.05 39.0265 238.202C39.3034 238.351 39.5189 238.578 39.6728 238.884C39.8266 239.187 39.9036 239.57 39.9036 240.034V243.5H39.0655V240.091C39.0655 239.662 38.9542 239.329 38.7317 239.089C38.5092 238.848 38.2038 238.727 37.8155 238.727C37.548 238.727 37.3089 238.785 37.0982 238.901C36.8899 239.017 36.7253 239.187 36.6046 239.409C36.4838 239.632 36.4235 239.902 36.4235 240.219ZM42.2731 240.219V243.5H41.435V238.045H42.2447V238.898H42.3157C42.4435 238.621 42.6377 238.398 42.8981 238.23C43.1585 238.06 43.4947 237.974 43.9066 237.974C44.2759 237.974 44.5991 238.05 44.8761 238.202C45.1531 238.351 45.3685 238.578 45.5224 238.884C45.6763 239.187 45.7532 239.57 45.7532 240.034V243.5H44.9151V240.091C44.9151 239.662 44.8039 239.329 44.5813 239.089C44.3588 238.848 44.0534 238.727 43.6651 238.727C43.3976 238.727 43.1585 238.785 42.9478 238.901C42.7395 239.017 42.5749 239.187 42.4542 239.409C42.3335 239.632 42.2731 239.902 42.2731 240.219ZM49.5716 243.614C49.046 243.614 48.5926 243.498 48.2115 243.266C47.8327 243.031 47.5403 242.705 47.3343 242.286C47.1307 241.864 47.0289 241.374 47.0289 240.815C47.0289 240.257 47.1307 239.764 47.3343 239.338C47.5403 238.91 47.8268 238.576 48.1937 238.337C48.563 238.095 48.9939 237.974 49.4863 237.974C49.7704 237.974 50.051 238.022 50.3279 238.116C50.6049 238.211 50.8571 238.365 51.0843 238.578C51.3116 238.789 51.4927 239.068 51.6277 239.416C51.7626 239.764 51.8301 240.193 51.8301 240.702V241.057H47.6255V240.332H50.9778C50.9778 240.025 50.9163 239.75 50.7931 239.509C50.6724 239.267 50.4996 239.076 50.2747 238.937C50.0521 238.797 49.7894 238.727 49.4863 238.727C49.1525 238.727 48.8637 238.81 48.6199 238.976C48.3784 239.139 48.1925 239.352 48.0623 239.615C47.9321 239.878 47.867 240.16 47.867 240.46V240.943C47.867 241.355 47.938 241.704 48.0801 241.991C48.2245 242.275 48.4245 242.491 48.6802 242.641C48.9359 242.787 49.233 242.861 49.5716 242.861C49.7917 242.861 49.9906 242.83 50.1681 242.768C50.3481 242.705 50.5031 242.61 50.6333 242.484C50.7636 242.357 50.8642 242.198 50.9352 242.009L51.7449 242.236C51.6596 242.51 51.5164 242.752 51.3152 242.96C51.1139 243.166 50.8654 243.327 50.5694 243.443C50.2735 243.557 49.9409 243.614 49.5716 243.614ZM53.943 236.227V243.5H53.1049V236.227H53.943ZM59.1286 236.227V243.5H58.2905V236.227H59.1286ZM62.8794 243.614C62.387 243.614 61.955 243.496 61.5833 243.262C61.214 243.028 60.9251 242.7 60.7168 242.278C60.5108 241.857 60.4078 241.365 60.4078 240.801C60.4078 240.233 60.5108 239.737 60.7168 239.313C60.9251 238.889 61.214 238.56 61.5833 238.326C61.955 238.092 62.387 237.974 62.8794 237.974C63.3719 237.974 63.8027 238.092 64.1721 238.326C64.5437 238.56 64.8326 238.889 65.0385 239.313C65.2469 239.737 65.351 240.233 65.351 240.801C65.351 241.365 65.2469 241.857 65.0385 242.278C64.8326 242.7 64.5437 243.028 64.1721 243.262C63.8027 243.496 63.3719 243.614 62.8794 243.614ZM62.8794 242.861C63.2535 242.861 63.5613 242.765 63.8027 242.573C64.0442 242.381 64.223 242.129 64.339 241.817C64.455 241.504 64.513 241.166 64.513 240.801C64.513 240.437 64.455 240.097 64.339 239.782C64.223 239.467 64.0442 239.213 63.8027 239.018C63.5613 238.824 63.2535 238.727 62.8794 238.727C62.5054 238.727 62.1976 238.824 61.9561 239.018C61.7147 239.213 61.5359 239.467 61.4199 239.782C61.3039 240.097 61.2459 240.437 61.2459 240.801C61.2459 241.166 61.3039 241.504 61.4199 241.817C61.5359 242.129 61.7147 242.381 61.9561 242.573C62.1976 242.765 62.5054 242.861 62.8794 242.861ZM68.8462 243.614C68.3349 243.614 67.8945 243.493 67.5252 243.251C67.1559 243.01 66.8718 242.677 66.6729 242.254C66.4741 241.83 66.3746 241.346 66.3746 240.801C66.3746 240.247 66.4764 239.758 66.68 239.335C66.886 238.908 67.1725 238.576 67.5394 238.337C67.9087 238.095 68.3396 237.974 68.832 237.974C69.2156 237.974 69.5612 238.045 69.869 238.188C70.1767 238.33 70.4289 238.528 70.6254 238.784C70.8219 239.04 70.9438 239.338 70.9911 239.679H70.1531C70.0891 239.43 69.9471 239.21 69.7269 239.018C69.5091 238.824 69.2156 238.727 68.8462 238.727C68.5195 238.727 68.2331 238.812 67.9869 238.983C67.743 239.151 67.5524 239.389 67.4151 239.697C67.2802 240.002 67.2127 240.361 67.2127 240.773C67.2127 241.194 67.279 241.561 67.4116 241.874C67.5465 242.186 67.7359 242.429 67.9798 242.602C68.226 242.774 68.5148 242.861 68.8462 242.861C69.064 242.861 69.2617 242.823 69.4393 242.747C69.6168 242.671 69.7672 242.562 69.8903 242.42C70.0134 242.278 70.101 242.108 70.1531 241.909H70.9911C70.9438 242.231 70.8266 242.521 70.6396 242.779C70.4549 243.035 70.2099 243.238 69.9045 243.39C69.6014 243.539 69.2487 243.614 68.8462 243.614ZM73.8214 243.628C73.4757 243.628 73.1621 243.563 72.8803 243.433C72.5986 243.3 72.3749 243.109 72.2092 242.861C72.0434 242.61 71.9606 242.307 71.9606 241.952C71.9606 241.639 72.0221 241.386 72.1452 241.192C72.2683 240.995 72.4329 240.841 72.6388 240.73C72.8448 240.619 73.0721 240.536 73.3207 240.482C73.5716 240.425 73.8237 240.38 74.0771 240.347C74.4085 240.304 74.6772 240.272 74.8832 240.251C75.0915 240.227 75.243 240.188 75.3377 240.134C75.4348 240.079 75.4833 239.984 75.4833 239.849V239.821C75.4833 239.471 75.3874 239.198 75.1957 239.004C75.0063 238.81 74.7186 238.713 74.3327 238.713C73.9326 238.713 73.619 238.801 73.3917 238.976C73.1644 239.151 73.0046 239.338 72.9123 239.537L72.1168 239.253C72.2589 238.921 72.4483 238.663 72.685 238.479C72.9241 238.292 73.1845 238.161 73.4663 238.088C73.7504 238.012 74.0297 237.974 74.3043 237.974C74.4795 237.974 74.6808 237.996 74.908 238.038C75.1377 238.079 75.359 238.163 75.5721 238.29C75.7875 238.418 75.9663 238.611 76.1083 238.869C76.2504 239.127 76.3214 239.473 76.3214 239.906V243.5H75.4833V242.761H75.4407C75.3839 242.88 75.2892 243.006 75.1566 243.141C75.024 243.276 74.8477 243.391 74.6275 243.486C74.4073 243.58 74.1386 243.628 73.8214 243.628ZM73.9492 242.875C74.2807 242.875 74.56 242.81 74.7873 242.68C75.0169 242.549 75.1897 242.381 75.3058 242.175C75.4241 241.969 75.4833 241.753 75.4833 241.526V240.759C75.4478 240.801 75.3697 240.84 75.2489 240.876C75.1306 240.909 74.9933 240.938 74.837 240.964C74.6831 240.988 74.5328 241.009 74.386 241.028C74.2416 241.045 74.1244 241.059 74.0344 241.071C73.8166 241.099 73.613 241.146 73.4237 241.21C73.2366 241.271 73.0851 241.365 72.9691 241.49C72.8555 241.613 72.7987 241.781 72.7987 241.994C72.7987 242.286 72.9064 242.506 73.1218 242.655C73.3396 242.802 73.6154 242.875 73.9492 242.875ZM80.2232 238.045V238.756H77.3965V238.045H80.2232ZM78.2203 236.739H79.0584V241.938C79.0584 242.174 79.0927 242.352 79.1614 242.47C79.2324 242.586 79.3224 242.664 79.4313 242.705C79.5426 242.742 79.6597 242.761 79.7828 242.761C79.8752 242.761 79.9509 242.757 80.0101 242.747C80.0693 242.735 80.1167 242.726 80.1522 242.719L80.3226 243.472C80.2658 243.493 80.1865 243.514 80.0847 243.536C79.9829 243.559 79.8539 243.571 79.6976 243.571C79.4609 243.571 79.2289 243.52 79.0016 243.418C78.7767 243.317 78.5897 243.161 78.4405 242.953C78.2937 242.745 78.2203 242.482 78.2203 242.165V236.739ZM81.4838 243.5V238.045H82.3219V243.5H81.4838ZM81.91 237.136C81.7466 237.136 81.6058 237.081 81.4874 236.969C81.3714 236.858 81.3134 236.724 81.3134 236.568C81.3134 236.412 81.3714 236.278 81.4874 236.167C81.6058 236.056 81.7466 236 81.91 236C82.0733 236 82.213 236.056 82.329 236.167C82.4474 236.278 82.5066 236.412 82.5066 236.568C82.5066 236.724 82.4474 236.858 82.329 236.969C82.213 237.081 82.0733 237.136 81.91 237.136ZM86.0728 243.614C85.5804 243.614 85.1483 243.496 84.7766 243.262C84.4073 243.028 84.1185 242.7 83.9102 242.278C83.7042 241.857 83.6012 241.365 83.6012 240.801C83.6012 240.233 83.7042 239.737 83.9102 239.313C84.1185 238.889 84.4073 238.56 84.7766 238.326C85.1483 238.092 85.5804 237.974 86.0728 237.974C86.5652 237.974 86.9961 238.092 87.3654 238.326C87.7371 238.56 88.0259 238.889 88.2319 239.313C88.4402 239.737 88.5444 240.233 88.5444 240.801C88.5444 241.365 88.4402 241.857 88.2319 242.278C88.0259 242.7 87.7371 243.028 87.3654 243.262C86.9961 243.496 86.5652 243.614 86.0728 243.614ZM86.0728 242.861C86.4469 242.861 86.7546 242.765 86.9961 242.573C87.2376 242.381 87.4163 242.129 87.5323 241.817C87.6483 241.504 87.7063 241.166 87.7063 240.801C87.7063 240.437 87.6483 240.097 87.5323 239.782C87.4163 239.467 87.2376 239.213 86.9961 239.018C86.7546 238.824 86.4469 238.727 86.0728 238.727C85.6987 238.727 85.391 238.824 85.1495 239.018C84.908 239.213 84.7293 239.467 84.6133 239.782C84.4973 240.097 84.4393 240.437 84.4393 240.801C84.4393 241.166 84.4973 241.504 84.6133 241.817C84.7293 242.129 84.908 242.381 85.1495 242.573C85.391 242.765 85.6987 242.861 86.0728 242.861ZM90.6618 240.219V243.5H89.8237V238.045H90.6333V238.898H90.7044C90.8322 238.621 91.0263 238.398 91.2868 238.23C91.5472 238.06 91.8833 237.974 92.2953 237.974C92.6646 237.974 92.9877 238.05 93.2647 238.202C93.5417 238.351 93.7572 238.578 93.911 238.884C94.0649 239.187 94.1419 239.57 94.1419 240.034V243.5H93.3038V240.091C93.3038 239.662 93.1925 239.329 92.97 239.089C92.7475 238.848 92.4421 238.727 92.0538 238.727C91.7863 238.727 91.5472 238.785 91.3365 238.901C91.1281 239.017 90.9636 239.187 90.8429 239.409C90.7221 239.632 90.6618 239.902 90.6618 240.219ZM99.5369 239.267L98.7841 239.48C98.7367 239.355 98.6669 239.233 98.5746 239.114C98.4846 238.994 98.3615 238.894 98.2053 238.816C98.049 238.738 97.849 238.699 97.6051 238.699C97.2713 238.699 96.9931 238.776 96.7706 238.93C96.5504 239.081 96.4403 239.274 96.4403 239.509C96.4403 239.717 96.5161 239.881 96.6676 240.002C96.8191 240.123 97.0559 240.223 97.3778 240.304L98.1875 240.503C98.6752 240.621 99.0386 240.802 99.2777 241.046C99.5168 241.288 99.6364 241.599 99.6364 241.98C99.6364 242.293 99.5464 242.572 99.3665 242.818C99.1889 243.064 98.9403 243.259 98.6207 243.401C98.3011 243.543 97.9295 243.614 97.5057 243.614C96.9493 243.614 96.4889 243.493 96.1243 243.251C95.7597 243.01 95.5289 242.657 95.4318 242.193L96.2273 241.994C96.303 242.288 96.4463 242.508 96.657 242.655C96.87 242.802 97.1482 242.875 97.4915 242.875C97.8821 242.875 98.1922 242.792 98.4219 242.626C98.6539 242.458 98.7699 242.257 98.7699 242.023C98.7699 241.833 98.7036 241.675 98.571 241.547C98.4384 241.417 98.2348 241.32 97.9602 241.256L97.0511 241.043C96.5516 240.924 96.1847 240.741 95.9503 240.492C95.7183 240.241 95.6023 239.928 95.6023 239.551C95.6023 239.243 95.6887 238.971 95.8615 238.734C96.0367 238.498 96.2746 238.312 96.5753 238.177C96.8783 238.042 97.2216 237.974 97.6051 237.974C98.1449 237.974 98.5687 238.093 98.8764 238.33C99.1866 238.566 99.4067 238.879 99.5369 239.267ZM105.77 243.614C105.316 243.614 104.914 243.499 104.566 243.269C104.218 243.037 103.946 242.71 103.749 242.289C103.553 241.865 103.455 241.365 103.455 240.787C103.455 240.214 103.553 239.717 103.749 239.295C103.946 238.874 104.219 238.549 104.57 238.319C104.92 238.089 105.325 237.974 105.784 237.974C106.139 237.974 106.42 238.034 106.626 238.152C106.834 238.268 106.993 238.401 107.102 238.55C107.213 238.696 107.299 238.817 107.361 238.912H107.432V236.227H108.27V243.5H107.46V242.662H107.361C107.299 242.761 107.212 242.887 107.098 243.038C106.985 243.187 106.822 243.321 106.612 243.44C106.401 243.556 106.12 243.614 105.77 243.614ZM105.884 242.861C106.22 242.861 106.504 242.773 106.736 242.598C106.968 242.42 107.144 242.175 107.265 241.863C107.386 241.548 107.446 241.185 107.446 240.773C107.446 240.366 107.387 240.009 107.269 239.704C107.15 239.396 106.975 239.157 106.743 238.987C106.511 238.814 106.225 238.727 105.884 238.727C105.529 238.727 105.233 238.818 104.996 239.001C104.762 239.181 104.585 239.426 104.467 239.736C104.351 240.044 104.293 240.389 104.293 240.773C104.293 241.161 104.352 241.514 104.47 241.831C104.591 242.146 104.769 242.397 105.003 242.584C105.24 242.768 105.533 242.861 105.884 242.861ZM112.208 243.614C111.683 243.614 111.229 243.498 110.848 243.266C110.469 243.031 110.177 242.705 109.971 242.286C109.767 241.864 109.666 241.374 109.666 240.815C109.666 240.257 109.767 239.764 109.971 239.338C110.177 238.91 110.463 238.576 110.83 238.337C111.2 238.095 111.631 237.974 112.123 237.974C112.407 237.974 112.688 238.022 112.965 238.116C113.242 238.211 113.494 238.365 113.721 238.578C113.948 238.789 114.129 239.068 114.264 239.416C114.399 239.764 114.467 240.193 114.467 240.702V241.057H110.262V240.332H113.615C113.615 240.025 113.553 239.75 113.43 239.509C113.309 239.267 113.136 239.076 112.911 238.937C112.689 238.797 112.426 238.727 112.123 238.727C111.789 238.727 111.5 238.81 111.257 238.976C111.015 239.139 110.829 239.352 110.699 239.615C110.569 239.878 110.504 240.16 110.504 240.46V240.943C110.504 241.355 110.575 241.704 110.717 241.991C110.861 242.275 111.061 242.491 111.317 242.641C111.573 242.787 111.87 242.861 112.208 242.861C112.428 242.861 112.627 242.83 112.805 242.768C112.985 242.705 113.14 242.61 113.27 242.484C113.4 242.357 113.501 242.198 113.572 242.009L114.382 242.236C114.296 242.51 114.153 242.752 113.952 242.96C113.751 243.166 113.502 243.327 113.206 243.443C112.91 243.557 112.578 243.614 112.208 243.614ZM118.029 243.614C117.503 243.614 117.05 243.498 116.669 243.266C116.29 243.031 115.997 242.705 115.791 242.286C115.588 241.864 115.486 241.374 115.486 240.815C115.486 240.257 115.588 239.764 115.791 239.338C115.997 238.91 116.284 238.576 116.651 238.337C117.02 238.095 117.451 237.974 117.943 237.974C118.227 237.974 118.508 238.022 118.785 238.116C119.062 238.211 119.314 238.365 119.541 238.578C119.769 238.789 119.95 239.068 120.085 239.416C120.22 239.764 120.287 240.193 120.287 240.702V241.057H116.083V240.332H119.435C119.435 240.025 119.373 239.75 119.25 239.509C119.129 239.267 118.957 239.076 118.732 238.937C118.509 238.797 118.246 238.727 117.943 238.727C117.61 238.727 117.321 238.81 117.077 238.976C116.835 239.139 116.65 239.352 116.519 239.615C116.389 239.878 116.324 240.16 116.324 240.46V240.943C116.324 241.355 116.395 241.704 116.537 241.991C116.682 242.275 116.882 242.491 117.137 242.641C117.393 242.787 117.69 242.861 118.029 242.861C118.249 242.861 118.448 242.83 118.625 242.768C118.805 242.705 118.96 242.61 119.09 242.484C119.221 242.357 119.321 242.198 119.392 242.009L120.202 242.236C120.117 242.51 119.973 242.752 119.772 242.96C119.571 243.166 119.322 243.327 119.026 243.443C118.731 243.557 118.398 243.614 118.029 243.614ZM121.562 245.545V238.045H122.372V238.912H122.471C122.533 238.817 122.618 238.696 122.727 238.55C122.838 238.401 122.997 238.268 123.203 238.152C123.411 238.034 123.693 237.974 124.048 237.974C124.507 237.974 124.912 238.089 125.262 238.319C125.613 238.549 125.886 238.874 126.083 239.295C126.279 239.717 126.377 240.214 126.377 240.787C126.377 241.365 126.279 241.865 126.083 242.289C125.886 242.71 125.614 243.037 125.266 243.269C124.918 243.499 124.517 243.614 124.062 243.614C123.712 243.614 123.431 243.556 123.22 243.44C123.01 243.321 122.847 243.187 122.734 243.038C122.62 242.887 122.533 242.761 122.471 242.662H122.4V245.545H121.562ZM122.386 240.773C122.386 241.185 122.446 241.548 122.567 241.863C122.688 242.175 122.864 242.42 123.096 242.598C123.328 242.773 123.612 242.861 123.948 242.861C124.299 242.861 124.591 242.768 124.825 242.584C125.062 242.397 125.24 242.146 125.358 241.831C125.479 241.514 125.539 241.161 125.539 240.773C125.539 240.389 125.48 240.044 125.362 239.736C125.246 239.426 125.069 239.181 124.833 239.001C124.598 238.818 124.303 238.727 123.948 238.727C123.607 238.727 123.321 238.814 123.089 238.987C122.857 239.157 122.682 239.396 122.563 239.704C122.445 240.009 122.386 240.366 122.386 240.773Z" fill="#222222"/>
<path d="M144.753 243.5V242.861L147.153 240.233C147.435 239.925 147.667 239.658 147.849 239.43C148.032 239.201 148.167 238.985 148.254 238.784C148.344 238.58 148.389 238.367 148.389 238.145C148.389 237.889 148.328 237.668 148.205 237.481C148.084 237.294 147.918 237.149 147.707 237.048C147.497 236.946 147.26 236.895 146.997 236.895C146.718 236.895 146.474 236.953 146.266 237.069C146.06 237.183 145.9 237.342 145.786 237.548C145.675 237.754 145.619 237.996 145.619 238.273H144.781C144.781 237.847 144.879 237.473 145.076 237.151C145.272 236.829 145.54 236.578 145.879 236.398C146.219 236.218 146.602 236.128 147.026 236.128C147.452 236.128 147.829 236.218 148.158 236.398C148.487 236.578 148.746 236.82 148.933 237.126C149.12 237.431 149.213 237.771 149.213 238.145C149.213 238.412 149.165 238.674 149.067 238.93C148.973 239.183 148.807 239.466 148.57 239.778C148.336 240.089 148.01 240.467 147.594 240.915L145.96 242.662V242.719H149.341V243.5H144.753Z" fill="#222222"/>
<path d="M274.461 241C274.186 241 273.951 240.902 273.755 240.706C273.559 240.51 273.461 240.275 273.461 240C273.461 239.725 273.559 239.49 273.755 239.294C273.951 239.098 274.186 239 274.461 239C274.736 239 274.972 239.098 275.168 239.294C275.364 239.49 275.461 239.725 275.461 240C275.461 240.275 275.364 240.51 275.168 240.706C274.972 240.902 274.736 241 274.461 241ZM280 241C279.725 241 279.489 240.902 279.294 240.706C279.098 240.51 279 240.275 279 240C279 239.725 279.098 239.49 279.294 239.294C279.489 239.098 279.725 239 280 239C280.275 239 280.51 239.098 280.706 239.294C280.902 239.49 281 239.725 281 240C281 240.275 280.902 240.51 280.706 240.706C280.51 240.902 280.275 241 280 241ZM285.538 241C285.263 241 285.028 240.902 284.832 240.706C284.636 240.51 284.538 240.275 284.538 240C284.538 239.725 284.636 239.49 284.832 239.294C285.028 239.098 285.263 239 285.538 239C285.813 239 286.049 239.098 286.245 239.294C286.44 239.49 286.538 239.725 286.538 240C286.538 240.275 286.44 240.51 286.245 240.706C286.049 240.902 285.813 241 285.538 241Z" fill="#222222"/>
</svg>
