<svg width="24" height="24" viewBox="0 0 24 24" fill="none" xmlns="http://www.w3.org/2000/svg">
<rect width="24" height="24" rx="2" fill="#F7F7F7"/>
<path d="M3.1345 19.6345L8.4405 14.3287C8.74683 14.0224 9.12567 13.8692 9.577 13.8692C10.0282 13.8692 10.407 14.0224 10.7135 14.3287L13.1155 16.7307C13.2437 16.8589 13.3975 16.9198 13.577 16.9135C13.7565 16.907 13.9039 16.8332 14.0193 16.6922L20.227 9.56346C20.3205 9.44929 20.433 9.39221 20.5645 9.39221C20.6958 9.39221 20.8167 9.44096 20.927 9.53846C21.0205 9.63196 21.0714 9.74063 21.0798 9.86446C21.0881 9.98813 21.0455 10.1051 20.952 10.2155L14.7463 17.3807C14.4398 17.7372 14.0545 17.9247 13.5905 17.9432C13.1263 17.9619 12.7243 17.8013 12.3845 17.4615L10.0193 15.0962C9.90392 14.9807 9.7565 14.923 9.577 14.923C9.3975 14.923 9.25 14.9807 9.1345 15.0962L3.8655 20.3655C3.76417 20.4666 3.6455 20.5205 3.5095 20.527C3.37367 20.5333 3.24867 20.4795 3.1345 20.3655C3.0205 20.2513 2.9635 20.1295 2.9635 20C2.9635 19.8705 3.0205 19.7486 3.1345 19.6345ZM3.1345 13.6345L8.4405 8.32871C8.74683 8.02238 9.12567 7.86921 9.577 7.86921C10.0282 7.86921 10.407 8.02238 10.7135 8.32871L13.1155 10.7307C13.2437 10.8589 13.3975 10.9198 13.577 10.9135C13.7565 10.907 13.9039 10.8332 14.0193 10.6922L20.227 3.56346C20.3205 3.44929 20.433 3.39221 20.5645 3.39221C20.6958 3.39221 20.8167 3.44096 20.927 3.53846C21.0205 3.63196 21.0714 3.74063 21.0798 3.86446C21.0881 3.98813 21.0455 4.10513 20.952 4.21546L14.7463 11.3807C14.4398 11.7372 14.0545 11.9247 13.5905 11.9432C13.1263 11.9619 12.7243 11.8013 12.3845 11.4615L10.0193 9.09621C9.90392 8.98071 9.7565 8.92296 9.577 8.92296C9.3975 8.92296 9.25 8.98071 9.1345 9.09621L3.8655 14.3655C3.76417 14.4666 3.6455 14.5205 3.5095 14.527C3.37367 14.5333 3.24867 14.4795 3.1345 14.3655C3.0205 14.2513 2.9635 14.1295 2.9635 14C2.9635 13.8705 3.0205 13.7486 3.1345 13.6345Z" fill="#222222"/>
</svg>
