<svg width="210" height="138" viewBox="0 0 210 138" fill="none" xmlns="http://www.w3.org/2000/svg">
<path d="M181 115L139.5 86H28.5L67 115H181Z" fill="#D9D9D9"/>
<path d="M182 115.5V50L140 22V86L182 115.5Z" fill="#FCFCFC"/>
<path d="M139.5 85.5V22H28.5V85.5H139.5Z" fill="white"/>
<path d="M28 22H140M28 22V86M28 22L67 50M140 22L182 50M140 22V86M182 50V115.5M182 50H67M182 115.5H67M182 115.5L140 86M67 115.5L28 86M67 115.5V50M28 86H140" stroke="#222222"/>
<path d="M182.354 126.354C182.549 126.158 182.549 125.842 182.354 125.646L179.172 122.464C178.976 122.269 178.66 122.269 178.464 122.464C178.269 122.66 178.269 122.976 178.464 123.172L181.293 126L178.464 128.828C178.269 129.024 178.269 129.34 178.464 129.536C178.66 129.731 178.976 129.731 179.172 129.536L182.354 126.354ZM67.6464 125.646C67.4512 125.842 67.4512 126.158 67.6464 126.354L70.8284 129.536C71.0237 129.731 71.3403 129.731 71.5355 129.536C71.7308 129.34 71.7308 129.024 71.5355 128.828L68.7071 126L71.5355 123.172C71.7308 122.976 71.7308 122.66 71.5355 122.464C71.3403 122.269 71.0237 122.269 70.8284 122.464L67.6464 125.646ZM182 125.5L68 125.5V126.5L182 126.5V125.5Z" fill="#222222"/>
</svg>
