<svg width="288" height="87" viewBox="0 0 288 87" fill="none" xmlns="http://www.w3.org/2000/svg">
<rect width="288" height="87" fill="var(--colors-neutral-neutral-300)"/>
<path d="M16.7173 18.7273H18.3295L20.4886 23.9972H20.5739L22.733 18.7273H24.3452V26H23.081V21.0036H23.0135L21.0036 25.9787H20.0589L18.049 20.9929H17.9815V26H16.7173V18.7273ZM25.723 26V20.5455H27.0085V26H25.723ZM26.3693 19.7713C26.1657 19.7713 25.9905 19.7038 25.8438 19.5689C25.697 19.4316 25.6236 19.267 25.6236 19.0753C25.6236 18.8812 25.697 18.7166 25.8438 18.5817C25.9905 18.4444 26.1657 18.3757 26.3693 18.3757C26.5753 18.3757 26.7505 18.4444 26.8949 18.5817C27.0417 18.7166 27.1151 18.8812 27.1151 19.0753C27.1151 19.267 27.0417 19.4316 26.8949 19.5689C26.7505 19.7038 26.5753 19.7713 26.3693 19.7713ZM32.6415 21.9872L31.4696 22.1151C31.4365 21.9967 31.3785 21.8854 31.2956 21.7812C31.2151 21.6771 31.1062 21.593 30.9689 21.5291C30.8316 21.4652 30.6635 21.4332 30.4647 21.4332C30.1971 21.4332 29.9722 21.4912 29.79 21.6072C29.61 21.7232 29.5212 21.8736 29.5236 22.0582C29.5212 22.2169 29.5792 22.3459 29.6976 22.4453C29.8184 22.5447 30.0172 22.6264 30.2942 22.6903L31.2246 22.8892C31.7407 23.0005 32.1242 23.1768 32.3752 23.4183C32.6285 23.6598 32.7563 23.9759 32.7587 24.3665C32.7563 24.7098 32.6557 25.0128 32.4569 25.2756C32.2604 25.536 31.9869 25.7396 31.6365 25.8864C31.2862 26.0331 30.8837 26.1065 30.4292 26.1065C29.7615 26.1065 29.2241 25.9669 28.8169 25.6875C28.4097 25.4058 28.1671 25.014 28.089 24.5121L29.3425 24.3913C29.3993 24.6375 29.5201 24.8234 29.7047 24.9489C29.8894 25.0743 30.1297 25.1371 30.4256 25.1371C30.731 25.1371 30.976 25.0743 31.1607 24.9489C31.3477 24.8234 31.4412 24.6683 31.4412 24.4837C31.4412 24.3274 31.3809 24.1984 31.2601 24.0966C31.1417 23.9948 30.9571 23.9167 30.7061 23.8622L29.7757 23.6669C29.2525 23.558 28.8655 23.3745 28.6145 23.1165C28.3636 22.8561 28.2393 22.527 28.2417 22.1293C28.2393 21.7931 28.3304 21.5019 28.5151 21.2557C28.7021 21.0071 28.9614 20.8153 29.2928 20.6804C29.6266 20.5431 30.0113 20.4744 30.4469 20.4744C31.0861 20.4744 31.5892 20.6106 31.9561 20.8828C32.3255 21.1551 32.5539 21.5232 32.6415 21.9872ZM38.1298 21.9872L36.9579 22.1151C36.9248 21.9967 36.8668 21.8854 36.7839 21.7812C36.7034 21.6771 36.5945 21.593 36.4572 21.5291C36.3199 21.4652 36.1518 21.4332 35.9529 21.4332C35.6854 21.4332 35.4605 21.4912 35.2782 21.6072C35.0983 21.7232 35.0095 21.8736 35.0119 22.0582C35.0095 22.2169 35.0675 22.3459 35.1859 22.4453C35.3066 22.5447 35.5055 22.6264 35.7825 22.6903L36.7129 22.8892C37.229 23.0005 37.6125 23.1768 37.8635 23.4183C38.1168 23.6598 38.2446 23.9759 38.247 24.3665C38.2446 24.7098 38.144 25.0128 37.9451 25.2756C37.7486 25.536 37.4752 25.7396 37.1248 25.8864C36.7744 26.0331 36.372 26.1065 35.9174 26.1065C35.2498 26.1065 34.7124 25.9669 34.3052 25.6875C33.898 25.4058 33.6554 25.014 33.5772 24.5121L34.8308 24.3913C34.8876 24.6375 35.0083 24.8234 35.193 24.9489C35.3777 25.0743 35.618 25.1371 35.9139 25.1371C36.2193 25.1371 36.4643 25.0743 36.649 24.9489C36.836 24.8234 36.9295 24.6683 36.9295 24.4837C36.9295 24.3274 36.8691 24.1984 36.7484 24.0966C36.63 23.9948 36.4454 23.9167 36.1944 23.8622L35.264 23.6669C34.7408 23.558 34.3538 23.3745 34.1028 23.1165C33.8519 22.8561 33.7276 22.527 33.7299 22.1293C33.7276 21.7931 33.8187 21.5019 34.0034 21.2557C34.1904 21.0071 34.4496 20.8153 34.7811 20.6804C35.1149 20.5431 35.4996 20.4744 35.9352 20.4744C36.5744 20.4744 37.0775 20.6106 37.4444 20.8828C37.8137 21.1551 38.0422 21.5232 38.1298 21.9872ZM39.307 26V20.5455H40.5925V26H39.307ZM39.9533 19.7713C39.7497 19.7713 39.5745 19.7038 39.4277 19.5689C39.281 19.4316 39.2076 19.267 39.2076 19.0753C39.2076 18.8812 39.281 18.7166 39.4277 18.5817C39.5745 18.4444 39.7497 18.3757 39.9533 18.3757C40.1593 18.3757 40.3345 18.4444 40.4789 18.5817C40.6257 18.7166 40.699 18.8812 40.699 19.0753C40.699 19.267 40.6257 19.4316 40.4789 19.5689C40.3345 19.7038 40.1593 19.7713 39.9533 19.7713ZM43.1999 22.804V26H41.9144V20.5455H43.1431V21.4723H43.207C43.3325 21.1669 43.5326 20.9242 43.8072 20.7443C44.0842 20.5644 44.4263 20.4744 44.8335 20.4744C45.2099 20.4744 45.5378 20.5549 45.8171 20.7159C46.0988 20.8769 46.3166 21.1101 46.4705 21.4155C46.6268 21.7209 46.7037 22.0914 46.7013 22.527V26H45.4158V22.7259C45.4158 22.3613 45.3211 22.076 45.1317 21.87C44.9447 21.6641 44.6855 21.5611 44.354 21.5611C44.1291 21.5611 43.9291 21.6108 43.7539 21.7102C43.5811 21.8073 43.445 21.9482 43.3455 22.1328C43.2485 22.3175 43.1999 22.5412 43.1999 22.804ZM50.3803 28.1591C49.9187 28.1591 49.5221 28.0964 49.1907 27.9709C48.8593 27.8478 48.5929 27.6821 48.3917 27.4737C48.1905 27.2654 48.0508 27.0346 47.9727 26.7812L49.1303 26.5007C49.1824 26.6072 49.2582 26.7126 49.3576 26.8168C49.457 26.9233 49.5908 27.0109 49.7589 27.0795C49.9293 27.1506 50.1436 27.1861 50.4016 27.1861C50.7662 27.1861 51.0681 27.0973 51.3072 26.9197C51.5463 26.7446 51.6658 26.4557 51.6658 26.0533V25.0199H51.6019C51.5356 25.1525 51.4386 25.2886 51.3107 25.4283C51.1853 25.5679 51.0183 25.6851 50.81 25.7798C50.604 25.8745 50.3448 25.9219 50.0323 25.9219C49.6133 25.9219 49.2333 25.8236 48.8924 25.6271C48.5539 25.4283 48.284 25.1323 48.0827 24.7393C47.8839 24.344 47.7844 23.8492 47.7844 23.255C47.7844 22.656 47.8839 22.1506 48.0827 21.7386C48.284 21.3243 48.555 21.0107 48.896 20.7976C49.2369 20.5821 49.6168 20.4744 50.0359 20.4744C50.3555 20.4744 50.6183 20.5289 50.8242 20.6378C51.0326 20.7443 51.1983 20.8733 51.3214 21.0249C51.4445 21.174 51.538 21.3149 51.6019 21.4474H51.6729V20.5455H52.9407V26.0888C52.9407 26.5552 52.8294 26.9411 52.6069 27.2464C52.3844 27.5518 52.0801 27.7803 51.6942 27.9318C51.3084 28.0833 50.8704 28.1591 50.3803 28.1591ZM50.391 24.9134C50.6632 24.9134 50.8952 24.8471 51.087 24.7145C51.2788 24.5819 51.4244 24.3913 51.5238 24.1428C51.6232 23.8942 51.6729 23.5959 51.6729 23.2479C51.6729 22.9046 51.6232 22.6039 51.5238 22.3459C51.4267 22.0878 51.2823 21.8878 51.0906 21.7457C50.9012 21.6013 50.668 21.5291 50.391 21.5291C50.1045 21.5291 49.8654 21.6037 49.6737 21.7528C49.4819 21.902 49.3375 22.1068 49.2404 22.3672C49.1433 22.6252 49.0948 22.9188 49.0948 23.2479C49.0948 23.5817 49.1433 23.8741 49.2404 24.125C49.3398 24.3736 49.4854 24.5677 49.6772 24.7074C49.8713 24.8447 50.1093 24.9134 50.391 24.9134ZM59.1179 26.1065C58.5734 26.1065 58.1058 25.987 57.7152 25.7479C57.3269 25.5088 57.0275 25.1785 56.8168 24.7571C56.6084 24.3333 56.5043 23.8456 56.5043 23.294C56.5043 22.7401 56.6108 22.2512 56.8239 21.8274C57.0369 21.4013 57.3376 21.0698 57.7259 20.8331C58.1165 20.594 58.5781 20.4744 59.1108 20.4744C59.5535 20.4744 59.9453 20.5561 60.2862 20.7195C60.6295 20.8804 60.9029 21.1089 61.1065 21.4048C61.3101 21.6984 61.4261 22.0417 61.4545 22.4347H60.2259C60.1761 22.1719 60.0578 21.9529 59.8707 21.7777C59.6861 21.6001 59.4387 21.5114 59.1286 21.5114C58.8658 21.5114 58.6349 21.5824 58.4361 21.7244C58.2372 21.8641 58.0821 22.0653 57.9709 22.3281C57.862 22.5909 57.8075 22.9058 57.8075 23.2727C57.8075 23.6444 57.862 23.964 57.9709 24.2315C58.0798 24.4967 58.2325 24.7015 58.429 24.8459C58.6278 24.9879 58.861 25.0589 59.1286 25.0589C59.3179 25.0589 59.4872 25.0234 59.6364 24.9524C59.7879 24.879 59.9145 24.7737 60.0163 24.6364C60.1181 24.4991 60.188 24.3321 60.2259 24.1357H61.4545C61.4238 24.5215 61.3101 24.8636 61.1136 25.1619C60.9171 25.4579 60.6496 25.6899 60.3111 25.858C59.9725 26.0237 59.5748 26.1065 59.1179 26.1065ZM64.8894 26.1065C64.3567 26.1065 63.8951 25.9893 63.5044 25.755C63.1138 25.5206 62.8108 25.1927 62.5953 24.7713C62.3823 24.3499 62.2757 23.8575 62.2757 23.294C62.2757 22.7306 62.3823 22.237 62.5953 21.8132C62.8108 21.3894 63.1138 21.0604 63.5044 20.826C63.8951 20.5916 64.3567 20.4744 64.8894 20.4744C65.4221 20.4744 65.8837 20.5916 66.2743 20.826C66.665 21.0604 66.9668 21.3894 67.1799 21.8132C67.3953 22.237 67.503 22.7306 67.503 23.294C67.503 23.8575 67.3953 24.3499 67.1799 24.7713C66.9668 25.1927 66.665 25.5206 66.2743 25.755C65.8837 25.9893 65.4221 26.1065 64.8894 26.1065ZM64.8965 25.0767C65.1853 25.0767 65.4268 24.9974 65.6209 24.8388C65.815 24.6778 65.9595 24.4624 66.0542 24.1925C66.1512 23.9226 66.1998 23.6219 66.1998 23.2905C66.1998 22.9567 66.1512 22.6548 66.0542 22.3849C65.9595 22.1127 65.815 21.8961 65.6209 21.7351C65.4268 21.5741 65.1853 21.4936 64.8965 21.4936C64.6006 21.4936 64.3543 21.5741 64.1578 21.7351C63.9637 21.8961 63.8181 22.1127 63.7211 22.3849C63.6264 22.6548 63.579 22.9567 63.579 23.2905C63.579 23.6219 63.6264 23.9226 63.7211 24.1925C63.8181 24.4624 63.9637 24.6778 64.1578 24.8388C64.3543 24.9974 64.6006 25.0767 64.8965 25.0767ZM69.8796 22.804V26H68.5941V20.5455H69.8228V21.4723H69.8867C70.0122 21.1669 70.2122 20.9242 70.4869 20.7443C70.7638 20.5644 71.1059 20.4744 71.5131 20.4744C71.8896 20.4744 72.2174 20.5549 72.4968 20.7159C72.7785 20.8769 72.9963 21.1101 73.1502 21.4155C73.3065 21.7209 73.3834 22.0914 73.381 22.527V26H72.0955V22.7259C72.0955 22.3613 72.0008 22.076 71.8114 21.87C71.6244 21.6641 71.3652 21.5611 71.0337 21.5611C70.8088 21.5611 70.6088 21.6108 70.4336 21.7102C70.2608 21.8073 70.1246 21.9482 70.0252 22.1328C69.9281 22.3175 69.8796 22.5412 69.8796 22.804ZM75.9734 22.804V26H74.6879V20.5455H75.9165V21.4723H75.9805C76.1059 21.1669 76.306 20.9242 76.5806 20.7443C76.8576 20.5644 77.1997 20.4744 77.6069 20.4744C77.9833 20.4744 78.3112 20.5549 78.5906 20.7159C78.8723 20.8769 79.0901 21.1101 79.244 21.4155C79.4002 21.7209 79.4772 22.0914 79.4748 22.527V26H78.1893V22.7259C78.1893 22.3613 78.0946 22.076 77.9052 21.87C77.7182 21.6641 77.4589 21.5611 77.1275 21.5611C76.9026 21.5611 76.7025 21.6108 76.5273 21.7102C76.3545 21.8073 76.2184 21.9482 76.119 22.1328C76.0219 22.3175 75.9734 22.5412 75.9734 22.804ZM83.1964 26.1065C82.6495 26.1065 82.1772 25.9929 81.7795 25.7656C81.3841 25.536 81.0799 25.2116 80.8668 24.7926C80.6538 24.3712 80.5472 23.8752 80.5472 23.3047C80.5472 22.7436 80.6538 22.2512 80.8668 21.8274C81.0823 21.4013 81.3829 21.0698 81.7688 20.8331C82.1547 20.594 82.6081 20.4744 83.1289 20.4744C83.4651 20.4744 83.7823 20.5289 84.0806 20.6378C84.3813 20.7443 84.6464 20.91 84.8761 21.1349C85.1081 21.3598 85.2904 21.6463 85.4229 21.9943C85.5555 22.34 85.6218 22.7519 85.6218 23.2301V23.6243H81.1509V22.7578H84.3896C84.3872 22.5116 84.3339 22.2926 84.2298 22.1009C84.1256 21.9067 83.98 21.754 83.793 21.6428C83.6083 21.5315 83.3929 21.4759 83.1467 21.4759C82.8839 21.4759 82.6531 21.5398 82.4542 21.6676C82.2553 21.7931 82.1003 21.9588 81.989 22.1648C81.8801 22.3684 81.8245 22.5921 81.8221 22.8359V23.5923C81.8221 23.9096 81.8801 24.1818 81.9961 24.4091C82.1121 24.634 82.2743 24.8068 82.4826 24.9276C82.6909 25.0459 82.9348 25.1051 83.2141 25.1051C83.4012 25.1051 83.5704 25.0791 83.7219 25.027C83.8735 24.9725 84.0049 24.8932 84.1161 24.7891C84.2274 24.6849 84.3114 24.5559 84.3683 24.402L85.5685 24.5369C85.4928 24.8542 85.3484 25.1312 85.1353 25.3679C84.9246 25.6023 84.6547 25.7846 84.3256 25.9148C83.9966 26.0426 83.6201 26.1065 83.1964 26.1065ZM89.0886 26.1065C88.5441 26.1065 88.0765 25.987 87.6859 25.7479C87.2976 25.5088 86.9982 25.1785 86.7875 24.7571C86.5791 24.3333 86.475 23.8456 86.475 23.294C86.475 22.7401 86.5815 22.2512 86.7946 21.8274C87.0076 21.4013 87.3083 21.0698 87.6966 20.8331C88.0872 20.594 88.5488 20.4744 89.0815 20.4744C89.5242 20.4744 89.916 20.5561 90.2569 20.7195C90.6002 20.8804 90.8736 21.1089 91.0772 21.4048C91.2808 21.6984 91.3968 22.0417 91.4252 22.4347H90.1966C90.1468 22.1719 90.0285 21.9529 89.8414 21.7777C89.6568 21.6001 89.4094 21.5114 89.0993 21.5114C88.8365 21.5114 88.6056 21.5824 88.4068 21.7244C88.2079 21.8641 88.0529 22.0653 87.9416 22.3281C87.8327 22.5909 87.7782 22.9058 87.7782 23.2727C87.7782 23.6444 87.8327 23.964 87.9416 24.2315C88.0505 24.4967 88.2032 24.7015 88.3997 24.8459C88.5985 24.9879 88.8317 25.0589 89.0993 25.0589C89.2886 25.0589 89.4579 25.0234 89.6071 24.9524C89.7586 24.879 89.8852 24.7737 89.987 24.6364C90.0888 24.4991 90.1587 24.3321 90.1966 24.1357H91.4252C91.3945 24.5215 91.2808 24.8636 91.0843 25.1619C90.8878 25.4579 90.6203 25.6899 90.2818 25.858C89.9432 26.0237 89.5455 26.1065 89.0886 26.1065ZM95.2045 20.5455V21.5398H92.0689V20.5455H95.2045ZM92.843 19.2386H94.1286V24.3594C94.1286 24.5322 94.1546 24.6648 94.2067 24.7571C94.2611 24.8471 94.3321 24.9086 94.4197 24.9418C94.5073 24.9749 94.6044 24.9915 94.7109 24.9915C94.7914 24.9915 94.8648 24.9856 94.9311 24.9737C94.9998 24.9619 95.0518 24.9512 95.0874 24.9418L95.304 25.9467C95.2353 25.9704 95.1371 25.9964 95.0092 26.0249C94.8838 26.0533 94.7299 26.0698 94.5476 26.0746C94.2256 26.084 93.9356 26.0355 93.6776 25.929C93.4195 25.8201 93.2147 25.652 93.0632 25.4247C92.9141 25.1974 92.8407 24.9134 92.843 24.5724V19.2386ZM96.2797 26V20.5455H97.5652V26H96.2797ZM96.926 19.7713C96.7224 19.7713 96.5472 19.7038 96.4004 19.5689C96.2536 19.4316 96.1802 19.267 96.1802 19.0753C96.1802 18.8812 96.2536 18.7166 96.4004 18.5817C96.5472 18.4444 96.7224 18.3757 96.926 18.3757C97.1319 18.3757 97.3071 18.4444 97.4515 18.5817C97.5983 18.7166 97.6717 18.8812 97.6717 19.0753C97.6717 19.267 97.5983 19.4316 97.4515 19.5689C97.3071 19.7038 97.1319 19.7713 96.926 19.7713ZM101.266 26.1065C100.734 26.1065 100.272 25.9893 99.8814 25.755C99.4908 25.5206 99.1877 25.1927 98.9723 24.7713C98.7592 24.3499 98.6527 23.8575 98.6527 23.294C98.6527 22.7306 98.7592 22.237 98.9723 21.8132C99.1877 21.3894 99.4908 21.0604 99.8814 20.826C100.272 20.5916 100.734 20.4744 101.266 20.4744C101.799 20.4744 102.261 20.5916 102.651 20.826C103.042 21.0604 103.344 21.3894 103.557 21.8132C103.772 22.237 103.88 22.7306 103.88 23.294C103.88 23.8575 103.772 24.3499 103.557 24.7713C103.344 25.1927 103.042 25.5206 102.651 25.755C102.261 25.9893 101.799 26.1065 101.266 26.1065ZM101.273 25.0767C101.562 25.0767 101.804 24.9974 101.998 24.8388C102.192 24.6778 102.336 24.4624 102.431 24.1925C102.528 23.9226 102.577 23.6219 102.577 23.2905C102.577 22.9567 102.528 22.6548 102.431 22.3849C102.336 22.1127 102.192 21.8961 101.998 21.7351C101.804 21.5741 101.562 21.4936 101.273 21.4936C100.978 21.4936 100.731 21.5741 100.535 21.7351C100.341 21.8961 100.195 22.1127 100.098 22.3849C100.003 22.6548 99.956 22.9567 99.956 23.2905C99.956 23.6219 100.003 23.9226 100.098 24.1925C100.195 24.4624 100.341 24.6778 100.535 24.8388C100.731 24.9974 100.978 25.0767 101.273 25.0767ZM106.257 22.804V26H104.971V20.5455H106.2V21.4723H106.264C106.389 21.1669 106.589 20.9242 106.864 20.7443C107.141 20.5644 107.483 20.4744 107.89 20.4744C108.267 20.4744 108.594 20.5549 108.874 20.7159C109.155 20.8769 109.373 21.1101 109.527 21.4155C109.683 21.7209 109.76 22.0914 109.758 22.527V26H108.472V22.7259C108.472 22.3613 108.378 22.076 108.188 21.87C108.001 21.6641 107.742 21.5611 107.411 21.5611C107.186 21.5611 106.986 21.6108 106.811 21.7102C106.638 21.8073 106.502 21.9482 106.402 22.1328C106.305 22.3175 106.257 22.5412 106.257 22.804ZM115.376 21.9872L114.204 22.1151C114.171 21.9967 114.113 21.8854 114.03 21.7812C113.95 21.6771 113.841 21.593 113.703 21.5291C113.566 21.4652 113.398 21.4332 113.199 21.4332C112.932 21.4332 112.707 21.4912 112.524 21.6072C112.344 21.7232 112.256 21.8736 112.258 22.0582C112.256 22.2169 112.314 22.3459 112.432 22.4453C112.553 22.5447 112.752 22.6264 113.029 22.6903L113.959 22.8892C114.475 23.0005 114.859 23.1768 115.11 23.4183C115.363 23.6598 115.491 23.9759 115.493 24.3665C115.491 24.7098 115.39 25.0128 115.191 25.2756C114.995 25.536 114.721 25.7396 114.371 25.8864C114.021 26.0331 113.618 26.1065 113.164 26.1065C112.496 26.1065 111.959 25.9669 111.551 25.6875C111.144 25.4058 110.901 25.014 110.823 24.5121L112.077 24.3913C112.134 24.6375 112.254 24.8234 112.439 24.9489C112.624 25.0743 112.864 25.1371 113.16 25.1371C113.465 25.1371 113.71 25.0743 113.895 24.9489C114.082 24.8234 114.176 24.6683 114.176 24.4837C114.176 24.3274 114.115 24.1984 113.994 24.0966C113.876 23.9948 113.691 23.9167 113.441 23.8622L112.51 23.6669C111.987 23.558 111.6 23.3745 111.349 23.1165C111.098 22.8561 110.974 22.527 110.976 22.1293C110.974 21.7931 111.065 21.5019 111.249 21.2557C111.436 21.0071 111.696 20.8153 112.027 20.6804C112.361 20.5431 112.746 20.4744 113.181 20.4744C113.82 20.4744 114.324 20.6106 114.691 20.8828C115.06 21.1551 115.288 21.5232 115.376 21.9872ZM121.413 26.1065C120.88 26.1065 120.419 25.9893 120.028 25.755C119.637 25.5206 119.334 25.1927 119.119 24.7713C118.906 24.3499 118.799 23.8575 118.799 23.294C118.799 22.7306 118.906 22.237 119.119 21.8132C119.334 21.3894 119.637 21.0604 120.028 20.826C120.419 20.5916 120.88 20.4744 121.413 20.4744C121.945 20.4744 122.407 20.5916 122.798 20.826C123.188 21.0604 123.49 21.3894 123.703 21.8132C123.919 22.237 124.026 22.7306 124.026 23.294C124.026 23.8575 123.919 24.3499 123.703 24.7713C123.49 25.1927 123.188 25.5206 122.798 25.755C122.407 25.9893 121.945 26.1065 121.413 26.1065ZM121.42 25.0767C121.709 25.0767 121.95 24.9974 122.144 24.8388C122.338 24.6778 122.483 24.4624 122.578 24.1925C122.675 23.9226 122.723 23.6219 122.723 23.2905C122.723 22.9567 122.675 22.6548 122.578 22.3849C122.483 22.1127 122.338 21.8961 122.144 21.7351C121.95 21.5741 121.709 21.4936 121.42 21.4936C121.124 21.4936 120.878 21.5741 120.681 21.7351C120.487 21.8961 120.342 22.1127 120.244 22.3849C120.15 22.6548 120.102 22.9567 120.102 23.2905C120.102 23.6219 120.15 23.9226 120.244 24.1925C120.342 24.4624 120.487 24.6778 120.681 24.8388C120.878 24.9974 121.124 25.0767 121.42 25.0767ZM125.118 26V20.5455H126.364V21.4545H126.421C126.52 21.1397 126.691 20.897 126.932 20.7266C127.176 20.5537 127.454 20.4673 127.767 20.4673C127.838 20.4673 127.917 20.4709 128.005 20.478C128.095 20.4827 128.169 20.491 128.228 20.5028V21.6854C128.174 21.6664 128.087 21.6499 127.969 21.6357C127.853 21.6191 127.741 21.6108 127.632 21.6108C127.397 21.6108 127.187 21.6617 127 21.7635C126.815 21.8629 126.669 22.0014 126.563 22.179C126.456 22.3565 126.403 22.5613 126.403 22.7933V26H125.118ZM134.326 20.5455V21.5398H131.101V20.5455H134.326ZM131.907 26V20.0305C131.907 19.6636 131.983 19.3582 132.135 19.1143C132.288 18.8705 132.494 18.6882 132.752 18.5675C133.011 18.4467 133.297 18.3864 133.612 18.3864C133.834 18.3864 134.032 18.4041 134.205 18.4396C134.378 18.4751 134.506 18.5071 134.588 18.5355L134.333 19.5298C134.278 19.5133 134.21 19.4967 134.127 19.4801C134.044 19.4612 133.952 19.4517 133.85 19.4517C133.611 19.4517 133.441 19.5097 133.342 19.6257C133.245 19.7393 133.196 19.9027 133.196 20.1158V26H131.907ZM136.618 18.7273V26H135.332V18.7273H136.618ZM140.319 26.1065C139.786 26.1065 139.325 25.9893 138.934 25.755C138.544 25.5206 138.24 25.1927 138.025 24.7713C137.812 24.3499 137.705 23.8575 137.705 23.294C137.705 22.7306 137.812 22.237 138.025 21.8132C138.24 21.3894 138.544 21.0604 138.934 20.826C139.325 20.5916 139.786 20.4744 140.319 20.4744C140.852 20.4744 141.313 20.5916 141.704 20.826C142.095 21.0604 142.396 21.3894 142.61 21.8132C142.825 22.237 142.933 22.7306 142.933 23.294C142.933 23.8575 142.825 24.3499 142.61 24.7713C142.396 25.1927 142.095 25.5206 141.704 25.755C141.313 25.9893 140.852 26.1065 140.319 26.1065ZM140.326 25.0767C140.615 25.0767 140.856 24.9974 141.051 24.8388C141.245 24.6778 141.389 24.4624 141.484 24.1925C141.581 23.9226 141.629 23.6219 141.629 23.2905C141.629 22.9567 141.581 22.6548 141.484 22.3849C141.389 22.1127 141.245 21.8961 141.051 21.7351C140.856 21.5741 140.615 21.4936 140.326 21.4936C140.03 21.4936 139.784 21.5741 139.588 21.7351C139.393 21.8961 139.248 22.1127 139.151 22.3849C139.056 22.6548 139.009 22.9567 139.009 23.2905C139.009 23.6219 139.056 23.9226 139.151 24.1925C139.248 24.4624 139.393 24.6778 139.588 24.8388C139.784 24.9974 140.03 25.0767 140.326 25.0767ZM144.993 26L143.452 20.5455H144.762L145.721 24.3807H145.771L146.751 20.5455H148.047L149.027 24.3594H149.081L150.025 20.5455H151.339L149.794 26H148.456L147.433 22.3139H147.358L146.336 26H144.993ZM156.548 21.9872L155.376 22.1151C155.343 21.9967 155.285 21.8854 155.202 21.7812C155.121 21.6771 155.012 21.593 154.875 21.5291C154.738 21.4652 154.57 21.4332 154.371 21.4332C154.103 21.4332 153.878 21.4912 153.696 21.6072C153.516 21.7232 153.427 21.8736 153.43 22.0582C153.427 22.2169 153.485 22.3459 153.604 22.4453C153.725 22.5447 153.923 22.6264 154.2 22.6903L155.131 22.8892C155.647 23.0005 156.03 23.1768 156.281 23.4183C156.535 23.6598 156.663 23.9759 156.665 24.3665C156.663 24.7098 156.562 25.0128 156.363 25.2756C156.167 25.536 155.893 25.7396 155.543 25.8864C155.192 26.0331 154.79 26.1065 154.335 26.1065C153.668 26.1065 153.13 25.9669 152.723 25.6875C152.316 25.4058 152.073 25.014 151.995 24.5121L153.249 24.3913C153.306 24.6375 153.426 24.8234 153.611 24.9489C153.796 25.0743 154.036 25.1371 154.332 25.1371C154.637 25.1371 154.882 25.0743 155.067 24.9489C155.254 24.8234 155.347 24.6683 155.347 24.4837C155.347 24.3274 155.287 24.1984 155.166 24.0966C155.048 23.9948 154.863 23.9167 154.612 23.8622L153.682 23.6669C153.159 23.558 152.772 23.3745 152.521 23.1165C152.27 22.8561 152.146 22.527 152.148 22.1293C152.146 21.7931 152.237 21.5019 152.421 21.2557C152.608 21.0071 152.868 20.8153 153.199 20.6804C153.533 20.5431 153.918 20.4744 154.353 20.4744C154.992 20.4744 155.495 20.6106 155.862 20.8828C156.232 21.1551 156.46 21.5232 156.548 21.9872Z" fill="var(--colors-neutral-neutral-800)"/>
<path d="M16.8807 47.7273H17.9318L20.4034 53.7642H20.4886L22.9602 47.7273H24.0114V55H23.1875V49.4744H23.1165L20.8438 55H20.0483L17.7756 49.4744H17.7045V55H16.8807V47.7273ZM27.2686 55.1278C26.923 55.1278 26.6093 55.0627 26.3276 54.9325C26.0459 54.8 25.8221 54.6094 25.6564 54.3608C25.4907 54.1098 25.4078 53.8068 25.4078 53.4517C25.4078 53.1392 25.4694 52.8859 25.5925 52.6918C25.7156 52.4953 25.8801 52.3414 26.0861 52.2301C26.2921 52.1188 26.5194 52.036 26.7679 51.9815C27.0189 51.9247 27.271 51.8797 27.5243 51.8466C27.8558 51.804 28.1245 51.772 28.3304 51.7507C28.5388 51.727 28.6903 51.688 28.785 51.6335C28.882 51.5791 28.9306 51.4844 28.9306 51.3494V51.321C28.9306 50.9706 28.8347 50.6984 28.6429 50.5043C28.4535 50.3101 28.1659 50.2131 27.78 50.2131C27.3799 50.2131 27.0662 50.3007 26.839 50.4759C26.6117 50.651 26.4519 50.8381 26.3596 51.0369L25.5641 50.7528C25.7061 50.4214 25.8955 50.1634 26.1323 49.9787C26.3714 49.7917 26.6318 49.6615 26.9135 49.5881C27.1976 49.5123 27.477 49.4744 27.7516 49.4744C27.9268 49.4744 28.128 49.4957 28.3553 49.5384C28.5849 49.5786 28.8063 49.6626 29.0194 49.7905C29.2348 49.9183 29.4135 50.1113 29.5556 50.3693C29.6976 50.6274 29.7686 50.973 29.7686 51.4062V55H28.9306V54.2614H28.888C28.8311 54.3797 28.7364 54.5064 28.6039 54.6413C28.4713 54.7763 28.2949 54.8911 28.0748 54.9858C27.8546 55.0805 27.5859 55.1278 27.2686 55.1278ZM27.3965 54.375C27.7279 54.375 28.0073 54.3099 28.2346 54.1797C28.4642 54.0495 28.637 53.8814 28.753 53.6754C28.8714 53.4695 28.9306 53.2528 28.9306 53.0256V52.2585C28.8951 52.3011 28.8169 52.3402 28.6962 52.3757C28.5778 52.4089 28.4405 52.4384 28.2843 52.4645C28.1304 52.4882 27.9801 52.5095 27.8333 52.5284C27.6889 52.545 27.5717 52.5592 27.4817 52.571C27.2639 52.5994 27.0603 52.6456 26.8709 52.7095C26.6839 52.7711 26.5324 52.8646 26.4164 52.9901C26.3027 53.1132 26.2459 53.2812 26.2459 53.4943C26.2459 53.7855 26.3536 54.0057 26.5691 54.1548C26.7869 54.3016 27.0627 54.375 27.3965 54.375ZM32.0795 53.0114L32.0653 51.9744H32.2358L34.6222 49.5455H35.6591L33.1165 52.1165H33.0455L32.0795 53.0114ZM31.2983 55V47.7273H32.1364V55H31.2983ZM34.7642 55L32.6335 52.3011L33.2301 51.7188L35.8295 55H34.7642ZM38.8001 55.1136C38.2745 55.1136 37.8211 54.9976 37.44 54.7656C37.0612 54.5312 36.7688 54.2045 36.5629 53.7855C36.3593 53.3641 36.2575 52.8741 36.2575 52.3153C36.2575 51.7566 36.3593 51.2642 36.5629 50.8381C36.7688 50.4096 37.0553 50.0758 37.4222 49.8366C37.7915 49.5952 38.2224 49.4744 38.7148 49.4744C38.9989 49.4744 39.2795 49.5218 39.5565 49.6165C39.8335 49.7112 40.0856 49.8651 40.3129 50.0781C40.5401 50.2888 40.7212 50.5682 40.8562 50.9162C40.9911 51.2642 41.0586 51.6927 41.0586 52.2017V52.5568H36.854V51.8324H40.2063C40.2063 51.5246 40.1448 51.25 40.0217 51.0085C39.9009 50.767 39.7281 50.5765 39.5032 50.4368C39.2807 50.2971 39.0179 50.2273 38.7148 50.2273C38.381 50.2273 38.0922 50.3101 37.8484 50.4759C37.6069 50.6392 37.421 50.8523 37.2908 51.1151C37.1606 51.3778 37.0955 51.6596 37.0955 51.9602V52.4432C37.0955 52.8551 37.1665 53.2043 37.3086 53.4908C37.453 53.7749 37.6531 53.9915 37.9087 54.1406C38.1644 54.2874 38.4615 54.3608 38.8001 54.3608C39.0202 54.3608 39.2191 54.33 39.3967 54.2685C39.5766 54.2045 39.7317 54.1098 39.8619 53.9844C39.9921 53.8565 40.0927 53.6979 40.1637 53.5085L40.9734 53.7358C40.8881 54.0104 40.7449 54.2519 40.5437 54.4602C40.3424 54.6662 40.0939 54.8272 39.7979 54.9432C39.502 55.0568 39.1694 55.1136 38.8001 55.1136ZM49.0096 50.767L48.2567 50.9801C48.2094 50.8546 48.1396 50.7327 48.0472 50.6143C47.9573 50.4936 47.8342 50.3942 47.6779 50.3161C47.5217 50.2379 47.3216 50.1989 47.0778 50.1989C46.744 50.1989 46.4658 50.2758 46.2433 50.4297C46.0231 50.5812 45.913 50.7741 45.913 51.0085C45.913 51.2169 45.9888 51.3814 46.1403 51.5021C46.2918 51.6229 46.5285 51.7235 46.8505 51.804L47.6602 52.0028C48.1478 52.1212 48.5112 52.3023 48.7504 52.5462C48.9895 52.7876 49.109 53.099 49.109 53.4801C49.109 53.7926 49.0191 54.072 48.8391 54.3182C48.6616 54.5644 48.413 54.7585 48.0934 54.9006C47.7738 55.0426 47.4021 55.1136 46.9783 55.1136C46.422 55.1136 45.9615 54.9929 45.5969 54.7514C45.2324 54.5099 45.0015 54.1572 44.9045 53.6932L45.6999 53.4943C45.7757 53.7879 45.9189 54.008 46.1296 54.1548C46.3427 54.3016 46.6209 54.375 46.9641 54.375C47.3548 54.375 47.6649 54.2921 47.8945 54.1264C48.1265 53.9583 48.2425 53.7571 48.2425 53.5227C48.2425 53.3333 48.1763 53.1747 48.0437 53.0469C47.9111 52.9167 47.7075 52.8196 47.4329 52.7557L46.5238 52.5426C46.0243 52.4242 45.6573 52.2408 45.4229 51.9922C45.1909 51.7412 45.0749 51.4276 45.0749 51.0511C45.0749 50.7434 45.1613 50.4711 45.3342 50.2344C45.5094 49.9976 45.7473 49.8118 46.0479 49.6768C46.351 49.5419 46.6942 49.4744 47.0778 49.4744C47.6175 49.4744 48.0413 49.5928 48.3491 49.8295C48.6592 50.0663 48.8794 50.3788 49.0096 50.767ZM53.8081 52.7699V49.5455H54.6461V55H53.8081V54.0767H53.7512C53.6234 54.3537 53.4245 54.5893 53.1547 54.7834C52.8848 54.9751 52.5439 55.071 52.1319 55.071C51.791 55.071 51.488 54.9964 51.2228 54.8473C50.9577 54.6958 50.7493 54.4685 50.5978 54.1655C50.4463 53.8601 50.3706 53.4754 50.3706 53.0114V49.5455H51.2086V52.9545C51.2086 53.3523 51.3199 53.6695 51.5424 53.9062C51.7673 54.143 52.0538 54.2614 52.4018 54.2614C52.6101 54.2614 52.822 54.2081 53.0375 54.1016C53.2553 53.995 53.4376 53.8317 53.5843 53.6115C53.7335 53.3913 53.8081 53.1108 53.8081 52.7699ZM56.1811 55V49.5455H56.9908V50.3693H57.0476C57.147 50.0994 57.3269 49.8804 57.5874 49.7124C57.8478 49.5443 58.1413 49.4602 58.468 49.4602C58.5296 49.4602 58.6065 49.4614 58.6989 49.4638C58.7912 49.4661 58.861 49.4697 58.9084 49.4744V50.3267C58.88 50.3196 58.8149 50.3089 58.7131 50.2947C58.6136 50.2782 58.5083 50.2699 58.397 50.2699C58.1319 50.2699 57.8951 50.3255 57.6868 50.4368C57.4808 50.5457 57.3175 50.6972 57.1967 50.8913C57.0784 51.0831 57.0192 51.3021 57.0192 51.5483V55H56.1811ZM62.0227 55.1136C61.4972 55.1136 61.0438 54.9976 60.6626 54.7656C60.2839 54.5312 59.9915 54.2045 59.7855 53.7855C59.5819 53.3641 59.4801 52.8741 59.4801 52.3153C59.4801 51.7566 59.5819 51.2642 59.7855 50.8381C59.9915 50.4096 60.2779 50.0758 60.6449 49.8366C61.0142 49.5952 61.4451 49.4744 61.9375 49.4744C62.2216 49.4744 62.5021 49.5218 62.7791 49.6165C63.0561 49.7112 63.3082 49.8651 63.5355 50.0781C63.7628 50.2888 63.9439 50.5682 64.0788 50.9162C64.2138 51.2642 64.2812 51.6927 64.2812 52.2017V52.5568H60.0767V51.8324H63.429C63.429 51.5246 63.3674 51.25 63.2443 51.0085C63.1236 50.767 62.9508 50.5765 62.7259 50.4368C62.5033 50.2971 62.2405 50.2273 61.9375 50.2273C61.6037 50.2273 61.3149 50.3101 61.071 50.4759C60.8295 50.6392 60.6437 50.8523 60.5135 51.1151C60.3833 51.3778 60.3182 51.6596 60.3182 51.9602V52.4432C60.3182 52.8551 60.3892 53.2043 60.5312 53.4908C60.6757 53.7749 60.8757 53.9915 61.1314 54.1406C61.3871 54.2874 61.6842 54.3608 62.0227 54.3608C62.2429 54.3608 62.4418 54.33 62.6193 54.2685C62.7992 54.2045 62.9543 54.1098 63.0845 53.9844C63.2147 53.8565 63.3153 53.6979 63.3864 53.5085L64.196 53.7358C64.1108 54.0104 63.9676 54.2519 63.7663 54.4602C63.5651 54.6662 63.3165 54.8272 63.0206 54.9432C62.7247 55.0568 62.392 55.1136 62.0227 55.1136ZM70.6555 55.1136C70.13 55.1136 69.6766 54.9976 69.2955 54.7656C68.9167 54.5312 68.6243 54.2045 68.4183 53.7855C68.2147 53.3641 68.1129 52.8741 68.1129 52.3153C68.1129 51.7566 68.2147 51.2642 68.4183 50.8381C68.6243 50.4096 68.9107 50.0758 69.2777 49.8366C69.647 49.5952 70.0779 49.4744 70.5703 49.4744C70.8544 49.4744 71.1349 49.5218 71.4119 49.6165C71.6889 49.7112 71.9411 49.8651 72.1683 50.0781C72.3956 50.2888 72.5767 50.5682 72.7116 50.9162C72.8466 51.2642 72.9141 51.6927 72.9141 52.2017V52.5568H68.7095V51.8324H72.0618C72.0618 51.5246 72.0002 51.25 71.8771 51.0085C71.7564 50.767 71.5836 50.5765 71.3587 50.4368C71.1361 50.2971 70.8733 50.2273 70.5703 50.2273C70.2365 50.2273 69.9477 50.3101 69.7038 50.4759C69.4624 50.6392 69.2765 50.8523 69.1463 51.1151C69.0161 51.3778 68.951 51.6596 68.951 51.9602V52.4432C68.951 52.8551 69.022 53.2043 69.1641 53.4908C69.3085 53.7749 69.5085 53.9915 69.7642 54.1406C70.0199 54.2874 70.317 54.3608 70.6555 54.3608C70.8757 54.3608 71.0746 54.33 71.2521 54.2685C71.4321 54.2045 71.5871 54.1098 71.7173 53.9844C71.8475 53.8565 71.9482 53.6979 72.0192 53.5085L72.8288 53.7358C72.7436 54.0104 72.6004 54.2519 72.3991 54.4602C72.1979 54.6662 71.9493 54.8272 71.6534 54.9432C71.3575 55.0568 71.0249 55.1136 70.6555 55.1136ZM78.4831 49.5455L76.4661 55H75.6138L73.5968 49.5455H74.5059L76.0115 53.892H76.0684L77.574 49.5455H78.4831ZM81.6809 55.1136C81.1554 55.1136 80.702 54.9976 80.3208 54.7656C79.9421 54.5312 79.6497 54.2045 79.4437 53.7855C79.2401 53.3641 79.1383 52.8741 79.1383 52.3153C79.1383 51.7566 79.2401 51.2642 79.4437 50.8381C79.6497 50.4096 79.9361 50.0758 80.3031 49.8366C80.6724 49.5952 81.1033 49.4744 81.5957 49.4744C81.8798 49.4744 82.1603 49.5218 82.4373 49.6165C82.7143 49.7112 82.9664 49.8651 83.1937 50.0781C83.421 50.2888 83.6021 50.5682 83.737 50.9162C83.872 51.2642 83.9395 51.6927 83.9395 52.2017V52.5568H79.7349V51.8324H83.0872C83.0872 51.5246 83.0256 51.25 82.9025 51.0085C82.7818 50.767 82.609 50.5765 82.3841 50.4368C82.1615 50.2971 81.8987 50.2273 81.5957 50.2273C81.2619 50.2273 80.9731 50.3101 80.7292 50.4759C80.4877 50.6392 80.3019 50.8523 80.1717 51.1151C80.0415 51.3778 79.9764 51.6596 79.9764 51.9602V52.4432C79.9764 52.8551 80.0474 53.2043 80.1895 53.4908C80.3339 53.7749 80.5339 53.9915 80.7896 54.1406C81.0453 54.2874 81.3424 54.3608 81.6809 54.3608C81.9011 54.3608 82.1 54.33 82.2775 54.2685C82.4574 54.2045 82.6125 54.1098 82.7427 53.9844C82.8729 53.8565 82.9735 53.6979 83.0446 53.5085L83.8542 53.7358C83.769 54.0104 83.6258 54.2519 83.4245 54.4602C83.2233 54.6662 82.9747 54.8272 82.6788 54.9432C82.3829 55.0568 82.0502 55.1136 81.6809 55.1136ZM85.2143 55V49.5455H86.024V50.3693H86.0808C86.1802 50.0994 86.3601 49.8804 86.6206 49.7124C86.881 49.5443 87.1745 49.4602 87.5012 49.4602C87.5628 49.4602 87.6397 49.4614 87.7321 49.4638C87.8244 49.4661 87.8942 49.4697 87.9416 49.4744V50.3267C87.9132 50.3196 87.8481 50.3089 87.7463 50.2947C87.6468 50.2782 87.5415 50.2699 87.4302 50.2699C87.1651 50.2699 86.9283 50.3255 86.72 50.4368C86.514 50.5457 86.3507 50.6972 86.2299 50.8913C86.1116 51.0831 86.0524 51.3021 86.0524 51.5483V55H85.2143ZM89.6408 57.0455C89.4988 57.0455 89.3721 57.0336 89.2608 57.0099C89.1496 56.9886 89.0726 56.9673 89.03 56.946L89.2431 56.2074C89.4467 56.2595 89.6266 56.2784 89.7828 56.2642C89.9391 56.25 90.0776 56.1802 90.1983 56.0547C90.3214 55.9316 90.4339 55.7315 90.5357 55.4545L90.6919 55.0284L88.6749 49.5455H89.584L91.0897 53.892H91.1465L92.6522 49.5455H93.5613L91.2459 55.7955C91.1417 56.0772 91.0127 56.3104 90.8588 56.495C90.705 56.6821 90.5262 56.8205 90.3226 56.9105C90.1214 57.0005 89.8941 57.0455 89.6408 57.0455ZM97.0396 49.5455V50.2557H94.2129V49.5455H97.0396ZM95.0368 48.2386H95.8748V53.4375C95.8748 53.6742 95.9092 53.8518 95.9778 53.9702C96.0488 54.0862 96.1388 54.1643 96.2477 54.2045C96.359 54.2424 96.4761 54.2614 96.5993 54.2614C96.6916 54.2614 96.7673 54.2566 96.8265 54.2472C96.8857 54.2353 96.9331 54.2259 96.9686 54.2188L97.139 54.9716C97.0822 54.9929 97.0029 55.0142 96.9011 55.0355C96.7993 55.0592 96.6703 55.071 96.514 55.071C96.2773 55.071 96.0453 55.0201 95.818 54.9183C95.5931 54.8165 95.4061 54.6615 95.2569 54.4531C95.1101 54.2448 95.0368 53.982 95.0368 53.6648V48.2386ZM99.2555 51.7188V55H98.4174V47.7273H99.2555V50.3977H99.3265C99.4544 50.116 99.6461 49.8923 99.9018 49.7266C100.16 49.5585 100.503 49.4744 100.932 49.4744C101.303 49.4744 101.629 49.549 101.908 49.6982C102.188 49.8449 102.404 50.071 102.558 50.3764C102.714 50.6795 102.792 51.0653 102.792 51.5341V55H101.954V51.5909C101.954 51.1577 101.842 50.8227 101.617 50.5859C101.394 50.3468 101.086 50.2273 100.69 50.2273C100.416 50.2273 100.169 50.2853 99.9515 50.4013C99.7361 50.5173 99.5656 50.6866 99.4402 50.9091C99.3171 51.1316 99.2555 51.4015 99.2555 51.7188ZM104.326 55V49.5455H105.164V55H104.326ZM104.752 48.6364C104.588 48.6364 104.448 48.5807 104.329 48.4695C104.213 48.3582 104.155 48.2244 104.155 48.0682C104.155 47.9119 104.213 47.7782 104.329 47.6669C104.448 47.5556 104.588 47.5 104.752 47.5C104.915 47.5 105.055 47.5556 105.171 47.6669C105.289 47.7782 105.348 47.9119 105.348 48.0682C105.348 48.2244 105.289 48.3582 105.171 48.4695C105.055 48.5807 104.915 48.6364 104.752 48.6364ZM107.537 51.7188V55H106.699V49.5455H107.508V50.3977H107.579C107.707 50.1207 107.901 49.8982 108.162 49.7301C108.422 49.5597 108.758 49.4744 109.17 49.4744C109.54 49.4744 109.863 49.5502 110.14 49.7017C110.417 49.8509 110.632 50.0781 110.786 50.3835C110.94 50.6866 111.017 51.0701 111.017 51.5341V55H110.179V51.5909C110.179 51.1624 110.068 50.8286 109.845 50.5895C109.622 50.348 109.317 50.2273 108.929 50.2273C108.661 50.2273 108.422 50.2853 108.211 50.4013C108.003 50.5173 107.839 50.6866 107.718 50.9091C107.597 51.1316 107.537 51.4015 107.537 51.7188ZM114.75 57.1591C114.345 57.1591 113.997 57.107 113.706 57.0028C113.415 56.901 113.172 56.7661 112.978 56.598C112.786 56.4323 112.634 56.2547 112.52 56.0653L113.188 55.5966C113.263 55.696 113.359 55.8097 113.475 55.9375C113.591 56.0677 113.75 56.1802 113.951 56.2749C114.155 56.3719 114.421 56.4205 114.75 56.4205C115.19 56.4205 115.554 56.3139 115.84 56.1009C116.127 55.8878 116.27 55.554 116.27 55.0994V53.9915H116.199C116.137 54.0909 116.05 54.214 115.936 54.3608C115.825 54.5052 115.664 54.6342 115.453 54.7479C115.245 54.8591 114.963 54.9148 114.608 54.9148C114.168 54.9148 113.772 54.8106 113.422 54.6023C113.074 54.3939 112.798 54.0909 112.594 53.6932C112.393 53.2955 112.293 52.8125 112.293 52.2443C112.293 51.6856 112.391 51.1991 112.587 50.7848C112.784 50.3681 113.057 50.0462 113.408 49.8189C113.758 49.5893 114.163 49.4744 114.622 49.4744C114.977 49.4744 115.259 49.5336 115.467 49.652C115.678 49.768 115.839 49.9006 115.95 50.0497C116.064 50.1965 116.152 50.3172 116.213 50.4119H116.298V49.5455H117.108V55.1562C117.108 55.625 117.001 56.0062 116.788 56.2997C116.578 56.5956 116.294 56.8123 115.936 56.9496C115.581 57.0893 115.186 57.1591 114.75 57.1591ZM114.722 54.1619C115.058 54.1619 115.342 54.085 115.574 53.9311C115.806 53.7772 115.982 53.5559 116.103 53.267C116.224 52.9782 116.284 52.6326 116.284 52.2301C116.284 51.8371 116.225 51.4903 116.107 51.1896C115.988 50.889 115.813 50.6534 115.581 50.483C115.349 50.3125 115.063 50.2273 114.722 50.2273C114.366 50.2273 114.071 50.3172 113.834 50.4972C113.599 50.6771 113.423 50.9186 113.305 51.2216C113.189 51.5246 113.131 51.8608 113.131 52.2301C113.131 52.6089 113.19 52.9439 113.308 53.2351C113.429 53.5239 113.607 53.7512 113.841 53.9169C114.078 54.0803 114.371 54.1619 114.722 54.1619ZM121.455 55V49.5455H122.293V55H121.455ZM121.881 48.6364C121.717 48.6364 121.576 48.5807 121.458 48.4695C121.342 48.3582 121.284 48.2244 121.284 48.0682C121.284 47.9119 121.342 47.7782 121.458 47.6669C121.576 47.5556 121.717 47.5 121.881 47.5C122.044 47.5 122.184 47.5556 122.3 47.6669C122.418 47.7782 122.477 47.9119 122.477 48.0682C122.477 48.2244 122.418 48.3582 122.3 48.4695C122.184 48.5807 122.044 48.6364 121.881 48.6364ZM127.691 50.767L126.938 50.9801C126.891 50.8546 126.821 50.7327 126.729 50.6143C126.639 50.4936 126.516 50.3942 126.36 50.3161C126.203 50.2379 126.003 50.1989 125.759 50.1989C125.426 50.1989 125.147 50.2758 124.925 50.4297C124.705 50.5812 124.595 50.7741 124.595 51.0085C124.595 51.2169 124.67 51.3814 124.822 51.5021C124.973 51.6229 125.21 51.7235 125.532 51.804L126.342 52.0028C126.829 52.1212 127.193 52.3023 127.432 52.5462C127.671 52.7876 127.791 53.099 127.791 53.4801C127.791 53.7926 127.701 54.072 127.521 54.3182C127.343 54.5644 127.095 54.7585 126.775 54.9006C126.455 55.0426 126.084 55.1136 125.66 55.1136C125.104 55.1136 124.643 54.9929 124.279 54.7514C123.914 54.5099 123.683 54.1572 123.586 53.6932L124.382 53.4943C124.457 53.7879 124.601 54.008 124.811 54.1548C125.024 54.3016 125.302 54.375 125.646 54.375C126.036 54.375 126.347 54.2921 126.576 54.1264C126.808 53.9583 126.924 53.7571 126.924 53.5227C126.924 53.3333 126.858 53.1747 126.725 53.0469C126.593 52.9167 126.389 52.8196 126.115 52.7557L125.205 52.5426C124.706 52.4242 124.339 52.2408 124.105 51.9922C123.873 51.7412 123.757 51.4276 123.757 51.0511C123.757 50.7434 123.843 50.4711 124.016 50.2344C124.191 49.9976 124.429 49.8118 124.73 49.6768C125.033 49.5419 125.376 49.4744 125.759 49.4744C126.299 49.4744 126.723 49.5928 127.031 49.8295C127.341 50.0663 127.561 50.3788 127.691 50.767ZM134.237 49.5455V50.2557H131.41V49.5455H134.237ZM132.234 48.2386H133.072V53.4375C133.072 53.6742 133.106 53.8518 133.175 53.9702C133.246 54.0862 133.336 54.1643 133.445 54.2045C133.556 54.2424 133.673 54.2614 133.797 54.2614C133.889 54.2614 133.965 54.2566 134.024 54.2472C134.083 54.2353 134.13 54.2259 134.166 54.2188L134.336 54.9716C134.279 54.9929 134.2 55.0142 134.098 55.0355C133.997 55.0592 133.868 55.071 133.711 55.071C133.475 55.071 133.243 55.0201 133.015 54.9183C132.79 54.8165 132.603 54.6615 132.454 54.4531C132.307 54.2448 132.234 53.982 132.234 53.6648V48.2386ZM136.453 51.7188V55H135.615V47.7273H136.453V50.3977H136.524C136.652 50.116 136.843 49.8923 137.099 49.7266C137.357 49.5585 137.7 49.4744 138.129 49.4744C138.501 49.4744 138.826 49.549 139.105 49.6982C139.385 49.8449 139.601 50.071 139.755 50.3764C139.912 50.6795 139.99 51.0653 139.99 51.5341V55H139.152V51.5909C139.152 51.1577 139.039 50.8227 138.814 50.5859C138.592 50.3468 138.283 50.2273 137.887 50.2273C137.613 50.2273 137.367 50.2853 137.149 50.4013C136.933 50.5173 136.763 50.6866 136.637 50.9091C136.514 51.1316 136.453 51.4015 136.453 51.7188ZM143.81 55.1136C143.284 55.1136 142.831 54.9976 142.45 54.7656C142.071 54.5312 141.779 54.2045 141.573 53.7855C141.369 53.3641 141.267 52.8741 141.267 52.3153C141.267 51.7566 141.369 51.2642 141.573 50.8381C141.779 50.4096 142.065 50.0758 142.432 49.8366C142.801 49.5952 143.232 49.4744 143.725 49.4744C144.009 49.4744 144.289 49.5218 144.566 49.6165C144.843 49.7112 145.095 49.8651 145.323 50.0781C145.55 50.2888 145.731 50.5682 145.866 50.9162C146.001 51.2642 146.068 51.6927 146.068 52.2017V52.5568H141.864V51.8324H145.216C145.216 51.5246 145.155 51.25 145.031 51.0085C144.911 50.767 144.738 50.5765 144.513 50.4368C144.29 50.2971 144.028 50.2273 143.725 50.2273C143.391 50.2273 143.102 50.3101 142.858 50.4759C142.617 50.6392 142.431 50.8523 142.301 51.1151C142.17 51.3778 142.105 51.6596 142.105 51.9602V52.4432C142.105 52.8551 142.176 53.2043 142.318 53.4908C142.463 53.7749 142.663 53.9915 142.919 54.1406C143.174 54.2874 143.471 54.3608 143.81 54.3608C144.03 54.3608 144.229 54.33 144.406 54.2685C144.586 54.2045 144.741 54.1098 144.872 53.9844C145.002 53.8565 145.102 53.6979 145.173 53.5085L145.983 53.7358C145.898 54.0104 145.755 54.2519 145.553 54.4602C145.352 54.6662 145.104 54.8272 144.808 54.9432C144.512 55.0568 144.179 55.1136 143.81 55.1136ZM151.392 55L149.73 49.5455H150.61L151.789 53.7216H151.846L153.011 49.5455H153.906L155.056 53.7074H155.113L156.292 49.5455H157.173L155.511 55H154.687L153.494 50.8097H153.409L152.215 55H151.392ZM159.886 55.1278C159.54 55.1278 159.227 55.0627 158.945 54.9325C158.663 54.8 158.439 54.6094 158.274 54.3608C158.108 54.1098 158.025 53.8068 158.025 53.4517C158.025 53.1392 158.087 52.8859 158.21 52.6918C158.333 52.4953 158.497 52.3414 158.703 52.2301C158.909 52.1188 159.137 52.036 159.385 51.9815C159.636 51.9247 159.888 51.8797 160.142 51.8466C160.473 51.804 160.742 51.772 160.948 51.7507C161.156 51.727 161.307 51.688 161.402 51.6335C161.499 51.5791 161.548 51.4844 161.548 51.3494V51.321C161.548 50.9706 161.452 50.6984 161.26 50.5043C161.071 50.3101 160.783 50.2131 160.397 50.2131C159.997 50.2131 159.683 50.3007 159.456 50.4759C159.229 50.651 159.069 50.8381 158.977 51.0369L158.181 50.7528C158.323 50.4214 158.513 50.1634 158.749 49.9787C158.989 49.7917 159.249 49.6615 159.531 49.5881C159.815 49.5123 160.094 49.4744 160.369 49.4744C160.544 49.4744 160.745 49.4957 160.972 49.5384C161.202 49.5786 161.423 49.6626 161.637 49.7905C161.852 49.9183 162.031 50.1113 162.173 50.3693C162.315 50.6274 162.386 50.973 162.386 51.4062V55H161.548V54.2614H161.505C161.448 54.3797 161.354 54.5064 161.221 54.6413C161.088 54.7763 160.912 54.8911 160.692 54.9858C160.472 55.0805 160.203 55.1278 159.886 55.1278ZM160.014 54.375C160.345 54.375 160.624 54.3099 160.852 54.1797C161.081 54.0495 161.254 53.8814 161.37 53.6754C161.489 53.4695 161.548 53.2528 161.548 53.0256V52.2585C161.512 52.3011 161.434 52.3402 161.313 52.3757C161.195 52.4089 161.058 52.4384 160.901 52.4645C160.748 52.4882 160.597 52.5095 160.45 52.5284C160.306 52.545 160.189 52.5592 160.099 52.571C159.881 52.5994 159.677 52.6456 159.488 52.7095C159.301 52.7711 159.15 52.8646 159.034 52.9901C158.92 53.1132 158.863 53.2812 158.863 53.4943C158.863 53.7855 158.971 54.0057 159.186 54.1548C159.404 54.3016 159.68 54.375 160.014 54.375ZM164.26 57.0455C164.118 57.0455 163.991 57.0336 163.88 57.0099C163.769 56.9886 163.692 56.9673 163.649 56.946L163.862 56.2074C164.066 56.2595 164.246 56.2784 164.402 56.2642C164.558 56.25 164.697 56.1802 164.817 56.0547C164.941 55.9316 165.053 55.7315 165.155 55.4545L165.311 55.0284L163.294 49.5455H164.203L165.709 53.892H165.766L167.271 49.5455H168.18L165.865 55.7955C165.761 56.0772 165.632 56.3104 165.478 56.495C165.324 56.6821 165.145 56.8205 164.942 56.9105C164.741 57.0005 164.513 57.0455 164.26 57.0455ZM172.639 57.0455C172.497 57.0455 172.37 57.0336 172.259 57.0099C172.148 56.9886 172.071 56.9673 172.028 56.946L172.241 56.2074C172.445 56.2595 172.625 56.2784 172.781 56.2642C172.937 56.25 173.076 56.1802 173.196 56.0547C173.319 55.9316 173.432 55.7315 173.534 55.4545L173.69 55.0284L171.673 49.5455H172.582L174.088 53.892H174.145L175.65 49.5455H176.559L174.244 55.7955C174.14 56.0772 174.011 56.3104 173.857 56.495C173.703 56.6821 173.524 56.8205 173.321 56.9105C173.119 57.0005 172.892 57.0455 172.639 57.0455ZM179.686 55.1136C179.194 55.1136 178.762 54.9964 178.39 54.7621C178.021 54.5277 177.732 54.1998 177.523 53.7784C177.317 53.357 177.214 52.8646 177.214 52.3011C177.214 51.733 177.317 51.237 177.523 50.8132C177.732 50.3894 178.021 50.0604 178.39 49.826C178.762 49.5916 179.194 49.4744 179.686 49.4744C180.179 49.4744 180.609 49.5916 180.979 49.826C181.35 50.0604 181.639 50.3894 181.845 50.8132C182.054 51.237 182.158 51.733 182.158 52.3011C182.158 52.8646 182.054 53.357 181.845 53.7784C181.639 54.1998 181.35 54.5277 180.979 54.7621C180.609 54.9964 180.179 55.1136 179.686 55.1136ZM179.686 54.3608C180.06 54.3608 180.368 54.2649 180.609 54.0732C180.851 53.8814 181.03 53.6293 181.146 53.3168C181.262 53.0043 181.32 52.6657 181.32 52.3011C181.32 51.9366 181.262 51.5968 181.146 51.282C181.03 50.9671 180.851 50.7126 180.609 50.5185C180.368 50.3243 180.06 50.2273 179.686 50.2273C179.312 50.2273 179.004 50.3243 178.763 50.5185C178.521 50.7126 178.343 50.9671 178.227 51.282C178.111 51.5968 178.053 51.9366 178.053 52.3011C178.053 52.6657 178.111 53.0043 178.227 53.3168C178.343 53.6293 178.521 53.8814 178.763 54.0732C179.004 54.2649 179.312 54.3608 179.686 54.3608ZM186.874 52.7699V49.5455H187.713V55H186.874V54.0767H186.818C186.69 54.3537 186.491 54.5893 186.221 54.7834C185.951 54.9751 185.61 55.071 185.198 55.071C184.857 55.071 184.554 54.9964 184.289 54.8473C184.024 54.6958 183.816 54.4685 183.664 54.1655C183.513 53.8601 183.437 53.4754 183.437 53.0114V49.5455H184.275V52.9545C184.275 53.3523 184.386 53.6695 184.609 53.9062C184.834 54.143 185.12 54.2614 185.468 54.2614C185.677 54.2614 185.888 54.2081 186.104 54.1016C186.322 53.995 186.504 53.8317 186.651 53.6115C186.8 53.3913 186.874 53.1108 186.874 52.7699ZM192.898 47.7273V55H192.06V47.7273H192.898ZM194.433 55V49.5455H195.271V55H194.433ZM194.859 48.6364C194.696 48.6364 194.555 48.5807 194.437 48.4695C194.321 48.3582 194.263 48.2244 194.263 48.0682C194.263 47.9119 194.321 47.7782 194.437 47.6669C194.555 47.5556 194.696 47.5 194.859 47.5C195.023 47.5 195.162 47.5556 195.278 47.6669C195.397 47.7782 195.456 47.9119 195.456 48.0682C195.456 48.2244 195.397 48.3582 195.278 48.4695C195.162 48.5807 195.023 48.6364 194.859 48.6364ZM197.587 53.0114L197.573 51.9744H197.744L200.13 49.5455H201.167L198.624 52.1165H198.553L197.587 53.0114ZM196.806 55V47.7273H197.644V55H196.806ZM200.272 55L198.141 52.3011L198.738 51.7188L201.337 55H200.272ZM204.308 55.1136C203.782 55.1136 203.329 54.9976 202.948 54.7656C202.569 54.5312 202.277 54.2045 202.071 53.7855C201.867 53.3641 201.765 52.8741 201.765 52.3153C201.765 51.7566 201.867 51.2642 202.071 50.8381C202.277 50.4096 202.563 50.0758 202.93 49.8366C203.299 49.5952 203.73 49.4744 204.223 49.4744C204.507 49.4744 204.787 49.5218 205.064 49.6165C205.341 49.7112 205.593 49.8651 205.821 50.0781C206.048 50.2888 206.229 50.5682 206.364 50.9162C206.499 51.2642 206.566 51.6927 206.566 52.2017V52.5568H202.362V51.8324H205.714C205.714 51.5246 205.653 51.25 205.529 51.0085C205.409 50.767 205.236 50.5765 205.011 50.4368C204.788 50.2971 204.526 50.2273 204.223 50.2273C203.889 50.2273 203.6 50.3101 203.356 50.4759C203.115 50.6392 202.929 50.8523 202.799 51.1151C202.668 51.3778 202.603 51.6596 202.603 51.9602V52.4432C202.603 52.8551 202.674 53.2043 202.816 53.4908C202.961 53.7749 203.161 53.9915 203.417 54.1406C203.672 54.2874 203.969 54.3608 204.308 54.3608C204.528 54.3608 204.727 54.33 204.904 54.2685C205.084 54.2045 205.239 54.1098 205.37 53.9844C205.5 53.8565 205.6 53.6979 205.672 53.5085L206.481 53.7358C206.396 54.0104 206.253 54.2519 206.051 54.4602C205.85 54.6662 205.602 54.8272 205.306 54.9432C205.01 55.0568 204.677 55.1136 204.308 55.1136ZM210.654 55V49.5455H211.492V55H210.654ZM211.08 48.6364C210.917 48.6364 210.776 48.5807 210.657 48.4695C210.541 48.3582 210.483 48.2244 210.483 48.0682C210.483 47.9119 210.541 47.7782 210.657 47.6669C210.776 47.5556 210.917 47.5 211.08 47.5C211.243 47.5 211.383 47.5556 211.499 47.6669C211.617 47.7782 211.676 47.9119 211.676 48.0682C211.676 48.2244 211.617 48.3582 211.499 48.4695C211.383 48.5807 211.243 48.6364 211.08 48.6364ZM215.399 49.5455V50.2557H212.572V49.5455H215.399ZM213.396 48.2386H214.234V53.4375C214.234 53.6742 214.269 53.8518 214.337 53.9702C214.408 54.0862 214.498 54.1643 214.607 54.2045C214.718 54.2424 214.836 54.2614 214.959 54.2614C215.051 54.2614 215.127 54.2566 215.186 54.2472C215.245 54.2353 215.292 54.2259 215.328 54.2188L215.498 54.9716C215.442 54.9929 215.362 55.0142 215.26 55.0355C215.159 55.0592 215.03 55.071 214.873 55.071C214.637 55.071 214.405 55.0201 214.177 54.9183C213.952 54.8165 213.765 54.6615 213.616 54.4531C213.47 54.2448 213.396 53.982 213.396 53.6648V48.2386ZM219.586 55V47.7273H220.424V50.4119H220.495C220.556 50.3172 220.642 50.1965 220.751 50.0497C220.862 49.9006 221.02 49.768 221.226 49.652C221.435 49.5336 221.716 49.4744 222.072 49.4744C222.531 49.4744 222.936 49.5893 223.286 49.8189C223.636 50.0485 223.91 50.3741 224.106 50.7955C224.303 51.2169 224.401 51.714 224.401 52.2869C224.401 52.8646 224.303 53.3653 224.106 53.7891C223.91 54.2105 223.638 54.5372 223.29 54.7692C222.942 54.9988 222.54 55.1136 222.086 55.1136C221.735 55.1136 221.455 55.0556 221.244 54.9396C221.033 54.8213 220.871 54.6875 220.758 54.5384C220.644 54.3868 220.556 54.2614 220.495 54.1619H220.395V55H219.586ZM220.41 52.2727C220.41 52.6847 220.47 53.0481 220.591 53.3629C220.711 53.6754 220.888 53.9205 221.12 54.098C221.352 54.2732 221.636 54.3608 221.972 54.3608C222.323 54.3608 222.615 54.2685 222.849 54.0838C223.086 53.8968 223.264 53.6458 223.382 53.331C223.503 53.0137 223.563 52.661 223.563 52.2727C223.563 51.8892 223.504 51.5436 223.385 51.2358C223.269 50.9257 223.093 50.6806 222.856 50.5007C222.622 50.3184 222.327 50.2273 221.972 50.2273C221.631 50.2273 221.345 50.3137 221.113 50.4865C220.881 50.657 220.706 50.8961 220.587 51.2038C220.469 51.5092 220.41 51.8655 220.41 52.2727ZM227.97 55.1136C227.444 55.1136 226.991 54.9976 226.61 54.7656C226.231 54.5312 225.939 54.2045 225.733 53.7855C225.529 53.3641 225.427 52.8741 225.427 52.3153C225.427 51.7566 225.529 51.2642 225.733 50.8381C225.939 50.4096 226.225 50.0758 226.592 49.8366C226.961 49.5952 227.392 49.4744 227.885 49.4744C228.169 49.4744 228.449 49.5218 228.726 49.6165C229.003 49.7112 229.256 49.8651 229.483 50.0781C229.71 50.2888 229.891 50.5682 230.026 50.9162C230.161 51.2642 230.229 51.6927 230.229 52.2017V52.5568H226.024V51.8324H229.376C229.376 51.5246 229.315 51.25 229.192 51.0085C229.071 50.767 228.898 50.5765 228.673 50.4368C228.451 50.2971 228.188 50.2273 227.885 50.2273C227.551 50.2273 227.262 50.3101 227.018 50.4759C226.777 50.6392 226.591 50.8523 226.461 51.1151C226.331 51.3778 226.265 51.6596 226.265 51.9602V52.4432C226.265 52.8551 226.336 53.2043 226.479 53.4908C226.623 53.7749 226.823 53.9915 227.079 54.1406C227.334 54.2874 227.631 54.3608 227.97 54.3608C228.19 54.3608 228.389 54.33 228.567 54.2685C228.747 54.2045 228.902 54.1098 229.032 53.9844C229.162 53.8565 229.263 53.6979 229.334 53.5085L230.143 53.7358C230.058 54.0104 229.915 54.2519 229.714 54.4602C229.512 54.6662 229.264 54.8272 228.968 54.9432C228.672 55.0568 228.339 55.1136 227.97 55.1136ZM233.932 49.5455V50.2557H230.992V49.5455H233.932ZM231.873 55V48.7926C231.873 48.4801 231.946 48.2197 232.093 48.0114C232.24 47.803 232.43 47.6468 232.665 47.5426C232.899 47.4384 233.146 47.3864 233.407 47.3864C233.613 47.3864 233.781 47.4029 233.911 47.4361C234.041 47.4692 234.138 47.5 234.202 47.5284L233.961 48.2528C233.918 48.2386 233.859 48.2209 233.783 48.1996C233.71 48.1783 233.613 48.1676 233.492 48.1676C233.215 48.1676 233.015 48.2375 232.892 48.3771C232.771 48.5168 232.711 48.7216 232.711 48.9915V55H231.873ZM237.098 55.1136C236.606 55.1136 236.174 54.9964 235.802 54.7621C235.433 54.5277 235.144 54.1998 234.936 53.7784C234.73 53.357 234.627 52.8646 234.627 52.3011C234.627 51.733 234.73 51.237 234.936 50.8132C235.144 50.3894 235.433 50.0604 235.802 49.826C236.174 49.5916 236.606 49.4744 237.098 49.4744C237.591 49.4744 238.021 49.5916 238.391 49.826C238.762 50.0604 239.051 50.3894 239.257 50.8132C239.466 51.237 239.57 51.733 239.57 52.3011C239.57 52.8646 239.466 53.357 239.257 53.7784C239.051 54.1998 238.762 54.5277 238.391 54.7621C238.021 54.9964 237.591 55.1136 237.098 55.1136ZM237.098 54.3608C237.472 54.3608 237.78 54.2649 238.021 54.0732C238.263 53.8814 238.442 53.6293 238.558 53.3168C238.674 53.0043 238.732 52.6657 238.732 52.3011C238.732 51.9366 238.674 51.5968 238.558 51.282C238.442 50.9671 238.263 50.7126 238.021 50.5185C237.78 50.3243 237.472 50.2273 237.098 50.2273C236.724 50.2273 236.416 50.3243 236.175 50.5185C235.933 50.7126 235.755 50.9671 235.639 51.282C235.523 51.5968 235.465 51.9366 235.465 52.3011C235.465 52.6657 235.523 53.0043 235.639 53.3168C235.755 53.6293 235.933 53.8814 236.175 54.0732C236.416 54.2649 236.724 54.3608 237.098 54.3608ZM240.849 55V49.5455H241.659V50.3693H241.716C241.815 50.0994 241.995 49.8804 242.255 49.7124C242.516 49.5443 242.809 49.4602 243.136 49.4602C243.198 49.4602 243.275 49.4614 243.367 49.4638C243.459 49.4661 243.529 49.4697 243.576 49.4744V50.3267C243.548 50.3196 243.483 50.3089 243.381 50.2947C243.282 50.2782 243.176 50.2699 243.065 50.2699C242.8 50.2699 242.563 50.3255 242.355 50.4368C242.149 50.5457 241.985 50.6972 241.865 50.8913C241.746 51.0831 241.687 51.3021 241.687 51.5483V55H240.849ZM246.691 55.1136C246.165 55.1136 245.712 54.9976 245.331 54.7656C244.952 54.5312 244.659 54.2045 244.453 53.7855C244.25 53.3641 244.148 52.8741 244.148 52.3153C244.148 51.7566 244.25 51.2642 244.453 50.8381C244.659 50.4096 244.946 50.0758 245.313 49.8366C245.682 49.5952 246.113 49.4744 246.605 49.4744C246.89 49.4744 247.17 49.5218 247.447 49.6165C247.724 49.7112 247.976 49.8651 248.203 50.0781C248.431 50.2888 248.612 50.5682 248.747 50.9162C248.882 51.2642 248.949 51.6927 248.949 52.2017V52.5568H244.745V51.8324H248.097C248.097 51.5246 248.035 51.25 247.912 51.0085C247.792 50.767 247.619 50.5765 247.394 50.4368C247.171 50.2971 246.908 50.2273 246.605 50.2273C246.272 50.2273 245.983 50.3101 245.739 50.4759C245.498 50.6392 245.312 50.8523 245.181 51.1151C245.051 51.3778 244.986 51.6596 244.986 51.9602V52.4432C244.986 52.8551 245.057 53.2043 245.199 53.4908C245.344 53.7749 245.544 53.9915 245.799 54.1406C246.055 54.2874 246.352 54.3608 246.691 54.3608C246.911 54.3608 247.11 54.33 247.287 54.2685C247.467 54.2045 247.622 54.1098 247.752 53.9844C247.883 53.8565 247.983 53.6979 248.054 53.5085L248.864 53.7358C248.779 54.0104 248.636 54.2519 248.434 54.4602C248.233 54.6662 247.984 54.8272 247.689 54.9432C247.393 55.0568 247.06 55.1136 246.691 55.1136ZM253.576 57.0455C253.434 57.0455 253.308 57.0336 253.196 57.0099C253.085 56.9886 253.008 56.9673 252.966 56.946L253.179 56.2074C253.382 56.2595 253.562 56.2784 253.718 56.2642C253.875 56.25 254.013 56.1802 254.134 56.0547C254.257 55.9316 254.369 55.7315 254.471 55.4545L254.627 55.0284L252.61 49.5455H253.52L255.025 53.892H255.082L256.588 49.5455H257.497L255.181 55.7955C255.077 56.0772 254.948 56.3104 254.794 56.495C254.641 56.6821 254.462 56.8205 254.258 56.9105C254.057 57.0005 253.83 57.0455 253.576 57.0455ZM260.624 55.1136C260.131 55.1136 259.699 54.9964 259.327 54.7621C258.958 54.5277 258.669 54.1998 258.461 53.7784C258.255 53.357 258.152 52.8646 258.152 52.3011C258.152 51.733 258.255 51.237 258.461 50.8132C258.669 50.3894 258.958 50.0604 259.327 49.826C259.699 49.5916 260.131 49.4744 260.624 49.4744C261.116 49.4744 261.547 49.5916 261.916 49.826C262.288 50.0604 262.577 50.3894 262.783 50.8132C262.991 51.237 263.095 51.733 263.095 52.3011C263.095 52.8646 262.991 53.357 262.783 53.7784C262.577 54.1998 262.288 54.5277 261.916 54.7621C261.547 54.9964 261.116 55.1136 260.624 55.1136ZM260.624 54.3608C260.998 54.3608 261.305 54.2649 261.547 54.0732C261.788 53.8814 261.967 53.6293 262.083 53.3168C262.199 53.0043 262.257 52.6657 262.257 52.3011C262.257 51.9366 262.199 51.5968 262.083 51.282C261.967 50.9671 261.788 50.7126 261.547 50.5185C261.305 50.3243 260.998 50.2273 260.624 50.2273C260.25 50.2273 259.942 50.3243 259.7 50.5185C259.459 50.7126 259.28 50.9671 259.164 51.282C259.048 51.5968 258.99 51.9366 258.99 52.3011C258.99 52.6657 259.048 53.0043 259.164 53.3168C259.28 53.6293 259.459 53.8814 259.7 54.0732C259.942 54.2649 260.25 54.3608 260.624 54.3608ZM267.812 52.7699V49.5455H268.65V55H267.812V54.0767H267.755C267.627 54.3537 267.428 54.5893 267.159 54.7834C266.889 54.9751 266.548 55.071 266.136 55.071C265.795 55.071 265.492 54.9964 265.227 54.8473C264.962 54.6958 264.753 54.4685 264.602 54.1655C264.45 53.8601 264.374 53.4754 264.374 53.0114V49.5455H265.213V52.9545C265.213 53.3523 265.324 53.6695 265.546 53.9062C265.771 54.143 266.058 54.2614 266.406 54.2614C266.614 54.2614 266.826 54.2081 267.041 54.1016C267.259 53.995 267.441 53.8317 267.588 53.6115C267.737 53.3913 267.812 53.1108 267.812 52.7699ZM20.6307 63.767L19.8778 63.9801C19.8305 63.8546 19.7607 63.7327 19.6683 63.6143C19.5784 63.4936 19.4553 63.3942 19.299 63.3161C19.1428 63.2379 18.9427 63.1989 18.6989 63.1989C18.3651 63.1989 18.0869 63.2758 17.8643 63.4297C17.6442 63.5812 17.5341 63.7741 17.5341 64.0085C17.5341 64.2169 17.6098 64.3814 17.7614 64.5021C17.9129 64.6229 18.1496 64.7235 18.4716 64.804L19.2812 65.0028C19.7689 65.1212 20.1323 65.3023 20.3714 65.5462C20.6106 65.7876 20.7301 66.099 20.7301 66.4801C20.7301 66.7926 20.6402 67.072 20.4602 67.3182C20.2827 67.5644 20.0341 67.7585 19.7145 67.9006C19.3949 68.0426 19.0232 68.1136 18.5994 68.1136C18.0431 68.1136 17.5826 67.9929 17.218 67.7514C16.8535 67.5099 16.6226 67.1572 16.5256 66.6932L17.321 66.4943C17.3968 66.7879 17.54 67.008 17.7507 67.1548C17.9638 67.3016 18.242 67.375 18.5852 67.375C18.9759 67.375 19.286 67.2921 19.5156 67.1264C19.7476 66.9583 19.8636 66.7571 19.8636 66.5227C19.8636 66.3333 19.7973 66.1747 19.6648 66.0469C19.5322 65.9167 19.3286 65.8196 19.054 65.7557L18.1449 65.5426C17.6454 65.4242 17.2784 65.2408 17.044 64.9922C16.812 64.7412 16.696 64.4276 16.696 64.0511C16.696 63.7434 16.7824 63.4711 16.9553 63.2344C17.1304 62.9976 17.3684 62.8118 17.669 62.6768C17.9721 62.5419 18.3153 62.4744 18.6989 62.4744C19.2386 62.4744 19.6624 62.5928 19.9702 62.8295C20.2803 63.0663 20.5005 63.3788 20.6307 63.767ZM24.3638 62.5455V63.2557H21.5371V62.5455H24.3638ZM22.361 61.2386H23.199V66.4375C23.199 66.6742 23.2334 66.8518 23.302 66.9702C23.373 67.0862 23.463 67.1643 23.5719 67.2045C23.6832 67.2424 23.8004 67.2614 23.9235 67.2614C24.0158 67.2614 24.0916 67.2566 24.1507 67.2472C24.2099 67.2353 24.2573 67.2259 24.2928 67.2188L24.4632 67.9716C24.4064 67.9929 24.3271 68.0142 24.2253 68.0355C24.1235 68.0592 23.9945 68.071 23.8382 68.071C23.6015 68.071 23.3695 68.0201 23.1422 67.9183C22.9173 67.8165 22.7303 67.6615 22.5811 67.4531C22.4344 67.2448 22.361 66.982 22.361 66.6648V61.2386ZM27.2296 68.1278C26.8839 68.1278 26.5703 68.0627 26.2885 67.9325C26.0068 67.8 25.7831 67.6094 25.6174 67.3608C25.4516 67.1098 25.3688 66.8068 25.3688 66.4517C25.3688 66.1392 25.4303 65.8859 25.5534 65.6918C25.6766 65.4953 25.8411 65.3414 26.0471 65.2301C26.253 65.1188 26.4803 65.036 26.7289 64.9815C26.9798 64.9247 27.2319 64.8797 27.4853 64.8466C27.8167 64.804 28.0854 64.772 28.2914 64.7507C28.4997 64.727 28.6512 64.688 28.7459 64.6335C28.843 64.5791 28.8915 64.4844 28.8915 64.3494V64.321C28.8915 63.9706 28.7956 63.6984 28.6039 63.5043C28.4145 63.3101 28.1268 63.2131 27.7409 63.2131C27.3408 63.2131 27.0272 63.3007 26.7999 63.4759C26.5726 63.651 26.4128 63.8381 26.3205 64.0369L25.525 63.7528C25.6671 63.4214 25.8565 63.1634 26.0932 62.9787C26.3323 62.7917 26.5927 62.6615 26.8745 62.5881C27.1586 62.5123 27.4379 62.4744 27.7125 62.4744C27.8877 62.4744 28.089 62.4957 28.3162 62.5384C28.5459 62.5786 28.7672 62.6626 28.9803 62.7905C29.1957 62.9183 29.3745 63.1113 29.5165 63.3693C29.6586 63.6274 29.7296 63.973 29.7296 64.4062V68H28.8915V67.2614H28.8489C28.7921 67.3797 28.6974 67.5064 28.5648 67.6413C28.4322 67.7763 28.2559 67.8911 28.0357 67.9858C27.8155 68.0805 27.5468 68.1278 27.2296 68.1278ZM27.3574 67.375C27.6889 67.375 27.9682 67.3099 28.1955 67.1797C28.4251 67.0495 28.598 66.8814 28.714 66.6754C28.8323 66.4695 28.8915 66.2528 28.8915 66.0256V65.2585C28.856 65.3011 28.7779 65.3402 28.6571 65.3757C28.5388 65.4089 28.4015 65.4384 28.2452 65.4645C28.0913 65.4882 27.941 65.5095 27.7942 65.5284C27.6498 65.545 27.5326 65.5592 27.4426 65.571C27.2248 65.5994 27.0212 65.6456 26.8319 65.7095C26.6448 65.7711 26.4933 65.8646 26.3773 65.9901C26.2637 66.1132 26.2069 66.2812 26.2069 66.4943C26.2069 66.7855 26.3146 67.0057 26.53 67.1548C26.7478 67.3016 27.0236 67.375 27.3574 67.375ZM31.2592 68V62.5455H32.0689V63.3693H32.1257C32.2251 63.0994 32.4051 62.8804 32.6655 62.7124C32.9259 62.5443 33.2195 62.4602 33.5462 62.4602C33.6077 62.4602 33.6847 62.4614 33.777 62.4638C33.8693 62.4661 33.9392 62.4697 33.9865 62.4744V63.3267C33.9581 63.3196 33.893 63.3089 33.7912 63.2947C33.6918 63.2782 33.5864 63.2699 33.4751 63.2699C33.21 63.2699 32.9732 63.3255 32.7649 63.4368C32.5589 63.5457 32.3956 63.6972 32.2749 63.8913C32.1565 64.0831 32.0973 64.3021 32.0973 64.5483V68H31.2592ZM37.6939 62.5455V63.2557H34.8672V62.5455H37.6939ZM35.6911 61.2386H36.5291V66.4375C36.5291 66.6742 36.5634 66.8518 36.6321 66.9702C36.7031 67.0862 36.7931 67.1643 36.902 67.2045C37.0133 67.2424 37.1304 67.2614 37.2536 67.2614C37.3459 67.2614 37.4216 67.2566 37.4808 67.2472C37.54 67.2353 37.5874 67.2259 37.6229 67.2188L37.7933 67.9716C37.7365 67.9929 37.6572 68.0142 37.5554 68.0355C37.4536 68.0592 37.3246 68.071 37.1683 68.071C36.9316 68.071 36.6996 68.0201 36.4723 67.9183C36.2474 67.8165 36.0604 67.6615 35.9112 67.4531C35.7644 67.2448 35.6911 66.982 35.6911 66.6648V61.2386ZM43.3722 68.1278C43.0265 68.1278 42.7128 68.0627 42.4311 67.9325C42.1494 67.8 41.9257 67.6094 41.7599 67.3608C41.5942 67.1098 41.5114 66.8068 41.5114 66.4517C41.5114 66.1392 41.5729 65.8859 41.696 65.6918C41.8191 65.4953 41.9837 65.3414 42.1896 65.2301C42.3956 65.1188 42.6229 65.036 42.8714 64.9815C43.1224 64.9247 43.3745 64.8797 43.6278 64.8466C43.9593 64.804 44.228 64.772 44.4339 64.7507C44.6423 64.727 44.7938 64.688 44.8885 64.6335C44.9856 64.5791 45.0341 64.4844 45.0341 64.3494V64.321C45.0341 63.9706 44.9382 63.6984 44.7464 63.5043C44.5571 63.3101 44.2694 63.2131 43.8835 63.2131C43.4834 63.2131 43.1697 63.3007 42.9425 63.4759C42.7152 63.651 42.5554 63.8381 42.4631 64.0369L41.6676 63.7528C41.8097 63.4214 41.9991 63.1634 42.2358 62.9787C42.4749 62.7917 42.7353 62.6615 43.017 62.5881C43.3011 62.5123 43.5805 62.4744 43.8551 62.4744C44.0303 62.4744 44.2315 62.4957 44.4588 62.5384C44.6884 62.5786 44.9098 62.6626 45.1229 62.7905C45.3383 62.9183 45.517 63.1113 45.6591 63.3693C45.8011 63.6274 45.8722 63.973 45.8722 64.4062V68H45.0341V67.2614H44.9915C44.9347 67.3797 44.84 67.5064 44.7074 67.6413C44.5748 67.7763 44.3984 67.8911 44.1783 67.9858C43.9581 68.0805 43.6894 68.1278 43.3722 68.1278ZM43.5 67.375C43.8314 67.375 44.1108 67.3099 44.3381 67.1797C44.5677 67.0495 44.7405 66.8814 44.8565 66.6754C44.9749 66.4695 45.0341 66.2528 45.0341 66.0256V65.2585C44.9986 65.3011 44.9205 65.3402 44.7997 65.3757C44.6813 65.4089 44.544 65.4384 44.3878 65.4645C44.2339 65.4882 44.0836 65.5095 43.9368 65.5284C43.7924 65.545 43.6752 65.5592 43.5852 65.571C43.3674 65.5994 43.1638 65.6456 42.9744 65.7095C42.7874 65.7711 42.6359 65.8646 42.5199 65.9901C42.4063 66.1132 42.3494 66.2812 42.3494 66.4943C42.3494 66.7855 42.4571 67.0057 42.6726 67.1548C42.8904 67.3016 43.1662 67.375 43.5 67.375ZM54.0779 63.767L53.3251 63.9801C53.2778 63.8546 53.2079 63.7327 53.1156 63.6143C53.0256 63.4936 52.9025 63.3942 52.7463 63.3161C52.59 63.2379 52.39 63.1989 52.1461 63.1989C51.8123 63.1989 51.5342 63.2758 51.3116 63.4297C51.0914 63.5812 50.9814 63.7741 50.9814 64.0085C50.9814 64.2169 51.0571 64.3814 51.2086 64.5021C51.3601 64.6229 51.5969 64.7235 51.9189 64.804L52.7285 65.0028C53.2162 65.1212 53.5796 65.3023 53.8187 65.5462C54.0578 65.7876 54.1774 66.099 54.1774 66.4801C54.1774 66.7926 54.0874 67.072 53.9075 67.3182C53.7299 67.5644 53.4814 67.7585 53.1618 67.9006C52.8422 68.0426 52.4705 68.1136 52.0467 68.1136C51.4904 68.1136 51.0299 67.9929 50.6653 67.7514C50.3007 67.5099 50.0699 67.1572 49.9728 66.6932L50.7683 66.4943C50.844 66.7879 50.9873 67.008 51.198 67.1548C51.411 67.3016 51.6892 67.375 52.0325 67.375C52.4231 67.375 52.7333 67.2921 52.9629 67.1264C53.1949 66.9583 53.3109 66.7571 53.3109 66.5227C53.3109 66.3333 53.2446 66.1747 53.112 66.0469C52.9795 65.9167 52.7759 65.8196 52.5012 65.7557L51.5922 65.5426C51.0926 65.4242 50.7257 65.2408 50.4913 64.9922C50.2593 64.7412 50.1433 64.4276 50.1433 64.0511C50.1433 63.7434 50.2297 63.4711 50.4025 63.2344C50.5777 62.9976 50.8156 62.8118 51.1163 62.6768C51.4193 62.5419 51.7626 62.4744 52.1461 62.4744C52.6859 62.4744 53.1097 62.5928 53.4174 62.8295C53.7276 63.0663 53.9477 63.3788 54.0779 63.767ZM55.4389 68V62.5455H56.277V68H55.4389ZM55.8651 61.6364C55.7017 61.6364 55.5608 61.5807 55.4425 61.4695C55.3265 61.3582 55.2685 61.2244 55.2685 61.0682C55.2685 60.9119 55.3265 60.7782 55.4425 60.6669C55.5608 60.5556 55.7017 60.5 55.8651 60.5C56.0284 60.5 56.1681 60.5556 56.2841 60.6669C56.4025 60.7782 56.4616 60.9119 56.4616 61.0682C56.4616 61.2244 56.4025 61.3582 56.2841 61.4695C56.1681 61.5807 56.0284 61.6364 55.8651 61.6364ZM57.812 68V62.5455H58.6216V63.3977H58.6926C58.8063 63.1065 58.9898 62.8804 59.2431 62.7195C59.4964 62.5561 59.8006 62.4744 60.1557 62.4744C60.5156 62.4744 60.815 62.5561 61.0542 62.7195C61.2956 62.8804 61.4838 63.1065 61.6188 63.3977H61.6756C61.8153 63.116 62.0248 62.8923 62.3042 62.7266C62.5835 62.5585 62.9185 62.4744 63.3091 62.4744C63.7968 62.4744 64.1957 62.6271 64.5059 62.9325C64.816 63.2356 64.9711 63.7079 64.9711 64.3494V68H64.133V64.3494C64.133 63.947 64.0229 63.6593 63.8027 63.4865C63.5826 63.3137 63.3233 63.2273 63.025 63.2273C62.6415 63.2273 62.3444 63.3433 62.1337 63.5753C61.923 63.8049 61.8176 64.0961 61.8176 64.4489V68H60.9654V64.2642C60.9654 63.9541 60.8648 63.7043 60.6635 63.5149C60.4623 63.3232 60.2031 63.2273 59.8858 63.2273C59.668 63.2273 59.4644 63.2853 59.275 63.4013C59.088 63.5173 58.9365 63.6783 58.8205 63.8842C58.7069 64.0878 58.65 64.3234 58.65 64.5909V68H57.812ZM69.9409 65.7699V62.5455H70.7789V68H69.9409V67.0767H69.8841C69.7562 67.3537 69.5574 67.5893 69.2875 67.7834C69.0176 67.9751 68.6767 68.071 68.2647 68.071C67.9238 68.071 67.6208 67.9964 67.3556 67.8473C67.0905 67.6958 66.8822 67.4685 66.7306 67.1655C66.5791 66.8601 66.5034 66.4754 66.5034 66.0114V62.5455H67.3414V65.9545C67.3414 66.3523 67.4527 66.6695 67.6752 66.9062C67.9002 67.143 68.1866 67.2614 68.5346 67.2614C68.743 67.2614 68.9548 67.2081 69.1703 67.1016C69.3881 66.995 69.5704 66.8317 69.7172 66.6115C69.8663 66.3913 69.9409 66.1108 69.9409 65.7699ZM73.152 60.7273V68H72.3139V60.7273H73.152ZM76.2921 68.1278C75.9464 68.1278 75.6328 68.0627 75.351 67.9325C75.0693 67.8 74.8456 67.6094 74.6799 67.3608C74.5141 67.1098 74.4313 66.8068 74.4313 66.4517C74.4313 66.1392 74.4928 65.8859 74.6159 65.6918C74.7391 65.4953 74.9036 65.3414 75.1096 65.2301C75.3155 65.1188 75.5428 65.036 75.7914 64.9815C76.0423 64.9247 76.2944 64.8797 76.5478 64.8466C76.8792 64.804 77.1479 64.772 77.3539 64.7507C77.5622 64.727 77.7137 64.688 77.8084 64.6335C77.9055 64.5791 77.954 64.4844 77.954 64.3494V64.321C77.954 63.9706 77.8581 63.6984 77.6664 63.5043C77.477 63.3101 77.1893 63.2131 76.8034 63.2131C76.4033 63.2131 76.0897 63.3007 75.8624 63.4759C75.6351 63.651 75.4753 63.8381 75.383 64.0369L74.5875 63.7528C74.7296 63.4214 74.919 63.1634 75.1557 62.9787C75.3948 62.7917 75.6552 62.6615 75.937 62.5881C76.2211 62.5123 76.5004 62.4744 76.775 62.4744C76.9502 62.4744 77.1515 62.4957 77.3787 62.5384C77.6084 62.5786 77.8297 62.6626 78.0428 62.7905C78.2582 62.9183 78.437 63.1113 78.579 63.3693C78.7211 63.6274 78.7921 63.973 78.7921 64.4062V68H77.954V67.2614H77.9114C77.8546 67.3797 77.7599 67.5064 77.6273 67.6413C77.4947 67.7763 77.3184 67.8911 77.0982 67.9858C76.878 68.0805 76.6093 68.1278 76.2921 68.1278ZM76.4199 67.375C76.7514 67.375 77.0307 67.3099 77.258 67.1797C77.4876 67.0495 77.6605 66.8814 77.7765 66.6754C77.8948 66.4695 77.954 66.2528 77.954 66.0256V65.2585C77.9185 65.3011 77.8404 65.3402 77.7196 65.3757C77.6013 65.4089 77.464 65.4384 77.3077 65.4645C77.1538 65.4882 77.0035 65.5095 76.8567 65.5284C76.7123 65.545 76.5951 65.5592 76.5051 65.571C76.2873 65.5994 76.0837 65.6456 75.8944 65.7095C75.7073 65.7711 75.5558 65.8646 75.4398 65.9901C75.3262 66.1132 75.2694 66.2812 75.2694 66.4943C75.2694 66.7855 75.3771 67.0057 75.5925 67.1548C75.8103 67.3016 76.0861 67.375 76.4199 67.375ZM82.6939 62.5455V63.2557H79.8672V62.5455H82.6939ZM80.6911 61.2386H81.5291V66.4375C81.5291 66.6742 81.5634 66.8518 81.6321 66.9702C81.7031 67.0862 81.7931 67.1643 81.902 67.2045C82.0133 67.2424 82.1304 67.2614 82.2536 67.2614C82.3459 67.2614 82.4216 67.2566 82.4808 67.2472C82.54 67.2353 82.5874 67.2259 82.6229 67.2188L82.7933 67.9716C82.7365 67.9929 82.6572 68.0142 82.5554 68.0355C82.4536 68.0592 82.3246 68.071 82.1683 68.071C81.9316 68.071 81.6996 68.0201 81.4723 67.9183C81.2474 67.8165 81.0604 67.6615 80.9112 67.4531C80.7644 67.2448 80.6911 66.982 80.6911 66.6648V61.2386ZM83.9545 68V62.5455H84.7926V68H83.9545ZM84.3807 61.6364C84.2173 61.6364 84.0765 61.5807 83.9581 61.4695C83.8421 61.3582 83.7841 61.2244 83.7841 61.0682C83.7841 60.9119 83.8421 60.7782 83.9581 60.6669C84.0765 60.5556 84.2173 60.5 84.3807 60.5C84.544 60.5 84.6837 60.5556 84.7997 60.6669C84.9181 60.7782 84.9773 60.9119 84.9773 61.0682C84.9773 61.2244 84.9181 61.3582 84.7997 61.4695C84.6837 61.5807 84.544 61.6364 84.3807 61.6364ZM88.5435 68.1136C88.0511 68.1136 87.619 67.9964 87.2473 67.7621C86.878 67.5277 86.5892 67.1998 86.3809 66.7784C86.1749 66.357 86.0719 65.8646 86.0719 65.3011C86.0719 64.733 86.1749 64.237 86.3809 63.8132C86.5892 63.3894 86.878 63.0604 87.2473 62.826C87.619 62.5916 88.0511 62.4744 88.5435 62.4744C89.0359 62.4744 89.4668 62.5916 89.8361 62.826C90.2078 63.0604 90.4966 63.3894 90.7026 63.8132C90.9109 64.237 91.0151 64.733 91.0151 65.3011C91.0151 65.8646 90.9109 66.357 90.7026 66.7784C90.4966 67.1998 90.2078 67.5277 89.8361 67.7621C89.4668 67.9964 89.0359 68.1136 88.5435 68.1136ZM88.5435 67.3608C88.9176 67.3608 89.2253 67.2649 89.4668 67.0732C89.7083 66.8814 89.887 66.6293 90.003 66.3168C90.119 66.0043 90.177 65.6657 90.177 65.3011C90.177 64.9366 90.119 64.5968 90.003 64.282C89.887 63.9671 89.7083 63.7126 89.4668 63.5185C89.2253 63.3243 88.9176 63.2273 88.5435 63.2273C88.1694 63.2273 87.8617 63.3243 87.6202 63.5185C87.3787 63.7126 87.2 63.9671 87.084 64.282C86.968 64.5968 86.91 64.9366 86.91 65.3011C86.91 65.6657 86.968 66.0043 87.084 66.3168C87.2 66.6293 87.3787 66.8814 87.6202 67.0732C87.8617 67.2649 88.1694 67.3608 88.5435 67.3608ZM93.1325 64.7188V68H92.2944V62.5455H93.104V63.3977H93.1751C93.3029 63.1207 93.497 62.8982 93.7575 62.7301C94.0179 62.5597 94.354 62.4744 94.766 62.4744C95.1353 62.4744 95.4585 62.5502 95.7354 62.7017C96.0124 62.8509 96.2279 63.0781 96.3817 63.3835C96.5356 63.6866 96.6126 64.0701 96.6126 64.5341V68H95.7745V64.5909C95.7745 64.1624 95.6632 63.8286 95.4407 63.5895C95.2182 63.348 94.9128 63.2273 94.5245 63.2273C94.257 63.2273 94.0179 63.2853 93.8072 63.4013C93.5988 63.5173 93.4343 63.6866 93.3136 63.9091C93.1928 64.1316 93.1325 64.4015 93.1325 64.7188ZM98.7548 68.0568C98.5796 68.0568 98.4293 67.9941 98.3038 67.8686C98.1783 67.7431 98.1156 67.5928 98.1156 67.4176C98.1156 67.2424 98.1783 67.0921 98.3038 66.9666C98.4293 66.8411 98.5796 66.7784 98.7548 66.7784C98.93 66.7784 99.0803 66.8411 99.2058 66.9666C99.3313 67.0921 99.394 67.2424 99.394 67.4176C99.394 67.5336 99.3644 67.6402 99.3052 67.7372C99.2484 67.8343 99.1715 67.9124 99.0744 67.9716C98.9797 68.0284 98.8732 68.0568 98.7548 68.0568Z" fill="var(--colors-neutral-neutral-800)"/>
</svg>
