<svg width="304" height="383" viewBox="0 0 304 383" fill="none" xmlns="http://www.w3.org/2000/svg">
<rect x="0.5" y="0.5" width="303" height="381" stroke="var(--colors-neutral-neutral-400)"/>
<mask id="path-2-inside-1_3815_56553" fill="white">
<path d="M0 0H304V52H0V0Z"/>
</mask>
<path d="M304 51H0V53H304V51Z" fill="var(--colors-neutral-neutral-400)" mask="url(#path-2-inside-1_3815_56553)"/>
<path d="M20.02 30.144C19.372 30.144 18.808 30.02 18.328 29.772C17.848 29.524 17.476 29.168 17.212 28.704C16.948 28.24 16.816 27.676 16.816 27.012H18.076C18.076 27.668 18.248 28.176 18.592 28.536C18.936 28.888 19.408 29.064 20.008 29.064C20.52 29.064 20.932 28.948 21.244 28.716C21.556 28.476 21.712 28.144 21.712 27.72C21.712 27.432 21.624 27.2 21.448 27.024C21.28 26.848 21.052 26.704 20.764 26.592C20.484 26.48 20.176 26.38 19.84 26.292C19.504 26.204 19.164 26.108 18.82 26.004C18.484 25.892 18.172 25.752 17.884 25.584C17.604 25.416 17.376 25.192 17.2 24.912C17.032 24.632 16.948 24.276 16.948 23.844C16.948 23.388 17.068 22.984 17.308 22.632C17.556 22.272 17.896 21.992 18.328 21.792C18.768 21.584 19.284 21.48 19.876 21.48C20.452 21.48 20.968 21.588 21.424 21.804C21.88 22.012 22.244 22.312 22.516 22.704C22.796 23.088 22.94 23.552 22.948 24.096H21.676C21.668 23.776 21.58 23.504 21.412 23.28C21.252 23.048 21.036 22.872 20.764 22.752C20.5 22.624 20.204 22.56 19.876 22.56C19.404 22.56 19.02 22.672 18.724 22.896C18.428 23.12 18.28 23.424 18.28 23.808C18.28 24.08 18.364 24.296 18.532 24.456C18.708 24.616 18.936 24.748 19.216 24.852C19.504 24.948 19.816 25.04 20.152 25.128C20.496 25.208 20.836 25.304 21.172 25.416C21.508 25.52 21.816 25.664 22.096 25.848C22.384 26.024 22.612 26.264 22.78 26.568C22.956 26.864 23.044 27.244 23.044 27.708C23.044 28.204 22.912 28.636 22.648 29.004C22.384 29.364 22.024 29.644 21.568 29.844C21.112 30.044 20.596 30.144 20.02 30.144ZM27.5367 30.144C26.8567 30.144 26.2687 30.008 25.7727 29.736C25.2767 29.456 24.8967 29.06 24.6327 28.548C24.3687 28.028 24.2367 27.408 24.2367 26.688C24.2367 25.968 24.3687 25.352 24.6327 24.84C24.9047 24.328 25.2887 23.936 25.7847 23.664C26.2887 23.392 26.8887 23.256 27.5847 23.256C28.6487 23.256 29.4407 23.552 29.9607 24.144C30.4807 24.728 30.7087 25.532 30.6447 26.556H25.1967L25.2087 25.644L29.4087 25.656C29.3767 25.232 29.1927 24.892 28.8567 24.636C28.5207 24.38 28.0967 24.252 27.5847 24.252C26.8967 24.252 26.3687 24.468 26.0007 24.9C25.6327 25.332 25.4487 25.944 25.4487 26.736C25.4487 27.208 25.5287 27.628 25.6887 27.996C25.8567 28.356 26.0967 28.636 26.4087 28.836C26.7207 29.036 27.0967 29.136 27.5367 29.136C28.0567 29.136 28.4887 29.012 28.8327 28.764C29.1847 28.516 29.4007 28.18 29.4807 27.756H30.6927C30.5887 28.5 30.2567 29.084 29.6967 29.508C29.1367 29.932 28.4167 30.144 27.5367 30.144ZM35.5694 30C35.1614 30 34.8134 29.92 34.5254 29.76C34.2374 29.592 34.0214 29.356 33.8774 29.052C33.7334 28.748 33.6614 28.392 33.6614 27.984V22.152L34.8734 21.492V27.984C34.8734 28.176 34.9014 28.352 34.9574 28.512C35.0134 28.672 35.1214 28.796 35.2814 28.884C35.4494 28.972 35.6934 29.016 36.0134 29.016H37.9934V30H35.5694ZM32.1014 24.384V23.4H36.9374V24.384H32.1014ZM40.7581 23.4V27.564C40.7581 28.028 40.8901 28.404 41.1541 28.692C41.4181 28.972 41.7621 29.112 42.1861 29.112C42.6741 29.112 43.1061 28.936 43.4821 28.584C43.8661 28.224 44.1701 27.668 44.3941 26.916L44.5861 28.272C44.3381 28.896 43.9781 29.364 43.5061 29.676C43.0421 29.988 42.5341 30.144 41.9821 30.144C41.4861 30.144 41.0541 30.04 40.6861 29.832C40.3261 29.616 40.0461 29.32 39.8461 28.944C39.6461 28.568 39.5461 28.124 39.5461 27.612V23.4H40.7581ZM45.4621 23.4V30H44.3101L44.2501 28.512V23.4H45.4621ZM50.5428 23.256C51.1348 23.256 51.6508 23.404 52.0908 23.7C52.5388 23.988 52.8908 24.392 53.1468 24.912C53.4028 25.432 53.5308 26.028 53.5308 26.7C53.5308 27.364 53.4028 27.956 53.1468 28.476C52.8908 28.996 52.5388 29.404 52.0908 29.7C51.6508 29.996 51.1348 30.144 50.5428 30.144C50.0948 30.144 49.6828 30.052 49.3068 29.868C48.9388 29.684 48.6348 29.432 48.3948 29.112V32.136H47.1828V23.4H48.3348L48.3708 24.3C48.6108 23.98 48.9188 23.728 49.2948 23.544C49.6708 23.352 50.0868 23.256 50.5428 23.256ZM50.2788 29.124C50.6868 29.124 51.0428 29.02 51.3468 28.812C51.6508 28.604 51.8868 28.32 52.0548 27.96C52.2228 27.592 52.3068 27.172 52.3068 26.7C52.3068 26.22 52.2228 25.8 52.0548 25.44C51.8868 25.072 51.6508 24.788 51.3468 24.588C51.0428 24.38 50.6868 24.276 50.2788 24.276C49.8628 24.276 49.4828 24.396 49.1388 24.636C48.8028 24.868 48.5548 25.188 48.3948 25.596V27.78C48.5548 28.196 48.8028 28.524 49.1388 28.764C49.4828 29.004 49.8628 29.124 50.2788 29.124Z" fill="var(--colors-neutral-neutral-700)"/>
<path d="M80.104 30V21.624H81.844V28.56H86.008V30H80.104ZM92.1447 30L92.0847 28.704V25.572C92.0847 25.204 91.9567 24.916 91.7007 24.708C91.4447 24.5 91.0927 24.396 90.6447 24.396C90.2047 24.396 89.8487 24.492 89.5767 24.684C89.3047 24.868 89.1487 25.128 89.1087 25.464H87.5127C87.5527 24.992 87.7087 24.588 87.9807 24.252C88.2607 23.916 88.6327 23.66 89.0967 23.484C89.5607 23.3 90.0967 23.208 90.7047 23.208C91.3207 23.208 91.8527 23.304 92.3007 23.496C92.7567 23.688 93.1087 23.968 93.3567 24.336C93.6047 24.696 93.7287 25.14 93.7287 25.668V30H92.1447ZM89.9247 30.144C89.4847 30.144 89.0967 30.06 88.7607 29.892C88.4327 29.724 88.1767 29.492 87.9927 29.196C87.8087 28.9 87.7167 28.556 87.7167 28.164C87.7167 27.484 87.9807 26.956 88.5087 26.58C89.0367 26.196 89.7727 26.004 90.7167 26.004H92.2647V27.168H90.6687C90.2527 27.168 89.9247 27.244 89.6847 27.396C89.4447 27.548 89.3247 27.772 89.3247 28.068C89.3247 28.284 89.4127 28.468 89.5887 28.62C89.7647 28.764 90.0047 28.836 90.3087 28.836C90.7167 28.836 91.0807 28.728 91.4007 28.512C91.7207 28.296 91.9847 28.004 92.1927 27.636L92.3727 28.776C92.1647 29.232 91.8527 29.576 91.4367 29.808C91.0207 30.032 90.5167 30.144 89.9247 30.144ZM97.8974 25.98L98.5094 27.672L99.1214 25.98L100.225 23.352H101.917L98.9294 30.42C98.7374 30.884 98.5174 31.248 98.2694 31.512C98.0294 31.784 97.7534 31.98 97.4414 32.1C97.1374 32.22 96.7854 32.28 96.3854 32.28H95.1734V30.948H96.2294C96.4454 30.948 96.6294 30.896 96.7814 30.792C96.9334 30.696 97.0694 30.56 97.1894 30.384C97.3094 30.208 97.4214 30 97.5254 29.76L97.6574 29.436L95.1014 23.352H96.8054L97.8974 25.98ZM106.314 30.144C105.61 30.144 105.002 30.004 104.49 29.724C103.986 29.444 103.598 29.048 103.326 28.536C103.062 28.016 102.93 27.396 102.93 26.676C102.93 25.956 103.062 25.34 103.326 24.828C103.598 24.308 103.986 23.908 104.49 23.628C105.002 23.348 105.61 23.208 106.314 23.208C107.37 23.208 108.194 23.516 108.786 24.132C109.386 24.748 109.686 25.596 109.686 26.676C109.686 27.396 109.55 28.016 109.278 28.536C109.014 29.048 108.63 29.444 108.126 29.724C107.622 30.004 107.018 30.144 106.314 30.144ZM106.314 28.8C106.85 28.8 107.27 28.612 107.574 28.236C107.886 27.852 108.042 27.332 108.042 26.676C108.042 26.012 107.886 25.492 107.574 25.116C107.27 24.74 106.85 24.552 106.314 24.552C105.77 24.552 105.342 24.74 105.03 25.116C104.726 25.492 104.574 26.012 104.574 26.676C104.574 27.332 104.726 27.852 105.03 28.236C105.342 28.612 105.77 28.8 106.314 28.8ZM112.559 23.352V27.48C112.559 27.864 112.659 28.176 112.859 28.416C113.067 28.648 113.339 28.764 113.675 28.764C114.059 28.764 114.407 28.632 114.719 28.368C115.031 28.096 115.323 27.656 115.595 27.048L115.835 28.56C115.547 29.112 115.183 29.516 114.743 29.772C114.303 30.02 113.839 30.144 113.351 30.144C112.847 30.144 112.411 30.036 112.043 29.82C111.683 29.604 111.403 29.308 111.203 28.932C111.003 28.548 110.903 28.096 110.903 27.576V23.352H112.559ZM117.095 23.352V30H115.511L115.451 28.716V23.352H117.095ZM122.463 30C122.031 30 121.651 29.904 121.323 29.712C121.003 29.52 120.755 29.252 120.579 28.908C120.411 28.564 120.327 28.172 120.327 27.732V22.188L121.983 21.408V27.732C121.983 27.932 122.011 28.104 122.067 28.248C122.123 28.384 122.235 28.488 122.403 28.56C122.571 28.632 122.803 28.668 123.099 28.668H124.887V30H122.463ZM118.935 24.684V23.352H123.747V24.684H118.935Z" fill="var(--colors-neutral-neutral-800)"/>
<path d="M154.02 30.144C153.372 30.144 152.808 30.02 152.328 29.772C151.848 29.524 151.476 29.168 151.212 28.704C150.948 28.24 150.816 27.676 150.816 27.012H152.076C152.076 27.668 152.248 28.176 152.592 28.536C152.936 28.888 153.408 29.064 154.008 29.064C154.52 29.064 154.932 28.948 155.244 28.716C155.556 28.476 155.712 28.144 155.712 27.72C155.712 27.432 155.624 27.2 155.448 27.024C155.28 26.848 155.052 26.704 154.764 26.592C154.484 26.48 154.176 26.38 153.84 26.292C153.504 26.204 153.164 26.108 152.82 26.004C152.484 25.892 152.172 25.752 151.884 25.584C151.604 25.416 151.376 25.192 151.2 24.912C151.032 24.632 150.948 24.276 150.948 23.844C150.948 23.388 151.068 22.984 151.308 22.632C151.556 22.272 151.896 21.992 152.328 21.792C152.768 21.584 153.284 21.48 153.876 21.48C154.452 21.48 154.968 21.588 155.424 21.804C155.88 22.012 156.244 22.312 156.516 22.704C156.796 23.088 156.94 23.552 156.948 24.096H155.676C155.668 23.776 155.58 23.504 155.412 23.28C155.252 23.048 155.036 22.872 154.764 22.752C154.5 22.624 154.204 22.56 153.876 22.56C153.404 22.56 153.02 22.672 152.724 22.896C152.428 23.12 152.28 23.424 152.28 23.808C152.28 24.08 152.364 24.296 152.532 24.456C152.708 24.616 152.936 24.748 153.216 24.852C153.504 24.948 153.816 25.04 154.152 25.128C154.496 25.208 154.836 25.304 155.172 25.416C155.508 25.52 155.816 25.664 156.096 25.848C156.384 26.024 156.612 26.264 156.78 26.568C156.956 26.864 157.044 27.244 157.044 27.708C157.044 28.204 156.912 28.636 156.648 29.004C156.384 29.364 156.024 29.644 155.568 29.844C155.112 30.044 154.596 30.144 154.02 30.144ZM160.925 30V23.4H162.137V30H160.925ZM158.489 30V29.016H164.405V30H158.489ZM159.365 24.384V23.4H161.525V24.384H159.365ZM160.841 22.272V20.964H162.197V22.272H160.841ZM171.213 30V25.176C171.213 24.888 171.161 24.664 171.057 24.504C170.961 24.344 170.809 24.264 170.601 24.264C170.313 24.264 170.053 24.448 169.821 24.816C169.597 25.184 169.441 25.764 169.353 26.556L169.245 25.536C169.269 24.816 169.437 24.256 169.749 23.856C170.069 23.456 170.461 23.256 170.925 23.256C171.357 23.256 171.697 23.416 171.945 23.736C172.201 24.048 172.329 24.496 172.329 25.08V30H171.213ZM165.729 30V23.4H166.797L166.845 24.684V30H165.729ZM168.477 30V25.176C168.477 24.872 168.421 24.644 168.309 24.492C168.205 24.34 168.045 24.264 167.829 24.264C167.525 24.264 167.265 24.456 167.049 24.84C166.833 25.224 166.681 25.796 166.593 26.556L166.569 25.5C166.585 25.028 166.669 24.624 166.821 24.288C166.973 23.952 167.169 23.696 167.409 23.52C167.649 23.344 167.905 23.256 168.177 23.256C168.625 23.256 168.969 23.42 169.209 23.748C169.457 24.068 169.581 24.508 169.581 25.068V30H168.477ZM174.758 23.4V27.564C174.758 28.028 174.89 28.404 175.154 28.692C175.418 28.972 175.762 29.112 176.186 29.112C176.674 29.112 177.106 28.936 177.482 28.584C177.866 28.224 178.17 27.668 178.394 26.916L178.586 28.272C178.338 28.896 177.978 29.364 177.506 29.676C177.042 29.988 176.534 30.144 175.982 30.144C175.486 30.144 175.054 30.04 174.686 29.832C174.326 29.616 174.046 29.32 173.846 28.944C173.646 28.568 173.546 28.124 173.546 27.612V23.4H174.758ZM179.462 23.4V30H178.31L178.25 28.512V23.4H179.462ZM183.559 30V21.18H184.771V30H183.559ZM181.123 30V29.016H187.219V30H181.123ZM181.999 22.164V21.18H184.159V22.164H181.999ZM193.451 30L193.403 28.5V25.68C193.403 25.208 193.247 24.84 192.935 24.576C192.631 24.304 192.211 24.168 191.675 24.168C191.155 24.168 190.731 24.288 190.403 24.528C190.075 24.76 189.895 25.084 189.863 25.5H188.675C188.715 25.028 188.867 24.628 189.131 24.3C189.395 23.964 189.747 23.708 190.187 23.532C190.627 23.348 191.135 23.256 191.711 23.256C192.303 23.256 192.815 23.356 193.247 23.556C193.679 23.748 194.011 24.028 194.243 24.396C194.483 24.764 194.603 25.212 194.603 25.74V30H193.451ZM191.063 30.144C190.631 30.144 190.251 30.068 189.923 29.916C189.595 29.756 189.339 29.532 189.155 29.244C188.971 28.948 188.879 28.604 188.879 28.212C188.879 27.532 189.139 27.004 189.659 26.628C190.187 26.252 190.923 26.064 191.867 26.064H193.559V26.964H191.819C191.275 26.964 190.847 27.068 190.535 27.276C190.231 27.484 190.079 27.776 190.079 28.152C190.079 28.464 190.187 28.708 190.403 28.884C190.627 29.06 190.927 29.148 191.303 29.148C191.783 29.148 192.207 29.02 192.575 28.764C192.951 28.5 193.255 28.14 193.487 27.684L193.619 28.572C193.411 29.076 193.091 29.464 192.659 29.736C192.227 30.008 191.695 30.144 191.063 30.144ZM199.828 30C199.42 30 199.072 29.92 198.784 29.76C198.496 29.592 198.28 29.356 198.136 29.052C197.992 28.748 197.92 28.392 197.92 27.984V22.152L199.132 21.492V27.984C199.132 28.176 199.16 28.352 199.216 28.512C199.272 28.672 199.38 28.796 199.54 28.884C199.708 28.972 199.952 29.016 200.272 29.016H202.252V30H199.828ZM196.36 24.384V23.4H201.196V24.384H196.36ZM206.313 30V23.4H207.525V30H206.313ZM203.877 30V29.016H209.793V30H203.877ZM204.753 24.384V23.4H206.913V24.384H204.753ZM206.229 22.272V20.964H207.585V22.272H206.229ZM214.406 30.144C213.726 30.144 213.138 30.004 212.642 29.724C212.154 29.444 211.778 29.048 211.514 28.536C211.25 28.016 211.118 27.404 211.118 26.7C211.118 25.98 211.25 25.368 211.514 24.864C211.778 24.352 212.154 23.956 212.642 23.676C213.138 23.396 213.73 23.256 214.418 23.256C215.442 23.256 216.246 23.564 216.83 24.18C217.414 24.788 217.706 25.628 217.706 26.7C217.706 27.404 217.574 28.016 217.31 28.536C217.046 29.048 216.666 29.444 216.17 29.724C215.682 30.004 215.094 30.144 214.406 30.144ZM214.418 29.136C215.058 29.136 215.562 28.92 215.93 28.488C216.306 28.048 216.494 27.452 216.494 26.7C216.494 25.94 216.306 25.344 215.93 24.912C215.562 24.48 215.058 24.264 214.418 24.264C213.77 24.264 213.262 24.48 212.894 24.912C212.526 25.344 212.342 25.94 212.342 26.7C212.342 27.452 212.526 28.048 212.894 28.488C213.262 28.92 213.77 29.136 214.418 29.136ZM223.758 30V25.836C223.758 25.372 223.626 25 223.362 24.72C223.098 24.432 222.754 24.288 222.33 24.288C221.842 24.288 221.406 24.468 221.022 24.828C220.646 25.18 220.346 25.732 220.122 26.484L219.93 25.128C220.178 24.504 220.534 24.036 220.998 23.724C221.47 23.412 221.982 23.256 222.534 23.256C223.03 23.256 223.458 23.364 223.818 23.58C224.186 23.788 224.47 24.08 224.67 24.456C224.87 24.832 224.97 25.276 224.97 25.788V30H223.758ZM219.054 30V23.4H220.206L220.266 24.888V30H219.054Z" fill="var(--colors-neutral-neutral-700)"/>
<path d="M304 190V189.5H0V190V190.5H304V190Z" fill="var(--colors-neutral-neutral-400)"/>
<path d="M17.968 77.084V75.824H20.056C20.544 75.824 20.936 75.688 21.232 75.416C21.528 75.136 21.676 74.772 21.676 74.324C21.676 73.892 21.536 73.544 21.256 73.28C20.976 73.016 20.604 72.884 20.14 72.884H17.968V71.624H20.14C20.764 71.624 21.308 71.736 21.772 71.96C22.244 72.176 22.608 72.488 22.864 72.896C23.12 73.304 23.248 73.78 23.248 74.324C23.248 74.876 23.116 75.36 22.852 75.776C22.588 76.192 22.216 76.516 21.736 76.748C21.264 76.972 20.708 77.084 20.068 77.084H17.968ZM16.888 80V71.624H18.4V80H16.888ZM29.2887 80L29.2287 78.596V75.62C29.2287 75.204 29.0887 74.876 28.8087 74.636C28.5287 74.396 28.1407 74.276 27.6447 74.276C27.1727 74.276 26.7847 74.384 26.4807 74.6C26.1847 74.816 26.0167 75.112 25.9767 75.488H24.5847C24.6247 75.016 24.7767 74.612 25.0407 74.276C25.3127 73.94 25.6727 73.684 26.1207 73.508C26.5767 73.324 27.1007 73.232 27.6927 73.232C28.3007 73.232 28.8247 73.328 29.2647 73.52C29.7127 73.712 30.0567 73.992 30.2967 74.36C30.5367 74.728 30.6567 75.176 30.6567 75.704V80H29.2887ZM26.9847 80.144C26.5527 80.144 26.1687 80.064 25.8327 79.904C25.5047 79.744 25.2487 79.516 25.0647 79.22C24.8807 78.924 24.7887 78.58 24.7887 78.188C24.7887 77.508 25.0527 76.98 25.5807 76.604C26.1087 76.22 26.8407 76.028 27.7767 76.028H29.3967V77.06L27.7287 77.072C27.2487 77.072 26.8727 77.164 26.6007 77.348C26.3287 77.524 26.1927 77.78 26.1927 78.116C26.1927 78.38 26.2887 78.592 26.4807 78.752C26.6807 78.912 26.9527 78.992 27.2967 78.992C27.7367 78.992 28.1287 78.876 28.4727 78.644C28.8247 78.404 29.1087 78.076 29.3247 77.66L29.4807 78.668C29.2727 79.156 28.9567 79.524 28.5327 79.772C28.1087 80.02 27.5927 80.144 26.9847 80.144ZM37.1894 76.376V75.548C37.1894 75.22 37.0894 74.956 36.8894 74.756C36.6974 74.548 36.4174 74.444 36.0494 74.444C35.6014 74.444 35.1934 74.608 34.8254 74.936C34.4574 75.264 34.1494 75.78 33.9014 76.484L33.7214 75.14C33.9054 74.724 34.1214 74.376 34.3694 74.096C34.6254 73.808 34.9134 73.592 35.2334 73.448C35.5614 73.304 35.9174 73.232 36.3014 73.232C36.9814 73.232 37.5374 73.432 37.9694 73.832C38.4014 74.232 38.6174 74.804 38.6174 75.548V76.376H37.1894ZM32.7254 80V73.376H34.0814L34.1534 74.78V80H32.7254ZM40.1221 80V71.156H41.5621V74.312L41.4781 76.196L42.7501 74.816L44.2981 73.376H46.1701L41.5621 77.696V80H40.1221ZM44.6221 80L42.3781 76.028L43.6621 75.452L46.2901 80H44.6221ZM50.4468 80V73.376H51.8748V80H50.4468ZM48.1068 80V78.836H54.1188V80H48.1068ZM48.9588 74.54V73.376H51.1548V74.54H48.9588ZM50.3628 72.332V70.868H51.9228V72.332H50.3628ZM60.5434 80V75.86C60.5434 75.428 60.4234 75.084 60.1834 74.828C59.9514 74.572 59.6474 74.444 59.2714 74.444C58.8394 74.444 58.4474 74.6 58.0954 74.912C57.7514 75.216 57.4554 75.708 57.2074 76.388L56.9914 74.96C57.2554 74.376 57.6154 73.944 58.0714 73.664C58.5274 73.376 59.0154 73.232 59.5354 73.232C60.0394 73.232 60.4714 73.34 60.8314 73.556C61.1994 73.764 61.4794 74.06 61.6714 74.444C61.8714 74.82 61.9714 75.264 61.9714 75.776V80H60.5434ZM55.9234 80V73.376H57.2914L57.3514 74.768V80H55.9234ZM68.4321 74.24L68.4681 73.376H69.8361V79.22C69.8361 80.22 69.5681 80.98 69.0321 81.5C68.4961 82.02 67.6801 82.28 66.5841 82.28C65.9841 82.28 65.4641 82.2 65.0241 82.04C64.5841 81.888 64.2401 81.652 63.9921 81.332C63.7521 81.02 63.6161 80.624 63.5841 80.144H65.0841C65.1241 80.464 65.2721 80.704 65.5281 80.864C65.7841 81.024 66.1601 81.104 66.6561 81.104C67.2401 81.104 67.6761 80.952 67.9641 80.648C68.2601 80.352 68.4081 79.932 68.4081 79.388V78.668C68.1841 78.98 67.8921 79.224 67.5321 79.4C67.1801 79.576 66.7881 79.664 66.3561 79.664C65.7961 79.664 65.2961 79.524 64.8561 79.244C64.4241 78.964 64.0841 78.584 63.8361 78.104C63.5881 77.616 63.4641 77.068 63.4641 76.46C63.4641 75.796 63.5921 75.224 63.8481 74.744C64.1121 74.256 64.4681 73.884 64.9161 73.628C65.3641 73.372 65.8721 73.244 66.4401 73.244C66.8641 73.244 67.2481 73.336 67.5921 73.52C67.9441 73.704 68.2241 73.944 68.4321 74.24ZM66.6921 78.56C67.0921 78.56 67.4441 78.44 67.7481 78.2C68.0601 77.952 68.2801 77.628 68.4081 77.228V75.668C68.2801 75.26 68.0601 74.94 67.7481 74.708C67.4441 74.468 67.0921 74.348 66.6921 74.348C66.3401 74.348 66.0281 74.44 65.7561 74.624C65.4841 74.808 65.2721 75.056 65.1201 75.368C64.9681 75.68 64.8921 76.036 64.8921 76.436C64.8921 76.844 64.9681 77.208 65.1201 77.528C65.2721 77.84 65.4841 78.092 65.7561 78.284C66.0281 78.468 66.3401 78.56 66.6921 78.56ZM82.0735 80V75.104L82.1575 73.376L80.7775 74.492L79.3015 75.668V73.928L82.4815 71.624H83.5855V80H82.0735ZM79.3015 80V78.74H85.4695V80H79.3015Z" fill="var(--colors-neutral-neutral-800)"/>
<path fill-rule="evenodd" clip-rule="evenodd" d="M242.175 68.175C242.394 67.9562 242.691 67.8333 243 67.8333H255C255.31 67.8333 255.606 67.9562 255.825 68.175C256.044 68.3938 256.167 68.6905 256.167 68.9999V80.9999C256.167 81.3093 256.044 81.6061 255.825 81.8249C255.606 82.0437 255.31 82.1666 255 82.1666H253.5V82.9999C253.5 83.3093 253.377 83.6061 253.158 83.8249C252.94 84.0437 252.643 84.1666 252.333 84.1666H241C240.691 84.1666 240.394 84.0437 240.175 83.8249C239.956 83.6061 239.833 83.3093 239.833 82.9999V71.6666C239.833 71.3572 239.956 71.0604 240.175 70.8416C240.394 70.6228 240.691 70.4999 241 70.4999H241.833V68.9999C241.833 68.6905 241.956 68.3938 242.175 68.175ZM241.833 71.4999H241C240.956 71.4999 240.914 71.5175 240.882 71.5487C240.851 71.58 240.833 71.6224 240.833 71.6666V82.9999C240.833 83.0441 240.851 83.0865 240.882 83.1178C240.914 83.149 240.956 83.1666 241 83.1666H252.333C252.378 83.1666 252.42 83.149 252.451 83.1178C252.483 83.0865 252.5 83.0441 252.5 82.9999V82.1666H243C242.691 82.1666 242.394 82.0437 242.175 81.8249C241.956 81.6061 241.833 81.3093 241.833 80.9999V71.4999ZM243 81.1666C242.956 81.1666 242.914 81.149 242.882 81.1178C242.851 81.0865 242.833 81.0441 242.833 80.9999V68.9999C242.833 68.9557 242.851 68.9133 242.882 68.8821C242.914 68.8508 242.956 68.8333 243 68.8333H255C255.044 68.8333 255.087 68.8508 255.118 68.8821C255.149 68.9133 255.167 68.9557 255.167 68.9999V80.9999C255.167 81.0441 255.149 81.0865 255.118 81.1178C255.087 81.149 255.044 81.1666 255 81.1666H243Z" fill="var(--colors-neutral-neutral-800)"/>
<path fill-rule="evenodd" clip-rule="evenodd" d="M249 72C249.276 72 249.5 72.0001 249.5 72.0001V74.5L252 74.5C252 74.5 252 74.7239 252 75C252 75.2761 252 75.5 252 75.5H249.5L249.5 78C249.5 78 249.276 78 249 78C248.724 78 248.5 78 248.5 78L248.5 75.5H246C246 75.5 246 75.2761 246 75C246 74.7239 246 74.5 246 74.5L248.5 74.5V72.0001C248.5 72.0001 248.724 72 249 72Z" fill="var(--colors-neutral-neutral-800)"/>
<path fill-rule="evenodd" clip-rule="evenodd" d="M274.175 68.1751C274.394 67.9563 274.691 67.8334 275 67.8334H287C287.31 67.8334 287.606 67.9563 287.825 68.1751C288.044 68.3939 288.167 68.6906 288.167 69V81C288.167 81.3095 288.044 81.6062 287.825 81.825C287.606 82.0438 287.31 82.1667 287 82.1667H285.5V83C285.5 83.3095 285.377 83.6062 285.158 83.825C284.94 84.0438 284.643 84.1667 284.333 84.1667H273C272.691 84.1667 272.394 84.0438 272.175 83.825C271.956 83.6062 271.833 83.3095 271.833 83V71.6667C271.833 71.3573 271.956 71.0605 272.175 70.8417C272.394 70.623 272.691 70.5 273 70.5H273.833V69C273.833 68.6906 273.956 68.3939 274.175 68.1751ZM273.833 71.5H273C272.956 71.5 272.914 71.5176 272.882 71.5489C272.851 71.5801 272.833 71.6225 272.833 71.6667V83C272.833 83.0442 272.851 83.0866 272.882 83.1179C272.914 83.1491 272.956 83.1667 273 83.1667H284.333C284.378 83.1667 284.42 83.1491 284.451 83.1179C284.483 83.0866 284.5 83.0442 284.5 83V82.1667H275C274.691 82.1667 274.394 82.0438 274.175 81.825C273.956 81.6062 273.833 81.3095 273.833 81V71.5ZM275 81.1667C274.956 81.1667 274.914 81.1491 274.882 81.1179C274.851 81.0866 274.833 81.0442 274.833 81V69C274.833 68.9558 274.851 68.9134 274.882 68.8822C274.914 68.8509 274.956 68.8334 275 68.8334H287C287.044 68.8334 287.087 68.8509 287.118 68.8822C287.149 68.9134 287.167 68.9558 287.167 69V81C287.167 81.0442 287.149 81.0866 287.118 81.1179C287.087 81.1491 287.044 81.1667 287 81.1667H275Z" fill="var(--colors-neutral-neutral-800)"/>
<rect width="272" height="74" transform="translate(16 100)" fill="var(--colors-neutral-neutral-200)"/>
<path d="M36.044 129.144C35.308 129.144 34.668 128.96 34.124 128.592C33.588 128.216 33.172 127.704 32.876 127.056C32.588 126.4 32.444 125.648 32.444 124.8C32.444 123.92 32.596 123.156 32.9 122.508C33.204 121.86 33.628 121.36 34.172 121.008C34.724 120.656 35.364 120.48 36.092 120.48C36.676 120.48 37.204 120.596 37.676 120.828C38.156 121.052 38.544 121.38 38.84 121.812C39.144 122.236 39.32 122.744 39.368 123.336H37.976C37.912 122.8 37.712 122.372 37.376 122.052C37.04 121.724 36.608 121.56 36.08 121.56C35.624 121.56 35.22 121.692 34.868 121.956C34.524 122.212 34.256 122.584 34.064 123.072C33.872 123.56 33.776 124.14 33.776 124.812C33.776 125.484 33.872 126.064 34.064 126.552C34.264 127.04 34.536 127.416 34.88 127.68C35.224 127.936 35.612 128.064 36.044 128.064C36.42 128.064 36.748 127.988 37.028 127.836C37.308 127.676 37.532 127.456 37.7 127.176C37.876 126.896 37.98 126.568 38.012 126.192H39.416C39.36 126.784 39.188 127.304 38.9 127.752C38.612 128.192 38.224 128.536 37.736 128.784C37.256 129.024 36.692 129.144 36.044 129.144ZM40.3927 129V120.624H42.9727C43.5807 120.624 44.1287 120.724 44.6167 120.924C45.1047 121.116 45.5207 121.396 45.8647 121.764C46.2087 122.124 46.4727 122.56 46.6567 123.072C46.8407 123.584 46.9327 124.156 46.9327 124.788C46.9327 125.428 46.8407 126.008 46.6567 126.528C46.4727 127.04 46.2087 127.484 45.8647 127.86C45.5207 128.228 45.1047 128.512 44.6167 128.712C44.1287 128.904 43.5807 129 42.9727 129H40.3927ZM41.6647 127.92H42.9727C43.5167 127.92 43.9847 127.792 44.3767 127.536C44.7687 127.272 45.0687 126.904 45.2767 126.432C45.4927 125.96 45.6007 125.412 45.6007 124.788C45.6007 124.156 45.4927 123.612 45.2767 123.156C45.0687 122.692 44.7687 122.336 44.3767 122.088C43.9847 121.832 43.5167 121.704 42.9727 121.704H41.6647V127.92ZM50.3934 129V120.624H51.6654V129H50.3934ZM48.2934 120.624H53.7534V121.704H48.2934V120.624ZM48.2934 127.92H53.7534V129H48.2934V127.92Z" fill="var(--colors-neutral-neutral-800)"/>
<path d="M35.57 149.42C35.99 149.42 36.37 149.51 36.71 149.69C37.0567 149.87 37.3333 150.13 37.54 150.47C37.7467 150.81 37.85 151.217 37.85 151.69C37.85 152.163 37.7433 152.583 37.53 152.95C37.3233 153.317 37.03 153.603 36.65 153.81C36.27 154.017 35.83 154.12 35.33 154.12C34.79 154.12 34.3233 153.987 33.93 153.72C33.5367 153.447 33.23 153.06 33.01 152.56C32.7967 152.06 32.69 151.463 32.69 150.77C32.69 150.023 32.8067 149.36 33.04 148.78C33.2733 148.193 33.6033 147.733 34.03 147.4C34.4633 147.067 34.9733 146.9 35.56 146.9C35.9133 146.9 36.22 146.957 36.48 147.07C36.74 147.177 36.9567 147.32 37.13 147.5C37.31 147.68 37.45 147.877 37.55 148.09C37.65 148.303 37.71 148.517 37.73 148.73H36.64C36.5933 148.437 36.47 148.21 36.27 148.05C36.0767 147.883 35.8267 147.8 35.52 147.8C35.1867 147.8 34.8967 147.907 34.65 148.12C34.41 148.327 34.22 148.62 34.08 149C33.94 149.373 33.8533 149.81 33.82 150.31C34.02 150.023 34.2667 149.803 34.56 149.65C34.8533 149.497 35.19 149.42 35.57 149.42ZM35.34 153.22C35.62 153.22 35.8633 153.157 36.07 153.03C36.2833 152.903 36.45 152.727 36.57 152.5C36.69 152.273 36.75 152.017 36.75 151.73C36.75 151.443 36.69 151.193 36.57 150.98C36.4567 150.767 36.2967 150.603 36.09 150.49C35.8833 150.37 35.6433 150.31 35.37 150.31C35.0033 150.31 34.69 150.403 34.43 150.59C34.17 150.777 33.97 151.027 33.83 151.34C33.89 151.913 34.05 152.37 34.31 152.71C34.5767 153.05 34.92 153.22 35.34 153.22ZM47.2078 154.12C46.7211 154.12 46.2911 154.037 45.9178 153.87C45.5511 153.697 45.2678 153.457 45.0678 153.15C44.8678 152.837 44.7645 152.463 44.7578 152.03H45.7078C45.7078 152.437 45.8445 152.757 46.1178 152.99C46.3911 153.223 46.7511 153.34 47.1978 153.34C47.5778 153.34 47.8811 153.27 48.1078 153.13C48.3411 152.983 48.4578 152.787 48.4578 152.54C48.4578 152.347 48.3911 152.193 48.2578 152.08C48.1311 151.96 47.9611 151.867 47.7478 151.8C47.5345 151.733 47.2978 151.677 47.0378 151.63C46.7845 151.577 46.5278 151.517 46.2678 151.45C46.0145 151.377 45.7811 151.287 45.5678 151.18C45.3545 151.067 45.1811 150.917 45.0478 150.73C44.9145 150.543 44.8478 150.3 44.8478 150C44.8478 149.687 44.9378 149.41 45.1178 149.17C45.2978 148.923 45.5511 148.73 45.8778 148.59C46.2111 148.45 46.6045 148.38 47.0578 148.38C47.7445 148.38 48.2945 148.54 48.7078 148.86C49.1278 149.173 49.3545 149.607 49.3878 150.16H48.4378C48.4178 149.84 48.2845 149.593 48.0378 149.42C47.7978 149.24 47.4711 149.15 47.0578 149.15C46.6711 149.15 46.3745 149.227 46.1678 149.38C45.9678 149.533 45.8678 149.727 45.8678 149.96C45.8678 150.14 45.9345 150.283 46.0678 150.39C46.2011 150.49 46.3745 150.57 46.5878 150.63C46.8011 150.683 47.0345 150.733 47.2878 150.78C47.5478 150.82 47.8045 150.873 48.0578 150.94C48.3178 151.007 48.5545 151.1 48.7678 151.22C48.9811 151.333 49.1511 151.49 49.2778 151.69C49.4111 151.89 49.4778 152.15 49.4778 152.47C49.4778 152.983 49.2711 153.387 48.8578 153.68C48.4445 153.973 47.8945 154.12 47.2078 154.12ZM53.4117 154C53.0717 154 52.7817 153.933 52.5417 153.8C52.3017 153.66 52.1217 153.463 52.0017 153.21C51.8817 152.957 51.8217 152.66 51.8217 152.32V147.46L52.8317 146.91V152.32C52.8317 152.48 52.8551 152.627 52.9017 152.76C52.9484 152.893 53.0384 152.997 53.1717 153.07C53.3117 153.143 53.5151 153.18 53.7817 153.18H55.4317V154H53.4117ZM50.5217 149.32V148.5H54.5517V149.32H50.5217ZM60.3056 154L60.2656 152.75V150.4C60.2656 150.007 60.1356 149.7 59.8756 149.48C59.6223 149.253 59.2723 149.14 58.8256 149.14C58.3923 149.14 58.039 149.24 57.7656 149.44C57.4923 149.633 57.3423 149.903 57.3156 150.25H56.3256C56.359 149.857 56.4856 149.523 56.7056 149.25C56.9256 148.97 57.219 148.757 57.5856 148.61C57.9523 148.457 58.3756 148.38 58.8556 148.38C59.349 148.38 59.7756 148.463 60.1356 148.63C60.4956 148.79 60.7723 149.023 60.9656 149.33C61.1656 149.637 61.2656 150.01 61.2656 150.45V154H60.3056ZM58.3156 154.12C57.9556 154.12 57.639 154.057 57.3656 153.93C57.0923 153.797 56.879 153.61 56.7256 153.37C56.5723 153.123 56.4956 152.837 56.4956 152.51C56.4956 151.943 56.7123 151.503 57.1456 151.19C57.5856 150.877 58.199 150.72 58.9856 150.72H60.3956V151.47H58.9456C58.4923 151.47 58.1356 151.557 57.8756 151.73C57.6223 151.903 57.4956 152.147 57.4956 152.46C57.4956 152.72 57.5856 152.923 57.7656 153.07C57.9523 153.217 58.2023 153.29 58.5156 153.29C58.9156 153.29 59.269 153.183 59.5756 152.97C59.889 152.75 60.1423 152.45 60.3356 152.07L60.4456 152.81C60.2723 153.23 60.0056 153.553 59.6456 153.78C59.2856 154.007 58.8423 154.12 58.3156 154.12ZM65.2195 154C64.8795 154 64.5895 153.933 64.3495 153.8C64.1095 153.66 63.9295 153.463 63.8095 153.21C63.6895 152.957 63.6295 152.66 63.6295 152.32V147.46L64.6395 146.91V152.32C64.6395 152.48 64.6629 152.627 64.7095 152.76C64.7562 152.893 64.8462 152.997 64.9795 153.07C65.1195 153.143 65.3229 153.18 65.5895 153.18H67.2395V154H65.2195ZM62.3295 149.32V148.5H66.3595V149.32H62.3295ZM70.2234 154V148.5H71.2334V154H70.2234ZM68.1934 154V153.18H73.1234V154H68.1934ZM68.9234 149.32V148.5H70.7234V149.32H68.9234ZM70.1534 147.56V146.47H71.2834V147.56H70.1534ZM76.5673 154.12C76.0007 154.12 75.5107 154.003 75.0973 153.77C74.6907 153.537 74.3773 153.207 74.1573 152.78C73.9373 152.347 73.8273 151.837 73.8273 151.25C73.8273 150.65 73.9373 150.14 74.1573 149.72C74.3773 149.293 74.6907 148.963 75.0973 148.73C75.5107 148.497 76.004 148.38 76.5773 148.38C77.4307 148.38 78.1007 148.637 78.5873 149.15C79.074 149.657 79.3173 150.357 79.3173 151.25C79.3173 151.837 79.2073 152.347 78.9873 152.78C78.7673 153.207 78.4507 153.537 78.0373 153.77C77.6307 154.003 77.1407 154.12 76.5673 154.12ZM76.5773 153.28C77.1107 153.28 77.5307 153.1 77.8373 152.74C78.1507 152.373 78.3073 151.877 78.3073 151.25C78.3073 150.617 78.1507 150.12 77.8373 149.76C77.5307 149.4 77.1107 149.22 76.5773 149.22C76.0373 149.22 75.614 149.4 75.3073 149.76C75.0007 150.12 74.8473 150.617 74.8473 151.25C74.8473 151.877 75.0007 152.373 75.3073 152.74C75.614 153.1 76.0373 153.28 76.5773 153.28ZM83.9613 154V150.53C83.9613 150.143 83.8513 149.833 83.6313 149.6C83.4113 149.36 83.1246 149.24 82.7713 149.24C82.3646 149.24 82.0013 149.39 81.6813 149.69C81.3679 149.983 81.1179 150.443 80.9313 151.07L80.7713 149.94C80.9779 149.42 81.2746 149.03 81.6613 148.77C82.0546 148.51 82.4813 148.38 82.9413 148.38C83.3546 148.38 83.7113 148.47 84.0113 148.65C84.3179 148.823 84.5546 149.067 84.7213 149.38C84.8879 149.693 84.9713 150.063 84.9713 150.49V154H83.9613ZM80.0413 154V148.5H81.0013L81.0513 149.74V154H80.0413ZM88.5352 154.12C88.0485 154.12 87.6185 154.037 87.2452 153.87C86.8785 153.697 86.5952 153.457 86.3952 153.15C86.1952 152.837 86.0918 152.463 86.0852 152.03H87.0352C87.0352 152.437 87.1718 152.757 87.4452 152.99C87.7185 153.223 88.0785 153.34 88.5252 153.34C88.9052 153.34 89.2085 153.27 89.4352 153.13C89.6685 152.983 89.7852 152.787 89.7852 152.54C89.7852 152.347 89.7185 152.193 89.5852 152.08C89.4585 151.96 89.2885 151.867 89.0752 151.8C88.8618 151.733 88.6252 151.677 88.3652 151.63C88.1118 151.577 87.8552 151.517 87.5952 151.45C87.3418 151.377 87.1085 151.287 86.8952 151.18C86.6818 151.067 86.5085 150.917 86.3752 150.73C86.2418 150.543 86.1752 150.3 86.1752 150C86.1752 149.687 86.2652 149.41 86.4452 149.17C86.6252 148.923 86.8785 148.73 87.2052 148.59C87.5385 148.45 87.9318 148.38 88.3852 148.38C89.0718 148.38 89.6218 148.54 90.0352 148.86C90.4552 149.173 90.6818 149.607 90.7152 150.16H89.7652C89.7452 149.84 89.6118 149.593 89.3652 149.42C89.1252 149.24 88.7985 149.15 88.3852 149.15C87.9985 149.15 87.7018 149.227 87.4952 149.38C87.2952 149.533 87.1952 149.727 87.1952 149.96C87.1952 150.14 87.2618 150.283 87.3952 150.39C87.5285 150.49 87.7018 150.57 87.9152 150.63C88.1285 150.683 88.3618 150.733 88.6152 150.78C88.8752 150.82 89.1318 150.873 89.3852 150.94C89.6452 151.007 89.8818 151.1 90.0952 151.22C90.3085 151.333 90.4785 151.49 90.6052 151.69C90.7385 151.89 90.8052 152.15 90.8052 152.47C90.8052 152.983 90.5985 153.387 90.1852 153.68C89.7718 153.973 89.2218 154.12 88.5352 154.12Z" fill="var(--colors-neutral-neutral-600)"/>
<path d="M304 285.5H0V286.5H304V285.5Z" fill="var(--colors-neutral-neutral-400)"/>
<path d="M17.968 215.084V213.824H20.056C20.544 213.824 20.936 213.688 21.232 213.416C21.528 213.136 21.676 212.772 21.676 212.324C21.676 211.892 21.536 211.544 21.256 211.28C20.976 211.016 20.604 210.884 20.14 210.884H17.968V209.624H20.14C20.764 209.624 21.308 209.736 21.772 209.96C22.244 210.176 22.608 210.488 22.864 210.896C23.12 211.304 23.248 211.78 23.248 212.324C23.248 212.876 23.116 213.36 22.852 213.776C22.588 214.192 22.216 214.516 21.736 214.748C21.264 214.972 20.708 215.084 20.068 215.084H17.968ZM16.888 218V209.624H18.4V218H16.888ZM29.2887 218L29.2287 216.596V213.62C29.2287 213.204 29.0887 212.876 28.8087 212.636C28.5287 212.396 28.1407 212.276 27.6447 212.276C27.1727 212.276 26.7847 212.384 26.4807 212.6C26.1847 212.816 26.0167 213.112 25.9767 213.488H24.5847C24.6247 213.016 24.7767 212.612 25.0407 212.276C25.3127 211.94 25.6727 211.684 26.1207 211.508C26.5767 211.324 27.1007 211.232 27.6927 211.232C28.3007 211.232 28.8247 211.328 29.2647 211.52C29.7127 211.712 30.0567 211.992 30.2967 212.36C30.5367 212.728 30.6567 213.176 30.6567 213.704V218H29.2887ZM26.9847 218.144C26.5527 218.144 26.1687 218.064 25.8327 217.904C25.5047 217.744 25.2487 217.516 25.0647 217.22C24.8807 216.924 24.7887 216.58 24.7887 216.188C24.7887 215.508 25.0527 214.98 25.5807 214.604C26.1087 214.22 26.8407 214.028 27.7767 214.028H29.3967V215.06L27.7287 215.072C27.2487 215.072 26.8727 215.164 26.6007 215.348C26.3287 215.524 26.1927 215.78 26.1927 216.116C26.1927 216.38 26.2887 216.592 26.4807 216.752C26.6807 216.912 26.9527 216.992 27.2967 216.992C27.7367 216.992 28.1287 216.876 28.4727 216.644C28.8247 216.404 29.1087 216.076 29.3247 215.66L29.4807 216.668C29.2727 217.156 28.9567 217.524 28.5327 217.772C28.1087 218.02 27.5927 218.144 26.9847 218.144ZM37.1894 214.376V213.548C37.1894 213.22 37.0894 212.956 36.8894 212.756C36.6974 212.548 36.4174 212.444 36.0494 212.444C35.6014 212.444 35.1934 212.608 34.8254 212.936C34.4574 213.264 34.1494 213.78 33.9014 214.484L33.7214 213.14C33.9054 212.724 34.1214 212.376 34.3694 212.096C34.6254 211.808 34.9134 211.592 35.2334 211.448C35.5614 211.304 35.9174 211.232 36.3014 211.232C36.9814 211.232 37.5374 211.432 37.9694 211.832C38.4014 212.232 38.6174 212.804 38.6174 213.548V214.376H37.1894ZM32.7254 218V211.376H34.0814L34.1534 212.78V218H32.7254ZM40.1221 218V209.156H41.5621V212.312L41.4781 214.196L42.7501 212.816L44.2981 211.376H46.1701L41.5621 215.696V218H40.1221ZM44.6221 218L42.3781 214.028L43.6621 213.452L46.2901 218H44.6221ZM50.4468 218V211.376H51.8748V218H50.4468ZM48.1068 218V216.836H54.1188V218H48.1068ZM48.9588 212.54V211.376H51.1548V212.54H48.9588ZM50.3628 210.332V208.868H51.9228V210.332H50.3628ZM60.5434 218V213.86C60.5434 213.428 60.4234 213.084 60.1834 212.828C59.9514 212.572 59.6474 212.444 59.2714 212.444C58.8394 212.444 58.4474 212.6 58.0954 212.912C57.7514 213.216 57.4554 213.708 57.2074 214.388L56.9914 212.96C57.2554 212.376 57.6154 211.944 58.0714 211.664C58.5274 211.376 59.0154 211.232 59.5354 211.232C60.0394 211.232 60.4714 211.34 60.8314 211.556C61.1994 211.764 61.4794 212.06 61.6714 212.444C61.8714 212.82 61.9714 213.264 61.9714 213.776V218H60.5434ZM55.9234 218V211.376H57.2914L57.3514 212.768V218H55.9234ZM68.4321 212.24L68.4681 211.376H69.8361V217.22C69.8361 218.22 69.5681 218.98 69.0321 219.5C68.4961 220.02 67.6801 220.28 66.5841 220.28C65.9841 220.28 65.4641 220.2 65.0241 220.04C64.5841 219.888 64.2401 219.652 63.9921 219.332C63.7521 219.02 63.6161 218.624 63.5841 218.144H65.0841C65.1241 218.464 65.2721 218.704 65.5281 218.864C65.7841 219.024 66.1601 219.104 66.6561 219.104C67.2401 219.104 67.6761 218.952 67.9641 218.648C68.2601 218.352 68.4081 217.932 68.4081 217.388V216.668C68.1841 216.98 67.8921 217.224 67.5321 217.4C67.1801 217.576 66.7881 217.664 66.3561 217.664C65.7961 217.664 65.2961 217.524 64.8561 217.244C64.4241 216.964 64.0841 216.584 63.8361 216.104C63.5881 215.616 63.4641 215.068 63.4641 214.46C63.4641 213.796 63.5921 213.224 63.8481 212.744C64.1121 212.256 64.4681 211.884 64.9161 211.628C65.3641 211.372 65.8721 211.244 66.4401 211.244C66.8641 211.244 67.2481 211.336 67.5921 211.52C67.9441 211.704 68.2241 211.944 68.4321 212.24ZM66.6921 216.56C67.0921 216.56 67.4441 216.44 67.7481 216.2C68.0601 215.952 68.2801 215.628 68.4081 215.228V213.668C68.2801 213.26 68.0601 212.94 67.7481 212.708C67.4441 212.468 67.0921 212.348 66.6921 212.348C66.3401 212.348 66.0281 212.44 65.7561 212.624C65.4841 212.808 65.2721 213.056 65.1201 213.368C64.9681 213.68 64.8921 214.036 64.8921 214.436C64.8921 214.844 64.9681 215.208 65.1201 215.528C65.2721 215.84 65.4841 216.092 65.7561 216.284C66.0281 216.468 66.3401 216.56 66.6921 216.56ZM83.9215 218L83.8615 216.596V213.62C83.8615 213.204 83.7215 212.876 83.4415 212.636C83.1615 212.396 82.7735 212.276 82.2775 212.276C81.8055 212.276 81.4175 212.384 81.1135 212.6C80.8175 212.816 80.6495 213.112 80.6095 213.488H79.2175C79.2575 213.016 79.4095 212.612 79.6735 212.276C79.9455 211.94 80.3055 211.684 80.7535 211.508C81.2095 211.324 81.7335 211.232 82.3255 211.232C82.9335 211.232 83.4575 211.328 83.8975 211.52C84.3455 211.712 84.6895 211.992 84.9295 212.36C85.1695 212.728 85.2895 213.176 85.2895 213.704V218H83.9215ZM81.6175 218.144C81.1855 218.144 80.8015 218.064 80.4655 217.904C80.1375 217.744 79.8815 217.516 79.6975 217.22C79.5135 216.924 79.4215 216.58 79.4215 216.188C79.4215 215.508 79.6855 214.98 80.2135 214.604C80.7415 214.22 81.4735 214.028 82.4095 214.028H84.0295V215.06L82.3615 215.072C81.8815 215.072 81.5055 215.164 81.2335 215.348C80.9615 215.524 80.8255 215.78 80.8255 216.116C80.8255 216.38 80.9215 216.592 81.1135 216.752C81.3135 216.912 81.5855 216.992 81.9295 216.992C82.3695 216.992 82.7615 216.876 83.1055 216.644C83.4575 216.404 83.7415 216.076 83.9575 215.66L84.1135 216.668C83.9055 217.156 83.5895 217.524 83.1655 217.772C82.7415 218.02 82.2255 218.144 81.6175 218.144ZM91.8222 214.376V213.548C91.8222 213.22 91.7222 212.956 91.5222 212.756C91.3302 212.548 91.0502 212.444 90.6822 212.444C90.2342 212.444 89.8262 212.608 89.4582 212.936C89.0902 213.264 88.7822 213.78 88.5342 214.484L88.3542 213.14C88.5382 212.724 88.7542 212.376 89.0022 212.096C89.2582 211.808 89.5462 211.592 89.8662 211.448C90.1942 211.304 90.5502 211.232 90.9342 211.232C91.6142 211.232 92.1702 211.432 92.6022 211.832C93.0342 212.232 93.2502 212.804 93.2502 213.548V214.376H91.8222ZM87.3582 218V211.376H88.7142L88.7862 212.78V218H87.3582ZM98.0189 218.144C97.3229 218.144 96.7229 218.008 96.2189 217.736C95.7149 217.456 95.3269 217.056 95.0549 216.536C94.7909 216.016 94.6589 215.396 94.6589 214.676C94.6589 213.956 94.7949 213.34 95.0669 212.828C95.3389 212.308 95.7309 211.912 96.2429 211.64C96.7549 211.368 97.3669 211.232 98.0789 211.232C99.1829 211.232 99.9949 211.54 100.515 212.156C101.043 212.772 101.271 213.616 101.199 214.688H95.7989L95.8109 213.644L99.7349 213.656C99.7029 213.272 99.5349 212.964 99.2309 212.732C98.9269 212.5 98.5429 212.384 98.0789 212.384C97.4229 212.384 96.9269 212.588 96.5909 212.996C96.2549 213.404 96.0869 213.984 96.0869 214.736C96.0869 215.168 96.1629 215.556 96.3149 215.9C96.4669 216.236 96.6829 216.5 96.9629 216.692C97.2509 216.876 97.6029 216.968 98.0189 216.968C98.4909 216.968 98.8829 216.856 99.1949 216.632C99.5149 216.408 99.7109 216.108 99.7829 215.732H101.223C101.127 216.476 100.791 217.064 100.215 217.496C99.6469 217.928 98.9149 218.144 98.0189 218.144ZM107.336 218L107.276 216.596V213.62C107.276 213.204 107.136 212.876 106.856 212.636C106.576 212.396 106.188 212.276 105.692 212.276C105.22 212.276 104.832 212.384 104.528 212.6C104.232 212.816 104.064 213.112 104.024 213.488H102.632C102.672 213.016 102.824 212.612 103.088 212.276C103.36 211.94 103.72 211.684 104.168 211.508C104.624 211.324 105.148 211.232 105.74 211.232C106.348 211.232 106.872 211.328 107.312 211.52C107.76 211.712 108.104 211.992 108.344 212.36C108.584 212.728 108.704 213.176 108.704 213.704V218H107.336ZM105.032 218.144C104.6 218.144 104.216 218.064 103.88 217.904C103.552 217.744 103.296 217.516 103.112 217.22C102.928 216.924 102.836 216.58 102.836 216.188C102.836 215.508 103.1 214.98 103.628 214.604C104.156 214.22 104.888 214.028 105.824 214.028H107.444V215.06L105.776 215.072C105.296 215.072 104.92 215.164 104.648 215.348C104.376 215.524 104.24 215.78 104.24 216.116C104.24 216.38 104.336 216.592 104.528 216.752C104.728 216.912 105 216.992 105.344 216.992C105.784 216.992 106.176 216.876 106.52 216.644C106.872 216.404 107.156 216.076 107.372 215.66L107.528 216.668C107.32 217.156 107.004 217.524 106.58 217.772C106.156 218.02 105.64 218.144 105.032 218.144Z" fill="var(--colors-neutral-neutral-800)"/>
<path d="M275.4 216.702L274.692 215.994L280 210.687L285.308 215.994L284.6 216.702L280 212.102L275.4 216.702Z" fill="var(--colors-neutral-neutral-800)"/>
<path d="M17.179 250.227L19.3381 256.349H19.4233L21.5824 250.227H22.5057L19.8352 257.5H18.9261L16.2557 250.227H17.179ZM25.304 257.614C24.7784 257.614 24.325 257.498 23.9439 257.266C23.5651 257.031 23.2727 256.705 23.0668 256.286C22.8632 255.864 22.7614 255.374 22.7614 254.815C22.7614 254.257 22.8632 253.764 23.0668 253.338C23.2727 252.91 23.5592 252.576 23.9261 252.337C24.2955 252.095 24.7263 251.974 25.2188 251.974C25.5028 251.974 25.7834 252.022 26.0604 252.116C26.3374 252.211 26.5895 252.365 26.8168 252.578C27.044 252.789 27.2251 253.068 27.3601 253.416C27.495 253.764 27.5625 254.193 27.5625 254.702V255.057H23.358V254.332H26.7102C26.7102 254.025 26.6487 253.75 26.5256 253.509C26.4048 253.267 26.232 253.076 26.0071 252.937C25.7846 252.797 25.5218 252.727 25.2188 252.727C24.8849 252.727 24.5961 252.81 24.3523 252.976C24.1108 253.139 23.925 253.352 23.7947 253.615C23.6645 253.878 23.5994 254.16 23.5994 254.46V254.943C23.5994 255.355 23.6705 255.704 23.8125 255.991C23.9569 256.275 24.157 256.491 24.4126 256.641C24.6683 256.787 24.9654 256.861 25.304 256.861C25.5241 256.861 25.723 256.83 25.9006 256.768C26.0805 256.705 26.2356 256.61 26.3658 256.484C26.496 256.357 26.5966 256.198 26.6676 256.009L27.4773 256.236C27.392 256.51 27.2488 256.752 27.0476 256.96C26.8464 257.166 26.5978 257.327 26.3018 257.443C26.0059 257.557 25.6733 257.614 25.304 257.614ZM29.6754 254.219V257.5H28.8374V250.227H29.6754V252.898H29.7464C29.8743 252.616 30.0661 252.392 30.3217 252.227C30.5798 252.058 30.9231 251.974 31.3516 251.974C31.7232 251.974 32.0488 252.049 32.3281 252.198C32.6075 252.345 32.8241 252.571 32.978 252.876C33.1342 253.179 33.2124 253.565 33.2124 254.034V257.5H32.3743V254.091C32.3743 253.658 32.2618 253.323 32.0369 253.086C31.8144 252.847 31.5054 252.727 31.1101 252.727C30.8355 252.727 30.5893 252.785 30.3714 252.901C30.156 253.017 29.9856 253.187 29.8601 253.409C29.737 253.632 29.6754 253.902 29.6754 254.219ZM34.7456 257.5V252.045H35.5836V257.5H34.7456ZM35.1717 251.136C35.0083 251.136 34.8675 251.081 34.7491 250.969C34.6331 250.858 34.5751 250.724 34.5751 250.568C34.5751 250.412 34.6331 250.278 34.7491 250.167C34.8675 250.056 35.0083 250 35.1717 250C35.335 250 35.4747 250.056 35.5907 250.167C35.7091 250.278 35.7683 250.412 35.7683 250.568C35.7683 250.724 35.7091 250.858 35.5907 250.969C35.4747 251.081 35.335 251.136 35.1717 251.136ZM39.3345 257.614C38.8232 257.614 38.3828 257.493 38.0135 257.251C37.6442 257.01 37.3601 256.677 37.1612 256.254C36.9624 255.83 36.8629 255.346 36.8629 254.801C36.8629 254.247 36.9647 253.758 37.1683 253.335C37.3743 252.908 37.6607 252.576 38.0277 252.337C38.397 252.095 38.8279 251.974 39.3203 251.974C39.7038 251.974 40.0495 252.045 40.3572 252.188C40.665 252.33 40.9171 252.528 41.1136 252.784C41.3101 253.04 41.4321 253.338 41.4794 253.679H40.6413C40.5774 253.43 40.4354 253.21 40.2152 253.018C39.9974 252.824 39.7038 252.727 39.3345 252.727C39.0078 252.727 38.7214 252.812 38.4751 252.983C38.2313 253.151 38.0407 253.389 37.9034 253.697C37.7685 254.002 37.701 254.361 37.701 254.773C37.701 255.194 37.7673 255.561 37.8999 255.874C38.0348 256.186 38.2242 256.429 38.468 256.602C38.7143 256.774 39.0031 256.861 39.3345 256.861C39.5523 256.861 39.75 256.823 39.9276 256.747C40.1051 256.671 40.2554 256.562 40.3786 256.42C40.5017 256.278 40.5893 256.108 40.6413 255.909H41.4794C41.4321 256.231 41.3149 256.521 41.1278 256.779C40.9432 257.035 40.6982 257.238 40.3928 257.39C40.0897 257.539 39.737 257.614 39.3345 257.614ZM43.5426 250.227V257.5H42.7045V250.227H43.5426ZM47.3645 257.614C46.839 257.614 46.3856 257.498 46.0044 257.266C45.6257 257.031 45.3333 256.705 45.1273 256.286C44.9237 255.864 44.8219 255.374 44.8219 254.815C44.8219 254.257 44.9237 253.764 45.1273 253.338C45.3333 252.91 45.6197 252.576 45.9867 252.337C46.356 252.095 46.7869 251.974 47.2793 251.974C47.5634 251.974 47.8439 252.022 48.1209 252.116C48.3979 252.211 48.65 252.365 48.8773 252.578C49.1046 252.789 49.2857 253.068 49.4206 253.416C49.5556 253.764 49.623 254.193 49.623 254.702V255.057H45.4185V254.332H48.7708C48.7708 254.025 48.7092 253.75 48.5861 253.509C48.4654 253.267 48.2926 253.076 48.0676 252.937C47.8451 252.797 47.5823 252.727 47.2793 252.727C46.9455 252.727 46.6567 252.81 46.4128 252.976C46.1713 253.139 45.9855 253.352 45.8553 253.615C45.7251 253.878 45.66 254.16 45.66 254.46V254.943C45.66 255.355 45.731 255.704 45.873 255.991C46.0175 256.275 46.2175 256.491 46.4732 256.641C46.7289 256.787 47.026 256.861 47.3645 256.861C47.5847 256.861 47.7836 256.83 47.9611 256.768C48.141 256.705 48.2961 256.61 48.4263 256.484C48.5565 256.357 48.6571 256.198 48.7282 256.009L49.5378 256.236C49.4526 256.51 49.3094 256.752 49.1081 256.96C48.9069 257.166 48.6583 257.327 48.3624 257.443C48.0665 257.557 47.7338 257.614 47.3645 257.614Z" fill="var(--colors-neutral-neutral-800)"/>
<path d="M145.179 257.5H144.256L146.926 250.227H147.835L150.506 257.5H149.582L147.409 251.378H147.352L145.179 257.5ZM145.52 254.659H149.241V255.44H145.52V254.659ZM156.268 252.5C156.19 252.261 156.087 252.047 155.959 251.857C155.834 251.665 155.684 251.502 155.508 251.367C155.336 251.232 155.139 251.129 154.919 251.058C154.699 250.987 154.457 250.952 154.194 250.952C153.764 250.952 153.372 251.063 153.019 251.286C152.666 251.508 152.386 251.836 152.177 252.269C151.969 252.702 151.865 253.234 151.865 253.864C151.865 254.493 151.97 255.025 152.181 255.458C152.392 255.891 152.677 256.219 153.037 256.442C153.397 256.664 153.801 256.776 154.251 256.776C154.668 256.776 155.035 256.687 155.352 256.509C155.672 256.329 155.92 256.076 156.098 255.749C156.278 255.42 156.368 255.033 156.368 254.588L156.638 254.645H154.45V253.864H157.22V254.645C157.22 255.244 157.092 255.765 156.836 256.207C156.583 256.65 156.233 256.993 155.785 257.237C155.34 257.479 154.829 257.599 154.251 257.599C153.607 257.599 153.041 257.448 152.554 257.145C152.068 256.842 151.69 256.411 151.417 255.852C151.148 255.294 151.013 254.631 151.013 253.864C151.013 253.288 151.09 252.771 151.243 252.312C151.4 251.85 151.62 251.457 151.904 251.133C152.188 250.808 152.524 250.56 152.912 250.387C153.301 250.214 153.728 250.128 154.194 250.128C154.578 250.128 154.935 250.186 155.267 250.302C155.601 250.415 155.898 250.578 156.158 250.788C156.421 250.997 156.64 251.246 156.815 251.538C156.99 251.826 157.111 252.147 157.177 252.5H156.268ZM158.728 257.5V250.227H163.089V251.009H159.609V253.466H162.762V254.247H159.609V257.5H158.728ZM167.906 257.5V258.281H163.361V257.5H167.906ZM170.52 257.599C170.032 257.599 169.601 257.513 169.227 257.34C168.856 257.165 168.566 256.925 168.357 256.619C168.149 256.312 168.046 255.961 168.048 255.568C168.046 255.26 168.106 254.976 168.229 254.716C168.353 254.453 168.521 254.234 168.734 254.059C168.949 253.881 169.189 253.769 169.455 253.722V253.679C169.107 253.589 168.83 253.394 168.624 253.093C168.418 252.79 168.316 252.446 168.318 252.06C168.316 251.69 168.409 251.36 168.599 251.069C168.788 250.778 169.049 250.548 169.38 250.38C169.714 250.212 170.094 250.128 170.52 250.128C170.941 250.128 171.318 250.212 171.649 250.38C171.981 250.548 172.241 250.778 172.43 251.069C172.622 251.36 172.719 251.69 172.722 252.06C172.719 252.446 172.614 252.79 172.406 253.093C172.2 253.394 171.926 253.589 171.585 253.679V253.722C171.848 253.769 172.085 253.881 172.295 254.059C172.506 254.234 172.674 254.453 172.8 254.716C172.925 254.976 172.989 255.26 172.991 255.568C172.989 255.961 172.883 256.312 172.672 256.619C172.464 256.925 172.174 257.165 171.802 257.34C171.433 257.513 171.005 257.599 170.52 257.599ZM170.52 256.818C170.849 256.818 171.133 256.765 171.372 256.658C171.611 256.552 171.796 256.402 171.926 256.207C172.056 256.013 172.123 255.786 172.125 255.526C172.123 255.251 172.052 255.008 171.912 254.798C171.772 254.587 171.582 254.421 171.34 254.3C171.101 254.18 170.828 254.119 170.52 254.119C170.21 254.119 169.933 254.18 169.689 254.3C169.447 254.421 169.257 254.587 169.117 254.798C168.98 255.008 168.912 255.251 168.915 255.526C168.912 255.786 168.975 256.013 169.103 256.207C169.233 256.402 169.419 256.552 169.661 256.658C169.902 256.765 170.188 256.818 170.52 256.818ZM170.52 253.366C170.78 253.366 171.011 253.314 171.212 253.21C171.416 253.106 171.576 252.96 171.692 252.773C171.808 252.586 171.867 252.367 171.869 252.116C171.867 251.87 171.809 251.656 171.695 251.474C171.582 251.289 171.424 251.147 171.223 251.048C171.022 250.946 170.787 250.895 170.52 250.895C170.248 250.895 170.01 250.946 169.806 251.048C169.603 251.147 169.445 251.289 169.334 251.474C169.223 251.656 169.168 251.87 169.17 252.116C169.168 252.367 169.224 252.586 169.337 252.773C169.453 252.96 169.613 253.106 169.817 253.21C170.02 253.314 170.255 253.366 170.52 253.366ZM174.779 257.5H173.855L176.526 250.227H177.435L180.105 257.5H179.182L177.009 251.378H176.952L174.779 257.5ZM175.119 254.659H178.841V255.44H175.119V254.659ZM181.238 257.5V250.227H185.599V251.009H182.119V253.466H185.272V254.247H182.119V257.5H181.238ZM187.107 257.5V250.227H189.65C190.156 250.227 190.574 250.315 190.903 250.49C191.232 250.663 191.478 250.896 191.638 251.19C191.799 251.481 191.88 251.804 191.88 252.159C191.88 252.472 191.824 252.73 191.713 252.933C191.604 253.137 191.46 253.298 191.28 253.416C191.102 253.535 190.909 253.622 190.701 253.679V253.75C190.924 253.764 191.147 253.842 191.372 253.984C191.597 254.126 191.785 254.33 191.937 254.595C192.088 254.86 192.164 255.185 192.164 255.568C192.164 255.933 192.081 256.261 191.915 256.552C191.75 256.843 191.488 257.074 191.131 257.244C190.773 257.415 190.308 257.5 189.735 257.5H187.107ZM187.988 256.719H189.735C190.31 256.719 190.719 256.607 190.96 256.385C191.204 256.16 191.326 255.888 191.326 255.568C191.326 255.322 191.263 255.095 191.138 254.886C191.012 254.676 190.834 254.508 190.602 254.382C190.37 254.254 190.095 254.19 189.778 254.19H187.988V256.719ZM187.988 253.423H189.621C189.887 253.423 190.126 253.371 190.339 253.267C190.554 253.163 190.725 253.016 190.85 252.827C190.978 252.637 191.042 252.415 191.042 252.159C191.042 251.839 190.931 251.568 190.708 251.346C190.486 251.121 190.133 251.009 189.65 251.009H187.988V253.423ZM193.611 257.5V250.227H196.069C196.637 250.227 197.103 250.324 197.468 250.518C197.832 250.71 198.102 250.974 198.277 251.31C198.453 251.647 198.54 252.029 198.54 252.457C198.54 252.886 198.453 253.266 198.277 253.597C198.102 253.929 197.833 254.189 197.471 254.379C197.109 254.566 196.646 254.659 196.083 254.659H194.094V253.864H196.054C196.443 253.864 196.755 253.807 196.992 253.693C197.231 253.58 197.404 253.419 197.51 253.21C197.619 253 197.674 252.749 197.674 252.457C197.674 252.166 197.619 251.912 197.51 251.694C197.401 251.476 197.227 251.308 196.988 251.19C196.749 251.069 196.433 251.009 196.04 251.009H194.492V257.5H193.611ZM197.034 254.233L198.824 257.5H197.801L196.04 254.233H197.034ZM202.337 257.599C201.868 257.599 201.451 257.519 201.084 257.358C200.719 257.197 200.429 256.973 200.214 256.687C200.001 256.398 199.885 256.063 199.866 255.682H200.76C200.779 255.916 200.86 256.119 201.002 256.289C201.144 256.457 201.33 256.587 201.559 256.68C201.789 256.772 202.044 256.818 202.323 256.818C202.635 256.818 202.912 256.764 203.154 256.655C203.395 256.546 203.585 256.394 203.722 256.2C203.859 256.006 203.928 255.781 203.928 255.526C203.928 255.258 203.862 255.022 203.729 254.819C203.597 254.613 203.403 254.452 203.147 254.336C202.891 254.22 202.579 254.162 202.209 254.162H201.627V253.381H202.209C202.498 253.381 202.751 253.329 202.969 253.224C203.189 253.12 203.361 252.973 203.484 252.784C203.61 252.595 203.672 252.372 203.672 252.116C203.672 251.87 203.618 251.656 203.509 251.474C203.4 251.291 203.246 251.149 203.047 251.048C202.851 250.946 202.619 250.895 202.351 250.895C202.1 250.895 201.864 250.941 201.641 251.033C201.421 251.123 201.241 251.255 201.101 251.428C200.962 251.598 200.886 251.804 200.874 252.045H200.022C200.036 251.664 200.151 251.33 200.366 251.044C200.582 250.755 200.863 250.53 201.211 250.369C201.562 250.208 201.947 250.128 202.366 250.128C202.815 250.128 203.201 250.219 203.523 250.401C203.845 250.581 204.093 250.819 204.265 251.115C204.438 251.411 204.525 251.731 204.525 252.074C204.525 252.483 204.417 252.833 204.202 253.121C203.988 253.41 203.698 253.61 203.331 253.722V253.778C203.791 253.854 204.149 254.049 204.407 254.364C204.666 254.677 204.795 255.064 204.795 255.526C204.795 255.921 204.687 256.276 204.471 256.591C204.258 256.903 203.967 257.15 203.598 257.33C203.229 257.509 202.808 257.599 202.337 257.599ZM208.619 257.599C208.084 257.599 207.628 257.454 207.252 257.163C206.876 256.869 206.588 256.444 206.389 255.888C206.19 255.329 206.091 254.654 206.091 253.864C206.091 253.078 206.19 252.406 206.389 251.85C206.59 251.291 206.879 250.865 207.256 250.572C207.634 250.276 208.089 250.128 208.619 250.128C209.149 250.128 209.603 250.276 209.979 250.572C210.358 250.865 210.647 251.291 210.846 251.85C211.047 252.406 211.148 253.078 211.148 253.864C211.148 254.654 211.048 255.329 210.849 255.888C210.65 256.444 210.363 256.869 209.986 257.163C209.61 257.454 209.154 257.599 208.619 257.599ZM208.619 256.818C209.149 256.818 209.561 256.562 209.855 256.051C210.148 255.54 210.295 254.811 210.295 253.864C210.295 253.234 210.228 252.698 210.093 252.255C209.96 251.812 209.769 251.475 209.518 251.243C209.269 251.011 208.97 250.895 208.619 250.895C208.094 250.895 207.683 251.154 207.387 251.673C207.091 252.189 206.943 252.919 206.943 253.864C206.943 254.493 207.009 255.028 207.142 255.469C207.274 255.909 207.465 256.244 207.714 256.474C207.965 256.703 208.266 256.818 208.619 256.818Z" fill="var(--colors-neutral-neutral-800)"/>
<path d="M221 255.801L217.461 252.263L217.933 251.791L221 254.858L224.067 251.791L224.538 252.263L221 255.801Z" fill="var(--colors-neutral-neutral-500)"/>
<path d="M274.461 255C274.186 255 273.951 254.902 273.755 254.706C273.559 254.51 273.461 254.275 273.461 254C273.461 253.725 273.559 253.49 273.755 253.294C273.951 253.098 274.186 253 274.461 253C274.736 253 274.972 253.098 275.168 253.294C275.364 253.49 275.461 253.725 275.461 254C275.461 254.275 275.364 254.51 275.168 254.706C274.972 254.902 274.736 255 274.461 255ZM280 255C279.725 255 279.489 254.902 279.294 254.706C279.098 254.51 279 254.275 279 254C279 253.725 279.098 253.49 279.294 253.294C279.489 253.098 279.725 253 280 253C280.275 253 280.51 253.098 280.706 253.294C280.902 253.49 281 253.725 281 254C281 254.275 280.902 254.51 280.706 254.706C280.51 254.902 280.275 255 280 255ZM285.538 255C285.263 255 285.028 254.902 284.832 254.706C284.636 254.51 284.538 254.275 284.538 254C284.538 253.725 284.636 253.49 284.832 253.294C285.028 253.098 285.263 253 285.538 253C285.813 253 286.049 253.098 286.245 253.294C286.44 253.49 286.538 253.725 286.538 254C286.538 254.275 286.44 254.51 286.245 254.706C286.049 254.902 285.813 255 285.538 255Z" fill="var(--colors-neutral-neutral-800)"/>
<path d="M304 333.5H0V334.5H304V333.5Z" fill="var(--colors-neutral-neutral-400)"/>
<path d="M16.864 314V305.624H23.02V306.884H18.376V309.032H21.532V310.292H18.376V314H16.864ZM26.9847 314V305.156H28.4247V314H26.9847ZM24.6447 314V312.836H30.7887V314H24.6447ZM25.5087 306.32V305.156H27.7047V306.32H25.5087ZM35.5094 314.144C34.8134 314.144 34.2134 314.004 33.7094 313.724C33.2134 313.444 32.8294 313.048 32.5574 312.536C32.2934 312.016 32.1614 311.4 32.1614 310.688C32.1614 309.968 32.2934 309.352 32.5574 308.84C32.8294 308.328 33.2134 307.932 33.7094 307.652C34.2134 307.372 34.8134 307.232 35.5094 307.232C36.5494 307.232 37.3654 307.54 37.9574 308.156C38.5494 308.764 38.8454 309.608 38.8454 310.688C38.8454 311.4 38.7094 312.016 38.4374 312.536C38.1734 313.048 37.7894 313.444 37.2854 313.724C36.7894 314.004 36.1974 314.144 35.5094 314.144ZM35.5094 312.968C36.0934 312.968 36.5534 312.764 36.8894 312.356C37.2334 311.948 37.4054 311.392 37.4054 310.688C37.4054 309.976 37.2334 309.42 36.8894 309.02C36.5534 308.612 36.0934 308.408 35.5094 308.408C34.9094 308.408 34.4414 308.612 34.1054 309.02C33.7694 309.42 33.6014 309.976 33.6014 310.688C33.6014 311.392 33.7694 311.948 34.1054 312.356C34.4414 312.764 34.9094 312.968 35.5094 312.968ZM40.6741 314L39.6421 307.352H40.9741L41.4781 310.976L41.6821 312.512L41.9581 310.976L42.6901 307.352H43.9741L44.7421 310.976L45.0301 312.536L45.2221 310.976L45.7261 307.352H46.9981L45.9781 314H44.3101L43.5421 310.532L43.3261 308.72L43.0981 310.532L42.3421 314H40.6741ZM51.2868 314.144C50.6948 314.144 50.1708 314.044 49.7148 313.844C49.2668 313.636 48.9188 313.344 48.6708 312.968C48.4228 312.592 48.2948 312.148 48.2868 311.636H49.6308C49.6228 312.084 49.7668 312.436 50.0628 312.692C50.3668 312.948 50.7748 313.076 51.2868 313.076C51.6948 313.076 52.0228 313 52.2708 312.848C52.5188 312.696 52.6428 312.488 52.6428 312.224C52.6428 312.016 52.5668 311.848 52.4148 311.72C52.2628 311.592 52.0588 311.492 51.8028 311.42C51.5548 311.348 51.2788 311.284 50.9748 311.228C50.6788 311.164 50.3788 311.092 50.0748 311.012C49.7708 310.924 49.4908 310.812 49.2348 310.676C48.9868 310.532 48.7868 310.344 48.6348 310.112C48.4828 309.88 48.4068 309.584 48.4068 309.224C48.4068 308.832 48.5148 308.488 48.7308 308.192C48.9548 307.888 49.2708 307.652 49.6788 307.484C50.0868 307.316 50.5668 307.232 51.1188 307.232C51.9508 307.232 52.6228 307.428 53.1348 307.82C53.6468 308.204 53.9228 308.736 53.9628 309.416H52.6308C52.6068 309.056 52.4588 308.78 52.1868 308.588C51.9228 308.396 51.5668 308.3 51.1188 308.3C50.7108 308.3 50.3948 308.38 50.1708 308.54C49.9548 308.7 49.8468 308.904 49.8468 309.152C49.8468 309.36 49.9228 309.52 50.0748 309.632C50.2348 309.744 50.4388 309.832 50.6868 309.896C50.9348 309.96 51.2108 310.02 51.5148 310.076C51.8188 310.124 52.1188 310.188 52.4148 310.268C52.7188 310.348 52.9948 310.46 53.2428 310.604C53.4988 310.74 53.7028 310.928 53.8548 311.168C54.0148 311.408 54.0948 311.72 54.0948 312.104C54.0948 312.736 53.8388 313.236 53.3268 313.604C52.8228 313.964 52.1428 314.144 51.2868 314.144Z" fill="var(--colors-neutral-neutral-800)"/>
<rect x="64" y="302" width="16" height="16" rx="8" fill="var(--colors-neutral-neutral-300)"/>
<path d="M69.518 313.5V312.74C70.438 312.053 71.178 311.457 71.738 310.95C72.298 310.437 72.7047 309.983 72.958 309.59C73.2114 309.19 73.338 308.827 73.338 308.5C73.338 308.14 73.2247 307.85 72.998 307.63C72.778 307.41 72.468 307.3 72.068 307.3C71.648 307.3 71.3014 307.43 71.028 307.69C70.7547 307.943 70.608 308.303 70.588 308.77H69.518C69.5514 308.27 69.678 307.843 69.898 307.49C70.1247 307.13 70.4247 306.86 70.798 306.68C71.178 306.493 71.608 306.4 72.088 306.4C72.568 306.4 72.9847 306.487 73.338 306.66C73.6914 306.827 73.9614 307.067 74.148 307.38C74.3414 307.687 74.438 308.043 74.438 308.45C74.438 308.89 74.3247 309.323 74.098 309.75C73.878 310.17 73.5214 310.613 73.028 311.08C72.5414 311.54 71.8947 312.047 71.088 312.6H74.458V313.5H69.518Z" fill="var(--colors-neutral-neutral-800)"/>
<path d="M241.615 319C241.155 319 240.771 318.846 240.463 318.538C240.154 318.229 240 317.845 240 317.385V304.615C240 304.155 240.154 303.771 240.463 303.463C240.771 303.154 241.155 303 241.615 303H243.385V300.769H244.462V303H251.615V300.769H252.615V303H254.385C254.845 303 255.229 303.154 255.538 303.463C255.846 303.771 256 304.155 256 304.615V317.385C256 317.845 255.846 318.229 255.538 318.538C255.229 318.846 254.845 319 254.385 319H241.615ZM241.615 318H254.385C254.538 318 254.679 317.936 254.808 317.808C254.936 317.679 255 317.538 255 317.385V308.615H241V317.385C241 317.538 241.064 317.679 241.192 317.808C241.321 317.936 241.462 318 241.615 318ZM241 307.615H255V304.615C255 304.462 254.936 304.321 254.808 304.192C254.679 304.064 254.538 304 254.385 304H241.615C241.462 304 241.321 304.064 241.192 304.192C241.064 304.321 241 304.462 241 304.615V307.615ZM243.5 311.5V310.5H252.5V311.5H243.5ZM243.5 315.5V314.5H249.5V315.5H243.5Z" fill="var(--colors-neutral-neutral-800)"/>
<path d="M280 312.702L274.692 307.394L275.4 306.687L280 311.287L284.6 306.687L285.308 307.394L280 312.702Z" fill="var(--colors-neutral-neutral-800)"/>
<path d="M304 381.5H0V382.5H304V381.5Z" fill="var(--colors-neutral-neutral-400)"/>
<path d="M17.212 362V353.624H18.724V360.74H22.996V362H17.212ZM29.2887 362L29.2287 360.596V357.62C29.2287 357.204 29.0887 356.876 28.8087 356.636C28.5287 356.396 28.1407 356.276 27.6447 356.276C27.1727 356.276 26.7847 356.384 26.4807 356.6C26.1847 356.816 26.0167 357.112 25.9767 357.488H24.5847C24.6247 357.016 24.7767 356.612 25.0407 356.276C25.3127 355.94 25.6727 355.684 26.1207 355.508C26.5767 355.324 27.1007 355.232 27.6927 355.232C28.3007 355.232 28.8247 355.328 29.2647 355.52C29.7127 355.712 30.0567 355.992 30.2967 356.36C30.5367 356.728 30.6567 357.176 30.6567 357.704V362H29.2887ZM26.9847 362.144C26.5527 362.144 26.1687 362.064 25.8327 361.904C25.5047 361.744 25.2487 361.516 25.0647 361.22C24.8807 360.924 24.7887 360.58 24.7887 360.188C24.7887 359.508 25.0527 358.98 25.5807 358.604C26.1087 358.22 26.8407 358.028 27.7767 358.028H29.3967V359.06L27.7287 359.072C27.2487 359.072 26.8727 359.164 26.6007 359.348C26.3287 359.524 26.1927 359.78 26.1927 360.116C26.1927 360.38 26.2887 360.592 26.4807 360.752C26.6807 360.912 26.9527 360.992 27.2967 360.992C27.7367 360.992 28.1287 360.876 28.4727 360.644C28.8247 360.404 29.1087 360.076 29.3247 359.66L29.4807 360.668C29.2727 361.156 28.9567 361.524 28.5327 361.772C28.1087 362.02 27.5927 362.144 26.9847 362.144ZM34.8974 358.328L35.5094 359.996L36.1334 358.316L37.3814 355.376H38.8454L35.8214 362.516C35.6374 362.964 35.4294 363.316 35.1974 363.572C34.9734 363.828 34.7174 364.008 34.4294 364.112C34.1414 364.224 33.8094 364.28 33.4334 364.28H32.2454V363.116H33.3134C33.5294 363.116 33.7094 363.068 33.8534 362.972C34.0054 362.884 34.1414 362.748 34.2614 362.564C34.3814 362.388 34.4974 362.168 34.6094 361.904L34.7774 361.52L32.1734 355.376H33.6614L34.8974 358.328ZM43.3861 362.144C42.6901 362.144 42.0901 362.008 41.5861 361.736C41.0821 361.456 40.6941 361.056 40.4221 360.536C40.1581 360.016 40.0261 359.396 40.0261 358.676C40.0261 357.956 40.1621 357.34 40.4341 356.828C40.7061 356.308 41.0981 355.912 41.6101 355.64C42.1221 355.368 42.7341 355.232 43.4461 355.232C44.5501 355.232 45.3621 355.54 45.8821 356.156C46.4101 356.772 46.6381 357.616 46.5661 358.688H41.1661L41.1781 357.644L45.1021 357.656C45.0701 357.272 44.9021 356.964 44.5981 356.732C44.2941 356.5 43.9101 356.384 43.4461 356.384C42.7901 356.384 42.2941 356.588 41.9581 356.996C41.6221 357.404 41.4541 357.984 41.4541 358.736C41.4541 359.168 41.5301 359.556 41.6821 359.9C41.8341 360.236 42.0501 360.5 42.3301 360.692C42.6181 360.876 42.9701 360.968 43.3861 360.968C43.8581 360.968 44.2501 360.856 44.5621 360.632C44.8821 360.408 45.0781 360.108 45.1501 359.732H46.5901C46.4941 360.476 46.1581 361.064 45.5821 361.496C45.0141 361.928 44.2821 362.144 43.3861 362.144ZM52.7988 358.376V357.548C52.7988 357.22 52.6988 356.956 52.4988 356.756C52.3068 356.548 52.0268 356.444 51.6588 356.444C51.2108 356.444 50.8028 356.608 50.4348 356.936C50.0668 357.264 49.7588 357.78 49.5108 358.484L49.3308 357.14C49.5148 356.724 49.7308 356.376 49.9788 356.096C50.2348 355.808 50.5228 355.592 50.8428 355.448C51.1708 355.304 51.5268 355.232 51.9108 355.232C52.5908 355.232 53.1468 355.432 53.5788 355.832C54.0108 356.232 54.2268 356.804 54.2268 357.548V358.376H52.7988ZM48.3348 362V355.376H49.6908L49.7628 356.78V362H48.3348ZM59.0914 362.144C58.4994 362.144 57.9754 362.044 57.5194 361.844C57.0714 361.636 56.7234 361.344 56.4754 360.968C56.2274 360.592 56.0994 360.148 56.0914 359.636H57.4354C57.4274 360.084 57.5714 360.436 57.8674 360.692C58.1714 360.948 58.5794 361.076 59.0914 361.076C59.4994 361.076 59.8274 361 60.0754 360.848C60.3234 360.696 60.4474 360.488 60.4474 360.224C60.4474 360.016 60.3714 359.848 60.2194 359.72C60.0674 359.592 59.8634 359.492 59.6074 359.42C59.3594 359.348 59.0834 359.284 58.7794 359.228C58.4834 359.164 58.1834 359.092 57.8794 359.012C57.5754 358.924 57.2954 358.812 57.0394 358.676C56.7914 358.532 56.5914 358.344 56.4394 358.112C56.2874 357.88 56.2114 357.584 56.2114 357.224C56.2114 356.832 56.3194 356.488 56.5354 356.192C56.7594 355.888 57.0754 355.652 57.4834 355.484C57.8914 355.316 58.3714 355.232 58.9234 355.232C59.7554 355.232 60.4274 355.428 60.9394 355.82C61.4514 356.204 61.7274 356.736 61.7674 357.416H60.4354C60.4114 357.056 60.2634 356.78 59.9914 356.588C59.7274 356.396 59.3714 356.3 58.9234 356.3C58.5154 356.3 58.1994 356.38 57.9754 356.54C57.7594 356.7 57.6514 356.904 57.6514 357.152C57.6514 357.36 57.7274 357.52 57.8794 357.632C58.0394 357.744 58.2434 357.832 58.4914 357.896C58.7394 357.96 59.0154 358.02 59.3194 358.076C59.6234 358.124 59.9234 358.188 60.2194 358.268C60.5234 358.348 60.7994 358.46 61.0474 358.604C61.3034 358.74 61.5074 358.928 61.6594 359.168C61.8194 359.408 61.8994 359.72 61.8994 360.104C61.8994 360.736 61.6434 361.236 61.1314 361.604C60.6274 361.964 59.9474 362.144 59.0914 362.144Z" fill="var(--colors-neutral-neutral-800)"/>
<path d="M280 360.702L274.692 355.394L275.4 354.687L280 359.287L284.6 354.687L285.308 355.394L280 360.702Z" fill="var(--colors-neutral-neutral-800)"/>
</svg>
