<svg width="304" height="97" viewBox="0 0 304 97" fill="none" xmlns="http://www.w3.org/2000/svg">
<path d="M304 95.5H0V96.5H304V95.5Z" fill="var(--colors-neutral-neutral-400)"/>
<path d="M19.144 28V20.884H16.528V19.624H23.26V20.884H20.644V28H19.144ZM27.0327 28V21.376H28.4607V28H27.0327ZM24.6927 28V26.836H30.7047V28H24.6927ZM25.5447 22.54V21.376H27.7407V22.54H25.5447ZM26.9487 20.332V18.868H28.5087V20.332H26.9487ZM37.5374 28V23.224C37.5374 22.968 37.4934 22.768 37.4054 22.624C37.3254 22.48 37.1934 22.408 37.0094 22.408C36.7534 22.408 36.5254 22.576 36.3254 22.912C36.1334 23.24 35.9934 23.776 35.9054 24.52L35.7974 23.548C35.7894 22.82 35.9374 22.252 36.2414 21.844C36.5534 21.436 36.9454 21.232 37.4174 21.232C37.8414 21.232 38.1814 21.392 38.4374 21.712C38.7014 22.032 38.8334 22.492 38.8334 23.092V28H37.5374ZM32.1854 28V21.376H33.4334L33.4814 22.648V28H32.1854ZM34.8614 28V23.224C34.8614 22.952 34.8134 22.748 34.7174 22.612C34.6294 22.476 34.4934 22.408 34.3094 22.408C34.0374 22.408 33.8094 22.584 33.6254 22.936C33.4414 23.288 33.3054 23.816 33.2174 24.52L33.2054 23.5C33.2054 23.028 33.2774 22.624 33.4214 22.288C33.5734 21.944 33.7654 21.684 33.9974 21.508C34.2294 21.324 34.4814 21.232 34.7534 21.232C35.1934 21.232 35.5374 21.4 35.7854 21.736C36.0334 22.064 36.1574 22.508 36.1574 23.068V28H34.8614ZM43.3861 28.144C42.6901 28.144 42.0901 28.008 41.5861 27.736C41.0821 27.456 40.6941 27.056 40.4221 26.536C40.1581 26.016 40.0261 25.396 40.0261 24.676C40.0261 23.956 40.1621 23.34 40.4341 22.828C40.7061 22.308 41.0981 21.912 41.6101 21.64C42.1221 21.368 42.7341 21.232 43.4461 21.232C44.5501 21.232 45.3621 21.54 45.8821 22.156C46.4101 22.772 46.6381 23.616 46.5661 24.688H41.1661L41.1781 23.644L45.1021 23.656C45.0701 23.272 44.9021 22.964 44.5981 22.732C44.2941 22.5 43.9101 22.384 43.4461 22.384C42.7901 22.384 42.2941 22.588 41.9581 22.996C41.6221 23.404 41.4541 23.984 41.4541 24.736C41.4541 25.168 41.5301 25.556 41.6821 25.9C41.8341 26.236 42.0501 26.5 42.3301 26.692C42.6181 26.876 42.9701 26.968 43.3861 26.968C43.8581 26.968 44.2501 26.856 44.5621 26.632C44.8821 26.408 45.0781 26.108 45.1501 25.732H46.5901C46.4941 26.476 46.1581 27.064 45.5821 27.496C45.0141 27.928 44.2821 28.144 43.3861 28.144Z" fill="var(--colors-neutral-neutral-800)"/>
<path d="M275.4 26.7019L274.692 25.9942L280 20.6865L285.308 25.9942L284.6 26.7019L280 22.1019L275.4 26.7019Z" fill="var(--colors-neutral-neutral-800)"/>
<path d="M20.858 62.0455C20.8153 61.6856 20.6425 61.4062 20.3395 61.2074C20.0365 61.0085 19.6648 60.9091 19.2244 60.9091C18.9025 60.9091 18.6207 60.9612 18.3793 61.0653C18.1402 61.1695 17.9531 61.3127 17.8182 61.495C17.6856 61.6773 17.6193 61.8845 17.6193 62.1165C17.6193 62.3106 17.6655 62.4775 17.7578 62.6172C17.8525 62.7545 17.9732 62.8693 18.12 62.9616C18.2668 63.0516 18.4207 63.1262 18.5817 63.1854C18.7427 63.2422 18.8906 63.2884 19.0256 63.3239L19.7642 63.5227C19.9536 63.5724 20.1643 63.6411 20.3963 63.7287C20.6307 63.8163 20.8544 63.9358 21.0675 64.0874C21.2829 64.2365 21.4605 64.4283 21.6001 64.6626C21.7398 64.897 21.8097 65.1847 21.8097 65.5256C21.8097 65.9186 21.7067 66.2737 21.5007 66.5909C21.2971 66.9081 20.9988 67.1603 20.6058 67.3473C20.2152 67.5343 19.7405 67.6278 19.1818 67.6278C18.661 67.6278 18.21 67.5438 17.8288 67.3757C17.45 67.2076 17.1518 66.9732 16.9339 66.6726C16.7185 66.3719 16.5966 66.0227 16.5682 65.625H17.4773C17.5009 65.8996 17.5933 66.1269 17.7543 66.3068C17.9176 66.4844 18.1236 66.617 18.3722 66.7045C18.6231 66.7898 18.893 66.8324 19.1818 66.8324C19.518 66.8324 19.8198 66.7779 20.0874 66.669C20.3549 66.5578 20.5668 66.4039 20.723 66.2074C20.8793 66.0085 20.9574 65.7765 20.9574 65.5114C20.9574 65.2699 20.8899 65.0734 20.755 64.9219C20.62 64.7704 20.4425 64.6473 20.2223 64.5526C20.0021 64.4579 19.7642 64.375 19.5085 64.304L18.6136 64.0483C18.0455 63.8849 17.5956 63.6518 17.2642 63.3487C16.9328 63.0457 16.767 62.6491 16.767 62.1591C16.767 61.7519 16.8771 61.3968 17.0973 61.0938C17.3198 60.7884 17.6181 60.5516 17.9922 60.3835C18.3686 60.2131 18.7888 60.1278 19.2528 60.1278C19.7216 60.1278 20.1383 60.2119 20.5028 60.38C20.8674 60.5457 21.1563 60.773 21.3693 61.0618C21.5848 61.3506 21.6984 61.6785 21.7102 62.0455H20.858ZM23.144 67.5V62.0455H23.9821V67.5H23.144ZM23.5701 61.1364C23.4068 61.1364 23.2659 61.0807 23.1475 60.9695C23.0315 60.8582 22.9735 60.7244 22.9735 60.5682C22.9735 60.4119 23.0315 60.2782 23.1475 60.1669C23.2659 60.0556 23.4068 60 23.5701 60C23.7335 60 23.8732 60.0556 23.9892 60.1669C24.1075 60.2782 24.1667 60.4119 24.1667 60.5682C24.1667 60.7244 24.1075 60.8582 23.9892 60.9695C23.8732 61.0807 23.7335 61.1364 23.5701 61.1364ZM25.517 67.5V62.0455H26.3267V62.8977H26.3977C26.5114 62.6065 26.6948 62.3804 26.9482 62.2195C27.2015 62.0561 27.5057 61.9744 27.8608 61.9744C28.2206 61.9744 28.5201 62.0561 28.7592 62.2195C29.0007 62.3804 29.1889 62.6065 29.3239 62.8977H29.3807C29.5204 62.616 29.7299 62.3923 30.0092 62.2266C30.2886 62.0585 30.6236 61.9744 31.0142 61.9744C31.5019 61.9744 31.9008 62.1271 32.2109 62.4325C32.5211 62.7356 32.6761 63.2079 32.6761 63.8494V67.5H31.8381V63.8494C31.8381 63.447 31.728 63.1593 31.5078 62.9865C31.2876 62.8137 31.0284 62.7273 30.7301 62.7273C30.3466 62.7273 30.0495 62.8433 29.8388 63.0753C29.6281 63.3049 29.5227 63.5961 29.5227 63.9489V67.5H28.6705V63.7642C28.6705 63.4541 28.5698 63.2043 28.3686 63.0149C28.1674 62.8232 27.9081 62.7273 27.5909 62.7273C27.3731 62.7273 27.1695 62.7853 26.9801 62.9013C26.7931 63.0173 26.6416 63.1783 26.5256 63.3842C26.4119 63.5878 26.3551 63.8234 26.3551 64.0909V67.5H25.517ZM37.646 65.2699V62.0455H38.484V67.5H37.646V66.5767H37.5891C37.4613 66.8537 37.2624 67.0893 36.9925 67.2834C36.7227 67.4751 36.3817 67.571 35.9698 67.571C35.6289 67.571 35.3259 67.4964 35.0607 67.3473C34.7956 67.1958 34.5872 66.9685 34.4357 66.6655C34.2842 66.3601 34.2085 65.9754 34.2085 65.5114V62.0455H35.0465V65.4545C35.0465 65.8523 35.1578 66.1695 35.3803 66.4062C35.6052 66.643 35.8917 66.7614 36.2397 66.7614C36.448 66.7614 36.6599 66.7081 36.8754 66.6016C37.0932 66.495 37.2754 66.3317 37.4222 66.1115C37.5714 65.8913 37.646 65.6108 37.646 65.2699ZM40.8571 60.2273V67.5H40.019V60.2273H40.8571ZM43.9972 67.6278C43.6515 67.6278 43.3378 67.5627 43.0561 67.4325C42.7744 67.3 42.5507 67.1094 42.3849 66.8608C42.2192 66.6098 42.1364 66.3068 42.1364 65.9517C42.1364 65.6392 42.1979 65.3859 42.321 65.1918C42.4441 64.9953 42.6087 64.8414 42.8146 64.7301C43.0206 64.6188 43.2479 64.536 43.4964 64.4815C43.7474 64.4247 43.9995 64.3797 44.2528 64.3466C44.5843 64.304 44.853 64.272 45.0589 64.2507C45.2673 64.227 45.4188 64.188 45.5135 64.1335C45.6106 64.0791 45.6591 63.9844 45.6591 63.8494V63.821C45.6591 63.4706 45.5632 63.1984 45.3714 63.0043C45.1821 62.8101 44.8944 62.7131 44.5085 62.7131C44.1084 62.7131 43.7947 62.8007 43.5675 62.9759C43.3402 63.151 43.1804 63.3381 43.0881 63.5369L42.2926 63.2528C42.4347 62.9214 42.6241 62.6634 42.8608 62.4787C43.0999 62.2917 43.3603 62.1615 43.642 62.0881C43.9261 62.0123 44.2055 61.9744 44.4801 61.9744C44.6553 61.9744 44.8565 61.9957 45.0838 62.0384C45.3134 62.0786 45.5348 62.1626 45.7479 62.2905C45.9633 62.4183 46.142 62.6113 46.2841 62.8693C46.4261 63.1274 46.4972 63.473 46.4972 63.9062V67.5H45.6591V66.7614H45.6165C45.5597 66.8797 45.465 67.0064 45.3324 67.1413C45.1998 67.2763 45.0234 67.3911 44.8033 67.4858C44.5831 67.5805 44.3144 67.6278 43.9972 67.6278ZM44.125 66.875C44.4564 66.875 44.7358 66.8099 44.9631 66.6797C45.1927 66.5495 45.3655 66.3814 45.4815 66.1754C45.5999 65.9695 45.6591 65.7528 45.6591 65.5256V64.7585C45.6236 64.8011 45.5455 64.8402 45.4247 64.8757C45.3063 64.9089 45.169 64.9384 45.0128 64.9645C44.8589 64.9882 44.7086 65.0095 44.5618 65.0284C44.4174 65.045 44.3002 65.0592 44.2102 65.071C43.9924 65.0994 43.7888 65.1456 43.5994 65.2095C43.4124 65.2711 43.2609 65.3646 43.1449 65.4901C43.0313 65.6132 42.9744 65.7812 42.9744 65.9943C42.9744 66.2855 43.0821 66.5057 43.2976 66.6548C43.5154 66.8016 43.7912 66.875 44.125 66.875ZM50.399 62.0455V62.7557H47.5723V62.0455H50.399ZM48.3961 60.7386H49.2342V65.9375C49.2342 66.1742 49.2685 66.3518 49.3372 66.4702C49.4082 66.5862 49.4982 66.6643 49.6071 66.7045C49.7183 66.7424 49.8355 66.7614 49.9586 66.7614C50.051 66.7614 50.1267 66.7566 50.1859 66.7472C50.2451 66.7353 50.2924 66.7259 50.3279 66.7188L50.4984 67.4716C50.4416 67.4929 50.3623 67.5142 50.2605 67.5355C50.1587 67.5592 50.0297 67.571 49.8734 67.571C49.6367 67.571 49.4047 67.5201 49.1774 67.4183C48.9525 67.3165 48.7654 67.1615 48.6163 66.9531C48.4695 66.7448 48.3961 66.482 48.3961 66.1648V60.7386ZM53.888 67.6136C53.3624 67.6136 52.909 67.4976 52.5279 67.2656C52.1491 67.0312 51.8567 66.7045 51.6507 66.2855C51.4471 65.8641 51.3453 65.3741 51.3453 64.8153C51.3453 64.2566 51.4471 63.7642 51.6507 63.3381C51.8567 62.9096 52.1432 62.5758 52.5101 62.3366C52.8794 62.0952 53.3103 61.9744 53.8027 61.9744C54.0868 61.9744 54.3674 62.0218 54.6444 62.1165C54.9213 62.2112 55.1735 62.3651 55.4007 62.5781C55.628 62.7888 55.8091 63.0682 55.9441 63.4162C56.079 63.7642 56.1465 64.1927 56.1465 64.7017V65.0568H51.9419V64.3324H55.2942C55.2942 64.0246 55.2327 63.75 55.1096 63.5085C54.9888 63.267 54.816 63.0765 54.5911 62.9368C54.3685 62.7971 54.1058 62.7273 53.8027 62.7273C53.4689 62.7273 53.1801 62.8101 52.9363 62.9759C52.6948 63.1392 52.5089 63.3523 52.3787 63.6151C52.2485 63.8778 52.1834 64.1596 52.1834 64.4602V64.9432C52.1834 65.3551 52.2544 65.7043 52.3965 65.9908C52.5409 66.2749 52.7409 66.4915 52.9966 66.6406C53.2523 66.7874 53.5494 66.8608 53.888 66.8608C54.1081 66.8608 54.307 66.83 54.4846 66.7685C54.6645 66.7045 54.8195 66.6098 54.9498 66.4844C55.08 66.3565 55.1806 66.1979 55.2516 66.0085L56.0613 66.2358C55.976 66.5104 55.8328 66.7519 55.6316 66.9602C55.4303 67.1662 55.1818 67.3272 54.8858 67.4432C54.5899 67.5568 54.2573 67.6136 53.888 67.6136ZM62.6628 62.0455V62.7557H59.7225V62.0455H62.6628ZM60.6032 67.5V61.2926C60.6032 60.9801 60.6766 60.7197 60.8233 60.5114C60.9701 60.303 61.1607 60.1468 61.3951 60.0426C61.6294 59.9384 61.8768 59.8864 62.1373 59.8864C62.3432 59.8864 62.5113 59.9029 62.6415 59.9361C62.7717 59.9692 62.8688 60 62.9327 60.0284L62.6912 60.7528C62.6486 60.7386 62.5894 60.7209 62.5137 60.6996C62.4403 60.6783 62.3432 60.6676 62.2225 60.6676C61.9455 60.6676 61.7454 60.7375 61.6223 60.8771C61.5016 61.0168 61.4412 61.2216 61.4412 61.4915V67.5H60.6032ZM65.8287 67.6136C65.3362 67.6136 64.9042 67.4964 64.5325 67.2621C64.1632 67.0277 63.8743 66.6998 63.666 66.2784C63.46 65.857 63.3571 65.3646 63.3571 64.8011C63.3571 64.233 63.46 63.737 63.666 63.3132C63.8743 62.8894 64.1632 62.5604 64.5325 62.326C64.9042 62.0916 65.3362 61.9744 65.8287 61.9744C66.3211 61.9744 66.752 62.0916 67.1213 62.326C67.493 62.5604 67.7818 62.8894 67.9877 63.3132C68.1961 63.737 68.3002 64.233 68.3002 64.8011C68.3002 65.3646 68.1961 65.857 67.9877 66.2784C67.7818 66.6998 67.493 67.0277 67.1213 67.2621C66.752 67.4964 66.3211 67.6136 65.8287 67.6136ZM65.8287 66.8608C66.2027 66.8608 66.5105 66.7649 66.752 66.5732C66.9934 66.3814 67.1722 66.1293 67.2882 65.8168C67.4042 65.5043 67.4622 65.1657 67.4622 64.8011C67.4622 64.4366 67.4042 64.0968 67.2882 63.782C67.1722 63.4671 66.9934 63.2126 66.752 63.0185C66.5105 62.8243 66.2027 62.7273 65.8287 62.7273C65.4546 62.7273 65.1468 62.8243 64.9054 63.0185C64.6639 63.2126 64.4851 63.4671 64.3691 63.782C64.2531 64.0968 64.1951 64.4366 64.1951 64.8011C64.1951 65.1657 64.2531 65.5043 64.3691 65.8168C64.4851 66.1293 64.6639 66.3814 64.9054 66.5732C65.1468 66.7649 65.4546 66.8608 65.8287 66.8608ZM69.5795 67.5V62.0455H70.3892V62.8693H70.446C70.5455 62.5994 70.7254 62.3804 70.9858 62.2124C71.2462 62.0443 71.5398 61.9602 71.8665 61.9602C71.928 61.9602 72.005 61.9614 72.0973 61.9638C72.1896 61.9661 72.2595 61.9697 72.3068 61.9744V62.8267C72.2784 62.8196 72.2133 62.8089 72.1115 62.7947C72.0121 62.7782 71.9067 62.7699 71.7955 62.7699C71.5303 62.7699 71.2936 62.8255 71.0852 62.9368C70.8793 63.0457 70.7159 63.1972 70.5952 63.3913C70.4768 63.5831 70.4176 63.8021 70.4176 64.0483V67.5H69.5795Z" fill="var(--colors-neutral-neutral-800)"/>
<path d="M147.31 60.2273V67.5H146.429V61.1506H146.386L144.611 62.3295V61.4347L146.429 60.2273H147.31ZM153.066 64.2188V67.5H152.228V60.2273H153.066V62.8977H153.137C153.265 62.616 153.457 62.3923 153.712 62.2266C153.97 62.0585 154.314 61.9744 154.742 61.9744C155.114 61.9744 155.439 62.049 155.719 62.1982C155.998 62.3449 156.215 62.571 156.369 62.8764C156.525 63.1795 156.603 63.5653 156.603 64.0341V67.5H155.765V64.0909C155.765 63.6577 155.652 63.3227 155.428 63.0859C155.205 62.8468 154.896 62.7273 154.501 62.7273C154.226 62.7273 153.98 62.7853 153.762 62.9013C153.547 63.0173 153.376 63.1866 153.251 63.4091C153.128 63.6316 153.066 63.9015 153.066 64.2188Z" fill="var(--colors-neutral-neutral-800)"/>
</svg>
