<svg width="150" height="196" viewBox="0 0 150 196" fill="none" xmlns="http://www.w3.org/2000/svg">
<rect x="14.2977" y="163.796" width="121.405" height="2.00669" fill="#F3A83E" stroke="#222222" stroke-width="0.5"/>
<rect x="68.4783" y="165.803" width="13.0435" height="2.00669" fill="#F3A83E" stroke="#222222" stroke-width="0.5"/>
<rect x="14.2977" y="165.803" width="13.0435" height="2.00669" fill="#F3A83E" stroke="#222222" stroke-width="0.5"/>
<rect x="122.659" y="165.803" width="13.0435" height="2.00669" fill="#F3A83E" stroke="#222222" stroke-width="0.5"/>
<rect x="14.2977" y="173.829" width="4.01338" height="2.00669" fill="#F3A83E" stroke="#222222" stroke-width="0.5"/>
<rect x="14.2977" y="173.829" width="121.405" height="2.00669" fill="#F3A83E" stroke="#222222" stroke-width="0.5"/>
<rect x="68.4783" y="167.809" width="13.0435" height="6.02007" fill="#F3A83E" stroke="#222222" stroke-width="0.5"/>
<rect x="14.2977" y="167.809" width="13.0435" height="6.02007" fill="#F3A83E" stroke="#222222" stroke-width="0.5"/>
<rect x="122.659" y="167.809" width="13.0435" height="6.02007" fill="#F3A83E" stroke="#222222" stroke-width="0.5"/>
<rect x="41.388" y="135.702" width="34.1137" height="28.0936" fill="#D9D9D9" stroke="#222222" stroke-width="0.5"/>
<rect x="75.5017" y="135.702" width="33.1104" height="28.0936" fill="#D9D9D9" stroke="#222222" stroke-width="0.5"/>
<rect x="55.4348" y="118.645" width="40.1338" height="17.0569" fill="#D9D9D9" stroke="#222222" stroke-width="0.5"/>
<rect x="95.5686" y="118.645" width="54.1806" height="17.0569" fill="#D9D9D9" stroke="#222222" stroke-width="0.5"/>
<rect x="0.250836" y="118.645" width="55.1839" height="17.0569" fill="#D9D9D9" stroke="#222222" stroke-width="0.5"/>
<rect x="0.250836" y="135.702" width="41.1371" height="28.0936" fill="#D9D9D9" stroke="#222222" stroke-width="0.5"/>
<rect x="108.612" y="135.702" width="41.1371" height="28.0936" fill="#D9D9D9" stroke="#222222" stroke-width="0.5"/>
<rect x="135.702" y="0.250836" width="9.0301" height="174.582" fill="#2D71BA" stroke="#222222" stroke-width="0.5"/>
<rect x="135.702" y="173.829" width="9.0301" height="2.00669" fill="#B42318" stroke="#222222" stroke-width="0.5"/>
<rect x="5.26756" y="0.250836" width="9.0301" height="174.582" fill="#2D71BA" stroke="#222222" stroke-width="0.5"/>
<rect x="5.26756" y="173.829" width="9.0301" height="2.00669" fill="#B42318" stroke="#222222" stroke-width="0.5"/>
<path d="M18.311 191.89L23.3278 194.786L23.3278 188.993L18.311 191.89ZM131.689 191.89L126.672 188.993L126.672 194.786L131.689 191.89ZM22.8261 192.391L127.174 192.391L127.174 191.388L22.8261 191.388L22.8261 192.391Z" fill="#222222"/>
<path d="M14.2977 175.836L14.2977 195.903" stroke="#222222" stroke-width="0.5"/>
<path d="M135.702 175.836L135.702 195.903" stroke="#222222" stroke-width="0.5"/>
</svg>
