<svg width="159" height="178" viewBox="0 0 159 178" fill="none" xmlns="http://www.w3.org/2000/svg">
<rect x="9.28914" y="70.2962" width="121.512" height="2.00846" fill="#F3A83E" stroke="#222222" stroke-width="0.5"/>
<rect x="63.5176" y="72.3047" width="13.055" height="2.00846" fill="#F3A83E" stroke="#222222" stroke-width="0.5"/>
<rect x="9.28914" y="72.3047" width="13.055" height="2.00846" fill="#F3A83E" stroke="#222222" stroke-width="0.5"/>
<rect x="117.746" y="72.3047" width="13.055" height="2.00846" fill="#F3A83E" stroke="#222222" stroke-width="0.5"/>
<rect x="9.28914" y="80.3385" width="121.512" height="2.00846" fill="#F3A83E" stroke="#222222" stroke-width="0.5"/>
<rect x="63.5176" y="74.3131" width="13.055" height="6.02539" fill="#F3A83E" stroke="#222222" stroke-width="0.5"/>
<rect x="9.28914" y="74.3131" width="13.055" height="6.02539" fill="#F3A83E" stroke="#222222" stroke-width="0.5"/>
<rect x="117.746" y="74.3131" width="13.055" height="6.02539" fill="#F3A83E" stroke="#222222" stroke-width="0.5"/>
<rect x="130.801" y="82.347" width="4.01693" height="121.512" transform="rotate(90 130.801 82.347)" fill="#99AFFF" stroke="#222222" stroke-width="0.5"/>
<rect x="130.801" y="6.02539" width="4.01693" height="121.512" transform="rotate(90 130.801 6.02539)" fill="#99AFFF" stroke="#222222" stroke-width="0.5"/>
<path d="M155.907 16.0677L158.806 11.0465L153.008 11.0465L155.907 16.0677ZM155.907 -9.57709e-07L153.008 5.02116L158.806 5.02116L155.907 -9.57709e-07ZM156.409 11.5487L156.409 4.51904L155.405 4.51904L155.405 11.5487L156.409 11.5487Z" fill="#222222"/>
<rect x="9.28914" y="165.698" width="121.512" height="2.00846" fill="#F3A83E" stroke="#222222" stroke-width="0.5"/>
<rect x="63.5176" y="167.707" width="13.055" height="2.00846" fill="#F3A83E" stroke="#222222" stroke-width="0.5"/>
<rect x="9.28914" y="167.707" width="13.055" height="2.00846" fill="#F3A83E" stroke="#222222" stroke-width="0.5"/>
<rect x="117.746" y="167.707" width="13.055" height="2.00846" fill="#F3A83E" stroke="#222222" stroke-width="0.5"/>
<rect x="9.28914" y="175.74" width="4.01693" height="2.00846" fill="#F3A83E" stroke="#222222" stroke-width="0.5"/>
<rect x="9.28914" y="175.74" width="121.512" height="2.00846" fill="#F3A83E" stroke="#222222" stroke-width="0.5"/>
<rect x="63.5176" y="169.715" width="13.055" height="6.02539" fill="#F3A83E" stroke="#222222" stroke-width="0.5"/>
<rect x="9.28914" y="169.715" width="13.055" height="6.02539" fill="#F3A83E" stroke="#222222" stroke-width="0.5"/>
<rect x="117.746" y="169.715" width="13.055" height="6.02539" fill="#F3A83E" stroke="#222222" stroke-width="0.5"/>
<rect x="17.323" y="137.58" width="41.1735" height="28.1185" fill="#D9D9D9" stroke="#222222" stroke-width="0.5"/>
<rect x="81.5938" y="42.1777" width="41.1735" height="28.1185" fill="#D9D9D9" stroke="#222222" stroke-width="0.5"/>
<rect x="81.5938" y="126.533" width="41.1735" height="39.165" fill="#D9D9D9" stroke="#222222" stroke-width="0.5"/>
<rect x="17.323" y="31.1312" width="41.1735" height="39.165" fill="#D9D9D9" stroke="#222222" stroke-width="0.5"/>
<rect x="130.801" y="2.00846" width="9.03808" height="174.736" fill="#2D71BA" stroke="#222222" stroke-width="0.5"/>
<rect x="130.801" y="175.74" width="9.03808" height="2.00846" fill="#B42318" stroke="#222222" stroke-width="0.5"/>
<rect x="0.251058" y="2.00846" width="9.03808" height="174.736" fill="#2D71BA" stroke="#222222" stroke-width="0.5"/>
<rect x="0.251058" y="175.74" width="9.03808" height="2.00846" fill="#B42318" stroke="#222222" stroke-width="0.5"/>
<path d="M130.801 6.02539H149.882" stroke="#222222" stroke-width="0.5"/>
<path d="M130.801 10.0423H149.882" stroke="#222222" stroke-width="0.5"/>
</svg>
