<svg width="63" height="14" viewBox="0 0 63 14" fill="none" xmlns="http://www.w3.org/2000/svg">
<circle cx="7" cy="7" r="6.5" stroke="var(--colors-neutral-neutral-800)"/>
<circle cx="7" cy="7" r="3" fill="var(--colors-neutral-neutral-800)"/>
<path d="M23.2775 11V2.27273H28.5446V3.21023H24.3343V6.15909H28.2718V7.09659H24.3343V10.0625H28.6127V11H23.2775ZM31.3187 7.0625V11H30.313V4.45455H31.2846V5.47727H31.3699C31.5233 5.14489 31.7562 4.87784 32.0687 4.67614C32.3812 4.47159 32.7846 4.36932 33.2789 4.36932C33.7221 4.36932 34.1099 4.46023 34.4423 4.64205C34.7747 4.82102 35.0332 5.09375 35.2179 5.46023C35.4025 5.82386 35.4949 6.28409 35.4949 6.84091V11H34.4892V6.90909C34.4892 6.39489 34.3556 5.99432 34.0886 5.70739C33.8216 5.41761 33.4551 5.27273 32.9892 5.27273C32.6681 5.27273 32.3812 5.34233 32.1284 5.48153C31.8784 5.62074 31.6809 5.82386 31.536 6.09091C31.3912 6.35795 31.3187 6.68182 31.3187 7.0625ZM39.9746 13.5909C39.4888 13.5909 39.0712 13.5284 38.7218 13.4034C38.3723 13.2812 38.0811 13.1193 37.8482 12.9176C37.6181 12.7188 37.4348 12.5057 37.2985 12.2784L38.0996 11.7159C38.1905 11.8352 38.3056 11.9716 38.4448 12.125C38.584 12.2812 38.7743 12.4162 39.0158 12.5298C39.2601 12.6463 39.5797 12.7045 39.9746 12.7045C40.503 12.7045 40.9391 12.5767 41.2828 12.321C41.6266 12.0653 41.7985 11.6648 41.7985 11.1193V9.78977H41.7132C41.6394 9.90909 41.5343 10.0568 41.3979 10.233C41.2644 10.4062 41.0712 10.5611 40.8184 10.6974C40.5684 10.831 40.2303 10.8977 39.8042 10.8977C39.2757 10.8977 38.8013 10.7727 38.3809 10.5227C37.9632 10.2727 37.6323 9.90909 37.388 9.43182C37.1465 8.95455 37.0257 8.375 37.0257 7.69318C37.0257 7.02273 37.1436 6.43892 37.3794 5.94176C37.6152 5.44176 37.9434 5.0554 38.3638 4.78267C38.7843 4.5071 39.2701 4.36932 39.8212 4.36932C40.2473 4.36932 40.5854 4.44034 40.8354 4.58239C41.0882 4.72159 41.2814 4.88068 41.415 5.05966C41.5513 5.2358 41.6564 5.38068 41.7303 5.49432H41.8326V4.45455H42.8042V11.1875C42.8042 11.75 42.6763 12.2074 42.4206 12.5597C42.1678 12.9148 41.8269 13.1747 41.3979 13.3395C40.9718 13.5071 40.4973 13.5909 39.9746 13.5909ZM39.9405 9.99432C40.3439 9.99432 40.6848 9.90199 40.9632 9.71733C41.2417 9.53267 41.4533 9.26705 41.5982 8.92045C41.7431 8.57386 41.8155 8.15909 41.8155 7.67614C41.8155 7.20455 41.7445 6.78835 41.6025 6.42756C41.4604 6.06676 41.2502 5.78409 40.9718 5.57955C40.6934 5.375 40.3496 5.27273 39.9405 5.27273C39.5144 5.27273 39.1593 5.38068 38.8752 5.59659C38.5939 5.8125 38.3823 6.10227 38.2402 6.46591C38.101 6.82955 38.0314 7.23295 38.0314 7.67614C38.0314 8.13068 38.1025 8.53267 38.2445 8.8821C38.3894 9.22869 38.6025 9.50142 38.8837 9.70028C39.1678 9.89631 39.5201 9.99432 39.9405 9.99432ZM45.6507 2.27273V11H44.6451V2.27273H45.6507ZM47.4927 11V4.45455H48.4984V11H47.4927ZM48.0041 3.36364C47.8081 3.36364 47.639 3.29688 47.497 3.16335C47.3578 3.02983 47.2882 2.86932 47.2882 2.68182C47.2882 2.49432 47.3578 2.33381 47.497 2.20028C47.639 2.06676 47.8081 2 48.0041 2C48.2001 2 48.3677 2.06676 48.5069 2.20028C48.649 2.33381 48.72 2.49432 48.72 2.68182C48.72 2.86932 48.649 3.02983 48.5069 3.16335C48.3677 3.29688 48.2001 3.36364 48.0041 3.36364ZM54.9767 5.92045L54.0733 6.17614C54.0165 6.02557 53.9327 5.87926 53.8219 5.73722C53.714 5.59233 53.5662 5.47301 53.3787 5.37926C53.1912 5.28551 52.9512 5.23864 52.6586 5.23864C52.258 5.23864 51.9242 5.33097 51.6571 5.51562C51.3929 5.69744 51.2608 5.92898 51.2608 6.21023C51.2608 6.46023 51.3517 6.65767 51.5336 6.80256C51.7154 6.94744 51.9995 7.06818 52.3858 7.16477L53.3574 7.40341C53.9426 7.54545 54.3787 7.76278 54.6657 8.0554C54.9526 8.34517 55.0961 8.71875 55.0961 9.17614C55.0961 9.55114 54.9881 9.88636 54.7722 10.1818C54.5591 10.4773 54.2608 10.7102 53.8773 10.8807C53.4938 11.0511 53.0478 11.1364 52.5392 11.1364C51.8716 11.1364 51.3191 10.9915 50.8816 10.7017C50.4441 10.4119 50.1671 9.98864 50.0506 9.43182L51.0051 9.19318C51.0961 9.54545 51.2679 9.80966 51.5208 9.9858C51.7765 10.1619 52.1103 10.25 52.5222 10.25C52.9909 10.25 53.3631 10.1506 53.6387 9.9517C53.9171 9.75 54.0563 9.50852 54.0563 9.22727C54.0563 9 53.9767 8.80966 53.8176 8.65625C53.6586 8.5 53.4142 8.38352 53.0847 8.30682L51.9938 8.05114C51.3944 7.90909 50.954 7.68892 50.6728 7.39062C50.3944 7.08949 50.2551 6.71307 50.2551 6.26136C50.2551 5.89205 50.3588 5.56534 50.5662 5.28125C50.7765 4.99716 51.062 4.77415 51.4228 4.61222C51.7864 4.45028 52.1983 4.36932 52.6586 4.36932C53.3063 4.36932 53.8148 4.51136 54.1841 4.79545C54.5563 5.07955 54.8205 5.45455 54.9767 5.92045ZM57.6156 7.0625V11H56.6099V2.27273H57.6156V5.47727H57.7008C57.8542 5.1392 58.0843 4.87074 58.3912 4.67188C58.7008 4.47017 59.1127 4.36932 59.627 4.36932C60.073 4.36932 60.4636 4.45881 60.7988 4.63778C61.1341 4.81392 61.394 5.08523 61.5787 5.4517C61.7662 5.81534 61.8599 6.27841 61.8599 6.84091V11H60.8542V6.90909C60.8542 6.3892 60.7193 5.98722 60.4494 5.70312C60.1824 5.41619 59.8116 5.27273 59.3372 5.27273C59.0076 5.27273 58.7122 5.34233 58.4508 5.48153C58.1923 5.62074 57.9877 5.82386 57.8372 6.09091C57.6895 6.35795 57.6156 6.68182 57.6156 7.0625Z" fill="var(--colors-neutral-neutral-800)"/>
</svg>
