<svg width="20" height="18" viewBox="0 0 20 18" fill="none" xmlns="http://www.w3.org/2000/svg">
<path d="M4.99954 1.00373L6.67833 2.1527L7.1028 2.4427L6.8128 2.86616L6.20871 3.74921C6.39936 3.73647 6.59096 3.72814 6.7837 3.72814C9.21183 3.72814 11.2947 4.57662 13.0022 6.2659C14.4697 7.71789 15.3079 9.45425 15.5159 11.4548L16.3367 10.635L16.6999 10.2717L18.8644 12.4362L14.0277 17.2729L9.19101 12.4362L9.55427 12.073L10.9932 10.635L11.3565 10.2717L12.2476 11.1628C11.9022 9.77947 11.1462 8.69216 9.96669 7.87947C9.01154 7.2214 7.99304 6.8891 6.89809 6.88002L7.66474 7.40383L8.08921 7.69383L7.79921 8.1183L6.65024 9.7971L6.36024 10.2216L5.93677 9.93156L1.1382 6.65023L0.713738 6.36023L1.00374 5.93677L4.28507 1.1382L4.57507 0.71373L4.99954 1.00373Z" fill="#222222" stroke="white"/>
</svg>
