<svg width="1225" height="152" viewBox="0 0 1225 152" fill="none" xmlns="http://www.w3.org/2000/svg">
<rect x="6" y="6" width="1213" height="140" fill="#F0E0FB"/>
<rect x="6" y="6" width="1213" height="140" stroke="#F325A7"/>
<rect width="1213" height="37" transform="translate(6 35)" fill="#DACCE5"/>
<rect width="1213" height="37" transform="translate(6 80)" fill="#DACCE5"/>
<path d="M162.088 81.6154L161.38 80.9077L165.974 76.3077L161.38 71.7077L162.088 71L167.395 76.3077L162.088 81.6154ZM168.188 81.6154L167.48 80.9077L172.074 76.3077L167.48 71.7077L168.188 71L173.495 76.3077L168.188 81.6154Z" fill="#222222"/>
<path d="M155.928 81.6154L150.62 76.3077L155.928 71L156.635 71.7077L152.041 76.3077L156.635 80.9077L155.928 81.6154ZM162.028 81.6154L156.72 76.3077L162.028 71L162.735 71.7077L158.141 76.3077L162.735 80.9077L162.028 81.6154Z" fill="#222222"/>
<path d="M612.588 81.6154L611.88 80.9077L616.474 76.3077L611.88 71.7077L612.588 71L617.895 76.3077L612.588 81.6154ZM618.688 81.6154L617.98 80.9077L622.574 76.3077L617.98 71.7077L618.688 71L623.995 76.3077L618.688 81.6154Z" fill="#222222"/>
<path d="M606.428 81.6154L601.12 76.3077L606.428 71L607.135 71.7077L602.541 76.3077L607.135 80.9077L606.428 81.6154ZM612.528 81.6154L607.22 76.3077L612.528 71L613.235 71.7077L608.641 76.3077L613.235 80.9077L612.528 81.6154Z" fill="#222222"/>
<path d="M1063.09 81.6154L1062.38 80.9077L1066.97 76.3077L1062.38 71.7077L1063.09 71L1068.4 76.3077L1063.09 81.6154ZM1069.19 81.6154L1068.48 80.9077L1073.07 76.3077L1068.48 71.7077L1069.19 71L1074.5 76.3077L1069.19 81.6154Z" fill="#222222"/>
<path d="M1056.93 81.6154L1051.62 76.3077L1056.93 71L1057.64 71.7077L1053.04 76.3077L1057.64 80.9077L1056.93 81.6154ZM1063.03 81.6154L1057.72 76.3077L1063.03 71L1063.74 71.7077L1059.14 76.3077L1063.74 80.9077L1063.03 81.6154Z" fill="#222222"/>
<rect x="610" y="2.5" width="7" height="7" fill="white" stroke="#F325A7"/>
<rect x="610" y="143.5" width="7" height="7" fill="white" stroke="#F325A7"/>
<rect x="2.5" y="73.5" width="7" height="7" fill="white" stroke="#F325A7"/>
<rect x="1215.5" y="73.5" width="7" height="7" fill="white" stroke="#F325A7"/>
</svg>
