<svg width="400" height="150" viewBox="0 0 400 150" fill="none" xmlns="http://www.w3.org/2000/svg">
<rect width="8" height="150" fill="var(--colors-feedback-error-red-300)"/>
<rect width="392" height="150" transform="translate(8)" fill="#F9D0D0"/>
<path d="M31.5 31.5H40.5V30.5H31.5V31.5ZM36.0033 40C34.7588 40 33.5887 39.7638 32.493 39.2915C31.3975 38.8192 30.4445 38.1782 29.634 37.3685C28.8235 36.5588 28.1819 35.6067 27.7092 34.512C27.2364 33.4175 27 32.2479 27 31.0033C27 29.7588 27.2362 28.5887 27.7085 27.493C28.1808 26.3975 28.8218 25.4445 29.6315 24.634C30.4412 23.8235 31.3933 23.1819 32.488 22.7092C33.5825 22.2364 34.7521 22 35.9967 22C37.2413 22 38.4113 22.2362 39.507 22.7085C40.6025 23.1808 41.5555 23.8218 42.366 24.6315C43.1765 25.4412 43.8181 26.3933 44.2908 27.488C44.7636 28.5825 45 29.7521 45 30.9967C45 32.2413 44.7638 33.4113 44.2915 34.507C43.8192 35.6025 43.1782 36.5555 42.3685 37.366C41.5588 38.1765 40.6067 38.8181 39.512 39.2908C38.4175 39.7636 37.2479 40 36.0033 40ZM36 39C38.2333 39 40.125 38.225 41.675 36.675C43.225 35.125 44 33.2333 44 31C44 28.7667 43.225 26.875 41.675 25.325C40.125 23.775 38.2333 23 36 23C33.7667 23 31.875 23.775 30.325 25.325C28.775 26.875 28 28.7667 28 31C28 33.2333 28.775 35.125 30.325 36.675C31.875 38.225 33.7667 39 36 39Z" fill="var(--colors-neutral-neutral-800)"/>
<path d="M59.7173 35V27.7273H64.4474V28.8317H61.0348V30.8061H64.2024V31.9105H61.0348V33.8956H64.4759V35H59.7173ZM68.4087 35.1385C67.824 35.1385 67.3221 34.9905 66.9031 34.6946C66.4864 34.3963 66.1656 33.9666 65.9407 33.4055C65.7182 32.8421 65.6069 32.1638 65.6069 31.3707C65.6093 30.5777 65.7217 29.9029 65.9442 29.3466C66.1692 28.7879 66.4899 28.3617 66.9066 28.0682C67.3256 27.7746 67.8263 27.6278 68.4087 27.6278C68.9911 27.6278 69.4918 27.7746 69.9109 28.0682C70.3299 28.3617 70.6507 28.7879 70.8732 29.3466C71.0981 29.9053 71.2106 30.58 71.2106 31.3707C71.2106 32.1662 71.0981 32.8456 70.8732 33.4091C70.6507 33.9702 70.3299 34.3987 69.9109 34.6946C69.4942 34.9905 68.9935 35.1385 68.4087 35.1385ZM68.4087 34.027C68.8633 34.027 69.2219 33.8033 69.4847 33.3558C69.7499 32.906 69.8825 32.2443 69.8825 31.3707C69.8825 30.7931 69.8221 30.3078 69.7013 29.9148C69.5806 29.5218 69.4102 29.2259 69.19 29.027C68.9698 28.8258 68.7094 28.7251 68.4087 28.7251C67.9566 28.7251 67.5991 28.95 67.3363 29.3999C67.0735 29.8473 66.9409 30.5043 66.9386 31.3707C66.9362 31.9508 66.9942 32.4384 67.1126 32.8338C67.2333 33.2292 67.4038 33.5275 67.6239 33.7287C67.8441 33.9276 68.1057 34.027 68.4087 34.027ZM75.0005 35.0994C74.4892 35.0994 74.0346 35.0118 73.6369 34.8366C73.2415 34.6615 72.929 34.4176 72.6994 34.1051C72.4698 33.7926 72.3478 33.4316 72.3336 33.022H73.6689C73.6807 33.2185 73.7458 33.3902 73.8642 33.5369C73.9825 33.6813 74.14 33.7938 74.3365 33.8743C74.533 33.9548 74.7531 33.995 74.997 33.995C75.2574 33.995 75.4882 33.95 75.6895 33.8601C75.8907 33.7678 76.0481 33.6399 76.1618 33.4766C76.2754 33.3132 76.331 33.125 76.3287 32.9119C76.331 32.6918 76.2742 32.4976 76.1582 32.3295C76.0422 32.1615 75.8741 32.0301 75.6539 31.9354C75.4361 31.8407 75.1734 31.7933 74.8656 31.7933H74.2228V30.7777H74.8656C75.1189 30.7777 75.3403 30.7339 75.5297 30.6463C75.7214 30.5587 75.8717 30.4356 75.9806 30.277C76.0895 30.116 76.1428 29.9302 76.1404 29.7195C76.1428 29.5135 76.0967 29.3348 76.002 29.1832C75.9096 29.0294 75.7782 28.9098 75.6078 28.8246C75.4397 28.7393 75.242 28.6967 75.0147 28.6967C74.7922 28.6967 74.5862 28.737 74.3968 28.8175C74.2074 28.898 74.0547 29.0128 73.9387 29.1619C73.8227 29.3087 73.7612 29.4839 73.7541 29.6875H72.4863C72.4958 29.2803 72.613 28.9228 72.8379 28.6151C73.0652 28.3049 73.3682 28.0634 73.747 27.8906C74.1258 27.7154 74.5507 27.6278 75.0218 27.6278C75.5072 27.6278 75.9286 27.719 76.286 27.9013C76.6459 28.0812 76.9241 28.3239 77.1206 28.6293C77.3171 28.9347 77.4153 29.272 77.4153 29.6413C77.4177 30.0509 77.2969 30.3942 77.0531 30.6712C76.8116 30.9482 76.4944 31.1293 76.1014 31.2145V31.2713C76.6127 31.3423 77.0046 31.5317 77.2768 31.8395C77.5514 32.1449 77.6876 32.5249 77.6852 32.9794C77.6852 33.3866 77.5692 33.7512 77.3372 34.0732C77.1075 34.3928 76.7903 34.6437 76.3855 34.826C75.983 35.0083 75.5214 35.0994 75.0005 35.0994ZM78.7727 33.6506V32.603L81.8587 27.7273H82.7322V29.2188H82.1996L80.1222 32.5107V32.5675H84.4297V33.6506H78.7727ZM82.2422 35V33.331L82.2564 32.8622V27.7273H83.4993V35H82.2422ZM88.0927 35.0994C87.6192 35.0994 87.1954 35.0107 86.8214 34.8331C86.4473 34.6532 86.1502 34.407 85.93 34.0945C85.7122 33.782 85.5962 33.4245 85.582 33.022H86.8604C86.8841 33.3203 87.0131 33.5642 87.2475 33.7536C87.4819 33.9406 87.7636 34.0341 88.0927 34.0341C88.3507 34.0341 88.5804 33.9749 88.7816 33.8565C88.9828 33.7382 89.1415 33.5736 89.2575 33.3629C89.3735 33.1522 89.4303 32.9119 89.4279 32.642C89.4303 32.3674 89.3723 32.1236 89.2539 31.9105C89.1355 31.6974 88.9734 31.5305 88.7674 31.4098C88.5614 31.2867 88.3247 31.2251 88.0572 31.2251C87.8394 31.2228 87.6251 31.263 87.4144 31.3459C87.2037 31.4287 87.0368 31.5376 86.9137 31.6726L85.7241 31.4773L86.104 27.7273H90.3228V28.8281H87.1942L86.9847 30.7564H87.0273C87.1623 30.5978 87.3529 30.4664 87.5991 30.3622C87.8453 30.2557 88.1152 30.2024 88.4087 30.2024C88.8491 30.2024 89.2421 30.3066 89.5877 30.5149C89.9334 30.7209 90.2056 31.005 90.4045 31.3672C90.6033 31.7294 90.7028 32.1437 90.7028 32.6101C90.7028 33.0907 90.5915 33.5192 90.369 33.8956C90.1488 34.2696 89.8422 34.5644 89.4492 34.7798C89.0586 34.9929 88.6064 35.0994 88.0927 35.0994ZM94.5558 35.0994C94.2077 35.0971 93.868 35.0367 93.5366 34.9183C93.2051 34.7976 92.9068 34.6023 92.6417 34.3324C92.3765 34.0601 92.1658 33.6991 92.0096 33.2493C91.8533 32.7971 91.7764 32.2372 91.7788 31.5696C91.7788 30.947 91.8451 30.3918 91.9776 29.9041C92.1102 29.4164 92.3008 29.0045 92.5494 28.6683C92.7979 28.3298 93.0974 28.0717 93.4478 27.8942C93.8005 27.7166 94.1947 27.6278 94.6303 27.6278C95.0872 27.6278 95.4921 27.7178 95.8448 27.8977C96.1999 28.0777 96.4864 28.3239 96.7042 28.6364C96.922 28.9465 97.0569 29.2969 97.109 29.6875H95.8129C95.7466 29.4081 95.6104 29.1856 95.4045 29.0199C95.2009 28.8518 94.9428 28.7678 94.6303 28.7678C94.1261 28.7678 93.7378 28.9867 93.4656 29.4247C93.1957 29.8627 93.0595 30.464 93.0572 31.2287H93.1069C93.2229 31.0204 93.3732 30.8416 93.5579 30.6925C93.7425 30.5433 93.9509 30.4285 94.1829 30.348C94.4173 30.2652 94.6647 30.2237 94.9251 30.2237C95.3512 30.2237 95.7335 30.3255 96.0721 30.5291C96.413 30.7327 96.6829 31.0133 96.8817 31.3707C97.0806 31.7259 97.1789 32.133 97.1765 32.5923C97.1789 33.0705 97.07 33.5002 96.8498 33.8814C96.6296 34.2602 96.323 34.5585 95.93 34.7763C95.5371 34.9941 95.079 35.1018 94.5558 35.0994ZM94.5487 34.0341C94.8067 34.0341 95.0375 33.9714 95.2411 33.8459C95.4447 33.7204 95.6057 33.5511 95.7241 33.3381C95.8424 33.125 95.9004 32.8859 95.8981 32.6207C95.9004 32.3603 95.8436 32.1248 95.7276 31.9141C95.614 31.7034 95.4566 31.5365 95.2553 31.4134C95.0541 31.2902 94.8245 31.2287 94.5664 31.2287C94.3746 31.2287 94.1959 31.2654 94.0302 31.3388C93.8645 31.4122 93.7201 31.514 93.5969 31.6442C93.4738 31.772 93.3768 31.9212 93.3058 32.0916C93.2371 32.2597 93.2016 32.4396 93.1992 32.6314C93.2016 32.8847 93.2608 33.1179 93.3768 33.331C93.4928 33.544 93.6526 33.7145 93.8562 33.8423C94.0598 33.9702 94.2906 34.0341 94.5487 34.0341ZM98.2454 33.6506V32.603L101.331 27.7273H102.205V29.2188H101.672L99.5948 32.5107V32.5675H103.902V33.6506H98.2454ZM101.715 35V33.331L101.729 32.8622V27.7273H102.972V35H101.715ZM105.843 34.1264C105.628 34.1264 105.443 34.0507 105.289 33.8991C105.135 33.7453 105.059 33.5606 105.062 33.3452C105.059 33.1321 105.135 32.9498 105.289 32.7983C105.443 32.6468 105.628 32.571 105.843 32.571C106.051 32.571 106.232 32.6468 106.386 32.7983C106.543 32.9498 106.622 33.1321 106.624 33.3452C106.622 33.4896 106.584 33.621 106.511 33.7393C106.44 33.8577 106.345 33.9524 106.227 34.0234C106.111 34.0921 105.983 34.1264 105.843 34.1264ZM105.843 30.522C105.628 30.522 105.443 30.4463 105.289 30.2947C105.135 30.1409 105.059 29.9562 105.062 29.7408C105.059 29.5277 105.135 29.3454 105.289 29.1939C105.443 29.04 105.628 28.9631 105.843 28.9631C106.051 28.9631 106.232 29.04 106.386 29.1939C106.543 29.3454 106.622 29.5277 106.624 29.7408C106.622 29.8828 106.584 30.013 106.511 30.1314C106.44 30.2498 106.345 30.3445 106.227 30.4155C106.111 30.4865 105.983 30.522 105.843 30.522ZM110.169 28.8317V27.7273H115.972V28.8317H113.724V35H112.417V28.8317H110.169ZM118.319 31.804V35H117.034V27.7273H118.291V30.4723H118.355C118.482 30.1645 118.68 29.9219 118.948 29.7443C119.218 29.5644 119.561 29.4744 119.977 29.4744C120.356 29.4744 120.686 29.5537 120.968 29.7124C121.25 29.871 121.468 30.103 121.622 30.4084C121.778 30.7138 121.856 31.0866 121.856 31.527V35H120.57V31.7259C120.57 31.3589 120.476 31.0736 120.286 30.87C120.099 30.6641 119.837 30.5611 119.498 30.5611C119.271 30.5611 119.067 30.6108 118.887 30.7102C118.71 30.8073 118.57 30.9482 118.468 31.1328C118.369 31.3175 118.319 31.5412 118.319 31.804ZM125.581 35.1065C125.034 35.1065 124.562 34.9929 124.164 34.7656C123.769 34.536 123.465 34.2116 123.252 33.7926C123.039 33.3712 122.932 32.8752 122.932 32.3047C122.932 31.7436 123.039 31.2512 123.252 30.8274C123.467 30.4013 123.768 30.0698 124.154 29.8331C124.539 29.594 124.993 29.4744 125.514 29.4744C125.85 29.4744 126.167 29.5289 126.465 29.6378C126.766 29.7443 127.031 29.91 127.261 30.1349C127.493 30.3598 127.675 30.6463 127.808 30.9943C127.94 31.34 128.007 31.7519 128.007 32.2301V32.6243H123.536V31.7578H126.774C126.772 31.5116 126.719 31.2926 126.615 31.1009C126.51 30.9067 126.365 30.754 126.178 30.6428C125.993 30.5315 125.778 30.4759 125.531 30.4759C125.269 30.4759 125.038 30.5398 124.839 30.6676C124.64 30.7931 124.485 30.9588 124.374 31.1648C124.265 31.3684 124.209 31.5921 124.207 31.8359V32.5923C124.207 32.9096 124.265 33.1818 124.381 33.4091C124.497 33.634 124.659 33.8068 124.867 33.9276C125.076 34.0459 125.32 34.1051 125.599 34.1051C125.786 34.1051 125.955 34.0791 126.107 34.027C126.258 33.9725 126.39 33.8932 126.501 33.7891C126.612 33.6849 126.696 33.5559 126.753 33.402L127.953 33.5369C127.878 33.8542 127.733 34.1312 127.52 34.3679C127.309 34.6023 127.039 34.7846 126.71 34.9148C126.381 35.0426 126.005 35.1065 125.581 35.1065ZM134.298 29.5455V30.5398H131.163V29.5455H134.298ZM131.937 28.2386H133.222V33.3594C133.222 33.5322 133.248 33.6648 133.3 33.7571C133.355 33.8471 133.426 33.9086 133.513 33.9418C133.601 33.9749 133.698 33.9915 133.805 33.9915C133.885 33.9915 133.959 33.9856 134.025 33.9737C134.094 33.9619 134.146 33.9512 134.181 33.9418L134.398 34.9467C134.329 34.9704 134.231 34.9964 134.103 35.0249C133.978 35.0533 133.824 35.0698 133.641 35.0746C133.319 35.084 133.029 35.0355 132.771 34.929C132.513 34.8201 132.308 34.652 132.157 34.4247C132.008 34.1974 131.934 33.9134 131.937 33.5724V28.2386ZM135.373 35V29.5455H136.659V35H135.373ZM136.02 28.7713C135.816 28.7713 135.641 28.7038 135.494 28.5689C135.347 28.4316 135.274 28.267 135.274 28.0753C135.274 27.8812 135.347 27.7166 135.494 27.5817C135.641 27.4444 135.816 27.3757 136.02 27.3757C136.226 27.3757 136.401 27.4444 136.545 27.5817C136.692 27.7166 136.765 27.8812 136.765 28.0753C136.765 28.267 136.692 28.4316 136.545 28.5689C136.401 28.7038 136.226 28.7713 136.02 28.7713ZM140.705 29.5455V30.5398H137.569V29.5455H140.705ZM138.343 28.2386H139.629V33.3594C139.629 33.5322 139.655 33.6648 139.707 33.7571C139.761 33.8471 139.832 33.9086 139.92 33.9418C140.007 33.9749 140.104 33.9915 140.211 33.9915C140.291 33.9915 140.365 33.9856 140.431 33.9737C140.5 33.9619 140.552 33.9512 140.587 33.9418L140.804 34.9467C140.735 34.9704 140.637 34.9964 140.509 35.0249C140.384 35.0533 140.23 35.0698 140.048 35.0746C139.726 35.084 139.436 35.0355 139.178 34.929C138.92 34.8201 138.715 34.652 138.563 34.4247C138.414 34.1974 138.341 33.9134 138.343 33.5724V28.2386ZM143.182 27.7273V35H141.897V27.7273H143.182ZM146.919 35.1065C146.372 35.1065 145.9 34.9929 145.502 34.7656C145.107 34.536 144.803 34.2116 144.589 33.7926C144.376 33.3712 144.27 32.8752 144.27 32.3047C144.27 31.7436 144.376 31.2512 144.589 30.8274C144.805 30.4013 145.106 30.0698 145.491 29.8331C145.877 29.594 146.331 29.4744 146.852 29.4744C147.188 29.4744 147.505 29.5289 147.803 29.6378C148.104 29.7443 148.369 29.91 148.599 30.1349C148.831 30.3598 149.013 30.6463 149.146 30.9943C149.278 31.34 149.344 31.7519 149.344 32.2301V32.6243H144.874V31.7578H148.112C148.11 31.5116 148.057 31.2926 147.952 31.1009C147.848 30.9067 147.703 30.754 147.516 30.6428C147.331 30.5315 147.116 30.4759 146.869 30.4759C146.607 30.4759 146.376 30.5398 146.177 30.6676C145.978 30.7931 145.823 30.9588 145.712 31.1648C145.603 31.3684 145.547 31.5921 145.545 31.8359V32.5923C145.545 32.9096 145.603 33.1818 145.719 33.4091C145.835 33.634 145.997 33.8068 146.205 33.9276C146.414 34.0459 146.657 34.1051 146.937 34.1051C147.124 34.1051 147.293 34.0791 147.445 34.027C147.596 33.9725 147.728 33.8932 147.839 33.7891C147.95 33.6849 148.034 33.5559 148.091 33.402L149.291 33.5369C149.215 33.8542 149.071 34.1312 148.858 34.3679C148.647 34.6023 148.377 34.7846 148.048 34.9148C147.719 35.0426 147.343 35.1065 146.919 35.1065ZM155.292 35.1065C154.759 35.1065 154.297 34.9893 153.907 34.755C153.516 34.5206 153.213 34.1927 152.998 33.7713C152.785 33.3499 152.678 32.8575 152.678 32.294C152.678 31.7306 152.785 31.237 152.998 30.8132C153.213 30.3894 153.516 30.0604 153.907 29.826C154.297 29.5916 154.759 29.4744 155.292 29.4744C155.824 29.4744 156.286 29.5916 156.677 29.826C157.067 30.0604 157.369 30.3894 157.582 30.8132C157.798 31.237 157.905 31.7306 157.905 32.294C157.905 32.8575 157.798 33.3499 157.582 33.7713C157.369 34.1927 157.067 34.5206 156.677 34.755C156.286 34.9893 155.824 35.1065 155.292 35.1065ZM155.299 34.0767C155.588 34.0767 155.829 33.9974 156.023 33.8388C156.217 33.6778 156.362 33.4624 156.456 33.1925C156.554 32.9226 156.602 32.6219 156.602 32.2905C156.602 31.9567 156.554 31.6548 156.456 31.3849C156.362 31.1127 156.217 30.8961 156.023 30.7351C155.829 30.5741 155.588 30.4936 155.299 30.4936C155.003 30.4936 154.757 30.5741 154.56 30.7351C154.366 30.8961 154.22 31.1127 154.123 31.3849C154.029 31.6548 153.981 31.9567 153.981 32.2905C153.981 32.6219 154.029 32.9226 154.123 33.1925C154.22 33.4624 154.366 33.6778 154.56 33.8388C154.757 33.9974 155.003 34.0767 155.299 34.0767ZM161.759 29.5455V30.5398H158.535V29.5455H161.759ZM159.341 35V29.0305C159.341 28.6636 159.417 28.3582 159.568 28.1143C159.722 27.8705 159.928 27.6882 160.186 27.5675C160.444 27.4467 160.731 27.3864 161.045 27.3864C161.268 27.3864 161.466 27.4041 161.638 27.4396C161.811 27.4751 161.939 27.5071 162.022 27.5355L161.766 28.5298C161.712 28.5133 161.643 28.4967 161.56 28.4801C161.478 28.4612 161.385 28.4517 161.283 28.4517C161.044 28.4517 160.875 28.5097 160.776 28.6257C160.679 28.7393 160.63 28.9027 160.63 29.1158V35H159.341ZM167.97 29.5455V30.5398H164.835V29.5455H167.97ZM165.609 28.2386H166.894V33.3594C166.894 33.5322 166.92 33.6648 166.972 33.7571C167.027 33.8471 167.098 33.9086 167.185 33.9418C167.273 33.9749 167.37 33.9915 167.477 33.9915C167.557 33.9915 167.63 33.9856 167.697 33.9737C167.765 33.9619 167.817 33.9512 167.853 33.9418L168.07 34.9467C168.001 34.9704 167.903 34.9964 167.775 35.0249C167.649 35.0533 167.496 35.0698 167.313 35.0746C166.991 35.084 166.701 35.0355 166.443 34.929C166.185 34.8201 165.98 34.652 165.829 34.4247C165.68 34.1974 165.606 33.9134 165.609 33.5724V28.2386ZM170.448 31.804V35H169.162V27.7273H170.42V30.4723H170.483C170.611 30.1645 170.809 29.9219 171.077 29.7443C171.346 29.5644 171.69 29.4744 172.106 29.4744C172.485 29.4744 172.815 29.5537 173.097 29.7124C173.379 29.871 173.597 30.103 173.751 30.4084C173.907 30.7138 173.985 31.0866 173.985 31.527V35H172.699V31.7259C172.699 31.3589 172.605 31.0736 172.415 30.87C172.228 30.6641 171.965 30.5611 171.627 30.5611C171.4 30.5611 171.196 30.6108 171.016 30.7102C170.839 30.8073 170.699 30.9482 170.597 31.1328C170.498 31.3175 170.448 31.5412 170.448 31.804ZM177.71 35.1065C177.163 35.1065 176.691 34.9929 176.293 34.7656C175.898 34.536 175.594 34.2116 175.381 33.7926C175.167 33.3712 175.061 32.8752 175.061 32.3047C175.061 31.7436 175.167 31.2512 175.381 30.8274C175.596 30.4013 175.897 30.0698 176.282 29.8331C176.668 29.594 177.122 29.4744 177.643 29.4744C177.979 29.4744 178.296 29.5289 178.594 29.6378C178.895 29.7443 179.16 29.91 179.39 30.1349C179.622 30.3598 179.804 30.6463 179.937 30.9943C180.069 31.34 180.135 31.7519 180.135 32.2301V32.6243H175.665V31.7578H178.903C178.901 31.5116 178.848 31.2926 178.743 31.1009C178.639 30.9067 178.494 30.754 178.307 30.6428C178.122 30.5315 177.907 30.4759 177.66 30.4759C177.398 30.4759 177.167 30.5398 176.968 30.6676C176.769 30.7931 176.614 30.9588 176.503 31.1648C176.394 31.3684 176.338 31.5921 176.336 31.8359V32.5923C176.336 32.9096 176.394 33.1818 176.51 33.4091C176.626 33.634 176.788 33.8068 176.996 33.9276C177.205 34.0459 177.448 34.1051 177.728 34.1051C177.915 34.1051 178.084 34.0791 178.236 34.027C178.387 33.9725 178.519 33.8932 178.63 33.7891C178.741 33.6849 178.825 33.5559 178.882 33.402L180.082 33.5369C180.006 33.8542 179.862 34.1312 179.649 34.3679C179.438 34.6023 179.168 34.7846 178.839 34.9148C178.51 35.0426 178.134 35.1065 177.71 35.1065ZM186.118 35.1065C185.571 35.1065 185.099 34.9929 184.701 34.7656C184.306 34.536 184.002 34.2116 183.789 33.7926C183.576 33.3712 183.469 32.8752 183.469 32.3047C183.469 31.7436 183.576 31.2512 183.789 30.8274C184.004 30.4013 184.305 30.0698 184.691 29.8331C185.077 29.594 185.53 29.4744 186.051 29.4744C186.387 29.4744 186.704 29.5289 187.002 29.6378C187.303 29.7443 187.568 29.91 187.798 30.1349C188.03 30.3598 188.212 30.6463 188.345 30.9943C188.477 31.34 188.544 31.7519 188.544 32.2301V32.6243H184.073V31.7578H187.311C187.309 31.5116 187.256 31.2926 187.152 31.1009C187.047 30.9067 186.902 30.754 186.715 30.6428C186.53 30.5315 186.315 30.4759 186.069 30.4759C185.806 30.4759 185.575 30.5398 185.376 30.6676C185.177 30.7931 185.022 30.9588 184.911 31.1648C184.802 31.3684 184.746 31.5921 184.744 31.8359V32.5923C184.744 32.9096 184.802 33.1818 184.918 33.4091C185.034 33.634 185.196 33.8068 185.404 33.9276C185.613 34.0459 185.857 34.1051 186.136 34.1051C186.323 34.1051 186.492 34.0791 186.644 34.027C186.795 33.9725 186.927 33.8932 187.038 33.7891C187.149 33.6849 187.233 33.5559 187.29 33.402L188.49 33.5369C188.415 33.8542 188.27 34.1312 188.057 34.3679C187.846 34.6023 187.577 34.7846 187.248 34.9148C186.918 35.0426 186.542 35.1065 186.118 35.1065ZM194.347 29.5455L192.405 35H190.984L189.042 29.5455H190.412L191.666 33.5973H191.723L192.98 29.5455H194.347ZM197.466 35.1065C196.919 35.1065 196.447 34.9929 196.049 34.7656C195.654 34.536 195.349 34.2116 195.136 33.7926C194.923 33.3712 194.817 32.8752 194.817 32.3047C194.817 31.7436 194.923 31.2512 195.136 30.8274C195.352 30.4013 195.652 30.0698 196.038 29.8331C196.424 29.594 196.878 29.4744 197.398 29.4744C197.735 29.4744 198.052 29.5289 198.35 29.6378C198.651 29.7443 198.916 29.91 199.146 30.1349C199.378 30.3598 199.56 30.6463 199.692 30.9943C199.825 31.34 199.891 31.7519 199.891 32.2301V32.6243H195.42V31.7578H198.659C198.657 31.5116 198.603 31.2926 198.499 31.1009C198.395 30.9067 198.25 30.754 198.062 30.6428C197.878 30.5315 197.662 30.4759 197.416 30.4759C197.153 30.4759 196.923 30.5398 196.724 30.6676C196.525 30.7931 196.37 30.9588 196.259 31.1648C196.15 31.3684 196.094 31.5921 196.092 31.8359V32.5923C196.092 32.9096 196.15 33.1818 196.266 33.4091C196.382 33.634 196.544 33.8068 196.752 33.9276C196.96 34.0459 197.204 34.1051 197.484 34.1051C197.671 34.1051 197.84 34.0791 197.991 34.027C198.143 33.9725 198.274 33.8932 198.386 33.7891C198.497 33.6849 198.581 33.5559 198.638 33.402L199.838 33.5369C199.762 33.8542 199.618 34.1312 199.405 34.3679C199.194 34.6023 198.924 34.7846 198.595 34.9148C198.266 35.0426 197.89 35.1065 197.466 35.1065ZM202.264 31.804V35H200.979V29.5455H202.208V30.4723H202.271C202.397 30.1669 202.597 29.9242 202.872 29.7443C203.149 29.5644 203.491 29.4744 203.898 29.4744C204.274 29.4744 204.602 29.5549 204.882 29.7159C205.163 29.8769 205.381 30.1101 205.535 30.4155C205.691 30.7209 205.768 31.0914 205.766 31.527V35H204.48V31.7259C204.48 31.3613 204.386 31.076 204.196 30.87C204.009 30.6641 203.75 30.5611 203.419 30.5611C203.194 30.5611 202.994 30.6108 202.818 30.7102C202.646 30.8073 202.509 30.9482 202.41 31.1328C202.313 31.3175 202.264 31.5412 202.264 31.804ZM209.796 29.5455V30.5398H206.661V29.5455H209.796ZM207.435 28.2386H208.72V33.3594C208.72 33.5322 208.746 33.6648 208.798 33.7571C208.853 33.8471 208.924 33.9086 209.012 33.9418C209.099 33.9749 209.196 33.9915 209.303 33.9915C209.383 33.9915 209.457 33.9856 209.523 33.9737C209.592 33.9619 209.644 33.9512 209.679 33.9418L209.896 34.9467C209.827 34.9704 209.729 34.9964 209.601 35.0249C209.476 35.0533 209.322 35.0698 209.139 35.0746C208.817 35.084 208.527 35.0355 208.269 34.929C208.011 34.8201 207.807 34.652 207.655 34.4247C207.506 34.1974 207.432 33.9134 207.435 33.5724V28.2386ZM211.663 35.0781C211.448 35.0781 211.263 35.0024 211.109 34.8509C210.955 34.6993 210.88 34.5147 210.882 34.2969C210.88 34.0838 210.955 33.9015 211.109 33.75C211.263 33.5985 211.448 33.5227 211.663 33.5227C211.872 33.5227 212.053 33.5985 212.207 33.75C212.363 33.9015 212.442 34.0838 212.445 34.2969C212.442 34.4413 212.404 34.5727 212.331 34.6911C212.26 34.8094 212.165 34.9041 212.047 34.9751C211.931 35.0438 211.803 35.0781 211.663 35.0781Z" fill="var(--colors-neutral-neutral-800)"/>
<path d="M366.4 37.3077L365.692 36.6L371.292 31L365.692 25.4L366.4 24.6923L372 30.2923L377.6 24.6923L378.308 25.4L372.708 31L378.308 36.6L377.6 37.3077L372 31.7077L366.4 37.3077Z" fill="var(--colors-neutral-neutral-800)"/>
<path d="M60.179 72H59.2557L61.9261 64.7273H62.8352L65.5057 72H64.5824L62.4091 65.8778H62.3523L60.179 72ZM60.5199 69.1591H64.2415V69.9403H60.5199V69.1591ZM71.397 72.1136C70.9425 72.1136 70.5412 71.9988 70.1932 71.7692C69.8452 71.5372 69.5729 71.2105 69.3764 70.7891C69.1799 70.3653 69.0817 69.8646 69.0817 69.2869C69.0817 68.714 69.1799 68.2169 69.3764 67.7955C69.5729 67.3741 69.8464 67.0485 70.1967 66.8189C70.5471 66.5893 70.9519 66.4744 71.4112 66.4744C71.7663 66.4744 72.0469 66.5336 72.2528 66.652C72.4612 66.768 72.6198 66.9006 72.7287 67.0497C72.84 67.1965 72.9264 67.3172 72.9879 67.4119H73.0589V64.7273H73.897V72H73.0874V71.1619H72.9879C72.9264 71.2614 72.8388 71.3868 72.7251 71.5384C72.6115 71.6875 72.4493 71.8213 72.2386 71.9396C72.0279 72.0556 71.7474 72.1136 71.397 72.1136ZM71.5107 71.3608C71.8468 71.3608 72.1309 71.2732 72.3629 71.098C72.5949 70.9205 72.7713 70.6754 72.892 70.3629C73.0128 70.0481 73.0732 69.6847 73.0732 69.2727C73.0732 68.8655 73.014 68.5092 72.8956 68.2038C72.7772 67.8961 72.602 67.657 72.37 67.4865C72.138 67.3137 71.8516 67.2273 71.5107 67.2273C71.1555 67.2273 70.8596 67.3184 70.6229 67.5007C70.3885 67.6806 70.2121 67.9257 70.0938 68.2358C69.9777 68.5436 69.9197 68.8892 69.9197 69.2727C69.9197 69.661 69.9789 70.0137 70.0973 70.331C70.218 70.6458 70.3956 70.8968 70.63 71.0838C70.8667 71.2685 71.1603 71.3608 71.5107 71.3608ZM77.8352 72.1136C77.3097 72.1136 76.8563 71.9976 76.4751 71.7656C76.0964 71.5312 75.804 71.2045 75.598 70.7855C75.3944 70.3641 75.2926 69.8741 75.2926 69.3153C75.2926 68.7566 75.3944 68.2642 75.598 67.8381C75.804 67.4096 76.0904 67.0758 76.4574 66.8366C76.8267 66.5952 77.2576 66.4744 77.75 66.4744C78.0341 66.4744 78.3146 66.5218 78.5916 66.6165C78.8686 66.7112 79.1207 66.8651 79.348 67.0781C79.5753 67.2888 79.7564 67.5682 79.8913 67.9162C80.0263 68.2642 80.0938 68.6927 80.0938 69.2017V69.5568H75.8892V68.8324H79.2415C79.2415 68.5246 79.1799 68.25 79.0568 68.0085C78.9361 67.767 78.7633 67.5765 78.5384 67.4368C78.3158 67.2971 78.053 67.2273 77.75 67.2273C77.4162 67.2273 77.1274 67.3101 76.8835 67.4759C76.642 67.6392 76.4562 67.8523 76.326 68.1151C76.1958 68.3778 76.1307 68.6596 76.1307 68.9602V69.4432C76.1307 69.8551 76.2017 70.2043 76.3438 70.4908C76.4882 70.7749 76.6882 70.9915 76.9439 71.1406C77.1996 71.2874 77.4967 71.3608 77.8352 71.3608C78.0554 71.3608 78.2543 71.33 78.4318 71.2685C78.6117 71.2045 78.7668 71.1098 78.897 70.9844C79.0272 70.8565 79.1278 70.6979 79.1989 70.5085L80.0085 70.7358C79.9233 71.0104 79.7801 71.2519 79.5788 71.4602C79.3776 71.6662 79.129 71.8272 78.8331 71.9432C78.5372 72.0568 78.2045 72.1136 77.8352 72.1136ZM83.7408 66.5455V67.2557H80.9141V66.5455H83.7408ZM81.7379 65.2386H82.576V70.4375C82.576 70.6742 82.6103 70.8518 82.679 70.9702C82.75 71.0862 82.84 71.1643 82.9489 71.2045C83.0601 71.2424 83.1773 71.2614 83.3004 71.2614C83.3928 71.2614 83.4685 71.2566 83.5277 71.2472C83.5869 71.2353 83.6342 71.2259 83.6697 71.2188L83.8402 71.9716C83.7834 71.9929 83.7041 72.0142 83.6023 72.0355C83.5005 72.0592 83.3714 72.071 83.2152 72.071C82.9785 72.071 82.7464 72.0201 82.5192 71.9183C82.2943 71.8165 82.1072 71.6615 81.9581 71.4531C81.8113 71.2448 81.7379 70.982 81.7379 70.6648V65.2386ZM86.6065 72.1278C86.2609 72.1278 85.9472 72.0627 85.6655 71.9325C85.3838 71.8 85.16 71.6094 84.9943 71.3608C84.8286 71.1098 84.7457 70.8068 84.7457 70.4517C84.7457 70.1392 84.8073 69.8859 84.9304 69.6918C85.0535 69.4953 85.218 69.3414 85.424 69.2301C85.63 69.1188 85.8572 69.036 86.1058 68.9815C86.3568 68.9247 86.6089 68.8797 86.8622 68.8466C87.1937 68.804 87.4624 68.772 87.6683 68.7507C87.8767 68.727 88.0282 68.688 88.1229 68.6335C88.2199 68.5791 88.2685 68.4844 88.2685 68.3494V68.321C88.2685 67.9706 88.1726 67.6984 87.9808 67.5043C87.7914 67.3101 87.5038 67.2131 87.1179 67.2131C86.7178 67.2131 86.4041 67.3007 86.1768 67.4759C85.9496 67.651 85.7898 67.8381 85.6974 68.0369L84.902 67.7528C85.044 67.4214 85.2334 67.1634 85.4702 66.9787C85.7093 66.7917 85.9697 66.6615 86.2514 66.5881C86.5355 66.5123 86.8149 66.4744 87.0895 66.4744C87.2647 66.4744 87.4659 66.4957 87.6932 66.5384C87.9228 66.5786 88.1442 66.6626 88.3572 66.7905C88.5727 66.9183 88.7514 67.1113 88.8935 67.3693C89.0355 67.6274 89.1065 67.973 89.1065 68.4062V72H88.2685V71.2614H88.2259C88.169 71.3797 88.0743 71.5064 87.9418 71.6413C87.8092 71.7763 87.6328 71.8911 87.4126 71.9858C87.1925 72.0805 86.9238 72.1278 86.6065 72.1278ZM86.7344 71.375C87.0658 71.375 87.3452 71.3099 87.5724 71.1797C87.8021 71.0495 87.9749 70.8814 88.0909 70.6754C88.2093 70.4695 88.2685 70.2528 88.2685 70.0256V69.2585C88.233 69.3011 88.1548 69.3402 88.0341 69.3757C87.9157 69.4089 87.7784 69.4384 87.6222 69.4645C87.4683 69.4882 87.3179 69.5095 87.1712 69.5284C87.0268 69.545 86.9096 69.5592 86.8196 69.571C86.6018 69.5994 86.3982 69.6456 86.2088 69.7095C86.0218 69.7711 85.8703 69.8646 85.7543 69.9901C85.6406 70.1132 85.5838 70.2812 85.5838 70.4943C85.5838 70.7855 85.6915 71.0057 85.907 71.1548C86.1248 71.3016 86.4006 71.375 86.7344 71.375ZM90.6362 72V66.5455H91.4743V72H90.6362ZM91.0623 65.6364C90.899 65.6364 90.7581 65.5807 90.6397 65.4695C90.5237 65.3582 90.4657 65.2244 90.4657 65.0682C90.4657 64.9119 90.5237 64.7782 90.6397 64.6669C90.7581 64.5556 90.899 64.5 91.0623 64.5C91.2257 64.5 91.3654 64.5556 91.4814 64.6669C91.5997 64.7782 91.6589 64.9119 91.6589 65.0682C91.6589 65.2244 91.5997 65.3582 91.4814 65.4695C91.3654 65.5807 91.2257 65.6364 91.0623 65.6364ZM93.8473 64.7273V72H93.0092V64.7273H93.8473ZM97.6692 72.1136C97.1436 72.1136 96.6903 71.9976 96.3091 71.7656C95.9303 71.5312 95.638 71.2045 95.432 70.7855C95.2284 70.3641 95.1266 69.8741 95.1266 69.3153C95.1266 68.7566 95.2284 68.2642 95.432 67.8381C95.638 67.4096 95.9244 67.0758 96.2914 66.8366C96.6607 66.5952 97.0916 66.4744 97.584 66.4744C97.8681 66.4744 98.1486 66.5218 98.4256 66.6165C98.7026 66.7112 98.9547 66.8651 99.182 67.0781C99.4093 67.2888 99.5904 67.5682 99.7253 67.9162C99.8603 68.2642 99.9277 68.6927 99.9277 69.2017V69.5568H95.7232V68.8324H99.0755C99.0755 68.5246 99.0139 68.25 98.8908 68.0085C98.7701 67.767 98.5972 67.5765 98.3723 67.4368C98.1498 67.2971 97.887 67.2273 97.584 67.2273C97.2502 67.2273 96.9614 67.3101 96.7175 67.4759C96.476 67.6392 96.2902 67.8523 96.16 68.1151C96.0298 68.3778 95.9647 68.6596 95.9647 68.9602V69.4432C95.9647 69.8551 96.0357 70.2043 96.1777 70.4908C96.3221 70.7749 96.5222 70.9915 96.7779 71.1406C97.0336 71.2874 97.3307 71.3608 97.6692 71.3608C97.8894 71.3608 98.0882 71.33 98.2658 71.2685C98.4457 71.2045 98.6008 71.1098 98.731 70.9844C98.8612 70.8565 98.9618 70.6979 99.0328 70.5085L99.8425 70.7358C99.7573 71.0104 99.6141 71.2519 99.4128 71.4602C99.2116 71.6662 98.963 71.8272 98.6671 71.9432C98.3712 72.0568 98.0385 72.1136 97.6692 72.1136ZM103.262 72.1136C102.808 72.1136 102.406 71.9988 102.058 71.7692C101.71 71.5372 101.438 71.2105 101.242 70.7891C101.045 70.3653 100.947 69.8646 100.947 69.2869C100.947 68.714 101.045 68.2169 101.242 67.7955C101.438 67.3741 101.712 67.0485 102.062 66.8189C102.412 66.5893 102.817 66.4744 103.276 66.4744C103.632 66.4744 103.912 66.5336 104.118 66.652C104.326 66.768 104.485 66.9006 104.594 67.0497C104.705 67.1965 104.792 67.3172 104.853 67.4119H104.924V64.7273H105.762V72H104.953V71.1619H104.853C104.792 71.2614 104.704 71.3868 104.59 71.5384C104.477 71.6875 104.315 71.8213 104.104 71.9396C103.893 72.0556 103.613 72.1136 103.262 72.1136ZM103.376 71.3608C103.712 71.3608 103.996 71.2732 104.228 71.098C104.46 70.9205 104.637 70.6754 104.757 70.3629C104.878 70.0481 104.938 69.6847 104.938 69.2727C104.938 68.8655 104.879 68.5092 104.761 68.2038C104.642 67.8961 104.467 67.657 104.235 67.4865C104.003 67.3137 103.717 67.2273 103.376 67.2273C103.021 67.2273 102.725 67.3184 102.488 67.5007C102.254 67.6806 102.077 67.9257 101.959 68.2358C101.843 68.5436 101.785 68.8892 101.785 69.2727C101.785 69.661 101.844 70.0137 101.963 70.331C102.083 70.6458 102.261 70.8968 102.495 71.0838C102.732 71.2685 103.026 71.3608 103.376 71.3608ZM112.286 72.1136C111.831 72.1136 111.43 71.9988 111.082 71.7692C110.734 71.5372 110.462 71.2105 110.265 70.7891C110.069 70.3653 109.97 69.8646 109.97 69.2869C109.97 68.714 110.069 68.2169 110.265 67.7955C110.462 67.3741 110.735 67.0485 111.085 66.8189C111.436 66.5893 111.841 66.4744 112.3 66.4744C112.655 66.4744 112.936 66.5336 113.142 66.652C113.35 66.768 113.508 66.9006 113.617 67.0497C113.729 67.1965 113.815 67.3172 113.877 67.4119H113.948V64.7273H114.786V72H113.976V71.1619H113.877C113.815 71.2614 113.727 71.3868 113.614 71.5384C113.5 71.6875 113.338 71.8213 113.127 71.9396C112.917 72.0556 112.636 72.1136 112.286 72.1136ZM112.399 71.3608C112.735 71.3608 113.02 71.2732 113.252 71.098C113.484 70.9205 113.66 70.6754 113.781 70.3629C113.901 70.0481 113.962 69.6847 113.962 69.2727C113.962 68.8655 113.903 68.5092 113.784 68.2038C113.666 67.8961 113.491 67.657 113.259 67.4865C113.027 67.3137 112.74 67.2273 112.399 67.2273C112.044 67.2273 111.748 67.3184 111.512 67.5007C111.277 67.6806 111.101 67.9257 110.982 68.2358C110.866 68.5436 110.808 68.8892 110.808 69.2727C110.808 69.661 110.868 70.0137 110.986 70.331C111.107 70.6458 111.284 70.8968 111.519 71.0838C111.755 71.2685 112.049 71.3608 112.399 71.3608ZM118.724 72.1136C118.198 72.1136 117.745 71.9976 117.364 71.7656C116.985 71.5312 116.693 71.2045 116.487 70.7855C116.283 70.3641 116.181 69.8741 116.181 69.3153C116.181 68.7566 116.283 68.2642 116.487 67.8381C116.693 67.4096 116.979 67.0758 117.346 66.8366C117.715 66.5952 118.146 66.4744 118.639 66.4744C118.923 66.4744 119.203 66.5218 119.48 66.6165C119.757 66.7112 120.009 66.8651 120.237 67.0781C120.464 67.2888 120.645 67.5682 120.78 67.9162C120.915 68.2642 120.982 68.6927 120.982 69.2017V69.5568H116.778V68.8324H120.13C120.13 68.5246 120.069 68.25 119.945 68.0085C119.825 67.767 119.652 67.5765 119.427 67.4368C119.204 67.2971 118.942 67.2273 118.639 67.2273C118.305 67.2273 118.016 67.3101 117.772 67.4759C117.531 67.6392 117.345 67.8523 117.215 68.1151C117.084 68.3778 117.019 68.6596 117.019 68.9602V69.4432C117.019 69.8551 117.09 70.2043 117.232 70.4908C117.377 70.7749 117.577 70.9915 117.833 71.1406C118.088 71.2874 118.385 71.3608 118.724 71.3608C118.944 71.3608 119.143 71.33 119.32 71.2685C119.5 71.2045 119.655 71.1098 119.786 70.9844C119.916 70.8565 120.017 70.6979 120.088 70.5085L120.897 70.7358C120.812 71.0104 120.669 71.2519 120.468 71.4602C120.266 71.6662 120.018 71.8272 119.722 71.9432C119.426 72.0568 119.093 72.1136 118.724 72.1136ZM126.121 67.767L125.368 67.9801C125.321 67.8546 125.251 67.7327 125.159 67.6143C125.069 67.4936 124.945 67.3942 124.789 67.3161C124.633 67.2379 124.433 67.1989 124.189 67.1989C123.855 67.1989 123.577 67.2758 123.355 67.4297C123.134 67.5812 123.024 67.7741 123.024 68.0085C123.024 68.2169 123.1 68.3814 123.252 68.5021C123.403 68.6229 123.64 68.7235 123.962 68.804L124.771 69.0028C125.259 69.1212 125.623 69.3023 125.862 69.5462C126.101 69.7876 126.22 70.099 126.22 70.4801C126.22 70.7926 126.13 71.072 125.95 71.3182C125.773 71.5644 125.524 71.7585 125.205 71.9006C124.885 72.0426 124.513 72.1136 124.09 72.1136C123.533 72.1136 123.073 71.9929 122.708 71.7514C122.344 71.5099 122.113 71.1572 122.016 70.6932L122.811 70.4943C122.887 70.7879 123.03 71.008 123.241 71.1548C123.454 71.3016 123.732 71.375 124.075 71.375C124.466 71.375 124.776 71.2921 125.006 71.1264C125.238 70.9583 125.354 70.7571 125.354 70.5227C125.354 70.3333 125.288 70.1747 125.155 70.0469C125.022 69.9167 124.819 69.8196 124.544 69.7557L123.635 69.5426C123.136 69.4242 122.769 69.2408 122.534 68.9922C122.302 68.7412 122.186 68.4276 122.186 68.0511C122.186 67.7434 122.273 67.4711 122.445 67.2344C122.621 66.9976 122.859 66.8118 123.159 66.6768C123.462 66.5419 123.806 66.4744 124.189 66.4744C124.729 66.4744 125.153 66.5928 125.46 66.8295C125.771 67.0663 125.991 67.3788 126.121 67.767ZM129.698 72.1136C129.186 72.1136 128.746 71.9929 128.377 71.7514C128.007 71.5099 127.723 71.1773 127.525 70.7536C127.326 70.3298 127.226 69.8456 127.226 69.3011C127.226 68.7472 127.328 68.2583 127.532 67.8345C127.738 67.4084 128.024 67.0758 128.391 66.8366C128.76 66.5952 129.191 66.4744 129.684 66.4744C130.067 66.4744 130.413 66.5455 130.721 66.6875C131.028 66.8295 131.28 67.0284 131.477 67.2841C131.673 67.5398 131.795 67.8381 131.843 68.179H131.005C130.941 67.9304 130.799 67.7102 130.578 67.5185C130.361 67.3243 130.067 67.2273 129.698 67.2273C129.371 67.2273 129.085 67.3125 128.838 67.483C128.595 67.651 128.404 67.889 128.267 68.1967C128.132 68.5021 128.064 68.8608 128.064 69.2727C128.064 69.6941 128.131 70.0611 128.263 70.3736C128.398 70.6861 128.587 70.9287 128.831 71.1016C129.078 71.2744 129.366 71.3608 129.698 71.3608C129.916 71.3608 130.113 71.3229 130.291 71.2472C130.468 71.1714 130.619 71.0625 130.742 70.9205C130.865 70.7784 130.953 70.608 131.005 70.4091H131.843C131.795 70.7311 131.678 71.0211 131.491 71.2791C131.306 71.5348 131.061 71.7384 130.756 71.8899C130.453 72.0391 130.1 72.1136 129.698 72.1136ZM133.068 72V66.5455H133.877V67.3693H133.934C134.034 67.0994 134.214 66.8804 134.474 66.7124C134.734 66.5443 135.028 66.4602 135.355 66.4602C135.416 66.4602 135.493 66.4614 135.586 66.4638C135.678 66.4661 135.748 66.4697 135.795 66.4744V67.3267C135.767 67.3196 135.702 67.3089 135.6 67.2947C135.5 67.2782 135.395 67.2699 135.284 67.2699C135.019 67.2699 134.782 67.3255 134.574 67.4368C134.368 67.5457 134.204 67.6972 134.083 67.8913C133.965 68.0831 133.906 68.3021 133.906 68.5483V72H133.068ZM136.789 72V66.5455H137.627V72H136.789ZM137.215 65.6364C137.051 65.6364 136.91 65.5807 136.792 65.4695C136.676 65.3582 136.618 65.2244 136.618 65.0682C136.618 64.9119 136.676 64.7782 136.792 64.6669C136.91 64.5556 137.051 64.5 137.215 64.5C137.378 64.5 137.518 64.5556 137.634 64.6669C137.752 64.7782 137.811 64.9119 137.811 65.0682C137.811 65.2244 137.752 65.3582 137.634 65.4695C137.518 65.5807 137.378 65.6364 137.215 65.6364ZM139.162 74.0455V66.5455H139.971V67.4119H140.071C140.132 67.3172 140.217 67.1965 140.326 67.0497C140.438 66.9006 140.596 66.768 140.802 66.652C141.011 66.5336 141.292 66.4744 141.647 66.4744C142.107 66.4744 142.511 66.5893 142.862 66.8189C143.212 67.0485 143.486 67.3741 143.682 67.7955C143.879 68.2169 143.977 68.714 143.977 69.2869C143.977 69.8646 143.879 70.3653 143.682 70.7891C143.486 71.2105 143.213 71.5372 142.865 71.7692C142.517 71.9988 142.116 72.1136 141.662 72.1136C141.311 72.1136 141.031 72.0556 140.82 71.9396C140.609 71.8213 140.447 71.6875 140.333 71.5384C140.22 71.3868 140.132 71.2614 140.071 71.1619H140V74.0455H139.162ZM139.985 69.2727C139.985 69.6847 140.046 70.0481 140.167 70.3629C140.287 70.6754 140.464 70.9205 140.696 71.098C140.928 71.2732 141.212 71.3608 141.548 71.3608C141.898 71.3608 142.191 71.2685 142.425 71.0838C142.662 70.8968 142.839 70.6458 142.958 70.331C143.078 70.0137 143.139 69.661 143.139 69.2727C143.139 68.8892 143.08 68.5436 142.961 68.2358C142.845 67.9257 142.669 67.6806 142.432 67.5007C142.198 67.3184 141.903 67.2273 141.548 67.2273C141.207 67.2273 140.921 67.3137 140.689 67.4865C140.457 67.657 140.281 67.8961 140.163 68.2038C140.045 68.5092 139.985 68.8655 139.985 69.2727ZM147.627 66.5455V67.2557H144.801V66.5455H147.627ZM145.625 65.2386H146.463V70.4375C146.463 70.6742 146.497 70.8518 146.566 70.9702C146.637 71.0862 146.727 71.1643 146.836 71.2045C146.947 71.2424 147.064 71.2614 147.187 71.2614C147.279 71.2614 147.355 71.2566 147.414 71.2472C147.474 71.2353 147.521 71.2259 147.556 71.2188L147.727 71.9716C147.67 71.9929 147.591 72.0142 147.489 72.0355C147.387 72.0592 147.258 72.071 147.102 72.071C146.865 72.071 146.633 72.0201 146.406 71.9183C146.181 71.8165 145.994 71.6615 145.845 71.4531C145.698 71.2448 145.625 70.982 145.625 70.6648V65.2386ZM148.888 72V66.5455H149.726V72H148.888ZM149.314 65.6364C149.151 65.6364 149.01 65.5807 148.892 65.4695C148.776 65.3582 148.718 65.2244 148.718 65.0682C148.718 64.9119 148.776 64.7782 148.892 64.6669C149.01 64.5556 149.151 64.5 149.314 64.5C149.478 64.5 149.617 64.5556 149.733 64.6669C149.852 64.7782 149.911 64.9119 149.911 65.0682C149.911 65.2244 149.852 65.3582 149.733 65.4695C149.617 65.5807 149.478 65.6364 149.314 65.6364ZM153.477 72.1136C152.985 72.1136 152.553 71.9964 152.181 71.7621C151.812 71.5277 151.523 71.1998 151.314 70.7784C151.108 70.357 151.006 69.8646 151.006 69.3011C151.006 68.733 151.108 68.237 151.314 67.8132C151.523 67.3894 151.812 67.0604 152.181 66.826C152.553 66.5916 152.985 66.4744 153.477 66.4744C153.97 66.4744 154.4 66.5916 154.77 66.826C155.141 67.0604 155.43 67.3894 155.636 67.8132C155.845 68.237 155.949 68.733 155.949 69.3011C155.949 69.8646 155.845 70.357 155.636 70.7784C155.43 71.1998 155.141 71.5277 154.77 71.7621C154.4 71.9964 153.97 72.1136 153.477 72.1136ZM153.477 71.3608C153.851 71.3608 154.159 71.2649 154.4 71.0732C154.642 70.8814 154.821 70.6293 154.937 70.3168C155.053 70.0043 155.111 69.6657 155.111 69.3011C155.111 68.9366 155.053 68.5968 154.937 68.282C154.821 67.9671 154.642 67.7126 154.4 67.5185C154.159 67.3243 153.851 67.2273 153.477 67.2273C153.103 67.2273 152.795 67.3243 152.554 67.5185C152.312 67.7126 152.134 67.9671 152.018 68.282C151.902 68.5968 151.844 68.9366 151.844 69.3011C151.844 69.6657 151.902 70.0043 152.018 70.3168C152.134 70.6293 152.312 70.8814 152.554 71.0732C152.795 71.2649 153.103 71.3608 153.477 71.3608ZM158.066 68.7188V72H157.228V66.5455H158.038V67.3977H158.109C158.237 67.1207 158.431 66.8982 158.691 66.7301C158.951 66.5597 159.288 66.4744 159.7 66.4744C160.069 66.4744 160.392 66.5502 160.669 66.7017C160.946 66.8509 161.161 67.0781 161.315 67.3835C161.469 67.6866 161.546 68.0701 161.546 68.5341V72H160.708V68.5909C160.708 68.1624 160.597 67.8286 160.374 67.5895C160.152 67.348 159.846 67.2273 159.458 67.2273C159.191 67.2273 158.951 67.2853 158.741 67.4013C158.532 67.5173 158.368 67.6866 158.247 67.9091C158.126 68.1316 158.066 68.4015 158.066 68.7188ZM168.106 72.1136C167.614 72.1136 167.182 71.9964 166.81 71.7621C166.441 71.5277 166.152 71.1998 165.943 70.7784C165.737 70.357 165.634 69.8646 165.634 69.3011C165.634 68.733 165.737 68.237 165.943 67.8132C166.152 67.3894 166.441 67.0604 166.81 66.826C167.182 66.5916 167.614 66.4744 168.106 66.4744C168.598 66.4744 169.029 66.5916 169.399 66.826C169.77 67.0604 170.059 67.3894 170.265 67.8132C170.473 68.237 170.578 68.733 170.578 69.3011C170.578 69.8646 170.473 70.357 170.265 70.7784C170.059 71.1998 169.77 71.5277 169.399 71.7621C169.029 71.9964 168.598 72.1136 168.106 72.1136ZM168.106 71.3608C168.48 71.3608 168.788 71.2649 169.029 71.0732C169.271 70.8814 169.45 70.6293 169.566 70.3168C169.682 70.0043 169.74 69.6657 169.74 69.3011C169.74 68.9366 169.682 68.5968 169.566 68.282C169.45 67.9671 169.271 67.7126 169.029 67.5185C168.788 67.3243 168.48 67.2273 168.106 67.2273C167.732 67.2273 167.424 67.3243 167.183 67.5185C166.941 67.7126 166.762 67.9671 166.646 68.282C166.53 68.5968 166.472 68.9366 166.472 69.3011C166.472 69.6657 166.53 70.0043 166.646 70.3168C166.762 70.6293 166.941 70.8814 167.183 71.0732C167.424 71.2649 167.732 71.3608 168.106 71.3608ZM174.286 66.5455V67.2557H171.346V66.5455H174.286ZM172.226 72V65.7926C172.226 65.4801 172.3 65.2197 172.446 65.0114C172.593 64.803 172.784 64.6468 173.018 64.5426C173.252 64.4384 173.5 64.3864 173.76 64.3864C173.966 64.3864 174.134 64.4029 174.265 64.4361C174.395 64.4692 174.492 64.5 174.556 64.5284L174.314 65.2528C174.272 65.2386 174.212 65.2209 174.137 65.1996C174.063 65.1783 173.966 65.1676 173.846 65.1676C173.569 65.1676 173.368 65.2375 173.245 65.3771C173.125 65.5168 173.064 65.7216 173.064 65.9915V72H172.226ZM180.645 66.5455V67.2557H177.818V66.5455H180.645ZM178.642 65.2386H179.48V70.4375C179.48 70.6742 179.515 70.8518 179.583 70.9702C179.654 71.0862 179.744 71.1643 179.853 71.2045C179.964 71.2424 180.082 71.2614 180.205 71.2614C180.297 71.2614 180.373 71.2566 180.432 71.2472C180.491 71.2353 180.539 71.2259 180.574 71.2188L180.744 71.9716C180.688 71.9929 180.608 72.0142 180.507 72.0355C180.405 72.0592 180.276 72.071 180.119 72.071C179.883 72.071 179.651 72.0201 179.423 71.9183C179.199 71.8165 179.012 71.6615 178.862 71.4531C178.716 71.2448 178.642 70.982 178.642 70.6648V65.2386ZM182.861 68.7188V72H182.023V64.7273H182.861V67.3977H182.932C183.06 67.116 183.252 66.8923 183.507 66.7266C183.765 66.5585 184.109 66.4744 184.537 66.4744C184.909 66.4744 185.234 66.549 185.514 66.6982C185.793 66.8449 186.01 67.071 186.164 67.3764C186.32 67.6795 186.398 68.0653 186.398 68.5341V72H185.56V68.5909C185.56 68.1577 185.447 67.8227 185.222 67.5859C185 67.3468 184.691 67.2273 184.296 67.2273C184.021 67.2273 183.775 67.2853 183.557 67.4013C183.342 67.5173 183.171 67.6866 183.046 67.9091C182.923 68.1316 182.861 68.4015 182.861 68.7188ZM190.218 72.1136C189.692 72.1136 189.239 71.9976 188.858 71.7656C188.479 71.5312 188.187 71.2045 187.981 70.7855C187.777 70.3641 187.675 69.8741 187.675 69.3153C187.675 68.7566 187.777 68.2642 187.981 67.8381C188.187 67.4096 188.473 67.0758 188.84 66.8366C189.21 66.5952 189.64 66.4744 190.133 66.4744C190.417 66.4744 190.697 66.5218 190.974 66.6165C191.251 66.7112 191.504 66.8651 191.731 67.0781C191.958 67.2888 192.139 67.5682 192.274 67.9162C192.409 68.2642 192.477 68.6927 192.477 69.2017V69.5568H188.272V68.8324H191.624C191.624 68.5246 191.563 68.25 191.44 68.0085C191.319 67.767 191.146 67.5765 190.921 67.4368C190.699 67.2971 190.436 67.2273 190.133 67.2273C189.799 67.2273 189.51 67.3101 189.266 67.4759C189.025 67.6392 188.839 67.8523 188.709 68.1151C188.579 68.3778 188.513 68.6596 188.513 68.9602V69.4432C188.513 69.8551 188.585 70.2043 188.727 70.4908C188.871 70.7749 189.071 70.9915 189.327 71.1406C189.582 71.2874 189.879 71.3608 190.218 71.3608C190.438 71.3608 190.637 71.33 190.815 71.2685C190.995 71.2045 191.15 71.1098 191.28 70.9844C191.41 70.8565 191.511 70.6979 191.582 70.5085L192.391 70.7358C192.306 71.0104 192.163 71.2519 191.962 71.4602C191.76 71.6662 191.512 71.8272 191.216 71.9432C190.92 72.0568 190.587 72.1136 190.218 72.1136ZM198.851 72.1136C198.325 72.1136 197.872 71.9976 197.491 71.7656C197.112 71.5312 196.82 71.2045 196.614 70.7855C196.41 70.3641 196.308 69.8741 196.308 69.3153C196.308 68.7566 196.41 68.2642 196.614 67.8381C196.82 67.4096 197.106 67.0758 197.473 66.8366C197.842 66.5952 198.273 66.4744 198.766 66.4744C199.05 66.4744 199.33 66.5218 199.607 66.6165C199.884 66.7112 200.136 66.8651 200.364 67.0781C200.591 67.2888 200.772 67.5682 200.907 67.9162C201.042 68.2642 201.109 68.6927 201.109 69.2017V69.5568H196.905V68.8324H200.257C200.257 68.5246 200.196 68.25 200.072 68.0085C199.952 67.767 199.779 67.5765 199.554 67.4368C199.331 67.2971 199.069 67.2273 198.766 67.2273C198.432 67.2273 198.143 67.3101 197.899 67.4759C197.658 67.6392 197.472 67.8523 197.342 68.1151C197.211 68.3778 197.146 68.6596 197.146 68.9602V69.4432C197.146 69.8551 197.217 70.2043 197.359 70.4908C197.504 70.7749 197.704 70.9915 197.96 71.1406C198.215 71.2874 198.512 71.3608 198.851 71.3608C199.071 71.3608 199.27 71.33 199.447 71.2685C199.627 71.2045 199.782 71.1098 199.913 70.9844C200.043 70.8565 200.143 70.6979 200.214 70.5085L201.024 70.7358C200.939 71.0104 200.796 71.2519 200.594 71.4602C200.393 71.6662 200.145 71.8272 199.849 71.9432C199.553 72.0568 199.22 72.1136 198.851 72.1136ZM206.678 66.5455L204.661 72H203.809L201.792 66.5455H202.701L204.207 70.892H204.264L205.769 66.5455H206.678ZM209.876 72.1136C209.351 72.1136 208.897 71.9976 208.516 71.7656C208.137 71.5312 207.845 71.2045 207.639 70.7855C207.435 70.3641 207.334 69.8741 207.334 69.3153C207.334 68.7566 207.435 68.2642 207.639 67.8381C207.845 67.4096 208.131 67.0758 208.498 66.8366C208.868 66.5952 209.299 66.4744 209.791 66.4744C210.075 66.4744 210.356 66.5218 210.633 66.6165C210.91 66.7112 211.162 66.8651 211.389 67.0781C211.616 67.2888 211.797 67.5682 211.932 67.9162C212.067 68.2642 212.135 68.6927 212.135 69.2017V69.5568H207.93V68.8324H211.282C211.282 68.5246 211.221 68.25 211.098 68.0085C210.977 67.767 210.804 67.5765 210.579 67.4368C210.357 67.2971 210.094 67.2273 209.791 67.2273C209.457 67.2273 209.168 67.3101 208.925 67.4759C208.683 67.6392 208.497 67.8523 208.367 68.1151C208.237 68.3778 208.172 68.6596 208.172 68.9602V69.4432C208.172 69.8551 208.243 70.2043 208.385 70.4908C208.529 70.7749 208.729 70.9915 208.985 71.1406C209.241 71.2874 209.538 71.3608 209.876 71.3608C210.096 71.3608 210.295 71.33 210.473 71.2685C210.653 71.2045 210.808 71.1098 210.938 70.9844C211.068 70.8565 211.169 70.6979 211.24 70.5085L212.05 70.7358C211.964 71.0104 211.821 71.2519 211.62 71.4602C211.419 71.6662 211.17 71.8272 210.874 71.9432C210.578 72.0568 210.246 72.1136 209.876 72.1136ZM214.248 68.7188V72H213.41V66.5455H214.219V67.3977H214.29C214.418 67.1207 214.612 66.8982 214.873 66.7301C215.133 66.5597 215.469 66.4744 215.881 66.4744C216.251 66.4744 216.574 66.5502 216.851 66.7017C217.128 66.8509 217.343 67.0781 217.497 67.3835C217.651 67.6866 217.728 68.0701 217.728 68.5341V72H216.89V68.5909C216.89 68.1624 216.778 67.8286 216.556 67.5895C216.333 67.348 216.028 67.2273 215.64 67.2273C215.372 67.2273 215.133 67.2853 214.922 67.4013C214.714 67.5173 214.55 67.6866 214.429 67.9091C214.308 68.1316 214.248 68.4015 214.248 68.7188ZM221.631 66.5455V67.2557H218.805V66.5455H221.631ZM219.629 65.2386H220.467V70.4375C220.467 70.6742 220.501 70.8518 220.57 70.9702C220.641 71.0862 220.731 71.1643 220.839 71.2045C220.951 71.2424 221.068 71.2614 221.191 71.2614C221.283 71.2614 221.359 71.2566 221.418 71.2472C221.478 71.2353 221.525 71.2259 221.56 71.2188L221.731 71.9716C221.674 71.9929 221.595 72.0142 221.493 72.0355C221.391 72.0592 221.262 72.071 221.106 72.071C220.869 72.071 220.637 72.0201 220.41 71.9183C220.185 71.8165 219.998 71.6615 219.849 71.4531C219.702 71.2448 219.629 70.982 219.629 70.6648V65.2386ZM223.503 72.0568C223.328 72.0568 223.177 71.9941 223.052 71.8686C222.926 71.7431 222.864 71.5928 222.864 71.4176C222.864 71.2424 222.926 71.0921 223.052 70.9666C223.177 70.8411 223.328 70.7784 223.503 70.7784C223.678 70.7784 223.828 70.8411 223.954 70.9666C224.079 71.0921 224.142 71.2424 224.142 71.4176C224.142 71.5336 224.112 71.6402 224.053 71.7372C223.996 71.8343 223.92 71.9124 223.822 71.9716C223.728 72.0284 223.621 72.0568 223.503 72.0568Z" fill="var(--colors-neutral-neutral-800)"/>
<path d="M65.6477 85.7273V93H64.7955L60.8324 87.2898H60.7614V93H59.8807V85.7273H60.733L64.7102 91.4517H64.7812V85.7273H65.6477ZM69.5833 93.1136C69.0577 93.1136 68.6043 92.9976 68.2232 92.7656C67.8444 92.5312 67.552 92.2045 67.3461 91.7855C67.1425 91.3641 67.0407 90.8741 67.0407 90.3153C67.0407 89.7566 67.1425 89.2642 67.3461 88.8381C67.552 88.4096 67.8385 88.0758 68.2054 87.8366C68.5748 87.5952 69.0056 87.4744 69.498 87.4744C69.7821 87.4744 70.0627 87.5218 70.3397 87.6165C70.6167 87.7112 70.8688 87.8651 71.0961 88.0781C71.3233 88.2888 71.5044 88.5682 71.6394 88.9162C71.7743 89.2642 71.8418 89.6927 71.8418 90.2017V90.5568H67.6373V89.8324H70.9895C70.9895 89.5246 70.928 89.25 70.8049 89.0085C70.6841 88.767 70.5113 88.5765 70.2864 88.4368C70.0639 88.2971 69.8011 88.2273 69.498 88.2273C69.1642 88.2273 68.8754 88.3101 68.6316 88.4759C68.3901 88.6392 68.2042 88.8523 68.074 89.1151C67.9438 89.3778 67.8787 89.6596 67.8787 89.9602V90.4432C67.8787 90.8551 67.9498 91.2043 68.0918 91.4908C68.2362 91.7749 68.4363 91.9915 68.6919 92.1406C68.9476 92.2874 69.2447 92.3608 69.5833 92.3608C69.8034 92.3608 70.0023 92.33 70.1799 92.2685C70.3598 92.2045 70.5149 92.1098 70.6451 91.9844C70.7753 91.8565 70.8759 91.6979 70.9469 91.5085L71.7566 91.7358C71.6713 92.0104 71.5281 92.2519 71.3269 92.4602C71.1257 92.6662 70.8771 92.8272 70.5811 92.9432C70.2852 93.0568 69.9526 93.1136 69.5833 93.1136ZM75.4036 93.1136C74.878 93.1136 74.4247 92.9976 74.0435 92.7656C73.6647 92.5312 73.3723 92.2045 73.1664 91.7855C72.9628 91.3641 72.861 90.8741 72.861 90.3153C72.861 89.7566 72.9628 89.2642 73.1664 88.8381C73.3723 88.4096 73.6588 88.0758 74.0257 87.8366C74.3951 87.5952 74.8259 87.4744 75.3184 87.4744C75.6025 87.4744 75.883 87.5218 76.16 87.6165C76.437 87.7112 76.6891 87.8651 76.9164 88.0781C77.1436 88.2888 77.3248 88.5682 77.4597 88.9162C77.5946 89.2642 77.6621 89.6927 77.6621 90.2017V90.5568H73.4576V89.8324H76.8098C76.8098 89.5246 76.7483 89.25 76.6252 89.0085C76.5044 88.767 76.3316 88.5765 76.1067 88.4368C75.8842 88.2971 75.6214 88.2273 75.3184 88.2273C74.9846 88.2273 74.6957 88.3101 74.4519 88.4759C74.2104 88.6392 74.0246 88.8523 73.8944 89.1151C73.7641 89.3778 73.699 89.6596 73.699 89.9602V90.4432C73.699 90.8551 73.7701 91.2043 73.9121 91.4908C74.0565 91.7749 74.2566 91.9915 74.5123 92.1406C74.7679 92.2874 75.065 92.3608 75.4036 92.3608C75.6238 92.3608 75.8226 92.33 76.0002 92.2685C76.1801 92.2045 76.3352 92.1098 76.4654 91.9844C76.5956 91.8565 76.6962 91.6979 76.7672 91.5085L77.5769 91.7358C77.4917 92.0104 77.3484 92.2519 77.1472 92.4602C76.946 92.6662 76.6974 92.8272 76.4015 92.9432C76.1055 93.0568 75.7729 93.1136 75.4036 93.1136ZM80.9966 93.1136C80.5421 93.1136 80.1408 92.9988 79.7928 92.7692C79.4448 92.5372 79.1725 92.2105 78.976 91.7891C78.7795 91.3653 78.6813 90.8646 78.6813 90.2869C78.6813 89.714 78.7795 89.2169 78.976 88.7955C79.1725 88.3741 79.446 88.0485 79.7963 87.8189C80.1467 87.5893 80.5516 87.4744 81.0108 87.4744C81.3659 87.4744 81.6465 87.5336 81.8525 87.652C82.0608 87.768 82.2194 87.9006 82.3283 88.0497C82.4396 88.1965 82.526 88.3172 82.5875 88.4119H82.6586V85.7273H83.4966V93H82.687V92.1619H82.5875C82.526 92.2614 82.4384 92.3868 82.3248 92.5384C82.2111 92.6875 82.0489 92.8213 81.8382 92.9396C81.6275 93.0556 81.347 93.1136 80.9966 93.1136ZM81.1103 92.3608C81.4464 92.3608 81.7305 92.2732 81.9625 92.098C82.1945 91.9205 82.3709 91.6754 82.4917 91.3629C82.6124 91.0481 82.6728 90.6847 82.6728 90.2727C82.6728 89.8655 82.6136 89.5092 82.4952 89.2038C82.3768 88.8961 82.2016 88.657 81.9696 88.4865C81.7376 88.3137 81.4512 88.2273 81.1103 88.2273C80.7551 88.2273 80.4592 88.3184 80.2225 88.5007C79.9881 88.6806 79.8117 88.9257 79.6934 89.2358C79.5774 89.5436 79.5194 89.8892 79.5194 90.2727C79.5194 90.661 79.5785 91.0137 79.6969 91.331C79.8176 91.6458 79.9952 91.8968 80.2296 92.0838C80.4663 92.2685 80.7599 92.3608 81.1103 92.3608ZM90.3326 87.5455V88.2557H87.5059V87.5455H90.3326ZM88.3297 86.2386H89.1678V91.4375C89.1678 91.6742 89.2021 91.8518 89.2708 91.9702C89.3418 92.0862 89.4318 92.1643 89.5407 92.2045C89.6519 92.2424 89.7691 92.2614 89.8922 92.2614C89.9846 92.2614 90.0603 92.2566 90.1195 92.2472C90.1787 92.2353 90.226 92.2259 90.2615 92.2188L90.432 92.9716C90.3752 92.9929 90.2959 93.0142 90.1941 93.0355C90.0923 93.0592 89.9632 93.071 89.807 93.071C89.5703 93.071 89.3382 93.0201 89.111 92.9183C88.8861 92.8165 88.699 92.6615 88.5499 92.4531C88.4031 92.2448 88.3297 91.982 88.3297 91.6648V86.2386ZM93.7505 93.1136C93.2581 93.1136 92.8261 92.9964 92.4544 92.7621C92.085 92.5277 91.7962 92.1998 91.5879 91.7784C91.3819 91.357 91.2789 90.8646 91.2789 90.3011C91.2789 89.733 91.3819 89.237 91.5879 88.8132C91.7962 88.3894 92.085 88.0604 92.4544 87.826C92.8261 87.5916 93.2581 87.4744 93.7505 87.4744C94.243 87.4744 94.6738 87.5916 95.0431 87.826C95.4148 88.0604 95.7037 88.3894 95.9096 88.8132C96.118 89.237 96.2221 89.733 96.2221 90.3011C96.2221 90.8646 96.118 91.357 95.9096 91.7784C95.7037 92.1998 95.4148 92.5277 95.0431 92.7621C94.6738 92.9964 94.243 93.1136 93.7505 93.1136ZM93.7505 92.3608C94.1246 92.3608 94.4324 92.2649 94.6738 92.0732C94.9153 91.8814 95.094 91.6293 95.21 91.3168C95.3261 91.0043 95.3841 90.6657 95.3841 90.3011C95.3841 89.9366 95.3261 89.5968 95.21 89.282C95.094 88.9671 94.9153 88.7126 94.6738 88.5185C94.4324 88.3243 94.1246 88.2273 93.7505 88.2273C93.3765 88.2273 93.0687 88.3243 92.8272 88.5185C92.5858 88.7126 92.407 88.9671 92.291 89.282C92.175 89.5968 92.117 89.9366 92.117 90.3011C92.117 90.6657 92.175 91.0043 92.291 91.3168C92.407 91.6293 92.5858 91.8814 92.8272 92.0732C93.0687 92.2649 93.3765 92.3608 93.7505 92.3608ZM102.374 93.1136C101.919 93.1136 101.518 92.9988 101.17 92.7692C100.822 92.5372 100.549 92.2105 100.353 91.7891C100.156 91.3653 100.058 90.8646 100.058 90.2869C100.058 89.714 100.156 89.2169 100.353 88.7955C100.549 88.3741 100.823 88.0485 101.173 87.8189C101.524 87.5893 101.929 87.4744 102.388 87.4744C102.743 87.4744 103.023 87.5336 103.229 87.652C103.438 87.768 103.596 87.9006 103.705 88.0497C103.817 88.1965 103.903 88.3172 103.964 88.4119H104.036V85.7273H104.874V93H104.064V92.1619H103.964C103.903 92.2614 103.815 92.3868 103.702 92.5384C103.588 92.6875 103.426 92.8213 103.215 92.9396C103.004 93.0556 102.724 93.1136 102.374 93.1136ZM102.487 92.3608C102.823 92.3608 103.107 92.2732 103.339 92.098C103.571 91.9205 103.748 91.6754 103.869 91.3629C103.989 91.0481 104.05 90.6847 104.05 90.2727C104.05 89.8655 103.991 89.5092 103.872 89.2038C103.754 88.8961 103.579 88.657 103.347 88.4865C103.115 88.3137 102.828 88.2273 102.487 88.2273C102.132 88.2273 101.836 88.3184 101.599 88.5007C101.365 88.6806 101.189 88.9257 101.07 89.2358C100.954 89.5436 100.896 89.8892 100.896 90.2727C100.896 90.661 100.955 91.0137 101.074 91.331C101.195 91.6458 101.372 91.8968 101.607 92.0838C101.843 92.2685 102.137 92.3608 102.487 92.3608ZM108.741 93.1136C108.248 93.1136 107.816 92.9964 107.445 92.7621C107.075 92.5277 106.786 92.1998 106.578 91.7784C106.372 91.357 106.269 90.8646 106.269 90.3011C106.269 89.733 106.372 89.237 106.578 88.8132C106.786 88.3894 107.075 88.0604 107.445 87.826C107.816 87.5916 108.248 87.4744 108.741 87.4744C109.233 87.4744 109.664 87.5916 110.033 87.826C110.405 88.0604 110.694 88.3894 110.9 88.8132C111.108 89.237 111.212 89.733 111.212 90.3011C111.212 90.8646 111.108 91.357 110.9 91.7784C110.694 92.1998 110.405 92.5277 110.033 92.7621C109.664 92.9964 109.233 93.1136 108.741 93.1136ZM108.741 92.3608C109.115 92.3608 109.423 92.2649 109.664 92.0732C109.906 91.8814 110.084 91.6293 110.2 91.3168C110.316 91.0043 110.374 90.6657 110.374 90.3011C110.374 89.9366 110.316 89.5968 110.2 89.282C110.084 88.9671 109.906 88.7126 109.664 88.5185C109.423 88.3243 109.115 88.2273 108.741 88.2273C108.367 88.2273 108.059 88.3243 107.817 88.5185C107.576 88.7126 107.397 88.9671 107.281 89.282C107.165 89.5968 107.107 89.9366 107.107 90.3011C107.107 90.6657 107.165 91.0043 107.281 91.3168C107.397 91.6293 107.576 91.8814 107.817 92.0732C108.059 92.2649 108.367 92.3608 108.741 92.3608ZM113.542 93L111.88 87.5455H112.761L113.94 91.7216H113.996L115.161 87.5455H116.056L117.207 91.7074H117.263L118.442 87.5455H119.323L117.661 93H116.837L115.644 88.8097H115.559L114.366 93H113.542ZM121.269 89.7188V93H120.431V87.5455H121.241V88.3977H121.312C121.44 88.1207 121.634 87.8982 121.894 87.7301C122.155 87.5597 122.491 87.4744 122.903 87.4744C123.272 87.4744 123.595 87.5502 123.872 87.7017C124.149 87.8509 124.365 88.0781 124.518 88.3835C124.672 88.6866 124.749 89.0701 124.749 89.5341V93H123.911V89.5909C123.911 89.1624 123.8 88.8286 123.577 88.5895C123.355 88.348 123.049 88.2273 122.661 88.2273C122.394 88.2273 122.155 88.2853 121.944 88.4013C121.736 88.5173 121.571 88.6866 121.45 88.9091C121.33 89.1316 121.269 89.4015 121.269 89.7188ZM127.119 85.7273V93H126.281V85.7273H127.119ZM130.87 93.1136C130.377 93.1136 129.945 92.9964 129.574 92.7621C129.204 92.5277 128.915 92.1998 128.707 91.7784C128.501 91.357 128.398 90.8646 128.398 90.3011C128.398 89.733 128.501 89.237 128.707 88.8132C128.915 88.3894 129.204 88.0604 129.574 87.826C129.945 87.5916 130.377 87.4744 130.87 87.4744C131.362 87.4744 131.793 87.5916 132.162 87.826C132.534 88.0604 132.823 88.3894 133.029 88.8132C133.237 89.237 133.341 89.733 133.341 90.3011C133.341 90.8646 133.237 91.357 133.029 91.7784C132.823 92.1998 132.534 92.5277 132.162 92.7621C131.793 92.9964 131.362 93.1136 130.87 93.1136ZM130.87 92.3608C131.244 92.3608 131.551 92.2649 131.793 92.0732C132.034 91.8814 132.213 91.6293 132.329 91.3168C132.445 91.0043 132.503 90.6657 132.503 90.3011C132.503 89.9366 132.445 89.5968 132.329 89.282C132.213 88.9671 132.034 88.7126 131.793 88.5185C131.551 88.3243 131.244 88.2273 130.87 88.2273C130.496 88.2273 130.188 88.3243 129.946 88.5185C129.705 88.7126 129.526 88.9671 129.41 89.282C129.294 89.5968 129.236 89.9366 129.236 90.3011C129.236 90.6657 129.294 91.0043 129.41 91.3168C129.526 91.6293 129.705 91.8814 129.946 92.0732C130.188 92.2649 130.496 92.3608 130.87 92.3608ZM136.226 93.1278C135.88 93.1278 135.566 93.0627 135.285 92.9325C135.003 92.8 134.779 92.6094 134.613 92.3608C134.448 92.1098 134.365 91.8068 134.365 91.4517C134.365 91.1392 134.426 90.8859 134.55 90.6918C134.673 90.4953 134.837 90.3414 135.043 90.2301C135.249 90.1188 135.476 90.036 135.725 89.9815C135.976 89.9247 136.228 89.8797 136.481 89.8466C136.813 89.804 137.081 89.772 137.287 89.7507C137.496 89.727 137.647 89.688 137.742 89.6335C137.839 89.5791 137.888 89.4844 137.888 89.3494V89.321C137.888 88.9706 137.792 88.6984 137.6 88.5043C137.411 88.3101 137.123 88.2131 136.737 88.2131C136.337 88.2131 136.023 88.3007 135.796 88.4759C135.569 88.651 135.409 88.8381 135.317 89.0369L134.521 88.7528C134.663 88.4214 134.853 88.1634 135.089 87.9787C135.328 87.7917 135.589 87.6615 135.871 87.5881C136.155 87.5123 136.434 87.4744 136.709 87.4744C136.884 87.4744 137.085 87.4957 137.312 87.5384C137.542 87.5786 137.763 87.6626 137.976 87.7905C138.192 87.9183 138.371 88.1113 138.513 88.3693C138.655 88.6274 138.726 88.973 138.726 89.4062V93H137.888V92.2614H137.845C137.788 92.3797 137.693 92.5064 137.561 92.6413C137.428 92.7763 137.252 92.8911 137.032 92.9858C136.812 93.0805 136.543 93.1278 136.226 93.1278ZM136.354 92.375C136.685 92.375 136.964 92.3099 137.192 92.1797C137.421 92.0495 137.594 91.8814 137.71 91.6754C137.828 91.4695 137.888 91.2528 137.888 91.0256V90.2585C137.852 90.3011 137.774 90.3402 137.653 90.3757C137.535 90.4089 137.398 90.4384 137.241 90.4645C137.087 90.4882 136.937 90.5095 136.79 90.5284C136.646 90.545 136.529 90.5592 136.439 90.571C136.221 90.5994 136.017 90.6456 135.828 90.7095C135.641 90.7711 135.489 90.8646 135.373 90.9901C135.26 91.1132 135.203 91.2812 135.203 91.4943C135.203 91.7855 135.311 92.0057 135.526 92.1548C135.744 92.3016 136.02 92.375 136.354 92.375ZM142.315 93.1136C141.86 93.1136 141.459 92.9988 141.111 92.7692C140.763 92.5372 140.491 92.2105 140.294 91.7891C140.098 91.3653 140 90.8646 140 90.2869C140 89.714 140.098 89.2169 140.294 88.7955C140.491 88.3741 140.764 88.0485 141.115 87.8189C141.465 87.5893 141.87 87.4744 142.329 87.4744C142.684 87.4744 142.965 87.5336 143.171 87.652C143.379 87.768 143.538 87.9006 143.647 88.0497C143.758 88.1965 143.844 88.3172 143.906 88.4119H143.977V85.7273H144.815V93H144.005V92.1619H143.906C143.844 92.2614 143.757 92.3868 143.643 92.5384C143.529 92.6875 143.367 92.8213 143.157 92.9396C142.946 93.0556 142.665 93.1136 142.315 93.1136ZM142.429 92.3608C142.765 92.3608 143.049 92.2732 143.281 92.098C143.513 91.9205 143.689 91.6754 143.81 91.3629C143.931 91.0481 143.991 90.6847 143.991 90.2727C143.991 89.8655 143.932 89.5092 143.814 89.2038C143.695 88.8961 143.52 88.657 143.288 88.4865C143.056 88.3137 142.77 88.2273 142.429 88.2273C142.074 88.2273 141.778 88.3184 141.541 88.5007C141.306 88.6806 141.13 88.9257 141.012 89.2358C140.896 89.5436 140.838 89.8892 140.838 90.2727C140.838 90.661 140.897 91.0137 141.015 91.331C141.136 91.6458 141.314 91.8968 141.548 92.0838C141.785 92.2685 142.078 92.3608 142.429 92.3608ZM151.708 87.5455V88.2557H148.767V87.5455H151.708ZM149.648 93V86.7926C149.648 86.4801 149.721 86.2197 149.868 86.0114C150.015 85.803 150.206 85.6468 150.44 85.5426C150.674 85.4384 150.922 85.3864 151.182 85.3864C151.388 85.3864 151.556 85.4029 151.686 85.4361C151.817 85.4692 151.914 85.5 151.978 85.5284L151.736 86.2528C151.694 86.2386 151.634 86.2209 151.559 86.1996C151.485 86.1783 151.388 86.1676 151.267 86.1676C150.99 86.1676 150.79 86.2375 150.667 86.3771C150.547 86.5168 150.486 86.7216 150.486 86.9915V93H149.648ZM153.72 85.7273V93H152.882V85.7273H153.72ZM157.471 93.1136C156.979 93.1136 156.547 92.9964 156.175 92.7621C155.806 92.5277 155.517 92.1998 155.309 91.7784C155.103 91.357 155 90.8646 155 90.3011C155 89.733 155.103 89.237 155.309 88.8132C155.517 88.3894 155.806 88.0604 156.175 87.826C156.547 87.5916 156.979 87.4744 157.471 87.4744C157.964 87.4744 158.395 87.5916 158.764 87.826C159.136 88.0604 159.424 88.3894 159.63 88.8132C159.839 89.237 159.943 89.733 159.943 90.3011C159.943 90.8646 159.839 91.357 159.63 91.7784C159.424 92.1998 159.136 92.5277 158.764 92.7621C158.395 92.9964 157.964 93.1136 157.471 93.1136ZM157.471 92.3608C157.845 92.3608 158.153 92.2649 158.395 92.0732C158.636 91.8814 158.815 91.6293 158.931 91.3168C159.047 91.0043 159.105 90.6657 159.105 90.3011C159.105 89.9366 159.047 89.5968 158.931 89.282C158.815 88.9671 158.636 88.7126 158.395 88.5185C158.153 88.3243 157.845 88.2273 157.471 88.2273C157.097 88.2273 156.789 88.3243 156.548 88.5185C156.306 88.7126 156.128 88.9671 156.012 89.282C155.896 89.5968 155.838 89.9366 155.838 90.3011C155.838 90.6657 155.896 91.0043 156.012 91.3168C156.128 91.6293 156.306 91.8814 156.548 92.0732C156.789 92.2649 157.097 92.3608 157.471 92.3608ZM163.438 93.1136C162.946 93.1136 162.514 92.9964 162.142 92.7621C161.773 92.5277 161.484 92.1998 161.275 91.7784C161.069 91.357 160.966 90.8646 160.966 90.3011C160.966 89.733 161.069 89.237 161.275 88.8132C161.484 88.3894 161.773 88.0604 162.142 87.826C162.514 87.5916 162.946 87.4744 163.438 87.4744C163.93 87.4744 164.361 87.5916 164.731 87.826C165.102 88.0604 165.391 88.3894 165.597 88.8132C165.805 89.237 165.91 89.733 165.91 90.3011C165.91 90.8646 165.805 91.357 165.597 91.7784C165.391 92.1998 165.102 92.5277 164.731 92.7621C164.361 92.9964 163.93 93.1136 163.438 93.1136ZM163.438 92.3608C163.812 92.3608 164.12 92.2649 164.361 92.0732C164.603 91.8814 164.782 91.6293 164.898 91.3168C165.014 91.0043 165.072 90.6657 165.072 90.3011C165.072 89.9366 165.014 89.5968 164.898 89.282C164.782 88.9671 164.603 88.7126 164.361 88.5185C164.12 88.3243 163.812 88.2273 163.438 88.2273C163.064 88.2273 162.756 88.3243 162.515 88.5185C162.273 88.7126 162.095 88.9671 161.979 89.282C161.863 89.5968 161.805 89.9366 161.805 90.3011C161.805 90.6657 161.863 91.0043 161.979 91.3168C162.095 91.6293 162.273 91.8814 162.515 92.0732C162.756 92.2649 163.064 92.3608 163.438 92.3608ZM167.189 93V87.5455H167.999V88.3693H168.055C168.155 88.0994 168.335 87.8804 168.595 87.7124C168.856 87.5443 169.149 87.4602 169.476 87.4602C169.537 87.4602 169.614 87.4614 169.707 87.4638C169.799 87.4661 169.869 87.4697 169.916 87.4744V88.3267C169.888 88.3196 169.823 88.3089 169.721 88.2947C169.621 88.2782 169.516 88.2699 169.405 88.2699C169.14 88.2699 168.903 88.3255 168.695 88.4368C168.489 88.5457 168.325 88.6972 168.205 88.8913C168.086 89.0831 168.027 89.3021 168.027 89.5483V93H167.189ZM170.91 95.0455V87.5455H171.719V88.4119H171.819C171.88 88.3172 171.965 88.1965 172.074 88.0497C172.186 87.9006 172.344 87.768 172.55 87.652C172.759 87.5336 173.04 87.4744 173.395 87.4744C173.855 87.4744 174.26 87.5893 174.61 87.8189C174.96 88.0485 175.234 88.3741 175.43 88.7955C175.627 89.2169 175.725 89.714 175.725 90.2869C175.725 90.8646 175.627 91.3653 175.43 91.7891C175.234 92.2105 174.961 92.5372 174.613 92.7692C174.265 92.9988 173.864 93.1136 173.41 93.1136C173.059 93.1136 172.779 93.0556 172.568 92.9396C172.357 92.8213 172.195 92.6875 172.081 92.5384C171.968 92.3868 171.88 92.2614 171.819 92.1619H171.748V95.0455H170.91ZM171.733 90.2727C171.733 90.6847 171.794 91.0481 171.915 91.3629C172.035 91.6754 172.212 91.9205 172.444 92.098C172.676 92.2732 172.96 92.3608 173.296 92.3608C173.646 92.3608 173.939 92.2685 174.173 92.0838C174.41 91.8968 174.587 91.6458 174.706 91.331C174.827 91.0137 174.887 90.661 174.887 90.2727C174.887 89.8892 174.828 89.5436 174.709 89.2358C174.593 88.9257 174.417 88.6806 174.18 88.5007C173.946 88.3184 173.651 88.2273 173.296 88.2273C172.955 88.2273 172.669 88.3137 172.437 88.4865C172.205 88.657 172.029 88.8961 171.911 89.2038C171.793 89.5092 171.733 89.8655 171.733 90.2727ZM177.841 85.7273V93H177.003V85.7273H177.841ZM180.982 93.1278C180.636 93.1278 180.322 93.0627 180.04 92.9325C179.759 92.8 179.535 92.6094 179.369 92.3608C179.204 92.1098 179.121 91.8068 179.121 91.4517C179.121 91.1392 179.182 90.8859 179.305 90.6918C179.429 90.4953 179.593 90.3414 179.799 90.2301C180.005 90.1188 180.232 90.036 180.481 89.9815C180.732 89.9247 180.984 89.8797 181.237 89.8466C181.569 89.804 181.837 89.772 182.043 89.7507C182.252 89.727 182.403 89.688 182.498 89.6335C182.595 89.5791 182.643 89.4844 182.643 89.3494V89.321C182.643 88.9706 182.548 88.6984 182.356 88.5043C182.166 88.3101 181.879 88.2131 181.493 88.2131C181.093 88.2131 180.779 88.3007 180.552 88.4759C180.325 88.651 180.165 88.8381 180.072 89.0369L179.277 88.7528C179.419 88.4214 179.608 88.1634 179.845 87.9787C180.084 87.7917 180.345 87.6615 180.626 87.5881C180.911 87.5123 181.19 87.4744 181.464 87.4744C181.64 87.4744 181.841 87.4957 182.068 87.5384C182.298 87.5786 182.519 87.6626 182.732 87.7905C182.948 87.9183 183.126 88.1113 183.268 88.3693C183.411 88.6274 183.482 88.973 183.482 89.4062V93H182.643V92.2614H182.601C182.544 92.3797 182.449 92.5064 182.317 92.6413C182.184 92.7763 182.008 92.8911 181.788 92.9858C181.567 93.0805 181.299 93.1278 180.982 93.1278ZM181.109 92.375C181.441 92.375 181.72 92.3099 181.947 92.1797C182.177 92.0495 182.35 91.8814 182.466 91.6754C182.584 91.4695 182.643 91.2528 182.643 91.0256V90.2585C182.608 90.3011 182.53 90.3402 182.409 90.3757C182.291 90.4089 182.153 90.4384 181.997 90.4645C181.843 90.4882 181.693 90.5095 181.546 90.5284C181.402 90.545 181.285 90.5592 181.195 90.571C180.977 90.5994 180.773 90.6456 180.584 90.7095C180.397 90.7711 180.245 90.8646 180.129 90.9901C180.016 91.1132 179.959 91.2812 179.959 91.4943C179.959 91.7855 180.067 92.0057 180.282 92.1548C180.5 92.3016 180.776 92.375 181.109 92.375ZM185.849 89.7188V93H185.011V87.5455H185.821V88.3977H185.892C186.02 88.1207 186.214 87.8982 186.474 87.7301C186.735 87.5597 187.071 87.4744 187.483 87.4744C187.852 87.4744 188.175 87.5502 188.452 87.7017C188.729 87.8509 188.945 88.0781 189.099 88.3835C189.252 88.6866 189.329 89.0701 189.329 89.5341V93H188.491V89.5909C188.491 89.1624 188.38 88.8286 188.157 88.5895C187.935 88.348 187.63 88.2273 187.241 88.2273C186.974 88.2273 186.735 88.2853 186.524 88.4013C186.316 88.5173 186.151 88.6866 186.03 88.9091C185.91 89.1316 185.849 89.4015 185.849 89.7188ZM195.278 93.1278C194.933 93.1278 194.619 93.0627 194.337 92.9325C194.056 92.8 193.832 92.6094 193.666 92.3608C193.5 92.1098 193.418 91.8068 193.418 91.4517C193.418 91.1392 193.479 90.8859 193.602 90.6918C193.725 90.4953 193.89 90.3414 194.096 90.2301C194.302 90.1188 194.529 90.036 194.778 89.9815C195.029 89.9247 195.281 89.8797 195.534 89.8466C195.866 89.804 196.134 89.772 196.34 89.7507C196.549 89.727 196.7 89.688 196.795 89.6335C196.892 89.5791 196.94 89.4844 196.94 89.3494V89.321C196.94 88.9706 196.844 88.6984 196.653 88.5043C196.463 88.3101 196.176 88.2131 195.79 88.2131C195.39 88.2131 195.076 88.3007 194.849 88.4759C194.621 88.651 194.462 88.8381 194.369 89.0369L193.574 88.7528C193.716 88.4214 193.905 88.1634 194.142 87.9787C194.381 87.7917 194.642 87.6615 194.923 87.5881C195.207 87.5123 195.487 87.4744 195.761 87.4744C195.937 87.4744 196.138 87.4957 196.365 87.5384C196.595 87.5786 196.816 87.6626 197.029 87.7905C197.245 87.9183 197.423 88.1113 197.565 88.3693C197.707 88.6274 197.778 88.973 197.778 89.4062V93H196.94V92.2614H196.898C196.841 92.3797 196.746 92.5064 196.614 92.6413C196.481 92.7763 196.305 92.8911 196.085 92.9858C195.864 93.0805 195.596 93.1278 195.278 93.1278ZM195.406 92.375C195.738 92.375 196.017 92.3099 196.244 92.1797C196.474 92.0495 196.647 91.8814 196.763 91.6754C196.881 91.4695 196.94 91.2528 196.94 91.0256V90.2585C196.905 90.3011 196.827 90.3402 196.706 90.3757C196.588 90.4089 196.45 90.4384 196.294 90.4645C196.14 90.4882 195.99 90.5095 195.843 90.5284C195.699 90.545 195.581 90.5592 195.491 90.571C195.274 90.5994 195.07 90.6456 194.881 90.7095C194.694 90.7711 194.542 90.8646 194.426 90.9901C194.313 91.1132 194.256 91.2812 194.256 91.4943C194.256 91.7855 194.363 92.0057 194.579 92.1548C194.797 92.3016 195.072 92.375 195.406 92.375ZM200.146 89.7188V93H199.308V87.5455H200.118V88.3977H200.189C200.317 88.1207 200.511 87.8982 200.771 87.7301C201.032 87.5597 201.368 87.4744 201.78 87.4744C202.149 87.4744 202.472 87.5502 202.749 87.7017C203.026 87.8509 203.242 88.0781 203.395 88.3835C203.549 88.6866 203.626 89.0701 203.626 89.5341V93H202.788V89.5909C202.788 89.1624 202.677 88.8286 202.454 88.5895C202.232 88.348 201.926 88.2273 201.538 88.2273C201.271 88.2273 201.032 88.2853 200.821 88.4013C200.613 88.5173 200.448 88.6866 200.327 88.9091C200.206 89.1316 200.146 89.4015 200.146 89.7188ZM207.217 93.1136C206.763 93.1136 206.362 92.9988 206.013 92.7692C205.665 92.5372 205.393 92.2105 205.197 91.7891C205 91.3653 204.902 90.8646 204.902 90.2869C204.902 89.714 205 89.2169 205.197 88.7955C205.393 88.3741 205.667 88.0485 206.017 87.8189C206.367 87.5893 206.772 87.4744 207.232 87.4744C207.587 87.4744 207.867 87.5336 208.073 87.652C208.281 87.768 208.44 87.9006 208.549 88.0497C208.66 88.1965 208.747 88.3172 208.808 88.4119H208.879V85.7273H209.717V93H208.908V92.1619H208.808C208.747 92.2614 208.659 92.3868 208.545 92.5384C208.432 92.6875 208.27 92.8213 208.059 92.9396C207.848 93.0556 207.568 93.1136 207.217 93.1136ZM207.331 92.3608C207.667 92.3608 207.951 92.2732 208.183 92.098C208.415 91.9205 208.592 91.6754 208.712 91.3629C208.833 91.0481 208.893 90.6847 208.893 90.2727C208.893 89.8655 208.834 89.5092 208.716 89.2038C208.598 88.8961 208.422 88.657 208.19 88.4865C207.958 88.3137 207.672 88.2273 207.331 88.2273C206.976 88.2273 206.68 88.3184 206.443 88.5007C206.209 88.6806 206.032 88.9257 205.914 89.2358C205.798 89.5436 205.74 89.8892 205.74 90.2727C205.74 90.661 205.799 91.0137 205.918 91.331C206.038 91.6458 206.216 91.8968 206.45 92.0838C206.687 92.2685 206.981 92.3608 207.331 92.3608ZM218.045 88.767L217.292 88.9801C217.245 88.8546 217.175 88.7327 217.082 88.6143C216.992 88.4936 216.869 88.3942 216.713 88.3161C216.557 88.2379 216.357 88.1989 216.113 88.1989C215.779 88.1989 215.501 88.2758 215.278 88.4297C215.058 88.5812 214.948 88.7741 214.948 89.0085C214.948 89.2169 215.024 89.3814 215.175 89.5021C215.327 89.6229 215.564 89.7235 215.886 89.804L216.695 90.0028C217.183 90.1212 217.546 90.3023 217.786 90.5462C218.025 90.7876 218.144 91.099 218.144 91.4801C218.144 91.7926 218.054 92.072 217.874 92.3182C217.697 92.5644 217.448 92.7585 217.129 92.9006C216.809 93.0426 216.437 93.1136 216.013 93.1136C215.457 93.1136 214.997 92.9929 214.632 92.7514C214.268 92.5099 214.037 92.1572 213.94 91.6932L214.735 91.4943C214.811 91.7879 214.954 92.008 215.165 92.1548C215.378 92.3016 215.656 92.375 215.999 92.375C216.39 92.375 216.7 92.2921 216.93 92.1264C217.162 91.9583 217.278 91.7571 217.278 91.5227C217.278 91.3333 217.211 91.1747 217.079 91.0469C216.946 90.9167 216.743 90.8196 216.468 90.7557L215.559 90.5426C215.059 90.4242 214.692 90.2408 214.458 89.9922C214.226 89.7412 214.11 89.4276 214.11 89.0511C214.11 88.7434 214.196 88.4711 214.369 88.2344C214.545 87.9976 214.782 87.8118 215.083 87.6768C215.386 87.5419 215.729 87.4744 216.113 87.4744C216.653 87.4744 217.076 87.5928 217.384 87.8295C217.694 88.0663 217.915 88.3788 218.045 88.767ZM221.693 93.1136C221.167 93.1136 220.714 92.9976 220.333 92.7656C219.954 92.5312 219.661 92.2045 219.455 91.7855C219.252 91.3641 219.15 90.8741 219.15 90.3153C219.15 89.7566 219.252 89.2642 219.455 88.8381C219.661 88.4096 219.948 88.0758 220.315 87.8366C220.684 87.5952 221.115 87.4744 221.607 87.4744C221.892 87.4744 222.172 87.5218 222.449 87.6165C222.726 87.7112 222.978 87.8651 223.205 88.0781C223.433 88.2888 223.614 88.5682 223.749 88.9162C223.884 89.2642 223.951 89.6927 223.951 90.2017V90.5568H219.747V89.8324H223.099C223.099 89.5246 223.037 89.25 222.914 89.0085C222.794 88.767 222.621 88.5765 222.396 88.4368C222.173 88.2971 221.91 88.2273 221.607 88.2273C221.274 88.2273 220.985 88.3101 220.741 88.4759C220.499 88.6392 220.314 88.8523 220.183 89.1151C220.053 89.3778 219.988 89.6596 219.988 89.9602V90.4432C219.988 90.8551 220.059 91.2043 220.201 91.4908C220.346 91.7749 220.546 91.9915 220.801 92.1406C221.057 92.2874 221.354 92.3608 221.693 92.3608C221.913 92.3608 222.112 92.33 222.289 92.2685C222.469 92.2045 222.624 92.1098 222.754 91.9844C222.885 91.8565 222.985 91.6979 223.056 91.5085L223.866 91.7358C223.781 92.0104 223.637 92.2519 223.436 92.4602C223.235 92.6662 222.986 92.8272 222.691 92.9432C222.395 93.0568 222.062 93.1136 221.693 93.1136ZM226.064 89.7188V93H225.226V87.5455H226.036V88.3977H226.107C226.235 88.1207 226.429 87.8982 226.689 87.7301C226.95 87.5597 227.286 87.4744 227.698 87.4744C228.067 87.4744 228.39 87.5502 228.667 87.7017C228.944 87.8509 229.16 88.0781 229.313 88.3835C229.467 88.6866 229.544 89.0701 229.544 89.5341V93H228.706V89.5909C228.706 89.1624 228.595 88.8286 228.372 88.5895C228.15 88.348 227.844 88.2273 227.456 88.2273C227.189 88.2273 226.95 88.2853 226.739 88.4013C226.53 88.5173 226.366 88.6866 226.245 88.9091C226.124 89.1316 226.064 89.4015 226.064 89.7188ZM233.135 93.1136C232.681 93.1136 232.279 92.9988 231.931 92.7692C231.583 92.5372 231.311 92.2105 231.115 91.7891C230.918 91.3653 230.82 90.8646 230.82 90.2869C230.82 89.714 230.918 89.2169 231.115 88.7955C231.311 88.3741 231.585 88.0485 231.935 87.8189C232.285 87.5893 232.69 87.4744 233.15 87.4744C233.505 87.4744 233.785 87.5336 233.991 87.652C234.199 87.768 234.358 87.9006 234.467 88.0497C234.578 88.1965 234.665 88.3172 234.726 88.4119H234.797V85.7273H235.635V93H234.826V92.1619H234.726C234.665 92.2614 234.577 92.3868 234.463 92.5384C234.35 92.6875 234.188 92.8213 233.977 92.9396C233.766 93.0556 233.486 93.1136 233.135 93.1136ZM233.249 92.3608C233.585 92.3608 233.869 92.2732 234.101 92.098C234.333 91.9205 234.51 91.6754 234.63 91.3629C234.751 91.0481 234.811 90.6847 234.811 90.2727C234.811 89.8655 234.752 89.5092 234.634 89.2038C234.516 88.8961 234.34 88.657 234.108 88.4865C233.876 88.3137 233.59 88.2273 233.249 88.2273C232.894 88.2273 232.598 88.3184 232.361 88.5007C232.127 88.6806 231.95 88.9257 231.832 89.2358C231.716 89.5436 231.658 89.8892 231.658 90.2727C231.658 90.661 231.717 91.0137 231.836 91.331C231.956 91.6458 232.134 91.8968 232.368 92.0838C232.605 92.2685 232.899 92.3608 233.249 92.3608ZM240.099 93V87.5455H240.937V93H240.099ZM240.525 86.6364C240.362 86.6364 240.221 86.5807 240.103 86.4695C239.987 86.3582 239.929 86.2244 239.929 86.0682C239.929 85.9119 239.987 85.7782 240.103 85.6669C240.221 85.5556 240.362 85.5 240.525 85.5C240.689 85.5 240.828 85.5556 240.944 85.6669C241.063 85.7782 241.122 85.9119 241.122 86.0682C241.122 86.2244 241.063 86.3582 240.944 86.4695C240.828 86.5807 240.689 86.6364 240.525 86.6364ZM244.844 87.5455V88.2557H242.018V87.5455H244.844ZM242.841 86.2386H243.68V91.4375C243.68 91.6742 243.714 91.8518 243.782 91.9702C243.854 92.0862 243.943 92.1643 244.052 92.2045C244.164 92.2424 244.281 92.2614 244.404 92.2614C244.496 92.2614 244.572 92.2566 244.631 92.2472C244.69 92.2353 244.738 92.2259 244.773 92.2188L244.944 92.9716C244.887 92.9929 244.808 93.0142 244.706 93.0355C244.604 93.0592 244.475 93.071 244.319 93.071C244.082 93.071 243.85 93.0201 243.623 92.9183C243.398 92.8165 243.211 92.6615 243.062 92.4531C242.915 92.2448 242.841 91.982 242.841 91.6648V86.2386ZM251.29 87.5455V88.2557H248.463V87.5455H251.29ZM249.287 86.2386H250.125V91.4375C250.125 91.6742 250.159 91.8518 250.228 91.9702C250.299 92.0862 250.389 92.1643 250.498 92.2045C250.609 92.2424 250.726 92.2614 250.849 92.2614C250.942 92.2614 251.017 92.2566 251.077 92.2472C251.136 92.2353 251.183 92.2259 251.219 92.2188L251.389 92.9716C251.332 92.9929 251.253 93.0142 251.151 93.0355C251.049 93.0592 250.92 93.071 250.764 93.071C250.527 93.071 250.295 93.0201 250.068 92.9183C249.843 92.8165 249.656 92.6615 249.507 92.4531C249.36 92.2448 249.287 91.982 249.287 91.6648V86.2386ZM254.708 93.1136C254.215 93.1136 253.783 92.9964 253.411 92.7621C253.042 92.5277 252.753 92.1998 252.545 91.7784C252.339 91.357 252.236 90.8646 252.236 90.3011C252.236 89.733 252.339 89.237 252.545 88.8132C252.753 88.3894 253.042 88.0604 253.411 87.826C253.783 87.5916 254.215 87.4744 254.708 87.4744C255.2 87.4744 255.631 87.5916 256 87.826C256.372 88.0604 256.661 88.3894 256.867 88.8132C257.075 89.237 257.179 89.733 257.179 90.3011C257.179 90.8646 257.075 91.357 256.867 91.7784C256.661 92.1998 256.372 92.5277 256 92.7621C255.631 92.9964 255.2 93.1136 254.708 93.1136ZM254.708 92.3608C255.082 92.3608 255.389 92.2649 255.631 92.0732C255.872 91.8814 256.051 91.6293 256.167 91.3168C256.283 91.0043 256.341 90.6657 256.341 90.3011C256.341 89.9366 256.283 89.5968 256.167 89.282C256.051 88.9671 255.872 88.7126 255.631 88.5185C255.389 88.3243 255.082 88.2273 254.708 88.2273C254.334 88.2273 254.026 88.3243 253.784 88.5185C253.543 88.7126 253.364 88.9671 253.248 89.282C253.132 89.5968 253.074 89.9366 253.074 90.3011C253.074 90.6657 253.132 91.0043 253.248 91.3168C253.364 91.6293 253.543 91.8814 253.784 92.0732C254.026 92.2649 254.334 92.3608 254.708 92.3608ZM263.643 87.5455V88.2557H260.816V87.5455H263.643ZM261.64 86.2386H262.478V91.4375C262.478 91.6742 262.513 91.8518 262.581 91.9702C262.652 92.0862 262.742 92.1643 262.851 92.2045C262.962 92.2424 263.08 92.2614 263.203 92.2614C263.295 92.2614 263.371 92.2566 263.43 92.2472C263.489 92.2353 263.537 92.2259 263.572 92.2188L263.743 92.9716C263.686 92.9929 263.606 93.0142 263.505 93.0355C263.403 93.0592 263.274 93.071 263.118 93.071C262.881 93.071 262.649 93.0201 262.422 92.9183C262.197 92.8165 262.01 92.6615 261.86 92.4531C261.714 92.2448 261.64 91.982 261.64 91.6648V86.2386ZM265.859 89.7188V93H265.021V85.7273H265.859V88.3977H265.93C266.058 88.116 266.25 87.8923 266.505 87.7266C266.763 87.5585 267.107 87.4744 267.535 87.4744C267.907 87.4744 268.232 87.549 268.512 87.6982C268.791 87.8449 269.008 88.071 269.162 88.3764C269.318 88.6795 269.396 89.0653 269.396 89.5341V93H268.558V89.5909C268.558 89.1577 268.445 88.8227 268.221 88.5859C267.998 88.3468 267.689 88.2273 267.294 88.2273C267.019 88.2273 266.773 88.2853 266.555 88.4013C266.34 88.5173 266.169 88.6866 266.044 88.9091C265.921 89.1316 265.859 89.4015 265.859 89.7188ZM273.216 93.1136C272.691 93.1136 272.237 92.9976 271.856 92.7656C271.477 92.5312 271.185 92.2045 270.979 91.7855C270.775 91.3641 270.673 90.8741 270.673 90.3153C270.673 89.7566 270.775 89.2642 270.979 88.8381C271.185 88.4096 271.471 88.0758 271.838 87.8366C272.208 87.5952 272.638 87.4744 273.131 87.4744C273.415 87.4744 273.695 87.5218 273.972 87.6165C274.249 87.7112 274.502 87.8651 274.729 88.0781C274.956 88.2888 275.137 88.5682 275.272 88.9162C275.407 89.2642 275.475 89.6927 275.475 90.2017V90.5568H271.27V89.8324H274.622C274.622 89.5246 274.561 89.25 274.438 89.0085C274.317 88.767 274.144 88.5765 273.919 88.4368C273.697 88.2971 273.434 88.2273 273.131 88.2273C272.797 88.2273 272.508 88.3101 272.264 88.4759C272.023 88.6392 271.837 88.8523 271.707 89.1151C271.577 89.3778 271.512 89.6596 271.512 89.9602V90.4432C271.512 90.8551 271.583 91.2043 271.725 91.4908C271.869 91.7749 272.069 91.9915 272.325 92.1406C272.58 92.2874 272.878 92.3608 273.216 92.3608C273.436 92.3608 273.635 92.33 273.813 92.2685C273.993 92.2045 274.148 92.1098 274.278 91.9844C274.408 91.8565 274.509 91.6979 274.58 91.5085L275.389 91.7358C275.304 92.0104 275.161 92.2519 274.96 92.4602C274.758 92.6662 274.51 92.8272 274.214 92.9432C273.918 93.0568 273.585 93.1136 273.216 93.1136ZM283.426 88.767L282.673 88.9801C282.625 88.8546 282.556 88.7327 282.463 88.6143C282.373 88.4936 282.25 88.3942 282.094 88.3161C281.938 88.2379 281.738 88.1989 281.494 88.1989C281.16 88.1989 280.882 88.2758 280.659 88.4297C280.439 88.5812 280.329 88.7741 280.329 89.0085C280.329 89.2169 280.405 89.3814 280.556 89.5021C280.708 89.6229 280.945 89.7235 281.267 89.804L282.076 90.0028C282.564 90.1212 282.927 90.3023 283.166 90.5462C283.405 90.7876 283.525 91.099 283.525 91.4801C283.525 91.7926 283.435 92.072 283.255 92.3182C283.078 92.5644 282.829 92.7585 282.509 92.9006C282.19 93.0426 281.818 93.1136 281.394 93.1136C280.838 93.1136 280.378 92.9929 280.013 92.7514C279.648 92.5099 279.418 92.1572 279.32 91.6932L280.116 91.4943C280.192 91.7879 280.335 92.008 280.546 92.1548C280.759 92.3016 281.037 92.375 281.38 92.375C281.771 92.375 282.081 92.2921 282.311 92.1264C282.543 91.9583 282.659 91.7571 282.659 91.5227C282.659 91.3333 282.592 91.1747 282.46 91.0469C282.327 90.9167 282.124 90.8196 281.849 90.7557L280.94 90.5426C280.44 90.4242 280.073 90.2408 279.839 89.9922C279.607 89.7412 279.491 89.4276 279.491 89.0511C279.491 88.7434 279.577 88.4711 279.75 88.2344C279.925 87.9976 280.163 87.8118 280.464 87.6768C280.767 87.5419 281.11 87.4744 281.494 87.4744C282.034 87.4744 282.457 87.5928 282.765 87.8295C283.075 88.0663 283.295 88.3788 283.426 88.767ZM288.224 90.7699V87.5455H289.062V93H288.224V92.0767H288.167C288.039 92.3537 287.841 92.5893 287.571 92.7834C287.301 92.9751 286.96 93.071 286.548 93.071C286.207 93.071 285.904 92.9964 285.639 92.8473C285.374 92.6958 285.165 92.4685 285.014 92.1655C284.862 91.8601 284.787 91.4754 284.787 91.0114V87.5455H285.625V90.9545C285.625 91.3523 285.736 91.6695 285.958 91.9062C286.183 92.143 286.47 92.2614 286.818 92.2614C287.026 92.2614 287.238 92.2081 287.453 92.1016C287.671 91.995 287.854 91.8317 288 91.6115C288.15 91.3913 288.224 91.1108 288.224 90.7699ZM290.597 95.0455V87.5455H291.407V88.4119H291.506C291.568 88.3172 291.653 88.1965 291.762 88.0497C291.873 87.9006 292.032 87.768 292.238 87.652C292.446 87.5336 292.728 87.4744 293.083 87.4744C293.542 87.4744 293.947 87.5893 294.297 87.8189C294.648 88.0485 294.921 88.3741 295.118 88.7955C295.314 89.2169 295.412 89.714 295.412 90.2869C295.412 90.8646 295.314 91.3653 295.118 91.7891C294.921 92.2105 294.649 92.5372 294.301 92.7692C293.953 92.9988 293.552 93.1136 293.097 93.1136C292.747 93.1136 292.466 93.0556 292.256 92.9396C292.045 92.8213 291.883 92.6875 291.769 92.5384C291.655 92.3868 291.568 92.2614 291.506 92.1619H291.435V95.0455H290.597ZM291.421 90.2727C291.421 90.6847 291.481 91.0481 291.602 91.3629C291.723 91.6754 291.899 91.9205 292.131 92.098C292.363 92.2732 292.647 92.3608 292.983 92.3608C293.334 92.3608 293.626 92.2685 293.861 92.0838C294.097 91.8968 294.275 91.6458 294.393 91.331C294.514 91.0137 294.574 90.661 294.574 90.2727C294.574 89.8892 294.515 89.5436 294.397 89.2358C294.281 88.9257 294.104 88.6806 293.868 88.5007C293.633 88.3184 293.339 88.2273 292.983 88.2273C292.643 88.2273 292.356 88.3137 292.124 88.4865C291.892 88.657 291.717 88.8961 291.599 89.2038C291.48 89.5092 291.421 89.8655 291.421 90.2727ZM296.691 95.0455V87.5455H297.501V88.4119H297.6C297.662 88.3172 297.747 88.1965 297.856 88.0497C297.967 87.9006 298.126 87.768 298.331 87.652C298.54 87.5336 298.822 87.4744 299.177 87.4744C299.636 87.4744 300.041 87.5893 300.391 87.8189C300.742 88.0485 301.015 88.3741 301.211 88.7955C301.408 89.2169 301.506 89.714 301.506 90.2869C301.506 90.8646 301.408 91.3653 301.211 91.7891C301.015 92.2105 300.743 92.5372 300.395 92.7692C300.047 92.9988 299.645 93.1136 299.191 93.1136C298.84 93.1136 298.56 93.0556 298.349 92.9396C298.139 92.8213 297.976 92.6875 297.863 92.5384C297.749 92.3868 297.662 92.2614 297.6 92.1619H297.529V95.0455H296.691ZM297.515 90.2727C297.515 90.6847 297.575 91.0481 297.696 91.3629C297.817 91.6754 297.993 91.9205 298.225 92.098C298.457 92.2732 298.741 92.3608 299.077 92.3608C299.428 92.3608 299.72 92.2685 299.954 92.0838C300.191 91.8968 300.369 91.6458 300.487 91.331C300.608 91.0137 300.668 90.661 300.668 90.2727C300.668 89.8892 300.609 89.5436 300.491 89.2358C300.375 88.9257 300.198 88.6806 299.961 88.5007C299.727 88.3184 299.432 88.2273 299.077 88.2273C298.736 88.2273 298.45 88.3137 298.218 88.4865C297.986 88.657 297.811 88.8961 297.692 89.2038C297.574 89.5092 297.515 89.8655 297.515 90.2727ZM305.001 93.1136C304.508 93.1136 304.076 92.9964 303.704 92.7621C303.335 92.5277 303.046 92.1998 302.838 91.7784C302.632 91.357 302.529 90.8646 302.529 90.3011C302.529 89.733 302.632 89.237 302.838 88.8132C303.046 88.3894 303.335 88.0604 303.704 87.826C304.076 87.5916 304.508 87.4744 305.001 87.4744C305.493 87.4744 305.924 87.5916 306.293 87.826C306.665 88.0604 306.954 88.3894 307.16 88.8132C307.368 89.237 307.472 89.733 307.472 90.3011C307.472 90.8646 307.368 91.357 307.16 91.7784C306.954 92.1998 306.665 92.5277 306.293 92.7621C305.924 92.9964 305.493 93.1136 305.001 93.1136ZM305.001 92.3608C305.375 92.3608 305.682 92.2649 305.924 92.0732C306.165 91.8814 306.344 91.6293 306.46 91.3168C306.576 91.0043 306.634 90.6657 306.634 90.3011C306.634 89.9366 306.576 89.5968 306.46 89.282C306.344 88.9671 306.165 88.7126 305.924 88.5185C305.682 88.3243 305.375 88.2273 305.001 88.2273C304.626 88.2273 304.319 88.3243 304.077 88.5185C303.836 88.7126 303.657 88.9671 303.541 89.282C303.425 89.5968 303.367 89.9366 303.367 90.3011C303.367 90.6657 303.425 91.0043 303.541 91.3168C303.657 91.6293 303.836 91.8814 304.077 92.0732C304.319 92.2649 304.626 92.3608 305.001 92.3608ZM308.751 93V87.5455H309.561V88.3693H309.618C309.717 88.0994 309.897 87.8804 310.158 87.7124C310.418 87.5443 310.712 87.4602 311.038 87.4602C311.1 87.4602 311.177 87.4614 311.269 87.4638C311.362 87.4661 311.431 87.4697 311.479 87.4744V88.3267C311.45 88.3196 311.385 88.3089 311.283 88.2947C311.184 88.2782 311.079 88.2699 310.967 88.2699C310.702 88.2699 310.465 88.3255 310.257 88.4368C310.051 88.5457 309.888 88.6972 309.767 88.8913C309.649 89.0831 309.589 89.3021 309.589 89.5483V93H308.751ZM315.186 87.5455V88.2557H312.359V87.5455H315.186ZM313.183 86.2386H314.021V91.4375C314.021 91.6742 314.056 91.8518 314.124 91.9702C314.195 92.0862 314.285 92.1643 314.394 92.2045C314.505 92.2424 314.623 92.2614 314.746 92.2614C314.838 92.2614 314.914 92.2566 314.973 92.2472C315.032 92.2353 315.08 92.2259 315.115 92.2188L315.286 92.9716C315.229 92.9929 315.149 93.0142 315.048 93.0355C314.946 93.0592 314.817 93.071 314.661 93.071C314.424 93.071 314.192 93.0201 313.964 92.9183C313.74 92.8165 313.553 92.6615 313.403 92.4531C313.257 92.2448 313.183 91.982 313.183 91.6648V86.2386ZM317.058 93.0568C316.882 93.0568 316.732 92.9941 316.607 92.8686C316.481 92.7431 316.418 92.5928 316.418 92.4176C316.418 92.2424 316.481 92.0921 316.607 91.9666C316.732 91.8411 316.882 91.7784 317.058 91.7784C317.233 91.7784 317.383 91.8411 317.509 91.9666C317.634 92.0921 317.697 92.2424 317.697 92.4176C317.697 92.5336 317.667 92.6402 317.608 92.7372C317.551 92.8343 317.474 92.9124 317.377 92.9716C317.282 93.0284 317.176 93.0568 317.058 93.0568Z" fill="var(--colors-neutral-neutral-800)"/>
<path d="M344.962 130.25C344.616 130.25 344.328 130.134 344.097 129.903C343.866 129.672 343.75 129.384 343.75 129.038V127.25H344.5V129.038C344.5 129.154 344.548 129.26 344.644 129.356C344.74 129.452 344.846 129.5 344.962 129.5H353.038C353.154 129.5 353.26 129.452 353.356 129.356C353.452 129.26 353.5 129.154 353.5 129.038V127.25H354.25V129.038C354.25 129.384 354.134 129.672 353.903 129.903C353.672 130.134 353.384 130.25 353.038 130.25H344.962ZM349 127.423L346.346 124.769L346.877 124.23L348.625 125.978V119.49H349.375V125.978L351.123 124.23L351.654 124.769L349 127.423Z" fill="var(--colors-neutral-neutral-800)"/>
<path d="M372.519 125.837H377.481V125.713C377.481 125.316 377.247 124.988 376.778 124.727C376.31 124.467 375.717 124.337 375 124.337C374.283 124.337 373.69 124.467 373.222 124.727C372.753 124.988 372.519 125.316 372.519 125.713V125.837ZM375 123.125C375.316 123.125 375.583 123.017 375.8 122.8C376.017 122.583 376.125 122.316 376.125 122C376.125 121.684 376.017 121.417 375.8 121.2C375.583 120.983 375.316 120.875 375 120.875C374.684 120.875 374.417 120.983 374.2 121.2C373.983 121.417 373.875 121.684 373.875 122C373.875 122.316 373.983 122.583 374.2 122.8C374.417 123.017 374.684 123.125 375 123.125ZM368.25 131.058V119.462C368.25 119.116 368.366 118.828 368.597 118.597C368.828 118.366 369.116 118.25 369.462 118.25H380.538C380.884 118.25 381.172 118.366 381.403 118.597C381.634 118.828 381.75 119.116 381.75 119.462V127.538C381.75 127.884 381.634 128.172 381.403 128.403C381.172 128.634 380.884 128.75 380.538 128.75H370.558L368.25 131.058ZM370.238 128H380.538C380.654 128 380.76 127.952 380.856 127.856C380.952 127.76 381 127.654 381 127.538V119.462C381 119.346 380.952 119.24 380.856 119.144C380.76 119.048 380.654 119 380.538 119H369.462C369.346 119 369.24 119.048 369.144 119.144C369.048 119.24 369 119.346 369 119.462V129.233L370.238 128Z" fill="var(--colors-neutral-neutral-800)"/>
</svg>
