<svg width="65" height="16" viewBox="0 0 65 16" fill="none" xmlns="http://www.w3.org/2000/svg">
<rect width="65" height="16" rx="8" fill="#05603A"/>
<path d="M12.1675 6.5H11.2868C11.2348 6.24669 11.1436 6.02415 11.0134 5.83239C10.8856 5.64062 10.7293 5.47964 10.5447 5.34943C10.3624 5.21686 10.1599 5.11742 9.93741 5.05114C9.71487 4.98485 9.48287 4.9517 9.24139 4.9517C8.80105 4.9517 8.40214 5.06297 8.04466 5.28551C7.68954 5.50805 7.40663 5.83594 7.19593 6.26918C6.9876 6.70241 6.88343 7.2339 6.88343 7.86364C6.88343 8.49337 6.9876 9.02486 7.19593 9.4581C7.40663 9.89134 7.68954 10.2192 8.04466 10.4418C8.40214 10.6643 8.80105 10.7756 9.24139 10.7756C9.48287 10.7756 9.71487 10.7424 9.93741 10.6761C10.1599 10.6098 10.3624 10.5116 10.5447 10.3814C10.7293 10.2488 10.8856 10.0866 11.0134 9.89489C11.1436 9.70076 11.2348 9.47822 11.2868 9.22727H12.1675C12.1012 9.59896 11.9805 9.93158 11.8053 10.2251C11.6301 10.5187 11.4123 10.7685 11.1519 10.9744C10.8915 11.178 10.5991 11.3331 10.2748 11.4396C9.9528 11.5462 9.60834 11.5994 9.24139 11.5994C8.62112 11.5994 8.06951 11.4479 7.58656 11.1449C7.1036 10.8419 6.72363 10.411 6.44664 9.85227C6.16966 9.29356 6.03116 8.63068 6.03116 7.86364C6.03116 7.09659 6.16966 6.43371 6.44664 5.875C6.72363 5.31629 7.1036 4.88542 7.58656 4.58239C8.06951 4.27936 8.62112 4.12784 9.24139 4.12784C9.60834 4.12784 9.9528 4.18111 10.2748 4.28764C10.5991 4.39418 10.8915 4.55043 11.1519 4.75639C11.4123 4.95999 11.6301 5.20857 11.8053 5.50213C11.9805 5.79332 12.1012 6.12595 12.1675 6.5ZM19.727 7.86364C19.727 8.63068 19.5885 9.29356 19.3115 9.85227C19.0345 10.411 18.6546 10.8419 18.1716 11.1449C17.6887 11.4479 17.137 11.5994 16.5168 11.5994C15.8965 11.5994 15.3449 11.4479 14.8619 11.1449C14.379 10.8419 13.999 10.411 13.722 9.85227C13.445 9.29356 13.3066 8.63068 13.3066 7.86364C13.3066 7.09659 13.445 6.43371 13.722 5.875C13.999 5.31629 14.379 4.88542 14.8619 4.58239C15.3449 4.27936 15.8965 4.12784 16.5168 4.12784C17.137 4.12784 17.6887 4.27936 18.1716 4.58239C18.6546 4.88542 19.0345 5.31629 19.3115 5.875C19.5885 6.43371 19.727 7.09659 19.727 7.86364ZM18.8747 7.86364C18.8747 7.2339 18.7694 6.70241 18.5587 6.26918C18.3503 5.83594 18.0674 5.50805 17.71 5.28551C17.3548 5.06297 16.9571 4.9517 16.5168 4.9517C16.0764 4.9517 15.6775 5.06297 15.32 5.28551C14.9649 5.50805 14.682 5.83594 14.4713 6.26918C14.263 6.70241 14.1588 7.2339 14.1588 7.86364C14.1588 8.49337 14.263 9.02486 14.4713 9.4581C14.682 9.89134 14.9649 10.2192 15.32 10.4418C15.6775 10.6643 16.0764 10.7756 16.5168 10.7756C16.9571 10.7756 17.3548 10.6643 17.71 10.4418C18.0674 10.2192 18.3503 9.89134 18.5587 9.4581C18.7694 9.02486 18.8747 8.49337 18.8747 7.86364ZM21.2078 4.22727H22.259L24.7306 10.2642H24.8158L27.2874 4.22727H28.3385V11.5H27.5146V5.97443H27.4436L25.1709 11.5H24.3754L22.1027 5.97443H22.0317V11.5H21.2078V4.22727ZM30.1043 11.5V4.22727H32.5617C33.1323 4.22727 33.5986 4.33026 33.9608 4.53622C34.3254 4.73982 34.5953 5.01562 34.7705 5.36364C34.9457 5.71165 35.0333 6.09991 35.0333 6.52841C35.0333 6.95691 34.9457 7.34635 34.7705 7.69673C34.5977 8.04711 34.3302 8.32647 33.968 8.5348C33.6057 8.74077 33.1417 8.84375 32.5759 8.84375H30.8145V8.0625H32.5475C32.9381 8.0625 33.2518 7.99503 33.4885 7.86009C33.7253 7.72514 33.8969 7.54285 34.0035 7.31321C34.1124 7.0812 34.1668 6.8196 34.1668 6.52841C34.1668 6.23722 34.1124 5.9768 34.0035 5.74716C33.8969 5.51752 33.7241 5.33759 33.485 5.20739C33.2459 5.07481 32.9287 5.00852 32.5333 5.00852H30.985V11.5H30.1043ZM36.452 11.5V4.22727H37.3327V10.7188H40.7133V11.5H36.452ZM42.077 11.5V4.22727H46.4662V5.00852H42.9577V7.46591H46.2389V8.24716H42.9577V10.7188H46.523V11.5H42.077ZM47.6558 5.00852V4.22727H53.1104V5.00852H50.8234V11.5H49.9427V5.00852H47.6558ZM54.4695 11.5V4.22727H58.8588V5.00852H55.3502V7.46591H58.6315V8.24716H55.3502V10.7188H58.9156V11.5H54.4695Z" fill="white"/>
</svg>
