<svg width="68" height="16" viewBox="0 0 68 16" fill="none" xmlns="http://www.w3.org/2000/svg">
<rect width="68" height="16" rx="8" fill="var(--colors-neutral-neutral-400)"/>
<path d="M7.33674 11.5V4.22727H9.79412C10.3647 4.22727 10.8311 4.33026 11.1933 4.53622C11.5579 4.73982 11.8277 5.01562 12.0029 5.36364C12.1781 5.71165 12.2657 6.09991 12.2657 6.52841C12.2657 6.95691 12.1781 7.34635 12.0029 7.69673C11.8301 8.04711 11.5626 8.32647 11.2004 8.5348C10.8382 8.74077 10.3741 8.84375 9.80833 8.84375H8.04696V8.0625H9.77992C10.1705 8.0625 10.4842 7.99503 10.721 7.86009C10.9577 7.72514 11.1294 7.54285 11.2359 7.31321C11.3448 7.0812 11.3992 6.8196 11.3992 6.52841C11.3992 6.23722 11.3448 5.9768 11.2359 5.74716C11.1294 5.51752 10.9565 5.33759 10.7174 5.20739C10.4783 5.07481 10.1611 5.00852 9.76571 5.00852H8.21742V11.5H7.33674ZM13.6844 11.5V4.22727H16.1418C16.71 4.22727 17.1763 4.32434 17.5409 4.51847C17.9055 4.71023 18.1754 4.97419 18.3506 5.31037C18.5258 5.64654 18.6134 6.02888 18.6134 6.45739C18.6134 6.88589 18.5258 7.26586 18.3506 7.5973C18.1754 7.92874 17.9067 8.18916 17.5445 8.37855C17.1823 8.56558 16.7194 8.65909 16.156 8.65909H14.1673V7.86364H16.1276C16.5158 7.86364 16.8283 7.80682 17.0651 7.69318C17.3042 7.57955 17.477 7.41856 17.5835 7.21023C17.6924 6.99953 17.7469 6.74858 17.7469 6.45739C17.7469 6.16619 17.6924 5.91169 17.5835 5.69389C17.4746 5.47609 17.3006 5.308 17.0615 5.18963C16.8224 5.06889 16.5064 5.00852 16.1134 5.00852H14.5651V11.5H13.6844ZM17.1077 8.23295L18.8975 11.5H17.8747L16.1134 8.23295H17.1077ZM20.0809 11.5V4.22727H24.4701V5.00852H20.9616V7.46591H24.2428V8.24716H20.9616V10.7188H24.5269V11.5H20.0809ZM26.0574 11.5V4.22727H28.5148C29.0854 4.22727 29.5518 4.33026 29.914 4.53622C30.2786 4.73982 30.5484 5.01562 30.7236 5.36364C30.8988 5.71165 30.9864 6.09991 30.9864 6.52841C30.9864 6.95691 30.8988 7.34635 30.7236 7.69673C30.5508 8.04711 30.2833 8.32647 29.9211 8.5348C29.5589 8.74077 29.0948 8.84375 28.529 8.84375H26.7677V8.0625H28.5006C28.8912 8.0625 29.2049 7.99503 29.4417 7.86009C29.6784 7.72514 29.8501 7.54285 29.9566 7.31321C30.0655 7.0812 30.1199 6.8196 30.1199 6.52841C30.1199 6.23722 30.0655 5.9768 29.9566 5.74716C29.8501 5.51752 29.6772 5.33759 29.4381 5.20739C29.199 5.07481 28.8818 5.00852 28.4864 5.00852H26.9381V11.5H26.0574ZM31.9612 11.5H31.0379L33.7084 4.22727H34.6175L37.2879 11.5H36.3646L34.1913 5.37784H34.1345L31.9612 11.5ZM32.3021 8.65909H36.0237V9.44034H32.3021V8.65909ZM38.4207 11.5V4.22727H40.8781C41.4463 4.22727 41.9127 4.32434 42.2773 4.51847C42.6418 4.71023 42.9117 4.97419 43.0869 5.31037C43.2621 5.64654 43.3497 6.02888 43.3497 6.45739C43.3497 6.88589 43.2621 7.26586 43.0869 7.5973C42.9117 7.92874 42.643 8.18916 42.2808 8.37855C41.9186 8.56558 41.4558 8.65909 40.8923 8.65909H38.9037V7.86364H40.8639C41.2522 7.86364 41.5647 7.80682 41.8014 7.69318C42.0405 7.57955 42.2133 7.41856 42.3199 7.21023C42.4288 6.99953 42.4832 6.74858 42.4832 6.45739C42.4832 6.16619 42.4288 5.91169 42.3199 5.69389C42.211 5.47609 42.037 5.308 41.7979 5.18963C41.5587 5.06889 41.2427 5.00852 40.8497 5.00852H39.3014V11.5H38.4207ZM41.844 8.23295L43.6338 11.5H42.6111L40.8497 8.23295H41.844ZM45.6979 4.22727V11.5H44.8172V4.22727H45.6979ZM53.2307 4.22727V11.5H52.3785L48.4154 5.78977H48.3444V11.5H47.4637V4.22727H48.316L52.2932 9.9517H52.3643V4.22727H53.2307ZM59.9646 6.5C59.8865 6.26089 59.7835 6.04664 59.6556 5.85724C59.5302 5.66548 59.3798 5.50213 59.2046 5.36719C59.0318 5.23224 58.8353 5.12926 58.6151 5.05824C58.395 4.98722 58.1535 4.9517 57.8907 4.9517C57.4598 4.9517 57.068 5.06297 56.7153 5.28551C56.3625 5.50805 56.082 5.83594 55.8737 6.26918C55.6653 6.70241 55.5612 7.2339 55.5612 7.86364C55.5612 8.49337 55.6665 9.02486 55.8772 9.4581C56.0879 9.89134 56.3732 10.2192 56.733 10.4418C57.0929 10.6643 57.4977 10.7756 57.9475 10.7756C58.3642 10.7756 58.7311 10.6868 59.0484 10.5092C59.368 10.3293 59.6166 10.076 59.7941 9.74929C59.974 9.42022 60.064 9.03314 60.064 8.58807L60.3339 8.64489H58.1464V7.86364H60.9163V8.64489C60.9163 9.24384 60.7884 9.76468 60.5328 10.2074C60.2794 10.6501 59.9291 10.9934 59.4816 11.2372C59.0365 11.4787 58.5252 11.5994 57.9475 11.5994C57.3036 11.5994 56.7378 11.4479 56.2501 11.1449C55.7648 10.8419 55.386 10.411 55.1137 9.85227C54.8438 9.29356 54.7089 8.63068 54.7089 7.86364C54.7089 7.28835 54.7858 6.77107 54.9397 6.31179C55.096 5.85014 55.3161 5.45715 55.6002 5.13281C55.8843 4.80848 56.2205 4.5599 56.6088 4.38707C56.997 4.21425 57.4243 4.12784 57.8907 4.12784C58.2742 4.12784 58.6317 4.18584 58.9632 4.30185C59.297 4.41548 59.5941 4.57765 59.8545 4.78835C60.1173 4.99669 60.3363 5.24645 60.5115 5.53764C60.6866 5.82647 60.8074 6.14725 60.8737 6.5H59.9646Z" fill="var(--colors-neutral-neutral-800)"/>
</svg>
