<svg width="45" height="16" viewBox="0 0 45 16" fill="none" xmlns="http://www.w3.org/2000/svg">
<rect width="45" height="16" rx="8" fill="#E6E6E6"/>
<path d="M9.31152 12H7.06721V4.72727H9.41096C10.1164 4.72727 10.7201 4.87287 11.222 5.16406C11.7239 5.45289 12.1086 5.86837 12.3762 6.41051C12.6437 6.95028 12.7774 7.59659 12.7774 8.34943C12.7774 9.10701 12.6425 9.75923 12.3726 10.3061C12.1027 10.8506 11.7097 11.2696 11.1936 11.5632C10.6775 11.8544 10.0502 12 9.31152 12ZM7.94789 11.2188H9.25471C9.85603 11.2188 10.3544 11.1027 10.7497 10.8707C11.1451 10.6387 11.4398 10.3085 11.634 9.87997C11.8281 9.45147 11.9252 8.94129 11.9252 8.34943C11.9252 7.76231 11.8293 7.25687 11.6375 6.8331C11.4458 6.40696 11.1593 6.08026 10.7781 5.85298C10.397 5.62334 9.92232 5.50852 9.35414 5.50852H7.94789V11.2188ZM14.2547 12V4.72727H16.7121C17.2803 4.72727 17.7467 4.82434 18.1112 5.01847C18.4758 5.21023 18.7457 5.47419 18.9209 5.81037C19.0961 6.14654 19.1837 6.52888 19.1837 6.95739C19.1837 7.38589 19.0961 7.76586 18.9209 8.0973C18.7457 8.42874 18.477 8.68916 18.1148 8.87855C17.7526 9.06558 17.2897 9.15909 16.7263 9.15909H14.7377V8.36364H16.6979C17.0861 8.36364 17.3986 8.30682 17.6354 8.19318C17.8745 8.07955 18.0473 7.91856 18.1539 7.71023C18.2628 7.49953 18.3172 7.24858 18.3172 6.95739C18.3172 6.66619 18.2628 6.41169 18.1539 6.19389C18.045 5.97609 17.8709 5.808 17.6318 5.68963C17.3927 5.56889 17.0767 5.50852 16.6837 5.50852H15.1354V12H14.2547ZM17.678 8.73295L19.4678 12H18.445L16.6837 8.73295H17.678ZM20.9495 12H20.0262L22.6966 4.72727H23.6057L26.2762 12H25.3529L23.1796 5.87784H23.1228L20.9495 12ZM21.2904 9.15909H25.012V9.94034H21.2904V9.15909ZM27.409 12V4.72727H31.7698V5.50852H28.2897V7.96591H31.4431V8.74716H28.2897V12H27.409ZM32.8804 5.50852V4.72727H38.335V5.50852H36.048V12H35.1673V5.50852H32.8804Z" fill="#222222"/>
</svg>
