<svg width="78" height="16" viewBox="0 0 78 16" fill="none" xmlns="http://www.w3.org/2000/svg">
<rect width="78" height="16" rx="8" fill="#026AA2"/>
<path d="M12.7935 7H11.9128C11.8607 6.74669 11.7696 6.52415 11.6394 6.33239C11.5115 6.14062 11.3553 5.97964 11.1706 5.84943C10.9883 5.71686 10.7859 5.61742 10.5634 5.55114C10.3409 5.48485 10.1088 5.4517 9.86737 5.4517C9.42702 5.4517 9.02811 5.56297 8.67063 5.78551C8.31552 6.00805 8.03261 6.33594 7.82191 6.76918C7.61358 7.20241 7.50941 7.7339 7.50941 8.36364C7.50941 8.99337 7.61358 9.52486 7.82191 9.9581C8.03261 10.3913 8.31552 10.7192 8.67063 10.9418C9.02811 11.1643 9.42702 11.2756 9.86737 11.2756C10.1088 11.2756 10.3409 11.2424 10.5634 11.1761C10.7859 11.1098 10.9883 11.0116 11.1706 10.8814C11.3553 10.7488 11.5115 10.5866 11.6394 10.3949C11.7696 10.2008 11.8607 9.97822 11.9128 9.72727H12.7935C12.7272 10.099 12.6065 10.4316 12.4313 10.7251C12.2561 11.0187 12.0383 11.2685 11.7779 11.4744C11.5175 11.678 11.2251 11.8331 10.9007 11.9396C10.5788 12.0462 10.2343 12.0994 9.86737 12.0994C9.2471 12.0994 8.69549 11.9479 8.21254 11.6449C7.72958 11.3419 7.34961 10.911 7.07262 10.3523C6.79563 9.79356 6.65714 9.13068 6.65714 8.36364C6.65714 7.59659 6.79563 6.93371 7.07262 6.375C7.34961 5.81629 7.72958 5.38542 8.21254 5.08239C8.69549 4.77936 9.2471 4.62784 9.86737 4.62784C10.2343 4.62784 10.5788 4.68111 10.9007 4.78764C11.2251 4.89418 11.5175 5.05043 11.7779 5.25639C12.0383 5.45999 12.2561 5.70857 12.4313 6.00213C12.6065 6.29332 12.7272 6.62595 12.7935 7ZM20.353 8.36364C20.353 9.13068 20.2145 9.79356 19.9375 10.3523C19.6605 10.911 19.2805 11.3419 18.7976 11.6449C18.3146 11.9479 17.763 12.0994 17.1428 12.0994C16.5225 12.0994 15.9709 11.9479 15.4879 11.6449C15.005 11.3419 14.625 10.911 14.348 10.3523C14.071 9.79356 13.9325 9.13068 13.9325 8.36364C13.9325 7.59659 14.071 6.93371 14.348 6.375C14.625 5.81629 15.005 5.38542 15.4879 5.08239C15.9709 4.77936 16.5225 4.62784 17.1428 4.62784C17.763 4.62784 18.3146 4.77936 18.7976 5.08239C19.2805 5.38542 19.6605 5.81629 19.9375 6.375C20.2145 6.93371 20.353 7.59659 20.353 8.36364ZM19.5007 8.36364C19.5007 7.7339 19.3954 7.20241 19.1847 6.76918C18.9763 6.33594 18.6934 6.00805 18.3359 5.78551C17.9808 5.56297 17.5831 5.4517 17.1428 5.4517C16.7024 5.4517 16.3035 5.56297 15.946 5.78551C15.5909 6.00805 15.308 6.33594 15.0973 6.76918C14.889 7.20241 14.7848 7.7339 14.7848 8.36364C14.7848 8.99337 14.889 9.52486 15.0973 9.9581C15.308 10.3913 15.5909 10.7192 15.946 10.9418C16.3035 11.1643 16.7024 11.2756 17.1428 11.2756C17.5831 11.2756 17.9808 11.1643 18.3359 10.9418C18.6934 10.7192 18.9763 10.3913 19.1847 9.9581C19.3954 9.52486 19.5007 8.99337 19.5007 8.36364ZM21.8338 4.72727H22.8849L25.3565 10.7642H25.4418L27.9134 4.72727H28.9645V12H28.1406V6.47443H28.0696L25.7969 12H25.0014L22.7287 6.47443H22.6577V12H21.8338V4.72727ZM30.7303 4.72727H31.7814L34.253 10.7642H34.3382L36.8098 4.72727H37.861V12H37.0371V6.47443H36.9661L34.6934 12H33.8979L31.6252 6.47443H31.5542V12H30.7303V4.72727ZM40.5075 4.72727V12H39.6268V4.72727H40.5075ZM46.2505 6.54545C46.2079 6.18561 46.0351 5.90625 45.7321 5.70739C45.429 5.50852 45.0574 5.40909 44.617 5.40909C44.295 5.40909 44.0133 5.46117 43.7718 5.56534C43.5327 5.66951 43.3457 5.81274 43.2108 5.99503C43.0782 6.17732 43.0119 6.38447 43.0119 6.61648C43.0119 6.81061 43.0581 6.97751 43.1504 7.11719C43.2451 7.2545 43.3658 7.36932 43.5126 7.46165C43.6594 7.55161 43.8133 7.62618 43.9743 7.68537C44.1352 7.74219 44.2832 7.78835 44.4181 7.82386L45.1568 8.02273C45.3462 8.07244 45.5569 8.1411 45.7889 8.22869C46.0233 8.31629 46.247 8.43584 46.46 8.58736C46.6755 8.73651 46.853 8.92827 46.9927 9.16264C47.1324 9.39702 47.2022 9.68466 47.2022 10.0256C47.2022 10.4186 47.0993 10.7737 46.8933 11.0909C46.6897 11.4081 46.3914 11.6603 45.9984 11.8473C45.6078 12.0343 45.1331 12.1278 44.5744 12.1278C44.0536 12.1278 43.6026 12.0438 43.2214 11.8757C42.8426 11.7076 42.5443 11.4732 42.3265 11.1726C42.1111 10.8719 41.9892 10.5227 41.9608 10.125H42.8699C42.8935 10.3996 42.9859 10.6269 43.1468 10.8068C43.3102 10.9844 43.5162 11.117 43.7647 11.2045C44.0157 11.2898 44.2856 11.3324 44.5744 11.3324C44.9106 11.3324 45.2124 11.2779 45.4799 11.169C45.7475 11.0578 45.9593 10.9039 46.1156 10.7074C46.2718 10.5085 46.35 10.2765 46.35 10.0114C46.35 9.76989 46.2825 9.57339 46.1475 9.42188C46.0126 9.27036 45.835 9.14725 45.6149 9.05256C45.3947 8.95786 45.1568 8.875 44.9011 8.80398L44.0062 8.5483C43.438 8.38494 42.9882 8.15175 42.6568 7.84872C42.3253 7.54569 42.1596 7.14915 42.1596 6.65909C42.1596 6.25189 42.2697 5.89678 42.4899 5.59375C42.7124 5.28835 43.0107 5.05161 43.3848 4.88352C43.7612 4.71307 44.1814 4.62784 44.6454 4.62784C45.1142 4.62784 45.5308 4.71188 45.8954 4.87997C46.26 5.04569 46.5488 5.27296 46.7619 5.56179C46.9773 5.85062 47.091 6.1785 47.1028 6.54545H46.2505ZM52.6275 6.54545C52.5849 6.18561 52.4121 5.90625 52.109 5.70739C51.806 5.50852 51.4343 5.40909 50.994 5.40909C50.672 5.40909 50.3903 5.46117 50.1488 5.56534C49.9097 5.66951 49.7227 5.81274 49.5877 5.99503C49.4551 6.17732 49.3888 6.38447 49.3888 6.61648C49.3888 6.81061 49.435 6.97751 49.5273 7.11719C49.622 7.2545 49.7428 7.36932 49.8896 7.46165C50.0363 7.55161 50.1902 7.62618 50.3512 7.68537C50.5122 7.74219 50.6602 7.78835 50.7951 7.82386L51.5337 8.02273C51.7231 8.07244 51.9338 8.1411 52.1658 8.22869C52.4002 8.31629 52.6239 8.43584 52.837 8.58736C53.0524 8.73651 53.23 8.92827 53.3697 9.16264C53.5094 9.39702 53.5792 9.68466 53.5792 10.0256C53.5792 10.4186 53.4762 10.7737 53.2702 11.0909C53.0666 11.4081 52.7683 11.6603 52.3754 11.8473C51.9847 12.0343 51.5101 12.1278 50.9513 12.1278C50.4305 12.1278 49.9795 12.0438 49.5984 11.8757C49.2196 11.7076 48.9213 11.4732 48.7035 11.1726C48.488 10.8719 48.3661 10.5227 48.3377 10.125H49.2468C49.2705 10.3996 49.3628 10.6269 49.5238 10.8068C49.6871 10.9844 49.8931 11.117 50.1417 11.2045C50.3926 11.2898 50.6625 11.3324 50.9513 11.3324C51.2875 11.3324 51.5894 11.2779 51.8569 11.169C52.1244 11.0578 52.3363 10.9039 52.4925 10.7074C52.6488 10.5085 52.7269 10.2765 52.7269 10.0114C52.7269 9.76989 52.6594 9.57339 52.5245 9.42188C52.3896 9.27036 52.212 9.14725 51.9918 9.05256C51.7717 8.95786 51.5337 8.875 51.2781 8.80398L50.3832 8.5483C49.815 8.38494 49.3652 8.15175 49.0337 7.84872C48.7023 7.54569 48.5366 7.14915 48.5366 6.65909C48.5366 6.25189 48.6467 5.89678 48.8668 5.59375C49.0894 5.28835 49.3877 5.05161 49.7617 4.88352C50.1381 4.71307 50.5584 4.62784 51.0224 4.62784C51.4911 4.62784 51.9078 4.71188 52.2724 4.87997C52.637 5.04569 52.9258 5.27296 53.1388 5.56179C53.3543 5.85062 53.4679 6.1785 53.4798 6.54545H52.6275ZM55.9078 4.72727V12H55.0272V4.72727H55.9078ZM63.81 8.36364C63.81 9.13068 63.6715 9.79356 63.3945 10.3523C63.1175 10.911 62.7376 11.3419 62.2546 11.6449C61.7717 11.9479 61.2201 12.0994 60.5998 12.0994C59.9795 12.0994 59.4279 11.9479 58.945 11.6449C58.462 11.3419 58.082 10.911 57.805 10.3523C57.5281 9.79356 57.3896 9.13068 57.3896 8.36364C57.3896 7.59659 57.5281 6.93371 57.805 6.375C58.082 5.81629 58.462 5.38542 58.945 5.08239C59.4279 4.77936 59.9795 4.62784 60.5998 4.62784C61.2201 4.62784 61.7717 4.77936 62.2546 5.08239C62.7376 5.38542 63.1175 5.81629 63.3945 6.375C63.6715 6.93371 63.81 7.59659 63.81 8.36364ZM62.9577 8.36364C62.9577 7.7339 62.8524 7.20241 62.6417 6.76918C62.4334 6.33594 62.1504 6.00805 61.793 5.78551C61.4379 5.56297 61.0401 5.4517 60.5998 5.4517C60.1594 5.4517 59.7605 5.56297 59.4031 5.78551C59.0479 6.00805 58.765 6.33594 58.5543 6.76918C58.346 7.20241 58.2418 7.7339 58.2418 8.36364C58.2418 8.99337 58.346 9.52486 58.5543 9.9581C58.765 10.3913 59.0479 10.7192 59.4031 10.9418C59.7605 11.1643 60.1594 11.2756 60.5998 11.2756C61.0401 11.2756 61.4379 11.1643 61.793 10.9418C62.1504 10.7192 62.4334 10.3913 62.6417 9.9581C62.8524 9.52486 62.9577 8.99337 62.9577 8.36364ZM71.0579 4.72727V12H70.2056L66.2425 6.28977H66.1715V12H65.2908V4.72727H66.1431L70.1204 10.4517H70.1914V4.72727H71.0579Z" fill="white"/>
</svg>
