<svg width="320" height="64" viewBox="0 0 320 64" fill="none" xmlns="http://www.w3.org/2000/svg">
<path d="M23.0306 24.3636C22.971 23.8598 22.729 23.4688 22.3048 23.1903C21.8805 22.9119 21.3602 22.7727 20.7437 22.7727C20.2929 22.7727 19.8985 22.8456 19.5605 22.9915C19.2257 23.1373 18.9639 23.3378 18.7749 23.593C18.5893 23.8482 18.4965 24.1383 18.4965 24.4631C18.4965 24.7348 18.5612 24.9685 18.6904 25.1641C18.823 25.3563 18.992 25.517 19.1975 25.6463C19.403 25.7723 19.6185 25.8767 19.8438 25.9595C20.0692 26.0391 20.2764 26.1037 20.4653 26.1534L21.4994 26.4318C21.7645 26.5014 22.0595 26.5975 22.3843 26.7202C22.7124 26.8428 23.0257 27.0102 23.324 27.2223C23.6256 27.4311 23.8741 27.6996 24.0697 28.0277C24.2652 28.3558 24.363 28.7585 24.363 29.2358C24.363 29.786 24.2188 30.2831 23.9305 30.7273C23.6454 31.1714 23.2278 31.5244 22.6776 31.7862C22.1308 32.0481 21.4662 32.179 20.684 32.179C19.9549 32.179 19.3235 32.0613 18.7899 31.826C18.2596 31.5907 17.8419 31.2625 17.537 30.8416C17.2354 30.4207 17.0647 29.9318 17.0249 29.375H18.2977C18.3308 29.7595 18.4601 30.0777 18.6855 30.3295C18.9142 30.5781 19.2025 30.7637 19.5505 30.8864C19.9018 31.0057 20.2797 31.0653 20.684 31.0653C21.1547 31.0653 21.5773 30.9891 21.9518 30.8366C22.3263 30.6809 22.623 30.4654 22.8417 30.1903C23.0605 29.9119 23.1698 29.5871 23.1698 29.2159C23.1698 28.8778 23.0754 28.6027 22.8865 28.3906C22.6975 28.1785 22.449 28.0062 22.1407 27.8736C21.8325 27.741 21.4994 27.625 21.1414 27.5256L19.8886 27.1676C19.0931 26.9389 18.4634 26.6125 17.9994 26.1882C17.5354 25.764 17.3034 25.2088 17.3034 24.5227C17.3034 23.9527 17.4575 23.4555 17.7657 23.0312C18.0773 22.6037 18.4949 22.2723 19.0186 22.0369C19.5455 21.7983 20.1338 21.679 20.7835 21.679C21.4397 21.679 22.0231 21.7966 22.5335 22.032C23.0439 22.264 23.4482 22.5821 23.7465 22.9865C24.0481 23.3909 24.2072 23.8499 24.2238 24.3636H23.0306ZM26.3902 32V21.8182H32.5351V22.9119H27.6231V26.3523H32.2169V27.446H27.6231V30.9062H32.6146V32H26.3902ZM34.2006 22.9119V21.8182H41.8369V22.9119H38.6352V32H37.4023V22.9119H34.2006ZM50.4216 21.8182H51.6546V28.5597C51.6546 29.2557 51.4905 29.8771 51.1624 30.424C50.8376 30.9676 50.3785 31.3968 49.7852 31.7116C49.192 32.0232 48.4959 32.179 47.6972 32.179C46.8984 32.179 46.2024 32.0232 45.6091 31.7116C45.0158 31.3968 44.5551 30.9676 44.227 30.424C43.9022 29.8771 43.7398 29.2557 43.7398 28.5597V21.8182H44.9727V28.4602C44.9727 28.9574 45.0821 29.3999 45.3009 29.7876C45.5196 30.1721 45.8312 30.4754 46.2355 30.6974C46.6432 30.9162 47.1304 31.0256 47.6972 31.0256C48.2639 31.0256 48.7512 30.9162 49.1588 30.6974C49.5665 30.4754 49.878 30.1721 50.0935 29.7876C50.3122 29.3999 50.4216 28.9574 50.4216 28.4602V21.8182ZM54.1167 32V21.8182H57.5571C58.3559 21.8182 59.0088 21.9624 59.5159 22.2507C60.0263 22.5357 60.4041 22.9219 60.6494 23.4091C60.8947 23.8963 61.0173 24.4399 61.0173 25.0398C61.0173 25.6397 60.8947 26.1849 60.6494 26.6754C60.4075 27.166 60.0329 27.5571 59.5258 27.8487C59.0187 28.1371 58.3691 28.2812 57.577 28.2812H55.1111V27.1875H57.5372C58.0841 27.1875 58.5232 27.093 58.8547 26.9041C59.1861 26.7152 59.4264 26.46 59.5756 26.1385C59.728 25.8137 59.8042 25.4474 59.8042 25.0398C59.8042 24.6321 59.728 24.2675 59.5756 23.946C59.4264 23.6245 59.1845 23.3726 58.8497 23.1903C58.5149 23.0047 58.0708 22.9119 57.5173 22.9119H55.3497V32H54.1167Z" fill="var(--colors-neutral-neutral-700)"/>
<path d="M112.835 32V21.8182H114.068V30.9062H118.801V32H112.835ZM121.771 32H120.478L124.217 21.8182H125.489L129.228 32H127.935L124.893 23.429H124.813L121.771 32ZM122.248 28.0227H127.458V29.1165H122.248V28.0227ZM128.9 21.8182H130.312L133.136 26.571H133.255L136.079 21.8182H137.491L133.812 27.804V32H132.579V27.804L128.9 21.8182ZM147.198 26.9091C147.198 27.983 147.004 28.911 146.616 29.6932C146.228 30.4754 145.696 31.0786 145.02 31.5028C144.344 31.9271 143.572 32.1392 142.704 32.1392C141.835 32.1392 141.063 31.9271 140.387 31.5028C139.711 31.0786 139.179 30.4754 138.791 29.6932C138.403 28.911 138.209 27.983 138.209 26.9091C138.209 25.8352 138.403 24.9072 138.791 24.125C139.179 23.3428 139.711 22.7396 140.387 22.3153C141.063 21.8911 141.835 21.679 142.704 21.679C143.572 21.679 144.344 21.8911 145.02 22.3153C145.696 22.7396 146.228 23.3428 146.616 24.125C147.004 24.9072 147.198 25.8352 147.198 26.9091ZM146.005 26.9091C146.005 26.0275 145.857 25.2834 145.562 24.6768C145.271 24.0703 144.874 23.6113 144.374 23.2997C143.877 22.9882 143.32 22.8324 142.704 22.8324C142.087 22.8324 141.529 22.9882 141.028 23.2997C140.531 23.6113 140.135 24.0703 139.84 24.6768C139.548 25.2834 139.402 26.0275 139.402 26.9091C139.402 27.7907 139.548 28.5348 139.84 29.1413C140.135 29.7479 140.531 30.2069 141.028 30.5185C141.529 30.83 142.087 30.9858 142.704 30.9858C143.32 30.9858 143.877 30.83 144.374 30.5185C144.874 30.2069 145.271 29.7479 145.562 29.1413C145.857 28.5348 146.005 27.7907 146.005 26.9091ZM155.953 21.8182H157.186V28.5597C157.186 29.2557 157.022 29.8771 156.694 30.424C156.369 30.9676 155.91 31.3968 155.316 31.7116C154.723 32.0232 154.027 32.179 153.228 32.179C152.43 32.179 151.734 32.0232 151.14 31.7116C150.547 31.3968 150.086 30.9676 149.758 30.424C149.433 29.8771 149.271 29.2557 149.271 28.5597V21.8182H150.504V28.4602C150.504 28.9574 150.613 29.3999 150.832 29.7876C151.051 30.1721 151.362 30.4754 151.767 30.6974C152.174 30.9162 152.662 31.0256 153.228 31.0256C153.795 31.0256 154.282 30.9162 154.69 30.6974C155.098 30.4754 155.409 30.1721 155.625 29.7876C155.843 29.3999 155.953 28.9574 155.953 28.4602V21.8182ZM159.091 22.9119V21.8182H166.728V22.9119H163.526V32H162.293V22.9119H159.091Z" fill="var(--colors-neutral-neutral-700)"/>
<path d="M224.228 24.3636C224.168 23.8598 223.926 23.4688 223.502 23.1903C223.078 22.9119 222.557 22.7727 221.941 22.7727C221.49 22.7727 221.096 22.8456 220.758 22.9915C220.423 23.1373 220.161 23.3378 219.972 23.593C219.787 23.8482 219.694 24.1383 219.694 24.4631C219.694 24.7348 219.758 24.9685 219.888 25.1641C220.02 25.3563 220.189 25.517 220.395 25.6463C220.6 25.7723 220.816 25.8767 221.041 25.9595C221.266 26.0391 221.474 26.1037 221.663 26.1534L222.697 26.4318C222.962 26.5014 223.257 26.5975 223.582 26.7202C223.91 26.8428 224.223 27.0102 224.521 27.2223C224.823 27.4311 225.071 27.6996 225.267 28.0277C225.463 28.3558 225.56 28.7585 225.56 29.2358C225.56 29.786 225.416 30.2831 225.128 30.7273C224.843 31.1714 224.425 31.5244 223.875 31.7862C223.328 32.0481 222.664 32.179 221.881 32.179C221.152 32.179 220.521 32.0613 219.987 31.826C219.457 31.5907 219.039 31.2625 218.734 30.8416C218.433 30.4207 218.262 29.9318 218.222 29.375H219.495C219.528 29.7595 219.657 30.0777 219.883 30.3295C220.111 30.5781 220.4 30.7637 220.748 30.8864C221.099 31.0057 221.477 31.0653 221.881 31.0653C222.352 31.0653 222.775 30.9891 223.149 30.8366C223.524 30.6809 223.82 30.4654 224.039 30.1903C224.258 29.9119 224.367 29.5871 224.367 29.2159C224.367 28.8778 224.273 28.6027 224.084 28.3906C223.895 28.1785 223.646 28.0062 223.338 27.8736C223.03 27.741 222.697 27.625 222.339 27.5256L221.086 27.1676C220.29 26.9389 219.661 26.6125 219.197 26.1882C218.733 25.764 218.501 25.2088 218.501 24.5227C218.501 23.9527 218.655 23.4555 218.963 23.0312C219.275 22.6037 219.692 22.2723 220.216 22.0369C220.743 21.7983 221.331 21.679 221.981 21.679C222.637 21.679 223.22 21.7966 223.731 22.032C224.241 22.264 224.646 22.5821 224.944 22.9865C225.245 23.3909 225.405 23.8499 225.421 24.3636H224.228ZM228.82 21.8182V32H227.587V21.8182H228.82ZM231.293 21.8182H232.764L236.224 30.2699H236.344L239.804 21.8182H241.275V32H240.122V24.2642H240.023L236.841 32H235.727L232.545 24.2642H232.446V32H231.293V21.8182ZM250.429 21.8182H251.662V28.5597C251.662 29.2557 251.498 29.8771 251.17 30.424C250.845 30.9676 250.386 31.3968 249.793 31.7116C249.2 32.0232 248.504 32.179 247.705 32.179C246.906 32.179 246.21 32.0232 245.617 31.7116C245.024 31.3968 244.563 30.9676 244.235 30.424C243.91 29.8771 243.748 29.2557 243.748 28.5597V21.8182H244.981V28.4602C244.981 28.9574 245.09 29.3999 245.309 29.7876C245.527 30.1721 245.839 30.4754 246.243 30.6974C246.651 30.9162 247.138 31.0256 247.705 31.0256C248.272 31.0256 248.759 30.9162 249.167 30.6974C249.574 30.4754 249.886 30.1721 250.101 29.7876C250.32 29.3999 250.429 28.9574 250.429 28.4602V21.8182ZM254.125 32V21.8182H255.358V30.9062H260.09V32H254.125ZM263.06 32H261.767L265.506 21.8182H266.778L270.517 32H269.225L266.182 23.429H266.102L263.06 32ZM263.537 28.0227H268.747V29.1165H263.537V28.0227ZM270.357 22.9119V21.8182H277.993V22.9119H274.791V32H273.559V22.9119H270.357ZM281.129 21.8182V32H279.896V21.8182H281.129ZM292.192 26.9091C292.192 27.983 291.998 28.911 291.61 29.6932C291.223 30.4754 290.691 31.0786 290.014 31.5028C289.338 31.9271 288.566 32.1392 287.698 32.1392C286.829 32.1392 286.057 31.9271 285.381 31.5028C284.705 31.0786 284.173 30.4754 283.785 29.6932C283.397 28.911 283.203 27.983 283.203 26.9091C283.203 25.8352 283.397 24.9072 283.785 24.125C284.173 23.3428 284.705 22.7396 285.381 22.3153C286.057 21.8911 286.829 21.679 287.698 21.679C288.566 21.679 289.338 21.8911 290.014 22.3153C290.691 22.7396 291.223 23.3428 291.61 24.125C291.998 24.9072 292.192 25.8352 292.192 26.9091ZM290.999 26.9091C290.999 26.0275 290.851 25.2834 290.556 24.6768C290.265 24.0703 289.869 23.6113 289.368 23.2997C288.871 22.9882 288.314 22.8324 287.698 22.8324C287.081 22.8324 286.523 22.9882 286.022 23.2997C285.525 23.6113 285.129 24.0703 284.834 24.6768C284.542 25.2834 284.397 26.0275 284.397 26.9091C284.397 27.7907 284.542 28.5348 284.834 29.1413C285.129 29.7479 285.525 30.2069 286.022 30.5185C286.523 30.83 287.081 30.9858 287.698 30.9858C288.314 30.9858 288.871 30.83 289.368 30.5185C289.869 30.2069 290.265 29.7479 290.556 29.1413C290.851 28.5348 290.999 27.7907 290.999 26.9091ZM302.339 21.8182V32H301.146L295.598 24.0057H295.498V32H294.265V21.8182H295.458L301.027 29.8324H301.126V21.8182H302.339Z" fill="var(--colors-neutral-neutral-700)"/>
</svg>
