<svg width="54" height="390" viewBox="0 0 54 390" fill="none" xmlns="http://www.w3.org/2000/svg">
<g opacity="0.8" filter="url(#filter0_d_1081_6434)">
<rect x="3" y="2" width="48" height="384" rx="4" fill="white"/>
<rect x="7" y="6" width="40" height="40" rx="4" fill="white"/>
<path d="M25.5656 32.7746L26.7131 29.8889L26.0383 31.5617L25.5656 32.7365L25.1086 31.5549L23.6242 27.7141L25.5656 32.7746ZM32.6281 24.0324L33.8185 24.4846L33.8566 24.4689L24.5109 20.9445L32.6281 24.0324Z" fill="#222222" stroke="#222222"/>
<rect x="7" y="54" width="40" height="40" rx="4" fill="white"/>
<path d="M28 84.5385C26.3987 84.5385 24.9795 84.1042 23.7423 83.2356C22.5051 82.367 21.5891 81.0558 20.9942 79.3019L19.2904 74.3577C19.2493 74.2167 19.2163 74.0882 19.1913 73.9721C19.1663 73.8561 19.1538 73.7257 19.1538 73.5808C19.1538 73.2475 19.2718 72.9628 19.5077 72.7269C19.7436 72.491 20.0282 72.3731 20.3615 72.3731C20.491 72.3731 20.6272 72.3901 20.7702 72.424C20.9131 72.458 21.0346 72.5109 21.1346 72.5827L21.4481 72.725C21.925 73.0481 22.2763 73.3535 22.5019 73.6413C22.7275 73.9292 22.9961 74.4321 23.3077 75.15V67.3077C23.3077 66.8385 23.4532 66.4391 23.7442 66.1096C24.0352 65.7801 24.4154 65.6154 24.8846 65.6154C25.1769 65.6154 25.4041 65.6805 25.5663 65.8106C25.7285 65.9407 25.8513 66.0974 25.9346 66.2808V64.9731C25.9577 64.4936 26.1202 64.109 26.4221 63.8192C26.724 63.5295 27.109 63.3846 27.5769 63.3846C28.0333 63.3846 28.3994 63.5401 28.675 63.851C28.9506 64.1619 29.1096 64.5654 29.1519 65.0615C29.2942 64.8487 29.4484 64.6891 29.6144 64.5827C29.7804 64.4763 29.9987 64.4231 30.2692 64.4231C30.7256 64.4231 31.1026 64.5814 31.4 64.8981C31.6974 65.2148 31.8461 65.6205 31.8461 66.1154V68.05C31.9038 67.8154 32.0385 67.6202 32.25 67.4644C32.4615 67.3087 32.6987 67.2308 32.9615 67.2308C33.4308 67.2308 33.8109 67.3955 34.1019 67.725C34.3929 68.0545 34.5385 68.4539 34.5385 68.9231V78C34.5385 80.0923 33.9718 81.7052 32.8385 82.8385C31.7051 83.9718 30.0923 84.5385 28 84.5385ZM28 83.5385C29.7949 83.5385 31.1666 83.0641 32.1154 82.1154C33.0641 81.1667 33.5385 79.7949 33.5385 78V68.9231C33.5385 68.7128 33.4949 68.5449 33.4077 68.4192C33.3205 68.2936 33.1718 68.2308 32.9615 68.2308C32.7513 68.2308 32.6026 68.2936 32.5154 68.4192C32.4282 68.5449 32.3846 68.7128 32.3846 68.9231V74H30.8461V66.1154C30.8461 65.9051 30.8025 65.7372 30.7154 65.6116C30.6282 65.4859 30.4795 65.4231 30.2692 65.4231C30.059 65.4231 29.9102 65.4859 29.8231 65.6116C29.7359 65.7372 29.6923 65.9051 29.6923 66.1154V74H28.1538V65.0769C28.1538 64.8667 28.1102 64.6987 28.0231 64.5731C27.9359 64.4475 27.7872 64.3846 27.5769 64.3846C27.3667 64.3846 27.2179 64.4475 27.1308 64.5731C27.0436 64.6987 27 64.8667 27 65.0769V74H25.4615V67.3077C25.4615 67.0974 25.4179 66.9295 25.3308 66.8039C25.2436 66.6782 25.0949 66.6154 24.8846 66.6154C24.6743 66.6154 24.5256 66.6782 24.4384 66.8039C24.3513 66.9295 24.3077 67.0974 24.3077 67.3077V77.2692H23.1538L22.6019 75.8654C22.2801 75.0564 21.9253 74.4474 21.5375 74.0385C21.1497 73.6295 20.7654 73.4077 20.3846 73.3731C20.282 73.3731 20.2083 73.418 20.1634 73.5077C20.1186 73.5974 20.1218 73.7128 20.1731 73.8539L21.9461 78.9616C22.4679 80.5205 23.2535 81.6731 24.3029 82.4192C25.3522 83.1654 26.5846 83.5385 28 83.5385Z" fill="#222222"/>
<rect x="7" y="102" width="40" height="40" rx="4" fill="white"/>
<path fill-rule="evenodd" clip-rule="evenodd" d="M18.5 114.5C18.2239 114.5 18 114.724 18 115V117.5H21V114.5H18.5ZM18.5 113.5C17.6716 113.5 17 114.172 17 115V129C17 129.828 17.6716 130.5 18.5 130.5H35.5C36.3284 130.5 37 129.828 37 129V115C37 114.172 36.3284 113.5 35.5 113.5H18.5ZM22 114.5V117.5H26.5V114.5H22ZM27.5 114.5V117.5H32V114.5H27.5ZM33 114.5V117.5H36V115C36 114.724 35.7761 114.5 35.5 114.5H33ZM36 118.5H31V121.5H36V118.5ZM36 122.5H33V125.5H36V122.5ZM36 126.5H31V129.5H35.5C35.7761 129.5 36 129.276 36 129V126.5ZM30 129.5V126.5H24V129.5H30ZM23 129.5V126.5H18V129C18 129.276 18.2239 129.5 18.5 129.5H23ZM18 125.5H21V122.5H18V125.5ZM18 121.5H23V118.5H18V121.5ZM24 118.5V121.5H30V118.5H24ZM27.5 122.5V125.5H32V122.5H27.5ZM26.5 125.5V122.5H22V125.5H26.5Z" fill="#222222"/>
<rect x="7" y="150" width="40" height="40" rx="4" fill="white"/>
<path d="M20 178V167.5L27 162.212L34 167.5V178H33V168L27 163.462L21 168V178H20ZM23.5 176.981H30.5V173.981H23.5V176.981ZM23.5 172.981H30.5V169.981H23.5V172.981ZM22.5 177.981V168.981H31.5V177.981H22.5Z" fill="#222222"/>
<rect x="7" y="198" width="40" height="40" rx="4" fill="white"/>
<path d="M20.6155 226C20.168 226 19.7868 225.843 19.472 225.528C19.1573 225.213 19 224.832 19 224.385V211.615C19 211.168 19.1573 210.787 19.472 210.472C19.7868 210.157 20.168 210 20.6155 210H33.3845C33.832 210 34.2132 210.157 34.528 210.472C34.8427 210.787 35 211.168 35 211.615V224.385C35 224.832 34.8427 225.213 34.528 225.528C34.2132 225.843 33.832 226 33.3845 226H20.6155ZM25.5 225V218.5H20V224.385C20 224.564 20.0577 224.712 20.173 224.827C20.2885 224.942 20.436 225 20.6155 225H25.5ZM26.5 225H33.3845C33.564 225 33.7115 224.942 33.827 224.827C33.9423 224.712 34 224.564 34 224.385V218.5H26.5V225ZM20 217.5H34V211.615C34 211.436 33.9423 211.288 33.827 211.173C33.7115 211.058 33.564 211 33.3845 211H20.6155C20.436 211 20.2885 211.058 20.173 211.173C20.0577 211.288 20 211.436 20 211.615V217.5Z" fill="#222222"/>
<rect x="7" y="246" width="40" height="40" rx="4" fill="white"/>
<path d="M32.5 258.5V273.95H33.5V258.5H32.5Z" fill="#222222"/>
<path d="M20.5 258.5V273.725H21.5V258.5H20.5Z" fill="#222222"/>
<path d="M26.5 258.5V261.725H27.5V258.5H26.5Z" fill="#222222"/>
<path d="M26.5 264.5V267.725H27.5V264.5H26.5Z" fill="#222222"/>
<path d="M26.5 270.5V273.725H27.5V270.5H26.5Z" fill="#222222"/>
<rect x="7" y="294" width="40" height="40" rx="4" fill="white"/>
<path d="M25.6154 318.077H22C20.8721 318.077 19.9106 317.68 19.1156 316.885C18.3206 316.09 17.9231 315.129 17.9231 314.001C17.9231 312.873 18.3206 311.912 19.1156 311.116C19.9106 310.321 20.8721 309.923 22 309.923H25.6154V310.923H22C21.1539 310.923 20.4295 311.224 19.8269 311.827C19.2244 312.429 18.9231 313.154 18.9231 314C18.9231 314.846 19.2244 315.571 19.8269 316.173C20.4295 316.776 21.1539 317.077 22 317.077H25.6154V318.077ZM23.5 314.5V313.5H30.5V314.5H23.5ZM28.3846 318.077V317.077H32C32.8462 317.077 33.5705 316.776 34.1731 316.173C34.7757 315.571 35.0769 314.846 35.0769 314C35.0769 313.154 34.7757 312.429 34.1731 311.827C33.5705 311.224 32.8462 310.923 32 310.923H28.3846V309.923H32C33.128 309.923 34.0894 310.32 34.8844 311.115C35.6794 311.91 36.0769 312.871 36.0769 313.999C36.0769 315.127 35.6794 316.088 34.8844 316.884C34.0894 317.679 33.128 318.077 32 318.077H28.3846Z" fill="#222222"/>
<rect x="7" y="342" width="40" height="40" rx="4" fill="white"/>
<path d="M24 366.5C22.7577 366.5 21.6971 366.061 20.8183 365.182C19.9394 364.303 19.5 363.242 19.5 362C19.5 360.758 19.9394 359.697 20.8183 358.818C21.6971 357.939 22.7577 357.5 24 357.5C25.1654 357.5 26.167 357.879 27.0048 358.638C27.8426 359.396 28.3333 360.35 28.4769 361.5H34.3673L32.2731 359.4L32.9808 358.673L36.3077 362L32.9808 365.308L32.2673 364.581L34.3673 362.5H28.4769C28.3333 363.65 27.8426 364.604 27.0048 365.363C26.167 366.121 25.1654 366.5 24 366.5ZM24 365.5C24.9615 365.5 25.7852 365.157 26.4711 364.471C27.157 363.785 27.5 362.962 27.5 362C27.5 361.038 27.157 360.215 26.4711 359.529C25.7852 358.843 24.9615 358.5 24 358.5C23.0385 358.5 22.2147 358.843 21.5288 359.529C20.8429 360.215 20.5 361.038 20.5 362C20.5 362.962 20.8429 363.785 21.5288 364.471C22.2147 365.157 23.0385 365.5 24 365.5Z" fill="#222222"/>
</g>
<defs>
<filter id="filter0_d_1081_6434" x="0" y="0" width="54" height="390" filterUnits="userSpaceOnUse" color-interpolation-filters="sRGB">
<feFlood flood-opacity="0" result="BackgroundImageFix"/>
<feColorMatrix in="SourceAlpha" type="matrix" values="0 0 0 0 0 0 0 0 0 0 0 0 0 0 0 0 0 0 127 0" result="hardAlpha"/>
<feOffset dy="1"/>
<feGaussianBlur stdDeviation="1.5"/>
<feComposite in2="hardAlpha" operator="out"/>
<feColorMatrix type="matrix" values="0 0 0 0 0 0 0 0 0 0 0 0 0 0 0 0 0 0 0.2 0"/>
<feBlend mode="normal" in2="BackgroundImageFix" result="effect1_dropShadow_1081_6434"/>
<feBlend mode="normal" in="SourceGraphic" in2="effect1_dropShadow_1081_6434" result="shape"/>
</filter>
</defs>
</svg>
