<svg width="48" height="48" viewBox="0 0 48 48" fill="none" xmlns="http://www.w3.org/2000/svg">
<rect width="48" height="48" rx="24" fill="white"/>
<path d="M23.6667 18.6667L23.6667 12.7551L20.9334 15.4718L20.4744 15L24 11.4743L27.5257 15L27.0667 15.4718L24.3334 12.7551L24.3334 18.6667L23.6667 18.6667Z" fill="var(--colors-neutral-neutral-800)"/>
<rect x="17.5" y="27.5" width="13" height="13" rx="0.5" stroke="var(--colors-neutral-neutral-800)"/>
<path d="M19 7.5H29C29.8284 7.5 30.5 8.17157 30.5 9V23C30.5 23.2761 30.2761 23.5 30 23.5H18C17.7239 23.5 17.5 23.2761 17.5 23V9C17.5 8.17157 18.1716 7.5 19 7.5Z" stroke="var(--colors-neutral-neutral-800)"/>
<path d="M21.5 27.5L24 23.5" stroke="var(--colors-neutral-neutral-800)"/>
<path d="M26.5 27.5L24 23.5" stroke="var(--colors-neutral-neutral-800)"/>
<path d="M18 31H30" stroke="var(--colors-neutral-neutral-800)"/>
<path d="M18 34H30" stroke="var(--colors-neutral-neutral-800)"/>
<path d="M18 37H30" stroke="var(--colors-neutral-neutral-800)"/>
</svg>
