<svg width="76" height="40" viewBox="0 0 76 40" fill="none" xmlns="http://www.w3.org/2000/svg">
<rect width="76" height="40" fill="var(--colors-primary-primary-700)"/>
<path d="M17.2573 25.5V15.3182H18.7935V24.1776H23.4071V25.5H17.2573ZM26.5392 25.5H24.9086L28.5726 15.3182H30.3475L34.0115 25.5H32.3809L29.5023 17.1676H29.4228L26.5392 25.5ZM26.8127 21.5128H32.1025V22.8054H26.8127V21.5128ZM35.4819 25.5V15.3182H39.2106C39.9331 15.3182 40.5314 15.4375 41.0053 15.6761C41.4793 15.9115 41.8339 16.2313 42.0692 16.6357C42.3046 17.0367 42.4222 17.4891 42.4222 17.9929C42.4222 18.4171 42.3443 18.7751 42.1886 19.0668C42.0328 19.3551 41.824 19.5871 41.5621 19.7628C41.3036 19.9351 41.0186 20.0611 40.707 20.1406V20.2401C41.0451 20.2566 41.3749 20.366 41.6964 20.5682C42.0212 20.767 42.2897 21.0504 42.5018 21.4183C42.7139 21.7862 42.82 22.2337 42.82 22.7607C42.82 23.281 42.6973 23.7483 42.4521 24.1626C42.2101 24.5736 41.8356 24.9001 41.3285 25.142C40.8214 25.3807 40.1734 25.5 39.3846 25.5H35.4819ZM37.0181 24.1825H39.2354C39.9712 24.1825 40.4982 24.04 40.8164 23.755C41.1346 23.4699 41.2937 23.1136 41.2937 22.6861C41.2937 22.3646 41.2125 22.0696 41.0501 21.8011C40.8877 21.5327 40.6557 21.3189 40.354 21.1598C40.0558 21.0007 39.7011 20.9212 39.2901 20.9212H37.0181V24.1825ZM37.0181 19.723H39.0763C39.421 19.723 39.7309 19.6567 40.006 19.5241C40.2844 19.3916 40.5049 19.206 40.6673 18.9673C40.833 18.7254 40.9158 18.4403 40.9158 18.1122C40.9158 17.6913 40.7683 17.3383 40.4734 17.0533C40.1784 16.7682 39.726 16.6257 39.1161 16.6257H37.0181V19.723ZM44.642 25.5V15.3182H51.0256V16.6406H46.1783V19.7429H50.6925V21.0604H46.1783V24.1776H51.0852V25.5H44.642ZM53.0776 25.5V15.3182H54.6138V24.1776H59.2275V25.5H53.0776Z" fill="white"/>
</svg>
