<svg width="288" height="61" viewBox="0 0 288 61" fill="none" xmlns="http://www.w3.org/2000/svg">
<path d="M1.23295 24V13.8182H2.46591V22.9062H7.19886V24H1.23295ZM11.196 24.179C10.7121 24.179 10.273 24.0878 9.87855 23.9055C9.48414 23.7199 9.17093 23.4531 8.93892 23.1051C8.70691 22.7538 8.59091 22.3295 8.59091 21.8324C8.59091 21.3949 8.67708 21.0402 8.84943 20.7685C9.02178 20.4934 9.25213 20.2779 9.54048 20.1222C9.82884 19.9664 10.147 19.8504 10.495 19.7741C10.8464 19.6946 11.1993 19.6316 11.554 19.5852C12.018 19.5256 12.3942 19.4808 12.6825 19.451C12.9742 19.4179 13.1863 19.3632 13.3189 19.2869C13.4548 19.2107 13.5227 19.0781 13.5227 18.8892V18.8494C13.5227 18.3589 13.3885 17.9777 13.12 17.706C12.8549 17.4342 12.4522 17.2983 11.9119 17.2983C11.3518 17.2983 10.9126 17.4209 10.5945 17.6662C10.2763 17.9115 10.0526 18.1733 9.9233 18.4517L8.80966 18.054C9.00852 17.59 9.27367 17.2287 9.60511 16.9702C9.93987 16.7083 10.3045 16.526 10.6989 16.4233C11.0966 16.3172 11.4877 16.2642 11.8722 16.2642C12.1174 16.2642 12.3991 16.294 12.7173 16.3537C13.0388 16.41 13.3487 16.5277 13.647 16.7067C13.9486 16.8857 14.1989 17.1558 14.3977 17.517C14.5966 17.8783 14.696 18.3622 14.696 18.9688V24H13.5227V22.9659H13.4631C13.3835 23.1316 13.2509 23.3089 13.0653 23.4979C12.8797 23.6868 12.6328 23.8475 12.3246 23.9801C12.0163 24.1127 11.6402 24.179 11.196 24.179ZM11.375 23.125C11.839 23.125 12.2301 23.0339 12.5483 22.8516C12.8698 22.6693 13.1117 22.4339 13.2741 22.1456C13.4399 21.8572 13.5227 21.554 13.5227 21.2358V20.1619C13.473 20.2216 13.3636 20.2763 13.1946 20.326C13.0289 20.3724 12.8366 20.4138 12.6179 20.4503C12.4025 20.4834 12.192 20.5133 11.9865 20.5398C11.7843 20.563 11.6203 20.5829 11.4943 20.5994C11.1894 20.6392 10.9044 20.7038 10.6392 20.7933C10.3774 20.8795 10.1652 21.0104 10.0028 21.1861C9.84375 21.3584 9.7642 21.5937 9.7642 21.892C9.7642 22.2997 9.91501 22.608 10.2166 22.8168C10.5215 23.0223 10.9077 23.125 11.375 23.125ZM16.9966 24V13.8182H18.1699V17.5767H18.2694C18.3555 17.4441 18.4748 17.2751 18.6273 17.0696C18.7831 16.8608 19.0051 16.6752 19.2935 16.5128C19.5852 16.3471 19.9796 16.2642 20.4767 16.2642C21.1197 16.2642 21.6865 16.425 22.177 16.7464C22.6676 17.0679 23.0504 17.5237 23.3255 18.1136C23.6006 18.7036 23.7381 19.3996 23.7381 20.2017C23.7381 21.0104 23.6006 21.7114 23.3255 22.3047C23.0504 22.8946 22.6692 23.352 22.182 23.6768C21.6948 23.9983 21.133 24.1591 20.4966 24.1591C20.0061 24.1591 19.6133 24.0779 19.3184 23.9155C19.0234 23.7498 18.7963 23.5625 18.6373 23.3537C18.4782 23.1416 18.3555 22.9659 18.2694 22.8267H18.1301V24H16.9966ZM18.15 20.1818C18.15 20.7585 18.2346 21.2673 18.4036 21.7081C18.5726 22.1456 18.8195 22.4886 19.1444 22.7372C19.4692 22.9825 19.8669 23.1051 20.3375 23.1051C20.8281 23.1051 21.2374 22.9759 21.5655 22.7173C21.897 22.4555 22.1455 22.1042 22.3113 21.6634C22.4803 21.2192 22.5648 20.7254 22.5648 20.1818C22.5648 19.6449 22.4819 19.161 22.3162 18.7301C22.1538 18.2959 21.9069 17.9529 21.5755 17.701C21.2473 17.4458 20.8347 17.3182 20.3375 17.3182C19.8603 17.3182 19.4592 17.4392 19.1344 17.6811C18.8096 17.9197 18.5643 18.2545 18.3986 18.6854C18.2329 19.1129 18.15 19.6117 18.15 20.1818ZM28.7346 24.1591C27.9988 24.1591 27.3641 23.9967 26.8304 23.6719C26.3001 23.3438 25.8908 22.8864 25.6025 22.2997C25.3174 21.7098 25.1749 21.0237 25.1749 20.2415C25.1749 19.4593 25.3174 18.7699 25.6025 18.1733C25.8908 17.5734 26.2918 17.1061 26.8056 16.7713C27.3226 16.4332 27.9258 16.2642 28.6152 16.2642C29.013 16.2642 29.4057 16.3305 29.7935 16.4631C30.1813 16.5956 30.5343 16.8111 30.8525 17.1094C31.1706 17.4044 31.4242 17.7955 31.6131 18.2827C31.802 18.7699 31.8965 19.3698 31.8965 20.0824V20.5795H26.0101V19.5653H30.7033C30.7033 19.1345 30.6171 18.75 30.4448 18.4119C30.2757 18.0739 30.0338 17.8071 29.7189 17.6115C29.4074 17.416 29.0395 17.3182 28.6152 17.3182C28.1479 17.3182 27.7435 17.4342 27.4022 17.6662C27.0641 17.8949 26.8039 18.1932 26.6216 18.5611C26.4393 18.929 26.3482 19.3234 26.3482 19.7443V20.4205C26.3482 20.9972 26.4476 21.486 26.6465 21.8871C26.8487 22.2848 27.1287 22.5881 27.4867 22.7969C27.8446 23.0024 28.2606 23.1051 28.7346 23.1051C29.0428 23.1051 29.3212 23.062 29.5698 22.9759C29.8217 22.8864 30.0388 22.7538 30.2211 22.5781C30.4034 22.3991 30.5442 22.1771 30.6436 21.9119L31.7772 22.2301C31.6578 22.6146 31.4573 22.9527 31.1756 23.2443C30.8939 23.5327 30.5459 23.758 30.1316 23.9205C29.7173 24.0795 29.2516 24.1591 28.7346 24.1591ZM34.8546 13.8182V24H33.6813V13.8182H34.8546Z" fill="var(--colors-neutral-neutral-800)"/>
<path d="M0.880682 52.5V45.2273H1.76136V51.7188H5.14205V52.5H0.880682ZM7.99716 52.6278C7.65152 52.6278 7.33783 52.5627 7.05611 52.4325C6.77438 52.3 6.55066 52.1094 6.38494 51.8608C6.21922 51.6098 6.13636 51.3068 6.13636 50.9517C6.13636 50.6392 6.19792 50.3859 6.32102 50.1918C6.44413 49.9953 6.60866 49.8414 6.81463 49.7301C7.0206 49.6188 7.24787 49.536 7.49645 49.4815C7.7474 49.4247 7.99953 49.3797 8.25284 49.3466C8.58428 49.304 8.85298 49.272 9.05895 49.2507C9.26728 49.227 9.4188 49.188 9.51349 49.1335C9.61056 49.0791 9.65909 48.9844 9.65909 48.8494V48.821C9.65909 48.4706 9.56321 48.1984 9.37145 48.0043C9.18206 47.8101 8.89441 47.7131 8.50852 47.7131C8.10843 47.7131 7.79474 47.8007 7.56747 47.9759C7.3402 48.151 7.1804 48.3381 7.08807 48.5369L6.29261 48.2528C6.43466 47.9214 6.62405 47.6634 6.8608 47.4787C7.09991 47.2917 7.36032 47.1615 7.64205 47.0881C7.92614 47.0123 8.20549 46.9744 8.48011 46.9744C8.6553 46.9744 8.85653 46.9957 9.08381 47.0384C9.31345 47.0786 9.5348 47.1626 9.74787 47.2905C9.9633 47.4183 10.142 47.6113 10.2841 47.8693C10.4261 48.1274 10.4972 48.473 10.4972 48.9062V52.5H9.65909V51.7614H9.61648C9.55966 51.8797 9.46496 52.0064 9.33239 52.1413C9.19981 52.2763 9.02344 52.3911 8.80327 52.4858C8.5831 52.5805 8.31439 52.6278 7.99716 52.6278ZM8.125 51.875C8.45644 51.875 8.7358 51.8099 8.96307 51.6797C9.19271 51.5495 9.36553 51.3814 9.48153 51.1754C9.59991 50.9695 9.65909 50.7528 9.65909 50.5256V49.7585C9.62358 49.8011 9.54545 49.8402 9.42472 49.8757C9.30634 49.9089 9.16903 49.9384 9.01278 49.9645C8.8589 49.9882 8.70857 50.0095 8.56179 50.0284C8.41738 50.045 8.30019 50.0592 8.21023 50.071C7.99242 50.0994 7.78883 50.1456 7.59943 50.2095C7.41241 50.2711 7.26089 50.3646 7.14489 50.4901C7.03125 50.6132 6.97443 50.7812 6.97443 50.9943C6.97443 51.2855 7.08215 51.5057 7.29759 51.6548C7.51539 51.8016 7.79119 51.875 8.125 51.875ZM12.1404 52.5V45.2273H12.9785V47.9119H13.0495C13.1111 47.8172 13.1963 47.6965 13.3052 47.5497C13.4165 47.4006 13.5751 47.268 13.7811 47.152C13.9894 47.0336 14.2711 46.9744 14.6262 46.9744C15.0855 46.9744 15.4904 47.0893 15.8407 47.3189C16.1911 47.5485 16.4645 47.8741 16.661 48.2955C16.8575 48.7169 16.9558 49.214 16.9558 49.7869C16.9558 50.3646 16.8575 50.8653 16.661 51.2891C16.4645 51.7105 16.1923 52.0372 15.8443 52.2692C15.4963 52.4988 15.095 52.6136 14.6404 52.6136C14.2901 52.6136 14.0095 52.5556 13.7988 52.4396C13.5881 52.3213 13.426 52.1875 13.3123 52.0384C13.1987 51.8868 13.1111 51.7614 13.0495 51.6619H12.9501V52.5H12.1404ZM12.9643 49.7727C12.9643 50.1847 13.0247 50.5481 13.1454 50.8629C13.2662 51.1754 13.4425 51.4205 13.6745 51.598C13.9065 51.7732 14.1906 51.8608 14.5268 51.8608C14.8772 51.8608 15.1696 51.7685 15.4039 51.5838C15.6407 51.3968 15.8182 51.1458 15.9366 50.831C16.0574 50.5137 16.1177 50.161 16.1177 49.7727C16.1177 49.3892 16.0585 49.0436 15.9402 48.7358C15.8242 48.4257 15.6478 48.1806 15.411 48.0007C15.1767 47.8184 14.8819 47.7273 14.5268 47.7273C14.1859 47.7273 13.8994 47.8137 13.6674 47.9865C13.4354 48.157 13.2602 48.3961 13.1419 48.7038C13.0235 49.0092 12.9643 49.3655 12.9643 49.7727ZM20.5247 52.6136C19.9991 52.6136 19.5458 52.4976 19.1646 52.2656C18.7858 52.0312 18.4934 51.7045 18.2875 51.2855C18.0839 50.8641 17.9821 50.3741 17.9821 49.8153C17.9821 49.2566 18.0839 48.7642 18.2875 48.3381C18.4934 47.9096 18.7799 47.5758 19.1468 47.3366C19.5162 47.0952 19.947 46.9744 20.4395 46.9744C20.7235 46.9744 21.0041 47.0218 21.2811 47.1165C21.5581 47.2112 21.8102 47.3651 22.0375 47.5781C22.2647 47.7888 22.4458 48.0682 22.5808 48.4162C22.7157 48.7642 22.7832 49.1927 22.7832 49.7017V50.0568H18.5787V49.3324H21.9309C21.9309 49.0246 21.8694 48.75 21.7463 48.5085C21.6255 48.267 21.4527 48.0765 21.2278 47.9368C21.0053 47.7971 20.7425 47.7273 20.4395 47.7273C20.1056 47.7273 19.8168 47.8101 19.573 47.9759C19.3315 48.1392 19.1457 48.3523 19.0154 48.6151C18.8852 48.8778 18.8201 49.1596 18.8201 49.4602V49.9432C18.8201 50.3551 18.8912 50.7043 19.0332 50.9908C19.1776 51.2749 19.3777 51.4915 19.6333 51.6406C19.889 51.7874 20.1861 51.8608 20.5247 51.8608C20.7449 51.8608 20.9437 51.83 21.1213 51.7685C21.3012 51.7045 21.4563 51.6098 21.5865 51.4844C21.7167 51.3565 21.8173 51.1979 21.8883 51.0085L22.698 51.2358C22.6127 51.5104 22.4695 51.7519 22.2683 51.9602C22.0671 52.1662 21.8185 52.3272 21.5225 52.4432C21.2266 52.5568 20.894 52.6136 20.5247 52.6136ZM24.8961 45.2273V52.5H24.0581V45.2273H24.8961Z" fill="var(--colors-neutral-neutral-800)"/>
<path d="M269.5 49.5V48.5H282.5V49.5H269.5Z" fill="var(--colors-neutral-neutral-800)"/>
</svg>
