<svg width="184" height="32" viewBox="0 0 184 32" fill="none" xmlns="http://www.w3.org/2000/svg">
<rect width="184" height="32" fill="#F7F7F7"/>
<path d="M7.59615 24V16.5H3V15.5H7.59615V8H9.63463V15.5H14.3654V11H16.4038V15.5H21V16.5H16.4038V21H14.3654V16.5H9.63463V24H7.59615Z" fill="#808080"/>
<path d="M38.2727 13.4545L35.8523 20H34.8295L32.4091 13.4545H33.5L35.3068 18.6705H35.375L37.1818 13.4545H38.2727ZM41.3271 20.1534C40.9123 20.1534 40.5359 20.0753 40.1978 19.919C39.8597 19.7599 39.5913 19.5312 39.3924 19.233C39.1935 18.9318 39.0941 18.5682 39.0941 18.142C39.0941 17.767 39.168 17.4631 39.3157 17.2301C39.4634 16.9943 39.6609 16.8097 39.908 16.6761C40.1552 16.5426 40.4279 16.4432 40.7262 16.3778C41.0273 16.3097 41.3299 16.2557 41.6339 16.2159C42.0316 16.1648 42.354 16.1264 42.6012 16.1009C42.8512 16.0724 43.033 16.0256 43.1467 15.9602C43.2631 15.8949 43.3214 15.7812 43.3214 15.6193V15.5852C43.3214 15.1648 43.2063 14.8381 42.9762 14.6051C42.7489 14.3722 42.4038 14.2557 41.9407 14.2557C41.4606 14.2557 41.0842 14.3608 40.8114 14.571C40.5387 14.7812 40.3469 15.0057 40.2362 15.2443L39.2816 14.9034C39.4521 14.5057 39.6793 14.196 39.9634 13.9744C40.2504 13.75 40.5629 13.5937 40.9009 13.5057C41.2418 13.4148 41.5771 13.3693 41.9066 13.3693C42.1168 13.3693 42.3583 13.3949 42.631 13.446C42.9066 13.4943 43.1722 13.5952 43.4279 13.7486C43.6864 13.902 43.9009 14.1335 44.0714 14.4432C44.2418 14.7528 44.3271 15.1676 44.3271 15.6875V20H43.3214V19.1136H43.2702C43.2021 19.2557 43.0884 19.4077 42.9293 19.5696C42.7702 19.7315 42.5586 19.8693 42.2944 19.983C42.0302 20.0966 41.7077 20.1534 41.3271 20.1534ZM41.4805 19.25C41.8782 19.25 42.2134 19.1719 42.4862 19.0156C42.7617 18.8594 42.9691 18.6577 43.1083 18.4105C43.2504 18.1634 43.3214 17.9034 43.3214 17.6307V16.7102C43.2788 16.7614 43.185 16.8082 43.0401 16.8509C42.8981 16.8906 42.7333 16.9261 42.5458 16.9574C42.3612 16.9858 42.1808 17.0114 42.0046 17.0341C41.8313 17.054 41.6907 17.071 41.5827 17.0852C41.3214 17.1193 41.0771 17.1747 40.8498 17.2514C40.6254 17.3253 40.4435 17.4375 40.3043 17.5881C40.168 17.7358 40.0998 17.9375 40.0998 18.1932C40.0998 18.5426 40.229 18.8068 40.4876 18.9858C40.7489 19.1619 41.0799 19.25 41.4805 19.25ZM47.1683 11.2727V20H46.1626V11.2727H47.1683Z" fill="#222222"/>
</svg>
