<svg width="24" height="184" viewBox="0 0 24 184" fill="none" xmlns="http://www.w3.org/2000/svg">
<path d="M11 12.5031L12 12L13 12.5031V171.497L12 172L11 171.497V12.5031Z" fill="#B42318"/>
<path d="M6.39996 18.3077L5.69226 17.6L11.2923 12L5.69226 6.39999L6.39996 5.69229L12 11.2923L17.6 5.69229L18.3077 6.39999L12.7077 12L18.3077 17.6L17.6 18.3077L12 12.7077L6.39996 18.3077Z" fill="#B42318"/>
<path d="M6.39996 178.308L5.69226 177.6L11.2923 172L5.69226 166.4L6.39996 165.692L12 171.292L17.6 165.692L18.3077 166.4L12.7077 172L18.3077 177.6L17.6 178.308L12 172.708L6.39996 178.308Z" fill="#B42318"/>
</svg>
