<svg width="96" height="40" viewBox="0 0 96 40" fill="none" xmlns="http://www.w3.org/2000/svg">
<rect width="96" height="40" fill="var(--colors-neutral-neutral-300)"/>
<path d="M19.5 26.5V20.5H13.5V19.5H19.5V13.5H20.5V19.5H26.5V20.5H20.5V26.5H19.5Z" fill="var(--colors-neutral-neutral-600)"/>
<path d="M37.2573 25.5V15.3182H38.7935V24.1776H43.4071V25.5H37.2573ZM46.5392 25.5H44.9086L48.5726 15.3182H50.3475L54.0115 25.5H52.3809L49.5023 17.1676H49.4228L46.5392 25.5ZM46.8127 21.5128H52.1025V22.8054H46.8127V21.5128ZM55.4819 25.5V15.3182H59.2106C59.9331 15.3182 60.5314 15.4375 61.0053 15.6761C61.4793 15.9115 61.8339 16.2313 62.0692 16.6357C62.3046 17.0367 62.4222 17.4891 62.4222 17.9929C62.4222 18.4171 62.3443 18.7751 62.1886 19.0668C62.0328 19.3551 61.824 19.5871 61.5621 19.7628C61.3036 19.9351 61.0186 20.0611 60.707 20.1406V20.2401C61.0451 20.2566 61.3749 20.366 61.6964 20.5682C62.0212 20.767 62.2897 21.0504 62.5018 21.4183C62.7139 21.7862 62.82 22.2337 62.82 22.7607C62.82 23.281 62.6973 23.7483 62.4521 24.1626C62.2101 24.5736 61.8356 24.9001 61.3285 25.142C60.8214 25.3807 60.1734 25.5 59.3846 25.5H55.4819ZM57.0181 24.1825H59.2354C59.9712 24.1825 60.4982 24.04 60.8164 23.755C61.1346 23.4699 61.2937 23.1136 61.2937 22.6861C61.2937 22.3646 61.2125 22.0696 61.0501 21.8011C60.8877 21.5327 60.6557 21.3189 60.354 21.1598C60.0558 21.0007 59.7011 20.9212 59.2901 20.9212H57.0181V24.1825ZM57.0181 19.723H59.0763C59.421 19.723 59.7309 19.6567 60.006 19.5241C60.2844 19.3916 60.5049 19.206 60.6673 18.9673C60.833 18.7254 60.9158 18.4403 60.9158 18.1122C60.9158 17.6913 60.7683 17.3383 60.4734 17.0533C60.1784 16.7682 59.726 16.6257 59.1161 16.6257H57.0181V19.723ZM64.642 25.5V15.3182H71.0256V16.6406H66.1783V19.7429H70.6925V21.0604H66.1783V24.1776H71.0852V25.5H64.642ZM73.0776 25.5V15.3182H74.6138V24.1776H79.2275V25.5H73.0776Z" fill="var(--colors-neutral-neutral-600)"/>
</svg>
