<svg width="24" height="13" viewBox="0 0 24 13" fill="none" xmlns="http://www.w3.org/2000/svg">
<path d="M4.53853 7.76989V4.54545H5.3766V10H4.53853V9.0767H4.48171C4.35387 9.35369 4.15501 9.58925 3.88512 9.78338C3.61523 9.97514 3.27433 10.071 2.86239 10.071C2.52148 10.071 2.21845 9.99645 1.9533 9.8473C1.68815 9.69579 1.47982 9.46851 1.3283 9.16548C1.17679 8.86009 1.10103 8.47538 1.10103 8.01136V4.54545H1.9391V7.95455C1.9391 8.35227 2.05037 8.66951 2.2729 8.90625C2.49781 9.14299 2.78427 9.26136 3.13228 9.26136C3.34061 9.26136 3.5525 9.2081 3.76793 9.10156C3.98574 8.99503 4.16803 8.83168 4.31481 8.61151C4.46396 8.39134 4.53853 8.1108 4.53853 7.76989ZM7.74964 6.71875V10H6.91158V4.54545H7.72124V5.39773H7.79226C7.9201 5.12074 8.11423 4.8982 8.37464 4.73011C8.63506 4.55966 8.97124 4.47443 9.38317 4.47443C9.75249 4.47443 10.0756 4.55019 10.3526 4.7017C10.6296 4.85085 10.8451 5.07812 10.9989 5.38352C11.1528 5.68655 11.2298 6.07008 11.2298 6.53409V10H10.3917V6.59091C10.3917 6.16241 10.2804 5.8286 10.0579 5.58949C9.83535 5.34801 9.52995 5.22727 9.14169 5.22727C8.87417 5.22727 8.63506 5.28527 8.42436 5.40128C8.21603 5.51728 8.05149 5.68655 7.93075 5.90909C7.81001 6.13163 7.74964 6.40152 7.74964 6.71875ZM12.7612 10V4.54545H13.5993V10H12.7612ZM13.1873 3.63636C13.024 3.63636 12.8831 3.58073 12.7647 3.46946C12.6487 3.35819 12.5907 3.22443 12.5907 3.06818C12.5907 2.91193 12.6487 2.77817 12.7647 2.6669C12.8831 2.55563 13.024 2.5 13.1873 2.5C13.3507 2.5 13.4904 2.55563 13.6064 2.6669C13.7247 2.77817 13.7839 2.91193 13.7839 3.06818C13.7839 3.22443 13.7247 3.35819 13.6064 3.46946C13.4904 3.58073 13.3507 3.63636 13.1873 3.63636ZM17.5064 4.54545V5.25568H14.6797V4.54545H17.5064ZM15.5036 3.23864H16.3416V8.4375C16.3416 8.67424 16.3759 8.8518 16.4446 8.97017C16.5156 9.08617 16.6056 9.1643 16.7145 9.20455C16.8258 9.24242 16.9429 9.26136 17.0661 9.26136C17.1584 9.26136 17.2341 9.25663 17.2933 9.24716C17.3525 9.23532 17.3999 9.22585 17.4354 9.21875L17.6058 9.97159C17.549 9.9929 17.4697 10.0142 17.3679 10.0355C17.2661 10.0592 17.1371 10.071 16.9808 10.071C16.7441 10.071 16.5121 10.0201 16.2848 9.91832C16.0599 9.81652 15.8729 9.66146 15.7237 9.45312C15.5769 9.24479 15.5036 8.98201 15.5036 8.66477V3.23864Z" fill="var(--colors-neutral-neutral-700)"/>
</svg>
