<svg width="288" height="40" viewBox="0 0 288 40" fill="none" xmlns="http://www.w3.org/2000/svg">
<path d="M18.7308 28L28 12L37.2693 28H18.7308ZM20.45 27H35.55L28 14L20.45 27ZM28 25.6154C28.1744 25.6154 28.3205 25.5564 28.4385 25.4385C28.5564 25.3205 28.6154 25.1744 28.6154 25C28.6154 24.8256 28.5564 24.6795 28.4385 24.5615C28.3205 24.4436 28.1744 24.3846 28 24.3846C27.8257 24.3846 27.6795 24.4436 27.5615 24.5615C27.4436 24.6795 27.3846 24.8256 27.3846 25C27.3846 25.1744 27.4436 25.3205 27.5615 25.4385C27.6795 25.5564 27.8257 25.6154 28 25.6154ZM27.5 23.3846H28.5V18.3846H27.5V23.3846Z" fill="#222222"/>
<path d="M56.6165 16.6406V15.3182H64.4964V16.6406H61.3196V25.5H59.7884V16.6406H56.6165ZM68.3022 25.6541C67.5498 25.6541 66.9019 25.4934 66.3583 25.1719C65.8181 24.8471 65.4004 24.3913 65.1055 23.8047C64.8138 23.2147 64.668 22.5237 64.668 21.7315C64.668 20.9493 64.8138 20.2599 65.1055 19.6634C65.4004 19.0668 65.8114 18.6011 66.3384 18.2663C66.8687 17.9316 67.4885 17.7642 68.1978 17.7642C68.6287 17.7642 69.0463 17.8355 69.4506 17.978C69.855 18.1205 70.2179 18.3442 70.5394 18.6491C70.8609 18.9541 71.1145 19.3501 71.3001 19.8374C71.4857 20.3213 71.5785 20.9096 71.5785 21.6023V22.1293H65.5082V21.0156H70.1218C70.1218 20.6245 70.0423 20.2782 69.8832 19.9766C69.7241 19.6716 69.5004 19.4313 69.212 19.2557C68.927 19.08 68.5922 18.9922 68.2077 18.9922C67.7901 18.9922 67.4255 19.0949 67.114 19.3004C66.8058 19.5026 66.5671 19.7678 66.3981 20.0959C66.2324 20.4207 66.1495 20.7737 66.1495 21.1548V22.0249C66.1495 22.5353 66.239 22.9695 66.418 23.3274C66.6003 23.6854 66.8538 23.9588 67.1786 24.1477C67.5034 24.3333 67.8829 24.4261 68.3171 24.4261C68.5988 24.4261 68.8557 24.3864 69.0877 24.3068C69.3197 24.224 69.5202 24.1013 69.6893 23.9389C69.8583 23.7765 69.9876 23.576 70.0771 23.3374L71.484 23.5909C71.3713 24.0052 71.1692 24.3681 70.8775 24.6797C70.5891 24.9879 70.2262 25.2282 69.7887 25.4006C69.3545 25.5696 68.859 25.6541 68.3022 25.6541ZM74.2234 17.8636L75.9087 20.8366L77.609 17.8636H79.2347L76.8533 21.6818L79.2546 25.5H77.6289L75.9087 22.6463L74.1935 25.5H72.5629L74.9393 21.6818L72.5927 17.8636H74.2234ZM84.3256 17.8636V19.0568H80.1545V17.8636H84.3256ZM81.2731 16.0341H82.7596V23.2578C82.7596 23.5462 82.8027 23.7633 82.8888 23.9091C82.975 24.0516 83.0861 24.1494 83.2219 24.2024C83.3612 24.2521 83.512 24.277 83.6744 24.277C83.7937 24.277 83.8981 24.2687 83.9876 24.2521C84.0771 24.2356 84.1467 24.2223 84.1964 24.2124L84.4648 25.4403C84.3787 25.4735 84.256 25.5066 84.0969 25.5398C83.9379 25.5762 83.739 25.5961 83.5004 25.5994C83.1093 25.6061 82.7447 25.5365 82.4066 25.3906C82.0685 25.2448 81.7951 25.0194 81.5863 24.7145C81.3775 24.4096 81.2731 24.0268 81.2731 23.5661V16.0341Z" fill="#222222"/>
<path d="M260 22.7019L254.692 17.3942L255.4 16.6865L260 21.2865L264.6 16.6865L265.308 17.3942L260 22.7019Z" fill="#222222"/>
</svg>
