<svg width="37" height="27" viewBox="0 0 37 27" fill="none" xmlns="http://www.w3.org/2000/svg">
<rect width="37" height="21" fill="var(--colors-neutral-neutral-800)"/>
<path d="M8.48295 7.50852V6.72727H13.9375V7.50852H11.6506V14H10.7699V7.50852H8.48295ZM16.679 14.1136C16.1534 14.1136 15.7 13.9976 15.3189 13.7656C14.9401 13.5312 14.6477 13.2045 14.4418 12.7855C14.2382 12.3641 14.1364 11.8741 14.1364 11.3153C14.1364 10.7566 14.2382 10.2642 14.4418 9.83807C14.6477 9.40956 14.9342 9.07576 15.3011 8.83665C15.6705 8.59517 16.1013 8.47443 16.5938 8.47443C16.8778 8.47443 17.1584 8.52178 17.4354 8.61648C17.7124 8.71117 17.9645 8.86506 18.1918 9.07812C18.419 9.28883 18.6001 9.56818 18.7351 9.91619C18.87 10.2642 18.9375 10.6927 18.9375 11.2017V11.5568H14.733V10.8324H18.0852C18.0852 10.5246 18.0237 10.25 17.9006 10.0085C17.7798 9.76705 17.607 9.57647 17.3821 9.43679C17.1596 9.29711 16.8968 9.22727 16.5938 9.22727C16.2599 9.22727 15.9711 9.31013 15.7273 9.47585C15.4858 9.6392 15.3 9.85227 15.1697 10.1151C15.0395 10.3778 14.9744 10.6596 14.9744 10.9602V11.4432C14.9744 11.8551 15.0455 12.2043 15.1875 12.4908C15.3319 12.7749 15.532 12.9915 15.7876 13.1406C16.0433 13.2874 16.3404 13.3608 16.679 13.3608C16.8991 13.3608 17.098 13.33 17.2756 13.2685C17.4555 13.2045 17.6106 13.1098 17.7408 12.9844C17.871 12.8565 17.9716 12.6979 18.0426 12.5085L18.8523 12.7358C18.767 13.0104 18.6238 13.2519 18.4226 13.4602C18.2214 13.6662 17.9728 13.8272 17.6768 13.9432C17.3809 14.0568 17.0483 14.1136 16.679 14.1136ZM20.6909 8.54545L21.9977 10.7756L23.3045 8.54545H24.2704L22.5091 11.2727L24.2704 14H23.3045L21.9977 11.8835L20.6909 14H19.725L21.4579 11.2727L19.725 8.54545H20.6909ZM27.8384 8.54545V9.25568H25.0117V8.54545H27.8384ZM25.8356 7.23864H26.6737V12.4375C26.6737 12.6742 26.708 12.8518 26.7766 12.9702C26.8477 13.0862 26.9376 13.1643 27.0465 13.2045C27.1578 13.2424 27.275 13.2614 27.3981 13.2614C27.4904 13.2614 27.5662 13.2566 27.6254 13.2472C27.6845 13.2353 27.7319 13.2259 27.7674 13.2188L27.9379 13.9716C27.881 13.9929 27.8017 14.0142 27.6999 14.0355C27.5981 14.0592 27.4691 14.071 27.3129 14.071C27.0761 14.071 26.8441 14.0201 26.6168 13.9183C26.3919 13.8165 26.2049 13.6615 26.0558 13.4531C25.909 13.2448 25.8356 12.982 25.8356 12.6648V7.23864Z" fill="white"/>
<path d="M18.5 27L14.5 21H22.5L18.5 27Z" fill="var(--colors-neutral-neutral-800)"/>
</svg>
