<svg width="24" height="24" viewBox="0 0 24 24" fill="none" xmlns="http://www.w3.org/2000/svg">
<path d="M21.2179 4.42964H17.5996V0.789128C17.5996 0.357738 17.2555 0 16.8175 0H2.78206C2.34411 0 2 0.357738 2 0.789128V23.2109C2 23.6423 2.34411 24 2.78206 24H16.8175C17.2555 24 17.5996 23.6423 17.5996 23.2109V19.5493H21.2179C21.6455 19.5493 22 19.2021 22 18.7602V5.21876C22 4.78737 21.6455 4.42964 21.2179 4.42964ZM3.56413 1.57826H6.38999V4.42964H3.56413V1.57826ZM3.56413 6.00789H6.38999V17.9711H3.56413V6.00789ZM3.56413 19.5493H6.38999V22.4217H3.56413V19.5493ZM16.0355 22.4217H7.95412V19.5493H16.0355V22.4217ZM16.0355 17.9711H7.95412V6.00789H16.0355V17.9711ZM16.0355 4.42964H7.95412V1.57826H16.0355V4.42964ZM20.4359 17.9711H17.5996V6.00789H20.4359V17.9711Z" fill="var(--colors-neutral-neutral-700)"/>
</svg>
