<svg width="304" height="96" viewBox="0 0 304 96" fill="none" xmlns="http://www.w3.org/2000/svg">
<path d="M24.408 20L26.868 15.728L24.492 11.624H26.208L27.3 13.508L27.912 14.708L28.548 13.496L29.64 11.624H31.32L28.932 15.692L31.428 20H29.736L28.548 17.948L27.912 16.736L27.276 17.936L26.088 20H24.408Z" fill="var(--colors-neutral-neutral-600)"/>
<path d="M47.1676 19.5994C46.8693 19.5947 46.571 19.5379 46.2727 19.429C45.9744 19.3201 45.7022 19.1366 45.456 18.8786C45.2098 18.6181 45.0121 18.2666 44.8629 17.8239C44.7138 17.3788 44.6392 16.8201 44.6392 16.1477C44.6392 15.5038 44.6996 14.9332 44.8203 14.4361C44.9411 13.9366 45.1162 13.5163 45.3459 13.1754C45.5755 12.8321 45.8525 12.5717 46.1768 12.3942C46.5036 12.2166 46.8717 12.1278 47.2812 12.1278C47.6884 12.1278 48.0507 12.2095 48.3679 12.3729C48.6875 12.5339 48.9479 12.7588 49.1491 13.0476C49.3504 13.3364 49.4806 13.669 49.5398 14.0455H48.6733C48.5928 13.7187 48.4366 13.4477 48.2045 13.2322C47.9725 13.0168 47.6648 12.9091 47.2812 12.9091C46.7178 12.9091 46.2739 13.1541 45.9496 13.6442C45.6276 14.1342 45.4654 14.822 45.4631 15.7074H45.5199C45.6525 15.5062 45.8099 15.3345 45.9922 15.1925C46.1768 15.0481 46.3804 14.9368 46.603 14.8587C46.8255 14.7805 47.0611 14.7415 47.3097 14.7415C47.7263 14.7415 48.1075 14.8456 48.4531 15.054C48.7988 15.2599 49.0758 15.5452 49.2841 15.9098C49.4924 16.272 49.5966 16.6875 49.5966 17.1562C49.5966 17.6061 49.496 18.018 49.2947 18.392C49.0935 18.7637 48.8106 19.0597 48.446 19.2798C48.0838 19.4976 47.6577 19.6042 47.1676 19.5994ZM47.1676 18.8182C47.4659 18.8182 47.7334 18.7436 47.9702 18.5945C48.2093 18.4453 48.3975 18.2453 48.5348 17.9943C48.6745 17.7434 48.7443 17.464 48.7443 17.1562C48.7443 16.8556 48.6768 16.5821 48.5419 16.3359C48.4093 16.0874 48.2259 15.8897 47.9915 15.7429C47.7595 15.5961 47.4943 15.5227 47.196 15.5227C46.9711 15.5227 46.7616 15.5677 46.5675 15.6577C46.3733 15.7453 46.2029 15.866 46.0561 16.0199C45.9117 16.1738 45.7981 16.3501 45.7152 16.549C45.6323 16.7455 45.5909 16.9527 45.5909 17.1705C45.5909 17.4593 45.6584 17.7292 45.7933 17.9801C45.9306 18.2311 46.1177 18.4335 46.3544 18.5874C46.5935 18.7412 46.8646 18.8182 47.1676 18.8182ZM53.3084 12.1278C53.6067 12.1302 53.905 12.187 54.2033 12.2983C54.5016 12.4096 54.7739 12.5942 55.0201 12.8523C55.2663 13.108 55.464 13.4571 55.6131 13.8999C55.7623 14.3426 55.8368 14.8977 55.8368 15.5653C55.8368 16.2116 55.7753 16.7857 55.6522 17.2876C55.5314 17.7872 55.3562 18.2086 55.1266 18.5518C54.8993 18.8951 54.6223 19.1555 54.2956 19.3331C53.9713 19.5107 53.6043 19.5994 53.1948 19.5994C52.7876 19.5994 52.4242 19.5189 52.1046 19.358C51.7873 19.1946 51.5269 18.9685 51.3233 18.6797C51.1221 18.3885 50.9931 18.0511 50.9363 17.6676H51.8027C51.8809 18.0014 52.0359 18.2772 52.2679 18.495C52.5023 18.7105 52.8113 18.8182 53.1948 18.8182C53.7559 18.8182 54.1986 18.5732 54.5229 18.0831C54.8496 17.593 55.013 16.9006 55.013 16.0057H54.9561C54.8236 16.2045 54.6661 16.3762 54.4838 16.5206C54.3016 16.665 54.0991 16.7763 53.8766 16.8544C53.6541 16.9325 53.4173 16.9716 53.1664 16.9716C52.7497 16.9716 52.3674 16.8686 52.0194 16.6626C51.6737 16.4543 51.3967 16.169 51.1884 15.8068C50.9824 15.4422 50.8794 15.0256 50.8794 14.5568C50.8794 14.1117 50.9789 13.7045 51.1777 13.3352C51.379 12.9635 51.6607 12.6676 52.0229 12.4474C52.3875 12.2273 52.816 12.1207 53.3084 12.1278ZM53.3084 12.9091C53.0101 12.9091 52.7414 12.9837 52.5023 13.1328C52.2656 13.2796 52.0774 13.4785 51.9377 13.7294C51.8004 13.978 51.7317 14.2538 51.7317 14.5568C51.7317 14.8598 51.798 15.1357 51.9306 15.3842C52.0655 15.6304 52.249 15.8269 52.481 15.9737C52.7154 16.1181 52.9817 16.1903 53.28 16.1903C53.5049 16.1903 53.7144 16.1465 53.9086 16.0589C54.1027 15.969 54.272 15.8471 54.4164 15.6932C54.5632 15.5369 54.678 15.3606 54.7608 15.1641C54.8437 14.9652 54.8851 14.758 54.8851 14.5426C54.8851 14.2585 54.8165 13.9922 54.6792 13.7436C54.5442 13.495 54.3572 13.2938 54.1181 13.1399C53.8813 12.986 53.6114 12.9091 53.3084 12.9091ZM59.5629 19.5994C59.0752 19.5994 58.6443 19.513 58.2702 19.3402C57.8986 19.165 57.6085 18.9247 57.4002 18.6193C57.1919 18.3116 57.0889 17.9612 57.0913 17.5682C57.0889 17.2604 57.1493 16.9763 57.2724 16.7159C57.3955 16.4531 57.5636 16.2341 57.7766 16.0589C57.9921 15.8814 58.2324 15.7689 58.4975 15.7216V15.679C58.1495 15.589 57.8725 15.3937 57.6665 15.093C57.4606 14.79 57.3588 14.4455 57.3612 14.0597C57.3588 13.6903 57.4523 13.3601 57.6417 13.0689C57.8311 12.7777 58.0915 12.5481 58.4229 12.38C58.7567 12.2119 59.1367 12.1278 59.5629 12.1278C59.9843 12.1278 60.3607 12.2119 60.6921 12.38C61.0236 12.5481 61.284 12.7777 61.4734 13.0689C61.6651 13.3601 61.7622 13.6903 61.7646 14.0597C61.7622 14.4455 61.6568 14.79 61.4485 15.093C61.2425 15.3937 60.9691 15.589 60.6282 15.679V15.7216C60.891 15.7689 61.1277 15.8814 61.3384 16.0589C61.5491 16.2341 61.7172 16.4531 61.8427 16.7159C61.9682 16.9763 62.0321 17.2604 62.0344 17.5682C62.0321 17.9612 61.9255 18.3116 61.7148 18.6193C61.5065 18.9247 61.2165 19.165 60.8448 19.3402C60.4755 19.513 60.0482 19.5994 59.5629 19.5994ZM59.5629 18.8182C59.8919 18.8182 60.176 18.7649 60.4151 18.6584C60.6542 18.5518 60.8389 18.4015 60.9691 18.2074C61.0993 18.0133 61.1656 17.786 61.168 17.5256C61.1656 17.2509 61.0946 17.0083 60.9549 16.7976C60.8152 16.5869 60.6246 16.4212 60.3832 16.3004C60.1441 16.1797 59.8706 16.1193 59.5629 16.1193C59.2527 16.1193 58.9757 16.1797 58.7319 16.3004C58.4904 16.4212 58.2998 16.5869 58.1602 16.7976C58.0228 17.0083 57.9554 17.2509 57.9577 17.5256C57.9554 17.786 58.0181 18.0133 58.146 18.2074C58.2762 18.4015 58.462 18.5518 58.7035 18.6584C58.945 18.7649 59.2314 18.8182 59.5629 18.8182ZM59.5629 15.3665C59.8233 15.3665 60.0541 15.3144 60.2553 15.2102C60.4589 15.1061 60.6187 14.9605 60.7347 14.7734C60.8507 14.5864 60.9099 14.3674 60.9123 14.1165C60.9099 13.8703 60.8519 13.656 60.7383 13.4737C60.6246 13.2891 60.4672 13.147 60.266 13.0476C60.0647 12.9458 59.8304 12.8949 59.5629 12.8949C59.2906 12.8949 59.0527 12.9458 58.8491 13.0476C58.6455 13.147 58.488 13.2891 58.3768 13.4737C58.2655 13.656 58.2111 13.8703 58.2134 14.1165C58.2111 14.3674 58.2667 14.5864 58.3803 14.7734C58.4963 14.9605 58.6561 15.1061 58.8597 15.2102C59.0633 15.3144 59.2977 15.3665 59.5629 15.3665ZM65.8528 19.5994C65.3841 19.5994 64.9662 19.5189 64.5993 19.358C64.2347 19.197 63.9447 18.9732 63.7292 18.6868C63.5162 18.398 63.4002 18.063 63.3812 17.6818H64.2761C64.295 17.9162 64.3755 18.1186 64.5176 18.2891C64.6596 18.4571 64.8455 18.5874 65.0751 18.6797C65.3047 18.772 65.5592 18.8182 65.8386 18.8182C66.1511 18.8182 66.4281 18.7637 66.6696 18.6548C66.911 18.5459 67.1004 18.3944 67.2377 18.2003C67.3751 18.0062 67.4437 17.7812 67.4437 17.5256C67.4437 17.258 67.3774 17.0225 67.2449 16.8189C67.1123 16.6129 66.9181 16.4519 66.6625 16.3359C66.4068 16.2199 66.0943 16.1619 65.725 16.1619H65.1426V15.3807H65.725C66.0138 15.3807 66.2671 15.3286 66.4849 15.2244C66.7051 15.1203 66.8767 14.9735 66.9998 14.7841C67.1253 14.5947 67.188 14.3722 67.188 14.1165C67.188 13.8703 67.1336 13.656 67.0247 13.4737C66.9158 13.2914 66.7619 13.1494 66.563 13.0476C66.3665 12.9458 66.1345 12.8949 65.867 12.8949C65.6161 12.8949 65.3793 12.9411 65.1568 13.0334C64.9366 13.1233 64.7567 13.2547 64.617 13.4276C64.4773 13.598 64.4016 13.804 64.3897 14.0455H63.5375C63.5517 13.6643 63.6665 13.3305 63.8819 13.044C64.0974 12.7552 64.3791 12.5303 64.7271 12.3693C65.0775 12.2083 65.4622 12.1278 65.8812 12.1278C66.331 12.1278 66.7169 12.219 67.0389 12.4013C67.3609 12.5812 67.6083 12.8191 67.7811 13.1151C67.9539 13.411 68.0403 13.7306 68.0403 14.0739C68.0403 14.4834 67.9326 14.8326 67.7172 15.1214C67.5041 15.4103 67.2141 15.6103 66.8471 15.7216V15.7784C67.3064 15.8542 67.6651 16.0495 67.9231 16.3643C68.1812 16.6768 68.3102 17.0639 68.3102 17.5256C68.3102 17.9209 68.2025 18.276 67.987 18.5909C67.774 18.9034 67.4828 19.1496 67.1135 19.3295C66.7441 19.5095 66.3239 19.5994 65.8528 19.5994ZM70.163 19.5568C69.9878 19.5568 69.8375 19.4941 69.712 19.3686C69.5865 19.2431 69.5238 19.0928 69.5238 18.9176C69.5238 18.7424 69.5865 18.5921 69.712 18.4666C69.8375 18.3411 69.9878 18.2784 70.163 18.2784C70.3382 18.2784 70.4885 18.3411 70.614 18.4666C70.7395 18.5921 70.8022 18.7424 70.8022 18.9176C70.8022 19.0336 70.7726 19.1402 70.7134 19.2372C70.6566 19.3343 70.5797 19.4124 70.4826 19.4716C70.3879 19.5284 70.2814 19.5568 70.163 19.5568ZM74.4102 19.5994C73.8751 19.5994 73.4194 19.4538 73.043 19.1626C72.6665 18.8691 72.3789 18.4441 72.18 17.8878C71.9812 17.3291 71.8817 16.6544 71.8817 15.8636C71.8817 15.0777 71.9812 14.4065 72.18 13.8501C72.3813 13.2914 72.6701 12.8653 73.0465 12.5717C73.4253 12.2758 73.8799 12.1278 74.4102 12.1278C74.9405 12.1278 75.3938 12.2758 75.7702 12.5717C76.149 12.8653 76.4379 13.2914 76.6367 13.8501C76.8379 14.4065 76.9386 15.0777 76.9386 15.8636C76.9386 16.6544 76.8391 17.3291 76.6403 17.8878C76.4414 18.4441 76.1538 18.8691 75.7773 19.1626C75.4009 19.4538 74.9452 19.5994 74.4102 19.5994ZM74.4102 18.8182C74.9405 18.8182 75.3524 18.5625 75.646 18.0511C75.9395 17.5398 76.0863 16.8106 76.0863 15.8636C76.0863 15.2339 76.0188 14.6977 75.8839 14.255C75.7513 13.8123 75.5595 13.4749 75.3086 13.2429C75.06 13.0109 74.7605 12.8949 74.4102 12.8949C73.8846 12.8949 73.4738 13.1541 73.1779 13.6726C72.882 14.1887 72.734 14.919 72.734 15.8636C72.734 16.4934 72.8003 17.0284 72.9329 17.4688C73.0655 17.9091 73.256 18.2441 73.5046 18.4737C73.7556 18.7034 74.0574 18.8182 74.4102 18.8182ZM78.32 19.5L81.5728 13.0653V13.0085H77.8228V12.2273H82.4819V13.0511L79.2433 19.5H78.32Z" fill="var(--colors-neutral-neutral-800)"/>
<path d="M153.12 20V16.616L150.384 11.624H152.028L153.192 13.712L153.9 15.332L154.632 13.7L155.796 11.624H157.404L154.632 16.616V20H153.12Z" fill="var(--colors-neutral-neutral-600)"/>
<path d="M173.168 19.5994C172.869 19.5947 172.571 19.5379 172.273 19.429C171.974 19.3201 171.702 19.1366 171.456 18.8786C171.21 18.6181 171.012 18.2666 170.863 17.8239C170.714 17.3788 170.639 16.8201 170.639 16.1477C170.639 15.5038 170.7 14.9332 170.82 14.4361C170.941 13.9366 171.116 13.5163 171.346 13.1754C171.576 12.8321 171.853 12.5717 172.177 12.3942C172.504 12.2166 172.872 12.1278 173.281 12.1278C173.688 12.1278 174.051 12.2095 174.368 12.3729C174.688 12.5339 174.948 12.7588 175.149 13.0476C175.35 13.3364 175.481 13.669 175.54 14.0455H174.673C174.593 13.7187 174.437 13.4477 174.205 13.2322C173.973 13.0168 173.665 12.9091 173.281 12.9091C172.718 12.9091 172.274 13.1541 171.95 13.6442C171.628 14.1342 171.465 14.822 171.463 15.7074H171.52C171.652 15.5062 171.81 15.3345 171.992 15.1925C172.177 15.0481 172.38 14.9368 172.603 14.8587C172.826 14.7805 173.061 14.7415 173.31 14.7415C173.726 14.7415 174.107 14.8456 174.453 15.054C174.799 15.2599 175.076 15.5452 175.284 15.9098C175.492 16.272 175.597 16.6875 175.597 17.1562C175.597 17.6061 175.496 18.018 175.295 18.392C175.094 18.7637 174.811 19.0597 174.446 19.2798C174.084 19.4976 173.658 19.6042 173.168 19.5994ZM173.168 18.8182C173.466 18.8182 173.733 18.7436 173.97 18.5945C174.209 18.4453 174.397 18.2453 174.535 17.9943C174.674 17.7434 174.744 17.464 174.744 17.1562C174.744 16.8556 174.677 16.5821 174.542 16.3359C174.409 16.0874 174.226 15.8897 173.991 15.7429C173.759 15.5961 173.494 15.5227 173.196 15.5227C172.971 15.5227 172.762 15.5677 172.567 15.6577C172.373 15.7453 172.203 15.866 172.056 16.0199C171.912 16.1738 171.798 16.3501 171.715 16.549C171.632 16.7455 171.591 16.9527 171.591 17.1705C171.591 17.4593 171.658 17.7292 171.793 17.9801C171.931 18.2311 172.118 18.4335 172.354 18.5874C172.594 18.7412 172.865 18.8182 173.168 18.8182ZM179.308 12.1278C179.607 12.1302 179.905 12.187 180.203 12.2983C180.502 12.4096 180.774 12.5942 181.02 12.8523C181.266 13.108 181.464 13.4571 181.613 13.8999C181.762 14.3426 181.837 14.8977 181.837 15.5653C181.837 16.2116 181.775 16.7857 181.652 17.2876C181.531 17.7872 181.356 18.2086 181.127 18.5518C180.899 18.8951 180.622 19.1555 180.296 19.3331C179.971 19.5107 179.604 19.5994 179.195 19.5994C178.788 19.5994 178.424 19.5189 178.105 19.358C177.787 19.1946 177.527 18.9685 177.323 18.6797C177.122 18.3885 176.993 18.0511 176.936 17.6676H177.803C177.881 18.0014 178.036 18.2772 178.268 18.495C178.502 18.7105 178.811 18.8182 179.195 18.8182C179.756 18.8182 180.199 18.5732 180.523 18.0831C180.85 17.593 181.013 16.9006 181.013 16.0057H180.956C180.824 16.2045 180.666 16.3762 180.484 16.5206C180.302 16.665 180.099 16.7763 179.877 16.8544C179.654 16.9325 179.417 16.9716 179.166 16.9716C178.75 16.9716 178.367 16.8686 178.019 16.6626C177.674 16.4543 177.397 16.169 177.188 15.8068C176.982 15.4422 176.879 15.0256 176.879 14.5568C176.879 14.1117 176.979 13.7045 177.178 13.3352C177.379 12.9635 177.661 12.6676 178.023 12.4474C178.387 12.2273 178.816 12.1207 179.308 12.1278ZM179.308 12.9091C179.01 12.9091 178.741 12.9837 178.502 13.1328C178.266 13.2796 178.077 13.4785 177.938 13.7294C177.8 13.978 177.732 14.2538 177.732 14.5568C177.732 14.8598 177.798 15.1357 177.931 15.3842C178.066 15.6304 178.249 15.8269 178.481 15.9737C178.715 16.1181 178.982 16.1903 179.28 16.1903C179.505 16.1903 179.714 16.1465 179.909 16.0589C180.103 15.969 180.272 15.8471 180.416 15.6932C180.563 15.5369 180.678 15.3606 180.761 15.1641C180.844 14.9652 180.885 14.758 180.885 14.5426C180.885 14.2585 180.816 13.9922 180.679 13.7436C180.544 13.495 180.357 13.2938 180.118 13.1399C179.881 12.986 179.611 12.9091 179.308 12.9091ZM185.563 19.5994C185.075 19.5994 184.644 19.513 184.27 19.3402C183.899 19.165 183.609 18.9247 183.4 18.6193C183.192 18.3116 183.089 17.9612 183.091 17.5682C183.089 17.2604 183.149 16.9763 183.272 16.7159C183.395 16.4531 183.564 16.2341 183.777 16.0589C183.992 15.8814 184.232 15.7689 184.498 15.7216V15.679C184.15 15.589 183.873 15.3937 183.667 15.093C183.461 14.79 183.359 14.4455 183.361 14.0597C183.359 13.6903 183.452 13.3601 183.642 13.0689C183.831 12.7777 184.092 12.5481 184.423 12.38C184.757 12.2119 185.137 12.1278 185.563 12.1278C185.984 12.1278 186.361 12.2119 186.692 12.38C187.024 12.5481 187.284 12.7777 187.473 13.0689C187.665 13.3601 187.762 13.6903 187.765 14.0597C187.762 14.4455 187.657 14.79 187.449 15.093C187.243 15.3937 186.969 15.589 186.628 15.679V15.7216C186.891 15.7689 187.128 15.8814 187.338 16.0589C187.549 16.2341 187.717 16.4531 187.843 16.7159C187.968 16.9763 188.032 17.2604 188.034 17.5682C188.032 17.9612 187.926 18.3116 187.715 18.6193C187.507 18.9247 187.217 19.165 186.845 19.3402C186.475 19.513 186.048 19.5994 185.563 19.5994ZM185.563 18.8182C185.892 18.8182 186.176 18.7649 186.415 18.6584C186.654 18.5518 186.839 18.4015 186.969 18.2074C187.099 18.0133 187.166 17.786 187.168 17.5256C187.166 17.2509 187.095 17.0083 186.955 16.7976C186.815 16.5869 186.625 16.4212 186.383 16.3004C186.144 16.1797 185.871 16.1193 185.563 16.1193C185.253 16.1193 184.976 16.1797 184.732 16.3004C184.49 16.4212 184.3 16.5869 184.16 16.7976C184.023 17.0083 183.955 17.2509 183.958 17.5256C183.955 17.786 184.018 18.0133 184.146 18.2074C184.276 18.4015 184.462 18.5518 184.703 18.6584C184.945 18.7649 185.231 18.8182 185.563 18.8182ZM185.563 15.3665C185.823 15.3665 186.054 15.3144 186.255 15.2102C186.459 15.1061 186.619 14.9605 186.735 14.7734C186.851 14.5864 186.91 14.3674 186.912 14.1165C186.91 13.8703 186.852 13.656 186.738 13.4737C186.625 13.2891 186.467 13.147 186.266 13.0476C186.065 12.9458 185.83 12.8949 185.563 12.8949C185.291 12.8949 185.053 12.9458 184.849 13.0476C184.645 13.147 184.488 13.2891 184.377 13.4737C184.266 13.656 184.211 13.8703 184.213 14.1165C184.211 14.3674 184.267 14.5864 184.38 14.7734C184.496 14.9605 184.656 15.1061 184.86 15.2102C185.063 15.3144 185.298 15.3665 185.563 15.3665ZM191.853 19.5994C191.384 19.5994 190.966 19.5189 190.599 19.358C190.235 19.197 189.945 18.9732 189.729 18.6868C189.516 18.398 189.4 18.063 189.381 17.6818H190.276C190.295 17.9162 190.376 18.1186 190.518 18.2891C190.66 18.4571 190.845 18.5874 191.075 18.6797C191.305 18.772 191.559 18.8182 191.839 18.8182C192.151 18.8182 192.428 18.7637 192.67 18.6548C192.911 18.5459 193.1 18.3944 193.238 18.2003C193.375 18.0062 193.444 17.7812 193.444 17.5256C193.444 17.258 193.377 17.0225 193.245 16.8189C193.112 16.6129 192.918 16.4519 192.662 16.3359C192.407 16.2199 192.094 16.1619 191.725 16.1619H191.143V15.3807H191.725C192.014 15.3807 192.267 15.3286 192.485 15.2244C192.705 15.1203 192.877 14.9735 193 14.7841C193.125 14.5947 193.188 14.3722 193.188 14.1165C193.188 13.8703 193.134 13.656 193.025 13.4737C192.916 13.2914 192.762 13.1494 192.563 13.0476C192.367 12.9458 192.135 12.8949 191.867 12.8949C191.616 12.8949 191.379 12.9411 191.157 13.0334C190.937 13.1233 190.757 13.2547 190.617 13.4276C190.477 13.598 190.402 13.804 190.39 14.0455H189.537C189.552 13.6643 189.666 13.3305 189.882 13.044C190.097 12.7552 190.379 12.5303 190.727 12.3693C191.077 12.2083 191.462 12.1278 191.881 12.1278C192.331 12.1278 192.717 12.219 193.039 12.4013C193.361 12.5812 193.608 12.8191 193.781 13.1151C193.954 13.411 194.04 13.7306 194.04 14.0739C194.04 14.4834 193.933 14.8326 193.717 15.1214C193.504 15.4103 193.214 15.6103 192.847 15.7216V15.7784C193.306 15.8542 193.665 16.0495 193.923 16.3643C194.181 16.6768 194.31 17.0639 194.31 17.5256C194.31 17.9209 194.202 18.276 193.987 18.5909C193.774 18.9034 193.483 19.1496 193.113 19.3295C192.744 19.5095 192.324 19.5994 191.853 19.5994ZM196.163 19.5568C195.988 19.5568 195.837 19.4941 195.712 19.3686C195.587 19.2431 195.524 19.0928 195.524 18.9176C195.524 18.7424 195.587 18.5921 195.712 18.4666C195.837 18.3411 195.988 18.2784 196.163 18.2784C196.338 18.2784 196.489 18.3411 196.614 18.4666C196.739 18.5921 196.802 18.7424 196.802 18.9176C196.802 19.0336 196.773 19.1402 196.713 19.2372C196.657 19.3343 196.58 19.4124 196.483 19.4716C196.388 19.5284 196.281 19.5568 196.163 19.5568ZM200.41 19.5994C199.875 19.5994 199.419 19.4538 199.043 19.1626C198.667 18.8691 198.379 18.4441 198.18 17.8878C197.981 17.3291 197.882 16.6544 197.882 15.8636C197.882 15.0777 197.981 14.4065 198.18 13.8501C198.381 13.2914 198.67 12.8653 199.047 12.5717C199.425 12.2758 199.88 12.1278 200.41 12.1278C200.94 12.1278 201.394 12.2758 201.77 12.5717C202.149 12.8653 202.438 13.2914 202.637 13.8501C202.838 14.4065 202.939 15.0777 202.939 15.8636C202.939 16.6544 202.839 17.3291 202.64 17.8878C202.441 18.4441 202.154 18.8691 201.777 19.1626C201.401 19.4538 200.945 19.5994 200.41 19.5994ZM200.41 18.8182C200.94 18.8182 201.352 18.5625 201.646 18.0511C201.94 17.5398 202.086 16.8106 202.086 15.8636C202.086 15.2339 202.019 14.6977 201.884 14.255C201.751 13.8123 201.56 13.4749 201.309 13.2429C201.06 13.0109 200.761 12.8949 200.41 12.8949C199.885 12.8949 199.474 13.1541 199.178 13.6726C198.882 14.1887 198.734 14.919 198.734 15.8636C198.734 16.4934 198.8 17.0284 198.933 17.4688C199.065 17.9091 199.256 18.2441 199.505 18.4737C199.756 18.7034 200.057 18.8182 200.41 18.8182ZM204.32 19.5L207.573 13.0653V13.0085H203.823V12.2273H208.482V13.0511L205.243 19.5H204.32Z" fill="var(--colors-neutral-neutral-800)"/>
<path d="M25.008 52L24.204 43.624H25.62L26.04 48.628L26.148 50.692L26.436 48.628L27.252 43.624H28.584L29.436 48.628L29.76 50.752L29.832 48.628L30.228 43.624H31.632L30.804 52H28.812L28.176 47.86L27.924 45.784L27.66 47.86L27 52H25.008Z" fill="var(--colors-neutral-neutral-600)"/>
<path d="M47.1676 51.5994C46.8693 51.5947 46.571 51.5379 46.2727 51.429C45.9744 51.3201 45.7022 51.1366 45.456 50.8786C45.2098 50.6181 45.0121 50.2666 44.8629 49.8239C44.7138 49.3788 44.6392 48.8201 44.6392 48.1477C44.6392 47.5038 44.6996 46.9332 44.8203 46.4361C44.9411 45.9366 45.1162 45.5163 45.3459 45.1754C45.5755 44.8321 45.8525 44.5717 46.1768 44.3942C46.5036 44.2166 46.8717 44.1278 47.2812 44.1278C47.6884 44.1278 48.0507 44.2095 48.3679 44.3729C48.6875 44.5339 48.9479 44.7588 49.1491 45.0476C49.3504 45.3364 49.4806 45.669 49.5398 46.0455H48.6733C48.5928 45.7187 48.4366 45.4477 48.2045 45.2322C47.9725 45.0168 47.6648 44.9091 47.2812 44.9091C46.7178 44.9091 46.2739 45.1541 45.9496 45.6442C45.6276 46.1342 45.4654 46.822 45.4631 47.7074H45.5199C45.6525 47.5062 45.8099 47.3345 45.9922 47.1925C46.1768 47.0481 46.3804 46.9368 46.603 46.8587C46.8255 46.7805 47.0611 46.7415 47.3097 46.7415C47.7263 46.7415 48.1075 46.8456 48.4531 47.054C48.7988 47.2599 49.0758 47.5452 49.2841 47.9098C49.4924 48.272 49.5966 48.6875 49.5966 49.1562C49.5966 49.6061 49.496 50.018 49.2947 50.392C49.0935 50.7637 48.8106 51.0597 48.446 51.2798C48.0838 51.4976 47.6577 51.6042 47.1676 51.5994ZM47.1676 50.8182C47.4659 50.8182 47.7334 50.7436 47.9702 50.5945C48.2093 50.4453 48.3975 50.2453 48.5348 49.9943C48.6745 49.7434 48.7443 49.464 48.7443 49.1562C48.7443 48.8556 48.6768 48.5821 48.5419 48.3359C48.4093 48.0874 48.2259 47.8897 47.9915 47.7429C47.7595 47.5961 47.4943 47.5227 47.196 47.5227C46.9711 47.5227 46.7616 47.5677 46.5675 47.6577C46.3733 47.7453 46.2029 47.866 46.0561 48.0199C45.9117 48.1738 45.7981 48.3501 45.7152 48.549C45.6323 48.7455 45.5909 48.9527 45.5909 49.1705C45.5909 49.4593 45.6584 49.7292 45.7933 49.9801C45.9306 50.2311 46.1177 50.4335 46.3544 50.5874C46.5935 50.7412 46.8646 50.8182 47.1676 50.8182ZM53.3084 44.1278C53.6067 44.1302 53.905 44.187 54.2033 44.2983C54.5016 44.4096 54.7739 44.5942 55.0201 44.8523C55.2663 45.108 55.464 45.4571 55.6131 45.8999C55.7623 46.3426 55.8368 46.8977 55.8368 47.5653C55.8368 48.2116 55.7753 48.7857 55.6522 49.2876C55.5314 49.7872 55.3562 50.2086 55.1266 50.5518C54.8993 50.8951 54.6223 51.1555 54.2956 51.3331C53.9713 51.5107 53.6043 51.5994 53.1948 51.5994C52.7876 51.5994 52.4242 51.5189 52.1046 51.358C51.7873 51.1946 51.5269 50.9685 51.3233 50.6797C51.1221 50.3885 50.9931 50.0511 50.9363 49.6676H51.8027C51.8809 50.0014 52.0359 50.2772 52.2679 50.495C52.5023 50.7105 52.8113 50.8182 53.1948 50.8182C53.7559 50.8182 54.1986 50.5732 54.5229 50.0831C54.8496 49.593 55.013 48.9006 55.013 48.0057H54.9561C54.8236 48.2045 54.6661 48.3762 54.4838 48.5206C54.3016 48.665 54.0991 48.7763 53.8766 48.8544C53.6541 48.9325 53.4173 48.9716 53.1664 48.9716C52.7497 48.9716 52.3674 48.8686 52.0194 48.6626C51.6737 48.4543 51.3967 48.169 51.1884 47.8068C50.9824 47.4422 50.8794 47.0256 50.8794 46.5568C50.8794 46.1117 50.9789 45.7045 51.1777 45.3352C51.379 44.9635 51.6607 44.6676 52.0229 44.4474C52.3875 44.2273 52.816 44.1207 53.3084 44.1278ZM53.3084 44.9091C53.0101 44.9091 52.7414 44.9837 52.5023 45.1328C52.2656 45.2796 52.0774 45.4785 51.9377 45.7294C51.8004 45.978 51.7317 46.2538 51.7317 46.5568C51.7317 46.8598 51.798 47.1357 51.9306 47.3842C52.0655 47.6304 52.249 47.8269 52.481 47.9737C52.7154 48.1181 52.9817 48.1903 53.28 48.1903C53.5049 48.1903 53.7144 48.1465 53.9086 48.0589C54.1027 47.969 54.272 47.8471 54.4164 47.6932C54.5632 47.5369 54.678 47.3606 54.7608 47.1641C54.8437 46.9652 54.8851 46.758 54.8851 46.5426C54.8851 46.2585 54.8165 45.9922 54.6792 45.7436C54.5442 45.495 54.3572 45.2938 54.1181 45.1399C53.8813 44.986 53.6114 44.9091 53.3084 44.9091ZM59.5629 51.5994C59.0752 51.5994 58.6443 51.513 58.2702 51.3402C57.8986 51.165 57.6085 50.9247 57.4002 50.6193C57.1919 50.3116 57.0889 49.9612 57.0913 49.5682C57.0889 49.2604 57.1493 48.9763 57.2724 48.7159C57.3955 48.4531 57.5636 48.2341 57.7766 48.0589C57.9921 47.8814 58.2324 47.7689 58.4975 47.7216V47.679C58.1495 47.589 57.8725 47.3937 57.6665 47.093C57.4606 46.79 57.3588 46.4455 57.3612 46.0597C57.3588 45.6903 57.4523 45.3601 57.6417 45.0689C57.8311 44.7777 58.0915 44.5481 58.4229 44.38C58.7567 44.2119 59.1367 44.1278 59.5629 44.1278C59.9843 44.1278 60.3607 44.2119 60.6921 44.38C61.0236 44.5481 61.284 44.7777 61.4734 45.0689C61.6651 45.3601 61.7622 45.6903 61.7646 46.0597C61.7622 46.4455 61.6568 46.79 61.4485 47.093C61.2425 47.3937 60.9691 47.589 60.6282 47.679V47.7216C60.891 47.7689 61.1277 47.8814 61.3384 48.0589C61.5491 48.2341 61.7172 48.4531 61.8427 48.7159C61.9682 48.9763 62.0321 49.2604 62.0344 49.5682C62.0321 49.9612 61.9255 50.3116 61.7148 50.6193C61.5065 50.9247 61.2165 51.165 60.8448 51.3402C60.4755 51.513 60.0482 51.5994 59.5629 51.5994ZM59.5629 50.8182C59.8919 50.8182 60.176 50.7649 60.4151 50.6584C60.6542 50.5518 60.8389 50.4015 60.9691 50.2074C61.0993 50.0133 61.1656 49.786 61.168 49.5256C61.1656 49.2509 61.0946 49.0083 60.9549 48.7976C60.8152 48.5869 60.6246 48.4212 60.3832 48.3004C60.1441 48.1797 59.8706 48.1193 59.5629 48.1193C59.2527 48.1193 58.9757 48.1797 58.7319 48.3004C58.4904 48.4212 58.2998 48.5869 58.1602 48.7976C58.0228 49.0083 57.9554 49.2509 57.9577 49.5256C57.9554 49.786 58.0181 50.0133 58.146 50.2074C58.2762 50.4015 58.462 50.5518 58.7035 50.6584C58.945 50.7649 59.2314 50.8182 59.5629 50.8182ZM59.5629 47.3665C59.8233 47.3665 60.0541 47.3144 60.2553 47.2102C60.4589 47.1061 60.6187 46.9605 60.7347 46.7734C60.8507 46.5864 60.9099 46.3674 60.9123 46.1165C60.9099 45.8703 60.8519 45.656 60.7383 45.4737C60.6246 45.2891 60.4672 45.147 60.266 45.0476C60.0647 44.9458 59.8304 44.8949 59.5629 44.8949C59.2906 44.8949 59.0527 44.9458 58.8491 45.0476C58.6455 45.147 58.488 45.2891 58.3768 45.4737C58.2655 45.656 58.2111 45.8703 58.2134 46.1165C58.2111 46.3674 58.2667 46.5864 58.3803 46.7734C58.4963 46.9605 58.6561 47.1061 58.8597 47.2102C59.0633 47.3144 59.2977 47.3665 59.5629 47.3665ZM65.8528 51.5994C65.3841 51.5994 64.9662 51.5189 64.5993 51.358C64.2347 51.197 63.9447 50.9732 63.7292 50.6868C63.5162 50.398 63.4002 50.063 63.3812 49.6818H64.2761C64.295 49.9162 64.3755 50.1186 64.5176 50.2891C64.6596 50.4571 64.8455 50.5874 65.0751 50.6797C65.3047 50.772 65.5592 50.8182 65.8386 50.8182C66.1511 50.8182 66.4281 50.7637 66.6696 50.6548C66.911 50.5459 67.1004 50.3944 67.2377 50.2003C67.3751 50.0062 67.4437 49.7812 67.4437 49.5256C67.4437 49.258 67.3774 49.0225 67.2449 48.8189C67.1123 48.6129 66.9181 48.4519 66.6625 48.3359C66.4068 48.2199 66.0943 48.1619 65.725 48.1619H65.1426V47.3807H65.725C66.0138 47.3807 66.2671 47.3286 66.4849 47.2244C66.7051 47.1203 66.8767 46.9735 66.9998 46.7841C67.1253 46.5947 67.188 46.3722 67.188 46.1165C67.188 45.8703 67.1336 45.656 67.0247 45.4737C66.9158 45.2914 66.7619 45.1494 66.563 45.0476C66.3665 44.9458 66.1345 44.8949 65.867 44.8949C65.6161 44.8949 65.3793 44.9411 65.1568 45.0334C64.9366 45.1233 64.7567 45.2547 64.617 45.4276C64.4773 45.598 64.4016 45.804 64.3897 46.0455H63.5375C63.5517 45.6643 63.6665 45.3305 63.8819 45.044C64.0974 44.7552 64.3791 44.5303 64.7271 44.3693C65.0775 44.2083 65.4622 44.1278 65.8812 44.1278C66.331 44.1278 66.7169 44.219 67.0389 44.4013C67.3609 44.5812 67.6083 44.8191 67.7811 45.1151C67.9539 45.411 68.0403 45.7306 68.0403 46.0739C68.0403 46.4834 67.9326 46.8326 67.7172 47.1214C67.5041 47.4103 67.2141 47.6103 66.8471 47.7216V47.7784C67.3064 47.8542 67.6651 48.0495 67.9231 48.3643C68.1812 48.6768 68.3102 49.0639 68.3102 49.5256C68.3102 49.9209 68.2025 50.276 67.987 50.5909C67.774 50.9034 67.4828 51.1496 67.1135 51.3295C66.7441 51.5095 66.3239 51.5994 65.8528 51.5994ZM70.163 51.5568C69.9878 51.5568 69.8375 51.4941 69.712 51.3686C69.5865 51.2431 69.5238 51.0928 69.5238 50.9176C69.5238 50.7424 69.5865 50.5921 69.712 50.4666C69.8375 50.3411 69.9878 50.2784 70.163 50.2784C70.3382 50.2784 70.4885 50.3411 70.614 50.4666C70.7395 50.5921 70.8022 50.7424 70.8022 50.9176C70.8022 51.0336 70.7726 51.1402 70.7134 51.2372C70.6566 51.3343 70.5797 51.4124 70.4826 51.4716C70.3879 51.5284 70.2814 51.5568 70.163 51.5568ZM74.4102 51.5994C73.8751 51.5994 73.4194 51.4538 73.043 51.1626C72.6665 50.8691 72.3789 50.4441 72.18 49.8878C71.9812 49.3291 71.8817 48.6544 71.8817 47.8636C71.8817 47.0777 71.9812 46.4065 72.18 45.8501C72.3813 45.2914 72.6701 44.8653 73.0465 44.5717C73.4253 44.2758 73.8799 44.1278 74.4102 44.1278C74.9405 44.1278 75.3938 44.2758 75.7702 44.5717C76.149 44.8653 76.4379 45.2914 76.6367 45.8501C76.8379 46.4065 76.9386 47.0777 76.9386 47.8636C76.9386 48.6544 76.8391 49.3291 76.6403 49.8878C76.4414 50.4441 76.1538 50.8691 75.7773 51.1626C75.4009 51.4538 74.9452 51.5994 74.4102 51.5994ZM74.4102 50.8182C74.9405 50.8182 75.3524 50.5625 75.646 50.0511C75.9395 49.5398 76.0863 48.8106 76.0863 47.8636C76.0863 47.2339 76.0188 46.6977 75.8839 46.255C75.7513 45.8123 75.5595 45.4749 75.3086 45.2429C75.06 45.0109 74.7605 44.8949 74.4102 44.8949C73.8846 44.8949 73.4738 45.1541 73.1779 45.6726C72.882 46.1887 72.734 46.919 72.734 47.8636C72.734 48.4934 72.8003 49.0284 72.9329 49.4688C73.0655 49.9091 73.256 50.2441 73.5046 50.4737C73.7556 50.7034 74.0574 50.8182 74.4102 50.8182ZM78.32 51.5L81.5728 45.0653V45.0085H77.8228V44.2273H82.4819V45.0511L79.2433 51.5H78.32Z" fill="var(--colors-neutral-neutral-800)"/>
<path d="M155.604 52V43.624H157.116V52H155.604ZM150.696 52V43.624H152.208V52H150.696ZM152.016 48.292V47.032H155.784V48.292H152.016Z" fill="var(--colors-neutral-neutral-600)"/>
<path d="M173.168 51.5994C172.869 51.5947 172.571 51.5379 172.273 51.429C171.974 51.3201 171.702 51.1366 171.456 50.8786C171.21 50.6181 171.012 50.2666 170.863 49.8239C170.714 49.3788 170.639 48.8201 170.639 48.1477C170.639 47.5038 170.7 46.9332 170.82 46.4361C170.941 45.9366 171.116 45.5163 171.346 45.1754C171.576 44.8321 171.853 44.5717 172.177 44.3942C172.504 44.2166 172.872 44.1278 173.281 44.1278C173.688 44.1278 174.051 44.2095 174.368 44.3729C174.688 44.5339 174.948 44.7588 175.149 45.0476C175.35 45.3364 175.481 45.669 175.54 46.0455H174.673C174.593 45.7187 174.437 45.4477 174.205 45.2322C173.973 45.0168 173.665 44.9091 173.281 44.9091C172.718 44.9091 172.274 45.1541 171.95 45.6442C171.628 46.1342 171.465 46.822 171.463 47.7074H171.52C171.652 47.5062 171.81 47.3345 171.992 47.1925C172.177 47.0481 172.38 46.9368 172.603 46.8587C172.826 46.7805 173.061 46.7415 173.31 46.7415C173.726 46.7415 174.107 46.8456 174.453 47.054C174.799 47.2599 175.076 47.5452 175.284 47.9098C175.492 48.272 175.597 48.6875 175.597 49.1562C175.597 49.6061 175.496 50.018 175.295 50.392C175.094 50.7637 174.811 51.0597 174.446 51.2798C174.084 51.4976 173.658 51.6042 173.168 51.5994ZM173.168 50.8182C173.466 50.8182 173.733 50.7436 173.97 50.5945C174.209 50.4453 174.397 50.2453 174.535 49.9943C174.674 49.7434 174.744 49.464 174.744 49.1562C174.744 48.8556 174.677 48.5821 174.542 48.3359C174.409 48.0874 174.226 47.8897 173.991 47.7429C173.759 47.5961 173.494 47.5227 173.196 47.5227C172.971 47.5227 172.762 47.5677 172.567 47.6577C172.373 47.7453 172.203 47.866 172.056 48.0199C171.912 48.1738 171.798 48.3501 171.715 48.549C171.632 48.7455 171.591 48.9527 171.591 49.1705C171.591 49.4593 171.658 49.7292 171.793 49.9801C171.931 50.2311 172.118 50.4335 172.354 50.5874C172.594 50.7412 172.865 50.8182 173.168 50.8182ZM179.308 44.1278C179.607 44.1302 179.905 44.187 180.203 44.2983C180.502 44.4096 180.774 44.5942 181.02 44.8523C181.266 45.108 181.464 45.4571 181.613 45.8999C181.762 46.3426 181.837 46.8977 181.837 47.5653C181.837 48.2116 181.775 48.7857 181.652 49.2876C181.531 49.7872 181.356 50.2086 181.127 50.5518C180.899 50.8951 180.622 51.1555 180.296 51.3331C179.971 51.5107 179.604 51.5994 179.195 51.5994C178.788 51.5994 178.424 51.5189 178.105 51.358C177.787 51.1946 177.527 50.9685 177.323 50.6797C177.122 50.3885 176.993 50.0511 176.936 49.6676H177.803C177.881 50.0014 178.036 50.2772 178.268 50.495C178.502 50.7105 178.811 50.8182 179.195 50.8182C179.756 50.8182 180.199 50.5732 180.523 50.0831C180.85 49.593 181.013 48.9006 181.013 48.0057H180.956C180.824 48.2045 180.666 48.3762 180.484 48.5206C180.302 48.665 180.099 48.7763 179.877 48.8544C179.654 48.9325 179.417 48.9716 179.166 48.9716C178.75 48.9716 178.367 48.8686 178.019 48.6626C177.674 48.4543 177.397 48.169 177.188 47.8068C176.982 47.4422 176.879 47.0256 176.879 46.5568C176.879 46.1117 176.979 45.7045 177.178 45.3352C177.379 44.9635 177.661 44.6676 178.023 44.4474C178.387 44.2273 178.816 44.1207 179.308 44.1278ZM179.308 44.9091C179.01 44.9091 178.741 44.9837 178.502 45.1328C178.266 45.2796 178.077 45.4785 177.938 45.7294C177.8 45.978 177.732 46.2538 177.732 46.5568C177.732 46.8598 177.798 47.1357 177.931 47.3842C178.066 47.6304 178.249 47.8269 178.481 47.9737C178.715 48.1181 178.982 48.1903 179.28 48.1903C179.505 48.1903 179.714 48.1465 179.909 48.0589C180.103 47.969 180.272 47.8471 180.416 47.6932C180.563 47.5369 180.678 47.3606 180.761 47.1641C180.844 46.9652 180.885 46.758 180.885 46.5426C180.885 46.2585 180.816 45.9922 180.679 45.7436C180.544 45.495 180.357 45.2938 180.118 45.1399C179.881 44.986 179.611 44.9091 179.308 44.9091ZM185.563 51.5994C185.075 51.5994 184.644 51.513 184.27 51.3402C183.899 51.165 183.609 50.9247 183.4 50.6193C183.192 50.3116 183.089 49.9612 183.091 49.5682C183.089 49.2604 183.149 48.9763 183.272 48.7159C183.395 48.4531 183.564 48.2341 183.777 48.0589C183.992 47.8814 184.232 47.7689 184.498 47.7216V47.679C184.15 47.589 183.873 47.3937 183.667 47.093C183.461 46.79 183.359 46.4455 183.361 46.0597C183.359 45.6903 183.452 45.3601 183.642 45.0689C183.831 44.7777 184.092 44.5481 184.423 44.38C184.757 44.2119 185.137 44.1278 185.563 44.1278C185.984 44.1278 186.361 44.2119 186.692 44.38C187.024 44.5481 187.284 44.7777 187.473 45.0689C187.665 45.3601 187.762 45.6903 187.765 46.0597C187.762 46.4455 187.657 46.79 187.449 47.093C187.243 47.3937 186.969 47.589 186.628 47.679V47.7216C186.891 47.7689 187.128 47.8814 187.338 48.0589C187.549 48.2341 187.717 48.4531 187.843 48.7159C187.968 48.9763 188.032 49.2604 188.034 49.5682C188.032 49.9612 187.926 50.3116 187.715 50.6193C187.507 50.9247 187.217 51.165 186.845 51.3402C186.475 51.513 186.048 51.5994 185.563 51.5994ZM185.563 50.8182C185.892 50.8182 186.176 50.7649 186.415 50.6584C186.654 50.5518 186.839 50.4015 186.969 50.2074C187.099 50.0133 187.166 49.786 187.168 49.5256C187.166 49.2509 187.095 49.0083 186.955 48.7976C186.815 48.5869 186.625 48.4212 186.383 48.3004C186.144 48.1797 185.871 48.1193 185.563 48.1193C185.253 48.1193 184.976 48.1797 184.732 48.3004C184.49 48.4212 184.3 48.5869 184.16 48.7976C184.023 49.0083 183.955 49.2509 183.958 49.5256C183.955 49.786 184.018 50.0133 184.146 50.2074C184.276 50.4015 184.462 50.5518 184.703 50.6584C184.945 50.7649 185.231 50.8182 185.563 50.8182ZM185.563 47.3665C185.823 47.3665 186.054 47.3144 186.255 47.2102C186.459 47.1061 186.619 46.9605 186.735 46.7734C186.851 46.5864 186.91 46.3674 186.912 46.1165C186.91 45.8703 186.852 45.656 186.738 45.4737C186.625 45.2891 186.467 45.147 186.266 45.0476C186.065 44.9458 185.83 44.8949 185.563 44.8949C185.291 44.8949 185.053 44.9458 184.849 45.0476C184.645 45.147 184.488 45.2891 184.377 45.4737C184.266 45.656 184.211 45.8703 184.213 46.1165C184.211 46.3674 184.267 46.5864 184.38 46.7734C184.496 46.9605 184.656 47.1061 184.86 47.2102C185.063 47.3144 185.298 47.3665 185.563 47.3665ZM191.853 51.5994C191.384 51.5994 190.966 51.5189 190.599 51.358C190.235 51.197 189.945 50.9732 189.729 50.6868C189.516 50.398 189.4 50.063 189.381 49.6818H190.276C190.295 49.9162 190.376 50.1186 190.518 50.2891C190.66 50.4571 190.845 50.5874 191.075 50.6797C191.305 50.772 191.559 50.8182 191.839 50.8182C192.151 50.8182 192.428 50.7637 192.67 50.6548C192.911 50.5459 193.1 50.3944 193.238 50.2003C193.375 50.0062 193.444 49.7812 193.444 49.5256C193.444 49.258 193.377 49.0225 193.245 48.8189C193.112 48.6129 192.918 48.4519 192.662 48.3359C192.407 48.2199 192.094 48.1619 191.725 48.1619H191.143V47.3807H191.725C192.014 47.3807 192.267 47.3286 192.485 47.2244C192.705 47.1203 192.877 46.9735 193 46.7841C193.125 46.5947 193.188 46.3722 193.188 46.1165C193.188 45.8703 193.134 45.656 193.025 45.4737C192.916 45.2914 192.762 45.1494 192.563 45.0476C192.367 44.9458 192.135 44.8949 191.867 44.8949C191.616 44.8949 191.379 44.9411 191.157 45.0334C190.937 45.1233 190.757 45.2547 190.617 45.4276C190.477 45.598 190.402 45.804 190.39 46.0455H189.537C189.552 45.6643 189.666 45.3305 189.882 45.044C190.097 44.7552 190.379 44.5303 190.727 44.3693C191.077 44.2083 191.462 44.1278 191.881 44.1278C192.331 44.1278 192.717 44.219 193.039 44.4013C193.361 44.5812 193.608 44.8191 193.781 45.1151C193.954 45.411 194.04 45.7306 194.04 46.0739C194.04 46.4834 193.933 46.8326 193.717 47.1214C193.504 47.4103 193.214 47.6103 192.847 47.7216V47.7784C193.306 47.8542 193.665 48.0495 193.923 48.3643C194.181 48.6768 194.31 49.0639 194.31 49.5256C194.31 49.9209 194.202 50.276 193.987 50.5909C193.774 50.9034 193.483 51.1496 193.113 51.3295C192.744 51.5095 192.324 51.5994 191.853 51.5994ZM196.163 51.5568C195.988 51.5568 195.837 51.4941 195.712 51.3686C195.587 51.2431 195.524 51.0928 195.524 50.9176C195.524 50.7424 195.587 50.5921 195.712 50.4666C195.837 50.3411 195.988 50.2784 196.163 50.2784C196.338 50.2784 196.489 50.3411 196.614 50.4666C196.739 50.5921 196.802 50.7424 196.802 50.9176C196.802 51.0336 196.773 51.1402 196.713 51.2372C196.657 51.3343 196.58 51.4124 196.483 51.4716C196.388 51.5284 196.281 51.5568 196.163 51.5568ZM200.41 51.5994C199.875 51.5994 199.419 51.4538 199.043 51.1626C198.667 50.8691 198.379 50.4441 198.18 49.8878C197.981 49.3291 197.882 48.6544 197.882 47.8636C197.882 47.0777 197.981 46.4065 198.18 45.8501C198.381 45.2914 198.67 44.8653 199.047 44.5717C199.425 44.2758 199.88 44.1278 200.41 44.1278C200.94 44.1278 201.394 44.2758 201.77 44.5717C202.149 44.8653 202.438 45.2914 202.637 45.8501C202.838 46.4065 202.939 47.0777 202.939 47.8636C202.939 48.6544 202.839 49.3291 202.64 49.8878C202.441 50.4441 202.154 50.8691 201.777 51.1626C201.401 51.4538 200.945 51.5994 200.41 51.5994ZM200.41 50.8182C200.94 50.8182 201.352 50.5625 201.646 50.0511C201.94 49.5398 202.086 48.8106 202.086 47.8636C202.086 47.2339 202.019 46.6977 201.884 46.255C201.751 45.8123 201.56 45.4749 201.309 45.2429C201.06 45.0109 200.761 44.8949 200.41 44.8949C199.885 44.8949 199.474 45.1541 199.178 45.6726C198.882 46.1887 198.734 46.919 198.734 47.8636C198.734 48.4934 198.8 49.0284 198.933 49.4688C199.065 49.9091 199.256 50.2441 199.505 50.4737C199.756 50.7034 200.057 50.8182 200.41 50.8182ZM204.32 51.5L207.573 45.0653V45.0085H203.823V44.2273H208.482V45.0511L205.243 51.5H204.32Z" fill="var(--colors-neutral-neutral-800)"/>
<path d="M28.6599 84.65C28.6733 84.5367 28.6799 84.4233 28.6799 84.31C28.6799 81.55 26.4333 79.31 23.6733 79.31C23.5599 79.31 23.4533 79.3167 23.3466 79.33V74.6833H22.6799V85.3167H33.3199V84.65H28.6599ZM23.3466 84.65V79.99C23.4533 79.9833 23.5599 79.9767 23.6733 79.9767C26.0666 79.9767 28.0133 81.9167 28.0133 84.31C28.0133 84.4233 28.0066 84.5367 27.9999 84.65H23.3466Z" fill="var(--colors-neutral-neutral-700)" stroke="var(--colors-neutral-neutral-700)" stroke-width="0.333333" stroke-miterlimit="10"/>
<path d="M47.125 83.5994C46.59 83.5994 46.1342 83.4538 45.7578 83.1626C45.3814 82.8691 45.0938 82.4441 44.8949 81.8878C44.696 81.3291 44.5966 80.6544 44.5966 79.8636C44.5966 79.0777 44.696 78.4065 44.8949 77.8501C45.0961 77.2914 45.3849 76.8653 45.7614 76.5717C46.1402 76.2758 46.5947 76.1278 47.125 76.1278C47.6553 76.1278 48.1087 76.2758 48.4851 76.5717C48.8639 76.8653 49.1527 77.2914 49.3516 77.8501C49.5528 78.4065 49.6534 79.0777 49.6534 79.8636C49.6534 80.6544 49.554 81.3291 49.3551 81.8878C49.1562 82.4441 48.8686 82.8691 48.4922 83.1626C48.1158 83.4538 47.66 83.5994 47.125 83.5994ZM47.125 82.8182C47.6553 82.8182 48.0672 82.5625 48.3608 82.0511C48.6544 81.5398 48.8011 80.8106 48.8011 79.8636C48.8011 79.2339 48.7337 78.6977 48.5987 78.255C48.4661 77.8123 48.2744 77.4749 48.0234 77.2429C47.7749 77.0109 47.4754 76.8949 47.125 76.8949C46.5994 76.8949 46.1887 77.1541 45.8928 77.6726C45.5968 78.1887 45.4489 78.919 45.4489 79.8636C45.4489 80.4934 45.5152 81.0284 45.6477 81.4688C45.7803 81.9091 45.9709 82.2441 46.2195 82.4737C46.4704 82.7034 46.7723 82.8182 47.125 82.8182ZM52.5227 79.4375C52.2221 79.4375 51.9474 79.3641 51.6989 79.2173C51.4527 79.0705 51.2562 78.8741 51.1094 78.6278C50.9626 78.3793 50.8892 78.1046 50.8892 77.804C50.8892 77.5033 50.9626 77.2299 51.1094 76.9837C51.2562 76.7351 51.4527 76.5374 51.6989 76.3906C51.9474 76.2438 52.2221 76.1705 52.5227 76.1705C52.8234 76.1705 53.0968 76.2438 53.343 76.3906C53.5916 76.5374 53.7893 76.7351 53.9361 76.9837C54.0829 77.2299 54.1562 77.5033 54.1562 77.804C54.1562 78.1046 54.0829 78.3793 53.9361 78.6278C53.7893 78.8741 53.5916 79.0705 53.343 79.2173C53.0968 79.3641 52.8234 79.4375 52.5227 79.4375ZM52.5227 78.7273C52.6932 78.7273 52.8482 78.6858 52.9879 78.603C53.1276 78.5201 53.2389 78.4089 53.3217 78.2692C53.4046 78.1295 53.446 77.9744 53.446 77.804C53.446 77.6335 53.4046 77.4785 53.3217 77.3388C53.2389 77.1991 53.1276 77.0878 52.9879 77.005C52.8482 76.9221 52.6932 76.8807 52.5227 76.8807C52.3523 76.8807 52.1972 76.9221 52.0575 77.005C51.9179 77.0878 51.8066 77.1991 51.7237 77.3388C51.6409 77.4785 51.5994 77.6335 51.5994 77.804C51.5994 77.9744 51.6409 78.1295 51.7237 78.2692C51.8066 78.4089 51.9179 78.5201 52.0575 78.603C52.1972 78.6858 52.3523 78.7273 52.5227 78.7273Z" fill="var(--colors-neutral-neutral-800)"/>
</svg>
