<svg width="288" height="37" viewBox="0 0 288 37" fill="none" xmlns="http://www.w3.org/2000/svg">
<path d="M1.11861 24V13.8182H2.65483V22.6776H7.26847V24H1.11861ZM11.1239 24.169C10.64 24.169 10.2025 24.0795 9.81143 23.9006C9.42034 23.7183 9.11044 23.4548 8.88175 23.1101C8.65637 22.7654 8.54368 22.3428 8.54368 21.8423C8.54368 21.4115 8.62654 21.0568 8.79226 20.7784C8.95798 20.5 9.1817 20.2796 9.46342 20.1172C9.74515 19.9548 10.06 19.8321 10.408 19.7493C10.756 19.6664 11.1107 19.6035 11.4719 19.5604C11.9293 19.5073 12.3005 19.4643 12.5856 19.4311C12.8706 19.3946 13.0778 19.3366 13.207 19.2571C13.3363 19.1776 13.4009 19.0483 13.4009 18.8693V18.8345C13.4009 18.4003 13.2783 18.0639 13.033 17.8253C12.7911 17.5866 12.4298 17.4673 11.9492 17.4673C11.4487 17.4673 11.0543 17.5784 10.766 17.8004C10.4809 18.0192 10.2837 18.2628 10.1744 18.5312L8.77734 18.2131C8.94306 17.7491 9.18501 17.3745 9.5032 17.0895C9.82469 16.8011 10.1942 16.5923 10.6119 16.4631C11.0295 16.3305 11.4686 16.2642 11.9293 16.2642C12.2343 16.2642 12.5574 16.3007 12.8988 16.3736C13.2435 16.4432 13.565 16.5724 13.8633 16.7614C14.1649 16.9503 14.4118 17.2204 14.604 17.5717C14.7963 17.9197 14.8924 18.3722 14.8924 18.929V24H13.4407V22.956H13.381C13.2849 23.1482 13.1407 23.3371 12.9485 23.5227C12.7563 23.7083 12.5094 23.8625 12.2077 23.9851C11.9061 24.1077 11.5449 24.169 11.1239 24.169ZM11.4471 22.9759C11.8581 22.9759 12.2094 22.8946 12.5011 22.7322C12.796 22.5698 13.0198 22.3577 13.1722 22.0959C13.328 21.8307 13.4059 21.5473 13.4059 21.2457V20.2614C13.3529 20.3144 13.2501 20.3641 13.0977 20.4105C12.9485 20.4536 12.7778 20.4917 12.5856 20.5249C12.3933 20.5547 12.2061 20.5829 12.0238 20.6094C11.8415 20.6326 11.689 20.6525 11.5664 20.669C11.2781 20.7055 11.0146 20.7668 10.7759 20.853C10.5406 20.9392 10.3517 21.0634 10.2092 21.2259C10.07 21.3849 10.0004 21.5971 10.0004 21.8622C10.0004 22.2301 10.1362 22.5085 10.408 22.6974C10.6798 22.883 11.0262 22.9759 11.4471 22.9759ZM16.9917 24V13.8182H18.4782V17.6016H18.5676C18.6538 17.4425 18.7781 17.2585 18.9405 17.0497C19.1029 16.8409 19.3283 16.6586 19.6167 16.5028C19.905 16.3438 20.2862 16.2642 20.7601 16.2642C21.3766 16.2642 21.9268 16.42 22.4107 16.7315C22.8946 17.0431 23.2741 17.4922 23.5492 18.0788C23.8276 18.6655 23.9668 19.3714 23.9668 20.1967C23.9668 21.022 23.8292 21.7296 23.5542 22.3196C23.2791 22.9062 22.9012 23.3587 22.4206 23.6768C21.94 23.9917 21.3915 24.1491 20.775 24.1491C20.311 24.1491 19.9315 24.0713 19.6365 23.9155C19.3449 23.7597 19.1162 23.5774 18.9505 23.3686C18.7847 23.1598 18.6571 22.9742 18.5676 22.8118H18.4434V24H16.9917ZM18.4483 20.1818C18.4483 20.7187 18.5262 21.1894 18.682 21.5938C18.8378 21.9981 19.0632 22.3146 19.3581 22.5433C19.6531 22.7687 20.0144 22.8814 20.4419 22.8814C20.8861 22.8814 21.2573 22.7637 21.5556 22.5284C21.8539 22.2898 22.0792 21.9666 22.2317 21.5589C22.3875 21.1513 22.4654 20.6922 22.4654 20.1818C22.4654 19.678 22.3891 19.2256 22.2367 18.8246C22.0875 18.4235 21.8622 18.107 21.5605 17.875C21.2623 17.643 20.8894 17.527 20.4419 17.527C20.0111 17.527 19.6465 17.638 19.3482 17.8601C19.0532 18.0821 18.8295 18.392 18.677 18.7898C18.5246 19.1875 18.4483 19.6515 18.4483 20.1818ZM28.9272 24.1541C28.1748 24.1541 27.5269 23.9934 26.9833 23.6719C26.4431 23.3471 26.0254 22.8913 25.7305 22.3047C25.4388 21.7147 25.293 21.0237 25.293 20.2315C25.293 19.4493 25.4388 18.7599 25.7305 18.1634C26.0254 17.5668 26.4364 17.1011 26.9634 16.7663C27.4937 16.4316 28.1135 16.2642 28.8228 16.2642C29.2537 16.2642 29.6713 16.3355 30.0756 16.478C30.48 16.6205 30.8429 16.8442 31.1644 17.1491C31.4859 17.4541 31.7395 17.8501 31.9251 18.3374C32.1107 18.8213 32.2035 19.4096 32.2035 20.1023V20.6293H26.1332V19.5156H30.7468C30.7468 19.1245 30.6673 18.7782 30.5082 18.4766C30.3491 18.1716 30.1254 17.9313 29.837 17.7557C29.552 17.58 29.2172 17.4922 28.8327 17.4922C28.4151 17.4922 28.0505 17.5949 27.739 17.8004C27.4308 18.0026 27.1921 18.2678 27.0231 18.5959C26.8574 18.9207 26.7745 19.2737 26.7745 19.6548V20.5249C26.7745 21.0353 26.864 21.4695 27.043 21.8274C27.2253 22.1854 27.4788 22.4588 27.8036 22.6477C28.1284 22.8333 28.5079 22.9261 28.9421 22.9261C29.2238 22.9261 29.4807 22.8864 29.7127 22.8068C29.9447 22.724 30.1452 22.6013 30.3143 22.4389C30.4833 22.2765 30.6126 22.076 30.7021 21.8374L32.109 22.0909C31.9963 22.5052 31.7942 22.8681 31.5025 23.1797C31.2141 23.4879 30.8512 23.7282 30.4137 23.9006C29.9795 24.0696 29.484 24.1541 28.9272 24.1541ZM35.3393 13.8182V24H33.8528V13.8182H35.3393ZM42.5307 19.4659V24H41.0442V16.3636H42.4711V17.6065H42.5655C42.7412 17.2022 43.0163 16.8774 43.3908 16.6321C43.7686 16.3868 44.2443 16.2642 44.8176 16.2642C45.338 16.2642 45.7937 16.3736 46.1848 16.5923C46.5759 16.8078 46.8792 17.1293 47.0946 17.5568C47.3101 17.9844 47.4178 18.513 47.4178 19.1428V24H45.9313V19.3217C45.9313 18.7682 45.7871 18.3357 45.4988 18.0241C45.2104 17.7093 44.8143 17.5518 44.3105 17.5518C43.9658 17.5518 43.6593 17.6264 43.3908 17.7756C43.1257 17.9247 42.9152 18.1435 42.7594 18.4318C42.6069 18.7169 42.5307 19.0616 42.5307 19.4659ZM51.6337 24.169C51.1498 24.169 50.7123 24.0795 50.3212 23.9006C49.9301 23.7183 49.6202 23.4548 49.3915 23.1101C49.1661 22.7654 49.0534 22.3428 49.0534 21.8423C49.0534 21.4115 49.1363 21.0568 49.302 20.7784C49.4677 20.5 49.6915 20.2796 49.9732 20.1172C50.2549 19.9548 50.5698 19.8321 50.9178 19.7493C51.2658 19.6664 51.6204 19.6035 51.9817 19.5604C52.4391 19.5073 52.8103 19.4643 53.0953 19.4311C53.3804 19.3946 53.5875 19.3366 53.7168 19.2571C53.8461 19.1776 53.9107 19.0483 53.9107 18.8693V18.8345C53.9107 18.4003 53.7881 18.0639 53.5428 17.8253C53.3008 17.5866 52.9396 17.4673 52.459 17.4673C51.9585 17.4673 51.5641 17.5784 51.2757 17.8004C50.9907 18.0192 50.7935 18.2628 50.6841 18.5312L49.2871 18.2131C49.4528 17.7491 49.6948 17.3745 50.013 17.0895C50.3345 16.8011 50.704 16.5923 51.1216 16.4631C51.5392 16.3305 51.9784 16.2642 52.4391 16.2642C52.744 16.2642 53.0672 16.3007 53.4086 16.3736C53.7533 16.4432 54.0748 16.5724 54.373 16.7614C54.6747 16.9503 54.9216 17.2204 55.1138 17.5717C55.306 17.9197 55.4022 18.3722 55.4022 18.929V24H53.9505V22.956H53.8908C53.7947 23.1482 53.6505 23.3371 53.4583 23.5227C53.266 23.7083 53.0191 23.8625 52.7175 23.9851C52.4159 24.1077 52.0546 24.169 51.6337 24.169ZM51.9569 22.9759C52.3678 22.9759 52.7192 22.8946 53.0108 22.7322C53.3058 22.5698 53.5295 22.3577 53.682 22.0959C53.8378 21.8307 53.9157 21.5473 53.9157 21.2457V20.2614C53.8626 20.3144 53.7599 20.3641 53.6074 20.4105C53.4583 20.4536 53.2876 20.4917 53.0953 20.5249C52.9031 20.5547 52.7159 20.5829 52.5336 20.6094C52.3513 20.6326 52.1988 20.6525 52.0762 20.669C51.7878 20.7055 51.5243 20.7668 51.2857 20.853C51.0504 20.9392 50.8614 21.0634 50.7189 21.2259C50.5797 21.3849 50.5101 21.5971 50.5101 21.8622C50.5101 22.2301 50.646 22.5085 50.9178 22.6974C51.1896 22.883 51.5359 22.9759 51.9569 22.9759ZM57.3821 24V16.3636H58.8089V17.6065H58.9034C59.0625 17.1856 59.3227 16.8575 59.6839 16.6222C60.0452 16.3835 60.4777 16.2642 60.9815 16.2642C61.492 16.2642 61.9195 16.3835 62.2642 16.6222C62.6122 16.8608 62.8691 17.1889 63.0348 17.6065H63.1143C63.2966 17.1989 63.5866 16.8741 63.9844 16.6321C64.3821 16.3868 64.8561 16.2642 65.4062 16.2642C66.099 16.2642 66.6641 16.4813 67.1016 16.9155C67.5424 17.3497 67.7628 18.0043 67.7628 18.8793V24H66.2763V19.0185C66.2763 18.5014 66.1354 18.1269 65.8537 17.8949C65.572 17.6629 65.2356 17.5469 64.8445 17.5469C64.3606 17.5469 63.9844 17.696 63.7159 17.9943C63.4474 18.2893 63.3132 18.6688 63.3132 19.1328V24H61.8317V18.924C61.8317 18.5097 61.7024 18.1766 61.4439 17.9247C61.1854 17.6728 60.849 17.5469 60.4347 17.5469C60.1529 17.5469 59.8928 17.6214 59.6541 17.7706C59.4188 17.9164 59.2282 18.1203 59.0824 18.3821C58.9399 18.6439 58.8686 18.9472 58.8686 19.2919V24H57.3821ZM73.0463 24.1541C72.294 24.1541 71.646 23.9934 71.1025 23.6719C70.5622 23.3471 70.1446 22.8913 69.8496 22.3047C69.5579 21.7147 69.4121 21.0237 69.4121 20.2315C69.4121 19.4493 69.5579 18.7599 69.8496 18.1634C70.1446 17.5668 70.5556 17.1011 71.0826 16.7663C71.6129 16.4316 72.2327 16.2642 72.9419 16.2642C73.3728 16.2642 73.7904 16.3355 74.1948 16.478C74.5991 16.6205 74.9621 16.8442 75.2836 17.1491C75.6051 17.4541 75.8586 17.8501 76.0442 18.3374C76.2298 18.8213 76.3226 19.4096 76.3226 20.1023V20.6293H70.2523V19.5156H74.8659C74.8659 19.1245 74.7864 18.7782 74.6273 18.4766C74.4682 18.1716 74.2445 17.9313 73.9561 17.7557C73.6711 17.58 73.3364 17.4922 72.9519 17.4922C72.5343 17.4922 72.1697 17.5949 71.8581 17.8004C71.5499 18.0026 71.3113 18.2678 71.1422 18.5959C70.9765 18.9207 70.8936 19.2737 70.8936 19.6548V20.5249C70.8936 21.0353 70.9831 21.4695 71.1621 21.8274C71.3444 22.1854 71.598 22.4588 71.9228 22.6477C72.2476 22.8333 72.6271 22.9261 73.0613 22.9261C73.343 22.9261 73.5998 22.8864 73.8319 22.8068C74.0639 22.724 74.2644 22.6013 74.4334 22.4389C74.6025 22.2765 74.7317 22.076 74.8212 21.8374L76.2282 22.0909C76.1155 22.5052 75.9133 22.8681 75.6216 23.1797C75.3333 23.4879 74.9703 23.7282 74.5328 23.9006C74.0987 24.0696 73.6032 24.1541 73.0463 24.1541Z" fill="#222222"/>
<path d="M276 21.2019L270.692 15.8942L271.4 15.1865L276 19.7865L280.6 15.1865L281.308 15.8942L276 21.2019Z" fill="#222222"/>
</svg>
