<svg width="184" height="391" viewBox="0 0 184 391" fill="none" xmlns="http://www.w3.org/2000/svg">
<path d="M30.0719 384.92L108.259 299.215L174.417 199.477L162.889 92.2204L132.316 23.5563L70.1677 9.02156" stroke="#DACCE5" stroke-width="18"/>
<path d="M29.5707 384.419L108.76 297.711L174.918 199.477L163.39 92.2204L132.817 23.5563L69.6665 9.02156" stroke="#F325A7"/>
<path d="M70.1677 9.52276L5.51317 360.862" stroke="#F325A7"/>
<circle cx="29.7096" cy="384.557" r="3.50958" transform="rotate(-40.3928 29.7096 384.557)" fill="white" stroke="#F325A7"/>
<circle cx="175.057" cy="198.111" r="3.50958" transform="rotate(-40.3928 175.057 198.111)" fill="white" stroke="#F325A7"/>
<circle cx="108.899" cy="297.349" r="3.50958" transform="rotate(-40.3928 108.899 297.349)" fill="white" stroke="#F325A7"/>
<circle cx="131.954" cy="23.6946" r="3.50958" transform="rotate(-40.3928 131.954 23.6946)" fill="white" stroke="#F325A7"/>
<circle cx="5.65208" cy="359.497" r="3.50958" transform="rotate(-40.3928 5.65208 359.497)" fill="#FDE2F3" stroke="#F325A7"/>
<circle cx="69.8054" cy="9.66106" r="3.50958" transform="rotate(-40.3928 69.8054 9.66106)" fill="white" stroke="#F325A7"/>
<circle cx="163.028" cy="91.8575" r="3.50958" transform="rotate(-40.3928 163.028 91.8575)" fill="white" stroke="#F325A7"/>
</svg>
