<svg width="118" height="37" viewBox="0 0 118 37" fill="none" xmlns="http://www.w3.org/2000/svg">
<path d="M1.58523 25V11.9091H3.17045V23.5938H9.25568V25H1.58523ZM14.3949 25.2301C13.7727 25.2301 13.2081 25.1129 12.701 24.8786C12.1939 24.6399 11.7912 24.2969 11.4929 23.8494C11.1946 23.3977 11.0455 22.8523 11.0455 22.2131C11.0455 21.6506 11.1563 21.1946 11.3778 20.8452C11.5994 20.4915 11.8956 20.2145 12.2663 20.0142C12.6371 19.8139 13.0462 19.6648 13.4936 19.5668C13.9453 19.4645 14.3991 19.3835 14.8551 19.3239C15.4517 19.2472 15.9354 19.1896 16.3061 19.1513C16.6811 19.1087 16.9538 19.0384 17.1243 18.9403C17.299 18.8423 17.3864 18.6719 17.3864 18.429V18.3778C17.3864 17.7472 17.2138 17.2571 16.8686 16.9077C16.5277 16.5582 16.0099 16.3835 15.3153 16.3835C14.5952 16.3835 14.0305 16.5412 13.6214 16.8565C13.2124 17.1719 12.9247 17.5085 12.7585 17.8665L11.3267 17.3551C11.5824 16.7585 11.9233 16.294 12.3494 15.9616C12.7798 15.625 13.2486 15.3906 13.7557 15.2585C14.267 15.1222 14.7699 15.054 15.2642 15.054C15.5795 15.054 15.9418 15.0923 16.3509 15.169C16.7642 15.2415 17.1626 15.3928 17.5462 15.6229C17.9339 15.853 18.2557 16.2003 18.5114 16.6648C18.767 17.1293 18.8949 17.7514 18.8949 18.5312V25H17.3864V23.6705H17.3097C17.2074 23.8835 17.0369 24.1115 16.7983 24.3544C16.5597 24.5973 16.2422 24.804 15.8459 24.9744C15.4496 25.1449 14.9659 25.2301 14.3949 25.2301ZM14.625 23.875C15.2216 23.875 15.7244 23.7578 16.1335 23.5234C16.5469 23.2891 16.858 22.9865 17.0668 22.6158C17.2798 22.245 17.3864 21.8551 17.3864 21.446V20.0653C17.3224 20.142 17.1818 20.2124 16.9645 20.2763C16.7514 20.3359 16.5043 20.3892 16.223 20.4361C15.946 20.4787 15.6754 20.517 15.4112 20.5511C15.1513 20.581 14.9403 20.6065 14.7784 20.6278C14.3864 20.679 14.0199 20.7621 13.679 20.8771C13.3423 20.9879 13.0696 21.1562 12.8608 21.3821C12.6563 21.6037 12.554 21.9062 12.554 22.2898C12.554 22.8139 12.7479 23.2102 13.1357 23.4787C13.5277 23.7429 14.0241 23.875 14.625 23.875ZM21.8528 25V11.9091H23.3613V16.7415H23.4892C23.6 16.571 23.7534 16.3537 23.9494 16.0895C24.1497 15.821 24.4352 15.5824 24.8059 15.3736C25.1809 15.1605 25.688 15.054 26.3272 15.054C27.1539 15.054 27.8826 15.2607 28.5133 15.674C29.144 16.0874 29.6362 16.6733 29.9899 17.4318C30.3436 18.1903 30.5204 19.0852 30.5204 20.1165C30.5204 21.1562 30.3436 22.0575 29.9899 22.8203C29.6362 23.5788 29.1461 24.1669 28.5197 24.5845C27.8933 24.9979 27.171 25.2045 26.3528 25.2045C25.7221 25.2045 25.2172 25.1001 24.8379 24.8913C24.4586 24.6783 24.1667 24.4375 23.9622 24.169C23.7576 23.8963 23.6 23.6705 23.4892 23.4915H23.3102V25H21.8528ZM23.3358 20.0909C23.3358 20.8324 23.4444 21.4865 23.6618 22.0533C23.8791 22.6158 24.1966 23.0568 24.6142 23.3764C25.0318 23.6918 25.5431 23.8494 26.1483 23.8494C26.7789 23.8494 27.3052 23.6832 27.7271 23.3509C28.1532 23.0142 28.4728 22.5625 28.6859 21.9957C28.9032 21.4247 29.0119 20.7898 29.0119 20.0909C29.0119 19.4006 28.9054 18.7784 28.6923 18.2244C28.4835 17.6662 28.166 17.2251 27.7399 16.9013C27.318 16.5732 26.7875 16.4091 26.1483 16.4091C25.5346 16.4091 25.019 16.5646 24.6014 16.8757C24.1838 17.1825 23.8684 17.6129 23.6554 18.1669C23.4423 18.7166 23.3358 19.358 23.3358 20.0909ZM36.9444 25.2045C35.9984 25.2045 35.1824 24.9957 34.4963 24.5781C33.8145 24.1562 33.2882 23.5682 32.9174 22.8139C32.551 22.0554 32.3677 21.1733 32.3677 20.1676C32.3677 19.1619 32.551 18.2756 32.9174 17.5085C33.2882 16.7372 33.8038 16.1364 34.4643 15.706C35.1291 15.2713 35.9047 15.054 36.791 15.054C37.3024 15.054 37.8074 15.1392 38.3059 15.3097C38.8045 15.4801 39.2583 15.7571 39.6674 16.1406C40.0765 16.5199 40.4025 17.0227 40.6454 17.6491C40.8883 18.2756 41.0098 19.0469 41.0098 19.9631V20.6023H33.4416V19.2983H39.4757C39.4757 18.7443 39.3649 18.25 39.1433 17.8153C38.926 17.3807 38.6149 17.0376 38.2101 16.7862C37.8095 16.5348 37.3365 16.4091 36.791 16.4091C36.1902 16.4091 35.6703 16.5582 35.2314 16.8565C34.7967 17.1506 34.4622 17.5341 34.2278 18.0071C33.9934 18.4801 33.8762 18.9872 33.8762 19.5284V20.3977C33.8762 21.1392 34.0041 21.7678 34.2598 22.2834C34.5197 22.7947 34.8798 23.1847 35.34 23.4531C35.8002 23.7173 36.3351 23.8494 36.9444 23.8494C37.3407 23.8494 37.6987 23.794 38.0183 23.6832C38.3422 23.5682 38.6213 23.3977 38.8556 23.1719C39.09 22.9418 39.2711 22.6562 39.399 22.3153L40.8564 22.7244C40.7029 23.2188 40.4451 23.6534 40.0829 24.0284C39.7207 24.3991 39.2733 24.6889 38.7406 24.8977C38.2079 25.1023 37.6092 25.2045 36.9444 25.2045ZM44.813 11.9091V25H43.3045V11.9091H44.813ZM54.147 19.0938V25H52.6385V15.1818H54.0959V16.7159H54.2237C54.4538 16.2173 54.8033 15.8168 55.272 15.5142C55.7408 15.2074 56.3459 15.054 57.0874 15.054C57.7521 15.054 58.3338 15.1903 58.8324 15.4631C59.331 15.7315 59.7188 16.1406 59.9957 16.6903C60.2727 17.2358 60.4112 17.9261 60.4112 18.7614V25H58.9027V18.8636C58.9027 18.0923 58.7024 17.4915 58.3018 17.0611C57.9013 16.6264 57.3516 16.4091 56.6527 16.4091C56.1712 16.4091 55.7408 16.5135 55.3615 16.7223C54.9865 16.9311 54.6903 17.2358 54.473 17.6364C54.2557 18.0369 54.147 18.5227 54.147 19.0938ZM66.057 25.2301C65.4348 25.2301 64.8702 25.1129 64.3631 24.8786C63.856 24.6399 63.4533 24.2969 63.155 23.8494C62.8567 23.3977 62.7076 22.8523 62.7076 22.2131C62.7076 21.6506 62.8184 21.1946 63.04 20.8452C63.2615 20.4915 63.5577 20.2145 63.9284 20.0142C64.2992 19.8139 64.7083 19.6648 65.1557 19.5668C65.6074 19.4645 66.0613 19.3835 66.5172 19.3239C67.1138 19.2472 67.5975 19.1896 67.9682 19.1513C68.3432 19.1087 68.6159 19.0384 68.7864 18.9403C68.9611 18.8423 69.0485 18.6719 69.0485 18.429V18.3778C69.0485 17.7472 68.8759 17.2571 68.5307 16.9077C68.1898 16.5582 67.6721 16.3835 66.9775 16.3835C66.2573 16.3835 65.6926 16.5412 65.2836 16.8565C64.8745 17.1719 64.5868 17.5085 64.4206 17.8665L62.9888 17.3551C63.2445 16.7585 63.5854 16.294 64.0115 15.9616C64.4419 15.625 64.9107 15.3906 65.4178 15.2585C65.9292 15.1222 66.432 15.054 66.9263 15.054C67.2417 15.054 67.6039 15.0923 68.013 15.169C68.4263 15.2415 68.8248 15.3928 69.2083 15.6229C69.5961 15.853 69.9178 16.2003 70.1735 16.6648C70.4292 17.1293 70.557 17.7514 70.557 18.5312V25H69.0485V23.6705H68.9718C68.8695 23.8835 68.699 24.1115 68.4604 24.3544C68.2218 24.5973 67.9043 24.804 67.508 24.9744C67.1117 25.1449 66.628 25.2301 66.057 25.2301ZM66.2871 23.875C66.8837 23.875 67.3865 23.7578 67.7956 23.5234C68.209 23.2891 68.5201 22.9865 68.7289 22.6158C68.9419 22.245 69.0485 21.8551 69.0485 21.446V20.0653C68.9846 20.142 68.8439 20.2124 68.6266 20.2763C68.4135 20.3359 68.1664 20.3892 67.8851 20.4361C67.6081 20.4787 67.3375 20.517 67.0733 20.5511C66.8134 20.581 66.6025 20.6065 66.4405 20.6278C66.0485 20.679 65.682 20.7621 65.3411 20.8771C65.0044 20.9879 64.7317 21.1562 64.5229 21.3821C64.3184 21.6037 64.2161 21.9062 64.2161 22.2898C64.2161 22.8139 64.41 23.2102 64.7978 23.4787C65.1898 23.7429 65.6863 23.875 66.2871 23.875ZM73.3104 25V15.1818H74.7678V16.7159H74.8956C75.1001 16.1918 75.4304 15.7848 75.8864 15.495C76.3423 15.201 76.8899 15.054 77.5291 15.054C78.1768 15.054 78.7159 15.201 79.1463 15.495C79.581 15.7848 79.9197 16.1918 80.1626 16.7159H80.2649C80.5163 16.2088 80.8935 15.8061 81.3963 15.5078C81.8991 15.2053 82.5021 15.054 83.2053 15.054C84.0831 15.054 84.8011 15.3288 85.3594 15.8786C85.9176 16.424 86.1967 17.2741 86.1967 18.429V25H84.6882V18.429C84.6882 17.7045 84.4901 17.1868 84.0938 16.8757C83.6974 16.5646 83.2308 16.4091 82.6939 16.4091C82.0036 16.4091 81.4688 16.6179 81.0895 17.0355C80.7102 17.4489 80.5206 17.973 80.5206 18.608V25H78.9865V18.2756C78.9865 17.7173 78.8054 17.2678 78.4432 16.9268C78.081 16.5817 77.6143 16.4091 77.0433 16.4091C76.6513 16.4091 76.2848 16.5135 75.9439 16.7223C75.6072 16.9311 75.3345 17.2209 75.1257 17.5916C74.9212 17.9581 74.8189 18.3821 74.8189 18.8636V25H73.3104ZM93.0714 25.2045C92.1254 25.2045 91.3093 24.9957 90.6232 24.5781C89.9414 24.1562 89.4151 23.5682 89.0444 22.8139C88.6779 22.0554 88.4947 21.1733 88.4947 20.1676C88.4947 19.1619 88.6779 18.2756 89.0444 17.5085C89.4151 16.7372 89.9308 16.1364 90.5913 15.706C91.256 15.2713 92.0316 15.054 92.918 15.054C93.4293 15.054 93.9343 15.1392 94.4329 15.3097C94.9315 15.4801 95.3853 15.7571 95.7944 16.1406C96.2035 16.5199 96.5295 17.0227 96.7724 17.6491C97.0153 18.2756 97.1367 19.0469 97.1367 19.9631V20.6023H89.5685V19.2983H95.6026C95.6026 18.7443 95.4918 18.25 95.2702 17.8153C95.0529 17.3807 94.7418 17.0376 94.337 16.7862C93.9364 16.5348 93.4634 16.4091 92.918 16.4091C92.3171 16.4091 91.7972 16.5582 91.3583 16.8565C90.9237 17.1506 90.5891 17.5341 90.3548 18.0071C90.1204 18.4801 90.0032 18.9872 90.0032 19.5284V20.3977C90.0032 21.1392 90.131 21.7678 90.3867 22.2834C90.6467 22.7947 91.0067 23.1847 91.467 23.4531C91.9272 23.7173 92.462 23.8494 93.0714 23.8494C93.4677 23.8494 93.8256 23.794 94.1452 23.6832C94.4691 23.5682 94.7482 23.3977 94.9826 23.1719C95.217 22.9418 95.3981 22.6562 95.5259 22.3153L96.9833 22.7244C96.8299 23.2188 96.5721 23.6534 96.2099 24.0284C95.8477 24.3991 95.4002 24.6889 94.8675 24.8977C94.3349 25.1023 93.7362 25.2045 93.0714 25.2045Z" fill="#222222"/>
</svg>
