<svg width="304" height="225" viewBox="0 0 304 225" fill="none" xmlns="http://www.w3.org/2000/svg">
<path d="M304 223.5H0V224.5H304V223.5Z" fill="#E6E6E6"/>
<path d="M16.768 28V19.624H19.42C20.044 19.624 20.6 19.724 21.088 19.924C21.584 20.116 22.004 20.396 22.348 20.764C22.692 21.124 22.956 21.56 23.14 22.072C23.324 22.584 23.416 23.156 23.416 23.788C23.416 24.428 23.324 25.008 23.14 25.528C22.956 26.04 22.692 26.484 22.348 26.86C22.004 27.228 21.584 27.512 21.088 27.712C20.6 27.904 20.044 28 19.42 28H16.768ZM18.268 26.74H19.42C19.932 26.74 20.368 26.62 20.728 26.38C21.088 26.132 21.364 25.788 21.556 25.348C21.756 24.9 21.856 24.38 21.856 23.788C21.856 23.196 21.756 22.684 21.556 22.252C21.364 21.812 21.088 21.476 20.728 21.244C20.368 21.004 19.932 20.884 19.42 20.884H18.268V26.74ZM27.7767 28.144C27.0807 28.144 26.4807 28.008 25.9767 27.736C25.4727 27.456 25.0847 27.056 24.8127 26.536C24.5487 26.016 24.4167 25.396 24.4167 24.676C24.4167 23.956 24.5527 23.34 24.8247 22.828C25.0967 22.308 25.4887 21.912 26.0007 21.64C26.5127 21.368 27.1247 21.232 27.8367 21.232C28.9407 21.232 29.7527 21.54 30.2727 22.156C30.8007 22.772 31.0287 23.616 30.9567 24.688H25.5567L25.5687 23.644L29.4927 23.656C29.4607 23.272 29.2927 22.964 28.9887 22.732C28.6847 22.5 28.3007 22.384 27.8367 22.384C27.1807 22.384 26.6847 22.588 26.3487 22.996C26.0127 23.404 25.8447 23.984 25.8447 24.736C25.8447 25.168 25.9207 25.556 26.0727 25.9C26.2247 26.236 26.4407 26.5 26.7207 26.692C27.0087 26.876 27.3607 26.968 27.7767 26.968C28.2487 26.968 28.6407 26.856 28.9527 26.632C29.2727 26.408 29.4687 26.108 29.5407 25.732H30.9807C30.8847 26.476 30.5487 27.064 29.9727 27.496C29.4047 27.928 28.6727 28.144 27.7767 28.144ZM34.7894 28V19.156H36.2294V28H34.7894ZM32.4494 28V26.836H38.5934V28H32.4494ZM33.3134 20.32V19.156H35.5094V20.32H33.3134ZM42.6421 28V21.376H44.0701V28H42.6421ZM40.3021 28V26.836H46.3141V28H40.3021ZM41.1541 22.54V21.376H43.3501V22.54H41.1541ZM42.5581 20.332V18.868H44.1181V20.332H42.5581ZM50.3027 28L47.7948 21.376H49.2948L50.6868 25.156L51.1308 26.716L51.5988 25.156L52.9788 21.376H54.4308L51.9348 28H50.3027ZM58.9954 28.144C58.2994 28.144 57.6994 28.008 57.1954 27.736C56.6914 27.456 56.3034 27.056 56.0314 26.536C55.7674 26.016 55.6354 25.396 55.6354 24.676C55.6354 23.956 55.7714 23.34 56.0434 22.828C56.3154 22.308 56.7074 21.912 57.2194 21.64C57.7314 21.368 58.3434 21.232 59.0554 21.232C60.1594 21.232 60.9714 21.54 61.4914 22.156C62.0194 22.772 62.2474 23.616 62.1754 24.688H56.7754L56.7874 23.644L60.7114 23.656C60.6794 23.272 60.5114 22.964 60.2074 22.732C59.9034 22.5 59.5194 22.384 59.0554 22.384C58.3994 22.384 57.9034 22.588 57.5674 22.996C57.2314 23.404 57.0634 23.984 57.0634 24.736C57.0634 25.168 57.1394 25.556 57.2914 25.9C57.4434 26.236 57.6594 26.5 57.9394 26.692C58.2274 26.876 58.5794 26.968 58.9954 26.968C59.4674 26.968 59.8594 26.856 60.1714 26.632C60.4914 26.408 60.6874 26.108 60.7594 25.732H62.1994C62.1034 26.476 61.7674 27.064 61.1914 27.496C60.6234 27.928 59.8914 28.144 58.9954 28.144ZM68.4081 24.376V23.548C68.4081 23.22 68.3081 22.956 68.1081 22.756C67.9161 22.548 67.6361 22.444 67.2681 22.444C66.8201 22.444 66.4121 22.608 66.0441 22.936C65.6761 23.264 65.3681 23.78 65.1201 24.484L64.9401 23.14C65.1241 22.724 65.3401 22.376 65.5881 22.096C65.8441 21.808 66.1321 21.592 66.4521 21.448C66.7801 21.304 67.1361 21.232 67.5201 21.232C68.2001 21.232 68.7561 21.432 69.1881 21.832C69.6201 22.232 69.8361 22.804 69.8361 23.548V24.376H68.4081ZM63.9441 28V21.376H65.3001L65.3721 22.78V28H63.9441ZM73.9208 24.328L74.5328 25.996L75.1568 24.316L76.4048 21.376H77.8688L74.8448 28.516C74.6608 28.964 74.4528 29.316 74.2208 29.572C73.9968 29.828 73.7408 30.008 73.4528 30.112C73.1648 30.224 72.8328 30.28 72.4568 30.28H71.2688V29.116H72.3368C72.5528 29.116 72.7328 29.068 72.8768 28.972C73.0288 28.884 73.1648 28.748 73.2848 28.564C73.4048 28.388 73.5208 28.168 73.6328 27.904L73.8008 27.52L71.1968 21.376H72.6848L73.9208 24.328ZM91.7262 28L91.6662 26.596V23.62C91.6662 23.204 91.5262 22.876 91.2462 22.636C90.9662 22.396 90.5782 22.276 90.0822 22.276C89.6102 22.276 89.2222 22.384 88.9182 22.6C88.6222 22.816 88.4542 23.112 88.4142 23.488H87.0222C87.0622 23.016 87.2142 22.612 87.4782 22.276C87.7502 21.94 88.1102 21.684 88.5582 21.508C89.0142 21.324 89.5382 21.232 90.1302 21.232C90.7382 21.232 91.2622 21.328 91.7022 21.52C92.1502 21.712 92.4942 21.992 92.7342 22.36C92.9742 22.728 93.0942 23.176 93.0942 23.704V28H91.7262ZM89.4222 28.144C88.9902 28.144 88.6062 28.064 88.2702 27.904C87.9422 27.744 87.6862 27.516 87.5022 27.22C87.3182 26.924 87.2262 26.58 87.2262 26.188C87.2262 25.508 87.4902 24.98 88.0182 24.604C88.5462 24.22 89.2782 24.028 90.2142 24.028H91.8342V25.06L90.1662 25.072C89.6862 25.072 89.3102 25.164 89.0382 25.348C88.7662 25.524 88.6302 25.78 88.6302 26.116C88.6302 26.38 88.7262 26.592 88.9182 26.752C89.1182 26.912 89.3902 26.992 89.7342 26.992C90.1742 26.992 90.5662 26.876 90.9102 26.644C91.2622 26.404 91.5462 26.076 91.7622 25.66L91.9182 26.668C91.7102 27.156 91.3942 27.524 90.9702 27.772C90.5462 28.02 90.0302 28.144 89.4222 28.144ZM99.6269 24.376V23.548C99.6269 23.22 99.5269 22.956 99.3269 22.756C99.1349 22.548 98.8549 22.444 98.4869 22.444C98.0389 22.444 97.6309 22.608 97.2629 22.936C96.8949 23.264 96.5869 23.78 96.3389 24.484L96.1589 23.14C96.3429 22.724 96.5589 22.376 96.8069 22.096C97.0629 21.808 97.3509 21.592 97.6709 21.448C97.9989 21.304 98.3549 21.232 98.7389 21.232C99.4189 21.232 99.9749 21.432 100.407 21.832C100.839 22.232 101.055 22.804 101.055 23.548V24.376H99.6269ZM95.1629 28V21.376H96.5189L96.5909 22.78V28H95.1629ZM105.824 28.144C105.128 28.144 104.528 28.008 104.024 27.736C103.52 27.456 103.132 27.056 102.86 26.536C102.596 26.016 102.464 25.396 102.464 24.676C102.464 23.956 102.6 23.34 102.872 22.828C103.144 22.308 103.536 21.912 104.048 21.64C104.56 21.368 105.172 21.232 105.884 21.232C106.988 21.232 107.8 21.54 108.32 22.156C108.848 22.772 109.076 23.616 109.004 24.688H103.604L103.616 23.644L107.54 23.656C107.508 23.272 107.34 22.964 107.036 22.732C106.732 22.5 106.348 22.384 105.884 22.384C105.228 22.384 104.732 22.588 104.396 22.996C104.06 23.404 103.892 23.984 103.892 24.736C103.892 25.168 103.968 25.556 104.12 25.9C104.272 26.236 104.488 26.5 104.768 26.692C105.056 26.876 105.408 26.968 105.824 26.968C106.296 26.968 106.688 26.856 107 26.632C107.32 26.408 107.516 26.108 107.588 25.732H109.028C108.932 26.476 108.596 27.064 108.02 27.496C107.452 27.928 106.72 28.144 105.824 28.144ZM115.14 28L115.08 26.596V23.62C115.08 23.204 114.94 22.876 114.66 22.636C114.38 22.396 113.992 22.276 113.496 22.276C113.024 22.276 112.636 22.384 112.332 22.6C112.036 22.816 111.868 23.112 111.828 23.488H110.436C110.476 23.016 110.628 22.612 110.892 22.276C111.164 21.94 111.524 21.684 111.972 21.508C112.428 21.324 112.952 21.232 113.544 21.232C114.152 21.232 114.676 21.328 115.116 21.52C115.564 21.712 115.908 21.992 116.148 22.36C116.388 22.728 116.508 23.176 116.508 23.704V28H115.14ZM112.836 28.144C112.404 28.144 112.02 28.064 111.684 27.904C111.356 27.744 111.1 27.516 110.916 27.22C110.732 26.924 110.64 26.58 110.64 26.188C110.64 25.508 110.904 24.98 111.432 24.604C111.96 24.22 112.692 24.028 113.628 24.028H115.248V25.06L113.58 25.072C113.1 25.072 112.724 25.164 112.452 25.348C112.18 25.524 112.044 25.78 112.044 26.116C112.044 26.38 112.14 26.592 112.332 26.752C112.532 26.912 112.804 26.992 113.148 26.992C113.588 26.992 113.98 26.876 114.324 26.644C114.676 26.404 114.96 26.076 115.176 25.66L115.332 26.668C115.124 27.156 114.808 27.524 114.384 27.772C113.96 28.02 113.444 28.144 112.836 28.144Z" fill="#222222"/>
<path d="M275.4 26.7019L274.692 25.9942L280 20.6865L285.308 25.9942L284.6 26.7019L280 22.1019L275.4 26.7019Z" fill="#222222"/>
<path d="M17.179 60.2273L19.3381 66.3494H19.4233L21.5824 60.2273H22.5057L19.8352 67.5H18.9261L16.2557 60.2273H17.179ZM25.304 67.6136C24.7784 67.6136 24.325 67.4976 23.9439 67.2656C23.5651 67.0312 23.2727 66.7045 23.0668 66.2855C22.8632 65.8641 22.7614 65.3741 22.7614 64.8153C22.7614 64.2566 22.8632 63.7642 23.0668 63.3381C23.2727 62.9096 23.5592 62.5758 23.9261 62.3366C24.2955 62.0952 24.7263 61.9744 25.2188 61.9744C25.5028 61.9744 25.7834 62.0218 26.0604 62.1165C26.3374 62.2112 26.5895 62.3651 26.8168 62.5781C27.044 62.7888 27.2251 63.0682 27.3601 63.4162C27.495 63.7642 27.5625 64.1927 27.5625 64.7017V65.0568H23.358V64.3324H26.7102C26.7102 64.0246 26.6487 63.75 26.5256 63.5085C26.4048 63.267 26.232 63.0765 26.0071 62.9368C25.7846 62.7971 25.5218 62.7273 25.2188 62.7273C24.8849 62.7273 24.5961 62.8101 24.3523 62.9759C24.1108 63.1392 23.925 63.3523 23.7947 63.6151C23.6645 63.8778 23.5994 64.1596 23.5994 64.4602V64.9432C23.5994 65.3551 23.6705 65.7043 23.8125 65.9908C23.9569 66.2749 24.157 66.4915 24.4126 66.6406C24.6683 66.7874 24.9654 66.8608 25.304 66.8608C25.5241 66.8608 25.723 66.83 25.9006 66.7685C26.0805 66.7045 26.2356 66.6098 26.3658 66.4844C26.496 66.3565 26.5966 66.1979 26.6676 66.0085L27.4773 66.2358C27.392 66.5104 27.2488 66.7519 27.0476 66.9602C26.8464 67.1662 26.5978 67.3272 26.3018 67.4432C26.0059 67.5568 25.6733 67.6136 25.304 67.6136ZM29.6754 64.2188V67.5H28.8374V60.2273H29.6754V62.8977H29.7464C29.8743 62.616 30.0661 62.3923 30.3217 62.2266C30.5798 62.0585 30.9231 61.9744 31.3516 61.9744C31.7232 61.9744 32.0488 62.049 32.3281 62.1982C32.6075 62.3449 32.8241 62.571 32.978 62.8764C33.1342 63.1795 33.2124 63.5653 33.2124 64.0341V67.5H32.3743V64.0909C32.3743 63.6577 32.2618 63.3227 32.0369 63.0859C31.8144 62.8468 31.5054 62.7273 31.1101 62.7273C30.8355 62.7273 30.5893 62.7853 30.3714 62.9013C30.156 63.0173 29.9856 63.1866 29.8601 63.4091C29.737 63.6316 29.6754 63.9015 29.6754 64.2188ZM34.7456 67.5V62.0455H35.5836V67.5H34.7456ZM35.1717 61.1364C35.0083 61.1364 34.8675 61.0807 34.7491 60.9695C34.6331 60.8582 34.5751 60.7244 34.5751 60.5682C34.5751 60.4119 34.6331 60.2782 34.7491 60.1669C34.8675 60.0556 35.0083 60 35.1717 60C35.335 60 35.4747 60.0556 35.5907 60.1669C35.7091 60.2782 35.7683 60.4119 35.7683 60.5682C35.7683 60.7244 35.7091 60.8582 35.5907 60.9695C35.4747 61.0807 35.335 61.1364 35.1717 61.1364ZM39.3345 67.6136C38.8232 67.6136 38.3828 67.4929 38.0135 67.2514C37.6442 67.0099 37.3601 66.6773 37.1612 66.2536C36.9624 65.8298 36.8629 65.3456 36.8629 64.8011C36.8629 64.2472 36.9647 63.7583 37.1683 63.3345C37.3743 62.9084 37.6607 62.5758 38.0277 62.3366C38.397 62.0952 38.8279 61.9744 39.3203 61.9744C39.7038 61.9744 40.0495 62.0455 40.3572 62.1875C40.665 62.3295 40.9171 62.5284 41.1136 62.7841C41.3101 63.0398 41.4321 63.3381 41.4794 63.679H40.6413C40.5774 63.4304 40.4354 63.2102 40.2152 63.0185C39.9974 62.8243 39.7038 62.7273 39.3345 62.7273C39.0078 62.7273 38.7214 62.8125 38.4751 62.983C38.2313 63.151 38.0407 63.389 37.9034 63.6967C37.7685 64.0021 37.701 64.3608 37.701 64.7727C37.701 65.1941 37.7673 65.5611 37.8999 65.8736C38.0348 66.1861 38.2242 66.4287 38.468 66.6016C38.7143 66.7744 39.0031 66.8608 39.3345 66.8608C39.5523 66.8608 39.75 66.8229 39.9276 66.7472C40.1051 66.6714 40.2554 66.5625 40.3786 66.4205C40.5017 66.2784 40.5893 66.108 40.6413 65.9091H41.4794C41.4321 66.2311 41.3149 66.5211 41.1278 66.7791C40.9432 67.0348 40.6982 67.2384 40.3928 67.3899C40.0897 67.5391 39.737 67.6136 39.3345 67.6136ZM43.5426 60.2273V67.5H42.7045V60.2273H43.5426ZM47.3645 67.6136C46.839 67.6136 46.3856 67.4976 46.0044 67.2656C45.6257 67.0312 45.3333 66.7045 45.1273 66.2855C44.9237 65.8641 44.8219 65.3741 44.8219 64.8153C44.8219 64.2566 44.9237 63.7642 45.1273 63.3381C45.3333 62.9096 45.6197 62.5758 45.9867 62.3366C46.356 62.0952 46.7869 61.9744 47.2793 61.9744C47.5634 61.9744 47.8439 62.0218 48.1209 62.1165C48.3979 62.2112 48.65 62.3651 48.8773 62.5781C49.1046 62.7888 49.2857 63.0682 49.4206 63.4162C49.5556 63.7642 49.623 64.1927 49.623 64.7017V65.0568H45.4185V64.3324H48.7708C48.7708 64.0246 48.7092 63.75 48.5861 63.5085C48.4654 63.267 48.2926 63.0765 48.0676 62.9368C47.8451 62.7971 47.5823 62.7273 47.2793 62.7273C46.9455 62.7273 46.6567 62.8101 46.4128 62.9759C46.1713 63.1392 45.9855 63.3523 45.8553 63.6151C45.7251 63.8778 45.66 64.1596 45.66 64.4602V64.9432C45.66 65.3551 45.731 65.7043 45.873 65.9908C46.0175 66.2749 46.2175 66.4915 46.4732 66.6406C46.7289 66.7874 47.026 66.8608 47.3645 66.8608C47.5847 66.8608 47.7836 66.83 47.9611 66.7685C48.141 66.7045 48.2961 66.6098 48.4263 66.4844C48.5565 66.3565 48.6571 66.1979 48.7282 66.0085L49.5378 66.2358C49.4526 66.5104 49.3094 66.7519 49.1081 66.9602C48.9069 67.1662 48.6583 67.3272 48.3624 67.4432C48.0665 67.5568 47.7338 67.6136 47.3645 67.6136Z" fill="#222222"/>
<path d="M145.179 67.5H144.256L146.926 60.2273H147.835L150.506 67.5H149.582L147.409 61.3778H147.352L145.179 67.5ZM145.52 64.6591H149.241V65.4403H145.52V64.6591ZM156.268 62.5C156.19 62.2609 156.087 62.0466 155.959 61.8572C155.834 61.6655 155.684 61.5021 155.508 61.3672C155.336 61.2322 155.139 61.1293 154.919 61.0582C154.699 60.9872 154.457 60.9517 154.194 60.9517C153.764 60.9517 153.372 61.063 153.019 61.2855C152.666 61.508 152.386 61.8359 152.177 62.2692C151.969 62.7024 151.865 63.2339 151.865 63.8636C151.865 64.4934 151.97 65.0249 152.181 65.4581C152.392 65.8913 152.677 66.2192 153.037 66.4418C153.397 66.6643 153.801 66.7756 154.251 66.7756C154.668 66.7756 155.035 66.6868 155.352 66.5092C155.672 66.3293 155.92 66.076 156.098 65.7493C156.278 65.4202 156.368 65.0331 156.368 64.5881L156.638 64.6449H154.45V63.8636H157.22V64.6449C157.22 65.2438 157.092 65.7647 156.836 66.2074C156.583 66.6501 156.233 66.9934 155.785 67.2372C155.34 67.4787 154.829 67.5994 154.251 67.5994C153.607 67.5994 153.041 67.4479 152.554 67.1449C152.068 66.8419 151.69 66.411 151.417 65.8523C151.148 65.2936 151.013 64.6307 151.013 63.8636C151.013 63.2884 151.09 62.7711 151.243 62.3118C151.4 61.8501 151.62 61.4571 151.904 61.1328C152.188 60.8085 152.524 60.5599 152.912 60.3871C153.301 60.2143 153.728 60.1278 154.194 60.1278C154.578 60.1278 154.935 60.1858 155.267 60.3018C155.601 60.4155 155.898 60.5777 156.158 60.7884C156.421 60.9967 156.64 61.2464 156.815 61.5376C156.99 61.8265 157.111 62.1473 157.177 62.5H156.268ZM158.728 67.5V60.2273H163.089V61.0085H159.609V63.4659H162.762V64.2472H159.609V67.5H158.728ZM167.906 67.5V68.2812H163.361V67.5H167.906ZM170.52 67.5994C170.032 67.5994 169.601 67.513 169.227 67.3402C168.856 67.165 168.566 66.9247 168.357 66.6193C168.149 66.3116 168.046 65.9612 168.048 65.5682C168.046 65.2604 168.106 64.9763 168.229 64.7159C168.353 64.4531 168.521 64.2341 168.734 64.0589C168.949 63.8814 169.189 63.7689 169.455 63.7216V63.679C169.107 63.589 168.83 63.3937 168.624 63.093C168.418 62.79 168.316 62.4455 168.318 62.0597C168.316 61.6903 168.409 61.3601 168.599 61.0689C168.788 60.7777 169.049 60.5481 169.38 60.38C169.714 60.2119 170.094 60.1278 170.52 60.1278C170.941 60.1278 171.318 60.2119 171.649 60.38C171.981 60.5481 172.241 60.7777 172.43 61.0689C172.622 61.3601 172.719 61.6903 172.722 62.0597C172.719 62.4455 172.614 62.79 172.406 63.093C172.2 63.3937 171.926 63.589 171.585 63.679V63.7216C171.848 63.7689 172.085 63.8814 172.295 64.0589C172.506 64.2341 172.674 64.4531 172.8 64.7159C172.925 64.9763 172.989 65.2604 172.991 65.5682C172.989 65.9612 172.883 66.3116 172.672 66.6193C172.464 66.9247 172.174 67.165 171.802 67.3402C171.433 67.513 171.005 67.5994 170.52 67.5994ZM170.52 66.8182C170.849 66.8182 171.133 66.7649 171.372 66.6584C171.611 66.5518 171.796 66.4015 171.926 66.2074C172.056 66.0133 172.123 65.786 172.125 65.5256C172.123 65.2509 172.052 65.0083 171.912 64.7976C171.772 64.5869 171.582 64.4212 171.34 64.3004C171.101 64.1797 170.828 64.1193 170.52 64.1193C170.21 64.1193 169.933 64.1797 169.689 64.3004C169.447 64.4212 169.257 64.5869 169.117 64.7976C168.98 65.0083 168.912 65.2509 168.915 65.5256C168.912 65.786 168.975 66.0133 169.103 66.2074C169.233 66.4015 169.419 66.5518 169.661 66.6584C169.902 66.7649 170.188 66.8182 170.52 66.8182ZM170.52 63.3665C170.78 63.3665 171.011 63.3144 171.212 63.2102C171.416 63.1061 171.576 62.9605 171.692 62.7734C171.808 62.5864 171.867 62.3674 171.869 62.1165C171.867 61.8703 171.809 61.656 171.695 61.4737C171.582 61.2891 171.424 61.147 171.223 61.0476C171.022 60.9458 170.787 60.8949 170.52 60.8949C170.248 60.8949 170.01 60.9458 169.806 61.0476C169.603 61.147 169.445 61.2891 169.334 61.4737C169.223 61.656 169.168 61.8703 169.17 62.1165C169.168 62.3674 169.224 62.5864 169.337 62.7734C169.453 62.9605 169.613 63.1061 169.817 63.2102C170.02 63.3144 170.255 63.3665 170.52 63.3665ZM174.779 67.5H173.855L176.526 60.2273H177.435L180.105 67.5H179.182L177.009 61.3778H176.952L174.779 67.5ZM175.119 64.6591H178.841V65.4403H175.119V64.6591ZM181.238 67.5V60.2273H185.599V61.0085H182.119V63.4659H185.272V64.2472H182.119V67.5H181.238ZM187.107 67.5V60.2273H189.65C190.156 60.2273 190.574 60.3149 190.903 60.4901C191.232 60.6629 191.478 60.8961 191.638 61.1896C191.799 61.4808 191.88 61.804 191.88 62.1591C191.88 62.4716 191.824 62.7296 191.713 62.9332C191.604 63.1368 191.46 63.2978 191.28 63.4162C191.102 63.5346 190.909 63.6222 190.701 63.679V63.75C190.924 63.7642 191.147 63.8423 191.372 63.9844C191.597 64.1264 191.785 64.33 191.937 64.5952C192.088 64.8603 192.164 65.1847 192.164 65.5682C192.164 65.9328 192.081 66.2607 191.915 66.5518C191.75 66.843 191.488 67.0739 191.131 67.2443C190.773 67.4148 190.308 67.5 189.735 67.5H187.107ZM187.988 66.7188H189.735C190.31 66.7188 190.719 66.6075 190.96 66.3849C191.204 66.16 191.326 65.8878 191.326 65.5682C191.326 65.322 191.263 65.0947 191.138 64.8864C191.012 64.6757 190.834 64.5076 190.602 64.3821C190.37 64.2543 190.095 64.1903 189.778 64.1903H187.988V66.7188ZM187.988 63.4233H189.621C189.887 63.4233 190.126 63.3712 190.339 63.267C190.554 63.1629 190.725 63.0161 190.85 62.8267C190.978 62.6373 191.042 62.4148 191.042 62.1591C191.042 61.8395 190.931 61.5684 190.708 61.3459C190.486 61.121 190.133 61.0085 189.65 61.0085H187.988V63.4233ZM193.611 67.5V60.2273H196.069C196.637 60.2273 197.103 60.3243 197.468 60.5185C197.832 60.7102 198.102 60.9742 198.277 61.3104C198.453 61.6465 198.54 62.0289 198.54 62.4574C198.54 62.8859 198.453 63.2659 198.277 63.5973C198.102 63.9287 197.833 64.1892 197.471 64.3786C197.109 64.5656 196.646 64.6591 196.083 64.6591H194.094V63.8636H196.054C196.443 63.8636 196.755 63.8068 196.992 63.6932C197.231 63.5795 197.404 63.4186 197.51 63.2102C197.619 62.9995 197.674 62.7486 197.674 62.4574C197.674 62.1662 197.619 61.9117 197.51 61.6939C197.401 61.4761 197.227 61.308 196.988 61.1896C196.749 61.0689 196.433 61.0085 196.04 61.0085H194.492V67.5H193.611ZM197.034 64.233L198.824 67.5H197.801L196.04 64.233H197.034ZM202.337 67.5994C201.868 67.5994 201.451 67.5189 201.084 67.358C200.719 67.197 200.429 66.9732 200.214 66.6868C200.001 66.398 199.885 66.063 199.866 65.6818H200.76C200.779 65.9162 200.86 66.1186 201.002 66.2891C201.144 66.4571 201.33 66.5874 201.559 66.6797C201.789 66.772 202.044 66.8182 202.323 66.8182C202.635 66.8182 202.912 66.7637 203.154 66.6548C203.395 66.5459 203.585 66.3944 203.722 66.2003C203.859 66.0062 203.928 65.7812 203.928 65.5256C203.928 65.258 203.862 65.0225 203.729 64.8189C203.597 64.6129 203.403 64.4519 203.147 64.3359C202.891 64.2199 202.579 64.1619 202.209 64.1619H201.627V63.3807H202.209C202.498 63.3807 202.751 63.3286 202.969 63.2244C203.189 63.1203 203.361 62.9735 203.484 62.7841C203.61 62.5947 203.672 62.3722 203.672 62.1165C203.672 61.8703 203.618 61.656 203.509 61.4737C203.4 61.2914 203.246 61.1494 203.047 61.0476C202.851 60.9458 202.619 60.8949 202.351 60.8949C202.1 60.8949 201.864 60.9411 201.641 61.0334C201.421 61.1233 201.241 61.2547 201.101 61.4276C200.962 61.598 200.886 61.804 200.874 62.0455H200.022C200.036 61.6643 200.151 61.3305 200.366 61.044C200.582 60.7552 200.863 60.5303 201.211 60.3693C201.562 60.2083 201.947 60.1278 202.366 60.1278C202.815 60.1278 203.201 60.219 203.523 60.4013C203.845 60.5812 204.093 60.8191 204.265 61.1151C204.438 61.411 204.525 61.7306 204.525 62.0739C204.525 62.4834 204.417 62.8326 204.202 63.1214C203.988 63.4103 203.698 63.6103 203.331 63.7216V63.7784C203.791 63.8542 204.149 64.0495 204.407 64.3643C204.666 64.6768 204.795 65.0639 204.795 65.5256C204.795 65.9209 204.687 66.276 204.471 66.5909C204.258 66.9034 203.967 67.1496 203.598 67.3295C203.229 67.5095 202.808 67.5994 202.337 67.5994ZM208.619 67.5994C208.084 67.5994 207.628 67.4538 207.252 67.1626C206.876 66.8691 206.588 66.4441 206.389 65.8878C206.19 65.3291 206.091 64.6544 206.091 63.8636C206.091 63.0777 206.19 62.4065 206.389 61.8501C206.59 61.2914 206.879 60.8653 207.256 60.5717C207.634 60.2758 208.089 60.1278 208.619 60.1278C209.149 60.1278 209.603 60.2758 209.979 60.5717C210.358 60.8653 210.647 61.2914 210.846 61.8501C211.047 62.4065 211.148 63.0777 211.148 63.8636C211.148 64.6544 211.048 65.3291 210.849 65.8878C210.65 66.4441 210.363 66.8691 209.986 67.1626C209.61 67.4538 209.154 67.5994 208.619 67.5994ZM208.619 66.8182C209.149 66.8182 209.561 66.5625 209.855 66.0511C210.148 65.5398 210.295 64.8106 210.295 63.8636C210.295 63.2339 210.228 62.6977 210.093 62.255C209.96 61.8123 209.769 61.4749 209.518 61.2429C209.269 61.0109 208.97 60.8949 208.619 60.8949C208.094 60.8949 207.683 61.1541 207.387 61.6726C207.091 62.1887 206.943 62.919 206.943 63.8636C206.943 64.4934 207.009 65.0284 207.142 65.4688C207.274 65.9091 207.465 66.2441 207.714 66.4737C207.965 66.7034 208.266 66.8182 208.619 66.8182Z" fill="#222222"/>
<path d="M221 65.8013L217.461 62.2628L217.933 61.791L221 64.8577L224.067 61.791L224.538 62.2628L221 65.8013Z" fill="#D9D9D9"/>
<path d="M22.733 94.5H21.8523C21.8002 94.2467 21.709 94.0241 21.5788 93.8324C21.451 93.6406 21.2947 93.4796 21.1101 93.3494C20.9278 93.2169 20.7254 93.1174 20.5028 93.0511C20.2803 92.9848 20.0483 92.9517 19.8068 92.9517C19.3665 92.9517 18.9676 93.063 18.6101 93.2855C18.255 93.508 17.9721 93.8359 17.7614 94.2692C17.553 94.7024 17.4489 95.2339 17.4489 95.8636C17.4489 96.4934 17.553 97.0249 17.7614 97.4581C17.9721 97.8913 18.255 98.2192 18.6101 98.4418C18.9676 98.6643 19.3665 98.7756 19.8068 98.7756C20.0483 98.7756 20.2803 98.7424 20.5028 98.6761C20.7254 98.6098 20.9278 98.5116 21.1101 98.3814C21.2947 98.2488 21.451 98.0866 21.5788 97.8949C21.709 97.7008 21.8002 97.4782 21.8523 97.2273H22.733C22.6667 97.599 22.5459 97.9316 22.3707 98.2251C22.1955 98.5187 21.9777 98.7685 21.7173 98.9744C21.4569 99.178 21.1645 99.3331 20.8402 99.4396C20.5182 99.5462 20.1738 99.5994 19.8068 99.5994C19.1866 99.5994 18.6349 99.4479 18.152 99.1449C17.669 98.8419 17.2891 98.411 17.0121 97.8523C16.7351 97.2936 16.5966 96.6307 16.5966 95.8636C16.5966 95.0966 16.7351 94.4337 17.0121 93.875C17.2891 93.3163 17.669 92.8854 18.152 92.5824C18.6349 92.2794 19.1866 92.1278 19.8068 92.1278C20.1738 92.1278 20.5182 92.1811 20.8402 92.2876C21.1645 92.3942 21.4569 92.5504 21.7173 92.7564C21.9777 92.96 22.1955 93.2086 22.3707 93.5021C22.5459 93.7933 22.6667 94.1259 22.733 94.5ZM25.6475 99.6278C25.3019 99.6278 24.9882 99.5627 24.7065 99.4325C24.4248 99.3 24.2011 99.1094 24.0353 98.8608C23.8696 98.6098 23.7868 98.3068 23.7868 97.9517C23.7868 97.6392 23.8483 97.3859 23.9714 97.1918C24.0945 96.9953 24.2591 96.8414 24.465 96.7301C24.671 96.6188 24.8983 96.536 25.1468 96.4815C25.3978 96.4247 25.6499 96.3797 25.9032 96.3466C26.2347 96.304 26.5034 96.272 26.7093 96.2507C26.9177 96.227 27.0692 96.188 27.1639 96.1335C27.2609 96.0791 27.3095 95.9844 27.3095 95.8494V95.821C27.3095 95.4706 27.2136 95.1984 27.0218 95.0043C26.8324 94.8101 26.5448 94.7131 26.1589 94.7131C25.7588 94.7131 25.4451 94.8007 25.2179 94.9759C24.9906 95.151 24.8308 95.3381 24.7385 95.5369L23.943 95.2528C24.085 94.9214 24.2744 94.6634 24.5112 94.4787C24.7503 94.2917 25.0107 94.1615 25.2924 94.0881C25.5765 94.0123 25.8559 93.9744 26.1305 93.9744C26.3057 93.9744 26.5069 93.9957 26.7342 94.0384C26.9638 94.0786 27.1852 94.1626 27.3983 94.2905C27.6137 94.4183 27.7924 94.6113 27.9345 94.8693C28.0765 95.1274 28.1475 95.473 28.1475 95.9062V99.5H27.3095V98.7614H27.2669C27.21 98.8797 27.1154 99.0064 26.9828 99.1413C26.8502 99.2763 26.6738 99.3911 26.4537 99.4858C26.2335 99.5805 25.9648 99.6278 25.6475 99.6278ZM25.7754 98.875C26.1068 98.875 26.3862 98.8099 26.6135 98.6797C26.8431 98.5495 27.0159 98.3814 27.1319 98.1754C27.2503 97.9695 27.3095 97.7528 27.3095 97.5256V96.7585C27.274 96.8011 27.1958 96.8402 27.0751 96.8757C26.9567 96.9089 26.8194 96.9384 26.6632 96.9645C26.5093 96.9882 26.359 97.0095 26.2122 97.0284C26.0678 97.045 25.9506 97.0592 25.8606 97.071C25.6428 97.0994 25.4392 97.1456 25.2498 97.2095C25.0628 97.2711 24.9113 97.3646 24.7953 97.4901C24.6816 97.6132 24.6248 97.7812 24.6248 97.9943C24.6248 98.2855 24.7325 98.5057 24.948 98.6548C25.1658 98.8016 25.4416 98.875 25.7754 98.875ZM29.6772 99.5V94.0455H30.4869V94.8693H30.5437C30.6431 94.5994 30.823 94.3804 31.0835 94.2124C31.3439 94.0443 31.6374 93.9602 31.9641 93.9602C32.0257 93.9602 32.1026 93.9614 32.195 93.9638C32.2873 93.9661 32.3571 93.9697 32.4045 93.9744V94.8267C32.3761 94.8196 32.311 94.8089 32.2092 94.7947C32.1097 94.7782 32.0044 94.7699 31.8931 94.7699C31.628 94.7699 31.3912 94.8255 31.1829 94.9368C30.9769 95.0457 30.8136 95.1972 30.6928 95.3913C30.5745 95.5831 30.5153 95.8021 30.5153 96.0483V99.5H29.6772ZM33.3979 99.5V94.0455H34.2076V94.8693H34.2644C34.3638 94.5994 34.5437 94.3804 34.8042 94.2124C35.0646 94.0443 35.3581 93.9602 35.6848 93.9602C35.7464 93.9602 35.8233 93.9614 35.9157 93.9638C36.008 93.9661 36.0778 93.9697 36.1252 93.9744V94.8267C36.0968 94.8196 36.0317 94.8089 35.9299 94.7947C35.8304 94.7782 35.7251 94.7699 35.6138 94.7699C35.3487 94.7699 35.1119 94.8255 34.9036 94.9368C34.6976 95.0457 34.5343 95.1972 34.4135 95.3913C34.2952 95.5831 34.236 95.8021 34.236 96.0483V99.5H33.3979ZM37.1186 99.5V94.0455H37.9567V99.5H37.1186ZM37.5447 93.1364C37.3814 93.1364 37.2405 93.0807 37.1222 92.9695C37.0062 92.8582 36.9482 92.7244 36.9482 92.5682C36.9482 92.4119 37.0062 92.2782 37.1222 92.1669C37.2405 92.0556 37.3814 92 37.5447 92C37.7081 92 37.8478 92.0556 37.9638 92.1669C38.0821 92.2782 38.1413 92.4119 38.1413 92.5682C38.1413 92.7244 38.0821 92.8582 37.9638 92.9695C37.8478 93.0807 37.7081 93.1364 37.5447 93.1364ZM41.7786 99.6136C41.253 99.6136 40.7997 99.4976 40.4185 99.2656C40.0397 99.0312 39.7473 98.7045 39.5414 98.2855C39.3378 97.8641 39.236 97.3741 39.236 96.8153C39.236 96.2566 39.3378 95.7642 39.5414 95.3381C39.7473 94.9096 40.0338 94.5758 40.4007 94.3366C40.7701 94.0952 41.2009 93.9744 41.6934 93.9744C41.9775 93.9744 42.258 94.0218 42.535 94.1165C42.812 94.2112 43.0641 94.3651 43.2914 94.5781C43.5186 94.7888 43.6998 95.0682 43.8347 95.4162C43.9696 95.7642 44.0371 96.1927 44.0371 96.7017V97.0568H39.8326V96.3324H43.1848C43.1848 96.0246 43.1233 95.75 43.0002 95.5085C42.8794 95.267 42.7066 95.0765 42.4817 94.9368C42.2592 94.7971 41.9964 94.7273 41.6934 94.7273C41.3596 94.7273 41.0707 94.8101 40.8269 94.9759C40.5854 95.1392 40.3996 95.3523 40.2694 95.6151C40.1391 95.8778 40.074 96.1596 40.074 96.4602V96.9432C40.074 97.3551 40.1451 97.7043 40.2871 97.9908C40.4315 98.2749 40.6316 98.4915 40.8873 98.6406C41.1429 98.7874 41.44 98.8608 41.7786 98.8608C41.9988 98.8608 42.1976 98.83 42.3752 98.7685C42.5551 98.7045 42.7102 98.6098 42.8404 98.4844C42.9706 98.3565 43.0712 98.1979 43.1422 98.0085L43.9519 98.2358C43.8667 98.5104 43.7234 98.7519 43.5222 98.9602C43.321 99.1662 43.0724 99.3272 42.7765 99.4432C42.4805 99.5568 42.1479 99.6136 41.7786 99.6136ZM45.312 99.5V94.0455H46.1216V94.8693H46.1784C46.2779 94.5994 46.4578 94.3804 46.7182 94.2124C46.9786 94.0443 47.2722 93.9602 47.5989 93.9602C47.6605 93.9602 47.7374 93.9614 47.8297 93.9638C47.9221 93.9661 47.9919 93.9697 48.0392 93.9744V94.8267C48.0108 94.8196 47.9457 94.8089 47.8439 94.7947C47.7445 94.7782 47.6391 94.7699 47.5279 94.7699C47.2627 94.7699 47.026 94.8255 46.8176 94.9368C46.6117 95.0457 46.4483 95.1972 46.3276 95.3913C46.2092 95.5831 46.15 95.8021 46.15 96.0483V99.5H45.312Z" fill="#222222"/>
<path d="M144.881 99.5V92.2273H149.27V93.0085H145.761V95.4659H149.043V96.2472H145.761V98.7188H149.327V99.5H144.881ZM150.857 99.5V92.2273H153.315C153.885 92.2273 154.352 92.3303 154.714 92.5362C155.078 92.7398 155.348 93.0156 155.523 93.3636C155.699 93.7116 155.786 94.0999 155.786 94.5284C155.786 94.9569 155.699 95.3464 155.523 95.6967C155.351 96.0471 155.083 96.3265 154.721 96.5348C154.359 96.7408 153.895 96.8438 153.329 96.8438H151.567V96.0625H153.3C153.691 96.0625 154.005 95.995 154.241 95.8601C154.478 95.7251 154.65 95.5429 154.756 95.3132C154.865 95.0812 154.92 94.8196 154.92 94.5284C154.92 94.2372 154.865 93.9768 154.756 93.7472C154.65 93.5175 154.477 93.3376 154.238 93.2074C153.999 93.0748 153.682 93.0085 153.286 93.0085H151.738V99.5H150.857ZM156.761 99.5H155.838L158.508 92.2273H159.417L162.088 99.5H161.164L158.991 93.3778H158.934L156.761 99.5ZM157.102 96.6591H160.824V97.4403H157.102V96.6591ZM163.221 99.5V92.2273H164.101V98.7188H167.482V99.5H163.221ZM172.496 99.5V100.281H167.951V99.5H172.496ZM174.712 92.2273V99.5H173.831V93.1506H173.789L172.013 94.3295V93.4347L173.831 92.2273H174.712Z" fill="#222222"/>
<path d="M186 97.8013L182.461 94.2628L182.933 93.791L186 96.8577L189.067 93.791L189.538 94.2628L186 97.8013Z" fill="#D9D9D9"/>
<path d="M22.733 126.5H21.8523C21.8002 126.247 21.709 126.024 21.5788 125.832C21.451 125.641 21.2947 125.48 21.1101 125.349C20.9278 125.217 20.7254 125.117 20.5028 125.051C20.2803 124.985 20.0483 124.952 19.8068 124.952C19.3665 124.952 18.9676 125.063 18.6101 125.286C18.255 125.508 17.9721 125.836 17.7614 126.269C17.553 126.702 17.4489 127.234 17.4489 127.864C17.4489 128.493 17.553 129.025 17.7614 129.458C17.9721 129.891 18.255 130.219 18.6101 130.442C18.9676 130.664 19.3665 130.776 19.8068 130.776C20.0483 130.776 20.2803 130.742 20.5028 130.676C20.7254 130.61 20.9278 130.512 21.1101 130.381C21.2947 130.249 21.451 130.087 21.5788 129.895C21.709 129.701 21.8002 129.478 21.8523 129.227H22.733C22.6667 129.599 22.5459 129.932 22.3707 130.225C22.1955 130.519 21.9777 130.768 21.7173 130.974C21.4569 131.178 21.1645 131.333 20.8402 131.44C20.5182 131.546 20.1738 131.599 19.8068 131.599C19.1866 131.599 18.6349 131.448 18.152 131.145C17.669 130.842 17.2891 130.411 17.0121 129.852C16.7351 129.294 16.5966 128.631 16.5966 127.864C16.5966 127.097 16.7351 126.434 17.0121 125.875C17.2891 125.316 17.669 124.885 18.152 124.582C18.6349 124.279 19.1866 124.128 19.8068 124.128C20.1738 124.128 20.5182 124.181 20.8402 124.288C21.1645 124.394 21.4569 124.55 21.7173 124.756C21.9777 124.96 22.1955 125.209 22.3707 125.502C22.5459 125.793 22.6667 126.126 22.733 126.5ZM25.6475 131.628C25.3019 131.628 24.9882 131.563 24.7065 131.433C24.4248 131.3 24.2011 131.109 24.0353 130.861C23.8696 130.61 23.7868 130.307 23.7868 129.952C23.7868 129.639 23.8483 129.386 23.9714 129.192C24.0945 128.995 24.2591 128.841 24.465 128.73C24.671 128.619 24.8983 128.536 25.1468 128.482C25.3978 128.425 25.6499 128.38 25.9032 128.347C26.2347 128.304 26.5034 128.272 26.7093 128.251C26.9177 128.227 27.0692 128.188 27.1639 128.134C27.2609 128.079 27.3095 127.984 27.3095 127.849V127.821C27.3095 127.471 27.2136 127.198 27.0218 127.004C26.8324 126.81 26.5448 126.713 26.1589 126.713C25.7588 126.713 25.4451 126.801 25.2179 126.976C24.9906 127.151 24.8308 127.338 24.7385 127.537L23.943 127.253C24.085 126.921 24.2744 126.663 24.5112 126.479C24.7503 126.292 25.0107 126.161 25.2924 126.088C25.5765 126.012 25.8559 125.974 26.1305 125.974C26.3057 125.974 26.5069 125.996 26.7342 126.038C26.9638 126.079 27.1852 126.163 27.3983 126.29C27.6137 126.418 27.7924 126.611 27.9345 126.869C28.0765 127.127 28.1475 127.473 28.1475 127.906V131.5H27.3095V130.761H27.2669C27.21 130.88 27.1154 131.006 26.9828 131.141C26.8502 131.276 26.6738 131.391 26.4537 131.486C26.2335 131.58 25.9648 131.628 25.6475 131.628ZM25.7754 130.875C26.1068 130.875 26.3862 130.81 26.6135 130.68C26.8431 130.549 27.0159 130.381 27.1319 130.175C27.2503 129.969 27.3095 129.753 27.3095 129.526V128.759C27.274 128.801 27.1958 128.84 27.0751 128.876C26.9567 128.909 26.8194 128.938 26.6632 128.964C26.5093 128.988 26.359 129.009 26.2122 129.028C26.0678 129.045 25.9506 129.059 25.8606 129.071C25.6428 129.099 25.4392 129.146 25.2498 129.21C25.0628 129.271 24.9113 129.365 24.7953 129.49C24.6816 129.613 24.6248 129.781 24.6248 129.994C24.6248 130.286 24.7325 130.506 24.948 130.655C25.1658 130.802 25.4416 130.875 25.7754 130.875ZM29.6772 131.5V126.045H30.4869V126.869H30.5437C30.6431 126.599 30.823 126.38 31.0835 126.212C31.3439 126.044 31.6374 125.96 31.9641 125.96C32.0257 125.96 32.1026 125.961 32.195 125.964C32.2873 125.966 32.3571 125.97 32.4045 125.974V126.827C32.3761 126.82 32.311 126.809 32.2092 126.795C32.1097 126.778 32.0044 126.77 31.8931 126.77C31.628 126.77 31.3912 126.826 31.1829 126.937C30.9769 127.046 30.8136 127.197 30.6928 127.391C30.5745 127.583 30.5153 127.802 30.5153 128.048V131.5H29.6772ZM33.3979 131.5V126.045H34.2076V126.869H34.2644C34.3638 126.599 34.5437 126.38 34.8042 126.212C35.0646 126.044 35.3581 125.96 35.6848 125.96C35.7464 125.96 35.8233 125.961 35.9157 125.964C36.008 125.966 36.0778 125.97 36.1252 125.974V126.827C36.0968 126.82 36.0317 126.809 35.9299 126.795C35.8304 126.778 35.7251 126.77 35.6138 126.77C35.3487 126.77 35.1119 126.826 34.9036 126.937C34.6976 127.046 34.5343 127.197 34.4135 127.391C34.2952 127.583 34.236 127.802 34.236 128.048V131.5H33.3979ZM37.1186 131.5V126.045H37.9567V131.5H37.1186ZM37.5447 125.136C37.3814 125.136 37.2405 125.081 37.1222 124.969C37.0062 124.858 36.9482 124.724 36.9482 124.568C36.9482 124.412 37.0062 124.278 37.1222 124.167C37.2405 124.056 37.3814 124 37.5447 124C37.7081 124 37.8478 124.056 37.9638 124.167C38.0821 124.278 38.1413 124.412 38.1413 124.568C38.1413 124.724 38.0821 124.858 37.9638 124.969C37.8478 125.081 37.7081 125.136 37.5447 125.136ZM41.7786 131.614C41.253 131.614 40.7997 131.498 40.4185 131.266C40.0397 131.031 39.7473 130.705 39.5414 130.286C39.3378 129.864 39.236 129.374 39.236 128.815C39.236 128.257 39.3378 127.764 39.5414 127.338C39.7473 126.91 40.0338 126.576 40.4007 126.337C40.7701 126.095 41.2009 125.974 41.6934 125.974C41.9775 125.974 42.258 126.022 42.535 126.116C42.812 126.211 43.0641 126.365 43.2914 126.578C43.5186 126.789 43.6998 127.068 43.8347 127.416C43.9696 127.764 44.0371 128.193 44.0371 128.702V129.057H39.8326V128.332H43.1848C43.1848 128.025 43.1233 127.75 43.0002 127.509C42.8794 127.267 42.7066 127.076 42.4817 126.937C42.2592 126.797 41.9964 126.727 41.6934 126.727C41.3596 126.727 41.0707 126.81 40.8269 126.976C40.5854 127.139 40.3996 127.352 40.2694 127.615C40.1391 127.878 40.074 128.16 40.074 128.46V128.943C40.074 129.355 40.1451 129.704 40.2871 129.991C40.4315 130.275 40.6316 130.491 40.8873 130.641C41.1429 130.787 41.44 130.861 41.7786 130.861C41.9988 130.861 42.1976 130.83 42.3752 130.768C42.5551 130.705 42.7102 130.61 42.8404 130.484C42.9706 130.357 43.0712 130.198 43.1422 130.009L43.9519 130.236C43.8667 130.51 43.7234 130.752 43.5222 130.96C43.321 131.166 43.0724 131.327 42.7765 131.443C42.4805 131.557 42.1479 131.614 41.7786 131.614ZM45.312 131.5V126.045H46.1216V126.869H46.1784C46.2779 126.599 46.4578 126.38 46.7182 126.212C46.9786 126.044 47.2722 125.96 47.5989 125.96C47.6605 125.96 47.7374 125.961 47.8297 125.964C47.9221 125.966 47.9919 125.97 48.0392 125.974V126.827C48.0108 126.82 47.9457 126.809 47.8439 126.795C47.7445 126.778 47.6391 126.77 47.5279 126.77C47.2627 126.77 47.026 126.826 46.8176 126.937C46.6117 127.046 46.4483 127.197 46.3276 127.391C46.2092 127.583 46.15 127.802 46.15 128.048V131.5H45.312ZM55.7088 127.267L54.956 127.48C54.9086 127.355 54.8388 127.233 54.7464 127.114C54.6565 126.994 54.5334 126.894 54.3771 126.816C54.2209 126.738 54.0208 126.699 53.777 126.699C53.4432 126.699 53.165 126.776 52.9425 126.93C52.7223 127.081 52.6122 127.274 52.6122 127.509C52.6122 127.717 52.688 127.881 52.8395 128.002C52.991 128.123 53.2277 128.223 53.5497 128.304L54.3594 128.503C54.8471 128.621 55.2105 128.802 55.4496 129.046C55.6887 129.288 55.8082 129.599 55.8082 129.98C55.8082 130.293 55.7183 130.572 55.5384 130.818C55.3608 131.064 55.1122 131.259 54.7926 131.401C54.473 131.543 54.1013 131.614 53.6776 131.614C53.1212 131.614 52.6607 131.493 52.2962 131.251C51.9316 131.01 51.7008 130.657 51.6037 130.193L52.3991 129.994C52.4749 130.288 52.6181 130.508 52.8288 130.655C53.0419 130.802 53.3201 130.875 53.6634 130.875C54.054 130.875 54.3641 130.792 54.5938 130.626C54.8258 130.458 54.9418 130.257 54.9418 130.023C54.9418 129.833 54.8755 129.675 54.7429 129.547C54.6103 129.417 54.4067 129.32 54.1321 129.256L53.223 129.043C52.7235 128.924 52.3565 128.741 52.1222 128.492C51.8902 128.241 51.7741 127.928 51.7741 127.551C51.7741 127.243 51.8606 126.971 52.0334 126.734C52.2086 126.498 52.4465 126.312 52.7472 126.177C53.0502 126.042 53.3935 125.974 53.777 125.974C54.3168 125.974 54.7405 126.093 55.0483 126.33C55.3584 126.566 55.5786 126.879 55.7088 127.267ZM57.0698 131.5V126.045H57.9078V131.5H57.0698ZM57.4959 125.136C57.3326 125.136 57.1917 125.081 57.0733 124.969C56.9573 124.858 56.8993 124.724 56.8993 124.568C56.8993 124.412 56.9573 124.278 57.0733 124.167C57.1917 124.056 57.3326 124 57.4959 124C57.6593 124 57.7989 124.056 57.915 124.167C58.0333 124.278 58.0925 124.412 58.0925 124.568C58.0925 124.724 58.0333 124.858 57.915 124.969C57.7989 125.081 57.6593 125.136 57.4959 125.136ZM61.5025 131.614C61.0479 131.614 60.6467 131.499 60.2987 131.269C59.9506 131.037 59.6784 130.71 59.4819 130.289C59.2854 129.865 59.1871 129.365 59.1871 128.787C59.1871 128.214 59.2854 127.717 59.4819 127.295C59.6784 126.874 59.9518 126.549 60.3022 126.319C60.6526 126.089 61.0574 125.974 61.5167 125.974C61.8718 125.974 62.1523 126.034 62.3583 126.152C62.5666 126.268 62.7253 126.401 62.8342 126.55C62.9454 126.696 63.0318 126.817 63.0934 126.912H63.1644V124.227H64.0025V131.5H63.1928V130.662H63.0934C63.0318 130.761 62.9442 130.887 62.8306 131.038C62.717 131.187 62.5548 131.321 62.3441 131.44C62.1334 131.556 61.8529 131.614 61.5025 131.614ZM61.6161 130.861C61.9523 130.861 62.2364 130.773 62.4684 130.598C62.7004 130.42 62.8768 130.175 62.9975 129.863C63.1183 129.548 63.1786 129.185 63.1786 128.773C63.1786 128.366 63.1194 128.009 63.0011 127.704C62.8827 127.396 62.7075 127.157 62.4755 126.987C62.2435 126.814 61.957 126.727 61.6161 126.727C61.261 126.727 60.9651 126.818 60.7283 127.001C60.494 127.181 60.3176 127.426 60.1992 127.736C60.0832 128.044 60.0252 128.389 60.0252 128.773C60.0252 129.161 60.0844 129.514 60.2028 129.831C60.3235 130.146 60.5011 130.397 60.7354 130.584C60.9722 130.768 61.2657 130.861 61.6161 130.861ZM67.9407 131.614C67.4151 131.614 66.9618 131.498 66.5806 131.266C66.2018 131.031 65.9094 130.705 65.7035 130.286C65.4999 129.864 65.3981 129.374 65.3981 128.815C65.3981 128.257 65.4999 127.764 65.7035 127.338C65.9094 126.91 66.1959 126.576 66.5629 126.337C66.9322 126.095 67.363 125.974 67.8555 125.974C68.1396 125.974 68.4201 126.022 68.6971 126.116C68.9741 126.211 69.2262 126.365 69.4535 126.578C69.6808 126.789 69.8619 127.068 69.9968 127.416C70.1317 127.764 70.1992 128.193 70.1992 128.702V129.057H65.9947V128.332H69.3469C69.3469 128.025 69.2854 127.75 69.1623 127.509C69.0415 127.267 68.8687 127.076 68.6438 126.937C68.4213 126.797 68.1585 126.727 67.8555 126.727C67.5217 126.727 67.2328 126.81 66.989 126.976C66.7475 127.139 66.5617 127.352 66.4315 127.615C66.3013 127.878 66.2362 128.16 66.2362 128.46V128.943C66.2362 129.355 66.3072 129.704 66.4492 129.991C66.5936 130.275 66.7937 130.491 67.0494 130.641C67.305 130.787 67.6022 130.861 67.9407 130.861C68.1609 130.861 68.3597 130.83 68.5373 130.768C68.7172 130.705 68.8723 130.61 69.0025 130.484C69.1327 130.357 69.2333 130.198 69.3043 130.009L70.114 130.236C70.0288 130.51 69.8855 130.752 69.6843 130.96C69.4831 131.166 69.2345 131.327 68.9386 131.443C68.6426 131.557 68.31 131.614 67.9407 131.614Z" fill="#222222"/>
<path d="M148.858 126.045C148.815 125.686 148.643 125.406 148.339 125.207C148.036 125.009 147.665 124.909 147.224 124.909C146.902 124.909 146.621 124.961 146.379 125.065C146.14 125.17 145.953 125.313 145.818 125.495C145.686 125.677 145.619 125.884 145.619 126.116C145.619 126.311 145.665 126.478 145.758 126.617C145.853 126.754 145.973 126.869 146.12 126.962C146.267 127.052 146.421 127.126 146.582 127.185C146.743 127.242 146.891 127.288 147.026 127.324L147.764 127.523C147.954 127.572 148.164 127.641 148.396 127.729C148.631 127.816 148.854 127.936 149.067 128.087C149.283 128.237 149.46 128.428 149.6 128.663C149.74 128.897 149.81 129.185 149.81 129.526C149.81 129.919 149.707 130.274 149.501 130.591C149.297 130.908 148.999 131.16 148.606 131.347C148.215 131.534 147.741 131.628 147.182 131.628C146.661 131.628 146.21 131.544 145.829 131.376C145.45 131.208 145.152 130.973 144.934 130.673C144.719 130.372 144.597 130.023 144.568 129.625H145.477C145.501 129.9 145.593 130.127 145.754 130.307C145.918 130.484 146.124 130.617 146.372 130.705C146.623 130.79 146.893 130.832 147.182 130.832C147.518 130.832 147.82 130.778 148.087 130.669C148.355 130.558 148.567 130.404 148.723 130.207C148.879 130.009 148.957 129.777 148.957 129.511C148.957 129.27 148.89 129.073 148.755 128.922C148.62 128.77 148.442 128.647 148.222 128.553C148.002 128.458 147.764 128.375 147.509 128.304L146.614 128.048C146.045 127.885 145.596 127.652 145.264 127.349C144.933 127.046 144.767 126.649 144.767 126.159C144.767 125.752 144.877 125.397 145.097 125.094C145.32 124.788 145.618 124.552 145.992 124.384C146.369 124.213 146.789 124.128 147.253 124.128C147.722 124.128 148.138 124.212 148.503 124.38C148.867 124.546 149.156 124.773 149.369 125.062C149.585 125.351 149.698 125.679 149.71 126.045H148.858ZM151.982 128.219V131.5H151.144V124.227H151.982V126.898H152.053C152.181 126.616 152.373 126.392 152.628 126.227C152.886 126.058 153.23 125.974 153.658 125.974C154.03 125.974 154.355 126.049 154.635 126.198C154.914 126.345 155.131 126.571 155.285 126.876C155.441 127.179 155.519 127.565 155.519 128.034V131.5H154.681V128.091C154.681 127.658 154.568 127.323 154.344 127.086C154.121 126.847 153.812 126.727 153.417 126.727C153.142 126.727 152.896 126.785 152.678 126.901C152.463 127.017 152.292 127.187 152.167 127.409C152.044 127.632 151.982 127.902 151.982 128.219ZM159.268 131.614C158.776 131.614 158.344 131.496 157.972 131.262C157.603 131.028 157.314 130.7 157.105 130.278C156.9 129.857 156.797 129.365 156.797 128.801C156.797 128.233 156.9 127.737 157.105 127.313C157.314 126.889 157.603 126.56 157.972 126.326C158.344 126.092 158.776 125.974 159.268 125.974C159.761 125.974 160.191 126.092 160.561 126.326C160.932 126.56 161.221 126.889 161.427 127.313C161.636 127.737 161.74 128.233 161.74 128.801C161.74 129.365 161.636 129.857 161.427 130.278C161.221 130.7 160.932 131.028 160.561 131.262C160.191 131.496 159.761 131.614 159.268 131.614ZM159.268 130.861C159.642 130.861 159.95 130.765 160.191 130.573C160.433 130.381 160.612 130.129 160.728 129.817C160.844 129.504 160.902 129.166 160.902 128.801C160.902 128.437 160.844 128.097 160.728 127.782C160.612 127.467 160.433 127.213 160.191 127.018C159.95 126.824 159.642 126.727 159.268 126.727C158.894 126.727 158.586 126.824 158.345 127.018C158.103 127.213 157.925 127.467 157.809 127.782C157.693 128.097 157.635 128.437 157.635 128.801C157.635 129.166 157.693 129.504 157.809 129.817C157.925 130.129 158.103 130.381 158.345 130.573C158.586 130.765 158.894 130.861 159.268 130.861ZM163.019 131.5V126.045H163.829V126.869H163.885C163.985 126.599 164.165 126.38 164.425 126.212C164.686 126.044 164.979 125.96 165.306 125.96C165.367 125.96 165.444 125.961 165.537 125.964C165.629 125.966 165.699 125.97 165.746 125.974V126.827C165.718 126.82 165.653 126.809 165.551 126.795C165.452 126.778 165.346 126.77 165.235 126.77C164.97 126.77 164.733 126.826 164.525 126.937C164.319 127.046 164.155 127.197 164.035 127.391C163.916 127.583 163.857 127.802 163.857 128.048V131.5H163.019ZM169.454 126.045V126.756H166.627V126.045H169.454ZM167.451 124.739H168.289V129.938C168.289 130.174 168.323 130.352 168.392 130.47C168.463 130.586 168.553 130.664 168.662 130.705C168.773 130.742 168.89 130.761 169.013 130.761C169.106 130.761 169.181 130.757 169.241 130.747C169.3 130.735 169.347 130.726 169.383 130.719L169.553 131.472C169.496 131.493 169.417 131.514 169.315 131.536C169.213 131.559 169.084 131.571 168.928 131.571C168.691 131.571 168.459 131.52 168.232 131.418C168.007 131.317 167.82 131.161 167.671 130.953C167.524 130.745 167.451 130.482 167.451 130.165V124.739Z" fill="#222222"/>
<path d="M179 129.801L175.461 126.263L175.933 125.791L179 128.858L182.067 125.791L182.538 126.263L179 129.801Z" fill="#D9D9D9"/>
<path d="M274.461 129C274.186 129 273.951 128.902 273.755 128.706C273.559 128.51 273.461 128.275 273.461 128C273.461 127.725 273.559 127.49 273.755 127.294C273.951 127.098 274.186 127 274.461 127C274.736 127 274.972 127.098 275.168 127.294C275.364 127.49 275.461 127.725 275.461 128C275.461 128.275 275.364 128.51 275.168 128.706C274.972 128.902 274.736 129 274.461 129ZM280 129C279.725 129 279.489 128.902 279.294 128.706C279.098 128.51 279 128.275 279 128C279 127.725 279.098 127.49 279.294 127.294C279.489 127.098 279.725 127 280 127C280.275 127 280.51 127.098 280.706 127.294C280.902 127.49 281 127.725 281 128C281 128.275 280.902 128.51 280.706 128.706C280.51 128.902 280.275 129 280 129ZM285.538 129C285.263 129 285.028 128.902 284.832 128.706C284.636 128.51 284.538 128.275 284.538 128C284.538 127.725 284.636 127.49 284.832 127.294C285.028 127.098 285.263 127 285.538 127C285.813 127 286.049 127.098 286.245 127.294C286.44 127.49 286.538 127.725 286.538 128C286.538 128.275 286.44 128.51 286.245 128.706C286.049 128.902 285.813 129 285.538 129Z" fill="#222222"/>
<path d="M20.858 158.045C20.8153 157.686 20.6425 157.406 20.3395 157.207C20.0365 157.009 19.6648 156.909 19.2244 156.909C18.9025 156.909 18.6207 156.961 18.3793 157.065C18.1402 157.17 17.9531 157.313 17.8182 157.495C17.6856 157.677 17.6193 157.884 17.6193 158.116C17.6193 158.311 17.6655 158.478 17.7578 158.617C17.8525 158.754 17.9732 158.869 18.12 158.962C18.2668 159.052 18.4207 159.126 18.5817 159.185C18.7427 159.242 18.8906 159.288 19.0256 159.324L19.7642 159.523C19.9536 159.572 20.1643 159.641 20.3963 159.729C20.6307 159.816 20.8544 159.936 21.0675 160.087C21.2829 160.237 21.4605 160.428 21.6001 160.663C21.7398 160.897 21.8097 161.185 21.8097 161.526C21.8097 161.919 21.7067 162.274 21.5007 162.591C21.2971 162.908 20.9988 163.16 20.6058 163.347C20.2152 163.534 19.7405 163.628 19.1818 163.628C18.661 163.628 18.21 163.544 17.8288 163.376C17.45 163.208 17.1518 162.973 16.9339 162.673C16.7185 162.372 16.5966 162.023 16.5682 161.625H17.4773C17.5009 161.9 17.5933 162.127 17.7543 162.307C17.9176 162.484 18.1236 162.617 18.3722 162.705C18.6231 162.79 18.893 162.832 19.1818 162.832C19.518 162.832 19.8198 162.778 20.0874 162.669C20.3549 162.558 20.5668 162.404 20.723 162.207C20.8793 162.009 20.9574 161.777 20.9574 161.511C20.9574 161.27 20.8899 161.073 20.755 160.922C20.62 160.77 20.4425 160.647 20.2223 160.553C20.0021 160.458 19.7642 160.375 19.5085 160.304L18.6136 160.048C18.0455 159.885 17.5956 159.652 17.2642 159.349C16.9328 159.046 16.767 158.649 16.767 158.159C16.767 157.752 16.8771 157.397 17.0973 157.094C17.3198 156.788 17.6181 156.552 17.9922 156.384C18.3686 156.213 18.7888 156.128 19.2528 156.128C19.7216 156.128 20.1383 156.212 20.5028 156.38C20.8674 156.546 21.1563 156.773 21.3693 157.062C21.5848 157.351 21.6984 157.679 21.7102 158.045H20.858ZM25.5162 158.045V158.756H22.6895V158.045H25.5162ZM23.5133 156.739H24.3514V161.938C24.3514 162.174 24.3857 162.352 24.4544 162.47C24.5254 162.586 24.6154 162.664 24.7243 162.705C24.8355 162.742 24.9527 162.761 25.0758 162.761C25.1681 162.761 25.2439 162.757 25.3031 162.747C25.3623 162.735 25.4096 162.726 25.4451 162.719L25.6156 163.472C25.5588 163.493 25.4795 163.514 25.3777 163.536C25.2759 163.559 25.1468 163.571 24.9906 163.571C24.7538 163.571 24.5218 163.52 24.2946 163.418C24.0697 163.317 23.8826 163.161 23.7335 162.953C23.5867 162.745 23.5133 162.482 23.5133 162.165V156.739ZM28.9341 163.614C28.4417 163.614 28.0096 163.496 27.638 163.262C27.2686 163.028 26.9798 162.7 26.7715 162.278C26.5655 161.857 26.4625 161.365 26.4625 160.801C26.4625 160.233 26.5655 159.737 26.7715 159.313C26.9798 158.889 27.2686 158.56 27.638 158.326C28.0096 158.092 28.4417 157.974 28.9341 157.974C29.4266 157.974 29.8574 158.092 30.2267 158.326C30.5984 158.56 30.8873 158.889 31.0932 159.313C31.3016 159.737 31.4057 160.233 31.4057 160.801C31.4057 161.365 31.3016 161.857 31.0932 162.278C30.8873 162.7 30.5984 163.028 30.2267 163.262C29.8574 163.496 29.4266 163.614 28.9341 163.614ZM28.9341 162.861C29.3082 162.861 29.6159 162.765 29.8574 162.573C30.0989 162.381 30.2776 162.129 30.3936 161.817C30.5096 161.504 30.5676 161.166 30.5676 160.801C30.5676 160.437 30.5096 160.097 30.3936 159.782C30.2776 159.467 30.0989 159.213 29.8574 159.018C29.6159 158.824 29.3082 158.727 28.9341 158.727C28.5601 158.727 28.2523 158.824 28.0108 159.018C27.7694 159.213 27.5906 159.467 27.4746 159.782C27.3586 160.097 27.3006 160.437 27.3006 160.801C27.3006 161.166 27.3586 161.504 27.4746 161.817C27.5906 162.129 27.7694 162.381 28.0108 162.573C28.2523 162.765 28.5601 162.861 28.9341 162.861ZM32.685 163.5V158.045H33.4947V158.869H33.5515C33.6509 158.599 33.8308 158.38 34.0913 158.212C34.3517 158.044 34.6452 157.96 34.9719 157.96C35.0335 157.96 35.1104 157.961 35.2028 157.964C35.2951 157.966 35.3649 157.97 35.4123 157.974V158.827C35.3839 158.82 35.3188 158.809 35.217 158.795C35.1175 158.778 35.0122 158.77 34.9009 158.77C34.6358 158.77 34.399 158.826 34.1907 158.937C33.9847 159.046 33.8214 159.197 33.7006 159.391C33.5823 159.583 33.5231 159.802 33.5231 160.048V163.5H32.685ZM38.0108 163.628C37.6652 163.628 37.3515 163.563 37.0698 163.433C36.7881 163.3 36.5643 163.109 36.3986 162.861C36.2329 162.61 36.15 162.307 36.15 161.952C36.15 161.639 36.2116 161.386 36.3347 161.192C36.4578 160.995 36.6223 160.841 36.8283 160.73C37.0343 160.619 37.2615 160.536 37.5101 160.482C37.7611 160.425 38.0132 160.38 38.2665 160.347C38.598 160.304 38.8667 160.272 39.0726 160.251C39.281 160.227 39.4325 160.188 39.5272 160.134C39.6242 160.079 39.6728 159.984 39.6728 159.849V159.821C39.6728 159.471 39.5769 159.198 39.3851 159.004C39.1957 158.81 38.9081 158.713 38.5222 158.713C38.1221 158.713 37.8084 158.801 37.5811 158.976C37.3539 159.151 37.1941 159.338 37.1017 159.537L36.3063 159.253C36.4483 158.921 36.6377 158.663 36.8745 158.479C37.1136 158.292 37.374 158.161 37.6557 158.088C37.9398 158.012 38.2192 157.974 38.4938 157.974C38.669 157.974 38.8702 157.996 39.0975 158.038C39.3271 158.079 39.5485 158.163 39.7615 158.29C39.977 158.418 40.1557 158.611 40.2978 158.869C40.4398 159.127 40.5108 159.473 40.5108 159.906V163.5H39.6728V162.761H39.6301C39.5733 162.88 39.4786 163.006 39.3461 163.141C39.2135 163.276 39.0371 163.391 38.8169 163.486C38.5968 163.58 38.3281 163.628 38.0108 163.628ZM38.1387 162.875C38.4701 162.875 38.7495 162.81 38.9767 162.68C39.2064 162.549 39.3792 162.381 39.4952 162.175C39.6136 161.969 39.6728 161.753 39.6728 161.526V160.759C39.6373 160.801 39.5591 160.84 39.4384 160.876C39.32 160.909 39.1827 160.938 39.0265 160.964C38.8726 160.988 38.7222 161.009 38.5755 161.028C38.431 161.045 38.3139 161.059 38.2239 161.071C38.0061 161.099 37.8025 161.146 37.6131 161.21C37.4261 161.271 37.2746 161.365 37.1586 161.49C37.0449 161.613 36.9881 161.781 36.9881 161.994C36.9881 162.286 37.0958 162.506 37.3113 162.655C37.5291 162.802 37.8049 162.875 38.1387 162.875ZM44.2422 165.659C43.8374 165.659 43.4893 165.607 43.1982 165.503C42.907 165.401 42.6643 165.266 42.4702 165.098C42.2784 164.932 42.1257 164.755 42.0121 164.565L42.6797 164.097C42.7554 164.196 42.8513 164.31 42.9673 164.438C43.0833 164.568 43.242 164.68 43.4432 164.775C43.6468 164.872 43.9131 164.92 44.2422 164.92C44.6825 164.92 45.0459 164.814 45.3324 164.601C45.6188 164.388 45.7621 164.054 45.7621 163.599V162.491H45.6911C45.6295 162.591 45.5419 162.714 45.4283 162.861C45.317 163.005 45.156 163.134 44.9453 163.248C44.737 163.359 44.4553 163.415 44.1001 163.415C43.6598 163.415 43.2644 163.311 42.9141 163.102C42.5661 162.894 42.2902 162.591 42.0866 162.193C41.8854 161.795 41.7848 161.312 41.7848 160.744C41.7848 160.186 41.883 159.699 42.0795 159.285C42.276 158.868 42.5495 158.546 42.8999 158.319C43.2502 158.089 43.6551 157.974 44.1143 157.974C44.4695 157.974 44.7512 158.034 44.9595 158.152C45.1702 158.268 45.3312 158.401 45.4425 158.55C45.5561 158.696 45.6437 158.817 45.7053 158.912H45.7905V158.045H46.6001V163.656C46.6001 164.125 46.4936 164.506 46.2805 164.8C46.0698 165.096 45.7857 165.312 45.4283 165.45C45.0732 165.589 44.6778 165.659 44.2422 165.659ZM44.2138 162.662C44.55 162.662 44.834 162.585 45.0661 162.431C45.2981 162.277 45.4744 162.056 45.5952 161.767C45.7159 161.478 45.7763 161.133 45.7763 160.73C45.7763 160.337 45.7171 159.99 45.5987 159.69C45.4804 159.389 45.3052 159.153 45.0732 158.983C44.8411 158.812 44.5547 158.727 44.2138 158.727C43.8587 158.727 43.5627 158.817 43.326 158.997C43.0916 159.177 42.9152 159.419 42.7969 159.722C42.6809 160.025 42.6229 160.361 42.6229 160.73C42.6229 161.109 42.6821 161.444 42.8004 161.735C42.9212 162.024 43.0987 162.251 43.3331 162.417C43.5698 162.58 43.8634 162.662 44.2138 162.662ZM50.4212 163.614C49.8956 163.614 49.4422 163.498 49.0611 163.266C48.6823 163.031 48.3899 162.705 48.1839 162.286C47.9804 161.864 47.8786 161.374 47.8786 160.815C47.8786 160.257 47.9804 159.764 48.1839 159.338C48.3899 158.91 48.6764 158.576 49.0433 158.337C49.4126 158.095 49.8435 157.974 50.3359 157.974C50.62 157.974 50.9006 158.022 51.1776 158.116C51.4545 158.211 51.7067 158.365 51.9339 158.578C52.1612 158.789 52.3423 159.068 52.4773 159.416C52.6122 159.764 52.6797 160.193 52.6797 160.702V161.057H48.4751V160.332H51.8274C51.8274 160.025 51.7659 159.75 51.6428 159.509C51.522 159.267 51.3492 159.076 51.1243 158.937C50.9018 158.797 50.639 158.727 50.3359 158.727C50.0021 158.727 49.7133 158.81 49.4695 158.976C49.228 159.139 49.0421 159.352 48.9119 159.615C48.7817 159.878 48.7166 160.16 48.7166 160.46V160.943C48.7166 161.355 48.7876 161.704 48.9297 161.991C49.0741 162.275 49.2741 162.491 49.5298 162.641C49.7855 162.787 50.0826 162.861 50.4212 162.861C50.6413 162.861 50.8402 162.83 51.0178 162.768C51.1977 162.705 51.3527 162.61 51.483 162.484C51.6132 162.357 51.7138 162.198 51.7848 162.009L52.5945 162.236C52.5092 162.51 52.366 162.752 52.1648 162.96C51.9635 163.166 51.715 163.327 51.419 163.443C51.1231 163.557 50.7905 163.614 50.4212 163.614ZM59.1392 158.045V158.756H56.3125V158.045H59.1392ZM57.1364 156.739H57.9744V161.938C57.9744 162.174 58.0088 162.352 58.0774 162.47C58.1484 162.586 58.2384 162.664 58.3473 162.705C58.4586 162.742 58.5758 162.761 58.6989 162.761C58.7912 162.761 58.867 162.757 58.9261 162.747C58.9853 162.735 59.0327 162.726 59.0682 162.719L59.2386 163.472C59.1818 163.493 59.1025 163.514 59.0007 163.536C58.8989 163.559 58.7699 163.571 58.6136 163.571C58.3769 163.571 58.1449 163.52 57.9176 163.418C57.6927 163.317 57.5057 163.161 57.3565 162.953C57.2098 162.745 57.1364 162.482 57.1364 162.165V156.739ZM60.9396 165.545C60.7976 165.545 60.6709 165.534 60.5597 165.51C60.4484 165.489 60.3714 165.467 60.3288 165.446L60.5419 164.707C60.7455 164.759 60.9254 164.778 61.0817 164.764C61.2379 164.75 61.3764 164.68 61.4972 164.555C61.6203 164.432 61.7327 164.232 61.8345 163.955L61.9908 163.528L59.9737 158.045H60.8828L62.3885 162.392H62.4453L63.951 158.045H64.8601L62.5447 164.295C62.4406 164.577 62.3116 164.81 62.1577 164.995C62.0038 165.182 61.825 165.321 61.6214 165.411C61.4202 165.5 61.1929 165.545 60.9396 165.545ZM65.9663 165.545V158.045H66.7759V158.912H66.8754C66.9369 158.817 67.0221 158.696 67.131 158.55C67.2423 158.401 67.4009 158.268 67.6069 158.152C67.8152 158.034 68.0969 157.974 68.4521 157.974C68.9113 157.974 69.3162 158.089 69.6665 158.319C70.0169 158.549 70.2904 158.874 70.4869 159.295C70.6834 159.717 70.7816 160.214 70.7816 160.787C70.7816 161.365 70.6834 161.865 70.4869 162.289C70.2904 162.71 70.0181 163.037 69.6701 163.269C69.3221 163.499 68.9208 163.614 68.4663 163.614C68.1159 163.614 67.8353 163.556 67.6246 163.44C67.4139 163.321 67.2518 163.187 67.1381 163.038C67.0245 162.887 66.9369 162.761 66.8754 162.662H66.8043V165.545H65.9663ZM66.7901 160.773C66.7901 161.185 66.8505 161.548 66.9712 161.863C67.092 162.175 67.2683 162.42 67.5004 162.598C67.7324 162.773 68.0165 162.861 68.3526 162.861C68.703 162.861 68.9954 162.768 69.2298 162.584C69.4665 162.397 69.6441 162.146 69.7624 161.831C69.8832 161.514 69.9435 161.161 69.9435 160.773C69.9435 160.389 69.8844 160.044 69.766 159.736C69.65 159.426 69.4736 159.181 69.2369 159.001C69.0025 158.818 68.7077 158.727 68.3526 158.727C68.0117 158.727 67.7253 158.814 67.4933 158.987C67.2612 159.157 67.0861 159.396 66.9677 159.704C66.8493 160.009 66.7901 160.366 66.7901 160.773ZM74.3469 163.614C73.8214 163.614 73.368 163.498 72.9869 163.266C72.6081 163.031 72.3157 162.705 72.1097 162.286C71.9061 161.864 71.8043 161.374 71.8043 160.815C71.8043 160.257 71.9061 159.764 72.1097 159.338C72.3157 158.91 72.6022 158.576 72.9691 158.337C73.3384 158.095 73.7693 157.974 74.2617 157.974C74.5458 157.974 74.8263 158.022 75.1033 158.116C75.3803 158.211 75.6325 158.365 75.8597 158.578C76.087 158.789 76.2681 159.068 76.4031 159.416C76.538 159.764 76.6055 160.193 76.6055 160.702V161.057H72.4009V160.332H75.7532C75.7532 160.025 75.6916 159.75 75.5685 159.509C75.4478 159.267 75.275 159.076 75.0501 158.937C74.8275 158.797 74.5647 158.727 74.2617 158.727C73.9279 158.727 73.6391 158.81 73.3952 158.976C73.1538 159.139 72.9679 159.352 72.8377 159.615C72.7075 159.878 72.6424 160.16 72.6424 160.46V160.943C72.6424 161.355 72.7134 161.704 72.8555 161.991C72.9999 162.275 73.1999 162.491 73.4556 162.641C73.7113 162.787 74.0084 162.861 74.3469 162.861C74.5671 162.861 74.766 162.83 74.9435 162.768C75.1235 162.705 75.2785 162.61 75.4087 162.484C75.5389 162.357 75.6396 162.198 75.7106 162.009L76.5202 162.236C76.435 162.51 76.2918 162.752 76.0906 162.96C75.8893 163.166 75.6407 163.327 75.3448 163.443C75.0489 163.557 74.7163 163.614 74.3469 163.614Z" fill="#222222"/>
<path d="M148.858 158.045C148.815 157.686 148.643 157.406 148.339 157.207C148.036 157.009 147.665 156.909 147.224 156.909C146.902 156.909 146.621 156.961 146.379 157.065C146.14 157.17 145.953 157.313 145.818 157.495C145.686 157.677 145.619 157.884 145.619 158.116C145.619 158.311 145.665 158.478 145.758 158.617C145.853 158.754 145.973 158.869 146.12 158.962C146.267 159.052 146.421 159.126 146.582 159.185C146.743 159.242 146.891 159.288 147.026 159.324L147.764 159.523C147.954 159.572 148.164 159.641 148.396 159.729C148.631 159.816 148.854 159.936 149.067 160.087C149.283 160.237 149.46 160.428 149.6 160.663C149.74 160.897 149.81 161.185 149.81 161.526C149.81 161.919 149.707 162.274 149.501 162.591C149.297 162.908 148.999 163.16 148.606 163.347C148.215 163.534 147.741 163.628 147.182 163.628C146.661 163.628 146.21 163.544 145.829 163.376C145.45 163.208 145.152 162.973 144.934 162.673C144.719 162.372 144.597 162.023 144.568 161.625H145.477C145.501 161.9 145.593 162.127 145.754 162.307C145.918 162.484 146.124 162.617 146.372 162.705C146.623 162.79 146.893 162.832 147.182 162.832C147.518 162.832 147.82 162.778 148.087 162.669C148.355 162.558 148.567 162.404 148.723 162.207C148.879 162.009 148.957 161.777 148.957 161.511C148.957 161.27 148.89 161.073 148.755 160.922C148.62 160.77 148.442 160.647 148.222 160.553C148.002 160.458 147.764 160.375 147.509 160.304L146.614 160.048C146.045 159.885 145.596 159.652 145.264 159.349C144.933 159.046 144.767 158.649 144.767 158.159C144.767 157.752 144.877 157.397 145.097 157.094C145.32 156.788 145.618 156.552 145.992 156.384C146.369 156.213 146.789 156.128 147.253 156.128C147.722 156.128 148.138 156.212 148.503 156.38C148.867 156.546 149.156 156.773 149.369 157.062C149.585 157.351 149.698 157.679 149.71 158.045H148.858ZM151.144 163.5V158.045H151.982V163.5H151.144ZM151.57 157.136C151.407 157.136 151.266 157.081 151.148 156.969C151.032 156.858 150.974 156.724 150.974 156.568C150.974 156.412 151.032 156.278 151.148 156.167C151.266 156.056 151.407 156 151.57 156C151.733 156 151.873 156.056 151.989 156.167C152.108 156.278 152.167 156.412 152.167 156.568C152.167 156.724 152.108 156.858 151.989 156.969C151.873 157.081 151.733 157.136 151.57 157.136ZM154.355 160.219V163.5H153.517V158.045H154.327V158.898H154.398C154.526 158.621 154.72 158.398 154.98 158.23C155.241 158.06 155.577 157.974 155.989 157.974C156.358 157.974 156.681 158.05 156.958 158.202C157.235 158.351 157.451 158.578 157.604 158.884C157.758 159.187 157.835 159.57 157.835 160.034V163.5H156.997V160.091C156.997 159.662 156.886 159.329 156.663 159.089C156.441 158.848 156.135 158.727 155.747 158.727C155.48 158.727 155.241 158.785 155.03 158.901C154.821 159.017 154.657 159.187 154.536 159.409C154.415 159.632 154.355 159.902 154.355 160.219ZM161.568 165.659C161.164 165.659 160.816 165.607 160.524 165.503C160.233 165.401 159.99 165.266 159.796 165.098C159.605 164.932 159.452 164.755 159.338 164.565L160.006 164.097C160.082 164.196 160.177 164.31 160.294 164.438C160.41 164.568 160.568 164.68 160.769 164.775C160.973 164.872 161.239 164.92 161.568 164.92C162.009 164.92 162.372 164.814 162.659 164.601C162.945 164.388 163.088 164.054 163.088 163.599V162.491H163.017C162.956 162.591 162.868 162.714 162.754 162.861C162.643 163.005 162.482 163.134 162.271 163.248C162.063 163.359 161.781 163.415 161.426 163.415C160.986 163.415 160.591 163.311 160.24 163.102C159.892 162.894 159.616 162.591 159.413 162.193C159.212 161.795 159.111 161.312 159.111 160.744C159.111 160.186 159.209 159.699 159.406 159.285C159.602 158.868 159.876 158.546 160.226 158.319C160.576 158.089 160.981 157.974 161.441 157.974C161.796 157.974 162.077 158.034 162.286 158.152C162.496 158.268 162.657 158.401 162.769 158.55C162.882 158.696 162.97 158.817 163.031 158.912H163.117V158.045H163.926V163.656C163.926 164.125 163.82 164.506 163.607 164.8C163.396 165.096 163.112 165.312 162.754 165.45C162.399 165.589 162.004 165.659 161.568 165.659ZM161.54 162.662C161.876 162.662 162.16 162.585 162.392 162.431C162.624 162.277 162.801 162.056 162.921 161.767C163.042 161.478 163.102 161.133 163.102 160.73C163.102 160.337 163.043 159.99 162.925 159.69C162.807 159.389 162.631 159.153 162.399 158.983C162.167 158.812 161.881 158.727 161.54 158.727C161.185 158.727 160.889 158.817 160.652 158.997C160.418 159.177 160.241 159.419 160.123 159.722C160.007 160.025 159.949 160.361 159.949 160.73C159.949 161.109 160.008 161.444 160.127 161.735C160.247 162.024 160.425 162.251 160.659 162.417C160.896 162.58 161.19 162.662 161.54 162.662ZM166.298 156.227V163.5H165.46V156.227H166.298ZM170.12 163.614C169.595 163.614 169.141 163.498 168.76 163.266C168.382 163.031 168.089 162.705 167.883 162.286C167.68 161.864 167.578 161.374 167.578 160.815C167.578 160.257 167.68 159.764 167.883 159.338C168.089 158.91 168.376 158.576 168.743 158.337C169.112 158.095 169.543 157.974 170.035 157.974C170.319 157.974 170.6 158.022 170.877 158.116C171.154 158.211 171.406 158.365 171.633 158.578C171.86 158.789 172.042 159.068 172.176 159.416C172.311 159.764 172.379 160.193 172.379 160.702V161.057H168.174V160.332H171.527C171.527 160.025 171.465 159.75 171.342 159.509C171.221 159.267 171.048 159.076 170.824 158.937C170.601 158.797 170.338 158.727 170.035 158.727C169.701 158.727 169.413 158.81 169.169 158.976C168.927 159.139 168.741 159.352 168.611 159.615C168.481 159.878 168.416 160.16 168.416 160.46V160.943C168.416 161.355 168.487 161.704 168.629 161.991C168.773 162.275 168.973 162.491 169.229 162.641C169.485 162.787 169.782 162.861 170.12 162.861C170.341 162.861 170.539 162.83 170.717 162.768C170.897 162.705 171.052 162.61 171.182 162.484C171.312 162.357 171.413 162.198 171.484 162.009L172.294 162.236C172.208 162.51 172.065 162.752 171.864 162.96C171.663 163.166 171.414 163.327 171.118 163.443C170.822 163.557 170.49 163.614 170.12 163.614Z" fill="#222222"/>
<path d="M182 161.801L178.461 158.263L178.933 157.791L182 160.858L185.067 157.791L185.538 158.263L182 161.801Z" fill="#D9D9D9"/>
<path d="M16.8807 195.5V188.227H17.7614V194.719H21.142V195.5H16.8807ZM24.608 195.614C24.1155 195.614 23.6835 195.496 23.3118 195.262C22.9425 195.028 22.6536 194.7 22.4453 194.278C22.2393 193.857 22.1364 193.365 22.1364 192.801C22.1364 192.233 22.2393 191.737 22.4453 191.313C22.6536 190.889 22.9425 190.56 23.3118 190.326C23.6835 190.092 24.1155 189.974 24.608 189.974C25.1004 189.974 25.5313 190.092 25.9006 190.326C26.2723 190.56 26.5611 190.889 26.767 191.313C26.9754 191.737 27.0795 192.233 27.0795 192.801C27.0795 193.365 26.9754 193.857 26.767 194.278C26.5611 194.7 26.2723 195.028 25.9006 195.262C25.5313 195.496 25.1004 195.614 24.608 195.614ZM24.608 194.861C24.982 194.861 25.2898 194.765 25.5312 194.573C25.7727 194.381 25.9515 194.129 26.0675 193.817C26.1835 193.504 26.2415 193.166 26.2415 192.801C26.2415 192.437 26.1835 192.097 26.0675 191.782C25.9515 191.467 25.7727 191.213 25.5312 191.018C25.2898 190.824 24.982 190.727 24.608 190.727C24.2339 190.727 23.9261 190.824 23.6847 191.018C23.4432 191.213 23.2644 191.467 23.1484 191.782C23.0324 192.097 22.9744 192.437 22.9744 192.801C22.9744 193.166 23.0324 193.504 23.1484 193.817C23.2644 194.129 23.4432 194.381 23.6847 194.573C23.9261 194.765 24.2339 194.861 24.608 194.861ZM29.964 195.628C29.6183 195.628 29.3046 195.563 29.0229 195.433C28.7412 195.3 28.5175 195.109 28.3517 194.861C28.186 194.61 28.1032 194.307 28.1032 193.952C28.1032 193.639 28.1647 193.386 28.2878 193.192C28.4109 192.995 28.5755 192.841 28.7814 192.73C28.9874 192.619 29.2147 192.536 29.4632 192.482C29.7142 192.425 29.9663 192.38 30.2196 192.347C30.5511 192.304 30.8198 192.272 31.0257 192.251C31.2341 192.227 31.3856 192.188 31.4803 192.134C31.5774 192.079 31.6259 191.984 31.6259 191.849V191.821C31.6259 191.471 31.53 191.198 31.3382 191.004C31.1489 190.81 30.8612 190.713 30.4753 190.713C30.0752 190.713 29.7615 190.801 29.5343 190.976C29.307 191.151 29.1472 191.338 29.0549 191.537L28.2594 191.253C28.4015 190.921 28.5908 190.663 28.8276 190.479C29.0667 190.292 29.3271 190.161 29.6088 190.088C29.8929 190.012 30.1723 189.974 30.4469 189.974C30.6221 189.974 30.8233 189.996 31.0506 190.038C31.2802 190.079 31.5016 190.163 31.7147 190.29C31.9301 190.418 32.1088 190.611 32.2509 190.869C32.3929 191.127 32.464 191.473 32.464 191.906V195.5H31.6259V194.761H31.5833C31.5265 194.88 31.4318 195.006 31.2992 195.141C31.1666 195.276 30.9902 195.391 30.7701 195.486C30.5499 195.58 30.2812 195.628 29.964 195.628ZM30.0918 194.875C30.4232 194.875 30.7026 194.81 30.9299 194.68C31.1595 194.549 31.3323 194.381 31.4483 194.175C31.5667 193.969 31.6259 193.753 31.6259 193.526V192.759C31.5904 192.801 31.5123 192.84 31.3915 192.876C31.2731 192.909 31.1358 192.938 30.9796 192.964C30.8257 192.988 30.6754 193.009 30.5286 193.028C30.3842 193.045 30.267 193.059 30.177 193.071C29.9592 193.099 29.7556 193.146 29.5662 193.21C29.3792 193.271 29.2277 193.365 29.1117 193.49C28.998 193.613 28.9412 193.781 28.9412 193.994C28.9412 194.286 29.0489 194.506 29.2644 194.655C29.4822 194.802 29.758 194.875 30.0918 194.875ZM36.0533 195.614C35.5987 195.614 35.1974 195.499 34.8494 195.269C34.5014 195.037 34.2292 194.71 34.0327 194.289C33.8362 193.865 33.7379 193.365 33.7379 192.787C33.7379 192.214 33.8362 191.717 34.0327 191.295C34.2292 190.874 34.5026 190.549 34.853 190.319C35.2034 190.089 35.6082 189.974 36.0675 189.974C36.4226 189.974 36.7031 190.034 36.9091 190.152C37.1174 190.268 37.276 190.401 37.3849 190.55C37.4962 190.696 37.5826 190.817 37.6442 190.912H37.7152V188.227H38.5533V195.5H37.7436V194.662H37.6442C37.5826 194.761 37.495 194.887 37.3814 195.038C37.2678 195.187 37.1056 195.321 36.8949 195.44C36.6842 195.556 36.4036 195.614 36.0533 195.614ZM36.1669 194.861C36.5031 194.861 36.7872 194.773 37.0192 194.598C37.2512 194.42 37.4276 194.175 37.5483 193.863C37.669 193.548 37.7294 193.185 37.7294 192.773C37.7294 192.366 37.6702 192.009 37.5518 191.704C37.4335 191.396 37.2583 191.157 37.0263 190.987C36.7943 190.814 36.5078 190.727 36.1669 190.727C35.8118 190.727 35.5159 190.818 35.2791 191.001C35.0447 191.181 34.8684 191.426 34.75 191.736C34.634 192.044 34.576 192.389 34.576 192.773C34.576 193.161 34.6352 193.514 34.7536 193.831C34.8743 194.146 35.0518 194.397 35.2862 194.584C35.523 194.768 35.8165 194.861 36.1669 194.861ZM45.304 195.614C44.7784 195.614 44.325 195.498 43.9439 195.266C43.5651 195.031 43.2727 194.705 43.0668 194.286C42.8632 193.864 42.7614 193.374 42.7614 192.815C42.7614 192.257 42.8632 191.764 43.0668 191.338C43.2727 190.91 43.5592 190.576 43.9261 190.337C44.2955 190.095 44.7263 189.974 45.2188 189.974C45.5028 189.974 45.7834 190.022 46.0604 190.116C46.3374 190.211 46.5895 190.365 46.8168 190.578C47.044 190.789 47.2251 191.068 47.3601 191.416C47.495 191.764 47.5625 192.193 47.5625 192.702V193.057H43.358V192.332H46.7102C46.7102 192.025 46.6487 191.75 46.5256 191.509C46.4048 191.267 46.232 191.076 46.0071 190.937C45.7846 190.797 45.5218 190.727 45.2188 190.727C44.8849 190.727 44.5961 190.81 44.3523 190.976C44.1108 191.139 43.925 191.352 43.7947 191.615C43.6645 191.878 43.5994 192.16 43.5994 192.46V192.943C43.5994 193.355 43.6705 193.704 43.8125 193.991C43.9569 194.275 44.157 194.491 44.4126 194.641C44.6683 194.787 44.9654 194.861 45.304 194.861C45.5241 194.861 45.723 194.83 45.9006 194.768C46.0805 194.705 46.2356 194.61 46.3658 194.484C46.496 194.357 46.5966 194.198 46.6676 194.009L47.4773 194.236C47.392 194.51 47.2488 194.752 47.0476 194.96C46.8464 195.166 46.5978 195.327 46.3018 195.443C46.0059 195.557 45.6733 195.614 45.304 195.614ZM49.6754 188.227V195.5H48.8374V188.227H49.6754ZM53.4973 195.614C52.9718 195.614 52.5184 195.498 52.1373 195.266C51.7585 195.031 51.4661 194.705 51.2601 194.286C51.0565 193.864 50.9547 193.374 50.9547 192.815C50.9547 192.257 51.0565 191.764 51.2601 191.338C51.4661 190.91 51.7525 190.576 52.1195 190.337C52.4888 190.095 52.9197 189.974 53.4121 189.974C53.6962 189.974 53.9767 190.022 54.2537 190.116C54.5307 190.211 54.7828 190.365 55.0101 190.578C55.2374 190.789 55.4185 191.068 55.5534 191.416C55.6884 191.764 55.7559 192.193 55.7559 192.702V193.057H51.5513V192.332H54.9036C54.9036 192.025 54.842 191.75 54.7189 191.509C54.5982 191.267 54.4254 191.076 54.2005 190.937C53.9779 190.797 53.7151 190.727 53.4121 190.727C53.0783 190.727 52.7895 190.81 52.5456 190.976C52.3042 191.139 52.1183 191.352 51.9881 191.615C51.8579 191.878 51.7928 192.16 51.7928 192.46V192.943C51.7928 193.355 51.8638 193.704 52.0059 193.991C52.1503 194.275 52.3503 194.491 52.606 194.641C52.8617 194.787 53.1588 194.861 53.4973 194.861C53.7175 194.861 53.9164 194.83 54.0939 194.768C54.2739 194.705 54.4289 194.61 54.5591 194.484C54.6893 194.357 54.79 194.198 54.861 194.009L55.6706 194.236C55.5854 194.51 55.4422 194.752 55.2409 194.96C55.0397 195.166 54.7911 195.327 54.4952 195.443C54.1993 195.557 53.8667 195.614 53.4973 195.614ZM61.3249 190.045L59.3079 195.5H58.4556L56.4386 190.045H57.3477L58.8533 194.392H58.9102L60.4158 190.045H61.3249ZM63.8702 195.628C63.5246 195.628 63.2109 195.563 62.9292 195.433C62.6474 195.3 62.4237 195.109 62.258 194.861C62.0923 194.61 62.0094 194.307 62.0094 193.952C62.0094 193.639 62.071 193.386 62.1941 193.192C62.3172 192.995 62.4817 192.841 62.6877 192.73C62.8936 192.619 63.1209 192.536 63.3695 192.482C63.6204 192.425 63.8726 192.38 64.1259 192.347C64.4573 192.304 64.726 192.272 64.932 192.251C65.1403 192.227 65.2918 192.188 65.3865 192.134C65.4836 192.079 65.5321 191.984 65.5321 191.849V191.821C65.5321 191.471 65.4363 191.198 65.2445 191.004C65.0551 190.81 64.7675 190.713 64.3816 190.713C63.9815 190.713 63.6678 190.801 63.4405 190.976C63.2132 191.151 63.0534 191.338 62.9611 191.537L62.1657 191.253C62.3077 190.921 62.4971 190.663 62.7338 190.479C62.973 190.292 63.2334 190.161 63.5151 190.088C63.7992 190.012 64.0785 189.974 64.3532 189.974C64.5283 189.974 64.7296 189.996 64.9569 190.038C65.1865 190.079 65.4078 190.163 65.6209 190.29C65.8364 190.418 66.0151 190.611 66.1571 190.869C66.2992 191.127 66.3702 191.473 66.3702 191.906V195.5H65.5321V194.761H65.4895C65.4327 194.88 65.338 195.006 65.2054 195.141C65.0729 195.276 64.8965 195.391 64.6763 195.486C64.4561 195.58 64.1874 195.628 63.8702 195.628ZM63.998 194.875C64.3295 194.875 64.6088 194.81 64.8361 194.68C65.0658 194.549 65.2386 194.381 65.3546 194.175C65.473 193.969 65.5321 193.753 65.5321 193.526V192.759C65.4966 192.801 65.4185 192.84 65.2978 192.876C65.1794 192.909 65.0421 192.938 64.8858 192.964C64.7319 192.988 64.5816 193.009 64.4348 193.028C64.2904 193.045 64.1732 193.059 64.0833 193.071C63.8655 193.099 63.6619 193.146 63.4725 193.21C63.2855 193.271 63.1339 193.365 63.0179 193.49C62.9043 193.613 62.8475 193.781 62.8475 193.994C62.8475 194.286 62.9552 194.506 63.1706 194.655C63.3884 194.802 63.6642 194.875 63.998 194.875ZM70.272 190.045V190.756H67.4453V190.045H70.272ZM68.2692 188.739H69.1072V193.938C69.1072 194.174 69.1416 194.352 69.2102 194.47C69.2813 194.586 69.3712 194.664 69.4801 194.705C69.5914 194.742 69.7086 194.761 69.8317 194.761C69.924 194.761 69.9998 194.757 70.0589 194.747C70.1181 194.735 70.1655 194.726 70.201 194.719L70.3714 195.472C70.3146 195.493 70.2353 195.514 70.1335 195.536C70.0317 195.559 69.9027 195.571 69.7464 195.571C69.5097 195.571 69.2777 195.52 69.0504 195.418C68.8255 195.317 68.6385 195.161 68.4893 194.953C68.3426 194.745 68.2692 194.482 68.2692 194.165V188.739ZM71.5327 195.5V190.045H72.3707V195.5H71.5327ZM71.9588 189.136C71.7955 189.136 71.6546 189.081 71.5362 188.969C71.4202 188.858 71.3622 188.724 71.3622 188.568C71.3622 188.412 71.4202 188.278 71.5362 188.167C71.6546 188.056 71.7955 188 71.9588 188C72.1222 188 72.2618 188.056 72.3778 188.167C72.4962 188.278 72.5554 188.412 72.5554 188.568C72.5554 188.724 72.4962 188.858 72.3778 188.969C72.2618 189.081 72.1222 189.136 71.9588 189.136ZM76.1216 195.614C75.6292 195.614 75.1971 195.496 74.8255 195.262C74.4561 195.028 74.1673 194.7 73.959 194.278C73.753 193.857 73.65 193.365 73.65 192.801C73.65 192.233 73.753 191.737 73.959 191.313C74.1673 190.889 74.4561 190.56 74.8255 190.326C75.1971 190.092 75.6292 189.974 76.1216 189.974C76.6141 189.974 77.0449 190.092 77.4142 190.326C77.7859 190.56 78.0748 190.889 78.2807 191.313C78.4891 191.737 78.5932 192.233 78.5932 192.801C78.5932 193.365 78.4891 193.857 78.2807 194.278C78.0748 194.7 77.7859 195.028 77.4142 195.262C77.0449 195.496 76.6141 195.614 76.1216 195.614ZM76.1216 194.861C76.4957 194.861 76.8034 194.765 77.0449 194.573C77.2864 194.381 77.4651 194.129 77.5811 193.817C77.6971 193.504 77.7551 193.166 77.7551 192.801C77.7551 192.437 77.6971 192.097 77.5811 191.782C77.4651 191.467 77.2864 191.213 77.0449 191.018C76.8034 190.824 76.4957 190.727 76.1216 190.727C75.7476 190.727 75.4398 190.824 75.1983 191.018C74.9569 191.213 74.7781 191.467 74.6621 191.782C74.5461 192.097 74.4881 192.437 74.4881 192.801C74.4881 193.166 74.5461 193.504 74.6621 193.817C74.7781 194.129 74.9569 194.381 75.1983 194.573C75.4398 194.765 75.7476 194.861 76.1216 194.861ZM80.7106 192.219V195.5H79.8725V190.045H80.6822V190.898H80.7532C80.881 190.621 81.0752 190.398 81.3356 190.23C81.596 190.06 81.9322 189.974 82.3441 189.974C82.7134 189.974 83.0366 190.05 83.3136 190.202C83.5906 190.351 83.806 190.578 83.9599 190.884C84.1138 191.187 84.1907 191.57 84.1907 192.034V195.5H83.3526V192.091C83.3526 191.662 83.2414 191.329 83.0188 191.089C82.7963 190.848 82.4909 190.727 82.1026 190.727C81.8351 190.727 81.596 190.785 81.3853 190.901C81.177 191.017 81.0124 191.187 80.8917 191.409C80.771 191.632 80.7106 191.902 80.7106 192.219Z" fill="#222222"/>
<path d="M144.753 195.5V194.861L147.153 192.233C147.435 191.925 147.667 191.658 147.849 191.43C148.032 191.201 148.167 190.985 148.254 190.784C148.344 190.58 148.389 190.367 148.389 190.145C148.389 189.889 148.328 189.668 148.205 189.481C148.084 189.294 147.918 189.149 147.707 189.048C147.497 188.946 147.26 188.895 146.997 188.895C146.718 188.895 146.474 188.953 146.266 189.069C146.06 189.183 145.9 189.342 145.786 189.548C145.675 189.754 145.619 189.996 145.619 190.273H144.781C144.781 189.847 144.879 189.473 145.076 189.151C145.272 188.829 145.54 188.578 145.879 188.398C146.219 188.218 146.602 188.128 147.026 188.128C147.452 188.128 147.829 188.218 148.158 188.398C148.487 188.578 148.746 188.82 148.933 189.126C149.12 189.431 149.213 189.771 149.213 190.145C149.213 190.412 149.165 190.674 149.067 190.93C148.973 191.183 148.807 191.466 148.57 191.778C148.336 192.089 148.01 192.467 147.594 192.915L145.96 194.662V194.719H149.341V195.5H144.753ZM153.18 195.599C152.645 195.599 152.189 195.454 151.812 195.163C151.436 194.869 151.148 194.444 150.95 193.888C150.751 193.329 150.651 192.654 150.651 191.864C150.651 191.078 150.751 190.406 150.95 189.85C151.151 189.291 151.44 188.865 151.816 188.572C152.195 188.276 152.649 188.128 153.18 188.128C153.71 188.128 154.163 188.276 154.54 188.572C154.919 188.865 155.207 189.291 155.406 189.85C155.607 190.406 155.708 191.078 155.708 191.864C155.708 192.654 155.609 193.329 155.41 193.888C155.211 194.444 154.923 194.869 154.547 195.163C154.17 195.454 153.715 195.599 153.18 195.599ZM153.18 194.818C153.71 194.818 154.122 194.562 154.415 194.051C154.709 193.54 154.856 192.811 154.856 191.864C154.856 191.234 154.788 190.698 154.653 190.255C154.521 189.812 154.329 189.475 154.078 189.243C153.83 189.011 153.53 188.895 153.18 188.895C152.654 188.895 152.243 189.154 151.947 189.673C151.652 190.189 151.504 190.919 151.504 191.864C151.504 192.493 151.57 193.028 151.702 193.469C151.835 193.909 152.026 194.244 152.274 194.474C152.525 194.703 152.827 194.818 153.18 194.818ZM159.43 195.599C158.895 195.599 158.439 195.454 158.062 195.163C157.686 194.869 157.398 194.444 157.2 193.888C157.001 193.329 156.901 192.654 156.901 191.864C156.901 191.078 157.001 190.406 157.2 189.85C157.401 189.291 157.69 188.865 158.066 188.572C158.445 188.276 158.899 188.128 159.43 188.128C159.96 188.128 160.413 188.276 160.79 188.572C161.169 188.865 161.457 189.291 161.656 189.85C161.857 190.406 161.958 191.078 161.958 191.864C161.958 192.654 161.859 193.329 161.66 193.888C161.461 194.444 161.173 194.869 160.797 195.163C160.42 195.454 159.965 195.599 159.43 195.599ZM159.43 194.818C159.96 194.818 160.372 194.562 160.665 194.051C160.959 193.54 161.106 192.811 161.106 191.864C161.106 191.234 161.038 190.698 160.903 190.255C160.771 189.812 160.579 189.475 160.328 189.243C160.08 189.011 159.78 188.895 159.43 188.895C158.904 188.895 158.493 189.154 158.197 189.673C157.902 190.189 157.754 190.919 157.754 191.864C157.754 192.493 157.82 193.028 157.952 193.469C158.085 193.909 158.276 194.244 158.524 194.474C158.775 194.703 159.077 194.818 159.43 194.818ZM165.68 195.599C165.145 195.599 164.689 195.454 164.312 195.163C163.936 194.869 163.648 194.444 163.45 193.888C163.251 193.329 163.151 192.654 163.151 191.864C163.151 191.078 163.251 190.406 163.45 189.85C163.651 189.291 163.94 188.865 164.316 188.572C164.695 188.276 165.149 188.128 165.68 188.128C166.21 188.128 166.663 188.276 167.04 188.572C167.419 188.865 167.707 189.291 167.906 189.85C168.107 190.406 168.208 191.078 168.208 191.864C168.208 192.654 168.109 193.329 167.91 193.888C167.711 194.444 167.423 194.869 167.047 195.163C166.67 195.454 166.215 195.599 165.68 195.599ZM165.68 194.818C166.21 194.818 166.622 194.562 166.915 194.051C167.209 193.54 167.356 192.811 167.356 191.864C167.356 191.234 167.288 190.698 167.153 190.255C167.021 189.812 166.829 189.475 166.578 189.243C166.33 189.011 166.03 188.895 165.68 188.895C165.154 188.895 164.743 189.154 164.447 189.673C164.152 190.189 164.004 190.919 164.004 191.864C164.004 192.493 164.07 193.028 164.202 193.469C164.335 193.909 164.526 194.244 164.774 194.474C165.025 194.703 165.327 194.818 165.68 194.818ZM172.384 195.5V190.045H173.194V190.898H173.265C173.379 190.607 173.562 190.38 173.815 190.219C174.069 190.056 174.373 189.974 174.728 189.974C175.088 189.974 175.387 190.056 175.626 190.219C175.868 190.38 176.056 190.607 176.191 190.898H176.248C176.388 190.616 176.597 190.392 176.876 190.227C177.156 190.058 177.491 189.974 177.881 189.974C178.369 189.974 178.768 190.127 179.078 190.433C179.388 190.736 179.543 191.208 179.543 191.849V195.5H178.705V191.849C178.705 191.447 178.595 191.159 178.375 190.987C178.155 190.814 177.896 190.727 177.597 190.727C177.214 190.727 176.917 190.843 176.706 191.075C176.495 191.305 176.39 191.596 176.39 191.949V195.5H175.538V191.764C175.538 191.454 175.437 191.204 175.236 191.015C175.035 190.823 174.775 190.727 174.458 190.727C174.24 190.727 174.037 190.785 173.847 190.901C173.66 191.017 173.509 191.178 173.393 191.384C173.279 191.588 173.222 191.823 173.222 192.091V195.5H172.384ZM181.076 195.5V190.045H181.885V190.898H181.956C182.07 190.607 182.253 190.38 182.507 190.219C182.76 190.056 183.064 189.974 183.419 189.974C183.779 189.974 184.079 190.056 184.318 190.219C184.559 190.38 184.748 190.607 184.882 190.898H184.939C185.079 190.616 185.288 190.392 185.568 190.227C185.847 190.058 186.182 189.974 186.573 189.974C187.06 189.974 187.459 190.127 187.77 190.433C188.08 190.736 188.235 191.208 188.235 191.849V195.5H187.397V191.849C187.397 191.447 187.287 191.159 187.066 190.987C186.846 190.814 186.587 190.727 186.289 190.727C185.905 190.727 185.608 190.843 185.397 191.075C185.187 191.305 185.081 191.596 185.081 191.949V195.5H184.229V191.764C184.229 191.454 184.128 191.204 183.927 191.015C183.726 190.823 183.467 190.727 183.15 190.727C182.932 190.727 182.728 190.785 182.539 190.901C182.352 191.017 182.2 191.178 182.084 191.384C181.971 191.588 181.914 191.823 181.914 192.091V195.5H181.076Z" fill="#222222"/>
</svg>
