<svg width="24" height="24" viewBox="0 0 24 24" fill="none" xmlns="http://www.w3.org/2000/svg">
<path d="M5 19C4.4359 19 3.96154 18.8077 3.57692 18.4231C3.19231 18.0385 3 17.5641 3 17C3 16.4359 3.19231 15.9615 3.57692 15.5769C3.96154 15.1923 4.4359 15 5 15H19C19.5641 15 20.0385 15.1923 20.4231 15.5769C20.8077 15.9615 21 16.4359 21 17C21 17.5641 20.8077 18.0385 20.4231 18.4231C20.0385 18.8077 19.5641 19 19 19H5ZM5 18H19C19.2833 18 19.5208 17.9042 19.7125 17.7125C19.9042 17.5208 20 17.2833 20 17C20 16.7167 19.9042 16.4792 19.7125 16.2875C19.5208 16.0958 19.2833 16 19 16H5C4.71667 16 4.47917 16.0958 4.2875 16.2875C4.09583 16.4792 4 16.7167 4 17C4 17.2833 4.09583 17.5208 4.2875 17.7125C4.47917 17.9042 4.71667 18 5 18ZM11.7612 13C11.5345 13 11.3445 12.9233 11.1913 12.77C11.0381 12.6166 10.9615 12.4266 10.9615 12.1999V5.79962C10.9615 5.57294 11.0382 5.383 11.1916 5.2298C11.3449 5.0766 11.5349 5 11.7616 5H18.1619C18.3886 5 18.5785 5.07667 18.7317 5.23C18.8849 5.38335 18.9615 5.57336 18.9615 5.80003V12.2004C18.9615 12.427 18.8849 12.617 18.7315 12.7702C18.5782 12.9234 18.3882 13 18.1615 13H11.7612ZM11.9615 12H17.9615V6H11.9615V12ZM3 11.4885V10.5057H8.94423V11.4885H3ZM12.9615 8.5H16.9615V7.50575H12.9615V8.5ZM5 8.5H8.94423V7.50575H5V8.5Z" fill="var(--colors-neutral-neutral-800)"/>
</svg>
