<svg width="65" height="12" viewBox="0 0 65 12" fill="none" xmlns="http://www.w3.org/2000/svg">
<path d="M0.755814 4.80995C0.338389 4.80995 0 5.14834 0 5.56576C0 5.98319 0.338389 6.32158 0.755814 6.32158V4.80995ZM64.7786 6.1002C65.0738 5.80504 65.0738 5.32649 64.7786 5.03132L59.9687 0.221351C59.6735 -0.0738128 59.1949 -0.0738128 58.8998 0.221351C58.6046 0.516515 58.6046 0.99507 58.8998 1.29023L63.1753 5.56576L58.8998 9.84129C58.6046 10.1365 58.6046 10.615 58.8998 10.9102C59.1949 11.2053 59.6735 11.2053 59.9687 10.9102L64.7786 6.1002ZM0.755814 6.32158L64.2442 6.32158V4.80995L0.755814 4.80995V6.32158Z" fill="#B42318"/>
</svg>
