<svg width="24" height="24" viewBox="0 0 24 24" fill="none" xmlns="http://www.w3.org/2000/svg">
<rect width="24" height="24" rx="2" fill="var(--colors-primary-primary-300)"/>
<path d="M11.7692 19C11.55 19 11.367 18.9266 11.2202 18.7798C11.0734 18.633 11 18.45 11 18.2308V12.6539L5.60385 5.83077C5.46924 5.65127 5.45096 5.46794 5.54903 5.28077C5.64711 5.09359 5.80384 5 6.01923 5H17.9808C18.1962 5 18.3529 5.09359 18.451 5.28077C18.549 5.46794 18.5308 5.65127 18.3962 5.83077L13 12.6539V18.2308C13 18.45 12.9266 18.633 12.7798 18.7798C12.633 18.9266 12.45 19 12.2308 19H11.7692ZM12 12.3L16.95 6H7.05L12 12.3Z" fill="var(--colors-primary-primary-700)"/>
</svg>
