<svg width="320" height="72" viewBox="0 0 320 72" fill="none" xmlns="http://www.w3.org/2000/svg">
<g clip-path="url(#clip0_5364_27053)">
<rect width="288" height="32" transform="translate(16)" fill="white"/>
<path d="M16.483 13.5085V12.7273H21.9375V13.5085H19.6506V20H18.7699V13.5085H16.483ZM23.0978 22.0455C22.9558 22.0455 22.8291 22.0336 22.7179 22.0099C22.6066 21.9886 22.5297 21.9673 22.487 21.946L22.7001 21.2074C22.9037 21.2595 23.0836 21.2784 23.2399 21.2642C23.3961 21.25 23.5346 21.1802 23.6554 21.0547C23.7785 20.9316 23.8909 20.7315 23.9927 20.4545L24.149 20.0284L22.1319 14.5455H23.041L24.5467 18.892H24.6035L26.1092 14.5455H27.0183L24.7029 20.7955C24.5988 21.0772 24.4698 21.3104 24.3159 21.495C24.162 21.6821 23.9833 21.8205 23.7797 21.9105C23.5784 22.0005 23.3511 22.0455 23.0978 22.0455ZM28.1245 22.0455V14.5455H28.9341V15.4119H29.0336C29.0951 15.3172 29.1803 15.1965 29.2892 15.0497C29.4005 14.9006 29.5591 14.768 29.7651 14.652C29.9734 14.5336 30.2551 14.4744 30.6103 14.4744C31.0695 14.4744 31.4744 14.5893 31.8248 14.8189C32.1751 15.0485 32.4486 15.3741 32.6451 15.7955C32.8416 16.2169 32.9398 16.714 32.9398 17.2869C32.9398 17.8646 32.8416 18.3653 32.6451 18.7891C32.4486 19.2105 32.1763 19.5372 31.8283 19.7692C31.4803 19.9988 31.079 20.1136 30.6245 20.1136C30.2741 20.1136 29.9935 20.0556 29.7828 19.9396C29.5721 19.8213 29.41 19.6875 29.2963 19.5384C29.1827 19.3868 29.0951 19.2614 29.0336 19.1619H28.9625V22.0455H28.1245ZM28.9483 17.2727C28.9483 17.6847 29.0087 18.0481 29.1294 18.3629C29.2502 18.6754 29.4266 18.9205 29.6586 19.098C29.8906 19.2732 30.1747 19.3608 30.5108 19.3608C30.8612 19.3608 31.1536 19.2685 31.388 19.0838C31.6247 18.8968 31.8023 18.6458 31.9206 18.331C32.0414 18.0137 32.1017 17.661 32.1017 17.2727C32.1017 16.8892 32.0426 16.5436 31.9242 16.2358C31.8082 15.9257 31.6318 15.6806 31.3951 15.5007C31.1607 15.3184 30.8659 15.2273 30.5108 15.2273C30.1699 15.2273 29.8835 15.3137 29.6515 15.4865C29.4194 15.657 29.2443 15.8961 29.1259 16.2038C29.0075 16.5092 28.9483 16.8655 28.9483 17.2727ZM36.5051 20.1136C35.9796 20.1136 35.5262 19.9976 35.1451 19.7656C34.7663 19.5312 34.4739 19.2045 34.2679 18.7855C34.0643 18.3641 33.9625 17.8741 33.9625 17.3153C33.9625 16.7566 34.0643 16.2642 34.2679 15.8381C34.4739 15.4096 34.7604 15.0758 35.1273 14.8366C35.4966 14.5952 35.9275 14.4744 36.4199 14.4744C36.704 14.4744 36.9846 14.5218 37.2615 14.6165C37.5385 14.7112 37.7907 14.8651 38.0179 15.0781C38.2452 15.2888 38.4263 15.5682 38.5613 15.9162C38.6962 16.2642 38.7637 16.6927 38.7637 17.2017V17.5568H34.5591V16.8324H37.9114C37.9114 16.5246 37.8498 16.25 37.7267 16.0085C37.606 15.767 37.4332 15.5765 37.2083 15.4368C36.9857 15.2971 36.723 15.2273 36.4199 15.2273C36.0861 15.2273 35.7973 15.3101 35.5534 15.4759C35.312 15.6392 35.1261 15.8523 34.9959 16.1151C34.8657 16.3778 34.8006 16.6596 34.8006 16.9602V17.4432C34.8006 17.8551 34.8716 18.2043 35.0137 18.4908C35.1581 18.7749 35.3581 18.9915 35.6138 19.1406C35.8695 19.2874 36.1666 19.3608 36.5051 19.3608C36.7253 19.3608 36.9242 19.33 37.1017 19.2685C37.2817 19.2045 37.4367 19.1098 37.5669 18.9844C37.6971 18.8565 37.7978 18.6979 37.8688 18.5085L38.6784 18.7358C38.5932 19.0104 38.45 19.2519 38.2488 19.4602C38.0475 19.6662 37.7989 19.8272 37.503 19.9432C37.2071 20.0568 36.8745 20.1136 36.5051 20.1136Z" fill="#222222"/>
<rect width="184" height="32" transform="translate(120)" fill="#F7F7F7"/>
<path d="M129.057 20V11.2727H134.324V12.2102H130.114V15.1591H134.051V16.0966H130.114V19.0625H134.392V20H129.057ZM137.098 16.0625V20H136.092V13.4545H137.064V14.4773H137.149C137.303 14.1449 137.536 13.8778 137.848 13.6761C138.161 13.4716 138.564 13.3693 139.058 13.3693C139.501 13.3693 139.889 13.4602 140.222 13.642C140.554 13.821 140.813 14.0938 140.997 14.4602C141.182 14.8239 141.274 15.2841 141.274 15.8409V20H140.268V15.9091C140.268 15.3949 140.135 14.9943 139.868 14.7074C139.601 14.4176 139.234 14.2727 138.768 14.2727C138.447 14.2727 138.161 14.3423 137.908 14.4815C137.658 14.6207 137.46 14.8239 137.315 15.0909C137.17 15.358 137.098 15.6818 137.098 16.0625ZM145.958 13.4545V14.3068H142.566V13.4545H145.958ZM143.555 11.8864H144.561V18.125C144.561 18.4091 144.602 18.6222 144.684 18.7642C144.77 18.9034 144.877 18.9972 145.008 19.0455C145.142 19.0909 145.282 19.1136 145.43 19.1136C145.541 19.1136 145.632 19.108 145.703 19.0966C145.774 19.0824 145.831 19.071 145.873 19.0625L146.078 19.9659C146.01 19.9915 145.914 20.017 145.792 20.0426C145.67 20.071 145.515 20.0852 145.328 20.0852C145.044 20.0852 144.765 20.0241 144.493 19.902C144.223 19.7798 143.998 19.5938 143.819 19.3438C143.643 19.0938 143.555 18.7784 143.555 18.3977V11.8864ZM147.471 20V13.4545H148.443V14.4432H148.511C148.63 14.1193 148.846 13.8565 149.159 13.6548C149.471 13.4531 149.824 13.3523 150.216 13.3523C150.289 13.3523 150.382 13.3537 150.493 13.3565C150.603 13.3594 150.687 13.3636 150.744 13.3693V14.392C150.71 14.3835 150.632 14.3707 150.51 14.3537C150.39 14.3338 150.264 14.3239 150.13 14.3239C149.812 14.3239 149.528 14.3906 149.278 14.5241C149.031 14.6548 148.835 14.8366 148.69 15.0696C148.548 15.2997 148.477 15.5625 148.477 15.858V20H147.471ZM152.783 22.4545C152.613 22.4545 152.461 22.4403 152.327 22.4119C152.194 22.3864 152.101 22.3608 152.05 22.3352L152.306 21.4489C152.55 21.5114 152.766 21.5341 152.953 21.517C153.141 21.5 153.307 21.4162 153.452 21.2656C153.6 21.1179 153.735 20.8778 153.857 20.5455L154.044 20.0341L151.624 13.4545H152.715L154.522 18.6705H154.59L156.397 13.4545H157.488L154.709 20.9545C154.584 21.2926 154.429 21.5724 154.245 21.794C154.06 22.0185 153.846 22.1847 153.601 22.2926C153.36 22.4006 153.087 22.4545 152.783 22.4545Z" fill="#222222"/>
<path d="M292 18.3077L288.192 14.5H295.808L292 18.3077Z" fill="#808080"/>
</g>
<g clip-path="url(#clip1_5364_27053)">
<rect width="288" height="32" transform="translate(16 40)" fill="white"/>
<path d="M18.2017 60L16.2131 52.7273H17.108L18.6278 58.6506H18.6989L20.2472 52.7273H21.2415L22.7898 58.6506H22.8608L24.3807 52.7273H25.2756L23.2869 60H22.3778L20.7727 54.2045H20.7159L19.1108 60H18.2017ZM27.3565 60.1278C27.0109 60.1278 26.6972 60.0627 26.4155 59.9325C26.1338 59.8 25.91 59.6094 25.7443 59.3608C25.5786 59.1098 25.4957 58.8068 25.4957 58.4517C25.4957 58.1392 25.5573 57.8859 25.6804 57.6918C25.8035 57.4953 25.968 57.3414 26.174 57.2301C26.38 57.1188 26.6072 57.036 26.8558 56.9815C27.1068 56.9247 27.3589 56.8797 27.6122 56.8466C27.9437 56.804 28.2124 56.772 28.4183 56.7507C28.6267 56.727 28.7782 56.688 28.8729 56.6335C28.9699 56.5791 29.0185 56.4844 29.0185 56.3494V56.321C29.0185 55.9706 28.9226 55.6984 28.7308 55.5043C28.5414 55.3101 28.2538 55.2131 27.8679 55.2131C27.4678 55.2131 27.1541 55.3007 26.9268 55.4759C26.6996 55.651 26.5398 55.8381 26.4474 56.0369L25.652 55.7528C25.794 55.4214 25.9834 55.1634 26.2202 54.9787C26.4593 54.7917 26.7197 54.6615 27.0014 54.5881C27.2855 54.5123 27.5649 54.4744 27.8395 54.4744C28.0147 54.4744 28.2159 54.4957 28.4432 54.5384C28.6728 54.5786 28.8942 54.6626 29.1072 54.7905C29.3227 54.9183 29.5014 55.1113 29.6435 55.3693C29.7855 55.6274 29.8565 55.973 29.8565 56.4062V60H29.0185V59.2614H28.9759C28.919 59.3797 28.8243 59.5064 28.6918 59.6413C28.5592 59.7763 28.3828 59.8911 28.1626 59.9858C27.9425 60.0805 27.6738 60.1278 27.3565 60.1278ZM27.4844 59.375C27.8158 59.375 28.0952 59.3099 28.3224 59.1797C28.5521 59.0495 28.7249 58.8814 28.8409 58.6754C28.9593 58.4695 29.0185 58.2528 29.0185 58.0256V57.2585C28.983 57.3011 28.9048 57.3402 28.7841 57.3757C28.6657 57.4089 28.5284 57.4384 28.3722 57.4645C28.2183 57.4882 28.0679 57.5095 27.9212 57.5284C27.7768 57.545 27.6596 57.5592 27.5696 57.571C27.3518 57.5994 27.1482 57.6456 26.9588 57.7095C26.7718 57.7711 26.6203 57.8646 26.5043 57.9901C26.3906 58.1132 26.3338 58.2812 26.3338 58.4943C26.3338 58.7855 26.4415 59.0057 26.657 59.1548C26.8748 59.3016 27.1506 59.375 27.4844 59.375ZM31.3862 60V54.5455H32.2243V60H31.3862ZM31.8123 53.6364C31.649 53.6364 31.5081 53.5807 31.3897 53.4695C31.2737 53.3582 31.2157 53.2244 31.2157 53.0682C31.2157 52.9119 31.2737 52.7782 31.3897 52.6669C31.5081 52.5556 31.649 52.5 31.8123 52.5C31.9757 52.5 32.1154 52.5556 32.2314 52.6669C32.3497 52.7782 32.4089 52.9119 32.4089 53.0682C32.4089 53.2244 32.3497 53.3582 32.2314 53.4695C32.1154 53.5807 31.9757 53.6364 31.8123 53.6364ZM36.1314 54.5455V55.2557H33.3047V54.5455H36.1314ZM34.1286 53.2386H34.9666V58.4375C34.9666 58.6742 35.0009 58.8518 35.0696 58.9702C35.1406 59.0862 35.2306 59.1643 35.3395 59.2045C35.4508 59.2424 35.5679 59.2614 35.6911 59.2614C35.7834 59.2614 35.8591 59.2566 35.9183 59.2472C35.9775 59.2353 36.0249 59.2259 36.0604 59.2188L36.2308 59.9716C36.174 59.9929 36.0947 60.0142 35.9929 60.0355C35.8911 60.0592 35.7621 60.071 35.6058 60.071C35.3691 60.071 35.1371 60.0201 34.9098 59.9183C34.6849 59.8165 34.4979 59.6615 34.3487 59.4531C34.2019 59.2448 34.1286 58.982 34.1286 58.6648V53.2386ZM42.5767 54.5455V55.2557H39.75V54.5455H42.5767ZM40.5739 53.2386H41.4119V58.4375C41.4119 58.6742 41.4463 58.8518 41.5149 58.9702C41.5859 59.0862 41.6759 59.1643 41.7848 59.2045C41.8961 59.2424 42.0133 59.2614 42.1364 59.2614C42.2287 59.2614 42.3045 59.2566 42.3636 59.2472C42.4228 59.2353 42.4702 59.2259 42.5057 59.2188L42.6761 59.9716C42.6193 59.9929 42.54 60.0142 42.4382 60.0355C42.3364 60.0592 42.2074 60.071 42.0511 60.071C41.8144 60.071 41.5824 60.0201 41.3551 59.9183C41.1302 59.8165 40.9432 59.6615 40.794 59.4531C40.6473 59.2448 40.5739 58.982 40.5739 58.6648V53.2386ZM43.8374 60V54.5455H44.6754V60H43.8374ZM44.2635 53.6364C44.1001 53.6364 43.9593 53.5807 43.8409 53.4695C43.7249 53.3582 43.6669 53.2244 43.6669 53.0682C43.6669 52.9119 43.7249 52.7782 43.8409 52.6669C43.9593 52.5556 44.1001 52.5 44.2635 52.5C44.4268 52.5 44.5665 52.5556 44.6825 52.6669C44.8009 52.7782 44.8601 52.9119 44.8601 53.0682C44.8601 53.2244 44.8009 53.3582 44.6825 53.4695C44.5665 53.5807 44.4268 53.6364 44.2635 53.6364ZM46.2104 60V54.5455H47.0201V55.3977H47.0911C47.2047 55.1065 47.3882 54.8804 47.6415 54.7195C47.8948 54.5561 48.199 54.4744 48.5542 54.4744C48.914 54.4744 49.2135 54.5561 49.4526 54.7195C49.6941 54.8804 49.8823 55.1065 50.0172 55.3977H50.074C50.2137 55.116 50.4232 54.8923 50.7026 54.7266C50.9819 54.5585 51.3169 54.4744 51.7076 54.4744C52.1953 54.4744 52.5942 54.6271 52.9043 54.9325C53.2144 55.2356 53.3695 55.7079 53.3695 56.3494V60H52.5314V56.3494C52.5314 55.947 52.4213 55.6593 52.2012 55.4865C51.981 55.3137 51.7218 55.2273 51.4235 55.2273C51.04 55.2273 50.7428 55.3433 50.5321 55.5753C50.3214 55.8049 50.2161 56.0961 50.2161 56.4489V60H49.3638V56.2642C49.3638 55.9541 49.2632 55.7043 49.062 55.5149C48.8607 55.3232 48.6015 55.2273 48.2843 55.2273C48.0665 55.2273 47.8629 55.2853 47.6735 55.4013C47.4864 55.5173 47.3349 55.6783 47.2189 55.8842C47.1053 56.0878 47.0485 56.3234 47.0485 56.5909V60H46.2104ZM57.1887 60.1136C56.6632 60.1136 56.2098 59.9976 55.8287 59.7656C55.4499 59.5312 55.1575 59.2045 54.9515 58.7855C54.7479 58.3641 54.6461 57.8741 54.6461 57.3153C54.6461 56.7566 54.7479 56.2642 54.9515 55.8381C55.1575 55.4096 55.444 55.0758 55.8109 54.8366C56.1802 54.5952 56.6111 54.4744 57.1035 54.4744C57.3876 54.4744 57.6681 54.5218 57.9451 54.6165C58.2221 54.7112 58.4743 54.8651 58.7015 55.0781C58.9288 55.2888 59.1099 55.5682 59.2449 55.9162C59.3798 56.2642 59.4473 56.6927 59.4473 57.2017V57.5568H55.2427V56.8324H58.595C58.595 56.5246 58.5334 56.25 58.4103 56.0085C58.2896 55.767 58.1168 55.5765 57.8919 55.4368C57.6693 55.2971 57.4065 55.2273 57.1035 55.2273C56.7697 55.2273 56.4809 55.3101 56.237 55.4759C55.9956 55.6392 55.8097 55.8523 55.6795 56.1151C55.5493 56.3778 55.4842 56.6596 55.4842 56.9602V57.4432C55.4842 57.8551 55.5552 58.2043 55.6973 58.4908C55.8417 58.7749 56.0417 58.9915 56.2974 59.1406C56.5531 59.2874 56.8502 59.3608 57.1887 59.3608C57.4089 59.3608 57.6078 59.33 57.7853 59.2685C57.9653 59.2045 58.1203 59.1098 58.2505 58.9844C58.3807 58.8565 58.4814 58.6979 58.5524 58.5085L59.362 58.7358C59.2768 59.0104 59.1336 59.2519 58.9324 59.4602C58.7311 59.6662 58.4825 59.8272 58.1866 59.9432C57.8907 60.0568 57.5581 60.1136 57.1887 60.1136Z" fill="#222222"/>
<rect width="184" height="32" transform="translate(120 40)" fill="#F7F7F7"/>
<path d="M131.75 60.1193C131.108 60.1193 130.561 59.9446 130.109 59.5952C129.658 59.2429 129.313 58.733 129.074 58.0653C128.835 57.3949 128.716 56.5852 128.716 55.6364C128.716 54.6932 128.835 53.8878 129.074 53.2202C129.315 52.5497 129.662 52.0384 130.114 51.6861C130.568 51.331 131.114 51.1534 131.75 51.1534C132.386 51.1534 132.93 51.331 133.382 51.6861C133.837 52.0384 134.183 52.5497 134.422 53.2202C134.663 53.8878 134.784 54.6932 134.784 55.6364C134.784 56.5852 134.665 57.3949 134.426 58.0653C134.188 58.733 133.842 59.2429 133.391 59.5952C132.939 59.9446 132.392 60.1193 131.75 60.1193ZM131.75 59.1818C132.386 59.1818 132.881 58.875 133.233 58.2614C133.585 57.6477 133.761 56.7727 133.761 55.6364C133.761 54.8807 133.68 54.2372 133.518 53.706C133.359 53.1747 133.129 52.7699 132.828 52.4915C132.53 52.2131 132.17 52.0739 131.75 52.0739C131.119 52.0739 130.626 52.3849 130.271 53.0071C129.916 53.6264 129.739 54.5028 129.739 55.6364C129.739 56.392 129.818 57.0341 129.977 57.5625C130.136 58.0909 130.365 58.4929 130.663 58.7685C130.964 59.044 131.327 59.1818 131.75 59.1818Z" fill="#222222"/>
<path d="M286 55.267L285.247 55.4801C285.2 55.3546 285.13 55.2327 285.037 55.1143C284.948 54.9936 284.824 54.8942 284.668 54.8161C284.512 54.7379 284.312 54.6989 284.068 54.6989C283.734 54.6989 283.456 54.7758 283.233 54.9297C283.013 55.0812 282.903 55.2741 282.903 55.5085C282.903 55.7169 282.979 55.8814 283.131 56.0021C283.282 56.1229 283.519 56.2235 283.841 56.304L284.65 56.5028C285.138 56.6212 285.501 56.8023 285.741 57.0462C285.98 57.2876 286.099 57.599 286.099 57.9801C286.099 58.2926 286.009 58.572 285.829 58.8182C285.652 59.0644 285.403 59.2585 285.084 59.4006C284.764 59.5426 284.392 59.6136 283.969 59.6136C283.412 59.6136 282.952 59.4929 282.587 59.2514C282.223 59.0099 281.992 58.6572 281.895 58.1932L282.69 57.9943C282.766 58.2879 282.909 58.508 283.12 58.6548C283.333 58.8016 283.611 58.875 283.954 58.875C284.345 58.875 284.655 58.7921 284.885 58.6264C285.117 58.4583 285.233 58.2571 285.233 58.0227C285.233 57.8333 285.166 57.6747 285.034 57.5469C284.901 57.4167 284.698 57.3196 284.423 57.2557L283.514 57.0426C283.015 56.9242 282.648 56.7408 282.413 56.4922C282.181 56.2412 282.065 55.9276 282.065 55.5511C282.065 55.2434 282.152 54.9711 282.324 54.7344C282.5 54.4976 282.738 54.3118 283.038 54.1768C283.341 54.0419 283.684 53.9744 284.068 53.9744C284.608 53.9744 285.032 54.0928 285.339 54.3295C285.649 54.5663 285.87 54.8788 286 55.267ZM289.648 59.6136C289.122 59.6136 288.669 59.4976 288.288 59.2656C287.909 59.0312 287.616 58.7045 287.411 58.2855C287.207 57.8641 287.105 57.3741 287.105 56.8153C287.105 56.2566 287.207 55.7642 287.411 55.3381C287.616 54.9096 287.903 54.5758 288.27 54.3366C288.639 54.0952 289.07 53.9744 289.562 53.9744C289.847 53.9744 290.127 54.0218 290.404 54.1165C290.681 54.2112 290.933 54.3651 291.161 54.5781C291.388 54.7888 291.569 55.0682 291.704 55.4162C291.839 55.7642 291.906 56.1927 291.906 56.7017V57.0568H287.702V56.3324H291.054C291.054 56.0246 290.992 55.75 290.869 55.5085C290.749 55.267 290.576 55.0765 290.351 54.9368C290.128 54.7971 289.866 54.7273 289.562 54.7273C289.229 54.7273 288.94 54.8101 288.696 54.9759C288.455 55.1392 288.269 55.3523 288.138 55.6151C288.008 55.8778 287.943 56.1596 287.943 56.4602V56.9432C287.943 57.3551 288.014 57.7043 288.156 57.9908C288.301 58.2749 288.501 58.4915 288.756 58.6406C289.012 58.7874 289.309 58.8608 289.648 58.8608C289.868 58.8608 290.067 58.83 290.244 58.7685C290.424 58.7045 290.579 58.6098 290.71 58.4844C290.84 58.3565 290.94 58.1979 291.011 58.0085L291.821 58.2358C291.736 58.5104 291.593 58.7519 291.391 58.9602C291.19 59.1662 290.942 59.3272 290.646 59.4432C290.35 59.5568 290.017 59.6136 289.648 59.6136ZM295.397 59.6136C294.886 59.6136 294.445 59.4929 294.076 59.2514C293.707 59.0099 293.423 58.6773 293.224 58.2536C293.025 57.8298 292.925 57.3456 292.925 56.8011C292.925 56.2472 293.027 55.7583 293.231 55.3345C293.437 54.9084 293.723 54.5758 294.09 54.3366C294.46 54.0952 294.89 53.9744 295.383 53.9744C295.766 53.9744 296.112 54.0455 296.42 54.1875C296.728 54.3295 296.98 54.5284 297.176 54.7841C297.373 55.0398 297.495 55.3381 297.542 55.679H296.704C296.64 55.4304 296.498 55.2102 296.278 55.0185C296.06 54.8243 295.766 54.7273 295.397 54.7273C295.07 54.7273 294.784 54.8125 294.538 54.983C294.294 55.151 294.103 55.389 293.966 55.6967C293.831 56.0021 293.763 56.3608 293.763 56.7727C293.763 57.1941 293.83 57.5611 293.962 57.8736C294.097 58.1861 294.287 58.4287 294.531 58.6016C294.777 58.7744 295.066 58.8608 295.397 58.8608C295.615 58.8608 295.812 58.8229 295.99 58.7472C296.168 58.6714 296.318 58.5625 296.441 58.4205C296.564 58.2784 296.652 58.108 296.704 57.9091H297.542C297.495 58.2311 297.377 58.5211 297.19 58.7791C297.006 59.0348 296.761 59.2384 296.455 59.3899C296.152 59.5391 295.799 59.6136 295.397 59.6136Z" fill="#808080"/>
</g>
<defs>
<clipPath id="clip0_5364_27053">
<rect width="288" height="32" fill="white" transform="translate(16)"/>
</clipPath>
<clipPath id="clip1_5364_27053">
<rect width="288" height="32" fill="white" transform="translate(16 40)"/>
</clipPath>
</defs>
</svg>
