<svg width="304" height="97" viewBox="0 0 304 97" fill="none" xmlns="http://www.w3.org/2000/svg">
<path d="M304 95.5H0V96.5H304V95.5Z" fill="#E6E6E6"/>
<path d="M17.968 25.084V23.824H20.056C20.544 23.824 20.936 23.688 21.232 23.416C21.528 23.136 21.676 22.772 21.676 22.324C21.676 21.892 21.536 21.544 21.256 21.28C20.976 21.016 20.604 20.884 20.14 20.884H17.968V19.624H20.14C20.764 19.624 21.308 19.736 21.772 19.96C22.244 20.176 22.608 20.488 22.864 20.896C23.12 21.304 23.248 21.78 23.248 22.324C23.248 22.876 23.116 23.36 22.852 23.776C22.588 24.192 22.216 24.516 21.736 24.748C21.264 24.972 20.708 25.084 20.068 25.084H17.968ZM16.888 28V19.624H18.4V28H16.888ZM29.2887 28L29.2287 26.596V23.62C29.2287 23.204 29.0887 22.876 28.8087 22.636C28.5287 22.396 28.1407 22.276 27.6447 22.276C27.1727 22.276 26.7847 22.384 26.4807 22.6C26.1847 22.816 26.0167 23.112 25.9767 23.488H24.5847C24.6247 23.016 24.7767 22.612 25.0407 22.276C25.3127 21.94 25.6727 21.684 26.1207 21.508C26.5767 21.324 27.1007 21.232 27.6927 21.232C28.3007 21.232 28.8247 21.328 29.2647 21.52C29.7127 21.712 30.0567 21.992 30.2967 22.36C30.5367 22.728 30.6567 23.176 30.6567 23.704V28H29.2887ZM26.9847 28.144C26.5527 28.144 26.1687 28.064 25.8327 27.904C25.5047 27.744 25.2487 27.516 25.0647 27.22C24.8807 26.924 24.7887 26.58 24.7887 26.188C24.7887 25.508 25.0527 24.98 25.5807 24.604C26.1087 24.22 26.8407 24.028 27.7767 24.028H29.3967V25.06L27.7287 25.072C27.2487 25.072 26.8727 25.164 26.6007 25.348C26.3287 25.524 26.1927 25.78 26.1927 26.116C26.1927 26.38 26.2887 26.592 26.4807 26.752C26.6807 26.912 26.9527 26.992 27.2967 26.992C27.7367 26.992 28.1287 26.876 28.4727 26.644C28.8247 26.404 29.1087 26.076 29.3247 25.66L29.4807 26.668C29.2727 27.156 28.9567 27.524 28.5327 27.772C28.1087 28.02 27.5927 28.144 26.9847 28.144ZM37.1894 24.376V23.548C37.1894 23.22 37.0894 22.956 36.8894 22.756C36.6974 22.548 36.4174 22.444 36.0494 22.444C35.6014 22.444 35.1934 22.608 34.8254 22.936C34.4574 23.264 34.1494 23.78 33.9014 24.484L33.7214 23.14C33.9054 22.724 34.1214 22.376 34.3694 22.096C34.6254 21.808 34.9134 21.592 35.2334 21.448C35.5614 21.304 35.9174 21.232 36.3014 21.232C36.9814 21.232 37.5374 21.432 37.9694 21.832C38.4014 22.232 38.6174 22.804 38.6174 23.548V24.376H37.1894ZM32.7254 28V21.376H34.0814L34.1534 22.78V28H32.7254ZM40.1221 28V19.156H41.5621V22.312L41.4781 24.196L42.7501 22.816L44.2981 21.376H46.1701L41.5621 25.696V28H40.1221ZM44.6221 28L42.3781 24.028L43.6621 23.452L46.2901 28H44.6221ZM50.4468 28V21.376H51.8748V28H50.4468ZM48.1068 28V26.836H54.1188V28H48.1068ZM48.9588 22.54V21.376H51.1548V22.54H48.9588ZM50.3628 20.332V18.868H51.9228V20.332H50.3628ZM60.5434 28V23.86C60.5434 23.428 60.4234 23.084 60.1834 22.828C59.9514 22.572 59.6474 22.444 59.2714 22.444C58.8394 22.444 58.4474 22.6 58.0954 22.912C57.7514 23.216 57.4554 23.708 57.2074 24.388L56.9914 22.96C57.2554 22.376 57.6154 21.944 58.0714 21.664C58.5274 21.376 59.0154 21.232 59.5354 21.232C60.0394 21.232 60.4714 21.34 60.8314 21.556C61.1994 21.764 61.4794 22.06 61.6714 22.444C61.8714 22.82 61.9714 23.264 61.9714 23.776V28H60.5434ZM55.9234 28V21.376H57.2914L57.3514 22.768V28H55.9234ZM68.4321 22.24L68.4681 21.376H69.8361V27.22C69.8361 28.22 69.5681 28.98 69.0321 29.5C68.4961 30.02 67.6801 30.28 66.5841 30.28C65.9841 30.28 65.4641 30.2 65.0241 30.04C64.5841 29.888 64.2401 29.652 63.9921 29.332C63.7521 29.02 63.6161 28.624 63.5841 28.144H65.0841C65.1241 28.464 65.2721 28.704 65.5281 28.864C65.7841 29.024 66.1601 29.104 66.6561 29.104C67.2401 29.104 67.6761 28.952 67.9641 28.648C68.2601 28.352 68.4081 27.932 68.4081 27.388V26.668C68.1841 26.98 67.8921 27.224 67.5321 27.4C67.1801 27.576 66.7881 27.664 66.3561 27.664C65.7961 27.664 65.2961 27.524 64.8561 27.244C64.4241 26.964 64.0841 26.584 63.8361 26.104C63.5881 25.616 63.4641 25.068 63.4641 24.46C63.4641 23.796 63.5921 23.224 63.8481 22.744C64.1121 22.256 64.4681 21.884 64.9161 21.628C65.3641 21.372 65.8721 21.244 66.4401 21.244C66.8641 21.244 67.2481 21.336 67.5921 21.52C67.9441 21.704 68.2241 21.944 68.4321 22.24ZM66.6921 26.56C67.0921 26.56 67.4441 26.44 67.7481 26.2C68.0601 25.952 68.2801 25.628 68.4081 25.228V23.668C68.2801 23.26 68.0601 22.94 67.7481 22.708C67.4441 22.468 67.0921 22.348 66.6921 22.348C66.3401 22.348 66.0281 22.44 65.7561 22.624C65.4841 22.808 65.2721 23.056 65.1201 23.368C64.9681 23.68 64.8921 24.036 64.8921 24.436C64.8921 24.844 64.9681 25.208 65.1201 25.528C65.2721 25.84 65.4841 26.092 65.7561 26.284C66.0281 26.468 66.3401 26.56 66.6921 26.56ZM83.9215 28L83.8615 26.596V23.62C83.8615 23.204 83.7215 22.876 83.4415 22.636C83.1615 22.396 82.7735 22.276 82.2775 22.276C81.8055 22.276 81.4175 22.384 81.1135 22.6C80.8175 22.816 80.6495 23.112 80.6095 23.488H79.2175C79.2575 23.016 79.4095 22.612 79.6735 22.276C79.9455 21.94 80.3055 21.684 80.7535 21.508C81.2095 21.324 81.7335 21.232 82.3255 21.232C82.9335 21.232 83.4575 21.328 83.8975 21.52C84.3455 21.712 84.6895 21.992 84.9295 22.36C85.1695 22.728 85.2895 23.176 85.2895 23.704V28H83.9215ZM81.6175 28.144C81.1855 28.144 80.8015 28.064 80.4655 27.904C80.1375 27.744 79.8815 27.516 79.6975 27.22C79.5135 26.924 79.4215 26.58 79.4215 26.188C79.4215 25.508 79.6855 24.98 80.2135 24.604C80.7415 24.22 81.4735 24.028 82.4095 24.028H84.0295V25.06L82.3615 25.072C81.8815 25.072 81.5055 25.164 81.2335 25.348C80.9615 25.524 80.8255 25.78 80.8255 26.116C80.8255 26.38 80.9215 26.592 81.1135 26.752C81.3135 26.912 81.5855 26.992 81.9295 26.992C82.3695 26.992 82.7615 26.876 83.1055 26.644C83.4575 26.404 83.7415 26.076 83.9575 25.66L84.1135 26.668C83.9055 27.156 83.5895 27.524 83.1655 27.772C82.7415 28.02 82.2255 28.144 81.6175 28.144ZM91.8222 24.376V23.548C91.8222 23.22 91.7222 22.956 91.5222 22.756C91.3302 22.548 91.0502 22.444 90.6822 22.444C90.2342 22.444 89.8262 22.608 89.4582 22.936C89.0902 23.264 88.7822 23.78 88.5342 24.484L88.3542 23.14C88.5382 22.724 88.7542 22.376 89.0022 22.096C89.2582 21.808 89.5462 21.592 89.8662 21.448C90.1942 21.304 90.5502 21.232 90.9342 21.232C91.6142 21.232 92.1702 21.432 92.6022 21.832C93.0342 22.232 93.2502 22.804 93.2502 23.548V24.376H91.8222ZM87.3582 28V21.376H88.7142L88.7862 22.78V28H87.3582ZM98.0189 28.144C97.3229 28.144 96.7229 28.008 96.2189 27.736C95.7149 27.456 95.3269 27.056 95.0549 26.536C94.7909 26.016 94.6589 25.396 94.6589 24.676C94.6589 23.956 94.7949 23.34 95.0669 22.828C95.3389 22.308 95.7309 21.912 96.2429 21.64C96.7549 21.368 97.3669 21.232 98.0789 21.232C99.1829 21.232 99.9949 21.54 100.515 22.156C101.043 22.772 101.271 23.616 101.199 24.688H95.7989L95.8109 23.644L99.7349 23.656C99.7029 23.272 99.5349 22.964 99.2309 22.732C98.9269 22.5 98.5429 22.384 98.0789 22.384C97.4229 22.384 96.9269 22.588 96.5909 22.996C96.2549 23.404 96.0869 23.984 96.0869 24.736C96.0869 25.168 96.1629 25.556 96.3149 25.9C96.4669 26.236 96.6829 26.5 96.9629 26.692C97.2509 26.876 97.6029 26.968 98.0189 26.968C98.4909 26.968 98.8829 26.856 99.1949 26.632C99.5149 26.408 99.7109 26.108 99.7829 25.732H101.223C101.127 26.476 100.791 27.064 100.215 27.496C99.6469 27.928 98.9149 28.144 98.0189 28.144ZM107.336 28L107.276 26.596V23.62C107.276 23.204 107.136 22.876 106.856 22.636C106.576 22.396 106.188 22.276 105.692 22.276C105.22 22.276 104.832 22.384 104.528 22.6C104.232 22.816 104.064 23.112 104.024 23.488H102.632C102.672 23.016 102.824 22.612 103.088 22.276C103.36 21.94 103.72 21.684 104.168 21.508C104.624 21.324 105.148 21.232 105.74 21.232C106.348 21.232 106.872 21.328 107.312 21.52C107.76 21.712 108.104 21.992 108.344 22.36C108.584 22.728 108.704 23.176 108.704 23.704V28H107.336ZM105.032 28.144C104.6 28.144 104.216 28.064 103.88 27.904C103.552 27.744 103.296 27.516 103.112 27.22C102.928 26.924 102.836 26.58 102.836 26.188C102.836 25.508 103.1 24.98 103.628 24.604C104.156 24.22 104.888 24.028 105.824 24.028H107.444V25.06L105.776 25.072C105.296 25.072 104.92 25.164 104.648 25.348C104.376 25.524 104.24 25.78 104.24 26.116C104.24 26.38 104.336 26.592 104.528 26.752C104.728 26.912 105 26.992 105.344 26.992C105.784 26.992 106.176 26.876 106.52 26.644C106.872 26.404 107.156 26.076 107.372 25.66L107.528 26.668C107.32 27.156 107.004 27.524 106.58 27.772C106.156 28.02 105.64 28.144 105.032 28.144Z" fill="#222222"/>
<path d="M275.4 26.7019L274.692 25.9942L280 20.6865L285.308 25.9942L284.6 26.7019L280 22.1019L275.4 26.7019Z" fill="#222222"/>
<path d="M17.179 60.2273L19.3381 66.3494H19.4233L21.5824 60.2273H22.5057L19.8352 67.5H18.9261L16.2557 60.2273H17.179ZM25.304 67.6136C24.7784 67.6136 24.325 67.4976 23.9439 67.2656C23.5651 67.0312 23.2727 66.7045 23.0668 66.2855C22.8632 65.8641 22.7614 65.3741 22.7614 64.8153C22.7614 64.2566 22.8632 63.7642 23.0668 63.3381C23.2727 62.9096 23.5592 62.5758 23.9261 62.3366C24.2955 62.0952 24.7263 61.9744 25.2188 61.9744C25.5028 61.9744 25.7834 62.0218 26.0604 62.1165C26.3374 62.2112 26.5895 62.3651 26.8168 62.5781C27.044 62.7888 27.2251 63.0682 27.3601 63.4162C27.495 63.7642 27.5625 64.1927 27.5625 64.7017V65.0568H23.358V64.3324H26.7102C26.7102 64.0246 26.6487 63.75 26.5256 63.5085C26.4048 63.267 26.232 63.0765 26.0071 62.9368C25.7846 62.7971 25.5218 62.7273 25.2188 62.7273C24.8849 62.7273 24.5961 62.8101 24.3523 62.9759C24.1108 63.1392 23.925 63.3523 23.7947 63.6151C23.6645 63.8778 23.5994 64.1596 23.5994 64.4602V64.9432C23.5994 65.3551 23.6705 65.7043 23.8125 65.9908C23.9569 66.2749 24.157 66.4915 24.4126 66.6406C24.6683 66.7874 24.9654 66.8608 25.304 66.8608C25.5241 66.8608 25.723 66.83 25.9006 66.7685C26.0805 66.7045 26.2356 66.6098 26.3658 66.4844C26.496 66.3565 26.5966 66.1979 26.6676 66.0085L27.4773 66.2358C27.392 66.5104 27.2488 66.7519 27.0476 66.9602C26.8464 67.1662 26.5978 67.3272 26.3018 67.4432C26.0059 67.5568 25.6733 67.6136 25.304 67.6136ZM29.6754 64.2188V67.5H28.8374V60.2273H29.6754V62.8977H29.7464C29.8743 62.616 30.0661 62.3923 30.3217 62.2266C30.5798 62.0585 30.9231 61.9744 31.3516 61.9744C31.7232 61.9744 32.0488 62.049 32.3281 62.1982C32.6075 62.3449 32.8241 62.571 32.978 62.8764C33.1342 63.1795 33.2124 63.5653 33.2124 64.0341V67.5H32.3743V64.0909C32.3743 63.6577 32.2618 63.3227 32.0369 63.0859C31.8144 62.8468 31.5054 62.7273 31.1101 62.7273C30.8355 62.7273 30.5893 62.7853 30.3714 62.9013C30.156 63.0173 29.9856 63.1866 29.8601 63.4091C29.737 63.6316 29.6754 63.9015 29.6754 64.2188ZM34.7456 67.5V62.0455H35.5836V67.5H34.7456ZM35.1717 61.1364C35.0083 61.1364 34.8675 61.0807 34.7491 60.9695C34.6331 60.8582 34.5751 60.7244 34.5751 60.5682C34.5751 60.4119 34.6331 60.2782 34.7491 60.1669C34.8675 60.0556 35.0083 60 35.1717 60C35.335 60 35.4747 60.0556 35.5907 60.1669C35.7091 60.2782 35.7683 60.4119 35.7683 60.5682C35.7683 60.7244 35.7091 60.8582 35.5907 60.9695C35.4747 61.0807 35.335 61.1364 35.1717 61.1364ZM39.3345 67.6136C38.8232 67.6136 38.3828 67.4929 38.0135 67.2514C37.6442 67.0099 37.3601 66.6773 37.1612 66.2536C36.9624 65.8298 36.8629 65.3456 36.8629 64.8011C36.8629 64.2472 36.9647 63.7583 37.1683 63.3345C37.3743 62.9084 37.6607 62.5758 38.0277 62.3366C38.397 62.0952 38.8279 61.9744 39.3203 61.9744C39.7038 61.9744 40.0495 62.0455 40.3572 62.1875C40.665 62.3295 40.9171 62.5284 41.1136 62.7841C41.3101 63.0398 41.4321 63.3381 41.4794 63.679H40.6413C40.5774 63.4304 40.4354 63.2102 40.2152 63.0185C39.9974 62.8243 39.7038 62.7273 39.3345 62.7273C39.0078 62.7273 38.7214 62.8125 38.4751 62.983C38.2313 63.151 38.0407 63.389 37.9034 63.6967C37.7685 64.0021 37.701 64.3608 37.701 64.7727C37.701 65.1941 37.7673 65.5611 37.8999 65.8736C38.0348 66.1861 38.2242 66.4287 38.468 66.6016C38.7143 66.7744 39.0031 66.8608 39.3345 66.8608C39.5523 66.8608 39.75 66.8229 39.9276 66.7472C40.1051 66.6714 40.2554 66.5625 40.3786 66.4205C40.5017 66.2784 40.5893 66.108 40.6413 65.9091H41.4794C41.4321 66.2311 41.3149 66.5211 41.1278 66.7791C40.9432 67.0348 40.6982 67.2384 40.3928 67.3899C40.0897 67.5391 39.737 67.6136 39.3345 67.6136ZM43.5426 60.2273V67.5H42.7045V60.2273H43.5426ZM47.3645 67.6136C46.839 67.6136 46.3856 67.4976 46.0044 67.2656C45.6257 67.0312 45.3333 66.7045 45.1273 66.2855C44.9237 65.8641 44.8219 65.3741 44.8219 64.8153C44.8219 64.2566 44.9237 63.7642 45.1273 63.3381C45.3333 62.9096 45.6197 62.5758 45.9867 62.3366C46.356 62.0952 46.7869 61.9744 47.2793 61.9744C47.5634 61.9744 47.8439 62.0218 48.1209 62.1165C48.3979 62.2112 48.65 62.3651 48.8773 62.5781C49.1046 62.7888 49.2857 63.0682 49.4206 63.4162C49.5556 63.7642 49.623 64.1927 49.623 64.7017V65.0568H45.4185V64.3324H48.7708C48.7708 64.0246 48.7092 63.75 48.5861 63.5085C48.4654 63.267 48.2926 63.0765 48.0676 62.9368C47.8451 62.7971 47.5823 62.7273 47.2793 62.7273C46.9455 62.7273 46.6567 62.8101 46.4128 62.9759C46.1713 63.1392 45.9855 63.3523 45.8553 63.6151C45.7251 63.8778 45.66 64.1596 45.66 64.4602V64.9432C45.66 65.3551 45.731 65.7043 45.873 65.9908C46.0175 66.2749 46.2175 66.4915 46.4732 66.6406C46.7289 66.7874 47.026 66.8608 47.3645 66.8608C47.5847 66.8608 47.7836 66.83 47.9611 66.7685C48.141 66.7045 48.2961 66.6098 48.4263 66.4844C48.5565 66.3565 48.6571 66.1979 48.7282 66.0085L49.5378 66.2358C49.4526 66.5104 49.3094 66.7519 49.1081 66.9602C48.9069 67.1662 48.6583 67.3272 48.3624 67.4432C48.0665 67.5568 47.7338 67.6136 47.3645 67.6136Z" fill="#222222"/>
<path d="M145.179 67.5H144.256L146.926 60.2273H147.835L150.506 67.5H149.582L147.409 61.3778H147.352L145.179 67.5ZM145.52 64.6591H149.241V65.4403H145.52V64.6591ZM156.268 62.5C156.19 62.2609 156.087 62.0466 155.959 61.8572C155.834 61.6655 155.684 61.5021 155.508 61.3672C155.336 61.2322 155.139 61.1293 154.919 61.0582C154.699 60.9872 154.457 60.9517 154.194 60.9517C153.764 60.9517 153.372 61.063 153.019 61.2855C152.666 61.508 152.386 61.8359 152.177 62.2692C151.969 62.7024 151.865 63.2339 151.865 63.8636C151.865 64.4934 151.97 65.0249 152.181 65.4581C152.392 65.8913 152.677 66.2192 153.037 66.4418C153.397 66.6643 153.801 66.7756 154.251 66.7756C154.668 66.7756 155.035 66.6868 155.352 66.5092C155.672 66.3293 155.92 66.076 156.098 65.7493C156.278 65.4202 156.368 65.0331 156.368 64.5881L156.638 64.6449H154.45V63.8636H157.22V64.6449C157.22 65.2438 157.092 65.7647 156.836 66.2074C156.583 66.6501 156.233 66.9934 155.785 67.2372C155.34 67.4787 154.829 67.5994 154.251 67.5994C153.607 67.5994 153.041 67.4479 152.554 67.1449C152.068 66.8419 151.69 66.411 151.417 65.8523C151.148 65.2936 151.013 64.6307 151.013 63.8636C151.013 63.2884 151.09 62.7711 151.243 62.3118C151.4 61.8501 151.62 61.4571 151.904 61.1328C152.188 60.8085 152.524 60.5599 152.912 60.3871C153.301 60.2143 153.728 60.1278 154.194 60.1278C154.578 60.1278 154.935 60.1858 155.267 60.3018C155.601 60.4155 155.898 60.5777 156.158 60.7884C156.421 60.9967 156.64 61.2464 156.815 61.5376C156.99 61.8265 157.111 62.1473 157.177 62.5H156.268ZM158.728 67.5V60.2273H163.089V61.0085H159.609V63.4659H162.762V64.2472H159.609V67.5H158.728ZM167.906 67.5V68.2812H163.361V67.5H167.906ZM170.52 67.5994C170.032 67.5994 169.601 67.513 169.227 67.3402C168.856 67.165 168.566 66.9247 168.357 66.6193C168.149 66.3116 168.046 65.9612 168.048 65.5682C168.046 65.2604 168.106 64.9763 168.229 64.7159C168.353 64.4531 168.521 64.2341 168.734 64.0589C168.949 63.8814 169.189 63.7689 169.455 63.7216V63.679C169.107 63.589 168.83 63.3937 168.624 63.093C168.418 62.79 168.316 62.4455 168.318 62.0597C168.316 61.6903 168.409 61.3601 168.599 61.0689C168.788 60.7777 169.049 60.5481 169.38 60.38C169.714 60.2119 170.094 60.1278 170.52 60.1278C170.941 60.1278 171.318 60.2119 171.649 60.38C171.981 60.5481 172.241 60.7777 172.43 61.0689C172.622 61.3601 172.719 61.6903 172.722 62.0597C172.719 62.4455 172.614 62.79 172.406 63.093C172.2 63.3937 171.926 63.589 171.585 63.679V63.7216C171.848 63.7689 172.085 63.8814 172.295 64.0589C172.506 64.2341 172.674 64.4531 172.8 64.7159C172.925 64.9763 172.989 65.2604 172.991 65.5682C172.989 65.9612 172.883 66.3116 172.672 66.6193C172.464 66.9247 172.174 67.165 171.802 67.3402C171.433 67.513 171.005 67.5994 170.52 67.5994ZM170.52 66.8182C170.849 66.8182 171.133 66.7649 171.372 66.6584C171.611 66.5518 171.796 66.4015 171.926 66.2074C172.056 66.0133 172.123 65.786 172.125 65.5256C172.123 65.2509 172.052 65.0083 171.912 64.7976C171.772 64.5869 171.582 64.4212 171.34 64.3004C171.101 64.1797 170.828 64.1193 170.52 64.1193C170.21 64.1193 169.933 64.1797 169.689 64.3004C169.447 64.4212 169.257 64.5869 169.117 64.7976C168.98 65.0083 168.912 65.2509 168.915 65.5256C168.912 65.786 168.975 66.0133 169.103 66.2074C169.233 66.4015 169.419 66.5518 169.661 66.6584C169.902 66.7649 170.188 66.8182 170.52 66.8182ZM170.52 63.3665C170.78 63.3665 171.011 63.3144 171.212 63.2102C171.416 63.1061 171.576 62.9605 171.692 62.7734C171.808 62.5864 171.867 62.3674 171.869 62.1165C171.867 61.8703 171.809 61.656 171.695 61.4737C171.582 61.2891 171.424 61.147 171.223 61.0476C171.022 60.9458 170.787 60.8949 170.52 60.8949C170.248 60.8949 170.01 60.9458 169.806 61.0476C169.603 61.147 169.445 61.2891 169.334 61.4737C169.223 61.656 169.168 61.8703 169.17 62.1165C169.168 62.3674 169.224 62.5864 169.337 62.7734C169.453 62.9605 169.613 63.1061 169.817 63.2102C170.02 63.3144 170.255 63.3665 170.52 63.3665ZM174.779 67.5H173.855L176.526 60.2273H177.435L180.105 67.5H179.182L177.009 61.3778H176.952L174.779 67.5ZM175.119 64.6591H178.841V65.4403H175.119V64.6591ZM181.238 67.5V60.2273H185.599V61.0085H182.119V63.4659H185.272V64.2472H182.119V67.5H181.238ZM187.107 67.5V60.2273H189.65C190.156 60.2273 190.574 60.3149 190.903 60.4901C191.232 60.6629 191.478 60.8961 191.638 61.1896C191.799 61.4808 191.88 61.804 191.88 62.1591C191.88 62.4716 191.824 62.7296 191.713 62.9332C191.604 63.1368 191.46 63.2978 191.28 63.4162C191.102 63.5346 190.909 63.6222 190.701 63.679V63.75C190.924 63.7642 191.147 63.8423 191.372 63.9844C191.597 64.1264 191.785 64.33 191.937 64.5952C192.088 64.8603 192.164 65.1847 192.164 65.5682C192.164 65.9328 192.081 66.2607 191.915 66.5518C191.75 66.843 191.488 67.0739 191.131 67.2443C190.773 67.4148 190.308 67.5 189.735 67.5H187.107ZM187.988 66.7188H189.735C190.31 66.7188 190.719 66.6075 190.96 66.3849C191.204 66.16 191.326 65.8878 191.326 65.5682C191.326 65.322 191.263 65.0947 191.138 64.8864C191.012 64.6757 190.834 64.5076 190.602 64.3821C190.37 64.2543 190.095 64.1903 189.778 64.1903H187.988V66.7188ZM187.988 63.4233H189.621C189.887 63.4233 190.126 63.3712 190.339 63.267C190.554 63.1629 190.725 63.0161 190.85 62.8267C190.978 62.6373 191.042 62.4148 191.042 62.1591C191.042 61.8395 190.931 61.5684 190.708 61.3459C190.486 61.121 190.133 61.0085 189.65 61.0085H187.988V63.4233ZM193.611 67.5V60.2273H196.069C196.637 60.2273 197.103 60.3243 197.468 60.5185C197.832 60.7102 198.102 60.9742 198.277 61.3104C198.453 61.6465 198.54 62.0289 198.54 62.4574C198.54 62.8859 198.453 63.2659 198.277 63.5973C198.102 63.9287 197.833 64.1892 197.471 64.3786C197.109 64.5656 196.646 64.6591 196.083 64.6591H194.094V63.8636H196.054C196.443 63.8636 196.755 63.8068 196.992 63.6932C197.231 63.5795 197.404 63.4186 197.51 63.2102C197.619 62.9995 197.674 62.7486 197.674 62.4574C197.674 62.1662 197.619 61.9117 197.51 61.6939C197.401 61.4761 197.227 61.308 196.988 61.1896C196.749 61.0689 196.433 61.0085 196.04 61.0085H194.492V67.5H193.611ZM197.034 64.233L198.824 67.5H197.801L196.04 64.233H197.034ZM202.337 67.5994C201.868 67.5994 201.451 67.5189 201.084 67.358C200.719 67.197 200.429 66.9732 200.214 66.6868C200.001 66.398 199.885 66.063 199.866 65.6818H200.76C200.779 65.9162 200.86 66.1186 201.002 66.2891C201.144 66.4571 201.33 66.5874 201.559 66.6797C201.789 66.772 202.044 66.8182 202.323 66.8182C202.635 66.8182 202.912 66.7637 203.154 66.6548C203.395 66.5459 203.585 66.3944 203.722 66.2003C203.859 66.0062 203.928 65.7812 203.928 65.5256C203.928 65.258 203.862 65.0225 203.729 64.8189C203.597 64.6129 203.403 64.4519 203.147 64.3359C202.891 64.2199 202.579 64.1619 202.209 64.1619H201.627V63.3807H202.209C202.498 63.3807 202.751 63.3286 202.969 63.2244C203.189 63.1203 203.361 62.9735 203.484 62.7841C203.61 62.5947 203.672 62.3722 203.672 62.1165C203.672 61.8703 203.618 61.656 203.509 61.4737C203.4 61.2914 203.246 61.1494 203.047 61.0476C202.851 60.9458 202.619 60.8949 202.351 60.8949C202.1 60.8949 201.864 60.9411 201.641 61.0334C201.421 61.1233 201.241 61.2547 201.101 61.4276C200.962 61.598 200.886 61.804 200.874 62.0455H200.022C200.036 61.6643 200.151 61.3305 200.366 61.044C200.582 60.7552 200.863 60.5303 201.211 60.3693C201.562 60.2083 201.947 60.1278 202.366 60.1278C202.815 60.1278 203.201 60.219 203.523 60.4013C203.845 60.5812 204.093 60.8191 204.265 61.1151C204.438 61.411 204.525 61.7306 204.525 62.0739C204.525 62.4834 204.417 62.8326 204.202 63.1214C203.988 63.4103 203.698 63.6103 203.331 63.7216V63.7784C203.791 63.8542 204.149 64.0495 204.407 64.3643C204.666 64.6768 204.795 65.0639 204.795 65.5256C204.795 65.9209 204.687 66.276 204.471 66.5909C204.258 66.9034 203.967 67.1496 203.598 67.3295C203.229 67.5095 202.808 67.5994 202.337 67.5994ZM208.619 67.5994C208.084 67.5994 207.628 67.4538 207.252 67.1626C206.876 66.8691 206.588 66.4441 206.389 65.8878C206.19 65.3291 206.091 64.6544 206.091 63.8636C206.091 63.0777 206.19 62.4065 206.389 61.8501C206.59 61.2914 206.879 60.8653 207.256 60.5717C207.634 60.2758 208.089 60.1278 208.619 60.1278C209.149 60.1278 209.603 60.2758 209.979 60.5717C210.358 60.8653 210.647 61.2914 210.846 61.8501C211.047 62.4065 211.148 63.0777 211.148 63.8636C211.148 64.6544 211.048 65.3291 210.849 65.8878C210.65 66.4441 210.363 66.8691 209.986 67.1626C209.61 67.4538 209.154 67.5994 208.619 67.5994ZM208.619 66.8182C209.149 66.8182 209.561 66.5625 209.855 66.0511C210.148 65.5398 210.295 64.8106 210.295 63.8636C210.295 63.2339 210.228 62.6977 210.093 62.255C209.96 61.8123 209.769 61.4749 209.518 61.2429C209.269 61.0109 208.97 60.8949 208.619 60.8949C208.094 60.8949 207.683 61.1541 207.387 61.6726C207.091 62.1887 206.943 62.919 206.943 63.8636C206.943 64.4934 207.009 65.0284 207.142 65.4688C207.274 65.9091 207.465 66.2441 207.714 66.4737C207.965 66.7034 208.266 66.8182 208.619 66.8182Z" fill="#222222"/>
<path d="M221 65.8013L217.461 62.2628L217.933 61.791L221 64.8577L224.067 61.791L224.538 62.2628L221 65.8013Z" fill="#D9D9D9"/>
<path d="M274.461 65C274.186 65 273.951 64.9021 273.755 64.7063C273.559 64.5104 273.461 64.275 273.461 64C273.461 63.725 273.559 63.4896 273.755 63.2938C273.951 63.0979 274.186 63 274.461 63C274.736 63 274.972 63.0979 275.168 63.2938C275.364 63.4896 275.461 63.725 275.461 64C275.461 64.275 275.364 64.5104 275.168 64.7063C274.972 64.9021 274.736 65 274.461 65ZM280 65C279.725 65 279.489 64.9021 279.294 64.7063C279.098 64.5104 279 64.275 279 64C279 63.725 279.098 63.4896 279.294 63.2938C279.489 63.0979 279.725 63 280 63C280.275 63 280.51 63.0979 280.706 63.2938C280.902 63.4896 281 63.725 281 64C281 64.275 280.902 64.5104 280.706 64.7063C280.51 64.9021 280.275 65 280 65ZM285.538 65C285.263 65 285.028 64.9021 284.832 64.7063C284.636 64.5104 284.538 64.275 284.538 64C284.538 63.725 284.636 63.4896 284.832 63.2938C285.028 63.0979 285.263 63 285.538 63C285.813 63 286.049 63.0979 286.245 63.2938C286.44 63.4896 286.538 63.725 286.538 64C286.538 64.275 286.44 64.5104 286.245 64.7063C286.049 64.9021 285.813 65 285.538 65Z" fill="#222222"/>
</svg>
