<svg width="110" height="47" viewBox="0 0 110 47" fill="none" xmlns="http://www.w3.org/2000/svg">
<g filter="url(#filter0_d_3074_2891)">
<rect x="3" y="2" width="104" height="41" rx="4" fill="white" shape-rendering="crispEdges"/>
<rect x="11" y="10.5" width="24" height="24" rx="4" fill="white"/>
<path d="M13.9615 29.4038V15.5961H32.0385V29.4038H13.9615ZM14.9615 19.8654H18.2308V16.5961H14.9615V19.8654ZM19.2308 19.8654H22.5V16.5961H19.2308V19.8654ZM23.5 19.8654H26.7692V16.5961H23.5V19.8654ZM27.7692 19.8654H31.0384V16.5961H27.7692V19.8654ZM27.7692 24.1346H31.0384V20.8654H27.7692V24.1346ZM23.5 24.1346H26.7692V20.8654H23.5V24.1346ZM19.2308 24.1346H22.5V20.8654H19.2308V24.1346ZM18.2308 20.8654H14.9615V24.1346H18.2308V20.8654ZM27.7692 28.4038H31.0384V25.1346H27.7692V28.4038ZM23.5 28.4038H26.7692V25.1346H23.5V28.4038ZM19.2308 28.4038H22.5V25.1346H19.2308V28.4038ZM14.9615 28.4038H18.2308V25.1346H14.9615V28.4038Z" fill="#222222"/>
<rect x="43" y="10.5" width="24" height="24" rx="4" fill="white"/>
<path d="M48.6154 30.5C48.1551 30.5 47.7708 30.3458 47.4625 30.0375C47.1542 29.7292 47 29.3449 47 28.8846V16.1154C47 15.6551 47.1542 15.2708 47.4625 14.9625C47.7708 14.6542 48.1551 14.5 48.6154 14.5H61.3846C61.8449 14.5 62.2292 14.6542 62.5375 14.9625C62.8458 15.2708 63 15.6551 63 16.1154V28.8846C63 29.3449 62.8458 29.7292 62.5375 30.0375C62.2292 30.3458 61.8449 30.5 61.3846 30.5H48.6154ZM48.6154 29.5H61.3846C61.5641 29.5 61.7115 29.4423 61.8269 29.3269C61.9423 29.2115 62 29.0641 62 28.8846V16.1154C62 15.9359 61.9423 15.7885 61.8269 15.6731C61.7115 15.5577 61.5641 15.5 61.3846 15.5H48.6154C48.4359 15.5 48.2885 15.5577 48.1731 15.6731C48.0577 15.7885 48 15.9359 48 16.1154V28.8846C48 29.0641 48.0577 29.2115 48.1731 29.3269C48.2885 29.4423 48.4359 29.5 48.6154 29.5Z" fill="#222222"/>
<rect x="75" y="10.5" width="24" height="24" rx="4" fill="white"/>
<path d="M86.1923 29.6462L81.3077 26.8096C81.0519 26.6626 80.8534 26.4653 80.712 26.218C80.5707 25.9706 80.5 25.6999 80.5 25.4058V19.7385C80.5 19.4443 80.5707 19.1736 80.712 18.9262C80.8534 18.6789 81.0519 18.4817 81.3077 18.3346L86.1923 15.4981C86.4491 15.3532 86.7193 15.2808 87.0031 15.2808C87.287 15.2808 87.5551 15.3532 87.8077 15.4981L92.6923 18.3346C92.9481 18.4817 93.1466 18.6789 93.288 18.9262C93.4293 19.1736 93.5 19.4443 93.5 19.7385V25.4058C93.5 25.6999 93.4293 25.9706 93.288 26.218C93.1466 26.4653 92.9481 26.6626 92.6923 26.8096L87.8077 29.6462C87.5509 29.791 87.2807 29.8635 86.9969 29.8635C86.713 29.8635 86.4449 29.791 86.1923 29.6462ZM86.5 28.6731V22.8423L81.5 20.0038V25.4115C81.5 25.5141 81.5256 25.6103 81.5769 25.7C81.6282 25.7898 81.7051 25.8667 81.8077 25.9308L86.5 28.6731ZM87.5 28.6731L92.1923 25.9308C92.2949 25.8667 92.3718 25.7898 92.4231 25.7C92.4744 25.6103 92.5 25.5141 92.5 25.4115V20.0038L87.5 22.8423V28.6731ZM77 16.5V14.8905C77 14.2199 77.2318 13.6538 77.6955 13.1923C78.1592 12.7308 78.7222 12.5 79.3846 12.5H81V13.5H79.3846C78.9923 13.5 78.6635 13.6327 78.3981 13.8981C78.1327 14.1635 78 14.4923 78 14.8846V16.5H77ZM79.3905 32.5C78.7199 32.5 78.1538 32.2682 77.6923 31.8045C77.2308 31.3408 77 30.7778 77 30.1154V28.5H78V30.1154C78 30.5077 78.1327 30.8365 78.3981 31.1019C78.6635 31.3673 78.9923 31.5 79.3846 31.5H81V32.5H79.3905ZM93 32.3077V31.3077H94.6154C95.0077 31.3077 95.3365 31.175 95.6019 30.9096C95.8673 30.6442 96 30.3154 96 29.9231V28.3077H97V29.9172C97 30.5878 96.7682 31.1539 96.3045 31.6154C95.8408 32.0769 95.2778 32.3077 94.6154 32.3077H93ZM96 16.5V14.8846C96 14.4923 95.8673 14.1635 95.6019 13.8981C95.3365 13.6327 95.0077 13.5 94.6154 13.5H93V12.5H94.6095C95.2801 12.5 95.8462 12.7318 96.3077 13.1955C96.7692 13.6592 97 14.2222 97 14.8846V16.5H96ZM87 21.9769L92 19.1L87.3077 16.3962C87.2051 16.3321 87.1026 16.3 87 16.3C86.8974 16.3 86.7949 16.3321 86.6923 16.3962L82 19.1L87 21.9769Z" fill="#222222"/>
</g>
<defs>
<filter id="filter0_d_3074_2891" x="0" y="0" width="110" height="47" filterUnits="userSpaceOnUse" color-interpolation-filters="sRGB">
<feFlood flood-opacity="0" result="BackgroundImageFix"/>
<feColorMatrix in="SourceAlpha" type="matrix" values="0 0 0 0 0 0 0 0 0 0 0 0 0 0 0 0 0 0 127 0" result="hardAlpha"/>
<feOffset dy="1"/>
<feGaussianBlur stdDeviation="1.5"/>
<feComposite in2="hardAlpha" operator="out"/>
<feColorMatrix type="matrix" values="0 0 0 0 0 0 0 0 0 0 0 0 0 0 0 0 0 0 0.2 0"/>
<feBlend mode="normal" in2="BackgroundImageFix" result="effect1_dropShadow_3074_2891"/>
<feBlend mode="normal" in="SourceGraphic" in2="effect1_dropShadow_3074_2891" result="shape"/>
</filter>
</defs>
</svg>
