<svg width="304" height="52" viewBox="0 0 304 52" fill="none" xmlns="http://www.w3.org/2000/svg">
<mask id="path-1-inside-1_3786_54118" fill="white">
<path d="M0 0H304V52H0V0Z"/>
</mask>
<path d="M304 51H0V53H304V51Z" fill="var(--colors-neutral-neutral-400)" mask="url(#path-1-inside-1_3786_54118)"/>
<path d="M18.616 30L16.336 21.624H18.136L19.516 26.58L19.924 28.644L20.332 26.58L21.712 21.624H23.488L21.196 30H18.616ZM26.9007 30V23.352H28.5447V30H26.9007ZM24.6447 30V28.668H30.7647V30H24.6447ZM25.4967 24.684V23.352H27.7287V24.684H25.4967ZM26.8287 22.38V20.784H28.6047V22.38H26.8287ZM35.5814 30.144C34.8694 30.144 34.2574 30.004 33.7454 29.724C33.2414 29.444 32.8494 29.044 32.5694 28.524C32.2974 28.004 32.1614 27.388 32.1614 26.676C32.1614 25.948 32.2974 25.328 32.5694 24.816C32.8494 24.296 33.2494 23.9 33.7694 23.628C34.2894 23.348 34.9174 23.208 35.6534 23.208C36.7974 23.208 37.6294 23.528 38.1494 24.168C38.6774 24.808 38.9014 25.688 38.8214 26.808H33.4814V25.656H37.1414C37.1094 25.312 36.9534 25.036 36.6734 24.828C36.4014 24.612 36.0574 24.504 35.6414 24.504C35.0254 24.504 34.5654 24.696 34.2614 25.08C33.9654 25.464 33.8174 26.02 33.8174 26.748C33.8174 27.132 33.8854 27.48 34.0214 27.792C34.1574 28.104 34.3534 28.352 34.6094 28.536C34.8734 28.72 35.1974 28.812 35.5814 28.812C35.9974 28.812 36.3494 28.708 36.6374 28.5C36.9334 28.292 37.1134 28.024 37.1774 27.696H38.8214C38.7334 28.448 38.4014 29.044 37.8254 29.484C37.2494 29.924 36.5014 30.144 35.5814 30.144ZM40.6021 30L39.6301 23.328H41.1421L41.5861 26.844L41.7301 28.32L41.9701 26.844L42.5941 23.328H44.0701L44.7421 26.844L44.9821 28.344L45.1381 26.844L45.5581 23.328H47.0101L46.0621 30H44.1541L43.4941 26.712L43.3141 24.864L43.1461 26.712L42.4981 30H40.6021ZM51.1908 30.144C50.4788 30.144 49.8668 30.004 49.3548 29.724C48.8508 29.444 48.4588 29.044 48.1788 28.524C47.9068 28.004 47.7708 27.388 47.7708 26.676C47.7708 25.948 47.9068 25.328 48.1788 24.816C48.4588 24.296 48.8588 23.9 49.3788 23.628C49.8988 23.348 50.5268 23.208 51.2628 23.208C52.4068 23.208 53.2388 23.528 53.7588 24.168C54.2868 24.808 54.5108 25.688 54.4308 26.808H49.0908V25.656H52.7508C52.7188 25.312 52.5628 25.036 52.2828 24.828C52.0108 24.612 51.6668 24.504 51.2508 24.504C50.6348 24.504 50.1748 24.696 49.8708 25.08C49.5748 25.464 49.4268 26.02 49.4268 26.748C49.4268 27.132 49.4948 27.48 49.6308 27.792C49.7668 28.104 49.9628 28.352 50.2188 28.536C50.4828 28.72 50.8068 28.812 51.1908 28.812C51.6068 28.812 51.9588 28.708 52.2468 28.5C52.5428 28.292 52.7228 28.024 52.7868 27.696H54.4308C54.3428 28.448 54.0108 29.044 53.4348 29.484C52.8588 29.924 52.1108 30.144 51.1908 30.144ZM60.4714 26.52V25.656C60.4714 25.336 60.3834 25.08 60.2074 24.888C60.0314 24.688 59.7714 24.588 59.4274 24.588C59.0194 24.588 58.6434 24.732 58.2994 25.02C57.9634 25.3 57.6594 25.764 57.3874 26.412L57.1954 24.96C57.3954 24.576 57.6194 24.256 57.8674 24C58.1234 23.736 58.4034 23.54 58.7074 23.412C59.0194 23.276 59.3634 23.208 59.7394 23.208C60.4354 23.208 61.0074 23.416 61.4554 23.832C61.9034 24.248 62.1274 24.856 62.1274 25.656V26.52H60.4714ZM56.0194 30V23.352H57.5914L57.6754 24.648V30H56.0194Z" fill="var(--colors-neutral-neutral-800)"/>
<path d="M274.4 32.3078L273.692 31.6001L279.292 26.0001L273.692 20.4001L274.4 19.6924L280 25.2924L285.6 19.6924L286.308 20.4001L280.708 26.0001L286.308 31.6001L285.6 32.3078L280 26.7078L274.4 32.3078Z" fill="var(--colors-neutral-neutral-800)"/>
</svg>
