<svg width="24" height="24" viewBox="0 0 24 24" fill="none" xmlns="http://www.w3.org/2000/svg">
<path d="M3 19.5C2.5782 19.5 2.22275 19.3555 1.93365 19.0664C1.64455 18.7773 1.5 18.4218 1.5 18C1.5 17.5782 1.64455 17.2228 1.93365 16.9337C2.22275 16.6446 2.5782 16.5 3 16.5C3.12563 16.5 3.24198 16.5096 3.34905 16.5289C3.4561 16.5481 3.5577 16.5936 3.65385 16.6654L8.66537 11.6539C8.59359 11.5577 8.54808 11.4561 8.52885 11.3491C8.50962 11.242 8.5 11.1257 8.5 11C8.5 10.5782 8.64455 10.2228 8.93365 9.93367C9.22275 9.64457 9.5782 9.50002 10 9.50002C10.4218 9.50002 10.7773 9.64457 11.0663 9.93367C11.3554 10.2228 11.5 10.5782 11.5 11C11.5 11.0846 11.4577 11.2898 11.3731 11.6154L14.3846 14.6269C14.4808 14.5808 14.576 14.5481 14.6702 14.5289C14.7644 14.5096 14.8744 14.5 15 14.5C15.1256 14.5 15.2388 14.5096 15.3394 14.5289C15.4401 14.5481 15.532 14.5936 15.6154 14.6654L19.6654 10.6154C19.5936 10.5321 19.5481 10.4401 19.5289 10.3394C19.5096 10.2388 19.5 10.1257 19.5 10C19.5 9.57822 19.6446 9.22277 19.9337 8.93367C20.2227 8.64457 20.5782 8.50002 21 8.50002C21.4218 8.50002 21.7773 8.64457 22.0664 8.93367C22.3554 9.22277 22.5 9.57822 22.5 10C22.5 10.4218 22.3554 10.7773 22.0664 11.0664C21.7773 11.3555 21.4218 11.5 21 11.5C20.8744 11.5 20.7612 11.4904 20.6606 11.4712C20.5599 11.4519 20.468 11.4064 20.3846 11.3346L16.3346 15.3846C16.4064 15.468 16.4519 15.56 16.4712 15.6606C16.4904 15.7612 16.5 15.8744 16.5 16C16.5 16.4218 16.3554 16.7773 16.0663 17.0664C15.7773 17.3555 15.4218 17.5 15 17.5C14.5782 17.5 14.2228 17.3555 13.9337 17.0664C13.6446 16.7773 13.5 16.4218 13.5 16C13.5 15.8744 13.5096 15.758 13.5288 15.651C13.5481 15.5439 13.5936 15.4423 13.6654 15.3462L10.6538 12.3346C10.5577 12.4064 10.4561 12.4519 10.3491 12.4712C10.242 12.4904 10.1256 12.5 10 12.5C9.91538 12.5 9.71026 12.4577 9.38463 12.3731L4.37308 17.3846C4.41923 17.4808 4.45192 17.576 4.47115 17.6702C4.49038 17.7645 4.5 17.8744 4.5 18C4.5 18.4218 4.35545 18.7773 4.06635 19.0664C3.77725 19.3555 3.4218 19.5 3 19.5ZM4 9.18657L3.625 8.37502L2.81345 8.00002L3.625 7.62502L4 6.81347L4.375 7.62502L5.18655 8.00002L4.375 8.37502L4 9.18657ZM15 7.7885L14.4346 6.5654L13.2115 6.00002L14.4346 5.43465L15 4.21155L15.5654 5.43465L16.7885 6.00002L15.5654 6.5654L15 7.7885Z" fill="#B3B3B3"/>
</svg>
