<svg width="320" height="133" viewBox="0 0 320 133" fill="none" xmlns="http://www.w3.org/2000/svg">
<rect width="320" height="133" fill="white"/>
<path d="M17.0568 24V15.2727H18.1136V23.0625H22.1705V24H17.0568ZM26.3295 24.1364C25.7386 24.1364 25.2202 23.9957 24.7741 23.7145C24.331 23.4332 23.9844 23.0398 23.7344 22.5341C23.4872 22.0284 23.3636 21.4375 23.3636 20.7614C23.3636 20.0795 23.4872 19.4844 23.7344 18.9759C23.9844 18.4673 24.331 18.0724 24.7741 17.7912C25.2202 17.5099 25.7386 17.3693 26.3295 17.3693C26.9205 17.3693 27.4375 17.5099 27.8807 17.7912C28.3267 18.0724 28.6733 18.4673 28.9205 18.9759C29.1705 19.4844 29.2955 20.0795 29.2955 20.7614C29.2955 21.4375 29.1705 22.0284 28.9205 22.5341C28.6733 23.0398 28.3267 23.4332 27.8807 23.7145C27.4375 23.9957 26.9205 24.1364 26.3295 24.1364ZM26.3295 23.233C26.7784 23.233 27.1477 23.1179 27.4375 22.8878C27.7273 22.6577 27.9418 22.3551 28.081 21.9801C28.2202 21.6051 28.2898 21.1989 28.2898 20.7614C28.2898 20.3239 28.2202 19.9162 28.081 19.5384C27.9418 19.1605 27.7273 18.8551 27.4375 18.6222C27.1477 18.3892 26.7784 18.2727 26.3295 18.2727C25.8807 18.2727 25.5114 18.3892 25.2216 18.6222C24.9318 18.8551 24.7173 19.1605 24.5781 19.5384C24.4389 19.9162 24.3693 20.3239 24.3693 20.7614C24.3693 21.1989 24.4389 21.6051 24.5781 21.9801C24.7173 22.3551 24.9318 22.6577 25.2216 22.8878C25.5114 23.1179 25.8807 23.233 26.3295 23.233ZM32.7567 24.1534C32.342 24.1534 31.9656 24.0753 31.6275 23.919C31.2894 23.7599 31.021 23.5312 30.8221 23.233C30.6232 22.9318 30.5238 22.5682 30.5238 22.142C30.5238 21.767 30.5977 21.4631 30.7454 21.2301C30.8931 20.9943 31.0906 20.8097 31.3377 20.6761C31.5849 20.5426 31.8576 20.4432 32.1559 20.3778C32.457 20.3097 32.7596 20.2557 33.0636 20.2159C33.4613 20.1648 33.7837 20.1264 34.0309 20.1009C34.2809 20.0724 34.4627 20.0256 34.5763 19.9602C34.6928 19.8949 34.7511 19.7812 34.7511 19.6193V19.5852C34.7511 19.1648 34.636 18.8381 34.4059 18.6051C34.1786 18.3722 33.8335 18.2557 33.3704 18.2557C32.8903 18.2557 32.5138 18.3608 32.2411 18.571C31.9684 18.7812 31.7766 19.0057 31.6658 19.2443L30.7113 18.9034C30.8817 18.5057 31.109 18.196 31.3931 17.9744C31.68 17.75 31.9925 17.5937 32.3306 17.5057C32.6715 17.4148 33.0067 17.3693 33.3363 17.3693C33.5465 17.3693 33.788 17.3949 34.0607 17.446C34.3363 17.4943 34.6019 17.5952 34.8576 17.7486C35.1161 17.902 35.3306 18.1335 35.5011 18.4432C35.6715 18.7528 35.7567 19.1676 35.7567 19.6875V24H34.7511V23.1136H34.6999C34.6317 23.2557 34.5181 23.4077 34.359 23.5696C34.1999 23.7315 33.9883 23.8693 33.7241 23.983C33.4599 24.0966 33.1374 24.1534 32.7567 24.1534ZM32.9102 23.25C33.3079 23.25 33.6431 23.1719 33.9158 23.0156C34.1914 22.8594 34.3988 22.6577 34.538 22.4105C34.68 22.1634 34.7511 21.9034 34.7511 21.6307V20.7102C34.7085 20.7614 34.6147 20.8082 34.4698 20.8509C34.3278 20.8906 34.163 20.9261 33.9755 20.9574C33.7908 20.9858 33.6104 21.0114 33.4343 21.0341C33.261 21.054 33.1204 21.071 33.0124 21.0852C32.7511 21.1193 32.5067 21.1747 32.2795 21.2514C32.055 21.3253 31.8732 21.4375 31.734 21.5881C31.5977 21.7358 31.5295 21.9375 31.5295 22.1932C31.5295 22.5426 31.6587 22.8068 31.9173 22.9858C32.1786 23.1619 32.5096 23.25 32.9102 23.25ZM40.0639 24.1364C39.5185 24.1364 39.0369 23.9986 38.6193 23.723C38.2017 23.4446 37.875 23.0526 37.6392 22.5469C37.4034 22.0384 37.2855 21.4375 37.2855 20.7443C37.2855 20.0568 37.4034 19.4602 37.6392 18.9545C37.875 18.4489 38.2031 18.0582 38.6236 17.7827C39.044 17.5071 39.5298 17.3693 40.081 17.3693C40.5071 17.3693 40.8438 17.4403 41.0909 17.5824C41.3409 17.7216 41.5313 17.8807 41.6619 18.0597C41.7955 18.2358 41.8991 18.3807 41.973 18.4943H42.0582V15.2727H43.0639V24H42.0923V22.9943H41.973C41.8991 23.1136 41.794 23.2642 41.6577 23.446C41.5213 23.625 41.3267 23.7855 41.0739 23.9276C40.821 24.0668 40.4844 24.1364 40.0639 24.1364ZM40.2003 23.233C40.6037 23.233 40.9446 23.1278 41.223 22.9176C41.5014 22.7045 41.7131 22.4105 41.858 22.0355C42.0028 21.6577 42.0753 21.2216 42.0753 20.7273C42.0753 20.2386 42.0043 19.8111 41.8622 19.4446C41.7202 19.0753 41.5099 18.7884 41.2315 18.5838C40.9531 18.3764 40.6094 18.2727 40.2003 18.2727C39.7741 18.2727 39.419 18.3821 39.1349 18.6009C38.8537 18.8168 38.642 19.1108 38.5 19.483C38.3608 19.8523 38.2912 20.267 38.2912 20.7273C38.2912 21.1932 38.3622 21.6165 38.5043 21.9972C38.6491 22.375 38.8622 22.6761 39.1435 22.9006C39.4276 23.1222 39.7798 23.233 40.2003 23.233ZM51.4716 15.2727V24H50.4148V16.3807H50.3636L48.233 17.7955V16.7216L50.4148 15.2727H51.4716Z" fill="#222222"/>
<path d="M269.125 23.5994C268.59 23.5994 268.134 23.4538 267.758 23.1626C267.381 22.8691 267.094 22.4441 266.895 21.8878C266.696 21.3291 266.597 20.6544 266.597 19.8636C266.597 19.0777 266.696 18.4065 266.895 17.8501C267.096 17.2914 267.385 16.8653 267.761 16.5717C268.14 16.2758 268.595 16.1278 269.125 16.1278C269.655 16.1278 270.109 16.2758 270.485 16.5717C270.864 16.8653 271.153 17.2914 271.352 17.8501C271.553 18.4065 271.653 19.0777 271.653 19.8636C271.653 20.6544 271.554 21.3291 271.355 21.8878C271.156 22.4441 270.869 22.8691 270.492 23.1626C270.116 23.4538 269.66 23.5994 269.125 23.5994ZM269.125 22.8182C269.655 22.8182 270.067 22.5625 270.361 22.0511C270.654 21.5398 270.801 20.8106 270.801 19.8636C270.801 19.2339 270.734 18.6977 270.599 18.255C270.466 17.8123 270.274 17.4749 270.023 17.2429C269.775 17.0109 269.475 16.8949 269.125 16.8949C268.599 16.8949 268.189 17.1541 267.893 17.6726C267.597 18.1887 267.449 18.919 267.449 19.8636C267.449 20.4934 267.515 21.0284 267.648 21.4688C267.78 21.9091 267.971 22.2441 268.219 22.4737C268.47 22.7034 268.772 22.8182 269.125 22.8182ZM275.375 23.5994C274.84 23.5994 274.384 23.4538 274.008 23.1626C273.631 22.8691 273.344 22.4441 273.145 21.8878C272.946 21.3291 272.847 20.6544 272.847 19.8636C272.847 19.0777 272.946 18.4065 273.145 17.8501C273.346 17.2914 273.635 16.8653 274.011 16.5717C274.39 16.2758 274.845 16.1278 275.375 16.1278C275.905 16.1278 276.359 16.2758 276.735 16.5717C277.114 16.8653 277.403 17.2914 277.602 17.8501C277.803 18.4065 277.903 19.0777 277.903 19.8636C277.903 20.6544 277.804 21.3291 277.605 21.8878C277.406 22.4441 277.119 22.8691 276.742 23.1626C276.366 23.4538 275.91 23.5994 275.375 23.5994ZM275.375 22.8182C275.905 22.8182 276.317 22.5625 276.611 22.0511C276.904 21.5398 277.051 20.8106 277.051 19.8636C277.051 19.2339 276.984 18.6977 276.849 18.255C276.716 17.8123 276.524 17.4749 276.273 17.2429C276.025 17.0109 275.725 16.8949 275.375 16.8949C274.849 16.8949 274.439 17.1541 274.143 17.6726C273.847 18.1887 273.699 18.919 273.699 19.8636C273.699 20.4934 273.765 21.0284 273.898 21.4688C274.03 21.9091 274.221 22.2441 274.469 22.4737C274.72 22.7034 275.022 22.8182 275.375 22.8182ZM279.878 22.5696C279.703 22.5696 279.552 22.5069 279.427 22.3814C279.301 22.2559 279.239 22.1056 279.239 21.9304C279.239 21.7552 279.301 21.6049 279.427 21.4794C279.552 21.3539 279.703 21.2912 279.878 21.2912C280.053 21.2912 280.203 21.3539 280.329 21.4794C280.454 21.6049 280.517 21.7552 280.517 21.9304C280.517 22.0464 280.487 22.1529 280.428 22.25C280.371 22.3471 280.295 22.4252 280.197 22.4844C280.103 22.5412 279.996 22.5696 279.878 22.5696ZM279.878 18.8906C279.703 18.8906 279.552 18.8279 279.427 18.7024C279.301 18.5769 279.239 18.4266 279.239 18.2514C279.239 18.0762 279.301 17.9259 279.427 17.8004C279.552 17.675 279.703 17.6122 279.878 17.6122C280.053 17.6122 280.203 17.675 280.329 17.8004C280.454 17.9259 280.517 18.0762 280.517 18.2514C280.517 18.3674 280.487 18.474 280.428 18.571C280.371 18.6681 280.295 18.7462 280.197 18.8054C280.103 18.8622 279.996 18.8906 279.878 18.8906ZM284.564 16.2273V23.5H283.683V17.1506H283.64L281.865 18.3295V17.4347L283.683 16.2273H284.564ZM289.027 23.5994C288.492 23.5994 288.037 23.4538 287.66 23.1626C287.284 22.8691 286.996 22.4441 286.797 21.8878C286.598 21.3291 286.499 20.6544 286.499 19.8636C286.499 19.0777 286.598 18.4065 286.797 17.8501C286.998 17.2914 287.287 16.8653 287.664 16.5717C288.042 16.2758 288.497 16.1278 289.027 16.1278C289.558 16.1278 290.011 16.2758 290.387 16.5717C290.766 16.8653 291.055 17.2914 291.254 17.8501C291.455 18.4065 291.556 19.0777 291.556 19.8636C291.556 20.6544 291.456 21.3291 291.257 21.8878C291.059 22.4441 290.771 22.8691 290.395 23.1626C290.018 23.4538 289.562 23.5994 289.027 23.5994ZM289.027 22.8182C289.558 22.8182 289.97 22.5625 290.263 22.0511C290.557 21.5398 290.703 20.8106 290.703 19.8636C290.703 19.2339 290.636 18.6977 290.501 18.255C290.368 17.8123 290.177 17.4749 289.926 17.2429C289.677 17.0109 289.378 16.8949 289.027 16.8949C288.502 16.8949 288.091 17.1541 287.795 17.6726C287.499 18.1887 287.351 18.919 287.351 19.8636C287.351 20.4934 287.417 21.0284 287.55 21.4688C287.683 21.9091 287.873 22.2441 288.122 22.4737C288.373 22.7034 288.675 22.8182 289.027 22.8182ZM293.53 22.5696C293.355 22.5696 293.205 22.5069 293.079 22.3814C292.954 22.2559 292.891 22.1056 292.891 21.9304C292.891 21.7552 292.954 21.6049 293.079 21.4794C293.205 21.3539 293.355 21.2912 293.53 21.2912C293.705 21.2912 293.856 21.3539 293.981 21.4794C294.107 21.6049 294.169 21.7552 294.169 21.9304C294.169 22.0464 294.14 22.1529 294.081 22.25C294.024 22.3471 293.947 22.4252 293.85 22.4844C293.755 22.5412 293.649 22.5696 293.53 22.5696ZM293.53 18.8906C293.355 18.8906 293.205 18.8279 293.079 18.7024C292.954 18.5769 292.891 18.4266 292.891 18.2514C292.891 18.0762 292.954 17.9259 293.079 17.8004C293.205 17.675 293.355 17.6122 293.53 17.6122C293.705 17.6122 293.856 17.675 293.981 17.8004C294.107 17.9259 294.169 18.0762 294.169 18.2514C294.169 18.3674 294.14 18.474 294.081 18.571C294.024 18.6681 293.947 18.7462 293.85 18.8054C293.755 18.8622 293.649 18.8906 293.53 18.8906ZM298.031 23.5994C297.496 23.5994 297.04 23.4538 296.664 23.1626C296.288 22.8691 296 22.4441 295.801 21.8878C295.602 21.3291 295.503 20.6544 295.503 19.8636C295.503 19.0777 295.602 18.4065 295.801 17.8501C296.002 17.2914 296.291 16.8653 296.668 16.5717C297.046 16.2758 297.501 16.1278 298.031 16.1278C298.562 16.1278 299.015 16.2758 299.391 16.5717C299.77 16.8653 300.059 17.2914 300.258 17.8501C300.459 18.4065 300.56 19.0777 300.56 19.8636C300.56 20.6544 300.46 21.3291 300.261 21.8878C300.062 22.4441 299.775 22.8691 299.398 23.1626C299.022 23.4538 298.566 23.5994 298.031 23.5994ZM298.031 22.8182C298.562 22.8182 298.973 22.5625 299.267 22.0511C299.561 21.5398 299.707 20.8106 299.707 19.8636C299.707 19.2339 299.64 18.6977 299.505 18.255C299.372 17.8123 299.181 17.4749 298.93 17.2429C298.681 17.0109 298.382 16.8949 298.031 16.8949C297.506 16.8949 297.095 17.1541 296.799 17.6726C296.503 18.1887 296.355 18.919 296.355 19.8636C296.355 20.4934 296.421 21.0284 296.554 21.4688C296.687 21.9091 296.877 22.2441 297.126 22.4737C297.377 22.7034 297.679 22.8182 298.031 22.8182ZM304.281 23.5994C303.746 23.5994 303.29 23.4538 302.914 23.1626C302.538 22.8691 302.25 22.4441 302.051 21.8878C301.852 21.3291 301.753 20.6544 301.753 19.8636C301.753 19.0777 301.852 18.4065 302.051 17.8501C302.252 17.2914 302.541 16.8653 302.918 16.5717C303.296 16.2758 303.751 16.1278 304.281 16.1278C304.812 16.1278 305.265 16.2758 305.641 16.5717C306.02 16.8653 306.309 17.2914 306.508 17.8501C306.709 18.4065 306.81 19.0777 306.81 19.8636C306.81 20.6544 306.71 21.3291 306.511 21.8878C306.312 22.4441 306.025 22.8691 305.648 23.1626C305.272 23.4538 304.816 23.5994 304.281 23.5994ZM304.281 22.8182C304.812 22.8182 305.223 22.5625 305.517 22.0511C305.811 21.5398 305.957 20.8106 305.957 19.8636C305.957 19.2339 305.89 18.6977 305.755 18.255C305.622 17.8123 305.431 17.4749 305.18 17.2429C304.931 17.0109 304.632 16.8949 304.281 16.8949C303.756 16.8949 303.345 17.1541 303.049 17.6726C302.753 18.1887 302.605 18.919 302.605 19.8636C302.605 20.4934 302.671 21.0284 302.804 21.4688C302.937 21.9091 303.127 22.2441 303.376 22.4737C303.627 22.7034 303.929 22.8182 304.281 22.8182Z" fill="#222222"/>
<circle cx="22" cy="47" r="4.5" stroke="#F2A900" stroke-width="3"/>
<path d="M22 51L22 110" stroke="#F2A900" stroke-width="3"/>
<rect width="57" height="13" transform="translate(34 39)" fill="#F7F7F7"/>
<path d="M44.8097 41.7273V49H43.929V42.6506H43.8864L42.1108 43.8295V42.9347L43.929 41.7273H44.8097ZM49.3161 49.0994C49.0178 49.0947 48.7195 49.0379 48.4212 48.929C48.1229 48.8201 47.8506 48.6366 47.6044 48.3786C47.3582 48.1181 47.1605 47.7666 47.0114 47.3239C46.8622 46.8788 46.7876 46.3201 46.7876 45.6477C46.7876 45.0038 46.848 44.4332 46.9688 43.9361C47.0895 43.4366 47.2647 43.0163 47.4943 42.6754C47.724 42.3321 48.0009 42.0717 48.3253 41.8942C48.652 41.7166 49.0201 41.6278 49.4297 41.6278C49.8369 41.6278 50.1991 41.7095 50.5163 41.8729C50.8359 42.0339 51.0964 42.2588 51.2976 42.5476C51.4988 42.8364 51.629 43.169 51.6882 43.5455H50.8217C50.7412 43.2187 50.585 42.9477 50.353 42.7322C50.121 42.5168 49.8132 42.4091 49.4297 42.4091C48.8662 42.4091 48.4223 42.6541 48.098 43.1442C47.776 43.6342 47.6139 44.322 47.6115 45.2074H47.6683C47.8009 45.0062 47.9583 44.8345 48.1406 44.6925C48.3253 44.5481 48.5289 44.4368 48.7514 44.3587C48.974 44.2805 49.2095 44.2415 49.4581 44.2415C49.8748 44.2415 50.2559 44.3456 50.6016 44.554C50.9472 44.7599 51.2242 45.0452 51.4325 45.4098C51.6409 45.772 51.745 46.1875 51.745 46.6562C51.745 47.1061 51.6444 47.518 51.4432 47.892C51.242 48.2637 50.959 48.5597 50.5945 48.7798C50.2322 48.9976 49.8061 49.1042 49.3161 49.0994ZM49.3161 48.3182C49.6143 48.3182 49.8819 48.2436 50.1186 48.0945C50.3577 47.9453 50.5459 47.7453 50.6832 47.4943C50.8229 47.2434 50.8928 46.964 50.8928 46.6562C50.8928 46.3556 50.8253 46.0821 50.6903 45.8359C50.5578 45.5874 50.3743 45.3897 50.1399 45.2429C49.9079 45.0961 49.6428 45.0227 49.3445 45.0227C49.1196 45.0227 48.91 45.0677 48.7159 45.1577C48.5218 45.2453 48.3513 45.366 48.2045 45.5199C48.0601 45.6738 47.9465 45.8501 47.8636 46.049C47.7808 46.2455 47.7393 46.4527 47.7393 46.6705C47.7393 46.9593 47.8068 47.2292 47.9418 47.4801C48.0791 47.7311 48.2661 47.9335 48.5028 48.0874C48.742 48.2412 49.013 48.3182 49.3161 48.3182ZM53.7665 48.0696C53.5913 48.0696 53.441 48.0069 53.3155 47.8814C53.19 47.7559 53.1273 47.6056 53.1273 47.4304C53.1273 47.2552 53.19 47.1049 53.3155 46.9794C53.441 46.8539 53.5913 46.7912 53.7665 46.7912C53.9417 46.7912 54.092 46.8539 54.2175 46.9794C54.343 47.1049 54.4057 47.2552 54.4057 47.4304C54.4057 47.5464 54.3761 47.6529 54.3169 47.75C54.2601 47.8471 54.1832 47.9252 54.0861 47.9844C53.9914 48.0412 53.8849 48.0696 53.7665 48.0696ZM53.7665 44.3906C53.5913 44.3906 53.441 44.3279 53.3155 44.2024C53.19 44.0769 53.1273 43.9266 53.1273 43.7514C53.1273 43.5762 53.19 43.4259 53.3155 43.3004C53.441 43.175 53.5913 43.1122 53.7665 43.1122C53.9417 43.1122 54.092 43.175 54.2175 43.3004C54.343 43.4259 54.4057 43.5762 54.4057 43.7514C54.4057 43.8674 54.3761 43.974 54.3169 44.071C54.2601 44.1681 54.1832 44.2462 54.0861 44.3054C53.9914 44.3622 53.8849 44.3906 53.7665 44.3906ZM58.1681 49.0994C57.7515 49.0994 57.3762 49.0166 57.0424 48.8509C56.7086 48.6851 56.4411 48.4579 56.2399 48.169C56.0386 47.8802 55.9286 47.5511 55.9096 47.1818H56.7619C56.795 47.5109 56.9442 47.7831 57.2093 47.9986C57.4769 48.2116 57.7965 48.3182 58.1681 48.3182C58.4664 48.3182 58.7316 48.2483 58.9636 48.1087C59.198 47.969 59.3815 47.7772 59.514 47.5334C59.649 47.2872 59.7164 47.009 59.7164 46.6989C59.7164 46.3816 59.6466 46.0987 59.5069 45.8501C59.3696 45.5992 59.1802 45.4015 58.9387 45.2571C58.6973 45.1127 58.4215 45.0393 58.1113 45.0369C57.8888 45.0346 57.6603 45.0689 57.426 45.1399C57.1916 45.2086 56.9986 45.2973 56.8471 45.4062L56.0233 45.3068L56.4636 41.7273H60.242V42.5085H57.2022L56.9466 44.6534H56.9892C57.1383 44.535 57.3253 44.4368 57.5502 44.3587C57.7752 44.2805 58.0095 44.2415 58.2534 44.2415C58.6984 44.2415 59.095 44.348 59.443 44.5611C59.7934 44.7718 60.068 45.0606 60.2669 45.4276C60.4681 45.7945 60.5687 46.2135 60.5687 46.6847C60.5687 47.1487 60.4645 47.563 60.2562 47.9276C60.0502 48.2898 59.7662 48.5762 59.4039 48.7869C59.0417 48.9953 58.6298 49.0994 58.1681 49.0994ZM64.3516 49.0994C63.8165 49.0994 63.3608 48.9538 62.9844 48.6626C62.608 48.3691 62.3203 47.9441 62.1214 47.3878C61.9226 46.8291 61.8232 46.1544 61.8232 45.3636C61.8232 44.5777 61.9226 43.9065 62.1214 43.3501C62.3227 42.7914 62.6115 42.3653 62.9879 42.0717C63.3667 41.7758 63.8213 41.6278 64.3516 41.6278C64.8819 41.6278 65.3352 41.7758 65.7116 42.0717C66.0904 42.3653 66.3793 42.7914 66.5781 43.3501C66.7794 43.9065 66.88 44.5777 66.88 45.3636C66.88 46.1544 66.7805 46.8291 66.5817 47.3878C66.3828 47.9441 66.0952 48.3691 65.7188 48.6626C65.3423 48.9538 64.8866 49.0994 64.3516 49.0994ZM64.3516 48.3182C64.8819 48.3182 65.2938 48.0625 65.5874 47.5511C65.8809 47.0398 66.0277 46.3106 66.0277 45.3636C66.0277 44.7339 65.9602 44.1977 65.8253 43.755C65.6927 43.3123 65.5009 42.9749 65.25 42.7429C65.0014 42.5109 64.7019 42.3949 64.3516 42.3949C63.826 42.3949 63.4152 42.6541 63.1193 43.1726C62.8234 43.6887 62.6754 44.419 62.6754 45.3636C62.6754 45.9934 62.7417 46.5284 62.8743 46.9688C63.0069 47.4091 63.1974 47.7441 63.446 47.9737C63.697 48.2034 63.9988 48.3182 64.3516 48.3182ZM68.8544 48.0696C68.6792 48.0696 68.5289 48.0069 68.4034 47.8814C68.2779 47.7559 68.2152 47.6056 68.2152 47.4304C68.2152 47.2552 68.2779 47.1049 68.4034 46.9794C68.5289 46.8539 68.6792 46.7912 68.8544 46.7912C69.0296 46.7912 69.1799 46.8539 69.3054 46.9794C69.4309 47.1049 69.4936 47.2552 69.4936 47.4304C69.4936 47.5464 69.464 47.6529 69.4048 47.75C69.348 47.8471 69.2711 47.9252 69.174 47.9844C69.0793 48.0412 68.9728 48.0696 68.8544 48.0696ZM68.8544 44.3906C68.6792 44.3906 68.5289 44.3279 68.4034 44.2024C68.2779 44.0769 68.2152 43.9266 68.2152 43.7514C68.2152 43.5762 68.2779 43.4259 68.4034 43.3004C68.5289 43.175 68.6792 43.1122 68.8544 43.1122C69.0296 43.1122 69.1799 43.175 69.3054 43.3004C69.4309 43.4259 69.4936 43.5762 69.4936 43.7514C69.4936 43.8674 69.464 43.974 69.4048 44.071C69.348 44.1681 69.2711 44.2462 69.174 44.3054C69.0793 44.3622 68.9728 44.3906 68.8544 44.3906ZM73.3555 49.0994C72.8204 49.0994 72.3647 48.9538 71.9883 48.6626C71.6119 48.3691 71.3242 47.9441 71.1254 47.3878C70.9265 46.8291 70.8271 46.1544 70.8271 45.3636C70.8271 44.5777 70.9265 43.9065 71.1254 43.3501C71.3266 42.7914 71.6154 42.3653 71.9918 42.0717C72.3706 41.7758 72.8252 41.6278 73.3555 41.6278C73.8858 41.6278 74.3391 41.7758 74.7156 42.0717C75.0943 42.3653 75.3832 42.7914 75.582 43.3501C75.7833 43.9065 75.8839 44.5777 75.8839 45.3636C75.8839 46.1544 75.7844 46.8291 75.5856 47.3878C75.3867 47.9441 75.0991 48.3691 74.7227 48.6626C74.3462 48.9538 73.8905 49.0994 73.3555 49.0994ZM73.3555 48.3182C73.8858 48.3182 74.2977 48.0625 74.5913 47.5511C74.8848 47.0398 75.0316 46.3106 75.0316 45.3636C75.0316 44.7339 74.9641 44.1977 74.8292 43.755C74.6966 43.3123 74.5049 42.9749 74.2539 42.7429C74.0053 42.5109 73.7058 42.3949 73.3555 42.3949C72.8299 42.3949 72.4192 42.6541 72.1232 43.1726C71.8273 43.6887 71.6793 44.419 71.6793 45.3636C71.6793 45.9934 71.7456 46.5284 71.8782 46.9688C72.0108 47.4091 72.2013 47.7441 72.4499 47.9737C72.7009 48.2034 73.0027 48.3182 73.3555 48.3182ZM79.6055 49.0994C79.0704 49.0994 78.6147 48.9538 78.2383 48.6626C77.8619 48.3691 77.5742 47.9441 77.3754 47.3878C77.1765 46.8291 77.0771 46.1544 77.0771 45.3636C77.0771 44.5777 77.1765 43.9065 77.3754 43.3501C77.5766 42.7914 77.8654 42.3653 78.2418 42.0717C78.6206 41.7758 79.0752 41.6278 79.6055 41.6278C80.1358 41.6278 80.5891 41.7758 80.9656 42.0717C81.3443 42.3653 81.6332 42.7914 81.832 43.3501C82.0333 43.9065 82.1339 44.5777 82.1339 45.3636C82.1339 46.1544 82.0344 46.8291 81.8356 47.3878C81.6367 47.9441 81.3491 48.3691 80.9727 48.6626C80.5962 48.9538 80.1405 49.0994 79.6055 49.0994ZM79.6055 48.3182C80.1358 48.3182 80.5477 48.0625 80.8413 47.5511C81.1348 47.0398 81.2816 46.3106 81.2816 45.3636C81.2816 44.7339 81.2141 44.1977 81.0792 43.755C80.9466 43.3123 80.7549 42.9749 80.5039 42.7429C80.2553 42.5109 79.9558 42.3949 79.6055 42.3949C79.0799 42.3949 78.6692 42.6541 78.3732 43.1726C78.0773 43.6887 77.9293 44.419 77.9293 45.3636C77.9293 45.9934 77.9956 46.5284 78.1282 46.9688C78.2608 47.4091 78.4513 47.7441 78.6999 47.9737C78.9509 48.2034 79.2527 48.3182 79.6055 48.3182Z" fill="#222222"/>
<path d="M112.017 47.3636C112.017 48.1307 111.879 48.7936 111.602 49.3523C111.325 49.911 110.945 50.3419 110.462 50.6449C109.979 50.9479 109.427 51.0994 108.807 51.0994C108.187 51.0994 107.635 50.9479 107.152 50.6449C106.669 50.3419 106.289 49.911 106.012 49.3523C105.735 48.7936 105.597 48.1307 105.597 47.3636C105.597 46.5966 105.735 45.9337 106.012 45.375C106.289 44.8163 106.669 44.3854 107.152 44.0824C107.635 43.7794 108.187 43.6278 108.807 43.6278C109.427 43.6278 109.979 43.7794 110.462 44.0824C110.945 44.3854 111.325 44.8163 111.602 45.375C111.879 45.9337 112.017 46.5966 112.017 47.3636ZM111.165 47.3636C111.165 46.7339 111.059 46.2024 110.849 45.7692C110.64 45.3359 110.357 45.008 110 44.7855C109.645 44.563 109.247 44.4517 108.807 44.4517C108.366 44.4517 107.968 44.563 107.61 44.7855C107.255 45.008 106.972 45.3359 106.761 45.7692C106.553 46.2024 106.449 46.7339 106.449 47.3636C106.449 47.9934 106.553 48.5249 106.761 48.9581C106.972 49.3913 107.255 49.7192 107.61 49.9418C107.968 50.1643 108.366 50.2756 108.807 50.2756C109.247 50.2756 109.645 50.1643 110 49.9418C110.357 49.7192 110.64 49.3913 110.849 48.9581C111.059 48.5249 111.165 47.9934 111.165 47.3636ZM113.384 51V45.5455H114.194V46.3693H114.251C114.35 46.0994 114.53 45.8804 114.79 45.7124C115.051 45.5443 115.344 45.4602 115.671 45.4602C115.733 45.4602 115.81 45.4614 115.902 45.4638C115.994 45.4661 116.064 45.4697 116.112 45.4744V46.3267C116.083 46.3196 116.018 46.3089 115.916 46.2947C115.817 46.2782 115.711 46.2699 115.6 46.2699C115.335 46.2699 115.098 46.3255 114.89 46.4368C114.684 46.5457 114.521 46.6972 114.4 46.8913C114.281 47.0831 114.222 47.3021 114.222 47.5483V51H113.384ZM118.999 51.1136C118.544 51.1136 118.143 50.9988 117.795 50.7692C117.447 50.5372 117.174 50.2105 116.978 49.7891C116.781 49.3653 116.683 48.8646 116.683 48.2869C116.683 47.714 116.781 47.2169 116.978 46.7955C117.174 46.3741 117.448 46.0485 117.798 45.8189C118.149 45.5893 118.554 45.4744 119.013 45.4744C119.368 45.4744 119.648 45.5336 119.854 45.652C120.063 45.768 120.221 45.9006 120.33 46.0497C120.442 46.1965 120.528 46.3172 120.589 46.4119H120.661V43.7273H121.499V51H120.689V50.1619H120.589C120.528 50.2614 120.44 50.3868 120.327 50.5384C120.213 50.6875 120.051 50.8213 119.84 50.9396C119.629 51.0556 119.349 51.1136 118.999 51.1136ZM119.112 50.3608C119.448 50.3608 119.732 50.2732 119.964 50.098C120.196 49.9205 120.373 49.6754 120.494 49.3629C120.614 49.0481 120.675 48.6847 120.675 48.2727C120.675 47.8655 120.616 47.5092 120.497 47.2038C120.379 46.8961 120.204 46.657 119.972 46.4865C119.74 46.3137 119.453 46.2273 119.112 46.2273C118.757 46.2273 118.461 46.3184 118.224 46.5007C117.99 46.6806 117.814 46.9257 117.695 47.2358C117.579 47.5436 117.521 47.8892 117.521 48.2727C117.521 48.661 117.58 49.0137 117.699 49.331C117.82 49.6458 117.997 49.8968 118.232 50.0838C118.468 50.2685 118.762 50.3608 119.112 50.3608ZM125.437 51.1136C124.911 51.1136 124.458 50.9976 124.077 50.7656C123.698 50.5312 123.406 50.2045 123.2 49.7855C122.996 49.3641 122.894 48.8741 122.894 48.3153C122.894 47.7566 122.996 47.2642 123.2 46.8381C123.406 46.4096 123.692 46.0758 124.059 45.8366C124.428 45.5952 124.859 45.4744 125.352 45.4744C125.636 45.4744 125.916 45.5218 126.193 45.6165C126.47 45.7112 126.722 45.8651 126.95 46.0781C127.177 46.2888 127.358 46.5682 127.493 46.9162C127.628 47.2642 127.695 47.6927 127.695 48.2017V48.5568H123.491V47.8324H126.843C126.843 47.5246 126.781 47.25 126.658 47.0085C126.538 46.767 126.365 46.5765 126.14 46.4368C125.917 46.2971 125.655 46.2273 125.352 46.2273C125.018 46.2273 124.729 46.3101 124.485 46.4759C124.244 46.6392 124.058 46.8523 123.928 47.1151C123.797 47.3778 123.732 47.6596 123.732 47.9602V48.4432C123.732 48.8551 123.803 49.2043 123.945 49.4908C124.09 49.7749 124.29 49.9915 124.545 50.1406C124.801 50.2874 125.098 50.3608 125.437 50.3608C125.657 50.3608 125.856 50.33 126.033 50.2685C126.213 50.2045 126.368 50.1098 126.499 49.9844C126.629 49.8565 126.729 49.6979 126.8 49.5085L127.61 49.7358C127.525 50.0104 127.382 50.2519 127.18 50.4602C126.979 50.6662 126.731 50.8272 126.435 50.9432C126.139 51.0568 125.806 51.1136 125.437 51.1136ZM128.97 51V45.5455H129.78V46.3693H129.837C129.936 46.0994 130.116 45.8804 130.376 45.7124C130.637 45.5443 130.93 45.4602 131.257 45.4602C131.319 45.4602 131.396 45.4614 131.488 45.4638C131.58 45.4661 131.65 45.4697 131.697 45.4744V46.3267C131.669 46.3196 131.604 46.3089 131.502 46.2947C131.403 46.2782 131.297 46.2699 131.186 46.2699C130.921 46.2699 130.684 46.3255 130.476 46.4368C130.27 46.5457 130.107 46.6972 129.986 46.8913C129.867 47.0831 129.808 47.3021 129.808 47.5483V51H128.97ZM135.503 51V45.5455H136.313V46.3693H136.37C136.469 46.0994 136.649 45.8804 136.91 45.7124C137.17 45.5443 137.464 45.4602 137.79 45.4602C137.852 45.4602 137.929 45.4614 138.021 45.4638C138.113 45.4661 138.183 45.4697 138.231 45.4744V46.3267C138.202 46.3196 138.137 46.3089 138.035 46.2947C137.936 46.2782 137.831 46.2699 137.719 46.2699C137.454 46.2699 137.217 46.3255 137.009 46.4368C136.803 46.5457 136.64 46.6972 136.519 46.8913C136.401 47.0831 136.341 47.3021 136.341 47.5483V51H135.503ZM141.345 51.1136C140.819 51.1136 140.366 50.9976 139.985 50.7656C139.606 50.5312 139.314 50.2045 139.108 49.7855C138.904 49.3641 138.802 48.8741 138.802 48.3153C138.802 47.7566 138.904 47.2642 139.108 46.8381C139.314 46.4096 139.6 46.0758 139.967 45.8366C140.336 45.5952 140.767 45.4744 141.26 45.4744C141.544 45.4744 141.824 45.5218 142.101 45.6165C142.378 45.7112 142.631 45.8651 142.858 46.0781C143.085 46.2888 143.266 46.5682 143.401 46.9162C143.536 47.2642 143.604 47.6927 143.604 48.2017V48.5568H139.399V47.8324H142.751C142.751 47.5246 142.69 47.25 142.567 47.0085C142.446 46.767 142.273 46.5765 142.048 46.4368C141.826 46.2971 141.563 46.2273 141.26 46.2273C140.926 46.2273 140.637 46.3101 140.393 46.4759C140.152 46.6392 139.966 46.8523 139.836 47.1151C139.706 47.3778 139.64 47.6596 139.64 47.9602V48.4432C139.64 48.8551 139.711 49.2043 139.854 49.4908C139.998 49.7749 140.198 49.9915 140.454 50.1406C140.709 50.2874 141.006 50.3608 141.345 50.3608C141.565 50.3608 141.764 50.33 141.942 50.2685C142.122 50.2045 142.277 50.1098 142.407 49.9844C142.537 49.8565 142.638 49.6979 142.709 49.5085L143.518 49.7358C143.433 50.0104 143.29 50.2519 143.089 50.4602C142.887 50.6662 142.639 50.8272 142.343 50.9432C142.047 51.0568 141.714 51.1136 141.345 51.1136ZM147.094 51.1136C146.583 51.1136 146.143 50.9929 145.773 50.7514C145.404 50.5099 145.12 50.1773 144.921 49.7536C144.722 49.3298 144.623 48.8456 144.623 48.3011C144.623 47.7472 144.724 47.2583 144.928 46.8345C145.134 46.4084 145.421 46.0758 145.787 45.8366C146.157 45.5952 146.588 45.4744 147.08 45.4744C147.464 45.4744 147.809 45.5455 148.117 45.6875C148.425 45.8295 148.677 46.0284 148.873 46.2841C149.07 46.5398 149.192 46.8381 149.239 47.179H148.401C148.337 46.9304 148.195 46.7102 147.975 46.5185C147.757 46.3243 147.464 46.2273 147.094 46.2273C146.768 46.2273 146.481 46.3125 146.235 46.483C145.991 46.651 145.8 46.889 145.663 47.1967C145.528 47.5021 145.461 47.8608 145.461 48.2727C145.461 48.6941 145.527 49.0611 145.66 49.3736C145.795 49.6861 145.984 49.9287 146.228 50.1016C146.474 50.2744 146.763 50.3608 147.094 50.3608C147.312 50.3608 147.51 50.3229 147.687 50.2472C147.865 50.1714 148.015 50.0625 148.138 49.9205C148.261 49.7784 148.349 49.608 148.401 49.4091H149.239C149.192 49.7311 149.075 50.0211 148.888 50.2791C148.703 50.5348 148.458 50.7384 148.153 50.8899C147.849 51.0391 147.497 51.1136 147.094 51.1136ZM152.751 51.1136C152.226 51.1136 151.772 50.9976 151.391 50.7656C151.012 50.5312 150.72 50.2045 150.514 49.7855C150.31 49.3641 150.209 48.8741 150.209 48.3153C150.209 47.7566 150.31 47.2642 150.514 46.8381C150.72 46.4096 151.006 46.0758 151.373 45.8366C151.743 45.5952 152.174 45.4744 152.666 45.4744C152.95 45.4744 153.231 45.5218 153.508 45.6165C153.785 45.7112 154.037 45.8651 154.264 46.0781C154.491 46.2888 154.672 46.5682 154.807 46.9162C154.942 47.2642 155.01 47.6927 155.01 48.2017V48.5568H150.805V47.8324H154.157C154.157 47.5246 154.096 47.25 153.973 47.0085C153.852 46.767 153.679 46.5765 153.454 46.4368C153.232 46.2971 152.969 46.2273 152.666 46.2273C152.332 46.2273 152.043 46.3101 151.8 46.4759C151.558 46.6392 151.372 46.8523 151.242 47.1151C151.112 47.3778 151.047 47.6596 151.047 47.9602V48.4432C151.047 48.8551 151.118 49.2043 151.26 49.4908C151.404 49.7749 151.604 49.9915 151.86 50.1406C152.116 50.2874 152.413 50.3608 152.751 50.3608C152.971 50.3608 153.17 50.33 153.348 50.2685C153.528 50.2045 153.683 50.1098 153.813 49.9844C153.943 49.8565 154.044 49.6979 154.115 49.5085L154.925 49.7358C154.839 50.0104 154.696 50.2519 154.495 50.4602C154.294 50.6662 154.045 50.8272 153.749 50.9432C153.453 51.0568 153.121 51.1136 152.751 51.1136ZM156.285 51V45.5455H157.123V51H156.285ZM156.711 44.6364C156.547 44.6364 156.407 44.5807 156.288 44.4695C156.172 44.3582 156.114 44.2244 156.114 44.0682C156.114 43.9119 156.172 43.7782 156.288 43.6669C156.407 43.5556 156.547 43.5 156.711 43.5C156.874 43.5 157.014 43.5556 157.13 43.6669C157.248 43.7782 157.307 43.9119 157.307 44.0682C157.307 44.2244 157.248 44.3582 157.13 44.4695C157.014 44.5807 156.874 44.6364 156.711 44.6364ZM163.118 45.5455L161.101 51H160.249L158.232 45.5455H159.141L160.646 49.892H160.703L162.209 45.5455H163.118ZM166.316 51.1136C165.79 51.1136 165.337 50.9976 164.956 50.7656C164.577 50.5312 164.284 50.2045 164.078 49.7855C163.875 49.3641 163.773 48.8741 163.773 48.3153C163.773 47.7566 163.875 47.2642 164.078 46.8381C164.284 46.4096 164.571 46.0758 164.938 45.8366C165.307 45.5952 165.738 45.4744 166.23 45.4744C166.515 45.4744 166.795 45.5218 167.072 45.6165C167.349 45.7112 167.601 45.8651 167.828 46.0781C168.056 46.2888 168.237 46.5682 168.372 46.9162C168.507 47.2642 168.574 47.6927 168.574 48.2017V48.5568H164.37V47.8324H167.722C167.722 47.5246 167.66 47.25 167.537 47.0085C167.417 46.767 167.244 46.5765 167.019 46.4368C166.796 46.2971 166.533 46.2273 166.23 46.2273C165.897 46.2273 165.608 46.3101 165.364 46.4759C165.123 46.6392 164.937 46.8523 164.806 47.1151C164.676 47.3778 164.611 47.6596 164.611 47.9602V48.4432C164.611 48.8551 164.682 49.2043 164.824 49.4908C164.969 49.7749 165.169 49.9915 165.424 50.1406C165.68 50.2874 165.977 50.3608 166.316 50.3608C166.536 50.3608 166.735 50.33 166.912 50.2685C167.092 50.2045 167.247 50.1098 167.377 49.9844C167.508 49.8565 167.608 49.6979 167.679 49.5085L168.489 49.7358C168.404 50.0104 168.261 50.2519 168.059 50.4602C167.858 50.6662 167.609 50.8272 167.314 50.9432C167.018 51.0568 166.685 51.1136 166.316 51.1136ZM171.909 51.1136C171.454 51.1136 171.053 50.9988 170.705 50.7692C170.357 50.5372 170.085 50.2105 169.888 49.7891C169.692 49.3653 169.593 48.8646 169.593 48.2869C169.593 47.714 169.692 47.2169 169.888 46.7955C170.085 46.3741 170.358 46.0485 170.708 45.8189C171.059 45.5893 171.464 45.4744 171.923 45.4744C172.278 45.4744 172.559 45.5336 172.765 45.652C172.973 45.768 173.132 45.9006 173.24 46.0497C173.352 46.1965 173.438 46.3172 173.5 46.4119H173.571V43.7273H174.409V51H173.599V50.1619H173.5C173.438 50.2614 173.35 50.3868 173.237 50.5384C173.123 50.6875 172.961 50.8213 172.75 50.9396C172.54 51.0556 172.259 51.1136 171.909 51.1136ZM172.022 50.3608C172.359 50.3608 172.643 50.2732 172.875 50.098C173.107 49.9205 173.283 49.6754 173.404 49.3629C173.525 49.0481 173.585 48.6847 173.585 48.2727C173.585 47.8655 173.526 47.5092 173.407 47.2038C173.289 46.8961 173.114 46.657 172.882 46.4865C172.65 46.3137 172.363 46.2273 172.022 46.2273C171.667 46.2273 171.371 46.3184 171.135 46.5007C170.9 46.6806 170.724 46.9257 170.605 47.2358C170.489 47.5436 170.431 47.8892 170.431 48.2727C170.431 48.661 170.491 49.0137 170.609 49.331C170.73 49.6458 170.907 49.8968 171.142 50.0838C171.378 50.2685 171.672 50.3608 172.022 50.3608Z" fill="#222222"/>
<path d="M36.7528 82V81.3608L39.1534 78.733C39.4351 78.4252 39.6671 78.1577 39.8494 77.9304C40.0317 77.7008 40.1667 77.4853 40.2543 77.2841C40.3442 77.0805 40.3892 76.8674 40.3892 76.6449C40.3892 76.3892 40.3277 76.1679 40.2045 75.9808C40.0838 75.7938 39.9181 75.6494 39.7074 75.5476C39.4967 75.4458 39.2599 75.3949 38.9972 75.3949C38.7178 75.3949 38.474 75.4529 38.2656 75.5689C38.0597 75.6825 37.8999 75.8423 37.7862 76.0483C37.675 76.2543 37.6193 76.4957 37.6193 76.7727H36.7812C36.7812 76.3466 36.8795 75.9725 37.076 75.6506C37.2725 75.3286 37.54 75.0777 37.8786 74.8977C38.2195 74.7178 38.6018 74.6278 39.0256 74.6278C39.4517 74.6278 39.8293 74.7178 40.1584 74.8977C40.4875 75.0777 40.7455 75.3203 40.9325 75.6257C41.1196 75.9311 41.2131 76.2708 41.2131 76.6449C41.2131 76.9124 41.1645 77.174 41.0675 77.4297C40.9728 77.683 40.8071 77.9659 40.5703 78.2784C40.3359 78.5885 40.0104 78.9673 39.5938 79.4148L37.9602 81.1619V81.2188H41.3409V82H36.7528ZM49.4979 77.767L48.745 77.9801C48.6977 77.8546 48.6278 77.7327 48.5355 77.6143C48.4455 77.4936 48.3224 77.3942 48.1662 77.3161C48.0099 77.2379 47.8099 77.1989 47.5661 77.1989C47.2322 77.1989 46.9541 77.2758 46.7315 77.4297C46.5114 77.5812 46.4013 77.7741 46.4013 78.0085C46.4013 78.2169 46.477 78.3814 46.6286 78.5021C46.7801 78.6229 47.0168 78.7235 47.3388 78.804L48.1484 79.0028C48.6361 79.1212 48.9995 79.3023 49.2386 79.5462C49.4777 79.7876 49.5973 80.099 49.5973 80.4801C49.5973 80.7926 49.5073 81.072 49.3274 81.3182C49.1499 81.5644 48.9013 81.7585 48.5817 81.9006C48.2621 82.0426 47.8904 82.1136 47.4666 82.1136C46.9103 82.1136 46.4498 81.9929 46.0852 81.7514C45.7206 81.5099 45.4898 81.1572 45.3928 80.6932L46.1882 80.4943C46.264 80.7879 46.4072 81.008 46.6179 81.1548C46.831 81.3016 47.1091 81.375 47.4524 81.375C47.843 81.375 48.1532 81.2921 48.3828 81.1264C48.6148 80.9583 48.7308 80.7571 48.7308 80.5227C48.7308 80.3333 48.6645 80.1747 48.532 80.0469C48.3994 79.9167 48.1958 79.8196 47.9212 79.7557L47.0121 79.5426C46.5125 79.4242 46.1456 79.2408 45.9112 78.9922C45.6792 78.7412 45.5632 78.4276 45.5632 78.0511C45.5632 77.7434 45.6496 77.4711 45.8224 77.2344C45.9976 76.9976 46.2356 76.8118 46.5362 76.6768C46.8393 76.5419 47.1825 76.4744 47.5661 76.4744C48.1058 76.4744 48.5296 76.5928 48.8374 76.8295C49.1475 77.0663 49.3677 77.3788 49.4979 77.767ZM53.231 76.5455V77.2557H50.4043V76.5455H53.231ZM51.2282 75.2386H52.0662V80.4375C52.0662 80.6742 52.1006 80.8518 52.1692 80.9702C52.2402 81.0862 52.3302 81.1643 52.4391 81.2045C52.5504 81.2424 52.6676 81.2614 52.7907 81.2614C52.883 81.2614 52.9587 81.2566 53.0179 81.2472C53.0771 81.2353 53.1245 81.2259 53.16 81.2188L53.3304 81.9716C53.2736 81.9929 53.1943 82.0142 53.0925 82.0355C52.9907 82.0592 52.8617 82.071 52.7054 82.071C52.4687 82.071 52.2367 82.0201 52.0094 81.9183C51.7845 81.8165 51.5975 81.6615 51.4483 81.4531C51.3016 81.2448 51.2282 80.982 51.2282 80.6648V75.2386ZM56.72 82.1136C56.1944 82.1136 55.7411 81.9976 55.3599 81.7656C54.9811 81.5312 54.6887 81.2045 54.4828 80.7855C54.2792 80.3641 54.1774 79.8741 54.1774 79.3153C54.1774 78.7566 54.2792 78.2642 54.4828 77.8381C54.6887 77.4096 54.9752 77.0758 55.3422 76.8366C55.7115 76.5952 56.1423 76.4744 56.6348 76.4744C56.9189 76.4744 57.1994 76.5218 57.4764 76.6165C57.7534 76.7112 58.0055 76.8651 58.2328 77.0781C58.46 77.2888 58.6412 77.5682 58.7761 77.9162C58.911 78.2642 58.9785 78.6927 58.9785 79.2017V79.5568H54.774V78.8324H58.1262C58.1262 78.5246 58.0647 78.25 57.9416 78.0085C57.8208 77.767 57.648 77.5765 57.4231 77.4368C57.2006 77.2971 56.9378 77.2273 56.6348 77.2273C56.301 77.2273 56.0121 77.3101 55.7683 77.4759C55.5268 77.6392 55.341 77.8523 55.2108 78.1151C55.0806 78.3778 55.0154 78.6596 55.0154 78.9602V79.4432C55.0154 79.8551 55.0865 80.2043 55.2285 80.4908C55.3729 80.7749 55.573 80.9915 55.8287 81.1406C56.0843 81.2874 56.3815 81.3608 56.72 81.3608C56.9402 81.3608 57.139 81.33 57.3166 81.2685C57.4965 81.2045 57.6516 81.1098 57.7818 80.9844C57.912 80.8565 58.0126 80.6979 58.0836 80.5085L58.8933 80.7358C58.8081 81.0104 58.6648 81.2519 58.4636 81.4602C58.2624 81.6662 58.0138 81.8272 57.7179 81.9432C57.4219 82.0568 57.0893 82.1136 56.72 82.1136ZM60.2534 84.0455V76.5455H61.063V77.4119H61.1625C61.224 77.3172 61.3092 77.1965 61.4181 77.0497C61.5294 76.9006 61.688 76.768 61.894 76.652C62.1023 76.5336 62.3841 76.4744 62.7392 76.4744C63.1984 76.4744 63.6033 76.5893 63.9537 76.8189C64.304 77.0485 64.5775 77.3741 64.774 77.7955C64.9705 78.2169 65.0687 78.714 65.0687 79.2869C65.0687 79.8646 64.9705 80.3653 64.774 80.7891C64.5775 81.2105 64.3052 81.5372 63.9572 81.7692C63.6092 81.9988 63.2079 82.1136 62.7534 82.1136C62.403 82.1136 62.1225 82.0556 61.9118 81.9396C61.7011 81.8213 61.5389 81.6875 61.4252 81.5384C61.3116 81.3868 61.224 81.2614 61.1625 81.1619H61.0914V84.0455H60.2534ZM61.0772 79.2727C61.0772 79.6847 61.1376 80.0481 61.2583 80.3629C61.3791 80.6754 61.5555 80.9205 61.7875 81.098C62.0195 81.2732 62.3036 81.3608 62.6397 81.3608C62.9901 81.3608 63.2825 81.2685 63.5169 81.0838C63.7536 80.8968 63.9312 80.6458 64.0495 80.331C64.1703 80.0137 64.2306 79.661 64.2306 79.2727C64.2306 78.8892 64.1715 78.5436 64.0531 78.2358C63.9371 77.9257 63.7607 77.6806 63.524 77.5007C63.2896 77.3184 62.9949 77.2273 62.6397 77.2273C62.2988 77.2273 62.0124 77.3137 61.7804 77.4865C61.5484 77.657 61.3732 77.8961 61.2548 78.2038C61.1364 78.5092 61.0772 78.8655 61.0772 79.2727ZM70.2108 77.767L69.4579 77.9801C69.4106 77.8546 69.3407 77.7327 69.2484 77.6143C69.1584 77.4936 69.0353 77.3942 68.8791 77.3161C68.7228 77.2379 68.5228 77.1989 68.2789 77.1989C67.9451 77.1989 67.667 77.2758 67.4444 77.4297C67.2243 77.5812 67.1142 77.7741 67.1142 78.0085C67.1142 78.2169 67.1899 78.3814 67.3414 78.5021C67.493 78.6229 67.7297 78.7235 68.0517 78.804L68.8613 79.0028C69.349 79.1212 69.7124 79.3023 69.9515 79.5462C70.1906 79.7876 70.3102 80.099 70.3102 80.4801C70.3102 80.7926 70.2202 81.072 70.0403 81.3182C69.8627 81.5644 69.6142 81.7585 69.2946 81.9006C68.975 82.0426 68.6033 82.1136 68.1795 82.1136C67.6232 82.1136 67.1627 81.9929 66.7981 81.7514C66.4335 81.5099 66.2027 81.1572 66.1056 80.6932L66.9011 80.4943C66.9769 80.7879 67.1201 81.008 67.3308 81.1548C67.5439 81.3016 67.822 81.375 68.1653 81.375C68.5559 81.375 68.8661 81.2921 69.0957 81.1264C69.3277 80.9583 69.4437 80.7571 69.4437 80.5227C69.4437 80.3333 69.3774 80.1747 69.2449 80.0469C69.1123 79.9167 68.9087 79.8196 68.6341 79.7557L67.725 79.5426C67.2254 79.4242 66.8585 79.2408 66.6241 78.9922C66.3921 78.7412 66.2761 78.4276 66.2761 78.0511C66.2761 77.7434 66.3625 77.4711 66.5353 77.2344C66.7105 76.9976 66.9484 76.8118 67.2491 76.6768C67.5521 76.5419 67.8954 76.4744 68.2789 76.4744C68.8187 76.4744 69.2425 76.5928 69.5502 76.8295C69.8604 77.0663 70.0806 77.3788 70.2108 77.767Z" fill="#222222"/>
<path d="M109 80.3077L105.192 76.5H112.808L109 80.3077Z" fill="#222222"/>
<circle cx="22" cy="109.5" r="4.5" fill="white" stroke="#F2A900" stroke-width="3"/>
<rect width="45" height="13" transform="translate(34 103)" fill="#F7F7F7"/>
<path d="M39.3097 105.727V113H38.429V106.651H38.3864L36.6108 107.83V106.935L38.429 105.727H39.3097ZM41.6286 113L44.8814 106.565V106.509H41.1314V105.727H45.7905V106.551L42.5518 113H41.6286ZM47.3974 112.07C47.2222 112.07 47.0719 112.007 46.9464 111.881C46.8209 111.756 46.7582 111.606 46.7582 111.43C46.7582 111.255 46.8209 111.105 46.9464 110.979C47.0719 110.854 47.2222 110.791 47.3974 110.791C47.5726 110.791 47.7229 110.854 47.8484 110.979C47.9738 111.105 48.0366 111.255 48.0366 111.43C48.0366 111.546 48.007 111.653 47.9478 111.75C47.891 111.847 47.814 111.925 47.717 111.984C47.6223 112.041 47.5157 112.07 47.3974 112.07ZM47.3974 108.391C47.2222 108.391 47.0719 108.328 46.9464 108.202C46.8209 108.077 46.7582 107.927 46.7582 107.751C46.7582 107.576 46.8209 107.426 46.9464 107.3C47.0719 107.175 47.2222 107.112 47.3974 107.112C47.5726 107.112 47.7229 107.175 47.8484 107.3C47.9738 107.426 48.0366 107.576 48.0366 107.751C48.0366 107.867 48.007 107.974 47.9478 108.071C47.891 108.168 47.814 108.246 47.717 108.305C47.6223 108.362 47.5157 108.391 47.3974 108.391ZM51.8984 113.099C51.3634 113.099 50.9077 112.954 50.5312 112.663C50.1548 112.369 49.8672 111.944 49.6683 111.388C49.4695 110.829 49.37 110.154 49.37 109.364C49.37 108.578 49.4695 107.906 49.6683 107.35C49.8696 106.791 50.1584 106.365 50.5348 106.072C50.9136 105.776 51.3681 105.628 51.8984 105.628C52.4287 105.628 52.8821 105.776 53.2585 106.072C53.6373 106.365 53.9261 106.791 54.125 107.35C54.3262 107.906 54.4268 108.578 54.4268 109.364C54.4268 110.154 54.3274 110.829 54.1286 111.388C53.9297 111.944 53.642 112.369 53.2656 112.663C52.8892 112.954 52.4335 113.099 51.8984 113.099ZM51.8984 112.318C52.4287 112.318 52.8407 112.062 53.1342 111.551C53.4278 111.04 53.5746 110.311 53.5746 109.364C53.5746 108.734 53.5071 108.198 53.3722 107.755C53.2396 107.312 53.0478 106.975 52.7969 106.743C52.5483 106.511 52.2488 106.395 51.8984 106.395C51.3729 106.395 50.9621 106.654 50.6662 107.173C50.3703 107.689 50.2223 108.419 50.2223 109.364C50.2223 109.993 50.2886 110.528 50.4212 110.969C50.5537 111.409 50.7443 111.744 50.9929 111.974C51.2438 112.203 51.5457 112.318 51.8984 112.318ZM58.1484 113.099C57.6134 113.099 57.1577 112.954 56.7812 112.663C56.4048 112.369 56.1172 111.944 55.9183 111.388C55.7195 110.829 55.62 110.154 55.62 109.364C55.62 108.578 55.7195 107.906 55.9183 107.35C56.1196 106.791 56.4084 106.365 56.7848 106.072C57.1636 105.776 57.6181 105.628 58.1484 105.628C58.6787 105.628 59.1321 105.776 59.5085 106.072C59.8873 106.365 60.1761 106.791 60.375 107.35C60.5762 107.906 60.6768 108.578 60.6768 109.364C60.6768 110.154 60.5774 110.829 60.3786 111.388C60.1797 111.944 59.892 112.369 59.5156 112.663C59.1392 112.954 58.6835 113.099 58.1484 113.099ZM58.1484 112.318C58.6787 112.318 59.0907 112.062 59.3842 111.551C59.6778 111.04 59.8246 110.311 59.8246 109.364C59.8246 108.734 59.7571 108.198 59.6222 107.755C59.4896 107.312 59.2978 106.975 59.0469 106.743C58.7983 106.511 58.4988 106.395 58.1484 106.395C57.6229 106.395 57.2121 106.654 56.9162 107.173C56.6203 107.689 56.4723 108.419 56.4723 109.364C56.4723 109.993 56.5386 110.528 56.6712 110.969C56.8037 111.409 56.9943 111.744 57.2429 111.974C57.4938 112.203 57.7957 112.318 58.1484 112.318ZM62.6513 112.07C62.4761 112.07 62.3258 112.007 62.2003 111.881C62.0748 111.756 62.0121 111.606 62.0121 111.43C62.0121 111.255 62.0748 111.105 62.2003 110.979C62.3258 110.854 62.4761 110.791 62.6513 110.791C62.8265 110.791 62.9768 110.854 63.1023 110.979C63.2277 111.105 63.2905 111.255 63.2905 111.43C63.2905 111.546 63.2609 111.653 63.2017 111.75C63.1449 111.847 63.0679 111.925 62.9709 111.984C62.8762 112.041 62.7696 112.07 62.6513 112.07ZM62.6513 108.391C62.4761 108.391 62.3258 108.328 62.2003 108.202C62.0748 108.077 62.0121 107.927 62.0121 107.751C62.0121 107.576 62.0748 107.426 62.2003 107.3C62.3258 107.175 62.4761 107.112 62.6513 107.112C62.8265 107.112 62.9768 107.175 63.1023 107.3C63.2277 107.426 63.2905 107.576 63.2905 107.751C63.2905 107.867 63.2609 107.974 63.2017 108.071C63.1449 108.168 63.0679 108.246 62.9709 108.305C62.8762 108.362 62.7696 108.391 62.6513 108.391ZM67.1523 113.099C66.6173 113.099 66.1616 112.954 65.7852 112.663C65.4087 112.369 65.1211 111.944 64.9222 111.388C64.7234 110.829 64.6239 110.154 64.6239 109.364C64.6239 108.578 64.7234 107.906 64.9222 107.35C65.1235 106.791 65.4123 106.365 65.7887 106.072C66.1675 105.776 66.622 105.628 67.1523 105.628C67.6826 105.628 68.136 105.776 68.5124 106.072C68.8912 106.365 69.18 106.791 69.3789 107.35C69.5801 107.906 69.6808 108.578 69.6808 109.364C69.6808 110.154 69.5813 110.829 69.3825 111.388C69.1836 111.944 68.896 112.369 68.5195 112.663C68.1431 112.954 67.6874 113.099 67.1523 113.099ZM67.1523 112.318C67.6826 112.318 68.0946 112.062 68.3881 111.551C68.6817 111.04 68.8285 110.311 68.8285 109.364C68.8285 108.734 68.761 108.198 68.6261 107.755C68.4935 107.312 68.3017 106.975 68.0508 106.743C67.8022 106.511 67.5027 106.395 67.1523 106.395C66.6268 106.395 66.216 106.654 65.9201 107.173C65.6242 107.689 65.4762 108.419 65.4762 109.364C65.4762 109.993 65.5425 110.528 65.6751 110.969C65.8076 111.409 65.9982 111.744 66.2468 111.974C66.4978 112.203 66.7996 112.318 67.1523 112.318ZM73.4023 113.099C72.8673 113.099 72.4116 112.954 72.0352 112.663C71.6587 112.369 71.3711 111.944 71.1722 111.388C70.9734 110.829 70.8739 110.154 70.8739 109.364C70.8739 108.578 70.9734 107.906 71.1722 107.35C71.3735 106.791 71.6623 106.365 72.0387 106.072C72.4175 105.776 72.872 105.628 73.4023 105.628C73.9326 105.628 74.386 105.776 74.7624 106.072C75.1412 106.365 75.43 106.791 75.6289 107.35C75.8301 107.906 75.9308 108.578 75.9308 109.364C75.9308 110.154 75.8313 110.829 75.6325 111.388C75.4336 111.944 75.146 112.369 74.7695 112.663C74.3931 112.954 73.9374 113.099 73.4023 113.099ZM73.4023 112.318C73.9326 112.318 74.3446 112.062 74.6381 111.551C74.9317 111.04 75.0785 110.311 75.0785 109.364C75.0785 108.734 75.011 108.198 74.8761 107.755C74.7435 107.312 74.5517 106.975 74.3008 106.743C74.0522 106.511 73.7527 106.395 73.4023 106.395C72.8768 106.395 72.466 106.654 72.1701 107.173C71.8742 107.689 71.7262 108.419 71.7262 109.364C71.7262 109.993 71.7925 110.528 71.9251 110.969C72.0576 111.409 72.2482 111.744 72.4968 111.974C72.7478 112.203 73.0496 112.318 73.4023 112.318Z" fill="#222222"/>
<path d="M96.125 113H93.8807V105.727H96.2244C96.9299 105.727 97.5336 105.873 98.0355 106.164C98.5374 106.453 98.9221 106.868 99.1896 107.411C99.4571 107.95 99.5909 108.597 99.5909 109.349C99.5909 110.107 99.456 110.759 99.1861 111.306C98.9162 111.851 98.5232 112.27 98.0071 112.563C97.491 112.854 96.8636 113 96.125 113ZM94.7614 112.219H96.0682C96.6695 112.219 97.1679 112.103 97.5632 111.871C97.9586 111.639 98.2533 111.308 98.4474 110.88C98.6416 110.451 98.7386 109.941 98.7386 109.349C98.7386 108.762 98.6428 108.257 98.451 107.833C98.2592 107.407 97.9728 107.08 97.5916 106.853C97.2105 106.623 96.7358 106.509 96.1676 106.509H94.7614V112.219ZM100.955 113V107.545H101.764V108.369H101.821C101.92 108.099 102.1 107.88 102.361 107.712C102.621 107.544 102.915 107.46 103.241 107.46C103.303 107.46 103.38 107.461 103.472 107.464C103.565 107.466 103.634 107.47 103.682 107.474V108.327C103.653 108.32 103.588 108.309 103.487 108.295C103.387 108.278 103.282 108.27 103.17 108.27C102.905 108.27 102.669 108.326 102.46 108.437C102.254 108.546 102.091 108.697 101.97 108.891C101.852 109.083 101.793 109.302 101.793 109.548V113H100.955ZM106.725 113.114C106.233 113.114 105.801 112.996 105.429 112.762C105.06 112.528 104.771 112.2 104.562 111.778C104.357 111.357 104.254 110.865 104.254 110.301C104.254 109.733 104.357 109.237 104.562 108.813C104.771 108.389 105.06 108.06 105.429 107.826C105.801 107.592 106.233 107.474 106.725 107.474C107.218 107.474 107.648 107.592 108.018 107.826C108.389 108.06 108.678 108.389 108.884 108.813C109.093 109.237 109.197 109.733 109.197 110.301C109.197 110.865 109.093 111.357 108.884 111.778C108.678 112.2 108.389 112.528 108.018 112.762C107.648 112.996 107.218 113.114 106.725 113.114ZM106.725 112.361C107.099 112.361 107.407 112.265 107.648 112.073C107.89 111.881 108.069 111.629 108.185 111.317C108.301 111.004 108.359 110.666 108.359 110.301C108.359 109.937 108.301 109.597 108.185 109.282C108.069 108.967 107.89 108.713 107.648 108.518C107.407 108.324 107.099 108.227 106.725 108.227C106.351 108.227 106.043 108.324 105.802 108.518C105.56 108.713 105.382 108.967 105.266 109.282C105.15 109.597 105.092 109.937 105.092 110.301C105.092 110.666 105.15 111.004 105.266 111.317C105.382 111.629 105.56 111.881 105.802 112.073C106.043 112.265 106.351 112.361 106.725 112.361ZM110.476 115.045V107.545H111.286V108.412H111.385C111.447 108.317 111.532 108.196 111.641 108.05C111.752 107.901 111.911 107.768 112.117 107.652C112.325 107.534 112.607 107.474 112.962 107.474C113.421 107.474 113.826 107.589 114.176 107.819C114.527 108.049 114.8 108.374 114.997 108.795C115.193 109.217 115.291 109.714 115.291 110.287C115.291 110.865 115.193 111.365 114.997 111.789C114.8 112.21 114.528 112.537 114.18 112.769C113.832 112.999 113.431 113.114 112.976 113.114C112.626 113.114 112.345 113.056 112.134 112.94C111.924 112.821 111.762 112.687 111.648 112.538C111.534 112.387 111.447 112.261 111.385 112.162H111.314V115.045H110.476ZM111.3 110.273C111.3 110.685 111.36 111.048 111.481 111.363C111.602 111.675 111.778 111.92 112.01 112.098C112.242 112.273 112.526 112.361 112.862 112.361C113.213 112.361 113.505 112.268 113.74 112.084C113.976 111.897 114.154 111.646 114.272 111.331C114.393 111.014 114.453 110.661 114.453 110.273C114.453 109.889 114.394 109.544 114.276 109.236C114.16 108.926 113.983 108.681 113.747 108.501C113.512 108.318 113.218 108.227 112.862 108.227C112.521 108.227 112.235 108.314 112.003 108.487C111.771 108.657 111.596 108.896 111.477 109.204C111.359 109.509 111.3 109.866 111.3 110.273ZM121.598 113.114C121.106 113.114 120.674 112.996 120.302 112.762C119.933 112.528 119.644 112.2 119.436 111.778C119.23 111.357 119.127 110.865 119.127 110.301C119.127 109.733 119.23 109.237 119.436 108.813C119.644 108.389 119.933 108.06 120.302 107.826C120.674 107.592 121.106 107.474 121.598 107.474C122.091 107.474 122.521 107.592 122.891 107.826C123.262 108.06 123.551 108.389 123.757 108.813C123.966 109.237 124.07 109.733 124.07 110.301C124.07 110.865 123.966 111.357 123.757 111.778C123.551 112.2 123.262 112.528 122.891 112.762C122.521 112.996 122.091 113.114 121.598 113.114ZM121.598 112.361C121.972 112.361 122.28 112.265 122.521 112.073C122.763 111.881 122.942 111.629 123.058 111.317C123.174 111.004 123.232 110.666 123.232 110.301C123.232 109.937 123.174 109.597 123.058 109.282C122.942 108.967 122.763 108.713 122.521 108.518C122.28 108.324 121.972 108.227 121.598 108.227C121.224 108.227 120.916 108.324 120.675 108.518C120.433 108.713 120.255 108.967 120.139 109.282C120.023 109.597 119.965 109.937 119.965 110.301C119.965 110.666 120.023 111.004 120.139 111.317C120.255 111.629 120.433 111.881 120.675 112.073C120.916 112.265 121.224 112.361 121.598 112.361ZM127.778 107.545V108.256H124.838V107.545H127.778ZM125.718 113V106.793C125.718 106.48 125.792 106.22 125.939 106.011C126.085 105.803 126.276 105.647 126.51 105.543C126.745 105.438 126.992 105.386 127.252 105.386C127.458 105.386 127.627 105.403 127.757 105.436C127.887 105.469 127.984 105.5 128.048 105.528L127.806 106.253C127.764 106.239 127.705 106.221 127.629 106.2C127.556 106.178 127.458 106.168 127.338 106.168C127.061 106.168 126.861 106.237 126.738 106.377C126.617 106.517 126.556 106.722 126.556 106.991V113H125.718ZM131.382 107.545V108.256H128.441V107.545H131.382ZM129.322 113V106.793C129.322 106.48 129.395 106.22 129.542 106.011C129.689 105.803 129.879 105.647 130.114 105.543C130.348 105.438 130.596 105.386 130.856 105.386C131.062 105.386 131.23 105.403 131.36 105.436C131.49 105.469 131.588 105.5 131.651 105.528L131.41 106.253C131.367 106.239 131.308 106.221 131.232 106.2C131.159 106.178 131.062 106.168 130.941 106.168C130.664 106.168 130.464 106.237 130.341 106.377C130.22 106.517 130.16 106.722 130.16 106.991V113H129.322ZM133.167 113.057C132.992 113.057 132.841 112.994 132.716 112.869C132.59 112.743 132.528 112.593 132.528 112.418C132.528 112.242 132.59 112.092 132.716 111.967C132.841 111.841 132.992 111.778 133.167 111.778C133.342 111.778 133.492 111.841 133.618 111.967C133.743 112.092 133.806 112.242 133.806 112.418C133.806 112.534 133.777 112.64 133.717 112.737C133.661 112.834 133.584 112.912 133.487 112.972C133.392 113.028 133.285 113.057 133.167 113.057ZM133.167 109.009C132.992 109.009 132.841 108.946 132.716 108.82C132.59 108.695 132.528 108.545 132.528 108.369C132.528 108.194 132.59 108.044 132.716 107.918C132.841 107.793 132.992 107.73 133.167 107.73C133.342 107.73 133.492 107.793 133.618 107.918C133.743 108.044 133.806 108.194 133.806 108.369C133.806 108.485 133.777 108.592 133.717 108.689C133.661 108.786 133.584 108.864 133.487 108.923C133.392 108.98 133.285 109.009 133.167 109.009ZM140.48 113H138.236V105.727H140.58C141.285 105.727 141.889 105.873 142.391 106.164C142.893 106.453 143.278 106.868 143.545 107.411C143.813 107.95 143.946 108.597 143.946 109.349C143.946 110.107 143.811 110.759 143.542 111.306C143.272 111.851 142.879 112.27 142.363 112.563C141.846 112.854 141.219 113 140.48 113ZM139.117 112.219H140.424C141.025 112.219 141.523 112.103 141.919 111.871C142.314 111.639 142.609 111.308 142.803 110.88C142.997 110.451 143.094 109.941 143.094 109.349C143.094 108.762 142.998 108.257 142.806 107.833C142.615 107.407 142.328 107.08 141.947 106.853C141.566 106.623 141.091 106.509 140.523 106.509H139.117V112.219ZM147.597 113.114C147.071 113.114 146.618 112.998 146.237 112.766C145.858 112.531 145.566 112.205 145.36 111.786C145.156 111.364 145.054 110.874 145.054 110.315C145.054 109.757 145.156 109.264 145.36 108.838C145.566 108.41 145.852 108.076 146.219 107.837C146.588 107.595 147.019 107.474 147.512 107.474C147.796 107.474 148.076 107.522 148.353 107.616C148.63 107.711 148.882 107.865 149.11 108.078C149.337 108.289 149.518 108.568 149.653 108.916C149.788 109.264 149.855 109.693 149.855 110.202V110.557H145.651V109.832H149.003C149.003 109.525 148.942 109.25 148.819 109.009C148.698 108.767 148.525 108.576 148.3 108.437C148.078 108.297 147.815 108.227 147.512 108.227C147.178 108.227 146.889 108.31 146.645 108.476C146.404 108.639 146.218 108.852 146.088 109.115C145.958 109.378 145.892 109.66 145.892 109.96V110.443C145.892 110.855 145.963 111.204 146.105 111.491C146.25 111.775 146.45 111.991 146.706 112.141C146.961 112.287 147.258 112.361 147.597 112.361C147.817 112.361 148.016 112.33 148.194 112.268C148.373 112.205 148.529 112.11 148.659 111.984C148.789 111.857 148.89 111.698 148.961 111.509L149.77 111.736C149.685 112.01 149.542 112.252 149.341 112.46C149.139 112.666 148.891 112.827 148.595 112.943C148.299 113.057 147.966 113.114 147.597 113.114ZM151.968 105.727V113H151.13V105.727H151.968ZM153.503 113V107.545H154.341V113H153.503ZM153.93 106.636C153.766 106.636 153.625 106.581 153.507 106.469C153.391 106.358 153.333 106.224 153.333 106.068C153.333 105.912 153.391 105.778 153.507 105.667C153.625 105.556 153.766 105.5 153.93 105.5C154.093 105.5 154.233 105.556 154.349 105.667C154.467 105.778 154.526 105.912 154.526 106.068C154.526 106.224 154.467 106.358 154.349 106.469C154.233 106.581 154.093 106.636 153.93 106.636ZM160.337 107.545L158.32 113H157.467L155.45 107.545H156.359L157.865 111.892H157.922L159.428 107.545H160.337ZM163.534 113.114C163.009 113.114 162.556 112.998 162.174 112.766C161.796 112.531 161.503 112.205 161.297 111.786C161.094 111.364 160.992 110.874 160.992 110.315C160.992 109.757 161.094 109.264 161.297 108.838C161.503 108.41 161.79 108.076 162.157 107.837C162.526 107.595 162.957 107.474 163.449 107.474C163.733 107.474 164.014 107.522 164.291 107.616C164.568 107.711 164.82 107.865 165.047 108.078C165.275 108.289 165.456 108.568 165.591 108.916C165.725 109.264 165.793 109.693 165.793 110.202V110.557H161.588V109.832H164.941C164.941 109.525 164.879 109.25 164.756 109.009C164.635 108.767 164.462 108.576 164.238 108.437C164.015 108.297 163.752 108.227 163.449 108.227C163.115 108.227 162.827 108.31 162.583 108.476C162.341 108.639 162.155 108.852 162.025 109.115C161.895 109.378 161.83 109.66 161.83 109.96V110.443C161.83 110.855 161.901 111.204 162.043 111.491C162.187 111.775 162.387 111.991 162.643 112.141C162.899 112.287 163.196 112.361 163.534 112.361C163.755 112.361 163.953 112.33 164.131 112.268C164.311 112.205 164.466 112.11 164.596 111.984C164.726 111.857 164.827 111.698 164.898 111.509L165.708 111.736C165.623 112.01 165.479 112.252 165.278 112.46C165.077 112.666 164.828 112.827 164.532 112.943C164.236 113.057 163.904 113.114 163.534 113.114ZM167.068 113V107.545H167.877V108.369H167.934C168.034 108.099 168.214 107.88 168.474 107.712C168.734 107.544 169.028 107.46 169.355 107.46C169.416 107.46 169.493 107.461 169.586 107.464C169.678 107.466 169.748 107.47 169.795 107.474V108.327C169.767 108.32 169.702 108.309 169.6 108.295C169.5 108.278 169.395 108.27 169.284 108.27C169.019 108.27 168.782 108.326 168.574 108.437C168.368 108.546 168.204 108.697 168.083 108.891C167.965 109.083 167.906 109.302 167.906 109.548V113H167.068ZM171.494 115.045C171.352 115.045 171.226 115.034 171.114 115.01C171.003 114.989 170.926 114.967 170.884 114.946L171.097 114.207C171.3 114.259 171.48 114.278 171.636 114.264C171.793 114.25 171.931 114.18 172.052 114.055C172.175 113.932 172.287 113.732 172.389 113.455L172.545 113.028L170.528 107.545H171.438L172.943 111.892H173L174.506 107.545H175.415L173.099 113.795C172.995 114.077 172.866 114.31 172.712 114.495C172.558 114.682 172.38 114.821 172.176 114.911C171.975 115 171.748 115.045 171.494 115.045ZM181.777 113.099C181.308 113.099 180.89 113.019 180.523 112.858C180.158 112.697 179.868 112.473 179.653 112.187C179.44 111.898 179.324 111.563 179.305 111.182H180.2C180.219 111.416 180.299 111.619 180.441 111.789C180.583 111.957 180.769 112.087 180.999 112.18C181.229 112.272 181.483 112.318 181.762 112.318C182.075 112.318 182.352 112.264 182.593 112.155C182.835 112.046 183.024 111.894 183.162 111.7C183.299 111.506 183.368 111.281 183.368 111.026C183.368 110.758 183.301 110.522 183.169 110.319C183.036 110.113 182.842 109.952 182.586 109.836C182.331 109.72 182.018 109.662 181.649 109.662H181.066V108.881H181.649C181.938 108.881 182.191 108.829 182.409 108.724C182.629 108.62 182.801 108.473 182.924 108.284C183.049 108.095 183.112 107.872 183.112 107.616C183.112 107.37 183.057 107.156 182.949 106.974C182.84 106.791 182.686 106.649 182.487 106.548C182.29 106.446 182.058 106.395 181.791 106.395C181.54 106.395 181.303 106.441 181.081 106.533C180.86 106.623 180.681 106.755 180.541 106.928C180.401 107.098 180.325 107.304 180.314 107.545H179.461C179.475 107.164 179.59 106.83 179.806 106.544C180.021 106.255 180.303 106.03 180.651 105.869C181.001 105.708 181.386 105.628 181.805 105.628C182.255 105.628 182.641 105.719 182.963 105.901C183.285 106.081 183.532 106.319 183.705 106.615C183.878 106.911 183.964 107.231 183.964 107.574C183.964 107.983 183.856 108.333 183.641 108.621C183.428 108.91 183.138 109.11 182.771 109.222V109.278C183.23 109.354 183.589 109.549 183.847 109.864C184.105 110.177 184.234 110.564 184.234 111.026C184.234 111.421 184.126 111.776 183.911 112.091C183.698 112.403 183.407 112.65 183.037 112.83C182.668 113.009 182.248 113.099 181.777 113.099Z" fill="#222222"/>
</svg>
