<svg width="304" height="32" viewBox="0 0 304 32" fill="none" xmlns="http://www.w3.org/2000/svg">
<path d="M18.9741 18.3848H18.9663V16.333H18.9741V16.3252H20.2241L20.2212 16.3271L20.5298 16.6357C20.7354 16.8413 20.9579 17.0693 21.1968 17.3193C21.4333 17.5668 21.6531 17.7955 21.8569 18.0049L22.1694 18.3252H23.5708L23.5562 18.3398C23.3733 18.5099 23.2339 18.7108 23.1382 18.9434C23.0435 19.1735 23.0016 19.4119 23.0122 19.6582V19.666M18.9741 18.3848L18.9771 18.3926M18.9741 18.3848L18.9771 18.3926M18.9741 18.3848H19.0005L18.9771 18.3926M18.9771 18.3926C19.0279 18.3756 19.0811 18.363 19.1362 18.3545C19.1913 18.346 19.2488 18.3418 19.3081 18.3418C19.7026 18.3419 20.0516 18.4656 20.356 18.7129C20.6603 18.9603 20.8505 19.2786 20.9263 19.668L20.9351 19.667L20.8921 19.6748H23.0044V19.667M23.0044 19.667L23.0122 19.666M23.0044 19.667L23.0122 19.666M23.0044 19.667C23.0019 19.6143 23.0021 19.5617 23.0044 19.5098L23.0122 19.666M23.8931 12.0088L26.7925 18.7969C26.8504 18.935 26.8985 19.0755 26.936 19.2178C26.9734 19.3597 26.9917 19.5097 26.9917 19.667C26.9916 20.2237 26.7991 20.6946 26.4136 21.0801C26.0281 21.4656 25.5571 21.6581 25.0005 21.6582C24.5723 21.6582 24.1857 21.5371 23.8423 21.2949C23.4991 21.0529 23.2586 20.7317 23.1216 20.3311L23.1138 20.333L23.1382 20.3252H20.9351V20.29L20.9263 20.332C20.8505 20.7214 20.6603 21.0397 20.356 21.2871C20.0516 21.5344 19.7026 21.6581 19.3081 21.6582C18.8489 21.6582 18.4575 21.4969 18.1343 21.1738C17.8111 20.8506 17.6499 20.4593 17.6499 20C17.6499 19.738 17.707 19.4917 17.8218 19.2617C17.9365 19.032 18.0995 18.8352 18.312 18.6729L18.3159 18.6777V15.6748H19.8335V15.667H19.8413V12.0088H23.8931ZM19.3081 18.9912C19.0316 18.9912 18.7939 19.0905 18.5962 19.2881C18.3985 19.4858 18.2993 19.7234 18.2993 20C18.2993 20.2766 18.3985 20.5142 18.5962 20.7119C18.7939 20.9095 19.0316 21.0088 19.3081 21.0088C19.5844 21.0087 19.8215 20.9093 20.019 20.7119C20.2167 20.5142 20.3159 20.2766 20.3159 20C20.3159 19.7234 20.2167 19.4858 20.019 19.2881C19.8215 19.0907 19.5844 18.9913 19.3081 18.9912ZM25.0005 18.3252C24.635 18.3252 24.3195 18.4574 24.0552 18.7217C23.7908 18.986 23.6587 19.3015 23.6587 19.667C23.6588 20.0323 23.791 20.3471 24.0552 20.6113C24.3195 20.8757 24.635 21.0088 25.0005 21.0088C25.3658 21.0087 25.6806 20.8756 25.9448 20.6113C26.2091 20.3471 26.3412 20.0323 26.3413 19.667C26.3413 19.3015 26.2092 18.986 25.9448 18.7217C25.6806 18.4575 25.3658 18.3253 25.0005 18.3252ZM28.3247 11.0088V20.333H28.3335V20.3418H30.3511V20.9912H27.6753V11.0088H28.3247ZM20.5005 12.667H20.4917V15.667H20.4888L20.4937 15.6729L22.4438 17.6729L22.4419 17.6748H25.0229C25.1334 17.6748 25.242 17.6874 25.3481 17.7129C25.4543 17.7384 25.5586 17.7771 25.6606 17.8281L25.6812 17.8379L25.6714 17.8174L23.4702 12.6631L23.4819 12.6582H20.5005V12.667Z" fill="var(--colors-neutral-neutral-700)" stroke="var(--colors-neutral-neutral-700)" stroke-width="0.0166667"/>
<path d="M41.6051 12.2273V19.5H40.767V12.2273H41.6051ZM44.7452 19.6278C44.3996 19.6278 44.0859 19.5627 43.8042 19.4325C43.5224 19.3 43.2987 19.1094 43.133 18.8608C42.9673 18.6098 42.8844 18.3068 42.8844 17.9517C42.8844 17.6392 42.946 17.3859 43.0691 17.1918C43.1922 16.9953 43.3567 16.8414 43.5627 16.7301C43.7686 16.6188 43.9959 16.536 44.2445 16.4815C44.4954 16.4247 44.7476 16.3797 45.0009 16.3466C45.3323 16.304 45.601 16.272 45.807 16.2507C46.0153 16.227 46.1668 16.188 46.2615 16.1335C46.3586 16.0791 46.4071 15.9844 46.4071 15.8494V15.821C46.4071 15.4706 46.3113 15.1984 46.1195 15.0043C45.9301 14.8101 45.6425 14.7131 45.2566 14.7131C44.8565 14.7131 44.5428 14.8007 44.3155 14.9759C44.0882 15.151 43.9284 15.3381 43.8361 15.5369L43.0407 15.2528C43.1827 14.9214 43.3721 14.6634 43.6088 14.4787C43.848 14.2917 44.1084 14.1615 44.3901 14.0881C44.6742 14.0123 44.9535 13.9744 45.2282 13.9744C45.4033 13.9744 45.6046 13.9957 45.8319 14.0384C46.0615 14.0786 46.2828 14.1626 46.4959 14.2905C46.7114 14.4183 46.8901 14.6113 47.0321 14.8693C47.1742 15.1274 47.2452 15.473 47.2452 15.9062V19.5H46.4071V18.7614H46.3645C46.3077 18.8797 46.213 19.0064 46.0804 19.1413C45.9479 19.2763 45.7715 19.3911 45.5513 19.4858C45.3311 19.5805 45.0624 19.6278 44.7452 19.6278ZM44.873 18.875C45.2045 18.875 45.4838 18.8099 45.7111 18.6797C45.9408 18.5495 46.1136 18.3814 46.2296 18.1754C46.348 17.9695 46.4071 17.7528 46.4071 17.5256V16.7585C46.3716 16.8011 46.2935 16.8402 46.1728 16.8757C46.0544 16.9089 45.9171 16.9384 45.7608 16.9645C45.6069 16.9882 45.4566 17.0095 45.3098 17.0284C45.1654 17.045 45.0482 17.0592 44.9583 17.071C44.7405 17.0994 44.5369 17.1456 44.3475 17.2095C44.1605 17.2711 44.0089 17.3646 43.8929 17.4901C43.7793 17.6132 43.7225 17.7812 43.7225 17.9943C43.7225 18.2855 43.8302 18.5057 44.0456 18.6548C44.2634 18.8016 44.5392 18.875 44.873 18.875ZM48.8885 19.5V12.2273H49.7266V14.9119H49.7976C49.8591 14.8172 49.9444 14.6965 50.0533 14.5497C50.1645 14.4006 50.3232 14.268 50.5291 14.152C50.7375 14.0336 51.0192 13.9744 51.3743 13.9744C51.8336 13.9744 52.2384 14.0893 52.5888 14.3189C52.9392 14.5485 53.2126 14.8741 53.4091 15.2955C53.6056 15.7169 53.7038 16.214 53.7038 16.7869C53.7038 17.3646 53.6056 17.8653 53.4091 18.2891C53.2126 18.7105 52.9403 19.0372 52.5923 19.2692C52.2443 19.4988 51.843 19.6136 51.3885 19.6136C51.0381 19.6136 50.7576 19.5556 50.5469 19.4396C50.3362 19.3213 50.174 19.1875 50.0604 19.0384C49.9467 18.8868 49.8591 18.7614 49.7976 18.6619H49.6982V19.5H48.8885ZM49.7124 16.7727C49.7124 17.1847 49.7727 17.5481 49.8935 17.8629C50.0142 18.1754 50.1906 18.4205 50.4226 18.598C50.6546 18.7732 50.9387 18.8608 51.2749 18.8608C51.6252 18.8608 51.9176 18.7685 52.152 18.5838C52.3887 18.3968 52.5663 18.1458 52.6847 17.831C52.8054 17.5137 52.8658 17.161 52.8658 16.7727C52.8658 16.3892 52.8066 16.0436 52.6882 15.7358C52.5722 15.4257 52.3958 15.1806 52.1591 15.0007C51.9247 14.8184 51.63 14.7273 51.2749 14.7273C50.9339 14.7273 50.6475 14.8137 50.4155 14.9865C50.1835 15.157 50.0083 15.3961 49.8899 15.7038C49.7715 16.0092 49.7124 16.3655 49.7124 16.7727ZM57.2727 19.6136C56.7472 19.6136 56.2938 19.4976 55.9126 19.2656C55.5339 19.0312 55.2415 18.7045 55.0355 18.2855C54.8319 17.8641 54.7301 17.3741 54.7301 16.8153C54.7301 16.2566 54.8319 15.7642 55.0355 15.3381C55.2415 14.9096 55.5279 14.5758 55.8949 14.3366C56.2642 14.0952 56.6951 13.9744 57.1875 13.9744C57.4716 13.9744 57.7521 14.0218 58.0291 14.1165C58.3061 14.2112 58.5582 14.3651 58.7855 14.5781C59.0128 14.7888 59.1939 15.0682 59.3288 15.4162C59.4638 15.7642 59.5312 16.1927 59.5312 16.7017V17.0568H55.3267V16.3324H58.679C58.679 16.0246 58.6174 15.75 58.4943 15.5085C58.3736 15.267 58.2008 15.0765 57.9759 14.9368C57.7533 14.7971 57.4905 14.7273 57.1875 14.7273C56.8537 14.7273 56.5649 14.8101 56.321 14.9759C56.0795 15.1392 55.8937 15.3523 55.7635 15.6151C55.6333 15.8778 55.5682 16.1596 55.5682 16.4602V16.9432C55.5682 17.3551 55.6392 17.7043 55.7812 17.9908C55.9257 18.2749 56.1257 18.4915 56.3814 18.6406C56.6371 18.7874 56.9342 18.8608 57.2727 18.8608C57.4929 18.8608 57.6918 18.83 57.8693 18.7685C58.0492 18.7045 58.2043 18.6098 58.3345 18.4844C58.4647 18.3565 58.5653 18.1979 58.6364 18.0085L59.446 18.2358C59.3608 18.5104 59.2176 18.7519 59.0163 18.9602C58.8151 19.1662 58.5665 19.3272 58.2706 19.4432C57.9747 19.5568 57.642 19.6136 57.2727 19.6136ZM61.6442 12.2273V19.5H60.8061V12.2273H61.6442Z" fill="var(--colors-neutral-neutral-800)"/>
<path d="M120 10.073C120.189 10.073 120.367 10.1208 120.534 10.2166L124.791 12.6687C124.958 12.7646 125.089 12.8948 125.183 13.0593C125.278 13.2238 125.325 13.4019 125.325 13.5935V18.407C125.325 18.5985 125.278 18.7768 125.183 18.9412C125.089 19.1056 124.958 19.236 124.791 19.3318L120.534 21.7839C120.367 21.8797 120.188 21.9275 120 21.9275C119.811 21.9274 119.632 21.8797 119.465 21.7839L115.209 19.3318C115.042 19.236 114.911 19.1055 114.817 18.9412C114.722 18.7768 114.675 18.5985 114.675 18.407V13.5935C114.675 13.4019 114.722 13.2238 114.817 13.0593C114.911 12.8949 115.042 12.7645 115.209 12.6687L119.465 10.2166C119.632 10.1207 119.811 10.0731 120 10.073ZM124.663 13.6746L120.329 16.1833L120.325 16.1765V21.157L120.337 21.1492L124.465 18.7556C124.535 18.7123 124.588 18.6605 124.623 18.5994C124.657 18.5384 124.675 18.4728 124.675 18.4031V13.6677L124.663 13.6746ZM117.512 12.0906L115.712 13.1355L115.7 13.1423L115.712 13.1492L119.996 15.6257L119.992 15.6326L120.004 15.6257L121.804 14.5808L121.817 14.573L121.804 14.5662L117.521 12.0906L117.516 12.0974L117.525 12.0828L117.512 12.0906ZM120 10.7097C119.965 10.7098 119.93 10.7155 119.895 10.7263L119.791 10.7751L118.196 11.6912L118.183 11.699L118.196 11.7058L122.47 14.1902L122.465 14.198L122.478 14.1902L124.288 13.1492L124.3 13.1423L124.288 13.1355L120.209 10.7751C120.14 10.7317 120.07 10.7097 120 10.7097ZM119.67 16.1843L115.337 13.6746L115.325 13.6677V18.4031C115.325 18.4728 115.343 18.5384 115.377 18.5994C115.412 18.6604 115.465 18.7124 115.534 18.7556L119.663 21.1492L119.675 21.157V16.1912H119.683L119.67 16.1843Z" fill="var(--colors-neutral-neutral-700)" stroke="var(--colors-neutral-neutral-700)" stroke-width="0.0166667"/>
<path d="M137.605 12.2273V19.5H136.767V12.2273H137.605ZM140.745 19.6278C140.4 19.6278 140.086 19.5627 139.804 19.4325C139.522 19.3 139.299 19.1094 139.133 18.8608C138.967 18.6098 138.884 18.3068 138.884 17.9517C138.884 17.6392 138.946 17.3859 139.069 17.1918C139.192 16.9953 139.357 16.8414 139.563 16.7301C139.769 16.6188 139.996 16.536 140.244 16.4815C140.495 16.4247 140.748 16.3797 141.001 16.3466C141.332 16.304 141.601 16.272 141.807 16.2507C142.015 16.227 142.167 16.188 142.262 16.1335C142.359 16.0791 142.407 15.9844 142.407 15.8494V15.821C142.407 15.4706 142.311 15.1984 142.119 15.0043C141.93 14.8101 141.642 14.7131 141.257 14.7131C140.856 14.7131 140.543 14.8007 140.316 14.9759C140.088 15.151 139.928 15.3381 139.836 15.5369L139.041 15.2528C139.183 14.9214 139.372 14.6634 139.609 14.4787C139.848 14.2917 140.108 14.1615 140.39 14.0881C140.674 14.0123 140.954 13.9744 141.228 13.9744C141.403 13.9744 141.605 13.9957 141.832 14.0384C142.061 14.0786 142.283 14.1626 142.496 14.2905C142.711 14.4183 142.89 14.6113 143.032 14.8693C143.174 15.1274 143.245 15.473 143.245 15.9062V19.5H142.407V18.7614H142.365C142.308 18.8797 142.213 19.0064 142.08 19.1413C141.948 19.2763 141.771 19.3911 141.551 19.4858C141.331 19.5805 141.062 19.6278 140.745 19.6278ZM140.873 18.875C141.204 18.875 141.484 18.8099 141.711 18.6797C141.941 18.5495 142.114 18.3814 142.23 18.1754C142.348 17.9695 142.407 17.7528 142.407 17.5256V16.7585C142.372 16.8011 142.294 16.8402 142.173 16.8757C142.054 16.9089 141.917 16.9384 141.761 16.9645C141.607 16.9882 141.457 17.0095 141.31 17.0284C141.165 17.045 141.048 17.0592 140.958 17.071C140.74 17.0994 140.537 17.1456 140.347 17.2095C140.16 17.2711 140.009 17.3646 139.893 17.4901C139.779 17.6132 139.722 17.7812 139.722 17.9943C139.722 18.2855 139.83 18.5057 140.046 18.6548C140.263 18.8016 140.539 18.875 140.873 18.875ZM144.888 19.5V12.2273H145.727V14.9119H145.798C145.859 14.8172 145.944 14.6965 146.053 14.5497C146.165 14.4006 146.323 14.268 146.529 14.152C146.737 14.0336 147.019 13.9744 147.374 13.9744C147.834 13.9744 148.238 14.0893 148.589 14.3189C148.939 14.5485 149.213 14.8741 149.409 15.2955C149.606 15.7169 149.704 16.214 149.704 16.7869C149.704 17.3646 149.606 17.8653 149.409 18.2891C149.213 18.7105 148.94 19.0372 148.592 19.2692C148.244 19.4988 147.843 19.6136 147.388 19.6136C147.038 19.6136 146.758 19.5556 146.547 19.4396C146.336 19.3213 146.174 19.1875 146.06 19.0384C145.947 18.8868 145.859 18.7614 145.798 18.6619H145.698V19.5H144.888ZM145.712 16.7727C145.712 17.1847 145.773 17.5481 145.893 17.8629C146.014 18.1754 146.191 18.4205 146.423 18.598C146.655 18.7732 146.939 18.8608 147.275 18.8608C147.625 18.8608 147.918 18.7685 148.152 18.5838C148.389 18.3968 148.566 18.1458 148.685 17.831C148.805 17.5137 148.866 17.161 148.866 16.7727C148.866 16.3892 148.807 16.0436 148.688 15.7358C148.572 15.4257 148.396 15.1806 148.159 15.0007C147.925 14.8184 147.63 14.7273 147.275 14.7273C146.934 14.7273 146.647 14.8137 146.415 14.9865C146.183 15.157 146.008 15.3961 145.89 15.7038C145.772 16.0092 145.712 16.3655 145.712 16.7727ZM153.273 19.6136C152.747 19.6136 152.294 19.4976 151.913 19.2656C151.534 19.0312 151.241 18.7045 151.036 18.2855C150.832 17.8641 150.73 17.3741 150.73 16.8153C150.73 16.2566 150.832 15.7642 151.036 15.3381C151.241 14.9096 151.528 14.5758 151.895 14.3366C152.264 14.0952 152.695 13.9744 153.188 13.9744C153.472 13.9744 153.752 14.0218 154.029 14.1165C154.306 14.2112 154.558 14.3651 154.786 14.5781C155.013 14.7888 155.194 15.0682 155.329 15.4162C155.464 15.7642 155.531 16.1927 155.531 16.7017V17.0568H151.327V16.3324H154.679C154.679 16.0246 154.617 15.75 154.494 15.5085C154.374 15.267 154.201 15.0765 153.976 14.9368C153.753 14.7971 153.491 14.7273 153.188 14.7273C152.854 14.7273 152.565 14.8101 152.321 14.9759C152.08 15.1392 151.894 15.3523 151.763 15.6151C151.633 15.8778 151.568 16.1596 151.568 16.4602V16.9432C151.568 17.3551 151.639 17.7043 151.781 17.9908C151.926 18.2749 152.126 18.4915 152.381 18.6406C152.637 18.7874 152.934 18.8608 153.273 18.8608C153.493 18.8608 153.692 18.83 153.869 18.7685C154.049 18.7045 154.204 18.6098 154.335 18.4844C154.465 18.3565 154.565 18.1979 154.636 18.0085L155.446 18.2358C155.361 18.5104 155.218 18.7519 155.016 18.9602C154.815 19.1662 154.567 19.3272 154.271 19.4432C153.975 19.5568 153.642 19.6136 153.273 19.6136ZM157.644 12.2273V19.5H156.806V12.2273H157.644Z" fill="var(--colors-neutral-neutral-800)"/>
</svg>
