<svg width="319" height="48" viewBox="0 0 319 48" fill="none" xmlns="http://www.w3.org/2000/svg">
<rect width="319" height="32" transform="translate(0 8.5)" fill="white"/>
<rect width="127" height="32" transform="translate(0 8.5)" fill="white"/>
<path d="M17.179 28.5H16.2557L18.9261 21.2273H19.8352L22.5057 28.5H21.5824L19.4091 22.3778H19.3523L17.179 28.5ZM17.5199 25.6591H21.2415V26.4403H17.5199V25.6591ZM23.5249 28.5V23.0455H24.3345V23.8693H24.3913C24.4908 23.5994 24.6707 23.3804 24.9311 23.2124C25.1915 23.0443 25.4851 22.9602 25.8118 22.9602C25.8733 22.9602 25.9503 22.9614 26.0426 22.9638C26.1349 22.9661 26.2048 22.9697 26.2521 22.9744V23.8267C26.2237 23.8196 26.1586 23.8089 26.0568 23.7947C25.9574 23.7782 25.852 23.7699 25.7408 23.7699C25.4756 23.7699 25.2389 23.8255 25.0305 23.9368C24.8246 24.0457 24.6612 24.1972 24.5405 24.3913C24.4221 24.5831 24.3629 24.8021 24.3629 25.0483V28.5H23.5249ZM27.2456 28.5V23.0455H28.0552V23.8693H28.112C28.2115 23.5994 28.3914 23.3804 28.6518 23.2124C28.9122 23.0443 29.2058 22.9602 29.5325 22.9602C29.594 22.9602 29.671 22.9614 29.7633 22.9638C29.8556 22.9661 29.9255 22.9697 29.9728 22.9744V23.8267C29.9444 23.8196 29.8793 23.8089 29.7775 23.7947C29.6781 23.7782 29.5727 23.7699 29.4615 23.7699C29.1963 23.7699 28.9596 23.8255 28.7512 23.9368C28.5453 24.0457 28.3819 24.1972 28.2612 24.3913C28.1428 24.5831 28.0836 24.8021 28.0836 25.0483V28.5H27.2456ZM30.9663 28.5V23.0455H31.8043V28.5H30.9663ZM31.3924 22.1364C31.229 22.1364 31.0882 22.0807 30.9698 21.9695C30.8538 21.8582 30.7958 21.7244 30.7958 21.5682C30.7958 21.4119 30.8538 21.2782 30.9698 21.1669C31.0882 21.0556 31.229 21 31.3924 21C31.5558 21 31.6954 21.0556 31.8114 21.1669C31.9298 21.2782 31.989 21.4119 31.989 21.5682C31.989 21.7244 31.9298 21.8582 31.8114 21.9695C31.6954 22.0807 31.5558 22.1364 31.3924 22.1364ZM37.7995 23.0455L35.7825 28.5H34.9302L32.9132 23.0455H33.8223L35.3279 27.392H35.3848L36.8904 23.0455H37.7995ZM40.3448 28.6278C39.9992 28.6278 39.6855 28.5627 39.4038 28.4325C39.122 28.3 38.8983 28.1094 38.7326 27.8608C38.5669 27.6098 38.484 27.3068 38.484 26.9517C38.484 26.6392 38.5456 26.3859 38.6687 26.1918C38.7918 25.9953 38.9563 25.8414 39.1623 25.7301C39.3683 25.6188 39.5955 25.536 39.8441 25.4815C40.0951 25.4247 40.3472 25.3797 40.6005 25.3466C40.9319 25.304 41.2006 25.272 41.4066 25.2507C41.6149 25.227 41.7665 25.188 41.8612 25.1335C41.9582 25.0791 42.0067 24.9844 42.0067 24.8494V24.821C42.0067 24.4706 41.9109 24.1984 41.7191 24.0043C41.5297 23.8101 41.2421 23.7131 40.8562 23.7131C40.4561 23.7131 40.1424 23.8007 39.9151 23.9759C39.6879 24.151 39.5281 24.3381 39.4357 24.5369L38.6403 24.2528C38.7823 23.9214 38.9717 23.6634 39.2085 23.4787C39.4476 23.2917 39.708 23.1615 39.9897 23.0881C40.2738 23.0123 40.5531 22.9744 40.8278 22.9744C41.003 22.9744 41.2042 22.9957 41.4315 23.0384C41.6611 23.0786 41.8825 23.1626 42.0955 23.2905C42.311 23.4183 42.4897 23.6113 42.6317 23.8693C42.7738 24.1274 42.8448 24.473 42.8448 24.9062V28.5H42.0067V27.7614H41.9641C41.9073 27.8797 41.8126 28.0064 41.68 28.1413C41.5475 28.2763 41.3711 28.3911 41.1509 28.4858C40.9308 28.5805 40.6621 28.6278 40.3448 28.6278ZM40.4727 27.875C40.8041 27.875 41.0835 27.8099 41.3107 27.6797C41.5404 27.5495 41.7132 27.3814 41.8292 27.1754C41.9476 26.9695 42.0067 26.7528 42.0067 26.5256V25.7585C41.9712 25.8011 41.8931 25.8402 41.7724 25.8757C41.654 25.9089 41.5167 25.9384 41.3604 25.9645C41.2066 25.9882 41.0562 26.0095 40.9094 26.0284C40.765 26.045 40.6478 26.0592 40.5579 26.071C40.3401 26.0994 40.1365 26.1456 39.9471 26.2095C39.7601 26.2711 39.6085 26.3646 39.4925 26.4901C39.3789 26.6132 39.3221 26.7812 39.3221 26.9943C39.3221 27.2855 39.4298 27.5057 39.6452 27.6548C39.863 27.8016 40.1388 27.875 40.4727 27.875ZM45.2125 21.2273V28.5H44.3745V21.2273H45.2125ZM51.9322 23.0455V23.7557H49.1055V23.0455H51.9322ZM49.9293 21.7386H50.7674V26.9375C50.7674 27.1742 50.8017 27.3518 50.8704 27.4702C50.9414 27.5862 51.0314 27.6643 51.1403 27.7045C51.2515 27.7424 51.3687 27.7614 51.4918 27.7614C51.5842 27.7614 51.6599 27.7566 51.7191 27.7472C51.7783 27.7353 51.8256 27.7259 51.8612 27.7188L52.0316 28.4716C51.9748 28.4929 51.8955 28.5142 51.7937 28.5355C51.6919 28.5592 51.5629 28.571 51.4066 28.571C51.1699 28.571 50.9379 28.5201 50.7106 28.4183C50.4857 28.3165 50.2987 28.1615 50.1495 27.9531C50.0027 27.7448 49.9293 27.482 49.9293 27.1648V21.7386ZM53.1928 28.5V23.0455H54.0309V28.5H53.1928ZM53.619 22.1364C53.4556 22.1364 53.3147 22.0807 53.1964 21.9695C53.0804 21.8582 53.0224 21.7244 53.0224 21.5682C53.0224 21.4119 53.0804 21.2782 53.1964 21.1669C53.3147 21.0556 53.4556 21 53.619 21C53.7823 21 53.922 21.0556 54.038 21.1669C54.1564 21.2782 54.2156 21.4119 54.2156 21.5682C54.2156 21.7244 54.1564 21.8582 54.038 21.9695C53.922 22.0807 53.7823 22.1364 53.619 22.1364ZM55.5659 28.5V23.0455H56.3755V23.8977H56.4466C56.5602 23.6065 56.7437 23.3804 56.997 23.2195C57.2503 23.0561 57.5545 22.9744 57.9096 22.9744C58.2695 22.9744 58.569 23.0561 58.8081 23.2195C59.0495 23.3804 59.2377 23.6065 59.3727 23.8977H59.4295C59.5692 23.616 59.7787 23.3923 60.0581 23.2266C60.3374 23.0585 60.6724 22.9744 61.063 22.9744C61.5507 22.9744 61.9496 23.1271 62.2598 23.4325C62.5699 23.7356 62.725 24.2079 62.725 24.8494V28.5H61.8869V24.8494C61.8869 24.447 61.7768 24.1593 61.5566 23.9865C61.3365 23.8137 61.0772 23.7273 60.7789 23.7273C60.3954 23.7273 60.0983 23.8433 59.8876 24.0753C59.6769 24.3049 59.5716 24.5961 59.5716 24.9489V28.5H58.7193V24.7642C58.7193 24.4541 58.6187 24.2043 58.4174 24.0149C58.2162 23.8232 57.957 23.7273 57.6397 23.7273C57.4219 23.7273 57.2183 23.7853 57.0289 23.9013C56.8419 24.0173 56.6904 24.1783 56.5744 24.3842C56.4608 24.5878 56.4039 24.8234 56.4039 25.0909V28.5H55.5659ZM66.5442 28.6136C66.0186 28.6136 65.5653 28.4976 65.1841 28.2656C64.8053 28.0312 64.513 27.7045 64.307 27.2855C64.1034 26.8641 64.0016 26.3741 64.0016 25.8153C64.0016 25.2566 64.1034 24.7642 64.307 24.3381C64.513 23.9096 64.7994 23.5758 65.1664 23.3366C65.5357 23.0952 65.9666 22.9744 66.459 22.9744C66.7431 22.9744 67.0236 23.0218 67.3006 23.1165C67.5776 23.2112 67.8297 23.3651 68.057 23.5781C68.2843 23.7888 68.4654 24.0682 68.6003 24.4162C68.7353 24.7642 68.8027 25.1927 68.8027 25.7017V26.0568H64.5982V25.3324H67.9505C67.9505 25.0246 67.8889 24.75 67.7658 24.5085C67.6451 24.267 67.4722 24.0765 67.2473 23.9368C67.0248 23.7971 66.762 23.7273 66.459 23.7273C66.1252 23.7273 65.8364 23.8101 65.5925 23.9759C65.351 24.1392 65.1652 24.3523 65.035 24.6151C64.9048 24.8778 64.8397 25.1596 64.8397 25.4602V25.9432C64.8397 26.3551 64.9107 26.7043 65.0527 26.9908C65.1971 27.2749 65.3972 27.4915 65.6529 27.6406C65.9086 27.7874 66.2057 27.8608 66.5442 27.8608C66.7644 27.8608 66.9632 27.83 67.1408 27.7685C67.3207 27.7045 67.4758 27.6098 67.606 27.4844C67.7362 27.3565 67.8368 27.1979 67.9078 27.0085L68.7175 27.2358C68.6323 27.5104 68.4891 27.7519 68.2878 27.9602C68.0866 28.1662 67.838 28.3272 67.5421 28.4432C67.2462 28.5568 66.9135 28.6136 66.5442 28.6136ZM76.7537 24.267L76.0009 24.4801C75.9535 24.3546 75.8837 24.2327 75.7914 24.1143C75.7014 23.9936 75.5783 23.8942 75.4221 23.8161C75.2658 23.7379 75.0658 23.6989 74.8219 23.6989C74.4881 23.6989 74.2099 23.7758 73.9874 23.9297C73.7672 24.0812 73.6571 24.2741 73.6571 24.5085C73.6571 24.7169 73.7329 24.8814 73.8844 25.0021C74.0359 25.1229 74.2727 25.2235 74.5946 25.304L75.4043 25.5028C75.892 25.6212 76.2554 25.8023 76.4945 26.0462C76.7336 26.2876 76.8532 26.599 76.8532 26.9801C76.8532 27.2926 76.7632 27.572 76.5833 27.8182C76.4057 28.0644 76.1571 28.2585 75.8375 28.4006C75.5179 28.5426 75.1462 28.6136 74.7225 28.6136C74.1661 28.6136 73.7057 28.4929 73.3411 28.2514C72.9765 28.0099 72.7457 27.6572 72.6486 27.1932L73.4441 26.9943C73.5198 27.2879 73.6631 27.508 73.8738 27.6548C74.0868 27.8016 74.365 27.875 74.7083 27.875C75.0989 27.875 75.409 27.7921 75.6387 27.6264C75.8707 27.4583 75.9867 27.2571 75.9867 27.0227C75.9867 26.8333 75.9204 26.6747 75.7878 26.5469C75.6552 26.4167 75.4516 26.3196 75.177 26.2557L74.2679 26.0426C73.7684 25.9242 73.4015 25.7408 73.1671 25.4922C72.9351 25.2412 72.8191 24.9276 72.8191 24.5511C72.8191 24.2434 72.9055 23.9711 73.0783 23.7344C73.2535 23.4976 73.4914 23.3118 73.7921 23.1768C74.0951 23.0419 74.4384 22.9744 74.8219 22.9744C75.3617 22.9744 75.7855 23.0928 76.0932 23.3295C76.4033 23.5663 76.6235 23.8788 76.7537 24.267ZM80.3306 28.6136C79.8192 28.6136 79.3789 28.4929 79.0096 28.2514C78.6403 28.0099 78.3562 27.6773 78.1573 27.2536C77.9585 26.8298 77.859 26.3456 77.859 25.8011C77.859 25.2472 77.9608 24.7583 78.1644 24.3345C78.3704 23.9084 78.6568 23.5758 79.0238 23.3366C79.3931 23.0952 79.824 22.9744 80.3164 22.9744C80.6999 22.9744 81.0456 23.0455 81.3533 23.1875C81.6611 23.3295 81.9132 23.5284 82.1097 23.7841C82.3062 24.0398 82.4281 24.3381 82.4755 24.679H81.6374C81.5735 24.4304 81.4315 24.2102 81.2113 24.0185C80.9935 23.8243 80.6999 23.7273 80.3306 23.7273C80.0039 23.7273 79.7174 23.8125 79.4712 23.983C79.2274 24.151 79.0368 24.389 78.8995 24.6967C78.7646 25.0021 78.6971 25.3608 78.6971 25.7727C78.6971 26.1941 78.7634 26.5611 78.896 26.8736C79.0309 27.1861 79.2203 27.4287 79.4641 27.6016C79.7103 27.7744 79.9992 27.8608 80.3306 27.8608C80.5484 27.8608 80.7461 27.8229 80.9237 27.7472C81.1012 27.6714 81.2515 27.5625 81.3746 27.4205C81.4978 27.2784 81.5853 27.108 81.6374 26.9091H82.4755C82.4281 27.2311 82.311 27.5211 82.1239 27.7791C81.9393 28.0348 81.6942 28.2384 81.3888 28.3899C81.0858 28.5391 80.7331 28.6136 80.3306 28.6136ZM85.3058 28.6278C84.9601 28.6278 84.6464 28.5627 84.3647 28.4325C84.083 28.3 83.8593 28.1094 83.6935 27.8608C83.5278 27.6098 83.445 27.3068 83.445 26.9517C83.445 26.6392 83.5065 26.3859 83.6296 26.1918C83.7527 25.9953 83.9173 25.8414 84.1232 25.7301C84.3292 25.6188 84.5565 25.536 84.805 25.4815C85.056 25.4247 85.3081 25.3797 85.5614 25.3466C85.8929 25.304 86.1616 25.272 86.3675 25.2507C86.5759 25.227 86.7274 25.188 86.8221 25.1335C86.9192 25.0791 86.9677 24.9844 86.9677 24.8494V24.821C86.9677 24.4706 86.8718 24.1984 86.68 24.0043C86.4906 23.8101 86.203 23.7131 85.8171 23.7131C85.417 23.7131 85.1033 23.8007 84.8761 23.9759C84.6488 24.151 84.489 24.3381 84.3967 24.5369L83.6012 24.2528C83.7433 23.9214 83.9326 23.6634 84.1694 23.4787C84.4085 23.2917 84.6689 23.1615 84.9506 23.0881C85.2347 23.0123 85.5141 22.9744 85.7887 22.9744C85.9639 22.9744 86.1651 22.9957 86.3924 23.0384C86.622 23.0786 86.8434 23.1626 87.0565 23.2905C87.2719 23.4183 87.4506 23.6113 87.5927 23.8693C87.7347 24.1274 87.8058 24.473 87.8058 24.9062V28.5H86.9677V27.7614H86.9251C86.8683 27.8797 86.7736 28.0064 86.641 28.1413C86.5084 28.2763 86.332 28.3911 86.1119 28.4858C85.8917 28.5805 85.623 28.6278 85.3058 28.6278ZM85.4336 27.875C85.765 27.875 86.0444 27.8099 86.2717 27.6797C86.5013 27.5495 86.6741 27.3814 86.7901 27.1754C86.9085 26.9695 86.9677 26.7528 86.9677 26.5256V25.7585C86.9322 25.8011 86.854 25.8402 86.7333 25.8757C86.6149 25.9089 86.4776 25.9384 86.3214 25.9645C86.1675 25.9882 86.0172 26.0095 85.8704 26.0284C85.726 26.045 85.6088 26.0592 85.5188 26.071C85.301 26.0994 85.0974 26.1456 84.908 26.2095C84.721 26.2711 84.5695 26.3646 84.4535 26.4901C84.3398 26.6132 84.283 26.7812 84.283 26.9943C84.283 27.2855 84.3907 27.5057 84.6062 27.6548C84.824 27.8016 85.0998 27.875 85.4336 27.875ZM90.1735 21.2273V28.5H89.3354V21.2273H90.1735ZM91.7085 28.5V23.0455H92.5465V28.5H91.7085ZM92.1346 22.1364C91.9712 22.1364 91.8304 22.0807 91.712 21.9695C91.596 21.8582 91.538 21.7244 91.538 21.5682C91.538 21.4119 91.596 21.2782 91.712 21.1669C91.8304 21.0556 91.9712 21 92.1346 21C92.2979 21 92.4376 21.0556 92.5536 21.1669C92.672 21.2782 92.7312 21.4119 92.7312 21.5682C92.7312 21.7244 92.672 21.8582 92.5536 21.9695C92.4376 22.0807 92.2979 22.1364 92.1346 22.1364ZM94.9196 25.2188V28.5H94.0815V23.0455H94.8912V23.8977H94.9622C95.09 23.6207 95.2842 23.3982 95.5446 23.2301C95.805 23.0597 96.1412 22.9744 96.5531 22.9744C96.9224 22.9744 97.2456 23.0502 97.5225 23.2017C97.7995 23.3509 98.015 23.5781 98.1689 23.8835C98.3227 24.1866 98.3997 24.5701 98.3997 25.0341V28.5H97.5616V25.0909C97.5616 24.6624 97.4503 24.3286 97.2278 24.0895C97.0053 23.848 96.6999 23.7273 96.3116 23.7273C96.0441 23.7273 95.805 23.7853 95.5943 23.9013C95.3859 24.0173 95.2214 24.1866 95.1007 24.4091C94.9799 24.6316 94.9196 24.9015 94.9196 25.2188ZM102.133 30.6591C101.728 30.6591 101.38 30.607 101.089 30.5028C100.798 30.401 100.555 30.2661 100.361 30.098C100.169 29.9323 100.016 29.7547 99.9027 29.5653L100.57 29.0966C100.646 29.196 100.742 29.3097 100.858 29.4375C100.974 29.5677 101.133 29.6802 101.334 29.7749C101.537 29.8719 101.804 29.9205 102.133 29.9205C102.573 29.9205 102.937 29.8139 103.223 29.6009C103.509 29.3878 103.653 29.054 103.653 28.5994V27.4915H103.582C103.52 27.5909 103.433 27.714 103.319 27.8608C103.208 28.0052 103.047 28.1342 102.836 28.2479C102.628 28.3591 102.346 28.4148 101.991 28.4148C101.55 28.4148 101.155 28.3106 100.805 28.1023C100.457 27.8939 100.181 27.5909 99.9773 27.1932C99.776 26.7955 99.6754 26.3125 99.6754 25.7443C99.6754 25.1856 99.7737 24.6991 99.9702 24.2848C100.167 23.8681 100.44 23.5462 100.79 23.3189C101.141 23.0893 101.546 22.9744 102.005 22.9744C102.36 22.9744 102.642 23.0336 102.85 23.152C103.061 23.268 103.222 23.4006 103.333 23.5497C103.447 23.6965 103.534 23.8172 103.596 23.9119H103.681V23.0455H104.491V28.6562C104.491 29.125 104.384 29.5062 104.171 29.7997C103.96 30.0956 103.676 30.3123 103.319 30.4496C102.964 30.5893 102.568 30.6591 102.133 30.6591ZM102.104 27.6619C102.441 27.6619 102.725 27.585 102.957 27.4311C103.189 27.2772 103.365 27.0559 103.486 26.767C103.607 26.4782 103.667 26.1326 103.667 25.7301C103.667 25.3371 103.608 24.9903 103.489 24.6896C103.371 24.389 103.196 24.1534 102.964 23.983C102.732 23.8125 102.445 23.7273 102.104 23.7273C101.749 23.7273 101.453 23.8172 101.217 23.9972C100.982 24.1771 100.806 24.4186 100.688 24.7216C100.571 25.0246 100.513 25.3608 100.513 25.7301C100.513 26.1089 100.573 26.4439 100.691 26.7351C100.812 27.0239 100.989 27.2512 101.224 27.4169C101.46 27.5803 101.754 27.6619 102.104 27.6619Z" fill="#222222"/>
<g clip-path="url(#clip0_3023_9457)">
<rect x="148" y="24" width="118" height="1" rx="0.5" fill="#808080"/>
<rect x="148" y="24" width="118" height="1" rx="0.5" fill="#808080"/>
</g>
<g clip-path="url(#clip1_3023_9457)">
<rect x="148" y="24" width="87" height="1" rx="0.5" fill="#808080"/>
<rect x="148" y="24" width="87" height="1" rx="0.5" fill="#808080"/>
</g>
<path d="M153.5 20.5C151.567 20.5 150 22.067 150 24C150 25.933 151.567 27.5 153.5 27.5C155.433 27.5 157 25.933 157 24C157 22.067 155.433 20.5 153.5 20.5Z" fill="white" stroke="#222222"/>
<path d="M291 28.5994C290.465 28.5994 290.009 28.4538 289.633 28.1626C289.256 27.8691 288.969 27.4441 288.77 26.8878C288.571 26.3291 288.472 25.6544 288.472 24.8636C288.472 24.0777 288.571 23.4065 288.77 22.8501C288.971 22.2914 289.26 21.8653 289.636 21.5717C290.015 21.2758 290.47 21.1278 291 21.1278C291.53 21.1278 291.984 21.2758 292.36 21.5717C292.739 21.8653 293.028 22.2914 293.227 22.8501C293.428 23.4065 293.528 24.0777 293.528 24.8636C293.528 25.6544 293.429 26.3291 293.23 26.8878C293.031 27.4441 292.744 27.8691 292.367 28.1626C291.991 28.4538 291.535 28.5994 291 28.5994ZM291 27.8182C291.53 27.8182 291.942 27.5625 292.236 27.0511C292.529 26.5398 292.676 25.8106 292.676 24.8636C292.676 24.2339 292.609 23.6977 292.474 23.255C292.341 22.8123 292.149 22.4749 291.898 22.2429C291.65 22.0109 291.35 21.8949 291 21.8949C290.474 21.8949 290.064 22.1541 289.768 22.6726C289.472 23.1887 289.324 23.919 289.324 24.8636C289.324 25.4934 289.39 26.0284 289.523 26.4688C289.655 26.9091 289.846 27.2441 290.094 27.4737C290.345 27.7034 290.647 27.8182 291 27.8182Z" fill="#222222"/>
<defs>
<clipPath id="clip0_3023_9457">
<rect x="148" y="24" width="118" height="1" rx="0.5" fill="white"/>
</clipPath>
<clipPath id="clip1_3023_9457">
<rect x="148" y="24" width="87" height="1" rx="0.5" fill="white"/>
</clipPath>
</defs>
</svg>
