<svg width="320" height="173" viewBox="0 0 320 173" fill="none" xmlns="http://www.w3.org/2000/svg">
<rect width="320" height="173" fill="white"/>
<path d="M17.0568 24V15.2727H18.1136V23.0625H22.1705V24H17.0568ZM26.3295 24.1364C25.7386 24.1364 25.2202 23.9957 24.7741 23.7145C24.331 23.4332 23.9844 23.0398 23.7344 22.5341C23.4872 22.0284 23.3636 21.4375 23.3636 20.7614C23.3636 20.0795 23.4872 19.4844 23.7344 18.9759C23.9844 18.4673 24.331 18.0724 24.7741 17.7912C25.2202 17.5099 25.7386 17.3693 26.3295 17.3693C26.9205 17.3693 27.4375 17.5099 27.8807 17.7912C28.3267 18.0724 28.6733 18.4673 28.9205 18.9759C29.1705 19.4844 29.2955 20.0795 29.2955 20.7614C29.2955 21.4375 29.1705 22.0284 28.9205 22.5341C28.6733 23.0398 28.3267 23.4332 27.8807 23.7145C27.4375 23.9957 26.9205 24.1364 26.3295 24.1364ZM26.3295 23.233C26.7784 23.233 27.1477 23.1179 27.4375 22.8878C27.7273 22.6577 27.9418 22.3551 28.081 21.9801C28.2202 21.6051 28.2898 21.1989 28.2898 20.7614C28.2898 20.3239 28.2202 19.9162 28.081 19.5384C27.9418 19.1605 27.7273 18.8551 27.4375 18.6222C27.1477 18.3892 26.7784 18.2727 26.3295 18.2727C25.8807 18.2727 25.5114 18.3892 25.2216 18.6222C24.9318 18.8551 24.7173 19.1605 24.5781 19.5384C24.4389 19.9162 24.3693 20.3239 24.3693 20.7614C24.3693 21.1989 24.4389 21.6051 24.5781 21.9801C24.7173 22.3551 24.9318 22.6577 25.2216 22.8878C25.5114 23.1179 25.8807 23.233 26.3295 23.233ZM32.7567 24.1534C32.342 24.1534 31.9656 24.0753 31.6275 23.919C31.2894 23.7599 31.021 23.5312 30.8221 23.233C30.6232 22.9318 30.5238 22.5682 30.5238 22.142C30.5238 21.767 30.5977 21.4631 30.7454 21.2301C30.8931 20.9943 31.0906 20.8097 31.3377 20.6761C31.5849 20.5426 31.8576 20.4432 32.1559 20.3778C32.457 20.3097 32.7596 20.2557 33.0636 20.2159C33.4613 20.1648 33.7837 20.1264 34.0309 20.1009C34.2809 20.0724 34.4627 20.0256 34.5763 19.9602C34.6928 19.8949 34.7511 19.7812 34.7511 19.6193V19.5852C34.7511 19.1648 34.636 18.8381 34.4059 18.6051C34.1786 18.3722 33.8335 18.2557 33.3704 18.2557C32.8903 18.2557 32.5138 18.3608 32.2411 18.571C31.9684 18.7812 31.7766 19.0057 31.6658 19.2443L30.7113 18.9034C30.8817 18.5057 31.109 18.196 31.3931 17.9744C31.68 17.75 31.9925 17.5937 32.3306 17.5057C32.6715 17.4148 33.0067 17.3693 33.3363 17.3693C33.5465 17.3693 33.788 17.3949 34.0607 17.446C34.3363 17.4943 34.6019 17.5952 34.8576 17.7486C35.1161 17.902 35.3306 18.1335 35.5011 18.4432C35.6715 18.7528 35.7567 19.1676 35.7567 19.6875V24H34.7511V23.1136H34.6999C34.6317 23.2557 34.5181 23.4077 34.359 23.5696C34.1999 23.7315 33.9883 23.8693 33.7241 23.983C33.4599 24.0966 33.1374 24.1534 32.7567 24.1534ZM32.9102 23.25C33.3079 23.25 33.6431 23.1719 33.9158 23.0156C34.1914 22.8594 34.3988 22.6577 34.538 22.4105C34.68 22.1634 34.7511 21.9034 34.7511 21.6307V20.7102C34.7085 20.7614 34.6147 20.8082 34.4698 20.8509C34.3278 20.8906 34.163 20.9261 33.9755 20.9574C33.7908 20.9858 33.6104 21.0114 33.4343 21.0341C33.261 21.054 33.1204 21.071 33.0124 21.0852C32.7511 21.1193 32.5067 21.1747 32.2795 21.2514C32.055 21.3253 31.8732 21.4375 31.734 21.5881C31.5977 21.7358 31.5295 21.9375 31.5295 22.1932C31.5295 22.5426 31.6587 22.8068 31.9173 22.9858C32.1786 23.1619 32.5096 23.25 32.9102 23.25ZM40.0639 24.1364C39.5185 24.1364 39.0369 23.9986 38.6193 23.723C38.2017 23.4446 37.875 23.0526 37.6392 22.5469C37.4034 22.0384 37.2855 21.4375 37.2855 20.7443C37.2855 20.0568 37.4034 19.4602 37.6392 18.9545C37.875 18.4489 38.2031 18.0582 38.6236 17.7827C39.044 17.5071 39.5298 17.3693 40.081 17.3693C40.5071 17.3693 40.8438 17.4403 41.0909 17.5824C41.3409 17.7216 41.5313 17.8807 41.6619 18.0597C41.7955 18.2358 41.8991 18.3807 41.973 18.4943H42.0582V15.2727H43.0639V24H42.0923V22.9943H41.973C41.8991 23.1136 41.794 23.2642 41.6577 23.446C41.5213 23.625 41.3267 23.7855 41.0739 23.9276C40.821 24.0668 40.4844 24.1364 40.0639 24.1364ZM40.2003 23.233C40.6037 23.233 40.9446 23.1278 41.223 22.9176C41.5014 22.7045 41.7131 22.4105 41.858 22.0355C42.0028 21.6577 42.0753 21.2216 42.0753 20.7273C42.0753 20.2386 42.0043 19.8111 41.8622 19.4446C41.7202 19.0753 41.5099 18.7884 41.2315 18.5838C40.9531 18.3764 40.6094 18.2727 40.2003 18.2727C39.7741 18.2727 39.419 18.3821 39.1349 18.6009C38.8537 18.8168 38.642 19.1108 38.5 19.483C38.3608 19.8523 38.2912 20.267 38.2912 20.7273C38.2912 21.1932 38.3622 21.6165 38.5043 21.9972C38.6491 22.375 38.8622 22.6761 39.1435 22.9006C39.4276 23.1222 39.7798 23.233 40.2003 23.233ZM51.4716 15.2727V24H50.4148V16.3807H50.3636L48.233 17.7955V16.7216L50.4148 15.2727H51.4716Z" fill="#222222"/>
<path d="M269.125 23.5994C268.59 23.5994 268.134 23.4538 267.758 23.1626C267.381 22.8691 267.094 22.4441 266.895 21.8878C266.696 21.3291 266.597 20.6544 266.597 19.8636C266.597 19.0777 266.696 18.4065 266.895 17.8501C267.096 17.2914 267.385 16.8653 267.761 16.5717C268.14 16.2758 268.595 16.1278 269.125 16.1278C269.655 16.1278 270.109 16.2758 270.485 16.5717C270.864 16.8653 271.153 17.2914 271.352 17.8501C271.553 18.4065 271.653 19.0777 271.653 19.8636C271.653 20.6544 271.554 21.3291 271.355 21.8878C271.156 22.4441 270.869 22.8691 270.492 23.1626C270.116 23.4538 269.66 23.5994 269.125 23.5994ZM269.125 22.8182C269.655 22.8182 270.067 22.5625 270.361 22.0511C270.654 21.5398 270.801 20.8106 270.801 19.8636C270.801 19.2339 270.734 18.6977 270.599 18.255C270.466 17.8123 270.274 17.4749 270.023 17.2429C269.775 17.0109 269.475 16.8949 269.125 16.8949C268.599 16.8949 268.189 17.1541 267.893 17.6726C267.597 18.1887 267.449 18.919 267.449 19.8636C267.449 20.4934 267.515 21.0284 267.648 21.4688C267.78 21.9091 267.971 22.2441 268.219 22.4737C268.47 22.7034 268.772 22.8182 269.125 22.8182ZM275.375 23.5994C274.84 23.5994 274.384 23.4538 274.008 23.1626C273.631 22.8691 273.344 22.4441 273.145 21.8878C272.946 21.3291 272.847 20.6544 272.847 19.8636C272.847 19.0777 272.946 18.4065 273.145 17.8501C273.346 17.2914 273.635 16.8653 274.011 16.5717C274.39 16.2758 274.845 16.1278 275.375 16.1278C275.905 16.1278 276.359 16.2758 276.735 16.5717C277.114 16.8653 277.403 17.2914 277.602 17.8501C277.803 18.4065 277.903 19.0777 277.903 19.8636C277.903 20.6544 277.804 21.3291 277.605 21.8878C277.406 22.4441 277.119 22.8691 276.742 23.1626C276.366 23.4538 275.91 23.5994 275.375 23.5994ZM275.375 22.8182C275.905 22.8182 276.317 22.5625 276.611 22.0511C276.904 21.5398 277.051 20.8106 277.051 19.8636C277.051 19.2339 276.984 18.6977 276.849 18.255C276.716 17.8123 276.524 17.4749 276.273 17.2429C276.025 17.0109 275.725 16.8949 275.375 16.8949C274.849 16.8949 274.439 17.1541 274.143 17.6726C273.847 18.1887 273.699 18.919 273.699 19.8636C273.699 20.4934 273.765 21.0284 273.898 21.4688C274.03 21.9091 274.221 22.2441 274.469 22.4737C274.72 22.7034 275.022 22.8182 275.375 22.8182ZM279.878 22.5696C279.703 22.5696 279.552 22.5069 279.427 22.3814C279.301 22.2559 279.239 22.1056 279.239 21.9304C279.239 21.7552 279.301 21.6049 279.427 21.4794C279.552 21.3539 279.703 21.2912 279.878 21.2912C280.053 21.2912 280.203 21.3539 280.329 21.4794C280.454 21.6049 280.517 21.7552 280.517 21.9304C280.517 22.0464 280.487 22.1529 280.428 22.25C280.371 22.3471 280.295 22.4252 280.197 22.4844C280.103 22.5412 279.996 22.5696 279.878 22.5696ZM279.878 18.8906C279.703 18.8906 279.552 18.8279 279.427 18.7024C279.301 18.5769 279.239 18.4266 279.239 18.2514C279.239 18.0762 279.301 17.9259 279.427 17.8004C279.552 17.675 279.703 17.6122 279.878 17.6122C280.053 17.6122 280.203 17.675 280.329 17.8004C280.454 17.9259 280.517 18.0762 280.517 18.2514C280.517 18.3674 280.487 18.474 280.428 18.571C280.371 18.6681 280.295 18.7462 280.197 18.8054C280.103 18.8622 279.996 18.8906 279.878 18.8906ZM284.564 16.2273V23.5H283.683V17.1506H283.64L281.865 18.3295V17.4347L283.683 16.2273H284.564ZM289.027 23.5994C288.492 23.5994 288.037 23.4538 287.66 23.1626C287.284 22.8691 286.996 22.4441 286.797 21.8878C286.598 21.3291 286.499 20.6544 286.499 19.8636C286.499 19.0777 286.598 18.4065 286.797 17.8501C286.998 17.2914 287.287 16.8653 287.664 16.5717C288.042 16.2758 288.497 16.1278 289.027 16.1278C289.558 16.1278 290.011 16.2758 290.387 16.5717C290.766 16.8653 291.055 17.2914 291.254 17.8501C291.455 18.4065 291.556 19.0777 291.556 19.8636C291.556 20.6544 291.456 21.3291 291.257 21.8878C291.059 22.4441 290.771 22.8691 290.395 23.1626C290.018 23.4538 289.562 23.5994 289.027 23.5994ZM289.027 22.8182C289.558 22.8182 289.97 22.5625 290.263 22.0511C290.557 21.5398 290.703 20.8106 290.703 19.8636C290.703 19.2339 290.636 18.6977 290.501 18.255C290.368 17.8123 290.177 17.4749 289.926 17.2429C289.677 17.0109 289.378 16.8949 289.027 16.8949C288.502 16.8949 288.091 17.1541 287.795 17.6726C287.499 18.1887 287.351 18.919 287.351 19.8636C287.351 20.4934 287.417 21.0284 287.55 21.4688C287.683 21.9091 287.873 22.2441 288.122 22.4737C288.373 22.7034 288.675 22.8182 289.027 22.8182ZM293.53 22.5696C293.355 22.5696 293.205 22.5069 293.079 22.3814C292.954 22.2559 292.891 22.1056 292.891 21.9304C292.891 21.7552 292.954 21.6049 293.079 21.4794C293.205 21.3539 293.355 21.2912 293.53 21.2912C293.705 21.2912 293.856 21.3539 293.981 21.4794C294.107 21.6049 294.169 21.7552 294.169 21.9304C294.169 22.0464 294.14 22.1529 294.081 22.25C294.024 22.3471 293.947 22.4252 293.85 22.4844C293.755 22.5412 293.649 22.5696 293.53 22.5696ZM293.53 18.8906C293.355 18.8906 293.205 18.8279 293.079 18.7024C292.954 18.5769 292.891 18.4266 292.891 18.2514C292.891 18.0762 292.954 17.9259 293.079 17.8004C293.205 17.675 293.355 17.6122 293.53 17.6122C293.705 17.6122 293.856 17.675 293.981 17.8004C294.107 17.9259 294.169 18.0762 294.169 18.2514C294.169 18.3674 294.14 18.474 294.081 18.571C294.024 18.6681 293.947 18.7462 293.85 18.8054C293.755 18.8622 293.649 18.8906 293.53 18.8906ZM298.031 23.5994C297.496 23.5994 297.04 23.4538 296.664 23.1626C296.288 22.8691 296 22.4441 295.801 21.8878C295.602 21.3291 295.503 20.6544 295.503 19.8636C295.503 19.0777 295.602 18.4065 295.801 17.8501C296.002 17.2914 296.291 16.8653 296.668 16.5717C297.046 16.2758 297.501 16.1278 298.031 16.1278C298.562 16.1278 299.015 16.2758 299.391 16.5717C299.77 16.8653 300.059 17.2914 300.258 17.8501C300.459 18.4065 300.56 19.0777 300.56 19.8636C300.56 20.6544 300.46 21.3291 300.261 21.8878C300.062 22.4441 299.775 22.8691 299.398 23.1626C299.022 23.4538 298.566 23.5994 298.031 23.5994ZM298.031 22.8182C298.562 22.8182 298.973 22.5625 299.267 22.0511C299.561 21.5398 299.707 20.8106 299.707 19.8636C299.707 19.2339 299.64 18.6977 299.505 18.255C299.372 17.8123 299.181 17.4749 298.93 17.2429C298.681 17.0109 298.382 16.8949 298.031 16.8949C297.506 16.8949 297.095 17.1541 296.799 17.6726C296.503 18.1887 296.355 18.919 296.355 19.8636C296.355 20.4934 296.421 21.0284 296.554 21.4688C296.687 21.9091 296.877 22.2441 297.126 22.4737C297.377 22.7034 297.679 22.8182 298.031 22.8182ZM304.281 23.5994C303.746 23.5994 303.29 23.4538 302.914 23.1626C302.538 22.8691 302.25 22.4441 302.051 21.8878C301.852 21.3291 301.753 20.6544 301.753 19.8636C301.753 19.0777 301.852 18.4065 302.051 17.8501C302.252 17.2914 302.541 16.8653 302.918 16.5717C303.296 16.2758 303.751 16.1278 304.281 16.1278C304.812 16.1278 305.265 16.2758 305.641 16.5717C306.02 16.8653 306.309 17.2914 306.508 17.8501C306.709 18.4065 306.81 19.0777 306.81 19.8636C306.81 20.6544 306.71 21.3291 306.511 21.8878C306.312 22.4441 306.025 22.8691 305.648 23.1626C305.272 23.4538 304.816 23.5994 304.281 23.5994ZM304.281 22.8182C304.812 22.8182 305.223 22.5625 305.517 22.0511C305.811 21.5398 305.957 20.8106 305.957 19.8636C305.957 19.2339 305.89 18.6977 305.755 18.255C305.622 17.8123 305.431 17.4749 305.18 17.2429C304.931 17.0109 304.632 16.8949 304.281 16.8949C303.756 16.8949 303.345 17.1541 303.049 17.6726C302.753 18.1887 302.605 18.919 302.605 19.8636C302.605 20.4934 302.671 21.0284 302.804 21.4688C302.937 21.9091 303.127 22.2441 303.376 22.4737C303.627 22.7034 303.929 22.8182 304.281 22.8182Z" fill="#222222"/>
<circle cx="22" cy="47" r="4.5" stroke="#F2A900" stroke-width="3"/>
<path d="M22 51L22 156" stroke="#F2A900" stroke-width="3"/>
<rect width="57" height="13" transform="translate(34 39)" fill="#F7F7F7"/>
<path d="M44.8097 41.7273V49H43.929V42.6506H43.8864L42.1108 43.8295V42.9347L43.929 41.7273H44.8097ZM49.3161 49.0994C49.0178 49.0947 48.7195 49.0379 48.4212 48.929C48.1229 48.8201 47.8506 48.6366 47.6044 48.3786C47.3582 48.1181 47.1605 47.7666 47.0114 47.3239C46.8622 46.8788 46.7876 46.3201 46.7876 45.6477C46.7876 45.0038 46.848 44.4332 46.9688 43.9361C47.0895 43.4366 47.2647 43.0163 47.4943 42.6754C47.724 42.3321 48.0009 42.0717 48.3253 41.8942C48.652 41.7166 49.0201 41.6278 49.4297 41.6278C49.8369 41.6278 50.1991 41.7095 50.5163 41.8729C50.8359 42.0339 51.0964 42.2588 51.2976 42.5476C51.4988 42.8364 51.629 43.169 51.6882 43.5455H50.8217C50.7412 43.2187 50.585 42.9477 50.353 42.7322C50.121 42.5168 49.8132 42.4091 49.4297 42.4091C48.8662 42.4091 48.4223 42.6541 48.098 43.1442C47.776 43.6342 47.6139 44.322 47.6115 45.2074H47.6683C47.8009 45.0062 47.9583 44.8345 48.1406 44.6925C48.3253 44.5481 48.5289 44.4368 48.7514 44.3587C48.974 44.2805 49.2095 44.2415 49.4581 44.2415C49.8748 44.2415 50.2559 44.3456 50.6016 44.554C50.9472 44.7599 51.2242 45.0452 51.4325 45.4098C51.6409 45.772 51.745 46.1875 51.745 46.6562C51.745 47.1061 51.6444 47.518 51.4432 47.892C51.242 48.2637 50.959 48.5597 50.5945 48.7798C50.2322 48.9976 49.8061 49.1042 49.3161 49.0994ZM49.3161 48.3182C49.6143 48.3182 49.8819 48.2436 50.1186 48.0945C50.3577 47.9453 50.5459 47.7453 50.6832 47.4943C50.8229 47.2434 50.8928 46.964 50.8928 46.6562C50.8928 46.3556 50.8253 46.0821 50.6903 45.8359C50.5578 45.5874 50.3743 45.3897 50.1399 45.2429C49.9079 45.0961 49.6428 45.0227 49.3445 45.0227C49.1196 45.0227 48.91 45.0677 48.7159 45.1577C48.5218 45.2453 48.3513 45.366 48.2045 45.5199C48.0601 45.6738 47.9465 45.8501 47.8636 46.049C47.7808 46.2455 47.7393 46.4527 47.7393 46.6705C47.7393 46.9593 47.8068 47.2292 47.9418 47.4801C48.0791 47.7311 48.2661 47.9335 48.5028 48.0874C48.742 48.2412 49.013 48.3182 49.3161 48.3182ZM53.7665 48.0696C53.5913 48.0696 53.441 48.0069 53.3155 47.8814C53.19 47.7559 53.1273 47.6056 53.1273 47.4304C53.1273 47.2552 53.19 47.1049 53.3155 46.9794C53.441 46.8539 53.5913 46.7912 53.7665 46.7912C53.9417 46.7912 54.092 46.8539 54.2175 46.9794C54.343 47.1049 54.4057 47.2552 54.4057 47.4304C54.4057 47.5464 54.3761 47.6529 54.3169 47.75C54.2601 47.8471 54.1832 47.9252 54.0861 47.9844C53.9914 48.0412 53.8849 48.0696 53.7665 48.0696ZM53.7665 44.3906C53.5913 44.3906 53.441 44.3279 53.3155 44.2024C53.19 44.0769 53.1273 43.9266 53.1273 43.7514C53.1273 43.5762 53.19 43.4259 53.3155 43.3004C53.441 43.175 53.5913 43.1122 53.7665 43.1122C53.9417 43.1122 54.092 43.175 54.2175 43.3004C54.343 43.4259 54.4057 43.5762 54.4057 43.7514C54.4057 43.8674 54.3761 43.974 54.3169 44.071C54.2601 44.1681 54.1832 44.2462 54.0861 44.3054C53.9914 44.3622 53.8849 44.3906 53.7665 44.3906ZM58.1681 49.0994C57.7515 49.0994 57.3762 49.0166 57.0424 48.8509C56.7086 48.6851 56.4411 48.4579 56.2399 48.169C56.0386 47.8802 55.9286 47.5511 55.9096 47.1818H56.7619C56.795 47.5109 56.9442 47.7831 57.2093 47.9986C57.4769 48.2116 57.7965 48.3182 58.1681 48.3182C58.4664 48.3182 58.7316 48.2483 58.9636 48.1087C59.198 47.969 59.3815 47.7772 59.514 47.5334C59.649 47.2872 59.7164 47.009 59.7164 46.6989C59.7164 46.3816 59.6466 46.0987 59.5069 45.8501C59.3696 45.5992 59.1802 45.4015 58.9387 45.2571C58.6973 45.1127 58.4215 45.0393 58.1113 45.0369C57.8888 45.0346 57.6603 45.0689 57.426 45.1399C57.1916 45.2086 56.9986 45.2973 56.8471 45.4062L56.0233 45.3068L56.4636 41.7273H60.242V42.5085H57.2022L56.9466 44.6534H56.9892C57.1383 44.535 57.3253 44.4368 57.5502 44.3587C57.7752 44.2805 58.0095 44.2415 58.2534 44.2415C58.6984 44.2415 59.095 44.348 59.443 44.5611C59.7934 44.7718 60.068 45.0606 60.2669 45.4276C60.4681 45.7945 60.5687 46.2135 60.5687 46.6847C60.5687 47.1487 60.4645 47.563 60.2562 47.9276C60.0502 48.2898 59.7662 48.5762 59.4039 48.7869C59.0417 48.9953 58.6298 49.0994 58.1681 49.0994ZM64.3516 49.0994C63.8165 49.0994 63.3608 48.9538 62.9844 48.6626C62.608 48.3691 62.3203 47.9441 62.1214 47.3878C61.9226 46.8291 61.8232 46.1544 61.8232 45.3636C61.8232 44.5777 61.9226 43.9065 62.1214 43.3501C62.3227 42.7914 62.6115 42.3653 62.9879 42.0717C63.3667 41.7758 63.8213 41.6278 64.3516 41.6278C64.8819 41.6278 65.3352 41.7758 65.7116 42.0717C66.0904 42.3653 66.3793 42.7914 66.5781 43.3501C66.7794 43.9065 66.88 44.5777 66.88 45.3636C66.88 46.1544 66.7805 46.8291 66.5817 47.3878C66.3828 47.9441 66.0952 48.3691 65.7188 48.6626C65.3423 48.9538 64.8866 49.0994 64.3516 49.0994ZM64.3516 48.3182C64.8819 48.3182 65.2938 48.0625 65.5874 47.5511C65.8809 47.0398 66.0277 46.3106 66.0277 45.3636C66.0277 44.7339 65.9602 44.1977 65.8253 43.755C65.6927 43.3123 65.5009 42.9749 65.25 42.7429C65.0014 42.5109 64.7019 42.3949 64.3516 42.3949C63.826 42.3949 63.4152 42.6541 63.1193 43.1726C62.8234 43.6887 62.6754 44.419 62.6754 45.3636C62.6754 45.9934 62.7417 46.5284 62.8743 46.9688C63.0069 47.4091 63.1974 47.7441 63.446 47.9737C63.697 48.2034 63.9988 48.3182 64.3516 48.3182ZM68.8544 48.0696C68.6792 48.0696 68.5289 48.0069 68.4034 47.8814C68.2779 47.7559 68.2152 47.6056 68.2152 47.4304C68.2152 47.2552 68.2779 47.1049 68.4034 46.9794C68.5289 46.8539 68.6792 46.7912 68.8544 46.7912C69.0296 46.7912 69.1799 46.8539 69.3054 46.9794C69.4309 47.1049 69.4936 47.2552 69.4936 47.4304C69.4936 47.5464 69.464 47.6529 69.4048 47.75C69.348 47.8471 69.2711 47.9252 69.174 47.9844C69.0793 48.0412 68.9728 48.0696 68.8544 48.0696ZM68.8544 44.3906C68.6792 44.3906 68.5289 44.3279 68.4034 44.2024C68.2779 44.0769 68.2152 43.9266 68.2152 43.7514C68.2152 43.5762 68.2779 43.4259 68.4034 43.3004C68.5289 43.175 68.6792 43.1122 68.8544 43.1122C69.0296 43.1122 69.1799 43.175 69.3054 43.3004C69.4309 43.4259 69.4936 43.5762 69.4936 43.7514C69.4936 43.8674 69.464 43.974 69.4048 44.071C69.348 44.1681 69.2711 44.2462 69.174 44.3054C69.0793 44.3622 68.9728 44.3906 68.8544 44.3906ZM73.3555 49.0994C72.8204 49.0994 72.3647 48.9538 71.9883 48.6626C71.6119 48.3691 71.3242 47.9441 71.1254 47.3878C70.9265 46.8291 70.8271 46.1544 70.8271 45.3636C70.8271 44.5777 70.9265 43.9065 71.1254 43.3501C71.3266 42.7914 71.6154 42.3653 71.9918 42.0717C72.3706 41.7758 72.8252 41.6278 73.3555 41.6278C73.8858 41.6278 74.3391 41.7758 74.7156 42.0717C75.0943 42.3653 75.3832 42.7914 75.582 43.3501C75.7833 43.9065 75.8839 44.5777 75.8839 45.3636C75.8839 46.1544 75.7844 46.8291 75.5856 47.3878C75.3867 47.9441 75.0991 48.3691 74.7227 48.6626C74.3462 48.9538 73.8905 49.0994 73.3555 49.0994ZM73.3555 48.3182C73.8858 48.3182 74.2977 48.0625 74.5913 47.5511C74.8848 47.0398 75.0316 46.3106 75.0316 45.3636C75.0316 44.7339 74.9641 44.1977 74.8292 43.755C74.6966 43.3123 74.5049 42.9749 74.2539 42.7429C74.0053 42.5109 73.7058 42.3949 73.3555 42.3949C72.8299 42.3949 72.4192 42.6541 72.1232 43.1726C71.8273 43.6887 71.6793 44.419 71.6793 45.3636C71.6793 45.9934 71.7456 46.5284 71.8782 46.9688C72.0108 47.4091 72.2013 47.7441 72.4499 47.9737C72.7009 48.2034 73.0027 48.3182 73.3555 48.3182ZM79.6055 49.0994C79.0704 49.0994 78.6147 48.9538 78.2383 48.6626C77.8619 48.3691 77.5742 47.9441 77.3754 47.3878C77.1765 46.8291 77.0771 46.1544 77.0771 45.3636C77.0771 44.5777 77.1765 43.9065 77.3754 43.3501C77.5766 42.7914 77.8654 42.3653 78.2418 42.0717C78.6206 41.7758 79.0752 41.6278 79.6055 41.6278C80.1358 41.6278 80.5891 41.7758 80.9656 42.0717C81.3443 42.3653 81.6332 42.7914 81.832 43.3501C82.0333 43.9065 82.1339 44.5777 82.1339 45.3636C82.1339 46.1544 82.0344 46.8291 81.8356 47.3878C81.6367 47.9441 81.3491 48.3691 80.9727 48.6626C80.5962 48.9538 80.1405 49.0994 79.6055 49.0994ZM79.6055 48.3182C80.1358 48.3182 80.5477 48.0625 80.8413 47.5511C81.1348 47.0398 81.2816 46.3106 81.2816 45.3636C81.2816 44.7339 81.2141 44.1977 81.0792 43.755C80.9466 43.3123 80.7549 42.9749 80.5039 42.7429C80.2553 42.5109 79.9558 42.3949 79.6055 42.3949C79.0799 42.3949 78.6692 42.6541 78.3732 43.1726C78.0773 43.6887 77.9293 44.419 77.9293 45.3636C77.9293 45.9934 77.9956 46.5284 78.1282 46.9688C78.2608 47.4091 78.4513 47.7441 78.6999 47.9737C78.9509 48.2034 79.2527 48.3182 79.6055 48.3182Z" fill="#222222"/>
<path d="M112.017 47.3636C112.017 48.1307 111.879 48.7936 111.602 49.3523C111.325 49.911 110.945 50.3419 110.462 50.6449C109.979 50.9479 109.427 51.0994 108.807 51.0994C108.187 51.0994 107.635 50.9479 107.152 50.6449C106.669 50.3419 106.289 49.911 106.012 49.3523C105.735 48.7936 105.597 48.1307 105.597 47.3636C105.597 46.5966 105.735 45.9337 106.012 45.375C106.289 44.8163 106.669 44.3854 107.152 44.0824C107.635 43.7794 108.187 43.6278 108.807 43.6278C109.427 43.6278 109.979 43.7794 110.462 44.0824C110.945 44.3854 111.325 44.8163 111.602 45.375C111.879 45.9337 112.017 46.5966 112.017 47.3636ZM111.165 47.3636C111.165 46.7339 111.059 46.2024 110.849 45.7692C110.64 45.3359 110.357 45.008 110 44.7855C109.645 44.563 109.247 44.4517 108.807 44.4517C108.366 44.4517 107.968 44.563 107.61 44.7855C107.255 45.008 106.972 45.3359 106.761 45.7692C106.553 46.2024 106.449 46.7339 106.449 47.3636C106.449 47.9934 106.553 48.5249 106.761 48.9581C106.972 49.3913 107.255 49.7192 107.61 49.9418C107.968 50.1643 108.366 50.2756 108.807 50.2756C109.247 50.2756 109.645 50.1643 110 49.9418C110.357 49.7192 110.64 49.3913 110.849 48.9581C111.059 48.5249 111.165 47.9934 111.165 47.3636ZM113.384 51V45.5455H114.194V46.3693H114.251C114.35 46.0994 114.53 45.8804 114.79 45.7124C115.051 45.5443 115.344 45.4602 115.671 45.4602C115.733 45.4602 115.81 45.4614 115.902 45.4638C115.994 45.4661 116.064 45.4697 116.112 45.4744V46.3267C116.083 46.3196 116.018 46.3089 115.916 46.2947C115.817 46.2782 115.711 46.2699 115.6 46.2699C115.335 46.2699 115.098 46.3255 114.89 46.4368C114.684 46.5457 114.521 46.6972 114.4 46.8913C114.281 47.0831 114.222 47.3021 114.222 47.5483V51H113.384ZM118.999 51.1136C118.544 51.1136 118.143 50.9988 117.795 50.7692C117.447 50.5372 117.174 50.2105 116.978 49.7891C116.781 49.3653 116.683 48.8646 116.683 48.2869C116.683 47.714 116.781 47.2169 116.978 46.7955C117.174 46.3741 117.448 46.0485 117.798 45.8189C118.149 45.5893 118.554 45.4744 119.013 45.4744C119.368 45.4744 119.648 45.5336 119.854 45.652C120.063 45.768 120.221 45.9006 120.33 46.0497C120.442 46.1965 120.528 46.3172 120.589 46.4119H120.661V43.7273H121.499V51H120.689V50.1619H120.589C120.528 50.2614 120.44 50.3868 120.327 50.5384C120.213 50.6875 120.051 50.8213 119.84 50.9396C119.629 51.0556 119.349 51.1136 118.999 51.1136ZM119.112 50.3608C119.448 50.3608 119.732 50.2732 119.964 50.098C120.196 49.9205 120.373 49.6754 120.494 49.3629C120.614 49.0481 120.675 48.6847 120.675 48.2727C120.675 47.8655 120.616 47.5092 120.497 47.2038C120.379 46.8961 120.204 46.657 119.972 46.4865C119.74 46.3137 119.453 46.2273 119.112 46.2273C118.757 46.2273 118.461 46.3184 118.224 46.5007C117.99 46.6806 117.814 46.9257 117.695 47.2358C117.579 47.5436 117.521 47.8892 117.521 48.2727C117.521 48.661 117.58 49.0137 117.699 49.331C117.82 49.6458 117.997 49.8968 118.232 50.0838C118.468 50.2685 118.762 50.3608 119.112 50.3608ZM125.437 51.1136C124.911 51.1136 124.458 50.9976 124.077 50.7656C123.698 50.5312 123.406 50.2045 123.2 49.7855C122.996 49.3641 122.894 48.8741 122.894 48.3153C122.894 47.7566 122.996 47.2642 123.2 46.8381C123.406 46.4096 123.692 46.0758 124.059 45.8366C124.428 45.5952 124.859 45.4744 125.352 45.4744C125.636 45.4744 125.916 45.5218 126.193 45.6165C126.47 45.7112 126.722 45.8651 126.95 46.0781C127.177 46.2888 127.358 46.5682 127.493 46.9162C127.628 47.2642 127.695 47.6927 127.695 48.2017V48.5568H123.491V47.8324H126.843C126.843 47.5246 126.781 47.25 126.658 47.0085C126.538 46.767 126.365 46.5765 126.14 46.4368C125.917 46.2971 125.655 46.2273 125.352 46.2273C125.018 46.2273 124.729 46.3101 124.485 46.4759C124.244 46.6392 124.058 46.8523 123.928 47.1151C123.797 47.3778 123.732 47.6596 123.732 47.9602V48.4432C123.732 48.8551 123.803 49.2043 123.945 49.4908C124.09 49.7749 124.29 49.9915 124.545 50.1406C124.801 50.2874 125.098 50.3608 125.437 50.3608C125.657 50.3608 125.856 50.33 126.033 50.2685C126.213 50.2045 126.368 50.1098 126.499 49.9844C126.629 49.8565 126.729 49.6979 126.8 49.5085L127.61 49.7358C127.525 50.0104 127.382 50.2519 127.18 50.4602C126.979 50.6662 126.731 50.8272 126.435 50.9432C126.139 51.0568 125.806 51.1136 125.437 51.1136ZM128.97 51V45.5455H129.78V46.3693H129.837C129.936 46.0994 130.116 45.8804 130.376 45.7124C130.637 45.5443 130.93 45.4602 131.257 45.4602C131.319 45.4602 131.396 45.4614 131.488 45.4638C131.58 45.4661 131.65 45.4697 131.697 45.4744V46.3267C131.669 46.3196 131.604 46.3089 131.502 46.2947C131.403 46.2782 131.297 46.2699 131.186 46.2699C130.921 46.2699 130.684 46.3255 130.476 46.4368C130.27 46.5457 130.107 46.6972 129.986 46.8913C129.867 47.0831 129.808 47.3021 129.808 47.5483V51H128.97ZM135.503 51V45.5455H136.313V46.3693H136.37C136.469 46.0994 136.649 45.8804 136.91 45.7124C137.17 45.5443 137.464 45.4602 137.79 45.4602C137.852 45.4602 137.929 45.4614 138.021 45.4638C138.113 45.4661 138.183 45.4697 138.231 45.4744V46.3267C138.202 46.3196 138.137 46.3089 138.035 46.2947C137.936 46.2782 137.831 46.2699 137.719 46.2699C137.454 46.2699 137.217 46.3255 137.009 46.4368C136.803 46.5457 136.64 46.6972 136.519 46.8913C136.401 47.0831 136.341 47.3021 136.341 47.5483V51H135.503ZM141.345 51.1136C140.819 51.1136 140.366 50.9976 139.985 50.7656C139.606 50.5312 139.314 50.2045 139.108 49.7855C138.904 49.3641 138.802 48.8741 138.802 48.3153C138.802 47.7566 138.904 47.2642 139.108 46.8381C139.314 46.4096 139.6 46.0758 139.967 45.8366C140.336 45.5952 140.767 45.4744 141.26 45.4744C141.544 45.4744 141.824 45.5218 142.101 45.6165C142.378 45.7112 142.631 45.8651 142.858 46.0781C143.085 46.2888 143.266 46.5682 143.401 46.9162C143.536 47.2642 143.604 47.6927 143.604 48.2017V48.5568H139.399V47.8324H142.751C142.751 47.5246 142.69 47.25 142.567 47.0085C142.446 46.767 142.273 46.5765 142.048 46.4368C141.826 46.2971 141.563 46.2273 141.26 46.2273C140.926 46.2273 140.637 46.3101 140.393 46.4759C140.152 46.6392 139.966 46.8523 139.836 47.1151C139.706 47.3778 139.64 47.6596 139.64 47.9602V48.4432C139.64 48.8551 139.711 49.2043 139.854 49.4908C139.998 49.7749 140.198 49.9915 140.454 50.1406C140.709 50.2874 141.006 50.3608 141.345 50.3608C141.565 50.3608 141.764 50.33 141.942 50.2685C142.122 50.2045 142.277 50.1098 142.407 49.9844C142.537 49.8565 142.638 49.6979 142.709 49.5085L143.518 49.7358C143.433 50.0104 143.29 50.2519 143.089 50.4602C142.887 50.6662 142.639 50.8272 142.343 50.9432C142.047 51.0568 141.714 51.1136 141.345 51.1136ZM147.094 51.1136C146.583 51.1136 146.143 50.9929 145.773 50.7514C145.404 50.5099 145.12 50.1773 144.921 49.7536C144.722 49.3298 144.623 48.8456 144.623 48.3011C144.623 47.7472 144.724 47.2583 144.928 46.8345C145.134 46.4084 145.421 46.0758 145.787 45.8366C146.157 45.5952 146.588 45.4744 147.08 45.4744C147.464 45.4744 147.809 45.5455 148.117 45.6875C148.425 45.8295 148.677 46.0284 148.873 46.2841C149.07 46.5398 149.192 46.8381 149.239 47.179H148.401C148.337 46.9304 148.195 46.7102 147.975 46.5185C147.757 46.3243 147.464 46.2273 147.094 46.2273C146.768 46.2273 146.481 46.3125 146.235 46.483C145.991 46.651 145.8 46.889 145.663 47.1967C145.528 47.5021 145.461 47.8608 145.461 48.2727C145.461 48.6941 145.527 49.0611 145.66 49.3736C145.795 49.6861 145.984 49.9287 146.228 50.1016C146.474 50.2744 146.763 50.3608 147.094 50.3608C147.312 50.3608 147.51 50.3229 147.687 50.2472C147.865 50.1714 148.015 50.0625 148.138 49.9205C148.261 49.7784 148.349 49.608 148.401 49.4091H149.239C149.192 49.7311 149.075 50.0211 148.888 50.2791C148.703 50.5348 148.458 50.7384 148.153 50.8899C147.849 51.0391 147.497 51.1136 147.094 51.1136ZM152.751 51.1136C152.226 51.1136 151.772 50.9976 151.391 50.7656C151.012 50.5312 150.72 50.2045 150.514 49.7855C150.31 49.3641 150.209 48.8741 150.209 48.3153C150.209 47.7566 150.31 47.2642 150.514 46.8381C150.72 46.4096 151.006 46.0758 151.373 45.8366C151.743 45.5952 152.174 45.4744 152.666 45.4744C152.95 45.4744 153.231 45.5218 153.508 45.6165C153.785 45.7112 154.037 45.8651 154.264 46.0781C154.491 46.2888 154.672 46.5682 154.807 46.9162C154.942 47.2642 155.01 47.6927 155.01 48.2017V48.5568H150.805V47.8324H154.157C154.157 47.5246 154.096 47.25 153.973 47.0085C153.852 46.767 153.679 46.5765 153.454 46.4368C153.232 46.2971 152.969 46.2273 152.666 46.2273C152.332 46.2273 152.043 46.3101 151.8 46.4759C151.558 46.6392 151.372 46.8523 151.242 47.1151C151.112 47.3778 151.047 47.6596 151.047 47.9602V48.4432C151.047 48.8551 151.118 49.2043 151.26 49.4908C151.404 49.7749 151.604 49.9915 151.86 50.1406C152.116 50.2874 152.413 50.3608 152.751 50.3608C152.971 50.3608 153.17 50.33 153.348 50.2685C153.528 50.2045 153.683 50.1098 153.813 49.9844C153.943 49.8565 154.044 49.6979 154.115 49.5085L154.925 49.7358C154.839 50.0104 154.696 50.2519 154.495 50.4602C154.294 50.6662 154.045 50.8272 153.749 50.9432C153.453 51.0568 153.121 51.1136 152.751 51.1136ZM156.285 51V45.5455H157.123V51H156.285ZM156.711 44.6364C156.547 44.6364 156.407 44.5807 156.288 44.4695C156.172 44.3582 156.114 44.2244 156.114 44.0682C156.114 43.9119 156.172 43.7782 156.288 43.6669C156.407 43.5556 156.547 43.5 156.711 43.5C156.874 43.5 157.014 43.5556 157.13 43.6669C157.248 43.7782 157.307 43.9119 157.307 44.0682C157.307 44.2244 157.248 44.3582 157.13 44.4695C157.014 44.5807 156.874 44.6364 156.711 44.6364ZM163.118 45.5455L161.101 51H160.249L158.232 45.5455H159.141L160.646 49.892H160.703L162.209 45.5455H163.118ZM166.316 51.1136C165.79 51.1136 165.337 50.9976 164.956 50.7656C164.577 50.5312 164.284 50.2045 164.078 49.7855C163.875 49.3641 163.773 48.8741 163.773 48.3153C163.773 47.7566 163.875 47.2642 164.078 46.8381C164.284 46.4096 164.571 46.0758 164.938 45.8366C165.307 45.5952 165.738 45.4744 166.23 45.4744C166.515 45.4744 166.795 45.5218 167.072 45.6165C167.349 45.7112 167.601 45.8651 167.828 46.0781C168.056 46.2888 168.237 46.5682 168.372 46.9162C168.507 47.2642 168.574 47.6927 168.574 48.2017V48.5568H164.37V47.8324H167.722C167.722 47.5246 167.66 47.25 167.537 47.0085C167.417 46.767 167.244 46.5765 167.019 46.4368C166.796 46.2971 166.533 46.2273 166.23 46.2273C165.897 46.2273 165.608 46.3101 165.364 46.4759C165.123 46.6392 164.937 46.8523 164.806 47.1151C164.676 47.3778 164.611 47.6596 164.611 47.9602V48.4432C164.611 48.8551 164.682 49.2043 164.824 49.4908C164.969 49.7749 165.169 49.9915 165.424 50.1406C165.68 50.2874 165.977 50.3608 166.316 50.3608C166.536 50.3608 166.735 50.33 166.912 50.2685C167.092 50.2045 167.247 50.1098 167.377 49.9844C167.508 49.8565 167.608 49.6979 167.679 49.5085L168.489 49.7358C168.404 50.0104 168.261 50.2519 168.059 50.4602C167.858 50.6662 167.609 50.8272 167.314 50.9432C167.018 51.0568 166.685 51.1136 166.316 51.1136ZM171.909 51.1136C171.454 51.1136 171.053 50.9988 170.705 50.7692C170.357 50.5372 170.085 50.2105 169.888 49.7891C169.692 49.3653 169.593 48.8646 169.593 48.2869C169.593 47.714 169.692 47.2169 169.888 46.7955C170.085 46.3741 170.358 46.0485 170.708 45.8189C171.059 45.5893 171.464 45.4744 171.923 45.4744C172.278 45.4744 172.559 45.5336 172.765 45.652C172.973 45.768 173.132 45.9006 173.24 46.0497C173.352 46.1965 173.438 46.3172 173.5 46.4119H173.571V43.7273H174.409V51H173.599V50.1619H173.5C173.438 50.2614 173.35 50.3868 173.237 50.5384C173.123 50.6875 172.961 50.8213 172.75 50.9396C172.54 51.0556 172.259 51.1136 171.909 51.1136ZM172.022 50.3608C172.359 50.3608 172.643 50.2732 172.875 50.098C173.107 49.9205 173.283 49.6754 173.404 49.3629C173.525 49.0481 173.585 48.6847 173.585 48.2727C173.585 47.8655 173.526 47.5092 173.407 47.2038C173.289 46.8961 173.114 46.657 172.882 46.4865C172.65 46.3137 172.363 46.2273 172.022 46.2273C171.667 46.2273 171.371 46.3184 171.135 46.5007C170.9 46.6806 170.724 46.9257 170.605 47.2358C170.489 47.5436 170.431 47.8892 170.431 48.2727C170.431 48.661 170.491 49.0137 170.609 49.331C170.73 49.6458 170.907 49.8968 171.142 50.0838C171.378 50.2685 171.672 50.3608 172.022 50.3608Z" fill="#222222"/>
<path d="M36.7528 82V81.3608L39.1534 78.733C39.4351 78.4252 39.6671 78.1577 39.8494 77.9304C40.0317 77.7008 40.1667 77.4853 40.2543 77.2841C40.3442 77.0805 40.3892 76.8674 40.3892 76.6449C40.3892 76.3892 40.3277 76.1679 40.2045 75.9808C40.0838 75.7938 39.9181 75.6494 39.7074 75.5476C39.4967 75.4458 39.2599 75.3949 38.9972 75.3949C38.7178 75.3949 38.474 75.4529 38.2656 75.5689C38.0597 75.6825 37.8999 75.8423 37.7862 76.0483C37.675 76.2543 37.6193 76.4957 37.6193 76.7727H36.7812C36.7812 76.3466 36.8795 75.9725 37.076 75.6506C37.2725 75.3286 37.54 75.0777 37.8786 74.8977C38.2195 74.7178 38.6018 74.6278 39.0256 74.6278C39.4517 74.6278 39.8293 74.7178 40.1584 74.8977C40.4875 75.0777 40.7455 75.3203 40.9325 75.6257C41.1196 75.9311 41.2131 76.2708 41.2131 76.6449C41.2131 76.9124 41.1645 77.174 41.0675 77.4297C40.9728 77.683 40.8071 77.9659 40.5703 78.2784C40.3359 78.5885 40.0104 78.9673 39.5938 79.4148L37.9602 81.1619V81.2188H41.3409V82H36.7528ZM49.4979 77.767L48.745 77.9801C48.6977 77.8546 48.6278 77.7327 48.5355 77.6143C48.4455 77.4936 48.3224 77.3942 48.1662 77.3161C48.0099 77.2379 47.8099 77.1989 47.5661 77.1989C47.2322 77.1989 46.9541 77.2758 46.7315 77.4297C46.5114 77.5812 46.4013 77.7741 46.4013 78.0085C46.4013 78.2169 46.477 78.3814 46.6286 78.5021C46.7801 78.6229 47.0168 78.7235 47.3388 78.804L48.1484 79.0028C48.6361 79.1212 48.9995 79.3023 49.2386 79.5462C49.4777 79.7876 49.5973 80.099 49.5973 80.4801C49.5973 80.7926 49.5073 81.072 49.3274 81.3182C49.1499 81.5644 48.9013 81.7585 48.5817 81.9006C48.2621 82.0426 47.8904 82.1136 47.4666 82.1136C46.9103 82.1136 46.4498 81.9929 46.0852 81.7514C45.7206 81.5099 45.4898 81.1572 45.3928 80.6932L46.1882 80.4943C46.264 80.7879 46.4072 81.008 46.6179 81.1548C46.831 81.3016 47.1091 81.375 47.4524 81.375C47.843 81.375 48.1532 81.2921 48.3828 81.1264C48.6148 80.9583 48.7308 80.7571 48.7308 80.5227C48.7308 80.3333 48.6645 80.1747 48.532 80.0469C48.3994 79.9167 48.1958 79.8196 47.9212 79.7557L47.0121 79.5426C46.5125 79.4242 46.1456 79.2408 45.9112 78.9922C45.6792 78.7412 45.5632 78.4276 45.5632 78.0511C45.5632 77.7434 45.6496 77.4711 45.8224 77.2344C45.9976 76.9976 46.2356 76.8118 46.5362 76.6768C46.8393 76.5419 47.1825 76.4744 47.5661 76.4744C48.1058 76.4744 48.5296 76.5928 48.8374 76.8295C49.1475 77.0663 49.3677 77.3788 49.4979 77.767ZM53.231 76.5455V77.2557H50.4043V76.5455H53.231ZM51.2282 75.2386H52.0662V80.4375C52.0662 80.6742 52.1006 80.8518 52.1692 80.9702C52.2402 81.0862 52.3302 81.1643 52.4391 81.2045C52.5504 81.2424 52.6676 81.2614 52.7907 81.2614C52.883 81.2614 52.9587 81.2566 53.0179 81.2472C53.0771 81.2353 53.1245 81.2259 53.16 81.2188L53.3304 81.9716C53.2736 81.9929 53.1943 82.0142 53.0925 82.0355C52.9907 82.0592 52.8617 82.071 52.7054 82.071C52.4687 82.071 52.2367 82.0201 52.0094 81.9183C51.7845 81.8165 51.5975 81.6615 51.4483 81.4531C51.3016 81.2448 51.2282 80.982 51.2282 80.6648V75.2386ZM56.72 82.1136C56.1944 82.1136 55.7411 81.9976 55.3599 81.7656C54.9811 81.5312 54.6887 81.2045 54.4828 80.7855C54.2792 80.3641 54.1774 79.8741 54.1774 79.3153C54.1774 78.7566 54.2792 78.2642 54.4828 77.8381C54.6887 77.4096 54.9752 77.0758 55.3422 76.8366C55.7115 76.5952 56.1423 76.4744 56.6348 76.4744C56.9189 76.4744 57.1994 76.5218 57.4764 76.6165C57.7534 76.7112 58.0055 76.8651 58.2328 77.0781C58.46 77.2888 58.6412 77.5682 58.7761 77.9162C58.911 78.2642 58.9785 78.6927 58.9785 79.2017V79.5568H54.774V78.8324H58.1262C58.1262 78.5246 58.0647 78.25 57.9416 78.0085C57.8208 77.767 57.648 77.5765 57.4231 77.4368C57.2006 77.2971 56.9378 77.2273 56.6348 77.2273C56.301 77.2273 56.0121 77.3101 55.7683 77.4759C55.5268 77.6392 55.341 77.8523 55.2108 78.1151C55.0806 78.3778 55.0154 78.6596 55.0154 78.9602V79.4432C55.0154 79.8551 55.0865 80.2043 55.2285 80.4908C55.3729 80.7749 55.573 80.9915 55.8287 81.1406C56.0843 81.2874 56.3815 81.3608 56.72 81.3608C56.9402 81.3608 57.139 81.33 57.3166 81.2685C57.4965 81.2045 57.6516 81.1098 57.7818 80.9844C57.912 80.8565 58.0126 80.6979 58.0836 80.5085L58.8933 80.7358C58.8081 81.0104 58.6648 81.2519 58.4636 81.4602C58.2624 81.6662 58.0138 81.8272 57.7179 81.9432C57.4219 82.0568 57.0893 82.1136 56.72 82.1136ZM60.2534 84.0455V76.5455H61.063V77.4119H61.1625C61.224 77.3172 61.3092 77.1965 61.4181 77.0497C61.5294 76.9006 61.688 76.768 61.894 76.652C62.1023 76.5336 62.3841 76.4744 62.7392 76.4744C63.1984 76.4744 63.6033 76.5893 63.9537 76.8189C64.304 77.0485 64.5775 77.3741 64.774 77.7955C64.9705 78.2169 65.0687 78.714 65.0687 79.2869C65.0687 79.8646 64.9705 80.3653 64.774 80.7891C64.5775 81.2105 64.3052 81.5372 63.9572 81.7692C63.6092 81.9988 63.2079 82.1136 62.7534 82.1136C62.403 82.1136 62.1225 82.0556 61.9118 81.9396C61.7011 81.8213 61.5389 81.6875 61.4252 81.5384C61.3116 81.3868 61.224 81.2614 61.1625 81.1619H61.0914V84.0455H60.2534ZM61.0772 79.2727C61.0772 79.6847 61.1376 80.0481 61.2583 80.3629C61.3791 80.6754 61.5555 80.9205 61.7875 81.098C62.0195 81.2732 62.3036 81.3608 62.6397 81.3608C62.9901 81.3608 63.2825 81.2685 63.5169 81.0838C63.7536 80.8968 63.9312 80.6458 64.0495 80.331C64.1703 80.0137 64.2306 79.661 64.2306 79.2727C64.2306 78.8892 64.1715 78.5436 64.0531 78.2358C63.9371 77.9257 63.7607 77.6806 63.524 77.5007C63.2896 77.3184 62.9949 77.2273 62.6397 77.2273C62.2988 77.2273 62.0124 77.3137 61.7804 77.4865C61.5484 77.657 61.3732 77.8961 61.2548 78.2038C61.1364 78.5092 61.0772 78.8655 61.0772 79.2727ZM70.2108 77.767L69.4579 77.9801C69.4106 77.8546 69.3407 77.7327 69.2484 77.6143C69.1584 77.4936 69.0353 77.3942 68.8791 77.3161C68.7228 77.2379 68.5228 77.1989 68.2789 77.1989C67.9451 77.1989 67.667 77.2758 67.4444 77.4297C67.2243 77.5812 67.1142 77.7741 67.1142 78.0085C67.1142 78.2169 67.1899 78.3814 67.3414 78.5021C67.493 78.6229 67.7297 78.7235 68.0517 78.804L68.8613 79.0028C69.349 79.1212 69.7124 79.3023 69.9515 79.5462C70.1906 79.7876 70.3102 80.099 70.3102 80.4801C70.3102 80.7926 70.2202 81.072 70.0403 81.3182C69.8627 81.5644 69.6142 81.7585 69.2946 81.9006C68.975 82.0426 68.6033 82.1136 68.1795 82.1136C67.6232 82.1136 67.1627 81.9929 66.7981 81.7514C66.4335 81.5099 66.2027 81.1572 66.1056 80.6932L66.9011 80.4943C66.9769 80.7879 67.1201 81.008 67.3308 81.1548C67.5439 81.3016 67.822 81.375 68.1653 81.375C68.5559 81.375 68.8661 81.2921 69.0957 81.1264C69.3277 80.9583 69.4437 80.7571 69.4437 80.5227C69.4437 80.3333 69.3774 80.1747 69.2449 80.0469C69.1123 79.9167 68.9087 79.8196 68.6341 79.7557L67.725 79.5426C67.2254 79.4242 66.8585 79.2408 66.6241 78.9922C66.3921 78.7412 66.2761 78.4276 66.2761 78.0511C66.2761 77.7434 66.3625 77.4711 66.5353 77.2344C66.7105 76.9976 66.9484 76.8118 67.2491 76.6768C67.5521 76.5419 67.8954 76.4744 68.2789 76.4744C68.8187 76.4744 69.2425 76.5928 69.5502 76.8295C69.8604 77.0663 70.0806 77.3788 70.2108 77.767Z" fill="#222222"/>
<path d="M109 75.6923L105.192 79.5H112.808L109 75.6923Z" fill="#222222"/>
<circle cx="22" cy="108.5" r="4.5" fill="white" stroke="#F2A900" stroke-width="3"/>
<path d="M39.3097 104.727V112H38.429V105.651H38.3864L36.6108 106.83V105.935L38.429 104.727H39.3097ZM43.8161 112.099C43.5178 112.095 43.2195 112.038 42.9212 111.929C42.6229 111.82 42.3506 111.637 42.1044 111.379C41.8582 111.118 41.6605 110.767 41.5114 110.324C41.3622 109.879 41.2876 109.32 41.2876 108.648C41.2876 108.004 41.348 107.433 41.4688 106.936C41.5895 106.437 41.7647 106.016 41.9943 105.675C42.224 105.332 42.5009 105.072 42.8253 104.894C43.152 104.717 43.5201 104.628 43.9297 104.628C44.3369 104.628 44.6991 104.71 45.0163 104.873C45.3359 105.034 45.5964 105.259 45.7976 105.548C45.9988 105.836 46.129 106.169 46.1882 106.545H45.3217C45.2412 106.219 45.085 105.948 44.853 105.732C44.621 105.517 44.3132 105.409 43.9297 105.409C43.3662 105.409 42.9223 105.654 42.598 106.144C42.276 106.634 42.1139 107.322 42.1115 108.207H42.1683C42.3009 108.006 42.4583 107.835 42.6406 107.692C42.8253 107.548 43.0289 107.437 43.2514 107.359C43.474 107.281 43.7095 107.241 43.9581 107.241C44.3748 107.241 44.7559 107.346 45.1016 107.554C45.4472 107.76 45.7242 108.045 45.9325 108.41C46.1409 108.772 46.245 109.188 46.245 109.656C46.245 110.106 46.1444 110.518 45.9432 110.892C45.742 111.264 45.459 111.56 45.0945 111.78C44.7322 111.998 44.3061 112.104 43.8161 112.099ZM43.8161 111.318C44.1143 111.318 44.3819 111.244 44.6186 111.094C44.8577 110.945 45.0459 110.745 45.1832 110.494C45.3229 110.243 45.3928 109.964 45.3928 109.656C45.3928 109.356 45.3253 109.082 45.1903 108.836C45.0578 108.587 44.8743 108.39 44.6399 108.243C44.4079 108.096 44.1428 108.023 43.8445 108.023C43.6196 108.023 43.41 108.068 43.2159 108.158C43.0218 108.245 42.8513 108.366 42.7045 108.52C42.5601 108.674 42.4465 108.85 42.3636 109.049C42.2808 109.246 42.2393 109.453 42.2393 109.67C42.2393 109.959 42.3068 110.229 42.4418 110.48C42.5791 110.731 42.7661 110.933 43.0028 111.087C43.242 111.241 43.513 111.318 43.8161 111.318ZM48.2665 111.07C48.0913 111.07 47.941 111.007 47.8155 110.881C47.69 110.756 47.6273 110.606 47.6273 110.43C47.6273 110.255 47.69 110.105 47.8155 109.979C47.941 109.854 48.0913 109.791 48.2665 109.791C48.4417 109.791 48.592 109.854 48.7175 109.979C48.843 110.105 48.9057 110.255 48.9057 110.43C48.9057 110.546 48.8761 110.653 48.8169 110.75C48.7601 110.847 48.6832 110.925 48.5861 110.984C48.4914 111.041 48.3849 111.07 48.2665 111.07ZM48.2665 107.391C48.0913 107.391 47.941 107.328 47.8155 107.202C47.69 107.077 47.6273 106.927 47.6273 106.751C47.6273 106.576 47.69 106.426 47.8155 106.3C47.941 106.175 48.0913 106.112 48.2665 106.112C48.4417 106.112 48.592 106.175 48.7175 106.3C48.843 106.426 48.9057 106.576 48.9057 106.751C48.9057 106.867 48.8761 106.974 48.8169 107.071C48.7601 107.168 48.6832 107.246 48.5861 107.305C48.4914 107.362 48.3849 107.391 48.2665 107.391ZM52.6681 112.099C52.2515 112.099 51.8762 112.017 51.5424 111.851C51.2086 111.685 50.9411 111.458 50.7399 111.169C50.5386 110.88 50.4286 110.551 50.4096 110.182H51.2619C51.295 110.511 51.4442 110.783 51.7093 110.999C51.9769 111.212 52.2965 111.318 52.6681 111.318C52.9664 111.318 53.2316 111.248 53.4636 111.109C53.698 110.969 53.8815 110.777 54.014 110.533C54.149 110.287 54.2164 110.009 54.2164 109.699C54.2164 109.382 54.1466 109.099 54.0069 108.85C53.8696 108.599 53.6802 108.402 53.4387 108.257C53.1973 108.113 52.9215 108.039 52.6113 108.037C52.3888 108.035 52.1603 108.069 51.926 108.14C51.6916 108.209 51.4986 108.297 51.3471 108.406L50.5233 108.307L50.9636 104.727H54.742V105.509H51.7022L51.4466 107.653H51.4892C51.6383 107.535 51.8253 107.437 52.0502 107.359C52.2752 107.281 52.5095 107.241 52.7534 107.241C53.1984 107.241 53.595 107.348 53.943 107.561C54.2934 107.772 54.568 108.061 54.7669 108.428C54.9681 108.795 55.0687 109.214 55.0687 109.685C55.0687 110.149 54.9645 110.563 54.7562 110.928C54.5502 111.29 54.2662 111.576 53.9039 111.787C53.5417 111.995 53.1298 112.099 52.6681 112.099ZM56.3089 110.509V109.784L59.505 104.727H60.0305V105.849H59.6754L57.2607 109.67V109.727H61.5646V110.509H56.3089ZM59.7322 112V110.288V109.951V104.727H60.5703V112H59.7322ZM63.5204 111.07C63.3452 111.07 63.1949 111.007 63.0694 110.881C62.944 110.756 62.8812 110.606 62.8812 110.43C62.8812 110.255 62.944 110.105 63.0694 109.979C63.1949 109.854 63.3452 109.791 63.5204 109.791C63.6956 109.791 63.8459 109.854 63.9714 109.979C64.0969 110.105 64.1596 110.255 64.1596 110.43C64.1596 110.546 64.13 110.653 64.0708 110.75C64.014 110.847 63.9371 110.925 63.84 110.984C63.7453 111.041 63.6388 111.07 63.5204 111.07ZM63.5204 107.391C63.3452 107.391 63.1949 107.328 63.0694 107.202C62.944 107.077 62.8812 106.927 62.8812 106.751C62.8812 106.576 62.944 106.426 63.0694 106.3C63.1949 106.175 63.3452 106.112 63.5204 106.112C63.6956 106.112 63.8459 106.175 63.9714 106.3C64.0969 106.426 64.1596 106.576 64.1596 106.751C64.1596 106.867 64.13 106.974 64.0708 107.071C64.014 107.168 63.9371 107.246 63.84 107.305C63.7453 107.362 63.6388 107.391 63.5204 107.391ZM68.0215 112.099C67.4864 112.099 67.0307 111.954 66.6543 111.663C66.2779 111.369 65.9902 110.944 65.7914 110.388C65.5925 109.829 65.4931 109.154 65.4931 108.364C65.4931 107.578 65.5925 106.906 65.7914 106.35C65.9926 105.791 66.2814 105.365 66.6578 105.072C67.0366 104.776 67.4912 104.628 68.0215 104.628C68.5518 104.628 69.0051 104.776 69.3816 105.072C69.7604 105.365 70.0492 105.791 70.248 106.35C70.4493 106.906 70.5499 107.578 70.5499 108.364C70.5499 109.154 70.4505 109.829 70.2516 110.388C70.0527 110.944 69.7651 111.369 69.3887 111.663C69.0123 111.954 68.5565 112.099 68.0215 112.099ZM68.0215 111.318C68.5518 111.318 68.9637 111.062 69.2573 110.551C69.5508 110.04 69.6976 109.311 69.6976 108.364C69.6976 107.734 69.6301 107.198 69.4952 106.755C69.3626 106.312 69.1709 105.975 68.9199 105.743C68.6713 105.511 68.3719 105.395 68.0215 105.395C67.4959 105.395 67.0852 105.654 66.7892 106.173C66.4933 106.689 66.3453 107.419 66.3453 108.364C66.3453 108.993 66.4116 109.528 66.5442 109.969C66.6768 110.409 66.8674 110.744 67.1159 110.974C67.3669 111.203 67.6687 111.318 68.0215 111.318ZM74.2715 112.099C73.7364 112.099 73.2807 111.954 72.9043 111.663C72.5279 111.369 72.2402 110.944 72.0414 110.388C71.8425 109.829 71.7431 109.154 71.7431 108.364C71.7431 107.578 71.8425 106.906 72.0414 106.35C72.2426 105.791 72.5314 105.365 72.9078 105.072C73.2866 104.776 73.7412 104.628 74.2715 104.628C74.8018 104.628 75.2551 104.776 75.6316 105.072C76.0104 105.365 76.2992 105.791 76.498 106.35C76.6993 106.906 76.7999 107.578 76.7999 108.364C76.7999 109.154 76.7005 109.829 76.5016 110.388C76.3027 110.944 76.0151 111.369 75.6387 111.663C75.2623 111.954 74.8065 112.099 74.2715 112.099ZM74.2715 111.318C74.8018 111.318 75.2137 111.062 75.5073 110.551C75.8008 110.04 75.9476 109.311 75.9476 108.364C75.9476 107.734 75.8801 107.198 75.7452 106.755C75.6126 106.312 75.4209 105.975 75.1699 105.743C74.9213 105.511 74.6219 105.395 74.2715 105.395C73.7459 105.395 73.3352 105.654 73.0392 106.173C72.7433 106.689 72.5953 107.419 72.5953 108.364C72.5953 108.993 72.6616 109.528 72.7942 109.969C72.9268 110.409 73.1174 110.744 73.3659 110.974C73.6169 111.203 73.9187 111.318 74.2715 111.318Z" fill="#222222"/>
<path d="M95.179 112H94.2557L96.9261 104.727H97.8352L100.506 112H99.5824L97.4091 105.878H97.3523L95.179 112ZM95.5199 109.159H99.2415V109.94H95.5199V109.159ZM105.388 107.767L104.636 107.98C104.588 107.855 104.518 107.733 104.426 107.614C104.336 107.494 104.213 107.394 104.057 107.316C103.901 107.238 103.701 107.199 103.457 107.199C103.123 107.199 102.845 107.276 102.622 107.43C102.402 107.581 102.292 107.774 102.292 108.009C102.292 108.217 102.368 108.381 102.519 108.502C102.671 108.623 102.907 108.723 103.229 108.804L104.039 109.003C104.527 109.121 104.89 109.302 105.129 109.546C105.368 109.788 105.488 110.099 105.488 110.48C105.488 110.793 105.398 111.072 105.218 111.318C105.04 111.564 104.792 111.759 104.472 111.901C104.153 112.043 103.781 112.114 103.357 112.114C102.801 112.114 102.34 111.993 101.976 111.751C101.611 111.51 101.38 111.157 101.283 110.693L102.079 110.494C102.155 110.788 102.298 111.008 102.509 111.155C102.722 111.302 103 111.375 103.343 111.375C103.734 111.375 104.044 111.292 104.273 111.126C104.505 110.958 104.621 110.757 104.621 110.523C104.621 110.333 104.555 110.175 104.423 110.047C104.29 109.917 104.086 109.82 103.812 109.756L102.903 109.543C102.403 109.424 102.036 109.241 101.802 108.992C101.57 108.741 101.454 108.428 101.454 108.051C101.454 107.743 101.54 107.471 101.713 107.234C101.888 106.998 102.126 106.812 102.427 106.677C102.73 106.542 103.073 106.474 103.457 106.474C103.996 106.474 104.42 106.593 104.728 106.83C105.038 107.066 105.258 107.379 105.388 107.767ZM110.613 107.767L109.86 107.98C109.813 107.855 109.743 107.733 109.651 107.614C109.561 107.494 109.438 107.394 109.281 107.316C109.125 107.238 108.925 107.199 108.681 107.199C108.347 107.199 108.069 107.276 107.847 107.43C107.627 107.581 107.517 107.774 107.517 108.009C107.517 108.217 107.592 108.381 107.744 108.502C107.895 108.623 108.132 108.723 108.454 108.804L109.264 109.003C109.751 109.121 110.115 109.302 110.354 109.546C110.593 109.788 110.713 110.099 110.713 110.48C110.713 110.793 110.623 111.072 110.443 111.318C110.265 111.564 110.017 111.759 109.697 111.901C109.377 112.043 109.006 112.114 108.582 112.114C108.026 112.114 107.565 111.993 107.2 111.751C106.836 111.51 106.605 111.157 106.508 110.693L107.303 110.494C107.379 110.788 107.522 111.008 107.733 111.155C107.946 111.302 108.224 111.375 108.568 111.375C108.958 111.375 109.268 111.292 109.498 111.126C109.73 110.958 109.846 110.757 109.846 110.523C109.846 110.333 109.78 110.175 109.647 110.047C109.515 109.917 109.311 109.82 109.036 109.756L108.127 109.543C107.628 109.424 107.261 109.241 107.026 108.992C106.794 108.741 106.678 108.428 106.678 108.051C106.678 107.743 106.765 107.471 106.938 107.234C107.113 106.998 107.351 106.812 107.651 106.677C107.954 106.542 108.298 106.474 108.681 106.474C109.221 106.474 109.645 106.593 109.953 106.83C110.263 107.066 110.483 107.379 110.613 107.767ZM111.974 112V106.545H112.812V112H111.974ZM112.4 105.636C112.237 105.636 112.096 105.581 111.978 105.469C111.862 105.358 111.804 105.224 111.804 105.068C111.804 104.912 111.862 104.778 111.978 104.667C112.096 104.556 112.237 104.5 112.4 104.5C112.564 104.5 112.703 104.556 112.819 104.667C112.938 104.778 112.997 104.912 112.997 105.068C112.997 105.224 112.938 105.358 112.819 105.469C112.703 105.581 112.564 105.636 112.4 105.636ZM116.549 114.159C116.144 114.159 115.796 114.107 115.505 114.003C115.214 113.901 114.971 113.766 114.777 113.598C114.585 113.432 114.432 113.255 114.319 113.065L114.986 112.597C115.062 112.696 115.158 112.81 115.274 112.938C115.39 113.068 115.549 113.18 115.75 113.275C115.953 113.372 116.22 113.42 116.549 113.42C116.989 113.42 117.353 113.314 117.639 113.101C117.925 112.888 118.069 112.554 118.069 112.099V110.991H117.998C117.936 111.091 117.849 111.214 117.735 111.361C117.624 111.505 117.463 111.634 117.252 111.748C117.044 111.859 116.762 111.915 116.407 111.915C115.966 111.915 115.571 111.811 115.221 111.602C114.873 111.394 114.597 111.091 114.393 110.693C114.192 110.295 114.091 109.812 114.091 109.244C114.091 108.686 114.19 108.199 114.386 107.785C114.583 107.368 114.856 107.046 115.206 106.819C115.557 106.589 115.962 106.474 116.421 106.474C116.776 106.474 117.058 106.534 117.266 106.652C117.477 106.768 117.638 106.901 117.749 107.05C117.863 107.196 117.95 107.317 118.012 107.412H118.097V106.545H118.907V112.156C118.907 112.625 118.8 113.006 118.587 113.3C118.376 113.596 118.092 113.812 117.735 113.95C117.38 114.089 116.984 114.159 116.549 114.159ZM116.52 111.162C116.857 111.162 117.141 111.085 117.373 110.931C117.605 110.777 117.781 110.556 117.902 110.267C118.023 109.978 118.083 109.633 118.083 109.23C118.083 108.837 118.024 108.49 117.905 108.19C117.787 107.889 117.612 107.653 117.38 107.483C117.148 107.312 116.861 107.227 116.52 107.227C116.165 107.227 115.869 107.317 115.633 107.497C115.398 107.677 115.222 107.919 115.104 108.222C114.988 108.525 114.93 108.861 114.93 109.23C114.93 109.609 114.989 109.944 115.107 110.235C115.228 110.524 115.405 110.751 115.64 110.917C115.876 111.08 116.17 111.162 116.52 111.162ZM121.279 108.719V112H120.441V106.545H121.251V107.398H121.322C121.449 107.121 121.644 106.898 121.904 106.73C122.164 106.56 122.501 106.474 122.912 106.474C123.282 106.474 123.605 106.55 123.882 106.702C124.159 106.851 124.374 107.078 124.528 107.384C124.682 107.687 124.759 108.07 124.759 108.534V112H123.921V108.591C123.921 108.162 123.81 107.829 123.587 107.589C123.365 107.348 123.059 107.227 122.671 107.227C122.403 107.227 122.164 107.285 121.954 107.401C121.745 107.517 121.581 107.687 121.46 107.909C121.339 108.132 121.279 108.402 121.279 108.719ZM128.577 112.114C128.052 112.114 127.598 111.998 127.217 111.766C126.839 111.531 126.546 111.205 126.34 110.786C126.137 110.364 126.035 109.874 126.035 109.315C126.035 108.757 126.137 108.264 126.34 107.838C126.546 107.41 126.833 107.076 127.2 106.837C127.569 106.595 128 106.474 128.492 106.474C128.776 106.474 129.057 106.522 129.334 106.616C129.611 106.711 129.863 106.865 130.09 107.078C130.317 107.289 130.499 107.568 130.634 107.916C130.768 108.264 130.836 108.693 130.836 109.202V109.557H126.631V108.832H129.984C129.984 108.525 129.922 108.25 129.799 108.009C129.678 107.767 129.505 107.576 129.281 107.437C129.058 107.297 128.795 107.227 128.492 107.227C128.158 107.227 127.87 107.31 127.626 107.476C127.384 107.639 127.198 107.852 127.068 108.115C126.938 108.378 126.873 108.66 126.873 108.96V109.443C126.873 109.855 126.944 110.204 127.086 110.491C127.23 110.775 127.43 110.991 127.686 111.141C127.942 111.287 128.239 111.361 128.577 111.361C128.798 111.361 128.996 111.33 129.174 111.268C129.354 111.205 129.509 111.11 129.639 110.984C129.769 110.857 129.87 110.698 129.941 110.509L130.751 110.736C130.665 111.01 130.522 111.252 130.321 111.46C130.12 111.666 129.871 111.827 129.575 111.943C129.279 112.057 128.947 112.114 128.577 112.114ZM134.17 112.114C133.716 112.114 133.315 111.999 132.967 111.769C132.619 111.537 132.346 111.21 132.15 110.789C131.953 110.365 131.855 109.865 131.855 109.287C131.855 108.714 131.953 108.217 132.15 107.795C132.346 107.374 132.62 107.049 132.97 106.819C133.321 106.589 133.725 106.474 134.185 106.474C134.54 106.474 134.82 106.534 135.026 106.652C135.235 106.768 135.393 106.901 135.502 107.05C135.613 107.196 135.7 107.317 135.761 107.412H135.832V104.727H136.67V112H135.861V111.162H135.761C135.7 111.261 135.612 111.387 135.499 111.538C135.385 111.687 135.223 111.821 135.012 111.94C134.801 112.056 134.521 112.114 134.17 112.114ZM134.284 111.361C134.62 111.361 134.904 111.273 135.136 111.098C135.368 110.92 135.545 110.675 135.665 110.363C135.786 110.048 135.847 109.685 135.847 109.273C135.847 108.866 135.787 108.509 135.669 108.204C135.551 107.896 135.375 107.657 135.143 107.487C134.911 107.314 134.625 107.227 134.284 107.227C133.929 107.227 133.633 107.318 133.396 107.501C133.162 107.681 132.986 107.926 132.867 108.236C132.751 108.544 132.693 108.889 132.693 109.273C132.693 109.661 132.752 110.014 132.871 110.331C132.991 110.646 133.169 110.897 133.403 111.084C133.64 111.268 133.934 111.361 134.284 111.361ZM138.933 112.057C138.757 112.057 138.607 111.994 138.482 111.869C138.356 111.743 138.293 111.593 138.293 111.418C138.293 111.242 138.356 111.092 138.482 110.967C138.607 110.841 138.757 110.778 138.933 110.778C139.108 110.778 139.258 110.841 139.384 110.967C139.509 111.092 139.572 111.242 139.572 111.418C139.572 111.534 139.542 111.64 139.483 111.737C139.426 111.834 139.349 111.912 139.252 111.972C139.157 112.028 139.051 112.057 138.933 112.057ZM138.933 108.009C138.757 108.009 138.607 107.946 138.482 107.82C138.356 107.695 138.293 107.545 138.293 107.369C138.293 107.194 138.356 107.044 138.482 106.918C138.607 106.793 138.757 106.73 138.933 106.73C139.108 106.73 139.258 106.793 139.384 106.918C139.509 107.044 139.572 107.194 139.572 107.369C139.572 107.485 139.542 107.592 139.483 107.689C139.426 107.786 139.349 107.864 139.252 107.923C139.157 107.98 139.051 108.009 138.933 108.009ZM144.3 112H143.377L146.047 104.727H146.956L149.627 112H148.703L146.53 105.878H146.473L144.3 112ZM144.641 109.159H148.363V109.94H144.641V109.159ZM155.389 107C155.311 106.761 155.208 106.547 155.08 106.357C154.955 106.165 154.805 106.002 154.629 105.867C154.457 105.732 154.26 105.629 154.04 105.558C153.82 105.487 153.578 105.452 153.316 105.452C152.885 105.452 152.493 105.563 152.14 105.786C151.787 106.008 151.507 106.336 151.298 106.769C151.09 107.202 150.986 107.734 150.986 108.364C150.986 108.993 151.091 109.525 151.302 109.958C151.513 110.391 151.798 110.719 152.158 110.942C152.518 111.164 152.923 111.276 153.372 111.276C153.789 111.276 154.156 111.187 154.473 111.009C154.793 110.829 155.041 110.576 155.219 110.249C155.399 109.92 155.489 109.533 155.489 109.088L155.759 109.145H153.571V108.364H156.341V109.145C156.341 109.744 156.213 110.265 155.958 110.707C155.704 111.15 155.354 111.493 154.906 111.737C154.461 111.979 153.95 112.099 153.372 112.099C152.728 112.099 152.163 111.948 151.675 111.645C151.19 111.342 150.811 110.911 150.539 110.352C150.269 109.794 150.134 109.131 150.134 108.364C150.134 107.788 150.211 107.271 150.365 106.812C150.521 106.35 150.741 105.957 151.025 105.633C151.309 105.308 151.645 105.06 152.034 104.887C152.422 104.714 152.849 104.628 153.316 104.628C153.699 104.628 154.057 104.686 154.388 104.802C154.722 104.915 155.019 105.078 155.279 105.288C155.542 105.497 155.761 105.746 155.936 106.038C156.111 106.326 156.232 106.647 156.298 107H155.389ZM157.923 104.727L160.082 110.849H160.167L162.327 104.727H163.25L160.579 112H159.67L157 104.727H157.923ZM166.812 104.727V112H165.931V105.651H165.888L164.113 106.83V105.935L165.931 104.727H166.812ZM169.738 111.006L169.681 111.389C169.641 111.659 169.579 111.948 169.496 112.256C169.416 112.563 169.332 112.853 169.244 113.126C169.157 113.398 169.084 113.615 169.028 113.776H168.388C168.419 113.624 168.459 113.424 168.509 113.175C168.559 112.927 168.608 112.649 168.658 112.341C168.71 112.036 168.753 111.723 168.786 111.403L168.829 111.006H169.738ZM174.217 112V104.727H176.674C177.242 104.727 177.709 104.824 178.073 105.018C178.438 105.21 178.708 105.474 178.883 105.81C179.058 106.147 179.146 106.529 179.146 106.957C179.146 107.386 179.058 107.766 178.883 108.097C178.708 108.429 178.439 108.689 178.077 108.879C177.714 109.066 177.252 109.159 176.688 109.159H174.7V108.364H176.66C177.048 108.364 177.361 108.307 177.597 108.193C177.836 108.08 178.009 107.919 178.116 107.71C178.225 107.5 178.279 107.249 178.279 106.957C178.279 106.666 178.225 106.412 178.116 106.194C178.007 105.976 177.833 105.808 177.594 105.69C177.355 105.569 177.039 105.509 176.646 105.509H175.097V112H174.217ZM177.64 108.733L179.43 112H178.407L176.646 108.733H177.64ZM180.911 112H179.988L182.659 104.727H183.568L186.238 112H185.315L183.142 105.878H183.085L180.911 112ZM181.252 109.159H184.974V109.94H181.252V109.159ZM187.371 112V104.727H191.76V105.509H188.252V107.966H191.533V108.747H188.252V111.219H191.817V112H187.371ZM193.22 112V111.361L195.62 108.733C195.902 108.425 196.134 108.158 196.316 107.93C196.499 107.701 196.633 107.485 196.721 107.284C196.811 107.08 196.856 106.867 196.856 106.645C196.856 106.389 196.794 106.168 196.671 105.981C196.551 105.794 196.385 105.649 196.174 105.548C195.963 105.446 195.727 105.395 195.464 105.395C195.185 105.395 194.941 105.453 194.732 105.569C194.526 105.683 194.367 105.842 194.253 106.048C194.142 106.254 194.086 106.496 194.086 106.773H193.248C193.248 106.347 193.346 105.973 193.543 105.651C193.739 105.329 194.007 105.078 194.345 104.898C194.686 104.718 195.069 104.628 195.492 104.628C195.919 104.628 196.296 104.718 196.625 104.898C196.954 105.078 197.212 105.32 197.399 105.626C197.586 105.931 197.68 106.271 197.68 106.645C197.68 106.912 197.631 107.174 197.534 107.43C197.44 107.683 197.274 107.966 197.037 108.278C196.803 108.589 196.477 108.967 196.061 109.415L194.427 111.162V111.219H197.808V112H193.22ZM201.547 112.099C201.13 112.099 200.755 112.017 200.421 111.851C200.088 111.685 199.82 111.458 199.619 111.169C199.418 110.88 199.307 110.551 199.289 110.182H200.141C200.174 110.511 200.323 110.783 200.588 110.999C200.856 111.212 201.175 111.318 201.547 111.318C201.845 111.318 202.11 111.248 202.343 111.109C202.577 110.969 202.76 110.777 202.893 110.533C203.028 110.287 203.095 110.009 203.095 109.699C203.095 109.382 203.026 109.099 202.886 108.85C202.749 108.599 202.559 108.402 202.318 108.257C202.076 108.113 201.8 108.039 201.49 108.037C201.268 108.035 201.039 108.069 200.805 108.14C200.57 108.209 200.378 108.297 200.226 108.406L199.402 108.307L199.843 104.727H203.621V105.509H200.581L200.325 107.653H200.368C200.517 107.535 200.704 107.437 200.929 107.359C201.154 107.281 201.388 107.241 201.632 107.241C202.077 107.241 202.474 107.348 202.822 107.561C203.172 107.772 203.447 108.061 203.646 108.428C203.847 108.795 203.948 109.214 203.948 109.685C203.948 110.149 203.843 110.563 203.635 110.928C203.429 111.29 203.145 111.576 202.783 111.787C202.421 111.995 202.009 112.099 201.547 112.099ZM207.73 112.099C207.195 112.099 206.74 111.954 206.363 111.663C205.987 111.369 205.699 110.944 205.5 110.388C205.301 109.829 205.202 109.154 205.202 108.364C205.202 107.578 205.301 106.906 205.5 106.35C205.702 105.791 205.99 105.365 206.367 105.072C206.746 104.776 207.2 104.628 207.73 104.628C208.261 104.628 208.714 104.776 209.091 105.072C209.469 105.365 209.758 105.791 209.957 106.35C210.158 106.906 210.259 107.578 210.259 108.364C210.259 109.154 210.159 109.829 209.961 110.388C209.762 110.944 209.474 111.369 209.098 111.663C208.721 111.954 208.266 112.099 207.73 112.099ZM207.73 111.318C208.261 111.318 208.673 111.062 208.966 110.551C209.26 110.04 209.407 109.311 209.407 108.364C209.407 107.734 209.339 107.198 209.204 106.755C209.072 106.312 208.88 105.975 208.629 105.743C208.38 105.511 208.081 105.395 207.73 105.395C207.205 105.395 206.794 105.654 206.498 106.173C206.202 106.689 206.054 107.419 206.054 108.364C206.054 108.993 206.121 109.528 206.253 109.969C206.386 110.409 206.576 110.744 206.825 110.974C207.076 111.203 207.378 111.318 207.73 111.318Z" fill="#222222"/>
<circle cx="22" cy="129.5" r="4.5" fill="white" stroke="#F2A900" stroke-width="3"/>
<path d="M39.3097 125.727V133H38.429V126.651H38.3864L36.6108 127.83V126.935L38.429 125.727H39.3097ZM43.8161 133.099C43.5178 133.095 43.2195 133.038 42.9212 132.929C42.6229 132.82 42.3506 132.637 42.1044 132.379C41.8582 132.118 41.6605 131.767 41.5114 131.324C41.3622 130.879 41.2876 130.32 41.2876 129.648C41.2876 129.004 41.348 128.433 41.4688 127.936C41.5895 127.437 41.7647 127.016 41.9943 126.675C42.224 126.332 42.5009 126.072 42.8253 125.894C43.152 125.717 43.5201 125.628 43.9297 125.628C44.3369 125.628 44.6991 125.71 45.0163 125.873C45.3359 126.034 45.5964 126.259 45.7976 126.548C45.9988 126.836 46.129 127.169 46.1882 127.545H45.3217C45.2412 127.219 45.085 126.948 44.853 126.732C44.621 126.517 44.3132 126.409 43.9297 126.409C43.3662 126.409 42.9223 126.654 42.598 127.144C42.276 127.634 42.1139 128.322 42.1115 129.207H42.1683C42.3009 129.006 42.4583 128.835 42.6406 128.692C42.8253 128.548 43.0289 128.437 43.2514 128.359C43.474 128.281 43.7095 128.241 43.9581 128.241C44.3748 128.241 44.7559 128.346 45.1016 128.554C45.4472 128.76 45.7242 129.045 45.9325 129.41C46.1409 129.772 46.245 130.188 46.245 130.656C46.245 131.106 46.1444 131.518 45.9432 131.892C45.742 132.264 45.459 132.56 45.0945 132.78C44.7322 132.998 44.3061 133.104 43.8161 133.099ZM43.8161 132.318C44.1143 132.318 44.3819 132.244 44.6186 132.094C44.8577 131.945 45.0459 131.745 45.1832 131.494C45.3229 131.243 45.3928 130.964 45.3928 130.656C45.3928 130.356 45.3253 130.082 45.1903 129.836C45.0578 129.587 44.8743 129.39 44.6399 129.243C44.4079 129.096 44.1428 129.023 43.8445 129.023C43.6196 129.023 43.41 129.068 43.2159 129.158C43.0218 129.245 42.8513 129.366 42.7045 129.52C42.5601 129.674 42.4465 129.85 42.3636 130.049C42.2808 130.246 42.2393 130.453 42.2393 130.67C42.2393 130.959 42.3068 131.229 42.4418 131.48C42.5791 131.731 42.7661 131.933 43.0028 132.087C43.242 132.241 43.513 132.318 43.8161 132.318ZM48.2665 132.07C48.0913 132.07 47.941 132.007 47.8155 131.881C47.69 131.756 47.6273 131.606 47.6273 131.43C47.6273 131.255 47.69 131.105 47.8155 130.979C47.941 130.854 48.0913 130.791 48.2665 130.791C48.4417 130.791 48.592 130.854 48.7175 130.979C48.843 131.105 48.9057 131.255 48.9057 131.43C48.9057 131.546 48.8761 131.653 48.8169 131.75C48.7601 131.847 48.6832 131.925 48.5861 131.984C48.4914 132.041 48.3849 132.07 48.2665 132.07ZM48.2665 128.391C48.0913 128.391 47.941 128.328 47.8155 128.202C47.69 128.077 47.6273 127.927 47.6273 127.751C47.6273 127.576 47.69 127.426 47.8155 127.3C47.941 127.175 48.0913 127.112 48.2665 127.112C48.4417 127.112 48.592 127.175 48.7175 127.3C48.843 127.426 48.9057 127.576 48.9057 127.751C48.9057 127.867 48.8761 127.974 48.8169 128.071C48.7601 128.168 48.6832 128.246 48.5861 128.305C48.4914 128.362 48.3849 128.391 48.2665 128.391ZM52.6681 133.099C52.2515 133.099 51.8762 133.017 51.5424 132.851C51.2086 132.685 50.9411 132.458 50.7399 132.169C50.5386 131.88 50.4286 131.551 50.4096 131.182H51.2619C51.295 131.511 51.4442 131.783 51.7093 131.999C51.9769 132.212 52.2965 132.318 52.6681 132.318C52.9664 132.318 53.2316 132.248 53.4636 132.109C53.698 131.969 53.8815 131.777 54.014 131.533C54.149 131.287 54.2164 131.009 54.2164 130.699C54.2164 130.382 54.1466 130.099 54.0069 129.85C53.8696 129.599 53.6802 129.402 53.4387 129.257C53.1973 129.113 52.9215 129.039 52.6113 129.037C52.3888 129.035 52.1603 129.069 51.926 129.14C51.6916 129.209 51.4986 129.297 51.3471 129.406L50.5233 129.307L50.9636 125.727H54.742V126.509H51.7022L51.4466 128.653H51.4892C51.6383 128.535 51.8253 128.437 52.0502 128.359C52.2752 128.281 52.5095 128.241 52.7534 128.241C53.1984 128.241 53.595 128.348 53.943 128.561C54.2934 128.772 54.568 129.061 54.7669 129.428C54.9681 129.795 55.0687 130.214 55.0687 130.685C55.0687 131.149 54.9645 131.563 54.7562 131.928C54.5502 132.29 54.2662 132.576 53.9039 132.787C53.5417 132.995 53.1298 133.099 52.6681 133.099ZM58.8089 133.099C58.3213 133.099 57.8904 133.013 57.5163 132.84C57.1446 132.665 56.8546 132.425 56.6463 132.119C56.438 131.812 56.335 131.461 56.3374 131.068C56.335 130.76 56.3954 130.476 56.5185 130.216C56.6416 129.953 56.8097 129.734 57.0227 129.559C57.2382 129.381 57.4785 129.269 57.7436 129.222V129.179C57.3956 129.089 57.1186 128.894 56.9126 128.593C56.7067 128.29 56.6049 127.946 56.6072 127.56C56.6049 127.19 56.6984 126.86 56.8878 126.569C57.0772 126.278 57.3376 126.048 57.669 125.88C58.0028 125.712 58.3828 125.628 58.8089 125.628C59.2304 125.628 59.6068 125.712 59.9382 125.88C60.2696 126.048 60.5301 126.278 60.7195 126.569C60.9112 126.86 61.0083 127.19 61.0107 127.56C61.0083 127.946 60.9029 128.29 60.6946 128.593C60.4886 128.894 60.2152 129.089 59.8743 129.179V129.222C60.1371 129.269 60.3738 129.381 60.5845 129.559C60.7952 129.734 60.9633 129.953 61.0888 130.216C61.2143 130.476 61.2782 130.76 61.2805 131.068C61.2782 131.461 61.1716 131.812 60.9609 132.119C60.7526 132.425 60.4626 132.665 60.0909 132.84C59.7216 133.013 59.2943 133.099 58.8089 133.099ZM58.8089 132.318C59.138 132.318 59.4221 132.265 59.6612 132.158C59.9003 132.052 60.085 131.902 60.2152 131.707C60.3454 131.513 60.4117 131.286 60.4141 131.026C60.4117 130.751 60.3407 130.508 60.201 130.298C60.0613 130.087 59.8707 129.921 59.6293 129.8C59.3902 129.68 59.1167 129.619 58.8089 129.619C58.4988 129.619 58.2218 129.68 57.978 129.8C57.7365 129.921 57.5459 130.087 57.4062 130.298C57.2689 130.508 57.2015 130.751 57.2038 131.026C57.2015 131.286 57.2642 131.513 57.392 131.707C57.5223 131.902 57.7081 132.052 57.9496 132.158C58.1911 132.265 58.4775 132.318 58.8089 132.318ZM58.8089 128.866C59.0694 128.866 59.3002 128.814 59.5014 128.71C59.705 128.606 59.8648 128.46 59.9808 128.273C60.0968 128.086 60.156 127.867 60.1584 127.616C60.156 127.37 60.098 127.156 59.9844 126.974C59.8707 126.789 59.7133 126.647 59.5121 126.548C59.3108 126.446 59.0765 126.395 58.8089 126.395C58.5367 126.395 58.2988 126.446 58.0952 126.548C57.8916 126.647 57.7341 126.789 57.6229 126.974C57.5116 127.156 57.4571 127.37 57.4595 127.616C57.4571 127.867 57.5128 128.086 57.6264 128.273C57.7424 128.46 57.9022 128.606 58.1058 128.71C58.3094 128.814 58.5438 128.866 58.8089 128.866ZM63.2665 132.07C63.0913 132.07 62.941 132.007 62.8155 131.881C62.69 131.756 62.6273 131.606 62.6273 131.43C62.6273 131.255 62.69 131.105 62.8155 130.979C62.941 130.854 63.0913 130.791 63.2665 130.791C63.4417 130.791 63.592 130.854 63.7175 130.979C63.843 131.105 63.9057 131.255 63.9057 131.43C63.9057 131.546 63.8761 131.653 63.8169 131.75C63.7601 131.847 63.6832 131.925 63.5861 131.984C63.4914 132.041 63.3849 132.07 63.2665 132.07ZM63.2665 128.391C63.0913 128.391 62.941 128.328 62.8155 128.202C62.69 128.077 62.6273 127.927 62.6273 127.751C62.6273 127.576 62.69 127.426 62.8155 127.3C62.941 127.175 63.0913 127.112 63.2665 127.112C63.4417 127.112 63.592 127.175 63.7175 127.3C63.843 127.426 63.9057 127.576 63.9057 127.751C63.9057 127.867 63.8761 127.974 63.8169 128.071C63.7601 128.168 63.6832 128.246 63.5861 128.305C63.4914 128.362 63.3849 128.391 63.2665 128.391ZM67.7676 133.099C67.2325 133.099 66.7768 132.954 66.4004 132.663C66.024 132.369 65.7363 131.944 65.5375 131.388C65.3386 130.829 65.2392 130.154 65.2392 129.364C65.2392 128.578 65.3386 127.906 65.5375 127.35C65.7387 126.791 66.0275 126.365 66.4039 126.072C66.7827 125.776 67.2373 125.628 67.7676 125.628C68.2979 125.628 68.7512 125.776 69.1277 126.072C69.5065 126.365 69.7953 126.791 69.9941 127.35C70.1954 127.906 70.296 128.578 70.296 129.364C70.296 130.154 70.1966 130.829 69.9977 131.388C69.7988 131.944 69.5112 132.369 69.1348 132.663C68.7583 132.954 68.3026 133.099 67.7676 133.099ZM67.7676 132.318C68.2979 132.318 68.7098 132.062 69.0034 131.551C69.2969 131.04 69.4437 130.311 69.4437 129.364C69.4437 128.734 69.3762 128.198 69.2413 127.755C69.1087 127.312 68.917 126.975 68.666 126.743C68.4174 126.511 68.118 126.395 67.7676 126.395C67.242 126.395 66.8313 126.654 66.5353 127.173C66.2394 127.689 66.0914 128.419 66.0914 129.364C66.0914 129.993 66.1577 130.528 66.2903 130.969C66.4229 131.409 66.6135 131.744 66.862 131.974C67.113 132.203 67.4148 132.318 67.7676 132.318ZM74.0176 133.099C73.4825 133.099 73.0268 132.954 72.6504 132.663C72.274 132.369 71.9863 131.944 71.7875 131.388C71.5886 130.829 71.4892 130.154 71.4892 129.364C71.4892 128.578 71.5886 127.906 71.7875 127.35C71.9887 126.791 72.2775 126.365 72.6539 126.072C73.0327 125.776 73.4873 125.628 74.0176 125.628C74.5479 125.628 75.0012 125.776 75.3777 126.072C75.7565 126.365 76.0453 126.791 76.2441 127.35C76.4454 127.906 76.546 128.578 76.546 129.364C76.546 130.154 76.4466 130.829 76.2477 131.388C76.0488 131.944 75.7612 132.369 75.3848 132.663C75.0083 132.954 74.5526 133.099 74.0176 133.099ZM74.0176 132.318C74.5479 132.318 74.9598 132.062 75.2534 131.551C75.5469 131.04 75.6937 130.311 75.6937 129.364C75.6937 128.734 75.6262 128.198 75.4913 127.755C75.3587 127.312 75.167 126.975 74.916 126.743C74.6674 126.511 74.368 126.395 74.0176 126.395C73.492 126.395 73.0813 126.654 72.7853 127.173C72.4894 127.689 72.3414 128.419 72.3414 129.364C72.3414 129.993 72.4077 130.528 72.5403 130.969C72.6729 131.409 72.8635 131.744 73.112 131.974C73.363 132.203 73.6648 132.318 74.0176 132.318Z" fill="#222222"/>
<path d="M94.8807 133V125.727H97.3381C97.9086 125.727 98.375 125.83 98.7372 126.036C99.1018 126.24 99.3717 126.516 99.5469 126.864C99.7221 127.212 99.8097 127.6 99.8097 128.028C99.8097 128.457 99.7221 128.846 99.5469 129.197C99.3741 129.547 99.1065 129.826 98.7443 130.035C98.3821 130.241 97.9181 130.344 97.3523 130.344H95.5909V129.562H97.3239C97.7145 129.562 98.0282 129.495 98.2649 129.36C98.5017 129.225 98.6733 129.043 98.7798 128.813C98.8887 128.581 98.9432 128.32 98.9432 128.028C98.9432 127.737 98.8887 127.477 98.7798 127.247C98.6733 127.018 98.5005 126.838 98.2614 126.707C98.0223 126.575 97.705 126.509 97.3097 126.509H95.7614V133H94.8807ZM101.115 133V127.545H101.953V133H101.115ZM101.541 126.636C101.377 126.636 101.237 126.581 101.118 126.469C101.002 126.358 100.944 126.224 100.944 126.068C100.944 125.912 101.002 125.778 101.118 125.667C101.237 125.556 101.377 125.5 101.541 125.5C101.704 125.5 101.844 125.556 101.96 125.667C102.078 125.778 102.137 125.912 102.137 126.068C102.137 126.224 102.078 126.358 101.96 126.469C101.844 126.581 101.704 126.636 101.541 126.636ZM105.704 133.114C105.192 133.114 104.752 132.993 104.383 132.751C104.013 132.51 103.729 132.177 103.53 131.754C103.331 131.33 103.232 130.846 103.232 130.301C103.232 129.747 103.334 129.258 103.537 128.835C103.743 128.408 104.03 128.076 104.397 127.837C104.766 127.595 105.197 127.474 105.689 127.474C106.073 127.474 106.419 127.545 106.726 127.688C107.034 127.83 107.286 128.028 107.483 128.284C107.679 128.54 107.801 128.838 107.849 129.179H107.01C106.947 128.93 106.805 128.71 106.584 128.518C106.367 128.324 106.073 128.227 105.704 128.227C105.377 128.227 105.09 128.312 104.844 128.483C104.6 128.651 104.41 128.889 104.273 129.197C104.138 129.502 104.07 129.861 104.07 130.273C104.07 130.694 104.136 131.061 104.269 131.374C104.404 131.686 104.593 131.929 104.837 132.102C105.083 132.274 105.372 132.361 105.704 132.361C105.921 132.361 106.119 132.323 106.297 132.247C106.474 132.171 106.625 132.062 106.748 131.92C106.871 131.778 106.958 131.608 107.01 131.409H107.849C107.801 131.731 107.684 132.021 107.497 132.279C107.312 132.535 107.067 132.738 106.762 132.89C106.459 133.039 106.106 133.114 105.704 133.114ZM109.855 131.011L109.841 129.974H110.011L112.398 127.545H113.434L110.892 130.116H110.821L109.855 131.011ZM109.074 133V125.727H109.912V133H109.074ZM112.54 133L110.409 130.301L111.006 129.719L113.605 133H112.54ZM120.763 130.77V127.545H121.601V133H120.763V132.077H120.706C120.578 132.354 120.38 132.589 120.11 132.783C119.84 132.975 119.499 133.071 119.087 133.071C118.746 133.071 118.443 132.996 118.178 132.847C117.913 132.696 117.704 132.469 117.553 132.165C117.401 131.86 117.326 131.475 117.326 131.011V127.545H118.164V130.955C118.164 131.352 118.275 131.67 118.498 131.906C118.722 132.143 119.009 132.261 119.357 132.261C119.565 132.261 119.777 132.208 119.993 132.102C120.21 131.995 120.393 131.832 120.539 131.612C120.689 131.391 120.763 131.111 120.763 130.77ZM123.136 135.045V127.545H123.946V128.412H124.045C124.107 128.317 124.192 128.196 124.301 128.05C124.412 127.901 124.571 127.768 124.777 127.652C124.985 127.534 125.267 127.474 125.622 127.474C126.081 127.474 126.486 127.589 126.836 127.819C127.187 128.049 127.46 128.374 127.657 128.795C127.853 129.217 127.952 129.714 127.952 130.287C127.952 130.865 127.853 131.365 127.657 131.789C127.46 132.21 127.188 132.537 126.84 132.769C126.492 132.999 126.091 133.114 125.636 133.114C125.286 133.114 125.005 133.056 124.795 132.94C124.584 132.821 124.422 132.687 124.308 132.538C124.194 132.387 124.107 132.261 124.045 132.162H123.974V135.045H123.136ZM123.96 130.273C123.96 130.685 124.02 131.048 124.141 131.363C124.262 131.675 124.438 131.92 124.67 132.098C124.902 132.273 125.186 132.361 125.523 132.361C125.873 132.361 126.165 132.268 126.4 132.084C126.636 131.897 126.814 131.646 126.932 131.331C127.053 131.014 127.113 130.661 127.113 130.273C127.113 129.889 127.054 129.544 126.936 129.236C126.82 128.926 126.644 128.681 126.407 128.501C126.172 128.318 125.878 128.227 125.523 128.227C125.182 128.227 124.895 128.314 124.663 128.487C124.431 128.657 124.256 128.896 124.138 129.204C124.019 129.509 123.96 129.866 123.96 130.273ZM129.841 133.057C129.666 133.057 129.515 132.994 129.39 132.869C129.264 132.743 129.202 132.593 129.202 132.418C129.202 132.242 129.264 132.092 129.39 131.967C129.515 131.841 129.666 131.778 129.841 131.778C130.016 131.778 130.166 131.841 130.292 131.967C130.417 132.092 130.48 132.242 130.48 132.418C130.48 132.534 130.45 132.64 130.391 132.737C130.334 132.834 130.257 132.912 130.16 132.972C130.066 133.028 129.959 133.057 129.841 133.057ZM129.841 129.009C129.666 129.009 129.515 128.946 129.39 128.82C129.264 128.695 129.202 128.545 129.202 128.369C129.202 128.194 129.264 128.044 129.39 127.918C129.515 127.793 129.666 127.73 129.841 127.73C130.016 127.73 130.166 127.793 130.292 127.918C130.417 128.044 130.48 128.194 130.48 128.369C130.48 128.485 130.45 128.592 130.391 128.689C130.334 128.786 130.257 128.864 130.16 128.923C130.066 128.98 129.959 129.009 129.841 129.009ZM135.791 125.727V133H134.91V125.727H135.791ZM138.281 129.719V133H137.443V127.545H138.252V128.398H138.324C138.451 128.121 138.645 127.898 138.906 127.73C139.166 127.56 139.502 127.474 139.914 127.474C140.284 127.474 140.607 127.55 140.884 127.702C141.161 127.851 141.376 128.078 141.53 128.384C141.684 128.687 141.761 129.07 141.761 129.534V133H140.923V129.591C140.923 129.162 140.812 128.829 140.589 128.589C140.367 128.348 140.061 128.227 139.673 128.227C139.405 128.227 139.166 128.285 138.956 128.401C138.747 128.517 138.583 128.687 138.462 128.909C138.341 129.132 138.281 129.402 138.281 129.719ZM145.665 127.545V128.256H142.838V127.545H145.665ZM143.662 126.239H144.5V131.438C144.5 131.674 144.534 131.852 144.603 131.97C144.674 132.086 144.764 132.164 144.873 132.205C144.984 132.242 145.101 132.261 145.224 132.261C145.317 132.261 145.392 132.257 145.452 132.247C145.511 132.235 145.558 132.226 145.594 132.219L145.764 132.972C145.707 132.993 145.628 133.014 145.526 133.036C145.424 133.059 145.295 133.071 145.139 133.071C144.902 133.071 144.67 133.02 144.443 132.918C144.218 132.817 144.031 132.661 143.882 132.453C143.735 132.245 143.662 131.982 143.662 131.665V126.239ZM148.53 133.128C148.185 133.128 147.871 133.063 147.589 132.933C147.308 132.8 147.084 132.609 146.918 132.361C146.752 132.11 146.67 131.807 146.67 131.452C146.67 131.139 146.731 130.886 146.854 130.692C146.977 130.495 147.142 130.341 147.348 130.23C147.554 130.119 147.781 130.036 148.03 129.982C148.281 129.925 148.533 129.88 148.786 129.847C149.117 129.804 149.386 129.772 149.592 129.751C149.8 129.727 149.952 129.688 150.047 129.634C150.144 129.579 150.192 129.484 150.192 129.349V129.321C150.192 128.971 150.096 128.698 149.905 128.504C149.715 128.31 149.428 128.213 149.042 128.213C148.642 128.213 148.328 128.301 148.101 128.476C147.873 128.651 147.714 128.838 147.621 129.037L146.826 128.753C146.968 128.421 147.157 128.163 147.394 127.979C147.633 127.792 147.894 127.661 148.175 127.588C148.459 127.512 148.739 127.474 149.013 127.474C149.189 127.474 149.39 127.496 149.617 127.538C149.847 127.579 150.068 127.663 150.281 127.79C150.497 127.918 150.675 128.111 150.817 128.369C150.959 128.627 151.03 128.973 151.03 129.406V133H150.192V132.261H150.15C150.093 132.38 149.998 132.506 149.866 132.641C149.733 132.776 149.557 132.891 149.336 132.986C149.116 133.08 148.848 133.128 148.53 133.128ZM148.658 132.375C148.99 132.375 149.269 132.31 149.496 132.18C149.726 132.049 149.899 131.881 150.015 131.675C150.133 131.469 150.192 131.253 150.192 131.026V130.259C150.157 130.301 150.079 130.34 149.958 130.376C149.84 130.409 149.702 130.438 149.546 130.464C149.392 130.488 149.242 130.509 149.095 130.528C148.951 130.545 148.833 130.559 148.743 130.571C148.526 130.599 148.322 130.646 148.133 130.71C147.946 130.771 147.794 130.865 147.678 130.99C147.564 131.113 147.508 131.281 147.508 131.494C147.508 131.786 147.615 132.006 147.831 132.155C148.049 132.302 148.324 132.375 148.658 132.375ZM153.341 131.011L153.327 129.974H153.498L155.884 127.545H156.921L154.378 130.116H154.307L153.341 131.011ZM152.56 133V125.727H153.398V133H152.56ZM156.026 133L153.895 130.301L154.492 129.719L157.091 133H156.026ZM160.062 133.114C159.536 133.114 159.083 132.998 158.702 132.766C158.323 132.531 158.031 132.205 157.825 131.786C157.621 131.364 157.519 130.874 157.519 130.315C157.519 129.757 157.621 129.264 157.825 128.838C158.031 128.41 158.317 128.076 158.684 127.837C159.053 127.595 159.484 127.474 159.977 127.474C160.261 127.474 160.541 127.522 160.818 127.616C161.095 127.711 161.347 127.865 161.575 128.078C161.802 128.289 161.983 128.568 162.118 128.916C162.253 129.264 162.32 129.693 162.32 130.202V130.557H158.116V129.832H161.468C161.468 129.525 161.406 129.25 161.283 129.009C161.163 128.767 160.99 128.576 160.765 128.437C160.542 128.297 160.28 128.227 159.977 128.227C159.643 128.227 159.354 128.31 159.11 128.476C158.869 128.639 158.683 128.852 158.553 129.115C158.422 129.378 158.357 129.66 158.357 129.96V130.443C158.357 130.855 158.428 131.204 158.57 131.491C158.715 131.775 158.915 131.991 159.17 132.141C159.426 132.287 159.723 132.361 160.062 132.361C160.282 132.361 160.481 132.33 160.658 132.268C160.838 132.205 160.993 132.11 161.124 131.984C161.254 131.857 161.354 131.698 161.425 131.509L162.235 131.736C162.15 132.01 162.007 132.252 161.805 132.46C161.604 132.666 161.356 132.827 161.06 132.943C160.764 133.057 160.431 133.114 160.062 133.114ZM168.95 125.727V133H168.07V126.651H168.027L166.251 127.83V126.935L168.07 125.727H168.95Z" fill="#222222"/>
<circle cx="22" cy="150.5" r="4.5" fill="white" stroke="#F2A900" stroke-width="3"/>
<rect width="45" height="13" transform="translate(34 144)" fill="#F7F7F7"/>
<path d="M39.3097 146.727V154H38.429V147.651H38.3864L36.6108 148.83V147.935L38.429 146.727H39.3097ZM41.6286 154L44.8814 147.565V147.509H41.1314V146.727H45.7905V147.551L42.5518 154H41.6286ZM47.3974 153.07C47.2222 153.07 47.0719 153.007 46.9464 152.881C46.8209 152.756 46.7582 152.606 46.7582 152.43C46.7582 152.255 46.8209 152.105 46.9464 151.979C47.0719 151.854 47.2222 151.791 47.3974 151.791C47.5726 151.791 47.7229 151.854 47.8484 151.979C47.9738 152.105 48.0366 152.255 48.0366 152.43C48.0366 152.546 48.007 152.653 47.9478 152.75C47.891 152.847 47.814 152.925 47.717 152.984C47.6223 153.041 47.5157 153.07 47.3974 153.07ZM47.3974 149.391C47.2222 149.391 47.0719 149.328 46.9464 149.202C46.8209 149.077 46.7582 148.927 46.7582 148.751C46.7582 148.576 46.8209 148.426 46.9464 148.3C47.0719 148.175 47.2222 148.112 47.3974 148.112C47.5726 148.112 47.7229 148.175 47.8484 148.3C47.9738 148.426 48.0366 148.576 48.0366 148.751C48.0366 148.867 48.007 148.974 47.9478 149.071C47.891 149.168 47.814 149.246 47.717 149.305C47.6223 149.362 47.5157 149.391 47.3974 149.391ZM51.8984 154.099C51.3634 154.099 50.9077 153.954 50.5312 153.663C50.1548 153.369 49.8672 152.944 49.6683 152.388C49.4695 151.829 49.37 151.154 49.37 150.364C49.37 149.578 49.4695 148.906 49.6683 148.35C49.8696 147.791 50.1584 147.365 50.5348 147.072C50.9136 146.776 51.3681 146.628 51.8984 146.628C52.4287 146.628 52.8821 146.776 53.2585 147.072C53.6373 147.365 53.9261 147.791 54.125 148.35C54.3262 148.906 54.4268 149.578 54.4268 150.364C54.4268 151.154 54.3274 151.829 54.1286 152.388C53.9297 152.944 53.642 153.369 53.2656 153.663C52.8892 153.954 52.4335 154.099 51.8984 154.099ZM51.8984 153.318C52.4287 153.318 52.8407 153.062 53.1342 152.551C53.4278 152.04 53.5746 151.311 53.5746 150.364C53.5746 149.734 53.5071 149.198 53.3722 148.755C53.2396 148.312 53.0478 147.975 52.7969 147.743C52.5483 147.511 52.2488 147.395 51.8984 147.395C51.3729 147.395 50.9621 147.654 50.6662 148.173C50.3703 148.689 50.2223 149.419 50.2223 150.364C50.2223 150.993 50.2886 151.528 50.4212 151.969C50.5537 152.409 50.7443 152.744 50.9929 152.974C51.2438 153.203 51.5457 153.318 51.8984 153.318ZM58.1484 154.099C57.6134 154.099 57.1577 153.954 56.7812 153.663C56.4048 153.369 56.1172 152.944 55.9183 152.388C55.7195 151.829 55.62 151.154 55.62 150.364C55.62 149.578 55.7195 148.906 55.9183 148.35C56.1196 147.791 56.4084 147.365 56.7848 147.072C57.1636 146.776 57.6181 146.628 58.1484 146.628C58.6787 146.628 59.1321 146.776 59.5085 147.072C59.8873 147.365 60.1761 147.791 60.375 148.35C60.5762 148.906 60.6768 149.578 60.6768 150.364C60.6768 151.154 60.5774 151.829 60.3786 152.388C60.1797 152.944 59.892 153.369 59.5156 153.663C59.1392 153.954 58.6835 154.099 58.1484 154.099ZM58.1484 153.318C58.6787 153.318 59.0907 153.062 59.3842 152.551C59.6778 152.04 59.8246 151.311 59.8246 150.364C59.8246 149.734 59.7571 149.198 59.6222 148.755C59.4896 148.312 59.2978 147.975 59.0469 147.743C58.7983 147.511 58.4988 147.395 58.1484 147.395C57.6229 147.395 57.2121 147.654 56.9162 148.173C56.6203 148.689 56.4723 149.419 56.4723 150.364C56.4723 150.993 56.5386 151.528 56.6712 151.969C56.8037 152.409 56.9943 152.744 57.2429 152.974C57.4938 153.203 57.7957 153.318 58.1484 153.318ZM62.6513 153.07C62.4761 153.07 62.3258 153.007 62.2003 152.881C62.0748 152.756 62.0121 152.606 62.0121 152.43C62.0121 152.255 62.0748 152.105 62.2003 151.979C62.3258 151.854 62.4761 151.791 62.6513 151.791C62.8265 151.791 62.9768 151.854 63.1023 151.979C63.2277 152.105 63.2905 152.255 63.2905 152.43C63.2905 152.546 63.2609 152.653 63.2017 152.75C63.1449 152.847 63.0679 152.925 62.9709 152.984C62.8762 153.041 62.7696 153.07 62.6513 153.07ZM62.6513 149.391C62.4761 149.391 62.3258 149.328 62.2003 149.202C62.0748 149.077 62.0121 148.927 62.0121 148.751C62.0121 148.576 62.0748 148.426 62.2003 148.3C62.3258 148.175 62.4761 148.112 62.6513 148.112C62.8265 148.112 62.9768 148.175 63.1023 148.3C63.2277 148.426 63.2905 148.576 63.2905 148.751C63.2905 148.867 63.2609 148.974 63.2017 149.071C63.1449 149.168 63.0679 149.246 62.9709 149.305C62.8762 149.362 62.7696 149.391 62.6513 149.391ZM67.1523 154.099C66.6173 154.099 66.1616 153.954 65.7852 153.663C65.4087 153.369 65.1211 152.944 64.9222 152.388C64.7234 151.829 64.6239 151.154 64.6239 150.364C64.6239 149.578 64.7234 148.906 64.9222 148.35C65.1235 147.791 65.4123 147.365 65.7887 147.072C66.1675 146.776 66.622 146.628 67.1523 146.628C67.6826 146.628 68.136 146.776 68.5124 147.072C68.8912 147.365 69.18 147.791 69.3789 148.35C69.5801 148.906 69.6808 149.578 69.6808 150.364C69.6808 151.154 69.5813 151.829 69.3825 152.388C69.1836 152.944 68.896 153.369 68.5195 153.663C68.1431 153.954 67.6874 154.099 67.1523 154.099ZM67.1523 153.318C67.6826 153.318 68.0946 153.062 68.3881 152.551C68.6817 152.04 68.8285 151.311 68.8285 150.364C68.8285 149.734 68.761 149.198 68.6261 148.755C68.4935 148.312 68.3017 147.975 68.0508 147.743C67.8022 147.511 67.5027 147.395 67.1523 147.395C66.6268 147.395 66.216 147.654 65.9201 148.173C65.6242 148.689 65.4762 149.419 65.4762 150.364C65.4762 150.993 65.5425 151.528 65.6751 151.969C65.8076 152.409 65.9982 152.744 66.2468 152.974C66.4978 153.203 66.7996 153.318 67.1523 153.318ZM73.4023 154.099C72.8673 154.099 72.4116 153.954 72.0352 153.663C71.6587 153.369 71.3711 152.944 71.1722 152.388C70.9734 151.829 70.8739 151.154 70.8739 150.364C70.8739 149.578 70.9734 148.906 71.1722 148.35C71.3735 147.791 71.6623 147.365 72.0387 147.072C72.4175 146.776 72.872 146.628 73.4023 146.628C73.9326 146.628 74.386 146.776 74.7624 147.072C75.1412 147.365 75.43 147.791 75.6289 148.35C75.8301 148.906 75.9308 149.578 75.9308 150.364C75.9308 151.154 75.8313 151.829 75.6325 152.388C75.4336 152.944 75.146 153.369 74.7695 153.663C74.3931 153.954 73.9374 154.099 73.4023 154.099ZM73.4023 153.318C73.9326 153.318 74.3446 153.062 74.6381 152.551C74.9317 152.04 75.0785 151.311 75.0785 150.364C75.0785 149.734 75.011 149.198 74.8761 148.755C74.7435 148.312 74.5517 147.975 74.3008 147.743C74.0522 147.511 73.7527 147.395 73.4023 147.395C72.8768 147.395 72.466 147.654 72.1701 148.173C71.8742 148.689 71.7262 149.419 71.7262 150.364C71.7262 150.993 71.7925 151.528 71.9251 151.969C72.0576 152.409 72.2482 152.744 72.4968 152.974C72.7478 153.203 73.0496 153.318 73.4023 153.318Z" fill="#222222"/>
<path d="M96.125 154H93.8807V146.727H96.2244C96.9299 146.727 97.5336 146.873 98.0355 147.164C98.5374 147.453 98.9221 147.868 99.1896 148.411C99.4571 148.95 99.5909 149.597 99.5909 150.349C99.5909 151.107 99.456 151.759 99.1861 152.306C98.9162 152.851 98.5232 153.27 98.0071 153.563C97.491 153.854 96.8636 154 96.125 154ZM94.7614 153.219H96.0682C96.6695 153.219 97.1679 153.103 97.5632 152.871C97.9586 152.639 98.2533 152.308 98.4474 151.88C98.6416 151.451 98.7386 150.941 98.7386 150.349C98.7386 149.762 98.6428 149.257 98.451 148.833C98.2592 148.407 97.9728 148.08 97.5916 147.853C97.2105 147.623 96.7358 147.509 96.1676 147.509H94.7614V153.219ZM100.955 154V148.545H101.764V149.369H101.821C101.92 149.099 102.1 148.88 102.361 148.712C102.621 148.544 102.915 148.46 103.241 148.46C103.303 148.46 103.38 148.461 103.472 148.464C103.565 148.466 103.634 148.47 103.682 148.474V149.327C103.653 149.32 103.588 149.309 103.487 149.295C103.387 149.278 103.282 149.27 103.17 149.27C102.905 149.27 102.669 149.326 102.46 149.437C102.254 149.546 102.091 149.697 101.97 149.891C101.852 150.083 101.793 150.302 101.793 150.548V154H100.955ZM106.725 154.114C106.233 154.114 105.801 153.996 105.429 153.762C105.06 153.528 104.771 153.2 104.562 152.778C104.357 152.357 104.254 151.865 104.254 151.301C104.254 150.733 104.357 150.237 104.562 149.813C104.771 149.389 105.06 149.06 105.429 148.826C105.801 148.592 106.233 148.474 106.725 148.474C107.218 148.474 107.648 148.592 108.018 148.826C108.389 149.06 108.678 149.389 108.884 149.813C109.093 150.237 109.197 150.733 109.197 151.301C109.197 151.865 109.093 152.357 108.884 152.778C108.678 153.2 108.389 153.528 108.018 153.762C107.648 153.996 107.218 154.114 106.725 154.114ZM106.725 153.361C107.099 153.361 107.407 153.265 107.648 153.073C107.89 152.881 108.069 152.629 108.185 152.317C108.301 152.004 108.359 151.666 108.359 151.301C108.359 150.937 108.301 150.597 108.185 150.282C108.069 149.967 107.89 149.713 107.648 149.518C107.407 149.324 107.099 149.227 106.725 149.227C106.351 149.227 106.043 149.324 105.802 149.518C105.56 149.713 105.382 149.967 105.266 150.282C105.15 150.597 105.092 150.937 105.092 151.301C105.092 151.666 105.15 152.004 105.266 152.317C105.382 152.629 105.56 152.881 105.802 153.073C106.043 153.265 106.351 153.361 106.725 153.361ZM110.476 156.045V148.545H111.286V149.412H111.385C111.447 149.317 111.532 149.196 111.641 149.05C111.752 148.901 111.911 148.768 112.117 148.652C112.325 148.534 112.607 148.474 112.962 148.474C113.421 148.474 113.826 148.589 114.176 148.819C114.527 149.049 114.8 149.374 114.997 149.795C115.193 150.217 115.291 150.714 115.291 151.287C115.291 151.865 115.193 152.365 114.997 152.789C114.8 153.21 114.528 153.537 114.18 153.769C113.832 153.999 113.431 154.114 112.976 154.114C112.626 154.114 112.345 154.056 112.134 153.94C111.924 153.821 111.762 153.687 111.648 153.538C111.534 153.387 111.447 153.261 111.385 153.162H111.314V156.045H110.476ZM111.3 151.273C111.3 151.685 111.36 152.048 111.481 152.363C111.602 152.675 111.778 152.92 112.01 153.098C112.242 153.273 112.526 153.361 112.862 153.361C113.213 153.361 113.505 153.268 113.74 153.084C113.976 152.897 114.154 152.646 114.272 152.331C114.393 152.014 114.453 151.661 114.453 151.273C114.453 150.889 114.394 150.544 114.276 150.236C114.16 149.926 113.983 149.681 113.747 149.501C113.512 149.318 113.218 149.227 112.862 149.227C112.521 149.227 112.235 149.314 112.003 149.487C111.771 149.657 111.596 149.896 111.477 150.204C111.359 150.509 111.3 150.866 111.3 151.273ZM121.598 154.114C121.106 154.114 120.674 153.996 120.302 153.762C119.933 153.528 119.644 153.2 119.436 152.778C119.23 152.357 119.127 151.865 119.127 151.301C119.127 150.733 119.23 150.237 119.436 149.813C119.644 149.389 119.933 149.06 120.302 148.826C120.674 148.592 121.106 148.474 121.598 148.474C122.091 148.474 122.521 148.592 122.891 148.826C123.262 149.06 123.551 149.389 123.757 149.813C123.966 150.237 124.07 150.733 124.07 151.301C124.07 151.865 123.966 152.357 123.757 152.778C123.551 153.2 123.262 153.528 122.891 153.762C122.521 153.996 122.091 154.114 121.598 154.114ZM121.598 153.361C121.972 153.361 122.28 153.265 122.521 153.073C122.763 152.881 122.942 152.629 123.058 152.317C123.174 152.004 123.232 151.666 123.232 151.301C123.232 150.937 123.174 150.597 123.058 150.282C122.942 149.967 122.763 149.713 122.521 149.518C122.28 149.324 121.972 149.227 121.598 149.227C121.224 149.227 120.916 149.324 120.675 149.518C120.433 149.713 120.255 149.967 120.139 150.282C120.023 150.597 119.965 150.937 119.965 151.301C119.965 151.666 120.023 152.004 120.139 152.317C120.255 152.629 120.433 152.881 120.675 153.073C120.916 153.265 121.224 153.361 121.598 153.361ZM127.778 148.545V149.256H124.838V148.545H127.778ZM125.718 154V147.793C125.718 147.48 125.792 147.22 125.939 147.011C126.085 146.803 126.276 146.647 126.51 146.543C126.745 146.438 126.992 146.386 127.252 146.386C127.458 146.386 127.627 146.403 127.757 146.436C127.887 146.469 127.984 146.5 128.048 146.528L127.806 147.253C127.764 147.239 127.705 147.221 127.629 147.2C127.556 147.178 127.458 147.168 127.338 147.168C127.061 147.168 126.861 147.237 126.738 147.377C126.617 147.517 126.556 147.722 126.556 147.991V154H125.718ZM131.382 148.545V149.256H128.441V148.545H131.382ZM129.322 154V147.793C129.322 147.48 129.395 147.22 129.542 147.011C129.689 146.803 129.879 146.647 130.114 146.543C130.348 146.438 130.596 146.386 130.856 146.386C131.062 146.386 131.23 146.403 131.36 146.436C131.49 146.469 131.588 146.5 131.651 146.528L131.41 147.253C131.367 147.239 131.308 147.221 131.232 147.2C131.159 147.178 131.062 147.168 130.941 147.168C130.664 147.168 130.464 147.237 130.341 147.377C130.22 147.517 130.16 147.722 130.16 147.991V154H129.322ZM133.167 154.057C132.992 154.057 132.841 153.994 132.716 153.869C132.59 153.743 132.528 153.593 132.528 153.418C132.528 153.242 132.59 153.092 132.716 152.967C132.841 152.841 132.992 152.778 133.167 152.778C133.342 152.778 133.492 152.841 133.618 152.967C133.743 153.092 133.806 153.242 133.806 153.418C133.806 153.534 133.777 153.64 133.717 153.737C133.661 153.834 133.584 153.912 133.487 153.972C133.392 154.028 133.285 154.057 133.167 154.057ZM133.167 150.009C132.992 150.009 132.841 149.946 132.716 149.82C132.59 149.695 132.528 149.545 132.528 149.369C132.528 149.194 132.59 149.044 132.716 148.918C132.841 148.793 132.992 148.73 133.167 148.73C133.342 148.73 133.492 148.793 133.618 148.918C133.743 149.044 133.806 149.194 133.806 149.369C133.806 149.485 133.777 149.592 133.717 149.689C133.661 149.786 133.584 149.864 133.487 149.923C133.392 149.98 133.285 150.009 133.167 150.009ZM140.48 154H138.236V146.727H140.58C141.285 146.727 141.889 146.873 142.391 147.164C142.893 147.453 143.278 147.868 143.545 148.411C143.813 148.95 143.946 149.597 143.946 150.349C143.946 151.107 143.811 151.759 143.542 152.306C143.272 152.851 142.879 153.27 142.363 153.563C141.846 153.854 141.219 154 140.48 154ZM139.117 153.219H140.424C141.025 153.219 141.523 153.103 141.919 152.871C142.314 152.639 142.609 152.308 142.803 151.88C142.997 151.451 143.094 150.941 143.094 150.349C143.094 149.762 142.998 149.257 142.806 148.833C142.615 148.407 142.328 148.08 141.947 147.853C141.566 147.623 141.091 147.509 140.523 147.509H139.117V153.219ZM147.597 154.114C147.071 154.114 146.618 153.998 146.237 153.766C145.858 153.531 145.566 153.205 145.36 152.786C145.156 152.364 145.054 151.874 145.054 151.315C145.054 150.757 145.156 150.264 145.36 149.838C145.566 149.41 145.852 149.076 146.219 148.837C146.588 148.595 147.019 148.474 147.512 148.474C147.796 148.474 148.076 148.522 148.353 148.616C148.63 148.711 148.882 148.865 149.11 149.078C149.337 149.289 149.518 149.568 149.653 149.916C149.788 150.264 149.855 150.693 149.855 151.202V151.557H145.651V150.832H149.003C149.003 150.525 148.942 150.25 148.819 150.009C148.698 149.767 148.525 149.576 148.3 149.437C148.078 149.297 147.815 149.227 147.512 149.227C147.178 149.227 146.889 149.31 146.645 149.476C146.404 149.639 146.218 149.852 146.088 150.115C145.958 150.378 145.892 150.66 145.892 150.96V151.443C145.892 151.855 145.963 152.204 146.105 152.491C146.25 152.775 146.45 152.991 146.706 153.141C146.961 153.287 147.258 153.361 147.597 153.361C147.817 153.361 148.016 153.33 148.194 153.268C148.373 153.205 148.529 153.11 148.659 152.984C148.789 152.857 148.89 152.698 148.961 152.509L149.77 152.736C149.685 153.01 149.542 153.252 149.341 153.46C149.139 153.666 148.891 153.827 148.595 153.943C148.299 154.057 147.966 154.114 147.597 154.114ZM151.968 146.727V154H151.13V146.727H151.968ZM153.503 154V148.545H154.341V154H153.503ZM153.93 147.636C153.766 147.636 153.625 147.581 153.507 147.469C153.391 147.358 153.333 147.224 153.333 147.068C153.333 146.912 153.391 146.778 153.507 146.667C153.625 146.556 153.766 146.5 153.93 146.5C154.093 146.5 154.233 146.556 154.349 146.667C154.467 146.778 154.526 146.912 154.526 147.068C154.526 147.224 154.467 147.358 154.349 147.469C154.233 147.581 154.093 147.636 153.93 147.636ZM160.337 148.545L158.32 154H157.467L155.45 148.545H156.359L157.865 152.892H157.922L159.428 148.545H160.337ZM163.534 154.114C163.009 154.114 162.556 153.998 162.174 153.766C161.796 153.531 161.503 153.205 161.297 152.786C161.094 152.364 160.992 151.874 160.992 151.315C160.992 150.757 161.094 150.264 161.297 149.838C161.503 149.41 161.79 149.076 162.157 148.837C162.526 148.595 162.957 148.474 163.449 148.474C163.733 148.474 164.014 148.522 164.291 148.616C164.568 148.711 164.82 148.865 165.047 149.078C165.275 149.289 165.456 149.568 165.591 149.916C165.725 150.264 165.793 150.693 165.793 151.202V151.557H161.588V150.832H164.941C164.941 150.525 164.879 150.25 164.756 150.009C164.635 149.767 164.462 149.576 164.238 149.437C164.015 149.297 163.752 149.227 163.449 149.227C163.115 149.227 162.827 149.31 162.583 149.476C162.341 149.639 162.155 149.852 162.025 150.115C161.895 150.378 161.83 150.66 161.83 150.96V151.443C161.83 151.855 161.901 152.204 162.043 152.491C162.187 152.775 162.387 152.991 162.643 153.141C162.899 153.287 163.196 153.361 163.534 153.361C163.755 153.361 163.953 153.33 164.131 153.268C164.311 153.205 164.466 153.11 164.596 152.984C164.726 152.857 164.827 152.698 164.898 152.509L165.708 152.736C165.623 153.01 165.479 153.252 165.278 153.46C165.077 153.666 164.828 153.827 164.532 153.943C164.236 154.057 163.904 154.114 163.534 154.114ZM167.068 154V148.545H167.877V149.369H167.934C168.034 149.099 168.214 148.88 168.474 148.712C168.734 148.544 169.028 148.46 169.355 148.46C169.416 148.46 169.493 148.461 169.586 148.464C169.678 148.466 169.748 148.47 169.795 148.474V149.327C169.767 149.32 169.702 149.309 169.6 149.295C169.5 149.278 169.395 149.27 169.284 149.27C169.019 149.27 168.782 149.326 168.574 149.437C168.368 149.546 168.204 149.697 168.083 149.891C167.965 150.083 167.906 150.302 167.906 150.548V154H167.068ZM171.494 156.045C171.352 156.045 171.226 156.034 171.114 156.01C171.003 155.989 170.926 155.967 170.884 155.946L171.097 155.207C171.3 155.259 171.48 155.278 171.636 155.264C171.793 155.25 171.931 155.18 172.052 155.055C172.175 154.932 172.287 154.732 172.389 154.455L172.545 154.028L170.528 148.545H171.438L172.943 152.892H173L174.506 148.545H175.415L173.099 154.795C172.995 155.077 172.866 155.31 172.712 155.495C172.558 155.682 172.38 155.821 172.176 155.911C171.975 156 171.748 156.045 171.494 156.045ZM181.777 154.099C181.308 154.099 180.89 154.019 180.523 153.858C180.158 153.697 179.868 153.473 179.653 153.187C179.44 152.898 179.324 152.563 179.305 152.182H180.2C180.219 152.416 180.299 152.619 180.441 152.789C180.583 152.957 180.769 153.087 180.999 153.18C181.229 153.272 181.483 153.318 181.762 153.318C182.075 153.318 182.352 153.264 182.593 153.155C182.835 153.046 183.024 152.894 183.162 152.7C183.299 152.506 183.368 152.281 183.368 152.026C183.368 151.758 183.301 151.522 183.169 151.319C183.036 151.113 182.842 150.952 182.586 150.836C182.331 150.72 182.018 150.662 181.649 150.662H181.066V149.881H181.649C181.938 149.881 182.191 149.829 182.409 149.724C182.629 149.62 182.801 149.473 182.924 149.284C183.049 149.095 183.112 148.872 183.112 148.616C183.112 148.37 183.057 148.156 182.949 147.974C182.84 147.791 182.686 147.649 182.487 147.548C182.29 147.446 182.058 147.395 181.791 147.395C181.54 147.395 181.303 147.441 181.081 147.533C180.86 147.623 180.681 147.755 180.541 147.928C180.401 148.098 180.325 148.304 180.314 148.545H179.461C179.475 148.164 179.59 147.83 179.806 147.544C180.021 147.255 180.303 147.03 180.651 146.869C181.001 146.708 181.386 146.628 181.805 146.628C182.255 146.628 182.641 146.719 182.963 146.901C183.285 147.081 183.532 147.319 183.705 147.615C183.878 147.911 183.964 148.231 183.964 148.574C183.964 148.983 183.856 149.333 183.641 149.621C183.428 149.91 183.138 150.11 182.771 150.222V150.278C183.23 150.354 183.589 150.549 183.847 150.864C184.105 151.177 184.234 151.564 184.234 152.026C184.234 152.421 184.126 152.776 183.911 153.091C183.698 153.403 183.407 153.65 183.037 153.83C182.668 154.009 182.248 154.099 181.777 154.099Z" fill="#222222"/>
</svg>
