<svg width="288" height="40" viewBox="0 0 288 40" fill="none" xmlns="http://www.w3.org/2000/svg">
<rect width="288" height="40" fill="var(--colors-neutral-neutral-300)"/>
<path d="M17.1186 15.3182H18.983L22.2244 23.233H22.3438L25.5852 15.3182H27.4496V25.5H25.9879V18.1321H25.8935L22.8906 25.4851H21.6776L18.6747 18.1271H18.5803V25.5H17.1186V15.3182ZM29.5637 25.5V17.8636H31.0502V25.5H29.5637ZM30.3145 16.6854C30.0559 16.6854 29.8339 16.5992 29.6483 16.4268C29.466 16.2512 29.3748 16.0424 29.3748 15.8004C29.3748 15.5552 29.466 15.3464 29.6483 15.174C29.8339 14.9983 30.0559 14.9105 30.3145 14.9105C30.573 14.9105 30.7934 14.9983 30.9757 15.174C31.1613 15.3464 31.2541 15.5552 31.2541 15.8004C31.2541 16.0424 31.1613 16.2512 30.9757 16.4268C30.7934 16.5992 30.573 16.6854 30.3145 16.6854ZM38.7724 19.728L37.4251 19.9666C37.3687 19.7943 37.2792 19.6302 37.1566 19.4744C37.0373 19.3187 36.8749 19.1911 36.6694 19.0916C36.4639 18.9922 36.207 18.9425 35.8988 18.9425C35.4779 18.9425 35.1265 19.0369 34.8448 19.2259C34.5631 19.4115 34.4222 19.6518 34.4222 19.9467C34.4222 20.2019 34.5167 20.4074 34.7056 20.5632C34.8945 20.719 35.1995 20.8466 35.6204 20.946L36.8335 21.2244C37.5361 21.3868 38.0598 21.6371 38.4045 21.9751C38.7492 22.3132 38.9215 22.7524 38.9215 23.2926C38.9215 23.75 38.7889 24.1577 38.5238 24.5156C38.262 24.8703 37.8957 25.1487 37.4251 25.3509C36.9577 25.553 36.4158 25.6541 35.7994 25.6541C34.9442 25.6541 34.2466 25.4718 33.7063 25.1072C33.1661 24.7393 32.8346 24.2173 32.712 23.5412L34.1488 23.3224C34.2383 23.697 34.4222 23.9804 34.7006 24.1726C34.979 24.3615 35.342 24.456 35.7894 24.456C36.2766 24.456 36.6661 24.3549 36.9577 24.1527C37.2494 23.9472 37.3952 23.697 37.3952 23.402C37.3952 23.1634 37.3058 22.9628 37.1268 22.8004C36.9511 22.638 36.681 22.5154 36.3164 22.4325L35.0238 22.1491C34.3112 21.9867 33.7842 21.7282 33.4428 21.3736C33.1048 21.0189 32.9357 20.5698 32.9357 20.0263C32.9357 19.5755 33.0617 19.1811 33.3136 18.843C33.5655 18.505 33.9135 18.2415 34.3576 18.0526C34.8017 17.8603 35.3105 17.7642 35.8839 17.7642C36.7092 17.7642 37.3588 17.9432 37.8327 18.3011C38.3067 18.6558 38.6199 19.1314 38.7724 19.728ZM46.2782 19.728L44.9309 19.9666C44.8746 19.7943 44.7851 19.6302 44.6625 19.4744C44.5431 19.3187 44.3807 19.1911 44.1752 19.0916C43.9698 18.9922 43.7129 18.9425 43.4047 18.9425C42.9837 18.9425 42.6324 19.0369 42.3507 19.2259C42.069 19.4115 41.9281 19.6518 41.9281 19.9467C41.9281 20.2019 42.0225 20.4074 42.2115 20.5632C42.4004 20.719 42.7053 20.8466 43.1262 20.946L44.3393 21.2244C45.042 21.3868 45.5656 21.6371 45.9103 21.9751C46.255 22.3132 46.4274 22.7524 46.4274 23.2926C46.4274 23.75 46.2948 24.1577 46.0297 24.5156C45.7678 24.8703 45.4016 25.1487 44.9309 25.3509C44.4636 25.553 43.9217 25.6541 43.3052 25.6541C42.4501 25.6541 41.7524 25.4718 41.2122 25.1072C40.6719 24.7393 40.3405 24.2173 40.2179 23.5412L41.6547 23.3224C41.7441 23.697 41.9281 23.9804 42.2065 24.1726C42.4849 24.3615 42.8478 24.456 43.2953 24.456C43.7825 24.456 44.1719 24.3549 44.4636 24.1527C44.7553 23.9472 44.9011 23.697 44.9011 23.402C44.9011 23.1634 44.8116 22.9628 44.6326 22.8004C44.457 22.638 44.1868 22.5154 43.8223 22.4325L42.5297 22.1491C41.8171 21.9867 41.2901 21.7282 40.9487 21.3736C40.6106 21.0189 40.4416 20.5698 40.4416 20.0263C40.4416 19.5755 40.5675 19.1811 40.8194 18.843C41.0713 18.505 41.4193 18.2415 41.8635 18.0526C42.3076 17.8603 42.8163 17.7642 43.3897 17.7642C44.215 17.7642 44.8646 17.9432 45.3386 18.3011C45.8126 18.6558 46.1258 19.1314 46.2782 19.728ZM48.0618 25.5V17.8636H49.5483V25.5H48.0618ZM48.8125 16.6854C48.554 16.6854 48.3319 16.5992 48.1463 16.4268C47.964 16.2512 47.8729 16.0424 47.8729 15.8004C47.8729 15.5552 47.964 15.3464 48.1463 15.174C48.3319 14.9983 48.554 14.9105 48.8125 14.9105C49.071 14.9105 49.2914 14.9983 49.4737 15.174C49.6593 15.3464 49.7521 15.5552 49.7521 15.8004C49.7521 16.0424 49.6593 16.2512 49.4737 16.4268C49.2914 16.5992 49.071 16.6854 48.8125 16.6854ZM53.0346 20.9659V25.5H51.5481V17.8636H52.975V19.1065H53.0694C53.2451 18.7022 53.5202 18.3774 53.8947 18.1321C54.2725 17.8868 54.7482 17.7642 55.3216 17.7642C55.8419 17.7642 56.2976 17.8736 56.6887 18.0923C57.0798 18.3078 57.3831 18.6293 57.5985 19.0568C57.814 19.4844 57.9217 20.013 57.9217 20.6428V25.5H56.4352V20.8217C56.4352 20.2682 56.291 19.8357 56.0027 19.5241C55.7143 19.2093 55.3182 19.0518 54.8145 19.0518C54.4698 19.0518 54.1632 19.1264 53.8947 19.2756C53.6296 19.4247 53.4191 19.6435 53.2633 19.9318C53.1109 20.2169 53.0346 20.5616 53.0346 20.9659ZM63.117 28.5227C62.5105 28.5227 61.9885 28.4432 61.551 28.2841C61.1168 28.125 60.7621 27.9145 60.487 27.6527C60.2119 27.3909 60.0065 27.1042 59.8706 26.7926L61.1483 26.2656C61.2377 26.4115 61.3571 26.5656 61.5062 26.728C61.6587 26.8937 61.8642 27.0346 62.1227 27.1506C62.3845 27.2666 62.7209 27.3246 63.1319 27.3246C63.6954 27.3246 64.161 27.187 64.5289 26.9119C64.8968 26.6402 65.0808 26.206 65.0808 25.6094V24.108H64.9863C64.8968 24.2704 64.7676 24.451 64.5985 24.6499C64.4328 24.8487 64.2041 25.0211 63.9125 25.1669C63.6208 25.3127 63.2413 25.3857 62.774 25.3857C62.1708 25.3857 61.6272 25.2448 61.1433 24.9631C60.6627 24.678 60.2815 24.2588 59.9998 23.7053C59.7214 23.1484 59.5822 22.464 59.5822 21.652C59.5822 20.84 59.7198 20.1439 59.9949 19.5639C60.2733 18.9839 60.6544 18.5398 61.1383 18.2315C61.6222 17.92 62.1708 17.7642 62.7839 17.7642C63.2579 17.7642 63.6407 17.8438 63.9324 18.0028C64.224 18.1586 64.4511 18.3409 64.6135 18.5497C64.7792 18.7585 64.9068 18.9425 64.9963 19.1016H65.1056V17.8636H66.5623V25.669C66.5623 26.3253 66.4099 26.8639 66.1049 27.2848C65.8 27.7057 65.3874 28.0173 64.867 28.2195C64.35 28.4216 63.7666 28.5227 63.117 28.5227ZM63.1021 24.1527C63.5297 24.1527 63.8909 24.0533 64.1859 23.8544C64.4842 23.6522 64.7096 23.3639 64.862 22.9893C65.0178 22.6115 65.0957 22.1591 65.0957 21.6321C65.0957 21.1184 65.0195 20.666 64.867 20.2749C64.7145 19.8838 64.4908 19.5788 64.1958 19.3601C63.9009 19.138 63.5363 19.027 63.1021 19.027C62.6547 19.027 62.2818 19.143 61.9835 19.375C61.6852 19.6037 61.4598 19.9152 61.3074 20.3097C61.1582 20.7041 61.0836 21.1449 61.0836 21.6321C61.0836 22.1326 61.1599 22.5717 61.3123 22.9496C61.4648 23.3274 61.6902 23.6224 61.9885 23.8345C62.2901 24.0466 62.6613 24.1527 63.1021 24.1527ZM75.5522 25.6541C74.7998 25.6541 74.1519 25.4934 73.6083 25.1719C73.0681 24.8471 72.6504 24.3913 72.3555 23.8047C72.0638 23.2147 71.918 22.5237 71.918 21.7315C71.918 20.9493 72.0638 20.2599 72.3555 19.6634C72.6504 19.0668 73.0614 18.6011 73.5884 18.2663C74.1187 17.9316 74.7385 17.7642 75.4478 17.7642C75.8787 17.7642 76.2963 17.8355 76.7006 17.978C77.105 18.1205 77.4679 18.3442 77.7894 18.6491C78.1109 18.9541 78.3645 19.3501 78.5501 19.8374C78.7357 20.3213 78.8285 20.9096 78.8285 21.6023V22.1293H72.7582V21.0156H77.3718C77.3718 20.6245 77.2923 20.2782 77.1332 19.9766C76.9741 19.6716 76.7504 19.4313 76.462 19.2557C76.177 19.08 75.8422 18.9922 75.4577 18.9922C75.0401 18.9922 74.6755 19.0949 74.364 19.3004C74.0558 19.5026 73.8171 19.7678 73.6481 20.0959C73.4824 20.4207 73.3995 20.7737 73.3995 21.1548V22.0249C73.3995 22.5353 73.489 22.9695 73.668 23.3274C73.8503 23.6854 74.1038 23.9588 74.4286 24.1477C74.7534 24.3333 75.1329 24.4261 75.5671 24.4261C75.8488 24.4261 76.1057 24.3864 76.3377 24.3068C76.5697 24.224 76.7702 24.1013 76.9393 23.9389C77.1083 23.7765 77.2376 23.576 77.3271 23.3374L78.734 23.5909C78.6213 24.0052 78.4192 24.3681 78.1275 24.6797C77.8391 24.9879 77.4762 25.2282 77.0387 25.4006C76.6045 25.5696 76.109 25.6541 75.5522 25.6541ZM81.9643 15.3182V25.5H80.4778V15.3182H81.9643ZM87.2553 25.6541C86.503 25.6541 85.855 25.4934 85.3114 25.1719C84.7712 24.8471 84.3536 24.3913 84.0586 23.8047C83.7669 23.2147 83.6211 22.5237 83.6211 21.7315C83.6211 20.9493 83.7669 20.2599 84.0586 19.6634C84.3536 19.0668 84.7646 18.6011 85.2915 18.2663C85.8219 17.9316 86.4416 17.7642 87.1509 17.7642C87.5818 17.7642 87.9994 17.8355 88.4038 17.978C88.8081 18.1205 89.171 18.3442 89.4925 18.6491C89.814 18.9541 90.0676 19.3501 90.2532 19.8374C90.4388 20.3213 90.5316 20.9096 90.5316 21.6023V22.1293H84.4613V21.0156H89.0749C89.0749 20.6245 88.9954 20.2782 88.8363 19.9766C88.6772 19.6716 88.4535 19.4313 88.1651 19.2557C87.8801 19.08 87.5453 18.9922 87.1609 18.9922C86.7433 18.9922 86.3787 19.0949 86.0671 19.3004C85.7589 19.5026 85.5202 19.7678 85.3512 20.0959C85.1855 20.4207 85.1026 20.7737 85.1026 21.1548V22.0249C85.1026 22.5353 85.1921 22.9695 85.3711 23.3274C85.5534 23.6854 85.8069 23.9588 86.1317 24.1477C86.4566 24.3333 86.8361 24.4261 87.2702 24.4261C87.552 24.4261 87.8088 24.3864 88.0408 24.3068C88.2728 24.224 88.4734 24.1013 88.6424 23.9389C88.8114 23.7765 88.9407 23.576 89.0302 23.3374L90.4371 23.5909C90.3245 24.0052 90.1223 24.3681 89.8306 24.6797C89.5423 24.9879 89.1793 25.2282 88.7418 25.4006C88.3076 25.5696 87.8121 25.6541 87.2553 25.6541ZM92.1809 25.5V17.8636H93.6078V19.1065H93.7022C93.8613 18.6856 94.1215 18.3575 94.4828 18.1222C94.844 17.8835 95.2766 17.7642 95.7804 17.7642C96.2908 17.7642 96.7183 17.8835 97.063 18.1222C97.411 18.3608 97.6679 18.6889 97.8336 19.1065H97.9132C98.0955 18.6989 98.3855 18.3741 98.7832 18.1321C99.1809 17.8868 99.6549 17.7642 100.205 17.7642C100.898 17.7642 101.463 17.9813 101.9 18.4155C102.341 18.8497 102.562 19.5043 102.562 20.3793V25.5H101.075V20.5185C101.075 20.0014 100.934 19.6269 100.653 19.3949C100.371 19.1629 100.034 19.0469 99.6433 19.0469C99.1594 19.0469 98.7832 19.196 98.5147 19.4943C98.2463 19.7893 98.112 20.1688 98.112 20.6328V25.5H96.6305V20.424C96.6305 20.0097 96.5012 19.6766 96.2427 19.4247C95.9842 19.1728 95.6478 19.0469 95.2335 19.0469C94.9518 19.0469 94.6916 19.1214 94.4529 19.2706C94.2176 19.4164 94.027 19.6203 93.8812 19.8821C93.7387 20.1439 93.6674 20.4472 93.6674 20.7919V25.5H92.1809ZM107.845 25.6541C107.093 25.6541 106.445 25.4934 105.901 25.1719C105.361 24.8471 104.943 24.3913 104.648 23.8047C104.357 23.2147 104.211 22.5237 104.211 21.7315C104.211 20.9493 104.357 20.2599 104.648 19.6634C104.943 19.0668 105.354 18.6011 105.881 18.2663C106.412 17.9316 107.031 17.7642 107.741 17.7642C108.172 17.7642 108.589 17.8355 108.994 17.978C109.398 18.1205 109.761 18.3442 110.082 18.6491C110.404 18.9541 110.657 19.3501 110.843 19.8374C111.029 20.3213 111.121 20.9096 111.121 21.6023V22.1293H105.051V21.0156H109.665C109.665 20.6245 109.585 20.2782 109.426 19.9766C109.267 19.6716 109.043 19.4313 108.755 19.2557C108.47 19.08 108.135 18.9922 107.751 18.9922C107.333 18.9922 106.969 19.0949 106.657 19.3004C106.349 19.5026 106.11 19.7678 105.941 20.0959C105.775 20.4207 105.692 20.7737 105.692 21.1548V22.0249C105.692 22.5353 105.782 22.9695 105.961 23.3274C106.143 23.6854 106.397 23.9588 106.722 24.1477C107.046 24.3333 107.426 24.4261 107.86 24.4261C108.142 24.4261 108.399 24.3864 108.631 24.3068C108.863 24.224 109.063 24.1013 109.232 23.9389C109.401 23.7765 109.531 23.576 109.62 23.3374L111.027 23.5909C110.914 24.0052 110.712 24.3681 110.42 24.6797C110.132 24.9879 109.769 25.2282 109.332 25.4006C108.897 25.5696 108.402 25.6541 107.845 25.6541ZM114.257 20.9659V25.5H112.771V17.8636H114.198V19.1065H114.292C114.468 18.7022 114.743 18.3774 115.117 18.1321C115.495 17.8868 115.971 17.7642 116.544 17.7642C117.065 17.7642 117.52 17.8736 117.911 18.0923C118.302 18.3078 118.606 18.6293 118.821 19.0568C119.037 19.4844 119.144 20.013 119.144 20.6428V25.5H117.658V20.8217C117.658 20.2682 117.514 19.8357 117.225 19.5241C116.937 19.2093 116.541 19.0518 116.037 19.0518C115.692 19.0518 115.386 19.1264 115.117 19.2756C114.852 19.4247 114.642 19.6435 114.486 19.9318C114.334 20.2169 114.257 20.5616 114.257 20.9659ZM124.703 17.8636V19.0568H120.531V17.8636H124.703ZM121.65 16.0341H123.137V23.2578C123.137 23.5462 123.18 23.7633 123.266 23.9091C123.352 24.0516 123.463 24.1494 123.599 24.2024C123.738 24.2521 123.889 24.277 124.051 24.277C124.171 24.277 124.275 24.2687 124.365 24.2521C124.454 24.2356 124.524 24.2223 124.573 24.2124L124.842 25.4403C124.756 25.4735 124.633 25.5066 124.474 25.5398C124.315 25.5762 124.116 25.5961 123.877 25.5994C123.486 25.6061 123.122 25.5365 122.784 25.3906C122.445 25.2448 122.172 25.0194 121.963 24.7145C121.754 24.4096 121.65 24.0268 121.65 23.5661V16.0341ZM131.946 19.728L130.599 19.9666C130.543 19.7943 130.453 19.6302 130.33 19.4744C130.211 19.3187 130.049 19.1911 129.843 19.0916C129.638 18.9922 129.381 18.9425 129.073 18.9425C128.652 18.9425 128.3 19.0369 128.019 19.2259C127.737 19.4115 127.596 19.6518 127.596 19.9467C127.596 20.2019 127.691 20.4074 127.879 20.5632C128.068 20.719 128.373 20.8466 128.794 20.946L130.007 21.2244C130.71 21.3868 131.234 21.6371 131.578 21.9751C131.923 22.3132 132.095 22.7524 132.095 23.2926C132.095 23.75 131.963 24.1577 131.698 24.5156C131.436 24.8703 131.07 25.1487 130.599 25.3509C130.132 25.553 129.59 25.6541 128.973 25.6541C128.118 25.6541 127.42 25.4718 126.88 25.1072C126.34 24.7393 126.008 24.2173 125.886 23.5412L127.323 23.3224C127.412 23.697 127.596 23.9804 127.874 24.1726C128.153 24.3615 128.516 24.456 128.963 24.456C129.45 24.456 129.84 24.3549 130.132 24.1527C130.423 23.9472 130.569 23.697 130.569 23.402C130.569 23.1634 130.48 22.9628 130.301 22.8004C130.125 22.638 129.855 22.5154 129.49 22.4325L128.198 22.1491C127.485 21.9867 126.958 21.7282 126.617 21.3736C126.279 21.0189 126.11 20.5698 126.11 20.0263C126.11 19.5755 126.235 19.1811 126.487 18.843C126.739 18.505 127.087 18.2415 127.531 18.0526C127.976 17.8603 128.484 17.7642 129.058 17.7642C129.883 17.7642 130.533 17.9432 131.007 18.3011C131.481 18.6558 131.794 19.1314 131.946 19.728Z" fill="var(--colors-neutral-neutral-800)"/>
<path d="M260 22.7019L254.692 17.3942L255.4 16.6865L260 21.2865L264.6 16.6865L265.308 17.3942L260 22.7019Z" fill="var(--colors-neutral-neutral-800)"/>
</svg>
