<svg width="304" height="32" viewBox="0 0 304 32" fill="none" xmlns="http://www.w3.org/2000/svg">
<path d="M16.52 20L18 13.02H19.06L17.77 19.1H21.43L21.23 20H16.52ZM26.6139 20L26.8239 18.75L27.2939 16.56C27.3606 16.2667 27.3439 16.0133 27.2439 15.8C27.1439 15.5867 26.9806 15.4233 26.7539 15.31C26.5339 15.1967 26.2739 15.14 25.9739 15.14C25.5539 15.14 25.1972 15.2367 24.9039 15.43C24.6106 15.6167 24.4339 15.8933 24.3739 16.26H23.3839C23.4372 15.8733 23.5839 15.54 23.8239 15.26C24.0706 14.98 24.3839 14.7633 24.7639 14.61C25.1439 14.4567 25.5639 14.38 26.0239 14.38C26.5372 14.38 26.9806 14.4733 27.3539 14.66C27.7339 14.8467 28.0072 15.1133 28.1739 15.46C28.3406 15.8 28.3739 16.2067 28.2739 16.68L27.5739 20H26.6139ZM24.9139 20.12C24.5872 20.12 24.2939 20.0567 24.0339 19.93C23.7806 19.7967 23.5806 19.6133 23.4339 19.38C23.2872 19.1467 23.2139 18.88 23.2139 18.58C23.2139 18.16 23.3172 17.8133 23.5239 17.54C23.7372 17.2667 24.0272 17.0633 24.3939 16.93C24.7606 16.7967 25.1772 16.73 25.6439 16.73H27.3939L27.2339 17.48H25.6039C25.1839 17.48 24.8506 17.57 24.6039 17.75C24.3639 17.93 24.2439 18.1733 24.2439 18.48C24.2439 18.7333 24.3272 18.9333 24.4939 19.08C24.6606 19.22 24.8772 19.29 25.1439 19.29C25.5306 19.29 25.8806 19.18 26.1939 18.96C26.5072 18.7333 26.7906 18.4267 27.0439 18.04L27.0239 18.81C26.7639 19.2433 26.4639 19.57 26.1239 19.79C25.7906 20.01 25.3872 20.12 24.9139 20.12ZM32.8978 14.38C33.3245 14.38 33.6978 14.47 34.0178 14.65C34.3445 14.8233 34.5978 15.0767 34.7778 15.41C34.9578 15.7367 35.0478 16.1267 35.0478 16.58C35.0478 17.12 34.9711 17.6067 34.8178 18.04C34.6711 18.4733 34.4611 18.8467 34.1878 19.16C33.9211 19.4667 33.6045 19.7033 33.2378 19.87C32.8778 20.0367 32.4811 20.12 32.0478 20.12C31.6811 20.12 31.3445 20.04 31.0378 19.88C30.7311 19.7133 30.4911 19.4967 30.3178 19.23L30.1178 20H29.1678L30.7278 12.65H31.7278L31.1978 15.18C31.4311 14.9 31.6978 14.6967 31.9978 14.57C32.2978 14.4433 32.5978 14.38 32.8978 14.38ZM31.9878 19.27C32.3545 19.27 32.6911 19.1633 32.9978 18.95C33.3045 18.7367 33.5478 18.4367 33.7278 18.05C33.9145 17.6633 34.0078 17.2067 34.0078 16.68C34.0078 16.2333 33.8945 15.88 33.6678 15.62C33.4411 15.36 33.1178 15.23 32.6978 15.23C32.3045 15.23 31.9678 15.3333 31.6878 15.54C31.4078 15.74 31.1611 16.01 30.9478 16.35L30.5478 18.22C30.6545 18.5333 30.8345 18.7867 31.0878 18.98C31.3478 19.1733 31.6478 19.27 31.9878 19.27ZM38.4817 20.12C37.9884 20.12 37.5551 20.0233 37.1817 19.83C36.8151 19.63 36.5284 19.3533 36.3217 19C36.1217 18.64 36.0217 18.2267 36.0217 17.76C36.0217 17.28 36.0917 16.8367 36.2317 16.43C36.3784 16.0167 36.5851 15.6567 36.8517 15.35C37.1184 15.0433 37.4417 14.8067 37.8217 14.64C38.2084 14.4667 38.6417 14.38 39.1217 14.38C39.6551 14.38 40.1084 14.4933 40.4817 14.72C40.8551 14.9467 41.1217 15.2667 41.2817 15.68C41.4484 16.0867 41.4784 16.57 41.3717 17.13H36.8717L37.0417 16.37L40.4117 16.38C40.4117 16.0267 40.2984 15.7433 40.0717 15.53C39.8451 15.3167 39.5151 15.21 39.0817 15.21C38.6084 15.21 38.2217 15.33 37.9217 15.57C37.6217 15.8033 37.4017 16.11 37.2617 16.49C37.1217 16.87 37.0517 17.2767 37.0517 17.71C37.0517 18.03 37.1117 18.3067 37.2317 18.54C37.3584 18.7733 37.5317 18.9567 37.7517 19.09C37.9784 19.2167 38.2384 19.28 38.5317 19.28C39.0184 19.28 39.4017 19.1733 39.6817 18.96C39.9684 18.7467 40.1684 18.47 40.2817 18.13H41.2917C41.1651 18.5367 40.9784 18.89 40.7317 19.19C40.4917 19.4833 40.1851 19.7133 39.8117 19.88C39.4451 20.04 39.0017 20.12 38.4817 20.12ZM44.1756 20L45.7356 12.65H46.7456L45.1856 20H44.1756ZM42.1556 20L42.3256 19.18H47.4056L47.2356 20H42.1556ZM44.2656 13.47L44.4356 12.65H46.2456L46.0656 13.47H44.2656Z" fill="#222222"/>
</svg>
