<svg width="192" height="124" viewBox="0 0 192 124" fill="none" xmlns="http://www.w3.org/2000/svg">
<path d="M192 124L0 124L1.47869e-06 0L192 2.28958e-06L192 124Z" fill="#F6EDFD"/>
<rect x="30" y="96" width="24" height="50" transform="rotate(-90 30 96)" fill="#DACCE5"/>
<rect x="30" y="52" width="24" height="50" transform="rotate(-90 30 52)" fill="#DACCE5"/>
<rect x="112" y="96" width="24" height="50" transform="rotate(-90 112 96)" fill="#DACCE5"/>
<rect x="112" y="52" width="24" height="50" transform="rotate(-90 112 52)" fill="#DACCE5"/>
<path d="M55.1768 55.8232C55.0791 55.7256 54.9209 55.7256 54.8232 55.8232L53.2322 57.4142C53.1346 57.5118 53.1346 57.6701 53.2322 57.7678C53.3299 57.8654 53.4882 57.8654 53.5858 57.7678L55 56.3536L56.4142 57.7678C56.5118 57.8654 56.6701 57.8654 56.7678 57.7678C56.8654 57.6701 56.8654 57.5118 56.7678 57.4142L55.1768 55.8232ZM54.8232 68.1768C54.9209 68.2744 55.0791 68.2744 55.1768 68.1768L56.7678 66.5858C56.8654 66.4882 56.8654 66.3299 56.7678 66.2322C56.6701 66.1346 56.5118 66.1346 56.4142 66.2322L55 67.6464L53.5858 66.2322C53.4882 66.1346 53.3299 66.1346 53.2322 66.2322C53.1346 66.3299 53.1346 66.4882 53.2322 66.5858L54.8232 68.1768ZM54.75 56L54.75 68L55.25 68L55.25 56L54.75 56Z" fill="#222222"/>
<path d="M137.177 55.8232C137.079 55.7256 136.921 55.7256 136.823 55.8232L135.232 57.4142C135.135 57.5118 135.135 57.6701 135.232 57.7678C135.33 57.8654 135.488 57.8654 135.586 57.7678L137 56.3536L138.414 57.7678C138.512 57.8654 138.67 57.8654 138.768 57.7678C138.865 57.6701 138.865 57.5118 138.768 57.4142L137.177 55.8232ZM136.823 68.1768C136.921 68.2744 137.079 68.2744 137.177 68.1768L138.768 66.5858C138.865 66.4882 138.865 66.3299 138.768 66.2322C138.67 66.1346 138.512 66.1346 138.414 66.2322L137 67.6464L135.586 66.2322C135.488 66.1346 135.33 66.1346 135.232 66.2322C135.135 66.3299 135.135 66.4882 135.232 66.5858L136.823 68.1768ZM136.75 56L136.75 68L137.25 68L137.25 56L136.75 56Z" fill="#222222"/>
</svg>
