<svg width="280" height="280" viewBox="0 0 280 280" fill="none" xmlns="http://www.w3.org/2000/svg">
<rect width="280" height="280" fill="white"/>
<path d="M191.629 171.568L165.39 152.058H89.03L114.932 171.568H191.629Z" fill="var(--colors-neutral-neutral-400)"/>
<path d="M163.708 151.721V109H89.03V151.721H163.708Z" fill="white"/>
<path d="M192.302 171.905V127.838L165.391 109V152.058L192.302 171.905Z" fill="var(--colors-neutral-neutral-200)"/>
<path d="M88.6953 109H165.392M88.6953 109V152.058M88.6953 109L114.934 127.838M165.392 109L192.303 127.838M165.392 109V152.058M192.303 127.838V171.905M192.303 127.838H114.934M192.303 171.905H114.934M192.303 171.905L165.392 152.058M114.934 171.905L88.6953 152.058M114.934 171.905V127.838M88.6953 152.058H165.392" stroke="var(--colors-neutral-neutral-500)" stroke-width="0.672779"/>
<path d="M268.541 171.568L242.303 152.058H165.943L191.845 171.568H268.541Z" fill="var(--colors-neutral-neutral-400)"/>
<path d="M240.621 151.721V109H165.943V151.721H240.621Z" fill="white"/>
<path d="M269.213 171.905V127.838L242.302 109V152.058L269.213 171.905Z" fill="var(--colors-neutral-neutral-200)"/>
<path d="M165.607 109H242.304M165.607 109V152.058M165.607 109L191.845 127.838M242.304 109L269.215 127.838M242.304 109V152.058M269.215 127.838V171.905M269.215 127.838H191.845M269.215 171.905H191.845M269.215 171.905L242.304 152.058M191.845 171.905L165.607 152.058M191.845 171.905V127.838M165.607 152.058H242.304" stroke="var(--colors-neutral-neutral-500)" stroke-width="0.672779"/>
<path d="M114.935 171.568L88.6964 152.058H12.3359L38.2379 171.568H114.935Z" fill="var(--colors-neutral-neutral-500)"/>
<path d="M87.0144 151.721V109H12.3359V151.721H87.0144Z" fill="white"/>
<path d="M115.606 171.905V127.838L88.6953 109V152.058L115.606 171.905Z" fill="var(--colors-neutral-neutral-200)"/>
<path d="M12 109H88.6968M12 109V152.058M12 109L38.2384 127.838M88.6968 109L115.608 127.838M88.6968 109V152.058M115.608 127.838V171.905M115.608 127.838H38.2384M115.608 171.905H38.2384M115.608 171.905L88.6968 152.058M38.2384 171.905L12 152.058M38.2384 171.905V127.838M12 152.058H88.6968" stroke="var(--colors-neutral-neutral-800)" stroke-width="0.672779"/>
<path d="M165.354 96.3536C165.549 96.1583 165.549 95.8417 165.354 95.6464L162.172 92.4645C161.976 92.2692 161.66 92.2692 161.464 92.4645C161.269 92.6597 161.269 92.9763 161.464 93.1716L164.293 96L161.464 98.8284C161.269 99.0237 161.269 99.3403 161.464 99.5355C161.66 99.7308 161.976 99.7308 162.172 99.5355L165.354 96.3536ZM12 96.5H165V95.5H12V96.5Z" fill="var(--colors-neutral-neutral-800)"/>
</svg>
