<svg width="24" height="24" viewBox="0 0 24 24" fill="none" xmlns="http://www.w3.org/2000/svg">
<path fill-rule="evenodd" clip-rule="evenodd" d="M3.5 4.5C3.22386 4.5 3 4.72386 3 5V7.5H6V4.5H3.5ZM3.5 3.5C2.67157 3.5 2 4.17157 2 5V19C2 19.8284 2.67157 20.5 3.5 20.5H20.5C21.3284 20.5 22 19.8284 22 19V5C22 4.17157 21.3284 3.5 20.5 3.5H3.5ZM7 4.5V7.5H11.5V4.5H7ZM12.5 4.5V7.5H17V4.5H12.5ZM18 4.5V7.5H21V5C21 4.72386 20.7761 4.5 20.5 4.5H18ZM21 8.5H16V11.5H21V8.5ZM21 12.5H18V15.5H21V12.5ZM21 16.5H16V19.5H20.5C20.7761 19.5 21 19.2761 21 19V16.5ZM15 19.5V16.5H9V19.5H15ZM8 19.5V16.5H3V19C3 19.2761 3.22386 19.5 3.5 19.5H8ZM3 15.5H6V12.5H3V15.5ZM3 11.5H8V8.5H3V11.5ZM9 8.5V11.5H15V8.5H9ZM12.5 12.5V15.5H17V12.5H12.5ZM11.5 15.5V12.5H7V15.5H11.5Z" fill="var(--colors-neutral-neutral-600)"/>
</svg>
