<svg width="304" height="64" viewBox="0 0 304 64" fill="none" xmlns="http://www.w3.org/2000/svg">
<path d="M17.179 12.2273L19.3381 18.3494H19.4233L21.5824 12.2273H22.5057L19.8352 19.5H18.9261L16.2557 12.2273H17.179ZM25.304 19.6136C24.7784 19.6136 24.325 19.4976 23.9439 19.2656C23.5651 19.0312 23.2727 18.7045 23.0668 18.2855C22.8632 17.8641 22.7614 17.3741 22.7614 16.8153C22.7614 16.2566 22.8632 15.7642 23.0668 15.3381C23.2727 14.9096 23.5592 14.5758 23.9261 14.3366C24.2955 14.0952 24.7263 13.9744 25.2188 13.9744C25.5028 13.9744 25.7834 14.0218 26.0604 14.1165C26.3374 14.2112 26.5895 14.3651 26.8168 14.5781C27.044 14.7888 27.2251 15.0682 27.3601 15.4162C27.495 15.7642 27.5625 16.1927 27.5625 16.7017V17.0568H23.358V16.3324H26.7102C26.7102 16.0246 26.6487 15.75 26.5256 15.5085C26.4048 15.267 26.232 15.0765 26.0071 14.9368C25.7846 14.7971 25.5218 14.7273 25.2188 14.7273C24.8849 14.7273 24.5961 14.8101 24.3523 14.9759C24.1108 15.1392 23.925 15.3523 23.7947 15.6151C23.6645 15.8778 23.5994 16.1596 23.5994 16.4602V16.9432C23.5994 17.3551 23.6705 17.7043 23.8125 17.9908C23.9569 18.2749 24.157 18.4915 24.4126 18.6406C24.6683 18.7874 24.9654 18.8608 25.304 18.8608C25.5241 18.8608 25.723 18.83 25.9006 18.7685C26.0805 18.7045 26.2356 18.6098 26.3658 18.4844C26.496 18.3565 26.5966 18.1979 26.6676 18.0085L27.4773 18.2358C27.392 18.5104 27.2488 18.7519 27.0476 18.9602C26.8464 19.1662 26.5978 19.3272 26.3018 19.4432C26.0059 19.5568 25.6733 19.6136 25.304 19.6136ZM29.6754 16.2188V19.5H28.8374V12.2273H29.6754V14.8977H29.7464C29.8743 14.616 30.0661 14.3923 30.3217 14.2266C30.5798 14.0585 30.9231 13.9744 31.3516 13.9744C31.7232 13.9744 32.0488 14.049 32.3281 14.1982C32.6075 14.3449 32.8241 14.571 32.978 14.8764C33.1342 15.1795 33.2124 15.5653 33.2124 16.0341V19.5H32.3743V16.0909C32.3743 15.6577 32.2618 15.3227 32.0369 15.0859C31.8144 14.8468 31.5054 14.7273 31.1101 14.7273C30.8355 14.7273 30.5893 14.7853 30.3714 14.9013C30.156 15.0173 29.9856 15.1866 29.8601 15.4091C29.737 15.6316 29.6754 15.9015 29.6754 16.2188ZM34.7456 19.5V14.0455H35.5836V19.5H34.7456ZM35.1717 13.1364C35.0083 13.1364 34.8675 13.0807 34.7491 12.9695C34.6331 12.8582 34.5751 12.7244 34.5751 12.5682C34.5751 12.4119 34.6331 12.2782 34.7491 12.1669C34.8675 12.0556 35.0083 12 35.1717 12C35.335 12 35.4747 12.0556 35.5907 12.1669C35.7091 12.2782 35.7683 12.4119 35.7683 12.5682C35.7683 12.7244 35.7091 12.8582 35.5907 12.9695C35.4747 13.0807 35.335 13.1364 35.1717 13.1364ZM39.3345 19.6136C38.8232 19.6136 38.3828 19.4929 38.0135 19.2514C37.6442 19.0099 37.3601 18.6773 37.1612 18.2536C36.9624 17.8298 36.8629 17.3456 36.8629 16.8011C36.8629 16.2472 36.9647 15.7583 37.1683 15.3345C37.3743 14.9084 37.6607 14.5758 38.0277 14.3366C38.397 14.0952 38.8279 13.9744 39.3203 13.9744C39.7038 13.9744 40.0495 14.0455 40.3572 14.1875C40.665 14.3295 40.9171 14.5284 41.1136 14.7841C41.3101 15.0398 41.4321 15.3381 41.4794 15.679H40.6413C40.5774 15.4304 40.4354 15.2102 40.2152 15.0185C39.9974 14.8243 39.7038 14.7273 39.3345 14.7273C39.0078 14.7273 38.7214 14.8125 38.4751 14.983C38.2313 15.151 38.0407 15.389 37.9034 15.6967C37.7685 16.0021 37.701 16.3608 37.701 16.7727C37.701 17.1941 37.7673 17.5611 37.8999 17.8736C38.0348 18.1861 38.2242 18.4287 38.468 18.6016C38.7143 18.7744 39.0031 18.8608 39.3345 18.8608C39.5523 18.8608 39.75 18.8229 39.9276 18.7472C40.1051 18.6714 40.2554 18.5625 40.3786 18.4205C40.5017 18.2784 40.5893 18.108 40.6413 17.9091H41.4794C41.4321 18.2311 41.3149 18.5211 41.1278 18.7791C40.9432 19.0348 40.6982 19.2384 40.3928 19.3899C40.0897 19.5391 39.737 19.6136 39.3345 19.6136ZM43.5426 12.2273V19.5H42.7045V12.2273H43.5426ZM47.3645 19.6136C46.839 19.6136 46.3856 19.4976 46.0044 19.2656C45.6257 19.0312 45.3333 18.7045 45.1273 18.2855C44.9237 17.8641 44.8219 17.3741 44.8219 16.8153C44.8219 16.2566 44.9237 15.7642 45.1273 15.3381C45.3333 14.9096 45.6197 14.5758 45.9867 14.3366C46.356 14.0952 46.7869 13.9744 47.2793 13.9744C47.5634 13.9744 47.8439 14.0218 48.1209 14.1165C48.3979 14.2112 48.65 14.3651 48.8773 14.5781C49.1046 14.7888 49.2857 15.0682 49.4206 15.4162C49.5556 15.7642 49.623 16.1927 49.623 16.7017V17.0568H45.4185V16.3324H48.7708C48.7708 16.0246 48.7092 15.75 48.5861 15.5085C48.4654 15.267 48.2926 15.0765 48.0676 14.9368C47.8451 14.7971 47.5823 14.7273 47.2793 14.7273C46.9455 14.7273 46.6567 14.8101 46.4128 14.9759C46.1713 15.1392 45.9855 15.3523 45.8553 15.6151C45.7251 15.8778 45.66 16.1596 45.66 16.4602V16.9432C45.66 17.3551 45.731 17.7043 45.873 17.9908C46.0175 18.2749 46.2175 18.4915 46.4732 18.6406C46.7289 18.7874 47.026 18.8608 47.3645 18.8608C47.5847 18.8608 47.7836 18.83 47.9611 18.7685C48.141 18.7045 48.2961 18.6098 48.4263 18.4844C48.5565 18.3565 48.6571 18.1979 48.7282 18.0085L49.5378 18.2358C49.4526 18.5104 49.3094 18.7519 49.1081 18.9602C48.9069 19.1662 48.6583 19.3272 48.3624 19.4432C48.0665 19.5568 47.7338 19.6136 47.3645 19.6136Z" fill="#222222"/>
<path d="M145.179 19.5H144.256L146.926 12.2273H147.835L150.506 19.5H149.582L147.409 13.3778H147.352L145.179 19.5ZM145.52 16.6591H149.241V17.4403H145.52V16.6591ZM152.363 12.2273V19.5H151.525V12.2273H152.363ZM154.736 12.2273V19.5H153.898V12.2273H154.736Z" fill="#222222"/>
<path d="M16.8807 51.5V44.2273H17.7614V50.7188H21.142V51.5H16.8807ZM23.9972 51.6278C23.6515 51.6278 23.3378 51.5627 23.0561 51.4325C22.7744 51.3 22.5507 51.1094 22.3849 50.8608C22.2192 50.6098 22.1364 50.3068 22.1364 49.9517C22.1364 49.6392 22.1979 49.3859 22.321 49.1918C22.4441 48.9953 22.6087 48.8414 22.8146 48.7301C23.0206 48.6188 23.2479 48.536 23.4964 48.4815C23.7474 48.4247 23.9995 48.3797 24.2528 48.3466C24.5843 48.304 24.853 48.272 25.0589 48.2507C25.2673 48.227 25.4188 48.188 25.5135 48.1335C25.6106 48.0791 25.6591 47.9844 25.6591 47.8494V47.821C25.6591 47.4706 25.5632 47.1984 25.3714 47.0043C25.1821 46.8101 24.8944 46.7131 24.5085 46.7131C24.1084 46.7131 23.7947 46.8007 23.5675 46.9759C23.3402 47.151 23.1804 47.3381 23.0881 47.5369L22.2926 47.2528C22.4347 46.9214 22.6241 46.6634 22.8608 46.4787C23.0999 46.2917 23.3603 46.1615 23.642 46.0881C23.9261 46.0123 24.2055 45.9744 24.4801 45.9744C24.6553 45.9744 24.8565 45.9957 25.0838 46.0384C25.3134 46.0786 25.5348 46.1626 25.7479 46.2905C25.9633 46.4183 26.142 46.6113 26.2841 46.8693C26.4261 47.1274 26.4972 47.473 26.4972 47.9062V51.5H25.6591V50.7614H25.6165C25.5597 50.8797 25.465 51.0064 25.3324 51.1413C25.1998 51.2763 25.0234 51.3911 24.8033 51.4858C24.5831 51.5805 24.3144 51.6278 23.9972 51.6278ZM24.125 50.875C24.4564 50.875 24.7358 50.8099 24.9631 50.6797C25.1927 50.5495 25.3655 50.3814 25.4815 50.1754C25.5999 49.9695 25.6591 49.7528 25.6591 49.5256V48.7585C25.6236 48.8011 25.5455 48.8402 25.4247 48.8757C25.3063 48.9089 25.169 48.9384 25.0128 48.9645C24.8589 48.9882 24.7086 49.0095 24.5618 49.0284C24.4174 49.045 24.3002 49.0592 24.2102 49.071C23.9924 49.0994 23.7888 49.1456 23.5994 49.2095C23.4124 49.2711 23.2609 49.3646 23.1449 49.4901C23.0313 49.6132 22.9744 49.7812 22.9744 49.9943C22.9744 50.2855 23.0821 50.5057 23.2976 50.6548C23.5154 50.8016 23.7912 50.875 24.125 50.875ZM28.8649 48.2188V51.5H28.0268V46.0455H28.8365V46.8977H28.9075C29.0353 46.6207 29.2295 46.3982 29.4899 46.2301C29.7503 46.0597 30.0865 45.9744 30.4984 45.9744C30.8677 45.9744 31.1909 46.0502 31.4679 46.2017C31.7449 46.3509 31.9603 46.5781 32.1142 46.8835C32.2681 47.1866 32.345 47.5701 32.345 48.0341V51.5H31.5069V48.0909C31.5069 47.6624 31.3957 47.3286 31.1731 47.0895C30.9506 46.848 30.6452 46.7273 30.2569 46.7273C29.9894 46.7273 29.7503 46.7853 29.5396 46.9013C29.3313 47.0173 29.1667 47.1866 29.046 47.4091C28.9252 47.6316 28.8649 47.9015 28.8649 48.2188ZM36.1634 51.6136C35.6378 51.6136 35.1844 51.4976 34.8033 51.2656C34.4245 51.0312 34.1321 50.7045 33.9261 50.2855C33.7225 49.8641 33.6207 49.3741 33.6207 48.8153C33.6207 48.2566 33.7225 47.7642 33.9261 47.3381C34.1321 46.9096 34.4186 46.5758 34.7855 46.3366C35.1548 46.0952 35.5857 45.9744 36.0781 45.9744C36.3622 45.9744 36.6428 46.0218 36.9197 46.1165C37.1967 46.2112 37.4489 46.3651 37.6761 46.5781C37.9034 46.7888 38.0845 47.0682 38.2195 47.4162C38.3544 47.7642 38.4219 48.1927 38.4219 48.7017V49.0568H34.2173V48.3324H37.5696C37.5696 48.0246 37.508 47.75 37.3849 47.5085C37.2642 47.267 37.0914 47.0765 36.8665 46.9368C36.6439 46.7971 36.3812 46.7273 36.0781 46.7273C35.7443 46.7273 35.4555 46.8101 35.2116 46.9759C34.9702 47.1392 34.7843 47.3523 34.6541 47.6151C34.5239 47.8778 34.4588 48.1596 34.4588 48.4602V48.9432C34.4588 49.3551 34.5298 49.7043 34.6719 49.9908C34.8163 50.2749 35.0163 50.4915 35.272 50.6406C35.5277 50.7874 35.8248 50.8608 36.1634 50.8608C36.3835 50.8608 36.5824 50.83 36.7599 50.7685C36.9399 50.7045 37.0949 50.6098 37.2251 50.4844C37.3554 50.3565 37.456 50.1979 37.527 50.0085L38.3366 50.2358C38.2514 50.5104 38.1082 50.7519 37.907 50.9602C37.7057 51.1662 37.4571 51.3272 37.1612 51.4432C36.8653 51.5568 36.5327 51.6136 36.1634 51.6136ZM44.5689 51.6136C44.1143 51.6136 43.7131 51.4988 43.3651 51.2692C43.017 51.0372 42.7448 50.7105 42.5483 50.2891C42.3518 49.8653 42.2536 49.3646 42.2536 48.7869C42.2536 48.214 42.3518 47.7169 42.5483 47.2955C42.7448 46.8741 43.0182 46.5485 43.3686 46.3189C43.719 46.0893 44.1238 45.9744 44.5831 45.9744C44.9382 45.9744 45.2188 46.0336 45.4247 46.152C45.633 46.268 45.7917 46.4006 45.9006 46.5497C46.0118 46.6965 46.0982 46.8172 46.1598 46.9119H46.2308V44.2273H47.0689V51.5H46.2592V50.6619H46.1598C46.0982 50.7614 46.0107 50.8868 45.897 51.0384C45.7834 51.1875 45.6212 51.3213 45.4105 51.4396C45.1998 51.5556 44.9193 51.6136 44.5689 51.6136ZM44.6825 50.8608C45.0187 50.8608 45.3028 50.7732 45.5348 50.598C45.7668 50.4205 45.9432 50.1754 46.0639 49.8629C46.1847 49.5481 46.245 49.1847 46.245 48.7727C46.245 48.3655 46.1858 48.0092 46.0675 47.7038C45.9491 47.3961 45.7739 47.157 45.5419 46.9865C45.3099 46.8137 45.0234 46.7273 44.6825 46.7273C44.3274 46.7273 44.0315 46.8184 43.7947 47.0007C43.5604 47.1806 43.384 47.4257 43.2656 47.7358C43.1496 48.0436 43.0916 48.3892 43.0916 48.7727C43.0916 49.161 43.1508 49.5137 43.2692 49.831C43.3899 50.1458 43.5675 50.3968 43.8018 50.5838C44.0386 50.7685 44.3321 50.8608 44.6825 50.8608ZM48.7202 51.5V46.0455H49.5582V51.5H48.7202ZM49.1463 45.1364C48.983 45.1364 48.8421 45.0807 48.7237 44.9695C48.6077 44.8582 48.5497 44.7244 48.5497 44.5682C48.5497 44.4119 48.6077 44.2782 48.7237 44.1669C48.8421 44.0556 48.983 44 49.1463 44C49.3097 44 49.4493 44.0556 49.5653 44.1669C49.6837 44.2782 49.7429 44.4119 49.7429 44.5682C49.7429 44.7244 49.6837 44.8582 49.5653 44.9695C49.4493 45.0807 49.3097 45.1364 49.1463 45.1364ZM51.0932 51.5V46.0455H51.9029V46.8693H51.9597C52.0591 46.5994 52.2391 46.3804 52.4995 46.2124C52.7599 46.0443 53.0534 45.9602 53.3801 45.9602C53.4417 45.9602 53.5186 45.9614 53.611 45.9638C53.7033 45.9661 53.7731 45.9697 53.8205 45.9744V46.8267C53.7921 46.8196 53.727 46.8089 53.6252 46.7947C53.5257 46.7782 53.4204 46.7699 53.3091 46.7699C53.044 46.7699 52.8072 46.8255 52.5989 46.9368C52.3929 47.0457 52.2296 47.1972 52.1088 47.3913C51.9905 47.5831 51.9313 47.8021 51.9313 48.0483V51.5H51.0932ZM56.9348 51.6136C56.4093 51.6136 55.9559 51.4976 55.5748 51.2656C55.196 51.0312 54.9036 50.7045 54.6976 50.2855C54.494 49.8641 54.3922 49.3741 54.3922 48.8153C54.3922 48.2566 54.494 47.7642 54.6976 47.3381C54.9036 46.9096 55.19 46.5758 55.557 46.3366C55.9263 46.0952 56.3572 45.9744 56.8496 45.9744C57.1337 45.9744 57.4142 46.0218 57.6912 46.1165C57.9682 46.2112 58.2203 46.3651 58.4476 46.5781C58.6749 46.7888 58.856 47.0682 58.9909 47.4162C59.1259 47.7642 59.1934 48.1927 59.1934 48.7017V49.0568H54.9888V48.3324H58.3411C58.3411 48.0246 58.2795 47.75 58.1564 47.5085C58.0357 47.267 57.8629 47.0765 57.638 46.9368C57.4154 46.7971 57.1526 46.7273 56.8496 46.7273C56.5158 46.7273 56.227 46.8101 55.9831 46.9759C55.7417 47.1392 55.5558 47.3523 55.4256 47.6151C55.2954 47.8778 55.2303 48.1596 55.2303 48.4602V48.9432C55.2303 49.3551 55.3013 49.7043 55.4434 49.9908C55.5878 50.2749 55.7878 50.4915 56.0435 50.6406C56.2992 50.7874 56.5963 50.8608 56.9348 50.8608C57.155 50.8608 57.3539 50.83 57.5314 50.7685C57.7114 50.7045 57.8664 50.6098 57.9966 50.4844C58.1268 50.3565 58.2275 50.1979 58.2985 50.0085L59.1081 50.2358C59.0229 50.5104 58.8797 50.7519 58.6784 50.9602C58.4772 51.1662 58.2286 51.3272 57.9327 51.4432C57.6368 51.5568 57.3042 51.6136 56.9348 51.6136ZM62.6841 51.6136C62.1728 51.6136 61.7324 51.4929 61.3631 51.2514C60.9938 51.0099 60.7097 50.6773 60.5108 50.2536C60.312 49.8298 60.2125 49.3456 60.2125 48.8011C60.2125 48.2472 60.3143 47.7583 60.5179 47.3345C60.7239 46.9084 61.0104 46.5758 61.3773 46.3366C61.7466 46.0952 62.1775 45.9744 62.6699 45.9744C63.0534 45.9744 63.3991 46.0455 63.7069 46.1875C64.0146 46.3295 64.2667 46.5284 64.4632 46.7841C64.6597 47.0398 64.7817 47.3381 64.829 47.679H63.9909C63.927 47.4304 63.785 47.2102 63.5648 47.0185C63.347 46.8243 63.0534 46.7273 62.6841 46.7273C62.3574 46.7273 62.071 46.8125 61.8248 46.983C61.5809 47.151 61.3903 47.389 61.253 47.6967C61.1181 48.0021 61.0506 48.3608 61.0506 48.7727C61.0506 49.1941 61.1169 49.5611 61.2495 49.8736C61.3844 50.1861 61.5738 50.4287 61.8176 50.6016C62.0639 50.7744 62.3527 50.8608 62.6841 50.8608C62.9019 50.8608 63.0996 50.8229 63.2772 50.7472C63.4547 50.6714 63.6051 50.5625 63.7282 50.4205C63.8513 50.2784 63.9389 50.108 63.9909 49.9091H64.829C64.7817 50.2311 64.6645 50.5211 64.4775 50.7791C64.2928 51.0348 64.0478 51.2384 63.7424 51.3899C63.4393 51.5391 63.0866 51.6136 62.6841 51.6136ZM68.4263 46.0455V46.7557H65.5996V46.0455H68.4263ZM66.4235 44.7386H67.2615V49.9375C67.2615 50.1742 67.2959 50.3518 67.3645 50.4702C67.4355 50.5862 67.5255 50.6643 67.6344 50.7045C67.7457 50.7424 67.8629 50.7614 67.986 50.7614C68.0783 50.7614 68.1541 50.7566 68.2132 50.7472C68.2724 50.7353 68.3198 50.7259 68.3553 50.7188L68.5257 51.4716C68.4689 51.4929 68.3896 51.5142 68.2878 51.5355C68.186 51.5592 68.057 51.571 67.9007 51.571C67.664 51.571 67.432 51.5201 67.2047 51.4183C66.9798 51.3165 66.7928 51.1615 66.6436 50.9531C66.4969 50.7448 66.4235 50.482 66.4235 50.1648V44.7386ZM69.687 51.5V46.0455H70.525V51.5H69.687ZM70.1131 45.1364C69.9498 45.1364 69.8089 45.0807 69.6905 44.9695C69.5745 44.8582 69.5165 44.7244 69.5165 44.5682C69.5165 44.4119 69.5745 44.2782 69.6905 44.1669C69.8089 44.0556 69.9498 44 70.1131 44C70.2765 44 70.4161 44.0556 70.5321 44.1669C70.6505 44.2782 70.7097 44.4119 70.7097 44.5682C70.7097 44.7244 70.6505 44.8582 70.5321 44.9695C70.4161 45.0807 70.2765 45.1364 70.1131 45.1364ZM74.2759 51.6136C73.7835 51.6136 73.3514 51.4964 72.9798 51.2621C72.6104 51.0277 72.3216 50.6998 72.1133 50.2784C71.9073 49.857 71.8043 49.3646 71.8043 48.8011C71.8043 48.233 71.9073 47.737 72.1133 47.3132C72.3216 46.8894 72.6104 46.5604 72.9798 46.326C73.3514 46.0916 73.7835 45.9744 74.2759 45.9744C74.7683 45.9744 75.1992 46.0916 75.5685 46.326C75.9402 46.5604 76.229 46.8894 76.435 47.3132C76.6433 47.737 76.7475 48.233 76.7475 48.8011C76.7475 49.3646 76.6433 49.857 76.435 50.2784C76.229 50.6998 75.9402 51.0277 75.5685 51.2621C75.1992 51.4964 74.7683 51.6136 74.2759 51.6136ZM74.2759 50.8608C74.65 50.8608 74.9577 50.7649 75.1992 50.5732C75.4407 50.3814 75.6194 50.1293 75.7354 49.8168C75.8514 49.5043 75.9094 49.1657 75.9094 48.8011C75.9094 48.4366 75.8514 48.0968 75.7354 47.782C75.6194 47.4671 75.4407 47.2126 75.1992 47.0185C74.9577 46.8243 74.65 46.7273 74.2759 46.7273C73.9019 46.7273 73.5941 46.8243 73.3526 47.0185C73.1112 47.2126 72.9324 47.4671 72.8164 47.782C72.7004 48.0968 72.6424 48.4366 72.6424 48.8011C72.6424 49.1657 72.7004 49.5043 72.8164 49.8168C72.9324 50.1293 73.1112 50.3814 73.3526 50.5732C73.5941 50.7649 73.9019 50.8608 74.2759 50.8608ZM78.8649 48.2188V51.5H78.0268V46.0455H78.8365V46.8977H78.9075C79.0353 46.6207 79.2295 46.3982 79.4899 46.2301C79.7503 46.0597 80.0865 45.9744 80.4984 45.9744C80.8677 45.9744 81.1909 46.0502 81.4679 46.2017C81.7449 46.3509 81.9603 46.5781 82.1142 46.8835C82.2681 47.1866 82.345 47.5701 82.345 48.0341V51.5H81.5069V48.0909C81.5069 47.6624 81.3957 47.3286 81.1731 47.0895C80.9506 46.848 80.6452 46.7273 80.2569 46.7273C79.9894 46.7273 79.7503 46.7853 79.5396 46.9013C79.3313 47.0173 79.1667 47.1866 79.046 47.4091C78.9252 47.6316 78.8649 47.9015 78.8649 48.2188Z" fill="#222222"/>
<path d="M153.066 52.2116L152.535 51.6808L155.981 48.2308L152.535 44.7808L153.066 44.25L157.046 48.2308L153.066 52.2116ZM157.641 52.2116L157.11 51.6808L160.556 48.2308L157.11 44.7808L157.641 44.25L161.621 48.2308L157.641 52.2116Z" fill="#222222"/>
<path d="M148.446 52.2116L144.465 48.2308L148.446 44.25L148.976 44.7808L145.531 48.2308L148.976 51.6808L148.446 52.2116ZM153.021 52.2116L149.04 48.2308L153.021 44.25L153.551 44.7808L150.106 48.2308L153.551 51.6808L153.021 52.2116Z" fill="#222222"/>
<path d="M176.437 51.9807L172.457 47.9999L176.437 44.0192L176.968 44.5499L173.522 47.9999L176.968 51.4499L176.437 51.9807ZM181.012 51.9807L177.032 47.9999L181.012 44.0192L181.543 44.5499L178.097 47.9999L181.543 51.4499L181.012 51.9807Z" fill="#222222"/>
<path d="M196.987 51.9807L196.457 51.4499L199.902 47.9999L196.457 44.5499L196.987 44.0192L200.968 47.9999L196.987 51.9807ZM201.562 51.9807L201.032 51.4499L204.477 47.9999L201.032 44.5499L201.562 44.0192L205.543 47.9999L201.562 51.9807Z" fill="#222222"/>
<path d="M274.461 49C274.186 49 273.951 48.9021 273.755 48.7063C273.559 48.5104 273.461 48.275 273.461 48C273.461 47.725 273.559 47.4896 273.755 47.2938C273.951 47.0979 274.186 47 274.461 47C274.736 47 274.972 47.0979 275.168 47.2938C275.364 47.4896 275.461 47.725 275.461 48C275.461 48.275 275.364 48.5104 275.168 48.7063C274.972 48.9021 274.736 49 274.461 49ZM280 49C279.725 49 279.489 48.9021 279.294 48.7063C279.098 48.5104 279 48.275 279 48C279 47.725 279.098 47.4896 279.294 47.2938C279.489 47.0979 279.725 47 280 47C280.275 47 280.51 47.0979 280.706 47.2938C280.902 47.4896 281 47.725 281 48C281 48.275 280.902 48.5104 280.706 48.7063C280.51 48.9021 280.275 49 280 49ZM285.538 49C285.263 49 285.028 48.9021 284.832 48.7063C284.636 48.5104 284.538 48.275 284.538 48C284.538 47.725 284.636 47.4896 284.832 47.2938C285.028 47.0979 285.263 47 285.538 47C285.813 47 286.049 47.0979 286.245 47.2938C286.44 47.4896 286.538 47.725 286.538 48C286.538 48.275 286.44 48.5104 286.245 48.7063C286.049 48.9021 285.813 49 285.538 49Z" fill="#222222"/>
</svg>
