<svg width="24" height="24" viewBox="0 0 24 24" fill="none" xmlns="http://www.w3.org/2000/svg">
<rect width="24" height="24" rx="2" fill="var(--colors-primary-primary-300)"/>
<path fill-rule="evenodd" clip-rule="evenodd" d="M9.25 2.83333C9.01988 2.83333 8.83333 3.01988 8.83333 3.25V4.32741L10.3274 2.83333H9.25ZM11.3333 2H9.25C8.55964 2 8 2.55964 8 3.25V19.4999V20.75C8 21.4404 8.55964 22 9.25 22H15.0833C15.7737 22 16.3333 21.4404 16.3333 20.75V16.7921V12.0004V7.22276C16.3337 7.21314 16.3337 7.20352 16.3333 7.19391V3.25C16.3333 2.55964 15.7737 2 15.0833 2H11.3333ZM11.5059 2.83333L8.83333 5.50592V8.91074L14.9107 2.83333H11.5059ZM15.5 3.42259L8.83333 10.0893V13.7027L15.5 7.03599V3.42259ZM15.5 8.2145L8.83333 14.8812V18.4941L15.5 11.8274V8.2145ZM15.5 13.0059L8.83333 19.6726V20.75C8.83333 20.9801 9.01988 21.1667 9.25 21.1667H10.9524L15.5 16.6191V13.0059ZM15.5 17.7976L12.1309 21.1667H15.0833C15.3135 21.1667 15.5 20.9801 15.5 20.75V17.7976Z" fill="var(--colors-primary-primary-700)"/>
</svg>
