<svg width="24" height="24" viewBox="0 0 24 24" fill="none" xmlns="http://www.w3.org/2000/svg">
<rect width="24" height="24" rx="2" fill="#F7F7F7"/>
<path d="M9 16.5C7.75768 16.5 6.69711 16.0606 5.81827 15.1817C4.93943 14.3029 4.5 13.2423 4.5 12C4.5 10.7577 4.93943 9.69711 5.81827 8.81827C6.69711 7.93942 7.75768 7.5 9 7.5C10.1654 7.5 11.167 7.87917 12.0048 8.6375C12.8426 9.39583 13.3333 10.35 13.4769 11.5H19.3673L17.2731 9.4L17.9808 8.67308L21.3077 12L17.9808 15.3077L17.2673 14.5808L19.3673 12.5H13.4769C13.3333 13.65 12.8426 14.6042 12.0048 15.3625C11.167 16.1208 10.1654 16.5 9 16.5ZM9 15.5C9.96153 15.5 10.7852 15.1571 11.4711 14.4712C12.157 13.7853 12.5 12.9615 12.5 12C12.5 11.0385 12.157 10.2147 11.4711 9.52885C10.7852 8.84295 9.96153 8.5 9 8.5C8.03847 8.5 7.21475 8.84295 6.52885 9.52885C5.84295 10.2147 5.5 11.0385 5.5 12C5.5 12.9615 5.84295 13.7853 6.52885 14.4712C7.21475 15.1571 8.03847 15.5 9 15.5Z" fill="#222222"/>
</svg>
