<svg width="304" height="241" viewBox="0 0 304 241" fill="none" xmlns="http://www.w3.org/2000/svg">
<path d="M304 239.5H0V240.5H304V239.5Z" fill="var(--colors-neutral-neutral-400)"/>
<path d="M17.608 26.056V24.796H22.36V26.056H17.608ZM18.796 19.624H21.004L23.44 28H21.892L20.392 22.72L19.9 20.752L19.384 22.732L17.872 28H16.36L18.796 19.624ZM27.3207 21.232C27.7527 21.232 28.1487 21.316 28.5087 21.484C28.8687 21.652 29.1647 21.88 29.3967 22.168V19.156H30.8247V28H29.4567L29.4207 27.16C29.1967 27.456 28.9007 27.696 28.5327 27.88C28.1647 28.056 27.7607 28.144 27.3207 28.144C26.7367 28.144 26.2207 27.996 25.7727 27.7C25.3247 27.396 24.9727 26.984 24.7167 26.464C24.4687 25.936 24.3447 25.344 24.3447 24.688C24.3447 24.024 24.4687 23.432 24.7167 22.912C24.9727 22.392 25.3247 21.984 25.7727 21.688C26.2207 21.384 26.7367 21.232 27.3207 21.232ZM27.6567 26.956C28.0567 26.956 28.4087 26.84 28.7127 26.608C29.0247 26.368 29.2527 26.052 29.3967 25.66V23.704C29.2527 23.304 29.0247 22.992 28.7127 22.768C28.4087 22.536 28.0567 22.42 27.6567 22.42C27.2887 22.42 26.9607 22.52 26.6727 22.72C26.3927 22.912 26.1727 23.18 26.0127 23.524C25.8527 23.86 25.7727 24.248 25.7727 24.688C25.7727 25.12 25.8527 25.508 26.0127 25.852C26.1727 26.188 26.3927 26.456 26.6727 26.656C26.9607 26.856 27.2887 26.956 27.6567 26.956ZM37.3454 21.376V27.964C37.3454 28.396 37.2654 28.776 37.1054 29.104C36.9454 29.432 36.7134 29.684 36.4094 29.86C36.1054 30.044 35.7334 30.136 35.2934 30.136H32.5574V28.972H34.8014C35.1614 28.972 35.4374 28.908 35.6294 28.78C35.8214 28.652 35.9174 28.388 35.9174 27.988V21.376H37.3454ZM34.4294 22.54V21.376H36.6254V22.54H34.4294ZM35.8454 20.332V18.868H37.4054V20.332H35.8454ZM41.6101 21.376V25.516C41.6101 25.948 41.7261 26.292 41.9581 26.548C42.1981 26.804 42.5061 26.932 42.8821 26.932C43.3141 26.932 43.7021 26.78 44.0461 26.476C44.3981 26.164 44.6981 25.668 44.9461 24.988L45.1621 26.416C44.8981 27 44.5381 27.436 44.0821 27.724C43.6261 28.004 43.1381 28.144 42.6181 28.144C42.1141 28.144 41.6781 28.04 41.3101 27.832C40.9501 27.616 40.6701 27.32 40.4701 26.944C40.2781 26.56 40.1821 26.112 40.1821 25.6V21.376H41.6101ZM46.2301 21.376V28H44.8621L44.8021 26.608V21.376H46.2301ZM51.2868 28.144C50.6948 28.144 50.1708 28.044 49.7148 27.844C49.2668 27.636 48.9188 27.344 48.6708 26.968C48.4228 26.592 48.2948 26.148 48.2868 25.636H49.6308C49.6228 26.084 49.7668 26.436 50.0628 26.692C50.3668 26.948 50.7748 27.076 51.2868 27.076C51.6948 27.076 52.0228 27 52.2708 26.848C52.5188 26.696 52.6428 26.488 52.6428 26.224C52.6428 26.016 52.5668 25.848 52.4148 25.72C52.2628 25.592 52.0588 25.492 51.8028 25.42C51.5548 25.348 51.2788 25.284 50.9748 25.228C50.6788 25.164 50.3788 25.092 50.0748 25.012C49.7708 24.924 49.4908 24.812 49.2348 24.676C48.9868 24.532 48.7868 24.344 48.6348 24.112C48.4828 23.88 48.4068 23.584 48.4068 23.224C48.4068 22.832 48.5148 22.488 48.7308 22.192C48.9548 21.888 49.2708 21.652 49.6788 21.484C50.0868 21.316 50.5668 21.232 51.1188 21.232C51.9508 21.232 52.6228 21.428 53.1348 21.82C53.6468 22.204 53.9228 22.736 53.9628 23.416H52.6308C52.6068 23.056 52.4588 22.78 52.1868 22.588C51.9228 22.396 51.5668 22.3 51.1188 22.3C50.7108 22.3 50.3948 22.38 50.1708 22.54C49.9548 22.7 49.8468 22.904 49.8468 23.152C49.8468 23.36 49.9228 23.52 50.0748 23.632C50.2348 23.744 50.4388 23.832 50.6868 23.896C50.9348 23.96 51.2108 24.02 51.5148 24.076C51.8188 24.124 52.1188 24.188 52.4148 24.268C52.7188 24.348 52.9948 24.46 53.2428 24.604C53.4988 24.74 53.7028 24.928 53.8548 25.168C54.0148 25.408 54.0948 25.72 54.0948 26.104C54.0948 26.736 53.8388 27.236 53.3268 27.604C52.8228 27.964 52.1428 28.144 51.2868 28.144ZM59.4634 28C59.0394 28 58.6754 27.912 58.3714 27.736C58.0674 27.56 57.8354 27.312 57.6754 26.992C57.5154 26.664 57.4354 26.284 57.4354 25.852V20.176L58.8754 19.456V25.852C58.8754 26.052 58.9034 26.228 58.9594 26.38C59.0154 26.532 59.1234 26.648 59.2834 26.728C59.4514 26.8 59.6914 26.836 60.0034 26.836H61.8874V28H59.4634ZM55.9594 22.54V21.376H60.7954V22.54H55.9594ZM74.9768 21.232C75.5608 21.232 76.0728 21.384 76.5128 21.688C76.9608 21.984 77.3128 22.392 77.5688 22.912C77.8248 23.432 77.9528 24.024 77.9528 24.688C77.9528 25.344 77.8248 25.936 77.5688 26.464C77.3128 26.984 76.9608 27.396 76.5128 27.7C76.0728 27.996 75.5608 28.144 74.9768 28.144C74.5448 28.144 74.1488 28.06 73.7888 27.892C73.4368 27.724 73.1408 27.492 72.9008 27.196V30.136H71.4728V21.376H72.8408L72.8768 22.192C73.1168 21.896 73.4168 21.664 73.7768 21.496C74.1368 21.32 74.5368 21.232 74.9768 21.232ZM74.6408 26.956C75.0168 26.956 75.3448 26.856 75.6248 26.656C75.9048 26.456 76.1208 26.188 76.2728 25.852C76.4328 25.508 76.5128 25.12 76.5128 24.688C76.5128 24.248 76.4328 23.86 76.2728 23.524C76.1208 23.18 75.9048 22.912 75.6248 22.72C75.3448 22.52 75.0168 22.42 74.6408 22.42C74.2488 22.42 73.8968 22.532 73.5848 22.756C73.2728 22.98 73.0448 23.288 72.9008 23.68V25.684C73.0448 26.076 73.2728 26.388 73.5848 26.62C73.8968 26.844 74.2488 26.956 74.6408 26.956ZM82.3375 28.144C81.6415 28.144 81.0415 28.004 80.5375 27.724C80.0415 27.444 79.6575 27.048 79.3855 26.536C79.1215 26.016 78.9895 25.4 78.9895 24.688C78.9895 23.968 79.1215 23.352 79.3855 22.84C79.6575 22.328 80.0415 21.932 80.5375 21.652C81.0415 21.372 81.6415 21.232 82.3375 21.232C83.3775 21.232 84.1935 21.54 84.7855 22.156C85.3775 22.764 85.6735 23.608 85.6735 24.688C85.6735 25.4 85.5375 26.016 85.2655 26.536C85.0015 27.048 84.6175 27.444 84.1135 27.724C83.6175 28.004 83.0255 28.144 82.3375 28.144ZM82.3375 26.968C82.9215 26.968 83.3815 26.764 83.7175 26.356C84.0615 25.948 84.2335 25.392 84.2335 24.688C84.2335 23.976 84.0615 23.42 83.7175 23.02C83.3815 22.612 82.9215 22.408 82.3375 22.408C81.7375 22.408 81.2695 22.612 80.9335 23.02C80.5975 23.42 80.4295 23.976 80.4295 24.688C80.4295 25.392 80.5975 25.948 80.9335 26.356C81.2695 26.764 81.7375 26.968 82.3375 26.968ZM90.3102 28.144C89.7182 28.144 89.1942 28.044 88.7382 27.844C88.2902 27.636 87.9422 27.344 87.6942 26.968C87.4462 26.592 87.3182 26.148 87.3102 25.636H88.6542C88.6462 26.084 88.7902 26.436 89.0862 26.692C89.3902 26.948 89.7982 27.076 90.3102 27.076C90.7182 27.076 91.0462 27 91.2942 26.848C91.5422 26.696 91.6662 26.488 91.6662 26.224C91.6662 26.016 91.5902 25.848 91.4382 25.72C91.2862 25.592 91.0822 25.492 90.8262 25.42C90.5782 25.348 90.3022 25.284 89.9982 25.228C89.7022 25.164 89.4022 25.092 89.0982 25.012C88.7942 24.924 88.5142 24.812 88.2582 24.676C88.0102 24.532 87.8102 24.344 87.6582 24.112C87.5062 23.88 87.4302 23.584 87.4302 23.224C87.4302 22.832 87.5382 22.488 87.7542 22.192C87.9782 21.888 88.2942 21.652 88.7022 21.484C89.1102 21.316 89.5902 21.232 90.1422 21.232C90.9742 21.232 91.6462 21.428 92.1582 21.82C92.6702 22.204 92.9462 22.736 92.9862 23.416H91.6542C91.6302 23.056 91.4822 22.78 91.2102 22.588C90.9462 22.396 90.5902 22.3 90.1422 22.3C89.7342 22.3 89.4182 22.38 89.1942 22.54C88.9782 22.7 88.8702 22.904 88.8702 23.152C88.8702 23.36 88.9462 23.52 89.0982 23.632C89.2582 23.744 89.4622 23.832 89.7102 23.896C89.9582 23.96 90.2342 24.02 90.5382 24.076C90.8422 24.124 91.1422 24.188 91.4382 24.268C91.7422 24.348 92.0182 24.46 92.2662 24.604C92.5222 24.74 92.7262 24.928 92.8782 25.168C93.0382 25.408 93.1182 25.72 93.1182 26.104C93.1182 26.736 92.8622 27.236 92.3502 27.604C91.8462 27.964 91.1662 28.144 90.3102 28.144ZM97.2749 28V21.376H98.7029V28H97.2749ZM94.9349 28V26.836H100.947V28H94.9349ZM95.7869 22.54V21.376H97.9829V22.54H95.7869ZM97.1909 20.332V18.868H98.7509V20.332H97.1909ZM106.292 28C105.868 28 105.504 27.912 105.2 27.736C104.896 27.56 104.664 27.312 104.504 26.992C104.344 26.664 104.264 26.284 104.264 25.852V20.176L105.704 19.456V25.852C105.704 26.052 105.732 26.228 105.788 26.38C105.844 26.532 105.952 26.648 106.112 26.728C106.28 26.8 106.52 26.836 106.832 26.836H108.716V28H106.292ZM102.788 22.54V21.376H107.624V22.54H102.788ZM112.884 28V21.376H114.312V28H112.884ZM110.544 28V26.836H116.556V28H110.544ZM111.396 22.54V21.376H113.592V22.54H111.396ZM112.8 20.332V18.868H114.36V20.332H112.8ZM121.361 28.144C120.665 28.144 120.065 28.004 119.561 27.724C119.065 27.444 118.681 27.048 118.409 26.536C118.145 26.016 118.013 25.4 118.013 24.688C118.013 23.968 118.145 23.352 118.409 22.84C118.681 22.328 119.065 21.932 119.561 21.652C120.065 21.372 120.665 21.232 121.361 21.232C122.401 21.232 123.217 21.54 123.809 22.156C124.401 22.764 124.697 23.608 124.697 24.688C124.697 25.4 124.561 26.016 124.289 26.536C124.025 27.048 123.641 27.444 123.137 27.724C122.641 28.004 122.049 28.144 121.361 28.144ZM121.361 26.968C121.945 26.968 122.405 26.764 122.741 26.356C123.085 25.948 123.257 25.392 123.257 24.688C123.257 23.976 123.085 23.42 122.741 23.02C122.405 22.612 121.945 22.408 121.361 22.408C120.761 22.408 120.293 22.612 119.957 23.02C119.621 23.42 119.453 23.976 119.453 24.688C119.453 25.392 119.621 25.948 119.957 26.356C120.293 26.764 120.761 26.968 121.361 26.968ZM130.786 28V23.86C130.786 23.428 130.666 23.084 130.426 22.828C130.194 22.572 129.89 22.444 129.514 22.444C129.082 22.444 128.69 22.6 128.338 22.912C127.994 23.216 127.698 23.708 127.45 24.388L127.234 22.96C127.498 22.376 127.858 21.944 128.314 21.664C128.77 21.376 129.258 21.232 129.778 21.232C130.282 21.232 130.714 21.34 131.074 21.556C131.442 21.764 131.722 22.06 131.914 22.444C132.114 22.82 132.214 23.264 132.214 23.776V28H130.786ZM126.166 28V21.376H127.534L127.594 22.768V28H126.166Z" fill="var(--colors-neutral-neutral-800)"/>
<path d="M275.4 26.7019L274.692 25.9942L280 20.6865L285.308 25.9942L284.6 26.7019L280 22.1019L275.4 26.7019Z" fill="var(--colors-neutral-neutral-800)"/>
<path d="M19.125 67.5H16.8807V60.2273H19.2244C19.9299 60.2273 20.5336 60.3729 21.0355 60.6641C21.5374 60.9529 21.9221 61.3684 22.1896 61.9105C22.4571 62.4503 22.5909 63.0966 22.5909 63.8494C22.5909 64.607 22.456 65.2592 22.1861 65.8061C21.9162 66.3506 21.5232 66.7696 21.0071 67.0632C20.491 67.3544 19.8636 67.5 19.125 67.5ZM17.7614 66.7188H19.0682C19.6695 66.7188 20.1679 66.6027 20.5632 66.3707C20.9586 66.1387 21.2533 65.8085 21.4474 65.38C21.6416 64.9515 21.7386 64.4413 21.7386 63.8494C21.7386 63.2623 21.6428 62.7569 21.451 62.3331C21.2592 61.907 20.9728 61.5803 20.5916 61.353C20.2105 61.1233 19.7358 61.0085 19.1676 61.0085H17.7614V66.7188ZM26.2415 67.6136C25.7159 67.6136 25.2625 67.4976 24.8814 67.2656C24.5026 67.0312 24.2102 66.7045 24.0043 66.2855C23.8007 65.8641 23.6989 65.3741 23.6989 64.8153C23.6989 64.2566 23.8007 63.7642 24.0043 63.3381C24.2102 62.9096 24.4967 62.5758 24.8636 62.3366C25.233 62.0952 25.6638 61.9744 26.1562 61.9744C26.4403 61.9744 26.7209 62.0218 26.9979 62.1165C27.2749 62.2112 27.527 62.3651 27.7543 62.5781C27.9815 62.7888 28.1626 63.0682 28.2976 63.4162C28.4325 63.7642 28.5 64.1927 28.5 64.7017V65.0568H24.2955V64.3324H27.6477C27.6477 64.0246 27.5862 63.75 27.4631 63.5085C27.3423 63.267 27.1695 63.0765 26.9446 62.9368C26.7221 62.7971 26.4593 62.7273 26.1562 62.7273C25.8224 62.7273 25.5336 62.8101 25.2898 62.9759C25.0483 63.1392 24.8625 63.3523 24.7322 63.6151C24.602 63.8778 24.5369 64.1596 24.5369 64.4602V64.9432C24.5369 65.3551 24.608 65.7043 24.75 65.9908C24.8944 66.2749 25.0945 66.4915 25.3501 66.6406C25.6058 66.7874 25.9029 66.8608 26.2415 66.8608C26.4616 66.8608 26.6605 66.83 26.8381 66.7685C27.018 66.7045 27.1731 66.6098 27.3033 66.4844C27.4335 66.3565 27.5341 66.1979 27.6051 66.0085L28.4148 66.2358C28.3295 66.5104 28.1863 66.7519 27.9851 66.9602C27.7839 67.1662 27.5353 67.3272 27.2393 67.4432C26.9434 67.5568 26.6108 67.6136 26.2415 67.6136ZM30.6129 60.2273V67.5H29.7749V60.2273H30.6129ZM34.5201 62.0455V62.7557H31.6934V62.0455H34.5201ZM32.5172 60.7386H33.3553V65.9375C33.3553 66.1742 33.3896 66.3518 33.4583 66.4702C33.5293 66.5862 33.6193 66.6643 33.7282 66.7045C33.8394 66.7424 33.9566 66.7614 34.0797 66.7614C34.1721 66.7614 34.2478 66.7566 34.307 66.7472C34.3662 66.7353 34.4135 66.7259 34.449 66.7188L34.6195 67.4716C34.5627 67.4929 34.4834 67.5142 34.3816 67.5355C34.2798 67.5592 34.1507 67.571 33.9945 67.571C33.7578 67.571 33.5257 67.5201 33.2985 67.4183C33.0736 67.3165 32.8865 67.1615 32.7374 66.9531C32.5906 66.7448 32.5172 66.482 32.5172 66.1648V60.7386ZM37.3858 67.6278C37.0402 67.6278 36.7265 67.5627 36.4448 67.4325C36.1631 67.3 35.9393 67.1094 35.7736 66.8608C35.6079 66.6098 35.525 66.3068 35.525 65.9517C35.525 65.6392 35.5866 65.3859 35.7097 65.1918C35.8328 64.9953 35.9973 64.8414 36.2033 64.7301C36.4093 64.6188 36.6365 64.536 36.8851 64.4815C37.1361 64.4247 37.3882 64.3797 37.6415 64.3466C37.973 64.304 38.2417 64.272 38.4476 64.2507C38.656 64.227 38.8075 64.188 38.9022 64.1335C38.9992 64.0791 39.0478 63.9844 39.0478 63.8494V63.821C39.0478 63.4706 38.9519 63.1984 38.7601 63.0043C38.5707 62.8101 38.2831 62.7131 37.8972 62.7131C37.4971 62.7131 37.1834 62.8007 36.9561 62.9759C36.7289 63.151 36.5691 63.3381 36.4767 63.5369L35.6813 63.2528C35.8233 62.9214 36.0127 62.6634 36.2495 62.4787C36.4886 62.2917 36.749 62.1615 37.0307 62.0881C37.3148 62.0123 37.5942 61.9744 37.8688 61.9744C38.044 61.9744 38.2452 61.9957 38.4725 62.0384C38.7021 62.0786 38.9235 62.1626 39.1365 62.2905C39.352 62.4183 39.5307 62.6113 39.6728 62.8693C39.8148 63.1274 39.8858 63.473 39.8858 63.9062V67.5H39.0478V66.7614H39.0051C38.9483 66.8797 38.8536 67.0064 38.7211 67.1413C38.5885 67.2763 38.4121 67.3911 38.1919 67.4858C37.9718 67.5805 37.7031 67.6278 37.3858 67.6278ZM37.5137 66.875C37.8451 66.875 38.1245 66.8099 38.3517 66.6797C38.5814 66.5495 38.7542 66.3814 38.8702 66.1754C38.9886 65.9695 39.0478 65.7528 39.0478 65.5256V64.7585C39.0123 64.8011 38.9341 64.8402 38.8134 64.8757C38.695 64.9089 38.5577 64.9384 38.4015 64.9645C38.2476 64.9882 38.0972 65.0095 37.9505 65.0284C37.806 65.045 37.6889 65.0592 37.5989 65.071C37.3811 65.0994 37.1775 65.1456 36.9881 65.2095C36.8011 65.2711 36.6496 65.3646 36.5336 65.4901C36.4199 65.6132 36.3631 65.7812 36.3631 65.9943C36.3631 66.2855 36.4708 66.5057 36.6863 66.6548C36.9041 66.8016 37.1799 66.875 37.5137 66.875ZM44.7678 60.2273L46.6428 63.2528H46.6996L48.5746 60.2273H49.6115L47.3246 63.8636L49.6115 67.5H48.5746L46.6996 64.5312H46.6428L44.7678 67.5H43.7308L46.0746 63.8636L43.7308 60.2273H44.7678Z" fill="var(--colors-neutral-neutral-800)"/>
<path d="M147.125 67.5994C146.59 67.5994 146.134 67.4538 145.758 67.1626C145.381 66.8691 145.094 66.4441 144.895 65.8878C144.696 65.3291 144.597 64.6544 144.597 63.8636C144.597 63.0777 144.696 62.4065 144.895 61.8501C145.096 61.2914 145.385 60.8653 145.761 60.5717C146.14 60.2758 146.595 60.1278 147.125 60.1278C147.655 60.1278 148.109 60.2758 148.485 60.5717C148.864 60.8653 149.153 61.2914 149.352 61.8501C149.553 62.4065 149.653 63.0777 149.653 63.8636C149.653 64.6544 149.554 65.3291 149.355 65.8878C149.156 66.4441 148.869 66.8691 148.492 67.1626C148.116 67.4538 147.66 67.5994 147.125 67.5994ZM147.125 66.8182C147.655 66.8182 148.067 66.5625 148.361 66.0511C148.654 65.5398 148.801 64.8106 148.801 63.8636C148.801 63.2339 148.734 62.6977 148.599 62.255C148.466 61.8123 148.274 61.4749 148.023 61.2429C147.775 61.0109 147.475 60.8949 147.125 60.8949C146.599 60.8949 146.189 61.1541 145.893 61.6726C145.597 62.1887 145.449 62.919 145.449 63.8636C145.449 64.4934 145.515 65.0284 145.648 65.4688C145.78 65.9091 145.971 66.2441 146.219 66.4737C146.47 66.7034 146.772 66.8182 147.125 66.8182ZM153.83 67.5V62.0455H154.639V62.8977H154.71C154.824 62.6065 155.007 62.3804 155.261 62.2195C155.514 62.0561 155.818 61.9744 156.173 61.9744C156.533 61.9744 156.833 62.0561 157.072 62.2195C157.313 62.3804 157.501 62.6065 157.636 62.8977H157.693C157.833 62.616 158.042 62.3923 158.322 62.2266C158.601 62.0585 158.936 61.9744 159.327 61.9744C159.814 61.9744 160.213 62.1271 160.523 62.4325C160.834 62.7356 160.989 63.2079 160.989 63.8494V67.5H160.151V63.8494C160.151 63.447 160.04 63.1593 159.82 62.9865C159.6 62.8137 159.341 62.7273 159.043 62.7273C158.659 62.7273 158.362 62.8433 158.151 63.0753C157.941 63.3049 157.835 63.5961 157.835 63.9489V67.5H156.983V63.7642C156.983 63.4541 156.882 63.2043 156.681 63.0149C156.48 62.8232 156.221 62.7273 155.903 62.7273C155.686 62.7273 155.482 62.7853 155.293 62.9013C155.106 63.0173 154.954 63.1783 154.838 63.3842C154.724 63.5878 154.668 63.8234 154.668 64.0909V67.5H153.83ZM162.521 67.5V62.0455H163.331V62.8977H163.402C163.515 62.6065 163.699 62.3804 163.952 62.2195C164.205 62.0561 164.51 61.9744 164.865 61.9744C165.225 61.9744 165.524 62.0561 165.763 62.2195C166.005 62.3804 166.193 62.6065 166.328 62.8977H166.385C166.524 62.616 166.734 62.3923 167.013 62.2266C167.292 62.0585 167.627 61.9744 168.018 61.9744C168.506 61.9744 168.905 62.1271 169.215 62.4325C169.525 62.7356 169.68 63.2079 169.68 63.8494V67.5H168.842V63.8494C168.842 63.447 168.732 63.1593 168.512 62.9865C168.292 62.8137 168.032 62.7273 167.734 62.7273C167.35 62.7273 167.053 62.8433 166.843 63.0753C166.632 63.3049 166.527 63.5961 166.527 63.9489V67.5H165.674V63.7642C165.674 63.4541 165.574 63.2043 165.373 63.0149C165.171 62.8232 164.912 62.7273 164.595 62.7273C164.377 62.7273 164.173 62.7853 163.984 62.9013C163.797 63.0173 163.645 63.1783 163.529 63.3842C163.416 63.5878 163.359 63.8234 163.359 64.0909V67.5H162.521Z" fill="var(--colors-neutral-neutral-800)"/>
<path d="M19.125 99.5H16.8807V92.2273H19.2244C19.9299 92.2273 20.5336 92.3729 21.0355 92.6641C21.5374 92.9529 21.9221 93.3684 22.1896 93.9105C22.4571 94.4503 22.5909 95.0966 22.5909 95.8494C22.5909 96.607 22.456 97.2592 22.1861 97.8061C21.9162 98.3506 21.5232 98.7696 21.0071 99.0632C20.491 99.3544 19.8636 99.5 19.125 99.5ZM17.7614 98.7188H19.0682C19.6695 98.7188 20.1679 98.6027 20.5632 98.3707C20.9586 98.1387 21.2533 97.8085 21.4474 97.38C21.6416 96.9515 21.7386 96.4413 21.7386 95.8494C21.7386 95.2623 21.6428 94.7569 21.451 94.3331C21.2592 93.907 20.9728 93.5803 20.5916 93.353C20.2105 93.1233 19.7358 93.0085 19.1676 93.0085H17.7614V98.7188ZM26.2415 99.6136C25.7159 99.6136 25.2625 99.4976 24.8814 99.2656C24.5026 99.0312 24.2102 98.7045 24.0043 98.2855C23.8007 97.8641 23.6989 97.3741 23.6989 96.8153C23.6989 96.2566 23.8007 95.7642 24.0043 95.3381C24.2102 94.9096 24.4967 94.5758 24.8636 94.3366C25.233 94.0952 25.6638 93.9744 26.1562 93.9744C26.4403 93.9744 26.7209 94.0218 26.9979 94.1165C27.2749 94.2112 27.527 94.3651 27.7543 94.5781C27.9815 94.7888 28.1626 95.0682 28.2976 95.4162C28.4325 95.7642 28.5 96.1927 28.5 96.7017V97.0568H24.2955V96.3324H27.6477C27.6477 96.0246 27.5862 95.75 27.4631 95.5085C27.3423 95.267 27.1695 95.0765 26.9446 94.9368C26.7221 94.7971 26.4593 94.7273 26.1562 94.7273C25.8224 94.7273 25.5336 94.8101 25.2898 94.9759C25.0483 95.1392 24.8625 95.3523 24.7322 95.6151C24.602 95.8778 24.5369 96.1596 24.5369 96.4602V96.9432C24.5369 97.3551 24.608 97.7043 24.75 97.9908C24.8944 98.2749 25.0945 98.4915 25.3501 98.6406C25.6058 98.7874 25.9029 98.8608 26.2415 98.8608C26.4616 98.8608 26.6605 98.83 26.8381 98.7685C27.018 98.7045 27.1731 98.6098 27.3033 98.4844C27.4335 98.3565 27.5341 98.1979 27.6051 98.0085L28.4148 98.2358C28.3295 98.5104 28.1863 98.7519 27.9851 98.9602C27.7839 99.1662 27.5353 99.3272 27.2393 99.4432C26.9434 99.5568 26.6108 99.6136 26.2415 99.6136ZM30.6129 92.2273V99.5H29.7749V92.2273H30.6129ZM34.5201 94.0455V94.7557H31.6934V94.0455H34.5201ZM32.5172 92.7386H33.3553V97.9375C33.3553 98.1742 33.3896 98.3518 33.4583 98.4702C33.5293 98.5862 33.6193 98.6643 33.7282 98.7045C33.8394 98.7424 33.9566 98.7614 34.0797 98.7614C34.1721 98.7614 34.2478 98.7566 34.307 98.7472C34.3662 98.7353 34.4135 98.7259 34.449 98.7188L34.6195 99.4716C34.5627 99.4929 34.4834 99.5142 34.3816 99.5355C34.2798 99.5592 34.1507 99.571 33.9945 99.571C33.7578 99.571 33.5257 99.5201 33.2985 99.4183C33.0736 99.3165 32.8865 99.1615 32.7374 98.9531C32.5906 98.7448 32.5172 98.482 32.5172 98.1648V92.7386ZM37.3858 99.6278C37.0402 99.6278 36.7265 99.5627 36.4448 99.4325C36.1631 99.3 35.9393 99.1094 35.7736 98.8608C35.6079 98.6098 35.525 98.3068 35.525 97.9517C35.525 97.6392 35.5866 97.3859 35.7097 97.1918C35.8328 96.9953 35.9973 96.8414 36.2033 96.7301C36.4093 96.6188 36.6365 96.536 36.8851 96.4815C37.1361 96.4247 37.3882 96.3797 37.6415 96.3466C37.973 96.304 38.2417 96.272 38.4476 96.2507C38.656 96.227 38.8075 96.188 38.9022 96.1335C38.9992 96.0791 39.0478 95.9844 39.0478 95.8494V95.821C39.0478 95.4706 38.9519 95.1984 38.7601 95.0043C38.5707 94.8101 38.2831 94.7131 37.8972 94.7131C37.4971 94.7131 37.1834 94.8007 36.9561 94.9759C36.7289 95.151 36.5691 95.3381 36.4767 95.5369L35.6813 95.2528C35.8233 94.9214 36.0127 94.6634 36.2495 94.4787C36.4886 94.2917 36.749 94.1615 37.0307 94.0881C37.3148 94.0123 37.5942 93.9744 37.8688 93.9744C38.044 93.9744 38.2452 93.9957 38.4725 94.0384C38.7021 94.0786 38.9235 94.1626 39.1365 94.2905C39.352 94.4183 39.5307 94.6113 39.6728 94.8693C39.8148 95.1274 39.8858 95.473 39.8858 95.9062V99.5H39.0478V98.7614H39.0051C38.9483 98.8797 38.8536 99.0064 38.7211 99.1413C38.5885 99.2763 38.4121 99.3911 38.1919 99.4858C37.9718 99.5805 37.7031 99.6278 37.3858 99.6278ZM37.5137 98.875C37.8451 98.875 38.1245 98.8099 38.3517 98.6797C38.5814 98.5495 38.7542 98.3814 38.8702 98.1754C38.9886 97.9695 39.0478 97.7528 39.0478 97.5256V96.7585C39.0123 96.8011 38.9341 96.8402 38.8134 96.8757C38.695 96.9089 38.5577 96.9384 38.4015 96.9645C38.2476 96.9882 38.0972 97.0095 37.9505 97.0284C37.806 97.045 37.6889 97.0592 37.5989 97.071C37.3811 97.0994 37.1775 97.1456 36.9881 97.2095C36.8011 97.2711 36.6496 97.3646 36.5336 97.4901C36.4199 97.6132 36.3631 97.7812 36.3631 97.9943C36.3631 98.2855 36.4708 98.5057 36.6863 98.6548C36.9041 98.8016 37.1799 98.875 37.5137 98.875ZM43.7166 92.2273H44.7251L46.7422 95.6222H46.8274L48.8445 92.2273H49.853L47.2251 96.5028V99.5H46.3445V96.5028L43.7166 92.2273Z" fill="var(--colors-neutral-neutral-800)"/>
<path d="M147.125 99.5994C146.59 99.5994 146.134 99.4538 145.758 99.1626C145.381 98.8691 145.094 98.4441 144.895 97.8878C144.696 97.3291 144.597 96.6544 144.597 95.8636C144.597 95.0777 144.696 94.4065 144.895 93.8501C145.096 93.2914 145.385 92.8653 145.761 92.5717C146.14 92.2758 146.595 92.1278 147.125 92.1278C147.655 92.1278 148.109 92.2758 148.485 92.5717C148.864 92.8653 149.153 93.2914 149.352 93.8501C149.553 94.4065 149.653 95.0777 149.653 95.8636C149.653 96.6544 149.554 97.3291 149.355 97.8878C149.156 98.4441 148.869 98.8691 148.492 99.1626C148.116 99.4538 147.66 99.5994 147.125 99.5994ZM147.125 98.8182C147.655 98.8182 148.067 98.5625 148.361 98.0511C148.654 97.5398 148.801 96.8106 148.801 95.8636C148.801 95.2339 148.734 94.6977 148.599 94.255C148.466 93.8123 148.274 93.4749 148.023 93.2429C147.775 93.0109 147.475 92.8949 147.125 92.8949C146.599 92.8949 146.189 93.1541 145.893 93.6726C145.597 94.1887 145.449 94.919 145.449 95.8636C145.449 96.4934 145.515 97.0284 145.648 97.4688C145.78 97.9091 145.971 98.2441 146.219 98.4737C146.47 98.7034 146.772 98.8182 147.125 98.8182ZM153.83 99.5V94.0455H154.639V94.8977H154.71C154.824 94.6065 155.007 94.3804 155.261 94.2195C155.514 94.0561 155.818 93.9744 156.173 93.9744C156.533 93.9744 156.833 94.0561 157.072 94.2195C157.313 94.3804 157.501 94.6065 157.636 94.8977H157.693C157.833 94.616 158.042 94.3923 158.322 94.2266C158.601 94.0585 158.936 93.9744 159.327 93.9744C159.814 93.9744 160.213 94.1271 160.523 94.4325C160.834 94.7356 160.989 95.2079 160.989 95.8494V99.5H160.151V95.8494C160.151 95.447 160.04 95.1593 159.82 94.9865C159.6 94.8137 159.341 94.7273 159.043 94.7273C158.659 94.7273 158.362 94.8433 158.151 95.0753C157.941 95.3049 157.835 95.5961 157.835 95.9489V99.5H156.983V95.7642C156.983 95.4541 156.882 95.2043 156.681 95.0149C156.48 94.8232 156.221 94.7273 155.903 94.7273C155.686 94.7273 155.482 94.7853 155.293 94.9013C155.106 95.0173 154.954 95.1783 154.838 95.3842C154.724 95.5878 154.668 95.8234 154.668 96.0909V99.5H153.83ZM162.521 99.5V94.0455H163.331V94.8977H163.402C163.515 94.6065 163.699 94.3804 163.952 94.2195C164.205 94.0561 164.51 93.9744 164.865 93.9744C165.225 93.9744 165.524 94.0561 165.763 94.2195C166.005 94.3804 166.193 94.6065 166.328 94.8977H166.385C166.524 94.616 166.734 94.3923 167.013 94.2266C167.292 94.0585 167.627 93.9744 168.018 93.9744C168.506 93.9744 168.905 94.1271 169.215 94.4325C169.525 94.7356 169.68 95.2079 169.68 95.8494V99.5H168.842V95.8494C168.842 95.447 168.732 95.1593 168.512 94.9865C168.292 94.8137 168.032 94.7273 167.734 94.7273C167.35 94.7273 167.053 94.8433 166.843 95.0753C166.632 95.3049 166.527 95.5961 166.527 95.9489V99.5H165.674V95.7642C165.674 95.4541 165.574 95.2043 165.373 95.0149C165.171 94.8232 164.912 94.7273 164.595 94.7273C164.377 94.7273 164.173 94.7853 163.984 94.9013C163.797 95.0173 163.645 95.1783 163.529 95.3842C163.416 95.5878 163.359 95.8234 163.359 96.0909V99.5H162.521Z" fill="var(--colors-neutral-neutral-800)"/>
<path d="M19.125 131.5H16.8807V124.227H19.2244C19.9299 124.227 20.5336 124.373 21.0355 124.664C21.5374 124.953 21.9221 125.368 22.1896 125.911C22.4571 126.45 22.5909 127.097 22.5909 127.849C22.5909 128.607 22.456 129.259 22.1861 129.806C21.9162 130.351 21.5232 130.77 21.0071 131.063C20.491 131.354 19.8636 131.5 19.125 131.5ZM17.7614 130.719H19.0682C19.6695 130.719 20.1679 130.603 20.5632 130.371C20.9586 130.139 21.2533 129.808 21.4474 129.38C21.6416 128.951 21.7386 128.441 21.7386 127.849C21.7386 127.262 21.6428 126.757 21.451 126.333C21.2592 125.907 20.9728 125.58 20.5916 125.353C20.2105 125.123 19.7358 125.009 19.1676 125.009H17.7614V130.719ZM26.2415 131.614C25.7159 131.614 25.2625 131.498 24.8814 131.266C24.5026 131.031 24.2102 130.705 24.0043 130.286C23.8007 129.864 23.6989 129.374 23.6989 128.815C23.6989 128.257 23.8007 127.764 24.0043 127.338C24.2102 126.91 24.4967 126.576 24.8636 126.337C25.233 126.095 25.6638 125.974 26.1562 125.974C26.4403 125.974 26.7209 126.022 26.9979 126.116C27.2749 126.211 27.527 126.365 27.7543 126.578C27.9815 126.789 28.1626 127.068 28.2976 127.416C28.4325 127.764 28.5 128.193 28.5 128.702V129.057H24.2955V128.332H27.6477C27.6477 128.025 27.5862 127.75 27.4631 127.509C27.3423 127.267 27.1695 127.076 26.9446 126.937C26.7221 126.797 26.4593 126.727 26.1562 126.727C25.8224 126.727 25.5336 126.81 25.2898 126.976C25.0483 127.139 24.8625 127.352 24.7322 127.615C24.602 127.878 24.5369 128.16 24.5369 128.46V128.943C24.5369 129.355 24.608 129.704 24.75 129.991C24.8944 130.275 25.0945 130.491 25.3501 130.641C25.6058 130.787 25.9029 130.861 26.2415 130.861C26.4616 130.861 26.6605 130.83 26.8381 130.768C27.018 130.705 27.1731 130.61 27.3033 130.484C27.4335 130.357 27.5341 130.198 27.6051 130.009L28.4148 130.236C28.3295 130.51 28.1863 130.752 27.9851 130.96C27.7839 131.166 27.5353 131.327 27.2393 131.443C26.9434 131.557 26.6108 131.614 26.2415 131.614ZM30.6129 124.227V131.5H29.7749V124.227H30.6129ZM34.5201 126.045V126.756H31.6934V126.045H34.5201ZM32.5172 124.739H33.3553V129.938C33.3553 130.174 33.3896 130.352 33.4583 130.47C33.5293 130.586 33.6193 130.664 33.7282 130.705C33.8394 130.742 33.9566 130.761 34.0797 130.761C34.1721 130.761 34.2478 130.757 34.307 130.747C34.3662 130.735 34.4135 130.726 34.449 130.719L34.6195 131.472C34.5627 131.493 34.4834 131.514 34.3816 131.536C34.2798 131.559 34.1507 131.571 33.9945 131.571C33.7578 131.571 33.5257 131.52 33.2985 131.418C33.0736 131.317 32.8865 131.161 32.7374 130.953C32.5906 130.745 32.5172 130.482 32.5172 130.165V124.739ZM37.3858 131.628C37.0402 131.628 36.7265 131.563 36.4448 131.433C36.1631 131.3 35.9393 131.109 35.7736 130.861C35.6079 130.61 35.525 130.307 35.525 129.952C35.525 129.639 35.5866 129.386 35.7097 129.192C35.8328 128.995 35.9973 128.841 36.2033 128.73C36.4093 128.619 36.6365 128.536 36.8851 128.482C37.1361 128.425 37.3882 128.38 37.6415 128.347C37.973 128.304 38.2417 128.272 38.4476 128.251C38.656 128.227 38.8075 128.188 38.9022 128.134C38.9992 128.079 39.0478 127.984 39.0478 127.849V127.821C39.0478 127.471 38.9519 127.198 38.7601 127.004C38.5707 126.81 38.2831 126.713 37.8972 126.713C37.4971 126.713 37.1834 126.801 36.9561 126.976C36.7289 127.151 36.5691 127.338 36.4767 127.537L35.6813 127.253C35.8233 126.921 36.0127 126.663 36.2495 126.479C36.4886 126.292 36.749 126.161 37.0307 126.088C37.3148 126.012 37.5942 125.974 37.8688 125.974C38.044 125.974 38.2452 125.996 38.4725 126.038C38.7021 126.079 38.9235 126.163 39.1365 126.29C39.352 126.418 39.5307 126.611 39.6728 126.869C39.8148 127.127 39.8858 127.473 39.8858 127.906V131.5H39.0478V130.761H39.0051C38.9483 130.88 38.8536 131.006 38.7211 131.141C38.5885 131.276 38.4121 131.391 38.1919 131.486C37.9718 131.58 37.7031 131.628 37.3858 131.628ZM37.5137 130.875C37.8451 130.875 38.1245 130.81 38.3517 130.68C38.5814 130.549 38.7542 130.381 38.8702 130.175C38.9886 129.969 39.0478 129.753 39.0478 129.526V128.759C39.0123 128.801 38.9341 128.84 38.8134 128.876C38.695 128.909 38.5577 128.938 38.4015 128.964C38.2476 128.988 38.0972 129.009 37.9505 129.028C37.806 129.045 37.6889 129.059 37.5989 129.071C37.3811 129.099 37.1775 129.146 36.9881 129.21C36.8011 129.271 36.6496 129.365 36.5336 129.49C36.4199 129.613 36.3631 129.781 36.3631 129.994C36.3631 130.286 36.4708 130.506 36.6863 130.655C36.9041 130.802 37.1799 130.875 37.5137 130.875ZM44.1001 131.5V130.861L48.0206 125.009H44.0575V124.227H49.0717V124.866L45.1513 130.719H49.1143V131.5H44.1001Z" fill="var(--colors-neutral-neutral-800)"/>
<path d="M147.125 131.599C146.59 131.599 146.134 131.454 145.758 131.163C145.381 130.869 145.094 130.444 144.895 129.888C144.696 129.329 144.597 128.654 144.597 127.864C144.597 127.078 144.696 126.406 144.895 125.85C145.096 125.291 145.385 124.865 145.761 124.572C146.14 124.276 146.595 124.128 147.125 124.128C147.655 124.128 148.109 124.276 148.485 124.572C148.864 124.865 149.153 125.291 149.352 125.85C149.553 126.406 149.653 127.078 149.653 127.864C149.653 128.654 149.554 129.329 149.355 129.888C149.156 130.444 148.869 130.869 148.492 131.163C148.116 131.454 147.66 131.599 147.125 131.599ZM147.125 130.818C147.655 130.818 148.067 130.562 148.361 130.051C148.654 129.54 148.801 128.811 148.801 127.864C148.801 127.234 148.734 126.698 148.599 126.255C148.466 125.812 148.274 125.475 148.023 125.243C147.775 125.011 147.475 124.895 147.125 124.895C146.599 124.895 146.189 125.154 145.893 125.673C145.597 126.189 145.449 126.919 145.449 127.864C145.449 128.493 145.515 129.028 145.648 129.469C145.78 129.909 145.971 130.244 146.219 130.474C146.47 130.703 146.772 130.818 147.125 130.818ZM153.83 131.5V126.045H154.639V126.898H154.71C154.824 126.607 155.007 126.38 155.261 126.219C155.514 126.056 155.818 125.974 156.173 125.974C156.533 125.974 156.833 126.056 157.072 126.219C157.313 126.38 157.501 126.607 157.636 126.898H157.693C157.833 126.616 158.042 126.392 158.322 126.227C158.601 126.058 158.936 125.974 159.327 125.974C159.814 125.974 160.213 126.127 160.523 126.433C160.834 126.736 160.989 127.208 160.989 127.849V131.5H160.151V127.849C160.151 127.447 160.04 127.159 159.82 126.987C159.6 126.814 159.341 126.727 159.043 126.727C158.659 126.727 158.362 126.843 158.151 127.075C157.941 127.305 157.835 127.596 157.835 127.949V131.5H156.983V127.764C156.983 127.454 156.882 127.204 156.681 127.015C156.48 126.823 156.221 126.727 155.903 126.727C155.686 126.727 155.482 126.785 155.293 126.901C155.106 127.017 154.954 127.178 154.838 127.384C154.724 127.588 154.668 127.823 154.668 128.091V131.5H153.83ZM162.521 131.5V126.045H163.331V126.898H163.402C163.515 126.607 163.699 126.38 163.952 126.219C164.205 126.056 164.51 125.974 164.865 125.974C165.225 125.974 165.524 126.056 165.763 126.219C166.005 126.38 166.193 126.607 166.328 126.898H166.385C166.524 126.616 166.734 126.392 167.013 126.227C167.292 126.058 167.627 125.974 168.018 125.974C168.506 125.974 168.905 126.127 169.215 126.433C169.525 126.736 169.68 127.208 169.68 127.849V131.5H168.842V127.849C168.842 127.447 168.732 127.159 168.512 126.987C168.292 126.814 168.032 126.727 167.734 126.727C167.35 126.727 167.053 126.843 166.843 127.075C166.632 127.305 166.527 127.596 166.527 127.949V131.5H165.674V127.764C165.674 127.454 165.574 127.204 165.373 127.015C165.171 126.823 164.912 126.727 164.595 126.727C164.377 126.727 164.173 126.785 163.984 126.901C163.797 127.017 163.645 127.178 163.529 127.384C163.416 127.588 163.359 127.823 163.359 128.091V131.5H162.521Z" fill="var(--colors-neutral-neutral-800)"/>
<path d="M19.125 163.5H16.8807V156.227H19.2244C19.9299 156.227 20.5336 156.373 21.0355 156.664C21.5374 156.953 21.9221 157.368 22.1896 157.911C22.4571 158.45 22.5909 159.097 22.5909 159.849C22.5909 160.607 22.456 161.259 22.1861 161.806C21.9162 162.351 21.5232 162.77 21.0071 163.063C20.491 163.354 19.8636 163.5 19.125 163.5ZM17.7614 162.719H19.0682C19.6695 162.719 20.1679 162.603 20.5632 162.371C20.9586 162.139 21.2533 161.808 21.4474 161.38C21.6416 160.951 21.7386 160.441 21.7386 159.849C21.7386 159.262 21.6428 158.757 21.451 158.333C21.2592 157.907 20.9728 157.58 20.5916 157.353C20.2105 157.123 19.7358 157.009 19.1676 157.009H17.7614V162.719ZM26.2415 163.614C25.7159 163.614 25.2625 163.498 24.8814 163.266C24.5026 163.031 24.2102 162.705 24.0043 162.286C23.8007 161.864 23.6989 161.374 23.6989 160.815C23.6989 160.257 23.8007 159.764 24.0043 159.338C24.2102 158.91 24.4967 158.576 24.8636 158.337C25.233 158.095 25.6638 157.974 26.1562 157.974C26.4403 157.974 26.7209 158.022 26.9979 158.116C27.2749 158.211 27.527 158.365 27.7543 158.578C27.9815 158.789 28.1626 159.068 28.2976 159.416C28.4325 159.764 28.5 160.193 28.5 160.702V161.057H24.2955V160.332H27.6477C27.6477 160.025 27.5862 159.75 27.4631 159.509C27.3423 159.267 27.1695 159.076 26.9446 158.937C26.7221 158.797 26.4593 158.727 26.1562 158.727C25.8224 158.727 25.5336 158.81 25.2898 158.976C25.0483 159.139 24.8625 159.352 24.7322 159.615C24.602 159.878 24.5369 160.16 24.5369 160.46V160.943C24.5369 161.355 24.608 161.704 24.75 161.991C24.8944 162.275 25.0945 162.491 25.3501 162.641C25.6058 162.787 25.9029 162.861 26.2415 162.861C26.4616 162.861 26.6605 162.83 26.8381 162.768C27.018 162.705 27.1731 162.61 27.3033 162.484C27.4335 162.357 27.5341 162.198 27.6051 162.009L28.4148 162.236C28.3295 162.51 28.1863 162.752 27.9851 162.96C27.7839 163.166 27.5353 163.327 27.2393 163.443C26.9434 163.557 26.6108 163.614 26.2415 163.614ZM30.6129 156.227V163.5H29.7749V156.227H30.6129ZM34.5201 158.045V158.756H31.6934V158.045H34.5201ZM32.5172 156.739H33.3553V161.938C33.3553 162.174 33.3896 162.352 33.4583 162.47C33.5293 162.586 33.6193 162.664 33.7282 162.705C33.8394 162.742 33.9566 162.761 34.0797 162.761C34.1721 162.761 34.2478 162.757 34.307 162.747C34.3662 162.735 34.4135 162.726 34.449 162.719L34.6195 163.472C34.5627 163.493 34.4834 163.514 34.3816 163.536C34.2798 163.559 34.1507 163.571 33.9945 163.571C33.7578 163.571 33.5257 163.52 33.2985 163.418C33.0736 163.317 32.8865 163.161 32.7374 162.953C32.5906 162.745 32.5172 162.482 32.5172 162.165V156.739ZM37.3858 163.628C37.0402 163.628 36.7265 163.563 36.4448 163.433C36.1631 163.3 35.9393 163.109 35.7736 162.861C35.6079 162.61 35.525 162.307 35.525 161.952C35.525 161.639 35.5866 161.386 35.7097 161.192C35.8328 160.995 35.9973 160.841 36.2033 160.73C36.4093 160.619 36.6365 160.536 36.8851 160.482C37.1361 160.425 37.3882 160.38 37.6415 160.347C37.973 160.304 38.2417 160.272 38.4476 160.251C38.656 160.227 38.8075 160.188 38.9022 160.134C38.9992 160.079 39.0478 159.984 39.0478 159.849V159.821C39.0478 159.471 38.9519 159.198 38.7601 159.004C38.5707 158.81 38.2831 158.713 37.8972 158.713C37.4971 158.713 37.1834 158.801 36.9561 158.976C36.7289 159.151 36.5691 159.338 36.4767 159.537L35.6813 159.253C35.8233 158.921 36.0127 158.663 36.2495 158.479C36.4886 158.292 36.749 158.161 37.0307 158.088C37.3148 158.012 37.5942 157.974 37.8688 157.974C38.044 157.974 38.2452 157.996 38.4725 158.038C38.7021 158.079 38.9235 158.163 39.1365 158.29C39.352 158.418 39.5307 158.611 39.6728 158.869C39.8148 159.127 39.8858 159.473 39.8858 159.906V163.5H39.0478V162.761H39.0051C38.9483 162.88 38.8536 163.006 38.7211 163.141C38.5885 163.276 38.4121 163.391 38.1919 163.486C37.9718 163.58 37.7031 163.628 37.3858 163.628ZM37.5137 162.875C37.8451 162.875 38.1245 162.81 38.3517 162.68C38.5814 162.549 38.7542 162.381 38.8702 162.175C38.9886 161.969 39.0478 161.753 39.0478 161.526V160.759C39.0123 160.801 38.9341 160.84 38.8134 160.876C38.695 160.909 38.5577 160.938 38.4015 160.964C38.2476 160.988 38.0972 161.009 37.9505 161.028C37.806 161.045 37.6889 161.059 37.5989 161.071C37.3811 161.099 37.1775 161.146 36.9881 161.21C36.8011 161.271 36.6496 161.365 36.5336 161.49C36.4199 161.613 36.3631 161.781 36.3631 161.994C36.3631 162.286 36.4708 162.506 36.6863 162.655C36.9041 162.802 37.1799 162.875 37.5137 162.875ZM45.8331 163.628C45.4875 163.628 45.1738 163.563 44.892 163.433C44.6103 163.3 44.3866 163.109 44.2209 162.861C44.0552 162.61 43.9723 162.307 43.9723 161.952C43.9723 161.639 44.0339 161.386 44.157 161.192C44.2801 160.995 44.4446 160.841 44.6506 160.73C44.8565 160.619 45.0838 160.536 45.3324 160.482C45.5833 160.425 45.8355 160.38 46.0888 160.347C46.4202 160.304 46.6889 160.272 46.8949 160.251C47.1032 160.227 47.2547 160.188 47.3494 160.134C47.4465 160.079 47.495 159.984 47.495 159.849V159.821C47.495 159.471 47.3991 159.198 47.2074 159.004C47.018 158.81 46.7304 158.713 46.3445 158.713C45.9444 158.713 45.6307 158.801 45.4034 158.976C45.1761 159.151 45.0163 159.338 44.924 159.537L44.1286 159.253C44.2706 158.921 44.46 158.663 44.6967 158.479C44.9358 158.292 45.1963 158.161 45.478 158.088C45.7621 158.012 46.0414 157.974 46.3161 157.974C46.4912 157.974 46.6925 157.996 46.9197 158.038C47.1494 158.079 47.3707 158.163 47.5838 158.29C47.7992 158.418 47.978 158.611 48.12 158.869C48.2621 159.127 48.3331 159.473 48.3331 159.906V163.5H47.495V162.761H47.4524C47.3956 162.88 47.3009 163.006 47.1683 163.141C47.0357 163.276 46.8594 163.391 46.6392 163.486C46.419 163.58 46.1503 163.628 45.8331 163.628ZM45.9609 162.875C46.2924 162.875 46.5717 162.81 46.799 162.68C47.0286 162.549 47.2015 162.381 47.3175 162.175C47.4358 161.969 47.495 161.753 47.495 161.526V160.759C47.4595 160.801 47.3814 160.84 47.2607 160.876C47.1423 160.909 47.005 160.938 46.8487 160.964C46.6948 160.988 46.5445 161.009 46.3977 161.028C46.2533 161.045 46.1361 161.059 46.0462 161.071C45.8284 161.099 45.6248 161.146 45.4354 161.21C45.2483 161.271 45.0968 161.365 44.9808 161.49C44.8672 161.613 44.8104 161.781 44.8104 161.994C44.8104 162.286 44.9181 162.506 45.1335 162.655C45.3513 162.802 45.6271 162.875 45.9609 162.875ZM50.7008 160.219V163.5H49.8627V158.045H50.6724V158.898H50.7434C50.8713 158.621 51.0654 158.398 51.3258 158.23C51.5862 158.06 51.9224 157.974 52.3343 157.974C52.7037 157.974 53.0268 158.05 53.3038 158.202C53.5808 158.351 53.7962 158.578 53.9501 158.884C54.104 159.187 54.1809 159.57 54.1809 160.034V163.5H53.3429V160.091C53.3429 159.662 53.2316 159.329 53.0091 159.089C52.7865 158.848 52.4811 158.727 52.0929 158.727C51.8253 158.727 51.5862 158.785 51.3755 158.901C51.1672 159.017 51.0027 159.187 50.8819 159.409C50.7612 159.632 50.7008 159.902 50.7008 160.219ZM57.9141 165.659C57.5092 165.659 57.1612 165.607 56.87 165.503C56.5788 165.401 56.3362 165.266 56.142 165.098C55.9503 164.932 55.7976 164.755 55.6839 164.565L56.3516 164.097C56.4273 164.196 56.5232 164.31 56.6392 164.438C56.7552 164.568 56.9138 164.68 57.1151 164.775C57.3187 164.872 57.585 164.92 57.9141 164.92C58.3544 164.92 58.7178 164.814 59.0043 164.601C59.2907 164.388 59.4339 164.054 59.4339 163.599V162.491H59.3629C59.3014 162.591 59.2138 162.714 59.1001 162.861C58.9889 163.005 58.8279 163.134 58.6172 163.248C58.4089 163.359 58.1271 163.415 57.772 163.415C57.3317 163.415 56.9363 163.311 56.5859 163.102C56.2379 162.894 55.9621 162.591 55.7585 162.193C55.5573 161.795 55.4567 161.312 55.4567 160.744C55.4567 160.186 55.5549 159.699 55.7514 159.285C55.9479 158.868 56.2214 158.546 56.5717 158.319C56.9221 158.089 57.3269 157.974 57.7862 157.974C58.1413 157.974 58.4231 158.034 58.6314 158.152C58.8421 158.268 59.0031 158.401 59.1143 158.55C59.228 158.696 59.3156 158.817 59.3771 158.912H59.4624V158.045H60.272V163.656C60.272 164.125 60.1655 164.506 59.9524 164.8C59.7417 165.096 59.4576 165.312 59.1001 165.45C58.745 165.589 58.3497 165.659 57.9141 165.659ZM57.8857 162.662C58.2218 162.662 58.5059 162.585 58.7379 162.431C58.9699 162.277 59.1463 162.056 59.267 161.767C59.3878 161.478 59.4482 161.133 59.4482 160.73C59.4482 160.337 59.389 159.99 59.2706 159.69C59.1522 159.389 58.977 159.153 58.745 158.983C58.513 158.812 58.2266 158.727 57.8857 158.727C57.5305 158.727 57.2346 158.817 56.9979 158.997C56.7635 159.177 56.5871 159.419 56.4688 159.722C56.3527 160.025 56.2947 160.361 56.2947 160.73C56.2947 161.109 56.3539 161.444 56.4723 161.735C56.593 162.024 56.7706 162.251 57.005 162.417C57.2417 162.58 57.5353 162.662 57.8857 162.662ZM62.6442 156.227V163.5H61.8061V156.227H62.6442ZM66.4661 163.614C65.9405 163.614 65.4872 163.498 65.106 163.266C64.7272 163.031 64.4348 162.705 64.2289 162.286C64.0253 161.864 63.9235 161.374 63.9235 160.815C63.9235 160.257 64.0253 159.764 64.2289 159.338C64.4348 158.91 64.7213 158.576 65.0882 158.337C65.4576 158.095 65.8884 157.974 66.3809 157.974C66.665 157.974 66.9455 158.022 67.2225 158.116C67.4995 158.211 67.7516 158.365 67.9789 158.578C68.2061 158.789 68.3873 159.068 68.5222 159.416C68.6571 159.764 68.7246 160.193 68.7246 160.702V161.057H64.5201V160.332H67.8723C67.8723 160.025 67.8108 159.75 67.6877 159.509C67.5669 159.267 67.3941 159.076 67.1692 158.937C66.9467 158.797 66.6839 158.727 66.3809 158.727C66.0471 158.727 65.7582 158.81 65.5144 158.976C65.2729 159.139 65.0871 159.352 64.9569 159.615C64.8266 159.878 64.7615 160.16 64.7615 160.46V160.943C64.7615 161.355 64.8326 161.704 64.9746 161.991C65.119 162.275 65.3191 162.491 65.5748 162.641C65.8304 162.787 66.1275 162.861 66.4661 162.861C66.6863 162.861 66.8851 162.83 67.0627 162.768C67.2426 162.705 67.3977 162.61 67.5279 162.484C67.6581 162.357 67.7587 162.198 67.8297 162.009L68.6394 162.236C68.5542 162.51 68.4109 162.752 68.2097 162.96C68.0085 163.166 67.7599 163.327 67.464 163.443C67.168 163.557 66.8354 163.614 66.4661 163.614Z" fill="var(--colors-neutral-neutral-800)"/>
<path d="M147.125 163.599C146.59 163.599 146.134 163.454 145.758 163.163C145.381 162.869 145.094 162.444 144.895 161.888C144.696 161.329 144.597 160.654 144.597 159.864C144.597 159.078 144.696 158.406 144.895 157.85C145.096 157.291 145.385 156.865 145.761 156.572C146.14 156.276 146.595 156.128 147.125 156.128C147.655 156.128 148.109 156.276 148.485 156.572C148.864 156.865 149.153 157.291 149.352 157.85C149.553 158.406 149.653 159.078 149.653 159.864C149.653 160.654 149.554 161.329 149.355 161.888C149.156 162.444 148.869 162.869 148.492 163.163C148.116 163.454 147.66 163.599 147.125 163.599ZM147.125 162.818C147.655 162.818 148.067 162.562 148.361 162.051C148.654 161.54 148.801 160.811 148.801 159.864C148.801 159.234 148.734 158.698 148.599 158.255C148.466 157.812 148.274 157.475 148.023 157.243C147.775 157.011 147.475 156.895 147.125 156.895C146.599 156.895 146.189 157.154 145.893 157.673C145.597 158.189 145.449 158.919 145.449 159.864C145.449 160.493 145.515 161.028 145.648 161.469C145.78 161.909 145.971 162.244 146.219 162.474C146.47 162.703 146.772 162.818 147.125 162.818ZM152.523 159.438C152.222 159.438 151.947 159.364 151.699 159.217C151.453 159.071 151.256 158.874 151.109 158.628C150.963 158.379 150.889 158.105 150.889 157.804C150.889 157.503 150.963 157.23 151.109 156.984C151.256 156.735 151.453 156.537 151.699 156.391C151.947 156.244 152.222 156.17 152.523 156.17C152.823 156.17 153.097 156.244 153.343 156.391C153.592 156.537 153.789 156.735 153.936 156.984C154.083 157.23 154.156 157.503 154.156 157.804C154.156 158.105 154.083 158.379 153.936 158.628C153.789 158.874 153.592 159.071 153.343 159.217C153.097 159.364 152.823 159.438 152.523 159.438ZM152.523 158.727C152.693 158.727 152.848 158.686 152.988 158.603C153.128 158.52 153.239 158.409 153.322 158.269C153.405 158.129 153.446 157.974 153.446 157.804C153.446 157.634 153.405 157.478 153.322 157.339C153.239 157.199 153.128 157.088 152.988 157.005C152.848 156.922 152.693 156.881 152.523 156.881C152.352 156.881 152.197 156.922 152.058 157.005C151.918 157.088 151.807 157.199 151.724 157.339C151.641 157.478 151.599 157.634 151.599 157.804C151.599 157.974 151.641 158.129 151.724 158.269C151.807 158.409 151.918 158.52 152.058 158.603C152.197 158.686 152.352 158.727 152.523 158.727Z" fill="var(--colors-neutral-neutral-800)"/>
<rect x="16.5" y="192.5" width="271" height="31" fill="white"/>
<rect x="16.5" y="192.5" width="271" height="31" stroke="var(--colors-neutral-neutral-800)"/>
<path d="M136.888 213.669C136.404 213.669 135.966 213.58 135.575 213.401C135.184 213.218 134.874 212.955 134.645 212.61C134.42 212.265 134.307 211.843 134.307 211.342C134.307 210.911 134.39 210.557 134.556 210.278C134.722 210 134.945 209.78 135.227 209.617C135.509 209.455 135.824 209.332 136.172 209.249C136.52 209.166 136.874 209.103 137.236 209.06C137.693 209.007 138.064 208.964 138.349 208.931C138.634 208.895 138.841 208.837 138.971 208.757C139.1 208.678 139.165 208.548 139.165 208.369V208.335C139.165 207.9 139.042 207.564 138.797 207.325C138.555 207.087 138.193 206.967 137.713 206.967C137.212 206.967 136.818 207.078 136.53 207.3C136.245 207.519 136.047 207.763 135.938 208.031L134.541 207.713C134.707 207.249 134.949 206.875 135.267 206.589C135.588 206.301 135.958 206.092 136.376 205.963C136.793 205.83 137.232 205.764 137.693 205.764C137.998 205.764 138.321 205.801 138.662 205.874C139.007 205.943 139.329 206.072 139.627 206.261C139.929 206.45 140.175 206.72 140.368 207.072C140.56 207.42 140.656 207.872 140.656 208.429V213.5H139.204V212.456H139.145C139.049 212.648 138.904 212.837 138.712 213.023C138.52 213.208 138.273 213.362 137.971 213.485C137.67 213.608 137.309 213.669 136.888 213.669ZM137.211 212.476C137.622 212.476 137.973 212.395 138.265 212.232C138.56 212.07 138.783 211.858 138.936 211.596C139.092 211.331 139.17 211.047 139.17 210.746V209.761C139.117 209.814 139.014 209.864 138.861 209.911C138.712 209.954 138.541 209.992 138.349 210.025C138.157 210.055 137.97 210.083 137.787 210.109C137.605 210.133 137.453 210.152 137.33 210.169C137.042 210.205 136.778 210.267 136.54 210.353C136.304 210.439 136.115 210.563 135.973 210.726C135.834 210.885 135.764 211.097 135.764 211.362C135.764 211.73 135.9 212.009 136.172 212.197C136.443 212.383 136.79 212.476 137.211 212.476ZM142.636 216.364V205.864H144.088V207.102H144.212C144.298 206.942 144.422 206.759 144.585 206.55C144.747 206.341 144.973 206.159 145.261 206.003C145.549 205.844 145.931 205.764 146.404 205.764C147.021 205.764 147.571 205.92 148.055 206.232C148.539 206.543 148.918 206.992 149.194 207.579C149.472 208.165 149.611 208.871 149.611 209.697C149.611 210.522 149.474 211.23 149.199 211.82C148.923 212.406 148.546 212.859 148.065 213.177C147.584 213.492 147.036 213.649 146.419 213.649C145.955 213.649 145.576 213.571 145.281 213.415C144.989 213.26 144.761 213.077 144.595 212.869C144.429 212.66 144.301 212.474 144.212 212.312H144.123V216.364H142.636ZM144.093 209.682C144.093 210.219 144.171 210.689 144.326 211.094C144.482 211.498 144.708 211.815 145.002 212.043C145.297 212.269 145.659 212.381 146.086 212.381C146.53 212.381 146.902 212.264 147.2 212.028C147.498 211.79 147.724 211.467 147.876 211.059C148.032 210.651 148.11 210.192 148.11 209.682C148.11 209.178 148.033 208.726 147.881 208.325C147.732 207.924 147.507 207.607 147.205 207.375C146.907 207.143 146.534 207.027 146.086 207.027C145.655 207.027 145.291 207.138 144.993 207.36C144.698 207.582 144.474 207.892 144.321 208.29C144.169 208.687 144.093 209.152 144.093 209.682ZM151.277 216.364V205.864H152.728V207.102H152.853C152.939 206.942 153.063 206.759 153.225 206.55C153.388 206.341 153.613 206.159 153.902 206.003C154.19 205.844 154.571 205.764 155.045 205.764C155.662 205.764 156.212 205.92 156.696 206.232C157.18 206.543 157.559 206.992 157.834 207.579C158.113 208.165 158.252 208.871 158.252 209.697C158.252 210.522 158.114 211.23 157.839 211.82C157.564 212.406 157.186 212.859 156.706 213.177C156.225 213.492 155.676 213.649 155.06 213.649C154.596 213.649 154.217 213.571 153.922 213.415C153.63 213.26 153.401 213.077 153.235 212.869C153.07 212.66 152.942 212.474 152.853 212.312H152.763V216.364H151.277ZM152.733 209.682C152.733 210.219 152.811 210.689 152.967 211.094C153.123 211.498 153.348 211.815 153.643 212.043C153.938 212.269 154.299 212.381 154.727 212.381C155.171 212.381 155.542 212.264 155.841 212.028C156.139 211.79 156.364 211.467 156.517 211.059C156.672 210.651 156.75 210.192 156.75 209.682C156.75 209.178 156.674 208.726 156.522 208.325C156.373 207.924 156.147 207.607 155.846 207.375C155.547 207.143 155.174 207.027 154.727 207.027C154.296 207.027 153.931 207.138 153.633 207.36C153.338 207.582 153.114 207.892 152.962 208.29C152.81 208.687 152.733 209.152 152.733 209.682ZM161.404 203.318V213.5H159.917V203.318H161.404ZM164.343 216.364C164.121 216.364 163.919 216.345 163.737 216.309C163.554 216.276 163.419 216.239 163.329 216.2L163.687 214.982C163.959 215.054 164.201 215.086 164.413 215.076C164.625 215.066 164.812 214.987 164.975 214.837C165.14 214.688 165.286 214.445 165.412 214.107L165.596 213.599L162.802 205.864H164.393L166.327 211.79H166.406L168.34 205.864H169.936L166.789 214.519C166.643 214.917 166.458 215.253 166.232 215.528C166.007 215.807 165.739 216.016 165.427 216.155C165.115 216.294 164.754 216.364 164.343 216.364Z" fill="var(--colors-neutral-neutral-800)"/>
</svg>
