<svg width="304" height="32" viewBox="0 0 304 32" fill="none" xmlns="http://www.w3.org/2000/svg">
<mask id="path-1-inside-1_3832_44801" fill="white">
<path d="M16 4H288V28H16V4Z"/>
</mask>
<path d="M288 27.5H16V28.5H288V27.5Z" fill="var(--colors-neutral-neutral-500)" mask="url(#path-1-inside-1_3832_44801)"/>
<path d="M17.179 19.5H16.2557L18.9261 12.2273H19.8352L22.5057 19.5H21.5824L19.4091 13.3778H19.3523L17.179 19.5ZM17.5199 16.6591H21.2415V17.4403H17.5199V16.6591ZM25.5845 19.6136C25.13 19.6136 24.7287 19.4988 24.3807 19.2692C24.0327 19.0372 23.7604 18.7105 23.5639 18.2891C23.3674 17.8653 23.2692 17.3646 23.2692 16.7869C23.2692 16.214 23.3674 15.7169 23.5639 15.2955C23.7604 14.8741 24.0339 14.5485 24.3842 14.3189C24.7346 14.0893 25.1394 13.9744 25.5987 13.9744C25.9538 13.9744 26.2344 14.0336 26.4403 14.152C26.6487 14.268 26.8073 14.4006 26.9162 14.5497C27.0275 14.6965 27.1139 14.8172 27.1754 14.9119H27.2464V12.2273H28.0845V19.5H27.2749V18.6619H27.1754C27.1139 18.7614 27.0263 18.8868 26.9126 19.0384C26.799 19.1875 26.6368 19.3213 26.4261 19.4396C26.2154 19.5556 25.9349 19.6136 25.5845 19.6136ZM25.6982 18.8608C26.0343 18.8608 26.3184 18.7732 26.5504 18.598C26.7824 18.4205 26.9588 18.1754 27.0795 17.8629C27.2003 17.5481 27.2607 17.1847 27.2607 16.7727C27.2607 16.3655 27.2015 16.0092 27.0831 15.7038C26.9647 15.3961 26.7895 15.157 26.5575 14.9865C26.3255 14.8137 26.0391 14.7273 25.6982 14.7273C25.343 14.7273 25.0471 14.8184 24.8104 15.0007C24.576 15.1806 24.3996 15.4257 24.2812 15.7358C24.1652 16.0436 24.1072 16.3892 24.1072 16.7727C24.1072 17.161 24.1664 17.5137 24.2848 17.831C24.4055 18.1458 24.5831 18.3968 24.8175 18.5838C25.0542 18.7685 25.3478 18.8608 25.6982 18.8608ZM31.7955 19.6136C31.3409 19.6136 30.9396 19.4988 30.5916 19.2692C30.2436 19.0372 29.9714 18.7105 29.7749 18.2891C29.5784 17.8653 29.4801 17.3646 29.4801 16.7869C29.4801 16.214 29.5784 15.7169 29.7749 15.2955C29.9714 14.8741 30.2448 14.5485 30.5952 14.3189C30.9455 14.0893 31.3504 13.9744 31.8097 13.9744C32.1648 13.9744 32.4453 14.0336 32.6513 14.152C32.8596 14.268 33.0182 14.4006 33.1271 14.5497C33.2384 14.6965 33.3248 14.8172 33.3864 14.9119H33.4574V12.2273H34.2955V19.5H33.4858V18.6619H33.3864C33.3248 18.7614 33.2372 18.8868 33.1236 19.0384C33.0099 19.1875 32.8478 19.3213 32.6371 19.4396C32.4264 19.5556 32.1458 19.6136 31.7955 19.6136ZM31.9091 18.8608C32.2453 18.8608 32.5294 18.7732 32.7614 18.598C32.9934 18.4205 33.1697 18.1754 33.2905 17.8629C33.4112 17.5481 33.4716 17.1847 33.4716 16.7727C33.4716 16.3655 33.4124 16.0092 33.294 15.7038C33.1757 15.3961 33.0005 15.157 32.7685 14.9865C32.5365 14.8137 32.25 14.7273 31.9091 14.7273C31.554 14.7273 31.258 14.8184 31.0213 15.0007C30.7869 15.1806 30.6106 15.4257 30.4922 15.7358C30.3762 16.0436 30.3182 16.3892 30.3182 16.7727C30.3182 17.161 30.3774 17.5137 30.4957 17.831C30.6165 18.1458 30.794 18.3968 31.0284 18.5838C31.2652 18.7685 31.5587 18.8608 31.9091 18.8608ZM39.5973 12.2273V19.5H38.7592V12.2273H39.5973ZM41.1323 19.5V14.0455H41.9703V19.5H41.1323ZM41.5584 13.1364C41.3951 13.1364 41.2542 13.0807 41.1358 12.9695C41.0198 12.8582 40.9618 12.7244 40.9618 12.5682C40.9618 12.4119 41.0198 12.2782 41.1358 12.1669C41.2542 12.0556 41.3951 12 41.5584 12C41.7218 12 41.8614 12.0556 41.9775 12.1669C42.0958 12.2782 42.155 12.4119 42.155 12.5682C42.155 12.7244 42.0958 12.8582 41.9775 12.9695C41.8614 13.0807 41.7218 13.1364 41.5584 13.1364ZM44.3434 16.2188V19.5H43.5053V14.0455H44.315V14.8977H44.386C44.5138 14.6207 44.708 14.3982 44.9684 14.2301C45.2288 14.0597 45.565 13.9744 45.9769 13.9744C46.3462 13.9744 46.6694 14.0502 46.9464 14.2017C47.2234 14.3509 47.4388 14.5781 47.5927 14.8835C47.7466 15.1866 47.8235 15.5701 47.8235 16.0341V19.5H46.9854V16.0909C46.9854 15.6624 46.8742 15.3286 46.6516 15.0895C46.4291 14.848 46.1237 14.7273 45.7354 14.7273C45.4679 14.7273 45.2288 14.7853 45.0181 14.9013C44.8098 15.0173 44.6452 15.1866 44.5245 15.4091C44.4038 15.6316 44.3434 15.9015 44.3434 16.2188ZM50.1362 17.5114L50.122 16.4744H50.2924L52.6788 14.0455H53.7157L51.1731 16.6165H51.1021L50.1362 17.5114ZM49.3549 19.5V12.2273H50.193V19.5H49.3549ZM52.8208 19.5L50.6902 16.8011L51.2868 16.2188L53.8862 19.5H52.8208Z" fill="var(--colors-neutral-neutral-500)"/>
</svg>
