<svg width="24" height="24" viewBox="0 0 24 24" fill="none" xmlns="http://www.w3.org/2000/svg">
<rect width="24" height="24" rx="2" fill="var(--colors-primary-primary-300)"/>
<path d="M5.68778 19.1154C4.96003 19.1154 4.34295 18.8611 3.83655 18.3526C3.33013 17.844 3.07693 17.2265 3.07693 16.5H1.6923V6.61537C1.6923 6.15512 1.84647 5.77083 2.1548 5.4625C2.46313 5.15417 2.84743 5 3.3077 5H16.5385V8.61537H18.8462L22.3077 13.2692V16.5H20.6923C20.6923 17.2265 20.4376 17.844 19.9282 18.3526C19.4187 18.8611 18.8002 19.1154 18.0724 19.1154C17.3447 19.1154 16.7276 18.8611 16.2212 18.3526C15.7147 17.844 15.4615 17.2265 15.4615 16.5H8.3077C8.3077 17.2308 8.05298 17.8494 7.54355 18.3558C7.03413 18.8622 6.41554 19.1154 5.68778 19.1154ZM5.6923 18.1154C6.1423 18.1154 6.52403 17.9586 6.8375 17.6452C7.15097 17.3317 7.3077 16.95 7.3077 16.5C7.3077 16.05 7.15097 15.6683 6.8375 15.3548C6.52403 15.0414 6.1423 14.8846 5.6923 14.8846C5.2423 14.8846 4.86057 15.0414 4.54712 15.3548C4.23366 15.6683 4.07692 16.05 4.07692 16.5C4.07692 16.95 4.23366 17.3317 4.54712 17.6452C4.86057 17.9586 5.2423 18.1154 5.6923 18.1154ZM2.6923 15.5H3.33847C3.48077 15.059 3.77052 14.6795 4.2077 14.3615C4.64488 14.0436 5.13975 13.8846 5.6923 13.8846C6.21923 13.8846 6.7077 14.0404 7.1577 14.3519C7.6077 14.6635 7.90385 15.0462 8.04615 15.5H15.5385V6H3.3077C3.15385 6 3.01283 6.0641 2.88462 6.1923C2.75641 6.32052 2.6923 6.46154 2.6923 6.61537V15.5ZM18.0769 18.1154C18.5269 18.1154 18.9087 17.9586 19.2221 17.6452C19.5356 17.3317 19.6923 16.95 19.6923 16.5C19.6923 16.05 19.5356 15.6683 19.2221 15.3548C18.9087 15.0414 18.5269 14.8846 18.0769 14.8846C17.6269 14.8846 17.2452 15.0414 16.9317 15.3548C16.6183 15.6683 16.4615 16.05 16.4615 16.5C16.4615 16.95 16.6183 17.3317 16.9317 17.6452C17.2452 17.9586 17.6269 18.1154 18.0769 18.1154ZM16.5385 13.5H21.25L18.3077 9.61538H16.5385V13.5Z" fill="var(--colors-primary-primary-700)"/>
</svg>
