<svg width="1440" height="34" viewBox="0 0 1440 34" fill="none" xmlns="http://www.w3.org/2000/svg">
<path d="M77.8295 14.4545C77.7784 14.0227 77.571 13.6875 77.2074 13.4489C76.8438 13.2102 76.3977 13.0909 75.8693 13.0909C75.483 13.0909 75.1449 13.1534 74.8551 13.2784C74.5682 13.4034 74.3438 13.5753 74.1818 13.794C74.0227 14.0128 73.9432 14.2614 73.9432 14.5398C73.9432 14.7727 73.9986 14.973 74.1094 15.1406C74.223 15.3054 74.3679 15.4432 74.544 15.554C74.7202 15.6619 74.9048 15.7514 75.098 15.8224C75.2912 15.8906 75.4688 15.946 75.6307 15.9886L76.517 16.2273C76.7443 16.2869 76.9972 16.3693 77.2756 16.4744C77.5568 16.5795 77.8253 16.723 78.081 16.9048C78.3395 17.0838 78.5526 17.3139 78.7202 17.5952C78.8878 17.8764 78.9716 18.2216 78.9716 18.6307C78.9716 19.1023 78.848 19.5284 78.6009 19.9091C78.3565 20.2898 77.9986 20.5923 77.527 20.8168C77.0582 21.0412 76.4886 21.1534 75.8182 21.1534C75.1932 21.1534 74.652 21.0526 74.1946 20.8509C73.7401 20.6491 73.3821 20.3679 73.1207 20.0071C72.8622 19.6463 72.7159 19.2273 72.6818 18.75H73.7727C73.8011 19.0795 73.9119 19.3523 74.1051 19.5682C74.3011 19.7812 74.5483 19.9403 74.8466 20.0455C75.1477 20.1477 75.4716 20.1989 75.8182 20.1989C76.2216 20.1989 76.5838 20.1335 76.9048 20.0028C77.2259 19.8693 77.4801 19.6847 77.6676 19.4489C77.8551 19.2102 77.9489 18.9318 77.9489 18.6136C77.9489 18.3239 77.8679 18.0881 77.706 17.9062C77.544 17.7244 77.331 17.5767 77.0668 17.4631C76.8026 17.3494 76.517 17.25 76.2102 17.1648L75.1364 16.858C74.4545 16.6619 73.9148 16.3821 73.517 16.0185C73.1193 15.6548 72.9205 15.179 72.9205 14.5909C72.9205 14.1023 73.0526 13.6761 73.3168 13.3125C73.5838 12.946 73.9418 12.6619 74.3906 12.4602C74.8423 12.2557 75.3466 12.1534 75.9034 12.1534C76.4659 12.1534 76.9659 12.2543 77.4034 12.456C77.8409 12.6548 78.1875 12.9276 78.4432 13.2741C78.7017 13.6207 78.8381 14.0142 78.8523 14.4545H77.8295ZM83.2319 21.1364C82.641 21.1364 82.1225 20.9957 81.6765 20.7145C81.2333 20.4332 80.8867 20.0398 80.6367 19.5341C80.3896 19.0284 80.266 18.4375 80.266 17.7614C80.266 17.0795 80.3896 16.4844 80.6367 15.9759C80.8867 15.4673 81.2333 15.0724 81.6765 14.7912C82.1225 14.5099 82.641 14.3693 83.2319 14.3693C83.8228 14.3693 84.3398 14.5099 84.783 14.7912C85.229 15.0724 85.5756 15.4673 85.8228 15.9759C86.0728 16.4844 86.1978 17.0795 86.1978 17.7614C86.1978 18.4375 86.0728 19.0284 85.8228 19.5341C85.5756 20.0398 85.229 20.4332 84.783 20.7145C84.3398 20.9957 83.8228 21.1364 83.2319 21.1364ZM83.2319 20.233C83.6808 20.233 84.0501 20.1179 84.3398 19.8878C84.6296 19.6577 84.8441 19.3551 84.9833 18.9801C85.1225 18.6051 85.1921 18.1989 85.1921 17.7614C85.1921 17.3239 85.1225 16.9162 84.9833 16.5384C84.8441 16.1605 84.6296 15.8551 84.3398 15.6222C84.0501 15.3892 83.6808 15.2727 83.2319 15.2727C82.783 15.2727 82.4137 15.3892 82.1239 15.6222C81.8342 15.8551 81.6197 16.1605 81.4805 16.5384C81.3413 16.9162 81.2717 17.3239 81.2717 17.7614C81.2717 18.1989 81.3413 18.6051 81.4805 18.9801C81.6197 19.3551 81.8342 19.6577 82.1239 19.8878C82.4137 20.1179 82.783 20.233 83.2319 20.233ZM87.733 21V14.4545H88.7045V15.4432H88.7727C88.892 15.1193 89.108 14.8565 89.4205 14.6548C89.733 14.4531 90.0852 14.3523 90.4773 14.3523C90.5511 14.3523 90.6435 14.3537 90.7543 14.3565C90.8651 14.3594 90.9489 14.3636 91.0057 14.3693V15.392C90.9716 15.3835 90.8935 15.3707 90.7713 15.3537C90.652 15.3338 90.5256 15.3239 90.392 15.3239C90.0739 15.3239 89.7898 15.3906 89.5398 15.5241C89.2926 15.6548 89.0966 15.8366 88.9517 16.0696C88.8097 16.2997 88.7386 16.5625 88.7386 16.858V21H87.733ZM95.4545 14.4545V15.3068H92.0625V14.4545H95.4545ZM93.0511 12.8864H94.0568V19.125C94.0568 19.4091 94.098 19.6222 94.1804 19.7642C94.2656 19.9034 94.3736 19.9972 94.5043 20.0455C94.6378 20.0909 94.7784 20.1136 94.9261 20.1136C95.0369 20.1136 95.1278 20.108 95.1989 20.0966C95.2699 20.0824 95.3267 20.071 95.3693 20.0625L95.5739 20.9659C95.5057 20.9915 95.4105 21.017 95.2884 21.0426C95.1662 21.071 95.0114 21.0852 94.8239 21.0852C94.5398 21.0852 94.2614 21.0241 93.9886 20.902C93.7188 20.7798 93.4943 20.5938 93.3153 20.3438C93.1392 20.0938 93.0511 19.7784 93.0511 19.3977V12.8864ZM97.7003 21.0682C97.4901 21.0682 97.3097 20.9929 97.1591 20.8423C97.0085 20.6918 96.9332 20.5114 96.9332 20.3011C96.9332 20.0909 97.0085 19.9105 97.1591 19.7599C97.3097 19.6094 97.4901 19.5341 97.7003 19.5341C97.9105 19.5341 98.0909 19.6094 98.2415 19.7599C98.392 19.9105 98.4673 20.0909 98.4673 20.3011C98.4673 20.4403 98.4318 20.5682 98.3608 20.6847C98.2926 20.8011 98.2003 20.8949 98.0838 20.9659C97.9702 21.0341 97.8423 21.0682 97.7003 21.0682ZM97.7003 16.2102C97.4901 16.2102 97.3097 16.1349 97.1591 15.9844C97.0085 15.8338 96.9332 15.6534 96.9332 15.4432C96.9332 15.233 97.0085 15.0526 97.1591 14.902C97.3097 14.7514 97.4901 14.6761 97.7003 14.6761C97.9105 14.6761 98.0909 14.7514 98.2415 14.902C98.392 15.0526 98.4673 15.233 98.4673 15.4432C98.4673 15.5824 98.4318 15.7102 98.3608 15.8267C98.2926 15.9432 98.2003 16.0369 98.0838 16.108C97.9702 16.1761 97.8423 16.2102 97.7003 16.2102Z" fill="#808080"/>
<path d="M109.415 21H108.307L111.511 12.2727H112.602L115.807 21H114.699L112.091 13.6534H112.023L109.415 21ZM109.824 17.5909H114.29V18.5284H109.824V17.5909ZM118.036 12.2727V21H117.03V12.2727H118.036ZM119.877 23.4545V14.4545H120.849V15.4943H120.968C121.042 15.3807 121.145 15.2358 121.275 15.0597C121.409 14.8807 121.599 14.7216 121.846 14.5824C122.096 14.4403 122.434 14.3693 122.86 14.3693C123.412 14.3693 123.897 14.5071 124.318 14.7827C124.738 15.0582 125.066 15.4489 125.302 15.9545C125.538 16.4602 125.656 17.0568 125.656 17.7443C125.656 18.4375 125.538 19.0384 125.302 19.5469C125.066 20.0526 124.74 20.4446 124.322 20.723C123.904 20.9986 123.423 21.1364 122.877 21.1364C122.457 21.1364 122.12 21.0668 121.868 20.9276C121.615 20.7855 121.42 20.625 121.284 20.446C121.147 20.2642 121.042 20.1136 120.968 19.9943H120.883V23.4545H119.877ZM120.866 17.7273C120.866 18.2216 120.939 18.6577 121.083 19.0355C121.228 19.4105 121.44 19.7045 121.718 19.9176C121.997 20.1278 122.338 20.233 122.741 20.233C123.162 20.233 123.512 20.1222 123.794 19.9006C124.078 19.6761 124.291 19.375 124.433 18.9972C124.578 18.6165 124.65 18.1932 124.65 17.7273C124.65 17.267 124.579 16.8523 124.437 16.483C124.298 16.1108 124.086 15.8168 123.802 15.6009C123.521 15.3821 123.167 15.2727 122.741 15.2727C122.332 15.2727 121.988 15.3764 121.71 15.5838C121.431 15.7884 121.221 16.0753 121.079 16.4446C120.937 16.8111 120.866 17.2386 120.866 17.7273ZM128.196 17.0625V21H127.19V12.2727H128.196V15.4773H128.281C128.434 15.1392 128.664 14.8707 128.971 14.6719C129.281 14.4702 129.693 14.3693 130.207 14.3693C130.653 14.3693 131.044 14.4588 131.379 14.6378C131.714 14.8139 131.974 15.0852 132.159 15.4517C132.346 15.8153 132.44 16.2784 132.44 16.8409V21H131.434V16.9091C131.434 16.3892 131.299 15.9872 131.029 15.7031C130.762 15.4162 130.392 15.2727 129.917 15.2727C129.588 15.2727 129.292 15.3423 129.031 15.4815C128.772 15.6207 128.568 15.8239 128.417 16.0909C128.27 16.358 128.196 16.6818 128.196 17.0625ZM136.206 21.1534C135.791 21.1534 135.415 21.0753 135.077 20.919C134.739 20.7599 134.47 20.5312 134.271 20.233C134.072 19.9318 133.973 19.5682 133.973 19.142C133.973 18.767 134.047 18.4631 134.195 18.2301C134.342 17.9943 134.54 17.8097 134.787 17.6761C135.034 17.5426 135.307 17.4432 135.605 17.3778C135.906 17.3097 136.209 17.2557 136.513 17.2159C136.911 17.1648 137.233 17.1264 137.48 17.1009C137.73 17.0724 137.912 17.0256 138.026 16.9602C138.142 16.8949 138.2 16.7812 138.2 16.6193V16.5852C138.2 16.1648 138.085 15.8381 137.855 15.6051C137.628 15.3722 137.283 15.2557 136.82 15.2557C136.339 15.2557 135.963 15.3608 135.69 15.571C135.418 15.7812 135.226 16.0057 135.115 16.2443L134.161 15.9034C134.331 15.5057 134.558 15.196 134.842 14.9744C135.129 14.75 135.442 14.5937 135.78 14.5057C136.121 14.4148 136.456 14.3693 136.786 14.3693C136.996 14.3693 137.237 14.3949 137.51 14.446C137.786 14.4943 138.051 14.5952 138.307 14.7486C138.565 14.902 138.78 15.1335 138.95 15.4432C139.121 15.7528 139.206 16.1676 139.206 16.6875V21H138.2V20.1136H138.149C138.081 20.2557 137.967 20.4077 137.808 20.5696C137.649 20.7315 137.438 20.8693 137.173 20.983C136.909 21.0966 136.587 21.1534 136.206 21.1534ZM136.359 20.25C136.757 20.25 137.092 20.1719 137.365 20.0156C137.641 19.8594 137.848 19.6577 137.987 19.4105C138.129 19.1634 138.2 18.9034 138.2 18.6307V17.7102C138.158 17.7614 138.064 17.8082 137.919 17.8509C137.777 17.8906 137.612 17.9261 137.425 17.9574C137.24 17.9858 137.06 18.0114 136.884 18.0341C136.71 18.054 136.57 18.071 136.462 18.0852C136.2 18.1193 135.956 18.1747 135.729 18.2514C135.504 18.3253 135.322 18.4375 135.183 18.5881C135.047 18.7358 134.979 18.9375 134.979 19.1932C134.979 19.5426 135.108 19.8068 135.366 19.9858C135.628 20.1619 135.959 20.25 136.359 20.25ZM141.178 21V12.2727H142.184V15.4943H142.269C142.343 15.3807 142.445 15.2358 142.576 15.0597C142.709 14.8807 142.9 14.7216 143.147 14.5824C143.397 14.4403 143.735 14.3693 144.161 14.3693C144.712 14.3693 145.198 14.5071 145.618 14.7827C146.039 15.0582 146.367 15.4489 146.603 15.9545C146.838 16.4602 146.956 17.0568 146.956 17.7443C146.956 18.4375 146.838 19.0384 146.603 19.5469C146.367 20.0526 146.04 20.4446 145.623 20.723C145.205 20.9986 144.723 21.1364 144.178 21.1364C143.757 21.1364 143.421 21.0668 143.168 20.9276C142.915 20.7855 142.721 20.625 142.584 20.446C142.448 20.2642 142.343 20.1136 142.269 19.9943H142.15V21H141.178ZM142.167 17.7273C142.167 18.2216 142.239 18.6577 142.384 19.0355C142.529 19.4105 142.74 19.7045 143.019 19.9176C143.297 20.1278 143.638 20.233 144.042 20.233C144.462 20.233 144.813 20.1222 145.094 19.9006C145.378 19.6761 145.591 19.375 145.733 18.9972C145.878 18.6165 145.951 18.1932 145.951 17.7273C145.951 17.267 145.88 16.8523 145.738 16.483C145.598 16.1108 145.387 15.8168 145.103 15.6009C144.821 15.3821 144.468 15.2727 144.042 15.2727C143.632 15.2727 143.289 15.3764 143.01 15.5838C142.732 15.7884 142.522 16.0753 142.38 16.4446C142.238 16.8111 142.167 17.2386 142.167 17.7273ZM151.239 21.1364C150.608 21.1364 150.064 20.9972 149.607 20.7188C149.152 20.4375 148.801 20.0455 148.554 19.5426C148.31 19.0369 148.188 18.4489 148.188 17.7784C148.188 17.108 148.31 16.517 148.554 16.0057C148.801 15.4915 149.145 15.0909 149.586 14.804C150.029 14.5142 150.546 14.3693 151.137 14.3693C151.478 14.3693 151.814 14.4261 152.147 14.5398C152.479 14.6534 152.782 14.8381 153.054 15.0938C153.327 15.3466 153.544 15.6818 153.706 16.0994C153.868 16.517 153.949 17.0312 153.949 17.642V18.0682H148.904V17.1989H152.926C152.926 16.8295 152.853 16.5 152.705 16.2102C152.56 15.9205 152.353 15.6918 152.083 15.5241C151.816 15.3565 151.5 15.2727 151.137 15.2727C150.736 15.2727 150.39 15.3722 150.097 15.571C149.807 15.767 149.584 16.0227 149.428 16.3381C149.272 16.6534 149.194 16.9915 149.194 17.3523V17.9318C149.194 18.4261 149.279 18.8452 149.449 19.1889C149.623 19.5298 149.863 19.7898 150.169 19.9688C150.476 20.1449 150.833 20.233 151.239 20.233C151.503 20.233 151.742 20.196 151.955 20.1222C152.171 20.0455 152.357 19.9318 152.513 19.7812C152.669 19.6278 152.79 19.4375 152.875 19.2102L153.847 19.483C153.745 19.8125 153.573 20.1023 153.331 20.3523C153.09 20.5994 152.792 20.7926 152.436 20.9318C152.081 21.0682 151.682 21.1364 151.239 21.1364ZM158.326 14.4545V15.3068H154.934V14.4545H158.326ZM155.922 12.8864H156.928V19.125C156.928 19.4091 156.969 19.6222 157.051 19.7642C157.137 19.9034 157.245 19.9972 157.375 20.0455C157.509 20.0909 157.65 20.1136 157.797 20.1136C157.908 20.1136 157.999 20.108 158.07 20.0966C158.141 20.0824 158.198 20.071 158.24 20.0625L158.445 20.9659C158.377 20.9915 158.282 21.017 158.159 21.0426C158.037 21.071 157.882 21.0852 157.695 21.0852C157.411 21.0852 157.132 21.0241 156.86 20.902C156.59 20.7798 156.365 20.5938 156.186 20.3438C156.01 20.0938 155.922 19.7784 155.922 19.3977V12.8864ZM159.838 21V14.4545H160.844V21H159.838ZM160.35 13.3636C160.154 13.3636 159.985 13.2969 159.843 13.1634C159.703 13.0298 159.634 12.8693 159.634 12.6818C159.634 12.4943 159.703 12.3338 159.843 12.2003C159.985 12.0668 160.154 12 160.35 12C160.546 12 160.713 12.0668 160.853 12.2003C160.995 12.3338 161.066 12.4943 161.066 12.6818C161.066 12.8693 160.995 13.0298 160.853 13.1634C160.713 13.2969 160.546 13.3636 160.35 13.3636ZM165.345 21.1364C164.732 21.1364 164.203 20.9915 163.76 20.7017C163.317 20.4119 162.976 20.0128 162.737 19.5043C162.499 18.9957 162.379 18.4148 162.379 17.7614C162.379 17.0966 162.501 16.5099 162.746 16.0014C162.993 15.4901 163.337 15.0909 163.777 14.804C164.22 14.5142 164.737 14.3693 165.328 14.3693C165.788 14.3693 166.203 14.4545 166.572 14.625C166.942 14.7955 167.244 15.0341 167.48 15.3409C167.716 15.6477 167.862 16.0057 167.919 16.4148H166.913C166.837 16.1165 166.666 15.8523 166.402 15.6222C166.141 15.3892 165.788 15.2727 165.345 15.2727C164.953 15.2727 164.609 15.375 164.314 15.5795C164.021 15.7812 163.793 16.0668 163.628 16.4361C163.466 16.8026 163.385 17.233 163.385 17.7273C163.385 18.233 163.464 18.6733 163.624 19.0483C163.786 19.4233 164.013 19.7145 164.305 19.9219C164.601 20.1293 164.947 20.233 165.345 20.233C165.607 20.233 165.844 20.1875 166.057 20.0966C166.27 20.0057 166.45 19.875 166.598 19.7045C166.746 19.5341 166.851 19.3295 166.913 19.0909H167.919C167.862 19.4773 167.722 19.8253 167.497 20.1349C167.276 20.4418 166.982 20.6861 166.615 20.8679C166.251 21.0469 165.828 21.1364 165.345 21.1364ZM171.315 21.1534C170.901 21.1534 170.524 21.0753 170.186 20.919C169.848 20.7599 169.58 20.5312 169.381 20.233C169.182 19.9318 169.082 19.5682 169.082 19.142C169.082 18.767 169.156 18.4631 169.304 18.2301C169.452 17.9943 169.649 17.8097 169.896 17.6761C170.143 17.5426 170.416 17.4432 170.714 17.3778C171.016 17.3097 171.318 17.2557 171.622 17.2159C172.02 17.1648 172.342 17.1264 172.589 17.1009C172.839 17.0724 173.021 17.0256 173.135 16.9602C173.251 16.8949 173.31 16.7812 173.31 16.6193V16.5852C173.31 16.1648 173.195 15.8381 172.964 15.6051C172.737 15.3722 172.392 15.2557 171.929 15.2557C171.449 15.2557 171.072 15.3608 170.8 15.571C170.527 15.7812 170.335 16.0057 170.224 16.2443L169.27 15.9034C169.44 15.5057 169.668 15.196 169.952 14.9744C170.239 14.75 170.551 14.5937 170.889 14.5057C171.23 14.4148 171.565 14.3693 171.895 14.3693C172.105 14.3693 172.347 14.3949 172.619 14.446C172.895 14.4943 173.161 14.5952 173.416 14.7486C173.675 14.902 173.889 15.1335 174.06 15.4432C174.23 15.7528 174.315 16.1676 174.315 16.6875V21H173.31V20.1136H173.259C173.19 20.2557 173.077 20.4077 172.918 20.5696C172.759 20.7315 172.547 20.8693 172.283 20.983C172.018 21.0966 171.696 21.1534 171.315 21.1534ZM171.469 20.25C171.866 20.25 172.202 20.1719 172.474 20.0156C172.75 19.8594 172.957 19.6577 173.097 19.4105C173.239 19.1634 173.31 18.9034 173.31 18.6307V17.7102C173.267 17.7614 173.173 17.8082 173.028 17.8509C172.886 17.8906 172.722 17.9261 172.534 17.9574C172.349 17.9858 172.169 18.0114 171.993 18.0341C171.82 18.054 171.679 18.071 171.571 18.0852C171.31 18.1193 171.065 18.1747 170.838 18.2514C170.614 18.3253 170.432 18.4375 170.293 18.5881C170.156 18.7358 170.088 18.9375 170.088 19.1932C170.088 19.5426 170.217 19.8068 170.476 19.9858C170.737 20.1619 171.068 20.25 171.469 20.25ZM177.157 12.2727V21H176.151V12.2727H177.157Z" fill="#222222"/>
<path d="M195 19.7019L189.692 14.3942L190.4 13.6865L195 18.2865L199.6 13.6865L200.308 14.3942L195 19.7019Z" fill="#222222"/>
<rect x="1312" y="5" width="24" height="24" rx="4" fill="#F7F7F7"/>
<path d="M1316 16V9H1323V16H1316ZM1316 25V18H1323V25H1316ZM1325 16V9H1332V16H1325ZM1325 25V18H1332V25H1325ZM1317 15H1322V10H1317V15ZM1326 15H1331V10H1326V15ZM1326 24H1331V19H1326V24ZM1317 24H1322V19H1317V24Z" fill="#222222"/>
<rect x="1344" y="5" width="24" height="24" rx="4" fill="white"/>
<path d="M1348.16 21.6539C1347.97 21.6539 1347.82 21.5917 1347.69 21.4673C1347.56 21.3429 1347.5 21.1887 1347.5 21.0048C1347.5 20.8209 1347.56 20.6651 1347.69 20.5375C1347.81 20.41 1347.97 20.3462 1348.15 20.3462C1348.33 20.3462 1348.49 20.4084 1348.62 20.5328C1348.74 20.6572 1348.81 20.8114 1348.81 20.9953C1348.81 21.1792 1348.75 21.335 1348.62 21.4625C1348.5 21.5901 1348.34 21.6539 1348.16 21.6539ZM1348.16 17.6539C1347.97 17.6539 1347.82 17.5917 1347.69 17.4673C1347.56 17.3429 1347.5 17.1887 1347.5 17.0048C1347.5 16.8209 1347.56 16.6651 1347.69 16.5375C1347.81 16.41 1347.97 16.3462 1348.15 16.3462C1348.33 16.3462 1348.49 16.4084 1348.62 16.5328C1348.74 16.6572 1348.81 16.8114 1348.81 16.9953C1348.81 17.1792 1348.75 17.335 1348.62 17.4625C1348.5 17.5901 1348.34 17.6539 1348.16 17.6539ZM1348.16 13.6539C1347.97 13.6539 1347.82 13.5917 1347.69 13.4673C1347.56 13.3428 1347.5 13.1887 1347.5 13.0048C1347.5 12.8208 1347.56 12.6651 1347.69 12.5375C1347.81 12.41 1347.97 12.3462 1348.15 12.3462C1348.33 12.3462 1348.49 12.4084 1348.62 12.5328C1348.74 12.6572 1348.81 12.8114 1348.81 12.9953C1348.81 13.1792 1348.75 13.335 1348.62 13.4625C1348.5 13.5901 1348.34 13.6539 1348.16 13.6539ZM1351.23 21.5V20.5H1364.5V21.5H1351.23ZM1351.23 17.5V16.5H1364.5V17.5H1351.23ZM1351.23 13.5V12.5H1364.5V13.5H1351.23Z" fill="#222222"/>
</svg>
