<svg width="24" height="24" viewBox="0 0 24 24" fill="none" xmlns="http://www.w3.org/2000/svg">
<path d="M11.4116 16.9616C10.1577 16.8013 9.10897 16.2551 8.26537 15.3231C7.42179 14.391 7 13.2833 7 12C7 10.6111 7.48611 9.43056 8.45833 8.45833C9.43056 7.48611 10.6111 7 12 7C13.2833 7 14.391 7.41859 15.3231 8.25578C16.2551 9.09294 16.8013 10.1384 16.9615 11.3923L15.8808 11.075C15.6652 10.175 15.2008 9.4375 14.4877 8.8625C13.7745 8.2875 12.9453 8 12 8C10.9 8 9.95833 8.39167 9.175 9.175C8.39167 9.95833 8 10.9 8 12C8 12.95 8.29071 13.7833 8.87213 14.5C9.45353 15.2167 10.1878 15.6833 11.075 15.9L11.4116 16.9616ZM12.6116 20.9692C12.5096 20.9897 12.4077 21 12.3058 21H12C10.755 21 9.585 20.7638 8.49 20.2915C7.395 19.8192 6.4425 19.1782 5.6325 18.3685C4.8225 17.5588 4.18125 16.6066 3.70875 15.512C3.23625 14.4174 3 13.2479 3 12.0034C3 10.7588 3.23616 9.58872 3.70848 8.4931C4.18081 7.39748 4.82183 6.44444 5.63153 5.63398C6.44123 4.82353 7.39337 4.18192 8.48795 3.70915C9.58255 3.23638 10.7521 3 11.9966 3C13.2412 3 14.4113 3.23625 15.5069 3.70875C16.6025 4.18125 17.5556 4.8225 18.366 5.6325C19.1765 6.4425 19.8181 7.395 20.2908 8.49C20.7636 9.585 21 10.755 21 12V12.2962C21 12.3949 20.9897 12.4936 20.9692 12.5923L20 12.3V12C20 9.76667 19.225 7.875 17.675 6.325C16.125 4.775 14.2333 4 12 4C9.76667 4 7.875 4.775 6.325 6.325C4.775 7.875 4 9.76667 4 12C4 14.2333 4.775 16.125 6.325 17.675C7.875 19.225 9.76667 20 12 20H12.3L12.6116 20.9692ZM19.7558 20.7885L14.9615 15.975L14.0385 18.7693L12 12L18.7693 14.0385L15.975 14.9616L20.7885 19.7558L19.7558 20.7885Z" fill="#B3B3B3"/>
</svg>
