<svg width="288" height="24" viewBox="0 0 288 24" fill="none" xmlns="http://www.w3.org/2000/svg">
<path d="M0.880682 16V8.72727H1.76136V15.2188H5.14205V16H0.880682ZM8.60795 16.1136C8.11553 16.1136 7.68348 15.9964 7.31179 15.7621C6.94247 15.5277 6.65365 15.1998 6.44531 14.7784C6.23935 14.357 6.13636 13.8646 6.13636 13.3011C6.13636 12.733 6.23935 12.237 6.44531 11.8132C6.65365 11.3894 6.94247 11.0604 7.31179 10.826C7.68348 10.5916 8.11553 10.4744 8.60795 10.4744C9.10038 10.4744 9.53125 10.5916 9.90057 10.826C10.2723 11.0604 10.5611 11.3894 10.767 11.8132C10.9754 12.237 11.0795 12.733 11.0795 13.3011C11.0795 13.8646 10.9754 14.357 10.767 14.7784C10.5611 15.1998 10.2723 15.5277 9.90057 15.7621C9.53125 15.9964 9.10038 16.1136 8.60795 16.1136ZM8.60795 15.3608C8.98201 15.3608 9.28977 15.2649 9.53125 15.0732C9.77273 14.8814 9.95147 14.6293 10.0675 14.3168C10.1835 14.0043 10.2415 13.6657 10.2415 13.3011C10.2415 12.9366 10.1835 12.5968 10.0675 12.282C9.95147 11.9671 9.77273 11.7126 9.53125 11.5185C9.28977 11.3243 8.98201 11.2273 8.60795 11.2273C8.2339 11.2273 7.92614 11.3243 7.68466 11.5185C7.44318 11.7126 7.26444 11.9671 7.14844 12.282C7.03243 12.5968 6.97443 12.9366 6.97443 13.3011C6.97443 13.6657 7.03243 14.0043 7.14844 14.3168C7.26444 14.6293 7.44318 14.8814 7.68466 15.0732C7.92614 15.2649 8.2339 15.3608 8.60795 15.3608ZM13.964 16.1278C13.6183 16.1278 13.3046 16.0627 13.0229 15.9325C12.7412 15.8 12.5175 15.6094 12.3517 15.3608C12.186 15.1098 12.1032 14.8068 12.1032 14.4517C12.1032 14.1392 12.1647 13.8859 12.2878 13.6918C12.4109 13.4953 12.5755 13.3414 12.7814 13.2301C12.9874 13.1188 13.2147 13.036 13.4632 12.9815C13.7142 12.9247 13.9663 12.8797 14.2196 12.8466C14.5511 12.804 14.8198 12.772 15.0257 12.7507C15.2341 12.727 15.3856 12.688 15.4803 12.6335C15.5774 12.5791 15.6259 12.4844 15.6259 12.3494V12.321C15.6259 11.9706 15.53 11.6984 15.3382 11.5043C15.1489 11.3101 14.8612 11.2131 14.4753 11.2131C14.0752 11.2131 13.7615 11.3007 13.5343 11.4759C13.307 11.651 13.1472 11.8381 13.0549 12.0369L12.2594 11.7528C12.4015 11.4214 12.5908 11.1634 12.8276 10.9787C13.0667 10.7917 13.3271 10.6615 13.6088 10.5881C13.8929 10.5123 14.1723 10.4744 14.4469 10.4744C14.6221 10.4744 14.8233 10.4957 15.0506 10.5384C15.2802 10.5786 15.5016 10.6626 15.7147 10.7905C15.9301 10.9183 16.1088 11.1113 16.2509 11.3693C16.3929 11.6274 16.464 11.973 16.464 12.4062V16H15.6259V15.2614H15.5833C15.5265 15.3797 15.4318 15.5064 15.2992 15.6413C15.1666 15.7763 14.9902 15.8911 14.7701 15.9858C14.5499 16.0805 14.2812 16.1278 13.964 16.1278ZM14.0918 15.375C14.4232 15.375 14.7026 15.3099 14.9299 15.1797C15.1595 15.0495 15.3323 14.8814 15.4483 14.6754C15.5667 14.4695 15.6259 14.2528 15.6259 14.0256V13.2585C15.5904 13.3011 15.5123 13.3402 15.3915 13.3757C15.2731 13.4089 15.1358 13.4384 14.9796 13.4645C14.8257 13.4882 14.6754 13.5095 14.5286 13.5284C14.3842 13.545 14.267 13.5592 14.177 13.571C13.9592 13.5994 13.7556 13.6456 13.5662 13.7095C13.3792 13.7711 13.2277 13.8646 13.1117 13.9901C12.998 14.1132 12.9412 14.2812 12.9412 14.4943C12.9412 14.7855 13.0489 15.0057 13.2644 15.1548C13.4822 15.3016 13.758 15.375 14.0918 15.375ZM20.0533 16.1136C19.5987 16.1136 19.1974 15.9988 18.8494 15.7692C18.5014 15.5372 18.2292 15.2105 18.0327 14.7891C17.8362 14.3653 17.7379 13.8646 17.7379 13.2869C17.7379 12.714 17.8362 12.2169 18.0327 11.7955C18.2292 11.3741 18.5026 11.0485 18.853 10.8189C19.2034 10.5893 19.6082 10.4744 20.0675 10.4744C20.4226 10.4744 20.7031 10.5336 20.9091 10.652C21.1174 10.768 21.276 10.9006 21.3849 11.0497C21.4962 11.1965 21.5826 11.3172 21.6442 11.4119H21.7152V8.72727H22.5533V16H21.7436V15.1619H21.6442C21.5826 15.2614 21.495 15.3868 21.3814 15.5384C21.2678 15.6875 21.1056 15.8213 20.8949 15.9396C20.6842 16.0556 20.4036 16.1136 20.0533 16.1136ZM20.1669 15.3608C20.5031 15.3608 20.7872 15.2732 21.0192 15.098C21.2512 14.9205 21.4276 14.6754 21.5483 14.3629C21.669 14.0481 21.7294 13.6847 21.7294 13.2727C21.7294 12.8655 21.6702 12.5092 21.5518 12.2038C21.4335 11.8961 21.2583 11.657 21.0263 11.4865C20.7943 11.3137 20.5078 11.2273 20.1669 11.2273C19.8118 11.2273 19.5159 11.3184 19.2791 11.5007C19.0447 11.6806 18.8684 11.9257 18.75 12.2358C18.634 12.5436 18.576 12.8892 18.576 13.2727C18.576 13.661 18.6352 14.0137 18.7536 14.331C18.8743 14.6458 19.0518 14.8968 19.2862 15.0838C19.523 15.2685 19.8165 15.3608 20.1669 15.3608ZM29.4602 16.0994C28.9915 16.0994 28.5736 16.0189 28.2067 15.858C27.8421 15.697 27.5521 15.4732 27.3366 15.1868C27.1236 14.898 27.0076 14.563 26.9886 14.1818H27.8835C27.9025 14.4162 27.983 14.6186 28.125 14.7891C28.267 14.9571 28.4529 15.0874 28.6825 15.1797C28.9122 15.272 29.1667 15.3182 29.446 15.3182C29.7585 15.3182 30.0355 15.2637 30.277 15.1548C30.5185 15.0459 30.7079 14.8944 30.8452 14.7003C30.9825 14.5062 31.0511 14.2812 31.0511 14.0256C31.0511 13.758 30.9848 13.5225 30.8523 13.3189C30.7197 13.1129 30.5256 12.9519 30.2699 12.8359C30.0142 12.7199 29.7017 12.6619 29.3324 12.6619H28.75V11.8807H29.3324C29.6212 11.8807 29.8745 11.8286 30.0923 11.7244C30.3125 11.6203 30.4841 11.4735 30.6072 11.2841C30.7327 11.0947 30.7955 10.8722 30.7955 10.6165C30.7955 10.3703 30.741 10.156 30.6321 9.97372C30.5232 9.79143 30.3693 9.64938 30.1705 9.54759C29.974 9.44579 29.742 9.39489 29.4744 9.39489C29.2235 9.39489 28.9867 9.44105 28.7642 9.53338C28.544 9.62334 28.3641 9.75473 28.2244 9.92756C28.0848 10.098 28.009 10.304 27.9972 10.5455H27.1449C27.1591 10.1643 27.2739 9.83049 27.4893 9.54403C27.7048 9.25521 27.9865 9.0303 28.3345 8.86932C28.6849 8.70833 29.0696 8.62784 29.4886 8.62784C29.9384 8.62784 30.3243 8.71899 30.6463 8.90128C30.9683 9.0812 31.2157 9.31913 31.3885 9.61506C31.5613 9.91098 31.6477 10.2306 31.6477 10.5739C31.6477 10.9834 31.54 11.3326 31.3246 11.6214C31.1115 11.9103 30.8215 12.1103 30.4545 12.2216V12.2784C30.9138 12.3542 31.2725 12.5495 31.5305 12.8643C31.7886 13.1768 31.9176 13.5639 31.9176 14.0256C31.9176 14.4209 31.8099 14.776 31.5945 15.0909C31.3814 15.4034 31.0902 15.6496 30.7209 15.8295C30.3516 16.0095 29.9313 16.0994 29.4602 16.0994ZM35.7422 16H33.4979V8.72727H35.8416C36.5471 8.72727 37.1508 8.87287 37.6527 9.16406C38.1546 9.45289 38.5393 9.86837 38.8068 10.4105C39.0743 10.9503 39.2081 11.5966 39.2081 12.3494C39.2081 13.107 39.0732 13.7592 38.8033 14.3061C38.5334 14.8506 38.1404 15.2696 37.6243 15.5632C37.1082 15.8544 36.4808 16 35.7422 16ZM34.3786 15.2188H35.6854C36.2867 15.2188 36.785 15.1027 37.1804 14.8707C37.5758 14.6387 37.8705 14.3085 38.0646 13.88C38.2588 13.4515 38.3558 12.9413 38.3558 12.3494C38.3558 11.7623 38.2599 11.2569 38.0682 10.8331C37.8764 10.407 37.59 10.0803 37.2088 9.85298C36.8277 9.62334 36.353 9.50852 35.7848 9.50852H34.3786V15.2188ZM49.3501 11H48.4695C48.4174 10.7467 48.3262 10.5241 48.196 10.3324C48.0682 10.1406 47.9119 9.97964 47.7273 9.84943C47.545 9.71686 47.3426 9.61742 47.12 9.55114C46.8975 9.48485 46.6655 9.4517 46.424 9.4517C45.9837 9.4517 45.5848 9.56297 45.2273 9.78551C44.8722 10.008 44.5893 10.3359 44.3786 10.7692C44.1702 11.2024 44.0661 11.7339 44.0661 12.3636C44.0661 12.9934 44.1702 13.5249 44.3786 13.9581C44.5893 14.3913 44.8722 14.7192 45.2273 14.9418C45.5848 15.1643 45.9837 15.2756 46.424 15.2756C46.6655 15.2756 46.8975 15.2424 47.12 15.1761C47.3426 15.1098 47.545 15.0116 47.7273 14.8814C47.9119 14.7488 48.0682 14.5866 48.196 14.3949C48.3262 14.2008 48.4174 13.9782 48.4695 13.7273H49.3501C49.2839 14.099 49.1631 14.4316 48.9879 14.7251C48.8127 15.0187 48.5949 15.2685 48.3345 15.4744C48.0741 15.678 47.7817 15.8331 47.4574 15.9396C47.1354 16.0462 46.791 16.0994 46.424 16.0994C45.8037 16.0994 45.2521 15.9479 44.7692 15.6449C44.2862 15.3419 43.9063 14.911 43.6293 14.3523C43.3523 13.7936 43.2138 13.1307 43.2138 12.3636C43.2138 11.5966 43.3523 10.9337 43.6293 10.375C43.9063 9.81629 44.2862 9.38542 44.7692 9.08239C45.2521 8.77936 45.8037 8.62784 46.424 8.62784C46.791 8.62784 47.1354 8.68111 47.4574 8.78764C47.7817 8.89418 48.0741 9.05043 48.3345 9.25639C48.5949 9.45999 48.8127 9.70857 48.9879 10.0021C49.1631 10.2933 49.2839 10.6259 49.3501 11ZM52.8755 16.1136C52.3831 16.1136 51.9511 15.9964 51.5794 15.7621C51.21 15.5277 50.9212 15.1998 50.7129 14.7784C50.5069 14.357 50.4039 13.8646 50.4039 13.3011C50.4039 12.733 50.5069 12.237 50.7129 11.8132C50.9212 11.3894 51.21 11.0604 51.5794 10.826C51.9511 10.5916 52.3831 10.4744 52.8755 10.4744C53.368 10.4744 53.7988 10.5916 54.1681 10.826C54.5398 11.0604 54.8287 11.3894 55.0346 11.8132C55.243 12.237 55.3471 12.733 55.3471 13.3011C55.3471 13.8646 55.243 14.357 55.0346 14.7784C54.8287 15.1998 54.5398 15.5277 54.1681 15.7621C53.7988 15.9964 53.368 16.1136 52.8755 16.1136ZM52.8755 15.3608C53.2496 15.3608 53.5574 15.2649 53.7988 15.0732C54.0403 14.8814 54.219 14.6293 54.335 14.3168C54.4511 14.0043 54.5091 13.6657 54.5091 13.3011C54.5091 12.9366 54.4511 12.5968 54.335 12.282C54.219 11.9671 54.0403 11.7126 53.7988 11.5185C53.5574 11.3243 53.2496 11.2273 52.8755 11.2273C52.5015 11.2273 52.1937 11.3243 51.9522 11.5185C51.7108 11.7126 51.532 11.9671 51.416 12.282C51.3 12.5968 51.242 12.9366 51.242 13.3011C51.242 13.6657 51.3 14.0043 51.416 14.3168C51.532 14.6293 51.7108 14.8814 51.9522 15.0732C52.1937 15.2649 52.5015 15.3608 52.8755 15.3608ZM57.4645 12.7188V16H56.6264V10.5455H57.4361V11.3977H57.5071C57.6349 11.1207 57.8291 10.8982 58.0895 10.7301C58.3499 10.5597 58.6861 10.4744 59.098 10.4744C59.4673 10.4744 59.7905 10.5502 60.0675 10.7017C60.3445 10.8509 60.5599 11.0781 60.7138 11.3835C60.8677 11.6866 60.9446 12.0701 60.9446 12.5341V16H60.1065V12.5909C60.1065 12.1624 59.9953 11.8286 59.7727 11.5895C59.5502 11.348 59.2448 11.2273 58.8565 11.2273C58.589 11.2273 58.3499 11.2853 58.1392 11.4013C57.9309 11.5173 57.7663 11.6866 57.6456 11.9091C57.5249 12.1316 57.4645 12.4015 57.4645 12.7188ZM64.8482 10.5455V11.2557H62.0215V10.5455H64.8482ZM62.8453 9.23864H63.6834V14.4375C63.6834 14.6742 63.7177 14.8518 63.7864 14.9702C63.8574 15.0862 63.9474 15.1643 64.0563 15.2045C64.1676 15.2424 64.2847 15.2614 64.4078 15.2614C64.5002 15.2614 64.5759 15.2566 64.6351 15.2472C64.6943 15.2353 64.7417 15.2259 64.7772 15.2188L64.9476 15.9716C64.8908 15.9929 64.8115 16.0142 64.7097 16.0355C64.6079 16.0592 64.4789 16.071 64.3226 16.071C64.0859 16.071 63.8539 16.0201 63.6266 15.9183C63.4017 15.8165 63.2147 15.6615 63.0655 15.4531C62.9187 15.2448 62.8453 14.982 62.8453 14.6648V9.23864ZM68.3372 16.1136C67.8116 16.1136 67.3583 15.9976 66.9771 15.7656C66.5983 15.5312 66.3059 15.2045 66.1 14.7855C65.8964 14.3641 65.7946 13.8741 65.7946 13.3153C65.7946 12.7566 65.8964 12.2642 66.1 11.8381C66.3059 11.4096 66.5924 11.0758 66.9593 10.8366C67.3287 10.5952 67.7595 10.4744 68.252 10.4744C68.536 10.4744 68.8166 10.5218 69.0936 10.6165C69.3706 10.7112 69.6227 10.8651 69.85 11.0781C70.0772 11.2888 70.2583 11.5682 70.3933 11.9162C70.5282 12.2642 70.5957 12.6927 70.5957 13.2017V13.5568H66.3912V12.8324H69.7434C69.7434 12.5246 69.6819 12.25 69.5588 12.0085C69.438 11.767 69.2652 11.5765 69.0403 11.4368C68.8178 11.2971 68.555 11.2273 68.252 11.2273C67.9181 11.2273 67.6293 11.3101 67.3855 11.4759C67.144 11.6392 66.9582 11.8523 66.8279 12.1151C66.6977 12.3778 66.6326 12.6596 66.6326 12.9602V13.4432C66.6326 13.8551 66.7037 14.2043 66.8457 14.4908C66.9901 14.7749 67.1902 14.9915 67.4458 15.1406C67.7015 15.2874 67.9986 15.3608 68.3372 15.3608C68.5574 15.3608 68.7562 15.33 68.9338 15.2685C69.1137 15.2045 69.2688 15.1098 69.399 14.9844C69.5292 14.8565 69.6298 14.6979 69.7008 14.5085L70.5105 14.7358C70.4252 15.0104 70.282 15.2519 70.0808 15.4602C69.8796 15.6662 69.631 15.8272 69.335 15.9432C69.0391 16.0568 68.7065 16.1136 68.3372 16.1136ZM72.7086 12.7188V16H71.8706V10.5455H72.6802V11.3977H72.7512C72.8791 11.1207 73.0732 10.8982 73.3336 10.7301C73.594 10.5597 73.9302 10.4744 74.3422 10.4744C74.7115 10.4744 75.0346 10.5502 75.3116 10.7017C75.5886 10.8509 75.804 11.0781 75.9579 11.3835C76.1118 11.6866 76.1887 12.0701 76.1887 12.5341V16H75.3507V12.5909C75.3507 12.1624 75.2394 11.8286 75.0169 11.5895C74.7943 11.348 74.4889 11.2273 74.1007 11.2273C73.8332 11.2273 73.594 11.2853 73.3833 11.4013C73.175 11.5173 73.0105 11.6866 72.8897 11.9091C72.769 12.1316 72.7086 12.4015 72.7086 12.7188ZM80.0923 10.5455V11.2557H77.2656V10.5455H80.0923ZM78.0895 9.23864H78.9276V14.4375C78.9276 14.6742 78.9619 14.8518 79.0305 14.9702C79.1016 15.0862 79.1915 15.1643 79.3004 15.2045C79.4117 15.2424 79.5289 15.2614 79.652 15.2614C79.7443 15.2614 79.8201 15.2566 79.8793 15.2472C79.9384 15.2353 79.9858 15.2259 80.0213 15.2188L80.1918 15.9716C80.1349 15.9929 80.0556 16.0142 79.9538 16.0355C79.852 16.0592 79.723 16.071 79.5668 16.071C79.33 16.071 79.098 16.0201 78.8707 15.9183C78.6458 15.8165 78.4588 15.6615 78.3097 15.4531C78.1629 15.2448 78.0895 14.982 78.0895 14.6648V9.23864Z" fill="#222222"/>
<rect x="248.5" y="0.5" width="39" height="23" rx="11.5" fill="white"/>
<rect x="248.5" y="0.5" width="39" height="23" rx="11.5" stroke="#808080"/>
<circle cx="260" cy="12" r="9" fill="#808080"/>
</svg>
