<svg width="46" height="47" viewBox="0 0 46 47" fill="none" xmlns="http://www.w3.org/2000/svg">
<g filter="url(#filter0_d_5168_45257)">
<rect x="3" y="2" width="40" height="41" rx="4" fill="white" shape-rendering="crispEdges"/>
<rect x="11" y="10.5" width="24" height="24" rx="4" fill="#FDE2F3"/>
<path d="M18.134 27.668C17.49 27.668 16.8973 27.5373 16.356 27.276C15.8147 27.0147 15.3807 26.6367 15.054 26.142C14.7367 25.6473 14.578 25.0407 14.578 24.322H16.062C16.0713 24.7327 16.1647 25.0967 16.342 25.414C16.5193 25.722 16.762 25.96 17.07 26.128C17.3873 26.296 17.742 26.38 18.134 26.38C18.7313 26.38 19.212 26.226 19.576 25.918C19.94 25.61 20.122 25.2133 20.122 24.728C20.122 24.3453 20.0147 24.0327 19.8 23.79C19.5947 23.538 19.3147 23.3513 18.96 23.23C18.6147 23.1087 18.2273 23.048 17.798 23.048H17.28V21.816H17.84C18.2227 21.816 18.5493 21.746 18.82 21.606C19.1 21.4567 19.3147 21.2607 19.464 21.018C19.6133 20.7753 19.688 20.514 19.688 20.234C19.688 19.8047 19.5387 19.464 19.24 19.212C18.9507 18.9507 18.5727 18.82 18.106 18.82C17.5367 18.82 17.0747 18.988 16.72 19.324C16.3653 19.6507 16.174 20.1267 16.146 20.752H14.662C14.69 20.052 14.8627 19.464 15.18 18.988C15.5067 18.512 15.9267 18.1573 16.44 17.924C16.9533 17.6813 17.5133 17.56 18.12 17.56C18.7453 17.56 19.2867 17.6673 19.744 17.882C20.2107 18.0873 20.5747 18.3813 20.836 18.764C21.0973 19.1373 21.228 19.5807 21.228 20.094C21.228 20.4393 21.1533 20.766 21.004 21.074C20.8547 21.382 20.6493 21.648 20.388 21.872C20.136 22.0867 19.842 22.2407 19.506 22.334C19.926 22.3993 20.2947 22.544 20.612 22.768C20.9387 22.9827 21.1953 23.2627 21.382 23.608C21.5687 23.944 21.662 24.322 21.662 24.742C21.662 25.3113 21.5173 25.82 21.228 26.268C20.9387 26.7067 20.528 27.052 19.996 27.304C19.4733 27.5467 18.8527 27.668 18.134 27.668ZM23.5715 27.5V17.728H26.5815C27.2908 17.728 27.9301 17.8447 28.4995 18.078C29.0688 18.302 29.5541 18.6287 29.9555 19.058C30.3568 19.478 30.6648 19.9867 30.8795 20.584C31.0941 21.1813 31.2015 21.8487 31.2015 22.586C31.2015 23.3327 31.0941 24.0093 30.8795 24.616C30.6648 25.2133 30.3568 25.7313 29.9555 26.17C29.5541 26.5993 29.0688 26.9307 28.4995 27.164C27.9301 27.388 27.2908 27.5 26.5815 27.5H23.5715ZM25.0555 26.24H26.5815C27.2161 26.24 27.7621 26.0907 28.2195 25.792C28.6768 25.484 29.0268 25.0547 29.2695 24.504C29.5215 23.9533 29.6475 23.314 29.6475 22.586C29.6475 21.8487 29.5215 21.214 29.2695 20.682C29.0268 20.1407 28.6768 19.7253 28.2195 19.436C27.7621 19.1373 27.2161 18.988 26.5815 18.988H25.0555V26.24Z" fill="#F325A7"/>
</g>
<defs>
<filter id="filter0_d_5168_45257" x="0" y="0" width="46" height="47" filterUnits="userSpaceOnUse" color-interpolation-filters="sRGB">
<feFlood flood-opacity="0" result="BackgroundImageFix"/>
<feColorMatrix in="SourceAlpha" type="matrix" values="0 0 0 0 0 0 0 0 0 0 0 0 0 0 0 0 0 0 127 0" result="hardAlpha"/>
<feOffset dy="1"/>
<feGaussianBlur stdDeviation="1.5"/>
<feComposite in2="hardAlpha" operator="out"/>
<feColorMatrix type="matrix" values="0 0 0 0 0 0 0 0 0 0 0 0 0 0 0 0 0 0 0.2 0"/>
<feBlend mode="normal" in2="BackgroundImageFix" result="effect1_dropShadow_5168_45257"/>
<feBlend mode="normal" in="SourceGraphic" in2="effect1_dropShadow_5168_45257" result="shape"/>
</filter>
</defs>
</svg>
