<svg width="24" height="24" viewBox="0 0 24 24" fill="none" xmlns="http://www.w3.org/2000/svg">
<rect width="24" height="24" rx="2" fill="#FDE2F3"/>
<path d="M10.5 20C10.3667 20 10.2333 19.971 10.1 19.913C9.96665 19.8543 9.84999 19.775 9.74999 19.675L5.29999 15.25L6.04999 14.5C6.14999 14.3833 6.26265 14.304 6.38799 14.262C6.51265 14.2207 6.64165 14.2167 6.77499 14.25L9.94999 14.875V5.5C9.94999 5.08333 10.096 4.72933 10.388 4.438C10.6793 4.146 11.0333 4 11.45 4C11.8667 4 12.221 4.146 12.513 4.438C12.8043 4.72933 12.95 5.08333 12.95 5.5V10.575H13.925C13.9917 10.575 14.0543 10.5833 14.113 10.6C14.171 10.6167 14.2333 10.6417 14.3 10.675L17.5 12.25C17.95 12.4667 18.2793 12.825 18.488 13.325C18.696 13.825 18.75 14.3333 18.65 14.85L17.9 19.2C17.8667 19.4333 17.7583 19.625 17.575 19.775C17.3917 19.925 17.1667 20 16.9 20H10.5ZM10.5 19H16.9L17.675 14.675C17.725 14.3917 17.7083 14.104 17.625 13.812C17.5417 13.5207 17.35 13.3083 17.05 13.175L13.7 11.5H11.95V5.5C11.95 5.35 11.904 5.229 11.812 5.137C11.7207 5.04567 11.6 5 11.45 5C11.3 5 11.1793 5.04567 11.088 5.137C10.996 5.229 10.95 5.35 10.95 5.5V16.1L6.69999 15.25L10.5 19Z" fill="#F325A7"/>
</svg>
