<svg width="304" height="341" viewBox="0 0 304 341" fill="none" xmlns="http://www.w3.org/2000/svg">
<rect x="0.5" y="0.5" width="303" height="339" stroke="var(--colors-neutral-neutral-400)"/>
<mask id="path-2-inside-1_3815_56550" fill="white">
<path d="M0 0H304V52H0V0Z"/>
</mask>
<path d="M304 51H0V53H304V51Z" fill="var(--colors-neutral-neutral-400)" mask="url(#path-2-inside-1_3815_56550)"/>
<path d="M20.02 30.144C19.372 30.144 18.808 30.02 18.328 29.772C17.848 29.524 17.476 29.168 17.212 28.704C16.948 28.24 16.816 27.676 16.816 27.012H18.076C18.076 27.668 18.248 28.176 18.592 28.536C18.936 28.888 19.408 29.064 20.008 29.064C20.52 29.064 20.932 28.948 21.244 28.716C21.556 28.476 21.712 28.144 21.712 27.72C21.712 27.432 21.624 27.2 21.448 27.024C21.28 26.848 21.052 26.704 20.764 26.592C20.484 26.48 20.176 26.38 19.84 26.292C19.504 26.204 19.164 26.108 18.82 26.004C18.484 25.892 18.172 25.752 17.884 25.584C17.604 25.416 17.376 25.192 17.2 24.912C17.032 24.632 16.948 24.276 16.948 23.844C16.948 23.388 17.068 22.984 17.308 22.632C17.556 22.272 17.896 21.992 18.328 21.792C18.768 21.584 19.284 21.48 19.876 21.48C20.452 21.48 20.968 21.588 21.424 21.804C21.88 22.012 22.244 22.312 22.516 22.704C22.796 23.088 22.94 23.552 22.948 24.096H21.676C21.668 23.776 21.58 23.504 21.412 23.28C21.252 23.048 21.036 22.872 20.764 22.752C20.5 22.624 20.204 22.56 19.876 22.56C19.404 22.56 19.02 22.672 18.724 22.896C18.428 23.12 18.28 23.424 18.28 23.808C18.28 24.08 18.364 24.296 18.532 24.456C18.708 24.616 18.936 24.748 19.216 24.852C19.504 24.948 19.816 25.04 20.152 25.128C20.496 25.208 20.836 25.304 21.172 25.416C21.508 25.52 21.816 25.664 22.096 25.848C22.384 26.024 22.612 26.264 22.78 26.568C22.956 26.864 23.044 27.244 23.044 27.708C23.044 28.204 22.912 28.636 22.648 29.004C22.384 29.364 22.024 29.644 21.568 29.844C21.112 30.044 20.596 30.144 20.02 30.144ZM27.5367 30.144C26.8567 30.144 26.2687 30.008 25.7727 29.736C25.2767 29.456 24.8967 29.06 24.6327 28.548C24.3687 28.028 24.2367 27.408 24.2367 26.688C24.2367 25.968 24.3687 25.352 24.6327 24.84C24.9047 24.328 25.2887 23.936 25.7847 23.664C26.2887 23.392 26.8887 23.256 27.5847 23.256C28.6487 23.256 29.4407 23.552 29.9607 24.144C30.4807 24.728 30.7087 25.532 30.6447 26.556H25.1967L25.2087 25.644L29.4087 25.656C29.3767 25.232 29.1927 24.892 28.8567 24.636C28.5207 24.38 28.0967 24.252 27.5847 24.252C26.8967 24.252 26.3687 24.468 26.0007 24.9C25.6327 25.332 25.4487 25.944 25.4487 26.736C25.4487 27.208 25.5287 27.628 25.6887 27.996C25.8567 28.356 26.0967 28.636 26.4087 28.836C26.7207 29.036 27.0967 29.136 27.5367 29.136C28.0567 29.136 28.4887 29.012 28.8327 28.764C29.1847 28.516 29.4007 28.18 29.4807 27.756H30.6927C30.5887 28.5 30.2567 29.084 29.6967 29.508C29.1367 29.932 28.4167 30.144 27.5367 30.144ZM35.5694 30C35.1614 30 34.8134 29.92 34.5254 29.76C34.2374 29.592 34.0214 29.356 33.8774 29.052C33.7334 28.748 33.6614 28.392 33.6614 27.984V22.152L34.8734 21.492V27.984C34.8734 28.176 34.9014 28.352 34.9574 28.512C35.0134 28.672 35.1214 28.796 35.2814 28.884C35.4494 28.972 35.6934 29.016 36.0134 29.016H37.9934V30H35.5694ZM32.1014 24.384V23.4H36.9374V24.384H32.1014ZM40.7581 23.4V27.564C40.7581 28.028 40.8901 28.404 41.1541 28.692C41.4181 28.972 41.7621 29.112 42.1861 29.112C42.6741 29.112 43.1061 28.936 43.4821 28.584C43.8661 28.224 44.1701 27.668 44.3941 26.916L44.5861 28.272C44.3381 28.896 43.9781 29.364 43.5061 29.676C43.0421 29.988 42.5341 30.144 41.9821 30.144C41.4861 30.144 41.0541 30.04 40.6861 29.832C40.3261 29.616 40.0461 29.32 39.8461 28.944C39.6461 28.568 39.5461 28.124 39.5461 27.612V23.4H40.7581ZM45.4621 23.4V30H44.3101L44.2501 28.512V23.4H45.4621ZM50.5428 23.256C51.1348 23.256 51.6508 23.404 52.0908 23.7C52.5388 23.988 52.8908 24.392 53.1468 24.912C53.4028 25.432 53.5308 26.028 53.5308 26.7C53.5308 27.364 53.4028 27.956 53.1468 28.476C52.8908 28.996 52.5388 29.404 52.0908 29.7C51.6508 29.996 51.1348 30.144 50.5428 30.144C50.0948 30.144 49.6828 30.052 49.3068 29.868C48.9388 29.684 48.6348 29.432 48.3948 29.112V32.136H47.1828V23.4H48.3348L48.3708 24.3C48.6108 23.98 48.9188 23.728 49.2948 23.544C49.6708 23.352 50.0868 23.256 50.5428 23.256ZM50.2788 29.124C50.6868 29.124 51.0428 29.02 51.3468 28.812C51.6508 28.604 51.8868 28.32 52.0548 27.96C52.2228 27.592 52.3068 27.172 52.3068 26.7C52.3068 26.22 52.2228 25.8 52.0548 25.44C51.8868 25.072 51.6508 24.788 51.3468 24.588C51.0428 24.38 50.6868 24.276 50.2788 24.276C49.8628 24.276 49.4828 24.396 49.1388 24.636C48.8028 24.868 48.5548 25.188 48.3948 25.596V27.78C48.5548 28.196 48.8028 28.524 49.1388 28.764C49.4828 29.004 49.8628 29.124 50.2788 29.124Z" fill="var(--colors-neutral-neutral-700)"/>
<path d="M80.104 30V21.624H81.844V28.56H86.008V30H80.104ZM92.1447 30L92.0847 28.704V25.572C92.0847 25.204 91.9567 24.916 91.7007 24.708C91.4447 24.5 91.0927 24.396 90.6447 24.396C90.2047 24.396 89.8487 24.492 89.5767 24.684C89.3047 24.868 89.1487 25.128 89.1087 25.464H87.5127C87.5527 24.992 87.7087 24.588 87.9807 24.252C88.2607 23.916 88.6327 23.66 89.0967 23.484C89.5607 23.3 90.0967 23.208 90.7047 23.208C91.3207 23.208 91.8527 23.304 92.3007 23.496C92.7567 23.688 93.1087 23.968 93.3567 24.336C93.6047 24.696 93.7287 25.14 93.7287 25.668V30H92.1447ZM89.9247 30.144C89.4847 30.144 89.0967 30.06 88.7607 29.892C88.4327 29.724 88.1767 29.492 87.9927 29.196C87.8087 28.9 87.7167 28.556 87.7167 28.164C87.7167 27.484 87.9807 26.956 88.5087 26.58C89.0367 26.196 89.7727 26.004 90.7167 26.004H92.2647V27.168H90.6687C90.2527 27.168 89.9247 27.244 89.6847 27.396C89.4447 27.548 89.3247 27.772 89.3247 28.068C89.3247 28.284 89.4127 28.468 89.5887 28.62C89.7647 28.764 90.0047 28.836 90.3087 28.836C90.7167 28.836 91.0807 28.728 91.4007 28.512C91.7207 28.296 91.9847 28.004 92.1927 27.636L92.3727 28.776C92.1647 29.232 91.8527 29.576 91.4367 29.808C91.0207 30.032 90.5167 30.144 89.9247 30.144ZM97.8974 25.98L98.5094 27.672L99.1214 25.98L100.225 23.352H101.917L98.9294 30.42C98.7374 30.884 98.5174 31.248 98.2694 31.512C98.0294 31.784 97.7534 31.98 97.4414 32.1C97.1374 32.22 96.7854 32.28 96.3854 32.28H95.1734V30.948H96.2294C96.4454 30.948 96.6294 30.896 96.7814 30.792C96.9334 30.696 97.0694 30.56 97.1894 30.384C97.3094 30.208 97.4214 30 97.5254 29.76L97.6574 29.436L95.1014 23.352H96.8054L97.8974 25.98ZM106.314 30.144C105.61 30.144 105.002 30.004 104.49 29.724C103.986 29.444 103.598 29.048 103.326 28.536C103.062 28.016 102.93 27.396 102.93 26.676C102.93 25.956 103.062 25.34 103.326 24.828C103.598 24.308 103.986 23.908 104.49 23.628C105.002 23.348 105.61 23.208 106.314 23.208C107.37 23.208 108.194 23.516 108.786 24.132C109.386 24.748 109.686 25.596 109.686 26.676C109.686 27.396 109.55 28.016 109.278 28.536C109.014 29.048 108.63 29.444 108.126 29.724C107.622 30.004 107.018 30.144 106.314 30.144ZM106.314 28.8C106.85 28.8 107.27 28.612 107.574 28.236C107.886 27.852 108.042 27.332 108.042 26.676C108.042 26.012 107.886 25.492 107.574 25.116C107.27 24.74 106.85 24.552 106.314 24.552C105.77 24.552 105.342 24.74 105.03 25.116C104.726 25.492 104.574 26.012 104.574 26.676C104.574 27.332 104.726 27.852 105.03 28.236C105.342 28.612 105.77 28.8 106.314 28.8ZM112.559 23.352V27.48C112.559 27.864 112.659 28.176 112.859 28.416C113.067 28.648 113.339 28.764 113.675 28.764C114.059 28.764 114.407 28.632 114.719 28.368C115.031 28.096 115.323 27.656 115.595 27.048L115.835 28.56C115.547 29.112 115.183 29.516 114.743 29.772C114.303 30.02 113.839 30.144 113.351 30.144C112.847 30.144 112.411 30.036 112.043 29.82C111.683 29.604 111.403 29.308 111.203 28.932C111.003 28.548 110.903 28.096 110.903 27.576V23.352H112.559ZM117.095 23.352V30H115.511L115.451 28.716V23.352H117.095ZM122.463 30C122.031 30 121.651 29.904 121.323 29.712C121.003 29.52 120.755 29.252 120.579 28.908C120.411 28.564 120.327 28.172 120.327 27.732V22.188L121.983 21.408V27.732C121.983 27.932 122.011 28.104 122.067 28.248C122.123 28.384 122.235 28.488 122.403 28.56C122.571 28.632 122.803 28.668 123.099 28.668H124.887V30H122.463ZM118.935 24.684V23.352H123.747V24.684H118.935Z" fill="var(--colors-neutral-neutral-800)"/>
<path d="M154.02 30.144C153.372 30.144 152.808 30.02 152.328 29.772C151.848 29.524 151.476 29.168 151.212 28.704C150.948 28.24 150.816 27.676 150.816 27.012H152.076C152.076 27.668 152.248 28.176 152.592 28.536C152.936 28.888 153.408 29.064 154.008 29.064C154.52 29.064 154.932 28.948 155.244 28.716C155.556 28.476 155.712 28.144 155.712 27.72C155.712 27.432 155.624 27.2 155.448 27.024C155.28 26.848 155.052 26.704 154.764 26.592C154.484 26.48 154.176 26.38 153.84 26.292C153.504 26.204 153.164 26.108 152.82 26.004C152.484 25.892 152.172 25.752 151.884 25.584C151.604 25.416 151.376 25.192 151.2 24.912C151.032 24.632 150.948 24.276 150.948 23.844C150.948 23.388 151.068 22.984 151.308 22.632C151.556 22.272 151.896 21.992 152.328 21.792C152.768 21.584 153.284 21.48 153.876 21.48C154.452 21.48 154.968 21.588 155.424 21.804C155.88 22.012 156.244 22.312 156.516 22.704C156.796 23.088 156.94 23.552 156.948 24.096H155.676C155.668 23.776 155.58 23.504 155.412 23.28C155.252 23.048 155.036 22.872 154.764 22.752C154.5 22.624 154.204 22.56 153.876 22.56C153.404 22.56 153.02 22.672 152.724 22.896C152.428 23.12 152.28 23.424 152.28 23.808C152.28 24.08 152.364 24.296 152.532 24.456C152.708 24.616 152.936 24.748 153.216 24.852C153.504 24.948 153.816 25.04 154.152 25.128C154.496 25.208 154.836 25.304 155.172 25.416C155.508 25.52 155.816 25.664 156.096 25.848C156.384 26.024 156.612 26.264 156.78 26.568C156.956 26.864 157.044 27.244 157.044 27.708C157.044 28.204 156.912 28.636 156.648 29.004C156.384 29.364 156.024 29.644 155.568 29.844C155.112 30.044 154.596 30.144 154.02 30.144ZM160.925 30V23.4H162.137V30H160.925ZM158.489 30V29.016H164.405V30H158.489ZM159.365 24.384V23.4H161.525V24.384H159.365ZM160.841 22.272V20.964H162.197V22.272H160.841ZM171.213 30V25.176C171.213 24.888 171.161 24.664 171.057 24.504C170.961 24.344 170.809 24.264 170.601 24.264C170.313 24.264 170.053 24.448 169.821 24.816C169.597 25.184 169.441 25.764 169.353 26.556L169.245 25.536C169.269 24.816 169.437 24.256 169.749 23.856C170.069 23.456 170.461 23.256 170.925 23.256C171.357 23.256 171.697 23.416 171.945 23.736C172.201 24.048 172.329 24.496 172.329 25.08V30H171.213ZM165.729 30V23.4H166.797L166.845 24.684V30H165.729ZM168.477 30V25.176C168.477 24.872 168.421 24.644 168.309 24.492C168.205 24.34 168.045 24.264 167.829 24.264C167.525 24.264 167.265 24.456 167.049 24.84C166.833 25.224 166.681 25.796 166.593 26.556L166.569 25.5C166.585 25.028 166.669 24.624 166.821 24.288C166.973 23.952 167.169 23.696 167.409 23.52C167.649 23.344 167.905 23.256 168.177 23.256C168.625 23.256 168.969 23.42 169.209 23.748C169.457 24.068 169.581 24.508 169.581 25.068V30H168.477ZM174.758 23.4V27.564C174.758 28.028 174.89 28.404 175.154 28.692C175.418 28.972 175.762 29.112 176.186 29.112C176.674 29.112 177.106 28.936 177.482 28.584C177.866 28.224 178.17 27.668 178.394 26.916L178.586 28.272C178.338 28.896 177.978 29.364 177.506 29.676C177.042 29.988 176.534 30.144 175.982 30.144C175.486 30.144 175.054 30.04 174.686 29.832C174.326 29.616 174.046 29.32 173.846 28.944C173.646 28.568 173.546 28.124 173.546 27.612V23.4H174.758ZM179.462 23.4V30H178.31L178.25 28.512V23.4H179.462ZM183.559 30V21.18H184.771V30H183.559ZM181.123 30V29.016H187.219V30H181.123ZM181.999 22.164V21.18H184.159V22.164H181.999ZM193.451 30L193.403 28.5V25.68C193.403 25.208 193.247 24.84 192.935 24.576C192.631 24.304 192.211 24.168 191.675 24.168C191.155 24.168 190.731 24.288 190.403 24.528C190.075 24.76 189.895 25.084 189.863 25.5H188.675C188.715 25.028 188.867 24.628 189.131 24.3C189.395 23.964 189.747 23.708 190.187 23.532C190.627 23.348 191.135 23.256 191.711 23.256C192.303 23.256 192.815 23.356 193.247 23.556C193.679 23.748 194.011 24.028 194.243 24.396C194.483 24.764 194.603 25.212 194.603 25.74V30H193.451ZM191.063 30.144C190.631 30.144 190.251 30.068 189.923 29.916C189.595 29.756 189.339 29.532 189.155 29.244C188.971 28.948 188.879 28.604 188.879 28.212C188.879 27.532 189.139 27.004 189.659 26.628C190.187 26.252 190.923 26.064 191.867 26.064H193.559V26.964H191.819C191.275 26.964 190.847 27.068 190.535 27.276C190.231 27.484 190.079 27.776 190.079 28.152C190.079 28.464 190.187 28.708 190.403 28.884C190.627 29.06 190.927 29.148 191.303 29.148C191.783 29.148 192.207 29.02 192.575 28.764C192.951 28.5 193.255 28.14 193.487 27.684L193.619 28.572C193.411 29.076 193.091 29.464 192.659 29.736C192.227 30.008 191.695 30.144 191.063 30.144ZM199.828 30C199.42 30 199.072 29.92 198.784 29.76C198.496 29.592 198.28 29.356 198.136 29.052C197.992 28.748 197.92 28.392 197.92 27.984V22.152L199.132 21.492V27.984C199.132 28.176 199.16 28.352 199.216 28.512C199.272 28.672 199.38 28.796 199.54 28.884C199.708 28.972 199.952 29.016 200.272 29.016H202.252V30H199.828ZM196.36 24.384V23.4H201.196V24.384H196.36ZM206.313 30V23.4H207.525V30H206.313ZM203.877 30V29.016H209.793V30H203.877ZM204.753 24.384V23.4H206.913V24.384H204.753ZM206.229 22.272V20.964H207.585V22.272H206.229ZM214.406 30.144C213.726 30.144 213.138 30.004 212.642 29.724C212.154 29.444 211.778 29.048 211.514 28.536C211.25 28.016 211.118 27.404 211.118 26.7C211.118 25.98 211.25 25.368 211.514 24.864C211.778 24.352 212.154 23.956 212.642 23.676C213.138 23.396 213.73 23.256 214.418 23.256C215.442 23.256 216.246 23.564 216.83 24.18C217.414 24.788 217.706 25.628 217.706 26.7C217.706 27.404 217.574 28.016 217.31 28.536C217.046 29.048 216.666 29.444 216.17 29.724C215.682 30.004 215.094 30.144 214.406 30.144ZM214.418 29.136C215.058 29.136 215.562 28.92 215.93 28.488C216.306 28.048 216.494 27.452 216.494 26.7C216.494 25.94 216.306 25.344 215.93 24.912C215.562 24.48 215.058 24.264 214.418 24.264C213.77 24.264 213.262 24.48 212.894 24.912C212.526 25.344 212.342 25.94 212.342 26.7C212.342 27.452 212.526 28.048 212.894 28.488C213.262 28.92 213.77 29.136 214.418 29.136ZM223.758 30V25.836C223.758 25.372 223.626 25 223.362 24.72C223.098 24.432 222.754 24.288 222.33 24.288C221.842 24.288 221.406 24.468 221.022 24.828C220.646 25.18 220.346 25.732 220.122 26.484L219.93 25.128C220.178 24.504 220.534 24.036 220.998 23.724C221.47 23.412 221.982 23.256 222.534 23.256C223.03 23.256 223.458 23.364 223.818 23.58C224.186 23.788 224.47 24.08 224.67 24.456C224.87 24.832 224.97 25.276 224.97 25.788V30H223.758ZM219.054 30V23.4H220.206L220.266 24.888V30H219.054Z" fill="var(--colors-neutral-neutral-700)"/>
<path d="M304 99.5H0V100.5H304V99.5Z" fill="var(--colors-neutral-neutral-400)"/>
<path d="M19.912 80.144C19.192 80.144 18.56 79.968 18.016 79.616C17.48 79.264 17.064 78.764 16.768 78.116C16.472 77.468 16.324 76.7 16.324 75.812C16.324 74.924 16.472 74.156 16.768 73.508C17.064 72.852 17.48 72.352 18.016 72.008C18.56 71.656 19.192 71.48 19.912 71.48C20.632 71.48 21.26 71.656 21.796 72.008C22.332 72.352 22.748 72.848 23.044 73.496C23.34 74.144 23.488 74.916 23.488 75.812C23.488 76.7 23.34 77.468 23.044 78.116C22.748 78.764 22.332 79.264 21.796 79.616C21.26 79.968 20.632 80.144 19.912 80.144ZM19.912 78.884C20.304 78.884 20.652 78.76 20.956 78.512C21.26 78.264 21.496 77.912 21.664 77.456C21.84 76.992 21.928 76.444 21.928 75.812C21.928 75.172 21.84 74.624 21.664 74.168C21.496 73.704 21.26 73.352 20.956 73.112C20.652 72.864 20.304 72.74 19.912 72.74C19.52 72.74 19.168 72.864 18.856 73.112C18.552 73.36 18.316 73.716 18.148 74.18C17.98 74.636 17.896 75.18 17.896 75.812C17.896 76.444 17.98 76.992 18.148 77.456C18.316 77.912 18.552 78.264 18.856 78.512C19.168 78.76 19.52 78.884 19.912 78.884ZM28.1487 73.232C28.7407 73.232 29.2567 73.384 29.6967 73.688C30.1447 73.984 30.4967 74.392 30.7527 74.912C31.0087 75.432 31.1367 76.024 31.1367 76.688C31.1367 77.344 31.0087 77.936 30.7527 78.464C30.4967 78.984 30.1447 79.396 29.6967 79.7C29.2567 79.996 28.7407 80.144 28.1487 80.144C27.7167 80.144 27.3167 80.056 26.9487 79.88C26.5807 79.696 26.2807 79.456 26.0487 79.16L26.0127 80H24.6567V71.156H26.0727V74.168C26.3127 73.88 26.6127 73.652 26.9727 73.484C27.3327 73.316 27.7247 73.232 28.1487 73.232ZM27.8127 78.956C28.1887 78.956 28.5167 78.856 28.7967 78.656C29.0767 78.456 29.2967 78.188 29.4567 77.852C29.6167 77.508 29.6967 77.12 29.6967 76.688C29.6967 76.248 29.6167 75.86 29.4567 75.524C29.2967 75.18 29.0767 74.912 28.7967 74.72C28.5167 74.52 28.1887 74.42 27.8127 74.42C27.4207 74.42 27.0687 74.536 26.7567 74.768C26.4447 74.992 26.2167 75.304 26.0727 75.704V77.66C26.2167 78.052 26.4447 78.368 26.7567 78.608C27.0687 78.84 27.4207 78.956 27.8127 78.956ZM35.6774 80.144C35.0854 80.144 34.5614 80.044 34.1054 79.844C33.6574 79.636 33.3094 79.344 33.0614 78.968C32.8134 78.592 32.6854 78.148 32.6774 77.636H34.0214C34.0134 78.084 34.1574 78.436 34.4534 78.692C34.7574 78.948 35.1654 79.076 35.6774 79.076C36.0854 79.076 36.4134 79 36.6614 78.848C36.9094 78.696 37.0334 78.488 37.0334 78.224C37.0334 78.016 36.9574 77.848 36.8054 77.72C36.6534 77.592 36.4494 77.492 36.1934 77.42C35.9454 77.348 35.6694 77.284 35.3654 77.228C35.0694 77.164 34.7694 77.092 34.4654 77.012C34.1614 76.924 33.8814 76.812 33.6254 76.676C33.3774 76.532 33.1774 76.344 33.0254 76.112C32.8734 75.88 32.7974 75.584 32.7974 75.224C32.7974 74.832 32.9054 74.488 33.1214 74.192C33.3454 73.888 33.6614 73.652 34.0694 73.484C34.4774 73.316 34.9574 73.232 35.5094 73.232C36.3414 73.232 37.0134 73.428 37.5254 73.82C38.0374 74.204 38.3134 74.736 38.3534 75.416H37.0214C36.9974 75.056 36.8494 74.78 36.5774 74.588C36.3134 74.396 35.9574 74.3 35.5094 74.3C35.1014 74.3 34.7854 74.38 34.5614 74.54C34.3454 74.7 34.2374 74.904 34.2374 75.152C34.2374 75.36 34.3134 75.52 34.4654 75.632C34.6254 75.744 34.8294 75.832 35.0774 75.896C35.3254 75.96 35.6014 76.02 35.9054 76.076C36.2094 76.124 36.5094 76.188 36.8054 76.268C37.1094 76.348 37.3854 76.46 37.6334 76.604C37.8894 76.74 38.0934 76.928 38.2454 77.168C38.4054 77.408 38.4854 77.72 38.4854 78.104C38.4854 78.736 38.2294 79.236 37.7174 79.604C37.2134 79.964 36.5334 80.144 35.6774 80.144ZM43.8541 80C43.4301 80 43.0661 79.912 42.7621 79.736C42.4581 79.56 42.2261 79.312 42.0661 78.992C41.9061 78.664 41.8261 78.284 41.8261 77.852V72.176L43.2661 71.456V77.852C43.2661 78.052 43.2941 78.228 43.3501 78.38C43.4061 78.532 43.5141 78.648 43.6741 78.728C43.8421 78.8 44.0821 78.836 44.3941 78.836H46.2781V80H43.8541ZM40.3501 74.54V73.376H45.1861V74.54H40.3501ZM52.7028 80L52.6428 78.596V75.62C52.6428 75.204 52.5028 74.876 52.2228 74.636C51.9428 74.396 51.5548 74.276 51.0588 74.276C50.5868 74.276 50.1988 74.384 49.8948 74.6C49.5988 74.816 49.4308 75.112 49.3908 75.488H47.9988C48.0388 75.016 48.1908 74.612 48.4548 74.276C48.7268 73.94 49.0868 73.684 49.5348 73.508C49.9908 73.324 50.5148 73.232 51.1068 73.232C51.7148 73.232 52.2388 73.328 52.6788 73.52C53.1268 73.712 53.4708 73.992 53.7108 74.36C53.9508 74.728 54.0708 75.176 54.0708 75.704V80H52.7028ZM50.3988 80.144C49.9668 80.144 49.5828 80.064 49.2468 79.904C48.9188 79.744 48.6628 79.516 48.4788 79.22C48.2948 78.924 48.2028 78.58 48.2028 78.188C48.2028 77.508 48.4668 76.98 48.9948 76.604C49.5228 76.22 50.2548 76.028 51.1908 76.028H52.8108V77.06L51.1428 77.072C50.6628 77.072 50.2868 77.164 50.0148 77.348C49.7428 77.524 49.6068 77.78 49.6068 78.116C49.6068 78.38 49.7028 78.592 49.8948 78.752C50.0948 78.912 50.3668 78.992 50.7108 78.992C51.1508 78.992 51.5428 78.876 51.8868 78.644C52.2388 78.404 52.5228 78.076 52.7388 77.66L52.8948 78.668C52.6868 79.156 52.3708 79.524 51.9468 79.772C51.5228 80.02 51.0068 80.144 50.3988 80.144ZM59.0794 80.144C58.3914 80.144 57.7954 80.004 57.2914 79.724C56.7874 79.444 56.3994 79.044 56.1274 78.524C55.8634 78.004 55.7314 77.392 55.7314 76.688C55.7314 75.968 55.8714 75.352 56.1514 74.84C56.4314 74.32 56.8234 73.924 57.3274 73.652C57.8394 73.372 58.4354 73.232 59.1154 73.232C59.6754 73.232 60.1754 73.336 60.6154 73.544C61.0554 73.744 61.4114 74.028 61.6834 74.396C61.9554 74.764 62.1074 75.204 62.1394 75.716H60.7114C60.6474 75.292 60.4714 74.972 60.1834 74.756C59.9034 74.532 59.5474 74.42 59.1154 74.42C58.7234 74.42 58.3794 74.512 58.0834 74.696C57.7954 74.872 57.5714 75.128 57.4114 75.464C57.2514 75.8 57.1714 76.208 57.1714 76.688C57.1714 77.408 57.3474 77.972 57.6994 78.38C58.0594 78.78 58.5194 78.98 59.0794 78.98C59.3514 78.98 59.5994 78.928 59.8234 78.824C60.0554 78.712 60.2514 78.56 60.4114 78.368C60.5794 78.176 60.6914 77.952 60.7474 77.696H62.1874C62.1154 78.192 61.9354 78.624 61.6474 78.992C61.3674 79.36 61.0034 79.644 60.5554 79.844C60.1154 80.044 59.6234 80.144 59.0794 80.144ZM66.0081 80V71.156H67.4481V80H66.0081ZM63.6681 80V78.836H69.8121V80H63.6681ZM64.5321 72.32V71.156H66.7281V72.32H64.5321ZM74.6048 80.144C73.9088 80.144 73.3088 80.008 72.8048 79.736C72.3008 79.456 71.9128 79.056 71.6408 78.536C71.3768 78.016 71.2448 77.396 71.2448 76.676C71.2448 75.956 71.3808 75.34 71.6528 74.828C71.9248 74.308 72.3168 73.912 72.8288 73.64C73.3408 73.368 73.9528 73.232 74.6648 73.232C75.7688 73.232 76.5808 73.54 77.1008 74.156C77.6288 74.772 77.8568 75.616 77.7848 76.688H72.3848L72.3968 75.644L76.3208 75.656C76.2888 75.272 76.1208 74.964 75.8168 74.732C75.5128 74.5 75.1288 74.384 74.6648 74.384C74.0088 74.384 73.5128 74.588 73.1768 74.996C72.8408 75.404 72.6728 75.984 72.6728 76.736C72.6728 77.168 72.7488 77.556 72.9008 77.9C73.0528 78.236 73.2688 78.5 73.5488 78.692C73.8368 78.876 74.1888 78.968 74.6048 78.968C75.0768 78.968 75.4688 78.856 75.7808 78.632C76.1008 78.408 76.2968 78.108 76.3688 77.732H77.8088C77.7128 78.476 77.3768 79.064 76.8008 79.496C76.2328 79.928 75.5008 80.144 74.6048 80.144Z" fill="var(--colors-neutral-neutral-800)"/>
<path fill-rule="evenodd" clip-rule="evenodd" d="M242.175 68.175C242.394 67.9562 242.691 67.8333 243 67.8333H255C255.31 67.8333 255.606 67.9562 255.825 68.175C256.044 68.3938 256.167 68.6905 256.167 68.9999V80.9999C256.167 81.3093 256.044 81.6061 255.825 81.8249C255.606 82.0437 255.31 82.1666 255 82.1666H253.5V82.9999C253.5 83.3093 253.377 83.6061 253.158 83.8249C252.94 84.0437 252.643 84.1666 252.333 84.1666H241C240.691 84.1666 240.394 84.0437 240.175 83.8249C239.956 83.6061 239.833 83.3093 239.833 82.9999V71.6666C239.833 71.3572 239.956 71.0604 240.175 70.8416C240.394 70.6228 240.691 70.4999 241 70.4999H241.833V68.9999C241.833 68.6905 241.956 68.3938 242.175 68.175ZM241.833 71.4999H241C240.956 71.4999 240.914 71.5175 240.882 71.5487C240.851 71.58 240.833 71.6224 240.833 71.6666V82.9999C240.833 83.0441 240.851 83.0865 240.882 83.1178C240.914 83.149 240.956 83.1666 241 83.1666H252.333C252.378 83.1666 252.42 83.149 252.451 83.1178C252.483 83.0865 252.5 83.0441 252.5 82.9999V82.1666H243C242.691 82.1666 242.394 82.0437 242.175 81.8249C241.956 81.6061 241.833 81.3093 241.833 80.9999V71.4999ZM243 81.1666C242.956 81.1666 242.914 81.149 242.882 81.1178C242.851 81.0865 242.833 81.0441 242.833 80.9999V68.9999C242.833 68.9557 242.851 68.9133 242.882 68.8821C242.914 68.8508 242.956 68.8333 243 68.8333H255C255.044 68.8333 255.087 68.8508 255.118 68.8821C255.149 68.9133 255.167 68.9557 255.167 68.9999V80.9999C255.167 81.0441 255.149 81.0865 255.118 81.1178C255.087 81.149 255.044 81.1666 255 81.1666H243Z" fill="var(--colors-neutral-neutral-800)"/>
<path fill-rule="evenodd" clip-rule="evenodd" d="M249 72C249.276 72 249.5 72.0001 249.5 72.0001V74.5L252 74.5C252 74.5 252 74.7239 252 75C252 75.2761 252 75.5 252 75.5H249.5L249.5 78C249.5 78 249.276 78 249 78C248.724 78 248.5 78 248.5 78L248.5 75.5H246C246 75.5 246 75.2761 246 75C246 74.7239 246 74.5 246 74.5L248.5 74.5V72.0001C248.5 72.0001 248.724 72 249 72Z" fill="var(--colors-neutral-neutral-800)"/>
<path fill-rule="evenodd" clip-rule="evenodd" d="M274.175 68.1751C274.394 67.9563 274.691 67.8334 275 67.8334H287C287.31 67.8334 287.606 67.9563 287.825 68.1751C288.044 68.3939 288.167 68.6906 288.167 69V81C288.167 81.3095 288.044 81.6062 287.825 81.825C287.606 82.0438 287.31 82.1667 287 82.1667H285.5V83C285.5 83.3095 285.377 83.6062 285.158 83.825C284.94 84.0438 284.643 84.1667 284.333 84.1667H273C272.691 84.1667 272.394 84.0438 272.175 83.825C271.956 83.6062 271.833 83.3095 271.833 83V71.6667C271.833 71.3573 271.956 71.0605 272.175 70.8417C272.394 70.623 272.691 70.5 273 70.5H273.833V69C273.833 68.6906 273.956 68.3939 274.175 68.1751ZM273.833 71.5H273C272.956 71.5 272.914 71.5176 272.882 71.5489C272.851 71.5801 272.833 71.6225 272.833 71.6667V83C272.833 83.0442 272.851 83.0866 272.882 83.1179C272.914 83.1491 272.956 83.1667 273 83.1667H284.333C284.378 83.1667 284.42 83.1491 284.451 83.1179C284.483 83.0866 284.5 83.0442 284.5 83V82.1667H275C274.691 82.1667 274.394 82.0438 274.175 81.825C273.956 81.6062 273.833 81.3095 273.833 81V71.5ZM275 81.1667C274.956 81.1667 274.914 81.1491 274.882 81.1179C274.851 81.0866 274.833 81.0442 274.833 81V69C274.833 68.9558 274.851 68.9134 274.882 68.8822C274.914 68.8509 274.956 68.8334 275 68.8334H287C287.044 68.8334 287.087 68.8509 287.118 68.8822C287.149 68.9134 287.167 68.9558 287.167 69V81C287.167 81.0442 287.149 81.0866 287.118 81.1179C287.087 81.1491 287.044 81.1667 287 81.1667H275Z" fill="var(--colors-neutral-neutral-800)"/>
<path d="M304 147.5H0V148.5H304V147.5Z" fill="var(--colors-neutral-neutral-400)"/>
<path d="M16.768 128V119.624H19.42C20.044 119.624 20.6 119.724 21.088 119.924C21.584 120.116 22.004 120.396 22.348 120.764C22.692 121.124 22.956 121.56 23.14 122.072C23.324 122.584 23.416 123.156 23.416 123.788C23.416 124.428 23.324 125.008 23.14 125.528C22.956 126.04 22.692 126.484 22.348 126.86C22.004 127.228 21.584 127.512 21.088 127.712C20.6 127.904 20.044 128 19.42 128H16.768ZM18.268 126.74H19.42C19.932 126.74 20.368 126.62 20.728 126.38C21.088 126.132 21.364 125.788 21.556 125.348C21.756 124.9 21.856 124.38 21.856 123.788C21.856 123.196 21.756 122.684 21.556 122.252C21.364 121.812 21.088 121.476 20.728 121.244C20.368 121.004 19.932 120.884 19.42 120.884H18.268V126.74ZM27.0327 128V121.376H28.4607V128H27.0327ZM24.6927 128V126.836H30.7047V128H24.6927ZM25.5447 122.54V121.376H27.7407V122.54H25.5447ZM26.9487 120.332V118.868H28.5087V120.332H26.9487ZM37.5374 128V123.224C37.5374 122.968 37.4934 122.768 37.4054 122.624C37.3254 122.48 37.1934 122.408 37.0094 122.408C36.7534 122.408 36.5254 122.576 36.3254 122.912C36.1334 123.24 35.9934 123.776 35.9054 124.52L35.7974 123.548C35.7894 122.82 35.9374 122.252 36.2414 121.844C36.5534 121.436 36.9454 121.232 37.4174 121.232C37.8414 121.232 38.1814 121.392 38.4374 121.712C38.7014 122.032 38.8334 122.492 38.8334 123.092V128H37.5374ZM32.1854 128V121.376H33.4334L33.4814 122.648V128H32.1854ZM34.8614 128V123.224C34.8614 122.952 34.8134 122.748 34.7174 122.612C34.6294 122.476 34.4934 122.408 34.3094 122.408C34.0374 122.408 33.8094 122.584 33.6254 122.936C33.4414 123.288 33.3054 123.816 33.2174 124.52L33.2054 123.5C33.2054 123.028 33.2774 122.624 33.4214 122.288C33.5734 121.944 33.7654 121.684 33.9974 121.508C34.2294 121.324 34.4814 121.232 34.7534 121.232C35.1934 121.232 35.5374 121.4 35.7854 121.736C36.0334 122.064 36.1574 122.508 36.1574 123.068V128H34.8614ZM43.3861 128.144C42.6901 128.144 42.0901 128.008 41.5861 127.736C41.0821 127.456 40.6941 127.056 40.4221 126.536C40.1581 126.016 40.0261 125.396 40.0261 124.676C40.0261 123.956 40.1621 123.34 40.4341 122.828C40.7061 122.308 41.0981 121.912 41.6101 121.64C42.1221 121.368 42.7341 121.232 43.4461 121.232C44.5501 121.232 45.3621 121.54 45.8821 122.156C46.4101 122.772 46.6381 123.616 46.5661 124.688H41.1661L41.1781 123.644L45.1021 123.656C45.0701 123.272 44.9021 122.964 44.5981 122.732C44.2941 122.5 43.9101 122.384 43.4461 122.384C42.7901 122.384 42.2941 122.588 41.9581 122.996C41.6221 123.404 41.4541 123.984 41.4541 124.736C41.4541 125.168 41.5301 125.556 41.6821 125.9C41.8341 126.236 42.0501 126.5 42.3301 126.692C42.6181 126.876 42.9701 126.968 43.3861 126.968C43.8581 126.968 44.2501 126.856 44.5621 126.632C44.8821 126.408 45.0781 126.108 45.1501 125.732H46.5901C46.4941 126.476 46.1581 127.064 45.5821 127.496C45.0141 127.928 44.2821 128.144 43.3861 128.144ZM52.7388 128V123.86C52.7388 123.428 52.6188 123.084 52.3788 122.828C52.1468 122.572 51.8428 122.444 51.4668 122.444C51.0348 122.444 50.6428 122.6 50.2908 122.912C49.9468 123.216 49.6508 123.708 49.4028 124.388L49.1868 122.96C49.4508 122.376 49.8108 121.944 50.2668 121.664C50.7228 121.376 51.2108 121.232 51.7308 121.232C52.2348 121.232 52.6668 121.34 53.0268 121.556C53.3948 121.764 53.6748 122.06 53.8668 122.444C54.0668 122.82 54.1668 123.264 54.1668 123.776V128H52.7388ZM48.1188 128V121.376H49.4868L49.5468 122.768V128H48.1188ZM59.0914 128.144C58.4994 128.144 57.9754 128.044 57.5194 127.844C57.0714 127.636 56.7234 127.344 56.4754 126.968C56.2274 126.592 56.0994 126.148 56.0914 125.636H57.4354C57.4274 126.084 57.5714 126.436 57.8674 126.692C58.1714 126.948 58.5794 127.076 59.0914 127.076C59.4994 127.076 59.8274 127 60.0754 126.848C60.3234 126.696 60.4474 126.488 60.4474 126.224C60.4474 126.016 60.3714 125.848 60.2194 125.72C60.0674 125.592 59.8634 125.492 59.6074 125.42C59.3594 125.348 59.0834 125.284 58.7794 125.228C58.4834 125.164 58.1834 125.092 57.8794 125.012C57.5754 124.924 57.2954 124.812 57.0394 124.676C56.7914 124.532 56.5914 124.344 56.4394 124.112C56.2874 123.88 56.2114 123.584 56.2114 123.224C56.2114 122.832 56.3194 122.488 56.5354 122.192C56.7594 121.888 57.0754 121.652 57.4834 121.484C57.8914 121.316 58.3714 121.232 58.9234 121.232C59.7554 121.232 60.4274 121.428 60.9394 121.82C61.4514 122.204 61.7274 122.736 61.7674 123.416H60.4354C60.4114 123.056 60.2634 122.78 59.9914 122.588C59.7274 122.396 59.3714 122.3 58.9234 122.3C58.5154 122.3 58.1994 122.38 57.9754 122.54C57.7594 122.7 57.6514 122.904 57.6514 123.152C57.6514 123.36 57.7274 123.52 57.8794 123.632C58.0394 123.744 58.2434 123.832 58.4914 123.896C58.7394 123.96 59.0154 124.02 59.3194 124.076C59.6234 124.124 59.9234 124.188 60.2194 124.268C60.5234 124.348 60.7994 124.46 61.0474 124.604C61.3034 124.74 61.5074 124.928 61.6594 125.168C61.8194 125.408 61.8994 125.72 61.8994 126.104C61.8994 126.736 61.6434 127.236 61.1314 127.604C60.6274 127.964 59.9474 128.144 59.0914 128.144ZM66.0561 128V121.376H67.4841V128H66.0561ZM63.7161 128V126.836H69.7281V128H63.7161ZM64.5681 122.54V121.376H66.7641V122.54H64.5681ZM65.9721 120.332V118.868H67.5321V120.332H65.9721ZM74.5328 128.144C73.8368 128.144 73.2368 128.004 72.7328 127.724C72.2368 127.444 71.8528 127.048 71.5808 126.536C71.3168 126.016 71.1848 125.4 71.1848 124.688C71.1848 123.968 71.3168 123.352 71.5808 122.84C71.8528 122.328 72.2368 121.932 72.7328 121.652C73.2368 121.372 73.8368 121.232 74.5328 121.232C75.5728 121.232 76.3888 121.54 76.9808 122.156C77.5728 122.764 77.8688 123.608 77.8688 124.688C77.8688 125.4 77.7328 126.016 77.4608 126.536C77.1968 127.048 76.8128 127.444 76.3088 127.724C75.8128 128.004 75.2208 128.144 74.5328 128.144ZM74.5328 126.968C75.1168 126.968 75.5768 126.764 75.9128 126.356C76.2568 125.948 76.4288 125.392 76.4288 124.688C76.4288 123.976 76.2568 123.42 75.9128 123.02C75.5768 122.612 75.1168 122.408 74.5328 122.408C73.9328 122.408 73.4648 122.612 73.1288 123.02C72.7928 123.42 72.6248 123.976 72.6248 124.688C72.6248 125.392 72.7928 125.948 73.1288 126.356C73.4648 126.764 73.9328 126.968 74.5328 126.968ZM83.9575 128V123.86C83.9575 123.428 83.8375 123.084 83.5975 122.828C83.3655 122.572 83.0615 122.444 82.6855 122.444C82.2535 122.444 81.8615 122.6 81.5095 122.912C81.1655 123.216 80.8695 123.708 80.6215 124.388L80.4055 122.96C80.6695 122.376 81.0295 121.944 81.4855 121.664C81.9415 121.376 82.4295 121.232 82.9495 121.232C83.4535 121.232 83.8855 121.34 84.2455 121.556C84.6135 121.764 84.8935 122.06 85.0855 122.444C85.2855 122.82 85.3855 123.264 85.3855 123.776V128H83.9575ZM79.3375 128V121.376H80.7055L80.7655 122.768V128H79.3375ZM90.3102 128.144C89.7182 128.144 89.1942 128.044 88.7382 127.844C88.2902 127.636 87.9422 127.344 87.6942 126.968C87.4462 126.592 87.3182 126.148 87.3102 125.636H88.6542C88.6462 126.084 88.7902 126.436 89.0862 126.692C89.3902 126.948 89.7982 127.076 90.3102 127.076C90.7182 127.076 91.0462 127 91.2942 126.848C91.5422 126.696 91.6662 126.488 91.6662 126.224C91.6662 126.016 91.5902 125.848 91.4382 125.72C91.2862 125.592 91.0822 125.492 90.8262 125.42C90.5782 125.348 90.3022 125.284 89.9982 125.228C89.7022 125.164 89.4022 125.092 89.0982 125.012C88.7942 124.924 88.5142 124.812 88.2582 124.676C88.0102 124.532 87.8102 124.344 87.6582 124.112C87.5062 123.88 87.4302 123.584 87.4302 123.224C87.4302 122.832 87.5382 122.488 87.7542 122.192C87.9782 121.888 88.2942 121.652 88.7022 121.484C89.1102 121.316 89.5902 121.232 90.1422 121.232C90.9742 121.232 91.6462 121.428 92.1582 121.82C92.6702 122.204 92.9462 122.736 92.9862 123.416H91.6542C91.6302 123.056 91.4822 122.78 91.2102 122.588C90.9462 122.396 90.5902 122.3 90.1422 122.3C89.7342 122.3 89.4182 122.38 89.1942 122.54C88.9782 122.7 88.8702 122.904 88.8702 123.152C88.8702 123.36 88.9462 123.52 89.0982 123.632C89.2582 123.744 89.4622 123.832 89.7102 123.896C89.9582 123.96 90.2342 124.02 90.5382 124.076C90.8422 124.124 91.1422 124.188 91.4382 124.268C91.7422 124.348 92.0182 124.46 92.2662 124.604C92.5222 124.74 92.7262 124.928 92.8782 125.168C93.0382 125.408 93.1182 125.72 93.1182 126.104C93.1182 126.736 92.8622 127.236 92.3502 127.604C91.8462 127.964 91.1662 128.144 90.3102 128.144Z" fill="var(--colors-neutral-neutral-800)"/>
<path d="M280 126.702L274.692 121.394L275.4 120.687L280 125.287L284.6 120.687L285.308 121.394L280 126.702Z" fill="var(--colors-neutral-neutral-800)"/>
<path d="M304 243.5H0V244.5H304V243.5Z" fill="var(--colors-neutral-neutral-400)"/>
<path d="M19.912 176.144C19.192 176.144 18.56 175.968 18.016 175.616C17.48 175.264 17.064 174.764 16.768 174.116C16.472 173.468 16.324 172.7 16.324 171.812C16.324 170.924 16.472 170.156 16.768 169.508C17.064 168.852 17.48 168.352 18.016 168.008C18.56 167.656 19.192 167.48 19.912 167.48C20.632 167.48 21.26 167.656 21.796 168.008C22.332 168.352 22.748 168.848 23.044 169.496C23.34 170.144 23.488 170.916 23.488 171.812C23.488 172.7 23.34 173.468 23.044 174.116C22.748 174.764 22.332 175.264 21.796 175.616C21.26 175.968 20.632 176.144 19.912 176.144ZM19.912 174.884C20.304 174.884 20.652 174.76 20.956 174.512C21.26 174.264 21.496 173.912 21.664 173.456C21.84 172.992 21.928 172.444 21.928 171.812C21.928 171.172 21.84 170.624 21.664 170.168C21.496 169.704 21.26 169.352 20.956 169.112C20.652 168.864 20.304 168.74 19.912 168.74C19.52 168.74 19.168 168.864 18.856 169.112C18.552 169.36 18.316 169.716 18.148 170.18C17.98 170.636 17.896 171.18 17.896 171.812C17.896 172.444 17.98 172.992 18.148 173.456C18.316 173.912 18.552 174.264 18.856 174.512C19.168 174.76 19.52 174.884 19.912 174.884ZM28.1487 169.232C28.7407 169.232 29.2567 169.384 29.6967 169.688C30.1447 169.984 30.4967 170.392 30.7527 170.912C31.0087 171.432 31.1367 172.024 31.1367 172.688C31.1367 173.344 31.0087 173.936 30.7527 174.464C30.4967 174.984 30.1447 175.396 29.6967 175.7C29.2567 175.996 28.7407 176.144 28.1487 176.144C27.7167 176.144 27.3167 176.056 26.9487 175.88C26.5807 175.696 26.2807 175.456 26.0487 175.16L26.0127 176H24.6567V167.156H26.0727V170.168C26.3127 169.88 26.6127 169.652 26.9727 169.484C27.3327 169.316 27.7247 169.232 28.1487 169.232ZM27.8127 174.956C28.1887 174.956 28.5167 174.856 28.7967 174.656C29.0767 174.456 29.2967 174.188 29.4567 173.852C29.6167 173.508 29.6967 173.12 29.6967 172.688C29.6967 172.248 29.6167 171.86 29.4567 171.524C29.2967 171.18 29.0767 170.912 28.7967 170.72C28.5167 170.52 28.1887 170.42 27.8127 170.42C27.4207 170.42 27.0687 170.536 26.7567 170.768C26.4447 170.992 26.2167 171.304 26.0727 171.704V173.66C26.2167 174.052 26.4447 174.368 26.7567 174.608C27.0687 174.84 27.4207 174.956 27.8127 174.956ZM35.6774 176.144C35.0854 176.144 34.5614 176.044 34.1054 175.844C33.6574 175.636 33.3094 175.344 33.0614 174.968C32.8134 174.592 32.6854 174.148 32.6774 173.636H34.0214C34.0134 174.084 34.1574 174.436 34.4534 174.692C34.7574 174.948 35.1654 175.076 35.6774 175.076C36.0854 175.076 36.4134 175 36.6614 174.848C36.9094 174.696 37.0334 174.488 37.0334 174.224C37.0334 174.016 36.9574 173.848 36.8054 173.72C36.6534 173.592 36.4494 173.492 36.1934 173.42C35.9454 173.348 35.6694 173.284 35.3654 173.228C35.0694 173.164 34.7694 173.092 34.4654 173.012C34.1614 172.924 33.8814 172.812 33.6254 172.676C33.3774 172.532 33.1774 172.344 33.0254 172.112C32.8734 171.88 32.7974 171.584 32.7974 171.224C32.7974 170.832 32.9054 170.488 33.1214 170.192C33.3454 169.888 33.6614 169.652 34.0694 169.484C34.4774 169.316 34.9574 169.232 35.5094 169.232C36.3414 169.232 37.0134 169.428 37.5254 169.82C38.0374 170.204 38.3134 170.736 38.3534 171.416H37.0214C36.9974 171.056 36.8494 170.78 36.5774 170.588C36.3134 170.396 35.9574 170.3 35.5094 170.3C35.1014 170.3 34.7854 170.38 34.5614 170.54C34.3454 170.7 34.2374 170.904 34.2374 171.152C34.2374 171.36 34.3134 171.52 34.4654 171.632C34.6254 171.744 34.8294 171.832 35.0774 171.896C35.3254 171.96 35.6014 172.02 35.9054 172.076C36.2094 172.124 36.5094 172.188 36.8054 172.268C37.1094 172.348 37.3854 172.46 37.6334 172.604C37.8894 172.74 38.0934 172.928 38.2454 173.168C38.4054 173.408 38.4854 173.72 38.4854 174.104C38.4854 174.736 38.2294 175.236 37.7174 175.604C37.2134 175.964 36.5334 176.144 35.6774 176.144ZM43.8541 176C43.4301 176 43.0661 175.912 42.7621 175.736C42.4581 175.56 42.2261 175.312 42.0661 174.992C41.9061 174.664 41.8261 174.284 41.8261 173.852V168.176L43.2661 167.456V173.852C43.2661 174.052 43.2941 174.228 43.3501 174.38C43.4061 174.532 43.5141 174.648 43.6741 174.728C43.8421 174.8 44.0821 174.836 44.3941 174.836H46.2781V176H43.8541ZM40.3501 170.54V169.376H45.1861V170.54H40.3501ZM52.7028 176L52.6428 174.596V171.62C52.6428 171.204 52.5028 170.876 52.2228 170.636C51.9428 170.396 51.5548 170.276 51.0588 170.276C50.5868 170.276 50.1988 170.384 49.8948 170.6C49.5988 170.816 49.4308 171.112 49.3908 171.488H47.9988C48.0388 171.016 48.1908 170.612 48.4548 170.276C48.7268 169.94 49.0868 169.684 49.5348 169.508C49.9908 169.324 50.5148 169.232 51.1068 169.232C51.7148 169.232 52.2388 169.328 52.6788 169.52C53.1268 169.712 53.4708 169.992 53.7108 170.36C53.9508 170.728 54.0708 171.176 54.0708 171.704V176H52.7028ZM50.3988 176.144C49.9668 176.144 49.5828 176.064 49.2468 175.904C48.9188 175.744 48.6628 175.516 48.4788 175.22C48.2948 174.924 48.2028 174.58 48.2028 174.188C48.2028 173.508 48.4668 172.98 48.9948 172.604C49.5228 172.22 50.2548 172.028 51.1908 172.028H52.8108V173.06L51.1428 173.072C50.6628 173.072 50.2868 173.164 50.0148 173.348C49.7428 173.524 49.6068 173.78 49.6068 174.116C49.6068 174.38 49.7028 174.592 49.8948 174.752C50.0948 174.912 50.3668 174.992 50.7108 174.992C51.1508 174.992 51.5428 174.876 51.8868 174.644C52.2388 174.404 52.5228 174.076 52.7388 173.66L52.8948 174.668C52.6868 175.156 52.3708 175.524 51.9468 175.772C51.5228 176.02 51.0068 176.144 50.3988 176.144ZM59.0794 176.144C58.3914 176.144 57.7954 176.004 57.2914 175.724C56.7874 175.444 56.3994 175.044 56.1274 174.524C55.8634 174.004 55.7314 173.392 55.7314 172.688C55.7314 171.968 55.8714 171.352 56.1514 170.84C56.4314 170.32 56.8234 169.924 57.3274 169.652C57.8394 169.372 58.4354 169.232 59.1154 169.232C59.6754 169.232 60.1754 169.336 60.6154 169.544C61.0554 169.744 61.4114 170.028 61.6834 170.396C61.9554 170.764 62.1074 171.204 62.1394 171.716H60.7114C60.6474 171.292 60.4714 170.972 60.1834 170.756C59.9034 170.532 59.5474 170.42 59.1154 170.42C58.7234 170.42 58.3794 170.512 58.0834 170.696C57.7954 170.872 57.5714 171.128 57.4114 171.464C57.2514 171.8 57.1714 172.208 57.1714 172.688C57.1714 173.408 57.3474 173.972 57.6994 174.38C58.0594 174.78 58.5194 174.98 59.0794 174.98C59.3514 174.98 59.5994 174.928 59.8234 174.824C60.0554 174.712 60.2514 174.56 60.4114 174.368C60.5794 174.176 60.6914 173.952 60.7474 173.696H62.1874C62.1154 174.192 61.9354 174.624 61.6474 174.992C61.3674 175.36 61.0034 175.644 60.5554 175.844C60.1154 176.044 59.6234 176.144 59.0794 176.144ZM66.0081 176V167.156H67.4481V176H66.0081ZM63.6681 176V174.836H69.8121V176H63.6681ZM64.5321 168.32V167.156H66.7281V168.32H64.5321ZM74.6048 176.144C73.9088 176.144 73.3088 176.008 72.8048 175.736C72.3008 175.456 71.9128 175.056 71.6408 174.536C71.3768 174.016 71.2448 173.396 71.2448 172.676C71.2448 171.956 71.3808 171.34 71.6528 170.828C71.9248 170.308 72.3168 169.912 72.8288 169.64C73.3408 169.368 73.9528 169.232 74.6648 169.232C75.7688 169.232 76.5808 169.54 77.1008 170.156C77.6288 170.772 77.8568 171.616 77.7848 172.688H72.3848L72.3968 171.644L76.3208 171.656C76.2888 171.272 76.1208 170.964 75.8168 170.732C75.5128 170.5 75.1288 170.384 74.6648 170.384C74.0088 170.384 73.5128 170.588 73.1768 170.996C72.8408 171.404 72.6728 171.984 72.6728 172.736C72.6728 173.168 72.7488 173.556 72.9008 173.9C73.0528 174.236 73.2688 174.5 73.5488 174.692C73.8368 174.876 74.1888 174.968 74.6048 174.968C75.0768 174.968 75.4688 174.856 75.7808 174.632C76.1008 174.408 76.2968 174.108 76.3688 173.732H77.8088C77.7128 174.476 77.3768 175.064 76.8008 175.496C76.2328 175.928 75.5008 176.144 74.6048 176.144Z" fill="var(--colors-neutral-neutral-800)"/>
<path d="M275.4 174.702L274.692 173.994L280 168.687L285.308 173.994L284.6 174.702L280 170.102L275.4 174.702Z" fill="var(--colors-neutral-neutral-800)"/>
<path d="M23.017 211.864C23.017 212.631 22.8786 213.294 22.6016 213.852C22.3246 214.411 21.9446 214.842 21.4616 215.145C20.9787 215.448 20.4271 215.599 19.8068 215.599C19.1866 215.599 18.6349 215.448 18.152 215.145C17.669 214.842 17.2891 214.411 17.0121 213.852C16.7351 213.294 16.5966 212.631 16.5966 211.864C16.5966 211.097 16.7351 210.434 17.0121 209.875C17.2891 209.316 17.669 208.885 18.152 208.582C18.6349 208.279 19.1866 208.128 19.8068 208.128C20.4271 208.128 20.9787 208.279 21.4616 208.582C21.9446 208.885 22.3246 209.316 22.6016 209.875C22.8786 210.434 23.017 211.097 23.017 211.864ZM22.1648 211.864C22.1648 211.234 22.0594 210.702 21.8487 210.269C21.6404 209.836 21.3575 209.508 21 209.286C20.6449 209.063 20.2472 208.952 19.8068 208.952C19.3665 208.952 18.9676 209.063 18.6101 209.286C18.255 209.508 17.9721 209.836 17.7614 210.269C17.553 210.702 17.4489 211.234 17.4489 211.864C17.4489 212.493 17.553 213.025 17.7614 213.458C17.9721 213.891 18.255 214.219 18.6101 214.442C18.9676 214.664 19.3665 214.776 19.8068 214.776C20.2472 214.776 20.6449 214.664 21 214.442C21.3575 214.219 21.6404 213.891 21.8487 213.458C22.0594 213.025 22.1648 212.493 22.1648 211.864ZM24.4979 215.5V208.227H25.3359V210.912H25.407C25.4685 210.817 25.5537 210.696 25.6626 210.55C25.7739 210.401 25.9325 210.268 26.1385 210.152C26.3468 210.034 26.6286 209.974 26.9837 209.974C27.4429 209.974 27.8478 210.089 28.1982 210.319C28.5485 210.549 28.822 210.874 29.0185 211.295C29.215 211.717 29.3132 212.214 29.3132 212.787C29.3132 213.365 29.215 213.865 29.0185 214.289C28.822 214.71 28.5497 215.037 28.2017 215.269C27.8537 215.499 27.4524 215.614 26.9979 215.614C26.6475 215.614 26.367 215.556 26.1562 215.44C25.9455 215.321 25.7834 215.187 25.6697 215.038C25.5561 214.887 25.4685 214.761 25.407 214.662H25.3075V215.5H24.4979ZM25.3217 212.773C25.3217 213.185 25.3821 213.548 25.5028 213.863C25.6236 214.175 25.8 214.42 26.032 214.598C26.264 214.773 26.5481 214.861 26.8842 214.861C27.2346 214.861 27.527 214.768 27.7614 214.584C27.9981 214.397 28.1757 214.146 28.294 213.831C28.4148 213.514 28.4751 213.161 28.4751 212.773C28.4751 212.389 28.416 212.044 28.2976 211.736C28.1816 211.426 28.0052 211.181 27.7685 211.001C27.5341 210.818 27.2393 210.727 26.8842 210.727C26.5433 210.727 26.2569 210.814 26.0249 210.987C25.7929 211.157 25.6177 211.396 25.4993 211.704C25.3809 212.009 25.3217 212.366 25.3217 212.773ZM34.4588 211.267L33.706 211.48C33.6586 211.355 33.5888 211.233 33.4964 211.114C33.4065 210.994 33.2834 210.894 33.1271 210.816C32.9709 210.738 32.7708 210.699 32.527 210.699C32.1932 210.699 31.915 210.776 31.6925 210.93C31.4723 211.081 31.3622 211.274 31.3622 211.509C31.3622 211.717 31.438 211.881 31.5895 212.002C31.741 212.123 31.9777 212.223 32.2997 212.304L33.1094 212.503C33.5971 212.621 33.9605 212.802 34.1996 213.046C34.4387 213.288 34.5582 213.599 34.5582 213.98C34.5582 214.293 34.4683 214.572 34.2884 214.818C34.1108 215.064 33.8622 215.259 33.5426 215.401C33.223 215.543 32.8513 215.614 32.4276 215.614C31.8712 215.614 31.4107 215.493 31.0462 215.251C30.6816 215.01 30.4508 214.657 30.3537 214.193L31.1491 213.994C31.2249 214.288 31.3681 214.508 31.5788 214.655C31.7919 214.802 32.0701 214.875 32.4134 214.875C32.804 214.875 33.1141 214.792 33.3438 214.626C33.5758 214.458 33.6918 214.257 33.6918 214.023C33.6918 213.833 33.6255 213.675 33.4929 213.547C33.3603 213.417 33.1567 213.32 32.8821 213.256L31.973 213.043C31.4735 212.924 31.1065 212.741 30.8722 212.492C30.6402 212.241 30.5241 211.928 30.5241 211.551C30.5241 211.243 30.6106 210.971 30.7834 210.734C30.9586 210.498 31.1965 210.312 31.4972 210.177C31.8002 210.042 32.1435 209.974 32.527 209.974C33.0668 209.974 33.4905 210.093 33.7983 210.33C34.1084 210.566 34.3286 210.879 34.4588 211.267ZM38.1919 210.045V210.756H35.3652V210.045H38.1919ZM36.1891 208.739H37.0272V213.938C37.0272 214.174 37.0615 214.352 37.1301 214.47C37.2012 214.586 37.2911 214.664 37.4 214.705C37.5113 214.742 37.6285 214.761 37.7516 214.761C37.8439 214.761 37.9197 214.757 37.9789 214.747C38.0381 214.735 38.0854 214.726 38.1209 214.719L38.2914 215.472C38.2346 215.493 38.1552 215.514 38.0534 215.536C37.9516 215.559 37.8226 215.571 37.6664 215.571C37.4296 215.571 37.1976 215.52 36.9703 215.418C36.7454 215.317 36.5584 215.161 36.4093 214.953C36.2625 214.745 36.1891 214.482 36.1891 214.165V208.739ZM41.0577 215.628C40.7121 215.628 40.3984 215.563 40.1167 215.433C39.8349 215.3 39.6112 215.109 39.4455 214.861C39.2798 214.61 39.1969 214.307 39.1969 213.952C39.1969 213.639 39.2585 213.386 39.3816 213.192C39.5047 212.995 39.6692 212.841 39.8752 212.73C40.0811 212.619 40.3084 212.536 40.557 212.482C40.8079 212.425 41.0601 212.38 41.3134 212.347C41.6448 212.304 41.9135 212.272 42.1195 212.251C42.3278 212.227 42.4793 212.188 42.574 212.134C42.6711 212.079 42.7196 211.984 42.7196 211.849V211.821C42.7196 211.471 42.6238 211.198 42.432 211.004C42.2426 210.81 41.955 210.713 41.5691 210.713C41.169 210.713 40.8553 210.801 40.628 210.976C40.4007 211.151 40.2409 211.338 40.1486 211.537L39.3532 211.253C39.4952 210.921 39.6846 210.663 39.9213 210.479C40.1605 210.292 40.4209 210.161 40.7026 210.088C40.9867 210.012 41.266 209.974 41.5407 209.974C41.7158 209.974 41.9171 209.996 42.1444 210.038C42.374 210.079 42.5953 210.163 42.8084 210.29C43.0239 210.418 43.2026 210.611 43.3446 210.869C43.4867 211.127 43.5577 211.473 43.5577 211.906V215.5H42.7196V214.761H42.677C42.6202 214.88 42.5255 215.006 42.3929 215.141C42.2604 215.276 42.084 215.391 41.8638 215.486C41.6436 215.58 41.3749 215.628 41.0577 215.628ZM41.1855 214.875C41.517 214.875 41.7963 214.81 42.0236 214.68C42.2533 214.549 42.4261 214.381 42.5421 214.175C42.6605 213.969 42.7196 213.753 42.7196 213.526V212.759C42.6841 212.801 42.606 212.84 42.4853 212.876C42.3669 212.909 42.2296 212.938 42.0733 212.964C41.9194 212.988 41.7691 213.009 41.6223 213.028C41.4779 213.045 41.3607 213.059 41.2708 213.071C41.053 213.099 40.8494 213.146 40.66 213.21C40.473 213.271 40.3214 213.365 40.2054 213.49C40.0918 213.613 40.035 213.781 40.035 213.994C40.035 214.286 40.1427 214.506 40.3581 214.655C40.5759 214.802 40.8517 214.875 41.1855 214.875ZM47.3033 215.614C46.7919 215.614 46.3516 215.493 45.9822 215.251C45.6129 215.01 45.3288 214.677 45.13 214.254C44.9311 213.83 44.8317 213.346 44.8317 212.801C44.8317 212.247 44.9335 211.758 45.1371 211.335C45.343 210.908 45.6295 210.576 45.9964 210.337C46.3658 210.095 46.7966 209.974 47.2891 209.974C47.6726 209.974 48.0182 210.045 48.326 210.188C48.6338 210.33 48.8859 210.528 49.0824 210.784C49.2789 211.04 49.4008 211.338 49.4482 211.679H48.6101C48.5462 211.43 48.4041 211.21 48.1839 211.018C47.9661 210.824 47.6726 210.727 47.3033 210.727C46.9766 210.727 46.6901 210.812 46.4439 210.983C46.2 211.151 46.0095 211.389 45.8722 211.697C45.7372 212.002 45.6697 212.361 45.6697 212.773C45.6697 213.194 45.736 213.561 45.8686 213.874C46.0036 214.186 46.1929 214.429 46.4368 214.602C46.683 214.774 46.9718 214.861 47.3033 214.861C47.5211 214.861 47.7188 214.823 47.8963 214.747C48.0739 214.671 48.2242 214.562 48.3473 214.42C48.4704 214.278 48.558 214.108 48.6101 213.909H49.4482C49.4008 214.231 49.2836 214.521 49.0966 214.779C48.9119 215.035 48.6669 215.238 48.3615 215.39C48.0585 215.539 47.7057 215.614 47.3033 215.614ZM51.5114 208.227V215.5H50.6733V208.227H51.5114ZM55.3333 215.614C54.8077 215.614 54.3543 215.498 53.9732 215.266C53.5944 215.031 53.302 214.705 53.0961 214.286C52.8925 213.864 52.7907 213.374 52.7907 212.815C52.7907 212.257 52.8925 211.764 53.0961 211.338C53.302 210.91 53.5885 210.576 53.9554 210.337C54.3248 210.095 54.7556 209.974 55.248 209.974C55.5321 209.974 55.8127 210.022 56.0897 210.116C56.3667 210.211 56.6188 210.365 56.8461 210.578C57.0733 210.789 57.2544 211.068 57.3894 211.416C57.5243 211.764 57.5918 212.193 57.5918 212.702V213.057H53.3873V212.332H56.7395C56.7395 212.025 56.678 211.75 56.5549 211.509C56.4341 211.267 56.2613 211.076 56.0364 210.937C55.8139 210.797 55.5511 210.727 55.248 210.727C54.9142 210.727 54.6254 210.81 54.3816 210.976C54.1401 211.139 53.9542 211.352 53.824 211.615C53.6938 211.878 53.6287 212.16 53.6287 212.46V212.943C53.6287 213.355 53.6998 213.704 53.8418 213.991C53.9862 214.275 54.1863 214.491 54.4419 214.641C54.6976 214.787 54.9947 214.861 55.3333 214.861C55.5534 214.861 55.7523 214.83 55.9299 214.768C56.1098 214.705 56.2649 214.61 56.3951 214.484C56.5253 214.357 56.6259 214.198 56.6969 214.009L57.5066 214.236C57.4213 214.51 57.2781 214.752 57.0769 214.96C56.8757 215.166 56.6271 215.327 56.3311 215.443C56.0352 215.557 55.7026 215.614 55.3333 215.614ZM64.0513 210.045V210.756H61.2246V210.045H64.0513ZM62.0485 208.739H62.8865V213.938C62.8865 214.174 62.9209 214.352 62.9895 214.47C63.0605 214.586 63.1505 214.664 63.2594 214.705C63.3707 214.742 63.4879 214.761 63.611 214.761C63.7033 214.761 63.7791 214.757 63.8382 214.747C63.8974 214.735 63.9448 214.726 63.9803 214.719L64.1507 215.472C64.0939 215.493 64.0146 215.514 63.9128 215.536C63.811 215.559 63.682 215.571 63.5257 215.571C63.289 215.571 63.057 215.52 62.8297 215.418C62.6048 215.317 62.4178 215.161 62.2686 214.953C62.1219 214.745 62.0485 214.482 62.0485 214.165V208.739ZM65.8517 217.545C65.7097 217.545 65.583 217.534 65.4718 217.51C65.3605 217.489 65.2836 217.467 65.2409 217.446L65.454 216.707C65.6576 216.759 65.8375 216.778 65.9938 216.764C66.15 216.75 66.2885 216.68 66.4093 216.555C66.5324 216.432 66.6448 216.232 66.7466 215.955L66.9029 215.528L64.8858 210.045H65.7949L67.3006 214.392H67.3574L68.8631 210.045H69.7722L67.4569 216.295C67.3527 216.577 67.2237 216.81 67.0698 216.995C66.9159 217.182 66.7372 217.321 66.5336 217.411C66.3323 217.5 66.1051 217.545 65.8517 217.545ZM70.8784 217.545V210.045H71.688V210.912H71.7875C71.849 210.817 71.9342 210.696 72.0431 210.55C72.1544 210.401 72.313 210.268 72.519 210.152C72.7273 210.034 73.0091 209.974 73.3642 209.974C73.8234 209.974 74.2283 210.089 74.5787 210.319C74.929 210.549 75.2025 210.874 75.399 211.295C75.5955 211.717 75.6937 212.214 75.6937 212.787C75.6937 213.365 75.5955 213.865 75.399 214.289C75.2025 214.71 74.9302 215.037 74.5822 215.269C74.2342 215.499 73.8329 215.614 73.3784 215.614C73.028 215.614 72.7475 215.556 72.5368 215.44C72.3261 215.321 72.1639 215.187 72.0502 215.038C71.9366 214.887 71.849 214.761 71.7875 214.662H71.7164V217.545H70.8784ZM71.7022 212.773C71.7022 213.185 71.7626 213.548 71.8833 213.863C72.0041 214.175 72.1805 214.42 72.4125 214.598C72.6445 214.773 72.9286 214.861 73.2647 214.861C73.6151 214.861 73.9075 214.768 74.1419 214.584C74.3786 214.397 74.5562 214.146 74.6745 213.831C74.7953 213.514 74.8556 213.161 74.8556 212.773C74.8556 212.389 74.7965 212.044 74.6781 211.736C74.5621 211.426 74.3857 211.181 74.149 211.001C73.9146 210.818 73.6199 210.727 73.2647 210.727C72.9238 210.727 72.6374 210.814 72.4054 210.987C72.1734 211.157 71.9982 211.396 71.8798 211.704C71.7614 212.009 71.7022 212.366 71.7022 212.773ZM79.2591 215.614C78.7335 215.614 78.2801 215.498 77.899 215.266C77.5202 215.031 77.2278 214.705 77.0218 214.286C76.8182 213.864 76.7164 213.374 76.7164 212.815C76.7164 212.257 76.8182 211.764 77.0218 211.338C77.2278 210.91 77.5143 210.576 77.8812 210.337C78.2505 210.095 78.6814 209.974 79.1738 209.974C79.4579 209.974 79.7385 210.022 80.0154 210.116C80.2924 210.211 80.5446 210.365 80.7718 210.578C80.9991 210.789 81.1802 211.068 81.3152 211.416C81.4501 211.764 81.5176 212.193 81.5176 212.702V213.057H77.313V212.332H80.6653C80.6653 212.025 80.6038 211.75 80.4806 211.509C80.3599 211.267 80.1871 211.076 79.9622 210.937C79.7396 210.797 79.4769 210.727 79.1738 210.727C78.84 210.727 78.5512 210.81 78.3074 210.976C78.0659 211.139 77.88 211.352 77.7498 211.615C77.6196 211.878 77.5545 212.16 77.5545 212.46V212.943C77.5545 213.355 77.6255 213.704 77.7676 213.991C77.912 214.275 78.112 214.491 78.3677 214.641C78.6234 214.787 78.9205 214.861 79.2591 214.861C79.4792 214.861 79.6781 214.83 79.8556 214.768C80.0356 214.705 80.1906 214.61 80.3208 214.484C80.4511 214.357 80.5517 214.198 80.6227 214.009L81.4324 214.236C81.3471 214.51 81.2039 214.752 81.0027 214.96C80.8014 215.166 80.5529 215.327 80.2569 215.443C79.961 215.557 79.6284 215.614 79.2591 215.614Z" fill="var(--colors-neutral-neutral-800)"/>
<path d="M144.881 215.5V208.227H149.241V209.009H145.761V211.466H148.915V212.247H145.761V215.5H144.881ZM150.636 215.5V210.045H151.474V215.5H150.636ZM151.062 209.136C150.899 209.136 150.758 209.081 150.64 208.969C150.524 208.858 150.466 208.724 150.466 208.568C150.466 208.412 150.524 208.278 150.64 208.167C150.758 208.056 150.899 208 151.062 208C151.226 208 151.365 208.056 151.481 208.167C151.6 208.278 151.659 208.412 151.659 208.568C151.659 208.724 151.6 208.858 151.481 208.969C151.365 209.081 151.226 209.136 151.062 209.136ZM153.009 215.5V210.045H153.819V210.869H153.876C153.975 210.599 154.155 210.38 154.415 210.212C154.676 210.044 154.969 209.96 155.296 209.96C155.358 209.96 155.435 209.961 155.527 209.964C155.619 209.966 155.689 209.97 155.737 209.974V210.827C155.708 210.82 155.643 210.809 155.541 210.795C155.442 210.778 155.336 210.77 155.225 210.77C154.96 210.77 154.723 210.826 154.515 210.937C154.309 211.046 154.146 211.197 154.025 211.391C153.906 211.583 153.847 211.802 153.847 212.048V215.5H153.009ZM158.851 215.614C158.325 215.614 157.872 215.498 157.491 215.266C157.112 215.031 156.82 214.705 156.614 214.286C156.41 213.864 156.308 213.374 156.308 212.815C156.308 212.257 156.41 211.764 156.614 211.338C156.82 210.91 157.106 210.576 157.473 210.337C157.842 210.095 158.273 209.974 158.766 209.974C159.05 209.974 159.33 210.022 159.607 210.116C159.884 210.211 160.136 210.365 160.364 210.578C160.591 210.789 160.772 211.068 160.907 211.416C161.042 211.764 161.109 212.193 161.109 212.702V213.057H156.905V212.332H160.257C160.257 212.025 160.196 211.75 160.072 211.509C159.952 211.267 159.779 211.076 159.554 210.937C159.331 210.797 159.069 210.727 158.766 210.727C158.432 210.727 158.143 210.81 157.899 210.976C157.658 211.139 157.472 211.352 157.342 211.615C157.211 211.878 157.146 212.16 157.146 212.46V212.943C157.146 213.355 157.217 213.704 157.359 213.991C157.504 214.275 157.704 214.491 157.96 214.641C158.215 214.787 158.512 214.861 158.851 214.861C159.071 214.861 159.27 214.83 159.447 214.768C159.627 214.705 159.782 214.61 159.913 214.484C160.043 214.357 160.143 214.198 160.214 214.009L161.024 214.236C160.939 214.51 160.796 214.752 160.594 214.96C160.393 215.166 160.145 215.327 159.849 215.443C159.553 215.557 159.22 215.614 158.851 215.614ZM166.802 215.628C166.456 215.628 166.143 215.563 165.861 215.433C165.579 215.3 165.355 215.109 165.19 214.861C165.024 214.61 164.941 214.307 164.941 213.952C164.941 213.639 165.003 213.386 165.126 213.192C165.249 212.995 165.413 212.841 165.619 212.73C165.825 212.619 166.053 212.536 166.301 212.482C166.552 212.425 166.804 212.38 167.058 212.347C167.389 212.304 167.658 212.272 167.864 212.251C168.072 212.227 168.223 212.188 168.318 212.134C168.415 212.079 168.464 211.984 168.464 211.849V211.821C168.464 211.471 168.368 211.198 168.176 211.004C167.987 210.81 167.699 210.713 167.313 210.713C166.913 210.713 166.599 210.801 166.372 210.976C166.145 211.151 165.985 211.338 165.893 211.537L165.097 211.253C165.239 210.921 165.429 210.663 165.665 210.479C165.905 210.292 166.165 210.161 166.447 210.088C166.731 210.012 167.01 209.974 167.285 209.974C167.46 209.974 167.661 209.996 167.888 210.038C168.118 210.079 168.339 210.163 168.553 210.29C168.768 210.418 168.947 210.611 169.089 210.869C169.231 211.127 169.302 211.473 169.302 211.906V215.5H168.464V214.761H168.421C168.364 214.88 168.27 215.006 168.137 215.141C168.004 215.276 167.828 215.391 167.608 215.486C167.388 215.58 167.119 215.628 166.802 215.628ZM166.93 214.875C167.261 214.875 167.54 214.81 167.768 214.68C167.997 214.549 168.17 214.381 168.286 214.175C168.405 213.969 168.464 213.753 168.464 213.526V212.759C168.428 212.801 168.35 212.84 168.229 212.876C168.111 212.909 167.974 212.938 167.817 212.964C167.664 212.988 167.513 213.009 167.366 213.028C167.222 213.045 167.105 213.059 167.015 213.071C166.797 213.099 166.594 213.146 166.404 213.21C166.217 213.271 166.066 213.365 165.95 213.49C165.836 213.613 165.779 213.781 165.779 213.994C165.779 214.286 165.887 214.506 166.102 214.655C166.32 214.802 166.596 214.875 166.93 214.875ZM171.67 208.227V215.5H170.831V208.227H171.67ZM174.81 215.628C174.464 215.628 174.15 215.563 173.869 215.433C173.587 215.3 173.363 215.109 173.197 214.861C173.032 214.61 172.949 214.307 172.949 213.952C172.949 213.639 173.01 213.386 173.134 213.192C173.257 212.995 173.421 212.841 173.627 212.73C173.833 212.619 174.06 212.536 174.309 212.482C174.56 212.425 174.812 212.38 175.065 212.347C175.397 212.304 175.665 212.272 175.871 212.251C176.08 212.227 176.231 212.188 176.326 212.134C176.423 212.079 176.472 211.984 176.472 211.849V211.821C176.472 211.471 176.376 211.198 176.184 211.004C175.995 210.81 175.707 210.713 175.321 210.713C174.921 210.713 174.607 210.801 174.38 210.976C174.153 211.151 173.993 211.338 173.901 211.537L173.105 211.253C173.247 210.921 173.437 210.663 173.673 210.479C173.912 210.292 174.173 210.161 174.455 210.088C174.739 210.012 175.018 209.974 175.293 209.974C175.468 209.974 175.669 209.996 175.896 210.038C176.126 210.079 176.347 210.163 176.56 210.29C176.776 210.418 176.955 210.611 177.097 210.869C177.239 211.127 177.31 211.473 177.31 211.906V215.5H176.472V214.761H176.429C176.372 214.88 176.277 215.006 176.145 215.141C176.012 215.276 175.836 215.391 175.616 215.486C175.396 215.58 175.127 215.628 174.81 215.628ZM174.938 214.875C175.269 214.875 175.548 214.81 175.776 214.68C176.005 214.549 176.178 214.381 176.294 214.175C176.412 213.969 176.472 213.753 176.472 213.526V212.759C176.436 212.801 176.358 212.84 176.237 212.876C176.119 212.909 175.982 212.938 175.825 212.964C175.671 212.988 175.521 213.009 175.374 213.028C175.23 213.045 175.113 213.059 175.023 213.071C174.805 213.099 174.601 213.146 174.412 213.21C174.225 213.271 174.073 213.365 173.957 213.49C173.844 213.613 173.787 213.781 173.787 213.994C173.787 214.286 173.895 214.506 174.11 214.655C174.328 214.802 174.604 214.875 174.938 214.875ZM178.839 215.5V210.045H179.649V210.869H179.706C179.805 210.599 179.985 210.38 180.246 210.212C180.506 210.044 180.8 209.96 181.126 209.96C181.188 209.96 181.265 209.961 181.357 209.964C181.449 209.966 181.519 209.97 181.567 209.974V210.827C181.538 210.82 181.473 210.809 181.371 210.795C181.272 210.778 181.166 210.77 181.055 210.77C180.79 210.77 180.553 210.826 180.345 210.937C180.139 211.046 179.976 211.197 179.855 211.391C179.737 211.583 179.677 211.802 179.677 212.048V215.5H178.839ZM182.56 215.5V210.045H183.37V210.898H183.441C183.554 210.607 183.738 210.38 183.991 210.219C184.244 210.056 184.549 209.974 184.904 209.974C185.264 209.974 185.563 210.056 185.802 210.219C186.044 210.38 186.232 210.607 186.367 210.898H186.424C186.563 210.616 186.773 210.392 187.052 210.227C187.332 210.058 187.667 209.974 188.057 209.974C188.545 209.974 188.944 210.127 189.254 210.433C189.564 210.736 189.719 211.208 189.719 211.849V215.5H188.881V211.849C188.881 211.447 188.771 211.159 188.551 210.987C188.331 210.814 188.071 210.727 187.773 210.727C187.39 210.727 187.092 210.843 186.882 211.075C186.671 211.305 186.566 211.596 186.566 211.949V215.5H185.713V211.764C185.713 211.454 185.613 211.204 185.412 211.015C185.21 210.823 184.951 210.727 184.634 210.727C184.416 210.727 184.212 210.785 184.023 210.901C183.836 211.017 183.685 211.178 183.569 211.384C183.455 211.588 183.398 211.823 183.398 212.091V215.5H182.56Z" fill="var(--colors-neutral-neutral-800)"/>
<path d="M200 213.801L196.461 210.263L196.933 209.791L200 212.858L203.067 209.791L203.538 210.263L200 213.801Z" fill="var(--colors-neutral-neutral-500)"/>
<path d="M304 291.5H0V292.5H304V291.5Z" fill="var(--colors-neutral-neutral-400)"/>
<path d="M16.864 272V263.624H23.02V264.884H18.376V267.032H21.532V268.292H18.376V272H16.864ZM26.9847 272V263.156H28.4247V272H26.9847ZM24.6447 272V270.836H30.7887V272H24.6447ZM25.5087 264.32V263.156H27.7047V264.32H25.5087ZM35.5094 272.144C34.8134 272.144 34.2134 272.004 33.7094 271.724C33.2134 271.444 32.8294 271.048 32.5574 270.536C32.2934 270.016 32.1614 269.4 32.1614 268.688C32.1614 267.968 32.2934 267.352 32.5574 266.84C32.8294 266.328 33.2134 265.932 33.7094 265.652C34.2134 265.372 34.8134 265.232 35.5094 265.232C36.5494 265.232 37.3654 265.54 37.9574 266.156C38.5494 266.764 38.8454 267.608 38.8454 268.688C38.8454 269.4 38.7094 270.016 38.4374 270.536C38.1734 271.048 37.7894 271.444 37.2854 271.724C36.7894 272.004 36.1974 272.144 35.5094 272.144ZM35.5094 270.968C36.0934 270.968 36.5534 270.764 36.8894 270.356C37.2334 269.948 37.4054 269.392 37.4054 268.688C37.4054 267.976 37.2334 267.42 36.8894 267.02C36.5534 266.612 36.0934 266.408 35.5094 266.408C34.9094 266.408 34.4414 266.612 34.1054 267.02C33.7694 267.42 33.6014 267.976 33.6014 268.688C33.6014 269.392 33.7694 269.948 34.1054 270.356C34.4414 270.764 34.9094 270.968 35.5094 270.968ZM40.6741 272L39.6421 265.352H40.9741L41.4781 268.976L41.6821 270.512L41.9581 268.976L42.6901 265.352H43.9741L44.7421 268.976L45.0301 270.536L45.2221 268.976L45.7261 265.352H46.9981L45.9781 272H44.3101L43.5421 268.532L43.3261 266.72L43.0981 268.532L42.3421 272H40.6741ZM51.2868 272.144C50.6948 272.144 50.1708 272.044 49.7148 271.844C49.2668 271.636 48.9188 271.344 48.6708 270.968C48.4228 270.592 48.2948 270.148 48.2868 269.636H49.6308C49.6228 270.084 49.7668 270.436 50.0628 270.692C50.3668 270.948 50.7748 271.076 51.2868 271.076C51.6948 271.076 52.0228 271 52.2708 270.848C52.5188 270.696 52.6428 270.488 52.6428 270.224C52.6428 270.016 52.5668 269.848 52.4148 269.72C52.2628 269.592 52.0588 269.492 51.8028 269.42C51.5548 269.348 51.2788 269.284 50.9748 269.228C50.6788 269.164 50.3788 269.092 50.0748 269.012C49.7708 268.924 49.4908 268.812 49.2348 268.676C48.9868 268.532 48.7868 268.344 48.6348 268.112C48.4828 267.88 48.4068 267.584 48.4068 267.224C48.4068 266.832 48.5148 266.488 48.7308 266.192C48.9548 265.888 49.2708 265.652 49.6788 265.484C50.0868 265.316 50.5668 265.232 51.1188 265.232C51.9508 265.232 52.6228 265.428 53.1348 265.82C53.6468 266.204 53.9228 266.736 53.9628 267.416H52.6308C52.6068 267.056 52.4588 266.78 52.1868 266.588C51.9228 266.396 51.5668 266.3 51.1188 266.3C50.7108 266.3 50.3948 266.38 50.1708 266.54C49.9548 266.7 49.8468 266.904 49.8468 267.152C49.8468 267.36 49.9228 267.52 50.0748 267.632C50.2348 267.744 50.4388 267.832 50.6868 267.896C50.9348 267.96 51.2108 268.02 51.5148 268.076C51.8188 268.124 52.1188 268.188 52.4148 268.268C52.7188 268.348 52.9948 268.46 53.2428 268.604C53.4988 268.74 53.7028 268.928 53.8548 269.168C54.0148 269.408 54.0948 269.72 54.0948 270.104C54.0948 270.736 53.8388 271.236 53.3268 271.604C52.8228 271.964 52.1428 272.144 51.2868 272.144Z" fill="var(--colors-neutral-neutral-800)"/>
<rect x="64" y="260" width="16" height="16" rx="8" fill="var(--colors-neutral-neutral-300)"/>
<path d="M69.518 271.5V270.74C70.438 270.053 71.178 269.457 71.738 268.95C72.298 268.437 72.7047 267.983 72.958 267.59C73.2114 267.19 73.338 266.827 73.338 266.5C73.338 266.14 73.2247 265.85 72.998 265.63C72.778 265.41 72.468 265.3 72.068 265.3C71.648 265.3 71.3014 265.43 71.028 265.69C70.7547 265.943 70.608 266.303 70.588 266.77H69.518C69.5514 266.27 69.678 265.843 69.898 265.49C70.1247 265.13 70.4247 264.86 70.798 264.68C71.178 264.493 71.608 264.4 72.088 264.4C72.568 264.4 72.9847 264.487 73.338 264.66C73.6914 264.827 73.9614 265.067 74.148 265.38C74.3414 265.687 74.438 266.043 74.438 266.45C74.438 266.89 74.3247 267.323 74.098 267.75C73.878 268.17 73.5214 268.613 73.028 269.08C72.5414 269.54 71.8947 270.047 71.088 270.6H74.458V271.5H69.518Z" fill="var(--colors-neutral-neutral-800)"/>
<path d="M241.615 277C241.155 277 240.771 276.846 240.463 276.538C240.154 276.229 240 275.845 240 275.385V262.615C240 262.155 240.154 261.771 240.463 261.463C240.771 261.154 241.155 261 241.615 261H243.385V258.769H244.462V261H251.615V258.769H252.615V261H254.385C254.845 261 255.229 261.154 255.538 261.463C255.846 261.771 256 262.155 256 262.615V275.385C256 275.845 255.846 276.229 255.538 276.538C255.229 276.846 254.845 277 254.385 277H241.615ZM241.615 276H254.385C254.538 276 254.679 275.936 254.808 275.808C254.936 275.679 255 275.538 255 275.385V266.615H241V275.385C241 275.538 241.064 275.679 241.192 275.808C241.321 275.936 241.462 276 241.615 276ZM241 265.615H255V262.615C255 262.462 254.936 262.321 254.808 262.192C254.679 262.064 254.538 262 254.385 262H241.615C241.462 262 241.321 262.064 241.192 262.192C241.064 262.321 241 262.462 241 262.615V265.615ZM243.5 269.5V268.5H252.5V269.5H243.5ZM243.5 273.5V272.5H249.5V273.5H243.5Z" fill="var(--colors-neutral-neutral-800)"/>
<path d="M280 270.702L274.692 265.394L275.4 264.687L280 269.287L284.6 264.687L285.308 265.394L280 270.702Z" fill="var(--colors-neutral-neutral-800)"/>
<path d="M304 339.5H0V340.5H304V339.5Z" fill="var(--colors-neutral-neutral-400)"/>
<path d="M17.212 320V311.624H18.724V318.74H22.996V320H17.212ZM29.2887 320L29.2287 318.596V315.62C29.2287 315.204 29.0887 314.876 28.8087 314.636C28.5287 314.396 28.1407 314.276 27.6447 314.276C27.1727 314.276 26.7847 314.384 26.4807 314.6C26.1847 314.816 26.0167 315.112 25.9767 315.488H24.5847C24.6247 315.016 24.7767 314.612 25.0407 314.276C25.3127 313.94 25.6727 313.684 26.1207 313.508C26.5767 313.324 27.1007 313.232 27.6927 313.232C28.3007 313.232 28.8247 313.328 29.2647 313.52C29.7127 313.712 30.0567 313.992 30.2967 314.36C30.5367 314.728 30.6567 315.176 30.6567 315.704V320H29.2887ZM26.9847 320.144C26.5527 320.144 26.1687 320.064 25.8327 319.904C25.5047 319.744 25.2487 319.516 25.0647 319.22C24.8807 318.924 24.7887 318.58 24.7887 318.188C24.7887 317.508 25.0527 316.98 25.5807 316.604C26.1087 316.22 26.8407 316.028 27.7767 316.028H29.3967V317.06L27.7287 317.072C27.2487 317.072 26.8727 317.164 26.6007 317.348C26.3287 317.524 26.1927 317.78 26.1927 318.116C26.1927 318.38 26.2887 318.592 26.4807 318.752C26.6807 318.912 26.9527 318.992 27.2967 318.992C27.7367 318.992 28.1287 318.876 28.4727 318.644C28.8247 318.404 29.1087 318.076 29.3247 317.66L29.4807 318.668C29.2727 319.156 28.9567 319.524 28.5327 319.772C28.1087 320.02 27.5927 320.144 26.9847 320.144ZM34.8974 316.328L35.5094 317.996L36.1334 316.316L37.3814 313.376H38.8454L35.8214 320.516C35.6374 320.964 35.4294 321.316 35.1974 321.572C34.9734 321.828 34.7174 322.008 34.4294 322.112C34.1414 322.224 33.8094 322.28 33.4334 322.28H32.2454V321.116H33.3134C33.5294 321.116 33.7094 321.068 33.8534 320.972C34.0054 320.884 34.1414 320.748 34.2614 320.564C34.3814 320.388 34.4974 320.168 34.6094 319.904L34.7774 319.52L32.1734 313.376H33.6614L34.8974 316.328ZM43.3861 320.144C42.6901 320.144 42.0901 320.008 41.5861 319.736C41.0821 319.456 40.6941 319.056 40.4221 318.536C40.1581 318.016 40.0261 317.396 40.0261 316.676C40.0261 315.956 40.1621 315.34 40.4341 314.828C40.7061 314.308 41.0981 313.912 41.6101 313.64C42.1221 313.368 42.7341 313.232 43.4461 313.232C44.5501 313.232 45.3621 313.54 45.8821 314.156C46.4101 314.772 46.6381 315.616 46.5661 316.688H41.1661L41.1781 315.644L45.1021 315.656C45.0701 315.272 44.9021 314.964 44.5981 314.732C44.2941 314.5 43.9101 314.384 43.4461 314.384C42.7901 314.384 42.2941 314.588 41.9581 314.996C41.6221 315.404 41.4541 315.984 41.4541 316.736C41.4541 317.168 41.5301 317.556 41.6821 317.9C41.8341 318.236 42.0501 318.5 42.3301 318.692C42.6181 318.876 42.9701 318.968 43.3861 318.968C43.8581 318.968 44.2501 318.856 44.5621 318.632C44.8821 318.408 45.0781 318.108 45.1501 317.732H46.5901C46.4941 318.476 46.1581 319.064 45.5821 319.496C45.0141 319.928 44.2821 320.144 43.3861 320.144ZM52.7988 316.376V315.548C52.7988 315.22 52.6988 314.956 52.4988 314.756C52.3068 314.548 52.0268 314.444 51.6588 314.444C51.2108 314.444 50.8028 314.608 50.4348 314.936C50.0668 315.264 49.7588 315.78 49.5108 316.484L49.3308 315.14C49.5148 314.724 49.7308 314.376 49.9788 314.096C50.2348 313.808 50.5228 313.592 50.8428 313.448C51.1708 313.304 51.5268 313.232 51.9108 313.232C52.5908 313.232 53.1468 313.432 53.5788 313.832C54.0108 314.232 54.2268 314.804 54.2268 315.548V316.376H52.7988ZM48.3348 320V313.376H49.6908L49.7628 314.78V320H48.3348ZM59.0914 320.144C58.4994 320.144 57.9754 320.044 57.5194 319.844C57.0714 319.636 56.7234 319.344 56.4754 318.968C56.2274 318.592 56.0994 318.148 56.0914 317.636H57.4354C57.4274 318.084 57.5714 318.436 57.8674 318.692C58.1714 318.948 58.5794 319.076 59.0914 319.076C59.4994 319.076 59.8274 319 60.0754 318.848C60.3234 318.696 60.4474 318.488 60.4474 318.224C60.4474 318.016 60.3714 317.848 60.2194 317.72C60.0674 317.592 59.8634 317.492 59.6074 317.42C59.3594 317.348 59.0834 317.284 58.7794 317.228C58.4834 317.164 58.1834 317.092 57.8794 317.012C57.5754 316.924 57.2954 316.812 57.0394 316.676C56.7914 316.532 56.5914 316.344 56.4394 316.112C56.2874 315.88 56.2114 315.584 56.2114 315.224C56.2114 314.832 56.3194 314.488 56.5354 314.192C56.7594 313.888 57.0754 313.652 57.4834 313.484C57.8914 313.316 58.3714 313.232 58.9234 313.232C59.7554 313.232 60.4274 313.428 60.9394 313.82C61.4514 314.204 61.7274 314.736 61.7674 315.416H60.4354C60.4114 315.056 60.2634 314.78 59.9914 314.588C59.7274 314.396 59.3714 314.3 58.9234 314.3C58.5154 314.3 58.1994 314.38 57.9754 314.54C57.7594 314.7 57.6514 314.904 57.6514 315.152C57.6514 315.36 57.7274 315.52 57.8794 315.632C58.0394 315.744 58.2434 315.832 58.4914 315.896C58.7394 315.96 59.0154 316.02 59.3194 316.076C59.6234 316.124 59.9234 316.188 60.2194 316.268C60.5234 316.348 60.7994 316.46 61.0474 316.604C61.3034 316.74 61.5074 316.928 61.6594 317.168C61.8194 317.408 61.8994 317.72 61.8994 318.104C61.8994 318.736 61.6434 319.236 61.1314 319.604C60.6274 319.964 59.9474 320.144 59.0914 320.144Z" fill="var(--colors-neutral-neutral-800)"/>
<path d="M280 318.702L274.692 313.394L275.4 312.687L280 317.287L284.6 312.687L285.308 313.394L280 318.702Z" fill="var(--colors-neutral-neutral-800)"/>
</svg>
