<svg width="304" height="94" viewBox="0 0 304 94" fill="none" xmlns="http://www.w3.org/2000/svg">
<path d="M18.004 12.616V11.368H20.056C20.368 11.368 20.644 11.316 20.884 11.212C21.124 11.1 21.312 10.948 21.448 10.756C21.584 10.556 21.652 10.328 21.652 10.072C21.652 9.824 21.592 9.612 21.472 9.436C21.352 9.26 21.188 9.124 20.98 9.028C20.772 8.932 20.536 8.884 20.272 8.884H18.004V7.624H20.272C20.84 7.624 21.344 7.72 21.784 7.912C22.232 8.104 22.584 8.384 22.84 8.752C23.096 9.112 23.224 9.552 23.224 10.072C23.224 10.392 23.148 10.704 22.996 11.008C22.844 11.312 22.628 11.588 22.348 11.836C22.068 12.076 21.728 12.268 21.328 12.412C20.928 12.548 20.476 12.616 19.972 12.616H18.004ZM16.924 16V7.624H18.436V16H16.924ZM21.652 16C21.62 15.632 21.532 15.268 21.388 14.908C21.244 14.54 21.04 14.188 20.776 13.852C20.52 13.516 20.204 13.208 19.828 12.928C19.452 12.64 19.012 12.392 18.508 12.184L20.188 11.824C20.692 12.08 21.128 12.368 21.496 12.688C21.864 13.008 22.168 13.352 22.408 13.72C22.656 14.08 22.844 14.456 22.972 14.848C23.1 15.232 23.176 15.616 23.2 16H21.652ZM26.0007 9.376V13.516C26.0007 13.948 26.1167 14.292 26.3487 14.548C26.5887 14.804 26.8967 14.932 27.2727 14.932C27.7047 14.932 28.0927 14.78 28.4367 14.476C28.7887 14.164 29.0887 13.668 29.3367 12.988L29.5527 14.416C29.2887 15 28.9287 15.436 28.4727 15.724C28.0167 16.004 27.5287 16.144 27.0087 16.144C26.5047 16.144 26.0687 16.04 25.7007 15.832C25.3407 15.616 25.0607 15.32 24.8607 14.944C24.6687 14.56 24.5727 14.112 24.5727 13.6V9.376H26.0007ZM30.6207 9.376V16H29.2527L29.1927 14.608V9.376H30.6207ZM37.1294 16V11.86C37.1294 11.428 37.0094 11.084 36.7694 10.828C36.5374 10.572 36.2334 10.444 35.8574 10.444C35.4254 10.444 35.0334 10.6 34.6814 10.912C34.3374 11.216 34.0414 11.708 33.7934 12.388L33.5774 10.96C33.8414 10.376 34.2014 9.944 34.6574 9.664C35.1134 9.376 35.6014 9.232 36.1214 9.232C36.6254 9.232 37.0574 9.34 37.4174 9.556C37.7854 9.764 38.0654 10.06 38.2574 10.444C38.4574 10.82 38.5574 11.264 38.5574 11.776V16H37.1294ZM32.5094 16V9.376H33.8774L33.9374 10.768V16H32.5094ZM48.0708 16V14.944C49.1508 14.152 50.0188 13.464 50.6748 12.88C51.3388 12.288 51.8188 11.764 52.1148 11.308C52.4188 10.852 52.5708 10.432 52.5708 10.048C52.5708 9.656 52.4428 9.344 52.1868 9.112C51.9388 8.872 51.6028 8.752 51.1788 8.752C50.7148 8.752 50.3308 8.896 50.0268 9.184C49.7308 9.472 49.5788 9.876 49.5708 10.396H48.0588C48.0908 9.78 48.2428 9.256 48.5148 8.824C48.7868 8.384 49.1548 8.052 49.6188 7.828C50.0828 7.596 50.6148 7.48 51.2148 7.48C51.7988 7.48 52.3068 7.584 52.7388 7.792C53.1788 8 53.5188 8.296 53.7588 8.68C54.0068 9.056 54.1308 9.496 54.1308 10C54.1308 10.528 54.0028 11.04 53.7468 11.536C53.4908 12.024 53.0828 12.528 52.5228 13.048C51.9708 13.568 51.2388 14.132 50.3268 14.74H54.1428V16H48.0708Z" fill="#222222"/>
<rect x="224" y="4.5" width="67" height="15" rx="7.5" fill="#05603A"/>
<path d="M237.168 10.5H236.287C236.235 10.2467 236.144 10.0241 236.013 9.83239C235.886 9.64062 235.729 9.47964 235.545 9.34943C235.362 9.21686 235.16 9.11742 234.937 9.05114C234.715 8.98485 234.483 8.9517 234.241 8.9517C233.801 8.9517 233.402 9.06297 233.045 9.28551C232.69 9.50805 232.407 9.83594 232.196 10.2692C231.988 10.7024 231.883 11.2339 231.883 11.8636C231.883 12.4934 231.988 13.0249 232.196 13.4581C232.407 13.8913 232.69 14.2192 233.045 14.4418C233.402 14.6643 233.801 14.7756 234.241 14.7756C234.483 14.7756 234.715 14.7424 234.937 14.6761C235.16 14.6098 235.362 14.5116 235.545 14.3814C235.729 14.2488 235.886 14.0866 236.013 13.8949C236.144 13.7008 236.235 13.4782 236.287 13.2273H237.168C237.101 13.599 236.98 13.9316 236.805 14.2251C236.63 14.5187 236.412 14.7685 236.152 14.9744C235.891 15.178 235.599 15.3331 235.275 15.4396C234.953 15.5462 234.608 15.5994 234.241 15.5994C233.621 15.5994 233.07 15.4479 232.587 15.1449C232.104 14.8419 231.724 14.411 231.447 13.8523C231.17 13.2936 231.031 12.6307 231.031 11.8636C231.031 11.0966 231.17 10.4337 231.447 9.875C231.724 9.31629 232.104 8.88542 232.587 8.58239C233.07 8.27936 233.621 8.12784 234.241 8.12784C234.608 8.12784 234.953 8.18111 235.275 8.28764C235.599 8.39418 235.891 8.55043 236.152 8.75639C236.412 8.95999 236.63 9.20857 236.805 9.50213C236.98 9.79332 237.101 10.1259 237.168 10.5ZM244.727 11.8636C244.727 12.6307 244.589 13.2936 244.312 13.8523C244.035 14.411 243.655 14.8419 243.172 15.1449C242.689 15.4479 242.137 15.5994 241.517 15.5994C240.897 15.5994 240.345 15.4479 239.862 15.1449C239.379 14.8419 238.999 14.411 238.722 13.8523C238.445 13.2936 238.307 12.6307 238.307 11.8636C238.307 11.0966 238.445 10.4337 238.722 9.875C238.999 9.31629 239.379 8.88542 239.862 8.58239C240.345 8.27936 240.897 8.12784 241.517 8.12784C242.137 8.12784 242.689 8.27936 243.172 8.58239C243.655 8.88542 244.035 9.31629 244.312 9.875C244.589 10.4337 244.727 11.0966 244.727 11.8636ZM243.875 11.8636C243.875 11.2339 243.769 10.7024 243.559 10.2692C243.35 9.83594 243.067 9.50805 242.71 9.28551C242.355 9.06297 241.957 8.9517 241.517 8.9517C241.076 8.9517 240.678 9.06297 240.32 9.28551C239.965 9.50805 239.682 9.83594 239.471 10.2692C239.263 10.7024 239.159 11.2339 239.159 11.8636C239.159 12.4934 239.263 13.0249 239.471 13.4581C239.682 13.8913 239.965 14.2192 240.32 14.4418C240.678 14.6643 241.076 14.7756 241.517 14.7756C241.957 14.7756 242.355 14.6643 242.71 14.4418C243.067 14.2192 243.35 13.8913 243.559 13.4581C243.769 13.0249 243.875 12.4934 243.875 11.8636ZM246.208 8.22727H247.259L249.731 14.2642H249.816L252.287 8.22727H253.339V15.5H252.515V9.97443H252.444L250.171 15.5H249.375L247.103 9.97443H247.032V15.5H246.208V8.22727ZM255.104 15.5V8.22727H257.562C258.132 8.22727 258.599 8.33026 258.961 8.53622C259.325 8.73982 259.595 9.01562 259.771 9.36364C259.946 9.71165 260.033 10.0999 260.033 10.5284C260.033 10.9569 259.946 11.3464 259.771 11.6967C259.598 12.0471 259.33 12.3265 258.968 12.5348C258.606 12.7408 258.142 12.8438 257.576 12.8438H255.815V12.0625H257.547C257.938 12.0625 258.252 11.995 258.489 11.8601C258.725 11.7251 258.897 11.5429 259.003 11.3132C259.112 11.0812 259.167 10.8196 259.167 10.5284C259.167 10.2372 259.112 9.9768 259.003 9.74716C258.897 9.51752 258.724 9.33759 258.485 9.20739C258.246 9.07481 257.929 9.00852 257.533 9.00852H255.985V15.5H255.104ZM261.452 15.5V8.22727H262.333V14.7188H265.713V15.5H261.452ZM267.077 15.5V8.22727H271.466V9.00852H267.958V11.4659H271.239V12.2472H267.958V14.7188H271.523V15.5H267.077ZM272.656 9.00852V8.22727H278.11V9.00852H275.823V15.5H274.943V9.00852H272.656ZM279.47 15.5V8.22727H283.859V9.00852H280.35V11.4659H283.631V12.2472H280.35V14.7188H283.916V15.5H279.47Z" fill="white"/>
<path d="M19.25 45.62C18.69 45.62 18.21 45.4733 17.81 45.18C17.4167 44.88 17.1167 44.46 16.91 43.92C16.7033 43.38 16.6 42.7433 16.6 42.01C16.6 41.27 16.7033 40.63 16.91 40.09C17.1167 39.55 17.4167 39.1333 17.81 38.84C18.21 38.5467 18.69 38.4 19.25 38.4C19.8167 38.4 20.2933 38.5467 20.68 38.84C21.0733 39.1333 21.3733 39.55 21.58 40.09C21.7867 40.6233 21.89 41.2633 21.89 42.01C21.89 42.75 21.7867 43.39 21.58 43.93C21.3733 44.47 21.0733 44.8867 20.68 45.18C20.2933 45.4733 19.8167 45.62 19.25 45.62ZM19.25 44.87C19.8233 44.87 20.2567 44.6167 20.55 44.11C20.8433 43.6033 20.99 42.9033 20.99 42.01C20.99 41.11 20.8433 40.41 20.55 39.91C20.2567 39.4033 19.8233 39.15 19.25 39.15C18.6767 39.15 18.2433 39.4033 17.95 39.91C17.6567 40.41 17.51 41.11 17.51 42.01C17.51 42.9033 17.6567 43.6033 17.95 44.11C18.2433 44.6167 18.6767 44.87 19.25 44.87ZM25.6139 45.5V40.96L25.6439 39.56L24.5339 40.47L23.2539 41.49V40.45L25.8439 38.52H26.4739V45.5H25.6139ZM23.2539 45.5V44.75H28.0039V45.5H23.2539ZM31.3278 45.5V44.43H32.3878V45.5H31.3278ZM38.1617 45.62C37.6017 45.62 37.1217 45.4733 36.7217 45.18C36.3284 44.88 36.0284 44.46 35.8217 43.92C35.6151 43.38 35.5117 42.7433 35.5117 42.01C35.5117 41.27 35.6151 40.63 35.8217 40.09C36.0284 39.55 36.3284 39.1333 36.7217 38.84C37.1217 38.5467 37.6017 38.4 38.1617 38.4C38.7284 38.4 39.2051 38.5467 39.5917 38.84C39.9851 39.1333 40.2851 39.55 40.4917 40.09C40.6984 40.6233 40.8017 41.2633 40.8017 42.01C40.8017 42.75 40.6984 43.39 40.4917 43.93C40.2851 44.47 39.9851 44.8867 39.5917 45.18C39.2051 45.4733 38.7284 45.62 38.1617 45.62ZM38.1617 44.87C38.7351 44.87 39.1684 44.6167 39.4617 44.11C39.7551 43.6033 39.9017 42.9033 39.9017 42.01C39.9017 41.11 39.7551 40.41 39.4617 39.91C39.1684 39.4033 38.7351 39.15 38.1617 39.15C37.5884 39.15 37.1551 39.4033 36.8617 39.91C36.5684 40.41 36.4217 41.11 36.4217 42.01C36.4217 42.9033 36.5684 43.6033 36.8617 44.11C37.1551 44.6167 37.5884 44.87 38.1617 44.87ZM44.1856 43.11C43.7656 43.11 43.3823 43.0167 43.0356 42.83C42.6956 42.6433 42.4223 42.38 42.2156 42.04C42.0156 41.7 41.9156 41.2967 41.9156 40.83C41.9156 40.35 42.019 39.93 42.2256 39.57C42.4323 39.2033 42.719 38.9167 43.0856 38.71C43.459 38.5033 43.8956 38.4 44.3956 38.4C44.909 38.4 45.359 38.5367 45.7456 38.81C46.139 39.0767 46.4423 39.46 46.6556 39.96C46.869 40.4533 46.9756 41.0467 46.9756 41.74C46.9756 42.4933 46.859 43.1633 46.6256 43.75C46.399 44.33 46.0723 44.7867 45.6456 45.12C45.2256 45.4533 44.7323 45.62 44.1656 45.62C43.839 45.62 43.5523 45.5733 43.3056 45.48C43.059 45.38 42.849 45.2467 42.6756 45.08C42.5023 44.9133 42.3623 44.7267 42.2556 44.52C42.1556 44.3067 42.0923 44.0833 42.0656 43.85H42.9656C43.019 44.1767 43.1523 44.43 43.3656 44.61C43.579 44.7833 43.8556 44.87 44.1956 44.87C44.569 44.87 44.889 44.7533 45.1556 44.52C45.429 44.2867 45.639 43.96 45.7856 43.54C45.939 43.12 46.029 42.6333 46.0556 42.08C45.8623 42.4067 45.6056 42.66 45.2856 42.84C44.9656 43.02 44.599 43.11 44.1856 43.11ZM44.3856 39.15C44.0723 39.15 43.799 39.22 43.5656 39.36C43.3323 39.5 43.149 39.6933 43.0156 39.94C42.8823 40.1867 42.8156 40.4667 42.8156 40.78C42.8156 41.1 42.879 41.38 43.0056 41.62C43.1323 41.8533 43.309 42.0367 43.5356 42.17C43.7623 42.2967 44.0256 42.36 44.3256 42.36C44.7523 42.36 45.109 42.2467 45.3956 42.02C45.689 41.7867 45.9023 41.4867 46.0356 41.12C45.9623 40.52 45.779 40.0433 45.4856 39.69C45.199 39.33 44.8323 39.15 44.3856 39.15ZM50.2395 45.5V44.43H51.2995V45.5H50.2395ZM54.6434 45.5V44.87C55.5834 44.1567 56.3368 43.5333 56.9034 43C57.4768 42.4667 57.8934 41.9967 58.1534 41.59C58.4134 41.1767 58.5434 40.8 58.5434 40.46C58.5434 40.0667 58.4234 39.75 58.1834 39.51C57.9434 39.27 57.6001 39.15 57.1534 39.15C56.7001 39.15 56.3234 39.2867 56.0234 39.56C55.7301 39.8333 55.5668 40.22 55.5334 40.72H54.6634C54.6968 40.2267 54.8234 39.8067 55.0434 39.46C55.2634 39.1133 55.5568 38.85 55.9234 38.67C56.2901 38.49 56.7034 38.4 57.1634 38.4C57.6434 38.4 58.0534 38.4867 58.3934 38.66C58.7334 38.8267 58.9934 39.06 59.1734 39.36C59.3534 39.66 59.4434 40.01 59.4434 40.41C59.4434 40.85 59.3268 41.29 59.0934 41.73C58.8601 42.1633 58.4834 42.6267 57.9634 43.12C57.4434 43.6067 56.7568 44.15 55.9034 44.75H59.4634V45.5H54.6434ZM63.4473 45.62C63.0007 45.62 62.5873 45.53 62.2073 45.35C61.834 45.17 61.534 44.91 61.3073 44.57C61.0807 44.2233 60.964 43.8 60.9573 43.3H61.8373C61.844 43.6133 61.9173 43.8867 62.0573 44.12C62.204 44.3533 62.3973 44.5367 62.6373 44.67C62.8773 44.7967 63.1473 44.86 63.4473 44.86C63.914 44.86 64.2907 44.74 64.5773 44.5C64.864 44.2533 65.0073 43.9367 65.0073 43.55C65.0073 43.2567 64.924 43.0133 64.7573 42.82C64.5973 42.62 64.3807 42.47 64.1073 42.37C63.834 42.27 63.5307 42.22 63.1973 42.22H62.8173V41.5H63.2273C63.534 41.5 63.794 41.4433 64.0073 41.33C64.2207 41.2167 64.384 41.0667 64.4973 40.88C64.6173 40.6867 64.6773 40.48 64.6773 40.26C64.6773 39.9267 64.5607 39.66 64.3273 39.46C64.094 39.2533 63.794 39.15 63.4273 39.15C62.994 39.15 62.634 39.28 62.3473 39.54C62.0673 39.7933 61.914 40.1667 61.8873 40.66H61.0173C61.044 40.1533 61.1707 39.7333 61.3973 39.4C61.6307 39.06 61.924 38.81 62.2773 38.65C62.6373 38.4833 63.024 38.4 63.4373 38.4C63.864 38.4 64.2373 38.4767 64.5573 38.63C64.8773 38.7767 65.1273 38.9833 65.3073 39.25C65.494 39.5167 65.5873 39.83 65.5873 40.19C65.5873 40.4367 65.5307 40.6733 65.4173 40.9C65.304 41.1267 65.1507 41.32 64.9573 41.48C64.7707 41.6333 64.5507 41.74 64.2973 41.8C64.604 41.8467 64.8773 41.95 65.1173 42.11C65.364 42.2633 65.5573 42.4633 65.6973 42.71C65.8373 42.9567 65.9073 43.24 65.9073 43.56C65.9073 43.96 65.804 44.3167 65.5973 44.63C65.3973 44.9433 65.114 45.1867 64.7473 45.36C64.3807 45.5333 63.9473 45.62 63.4473 45.62ZM74.5052 42.77V42.04H77.4652V42.77H74.5052ZM88.593 45.62C88.033 45.62 87.553 45.4733 87.153 45.18C86.7596 44.88 86.4596 44.46 86.253 43.92C86.0463 43.38 85.943 42.7433 85.943 42.01C85.943 41.27 86.0463 40.63 86.253 40.09C86.4596 39.55 86.7596 39.1333 87.153 38.84C87.553 38.5467 88.033 38.4 88.593 38.4C89.1596 38.4 89.6363 38.5467 90.023 38.84C90.4163 39.1333 90.7163 39.55 90.923 40.09C91.1296 40.6233 91.233 41.2633 91.233 42.01C91.233 42.75 91.1296 43.39 90.923 43.93C90.7163 44.47 90.4163 44.8867 90.023 45.18C89.6363 45.4733 89.1596 45.62 88.593 45.62ZM88.593 44.87C89.1663 44.87 89.5996 44.6167 89.893 44.11C90.1863 43.6033 90.333 42.9033 90.333 42.01C90.333 41.11 90.1863 40.41 89.893 39.91C89.5996 39.4033 89.1663 39.15 88.593 39.15C88.0196 39.15 87.5863 39.4033 87.293 39.91C86.9996 40.41 86.853 41.11 86.853 42.01C86.853 42.9033 86.9996 43.6033 87.293 44.11C87.5863 44.6167 88.0196 44.87 88.593 44.87ZM94.8969 45.62C94.4169 45.62 93.9902 45.5333 93.6169 45.36C93.2502 45.1867 92.9635 44.9467 92.7569 44.64C92.5502 44.3333 92.4469 43.9833 92.4469 43.59C92.4469 43.31 92.5102 43.0533 92.6369 42.82C92.7635 42.58 92.9369 42.3767 93.1569 42.21C93.3835 42.0367 93.6435 41.91 93.9369 41.83H95.8469C96.1335 41.9033 96.3902 42.0267 96.6169 42.2C96.8435 42.3733 97.0202 42.5767 97.1469 42.81C97.2735 43.0433 97.3369 43.3 97.3369 43.58C97.3369 43.98 97.2335 44.3333 97.0269 44.64C96.8202 44.9467 96.5335 45.1867 96.1669 45.36C95.8002 45.5333 95.3769 45.62 94.8969 45.62ZM94.8969 44.87C95.1902 44.87 95.4502 44.8167 95.6769 44.71C95.9102 44.5967 96.0935 44.4433 96.2269 44.25C96.3602 44.05 96.4269 43.82 96.4269 43.56C96.4269 43.32 96.3602 43.1067 96.2269 42.92C96.0935 42.7333 95.9102 42.5833 95.6769 42.47C95.4502 42.35 95.1902 42.28 94.8969 42.26C94.6035 42.28 94.3402 42.35 94.1069 42.47C93.8802 42.5833 93.7002 42.7333 93.5669 42.92C93.4335 43.1 93.3669 43.3133 93.3669 43.56C93.3669 43.82 93.4335 44.05 93.5669 44.25C93.7002 44.4433 93.8802 44.5967 94.1069 44.71C94.3402 44.8167 94.6035 44.87 94.8969 44.87ZM94.8969 41.58C95.1635 41.5533 95.4035 41.49 95.6169 41.39C95.8369 41.2833 96.0102 41.1433 96.1369 40.97C96.2635 40.7967 96.3269 40.59 96.3269 40.35C96.3269 39.9833 96.1902 39.69 95.9169 39.47C95.6502 39.25 95.3102 39.14 94.8969 39.14C94.4769 39.14 94.1335 39.25 93.8669 39.47C93.6002 39.69 93.4669 39.9833 93.4669 40.35C93.4669 40.59 93.5269 40.7967 93.6469 40.97C93.7735 41.1433 93.9435 41.2833 94.1569 41.39C94.3769 41.49 94.6235 41.5533 94.8969 41.58ZM93.9969 41.96C93.7302 41.8933 93.4902 41.7833 93.2769 41.63C93.0635 41.47 92.8935 41.28 92.7669 41.06C92.6469 40.8333 92.5869 40.5867 92.5869 40.32C92.5869 39.9467 92.6835 39.6167 92.8769 39.33C93.0769 39.0367 93.3502 38.81 93.6969 38.65C94.0435 38.4833 94.4435 38.4 94.8969 38.4C95.3502 38.4 95.7502 38.4833 96.0969 38.65C96.4435 38.81 96.7135 39.0367 96.9069 39.33C97.1002 39.6167 97.1969 39.95 97.1969 40.33C97.1969 40.59 97.1369 40.8333 97.0169 41.06C96.8969 41.28 96.7302 41.47 96.5169 41.63C96.3035 41.7833 96.0602 41.8933 95.7869 41.96H93.9969ZM100.671 41.7V40.63H101.731V41.7H100.671ZM100.671 45.5V44.43H101.731V45.5H100.671ZM107.575 45.62C107.128 45.62 106.715 45.53 106.335 45.35C105.961 45.17 105.661 44.91 105.435 44.57C105.208 44.2233 105.091 43.8 105.085 43.3H105.965C105.971 43.6133 106.045 43.8867 106.185 44.12C106.331 44.3533 106.525 44.5367 106.765 44.67C107.005 44.7967 107.275 44.86 107.575 44.86C108.041 44.86 108.418 44.74 108.705 44.5C108.991 44.2533 109.135 43.9367 109.135 43.55C109.135 43.2567 109.051 43.0133 108.885 42.82C108.725 42.62 108.508 42.47 108.235 42.37C107.961 42.27 107.658 42.22 107.325 42.22H106.945V41.5H107.355C107.661 41.5 107.921 41.4433 108.135 41.33C108.348 41.2167 108.511 41.0667 108.625 40.88C108.745 40.6867 108.805 40.48 108.805 40.26C108.805 39.9267 108.688 39.66 108.455 39.46C108.221 39.2533 107.921 39.15 107.555 39.15C107.121 39.15 106.761 39.28 106.475 39.54C106.195 39.7933 106.041 40.1667 106.015 40.66H105.145C105.171 40.1533 105.298 39.7333 105.525 39.4C105.758 39.06 106.051 38.81 106.405 38.65C106.765 38.4833 107.151 38.4 107.565 38.4C107.991 38.4 108.365 38.4767 108.685 38.63C109.005 38.7767 109.255 38.9833 109.435 39.25C109.621 39.5167 109.715 39.83 109.715 40.19C109.715 40.4367 109.658 40.6733 109.545 40.9C109.431 41.1267 109.278 41.32 109.085 41.48C108.898 41.6333 108.678 41.74 108.425 41.8C108.731 41.8467 109.005 41.95 109.245 42.11C109.491 42.2633 109.685 42.4633 109.825 42.71C109.965 42.9567 110.035 43.24 110.035 43.56C110.035 43.96 109.931 44.3167 109.725 44.63C109.525 44.9433 109.241 45.1867 108.875 45.36C108.508 45.5333 108.075 45.62 107.575 45.62ZM113.869 45.5V40.96L113.899 39.56L112.789 40.47L111.509 41.49V40.45L114.099 38.52H114.729V45.5H113.869ZM111.509 45.5V44.75H116.259V45.5H111.509Z" fill="#808080"/>
<path d="M18.65 65.5L16.33 58.52H17.23L18.87 63.33L19.26 64.74L19.65 63.34L21.29 58.52H22.18L19.86 65.5H18.65ZM25.6139 65.62C25.0539 65.62 24.5706 65.5067 24.1639 65.28C23.7572 65.0467 23.4439 64.7167 23.2239 64.29C23.0106 63.8567 22.9039 63.3433 22.9039 62.75C22.9039 62.1567 23.0139 61.65 23.2339 61.23C23.4539 60.8033 23.7672 60.4767 24.1739 60.25C24.5806 60.0167 25.0672 59.9 25.6339 59.9C26.4872 59.9 27.1306 60.1333 27.5639 60.6C27.9972 61.0667 28.1906 61.71 28.1439 62.53H23.5639V61.88L27.2939 61.9C27.2672 61.5 27.1039 61.1833 26.8039 60.95C26.5039 60.71 26.1139 60.59 25.6339 60.59C25.0339 60.59 24.5672 60.7833 24.2339 61.17C23.9006 61.55 23.7339 62.0833 23.7339 62.77C23.7339 63.2033 23.8072 63.5833 23.9539 63.91C24.1072 64.23 24.3239 64.48 24.6039 64.66C24.8839 64.8333 25.2206 64.92 25.6139 64.92C26.0806 64.92 26.4706 64.81 26.7839 64.59C27.1039 64.3633 27.3006 64.0567 27.3739 63.67H28.2039C28.1039 64.2767 27.8239 64.7533 27.3639 65.1C26.9039 65.4467 26.3206 65.62 25.6139 65.62ZM33.4578 62.25V61.62C33.4578 61.3133 33.3645 61.07 33.1778 60.89C32.9911 60.7033 32.7245 60.61 32.3778 60.61C31.9245 60.61 31.5245 60.7833 31.1778 61.13C30.8378 61.4767 30.5778 61.99 30.3978 62.67L30.2578 61.75C30.3978 61.3433 30.5745 61.0033 30.7878 60.73C31.0011 60.4567 31.2478 60.25 31.5278 60.11C31.8145 59.97 32.1311 59.9 32.4778 59.9C33.0178 59.9 33.4545 60.0533 33.7878 60.36C34.1211 60.66 34.2878 61.08 34.2878 61.62V62.25H33.4578ZM29.7378 65.5V60.02H30.4978L30.5678 61.35V65.5H29.7378ZM38.3117 65.62C37.8317 65.62 37.4117 65.5367 37.0517 65.37C36.6917 65.2033 36.4117 64.9667 36.2117 64.66C36.0184 64.3467 35.9184 63.9733 35.9117 63.54H36.7017C36.7084 63.98 36.8584 64.3267 37.1517 64.58C37.4451 64.8333 37.8284 64.96 38.3017 64.96C38.7217 64.96 39.0584 64.88 39.3117 64.72C39.5651 64.56 39.6917 64.3433 39.6917 64.07C39.6917 63.8567 39.6217 63.6867 39.4817 63.56C39.3484 63.4333 39.1717 63.3333 38.9517 63.26C38.7384 63.1867 38.4984 63.1233 38.2317 63.07C37.9717 63.0167 37.7117 62.9567 37.4517 62.89C37.1917 62.8233 36.9517 62.74 36.7317 62.64C36.5184 62.5333 36.3417 62.39 36.2017 62.21C36.0684 62.0233 36.0017 61.7833 36.0017 61.49C36.0017 61.1833 36.0884 60.9133 36.2617 60.68C36.4351 60.44 36.6817 60.25 37.0017 60.11C37.3284 59.97 37.7151 59.9 38.1617 59.9C38.8417 59.9 39.3817 60.0567 39.7817 60.37C40.1884 60.6833 40.4084 61.11 40.4417 61.65H39.6517C39.6317 61.3033 39.4884 61.0367 39.2217 60.85C38.9617 60.6567 38.6084 60.56 38.1617 60.56C37.7284 60.56 37.3984 60.6467 37.1717 60.82C36.9517 60.9933 36.8417 61.2067 36.8417 61.46C36.8417 61.6533 36.9084 61.8067 37.0417 61.92C37.1751 62.0267 37.3517 62.1133 37.5717 62.18C37.7917 62.24 38.0317 62.2933 38.2917 62.34C38.5584 62.38 38.8217 62.4333 39.0817 62.5C39.3417 62.5667 39.5784 62.66 39.7917 62.78C40.0117 62.8933 40.1884 63.05 40.3217 63.25C40.4551 63.4433 40.5217 63.7 40.5217 64.02C40.5217 64.52 40.3184 64.9133 39.9117 65.2C39.5117 65.48 38.9784 65.62 38.3117 65.62ZM44.1156 65.5V60.02H44.9456V65.5H44.1156ZM42.0156 65.5V64.83H46.8656V65.5H42.0156ZM42.7556 60.69V60.02H44.5356V60.69H42.7556ZM44.0456 59.01V58.05H45.0056V59.01H44.0456ZM50.7595 65.62C50.1995 65.62 49.7162 65.5067 49.3095 65.28C48.9095 65.0467 48.5995 64.7167 48.3795 64.29C48.1662 63.8567 48.0595 63.3467 48.0595 62.76C48.0595 62.1667 48.1662 61.6567 48.3795 61.23C48.5995 60.8033 48.9095 60.4767 49.3095 60.25C49.7162 60.0167 50.1995 59.9 50.7595 59.9C51.6062 59.9 52.2695 60.1567 52.7495 60.67C53.2295 61.1767 53.4695 61.8733 53.4695 62.76C53.4695 63.3467 53.3595 63.8567 53.1395 64.29C52.9262 64.7167 52.6162 65.0467 52.2095 65.28C51.8095 65.5067 51.3262 65.62 50.7595 65.62ZM50.7595 64.92C51.3462 64.92 51.8062 64.7267 52.1395 64.34C52.4729 63.9533 52.6395 63.4267 52.6395 62.76C52.6395 62.0867 52.4729 61.56 52.1395 61.18C51.8062 60.7933 51.3462 60.6 50.7595 60.6C50.1795 60.6 49.7229 60.7933 49.3895 61.18C49.0562 61.56 48.8895 62.0867 48.8895 62.76C48.8895 63.4267 49.0562 63.9533 49.3895 64.34C49.7229 64.7267 50.1795 64.92 50.7595 64.92ZM58.6834 65.5V62.02C58.6834 61.6 58.5601 61.26 58.3134 61C58.0734 60.74 57.7534 60.61 57.3534 60.61C56.9068 60.61 56.5101 60.78 56.1634 61.12C55.8168 61.4533 55.5634 61.9633 55.4034 62.65L55.2534 61.58C55.4534 61.0333 55.7501 60.6167 56.1434 60.33C56.5434 60.0433 56.9868 59.9 57.4734 59.9C57.8868 59.9 58.2434 59.99 58.5434 60.17C58.8501 60.3433 59.0868 60.5867 59.2534 60.9C59.4268 61.2133 59.5134 61.58 59.5134 62V65.5H58.6834ZM54.6834 65.5V60.02H55.4634L55.5134 61.34V65.5H54.6834ZM70.4113 65.5V63.79H66.8713V63.16L70.1113 58.52H71.2913V63.04H72.5013V63.79H71.2913V65.5H70.4113ZM67.8213 63.04H70.4113V60.68L70.4313 59.26L69.6413 60.45L67.8213 63.04ZM81.8591 67.4V58.16H82.7191V67.4H81.8591ZM92.4669 65.5V64.87C93.4069 64.1567 94.1602 63.5333 94.7269 63C95.3002 62.4667 95.7169 61.9967 95.9769 61.59C96.2369 61.1767 96.3669 60.8 96.3669 60.46C96.3669 60.0667 96.2469 59.75 96.0069 59.51C95.7669 59.27 95.4235 59.15 94.9769 59.15C94.5235 59.15 94.1469 59.2867 93.8469 59.56C93.5535 59.8333 93.3902 60.22 93.3569 60.72H92.4869C92.5202 60.2267 92.6469 59.8067 92.8669 59.46C93.0869 59.1133 93.3802 58.85 93.7469 58.67C94.1135 58.49 94.5269 58.4 94.9869 58.4C95.4669 58.4 95.8769 58.4867 96.2169 58.66C96.5569 58.8267 96.8169 59.06 96.9969 59.36C97.1769 59.66 97.2669 60.01 97.2669 60.41C97.2669 60.85 97.1502 61.29 96.9169 61.73C96.6835 62.1633 96.3069 62.6267 95.7869 63.12C95.2669 63.6067 94.5802 64.15 93.7269 64.75H97.2869V65.5H92.4669ZM101.271 65.62C100.824 65.62 100.411 65.53 100.031 65.35C99.6574 65.17 99.3574 64.91 99.1308 64.57C98.9041 64.2233 98.7874 63.8 98.7808 63.3H99.6608C99.6674 63.6133 99.7408 63.8867 99.8808 64.12C100.027 64.3533 100.221 64.5367 100.461 64.67C100.701 64.7967 100.971 64.86 101.271 64.86C101.737 64.86 102.114 64.74 102.401 64.5C102.687 64.2533 102.831 63.9367 102.831 63.55C102.831 63.2567 102.747 63.0133 102.581 62.82C102.421 62.62 102.204 62.47 101.931 62.37C101.657 62.27 101.354 62.22 101.021 62.22H100.641V61.5H101.051C101.357 61.5 101.617 61.4433 101.831 61.33C102.044 61.2167 102.207 61.0667 102.321 60.88C102.441 60.6867 102.501 60.48 102.501 60.26C102.501 59.9267 102.384 59.66 102.151 59.46C101.917 59.2533 101.617 59.15 101.251 59.15C100.817 59.15 100.457 59.28 100.171 59.54C99.8908 59.7933 99.7374 60.1667 99.7108 60.66H98.8408C98.8674 60.1533 98.9941 59.7333 99.2208 59.4C99.4541 59.06 99.7474 58.81 100.101 58.65C100.461 58.4833 100.847 58.4 101.261 58.4C101.687 58.4 102.061 58.4767 102.381 58.63C102.701 58.7767 102.951 58.9833 103.131 59.25C103.317 59.5167 103.411 59.83 103.411 60.19C103.411 60.4367 103.354 60.6733 103.241 60.9C103.127 61.1267 102.974 61.32 102.781 61.48C102.594 61.6333 102.374 61.74 102.121 61.8C102.427 61.8467 102.701 61.95 102.941 62.11C103.187 62.2633 103.381 62.4633 103.521 62.71C103.661 62.9567 103.731 63.24 103.731 63.56C103.731 63.96 103.627 64.3167 103.421 64.63C103.221 64.9433 102.937 65.1867 102.571 65.36C102.204 65.5333 101.771 65.62 101.271 65.62ZM113.339 65.5L111.139 60.02H112.019L113.409 63.5L113.819 64.72L114.229 63.5L115.609 60.02H116.469L114.269 65.5H113.339ZM120.173 65.62C119.613 65.62 119.129 65.5067 118.723 65.28C118.316 65.0467 118.003 64.7167 117.783 64.29C117.569 63.8567 117.463 63.3433 117.463 62.75C117.463 62.1567 117.573 61.65 117.793 61.23C118.013 60.8033 118.326 60.4767 118.733 60.25C119.139 60.0167 119.626 59.9 120.193 59.9C121.046 59.9 121.689 60.1333 122.123 60.6C122.556 61.0667 122.749 61.71 122.703 62.53H118.123V61.88L121.853 61.9C121.826 61.5 121.663 61.1833 121.363 60.95C121.063 60.71 120.673 60.59 120.193 60.59C119.593 60.59 119.126 60.7833 118.793 61.17C118.459 61.55 118.293 62.0833 118.293 62.77C118.293 63.2033 118.366 63.5833 118.513 63.91C118.666 64.23 118.883 64.48 119.163 64.66C119.443 64.8333 119.779 64.92 120.173 64.92C120.639 64.92 121.029 64.81 121.343 64.59C121.663 64.3633 121.859 64.0567 121.933 63.67H122.763C122.663 64.2767 122.383 64.7533 121.923 65.1C121.463 65.4467 120.879 65.62 120.173 65.62ZM128.026 65.5V62.03C128.026 61.6033 127.903 61.26 127.656 61C127.416 60.74 127.096 60.61 126.696 60.61C126.25 60.61 125.853 60.78 125.506 61.12C125.16 61.4533 124.906 61.9633 124.746 62.65L124.596 61.59C124.796 61.0367 125.093 60.6167 125.486 60.33C125.886 60.0433 126.33 59.9 126.816 59.9C127.23 59.9 127.586 59.99 127.886 60.17C128.193 60.3433 128.43 60.5867 128.596 60.9C128.77 61.2133 128.856 61.5833 128.856 62.01V65.5H128.026ZM124.026 65.5V58.16H124.856V65.5H124.026ZM132.37 65.5V60.02H133.2V65.5H132.37ZM130.27 65.5V64.83H135.12V65.5H130.27ZM131.01 60.69V60.02H132.79V60.69H131.01ZM132.3 59.01V58.05H133.26V59.01H132.3ZM139.204 65.62C138.644 65.62 138.158 65.5033 137.744 65.27C137.331 65.03 137.011 64.6967 136.784 64.27C136.558 63.8433 136.444 63.34 136.444 62.76C136.444 62.18 136.561 61.6767 136.794 61.25C137.028 60.8167 137.351 60.4833 137.764 60.25C138.178 60.0167 138.661 59.9 139.214 59.9C139.641 59.9 140.028 59.98 140.374 60.14C140.728 60.3 141.014 60.5267 141.234 60.82C141.454 61.1067 141.584 61.45 141.624 61.85H140.794C140.734 61.4567 140.561 61.15 140.274 60.93C139.988 60.71 139.634 60.6 139.214 60.6C138.828 60.6 138.488 60.69 138.194 60.87C137.901 61.0433 137.674 61.29 137.514 61.61C137.354 61.93 137.274 62.3133 137.274 62.76C137.274 63.4267 137.448 63.9533 137.794 64.34C138.148 64.7267 138.618 64.92 139.204 64.92C139.458 64.92 139.694 64.87 139.914 64.77C140.141 64.67 140.334 64.5267 140.494 64.34C140.654 64.1467 140.764 63.9233 140.824 63.67H141.654C141.588 64.0767 141.434 64.4233 141.194 64.71C140.954 64.9967 140.661 65.22 140.314 65.38C139.974 65.54 139.604 65.62 139.204 65.62ZM144.918 65.5V58.17H145.738V65.5H144.918ZM142.818 65.5V64.83H147.858V65.5H142.818ZM143.548 58.84V58.17H145.328V58.84H143.548ZM151.692 65.62C151.132 65.62 150.649 65.5067 150.242 65.28C149.835 65.0467 149.522 64.7167 149.302 64.29C149.089 63.8567 148.982 63.3433 148.982 62.75C148.982 62.1567 149.092 61.65 149.312 61.23C149.532 60.8033 149.845 60.4767 150.252 60.25C150.659 60.0167 151.145 59.9 151.712 59.9C152.565 59.9 153.209 60.1333 153.642 60.6C154.075 61.0667 154.269 61.71 154.222 62.53H149.642V61.88L153.372 61.9C153.345 61.5 153.182 61.1833 152.882 60.95C152.582 60.71 152.192 60.59 151.712 60.59C151.112 60.59 150.645 60.7833 150.312 61.17C149.979 61.55 149.812 62.0833 149.812 62.77C149.812 63.2033 149.885 63.5833 150.032 63.91C150.185 64.23 150.402 64.48 150.682 64.66C150.962 64.8333 151.299 64.92 151.692 64.92C152.159 64.92 152.549 64.81 152.862 64.59C153.182 64.3633 153.379 64.0567 153.452 63.67H154.282C154.182 64.2767 153.902 64.7533 153.442 65.1C152.982 65.4467 152.399 65.62 151.692 65.62ZM158.086 65.62C157.606 65.62 157.186 65.5367 156.826 65.37C156.466 65.2033 156.186 64.9667 155.986 64.66C155.793 64.3467 155.693 63.9733 155.686 63.54H156.476C156.483 63.98 156.633 64.3267 156.926 64.58C157.219 64.8333 157.603 64.96 158.076 64.96C158.496 64.96 158.833 64.88 159.086 64.72C159.339 64.56 159.466 64.3433 159.466 64.07C159.466 63.8567 159.396 63.6867 159.256 63.56C159.123 63.4333 158.946 63.3333 158.726 63.26C158.513 63.1867 158.273 63.1233 158.006 63.07C157.746 63.0167 157.486 62.9567 157.226 62.89C156.966 62.8233 156.726 62.74 156.506 62.64C156.293 62.5333 156.116 62.39 155.976 62.21C155.843 62.0233 155.776 61.7833 155.776 61.49C155.776 61.1833 155.863 60.9133 156.036 60.68C156.209 60.44 156.456 60.25 156.776 60.11C157.103 59.97 157.489 59.9 157.936 59.9C158.616 59.9 159.156 60.0567 159.556 60.37C159.963 60.6833 160.183 61.11 160.216 61.65H159.426C159.406 61.3033 159.263 61.0367 158.996 60.85C158.736 60.6567 158.383 60.56 157.936 60.56C157.503 60.56 157.173 60.6467 156.946 60.82C156.726 60.9933 156.616 61.2067 156.616 61.46C156.616 61.6533 156.683 61.8067 156.816 61.92C156.949 62.0267 157.126 62.1133 157.346 62.18C157.566 62.24 157.806 62.2933 158.066 62.34C158.333 62.38 158.596 62.4333 158.856 62.5C159.116 62.5667 159.353 62.66 159.566 62.78C159.786 62.8933 159.963 63.05 160.096 63.25C160.229 63.4433 160.296 63.7 160.296 64.02C160.296 64.52 160.093 64.9133 159.686 65.2C159.286 65.48 158.753 65.62 158.086 65.62Z" fill="#222222"/>
<path d="M19.25 85.62C18.69 85.62 18.21 85.4733 17.81 85.18C17.4167 84.88 17.1167 84.46 16.91 83.92C16.7033 83.38 16.6 82.7433 16.6 82.01C16.6 81.27 16.7033 80.63 16.91 80.09C17.1167 79.55 17.4167 79.1333 17.81 78.84C18.21 78.5467 18.69 78.4 19.25 78.4C19.8167 78.4 20.2933 78.5467 20.68 78.84C21.0733 79.1333 21.3733 79.55 21.58 80.09C21.7867 80.6233 21.89 81.2633 21.89 82.01C21.89 82.75 21.7867 83.39 21.58 83.93C21.3733 84.47 21.0733 84.8867 20.68 85.18C20.2933 85.4733 19.8167 85.62 19.25 85.62ZM19.25 84.87C19.8233 84.87 20.2567 84.6167 20.55 84.11C20.8433 83.6033 20.99 82.9033 20.99 82.01C20.99 81.11 20.8433 80.41 20.55 79.91C20.2567 79.4033 19.8233 79.15 19.25 79.15C18.6767 79.15 18.2433 79.4033 17.95 79.91C17.6567 80.41 17.51 81.11 17.51 82.01C17.51 82.9033 17.6567 83.6033 17.95 84.11C18.2433 84.6167 18.6767 84.87 19.25 84.87ZM25.5539 85.62C24.9939 85.62 24.5139 85.4733 24.1139 85.18C23.7206 84.88 23.4206 84.46 23.2139 83.92C23.0072 83.38 22.9039 82.7433 22.9039 82.01C22.9039 81.27 23.0072 80.63 23.2139 80.09C23.4206 79.55 23.7206 79.1333 24.1139 78.84C24.5139 78.5467 24.9939 78.4 25.5539 78.4C26.1206 78.4 26.5972 78.5467 26.9839 78.84C27.3772 79.1333 27.6772 79.55 27.8839 80.09C28.0906 80.6233 28.1939 81.2633 28.1939 82.01C28.1939 82.75 28.0906 83.39 27.8839 83.93C27.6772 84.47 27.3772 84.8867 26.9839 85.18C26.5972 85.4733 26.1206 85.62 25.5539 85.62ZM25.5539 84.87C26.1272 84.87 26.5606 84.6167 26.8539 84.11C27.1472 83.6033 27.2939 82.9033 27.2939 82.01C27.2939 81.11 27.1472 80.41 26.8539 79.91C26.5606 79.4033 26.1272 79.15 25.5539 79.15C24.9806 79.15 24.5472 79.4033 24.2539 79.91C23.9606 80.41 23.8139 81.11 23.8139 82.01C23.8139 82.9033 23.9606 83.6033 24.2539 84.11C24.5472 84.6167 24.9806 84.87 25.5539 84.87ZM31.3278 81.7V80.63H32.3878V81.7H31.3278ZM31.3278 85.5V84.43H32.3878V85.5H31.3278ZM38.1617 85.62C37.6017 85.62 37.1217 85.4733 36.7217 85.18C36.3284 84.88 36.0284 84.46 35.8217 83.92C35.6151 83.38 35.5117 82.7433 35.5117 82.01C35.5117 81.27 35.6151 80.63 35.8217 80.09C36.0284 79.55 36.3284 79.1333 36.7217 78.84C37.1217 78.5467 37.6017 78.4 38.1617 78.4C38.7284 78.4 39.2051 78.5467 39.5917 78.84C39.9851 79.1333 40.2851 79.55 40.4917 80.09C40.6984 80.6233 40.8017 81.2633 40.8017 82.01C40.8017 82.75 40.6984 83.39 40.4917 83.93C40.2851 84.47 39.9851 84.8867 39.5917 85.18C39.2051 85.4733 38.7284 85.62 38.1617 85.62ZM38.1617 84.87C38.7351 84.87 39.1684 84.6167 39.4617 84.11C39.7551 83.6033 39.9017 82.9033 39.9017 82.01C39.9017 81.11 39.7551 80.41 39.4617 79.91C39.1684 79.4033 38.7351 79.15 38.1617 79.15C37.5884 79.15 37.1551 79.4033 36.8617 79.91C36.5684 80.41 36.4217 81.11 36.4217 82.01C36.4217 82.9033 36.5684 83.6033 36.8617 84.11C37.1551 84.6167 37.5884 84.87 38.1617 84.87ZM44.5256 85.5V80.96L44.5556 79.56L43.4456 80.47L42.1656 81.49V80.45L44.7556 78.52H45.3856V85.5H44.5256ZM42.1656 85.5V84.75H46.9156V85.5H42.1656ZM50.2395 81.7V80.63H51.2995V81.7H50.2395ZM50.2395 85.5V84.43H51.2995V85.5H50.2395ZM57.1334 85.5V80.96L57.1634 79.56L56.0534 80.47L54.7734 81.49V80.45L57.3634 78.52H57.9934V85.5H57.1334ZM54.7734 85.5V84.75H59.5234V85.5H54.7734ZM63.4473 85.62C63.0007 85.62 62.5873 85.53 62.2073 85.35C61.834 85.17 61.534 84.91 61.3073 84.57C61.0807 84.2233 60.964 83.8 60.9573 83.3H61.8373C61.844 83.6133 61.9173 83.8867 62.0573 84.12C62.204 84.3533 62.3973 84.5367 62.6373 84.67C62.8773 84.7967 63.1473 84.86 63.4473 84.86C63.914 84.86 64.2907 84.74 64.5773 84.5C64.864 84.2533 65.0073 83.9367 65.0073 83.55C65.0073 83.2567 64.924 83.0133 64.7573 82.82C64.5973 82.62 64.3807 82.47 64.1073 82.37C63.834 82.27 63.5307 82.22 63.1973 82.22H62.8173V81.5H63.2273C63.534 81.5 63.794 81.4433 64.0073 81.33C64.2207 81.2167 64.384 81.0667 64.4973 80.88C64.6173 80.6867 64.6773 80.48 64.6773 80.26C64.6773 79.9267 64.5607 79.66 64.3273 79.46C64.094 79.2533 63.794 79.15 63.4273 79.15C62.994 79.15 62.634 79.28 62.3473 79.54C62.0673 79.7933 61.914 80.1667 61.8873 80.66H61.0173C61.044 80.1533 61.1707 79.7333 61.3973 79.4C61.6307 79.06 61.924 78.81 62.2773 78.65C62.6373 78.4833 63.024 78.4 63.4373 78.4C63.864 78.4 64.2373 78.4767 64.5573 78.63C64.8773 78.7767 65.1273 78.9833 65.3073 79.25C65.494 79.5167 65.5873 79.83 65.5873 80.19C65.5873 80.4367 65.5307 80.6733 65.4173 80.9C65.304 81.1267 65.1507 81.32 64.9573 81.48C64.7707 81.6333 64.5507 81.74 64.2973 81.8C64.604 81.8467 64.8773 81.95 65.1173 82.11C65.364 82.2633 65.5573 82.4633 65.6973 82.71C65.8373 82.9567 65.9073 83.24 65.9073 83.56C65.9073 83.96 65.804 84.3167 65.5973 84.63C65.3973 84.9433 65.114 85.1867 64.7473 85.36C64.3807 85.5333 63.9473 85.62 63.4473 85.62Z" fill="#222222"/>
<path d="M88.593 85.62C88.033 85.62 87.553 85.4733 87.153 85.18C86.7596 84.88 86.4596 84.46 86.253 83.92C86.0463 83.38 85.943 82.7433 85.943 82.01C85.943 81.27 86.0463 80.63 86.253 80.09C86.4596 79.55 86.7596 79.1333 87.153 78.84C87.553 78.5467 88.033 78.4 88.593 78.4C89.1596 78.4 89.6363 78.5467 90.023 78.84C90.4163 79.1333 90.7163 79.55 90.923 80.09C91.1296 80.6233 91.233 81.2633 91.233 82.01C91.233 82.75 91.1296 83.39 90.923 83.93C90.7163 84.47 90.4163 84.8867 90.023 85.18C89.6363 85.4733 89.1596 85.62 88.593 85.62ZM88.593 84.87C89.1663 84.87 89.5996 84.6167 89.893 84.11C90.1863 83.6033 90.333 82.9033 90.333 82.01C90.333 81.11 90.1863 80.41 89.893 79.91C89.5996 79.4033 89.1663 79.15 88.593 79.15C88.0196 79.15 87.5863 79.4033 87.293 79.91C86.9996 80.41 86.853 81.11 86.853 82.01C86.853 82.9033 86.9996 83.6033 87.293 84.11C87.5863 84.6167 88.0196 84.87 88.593 84.87ZM94.9569 85.5V80.96L94.9869 79.56L93.8769 80.47L92.5969 81.49V80.45L95.1869 78.52H95.8169V85.5H94.9569ZM92.5969 85.5V84.75H97.3469V85.5H92.5969ZM100.671 81.7V80.63H101.731V81.7H100.671ZM100.671 85.5V84.43H101.731V85.5H100.671ZM107.505 85.62C106.945 85.62 106.465 85.4733 106.065 85.18C105.671 84.88 105.371 84.46 105.165 83.92C104.958 83.38 104.855 82.7433 104.855 82.01C104.855 81.27 104.958 80.63 105.165 80.09C105.371 79.55 105.671 79.1333 106.065 78.84C106.465 78.5467 106.945 78.4 107.505 78.4C108.071 78.4 108.548 78.5467 108.935 78.84C109.328 79.1333 109.628 79.55 109.835 80.09C110.041 80.6233 110.145 81.2633 110.145 82.01C110.145 82.75 110.041 83.39 109.835 83.93C109.628 84.47 109.328 84.8867 108.935 85.18C108.548 85.4733 108.071 85.62 107.505 85.62ZM107.505 84.87C108.078 84.87 108.511 84.6167 108.805 84.11C109.098 83.6033 109.245 82.9033 109.245 82.01C109.245 81.11 109.098 80.41 108.805 79.91C108.511 79.4033 108.078 79.15 107.505 79.15C106.931 79.15 106.498 79.4033 106.205 79.91C105.911 80.41 105.765 81.11 105.765 82.01C105.765 82.9033 105.911 83.6033 106.205 84.11C106.498 84.6167 106.931 84.87 107.505 84.87ZM113.809 85.62C113.249 85.62 112.769 85.4733 112.369 85.18C111.975 84.88 111.675 84.46 111.469 83.92C111.262 83.38 111.159 82.7433 111.159 82.01C111.159 81.27 111.262 80.63 111.469 80.09C111.675 79.55 111.975 79.1333 112.369 78.84C112.769 78.5467 113.249 78.4 113.809 78.4C114.375 78.4 114.852 78.5467 115.239 78.84C115.632 79.1333 115.932 79.55 116.139 80.09C116.345 80.6233 116.449 81.2633 116.449 82.01C116.449 82.75 116.345 83.39 116.139 83.93C115.932 84.47 115.632 84.8867 115.239 85.18C114.852 85.4733 114.375 85.62 113.809 85.62ZM113.809 84.87C114.382 84.87 114.815 84.6167 115.109 84.11C115.402 83.6033 115.549 82.9033 115.549 82.01C115.549 81.11 115.402 80.41 115.109 79.91C114.815 79.4033 114.382 79.15 113.809 79.15C113.235 79.15 112.802 79.4033 112.509 79.91C112.215 80.41 112.069 81.11 112.069 82.01C112.069 82.9033 112.215 83.6033 112.509 84.11C112.802 84.6167 113.235 84.87 113.809 84.87ZM119.583 81.7V80.63H120.643V81.7H119.583ZM119.583 85.5V84.43H120.643V85.5H119.583ZM126.416 85.62C125.856 85.62 125.376 85.4733 124.976 85.18C124.583 84.88 124.283 84.46 124.076 83.92C123.87 83.38 123.766 82.7433 123.766 82.01C123.766 81.27 123.87 80.63 124.076 80.09C124.283 79.55 124.583 79.1333 124.976 78.84C125.376 78.5467 125.856 78.4 126.416 78.4C126.983 78.4 127.46 78.5467 127.846 78.84C128.24 79.1333 128.54 79.55 128.746 80.09C128.953 80.6233 129.056 81.2633 129.056 82.01C129.056 82.75 128.953 83.39 128.746 83.93C128.54 84.47 128.24 84.8867 127.846 85.18C127.46 85.4733 126.983 85.62 126.416 85.62ZM126.416 84.87C126.99 84.87 127.423 84.6167 127.716 84.11C128.01 83.6033 128.156 82.9033 128.156 82.01C128.156 81.11 128.01 80.41 127.716 79.91C127.423 79.4033 126.99 79.15 126.416 79.15C125.843 79.15 125.41 79.4033 125.116 79.91C124.823 80.41 124.676 81.11 124.676 82.01C124.676 82.9033 124.823 83.6033 125.116 84.11C125.41 84.6167 125.843 84.87 126.416 84.87ZM132.72 85.62C132.16 85.62 131.68 85.4733 131.28 85.18C130.887 84.88 130.587 84.46 130.38 83.92C130.174 83.38 130.07 82.7433 130.07 82.01C130.07 81.27 130.174 80.63 130.38 80.09C130.587 79.55 130.887 79.1333 131.28 78.84C131.68 78.5467 132.16 78.4 132.72 78.4C133.287 78.4 133.764 78.5467 134.15 78.84C134.544 79.1333 134.844 79.55 135.05 80.09C135.257 80.6233 135.36 81.2633 135.36 82.01C135.36 82.75 135.257 83.39 135.05 83.93C134.844 84.47 134.544 84.8867 134.15 85.18C133.764 85.4733 133.287 85.62 132.72 85.62ZM132.72 84.87C133.294 84.87 133.727 84.6167 134.02 84.11C134.314 83.6033 134.46 82.9033 134.46 82.01C134.46 81.11 134.314 80.41 134.02 79.91C133.727 79.4033 133.294 79.15 132.72 79.15C132.147 79.15 131.714 79.4033 131.42 79.91C131.127 80.41 130.98 81.11 130.98 82.01C130.98 82.9033 131.127 83.6033 131.42 84.11C131.714 84.6167 132.147 84.87 132.72 84.87Z" fill="#808080"/>
<path d="M75.5552 87.4V78.16H76.4152V87.4H75.5552Z" fill="#666666"/>
<path d="M274.461 83C274.186 83 273.951 82.9021 273.755 82.7063C273.559 82.5104 273.461 82.275 273.461 82C273.461 81.725 273.559 81.4896 273.755 81.2938C273.951 81.0979 274.186 81 274.461 81C274.736 81 274.972 81.0979 275.168 81.2938C275.364 81.4896 275.461 81.725 275.461 82C275.461 82.275 275.364 82.5104 275.168 82.7063C274.972 82.9021 274.736 83 274.461 83ZM280 83C279.725 83 279.489 82.9021 279.294 82.7063C279.098 82.5104 279 82.275 279 82C279 81.725 279.098 81.4896 279.294 81.2938C279.489 81.0979 279.725 81 280 81C280.275 81 280.51 81.0979 280.706 81.2938C280.902 81.4896 281 81.725 281 82C281 82.275 280.902 82.5104 280.706 82.7063C280.51 82.9021 280.275 83 280 83ZM285.538 83C285.263 83 285.028 82.9021 284.832 82.7063C284.636 82.5104 284.538 82.275 284.538 82C284.538 81.725 284.636 81.4896 284.832 81.2938C285.028 81.0979 285.263 81 285.538 81C285.813 81 286.049 81.0979 286.245 81.2938C286.44 81.4896 286.538 81.725 286.538 82C286.538 82.275 286.44 82.5104 286.245 82.7063C286.049 82.9021 285.813 83 285.538 83Z" fill="#222222"/>
</svg>
