<svg width="304" height="32" viewBox="0 0 304 32" fill="none" xmlns="http://www.w3.org/2000/svg">
<path d="M17.1 20V13.02H18.16V19.1H21.82V20H17.1ZM27.1939 20L27.1539 18.75V16.4C27.1539 16.0067 27.0239 15.7 26.7639 15.48C26.5106 15.2533 26.1606 15.14 25.7139 15.14C25.2806 15.14 24.9272 15.24 24.6539 15.44C24.3806 15.6333 24.2306 15.9033 24.2039 16.25H23.2139C23.2472 15.8567 23.3739 15.5233 23.5939 15.25C23.8139 14.97 24.1072 14.7567 24.4739 14.61C24.8406 14.4567 25.2639 14.38 25.7439 14.38C26.2372 14.38 26.6639 14.4633 27.0239 14.63C27.3839 14.79 27.6606 15.0233 27.8539 15.33C28.0539 15.6367 28.1539 16.01 28.1539 16.45V20H27.1939ZM25.2039 20.12C24.8439 20.12 24.5272 20.0567 24.2539 19.93C23.9806 19.7967 23.7672 19.61 23.6139 19.37C23.4606 19.1233 23.3839 18.8367 23.3839 18.51C23.3839 17.9433 23.6006 17.5033 24.0339 17.19C24.4739 16.8767 25.0872 16.72 25.8739 16.72H27.2839V17.47H25.8339C25.3806 17.47 25.0239 17.5567 24.7639 17.73C24.5106 17.9033 24.3839 18.1467 24.3839 18.46C24.3839 18.72 24.4739 18.9233 24.6539 19.07C24.8406 19.2167 25.0906 19.29 25.4039 19.29C25.8039 19.29 26.1572 19.1833 26.4639 18.97C26.7772 18.75 27.0306 18.45 27.2239 18.07L27.3339 18.81C27.1606 19.23 26.8939 19.5533 26.5339 19.78C26.1739 20.0067 25.7306 20.12 25.2039 20.12ZM32.5878 14.38C33.0811 14.38 33.5111 14.5033 33.8778 14.75C34.2511 14.99 34.5445 15.3267 34.7578 15.76C34.9711 16.1933 35.0778 16.69 35.0778 17.25C35.0778 17.8033 34.9711 18.2967 34.7578 18.73C34.5445 19.1633 34.2511 19.5033 33.8778 19.75C33.5111 19.9967 33.0811 20.12 32.5878 20.12C32.2078 20.12 31.8578 20.04 31.5378 19.88C31.2245 19.7133 30.9711 19.4967 30.7778 19.23L30.7478 20H29.7878V12.65H30.7978V15.23C30.9911 14.9633 31.2445 14.7567 31.5578 14.61C31.8711 14.4567 32.2145 14.38 32.5878 14.38ZM32.3678 19.27C32.7078 19.27 33.0045 19.1833 33.2578 19.01C33.5111 18.8367 33.7078 18.6 33.8478 18.3C33.9878 17.9933 34.0578 17.6433 34.0578 17.25C34.0578 16.85 33.9878 16.5 33.8478 16.2C33.7078 15.8933 33.5111 15.6567 33.2578 15.49C33.0045 15.3167 32.7078 15.23 32.3678 15.23C32.0145 15.23 31.6978 15.33 31.4178 15.53C31.1378 15.7233 30.9311 15.9967 30.7978 16.35V18.14C30.9311 18.4867 31.1378 18.7633 31.4178 18.97C31.6978 19.17 32.0145 19.27 32.3678 19.27ZM38.8217 20.12C38.2551 20.12 37.7651 20.0067 37.3517 19.78C36.9384 19.5467 36.6217 19.2167 36.4017 18.79C36.1817 18.3567 36.0717 17.84 36.0717 17.24C36.0717 16.64 36.1817 16.1267 36.4017 15.7C36.6284 15.2733 36.9484 14.9467 37.3617 14.72C37.7817 14.4933 38.2817 14.38 38.8617 14.38C39.7484 14.38 40.4084 14.6267 40.8417 15.12C41.2751 15.6067 41.4651 16.2767 41.4117 17.13H36.8717L36.8817 16.37L40.3817 16.38C40.3551 16.0267 40.2017 15.7433 39.9217 15.53C39.6417 15.3167 39.2884 15.21 38.8617 15.21C38.2884 15.21 37.8484 15.39 37.5417 15.75C37.2351 16.11 37.0817 16.62 37.0817 17.28C37.0817 17.6733 37.1484 18.0233 37.2817 18.33C37.4217 18.63 37.6217 18.8633 37.8817 19.03C38.1417 19.1967 38.4551 19.28 38.8217 19.28C39.2551 19.28 39.6151 19.1767 39.9017 18.97C40.1951 18.7633 40.3751 18.4833 40.4417 18.13H41.4517C41.3651 18.75 41.0884 19.2367 40.6217 19.59C40.1551 19.9433 39.5551 20.12 38.8217 20.12ZM44.7656 20V12.65H45.7756V20H44.7656ZM42.7356 20V19.18H47.8156V20H42.7356ZM43.4656 13.47V12.65H45.2656V13.47H43.4656Z" fill="#222222"/>
</svg>
