<svg width="24" height="24" viewBox="0 0 24 24" fill="none" xmlns="http://www.w3.org/2000/svg">
<path d="M3 20.1154V19.1154H11.5V7.82504C11.0282 7.73914 10.6115 7.52504 10.25 7.18274C9.88847 6.84043 9.65834 6.40774 9.55963 5.88467H6.11538L9 13.0962C8.96153 13.7629 8.65192 14.3302 8.07115 14.7981C7.49038 15.2661 6.8 15.5 6 15.5C5.2 15.5 4.50962 15.2661 3.92885 14.7981C3.34807 14.3302 3.03845 13.7629 3 13.0962L5.8846 5.88467H4V4.88464H9.55963C9.66988 4.32696 9.94808 3.85421 10.3942 3.46639C10.8404 3.07856 11.3756 2.88464 12 2.88464C12.6244 2.88464 13.1596 3.07856 13.6058 3.46639C14.0519 3.85421 14.3301 4.32696 14.4404 4.88464H20V5.88467H18.1154L21 13.0962C20.9615 13.7629 20.6519 14.3302 20.0711 14.7981C19.4904 15.2661 18.8 15.5 18 15.5C17.2 15.5 16.5096 15.2661 15.9289 14.7981C15.3481 14.3302 15.0385 13.7629 15 13.0962L17.8846 5.88467H14.4404C14.3417 6.40774 14.1115 6.84043 13.75 7.18274C13.3885 7.52504 12.9718 7.73914 12.5 7.82504V19.1154H21V20.1154H3ZM15.9904 13H20.0096L18 7.97697L15.9904 13ZM3.99038 13H8.0096L6 7.97697L3.99038 13ZM12 6.88464C12.4115 6.88464 12.7644 6.73754 13.0587 6.44332C13.3529 6.14909 13.5 5.7962 13.5 5.38467C13.5 4.97312 13.3529 4.62023 13.0587 4.32599C12.7644 4.03178 12.4115 3.88467 12 3.88467C11.5885 3.88467 11.2356 4.03178 10.9413 4.32599C10.6471 4.62023 10.5 4.97312 10.5 5.38467C10.5 5.7962 10.6471 6.14909 10.9413 6.44332C11.2356 6.73754 11.5885 6.88464 12 6.88464Z" fill="#222222"/>
</svg>
