<svg width="304" height="32" viewBox="0 0 304 32" fill="none" xmlns="http://www.w3.org/2000/svg">
<path d="M16.8807 19.5V12.2273H17.7614V18.7188H21.142V19.5H16.8807ZM23.9972 19.6278C23.6515 19.6278 23.3378 19.5627 23.0561 19.4325C22.7744 19.3 22.5507 19.1094 22.3849 18.8608C22.2192 18.6098 22.1364 18.3068 22.1364 17.9517C22.1364 17.6392 22.1979 17.3859 22.321 17.1918C22.4441 16.9953 22.6087 16.8414 22.8146 16.7301C23.0206 16.6188 23.2479 16.536 23.4964 16.4815C23.7474 16.4247 23.9995 16.3797 24.2528 16.3466C24.5843 16.304 24.853 16.272 25.0589 16.2507C25.2673 16.227 25.4188 16.188 25.5135 16.1335C25.6106 16.0791 25.6591 15.9844 25.6591 15.8494V15.821C25.6591 15.4706 25.5632 15.1984 25.3714 15.0043C25.1821 14.8101 24.8944 14.7131 24.5085 14.7131C24.1084 14.7131 23.7947 14.8007 23.5675 14.9759C23.3402 15.151 23.1804 15.3381 23.0881 15.5369L22.2926 15.2528C22.4347 14.9214 22.6241 14.6634 22.8608 14.4787C23.0999 14.2917 23.3603 14.1615 23.642 14.0881C23.9261 14.0123 24.2055 13.9744 24.4801 13.9744C24.6553 13.9744 24.8565 13.9957 25.0838 14.0384C25.3134 14.0786 25.5348 14.1626 25.7479 14.2905C25.9633 14.4183 26.142 14.6113 26.2841 14.8693C26.4261 15.1274 26.4972 15.473 26.4972 15.9062V19.5H25.6591V18.7614H25.6165C25.5597 18.8797 25.465 19.0064 25.3324 19.1413C25.1998 19.2763 25.0234 19.3911 24.8033 19.4858C24.5831 19.5805 24.3144 19.6278 23.9972 19.6278ZM24.125 18.875C24.4564 18.875 24.7358 18.8099 24.9631 18.6797C25.1927 18.5495 25.3655 18.3814 25.4815 18.1754C25.5999 17.9695 25.6591 17.7528 25.6591 17.5256V16.7585C25.6236 16.8011 25.5455 16.8402 25.4247 16.8757C25.3063 16.9089 25.169 16.9384 25.0128 16.9645C24.8589 16.9882 24.7086 17.0095 24.5618 17.0284C24.4174 17.045 24.3002 17.0592 24.2102 17.071C23.9924 17.0994 23.7888 17.1456 23.5994 17.2095C23.4124 17.2711 23.2609 17.3646 23.1449 17.4901C23.0313 17.6132 22.9744 17.7812 22.9744 17.9943C22.9744 18.2855 23.0821 18.5057 23.2976 18.6548C23.5154 18.8016 23.7912 18.875 24.125 18.875ZM28.1404 19.5V12.2273H28.9785V14.9119H29.0495C29.1111 14.8172 29.1963 14.6965 29.3052 14.5497C29.4165 14.4006 29.5751 14.268 29.7811 14.152C29.9894 14.0336 30.2711 13.9744 30.6262 13.9744C31.0855 13.9744 31.4904 14.0893 31.8407 14.3189C32.1911 14.5485 32.4645 14.8741 32.661 15.2955C32.8575 15.7169 32.9558 16.214 32.9558 16.7869C32.9558 17.3646 32.8575 17.8653 32.661 18.2891C32.4645 18.7105 32.1923 19.0372 31.8443 19.2692C31.4963 19.4988 31.095 19.6136 30.6404 19.6136C30.2901 19.6136 30.0095 19.5556 29.7988 19.4396C29.5881 19.3213 29.426 19.1875 29.3123 19.0384C29.1987 18.8868 29.1111 18.7614 29.0495 18.6619H28.9501V19.5H28.1404ZM28.9643 16.7727C28.9643 17.1847 29.0247 17.5481 29.1454 17.8629C29.2662 18.1754 29.4425 18.4205 29.6745 18.598C29.9065 18.7732 30.1906 18.8608 30.5268 18.8608C30.8772 18.8608 31.1696 18.7685 31.4039 18.5838C31.6407 18.3968 31.8182 18.1458 31.9366 17.831C32.0574 17.5137 32.1177 17.161 32.1177 16.7727C32.1177 16.3892 32.0585 16.0436 31.9402 15.7358C31.8242 15.4257 31.6478 15.1806 31.411 15.0007C31.1767 14.8184 30.8819 14.7273 30.5268 14.7273C30.1859 14.7273 29.8994 14.8137 29.6674 14.9865C29.4354 15.157 29.2602 15.3961 29.1419 15.7038C29.0235 16.0092 28.9643 16.3655 28.9643 16.7727ZM36.5247 19.6136C35.9991 19.6136 35.5458 19.4976 35.1646 19.2656C34.7858 19.0312 34.4934 18.7045 34.2875 18.2855C34.0839 17.8641 33.9821 17.3741 33.9821 16.8153C33.9821 16.2566 34.0839 15.7642 34.2875 15.3381C34.4934 14.9096 34.7799 14.5758 35.1468 14.3366C35.5162 14.0952 35.947 13.9744 36.4395 13.9744C36.7235 13.9744 37.0041 14.0218 37.2811 14.1165C37.5581 14.2112 37.8102 14.3651 38.0375 14.5781C38.2647 14.7888 38.4458 15.0682 38.5808 15.4162C38.7157 15.7642 38.7832 16.1927 38.7832 16.7017V17.0568H34.5787V16.3324H37.9309C37.9309 16.0246 37.8694 15.75 37.7463 15.5085C37.6255 15.267 37.4527 15.0765 37.2278 14.9368C37.0053 14.7971 36.7425 14.7273 36.4395 14.7273C36.1056 14.7273 35.8168 14.8101 35.573 14.9759C35.3315 15.1392 35.1457 15.3523 35.0154 15.6151C34.8852 15.8778 34.8201 16.1596 34.8201 16.4602V16.9432C34.8201 17.3551 34.8912 17.7043 35.0332 17.9908C35.1776 18.2749 35.3777 18.4915 35.6333 18.6406C35.889 18.7874 36.1861 18.8608 36.5247 18.8608C36.7449 18.8608 36.9437 18.83 37.1213 18.7685C37.3012 18.7045 37.4563 18.6098 37.5865 18.4844C37.7167 18.3565 37.8173 18.1979 37.8883 18.0085L38.698 18.2358C38.6127 18.5104 38.4695 18.7519 38.2683 18.9602C38.0671 19.1662 37.8185 19.3272 37.5225 19.4432C37.2266 19.5568 36.894 19.6136 36.5247 19.6136ZM40.8961 12.2273V19.5H40.0581V12.2273H40.8961Z" fill="#222222"/>
<path d="M144.881 19.5V12.2273H145.761V18.7188H149.142V19.5H144.881ZM151.997 19.6278C151.652 19.6278 151.338 19.5627 151.056 19.4325C150.774 19.3 150.551 19.1094 150.385 18.8608C150.219 18.6098 150.136 18.3068 150.136 17.9517C150.136 17.6392 150.198 17.3859 150.321 17.1918C150.444 16.9953 150.609 16.8414 150.815 16.7301C151.021 16.6188 151.248 16.536 151.496 16.4815C151.747 16.4247 152 16.3797 152.253 16.3466C152.584 16.304 152.853 16.272 153.059 16.2507C153.267 16.227 153.419 16.188 153.513 16.1335C153.611 16.0791 153.659 15.9844 153.659 15.8494V15.821C153.659 15.4706 153.563 15.1984 153.371 15.0043C153.182 14.8101 152.894 14.7131 152.509 14.7131C152.108 14.7131 151.795 14.8007 151.567 14.9759C151.34 15.151 151.18 15.3381 151.088 15.5369L150.293 15.2528C150.435 14.9214 150.624 14.6634 150.861 14.4787C151.1 14.2917 151.36 14.1615 151.642 14.0881C151.926 14.0123 152.205 13.9744 152.48 13.9744C152.655 13.9744 152.857 13.9957 153.084 14.0384C153.313 14.0786 153.535 14.1626 153.748 14.2905C153.963 14.4183 154.142 14.6113 154.284 14.8693C154.426 15.1274 154.497 15.473 154.497 15.9062V19.5H153.659V18.7614H153.616C153.56 18.8797 153.465 19.0064 153.332 19.1413C153.2 19.2763 153.023 19.3911 152.803 19.4858C152.583 19.5805 152.314 19.6278 151.997 19.6278ZM152.125 18.875C152.456 18.875 152.736 18.8099 152.963 18.6797C153.193 18.5495 153.366 18.3814 153.482 18.1754C153.6 17.9695 153.659 17.7528 153.659 17.5256V16.7585C153.624 16.8011 153.545 16.8402 153.425 16.8757C153.306 16.9089 153.169 16.9384 153.013 16.9645C152.859 16.9882 152.709 17.0095 152.562 17.0284C152.417 17.045 152.3 17.0592 152.21 17.071C151.992 17.0994 151.789 17.1456 151.599 17.2095C151.412 17.2711 151.261 17.3646 151.145 17.4901C151.031 17.6132 150.974 17.7812 150.974 17.9943C150.974 18.2855 151.082 18.5057 151.298 18.6548C151.515 18.8016 151.791 18.875 152.125 18.875ZM156.14 19.5V12.2273H156.979V14.9119H157.05C157.111 14.8172 157.196 14.6965 157.305 14.5497C157.416 14.4006 157.575 14.268 157.781 14.152C157.989 14.0336 158.271 13.9744 158.626 13.9744C159.086 13.9744 159.49 14.0893 159.841 14.3189C160.191 14.5485 160.465 14.8741 160.661 15.2955C160.858 15.7169 160.956 16.214 160.956 16.7869C160.956 17.3646 160.858 17.8653 160.661 18.2891C160.465 18.7105 160.192 19.0372 159.844 19.2692C159.496 19.4988 159.095 19.6136 158.64 19.6136C158.29 19.6136 158.01 19.5556 157.799 19.4396C157.588 19.3213 157.426 19.1875 157.312 19.0384C157.199 18.8868 157.111 18.7614 157.05 18.6619H156.95V19.5H156.14ZM156.964 16.7727C156.964 17.1847 157.025 17.5481 157.145 17.8629C157.266 18.1754 157.443 18.4205 157.675 18.598C157.907 18.7732 158.191 18.8608 158.527 18.8608C158.877 18.8608 159.17 18.7685 159.404 18.5838C159.641 18.3968 159.818 18.1458 159.937 17.831C160.057 17.5137 160.118 17.161 160.118 16.7727C160.118 16.3892 160.059 16.0436 159.94 15.7358C159.824 15.4257 159.648 15.1806 159.411 15.0007C159.177 14.8184 158.882 14.7273 158.527 14.7273C158.186 14.7273 157.899 14.8137 157.667 14.9865C157.435 15.157 157.26 15.3961 157.142 15.7038C157.023 16.0092 156.964 16.3655 156.964 16.7727ZM164.525 19.6136C163.999 19.6136 163.546 19.4976 163.165 19.2656C162.786 19.0312 162.493 18.7045 162.287 18.2855C162.084 17.8641 161.982 17.3741 161.982 16.8153C161.982 16.2566 162.084 15.7642 162.287 15.3381C162.493 14.9096 162.78 14.5758 163.147 14.3366C163.516 14.0952 163.947 13.9744 164.439 13.9744C164.724 13.9744 165.004 14.0218 165.281 14.1165C165.558 14.2112 165.81 14.3651 166.037 14.5781C166.265 14.7888 166.446 15.0682 166.581 15.4162C166.716 15.7642 166.783 16.1927 166.783 16.7017V17.0568H162.579V16.3324H165.931C165.931 16.0246 165.869 15.75 165.746 15.5085C165.626 15.267 165.453 15.0765 165.228 14.9368C165.005 14.7971 164.742 14.7273 164.439 14.7273C164.106 14.7273 163.817 14.8101 163.573 14.9759C163.331 15.1392 163.146 15.3523 163.015 15.6151C162.885 15.8778 162.82 16.1596 162.82 16.4602V16.9432C162.82 17.3551 162.891 17.7043 163.033 17.9908C163.178 18.2749 163.378 18.4915 163.633 18.6406C163.889 18.7874 164.186 18.8608 164.525 18.8608C164.745 18.8608 164.944 18.83 165.121 18.7685C165.301 18.7045 165.456 18.6098 165.586 18.4844C165.717 18.3565 165.817 18.1979 165.888 18.0085L166.698 18.2358C166.613 18.5104 166.47 18.7519 166.268 18.9602C166.067 19.1662 165.818 19.3272 165.523 19.4432C165.227 19.5568 164.894 19.6136 164.525 19.6136ZM168.896 12.2273V19.5H168.058V12.2273H168.896Z" fill="#222222"/>
<path d="M274.461 17C274.186 17 273.951 16.9021 273.755 16.7063C273.559 16.5104 273.461 16.275 273.461 16C273.461 15.725 273.559 15.4896 273.755 15.2938C273.951 15.0979 274.186 15 274.461 15C274.736 15 274.972 15.0979 275.168 15.2938C275.364 15.4896 275.461 15.725 275.461 16C275.461 16.275 275.364 16.5104 275.168 16.7063C274.972 16.9021 274.736 17 274.461 17ZM280 17C279.725 17 279.489 16.9021 279.294 16.7063C279.098 16.5104 279 16.275 279 16C279 15.725 279.098 15.4896 279.294 15.2938C279.489 15.0979 279.725 15 280 15C280.275 15 280.51 15.0979 280.706 15.2938C280.902 15.4896 281 15.725 281 16C281 16.275 280.902 16.5104 280.706 16.7063C280.51 16.9021 280.275 17 280 17ZM285.538 17C285.263 17 285.028 16.9021 284.832 16.7063C284.636 16.5104 284.538 16.275 284.538 16C284.538 15.725 284.636 15.4896 284.832 15.2938C285.028 15.0979 285.263 15 285.538 15C285.813 15 286.049 15.0979 286.245 15.2938C286.44 15.4896 286.538 15.725 286.538 16C286.538 16.275 286.44 16.5104 286.245 16.7063C286.049 16.9021 285.813 17 285.538 17Z" fill="#222222"/>
</svg>
