<svg width="266" height="192" viewBox="0 0 266 192" fill="none" xmlns="http://www.w3.org/2000/svg">
<g filter="url(#filter0_d_5338_19517)">
<rect x="3" y="2" width="260" height="186" rx="4" fill="white" shape-rendering="crispEdges"/>
<rect x="7" y="6" width="252" height="40" rx="4" fill="white"/>
<path d="M16.233 31.5V21.3182H19.7926C20.5019 21.3182 21.0869 21.4408 21.5476 21.6861C22.0083 21.928 22.3513 22.2545 22.5767 22.6655C22.8021 23.0732 22.9148 23.5256 22.9148 24.0227C22.9148 24.4602 22.8369 24.8215 22.6811 25.1065C22.5286 25.3916 22.3265 25.617 22.0746 25.7827C21.826 25.9484 21.5559 26.071 21.2642 26.1506V26.25C21.5758 26.2699 21.889 26.3793 22.2038 26.5781C22.5187 26.777 22.7822 27.062 22.9943 27.4332C23.2064 27.8045 23.3125 28.2585 23.3125 28.7955C23.3125 29.3059 23.1965 29.7649 22.9645 30.1726C22.7325 30.5803 22.3662 30.9034 21.8658 31.142C21.3653 31.3807 20.714 31.5 19.9119 31.5H16.233ZM17.4659 30.4062H19.9119C20.7173 30.4062 21.2891 30.2505 21.6271 29.9389C21.9685 29.6241 22.1392 29.2429 22.1392 28.7955C22.1392 28.4508 22.0514 28.1326 21.8757 27.8409C21.7 27.5459 21.4498 27.3106 21.125 27.1349C20.8002 26.956 20.4157 26.8665 19.9716 26.8665H17.4659V30.4062ZM17.4659 25.7926H19.7528C20.1241 25.7926 20.4588 25.7197 20.7571 25.5739C21.0587 25.428 21.2973 25.2225 21.473 24.9574C21.652 24.6922 21.7415 24.3807 21.7415 24.0227C21.7415 23.5753 21.5857 23.1958 21.2741 22.8842C20.9626 22.5694 20.4688 22.4119 19.7926 22.4119H17.4659V25.7926ZM27.4265 31.679C26.9426 31.679 26.5034 31.5878 26.109 31.4055C25.7146 31.2199 25.4014 30.9531 25.1694 30.6051C24.9374 30.2538 24.8214 29.8295 24.8214 29.3324C24.8214 28.8949 24.9076 28.5402 25.0799 28.2685C25.2522 27.9934 25.4826 27.7779 25.771 27.6222C26.0593 27.4664 26.3775 27.3504 26.7255 27.2741C27.0768 27.1946 27.4298 27.1316 27.7844 27.0852C28.2485 27.0256 28.6246 26.9808 28.913 26.951C29.2047 26.9179 29.4168 26.8632 29.5494 26.7869C29.6853 26.7107 29.7532 26.5781 29.7532 26.3892V26.3494C29.7532 25.8589 29.619 25.4777 29.3505 25.206C29.0853 24.9342 28.6826 24.7983 28.1424 24.7983C27.5823 24.7983 27.1431 24.9209 26.8249 25.1662C26.5067 25.4115 26.283 25.6733 26.1538 25.9517L25.0401 25.554C25.239 25.09 25.5041 24.7287 25.8356 24.4702C26.1703 24.2083 26.5349 24.026 26.9293 23.9233C27.3271 23.8172 27.7182 23.7642 28.1026 23.7642C28.3479 23.7642 28.6296 23.794 28.9478 23.8537C29.2693 23.91 29.5792 24.0277 29.8775 24.2067C30.1791 24.3857 30.4293 24.6558 30.6282 25.017C30.8271 25.3783 30.9265 25.8622 30.9265 26.4688V31.5H29.7532V30.4659H29.6935C29.614 30.6316 29.4814 30.8089 29.2958 30.9979C29.1102 31.1868 28.8633 31.3475 28.555 31.4801C28.2468 31.6127 27.8706 31.679 27.4265 31.679ZM27.6055 30.625C28.0695 30.625 28.4606 30.5339 28.7788 30.3516C29.1003 30.1693 29.3422 29.9339 29.5046 29.6456C29.6703 29.3572 29.7532 29.054 29.7532 28.7358V27.6619C29.7035 27.7216 29.5941 27.7763 29.4251 27.826C29.2594 27.8724 29.0671 27.9138 28.8484 27.9503C28.6329 27.9834 28.4225 28.0133 28.217 28.0398C28.0148 28.063 27.8507 28.0829 27.7248 28.0994C27.4199 28.1392 27.1348 28.2038 26.8697 28.2933C26.6078 28.3795 26.3957 28.5104 26.2333 28.6861C26.0742 28.8584 25.9947 29.0937 25.9947 29.392C25.9947 29.7997 26.1455 30.108 26.4471 30.3168C26.752 30.5223 27.1381 30.625 27.6055 30.625ZM38.4771 25.5739L37.4231 25.8722C37.3568 25.6965 37.2591 25.5258 37.1298 25.3601C37.0038 25.1911 36.8315 25.0518 36.6127 24.9425C36.394 24.8331 36.1139 24.7784 35.7725 24.7784C35.3052 24.7784 34.9158 24.8861 34.6042 25.1016C34.296 25.3137 34.1419 25.5838 34.1419 25.9119C34.1419 26.2036 34.2479 26.4339 34.46 26.603C34.6722 26.772 35.0036 26.9129 35.4544 27.0256L36.5879 27.304C37.2707 27.4697 37.7794 27.7232 38.1142 28.0646C38.4489 28.4027 38.6163 28.8385 38.6163 29.3722C38.6163 29.8097 38.4904 30.2008 38.2385 30.5455C37.9899 30.8902 37.6419 31.1619 37.1944 31.3608C36.747 31.5597 36.2266 31.6591 35.6333 31.6591C34.8545 31.6591 34.2098 31.4901 33.6994 31.152C33.189 30.8139 32.8658 30.3201 32.7299 29.6705L33.8436 29.392C33.9496 29.803 34.1502 30.1113 34.4451 30.3168C34.7434 30.5223 35.1329 30.625 35.6135 30.625C36.1603 30.625 36.5945 30.509 36.916 30.277C37.2408 30.0417 37.4032 29.7599 37.4032 29.4318C37.4032 29.1667 37.3104 28.9446 37.1248 28.7656C36.9392 28.5833 36.6542 28.4474 36.2697 28.358L34.997 28.0597C34.2976 27.8939 33.7839 27.6371 33.4558 27.2891C33.131 26.9377 32.9686 26.4986 32.9686 25.9716C32.9686 25.5407 33.0895 25.1596 33.3315 24.8281C33.5768 24.4967 33.9099 24.2365 34.3308 24.0476C34.755 23.8587 35.2356 23.7642 35.7725 23.7642C36.5282 23.7642 37.1215 23.9299 37.5524 24.2614C37.9866 24.5928 38.2948 25.0303 38.4771 25.5739ZM40.3825 31.5V23.8636H41.5558V31.5H40.3825ZM40.979 22.5909C40.7504 22.5909 40.5531 22.513 40.3874 22.3572C40.225 22.2015 40.1438 22.0142 40.1438 21.7955C40.1438 21.5767 40.225 21.3894 40.3874 21.2337C40.5531 21.0779 40.7504 21 40.979 21C41.2077 21 41.4033 21.0779 41.5657 21.2337C41.7314 21.3894 41.8143 21.5767 41.8143 21.7955C41.8143 22.0142 41.7314 22.2015 41.5657 22.3572C41.4033 22.513 41.2077 22.5909 40.979 22.5909ZM46.807 31.6591C46.0911 31.6591 45.4746 31.4901 44.9576 31.152C44.4405 30.8139 44.0428 30.3482 43.7644 29.755C43.486 29.1617 43.3468 28.4839 43.3468 27.7216C43.3468 26.946 43.4893 26.2616 43.7743 25.6683C44.0627 25.0717 44.4637 24.6061 44.9775 24.2713C45.4945 23.9332 46.0977 23.7642 46.7871 23.7642C47.324 23.7642 47.8079 23.8636 48.2388 24.0625C48.6697 24.2614 49.0227 24.5398 49.2978 24.8977C49.5729 25.2557 49.7435 25.6733 49.8098 26.1506H48.6365C48.5471 25.8026 48.3482 25.4943 48.04 25.2259C47.735 24.9541 47.324 24.8182 46.807 24.8182C46.3496 24.8182 45.9486 24.9375 45.6039 25.1761C45.2625 25.4115 44.9957 25.7446 44.8034 26.1754C44.6145 26.603 44.5201 27.1051 44.5201 27.6818C44.5201 28.2718 44.6129 28.7855 44.7985 29.223C44.9874 29.6605 45.2525 30.0002 45.5939 30.2422C45.9386 30.4841 46.343 30.6051 46.807 30.6051C47.1119 30.6051 47.3887 30.5521 47.6373 30.446C47.8858 30.34 48.0963 30.1875 48.2686 29.9886C48.441 29.7898 48.5636 29.5511 48.6365 29.2727H49.8098C49.7435 29.7235 49.5795 30.1295 49.3176 30.4908C49.0591 30.8487 48.7161 31.1338 48.2885 31.3459C47.8643 31.5547 47.3704 31.6591 46.807 31.6591Z" fill="#222222"/>
<rect x="7" y="52" width="252" height="40" rx="4" fill="white"/>
<path d="M16.233 77.5V67.3182H19.6733C20.4688 67.3182 21.1217 67.4541 21.6321 67.7259C22.1425 67.9943 22.5204 68.3639 22.7656 68.8345C23.0109 69.3052 23.1335 69.8404 23.1335 70.4403C23.1335 71.0402 23.0109 71.5722 22.7656 72.0362C22.5204 72.5002 22.1442 72.8648 21.6371 73.13C21.13 73.3918 20.482 73.5227 19.6932 73.5227H16.9091V72.4091H19.6534C20.197 72.4091 20.6345 72.3295 20.9659 72.1705C21.3007 72.0114 21.5426 71.786 21.6918 71.4943C21.8442 71.1993 21.9205 70.848 21.9205 70.4403C21.9205 70.0327 21.8442 69.6764 21.6918 69.3714C21.5393 69.0665 21.2957 68.8312 20.9609 68.6655C20.6262 68.4964 20.1837 68.4119 19.6335 68.4119H17.4659V77.5H16.233ZM21.0256 72.9261L23.5312 77.5H22.0994L19.6335 72.9261H21.0256ZM27.2761 77.679C26.7922 77.679 26.353 77.5878 25.9586 77.4055C25.5642 77.2199 25.251 76.9531 25.019 76.6051C24.787 76.2538 24.671 75.8295 24.671 75.3324C24.671 74.8949 24.7572 74.5402 24.9295 74.2685C25.1019 73.9934 25.3322 73.7779 25.6206 73.6222C25.9089 73.4664 26.2271 73.3504 26.5751 73.2741C26.9264 73.1946 27.2794 73.1316 27.6341 73.0852C28.0981 73.0256 28.4743 72.9808 28.7626 72.951C29.0543 72.9179 29.2664 72.8632 29.399 72.7869C29.5349 72.7107 29.6028 72.5781 29.6028 72.3892V72.3494C29.6028 71.8589 29.4686 71.4777 29.2001 71.206C28.935 70.9342 28.5323 70.7983 27.992 70.7983C27.4319 70.7983 26.9927 70.9209 26.6745 71.1662C26.3564 71.4115 26.1326 71.6733 26.0034 71.9517L24.8897 71.554C25.0886 71.09 25.3538 70.7287 25.6852 70.4702C26.0199 70.2083 26.3845 70.026 26.7789 69.9233C27.1767 69.8172 27.5678 69.7642 27.9522 69.7642C28.1975 69.7642 28.4792 69.794 28.7974 69.8537C29.1189 69.91 29.4288 70.0277 29.7271 70.2067C30.0287 70.3857 30.2789 70.6558 30.4778 71.017C30.6767 71.3783 30.7761 71.8622 30.7761 72.4688V77.5H29.6028V76.4659H29.5431C29.4636 76.6316 29.331 76.8089 29.1454 76.9979C28.9598 77.1868 28.7129 77.3475 28.4047 77.4801C28.0964 77.6127 27.7202 77.679 27.2761 77.679ZM27.4551 76.625C27.9191 76.625 28.3102 76.5339 28.6284 76.3516C28.9499 76.1693 29.1918 75.9339 29.3542 75.6456C29.5199 75.3572 29.6028 75.054 29.6028 74.7358V73.6619C29.5531 73.7216 29.4437 73.7763 29.2747 73.826C29.109 73.8724 28.9167 73.9138 28.698 73.9503C28.4825 73.9834 28.2721 74.0133 28.0666 74.0398C27.8644 74.063 27.7003 74.0829 27.5744 74.0994C27.2695 74.1392 26.9844 74.2038 26.7193 74.2933C26.4574 74.3795 26.2453 74.5104 26.0829 74.6861C25.9238 74.8584 25.8443 75.0937 25.8443 75.392C25.8443 75.7997 25.9951 76.108 26.2967 76.3168C26.6016 76.5223 26.9877 76.625 27.4551 76.625ZM36.0199 77.6591C35.304 77.6591 34.6875 77.4901 34.1705 77.152C33.6534 76.8139 33.2557 76.3482 32.9773 75.755C32.6989 75.1617 32.5597 74.4839 32.5597 73.7216C32.5597 72.946 32.7022 72.2616 32.9872 71.6683C33.2756 71.0717 33.6766 70.6061 34.1903 70.2713C34.7074 69.9332 35.3106 69.7642 36 69.7642C36.5369 69.7642 37.0208 69.8636 37.4517 70.0625C37.8826 70.2614 38.2356 70.5398 38.5107 70.8977C38.7857 71.2557 38.9564 71.6733 39.0227 72.1506H37.8494C37.7599 71.8026 37.5611 71.4943 37.2528 71.2259C36.9479 70.9541 36.5369 70.8182 36.0199 70.8182C35.5625 70.8182 35.1615 70.9375 34.8168 71.1761C34.4754 71.4115 34.2086 71.7446 34.0163 72.1754C33.8274 72.603 33.733 73.1051 33.733 73.6818C33.733 74.2718 33.8258 74.7855 34.0114 75.223C34.2003 75.6605 34.4654 76.0002 34.8068 76.2422C35.1515 76.4841 35.5559 76.6051 36.0199 76.6051C36.3248 76.6051 36.6016 76.5521 36.8501 76.446C37.0987 76.34 37.3092 76.1875 37.4815 75.9886C37.6539 75.7898 37.7765 75.5511 37.8494 75.2727H39.0227C38.9564 75.7235 38.7924 76.1295 38.5305 76.4908C38.272 76.8487 37.929 77.1338 37.5014 77.3459C37.0772 77.5547 36.5833 77.6591 36.0199 77.6591ZM41.8317 74.7159L41.8118 73.2642H42.0504L45.3913 69.8636H46.843L43.2834 73.4631H43.1839L41.8317 74.7159ZM40.7379 77.5V67.3182H41.9112V77.5H40.7379ZM45.5902 77.5L42.6072 73.7216L43.4425 72.9062L47.0817 77.5H45.5902Z" fill="#222222"/>
<rect x="7" y="98" width="252" height="40" rx="4" fill="white"/>
<path d="M16.6506 113.318L19.6733 121.889H19.7926L22.8153 113.318H24.108L20.3693 123.5H19.0966L15.358 113.318H16.6506ZM28.0256 123.659C27.2898 123.659 26.6551 123.497 26.1214 123.172C25.5911 122.844 25.1818 122.386 24.8935 121.8C24.6084 121.21 24.4659 120.524 24.4659 119.741C24.4659 118.959 24.6084 118.27 24.8935 117.673C25.1818 117.073 25.5829 116.606 26.0966 116.271C26.6136 115.933 27.2169 115.764 27.9062 115.764C28.304 115.764 28.6967 115.83 29.0845 115.963C29.4723 116.096 29.8253 116.311 30.1435 116.609C30.4616 116.904 30.7152 117.295 30.9041 117.783C31.093 118.27 31.1875 118.87 31.1875 119.582V120.08H25.3011V119.065H29.9943C29.9943 118.634 29.9081 118.25 29.7358 117.912C29.5668 117.574 29.3248 117.307 29.0099 117.112C28.6984 116.916 28.3305 116.818 27.9062 116.818C27.4389 116.818 27.0346 116.934 26.6932 117.166C26.3551 117.395 26.0949 117.693 25.9126 118.061C25.7304 118.429 25.6392 118.823 25.6392 119.244V119.92C25.6392 120.497 25.7386 120.986 25.9375 121.387C26.1397 121.785 26.4197 122.088 26.7777 122.297C27.1357 122.502 27.5516 122.605 28.0256 122.605C28.3338 122.605 28.6122 122.562 28.8608 122.476C29.1127 122.386 29.3298 122.254 29.5121 122.078C29.6944 121.899 29.8352 121.677 29.9347 121.412L31.0682 121.73C30.9489 122.115 30.7483 122.453 30.4666 122.744C30.1849 123.033 29.8369 123.258 29.4226 123.42C29.0083 123.58 28.5426 123.659 28.0256 123.659ZM32.9723 123.5V115.864H34.1058V117.017H34.1854C34.3246 116.639 34.5765 116.333 34.9411 116.097C35.3056 115.862 35.7166 115.744 36.174 115.744C36.2602 115.744 36.3679 115.746 36.4972 115.749C36.6264 115.753 36.7242 115.758 36.7905 115.764V116.957C36.7507 116.947 36.6596 116.933 36.517 116.913C36.3778 116.889 36.2304 116.878 36.0746 116.878C35.7034 116.878 35.3719 116.956 35.0803 117.112C34.7919 117.264 34.5632 117.476 34.3942 117.748C34.2285 118.016 34.1456 118.323 34.1456 118.668V123.5H32.9723ZM39.1694 126.364C38.9705 126.364 38.7932 126.347 38.6374 126.314C38.4817 126.284 38.3739 126.254 38.3143 126.224L38.6126 125.19C38.8976 125.263 39.1495 125.29 39.3683 125.27C39.587 125.25 39.7809 125.152 39.9499 124.977C40.1223 124.804 40.2797 124.524 40.4222 124.136L40.641 123.54L37.8171 115.864H39.0898L41.1978 121.949H41.2773L43.3853 115.864H44.658L41.4165 124.614C41.2707 125.008 41.0901 125.335 40.8746 125.593C40.6592 125.855 40.409 126.049 40.1239 126.175C39.8422 126.301 39.524 126.364 39.1694 126.364ZM51.3175 118.906V123.5H50.1442V115.864H51.2777V117.057H51.3771C51.5561 116.669 51.8279 116.357 52.1925 116.122C52.5571 115.884 53.0277 115.764 53.6044 115.764C54.1214 115.764 54.5739 115.87 54.9616 116.082C55.3494 116.291 55.651 116.609 55.8665 117.037C56.0819 117.461 56.1896 117.998 56.1896 118.648V123.5H55.0163V118.727C55.0163 118.127 54.8606 117.66 54.549 117.325C54.2375 116.987 53.8099 116.818 53.2663 116.818C52.8918 116.818 52.5571 116.899 52.2621 117.062C51.9704 117.224 51.7401 117.461 51.571 117.773C51.402 118.084 51.3175 118.462 51.3175 118.906ZM60.5808 123.679C60.0969 123.679 59.6577 123.588 59.2633 123.406C58.8689 123.22 58.5557 122.953 58.3237 122.605C58.0917 122.254 57.9757 121.83 57.9757 121.332C57.9757 120.895 58.0618 120.54 58.2342 120.268C58.4065 119.993 58.6369 119.778 58.9252 119.622C59.2136 119.466 59.5318 119.35 59.8798 119.274C60.2311 119.195 60.5841 119.132 60.9387 119.085C61.4028 119.026 61.7789 118.981 62.0673 118.951C62.359 118.918 62.5711 118.863 62.7037 118.787C62.8395 118.711 62.9075 118.578 62.9075 118.389V118.349C62.9075 117.859 62.7733 117.478 62.5048 117.206C62.2396 116.934 61.8369 116.798 61.2967 116.798C60.7366 116.798 60.2974 116.921 59.9792 117.166C59.661 117.411 59.4373 117.673 59.3081 117.952L58.1944 117.554C58.3933 117.09 58.6584 116.729 58.9899 116.47C59.3246 116.208 59.6892 116.026 60.0836 115.923C60.4814 115.817 60.8725 115.764 61.2569 115.764C61.5022 115.764 61.7839 115.794 62.1021 115.854C62.4236 115.91 62.7335 116.028 63.0318 116.207C63.3334 116.386 63.5836 116.656 63.7825 117.017C63.9814 117.378 64.0808 117.862 64.0808 118.469V123.5H62.9075V122.466H62.8478C62.7683 122.632 62.6357 122.809 62.4501 122.998C62.2645 123.187 62.0176 123.348 61.7093 123.48C61.4011 123.613 61.0249 123.679 60.5808 123.679ZM60.7598 122.625C61.2238 122.625 61.6149 122.534 61.9331 122.352C62.2546 122.169 62.4965 121.934 62.6589 121.646C62.8246 121.357 62.9075 121.054 62.9075 120.736V119.662C62.8578 119.722 62.7484 119.776 62.5794 119.826C62.4136 119.872 62.2214 119.914 62.0027 119.95C61.7872 119.983 61.5768 120.013 61.3713 120.04C61.1691 120.063 61.005 120.083 60.8791 120.099C60.5742 120.139 60.2891 120.204 60.024 120.293C59.7621 120.379 59.55 120.51 59.3876 120.686C59.2285 120.858 59.149 121.094 59.149 121.392C59.149 121.8 59.2998 122.108 59.6014 122.317C59.9063 122.522 60.2924 122.625 60.7598 122.625ZM66.2223 123.5V115.864H67.3558V117.017H67.4354C67.5746 116.639 67.8265 116.333 68.1911 116.097C68.5556 115.862 68.9666 115.744 69.424 115.744C69.5102 115.744 69.6179 115.746 69.7472 115.749C69.8764 115.753 69.9742 115.758 70.0405 115.764V116.957C70.0007 116.947 69.9096 116.933 69.767 116.913C69.6278 116.889 69.4804 116.878 69.3246 116.878C68.9534 116.878 68.6219 116.956 68.3303 117.112C68.0419 117.264 67.8132 117.476 67.6442 117.748C67.4785 118.016 67.3956 118.323 67.3956 118.668V123.5H66.2223ZM71.4313 123.5V115.864H72.5648V117.017H72.6444C72.7836 116.639 73.0355 116.333 73.4 116.097C73.7646 115.862 74.1756 115.744 74.633 115.744C74.7192 115.744 74.8269 115.746 74.9561 115.749C75.0854 115.753 75.1832 115.758 75.2495 115.764V116.957C75.2097 116.947 75.1185 116.933 74.976 116.913C74.8368 116.889 74.6893 116.878 74.5336 116.878C74.1623 116.878 73.8309 116.956 73.5392 117.112C73.2509 117.264 73.0222 117.476 72.8532 117.748C72.6874 118.016 72.6046 118.323 72.6046 118.668V123.5H71.4313ZM79.5101 123.659C78.8207 123.659 78.2159 123.495 77.6955 123.167C77.1784 122.839 76.7741 122.38 76.4824 121.79C76.1941 121.2 76.0499 120.51 76.0499 119.722C76.0499 118.926 76.1941 118.232 76.4824 117.638C76.7741 117.045 77.1784 116.585 77.6955 116.256C78.2159 115.928 78.8207 115.764 79.5101 115.764C80.1995 115.764 80.8027 115.928 81.3198 116.256C81.8401 116.585 82.2445 117.045 82.5328 117.638C82.8245 118.232 82.9703 118.926 82.9703 119.722C82.9703 120.51 82.8245 121.2 82.5328 121.79C82.2445 122.38 81.8401 122.839 81.3198 123.167C80.8027 123.495 80.1995 123.659 79.5101 123.659ZM79.5101 122.605C80.0338 122.605 80.4647 122.471 80.8027 122.202C81.1408 121.934 81.391 121.581 81.5534 121.143C81.7159 120.706 81.7971 120.232 81.7971 119.722C81.7971 119.211 81.7159 118.736 81.5534 118.295C81.391 117.854 81.1408 117.498 80.8027 117.226C80.4647 116.954 80.0338 116.818 79.5101 116.818C78.9864 116.818 78.5556 116.954 78.2175 117.226C77.8794 117.498 77.6292 117.854 77.4668 118.295C77.3044 118.736 77.2232 119.211 77.2232 119.722C77.2232 120.232 77.3044 120.706 77.4668 121.143C77.6292 121.581 77.8794 121.934 78.2175 122.202C78.5556 122.471 78.9864 122.605 79.5101 122.605ZM86.2317 123.5L83.905 115.864H85.138L86.7885 121.71H86.8681L88.4988 115.864H89.7516L91.3624 121.69H91.4419L93.0925 115.864H94.3255L91.9988 123.5H90.8453L89.1749 117.634H89.0556L87.3851 123.5H86.2317ZM102.061 123.679C101.577 123.679 101.138 123.588 100.744 123.406C100.349 123.22 100.036 122.953 99.8042 122.605C99.5721 122.254 99.4561 121.83 99.4561 121.332C99.4561 120.895 99.5423 120.54 99.7147 120.268C99.887 119.993 100.117 119.778 100.406 119.622C100.694 119.466 101.012 119.35 101.36 119.274C101.712 119.195 102.065 119.132 102.419 119.085C102.883 119.026 103.259 118.981 103.548 118.951C103.839 118.918 104.052 118.863 104.184 118.787C104.32 118.711 104.388 118.578 104.388 118.389V118.349C104.388 117.859 104.254 117.478 103.985 117.206C103.72 116.934 103.317 116.798 102.777 116.798C102.217 116.798 101.778 116.921 101.46 117.166C101.142 117.411 100.918 117.673 100.789 117.952L99.6749 117.554C99.8738 117.09 100.139 116.729 100.47 116.47C100.805 116.208 101.17 116.026 101.564 115.923C101.962 115.817 102.353 115.764 102.737 115.764C102.983 115.764 103.264 115.794 103.583 115.854C103.904 115.91 104.214 116.028 104.512 116.207C104.814 116.386 105.064 116.656 105.263 117.017C105.462 117.378 105.561 117.862 105.561 118.469V123.5H104.388V122.466H104.328C104.249 122.632 104.116 122.809 103.931 122.998C103.745 123.187 103.498 123.348 103.19 123.48C102.882 123.613 102.505 123.679 102.061 123.679ZM102.24 122.625C102.704 122.625 103.095 122.534 103.414 122.352C103.735 122.169 103.977 121.934 104.139 121.646C104.305 121.357 104.388 121.054 104.388 120.736V119.662C104.338 119.722 104.229 119.776 104.06 119.826C103.894 119.872 103.702 119.914 103.483 119.95C103.268 119.983 103.057 120.013 102.852 120.04C102.65 120.063 102.485 120.083 102.36 120.099C102.055 120.139 101.77 120.204 101.504 120.293C101.243 120.379 101.03 120.51 100.868 120.686C100.709 120.858 100.629 121.094 100.629 121.392C100.629 121.8 100.78 122.108 101.082 122.317C101.387 122.522 101.773 122.625 102.24 122.625ZM107.703 123.5V115.864H108.876V123.5H107.703ZM108.299 114.591C108.071 114.591 107.873 114.513 107.708 114.357C107.545 114.201 107.464 114.014 107.464 113.795C107.464 113.577 107.545 113.389 107.708 113.234C107.873 113.078 108.071 113 108.299 113C108.528 113 108.724 113.078 108.886 113.234C109.052 113.389 109.135 113.577 109.135 113.795C109.135 114.014 109.052 114.201 108.886 114.357C108.724 114.513 108.528 114.591 108.299 114.591ZM116.434 117.574L115.38 117.872C115.314 117.696 115.216 117.526 115.087 117.36C114.961 117.191 114.789 117.052 114.57 116.942C114.351 116.833 114.071 116.778 113.73 116.778C113.262 116.778 112.873 116.886 112.561 117.102C112.253 117.314 112.099 117.584 112.099 117.912C112.099 118.204 112.205 118.434 112.417 118.603C112.629 118.772 112.961 118.913 113.411 119.026L114.545 119.304C115.228 119.47 115.736 119.723 116.071 120.065C116.406 120.403 116.573 120.839 116.573 121.372C116.573 121.81 116.447 122.201 116.195 122.545C115.947 122.89 115.599 123.162 115.151 123.361C114.704 123.56 114.184 123.659 113.59 123.659C112.811 123.659 112.167 123.49 111.656 123.152C111.146 122.814 110.823 122.32 110.687 121.67L111.801 121.392C111.907 121.803 112.107 122.111 112.402 122.317C112.7 122.522 113.09 122.625 113.57 122.625C114.117 122.625 114.552 122.509 114.873 122.277C115.198 122.042 115.36 121.76 115.36 121.432C115.36 121.167 115.267 120.945 115.082 120.766C114.896 120.583 114.611 120.447 114.227 120.358L112.954 120.06C112.255 119.894 111.741 119.637 111.413 119.289C111.088 118.938 110.926 118.499 110.926 117.972C110.926 117.541 111.047 117.16 111.289 116.828C111.534 116.497 111.867 116.237 112.288 116.048C112.712 115.859 113.193 115.764 113.73 115.764C114.485 115.764 115.079 115.93 115.509 116.261C115.944 116.593 116.252 117.03 116.434 117.574ZM119.513 113.318V123.5H118.339V113.318H119.513ZM124.863 123.659C124.128 123.659 123.493 123.497 122.959 123.172C122.429 122.844 122.02 122.386 121.731 121.8C121.446 121.21 121.304 120.524 121.304 119.741C121.304 118.959 121.446 118.27 121.731 117.673C122.02 117.073 122.421 116.606 122.934 116.271C123.452 115.933 124.055 115.764 124.744 115.764C125.142 115.764 125.535 115.83 125.922 115.963C126.31 116.096 126.663 116.311 126.981 116.609C127.3 116.904 127.553 117.295 127.742 117.783C127.931 118.27 128.025 118.87 128.025 119.582V120.08H122.139V119.065H126.832C126.832 118.634 126.746 118.25 126.574 117.912C126.405 117.574 126.163 117.307 125.848 117.112C125.536 116.916 125.168 116.818 124.744 116.818C124.277 116.818 123.872 116.934 123.531 117.166C123.193 117.395 122.933 117.693 122.751 118.061C122.568 118.429 122.477 118.823 122.477 119.244V119.92C122.477 120.497 122.577 120.986 122.775 121.387C122.978 121.785 123.258 122.088 123.616 122.297C123.974 122.502 124.39 122.605 124.863 122.605C125.172 122.605 125.45 122.562 125.699 122.476C125.951 122.386 126.168 122.254 126.35 122.078C126.532 121.899 126.673 121.677 126.773 121.412L127.906 121.73C127.787 122.115 127.586 122.453 127.305 122.744C127.023 123.033 126.675 123.258 126.26 123.42C125.846 123.58 125.381 123.659 124.863 123.659ZM134.165 118.409C134.165 117.156 134.328 116.004 134.653 114.954C134.981 113.9 135.448 112.93 136.055 112.045H137.089C136.85 112.374 136.626 112.778 136.417 113.259C136.212 113.736 136.031 114.261 135.876 114.835C135.72 115.405 135.597 115.995 135.508 116.604C135.421 117.214 135.378 117.816 135.378 118.409C135.378 119.198 135.455 119.998 135.607 120.81C135.76 121.622 135.965 122.376 136.224 123.072C136.482 123.768 136.77 124.335 137.089 124.773H136.055C135.448 123.888 134.981 122.92 134.653 121.869C134.328 120.815 134.165 119.662 134.165 118.409ZM139.397 113.318L142.419 121.889H142.539L145.561 113.318H146.854L143.115 123.5H141.843L138.104 113.318H139.397ZM156.514 113.318V123.5H155.321L149.772 115.506H149.673V123.5H148.44V113.318H149.633L155.201 121.332H155.301V113.318H156.514ZM159.399 123.5H158.106L161.845 113.318H163.117L166.856 123.5H165.563L162.521 114.929H162.441L159.399 123.5ZM159.876 119.523H165.086V120.616H159.876V119.523ZM170.789 118.409C170.789 119.662 170.624 120.815 170.296 121.869C169.972 122.92 169.506 123.888 168.899 124.773H167.865C168.104 124.445 168.326 124.04 168.531 123.56C168.74 123.082 168.923 122.559 169.078 121.989C169.234 121.415 169.355 120.824 169.441 120.214C169.531 119.601 169.575 118.999 169.575 118.409C169.575 117.62 169.499 116.82 169.347 116.008C169.194 115.196 168.989 114.442 168.73 113.746C168.472 113.05 168.183 112.483 167.865 112.045H168.899C169.506 112.93 169.972 113.9 170.296 114.954C170.624 116.004 170.789 117.156 170.789 118.409Z" fill="#222222"/>
<rect x="7" y="144" width="252" height="40" rx="4" fill="white"/>
<path d="M21.8011 161.864C21.7415 161.36 21.4995 160.969 21.0753 160.69C20.651 160.412 20.1307 160.273 19.5142 160.273C19.0634 160.273 18.669 160.346 18.331 160.491C17.9962 160.637 17.7344 160.838 17.5455 161.093C17.3598 161.348 17.267 161.638 17.267 161.963C17.267 162.235 17.3317 162.469 17.4609 162.664C17.5935 162.856 17.7625 163.017 17.968 163.146C18.1735 163.272 18.389 163.377 18.6143 163.46C18.8397 163.539 19.0469 163.604 19.2358 163.653L20.2699 163.932C20.535 164.001 20.83 164.098 21.1548 164.22C21.483 164.343 21.7962 164.51 22.0945 164.722C22.3961 164.931 22.6446 165.2 22.8402 165.528C23.0357 165.856 23.1335 166.259 23.1335 166.736C23.1335 167.286 22.9893 167.783 22.701 168.227C22.416 168.671 21.9983 169.024 21.4482 169.286C20.9013 169.548 20.2367 169.679 19.4545 169.679C18.7254 169.679 18.094 169.561 17.5604 169.326C17.0301 169.091 16.6125 168.763 16.3075 168.342C16.0059 167.921 15.8352 167.432 15.7955 166.875H17.0682C17.1013 167.259 17.2306 167.578 17.456 167.83C17.6847 168.078 17.973 168.264 18.321 168.386C18.6723 168.506 19.0502 168.565 19.4545 168.565C19.9252 168.565 20.3478 168.489 20.7223 168.337C21.0968 168.181 21.3935 167.965 21.6122 167.69C21.831 167.412 21.9403 167.087 21.9403 166.716C21.9403 166.378 21.8459 166.103 21.657 165.891C21.468 165.679 21.2195 165.506 20.9112 165.374C20.603 165.241 20.2699 165.125 19.9119 165.026L18.6591 164.668C17.8636 164.439 17.2339 164.112 16.7699 163.688C16.3059 163.264 16.0739 162.709 16.0739 162.023C16.0739 161.453 16.228 160.955 16.5362 160.531C16.8478 160.104 17.2654 159.772 17.7891 159.537C18.3161 159.298 18.9044 159.179 19.554 159.179C20.2102 159.179 20.7936 159.297 21.304 159.532C21.8144 159.764 22.2188 160.082 22.517 160.487C22.8187 160.891 22.9777 161.35 22.9943 161.864H21.8011ZM26.1749 164.906V169.5H25.0016V159.318H26.1749V163.057H26.2743C26.4533 162.662 26.7218 162.349 27.0797 162.117C27.441 161.882 27.9216 161.764 28.5215 161.764C29.0418 161.764 29.4976 161.869 29.8887 162.077C30.2798 162.283 30.583 162.599 30.7985 163.027C31.0172 163.451 31.1266 163.991 31.1266 164.648V169.5H29.9533V164.727C29.9533 164.121 29.7959 163.652 29.481 163.32C29.1694 162.986 28.7369 162.818 28.1834 162.818C27.7989 162.818 27.4542 162.899 27.1493 163.062C26.8477 163.224 26.6091 163.461 26.4334 163.773C26.2611 164.084 26.1749 164.462 26.1749 164.906ZM38.0856 166.378V161.864H39.2589V169.5H38.0856V168.207H38.006C37.8271 168.595 37.5487 168.925 37.1708 169.197C36.793 169.465 36.3157 169.599 35.739 169.599C35.2617 169.599 34.8375 169.495 34.4663 169.286C34.0951 169.074 33.8034 168.756 33.5913 168.332C33.3791 167.904 33.2731 167.366 33.2731 166.716V161.864H34.4464V166.636C34.4464 167.193 34.6022 167.637 34.9137 167.969C35.2286 168.3 35.6296 168.466 36.1168 168.466C36.4085 168.466 36.7051 168.391 37.0067 168.242C37.3117 168.093 37.5669 167.864 37.7724 167.556C37.9812 167.248 38.0856 166.855 38.0856 166.378ZM44.7289 161.864V162.858H40.7715V161.864H44.7289ZM41.9249 160.034H43.0982V167.312C43.0982 167.644 43.1462 167.893 43.2424 168.058C43.3418 168.221 43.4677 168.33 43.6202 168.386C43.776 168.439 43.94 168.466 44.1124 168.466C44.2417 168.466 44.3477 168.459 44.4306 168.446C44.5134 168.429 44.5797 168.416 44.6294 168.406L44.8681 169.46C44.7885 169.49 44.6775 169.52 44.535 169.55C44.3925 169.583 44.2118 169.599 43.9931 169.599C43.6616 169.599 43.3368 169.528 43.0186 169.386C42.7038 169.243 42.4419 169.026 42.2331 168.734C42.0276 168.443 41.9249 168.075 41.9249 167.631V160.034ZM49.8148 161.864V162.858H45.8574V161.864H49.8148ZM47.0108 160.034H48.1841V167.312C48.1841 167.644 48.2322 167.893 48.3283 168.058C48.4277 168.221 48.5537 168.33 48.7061 168.386C48.8619 168.439 49.026 168.466 49.1983 168.466C49.3276 168.466 49.4337 168.459 49.5165 168.446C49.5994 168.429 49.6657 168.416 49.7154 168.406L49.954 169.46C49.8745 169.49 49.7634 169.52 49.6209 169.55C49.4784 169.583 49.2978 169.599 49.079 169.599C48.7476 169.599 48.4228 169.528 48.1046 169.386C47.7897 169.243 47.5279 169.026 47.3191 168.734C47.1136 168.443 47.0108 168.075 47.0108 167.631V160.034ZM52.9171 159.318V169.5H51.7438V159.318H52.9171ZM58.2678 169.659C57.532 169.659 56.8973 169.497 56.3636 169.172C55.8333 168.844 55.424 168.386 55.1357 167.8C54.8506 167.21 54.7081 166.524 54.7081 165.741C54.7081 164.959 54.8506 164.27 55.1357 163.673C55.424 163.073 55.825 162.606 56.3388 162.271C56.8558 161.933 57.459 161.764 58.1484 161.764C58.5462 161.764 58.9389 161.83 59.3267 161.963C59.7145 162.096 60.0675 162.311 60.3857 162.609C60.7038 162.904 60.9574 163.295 61.1463 163.783C61.3352 164.27 61.4297 164.87 61.4297 165.582V166.08H55.5433V165.065H60.2365C60.2365 164.634 60.1503 164.25 59.978 163.912C59.8089 163.574 59.567 163.307 59.2521 163.112C58.9406 162.916 58.5727 162.818 58.1484 162.818C57.6811 162.818 57.2768 162.934 56.9354 163.166C56.5973 163.395 56.3371 163.693 56.1548 164.061C55.9725 164.429 55.8814 164.823 55.8814 165.244V165.92C55.8814 166.497 55.9808 166.986 56.1797 167.387C56.3819 167.785 56.6619 168.088 57.0199 168.297C57.3778 168.502 57.7938 168.605 58.2678 168.605C58.576 168.605 58.8544 168.562 59.103 168.476C59.3549 168.386 59.572 168.254 59.7543 168.078C59.9366 167.899 60.0774 167.677 60.1768 167.412L61.3104 167.73C61.1911 168.115 60.9905 168.453 60.7088 168.744C60.4271 169.033 60.0791 169.258 59.6648 169.42C59.2505 169.58 58.7848 169.659 58.2678 169.659ZM67.152 169.5V161.864H68.2855V163.017H68.3651C68.5043 162.639 68.7562 162.333 69.1207 162.097C69.4853 161.862 69.8963 161.744 70.3537 161.744C70.4399 161.744 70.5476 161.746 70.6768 161.749C70.8061 161.753 70.9039 161.758 70.9702 161.764V162.957C70.9304 162.947 70.8393 162.933 70.6967 162.913C70.5575 162.889 70.41 162.878 70.2543 162.878C69.883 162.878 69.5516 162.956 69.2599 163.112C68.9716 163.264 68.7429 163.476 68.5739 163.748C68.4081 164.016 68.3253 164.323 68.3253 164.668V169.5H67.152ZM74.6081 169.679C74.1242 169.679 73.6851 169.588 73.2907 169.406C72.8962 169.22 72.583 168.953 72.351 168.605C72.119 168.254 72.003 167.83 72.003 167.332C72.003 166.895 72.0892 166.54 72.2615 166.268C72.4339 165.993 72.6642 165.778 72.9526 165.622C73.2409 165.466 73.5591 165.35 73.9071 165.274C74.2585 165.195 74.6114 165.132 74.9661 165.085C75.4301 165.026 75.8063 164.981 76.0946 164.951C76.3863 164.918 76.5984 164.863 76.731 164.787C76.8669 164.711 76.9348 164.578 76.9348 164.389V164.349C76.9348 163.859 76.8006 163.478 76.5321 163.206C76.267 162.934 75.8643 162.798 75.324 162.798C74.7639 162.798 74.3248 162.921 74.0066 163.166C73.6884 163.411 73.4647 163.673 73.3354 163.952L72.2218 163.554C72.4206 163.09 72.6858 162.729 73.0172 162.47C73.352 162.208 73.7166 162.026 74.111 161.923C74.5087 161.817 74.8998 161.764 75.2843 161.764C75.5295 161.764 75.8113 161.794 76.1294 161.854C76.4509 161.91 76.7608 162.028 77.0591 162.207C77.3607 162.386 77.611 162.656 77.8098 163.017C78.0087 163.378 78.1081 163.862 78.1081 164.469V169.5H76.9348V168.466H76.8752C76.7956 168.632 76.6631 168.809 76.4775 168.998C76.2918 169.187 76.0449 169.348 75.7367 169.48C75.4284 169.613 75.0523 169.679 74.6081 169.679ZM74.7871 168.625C75.2511 168.625 75.6422 168.534 75.9604 168.352C76.2819 168.169 76.5239 167.934 76.6863 167.646C76.852 167.357 76.9348 167.054 76.9348 166.736V165.662C76.8851 165.722 76.7757 165.776 76.6067 165.826C76.441 165.872 76.2488 165.914 76.03 165.95C75.8146 165.983 75.6041 166.013 75.3986 166.04C75.1964 166.063 75.0324 166.083 74.9064 166.099C74.6015 166.139 74.3165 166.204 74.0513 166.293C73.7895 166.379 73.5774 166.51 73.415 166.686C73.2559 166.858 73.1763 167.094 73.1763 167.392C73.1763 167.8 73.3271 168.108 73.6287 168.317C73.9337 168.522 74.3198 168.625 74.7871 168.625ZM83.3519 169.659C82.636 169.659 82.0195 169.49 81.5025 169.152C80.9854 168.814 80.5877 168.348 80.3093 167.755C80.0309 167.162 79.8917 166.484 79.8917 165.722C79.8917 164.946 80.0342 164.262 80.3192 163.668C80.6076 163.072 81.0086 162.606 81.5224 162.271C82.0394 161.933 82.6426 161.764 83.332 161.764C83.869 161.764 84.3529 161.864 84.7837 162.062C85.2146 162.261 85.5676 162.54 85.8427 162.898C86.1178 163.256 86.2885 163.673 86.3548 164.151H85.1815C85.092 163.803 84.8931 163.494 84.5849 163.226C84.2799 162.954 83.869 162.818 83.3519 162.818C82.8945 162.818 82.4935 162.937 82.1488 163.176C81.8074 163.411 81.5406 163.745 81.3484 164.175C81.1594 164.603 81.065 165.105 81.065 165.682C81.065 166.272 81.1578 166.786 81.3434 167.223C81.5323 167.661 81.7975 168 82.1388 168.242C82.4835 168.484 82.8879 168.605 83.3519 168.605C83.6568 168.605 83.9336 168.552 84.1822 168.446C84.4308 168.34 84.6412 168.188 84.8136 167.989C84.9859 167.79 85.1085 167.551 85.1815 167.273H86.3548C86.2885 167.723 86.1244 168.129 85.8626 168.491C85.604 168.849 85.261 169.134 84.8335 169.346C84.4092 169.555 83.9154 169.659 83.3519 169.659ZM89.1637 166.716L89.1438 165.264H89.3825L92.7234 161.864H94.1751L90.6154 165.463H90.516L89.1637 166.716ZM88.07 169.5V159.318H89.2433V169.5H88.07ZM92.9222 169.5L89.9393 165.722L90.7745 164.906L94.4137 169.5H92.9222ZM95.6852 169.5V161.864H96.8585V169.5H95.6852ZM96.2818 160.591C96.0531 160.591 95.8559 160.513 95.6902 160.357C95.5278 160.201 95.4466 160.014 95.4466 159.795C95.4466 159.577 95.5278 159.389 95.6902 159.234C95.8559 159.078 96.0531 159 96.2818 159C96.5105 159 96.706 159.078 96.8684 159.234C97.0342 159.389 97.117 159.577 97.117 159.795C97.117 160.014 97.0342 160.201 96.8684 160.357C96.706 160.513 96.5105 160.591 96.2818 160.591ZM100.181 164.906V169.5H99.0075V161.864H100.141V163.057H100.24C100.419 162.669 100.691 162.357 101.056 162.122C101.42 161.884 101.891 161.764 102.468 161.764C102.985 161.764 103.437 161.87 103.825 162.082C104.213 162.291 104.514 162.609 104.73 163.037C104.945 163.461 105.053 163.998 105.053 164.648V169.5H103.88V164.727C103.88 164.127 103.724 163.66 103.412 163.325C103.101 162.987 102.673 162.818 102.13 162.818C101.755 162.818 101.42 162.899 101.125 163.062C100.834 163.224 100.603 163.461 100.434 163.773C100.265 164.084 100.181 164.462 100.181 164.906ZM110.279 172.523C109.713 172.523 109.225 172.45 108.818 172.304C108.41 172.161 108.07 171.973 107.798 171.737C107.53 171.505 107.316 171.257 107.157 170.991L108.092 170.335C108.198 170.474 108.332 170.634 108.494 170.812C108.657 170.995 108.879 171.152 109.161 171.285C109.446 171.421 109.819 171.489 110.279 171.489C110.896 171.489 111.405 171.339 111.806 171.041C112.207 170.743 112.407 170.276 112.407 169.639V168.088H112.308C112.222 168.227 112.099 168.4 111.94 168.605C111.784 168.807 111.559 168.988 111.264 169.147C110.972 169.303 110.578 169.381 110.08 169.381C109.464 169.381 108.91 169.235 108.42 168.943C107.933 168.652 107.547 168.227 107.262 167.67C106.98 167.114 106.839 166.437 106.839 165.642C106.839 164.86 106.977 164.179 107.252 163.599C107.527 163.015 107.91 162.565 108.4 162.246C108.891 161.925 109.457 161.764 110.1 161.764C110.597 161.764 110.992 161.847 111.284 162.013C111.579 162.175 111.804 162.361 111.96 162.57C112.119 162.775 112.241 162.944 112.328 163.077H112.447V161.864H113.58V169.719C113.58 170.375 113.431 170.909 113.133 171.32C112.838 171.734 112.44 172.037 111.94 172.229C111.443 172.425 110.889 172.523 110.279 172.523ZM110.24 168.327C110.71 168.327 111.108 168.219 111.433 168.004C111.758 167.788 112.004 167.478 112.173 167.074C112.343 166.67 112.427 166.186 112.427 165.622C112.427 165.072 112.344 164.586 112.178 164.165C112.013 163.745 111.767 163.415 111.443 163.176C111.118 162.937 110.717 162.818 110.24 162.818C109.742 162.818 109.328 162.944 108.997 163.196C108.669 163.448 108.422 163.786 108.256 164.21C108.093 164.634 108.012 165.105 108.012 165.622C108.012 166.152 108.095 166.621 108.261 167.029C108.43 167.433 108.678 167.752 109.007 167.984C109.338 168.212 109.749 168.327 110.24 168.327Z" fill="#222222"/>
</g>
<defs>
<filter id="filter0_d_5338_19517" x="0" y="0" width="266" height="192" filterUnits="userSpaceOnUse" color-interpolation-filters="sRGB">
<feFlood flood-opacity="0" result="BackgroundImageFix"/>
<feColorMatrix in="SourceAlpha" type="matrix" values="0 0 0 0 0 0 0 0 0 0 0 0 0 0 0 0 0 0 127 0" result="hardAlpha"/>
<feOffset dy="1"/>
<feGaussianBlur stdDeviation="1.5"/>
<feComposite in2="hardAlpha" operator="out"/>
<feColorMatrix type="matrix" values="0 0 0 0 0 0 0 0 0 0 0 0 0 0 0 0 0 0 0.2 0"/>
<feBlend mode="normal" in2="BackgroundImageFix" result="effect1_dropShadow_5338_19517"/>
<feBlend mode="normal" in="SourceGraphic" in2="effect1_dropShadow_5338_19517" result="shape"/>
</filter>
</defs>
</svg>
