<svg width="1440" height="217" viewBox="0 0 1440 217" fill="none" xmlns="http://www.w3.org/2000/svg">
<mask id="path-1-inside-1_3168_10774" fill="white">
<path d="M0 0H1440V217H0V0Z"/>
</mask>
<path d="M0 0H1440V217H0V0Z" fill="white"/>
<path d="M0 1H1440V-1H0V1Z" fill="var(--colors-neutral-neutral-400)" mask="url(#path-1-inside-1_3168_10774)"/>
<rect y="32" width="1440" height="1" fill="var(--colors-neutral-neutral-400)"/>
<path d="M210.483 13.5085V12.7273H215.938V13.5085H213.651V20H212.77V13.5085H210.483ZM218.608 20.1136C218.116 20.1136 217.683 19.9964 217.312 19.7621C216.942 19.5277 216.654 19.1998 216.445 18.7784C216.239 18.357 216.136 17.8646 216.136 17.3011C216.136 16.733 216.239 16.237 216.445 15.8132C216.654 15.3894 216.942 15.0604 217.312 14.826C217.683 14.5916 218.116 14.4744 218.608 14.4744C219.1 14.4744 219.531 14.5916 219.901 14.826C220.272 15.0604 220.561 15.3894 220.767 15.8132C220.975 16.237 221.08 16.733 221.08 17.3011C221.08 17.8646 220.975 18.357 220.767 18.7784C220.561 19.1998 220.272 19.5277 219.901 19.7621C219.531 19.9964 219.1 20.1136 218.608 20.1136ZM218.608 19.3608C218.982 19.3608 219.29 19.2649 219.531 19.0732C219.773 18.8814 219.951 18.6293 220.067 18.3168C220.183 18.0043 220.241 17.6657 220.241 17.3011C220.241 16.9366 220.183 16.5968 220.067 16.282C219.951 15.9671 219.773 15.7126 219.531 15.5185C219.29 15.3243 218.982 15.2273 218.608 15.2273C218.234 15.2273 217.926 15.3243 217.685 15.5185C217.443 15.7126 217.264 15.9671 217.148 16.282C217.032 16.5968 216.974 16.9366 216.974 17.3011C216.974 17.6657 217.032 18.0043 217.148 18.3168C217.264 18.6293 217.443 18.8814 217.685 19.0732C217.926 19.2649 218.234 19.3608 218.608 19.3608ZM224.575 20.1136C224.082 20.1136 223.65 19.9964 223.279 19.7621C222.909 19.5277 222.62 19.1998 222.412 18.7784C222.206 18.357 222.103 17.8646 222.103 17.3011C222.103 16.733 222.206 16.237 222.412 15.8132C222.62 15.3894 222.909 15.0604 223.279 14.826C223.65 14.5916 224.082 14.4744 224.575 14.4744C225.067 14.4744 225.498 14.5916 225.867 14.826C226.239 15.0604 226.528 15.3894 226.734 15.8132C226.942 16.237 227.046 16.733 227.046 17.3011C227.046 17.8646 226.942 18.357 226.734 18.7784C226.528 19.1998 226.239 19.5277 225.867 19.7621C225.498 19.9964 225.067 20.1136 224.575 20.1136ZM224.575 19.3608C224.949 19.3608 225.257 19.2649 225.498 19.0732C225.74 18.8814 225.918 18.6293 226.034 18.3168C226.15 18.0043 226.208 17.6657 226.208 17.3011C226.208 16.9366 226.15 16.5968 226.034 16.282C225.918 15.9671 225.74 15.7126 225.498 15.5185C225.257 15.3243 224.949 15.2273 224.575 15.2273C224.201 15.2273 223.893 15.3243 223.651 15.5185C223.41 15.7126 223.231 15.9671 223.115 16.282C222.999 16.5968 222.941 16.9366 222.941 17.3011C222.941 17.6657 222.999 18.0043 223.115 18.3168C223.231 18.6293 223.41 18.8814 223.651 19.0732C223.893 19.2649 224.201 19.3608 224.575 19.3608ZM229.164 12.7273V20H228.326V12.7273H229.164ZM234.562 15.767L233.809 15.9801C233.762 15.8546 233.692 15.7327 233.6 15.6143C233.51 15.4936 233.387 15.3942 233.231 15.3161C233.074 15.2379 232.874 15.1989 232.631 15.1989C232.297 15.1989 232.019 15.2758 231.796 15.4297C231.576 15.5812 231.466 15.7741 231.466 16.0085C231.466 16.2169 231.541 16.3814 231.693 16.5021C231.845 16.6229 232.081 16.7235 232.403 16.804L233.213 17.0028C233.701 17.1212 234.064 17.3023 234.303 17.5462C234.542 17.7876 234.662 18.099 234.662 18.4801C234.662 18.7926 234.572 19.072 234.392 19.3182C234.214 19.5644 233.966 19.7585 233.646 19.9006C233.327 20.0426 232.955 20.1136 232.531 20.1136C231.975 20.1136 231.514 19.9929 231.15 19.7514C230.785 19.5099 230.554 19.1572 230.457 18.6932L231.253 18.4943C231.328 18.7879 231.472 19.008 231.682 19.1548C231.895 19.3016 232.174 19.375 232.517 19.375C232.907 19.375 233.218 19.2921 233.447 19.1264C233.679 18.9583 233.795 18.7571 233.795 18.5227C233.795 18.3333 233.729 18.1747 233.596 18.0469C233.464 17.9167 233.26 17.8196 232.986 17.7557L232.077 17.5426C231.577 17.4242 231.21 17.2408 230.976 16.9922C230.744 16.7412 230.628 16.4276 230.628 16.0511C230.628 15.7434 230.714 15.4711 230.887 15.2344C231.062 14.9976 231.3 14.8118 231.601 14.6768C231.904 14.5419 232.247 14.4744 232.631 14.4744C233.17 14.4744 233.594 14.5928 233.902 14.8295C234.212 15.0663 234.432 15.3788 234.562 15.767Z" fill="var(--colors-neutral-neutral-700)"/>
<rect x="263.5" y="0.5" width="66" height="32" stroke="var(--colors-neutral-neutral-400)"/>
<path d="M284.179 12.7273L286.338 18.8494H286.423L288.582 12.7273H289.506L286.835 20H285.926L283.256 12.7273H284.179ZM290.525 20V14.5455H291.363V20H290.525ZM290.951 13.6364C290.788 13.6364 290.647 13.5807 290.528 13.4695C290.412 13.3582 290.354 13.2244 290.354 13.0682C290.354 12.9119 290.412 12.7782 290.528 12.6669C290.647 12.5556 290.788 12.5 290.951 12.5C291.114 12.5 291.254 12.5556 291.37 12.6669C291.488 12.7782 291.548 12.9119 291.548 13.0682C291.548 13.2244 291.488 13.3582 291.37 13.4695C291.254 13.5807 291.114 13.6364 290.951 13.6364ZM295.185 20.1136C294.659 20.1136 294.206 19.9976 293.825 19.7656C293.446 19.5312 293.154 19.2045 292.948 18.7855C292.744 18.3641 292.642 17.8741 292.642 17.3153C292.642 16.7566 292.744 16.2642 292.948 15.8381C293.154 15.4096 293.44 15.0758 293.807 14.8366C294.176 14.5952 294.607 14.4744 295.1 14.4744C295.384 14.4744 295.664 14.5218 295.941 14.6165C296.218 14.7112 296.47 14.8651 296.698 15.0781C296.925 15.2888 297.106 15.5682 297.241 15.9162C297.376 16.2642 297.443 16.6927 297.443 17.2017V17.5568H293.239V16.8324H296.591C296.591 16.5246 296.53 16.25 296.406 16.0085C296.286 15.767 296.113 15.5765 295.888 15.4368C295.665 15.2971 295.403 15.2273 295.1 15.2273C294.766 15.2273 294.477 15.3101 294.233 15.4759C293.992 15.6392 293.806 15.8523 293.676 16.1151C293.545 16.3778 293.48 16.6596 293.48 16.9602V17.4432C293.48 17.8551 293.551 18.2043 293.693 18.4908C293.838 18.7749 294.038 18.9915 294.294 19.1406C294.549 19.2874 294.846 19.3608 295.185 19.3608C295.405 19.3608 295.604 19.33 295.781 19.2685C295.961 19.2045 296.116 19.1098 296.247 18.9844C296.377 18.8565 296.477 18.6979 296.548 18.5085L297.358 18.7358C297.273 19.0104 297.13 19.2519 296.928 19.4602C296.727 19.6662 296.479 19.8272 296.183 19.9432C295.887 20.0568 295.554 20.1136 295.185 20.1136ZM299.954 20L298.292 14.5455H299.173L300.352 18.7216H300.409L301.573 14.5455H302.468L303.619 18.7074H303.676L304.855 14.5455H305.735L304.073 20H303.249L302.056 15.8097H301.971L300.778 20H299.954Z" fill="var(--colors-neutral-neutral-800)"/>
<path d="M350.639 20V19.3608L354.56 13.5085H350.597V12.7273H355.611V13.3665L351.69 19.2188H355.653V20H350.639ZM359.233 20.1136C358.741 20.1136 358.308 19.9964 357.937 19.7621C357.567 19.5277 357.279 19.1998 357.07 18.7784C356.864 18.357 356.761 17.8646 356.761 17.3011C356.761 16.733 356.864 16.237 357.07 15.8132C357.279 15.3894 357.567 15.0604 357.937 14.826C358.308 14.5916 358.741 14.4744 359.233 14.4744C359.725 14.4744 360.156 14.5916 360.526 14.826C360.897 15.0604 361.186 15.3894 361.392 15.8132C361.6 16.237 361.705 16.733 361.705 17.3011C361.705 17.8646 361.6 18.357 361.392 18.7784C361.186 19.1998 360.897 19.5277 360.526 19.7621C360.156 19.9964 359.725 20.1136 359.233 20.1136ZM359.233 19.3608C359.607 19.3608 359.915 19.2649 360.156 19.0732C360.398 18.8814 360.576 18.6293 360.692 18.3168C360.808 18.0043 360.866 17.6657 360.866 17.3011C360.866 16.9366 360.808 16.5968 360.692 16.282C360.576 15.9671 360.398 15.7126 360.156 15.5185C359.915 15.3243 359.607 15.2273 359.233 15.2273C358.859 15.2273 358.551 15.3243 358.31 15.5185C358.068 15.7126 357.889 15.9671 357.773 16.282C357.657 16.5968 357.599 16.9366 357.599 17.3011C357.599 17.6657 357.657 18.0043 357.773 18.3168C357.889 18.6293 358.068 18.8814 358.31 19.0732C358.551 19.2649 358.859 19.3608 359.233 19.3608ZM365.2 20.1136C364.707 20.1136 364.275 19.9964 363.904 19.7621C363.534 19.5277 363.245 19.1998 363.037 18.7784C362.831 18.357 362.728 17.8646 362.728 17.3011C362.728 16.733 362.831 16.237 363.037 15.8132C363.245 15.3894 363.534 15.0604 363.904 14.826C364.275 14.5916 364.707 14.4744 365.2 14.4744C365.692 14.4744 366.123 14.5916 366.492 14.826C366.864 15.0604 367.153 15.3894 367.359 15.8132C367.567 16.237 367.671 16.733 367.671 17.3011C367.671 17.8646 367.567 18.357 367.359 18.7784C367.153 19.1998 366.864 19.5277 366.492 19.7621C366.123 19.9964 365.692 20.1136 365.2 20.1136ZM365.2 19.3608C365.574 19.3608 365.882 19.2649 366.123 19.0732C366.365 18.8814 366.543 18.6293 366.659 18.3168C366.775 18.0043 366.833 17.6657 366.833 17.3011C366.833 16.9366 366.775 16.5968 366.659 16.282C366.543 15.9671 366.365 15.7126 366.123 15.5185C365.882 15.3243 365.574 15.2273 365.2 15.2273C364.826 15.2273 364.518 15.3243 364.276 15.5185C364.035 15.7126 363.856 15.9671 363.74 16.282C363.624 16.5968 363.566 16.9366 363.566 17.3011C363.566 17.6657 363.624 18.0043 363.74 18.3168C363.856 18.6293 364.035 18.8814 364.276 19.0732C364.518 19.2649 364.826 19.3608 365.2 19.3608ZM368.951 20V14.5455H369.76V15.3977H369.831C369.945 15.1065 370.128 14.8804 370.382 14.7195C370.635 14.5561 370.939 14.4744 371.294 14.4744C371.654 14.4744 371.954 14.5561 372.193 14.7195C372.434 14.8804 372.623 15.1065 372.757 15.3977H372.814C372.954 15.116 373.163 14.8923 373.443 14.7266C373.722 14.5585 374.057 14.4744 374.448 14.4744C374.935 14.4744 375.334 14.6271 375.645 14.9325C375.955 15.2356 376.11 15.7079 376.11 16.3494V20H375.272V16.3494C375.272 15.947 375.162 15.6593 374.941 15.4865C374.721 15.3137 374.462 15.2273 374.164 15.2273C373.78 15.2273 373.483 15.3433 373.272 15.5753C373.062 15.8049 372.956 16.0961 372.956 16.4489V20H372.104V16.2642C372.104 15.9541 372.003 15.7043 371.802 15.5149C371.601 15.3232 371.342 15.2273 371.025 15.2273C370.807 15.2273 370.603 15.2853 370.414 15.4013C370.227 15.5173 370.075 15.6783 369.959 15.8842C369.846 16.0878 369.789 16.3234 369.789 16.5909V20H368.951Z" fill="var(--colors-neutral-neutral-700)"/>
<path d="M423.733 15H422.852C422.8 14.7467 422.709 14.5241 422.579 14.3324C422.451 14.1406 422.295 13.9796 422.11 13.8494C421.928 13.7169 421.725 13.6174 421.503 13.5511C421.28 13.4848 421.048 13.4517 420.807 13.4517C420.366 13.4517 419.968 13.563 419.61 13.7855C419.255 14.008 418.972 14.3359 418.761 14.7692C418.553 15.2024 418.449 15.7339 418.449 16.3636C418.449 16.9934 418.553 17.5249 418.761 17.9581C418.972 18.3913 419.255 18.7192 419.61 18.9418C419.968 19.1643 420.366 19.2756 420.807 19.2756C421.048 19.2756 421.28 19.2424 421.503 19.1761C421.725 19.1098 421.928 19.0116 422.11 18.8814C422.295 18.7488 422.451 18.5866 422.579 18.3949C422.709 18.2008 422.8 17.9782 422.852 17.7273H423.733C423.667 18.099 423.546 18.4316 423.371 18.7251C423.196 19.0187 422.978 19.2685 422.717 19.4744C422.457 19.678 422.165 19.8331 421.84 19.9396C421.518 20.0462 421.174 20.0994 420.807 20.0994C420.187 20.0994 419.635 19.9479 419.152 19.6449C418.669 19.3419 418.289 18.911 418.012 18.3523C417.735 17.7936 417.597 17.1307 417.597 16.3636C417.597 15.5966 417.735 14.9337 418.012 14.375C418.289 13.8163 418.669 13.3854 419.152 13.0824C419.635 12.7794 420.187 12.6278 420.807 12.6278C421.174 12.6278 421.518 12.6811 421.84 12.7876C422.165 12.8942 422.457 13.0504 422.717 13.2564C422.978 13.46 423.196 13.7086 423.371 14.0021C423.546 14.2933 423.667 14.6259 423.733 15ZM428.48 17.7699V14.5455H429.318V20H428.48V19.0767H428.423C428.295 19.3537 428.096 19.5893 427.827 19.7834C427.557 19.9751 427.216 20.071 426.804 20.071C426.463 20.071 426.16 19.9964 425.895 19.8473C425.63 19.6958 425.421 19.4685 425.27 19.1655C425.118 18.8601 425.042 18.4754 425.042 18.0114V14.5455H425.881V17.9545C425.881 18.3523 425.992 18.6695 426.214 18.9062C426.439 19.143 426.726 19.2614 427.074 19.2614C427.282 19.2614 427.494 19.2081 427.709 19.1016C427.927 18.995 428.109 18.8317 428.256 18.6115C428.405 18.3913 428.48 18.1108 428.48 17.7699ZM430.853 20V14.5455H431.663V15.3693H431.719C431.819 15.0994 431.999 14.8804 432.259 14.7124C432.52 14.5443 432.813 14.4602 433.14 14.4602C433.201 14.4602 433.278 14.4614 433.371 14.4638C433.463 14.4661 433.533 14.4697 433.58 14.4744V15.3267C433.552 15.3196 433.487 15.3089 433.385 15.2947C433.286 15.2782 433.18 15.2699 433.069 15.2699C432.804 15.2699 432.567 15.3255 432.359 15.4368C432.153 15.5457 431.989 15.6972 431.869 15.8913C431.75 16.0831 431.691 16.3021 431.691 16.5483V20H430.853ZM438.437 15.767L437.684 15.9801C437.637 15.8546 437.567 15.7327 437.475 15.6143C437.385 15.4936 437.262 15.3942 437.106 15.3161C436.949 15.2379 436.749 15.1989 436.506 15.1989C436.172 15.1989 435.894 15.2758 435.671 15.4297C435.451 15.5812 435.341 15.7741 435.341 16.0085C435.341 16.2169 435.416 16.3814 435.568 16.5021C435.72 16.6229 435.956 16.7235 436.278 16.804L437.088 17.0028C437.576 17.1212 437.939 17.3023 438.178 17.5462C438.417 17.7876 438.537 18.099 438.537 18.4801C438.537 18.7926 438.447 19.072 438.267 19.3182C438.089 19.5644 437.841 19.7585 437.521 19.9006C437.202 20.0426 436.83 20.1136 436.406 20.1136C435.85 20.1136 435.389 19.9929 435.025 19.7514C434.66 19.5099 434.429 19.1572 434.332 18.6932L435.128 18.4943C435.203 18.7879 435.347 19.008 435.557 19.1548C435.77 19.3016 436.049 19.375 436.392 19.375C436.782 19.375 437.093 19.2921 437.322 19.1264C437.554 18.9583 437.67 18.7571 437.67 18.5227C437.67 18.3333 437.604 18.1747 437.471 18.0469C437.339 17.9167 437.135 17.8196 436.861 17.7557L435.952 17.5426C435.452 17.4242 435.085 17.2408 434.851 16.9922C434.619 16.7412 434.503 16.4276 434.503 16.0511C434.503 15.7434 434.589 15.4711 434.762 15.2344C434.937 14.9976 435.175 14.8118 435.476 14.6768C435.779 14.5419 436.122 14.4744 436.506 14.4744C437.045 14.4744 437.469 14.5928 437.777 14.8295C438.087 15.0663 438.307 15.3788 438.437 15.767ZM442.014 20.1136C441.522 20.1136 441.09 19.9964 440.718 19.7621C440.349 19.5277 440.06 19.1998 439.852 18.7784C439.646 18.357 439.543 17.8646 439.543 17.3011C439.543 16.733 439.646 16.237 439.852 15.8132C440.06 15.3894 440.349 15.0604 440.718 14.826C441.09 14.5916 441.522 14.4744 442.014 14.4744C442.507 14.4744 442.938 14.5916 443.307 14.826C443.679 15.0604 443.967 15.3894 444.173 15.8132C444.382 16.237 444.486 16.733 444.486 17.3011C444.486 17.8646 444.382 18.357 444.173 18.7784C443.967 19.1998 443.679 19.5277 443.307 19.7621C442.938 19.9964 442.507 20.1136 442.014 20.1136ZM442.014 19.3608C442.388 19.3608 442.696 19.2649 442.938 19.0732C443.179 18.8814 443.358 18.6293 443.474 18.3168C443.59 18.0043 443.648 17.6657 443.648 17.3011C443.648 16.9366 443.59 16.5968 443.474 16.282C443.358 15.9671 443.179 15.7126 442.938 15.5185C442.696 15.3243 442.388 15.2273 442.014 15.2273C441.64 15.2273 441.332 15.3243 441.091 15.5185C440.849 15.7126 440.671 15.9671 440.555 16.282C440.439 16.5968 440.381 16.9366 440.381 17.3011C440.381 17.6657 440.439 18.0043 440.555 18.3168C440.671 18.6293 440.849 18.8814 441.091 19.0732C441.332 19.2649 441.64 19.3608 442.014 19.3608ZM445.765 20V14.5455H446.575V15.3693H446.632C446.731 15.0994 446.911 14.8804 447.171 14.7124C447.432 14.5443 447.725 14.4602 448.052 14.4602C448.114 14.4602 448.191 14.4614 448.283 14.4638C448.375 14.4661 448.445 14.4697 448.492 14.4744V15.3267C448.464 15.3196 448.399 15.3089 448.297 15.2947C448.198 15.2782 448.092 15.2699 447.981 15.2699C447.716 15.2699 447.479 15.3255 447.271 15.4368C447.065 15.5457 446.901 15.6972 446.781 15.8913C446.662 16.0831 446.603 16.3021 446.603 16.5483V20H445.765Z" fill="var(--colors-neutral-neutral-700)"/>
<path d="M497.881 20V12.7273H502.27V13.5085H498.761V15.9659H502.043V16.7472H498.761V19.2188H502.327V20H497.881ZM505.803 20.1136C505.349 20.1136 504.947 19.9988 504.599 19.7692C504.251 19.5372 503.979 19.2105 503.783 18.7891C503.586 18.3653 503.488 17.8646 503.488 17.2869C503.488 16.714 503.586 16.2169 503.783 15.7955C503.979 15.3741 504.253 15.0485 504.603 14.8189C504.953 14.5893 505.358 14.4744 505.817 14.4744C506.173 14.4744 506.453 14.5336 506.659 14.652C506.867 14.768 507.026 14.9006 507.135 15.0497C507.246 15.1965 507.333 15.3172 507.394 15.4119H507.465V12.7273H508.303V20H507.494V19.1619H507.394C507.333 19.2614 507.245 19.3868 507.131 19.5384C507.018 19.6875 506.856 19.8213 506.645 19.9396C506.434 20.0556 506.154 20.1136 505.803 20.1136ZM505.917 19.3608C506.253 19.3608 506.537 19.2732 506.769 19.098C507.001 18.9205 507.178 18.6754 507.298 18.3629C507.419 18.0481 507.479 17.6847 507.479 17.2727C507.479 16.8655 507.42 16.5092 507.302 16.2038C507.183 15.8961 507.008 15.657 506.776 15.4865C506.544 15.3137 506.258 15.2273 505.917 15.2273C505.562 15.2273 505.266 15.3184 505.029 15.5007C504.795 15.6806 504.618 15.9257 504.5 16.2358C504.384 16.5436 504.326 16.8892 504.326 17.2727C504.326 17.661 504.385 18.0137 504.504 18.331C504.624 18.6458 504.802 18.8968 505.036 19.0838C505.273 19.2685 505.567 19.3608 505.917 19.3608ZM509.955 20V14.5455H510.793V20H509.955ZM510.381 13.6364C510.217 13.6364 510.076 13.5807 509.958 13.4695C509.842 13.3582 509.784 13.2244 509.784 13.0682C509.784 12.9119 509.842 12.7782 509.958 12.6669C510.076 12.5556 510.217 12.5 510.381 12.5C510.544 12.5 510.684 12.5556 510.8 12.6669C510.918 12.7782 510.977 12.9119 510.977 13.0682C510.977 13.2244 510.918 13.3582 510.8 13.4695C510.684 13.5807 510.544 13.6364 510.381 13.6364ZM514.7 14.5455V15.2557H511.873V14.5455H514.7ZM512.697 13.2386H513.535V18.4375C513.535 18.6742 513.569 18.8518 513.638 18.9702C513.709 19.0862 513.799 19.1643 513.908 19.2045C514.019 19.2424 514.136 19.2614 514.259 19.2614C514.352 19.2614 514.427 19.2566 514.487 19.2472C514.546 19.2353 514.593 19.2259 514.629 19.2188L514.799 19.9716C514.742 19.9929 514.663 20.0142 514.561 20.0355C514.459 20.0592 514.33 20.071 514.174 20.071C513.937 20.071 513.705 20.0201 513.478 19.9183C513.253 19.8165 513.066 19.6615 512.917 19.4531C512.77 19.2448 512.697 18.982 512.697 18.6648V13.2386Z" fill="var(--colors-neutral-neutral-700)"/>
<path d="M212.881 71.5V64.2273H215.338C215.906 64.2273 216.373 64.3243 216.737 64.5185C217.102 64.7102 217.372 64.9742 217.547 65.3104C217.722 65.6465 217.81 66.0289 217.81 66.4574C217.81 66.8859 217.722 67.2659 217.547 67.5973C217.372 67.9287 217.103 68.1892 216.741 68.3786C216.379 68.5656 215.916 68.6591 215.352 68.6591H213.364V67.8636H215.324C215.712 67.8636 216.025 67.8068 216.261 67.6932C216.5 67.5795 216.673 67.4186 216.78 67.2102C216.889 66.9995 216.943 66.7486 216.943 66.4574C216.943 66.1662 216.889 65.9117 216.78 65.6939C216.671 65.4761 216.497 65.308 216.258 65.1896C216.019 65.0689 215.703 65.0085 215.31 65.0085H213.761V71.5H212.881ZM216.304 68.233L218.094 71.5H217.071L215.31 68.233H216.304ZM222.601 69.2699V66.0455H223.439V71.5H222.601V70.5767H222.544C222.416 70.8537 222.218 71.0893 221.948 71.2834C221.678 71.4751 221.337 71.571 220.925 71.571C220.584 71.571 220.281 71.4964 220.016 71.3473C219.751 71.1958 219.542 70.9685 219.391 70.6655C219.239 70.3601 219.164 69.9754 219.164 69.5114V66.0455H220.002V69.4545C220.002 69.8523 220.113 70.1695 220.335 70.4062C220.56 70.643 220.847 70.7614 221.195 70.7614C221.403 70.7614 221.615 70.7081 221.83 70.6016C222.048 70.495 222.231 70.3317 222.377 70.1115C222.526 69.8913 222.601 69.6108 222.601 69.2699ZM225.812 64.2273V71.5H224.974V64.2273H225.812ZM229.634 71.6136C229.108 71.6136 228.655 71.4976 228.274 71.2656C227.895 71.0312 227.603 70.7045 227.397 70.2855C227.193 69.8641 227.091 69.3741 227.091 68.8153C227.091 68.2566 227.193 67.7642 227.397 67.3381C227.603 66.9096 227.889 66.5758 228.256 66.3366C228.626 66.0952 229.056 65.9744 229.549 65.9744C229.833 65.9744 230.113 66.0218 230.39 66.1165C230.667 66.2112 230.92 66.3651 231.147 66.5781C231.374 66.7888 231.555 67.0682 231.69 67.4162C231.825 67.7642 231.893 68.1927 231.893 68.7017V69.0568H227.688V68.3324H231.04C231.04 68.0246 230.979 67.75 230.856 67.5085C230.735 67.267 230.562 67.0765 230.337 66.9368C230.115 66.7971 229.852 66.7273 229.549 66.7273C229.215 66.7273 228.926 66.8101 228.682 66.9759C228.441 67.1392 228.255 67.3523 228.125 67.6151C227.995 67.8778 227.93 68.1596 227.93 68.4602V68.9432C227.93 69.3551 228.001 69.7043 228.143 69.9908C228.287 70.2749 228.487 70.4915 228.743 70.6406C228.998 70.7874 229.296 70.8608 229.634 70.8608C229.854 70.8608 230.053 70.83 230.231 70.7685C230.411 70.7045 230.566 70.6098 230.696 70.4844C230.826 70.3565 230.927 70.1979 230.998 70.0085L231.807 70.2358C231.722 70.5104 231.579 70.7519 231.378 70.9602C231.176 71.1662 230.928 71.3272 230.632 71.4432C230.336 71.5568 230.003 71.6136 229.634 71.6136ZM233.167 71.5V66.0455H233.977V66.8693H234.034C234.133 66.5994 234.313 66.3804 234.574 66.2124C234.834 66.0443 235.128 65.9602 235.454 65.9602C235.516 65.9602 235.593 65.9614 235.685 65.9638C235.778 65.9661 235.847 65.9697 235.895 65.9744V66.8267C235.866 66.8196 235.801 66.8089 235.699 66.7947C235.6 66.7782 235.495 66.7699 235.383 66.7699C235.118 66.7699 234.881 66.8255 234.673 66.9368C234.467 67.0457 234.304 67.1972 234.183 67.3913C234.065 67.5831 234.006 67.8021 234.006 68.0483V71.5H233.167ZM240.752 67.267L239.999 67.4801C239.952 67.3546 239.882 67.2327 239.789 67.1143C239.699 66.9936 239.576 66.8942 239.42 66.8161C239.264 66.7379 239.064 66.6989 238.82 66.6989C238.486 66.6989 238.208 66.7758 237.985 66.9297C237.765 67.0812 237.655 67.2741 237.655 67.5085C237.655 67.7169 237.731 67.8814 237.882 68.0021C238.034 68.1229 238.271 68.2235 238.593 68.304L239.402 68.5028C239.89 68.6212 240.253 68.8023 240.493 69.0462C240.732 69.2876 240.851 69.599 240.851 69.9801C240.851 70.2926 240.761 70.572 240.581 70.8182C240.404 71.0644 240.155 71.2585 239.836 71.4006C239.516 71.5426 239.144 71.6136 238.721 71.6136C238.164 71.6136 237.704 71.4929 237.339 71.2514C236.975 71.0099 236.744 70.6572 236.647 70.1932L237.442 69.9943C237.518 70.2879 237.661 70.508 237.872 70.6548C238.085 70.8016 238.363 70.875 238.706 70.875C239.097 70.875 239.407 70.7921 239.637 70.6264C239.869 70.4583 239.985 70.2571 239.985 70.0227C239.985 69.8333 239.918 69.6747 239.786 69.5469C239.653 69.4167 239.45 69.3196 239.175 69.2557L238.266 69.0426C237.766 68.9242 237.4 68.7408 237.165 68.4922C236.933 68.2412 236.817 67.9276 236.817 67.5511C236.817 67.2434 236.904 66.9711 237.076 66.7344C237.252 66.4976 237.489 66.3118 237.79 66.1768C238.093 66.0419 238.436 65.9744 238.82 65.9744C239.36 65.9744 239.783 66.0928 240.091 66.3295C240.401 66.5663 240.622 66.8788 240.752 67.267Z" fill="var(--colors-neutral-neutral-800)"/>
<rect x="402.5" y="57.5" width="22" height="21" rx="1.5" stroke="var(--colors-neutral-neutral-700)"/>
<path d="M410.881 71.5V64.2273H413.338C413.906 64.2273 414.373 64.3243 414.737 64.5185C415.102 64.7102 415.372 64.9742 415.547 65.3104C415.722 65.6465 415.81 66.0289 415.81 66.4574C415.81 66.8859 415.722 67.2659 415.547 67.5973C415.372 67.9287 415.103 68.1892 414.741 68.3786C414.379 68.5656 413.916 68.6591 413.352 68.6591H411.364V67.8636H413.324C413.712 67.8636 414.025 67.8068 414.261 67.6932C414.5 67.5795 414.673 67.4186 414.78 67.2102C414.889 66.9995 414.943 66.7486 414.943 66.4574C414.943 66.1662 414.889 65.9117 414.78 65.6939C414.671 65.4761 414.497 65.308 414.258 65.1896C414.019 65.0689 413.703 65.0085 413.31 65.0085H411.761V71.5H410.881ZM414.304 68.233L416.094 71.5H415.071L413.31 68.233H414.304Z" fill="var(--colors-neutral-neutral-700)"/>
<path d="M215.21 109.599C214.741 109.599 214.324 109.519 213.957 109.358C213.592 109.197 213.302 108.973 213.087 108.687C212.874 108.398 212.758 108.063 212.739 107.682H213.634C213.652 107.916 213.733 108.119 213.875 108.289C214.017 108.457 214.203 108.587 214.433 108.68C214.662 108.772 214.917 108.818 215.196 108.818C215.509 108.818 215.786 108.764 216.027 108.655C216.268 108.546 216.458 108.394 216.595 108.2C216.732 108.006 216.801 107.781 216.801 107.526C216.801 107.258 216.735 107.022 216.602 106.819C216.47 106.613 216.276 106.452 216.02 106.336C215.764 106.22 215.452 106.162 215.082 106.162H214.5V105.381H215.082C215.371 105.381 215.625 105.329 215.842 105.224C216.063 105.12 216.234 104.973 216.357 104.784C216.483 104.595 216.545 104.372 216.545 104.116C216.545 103.87 216.491 103.656 216.382 103.474C216.273 103.291 216.119 103.149 215.92 103.048C215.724 102.946 215.492 102.895 215.224 102.895C214.973 102.895 214.737 102.941 214.514 103.033C214.294 103.123 214.114 103.255 213.974 103.428C213.835 103.598 213.759 103.804 213.747 104.045H212.895C212.909 103.664 213.024 103.33 213.239 103.044C213.455 102.755 213.737 102.53 214.085 102.369C214.435 102.208 214.82 102.128 215.239 102.128C215.688 102.128 216.074 102.219 216.396 102.401C216.718 102.581 216.966 102.819 217.138 103.115C217.311 103.411 217.398 103.731 217.398 104.074C217.398 104.483 217.29 104.833 217.075 105.121C216.862 105.41 216.571 105.61 216.205 105.722V105.778C216.664 105.854 217.022 106.049 217.281 106.364C217.539 106.677 217.668 107.064 217.668 107.526C217.668 107.921 217.56 108.276 217.344 108.591C217.131 108.903 216.84 109.15 216.471 109.33C216.102 109.509 215.681 109.599 215.21 109.599ZM221.492 109.5H219.248V102.227H221.592C222.297 102.227 222.901 102.373 223.403 102.664C223.905 102.953 224.289 103.368 224.557 103.911C224.824 104.45 224.958 105.097 224.958 105.849C224.958 106.607 224.823 107.259 224.553 107.806C224.283 108.351 223.89 108.77 223.374 109.063C222.858 109.354 222.231 109.5 221.492 109.5ZM220.129 108.719H221.435C222.037 108.719 222.535 108.603 222.93 108.371C223.326 108.139 223.621 107.808 223.815 107.38C224.009 106.951 224.106 106.441 224.106 105.849C224.106 105.262 224.01 104.757 223.818 104.333C223.626 103.907 223.34 103.58 222.959 103.353C222.578 103.123 222.103 103.009 221.535 103.009H220.129V108.719Z" fill="var(--colors-neutral-neutral-800)"/>
<rect x="360.5" y="95.5" width="37" height="21" rx="1.5" stroke="var(--colors-neutral-neutral-700)"/>
<path d="M372.858 104.045C372.815 103.686 372.643 103.406 372.339 103.207C372.036 103.009 371.665 102.909 371.224 102.909C370.902 102.909 370.621 102.961 370.379 103.065C370.14 103.17 369.953 103.313 369.818 103.495C369.686 103.677 369.619 103.884 369.619 104.116C369.619 104.311 369.665 104.478 369.758 104.617C369.853 104.754 369.973 104.869 370.12 104.962C370.267 105.052 370.421 105.126 370.582 105.185C370.743 105.242 370.891 105.288 371.026 105.324L371.764 105.523C371.954 105.572 372.164 105.641 372.396 105.729C372.631 105.816 372.854 105.936 373.067 106.087C373.283 106.237 373.46 106.428 373.6 106.663C373.74 106.897 373.81 107.185 373.81 107.526C373.81 107.919 373.707 108.274 373.501 108.591C373.297 108.908 372.999 109.16 372.606 109.347C372.215 109.534 371.741 109.628 371.182 109.628C370.661 109.628 370.21 109.544 369.829 109.376C369.45 109.208 369.152 108.973 368.934 108.673C368.719 108.372 368.597 108.023 368.568 107.625H369.477C369.501 107.9 369.593 108.127 369.754 108.307C369.918 108.484 370.124 108.617 370.372 108.705C370.623 108.79 370.893 108.832 371.182 108.832C371.518 108.832 371.82 108.778 372.087 108.669C372.355 108.558 372.567 108.404 372.723 108.207C372.879 108.009 372.957 107.777 372.957 107.511C372.957 107.27 372.89 107.073 372.755 106.922C372.62 106.77 372.442 106.647 372.222 106.553C372.002 106.458 371.764 106.375 371.509 106.304L370.614 106.048C370.045 105.885 369.596 105.652 369.264 105.349C368.933 105.046 368.767 104.649 368.767 104.159C368.767 103.752 368.877 103.397 369.097 103.094C369.32 102.788 369.618 102.552 369.992 102.384C370.369 102.213 370.789 102.128 371.253 102.128C371.722 102.128 372.138 102.212 372.503 102.38C372.867 102.546 373.156 102.773 373.369 103.062C373.585 103.351 373.698 103.679 373.71 104.045H372.858ZM375.982 106.219V109.5H375.144V102.227H375.982V104.898H376.053C376.181 104.616 376.373 104.392 376.628 104.227C376.886 104.058 377.23 103.974 377.658 103.974C378.03 103.974 378.355 104.049 378.635 104.198C378.914 104.345 379.131 104.571 379.285 104.876C379.441 105.179 379.519 105.565 379.519 106.034V109.5H378.681V106.091C378.681 105.658 378.568 105.323 378.344 105.086C378.121 104.847 377.812 104.727 377.417 104.727C377.142 104.727 376.896 104.785 376.678 104.901C376.463 105.017 376.292 105.187 376.167 105.409C376.044 105.632 375.982 105.902 375.982 106.219ZM381.052 109.5V104.045H381.89V109.5H381.052ZM381.478 103.136C381.315 103.136 381.174 103.081 381.056 102.969C380.94 102.858 380.882 102.724 380.882 102.568C380.882 102.412 380.94 102.278 381.056 102.167C381.174 102.056 381.315 102 381.478 102C381.642 102 381.781 102.056 381.897 102.167C382.016 102.278 382.075 102.412 382.075 102.568C382.075 102.724 382.016 102.858 381.897 102.969C381.781 103.081 381.642 103.136 381.478 103.136ZM385.854 104.045V104.756H382.914V104.045H385.854ZM383.795 109.5V103.293C383.795 102.98 383.868 102.72 384.015 102.511C384.162 102.303 384.352 102.147 384.586 102.043C384.821 101.938 385.068 101.886 385.329 101.886C385.535 101.886 385.703 101.903 385.833 101.936C385.963 101.969 386.06 102 386.124 102.028L385.883 102.753C385.84 102.739 385.781 102.721 385.705 102.7C385.632 102.678 385.535 102.668 385.414 102.668C385.137 102.668 384.937 102.737 384.814 102.877C384.693 103.017 384.633 103.222 384.633 103.491V109.5H383.795ZM389.401 104.045V104.756H386.574V104.045H389.401ZM387.398 102.739H388.236V107.938C388.236 108.174 388.27 108.352 388.339 108.47C388.41 108.586 388.5 108.664 388.609 108.705C388.72 108.742 388.837 108.761 388.961 108.761C389.053 108.761 389.129 108.757 389.188 108.747C389.247 108.735 389.294 108.726 389.33 108.719L389.5 109.472C389.444 109.493 389.364 109.514 389.262 109.536C389.161 109.559 389.032 109.571 388.875 109.571C388.639 109.571 388.407 109.52 388.179 109.418C387.954 109.317 387.767 109.161 387.618 108.953C387.471 108.745 387.398 108.482 387.398 108.165V102.739Z" fill="var(--colors-neutral-neutral-700)"/>
<rect x="402.5" y="95.5" width="22" height="21" rx="1.5" stroke="var(--colors-neutral-neutral-700)"/>
<path d="M413.21 109.599C412.741 109.599 412.324 109.519 411.957 109.358C411.592 109.197 411.302 108.973 411.087 108.687C410.874 108.398 410.758 108.063 410.739 107.682H411.634C411.652 107.916 411.733 108.119 411.875 108.289C412.017 108.457 412.203 108.587 412.433 108.68C412.662 108.772 412.917 108.818 413.196 108.818C413.509 108.818 413.786 108.764 414.027 108.655C414.268 108.546 414.458 108.394 414.595 108.2C414.732 108.006 414.801 107.781 414.801 107.526C414.801 107.258 414.735 107.022 414.602 106.819C414.47 106.613 414.276 106.452 414.02 106.336C413.764 106.22 413.452 106.162 413.082 106.162H412.5V105.381H413.082C413.371 105.381 413.625 105.329 413.842 105.224C414.063 105.12 414.234 104.973 414.357 104.784C414.483 104.595 414.545 104.372 414.545 104.116C414.545 103.87 414.491 103.656 414.382 103.474C414.273 103.291 414.119 103.149 413.92 103.048C413.724 102.946 413.492 102.895 413.224 102.895C412.973 102.895 412.737 102.941 412.514 103.033C412.294 103.123 412.114 103.255 411.974 103.428C411.835 103.598 411.759 103.804 411.747 104.045H410.895C410.909 103.664 411.024 103.33 411.239 103.044C411.455 102.755 411.737 102.53 412.085 102.369C412.435 102.208 412.82 102.128 413.239 102.128C413.688 102.128 414.074 102.219 414.396 102.401C414.718 102.581 414.966 102.819 415.138 103.115C415.311 103.411 415.398 103.731 415.398 104.074C415.398 104.483 415.29 104.833 415.075 105.121C414.862 105.41 414.571 105.61 414.205 105.722V105.778C414.664 105.854 415.022 106.049 415.281 106.364C415.539 106.677 415.668 107.064 415.668 107.526C415.668 107.921 415.56 108.276 415.344 108.591C415.131 108.903 414.84 109.15 414.471 109.33C414.102 109.509 413.681 109.599 413.21 109.599Z" fill="var(--colors-neutral-neutral-700)"/>
<rect x="264" y="32" width="65" height="1" fill="white"/>
<path d="M1406.4 22.3077L1405.69 21.6L1411.29 16L1405.69 10.4L1406.4 9.69226L1412 15.2923L1417.6 9.69226L1418.31 10.4L1412.71 16L1418.31 21.6L1417.6 22.3077L1412 16.7077L1406.4 22.3077Z" fill="var(--colors-neutral-neutral-800)"/>
</svg>
