<svg width="304" height="357" viewBox="0 0 304 357" fill="none" xmlns="http://www.w3.org/2000/svg">
<rect x="0.5" y="0.5" width="303" height="355" stroke="var(--colors-neutral-neutral-400)"/>
<mask id="path-2-inside-1_3815_56556" fill="white">
<path d="M0 0H304V52H0V0Z"/>
</mask>
<path d="M304 51H0V53H304V51Z" fill="var(--colors-neutral-neutral-400)" mask="url(#path-2-inside-1_3815_56556)"/>
<path d="M20.02 30.144C19.372 30.144 18.808 30.02 18.328 29.772C17.848 29.524 17.476 29.168 17.212 28.704C16.948 28.24 16.816 27.676 16.816 27.012H18.076C18.076 27.668 18.248 28.176 18.592 28.536C18.936 28.888 19.408 29.064 20.008 29.064C20.52 29.064 20.932 28.948 21.244 28.716C21.556 28.476 21.712 28.144 21.712 27.72C21.712 27.432 21.624 27.2 21.448 27.024C21.28 26.848 21.052 26.704 20.764 26.592C20.484 26.48 20.176 26.38 19.84 26.292C19.504 26.204 19.164 26.108 18.82 26.004C18.484 25.892 18.172 25.752 17.884 25.584C17.604 25.416 17.376 25.192 17.2 24.912C17.032 24.632 16.948 24.276 16.948 23.844C16.948 23.388 17.068 22.984 17.308 22.632C17.556 22.272 17.896 21.992 18.328 21.792C18.768 21.584 19.284 21.48 19.876 21.48C20.452 21.48 20.968 21.588 21.424 21.804C21.88 22.012 22.244 22.312 22.516 22.704C22.796 23.088 22.94 23.552 22.948 24.096H21.676C21.668 23.776 21.58 23.504 21.412 23.28C21.252 23.048 21.036 22.872 20.764 22.752C20.5 22.624 20.204 22.56 19.876 22.56C19.404 22.56 19.02 22.672 18.724 22.896C18.428 23.12 18.28 23.424 18.28 23.808C18.28 24.08 18.364 24.296 18.532 24.456C18.708 24.616 18.936 24.748 19.216 24.852C19.504 24.948 19.816 25.04 20.152 25.128C20.496 25.208 20.836 25.304 21.172 25.416C21.508 25.52 21.816 25.664 22.096 25.848C22.384 26.024 22.612 26.264 22.78 26.568C22.956 26.864 23.044 27.244 23.044 27.708C23.044 28.204 22.912 28.636 22.648 29.004C22.384 29.364 22.024 29.644 21.568 29.844C21.112 30.044 20.596 30.144 20.02 30.144ZM27.5367 30.144C26.8567 30.144 26.2687 30.008 25.7727 29.736C25.2767 29.456 24.8967 29.06 24.6327 28.548C24.3687 28.028 24.2367 27.408 24.2367 26.688C24.2367 25.968 24.3687 25.352 24.6327 24.84C24.9047 24.328 25.2887 23.936 25.7847 23.664C26.2887 23.392 26.8887 23.256 27.5847 23.256C28.6487 23.256 29.4407 23.552 29.9607 24.144C30.4807 24.728 30.7087 25.532 30.6447 26.556H25.1967L25.2087 25.644L29.4087 25.656C29.3767 25.232 29.1927 24.892 28.8567 24.636C28.5207 24.38 28.0967 24.252 27.5847 24.252C26.8967 24.252 26.3687 24.468 26.0007 24.9C25.6327 25.332 25.4487 25.944 25.4487 26.736C25.4487 27.208 25.5287 27.628 25.6887 27.996C25.8567 28.356 26.0967 28.636 26.4087 28.836C26.7207 29.036 27.0967 29.136 27.5367 29.136C28.0567 29.136 28.4887 29.012 28.8327 28.764C29.1847 28.516 29.4007 28.18 29.4807 27.756H30.6927C30.5887 28.5 30.2567 29.084 29.6967 29.508C29.1367 29.932 28.4167 30.144 27.5367 30.144ZM35.5694 30C35.1614 30 34.8134 29.92 34.5254 29.76C34.2374 29.592 34.0214 29.356 33.8774 29.052C33.7334 28.748 33.6614 28.392 33.6614 27.984V22.152L34.8734 21.492V27.984C34.8734 28.176 34.9014 28.352 34.9574 28.512C35.0134 28.672 35.1214 28.796 35.2814 28.884C35.4494 28.972 35.6934 29.016 36.0134 29.016H37.9934V30H35.5694ZM32.1014 24.384V23.4H36.9374V24.384H32.1014ZM40.7581 23.4V27.564C40.7581 28.028 40.8901 28.404 41.1541 28.692C41.4181 28.972 41.7621 29.112 42.1861 29.112C42.6741 29.112 43.1061 28.936 43.4821 28.584C43.8661 28.224 44.1701 27.668 44.3941 26.916L44.5861 28.272C44.3381 28.896 43.9781 29.364 43.5061 29.676C43.0421 29.988 42.5341 30.144 41.9821 30.144C41.4861 30.144 41.0541 30.04 40.6861 29.832C40.3261 29.616 40.0461 29.32 39.8461 28.944C39.6461 28.568 39.5461 28.124 39.5461 27.612V23.4H40.7581ZM45.4621 23.4V30H44.3101L44.2501 28.512V23.4H45.4621ZM50.5428 23.256C51.1348 23.256 51.6508 23.404 52.0908 23.7C52.5388 23.988 52.8908 24.392 53.1468 24.912C53.4028 25.432 53.5308 26.028 53.5308 26.7C53.5308 27.364 53.4028 27.956 53.1468 28.476C52.8908 28.996 52.5388 29.404 52.0908 29.7C51.6508 29.996 51.1348 30.144 50.5428 30.144C50.0948 30.144 49.6828 30.052 49.3068 29.868C48.9388 29.684 48.6348 29.432 48.3948 29.112V32.136H47.1828V23.4H48.3348L48.3708 24.3C48.6108 23.98 48.9188 23.728 49.2948 23.544C49.6708 23.352 50.0868 23.256 50.5428 23.256ZM50.2788 29.124C50.6868 29.124 51.0428 29.02 51.3468 28.812C51.6508 28.604 51.8868 28.32 52.0548 27.96C52.2228 27.592 52.3068 27.172 52.3068 26.7C52.3068 26.22 52.2228 25.8 52.0548 25.44C51.8868 25.072 51.6508 24.788 51.3468 24.588C51.0428 24.38 50.6868 24.276 50.2788 24.276C49.8628 24.276 49.4828 24.396 49.1388 24.636C48.8028 24.868 48.5548 25.188 48.3948 25.596V27.78C48.5548 28.196 48.8028 28.524 49.1388 28.764C49.4828 29.004 49.8628 29.124 50.2788 29.124Z" fill="var(--colors-neutral-neutral-700)"/>
<path d="M80.104 30V21.624H81.844V28.56H86.008V30H80.104ZM92.1447 30L92.0847 28.704V25.572C92.0847 25.204 91.9567 24.916 91.7007 24.708C91.4447 24.5 91.0927 24.396 90.6447 24.396C90.2047 24.396 89.8487 24.492 89.5767 24.684C89.3047 24.868 89.1487 25.128 89.1087 25.464H87.5127C87.5527 24.992 87.7087 24.588 87.9807 24.252C88.2607 23.916 88.6327 23.66 89.0967 23.484C89.5607 23.3 90.0967 23.208 90.7047 23.208C91.3207 23.208 91.8527 23.304 92.3007 23.496C92.7567 23.688 93.1087 23.968 93.3567 24.336C93.6047 24.696 93.7287 25.14 93.7287 25.668V30H92.1447ZM89.9247 30.144C89.4847 30.144 89.0967 30.06 88.7607 29.892C88.4327 29.724 88.1767 29.492 87.9927 29.196C87.8087 28.9 87.7167 28.556 87.7167 28.164C87.7167 27.484 87.9807 26.956 88.5087 26.58C89.0367 26.196 89.7727 26.004 90.7167 26.004H92.2647V27.168H90.6687C90.2527 27.168 89.9247 27.244 89.6847 27.396C89.4447 27.548 89.3247 27.772 89.3247 28.068C89.3247 28.284 89.4127 28.468 89.5887 28.62C89.7647 28.764 90.0047 28.836 90.3087 28.836C90.7167 28.836 91.0807 28.728 91.4007 28.512C91.7207 28.296 91.9847 28.004 92.1927 27.636L92.3727 28.776C92.1647 29.232 91.8527 29.576 91.4367 29.808C91.0207 30.032 90.5167 30.144 89.9247 30.144ZM97.8974 25.98L98.5094 27.672L99.1214 25.98L100.225 23.352H101.917L98.9294 30.42C98.7374 30.884 98.5174 31.248 98.2694 31.512C98.0294 31.784 97.7534 31.98 97.4414 32.1C97.1374 32.22 96.7854 32.28 96.3854 32.28H95.1734V30.948H96.2294C96.4454 30.948 96.6294 30.896 96.7814 30.792C96.9334 30.696 97.0694 30.56 97.1894 30.384C97.3094 30.208 97.4214 30 97.5254 29.76L97.6574 29.436L95.1014 23.352H96.8054L97.8974 25.98ZM106.314 30.144C105.61 30.144 105.002 30.004 104.49 29.724C103.986 29.444 103.598 29.048 103.326 28.536C103.062 28.016 102.93 27.396 102.93 26.676C102.93 25.956 103.062 25.34 103.326 24.828C103.598 24.308 103.986 23.908 104.49 23.628C105.002 23.348 105.61 23.208 106.314 23.208C107.37 23.208 108.194 23.516 108.786 24.132C109.386 24.748 109.686 25.596 109.686 26.676C109.686 27.396 109.55 28.016 109.278 28.536C109.014 29.048 108.63 29.444 108.126 29.724C107.622 30.004 107.018 30.144 106.314 30.144ZM106.314 28.8C106.85 28.8 107.27 28.612 107.574 28.236C107.886 27.852 108.042 27.332 108.042 26.676C108.042 26.012 107.886 25.492 107.574 25.116C107.27 24.74 106.85 24.552 106.314 24.552C105.77 24.552 105.342 24.74 105.03 25.116C104.726 25.492 104.574 26.012 104.574 26.676C104.574 27.332 104.726 27.852 105.03 28.236C105.342 28.612 105.77 28.8 106.314 28.8ZM112.559 23.352V27.48C112.559 27.864 112.659 28.176 112.859 28.416C113.067 28.648 113.339 28.764 113.675 28.764C114.059 28.764 114.407 28.632 114.719 28.368C115.031 28.096 115.323 27.656 115.595 27.048L115.835 28.56C115.547 29.112 115.183 29.516 114.743 29.772C114.303 30.02 113.839 30.144 113.351 30.144C112.847 30.144 112.411 30.036 112.043 29.82C111.683 29.604 111.403 29.308 111.203 28.932C111.003 28.548 110.903 28.096 110.903 27.576V23.352H112.559ZM117.095 23.352V30H115.511L115.451 28.716V23.352H117.095ZM122.463 30C122.031 30 121.651 29.904 121.323 29.712C121.003 29.52 120.755 29.252 120.579 28.908C120.411 28.564 120.327 28.172 120.327 27.732V22.188L121.983 21.408V27.732C121.983 27.932 122.011 28.104 122.067 28.248C122.123 28.384 122.235 28.488 122.403 28.56C122.571 28.632 122.803 28.668 123.099 28.668H124.887V30H122.463ZM118.935 24.684V23.352H123.747V24.684H118.935Z" fill="var(--colors-neutral-neutral-800)"/>
<path d="M154.02 30.144C153.372 30.144 152.808 30.02 152.328 29.772C151.848 29.524 151.476 29.168 151.212 28.704C150.948 28.24 150.816 27.676 150.816 27.012H152.076C152.076 27.668 152.248 28.176 152.592 28.536C152.936 28.888 153.408 29.064 154.008 29.064C154.52 29.064 154.932 28.948 155.244 28.716C155.556 28.476 155.712 28.144 155.712 27.72C155.712 27.432 155.624 27.2 155.448 27.024C155.28 26.848 155.052 26.704 154.764 26.592C154.484 26.48 154.176 26.38 153.84 26.292C153.504 26.204 153.164 26.108 152.82 26.004C152.484 25.892 152.172 25.752 151.884 25.584C151.604 25.416 151.376 25.192 151.2 24.912C151.032 24.632 150.948 24.276 150.948 23.844C150.948 23.388 151.068 22.984 151.308 22.632C151.556 22.272 151.896 21.992 152.328 21.792C152.768 21.584 153.284 21.48 153.876 21.48C154.452 21.48 154.968 21.588 155.424 21.804C155.88 22.012 156.244 22.312 156.516 22.704C156.796 23.088 156.94 23.552 156.948 24.096H155.676C155.668 23.776 155.58 23.504 155.412 23.28C155.252 23.048 155.036 22.872 154.764 22.752C154.5 22.624 154.204 22.56 153.876 22.56C153.404 22.56 153.02 22.672 152.724 22.896C152.428 23.12 152.28 23.424 152.28 23.808C152.28 24.08 152.364 24.296 152.532 24.456C152.708 24.616 152.936 24.748 153.216 24.852C153.504 24.948 153.816 25.04 154.152 25.128C154.496 25.208 154.836 25.304 155.172 25.416C155.508 25.52 155.816 25.664 156.096 25.848C156.384 26.024 156.612 26.264 156.78 26.568C156.956 26.864 157.044 27.244 157.044 27.708C157.044 28.204 156.912 28.636 156.648 29.004C156.384 29.364 156.024 29.644 155.568 29.844C155.112 30.044 154.596 30.144 154.02 30.144ZM160.925 30V23.4H162.137V30H160.925ZM158.489 30V29.016H164.405V30H158.489ZM159.365 24.384V23.4H161.525V24.384H159.365ZM160.841 22.272V20.964H162.197V22.272H160.841ZM171.213 30V25.176C171.213 24.888 171.161 24.664 171.057 24.504C170.961 24.344 170.809 24.264 170.601 24.264C170.313 24.264 170.053 24.448 169.821 24.816C169.597 25.184 169.441 25.764 169.353 26.556L169.245 25.536C169.269 24.816 169.437 24.256 169.749 23.856C170.069 23.456 170.461 23.256 170.925 23.256C171.357 23.256 171.697 23.416 171.945 23.736C172.201 24.048 172.329 24.496 172.329 25.08V30H171.213ZM165.729 30V23.4H166.797L166.845 24.684V30H165.729ZM168.477 30V25.176C168.477 24.872 168.421 24.644 168.309 24.492C168.205 24.34 168.045 24.264 167.829 24.264C167.525 24.264 167.265 24.456 167.049 24.84C166.833 25.224 166.681 25.796 166.593 26.556L166.569 25.5C166.585 25.028 166.669 24.624 166.821 24.288C166.973 23.952 167.169 23.696 167.409 23.52C167.649 23.344 167.905 23.256 168.177 23.256C168.625 23.256 168.969 23.42 169.209 23.748C169.457 24.068 169.581 24.508 169.581 25.068V30H168.477ZM174.758 23.4V27.564C174.758 28.028 174.89 28.404 175.154 28.692C175.418 28.972 175.762 29.112 176.186 29.112C176.674 29.112 177.106 28.936 177.482 28.584C177.866 28.224 178.17 27.668 178.394 26.916L178.586 28.272C178.338 28.896 177.978 29.364 177.506 29.676C177.042 29.988 176.534 30.144 175.982 30.144C175.486 30.144 175.054 30.04 174.686 29.832C174.326 29.616 174.046 29.32 173.846 28.944C173.646 28.568 173.546 28.124 173.546 27.612V23.4H174.758ZM179.462 23.4V30H178.31L178.25 28.512V23.4H179.462ZM183.559 30V21.18H184.771V30H183.559ZM181.123 30V29.016H187.219V30H181.123ZM181.999 22.164V21.18H184.159V22.164H181.999ZM193.451 30L193.403 28.5V25.68C193.403 25.208 193.247 24.84 192.935 24.576C192.631 24.304 192.211 24.168 191.675 24.168C191.155 24.168 190.731 24.288 190.403 24.528C190.075 24.76 189.895 25.084 189.863 25.5H188.675C188.715 25.028 188.867 24.628 189.131 24.3C189.395 23.964 189.747 23.708 190.187 23.532C190.627 23.348 191.135 23.256 191.711 23.256C192.303 23.256 192.815 23.356 193.247 23.556C193.679 23.748 194.011 24.028 194.243 24.396C194.483 24.764 194.603 25.212 194.603 25.74V30H193.451ZM191.063 30.144C190.631 30.144 190.251 30.068 189.923 29.916C189.595 29.756 189.339 29.532 189.155 29.244C188.971 28.948 188.879 28.604 188.879 28.212C188.879 27.532 189.139 27.004 189.659 26.628C190.187 26.252 190.923 26.064 191.867 26.064H193.559V26.964H191.819C191.275 26.964 190.847 27.068 190.535 27.276C190.231 27.484 190.079 27.776 190.079 28.152C190.079 28.464 190.187 28.708 190.403 28.884C190.627 29.06 190.927 29.148 191.303 29.148C191.783 29.148 192.207 29.02 192.575 28.764C192.951 28.5 193.255 28.14 193.487 27.684L193.619 28.572C193.411 29.076 193.091 29.464 192.659 29.736C192.227 30.008 191.695 30.144 191.063 30.144ZM199.828 30C199.42 30 199.072 29.92 198.784 29.76C198.496 29.592 198.28 29.356 198.136 29.052C197.992 28.748 197.92 28.392 197.92 27.984V22.152L199.132 21.492V27.984C199.132 28.176 199.16 28.352 199.216 28.512C199.272 28.672 199.38 28.796 199.54 28.884C199.708 28.972 199.952 29.016 200.272 29.016H202.252V30H199.828ZM196.36 24.384V23.4H201.196V24.384H196.36ZM206.313 30V23.4H207.525V30H206.313ZM203.877 30V29.016H209.793V30H203.877ZM204.753 24.384V23.4H206.913V24.384H204.753ZM206.229 22.272V20.964H207.585V22.272H206.229ZM214.406 30.144C213.726 30.144 213.138 30.004 212.642 29.724C212.154 29.444 211.778 29.048 211.514 28.536C211.25 28.016 211.118 27.404 211.118 26.7C211.118 25.98 211.25 25.368 211.514 24.864C211.778 24.352 212.154 23.956 212.642 23.676C213.138 23.396 213.73 23.256 214.418 23.256C215.442 23.256 216.246 23.564 216.83 24.18C217.414 24.788 217.706 25.628 217.706 26.7C217.706 27.404 217.574 28.016 217.31 28.536C217.046 29.048 216.666 29.444 216.17 29.724C215.682 30.004 215.094 30.144 214.406 30.144ZM214.418 29.136C215.058 29.136 215.562 28.92 215.93 28.488C216.306 28.048 216.494 27.452 216.494 26.7C216.494 25.94 216.306 25.344 215.93 24.912C215.562 24.48 215.058 24.264 214.418 24.264C213.77 24.264 213.262 24.48 212.894 24.912C212.526 25.344 212.342 25.94 212.342 26.7C212.342 27.452 212.526 28.048 212.894 28.488C213.262 28.92 213.77 29.136 214.418 29.136ZM223.758 30V25.836C223.758 25.372 223.626 25 223.362 24.72C223.098 24.432 222.754 24.288 222.33 24.288C221.842 24.288 221.406 24.468 221.022 24.828C220.646 25.18 220.346 25.732 220.122 26.484L219.93 25.128C220.178 24.504 220.534 24.036 220.998 23.724C221.47 23.412 221.982 23.256 222.534 23.256C223.03 23.256 223.458 23.364 223.818 23.58C224.186 23.788 224.47 24.08 224.67 24.456C224.87 24.832 224.97 25.276 224.97 25.788V30H223.758ZM219.054 30V23.4H220.206L220.266 24.888V30H219.054Z" fill="var(--colors-neutral-neutral-700)"/>
<path d="M304 99.5H0V100.5H304V99.5Z" fill="var(--colors-neutral-neutral-400)"/>
<path d="M17.608 78.056V76.796H22.36V78.056H17.608ZM18.796 71.624H21.004L23.44 80H21.892L20.392 74.72L19.9 72.752L19.384 74.732L17.872 80H16.36L18.796 71.624ZM29.3247 80V75.86C29.3247 75.428 29.2047 75.084 28.9647 74.828C28.7327 74.572 28.4287 74.444 28.0527 74.444C27.6207 74.444 27.2287 74.6 26.8767 74.912C26.5327 75.216 26.2367 75.708 25.9887 76.388L25.7727 74.96C26.0367 74.376 26.3967 73.944 26.8527 73.664C27.3087 73.376 27.7967 73.232 28.3167 73.232C28.8207 73.232 29.2527 73.34 29.6127 73.556C29.9807 73.764 30.2607 74.06 30.4527 74.444C30.6527 74.82 30.7527 75.264 30.7527 75.776V80H29.3247ZM24.7047 80V73.376H26.0727L26.1327 74.768V80H24.7047ZM37.2134 74.24L37.2494 73.376H38.6174V79.22C38.6174 80.22 38.3494 80.98 37.8134 81.5C37.2774 82.02 36.4614 82.28 35.3654 82.28C34.7654 82.28 34.2454 82.2 33.8054 82.04C33.3654 81.888 33.0214 81.652 32.7734 81.332C32.5334 81.02 32.3974 80.624 32.3654 80.144H33.8654C33.9054 80.464 34.0534 80.704 34.3094 80.864C34.5654 81.024 34.9414 81.104 35.4374 81.104C36.0214 81.104 36.4574 80.952 36.7454 80.648C37.0414 80.352 37.1894 79.932 37.1894 79.388V78.668C36.9654 78.98 36.6734 79.224 36.3134 79.4C35.9614 79.576 35.5694 79.664 35.1374 79.664C34.5774 79.664 34.0774 79.524 33.6374 79.244C33.2054 78.964 32.8654 78.584 32.6174 78.104C32.3694 77.616 32.2454 77.068 32.2454 76.46C32.2454 75.796 32.3734 75.224 32.6294 74.744C32.8934 74.256 33.2494 73.884 33.6974 73.628C34.1454 73.372 34.6534 73.244 35.2214 73.244C35.6454 73.244 36.0294 73.336 36.3734 73.52C36.7254 73.704 37.0054 73.944 37.2134 74.24ZM35.4734 78.56C35.8734 78.56 36.2254 78.44 36.5294 78.2C36.8414 77.952 37.0614 77.628 37.1894 77.228V75.668C37.0614 75.26 36.8414 74.94 36.5294 74.708C36.2254 74.468 35.8734 74.348 35.4734 74.348C35.1214 74.348 34.8094 74.44 34.5374 74.624C34.2654 74.808 34.0534 75.056 33.9014 75.368C33.7494 75.68 33.6734 76.036 33.6734 76.436C33.6734 76.844 33.7494 77.208 33.9014 77.528C34.0534 77.84 34.2654 78.092 34.5374 78.284C34.8094 78.468 35.1214 78.56 35.4734 78.56ZM42.5941 80V71.156H44.0341V80H42.5941ZM40.2541 80V78.836H46.3981V80H40.2541ZM41.1181 72.32V71.156H43.3141V72.32H41.1181ZM51.1908 80.144C50.4948 80.144 49.8948 80.008 49.3908 79.736C48.8868 79.456 48.4988 79.056 48.2268 78.536C47.9628 78.016 47.8308 77.396 47.8308 76.676C47.8308 75.956 47.9668 75.34 48.2388 74.828C48.5108 74.308 48.9028 73.912 49.4148 73.64C49.9268 73.368 50.5388 73.232 51.2508 73.232C52.3548 73.232 53.1668 73.54 53.6868 74.156C54.2148 74.772 54.4428 75.616 54.3708 76.688H48.9708L48.9827 75.644L52.9068 75.656C52.8748 75.272 52.7068 74.964 52.4028 74.732C52.0988 74.5 51.7148 74.384 51.2508 74.384C50.5948 74.384 50.0988 74.588 49.7628 74.996C49.4268 75.404 49.2588 75.984 49.2588 76.736C49.2588 77.168 49.3348 77.556 49.4868 77.9C49.6388 78.236 49.8548 78.5 50.1348 78.692C50.4228 78.876 50.7748 78.968 51.1908 78.968C51.6628 78.968 52.0548 78.856 52.3668 78.632C52.6868 78.408 52.8828 78.108 52.9548 77.732H54.3948C54.2988 78.476 53.9628 79.064 53.3867 79.496C52.8188 79.928 52.0868 80.144 51.1908 80.144ZM58.5394 73.232C58.9714 73.232 59.3674 73.316 59.7274 73.484C60.0874 73.652 60.3834 73.88 60.6154 74.168V71.156H62.0434V80H60.6754L60.6394 79.16C60.4154 79.456 60.1194 79.696 59.7514 79.88C59.3834 80.056 58.9794 80.144 58.5394 80.144C57.9554 80.144 57.4394 79.996 56.9914 79.7C56.5434 79.396 56.1914 78.984 55.9354 78.464C55.6874 77.936 55.5634 77.344 55.5634 76.688C55.5634 76.024 55.6874 75.432 55.9354 74.912C56.1914 74.392 56.5434 73.984 56.9914 73.688C57.4394 73.384 57.9554 73.232 58.5394 73.232ZM58.8754 78.956C59.2754 78.956 59.6274 78.84 59.9314 78.608C60.2434 78.368 60.4714 78.052 60.6154 77.66V75.704C60.4714 75.304 60.2434 74.992 59.9314 74.768C59.6274 74.536 59.2754 74.42 58.8754 74.42C58.5074 74.42 58.1794 74.52 57.8914 74.72C57.6114 74.912 57.3914 75.18 57.2314 75.524C57.0714 75.86 56.9914 76.248 56.9914 76.688C56.9914 77.12 57.0714 77.508 57.2314 77.852C57.3914 78.188 57.6114 78.456 57.8914 78.656C58.1794 78.856 58.5074 78.956 58.8754 78.956ZM76.1528 80V75.872C76.1528 75.44 76.0328 75.096 75.7928 74.84C75.5608 74.576 75.2568 74.444 74.8808 74.444C74.4488 74.444 74.0568 74.6 73.7048 74.912C73.3608 75.216 73.0648 75.708 72.8168 76.388L72.6008 74.972C72.8648 74.38 73.2248 73.944 73.6808 73.664C74.1368 73.376 74.6248 73.232 75.1448 73.232C75.6488 73.232 76.0808 73.34 76.4408 73.556C76.8088 73.764 77.0888 74.06 77.2808 74.444C77.4808 74.828 77.5808 75.276 77.5808 75.788V80H76.1528ZM71.5328 80V71.144H72.9608V80H71.5328ZM81.6655 80V73.376H83.0935V80H81.6655ZM79.3255 80V78.836H85.3375V80H79.3255ZM80.1775 74.54V73.376H82.3735V74.54H80.1775ZM81.5815 72.332V70.868H83.1415V72.332H81.5815ZM91.8462 74.24L91.8822 73.376H93.2502V79.22C93.2502 80.22 92.9822 80.98 92.4462 81.5C91.9102 82.02 91.0942 82.28 89.9982 82.28C89.3982 82.28 88.8782 82.2 88.4382 82.04C87.9982 81.888 87.6542 81.652 87.4062 81.332C87.1662 81.02 87.0302 80.624 86.9982 80.144H88.4982C88.5382 80.464 88.6862 80.704 88.9422 80.864C89.1982 81.024 89.5742 81.104 90.0702 81.104C90.6542 81.104 91.0902 80.952 91.3782 80.648C91.6742 80.352 91.8222 79.932 91.8222 79.388V78.668C91.5982 78.98 91.3062 79.224 90.9462 79.4C90.5942 79.576 90.2022 79.664 89.7702 79.664C89.2102 79.664 88.7102 79.524 88.2702 79.244C87.8382 78.964 87.4982 78.584 87.2502 78.104C87.0022 77.616 86.8782 77.068 86.8782 76.46C86.8782 75.796 87.0062 75.224 87.2622 74.744C87.5262 74.256 87.8822 73.884 88.3302 73.628C88.7782 73.372 89.2862 73.244 89.8542 73.244C90.2782 73.244 90.6622 73.336 91.0062 73.52C91.3582 73.704 91.6382 73.944 91.8462 74.24ZM90.1062 78.56C90.5062 78.56 90.8582 78.44 91.1622 78.2C91.4742 77.952 91.6942 77.628 91.8222 77.228V75.668C91.6942 75.26 91.4742 74.94 91.1622 74.708C90.8582 74.468 90.5062 74.348 90.1062 74.348C89.7542 74.348 89.4422 74.44 89.1702 74.624C88.8982 74.808 88.6862 75.056 88.5342 75.368C88.3822 75.68 88.3062 76.036 88.3062 76.436C88.3062 76.844 88.3822 77.208 88.5342 77.528C88.6862 77.84 88.8982 78.092 89.1702 78.284C89.4422 78.468 89.7542 78.56 90.1062 78.56ZM99.5669 80V75.872C99.5669 75.44 99.4469 75.096 99.2069 74.84C98.9749 74.576 98.6709 74.444 98.2949 74.444C97.8629 74.444 97.4709 74.6 97.1189 74.912C96.7749 75.216 96.4789 75.708 96.2309 76.388L96.0149 74.972C96.2789 74.38 96.6389 73.944 97.0949 73.664C97.5509 73.376 98.0389 73.232 98.5589 73.232C99.0629 73.232 99.4949 73.34 99.8549 73.556C100.223 73.764 100.503 74.06 100.695 74.444C100.895 74.828 100.995 75.276 100.995 75.788V80H99.5669ZM94.9469 80V71.144H96.3749V80H94.9469ZM103.112 80L102.08 73.352H103.412L103.916 76.976L104.12 78.512L104.396 76.976L105.128 73.352H106.412L107.18 76.976L107.468 78.536L107.66 76.976L108.164 73.352H109.436L108.416 80H106.748L105.98 76.532L105.764 74.72L105.536 76.532L104.78 80H103.112ZM115.14 80L115.08 78.596V75.62C115.08 75.204 114.94 74.876 114.66 74.636C114.38 74.396 113.992 74.276 113.496 74.276C113.024 74.276 112.636 74.384 112.332 74.6C112.036 74.816 111.868 75.112 111.828 75.488H110.436C110.476 75.016 110.628 74.612 110.892 74.276C111.164 73.94 111.524 73.684 111.972 73.508C112.428 73.324 112.952 73.232 113.544 73.232C114.152 73.232 114.676 73.328 115.116 73.52C115.564 73.712 115.908 73.992 116.148 74.36C116.388 74.728 116.508 75.176 116.508 75.704V80H115.14ZM112.836 80.144C112.404 80.144 112.02 80.064 111.684 79.904C111.356 79.744 111.1 79.516 110.916 79.22C110.732 78.924 110.64 78.58 110.64 78.188C110.64 77.508 110.904 76.98 111.432 76.604C111.96 76.22 112.692 76.028 113.628 76.028H115.248V77.06L113.58 77.072C113.1 77.072 112.724 77.164 112.452 77.348C112.18 77.524 112.044 77.78 112.044 78.116C112.044 78.38 112.14 78.592 112.332 78.752C112.532 78.912 112.804 78.992 113.148 78.992C113.588 78.992 113.98 78.876 114.324 78.644C114.676 78.404 114.96 78.076 115.176 77.66L115.332 78.668C115.124 79.156 114.808 79.524 114.384 79.772C113.96 80.02 113.444 80.144 112.836 80.144ZM120.749 76.328L121.361 77.996L121.985 76.316L123.233 73.376H124.697L121.673 80.516C121.489 80.964 121.281 81.316 121.049 81.572C120.825 81.828 120.569 82.008 120.281 82.112C119.993 82.224 119.661 82.28 119.285 82.28H118.097V81.116H119.165C119.381 81.116 119.561 81.068 119.705 80.972C119.857 80.884 119.993 80.748 120.113 80.564C120.233 80.388 120.349 80.168 120.461 79.904L120.629 79.52L118.025 73.376H119.513L120.749 76.328ZM136.706 80V75.104L136.79 73.376L135.41 74.492L133.934 75.668V73.928L137.114 71.624H138.218V80H136.706ZM133.934 80V78.74H140.102V80H133.934Z" fill="var(--colors-neutral-neutral-800)"/>
<path fill-rule="evenodd" clip-rule="evenodd" d="M242.175 68.175C242.394 67.9562 242.69 67.8333 243 67.8333H255C255.309 67.8333 255.606 67.9562 255.825 68.175C256.044 68.3938 256.167 68.6905 256.167 68.9999V80.9999C256.167 81.3093 256.044 81.6061 255.825 81.8249C255.606 82.0437 255.309 82.1666 255 82.1666H253.5V82.9999C253.5 83.3093 253.377 83.6061 253.158 83.8249C252.939 84.0437 252.643 84.1666 252.333 84.1666H241C240.69 84.1666 240.394 84.0437 240.175 83.8249C239.956 83.6061 239.833 83.3093 239.833 82.9999V71.6666C239.833 71.3572 239.956 71.0604 240.175 70.8416C240.394 70.6228 240.69 70.4999 241 70.4999H241.833V68.9999C241.833 68.6905 241.956 68.3938 242.175 68.175ZM241.833 71.4999H241C240.956 71.4999 240.913 71.5175 240.882 71.5487C240.851 71.58 240.833 71.6224 240.833 71.6666V82.9999C240.833 83.0441 240.851 83.0865 240.882 83.1178C240.913 83.149 240.956 83.1666 241 83.1666H252.333C252.377 83.1666 252.42 83.149 252.451 83.1178C252.482 83.0865 252.5 83.0441 252.5 82.9999V82.1666H243C242.69 82.1666 242.394 82.0437 242.175 81.8249C241.956 81.6061 241.833 81.3093 241.833 80.9999V71.4999ZM243 81.1666C242.956 81.1666 242.913 81.149 242.882 81.1178C242.851 81.0865 242.833 81.0441 242.833 80.9999V68.9999C242.833 68.9557 242.851 68.9133 242.882 68.8821C242.913 68.8508 242.956 68.8333 243 68.8333H255C255.044 68.8333 255.087 68.8508 255.118 68.8821C255.149 68.9133 255.167 68.9557 255.167 68.9999V80.9999C255.167 81.0441 255.149 81.0865 255.118 81.1178C255.087 81.149 255.044 81.1666 255 81.1666H243Z" fill="var(--colors-neutral-neutral-800)"/>
<path fill-rule="evenodd" clip-rule="evenodd" d="M249 72C249.276 72 249.5 72.0001 249.5 72.0001V74.5L252 74.5C252 74.5 252 74.7239 252 75C252 75.2761 252 75.5 252 75.5H249.5L249.5 78C249.5 78 249.276 78 249 78C248.724 78 248.5 78 248.5 78L248.5 75.5H246C246 75.5 246 75.2761 246 75C246 74.7239 246 74.5 246 74.5L248.5 74.5V72.0001C248.5 72.0001 248.724 72 249 72Z" fill="var(--colors-neutral-neutral-800)"/>
<path fill-rule="evenodd" clip-rule="evenodd" d="M274.175 68.1751C274.394 67.9563 274.69 67.8334 275 67.8334H287C287.309 67.8334 287.606 67.9563 287.825 68.1751C288.044 68.3939 288.167 68.6906 288.167 69V81C288.167 81.3095 288.044 81.6062 287.825 81.825C287.606 82.0438 287.309 82.1667 287 82.1667H285.5V83C285.5 83.3095 285.377 83.6062 285.158 83.825C284.939 84.0438 284.643 84.1667 284.333 84.1667H273C272.69 84.1667 272.394 84.0438 272.175 83.825C271.956 83.6062 271.833 83.3095 271.833 83V71.6667C271.833 71.3573 271.956 71.0605 272.175 70.8417C272.394 70.623 272.69 70.5 273 70.5H273.833V69C273.833 68.6906 273.956 68.3939 274.175 68.1751ZM273.833 71.5H273C272.956 71.5 272.913 71.5176 272.882 71.5489C272.851 71.5801 272.833 71.6225 272.833 71.6667V83C272.833 83.0442 272.851 83.0866 272.882 83.1179C272.913 83.1491 272.956 83.1667 273 83.1667H284.333C284.377 83.1667 284.42 83.1491 284.451 83.1179C284.482 83.0866 284.5 83.0442 284.5 83V82.1667H275C274.69 82.1667 274.394 82.0438 274.175 81.825C273.956 81.6062 273.833 81.3095 273.833 81V71.5ZM275 81.1667C274.956 81.1667 274.913 81.1491 274.882 81.1179C274.851 81.0866 274.833 81.0442 274.833 81V69C274.833 68.9558 274.851 68.9134 274.882 68.8822C274.913 68.8509 274.956 68.8334 275 68.8334H287C287.044 68.8334 287.087 68.8509 287.118 68.8822C287.149 68.9134 287.167 68.9558 287.167 69V81C287.167 81.0442 287.149 81.0866 287.118 81.1179C287.087 81.1491 287.044 81.1667 287 81.1667H275Z" fill="var(--colors-neutral-neutral-800)"/>
<path d="M304 147.5H0V148.5H304V147.5Z" fill="var(--colors-neutral-neutral-400)"/>
<path d="M16.768 128V119.624H19.42C20.044 119.624 20.6 119.724 21.088 119.924C21.584 120.116 22.004 120.396 22.348 120.764C22.692 121.124 22.956 121.56 23.14 122.072C23.324 122.584 23.416 123.156 23.416 123.788C23.416 124.428 23.324 125.008 23.14 125.528C22.956 126.04 22.692 126.484 22.348 126.86C22.004 127.228 21.584 127.512 21.088 127.712C20.6 127.904 20.044 128 19.42 128H16.768ZM18.268 126.74H19.42C19.932 126.74 20.368 126.62 20.728 126.38C21.088 126.132 21.364 125.788 21.556 125.348C21.756 124.9 21.856 124.38 21.856 123.788C21.856 123.196 21.756 122.684 21.556 122.252C21.364 121.812 21.088 121.476 20.728 121.244C20.368 121.004 19.932 120.884 19.42 120.884H18.268V126.74ZM27.0327 128V121.376H28.4607V128H27.0327ZM24.6927 128V126.836H30.7047V128H24.6927ZM25.5447 122.54V121.376H27.7407V122.54H25.5447ZM26.9487 120.332V118.868H28.5087V120.332H26.9487ZM37.5374 128V123.224C37.5374 122.968 37.4934 122.768 37.4054 122.624C37.3254 122.48 37.1934 122.408 37.0094 122.408C36.7534 122.408 36.5254 122.576 36.3254 122.912C36.1334 123.24 35.9934 123.776 35.9054 124.52L35.7974 123.548C35.7894 122.82 35.9374 122.252 36.2414 121.844C36.5534 121.436 36.9454 121.232 37.4174 121.232C37.8414 121.232 38.1814 121.392 38.4374 121.712C38.7014 122.032 38.8334 122.492 38.8334 123.092V128H37.5374ZM32.1854 128V121.376H33.4334L33.4814 122.648V128H32.1854ZM34.8614 128V123.224C34.8614 122.952 34.8134 122.748 34.7174 122.612C34.6294 122.476 34.4934 122.408 34.3094 122.408C34.0374 122.408 33.8094 122.584 33.6254 122.936C33.4414 123.288 33.3054 123.816 33.2174 124.52L33.2054 123.5C33.2054 123.028 33.2774 122.624 33.4214 122.288C33.5734 121.944 33.7654 121.684 33.9974 121.508C34.2294 121.324 34.4814 121.232 34.7534 121.232C35.1934 121.232 35.5374 121.4 35.7854 121.736C36.0334 122.064 36.1574 122.508 36.1574 123.068V128H34.8614ZM43.3861 128.144C42.6901 128.144 42.0901 128.008 41.5861 127.736C41.0821 127.456 40.6941 127.056 40.4221 126.536C40.1581 126.016 40.0261 125.396 40.0261 124.676C40.0261 123.956 40.1621 123.34 40.4341 122.828C40.7061 122.308 41.0981 121.912 41.6101 121.64C42.1221 121.368 42.7341 121.232 43.4461 121.232C44.5501 121.232 45.3621 121.54 45.8821 122.156C46.4101 122.772 46.6381 123.616 46.5661 124.688H41.1661L41.1781 123.644L45.1021 123.656C45.0701 123.272 44.9021 122.964 44.5981 122.732C44.2941 122.5 43.9101 122.384 43.4461 122.384C42.7901 122.384 42.2941 122.588 41.9581 122.996C41.6221 123.404 41.4541 123.984 41.4541 124.736C41.4541 125.168 41.5301 125.556 41.6821 125.9C41.8341 126.236 42.0501 126.5 42.3301 126.692C42.6181 126.876 42.9701 126.968 43.3861 126.968C43.8581 126.968 44.2501 126.856 44.5621 126.632C44.8821 126.408 45.0781 126.108 45.1501 125.732H46.5901C46.4941 126.476 46.1581 127.064 45.5821 127.496C45.0141 127.928 44.2821 128.144 43.3861 128.144ZM52.7388 128V123.86C52.7388 123.428 52.6188 123.084 52.3788 122.828C52.1468 122.572 51.8428 122.444 51.4668 122.444C51.0348 122.444 50.6428 122.6 50.2908 122.912C49.9468 123.216 49.6508 123.708 49.4028 124.388L49.1868 122.96C49.4508 122.376 49.8108 121.944 50.2668 121.664C50.7228 121.376 51.2108 121.232 51.7308 121.232C52.2348 121.232 52.6668 121.34 53.0268 121.556C53.3948 121.764 53.6748 122.06 53.8668 122.444C54.0668 122.82 54.1668 123.264 54.1668 123.776V128H52.7388ZM48.1188 128V121.376H49.4868L49.5468 122.768V128H48.1188ZM59.0914 128.144C58.4994 128.144 57.9754 128.044 57.5194 127.844C57.0714 127.636 56.7234 127.344 56.4754 126.968C56.2274 126.592 56.0994 126.148 56.0914 125.636H57.4354C57.4274 126.084 57.5714 126.436 57.8674 126.692C58.1714 126.948 58.5794 127.076 59.0914 127.076C59.4994 127.076 59.8274 127 60.0754 126.848C60.3234 126.696 60.4474 126.488 60.4474 126.224C60.4474 126.016 60.3714 125.848 60.2194 125.72C60.0674 125.592 59.8634 125.492 59.6074 125.42C59.3594 125.348 59.0834 125.284 58.7794 125.228C58.4834 125.164 58.1834 125.092 57.8794 125.012C57.5754 124.924 57.2954 124.812 57.0394 124.676C56.7914 124.532 56.5914 124.344 56.4394 124.112C56.2874 123.88 56.2114 123.584 56.2114 123.224C56.2114 122.832 56.3194 122.488 56.5354 122.192C56.7594 121.888 57.0754 121.652 57.4834 121.484C57.8914 121.316 58.3714 121.232 58.9234 121.232C59.7554 121.232 60.4274 121.428 60.9394 121.82C61.4514 122.204 61.7274 122.736 61.7674 123.416H60.4354C60.4114 123.056 60.2634 122.78 59.9914 122.588C59.7274 122.396 59.3714 122.3 58.9234 122.3C58.5154 122.3 58.1994 122.38 57.9754 122.54C57.7594 122.7 57.6514 122.904 57.6514 123.152C57.6514 123.36 57.7274 123.52 57.8794 123.632C58.0394 123.744 58.2434 123.832 58.4914 123.896C58.7394 123.96 59.0154 124.02 59.3194 124.076C59.6234 124.124 59.9234 124.188 60.2194 124.268C60.5234 124.348 60.7994 124.46 61.0474 124.604C61.3034 124.74 61.5074 124.928 61.6594 125.168C61.8194 125.408 61.8994 125.72 61.8994 126.104C61.8994 126.736 61.6434 127.236 61.1314 127.604C60.6274 127.964 59.9474 128.144 59.0914 128.144ZM66.0561 128V121.376H67.4841V128H66.0561ZM63.7161 128V126.836H69.7281V128H63.7161ZM64.5681 122.54V121.376H66.7641V122.54H64.5681ZM65.9721 120.332V118.868H67.5321V120.332H65.9721ZM74.5328 128.144C73.8368 128.144 73.2368 128.004 72.7328 127.724C72.2368 127.444 71.8528 127.048 71.5808 126.536C71.3168 126.016 71.1848 125.4 71.1848 124.688C71.1848 123.968 71.3168 123.352 71.5808 122.84C71.8528 122.328 72.2368 121.932 72.7328 121.652C73.2368 121.372 73.8368 121.232 74.5328 121.232C75.5728 121.232 76.3888 121.54 76.9808 122.156C77.5728 122.764 77.8688 123.608 77.8688 124.688C77.8688 125.4 77.7328 126.016 77.4608 126.536C77.1968 127.048 76.8128 127.444 76.3088 127.724C75.8128 128.004 75.2208 128.144 74.5328 128.144ZM74.5328 126.968C75.1168 126.968 75.5768 126.764 75.9128 126.356C76.2568 125.948 76.4288 125.392 76.4288 124.688C76.4288 123.976 76.2568 123.42 75.9128 123.02C75.5768 122.612 75.1168 122.408 74.5328 122.408C73.9328 122.408 73.4648 122.612 73.1288 123.02C72.7928 123.42 72.6248 123.976 72.6248 124.688C72.6248 125.392 72.7928 125.948 73.1288 126.356C73.4648 126.764 73.9328 126.968 74.5328 126.968ZM83.9575 128V123.86C83.9575 123.428 83.8375 123.084 83.5975 122.828C83.3655 122.572 83.0615 122.444 82.6855 122.444C82.2535 122.444 81.8615 122.6 81.5095 122.912C81.1655 123.216 80.8695 123.708 80.6215 124.388L80.4055 122.96C80.6695 122.376 81.0295 121.944 81.4855 121.664C81.9415 121.376 82.4295 121.232 82.9495 121.232C83.4535 121.232 83.8855 121.34 84.2455 121.556C84.6135 121.764 84.8935 122.06 85.0855 122.444C85.2855 122.82 85.3855 123.264 85.3855 123.776V128H83.9575ZM79.3375 128V121.376H80.7055L80.7655 122.768V128H79.3375ZM90.3102 128.144C89.7182 128.144 89.1942 128.044 88.7382 127.844C88.2902 127.636 87.9422 127.344 87.6942 126.968C87.4462 126.592 87.3182 126.148 87.3102 125.636H88.6542C88.6462 126.084 88.7902 126.436 89.0862 126.692C89.3902 126.948 89.7982 127.076 90.3102 127.076C90.7182 127.076 91.0462 127 91.2942 126.848C91.5422 126.696 91.6662 126.488 91.6662 126.224C91.6662 126.016 91.5902 125.848 91.4382 125.72C91.2862 125.592 91.0822 125.492 90.8262 125.42C90.5782 125.348 90.3022 125.284 89.9982 125.228C89.7022 125.164 89.4022 125.092 89.0982 125.012C88.7942 124.924 88.5142 124.812 88.2582 124.676C88.0102 124.532 87.8102 124.344 87.6582 124.112C87.5062 123.88 87.4302 123.584 87.4302 123.224C87.4302 122.832 87.5382 122.488 87.7542 122.192C87.9782 121.888 88.2942 121.652 88.7022 121.484C89.1102 121.316 89.5902 121.232 90.1422 121.232C90.9742 121.232 91.6462 121.428 92.1582 121.82C92.6702 122.204 92.9462 122.736 92.9862 123.416H91.6542C91.6302 123.056 91.4822 122.78 91.2102 122.588C90.9462 122.396 90.5902 122.3 90.1422 122.3C89.7342 122.3 89.4182 122.38 89.1942 122.54C88.9782 122.7 88.8702 122.904 88.8702 123.152C88.8702 123.36 88.9462 123.52 89.0982 123.632C89.2582 123.744 89.4622 123.832 89.7102 123.896C89.9582 123.96 90.2342 124.02 90.5382 124.076C90.8422 124.124 91.1422 124.188 91.4382 124.268C91.7422 124.348 92.0182 124.46 92.2662 124.604C92.5222 124.74 92.7262 124.928 92.8782 125.168C93.0382 125.408 93.1182 125.72 93.1182 126.104C93.1182 126.736 92.8622 127.236 92.3502 127.604C91.8462 127.964 91.1662 128.144 90.3102 128.144Z" fill="var(--colors-neutral-neutral-800)"/>
<path d="M280 126.702L274.692 121.394L275.4 120.687L280 125.287L284.6 120.687L285.308 121.394L280 126.702Z" fill="var(--colors-neutral-neutral-800)"/>
<path d="M304 307.5H0V308.5H304V307.5Z" fill="var(--colors-neutral-neutral-400)"/>
<path d="M17.608 174.056V172.796H22.36V174.056H17.608ZM18.796 167.624H21.004L23.44 176H21.892L20.392 170.72L19.9 168.752L19.384 170.732L17.872 176H16.36L18.796 167.624ZM29.3247 176V171.86C29.3247 171.428 29.2047 171.084 28.9647 170.828C28.7327 170.572 28.4287 170.444 28.0527 170.444C27.6207 170.444 27.2287 170.6 26.8767 170.912C26.5327 171.216 26.2367 171.708 25.9887 172.388L25.7727 170.96C26.0367 170.376 26.3967 169.944 26.8527 169.664C27.3087 169.376 27.7967 169.232 28.3167 169.232C28.8207 169.232 29.2527 169.34 29.6127 169.556C29.9807 169.764 30.2607 170.06 30.4527 170.444C30.6527 170.82 30.7527 171.264 30.7527 171.776V176H29.3247ZM24.7047 176V169.376H26.0727L26.1327 170.768V176H24.7047ZM37.2134 170.24L37.2494 169.376H38.6174V175.22C38.6174 176.22 38.3494 176.98 37.8134 177.5C37.2774 178.02 36.4614 178.28 35.3654 178.28C34.7654 178.28 34.2454 178.2 33.8054 178.04C33.3654 177.888 33.0214 177.652 32.7734 177.332C32.5334 177.02 32.3974 176.624 32.3654 176.144H33.8654C33.9054 176.464 34.0534 176.704 34.3094 176.864C34.5654 177.024 34.9414 177.104 35.4374 177.104C36.0214 177.104 36.4574 176.952 36.7454 176.648C37.0414 176.352 37.1894 175.932 37.1894 175.388V174.668C36.9654 174.98 36.6734 175.224 36.3134 175.4C35.9614 175.576 35.5694 175.664 35.1374 175.664C34.5774 175.664 34.0774 175.524 33.6374 175.244C33.2054 174.964 32.8654 174.584 32.6174 174.104C32.3694 173.616 32.2454 173.068 32.2454 172.46C32.2454 171.796 32.3734 171.224 32.6294 170.744C32.8934 170.256 33.2494 169.884 33.6974 169.628C34.1454 169.372 34.6534 169.244 35.2214 169.244C35.6454 169.244 36.0294 169.336 36.3734 169.52C36.7254 169.704 37.0054 169.944 37.2134 170.24ZM35.4734 174.56C35.8734 174.56 36.2254 174.44 36.5294 174.2C36.8414 173.952 37.0614 173.628 37.1894 173.228V171.668C37.0614 171.26 36.8414 170.94 36.5294 170.708C36.2254 170.468 35.8734 170.348 35.4734 170.348C35.1214 170.348 34.8094 170.44 34.5374 170.624C34.2654 170.808 34.0534 171.056 33.9014 171.368C33.7494 171.68 33.6734 172.036 33.6734 172.436C33.6734 172.844 33.7494 173.208 33.9014 173.528C34.0534 173.84 34.2654 174.092 34.5374 174.284C34.8094 174.468 35.1214 174.56 35.4734 174.56ZM42.5941 176V167.156H44.0341V176H42.5941ZM40.2541 176V174.836H46.3981V176H40.2541ZM41.1181 168.32V167.156H43.3141V168.32H41.1181ZM51.1908 176.144C50.4948 176.144 49.8948 176.008 49.3908 175.736C48.8868 175.456 48.4988 175.056 48.2268 174.536C47.9628 174.016 47.8308 173.396 47.8308 172.676C47.8308 171.956 47.9668 171.34 48.2388 170.828C48.5108 170.308 48.9028 169.912 49.4148 169.64C49.9268 169.368 50.5388 169.232 51.2508 169.232C52.3548 169.232 53.1668 169.54 53.6868 170.156C54.2148 170.772 54.4428 171.616 54.3708 172.688H48.9708L48.9827 171.644L52.9068 171.656C52.8748 171.272 52.7068 170.964 52.4028 170.732C52.0988 170.5 51.7148 170.384 51.2508 170.384C50.5948 170.384 50.0988 170.588 49.7628 170.996C49.4268 171.404 49.2588 171.984 49.2588 172.736C49.2588 173.168 49.3348 173.556 49.4868 173.9C49.6388 174.236 49.8548 174.5 50.1348 174.692C50.4228 174.876 50.7748 174.968 51.1908 174.968C51.6628 174.968 52.0548 174.856 52.3668 174.632C52.6868 174.408 52.8828 174.108 52.9548 173.732H54.3948C54.2988 174.476 53.9628 175.064 53.3867 175.496C52.8188 175.928 52.0868 176.144 51.1908 176.144ZM58.5394 169.232C58.9714 169.232 59.3674 169.316 59.7274 169.484C60.0874 169.652 60.3834 169.88 60.6154 170.168V167.156H62.0434V176H60.6754L60.6394 175.16C60.4154 175.456 60.1194 175.696 59.7514 175.88C59.3834 176.056 58.9794 176.144 58.5394 176.144C57.9554 176.144 57.4394 175.996 56.9914 175.7C56.5434 175.396 56.1914 174.984 55.9354 174.464C55.6874 173.936 55.5634 173.344 55.5634 172.688C55.5634 172.024 55.6874 171.432 55.9354 170.912C56.1914 170.392 56.5434 169.984 56.9914 169.688C57.4394 169.384 57.9554 169.232 58.5394 169.232ZM58.8754 174.956C59.2754 174.956 59.6274 174.84 59.9314 174.608C60.2434 174.368 60.4714 174.052 60.6154 173.66V171.704C60.4714 171.304 60.2434 170.992 59.9314 170.768C59.6274 170.536 59.2754 170.42 58.8754 170.42C58.5074 170.42 58.1794 170.52 57.8914 170.72C57.6114 170.912 57.3914 171.18 57.2314 171.524C57.0714 171.86 56.9914 172.248 56.9914 172.688C56.9914 173.12 57.0714 173.508 57.2314 173.852C57.3914 174.188 57.6114 174.456 57.8914 174.656C58.1794 174.856 58.5074 174.956 58.8754 174.956ZM76.1528 176V171.872C76.1528 171.44 76.0328 171.096 75.7928 170.84C75.5608 170.576 75.2568 170.444 74.8808 170.444C74.4488 170.444 74.0568 170.6 73.7048 170.912C73.3608 171.216 73.0648 171.708 72.8168 172.388L72.6008 170.972C72.8648 170.38 73.2248 169.944 73.6808 169.664C74.1368 169.376 74.6248 169.232 75.1448 169.232C75.6488 169.232 76.0808 169.34 76.4408 169.556C76.8088 169.764 77.0888 170.06 77.2808 170.444C77.4808 170.828 77.5808 171.276 77.5808 171.788V176H76.1528ZM71.5328 176V167.144H72.9608V176H71.5328ZM81.6655 176V169.376H83.0935V176H81.6655ZM79.3255 176V174.836H85.3375V176H79.3255ZM80.1775 170.54V169.376H82.3735V170.54H80.1775ZM81.5815 168.332V166.868H83.1415V168.332H81.5815ZM91.8462 170.24L91.8822 169.376H93.2502V175.22C93.2502 176.22 92.9822 176.98 92.4462 177.5C91.9102 178.02 91.0942 178.28 89.9982 178.28C89.3982 178.28 88.8782 178.2 88.4382 178.04C87.9982 177.888 87.6542 177.652 87.4062 177.332C87.1662 177.02 87.0302 176.624 86.9982 176.144H88.4982C88.5382 176.464 88.6862 176.704 88.9422 176.864C89.1982 177.024 89.5742 177.104 90.0702 177.104C90.6542 177.104 91.0902 176.952 91.3782 176.648C91.6742 176.352 91.8222 175.932 91.8222 175.388V174.668C91.5982 174.98 91.3062 175.224 90.9462 175.4C90.5942 175.576 90.2022 175.664 89.7702 175.664C89.2102 175.664 88.7102 175.524 88.2702 175.244C87.8382 174.964 87.4982 174.584 87.2502 174.104C87.0022 173.616 86.8782 173.068 86.8782 172.46C86.8782 171.796 87.0062 171.224 87.2622 170.744C87.5262 170.256 87.8822 169.884 88.3302 169.628C88.7782 169.372 89.2862 169.244 89.8542 169.244C90.2782 169.244 90.6622 169.336 91.0062 169.52C91.3582 169.704 91.6382 169.944 91.8462 170.24ZM90.1062 174.56C90.5062 174.56 90.8582 174.44 91.1622 174.2C91.4742 173.952 91.6942 173.628 91.8222 173.228V171.668C91.6942 171.26 91.4742 170.94 91.1622 170.708C90.8582 170.468 90.5062 170.348 90.1062 170.348C89.7542 170.348 89.4422 170.44 89.1702 170.624C88.8982 170.808 88.6862 171.056 88.5342 171.368C88.3822 171.68 88.3062 172.036 88.3062 172.436C88.3062 172.844 88.3822 173.208 88.5342 173.528C88.6862 173.84 88.8982 174.092 89.1702 174.284C89.4422 174.468 89.7542 174.56 90.1062 174.56ZM99.5669 176V171.872C99.5669 171.44 99.4469 171.096 99.2069 170.84C98.9749 170.576 98.6709 170.444 98.2949 170.444C97.8629 170.444 97.4709 170.6 97.1189 170.912C96.7749 171.216 96.4789 171.708 96.2309 172.388L96.0149 170.972C96.2789 170.38 96.6389 169.944 97.0949 169.664C97.5509 169.376 98.0389 169.232 98.5589 169.232C99.0629 169.232 99.4949 169.34 99.8549 169.556C100.223 169.764 100.503 170.06 100.695 170.444C100.895 170.828 100.995 171.276 100.995 171.788V176H99.5669ZM94.9469 176V167.144H96.3749V176H94.9469ZM103.112 176L102.08 169.352H103.412L103.916 172.976L104.12 174.512L104.396 172.976L105.128 169.352H106.412L107.18 172.976L107.468 174.536L107.66 172.976L108.164 169.352H109.436L108.416 176H106.748L105.98 172.532L105.764 170.72L105.536 172.532L104.78 176H103.112ZM115.14 176L115.08 174.596V171.62C115.08 171.204 114.94 170.876 114.66 170.636C114.38 170.396 113.992 170.276 113.496 170.276C113.024 170.276 112.636 170.384 112.332 170.6C112.036 170.816 111.868 171.112 111.828 171.488H110.436C110.476 171.016 110.628 170.612 110.892 170.276C111.164 169.94 111.524 169.684 111.972 169.508C112.428 169.324 112.952 169.232 113.544 169.232C114.152 169.232 114.676 169.328 115.116 169.52C115.564 169.712 115.908 169.992 116.148 170.36C116.388 170.728 116.508 171.176 116.508 171.704V176H115.14ZM112.836 176.144C112.404 176.144 112.02 176.064 111.684 175.904C111.356 175.744 111.1 175.516 110.916 175.22C110.732 174.924 110.64 174.58 110.64 174.188C110.64 173.508 110.904 172.98 111.432 172.604C111.96 172.22 112.692 172.028 113.628 172.028H115.248V173.06L113.58 173.072C113.1 173.072 112.724 173.164 112.452 173.348C112.18 173.524 112.044 173.78 112.044 174.116C112.044 174.38 112.14 174.592 112.332 174.752C112.532 174.912 112.804 174.992 113.148 174.992C113.588 174.992 113.98 174.876 114.324 174.644C114.676 174.404 114.96 174.076 115.176 173.66L115.332 174.668C115.124 175.156 114.808 175.524 114.384 175.772C113.96 176.02 113.444 176.144 112.836 176.144ZM120.749 172.328L121.361 173.996L121.985 172.316L123.233 169.376H124.697L121.673 176.516C121.489 176.964 121.281 177.316 121.049 177.572C120.825 177.828 120.569 178.008 120.281 178.112C119.993 178.224 119.661 178.28 119.285 178.28H118.097V177.116H119.165C119.381 177.116 119.561 177.068 119.705 176.972C119.857 176.884 119.993 176.748 120.113 176.564C120.233 176.388 120.349 176.168 120.461 175.904L120.629 175.52L118.025 169.376H119.513L120.749 172.328Z" fill="var(--colors-neutral-neutral-800)"/>
<path d="M275.4 174.702L274.692 173.994L280 168.687L285.308 173.994L284.6 174.702L280 170.102L275.4 174.702Z" fill="var(--colors-neutral-neutral-800)"/>
<path d="M17.179 208.227L19.3381 214.349H19.4233L21.5824 208.227H22.5057L19.8352 215.5H18.9261L16.2557 208.227H17.179ZM25.304 215.614C24.7784 215.614 24.325 215.498 23.9439 215.266C23.5651 215.031 23.2727 214.705 23.0668 214.286C22.8632 213.864 22.7614 213.374 22.7614 212.815C22.7614 212.257 22.8632 211.764 23.0668 211.338C23.2727 210.91 23.5592 210.576 23.9261 210.337C24.2955 210.095 24.7263 209.974 25.2188 209.974C25.5028 209.974 25.7834 210.022 26.0604 210.116C26.3374 210.211 26.5895 210.365 26.8168 210.578C27.044 210.789 27.2251 211.068 27.3601 211.416C27.495 211.764 27.5625 212.193 27.5625 212.702V213.057H23.358V212.332H26.7102C26.7102 212.025 26.6487 211.75 26.5256 211.509C26.4048 211.267 26.232 211.076 26.0071 210.937C25.7846 210.797 25.5218 210.727 25.2188 210.727C24.8849 210.727 24.5961 210.81 24.3523 210.976C24.1108 211.139 23.925 211.352 23.7947 211.615C23.6645 211.878 23.5994 212.16 23.5994 212.46V212.943C23.5994 213.355 23.6705 213.704 23.8125 213.991C23.9569 214.275 24.157 214.491 24.4126 214.641C24.6683 214.787 24.9654 214.861 25.304 214.861C25.5241 214.861 25.723 214.83 25.9006 214.768C26.0805 214.705 26.2356 214.61 26.3658 214.484C26.496 214.357 26.5966 214.198 26.6676 214.009L27.4773 214.236C27.392 214.51 27.2488 214.752 27.0476 214.96C26.8464 215.166 26.5978 215.327 26.3018 215.443C26.0059 215.557 25.6733 215.614 25.304 215.614ZM29.6754 212.219V215.5H28.8374V208.227H29.6754V210.898H29.7464C29.8743 210.616 30.0661 210.392 30.3217 210.227C30.5798 210.058 30.9231 209.974 31.3516 209.974C31.7232 209.974 32.0488 210.049 32.3281 210.198C32.6075 210.345 32.8241 210.571 32.978 210.876C33.1342 211.179 33.2124 211.565 33.2124 212.034V215.5H32.3743V212.091C32.3743 211.658 32.2618 211.323 32.0369 211.086C31.8144 210.847 31.5054 210.727 31.1101 210.727C30.8355 210.727 30.5893 210.785 30.3714 210.901C30.156 211.017 29.9856 211.187 29.8601 211.409C29.737 211.632 29.6754 211.902 29.6754 212.219ZM34.7456 215.5V210.045H35.5836V215.5H34.7456ZM35.1717 209.136C35.0083 209.136 34.8675 209.081 34.7491 208.969C34.6331 208.858 34.5751 208.724 34.5751 208.568C34.5751 208.412 34.6331 208.278 34.7491 208.167C34.8675 208.056 35.0083 208 35.1717 208C35.335 208 35.4747 208.056 35.5907 208.167C35.7091 208.278 35.7683 208.412 35.7683 208.568C35.7683 208.724 35.7091 208.858 35.5907 208.969C35.4747 209.081 35.335 209.136 35.1717 209.136ZM39.3345 215.614C38.8232 215.614 38.3828 215.493 38.0135 215.251C37.6442 215.01 37.3601 214.677 37.1612 214.254C36.9624 213.83 36.8629 213.346 36.8629 212.801C36.8629 212.247 36.9647 211.758 37.1683 211.335C37.3743 210.908 37.6607 210.576 38.0277 210.337C38.397 210.095 38.8279 209.974 39.3203 209.974C39.7038 209.974 40.0495 210.045 40.3572 210.188C40.665 210.33 40.9171 210.528 41.1136 210.784C41.3101 211.04 41.4321 211.338 41.4794 211.679H40.6413C40.5774 211.43 40.4354 211.21 40.2152 211.018C39.9974 210.824 39.7038 210.727 39.3345 210.727C39.0078 210.727 38.7214 210.812 38.4751 210.983C38.2313 211.151 38.0407 211.389 37.9034 211.697C37.7685 212.002 37.701 212.361 37.701 212.773C37.701 213.194 37.7673 213.561 37.8999 213.874C38.0348 214.186 38.2242 214.429 38.468 214.602C38.7143 214.774 39.0031 214.861 39.3345 214.861C39.5523 214.861 39.75 214.823 39.9276 214.747C40.1051 214.671 40.2554 214.562 40.3786 214.42C40.5017 214.278 40.5893 214.108 40.6413 213.909H41.4794C41.4321 214.231 41.3149 214.521 41.1278 214.779C40.9432 215.035 40.6982 215.238 40.3928 215.39C40.0897 215.539 39.737 215.614 39.3345 215.614ZM43.5426 208.227V215.5H42.7045V208.227H43.5426ZM47.3645 215.614C46.839 215.614 46.3856 215.498 46.0044 215.266C45.6257 215.031 45.3333 214.705 45.1273 214.286C44.9237 213.864 44.8219 213.374 44.8219 212.815C44.8219 212.257 44.9237 211.764 45.1273 211.338C45.3333 210.91 45.6197 210.576 45.9867 210.337C46.356 210.095 46.7869 209.974 47.2793 209.974C47.5634 209.974 47.8439 210.022 48.1209 210.116C48.3979 210.211 48.65 210.365 48.8773 210.578C49.1046 210.789 49.2857 211.068 49.4206 211.416C49.5556 211.764 49.623 212.193 49.623 212.702V213.057H45.4185V212.332H48.7708C48.7708 212.025 48.7092 211.75 48.5861 211.509C48.4654 211.267 48.2926 211.076 48.0676 210.937C47.8451 210.797 47.5823 210.727 47.2793 210.727C46.9455 210.727 46.6567 210.81 46.4128 210.976C46.1713 211.139 45.9855 211.352 45.8553 211.615C45.7251 211.878 45.66 212.16 45.66 212.46V212.943C45.66 213.355 45.731 213.704 45.873 213.991C46.0175 214.275 46.2175 214.491 46.4732 214.641C46.7289 214.787 47.026 214.861 47.3645 214.861C47.5847 214.861 47.7836 214.83 47.9611 214.768C48.141 214.705 48.2961 214.61 48.4263 214.484C48.5565 214.357 48.6571 214.198 48.7282 214.009L49.5378 214.236C49.4526 214.51 49.3094 214.752 49.1081 214.96C48.9069 215.166 48.6583 215.327 48.3624 215.443C48.0665 215.557 47.7338 215.614 47.3645 215.614Z" fill="var(--colors-neutral-neutral-800)"/>
<path d="M145.179 215.5H144.256L146.926 208.227H147.835L150.506 215.5H149.582L147.409 209.378H147.352L145.179 215.5ZM145.52 212.659H149.241V213.44H145.52V212.659ZM152.363 208.227V215.5H151.525V208.227H152.363ZM154.736 208.227V215.5H153.898V208.227H154.736Z" fill="var(--colors-neutral-neutral-800)"/>
<path d="M18.2017 247.5L16.2131 240.227H17.108L18.6278 246.151H18.6989L20.2472 240.227H21.2415L22.7898 246.151H22.8608L24.3807 240.227H25.2756L23.2869 247.5H22.3778L20.7727 241.705H20.7159L19.1108 247.5H18.2017ZM26.2592 247.5V242.045H27.0973V247.5H26.2592ZM26.6854 241.136C26.522 241.136 26.3812 241.081 26.2628 240.969C26.1468 240.858 26.0888 240.724 26.0888 240.568C26.0888 240.412 26.1468 240.278 26.2628 240.167C26.3812 240.056 26.522 240 26.6854 240C26.8487 240 26.9884 240.056 27.1044 240.167C27.2228 240.278 27.282 240.412 27.282 240.568C27.282 240.724 27.2228 240.858 27.1044 240.969C26.9884 241.081 26.8487 241.136 26.6854 241.136ZM30.6919 247.614C30.2374 247.614 29.8361 247.499 29.4881 247.269C29.1401 247.037 28.8678 246.71 28.6713 246.289C28.4748 245.865 28.3766 245.365 28.3766 244.787C28.3766 244.214 28.4748 243.717 28.6713 243.295C28.8678 242.874 29.1413 242.549 29.4917 242.319C29.842 242.089 30.2469 241.974 30.7061 241.974C31.0613 241.974 31.3418 242.034 31.5478 242.152C31.7561 242.268 31.9147 242.401 32.0236 242.55C32.1349 242.696 32.2213 242.817 32.2828 242.912H32.3539V240.227H33.1919V247.5H32.3823V246.662H32.2828C32.2213 246.761 32.1337 246.887 32.0201 247.038C31.9064 247.187 31.7443 247.321 31.5336 247.44C31.3229 247.556 31.0423 247.614 30.6919 247.614ZM30.8056 246.861C31.1417 246.861 31.4258 246.773 31.6578 246.598C31.8899 246.42 32.0662 246.175 32.187 245.863C32.3077 245.548 32.3681 245.185 32.3681 244.773C32.3681 244.366 32.3089 244.009 32.1905 243.704C32.0721 243.396 31.897 243.157 31.665 242.987C31.4329 242.814 31.1465 242.727 30.8056 242.727C30.4505 242.727 30.1545 242.818 29.9178 243.001C29.6834 243.181 29.507 243.426 29.3887 243.736C29.2727 244.044 29.2147 244.389 29.2147 244.773C29.2147 245.161 29.2739 245.514 29.3922 245.831C29.513 246.146 29.6905 246.397 29.9249 246.584C30.1616 246.768 30.4552 246.861 30.8056 246.861ZM37.2154 242.045V242.756H34.3887V242.045H37.2154ZM35.2125 240.739H36.0506V245.938C36.0506 246.174 36.0849 246.352 36.1536 246.47C36.2246 246.586 36.3146 246.664 36.4235 246.705C36.5347 246.742 36.6519 246.761 36.775 246.761C36.8674 246.761 36.9431 246.757 37.0023 246.747C37.0615 246.735 37.1088 246.726 37.1444 246.719L37.3148 247.472C37.258 247.493 37.1787 247.514 37.0769 247.536C36.9751 247.559 36.8461 247.571 36.6898 247.571C36.4531 247.571 36.2211 247.52 35.9938 247.418C35.7689 247.317 35.5819 247.161 35.4327 246.953C35.2859 246.745 35.2125 246.482 35.2125 246.165V240.739ZM39.4313 244.219V247.5H38.5932V240.227H39.4313V242.898H39.5023C39.6301 242.616 39.8219 242.392 40.0776 242.227C40.3356 242.058 40.6789 241.974 41.1074 241.974C41.4791 241.974 41.8046 242.049 42.084 242.198C42.3633 242.345 42.58 242.571 42.7338 242.876C42.8901 243.179 42.9682 243.565 42.9682 244.034V247.5H42.1301V244.091C42.1301 243.658 42.0177 243.323 41.7928 243.086C41.5703 242.847 41.2613 242.727 40.8659 242.727C40.5913 242.727 40.3451 242.785 40.1273 242.901C39.9119 243.017 39.7414 243.187 39.6159 243.409C39.4928 243.632 39.4313 243.902 39.4313 244.219Z" fill="var(--colors-neutral-neutral-800)"/>
<path d="M144.753 247.5V246.861L147.153 244.233C147.435 243.925 147.667 243.658 147.849 243.43C148.032 243.201 148.167 242.985 148.254 242.784C148.344 242.58 148.389 242.367 148.389 242.145C148.389 241.889 148.328 241.668 148.205 241.481C148.084 241.294 147.918 241.149 147.707 241.048C147.497 240.946 147.26 240.895 146.997 240.895C146.718 240.895 146.474 240.953 146.266 241.069C146.06 241.183 145.9 241.342 145.786 241.548C145.675 241.754 145.619 241.996 145.619 242.273H144.781C144.781 241.847 144.879 241.473 145.076 241.151C145.272 240.829 145.54 240.578 145.879 240.398C146.219 240.218 146.602 240.128 147.026 240.128C147.452 240.128 147.829 240.218 148.158 240.398C148.487 240.578 148.746 240.82 148.933 241.126C149.12 241.431 149.213 241.771 149.213 242.145C149.213 242.412 149.165 242.674 149.067 242.93C148.973 243.183 148.807 243.466 148.57 243.778C148.336 244.089 148.01 244.467 147.594 244.915L145.96 246.662V246.719H149.341V247.5H144.753ZM153.18 247.599C152.645 247.599 152.189 247.454 151.812 247.163C151.436 246.869 151.148 246.444 150.95 245.888C150.751 245.329 150.651 244.654 150.651 243.864C150.651 243.078 150.751 242.406 150.95 241.85C151.151 241.291 151.44 240.865 151.816 240.572C152.195 240.276 152.649 240.128 153.18 240.128C153.71 240.128 154.163 240.276 154.54 240.572C154.919 240.865 155.207 241.291 155.406 241.85C155.607 242.406 155.708 243.078 155.708 243.864C155.708 244.654 155.609 245.329 155.41 245.888C155.211 246.444 154.923 246.869 154.547 247.163C154.17 247.454 153.715 247.599 153.18 247.599ZM153.18 246.818C153.71 246.818 154.122 246.562 154.415 246.051C154.709 245.54 154.856 244.811 154.856 243.864C154.856 243.234 154.788 242.698 154.653 242.255C154.521 241.812 154.329 241.475 154.078 241.243C153.83 241.011 153.53 240.895 153.18 240.895C152.654 240.895 152.243 241.154 151.947 241.673C151.652 242.189 151.504 242.919 151.504 243.864C151.504 244.493 151.57 245.028 151.702 245.469C151.835 245.909 152.026 246.244 152.274 246.474C152.525 246.703 152.827 246.818 153.18 246.818ZM159.43 247.599C158.895 247.599 158.439 247.454 158.062 247.163C157.686 246.869 157.398 246.444 157.2 245.888C157.001 245.329 156.901 244.654 156.901 243.864C156.901 243.078 157.001 242.406 157.2 241.85C157.401 241.291 157.69 240.865 158.066 240.572C158.445 240.276 158.899 240.128 159.43 240.128C159.96 240.128 160.413 240.276 160.79 240.572C161.169 240.865 161.457 241.291 161.656 241.85C161.857 242.406 161.958 243.078 161.958 243.864C161.958 244.654 161.859 245.329 161.66 245.888C161.461 246.444 161.173 246.869 160.797 247.163C160.42 247.454 159.965 247.599 159.43 247.599ZM159.43 246.818C159.96 246.818 160.372 246.562 160.665 246.051C160.959 245.54 161.106 244.811 161.106 243.864C161.106 243.234 161.038 242.698 160.903 242.255C160.771 241.812 160.579 241.475 160.328 241.243C160.08 241.011 159.78 240.895 159.43 240.895C158.904 240.895 158.493 241.154 158.197 241.673C157.902 242.189 157.754 242.919 157.754 243.864C157.754 244.493 157.82 245.028 157.952 245.469C158.085 245.909 158.276 246.244 158.524 246.474C158.775 246.703 159.077 246.818 159.43 246.818ZM165.68 247.599C165.145 247.599 164.689 247.454 164.312 247.163C163.936 246.869 163.648 246.444 163.45 245.888C163.251 245.329 163.151 244.654 163.151 243.864C163.151 243.078 163.251 242.406 163.45 241.85C163.651 241.291 163.94 240.865 164.316 240.572C164.695 240.276 165.149 240.128 165.68 240.128C166.21 240.128 166.663 240.276 167.04 240.572C167.419 240.865 167.707 241.291 167.906 241.85C168.107 242.406 168.208 243.078 168.208 243.864C168.208 244.654 168.109 245.329 167.91 245.888C167.711 246.444 167.423 246.869 167.047 247.163C166.67 247.454 166.215 247.599 165.68 247.599ZM165.68 246.818C166.21 246.818 166.622 246.562 166.915 246.051C167.209 245.54 167.356 244.811 167.356 243.864C167.356 243.234 167.288 242.698 167.153 242.255C167.021 241.812 166.829 241.475 166.578 241.243C166.33 241.011 166.03 240.895 165.68 240.895C165.154 240.895 164.743 241.154 164.447 241.673C164.152 242.189 164.004 242.919 164.004 243.864C164.004 244.493 164.07 245.028 164.202 245.469C164.335 245.909 164.526 246.244 164.774 246.474C165.025 246.703 165.327 246.818 165.68 246.818ZM172.384 247.5V242.045H173.194V242.898H173.265C173.379 242.607 173.562 242.38 173.815 242.219C174.069 242.056 174.373 241.974 174.728 241.974C175.088 241.974 175.387 242.056 175.626 242.219C175.868 242.38 176.056 242.607 176.191 242.898H176.248C176.388 242.616 176.597 242.392 176.876 242.227C177.156 242.058 177.491 241.974 177.881 241.974C178.369 241.974 178.768 242.127 179.078 242.433C179.388 242.736 179.543 243.208 179.543 243.849V247.5H178.705V243.849C178.705 243.447 178.595 243.159 178.375 242.987C178.155 242.814 177.896 242.727 177.597 242.727C177.214 242.727 176.917 242.843 176.706 243.075C176.495 243.305 176.39 243.596 176.39 243.949V247.5H175.538V243.764C175.538 243.454 175.437 243.204 175.236 243.015C175.035 242.823 174.775 242.727 174.458 242.727C174.24 242.727 174.037 242.785 173.847 242.901C173.66 243.017 173.509 243.178 173.393 243.384C173.279 243.588 173.222 243.823 173.222 244.091V247.5H172.384ZM181.076 247.5V242.045H181.885V242.898H181.956C182.07 242.607 182.253 242.38 182.507 242.219C182.76 242.056 183.064 241.974 183.419 241.974C183.779 241.974 184.079 242.056 184.318 242.219C184.559 242.38 184.748 242.607 184.882 242.898H184.939C185.079 242.616 185.288 242.392 185.568 242.227C185.847 242.058 186.182 241.974 186.573 241.974C187.06 241.974 187.459 242.127 187.77 242.433C188.08 242.736 188.235 243.208 188.235 243.849V247.5H187.397V243.849C187.397 243.447 187.287 243.159 187.066 242.987C186.846 242.814 186.587 242.727 186.289 242.727C185.905 242.727 185.608 242.843 185.397 243.075C185.187 243.305 185.081 243.596 185.081 243.949V247.5H184.229V243.764C184.229 243.454 184.128 243.204 183.927 243.015C183.726 242.823 183.467 242.727 183.15 242.727C182.932 242.727 182.728 242.785 182.539 242.901C182.352 243.017 182.2 243.178 182.084 243.384C181.971 243.588 181.914 243.823 181.914 244.091V247.5H181.076Z" fill="var(--colors-neutral-neutral-800)"/>
<path d="M16.8807 279.5V272.227H17.7614V278.719H21.142V279.5H16.8807ZM23.9972 279.628C23.6515 279.628 23.3378 279.563 23.0561 279.433C22.7744 279.3 22.5507 279.109 22.3849 278.861C22.2192 278.61 22.1364 278.307 22.1364 277.952C22.1364 277.639 22.1979 277.386 22.321 277.192C22.4441 276.995 22.6087 276.841 22.8146 276.73C23.0206 276.619 23.2479 276.536 23.4964 276.482C23.7474 276.425 23.9995 276.38 24.2528 276.347C24.5843 276.304 24.853 276.272 25.0589 276.251C25.2673 276.227 25.4188 276.188 25.5135 276.134C25.6106 276.079 25.6591 275.984 25.6591 275.849V275.821C25.6591 275.471 25.5632 275.198 25.3714 275.004C25.1821 274.81 24.8944 274.713 24.5085 274.713C24.1084 274.713 23.7947 274.801 23.5675 274.976C23.3402 275.151 23.1804 275.338 23.0881 275.537L22.2926 275.253C22.4347 274.921 22.6241 274.663 22.8608 274.479C23.0999 274.292 23.3603 274.161 23.642 274.088C23.9261 274.012 24.2055 273.974 24.4801 273.974C24.6553 273.974 24.8565 273.996 25.0838 274.038C25.3134 274.079 25.5348 274.163 25.7479 274.29C25.9633 274.418 26.142 274.611 26.2841 274.869C26.4261 275.127 26.4972 275.473 26.4972 275.906V279.5H25.6591V278.761H25.6165C25.5597 278.88 25.465 279.006 25.3324 279.141C25.1998 279.276 25.0234 279.391 24.8033 279.486C24.5831 279.58 24.3144 279.628 23.9972 279.628ZM24.125 278.875C24.4564 278.875 24.7358 278.81 24.9631 278.68C25.1927 278.549 25.3655 278.381 25.4815 278.175C25.5999 277.969 25.6591 277.753 25.6591 277.526V276.759C25.6236 276.801 25.5455 276.84 25.4247 276.876C25.3063 276.909 25.169 276.938 25.0128 276.964C24.8589 276.988 24.7086 277.009 24.5618 277.028C24.4174 277.045 24.3002 277.059 24.2102 277.071C23.9924 277.099 23.7888 277.146 23.5994 277.21C23.4124 277.271 23.2609 277.365 23.1449 277.49C23.0313 277.613 22.9744 277.781 22.9744 277.994C22.9744 278.286 23.0821 278.506 23.2976 278.655C23.5154 278.802 23.7912 278.875 24.125 278.875ZM28.8649 276.219V279.5H28.0268V274.045H28.8365V274.898H28.9075C29.0353 274.621 29.2295 274.398 29.4899 274.23C29.7503 274.06 30.0865 273.974 30.4984 273.974C30.8677 273.974 31.1909 274.05 31.4679 274.202C31.7449 274.351 31.9603 274.578 32.1142 274.884C32.2681 275.187 32.345 275.57 32.345 276.034V279.5H31.5069V276.091C31.5069 275.662 31.3957 275.329 31.1731 275.089C30.9506 274.848 30.6452 274.727 30.2569 274.727C29.9894 274.727 29.7503 274.785 29.5396 274.901C29.3313 275.017 29.1667 275.187 29.046 275.409C28.9252 275.632 28.8649 275.902 28.8649 276.219ZM36.1634 279.614C35.6378 279.614 35.1844 279.498 34.8033 279.266C34.4245 279.031 34.1321 278.705 33.9261 278.286C33.7225 277.864 33.6207 277.374 33.6207 276.815C33.6207 276.257 33.7225 275.764 33.9261 275.338C34.1321 274.91 34.4186 274.576 34.7855 274.337C35.1548 274.095 35.5857 273.974 36.0781 273.974C36.3622 273.974 36.6428 274.022 36.9197 274.116C37.1967 274.211 37.4489 274.365 37.6761 274.578C37.9034 274.789 38.0845 275.068 38.2195 275.416C38.3544 275.764 38.4219 276.193 38.4219 276.702V277.057H34.2173V276.332H37.5696C37.5696 276.025 37.508 275.75 37.3849 275.509C37.2642 275.267 37.0914 275.076 36.8665 274.937C36.6439 274.797 36.3812 274.727 36.0781 274.727C35.7443 274.727 35.4555 274.81 35.2116 274.976C34.9702 275.139 34.7843 275.352 34.6541 275.615C34.5239 275.878 34.4588 276.16 34.4588 276.46V276.943C34.4588 277.355 34.5298 277.704 34.6719 277.991C34.8163 278.275 35.0163 278.491 35.272 278.641C35.5277 278.787 35.8248 278.861 36.1634 278.861C36.3835 278.861 36.5824 278.83 36.7599 278.768C36.9399 278.705 37.0949 278.61 37.2251 278.484C37.3554 278.357 37.456 278.198 37.527 278.009L38.3366 278.236C38.2514 278.51 38.1082 278.752 37.907 278.96C37.7057 279.166 37.4571 279.327 37.1612 279.443C36.8653 279.557 36.5327 279.614 36.1634 279.614ZM44.5689 279.614C44.1143 279.614 43.7131 279.499 43.3651 279.269C43.017 279.037 42.7448 278.71 42.5483 278.289C42.3518 277.865 42.2536 277.365 42.2536 276.787C42.2536 276.214 42.3518 275.717 42.5483 275.295C42.7448 274.874 43.0182 274.549 43.3686 274.319C43.719 274.089 44.1238 273.974 44.5831 273.974C44.9382 273.974 45.2188 274.034 45.4247 274.152C45.633 274.268 45.7917 274.401 45.9006 274.55C46.0118 274.696 46.0982 274.817 46.1598 274.912H46.2308V272.227H47.0689V279.5H46.2592V278.662H46.1598C46.0982 278.761 46.0107 278.887 45.897 279.038C45.7834 279.187 45.6212 279.321 45.4105 279.44C45.1998 279.556 44.9193 279.614 44.5689 279.614ZM44.6825 278.861C45.0187 278.861 45.3028 278.773 45.5348 278.598C45.7668 278.42 45.9432 278.175 46.0639 277.863C46.1847 277.548 46.245 277.185 46.245 276.773C46.245 276.366 46.1858 276.009 46.0675 275.704C45.9491 275.396 45.7739 275.157 45.5419 274.987C45.3099 274.814 45.0234 274.727 44.6825 274.727C44.3274 274.727 44.0315 274.818 43.7947 275.001C43.5604 275.181 43.384 275.426 43.2656 275.736C43.1496 276.044 43.0916 276.389 43.0916 276.773C43.0916 277.161 43.1508 277.514 43.2692 277.831C43.3899 278.146 43.5675 278.397 43.8018 278.584C44.0386 278.768 44.3321 278.861 44.6825 278.861ZM48.7202 279.5V274.045H49.5582V279.5H48.7202ZM49.1463 273.136C48.983 273.136 48.8421 273.081 48.7237 272.969C48.6077 272.858 48.5497 272.724 48.5497 272.568C48.5497 272.412 48.6077 272.278 48.7237 272.167C48.8421 272.056 48.983 272 49.1463 272C49.3097 272 49.4493 272.056 49.5653 272.167C49.6837 272.278 49.7429 272.412 49.7429 272.568C49.7429 272.724 49.6837 272.858 49.5653 272.969C49.4493 273.081 49.3097 273.136 49.1463 273.136ZM51.0932 279.5V274.045H51.9029V274.869H51.9597C52.0591 274.599 52.2391 274.38 52.4995 274.212C52.7599 274.044 53.0534 273.96 53.3801 273.96C53.4417 273.96 53.5186 273.961 53.611 273.964C53.7033 273.966 53.7731 273.97 53.8205 273.974V274.827C53.7921 274.82 53.727 274.809 53.6252 274.795C53.5257 274.778 53.4204 274.77 53.3091 274.77C53.044 274.77 52.8072 274.826 52.5989 274.937C52.3929 275.046 52.2296 275.197 52.1088 275.391C51.9905 275.583 51.9313 275.802 51.9313 276.048V279.5H51.0932ZM56.9348 279.614C56.4093 279.614 55.9559 279.498 55.5748 279.266C55.196 279.031 54.9036 278.705 54.6976 278.286C54.494 277.864 54.3922 277.374 54.3922 276.815C54.3922 276.257 54.494 275.764 54.6976 275.338C54.9036 274.91 55.19 274.576 55.557 274.337C55.9263 274.095 56.3572 273.974 56.8496 273.974C57.1337 273.974 57.4142 274.022 57.6912 274.116C57.9682 274.211 58.2203 274.365 58.4476 274.578C58.6749 274.789 58.856 275.068 58.9909 275.416C59.1259 275.764 59.1934 276.193 59.1934 276.702V277.057H54.9888V276.332H58.3411C58.3411 276.025 58.2795 275.75 58.1564 275.509C58.0357 275.267 57.8629 275.076 57.638 274.937C57.4154 274.797 57.1526 274.727 56.8496 274.727C56.5158 274.727 56.227 274.81 55.9831 274.976C55.7417 275.139 55.5558 275.352 55.4256 275.615C55.2954 275.878 55.2303 276.16 55.2303 276.46V276.943C55.2303 277.355 55.3013 277.704 55.4434 277.991C55.5878 278.275 55.7878 278.491 56.0435 278.641C56.2992 278.787 56.5963 278.861 56.9348 278.861C57.155 278.861 57.3539 278.83 57.5314 278.768C57.7114 278.705 57.8664 278.61 57.9966 278.484C58.1268 278.357 58.2275 278.198 58.2985 278.009L59.1081 278.236C59.0229 278.51 58.8797 278.752 58.6784 278.96C58.4772 279.166 58.2286 279.327 57.9327 279.443C57.6368 279.557 57.3042 279.614 56.9348 279.614ZM62.6841 279.614C62.1728 279.614 61.7324 279.493 61.3631 279.251C60.9938 279.01 60.7097 278.677 60.5108 278.254C60.312 277.83 60.2125 277.346 60.2125 276.801C60.2125 276.247 60.3143 275.758 60.5179 275.335C60.7239 274.908 61.0104 274.576 61.3773 274.337C61.7466 274.095 62.1775 273.974 62.6699 273.974C63.0534 273.974 63.3991 274.045 63.7069 274.188C64.0146 274.33 64.2667 274.528 64.4632 274.784C64.6597 275.04 64.7817 275.338 64.829 275.679H63.9909C63.927 275.43 63.785 275.21 63.5648 275.018C63.347 274.824 63.0534 274.727 62.6841 274.727C62.3574 274.727 62.071 274.812 61.8248 274.983C61.5809 275.151 61.3903 275.389 61.253 275.697C61.1181 276.002 61.0506 276.361 61.0506 276.773C61.0506 277.194 61.1169 277.561 61.2495 277.874C61.3844 278.186 61.5738 278.429 61.8176 278.602C62.0639 278.774 62.3527 278.861 62.6841 278.861C62.9019 278.861 63.0996 278.823 63.2772 278.747C63.4547 278.671 63.6051 278.562 63.7282 278.42C63.8513 278.278 63.9389 278.108 63.9909 277.909H64.829C64.7817 278.231 64.6645 278.521 64.4775 278.779C64.2928 279.035 64.0478 279.238 63.7424 279.39C63.4393 279.539 63.0866 279.614 62.6841 279.614ZM68.4263 274.045V274.756H65.5996V274.045H68.4263ZM66.4235 272.739H67.2615V277.938C67.2615 278.174 67.2959 278.352 67.3645 278.47C67.4355 278.586 67.5255 278.664 67.6344 278.705C67.7457 278.742 67.8629 278.761 67.986 278.761C68.0783 278.761 68.1541 278.757 68.2132 278.747C68.2724 278.735 68.3198 278.726 68.3553 278.719L68.5257 279.472C68.4689 279.493 68.3896 279.514 68.2878 279.536C68.186 279.559 68.057 279.571 67.9007 279.571C67.664 279.571 67.432 279.52 67.2047 279.418C66.9798 279.317 66.7928 279.161 66.6436 278.953C66.4969 278.745 66.4235 278.482 66.4235 278.165V272.739ZM69.687 279.5V274.045H70.525V279.5H69.687ZM70.1131 273.136C69.9498 273.136 69.8089 273.081 69.6905 272.969C69.5745 272.858 69.5165 272.724 69.5165 272.568C69.5165 272.412 69.5745 272.278 69.6905 272.167C69.8089 272.056 69.9498 272 70.1131 272C70.2765 272 70.4161 272.056 70.5321 272.167C70.6505 272.278 70.7097 272.412 70.7097 272.568C70.7097 272.724 70.6505 272.858 70.5321 272.969C70.4161 273.081 70.2765 273.136 70.1131 273.136ZM74.2759 279.614C73.7835 279.614 73.3514 279.496 72.9798 279.262C72.6104 279.028 72.3216 278.7 72.1133 278.278C71.9073 277.857 71.8043 277.365 71.8043 276.801C71.8043 276.233 71.9073 275.737 72.1133 275.313C72.3216 274.889 72.6104 274.56 72.9798 274.326C73.3514 274.092 73.7835 273.974 74.2759 273.974C74.7683 273.974 75.1992 274.092 75.5685 274.326C75.9402 274.56 76.229 274.889 76.435 275.313C76.6433 275.737 76.7475 276.233 76.7475 276.801C76.7475 277.365 76.6433 277.857 76.435 278.278C76.229 278.7 75.9402 279.028 75.5685 279.262C75.1992 279.496 74.7683 279.614 74.2759 279.614ZM74.2759 278.861C74.65 278.861 74.9577 278.765 75.1992 278.573C75.4407 278.381 75.6194 278.129 75.7354 277.817C75.8514 277.504 75.9094 277.166 75.9094 276.801C75.9094 276.437 75.8514 276.097 75.7354 275.782C75.6194 275.467 75.4407 275.213 75.1992 275.018C74.9577 274.824 74.65 274.727 74.2759 274.727C73.9019 274.727 73.5941 274.824 73.3526 275.018C73.1112 275.213 72.9324 275.467 72.8164 275.782C72.7004 276.097 72.6424 276.437 72.6424 276.801C72.6424 277.166 72.7004 277.504 72.8164 277.817C72.9324 278.129 73.1112 278.381 73.3526 278.573C73.5941 278.765 73.9019 278.861 74.2759 278.861ZM78.8649 276.219V279.5H78.0268V274.045H78.8365V274.898H78.9075C79.0353 274.621 79.2295 274.398 79.4899 274.23C79.7503 274.06 80.0865 273.974 80.4984 273.974C80.8677 273.974 81.1909 274.05 81.4679 274.202C81.7449 274.351 81.9603 274.578 82.1142 274.884C82.2681 275.187 82.345 275.57 82.345 276.034V279.5H81.5069V276.091C81.5069 275.662 81.3957 275.329 81.1731 275.089C80.9506 274.848 80.6452 274.727 80.2569 274.727C79.9894 274.727 79.7503 274.785 79.5396 274.901C79.3313 275.017 79.1667 275.187 79.046 275.409C78.9252 275.632 78.8649 275.902 78.8649 276.219Z" fill="var(--colors-neutral-neutral-800)"/>
<path d="M153.066 280.212L152.535 279.681L155.981 276.231L152.535 272.781L153.066 272.25L157.047 276.231L153.066 280.212ZM157.641 280.212L157.11 279.681L160.556 276.231L157.11 272.781L157.641 272.25L161.622 276.231L157.641 280.212Z" fill="var(--colors-neutral-neutral-800)"/>
<path d="M148.446 280.212L144.465 276.231L148.446 272.25L148.977 272.781L145.531 276.231L148.977 279.681L148.446 280.212ZM153.021 280.212L149.04 276.231L153.021 272.25L153.552 272.781L150.106 276.231L153.552 279.681L153.021 280.212Z" fill="var(--colors-neutral-neutral-800)"/>
<path d="M176.438 279.981L172.457 276L176.438 272.019L176.968 272.55L173.523 276L176.968 279.45L176.438 279.981ZM181.013 279.981L177.032 276L181.013 272.019L181.543 272.55L178.098 276L181.543 279.45L181.013 279.981Z" fill="var(--colors-neutral-neutral-800)"/>
<path d="M196.988 279.981L196.457 279.45L199.902 276L196.457 272.55L196.988 272.019L200.968 276L196.988 279.981ZM201.563 279.981L201.032 279.45L204.477 276L201.032 272.55L201.563 272.019L205.543 276L201.563 279.981Z" fill="var(--colors-neutral-neutral-800)"/>
<path d="M274.461 277C274.186 277 273.951 276.902 273.755 276.706C273.559 276.51 273.461 276.275 273.461 276C273.461 275.725 273.559 275.49 273.755 275.294C273.951 275.098 274.186 275 274.461 275C274.736 275 274.972 275.098 275.168 275.294C275.364 275.49 275.461 275.725 275.461 276C275.461 276.275 275.364 276.51 275.168 276.706C274.972 276.902 274.736 277 274.461 277ZM280 277C279.725 277 279.489 276.902 279.294 276.706C279.098 276.51 279 276.275 279 276C279 275.725 279.098 275.49 279.294 275.294C279.489 275.098 279.725 275 280 275C280.275 275 280.51 275.098 280.706 275.294C280.902 275.49 281 275.725 281 276C281 276.275 280.902 276.51 280.706 276.706C280.51 276.902 280.275 277 280 277ZM285.538 277C285.263 277 285.028 276.902 284.832 276.706C284.636 276.51 284.538 276.275 284.538 276C284.538 275.725 284.636 275.49 284.832 275.294C285.028 275.098 285.263 275 285.538 275C285.813 275 286.049 275.098 286.245 275.294C286.44 275.49 286.538 275.725 286.538 276C286.538 276.275 286.44 276.51 286.245 276.706C286.049 276.902 285.813 277 285.538 277Z" fill="var(--colors-neutral-neutral-800)"/>
<path d="M304 355.5H0V356.5H304V355.5Z" fill="var(--colors-neutral-neutral-400)"/>
<path d="M17.212 336V327.624H18.724V334.74H22.996V336H17.212ZM29.2887 336L29.2287 334.596V331.62C29.2287 331.204 29.0887 330.876 28.8087 330.636C28.5287 330.396 28.1407 330.276 27.6447 330.276C27.1727 330.276 26.7847 330.384 26.4807 330.6C26.1847 330.816 26.0167 331.112 25.9767 331.488H24.5847C24.6247 331.016 24.7767 330.612 25.0407 330.276C25.3127 329.94 25.6727 329.684 26.1207 329.508C26.5767 329.324 27.1007 329.232 27.6927 329.232C28.3007 329.232 28.8247 329.328 29.2647 329.52C29.7127 329.712 30.0567 329.992 30.2967 330.36C30.5367 330.728 30.6567 331.176 30.6567 331.704V336H29.2887ZM26.9847 336.144C26.5527 336.144 26.1687 336.064 25.8327 335.904C25.5047 335.744 25.2487 335.516 25.0647 335.22C24.8807 334.924 24.7887 334.58 24.7887 334.188C24.7887 333.508 25.0527 332.98 25.5807 332.604C26.1087 332.22 26.8407 332.028 27.7767 332.028H29.3967V333.06L27.7287 333.072C27.2487 333.072 26.8727 333.164 26.6007 333.348C26.3287 333.524 26.1927 333.78 26.1927 334.116C26.1927 334.38 26.2887 334.592 26.4807 334.752C26.6807 334.912 26.9527 334.992 27.2967 334.992C27.7367 334.992 28.1287 334.876 28.4727 334.644C28.8247 334.404 29.1087 334.076 29.3247 333.66L29.4807 334.668C29.2727 335.156 28.9567 335.524 28.5327 335.772C28.1087 336.02 27.5927 336.144 26.9847 336.144ZM34.8974 332.328L35.5094 333.996L36.1334 332.316L37.3814 329.376H38.8454L35.8214 336.516C35.6374 336.964 35.4294 337.316 35.1974 337.572C34.9734 337.828 34.7174 338.008 34.4294 338.112C34.1414 338.224 33.8094 338.28 33.4334 338.28H32.2454V337.116H33.3134C33.5294 337.116 33.7094 337.068 33.8534 336.972C34.0054 336.884 34.1414 336.748 34.2614 336.564C34.3814 336.388 34.4974 336.168 34.6094 335.904L34.7774 335.52L32.1734 329.376H33.6614L34.8974 332.328ZM43.3861 336.144C42.6901 336.144 42.0901 336.008 41.5861 335.736C41.0821 335.456 40.6941 335.056 40.4221 334.536C40.1581 334.016 40.0261 333.396 40.0261 332.676C40.0261 331.956 40.1621 331.34 40.4341 330.828C40.7061 330.308 41.0981 329.912 41.6101 329.64C42.1221 329.368 42.7341 329.232 43.4461 329.232C44.5501 329.232 45.3621 329.54 45.8821 330.156C46.4101 330.772 46.6381 331.616 46.5661 332.688H41.1661L41.1781 331.644L45.1021 331.656C45.0701 331.272 44.9021 330.964 44.5981 330.732C44.2941 330.5 43.9101 330.384 43.4461 330.384C42.7901 330.384 42.2941 330.588 41.9581 330.996C41.6221 331.404 41.4541 331.984 41.4541 332.736C41.4541 333.168 41.5301 333.556 41.6821 333.9C41.8341 334.236 42.0501 334.5 42.3301 334.692C42.6181 334.876 42.9701 334.968 43.3861 334.968C43.8581 334.968 44.2501 334.856 44.5621 334.632C44.8821 334.408 45.0781 334.108 45.1501 333.732H46.5901C46.4941 334.476 46.1581 335.064 45.5821 335.496C45.0141 335.928 44.2821 336.144 43.3861 336.144ZM52.7988 332.376V331.548C52.7988 331.22 52.6988 330.956 52.4988 330.756C52.3068 330.548 52.0268 330.444 51.6588 330.444C51.2108 330.444 50.8028 330.608 50.4348 330.936C50.0668 331.264 49.7588 331.78 49.5108 332.484L49.3308 331.14C49.5148 330.724 49.7308 330.376 49.9788 330.096C50.2348 329.808 50.5228 329.592 50.8428 329.448C51.1708 329.304 51.5268 329.232 51.9108 329.232C52.5908 329.232 53.1468 329.432 53.5788 329.832C54.0108 330.232 54.2268 330.804 54.2268 331.548V332.376H52.7988ZM48.3348 336V329.376H49.6908L49.7628 330.78V336H48.3348ZM59.0914 336.144C58.4994 336.144 57.9754 336.044 57.5194 335.844C57.0714 335.636 56.7234 335.344 56.4754 334.968C56.2274 334.592 56.0994 334.148 56.0914 333.636H57.4354C57.4274 334.084 57.5714 334.436 57.8674 334.692C58.1714 334.948 58.5794 335.076 59.0914 335.076C59.4994 335.076 59.8274 335 60.0754 334.848C60.3234 334.696 60.4474 334.488 60.4474 334.224C60.4474 334.016 60.3714 333.848 60.2194 333.72C60.0674 333.592 59.8634 333.492 59.6074 333.42C59.3594 333.348 59.0834 333.284 58.7794 333.228C58.4834 333.164 58.1834 333.092 57.8794 333.012C57.5754 332.924 57.2954 332.812 57.0394 332.676C56.7914 332.532 56.5914 332.344 56.4394 332.112C56.2874 331.88 56.2114 331.584 56.2114 331.224C56.2114 330.832 56.3194 330.488 56.5354 330.192C56.7594 329.888 57.0754 329.652 57.4834 329.484C57.8914 329.316 58.3714 329.232 58.9234 329.232C59.7554 329.232 60.4274 329.428 60.9394 329.82C61.4514 330.204 61.7274 330.736 61.7674 331.416H60.4354C60.4114 331.056 60.2634 330.78 59.9914 330.588C59.7274 330.396 59.3714 330.3 58.9234 330.3C58.5154 330.3 58.1994 330.38 57.9754 330.54C57.7594 330.7 57.6514 330.904 57.6514 331.152C57.6514 331.36 57.7274 331.52 57.8794 331.632C58.0394 331.744 58.2434 331.832 58.4914 331.896C58.7394 331.96 59.0154 332.02 59.3194 332.076C59.6234 332.124 59.9234 332.188 60.2194 332.268C60.5234 332.348 60.7994 332.46 61.0474 332.604C61.3034 332.74 61.5074 332.928 61.6594 333.168C61.8194 333.408 61.8994 333.72 61.8994 334.104C61.8994 334.736 61.6434 335.236 61.1314 335.604C60.6274 335.964 59.9474 336.144 59.0914 336.144Z" fill="var(--colors-neutral-neutral-800)"/>
<path d="M280 334.702L274.692 329.394L275.4 328.687L280 333.287L284.6 328.687L285.308 329.394L280 334.702Z" fill="var(--colors-neutral-neutral-800)"/>
</svg>
