<svg width="304" height="32" viewBox="0 0 304 32" fill="none" xmlns="http://www.w3.org/2000/svg">
<path d="M18.7396 13.751L21.2571 16.2695L18.7396 18.7871V13.751Z" fill="var(--colors-neutral-neutral-700)" stroke="var(--colors-neutral-neutral-700)" stroke-width="0.0166667"/>
<path d="M32.8807 19.5V12.2273H33.7614V18.7188H37.142V19.5H32.8807ZM39.9972 19.6278C39.6515 19.6278 39.3378 19.5627 39.0561 19.4325C38.7744 19.3 38.5507 19.1094 38.3849 18.8608C38.2192 18.6098 38.1364 18.3068 38.1364 17.9517C38.1364 17.6392 38.1979 17.3859 38.321 17.1918C38.4441 16.9953 38.6087 16.8414 38.8146 16.7301C39.0206 16.6188 39.2479 16.536 39.4964 16.4815C39.7474 16.4247 39.9995 16.3797 40.2528 16.3466C40.5843 16.304 40.853 16.272 41.0589 16.2507C41.2673 16.227 41.4188 16.188 41.5135 16.1335C41.6106 16.0791 41.6591 15.9844 41.6591 15.8494V15.821C41.6591 15.4706 41.5632 15.1984 41.3714 15.0043C41.1821 14.8101 40.8944 14.7131 40.5085 14.7131C40.1084 14.7131 39.7947 14.8007 39.5675 14.9759C39.3402 15.151 39.1804 15.3381 39.0881 15.5369L38.2926 15.2528C38.4347 14.9214 38.6241 14.6634 38.8608 14.4787C39.0999 14.2917 39.3603 14.1615 39.642 14.0881C39.9261 14.0123 40.2055 13.9744 40.4801 13.9744C40.6553 13.9744 40.8565 13.9957 41.0838 14.0384C41.3134 14.0786 41.5348 14.1626 41.7479 14.2905C41.9633 14.4183 42.142 14.6113 42.2841 14.8693C42.4261 15.1274 42.4972 15.473 42.4972 15.9062V19.5H41.6591V18.7614H41.6165C41.5597 18.8797 41.465 19.0064 41.3324 19.1413C41.1998 19.2763 41.0234 19.3911 40.8033 19.4858C40.5831 19.5805 40.3144 19.6278 39.9972 19.6278ZM40.125 18.875C40.4564 18.875 40.7358 18.8099 40.9631 18.6797C41.1927 18.5495 41.3655 18.3814 41.4815 18.1754C41.5999 17.9695 41.6591 17.7528 41.6591 17.5256V16.7585C41.6236 16.8011 41.5455 16.8402 41.4247 16.8757C41.3063 16.9089 41.169 16.9384 41.0128 16.9645C40.8589 16.9882 40.7086 17.0095 40.5618 17.0284C40.4174 17.045 40.3002 17.0592 40.2102 17.071C39.9924 17.0994 39.7888 17.1456 39.5994 17.2095C39.4124 17.2711 39.2609 17.3646 39.1449 17.4901C39.0313 17.6132 38.9744 17.7812 38.9744 17.9943C38.9744 18.2855 39.0821 18.5057 39.2976 18.6548C39.5154 18.8016 39.7912 18.875 40.125 18.875ZM44.1404 19.5V12.2273H44.9785V14.9119H45.0495C45.1111 14.8172 45.1963 14.6965 45.3052 14.5497C45.4165 14.4006 45.5751 14.268 45.7811 14.152C45.9894 14.0336 46.2711 13.9744 46.6262 13.9744C47.0855 13.9744 47.4904 14.0893 47.8407 14.3189C48.1911 14.5485 48.4645 14.8741 48.661 15.2955C48.8575 15.7169 48.9558 16.214 48.9558 16.7869C48.9558 17.3646 48.8575 17.8653 48.661 18.2891C48.4645 18.7105 48.1923 19.0372 47.8443 19.2692C47.4963 19.4988 47.095 19.6136 46.6404 19.6136C46.2901 19.6136 46.0095 19.5556 45.7988 19.4396C45.5881 19.3213 45.426 19.1875 45.3123 19.0384C45.1987 18.8868 45.1111 18.7614 45.0495 18.6619H44.9501V19.5H44.1404ZM44.9643 16.7727C44.9643 17.1847 45.0247 17.5481 45.1454 17.8629C45.2662 18.1754 45.4425 18.4205 45.6745 18.598C45.9065 18.7732 46.1906 18.8608 46.5268 18.8608C46.8772 18.8608 47.1696 18.7685 47.4039 18.5838C47.6407 18.3968 47.8182 18.1458 47.9366 17.831C48.0574 17.5137 48.1177 17.161 48.1177 16.7727C48.1177 16.3892 48.0585 16.0436 47.9402 15.7358C47.8242 15.4257 47.6478 15.1806 47.411 15.0007C47.1767 14.8184 46.8819 14.7273 46.5268 14.7273C46.1859 14.7273 45.8994 14.8137 45.6674 14.9865C45.4354 15.157 45.2602 15.3961 45.1419 15.7038C45.0235 16.0092 44.9643 16.3655 44.9643 16.7727ZM52.5247 19.6136C51.9991 19.6136 51.5458 19.4976 51.1646 19.2656C50.7858 19.0312 50.4934 18.7045 50.2875 18.2855C50.0839 17.8641 49.9821 17.3741 49.9821 16.8153C49.9821 16.2566 50.0839 15.7642 50.2875 15.3381C50.4934 14.9096 50.7799 14.5758 51.1468 14.3366C51.5162 14.0952 51.947 13.9744 52.4395 13.9744C52.7235 13.9744 53.0041 14.0218 53.2811 14.1165C53.5581 14.2112 53.8102 14.3651 54.0375 14.5781C54.2647 14.7888 54.4458 15.0682 54.5808 15.4162C54.7157 15.7642 54.7832 16.1927 54.7832 16.7017V17.0568H50.5787V16.3324H53.9309C53.9309 16.0246 53.8694 15.75 53.7463 15.5085C53.6255 15.267 53.4527 15.0765 53.2278 14.9368C53.0053 14.7971 52.7425 14.7273 52.4395 14.7273C52.1056 14.7273 51.8168 14.8101 51.573 14.9759C51.3315 15.1392 51.1457 15.3523 51.0154 15.6151C50.8852 15.8778 50.8201 16.1596 50.8201 16.4602V16.9432C50.8201 17.3551 50.8912 17.7043 51.0332 17.9908C51.1776 18.2749 51.3777 18.4915 51.6333 18.6406C51.889 18.7874 52.1861 18.8608 52.5247 18.8608C52.7449 18.8608 52.9437 18.83 53.1213 18.7685C53.3012 18.7045 53.4563 18.6098 53.5865 18.4844C53.7167 18.3565 53.8173 18.1979 53.8883 18.0085L54.698 18.2358C54.6127 18.5104 54.4695 18.7519 54.2683 18.9602C54.0671 19.1662 53.8185 19.3272 53.5225 19.4432C53.2266 19.5568 52.894 19.6136 52.5247 19.6136ZM56.8961 12.2273V19.5H56.0581V12.2273H56.8961Z" fill="var(--colors-neutral-neutral-800)"/>
</svg>
