<svg width="288" height="72" viewBox="0 0 288 72" fill="none" xmlns="http://www.w3.org/2000/svg">
<path d="M6.69389 8.22727V15.5H5.52202L2.09517 10.5462H2.0348V15.5H0.71733V8.22727H1.89631L5.3196 13.1847H5.38352V8.22727H6.69389ZM10.4519 15.6065C9.91921 15.6065 9.45756 15.4893 9.06694 15.255C8.67631 15.0206 8.37328 14.6927 8.15785 14.2713C7.94478 13.8499 7.83825 13.3575 7.83825 12.794C7.83825 12.2306 7.94478 11.737 8.15785 11.3132C8.37328 10.8894 8.67631 10.5604 9.06694 10.326C9.45756 10.0916 9.91921 9.97443 10.4519 9.97443C10.9846 9.97443 11.4462 10.0916 11.8368 10.326C12.2275 10.5604 12.5293 10.8894 12.7424 11.3132C12.9578 11.737 13.0655 12.2306 13.0655 12.794C13.0655 13.3575 12.9578 13.8499 12.7424 14.2713C12.5293 14.6927 12.2275 15.0206 11.8368 15.255C11.4462 15.4893 10.9846 15.6065 10.4519 15.6065ZM10.459 14.5767C10.7478 14.5767 10.9893 14.4974 11.1834 14.3388C11.3775 14.1778 11.522 13.9624 11.6167 13.6925C11.7137 13.4226 11.7623 13.1219 11.7623 12.7905C11.7623 12.4567 11.7137 12.1548 11.6167 11.8849C11.522 11.6127 11.3775 11.3961 11.1834 11.2351C10.9893 11.0741 10.7478 10.9936 10.459 10.9936C10.1631 10.9936 9.91684 11.0741 9.72035 11.2351C9.52622 11.3961 9.38062 11.6127 9.28356 11.8849C9.18886 12.1548 9.14151 12.4567 9.14151 12.7905C9.14151 13.1219 9.18886 13.4226 9.28356 13.6925C9.38062 13.9624 9.52622 14.1778 9.72035 14.3388C9.91684 14.4974 10.1631 14.5767 10.459 14.5767ZM20.9482 11.4872L19.7763 11.6151C19.7431 11.4967 19.6851 11.3854 19.6023 11.2812C19.5218 11.1771 19.4129 11.093 19.2756 11.0291C19.1383 10.9652 18.9702 10.9332 18.7713 10.9332C18.5038 10.9332 18.2789 10.9912 18.0966 11.1072C17.9167 11.2232 17.8279 11.3736 17.8303 11.5582C17.8279 11.7169 17.8859 11.8459 18.0043 11.9453C18.125 12.0447 18.3239 12.1264 18.6009 12.1903L19.5312 12.3892C20.0473 12.5005 20.4309 12.6768 20.6818 12.9183C20.9351 13.1598 21.063 13.4759 21.0653 13.8665C21.063 14.2098 20.9624 14.5128 20.7635 14.7756C20.567 15.036 20.2936 15.2396 19.9432 15.3864C19.5928 15.5331 19.1903 15.6065 18.7358 15.6065C18.0682 15.6065 17.5308 15.4669 17.1236 15.1875C16.7164 14.9058 16.4737 14.514 16.3956 14.0121L17.6491 13.8913C17.706 14.1375 17.8267 14.3234 18.0114 14.4489C18.196 14.5743 18.4363 14.6371 18.7322 14.6371C19.0376 14.6371 19.2827 14.5743 19.4673 14.4489C19.6544 14.3234 19.7479 14.1683 19.7479 13.9837C19.7479 13.8274 19.6875 13.6984 19.5668 13.5966C19.4484 13.4948 19.2637 13.4167 19.0128 13.3622L18.0824 13.1669C17.5592 13.058 17.1721 12.8745 16.9212 12.6165C16.6702 12.3561 16.5459 12.027 16.5483 11.6293C16.5459 11.2931 16.6371 11.0019 16.8217 10.7557C17.0088 10.5071 17.268 10.3153 17.5994 10.1804C17.9332 10.0431 18.3179 9.97443 18.7536 9.97443C19.3928 9.97443 19.8958 10.1106 20.2628 10.3828C20.6321 10.6551 20.8606 11.0232 20.9482 11.4872ZM24.5046 15.6065C23.9601 15.6065 23.4925 15.487 23.1019 15.2479C22.7137 15.0088 22.4142 14.6785 22.2035 14.2571C21.9951 13.8333 21.891 13.3456 21.891 12.794C21.891 12.2401 21.9975 11.7512 22.2106 11.3274C22.4237 10.9013 22.7243 10.5698 23.1126 10.3331C23.5032 10.094 23.9648 9.97443 24.4975 9.97443C24.9402 9.97443 25.332 10.0561 25.6729 10.2195C26.0162 10.3804 26.2897 10.6089 26.4933 10.9048C26.6969 11.1984 26.8129 11.5417 26.8413 11.9347H25.6126C25.5629 11.6719 25.4445 11.4529 25.2575 11.2777C25.0728 11.1001 24.8254 11.0114 24.5153 11.0114C24.2525 11.0114 24.0217 11.0824 23.8228 11.2244C23.6239 11.3641 23.4689 11.5653 23.3576 11.8281C23.2487 12.0909 23.1942 12.4058 23.1942 12.7727C23.1942 13.1444 23.2487 13.464 23.3576 13.7315C23.4665 13.9967 23.6192 14.2015 23.8157 14.3459C24.0146 14.4879 24.2478 14.5589 24.5153 14.5589C24.7047 14.5589 24.8739 14.5234 25.0231 14.4524C25.1746 14.379 25.3013 14.2737 25.4031 14.1364C25.5049 13.9991 25.5747 13.8321 25.6126 13.6357H26.8413C26.8105 14.0215 26.6969 14.3636 26.5004 14.6619C26.3039 14.9579 26.0363 15.1899 25.6978 15.358C25.3593 15.5237 24.9615 15.6065 24.5046 15.6065ZM29.4664 15.6101C29.1208 15.6101 28.8095 15.5485 28.5325 15.4254C28.2579 15.3 28.0401 15.1153 27.8791 14.8714C27.7205 14.6276 27.6412 14.3269 27.6412 13.9695C27.6412 13.6617 27.698 13.4072 27.8116 13.206C27.9252 13.0047 28.0803 12.8438 28.2768 12.723C28.4733 12.6023 28.6947 12.5111 28.9409 12.4496C29.1895 12.3857 29.4463 12.3395 29.7115 12.3111C30.0311 12.2779 30.2903 12.2483 30.4892 12.2223C30.688 12.1939 30.8324 12.1513 30.9224 12.0945C31.0147 12.0353 31.0609 11.9441 31.0609 11.821V11.7997C31.0609 11.5322 30.9816 11.325 30.823 11.1783C30.6644 11.0315 30.4359 10.9581 30.1376 10.9581C29.8227 10.9581 29.573 11.0268 29.3883 11.1641C29.206 11.3014 29.0829 11.4635 29.019 11.6506L27.8187 11.4801C27.9134 11.1487 28.0697 10.8717 28.2875 10.6491C28.5053 10.4242 28.7716 10.2562 29.0865 10.1449C29.4013 10.0312 29.7493 9.97443 30.1305 9.97443C30.3933 9.97443 30.6549 10.0052 30.9153 10.0668C31.1757 10.1283 31.4136 10.2301 31.6291 10.3722C31.8445 10.5118 32.0173 10.7024 32.1475 10.9439C32.2801 11.1854 32.3464 11.4872 32.3464 11.8494V15.5H31.1106V14.7507H31.068C30.9899 14.9022 30.8798 15.0443 30.7377 15.1768C30.5981 15.3071 30.4217 15.4124 30.2086 15.4929C29.9979 15.571 29.7505 15.6101 29.4664 15.6101ZM29.8002 14.6655C30.0583 14.6655 30.282 14.6146 30.4714 14.5128C30.6608 14.4086 30.8064 14.2713 30.9082 14.1009C31.0124 13.9304 31.0645 13.7446 31.0645 13.5433V12.9006C31.0242 12.9337 30.9556 12.9645 30.8585 12.9929C30.7638 13.0213 30.6573 13.0462 30.5389 13.0675C30.4205 13.0888 30.3033 13.1077 30.1873 13.1243C30.0713 13.1409 29.9707 13.1551 29.8855 13.1669C29.6937 13.1929 29.5221 13.2356 29.3706 13.2947C29.219 13.3539 29.0995 13.4368 29.0119 13.5433C28.9243 13.6475 28.8805 13.7824 28.8805 13.9482C28.8805 14.1849 28.9669 14.3636 29.1397 14.4844C29.3126 14.6051 29.5327 14.6655 29.8002 14.6655ZM34.9245 8.22727V15.5H33.639V8.22727H34.9245ZM38.6612 15.6065C38.1143 15.6065 37.642 15.4929 37.2443 15.2656C36.849 15.036 36.5447 14.7116 36.3317 14.2926C36.1186 13.8712 36.0121 13.3752 36.0121 12.8047C36.0121 12.2436 36.1186 11.7512 36.3317 11.3274C36.5471 10.9013 36.8478 10.5698 37.2337 10.3331C37.6196 10.094 38.0729 9.97443 38.5938 9.97443C38.9299 9.97443 39.2472 10.0289 39.5455 10.1378C39.8461 10.2443 40.1113 10.41 40.3409 10.6349C40.5729 10.8598 40.7552 11.1463 40.8878 11.4943C41.0204 11.84 41.0866 12.2519 41.0866 12.7301V13.1243H36.6158V12.2578H39.8544C39.852 12.0116 39.7988 11.7926 39.6946 11.6009C39.5904 11.4067 39.4448 11.254 39.2578 11.1428C39.0732 11.0315 38.8577 10.9759 38.6115 10.9759C38.3487 10.9759 38.1179 11.0398 37.919 11.1676C37.7202 11.2931 37.5651 11.4588 37.4538 11.6648C37.3449 11.8684 37.2893 12.0921 37.2869 12.3359V13.0923C37.2869 13.4096 37.3449 13.6818 37.4609 13.9091C37.5769 14.134 37.7391 14.3068 37.9474 14.4276C38.1558 14.5459 38.3996 14.6051 38.679 14.6051C38.866 14.6051 39.0353 14.5791 39.1868 14.527C39.3383 14.4725 39.4697 14.3932 39.581 14.2891C39.6922 14.1849 39.7763 14.0559 39.8331 13.902L41.0334 14.0369C40.9576 14.3542 40.8132 14.6312 40.6001 14.8679C40.3894 15.1023 40.1196 15.2846 39.7905 15.4148C39.4614 15.5426 39.085 15.6065 38.6612 15.6065ZM48.9657 11.4872L47.7939 11.6151C47.7607 11.4967 47.7027 11.3854 47.6199 11.2812C47.5394 11.1771 47.4305 11.093 47.2931 11.0291C47.1558 10.9652 46.9877 10.9332 46.7889 10.9332C46.5214 10.9332 46.2965 10.9912 46.1142 11.1072C45.9342 11.2232 45.8455 11.3736 45.8478 11.5582C45.8455 11.7169 45.9035 11.8459 46.0218 11.9453C46.1426 12.0447 46.3414 12.1264 46.6184 12.1903L47.5488 12.3892C48.0649 12.5005 48.4484 12.6768 48.6994 12.9183C48.9527 13.1598 49.0806 13.4759 49.0829 13.8665C49.0806 14.2098 48.9799 14.5128 48.7811 14.7756C48.5846 15.036 48.3111 15.2396 47.9608 15.3864C47.6104 15.5331 47.2079 15.6065 46.7534 15.6065C46.0858 15.6065 45.5484 15.4669 45.1412 15.1875C44.734 14.9058 44.4913 14.514 44.4132 14.0121L45.6667 13.8913C45.7235 14.1375 45.8443 14.3234 46.0289 14.4489C46.2136 14.5743 46.4539 14.6371 46.7498 14.6371C47.0552 14.6371 47.3002 14.5743 47.4849 14.4489C47.6719 14.3234 47.7654 14.1683 47.7654 13.9837C47.7654 13.8274 47.7051 13.6984 47.5843 13.5966C47.466 13.4948 47.2813 13.4167 47.0304 13.3622L46.1 13.1669C45.5768 13.058 45.1897 12.8745 44.9387 12.6165C44.6878 12.3561 44.5635 12.027 44.5659 11.6293C44.5635 11.2931 44.6547 11.0019 44.8393 10.7557C45.0263 10.5071 45.2856 10.3153 45.617 10.1804C45.9508 10.0431 46.3355 9.97443 46.7711 9.97443C47.4103 9.97443 47.9134 10.1106 48.2804 10.3828C48.6497 10.6551 48.8781 11.0232 48.9657 11.4872ZM52.5577 15.6065C52.0108 15.6065 51.5385 15.4929 51.1408 15.2656C50.7454 15.036 50.4412 14.7116 50.2282 14.2926C50.0151 13.8712 49.9086 13.3752 49.9086 12.8047C49.9086 12.2436 50.0151 11.7512 50.2282 11.3274C50.4436 10.9013 50.7443 10.5698 51.1301 10.3331C51.516 10.094 51.9694 9.97443 52.4902 9.97443C52.8264 9.97443 53.1436 10.0289 53.4419 10.1378C53.7426 10.2443 54.0078 10.41 54.2374 10.6349C54.4694 10.8598 54.6517 11.1463 54.7843 11.4943C54.9168 11.84 54.9831 12.2519 54.9831 12.7301V13.1243H50.5123V12.2578H53.7509C53.7485 12.0116 53.6953 11.7926 53.5911 11.6009C53.4869 11.4067 53.3413 11.254 53.1543 11.1428C52.9696 11.0315 52.7542 10.9759 52.508 10.9759C52.2452 10.9759 52.0144 11.0398 51.8155 11.1676C51.6167 11.2931 51.4616 11.4588 51.3503 11.6648C51.2414 11.8684 51.1858 12.0921 51.1834 12.3359V13.0923C51.1834 13.4096 51.2414 13.6818 51.3574 13.9091C51.4734 14.134 51.6356 14.3068 51.8439 14.4276C52.0523 14.5459 52.2961 14.6051 52.5755 14.6051C52.7625 14.6051 52.9318 14.5791 53.0833 14.527C53.2348 14.4725 53.3662 14.3932 53.4775 14.2891C53.5887 14.1849 53.6728 14.0559 53.7296 13.902L54.9299 14.0369C54.8541 14.3542 54.7097 14.6312 54.4966 14.8679C54.2859 15.1023 54.016 15.2846 53.687 15.4148C53.3579 15.5426 52.9815 15.6065 52.5577 15.6065ZM58.7944 10.0455V11.0398H55.6587V10.0455H58.7944ZM56.4329 8.73864H57.7184V13.8594C57.7184 14.0322 57.7444 14.1648 57.7965 14.2571C57.851 14.3471 57.922 14.4086 58.0096 14.4418C58.0972 14.4749 58.1942 14.4915 58.3008 14.4915C58.3813 14.4915 58.4547 14.4856 58.521 14.4737C58.5896 14.4619 58.6417 14.4512 58.6772 14.4418L58.8938 15.4467C58.8252 15.4704 58.7269 15.4964 58.5991 15.5249C58.4736 15.5533 58.3197 15.5698 58.1374 15.5746C57.8155 15.584 57.5254 15.5355 57.2674 15.429C57.0094 15.3201 56.8046 15.152 56.6531 14.9247C56.5039 14.6974 56.4305 14.4134 56.4329 14.0724V8.73864ZM61.4426 8.22727L61.3255 13.3622H60.182L60.0684 8.22727H61.4426ZM60.7537 15.5781C60.5383 15.5781 60.3536 15.5024 60.1998 15.3509C60.0482 15.1993 59.9725 15.0147 59.9725 14.7969C59.9725 14.5838 60.0482 14.4015 60.1998 14.25C60.3536 14.0985 60.5383 14.0227 60.7537 14.0227C60.9644 14.0227 61.1467 14.0985 61.3006 14.25C61.4569 14.4015 61.535 14.5838 61.535 14.7969C61.535 14.9413 61.4983 15.0727 61.4249 15.1911C61.3539 15.3094 61.2592 15.4041 61.1408 15.4751C61.0248 15.5438 60.8958 15.5781 60.7537 15.5781Z" fill="var(--colors-neutral-neutral-800)"/>
<path d="M268.615 17C268.155 17 267.771 16.8458 267.463 16.5375C267.154 16.2292 267 15.8449 267 15.3846V8.61537C267 8.15512 267.154 7.77083 267.463 7.4625C267.771 7.15417 268.155 7 268.615 7H283.385C283.845 7 284.229 7.15417 284.538 7.4625C284.846 7.77083 285 8.15512 285 8.61537V15.3846C285 15.8449 284.846 16.2292 284.538 16.5375C284.229 16.8458 283.845 17 283.385 17H268.615ZM268.615 16H283.385C283.538 16 283.679 15.9359 283.808 15.8077C283.936 15.6795 284 15.5385 284 15.3846V8.61537C284 8.46154 283.936 8.32052 283.808 8.1923C283.679 8.0641 283.538 8 283.385 8H280.5V11.2308H279.5V8H276.5V11.2308H275.5V8H272.5V11.2308H271.5V8H268.615C268.462 8 268.321 8.0641 268.192 8.1923C268.064 8.32052 268 8.46154 268 8.61537V15.3846C268 15.5385 268.064 15.6795 268.192 15.8077C268.321 15.9359 268.462 16 268.615 16Z" fill="var(--colors-neutral-neutral-800)"/>
<path d="M0.880682 51.5V44.2273H3.33807C3.90625 44.2273 4.37263 44.3243 4.73722 44.5185C5.1018 44.7102 5.37169 44.9742 5.54688 45.3104C5.72206 45.6465 5.80966 46.0289 5.80966 46.4574C5.80966 46.8859 5.72206 47.2659 5.54688 47.5973C5.37169 47.9287 5.10298 48.1892 4.74077 48.3786C4.37855 48.5656 3.91572 48.6591 3.35227 48.6591H1.36364V47.8636H3.32386C3.71212 47.8636 4.02462 47.8068 4.26136 47.6932C4.50047 47.5795 4.6733 47.4186 4.77983 47.2102C4.88873 46.9995 4.94318 46.7486 4.94318 46.4574C4.94318 46.1662 4.88873 45.9117 4.77983 45.6939C4.67093 45.4761 4.49692 45.308 4.25781 45.1896C4.0187 45.0689 3.70265 45.0085 3.30966 45.0085H1.76136V51.5H0.880682ZM4.30398 48.233L6.09375 51.5H5.07102L3.30966 48.233H4.30398ZM9.39187 51.6136C8.8663 51.6136 8.41294 51.4976 8.03178 51.2656C7.65299 51.0312 7.36062 50.7045 7.15465 50.2855C6.95105 49.8641 6.84925 49.3741 6.84925 48.8153C6.84925 48.2566 6.95105 47.7642 7.15465 47.3381C7.36062 46.9096 7.64708 46.5758 8.01403 46.3366C8.38335 46.0952 8.81422 45.9744 9.30664 45.9744C9.59073 45.9744 9.87127 46.0218 10.1483 46.1165C10.4252 46.2112 10.6774 46.3651 10.9047 46.5781C11.1319 46.7888 11.313 47.0682 11.448 47.4162C11.5829 47.7642 11.6504 48.1927 11.6504 48.7017V49.0568H7.44585V48.3324H10.7981C10.7981 48.0246 10.7366 47.75 10.6135 47.5085C10.4927 47.267 10.3199 47.0765 10.095 46.9368C9.87246 46.7971 9.60967 46.7273 9.30664 46.7273C8.97283 46.7273 8.68401 46.8101 8.44016 46.9759C8.19869 47.1392 8.01284 47.3523 7.88263 47.6151C7.75243 47.8778 7.68732 48.1596 7.68732 48.4602V48.9432C7.68732 49.3551 7.75835 49.7043 7.90039 49.9908C8.0448 50.2749 8.24485 50.4915 8.50053 50.6406C8.75621 50.7874 9.05333 50.8608 9.39187 50.8608C9.61204 50.8608 9.8109 50.83 9.98846 50.7685C10.1684 50.7045 10.3234 50.6098 10.4537 50.4844C10.5839 50.3565 10.6845 50.1979 10.7555 50.0085L11.5652 50.2358C11.4799 50.5104 11.3367 50.7519 11.1355 50.9602C10.9342 51.1662 10.6857 51.3272 10.3897 51.4432C10.0938 51.5568 9.76119 51.6136 9.39187 51.6136ZM14.5304 51.6278C14.1847 51.6278 13.871 51.5627 13.5893 51.4325C13.3076 51.3 13.0839 51.1094 12.9181 50.8608C12.7524 50.6098 12.6696 50.3068 12.6696 49.9517C12.6696 49.6392 12.7311 49.3859 12.8542 49.1918C12.9773 48.9953 13.1419 48.8414 13.3478 48.7301C13.5538 48.6188 13.7811 48.536 14.0297 48.4815C14.2806 48.4247 14.5327 48.3797 14.786 48.3466C15.1175 48.304 15.3862 48.272 15.5922 48.2507C15.8005 48.227 15.952 48.188 16.0467 48.1335C16.1438 48.0791 16.1923 47.9844 16.1923 47.8494V47.821C16.1923 47.4706 16.0964 47.1984 15.9047 47.0043C15.7153 46.8101 15.4276 46.7131 15.0417 46.7131C14.6416 46.7131 14.3279 46.8007 14.1007 46.9759C13.8734 47.151 13.7136 47.3381 13.6213 47.5369L12.8258 47.2528C12.9679 46.9214 13.1573 46.6634 13.394 46.4787C13.6331 46.2917 13.8935 46.1615 14.1752 46.0881C14.4593 46.0123 14.7387 45.9744 15.0133 45.9744C15.1885 45.9744 15.3897 45.9957 15.617 46.0384C15.8467 46.0786 16.068 46.1626 16.2811 46.2905C16.4965 46.4183 16.6752 46.6113 16.8173 46.8693C16.9593 47.1274 17.0304 47.473 17.0304 47.9062V51.5H16.1923V50.7614H16.1497C16.0929 50.8797 15.9982 51.0064 15.8656 51.1413C15.733 51.2763 15.5566 51.3911 15.3365 51.4858C15.1163 51.5805 14.8476 51.6278 14.5304 51.6278ZM14.6582 50.875C14.9896 50.875 15.269 50.8099 15.4963 50.6797C15.7259 50.5495 15.8987 50.3814 16.0147 50.1754C16.1331 49.9695 16.1923 49.7528 16.1923 49.5256V48.7585C16.1568 48.8011 16.0787 48.8402 15.9579 48.8757C15.8395 48.9089 15.7022 48.9384 15.546 48.9645C15.3921 48.9882 15.2418 49.0095 15.095 49.0284C14.9506 49.045 14.8334 49.0592 14.7434 49.071C14.5256 49.0994 14.322 49.1456 14.1326 49.2095C13.9456 49.2711 13.7941 49.3646 13.6781 49.4901C13.5645 49.6132 13.5076 49.7812 13.5076 49.9943C13.5076 50.2855 13.6154 50.5057 13.8308 50.6548C14.0486 50.8016 14.3244 50.875 14.6582 50.875ZM19.3981 44.2273V51.5H18.56V44.2273H19.3981ZM25.8052 51.6136C25.3507 51.6136 24.9494 51.4988 24.6014 51.2692C24.2534 51.0372 23.9811 50.7105 23.7846 50.2891C23.5881 49.8653 23.4899 49.3646 23.4899 48.7869C23.4899 48.214 23.5881 47.7169 23.7846 47.2955C23.9811 46.8741 24.2546 46.5485 24.6049 46.3189C24.9553 46.0893 25.3601 45.9744 25.8194 45.9744C26.1745 45.9744 26.4551 46.0336 26.661 46.152C26.8694 46.268 27.028 46.4006 27.1369 46.5497C27.2482 46.6965 27.3346 46.8172 27.3961 46.9119H27.4672V44.2273H28.3052V51.5H27.4956V50.6619H27.3961C27.3346 50.7614 27.247 50.8868 27.1333 51.0384C27.0197 51.1875 26.8575 51.3213 26.6468 51.4396C26.4361 51.5556 26.1556 51.6136 25.8052 51.6136ZM25.9189 50.8608C26.255 50.8608 26.5391 50.7732 26.7711 50.598C27.0031 50.4205 27.1795 50.1754 27.3002 49.8629C27.421 49.5481 27.4814 49.1847 27.4814 48.7727C27.4814 48.3655 27.4222 48.0092 27.3038 47.7038C27.1854 47.3961 27.0102 47.157 26.7782 46.9865C26.5462 46.8137 26.2598 46.7273 25.9189 46.7273C25.5637 46.7273 25.2678 46.8184 25.0311 47.0007C24.7967 47.1806 24.6203 47.4257 24.502 47.7358C24.3859 48.0436 24.3279 48.3892 24.3279 48.7727C24.3279 49.161 24.3871 49.5137 24.5055 49.831C24.6262 50.1458 24.8038 50.3968 25.0382 50.5838C25.2749 50.7685 25.5685 50.8608 25.9189 50.8608ZM29.9565 51.5V46.0455H30.7946V51.5H29.9565ZM30.3826 45.1364C30.2193 45.1364 30.0784 45.0807 29.96 44.9695C29.844 44.8582 29.786 44.7244 29.786 44.5682C29.786 44.4119 29.844 44.2782 29.96 44.1669C30.0784 44.0556 30.2193 44 30.3826 44C30.546 44 30.6857 44.0556 30.8017 44.1669C30.92 44.2782 30.9792 44.4119 30.9792 44.5682C30.9792 44.7244 30.92 44.8582 30.8017 44.9695C30.6857 45.0807 30.546 45.1364 30.3826 45.1364ZM32.3295 51.5V46.0455H33.1392V46.8977H33.2102C33.3239 46.6065 33.5073 46.3804 33.7607 46.2195C34.014 46.0561 34.3182 45.9744 34.6733 45.9744C35.0331 45.9744 35.3326 46.0561 35.5717 46.2195C35.8132 46.3804 36.0014 46.6065 36.1364 46.8977H36.1932C36.3329 46.616 36.5424 46.3923 36.8217 46.2266C37.1011 46.0585 37.4361 45.9744 37.8267 45.9744C38.3144 45.9744 38.7133 46.1271 39.0234 46.4325C39.3336 46.7356 39.4886 47.2079 39.4886 47.8494V51.5H38.6506V47.8494C38.6506 47.447 38.5405 47.1593 38.3203 46.9865C38.1001 46.8137 37.8409 46.7273 37.5426 46.7273C37.1591 46.7273 36.862 46.8433 36.6513 47.0753C36.4406 47.3049 36.3352 47.5961 36.3352 47.9489V51.5H35.483V47.7642C35.483 47.4541 35.3823 47.2043 35.1811 47.0149C34.9799 46.8232 34.7206 46.7273 34.4034 46.7273C34.1856 46.7273 33.982 46.7853 33.7926 46.9013C33.6056 47.0173 33.4541 47.1783 33.3381 47.3842C33.2244 47.5878 33.1676 47.8234 33.1676 48.0909V51.5H32.3295ZM43.3079 51.6136C42.7823 51.6136 42.329 51.4976 41.9478 51.2656C41.569 51.0312 41.2766 50.7045 41.0707 50.2855C40.8671 49.8641 40.7653 49.3741 40.7653 48.8153C40.7653 48.2566 40.8671 47.7642 41.0707 47.3381C41.2766 46.9096 41.5631 46.5758 41.93 46.3366C42.2994 46.0952 42.7302 45.9744 43.2227 45.9744C43.5067 45.9744 43.7873 46.0218 44.0643 46.1165C44.3413 46.2112 44.5934 46.3651 44.8207 46.5781C45.0479 46.7888 45.229 47.0682 45.364 47.4162C45.4989 47.7642 45.5664 48.1927 45.5664 48.7017V49.0568H41.3619V48.3324H44.7141C44.7141 48.0246 44.6526 47.75 44.5295 47.5085C44.4087 47.267 44.2359 47.0765 44.011 46.9368C43.7885 46.7971 43.5257 46.7273 43.2227 46.7273C42.8888 46.7273 42.6 46.8101 42.3562 46.9759C42.1147 47.1392 41.9289 47.3523 41.7987 47.6151C41.6684 47.8778 41.6033 48.1596 41.6033 48.4602V48.9432C41.6033 49.3551 41.6744 49.7043 41.8164 49.9908C41.9608 50.2749 42.1609 50.4915 42.4165 50.6406C42.6722 50.7874 42.9693 50.8608 43.3079 50.8608C43.5281 50.8608 43.7269 50.83 43.9045 50.7685C44.0844 50.7045 44.2395 50.6098 44.3697 50.4844C44.4999 50.3565 44.6005 50.1979 44.6715 50.0085L45.4812 50.2358C45.396 50.5104 45.2527 50.7519 45.0515 50.9602C44.8503 51.1662 44.6017 51.3272 44.3058 51.4432C44.0098 51.5568 43.6772 51.6136 43.3079 51.6136ZM47.6793 48.2188V51.5H46.8413V46.0455H47.6509V46.8977H47.7219C47.8498 46.6207 48.0439 46.3982 48.3043 46.2301C48.5647 46.0597 48.9009 45.9744 49.3129 45.9744C49.6822 45.9744 50.0053 46.0502 50.2823 46.2017C50.5593 46.3509 50.7747 46.5781 50.9286 46.8835C51.0825 47.1866 51.1594 47.5701 51.1594 48.0341V51.5H50.3214V48.0909C50.3214 47.6624 50.2101 47.3286 49.9876 47.0895C49.765 46.848 49.4596 46.7273 49.0714 46.7273C48.8039 46.7273 48.5647 46.7853 48.354 46.9013C48.1457 47.0173 47.9812 47.1866 47.8604 47.4091C47.7397 47.6316 47.6793 47.9015 47.6793 48.2188ZM56.5545 47.267L55.8017 47.4801C55.7543 47.3546 55.6845 47.2327 55.5922 47.1143C55.5022 46.9936 55.3791 46.8942 55.2228 46.8161C55.0666 46.7379 54.8665 46.6989 54.6227 46.6989C54.2889 46.6989 54.0107 46.7758 53.7882 46.9297C53.568 47.0812 53.4579 47.2741 53.4579 47.5085C53.4579 47.7169 53.5337 47.8814 53.6852 48.0021C53.8367 48.1229 54.0734 48.2235 54.3954 48.304L55.2051 48.5028C55.6928 48.6212 56.0562 48.8023 56.2953 49.0462C56.5344 49.2876 56.6539 49.599 56.6539 49.9801C56.6539 50.2926 56.564 50.572 56.3841 50.8182C56.2065 51.0644 55.9579 51.2585 55.6383 51.4006C55.3187 51.5426 54.947 51.6136 54.5233 51.6136C53.9669 51.6136 53.5065 51.4929 53.1419 51.2514C52.7773 51.0099 52.5465 50.6572 52.4494 50.1932L53.2449 49.9943C53.3206 50.2879 53.4638 50.508 53.6745 50.6548C53.8876 50.8016 54.1658 50.875 54.5091 50.875C54.8997 50.875 55.2098 50.7921 55.4395 50.6264C55.6715 50.4583 55.7875 50.2571 55.7875 50.0227C55.7875 49.8333 55.7212 49.6747 55.5886 49.5469C55.456 49.4167 55.2524 49.3196 54.9778 49.2557L54.0687 49.0426C53.5692 48.9242 53.2022 48.7408 52.9679 48.4922C52.7359 48.2412 52.6199 47.9276 52.6199 47.5511C52.6199 47.2434 52.7063 46.9711 52.8791 46.7344C53.0543 46.4976 53.2922 46.3118 53.5929 46.1768C53.8959 46.0419 54.2392 45.9744 54.6227 45.9744C55.1625 45.9744 55.5862 46.0928 55.894 46.3295C56.2041 46.5663 56.4243 46.8788 56.5545 47.267ZM57.9155 51.5V46.0455H58.7536V51.5H57.9155ZM58.3416 45.1364C58.1783 45.1364 58.0374 45.0807 57.919 44.9695C57.803 44.8582 57.745 44.7244 57.745 44.5682C57.745 44.4119 57.803 44.2782 57.919 44.1669C58.0374 44.0556 58.1783 44 58.3416 44C58.505 44 58.6446 44.0556 58.7607 44.1669C58.879 44.2782 58.9382 44.4119 58.9382 44.5682C58.9382 44.7244 58.879 44.8582 58.7607 44.9695C58.6446 45.0807 58.505 45.1364 58.3416 45.1364ZM62.5044 51.6136C62.012 51.6136 61.58 51.4964 61.2083 51.2621C60.839 51.0277 60.5501 50.6998 60.3418 50.2784C60.1358 49.857 60.0328 49.3646 60.0328 48.8011C60.0328 48.233 60.1358 47.737 60.3418 47.3132C60.5501 46.8894 60.839 46.5604 61.2083 46.326C61.58 46.0916 62.012 45.9744 62.5044 45.9744C62.9969 45.9744 63.4277 46.0916 63.7971 46.326C64.1687 46.5604 64.4576 46.8894 64.6635 47.3132C64.8719 47.737 64.976 48.233 64.976 48.8011C64.976 49.3646 64.8719 49.857 64.6635 50.2784C64.4576 50.6998 64.1687 51.0277 63.7971 51.2621C63.4277 51.4964 62.9969 51.6136 62.5044 51.6136ZM62.5044 50.8608C62.8785 50.8608 63.1863 50.7649 63.4277 50.5732C63.6692 50.3814 63.848 50.1293 63.964 49.8168C64.08 49.5043 64.138 49.1657 64.138 48.8011C64.138 48.4366 64.08 48.0968 63.964 47.782C63.848 47.4671 63.6692 47.2126 63.4277 47.0185C63.1863 46.8243 62.8785 46.7273 62.5044 46.7273C62.1304 46.7273 61.8226 46.8243 61.5811 47.0185C61.3397 47.2126 61.1609 47.4671 61.0449 47.782C60.9289 48.0968 60.8709 48.4366 60.8709 48.8011C60.8709 49.1657 60.9289 49.5043 61.0449 49.8168C61.1609 50.1293 61.3397 50.3814 61.5811 50.5732C61.8226 50.7649 62.1304 50.8608 62.5044 50.8608ZM67.0934 48.2188V51.5H66.2553V46.0455H67.065V46.8977H67.136C67.2638 46.6207 67.458 46.3982 67.7184 46.2301C67.9788 46.0597 68.315 45.9744 68.7269 45.9744C69.0962 45.9744 69.4194 46.0502 69.6964 46.2017C69.9734 46.3509 70.1888 46.5781 70.3427 46.8835C70.4966 47.1866 70.5735 47.5701 70.5735 48.0341V51.5H69.7354V48.0909C69.7354 47.6624 69.6242 47.3286 69.4016 47.0895C69.1791 46.848 68.8737 46.7273 68.4854 46.7273C68.2179 46.7273 67.9788 46.7853 67.7681 46.9013C67.5598 47.0173 67.3952 47.1866 67.2745 47.4091C67.1538 47.6316 67.0934 47.9015 67.0934 48.2188Z" fill="var(--colors-neutral-neutral-800)"/>
<rect width="88" height="32" transform="translate(200 32)" fill="var(--colors-neutral-neutral-300)"/>
<path d="M211.75 52.1193C211.108 52.1193 210.561 51.9446 210.109 51.5952C209.658 51.2429 209.313 50.733 209.074 50.0653C208.835 49.3949 208.716 48.5852 208.716 47.6364C208.716 46.6932 208.835 45.8878 209.074 45.2202C209.315 44.5497 209.662 44.0384 210.114 43.6861C210.568 43.331 211.114 43.1534 211.75 43.1534C212.386 43.1534 212.93 43.331 213.382 43.6861C213.837 44.0384 214.183 44.5497 214.422 45.2202C214.663 45.8878 214.784 46.6932 214.784 47.6364C214.784 48.5852 214.665 49.3949 214.426 50.0653C214.188 50.733 213.842 51.2429 213.391 51.5952C212.939 51.9446 212.392 52.1193 211.75 52.1193ZM211.75 51.1818C212.386 51.1818 212.881 50.875 213.233 50.2614C213.585 49.6477 213.761 48.7727 213.761 47.6364C213.761 46.8807 213.68 46.2372 213.518 45.706C213.359 45.1747 213.129 44.7699 212.828 44.4915C212.53 44.2131 212.17 44.0739 211.75 44.0739C211.119 44.0739 210.626 44.3849 210.271 45.0071C209.916 45.6264 209.739 46.5028 209.739 47.6364C209.739 48.392 209.818 49.0341 209.977 49.5625C210.136 50.0909 210.365 50.4929 210.663 50.7685C210.964 51.044 211.327 51.1818 211.75 51.1818Z" fill="var(--colors-neutral-neutral-800)"/>
<path d="M265.384 51.5V46.0455H266.194V46.8977H266.265C266.379 46.6065 266.562 46.3804 266.815 46.2195C267.069 46.0561 267.373 45.9744 267.728 45.9744C268.088 45.9744 268.387 46.0561 268.626 46.2195C268.868 46.3804 269.056 46.6065 269.191 46.8977H269.248C269.388 46.616 269.597 46.3923 269.876 46.2266C270.156 46.0585 270.491 45.9744 270.881 45.9744C271.369 45.9744 271.768 46.1271 272.078 46.4325C272.388 46.7356 272.543 47.2079 272.543 47.8494V51.5H271.705V47.8494C271.705 47.447 271.595 47.1593 271.375 46.9865C271.155 46.8137 270.896 46.7273 270.597 46.7273C270.214 46.7273 269.917 46.8433 269.706 47.0753C269.495 47.3049 269.39 47.5961 269.39 47.9489V51.5H268.538V47.7642C268.538 47.4541 268.437 47.2043 268.236 47.0149C268.035 46.8232 267.775 46.7273 267.458 46.7273C267.24 46.7273 267.037 46.7853 266.847 46.9013C266.66 47.0173 266.509 47.1783 266.393 47.3842C266.279 47.5878 266.222 47.8234 266.222 48.0909V51.5H265.384ZM274.076 51.5V46.0455H274.885V46.8977H274.956C275.07 46.6065 275.253 46.3804 275.507 46.2195C275.76 46.0561 276.064 45.9744 276.419 45.9744C276.779 45.9744 277.079 46.0561 277.318 46.2195C277.559 46.3804 277.748 46.6065 277.882 46.8977H277.939C278.079 46.616 278.288 46.3923 278.568 46.2266C278.847 46.0585 279.182 45.9744 279.573 45.9744C280.06 45.9744 280.459 46.1271 280.77 46.4325C281.08 46.7356 281.235 47.2079 281.235 47.8494V51.5H280.397V47.8494C280.397 47.447 280.287 47.1593 280.066 46.9865C279.846 46.8137 279.587 46.7273 279.289 46.7273C278.905 46.7273 278.608 46.8433 278.397 47.0753C278.187 47.3049 278.081 47.5961 278.081 47.9489V51.5H277.229V47.7642C277.229 47.4541 277.128 47.2043 276.927 47.0149C276.726 46.8232 276.467 46.7273 276.15 46.7273C275.932 46.7273 275.728 46.7853 275.539 46.9013C275.352 47.0173 275.2 47.1783 275.084 47.3842C274.971 47.5878 274.914 47.8234 274.914 48.0909V51.5H274.076Z" fill="var(--colors-neutral-neutral-700)"/>
</svg>
