<svg width="24" height="24" viewBox="0 0 24 24" fill="none" xmlns="http://www.w3.org/2000/svg">
<path d="M18.1453 6.95309H15.733V4.52609C15.733 4.23849 15.5036 4 15.2117 4H5.85469C5.56272 4 5.33331 4.23849 5.33331 4.52609V19.4739C5.33331 19.7615 5.56272 20 5.85469 20H15.2117C15.5036 20 15.733 19.7615 15.733 19.4739V17.0329H18.1453C18.4303 17.0329 18.6666 16.8014 18.6666 16.5068V7.47918C18.6666 7.19158 18.4303 6.95309 18.1453 6.95309ZM6.37607 5.05217H8.25997V6.95309H6.37607V5.05217ZM6.37607 8.00526H8.25997V15.9807H6.37607V8.00526ZM6.37607 17.0329H8.25997V18.9478H6.37607V17.0329ZM14.6903 18.9478H9.30273V17.0329H14.6903V18.9478ZM14.6903 15.9807H9.30273V8.00526H14.6903V15.9807ZM14.6903 6.95309H9.30273V5.05217H14.6903V6.95309ZM17.6239 15.9807H15.733V8.00526H17.6239V15.9807Z" fill="var(--colors-neutral-neutral-700)"/>
</svg>
