<svg width="169" height="233" viewBox="0 0 169 233" fill="none" xmlns="http://www.w3.org/2000/svg">
<rect x="9.26989" y="125.519" width="121.26" height="2.0043" fill="#F3A83E" stroke="#222222" stroke-width="0.5"/>
<rect x="63.386" y="127.524" width="13.028" height="2.0043" fill="#F3A83E" stroke="#222222" stroke-width="0.5"/>
<rect x="9.26989" y="127.524" width="13.028" height="2.0043" fill="#F3A83E" stroke="#222222" stroke-width="0.5"/>
<rect x="117.502" y="127.524" width="13.028" height="2.0043" fill="#F3A83E" stroke="#222222" stroke-width="0.5"/>
<rect x="9.26989" y="135.541" width="121.26" height="2.0043" fill="#F3A83E" stroke="#222222" stroke-width="0.5"/>
<rect x="63.386" y="129.528" width="13.028" height="6.0129" fill="#F3A83E" stroke="#222222" stroke-width="0.5"/>
<rect x="9.26989" y="129.528" width="13.028" height="6.0129" fill="#F3A83E" stroke="#222222" stroke-width="0.5"/>
<rect x="117.502" y="129.528" width="13.028" height="6.0129" fill="#F3A83E" stroke="#222222" stroke-width="0.5"/>
<rect x="130.53" y="137.545" width="4.00861" height="121.26" transform="rotate(90 130.53 137.545)" fill="#99AFFF" stroke="#222222" stroke-width="0.5"/>
<rect x="130.53" y="61.3817" width="4.00861" height="121.26" transform="rotate(90 130.53 61.3817)" fill="#99AFFF" stroke="#222222" stroke-width="0.5"/>
<rect x="130.53" y="10.272" width="4.00861" height="121.26" transform="rotate(90 130.53 10.272)" fill="#99AFFF" stroke="#222222" stroke-width="0.5"/>
<path d="M164.603 228.741L167.496 223.73L161.71 223.73L164.603 228.741ZM164.603 65.3903L161.71 70.4011L167.496 70.4011L164.603 65.3903ZM165.104 224.231L165.104 69.9L164.102 69.9L164.102 224.231L165.104 224.231Z" fill="#222222"/>
<rect x="9.26989" y="220.724" width="121.26" height="2.0043" fill="#F3A83E" stroke="#222222" stroke-width="0.5"/>
<rect x="63.386" y="222.728" width="13.028" height="2.0043" fill="#F3A83E" stroke="#222222" stroke-width="0.5"/>
<rect x="9.26989" y="222.728" width="13.028" height="2.0043" fill="#F3A83E" stroke="#222222" stroke-width="0.5"/>
<rect x="117.502" y="222.728" width="13.028" height="2.0043" fill="#F3A83E" stroke="#222222" stroke-width="0.5"/>
<rect x="9.26989" y="230.745" width="4.0086" height="2.0043" fill="#F3A83E" stroke="#222222" stroke-width="0.5"/>
<rect x="9.26989" y="230.745" width="121.26" height="2.0043" fill="#F3A83E" stroke="#222222" stroke-width="0.5"/>
<rect x="63.386" y="224.732" width="13.028" height="6.0129" fill="#F3A83E" stroke="#222222" stroke-width="0.5"/>
<rect x="9.26989" y="224.732" width="13.028" height="6.0129" fill="#F3A83E" stroke="#222222" stroke-width="0.5"/>
<rect x="117.502" y="224.732" width="13.028" height="6.0129" fill="#F3A83E" stroke="#222222" stroke-width="0.5"/>
<rect x="17.2871" y="192.663" width="41.0882" height="28.0602" fill="#D9D9D9" stroke="#222222" stroke-width="0.5"/>
<rect x="81.4247" y="97.4591" width="41.0882" height="28.0602" fill="#D9D9D9" stroke="#222222" stroke-width="0.5"/>
<rect x="17.2871" y="33.3215" width="41.0882" height="28.0602" fill="#D9D9D9" stroke="#222222" stroke-width="0.5"/>
<rect x="81.4247" y="181.64" width="41.0882" height="39.0839" fill="#D9D9D9" stroke="#222222" stroke-width="0.5"/>
<rect x="17.2871" y="86.4355" width="41.0882" height="39.0839" fill="#D9D9D9" stroke="#222222" stroke-width="0.5"/>
<rect x="81.4247" y="22.2978" width="41.0882" height="39.0839" fill="#D9D9D9" stroke="#222222" stroke-width="0.5"/>
<rect x="130.53" y="0.250538" width="9.01935" height="231.497" fill="#2D71BA" stroke="#222222" stroke-width="0.5"/>
<rect x="130.53" y="230.745" width="9.01935" height="2.0043" fill="#B42318" stroke="#222222" stroke-width="0.5"/>
<rect x="0.250538" y="0.250538" width="9.01935" height="231.497" fill="#2D71BA" stroke="#222222" stroke-width="0.5"/>
<rect x="0.250538" y="230.745" width="9.01935" height="2.0043" fill="#B42318" stroke="#222222" stroke-width="0.5"/>
<path d="M139.549 61.3817L168.612 61.3817" stroke="#222222" stroke-width="0.5"/>
<path d="M139.549 232.749L168.612 232.749" stroke="#222222" stroke-width="0.5"/>
</svg>
