<svg width="46" height="18" viewBox="0 0 46 18" fill="none" xmlns="http://www.w3.org/2000/svg">
<path d="M1.32 13V4.624H2.592V11.92H6.984V13H1.32ZM13.1927 13L13.1447 11.5V8.68C13.1447 8.208 12.9887 7.84 12.6767 7.576C12.3727 7.304 11.9527 7.168 11.4167 7.168C10.8967 7.168 10.4727 7.288 10.1447 7.528C9.81669 7.76 9.63669 8.084 9.60469 8.5H8.41669C8.45669 8.028 8.60869 7.628 8.87269 7.3C9.13669 6.964 9.48869 6.708 9.92869 6.532C10.3687 6.348 10.8767 6.256 11.4527 6.256C12.0447 6.256 12.5567 6.356 12.9887 6.556C13.4207 6.748 13.7527 7.028 13.9847 7.396C14.2247 7.764 14.3447 8.212 14.3447 8.74V13H13.1927ZM10.8047 13.144C10.3727 13.144 9.99269 13.068 9.66469 12.916C9.33669 12.756 9.08069 12.532 8.89669 12.244C8.71269 11.948 8.62069 11.604 8.62069 11.212C8.62069 10.532 8.88069 10.004 9.40069 9.628C9.92869 9.252 10.6647 9.064 11.6087 9.064H13.3007V9.964H11.5607C11.0167 9.964 10.5887 10.068 10.2767 10.276C9.97269 10.484 9.82069 10.776 9.82069 11.152C9.82069 11.464 9.92869 11.708 10.1447 11.884C10.3687 12.06 10.6687 12.148 11.0447 12.148C11.5247 12.148 11.9487 12.02 12.3167 11.764C12.6927 11.5 12.9967 11.14 13.2287 10.684L13.3607 11.572C13.1527 12.076 12.8327 12.464 12.4007 12.736C11.9687 13.008 11.4367 13.144 10.8047 13.144ZM18.4174 9.664L19.0414 11.308L19.6654 9.652L21.0454 6.4H22.3054L19.2454 13.612C19.0614 14.036 18.8614 14.368 18.6454 14.608C18.4374 14.856 18.2014 15.028 17.9374 15.124C17.6734 15.228 17.3654 15.28 17.0134 15.28H15.8374V14.296H16.9294C17.1374 14.296 17.3134 14.248 17.4574 14.152C17.6094 14.064 17.7454 13.928 17.8654 13.744C17.9854 13.568 18.1054 13.336 18.2254 13.048L18.4054 12.616L15.7774 6.4H17.0374L18.4174 9.664ZM26.5821 13.144C25.9021 13.144 25.3141 13.004 24.8181 12.724C24.3301 12.444 23.9541 12.048 23.6901 11.536C23.4261 11.016 23.2941 10.404 23.2941 9.7C23.2941 8.98 23.4261 8.368 23.6901 7.864C23.9541 7.352 24.3301 6.956 24.8181 6.676C25.3141 6.396 25.9061 6.256 26.5941 6.256C27.6181 6.256 28.4221 6.564 29.0061 7.18C29.5901 7.788 29.8821 8.628 29.8821 9.7C29.8821 10.404 29.7501 11.016 29.4861 11.536C29.2221 12.048 28.8421 12.444 28.3461 12.724C27.8581 13.004 27.2701 13.144 26.5821 13.144ZM26.5941 12.136C27.2341 12.136 27.7381 11.92 28.1061 11.488C28.4821 11.048 28.6701 10.452 28.6701 9.7C28.6701 8.94 28.4821 8.344 28.1061 7.912C27.7381 7.48 27.2341 7.264 26.5941 7.264C25.9461 7.264 25.4381 7.48 25.0701 7.912C24.7021 8.344 24.5181 8.94 24.5181 9.7C24.5181 10.452 24.7021 11.048 25.0701 11.488C25.4381 11.92 25.9461 12.136 26.5941 12.136ZM32.3228 6.4V10.564C32.3228 11.028 32.4548 11.404 32.7188 11.692C32.9828 11.972 33.3268 12.112 33.7508 12.112C34.2388 12.112 34.6708 11.936 35.0468 11.584C35.4308 11.224 35.7348 10.668 35.9588 9.916L36.1508 11.272C35.9028 11.896 35.5428 12.364 35.0708 12.676C34.6068 12.988 34.0988 13.144 33.5468 13.144C33.0508 13.144 32.6188 13.04 32.2508 12.832C31.8908 12.616 31.6108 12.32 31.4108 11.944C31.2108 11.568 31.1108 11.124 31.1108 10.612V6.4H32.3228ZM37.0268 6.4V13H35.8748L35.8148 11.512V6.4H37.0268ZM42.2634 13C41.8554 13 41.5074 12.92 41.2194 12.76C40.9314 12.592 40.7154 12.356 40.5714 12.052C40.4274 11.748 40.3554 11.392 40.3554 10.984V5.152L41.5674 4.492V10.984C41.5674 11.176 41.5954 11.352 41.6514 11.512C41.7074 11.672 41.8154 11.796 41.9754 11.884C42.1434 11.972 42.3874 12.016 42.7074 12.016H44.6874V13H42.2634ZM38.7954 7.384V6.4H43.6314V7.384H38.7954Z" fill="var(--colors-neutral-neutral-800)"/>
</svg>
