<svg width="304" height="64" viewBox="0 0 304 64" fill="none" xmlns="http://www.w3.org/2000/svg">
<path d="M16.6392 19.5V18.8608L20.5597 13.0085H16.5966V12.2273H21.6108V12.8665L17.6903 18.7188H21.6534V19.5H16.6392ZM26.6676 16.2188V19.5H25.8295V12.2273H26.6676V14.8977H26.7386C26.8665 14.616 27.0582 14.3923 27.3139 14.2266C27.572 14.0585 27.9152 13.9744 28.3438 13.9744C28.7154 13.9744 29.041 14.049 29.3203 14.1982C29.5997 14.3449 29.8163 14.571 29.9702 14.8764C30.1264 15.1795 30.2045 15.5653 30.2045 16.0341V19.5H29.3665V16.0909C29.3665 15.6577 29.254 15.3227 29.0291 15.0859C28.8066 14.8468 28.4976 14.7273 28.1023 14.7273C27.8277 14.7273 27.5814 14.7853 27.3636 14.9013C27.1482 15.0173 26.9777 15.1866 26.8523 15.4091C26.7292 15.6316 26.6676 15.9015 26.6676 16.2188ZM34.0247 19.6136C33.4991 19.6136 33.0458 19.4976 32.6646 19.2656C32.2858 19.0312 31.9934 18.7045 31.7875 18.2855C31.5839 17.8641 31.4821 17.3741 31.4821 16.8153C31.4821 16.2566 31.5839 15.7642 31.7875 15.3381C31.9934 14.9096 32.2799 14.5758 32.6468 14.3366C33.0162 14.0952 33.447 13.9744 33.9395 13.9744C34.2235 13.9744 34.5041 14.0218 34.7811 14.1165C35.0581 14.2112 35.3102 14.3651 35.5375 14.5781C35.7647 14.7888 35.9458 15.0682 36.0808 15.4162C36.2157 15.7642 36.2832 16.1927 36.2832 16.7017V17.0568H32.0787V16.3324H35.4309C35.4309 16.0246 35.3694 15.75 35.2463 15.5085C35.1255 15.267 34.9527 15.0765 34.7278 14.9368C34.5053 14.7971 34.2425 14.7273 33.9395 14.7273C33.6056 14.7273 33.3168 14.8101 33.073 14.9759C32.8315 15.1392 32.6457 15.3523 32.5154 15.6151C32.3852 15.8778 32.3201 16.1596 32.3201 16.4602V16.9432C32.3201 17.3551 32.3912 17.7043 32.5332 17.9908C32.6776 18.2749 32.8777 18.4915 33.1333 18.6406C33.389 18.7874 33.6861 18.8608 34.0247 18.8608C34.2449 18.8608 34.4437 18.83 34.6213 18.7685C34.8012 18.7045 34.9563 18.6098 35.0865 18.4844C35.2167 18.3565 35.3173 18.1979 35.3883 18.0085L36.198 18.2358C36.1127 18.5104 35.9695 18.7519 35.7683 18.9602C35.5671 19.1662 35.3185 19.3272 35.0225 19.4432C34.7266 19.5568 34.394 19.6136 34.0247 19.6136ZM37.5581 19.5V14.0455H38.3961V19.5H37.5581ZM37.9842 13.1364C37.8208 13.1364 37.68 13.0807 37.5616 12.9695C37.4456 12.8582 37.3876 12.7244 37.3876 12.5682C37.3876 12.4119 37.4456 12.2782 37.5616 12.1669C37.68 12.0556 37.8208 12 37.9842 12C38.1475 12 38.2872 12.0556 38.4032 12.1669C38.5216 12.2782 38.5808 12.4119 38.5808 12.5682C38.5808 12.7244 38.5216 12.8582 38.4032 12.9695C38.2872 13.0807 38.1475 13.1364 37.9842 13.1364ZM42.1328 21.6591C41.728 21.6591 41.38 21.607 41.0888 21.5028C40.7976 21.401 40.5549 21.2661 40.3608 21.098C40.169 20.9323 40.0163 20.7547 39.9027 20.5653L40.5703 20.0966C40.6461 20.196 40.742 20.3097 40.858 20.4375C40.974 20.5677 41.1326 20.6802 41.3338 20.7749C41.5374 20.8719 41.8037 20.9205 42.1328 20.9205C42.5732 20.9205 42.9366 20.8139 43.223 20.6009C43.5095 20.3878 43.6527 20.054 43.6527 19.5994V18.4915H43.5817C43.5201 18.5909 43.4325 18.714 43.3189 18.8608C43.2076 19.0052 43.0466 19.1342 42.8359 19.2479C42.6276 19.3591 42.3459 19.4148 41.9908 19.4148C41.5504 19.4148 41.1551 19.3106 40.8047 19.1023C40.4567 18.8939 40.1809 18.5909 39.9773 18.1932C39.776 17.7955 39.6754 17.3125 39.6754 16.7443C39.6754 16.1856 39.7737 15.6991 39.9702 15.2848C40.1667 14.8681 40.4401 14.5462 40.7905 14.3189C41.1409 14.0893 41.5457 13.9744 42.005 13.9744C42.3601 13.9744 42.6418 14.0336 42.8501 14.152C43.0608 14.268 43.2218 14.4006 43.3331 14.5497C43.4467 14.6965 43.5343 14.8172 43.5959 14.9119H43.6811V14.0455H44.4908V19.6562C44.4908 20.125 44.3842 20.5062 44.1712 20.7997C43.9605 21.0956 43.6764 21.3123 43.3189 21.4496C42.9638 21.5893 42.5684 21.6591 42.1328 21.6591ZM42.1044 18.6619C42.4406 18.6619 42.7247 18.585 42.9567 18.4311C43.1887 18.2772 43.3651 18.0559 43.4858 17.767C43.6065 17.4782 43.6669 17.1326 43.6669 16.7301C43.6669 16.3371 43.6077 15.9903 43.4893 15.6896C43.371 15.389 43.1958 15.1534 42.9638 14.983C42.7318 14.8125 42.4453 14.7273 42.1044 14.7273C41.7493 14.7273 41.4534 14.8172 41.2166 14.9972C40.9822 15.1771 40.8059 15.4186 40.6875 15.7216C40.5715 16.0246 40.5135 16.3608 40.5135 16.7301C40.5135 17.1089 40.5727 17.4439 40.6911 17.7351C40.8118 18.0239 40.9893 18.2512 41.2237 18.4169C41.4605 18.5803 41.754 18.6619 42.1044 18.6619ZM46.8629 16.2188V19.5H46.0249V12.2273H46.8629V14.8977H46.9339C47.0618 14.616 47.2536 14.3923 47.5092 14.2266C47.7673 14.0585 48.1106 13.9744 48.5391 13.9744C48.9107 13.9744 49.2363 14.049 49.5156 14.1982C49.795 14.3449 50.0116 14.571 50.1655 14.8764C50.3217 15.1795 50.3999 15.5653 50.3999 16.0341V19.5H49.5618V16.0909C49.5618 15.6577 49.4493 15.3227 49.2244 15.0859C49.0019 14.8468 48.6929 14.7273 48.2976 14.7273C48.023 14.7273 47.7768 14.7853 47.5589 14.9013C47.3435 15.0173 47.1731 15.1866 47.0476 15.4091C46.9245 15.6316 46.8629 15.9015 46.8629 16.2188ZM54.3052 14.0455V14.7557H51.4785V14.0455H54.3052ZM52.3024 12.7386H53.1404V17.9375C53.1404 18.1742 53.1748 18.3518 53.2434 18.4702C53.3145 18.5862 53.4044 18.6643 53.5133 18.7045C53.6246 18.7424 53.7418 18.7614 53.8649 18.7614C53.9572 18.7614 54.033 18.7566 54.0922 18.7472C54.1513 18.7353 54.1987 18.7259 54.2342 18.7188L54.4047 19.4716C54.3478 19.4929 54.2685 19.5142 54.1667 19.5355C54.0649 19.5592 53.9359 19.571 53.7797 19.571C53.5429 19.571 53.3109 19.5201 53.0836 19.4183C52.8587 19.3165 52.6717 19.1615 52.5225 18.9531C52.3758 18.7448 52.3024 18.482 52.3024 18.1648V12.7386Z" fill="#222222"/>
<path d="M147.31 12.2273V19.5H146.429V13.1506H146.386L144.611 14.3295V13.4347L146.429 12.2273H147.31ZM151.773 19.5994C151.238 19.5994 150.783 19.4538 150.406 19.1626C150.03 18.8691 149.742 18.4441 149.543 17.8878C149.344 17.3291 149.245 16.6544 149.245 15.8636C149.245 15.0777 149.344 14.4065 149.543 13.8501C149.745 13.2914 150.033 12.8653 150.41 12.5717C150.789 12.2758 151.243 12.1278 151.773 12.1278C152.304 12.1278 152.757 12.2758 153.134 12.5717C153.512 12.8653 153.801 13.2914 154 13.8501C154.201 14.4065 154.302 15.0777 154.302 15.8636C154.302 16.6544 154.202 17.3291 154.004 17.8878C153.805 18.4441 153.517 18.8691 153.141 19.1626C152.764 19.4538 152.308 19.5994 151.773 19.5994ZM151.773 18.8182C152.304 18.8182 152.716 18.5625 153.009 18.0511C153.303 17.5398 153.45 16.8106 153.45 15.8636C153.45 15.2339 153.382 14.6977 153.247 14.255C153.115 13.8123 152.923 13.4749 152.672 13.2429C152.423 13.0109 152.124 12.8949 151.773 12.8949C151.248 12.8949 150.837 13.1541 150.541 13.6726C150.245 14.1887 150.097 14.919 150.097 15.8636C150.097 16.4934 150.164 17.0284 150.296 17.4688C150.429 17.9091 150.619 18.2441 150.868 18.4737C151.119 18.7034 151.421 18.8182 151.773 18.8182ZM158.023 19.5994C157.488 19.5994 157.033 19.4538 156.656 19.1626C156.28 18.8691 155.992 18.4441 155.793 17.8878C155.594 17.3291 155.495 16.6544 155.495 15.8636C155.495 15.0777 155.594 14.4065 155.793 13.8501C155.995 13.2914 156.283 12.8653 156.66 12.5717C157.039 12.2758 157.493 12.1278 158.023 12.1278C158.554 12.1278 159.007 12.2758 159.384 12.5717C159.762 12.8653 160.051 13.2914 160.25 13.8501C160.451 14.4065 160.552 15.0777 160.552 15.8636C160.552 16.6544 160.452 17.3291 160.254 17.8878C160.055 18.4441 159.767 18.8691 159.391 19.1626C159.014 19.4538 158.558 19.5994 158.023 19.5994ZM158.023 18.8182C158.554 18.8182 158.966 18.5625 159.259 18.0511C159.553 17.5398 159.7 16.8106 159.7 15.8636C159.7 15.2339 159.632 14.6977 159.497 14.255C159.365 13.8123 159.173 13.4749 158.922 13.2429C158.673 13.0109 158.374 12.8949 158.023 12.8949C157.498 12.8949 157.087 13.1541 156.791 13.6726C156.495 14.1887 156.347 14.919 156.347 15.8636C156.347 16.4934 156.414 17.0284 156.546 17.4688C156.679 17.9091 156.869 18.2441 157.118 18.4737C157.369 18.7034 157.671 18.8182 158.023 18.8182ZM164.273 19.5994C163.738 19.5994 163.283 19.4538 162.906 19.1626C162.53 18.8691 162.242 18.4441 162.043 17.8878C161.844 17.3291 161.745 16.6544 161.745 15.8636C161.745 15.0777 161.844 14.4065 162.043 13.8501C162.245 13.2914 162.533 12.8653 162.91 12.5717C163.289 12.2758 163.743 12.1278 164.273 12.1278C164.804 12.1278 165.257 12.2758 165.634 12.5717C166.012 12.8653 166.301 13.2914 166.5 13.8501C166.701 14.4065 166.802 15.0777 166.802 15.8636C166.802 16.6544 166.702 17.3291 166.504 17.8878C166.305 18.4441 166.017 18.8691 165.641 19.1626C165.264 19.4538 164.808 19.5994 164.273 19.5994ZM164.273 18.8182C164.804 18.8182 165.216 18.5625 165.509 18.0511C165.803 17.5398 165.95 16.8106 165.95 15.8636C165.95 15.2339 165.882 14.6977 165.747 14.255C165.615 13.8123 165.423 13.4749 165.172 13.2429C164.923 13.0109 164.624 12.8949 164.273 12.8949C163.748 12.8949 163.337 13.1541 163.041 13.6726C162.745 14.1887 162.597 14.919 162.597 15.8636C162.597 16.4934 162.664 17.0284 162.796 17.4688C162.929 17.9091 163.119 18.2441 163.368 18.4737C163.619 18.7034 163.921 18.8182 164.273 18.8182ZM170.978 19.5V14.0455H171.788V14.8977H171.859C171.972 14.6065 172.156 14.3804 172.409 14.2195C172.662 14.0561 172.967 13.9744 173.322 13.9744C173.682 13.9744 173.981 14.0561 174.22 14.2195C174.462 14.3804 174.65 14.6065 174.785 14.8977H174.842C174.981 14.616 175.191 14.3923 175.47 14.2266C175.75 14.0585 176.085 13.9744 176.475 13.9744C176.963 13.9744 177.362 14.1271 177.672 14.4325C177.982 14.7356 178.137 15.2079 178.137 15.8494V19.5H177.299V15.8494C177.299 15.447 177.189 15.1593 176.969 14.9865C176.749 14.8137 176.489 14.7273 176.191 14.7273C175.808 14.7273 175.51 14.8433 175.3 15.0753C175.089 15.3049 174.984 15.5961 174.984 15.9489V19.5H174.131V15.7642C174.131 15.4541 174.031 15.2043 173.83 15.0149C173.628 14.8232 173.369 14.7273 173.052 14.7273C172.834 14.7273 172.63 14.7853 172.441 14.9013C172.254 15.0173 172.103 15.1783 171.987 15.3842C171.873 15.5878 171.816 15.8234 171.816 16.0909V19.5H170.978ZM179.669 19.5V14.0455H180.479V14.8977H180.55C180.664 14.6065 180.847 14.3804 181.1 14.2195C181.354 14.0561 181.658 13.9744 182.013 13.9744C182.373 13.9744 182.672 14.0561 182.912 14.2195C183.153 14.3804 183.341 14.6065 183.476 14.8977H183.533C183.673 14.616 183.882 14.3923 184.162 14.2266C184.441 14.0585 184.776 13.9744 185.167 13.9744C185.654 13.9744 186.053 14.1271 186.363 14.4325C186.673 14.7356 186.828 15.2079 186.828 15.8494V19.5H185.99V15.8494C185.99 15.447 185.88 15.1593 185.66 14.9865C185.44 14.8137 185.181 14.7273 184.882 14.7273C184.499 14.7273 184.202 14.8433 183.991 15.0753C183.78 15.3049 183.675 15.5961 183.675 15.9489V19.5H182.823V15.7642C182.823 15.4541 182.722 15.2043 182.521 15.0149C182.32 14.8232 182.06 14.7273 181.743 14.7273C181.525 14.7273 181.322 14.7853 181.132 14.9013C180.945 15.0173 180.794 15.1783 180.678 15.3842C180.564 15.5878 180.507 15.8234 180.507 16.0909V19.5H179.669Z" fill="#222222"/>
<path d="M16.8807 44.2273H17.9318L20.4034 50.2642H20.4886L22.9602 44.2273H24.0114V51.5H23.1875V45.9744H23.1165L20.8438 51.5H20.0483L17.7756 45.9744H17.7045V51.5H16.8807V44.2273ZM27.2686 51.6278C26.923 51.6278 26.6093 51.5627 26.3276 51.4325C26.0459 51.3 25.8221 51.1094 25.6564 50.8608C25.4907 50.6098 25.4078 50.3068 25.4078 49.9517C25.4078 49.6392 25.4694 49.3859 25.5925 49.1918C25.7156 48.9953 25.8801 48.8414 26.0861 48.7301C26.2921 48.6188 26.5194 48.536 26.7679 48.4815C27.0189 48.4247 27.271 48.3797 27.5243 48.3466C27.8558 48.304 28.1245 48.272 28.3304 48.2507C28.5388 48.227 28.6903 48.188 28.785 48.1335C28.882 48.0791 28.9306 47.9844 28.9306 47.8494V47.821C28.9306 47.4706 28.8347 47.1984 28.6429 47.0043C28.4535 46.8101 28.1659 46.7131 27.78 46.7131C27.3799 46.7131 27.0662 46.8007 26.839 46.9759C26.6117 47.151 26.4519 47.3381 26.3596 47.5369L25.5641 47.2528C25.7061 46.9214 25.8955 46.6634 26.1323 46.4787C26.3714 46.2917 26.6318 46.1615 26.9135 46.0881C27.1976 46.0123 27.477 45.9744 27.7516 45.9744C27.9268 45.9744 28.128 45.9957 28.3553 46.0384C28.5849 46.0786 28.8063 46.1626 29.0194 46.2905C29.2348 46.4183 29.4135 46.6113 29.5556 46.8693C29.6976 47.1274 29.7686 47.473 29.7686 47.9062V51.5H28.9306V50.7614H28.888C28.8311 50.8797 28.7364 51.0064 28.6039 51.1413C28.4713 51.2763 28.2949 51.3911 28.0748 51.4858C27.8546 51.5805 27.5859 51.6278 27.2686 51.6278ZM27.3965 50.875C27.7279 50.875 28.0073 50.8099 28.2346 50.6797C28.4642 50.5495 28.637 50.3814 28.753 50.1754C28.8714 49.9695 28.9306 49.7528 28.9306 49.5256V48.7585C28.8951 48.8011 28.8169 48.8402 28.6962 48.8757C28.5778 48.9089 28.4405 48.9384 28.2843 48.9645C28.1304 48.9882 27.9801 49.0095 27.8333 49.0284C27.6889 49.045 27.5717 49.0592 27.4817 49.071C27.2639 49.0994 27.0603 49.1456 26.8709 49.2095C26.6839 49.2711 26.5324 49.3646 26.4164 49.4901C26.3027 49.6132 26.2459 49.7812 26.2459 49.9943C26.2459 50.2855 26.3536 50.5057 26.5691 50.6548C26.7869 50.8016 27.0627 50.875 27.3965 50.875ZM33.6705 46.0455V46.7557H30.8438V46.0455H33.6705ZM31.6676 44.7386H32.5057V49.9375C32.5057 50.1742 32.54 50.3518 32.6087 50.4702C32.6797 50.5862 32.7696 50.6643 32.8786 50.7045C32.9898 50.7424 33.107 50.7614 33.2301 50.7614C33.3224 50.7614 33.3982 50.7566 33.4574 50.7472C33.5166 50.7353 33.5639 50.7259 33.5994 50.7188L33.7699 51.4716C33.7131 51.4929 33.6338 51.5142 33.532 51.5355C33.4302 51.5592 33.3011 51.571 33.1449 51.571C32.9081 51.571 32.6761 51.5201 32.4489 51.4183C32.224 51.3165 32.0369 51.1615 31.8878 50.9531C31.741 50.7448 31.6676 50.482 31.6676 50.1648V44.7386ZM37.1594 51.6136C36.6339 51.6136 36.1805 51.4976 35.7994 51.2656C35.4206 51.0312 35.1282 50.7045 34.9222 50.2855C34.7186 49.8641 34.6168 49.3741 34.6168 48.8153C34.6168 48.2566 34.7186 47.7642 34.9222 47.3381C35.1282 46.9096 35.4147 46.5758 35.7816 46.3366C36.1509 46.0952 36.5818 45.9744 37.0742 45.9744C37.3583 45.9744 37.6388 46.0218 37.9158 46.1165C38.1928 46.2112 38.445 46.3651 38.6722 46.5781C38.8995 46.7888 39.0806 47.0682 39.2156 47.4162C39.3505 47.7642 39.418 48.1927 39.418 48.7017V49.0568H35.2134V48.3324H38.5657C38.5657 48.0246 38.5041 47.75 38.381 47.5085C38.2603 47.267 38.0875 47.0765 37.8626 46.9368C37.64 46.7971 37.3772 46.7273 37.0742 46.7273C36.7404 46.7273 36.4516 46.8101 36.2077 46.9759C35.9663 47.1392 35.7804 47.3523 35.6502 47.6151C35.52 47.8778 35.4549 48.1596 35.4549 48.4602V48.9432C35.4549 49.3551 35.5259 49.7043 35.668 49.9908C35.8124 50.2749 36.0124 50.4915 36.2681 50.6406C36.5238 50.7874 36.8209 50.8608 37.1594 50.8608C37.3796 50.8608 37.5785 50.83 37.756 50.7685C37.936 50.7045 38.091 50.6098 38.2212 50.4844C38.3514 50.3565 38.4521 50.1979 38.5231 50.0085L39.3327 50.2358C39.2475 50.5104 39.1043 50.7519 38.9031 50.9602C38.7018 51.1662 38.4532 51.3272 38.1573 51.4432C37.8614 51.5568 37.5288 51.6136 37.1594 51.6136ZM40.6928 51.5V46.0455H41.5025V46.8693H41.5593C41.6587 46.5994 41.8387 46.3804 42.0991 46.2124C42.3595 46.0443 42.6531 45.9602 42.9798 45.9602C43.0413 45.9602 43.1183 45.9614 43.2106 45.9638C43.3029 45.9661 43.3728 45.9697 43.4201 45.9744V46.8267C43.3917 46.8196 43.3266 46.8089 43.2248 46.7947C43.1254 46.7782 43.02 46.7699 42.9087 46.7699C42.6436 46.7699 42.4068 46.8255 42.1985 46.9368C41.9925 47.0457 41.8292 47.1972 41.7085 47.3913C41.5901 47.5831 41.5309 47.8021 41.5309 48.0483V51.5H40.6928ZM44.4135 51.5V46.0455H45.2516V51.5H44.4135ZM44.8397 45.1364C44.6763 45.1364 44.5355 45.0807 44.4171 44.9695C44.3011 44.8582 44.2431 44.7244 44.2431 44.5682C44.2431 44.4119 44.3011 44.2782 44.4171 44.1669C44.5355 44.0556 44.6763 44 44.8397 44C45.003 44 45.1427 44.0556 45.2587 44.1669C45.3771 44.2782 45.4363 44.4119 45.4363 44.5682C45.4363 44.7244 45.3771 44.8582 45.2587 44.9695C45.1427 45.0807 45.003 45.1364 44.8397 45.1364ZM48.3917 51.6278C48.046 51.6278 47.7324 51.5627 47.4506 51.4325C47.1689 51.3 46.9452 51.1094 46.7795 50.8608C46.6138 50.6098 46.5309 50.3068 46.5309 49.9517C46.5309 49.6392 46.5924 49.3859 46.7156 49.1918C46.8387 48.9953 47.0032 48.8414 47.2092 48.7301C47.4151 48.6188 47.6424 48.536 47.891 48.4815C48.1419 48.4247 48.3941 48.3797 48.6474 48.3466C48.9788 48.304 49.2475 48.272 49.4535 48.2507C49.6618 48.227 49.8133 48.188 49.908 48.1335C50.0051 48.0791 50.0536 47.9844 50.0536 47.8494V47.821C50.0536 47.4706 49.9577 47.1984 49.766 47.0043C49.5766 46.8101 49.2889 46.7131 48.9031 46.7131C48.503 46.7131 48.1893 46.8007 47.962 46.9759C47.7347 47.151 47.5749 47.3381 47.4826 47.5369L46.6871 47.2528C46.8292 46.9214 47.0186 46.6634 47.2553 46.4787C47.4944 46.2917 47.7549 46.1615 48.0366 46.0881C48.3207 46.0123 48.6 45.9744 48.8746 45.9744C49.0498 45.9744 49.2511 45.9957 49.4783 46.0384C49.708 46.0786 49.9293 46.1626 50.1424 46.2905C50.3578 46.4183 50.5366 46.6113 50.6786 46.8693C50.8207 47.1274 50.8917 47.473 50.8917 47.9062V51.5H50.0536V50.7614H50.011C49.9542 50.8797 49.8595 51.0064 49.7269 51.1413C49.5943 51.2763 49.418 51.3911 49.1978 51.4858C48.9776 51.5805 48.7089 51.6278 48.3917 51.6278ZM48.5195 50.875C48.851 50.875 49.1303 50.8099 49.3576 50.6797C49.5872 50.5495 49.7601 50.3814 49.8761 50.1754C49.9944 49.9695 50.0536 49.7528 50.0536 49.5256V48.7585C50.0181 48.8011 49.94 48.8402 49.8192 48.8757C49.7009 48.9089 49.5636 48.9384 49.4073 48.9645C49.2534 48.9882 49.1031 49.0095 48.9563 49.0284C48.8119 49.045 48.6947 49.0592 48.6048 49.071C48.387 49.0994 48.1834 49.1456 47.994 49.2095C47.8069 49.2711 47.6554 49.3646 47.5394 49.4901C47.4258 49.6132 47.369 49.7812 47.369 49.9943C47.369 50.2855 47.4767 50.5057 47.6921 50.6548C47.9099 50.8016 48.1857 50.875 48.5195 50.875ZM53.2594 44.2273V51.5H52.4213V44.2273H53.2594Z" fill="#222222"/>
<path d="M150.733 46.5H149.852C149.8 46.2467 149.709 46.0241 149.579 45.8324C149.451 45.6406 149.295 45.4796 149.11 45.3494C148.928 45.2169 148.725 45.1174 148.503 45.0511C148.28 44.9848 148.048 44.9517 147.807 44.9517C147.366 44.9517 146.968 45.063 146.61 45.2855C146.255 45.508 145.972 45.8359 145.761 46.2692C145.553 46.7024 145.449 47.2339 145.449 47.8636C145.449 48.4934 145.553 49.0249 145.761 49.4581C145.972 49.8913 146.255 50.2192 146.61 50.4418C146.968 50.6643 147.366 50.7756 147.807 50.7756C148.048 50.7756 148.28 50.7424 148.503 50.6761C148.725 50.6098 148.928 50.5116 149.11 50.3814C149.295 50.2488 149.451 50.0866 149.579 49.8949C149.709 49.7008 149.8 49.4782 149.852 49.2273H150.733C150.667 49.599 150.546 49.9316 150.371 50.2251C150.196 50.5187 149.978 50.7685 149.717 50.9744C149.457 51.178 149.165 51.3331 148.84 51.4396C148.518 51.5462 148.174 51.5994 147.807 51.5994C147.187 51.5994 146.635 51.4479 146.152 51.1449C145.669 50.8419 145.289 50.411 145.012 49.8523C144.735 49.2936 144.597 48.6307 144.597 47.8636C144.597 47.0966 144.735 46.4337 145.012 45.875C145.289 45.3163 145.669 44.8854 146.152 44.5824C146.635 44.2794 147.187 44.1278 147.807 44.1278C148.174 44.1278 148.518 44.1811 148.84 44.2876C149.165 44.3942 149.457 44.5504 149.717 44.7564C149.978 44.96 150.196 45.2086 150.371 45.5021C150.546 45.7933 150.667 46.1259 150.733 46.5ZM154.258 51.6136C153.766 51.6136 153.334 51.4964 152.962 51.2621C152.593 51.0277 152.304 50.6998 152.096 50.2784C151.89 49.857 151.787 49.3646 151.787 48.8011C151.787 48.233 151.89 47.737 152.096 47.3132C152.304 46.8894 152.593 46.5604 152.962 46.326C153.334 46.0916 153.766 45.9744 154.258 45.9744C154.751 45.9744 155.182 46.0916 155.551 46.326C155.923 46.5604 156.211 46.8894 156.417 47.3132C156.626 47.737 156.73 48.233 156.73 48.8011C156.73 49.3646 156.626 49.857 156.417 50.2784C156.211 50.6998 155.923 51.0277 155.551 51.2621C155.182 51.4964 154.751 51.6136 154.258 51.6136ZM154.258 50.8608C154.632 50.8608 154.94 50.7649 155.182 50.5732C155.423 50.3814 155.602 50.1293 155.718 49.8168C155.834 49.5043 155.892 49.1657 155.892 48.8011C155.892 48.4366 155.834 48.0968 155.718 47.782C155.602 47.4671 155.423 47.2126 155.182 47.0185C154.94 46.8243 154.632 46.7273 154.258 46.7273C153.884 46.7273 153.577 46.8243 153.335 47.0185C153.094 47.2126 152.915 47.4671 152.799 47.782C152.683 48.0968 152.625 48.4366 152.625 48.8011C152.625 49.1657 152.683 49.5043 152.799 49.8168C152.915 50.1293 153.094 50.3814 153.335 50.5732C153.577 50.7649 153.884 50.8608 154.258 50.8608ZM158.847 48.2188V51.5H158.009V46.0455H158.819V46.8977H158.89C159.018 46.6207 159.212 46.3982 159.472 46.2301C159.733 46.0597 160.069 45.9744 160.481 45.9744C160.85 45.9744 161.173 46.0502 161.45 46.2017C161.727 46.3509 161.943 46.5781 162.097 46.8835C162.25 47.1866 162.327 47.5701 162.327 48.0341V51.5H161.489V48.0909C161.489 47.6624 161.378 47.3286 161.156 47.0895C160.933 46.848 160.628 46.7273 160.239 46.7273C159.972 46.7273 159.733 46.7853 159.522 46.9013C159.314 47.0173 159.149 47.1866 159.028 47.4091C158.908 47.6316 158.847 47.9015 158.847 48.2188ZM166.075 51.6136C165.563 51.6136 165.123 51.4929 164.754 51.2514C164.384 51.0099 164.1 50.6773 163.901 50.2536C163.703 49.8298 163.603 49.3456 163.603 48.8011C163.603 48.2472 163.705 47.7583 163.909 47.3345C164.115 46.9084 164.401 46.5758 164.768 46.3366C165.137 46.0952 165.568 45.9744 166.061 45.9744C166.444 45.9744 166.79 46.0455 167.097 46.1875C167.405 46.3295 167.657 46.5284 167.854 46.7841C168.05 47.0398 168.172 47.3381 168.22 47.679H167.382C167.318 47.4304 167.176 47.2102 166.955 47.0185C166.738 46.8243 166.444 46.7273 166.075 46.7273C165.748 46.7273 165.462 46.8125 165.215 46.983C164.972 47.151 164.781 47.389 164.644 47.6967C164.509 48.0021 164.441 48.3608 164.441 48.7727C164.441 49.1941 164.508 49.5611 164.64 49.8736C164.775 50.1861 164.964 50.4287 165.208 50.6016C165.454 50.7744 165.743 50.8608 166.075 50.8608C166.293 50.8608 166.49 50.8229 166.668 50.7472C166.845 50.6714 166.996 50.5625 167.119 50.4205C167.242 50.2784 167.329 50.108 167.382 49.9091H168.22C168.172 50.2311 168.055 50.5211 167.868 50.7791C167.683 51.0348 167.438 51.2384 167.133 51.3899C166.83 51.5391 166.477 51.6136 166.075 51.6136ZM169.445 51.5V46.0455H170.254V46.8693H170.311C170.411 46.5994 170.591 46.3804 170.851 46.2124C171.111 46.0443 171.405 45.9602 171.732 45.9602C171.793 45.9602 171.87 45.9614 171.963 45.9638C172.055 45.9661 172.125 45.9697 172.172 45.9744V46.8267C172.144 46.8196 172.079 46.8089 171.977 46.7947C171.877 46.7782 171.772 46.7699 171.661 46.7699C171.396 46.7699 171.159 46.8255 170.95 46.9368C170.744 47.0457 170.581 47.1972 170.46 47.3913C170.342 47.5831 170.283 47.8021 170.283 48.0483V51.5H169.445ZM175.286 51.6136C174.761 51.6136 174.307 51.4976 173.926 51.2656C173.548 51.0312 173.255 50.7045 173.049 50.2855C172.846 49.8641 172.744 49.3741 172.744 48.8153C172.744 48.2566 172.846 47.7642 173.049 47.3381C173.255 46.9096 173.542 46.5758 173.909 46.3366C174.278 46.0952 174.709 45.9744 175.201 45.9744C175.485 45.9744 175.766 46.0218 176.043 46.1165C176.32 46.2112 176.572 46.3651 176.799 46.5781C177.026 46.7888 177.208 47.0682 177.343 47.4162C177.477 47.7642 177.545 48.1927 177.545 48.7017V49.0568H173.34V48.3324H176.693C176.693 48.0246 176.631 47.75 176.508 47.5085C176.387 47.267 176.214 47.0765 175.99 46.9368C175.767 46.7971 175.504 46.7273 175.201 46.7273C174.867 46.7273 174.579 46.8101 174.335 46.9759C174.093 47.1392 173.907 47.3523 173.777 47.6151C173.647 47.8778 173.582 48.1596 173.582 48.4602V48.9432C173.582 49.3551 173.653 49.7043 173.795 49.9908C173.939 50.2749 174.139 50.4915 174.395 50.6406C174.651 50.7874 174.948 50.8608 175.286 50.8608C175.507 50.8608 175.705 50.83 175.883 50.7685C176.063 50.7045 176.218 50.6098 176.348 50.4844C176.478 50.3565 176.579 50.1979 176.65 50.0085L177.46 50.2358C177.374 50.5104 177.231 50.7519 177.03 50.9602C176.829 51.1662 176.58 51.3272 176.284 51.4432C175.988 51.5568 175.656 51.6136 175.286 51.6136ZM181.192 46.0455V46.7557H178.365V46.0455H181.192ZM179.189 44.7386H180.027V49.9375C180.027 50.1742 180.061 50.3518 180.13 50.4702C180.201 50.5862 180.291 50.6643 180.4 50.7045C180.511 50.7424 180.628 50.7614 180.752 50.7614C180.844 50.7614 180.92 50.7566 180.979 50.7472C181.038 50.7353 181.085 50.7259 181.121 50.7188L181.291 51.4716C181.235 51.4929 181.155 51.5142 181.053 51.5355C180.952 51.5592 180.823 51.571 180.666 51.571C180.43 51.571 180.198 51.5201 179.97 51.4183C179.745 51.3165 179.558 51.1615 179.409 50.9531C179.262 50.7448 179.189 50.482 179.189 50.1648V44.7386ZM184.681 51.6136C184.155 51.6136 183.702 51.4976 183.321 51.2656C182.942 51.0312 182.65 50.7045 182.444 50.2855C182.24 49.8641 182.138 49.3741 182.138 48.8153C182.138 48.2566 182.24 47.7642 182.444 47.3381C182.65 46.9096 182.936 46.5758 183.303 46.3366C183.672 46.0952 184.103 45.9744 184.596 45.9744C184.88 45.9744 185.16 46.0218 185.437 46.1165C185.714 46.2112 185.966 46.3651 186.194 46.5781C186.421 46.7888 186.602 47.0682 186.737 47.4162C186.872 47.7642 186.939 48.1927 186.939 48.7017V49.0568H182.735V48.3324H186.087C186.087 48.0246 186.026 47.75 185.903 47.5085C185.782 47.267 185.609 47.0765 185.384 46.9368C185.162 46.7971 184.899 46.7273 184.596 46.7273C184.262 46.7273 183.973 46.8101 183.729 46.9759C183.488 47.1392 183.302 47.3523 183.172 47.6151C183.041 47.8778 182.976 48.1596 182.976 48.4602V48.9432C182.976 49.3551 183.047 49.7043 183.189 49.9908C183.334 50.2749 183.534 50.4915 183.79 50.6406C184.045 50.7874 184.342 50.8608 184.681 50.8608C184.901 50.8608 185.1 50.83 185.278 50.7685C185.457 50.7045 185.613 50.6098 185.743 50.4844C185.873 50.3565 185.974 50.1979 186.045 50.0085L186.854 50.2358C186.769 50.5104 186.626 50.7519 186.425 50.9602C186.223 51.1662 185.975 51.3272 185.679 51.4432C185.383 51.5568 185.05 51.6136 184.681 51.6136Z" fill="#222222"/>
<path d="M197 49.8013L193.461 46.2628L193.933 45.791L197 48.8577L200.067 45.791L200.538 46.2628L197 49.8013Z" fill="#D9D9D9"/>
</svg>
