<svg width="304" height="373" viewBox="0 0 304 373" fill="none" xmlns="http://www.w3.org/2000/svg">
<rect x="0.5" y="0.5" width="303" height="371" stroke="#E6E6E6"/>
<mask id="path-2-inside-1_3815_56551" fill="white">
<path d="M0 0H304V52H0V0Z"/>
</mask>
<path d="M304 51H0V53H304V51Z" fill="#E6E6E6" mask="url(#path-2-inside-1_3815_56551)"/>
<path d="M20.02 30.144C19.372 30.144 18.808 30.02 18.328 29.772C17.848 29.524 17.476 29.168 17.212 28.704C16.948 28.24 16.816 27.676 16.816 27.012H18.076C18.076 27.668 18.248 28.176 18.592 28.536C18.936 28.888 19.408 29.064 20.008 29.064C20.52 29.064 20.932 28.948 21.244 28.716C21.556 28.476 21.712 28.144 21.712 27.72C21.712 27.432 21.624 27.2 21.448 27.024C21.28 26.848 21.052 26.704 20.764 26.592C20.484 26.48 20.176 26.38 19.84 26.292C19.504 26.204 19.164 26.108 18.82 26.004C18.484 25.892 18.172 25.752 17.884 25.584C17.604 25.416 17.376 25.192 17.2 24.912C17.032 24.632 16.948 24.276 16.948 23.844C16.948 23.388 17.068 22.984 17.308 22.632C17.556 22.272 17.896 21.992 18.328 21.792C18.768 21.584 19.284 21.48 19.876 21.48C20.452 21.48 20.968 21.588 21.424 21.804C21.88 22.012 22.244 22.312 22.516 22.704C22.796 23.088 22.94 23.552 22.948 24.096H21.676C21.668 23.776 21.58 23.504 21.412 23.28C21.252 23.048 21.036 22.872 20.764 22.752C20.5 22.624 20.204 22.56 19.876 22.56C19.404 22.56 19.02 22.672 18.724 22.896C18.428 23.12 18.28 23.424 18.28 23.808C18.28 24.08 18.364 24.296 18.532 24.456C18.708 24.616 18.936 24.748 19.216 24.852C19.504 24.948 19.816 25.04 20.152 25.128C20.496 25.208 20.836 25.304 21.172 25.416C21.508 25.52 21.816 25.664 22.096 25.848C22.384 26.024 22.612 26.264 22.78 26.568C22.956 26.864 23.044 27.244 23.044 27.708C23.044 28.204 22.912 28.636 22.648 29.004C22.384 29.364 22.024 29.644 21.568 29.844C21.112 30.044 20.596 30.144 20.02 30.144ZM27.5367 30.144C26.8567 30.144 26.2687 30.008 25.7727 29.736C25.2767 29.456 24.8967 29.06 24.6327 28.548C24.3687 28.028 24.2367 27.408 24.2367 26.688C24.2367 25.968 24.3687 25.352 24.6327 24.84C24.9047 24.328 25.2887 23.936 25.7847 23.664C26.2887 23.392 26.8887 23.256 27.5847 23.256C28.6487 23.256 29.4407 23.552 29.9607 24.144C30.4807 24.728 30.7087 25.532 30.6447 26.556H25.1967L25.2087 25.644L29.4087 25.656C29.3767 25.232 29.1927 24.892 28.8567 24.636C28.5207 24.38 28.0967 24.252 27.5847 24.252C26.8967 24.252 26.3687 24.468 26.0007 24.9C25.6327 25.332 25.4487 25.944 25.4487 26.736C25.4487 27.208 25.5287 27.628 25.6887 27.996C25.8567 28.356 26.0967 28.636 26.4087 28.836C26.7207 29.036 27.0967 29.136 27.5367 29.136C28.0567 29.136 28.4887 29.012 28.8327 28.764C29.1847 28.516 29.4007 28.18 29.4807 27.756H30.6927C30.5887 28.5 30.2567 29.084 29.6967 29.508C29.1367 29.932 28.4167 30.144 27.5367 30.144ZM35.5694 30C35.1614 30 34.8134 29.92 34.5254 29.76C34.2374 29.592 34.0214 29.356 33.8774 29.052C33.7334 28.748 33.6614 28.392 33.6614 27.984V22.152L34.8734 21.492V27.984C34.8734 28.176 34.9014 28.352 34.9574 28.512C35.0134 28.672 35.1214 28.796 35.2814 28.884C35.4494 28.972 35.6934 29.016 36.0134 29.016H37.9934V30H35.5694ZM32.1014 24.384V23.4H36.9374V24.384H32.1014ZM40.7581 23.4V27.564C40.7581 28.028 40.8901 28.404 41.1541 28.692C41.4181 28.972 41.7621 29.112 42.1861 29.112C42.6741 29.112 43.1061 28.936 43.4821 28.584C43.8661 28.224 44.1701 27.668 44.3941 26.916L44.5861 28.272C44.3381 28.896 43.9781 29.364 43.5061 29.676C43.0421 29.988 42.5341 30.144 41.9821 30.144C41.4861 30.144 41.0541 30.04 40.6861 29.832C40.3261 29.616 40.0461 29.32 39.8461 28.944C39.6461 28.568 39.5461 28.124 39.5461 27.612V23.4H40.7581ZM45.4621 23.4V30H44.3101L44.2501 28.512V23.4H45.4621ZM50.5428 23.256C51.1348 23.256 51.6508 23.404 52.0908 23.7C52.5388 23.988 52.8908 24.392 53.1468 24.912C53.4028 25.432 53.5308 26.028 53.5308 26.7C53.5308 27.364 53.4028 27.956 53.1468 28.476C52.8908 28.996 52.5388 29.404 52.0908 29.7C51.6508 29.996 51.1348 30.144 50.5428 30.144C50.0948 30.144 49.6828 30.052 49.3068 29.868C48.9388 29.684 48.6348 29.432 48.3948 29.112V32.136H47.1828V23.4H48.3348L48.3708 24.3C48.6108 23.98 48.9188 23.728 49.2948 23.544C49.6708 23.352 50.0868 23.256 50.5428 23.256ZM50.2788 29.124C50.6868 29.124 51.0428 29.02 51.3468 28.812C51.6508 28.604 51.8868 28.32 52.0548 27.96C52.2228 27.592 52.3068 27.172 52.3068 26.7C52.3068 26.22 52.2228 25.8 52.0548 25.44C51.8868 25.072 51.6508 24.788 51.3468 24.588C51.0428 24.38 50.6868 24.276 50.2788 24.276C49.8628 24.276 49.4828 24.396 49.1388 24.636C48.8028 24.868 48.5548 25.188 48.3948 25.596V27.78C48.5548 28.196 48.8028 28.524 49.1388 28.764C49.4828 29.004 49.8628 29.124 50.2788 29.124Z" fill="#808080"/>
<path d="M80.104 30V21.624H81.844V28.56H86.008V30H80.104ZM92.1447 30L92.0847 28.704V25.572C92.0847 25.204 91.9567 24.916 91.7007 24.708C91.4447 24.5 91.0927 24.396 90.6447 24.396C90.2047 24.396 89.8487 24.492 89.5767 24.684C89.3047 24.868 89.1487 25.128 89.1087 25.464H87.5127C87.5527 24.992 87.7087 24.588 87.9807 24.252C88.2607 23.916 88.6327 23.66 89.0967 23.484C89.5607 23.3 90.0967 23.208 90.7047 23.208C91.3207 23.208 91.8527 23.304 92.3007 23.496C92.7567 23.688 93.1087 23.968 93.3567 24.336C93.6047 24.696 93.7287 25.14 93.7287 25.668V30H92.1447ZM89.9247 30.144C89.4847 30.144 89.0967 30.06 88.7607 29.892C88.4327 29.724 88.1767 29.492 87.9927 29.196C87.8087 28.9 87.7167 28.556 87.7167 28.164C87.7167 27.484 87.9807 26.956 88.5087 26.58C89.0367 26.196 89.7727 26.004 90.7167 26.004H92.2647V27.168H90.6687C90.2527 27.168 89.9247 27.244 89.6847 27.396C89.4447 27.548 89.3247 27.772 89.3247 28.068C89.3247 28.284 89.4127 28.468 89.5887 28.62C89.7647 28.764 90.0047 28.836 90.3087 28.836C90.7167 28.836 91.0807 28.728 91.4007 28.512C91.7207 28.296 91.9847 28.004 92.1927 27.636L92.3727 28.776C92.1647 29.232 91.8527 29.576 91.4367 29.808C91.0207 30.032 90.5167 30.144 89.9247 30.144ZM97.8974 25.98L98.5094 27.672L99.1214 25.98L100.225 23.352H101.917L98.9294 30.42C98.7374 30.884 98.5174 31.248 98.2694 31.512C98.0294 31.784 97.7534 31.98 97.4414 32.1C97.1374 32.22 96.7854 32.28 96.3854 32.28H95.1734V30.948H96.2294C96.4454 30.948 96.6294 30.896 96.7814 30.792C96.9334 30.696 97.0694 30.56 97.1894 30.384C97.3094 30.208 97.4214 30 97.5254 29.76L97.6574 29.436L95.1014 23.352H96.8054L97.8974 25.98ZM106.314 30.144C105.61 30.144 105.002 30.004 104.49 29.724C103.986 29.444 103.598 29.048 103.326 28.536C103.062 28.016 102.93 27.396 102.93 26.676C102.93 25.956 103.062 25.34 103.326 24.828C103.598 24.308 103.986 23.908 104.49 23.628C105.002 23.348 105.61 23.208 106.314 23.208C107.37 23.208 108.194 23.516 108.786 24.132C109.386 24.748 109.686 25.596 109.686 26.676C109.686 27.396 109.55 28.016 109.278 28.536C109.014 29.048 108.63 29.444 108.126 29.724C107.622 30.004 107.018 30.144 106.314 30.144ZM106.314 28.8C106.85 28.8 107.27 28.612 107.574 28.236C107.886 27.852 108.042 27.332 108.042 26.676C108.042 26.012 107.886 25.492 107.574 25.116C107.27 24.74 106.85 24.552 106.314 24.552C105.77 24.552 105.342 24.74 105.03 25.116C104.726 25.492 104.574 26.012 104.574 26.676C104.574 27.332 104.726 27.852 105.03 28.236C105.342 28.612 105.77 28.8 106.314 28.8ZM112.559 23.352V27.48C112.559 27.864 112.659 28.176 112.859 28.416C113.067 28.648 113.339 28.764 113.675 28.764C114.059 28.764 114.407 28.632 114.719 28.368C115.031 28.096 115.323 27.656 115.595 27.048L115.835 28.56C115.547 29.112 115.183 29.516 114.743 29.772C114.303 30.02 113.839 30.144 113.351 30.144C112.847 30.144 112.411 30.036 112.043 29.82C111.683 29.604 111.403 29.308 111.203 28.932C111.003 28.548 110.903 28.096 110.903 27.576V23.352H112.559ZM117.095 23.352V30H115.511L115.451 28.716V23.352H117.095ZM122.463 30C122.031 30 121.651 29.904 121.323 29.712C121.003 29.52 120.755 29.252 120.579 28.908C120.411 28.564 120.327 28.172 120.327 27.732V22.188L121.983 21.408V27.732C121.983 27.932 122.011 28.104 122.067 28.248C122.123 28.384 122.235 28.488 122.403 28.56C122.571 28.632 122.803 28.668 123.099 28.668H124.887V30H122.463ZM118.935 24.684V23.352H123.747V24.684H118.935Z" fill="#222222"/>
<path d="M154.02 30.144C153.372 30.144 152.808 30.02 152.328 29.772C151.848 29.524 151.476 29.168 151.212 28.704C150.948 28.24 150.816 27.676 150.816 27.012H152.076C152.076 27.668 152.248 28.176 152.592 28.536C152.936 28.888 153.408 29.064 154.008 29.064C154.52 29.064 154.932 28.948 155.244 28.716C155.556 28.476 155.712 28.144 155.712 27.72C155.712 27.432 155.624 27.2 155.448 27.024C155.28 26.848 155.052 26.704 154.764 26.592C154.484 26.48 154.176 26.38 153.84 26.292C153.504 26.204 153.164 26.108 152.82 26.004C152.484 25.892 152.172 25.752 151.884 25.584C151.604 25.416 151.376 25.192 151.2 24.912C151.032 24.632 150.948 24.276 150.948 23.844C150.948 23.388 151.068 22.984 151.308 22.632C151.556 22.272 151.896 21.992 152.328 21.792C152.768 21.584 153.284 21.48 153.876 21.48C154.452 21.48 154.968 21.588 155.424 21.804C155.88 22.012 156.244 22.312 156.516 22.704C156.796 23.088 156.94 23.552 156.948 24.096H155.676C155.668 23.776 155.58 23.504 155.412 23.28C155.252 23.048 155.036 22.872 154.764 22.752C154.5 22.624 154.204 22.56 153.876 22.56C153.404 22.56 153.02 22.672 152.724 22.896C152.428 23.12 152.28 23.424 152.28 23.808C152.28 24.08 152.364 24.296 152.532 24.456C152.708 24.616 152.936 24.748 153.216 24.852C153.504 24.948 153.816 25.04 154.152 25.128C154.496 25.208 154.836 25.304 155.172 25.416C155.508 25.52 155.816 25.664 156.096 25.848C156.384 26.024 156.612 26.264 156.78 26.568C156.956 26.864 157.044 27.244 157.044 27.708C157.044 28.204 156.912 28.636 156.648 29.004C156.384 29.364 156.024 29.644 155.568 29.844C155.112 30.044 154.596 30.144 154.02 30.144ZM160.925 30V23.4H162.137V30H160.925ZM158.489 30V29.016H164.405V30H158.489ZM159.365 24.384V23.4H161.525V24.384H159.365ZM160.841 22.272V20.964H162.197V22.272H160.841ZM171.213 30V25.176C171.213 24.888 171.161 24.664 171.057 24.504C170.961 24.344 170.809 24.264 170.601 24.264C170.313 24.264 170.053 24.448 169.821 24.816C169.597 25.184 169.441 25.764 169.353 26.556L169.245 25.536C169.269 24.816 169.437 24.256 169.749 23.856C170.069 23.456 170.461 23.256 170.925 23.256C171.357 23.256 171.697 23.416 171.945 23.736C172.201 24.048 172.329 24.496 172.329 25.08V30H171.213ZM165.729 30V23.4H166.797L166.845 24.684V30H165.729ZM168.477 30V25.176C168.477 24.872 168.421 24.644 168.309 24.492C168.205 24.34 168.045 24.264 167.829 24.264C167.525 24.264 167.265 24.456 167.049 24.84C166.833 25.224 166.681 25.796 166.593 26.556L166.569 25.5C166.585 25.028 166.669 24.624 166.821 24.288C166.973 23.952 167.169 23.696 167.409 23.52C167.649 23.344 167.905 23.256 168.177 23.256C168.625 23.256 168.969 23.42 169.209 23.748C169.457 24.068 169.581 24.508 169.581 25.068V30H168.477ZM174.758 23.4V27.564C174.758 28.028 174.89 28.404 175.154 28.692C175.418 28.972 175.762 29.112 176.186 29.112C176.674 29.112 177.106 28.936 177.482 28.584C177.866 28.224 178.17 27.668 178.394 26.916L178.586 28.272C178.338 28.896 177.978 29.364 177.506 29.676C177.042 29.988 176.534 30.144 175.982 30.144C175.486 30.144 175.054 30.04 174.686 29.832C174.326 29.616 174.046 29.32 173.846 28.944C173.646 28.568 173.546 28.124 173.546 27.612V23.4H174.758ZM179.462 23.4V30H178.31L178.25 28.512V23.4H179.462ZM183.559 30V21.18H184.771V30H183.559ZM181.123 30V29.016H187.219V30H181.123ZM181.999 22.164V21.18H184.159V22.164H181.999ZM193.451 30L193.403 28.5V25.68C193.403 25.208 193.247 24.84 192.935 24.576C192.631 24.304 192.211 24.168 191.675 24.168C191.155 24.168 190.731 24.288 190.403 24.528C190.075 24.76 189.895 25.084 189.863 25.5H188.675C188.715 25.028 188.867 24.628 189.131 24.3C189.395 23.964 189.747 23.708 190.187 23.532C190.627 23.348 191.135 23.256 191.711 23.256C192.303 23.256 192.815 23.356 193.247 23.556C193.679 23.748 194.011 24.028 194.243 24.396C194.483 24.764 194.603 25.212 194.603 25.74V30H193.451ZM191.063 30.144C190.631 30.144 190.251 30.068 189.923 29.916C189.595 29.756 189.339 29.532 189.155 29.244C188.971 28.948 188.879 28.604 188.879 28.212C188.879 27.532 189.139 27.004 189.659 26.628C190.187 26.252 190.923 26.064 191.867 26.064H193.559V26.964H191.819C191.275 26.964 190.847 27.068 190.535 27.276C190.231 27.484 190.079 27.776 190.079 28.152C190.079 28.464 190.187 28.708 190.403 28.884C190.627 29.06 190.927 29.148 191.303 29.148C191.783 29.148 192.207 29.02 192.575 28.764C192.951 28.5 193.255 28.14 193.487 27.684L193.619 28.572C193.411 29.076 193.091 29.464 192.659 29.736C192.227 30.008 191.695 30.144 191.063 30.144ZM199.828 30C199.42 30 199.072 29.92 198.784 29.76C198.496 29.592 198.28 29.356 198.136 29.052C197.992 28.748 197.92 28.392 197.92 27.984V22.152L199.132 21.492V27.984C199.132 28.176 199.16 28.352 199.216 28.512C199.272 28.672 199.38 28.796 199.54 28.884C199.708 28.972 199.952 29.016 200.272 29.016H202.252V30H199.828ZM196.36 24.384V23.4H201.196V24.384H196.36ZM206.313 30V23.4H207.525V30H206.313ZM203.877 30V29.016H209.793V30H203.877ZM204.753 24.384V23.4H206.913V24.384H204.753ZM206.229 22.272V20.964H207.585V22.272H206.229ZM214.406 30.144C213.726 30.144 213.138 30.004 212.642 29.724C212.154 29.444 211.778 29.048 211.514 28.536C211.25 28.016 211.118 27.404 211.118 26.7C211.118 25.98 211.25 25.368 211.514 24.864C211.778 24.352 212.154 23.956 212.642 23.676C213.138 23.396 213.73 23.256 214.418 23.256C215.442 23.256 216.246 23.564 216.83 24.18C217.414 24.788 217.706 25.628 217.706 26.7C217.706 27.404 217.574 28.016 217.31 28.536C217.046 29.048 216.666 29.444 216.17 29.724C215.682 30.004 215.094 30.144 214.406 30.144ZM214.418 29.136C215.058 29.136 215.562 28.92 215.93 28.488C216.306 28.048 216.494 27.452 216.494 26.7C216.494 25.94 216.306 25.344 215.93 24.912C215.562 24.48 215.058 24.264 214.418 24.264C213.77 24.264 213.262 24.48 212.894 24.912C212.526 25.344 212.342 25.94 212.342 26.7C212.342 27.452 212.526 28.048 212.894 28.488C213.262 28.92 213.77 29.136 214.418 29.136ZM223.758 30V25.836C223.758 25.372 223.626 25 223.362 24.72C223.098 24.432 222.754 24.288 222.33 24.288C221.842 24.288 221.406 24.468 221.022 24.828C220.646 25.18 220.346 25.732 220.122 26.484L219.93 25.128C220.178 24.504 220.534 24.036 220.998 23.724C221.47 23.412 221.982 23.256 222.534 23.256C223.03 23.256 223.458 23.364 223.818 23.58C224.186 23.788 224.47 24.08 224.67 24.456C224.87 24.832 224.97 25.276 224.97 25.788V30H223.758ZM219.054 30V23.4H220.206L220.266 24.888V30H219.054Z" fill="#808080"/>
<path d="M304 99.5H0V100.5H304V99.5Z" fill="#E6E6E6"/>
<path d="M17.008 80L16.204 71.624H17.62L18.04 76.628L18.148 78.692L18.436 76.628L19.252 71.624H20.584L21.436 76.628L21.76 78.752L21.832 76.628L22.228 71.624H23.632L22.804 80H20.812L20.176 75.86L19.924 73.784L19.66 75.86L19 80H17.008ZM29.2887 80L29.2287 78.596V75.62C29.2287 75.204 29.0887 74.876 28.8087 74.636C28.5287 74.396 28.1407 74.276 27.6447 74.276C27.1727 74.276 26.7847 74.384 26.4807 74.6C26.1847 74.816 26.0167 75.112 25.9767 75.488H24.5847C24.6247 75.016 24.7767 74.612 25.0407 74.276C25.3127 73.94 25.6727 73.684 26.1207 73.508C26.5767 73.324 27.1007 73.232 27.6927 73.232C28.3007 73.232 28.8247 73.328 29.2647 73.52C29.7127 73.712 30.0567 73.992 30.2967 74.36C30.5367 74.728 30.6567 75.176 30.6567 75.704V80H29.2887ZM26.9847 80.144C26.5527 80.144 26.1687 80.064 25.8327 79.904C25.5047 79.744 25.2487 79.516 25.0647 79.22C24.8807 78.924 24.7887 78.58 24.7887 78.188C24.7887 77.508 25.0527 76.98 25.5807 76.604C26.1087 76.22 26.8407 76.028 27.7767 76.028H29.3967V77.06L27.7287 77.072C27.2487 77.072 26.8727 77.164 26.6007 77.348C26.3287 77.524 26.1927 77.78 26.1927 78.116C26.1927 78.38 26.2887 78.592 26.4807 78.752C26.6807 78.912 26.9527 78.992 27.2967 78.992C27.7367 78.992 28.1287 78.876 28.4727 78.644C28.8247 78.404 29.1087 78.076 29.3247 77.66L29.4807 78.668C29.2727 79.156 28.9567 79.524 28.5327 79.772C28.1087 80.02 27.5927 80.144 26.9847 80.144ZM34.7894 80V71.156H36.2294V80H34.7894ZM32.4494 80V78.836H38.5934V80H32.4494ZM33.3134 72.32V71.156H35.5094V72.32H33.3134ZM42.5941 80V71.156H44.0341V80H42.5941ZM40.2541 80V78.836H46.3981V80H40.2541ZM41.1181 72.32V71.156H43.3141V72.32H41.1181ZM58.6594 80V75.104L58.7434 73.376L57.3634 74.492L55.8874 75.668V73.928L59.0674 71.624H60.1714V80H58.6594ZM55.8874 80V78.74H62.0554V80H55.8874Z" fill="#222222"/>
<path fill-rule="evenodd" clip-rule="evenodd" d="M242.175 68.175C242.394 67.9562 242.691 67.8333 243 67.8333H255C255.31 67.8333 255.606 67.9562 255.825 68.175C256.044 68.3938 256.167 68.6905 256.167 68.9999V80.9999C256.167 81.3093 256.044 81.6061 255.825 81.8249C255.606 82.0437 255.31 82.1666 255 82.1666H253.5V82.9999C253.5 83.3093 253.377 83.6061 253.158 83.8249C252.94 84.0437 252.643 84.1666 252.333 84.1666H241C240.691 84.1666 240.394 84.0437 240.175 83.8249C239.956 83.6061 239.833 83.3093 239.833 82.9999V71.6666C239.833 71.3572 239.956 71.0604 240.175 70.8416C240.394 70.6228 240.691 70.4999 241 70.4999H241.833V68.9999C241.833 68.6905 241.956 68.3938 242.175 68.175ZM241.833 71.4999H241C240.956 71.4999 240.914 71.5175 240.882 71.5487C240.851 71.58 240.833 71.6224 240.833 71.6666V82.9999C240.833 83.0441 240.851 83.0865 240.882 83.1178C240.914 83.149 240.956 83.1666 241 83.1666H252.333C252.378 83.1666 252.42 83.149 252.451 83.1178C252.483 83.0865 252.5 83.0441 252.5 82.9999V82.1666H243C242.691 82.1666 242.394 82.0437 242.175 81.8249C241.956 81.6061 241.833 81.3093 241.833 80.9999V71.4999ZM243 81.1666C242.956 81.1666 242.914 81.149 242.882 81.1178C242.851 81.0865 242.833 81.0441 242.833 80.9999V68.9999C242.833 68.9557 242.851 68.9133 242.882 68.8821C242.914 68.8508 242.956 68.8333 243 68.8333H255C255.044 68.8333 255.087 68.8508 255.118 68.8821C255.149 68.9133 255.167 68.9557 255.167 68.9999V80.9999C255.167 81.0441 255.149 81.0865 255.118 81.1178C255.087 81.149 255.044 81.1666 255 81.1666H243Z" fill="#222222"/>
<path fill-rule="evenodd" clip-rule="evenodd" d="M249 72C249.276 72 249.5 72.0001 249.5 72.0001V74.5L252 74.5C252 74.5 252 74.7239 252 75C252 75.2761 252 75.5 252 75.5H249.5L249.5 78C249.5 78 249.276 78 249 78C248.724 78 248.5 78 248.5 78L248.5 75.5H246C246 75.5 246 75.2761 246 75C246 74.7239 246 74.5 246 74.5L248.5 74.5V72.0001C248.5 72.0001 248.724 72 249 72Z" fill="#222222"/>
<path fill-rule="evenodd" clip-rule="evenodd" d="M274.175 68.1751C274.394 67.9563 274.691 67.8334 275 67.8334H287C287.31 67.8334 287.606 67.9563 287.825 68.1751C288.044 68.3939 288.167 68.6906 288.167 69V81C288.167 81.3095 288.044 81.6062 287.825 81.825C287.606 82.0438 287.31 82.1667 287 82.1667H285.5V83C285.5 83.3095 285.377 83.6062 285.158 83.825C284.94 84.0438 284.643 84.1667 284.333 84.1667H273C272.691 84.1667 272.394 84.0438 272.175 83.825C271.956 83.6062 271.833 83.3095 271.833 83V71.6667C271.833 71.3573 271.956 71.0605 272.175 70.8417C272.394 70.623 272.691 70.5 273 70.5H273.833V69C273.833 68.6906 273.956 68.3939 274.175 68.1751ZM273.833 71.5H273C272.956 71.5 272.914 71.5176 272.882 71.5489C272.851 71.5801 272.833 71.6225 272.833 71.6667V83C272.833 83.0442 272.851 83.0866 272.882 83.1179C272.914 83.1491 272.956 83.1667 273 83.1667H284.333C284.378 83.1667 284.42 83.1491 284.451 83.1179C284.483 83.0866 284.5 83.0442 284.5 83V82.1667H275C274.691 82.1667 274.394 82.0438 274.175 81.825C273.956 81.6062 273.833 81.3095 273.833 81V71.5ZM275 81.1667C274.956 81.1667 274.914 81.1491 274.882 81.1179C274.851 81.0866 274.833 81.0442 274.833 81V69C274.833 68.9558 274.851 68.9134 274.882 68.8822C274.914 68.8509 274.956 68.8334 275 68.8334H287C287.044 68.8334 287.087 68.8509 287.118 68.8822C287.149 68.9134 287.167 68.9558 287.167 69V81C287.167 81.0442 287.149 81.0866 287.118 81.1179C287.087 81.1491 287.044 81.1667 287 81.1667H275Z" fill="#222222"/>
<path d="M304 147.5H0V148.5H304V147.5Z" fill="#E6E6E6"/>
<path d="M16.768 128V119.624H19.42C20.044 119.624 20.6 119.724 21.088 119.924C21.584 120.116 22.004 120.396 22.348 120.764C22.692 121.124 22.956 121.56 23.14 122.072C23.324 122.584 23.416 123.156 23.416 123.788C23.416 124.428 23.324 125.008 23.14 125.528C22.956 126.04 22.692 126.484 22.348 126.86C22.004 127.228 21.584 127.512 21.088 127.712C20.6 127.904 20.044 128 19.42 128H16.768ZM18.268 126.74H19.42C19.932 126.74 20.368 126.62 20.728 126.38C21.088 126.132 21.364 125.788 21.556 125.348C21.756 124.9 21.856 124.38 21.856 123.788C21.856 123.196 21.756 122.684 21.556 122.252C21.364 121.812 21.088 121.476 20.728 121.244C20.368 121.004 19.932 120.884 19.42 120.884H18.268V126.74ZM27.0327 128V121.376H28.4607V128H27.0327ZM24.6927 128V126.836H30.7047V128H24.6927ZM25.5447 122.54V121.376H27.7407V122.54H25.5447ZM26.9487 120.332V118.868H28.5087V120.332H26.9487ZM37.5374 128V123.224C37.5374 122.968 37.4934 122.768 37.4054 122.624C37.3254 122.48 37.1934 122.408 37.0094 122.408C36.7534 122.408 36.5254 122.576 36.3254 122.912C36.1334 123.24 35.9934 123.776 35.9054 124.52L35.7974 123.548C35.7894 122.82 35.9374 122.252 36.2414 121.844C36.5534 121.436 36.9454 121.232 37.4174 121.232C37.8414 121.232 38.1814 121.392 38.4374 121.712C38.7014 122.032 38.8334 122.492 38.8334 123.092V128H37.5374ZM32.1854 128V121.376H33.4334L33.4814 122.648V128H32.1854ZM34.8614 128V123.224C34.8614 122.952 34.8134 122.748 34.7174 122.612C34.6294 122.476 34.4934 122.408 34.3094 122.408C34.0374 122.408 33.8094 122.584 33.6254 122.936C33.4414 123.288 33.3054 123.816 33.2174 124.52L33.2054 123.5C33.2054 123.028 33.2774 122.624 33.4214 122.288C33.5734 121.944 33.7654 121.684 33.9974 121.508C34.2294 121.324 34.4814 121.232 34.7534 121.232C35.1934 121.232 35.5374 121.4 35.7854 121.736C36.0334 122.064 36.1574 122.508 36.1574 123.068V128H34.8614ZM43.3861 128.144C42.6901 128.144 42.0901 128.008 41.5861 127.736C41.0821 127.456 40.6941 127.056 40.4221 126.536C40.1581 126.016 40.0261 125.396 40.0261 124.676C40.0261 123.956 40.1621 123.34 40.4341 122.828C40.7061 122.308 41.0981 121.912 41.6101 121.64C42.1221 121.368 42.7341 121.232 43.4461 121.232C44.5501 121.232 45.3621 121.54 45.8821 122.156C46.4101 122.772 46.6381 123.616 46.5661 124.688H41.1661L41.1781 123.644L45.1021 123.656C45.0701 123.272 44.9021 122.964 44.5981 122.732C44.2941 122.5 43.9101 122.384 43.4461 122.384C42.7901 122.384 42.2941 122.588 41.9581 122.996C41.6221 123.404 41.4541 123.984 41.4541 124.736C41.4541 125.168 41.5301 125.556 41.6821 125.9C41.8341 126.236 42.0501 126.5 42.3301 126.692C42.6181 126.876 42.9701 126.968 43.3861 126.968C43.8581 126.968 44.2501 126.856 44.5621 126.632C44.8821 126.408 45.0781 126.108 45.1501 125.732H46.5901C46.4941 126.476 46.1581 127.064 45.5821 127.496C45.0141 127.928 44.2821 128.144 43.3861 128.144ZM52.7388 128V123.86C52.7388 123.428 52.6188 123.084 52.3788 122.828C52.1468 122.572 51.8428 122.444 51.4668 122.444C51.0348 122.444 50.6428 122.6 50.2908 122.912C49.9468 123.216 49.6508 123.708 49.4028 124.388L49.1868 122.96C49.4508 122.376 49.8108 121.944 50.2668 121.664C50.7228 121.376 51.2108 121.232 51.7308 121.232C52.2348 121.232 52.6668 121.34 53.0268 121.556C53.3948 121.764 53.6748 122.06 53.8668 122.444C54.0668 122.82 54.1668 123.264 54.1668 123.776V128H52.7388ZM48.1188 128V121.376H49.4868L49.5468 122.768V128H48.1188ZM59.0914 128.144C58.4994 128.144 57.9754 128.044 57.5194 127.844C57.0714 127.636 56.7234 127.344 56.4754 126.968C56.2274 126.592 56.0994 126.148 56.0914 125.636H57.4354C57.4274 126.084 57.5714 126.436 57.8674 126.692C58.1714 126.948 58.5794 127.076 59.0914 127.076C59.4994 127.076 59.8274 127 60.0754 126.848C60.3234 126.696 60.4474 126.488 60.4474 126.224C60.4474 126.016 60.3714 125.848 60.2194 125.72C60.0674 125.592 59.8634 125.492 59.6074 125.42C59.3594 125.348 59.0834 125.284 58.7794 125.228C58.4834 125.164 58.1834 125.092 57.8794 125.012C57.5754 124.924 57.2954 124.812 57.0394 124.676C56.7914 124.532 56.5914 124.344 56.4394 124.112C56.2874 123.88 56.2114 123.584 56.2114 123.224C56.2114 122.832 56.3194 122.488 56.5354 122.192C56.7594 121.888 57.0754 121.652 57.4834 121.484C57.8914 121.316 58.3714 121.232 58.9234 121.232C59.7554 121.232 60.4274 121.428 60.9394 121.82C61.4514 122.204 61.7274 122.736 61.7674 123.416H60.4354C60.4114 123.056 60.2634 122.78 59.9914 122.588C59.7274 122.396 59.3714 122.3 58.9234 122.3C58.5154 122.3 58.1994 122.38 57.9754 122.54C57.7594 122.7 57.6514 122.904 57.6514 123.152C57.6514 123.36 57.7274 123.52 57.8794 123.632C58.0394 123.744 58.2434 123.832 58.4914 123.896C58.7394 123.96 59.0154 124.02 59.3194 124.076C59.6234 124.124 59.9234 124.188 60.2194 124.268C60.5234 124.348 60.7994 124.46 61.0474 124.604C61.3034 124.74 61.5074 124.928 61.6594 125.168C61.8194 125.408 61.8994 125.72 61.8994 126.104C61.8994 126.736 61.6434 127.236 61.1314 127.604C60.6274 127.964 59.9474 128.144 59.0914 128.144ZM66.0561 128V121.376H67.4841V128H66.0561ZM63.7161 128V126.836H69.7281V128H63.7161ZM64.5681 122.54V121.376H66.7641V122.54H64.5681ZM65.9721 120.332V118.868H67.5321V120.332H65.9721ZM74.5328 128.144C73.8368 128.144 73.2368 128.004 72.7328 127.724C72.2368 127.444 71.8528 127.048 71.5808 126.536C71.3168 126.016 71.1848 125.4 71.1848 124.688C71.1848 123.968 71.3168 123.352 71.5808 122.84C71.8528 122.328 72.2368 121.932 72.7328 121.652C73.2368 121.372 73.8368 121.232 74.5328 121.232C75.5728 121.232 76.3888 121.54 76.9808 122.156C77.5728 122.764 77.8688 123.608 77.8688 124.688C77.8688 125.4 77.7328 126.016 77.4608 126.536C77.1968 127.048 76.8128 127.444 76.3088 127.724C75.8128 128.004 75.2208 128.144 74.5328 128.144ZM74.5328 126.968C75.1168 126.968 75.5768 126.764 75.9128 126.356C76.2568 125.948 76.4288 125.392 76.4288 124.688C76.4288 123.976 76.2568 123.42 75.9128 123.02C75.5768 122.612 75.1168 122.408 74.5328 122.408C73.9328 122.408 73.4648 122.612 73.1288 123.02C72.7928 123.42 72.6248 123.976 72.6248 124.688C72.6248 125.392 72.7928 125.948 73.1288 126.356C73.4648 126.764 73.9328 126.968 74.5328 126.968ZM83.9575 128V123.86C83.9575 123.428 83.8375 123.084 83.5975 122.828C83.3655 122.572 83.0615 122.444 82.6855 122.444C82.2535 122.444 81.8615 122.6 81.5095 122.912C81.1655 123.216 80.8695 123.708 80.6215 124.388L80.4055 122.96C80.6695 122.376 81.0295 121.944 81.4855 121.664C81.9415 121.376 82.4295 121.232 82.9495 121.232C83.4535 121.232 83.8855 121.34 84.2455 121.556C84.6135 121.764 84.8935 122.06 85.0855 122.444C85.2855 122.82 85.3855 123.264 85.3855 123.776V128H83.9575ZM79.3375 128V121.376H80.7055L80.7655 122.768V128H79.3375ZM90.3102 128.144C89.7182 128.144 89.1942 128.044 88.7382 127.844C88.2902 127.636 87.9422 127.344 87.6942 126.968C87.4462 126.592 87.3182 126.148 87.3102 125.636H88.6542C88.6462 126.084 88.7902 126.436 89.0862 126.692C89.3902 126.948 89.7982 127.076 90.3102 127.076C90.7182 127.076 91.0462 127 91.2942 126.848C91.5422 126.696 91.6662 126.488 91.6662 126.224C91.6662 126.016 91.5902 125.848 91.4382 125.72C91.2862 125.592 91.0822 125.492 90.8262 125.42C90.5782 125.348 90.3022 125.284 89.9982 125.228C89.7022 125.164 89.4022 125.092 89.0982 125.012C88.7942 124.924 88.5142 124.812 88.2582 124.676C88.0102 124.532 87.8102 124.344 87.6582 124.112C87.5062 123.88 87.4302 123.584 87.4302 123.224C87.4302 122.832 87.5382 122.488 87.7542 122.192C87.9782 121.888 88.2942 121.652 88.7022 121.484C89.1102 121.316 89.5902 121.232 90.1422 121.232C90.9742 121.232 91.6462 121.428 92.1582 121.82C92.6702 122.204 92.9462 122.736 92.9862 123.416H91.6542C91.6302 123.056 91.4822 122.78 91.2102 122.588C90.9462 122.396 90.5902 122.3 90.1422 122.3C89.7342 122.3 89.4182 122.38 89.1942 122.54C88.9782 122.7 88.8702 122.904 88.8702 123.152C88.8702 123.36 88.9462 123.52 89.0982 123.632C89.2582 123.744 89.4622 123.832 89.7102 123.896C89.9582 123.96 90.2342 124.02 90.5382 124.076C90.8422 124.124 91.1422 124.188 91.4382 124.268C91.7422 124.348 92.0182 124.46 92.2662 124.604C92.5222 124.74 92.7262 124.928 92.8782 125.168C93.0382 125.408 93.1182 125.72 93.1182 126.104C93.1182 126.736 92.8622 127.236 92.3502 127.604C91.8462 127.964 91.1662 128.144 90.3102 128.144Z" fill="#222222"/>
<path d="M280 126.702L274.692 121.394L275.4 120.687L280 125.287L284.6 120.687L285.308 121.394L280 126.702Z" fill="#222222"/>
<path d="M304 275.5H0V276.5H304V275.5Z" fill="#E6E6E6"/>
<path d="M17.008 176L16.204 167.624H17.62L18.04 172.628L18.148 174.692L18.436 172.628L19.252 167.624H20.584L21.436 172.628L21.76 174.752L21.832 172.628L22.228 167.624H23.632L22.804 176H20.812L20.176 171.86L19.924 169.784L19.66 171.86L19 176H17.008ZM29.2887 176L29.2287 174.596V171.62C29.2287 171.204 29.0887 170.876 28.8087 170.636C28.5287 170.396 28.1407 170.276 27.6447 170.276C27.1727 170.276 26.7847 170.384 26.4807 170.6C26.1847 170.816 26.0167 171.112 25.9767 171.488H24.5847C24.6247 171.016 24.7767 170.612 25.0407 170.276C25.3127 169.94 25.6727 169.684 26.1207 169.508C26.5767 169.324 27.1007 169.232 27.6927 169.232C28.3007 169.232 28.8247 169.328 29.2647 169.52C29.7127 169.712 30.0567 169.992 30.2967 170.36C30.5367 170.728 30.6567 171.176 30.6567 171.704V176H29.2887ZM26.9847 176.144C26.5527 176.144 26.1687 176.064 25.8327 175.904C25.5047 175.744 25.2487 175.516 25.0647 175.22C24.8807 174.924 24.7887 174.58 24.7887 174.188C24.7887 173.508 25.0527 172.98 25.5807 172.604C26.1087 172.22 26.8407 172.028 27.7767 172.028H29.3967V173.06L27.7287 173.072C27.2487 173.072 26.8727 173.164 26.6007 173.348C26.3287 173.524 26.1927 173.78 26.1927 174.116C26.1927 174.38 26.2887 174.592 26.4807 174.752C26.6807 174.912 26.9527 174.992 27.2967 174.992C27.7367 174.992 28.1287 174.876 28.4727 174.644C28.8247 174.404 29.1087 174.076 29.3247 173.66L29.4807 174.668C29.2727 175.156 28.9567 175.524 28.5327 175.772C28.1087 176.02 27.5927 176.144 26.9847 176.144ZM34.7894 176V167.156H36.2294V176H34.7894ZM32.4494 176V174.836H38.5934V176H32.4494ZM33.3134 168.32V167.156H35.5094V168.32H33.3134ZM42.5941 176V167.156H44.0341V176H42.5941ZM40.2541 176V174.836H46.3981V176H40.2541ZM41.1181 168.32V167.156H43.3141V168.32H41.1181Z" fill="#222222"/>
<path d="M275.4 174.702L274.692 173.994L280 168.687L285.308 173.994L284.6 174.702L280 170.102L275.4 174.702Z" fill="#222222"/>
<path d="M16.6392 215.5V214.861L20.5597 209.009H16.5966V208.227H21.6108V208.866L17.6903 214.719H21.6534V215.5H16.6392ZM26.6676 212.219V215.5H25.8295V208.227H26.6676V210.898H26.7386C26.8665 210.616 27.0582 210.392 27.3139 210.227C27.572 210.058 27.9152 209.974 28.3438 209.974C28.7154 209.974 29.041 210.049 29.3203 210.198C29.5997 210.345 29.8163 210.571 29.9702 210.876C30.1264 211.179 30.2045 211.565 30.2045 212.034V215.5H29.3665V212.091C29.3665 211.658 29.254 211.323 29.0291 211.086C28.8066 210.847 28.4976 210.727 28.1023 210.727C27.8277 210.727 27.5814 210.785 27.3636 210.901C27.1482 211.017 26.9777 211.187 26.8523 211.409C26.7292 211.632 26.6676 211.902 26.6676 212.219ZM34.0247 215.614C33.4991 215.614 33.0458 215.498 32.6646 215.266C32.2858 215.031 31.9934 214.705 31.7875 214.286C31.5839 213.864 31.4821 213.374 31.4821 212.815C31.4821 212.257 31.5839 211.764 31.7875 211.338C31.9934 210.91 32.2799 210.576 32.6468 210.337C33.0162 210.095 33.447 209.974 33.9395 209.974C34.2235 209.974 34.5041 210.022 34.7811 210.116C35.0581 210.211 35.3102 210.365 35.5375 210.578C35.7647 210.789 35.9458 211.068 36.0808 211.416C36.2157 211.764 36.2832 212.193 36.2832 212.702V213.057H32.0787V212.332H35.4309C35.4309 212.025 35.3694 211.75 35.2463 211.509C35.1255 211.267 34.9527 211.076 34.7278 210.937C34.5053 210.797 34.2425 210.727 33.9395 210.727C33.6056 210.727 33.3168 210.81 33.073 210.976C32.8315 211.139 32.6457 211.352 32.5154 211.615C32.3852 211.878 32.3201 212.16 32.3201 212.46V212.943C32.3201 213.355 32.3912 213.704 32.5332 213.991C32.6776 214.275 32.8777 214.491 33.1333 214.641C33.389 214.787 33.6861 214.861 34.0247 214.861C34.2449 214.861 34.4437 214.83 34.6213 214.768C34.8012 214.705 34.9563 214.61 35.0865 214.484C35.2167 214.357 35.3173 214.198 35.3883 214.009L36.198 214.236C36.1127 214.51 35.9695 214.752 35.7683 214.96C35.5671 215.166 35.3185 215.327 35.0225 215.443C34.7266 215.557 34.394 215.614 34.0247 215.614ZM37.5581 215.5V210.045H38.3961V215.5H37.5581ZM37.9842 209.136C37.8208 209.136 37.68 209.081 37.5616 208.969C37.4456 208.858 37.3876 208.724 37.3876 208.568C37.3876 208.412 37.4456 208.278 37.5616 208.167C37.68 208.056 37.8208 208 37.9842 208C38.1475 208 38.2872 208.056 38.4032 208.167C38.5216 208.278 38.5808 208.412 38.5808 208.568C38.5808 208.724 38.5216 208.858 38.4032 208.969C38.2872 209.081 38.1475 209.136 37.9842 209.136ZM42.1328 217.659C41.728 217.659 41.38 217.607 41.0888 217.503C40.7976 217.401 40.5549 217.266 40.3608 217.098C40.169 216.932 40.0163 216.755 39.9027 216.565L40.5703 216.097C40.6461 216.196 40.742 216.31 40.858 216.438C40.974 216.568 41.1326 216.68 41.3338 216.775C41.5374 216.872 41.8037 216.92 42.1328 216.92C42.5732 216.92 42.9366 216.814 43.223 216.601C43.5095 216.388 43.6527 216.054 43.6527 215.599V214.491H43.5817C43.5201 214.591 43.4325 214.714 43.3189 214.861C43.2076 215.005 43.0466 215.134 42.8359 215.248C42.6276 215.359 42.3459 215.415 41.9908 215.415C41.5504 215.415 41.1551 215.311 40.8047 215.102C40.4567 214.894 40.1809 214.591 39.9773 214.193C39.776 213.795 39.6754 213.312 39.6754 212.744C39.6754 212.186 39.7737 211.699 39.9702 211.285C40.1667 210.868 40.4401 210.546 40.7905 210.319C41.1409 210.089 41.5457 209.974 42.005 209.974C42.3601 209.974 42.6418 210.034 42.8501 210.152C43.0608 210.268 43.2218 210.401 43.3331 210.55C43.4467 210.696 43.5343 210.817 43.5959 210.912H43.6811V210.045H44.4908V215.656C44.4908 216.125 44.3842 216.506 44.1712 216.8C43.9605 217.096 43.6764 217.312 43.3189 217.45C42.9638 217.589 42.5684 217.659 42.1328 217.659ZM42.1044 214.662C42.4406 214.662 42.7247 214.585 42.9567 214.431C43.1887 214.277 43.3651 214.056 43.4858 213.767C43.6065 213.478 43.6669 213.133 43.6669 212.73C43.6669 212.337 43.6077 211.99 43.4893 211.69C43.371 211.389 43.1958 211.153 42.9638 210.983C42.7318 210.812 42.4453 210.727 42.1044 210.727C41.7493 210.727 41.4534 210.817 41.2166 210.997C40.9822 211.177 40.8059 211.419 40.6875 211.722C40.5715 212.025 40.5135 212.361 40.5135 212.73C40.5135 213.109 40.5727 213.444 40.6911 213.735C40.8118 214.024 40.9893 214.251 41.2237 214.417C41.4605 214.58 41.754 214.662 42.1044 214.662ZM46.8629 212.219V215.5H46.0249V208.227H46.8629V210.898H46.9339C47.0618 210.616 47.2536 210.392 47.5092 210.227C47.7673 210.058 48.1106 209.974 48.5391 209.974C48.9107 209.974 49.2363 210.049 49.5156 210.198C49.795 210.345 50.0116 210.571 50.1655 210.876C50.3217 211.179 50.3999 211.565 50.3999 212.034V215.5H49.5618V212.091C49.5618 211.658 49.4493 211.323 49.2244 211.086C49.0019 210.847 48.6929 210.727 48.2976 210.727C48.023 210.727 47.7768 210.785 47.5589 210.901C47.3435 211.017 47.1731 211.187 47.0476 211.409C46.9245 211.632 46.8629 211.902 46.8629 212.219ZM54.3052 210.045V210.756H51.4785V210.045H54.3052ZM52.3024 208.739H53.1404V213.938C53.1404 214.174 53.1748 214.352 53.2434 214.47C53.3145 214.586 53.4044 214.664 53.5133 214.705C53.6246 214.742 53.7418 214.761 53.8649 214.761C53.9572 214.761 54.033 214.757 54.0922 214.747C54.1513 214.735 54.1987 214.726 54.2342 214.719L54.4047 215.472C54.3478 215.493 54.2685 215.514 54.1667 215.536C54.0649 215.559 53.9359 215.571 53.7797 215.571C53.5429 215.571 53.3109 215.52 53.0836 215.418C52.8587 215.317 52.6717 215.161 52.5225 214.953C52.3758 214.745 52.3024 214.482 52.3024 214.165V208.739Z" fill="#222222"/>
<path d="M147.31 208.227V215.5H146.429V209.151H146.386L144.611 210.33V209.435L146.429 208.227H147.31ZM151.773 215.599C151.238 215.599 150.783 215.454 150.406 215.163C150.03 214.869 149.742 214.444 149.543 213.888C149.344 213.329 149.245 212.654 149.245 211.864C149.245 211.078 149.344 210.406 149.543 209.85C149.745 209.291 150.033 208.865 150.41 208.572C150.789 208.276 151.243 208.128 151.773 208.128C152.304 208.128 152.757 208.276 153.134 208.572C153.512 208.865 153.801 209.291 154 209.85C154.201 210.406 154.302 211.078 154.302 211.864C154.302 212.654 154.202 213.329 154.004 213.888C153.805 214.444 153.517 214.869 153.141 215.163C152.764 215.454 152.308 215.599 151.773 215.599ZM151.773 214.818C152.304 214.818 152.716 214.562 153.009 214.051C153.303 213.54 153.45 212.811 153.45 211.864C153.45 211.234 153.382 210.698 153.247 210.255C153.115 209.812 152.923 209.475 152.672 209.243C152.423 209.011 152.124 208.895 151.773 208.895C151.248 208.895 150.837 209.154 150.541 209.673C150.245 210.189 150.097 210.919 150.097 211.864C150.097 212.493 150.164 213.028 150.296 213.469C150.429 213.909 150.619 214.244 150.868 214.474C151.119 214.703 151.421 214.818 151.773 214.818ZM158.023 215.599C157.488 215.599 157.033 215.454 156.656 215.163C156.28 214.869 155.992 214.444 155.793 213.888C155.594 213.329 155.495 212.654 155.495 211.864C155.495 211.078 155.594 210.406 155.793 209.85C155.995 209.291 156.283 208.865 156.66 208.572C157.039 208.276 157.493 208.128 158.023 208.128C158.554 208.128 159.007 208.276 159.384 208.572C159.762 208.865 160.051 209.291 160.25 209.85C160.451 210.406 160.552 211.078 160.552 211.864C160.552 212.654 160.452 213.329 160.254 213.888C160.055 214.444 159.767 214.869 159.391 215.163C159.014 215.454 158.558 215.599 158.023 215.599ZM158.023 214.818C158.554 214.818 158.966 214.562 159.259 214.051C159.553 213.54 159.7 212.811 159.7 211.864C159.7 211.234 159.632 210.698 159.497 210.255C159.365 209.812 159.173 209.475 158.922 209.243C158.673 209.011 158.374 208.895 158.023 208.895C157.498 208.895 157.087 209.154 156.791 209.673C156.495 210.189 156.347 210.919 156.347 211.864C156.347 212.493 156.414 213.028 156.546 213.469C156.679 213.909 156.869 214.244 157.118 214.474C157.369 214.703 157.671 214.818 158.023 214.818ZM164.273 215.599C163.738 215.599 163.283 215.454 162.906 215.163C162.53 214.869 162.242 214.444 162.043 213.888C161.844 213.329 161.745 212.654 161.745 211.864C161.745 211.078 161.844 210.406 162.043 209.85C162.245 209.291 162.533 208.865 162.91 208.572C163.289 208.276 163.743 208.128 164.273 208.128C164.804 208.128 165.257 208.276 165.634 208.572C166.012 208.865 166.301 209.291 166.5 209.85C166.701 210.406 166.802 211.078 166.802 211.864C166.802 212.654 166.702 213.329 166.504 213.888C166.305 214.444 166.017 214.869 165.641 215.163C165.264 215.454 164.808 215.599 164.273 215.599ZM164.273 214.818C164.804 214.818 165.216 214.562 165.509 214.051C165.803 213.54 165.95 212.811 165.95 211.864C165.95 211.234 165.882 210.698 165.747 210.255C165.615 209.812 165.423 209.475 165.172 209.243C164.923 209.011 164.624 208.895 164.273 208.895C163.748 208.895 163.337 209.154 163.041 209.673C162.745 210.189 162.597 210.919 162.597 211.864C162.597 212.493 162.664 213.028 162.796 213.469C162.929 213.909 163.119 214.244 163.368 214.474C163.619 214.703 163.921 214.818 164.273 214.818ZM170.978 215.5V210.045H171.788V210.898H171.859C171.972 210.607 172.156 210.38 172.409 210.219C172.662 210.056 172.967 209.974 173.322 209.974C173.682 209.974 173.981 210.056 174.22 210.219C174.462 210.38 174.65 210.607 174.785 210.898H174.842C174.981 210.616 175.191 210.392 175.47 210.227C175.75 210.058 176.085 209.974 176.475 209.974C176.963 209.974 177.362 210.127 177.672 210.433C177.982 210.736 178.137 211.208 178.137 211.849V215.5H177.299V211.849C177.299 211.447 177.189 211.159 176.969 210.987C176.749 210.814 176.489 210.727 176.191 210.727C175.808 210.727 175.51 210.843 175.3 211.075C175.089 211.305 174.984 211.596 174.984 211.949V215.5H174.131V211.764C174.131 211.454 174.031 211.204 173.83 211.015C173.628 210.823 173.369 210.727 173.052 210.727C172.834 210.727 172.63 210.785 172.441 210.901C172.254 211.017 172.103 211.178 171.987 211.384C171.873 211.588 171.816 211.823 171.816 212.091V215.5H170.978ZM179.669 215.5V210.045H180.479V210.898H180.55C180.664 210.607 180.847 210.38 181.1 210.219C181.354 210.056 181.658 209.974 182.013 209.974C182.373 209.974 182.672 210.056 182.912 210.219C183.153 210.38 183.341 210.607 183.476 210.898H183.533C183.673 210.616 183.882 210.392 184.162 210.227C184.441 210.058 184.776 209.974 185.167 209.974C185.654 209.974 186.053 210.127 186.363 210.433C186.673 210.736 186.828 211.208 186.828 211.849V215.5H185.99V211.849C185.99 211.447 185.88 211.159 185.66 210.987C185.44 210.814 185.181 210.727 184.882 210.727C184.499 210.727 184.202 210.843 183.991 211.075C183.78 211.305 183.675 211.596 183.675 211.949V215.5H182.823V211.764C182.823 211.454 182.722 211.204 182.521 211.015C182.32 210.823 182.06 210.727 181.743 210.727C181.525 210.727 181.322 210.785 181.132 210.901C180.945 211.017 180.794 211.178 180.678 211.384C180.564 211.588 180.507 211.823 180.507 212.091V215.5H179.669Z" fill="#222222"/>
<path d="M16.8807 240.227H17.9318L20.4034 246.264H20.4886L22.9602 240.227H24.0114V247.5H23.1875V241.974H23.1165L20.8438 247.5H20.0483L17.7756 241.974H17.7045V247.5H16.8807V240.227ZM27.2686 247.628C26.923 247.628 26.6093 247.563 26.3276 247.433C26.0459 247.3 25.8221 247.109 25.6564 246.861C25.4907 246.61 25.4078 246.307 25.4078 245.952C25.4078 245.639 25.4694 245.386 25.5925 245.192C25.7156 244.995 25.8801 244.841 26.0861 244.73C26.2921 244.619 26.5194 244.536 26.7679 244.482C27.0189 244.425 27.271 244.38 27.5243 244.347C27.8558 244.304 28.1245 244.272 28.3304 244.251C28.5388 244.227 28.6903 244.188 28.785 244.134C28.882 244.079 28.9306 243.984 28.9306 243.849V243.821C28.9306 243.471 28.8347 243.198 28.6429 243.004C28.4535 242.81 28.1659 242.713 27.78 242.713C27.3799 242.713 27.0662 242.801 26.839 242.976C26.6117 243.151 26.4519 243.338 26.3596 243.537L25.5641 243.253C25.7061 242.921 25.8955 242.663 26.1323 242.479C26.3714 242.292 26.6318 242.161 26.9135 242.088C27.1976 242.012 27.477 241.974 27.7516 241.974C27.9268 241.974 28.128 241.996 28.3553 242.038C28.5849 242.079 28.8063 242.163 29.0194 242.29C29.2348 242.418 29.4135 242.611 29.5556 242.869C29.6976 243.127 29.7686 243.473 29.7686 243.906V247.5H28.9306V246.761H28.888C28.8311 246.88 28.7364 247.006 28.6039 247.141C28.4713 247.276 28.2949 247.391 28.0748 247.486C27.8546 247.58 27.5859 247.628 27.2686 247.628ZM27.3965 246.875C27.7279 246.875 28.0073 246.81 28.2346 246.68C28.4642 246.549 28.637 246.381 28.753 246.175C28.8714 245.969 28.9306 245.753 28.9306 245.526V244.759C28.8951 244.801 28.8169 244.84 28.6962 244.876C28.5778 244.909 28.4405 244.938 28.2843 244.964C28.1304 244.988 27.9801 245.009 27.8333 245.028C27.6889 245.045 27.5717 245.059 27.4817 245.071C27.2639 245.099 27.0603 245.146 26.8709 245.21C26.6839 245.271 26.5324 245.365 26.4164 245.49C26.3027 245.613 26.2459 245.781 26.2459 245.994C26.2459 246.286 26.3536 246.506 26.5691 246.655C26.7869 246.802 27.0627 246.875 27.3965 246.875ZM33.6705 242.045V242.756H30.8438V242.045H33.6705ZM31.6676 240.739H32.5057V245.938C32.5057 246.174 32.54 246.352 32.6087 246.47C32.6797 246.586 32.7696 246.664 32.8786 246.705C32.9898 246.742 33.107 246.761 33.2301 246.761C33.3224 246.761 33.3982 246.757 33.4574 246.747C33.5166 246.735 33.5639 246.726 33.5994 246.719L33.7699 247.472C33.7131 247.493 33.6338 247.514 33.532 247.536C33.4302 247.559 33.3011 247.571 33.1449 247.571C32.9081 247.571 32.6761 247.52 32.4489 247.418C32.224 247.317 32.0369 247.161 31.8878 246.953C31.741 246.745 31.6676 246.482 31.6676 246.165V240.739ZM37.1594 247.614C36.6339 247.614 36.1805 247.498 35.7994 247.266C35.4206 247.031 35.1282 246.705 34.9222 246.286C34.7186 245.864 34.6168 245.374 34.6168 244.815C34.6168 244.257 34.7186 243.764 34.9222 243.338C35.1282 242.91 35.4147 242.576 35.7816 242.337C36.1509 242.095 36.5818 241.974 37.0742 241.974C37.3583 241.974 37.6388 242.022 37.9158 242.116C38.1928 242.211 38.445 242.365 38.6722 242.578C38.8995 242.789 39.0806 243.068 39.2156 243.416C39.3505 243.764 39.418 244.193 39.418 244.702V245.057H35.2134V244.332H38.5657C38.5657 244.025 38.5041 243.75 38.381 243.509C38.2603 243.267 38.0875 243.076 37.8626 242.937C37.64 242.797 37.3772 242.727 37.0742 242.727C36.7404 242.727 36.4516 242.81 36.2077 242.976C35.9663 243.139 35.7804 243.352 35.6502 243.615C35.52 243.878 35.4549 244.16 35.4549 244.46V244.943C35.4549 245.355 35.5259 245.704 35.668 245.991C35.8124 246.275 36.0124 246.491 36.2681 246.641C36.5238 246.787 36.8209 246.861 37.1594 246.861C37.3796 246.861 37.5785 246.83 37.756 246.768C37.936 246.705 38.091 246.61 38.2212 246.484C38.3514 246.357 38.4521 246.198 38.5231 246.009L39.3327 246.236C39.2475 246.51 39.1043 246.752 38.9031 246.96C38.7018 247.166 38.4532 247.327 38.1573 247.443C37.8614 247.557 37.5288 247.614 37.1594 247.614ZM40.6928 247.5V242.045H41.5025V242.869H41.5593C41.6587 242.599 41.8387 242.38 42.0991 242.212C42.3595 242.044 42.6531 241.96 42.9798 241.96C43.0413 241.96 43.1183 241.961 43.2106 241.964C43.3029 241.966 43.3728 241.97 43.4201 241.974V242.827C43.3917 242.82 43.3266 242.809 43.2248 242.795C43.1254 242.778 43.02 242.77 42.9087 242.77C42.6436 242.77 42.4068 242.826 42.1985 242.937C41.9925 243.046 41.8292 243.197 41.7085 243.391C41.5901 243.583 41.5309 243.802 41.5309 244.048V247.5H40.6928ZM44.4135 247.5V242.045H45.2516V247.5H44.4135ZM44.8397 241.136C44.6763 241.136 44.5355 241.081 44.4171 240.969C44.3011 240.858 44.2431 240.724 44.2431 240.568C44.2431 240.412 44.3011 240.278 44.4171 240.167C44.5355 240.056 44.6763 240 44.8397 240C45.003 240 45.1427 240.056 45.2587 240.167C45.3771 240.278 45.4363 240.412 45.4363 240.568C45.4363 240.724 45.3771 240.858 45.2587 240.969C45.1427 241.081 45.003 241.136 44.8397 241.136ZM48.3917 247.628C48.046 247.628 47.7324 247.563 47.4506 247.433C47.1689 247.3 46.9452 247.109 46.7795 246.861C46.6138 246.61 46.5309 246.307 46.5309 245.952C46.5309 245.639 46.5924 245.386 46.7156 245.192C46.8387 244.995 47.0032 244.841 47.2092 244.73C47.4151 244.619 47.6424 244.536 47.891 244.482C48.1419 244.425 48.3941 244.38 48.6474 244.347C48.9788 244.304 49.2475 244.272 49.4535 244.251C49.6618 244.227 49.8133 244.188 49.908 244.134C50.0051 244.079 50.0536 243.984 50.0536 243.849V243.821C50.0536 243.471 49.9577 243.198 49.766 243.004C49.5766 242.81 49.2889 242.713 48.9031 242.713C48.503 242.713 48.1893 242.801 47.962 242.976C47.7347 243.151 47.5749 243.338 47.4826 243.537L46.6871 243.253C46.8292 242.921 47.0186 242.663 47.2553 242.479C47.4944 242.292 47.7549 242.161 48.0366 242.088C48.3207 242.012 48.6 241.974 48.8746 241.974C49.0498 241.974 49.2511 241.996 49.4783 242.038C49.708 242.079 49.9293 242.163 50.1424 242.29C50.3578 242.418 50.5366 242.611 50.6786 242.869C50.8207 243.127 50.8917 243.473 50.8917 243.906V247.5H50.0536V246.761H50.011C49.9542 246.88 49.8595 247.006 49.7269 247.141C49.5943 247.276 49.418 247.391 49.1978 247.486C48.9776 247.58 48.7089 247.628 48.3917 247.628ZM48.5195 246.875C48.851 246.875 49.1303 246.81 49.3576 246.68C49.5872 246.549 49.7601 246.381 49.8761 246.175C49.9944 245.969 50.0536 245.753 50.0536 245.526V244.759C50.0181 244.801 49.94 244.84 49.8192 244.876C49.7009 244.909 49.5636 244.938 49.4073 244.964C49.2534 244.988 49.1031 245.009 48.9563 245.028C48.8119 245.045 48.6947 245.059 48.6048 245.071C48.387 245.099 48.1834 245.146 47.994 245.21C47.8069 245.271 47.6554 245.365 47.5394 245.49C47.4258 245.613 47.369 245.781 47.369 245.994C47.369 246.286 47.4767 246.506 47.6921 246.655C47.9099 246.802 48.1857 246.875 48.5195 246.875ZM53.2594 240.227V247.5H52.4213V240.227H53.2594Z" fill="#222222"/>
<path d="M150.733 242.5H149.852C149.8 242.247 149.709 242.024 149.579 241.832C149.451 241.641 149.295 241.48 149.11 241.349C148.928 241.217 148.725 241.117 148.503 241.051C148.28 240.985 148.048 240.952 147.807 240.952C147.366 240.952 146.968 241.063 146.61 241.286C146.255 241.508 145.972 241.836 145.761 242.269C145.553 242.702 145.449 243.234 145.449 243.864C145.449 244.493 145.553 245.025 145.761 245.458C145.972 245.891 146.255 246.219 146.61 246.442C146.968 246.664 147.366 246.776 147.807 246.776C148.048 246.776 148.28 246.742 148.503 246.676C148.725 246.61 148.928 246.512 149.11 246.381C149.295 246.249 149.451 246.087 149.579 245.895C149.709 245.701 149.8 245.478 149.852 245.227H150.733C150.667 245.599 150.546 245.932 150.371 246.225C150.196 246.519 149.978 246.768 149.717 246.974C149.457 247.178 149.165 247.333 148.84 247.44C148.518 247.546 148.174 247.599 147.807 247.599C147.187 247.599 146.635 247.448 146.152 247.145C145.669 246.842 145.289 246.411 145.012 245.852C144.735 245.294 144.597 244.631 144.597 243.864C144.597 243.097 144.735 242.434 145.012 241.875C145.289 241.316 145.669 240.885 146.152 240.582C146.635 240.279 147.187 240.128 147.807 240.128C148.174 240.128 148.518 240.181 148.84 240.288C149.165 240.394 149.457 240.55 149.717 240.756C149.978 240.96 150.196 241.209 150.371 241.502C150.546 241.793 150.667 242.126 150.733 242.5ZM154.258 247.614C153.766 247.614 153.334 247.496 152.962 247.262C152.593 247.028 152.304 246.7 152.096 246.278C151.89 245.857 151.787 245.365 151.787 244.801C151.787 244.233 151.89 243.737 152.096 243.313C152.304 242.889 152.593 242.56 152.962 242.326C153.334 242.092 153.766 241.974 154.258 241.974C154.751 241.974 155.182 242.092 155.551 242.326C155.923 242.56 156.211 242.889 156.417 243.313C156.626 243.737 156.73 244.233 156.73 244.801C156.73 245.365 156.626 245.857 156.417 246.278C156.211 246.7 155.923 247.028 155.551 247.262C155.182 247.496 154.751 247.614 154.258 247.614ZM154.258 246.861C154.632 246.861 154.94 246.765 155.182 246.573C155.423 246.381 155.602 246.129 155.718 245.817C155.834 245.504 155.892 245.166 155.892 244.801C155.892 244.437 155.834 244.097 155.718 243.782C155.602 243.467 155.423 243.213 155.182 243.018C154.94 242.824 154.632 242.727 154.258 242.727C153.884 242.727 153.577 242.824 153.335 243.018C153.094 243.213 152.915 243.467 152.799 243.782C152.683 244.097 152.625 244.437 152.625 244.801C152.625 245.166 152.683 245.504 152.799 245.817C152.915 246.129 153.094 246.381 153.335 246.573C153.577 246.765 153.884 246.861 154.258 246.861ZM158.847 244.219V247.5H158.009V242.045H158.819V242.898H158.89C159.018 242.621 159.212 242.398 159.472 242.23C159.733 242.06 160.069 241.974 160.481 241.974C160.85 241.974 161.173 242.05 161.45 242.202C161.727 242.351 161.943 242.578 162.097 242.884C162.25 243.187 162.327 243.57 162.327 244.034V247.5H161.489V244.091C161.489 243.662 161.378 243.329 161.156 243.089C160.933 242.848 160.628 242.727 160.239 242.727C159.972 242.727 159.733 242.785 159.522 242.901C159.314 243.017 159.149 243.187 159.028 243.409C158.908 243.632 158.847 243.902 158.847 244.219ZM166.075 247.614C165.563 247.614 165.123 247.493 164.754 247.251C164.384 247.01 164.1 246.677 163.901 246.254C163.703 245.83 163.603 245.346 163.603 244.801C163.603 244.247 163.705 243.758 163.909 243.335C164.115 242.908 164.401 242.576 164.768 242.337C165.137 242.095 165.568 241.974 166.061 241.974C166.444 241.974 166.79 242.045 167.097 242.188C167.405 242.33 167.657 242.528 167.854 242.784C168.05 243.04 168.172 243.338 168.22 243.679H167.382C167.318 243.43 167.176 243.21 166.955 243.018C166.738 242.824 166.444 242.727 166.075 242.727C165.748 242.727 165.462 242.812 165.215 242.983C164.972 243.151 164.781 243.389 164.644 243.697C164.509 244.002 164.441 244.361 164.441 244.773C164.441 245.194 164.508 245.561 164.64 245.874C164.775 246.186 164.964 246.429 165.208 246.602C165.454 246.774 165.743 246.861 166.075 246.861C166.293 246.861 166.49 246.823 166.668 246.747C166.845 246.671 166.996 246.562 167.119 246.42C167.242 246.278 167.329 246.108 167.382 245.909H168.22C168.172 246.231 168.055 246.521 167.868 246.779C167.683 247.035 167.438 247.238 167.133 247.39C166.83 247.539 166.477 247.614 166.075 247.614ZM169.445 247.5V242.045H170.254V242.869H170.311C170.411 242.599 170.591 242.38 170.851 242.212C171.111 242.044 171.405 241.96 171.732 241.96C171.793 241.96 171.87 241.961 171.963 241.964C172.055 241.966 172.125 241.97 172.172 241.974V242.827C172.144 242.82 172.079 242.809 171.977 242.795C171.877 242.778 171.772 242.77 171.661 242.77C171.396 242.77 171.159 242.826 170.95 242.937C170.744 243.046 170.581 243.197 170.46 243.391C170.342 243.583 170.283 243.802 170.283 244.048V247.5H169.445ZM175.286 247.614C174.761 247.614 174.307 247.498 173.926 247.266C173.548 247.031 173.255 246.705 173.049 246.286C172.846 245.864 172.744 245.374 172.744 244.815C172.744 244.257 172.846 243.764 173.049 243.338C173.255 242.91 173.542 242.576 173.909 242.337C174.278 242.095 174.709 241.974 175.201 241.974C175.485 241.974 175.766 242.022 176.043 242.116C176.32 242.211 176.572 242.365 176.799 242.578C177.026 242.789 177.208 243.068 177.343 243.416C177.477 243.764 177.545 244.193 177.545 244.702V245.057H173.34V244.332H176.693C176.693 244.025 176.631 243.75 176.508 243.509C176.387 243.267 176.214 243.076 175.99 242.937C175.767 242.797 175.504 242.727 175.201 242.727C174.867 242.727 174.579 242.81 174.335 242.976C174.093 243.139 173.907 243.352 173.777 243.615C173.647 243.878 173.582 244.16 173.582 244.46V244.943C173.582 245.355 173.653 245.704 173.795 245.991C173.939 246.275 174.139 246.491 174.395 246.641C174.651 246.787 174.948 246.861 175.286 246.861C175.507 246.861 175.705 246.83 175.883 246.768C176.063 246.705 176.218 246.61 176.348 246.484C176.478 246.357 176.579 246.198 176.65 246.009L177.46 246.236C177.374 246.51 177.231 246.752 177.03 246.96C176.829 247.166 176.58 247.327 176.284 247.443C175.988 247.557 175.656 247.614 175.286 247.614ZM181.192 242.045V242.756H178.365V242.045H181.192ZM179.189 240.739H180.027V245.938C180.027 246.174 180.061 246.352 180.13 246.47C180.201 246.586 180.291 246.664 180.4 246.705C180.511 246.742 180.628 246.761 180.752 246.761C180.844 246.761 180.92 246.757 180.979 246.747C181.038 246.735 181.085 246.726 181.121 246.719L181.291 247.472C181.235 247.493 181.155 247.514 181.053 247.536C180.952 247.559 180.823 247.571 180.666 247.571C180.43 247.571 180.198 247.52 179.97 247.418C179.745 247.317 179.558 247.161 179.409 246.953C179.262 246.745 179.189 246.482 179.189 246.165V240.739ZM184.681 247.614C184.155 247.614 183.702 247.498 183.321 247.266C182.942 247.031 182.65 246.705 182.444 246.286C182.24 245.864 182.138 245.374 182.138 244.815C182.138 244.257 182.24 243.764 182.444 243.338C182.65 242.91 182.936 242.576 183.303 242.337C183.672 242.095 184.103 241.974 184.596 241.974C184.88 241.974 185.16 242.022 185.437 242.116C185.714 242.211 185.966 242.365 186.194 242.578C186.421 242.789 186.602 243.068 186.737 243.416C186.872 243.764 186.939 244.193 186.939 244.702V245.057H182.735V244.332H186.087C186.087 244.025 186.026 243.75 185.903 243.509C185.782 243.267 185.609 243.076 185.384 242.937C185.162 242.797 184.899 242.727 184.596 242.727C184.262 242.727 183.973 242.81 183.729 242.976C183.488 243.139 183.302 243.352 183.172 243.615C183.041 243.878 182.976 244.16 182.976 244.46V244.943C182.976 245.355 183.047 245.704 183.189 245.991C183.334 246.275 183.534 246.491 183.79 246.641C184.045 246.787 184.342 246.861 184.681 246.861C184.901 246.861 185.1 246.83 185.278 246.768C185.457 246.705 185.613 246.61 185.743 246.484C185.873 246.357 185.974 246.198 186.045 246.009L186.854 246.236C186.769 246.51 186.626 246.752 186.425 246.96C186.223 247.166 185.975 247.327 185.679 247.443C185.383 247.557 185.05 247.614 184.681 247.614Z" fill="#222222"/>
<path d="M197 245.801L193.461 242.263L193.933 241.791L197 244.858L200.067 241.791L200.538 242.263L197 245.801Z" fill="#D9D9D9"/>
<path d="M304 323.5H0V324.5H304V323.5Z" fill="#E6E6E6"/>
<path d="M16.864 304V295.624H23.02V296.884H18.376V299.032H21.532V300.292H18.376V304H16.864ZM26.9847 304V295.156H28.4247V304H26.9847ZM24.6447 304V302.836H30.7887V304H24.6447ZM25.5087 296.32V295.156H27.7047V296.32H25.5087ZM35.5094 304.144C34.8134 304.144 34.2134 304.004 33.7094 303.724C33.2134 303.444 32.8294 303.048 32.5574 302.536C32.2934 302.016 32.1614 301.4 32.1614 300.688C32.1614 299.968 32.2934 299.352 32.5574 298.84C32.8294 298.328 33.2134 297.932 33.7094 297.652C34.2134 297.372 34.8134 297.232 35.5094 297.232C36.5494 297.232 37.3654 297.54 37.9574 298.156C38.5494 298.764 38.8454 299.608 38.8454 300.688C38.8454 301.4 38.7094 302.016 38.4374 302.536C38.1734 303.048 37.7894 303.444 37.2854 303.724C36.7894 304.004 36.1974 304.144 35.5094 304.144ZM35.5094 302.968C36.0934 302.968 36.5534 302.764 36.8894 302.356C37.2334 301.948 37.4054 301.392 37.4054 300.688C37.4054 299.976 37.2334 299.42 36.8894 299.02C36.5534 298.612 36.0934 298.408 35.5094 298.408C34.9094 298.408 34.4414 298.612 34.1054 299.02C33.7694 299.42 33.6014 299.976 33.6014 300.688C33.6014 301.392 33.7694 301.948 34.1054 302.356C34.4414 302.764 34.9094 302.968 35.5094 302.968ZM40.6741 304L39.6421 297.352H40.9741L41.4781 300.976L41.6821 302.512L41.9581 300.976L42.6901 297.352H43.9741L44.7421 300.976L45.0301 302.536L45.2221 300.976L45.7261 297.352H46.9981L45.9781 304H44.3101L43.5421 300.532L43.3261 298.72L43.0981 300.532L42.3421 304H40.6741ZM51.2868 304.144C50.6948 304.144 50.1708 304.044 49.7148 303.844C49.2668 303.636 48.9188 303.344 48.6708 302.968C48.4228 302.592 48.2948 302.148 48.2868 301.636H49.6308C49.6228 302.084 49.7668 302.436 50.0628 302.692C50.3668 302.948 50.7748 303.076 51.2868 303.076C51.6948 303.076 52.0228 303 52.2708 302.848C52.5188 302.696 52.6428 302.488 52.6428 302.224C52.6428 302.016 52.5668 301.848 52.4148 301.72C52.2628 301.592 52.0588 301.492 51.8028 301.42C51.5548 301.348 51.2788 301.284 50.9748 301.228C50.6788 301.164 50.3788 301.092 50.0748 301.012C49.7708 300.924 49.4908 300.812 49.2348 300.676C48.9868 300.532 48.7868 300.344 48.6348 300.112C48.4828 299.88 48.4068 299.584 48.4068 299.224C48.4068 298.832 48.5148 298.488 48.7308 298.192C48.9548 297.888 49.2708 297.652 49.6788 297.484C50.0868 297.316 50.5668 297.232 51.1188 297.232C51.9508 297.232 52.6228 297.428 53.1348 297.82C53.6468 298.204 53.9228 298.736 53.9628 299.416H52.6308C52.6068 299.056 52.4588 298.78 52.1868 298.588C51.9228 298.396 51.5668 298.3 51.1188 298.3C50.7108 298.3 50.3948 298.38 50.1708 298.54C49.9548 298.7 49.8468 298.904 49.8468 299.152C49.8468 299.36 49.9228 299.52 50.0748 299.632C50.2348 299.744 50.4388 299.832 50.6868 299.896C50.9348 299.96 51.2108 300.02 51.5148 300.076C51.8188 300.124 52.1188 300.188 52.4148 300.268C52.7188 300.348 52.9948 300.46 53.2428 300.604C53.4988 300.74 53.7028 300.928 53.8548 301.168C54.0148 301.408 54.0948 301.72 54.0948 302.104C54.0948 302.736 53.8388 303.236 53.3268 303.604C52.8228 303.964 52.1428 304.144 51.2868 304.144Z" fill="#222222"/>
<rect x="64" y="292" width="16" height="16" rx="8" fill="#F7F7F7"/>
<path d="M69.518 303.5V302.74C70.438 302.053 71.178 301.457 71.738 300.95C72.298 300.437 72.7047 299.983 72.958 299.59C73.2114 299.19 73.338 298.827 73.338 298.5C73.338 298.14 73.2247 297.85 72.998 297.63C72.778 297.41 72.468 297.3 72.068 297.3C71.648 297.3 71.3014 297.43 71.028 297.69C70.7547 297.943 70.608 298.303 70.588 298.77H69.518C69.5514 298.27 69.678 297.843 69.898 297.49C70.1247 297.13 70.4247 296.86 70.798 296.68C71.178 296.493 71.608 296.4 72.088 296.4C72.568 296.4 72.9847 296.487 73.338 296.66C73.6914 296.827 73.9614 297.067 74.148 297.38C74.3414 297.687 74.438 298.043 74.438 298.45C74.438 298.89 74.3247 299.323 74.098 299.75C73.878 300.17 73.5214 300.613 73.028 301.08C72.5414 301.54 71.8947 302.047 71.088 302.6H74.458V303.5H69.518Z" fill="#222222"/>
<path d="M241.615 309C241.155 309 240.771 308.846 240.463 308.538C240.154 308.229 240 307.845 240 307.385V294.615C240 294.155 240.154 293.771 240.463 293.463C240.771 293.154 241.155 293 241.615 293H243.385V290.769H244.462V293H251.615V290.769H252.615V293H254.385C254.845 293 255.229 293.154 255.538 293.463C255.846 293.771 256 294.155 256 294.615V307.385C256 307.845 255.846 308.229 255.538 308.538C255.229 308.846 254.845 309 254.385 309H241.615ZM241.615 308H254.385C254.538 308 254.679 307.936 254.808 307.808C254.936 307.679 255 307.538 255 307.385V298.615H241V307.385C241 307.538 241.064 307.679 241.192 307.808C241.321 307.936 241.462 308 241.615 308ZM241 297.615H255V294.615C255 294.462 254.936 294.321 254.808 294.192C254.679 294.064 254.538 294 254.385 294H241.615C241.462 294 241.321 294.064 241.192 294.192C241.064 294.321 241 294.462 241 294.615V297.615ZM243.5 301.5V300.5H252.5V301.5H243.5ZM243.5 305.5V304.5H249.5V305.5H243.5Z" fill="#222222"/>
<path d="M280 302.702L274.692 297.394L275.4 296.687L280 301.287L284.6 296.687L285.308 297.394L280 302.702Z" fill="#222222"/>
<path d="M304 371.5H0V372.5H304V371.5Z" fill="#E6E6E6"/>
<path d="M17.212 352V343.624H18.724V350.74H22.996V352H17.212ZM29.2887 352L29.2287 350.596V347.62C29.2287 347.204 29.0887 346.876 28.8087 346.636C28.5287 346.396 28.1407 346.276 27.6447 346.276C27.1727 346.276 26.7847 346.384 26.4807 346.6C26.1847 346.816 26.0167 347.112 25.9767 347.488H24.5847C24.6247 347.016 24.7767 346.612 25.0407 346.276C25.3127 345.94 25.6727 345.684 26.1207 345.508C26.5767 345.324 27.1007 345.232 27.6927 345.232C28.3007 345.232 28.8247 345.328 29.2647 345.52C29.7127 345.712 30.0567 345.992 30.2967 346.36C30.5367 346.728 30.6567 347.176 30.6567 347.704V352H29.2887ZM26.9847 352.144C26.5527 352.144 26.1687 352.064 25.8327 351.904C25.5047 351.744 25.2487 351.516 25.0647 351.22C24.8807 350.924 24.7887 350.58 24.7887 350.188C24.7887 349.508 25.0527 348.98 25.5807 348.604C26.1087 348.22 26.8407 348.028 27.7767 348.028H29.3967V349.06L27.7287 349.072C27.2487 349.072 26.8727 349.164 26.6007 349.348C26.3287 349.524 26.1927 349.78 26.1927 350.116C26.1927 350.38 26.2887 350.592 26.4807 350.752C26.6807 350.912 26.9527 350.992 27.2967 350.992C27.7367 350.992 28.1287 350.876 28.4727 350.644C28.8247 350.404 29.1087 350.076 29.3247 349.66L29.4807 350.668C29.2727 351.156 28.9567 351.524 28.5327 351.772C28.1087 352.02 27.5927 352.144 26.9847 352.144ZM34.8974 348.328L35.5094 349.996L36.1334 348.316L37.3814 345.376H38.8454L35.8214 352.516C35.6374 352.964 35.4294 353.316 35.1974 353.572C34.9734 353.828 34.7174 354.008 34.4294 354.112C34.1414 354.224 33.8094 354.28 33.4334 354.28H32.2454V353.116H33.3134C33.5294 353.116 33.7094 353.068 33.8534 352.972C34.0054 352.884 34.1414 352.748 34.2614 352.564C34.3814 352.388 34.4974 352.168 34.6094 351.904L34.7774 351.52L32.1734 345.376H33.6614L34.8974 348.328ZM43.3861 352.144C42.6901 352.144 42.0901 352.008 41.5861 351.736C41.0821 351.456 40.6941 351.056 40.4221 350.536C40.1581 350.016 40.0261 349.396 40.0261 348.676C40.0261 347.956 40.1621 347.34 40.4341 346.828C40.7061 346.308 41.0981 345.912 41.6101 345.64C42.1221 345.368 42.7341 345.232 43.4461 345.232C44.5501 345.232 45.3621 345.54 45.8821 346.156C46.4101 346.772 46.6381 347.616 46.5661 348.688H41.1661L41.1781 347.644L45.1021 347.656C45.0701 347.272 44.9021 346.964 44.5981 346.732C44.2941 346.5 43.9101 346.384 43.4461 346.384C42.7901 346.384 42.2941 346.588 41.9581 346.996C41.6221 347.404 41.4541 347.984 41.4541 348.736C41.4541 349.168 41.5301 349.556 41.6821 349.9C41.8341 350.236 42.0501 350.5 42.3301 350.692C42.6181 350.876 42.9701 350.968 43.3861 350.968C43.8581 350.968 44.2501 350.856 44.5621 350.632C44.8821 350.408 45.0781 350.108 45.1501 349.732H46.5901C46.4941 350.476 46.1581 351.064 45.5821 351.496C45.0141 351.928 44.2821 352.144 43.3861 352.144ZM52.7988 348.376V347.548C52.7988 347.22 52.6988 346.956 52.4988 346.756C52.3068 346.548 52.0268 346.444 51.6588 346.444C51.2108 346.444 50.8028 346.608 50.4348 346.936C50.0668 347.264 49.7588 347.78 49.5108 348.484L49.3308 347.14C49.5148 346.724 49.7308 346.376 49.9788 346.096C50.2348 345.808 50.5228 345.592 50.8428 345.448C51.1708 345.304 51.5268 345.232 51.9108 345.232C52.5908 345.232 53.1468 345.432 53.5788 345.832C54.0108 346.232 54.2268 346.804 54.2268 347.548V348.376H52.7988ZM48.3348 352V345.376H49.6908L49.7628 346.78V352H48.3348ZM59.0914 352.144C58.4994 352.144 57.9754 352.044 57.5194 351.844C57.0714 351.636 56.7234 351.344 56.4754 350.968C56.2274 350.592 56.0994 350.148 56.0914 349.636H57.4354C57.4274 350.084 57.5714 350.436 57.8674 350.692C58.1714 350.948 58.5794 351.076 59.0914 351.076C59.4994 351.076 59.8274 351 60.0754 350.848C60.3234 350.696 60.4474 350.488 60.4474 350.224C60.4474 350.016 60.3714 349.848 60.2194 349.72C60.0674 349.592 59.8634 349.492 59.6074 349.42C59.3594 349.348 59.0834 349.284 58.7794 349.228C58.4834 349.164 58.1834 349.092 57.8794 349.012C57.5754 348.924 57.2954 348.812 57.0394 348.676C56.7914 348.532 56.5914 348.344 56.4394 348.112C56.2874 347.88 56.2114 347.584 56.2114 347.224C56.2114 346.832 56.3194 346.488 56.5354 346.192C56.7594 345.888 57.0754 345.652 57.4834 345.484C57.8914 345.316 58.3714 345.232 58.9234 345.232C59.7554 345.232 60.4274 345.428 60.9394 345.82C61.4514 346.204 61.7274 346.736 61.7674 347.416H60.4354C60.4114 347.056 60.2634 346.78 59.9914 346.588C59.7274 346.396 59.3714 346.3 58.9234 346.3C58.5154 346.3 58.1994 346.38 57.9754 346.54C57.7594 346.7 57.6514 346.904 57.6514 347.152C57.6514 347.36 57.7274 347.52 57.8794 347.632C58.0394 347.744 58.2434 347.832 58.4914 347.896C58.7394 347.96 59.0154 348.02 59.3194 348.076C59.6234 348.124 59.9234 348.188 60.2194 348.268C60.5234 348.348 60.7994 348.46 61.0474 348.604C61.3034 348.74 61.5074 348.928 61.6594 349.168C61.8194 349.408 61.8994 349.72 61.8994 350.104C61.8994 350.736 61.6434 351.236 61.1314 351.604C60.6274 351.964 59.9474 352.144 59.0914 352.144Z" fill="#222222"/>
<path d="M280 350.702L274.692 345.394L275.4 344.687L280 349.287L284.6 344.687L285.308 345.394L280 350.702Z" fill="#222222"/>
</svg>
