<svg width="304" height="64" viewBox="0 0 304 64" fill="none" xmlns="http://www.w3.org/2000/svg">
<mask id="path-1-inside-1_3837_52194" fill="white">
<path d="M0 0H304V64H0V0Z"/>
</mask>
<path d="M304 63H0V65H304V63Z" fill="var(--colors-neutral-neutral-400)" mask="url(#path-1-inside-1_3837_52194)"/>
<circle cx="19" cy="15.5" r="3" fill="var(--colors-primary-primary-700)"/>
<path d="M33.31 19V14.46L33.34 13.06L32.23 13.97L30.95 14.99V13.95L33.54 12.02H34.17V19H33.31ZM30.95 19V18.25H35.7V19H30.95ZM39.5339 19.12C39.0806 19.12 38.6839 19.0367 38.3439 18.87C38.0039 18.7033 37.7339 18.47 37.5339 18.17C37.3339 17.87 37.2239 17.5233 37.2039 17.13H38.0839C38.1239 17.4967 38.2672 17.7967 38.5139 18.03C38.7606 18.2567 39.1039 18.37 39.5439 18.37C39.8639 18.37 40.1439 18.2967 40.3839 18.15C40.6239 18.0033 40.8106 17.7967 40.9439 17.53C41.0772 17.2633 41.1439 16.9533 41.1439 16.6C41.1439 16.14 41.0039 15.7667 40.7239 15.48C40.4439 15.1933 40.0772 15.05 39.6239 15.05C39.3172 15.05 39.0272 15.1267 38.7539 15.28C38.4872 15.4333 38.2672 15.6333 38.0939 15.88H37.2839L37.8639 12.02H41.7139V12.77H38.5639L38.2139 15.06C38.4139 14.8333 38.6572 14.65 38.9439 14.51C39.2372 14.37 39.5306 14.3 39.8239 14.3C40.2572 14.3 40.6406 14.3967 40.9739 14.59C41.3139 14.7833 41.5772 15.05 41.7639 15.39C41.9506 15.73 42.0439 16.13 42.0439 16.59C42.0439 17.0967 41.9372 17.54 41.7239 17.92C41.5172 18.3 41.2272 18.5967 40.8539 18.81C40.4806 19.0167 40.0406 19.12 39.5339 19.12ZM45.3278 15.2V14.13H46.3878V15.2H45.3278ZM45.3278 19V17.93H46.3878V19H45.3278ZM52.1417 19.12C51.6884 19.12 51.2917 19.0367 50.9517 18.87C50.6117 18.7033 50.3417 18.47 50.1417 18.17C49.9417 17.87 49.8317 17.5233 49.8117 17.13H50.6917C50.7317 17.4967 50.8751 17.7967 51.1217 18.03C51.3684 18.2567 51.7117 18.37 52.1517 18.37C52.4717 18.37 52.7517 18.2967 52.9917 18.15C53.2317 18.0033 53.4184 17.7967 53.5517 17.53C53.6851 17.2633 53.7517 16.9533 53.7517 16.6C53.7517 16.14 53.6117 15.7667 53.3317 15.48C53.0517 15.1933 52.6851 15.05 52.2317 15.05C51.9251 15.05 51.6351 15.1267 51.3617 15.28C51.0951 15.4333 50.8751 15.6333 50.7017 15.88H49.8917L50.4717 12.02H54.3217V12.77H51.1717L50.8217 15.06C51.0217 14.8333 51.2651 14.65 51.5517 14.51C51.8451 14.37 52.1384 14.3 52.4317 14.3C52.8651 14.3 53.2484 14.3967 53.5817 14.59C53.9217 14.7833 54.1851 15.05 54.3717 15.39C54.5584 15.73 54.6517 16.13 54.6517 16.59C54.6517 17.0967 54.5451 17.54 54.3317 17.92C54.1251 18.3 53.8351 18.5967 53.4617 18.81C53.0884 19.0167 52.6484 19.12 52.1417 19.12ZM58.4656 19.12C57.9856 19.12 57.559 19.0333 57.1856 18.86C56.819 18.6867 56.5323 18.4467 56.3256 18.14C56.119 17.8333 56.0156 17.4833 56.0156 17.09C56.0156 16.81 56.079 16.5533 56.2056 16.32C56.3323 16.08 56.5056 15.8767 56.7256 15.71C56.9523 15.5367 57.2123 15.41 57.5056 15.33H59.4156C59.7023 15.4033 59.959 15.5267 60.1856 15.7C60.4123 15.8733 60.589 16.0767 60.7156 16.31C60.8423 16.5433 60.9056 16.8 60.9056 17.08C60.9056 17.48 60.8023 17.8333 60.5956 18.14C60.389 18.4467 60.1023 18.6867 59.7356 18.86C59.369 19.0333 58.9456 19.12 58.4656 19.12ZM58.4656 18.37C58.759 18.37 59.019 18.3167 59.2456 18.21C59.479 18.0967 59.6623 17.9433 59.7956 17.75C59.929 17.55 59.9956 17.32 59.9956 17.06C59.9956 16.82 59.929 16.6067 59.7956 16.42C59.6623 16.2333 59.479 16.0833 59.2456 15.97C59.019 15.85 58.759 15.78 58.4656 15.76C58.1723 15.78 57.909 15.85 57.6756 15.97C57.449 16.0833 57.269 16.2333 57.1356 16.42C57.0023 16.6 56.9356 16.8133 56.9356 17.06C56.9356 17.32 57.0023 17.55 57.1356 17.75C57.269 17.9433 57.449 18.0967 57.6756 18.21C57.909 18.3167 58.1723 18.37 58.4656 18.37ZM58.4656 15.08C58.7323 15.0533 58.9723 14.99 59.1856 14.89C59.4056 14.7833 59.579 14.6433 59.7056 14.47C59.8323 14.2967 59.8956 14.09 59.8956 13.85C59.8956 13.4833 59.759 13.19 59.4856 12.97C59.219 12.75 58.879 12.64 58.4656 12.64C58.0456 12.64 57.7023 12.75 57.4356 12.97C57.169 13.19 57.0356 13.4833 57.0356 13.85C57.0356 14.09 57.0956 14.2967 57.2156 14.47C57.3423 14.6433 57.5123 14.7833 57.7256 14.89C57.9456 14.99 58.1923 15.0533 58.4656 15.08ZM57.5656 15.46C57.299 15.3933 57.059 15.2833 56.8456 15.13C56.6323 14.97 56.4623 14.78 56.3356 14.56C56.2156 14.3333 56.1556 14.0867 56.1556 13.82C56.1556 13.4467 56.2523 13.1167 56.4456 12.83C56.6456 12.5367 56.919 12.31 57.2656 12.15C57.6123 11.9833 58.0123 11.9 58.4656 11.9C58.919 11.9 59.319 11.9833 59.6656 12.15C60.0123 12.31 60.2823 12.5367 60.4756 12.83C60.669 13.1167 60.7656 13.45 60.7656 13.83C60.7656 14.09 60.7056 14.3333 60.5856 14.56C60.4656 14.78 60.299 14.97 60.0856 15.13C59.8723 15.2833 59.629 15.3933 59.3556 15.46H57.5656ZM64.2395 15.2V14.13H65.2995V15.2H64.2395ZM64.2395 19V17.93H65.2995V19H64.2395ZM68.6434 19V18.37C69.5834 17.6567 70.3368 17.0333 70.9034 16.5C71.4768 15.9667 71.8934 15.4967 72.1534 15.09C72.4134 14.6767 72.5434 14.3 72.5434 13.96C72.5434 13.5667 72.4234 13.25 72.1834 13.01C71.9434 12.77 71.6001 12.65 71.1534 12.65C70.7001 12.65 70.3234 12.7867 70.0234 13.06C69.7301 13.3333 69.5668 13.72 69.5334 14.22H68.6634C68.6968 13.7267 68.8234 13.3067 69.0434 12.96C69.2634 12.6133 69.5568 12.35 69.9234 12.17C70.2901 11.99 70.7034 11.9 71.1634 11.9C71.6434 11.9 72.0534 11.9867 72.3934 12.16C72.7334 12.3267 72.9934 12.56 73.1734 12.86C73.3534 13.16 73.4434 13.51 73.4434 13.91C73.4434 14.35 73.3268 14.79 73.0934 15.23C72.8601 15.6633 72.4834 16.1267 71.9634 16.62C71.4434 17.1067 70.7568 17.65 69.9034 18.25H73.4634V19H68.6434ZM78.1073 19V17.29H74.5673V16.66L77.8073 12.02H78.9873V16.54H80.1973V17.29H78.9873V19H78.1073ZM75.5173 16.54H78.1073V14.18L78.1273 12.76L77.3373 13.95L75.5173 16.54Z" fill="var(--colors-neutral-neutral-700)"/>
<path d="M20.858 39.5455C20.8153 39.1856 20.6425 38.9062 20.3395 38.7074C20.0365 38.5085 19.6648 38.4091 19.2244 38.4091C18.9025 38.4091 18.6207 38.4612 18.3793 38.5653C18.1402 38.6695 17.9531 38.8127 17.8182 38.995C17.6856 39.1773 17.6193 39.3845 17.6193 39.6165C17.6193 39.8106 17.6655 39.9775 17.7578 40.1172C17.8525 40.2545 17.9732 40.3693 18.12 40.4616C18.2668 40.5516 18.4207 40.6262 18.5817 40.6854C18.7427 40.7422 18.8906 40.7884 19.0256 40.8239L19.7642 41.0227C19.9536 41.0724 20.1643 41.1411 20.3963 41.2287C20.6307 41.3163 20.8544 41.4358 21.0675 41.5874C21.2829 41.7365 21.4605 41.9283 21.6001 42.1626C21.7398 42.397 21.8097 42.6847 21.8097 43.0256C21.8097 43.4186 21.7067 43.7737 21.5007 44.0909C21.2971 44.4081 20.9988 44.6603 20.6058 44.8473C20.2152 45.0343 19.7405 45.1278 19.1818 45.1278C18.661 45.1278 18.21 45.0438 17.8288 44.8757C17.45 44.7076 17.1518 44.4732 16.9339 44.1726C16.7185 43.8719 16.5966 43.5227 16.5682 43.125H17.4773C17.5009 43.3996 17.5933 43.6269 17.7543 43.8068C17.9176 43.9844 18.1236 44.117 18.3722 44.2045C18.6231 44.2898 18.893 44.3324 19.1818 44.3324C19.518 44.3324 19.8198 44.2779 20.0874 44.169C20.3549 44.0578 20.5668 43.9039 20.723 43.7074C20.8793 43.5085 20.9574 43.2765 20.9574 43.0114C20.9574 42.7699 20.8899 42.5734 20.755 42.4219C20.62 42.2704 20.4425 42.1473 20.2223 42.0526C20.0021 41.9579 19.7642 41.875 19.5085 41.804L18.6136 41.5483C18.0455 41.3849 17.5956 41.1518 17.2642 40.8487C16.9328 40.5457 16.767 40.1491 16.767 39.6591C16.767 39.2519 16.8771 38.8968 17.0973 38.5938C17.3198 38.2884 17.6181 38.0516 17.9922 37.8835C18.3686 37.7131 18.7888 37.6278 19.2528 37.6278C19.7216 37.6278 20.1383 37.7119 20.5028 37.88C20.8674 38.0457 21.1563 38.273 21.3693 38.5618C21.5848 38.8506 21.6984 39.1785 21.7102 39.5455H20.858ZM23.144 45V39.5455H23.9821V45H23.144ZM23.5701 38.6364C23.4068 38.6364 23.2659 38.5807 23.1475 38.4695C23.0315 38.3582 22.9735 38.2244 22.9735 38.0682C22.9735 37.9119 23.0315 37.7782 23.1475 37.6669C23.2659 37.5556 23.4068 37.5 23.5701 37.5C23.7335 37.5 23.8732 37.5556 23.9892 37.6669C24.1075 37.7782 24.1667 37.9119 24.1667 38.0682C24.1667 38.2244 24.1075 38.3582 23.9892 38.4695C23.8732 38.5807 23.7335 38.6364 23.5701 38.6364ZM25.517 45V39.5455H26.3267V40.3977H26.3977C26.5114 40.1065 26.6948 39.8804 26.9482 39.7195C27.2015 39.5561 27.5057 39.4744 27.8608 39.4744C28.2206 39.4744 28.5201 39.5561 28.7592 39.7195C29.0007 39.8804 29.1889 40.1065 29.3239 40.3977H29.3807C29.5204 40.116 29.7299 39.8923 30.0092 39.7266C30.2886 39.5585 30.6236 39.4744 31.0142 39.4744C31.5019 39.4744 31.9008 39.6271 32.2109 39.9325C32.5211 40.2356 32.6761 40.7079 32.6761 41.3494V45H31.8381V41.3494C31.8381 40.947 31.728 40.6593 31.5078 40.4865C31.2876 40.3137 31.0284 40.2273 30.7301 40.2273C30.3466 40.2273 30.0495 40.3433 29.8388 40.5753C29.6281 40.8049 29.5227 41.0961 29.5227 41.4489V45H28.6705V41.2642C28.6705 40.9541 28.5698 40.7043 28.3686 40.5149C28.1674 40.3232 27.9081 40.2273 27.5909 40.2273C27.3731 40.2273 27.1695 40.2853 26.9801 40.4013C26.7931 40.5173 26.6416 40.6783 26.5256 40.8842C26.4119 41.0878 26.3551 41.3234 26.3551 41.5909V45H25.517ZM37.646 42.7699V39.5455H38.484V45H37.646V44.0767H37.5891C37.4613 44.3537 37.2624 44.5893 36.9925 44.7834C36.7227 44.9751 36.3817 45.071 35.9698 45.071C35.6289 45.071 35.3259 44.9964 35.0607 44.8473C34.7956 44.6958 34.5872 44.4685 34.4357 44.1655C34.2842 43.8601 34.2085 43.4754 34.2085 43.0114V39.5455H35.0465V42.9545C35.0465 43.3523 35.1578 43.6695 35.3803 43.9062C35.6052 44.143 35.8917 44.2614 36.2397 44.2614C36.448 44.2614 36.6599 44.2081 36.8754 44.1016C37.0932 43.995 37.2754 43.8317 37.4222 43.6115C37.5714 43.3913 37.646 43.1108 37.646 42.7699ZM40.8571 37.7273V45H40.019V37.7273H40.8571ZM43.9972 45.1278C43.6515 45.1278 43.3378 45.0627 43.0561 44.9325C42.7744 44.8 42.5507 44.6094 42.3849 44.3608C42.2192 44.1098 42.1364 43.8068 42.1364 43.4517C42.1364 43.1392 42.1979 42.8859 42.321 42.6918C42.4441 42.4953 42.6087 42.3414 42.8146 42.2301C43.0206 42.1188 43.2479 42.036 43.4964 41.9815C43.7474 41.9247 43.9995 41.8797 44.2528 41.8466C44.5843 41.804 44.853 41.772 45.0589 41.7507C45.2673 41.727 45.4188 41.688 45.5135 41.6335C45.6106 41.5791 45.6591 41.4844 45.6591 41.3494V41.321C45.6591 40.9706 45.5632 40.6984 45.3714 40.5043C45.1821 40.3101 44.8944 40.2131 44.5085 40.2131C44.1084 40.2131 43.7947 40.3007 43.5675 40.4759C43.3402 40.651 43.1804 40.8381 43.0881 41.0369L42.2926 40.7528C42.4347 40.4214 42.6241 40.1634 42.8608 39.9787C43.0999 39.7917 43.3603 39.6615 43.642 39.5881C43.9261 39.5123 44.2055 39.4744 44.4801 39.4744C44.6553 39.4744 44.8565 39.4957 45.0838 39.5384C45.3134 39.5786 45.5348 39.6626 45.7479 39.7905C45.9633 39.9183 46.142 40.1113 46.2841 40.3693C46.4261 40.6274 46.4972 40.973 46.4972 41.4062V45H45.6591V44.2614H45.6165C45.5597 44.3797 45.465 44.5064 45.3324 44.6413C45.1998 44.7763 45.0234 44.8911 44.8033 44.9858C44.5831 45.0805 44.3144 45.1278 43.9972 45.1278ZM44.125 44.375C44.4564 44.375 44.7358 44.3099 44.9631 44.1797C45.1927 44.0495 45.3655 43.8814 45.4815 43.6754C45.5999 43.4695 45.6591 43.2528 45.6591 43.0256V42.2585C45.6236 42.3011 45.5455 42.3402 45.4247 42.3757C45.3063 42.4089 45.169 42.4384 45.0128 42.4645C44.8589 42.4882 44.7086 42.5095 44.5618 42.5284C44.4174 42.545 44.3002 42.5592 44.2102 42.571C43.9924 42.5994 43.7888 42.6456 43.5994 42.7095C43.4124 42.7711 43.2609 42.8646 43.1449 42.9901C43.0313 43.1132 42.9744 43.2812 42.9744 43.4943C42.9744 43.7855 43.0821 44.0057 43.2976 44.1548C43.5154 44.3016 43.7912 44.375 44.125 44.375ZM50.399 39.5455V40.2557H47.5723V39.5455H50.399ZM48.3961 38.2386H49.2342V43.4375C49.2342 43.6742 49.2685 43.8518 49.3372 43.9702C49.4082 44.0862 49.4982 44.1643 49.6071 44.2045C49.7183 44.2424 49.8355 44.2614 49.9586 44.2614C50.051 44.2614 50.1267 44.2566 50.1859 44.2472C50.2451 44.2353 50.2924 44.2259 50.3279 44.2188L50.4984 44.9716C50.4416 44.9929 50.3623 45.0142 50.2605 45.0355C50.1587 45.0592 50.0297 45.071 49.8734 45.071C49.6367 45.071 49.4047 45.0201 49.1774 44.9183C48.9525 44.8165 48.7654 44.6615 48.6163 44.4531C48.4695 44.2448 48.3961 43.982 48.3961 43.6648V38.2386ZM51.6596 45V39.5455H52.4977V45H51.6596ZM52.0858 38.6364C51.9224 38.6364 51.7815 38.5807 51.6632 38.4695C51.5472 38.3582 51.4892 38.2244 51.4892 38.0682C51.4892 37.9119 51.5472 37.7782 51.6632 37.6669C51.7815 37.5556 51.9224 37.5 52.0858 37.5C52.2491 37.5 52.3888 37.5556 52.5048 37.6669C52.6232 37.7782 52.6824 37.9119 52.6824 38.0682C52.6824 38.2244 52.6232 38.3582 52.5048 38.4695C52.3888 38.5807 52.2491 38.6364 52.0858 38.6364ZM56.2486 45.1136C55.7562 45.1136 55.3241 44.9964 54.9524 44.7621C54.5831 44.5277 54.2943 44.1998 54.0859 43.7784C53.88 43.357 53.777 42.8646 53.777 42.3011C53.777 41.733 53.88 41.237 54.0859 40.8132C54.2943 40.3894 54.5831 40.0604 54.9524 39.826C55.3241 39.5916 55.7562 39.4744 56.2486 39.4744C56.741 39.4744 57.1719 39.5916 57.5412 39.826C57.9129 40.0604 58.2017 40.3894 58.4077 40.8132C58.616 41.237 58.7202 41.733 58.7202 42.3011C58.7202 42.8646 58.616 43.357 58.4077 43.7784C58.2017 44.1998 57.9129 44.5277 57.5412 44.7621C57.1719 44.9964 56.741 45.1136 56.2486 45.1136ZM56.2486 44.3608C56.6226 44.3608 56.9304 44.2649 57.1719 44.0732C57.4134 43.8814 57.5921 43.6293 57.7081 43.3168C57.8241 43.0043 57.8821 42.6657 57.8821 42.3011C57.8821 41.9366 57.8241 41.5968 57.7081 41.282C57.5921 40.9671 57.4134 40.7126 57.1719 40.5185C56.9304 40.3243 56.6226 40.2273 56.2486 40.2273C55.8745 40.2273 55.5668 40.3243 55.3253 40.5185C55.0838 40.7126 54.9051 40.9671 54.7891 41.282C54.6731 41.5968 54.6151 41.9366 54.6151 42.3011C54.6151 42.6657 54.6731 43.0043 54.7891 43.3168C54.9051 43.6293 55.0838 43.8814 55.3253 44.0732C55.5668 44.2649 55.8745 44.3608 56.2486 44.3608ZM60.8375 41.7188V45H59.9995V39.5455H60.8091V40.3977H60.8801C61.008 40.1207 61.2021 39.8982 61.4625 39.7301C61.723 39.5597 62.0591 39.4744 62.4711 39.4744C62.8404 39.4744 63.1635 39.5502 63.4405 39.7017C63.7175 39.8509 63.9329 40.0781 64.0868 40.3835C64.2407 40.6866 64.3176 41.0701 64.3176 41.5341V45H63.4796V41.5909C63.4796 41.1624 63.3683 40.8286 63.1458 40.5895C62.9232 40.348 62.6178 40.2273 62.2296 40.2273C61.9621 40.2273 61.723 40.2853 61.5123 40.4013C61.3039 40.5173 61.1394 40.6866 61.0186 40.9091C60.8979 41.1316 60.8375 41.4015 60.8375 41.7188ZM70.8775 45.1136C70.3851 45.1136 69.953 44.9964 69.5813 44.7621C69.212 44.5277 68.9232 44.1998 68.7148 43.7784C68.5089 43.357 68.4059 42.8646 68.4059 42.3011C68.4059 41.733 68.5089 41.237 68.7148 40.8132C68.9232 40.3894 69.212 40.0604 69.5813 39.826C69.953 39.5916 70.3851 39.4744 70.8775 39.4744C71.3699 39.4744 71.8008 39.5916 72.1701 39.826C72.5418 40.0604 72.8306 40.3894 73.0366 40.8132C73.2449 41.237 73.3491 41.733 73.3491 42.3011C73.3491 42.8646 73.2449 43.357 73.0366 43.7784C72.8306 44.1998 72.5418 44.5277 72.1701 44.7621C71.8008 44.9964 71.3699 45.1136 70.8775 45.1136ZM70.8775 44.3608C71.2515 44.3608 71.5593 44.2649 71.8008 44.0732C72.0423 43.8814 72.221 43.6293 72.337 43.3168C72.453 43.0043 72.511 42.6657 72.511 42.3011C72.511 41.9366 72.453 41.5968 72.337 41.282C72.221 40.9671 72.0423 40.7126 71.8008 40.5185C71.5593 40.3243 71.2515 40.2273 70.8775 40.2273C70.5034 40.2273 70.1957 40.3243 69.9542 40.5185C69.7127 40.7126 69.534 40.9671 69.418 41.282C69.302 41.5968 69.244 41.9366 69.244 42.3011C69.244 42.6657 69.302 43.0043 69.418 43.3168C69.534 43.6293 69.7127 43.8814 69.9542 44.0732C70.1957 44.2649 70.5034 44.3608 70.8775 44.3608ZM75.4664 41.7188V45H74.6284V39.5455H75.438V40.3977H75.5091C75.6369 40.1207 75.831 39.8982 76.0914 39.7301C76.3519 39.5597 76.688 39.4744 77.1 39.4744C77.4693 39.4744 77.7924 39.5502 78.0694 39.7017C78.3464 39.8509 78.5618 40.0781 78.7157 40.3835C78.8696 40.6866 78.9466 41.0701 78.9466 41.5341V45H78.1085V41.5909C78.1085 41.1624 77.9972 40.8286 77.7747 40.5895C77.5521 40.348 77.2467 40.2273 76.8585 40.2273C76.591 40.2273 76.3519 40.2853 76.1412 40.4013C75.9328 40.5173 75.7683 40.6866 75.6475 40.9091C75.5268 41.1316 75.4664 41.4015 75.4664 41.7188ZM83.4041 45V37.7273H85.8615C86.4297 37.7273 86.8961 37.8243 87.2607 38.0185C87.6252 38.2102 87.8951 38.4742 88.0703 38.8104C88.2455 39.1465 88.3331 39.5289 88.3331 39.9574C88.3331 40.3859 88.2455 40.7659 88.0703 41.0973C87.8951 41.4287 87.6264 41.6892 87.2642 41.8786C86.902 42.0656 86.4392 42.1591 85.8757 42.1591H83.8871V41.3636H85.8473C86.2356 41.3636 86.5481 41.3068 86.7848 41.1932C87.0239 41.0795 87.1967 40.9186 87.3033 40.7102C87.4122 40.4995 87.4666 40.2486 87.4666 39.9574C87.4666 39.6662 87.4122 39.4117 87.3033 39.1939C87.1944 38.9761 87.0204 38.808 86.7812 38.6896C86.5421 38.5689 86.2261 38.5085 85.8331 38.5085H84.2848V45H83.4041ZM86.8274 41.733L88.6172 45H87.5945L85.8331 41.733H86.8274ZM93.1245 42.7699V39.5455H93.9625V45H93.1245V44.0767H93.0676C92.9398 44.3537 92.7409 44.5893 92.4711 44.7834C92.2012 44.9751 91.8603 45.071 91.4483 45.071C91.1074 45.071 90.8044 44.9964 90.5392 44.8473C90.2741 44.6958 90.0658 44.4685 89.9142 44.1655C89.7627 43.8601 89.687 43.4754 89.687 43.0114V39.5455H90.525V42.9545C90.525 43.3523 90.6363 43.6695 90.8588 43.9062C91.0837 44.143 91.3702 44.2614 91.7182 44.2614C91.9266 44.2614 92.1384 44.2081 92.3539 44.1016C92.5717 43.995 92.754 43.8317 92.9007 43.6115C93.0499 43.3913 93.1245 43.1108 93.1245 42.7699ZM96.3356 41.7188V45H95.4975V39.5455H96.3072V40.3977H96.3782C96.506 40.1207 96.7002 39.8982 96.9606 39.7301C97.221 39.5597 97.5572 39.4744 97.9691 39.4744C98.3384 39.4744 98.6616 39.5502 98.9386 39.7017C99.2156 39.8509 99.431 40.0781 99.5849 40.3835C99.7388 40.6866 99.8157 41.0701 99.8157 41.5341V45H98.9776V41.5909C98.9776 41.1624 98.8664 40.8286 98.6438 40.5895C98.4213 40.348 98.1159 40.2273 97.7276 40.2273C97.4601 40.2273 97.221 40.2853 97.0103 40.4013C96.802 40.5173 96.6374 40.6866 96.5167 40.9091C96.396 41.1316 96.3356 41.4015 96.3356 41.7188ZM106.702 37.7273V45H105.822V38.6506H105.779L104.003 39.8295V38.9347L105.822 37.7273H106.702ZM112.856 45L111.194 39.5455H112.075L113.254 43.7216H113.311L114.476 39.5455H115.371L116.521 43.7074H116.578L117.757 39.5455H118.638L116.976 45H116.152L114.959 40.8097H114.873L113.68 45H112.856ZM121.351 45.1278C121.005 45.1278 120.691 45.0627 120.41 44.9325C120.128 44.8 119.904 44.6094 119.738 44.3608C119.573 44.1098 119.49 43.8068 119.49 43.4517C119.49 43.1392 119.551 42.8859 119.675 42.6918C119.798 42.4953 119.962 42.3414 120.168 42.2301C120.374 42.1188 120.601 42.036 120.85 41.9815C121.101 41.9247 121.353 41.8797 121.606 41.8466C121.938 41.804 122.206 41.772 122.412 41.7507C122.621 41.727 122.772 41.688 122.867 41.6335C122.964 41.5791 123.013 41.4844 123.013 41.3494V41.321C123.013 40.9706 122.917 40.6984 122.725 40.5043C122.536 40.3101 122.248 40.2131 121.862 40.2131C121.462 40.2131 121.148 40.3007 120.921 40.4759C120.694 40.651 120.534 40.8381 120.442 41.0369L119.646 40.7528C119.788 40.4214 119.978 40.1634 120.214 39.9787C120.453 39.7917 120.714 39.6615 120.996 39.5881C121.28 39.5123 121.559 39.4744 121.834 39.4744C122.009 39.4744 122.21 39.4957 122.437 39.5384C122.667 39.5786 122.888 39.6626 123.101 39.7905C123.317 39.9183 123.496 40.1113 123.638 40.3693C123.78 40.6274 123.851 40.973 123.851 41.4062V45H123.013V44.2614H122.97C122.913 44.3797 122.818 44.5064 122.686 44.6413C122.553 44.7763 122.377 44.8911 122.157 44.9858C121.937 45.0805 121.668 45.1278 121.351 45.1278ZM121.479 44.375C121.81 44.375 122.089 44.3099 122.317 44.1797C122.546 44.0495 122.719 43.8814 122.835 43.6754C122.953 43.4695 123.013 43.2528 123.013 43.0256V42.2585C122.977 42.3011 122.899 42.3402 122.778 42.3757C122.66 42.4089 122.523 42.4384 122.366 42.4645C122.212 42.4882 122.062 42.5095 121.915 42.5284C121.771 42.545 121.654 42.5592 121.564 42.571C121.346 42.5994 121.142 42.6456 120.953 42.7095C120.766 42.7711 120.614 42.8646 120.498 42.9901C120.385 43.1132 120.328 43.2812 120.328 43.4943C120.328 43.7855 120.436 44.0057 120.651 44.1548C120.869 44.3016 121.145 44.375 121.479 44.375ZM129.244 40.767L128.491 40.9801C128.444 40.8546 128.374 40.7327 128.282 40.6143C128.192 40.4936 128.069 40.3942 127.912 40.3161C127.756 40.2379 127.556 40.1989 127.312 40.1989C126.978 40.1989 126.7 40.2758 126.478 40.4297C126.257 40.5812 126.147 40.7741 126.147 41.0085C126.147 41.2169 126.223 41.3814 126.375 41.5021C126.526 41.6229 126.763 41.7235 127.085 41.804L127.895 42.0028C128.382 42.1212 128.746 42.3023 128.985 42.5462C129.224 42.7876 129.343 43.099 129.343 43.4801C129.343 43.7926 129.253 44.072 129.074 44.3182C128.896 44.5644 128.647 44.7585 128.328 44.9006C128.008 45.0426 127.636 45.1136 127.213 45.1136C126.656 45.1136 126.196 44.9929 125.831 44.7514C125.467 44.5099 125.236 44.1572 125.139 43.6932L125.934 43.4943C126.01 43.7879 126.153 44.008 126.364 44.1548C126.577 44.3016 126.855 44.375 127.199 44.375C127.589 44.375 127.899 44.2921 128.129 44.1264C128.361 43.9583 128.477 43.7571 128.477 43.5227C128.477 43.3333 128.411 43.1747 128.278 43.0469C128.145 42.9167 127.942 42.8196 127.667 42.7557L126.758 42.5426C126.259 42.4242 125.892 42.2408 125.657 41.9922C125.425 41.7412 125.309 41.4276 125.309 41.0511C125.309 40.7434 125.396 40.4711 125.569 40.2344C125.744 39.9976 125.982 39.8118 126.282 39.6768C126.585 39.5419 126.929 39.4744 127.312 39.4744C127.852 39.4744 128.276 39.5928 128.583 39.8295C128.894 40.0663 129.114 40.3788 129.244 40.767ZM137.281 40.767L136.528 40.9801C136.481 40.8546 136.411 40.7327 136.319 40.6143C136.229 40.4936 136.106 40.3942 135.949 40.3161C135.793 40.2379 135.593 40.1989 135.349 40.1989C135.015 40.1989 134.737 40.2758 134.515 40.4297C134.295 40.5812 134.184 40.7741 134.184 41.0085C134.184 41.2169 134.26 41.3814 134.412 41.5021C134.563 41.6229 134.8 41.7235 135.122 41.804L135.932 42.0028C136.419 42.1212 136.783 42.3023 137.022 42.5462C137.261 42.7876 137.381 43.099 137.381 43.4801C137.381 43.7926 137.291 44.072 137.111 44.3182C136.933 44.5644 136.684 44.7585 136.365 44.9006C136.045 45.0426 135.674 45.1136 135.25 45.1136C134.693 45.1136 134.233 44.9929 133.868 44.7514C133.504 44.5099 133.273 44.1572 133.176 43.6932L133.971 43.4943C134.047 43.7879 134.19 44.008 134.401 44.1548C134.614 44.3016 134.892 44.375 135.236 44.375C135.626 44.375 135.936 44.2921 136.166 44.1264C136.398 43.9583 136.514 43.7571 136.514 43.5227C136.514 43.3333 136.448 43.1747 136.315 43.0469C136.183 42.9167 135.979 42.8196 135.704 42.7557L134.795 42.5426C134.296 42.4242 133.929 42.2408 133.694 41.9922C133.462 41.7412 133.346 41.4276 133.346 41.0511C133.346 40.7434 133.433 40.4711 133.606 40.2344C133.781 39.9976 134.019 39.8118 134.319 39.6768C134.622 39.5419 134.966 39.4744 135.349 39.4744C135.889 39.4744 136.313 39.5928 136.621 39.8295C136.931 40.0663 137.151 40.3788 137.281 40.767ZM142.08 42.7699V39.5455H142.918V45H142.08V44.0767H142.023C141.895 44.3537 141.696 44.5893 141.426 44.7834C141.156 44.9751 140.815 45.071 140.403 45.071C140.062 45.071 139.759 44.9964 139.494 44.8473C139.229 44.6958 139.021 44.4685 138.869 44.1655C138.718 43.8601 138.642 43.4754 138.642 43.0114V39.5455H139.48V42.9545C139.48 43.3523 139.591 43.6695 139.814 43.9062C140.039 44.143 140.325 44.2614 140.673 44.2614C140.882 44.2614 141.094 44.2081 141.309 44.1016C141.527 43.995 141.709 43.8317 141.856 43.6115C142.005 43.3913 142.08 43.1108 142.08 42.7699ZM146.669 45.1136C146.157 45.1136 145.717 44.9929 145.347 44.7514C144.978 44.5099 144.694 44.1773 144.495 43.7536C144.296 43.3298 144.197 42.8456 144.197 42.3011C144.197 41.7472 144.299 41.2583 144.502 40.8345C144.708 40.4084 144.995 40.0758 145.362 39.8366C145.731 39.5952 146.162 39.4744 146.654 39.4744C147.038 39.4744 147.383 39.5455 147.691 39.6875C147.999 39.8295 148.251 40.0284 148.448 40.2841C148.644 40.5398 148.766 40.8381 148.813 41.179H147.975C147.911 40.9304 147.769 40.7102 147.549 40.5185C147.331 40.3243 147.038 40.2273 146.669 40.2273C146.342 40.2273 146.055 40.3125 145.809 40.483C145.565 40.651 145.375 40.889 145.237 41.1967C145.102 41.5021 145.035 41.8608 145.035 42.2727C145.035 42.6941 145.101 43.0611 145.234 43.3736C145.369 43.6861 145.558 43.9287 145.802 44.1016C146.048 44.2744 146.337 44.3608 146.669 44.3608C146.886 44.3608 147.084 44.3229 147.262 44.2472C147.439 44.1714 147.589 44.0625 147.713 43.9205C147.836 43.7784 147.923 43.608 147.975 43.4091H148.813C148.766 43.7311 148.649 44.0211 148.462 44.2791C148.277 44.5348 148.032 44.7384 147.727 44.8899C147.424 45.0391 147.071 45.1136 146.669 45.1136ZM152.254 45.1136C151.743 45.1136 151.303 44.9929 150.933 44.7514C150.564 44.5099 150.28 44.1773 150.081 43.7536C149.882 43.3298 149.783 42.8456 149.783 42.3011C149.783 41.7472 149.885 41.2583 150.088 40.8345C150.294 40.4084 150.581 40.0758 150.948 39.8366C151.317 39.5952 151.748 39.4744 152.24 39.4744C152.624 39.4744 152.969 39.5455 153.277 39.6875C153.585 39.8295 153.837 40.0284 154.034 40.2841C154.23 40.5398 154.352 40.8381 154.399 41.179H153.561C153.497 40.9304 153.355 40.7102 153.135 40.5185C152.917 40.3243 152.624 40.2273 152.254 40.2273C151.928 40.2273 151.641 40.3125 151.395 40.483C151.151 40.651 150.961 40.889 150.823 41.1967C150.688 41.5021 150.621 41.8608 150.621 42.2727C150.621 42.6941 150.687 43.0611 150.82 43.3736C150.955 43.6861 151.144 43.9287 151.388 44.1016C151.634 44.2744 151.923 44.3608 152.254 44.3608C152.472 44.3608 152.67 44.3229 152.847 44.2472C153.025 44.1714 153.175 44.0625 153.298 43.9205C153.422 43.7784 153.509 43.608 153.561 43.4091H154.399C154.352 43.7311 154.235 44.0211 154.048 44.2791C153.863 44.5348 153.618 44.7384 153.313 44.8899C153.01 45.0391 152.657 45.1136 152.254 45.1136ZM157.911 45.1136C157.386 45.1136 156.932 44.9976 156.551 44.7656C156.173 44.5312 155.88 44.2045 155.674 43.7855C155.471 43.3641 155.369 42.8741 155.369 42.3153C155.369 41.7566 155.471 41.2642 155.674 40.8381C155.88 40.4096 156.167 40.0758 156.534 39.8366C156.903 39.5952 157.334 39.4744 157.826 39.4744C158.11 39.4744 158.391 39.5218 158.668 39.6165C158.945 39.7112 159.197 39.8651 159.424 40.0781C159.651 40.2888 159.833 40.5682 159.968 40.9162C160.102 41.2642 160.17 41.6927 160.17 42.2017V42.5568H155.965V41.8324H159.318C159.318 41.5246 159.256 41.25 159.133 41.0085C159.012 40.767 158.839 40.5765 158.615 40.4368C158.392 40.2971 158.129 40.2273 157.826 40.2273C157.492 40.2273 157.204 40.3101 156.96 40.4759C156.718 40.6392 156.532 40.8523 156.402 41.1151C156.272 41.3778 156.207 41.6596 156.207 41.9602V42.4432C156.207 42.8551 156.278 43.2043 156.42 43.4908C156.564 43.7749 156.764 43.9915 157.02 44.1406C157.276 44.2874 157.573 44.3608 157.911 44.3608C158.132 44.3608 158.33 44.33 158.508 44.2685C158.688 44.2045 158.843 44.1098 158.973 43.9844C159.103 43.8565 159.204 43.6979 159.275 43.5085L160.085 43.7358C159.999 44.0104 159.856 44.2519 159.655 44.4602C159.454 44.6662 159.205 44.8272 158.909 44.9432C158.613 45.0568 158.281 45.1136 157.911 45.1136ZM165.308 40.767L164.556 40.9801C164.508 40.8546 164.438 40.7327 164.346 40.6143C164.256 40.4936 164.133 40.3942 163.977 40.3161C163.82 40.2379 163.62 40.1989 163.377 40.1989C163.043 40.1989 162.765 40.2758 162.542 40.4297C162.322 40.5812 162.212 40.7741 162.212 41.0085C162.212 41.2169 162.288 41.3814 162.439 41.5021C162.591 41.6229 162.827 41.7235 163.149 41.804L163.959 42.0028C164.447 42.1212 164.81 42.3023 165.049 42.5462C165.288 42.7876 165.408 43.099 165.408 43.4801C165.408 43.7926 165.318 44.072 165.138 44.3182C164.96 44.5644 164.712 44.7585 164.392 44.9006C164.073 45.0426 163.701 45.1136 163.277 45.1136C162.721 45.1136 162.26 44.9929 161.896 44.7514C161.531 44.5099 161.3 44.1572 161.203 43.6932L161.999 43.4943C162.075 43.7879 162.218 44.008 162.428 44.1548C162.642 44.3016 162.92 44.375 163.263 44.375C163.654 44.375 163.964 44.2921 164.193 44.1264C164.425 43.9583 164.541 43.7571 164.541 43.5227C164.541 43.3333 164.475 43.1747 164.343 43.0469C164.21 42.9167 164.006 42.8196 163.732 42.7557L162.823 42.5426C162.323 42.4242 161.956 42.2408 161.722 41.9922C161.49 41.7412 161.374 41.4276 161.374 41.0511C161.374 40.7434 161.46 40.4711 161.633 40.2344C161.808 39.9976 162.046 39.8118 162.347 39.6768C162.65 39.5419 162.993 39.4744 163.377 39.4744C163.916 39.4744 164.34 39.5928 164.648 39.8295C164.958 40.0663 165.178 40.3788 165.308 40.767ZM170.533 40.767L169.78 40.9801C169.733 40.8546 169.663 40.7327 169.571 40.6143C169.481 40.4936 169.358 40.3942 169.201 40.3161C169.045 40.2379 168.845 40.1989 168.601 40.1989C168.267 40.1989 167.989 40.2758 167.767 40.4297C167.547 40.5812 167.436 40.7741 167.436 41.0085C167.436 41.2169 167.512 41.3814 167.664 41.5021C167.815 41.6229 168.052 41.7235 168.374 41.804L169.184 42.0028C169.671 42.1212 170.035 42.3023 170.274 42.5462C170.513 42.7876 170.632 43.099 170.632 43.4801C170.632 43.7926 170.542 44.072 170.363 44.3182C170.185 44.5644 169.936 44.7585 169.617 44.9006C169.297 45.0426 168.926 45.1136 168.502 45.1136C167.945 45.1136 167.485 44.9929 167.12 44.7514C166.756 44.5099 166.525 44.1572 166.428 43.6932L167.223 43.4943C167.299 43.7879 167.442 44.008 167.653 44.1548C167.866 44.3016 168.144 44.375 168.488 44.375C168.878 44.375 169.188 44.2921 169.418 44.1264C169.65 43.9583 169.766 43.7571 169.766 43.5227C169.766 43.3333 169.7 43.1747 169.567 43.0469C169.435 42.9167 169.231 42.8196 168.956 42.7557L168.047 42.5426C167.548 42.4242 167.181 42.2408 166.946 41.9922C166.714 41.7412 166.598 41.4276 166.598 41.0511C166.598 40.7434 166.685 40.4711 166.858 40.2344C167.033 39.9976 167.271 39.8118 167.571 39.6768C167.874 39.5419 168.218 39.4744 168.601 39.4744C169.141 39.4744 169.565 39.5928 169.873 39.8295C170.183 40.0663 170.403 40.3788 170.533 40.767ZM174.323 39.5455V40.2557H171.383V39.5455H174.323ZM172.263 45V38.7926C172.263 38.4801 172.337 38.2197 172.483 38.0114C172.63 37.803 172.821 37.6468 173.055 37.5426C173.29 37.4384 173.537 37.3864 173.797 37.3864C174.003 37.3864 174.171 37.4029 174.302 37.4361C174.432 37.4692 174.529 37.5 174.593 37.5284L174.351 38.2528C174.309 38.2386 174.25 38.2209 174.174 38.1996C174.1 38.1783 174.003 38.1676 173.883 38.1676C173.606 38.1676 173.406 38.2375 173.282 38.3771C173.162 38.5168 173.101 38.7216 173.101 38.9915V45H172.263ZM178.935 42.7699V39.5455H179.773V45H178.935V44.0767H178.878C178.75 44.3537 178.551 44.5893 178.282 44.7834C178.012 44.9751 177.671 45.071 177.259 45.071C176.918 45.071 176.615 44.9964 176.35 44.8473C176.085 44.6958 175.876 44.4685 175.725 44.1655C175.573 43.8601 175.498 43.4754 175.498 43.0114V39.5455H176.336V42.9545C176.336 43.3523 176.447 43.6695 176.669 43.9062C176.894 44.143 177.181 44.2614 177.529 44.2614C177.737 44.2614 177.949 44.2081 178.164 44.1016C178.382 43.995 178.565 43.8317 178.711 43.6115C178.86 43.3913 178.935 43.1108 178.935 42.7699ZM182.146 37.7273V45H181.308V37.7273H182.146ZM184.519 37.7273V45H183.681V37.7273H184.519ZM186.594 47.0455C186.452 47.0455 186.325 47.0336 186.214 47.0099C186.103 46.9886 186.026 46.9673 185.983 46.946L186.196 46.2074C186.4 46.2595 186.58 46.2784 186.736 46.2642C186.892 46.25 187.031 46.1802 187.151 46.0547C187.275 45.9316 187.387 45.7315 187.489 45.4545L187.645 45.0284L185.628 39.5455H186.537L188.043 43.892H188.1L189.605 39.5455H190.514L188.199 45.7955C188.095 46.0772 187.966 46.3104 187.812 46.495C187.658 46.6821 187.479 46.8205 187.276 46.9105C187.075 47.0005 186.847 47.0455 186.594 47.0455ZM196.649 45.1136C196.138 45.1136 195.697 44.9929 195.328 44.7514C194.959 44.5099 194.675 44.1773 194.476 43.7536C194.277 43.3298 194.177 42.8456 194.177 42.3011C194.177 41.7472 194.279 41.2583 194.483 40.8345C194.689 40.4084 194.975 40.0758 195.342 39.8366C195.711 39.5952 196.142 39.4744 196.635 39.4744C197.018 39.4744 197.364 39.5455 197.672 39.6875C197.979 39.8295 198.232 40.0284 198.428 40.2841C198.625 40.5398 198.747 40.8381 198.794 41.179H197.956C197.892 40.9304 197.75 40.7102 197.53 40.5185C197.312 40.3243 197.018 40.2273 196.649 40.2273C196.322 40.2273 196.036 40.3125 195.79 40.483C195.546 40.651 195.355 40.889 195.218 41.1967C195.083 41.5021 195.015 41.8608 195.015 42.2727C195.015 42.6941 195.082 43.0611 195.214 43.3736C195.349 43.6861 195.539 43.9287 195.782 44.1016C196.029 44.2744 196.318 44.3608 196.649 44.3608C196.867 44.3608 197.064 44.3229 197.242 44.2472C197.42 44.1714 197.57 44.0625 197.693 43.9205C197.816 43.7784 197.904 43.608 197.956 43.4091H198.794C198.747 43.7311 198.629 44.0211 198.442 44.2791C198.258 44.5348 198.013 44.7384 197.707 44.8899C197.404 45.0391 197.051 45.1136 196.649 45.1136ZM202.235 45.1136C201.742 45.1136 201.31 44.9964 200.939 44.7621C200.569 44.5277 200.281 44.1998 200.072 43.7784C199.866 43.357 199.763 42.8646 199.763 42.3011C199.763 41.733 199.866 41.237 200.072 40.8132C200.281 40.3894 200.569 40.0604 200.939 39.826C201.31 39.5916 201.742 39.4744 202.235 39.4744C202.727 39.4744 203.158 39.5916 203.528 39.826C203.899 40.0604 204.188 40.3894 204.394 40.8132C204.602 41.237 204.706 41.733 204.706 42.3011C204.706 42.8646 204.602 43.357 204.394 43.7784C204.188 44.1998 203.899 44.5277 203.528 44.7621C203.158 44.9964 202.727 45.1136 202.235 45.1136ZM202.235 44.3608C202.609 44.3608 202.917 44.2649 203.158 44.0732C203.4 43.8814 203.578 43.6293 203.694 43.3168C203.81 43.0043 203.868 42.6657 203.868 42.3011C203.868 41.9366 203.81 41.5968 203.694 41.282C203.578 40.9671 203.4 40.7126 203.158 40.5185C202.917 40.3243 202.609 40.2273 202.235 40.2273C201.861 40.2273 201.553 40.3243 201.312 40.5185C201.07 40.7126 200.891 40.9671 200.775 41.282C200.659 41.5968 200.601 41.9366 200.601 42.3011C200.601 42.6657 200.659 43.0043 200.775 43.3168C200.891 43.6293 201.07 43.8814 201.312 44.0732C201.553 44.2649 201.861 44.3608 202.235 44.3608ZM205.986 45V39.5455H206.795V40.3977H206.866C206.98 40.1065 207.164 39.8804 207.417 39.7195C207.67 39.5561 207.974 39.4744 208.33 39.4744C208.689 39.4744 208.989 39.5561 209.228 39.7195C209.469 39.8804 209.658 40.1065 209.793 40.3977H209.849C209.989 40.116 210.199 39.8923 210.478 39.7266C210.757 39.5585 211.092 39.4744 211.483 39.4744C211.971 39.4744 212.37 39.6271 212.68 39.9325C212.99 40.2356 213.145 40.7079 213.145 41.3494V45H212.307V41.3494C212.307 40.947 212.197 40.6593 211.977 40.4865C211.756 40.3137 211.497 40.2273 211.199 40.2273C210.815 40.2273 210.518 40.3433 210.308 40.5753C210.097 40.8049 209.991 41.0961 209.991 41.4489V45H209.139V41.2642C209.139 40.9541 209.039 40.7043 208.837 40.5149C208.636 40.3232 208.377 40.2273 208.06 40.2273C207.842 40.2273 207.638 40.2853 207.449 40.4013C207.262 40.5173 207.11 40.6783 206.994 40.8842C206.881 41.0878 206.824 41.3234 206.824 41.5909V45H205.986ZM214.677 47.0455V39.5455H215.487V40.4119H215.586C215.648 40.3172 215.733 40.1965 215.842 40.0497C215.953 39.9006 216.112 39.768 216.318 39.652C216.526 39.5336 216.808 39.4744 217.163 39.4744C217.622 39.4744 218.027 39.5893 218.377 39.8189C218.728 40.0485 219.001 40.3741 219.198 40.7955C219.394 41.2169 219.493 41.714 219.493 42.2869C219.493 42.8646 219.394 43.3653 219.198 43.7891C219.001 44.2105 218.729 44.5372 218.381 44.7692C218.033 44.9988 217.632 45.1136 217.177 45.1136C216.827 45.1136 216.546 45.0556 216.336 44.9396C216.125 44.8213 215.963 44.6875 215.849 44.5384C215.735 44.3868 215.648 44.2614 215.586 44.1619H215.515V47.0455H214.677ZM215.501 42.2727C215.501 42.6847 215.561 43.0481 215.682 43.3629C215.803 43.6754 215.979 43.9205 216.211 44.098C216.443 44.2732 216.727 44.3608 217.064 44.3608C217.414 44.3608 217.706 44.2685 217.941 44.0838C218.177 43.8968 218.355 43.6458 218.473 43.331C218.594 43.0137 218.654 42.661 218.654 42.2727C218.654 41.8892 218.595 41.5436 218.477 41.2358C218.361 40.9257 218.185 40.6806 217.948 40.5007C217.713 40.3184 217.419 40.2273 217.064 40.2273C216.723 40.2273 216.436 40.3137 216.204 40.4865C215.972 40.657 215.797 40.8961 215.679 41.2038C215.56 41.5092 215.501 41.8655 215.501 42.2727ZM221.609 37.7273V45H220.771V37.7273H221.609ZM225.431 45.1136C224.905 45.1136 224.452 44.9976 224.071 44.7656C223.692 44.5312 223.4 44.2045 223.194 43.7855C222.99 43.3641 222.888 42.8741 222.888 42.3153C222.888 41.7566 222.99 41.2642 223.194 40.8381C223.4 40.4096 223.686 40.0758 224.053 39.8366C224.422 39.5952 224.853 39.4744 225.346 39.4744C225.63 39.4744 225.91 39.5218 226.187 39.6165C226.464 39.7112 226.716 39.8651 226.944 40.0781C227.171 40.2888 227.352 40.5682 227.487 40.9162C227.622 41.2642 227.689 41.6927 227.689 42.2017V42.5568H223.485V41.8324H226.837C226.837 41.5246 226.776 41.25 226.653 41.0085C226.532 40.767 226.359 40.5765 226.134 40.4368C225.912 40.2971 225.649 40.2273 225.346 40.2273C225.012 40.2273 224.723 40.3101 224.479 40.4759C224.238 40.6392 224.052 40.8523 223.922 41.1151C223.791 41.3778 223.726 41.6596 223.726 41.9602V42.4432C223.726 42.8551 223.797 43.2043 223.939 43.4908C224.084 43.7749 224.284 43.9915 224.54 44.1406C224.795 44.2874 225.092 44.3608 225.431 44.3608C225.651 44.3608 225.85 44.33 226.028 44.2685C226.207 44.2045 226.363 44.1098 226.493 43.9844C226.623 43.8565 226.724 43.6979 226.795 43.5085L227.604 43.7358C227.519 44.0104 227.376 44.2519 227.175 44.4602C226.973 44.6662 226.725 44.8272 226.429 44.9432C226.133 45.0568 225.8 45.1136 225.431 45.1136ZM231.336 39.5455V40.2557H228.51V39.5455H231.336ZM229.334 38.2386H230.172V43.4375C230.172 43.6742 230.206 43.8518 230.275 43.9702C230.346 44.0862 230.436 44.1643 230.545 44.2045C230.656 44.2424 230.773 44.2614 230.896 44.2614C230.988 44.2614 231.064 44.2566 231.123 44.2472C231.183 44.2353 231.23 44.2259 231.265 44.2188L231.436 44.9716C231.379 44.9929 231.3 45.0142 231.198 45.0355C231.096 45.0592 230.967 45.071 230.811 45.071C230.574 45.071 230.342 45.0201 230.115 44.9183C229.89 44.8165 229.703 44.6615 229.554 44.4531C229.407 44.2448 229.334 43.982 229.334 43.6648V38.2386ZM234.825 45.1136C234.3 45.1136 233.847 44.9976 233.465 44.7656C233.087 44.5312 232.794 44.2045 232.588 43.7855C232.385 43.3641 232.283 42.8741 232.283 42.3153C232.283 41.7566 232.385 41.2642 232.588 40.8381C232.794 40.4096 233.081 40.0758 233.448 39.8366C233.817 39.5952 234.248 39.4744 234.74 39.4744C235.024 39.4744 235.305 39.5218 235.582 39.6165C235.859 39.7112 236.111 39.8651 236.338 40.0781C236.566 40.2888 236.747 40.5682 236.882 40.9162C237.017 41.2642 237.084 41.6927 237.084 42.2017V42.5568H232.879V41.8324H236.232C236.232 41.5246 236.17 41.25 236.047 41.0085C235.926 40.767 235.753 40.5765 235.529 40.4368C235.306 40.2971 235.043 40.2273 234.74 40.2273C234.406 40.2273 234.118 40.3101 233.874 40.4759C233.632 40.6392 233.446 40.8523 233.316 41.1151C233.186 41.3778 233.121 41.6596 233.121 41.9602V42.4432C233.121 42.8551 233.192 43.2043 233.334 43.4908C233.478 43.7749 233.678 43.9915 233.934 44.1406C234.19 44.2874 234.487 44.3608 234.825 44.3608C235.046 44.3608 235.244 44.33 235.422 44.2685C235.602 44.2045 235.757 44.1098 235.887 43.9844C236.017 43.8565 236.118 43.6979 236.189 43.5085L236.999 43.7358C236.914 44.0104 236.77 44.2519 236.569 44.4602C236.368 44.6662 236.119 44.8272 235.823 44.9432C235.527 45.0568 235.195 45.1136 234.825 45.1136ZM240.419 45.1136C239.964 45.1136 239.563 44.9988 239.215 44.7692C238.867 44.5372 238.594 44.2105 238.398 43.7891C238.201 43.3653 238.103 42.8646 238.103 42.2869C238.103 41.714 238.201 41.2169 238.398 40.7955C238.594 40.3741 238.868 40.0485 239.218 39.8189C239.569 39.5893 239.973 39.4744 240.433 39.4744C240.788 39.4744 241.068 39.5336 241.274 39.652C241.483 39.768 241.641 39.9006 241.75 40.0497C241.861 40.1965 241.948 40.3172 242.009 40.4119H242.08V37.7273H242.919V45H242.109V44.1619H242.009C241.948 44.2614 241.86 44.3868 241.747 44.5384C241.633 44.6875 241.471 44.8213 241.26 44.9396C241.049 45.0556 240.769 45.1136 240.419 45.1136ZM240.532 44.3608C240.868 44.3608 241.152 44.2732 241.384 44.098C241.616 43.9205 241.793 43.6754 241.914 43.3629C242.034 43.0481 242.095 42.6847 242.095 42.2727C242.095 41.8655 242.035 41.5092 241.917 41.2038C241.799 40.8961 241.624 40.657 241.392 40.4865C241.16 40.3137 240.873 40.2273 240.532 40.2273C240.177 40.2273 239.881 40.3184 239.644 40.5007C239.41 40.6806 239.234 40.9257 239.115 41.2358C238.999 41.5436 238.941 41.8892 238.941 42.2727C238.941 42.661 239 43.0137 239.119 43.331C239.24 43.6458 239.417 43.8968 239.651 44.0838C239.888 44.2685 240.182 44.3608 240.532 44.3608Z" fill="var(--colors-neutral-neutral-800)"/>
</svg>
