<svg width="24" height="24" viewBox="0 0 24 24" fill="none" xmlns="http://www.w3.org/2000/svg">
<path d="M12 15.5155L8.4845 12L12 8.48451L15.5155 12L12 15.5155ZM13.15 19.8558C12.9923 20.0134 12.8142 20.1327 12.6155 20.2135C12.4167 20.2943 12.2115 20.3348 12 20.3348C11.7885 20.3348 11.5833 20.2943 11.3845 20.2135C11.1858 20.1327 11.0077 20.0134 10.85 19.8558L4.0865 13.0923C3.94167 12.9474 3.82883 12.7757 3.748 12.577C3.66733 12.3782 3.627 12.1794 3.627 11.9808C3.627 11.7821 3.66733 11.5833 3.748 11.3845C3.82883 11.1858 3.94167 11.0141 4.0865 10.8693L10.8442 4.11151C11.0057 3.95001 11.1849 3.82885 11.3817 3.74801C11.5786 3.66735 11.7847 3.62701 12 3.62701C12.2153 3.62701 12.4214 3.66735 12.6182 3.74801C12.8151 3.82885 12.9942 3.95001 13.1557 4.11151L19.9135 10.8693C20.0583 11.0141 20.1712 11.1858 20.252 11.3845C20.3327 11.5833 20.373 11.7821 20.373 11.9808C20.373 12.1794 20.3327 12.3782 20.252 12.577C20.1712 12.7757 20.0583 12.9474 19.9135 13.0923L13.15 19.8558ZM12.327 18.8538L18.873 12.3078C18.9628 12.2179 19.0077 12.1089 19.0077 11.9808C19.0077 11.8526 18.9628 11.7436 18.873 11.6538L12.327 5.10776C12.2372 5.01793 12.1282 4.97626 12 4.98276C11.8718 4.9891 11.7628 5.03718 11.673 5.12701L5.10775 11.6923C5.01792 11.7821 4.97625 11.8847 4.98275 12C4.98908 12.1153 5.03717 12.2179 5.127 12.3078L11.673 18.8538C11.7628 18.9436 11.8718 18.9885 12 18.9885C12.1282 18.9885 12.2372 18.9436 12.327 18.8538Z" fill="#B3B3B3"/>
</svg>
