<svg width="24" height="24" viewBox="0 0 24 24" fill="none" xmlns="http://www.w3.org/2000/svg">
<path d="M8.53848 18.7308L7.83077 18.0231L9.96537 15.8769C8.02436 15.6192 6.37821 15.1353 5.02692 14.425C3.67564 13.7148 3 12.9064 3 12C3 10.9244 3.87276 9.98877 5.61828 9.19327C7.36378 8.39776 9.49102 8 12 8C14.509 8 16.6362 8.39776 18.3817 9.19327C20.1272 9.98877 21 10.9244 21 12C21 12.7256 20.5452 13.4135 19.6356 14.0635C18.726 14.7135 17.5141 15.2128 16 15.5615V14.55C17.2833 14.2167 18.2708 13.8042 18.9625 13.3125C19.6542 12.8208 20 12.3833 20 12C20 11.4282 19.2875 10.7853 17.8625 10.0712C16.4375 9.35705 14.4833 9 12 9C9.51667 9 7.5625 9.35705 6.1375 10.0712C4.7125 10.7853 4 11.4282 4 12C4 12.4769 4.55321 13.0106 5.65962 13.601C6.76602 14.1913 8.16666 14.609 9.86153 14.8538L7.83077 12.8231L8.53848 12.1154L11.8462 15.4231L8.53848 18.7308Z" fill="var(--colors-neutral-neutral-600)"/>
</svg>
