<svg width="658" height="152" viewBox="0 0 658 152" fill="none" xmlns="http://www.w3.org/2000/svg">
<rect width="646" height="140" transform="translate(6 6)" fill="#B6DFFD"/>
<rect x="97" y="86" width="24" height="30" fill="#62B5EF"/>
<rect x="97" y="116" width="24" height="30" fill="#A3C8E3"/>
<rect x="137" y="86" width="24" height="30" fill="#62B5EF"/>
<rect x="137" y="116" width="24" height="30" fill="#A3C8E3"/>
<rect x="177" y="86" width="24" height="30" fill="#62B5EF"/>
<rect x="177" y="116" width="24" height="30" fill="#A3C8E3"/>
<rect x="217" y="86" width="24" height="30" fill="#62B5EF"/>
<rect x="217" y="116" width="24" height="30" fill="#A3C8E3"/>
<rect x="257" y="86" width="24" height="30" fill="#62B5EF"/>
<rect x="257" y="116" width="24" height="30" fill="#A3C8E3"/>
<rect x="297" y="86" width="24" height="30" fill="#62B5EF"/>
<rect x="297" y="116" width="24" height="30" fill="#A3C8E3"/>
<rect x="337" y="86" width="24" height="30" fill="#62B5EF"/>
<rect x="337" y="116" width="24" height="30" fill="#A3C8E3"/>
<rect x="377" y="86" width="24" height="30" fill="#62B5EF"/>
<rect x="377" y="116" width="24" height="30" fill="#A3C8E3"/>
<rect x="417" y="86" width="24" height="30" fill="#62B5EF"/>
<rect x="417" y="116" width="24" height="30" fill="#A3C8E3"/>
<rect x="457" y="86" width="24" height="30" fill="#62B5EF"/>
<rect x="457" y="116" width="24" height="30" fill="#A3C8E3"/>
<rect x="497" y="86" width="24" height="30" fill="#62B5EF"/>
<rect x="497" y="116" width="24" height="30" fill="#A3C8E3"/>
<rect x="537" y="86" width="24" height="30" fill="#62B5EF"/>
<rect x="537" y="116" width="24" height="30" fill="#A3C8E3"/>
</svg>
