<svg width="24" height="24" viewBox="0 0 24 24" fill="none" xmlns="http://www.w3.org/2000/svg">
<path d="M18.9578 20L13.4058 14.448L14.4673 13.3865L20.0193 18.9385L18.9578 20ZM5.06153 20L4.00003 18.9385L10.9578 11.9808L7.98853 9.03076L7.44228 9.57701L6.49428 8.60951V10.4095L5.94803 10.9558L3.32703 8.33451L3.87303 7.78851H5.67303L4.71153 6.84626L6.87703 4.68076C7.10769 4.44993 7.36019 4.27876 7.63453 4.16726C7.90903 4.05576 8.20136 4.00001 8.51153 4.00001C8.82186 4.00001 9.11419 4.05576 9.38853 4.16726C9.66286 4.27876 9.91544 4.44993 10.1463 4.68076L8.50003 6.32701L9.59628 7.42301L9.05003 7.96926L12.0193 10.9193L14.577 8.36151C14.4205 8.13968 14.3119 7.91276 14.251 7.68076C14.19 7.44876 14.1595 7.19426 14.1595 6.91726C14.1595 6.1006 14.4426 5.40926 15.0088 4.84326C15.5748 4.27726 16.2661 3.99426 17.0828 3.99426C17.2558 3.99426 17.4228 4.00643 17.5838 4.03076C17.7446 4.0551 17.9032 4.10443 18.0595 4.17876L15.9885 6.25001L17.75 8.01151L19.8213 5.94051C19.8994 6.09685 19.9497 6.25543 19.972 6.41626C19.9945 6.57726 20.0058 6.74426 20.0058 6.91726C20.0058 7.73393 19.7228 8.42526 19.1568 8.99126C18.5908 9.55743 17.8994 9.84051 17.0828 9.84051C16.8058 9.84051 16.5513 9.81101 16.3193 9.75201C16.0873 9.69301 15.8604 9.58335 15.6385 9.42301L5.06153 20Z" fill="var(--colors-neutral-neutral-800)"/>
</svg>
