<svg width="266" height="100" viewBox="0 0 266 100" fill="none" xmlns="http://www.w3.org/2000/svg">
<g filter="url(#filter0_d_5338_19518)">
<rect x="3" y="2" width="260" height="94" rx="4" fill="white" shape-rendering="crispEdges"/>
<rect x="7" y="6" width="252" height="40" rx="4" fill="white"/>
<path d="M16.233 21.3182H17.7045L21.1648 29.7699H21.2841L24.7443 21.3182H26.2159V31.5H25.0625V23.7642H24.9631L21.7812 31.5H20.6676L17.4858 23.7642H17.3864V31.5H16.233V21.3182ZM30.7761 31.679C30.2922 31.679 29.853 31.5878 29.4586 31.4055C29.0642 31.2199 28.751 30.9531 28.519 30.6051C28.287 30.2538 28.171 29.8295 28.171 29.3324C28.171 28.8949 28.2572 28.5402 28.4295 28.2685C28.6019 27.9934 28.8322 27.7779 29.1206 27.6222C29.4089 27.4664 29.7271 27.3504 30.0751 27.2741C30.4264 27.1946 30.7794 27.1316 31.1341 27.0852C31.5981 27.0256 31.9743 26.9808 32.2626 26.951C32.5543 26.9179 32.7664 26.8632 32.899 26.7869C33.0349 26.7107 33.1028 26.5781 33.1028 26.3892V26.3494C33.1028 25.8589 32.9686 25.4777 32.7001 25.206C32.435 24.9342 32.0323 24.7983 31.492 24.7983C30.9319 24.7983 30.4927 24.9209 30.1745 25.1662C29.8564 25.4115 29.6326 25.6733 29.5034 25.9517L28.3897 25.554C28.5886 25.09 28.8538 24.7287 29.1852 24.4702C29.5199 24.2083 29.8845 24.026 30.2789 23.9233C30.6767 23.8172 31.0678 23.7642 31.4522 23.7642C31.6975 23.7642 31.9792 23.794 32.2974 23.8537C32.6189 23.91 32.9288 24.0277 33.2271 24.2067C33.5287 24.3857 33.7789 24.6558 33.9778 25.017C34.1767 25.3783 34.2761 25.8622 34.2761 26.4688V31.5H33.1028V30.4659H33.0431C32.9636 30.6316 32.831 30.8089 32.6454 30.9979C32.4598 31.1868 32.2129 31.3475 31.9047 31.4801C31.5964 31.6127 31.2202 31.679 30.7761 31.679ZM30.9551 30.625C31.4191 30.625 31.8102 30.5339 32.1284 30.3516C32.4499 30.1693 32.6918 29.9339 32.8542 29.6456C33.0199 29.3572 33.1028 29.054 33.1028 28.7358V27.6619C33.0531 27.7216 32.9437 27.7763 32.7747 27.826C32.609 27.8724 32.4167 27.9138 32.198 27.9503C31.9825 27.9834 31.7721 28.0133 31.5666 28.0398C31.3644 28.063 31.2003 28.0829 31.0744 28.0994C30.7695 28.1392 30.4844 28.2038 30.2193 28.2933C29.9574 28.3795 29.7453 28.5104 29.5829 28.6861C29.4238 28.8584 29.3443 29.0937 29.3443 29.392C29.3443 29.7997 29.4951 30.108 29.7967 30.3168C30.1016 30.5223 30.4877 30.625 30.9551 30.625ZM37.5909 26.9062V31.5H36.4176V23.8636H37.5511V25.0568H37.6506C37.8295 24.669 38.1013 24.3575 38.4659 24.1222C38.8305 23.8835 39.3011 23.7642 39.8778 23.7642C40.3949 23.7642 40.8473 23.8703 41.2351 24.0824C41.6229 24.2912 41.9245 24.6094 42.1399 25.0369C42.3554 25.4612 42.4631 25.9981 42.4631 26.6477V31.5H41.2898V26.7273C41.2898 26.1274 41.134 25.66 40.8224 25.3253C40.5109 24.9872 40.0833 24.8182 39.5398 24.8182C39.1652 24.8182 38.8305 24.8994 38.5355 25.0618C38.2438 25.2242 38.0135 25.4612 37.8445 25.7727C37.6754 26.0843 37.5909 26.4621 37.5909 26.9062ZM49.4196 28.3778V23.8636H50.5929V31.5H49.4196V30.2074H49.34C49.161 30.5952 48.8826 30.925 48.5048 31.1967C48.127 31.4652 47.6497 31.5994 47.073 31.5994C46.5957 31.5994 46.1715 31.495 45.8002 31.2862C45.429 31.0741 45.1374 30.7559 44.9252 30.3317C44.7131 29.9041 44.6071 29.3655 44.6071 28.7159V23.8636H45.7804V28.6364C45.7804 29.1932 45.9361 29.6373 46.2477 29.9688C46.5626 30.3002 46.9636 30.4659 47.4508 30.4659C47.7425 30.4659 48.0391 30.3913 48.3407 30.2422C48.6457 30.093 48.9009 29.8643 49.1064 29.5561C49.3152 29.2479 49.4196 28.8551 49.4196 28.3778ZM54.989 31.679C54.5051 31.679 54.0659 31.5878 53.6715 31.4055C53.2771 31.2199 52.9639 30.9531 52.7319 30.6051C52.4999 30.2538 52.3839 29.8295 52.3839 29.3324C52.3839 28.8949 52.4701 28.5402 52.6424 28.2685C52.8147 27.9934 53.0451 27.7779 53.3335 27.6222C53.6218 27.4664 53.94 27.3504 54.288 27.2741C54.6393 27.1946 54.9923 27.1316 55.3469 27.0852C55.811 27.0256 56.1871 26.9808 56.4755 26.951C56.7672 26.9179 56.9793 26.8632 57.1119 26.7869C57.2478 26.7107 57.3157 26.5781 57.3157 26.3892V26.3494C57.3157 25.8589 57.1815 25.4777 56.913 25.206C56.6478 24.9342 56.2451 24.7983 55.7049 24.7983C55.1448 24.7983 54.7056 24.9209 54.3874 25.1662C54.0692 25.4115 53.8455 25.6733 53.7163 25.9517L52.6026 25.554C52.8015 25.09 53.0666 24.7287 53.3981 24.4702C53.7328 24.2083 54.0974 24.026 54.4918 23.9233C54.8896 23.8172 55.2807 23.7642 55.6651 23.7642C55.9104 23.7642 56.1921 23.794 56.5103 23.8537C56.8318 23.91 57.1417 24.0277 57.44 24.2067C57.7416 24.3857 57.9918 24.6558 58.1907 25.017C58.3896 25.3783 58.489 25.8622 58.489 26.4688V31.5H57.3157V30.4659H57.256C57.1765 30.6316 57.0439 30.8089 56.8583 30.9979C56.6727 31.1868 56.4258 31.3475 56.1175 31.4801C55.8093 31.6127 55.4331 31.679 54.989 31.679ZM55.168 30.625C55.632 30.625 56.0231 30.5339 56.3413 30.3516C56.6628 30.1693 56.9047 29.9339 57.0671 29.6456C57.2328 29.3572 57.3157 29.054 57.3157 28.7358V27.6619C57.266 27.7216 57.1566 27.7763 56.9876 27.826C56.8219 27.8724 56.6296 27.9138 56.4109 27.9503C56.1954 27.9834 55.985 28.0133 55.7795 28.0398C55.5773 28.063 55.4132 28.0829 55.2873 28.0994C54.9824 28.1392 54.6973 28.2038 54.4322 28.2933C54.1703 28.3795 53.9582 28.5104 53.7958 28.6861C53.6367 28.8584 53.5572 29.0937 53.5572 29.392C53.5572 29.7997 53.708 30.108 54.0096 30.3168C54.3145 30.5223 54.7006 30.625 55.168 30.625ZM61.8038 21.3182V31.5H60.6305V21.3182H61.8038ZM67.8903 34.3636V23.8636H69.0238V25.0767H69.163C69.2492 24.9441 69.3685 24.7751 69.521 24.5696C69.6767 24.3608 69.8988 24.1752 70.1871 24.0128C70.4788 23.8471 70.8732 23.7642 71.3704 23.7642C72.0134 23.7642 72.5801 23.925 73.0707 24.2464C73.5612 24.5679 73.944 25.0237 74.2191 25.6136C74.4942 26.2036 74.6317 26.8996 74.6317 27.7017C74.6317 28.5104 74.4942 29.2114 74.2191 29.8047C73.944 30.3946 73.5629 30.852 73.0756 31.1768C72.5884 31.4983 72.0266 31.6591 71.3903 31.6591C70.8997 31.6591 70.507 31.5779 70.212 31.4155C69.917 31.2498 69.69 31.0625 69.5309 30.8537C69.3718 30.6416 69.2492 30.4659 69.163 30.3267H69.0636V34.3636H67.8903ZM69.0437 27.6818C69.0437 28.2585 69.1282 28.7673 69.2972 29.2081C69.4663 29.6456 69.7132 29.9886 70.038 30.2372C70.3628 30.4825 70.7605 30.6051 71.2312 30.6051C71.7217 30.6051 72.131 30.4759 72.4592 30.2173C72.7906 29.9555 73.0392 29.6042 73.2049 29.1634C73.3739 28.7192 73.4585 28.2254 73.4585 27.6818C73.4585 27.1449 73.3756 26.661 73.2099 26.2301C73.0475 25.7959 72.8005 25.4529 72.4691 25.201C72.141 24.9458 71.7283 24.8182 71.2312 24.8182C70.7539 24.8182 70.3529 24.9392 70.0281 25.1811C69.7032 25.4197 69.458 25.7545 69.2923 26.1854C69.1265 26.6129 69.0437 27.1117 69.0437 27.6818ZM76.4215 31.5V23.8636H77.555V25.017H77.6346C77.7738 24.6392 78.0257 24.3326 78.3903 24.0973C78.7549 23.862 79.1658 23.7443 79.6232 23.7443C79.7094 23.7443 79.8171 23.746 79.9464 23.7493C80.0756 23.7526 80.1734 23.7576 80.2397 23.7642V24.9574C80.1999 24.9474 80.1088 24.9325 79.9663 24.9126C79.8271 24.8894 79.6796 24.8778 79.5238 24.8778C79.1526 24.8778 78.8211 24.9557 78.5295 25.1115C78.2411 25.264 78.0124 25.4761 77.8434 25.7479C77.6777 26.0163 77.5948 26.3229 77.5948 26.6676V31.5H76.4215ZM84.5004 31.6591C83.811 31.6591 83.2061 31.495 82.6857 31.1669C82.1687 30.8388 81.7643 30.3797 81.4727 29.7898C81.1843 29.1998 81.0401 28.5104 81.0401 27.7216C81.0401 26.9261 81.1843 26.2318 81.4727 25.6385C81.7643 25.0452 82.1687 24.5845 82.6857 24.2564C83.2061 23.9283 83.811 23.7642 84.5004 23.7642C85.1897 23.7642 85.793 23.9283 86.31 24.2564C86.8304 24.5845 87.2347 25.0452 87.5231 25.6385C87.8147 26.2318 87.9606 26.9261 87.9606 27.7216C87.9606 28.5104 87.8147 29.1998 87.5231 29.7898C87.2347 30.3797 86.8304 30.8388 86.31 31.1669C85.793 31.495 85.1897 31.6591 84.5004 31.6591ZM84.5004 30.6051C85.024 30.6051 85.4549 30.4709 85.793 30.2024C86.131 29.9339 86.3813 29.581 86.5437 29.1435C86.7061 28.706 86.7873 28.232 86.7873 27.7216C86.7873 27.2112 86.7061 26.7356 86.5437 26.2947C86.3813 25.8539 86.131 25.4976 85.793 25.2259C85.4549 24.9541 85.024 24.8182 84.5004 24.8182C83.9767 24.8182 83.5458 24.9541 83.2077 25.2259C82.8697 25.4976 82.6194 25.8539 82.457 26.2947C82.2946 26.7356 82.2134 27.2112 82.2134 27.7216C82.2134 28.232 82.2946 28.706 82.457 29.1435C82.6194 29.581 82.8697 29.9339 83.2077 30.2024C83.5458 30.4709 83.9767 30.6051 84.5004 30.6051ZM92.8539 31.6591C92.138 31.6591 91.5215 31.4901 91.0044 31.152C90.4874 30.8139 90.0897 30.3482 89.8113 29.755C89.5328 29.1617 89.3936 28.4839 89.3936 27.7216C89.3936 26.946 89.5362 26.2616 89.8212 25.6683C90.1096 25.0717 90.5106 24.6061 91.0243 24.2713C91.5414 23.9332 92.1446 23.7642 92.834 23.7642C93.3709 23.7642 93.8548 23.8636 94.2857 24.0625C94.7166 24.2614 95.0695 24.5398 95.3446 24.8977C95.6197 25.2557 95.7904 25.6733 95.8567 26.1506H94.6834C94.5939 25.8026 94.3951 25.4943 94.0868 25.2259C93.7819 24.9541 93.3709 24.8182 92.8539 24.8182C92.3965 24.8182 91.9954 24.9375 91.6507 25.1761C91.3094 25.4115 91.0426 25.7446 90.8503 26.1754C90.6614 26.603 90.5669 27.1051 90.5669 27.6818C90.5669 28.2718 90.6597 28.7855 90.8453 29.223C91.0343 29.6605 91.2994 30.0002 91.6408 30.2422C91.9855 30.4841 92.3899 30.6051 92.8539 30.6051C93.1588 30.6051 93.4355 30.5521 93.6841 30.446C93.9327 30.34 94.1432 30.1875 94.3155 29.9886C94.4879 29.7898 94.6105 29.5511 94.6834 29.2727H95.8567C95.7904 29.7235 95.6264 30.1295 95.3645 30.4908C95.106 30.8487 94.763 31.1338 94.3354 31.3459C93.9112 31.5547 93.4173 31.6591 92.8539 31.6591ZM100.774 31.6591C100.038 31.6591 99.4031 31.4967 98.8695 31.1719C98.3392 30.8438 97.9299 30.3864 97.6415 29.7997C97.3565 29.2098 97.214 28.5237 97.214 27.7415C97.214 26.9593 97.3565 26.2699 97.6415 25.6733C97.9299 25.0734 98.3309 24.6061 98.8446 24.2713C99.3617 23.9332 99.9649 23.7642 100.654 23.7642C101.052 23.7642 101.445 23.8305 101.833 23.9631C102.22 24.0956 102.573 24.3111 102.892 24.6094C103.21 24.9044 103.463 25.2955 103.652 25.7827C103.841 26.2699 103.936 26.8698 103.936 27.5824V28.0795H98.0492V27.0653H102.742C102.742 26.6345 102.656 26.25 102.484 25.9119C102.315 25.5739 102.073 25.3071 101.758 25.1115C101.446 24.916 101.079 24.8182 100.654 24.8182C100.187 24.8182 99.7826 24.9342 99.4412 25.1662C99.1032 25.3949 98.843 25.6932 98.6607 26.0611C98.4784 26.429 98.3873 26.8234 98.3873 27.2443V27.9205C98.3873 28.4972 98.4867 28.986 98.6855 29.3871C98.8877 29.7848 99.1678 30.0881 99.5257 30.2969C99.8837 30.5024 100.3 30.6051 100.774 30.6051C101.082 30.6051 101.36 30.562 101.609 30.4759C101.861 30.3864 102.078 30.2538 102.26 30.0781C102.442 29.8991 102.583 29.6771 102.683 29.4119L103.816 29.7301C103.697 30.1146 103.496 30.4527 103.215 30.7443C102.933 31.0327 102.585 31.258 102.171 31.4205C101.756 31.5795 101.291 31.6591 100.774 31.6591ZM111.129 25.5739L110.075 25.8722C110.009 25.6965 109.911 25.5258 109.782 25.3601C109.656 25.1911 109.484 25.0518 109.265 24.9425C109.046 24.8331 108.766 24.7784 108.425 24.7784C107.958 24.7784 107.568 24.8861 107.257 25.1016C106.948 25.3137 106.794 25.5838 106.794 25.9119C106.794 26.2036 106.9 26.4339 107.112 26.603C107.325 26.772 107.656 26.9129 108.107 27.0256L109.24 27.304C109.923 27.4697 110.432 27.7232 110.767 28.0646C111.101 28.4027 111.269 28.8385 111.269 29.3722C111.269 29.8097 111.143 30.2008 110.891 30.5455C110.642 30.8902 110.294 31.1619 109.847 31.3608C109.399 31.5597 108.879 31.6591 108.286 31.6591C107.507 31.6591 106.862 31.4901 106.352 31.152C105.841 30.8139 105.518 30.3201 105.382 29.6705L106.496 29.392C106.602 29.803 106.802 30.1113 107.097 30.3168C107.396 30.5223 107.785 30.625 108.266 30.625C108.813 30.625 109.247 30.509 109.568 30.277C109.893 30.0417 110.056 29.7599 110.056 29.4318C110.056 29.1667 109.963 28.9446 109.777 28.7656C109.592 28.5833 109.307 28.4474 108.922 28.358L107.649 28.0597C106.95 27.8939 106.436 27.6371 106.108 27.2891C105.783 26.9377 105.621 26.4986 105.621 25.9716C105.621 25.5407 105.742 25.1596 105.984 24.8281C106.229 24.4967 106.562 24.2365 106.983 24.0476C107.407 23.8587 107.888 23.7642 108.425 23.7642C109.181 23.7642 109.774 23.9299 110.205 24.2614C110.639 24.5928 110.947 25.0303 111.129 25.5739ZM118.444 25.5739L117.39 25.8722C117.324 25.6965 117.226 25.5258 117.097 25.3601C116.971 25.1911 116.798 25.0518 116.58 24.9425C116.361 24.8331 116.081 24.7784 115.739 24.7784C115.272 24.7784 114.883 24.8861 114.571 25.1016C114.263 25.3137 114.109 25.5838 114.109 25.9119C114.109 26.2036 114.215 26.4339 114.427 26.603C114.639 26.772 114.97 26.9129 115.421 27.0256L116.555 27.304C117.237 27.4697 117.746 27.7232 118.081 28.0646C118.416 28.4027 118.583 28.8385 118.583 29.3722C118.583 29.8097 118.457 30.2008 118.205 30.5455C117.957 30.8902 117.609 31.1619 117.161 31.3608C116.714 31.5597 116.193 31.6591 115.6 31.6591C114.821 31.6591 114.177 31.4901 113.666 31.152C113.156 30.8139 112.833 30.3201 112.697 29.6705L113.81 29.392C113.916 29.803 114.117 30.1113 114.412 30.3168C114.71 30.5223 115.1 30.625 115.58 30.625C116.127 30.625 116.561 30.509 116.883 30.277C117.208 30.0417 117.37 29.7599 117.37 29.4318C117.37 29.1667 117.277 28.9446 117.092 28.7656C116.906 28.5833 116.621 28.4474 116.237 28.358L114.964 28.0597C114.264 27.8939 113.751 27.6371 113.423 27.2891C113.098 26.9377 112.935 26.4986 112.935 25.9716C112.935 25.5407 113.056 25.1596 113.298 24.8281C113.544 24.4967 113.877 24.2365 114.298 24.0476C114.722 23.8587 115.202 23.7642 115.739 23.7642C116.495 23.7642 117.088 23.9299 117.519 24.2614C117.953 24.5928 118.262 25.0303 118.444 25.5739ZM126.534 31.679C126.05 31.679 125.611 31.5878 125.216 31.4055C124.822 31.2199 124.509 30.9531 124.277 30.6051C124.045 30.2538 123.929 29.8295 123.929 29.3324C123.929 28.8949 124.015 28.5402 124.187 28.2685C124.36 27.9934 124.59 27.7779 124.878 27.6222C125.167 27.4664 125.485 27.3504 125.833 27.2741C126.184 27.1946 126.537 27.1316 126.892 27.0852C127.356 27.0256 127.732 26.9808 128.02 26.951C128.312 26.9179 128.524 26.8632 128.657 26.7869C128.793 26.7107 128.861 26.5781 128.861 26.3892V26.3494C128.861 25.8589 128.726 25.4777 128.458 25.206C128.193 24.9342 127.79 24.7983 127.25 24.7983C126.69 24.7983 126.251 24.9209 125.932 25.1662C125.614 25.4115 125.39 25.6733 125.261 25.9517L124.148 25.554C124.346 25.09 124.612 24.7287 124.943 24.4702C125.278 24.2083 125.642 24.026 126.037 23.9233C126.434 23.8172 126.826 23.7642 127.21 23.7642C127.455 23.7642 127.737 23.794 128.055 23.8537C128.377 23.91 128.687 24.0277 128.985 24.2067C129.287 24.3857 129.537 24.6558 129.736 25.017C129.934 25.3783 130.034 25.8622 130.034 26.4688V31.5H128.861V30.4659H128.801C128.721 30.6316 128.589 30.8089 128.403 30.9979C128.218 31.1868 127.971 31.3475 127.662 31.4801C127.354 31.6127 126.978 31.679 126.534 31.679ZM126.713 30.625C127.177 30.625 127.568 30.5339 127.886 30.3516C128.208 30.1693 128.45 29.9339 128.612 29.6456C128.778 29.3572 128.861 29.054 128.861 28.7358V27.6619C128.811 27.7216 128.702 27.7763 128.532 27.826C128.367 27.8724 128.175 27.9138 127.956 27.9503C127.74 27.9834 127.53 28.0133 127.324 28.0398C127.122 28.063 126.958 28.0829 126.832 28.0994C126.527 28.1392 126.242 28.2038 125.977 28.2933C125.715 28.3795 125.503 28.5104 125.341 28.6861C125.182 28.8584 125.102 29.0937 125.102 29.392C125.102 29.7997 125.253 30.108 125.555 30.3168C125.859 30.5223 126.246 30.625 126.713 30.625ZM132.175 31.5V23.8636H133.309V25.017H133.388C133.528 24.6392 133.78 24.3326 134.144 24.0973C134.509 23.862 134.92 23.7443 135.377 23.7443C135.463 23.7443 135.571 23.746 135.7 23.7493C135.83 23.7526 135.927 23.7576 135.994 23.7642V24.9574C135.954 24.9474 135.863 24.9325 135.72 24.9126C135.581 24.8894 135.433 24.8778 135.278 24.8778C134.906 24.8778 134.575 24.9557 134.283 25.1115C133.995 25.264 133.766 25.4761 133.597 25.7479C133.432 26.0163 133.349 26.3229 133.349 26.6676V31.5H132.175ZM140.354 31.6591C139.618 31.6591 138.983 31.4967 138.45 31.1719C137.919 30.8438 137.51 30.3864 137.222 29.7997C136.937 29.2098 136.794 28.5237 136.794 27.7415C136.794 26.9593 136.937 26.2699 137.222 25.6733C137.51 25.0734 137.911 24.6061 138.425 24.2713C138.942 23.9332 139.545 23.7642 140.234 23.7642C140.632 23.7642 141.025 23.8305 141.413 23.9631C141.8 24.0956 142.153 24.3111 142.472 24.6094C142.79 24.9044 143.043 25.2955 143.232 25.7827C143.421 26.2699 143.516 26.8698 143.516 27.5824V28.0795H137.629V27.0653H142.322C142.322 26.6345 142.236 26.25 142.064 25.9119C141.895 25.5739 141.653 25.3071 141.338 25.1115C141.027 24.916 140.659 24.8182 140.234 24.8182C139.767 24.8182 139.363 24.9342 139.021 25.1662C138.683 25.3949 138.423 25.6932 138.241 26.0611C138.058 26.429 137.967 26.8234 137.967 27.2443V27.9205C137.967 28.4972 138.067 28.986 138.266 29.3871C138.468 29.7848 138.748 30.0881 139.106 30.2969C139.464 30.5024 139.88 30.6051 140.354 30.6051C140.662 30.6051 140.94 30.562 141.189 30.4759C141.441 30.3864 141.658 30.2538 141.84 30.0781C142.022 29.8991 142.163 29.6771 142.263 29.4119L143.396 29.7301C143.277 30.1146 143.076 30.4527 142.795 30.7443C142.513 31.0327 142.165 31.258 141.751 31.4205C141.336 31.5795 140.871 31.6591 140.354 31.6591ZM147.548 31.679C147.064 31.679 146.625 31.5878 146.23 31.4055C145.836 31.2199 145.522 30.9531 145.29 30.6051C145.058 30.2538 144.942 29.8295 144.942 29.3324C144.942 28.8949 145.029 28.5402 145.201 28.2685C145.373 27.9934 145.604 27.7779 145.892 27.6222C146.18 27.4664 146.499 27.3504 146.847 27.2741C147.198 27.1946 147.551 27.1316 147.906 27.0852C148.37 27.0256 148.746 26.9808 149.034 26.951C149.326 26.9179 149.538 26.8632 149.67 26.7869C149.806 26.7107 149.874 26.5781 149.874 26.3892V26.3494C149.874 25.8589 149.74 25.4777 149.472 25.206C149.206 24.9342 148.804 24.7983 148.263 24.7983C147.703 24.7983 147.264 24.9209 146.946 25.1662C146.628 25.4115 146.404 25.6733 146.275 25.9517L145.161 25.554C145.36 25.09 145.625 24.7287 145.957 24.4702C146.291 24.2083 146.656 24.026 147.05 23.9233C147.448 23.8172 147.839 23.7642 148.224 23.7642C148.469 23.7642 148.751 23.794 149.069 23.8537C149.39 23.91 149.7 24.0277 149.999 24.2067C150.3 24.3857 150.55 24.6558 150.749 25.017C150.948 25.3783 151.048 25.8622 151.048 26.4688V31.5H149.874V30.4659H149.815C149.735 30.6316 149.603 30.8089 149.417 30.9979C149.231 31.1868 148.984 31.3475 148.676 31.4801C148.368 31.6127 147.992 31.679 147.548 31.679ZM147.727 30.625C148.191 30.625 148.582 30.5339 148.9 30.3516C149.221 30.1693 149.463 29.9339 149.626 29.6456C149.791 29.3572 149.874 29.054 149.874 28.7358V27.6619C149.825 27.7216 149.715 27.7763 149.546 27.826C149.38 27.8724 149.188 27.9138 148.969 27.9503C148.754 27.9834 148.544 28.0133 148.338 28.0398C148.136 28.063 147.972 28.0829 147.846 28.0994C147.541 28.1392 147.256 28.2038 146.991 28.2933C146.729 28.3795 146.517 28.5104 146.354 28.6861C146.195 28.8584 146.116 29.0937 146.116 29.392C146.116 29.7997 146.267 30.108 146.568 30.3168C146.873 30.5223 147.259 30.625 147.727 30.625Z" fill="#222222"/>
<rect x="7" y="52" width="252" height="40" rx="4" fill="white"/>
<path d="M16.233 77.5V67.3182H22.3778V68.4119H17.4659V71.8523H22.0597V72.946H17.4659V76.4062H22.4574V77.5H16.233ZM25.6143 72.9062V77.5H24.4411V69.8636H25.5746V71.0568H25.674C25.853 70.669 26.1248 70.3575 26.4893 70.1222C26.8539 69.8835 27.3246 69.7642 27.9013 69.7642C28.4183 69.7642 28.8707 69.8703 29.2585 70.0824C29.6463 70.2912 29.9479 70.6094 30.1634 71.0369C30.3788 71.4612 30.4865 71.9981 30.4865 72.6477V77.5H29.3132V72.7273C29.3132 72.1274 29.1574 71.66 28.8459 71.3253C28.5343 70.9872 28.1068 70.8182 27.5632 70.8182C27.1887 70.8182 26.8539 70.8994 26.5589 71.0618C26.2673 71.2242 26.0369 71.4612 25.8679 71.7727C25.6989 72.0843 25.6143 72.4621 25.6143 72.9062ZM35.9515 69.8636V70.858H31.9941V69.8636H35.9515ZM33.1475 68.0341H34.3208V75.3125C34.3208 75.6439 34.3689 75.8925 34.465 76.0582C34.5645 76.2206 34.6904 76.33 34.8429 76.3864C34.9986 76.4394 35.1627 76.4659 35.335 76.4659C35.4643 76.4659 35.5704 76.4593 35.6532 76.446C35.7361 76.4295 35.8024 76.4162 35.8521 76.4062L36.0907 77.4602C36.0112 77.4901 35.9002 77.5199 35.7576 77.5497C35.6151 77.5829 35.4345 77.5994 35.2157 77.5994C34.8843 77.5994 34.5595 77.5282 34.2413 77.3857C33.9264 77.2431 33.6646 77.026 33.4558 76.7344C33.2503 76.4427 33.1475 76.0748 33.1475 75.6307V68.0341ZM37.7164 77.5V69.8636H38.85V71.017H38.9295C39.0687 70.6392 39.3206 70.3326 39.6852 70.0973C40.0498 69.862 40.4608 69.7443 40.9181 69.7443C41.0043 69.7443 41.112 69.746 41.2413 69.7493C41.3706 69.7526 41.4683 69.7576 41.5346 69.7642V70.9574C41.4949 70.9474 41.4037 70.9325 41.2612 70.9126C41.122 70.8894 40.9745 70.8778 40.8187 70.8778C40.4475 70.8778 40.1161 70.9557 39.8244 71.1115C39.536 71.264 39.3074 71.4761 39.1383 71.7479C38.9726 72.0163 38.8897 72.3229 38.8897 72.6676V77.5H37.7164ZM43.9135 80.3636C43.7147 80.3636 43.5373 80.3471 43.3816 80.3139C43.2258 80.2841 43.1181 80.2543 43.0584 80.2244L43.3567 79.1903C43.6417 79.2633 43.8936 79.2898 44.1124 79.2699C44.3311 79.25 44.525 79.1522 44.6941 78.9766C44.8664 78.8042 45.0239 78.5241 45.1664 78.1364L45.3851 77.5398L42.5613 69.8636H43.834L45.9419 75.9489H46.0215L48.1294 69.8636H49.4022L46.1607 78.6136C46.0149 79.008 45.8342 79.3345 45.6188 79.593C45.4034 79.8549 45.1531 80.0488 44.8681 80.1747C44.5864 80.3007 44.2682 80.3636 43.9135 80.3636ZM53.7573 66.8409L50.476 79.0312H49.4022L52.6834 66.8409H53.7573ZM55.3072 77.5V67.3182H61.4521V68.4119H56.5401V71.8523H61.1339V72.946H56.5401V76.4062H61.5316V77.5H55.3072ZM64.3903 69.8636L66.2198 72.9858L68.0494 69.8636H69.4016L66.9357 73.6818L69.4016 77.5H68.0494L66.2198 74.5369L64.3903 77.5H63.038L65.4641 73.6818L63.038 69.8636H64.3903ZM71.0758 77.5V69.8636H72.2491V77.5H71.0758ZM71.6724 68.5909C71.4437 68.5909 71.2465 68.513 71.0808 68.3572C70.9184 68.2015 70.8372 68.0142 70.8372 67.7955C70.8372 67.5767 70.9184 67.3894 71.0808 67.2337C71.2465 67.0779 71.4437 67 71.6724 67C71.9011 67 72.0967 67.0779 72.2591 67.2337C72.4248 67.3894 72.5076 67.5767 72.5076 67.7955C72.5076 68.0142 72.4248 68.2015 72.2591 68.3572C72.0967 68.513 71.9011 68.5909 71.6724 68.5909ZM77.7191 69.8636V70.858H73.7617V69.8636H77.7191ZM74.9151 68.0341H76.0884V75.3125C76.0884 75.6439 76.1365 75.8925 76.2326 76.0582C76.332 76.2206 76.458 76.33 76.6104 76.3864C76.7662 76.4394 76.9303 76.4659 77.1026 76.4659C77.2319 76.4659 77.338 76.4593 77.4208 76.446C77.5037 76.4295 77.57 76.4162 77.6197 76.4062L77.8583 77.4602C77.7788 77.4901 77.6677 77.5199 77.5252 77.5497C77.3827 77.5829 77.2021 77.5994 76.9833 77.5994C76.6519 77.5994 76.3271 77.5282 76.0089 77.3857C75.694 77.2431 75.4322 77.026 75.2234 76.7344C75.0179 76.4427 74.9151 76.0748 74.9151 75.6307V68.0341ZM85.6687 77.679C85.1848 77.679 84.7456 77.5878 84.3512 77.4055C83.9568 77.2199 83.6436 76.9531 83.4116 76.6051C83.1796 76.2538 83.0636 75.8295 83.0636 75.3324C83.0636 74.8949 83.1497 74.5402 83.3221 74.2685C83.4944 73.9934 83.7248 73.7779 84.0131 73.6222C84.3015 73.4664 84.6197 73.3504 84.9677 73.2741C85.319 73.1946 85.672 73.1316 86.0266 73.0852C86.4906 73.0256 86.8668 72.9808 87.1552 72.951C87.4469 72.9179 87.659 72.8632 87.7915 72.7869C87.9274 72.7107 87.9954 72.5781 87.9954 72.3892V72.3494C87.9954 71.8589 87.8612 71.4777 87.5927 71.206C87.3275 70.9342 86.9248 70.7983 86.3846 70.7983C85.8245 70.7983 85.3853 70.9209 85.0671 71.1662C84.7489 71.4115 84.5252 71.6733 84.396 71.9517L83.2823 71.554C83.4812 71.09 83.7463 70.7287 84.0778 70.4702C84.4125 70.2083 84.7771 70.026 85.1715 69.9233C85.5692 69.8172 85.9603 69.7642 86.3448 69.7642C86.5901 69.7642 86.8718 69.794 87.19 69.8537C87.5115 69.91 87.8214 70.0277 88.1197 70.2067C88.4213 70.3857 88.6715 70.6558 88.8704 71.017C89.0692 71.3783 89.1687 71.8622 89.1687 72.4688V77.5H87.9954V76.4659H87.9357C87.8562 76.6316 87.7236 76.8089 87.538 76.9979C87.3524 77.1868 87.1055 77.3475 86.7972 77.4801C86.489 77.6127 86.1128 77.679 85.6687 77.679ZM85.8477 76.625C86.3117 76.625 86.7028 76.5339 87.021 76.3516C87.3424 76.1693 87.5844 75.9339 87.7468 75.6456C87.9125 75.3572 87.9954 75.054 87.9954 74.7358V73.6619C87.9457 73.7216 87.8363 73.7763 87.6673 73.826C87.5015 73.8724 87.3093 73.9138 87.0906 73.9503C86.8751 73.9834 86.6647 74.0133 86.4592 74.0398C86.257 74.063 86.0929 74.0829 85.967 74.0994C85.6621 74.1392 85.377 74.2038 85.1119 74.2933C84.85 74.3795 84.6379 74.5104 84.4755 74.6861C84.3164 74.8584 84.2369 75.0937 84.2369 75.392C84.2369 75.7997 84.3877 76.108 84.6893 76.3168C84.9942 76.5223 85.3803 76.625 85.8477 76.625ZM91.3102 77.5V69.8636H92.4437V71.017H92.5233C92.6625 70.6392 92.9144 70.3326 93.2789 70.0973C93.6435 69.862 94.0545 69.7443 94.5119 69.7443C94.5981 69.7443 94.7058 69.746 94.835 69.7493C94.9643 69.7526 95.0621 69.7576 95.1284 69.7642V70.9574C95.0886 70.9474 94.9975 70.9325 94.8549 70.9126C94.7157 70.8894 94.5682 70.8778 94.4125 70.8778C94.0413 70.8778 93.7098 70.9557 93.4181 71.1115C93.1298 71.264 92.9011 71.4761 92.7321 71.7479C92.5663 72.0163 92.4835 72.3229 92.4835 72.6676V77.5H91.3102ZM99.4885 77.6591C98.7527 77.6591 98.118 77.4967 97.5843 77.1719C97.054 76.8438 96.6447 76.3864 96.3564 75.7997C96.0713 75.2098 95.9288 74.5237 95.9288 73.7415C95.9288 72.9593 96.0713 72.2699 96.3564 71.6733C96.6447 71.0734 97.0458 70.6061 97.5595 70.2713C98.0765 69.9332 98.6797 69.7642 99.3691 69.7642C99.7669 69.7642 100.16 69.8305 100.547 69.9631C100.935 70.0956 101.288 70.3111 101.606 70.6094C101.925 70.9044 102.178 71.2955 102.367 71.7827C102.556 72.2699 102.65 72.8698 102.65 73.5824V74.0795H96.764V73.0653H101.457C101.457 72.6345 101.371 72.25 101.199 71.9119C101.03 71.5739 100.788 71.3071 100.473 71.1115C100.161 70.916 99.7934 70.8182 99.3691 70.8182C98.9018 70.8182 98.4975 70.9342 98.1561 71.1662C97.818 71.3949 97.5578 71.6932 97.3755 72.0611C97.1932 72.429 97.1021 72.8234 97.1021 73.2443V73.9205C97.1021 74.4972 97.2015 74.986 97.4004 75.3871C97.6026 75.7848 97.8826 76.0881 98.2406 76.2969C98.5985 76.5024 99.0145 76.6051 99.4885 76.6051C99.7967 76.6051 100.075 76.562 100.324 76.4759C100.576 76.3864 100.793 76.2538 100.975 76.0781C101.157 75.8991 101.298 75.6771 101.398 75.4119L102.531 75.7301C102.412 76.1146 102.211 76.4527 101.93 76.7443C101.648 77.0327 101.3 77.258 100.885 77.4205C100.471 77.5795 100.006 77.6591 99.4885 77.6591ZM106.682 77.679C106.198 77.679 105.759 77.5878 105.365 77.4055C104.97 77.2199 104.657 76.9531 104.425 76.6051C104.193 76.2538 104.077 75.8295 104.077 75.3324C104.077 74.8949 104.163 74.5402 104.336 74.2685C104.508 73.9934 104.738 73.7779 105.027 73.6222C105.315 73.4664 105.633 73.3504 105.981 73.2741C106.333 73.1946 106.686 73.1316 107.04 73.0852C107.504 73.0256 107.881 72.9808 108.169 72.951C108.461 72.9179 108.673 72.8632 108.805 72.7869C108.941 72.7107 109.009 72.5781 109.009 72.3892V72.3494C109.009 71.8589 108.875 71.4777 108.606 71.206C108.341 70.9342 107.939 70.7983 107.398 70.7983C106.838 70.7983 106.399 70.9209 106.081 71.1662C105.763 71.4115 105.539 71.6733 105.41 71.9517L104.296 71.554C104.495 71.09 104.76 70.7287 105.091 70.4702C105.426 70.2083 105.791 70.026 106.185 69.9233C106.583 69.8172 106.974 69.7642 107.358 69.7642C107.604 69.7642 107.885 69.794 108.204 69.8537C108.525 69.91 108.835 70.0277 109.133 70.2067C109.435 70.3857 109.685 70.6558 109.884 71.017C110.083 71.3783 110.182 71.8622 110.182 72.4688V77.5H109.009V76.4659H108.949C108.87 76.6316 108.737 76.8089 108.552 76.9979C108.366 77.1868 108.119 77.3475 107.811 77.4801C107.503 77.6127 107.126 77.679 106.682 77.679ZM106.861 76.625C107.325 76.625 107.716 76.5339 108.035 76.3516C108.356 76.1693 108.598 75.9339 108.76 75.6456C108.926 75.3572 109.009 75.054 109.009 74.7358V73.6619C108.959 73.7216 108.85 73.7763 108.681 73.826C108.515 73.8724 108.323 73.9138 108.104 73.9503C107.889 73.9834 107.678 74.0133 107.473 74.0398C107.271 74.063 107.107 74.0829 106.981 74.0994C106.676 74.1392 106.391 74.2038 106.126 74.2933C105.864 74.3795 105.652 74.5104 105.489 74.6861C105.33 74.8584 105.251 75.0937 105.251 75.392C105.251 75.7997 105.401 76.108 105.703 76.3168C106.008 76.5223 106.394 76.625 106.861 76.625Z" fill="#222222"/>
</g>
<defs>
<filter id="filter0_d_5338_19518" x="0" y="0" width="266" height="100" filterUnits="userSpaceOnUse" color-interpolation-filters="sRGB">
<feFlood flood-opacity="0" result="BackgroundImageFix"/>
<feColorMatrix in="SourceAlpha" type="matrix" values="0 0 0 0 0 0 0 0 0 0 0 0 0 0 0 0 0 0 127 0" result="hardAlpha"/>
<feOffset dy="1"/>
<feGaussianBlur stdDeviation="1.5"/>
<feComposite in2="hardAlpha" operator="out"/>
<feColorMatrix type="matrix" values="0 0 0 0 0 0 0 0 0 0 0 0 0 0 0 0 0 0 0.2 0"/>
<feBlend mode="normal" in2="BackgroundImageFix" result="effect1_dropShadow_5338_19518"/>
<feBlend mode="normal" in="SourceGraphic" in2="effect1_dropShadow_5338_19518" result="shape"/>
</filter>
</defs>
</svg>
