<svg width="304" height="160" viewBox="0 0 304 160" fill="none" xmlns="http://www.w3.org/2000/svg">
<path d="M17.179 12.2273L19.3381 18.3494H19.4233L21.5824 12.2273H22.5057L19.8352 19.5H18.9261L16.2557 12.2273H17.179ZM25.304 19.6136C24.7784 19.6136 24.325 19.4976 23.9439 19.2656C23.5651 19.0312 23.2727 18.7045 23.0668 18.2855C22.8632 17.8641 22.7614 17.3741 22.7614 16.8153C22.7614 16.2566 22.8632 15.7642 23.0668 15.3381C23.2727 14.9096 23.5592 14.5758 23.9261 14.3366C24.2955 14.0952 24.7263 13.9744 25.2188 13.9744C25.5028 13.9744 25.7834 14.0218 26.0604 14.1165C26.3374 14.2112 26.5895 14.3651 26.8168 14.5781C27.044 14.7888 27.2251 15.0682 27.3601 15.4162C27.495 15.7642 27.5625 16.1927 27.5625 16.7017V17.0568H23.358V16.3324H26.7102C26.7102 16.0246 26.6487 15.75 26.5256 15.5085C26.4048 15.267 26.232 15.0765 26.0071 14.9368C25.7846 14.7971 25.5218 14.7273 25.2188 14.7273C24.8849 14.7273 24.5961 14.8101 24.3523 14.9759C24.1108 15.1392 23.925 15.3523 23.7947 15.6151C23.6645 15.8778 23.5994 16.1596 23.5994 16.4602V16.9432C23.5994 17.3551 23.6705 17.7043 23.8125 17.9908C23.9569 18.2749 24.157 18.4915 24.4126 18.6406C24.6683 18.7874 24.9654 18.8608 25.304 18.8608C25.5241 18.8608 25.723 18.83 25.9006 18.7685C26.0805 18.7045 26.2356 18.6098 26.3658 18.4844C26.496 18.3565 26.5966 18.1979 26.6676 18.0085L27.4773 18.2358C27.392 18.5104 27.2488 18.7519 27.0476 18.9602C26.8464 19.1662 26.5978 19.3272 26.3018 19.4432C26.0059 19.5568 25.6733 19.6136 25.304 19.6136ZM29.6754 16.2188V19.5H28.8374V12.2273H29.6754V14.8977H29.7464C29.8743 14.616 30.0661 14.3923 30.3217 14.2266C30.5798 14.0585 30.9231 13.9744 31.3516 13.9744C31.7232 13.9744 32.0488 14.049 32.3281 14.1982C32.6075 14.3449 32.8241 14.571 32.978 14.8764C33.1342 15.1795 33.2124 15.5653 33.2124 16.0341V19.5H32.3743V16.0909C32.3743 15.6577 32.2618 15.3227 32.0369 15.0859C31.8144 14.8468 31.5054 14.7273 31.1101 14.7273C30.8355 14.7273 30.5893 14.7853 30.3714 14.9013C30.156 15.0173 29.9856 15.1866 29.8601 15.4091C29.737 15.6316 29.6754 15.9015 29.6754 16.2188ZM34.7456 19.5V14.0455H35.5836V19.5H34.7456ZM35.1717 13.1364C35.0083 13.1364 34.8675 13.0807 34.7491 12.9695C34.6331 12.8582 34.5751 12.7244 34.5751 12.5682C34.5751 12.4119 34.6331 12.2782 34.7491 12.1669C34.8675 12.0556 35.0083 12 35.1717 12C35.335 12 35.4747 12.0556 35.5907 12.1669C35.7091 12.2782 35.7683 12.4119 35.7683 12.5682C35.7683 12.7244 35.7091 12.8582 35.5907 12.9695C35.4747 13.0807 35.335 13.1364 35.1717 13.1364ZM39.3345 19.6136C38.8232 19.6136 38.3828 19.4929 38.0135 19.2514C37.6442 19.0099 37.3601 18.6773 37.1612 18.2536C36.9624 17.8298 36.8629 17.3456 36.8629 16.8011C36.8629 16.2472 36.9647 15.7583 37.1683 15.3345C37.3743 14.9084 37.6607 14.5758 38.0277 14.3366C38.397 14.0952 38.8279 13.9744 39.3203 13.9744C39.7038 13.9744 40.0495 14.0455 40.3572 14.1875C40.665 14.3295 40.9171 14.5284 41.1136 14.7841C41.3101 15.0398 41.4321 15.3381 41.4794 15.679H40.6413C40.5774 15.4304 40.4354 15.2102 40.2152 15.0185C39.9974 14.8243 39.7038 14.7273 39.3345 14.7273C39.0078 14.7273 38.7214 14.8125 38.4751 14.983C38.2313 15.151 38.0407 15.389 37.9034 15.6967C37.7685 16.0021 37.701 16.3608 37.701 16.7727C37.701 17.1941 37.7673 17.5611 37.8999 17.8736C38.0348 18.1861 38.2242 18.4287 38.468 18.6016C38.7143 18.7744 39.0031 18.8608 39.3345 18.8608C39.5523 18.8608 39.75 18.8229 39.9276 18.7472C40.1051 18.6714 40.2554 18.5625 40.3786 18.4205C40.5017 18.2784 40.5893 18.108 40.6413 17.9091H41.4794C41.4321 18.2311 41.3149 18.5211 41.1278 18.7791C40.9432 19.0348 40.6982 19.2384 40.3928 19.3899C40.0897 19.5391 39.737 19.6136 39.3345 19.6136ZM43.5426 12.2273V19.5H42.7045V12.2273H43.5426ZM47.3645 19.6136C46.839 19.6136 46.3856 19.4976 46.0044 19.2656C45.6257 19.0312 45.3333 18.7045 45.1273 18.2855C44.9237 17.8641 44.8219 17.3741 44.8219 16.8153C44.8219 16.2566 44.9237 15.7642 45.1273 15.3381C45.3333 14.9096 45.6197 14.5758 45.9867 14.3366C46.356 14.0952 46.7869 13.9744 47.2793 13.9744C47.5634 13.9744 47.8439 14.0218 48.1209 14.1165C48.3979 14.2112 48.65 14.3651 48.8773 14.5781C49.1046 14.7888 49.2857 15.0682 49.4206 15.4162C49.5556 15.7642 49.623 16.1927 49.623 16.7017V17.0568H45.4185V16.3324H48.7708C48.7708 16.0246 48.7092 15.75 48.5861 15.5085C48.4654 15.267 48.2926 15.0765 48.0676 14.9368C47.8451 14.7971 47.5823 14.7273 47.2793 14.7273C46.9455 14.7273 46.6567 14.8101 46.4128 14.9759C46.1713 15.1392 45.9855 15.3523 45.8553 15.6151C45.7251 15.8778 45.66 16.1596 45.66 16.4602V16.9432C45.66 17.3551 45.731 17.7043 45.873 17.9908C46.0175 18.2749 46.2175 18.4915 46.4732 18.6406C46.7289 18.7874 47.026 18.8608 47.3645 18.8608C47.5847 18.8608 47.7836 18.83 47.9611 18.7685C48.141 18.7045 48.2961 18.6098 48.4263 18.4844C48.5565 18.3565 48.6571 18.1979 48.7282 18.0085L49.5378 18.2358C49.4526 18.5104 49.3094 18.7519 49.1081 18.9602C48.9069 19.1662 48.6583 19.3272 48.3624 19.4432C48.0665 19.5568 47.7338 19.6136 47.3645 19.6136Z" fill="#222222"/>
<path d="M145.179 19.5H144.256L146.926 12.2273H147.835L150.506 19.5H149.582L147.409 13.3778H147.352L145.179 19.5ZM145.52 16.6591H149.241V17.4403H145.52V16.6591ZM156.268 14.5C156.19 14.2609 156.087 14.0466 155.959 13.8572C155.834 13.6655 155.684 13.5021 155.508 13.3672C155.336 13.2322 155.139 13.1293 154.919 13.0582C154.699 12.9872 154.457 12.9517 154.194 12.9517C153.764 12.9517 153.372 13.063 153.019 13.2855C152.666 13.508 152.386 13.8359 152.177 14.2692C151.969 14.7024 151.865 15.2339 151.865 15.8636C151.865 16.4934 151.97 17.0249 152.181 17.4581C152.392 17.8913 152.677 18.2192 153.037 18.4418C153.397 18.6643 153.801 18.7756 154.251 18.7756C154.668 18.7756 155.035 18.6868 155.352 18.5092C155.672 18.3293 155.92 18.076 156.098 17.7493C156.278 17.4202 156.368 17.0331 156.368 16.5881L156.638 16.6449H154.45V15.8636H157.22V16.6449C157.22 17.2438 157.092 17.7647 156.836 18.2074C156.583 18.6501 156.233 18.9934 155.785 19.2372C155.34 19.4787 154.829 19.5994 154.251 19.5994C153.607 19.5994 153.041 19.4479 152.554 19.1449C152.068 18.8419 151.69 18.411 151.417 17.8523C151.148 17.2936 151.013 16.6307 151.013 15.8636C151.013 15.2884 151.09 14.7711 151.243 14.3118C151.4 13.8501 151.62 13.4571 151.904 13.1328C152.188 12.8085 152.524 12.5599 152.912 12.3871C153.301 12.2143 153.728 12.1278 154.194 12.1278C154.578 12.1278 154.935 12.1858 155.267 12.3018C155.601 12.4155 155.898 12.5777 156.158 12.7884C156.421 12.9967 156.64 13.2464 156.815 13.5376C156.99 13.8265 157.111 14.1473 157.177 14.5H156.268ZM158.728 19.5V12.2273H163.089V13.0085H159.609V15.4659H162.762V16.2472H159.609V19.5H158.728ZM167.906 19.5V20.2812H163.361V19.5H167.906ZM170.52 19.5994C170.032 19.5994 169.601 19.513 169.227 19.3402C168.856 19.165 168.566 18.9247 168.357 18.6193C168.149 18.3116 168.046 17.9612 168.048 17.5682C168.046 17.2604 168.106 16.9763 168.229 16.7159C168.353 16.4531 168.521 16.2341 168.734 16.0589C168.949 15.8814 169.189 15.7689 169.455 15.7216V15.679C169.107 15.589 168.83 15.3937 168.624 15.093C168.418 14.79 168.316 14.4455 168.318 14.0597C168.316 13.6903 168.409 13.3601 168.599 13.0689C168.788 12.7777 169.049 12.5481 169.38 12.38C169.714 12.2119 170.094 12.1278 170.52 12.1278C170.941 12.1278 171.318 12.2119 171.649 12.38C171.981 12.5481 172.241 12.7777 172.43 13.0689C172.622 13.3601 172.719 13.6903 172.722 14.0597C172.719 14.4455 172.614 14.79 172.406 15.093C172.2 15.3937 171.926 15.589 171.585 15.679V15.7216C171.848 15.7689 172.085 15.8814 172.295 16.0589C172.506 16.2341 172.674 16.4531 172.8 16.7159C172.925 16.9763 172.989 17.2604 172.991 17.5682C172.989 17.9612 172.883 18.3116 172.672 18.6193C172.464 18.9247 172.174 19.165 171.802 19.3402C171.433 19.513 171.005 19.5994 170.52 19.5994ZM170.52 18.8182C170.849 18.8182 171.133 18.7649 171.372 18.6584C171.611 18.5518 171.796 18.4015 171.926 18.2074C172.056 18.0133 172.123 17.786 172.125 17.5256C172.123 17.2509 172.052 17.0083 171.912 16.7976C171.772 16.5869 171.582 16.4212 171.34 16.3004C171.101 16.1797 170.828 16.1193 170.52 16.1193C170.21 16.1193 169.933 16.1797 169.689 16.3004C169.447 16.4212 169.257 16.5869 169.117 16.7976C168.98 17.0083 168.912 17.2509 168.915 17.5256C168.912 17.786 168.975 18.0133 169.103 18.2074C169.233 18.4015 169.419 18.5518 169.661 18.6584C169.902 18.7649 170.188 18.8182 170.52 18.8182ZM170.52 15.3665C170.78 15.3665 171.011 15.3144 171.212 15.2102C171.416 15.1061 171.576 14.9605 171.692 14.7734C171.808 14.5864 171.867 14.3674 171.869 14.1165C171.867 13.8703 171.809 13.656 171.695 13.4737C171.582 13.2891 171.424 13.147 171.223 13.0476C171.022 12.9458 170.787 12.8949 170.52 12.8949C170.248 12.8949 170.01 12.9458 169.806 13.0476C169.603 13.147 169.445 13.2891 169.334 13.4737C169.223 13.656 169.168 13.8703 169.17 14.1165C169.168 14.3674 169.224 14.5864 169.337 14.7734C169.453 14.9605 169.613 15.1061 169.817 15.2102C170.02 15.3144 170.255 15.3665 170.52 15.3665ZM174.779 19.5H173.855L176.526 12.2273H177.435L180.105 19.5H179.182L177.009 13.3778H176.952L174.779 19.5ZM175.119 16.6591H178.841V17.4403H175.119V16.6591ZM181.238 19.5V12.2273H185.599V13.0085H182.119V15.4659H185.272V16.2472H182.119V19.5H181.238ZM187.107 19.5V12.2273H189.65C190.156 12.2273 190.574 12.3149 190.903 12.4901C191.232 12.6629 191.478 12.8961 191.638 13.1896C191.799 13.4808 191.88 13.804 191.88 14.1591C191.88 14.4716 191.824 14.7296 191.713 14.9332C191.604 15.1368 191.46 15.2978 191.28 15.4162C191.102 15.5346 190.909 15.6222 190.701 15.679V15.75C190.924 15.7642 191.147 15.8423 191.372 15.9844C191.597 16.1264 191.785 16.33 191.937 16.5952C192.088 16.8603 192.164 17.1847 192.164 17.5682C192.164 17.9328 192.081 18.2607 191.915 18.5518C191.75 18.843 191.488 19.0739 191.131 19.2443C190.773 19.4148 190.308 19.5 189.735 19.5H187.107ZM187.988 18.7188H189.735C190.31 18.7188 190.719 18.6075 190.96 18.3849C191.204 18.16 191.326 17.8878 191.326 17.5682C191.326 17.322 191.263 17.0947 191.138 16.8864C191.012 16.6757 190.834 16.5076 190.602 16.3821C190.37 16.2543 190.095 16.1903 189.778 16.1903H187.988V18.7188ZM187.988 15.4233H189.621C189.887 15.4233 190.126 15.3712 190.339 15.267C190.554 15.1629 190.725 15.0161 190.85 14.8267C190.978 14.6373 191.042 14.4148 191.042 14.1591C191.042 13.8395 190.931 13.5684 190.708 13.3459C190.486 13.121 190.133 13.0085 189.65 13.0085H187.988V15.4233ZM193.611 19.5V12.2273H196.069C196.637 12.2273 197.103 12.3243 197.468 12.5185C197.832 12.7102 198.102 12.9742 198.277 13.3104C198.453 13.6465 198.54 14.0289 198.54 14.4574C198.54 14.8859 198.453 15.2659 198.277 15.5973C198.102 15.9287 197.833 16.1892 197.471 16.3786C197.109 16.5656 196.646 16.6591 196.083 16.6591H194.094V15.8636H196.054C196.443 15.8636 196.755 15.8068 196.992 15.6932C197.231 15.5795 197.404 15.4186 197.51 15.2102C197.619 14.9995 197.674 14.7486 197.674 14.4574C197.674 14.1662 197.619 13.9117 197.51 13.6939C197.401 13.4761 197.227 13.308 196.988 13.1896C196.749 13.0689 196.433 13.0085 196.04 13.0085H194.492V19.5H193.611ZM197.034 16.233L198.824 19.5H197.801L196.04 16.233H197.034ZM202.337 19.5994C201.868 19.5994 201.451 19.5189 201.084 19.358C200.719 19.197 200.429 18.9732 200.214 18.6868C200.001 18.398 199.885 18.063 199.866 17.6818H200.76C200.779 17.9162 200.86 18.1186 201.002 18.2891C201.144 18.4571 201.33 18.5874 201.559 18.6797C201.789 18.772 202.044 18.8182 202.323 18.8182C202.635 18.8182 202.912 18.7637 203.154 18.6548C203.395 18.5459 203.585 18.3944 203.722 18.2003C203.859 18.0062 203.928 17.7812 203.928 17.5256C203.928 17.258 203.862 17.0225 203.729 16.8189C203.597 16.6129 203.403 16.4519 203.147 16.3359C202.891 16.2199 202.579 16.1619 202.209 16.1619H201.627V15.3807H202.209C202.498 15.3807 202.751 15.3286 202.969 15.2244C203.189 15.1203 203.361 14.9735 203.484 14.7841C203.61 14.5947 203.672 14.3722 203.672 14.1165C203.672 13.8703 203.618 13.656 203.509 13.4737C203.4 13.2914 203.246 13.1494 203.047 13.0476C202.851 12.9458 202.619 12.8949 202.351 12.8949C202.1 12.8949 201.864 12.9411 201.641 13.0334C201.421 13.1233 201.241 13.2547 201.101 13.4276C200.962 13.598 200.886 13.804 200.874 14.0455H200.022C200.036 13.6643 200.151 13.3305 200.366 13.044C200.582 12.7552 200.863 12.5303 201.211 12.3693C201.562 12.2083 201.947 12.1278 202.366 12.1278C202.815 12.1278 203.201 12.219 203.523 12.4013C203.845 12.5812 204.093 12.8191 204.265 13.1151C204.438 13.411 204.525 13.7306 204.525 14.0739C204.525 14.4834 204.417 14.8326 204.202 15.1214C203.988 15.4103 203.698 15.6103 203.331 15.7216V15.7784C203.791 15.8542 204.149 16.0495 204.407 16.3643C204.666 16.6768 204.795 17.0639 204.795 17.5256C204.795 17.9209 204.687 18.276 204.471 18.5909C204.258 18.9034 203.967 19.1496 203.598 19.3295C203.229 19.5095 202.808 19.5994 202.337 19.5994ZM208.619 19.5994C208.084 19.5994 207.628 19.4538 207.252 19.1626C206.876 18.8691 206.588 18.4441 206.389 17.8878C206.19 17.3291 206.091 16.6544 206.091 15.8636C206.091 15.0777 206.19 14.4065 206.389 13.8501C206.59 13.2914 206.879 12.8653 207.256 12.5717C207.634 12.2758 208.089 12.1278 208.619 12.1278C209.149 12.1278 209.603 12.2758 209.979 12.5717C210.358 12.8653 210.647 13.2914 210.846 13.8501C211.047 14.4065 211.148 15.0777 211.148 15.8636C211.148 16.6544 211.048 17.3291 210.849 17.8878C210.65 18.4441 210.363 18.8691 209.986 19.1626C209.61 19.4538 209.154 19.5994 208.619 19.5994ZM208.619 18.8182C209.149 18.8182 209.561 18.5625 209.855 18.0511C210.148 17.5398 210.295 16.8106 210.295 15.8636C210.295 15.2339 210.228 14.6977 210.093 14.255C209.96 13.8123 209.769 13.4749 209.518 13.2429C209.269 13.0109 208.97 12.8949 208.619 12.8949C208.094 12.8949 207.683 13.1541 207.387 13.6726C207.091 14.1887 206.943 14.919 206.943 15.8636C206.943 16.4934 207.009 17.0284 207.142 17.4688C207.274 17.9091 207.465 18.2441 207.714 18.4737C207.965 18.7034 208.266 18.8182 208.619 18.8182Z" fill="#222222"/>
<path d="M221 17.8013L217.461 14.2628L217.933 13.791L221 16.8577L224.067 13.791L224.538 14.2628L221 17.8013Z" fill="#D9D9D9"/>
<path d="M22.733 46.5H21.8523C21.8002 46.2467 21.709 46.0241 21.5788 45.8324C21.451 45.6406 21.2947 45.4796 21.1101 45.3494C20.9278 45.2169 20.7254 45.1174 20.5028 45.0511C20.2803 44.9848 20.0483 44.9517 19.8068 44.9517C19.3665 44.9517 18.9676 45.063 18.6101 45.2855C18.255 45.508 17.9721 45.8359 17.7614 46.2692C17.553 46.7024 17.4489 47.2339 17.4489 47.8636C17.4489 48.4934 17.553 49.0249 17.7614 49.4581C17.9721 49.8913 18.255 50.2192 18.6101 50.4418C18.9676 50.6643 19.3665 50.7756 19.8068 50.7756C20.0483 50.7756 20.2803 50.7424 20.5028 50.6761C20.7254 50.6098 20.9278 50.5116 21.1101 50.3814C21.2947 50.2488 21.451 50.0866 21.5788 49.8949C21.709 49.7008 21.8002 49.4782 21.8523 49.2273H22.733C22.6667 49.599 22.5459 49.9316 22.3707 50.2251C22.1955 50.5187 21.9777 50.7685 21.7173 50.9744C21.4569 51.178 21.1645 51.3331 20.8402 51.4396C20.5182 51.5462 20.1738 51.5994 19.8068 51.5994C19.1866 51.5994 18.6349 51.4479 18.152 51.1449C17.669 50.8419 17.2891 50.411 17.0121 49.8523C16.7351 49.2936 16.5966 48.6307 16.5966 47.8636C16.5966 47.0966 16.7351 46.4337 17.0121 45.875C17.2891 45.3163 17.669 44.8854 18.152 44.5824C18.6349 44.2794 19.1866 44.1278 19.8068 44.1278C20.1738 44.1278 20.5182 44.1811 20.8402 44.2876C21.1645 44.3942 21.4569 44.5504 21.7173 44.7564C21.9777 44.96 22.1955 45.2086 22.3707 45.5021C22.5459 45.7933 22.6667 46.1259 22.733 46.5ZM25.6475 51.6278C25.3019 51.6278 24.9882 51.5627 24.7065 51.4325C24.4248 51.3 24.2011 51.1094 24.0353 50.8608C23.8696 50.6098 23.7868 50.3068 23.7868 49.9517C23.7868 49.6392 23.8483 49.3859 23.9714 49.1918C24.0945 48.9953 24.2591 48.8414 24.465 48.7301C24.671 48.6188 24.8983 48.536 25.1468 48.4815C25.3978 48.4247 25.6499 48.3797 25.9032 48.3466C26.2347 48.304 26.5034 48.272 26.7093 48.2507C26.9177 48.227 27.0692 48.188 27.1639 48.1335C27.2609 48.0791 27.3095 47.9844 27.3095 47.8494V47.821C27.3095 47.4706 27.2136 47.1984 27.0218 47.0043C26.8324 46.8101 26.5448 46.7131 26.1589 46.7131C25.7588 46.7131 25.4451 46.8007 25.2179 46.9759C24.9906 47.151 24.8308 47.3381 24.7385 47.5369L23.943 47.2528C24.085 46.9214 24.2744 46.6634 24.5112 46.4787C24.7503 46.2917 25.0107 46.1615 25.2924 46.0881C25.5765 46.0123 25.8559 45.9744 26.1305 45.9744C26.3057 45.9744 26.5069 45.9957 26.7342 46.0384C26.9638 46.0786 27.1852 46.1626 27.3983 46.2905C27.6137 46.4183 27.7924 46.6113 27.9345 46.8693C28.0765 47.1274 28.1475 47.473 28.1475 47.9062V51.5H27.3095V50.7614H27.2669C27.21 50.8797 27.1154 51.0064 26.9828 51.1413C26.8502 51.2763 26.6738 51.3911 26.4537 51.4858C26.2335 51.5805 25.9648 51.6278 25.6475 51.6278ZM25.7754 50.875C26.1068 50.875 26.3862 50.8099 26.6135 50.6797C26.8431 50.5495 27.0159 50.3814 27.1319 50.1754C27.2503 49.9695 27.3095 49.7528 27.3095 49.5256V48.7585C27.274 48.8011 27.1958 48.8402 27.0751 48.8757C26.9567 48.9089 26.8194 48.9384 26.6632 48.9645C26.5093 48.9882 26.359 49.0095 26.2122 49.0284C26.0678 49.045 25.9506 49.0592 25.8606 49.071C25.6428 49.0994 25.4392 49.1456 25.2498 49.2095C25.0628 49.2711 24.9113 49.3646 24.7953 49.4901C24.6816 49.6132 24.6248 49.7812 24.6248 49.9943C24.6248 50.2855 24.7325 50.5057 24.948 50.6548C25.1658 50.8016 25.4416 50.875 25.7754 50.875ZM29.6772 51.5V46.0455H30.4869V46.8693H30.5437C30.6431 46.5994 30.823 46.3804 31.0835 46.2124C31.3439 46.0443 31.6374 45.9602 31.9641 45.9602C32.0257 45.9602 32.1026 45.9614 32.195 45.9638C32.2873 45.9661 32.3571 45.9697 32.4045 45.9744V46.8267C32.3761 46.8196 32.311 46.8089 32.2092 46.7947C32.1097 46.7782 32.0044 46.7699 31.8931 46.7699C31.628 46.7699 31.3912 46.8255 31.1829 46.9368C30.9769 47.0457 30.8136 47.1972 30.6928 47.3913C30.5745 47.5831 30.5153 47.8021 30.5153 48.0483V51.5H29.6772ZM33.3979 51.5V46.0455H34.2076V46.8693H34.2644C34.3638 46.5994 34.5437 46.3804 34.8042 46.2124C35.0646 46.0443 35.3581 45.9602 35.6848 45.9602C35.7464 45.9602 35.8233 45.9614 35.9157 45.9638C36.008 45.9661 36.0778 45.9697 36.1252 45.9744V46.8267C36.0968 46.8196 36.0317 46.8089 35.9299 46.7947C35.8304 46.7782 35.7251 46.7699 35.6138 46.7699C35.3487 46.7699 35.1119 46.8255 34.9036 46.9368C34.6976 47.0457 34.5343 47.1972 34.4135 47.3913C34.2952 47.5831 34.236 47.8021 34.236 48.0483V51.5H33.3979ZM37.1186 51.5V46.0455H37.9567V51.5H37.1186ZM37.5447 45.1364C37.3814 45.1364 37.2405 45.0807 37.1222 44.9695C37.0062 44.8582 36.9482 44.7244 36.9482 44.5682C36.9482 44.4119 37.0062 44.2782 37.1222 44.1669C37.2405 44.0556 37.3814 44 37.5447 44C37.7081 44 37.8478 44.0556 37.9638 44.1669C38.0821 44.2782 38.1413 44.4119 38.1413 44.5682C38.1413 44.7244 38.0821 44.8582 37.9638 44.9695C37.8478 45.0807 37.7081 45.1364 37.5447 45.1364ZM41.7786 51.6136C41.253 51.6136 40.7997 51.4976 40.4185 51.2656C40.0397 51.0312 39.7473 50.7045 39.5414 50.2855C39.3378 49.8641 39.236 49.3741 39.236 48.8153C39.236 48.2566 39.3378 47.7642 39.5414 47.3381C39.7473 46.9096 40.0338 46.5758 40.4007 46.3366C40.7701 46.0952 41.2009 45.9744 41.6934 45.9744C41.9775 45.9744 42.258 46.0218 42.535 46.1165C42.812 46.2112 43.0641 46.3651 43.2914 46.5781C43.5186 46.7888 43.6998 47.0682 43.8347 47.4162C43.9696 47.7642 44.0371 48.1927 44.0371 48.7017V49.0568H39.8326V48.3324H43.1848C43.1848 48.0246 43.1233 47.75 43.0002 47.5085C42.8794 47.267 42.7066 47.0765 42.4817 46.9368C42.2592 46.7971 41.9964 46.7273 41.6934 46.7273C41.3596 46.7273 41.0707 46.8101 40.8269 46.9759C40.5854 47.1392 40.3996 47.3523 40.2694 47.6151C40.1391 47.8778 40.074 48.1596 40.074 48.4602V48.9432C40.074 49.3551 40.1451 49.7043 40.2871 49.9908C40.4315 50.2749 40.6316 50.4915 40.8873 50.6406C41.1429 50.7874 41.44 50.8608 41.7786 50.8608C41.9988 50.8608 42.1976 50.83 42.3752 50.7685C42.5551 50.7045 42.7102 50.6098 42.8404 50.4844C42.9706 50.3565 43.0712 50.1979 43.1422 50.0085L43.9519 50.2358C43.8667 50.5104 43.7234 50.7519 43.5222 50.9602C43.321 51.1662 43.0724 51.3272 42.7765 51.4432C42.4805 51.5568 42.1479 51.6136 41.7786 51.6136ZM45.312 51.5V46.0455H46.1216V46.8693H46.1784C46.2779 46.5994 46.4578 46.3804 46.7182 46.2124C46.9786 46.0443 47.2722 45.9602 47.5989 45.9602C47.6605 45.9602 47.7374 45.9614 47.8297 45.9638C47.9221 45.9661 47.9919 45.9697 48.0392 45.9744V46.8267C48.0108 46.8196 47.9457 46.8089 47.8439 46.7947C47.7445 46.7782 47.6391 46.7699 47.5279 46.7699C47.2627 46.7699 47.026 46.8255 46.8176 46.9368C46.6117 47.0457 46.4483 47.1972 46.3276 47.3913C46.2092 47.5831 46.15 47.8021 46.15 48.0483V51.5H45.312Z" fill="#222222"/>
<path d="M144.881 51.5V44.2273H149.27V45.0085H145.761V47.4659H149.043V48.2472H145.761V50.7188H149.327V51.5H144.881ZM150.857 51.5V44.2273H153.315C153.885 44.2273 154.352 44.3303 154.714 44.5362C155.078 44.7398 155.348 45.0156 155.523 45.3636C155.699 45.7116 155.786 46.0999 155.786 46.5284C155.786 46.9569 155.699 47.3464 155.523 47.6967C155.351 48.0471 155.083 48.3265 154.721 48.5348C154.359 48.7408 153.895 48.8438 153.329 48.8438H151.567V48.0625H153.3C153.691 48.0625 154.005 47.995 154.241 47.8601C154.478 47.7251 154.65 47.5429 154.756 47.3132C154.865 47.0812 154.92 46.8196 154.92 46.5284C154.92 46.2372 154.865 45.9768 154.756 45.7472C154.65 45.5175 154.477 45.3376 154.238 45.2074C153.999 45.0748 153.682 45.0085 153.286 45.0085H151.738V51.5H150.857ZM156.761 51.5H155.838L158.508 44.2273H159.417L162.088 51.5H161.164L158.991 45.3778H158.934L156.761 51.5ZM157.102 48.6591H160.824V49.4403H157.102V48.6591ZM163.221 51.5V44.2273H164.101V50.7188H167.482V51.5H163.221ZM172.496 51.5V52.2812H167.951V51.5H172.496ZM174.712 44.2273V51.5H173.831V45.1506H173.789L172.013 46.3295V45.4347L173.831 44.2273H174.712Z" fill="#222222"/>
<path d="M186 49.8013L182.461 46.2628L182.933 45.791L186 48.8577L189.067 45.791L189.538 46.2628L186 49.8013Z" fill="#D9D9D9"/>
<path d="M22.733 78.5H21.8523C21.8002 78.2467 21.709 78.0241 21.5788 77.8324C21.451 77.6406 21.2947 77.4796 21.1101 77.3494C20.9278 77.2169 20.7254 77.1174 20.5028 77.0511C20.2803 76.9848 20.0483 76.9517 19.8068 76.9517C19.3665 76.9517 18.9676 77.063 18.6101 77.2855C18.255 77.508 17.9721 77.8359 17.7614 78.2692C17.553 78.7024 17.4489 79.2339 17.4489 79.8636C17.4489 80.4934 17.553 81.0249 17.7614 81.4581C17.9721 81.8913 18.255 82.2192 18.6101 82.4418C18.9676 82.6643 19.3665 82.7756 19.8068 82.7756C20.0483 82.7756 20.2803 82.7424 20.5028 82.6761C20.7254 82.6098 20.9278 82.5116 21.1101 82.3814C21.2947 82.2488 21.451 82.0866 21.5788 81.8949C21.709 81.7008 21.8002 81.4782 21.8523 81.2273H22.733C22.6667 81.599 22.5459 81.9316 22.3707 82.2251C22.1955 82.5187 21.9777 82.7685 21.7173 82.9744C21.4569 83.178 21.1645 83.3331 20.8402 83.4396C20.5182 83.5462 20.1738 83.5994 19.8068 83.5994C19.1866 83.5994 18.6349 83.4479 18.152 83.1449C17.669 82.8419 17.2891 82.411 17.0121 81.8523C16.7351 81.2936 16.5966 80.6307 16.5966 79.8636C16.5966 79.0966 16.7351 78.4337 17.0121 77.875C17.2891 77.3163 17.669 76.8854 18.152 76.5824C18.6349 76.2794 19.1866 76.1278 19.8068 76.1278C20.1738 76.1278 20.5182 76.1811 20.8402 76.2876C21.1645 76.3942 21.4569 76.5504 21.7173 76.7564C21.9777 76.96 22.1955 77.2086 22.3707 77.5021C22.5459 77.7933 22.6667 78.1259 22.733 78.5ZM25.6475 83.6278C25.3019 83.6278 24.9882 83.5627 24.7065 83.4325C24.4248 83.3 24.2011 83.1094 24.0353 82.8608C23.8696 82.6098 23.7868 82.3068 23.7868 81.9517C23.7868 81.6392 23.8483 81.3859 23.9714 81.1918C24.0945 80.9953 24.2591 80.8414 24.465 80.7301C24.671 80.6188 24.8983 80.536 25.1468 80.4815C25.3978 80.4247 25.6499 80.3797 25.9032 80.3466C26.2347 80.304 26.5034 80.272 26.7093 80.2507C26.9177 80.227 27.0692 80.188 27.1639 80.1335C27.2609 80.0791 27.3095 79.9844 27.3095 79.8494V79.821C27.3095 79.4706 27.2136 79.1984 27.0218 79.0043C26.8324 78.8101 26.5448 78.7131 26.1589 78.7131C25.7588 78.7131 25.4451 78.8007 25.2179 78.9759C24.9906 79.151 24.8308 79.3381 24.7385 79.5369L23.943 79.2528C24.085 78.9214 24.2744 78.6634 24.5112 78.4787C24.7503 78.2917 25.0107 78.1615 25.2924 78.0881C25.5765 78.0123 25.8559 77.9744 26.1305 77.9744C26.3057 77.9744 26.5069 77.9957 26.7342 78.0384C26.9638 78.0786 27.1852 78.1626 27.3983 78.2905C27.6137 78.4183 27.7924 78.6113 27.9345 78.8693C28.0765 79.1274 28.1475 79.473 28.1475 79.9062V83.5H27.3095V82.7614H27.2669C27.21 82.8797 27.1154 83.0064 26.9828 83.1413C26.8502 83.2763 26.6738 83.3911 26.4537 83.4858C26.2335 83.5805 25.9648 83.6278 25.6475 83.6278ZM25.7754 82.875C26.1068 82.875 26.3862 82.8099 26.6135 82.6797C26.8431 82.5495 27.0159 82.3814 27.1319 82.1754C27.2503 81.9695 27.3095 81.7528 27.3095 81.5256V80.7585C27.274 80.8011 27.1958 80.8402 27.0751 80.8757C26.9567 80.9089 26.8194 80.9384 26.6632 80.9645C26.5093 80.9882 26.359 81.0095 26.2122 81.0284C26.0678 81.045 25.9506 81.0592 25.8606 81.071C25.6428 81.0994 25.4392 81.1456 25.2498 81.2095C25.0628 81.2711 24.9113 81.3646 24.7953 81.4901C24.6816 81.6132 24.6248 81.7812 24.6248 81.9943C24.6248 82.2855 24.7325 82.5057 24.948 82.6548C25.1658 82.8016 25.4416 82.875 25.7754 82.875ZM29.6772 83.5V78.0455H30.4869V78.8693H30.5437C30.6431 78.5994 30.823 78.3804 31.0835 78.2124C31.3439 78.0443 31.6374 77.9602 31.9641 77.9602C32.0257 77.9602 32.1026 77.9614 32.195 77.9638C32.2873 77.9661 32.3571 77.9697 32.4045 77.9744V78.8267C32.3761 78.8196 32.311 78.8089 32.2092 78.7947C32.1097 78.7782 32.0044 78.7699 31.8931 78.7699C31.628 78.7699 31.3912 78.8255 31.1829 78.9368C30.9769 79.0457 30.8136 79.1972 30.6928 79.3913C30.5745 79.5831 30.5153 79.8021 30.5153 80.0483V83.5H29.6772ZM33.3979 83.5V78.0455H34.2076V78.8693H34.2644C34.3638 78.5994 34.5437 78.3804 34.8042 78.2124C35.0646 78.0443 35.3581 77.9602 35.6848 77.9602C35.7464 77.9602 35.8233 77.9614 35.9157 77.9638C36.008 77.9661 36.0778 77.9697 36.1252 77.9744V78.8267C36.0968 78.8196 36.0317 78.8089 35.9299 78.7947C35.8304 78.7782 35.7251 78.7699 35.6138 78.7699C35.3487 78.7699 35.1119 78.8255 34.9036 78.9368C34.6976 79.0457 34.5343 79.1972 34.4135 79.3913C34.2952 79.5831 34.236 79.8021 34.236 80.0483V83.5H33.3979ZM37.1186 83.5V78.0455H37.9567V83.5H37.1186ZM37.5447 77.1364C37.3814 77.1364 37.2405 77.0807 37.1222 76.9695C37.0062 76.8582 36.9482 76.7244 36.9482 76.5682C36.9482 76.4119 37.0062 76.2782 37.1222 76.1669C37.2405 76.0556 37.3814 76 37.5447 76C37.7081 76 37.8478 76.0556 37.9638 76.1669C38.0821 76.2782 38.1413 76.4119 38.1413 76.5682C38.1413 76.7244 38.0821 76.8582 37.9638 76.9695C37.8478 77.0807 37.7081 77.1364 37.5447 77.1364ZM41.7786 83.6136C41.253 83.6136 40.7997 83.4976 40.4185 83.2656C40.0397 83.0312 39.7473 82.7045 39.5414 82.2855C39.3378 81.8641 39.236 81.3741 39.236 80.8153C39.236 80.2566 39.3378 79.7642 39.5414 79.3381C39.7473 78.9096 40.0338 78.5758 40.4007 78.3366C40.7701 78.0952 41.2009 77.9744 41.6934 77.9744C41.9775 77.9744 42.258 78.0218 42.535 78.1165C42.812 78.2112 43.0641 78.3651 43.2914 78.5781C43.5186 78.7888 43.6998 79.0682 43.8347 79.4162C43.9696 79.7642 44.0371 80.1927 44.0371 80.7017V81.0568H39.8326V80.3324H43.1848C43.1848 80.0246 43.1233 79.75 43.0002 79.5085C42.8794 79.267 42.7066 79.0765 42.4817 78.9368C42.2592 78.7971 41.9964 78.7273 41.6934 78.7273C41.3596 78.7273 41.0707 78.8101 40.8269 78.9759C40.5854 79.1392 40.3996 79.3523 40.2694 79.6151C40.1391 79.8778 40.074 80.1596 40.074 80.4602V80.9432C40.074 81.3551 40.1451 81.7043 40.2871 81.9908C40.4315 82.2749 40.6316 82.4915 40.8873 82.6406C41.1429 82.7874 41.44 82.8608 41.7786 82.8608C41.9988 82.8608 42.1976 82.83 42.3752 82.7685C42.5551 82.7045 42.7102 82.6098 42.8404 82.4844C42.9706 82.3565 43.0712 82.1979 43.1422 82.0085L43.9519 82.2358C43.8667 82.5104 43.7234 82.7519 43.5222 82.9602C43.321 83.1662 43.0724 83.3272 42.7765 83.4432C42.4805 83.5568 42.1479 83.6136 41.7786 83.6136ZM45.312 83.5V78.0455H46.1216V78.8693H46.1784C46.2779 78.5994 46.4578 78.3804 46.7182 78.2124C46.9786 78.0443 47.2722 77.9602 47.5989 77.9602C47.6605 77.9602 47.7374 77.9614 47.8297 77.9638C47.9221 77.9661 47.9919 77.9697 48.0392 77.9744V78.8267C48.0108 78.8196 47.9457 78.8089 47.8439 78.7947C47.7445 78.7782 47.6391 78.7699 47.5279 78.7699C47.2627 78.7699 47.026 78.8255 46.8176 78.9368C46.6117 79.0457 46.4483 79.1972 46.3276 79.3913C46.2092 79.5831 46.15 79.8021 46.15 80.0483V83.5H45.312ZM55.7088 79.267L54.956 79.4801C54.9086 79.3546 54.8388 79.2327 54.7464 79.1143C54.6565 78.9936 54.5334 78.8942 54.3771 78.8161C54.2209 78.7379 54.0208 78.6989 53.777 78.6989C53.4432 78.6989 53.165 78.7758 52.9425 78.9297C52.7223 79.0812 52.6122 79.2741 52.6122 79.5085C52.6122 79.7169 52.688 79.8814 52.8395 80.0021C52.991 80.1229 53.2277 80.2235 53.5497 80.304L54.3594 80.5028C54.8471 80.6212 55.2105 80.8023 55.4496 81.0462C55.6887 81.2876 55.8082 81.599 55.8082 81.9801C55.8082 82.2926 55.7183 82.572 55.5384 82.8182C55.3608 83.0644 55.1122 83.2585 54.7926 83.4006C54.473 83.5426 54.1013 83.6136 53.6776 83.6136C53.1212 83.6136 52.6607 83.4929 52.2962 83.2514C51.9316 83.0099 51.7008 82.6572 51.6037 82.1932L52.3991 81.9943C52.4749 82.2879 52.6181 82.508 52.8288 82.6548C53.0419 82.8016 53.3201 82.875 53.6634 82.875C54.054 82.875 54.3641 82.7921 54.5938 82.6264C54.8258 82.4583 54.9418 82.2571 54.9418 82.0227C54.9418 81.8333 54.8755 81.6747 54.7429 81.5469C54.6103 81.4167 54.4067 81.3196 54.1321 81.2557L53.223 81.0426C52.7235 80.9242 52.3565 80.7408 52.1222 80.4922C51.8902 80.2412 51.7741 79.9276 51.7741 79.5511C51.7741 79.2434 51.8606 78.9711 52.0334 78.7344C52.2086 78.4976 52.4465 78.3118 52.7472 78.1768C53.0502 78.0419 53.3935 77.9744 53.777 77.9744C54.3168 77.9744 54.7405 78.0928 55.0483 78.3295C55.3584 78.5663 55.5786 78.8788 55.7088 79.267ZM57.0698 83.5V78.0455H57.9078V83.5H57.0698ZM57.4959 77.1364C57.3326 77.1364 57.1917 77.0807 57.0733 76.9695C56.9573 76.8582 56.8993 76.7244 56.8993 76.5682C56.8993 76.4119 56.9573 76.2782 57.0733 76.1669C57.1917 76.0556 57.3326 76 57.4959 76C57.6593 76 57.7989 76.0556 57.915 76.1669C58.0333 76.2782 58.0925 76.4119 58.0925 76.5682C58.0925 76.7244 58.0333 76.8582 57.915 76.9695C57.7989 77.0807 57.6593 77.1364 57.4959 77.1364ZM61.5025 83.6136C61.0479 83.6136 60.6467 83.4988 60.2987 83.2692C59.9506 83.0372 59.6784 82.7105 59.4819 82.2891C59.2854 81.8653 59.1871 81.3646 59.1871 80.7869C59.1871 80.214 59.2854 79.7169 59.4819 79.2955C59.6784 78.8741 59.9518 78.5485 60.3022 78.3189C60.6526 78.0893 61.0574 77.9744 61.5167 77.9744C61.8718 77.9744 62.1523 78.0336 62.3583 78.152C62.5666 78.268 62.7253 78.4006 62.8342 78.5497C62.9454 78.6965 63.0318 78.8172 63.0934 78.9119H63.1644V76.2273H64.0025V83.5H63.1928V82.6619H63.0934C63.0318 82.7614 62.9442 82.8868 62.8306 83.0384C62.717 83.1875 62.5548 83.3213 62.3441 83.4396C62.1334 83.5556 61.8529 83.6136 61.5025 83.6136ZM61.6161 82.8608C61.9523 82.8608 62.2364 82.7732 62.4684 82.598C62.7004 82.4205 62.8768 82.1754 62.9975 81.8629C63.1183 81.5481 63.1786 81.1847 63.1786 80.7727C63.1786 80.3655 63.1194 80.0092 63.0011 79.7038C62.8827 79.3961 62.7075 79.157 62.4755 78.9865C62.2435 78.8137 61.957 78.7273 61.6161 78.7273C61.261 78.7273 60.9651 78.8184 60.7283 79.0007C60.494 79.1806 60.3176 79.4257 60.1992 79.7358C60.0832 80.0436 60.0252 80.3892 60.0252 80.7727C60.0252 81.161 60.0844 81.5137 60.2028 81.831C60.3235 82.1458 60.5011 82.3968 60.7354 82.5838C60.9722 82.7685 61.2657 82.8608 61.6161 82.8608ZM67.9407 83.6136C67.4151 83.6136 66.9618 83.4976 66.5806 83.2656C66.2018 83.0312 65.9094 82.7045 65.7035 82.2855C65.4999 81.8641 65.3981 81.3741 65.3981 80.8153C65.3981 80.2566 65.4999 79.7642 65.7035 79.3381C65.9094 78.9096 66.1959 78.5758 66.5629 78.3366C66.9322 78.0952 67.363 77.9744 67.8555 77.9744C68.1396 77.9744 68.4201 78.0218 68.6971 78.1165C68.9741 78.2112 69.2262 78.3651 69.4535 78.5781C69.6808 78.7888 69.8619 79.0682 69.9968 79.4162C70.1317 79.7642 70.1992 80.1927 70.1992 80.7017V81.0568H65.9947V80.3324H69.3469C69.3469 80.0246 69.2854 79.75 69.1623 79.5085C69.0415 79.267 68.8687 79.0765 68.6438 78.9368C68.4213 78.7971 68.1585 78.7273 67.8555 78.7273C67.5217 78.7273 67.2328 78.8101 66.989 78.9759C66.7475 79.1392 66.5617 79.3523 66.4315 79.6151C66.3013 79.8778 66.2362 80.1596 66.2362 80.4602V80.9432C66.2362 81.3551 66.3072 81.7043 66.4492 81.9908C66.5936 82.2749 66.7937 82.4915 67.0494 82.6406C67.305 82.7874 67.6022 82.8608 67.9407 82.8608C68.1609 82.8608 68.3597 82.83 68.5373 82.7685C68.7172 82.7045 68.8723 82.6098 69.0025 82.4844C69.1327 82.3565 69.2333 82.1979 69.3043 82.0085L70.114 82.2358C70.0288 82.5104 69.8855 82.7519 69.6843 82.9602C69.4831 83.1662 69.2345 83.3272 68.9386 83.4432C68.6426 83.5568 68.31 83.6136 67.9407 83.6136Z" fill="#222222"/>
<path d="M148.858 78.0455C148.815 77.6856 148.643 77.4062 148.339 77.2074C148.036 77.0085 147.665 76.9091 147.224 76.9091C146.902 76.9091 146.621 76.9612 146.379 77.0653C146.14 77.1695 145.953 77.3127 145.818 77.495C145.686 77.6773 145.619 77.8845 145.619 78.1165C145.619 78.3106 145.665 78.4775 145.758 78.6172C145.853 78.7545 145.973 78.8693 146.12 78.9616C146.267 79.0516 146.421 79.1262 146.582 79.1854C146.743 79.2422 146.891 79.2884 147.026 79.3239L147.764 79.5227C147.954 79.5724 148.164 79.6411 148.396 79.7287C148.631 79.8163 148.854 79.9358 149.067 80.0874C149.283 80.2365 149.46 80.4283 149.6 80.6626C149.74 80.897 149.81 81.1847 149.81 81.5256C149.81 81.9186 149.707 82.2737 149.501 82.5909C149.297 82.9081 148.999 83.1603 148.606 83.3473C148.215 83.5343 147.741 83.6278 147.182 83.6278C146.661 83.6278 146.21 83.5438 145.829 83.3757C145.45 83.2076 145.152 82.9732 144.934 82.6726C144.719 82.3719 144.597 82.0227 144.568 81.625H145.477C145.501 81.8996 145.593 82.1269 145.754 82.3068C145.918 82.4844 146.124 82.617 146.372 82.7045C146.623 82.7898 146.893 82.8324 147.182 82.8324C147.518 82.8324 147.82 82.7779 148.087 82.669C148.355 82.5578 148.567 82.4039 148.723 82.2074C148.879 82.0085 148.957 81.7765 148.957 81.5114C148.957 81.2699 148.89 81.0734 148.755 80.9219C148.62 80.7704 148.442 80.6473 148.222 80.5526C148.002 80.4579 147.764 80.375 147.509 80.304L146.614 80.0483C146.045 79.8849 145.596 79.6518 145.264 79.3487C144.933 79.0457 144.767 78.6491 144.767 78.1591C144.767 77.7519 144.877 77.3968 145.097 77.0938C145.32 76.7884 145.618 76.5516 145.992 76.3835C146.369 76.2131 146.789 76.1278 147.253 76.1278C147.722 76.1278 148.138 76.2119 148.503 76.38C148.867 76.5457 149.156 76.773 149.369 77.0618C149.585 77.3506 149.698 77.6785 149.71 78.0455H148.858ZM151.982 80.2188V83.5H151.144V76.2273H151.982V78.8977H152.053C152.181 78.616 152.373 78.3923 152.628 78.2266C152.886 78.0585 153.23 77.9744 153.658 77.9744C154.03 77.9744 154.355 78.049 154.635 78.1982C154.914 78.3449 155.131 78.571 155.285 78.8764C155.441 79.1795 155.519 79.5653 155.519 80.0341V83.5H154.681V80.0909C154.681 79.6577 154.568 79.3227 154.344 79.0859C154.121 78.8468 153.812 78.7273 153.417 78.7273C153.142 78.7273 152.896 78.7853 152.678 78.9013C152.463 79.0173 152.292 79.1866 152.167 79.4091C152.044 79.6316 151.982 79.9015 151.982 80.2188ZM159.268 83.6136C158.776 83.6136 158.344 83.4964 157.972 83.2621C157.603 83.0277 157.314 82.6998 157.105 82.2784C156.9 81.857 156.797 81.3646 156.797 80.8011C156.797 80.233 156.9 79.737 157.105 79.3132C157.314 78.8894 157.603 78.5604 157.972 78.326C158.344 78.0916 158.776 77.9744 159.268 77.9744C159.761 77.9744 160.191 78.0916 160.561 78.326C160.932 78.5604 161.221 78.8894 161.427 79.3132C161.636 79.737 161.74 80.233 161.74 80.8011C161.74 81.3646 161.636 81.857 161.427 82.2784C161.221 82.6998 160.932 83.0277 160.561 83.2621C160.191 83.4964 159.761 83.6136 159.268 83.6136ZM159.268 82.8608C159.642 82.8608 159.95 82.7649 160.191 82.5732C160.433 82.3814 160.612 82.1293 160.728 81.8168C160.844 81.5043 160.902 81.1657 160.902 80.8011C160.902 80.4366 160.844 80.0968 160.728 79.782C160.612 79.4671 160.433 79.2126 160.191 79.0185C159.95 78.8243 159.642 78.7273 159.268 78.7273C158.894 78.7273 158.586 78.8243 158.345 79.0185C158.103 79.2126 157.925 79.4671 157.809 79.782C157.693 80.0968 157.635 80.4366 157.635 80.8011C157.635 81.1657 157.693 81.5043 157.809 81.8168C157.925 82.1293 158.103 82.3814 158.345 82.5732C158.586 82.7649 158.894 82.8608 159.268 82.8608ZM163.019 83.5V78.0455H163.829V78.8693H163.885C163.985 78.5994 164.165 78.3804 164.425 78.2124C164.686 78.0443 164.979 77.9602 165.306 77.9602C165.367 77.9602 165.444 77.9614 165.537 77.9638C165.629 77.9661 165.699 77.9697 165.746 77.9744V78.8267C165.718 78.8196 165.653 78.8089 165.551 78.7947C165.452 78.7782 165.346 78.7699 165.235 78.7699C164.97 78.7699 164.733 78.8255 164.525 78.9368C164.319 79.0457 164.155 79.1972 164.035 79.3913C163.916 79.5831 163.857 79.8021 163.857 80.0483V83.5H163.019ZM169.454 78.0455V78.7557H166.627V78.0455H169.454ZM167.451 76.7386H168.289V81.9375C168.289 82.1742 168.323 82.3518 168.392 82.4702C168.463 82.5862 168.553 82.6643 168.662 82.7045C168.773 82.7424 168.89 82.7614 169.013 82.7614C169.106 82.7614 169.181 82.7566 169.241 82.7472C169.3 82.7353 169.347 82.7259 169.383 82.7188L169.553 83.4716C169.496 83.4929 169.417 83.5142 169.315 83.5355C169.213 83.5592 169.084 83.571 168.928 83.571C168.691 83.571 168.459 83.5201 168.232 83.4183C168.007 83.3165 167.82 83.1615 167.671 82.9531C167.524 82.7448 167.451 82.482 167.451 82.1648V76.7386Z" fill="#222222"/>
<path d="M179 81.8013L175.461 78.2628L175.933 77.791L179 80.8577L182.067 77.791L182.538 78.2628L179 81.8013Z" fill="#D9D9D9"/>
<path d="M274.461 81C274.186 81 273.951 80.9021 273.755 80.7063C273.559 80.5104 273.461 80.275 273.461 80C273.461 79.725 273.559 79.4896 273.755 79.2938C273.951 79.0979 274.186 79 274.461 79C274.736 79 274.972 79.0979 275.168 79.2938C275.364 79.4896 275.461 79.725 275.461 80C275.461 80.275 275.364 80.5104 275.168 80.7063C274.972 80.9021 274.736 81 274.461 81ZM280 81C279.725 81 279.489 80.9021 279.294 80.7063C279.098 80.5104 279 80.275 279 80C279 79.725 279.098 79.4896 279.294 79.2938C279.489 79.0979 279.725 79 280 79C280.275 79 280.51 79.0979 280.706 79.2938C280.902 79.4896 281 79.725 281 80C281 80.275 280.902 80.5104 280.706 80.7063C280.51 80.9021 280.275 81 280 81ZM285.538 81C285.263 81 285.028 80.9021 284.832 80.7063C284.636 80.5104 284.538 80.275 284.538 80C284.538 79.725 284.636 79.4896 284.832 79.2938C285.028 79.0979 285.263 79 285.538 79C285.813 79 286.049 79.0979 286.245 79.2938C286.44 79.4896 286.538 79.725 286.538 80C286.538 80.275 286.44 80.5104 286.245 80.7063C286.049 80.9021 285.813 81 285.538 81Z" fill="#222222"/>
<path d="M20.858 110.045C20.8153 109.686 20.6425 109.406 20.3395 109.207C20.0365 109.009 19.6648 108.909 19.2244 108.909C18.9025 108.909 18.6207 108.961 18.3793 109.065C18.1402 109.17 17.9531 109.313 17.8182 109.495C17.6856 109.677 17.6193 109.884 17.6193 110.116C17.6193 110.311 17.6655 110.478 17.7578 110.617C17.8525 110.754 17.9732 110.869 18.12 110.962C18.2668 111.052 18.4207 111.126 18.5817 111.185C18.7427 111.242 18.8906 111.288 19.0256 111.324L19.7642 111.523C19.9536 111.572 20.1643 111.641 20.3963 111.729C20.6307 111.816 20.8544 111.936 21.0675 112.087C21.2829 112.237 21.4605 112.428 21.6001 112.663C21.7398 112.897 21.8097 113.185 21.8097 113.526C21.8097 113.919 21.7067 114.274 21.5007 114.591C21.2971 114.908 20.9988 115.16 20.6058 115.347C20.2152 115.534 19.7405 115.628 19.1818 115.628C18.661 115.628 18.21 115.544 17.8288 115.376C17.45 115.208 17.1518 114.973 16.9339 114.673C16.7185 114.372 16.5966 114.023 16.5682 113.625H17.4773C17.5009 113.9 17.5933 114.127 17.7543 114.307C17.9176 114.484 18.1236 114.617 18.3722 114.705C18.6231 114.79 18.893 114.832 19.1818 114.832C19.518 114.832 19.8198 114.778 20.0874 114.669C20.3549 114.558 20.5668 114.404 20.723 114.207C20.8793 114.009 20.9574 113.777 20.9574 113.511C20.9574 113.27 20.8899 113.073 20.755 112.922C20.62 112.77 20.4425 112.647 20.2223 112.553C20.0021 112.458 19.7642 112.375 19.5085 112.304L18.6136 112.048C18.0455 111.885 17.5956 111.652 17.2642 111.349C16.9328 111.046 16.767 110.649 16.767 110.159C16.767 109.752 16.8771 109.397 17.0973 109.094C17.3198 108.788 17.6181 108.552 17.9922 108.384C18.3686 108.213 18.7888 108.128 19.2528 108.128C19.7216 108.128 20.1383 108.212 20.5028 108.38C20.8674 108.546 21.1563 108.773 21.3693 109.062C21.5848 109.351 21.6984 109.679 21.7102 110.045H20.858ZM25.5162 110.045V110.756H22.6895V110.045H25.5162ZM23.5133 108.739H24.3514V113.938C24.3514 114.174 24.3857 114.352 24.4544 114.47C24.5254 114.586 24.6154 114.664 24.7243 114.705C24.8355 114.742 24.9527 114.761 25.0758 114.761C25.1681 114.761 25.2439 114.757 25.3031 114.747C25.3623 114.735 25.4096 114.726 25.4451 114.719L25.6156 115.472C25.5588 115.493 25.4795 115.514 25.3777 115.536C25.2759 115.559 25.1468 115.571 24.9906 115.571C24.7538 115.571 24.5218 115.52 24.2946 115.418C24.0697 115.317 23.8826 115.161 23.7335 114.953C23.5867 114.745 23.5133 114.482 23.5133 114.165V108.739ZM28.9341 115.614C28.4417 115.614 28.0096 115.496 27.638 115.262C27.2686 115.028 26.9798 114.7 26.7715 114.278C26.5655 113.857 26.4625 113.365 26.4625 112.801C26.4625 112.233 26.5655 111.737 26.7715 111.313C26.9798 110.889 27.2686 110.56 27.638 110.326C28.0096 110.092 28.4417 109.974 28.9341 109.974C29.4266 109.974 29.8574 110.092 30.2267 110.326C30.5984 110.56 30.8873 110.889 31.0932 111.313C31.3016 111.737 31.4057 112.233 31.4057 112.801C31.4057 113.365 31.3016 113.857 31.0932 114.278C30.8873 114.7 30.5984 115.028 30.2267 115.262C29.8574 115.496 29.4266 115.614 28.9341 115.614ZM28.9341 114.861C29.3082 114.861 29.6159 114.765 29.8574 114.573C30.0989 114.381 30.2776 114.129 30.3936 113.817C30.5096 113.504 30.5676 113.166 30.5676 112.801C30.5676 112.437 30.5096 112.097 30.3936 111.782C30.2776 111.467 30.0989 111.213 29.8574 111.018C29.6159 110.824 29.3082 110.727 28.9341 110.727C28.5601 110.727 28.2523 110.824 28.0108 111.018C27.7694 111.213 27.5906 111.467 27.4746 111.782C27.3586 112.097 27.3006 112.437 27.3006 112.801C27.3006 113.166 27.3586 113.504 27.4746 113.817C27.5906 114.129 27.7694 114.381 28.0108 114.573C28.2523 114.765 28.5601 114.861 28.9341 114.861ZM32.685 115.5V110.045H33.4947V110.869H33.5515C33.6509 110.599 33.8308 110.38 34.0913 110.212C34.3517 110.044 34.6452 109.96 34.9719 109.96C35.0335 109.96 35.1104 109.961 35.2028 109.964C35.2951 109.966 35.3649 109.97 35.4123 109.974V110.827C35.3839 110.82 35.3188 110.809 35.217 110.795C35.1175 110.778 35.0122 110.77 34.9009 110.77C34.6358 110.77 34.399 110.826 34.1907 110.937C33.9847 111.046 33.8214 111.197 33.7006 111.391C33.5823 111.583 33.5231 111.802 33.5231 112.048V115.5H32.685ZM38.0108 115.628C37.6652 115.628 37.3515 115.563 37.0698 115.433C36.7881 115.3 36.5643 115.109 36.3986 114.861C36.2329 114.61 36.15 114.307 36.15 113.952C36.15 113.639 36.2116 113.386 36.3347 113.192C36.4578 112.995 36.6223 112.841 36.8283 112.73C37.0343 112.619 37.2615 112.536 37.5101 112.482C37.7611 112.425 38.0132 112.38 38.2665 112.347C38.598 112.304 38.8667 112.272 39.0726 112.251C39.281 112.227 39.4325 112.188 39.5272 112.134C39.6242 112.079 39.6728 111.984 39.6728 111.849V111.821C39.6728 111.471 39.5769 111.198 39.3851 111.004C39.1957 110.81 38.9081 110.713 38.5222 110.713C38.1221 110.713 37.8084 110.801 37.5811 110.976C37.3539 111.151 37.1941 111.338 37.1017 111.537L36.3063 111.253C36.4483 110.921 36.6377 110.663 36.8745 110.479C37.1136 110.292 37.374 110.161 37.6557 110.088C37.9398 110.012 38.2192 109.974 38.4938 109.974C38.669 109.974 38.8702 109.996 39.0975 110.038C39.3271 110.079 39.5485 110.163 39.7615 110.29C39.977 110.418 40.1557 110.611 40.2978 110.869C40.4398 111.127 40.5108 111.473 40.5108 111.906V115.5H39.6728V114.761H39.6301C39.5733 114.88 39.4786 115.006 39.3461 115.141C39.2135 115.276 39.0371 115.391 38.8169 115.486C38.5968 115.58 38.3281 115.628 38.0108 115.628ZM38.1387 114.875C38.4701 114.875 38.7495 114.81 38.9767 114.68C39.2064 114.549 39.3792 114.381 39.4952 114.175C39.6136 113.969 39.6728 113.753 39.6728 113.526V112.759C39.6373 112.801 39.5591 112.84 39.4384 112.876C39.32 112.909 39.1827 112.938 39.0265 112.964C38.8726 112.988 38.7222 113.009 38.5755 113.028C38.431 113.045 38.3139 113.059 38.2239 113.071C38.0061 113.099 37.8025 113.146 37.6131 113.21C37.4261 113.271 37.2746 113.365 37.1586 113.49C37.0449 113.613 36.9881 113.781 36.9881 113.994C36.9881 114.286 37.0958 114.506 37.3113 114.655C37.5291 114.802 37.8049 114.875 38.1387 114.875ZM44.2422 117.659C43.8374 117.659 43.4893 117.607 43.1982 117.503C42.907 117.401 42.6643 117.266 42.4702 117.098C42.2784 116.932 42.1257 116.755 42.0121 116.565L42.6797 116.097C42.7554 116.196 42.8513 116.31 42.9673 116.438C43.0833 116.568 43.242 116.68 43.4432 116.775C43.6468 116.872 43.9131 116.92 44.2422 116.92C44.6825 116.92 45.0459 116.814 45.3324 116.601C45.6188 116.388 45.7621 116.054 45.7621 115.599V114.491H45.6911C45.6295 114.591 45.5419 114.714 45.4283 114.861C45.317 115.005 45.156 115.134 44.9453 115.248C44.737 115.359 44.4553 115.415 44.1001 115.415C43.6598 115.415 43.2644 115.311 42.9141 115.102C42.5661 114.894 42.2902 114.591 42.0866 114.193C41.8854 113.795 41.7848 113.312 41.7848 112.744C41.7848 112.186 41.883 111.699 42.0795 111.285C42.276 110.868 42.5495 110.546 42.8999 110.319C43.2502 110.089 43.6551 109.974 44.1143 109.974C44.4695 109.974 44.7512 110.034 44.9595 110.152C45.1702 110.268 45.3312 110.401 45.4425 110.55C45.5561 110.696 45.6437 110.817 45.7053 110.912H45.7905V110.045H46.6001V115.656C46.6001 116.125 46.4936 116.506 46.2805 116.8C46.0698 117.096 45.7857 117.312 45.4283 117.45C45.0732 117.589 44.6778 117.659 44.2422 117.659ZM44.2138 114.662C44.55 114.662 44.834 114.585 45.0661 114.431C45.2981 114.277 45.4744 114.056 45.5952 113.767C45.7159 113.478 45.7763 113.133 45.7763 112.73C45.7763 112.337 45.7171 111.99 45.5987 111.69C45.4804 111.389 45.3052 111.153 45.0732 110.983C44.8411 110.812 44.5547 110.727 44.2138 110.727C43.8587 110.727 43.5627 110.817 43.326 110.997C43.0916 111.177 42.9152 111.419 42.7969 111.722C42.6809 112.025 42.6229 112.361 42.6229 112.73C42.6229 113.109 42.6821 113.444 42.8004 113.735C42.9212 114.024 43.0987 114.251 43.3331 114.417C43.5698 114.58 43.8634 114.662 44.2138 114.662ZM50.4212 115.614C49.8956 115.614 49.4422 115.498 49.0611 115.266C48.6823 115.031 48.3899 114.705 48.1839 114.286C47.9804 113.864 47.8786 113.374 47.8786 112.815C47.8786 112.257 47.9804 111.764 48.1839 111.338C48.3899 110.91 48.6764 110.576 49.0433 110.337C49.4126 110.095 49.8435 109.974 50.3359 109.974C50.62 109.974 50.9006 110.022 51.1776 110.116C51.4545 110.211 51.7067 110.365 51.9339 110.578C52.1612 110.789 52.3423 111.068 52.4773 111.416C52.6122 111.764 52.6797 112.193 52.6797 112.702V113.057H48.4751V112.332H51.8274C51.8274 112.025 51.7659 111.75 51.6428 111.509C51.522 111.267 51.3492 111.076 51.1243 110.937C50.9018 110.797 50.639 110.727 50.3359 110.727C50.0021 110.727 49.7133 110.81 49.4695 110.976C49.228 111.139 49.0421 111.352 48.9119 111.615C48.7817 111.878 48.7166 112.16 48.7166 112.46V112.943C48.7166 113.355 48.7876 113.704 48.9297 113.991C49.0741 114.275 49.2741 114.491 49.5298 114.641C49.7855 114.787 50.0826 114.861 50.4212 114.861C50.6413 114.861 50.8402 114.83 51.0178 114.768C51.1977 114.705 51.3527 114.61 51.483 114.484C51.6132 114.357 51.7138 114.198 51.7848 114.009L52.5945 114.236C52.5092 114.51 52.366 114.752 52.1648 114.96C51.9635 115.166 51.715 115.327 51.419 115.443C51.1231 115.557 50.7905 115.614 50.4212 115.614ZM59.1392 110.045V110.756H56.3125V110.045H59.1392ZM57.1364 108.739H57.9744V113.938C57.9744 114.174 58.0088 114.352 58.0774 114.47C58.1484 114.586 58.2384 114.664 58.3473 114.705C58.4586 114.742 58.5758 114.761 58.6989 114.761C58.7912 114.761 58.867 114.757 58.9261 114.747C58.9853 114.735 59.0327 114.726 59.0682 114.719L59.2386 115.472C59.1818 115.493 59.1025 115.514 59.0007 115.536C58.8989 115.559 58.7699 115.571 58.6136 115.571C58.3769 115.571 58.1449 115.52 57.9176 115.418C57.6927 115.317 57.5057 115.161 57.3565 114.953C57.2098 114.745 57.1364 114.482 57.1364 114.165V108.739ZM60.9396 117.545C60.7976 117.545 60.6709 117.534 60.5597 117.51C60.4484 117.489 60.3714 117.467 60.3288 117.446L60.5419 116.707C60.7455 116.759 60.9254 116.778 61.0817 116.764C61.2379 116.75 61.3764 116.68 61.4972 116.555C61.6203 116.432 61.7327 116.232 61.8345 115.955L61.9908 115.528L59.9737 110.045H60.8828L62.3885 114.392H62.4453L63.951 110.045H64.8601L62.5447 116.295C62.4406 116.577 62.3116 116.81 62.1577 116.995C62.0038 117.182 61.825 117.321 61.6214 117.411C61.4202 117.5 61.1929 117.545 60.9396 117.545ZM65.9663 117.545V110.045H66.7759V110.912H66.8754C66.9369 110.817 67.0221 110.696 67.131 110.55C67.2423 110.401 67.4009 110.268 67.6069 110.152C67.8152 110.034 68.0969 109.974 68.4521 109.974C68.9113 109.974 69.3162 110.089 69.6665 110.319C70.0169 110.549 70.2904 110.874 70.4869 111.295C70.6834 111.717 70.7816 112.214 70.7816 112.787C70.7816 113.365 70.6834 113.865 70.4869 114.289C70.2904 114.71 70.0181 115.037 69.6701 115.269C69.3221 115.499 68.9208 115.614 68.4663 115.614C68.1159 115.614 67.8353 115.556 67.6246 115.44C67.4139 115.321 67.2518 115.187 67.1381 115.038C67.0245 114.887 66.9369 114.761 66.8754 114.662H66.8043V117.545H65.9663ZM66.7901 112.773C66.7901 113.185 66.8505 113.548 66.9712 113.863C67.092 114.175 67.2683 114.42 67.5004 114.598C67.7324 114.773 68.0165 114.861 68.3526 114.861C68.703 114.861 68.9954 114.768 69.2298 114.584C69.4665 114.397 69.6441 114.146 69.7624 113.831C69.8832 113.514 69.9435 113.161 69.9435 112.773C69.9435 112.389 69.8844 112.044 69.766 111.736C69.65 111.426 69.4736 111.181 69.2369 111.001C69.0025 110.818 68.7077 110.727 68.3526 110.727C68.0117 110.727 67.7253 110.814 67.4933 110.987C67.2612 111.157 67.0861 111.396 66.9677 111.704C66.8493 112.009 66.7901 112.366 66.7901 112.773ZM74.3469 115.614C73.8214 115.614 73.368 115.498 72.9869 115.266C72.6081 115.031 72.3157 114.705 72.1097 114.286C71.9061 113.864 71.8043 113.374 71.8043 112.815C71.8043 112.257 71.9061 111.764 72.1097 111.338C72.3157 110.91 72.6022 110.576 72.9691 110.337C73.3384 110.095 73.7693 109.974 74.2617 109.974C74.5458 109.974 74.8263 110.022 75.1033 110.116C75.3803 110.211 75.6325 110.365 75.8597 110.578C76.087 110.789 76.2681 111.068 76.4031 111.416C76.538 111.764 76.6055 112.193 76.6055 112.702V113.057H72.4009V112.332H75.7532C75.7532 112.025 75.6916 111.75 75.5685 111.509C75.4478 111.267 75.275 111.076 75.0501 110.937C74.8275 110.797 74.5647 110.727 74.2617 110.727C73.9279 110.727 73.6391 110.81 73.3952 110.976C73.1538 111.139 72.9679 111.352 72.8377 111.615C72.7075 111.878 72.6424 112.16 72.6424 112.46V112.943C72.6424 113.355 72.7134 113.704 72.8555 113.991C72.9999 114.275 73.1999 114.491 73.4556 114.641C73.7113 114.787 74.0084 114.861 74.3469 114.861C74.5671 114.861 74.766 114.83 74.9435 114.768C75.1235 114.705 75.2785 114.61 75.4087 114.484C75.5389 114.357 75.6396 114.198 75.7106 114.009L76.5202 114.236C76.435 114.51 76.2918 114.752 76.0906 114.96C75.8893 115.166 75.6407 115.327 75.3448 115.443C75.0489 115.557 74.7163 115.614 74.3469 115.614Z" fill="#222222"/>
<path d="M148.858 110.045C148.815 109.686 148.643 109.406 148.339 109.207C148.036 109.009 147.665 108.909 147.224 108.909C146.902 108.909 146.621 108.961 146.379 109.065C146.14 109.17 145.953 109.313 145.818 109.495C145.686 109.677 145.619 109.884 145.619 110.116C145.619 110.311 145.665 110.478 145.758 110.617C145.853 110.754 145.973 110.869 146.12 110.962C146.267 111.052 146.421 111.126 146.582 111.185C146.743 111.242 146.891 111.288 147.026 111.324L147.764 111.523C147.954 111.572 148.164 111.641 148.396 111.729C148.631 111.816 148.854 111.936 149.067 112.087C149.283 112.237 149.46 112.428 149.6 112.663C149.74 112.897 149.81 113.185 149.81 113.526C149.81 113.919 149.707 114.274 149.501 114.591C149.297 114.908 148.999 115.16 148.606 115.347C148.215 115.534 147.741 115.628 147.182 115.628C146.661 115.628 146.21 115.544 145.829 115.376C145.45 115.208 145.152 114.973 144.934 114.673C144.719 114.372 144.597 114.023 144.568 113.625H145.477C145.501 113.9 145.593 114.127 145.754 114.307C145.918 114.484 146.124 114.617 146.372 114.705C146.623 114.79 146.893 114.832 147.182 114.832C147.518 114.832 147.82 114.778 148.087 114.669C148.355 114.558 148.567 114.404 148.723 114.207C148.879 114.009 148.957 113.777 148.957 113.511C148.957 113.27 148.89 113.073 148.755 112.922C148.62 112.77 148.442 112.647 148.222 112.553C148.002 112.458 147.764 112.375 147.509 112.304L146.614 112.048C146.045 111.885 145.596 111.652 145.264 111.349C144.933 111.046 144.767 110.649 144.767 110.159C144.767 109.752 144.877 109.397 145.097 109.094C145.32 108.788 145.618 108.552 145.992 108.384C146.369 108.213 146.789 108.128 147.253 108.128C147.722 108.128 148.138 108.212 148.503 108.38C148.867 108.546 149.156 108.773 149.369 109.062C149.585 109.351 149.698 109.679 149.71 110.045H148.858ZM151.144 115.5V110.045H151.982V115.5H151.144ZM151.57 109.136C151.407 109.136 151.266 109.081 151.148 108.969C151.032 108.858 150.974 108.724 150.974 108.568C150.974 108.412 151.032 108.278 151.148 108.167C151.266 108.056 151.407 108 151.57 108C151.733 108 151.873 108.056 151.989 108.167C152.108 108.278 152.167 108.412 152.167 108.568C152.167 108.724 152.108 108.858 151.989 108.969C151.873 109.081 151.733 109.136 151.57 109.136ZM154.355 112.219V115.5H153.517V110.045H154.327V110.898H154.398C154.526 110.621 154.72 110.398 154.98 110.23C155.241 110.06 155.577 109.974 155.989 109.974C156.358 109.974 156.681 110.05 156.958 110.202C157.235 110.351 157.451 110.578 157.604 110.884C157.758 111.187 157.835 111.57 157.835 112.034V115.5H156.997V112.091C156.997 111.662 156.886 111.329 156.663 111.089C156.441 110.848 156.135 110.727 155.747 110.727C155.48 110.727 155.241 110.785 155.03 110.901C154.821 111.017 154.657 111.187 154.536 111.409C154.415 111.632 154.355 111.902 154.355 112.219ZM161.568 117.659C161.164 117.659 160.816 117.607 160.524 117.503C160.233 117.401 159.99 117.266 159.796 117.098C159.605 116.932 159.452 116.755 159.338 116.565L160.006 116.097C160.082 116.196 160.177 116.31 160.294 116.438C160.41 116.568 160.568 116.68 160.769 116.775C160.973 116.872 161.239 116.92 161.568 116.92C162.009 116.92 162.372 116.814 162.659 116.601C162.945 116.388 163.088 116.054 163.088 115.599V114.491H163.017C162.956 114.591 162.868 114.714 162.754 114.861C162.643 115.005 162.482 115.134 162.271 115.248C162.063 115.359 161.781 115.415 161.426 115.415C160.986 115.415 160.591 115.311 160.24 115.102C159.892 114.894 159.616 114.591 159.413 114.193C159.212 113.795 159.111 113.312 159.111 112.744C159.111 112.186 159.209 111.699 159.406 111.285C159.602 110.868 159.876 110.546 160.226 110.319C160.576 110.089 160.981 109.974 161.441 109.974C161.796 109.974 162.077 110.034 162.286 110.152C162.496 110.268 162.657 110.401 162.769 110.55C162.882 110.696 162.97 110.817 163.031 110.912H163.117V110.045H163.926V115.656C163.926 116.125 163.82 116.506 163.607 116.8C163.396 117.096 163.112 117.312 162.754 117.45C162.399 117.589 162.004 117.659 161.568 117.659ZM161.54 114.662C161.876 114.662 162.16 114.585 162.392 114.431C162.624 114.277 162.801 114.056 162.921 113.767C163.042 113.478 163.102 113.133 163.102 112.73C163.102 112.337 163.043 111.99 162.925 111.69C162.807 111.389 162.631 111.153 162.399 110.983C162.167 110.812 161.881 110.727 161.54 110.727C161.185 110.727 160.889 110.817 160.652 110.997C160.418 111.177 160.241 111.419 160.123 111.722C160.007 112.025 159.949 112.361 159.949 112.73C159.949 113.109 160.008 113.444 160.127 113.735C160.247 114.024 160.425 114.251 160.659 114.417C160.896 114.58 161.19 114.662 161.54 114.662ZM166.298 108.227V115.5H165.46V108.227H166.298ZM170.12 115.614C169.595 115.614 169.141 115.498 168.76 115.266C168.382 115.031 168.089 114.705 167.883 114.286C167.68 113.864 167.578 113.374 167.578 112.815C167.578 112.257 167.68 111.764 167.883 111.338C168.089 110.91 168.376 110.576 168.743 110.337C169.112 110.095 169.543 109.974 170.035 109.974C170.319 109.974 170.6 110.022 170.877 110.116C171.154 110.211 171.406 110.365 171.633 110.578C171.86 110.789 172.042 111.068 172.176 111.416C172.311 111.764 172.379 112.193 172.379 112.702V113.057H168.174V112.332H171.527C171.527 112.025 171.465 111.75 171.342 111.509C171.221 111.267 171.048 111.076 170.824 110.937C170.601 110.797 170.338 110.727 170.035 110.727C169.701 110.727 169.413 110.81 169.169 110.976C168.927 111.139 168.741 111.352 168.611 111.615C168.481 111.878 168.416 112.16 168.416 112.46V112.943C168.416 113.355 168.487 113.704 168.629 113.991C168.773 114.275 168.973 114.491 169.229 114.641C169.485 114.787 169.782 114.861 170.12 114.861C170.341 114.861 170.539 114.83 170.717 114.768C170.897 114.705 171.052 114.61 171.182 114.484C171.312 114.357 171.413 114.198 171.484 114.009L172.294 114.236C172.208 114.51 172.065 114.752 171.864 114.96C171.663 115.166 171.414 115.327 171.118 115.443C170.822 115.557 170.49 115.614 170.12 115.614Z" fill="#222222"/>
<path d="M182 113.801L178.461 110.263L178.933 109.791L182 112.858L185.067 109.791L185.538 110.263L182 113.801Z" fill="#D9D9D9"/>
<path d="M16.8807 147.5V140.227H17.7614V146.719H21.142V147.5H16.8807ZM24.608 147.614C24.1155 147.614 23.6835 147.496 23.3118 147.262C22.9425 147.028 22.6536 146.7 22.4453 146.278C22.2393 145.857 22.1364 145.365 22.1364 144.801C22.1364 144.233 22.2393 143.737 22.4453 143.313C22.6536 142.889 22.9425 142.56 23.3118 142.326C23.6835 142.092 24.1155 141.974 24.608 141.974C25.1004 141.974 25.5313 142.092 25.9006 142.326C26.2723 142.56 26.5611 142.889 26.767 143.313C26.9754 143.737 27.0795 144.233 27.0795 144.801C27.0795 145.365 26.9754 145.857 26.767 146.278C26.5611 146.7 26.2723 147.028 25.9006 147.262C25.5313 147.496 25.1004 147.614 24.608 147.614ZM24.608 146.861C24.982 146.861 25.2898 146.765 25.5312 146.573C25.7727 146.381 25.9515 146.129 26.0675 145.817C26.1835 145.504 26.2415 145.166 26.2415 144.801C26.2415 144.437 26.1835 144.097 26.0675 143.782C25.9515 143.467 25.7727 143.213 25.5312 143.018C25.2898 142.824 24.982 142.727 24.608 142.727C24.2339 142.727 23.9261 142.824 23.6847 143.018C23.4432 143.213 23.2644 143.467 23.1484 143.782C23.0324 144.097 22.9744 144.437 22.9744 144.801C22.9744 145.166 23.0324 145.504 23.1484 145.817C23.2644 146.129 23.4432 146.381 23.6847 146.573C23.9261 146.765 24.2339 146.861 24.608 146.861ZM29.964 147.628C29.6183 147.628 29.3046 147.563 29.0229 147.433C28.7412 147.3 28.5175 147.109 28.3517 146.861C28.186 146.61 28.1032 146.307 28.1032 145.952C28.1032 145.639 28.1647 145.386 28.2878 145.192C28.4109 144.995 28.5755 144.841 28.7814 144.73C28.9874 144.619 29.2147 144.536 29.4632 144.482C29.7142 144.425 29.9663 144.38 30.2196 144.347C30.5511 144.304 30.8198 144.272 31.0257 144.251C31.2341 144.227 31.3856 144.188 31.4803 144.134C31.5774 144.079 31.6259 143.984 31.6259 143.849V143.821C31.6259 143.471 31.53 143.198 31.3382 143.004C31.1489 142.81 30.8612 142.713 30.4753 142.713C30.0752 142.713 29.7615 142.801 29.5343 142.976C29.307 143.151 29.1472 143.338 29.0549 143.537L28.2594 143.253C28.4015 142.921 28.5908 142.663 28.8276 142.479C29.0667 142.292 29.3271 142.161 29.6088 142.088C29.8929 142.012 30.1723 141.974 30.4469 141.974C30.6221 141.974 30.8233 141.996 31.0506 142.038C31.2802 142.079 31.5016 142.163 31.7147 142.29C31.9301 142.418 32.1088 142.611 32.2509 142.869C32.3929 143.127 32.464 143.473 32.464 143.906V147.5H31.6259V146.761H31.5833C31.5265 146.88 31.4318 147.006 31.2992 147.141C31.1666 147.276 30.9902 147.391 30.7701 147.486C30.5499 147.58 30.2812 147.628 29.964 147.628ZM30.0918 146.875C30.4232 146.875 30.7026 146.81 30.9299 146.68C31.1595 146.549 31.3323 146.381 31.4483 146.175C31.5667 145.969 31.6259 145.753 31.6259 145.526V144.759C31.5904 144.801 31.5123 144.84 31.3915 144.876C31.2731 144.909 31.1358 144.938 30.9796 144.964C30.8257 144.988 30.6754 145.009 30.5286 145.028C30.3842 145.045 30.267 145.059 30.177 145.071C29.9592 145.099 29.7556 145.146 29.5662 145.21C29.3792 145.271 29.2277 145.365 29.1117 145.49C28.998 145.613 28.9412 145.781 28.9412 145.994C28.9412 146.286 29.0489 146.506 29.2644 146.655C29.4822 146.802 29.758 146.875 30.0918 146.875ZM36.0533 147.614C35.5987 147.614 35.1974 147.499 34.8494 147.269C34.5014 147.037 34.2292 146.71 34.0327 146.289C33.8362 145.865 33.7379 145.365 33.7379 144.787C33.7379 144.214 33.8362 143.717 34.0327 143.295C34.2292 142.874 34.5026 142.549 34.853 142.319C35.2034 142.089 35.6082 141.974 36.0675 141.974C36.4226 141.974 36.7031 142.034 36.9091 142.152C37.1174 142.268 37.276 142.401 37.3849 142.55C37.4962 142.696 37.5826 142.817 37.6442 142.912H37.7152V140.227H38.5533V147.5H37.7436V146.662H37.6442C37.5826 146.761 37.495 146.887 37.3814 147.038C37.2678 147.187 37.1056 147.321 36.8949 147.44C36.6842 147.556 36.4036 147.614 36.0533 147.614ZM36.1669 146.861C36.5031 146.861 36.7872 146.773 37.0192 146.598C37.2512 146.42 37.4276 146.175 37.5483 145.863C37.669 145.548 37.7294 145.185 37.7294 144.773C37.7294 144.366 37.6702 144.009 37.5518 143.704C37.4335 143.396 37.2583 143.157 37.0263 142.987C36.7943 142.814 36.5078 142.727 36.1669 142.727C35.8118 142.727 35.5159 142.818 35.2791 143.001C35.0447 143.181 34.8684 143.426 34.75 143.736C34.634 144.044 34.576 144.389 34.576 144.773C34.576 145.161 34.6352 145.514 34.7536 145.831C34.8743 146.146 35.0518 146.397 35.2862 146.584C35.523 146.768 35.8165 146.861 36.1669 146.861ZM45.304 147.614C44.7784 147.614 44.325 147.498 43.9439 147.266C43.5651 147.031 43.2727 146.705 43.0668 146.286C42.8632 145.864 42.7614 145.374 42.7614 144.815C42.7614 144.257 42.8632 143.764 43.0668 143.338C43.2727 142.91 43.5592 142.576 43.9261 142.337C44.2955 142.095 44.7263 141.974 45.2188 141.974C45.5028 141.974 45.7834 142.022 46.0604 142.116C46.3374 142.211 46.5895 142.365 46.8168 142.578C47.044 142.789 47.2251 143.068 47.3601 143.416C47.495 143.764 47.5625 144.193 47.5625 144.702V145.057H43.358V144.332H46.7102C46.7102 144.025 46.6487 143.75 46.5256 143.509C46.4048 143.267 46.232 143.076 46.0071 142.937C45.7846 142.797 45.5218 142.727 45.2188 142.727C44.8849 142.727 44.5961 142.81 44.3523 142.976C44.1108 143.139 43.925 143.352 43.7947 143.615C43.6645 143.878 43.5994 144.16 43.5994 144.46V144.943C43.5994 145.355 43.6705 145.704 43.8125 145.991C43.9569 146.275 44.157 146.491 44.4126 146.641C44.6683 146.787 44.9654 146.861 45.304 146.861C45.5241 146.861 45.723 146.83 45.9006 146.768C46.0805 146.705 46.2356 146.61 46.3658 146.484C46.496 146.357 46.5966 146.198 46.6676 146.009L47.4773 146.236C47.392 146.51 47.2488 146.752 47.0476 146.96C46.8464 147.166 46.5978 147.327 46.3018 147.443C46.0059 147.557 45.6733 147.614 45.304 147.614ZM49.6754 140.227V147.5H48.8374V140.227H49.6754ZM53.4973 147.614C52.9718 147.614 52.5184 147.498 52.1373 147.266C51.7585 147.031 51.4661 146.705 51.2601 146.286C51.0565 145.864 50.9547 145.374 50.9547 144.815C50.9547 144.257 51.0565 143.764 51.2601 143.338C51.4661 142.91 51.7525 142.576 52.1195 142.337C52.4888 142.095 52.9197 141.974 53.4121 141.974C53.6962 141.974 53.9767 142.022 54.2537 142.116C54.5307 142.211 54.7828 142.365 55.0101 142.578C55.2374 142.789 55.4185 143.068 55.5534 143.416C55.6884 143.764 55.7559 144.193 55.7559 144.702V145.057H51.5513V144.332H54.9036C54.9036 144.025 54.842 143.75 54.7189 143.509C54.5982 143.267 54.4254 143.076 54.2005 142.937C53.9779 142.797 53.7151 142.727 53.4121 142.727C53.0783 142.727 52.7895 142.81 52.5456 142.976C52.3042 143.139 52.1183 143.352 51.9881 143.615C51.8579 143.878 51.7928 144.16 51.7928 144.46V144.943C51.7928 145.355 51.8638 145.704 52.0059 145.991C52.1503 146.275 52.3503 146.491 52.606 146.641C52.8617 146.787 53.1588 146.861 53.4973 146.861C53.7175 146.861 53.9164 146.83 54.0939 146.768C54.2739 146.705 54.4289 146.61 54.5591 146.484C54.6893 146.357 54.79 146.198 54.861 146.009L55.6706 146.236C55.5854 146.51 55.4422 146.752 55.2409 146.96C55.0397 147.166 54.7911 147.327 54.4952 147.443C54.1993 147.557 53.8667 147.614 53.4973 147.614ZM61.3249 142.045L59.3079 147.5H58.4556L56.4386 142.045H57.3477L58.8533 146.392H58.9102L60.4158 142.045H61.3249ZM63.8702 147.628C63.5246 147.628 63.2109 147.563 62.9292 147.433C62.6474 147.3 62.4237 147.109 62.258 146.861C62.0923 146.61 62.0094 146.307 62.0094 145.952C62.0094 145.639 62.071 145.386 62.1941 145.192C62.3172 144.995 62.4817 144.841 62.6877 144.73C62.8936 144.619 63.1209 144.536 63.3695 144.482C63.6204 144.425 63.8726 144.38 64.1259 144.347C64.4573 144.304 64.726 144.272 64.932 144.251C65.1403 144.227 65.2918 144.188 65.3865 144.134C65.4836 144.079 65.5321 143.984 65.5321 143.849V143.821C65.5321 143.471 65.4363 143.198 65.2445 143.004C65.0551 142.81 64.7675 142.713 64.3816 142.713C63.9815 142.713 63.6678 142.801 63.4405 142.976C63.2132 143.151 63.0534 143.338 62.9611 143.537L62.1657 143.253C62.3077 142.921 62.4971 142.663 62.7338 142.479C62.973 142.292 63.2334 142.161 63.5151 142.088C63.7992 142.012 64.0785 141.974 64.3532 141.974C64.5283 141.974 64.7296 141.996 64.9569 142.038C65.1865 142.079 65.4078 142.163 65.6209 142.29C65.8364 142.418 66.0151 142.611 66.1571 142.869C66.2992 143.127 66.3702 143.473 66.3702 143.906V147.5H65.5321V146.761H65.4895C65.4327 146.88 65.338 147.006 65.2054 147.141C65.0729 147.276 64.8965 147.391 64.6763 147.486C64.4561 147.58 64.1874 147.628 63.8702 147.628ZM63.998 146.875C64.3295 146.875 64.6088 146.81 64.8361 146.68C65.0658 146.549 65.2386 146.381 65.3546 146.175C65.473 145.969 65.5321 145.753 65.5321 145.526V144.759C65.4966 144.801 65.4185 144.84 65.2978 144.876C65.1794 144.909 65.0421 144.938 64.8858 144.964C64.7319 144.988 64.5816 145.009 64.4348 145.028C64.2904 145.045 64.1732 145.059 64.0833 145.071C63.8655 145.099 63.6619 145.146 63.4725 145.21C63.2855 145.271 63.1339 145.365 63.0179 145.49C62.9043 145.613 62.8475 145.781 62.8475 145.994C62.8475 146.286 62.9552 146.506 63.1706 146.655C63.3884 146.802 63.6642 146.875 63.998 146.875ZM70.272 142.045V142.756H67.4453V142.045H70.272ZM68.2692 140.739H69.1072V145.938C69.1072 146.174 69.1416 146.352 69.2102 146.47C69.2813 146.586 69.3712 146.664 69.4801 146.705C69.5914 146.742 69.7086 146.761 69.8317 146.761C69.924 146.761 69.9998 146.757 70.0589 146.747C70.1181 146.735 70.1655 146.726 70.201 146.719L70.3714 147.472C70.3146 147.493 70.2353 147.514 70.1335 147.536C70.0317 147.559 69.9027 147.571 69.7464 147.571C69.5097 147.571 69.2777 147.52 69.0504 147.418C68.8255 147.317 68.6385 147.161 68.4893 146.953C68.3426 146.745 68.2692 146.482 68.2692 146.165V140.739ZM71.5327 147.5V142.045H72.3707V147.5H71.5327ZM71.9588 141.136C71.7955 141.136 71.6546 141.081 71.5362 140.969C71.4202 140.858 71.3622 140.724 71.3622 140.568C71.3622 140.412 71.4202 140.278 71.5362 140.167C71.6546 140.056 71.7955 140 71.9588 140C72.1222 140 72.2618 140.056 72.3778 140.167C72.4962 140.278 72.5554 140.412 72.5554 140.568C72.5554 140.724 72.4962 140.858 72.3778 140.969C72.2618 141.081 72.1222 141.136 71.9588 141.136ZM76.1216 147.614C75.6292 147.614 75.1971 147.496 74.8255 147.262C74.4561 147.028 74.1673 146.7 73.959 146.278C73.753 145.857 73.65 145.365 73.65 144.801C73.65 144.233 73.753 143.737 73.959 143.313C74.1673 142.889 74.4561 142.56 74.8255 142.326C75.1971 142.092 75.6292 141.974 76.1216 141.974C76.6141 141.974 77.0449 142.092 77.4142 142.326C77.7859 142.56 78.0748 142.889 78.2807 143.313C78.4891 143.737 78.5932 144.233 78.5932 144.801C78.5932 145.365 78.4891 145.857 78.2807 146.278C78.0748 146.7 77.7859 147.028 77.4142 147.262C77.0449 147.496 76.6141 147.614 76.1216 147.614ZM76.1216 146.861C76.4957 146.861 76.8034 146.765 77.0449 146.573C77.2864 146.381 77.4651 146.129 77.5811 145.817C77.6971 145.504 77.7551 145.166 77.7551 144.801C77.7551 144.437 77.6971 144.097 77.5811 143.782C77.4651 143.467 77.2864 143.213 77.0449 143.018C76.8034 142.824 76.4957 142.727 76.1216 142.727C75.7476 142.727 75.4398 142.824 75.1983 143.018C74.9569 143.213 74.7781 143.467 74.6621 143.782C74.5461 144.097 74.4881 144.437 74.4881 144.801C74.4881 145.166 74.5461 145.504 74.6621 145.817C74.7781 146.129 74.9569 146.381 75.1983 146.573C75.4398 146.765 75.7476 146.861 76.1216 146.861ZM80.7106 144.219V147.5H79.8725V142.045H80.6822V142.898H80.7532C80.881 142.621 81.0752 142.398 81.3356 142.23C81.596 142.06 81.9322 141.974 82.3441 141.974C82.7134 141.974 83.0366 142.05 83.3136 142.202C83.5906 142.351 83.806 142.578 83.9599 142.884C84.1138 143.187 84.1907 143.57 84.1907 144.034V147.5H83.3526V144.091C83.3526 143.662 83.2414 143.329 83.0188 143.089C82.7963 142.848 82.4909 142.727 82.1026 142.727C81.8351 142.727 81.596 142.785 81.3853 142.901C81.177 143.017 81.0124 143.187 80.8917 143.409C80.771 143.632 80.7106 143.902 80.7106 144.219Z" fill="#222222"/>
<path d="M144.753 147.5V146.861L147.153 144.233C147.435 143.925 147.667 143.658 147.849 143.43C148.032 143.201 148.167 142.985 148.254 142.784C148.344 142.58 148.389 142.367 148.389 142.145C148.389 141.889 148.328 141.668 148.205 141.481C148.084 141.294 147.918 141.149 147.707 141.048C147.497 140.946 147.26 140.895 146.997 140.895C146.718 140.895 146.474 140.953 146.266 141.069C146.06 141.183 145.9 141.342 145.786 141.548C145.675 141.754 145.619 141.996 145.619 142.273H144.781C144.781 141.847 144.879 141.473 145.076 141.151C145.272 140.829 145.54 140.578 145.879 140.398C146.219 140.218 146.602 140.128 147.026 140.128C147.452 140.128 147.829 140.218 148.158 140.398C148.487 140.578 148.746 140.82 148.933 141.126C149.12 141.431 149.213 141.771 149.213 142.145C149.213 142.412 149.165 142.674 149.067 142.93C148.973 143.183 148.807 143.466 148.57 143.778C148.336 144.089 148.01 144.467 147.594 144.915L145.96 146.662V146.719H149.341V147.5H144.753ZM153.18 147.599C152.645 147.599 152.189 147.454 151.812 147.163C151.436 146.869 151.148 146.444 150.95 145.888C150.751 145.329 150.651 144.654 150.651 143.864C150.651 143.078 150.751 142.406 150.95 141.85C151.151 141.291 151.44 140.865 151.816 140.572C152.195 140.276 152.649 140.128 153.18 140.128C153.71 140.128 154.163 140.276 154.54 140.572C154.919 140.865 155.207 141.291 155.406 141.85C155.607 142.406 155.708 143.078 155.708 143.864C155.708 144.654 155.609 145.329 155.41 145.888C155.211 146.444 154.923 146.869 154.547 147.163C154.17 147.454 153.715 147.599 153.18 147.599ZM153.18 146.818C153.71 146.818 154.122 146.562 154.415 146.051C154.709 145.54 154.856 144.811 154.856 143.864C154.856 143.234 154.788 142.698 154.653 142.255C154.521 141.812 154.329 141.475 154.078 141.243C153.83 141.011 153.53 140.895 153.18 140.895C152.654 140.895 152.243 141.154 151.947 141.673C151.652 142.189 151.504 142.919 151.504 143.864C151.504 144.493 151.57 145.028 151.702 145.469C151.835 145.909 152.026 146.244 152.274 146.474C152.525 146.703 152.827 146.818 153.18 146.818ZM159.43 147.599C158.895 147.599 158.439 147.454 158.062 147.163C157.686 146.869 157.398 146.444 157.2 145.888C157.001 145.329 156.901 144.654 156.901 143.864C156.901 143.078 157.001 142.406 157.2 141.85C157.401 141.291 157.69 140.865 158.066 140.572C158.445 140.276 158.899 140.128 159.43 140.128C159.96 140.128 160.413 140.276 160.79 140.572C161.169 140.865 161.457 141.291 161.656 141.85C161.857 142.406 161.958 143.078 161.958 143.864C161.958 144.654 161.859 145.329 161.66 145.888C161.461 146.444 161.173 146.869 160.797 147.163C160.42 147.454 159.965 147.599 159.43 147.599ZM159.43 146.818C159.96 146.818 160.372 146.562 160.665 146.051C160.959 145.54 161.106 144.811 161.106 143.864C161.106 143.234 161.038 142.698 160.903 142.255C160.771 141.812 160.579 141.475 160.328 141.243C160.08 141.011 159.78 140.895 159.43 140.895C158.904 140.895 158.493 141.154 158.197 141.673C157.902 142.189 157.754 142.919 157.754 143.864C157.754 144.493 157.82 145.028 157.952 145.469C158.085 145.909 158.276 146.244 158.524 146.474C158.775 146.703 159.077 146.818 159.43 146.818ZM165.68 147.599C165.145 147.599 164.689 147.454 164.312 147.163C163.936 146.869 163.648 146.444 163.45 145.888C163.251 145.329 163.151 144.654 163.151 143.864C163.151 143.078 163.251 142.406 163.45 141.85C163.651 141.291 163.94 140.865 164.316 140.572C164.695 140.276 165.149 140.128 165.68 140.128C166.21 140.128 166.663 140.276 167.04 140.572C167.419 140.865 167.707 141.291 167.906 141.85C168.107 142.406 168.208 143.078 168.208 143.864C168.208 144.654 168.109 145.329 167.91 145.888C167.711 146.444 167.423 146.869 167.047 147.163C166.67 147.454 166.215 147.599 165.68 147.599ZM165.68 146.818C166.21 146.818 166.622 146.562 166.915 146.051C167.209 145.54 167.356 144.811 167.356 143.864C167.356 143.234 167.288 142.698 167.153 142.255C167.021 141.812 166.829 141.475 166.578 141.243C166.33 141.011 166.03 140.895 165.68 140.895C165.154 140.895 164.743 141.154 164.447 141.673C164.152 142.189 164.004 142.919 164.004 143.864C164.004 144.493 164.07 145.028 164.202 145.469C164.335 145.909 164.526 146.244 164.774 146.474C165.025 146.703 165.327 146.818 165.68 146.818ZM172.384 147.5V142.045H173.194V142.898H173.265C173.379 142.607 173.562 142.38 173.815 142.219C174.069 142.056 174.373 141.974 174.728 141.974C175.088 141.974 175.387 142.056 175.626 142.219C175.868 142.38 176.056 142.607 176.191 142.898H176.248C176.388 142.616 176.597 142.392 176.876 142.227C177.156 142.058 177.491 141.974 177.881 141.974C178.369 141.974 178.768 142.127 179.078 142.433C179.388 142.736 179.543 143.208 179.543 143.849V147.5H178.705V143.849C178.705 143.447 178.595 143.159 178.375 142.987C178.155 142.814 177.896 142.727 177.597 142.727C177.214 142.727 176.917 142.843 176.706 143.075C176.495 143.305 176.39 143.596 176.39 143.949V147.5H175.538V143.764C175.538 143.454 175.437 143.204 175.236 143.015C175.035 142.823 174.775 142.727 174.458 142.727C174.24 142.727 174.037 142.785 173.847 142.901C173.66 143.017 173.509 143.178 173.393 143.384C173.279 143.588 173.222 143.823 173.222 144.091V147.5H172.384ZM181.076 147.5V142.045H181.885V142.898H181.956C182.07 142.607 182.253 142.38 182.507 142.219C182.76 142.056 183.064 141.974 183.419 141.974C183.779 141.974 184.079 142.056 184.318 142.219C184.559 142.38 184.748 142.607 184.882 142.898H184.939C185.079 142.616 185.288 142.392 185.568 142.227C185.847 142.058 186.182 141.974 186.573 141.974C187.06 141.974 187.459 142.127 187.77 142.433C188.08 142.736 188.235 143.208 188.235 143.849V147.5H187.397V143.849C187.397 143.447 187.287 143.159 187.066 142.987C186.846 142.814 186.587 142.727 186.289 142.727C185.905 142.727 185.608 142.843 185.397 143.075C185.187 143.305 185.081 143.596 185.081 143.949V147.5H184.229V143.764C184.229 143.454 184.128 143.204 183.927 143.015C183.726 142.823 183.467 142.727 183.15 142.727C182.932 142.727 182.728 142.785 182.539 142.901C182.352 143.017 182.2 143.178 182.084 143.384C181.971 143.588 181.914 143.823 181.914 144.091V147.5H181.076Z" fill="#222222"/>
</svg>
