<svg width="474" height="40" viewBox="0 0 474 40" fill="none" xmlns="http://www.w3.org/2000/svg">
<path d="M17.179 23.5H16.2557L18.9261 16.2273H19.8352L22.5057 23.5H21.5824L19.4091 17.3778H19.3523L17.179 23.5ZM17.5199 20.6591H21.2415V21.4403H17.5199V20.6591ZM25.7266 25.6591C25.3217 25.6591 24.9737 25.607 24.6825 25.5028C24.3913 25.401 24.1487 25.2661 23.9545 25.098C23.7628 24.9323 23.6101 24.7547 23.4964 24.5653L24.1641 24.0966C24.2398 24.196 24.3357 24.3097 24.4517 24.4375C24.5677 24.5677 24.7263 24.6802 24.9276 24.7749C25.1312 24.8719 25.3975 24.9205 25.7266 24.9205C26.1669 24.9205 26.5303 24.8139 26.8168 24.6009C27.1032 24.3878 27.2464 24.054 27.2464 23.5994V22.4915H27.1754C27.1139 22.5909 27.0263 22.714 26.9126 22.8608C26.8014 23.0052 26.6404 23.1342 26.4297 23.2479C26.2214 23.3591 25.9396 23.4148 25.5845 23.4148C25.1442 23.4148 24.7488 23.3106 24.3984 23.1023C24.0504 22.8939 23.7746 22.5909 23.571 22.1932C23.3698 21.7955 23.2692 21.3125 23.2692 20.7443C23.2692 20.1856 23.3674 19.6991 23.5639 19.2848C23.7604 18.8681 24.0339 18.5462 24.3842 18.3189C24.7346 18.0893 25.1394 17.9744 25.5987 17.9744C25.9538 17.9744 26.2356 18.0336 26.4439 18.152C26.6546 18.268 26.8156 18.4006 26.9268 18.5497C27.0405 18.6965 27.1281 18.8172 27.1896 18.9119H27.2749V18.0455H28.0845V23.6562C28.0845 24.125 27.978 24.5062 27.7649 24.7997C27.5542 25.0956 27.2701 25.3123 26.9126 25.4496C26.5575 25.5893 26.1622 25.6591 25.7266 25.6591ZM25.6982 22.6619C26.0343 22.6619 26.3184 22.585 26.5504 22.4311C26.7824 22.2772 26.9588 22.0559 27.0795 21.767C27.2003 21.4782 27.2607 21.1326 27.2607 20.7301C27.2607 20.3371 27.2015 19.9903 27.0831 19.6896C26.9647 19.389 26.7895 19.1534 26.5575 18.983C26.3255 18.8125 26.0391 18.7273 25.6982 18.7273C25.343 18.7273 25.0471 18.8172 24.8104 18.9972C24.576 19.1771 24.3996 19.4186 24.2812 19.7216C24.1652 20.0246 24.1072 20.3608 24.1072 20.7301C24.1072 21.1089 24.1664 21.4439 24.2848 21.7351C24.4055 22.0239 24.5831 22.2512 24.8175 22.4169C25.0542 22.5803 25.3478 22.6619 25.6982 22.6619ZM31.9055 23.6136C31.38 23.6136 30.9266 23.4976 30.5455 23.2656C30.1667 23.0312 29.8743 22.7045 29.6683 22.2855C29.4647 21.8641 29.3629 21.3741 29.3629 20.8153C29.3629 20.2566 29.4647 19.7642 29.6683 19.3381C29.8743 18.9096 30.1607 18.5758 30.5277 18.3366C30.897 18.0952 31.3279 17.9744 31.8203 17.9744C32.1044 17.9744 32.3849 18.0218 32.6619 18.1165C32.9389 18.2112 33.1911 18.3651 33.4183 18.5781C33.6456 18.7888 33.8267 19.0682 33.9616 19.4162C34.0966 19.7642 34.1641 20.1927 34.1641 20.7017V21.0568H29.9595V20.3324H33.3118C33.3118 20.0246 33.2502 19.75 33.1271 19.5085C33.0064 19.267 32.8336 19.0765 32.6087 18.9368C32.3861 18.7971 32.1233 18.7273 31.8203 18.7273C31.4865 18.7273 31.1977 18.8101 30.9538 18.9759C30.7124 19.1392 30.5265 19.3523 30.3963 19.6151C30.2661 19.8778 30.201 20.1596 30.201 20.4602V20.9432C30.201 21.3551 30.272 21.7043 30.4141 21.9908C30.5585 22.2749 30.7585 22.4915 31.0142 22.6406C31.2699 22.7874 31.567 22.8608 31.9055 22.8608C32.1257 22.8608 32.3246 22.83 32.5021 22.7685C32.6821 22.7045 32.8371 22.6098 32.9673 22.4844C33.0975 22.3565 33.1982 22.1979 33.2692 22.0085L34.0788 22.2358C33.9936 22.5104 33.8504 22.7519 33.6491 22.9602C33.4479 23.1662 33.1993 23.3272 32.9034 23.4432C32.6075 23.5568 32.2749 23.6136 31.9055 23.6136ZM36.277 20.2188V23.5H35.4389V18.0455H36.2486V18.8977H36.3196C36.4474 18.6207 36.6416 18.3982 36.902 18.2301C37.1624 18.0597 37.4986 17.9744 37.9105 17.9744C38.2798 17.9744 38.603 18.0502 38.88 18.2017C39.157 18.3509 39.3724 18.5781 39.5263 18.8835C39.6802 19.1866 39.7571 19.5701 39.7571 20.0341V23.5H38.919V20.0909C38.919 19.6624 38.8078 19.3286 38.5852 19.0895C38.3627 18.848 38.0573 18.7273 37.669 18.7273C37.4015 18.7273 37.1624 18.7853 36.9517 18.9013C36.7434 19.0173 36.5788 19.1866 36.4581 19.4091C36.3374 19.6316 36.277 19.9015 36.277 20.2188ZM43.6607 18.0455V18.7557H40.834V18.0455H43.6607ZM41.6578 16.7386H42.4959V21.9375C42.4959 22.1742 42.5302 22.3518 42.5989 22.4702C42.6699 22.5862 42.7599 22.6643 42.8688 22.7045C42.9801 22.7424 43.0972 22.7614 43.2203 22.7614C43.3127 22.7614 43.3884 22.7566 43.4476 22.7472C43.5068 22.7353 43.5542 22.7259 43.5897 22.7188L43.7601 23.4716C43.7033 23.4929 43.624 23.5142 43.5222 23.5355C43.4204 23.5592 43.2914 23.571 43.1351 23.571C42.8984 23.571 42.6664 23.5201 42.4391 23.4183C42.2142 23.3165 42.0272 23.1615 41.878 22.9531C41.7312 22.7448 41.6578 22.482 41.6578 22.1648V16.7386ZM47.7338 23.5V18.0455H48.5719V23.5H47.7338ZM48.16 17.1364C47.9966 17.1364 47.8558 17.0807 47.7374 16.9695C47.6214 16.8582 47.5634 16.7244 47.5634 16.5682C47.5634 16.4119 47.6214 16.2782 47.7374 16.1669C47.8558 16.0556 47.9966 16 48.16 16C48.3233 16 48.463 16.0556 48.579 16.1669C48.6974 16.2782 48.7566 16.4119 48.7566 16.5682C48.7566 16.7244 48.6974 16.8582 48.579 16.9695C48.463 17.0807 48.3233 17.1364 48.16 17.1364ZM50.945 20.2188V23.5H50.1069V18.0455H50.9165V18.8977H50.9876C51.1154 18.6207 51.3095 18.3982 51.57 18.2301C51.8304 18.0597 52.1665 17.9744 52.5785 17.9744C52.9478 17.9744 53.271 18.0502 53.5479 18.2017C53.8249 18.3509 54.0404 18.5781 54.1942 18.8835C54.3481 19.1866 54.4251 19.5701 54.4251 20.0341V23.5H53.587V20.0909C53.587 19.6624 53.4757 19.3286 53.2532 19.0895C53.0307 18.848 52.7253 18.7273 52.337 18.7273C52.0695 18.7273 51.8304 18.7853 51.6197 18.9013C51.4113 19.0173 51.2468 19.1866 51.1261 19.4091C51.0053 19.6316 50.945 19.9015 50.945 20.2188ZM58.3855 18.0455V18.7557H55.4451V18.0455H58.3855ZM56.3258 23.5V17.2926C56.3258 16.9801 56.3992 16.7197 56.546 16.5114C56.6928 16.303 56.8833 16.1468 57.1177 16.0426C57.3521 15.9384 57.5995 15.8864 57.8599 15.8864C58.0659 15.8864 58.234 15.9029 58.3642 15.9361C58.4944 15.9692 58.5914 16 58.6554 16.0284L58.4139 16.7528C58.3713 16.7386 58.3121 16.7209 58.2363 16.6996C58.1629 16.6783 58.0659 16.6676 57.9451 16.6676C57.6681 16.6676 57.4681 16.7375 57.345 16.8771C57.2243 17.0168 57.1639 17.2216 57.1639 17.4915V23.5H56.3258ZM61.5513 23.6136C61.0589 23.6136 60.6268 23.4964 60.2551 23.2621C59.8858 23.0277 59.597 22.6998 59.3887 22.2784C59.1827 21.857 59.0797 21.3646 59.0797 20.8011C59.0797 20.233 59.1827 19.737 59.3887 19.3132C59.597 18.8894 59.8858 18.5604 60.2551 18.326C60.6268 18.0916 61.0589 17.9744 61.5513 17.9744C62.0437 17.9744 62.4746 18.0916 62.8439 18.326C63.2156 18.5604 63.5044 18.8894 63.7104 19.3132C63.9187 19.737 64.0229 20.233 64.0229 20.8011C64.0229 21.3646 63.9187 21.857 63.7104 22.2784C63.5044 22.6998 63.2156 23.0277 62.8439 23.2621C62.4746 23.4964 62.0437 23.6136 61.5513 23.6136ZM61.5513 22.8608C61.9254 22.8608 62.2331 22.7649 62.4746 22.5732C62.7161 22.3814 62.8948 22.1293 63.0108 21.8168C63.1268 21.5043 63.1848 21.1657 63.1848 20.8011C63.1848 20.4366 63.1268 20.0968 63.0108 19.782C62.8948 19.4671 62.7161 19.2126 62.4746 19.0185C62.2331 18.8243 61.9254 18.7273 61.5513 18.7273C61.1773 18.7273 60.8695 18.8243 60.628 19.0185C60.3865 19.2126 60.2078 19.4671 60.0918 19.782C59.9758 20.0968 59.9178 20.4366 59.9178 20.8011C59.9178 21.1657 59.9758 21.5043 60.0918 21.8168C60.2078 22.1293 60.3865 22.3814 60.628 22.5732C60.8695 22.7649 61.1773 22.8608 61.5513 22.8608ZM71.9783 19.267L71.2255 19.4801C71.1781 19.3546 71.1083 19.2327 71.016 19.1143C70.926 18.9936 70.8029 18.8942 70.6467 18.8161C70.4904 18.7379 70.2904 18.6989 70.0465 18.6989C69.7127 18.6989 69.4345 18.7758 69.212 18.9297C68.9918 19.0812 68.8817 19.2741 68.8817 19.5085C68.8817 19.7169 68.9575 19.8814 69.109 20.0021C69.2605 20.1229 69.4973 20.2235 69.8192 20.304L70.6289 20.5028C71.1166 20.6212 71.48 20.8023 71.7191 21.0462C71.9582 21.2876 72.0778 21.599 72.0778 21.9801C72.0778 22.2926 71.9878 22.572 71.8079 22.8182C71.6303 23.0644 71.3817 23.2585 71.0621 23.4006C70.7425 23.5426 70.3709 23.6136 69.9471 23.6136C69.3907 23.6136 68.9303 23.4929 68.5657 23.2514C68.2011 23.0099 67.9703 22.6572 67.8732 22.1932L68.6687 21.9943C68.7444 22.2879 68.8877 22.508 69.0984 22.6548C69.3114 22.8016 69.5896 22.875 69.9329 22.875C70.3235 22.875 70.6336 22.7921 70.8633 22.6264C71.0953 22.4583 71.2113 22.2571 71.2113 22.0227C71.2113 21.8333 71.145 21.6747 71.0124 21.5469C70.8799 21.4167 70.6763 21.3196 70.4016 21.2557L69.4925 21.0426C68.993 20.9242 68.6261 20.7408 68.3917 20.4922C68.1597 20.2412 68.0437 19.9276 68.0437 19.5511C68.0437 19.2434 68.1301 18.9711 68.3029 18.7344C68.4781 18.4976 68.716 18.3118 69.0167 18.1768C69.3197 18.0419 69.663 17.9744 70.0465 17.9744C70.5863 17.9744 71.0101 18.0928 71.3178 18.3295C71.628 18.5663 71.8481 18.8788 71.9783 19.267ZM73.3393 23.5V18.0455H74.1774V23.5H73.3393ZM73.7654 17.1364C73.6021 17.1364 73.4612 17.0807 73.3429 16.9695C73.2269 16.8582 73.1689 16.7244 73.1689 16.5682C73.1689 16.4119 73.2269 16.2782 73.3429 16.1669C73.4612 16.0556 73.6021 16 73.7654 16C73.9288 16 74.0685 16.0556 74.1845 16.1669C74.3029 16.2782 74.362 16.4119 74.362 16.5682C74.362 16.7244 74.3029 16.8582 74.1845 16.9695C74.0685 17.0807 73.9288 17.1364 73.7654 17.1364ZM77.9141 25.6591C77.5092 25.6591 77.1612 25.607 76.87 25.5028C76.5788 25.401 76.3362 25.2661 76.142 25.098C75.9503 24.9323 75.7976 24.7547 75.6839 24.5653L76.3516 24.0966C76.4273 24.196 76.5232 24.3097 76.6392 24.4375C76.7552 24.5677 76.9138 24.6802 77.1151 24.7749C77.3187 24.8719 77.585 24.9205 77.9141 24.9205C78.3544 24.9205 78.7178 24.8139 79.0043 24.6009C79.2907 24.3878 79.4339 24.054 79.4339 23.5994V22.4915H79.3629C79.3014 22.5909 79.2138 22.714 79.1001 22.8608C78.9889 23.0052 78.8279 23.1342 78.6172 23.2479C78.4089 23.3591 78.1271 23.4148 77.772 23.4148C77.3317 23.4148 76.9363 23.3106 76.5859 23.1023C76.2379 22.8939 75.9621 22.5909 75.7585 22.1932C75.5573 21.7955 75.4567 21.3125 75.4567 20.7443C75.4567 20.1856 75.5549 19.6991 75.7514 19.2848C75.9479 18.8681 76.2214 18.5462 76.5717 18.3189C76.9221 18.0893 77.3269 17.9744 77.7862 17.9744C78.1413 17.9744 78.4231 18.0336 78.6314 18.152C78.8421 18.268 79.0031 18.4006 79.1143 18.5497C79.228 18.6965 79.3156 18.8172 79.3771 18.9119H79.4624V18.0455H80.272V23.6562C80.272 24.125 80.1655 24.5062 79.9524 24.7997C79.7417 25.0956 79.4576 25.3123 79.1001 25.4496C78.745 25.5893 78.3497 25.6591 77.9141 25.6591ZM77.8857 22.6619C78.2218 22.6619 78.5059 22.585 78.7379 22.4311C78.9699 22.2772 79.1463 22.0559 79.267 21.767C79.3878 21.4782 79.4482 21.1326 79.4482 20.7301C79.4482 20.3371 79.389 19.9903 79.2706 19.6896C79.1522 19.389 78.977 19.1534 78.745 18.983C78.513 18.8125 78.2266 18.7273 77.8857 18.7273C77.5305 18.7273 77.2346 18.8172 76.9979 18.9972C76.7635 19.1771 76.5871 19.4186 76.4688 19.7216C76.3527 20.0246 76.2947 20.3608 76.2947 20.7301C76.2947 21.1089 76.3539 21.4439 76.4723 21.7351C76.593 22.0239 76.7706 22.2512 77.005 22.4169C77.2417 22.5803 77.5353 22.6619 77.8857 22.6619ZM82.6442 20.2188V23.5H81.8061V18.0455H82.6158V18.8977H82.6868C82.8146 18.6207 83.0088 18.3982 83.2692 18.2301C83.5296 18.0597 83.8658 17.9744 84.2777 17.9744C84.647 17.9744 84.9702 18.0502 85.2472 18.2017C85.5241 18.3509 85.7396 18.5781 85.8935 18.8835C86.0473 19.1866 86.1243 19.5701 86.1243 20.0341V23.5H85.2862V20.0909C85.2862 19.6624 85.175 19.3286 84.9524 19.0895C84.7299 18.848 84.4245 18.7273 84.0362 18.7273C83.7687 18.7273 83.5296 18.7853 83.3189 18.9013C83.1106 19.0173 82.946 19.1866 82.8253 19.4091C82.7045 19.6316 82.6442 19.9015 82.6442 20.2188ZM94.3319 19.267L93.579 19.4801C93.5317 19.3546 93.4618 19.2327 93.3695 19.1143C93.2795 18.9936 93.1564 18.8942 93.0002 18.8161C92.8439 18.7379 92.6439 18.6989 92.4 18.6989C92.0662 18.6989 91.7881 18.7758 91.5655 18.9297C91.3453 19.0812 91.2353 19.2741 91.2353 19.5085C91.2353 19.7169 91.311 19.8814 91.4625 20.0021C91.6141 20.1229 91.8508 20.2235 92.1728 20.304L92.9824 20.5028C93.4701 20.6212 93.8335 20.8023 94.0726 21.0462C94.3117 21.2876 94.4313 21.599 94.4313 21.9801C94.4313 22.2926 94.3413 22.572 94.1614 22.8182C93.9838 23.0644 93.7353 23.2585 93.4157 23.4006C93.0961 23.5426 92.7244 23.6136 92.3006 23.6136C91.7443 23.6136 91.2838 23.4929 90.9192 23.2514C90.5546 23.0099 90.3238 22.6572 90.2267 22.1932L91.0222 21.9943C91.098 22.2879 91.2412 22.508 91.4519 22.6548C91.665 22.8016 91.9431 22.875 92.2864 22.875C92.677 22.875 92.9872 22.7921 93.2168 22.6264C93.4488 22.4583 93.5648 22.2571 93.5648 22.0227C93.5648 21.8333 93.4985 21.6747 93.3659 21.5469C93.2334 21.4167 93.0298 21.3196 92.7551 21.2557L91.8461 21.0426C91.3465 20.9242 90.9796 20.7408 90.7452 20.4922C90.5132 20.2412 90.3972 19.9276 90.3972 19.5511C90.3972 19.2434 90.4836 18.9711 90.6564 18.7344C90.8316 18.4976 91.0695 18.3118 91.3702 18.1768C91.6732 18.0419 92.0165 17.9744 92.4 17.9744C92.9398 17.9744 93.3636 18.0928 93.6713 18.3295C93.9815 18.5663 94.2016 18.8788 94.3319 19.267ZM97.9087 23.6136C97.3974 23.6136 96.957 23.4929 96.5877 23.2514C96.2184 23.0099 95.9343 22.6773 95.7354 22.2536C95.5366 21.8298 95.4371 21.3456 95.4371 20.8011C95.4371 20.2472 95.5389 19.7583 95.7425 19.3345C95.9485 18.9084 96.235 18.5758 96.6019 18.3366C96.9712 18.0952 97.4021 17.9744 97.8945 17.9744C98.2781 17.9744 98.6237 18.0455 98.9315 18.1875C99.2392 18.3295 99.4914 18.5284 99.6879 18.7841C99.8844 19.0398 100.006 19.3381 100.054 19.679H99.2156C99.1516 19.4304 99.0096 19.2102 98.7894 19.0185C98.5716 18.8243 98.2781 18.7273 97.9087 18.7273C97.582 18.7273 97.2956 18.8125 97.0494 18.983C96.8055 19.151 96.6149 19.389 96.4776 19.6967C96.3427 20.0021 96.2752 20.3608 96.2752 20.7727C96.2752 21.1941 96.3415 21.5611 96.4741 21.8736C96.609 22.1861 96.7984 22.4287 97.0423 22.6016C97.2885 22.7744 97.5773 22.8608 97.9087 22.8608C98.1265 22.8608 98.3242 22.8229 98.5018 22.7472C98.6793 22.6714 98.8297 22.5625 98.9528 22.4205C99.0759 22.2784 99.1635 22.108 99.2156 21.9091H100.054C100.006 22.2311 99.8891 22.5211 99.7021 22.7791C99.5174 23.0348 99.2724 23.2384 98.967 23.3899C98.6639 23.5391 98.3112 23.6136 97.9087 23.6136ZM102.884 23.6278C102.538 23.6278 102.225 23.5627 101.943 23.4325C101.661 23.3 101.437 23.1094 101.272 22.8608C101.106 22.6098 101.023 22.3068 101.023 21.9517C101.023 21.6392 101.085 21.3859 101.208 21.1918C101.331 20.9953 101.495 20.8414 101.701 20.7301C101.907 20.6188 102.135 20.536 102.383 20.4815C102.634 20.4247 102.886 20.3797 103.14 20.3466C103.471 20.304 103.74 20.272 103.946 20.2507C104.154 20.227 104.306 20.188 104.4 20.1335C104.497 20.0791 104.546 19.9844 104.546 19.8494V19.821C104.546 19.4706 104.45 19.1984 104.258 19.0043C104.069 18.8101 103.781 18.7131 103.395 18.7131C102.995 18.7131 102.681 18.8007 102.454 18.9759C102.227 19.151 102.067 19.3381 101.975 19.5369L101.179 19.2528C101.321 18.9214 101.511 18.6634 101.748 18.4787C101.987 18.2917 102.247 18.1615 102.529 18.0881C102.813 18.0123 103.092 17.9744 103.367 17.9744C103.542 17.9744 103.743 17.9957 103.971 18.0384C104.2 18.0786 104.422 18.1626 104.635 18.2905C104.85 18.4183 105.029 18.6113 105.171 18.8693C105.313 19.1274 105.384 19.473 105.384 19.9062V23.5H104.546V22.7614H104.503C104.446 22.8797 104.352 23.0064 104.219 23.1413C104.087 23.2763 103.91 23.3911 103.69 23.4858C103.47 23.5805 103.201 23.6278 102.884 23.6278ZM103.012 22.875C103.343 22.875 103.623 22.8099 103.85 22.6797C104.079 22.5495 104.252 22.3814 104.368 22.1754C104.487 21.9695 104.546 21.7528 104.546 21.5256V20.7585C104.51 20.8011 104.432 20.8402 104.311 20.8757C104.193 20.9089 104.056 20.9384 103.9 20.9645C103.746 20.9882 103.595 21.0095 103.449 21.0284C103.304 21.045 103.187 21.0592 103.097 21.071C102.879 21.0994 102.676 21.1456 102.486 21.2095C102.299 21.2711 102.148 21.3646 102.032 21.4901C101.918 21.6132 101.861 21.7812 101.861 21.9943C101.861 22.2855 101.969 22.5057 102.184 22.6548C102.402 22.8016 102.678 22.875 103.012 22.875ZM107.752 16.2273V23.5H106.914V16.2273H107.752ZM109.287 23.5V18.0455H110.125V23.5H109.287ZM109.713 17.1364C109.549 17.1364 109.408 17.0807 109.29 16.9695C109.174 16.8582 109.116 16.7244 109.116 16.5682C109.116 16.4119 109.174 16.2782 109.29 16.1669C109.408 16.0556 109.549 16 109.713 16C109.876 16 110.016 16.0556 110.132 16.1669C110.25 16.2782 110.309 16.4119 110.309 16.5682C110.309 16.7244 110.25 16.8582 110.132 16.9695C110.016 17.0807 109.876 17.1364 109.713 17.1364ZM112.498 20.2188V23.5H111.66V18.0455H112.469V18.8977H112.54C112.668 18.6207 112.862 18.3982 113.123 18.2301C113.383 18.0597 113.719 17.9744 114.131 17.9744C114.501 17.9744 114.824 18.0502 115.101 18.2017C115.378 18.3509 115.593 18.5781 115.747 18.8835C115.901 19.1866 115.978 19.5701 115.978 20.0341V23.5H115.14V20.0909C115.14 19.6624 115.028 19.3286 114.806 19.0895C114.583 18.848 114.278 18.7273 113.89 18.7273C113.622 18.7273 113.383 18.7853 113.172 18.9013C112.964 19.0173 112.8 19.1866 112.679 19.4091C112.558 19.6316 112.498 19.9015 112.498 20.2188ZM119.711 25.6591C119.306 25.6591 118.958 25.607 118.667 25.5028C118.376 25.401 118.133 25.2661 117.939 25.098C117.747 24.9323 117.594 24.7547 117.481 24.5653L118.148 24.0966C118.224 24.196 118.32 24.3097 118.436 24.4375C118.552 24.5677 118.711 24.6802 118.912 24.7749C119.116 24.8719 119.382 24.9205 119.711 24.9205C120.151 24.9205 120.515 24.8139 120.801 24.6009C121.088 24.3878 121.231 24.054 121.231 23.5994V22.4915H121.16C121.098 22.5909 121.011 22.714 120.897 22.8608C120.786 23.0052 120.625 23.1342 120.414 23.2479C120.206 23.3591 119.924 23.4148 119.569 23.4148C119.129 23.4148 118.733 23.3106 118.383 23.1023C118.035 22.8939 117.759 22.5909 117.555 22.1932C117.354 21.7955 117.254 21.3125 117.254 20.7443C117.254 20.1856 117.352 19.6991 117.548 19.2848C117.745 18.8681 118.018 18.5462 118.369 18.3189C118.719 18.0893 119.124 17.9744 119.583 17.9744C119.938 17.9744 120.22 18.0336 120.428 18.152C120.639 18.268 120.8 18.4006 120.911 18.5497C121.025 18.6965 121.112 18.8172 121.174 18.9119H121.259V18.0455H122.069V23.6562C122.069 24.125 121.962 24.5062 121.749 24.7997C121.539 25.0956 121.254 25.3123 120.897 25.4496C120.542 25.5893 120.147 25.6591 119.711 25.6591ZM119.683 22.6619C120.019 22.6619 120.303 22.585 120.535 22.4311C120.767 22.2772 120.943 22.0559 121.064 21.767C121.185 21.4782 121.245 21.1326 121.245 20.7301C121.245 20.3371 121.186 19.9903 121.067 19.6896C120.949 19.389 120.774 19.1534 120.542 18.983C120.31 18.8125 120.023 18.7273 119.683 18.7273C119.327 18.7273 119.031 18.8172 118.795 18.9972C118.56 19.1771 118.384 19.4186 118.266 19.7216C118.15 20.0246 118.092 20.3608 118.092 20.7301C118.092 21.1089 118.151 21.4439 118.269 21.7351C118.39 22.0239 118.567 22.2512 118.802 22.4169C119.039 22.5803 119.332 22.6619 119.683 22.6619Z" fill="#222222"/>
<path d="M144 20L273 20" stroke="#D9D9D9"/>
<circle cx="215.215" cy="20" r="5" fill="white"/>
<path d="M215.216 16.5C217.149 16.5 218.716 18.067 218.716 20C218.716 21.933 217.149 23.5 215.216 23.5C213.283 23.5 211.716 21.933 211.716 20C211.716 18.067 213.283 16.5 215.216 16.5Z" fill="white" stroke="#222222"/>
<path d="M288.21 23.5994C287.741 23.5994 287.324 23.5189 286.957 23.358C286.592 23.197 286.302 22.9732 286.087 22.6868C285.874 22.398 285.758 22.063 285.739 21.6818H286.634C286.652 21.9162 286.733 22.1186 286.875 22.2891C287.017 22.4571 287.203 22.5874 287.433 22.6797C287.662 22.772 287.917 22.8182 288.196 22.8182C288.509 22.8182 288.786 22.7637 289.027 22.6548C289.268 22.5459 289.458 22.3944 289.595 22.2003C289.732 22.0062 289.801 21.7812 289.801 21.5256C289.801 21.258 289.735 21.0225 289.602 20.8189C289.47 20.6129 289.276 20.4519 289.02 20.3359C288.764 20.2199 288.452 20.1619 288.082 20.1619H287.5V19.3807H288.082C288.371 19.3807 288.625 19.3286 288.842 19.2244C289.063 19.1203 289.234 18.9735 289.357 18.7841C289.483 18.5947 289.545 18.3722 289.545 18.1165C289.545 17.8703 289.491 17.656 289.382 17.4737C289.273 17.2914 289.119 17.1494 288.92 17.0476C288.724 16.9458 288.492 16.8949 288.224 16.8949C287.973 16.8949 287.737 16.9411 287.514 17.0334C287.294 17.1233 287.114 17.2547 286.974 17.4276C286.835 17.598 286.759 17.804 286.747 18.0455H285.895C285.909 17.6643 286.024 17.3305 286.239 17.044C286.455 16.7552 286.737 16.5303 287.085 16.3693C287.435 16.2083 287.82 16.1278 288.239 16.1278C288.688 16.1278 289.074 16.219 289.396 16.4013C289.718 16.5812 289.966 16.8191 290.138 17.1151C290.311 17.411 290.398 17.7306 290.398 18.0739C290.398 18.4834 290.29 18.8326 290.075 19.1214C289.862 19.4103 289.571 19.6103 289.205 19.7216V19.7784C289.664 19.8542 290.022 20.0495 290.281 20.3643C290.539 20.6768 290.668 21.0639 290.668 21.5256C290.668 21.9209 290.56 22.276 290.344 22.5909C290.131 22.9034 289.84 23.1496 289.471 23.3295C289.102 23.5095 288.681 23.5994 288.21 23.5994Z" fill="#222222"/>
</svg>
