<svg width="272" height="114" viewBox="0 0 272 114" fill="none" xmlns="http://www.w3.org/2000/svg">
<rect width="272" height="114" fill="var(--colors-neutral-neutral-200)"/>
<path d="M16.996 29V20.624H23.008V21.704H18.268V24.116H21.532V25.196H18.268V27.92H23.056V29H16.996ZM25.4487 25.94V24.86H27.6327C28.1687 24.86 28.6007 24.712 28.9287 24.416C29.2567 24.12 29.4207 23.732 29.4207 23.252C29.4207 22.788 29.2687 22.416 28.9647 22.136C28.6607 21.848 28.2567 21.704 27.7527 21.704H25.4487V20.624H27.7527C28.3607 20.624 28.8887 20.732 29.3367 20.948C29.7847 21.164 30.1327 21.468 30.3807 21.86C30.6287 22.252 30.7527 22.716 30.7527 23.252C30.7527 23.788 30.6247 24.26 30.3687 24.668C30.1127 25.068 29.7487 25.38 29.2767 25.604C28.8127 25.828 28.2687 25.94 27.6447 25.94H25.4487ZM24.5367 29V20.624H25.8087V29H24.5367ZM32.7734 26.888V25.808H37.4174V26.888H32.7734ZM34.1174 20.624H35.9414L38.5334 29H37.2254L35.5334 23.456L35.0294 21.62L34.5254 23.468L32.8094 29H31.5254L34.1174 20.624ZM40.0141 29V20.624H41.2861V27.92H45.6781V29H40.0141ZM47.2668 30.056V29H53.0628V30.056H47.2668ZM57.6274 29V23.828L57.6874 22.124L56.3314 23.228L54.8314 24.428V22.928L57.9754 20.624H58.8994V29H57.6274ZM54.8314 29V27.92H60.7594V29H54.8314Z" fill="var(--colors-neutral-neutral-800)"/>
<mask id="path-2-inside-1_3798_55166" fill="white">
<rect x="20.5" y="85.5" width="3" height="9" rx="0.333333"/>
</mask>
<rect x="20.5" y="85.5" width="3" height="9" rx="0.333333" stroke="var(--colors-neutral-neutral-700)" stroke-width="1.33333" mask="url(#path-2-inside-1_3798_55166)"/>
<mask id="path-3-inside-2_3798_55166" fill="white">
<rect x="24.5" y="85.5" width="3" height="9" rx="0.333333"/>
</mask>
<rect x="24.5" y="85.5" width="3" height="9" rx="0.333333" stroke="var(--colors-neutral-neutral-700)" stroke-width="1.33333" mask="url(#path-3-inside-2_3798_55166)"/>
<path d="M36.77 94V93.24C37.69 92.5533 38.43 91.9567 38.99 91.45C39.55 90.9367 39.9567 90.4833 40.21 90.09C40.4633 89.69 40.59 89.3267 40.59 89C40.59 88.64 40.4767 88.35 40.25 88.13C40.03 87.91 39.72 87.8 39.32 87.8C38.9 87.8 38.5533 87.93 38.28 88.19C38.0067 88.4433 37.86 88.8033 37.84 89.27H36.77C36.8033 88.77 36.93 88.3433 37.15 87.99C37.3767 87.63 37.6767 87.36 38.05 87.18C38.43 86.9933 38.86 86.9 39.34 86.9C39.82 86.9 40.2367 86.9867 40.59 87.16C40.9433 87.3267 41.2133 87.5667 41.4 87.88C41.5933 88.1867 41.69 88.5433 41.69 88.95C41.69 89.39 41.5767 89.8233 41.35 90.25C41.13 90.67 40.7733 91.1133 40.28 91.58C39.7933 92.04 39.1467 92.5467 38.34 93.1H41.71V94H36.77ZM50.5578 94V86.65H51.5678V94H50.5578ZM48.5278 94V93.18H53.6078V94H48.5278ZM49.2578 87.47V86.65H51.0578V87.47H49.2578ZM58.4017 94L58.3617 92.75V90.4C58.3617 90.0067 58.2317 89.7 57.9717 89.48C57.7184 89.2533 57.3684 89.14 56.9217 89.14C56.4884 89.14 56.1351 89.24 55.8617 89.44C55.5884 89.6333 55.4384 89.9033 55.4117 90.25H54.4217C54.4551 89.8567 54.5817 89.5233 54.8017 89.25C55.0217 88.97 55.3151 88.7567 55.6817 88.61C56.0484 88.4567 56.4717 88.38 56.9517 88.38C57.4451 88.38 57.8717 88.4633 58.2317 88.63C58.5917 88.79 58.8684 89.0233 59.0617 89.33C59.2617 89.6367 59.3617 90.01 59.3617 90.45V94H58.4017ZM56.4117 94.12C56.0517 94.12 55.7351 94.0567 55.4617 93.93C55.1884 93.7967 54.9751 93.61 54.8217 93.37C54.6684 93.1233 54.5917 92.8367 54.5917 92.51C54.5917 91.9433 54.8084 91.5033 55.2417 91.19C55.6817 90.8767 56.2951 90.72 57.0817 90.72H58.4917V91.47H57.0417C56.5884 91.47 56.2317 91.5567 55.9717 91.73C55.7184 91.9033 55.5917 92.1467 55.5917 92.46C55.5917 92.72 55.6817 92.9233 55.8617 93.07C56.0484 93.2167 56.2984 93.29 56.6117 93.29C57.0117 93.29 57.3651 93.1833 57.6717 92.97C57.9851 92.75 58.2384 92.45 58.4317 92.07L58.5417 92.81C58.3684 93.23 58.1017 93.5533 57.7417 93.78C57.3817 94.0067 56.9384 94.12 56.4117 94.12ZM64.3456 94V90.53C64.3456 90.1433 64.2356 89.8333 64.0156 89.6C63.7956 89.36 63.509 89.24 63.1556 89.24C62.749 89.24 62.3856 89.39 62.0656 89.69C61.7523 89.9833 61.5023 90.4433 61.3156 91.07L61.1556 89.94C61.3623 89.42 61.659 89.03 62.0456 88.77C62.439 88.51 62.8656 88.38 63.3256 88.38C63.739 88.38 64.0956 88.47 64.3956 88.65C64.7023 88.8233 64.939 89.0667 65.1056 89.38C65.2723 89.6933 65.3556 90.0633 65.3556 90.49V94H64.3456ZM60.4256 94V88.5H61.3856L61.4356 89.74V94H60.4256ZM68.8295 94.12C68.2629 94.12 67.7729 94.0067 67.3595 93.78C66.9462 93.5467 66.6295 93.2167 66.4095 92.79C66.1895 92.3567 66.0795 91.84 66.0795 91.24C66.0795 90.64 66.1895 90.1267 66.4095 89.7C66.6362 89.2733 66.9562 88.9467 67.3695 88.72C67.7895 88.4933 68.2895 88.38 68.8695 88.38C69.7562 88.38 70.4162 88.6267 70.8495 89.12C71.2829 89.6067 71.4729 90.2767 71.4195 91.13H66.8795L66.8895 90.37L70.3895 90.38C70.3629 90.0267 70.2095 89.7433 69.9295 89.53C69.6495 89.3167 69.2962 89.21 68.8695 89.21C68.2962 89.21 67.8562 89.39 67.5495 89.75C67.2429 90.11 67.0895 90.62 67.0895 91.28C67.0895 91.6733 67.1562 92.0233 67.2895 92.33C67.4295 92.63 67.6295 92.8633 67.8895 93.03C68.1495 93.1967 68.4629 93.28 68.8295 93.28C69.2629 93.28 69.6229 93.1767 69.9095 92.97C70.2029 92.7633 70.3829 92.4833 70.4495 92.13H71.4595C71.3729 92.75 71.0962 93.2367 70.6295 93.59C70.1629 93.9433 69.5629 94.12 68.8295 94.12ZM74.8234 94.12C74.3368 94.12 73.9068 94.0367 73.5334 93.87C73.1668 93.6967 72.8834 93.4567 72.6834 93.15C72.4834 92.8367 72.3801 92.4633 72.3734 92.03H73.3234C73.3234 92.4367 73.4601 92.7567 73.7334 92.99C74.0068 93.2233 74.3668 93.34 74.8134 93.34C75.1934 93.34 75.4968 93.27 75.7234 93.13C75.9568 92.9833 76.0734 92.7867 76.0734 92.54C76.0734 92.3467 76.0068 92.1933 75.8734 92.08C75.7468 91.96 75.5768 91.8667 75.3634 91.8C75.1501 91.7333 74.9134 91.6767 74.6534 91.63C74.4001 91.5767 74.1434 91.5167 73.8834 91.45C73.6301 91.3767 73.3968 91.2867 73.1834 91.18C72.9701 91.0667 72.7968 90.9167 72.6634 90.73C72.5301 90.5433 72.4634 90.3 72.4634 90C72.4634 89.6867 72.5534 89.41 72.7334 89.17C72.9134 88.9233 73.1668 88.73 73.4934 88.59C73.8268 88.45 74.2201 88.38 74.6734 88.38C75.3601 88.38 75.9101 88.54 76.3234 88.86C76.7434 89.1733 76.9701 89.6067 77.0034 90.16H76.0534C76.0334 89.84 75.9001 89.5933 75.6534 89.42C75.4134 89.24 75.0868 89.15 74.6734 89.15C74.2868 89.15 73.9901 89.2267 73.7834 89.38C73.5834 89.5333 73.4834 89.7267 73.4834 89.96C73.4834 90.14 73.5501 90.2833 73.6834 90.39C73.8168 90.49 73.9901 90.57 74.2034 90.63C74.4168 90.6833 74.6501 90.7333 74.9034 90.78C75.1634 90.82 75.4201 90.8733 75.6734 90.94C75.9334 91.0067 76.1701 91.1 76.3834 91.22C76.5968 91.3333 76.7668 91.49 76.8934 91.69C77.0268 91.89 77.0934 92.15 77.0934 92.47C77.0934 92.9833 76.8868 93.3867 76.4734 93.68C76.0601 93.9733 75.5101 94.12 74.8234 94.12Z" fill="var(--colors-neutral-neutral-600)"/>
<path d="M25.7365 52.2634L26.2634 51.7365L24.375 49.848V47.5H23.625V50.1519L25.7365 52.2634ZM24.0008 54.75C23.3439 54.75 22.7263 54.6253 22.1483 54.376C21.5702 54.1266 21.0674 53.7883 20.6398 53.3609C20.2121 52.9334 19.8736 52.4308 19.6242 51.853C19.3747 51.2752 19.25 50.6578 19.25 50.0008C19.25 49.3439 19.3747 48.7263 19.624 48.1483C19.8733 47.5702 20.2117 47.0674 20.6391 46.6398C21.0666 46.2121 21.5692 45.8736 22.147 45.6242C22.7248 45.3747 23.3422 45.25 23.9992 45.25C24.6561 45.25 25.2736 45.3747 25.8517 45.624C26.4298 45.8733 26.9326 46.2117 27.3602 46.6391C27.7878 47.0666 28.1264 47.5692 28.3758 48.147C28.6253 48.7248 28.75 49.3422 28.75 49.9992C28.75 50.6561 28.6253 51.2736 28.376 51.8517C28.1266 52.4298 27.7883 52.9326 27.3609 53.3602C26.9334 53.7878 26.4308 54.1264 25.853 54.3758C25.2752 54.6253 24.6578 54.75 24.0008 54.75ZM24 54C25.1083 54 26.0521 53.6104 26.8312 52.8312C27.6104 52.0521 28 51.1083 28 50C28 48.8917 27.6104 47.9479 26.8312 47.1687C26.0521 46.3896 25.1083 46 24 46C22.8917 46 21.9479 46.3896 21.1687 47.1687C20.3896 47.9479 20 48.8917 20 50C20 51.1083 20.3896 52.0521 21.1687 52.8312C21.9479 53.6104 22.8917 54 24 54Z" fill="var(--colors-neutral-neutral-700)"/>
<path d="M39.31 54.12C38.85 54.12 38.4267 54.0267 38.04 53.84C37.6533 53.6533 37.3433 53.3833 37.11 53.03C36.8833 52.6767 36.77 52.2433 36.77 51.73H37.83C37.8367 52.0233 37.9033 52.2833 38.03 52.51C38.1567 52.73 38.33 52.9 38.55 53.02C38.7767 53.14 39.03 53.2 39.31 53.2C39.7367 53.2 40.08 53.09 40.34 52.87C40.6 52.65 40.73 52.3667 40.73 52.02C40.73 51.7467 40.6533 51.5233 40.5 51.35C40.3533 51.17 40.1533 51.0367 39.9 50.95C39.6533 50.8633 39.3767 50.82 39.07 50.82H38.7V49.94H39.1C39.3733 49.94 39.6067 49.89 39.8 49.79C40 49.6833 40.1533 49.5433 40.26 49.37C40.3667 49.1967 40.42 49.01 40.42 48.81C40.42 48.5033 40.3133 48.26 40.1 48.08C39.8933 47.8933 39.6233 47.8 39.29 47.8C38.8833 47.8 38.5533 47.92 38.3 48.16C38.0467 48.3933 37.91 48.7333 37.89 49.18H36.83C36.85 48.68 36.9733 48.26 37.2 47.92C37.4333 47.58 37.7333 47.3267 38.1 47.16C38.4667 46.9867 38.8667 46.9 39.3 46.9C39.7467 46.9 40.1333 46.9767 40.46 47.13C40.7933 47.2767 41.0533 47.4867 41.24 47.76C41.4267 48.0267 41.52 48.3433 41.52 48.71C41.52 48.9567 41.4667 49.19 41.36 49.41C41.2533 49.63 41.1067 49.82 40.92 49.98C40.74 50.1333 40.53 50.2433 40.29 50.31C40.59 50.3567 40.8533 50.46 41.08 50.62C41.3133 50.7733 41.4967 50.9733 41.63 51.22C41.7633 51.46 41.83 51.73 41.83 52.03C41.83 52.4367 41.7267 52.8 41.52 53.12C41.3133 53.4333 41.02 53.68 40.64 53.86C40.2667 54.0333 39.8233 54.12 39.31 54.12ZM45.1539 54.12C44.5872 54.12 44.1039 53.9733 43.7039 53.68C43.3039 53.38 42.9972 52.96 42.7839 52.42C42.5706 51.8733 42.4639 51.2367 42.4639 50.51C42.4639 49.77 42.5706 49.13 42.7839 48.59C42.9972 48.05 43.3039 47.6333 43.7039 47.34C44.1039 47.0467 44.5872 46.9 45.1539 46.9C45.7272 46.9 46.2106 47.0467 46.6039 47.34C47.0039 47.6333 47.3106 48.05 47.5239 48.59C47.7372 49.1233 47.8439 49.7633 47.8439 50.51C47.8439 51.2433 47.7372 51.88 47.5239 52.42C47.3106 52.96 47.0039 53.38 46.6039 53.68C46.2106 53.9733 45.7272 54.12 45.1539 54.12ZM45.1539 53.22C45.6806 53.22 46.0772 52.9833 46.3439 52.51C46.6106 52.03 46.7439 51.3633 46.7439 50.51C46.7439 49.6433 46.6106 48.9767 46.3439 48.51C46.0772 48.0367 45.6806 47.8 45.1539 47.8C44.6339 47.8 44.2406 48.0367 43.9739 48.51C43.7072 48.9767 43.5739 49.6433 43.5739 50.51C43.5739 51.3633 43.7072 52.03 43.9739 52.51C44.2406 52.9833 44.6339 53.22 45.1539 53.22ZM56.9517 54.12C56.3851 54.12 55.8951 54.0033 55.4817 53.77C55.0751 53.5367 54.7617 53.2067 54.5417 52.78C54.3217 52.3467 54.2117 51.8367 54.2117 51.25C54.2117 50.65 54.3217 50.14 54.5417 49.72C54.7617 49.2933 55.0751 48.9633 55.4817 48.73C55.8951 48.4967 56.3884 48.38 56.9617 48.38C57.8151 48.38 58.4851 48.6367 58.9717 49.15C59.4584 49.6567 59.7017 50.3567 59.7017 51.25C59.7017 51.8367 59.5917 52.3467 59.3717 52.78C59.1517 53.2067 58.8351 53.5367 58.4217 53.77C58.0151 54.0033 57.5251 54.12 56.9517 54.12ZM56.9617 53.28C57.4951 53.28 57.9151 53.1 58.2217 52.74C58.5351 52.3733 58.6917 51.8767 58.6917 51.25C58.6917 50.6167 58.5351 50.12 58.2217 49.76C57.9151 49.4 57.4951 49.22 56.9617 49.22C56.4217 49.22 55.9984 49.4 55.6917 49.76C55.3851 50.12 55.2317 50.6167 55.2317 51.25C55.2317 51.8767 55.3851 52.3733 55.6917 52.74C55.9984 53.1 56.4217 53.28 56.9617 53.28ZM64.3656 50.86V50.2C64.3656 49.9133 64.279 49.6833 64.1056 49.51C63.9323 49.33 63.6823 49.24 63.3556 49.24C62.9423 49.24 62.5723 49.3967 62.2456 49.71C61.919 50.0167 61.659 50.4867 61.4656 51.12L61.3256 50.1C61.4723 49.72 61.649 49.4033 61.8556 49.15C62.069 48.8967 62.3123 48.7067 62.5856 48.58C62.8656 48.4467 63.1723 48.38 63.5056 48.38C64.059 48.38 64.509 48.54 64.8556 48.86C65.2023 49.1733 65.3756 49.62 65.3756 50.2V50.86H64.3656ZM60.6456 54V48.5H61.5956L61.6556 49.75V54H60.6456ZM68.4795 48.38C68.8595 48.38 69.2062 48.4567 69.5195 48.61C69.8329 48.7567 70.0862 48.9633 70.2795 49.23V46.65H71.2795V54H70.3295L70.2995 53.23C70.1062 53.4967 69.8495 53.7133 69.5295 53.88C69.2162 54.04 68.8662 54.12 68.4795 54.12C67.9929 54.12 67.5629 53.9967 67.1895 53.75C66.8162 53.5033 66.5229 53.1633 66.3095 52.73C66.1029 52.2967 65.9995 51.8033 65.9995 51.25C65.9995 50.69 66.1029 50.1933 66.3095 49.76C66.5229 49.3267 66.8162 48.99 67.1895 48.75C67.5629 48.5033 67.9929 48.38 68.4795 48.38ZM68.6995 53.27C69.0595 53.27 69.3795 53.17 69.6595 52.97C69.9395 52.7633 70.1462 52.4867 70.2795 52.14V50.35C70.1462 49.9967 69.9395 49.7233 69.6595 49.53C69.3795 49.33 69.0595 49.23 68.6995 49.23C68.3662 49.23 68.0729 49.3167 67.8195 49.49C67.5662 49.6567 67.3662 49.8933 67.2195 50.2C67.0795 50.5 67.0095 50.85 67.0095 51.25C67.0095 51.6433 67.0795 51.9933 67.2195 52.3C67.3662 52.6 67.5662 52.8367 67.8195 53.01C68.0729 53.1833 68.3662 53.27 68.6995 53.27ZM74.7334 54.12C74.1668 54.12 73.6768 54.0067 73.2634 53.78C72.8501 53.5467 72.5334 53.2167 72.3134 52.79C72.0934 52.3567 71.9834 51.84 71.9834 51.24C71.9834 50.64 72.0934 50.1267 72.3134 49.7C72.5401 49.2733 72.8601 48.9467 73.2734 48.72C73.6934 48.4933 74.1934 48.38 74.7734 48.38C75.6601 48.38 76.3201 48.6267 76.7534 49.12C77.1868 49.6067 77.3768 50.2767 77.3234 51.13H72.7834L72.7934 50.37L76.2934 50.38C76.2668 50.0267 76.1134 49.7433 75.8334 49.53C75.5534 49.3167 75.2001 49.21 74.7734 49.21C74.2001 49.21 73.7601 49.39 73.4534 49.75C73.1468 50.11 72.9934 50.62 72.9934 51.28C72.9934 51.6733 73.0601 52.0233 73.1934 52.33C73.3334 52.63 73.5334 52.8633 73.7934 53.03C74.0534 53.1967 74.3668 53.28 74.7334 53.28C75.1668 53.28 75.5268 53.1767 75.8134 52.97C76.1068 52.7633 76.2868 52.4833 76.3534 52.13H77.3634C77.2768 52.75 77.0001 53.2367 76.5334 53.59C76.0668 53.9433 75.4668 54.12 74.7334 54.12ZM82.0773 50.86V50.2C82.0773 49.9133 81.9907 49.6833 81.8173 49.51C81.644 49.33 81.394 49.24 81.0673 49.24C80.654 49.24 80.284 49.3967 79.9573 49.71C79.6307 50.0167 79.3707 50.4867 79.1773 51.12L79.0373 50.1C79.184 49.72 79.3607 49.4033 79.5673 49.15C79.7807 48.8967 80.024 48.7067 80.2973 48.58C80.5773 48.4467 80.884 48.38 81.2173 48.38C81.7707 48.38 82.2207 48.54 82.5673 48.86C82.914 49.1733 83.0873 49.62 83.0873 50.2V50.86H82.0773ZM78.3573 54V48.5H79.3073L79.3673 49.75V54H78.3573ZM86.6313 54.12C86.1446 54.12 85.7146 54.0367 85.3413 53.87C84.9746 53.6967 84.6913 53.4567 84.4913 53.15C84.2913 52.8367 84.1879 52.4633 84.1813 52.03H85.1313C85.1313 52.4367 85.2679 52.7567 85.5413 52.99C85.8146 53.2233 86.1746 53.34 86.6213 53.34C87.0013 53.34 87.3046 53.27 87.5313 53.13C87.7646 52.9833 87.8813 52.7867 87.8813 52.54C87.8813 52.3467 87.8146 52.1933 87.6813 52.08C87.5546 51.96 87.3846 51.8667 87.1713 51.8C86.9579 51.7333 86.7213 51.6767 86.4613 51.63C86.2079 51.5767 85.9513 51.5167 85.6913 51.45C85.4379 51.3767 85.2046 51.2867 84.9913 51.18C84.7779 51.0667 84.6046 50.9167 84.4713 50.73C84.3379 50.5433 84.2713 50.3 84.2713 50C84.2713 49.6867 84.3613 49.41 84.5413 49.17C84.7213 48.9233 84.9746 48.73 85.3013 48.59C85.6346 48.45 86.0279 48.38 86.4813 48.38C87.1679 48.38 87.7179 48.54 88.1313 48.86C88.5513 49.1733 88.7779 49.6067 88.8113 50.16H87.8613C87.8413 49.84 87.7079 49.5933 87.4613 49.42C87.2213 49.24 86.8946 49.15 86.4813 49.15C86.0946 49.15 85.7979 49.2267 85.5913 49.38C85.3913 49.5333 85.2913 49.7267 85.2913 49.96C85.2913 50.14 85.3579 50.2833 85.4913 50.39C85.6246 50.49 85.7979 50.57 86.0113 50.63C86.2246 50.6833 86.4579 50.7333 86.7113 50.78C86.9713 50.82 87.2279 50.8733 87.4813 50.94C87.7413 51.0067 87.9779 51.1 88.1913 51.22C88.4046 51.3333 88.5746 51.49 88.7013 51.69C88.8346 51.89 88.9013 52.15 88.9013 52.47C88.9013 52.9833 88.6946 53.3867 88.2813 53.68C87.8679 53.9733 87.3179 54.12 86.6313 54.12ZM89.9252 54.97L93.7952 47.01H94.8452L90.9752 54.97H89.9252ZM99.7691 54V50.54C99.7691 50.1467 99.6591 49.8333 99.4391 49.6C99.2191 49.36 98.9324 49.24 98.5791 49.24C98.1724 49.24 97.8091 49.39 97.4891 49.69C97.1757 49.9833 96.9257 50.4433 96.7391 51.07L96.5791 49.95C96.7857 49.4233 97.0824 49.03 97.4691 48.77C97.8624 48.51 98.2891 48.38 98.7491 48.38C99.1624 48.38 99.5191 48.47 99.8191 48.65C100.126 48.8233 100.362 49.07 100.529 49.39C100.696 49.7033 100.779 50.0733 100.779 50.5V54H99.7691ZM95.8491 54V46.64H96.8591V54H95.8491Z" fill="var(--colors-neutral-neutral-600)"/>
<path d="M17 70.6111L18.7325 67.7236C18.7692 67.6624 18.8353 67.625 18.9066 67.625H29.4267C29.498 67.625 29.5641 67.6624 29.6008 67.7236L31.3333 70.6111" stroke="var(--colors-neutral-neutral-700)" stroke-width="0.5"/>
<path d="M19.3893 71.8059L19.3893 72.9406C19.3893 72.9736 19.3625 73.0004 19.3296 73.0004L17.0601 73.0004C17.0271 73.0004 17.0004 72.9736 17.0004 72.9406L17.0004 71.8059L19.3893 71.8059Z" stroke="var(--colors-neutral-neutral-700)" stroke-width="0.5"/>
<path d="M25.3607 71.8059L25.3607 72.9406C25.3607 72.9736 25.334 73.0004 25.301 73.0004L23.0316 73.0004C22.9986 73.0004 22.9718 72.9736 22.9718 72.9406L22.9718 71.8059L25.3607 71.8059Z" stroke="var(--colors-neutral-neutral-700)" stroke-width="0.5"/>
<path d="M31.3333 71.8059L31.3333 72.9406C31.3333 72.9736 31.3066 73.0004 31.2736 73.0004L29.0041 73.0004C28.9712 73.0004 28.9444 72.9736 28.9444 72.9406L28.9444 71.8059L31.3333 71.8059Z" stroke="var(--colors-neutral-neutral-700)" stroke-width="0.5"/>
<path d="M21.7778 67.625L20.5834 70.6111" stroke="var(--colors-neutral-neutral-700)" stroke-width="0.5"/>
<path d="M24.1666 67.625V70.6111" stroke="var(--colors-neutral-neutral-700)" stroke-width="0.5"/>
<path d="M26.5556 67.625L27.75 70.6111" stroke="var(--colors-neutral-neutral-700)" stroke-width="0.5"/>
<path d="M17 70.6228V71.8053H31.3333V70.6228C31.3333 70.6162 31.328 70.6108 31.3214 70.6108H17.0119C17.0053 70.6108 17 70.6162 17 70.6228Z" stroke="var(--colors-neutral-neutral-700)" stroke-width="0.5"/>
<path d="M39.86 74V72.33H36.4V71.58L39.48 67.02H40.94V71.43H42.12V72.33H40.94V74H39.86ZM37.52 71.43H39.86V69.33L39.88 67.89L39.1 69.11L37.52 71.43ZM51.3778 68.38C51.8711 68.38 52.3011 68.5033 52.6678 68.75C53.0411 68.99 53.3345 69.3267 53.5478 69.76C53.7611 70.1933 53.8678 70.69 53.8678 71.25C53.8678 71.8033 53.7611 72.2967 53.5478 72.73C53.3345 73.1633 53.0411 73.5033 52.6678 73.75C52.3011 73.9967 51.8711 74.12 51.3778 74.12C51.0045 74.12 50.6611 74.0433 50.3478 73.89C50.0411 73.7367 49.7878 73.5267 49.5878 73.26V75.78H48.5778V68.5H49.5378L49.5678 69.25C49.7678 68.9833 50.0245 68.7733 50.3378 68.62C50.6511 68.46 50.9978 68.38 51.3778 68.38ZM51.1578 73.27C51.4978 73.27 51.7945 73.1833 52.0478 73.01C52.3011 72.8367 52.4978 72.6 52.6378 72.3C52.7778 71.9933 52.8478 71.6433 52.8478 71.25C52.8478 70.85 52.7778 70.5 52.6378 70.2C52.4978 69.8933 52.3011 69.6567 52.0478 69.49C51.7945 69.3167 51.4978 69.23 51.1578 69.23C50.8111 69.23 50.4945 69.33 50.2078 69.53C49.9278 69.7233 49.7211 69.99 49.5878 70.33V72.15C49.7211 72.4967 49.9278 72.77 50.2078 72.97C50.4945 73.17 50.8111 73.27 51.1578 73.27ZM58.4017 74L58.3617 72.75V70.4C58.3617 70.0067 58.2317 69.7 57.9717 69.48C57.7184 69.2533 57.3684 69.14 56.9217 69.14C56.4884 69.14 56.1351 69.24 55.8617 69.44C55.5884 69.6333 55.4384 69.9033 55.4117 70.25H54.4217C54.4551 69.8567 54.5817 69.5233 54.8017 69.25C55.0217 68.97 55.3151 68.7567 55.6817 68.61C56.0484 68.4567 56.4717 68.38 56.9517 68.38C57.4451 68.38 57.8717 68.4633 58.2317 68.63C58.5917 68.79 58.8684 69.0233 59.0617 69.33C59.2617 69.6367 59.3617 70.01 59.3617 70.45V74H58.4017ZM56.4117 74.12C56.0517 74.12 55.7351 74.0567 55.4617 73.93C55.1884 73.7967 54.9751 73.61 54.8217 73.37C54.6684 73.1233 54.5917 72.8367 54.5917 72.51C54.5917 71.9433 54.8084 71.5033 55.2417 71.19C55.6817 70.8767 56.2951 70.72 57.0817 70.72H58.4917V71.47H57.0417C56.5884 71.47 56.2317 71.5567 55.9717 71.73C55.7184 71.9033 55.5917 72.1467 55.5917 72.46C55.5917 72.72 55.6817 72.9233 55.8617 73.07C56.0484 73.2167 56.2984 73.29 56.6117 73.29C57.0117 73.29 57.3651 73.1833 57.6717 72.97C57.9851 72.75 58.2384 72.45 58.4317 72.07L58.5417 72.81C58.3684 73.23 58.1017 73.5533 57.7417 73.78C57.3817 74.0067 56.9384 74.12 56.4117 74.12ZM62.3656 74V66.65H63.3756V74H62.3656ZM60.3356 74V73.18H65.4156V74H60.3356ZM61.0656 67.47V66.65H62.8656V67.47H61.0656ZM68.2695 74V66.65H69.2795V74H68.2695ZM66.2395 74V73.18H71.3195V74H66.2395ZM66.9695 67.47V66.65H68.7695V67.47H66.9695ZM74.7334 74.12C74.1668 74.12 73.6768 74.0067 73.2634 73.78C72.8501 73.5467 72.5334 73.2167 72.3134 72.79C72.0934 72.3567 71.9834 71.84 71.9834 71.24C71.9834 70.64 72.0934 70.1267 72.3134 69.7C72.5401 69.2733 72.8601 68.9467 73.2734 68.72C73.6934 68.4933 74.1934 68.38 74.7734 68.38C75.6601 68.38 76.3201 68.6267 76.7534 69.12C77.1868 69.6067 77.3768 70.2767 77.3234 71.13H72.7834L72.7934 70.37L76.2934 70.38C76.2668 70.0267 76.1134 69.7433 75.8334 69.53C75.5534 69.3167 75.2001 69.21 74.7734 69.21C74.2001 69.21 73.7601 69.39 73.4534 69.75C73.1468 70.11 72.9934 70.62 72.9934 71.28C72.9934 71.6733 73.0601 72.0233 73.1934 72.33C73.3334 72.63 73.5334 72.8633 73.7934 73.03C74.0534 73.1967 74.3668 73.28 74.7334 73.28C75.1668 73.28 75.5268 73.1767 75.8134 72.97C76.1068 72.7633 76.2868 72.4833 76.3534 72.13H77.3634C77.2768 72.75 77.0001 73.2367 76.5334 73.59C76.0668 73.9433 75.4668 74.12 74.7334 74.12ZM81.0273 74C80.6873 74 80.3973 73.9333 80.1573 73.8C79.9173 73.66 79.7373 73.4633 79.6173 73.21C79.4973 72.9567 79.4373 72.66 79.4373 72.32V67.46L80.4473 66.91V72.32C80.4473 72.48 80.4707 72.6267 80.5173 72.76C80.564 72.8933 80.654 72.9967 80.7873 73.07C80.9273 73.1433 81.1307 73.18 81.3973 73.18H83.0473V74H81.0273ZM78.1373 69.32V68.5H82.1673V69.32H78.1373ZM86.6313 74.12C86.1446 74.12 85.7146 74.0367 85.3413 73.87C84.9746 73.6967 84.6913 73.4567 84.4913 73.15C84.2913 72.8367 84.1879 72.4633 84.1813 72.03H85.1313C85.1313 72.4367 85.2679 72.7567 85.5413 72.99C85.8146 73.2233 86.1746 73.34 86.6213 73.34C87.0013 73.34 87.3046 73.27 87.5313 73.13C87.7646 72.9833 87.8813 72.7867 87.8813 72.54C87.8813 72.3467 87.8146 72.1933 87.6813 72.08C87.5546 71.96 87.3846 71.8667 87.1713 71.8C86.9579 71.7333 86.7213 71.6767 86.4613 71.63C86.2079 71.5767 85.9513 71.5167 85.6913 71.45C85.4379 71.3767 85.2046 71.2867 84.9913 71.18C84.7779 71.0667 84.6046 70.9167 84.4713 70.73C84.3379 70.5433 84.2713 70.3 84.2713 70C84.2713 69.6867 84.3613 69.41 84.5413 69.17C84.7213 68.9233 84.9746 68.73 85.3013 68.59C85.6346 68.45 86.0279 68.38 86.4813 68.38C87.1679 68.38 87.7179 68.54 88.1313 68.86C88.5513 69.1733 88.7779 69.6067 88.8113 70.16H87.8613C87.8413 69.84 87.7079 69.5933 87.4613 69.42C87.2213 69.24 86.8946 69.15 86.4813 69.15C86.0946 69.15 85.7979 69.2267 85.5913 69.38C85.3913 69.5333 85.2913 69.7267 85.2913 69.96C85.2913 70.14 85.3579 70.2833 85.4913 70.39C85.6246 70.49 85.7979 70.57 86.0113 70.63C86.2246 70.6833 86.4579 70.7333 86.7113 70.78C86.9713 70.82 87.2279 70.8733 87.4813 70.94C87.7413 71.0067 87.9779 71.1 88.1913 71.22C88.4046 71.3333 88.5746 71.49 88.7013 71.69C88.8346 71.89 88.9013 72.15 88.9013 72.47C88.9013 72.9833 88.6946 73.3867 88.2813 73.68C87.8679 73.9733 87.3179 74.12 86.6313 74.12ZM98.4991 74.97C98.0924 74.2633 97.7991 73.59 97.6191 72.95C97.4457 72.31 97.3591 71.66 97.3591 71C97.3591 70.32 97.4457 69.6633 97.6191 69.03C97.7991 68.39 98.0924 67.72 98.4991 67.02H99.5291C99.1091 67.7 98.8124 68.3667 98.6391 69.02C98.4657 69.6733 98.3791 70.3333 98.3791 71C98.3791 71.6533 98.4657 72.3067 98.6391 72.96C98.8124 73.6133 99.1091 74.2833 99.5291 74.97H98.4991ZM101.713 74V73.24C102.633 72.5533 103.373 71.9567 103.933 71.45C104.493 70.9367 104.9 70.4833 105.153 70.09C105.406 69.69 105.533 69.3267 105.533 69C105.533 68.64 105.42 68.35 105.193 68.13C104.973 67.91 104.663 67.8 104.263 67.8C103.843 67.8 103.496 67.93 103.223 68.19C102.95 68.4433 102.803 68.8033 102.783 69.27H101.713C101.746 68.77 101.873 68.3433 102.093 67.99C102.32 67.63 102.62 67.36 102.993 67.18C103.373 66.9933 103.803 66.9 104.283 66.9C104.763 66.9 105.18 66.9867 105.533 67.16C105.886 67.3267 106.156 67.5667 106.343 67.88C106.536 68.1867 106.633 68.5433 106.633 68.95C106.633 69.39 106.52 69.8233 106.293 70.25C106.073 70.67 105.716 71.1133 105.223 71.58C104.736 72.04 104.09 72.5467 103.283 73.1H106.653V74H101.713ZM107.637 74.97L111.507 67.01H112.557L108.687 74.97H107.637ZM115.501 74V66.65H116.511V74H115.501ZM113.471 74V73.18H118.551V74H113.471ZM114.201 67.47V66.65H116.001V67.47H114.201ZM123.345 74L123.305 72.75V70.4C123.305 70.0067 123.175 69.7 122.915 69.48C122.661 69.2533 122.311 69.14 121.865 69.14C121.431 69.14 121.078 69.24 120.805 69.44C120.531 69.6333 120.381 69.9033 120.355 70.25H119.365C119.398 69.8567 119.525 69.5233 119.745 69.25C119.965 68.97 120.258 68.7567 120.625 68.61C120.991 68.4567 121.415 68.38 121.895 68.38C122.388 68.38 122.815 68.4633 123.175 68.63C123.535 68.79 123.811 69.0233 124.005 69.33C124.205 69.6367 124.305 70.01 124.305 70.45V74H123.345ZM121.355 74.12C120.995 74.12 120.678 74.0567 120.405 73.93C120.131 73.7967 119.918 73.61 119.765 73.37C119.611 73.1233 119.535 72.8367 119.535 72.51C119.535 71.9433 119.751 71.5033 120.185 71.19C120.625 70.8767 121.238 70.72 122.025 70.72H123.435V71.47H121.985C121.531 71.47 121.175 71.5567 120.915 71.73C120.661 71.9033 120.535 72.1467 120.535 72.46C120.535 72.72 120.625 72.9233 120.805 73.07C120.991 73.2167 121.241 73.29 121.555 73.29C121.955 73.29 122.308 73.1833 122.615 72.97C122.928 72.75 123.181 72.45 123.375 72.07L123.485 72.81C123.311 73.23 123.045 73.5533 122.685 73.78C122.325 74.0067 121.881 74.12 121.355 74.12ZM129.289 74V70.53C129.289 70.1433 129.179 69.8333 128.959 69.6C128.739 69.36 128.452 69.24 128.099 69.24C127.692 69.24 127.329 69.39 127.009 69.69C126.695 69.9833 126.445 70.4433 126.259 71.07L126.099 69.94C126.305 69.42 126.602 69.03 126.989 68.77C127.382 68.51 127.809 68.38 128.269 68.38C128.682 68.38 129.039 68.47 129.339 68.65C129.645 68.8233 129.882 69.0667 130.049 69.38C130.215 69.6933 130.299 70.0633 130.299 70.49V74H129.289ZM125.369 74V68.5H126.329L126.379 69.74V74H125.369ZM133.773 74.12C133.206 74.12 132.716 74.0067 132.303 73.78C131.889 73.5467 131.573 73.2167 131.353 72.79C131.133 72.3567 131.023 71.84 131.023 71.24C131.023 70.64 131.133 70.1267 131.353 69.7C131.579 69.2733 131.899 68.9467 132.313 68.72C132.733 68.4933 133.233 68.38 133.813 68.38C134.699 68.38 135.359 68.6267 135.793 69.12C136.226 69.6067 136.416 70.2767 136.363 71.13H131.823L131.833 70.37L135.333 70.38C135.306 70.0267 135.153 69.7433 134.873 69.53C134.593 69.3167 134.239 69.21 133.813 69.21C133.239 69.21 132.799 69.39 132.493 69.75C132.186 70.11 132.033 70.62 132.033 71.28C132.033 71.6733 132.099 72.0233 132.233 72.33C132.373 72.63 132.573 72.8633 132.833 73.03C133.093 73.1967 133.406 73.28 133.773 73.28C134.206 73.28 134.566 73.1767 134.853 72.97C135.146 72.7633 135.326 72.4833 135.393 72.13H136.403C136.316 72.75 136.039 73.2367 135.573 73.59C135.106 73.9433 134.506 74.12 133.773 74.12ZM139.416 74.97H138.386C138.806 74.2833 139.103 73.6133 139.276 72.96C139.45 72.3067 139.536 71.6533 139.536 71C139.536 70.3333 139.45 69.6733 139.276 69.02C139.103 68.3667 138.806 67.7 138.386 67.02H139.416C139.823 67.72 140.113 68.39 140.286 69.03C140.46 69.6633 140.546 70.32 140.546 71C140.546 71.66 140.46 72.31 140.286 72.95C140.113 73.59 139.823 74.2633 139.416 74.97Z" fill="var(--colors-neutral-neutral-600)"/>
</svg>
