<svg width="24" height="24" viewBox="0 0 24 24" fill="none" xmlns="http://www.w3.org/2000/svg">
<rect width="24" height="24" rx="2" fill="#F7F7F7"/>
<path d="M4.96152 20.5C4.26922 20.5 3.67948 20.2564 3.1923 19.7692C2.70513 19.2821 2.46155 18.6923 2.46155 18C2.46155 17.6051 2.54808 17.2343 2.72115 16.8875C2.89421 16.5407 3.14101 16.2449 3.46152 16V11.5H5.75V6H11.8461L16.2 16.1904C16.2872 16.3981 16.359 16.609 16.4154 16.8231C16.4718 17.0372 16.5 17.2628 16.5 17.5C16.5 18.3385 16.2096 19.0481 15.6288 19.6288C15.0481 20.2096 14.3385 20.5 13.5 20.5C12.8551 20.5 12.274 20.3176 11.7567 19.9529C11.2394 19.5881 10.8776 19.1039 10.6711 18.5H7.40192C7.28782 19.0872 7.00128 19.5673 6.5423 19.9404C6.08333 20.3135 5.55641 20.5 4.96152 20.5ZM17.5 19.5V4.5H18.5V18.5H21.5385V19.5H17.5ZM4.96152 19.5C5.37307 19.5 5.72596 19.3529 6.02017 19.0587C6.31441 18.7644 6.46152 18.4115 6.46152 18C6.46152 17.5885 6.31441 17.2356 6.02017 16.9413C5.72596 16.6471 5.37307 16.5 4.96152 16.5C4.54999 16.5 4.19711 16.6471 3.90287 16.9413C3.60864 17.2356 3.46152 17.5885 3.46152 18C3.46152 18.4115 3.60864 18.7644 3.90287 19.0587C4.19711 19.3529 4.54999 19.5 4.96152 19.5ZM13.5 19.5C14.0449 19.5 14.5144 19.3029 14.9086 18.9087C15.3029 18.5144 15.5 18.0449 15.5 17.5C15.5 16.9551 15.3029 16.4856 14.9086 16.0913C14.5144 15.6971 14.0449 15.5 13.5 15.5C12.9551 15.5 12.4856 15.6971 12.0913 16.0913C11.6971 16.4856 11.5 16.9551 11.5 17.5C11.5 18.0449 11.6971 18.5144 12.0913 18.9087C12.4856 19.3029 12.9551 19.5 13.5 19.5ZM7.40192 17.5H10.5058C10.4878 17.1244 10.551 16.7612 10.6952 16.4106C10.8394 16.0599 11.0493 15.7564 11.325 15.5H9.24807L6.32307 12.5H4.46152V15.5769C4.53846 15.5513 4.61859 15.532 4.70192 15.5192C4.78526 15.5064 4.87179 15.5 4.96152 15.5C5.55641 15.5 6.08333 15.6865 6.5423 16.0596C7.00128 16.4327 7.28782 16.9128 7.40192 17.5ZM9.675 14.5H13.5346C13.7013 14.5 13.8647 14.5192 14.025 14.5577C14.1852 14.5962 14.3423 14.6538 14.4961 14.7308L11.1942 7H6.75V11.5L9.675 14.5ZM9.24807 15.5L8.78557 15.025C8.47724 14.7083 8.14391 14.3625 7.78557 13.9875C7.42724 13.6125 7.09391 13.2708 6.78557 12.9625L6.32307 12.5L9.24807 15.5Z" fill="#222222"/>
</svg>
