<svg width="304" height="97" viewBox="0 0 304 97" fill="none" xmlns="http://www.w3.org/2000/svg">
<path d="M304 95.5H0V96.5H304V95.5Z" fill="#E6E6E6"/>
<path d="M19.912 28.144C19.192 28.144 18.56 27.968 18.016 27.616C17.48 27.264 17.064 26.764 16.768 26.116C16.472 25.468 16.324 24.7 16.324 23.812C16.324 22.924 16.472 22.156 16.768 21.508C17.064 20.852 17.48 20.352 18.016 20.008C18.56 19.656 19.192 19.48 19.912 19.48C20.632 19.48 21.26 19.656 21.796 20.008C22.332 20.352 22.748 20.848 23.044 21.496C23.34 22.144 23.488 22.916 23.488 23.812C23.488 24.7 23.34 25.468 23.044 26.116C22.748 26.764 22.332 27.264 21.796 27.616C21.26 27.968 20.632 28.144 19.912 28.144ZM19.912 26.884C20.304 26.884 20.652 26.76 20.956 26.512C21.26 26.264 21.496 25.912 21.664 25.456C21.84 24.992 21.928 24.444 21.928 23.812C21.928 23.172 21.84 22.624 21.664 22.168C21.496 21.704 21.26 21.352 20.956 21.112C20.652 20.864 20.304 20.74 19.912 20.74C19.52 20.74 19.168 20.864 18.856 21.112C18.552 21.36 18.316 21.716 18.148 22.18C17.98 22.636 17.896 23.18 17.896 23.812C17.896 24.444 17.98 24.992 18.148 25.456C18.316 25.912 18.552 26.264 18.856 26.512C19.168 26.76 19.52 26.884 19.912 26.884ZM28.1487 21.232C28.7407 21.232 29.2567 21.384 29.6967 21.688C30.1447 21.984 30.4967 22.392 30.7527 22.912C31.0087 23.432 31.1367 24.024 31.1367 24.688C31.1367 25.344 31.0087 25.936 30.7527 26.464C30.4967 26.984 30.1447 27.396 29.6967 27.7C29.2567 27.996 28.7407 28.144 28.1487 28.144C27.7167 28.144 27.3167 28.056 26.9487 27.88C26.5807 27.696 26.2807 27.456 26.0487 27.16L26.0127 28H24.6567V19.156H26.0727V22.168C26.3127 21.88 26.6127 21.652 26.9727 21.484C27.3327 21.316 27.7247 21.232 28.1487 21.232ZM27.8127 26.956C28.1887 26.956 28.5167 26.856 28.7967 26.656C29.0767 26.456 29.2967 26.188 29.4567 25.852C29.6167 25.508 29.6967 25.12 29.6967 24.688C29.6967 24.248 29.6167 23.86 29.4567 23.524C29.2967 23.18 29.0767 22.912 28.7967 22.72C28.5167 22.52 28.1887 22.42 27.8127 22.42C27.4207 22.42 27.0687 22.536 26.7567 22.768C26.4447 22.992 26.2167 23.304 26.0727 23.704V25.66C26.2167 26.052 26.4447 26.368 26.7567 26.608C27.0687 26.84 27.4207 26.956 27.8127 26.956ZM35.6774 28.144C35.0854 28.144 34.5614 28.044 34.1054 27.844C33.6574 27.636 33.3094 27.344 33.0614 26.968C32.8134 26.592 32.6854 26.148 32.6774 25.636H34.0214C34.0134 26.084 34.1574 26.436 34.4534 26.692C34.7574 26.948 35.1654 27.076 35.6774 27.076C36.0854 27.076 36.4134 27 36.6614 26.848C36.9094 26.696 37.0334 26.488 37.0334 26.224C37.0334 26.016 36.9574 25.848 36.8054 25.72C36.6534 25.592 36.4494 25.492 36.1934 25.42C35.9454 25.348 35.6694 25.284 35.3654 25.228C35.0694 25.164 34.7694 25.092 34.4654 25.012C34.1614 24.924 33.8814 24.812 33.6254 24.676C33.3774 24.532 33.1774 24.344 33.0254 24.112C32.8734 23.88 32.7974 23.584 32.7974 23.224C32.7974 22.832 32.9054 22.488 33.1214 22.192C33.3454 21.888 33.6614 21.652 34.0694 21.484C34.4774 21.316 34.9574 21.232 35.5094 21.232C36.3414 21.232 37.0134 21.428 37.5254 21.82C38.0374 22.204 38.3134 22.736 38.3534 23.416H37.0214C36.9974 23.056 36.8494 22.78 36.5774 22.588C36.3134 22.396 35.9574 22.3 35.5094 22.3C35.1014 22.3 34.7854 22.38 34.5614 22.54C34.3454 22.7 34.2374 22.904 34.2374 23.152C34.2374 23.36 34.3134 23.52 34.4654 23.632C34.6254 23.744 34.8294 23.832 35.0774 23.896C35.3254 23.96 35.6014 24.02 35.9054 24.076C36.2094 24.124 36.5094 24.188 36.8054 24.268C37.1094 24.348 37.3854 24.46 37.6334 24.604C37.8894 24.74 38.0934 24.928 38.2454 25.168C38.4054 25.408 38.4854 25.72 38.4854 26.104C38.4854 26.736 38.2294 27.236 37.7174 27.604C37.2134 27.964 36.5334 28.144 35.6774 28.144ZM43.8541 28C43.4301 28 43.0661 27.912 42.7621 27.736C42.4581 27.56 42.2261 27.312 42.0661 26.992C41.9061 26.664 41.8261 26.284 41.8261 25.852V20.176L43.2661 19.456V25.852C43.2661 26.052 43.2941 26.228 43.3501 26.38C43.4061 26.532 43.5141 26.648 43.6741 26.728C43.8421 26.8 44.0821 26.836 44.3941 26.836H46.2781V28H43.8541ZM40.3501 22.54V21.376H45.1861V22.54H40.3501ZM52.7028 28L52.6428 26.596V23.62C52.6428 23.204 52.5028 22.876 52.2228 22.636C51.9428 22.396 51.5548 22.276 51.0588 22.276C50.5868 22.276 50.1988 22.384 49.8948 22.6C49.5988 22.816 49.4308 23.112 49.3908 23.488H47.9988C48.0388 23.016 48.1908 22.612 48.4548 22.276C48.7268 21.94 49.0868 21.684 49.5348 21.508C49.9908 21.324 50.5148 21.232 51.1068 21.232C51.7148 21.232 52.2388 21.328 52.6788 21.52C53.1268 21.712 53.4708 21.992 53.7108 22.36C53.9508 22.728 54.0708 23.176 54.0708 23.704V28H52.7028ZM50.3988 28.144C49.9668 28.144 49.5828 28.064 49.2468 27.904C48.9188 27.744 48.6628 27.516 48.4788 27.22C48.2948 26.924 48.2028 26.58 48.2028 26.188C48.2028 25.508 48.4668 24.98 48.9948 24.604C49.5228 24.22 50.2548 24.028 51.1908 24.028H52.8108V25.06L51.1428 25.072C50.6628 25.072 50.2868 25.164 50.0148 25.348C49.7428 25.524 49.6068 25.78 49.6068 26.116C49.6068 26.38 49.7028 26.592 49.8948 26.752C50.0948 26.912 50.3668 26.992 50.7108 26.992C51.1508 26.992 51.5428 26.876 51.8868 26.644C52.2388 26.404 52.5228 26.076 52.7388 25.66L52.8948 26.668C52.6868 27.156 52.3708 27.524 51.9468 27.772C51.5228 28.02 51.0068 28.144 50.3988 28.144ZM59.0794 28.144C58.3914 28.144 57.7954 28.004 57.2914 27.724C56.7874 27.444 56.3994 27.044 56.1274 26.524C55.8634 26.004 55.7314 25.392 55.7314 24.688C55.7314 23.968 55.8714 23.352 56.1514 22.84C56.4314 22.32 56.8234 21.924 57.3274 21.652C57.8394 21.372 58.4354 21.232 59.1154 21.232C59.6754 21.232 60.1754 21.336 60.6154 21.544C61.0554 21.744 61.4114 22.028 61.6834 22.396C61.9554 22.764 62.1074 23.204 62.1394 23.716H60.7114C60.6474 23.292 60.4714 22.972 60.1834 22.756C59.9034 22.532 59.5474 22.42 59.1154 22.42C58.7234 22.42 58.3794 22.512 58.0834 22.696C57.7954 22.872 57.5714 23.128 57.4114 23.464C57.2514 23.8 57.1714 24.208 57.1714 24.688C57.1714 25.408 57.3474 25.972 57.6994 26.38C58.0594 26.78 58.5194 26.98 59.0794 26.98C59.3514 26.98 59.5994 26.928 59.8234 26.824C60.0554 26.712 60.2514 26.56 60.4114 26.368C60.5794 26.176 60.6914 25.952 60.7474 25.696H62.1874C62.1154 26.192 61.9354 26.624 61.6474 26.992C61.3674 27.36 61.0034 27.644 60.5554 27.844C60.1154 28.044 59.6234 28.144 59.0794 28.144ZM66.0081 28V19.156H67.4481V28H66.0081ZM63.6681 28V26.836H69.8121V28H63.6681ZM64.5321 20.32V19.156H66.7281V20.32H64.5321ZM74.6048 28.144C73.9088 28.144 73.3088 28.008 72.8048 27.736C72.3008 27.456 71.9128 27.056 71.6408 26.536C71.3768 26.016 71.2448 25.396 71.2448 24.676C71.2448 23.956 71.3808 23.34 71.6528 22.828C71.9248 22.308 72.3168 21.912 72.8288 21.64C73.3408 21.368 73.9528 21.232 74.6648 21.232C75.7688 21.232 76.5808 21.54 77.1008 22.156C77.6288 22.772 77.8568 23.616 77.7848 24.688H72.3848L72.3968 23.644L76.3208 23.656C76.2888 23.272 76.1208 22.964 75.8168 22.732C75.5128 22.5 75.1288 22.384 74.6648 22.384C74.0088 22.384 73.5128 22.588 73.1768 22.996C72.8408 23.404 72.6728 23.984 72.6728 24.736C72.6728 25.168 72.7488 25.556 72.9008 25.9C73.0528 26.236 73.2688 26.5 73.5488 26.692C73.8368 26.876 74.1888 26.968 74.6048 26.968C75.0768 26.968 75.4688 26.856 75.7808 26.632C76.1008 26.408 76.2968 26.108 76.3688 25.732H77.8088C77.7128 26.476 77.3768 27.064 76.8008 27.496C76.2328 27.928 75.5008 28.144 74.6048 28.144Z" fill="#222222"/>
<path d="M275.4 26.7019L274.692 25.9942L280 20.6865L285.308 25.9942L284.6 26.7019L280 22.1019L275.4 26.7019Z" fill="#222222"/>
<path d="M23.017 63.8636C23.017 64.6307 22.8786 65.2936 22.6016 65.8523C22.3246 66.411 21.9446 66.8419 21.4616 67.1449C20.9787 67.4479 20.4271 67.5994 19.8068 67.5994C19.1866 67.5994 18.6349 67.4479 18.152 67.1449C17.669 66.8419 17.2891 66.411 17.0121 65.8523C16.7351 65.2936 16.5966 64.6307 16.5966 63.8636C16.5966 63.0966 16.7351 62.4337 17.0121 61.875C17.2891 61.3163 17.669 60.8854 18.152 60.5824C18.6349 60.2794 19.1866 60.1278 19.8068 60.1278C20.4271 60.1278 20.9787 60.2794 21.4616 60.5824C21.9446 60.8854 22.3246 61.3163 22.6016 61.875C22.8786 62.4337 23.017 63.0966 23.017 63.8636ZM22.1648 63.8636C22.1648 63.2339 22.0594 62.7024 21.8487 62.2692C21.6404 61.8359 21.3575 61.508 21 61.2855C20.6449 61.063 20.2472 60.9517 19.8068 60.9517C19.3665 60.9517 18.9676 61.063 18.6101 61.2855C18.255 61.508 17.9721 61.8359 17.7614 62.2692C17.553 62.7024 17.4489 63.2339 17.4489 63.8636C17.4489 64.4934 17.553 65.0249 17.7614 65.4581C17.9721 65.8913 18.255 66.2192 18.6101 66.4418C18.9676 66.6643 19.3665 66.7756 19.8068 66.7756C20.2472 66.7756 20.6449 66.6643 21 66.4418C21.3575 66.2192 21.6404 65.8913 21.8487 65.4581C22.0594 65.0249 22.1648 64.4934 22.1648 63.8636ZM24.4979 67.5V60.2273H25.3359V62.9119H25.407C25.4685 62.8172 25.5537 62.6965 25.6626 62.5497C25.7739 62.4006 25.9325 62.268 26.1385 62.152C26.3468 62.0336 26.6286 61.9744 26.9837 61.9744C27.4429 61.9744 27.8478 62.0893 28.1982 62.3189C28.5485 62.5485 28.822 62.8741 29.0185 63.2955C29.215 63.7169 29.3132 64.214 29.3132 64.7869C29.3132 65.3646 29.215 65.8653 29.0185 66.2891C28.822 66.7105 28.5497 67.0372 28.2017 67.2692C27.8537 67.4988 27.4524 67.6136 26.9979 67.6136C26.6475 67.6136 26.367 67.5556 26.1562 67.4396C25.9455 67.3213 25.7834 67.1875 25.6697 67.0384C25.5561 66.8868 25.4685 66.7614 25.407 66.6619H25.3075V67.5H24.4979ZM25.3217 64.7727C25.3217 65.1847 25.3821 65.5481 25.5028 65.8629C25.6236 66.1754 25.8 66.4205 26.032 66.598C26.264 66.7732 26.5481 66.8608 26.8842 66.8608C27.2346 66.8608 27.527 66.7685 27.7614 66.5838C27.9981 66.3968 28.1757 66.1458 28.294 65.831C28.4148 65.5137 28.4751 65.161 28.4751 64.7727C28.4751 64.3892 28.416 64.0436 28.2976 63.7358C28.1816 63.4257 28.0052 63.1806 27.7685 63.0007C27.5341 62.8184 27.2393 62.7273 26.8842 62.7273C26.5433 62.7273 26.2569 62.8137 26.0249 62.9865C25.7929 63.157 25.6177 63.3961 25.4993 63.7038C25.3809 64.0092 25.3217 64.3655 25.3217 64.7727ZM34.4588 63.267L33.706 63.4801C33.6586 63.3546 33.5888 63.2327 33.4964 63.1143C33.4065 62.9936 33.2834 62.8942 33.1271 62.8161C32.9709 62.7379 32.7708 62.6989 32.527 62.6989C32.1932 62.6989 31.915 62.7758 31.6925 62.9297C31.4723 63.0812 31.3622 63.2741 31.3622 63.5085C31.3622 63.7169 31.438 63.8814 31.5895 64.0021C31.741 64.1229 31.9777 64.2235 32.2997 64.304L33.1094 64.5028C33.5971 64.6212 33.9605 64.8023 34.1996 65.0462C34.4387 65.2876 34.5582 65.599 34.5582 65.9801C34.5582 66.2926 34.4683 66.572 34.2884 66.8182C34.1108 67.0644 33.8622 67.2585 33.5426 67.4006C33.223 67.5426 32.8513 67.6136 32.4276 67.6136C31.8712 67.6136 31.4107 67.4929 31.0462 67.2514C30.6816 67.0099 30.4508 66.6572 30.3537 66.1932L31.1491 65.9943C31.2249 66.2879 31.3681 66.508 31.5788 66.6548C31.7919 66.8016 32.0701 66.875 32.4134 66.875C32.804 66.875 33.1141 66.7921 33.3438 66.6264C33.5758 66.4583 33.6918 66.2571 33.6918 66.0227C33.6918 65.8333 33.6255 65.6747 33.4929 65.5469C33.3603 65.4167 33.1567 65.3196 32.8821 65.2557L31.973 65.0426C31.4735 64.9242 31.1065 64.7408 30.8722 64.4922C30.6402 64.2412 30.5241 63.9276 30.5241 63.5511C30.5241 63.2434 30.6106 62.9711 30.7834 62.7344C30.9586 62.4976 31.1965 62.3118 31.4972 62.1768C31.8002 62.0419 32.1435 61.9744 32.527 61.9744C33.0668 61.9744 33.4905 62.0928 33.7983 62.3295C34.1084 62.5663 34.3286 62.8788 34.4588 63.267ZM38.1919 62.0455V62.7557H35.3652V62.0455H38.1919ZM36.1891 60.7386H37.0272V65.9375C37.0272 66.1742 37.0615 66.3518 37.1301 66.4702C37.2012 66.5862 37.2911 66.6643 37.4 66.7045C37.5113 66.7424 37.6285 66.7614 37.7516 66.7614C37.8439 66.7614 37.9197 66.7566 37.9789 66.7472C38.0381 66.7353 38.0854 66.7259 38.1209 66.7188L38.2914 67.4716C38.2346 67.4929 38.1552 67.5142 38.0534 67.5355C37.9516 67.5592 37.8226 67.571 37.6664 67.571C37.4296 67.571 37.1976 67.5201 36.9703 67.4183C36.7454 67.3165 36.5584 67.1615 36.4093 66.9531C36.2625 66.7448 36.1891 66.482 36.1891 66.1648V60.7386ZM41.0577 67.6278C40.7121 67.6278 40.3984 67.5627 40.1167 67.4325C39.8349 67.3 39.6112 67.1094 39.4455 66.8608C39.2798 66.6098 39.1969 66.3068 39.1969 65.9517C39.1969 65.6392 39.2585 65.3859 39.3816 65.1918C39.5047 64.9953 39.6692 64.8414 39.8752 64.7301C40.0811 64.6188 40.3084 64.536 40.557 64.4815C40.8079 64.4247 41.0601 64.3797 41.3134 64.3466C41.6448 64.304 41.9135 64.272 42.1195 64.2507C42.3278 64.227 42.4793 64.188 42.574 64.1335C42.6711 64.0791 42.7196 63.9844 42.7196 63.8494V63.821C42.7196 63.4706 42.6238 63.1984 42.432 63.0043C42.2426 62.8101 41.955 62.7131 41.5691 62.7131C41.169 62.7131 40.8553 62.8007 40.628 62.9759C40.4007 63.151 40.2409 63.3381 40.1486 63.5369L39.3532 63.2528C39.4952 62.9214 39.6846 62.6634 39.9213 62.4787C40.1605 62.2917 40.4209 62.1615 40.7026 62.0881C40.9867 62.0123 41.266 61.9744 41.5407 61.9744C41.7158 61.9744 41.9171 61.9957 42.1444 62.0384C42.374 62.0786 42.5953 62.1626 42.8084 62.2905C43.0239 62.4183 43.2026 62.6113 43.3446 62.8693C43.4867 63.1274 43.5577 63.473 43.5577 63.9062V67.5H42.7196V66.7614H42.677C42.6202 66.8797 42.5255 67.0064 42.3929 67.1413C42.2604 67.2763 42.084 67.3911 41.8638 67.4858C41.6436 67.5805 41.3749 67.6278 41.0577 67.6278ZM41.1855 66.875C41.517 66.875 41.7963 66.8099 42.0236 66.6797C42.2533 66.5495 42.4261 66.3814 42.5421 66.1754C42.6605 65.9695 42.7196 65.7528 42.7196 65.5256V64.7585C42.6841 64.8011 42.606 64.8402 42.4853 64.8757C42.3669 64.9089 42.2296 64.9384 42.0733 64.9645C41.9194 64.9882 41.7691 65.0095 41.6223 65.0284C41.4779 65.045 41.3607 65.0592 41.2708 65.071C41.053 65.0994 40.8494 65.1456 40.66 65.2095C40.473 65.2711 40.3214 65.3646 40.2054 65.4901C40.0918 65.6132 40.035 65.7812 40.035 65.9943C40.035 66.2855 40.1427 66.5057 40.3581 66.6548C40.5759 66.8016 40.8517 66.875 41.1855 66.875ZM47.3033 67.6136C46.7919 67.6136 46.3516 67.4929 45.9822 67.2514C45.6129 67.0099 45.3288 66.6773 45.13 66.2536C44.9311 65.8298 44.8317 65.3456 44.8317 64.8011C44.8317 64.2472 44.9335 63.7583 45.1371 63.3345C45.343 62.9084 45.6295 62.5758 45.9964 62.3366C46.3658 62.0952 46.7966 61.9744 47.2891 61.9744C47.6726 61.9744 48.0182 62.0455 48.326 62.1875C48.6338 62.3295 48.8859 62.5284 49.0824 62.7841C49.2789 63.0398 49.4008 63.3381 49.4482 63.679H48.6101C48.5462 63.4304 48.4041 63.2102 48.1839 63.0185C47.9661 62.8243 47.6726 62.7273 47.3033 62.7273C46.9766 62.7273 46.6901 62.8125 46.4439 62.983C46.2 63.151 46.0095 63.389 45.8722 63.6967C45.7372 64.0021 45.6697 64.3608 45.6697 64.7727C45.6697 65.1941 45.736 65.5611 45.8686 65.8736C46.0036 66.1861 46.1929 66.4287 46.4368 66.6016C46.683 66.7744 46.9718 66.8608 47.3033 66.8608C47.5211 66.8608 47.7188 66.8229 47.8963 66.7472C48.0739 66.6714 48.2242 66.5625 48.3473 66.4205C48.4704 66.2784 48.558 66.108 48.6101 65.9091H49.4482C49.4008 66.2311 49.2836 66.5211 49.0966 66.7791C48.9119 67.0348 48.6669 67.2384 48.3615 67.3899C48.0585 67.5391 47.7057 67.6136 47.3033 67.6136ZM51.5114 60.2273V67.5H50.6733V60.2273H51.5114ZM55.3333 67.6136C54.8077 67.6136 54.3543 67.4976 53.9732 67.2656C53.5944 67.0312 53.302 66.7045 53.0961 66.2855C52.8925 65.8641 52.7907 65.3741 52.7907 64.8153C52.7907 64.2566 52.8925 63.7642 53.0961 63.3381C53.302 62.9096 53.5885 62.5758 53.9554 62.3366C54.3248 62.0952 54.7556 61.9744 55.248 61.9744C55.5321 61.9744 55.8127 62.0218 56.0897 62.1165C56.3667 62.2112 56.6188 62.3651 56.8461 62.5781C57.0733 62.7888 57.2544 63.0682 57.3894 63.4162C57.5243 63.7642 57.5918 64.1927 57.5918 64.7017V65.0568H53.3873V64.3324H56.7395C56.7395 64.0246 56.678 63.75 56.5549 63.5085C56.4341 63.267 56.2613 63.0765 56.0364 62.9368C55.8139 62.7971 55.5511 62.7273 55.248 62.7273C54.9142 62.7273 54.6254 62.8101 54.3816 62.9759C54.1401 63.1392 53.9542 63.3523 53.824 63.6151C53.6938 63.8778 53.6287 64.1596 53.6287 64.4602V64.9432C53.6287 65.3551 53.6998 65.7043 53.8418 65.9908C53.9862 66.2749 54.1863 66.4915 54.4419 66.6406C54.6976 66.7874 54.9947 66.8608 55.3333 66.8608C55.5534 66.8608 55.7523 66.83 55.9299 66.7685C56.1098 66.7045 56.2649 66.6098 56.3951 66.4844C56.5253 66.3565 56.6259 66.1979 56.6969 66.0085L57.5066 66.2358C57.4213 66.5104 57.2781 66.7519 57.0769 66.9602C56.8757 67.1662 56.6271 67.3272 56.3311 67.4432C56.0352 67.5568 55.7026 67.6136 55.3333 67.6136ZM64.0513 62.0455V62.7557H61.2246V62.0455H64.0513ZM62.0485 60.7386H62.8865V65.9375C62.8865 66.1742 62.9209 66.3518 62.9895 66.4702C63.0605 66.5862 63.1505 66.6643 63.2594 66.7045C63.3707 66.7424 63.4879 66.7614 63.611 66.7614C63.7033 66.7614 63.7791 66.7566 63.8382 66.7472C63.8974 66.7353 63.9448 66.7259 63.9803 66.7188L64.1507 67.4716C64.0939 67.4929 64.0146 67.5142 63.9128 67.5355C63.811 67.5592 63.682 67.571 63.5257 67.571C63.289 67.571 63.057 67.5201 62.8297 67.4183C62.6048 67.3165 62.4178 67.1615 62.2686 66.9531C62.1219 66.7448 62.0485 66.482 62.0485 66.1648V60.7386ZM65.8517 69.5455C65.7097 69.5455 65.583 69.5336 65.4718 69.5099C65.3605 69.4886 65.2836 69.4673 65.2409 69.446L65.454 68.7074C65.6576 68.7595 65.8375 68.7784 65.9938 68.7642C66.15 68.75 66.2885 68.6802 66.4093 68.5547C66.5324 68.4316 66.6448 68.2315 66.7466 67.9545L66.9029 67.5284L64.8858 62.0455H65.7949L67.3006 66.392H67.3574L68.8631 62.0455H69.7722L67.4569 68.2955C67.3527 68.5772 67.2237 68.8104 67.0698 68.995C66.9159 69.1821 66.7372 69.3205 66.5336 69.4105C66.3323 69.5005 66.1051 69.5455 65.8517 69.5455ZM70.8784 69.5455V62.0455H71.688V62.9119H71.7875C71.849 62.8172 71.9342 62.6965 72.0431 62.5497C72.1544 62.4006 72.313 62.268 72.519 62.152C72.7273 62.0336 73.0091 61.9744 73.3642 61.9744C73.8234 61.9744 74.2283 62.0893 74.5787 62.3189C74.929 62.5485 75.2025 62.8741 75.399 63.2955C75.5955 63.7169 75.6937 64.214 75.6937 64.7869C75.6937 65.3646 75.5955 65.8653 75.399 66.2891C75.2025 66.7105 74.9302 67.0372 74.5822 67.2692C74.2342 67.4988 73.8329 67.6136 73.3784 67.6136C73.028 67.6136 72.7475 67.5556 72.5368 67.4396C72.3261 67.3213 72.1639 67.1875 72.0502 67.0384C71.9366 66.8868 71.849 66.7614 71.7875 66.6619H71.7164V69.5455H70.8784ZM71.7022 64.7727C71.7022 65.1847 71.7626 65.5481 71.8833 65.8629C72.0041 66.1754 72.1805 66.4205 72.4125 66.598C72.6445 66.7732 72.9286 66.8608 73.2647 66.8608C73.6151 66.8608 73.9075 66.7685 74.1419 66.5838C74.3786 66.3968 74.5562 66.1458 74.6745 65.831C74.7953 65.5137 74.8556 65.161 74.8556 64.7727C74.8556 64.3892 74.7965 64.0436 74.6781 63.7358C74.5621 63.4257 74.3857 63.1806 74.149 63.0007C73.9146 62.8184 73.6199 62.7273 73.2647 62.7273C72.9238 62.7273 72.6374 62.8137 72.4054 62.9865C72.1734 63.157 71.9982 63.3961 71.8798 63.7038C71.7614 64.0092 71.7022 64.3655 71.7022 64.7727ZM79.2591 67.6136C78.7335 67.6136 78.2801 67.4976 77.899 67.2656C77.5202 67.0312 77.2278 66.7045 77.0218 66.2855C76.8182 65.8641 76.7164 65.3741 76.7164 64.8153C76.7164 64.2566 76.8182 63.7642 77.0218 63.3381C77.2278 62.9096 77.5143 62.5758 77.8812 62.3366C78.2505 62.0952 78.6814 61.9744 79.1738 61.9744C79.4579 61.9744 79.7385 62.0218 80.0154 62.1165C80.2924 62.2112 80.5446 62.3651 80.7718 62.5781C80.9991 62.7888 81.1802 63.0682 81.3152 63.4162C81.4501 63.7642 81.5176 64.1927 81.5176 64.7017V65.0568H77.313V64.3324H80.6653C80.6653 64.0246 80.6038 63.75 80.4806 63.5085C80.3599 63.267 80.1871 63.0765 79.9622 62.9368C79.7396 62.7971 79.4769 62.7273 79.1738 62.7273C78.84 62.7273 78.5512 62.8101 78.3074 62.9759C78.0659 63.1392 77.88 63.3523 77.7498 63.6151C77.6196 63.8778 77.5545 64.1596 77.5545 64.4602V64.9432C77.5545 65.3551 77.6255 65.7043 77.7676 65.9908C77.912 66.2749 78.112 66.4915 78.3677 66.6406C78.6234 66.7874 78.9205 66.8608 79.2591 66.8608C79.4792 66.8608 79.6781 66.83 79.8556 66.7685C80.0356 66.7045 80.1906 66.6098 80.3208 66.4844C80.4511 66.3565 80.5517 66.1979 80.6227 66.0085L81.4324 66.2358C81.3471 66.5104 81.2039 66.7519 81.0027 66.9602C80.8014 67.1662 80.5529 67.3272 80.2569 67.4432C79.961 67.5568 79.6284 67.6136 79.2591 67.6136Z" fill="#222222"/>
<path d="M144.881 67.5V60.2273H149.241V61.0085H145.761V63.4659H148.915V64.2472H145.761V67.5H144.881ZM150.636 67.5V62.0455H151.474V67.5H150.636ZM151.062 61.1364C150.899 61.1364 150.758 61.0807 150.64 60.9695C150.524 60.8582 150.466 60.7244 150.466 60.5682C150.466 60.4119 150.524 60.2782 150.64 60.1669C150.758 60.0556 150.899 60 151.062 60C151.226 60 151.365 60.0556 151.481 60.1669C151.6 60.2782 151.659 60.4119 151.659 60.5682C151.659 60.7244 151.6 60.8582 151.481 60.9695C151.365 61.0807 151.226 61.1364 151.062 61.1364ZM153.009 67.5V62.0455H153.819V62.8693H153.876C153.975 62.5994 154.155 62.3804 154.415 62.2124C154.676 62.0443 154.969 61.9602 155.296 61.9602C155.358 61.9602 155.435 61.9614 155.527 61.9638C155.619 61.9661 155.689 61.9697 155.737 61.9744V62.8267C155.708 62.8196 155.643 62.8089 155.541 62.7947C155.442 62.7782 155.336 62.7699 155.225 62.7699C154.96 62.7699 154.723 62.8255 154.515 62.9368C154.309 63.0457 154.146 63.1972 154.025 63.3913C153.906 63.5831 153.847 63.8021 153.847 64.0483V67.5H153.009ZM158.851 67.6136C158.325 67.6136 157.872 67.4976 157.491 67.2656C157.112 67.0312 156.82 66.7045 156.614 66.2855C156.41 65.8641 156.308 65.3741 156.308 64.8153C156.308 64.2566 156.41 63.7642 156.614 63.3381C156.82 62.9096 157.106 62.5758 157.473 62.3366C157.842 62.0952 158.273 61.9744 158.766 61.9744C159.05 61.9744 159.33 62.0218 159.607 62.1165C159.884 62.2112 160.136 62.3651 160.364 62.5781C160.591 62.7888 160.772 63.0682 160.907 63.4162C161.042 63.7642 161.109 64.1927 161.109 64.7017V65.0568H156.905V64.3324H160.257C160.257 64.0246 160.196 63.75 160.072 63.5085C159.952 63.267 159.779 63.0765 159.554 62.9368C159.331 62.7971 159.069 62.7273 158.766 62.7273C158.432 62.7273 158.143 62.8101 157.899 62.9759C157.658 63.1392 157.472 63.3523 157.342 63.6151C157.211 63.8778 157.146 64.1596 157.146 64.4602V64.9432C157.146 65.3551 157.217 65.7043 157.359 65.9908C157.504 66.2749 157.704 66.4915 157.96 66.6406C158.215 66.7874 158.512 66.8608 158.851 66.8608C159.071 66.8608 159.27 66.83 159.447 66.7685C159.627 66.7045 159.782 66.6098 159.913 66.4844C160.043 66.3565 160.143 66.1979 160.214 66.0085L161.024 66.2358C160.939 66.5104 160.796 66.7519 160.594 66.9602C160.393 67.1662 160.145 67.3272 159.849 67.4432C159.553 67.5568 159.22 67.6136 158.851 67.6136ZM166.802 67.6278C166.456 67.6278 166.143 67.5627 165.861 67.4325C165.579 67.3 165.355 67.1094 165.19 66.8608C165.024 66.6098 164.941 66.3068 164.941 65.9517C164.941 65.6392 165.003 65.3859 165.126 65.1918C165.249 64.9953 165.413 64.8414 165.619 64.7301C165.825 64.6188 166.053 64.536 166.301 64.4815C166.552 64.4247 166.804 64.3797 167.058 64.3466C167.389 64.304 167.658 64.272 167.864 64.2507C168.072 64.227 168.223 64.188 168.318 64.1335C168.415 64.0791 168.464 63.9844 168.464 63.8494V63.821C168.464 63.4706 168.368 63.1984 168.176 63.0043C167.987 62.8101 167.699 62.7131 167.313 62.7131C166.913 62.7131 166.599 62.8007 166.372 62.9759C166.145 63.151 165.985 63.3381 165.893 63.5369L165.097 63.2528C165.239 62.9214 165.429 62.6634 165.665 62.4787C165.905 62.2917 166.165 62.1615 166.447 62.0881C166.731 62.0123 167.01 61.9744 167.285 61.9744C167.46 61.9744 167.661 61.9957 167.888 62.0384C168.118 62.0786 168.339 62.1626 168.553 62.2905C168.768 62.4183 168.947 62.6113 169.089 62.8693C169.231 63.1274 169.302 63.473 169.302 63.9062V67.5H168.464V66.7614H168.421C168.364 66.8797 168.27 67.0064 168.137 67.1413C168.004 67.2763 167.828 67.3911 167.608 67.4858C167.388 67.5805 167.119 67.6278 166.802 67.6278ZM166.93 66.875C167.261 66.875 167.54 66.8099 167.768 66.6797C167.997 66.5495 168.17 66.3814 168.286 66.1754C168.405 65.9695 168.464 65.7528 168.464 65.5256V64.7585C168.428 64.8011 168.35 64.8402 168.229 64.8757C168.111 64.9089 167.974 64.9384 167.817 64.9645C167.664 64.9882 167.513 65.0095 167.366 65.0284C167.222 65.045 167.105 65.0592 167.015 65.071C166.797 65.0994 166.594 65.1456 166.404 65.2095C166.217 65.2711 166.066 65.3646 165.95 65.4901C165.836 65.6132 165.779 65.7812 165.779 65.9943C165.779 66.2855 165.887 66.5057 166.102 66.6548C166.32 66.8016 166.596 66.875 166.93 66.875ZM171.67 60.2273V67.5H170.831V60.2273H171.67ZM174.81 67.6278C174.464 67.6278 174.15 67.5627 173.869 67.4325C173.587 67.3 173.363 67.1094 173.197 66.8608C173.032 66.6098 172.949 66.3068 172.949 65.9517C172.949 65.6392 173.01 65.3859 173.134 65.1918C173.257 64.9953 173.421 64.8414 173.627 64.7301C173.833 64.6188 174.06 64.536 174.309 64.4815C174.56 64.4247 174.812 64.3797 175.065 64.3466C175.397 64.304 175.665 64.272 175.871 64.2507C176.08 64.227 176.231 64.188 176.326 64.1335C176.423 64.0791 176.472 63.9844 176.472 63.8494V63.821C176.472 63.4706 176.376 63.1984 176.184 63.0043C175.995 62.8101 175.707 62.7131 175.321 62.7131C174.921 62.7131 174.607 62.8007 174.38 62.9759C174.153 63.151 173.993 63.3381 173.901 63.5369L173.105 63.2528C173.247 62.9214 173.437 62.6634 173.673 62.4787C173.912 62.2917 174.173 62.1615 174.455 62.0881C174.739 62.0123 175.018 61.9744 175.293 61.9744C175.468 61.9744 175.669 61.9957 175.896 62.0384C176.126 62.0786 176.347 62.1626 176.56 62.2905C176.776 62.4183 176.955 62.6113 177.097 62.8693C177.239 63.1274 177.31 63.473 177.31 63.9062V67.5H176.472V66.7614H176.429C176.372 66.8797 176.277 67.0064 176.145 67.1413C176.012 67.2763 175.836 67.3911 175.616 67.4858C175.396 67.5805 175.127 67.6278 174.81 67.6278ZM174.938 66.875C175.269 66.875 175.548 66.8099 175.776 66.6797C176.005 66.5495 176.178 66.3814 176.294 66.1754C176.412 65.9695 176.472 65.7528 176.472 65.5256V64.7585C176.436 64.8011 176.358 64.8402 176.237 64.8757C176.119 64.9089 175.982 64.9384 175.825 64.9645C175.671 64.9882 175.521 65.0095 175.374 65.0284C175.23 65.045 175.113 65.0592 175.023 65.071C174.805 65.0994 174.601 65.1456 174.412 65.2095C174.225 65.2711 174.073 65.3646 173.957 65.4901C173.844 65.6132 173.787 65.7812 173.787 65.9943C173.787 66.2855 173.895 66.5057 174.11 66.6548C174.328 66.8016 174.604 66.875 174.938 66.875ZM178.839 67.5V62.0455H179.649V62.8693H179.706C179.805 62.5994 179.985 62.3804 180.246 62.2124C180.506 62.0443 180.8 61.9602 181.126 61.9602C181.188 61.9602 181.265 61.9614 181.357 61.9638C181.449 61.9661 181.519 61.9697 181.567 61.9744V62.8267C181.538 62.8196 181.473 62.8089 181.371 62.7947C181.272 62.7782 181.166 62.7699 181.055 62.7699C180.79 62.7699 180.553 62.8255 180.345 62.9368C180.139 63.0457 179.976 63.1972 179.855 63.3913C179.737 63.5831 179.677 63.8021 179.677 64.0483V67.5H178.839ZM182.56 67.5V62.0455H183.37V62.8977H183.441C183.554 62.6065 183.738 62.3804 183.991 62.2195C184.244 62.0561 184.549 61.9744 184.904 61.9744C185.264 61.9744 185.563 62.0561 185.802 62.2195C186.044 62.3804 186.232 62.6065 186.367 62.8977H186.424C186.563 62.616 186.773 62.3923 187.052 62.2266C187.332 62.0585 187.667 61.9744 188.057 61.9744C188.545 61.9744 188.944 62.1271 189.254 62.4325C189.564 62.7356 189.719 63.2079 189.719 63.8494V67.5H188.881V63.8494C188.881 63.447 188.771 63.1593 188.551 62.9865C188.331 62.8137 188.071 62.7273 187.773 62.7273C187.39 62.7273 187.092 62.8433 186.882 63.0753C186.671 63.3049 186.566 63.5961 186.566 63.9489V67.5H185.713V63.7642C185.713 63.4541 185.613 63.2043 185.412 63.0149C185.21 62.8232 184.951 62.7273 184.634 62.7273C184.416 62.7273 184.212 62.7853 184.023 62.9013C183.836 63.0173 183.685 63.1783 183.569 63.3842C183.455 63.5878 183.398 63.8234 183.398 64.0909V67.5H182.56Z" fill="#222222"/>
<path d="M200 65.8013L196.461 62.2628L196.933 61.791L200 64.8577L203.067 61.791L203.538 62.2628L200 65.8013Z" fill="#D9D9D9"/>
</svg>
