<svg width="1440" height="217" viewBox="0 0 1440 217" fill="none" xmlns="http://www.w3.org/2000/svg">
<mask id="path-1-inside-1_3168_10775" fill="white">
<path d="M0 0H1440V217H0V0Z"/>
</mask>
<path d="M0 0H1440V217H0V0Z" fill="white"/>
<path d="M0 1H1440V-1H0V1Z" fill="#E6E6E6" mask="url(#path-1-inside-1_3168_10775)"/>
<rect y="32" width="1440" height="1" fill="#E6E6E6"/>
<path d="M210.483 13.5085V12.7273H215.938V13.5085H213.651V20H212.77V13.5085H210.483ZM218.608 20.1136C218.116 20.1136 217.683 19.9964 217.312 19.7621C216.942 19.5277 216.654 19.1998 216.445 18.7784C216.239 18.357 216.136 17.8646 216.136 17.3011C216.136 16.733 216.239 16.237 216.445 15.8132C216.654 15.3894 216.942 15.0604 217.312 14.826C217.683 14.5916 218.116 14.4744 218.608 14.4744C219.1 14.4744 219.531 14.5916 219.901 14.826C220.272 15.0604 220.561 15.3894 220.767 15.8132C220.975 16.237 221.08 16.733 221.08 17.3011C221.08 17.8646 220.975 18.357 220.767 18.7784C220.561 19.1998 220.272 19.5277 219.901 19.7621C219.531 19.9964 219.1 20.1136 218.608 20.1136ZM218.608 19.3608C218.982 19.3608 219.29 19.2649 219.531 19.0732C219.773 18.8814 219.951 18.6293 220.067 18.3168C220.183 18.0043 220.241 17.6657 220.241 17.3011C220.241 16.9366 220.183 16.5968 220.067 16.282C219.951 15.9671 219.773 15.7126 219.531 15.5185C219.29 15.3243 218.982 15.2273 218.608 15.2273C218.234 15.2273 217.926 15.3243 217.685 15.5185C217.443 15.7126 217.264 15.9671 217.148 16.282C217.032 16.5968 216.974 16.9366 216.974 17.3011C216.974 17.6657 217.032 18.0043 217.148 18.3168C217.264 18.6293 217.443 18.8814 217.685 19.0732C217.926 19.2649 218.234 19.3608 218.608 19.3608ZM224.575 20.1136C224.082 20.1136 223.65 19.9964 223.279 19.7621C222.909 19.5277 222.62 19.1998 222.412 18.7784C222.206 18.357 222.103 17.8646 222.103 17.3011C222.103 16.733 222.206 16.237 222.412 15.8132C222.62 15.3894 222.909 15.0604 223.279 14.826C223.65 14.5916 224.082 14.4744 224.575 14.4744C225.067 14.4744 225.498 14.5916 225.867 14.826C226.239 15.0604 226.528 15.3894 226.734 15.8132C226.942 16.237 227.046 16.733 227.046 17.3011C227.046 17.8646 226.942 18.357 226.734 18.7784C226.528 19.1998 226.239 19.5277 225.867 19.7621C225.498 19.9964 225.067 20.1136 224.575 20.1136ZM224.575 19.3608C224.949 19.3608 225.257 19.2649 225.498 19.0732C225.74 18.8814 225.918 18.6293 226.034 18.3168C226.15 18.0043 226.208 17.6657 226.208 17.3011C226.208 16.9366 226.15 16.5968 226.034 16.282C225.918 15.9671 225.74 15.7126 225.498 15.5185C225.257 15.3243 224.949 15.2273 224.575 15.2273C224.201 15.2273 223.893 15.3243 223.651 15.5185C223.41 15.7126 223.231 15.9671 223.115 16.282C222.999 16.5968 222.941 16.9366 222.941 17.3011C222.941 17.6657 222.999 18.0043 223.115 18.3168C223.231 18.6293 223.41 18.8814 223.651 19.0732C223.893 19.2649 224.201 19.3608 224.575 19.3608ZM229.164 12.7273V20H228.326V12.7273H229.164ZM234.562 15.767L233.809 15.9801C233.762 15.8546 233.692 15.7327 233.6 15.6143C233.51 15.4936 233.387 15.3942 233.231 15.3161C233.074 15.2379 232.874 15.1989 232.631 15.1989C232.297 15.1989 232.019 15.2758 231.796 15.4297C231.576 15.5812 231.466 15.7741 231.466 16.0085C231.466 16.2169 231.541 16.3814 231.693 16.5021C231.845 16.6229 232.081 16.7235 232.403 16.804L233.213 17.0028C233.701 17.1212 234.064 17.3023 234.303 17.5462C234.542 17.7876 234.662 18.099 234.662 18.4801C234.662 18.7926 234.572 19.072 234.392 19.3182C234.214 19.5644 233.966 19.7585 233.646 19.9006C233.327 20.0426 232.955 20.1136 232.531 20.1136C231.975 20.1136 231.514 19.9929 231.15 19.7514C230.785 19.5099 230.554 19.1572 230.457 18.6932L231.253 18.4943C231.328 18.7879 231.472 19.008 231.682 19.1548C231.895 19.3016 232.174 19.375 232.517 19.375C232.907 19.375 233.218 19.2921 233.447 19.1264C233.679 18.9583 233.795 18.7571 233.795 18.5227C233.795 18.3333 233.729 18.1747 233.596 18.0469C233.464 17.9167 233.26 17.8196 232.986 17.7557L232.077 17.5426C231.577 17.4242 231.21 17.2408 230.976 16.9922C230.744 16.7412 230.628 16.4276 230.628 16.0511C230.628 15.7434 230.714 15.4711 230.887 15.2344C231.062 14.9976 231.3 14.8118 231.601 14.6768C231.904 14.5419 232.247 14.4744 232.631 14.4744C233.17 14.4744 233.594 14.5928 233.902 14.8295C234.212 15.0663 234.432 15.3788 234.562 15.767Z" fill="#808080"/>
<path d="M284.179 12.7273L286.338 18.8494H286.423L288.582 12.7273H289.506L286.835 20H285.926L283.256 12.7273H284.179ZM290.525 20V14.5455H291.363V20H290.525ZM290.951 13.6364C290.788 13.6364 290.647 13.5807 290.528 13.4695C290.412 13.3582 290.354 13.2244 290.354 13.0682C290.354 12.9119 290.412 12.7782 290.528 12.6669C290.647 12.5556 290.788 12.5 290.951 12.5C291.114 12.5 291.254 12.5556 291.37 12.6669C291.488 12.7782 291.548 12.9119 291.548 13.0682C291.548 13.2244 291.488 13.3582 291.37 13.4695C291.254 13.5807 291.114 13.6364 290.951 13.6364ZM295.185 20.1136C294.659 20.1136 294.206 19.9976 293.825 19.7656C293.446 19.5312 293.154 19.2045 292.948 18.7855C292.744 18.3641 292.642 17.8741 292.642 17.3153C292.642 16.7566 292.744 16.2642 292.948 15.8381C293.154 15.4096 293.44 15.0758 293.807 14.8366C294.176 14.5952 294.607 14.4744 295.1 14.4744C295.384 14.4744 295.664 14.5218 295.941 14.6165C296.218 14.7112 296.47 14.8651 296.698 15.0781C296.925 15.2888 297.106 15.5682 297.241 15.9162C297.376 16.2642 297.443 16.6927 297.443 17.2017V17.5568H293.239V16.8324H296.591C296.591 16.5246 296.53 16.25 296.406 16.0085C296.286 15.767 296.113 15.5765 295.888 15.4368C295.665 15.2971 295.403 15.2273 295.1 15.2273C294.766 15.2273 294.477 15.3101 294.233 15.4759C293.992 15.6392 293.806 15.8523 293.676 16.1151C293.545 16.3778 293.48 16.6596 293.48 16.9602V17.4432C293.48 17.8551 293.551 18.2043 293.693 18.4908C293.838 18.7749 294.038 18.9915 294.294 19.1406C294.549 19.2874 294.846 19.3608 295.185 19.3608C295.405 19.3608 295.604 19.33 295.781 19.2685C295.961 19.2045 296.116 19.1098 296.247 18.9844C296.377 18.8565 296.477 18.6979 296.548 18.5085L297.358 18.7358C297.273 19.0104 297.13 19.2519 296.928 19.4602C296.727 19.6662 296.479 19.8272 296.183 19.9432C295.887 20.0568 295.554 20.1136 295.185 20.1136ZM299.954 20L298.292 14.5455H299.173L300.352 18.7216H300.409L301.573 14.5455H302.468L303.619 18.7074H303.676L304.855 14.5455H305.735L304.073 20H303.249L302.056 15.8097H301.971L300.778 20H299.954Z" fill="#808080"/>
<rect x="330.5" y="0.5" width="66" height="32" stroke="#E6E6E6"/>
<path d="M350.639 20V19.3608L354.56 13.5085H350.597V12.7273H355.611V13.3665L351.69 19.2188H355.653V20H350.639ZM359.233 20.1136C358.741 20.1136 358.308 19.9964 357.937 19.7621C357.567 19.5277 357.279 19.1998 357.07 18.7784C356.864 18.357 356.761 17.8646 356.761 17.3011C356.761 16.733 356.864 16.237 357.07 15.8132C357.279 15.3894 357.567 15.0604 357.937 14.826C358.308 14.5916 358.741 14.4744 359.233 14.4744C359.725 14.4744 360.156 14.5916 360.526 14.826C360.897 15.0604 361.186 15.3894 361.392 15.8132C361.6 16.237 361.705 16.733 361.705 17.3011C361.705 17.8646 361.6 18.357 361.392 18.7784C361.186 19.1998 360.897 19.5277 360.526 19.7621C360.156 19.9964 359.725 20.1136 359.233 20.1136ZM359.233 19.3608C359.607 19.3608 359.915 19.2649 360.156 19.0732C360.398 18.8814 360.576 18.6293 360.692 18.3168C360.808 18.0043 360.866 17.6657 360.866 17.3011C360.866 16.9366 360.808 16.5968 360.692 16.282C360.576 15.9671 360.398 15.7126 360.156 15.5185C359.915 15.3243 359.607 15.2273 359.233 15.2273C358.859 15.2273 358.551 15.3243 358.31 15.5185C358.068 15.7126 357.889 15.9671 357.773 16.282C357.657 16.5968 357.599 16.9366 357.599 17.3011C357.599 17.6657 357.657 18.0043 357.773 18.3168C357.889 18.6293 358.068 18.8814 358.31 19.0732C358.551 19.2649 358.859 19.3608 359.233 19.3608ZM365.2 20.1136C364.707 20.1136 364.275 19.9964 363.904 19.7621C363.534 19.5277 363.245 19.1998 363.037 18.7784C362.831 18.357 362.728 17.8646 362.728 17.3011C362.728 16.733 362.831 16.237 363.037 15.8132C363.245 15.3894 363.534 15.0604 363.904 14.826C364.275 14.5916 364.707 14.4744 365.2 14.4744C365.692 14.4744 366.123 14.5916 366.492 14.826C366.864 15.0604 367.153 15.3894 367.359 15.8132C367.567 16.237 367.671 16.733 367.671 17.3011C367.671 17.8646 367.567 18.357 367.359 18.7784C367.153 19.1998 366.864 19.5277 366.492 19.7621C366.123 19.9964 365.692 20.1136 365.2 20.1136ZM365.2 19.3608C365.574 19.3608 365.882 19.2649 366.123 19.0732C366.365 18.8814 366.543 18.6293 366.659 18.3168C366.775 18.0043 366.833 17.6657 366.833 17.3011C366.833 16.9366 366.775 16.5968 366.659 16.282C366.543 15.9671 366.365 15.7126 366.123 15.5185C365.882 15.3243 365.574 15.2273 365.2 15.2273C364.826 15.2273 364.518 15.3243 364.276 15.5185C364.035 15.7126 363.856 15.9671 363.74 16.282C363.624 16.5968 363.566 16.9366 363.566 17.3011C363.566 17.6657 363.624 18.0043 363.74 18.3168C363.856 18.6293 364.035 18.8814 364.276 19.0732C364.518 19.2649 364.826 19.3608 365.2 19.3608ZM368.951 20V14.5455H369.76V15.3977H369.831C369.945 15.1065 370.128 14.8804 370.382 14.7195C370.635 14.5561 370.939 14.4744 371.294 14.4744C371.654 14.4744 371.954 14.5561 372.193 14.7195C372.434 14.8804 372.623 15.1065 372.757 15.3977H372.814C372.954 15.116 373.163 14.8923 373.443 14.7266C373.722 14.5585 374.057 14.4744 374.448 14.4744C374.935 14.4744 375.334 14.6271 375.645 14.9325C375.955 15.2356 376.11 15.7079 376.11 16.3494V20H375.272V16.3494C375.272 15.947 375.162 15.6593 374.941 15.4865C374.721 15.3137 374.462 15.2273 374.164 15.2273C373.78 15.2273 373.483 15.3433 373.272 15.5753C373.062 15.8049 372.956 16.0961 372.956 16.4489V20H372.104V16.2642C372.104 15.9541 372.003 15.7043 371.802 15.5149C371.601 15.3232 371.342 15.2273 371.025 15.2273C370.807 15.2273 370.603 15.2853 370.414 15.4013C370.227 15.5173 370.075 15.6783 369.959 15.8842C369.846 16.0878 369.789 16.3234 369.789 16.5909V20H368.951Z" fill="#222222"/>
<path d="M423.733 15H422.852C422.8 14.7467 422.709 14.5241 422.579 14.3324C422.451 14.1406 422.295 13.9796 422.11 13.8494C421.928 13.7169 421.725 13.6174 421.503 13.5511C421.28 13.4848 421.048 13.4517 420.807 13.4517C420.366 13.4517 419.968 13.563 419.61 13.7855C419.255 14.008 418.972 14.3359 418.761 14.7692C418.553 15.2024 418.449 15.7339 418.449 16.3636C418.449 16.9934 418.553 17.5249 418.761 17.9581C418.972 18.3913 419.255 18.7192 419.61 18.9418C419.968 19.1643 420.366 19.2756 420.807 19.2756C421.048 19.2756 421.28 19.2424 421.503 19.1761C421.725 19.1098 421.928 19.0116 422.11 18.8814C422.295 18.7488 422.451 18.5866 422.579 18.3949C422.709 18.2008 422.8 17.9782 422.852 17.7273H423.733C423.667 18.099 423.546 18.4316 423.371 18.7251C423.196 19.0187 422.978 19.2685 422.717 19.4744C422.457 19.678 422.165 19.8331 421.84 19.9396C421.518 20.0462 421.174 20.0994 420.807 20.0994C420.187 20.0994 419.635 19.9479 419.152 19.6449C418.669 19.3419 418.289 18.911 418.012 18.3523C417.735 17.7936 417.597 17.1307 417.597 16.3636C417.597 15.5966 417.735 14.9337 418.012 14.375C418.289 13.8163 418.669 13.3854 419.152 13.0824C419.635 12.7794 420.187 12.6278 420.807 12.6278C421.174 12.6278 421.518 12.6811 421.84 12.7876C422.165 12.8942 422.457 13.0504 422.717 13.2564C422.978 13.46 423.196 13.7086 423.371 14.0021C423.546 14.2933 423.667 14.6259 423.733 15ZM428.48 17.7699V14.5455H429.318V20H428.48V19.0767H428.423C428.295 19.3537 428.096 19.5893 427.827 19.7834C427.557 19.9751 427.216 20.071 426.804 20.071C426.463 20.071 426.16 19.9964 425.895 19.8473C425.63 19.6958 425.421 19.4685 425.27 19.1655C425.118 18.8601 425.042 18.4754 425.042 18.0114V14.5455H425.881V17.9545C425.881 18.3523 425.992 18.6695 426.214 18.9062C426.439 19.143 426.726 19.2614 427.074 19.2614C427.282 19.2614 427.494 19.2081 427.709 19.1016C427.927 18.995 428.109 18.8317 428.256 18.6115C428.405 18.3913 428.48 18.1108 428.48 17.7699ZM430.853 20V14.5455H431.663V15.3693H431.719C431.819 15.0994 431.999 14.8804 432.259 14.7124C432.52 14.5443 432.813 14.4602 433.14 14.4602C433.201 14.4602 433.278 14.4614 433.371 14.4638C433.463 14.4661 433.533 14.4697 433.58 14.4744V15.3267C433.552 15.3196 433.487 15.3089 433.385 15.2947C433.286 15.2782 433.18 15.2699 433.069 15.2699C432.804 15.2699 432.567 15.3255 432.359 15.4368C432.153 15.5457 431.989 15.6972 431.869 15.8913C431.75 16.0831 431.691 16.3021 431.691 16.5483V20H430.853ZM438.437 15.767L437.684 15.9801C437.637 15.8546 437.567 15.7327 437.475 15.6143C437.385 15.4936 437.262 15.3942 437.106 15.3161C436.949 15.2379 436.749 15.1989 436.506 15.1989C436.172 15.1989 435.894 15.2758 435.671 15.4297C435.451 15.5812 435.341 15.7741 435.341 16.0085C435.341 16.2169 435.416 16.3814 435.568 16.5021C435.72 16.6229 435.956 16.7235 436.278 16.804L437.088 17.0028C437.576 17.1212 437.939 17.3023 438.178 17.5462C438.417 17.7876 438.537 18.099 438.537 18.4801C438.537 18.7926 438.447 19.072 438.267 19.3182C438.089 19.5644 437.841 19.7585 437.521 19.9006C437.202 20.0426 436.83 20.1136 436.406 20.1136C435.85 20.1136 435.389 19.9929 435.025 19.7514C434.66 19.5099 434.429 19.1572 434.332 18.6932L435.128 18.4943C435.203 18.7879 435.347 19.008 435.557 19.1548C435.77 19.3016 436.049 19.375 436.392 19.375C436.782 19.375 437.093 19.2921 437.322 19.1264C437.554 18.9583 437.67 18.7571 437.67 18.5227C437.67 18.3333 437.604 18.1747 437.471 18.0469C437.339 17.9167 437.135 17.8196 436.861 17.7557L435.952 17.5426C435.452 17.4242 435.085 17.2408 434.851 16.9922C434.619 16.7412 434.503 16.4276 434.503 16.0511C434.503 15.7434 434.589 15.4711 434.762 15.2344C434.937 14.9976 435.175 14.8118 435.476 14.6768C435.779 14.5419 436.122 14.4744 436.506 14.4744C437.045 14.4744 437.469 14.5928 437.777 14.8295C438.087 15.0663 438.307 15.3788 438.437 15.767ZM442.014 20.1136C441.522 20.1136 441.09 19.9964 440.718 19.7621C440.349 19.5277 440.06 19.1998 439.852 18.7784C439.646 18.357 439.543 17.8646 439.543 17.3011C439.543 16.733 439.646 16.237 439.852 15.8132C440.06 15.3894 440.349 15.0604 440.718 14.826C441.09 14.5916 441.522 14.4744 442.014 14.4744C442.507 14.4744 442.938 14.5916 443.307 14.826C443.679 15.0604 443.967 15.3894 444.173 15.8132C444.382 16.237 444.486 16.733 444.486 17.3011C444.486 17.8646 444.382 18.357 444.173 18.7784C443.967 19.1998 443.679 19.5277 443.307 19.7621C442.938 19.9964 442.507 20.1136 442.014 20.1136ZM442.014 19.3608C442.388 19.3608 442.696 19.2649 442.938 19.0732C443.179 18.8814 443.358 18.6293 443.474 18.3168C443.59 18.0043 443.648 17.6657 443.648 17.3011C443.648 16.9366 443.59 16.5968 443.474 16.282C443.358 15.9671 443.179 15.7126 442.938 15.5185C442.696 15.3243 442.388 15.2273 442.014 15.2273C441.64 15.2273 441.332 15.3243 441.091 15.5185C440.849 15.7126 440.671 15.9671 440.555 16.282C440.439 16.5968 440.381 16.9366 440.381 17.3011C440.381 17.6657 440.439 18.0043 440.555 18.3168C440.671 18.6293 440.849 18.8814 441.091 19.0732C441.332 19.2649 441.64 19.3608 442.014 19.3608ZM445.765 20V14.5455H446.575V15.3693H446.632C446.731 15.0994 446.911 14.8804 447.171 14.7124C447.432 14.5443 447.725 14.4602 448.052 14.4602C448.114 14.4602 448.191 14.4614 448.283 14.4638C448.375 14.4661 448.445 14.4697 448.492 14.4744V15.3267C448.464 15.3196 448.399 15.3089 448.297 15.2947C448.198 15.2782 448.092 15.2699 447.981 15.2699C447.716 15.2699 447.479 15.3255 447.271 15.4368C447.065 15.5457 446.901 15.6972 446.781 15.8913C446.662 16.0831 446.603 16.3021 446.603 16.5483V20H445.765Z" fill="#808080"/>
<path d="M497.881 20V12.7273H502.27V13.5085H498.761V15.9659H502.043V16.7472H498.761V19.2188H502.327V20H497.881ZM505.803 20.1136C505.349 20.1136 504.947 19.9988 504.599 19.7692C504.251 19.5372 503.979 19.2105 503.783 18.7891C503.586 18.3653 503.488 17.8646 503.488 17.2869C503.488 16.714 503.586 16.2169 503.783 15.7955C503.979 15.3741 504.253 15.0485 504.603 14.8189C504.953 14.5893 505.358 14.4744 505.817 14.4744C506.173 14.4744 506.453 14.5336 506.659 14.652C506.867 14.768 507.026 14.9006 507.135 15.0497C507.246 15.1965 507.333 15.3172 507.394 15.4119H507.465V12.7273H508.303V20H507.494V19.1619H507.394C507.333 19.2614 507.245 19.3868 507.131 19.5384C507.018 19.6875 506.856 19.8213 506.645 19.9396C506.434 20.0556 506.154 20.1136 505.803 20.1136ZM505.917 19.3608C506.253 19.3608 506.537 19.2732 506.769 19.098C507.001 18.9205 507.178 18.6754 507.298 18.3629C507.419 18.0481 507.479 17.6847 507.479 17.2727C507.479 16.8655 507.42 16.5092 507.302 16.2038C507.183 15.8961 507.008 15.657 506.776 15.4865C506.544 15.3137 506.258 15.2273 505.917 15.2273C505.562 15.2273 505.266 15.3184 505.029 15.5007C504.795 15.6806 504.618 15.9257 504.5 16.2358C504.384 16.5436 504.326 16.8892 504.326 17.2727C504.326 17.661 504.385 18.0137 504.504 18.331C504.624 18.6458 504.802 18.8968 505.036 19.0838C505.273 19.2685 505.567 19.3608 505.917 19.3608ZM509.955 20V14.5455H510.793V20H509.955ZM510.381 13.6364C510.217 13.6364 510.076 13.5807 509.958 13.4695C509.842 13.3582 509.784 13.2244 509.784 13.0682C509.784 12.9119 509.842 12.7782 509.958 12.6669C510.076 12.5556 510.217 12.5 510.381 12.5C510.544 12.5 510.684 12.5556 510.8 12.6669C510.918 12.7782 510.977 12.9119 510.977 13.0682C510.977 13.2244 510.918 13.3582 510.8 13.4695C510.684 13.5807 510.544 13.6364 510.381 13.6364ZM514.7 14.5455V15.2557H511.873V14.5455H514.7ZM512.697 13.2386H513.535V18.4375C513.535 18.6742 513.569 18.8518 513.638 18.9702C513.709 19.0862 513.799 19.1643 513.908 19.2045C514.019 19.2424 514.136 19.2614 514.259 19.2614C514.352 19.2614 514.427 19.2566 514.487 19.2472C514.546 19.2353 514.593 19.2259 514.629 19.2188L514.799 19.9716C514.742 19.9929 514.663 20.0142 514.561 20.0355C514.459 20.0592 514.33 20.071 514.174 20.071C513.937 20.071 513.705 20.0201 513.478 19.9183C513.253 19.8165 513.066 19.6615 512.917 19.4531C512.77 19.2448 512.697 18.982 512.697 18.6648V13.2386Z" fill="#808080"/>
<path d="M212.881 71.5V64.2273H213.761V67.4659H217.639V64.2273H218.52V71.5H217.639V68.2472H213.761V71.5H212.881ZM221.775 71.6278C221.429 71.6278 221.115 71.5627 220.833 71.4325C220.552 71.3 220.328 71.1094 220.162 70.8608C219.997 70.6098 219.914 70.3068 219.914 69.9517C219.914 69.6392 219.975 69.3859 220.098 69.1918C220.221 68.9953 220.386 68.8414 220.592 68.7301C220.798 68.6188 221.025 68.536 221.274 68.4815C221.525 68.4247 221.777 68.3797 222.03 68.3466C222.362 68.304 222.63 68.272 222.836 68.2507C223.045 68.227 223.196 68.188 223.291 68.1335C223.388 68.0791 223.436 67.9844 223.436 67.8494V67.821C223.436 67.4706 223.341 67.1984 223.149 67.0043C222.959 66.8101 222.672 66.7131 222.286 66.7131C221.886 66.7131 221.572 66.8007 221.345 66.9759C221.118 67.151 220.958 67.3381 220.865 67.5369L220.07 67.2528C220.212 66.9214 220.401 66.6634 220.638 66.4787C220.877 66.2917 221.138 66.1615 221.419 66.0881C221.703 66.0123 221.983 65.9744 222.257 65.9744C222.433 65.9744 222.634 65.9957 222.861 66.0384C223.091 66.0786 223.312 66.1626 223.525 66.2905C223.741 66.4183 223.919 66.6113 224.061 66.8693C224.203 67.1274 224.275 67.473 224.275 67.9062V71.5H223.436V70.7614H223.394C223.337 70.8797 223.242 71.0064 223.11 71.1413C222.977 71.2763 222.801 71.3911 222.581 71.4858C222.36 71.5805 222.092 71.6278 221.775 71.6278ZM221.902 70.875C222.234 70.875 222.513 70.8099 222.74 70.6797C222.97 70.5495 223.143 70.3814 223.259 70.1754C223.377 69.9695 223.436 69.7528 223.436 69.5256V68.7585C223.401 68.8011 223.323 68.8402 223.202 68.8757C223.084 68.9089 222.946 68.9384 222.79 68.9645C222.636 68.9882 222.486 69.0095 222.339 69.0284C222.195 69.045 222.078 69.0592 221.988 69.071C221.77 69.0994 221.566 69.1456 221.377 69.2095C221.19 69.2711 221.038 69.3646 220.922 69.4901C220.809 69.6132 220.752 69.7812 220.752 69.9943C220.752 70.2855 220.859 70.5057 221.075 70.6548C221.293 70.8016 221.569 70.875 221.902 70.875ZM226.642 68.2188V71.5H225.804V66.0455H226.614V66.8977H226.685C226.813 66.6207 227.007 66.3982 227.267 66.2301C227.528 66.0597 227.864 65.9744 228.276 65.9744C228.645 65.9744 228.968 66.0502 229.245 66.2017C229.522 66.3509 229.738 66.5781 229.892 66.8835C230.045 67.1866 230.122 67.5701 230.122 68.0341V71.5H229.284V68.0909C229.284 67.6624 229.173 67.3286 228.95 67.0895C228.728 66.848 228.423 66.7273 228.034 66.7273C227.767 66.7273 227.528 66.7853 227.317 66.9013C227.109 67.0173 226.944 67.1866 226.823 67.4091C226.703 67.6316 226.642 67.9015 226.642 68.2188ZM233.713 71.6136C233.259 71.6136 232.858 71.4988 232.51 71.2692C232.162 71.0372 231.889 70.7105 231.693 70.2891C231.496 69.8653 231.398 69.3646 231.398 68.7869C231.398 68.214 231.496 67.7169 231.693 67.2955C231.889 66.8741 232.163 66.5485 232.513 66.3189C232.864 66.0893 233.268 65.9744 233.728 65.9744C234.083 65.9744 234.363 66.0336 234.569 66.152C234.778 66.268 234.936 66.4006 235.045 66.5497C235.156 66.6965 235.243 66.8172 235.304 66.9119H235.375V64.2273H236.213V71.5H235.404V70.6619H235.304C235.243 70.7614 235.155 70.8868 235.042 71.0384C234.928 71.1875 234.766 71.3213 234.555 71.4396C234.344 71.5556 234.064 71.6136 233.713 71.6136ZM233.827 70.8608C234.163 70.8608 234.447 70.7732 234.679 70.598C234.911 70.4205 235.088 70.1754 235.208 69.8629C235.329 69.5481 235.39 69.1847 235.39 68.7727C235.39 68.3655 235.33 68.0092 235.212 67.7038C235.094 67.3961 234.918 67.157 234.686 66.9865C234.454 66.8137 234.168 66.7273 233.827 66.7273C233.472 66.7273 233.176 66.8184 232.939 67.0007C232.705 67.1806 232.529 67.4257 232.41 67.7358C232.294 68.0436 232.236 68.3892 232.236 68.7727C232.236 69.161 232.295 69.5137 232.414 69.831C232.534 70.1458 232.712 70.3968 232.946 70.5838C233.183 70.7685 233.477 70.8608 233.827 70.8608ZM240.975 68.4318C240.975 67.5369 241.092 66.7143 241.324 65.9638C241.558 65.2109 241.892 64.5185 242.325 63.8864H243.064C242.893 64.1207 242.733 64.4096 242.584 64.7528C242.437 65.0937 242.308 65.469 242.197 65.8786C242.086 66.2857 241.998 66.7071 241.934 67.1428C241.873 67.5784 241.842 68.008 241.842 68.4318C241.842 68.9953 241.896 69.567 242.005 70.147C242.114 70.727 242.261 71.2656 242.446 71.7628C242.63 72.2599 242.836 72.6648 243.064 72.9773H242.325C241.892 72.3452 241.558 71.6539 241.324 70.9034C241.092 70.1506 240.975 69.3267 240.975 68.4318ZM244.414 71.5V64.2273H246.871C247.442 64.2273 247.908 64.3303 248.27 64.5362C248.635 64.7398 248.905 65.0156 249.08 65.3636C249.255 65.7116 249.343 66.0999 249.343 66.5284C249.343 66.9569 249.255 67.3464 249.08 67.6967C248.907 68.0471 248.64 68.3265 248.278 68.5348C247.915 68.7408 247.451 68.8438 246.885 68.8438H245.124V68.0625H246.857C247.248 68.0625 247.561 67.995 247.798 67.8601C248.035 67.7251 248.206 67.5429 248.313 67.3132C248.422 67.0812 248.476 66.8196 248.476 66.5284C248.476 66.2372 248.422 65.9768 248.313 65.7472C248.206 65.5175 248.034 65.3376 247.795 65.2074C247.555 65.0748 247.238 65.0085 246.843 65.0085H245.295V71.5H244.414ZM252.253 71.6278C251.907 71.6278 251.594 71.5627 251.312 71.4325C251.03 71.3 250.807 71.1094 250.641 70.8608C250.475 70.6098 250.392 70.3068 250.392 69.9517C250.392 69.6392 250.454 69.3859 250.577 69.1918C250.7 68.9953 250.865 68.8414 251.07 68.7301C251.276 68.6188 251.504 68.536 251.752 68.4815C252.003 68.4247 252.255 68.3797 252.509 68.3466C252.84 68.304 253.109 68.272 253.315 68.2507C253.523 68.227 253.675 68.188 253.769 68.1335C253.866 68.0791 253.915 67.9844 253.915 67.8494V67.821C253.915 67.4706 253.819 67.1984 253.627 67.0043C253.438 66.8101 253.15 66.7131 252.764 66.7131C252.364 66.7131 252.051 66.8007 251.823 66.9759C251.596 67.151 251.436 67.3381 251.344 67.5369L250.548 67.2528C250.691 66.9214 250.88 66.6634 251.117 66.4787C251.356 66.2917 251.616 66.1615 251.898 66.0881C252.182 66.0123 252.461 65.9744 252.736 65.9744C252.911 65.9744 253.112 65.9957 253.34 66.0384C253.569 66.0786 253.791 66.1626 254.004 66.2905C254.219 66.4183 254.398 66.6113 254.54 66.8693C254.682 67.1274 254.753 67.473 254.753 67.9062V71.5H253.915V70.7614H253.872C253.816 70.8797 253.721 71.0064 253.588 71.1413C253.456 71.2763 253.279 71.3911 253.059 71.4858C252.839 71.5805 252.57 71.6278 252.253 71.6278ZM252.381 70.875C252.712 70.875 252.992 70.8099 253.219 70.6797C253.449 70.5495 253.621 70.3814 253.737 70.1754C253.856 69.9695 253.915 69.7528 253.915 69.5256V68.7585C253.879 68.8011 253.801 68.8402 253.681 68.8757C253.562 68.9089 253.425 68.9384 253.269 68.9645C253.115 68.9882 252.964 69.0095 252.818 69.0284C252.673 69.045 252.556 69.0592 252.466 69.071C252.248 69.0994 252.045 69.1456 251.855 69.2095C251.668 69.2711 251.517 69.3646 251.401 69.4901C251.287 69.6132 251.23 69.7812 251.23 69.9943C251.23 70.2855 251.338 70.5057 251.553 70.6548C251.771 70.8016 252.047 70.875 252.381 70.875ZM257.121 68.2188V71.5H256.283V66.0455H257.092V66.8977H257.163C257.291 66.6207 257.485 66.3982 257.746 66.2301C258.006 66.0597 258.342 65.9744 258.754 65.9744C259.124 65.9744 259.447 66.0502 259.724 66.2017C260.001 66.3509 260.216 66.5781 260.37 66.8835C260.524 67.1866 260.601 67.5701 260.601 68.0341V71.5H259.763V68.0909C259.763 67.6624 259.652 67.3286 259.429 67.0895C259.206 66.848 258.901 66.7273 258.513 66.7273C258.245 66.7273 258.006 66.7853 257.795 66.9013C257.587 67.0173 257.423 67.1866 257.302 67.4091C257.181 67.6316 257.121 67.9015 257.121 68.2188ZM263.922 68.4318C263.922 69.3267 263.805 70.1506 263.57 70.9034C263.338 71.6539 263.006 72.3452 262.573 72.9773H261.834C262.004 72.7429 262.163 72.4541 262.31 72.1108C262.459 71.7699 262.589 71.3958 262.7 70.9886C262.812 70.5791 262.898 70.1565 262.96 69.7209C263.024 69.2829 263.056 68.8532 263.056 68.4318C263.056 67.8684 263.001 67.2966 262.892 66.7166C262.783 66.1366 262.637 65.598 262.452 65.1009C262.267 64.6037 262.061 64.1989 261.834 63.8864H262.573C263.006 64.5185 263.338 65.2109 263.57 65.9638C263.805 66.7143 263.922 67.5369 263.922 68.4318Z" fill="#222222"/>
<rect x="336.5" y="57.5" width="45" height="21" rx="1.5" stroke="#808080"/>
<path d="M348.858 66.0455C348.815 65.6856 348.643 65.4062 348.339 65.2074C348.036 65.0085 347.665 64.9091 347.224 64.9091C346.902 64.9091 346.621 64.9612 346.379 65.0653C346.14 65.1695 345.953 65.3127 345.818 65.495C345.686 65.6773 345.619 65.8845 345.619 66.1165C345.619 66.3106 345.665 66.4775 345.758 66.6172C345.853 66.7545 345.973 66.8693 346.12 66.9616C346.267 67.0516 346.421 67.1262 346.582 67.1854C346.743 67.2422 346.891 67.2884 347.026 67.3239L347.764 67.5227C347.954 67.5724 348.164 67.6411 348.396 67.7287C348.631 67.8163 348.854 67.9358 349.067 68.0874C349.283 68.2365 349.46 68.4283 349.6 68.6626C349.74 68.897 349.81 69.1847 349.81 69.5256C349.81 69.9186 349.707 70.2737 349.501 70.5909C349.297 70.9081 348.999 71.1603 348.606 71.3473C348.215 71.5343 347.741 71.6278 347.182 71.6278C346.661 71.6278 346.21 71.5438 345.829 71.3757C345.45 71.2076 345.152 70.9732 344.934 70.6726C344.719 70.3719 344.597 70.0227 344.568 69.625H345.477C345.501 69.8996 345.593 70.1269 345.754 70.3068C345.918 70.4844 346.124 70.617 346.372 70.7045C346.623 70.7898 346.893 70.8324 347.182 70.8324C347.518 70.8324 347.82 70.7779 348.087 70.669C348.355 70.5578 348.567 70.4039 348.723 70.2074C348.879 70.0085 348.957 69.7765 348.957 69.5114C348.957 69.2699 348.89 69.0734 348.755 68.9219C348.62 68.7704 348.442 68.6473 348.222 68.5526C348.002 68.4579 347.764 68.375 347.509 68.304L346.614 68.0483C346.045 67.8849 345.596 67.6518 345.264 67.3487C344.933 67.0457 344.767 66.6491 344.767 66.1591C344.767 65.7519 344.877 65.3968 345.097 65.0938C345.32 64.7884 345.618 64.5516 345.992 64.3835C346.369 64.2131 346.789 64.1278 347.253 64.1278C347.722 64.1278 348.138 64.2119 348.503 64.38C348.867 64.5457 349.156 64.773 349.369 65.0618C349.585 65.3506 349.698 65.6785 349.71 66.0455H348.858ZM351.144 73.5455V66.0455H351.954V66.9119H352.053C352.115 66.8172 352.2 66.6965 352.309 66.5497C352.42 66.4006 352.579 66.268 352.785 66.152C352.993 66.0336 353.275 65.9744 353.63 65.9744C354.089 65.9744 354.494 66.0893 354.844 66.3189C355.195 66.5485 355.468 66.8741 355.665 67.2955C355.861 67.7169 355.959 68.214 355.959 68.7869C355.959 69.3646 355.861 69.8653 355.665 70.2891C355.468 70.7105 355.196 71.0372 354.848 71.2692C354.5 71.4988 354.099 71.6136 353.644 71.6136C353.294 71.6136 353.013 71.5556 352.802 71.4396C352.592 71.3213 352.43 71.1875 352.316 71.0384C352.202 70.8868 352.115 70.7614 352.053 70.6619H351.982V73.5455H351.144ZM351.968 68.7727C351.968 69.1847 352.028 69.5481 352.149 69.8629C352.27 70.1754 352.446 70.4205 352.678 70.598C352.91 70.7732 353.194 70.8608 353.53 70.8608C353.881 70.8608 354.173 70.7685 354.407 70.5838C354.644 70.3968 354.822 70.1458 354.94 69.831C355.061 69.5137 355.121 69.161 355.121 68.7727C355.121 68.3892 355.062 68.0436 354.944 67.7358C354.828 67.4257 354.651 67.1806 354.415 67.0007C354.18 66.8184 353.885 66.7273 353.53 66.7273C353.189 66.7273 352.903 66.8137 352.671 66.9865C352.439 67.157 352.264 67.3961 352.145 67.7038C352.027 68.0092 351.968 68.3655 351.968 68.7727ZM358.843 71.6278C358.497 71.6278 358.184 71.5627 357.902 71.4325C357.62 71.3 357.396 71.1094 357.231 70.8608C357.065 70.6098 356.982 70.3068 356.982 69.9517C356.982 69.6392 357.044 69.3859 357.167 69.1918C357.29 68.9953 357.454 68.8414 357.66 68.7301C357.866 68.6188 358.094 68.536 358.342 68.4815C358.593 68.4247 358.845 68.3797 359.099 68.3466C359.43 68.304 359.699 68.272 359.905 68.2507C360.113 68.227 360.265 68.188 360.359 68.1335C360.456 68.0791 360.505 67.9844 360.505 67.8494V67.821C360.505 67.4706 360.409 67.1984 360.217 67.0043C360.028 66.8101 359.74 66.7131 359.354 66.7131C358.954 66.7131 358.64 66.8007 358.413 66.9759C358.186 67.151 358.026 67.3381 357.934 67.5369L357.138 67.2528C357.28 66.9214 357.47 66.6634 357.706 66.4787C357.946 66.2917 358.206 66.1615 358.488 66.0881C358.772 66.0123 359.051 65.9744 359.326 65.9744C359.501 65.9744 359.702 65.9957 359.93 66.0384C360.159 66.0786 360.381 66.1626 360.594 66.2905C360.809 66.4183 360.988 66.6113 361.13 66.8693C361.272 67.1274 361.343 67.473 361.343 67.9062V71.5H360.505V70.7614H360.462C360.405 70.8797 360.311 71.0064 360.178 71.1413C360.046 71.2763 359.869 71.3911 359.649 71.4858C359.429 71.5805 359.16 71.6278 358.843 71.6278ZM358.971 70.875C359.302 70.875 359.581 70.8099 359.809 70.6797C360.038 70.5495 360.211 70.3814 360.327 70.1754C360.446 69.9695 360.505 69.7528 360.505 69.5256V68.7585C360.469 68.8011 360.391 68.8402 360.27 68.8757C360.152 68.9089 360.015 68.9384 359.858 68.9645C359.705 68.9882 359.554 69.0095 359.407 69.0284C359.263 69.045 359.146 69.0592 359.056 69.071C358.838 69.0994 358.635 69.1456 358.445 69.2095C358.258 69.2711 358.107 69.3646 357.991 69.4901C357.877 69.6132 357.82 69.7812 357.82 69.9943C357.82 70.2855 357.928 70.5057 358.143 70.6548C358.361 70.8016 358.637 70.875 358.971 70.875ZM365.088 71.6136C364.577 71.6136 364.137 71.4929 363.767 71.2514C363.398 71.0099 363.114 70.6773 362.915 70.2536C362.716 69.8298 362.617 69.3456 362.617 68.8011C362.617 68.2472 362.719 67.7583 362.922 67.3345C363.128 66.9084 363.415 66.5758 363.782 66.3366C364.151 66.0952 364.582 65.9744 365.074 65.9744C365.458 65.9744 365.803 66.0455 366.111 66.1875C366.419 66.3295 366.671 66.5284 366.868 66.7841C367.064 67.0398 367.186 67.3381 367.233 67.679H366.395C366.331 67.4304 366.189 67.2102 365.969 67.0185C365.751 66.8243 365.458 66.7273 365.088 66.7273C364.762 66.7273 364.475 66.8125 364.229 66.983C363.985 67.151 363.795 67.389 363.657 67.6967C363.522 68.0021 363.455 68.3608 363.455 68.7727C363.455 69.1941 363.521 69.5611 363.654 69.8736C363.789 70.1861 363.978 70.4287 364.222 70.6016C364.468 70.7744 364.757 70.8608 365.088 70.8608C365.306 70.8608 365.504 70.8229 365.681 70.7472C365.859 70.6714 366.009 70.5625 366.132 70.4205C366.256 70.2784 366.343 70.108 366.395 69.9091H367.233C367.186 70.2311 367.069 70.5211 366.882 70.7791C366.697 71.0348 366.452 71.2384 366.147 71.3899C365.844 71.5391 365.491 71.6136 365.088 71.6136ZM370.745 71.6136C370.22 71.6136 369.766 71.4976 369.385 71.2656C369.007 71.0312 368.714 70.7045 368.508 70.2855C368.305 69.8641 368.203 69.3741 368.203 68.8153C368.203 68.2566 368.305 67.7642 368.508 67.3381C368.714 66.9096 369.001 66.5758 369.368 66.3366C369.737 66.0952 370.168 65.9744 370.66 65.9744C370.944 65.9744 371.225 66.0218 371.502 66.1165C371.779 66.2112 372.031 66.3651 372.258 66.5781C372.485 66.7888 372.667 67.0682 372.801 67.4162C372.936 67.7642 373.004 68.1927 373.004 68.7017V69.0568H368.799V68.3324H372.152C372.152 68.0246 372.09 67.75 371.967 67.5085C371.846 67.267 371.673 67.0765 371.449 66.9368C371.226 66.7971 370.963 66.7273 370.66 66.7273C370.326 66.7273 370.038 66.8101 369.794 66.9759C369.552 67.1392 369.366 67.3523 369.236 67.6151C369.106 67.8778 369.041 68.1596 369.041 68.4602V68.9432C369.041 69.3551 369.112 69.7043 369.254 69.9908C369.398 70.2749 369.598 70.4915 369.854 70.6406C370.11 70.7874 370.407 70.8608 370.745 70.8608C370.966 70.8608 371.164 70.83 371.342 70.7685C371.522 70.7045 371.677 70.6098 371.807 70.4844C371.937 70.3565 372.038 70.1979 372.109 70.0085L372.919 70.2358C372.833 70.5104 372.69 70.7519 372.489 70.9602C372.288 71.1662 372.039 71.3272 371.743 71.4432C371.447 71.5568 371.115 71.6136 370.745 71.6136Z" fill="#808080"/>
<rect x="386.5" y="57.5" width="38" height="21" rx="1.5" stroke="#808080"/>
<path d="M397.125 71.5H394.881V64.2273H397.224C397.93 64.2273 398.534 64.3729 399.036 64.6641C399.537 64.9529 399.922 65.3684 400.19 65.9105C400.457 66.4503 400.591 67.0966 400.591 67.8494C400.591 68.607 400.456 69.2592 400.186 69.8061C399.916 70.3506 399.523 70.7696 399.007 71.0632C398.491 71.3544 397.864 71.5 397.125 71.5ZM395.761 70.7188H397.068C397.67 70.7188 398.168 70.6027 398.563 70.3707C398.959 70.1387 399.253 69.8085 399.447 69.38C399.642 68.9515 399.739 68.4413 399.739 67.8494C399.739 67.2623 399.643 66.7569 399.451 66.3331C399.259 65.907 398.973 65.5803 398.592 65.353C398.21 65.1233 397.736 65.0085 397.168 65.0085H395.761V70.7188ZM401.955 71.5V66.0455H402.764V66.8693H402.821C402.92 66.5994 403.1 66.3804 403.361 66.2124C403.621 66.0443 403.915 65.9602 404.241 65.9602C404.303 65.9602 404.38 65.9614 404.472 65.9638C404.565 65.9661 404.634 65.9697 404.682 65.9744V66.8267C404.653 66.8196 404.588 66.8089 404.487 66.7947C404.387 66.7782 404.282 66.7699 404.17 66.7699C403.905 66.7699 403.669 66.8255 403.46 66.9368C403.254 67.0457 403.091 67.1972 402.97 67.3913C402.852 67.5831 402.793 67.8021 402.793 68.0483V71.5H401.955ZM407.28 71.6278C406.935 71.6278 406.621 71.5627 406.339 71.4325C406.058 71.3 405.834 71.1094 405.668 70.8608C405.502 70.6098 405.42 70.3068 405.42 69.9517C405.42 69.6392 405.481 69.3859 405.604 69.1918C405.727 68.9953 405.892 68.8414 406.098 68.7301C406.304 68.6188 406.531 68.536 406.78 68.4815C407.031 68.4247 407.283 68.3797 407.536 68.3466C407.867 68.304 408.136 68.272 408.342 68.2507C408.55 68.227 408.702 68.188 408.797 68.1335C408.894 68.0791 408.942 67.9844 408.942 67.8494V67.821C408.942 67.4706 408.846 67.1984 408.655 67.0043C408.465 66.8101 408.178 66.7131 407.792 66.7131C407.392 66.7131 407.078 66.8007 406.851 66.9759C406.623 67.151 406.464 67.3381 406.371 67.5369L405.576 67.2528C405.718 66.9214 405.907 66.6634 406.144 66.4787C406.383 66.2917 406.644 66.1615 406.925 66.0881C407.209 66.0123 407.489 65.9744 407.763 65.9744C407.939 65.9744 408.14 65.9957 408.367 66.0384C408.597 66.0786 408.818 66.1626 409.031 66.2905C409.247 66.4183 409.425 66.6113 409.567 66.8693C409.709 67.1274 409.78 67.473 409.78 67.9062V71.5H408.942V70.7614H408.9C408.843 70.8797 408.748 71.0064 408.616 71.1413C408.483 71.2763 408.307 71.3911 408.086 71.4858C407.866 71.5805 407.598 71.6278 407.28 71.6278ZM407.408 70.875C407.74 70.875 408.019 70.8099 408.246 70.6797C408.476 70.5495 408.649 70.3814 408.765 70.1754C408.883 69.9695 408.942 69.7528 408.942 69.5256V68.7585C408.907 68.8011 408.829 68.8402 408.708 68.8757C408.59 68.9089 408.452 68.9384 408.296 68.9645C408.142 68.9882 407.992 69.0095 407.845 69.0284C407.701 69.045 407.583 69.0592 407.493 69.071C407.276 69.0994 407.072 69.1456 406.883 69.2095C406.696 69.2711 406.544 69.3646 406.428 69.4901C406.314 69.6132 406.258 69.7812 406.258 69.9943C406.258 70.2855 406.365 70.5057 406.581 70.6548C406.799 70.8016 407.074 70.875 407.408 70.875ZM413.512 73.6591C413.107 73.6591 412.759 73.607 412.468 73.5028C412.176 73.401 411.934 73.2661 411.74 73.098C411.548 72.9323 411.395 72.7547 411.282 72.5653L411.949 72.0966C412.025 72.196 412.121 72.3097 412.237 72.4375C412.353 72.5677 412.511 72.6802 412.713 72.7749C412.916 72.8719 413.183 72.9205 413.512 72.9205C413.952 72.9205 414.315 72.8139 414.602 72.6009C414.888 72.3878 415.032 72.054 415.032 71.5994V70.4915H414.961C414.899 70.5909 414.811 70.714 414.698 70.8608C414.587 71.0052 414.426 71.1342 414.215 71.2479C414.007 71.3591 413.725 71.4148 413.37 71.4148C412.929 71.4148 412.534 71.3106 412.184 71.1023C411.836 70.8939 411.56 70.5909 411.356 70.1932C411.155 69.7955 411.054 69.3125 411.054 68.7443C411.054 68.1856 411.153 67.6991 411.349 67.2848C411.546 66.8681 411.819 66.5462 412.169 66.3189C412.52 66.0893 412.925 65.9744 413.384 65.9744C413.739 65.9744 414.021 66.0336 414.229 66.152C414.44 66.268 414.601 66.4006 414.712 66.5497C414.826 66.6965 414.913 66.8172 414.975 66.9119H415.06V66.0455H415.87V71.6562C415.87 72.125 415.763 72.5062 415.55 72.7997C415.339 73.0956 415.055 73.3123 414.698 73.4496C414.343 73.5893 413.947 73.6591 413.512 73.6591ZM413.483 70.6619C413.819 70.6619 414.104 70.585 414.336 70.4311C414.568 70.2772 414.744 70.0559 414.865 69.767C414.985 69.4782 415.046 69.1326 415.046 68.7301C415.046 68.3371 414.987 67.9903 414.868 67.6896C414.75 67.389 414.575 67.1534 414.343 66.983C414.111 66.8125 413.824 66.7273 413.483 66.7273C413.128 66.7273 412.832 66.8172 412.596 66.9972C412.361 67.1771 412.185 67.4186 412.066 67.7216C411.95 68.0246 411.892 68.3608 411.892 68.7301C411.892 69.1089 411.952 69.4439 412.07 69.7351C412.191 70.0239 412.368 70.2512 412.603 70.4169C412.839 70.5803 413.133 70.6619 413.483 70.6619Z" fill="#808080"/>
<path d="M212.639 109.5V108.861L216.56 103.009H212.597V102.227H217.611V102.866L213.69 108.719H217.653V109.5H212.639ZM221.233 109.614C220.741 109.614 220.308 109.496 219.937 109.262C219.567 109.028 219.279 108.7 219.07 108.278C218.864 107.857 218.761 107.365 218.761 106.801C218.761 106.233 218.864 105.737 219.07 105.313C219.279 104.889 219.567 104.56 219.937 104.326C220.308 104.092 220.741 103.974 221.233 103.974C221.725 103.974 222.156 104.092 222.526 104.326C222.897 104.56 223.186 104.889 223.392 105.313C223.6 105.737 223.705 106.233 223.705 106.801C223.705 107.365 223.6 107.857 223.392 108.278C223.186 108.7 222.897 109.028 222.526 109.262C222.156 109.496 221.725 109.614 221.233 109.614ZM221.233 108.861C221.607 108.861 221.915 108.765 222.156 108.573C222.398 108.381 222.576 108.129 222.692 107.817C222.808 107.504 222.866 107.166 222.866 106.801C222.866 106.437 222.808 106.097 222.692 105.782C222.576 105.467 222.398 105.213 222.156 105.018C221.915 104.824 221.607 104.727 221.233 104.727C220.859 104.727 220.551 104.824 220.31 105.018C220.068 105.213 219.889 105.467 219.773 105.782C219.657 106.097 219.599 106.437 219.599 106.801C219.599 107.166 219.657 107.504 219.773 107.817C219.889 108.129 220.068 108.381 220.31 108.573C220.551 108.765 220.859 108.861 221.233 108.861ZM227.2 109.614C226.707 109.614 226.275 109.496 225.904 109.262C225.534 109.028 225.245 108.7 225.037 108.278C224.831 107.857 224.728 107.365 224.728 106.801C224.728 106.233 224.831 105.737 225.037 105.313C225.245 104.889 225.534 104.56 225.904 104.326C226.275 104.092 226.707 103.974 227.2 103.974C227.692 103.974 228.123 104.092 228.492 104.326C228.864 104.56 229.153 104.889 229.359 105.313C229.567 105.737 229.671 106.233 229.671 106.801C229.671 107.365 229.567 107.857 229.359 108.278C229.153 108.7 228.864 109.028 228.492 109.262C228.123 109.496 227.692 109.614 227.2 109.614ZM227.2 108.861C227.574 108.861 227.882 108.765 228.123 108.573C228.365 108.381 228.543 108.129 228.659 107.817C228.775 107.504 228.833 107.166 228.833 106.801C228.833 106.437 228.775 106.097 228.659 105.782C228.543 105.467 228.365 105.213 228.123 105.018C227.882 104.824 227.574 104.727 227.2 104.727C226.826 104.727 226.518 104.824 226.276 105.018C226.035 105.213 225.856 105.467 225.74 105.782C225.624 106.097 225.566 106.437 225.566 106.801C225.566 107.166 225.624 107.504 225.74 107.817C225.856 108.129 226.035 108.381 226.276 108.573C226.518 108.765 226.826 108.861 227.2 108.861ZM230.951 109.5V104.045H231.76V104.898H231.831C231.945 104.607 232.128 104.38 232.382 104.219C232.635 104.056 232.939 103.974 233.294 103.974C233.654 103.974 233.954 104.056 234.193 104.219C234.434 104.38 234.623 104.607 234.757 104.898H234.814C234.954 104.616 235.163 104.392 235.443 104.227C235.722 104.058 236.057 103.974 236.448 103.974C236.935 103.974 237.334 104.127 237.645 104.433C237.955 104.736 238.11 105.208 238.11 105.849V109.5H237.272V105.849C237.272 105.447 237.162 105.159 236.941 104.987C236.721 104.814 236.462 104.727 236.164 104.727C235.78 104.727 235.483 104.843 235.272 105.075C235.062 105.305 234.956 105.596 234.956 105.949V109.5H234.104V105.764C234.104 105.454 234.003 105.204 233.802 105.015C233.601 104.823 233.342 104.727 233.025 104.727C232.807 104.727 232.603 104.785 232.414 104.901C232.227 105.017 232.075 105.178 231.959 105.384C231.846 105.588 231.789 105.823 231.789 106.091V109.5H230.951ZM242.455 109.5V104.045H243.293V109.5H242.455ZM242.881 103.136C242.717 103.136 242.576 103.081 242.458 102.969C242.342 102.858 242.284 102.724 242.284 102.568C242.284 102.412 242.342 102.278 242.458 102.167C242.576 102.056 242.717 102 242.881 102C243.044 102 243.184 102.056 243.3 102.167C243.418 102.278 243.477 102.412 243.477 102.568C243.477 102.724 243.418 102.858 243.3 102.969C243.184 103.081 243.044 103.136 242.881 103.136ZM245.666 106.219V109.5H244.828V104.045H245.637V104.898H245.708C245.836 104.621 246.03 104.398 246.291 104.23C246.551 104.06 246.887 103.974 247.299 103.974C247.669 103.974 247.992 104.05 248.269 104.202C248.546 104.351 248.761 104.578 248.915 104.884C249.069 105.187 249.146 105.57 249.146 106.034V109.5H248.308V106.091C248.308 105.662 248.196 105.329 247.974 105.089C247.751 104.848 247.446 104.727 247.058 104.727C246.79 104.727 246.551 104.785 246.34 104.901C246.132 105.017 245.968 105.187 245.847 105.409C245.726 105.632 245.666 105.902 245.666 106.219Z" fill="#222222"/>
<rect x="364.5" y="95.5" width="33" height="21" rx="1.5" stroke="#808080"/>
<path d="M378.733 104.5H377.852C377.8 104.247 377.709 104.024 377.579 103.832C377.451 103.641 377.295 103.48 377.11 103.349C376.928 103.217 376.725 103.117 376.503 103.051C376.28 102.985 376.048 102.952 375.807 102.952C375.366 102.952 374.968 103.063 374.61 103.286C374.255 103.508 373.972 103.836 373.761 104.269C373.553 104.702 373.449 105.234 373.449 105.864C373.449 106.493 373.553 107.025 373.761 107.458C373.972 107.891 374.255 108.219 374.61 108.442C374.968 108.664 375.366 108.776 375.807 108.776C376.048 108.776 376.28 108.742 376.503 108.676C376.725 108.61 376.928 108.512 377.11 108.381C377.295 108.249 377.451 108.087 377.579 107.895C377.709 107.701 377.8 107.478 377.852 107.227H378.733C378.667 107.599 378.546 107.932 378.371 108.225C378.196 108.519 377.978 108.768 377.717 108.974C377.457 109.178 377.165 109.333 376.84 109.44C376.518 109.546 376.174 109.599 375.807 109.599C375.187 109.599 374.635 109.448 374.152 109.145C373.669 108.842 373.289 108.411 373.012 107.852C372.735 107.294 372.597 106.631 372.597 105.864C372.597 105.097 372.735 104.434 373.012 103.875C373.289 103.316 373.669 102.885 374.152 102.582C374.635 102.279 375.187 102.128 375.807 102.128C376.174 102.128 376.518 102.181 376.84 102.288C377.165 102.394 377.457 102.55 377.717 102.756C377.978 102.96 378.196 103.209 378.371 103.502C378.546 103.793 378.667 104.126 378.733 104.5ZM382.415 104.045V104.756H379.588V104.045H382.415ZM380.412 102.739H381.25V107.938C381.25 108.174 381.284 108.352 381.353 108.47C381.424 108.586 381.514 108.664 381.623 108.705C381.734 108.742 381.851 108.761 381.974 108.761C382.067 108.761 382.142 108.757 382.202 108.747C382.261 108.735 382.308 108.726 382.344 108.719L382.514 109.472C382.457 109.493 382.378 109.514 382.276 109.536C382.174 109.559 382.045 109.571 381.889 109.571C381.652 109.571 381.42 109.52 381.193 109.418C380.968 109.317 380.781 109.161 380.632 108.953C380.485 108.745 380.412 108.482 380.412 108.165V102.739ZM383.675 109.5V104.045H384.485V104.869H384.542C384.641 104.599 384.821 104.38 385.081 104.212C385.342 104.044 385.635 103.96 385.962 103.96C386.024 103.96 386.101 103.961 386.193 103.964C386.285 103.966 386.355 103.97 386.403 103.974V104.827C386.374 104.82 386.309 104.809 386.207 104.795C386.108 104.778 386.002 104.77 385.891 104.77C385.626 104.77 385.389 104.826 385.181 104.937C384.975 105.046 384.812 105.197 384.691 105.391C384.573 105.583 384.513 105.802 384.513 106.048V109.5H383.675ZM388.234 102.227V109.5H387.396V102.227H388.234Z" fill="#808080"/>
<rect x="402.5" y="95.5" width="22" height="21" rx="1.5" stroke="#808080"/>
<path d="M412.898 109.003V104.315H413.693V109.003H412.898ZM410.952 107.057V106.261H415.639V107.057H410.952Z" fill="#808080"/>
<path d="M212.639 147.5V146.861L216.56 141.009H212.597V140.227H217.611V140.866L213.69 146.719H217.653V147.5H212.639ZM221.233 147.614C220.741 147.614 220.308 147.496 219.937 147.262C219.567 147.028 219.279 146.7 219.07 146.278C218.864 145.857 218.761 145.365 218.761 144.801C218.761 144.233 218.864 143.737 219.07 143.313C219.279 142.889 219.567 142.56 219.937 142.326C220.308 142.092 220.741 141.974 221.233 141.974C221.725 141.974 222.156 142.092 222.526 142.326C222.897 142.56 223.186 142.889 223.392 143.313C223.6 143.737 223.705 144.233 223.705 144.801C223.705 145.365 223.6 145.857 223.392 146.278C223.186 146.7 222.897 147.028 222.526 147.262C222.156 147.496 221.725 147.614 221.233 147.614ZM221.233 146.861C221.607 146.861 221.915 146.765 222.156 146.573C222.398 146.381 222.576 146.129 222.692 145.817C222.808 145.504 222.866 145.166 222.866 144.801C222.866 144.437 222.808 144.097 222.692 143.782C222.576 143.467 222.398 143.213 222.156 143.018C221.915 142.824 221.607 142.727 221.233 142.727C220.859 142.727 220.551 142.824 220.31 143.018C220.068 143.213 219.889 143.467 219.773 143.782C219.657 144.097 219.599 144.437 219.599 144.801C219.599 145.166 219.657 145.504 219.773 145.817C219.889 146.129 220.068 146.381 220.31 146.573C220.551 146.765 220.859 146.861 221.233 146.861ZM227.2 147.614C226.707 147.614 226.275 147.496 225.904 147.262C225.534 147.028 225.245 146.7 225.037 146.278C224.831 145.857 224.728 145.365 224.728 144.801C224.728 144.233 224.831 143.737 225.037 143.313C225.245 142.889 225.534 142.56 225.904 142.326C226.275 142.092 226.707 141.974 227.2 141.974C227.692 141.974 228.123 142.092 228.492 142.326C228.864 142.56 229.153 142.889 229.359 143.313C229.567 143.737 229.671 144.233 229.671 144.801C229.671 145.365 229.567 145.857 229.359 146.278C229.153 146.7 228.864 147.028 228.492 147.262C228.123 147.496 227.692 147.614 227.2 147.614ZM227.2 146.861C227.574 146.861 227.882 146.765 228.123 146.573C228.365 146.381 228.543 146.129 228.659 145.817C228.775 145.504 228.833 145.166 228.833 144.801C228.833 144.437 228.775 144.097 228.659 143.782C228.543 143.467 228.365 143.213 228.123 143.018C227.882 142.824 227.574 142.727 227.2 142.727C226.826 142.727 226.518 142.824 226.276 143.018C226.035 143.213 225.856 143.467 225.74 143.782C225.624 144.097 225.566 144.437 225.566 144.801C225.566 145.166 225.624 145.504 225.74 145.817C225.856 146.129 226.035 146.381 226.276 146.573C226.518 146.765 226.826 146.861 227.2 146.861ZM230.951 147.5V142.045H231.76V142.898H231.831C231.945 142.607 232.128 142.38 232.382 142.219C232.635 142.056 232.939 141.974 233.294 141.974C233.654 141.974 233.954 142.056 234.193 142.219C234.434 142.38 234.623 142.607 234.757 142.898H234.814C234.954 142.616 235.163 142.392 235.443 142.227C235.722 142.058 236.057 141.974 236.448 141.974C236.935 141.974 237.334 142.127 237.645 142.433C237.955 142.736 238.11 143.208 238.11 143.849V147.5H237.272V143.849C237.272 143.447 237.162 143.159 236.941 142.987C236.721 142.814 236.462 142.727 236.164 142.727C235.78 142.727 235.483 142.843 235.272 143.075C235.062 143.305 234.956 143.596 234.956 143.949V147.5H234.104V143.764C234.104 143.454 234.003 143.204 233.802 143.015C233.601 142.823 233.342 142.727 233.025 142.727C232.807 142.727 232.603 142.785 232.414 142.901C232.227 143.017 232.075 143.178 231.959 143.384C231.846 143.588 231.789 143.823 231.789 144.091V147.5H230.951ZM244.67 147.614C244.178 147.614 243.746 147.496 243.374 147.262C243.005 147.028 242.716 146.7 242.508 146.278C242.302 145.857 242.199 145.365 242.199 144.801C242.199 144.233 242.302 143.737 242.508 143.313C242.716 142.889 243.005 142.56 243.374 142.326C243.746 142.092 244.178 141.974 244.67 141.974C245.163 141.974 245.594 142.092 245.963 142.326C246.335 142.56 246.624 142.889 246.83 143.313C247.038 143.737 247.142 144.233 247.142 144.801C247.142 145.365 247.038 145.857 246.83 146.278C246.624 146.7 246.335 147.028 245.963 147.262C245.594 147.496 245.163 147.614 244.67 147.614ZM244.67 146.861C245.045 146.861 245.352 146.765 245.594 146.573C245.835 146.381 246.014 146.129 246.13 145.817C246.246 145.504 246.304 145.166 246.304 144.801C246.304 144.437 246.246 144.097 246.13 143.782C246.014 143.467 245.835 143.213 245.594 143.018C245.352 142.824 245.045 142.727 244.67 142.727C244.296 142.727 243.989 142.824 243.747 143.018C243.506 143.213 243.327 143.467 243.211 143.782C243.095 144.097 243.037 144.437 243.037 144.801C243.037 145.166 243.095 145.504 243.211 145.817C243.327 146.129 243.506 146.381 243.747 146.573C243.989 146.765 244.296 146.861 244.67 146.861ZM251.859 145.27V142.045H252.697V147.5H251.859V146.577H251.802C251.674 146.854 251.475 147.089 251.205 147.283C250.936 147.475 250.595 147.571 250.183 147.571C249.842 147.571 249.539 147.496 249.274 147.347C249.008 147.196 248.8 146.969 248.649 146.665C248.497 146.36 248.421 145.975 248.421 145.511V142.045H249.259V145.455C249.259 145.852 249.371 146.17 249.593 146.406C249.818 146.643 250.105 146.761 250.453 146.761C250.661 146.761 250.873 146.708 251.088 146.602C251.306 146.495 251.488 146.332 251.635 146.112C251.784 145.891 251.859 145.611 251.859 145.27ZM256.604 142.045V142.756H253.777V142.045H256.604ZM254.601 140.739H255.439V145.938C255.439 146.174 255.474 146.352 255.542 146.47C255.613 146.586 255.703 146.664 255.812 146.705C255.923 146.742 256.041 146.761 256.164 146.761C256.256 146.761 256.332 146.757 256.391 146.747C256.45 146.735 256.498 146.726 256.533 146.719L256.703 147.472C256.647 147.493 256.567 147.514 256.466 147.536C256.364 147.559 256.235 147.571 256.078 147.571C255.842 147.571 255.61 147.52 255.382 147.418C255.158 147.317 254.971 147.161 254.821 146.953C254.675 146.745 254.601 146.482 254.601 146.165V140.739Z" fill="#222222"/>
<rect x="366.5" y="133.5" width="33" height="21" rx="1.5" stroke="#808080"/>
<path d="M380.733 142.5H379.852C379.8 142.247 379.709 142.024 379.579 141.832C379.451 141.641 379.295 141.48 379.11 141.349C378.928 141.217 378.725 141.117 378.503 141.051C378.28 140.985 378.048 140.952 377.807 140.952C377.366 140.952 376.968 141.063 376.61 141.286C376.255 141.508 375.972 141.836 375.761 142.269C375.553 142.702 375.449 143.234 375.449 143.864C375.449 144.493 375.553 145.025 375.761 145.458C375.972 145.891 376.255 146.219 376.61 146.442C376.968 146.664 377.366 146.776 377.807 146.776C378.048 146.776 378.28 146.742 378.503 146.676C378.725 146.61 378.928 146.512 379.11 146.381C379.295 146.249 379.451 146.087 379.579 145.895C379.709 145.701 379.8 145.478 379.852 145.227H380.733C380.667 145.599 380.546 145.932 380.371 146.225C380.196 146.519 379.978 146.768 379.717 146.974C379.457 147.178 379.165 147.333 378.84 147.44C378.518 147.546 378.174 147.599 377.807 147.599C377.187 147.599 376.635 147.448 376.152 147.145C375.669 146.842 375.289 146.411 375.012 145.852C374.735 145.294 374.597 144.631 374.597 143.864C374.597 143.097 374.735 142.434 375.012 141.875C375.289 141.316 375.669 140.885 376.152 140.582C376.635 140.279 377.187 140.128 377.807 140.128C378.174 140.128 378.518 140.181 378.84 140.288C379.165 140.394 379.457 140.55 379.717 140.756C379.978 140.96 380.196 141.209 380.371 141.502C380.546 141.793 380.667 142.126 380.733 142.5ZM384.415 142.045V142.756H381.588V142.045H384.415ZM382.412 140.739H383.25V145.938C383.25 146.174 383.284 146.352 383.353 146.47C383.424 146.586 383.514 146.664 383.623 146.705C383.734 146.742 383.851 146.761 383.974 146.761C384.067 146.761 384.142 146.757 384.202 146.747C384.261 146.735 384.308 146.726 384.344 146.719L384.514 147.472C384.457 147.493 384.378 147.514 384.276 147.536C384.174 147.559 384.045 147.571 383.889 147.571C383.652 147.571 383.42 147.52 383.193 147.418C382.968 147.317 382.781 147.161 382.632 146.953C382.485 146.745 382.412 146.482 382.412 146.165V140.739ZM385.675 147.5V142.045H386.485V142.869H386.542C386.641 142.599 386.821 142.38 387.081 142.212C387.342 142.044 387.635 141.96 387.962 141.96C388.024 141.96 388.101 141.961 388.193 141.964C388.285 141.966 388.355 141.97 388.403 141.974V142.827C388.374 142.82 388.309 142.809 388.207 142.795C388.108 142.778 388.002 142.77 387.891 142.77C387.626 142.77 387.389 142.826 387.181 142.937C386.975 143.046 386.812 143.197 386.691 143.391C386.573 143.583 386.513 143.802 386.513 144.048V147.5H385.675ZM390.234 140.227V147.5H389.396V140.227H390.234Z" fill="#808080"/>
<rect x="404.5" y="133.5" width="20" height="21" rx="1.5" stroke="#808080"/>
<path d="M415.892 143.991V144.773H412.71V143.991H415.892Z" fill="#808080"/>
<path d="M212.639 185.5V184.861L216.56 179.009H212.597V178.227H217.611V178.866L213.69 184.719H217.653V185.5H212.639ZM221.233 185.614C220.741 185.614 220.308 185.496 219.937 185.262C219.567 185.028 219.279 184.7 219.07 184.278C218.864 183.857 218.761 183.365 218.761 182.801C218.761 182.233 218.864 181.737 219.07 181.313C219.279 180.889 219.567 180.56 219.937 180.326C220.308 180.092 220.741 179.974 221.233 179.974C221.725 179.974 222.156 180.092 222.526 180.326C222.897 180.56 223.186 180.889 223.392 181.313C223.6 181.737 223.705 182.233 223.705 182.801C223.705 183.365 223.6 183.857 223.392 184.278C223.186 184.7 222.897 185.028 222.526 185.262C222.156 185.496 221.725 185.614 221.233 185.614ZM221.233 184.861C221.607 184.861 221.915 184.765 222.156 184.573C222.398 184.381 222.576 184.129 222.692 183.817C222.808 183.504 222.866 183.166 222.866 182.801C222.866 182.437 222.808 182.097 222.692 181.782C222.576 181.467 222.398 181.213 222.156 181.018C221.915 180.824 221.607 180.727 221.233 180.727C220.859 180.727 220.551 180.824 220.31 181.018C220.068 181.213 219.889 181.467 219.773 181.782C219.657 182.097 219.599 182.437 219.599 182.801C219.599 183.166 219.657 183.504 219.773 183.817C219.889 184.129 220.068 184.381 220.31 184.573C220.551 184.765 220.859 184.861 221.233 184.861ZM227.2 185.614C226.707 185.614 226.275 185.496 225.904 185.262C225.534 185.028 225.245 184.7 225.037 184.278C224.831 183.857 224.728 183.365 224.728 182.801C224.728 182.233 224.831 181.737 225.037 181.313C225.245 180.889 225.534 180.56 225.904 180.326C226.275 180.092 226.707 179.974 227.2 179.974C227.692 179.974 228.123 180.092 228.492 180.326C228.864 180.56 229.153 180.889 229.359 181.313C229.567 181.737 229.671 182.233 229.671 182.801C229.671 183.365 229.567 183.857 229.359 184.278C229.153 184.7 228.864 185.028 228.492 185.262C228.123 185.496 227.692 185.614 227.2 185.614ZM227.2 184.861C227.574 184.861 227.882 184.765 228.123 184.573C228.365 184.381 228.543 184.129 228.659 183.817C228.775 183.504 228.833 183.166 228.833 182.801C228.833 182.437 228.775 182.097 228.659 181.782C228.543 181.467 228.365 181.213 228.123 181.018C227.882 180.824 227.574 180.727 227.2 180.727C226.826 180.727 226.518 180.824 226.276 181.018C226.035 181.213 225.856 181.467 225.74 181.782C225.624 182.097 225.566 182.437 225.566 182.801C225.566 183.166 225.624 183.504 225.74 183.817C225.856 184.129 226.035 184.381 226.276 184.573C226.518 184.765 226.826 184.861 227.2 184.861ZM230.951 185.5V180.045H231.76V180.898H231.831C231.945 180.607 232.128 180.38 232.382 180.219C232.635 180.056 232.939 179.974 233.294 179.974C233.654 179.974 233.954 180.056 234.193 180.219C234.434 180.38 234.623 180.607 234.757 180.898H234.814C234.954 180.616 235.163 180.392 235.443 180.227C235.722 180.058 236.057 179.974 236.448 179.974C236.935 179.974 237.334 180.127 237.645 180.433C237.955 180.736 238.11 181.208 238.11 181.849V185.5H237.272V181.849C237.272 181.447 237.162 181.159 236.941 180.987C236.721 180.814 236.462 180.727 236.164 180.727C235.78 180.727 235.483 180.843 235.272 181.075C235.062 181.305 234.956 181.596 234.956 181.949V185.5H234.104V181.764C234.104 181.454 234.003 181.204 233.802 181.015C233.601 180.823 233.342 180.727 233.025 180.727C232.807 180.727 232.603 180.785 232.414 180.901C232.227 181.017 232.075 181.178 231.959 181.384C231.846 181.588 231.789 181.823 231.789 182.091V185.5H230.951ZM244.827 180.045V180.756H242V180.045H244.827ZM242.824 178.739H243.662V183.938C243.662 184.174 243.696 184.352 243.765 184.47C243.836 184.586 243.926 184.664 244.035 184.705C244.146 184.742 244.263 184.761 244.386 184.761C244.479 184.761 244.554 184.757 244.614 184.747C244.673 184.735 244.72 184.726 244.756 184.719L244.926 185.472C244.869 185.493 244.79 185.514 244.688 185.536C244.586 185.559 244.457 185.571 244.301 185.571C244.064 185.571 243.832 185.52 243.605 185.418C243.38 185.317 243.193 185.161 243.044 184.953C242.897 184.745 242.824 184.482 242.824 184.165V178.739ZM248.245 185.614C247.752 185.614 247.32 185.496 246.949 185.262C246.579 185.028 246.29 184.7 246.082 184.278C245.876 183.857 245.773 183.365 245.773 182.801C245.773 182.233 245.876 181.737 246.082 181.313C246.29 180.889 246.579 180.56 246.949 180.326C247.32 180.092 247.752 179.974 248.245 179.974C248.737 179.974 249.168 180.092 249.537 180.326C249.909 180.56 250.198 180.889 250.404 181.313C250.612 181.737 250.716 182.233 250.716 182.801C250.716 183.365 250.612 183.857 250.404 184.278C250.198 184.7 249.909 185.028 249.537 185.262C249.168 185.496 248.737 185.614 248.245 185.614ZM248.245 184.861C248.619 184.861 248.926 184.765 249.168 184.573C249.409 184.381 249.588 184.129 249.704 183.817C249.82 183.504 249.878 183.166 249.878 182.801C249.878 182.437 249.82 182.097 249.704 181.782C249.588 181.467 249.409 181.213 249.168 181.018C248.926 180.824 248.619 180.727 248.245 180.727C247.871 180.727 247.563 180.824 247.321 181.018C247.08 181.213 246.901 181.467 246.785 181.782C246.669 182.097 246.611 182.437 246.611 182.801C246.611 183.166 246.669 183.504 246.785 183.817C246.901 184.129 247.08 184.381 247.321 184.573C247.563 184.765 247.871 184.861 248.245 184.861ZM257.237 180.045V180.756H254.297V180.045H257.237ZM255.177 185.5V179.293C255.177 178.98 255.251 178.72 255.398 178.511C255.544 178.303 255.735 178.147 255.969 178.043C256.204 177.938 256.451 177.886 256.711 177.886C256.917 177.886 257.086 177.903 257.216 177.936C257.346 177.969 257.443 178 257.507 178.028L257.265 178.753C257.223 178.739 257.164 178.721 257.088 178.7C257.015 178.678 256.917 178.668 256.797 178.668C256.52 178.668 256.32 178.737 256.197 178.877C256.076 179.017 256.015 179.222 256.015 179.491V185.5H255.177ZM258.412 185.5V180.045H259.25V185.5H258.412ZM258.838 179.136C258.674 179.136 258.533 179.081 258.415 178.969C258.299 178.858 258.241 178.724 258.241 178.568C258.241 178.412 258.299 178.278 258.415 178.167C258.533 178.056 258.674 178 258.838 178C259.001 178 259.141 178.056 259.257 178.167C259.375 178.278 259.434 178.412 259.434 178.568C259.434 178.724 259.375 178.858 259.257 178.969C259.141 179.081 259.001 179.136 258.838 179.136ZM263.157 180.045V180.756H260.33V180.045H263.157ZM261.154 178.739H261.992V183.938C261.992 184.174 262.026 184.352 262.095 184.47C262.166 184.586 262.256 184.664 262.365 184.705C262.476 184.742 262.593 184.761 262.716 184.761C262.809 184.761 262.885 184.757 262.944 184.747C263.003 184.735 263.05 184.726 263.086 184.719L263.256 185.472C263.199 185.493 263.12 185.514 263.018 185.536C262.916 185.559 262.787 185.571 262.631 185.571C262.394 185.571 262.162 185.52 261.935 185.418C261.71 185.317 261.523 185.161 261.374 184.953C261.227 184.745 261.154 184.482 261.154 184.165V178.739Z" fill="#222222"/>
<rect x="322.5" y="171.5" width="33" height="21" rx="1.5" stroke="#808080"/>
<path d="M336.733 180.5H335.852C335.8 180.247 335.709 180.024 335.579 179.832C335.451 179.641 335.295 179.48 335.11 179.349C334.928 179.217 334.725 179.117 334.503 179.051C334.28 178.985 334.048 178.952 333.807 178.952C333.366 178.952 332.968 179.063 332.61 179.286C332.255 179.508 331.972 179.836 331.761 180.269C331.553 180.702 331.449 181.234 331.449 181.864C331.449 182.493 331.553 183.025 331.761 183.458C331.972 183.891 332.255 184.219 332.61 184.442C332.968 184.664 333.366 184.776 333.807 184.776C334.048 184.776 334.28 184.742 334.503 184.676C334.725 184.61 334.928 184.512 335.11 184.381C335.295 184.249 335.451 184.087 335.579 183.895C335.709 183.701 335.8 183.478 335.852 183.227H336.733C336.667 183.599 336.546 183.932 336.371 184.225C336.196 184.519 335.978 184.768 335.717 184.974C335.457 185.178 335.165 185.333 334.84 185.44C334.518 185.546 334.174 185.599 333.807 185.599C333.187 185.599 332.635 185.448 332.152 185.145C331.669 184.842 331.289 184.411 331.012 183.852C330.735 183.294 330.597 182.631 330.597 181.864C330.597 181.097 330.735 180.434 331.012 179.875C331.289 179.316 331.669 178.885 332.152 178.582C332.635 178.279 333.187 178.128 333.807 178.128C334.174 178.128 334.518 178.181 334.84 178.288C335.165 178.394 335.457 178.55 335.717 178.756C335.978 178.96 336.196 179.209 336.371 179.502C336.546 179.793 336.667 180.126 336.733 180.5ZM340.415 180.045V180.756H337.588V180.045H340.415ZM338.412 178.739H339.25V183.938C339.25 184.174 339.284 184.352 339.353 184.47C339.424 184.586 339.514 184.664 339.623 184.705C339.734 184.742 339.851 184.761 339.974 184.761C340.067 184.761 340.142 184.757 340.202 184.747C340.261 184.735 340.308 184.726 340.344 184.719L340.514 185.472C340.457 185.493 340.378 185.514 340.276 185.536C340.174 185.559 340.045 185.571 339.889 185.571C339.652 185.571 339.42 185.52 339.193 185.418C338.968 185.317 338.781 185.161 338.632 184.953C338.485 184.745 338.412 184.482 338.412 184.165V178.739ZM341.675 185.5V180.045H342.485V180.869H342.542C342.641 180.599 342.821 180.38 343.081 180.212C343.342 180.044 343.635 179.96 343.962 179.96C344.024 179.96 344.101 179.961 344.193 179.964C344.285 179.966 344.355 179.97 344.403 179.974V180.827C344.374 180.82 344.309 180.809 344.207 180.795C344.108 180.778 344.002 180.77 343.891 180.77C343.626 180.77 343.389 180.826 343.181 180.937C342.975 181.046 342.812 181.197 342.691 181.391C342.573 181.583 342.513 181.802 342.513 182.048V185.5H341.675ZM346.234 178.227V185.5H345.396V178.227H346.234Z" fill="#808080"/>
<rect x="360.5" y="171.5" width="37" height="21" rx="1.5" stroke="#808080"/>
<path d="M372.858 180.045C372.815 179.686 372.643 179.406 372.339 179.207C372.036 179.009 371.665 178.909 371.224 178.909C370.902 178.909 370.621 178.961 370.379 179.065C370.14 179.17 369.953 179.313 369.818 179.495C369.686 179.677 369.619 179.884 369.619 180.116C369.619 180.311 369.665 180.478 369.758 180.617C369.853 180.754 369.973 180.869 370.12 180.962C370.267 181.052 370.421 181.126 370.582 181.185C370.743 181.242 370.891 181.288 371.026 181.324L371.764 181.523C371.954 181.572 372.164 181.641 372.396 181.729C372.631 181.816 372.854 181.936 373.067 182.087C373.283 182.237 373.46 182.428 373.6 182.663C373.74 182.897 373.81 183.185 373.81 183.526C373.81 183.919 373.707 184.274 373.501 184.591C373.297 184.908 372.999 185.16 372.606 185.347C372.215 185.534 371.741 185.628 371.182 185.628C370.661 185.628 370.21 185.544 369.829 185.376C369.45 185.208 369.152 184.973 368.934 184.673C368.719 184.372 368.597 184.023 368.568 183.625H369.477C369.501 183.9 369.593 184.127 369.754 184.307C369.918 184.484 370.124 184.617 370.372 184.705C370.623 184.79 370.893 184.832 371.182 184.832C371.518 184.832 371.82 184.778 372.087 184.669C372.355 184.558 372.567 184.404 372.723 184.207C372.879 184.009 372.957 183.777 372.957 183.511C372.957 183.27 372.89 183.073 372.755 182.922C372.62 182.77 372.442 182.647 372.222 182.553C372.002 182.458 371.764 182.375 371.509 182.304L370.614 182.048C370.045 181.885 369.596 181.652 369.264 181.349C368.933 181.046 368.767 180.649 368.767 180.159C368.767 179.752 368.877 179.397 369.097 179.094C369.32 178.788 369.618 178.552 369.992 178.384C370.369 178.213 370.789 178.128 371.253 178.128C371.722 178.128 372.138 178.212 372.503 178.38C372.867 178.546 373.156 178.773 373.369 179.062C373.585 179.351 373.698 179.679 373.71 180.045H372.858ZM375.982 182.219V185.5H375.144V178.227H375.982V180.898H376.053C376.181 180.616 376.373 180.392 376.628 180.227C376.886 180.058 377.23 179.974 377.658 179.974C378.03 179.974 378.355 180.049 378.635 180.198C378.914 180.345 379.131 180.571 379.285 180.876C379.441 181.179 379.519 181.565 379.519 182.034V185.5H378.681V182.091C378.681 181.658 378.568 181.323 378.344 181.086C378.121 180.847 377.812 180.727 377.417 180.727C377.142 180.727 376.896 180.785 376.678 180.901C376.463 181.017 376.292 181.187 376.167 181.409C376.044 181.632 375.982 181.902 375.982 182.219ZM381.052 185.5V180.045H381.89V185.5H381.052ZM381.478 179.136C381.315 179.136 381.174 179.081 381.056 178.969C380.94 178.858 380.882 178.724 380.882 178.568C380.882 178.412 380.94 178.278 381.056 178.167C381.174 178.056 381.315 178 381.478 178C381.642 178 381.781 178.056 381.897 178.167C382.016 178.278 382.075 178.412 382.075 178.568C382.075 178.724 382.016 178.858 381.897 178.969C381.781 179.081 381.642 179.136 381.478 179.136ZM385.854 180.045V180.756H382.914V180.045H385.854ZM383.795 185.5V179.293C383.795 178.98 383.868 178.72 384.015 178.511C384.162 178.303 384.352 178.147 384.586 178.043C384.821 177.938 385.068 177.886 385.329 177.886C385.535 177.886 385.703 177.903 385.833 177.936C385.963 177.969 386.06 178 386.124 178.028L385.883 178.753C385.84 178.739 385.781 178.721 385.705 178.7C385.632 178.678 385.535 178.668 385.414 178.668C385.137 178.668 384.937 178.737 384.814 178.877C384.693 179.017 384.633 179.222 384.633 179.491V185.5H383.795ZM389.401 180.045V180.756H386.574V180.045H389.401ZM387.398 178.739H388.236V183.938C388.236 184.174 388.27 184.352 388.339 184.47C388.41 184.586 388.5 184.664 388.609 184.705C388.72 184.742 388.837 184.761 388.961 184.761C389.053 184.761 389.129 184.757 389.188 184.747C389.247 184.735 389.294 184.726 389.33 184.719L389.5 185.472C389.444 185.493 389.364 185.514 389.262 185.536C389.161 185.559 389.032 185.571 388.875 185.571C388.639 185.571 388.407 185.52 388.179 185.418C387.954 185.317 387.767 185.161 387.618 184.953C387.471 184.745 387.398 184.482 387.398 184.165V178.739Z" fill="#808080"/>
<rect x="402.5" y="171.5" width="22" height="21" rx="1.5" stroke="#808080"/>
<path d="M413.125 185.599C412.59 185.599 412.134 185.454 411.758 185.163C411.381 184.869 411.094 184.444 410.895 183.888C410.696 183.329 410.597 182.654 410.597 181.864C410.597 181.078 410.696 180.406 410.895 179.85C411.096 179.291 411.385 178.865 411.761 178.572C412.14 178.276 412.595 178.128 413.125 178.128C413.655 178.128 414.109 178.276 414.485 178.572C414.864 178.865 415.153 179.291 415.352 179.85C415.553 180.406 415.653 181.078 415.653 181.864C415.653 182.654 415.554 183.329 415.355 183.888C415.156 184.444 414.869 184.869 414.492 185.163C414.116 185.454 413.66 185.599 413.125 185.599ZM413.125 184.818C413.655 184.818 414.067 184.562 414.361 184.051C414.654 183.54 414.801 182.811 414.801 181.864C414.801 181.234 414.734 180.698 414.599 180.255C414.466 179.812 414.274 179.475 414.023 179.243C413.775 179.011 413.475 178.895 413.125 178.895C412.599 178.895 412.189 179.154 411.893 179.673C411.597 180.189 411.449 180.919 411.449 181.864C411.449 182.493 411.515 183.028 411.648 183.469C411.78 183.909 411.971 184.244 412.219 184.474C412.47 184.703 412.772 184.818 413.125 184.818Z" fill="#808080"/>
<rect x="331" y="32" width="65" height="1" fill="white"/>
<path d="M1406.4 22.3077L1405.69 21.6L1411.29 16L1405.69 10.4L1406.4 9.69226L1412 15.2923L1417.6 9.69226L1418.31 10.4L1412.71 16L1418.31 21.6L1417.6 22.3077L1412 16.7077L1406.4 22.3077Z" fill="#222222"/>
</svg>
