<svg width="304" height="161" viewBox="0 0 304 161" fill="none" xmlns="http://www.w3.org/2000/svg">
<path d="M304 159.5H0V160.5H304V159.5Z" fill="#E6E6E6"/>
<path d="M17.608 26.056V24.796H22.36V26.056H17.608ZM18.796 19.624H21.004L23.44 28H21.892L20.392 22.72L19.9 20.752L19.384 22.732L17.872 28H16.36L18.796 19.624ZM29.3247 28V23.86C29.3247 23.428 29.2047 23.084 28.9647 22.828C28.7327 22.572 28.4287 22.444 28.0527 22.444C27.6207 22.444 27.2287 22.6 26.8767 22.912C26.5327 23.216 26.2367 23.708 25.9887 24.388L25.7727 22.96C26.0367 22.376 26.3967 21.944 26.8527 21.664C27.3087 21.376 27.7967 21.232 28.3167 21.232C28.8207 21.232 29.2527 21.34 29.6127 21.556C29.9807 21.764 30.2607 22.06 30.4527 22.444C30.6527 22.82 30.7527 23.264 30.7527 23.776V28H29.3247ZM24.7047 28V21.376H26.0727L26.1327 22.768V28H24.7047ZM37.2134 22.24L37.2494 21.376H38.6174V27.22C38.6174 28.22 38.3494 28.98 37.8134 29.5C37.2774 30.02 36.4614 30.28 35.3654 30.28C34.7654 30.28 34.2454 30.2 33.8054 30.04C33.3654 29.888 33.0214 29.652 32.7734 29.332C32.5334 29.02 32.3974 28.624 32.3654 28.144H33.8654C33.9054 28.464 34.0534 28.704 34.3094 28.864C34.5654 29.024 34.9414 29.104 35.4374 29.104C36.0214 29.104 36.4574 28.952 36.7454 28.648C37.0414 28.352 37.1894 27.932 37.1894 27.388V26.668C36.9654 26.98 36.6734 27.224 36.3134 27.4C35.9614 27.576 35.5694 27.664 35.1374 27.664C34.5774 27.664 34.0774 27.524 33.6374 27.244C33.2054 26.964 32.8654 26.584 32.6174 26.104C32.3694 25.616 32.2454 25.068 32.2454 24.46C32.2454 23.796 32.3734 23.224 32.6294 22.744C32.8934 22.256 33.2494 21.884 33.6974 21.628C34.1454 21.372 34.6534 21.244 35.2214 21.244C35.6454 21.244 36.0294 21.336 36.3734 21.52C36.7254 21.704 37.0054 21.944 37.2134 22.24ZM35.4734 26.56C35.8734 26.56 36.2254 26.44 36.5294 26.2C36.8414 25.952 37.0614 25.628 37.1894 25.228V23.668C37.0614 23.26 36.8414 22.94 36.5294 22.708C36.2254 22.468 35.8734 22.348 35.4734 22.348C35.1214 22.348 34.8094 22.44 34.5374 22.624C34.2654 22.808 34.0534 23.056 33.9014 23.368C33.7494 23.68 33.6734 24.036 33.6734 24.436C33.6734 24.844 33.7494 25.208 33.9014 25.528C34.0534 25.84 34.2654 26.092 34.5374 26.284C34.8094 26.468 35.1214 26.56 35.4734 26.56ZM42.5941 28V19.156H44.0341V28H42.5941ZM40.2541 28V26.836H46.3981V28H40.2541ZM41.1181 20.32V19.156H43.3141V20.32H41.1181ZM51.1908 28.144C50.4948 28.144 49.8948 28.008 49.3908 27.736C48.8868 27.456 48.4988 27.056 48.2268 26.536C47.9628 26.016 47.8308 25.396 47.8308 24.676C47.8308 23.956 47.9668 23.34 48.2388 22.828C48.5108 22.308 48.9028 21.912 49.4148 21.64C49.9268 21.368 50.5388 21.232 51.2508 21.232C52.3548 21.232 53.1668 21.54 53.6868 22.156C54.2148 22.772 54.4428 23.616 54.3708 24.688H48.9708L48.9827 23.644L52.9068 23.656C52.8748 23.272 52.7068 22.964 52.4028 22.732C52.0988 22.5 51.7148 22.384 51.2508 22.384C50.5948 22.384 50.0988 22.588 49.7628 22.996C49.4268 23.404 49.2588 23.984 49.2588 24.736C49.2588 25.168 49.3348 25.556 49.4868 25.9C49.6388 26.236 49.8548 26.5 50.1348 26.692C50.4228 26.876 50.7748 26.968 51.1908 26.968C51.6628 26.968 52.0548 26.856 52.3668 26.632C52.6868 26.408 52.8828 26.108 52.9548 25.732H54.3948C54.2988 26.476 53.9628 27.064 53.3867 27.496C52.8188 27.928 52.0868 28.144 51.1908 28.144ZM58.5394 21.232C58.9714 21.232 59.3674 21.316 59.7274 21.484C60.0874 21.652 60.3834 21.88 60.6154 22.168V19.156H62.0434V28H60.6754L60.6394 27.16C60.4154 27.456 60.1194 27.696 59.7514 27.88C59.3834 28.056 58.9794 28.144 58.5394 28.144C57.9554 28.144 57.4394 27.996 56.9914 27.7C56.5434 27.396 56.1914 26.984 55.9354 26.464C55.6874 25.936 55.5634 25.344 55.5634 24.688C55.5634 24.024 55.6874 23.432 55.9354 22.912C56.1914 22.392 56.5434 21.984 56.9914 21.688C57.4394 21.384 57.9554 21.232 58.5394 21.232ZM58.8754 26.956C59.2754 26.956 59.6274 26.84 59.9314 26.608C60.2434 26.368 60.4714 26.052 60.6154 25.66V23.704C60.4714 23.304 60.2434 22.992 59.9314 22.768C59.6274 22.536 59.2754 22.42 58.8754 22.42C58.5074 22.42 58.1794 22.52 57.8914 22.72C57.6114 22.912 57.3914 23.18 57.2314 23.524C57.0714 23.86 56.9914 24.248 56.9914 24.688C56.9914 25.12 57.0714 25.508 57.2314 25.852C57.3914 26.188 57.6114 26.456 57.8914 26.656C58.1794 26.856 58.5074 26.956 58.8754 26.956ZM76.1528 28V23.872C76.1528 23.44 76.0328 23.096 75.7928 22.84C75.5608 22.576 75.2568 22.444 74.8808 22.444C74.4488 22.444 74.0568 22.6 73.7048 22.912C73.3608 23.216 73.0648 23.708 72.8168 24.388L72.6008 22.972C72.8648 22.38 73.2248 21.944 73.6808 21.664C74.1368 21.376 74.6248 21.232 75.1448 21.232C75.6488 21.232 76.0808 21.34 76.4408 21.556C76.8088 21.764 77.0888 22.06 77.2808 22.444C77.4808 22.828 77.5808 23.276 77.5808 23.788V28H76.1528ZM71.5328 28V19.144H72.9608V28H71.5328ZM81.6655 28V21.376H83.0935V28H81.6655ZM79.3255 28V26.836H85.3375V28H79.3255ZM80.1775 22.54V21.376H82.3735V22.54H80.1775ZM81.5815 20.332V18.868H83.1415V20.332H81.5815ZM91.8462 22.24L91.8822 21.376H93.2502V27.22C93.2502 28.22 92.9822 28.98 92.4462 29.5C91.9102 30.02 91.0942 30.28 89.9982 30.28C89.3982 30.28 88.8782 30.2 88.4382 30.04C87.9982 29.888 87.6542 29.652 87.4062 29.332C87.1662 29.02 87.0302 28.624 86.9982 28.144H88.4982C88.5382 28.464 88.6862 28.704 88.9422 28.864C89.1982 29.024 89.5742 29.104 90.0702 29.104C90.6542 29.104 91.0902 28.952 91.3782 28.648C91.6742 28.352 91.8222 27.932 91.8222 27.388V26.668C91.5982 26.98 91.3062 27.224 90.9462 27.4C90.5942 27.576 90.2022 27.664 89.7702 27.664C89.2102 27.664 88.7102 27.524 88.2702 27.244C87.8382 26.964 87.4982 26.584 87.2502 26.104C87.0022 25.616 86.8782 25.068 86.8782 24.46C86.8782 23.796 87.0062 23.224 87.2622 22.744C87.5262 22.256 87.8822 21.884 88.3302 21.628C88.7782 21.372 89.2862 21.244 89.8542 21.244C90.2782 21.244 90.6622 21.336 91.0062 21.52C91.3582 21.704 91.6382 21.944 91.8462 22.24ZM90.1062 26.56C90.5062 26.56 90.8582 26.44 91.1622 26.2C91.4742 25.952 91.6942 25.628 91.8222 25.228V23.668C91.6942 23.26 91.4742 22.94 91.1622 22.708C90.8582 22.468 90.5062 22.348 90.1062 22.348C89.7542 22.348 89.4422 22.44 89.1702 22.624C88.8982 22.808 88.6862 23.056 88.5342 23.368C88.3822 23.68 88.3062 24.036 88.3062 24.436C88.3062 24.844 88.3822 25.208 88.5342 25.528C88.6862 25.84 88.8982 26.092 89.1702 26.284C89.4422 26.468 89.7542 26.56 90.1062 26.56ZM99.5669 28V23.872C99.5669 23.44 99.4469 23.096 99.2069 22.84C98.9749 22.576 98.6709 22.444 98.2949 22.444C97.8629 22.444 97.4709 22.6 97.1189 22.912C96.7749 23.216 96.4789 23.708 96.2309 24.388L96.0149 22.972C96.2789 22.38 96.6389 21.944 97.0949 21.664C97.5509 21.376 98.0389 21.232 98.5589 21.232C99.0629 21.232 99.4949 21.34 99.8549 21.556C100.223 21.764 100.503 22.06 100.695 22.444C100.895 22.828 100.995 23.276 100.995 23.788V28H99.5669ZM94.9469 28V19.144H96.3749V28H94.9469ZM103.112 28L102.08 21.352H103.412L103.916 24.976L104.12 26.512L104.396 24.976L105.128 21.352H106.412L107.18 24.976L107.468 26.536L107.66 24.976L108.164 21.352H109.436L108.416 28H106.748L105.98 24.532L105.764 22.72L105.536 24.532L104.78 28H103.112ZM115.14 28L115.08 26.596V23.62C115.08 23.204 114.94 22.876 114.66 22.636C114.38 22.396 113.992 22.276 113.496 22.276C113.024 22.276 112.636 22.384 112.332 22.6C112.036 22.816 111.868 23.112 111.828 23.488H110.436C110.476 23.016 110.628 22.612 110.892 22.276C111.164 21.94 111.524 21.684 111.972 21.508C112.428 21.324 112.952 21.232 113.544 21.232C114.152 21.232 114.676 21.328 115.116 21.52C115.564 21.712 115.908 21.992 116.148 22.36C116.388 22.728 116.508 23.176 116.508 23.704V28H115.14ZM112.836 28.144C112.404 28.144 112.02 28.064 111.684 27.904C111.356 27.744 111.1 27.516 110.916 27.22C110.732 26.924 110.64 26.58 110.64 26.188C110.64 25.508 110.904 24.98 111.432 24.604C111.96 24.22 112.692 24.028 113.628 24.028H115.248V25.06L113.58 25.072C113.1 25.072 112.724 25.164 112.452 25.348C112.18 25.524 112.044 25.78 112.044 26.116C112.044 26.38 112.14 26.592 112.332 26.752C112.532 26.912 112.804 26.992 113.148 26.992C113.588 26.992 113.98 26.876 114.324 26.644C114.676 26.404 114.96 26.076 115.176 25.66L115.332 26.668C115.124 27.156 114.808 27.524 114.384 27.772C113.96 28.02 113.444 28.144 112.836 28.144ZM120.749 24.328L121.361 25.996L121.985 24.316L123.233 21.376H124.697L121.673 28.516C121.489 28.964 121.281 29.316 121.049 29.572C120.825 29.828 120.569 30.008 120.281 30.112C119.993 30.224 119.661 30.28 119.285 30.28H118.097V29.116H119.165C119.381 29.116 119.561 29.068 119.705 28.972C119.857 28.884 119.993 28.748 120.113 28.564C120.233 28.388 120.349 28.168 120.461 27.904L120.629 27.52L118.025 21.376H119.513L120.749 24.328Z" fill="#222222"/>
<path d="M275.4 26.7019L274.692 25.9942L280 20.6865L285.308 25.9942L284.6 26.7019L280 22.1019L275.4 26.7019Z" fill="#222222"/>
<path d="M17.179 60.2273L19.3381 66.3494H19.4233L21.5824 60.2273H22.5057L19.8352 67.5H18.9261L16.2557 60.2273H17.179ZM25.304 67.6136C24.7784 67.6136 24.325 67.4976 23.9439 67.2656C23.5651 67.0312 23.2727 66.7045 23.0668 66.2855C22.8632 65.8641 22.7614 65.3741 22.7614 64.8153C22.7614 64.2566 22.8632 63.7642 23.0668 63.3381C23.2727 62.9096 23.5592 62.5758 23.9261 62.3366C24.2955 62.0952 24.7263 61.9744 25.2188 61.9744C25.5028 61.9744 25.7834 62.0218 26.0604 62.1165C26.3374 62.2112 26.5895 62.3651 26.8168 62.5781C27.044 62.7888 27.2251 63.0682 27.3601 63.4162C27.495 63.7642 27.5625 64.1927 27.5625 64.7017V65.0568H23.358V64.3324H26.7102C26.7102 64.0246 26.6487 63.75 26.5256 63.5085C26.4048 63.267 26.232 63.0765 26.0071 62.9368C25.7846 62.7971 25.5218 62.7273 25.2188 62.7273C24.8849 62.7273 24.5961 62.8101 24.3523 62.9759C24.1108 63.1392 23.925 63.3523 23.7947 63.6151C23.6645 63.8778 23.5994 64.1596 23.5994 64.4602V64.9432C23.5994 65.3551 23.6705 65.7043 23.8125 65.9908C23.9569 66.2749 24.157 66.4915 24.4126 66.6406C24.6683 66.7874 24.9654 66.8608 25.304 66.8608C25.5241 66.8608 25.723 66.83 25.9006 66.7685C26.0805 66.7045 26.2356 66.6098 26.3658 66.4844C26.496 66.3565 26.5966 66.1979 26.6676 66.0085L27.4773 66.2358C27.392 66.5104 27.2488 66.7519 27.0476 66.9602C26.8464 67.1662 26.5978 67.3272 26.3018 67.4432C26.0059 67.5568 25.6733 67.6136 25.304 67.6136ZM29.6754 64.2188V67.5H28.8374V60.2273H29.6754V62.8977H29.7464C29.8743 62.616 30.0661 62.3923 30.3217 62.2266C30.5798 62.0585 30.9231 61.9744 31.3516 61.9744C31.7232 61.9744 32.0488 62.049 32.3281 62.1982C32.6075 62.3449 32.8241 62.571 32.978 62.8764C33.1342 63.1795 33.2124 63.5653 33.2124 64.0341V67.5H32.3743V64.0909C32.3743 63.6577 32.2618 63.3227 32.0369 63.0859C31.8144 62.8468 31.5054 62.7273 31.1101 62.7273C30.8355 62.7273 30.5893 62.7853 30.3714 62.9013C30.156 63.0173 29.9856 63.1866 29.8601 63.4091C29.737 63.6316 29.6754 63.9015 29.6754 64.2188ZM34.7456 67.5V62.0455H35.5836V67.5H34.7456ZM35.1717 61.1364C35.0083 61.1364 34.8675 61.0807 34.7491 60.9695C34.6331 60.8582 34.5751 60.7244 34.5751 60.5682C34.5751 60.4119 34.6331 60.2782 34.7491 60.1669C34.8675 60.0556 35.0083 60 35.1717 60C35.335 60 35.4747 60.0556 35.5907 60.1669C35.7091 60.2782 35.7683 60.4119 35.7683 60.5682C35.7683 60.7244 35.7091 60.8582 35.5907 60.9695C35.4747 61.0807 35.335 61.1364 35.1717 61.1364ZM39.3345 67.6136C38.8232 67.6136 38.3828 67.4929 38.0135 67.2514C37.6442 67.0099 37.3601 66.6773 37.1612 66.2536C36.9624 65.8298 36.8629 65.3456 36.8629 64.8011C36.8629 64.2472 36.9647 63.7583 37.1683 63.3345C37.3743 62.9084 37.6607 62.5758 38.0277 62.3366C38.397 62.0952 38.8279 61.9744 39.3203 61.9744C39.7038 61.9744 40.0495 62.0455 40.3572 62.1875C40.665 62.3295 40.9171 62.5284 41.1136 62.7841C41.3101 63.0398 41.4321 63.3381 41.4794 63.679H40.6413C40.5774 63.4304 40.4354 63.2102 40.2152 63.0185C39.9974 62.8243 39.7038 62.7273 39.3345 62.7273C39.0078 62.7273 38.7214 62.8125 38.4751 62.983C38.2313 63.151 38.0407 63.389 37.9034 63.6967C37.7685 64.0021 37.701 64.3608 37.701 64.7727C37.701 65.1941 37.7673 65.5611 37.8999 65.8736C38.0348 66.1861 38.2242 66.4287 38.468 66.6016C38.7143 66.7744 39.0031 66.8608 39.3345 66.8608C39.5523 66.8608 39.75 66.8229 39.9276 66.7472C40.1051 66.6714 40.2554 66.5625 40.3786 66.4205C40.5017 66.2784 40.5893 66.108 40.6413 65.9091H41.4794C41.4321 66.2311 41.3149 66.5211 41.1278 66.7791C40.9432 67.0348 40.6982 67.2384 40.3928 67.3899C40.0897 67.5391 39.737 67.6136 39.3345 67.6136ZM43.5426 60.2273V67.5H42.7045V60.2273H43.5426ZM47.3645 67.6136C46.839 67.6136 46.3856 67.4976 46.0044 67.2656C45.6257 67.0312 45.3333 66.7045 45.1273 66.2855C44.9237 65.8641 44.8219 65.3741 44.8219 64.8153C44.8219 64.2566 44.9237 63.7642 45.1273 63.3381C45.3333 62.9096 45.6197 62.5758 45.9867 62.3366C46.356 62.0952 46.7869 61.9744 47.2793 61.9744C47.5634 61.9744 47.8439 62.0218 48.1209 62.1165C48.3979 62.2112 48.65 62.3651 48.8773 62.5781C49.1046 62.7888 49.2857 63.0682 49.4206 63.4162C49.5556 63.7642 49.623 64.1927 49.623 64.7017V65.0568H45.4185V64.3324H48.7708C48.7708 64.0246 48.7092 63.75 48.5861 63.5085C48.4654 63.267 48.2926 63.0765 48.0676 62.9368C47.8451 62.7971 47.5823 62.7273 47.2793 62.7273C46.9455 62.7273 46.6567 62.8101 46.4128 62.9759C46.1713 63.1392 45.9855 63.3523 45.8553 63.6151C45.7251 63.8778 45.66 64.1596 45.66 64.4602V64.9432C45.66 65.3551 45.731 65.7043 45.873 65.9908C46.0175 66.2749 46.2175 66.4915 46.4732 66.6406C46.7289 66.7874 47.026 66.8608 47.3645 66.8608C47.5847 66.8608 47.7836 66.83 47.9611 66.7685C48.141 66.7045 48.2961 66.6098 48.4263 66.4844C48.5565 66.3565 48.6571 66.1979 48.7282 66.0085L49.5378 66.2358C49.4526 66.5104 49.3094 66.7519 49.1081 66.9602C48.9069 67.1662 48.6583 67.3272 48.3624 67.4432C48.0665 67.5568 47.7338 67.6136 47.3645 67.6136Z" fill="#222222"/>
<path d="M145.179 67.5H144.256L146.926 60.2273H147.835L150.506 67.5H149.582L147.409 61.3778H147.352L145.179 67.5ZM145.52 64.6591H149.241V65.4403H145.52V64.6591ZM152.363 60.2273V67.5H151.525V60.2273H152.363ZM154.736 60.2273V67.5H153.898V60.2273H154.736Z" fill="#222222"/>
<path d="M18.2017 99.5L16.2131 92.2273H17.108L18.6278 98.1506H18.6989L20.2472 92.2273H21.2415L22.7898 98.1506H22.8608L24.3807 92.2273H25.2756L23.2869 99.5H22.3778L20.7727 93.7045H20.7159L19.1108 99.5H18.2017ZM26.2592 99.5V94.0455H27.0973V99.5H26.2592ZM26.6854 93.1364C26.522 93.1364 26.3812 93.0807 26.2628 92.9695C26.1468 92.8582 26.0888 92.7244 26.0888 92.5682C26.0888 92.4119 26.1468 92.2782 26.2628 92.1669C26.3812 92.0556 26.522 92 26.6854 92C26.8487 92 26.9884 92.0556 27.1044 92.1669C27.2228 92.2782 27.282 92.4119 27.282 92.5682C27.282 92.7244 27.2228 92.8582 27.1044 92.9695C26.9884 93.0807 26.8487 93.1364 26.6854 93.1364ZM30.6919 99.6136C30.2374 99.6136 29.8361 99.4988 29.4881 99.2692C29.1401 99.0372 28.8678 98.7105 28.6713 98.2891C28.4748 97.8653 28.3766 97.3646 28.3766 96.7869C28.3766 96.214 28.4748 95.7169 28.6713 95.2955C28.8678 94.8741 29.1413 94.5485 29.4917 94.3189C29.842 94.0893 30.2469 93.9744 30.7061 93.9744C31.0613 93.9744 31.3418 94.0336 31.5478 94.152C31.7561 94.268 31.9147 94.4006 32.0236 94.5497C32.1349 94.6965 32.2213 94.8172 32.2828 94.9119H32.3539V92.2273H33.1919V99.5H32.3823V98.6619H32.2828C32.2213 98.7614 32.1337 98.8868 32.0201 99.0384C31.9064 99.1875 31.7443 99.3213 31.5336 99.4396C31.3229 99.5556 31.0423 99.6136 30.6919 99.6136ZM30.8056 98.8608C31.1417 98.8608 31.4258 98.7732 31.6578 98.598C31.8899 98.4205 32.0662 98.1754 32.187 97.8629C32.3077 97.5481 32.3681 97.1847 32.3681 96.7727C32.3681 96.3655 32.3089 96.0092 32.1905 95.7038C32.0721 95.3961 31.897 95.157 31.665 94.9865C31.4329 94.8137 31.1465 94.7273 30.8056 94.7273C30.4505 94.7273 30.1545 94.8184 29.9178 95.0007C29.6834 95.1806 29.507 95.4257 29.3887 95.7358C29.2727 96.0436 29.2147 96.3892 29.2147 96.7727C29.2147 97.161 29.2739 97.5137 29.3922 97.831C29.513 98.1458 29.6905 98.3968 29.9249 98.5838C30.1616 98.7685 30.4552 98.8608 30.8056 98.8608ZM37.2154 94.0455V94.7557H34.3887V94.0455H37.2154ZM35.2125 92.7386H36.0506V97.9375C36.0506 98.1742 36.0849 98.3518 36.1536 98.4702C36.2246 98.5862 36.3146 98.6643 36.4235 98.7045C36.5347 98.7424 36.6519 98.7614 36.775 98.7614C36.8674 98.7614 36.9431 98.7566 37.0023 98.7472C37.0615 98.7353 37.1088 98.7259 37.1444 98.7188L37.3148 99.4716C37.258 99.4929 37.1787 99.5142 37.0769 99.5355C36.9751 99.5592 36.8461 99.571 36.6898 99.571C36.4531 99.571 36.2211 99.5201 35.9938 99.4183C35.7689 99.3165 35.5819 99.1615 35.4327 98.9531C35.2859 98.7448 35.2125 98.482 35.2125 98.1648V92.7386ZM39.4313 96.2188V99.5H38.5932V92.2273H39.4313V94.8977H39.5023C39.6301 94.616 39.8219 94.3923 40.0776 94.2266C40.3356 94.0585 40.6789 93.9744 41.1074 93.9744C41.4791 93.9744 41.8046 94.049 42.084 94.1982C42.3633 94.3449 42.58 94.571 42.7338 94.8764C42.8901 95.1795 42.9682 95.5653 42.9682 96.0341V99.5H42.1301V96.0909C42.1301 95.6577 42.0177 95.3227 41.7928 95.0859C41.5703 94.8468 41.2613 94.7273 40.8659 94.7273C40.5913 94.7273 40.3451 94.7853 40.1273 94.9013C39.9119 95.0173 39.7414 95.1866 39.6159 95.4091C39.4928 95.6316 39.4313 95.9015 39.4313 96.2188Z" fill="#222222"/>
<path d="M144.753 99.5V98.8608L147.153 96.233C147.435 95.9252 147.667 95.6577 147.849 95.4304C148.032 95.2008 148.167 94.9853 148.254 94.7841C148.344 94.5805 148.389 94.3674 148.389 94.1449C148.389 93.8892 148.328 93.6679 148.205 93.4808C148.084 93.2938 147.918 93.1494 147.707 93.0476C147.497 92.9458 147.26 92.8949 146.997 92.8949C146.718 92.8949 146.474 92.9529 146.266 93.0689C146.06 93.1825 145.9 93.3423 145.786 93.5483C145.675 93.7543 145.619 93.9957 145.619 94.2727H144.781C144.781 93.8466 144.879 93.4725 145.076 93.1506C145.272 92.8286 145.54 92.5777 145.879 92.3977C146.219 92.2178 146.602 92.1278 147.026 92.1278C147.452 92.1278 147.829 92.2178 148.158 92.3977C148.487 92.5777 148.746 92.8203 148.933 93.1257C149.12 93.4311 149.213 93.7708 149.213 94.1449C149.213 94.4124 149.165 94.674 149.067 94.9297C148.973 95.183 148.807 95.4659 148.57 95.7784C148.336 96.0885 148.01 96.4673 147.594 96.9148L145.96 98.6619V98.7188H149.341V99.5H144.753ZM153.18 99.5994C152.645 99.5994 152.189 99.4538 151.812 99.1626C151.436 98.8691 151.148 98.4441 150.95 97.8878C150.751 97.3291 150.651 96.6544 150.651 95.8636C150.651 95.0777 150.751 94.4065 150.95 93.8501C151.151 93.2914 151.44 92.8653 151.816 92.5717C152.195 92.2758 152.649 92.1278 153.18 92.1278C153.71 92.1278 154.163 92.2758 154.54 92.5717C154.919 92.8653 155.207 93.2914 155.406 93.8501C155.607 94.4065 155.708 95.0777 155.708 95.8636C155.708 96.6544 155.609 97.3291 155.41 97.8878C155.211 98.4441 154.923 98.8691 154.547 99.1626C154.17 99.4538 153.715 99.5994 153.18 99.5994ZM153.18 98.8182C153.71 98.8182 154.122 98.5625 154.415 98.0511C154.709 97.5398 154.856 96.8106 154.856 95.8636C154.856 95.2339 154.788 94.6977 154.653 94.255C154.521 93.8123 154.329 93.4749 154.078 93.2429C153.83 93.0109 153.53 92.8949 153.18 92.8949C152.654 92.8949 152.243 93.1541 151.947 93.6726C151.652 94.1887 151.504 94.919 151.504 95.8636C151.504 96.4934 151.57 97.0284 151.702 97.4688C151.835 97.9091 152.026 98.2441 152.274 98.4737C152.525 98.7034 152.827 98.8182 153.18 98.8182ZM159.43 99.5994C158.895 99.5994 158.439 99.4538 158.062 99.1626C157.686 98.8691 157.398 98.4441 157.2 97.8878C157.001 97.3291 156.901 96.6544 156.901 95.8636C156.901 95.0777 157.001 94.4065 157.2 93.8501C157.401 93.2914 157.69 92.8653 158.066 92.5717C158.445 92.2758 158.899 92.1278 159.43 92.1278C159.96 92.1278 160.413 92.2758 160.79 92.5717C161.169 92.8653 161.457 93.2914 161.656 93.8501C161.857 94.4065 161.958 95.0777 161.958 95.8636C161.958 96.6544 161.859 97.3291 161.66 97.8878C161.461 98.4441 161.173 98.8691 160.797 99.1626C160.42 99.4538 159.965 99.5994 159.43 99.5994ZM159.43 98.8182C159.96 98.8182 160.372 98.5625 160.665 98.0511C160.959 97.5398 161.106 96.8106 161.106 95.8636C161.106 95.2339 161.038 94.6977 160.903 94.255C160.771 93.8123 160.579 93.4749 160.328 93.2429C160.08 93.0109 159.78 92.8949 159.43 92.8949C158.904 92.8949 158.493 93.1541 158.197 93.6726C157.902 94.1887 157.754 94.919 157.754 95.8636C157.754 96.4934 157.82 97.0284 157.952 97.4688C158.085 97.9091 158.276 98.2441 158.524 98.4737C158.775 98.7034 159.077 98.8182 159.43 98.8182ZM165.68 99.5994C165.145 99.5994 164.689 99.4538 164.312 99.1626C163.936 98.8691 163.648 98.4441 163.45 97.8878C163.251 97.3291 163.151 96.6544 163.151 95.8636C163.151 95.0777 163.251 94.4065 163.45 93.8501C163.651 93.2914 163.94 92.8653 164.316 92.5717C164.695 92.2758 165.149 92.1278 165.68 92.1278C166.21 92.1278 166.663 92.2758 167.04 92.5717C167.419 92.8653 167.707 93.2914 167.906 93.8501C168.107 94.4065 168.208 95.0777 168.208 95.8636C168.208 96.6544 168.109 97.3291 167.91 97.8878C167.711 98.4441 167.423 98.8691 167.047 99.1626C166.67 99.4538 166.215 99.5994 165.68 99.5994ZM165.68 98.8182C166.21 98.8182 166.622 98.5625 166.915 98.0511C167.209 97.5398 167.356 96.8106 167.356 95.8636C167.356 95.2339 167.288 94.6977 167.153 94.255C167.021 93.8123 166.829 93.4749 166.578 93.2429C166.33 93.0109 166.03 92.8949 165.68 92.8949C165.154 92.8949 164.743 93.1541 164.447 93.6726C164.152 94.1887 164.004 94.919 164.004 95.8636C164.004 96.4934 164.07 97.0284 164.202 97.4688C164.335 97.9091 164.526 98.2441 164.774 98.4737C165.025 98.7034 165.327 98.8182 165.68 98.8182ZM172.384 99.5V94.0455H173.194V94.8977H173.265C173.379 94.6065 173.562 94.3804 173.815 94.2195C174.069 94.0561 174.373 93.9744 174.728 93.9744C175.088 93.9744 175.387 94.0561 175.626 94.2195C175.868 94.3804 176.056 94.6065 176.191 94.8977H176.248C176.388 94.616 176.597 94.3923 176.876 94.2266C177.156 94.0585 177.491 93.9744 177.881 93.9744C178.369 93.9744 178.768 94.1271 179.078 94.4325C179.388 94.7356 179.543 95.2079 179.543 95.8494V99.5H178.705V95.8494C178.705 95.447 178.595 95.1593 178.375 94.9865C178.155 94.8137 177.896 94.7273 177.597 94.7273C177.214 94.7273 176.917 94.8433 176.706 95.0753C176.495 95.3049 176.39 95.5961 176.39 95.9489V99.5H175.538V95.7642C175.538 95.4541 175.437 95.2043 175.236 95.0149C175.035 94.8232 174.775 94.7273 174.458 94.7273C174.24 94.7273 174.037 94.7853 173.847 94.9013C173.66 95.0173 173.509 95.1783 173.393 95.3842C173.279 95.5878 173.222 95.8234 173.222 96.0909V99.5H172.384ZM181.076 99.5V94.0455H181.885V94.8977H181.956C182.07 94.6065 182.253 94.3804 182.507 94.2195C182.76 94.0561 183.064 93.9744 183.419 93.9744C183.779 93.9744 184.079 94.0561 184.318 94.2195C184.559 94.3804 184.748 94.6065 184.882 94.8977H184.939C185.079 94.616 185.288 94.3923 185.568 94.2266C185.847 94.0585 186.182 93.9744 186.573 93.9744C187.06 93.9744 187.459 94.1271 187.77 94.4325C188.08 94.7356 188.235 95.2079 188.235 95.8494V99.5H187.397V95.8494C187.397 95.447 187.287 95.1593 187.066 94.9865C186.846 94.8137 186.587 94.7273 186.289 94.7273C185.905 94.7273 185.608 94.8433 185.397 95.0753C185.187 95.3049 185.081 95.5961 185.081 95.9489V99.5H184.229V95.7642C184.229 95.4541 184.128 95.2043 183.927 95.0149C183.726 94.8232 183.467 94.7273 183.15 94.7273C182.932 94.7273 182.728 94.7853 182.539 94.9013C182.352 95.0173 182.2 95.1783 182.084 95.3842C181.971 95.5878 181.914 95.8234 181.914 96.0909V99.5H181.076Z" fill="#222222"/>
<path d="M16.8807 131.5V124.227H17.7614V130.719H21.142V131.5H16.8807ZM23.9972 131.628C23.6515 131.628 23.3378 131.563 23.0561 131.433C22.7744 131.3 22.5507 131.109 22.3849 130.861C22.2192 130.61 22.1364 130.307 22.1364 129.952C22.1364 129.639 22.1979 129.386 22.321 129.192C22.4441 128.995 22.6087 128.841 22.8146 128.73C23.0206 128.619 23.2479 128.536 23.4964 128.482C23.7474 128.425 23.9995 128.38 24.2528 128.347C24.5843 128.304 24.853 128.272 25.0589 128.251C25.2673 128.227 25.4188 128.188 25.5135 128.134C25.6106 128.079 25.6591 127.984 25.6591 127.849V127.821C25.6591 127.471 25.5632 127.198 25.3714 127.004C25.1821 126.81 24.8944 126.713 24.5085 126.713C24.1084 126.713 23.7947 126.801 23.5675 126.976C23.3402 127.151 23.1804 127.338 23.0881 127.537L22.2926 127.253C22.4347 126.921 22.6241 126.663 22.8608 126.479C23.0999 126.292 23.3603 126.161 23.642 126.088C23.9261 126.012 24.2055 125.974 24.4801 125.974C24.6553 125.974 24.8565 125.996 25.0838 126.038C25.3134 126.079 25.5348 126.163 25.7479 126.29C25.9633 126.418 26.142 126.611 26.2841 126.869C26.4261 127.127 26.4972 127.473 26.4972 127.906V131.5H25.6591V130.761H25.6165C25.5597 130.88 25.465 131.006 25.3324 131.141C25.1998 131.276 25.0234 131.391 24.8033 131.486C24.5831 131.58 24.3144 131.628 23.9972 131.628ZM24.125 130.875C24.4564 130.875 24.7358 130.81 24.9631 130.68C25.1927 130.549 25.3655 130.381 25.4815 130.175C25.5999 129.969 25.6591 129.753 25.6591 129.526V128.759C25.6236 128.801 25.5455 128.84 25.4247 128.876C25.3063 128.909 25.169 128.938 25.0128 128.964C24.8589 128.988 24.7086 129.009 24.5618 129.028C24.4174 129.045 24.3002 129.059 24.2102 129.071C23.9924 129.099 23.7888 129.146 23.5994 129.21C23.4124 129.271 23.2609 129.365 23.1449 129.49C23.0313 129.613 22.9744 129.781 22.9744 129.994C22.9744 130.286 23.0821 130.506 23.2976 130.655C23.5154 130.802 23.7912 130.875 24.125 130.875ZM28.8649 128.219V131.5H28.0268V126.045H28.8365V126.898H28.9075C29.0353 126.621 29.2295 126.398 29.4899 126.23C29.7503 126.06 30.0865 125.974 30.4984 125.974C30.8677 125.974 31.1909 126.05 31.4679 126.202C31.7449 126.351 31.9603 126.578 32.1142 126.884C32.2681 127.187 32.345 127.57 32.345 128.034V131.5H31.5069V128.091C31.5069 127.662 31.3957 127.329 31.1731 127.089C30.9506 126.848 30.6452 126.727 30.2569 126.727C29.9894 126.727 29.7503 126.785 29.5396 126.901C29.3313 127.017 29.1667 127.187 29.046 127.409C28.9252 127.632 28.8649 127.902 28.8649 128.219ZM36.1634 131.614C35.6378 131.614 35.1844 131.498 34.8033 131.266C34.4245 131.031 34.1321 130.705 33.9261 130.286C33.7225 129.864 33.6207 129.374 33.6207 128.815C33.6207 128.257 33.7225 127.764 33.9261 127.338C34.1321 126.91 34.4186 126.576 34.7855 126.337C35.1548 126.095 35.5857 125.974 36.0781 125.974C36.3622 125.974 36.6428 126.022 36.9197 126.116C37.1967 126.211 37.4489 126.365 37.6761 126.578C37.9034 126.789 38.0845 127.068 38.2195 127.416C38.3544 127.764 38.4219 128.193 38.4219 128.702V129.057H34.2173V128.332H37.5696C37.5696 128.025 37.508 127.75 37.3849 127.509C37.2642 127.267 37.0914 127.076 36.8665 126.937C36.6439 126.797 36.3812 126.727 36.0781 126.727C35.7443 126.727 35.4555 126.81 35.2116 126.976C34.9702 127.139 34.7843 127.352 34.6541 127.615C34.5239 127.878 34.4588 128.16 34.4588 128.46V128.943C34.4588 129.355 34.5298 129.704 34.6719 129.991C34.8163 130.275 35.0163 130.491 35.272 130.641C35.5277 130.787 35.8248 130.861 36.1634 130.861C36.3835 130.861 36.5824 130.83 36.7599 130.768C36.9399 130.705 37.0949 130.61 37.2251 130.484C37.3554 130.357 37.456 130.198 37.527 130.009L38.3366 130.236C38.2514 130.51 38.1082 130.752 37.907 130.96C37.7057 131.166 37.4571 131.327 37.1612 131.443C36.8653 131.557 36.5327 131.614 36.1634 131.614ZM44.5689 131.614C44.1143 131.614 43.7131 131.499 43.3651 131.269C43.017 131.037 42.7448 130.71 42.5483 130.289C42.3518 129.865 42.2536 129.365 42.2536 128.787C42.2536 128.214 42.3518 127.717 42.5483 127.295C42.7448 126.874 43.0182 126.549 43.3686 126.319C43.719 126.089 44.1238 125.974 44.5831 125.974C44.9382 125.974 45.2188 126.034 45.4247 126.152C45.633 126.268 45.7917 126.401 45.9006 126.55C46.0118 126.696 46.0982 126.817 46.1598 126.912H46.2308V124.227H47.0689V131.5H46.2592V130.662H46.1598C46.0982 130.761 46.0107 130.887 45.897 131.038C45.7834 131.187 45.6212 131.321 45.4105 131.44C45.1998 131.556 44.9193 131.614 44.5689 131.614ZM44.6825 130.861C45.0187 130.861 45.3028 130.773 45.5348 130.598C45.7668 130.42 45.9432 130.175 46.0639 129.863C46.1847 129.548 46.245 129.185 46.245 128.773C46.245 128.366 46.1858 128.009 46.0675 127.704C45.9491 127.396 45.7739 127.157 45.5419 126.987C45.3099 126.814 45.0234 126.727 44.6825 126.727C44.3274 126.727 44.0315 126.818 43.7947 127.001C43.5604 127.181 43.384 127.426 43.2656 127.736C43.1496 128.044 43.0916 128.389 43.0916 128.773C43.0916 129.161 43.1508 129.514 43.2692 129.831C43.3899 130.146 43.5675 130.397 43.8018 130.584C44.0386 130.768 44.3321 130.861 44.6825 130.861ZM48.7202 131.5V126.045H49.5582V131.5H48.7202ZM49.1463 125.136C48.983 125.136 48.8421 125.081 48.7237 124.969C48.6077 124.858 48.5497 124.724 48.5497 124.568C48.5497 124.412 48.6077 124.278 48.7237 124.167C48.8421 124.056 48.983 124 49.1463 124C49.3097 124 49.4493 124.056 49.5653 124.167C49.6837 124.278 49.7429 124.412 49.7429 124.568C49.7429 124.724 49.6837 124.858 49.5653 124.969C49.4493 125.081 49.3097 125.136 49.1463 125.136ZM51.0932 131.5V126.045H51.9029V126.869H51.9597C52.0591 126.599 52.2391 126.38 52.4995 126.212C52.7599 126.044 53.0534 125.96 53.3801 125.96C53.4417 125.96 53.5186 125.961 53.611 125.964C53.7033 125.966 53.7731 125.97 53.8205 125.974V126.827C53.7921 126.82 53.727 126.809 53.6252 126.795C53.5257 126.778 53.4204 126.77 53.3091 126.77C53.044 126.77 52.8072 126.826 52.5989 126.937C52.3929 127.046 52.2296 127.197 52.1088 127.391C51.9905 127.583 51.9313 127.802 51.9313 128.048V131.5H51.0932ZM56.9348 131.614C56.4093 131.614 55.9559 131.498 55.5748 131.266C55.196 131.031 54.9036 130.705 54.6976 130.286C54.494 129.864 54.3922 129.374 54.3922 128.815C54.3922 128.257 54.494 127.764 54.6976 127.338C54.9036 126.91 55.19 126.576 55.557 126.337C55.9263 126.095 56.3572 125.974 56.8496 125.974C57.1337 125.974 57.4142 126.022 57.6912 126.116C57.9682 126.211 58.2203 126.365 58.4476 126.578C58.6749 126.789 58.856 127.068 58.9909 127.416C59.1259 127.764 59.1934 128.193 59.1934 128.702V129.057H54.9888V128.332H58.3411C58.3411 128.025 58.2795 127.75 58.1564 127.509C58.0357 127.267 57.8629 127.076 57.638 126.937C57.4154 126.797 57.1526 126.727 56.8496 126.727C56.5158 126.727 56.227 126.81 55.9831 126.976C55.7417 127.139 55.5558 127.352 55.4256 127.615C55.2954 127.878 55.2303 128.16 55.2303 128.46V128.943C55.2303 129.355 55.3013 129.704 55.4434 129.991C55.5878 130.275 55.7878 130.491 56.0435 130.641C56.2992 130.787 56.5963 130.861 56.9348 130.861C57.155 130.861 57.3539 130.83 57.5314 130.768C57.7114 130.705 57.8664 130.61 57.9966 130.484C58.1268 130.357 58.2275 130.198 58.2985 130.009L59.1081 130.236C59.0229 130.51 58.8797 130.752 58.6784 130.96C58.4772 131.166 58.2286 131.327 57.9327 131.443C57.6368 131.557 57.3042 131.614 56.9348 131.614ZM62.6841 131.614C62.1728 131.614 61.7324 131.493 61.3631 131.251C60.9938 131.01 60.7097 130.677 60.5108 130.254C60.312 129.83 60.2125 129.346 60.2125 128.801C60.2125 128.247 60.3143 127.758 60.5179 127.335C60.7239 126.908 61.0104 126.576 61.3773 126.337C61.7466 126.095 62.1775 125.974 62.6699 125.974C63.0534 125.974 63.3991 126.045 63.7069 126.188C64.0146 126.33 64.2667 126.528 64.4632 126.784C64.6597 127.04 64.7817 127.338 64.829 127.679H63.9909C63.927 127.43 63.785 127.21 63.5648 127.018C63.347 126.824 63.0534 126.727 62.6841 126.727C62.3574 126.727 62.071 126.812 61.8248 126.983C61.5809 127.151 61.3903 127.389 61.253 127.697C61.1181 128.002 61.0506 128.361 61.0506 128.773C61.0506 129.194 61.1169 129.561 61.2495 129.874C61.3844 130.186 61.5738 130.429 61.8176 130.602C62.0639 130.774 62.3527 130.861 62.6841 130.861C62.9019 130.861 63.0996 130.823 63.2772 130.747C63.4547 130.671 63.6051 130.562 63.7282 130.42C63.8513 130.278 63.9389 130.108 63.9909 129.909H64.829C64.7817 130.231 64.6645 130.521 64.4775 130.779C64.2928 131.035 64.0478 131.238 63.7424 131.39C63.4393 131.539 63.0866 131.614 62.6841 131.614ZM68.4263 126.045V126.756H65.5996V126.045H68.4263ZM66.4235 124.739H67.2615V129.938C67.2615 130.174 67.2959 130.352 67.3645 130.47C67.4355 130.586 67.5255 130.664 67.6344 130.705C67.7457 130.742 67.8629 130.761 67.986 130.761C68.0783 130.761 68.1541 130.757 68.2132 130.747C68.2724 130.735 68.3198 130.726 68.3553 130.719L68.5257 131.472C68.4689 131.493 68.3896 131.514 68.2878 131.536C68.186 131.559 68.057 131.571 67.9007 131.571C67.664 131.571 67.432 131.52 67.2047 131.418C66.9798 131.317 66.7928 131.161 66.6436 130.953C66.4969 130.745 66.4235 130.482 66.4235 130.165V124.739ZM69.687 131.5V126.045H70.525V131.5H69.687ZM70.1131 125.136C69.9498 125.136 69.8089 125.081 69.6905 124.969C69.5745 124.858 69.5165 124.724 69.5165 124.568C69.5165 124.412 69.5745 124.278 69.6905 124.167C69.8089 124.056 69.9498 124 70.1131 124C70.2765 124 70.4161 124.056 70.5321 124.167C70.6505 124.278 70.7097 124.412 70.7097 124.568C70.7097 124.724 70.6505 124.858 70.5321 124.969C70.4161 125.081 70.2765 125.136 70.1131 125.136ZM74.2759 131.614C73.7835 131.614 73.3514 131.496 72.9798 131.262C72.6104 131.028 72.3216 130.7 72.1133 130.278C71.9073 129.857 71.8043 129.365 71.8043 128.801C71.8043 128.233 71.9073 127.737 72.1133 127.313C72.3216 126.889 72.6104 126.56 72.9798 126.326C73.3514 126.092 73.7835 125.974 74.2759 125.974C74.7683 125.974 75.1992 126.092 75.5685 126.326C75.9402 126.56 76.229 126.889 76.435 127.313C76.6433 127.737 76.7475 128.233 76.7475 128.801C76.7475 129.365 76.6433 129.857 76.435 130.278C76.229 130.7 75.9402 131.028 75.5685 131.262C75.1992 131.496 74.7683 131.614 74.2759 131.614ZM74.2759 130.861C74.65 130.861 74.9577 130.765 75.1992 130.573C75.4407 130.381 75.6194 130.129 75.7354 129.817C75.8514 129.504 75.9094 129.166 75.9094 128.801C75.9094 128.437 75.8514 128.097 75.7354 127.782C75.6194 127.467 75.4407 127.213 75.1992 127.018C74.9577 126.824 74.65 126.727 74.2759 126.727C73.9019 126.727 73.5941 126.824 73.3526 127.018C73.1112 127.213 72.9324 127.467 72.8164 127.782C72.7004 128.097 72.6424 128.437 72.6424 128.801C72.6424 129.166 72.7004 129.504 72.8164 129.817C72.9324 130.129 73.1112 130.381 73.3526 130.573C73.5941 130.765 73.9019 130.861 74.2759 130.861ZM78.8649 128.219V131.5H78.0268V126.045H78.8365V126.898H78.9075C79.0353 126.621 79.2295 126.398 79.4899 126.23C79.7503 126.06 80.0865 125.974 80.4984 125.974C80.8677 125.974 81.1909 126.05 81.4679 126.202C81.7449 126.351 81.9603 126.578 82.1142 126.884C82.2681 127.187 82.345 127.57 82.345 128.034V131.5H81.5069V128.091C81.5069 127.662 81.3957 127.329 81.1731 127.089C80.9506 126.848 80.6452 126.727 80.2569 126.727C79.9894 126.727 79.7503 126.785 79.5396 126.901C79.3313 127.017 79.1667 127.187 79.046 127.409C78.9252 127.632 78.8649 127.902 78.8649 128.219Z" fill="#222222"/>
<path d="M153.066 132.212L152.535 131.681L155.981 128.231L152.535 124.781L153.066 124.25L157.047 128.231L153.066 132.212ZM157.641 132.212L157.11 131.681L160.556 128.231L157.11 124.781L157.641 124.25L161.622 128.231L157.641 132.212Z" fill="#222222"/>
<path d="M148.446 132.212L144.465 128.231L148.446 124.25L148.977 124.781L145.531 128.231L148.977 131.681L148.446 132.212ZM153.021 132.212L149.04 128.231L153.021 124.25L153.552 124.781L150.106 128.231L153.552 131.681L153.021 132.212Z" fill="#222222"/>
<path d="M176.438 131.981L172.457 128L176.438 124.019L176.968 124.55L173.523 128L176.968 131.45L176.438 131.981ZM181.013 131.981L177.032 128L181.013 124.019L181.543 124.55L178.098 128L181.543 131.45L181.013 131.981Z" fill="#222222"/>
<path d="M196.988 131.981L196.457 131.45L199.902 128L196.457 124.55L196.988 124.019L200.968 128L196.988 131.981ZM201.563 131.981L201.032 131.45L204.477 128L201.032 124.55L201.563 124.019L205.543 128L201.563 131.981Z" fill="#222222"/>
<path d="M274.461 129C274.186 129 273.951 128.902 273.755 128.706C273.559 128.51 273.461 128.275 273.461 128C273.461 127.725 273.559 127.49 273.755 127.294C273.951 127.098 274.186 127 274.461 127C274.736 127 274.972 127.098 275.168 127.294C275.364 127.49 275.461 127.725 275.461 128C275.461 128.275 275.364 128.51 275.168 128.706C274.972 128.902 274.736 129 274.461 129ZM280 129C279.725 129 279.489 128.902 279.294 128.706C279.098 128.51 279 128.275 279 128C279 127.725 279.098 127.49 279.294 127.294C279.489 127.098 279.725 127 280 127C280.275 127 280.51 127.098 280.706 127.294C280.902 127.49 281 127.725 281 128C281 128.275 280.902 128.51 280.706 128.706C280.51 128.902 280.275 129 280 129ZM285.538 129C285.263 129 285.028 128.902 284.832 128.706C284.636 128.51 284.538 128.275 284.538 128C284.538 127.725 284.636 127.49 284.832 127.294C285.028 127.098 285.263 127 285.538 127C285.813 127 286.049 127.098 286.245 127.294C286.44 127.49 286.538 127.725 286.538 128C286.538 128.275 286.44 128.51 286.245 128.706C286.049 128.902 285.813 129 285.538 129Z" fill="#222222"/>
</svg>
