<svg width="658" height="152" viewBox="0 0 658 152" fill="none" xmlns="http://www.w3.org/2000/svg">
<rect width="646" height="140" transform="translate(6 6)" fill="#FAE9BB"/>
<rect x="97" y="46" width="24" height="30" fill="#EDCB68"/>
<rect x="97" y="76" width="24" height="30" fill="#E0D1A8"/>
<rect x="137" y="46" width="24" height="30" fill="#EDCB68"/>
<rect x="137" y="76" width="24" height="30" fill="#E0D1A8"/>
<rect x="177" y="46" width="24" height="30" fill="#EDCB68"/>
<rect x="177" y="76" width="24" height="30" fill="#E0D1A8"/>
<rect x="217" y="46" width="24" height="30" fill="#EDCB68"/>
<rect x="217" y="76" width="24" height="30" fill="#E0D1A8"/>
<rect x="257" y="46" width="24" height="30" fill="#EDCB68"/>
<rect x="257" y="76" width="24" height="30" fill="#E0D1A8"/>
<rect x="297" y="46" width="24" height="30" fill="#EDCB68"/>
<rect x="297" y="76" width="24" height="30" fill="#E0D1A8"/>
<rect x="337" y="46" width="24" height="30" fill="#EDCB68"/>
<rect x="337" y="76" width="24" height="30" fill="#E0D1A8"/>
<rect x="377" y="46" width="24" height="30" fill="#EDCB68"/>
<rect x="377" y="76" width="24" height="30" fill="#E0D1A8"/>
<rect x="417" y="46" width="24" height="30" fill="#EDCB68"/>
<rect x="417" y="76" width="24" height="30" fill="#E0D1A8"/>
<rect x="457" y="46" width="24" height="30" fill="#EDCB68"/>
<rect x="457" y="76" width="24" height="30" fill="#E0D1A8"/>
<rect x="497" y="46" width="24" height="30" fill="#EDCB68"/>
<rect x="497" y="76" width="24" height="30" fill="#E0D1A8"/>
<rect x="537" y="46" width="24" height="30" fill="#EDCB68"/>
<rect x="537" y="76" width="24" height="30" fill="#E0D1A8"/>
</svg>
