<svg width="160" height="176" viewBox="0 0 160 176" fill="none" xmlns="http://www.w3.org/2000/svg">
<rect x="9.27635" y="68.4444" width="121.345" height="2.0057" fill="var(--colors-brand-brand-700)" stroke="var(--colors-neutral-neutral-800)" stroke-width="0.5"/>
<rect x="63.4302" y="70.4501" width="13.037" height="2.0057" fill="var(--colors-brand-brand-700)" stroke="var(--colors-neutral-neutral-800)" stroke-width="0.5"/>
<rect x="9.27635" y="70.4501" width="13.037" height="2.0057" fill="var(--colors-brand-brand-700)" stroke="var(--colors-neutral-neutral-800)" stroke-width="0.5"/>
<rect x="117.584" y="70.4501" width="13.037" height="2.0057" fill="var(--colors-brand-brand-700)" stroke="var(--colors-neutral-neutral-800)" stroke-width="0.5"/>
<rect x="9.27635" y="78.4729" width="121.345" height="2.0057" fill="var(--colors-brand-brand-700)" stroke="var(--colors-neutral-neutral-800)" stroke-width="0.5"/>
<rect x="63.4302" y="72.4558" width="13.037" height="6.01709" fill="var(--colors-brand-brand-700)" stroke="var(--colors-neutral-neutral-800)" stroke-width="0.5"/>
<rect x="9.27635" y="72.4558" width="13.037" height="6.01709" fill="var(--colors-brand-brand-700)" stroke="var(--colors-neutral-neutral-800)" stroke-width="0.5"/>
<rect x="117.584" y="72.4558" width="13.037" height="6.01709" fill="var(--colors-brand-brand-700)" stroke="var(--colors-neutral-neutral-800)" stroke-width="0.5"/>
<rect x="130.621" y="80.4786" width="4.0114" height="121.345" transform="rotate(90 130.621 80.4786)" fill="var(--colors-primary-primary-400)" stroke="var(--colors-neutral-neutral-800)" stroke-width="0.5"/>
<rect x="130.621" y="4.26211" width="4.0114" height="121.345" transform="rotate(90 130.621 4.26211)" fill="var(--colors-primary-primary-400)" stroke="var(--colors-neutral-neutral-800)" stroke-width="0.5"/>
<path d="M155.692 171.738L158.587 166.724L152.797 166.724L155.692 171.738ZM155.692 88.5014L152.797 93.5157L158.587 93.5157L155.692 88.5014ZM156.194 167.225L156.194 93.0142L155.191 93.0142L155.191 167.225L156.194 167.225Z" fill="var(--colors-neutral-neutral-800)"/>
<rect x="9.27635" y="163.715" width="121.345" height="2.0057" fill="var(--colors-brand-brand-700)" stroke="var(--colors-neutral-neutral-800)" stroke-width="0.5"/>
<rect x="63.4302" y="165.721" width="13.037" height="2.0057" fill="var(--colors-brand-brand-700)" stroke="var(--colors-neutral-neutral-800)" stroke-width="0.5"/>
<rect x="9.27635" y="165.721" width="13.037" height="2.0057" fill="var(--colors-brand-brand-700)" stroke="var(--colors-neutral-neutral-800)" stroke-width="0.5"/>
<rect x="117.584" y="165.721" width="13.037" height="2.0057" fill="var(--colors-brand-brand-700)" stroke="var(--colors-neutral-neutral-800)" stroke-width="0.5"/>
<rect x="9.27635" y="173.744" width="4.0114" height="2.0057" fill="var(--colors-brand-brand-700)" stroke="var(--colors-neutral-neutral-800)" stroke-width="0.5"/>
<rect x="9.27635" y="173.744" width="121.345" height="2.0057" fill="var(--colors-brand-brand-700)" stroke="var(--colors-neutral-neutral-800)" stroke-width="0.5"/>
<rect x="63.4302" y="167.726" width="13.037" height="6.01709" fill="var(--colors-brand-brand-700)" stroke="var(--colors-neutral-neutral-800)" stroke-width="0.5"/>
<rect x="9.27635" y="167.726" width="13.037" height="6.01709" fill="var(--colors-brand-brand-700)" stroke="var(--colors-neutral-neutral-800)" stroke-width="0.5"/>
<rect x="117.584" y="167.726" width="13.037" height="6.01709" fill="var(--colors-brand-brand-700)" stroke="var(--colors-neutral-neutral-800)" stroke-width="0.5"/>
<rect x="17.2991" y="135.635" width="41.1168" height="28.0798" fill="var(--colors-neutral-neutral-500)" stroke="var(--colors-neutral-neutral-800)" stroke-width="0.5"/>
<rect x="81.4815" y="40.3647" width="41.1168" height="28.0798" fill="var(--colors-neutral-neutral-500)" stroke="var(--colors-neutral-neutral-800)" stroke-width="0.5"/>
<rect x="81.4815" y="124.604" width="41.1168" height="39.1111" fill="var(--colors-neutral-neutral-500)" stroke="var(--colors-neutral-neutral-800)" stroke-width="0.5"/>
<rect x="17.2991" y="29.3333" width="41.1168" height="39.1111" fill="var(--colors-neutral-neutral-500)" stroke="var(--colors-neutral-neutral-800)" stroke-width="0.5"/>
<rect x="130.621" y="0.250712" width="9.02564" height="174.496" fill="var(--colors-primary-primary-600)" stroke="var(--colors-neutral-neutral-800)" stroke-width="0.5"/>
<rect x="130.621" y="173.744" width="9.02564" height="2.0057" fill="var(--colors-feedback-error-red-300)" stroke="var(--colors-neutral-neutral-800)" stroke-width="0.5"/>
<rect x="0.250712" y="0.250712" width="9.02564" height="174.496" fill="var(--colors-primary-primary-600)" stroke="var(--colors-neutral-neutral-800)" stroke-width="0.5"/>
<rect x="0.250712" y="173.744" width="9.02564" height="2.0057" fill="var(--colors-feedback-error-red-300)" stroke="var(--colors-neutral-neutral-800)" stroke-width="0.5"/>
<path d="M139.647 175.749H159.704" stroke="var(--colors-neutral-neutral-800)" stroke-width="0.5"/>
<path d="M130.621 84.49L159.704 84.49" stroke="var(--colors-neutral-neutral-800)" stroke-width="0.5"/>
</svg>
