<svg width="24" height="24" viewBox="0 0 24 24" fill="none" xmlns="http://www.w3.org/2000/svg">
<rect width="24" height="24" rx="2" fill="#F7F7F7"/>
<path d="M12.0034 21C10.7588 21 9.58872 20.7638 8.4931 20.2915C7.39748 19.8192 6.44444 19.1782 5.63397 18.3685C4.82352 17.5588 4.18192 16.6066 3.70915 15.512C3.23638 14.4174 3 13.2479 3 12.0033C3 10.7588 3.23625 9.58872 3.70875 8.4931C4.18125 7.39748 4.8225 6.44444 5.6325 5.63398C6.4425 4.82353 7.395 4.18192 8.49 3.70915C9.585 3.23638 10.755 3 12 3C13.0235 3 13.9918 3.15833 14.9051 3.475C15.8184 3.79167 16.6513 4.23333 17.4038 4.8L16.6846 5.54423C16.0256 5.05449 15.3008 4.67468 14.5101 4.4048C13.7194 4.13493 12.8827 4 12 4C9.78333 4 7.89583 4.77917 6.3375 6.3375C4.77917 7.89583 4 9.78333 4 12C4 14.2167 4.77917 16.1042 6.3375 17.6625C7.89583 19.2208 9.78333 20 12 20C14.2167 20 16.1042 19.2208 17.6625 17.6625C19.2208 16.1042 20 14.2167 20 12C20 11.5974 19.9705 11.2026 19.9116 10.8155C19.8526 10.4284 19.7641 10.0521 19.6462 9.68655L20.4442 8.86923C20.6276 9.36409 20.766 9.87181 20.8596 10.3924C20.9532 10.9129 21 11.4488 21 12C21 13.245 20.7638 14.415 20.2915 15.51C19.8192 16.605 19.1782 17.5575 18.3685 18.3675C17.5588 19.1775 16.6066 19.8188 15.512 20.2913C14.4174 20.7638 13.2479 21 12.0034 21ZM10.5616 15.9077L7.00385 12.35L7.71155 11.6423L10.5616 14.4923L20.2923 4.75577L21 5.46345L10.5616 15.9077Z" fill="#222222"/>
</svg>
