<svg width="272" height="94" viewBox="0 0 272 94" fill="none" xmlns="http://www.w3.org/2000/svg">
<rect width="272" height="94" fill="var(--colors-neutral-neutral-200)"/>
<path d="M20.044 29.144C19.308 29.144 18.668 28.96 18.124 28.592C17.588 28.216 17.172 27.704 16.876 27.056C16.588 26.4 16.444 25.648 16.444 24.8C16.444 23.92 16.596 23.156 16.9 22.508C17.204 21.86 17.628 21.36 18.172 21.008C18.724 20.656 19.364 20.48 20.092 20.48C20.676 20.48 21.204 20.596 21.676 20.828C22.156 21.052 22.544 21.38 22.84 21.812C23.144 22.236 23.32 22.744 23.368 23.336H21.976C21.912 22.8 21.712 22.372 21.376 22.052C21.04 21.724 20.608 21.56 20.08 21.56C19.624 21.56 19.22 21.692 18.868 21.956C18.524 22.212 18.256 22.584 18.064 23.072C17.872 23.56 17.776 24.14 17.776 24.812C17.776 25.484 17.872 26.064 18.064 26.552C18.264 27.04 18.536 27.416 18.88 27.68C19.224 27.936 19.612 28.064 20.044 28.064C20.42 28.064 20.748 27.988 21.028 27.836C21.308 27.676 21.532 27.456 21.7 27.176C21.876 26.896 21.98 26.568 22.012 26.192H23.416C23.36 26.784 23.188 27.304 22.9 27.752C22.612 28.192 22.224 28.536 21.736 28.784C21.256 29.024 20.692 29.144 20.044 29.144ZM24.3927 29V20.624H26.9727C27.5807 20.624 28.1287 20.724 28.6167 20.924C29.1047 21.116 29.5207 21.396 29.8647 21.764C30.2087 22.124 30.4727 22.56 30.6567 23.072C30.8407 23.584 30.9327 24.156 30.9327 24.788C30.9327 25.428 30.8407 26.008 30.6567 26.528C30.4727 27.04 30.2087 27.484 29.8647 27.86C29.5207 28.228 29.1047 28.512 28.6167 28.712C28.1287 28.904 27.5807 29 26.9727 29H24.3927ZM25.6647 27.92H26.9727C27.5167 27.92 27.9847 27.792 28.3767 27.536C28.7687 27.272 29.0687 26.904 29.2767 26.432C29.4927 25.96 29.6007 25.412 29.6007 24.788C29.6007 24.156 29.4927 23.612 29.2767 23.156C29.0687 22.692 28.7687 22.336 28.3767 22.088C27.9847 21.832 27.5167 21.704 26.9727 21.704H25.6647V27.92ZM34.3934 29V20.624H35.6654V29H34.3934ZM32.2934 20.624H37.7534V21.704H32.2934V20.624ZM32.2934 27.92H37.7534V29H32.2934V27.92Z" fill="var(--colors-neutral-neutral-800)"/>
<path d="M19.37 54.12C18.7567 54.12 18.2233 53.9667 17.77 53.66C17.3233 53.3467 16.9767 52.92 16.73 52.38C16.49 51.8333 16.37 51.2067 16.37 50.5C16.37 49.7667 16.4967 49.13 16.75 48.59C17.0033 48.05 17.3567 47.6333 17.81 47.34C18.27 47.0467 18.8033 46.9 19.41 46.9C19.8967 46.9 20.3367 46.9967 20.73 47.19C21.13 47.3767 21.4533 47.65 21.7 48.01C21.9533 48.3633 22.1 48.7867 22.14 49.28H20.98C20.9267 48.8333 20.76 48.4767 20.48 48.21C20.2 47.9367 19.84 47.8 19.4 47.8C19.02 47.8 18.6833 47.91 18.39 48.13C18.1033 48.3433 17.88 48.6533 17.72 49.06C17.56 49.4667 17.48 49.95 17.48 50.51C17.48 51.07 17.56 51.5533 17.72 51.96C17.8867 52.3667 18.1133 52.68 18.4 52.9C18.6867 53.1133 19.01 53.22 19.37 53.22C19.6833 53.22 19.9567 53.1567 20.19 53.03C20.4233 52.8967 20.61 52.7133 20.75 52.48C20.8967 52.2467 20.9833 51.9733 21.01 51.66H22.18C22.1333 52.1533 21.99 52.5867 21.75 52.96C21.51 53.3267 21.1867 53.6133 20.78 53.82C20.38 54.02 19.91 54.12 19.37 54.12ZM26.6339 54V50.54C26.6339 50.1467 26.5239 49.8333 26.3039 49.6C26.0839 49.36 25.7972 49.24 25.4439 49.24C25.0372 49.24 24.6739 49.39 24.3539 49.69C24.0406 49.9833 23.7906 50.4433 23.6039 51.07L23.4439 49.95C23.6506 49.4233 23.9472 49.03 24.3339 48.77C24.7272 48.51 25.1539 48.38 25.6139 48.38C26.0272 48.38 26.3839 48.47 26.6839 48.65C26.9906 48.8233 27.2272 49.07 27.3939 49.39C27.5606 49.7033 27.6439 50.0733 27.6439 50.5V54H26.6339ZM22.7139 54V46.64H23.7239V54H22.7139ZM32.4978 54L32.4578 52.75V50.4C32.4578 50.0067 32.3278 49.7 32.0678 49.48C31.8145 49.2533 31.4645 49.14 31.0178 49.14C30.5845 49.14 30.2311 49.24 29.9578 49.44C29.6845 49.6333 29.5345 49.9033 29.5078 50.25H28.5178C28.5511 49.8567 28.6778 49.5233 28.8978 49.25C29.1178 48.97 29.4111 48.7567 29.7778 48.61C30.1445 48.4567 30.5678 48.38 31.0478 48.38C31.5411 48.38 31.9678 48.4633 32.3278 48.63C32.6878 48.79 32.9645 49.0233 33.1578 49.33C33.3578 49.6367 33.4578 50.01 33.4578 50.45V54H32.4978ZM30.5078 54.12C30.1478 54.12 29.8311 54.0567 29.5578 53.93C29.2845 53.7967 29.0711 53.61 28.9178 53.37C28.7645 53.1233 28.6878 52.8367 28.6878 52.51C28.6878 51.9433 28.9045 51.5033 29.3378 51.19C29.7778 50.8767 30.3911 50.72 31.1778 50.72H32.5878V51.47H31.1378C30.6845 51.47 30.3278 51.5567 30.0678 51.73C29.8145 51.9033 29.6878 52.1467 29.6878 52.46C29.6878 52.72 29.7778 52.9233 29.9578 53.07C30.1445 53.2167 30.3945 53.29 30.7078 53.29C31.1078 53.29 31.4611 53.1833 31.7678 52.97C32.0811 52.75 32.3345 52.45 32.5278 52.07L32.6378 52.81C32.4645 53.23 32.1978 53.5533 31.8378 53.78C31.4778 54.0067 31.0345 54.12 30.5078 54.12ZM38.4617 50.86V50.2C38.4617 49.9133 38.3751 49.6833 38.2017 49.51C38.0284 49.33 37.7784 49.24 37.4517 49.24C37.0384 49.24 36.6684 49.3967 36.3417 49.71C36.0151 50.0167 35.7551 50.4867 35.5617 51.12L35.4217 50.1C35.5684 49.72 35.7451 49.4033 35.9517 49.15C36.1651 48.8967 36.4084 48.7067 36.6817 48.58C36.9617 48.4467 37.2684 48.38 37.6017 48.38C38.1551 48.38 38.6051 48.54 38.9517 48.86C39.2984 49.1733 39.4717 49.62 39.4717 50.2V50.86H38.4617ZM34.7417 54V48.5H35.6917L35.7517 49.75V54H34.7417ZM44.3956 49.29L44.4256 48.5H45.3756V53.4C45.3756 54.2133 45.1556 54.8333 44.7156 55.26C44.2823 55.6867 43.6256 55.9 42.7456 55.9C42.259 55.9 41.8356 55.8333 41.4756 55.7C41.1223 55.5667 40.8423 55.3667 40.6356 55.1C40.4356 54.84 40.3223 54.5133 40.2956 54.12H41.3456C41.379 54.42 41.5123 54.65 41.7456 54.81C41.9856 54.9767 42.3356 55.06 42.7956 55.06C43.3156 55.06 43.7056 54.9267 43.9656 54.66C44.2323 54.3933 44.3656 54.0133 44.3656 53.52V52.79C44.179 53.07 43.929 53.29 43.6156 53.45C43.309 53.61 42.9656 53.69 42.5856 53.69C42.1123 53.69 41.6923 53.5767 41.3256 53.35C40.9656 53.1233 40.6823 52.81 40.4756 52.41C40.269 52.0033 40.1656 51.5467 40.1656 51.04C40.1656 50.4933 40.2723 50.0233 40.4856 49.63C40.699 49.23 40.9923 48.9233 41.3656 48.71C41.739 48.49 42.1623 48.38 42.6356 48.38C43.0156 48.38 43.359 48.4633 43.6656 48.63C43.9723 48.7967 44.2156 49.0167 44.3956 49.29ZM42.8056 52.9C43.1656 52.9 43.4856 52.7967 43.7656 52.59C44.0523 52.3767 44.2523 52.09 44.3656 51.73V50.34C44.2523 49.98 44.0523 49.6967 43.7656 49.49C43.4856 49.2767 43.1656 49.17 42.8056 49.17C42.479 49.17 42.1923 49.25 41.9456 49.41C41.7056 49.57 41.5156 49.79 41.3756 50.07C41.2423 50.3433 41.1756 50.6633 41.1756 51.03C41.1756 51.39 41.2423 51.7133 41.3756 52C41.5156 52.28 41.7056 52.5 41.9456 52.66C42.1923 52.82 42.479 52.9 42.8056 52.9ZM48.8295 54.12C48.2629 54.12 47.7729 54.0067 47.3595 53.78C46.9462 53.5467 46.6295 53.2167 46.4095 52.79C46.1895 52.3567 46.0795 51.84 46.0795 51.24C46.0795 50.64 46.1895 50.1267 46.4095 49.7C46.6362 49.2733 46.9562 48.9467 47.3695 48.72C47.7895 48.4933 48.2895 48.38 48.8695 48.38C49.7562 48.38 50.4162 48.6267 50.8495 49.12C51.2829 49.6067 51.4729 50.2767 51.4195 51.13H46.8795L46.8895 50.37L50.3895 50.38C50.3629 50.0267 50.2095 49.7433 49.9295 49.53C49.6495 49.3167 49.2962 49.21 48.8695 49.21C48.2962 49.21 47.8562 49.39 47.5495 49.75C47.2429 50.11 47.0895 50.62 47.0895 51.28C47.0895 51.6733 47.1562 52.0233 47.2895 52.33C47.4295 52.63 47.6295 52.8633 47.8895 53.03C48.1495 53.1967 48.4629 53.28 48.8295 53.28C49.2629 53.28 49.6229 53.1767 49.9095 52.97C50.2029 52.7633 50.3829 52.4833 50.4495 52.13H51.4595C51.3729 52.75 51.0962 53.2367 50.6295 53.59C50.1629 53.9433 49.5629 54.12 48.8295 54.12ZM61.0273 54C60.6873 54 60.3973 53.9333 60.1573 53.8C59.9173 53.66 59.7373 53.4633 59.6173 53.21C59.4973 52.9567 59.4373 52.66 59.4373 52.32V47.46L60.4473 46.91V52.32C60.4473 52.48 60.4707 52.6267 60.5173 52.76C60.564 52.8933 60.654 52.9967 60.7873 53.07C60.9273 53.1433 61.1307 53.18 61.3973 53.18H63.0473V54H61.0273ZM58.1373 49.32V48.5H62.1673V49.32H58.1373ZM66.0313 54V48.5H67.0413V54H66.0313ZM64.0013 54V53.18H68.9313V54H64.0013ZM64.7313 49.32V48.5H66.5313V49.32H64.7313ZM65.9613 47.56V46.47H67.0913V47.56H65.9613ZM74.2052 54V49.98C74.2052 49.74 74.1618 49.5533 74.0752 49.42C73.9952 49.2867 73.8685 49.22 73.6952 49.22C73.4552 49.22 73.2385 49.3733 73.0452 49.68C72.8585 49.9867 72.7285 50.47 72.6552 51.13L72.5652 50.28C72.5852 49.68 72.7252 49.2133 72.9852 48.88C73.2518 48.5467 73.5785 48.38 73.9652 48.38C74.3252 48.38 74.6085 48.5133 74.8152 48.78C75.0285 49.04 75.1352 49.4133 75.1352 49.9V54H74.2052ZM69.6352 54V48.5H70.5252L70.5652 49.57V54H69.6352ZM71.9252 54V49.98C71.9252 49.7267 71.8785 49.5367 71.7852 49.41C71.6985 49.2833 71.5652 49.22 71.3852 49.22C71.1318 49.22 70.9152 49.38 70.7352 49.7C70.5552 50.02 70.4285 50.4967 70.3552 51.13L70.3352 50.25C70.3485 49.8567 70.4185 49.52 70.5452 49.24C70.6718 48.96 70.8352 48.7467 71.0352 48.6C71.2352 48.4533 71.4485 48.38 71.6752 48.38C72.0485 48.38 72.3352 48.5167 72.5352 48.79C72.7418 49.0567 72.8452 49.4233 72.8452 49.89V54H71.9252ZM78.3491 54.12C77.7824 54.12 77.2924 54.0067 76.8791 53.78C76.4657 53.5467 76.1491 53.2167 75.9291 52.79C75.7091 52.3567 75.5991 51.84 75.5991 51.24C75.5991 50.64 75.7091 50.1267 75.9291 49.7C76.1557 49.2733 76.4757 48.9467 76.8891 48.72C77.3091 48.4933 77.8091 48.38 78.3891 48.38C79.2757 48.38 79.9357 48.6267 80.3691 49.12C80.8024 49.6067 80.9924 50.2767 80.9391 51.13H76.3991L76.4091 50.37L79.9091 50.38C79.8824 50.0267 79.7291 49.7433 79.4491 49.53C79.1691 49.3167 78.8157 49.21 78.3891 49.21C77.8157 49.21 77.3757 49.39 77.0691 49.75C76.7624 50.11 76.6091 50.62 76.6091 51.28C76.6091 51.6733 76.6757 52.0233 76.8091 52.33C76.9491 52.63 77.1491 52.8633 77.4091 53.03C77.6691 53.1967 77.9824 53.28 78.3491 53.28C78.7824 53.28 79.1424 53.1767 79.4291 52.97C79.7224 52.7633 79.9024 52.4833 79.9691 52.13H80.9791C80.8924 52.75 80.6157 53.2367 80.1491 53.59C79.6824 53.9433 79.0824 54.12 78.3491 54.12ZM90.0169 54V49.69L90.0669 48.27L88.9369 49.19L87.6869 50.19V48.94L90.3069 47.02H91.0769V54H90.0169ZM87.6869 54V53.1H92.6269V54H87.6869ZM96.0008 54.12C95.4341 54.12 94.9508 53.9733 94.5508 53.68C94.1508 53.38 93.8441 52.96 93.6308 52.42C93.4174 51.8733 93.3108 51.2367 93.3108 50.51C93.3108 49.77 93.4174 49.13 93.6308 48.59C93.8441 48.05 94.1508 47.6333 94.5508 47.34C94.9508 47.0467 95.4341 46.9 96.0008 46.9C96.5741 46.9 97.0574 47.0467 97.4508 47.34C97.8508 47.6333 98.1574 48.05 98.3708 48.59C98.5841 49.1233 98.6908 49.7633 98.6908 50.51C98.6908 51.2433 98.5841 51.88 98.3708 52.42C98.1574 52.96 97.8508 53.38 97.4508 53.68C97.0574 53.9733 96.5741 54.12 96.0008 54.12ZM96.0008 53.22C96.5274 53.22 96.9241 52.9833 97.1908 52.51C97.4574 52.03 97.5908 51.3633 97.5908 50.51C97.5908 49.6433 97.4574 48.9767 97.1908 48.51C96.9241 48.0367 96.5274 47.8 96.0008 47.8C95.4808 47.8 95.0874 48.0367 94.8208 48.51C94.5541 48.9767 94.4208 49.6433 94.4208 50.51C94.4208 51.3633 94.5541 52.03 94.8208 52.51C95.0874 52.9833 95.4808 53.22 96.0008 53.22ZM99.2647 54L103.685 47.02H104.545L100.135 54H99.2647ZM103.405 54.12C103.118 54.12 102.865 54.0533 102.645 53.92C102.425 53.78 102.251 53.5867 102.125 53.34C102.005 53.0933 101.945 52.8033 101.945 52.47C101.945 52.1367 102.005 51.85 102.125 51.61C102.251 51.3633 102.425 51.1733 102.645 51.04C102.865 50.9 103.118 50.83 103.405 50.83C103.705 50.83 103.965 50.9 104.185 51.04C104.405 51.1733 104.575 51.3633 104.695 51.61C104.821 51.85 104.885 52.1367 104.885 52.47C104.885 52.8033 104.821 53.0933 104.695 53.34C104.575 53.5867 104.405 53.78 104.185 53.92C103.965 54.0533 103.705 54.12 103.405 54.12ZM103.415 53.44C103.621 53.44 103.788 53.3533 103.915 53.18C104.048 53 104.115 52.7633 104.115 52.47C104.115 52.1833 104.048 51.9533 103.915 51.78C103.788 51.6 103.621 51.51 103.415 51.51C103.208 51.51 103.038 51.6 102.905 51.78C102.778 51.9533 102.715 52.1833 102.715 52.47C102.715 52.7633 102.778 53 102.905 53.18C103.038 53.3533 103.208 53.44 103.415 53.44ZM100.395 50.17C100.101 50.17 99.8447 50.1033 99.6247 49.97C99.4047 49.83 99.2347 49.6367 99.1147 49.39C98.9947 49.1433 98.9347 48.8533 98.9347 48.52C98.9347 48.1867 98.9947 47.9 99.1147 47.66C99.2347 47.4133 99.4047 47.2233 99.6247 47.09C99.8447 46.95 100.101 46.88 100.395 46.88C100.695 46.88 100.955 46.95 101.175 47.09C101.395 47.2233 101.565 47.4133 101.685 47.66C101.805 47.9 101.865 48.1867 101.865 48.52C101.865 48.8533 101.805 49.1433 101.685 49.39C101.565 49.6367 101.395 49.83 101.175 49.97C100.955 50.1033 100.695 50.17 100.395 50.17ZM100.395 49.49C100.608 49.49 100.778 49.4033 100.905 49.23C101.038 49.05 101.105 48.8133 101.105 48.52C101.105 48.2333 101.038 48.0033 100.905 47.83C100.778 47.65 100.608 47.56 100.395 47.56C100.188 47.56 100.021 47.65 99.8947 47.83C99.768 48.0033 99.7047 48.2333 99.7047 48.52C99.7047 48.8133 99.768 49.05 99.8947 49.23C100.021 49.4033 100.188 49.49 100.395 49.49Z" fill="var(--colors-neutral-neutral-600)"/>
<path d="M19.86 74V72.33H16.4V71.58L19.48 67.02H20.94V71.43H22.12V72.33H20.94V74H19.86ZM17.52 71.43H19.86V69.33L19.88 67.89L19.1 69.11L17.52 71.43ZM31.2078 74.12C30.7211 74.12 30.2911 74.0367 29.9178 73.87C29.5511 73.6967 29.2678 73.4567 29.0678 73.15C28.8678 72.8367 28.7645 72.4633 28.7578 72.03H29.7078C29.7078 72.4367 29.8445 72.7567 30.1178 72.99C30.3911 73.2233 30.7511 73.34 31.1978 73.34C31.5778 73.34 31.8811 73.27 32.1078 73.13C32.3411 72.9833 32.4578 72.7867 32.4578 72.54C32.4578 72.3467 32.3911 72.1933 32.2578 72.08C32.1311 71.96 31.9611 71.8667 31.7478 71.8C31.5345 71.7333 31.2978 71.6767 31.0378 71.63C30.7845 71.5767 30.5278 71.5167 30.2678 71.45C30.0145 71.3767 29.7811 71.2867 29.5678 71.18C29.3545 71.0667 29.1811 70.9167 29.0478 70.73C28.9145 70.5433 28.8478 70.3 28.8478 70C28.8478 69.6867 28.9378 69.41 29.1178 69.17C29.2978 68.9233 29.5511 68.73 29.8778 68.59C30.2111 68.45 30.6045 68.38 31.0578 68.38C31.7445 68.38 32.2945 68.54 32.7078 68.86C33.1278 69.1733 33.3545 69.6067 33.3878 70.16H32.4378C32.4178 69.84 32.2845 69.5933 32.0378 69.42C31.7978 69.24 31.4711 69.15 31.0578 69.15C30.6711 69.15 30.3745 69.2267 30.1678 69.38C29.9678 69.5333 29.8678 69.7267 29.8678 69.96C29.8678 70.14 29.9345 70.2833 30.0678 70.39C30.2011 70.49 30.3745 70.57 30.5878 70.63C30.8011 70.6833 31.0345 70.7333 31.2878 70.78C31.5478 70.82 31.8045 70.8733 32.0578 70.94C32.3178 71.0067 32.5545 71.1 32.7678 71.22C32.9811 71.3333 33.1511 71.49 33.2778 71.69C33.4111 71.89 33.4778 72.15 33.4778 72.47C33.4778 72.9833 33.2711 73.3867 32.8578 73.68C32.4445 73.9733 31.8945 74.12 31.2078 74.12ZM37.4117 74C37.0717 74 36.7817 73.9333 36.5417 73.8C36.3017 73.66 36.1217 73.4633 36.0017 73.21C35.8817 72.9567 35.8217 72.66 35.8217 72.32V67.46L36.8317 66.91V72.32C36.8317 72.48 36.8551 72.6267 36.9017 72.76C36.9484 72.8933 37.0384 72.9967 37.1717 73.07C37.3117 73.1433 37.5151 73.18 37.7817 73.18H39.4317V74H37.4117ZM34.5217 69.32V68.5H38.5517V69.32H34.5217ZM44.3056 74L44.2656 72.75V70.4C44.2656 70.0067 44.1356 69.7 43.8756 69.48C43.6223 69.2533 43.2723 69.14 42.8256 69.14C42.3923 69.14 42.039 69.24 41.7656 69.44C41.4923 69.6333 41.3423 69.9033 41.3156 70.25H40.3256C40.359 69.8567 40.4856 69.5233 40.7056 69.25C40.9256 68.97 41.219 68.7567 41.5856 68.61C41.9523 68.4567 42.3756 68.38 42.8556 68.38C43.349 68.38 43.7756 68.4633 44.1356 68.63C44.4956 68.79 44.7723 69.0233 44.9656 69.33C45.1656 69.6367 45.2656 70.01 45.2656 70.45V74H44.3056ZM42.3156 74.12C41.9556 74.12 41.639 74.0567 41.3656 73.93C41.0923 73.7967 40.879 73.61 40.7256 73.37C40.5723 73.1233 40.4956 72.8367 40.4956 72.51C40.4956 71.9433 40.7123 71.5033 41.1456 71.19C41.5856 70.8767 42.199 70.72 42.9856 70.72H44.3956V71.47H42.9456C42.4923 71.47 42.1356 71.5567 41.8756 71.73C41.6223 71.9033 41.4956 72.1467 41.4956 72.46C41.4956 72.72 41.5856 72.9233 41.7656 73.07C41.9523 73.2167 42.2023 73.29 42.5156 73.29C42.9156 73.29 43.269 73.1833 43.5756 72.97C43.889 72.75 44.1423 72.45 44.3356 72.07L44.4456 72.81C44.2723 73.23 44.0056 73.5533 43.6456 73.78C43.2856 74.0067 42.8423 74.12 42.3156 74.12ZM49.2195 74C48.8795 74 48.5895 73.9333 48.3495 73.8C48.1095 73.66 47.9295 73.4633 47.8095 73.21C47.6895 72.9567 47.6295 72.66 47.6295 72.32V67.46L48.6395 66.91V72.32C48.6395 72.48 48.6629 72.6267 48.7095 72.76C48.7562 72.8933 48.8462 72.9967 48.9795 73.07C49.1195 73.1433 49.3229 73.18 49.5895 73.18H51.2395V74H49.2195ZM46.3295 69.32V68.5H50.3595V69.32H46.3295ZM54.2234 74V68.5H55.2334V74H54.2234ZM52.1934 74V73.18H57.1234V74H52.1934ZM52.9234 69.32V68.5H54.7234V69.32H52.9234ZM54.1534 67.56V66.47H55.2834V67.56H54.1534ZM60.5673 74.12C60.0007 74.12 59.5107 74.0033 59.0973 73.77C58.6907 73.5367 58.3773 73.2067 58.1573 72.78C57.9373 72.3467 57.8273 71.8367 57.8273 71.25C57.8273 70.65 57.9373 70.14 58.1573 69.72C58.3773 69.2933 58.6907 68.9633 59.0973 68.73C59.5107 68.4967 60.004 68.38 60.5773 68.38C61.4307 68.38 62.1007 68.6367 62.5873 69.15C63.074 69.6567 63.3173 70.3567 63.3173 71.25C63.3173 71.8367 63.2073 72.3467 62.9873 72.78C62.7673 73.2067 62.4507 73.5367 62.0373 73.77C61.6307 74.0033 61.1407 74.12 60.5673 74.12ZM60.5773 73.28C61.1107 73.28 61.5307 73.1 61.8373 72.74C62.1507 72.3733 62.3073 71.8767 62.3073 71.25C62.3073 70.6167 62.1507 70.12 61.8373 69.76C61.5307 69.4 61.1107 69.22 60.5773 69.22C60.0373 69.22 59.614 69.4 59.3073 69.76C59.0007 70.12 58.8473 70.6167 58.8473 71.25C58.8473 71.8767 59.0007 72.3733 59.3073 72.74C59.614 73.1 60.0373 73.28 60.5773 73.28ZM67.9613 74V70.53C67.9613 70.1433 67.8513 69.8333 67.6313 69.6C67.4113 69.36 67.1246 69.24 66.7713 69.24C66.3646 69.24 66.0013 69.39 65.6813 69.69C65.3679 69.9833 65.1179 70.4433 64.9313 71.07L64.7713 69.94C64.9779 69.42 65.2746 69.03 65.6613 68.77C66.0546 68.51 66.4813 68.38 66.9413 68.38C67.3546 68.38 67.7113 68.47 68.0113 68.65C68.3179 68.8233 68.5546 69.0667 68.7213 69.38C68.8879 69.6933 68.9713 70.0633 68.9713 70.49V74H67.9613ZM64.0413 74V68.5H65.0013L65.0513 69.74V74H64.0413ZM72.5352 74.12C72.0485 74.12 71.6185 74.0367 71.2452 73.87C70.8785 73.6967 70.5952 73.4567 70.3952 73.15C70.1952 72.8367 70.0918 72.4633 70.0852 72.03H71.0352C71.0352 72.4367 71.1718 72.7567 71.4452 72.99C71.7185 73.2233 72.0785 73.34 72.5252 73.34C72.9052 73.34 73.2085 73.27 73.4352 73.13C73.6685 72.9833 73.7852 72.7867 73.7852 72.54C73.7852 72.3467 73.7185 72.1933 73.5852 72.08C73.4585 71.96 73.2885 71.8667 73.0752 71.8C72.8618 71.7333 72.6252 71.6767 72.3652 71.63C72.1118 71.5767 71.8552 71.5167 71.5952 71.45C71.3418 71.3767 71.1085 71.2867 70.8952 71.18C70.6818 71.0667 70.5085 70.9167 70.3752 70.73C70.2418 70.5433 70.1752 70.3 70.1752 70C70.1752 69.6867 70.2652 69.41 70.4452 69.17C70.6252 68.9233 70.8785 68.73 71.2052 68.59C71.5385 68.45 71.9318 68.38 72.3852 68.38C73.0718 68.38 73.6218 68.54 74.0352 68.86C74.4552 69.1733 74.6818 69.6067 74.7152 70.16H73.7652C73.7452 69.84 73.6118 69.5933 73.3652 69.42C73.1252 69.24 72.7985 69.15 72.3852 69.15C71.9985 69.15 71.7018 69.2267 71.4952 69.38C71.2952 69.5333 71.1952 69.7267 71.1952 69.96C71.1952 70.14 71.2618 70.2833 71.3952 70.39C71.5285 70.49 71.7018 70.57 71.9152 70.63C72.1285 70.6833 72.3618 70.7333 72.6152 70.78C72.8752 70.82 73.1318 70.8733 73.3852 70.94C73.6452 71.0067 73.8818 71.1 74.0952 71.22C74.3085 71.3333 74.4785 71.49 74.6052 71.69C74.7385 71.89 74.8052 72.15 74.8052 72.47C74.8052 72.9833 74.5985 73.3867 74.1852 73.68C73.7718 73.9733 73.2218 74.12 72.5352 74.12Z" fill="var(--colors-neutral-neutral-600)"/>
</svg>
