<svg width="304" height="360" viewBox="0 0 304 360" fill="none" xmlns="http://www.w3.org/2000/svg">
<rect x="0.5" y="0.5" width="303" height="359" stroke="#E6E6E6"/>
<mask id="path-2-inside-1_3837_52384" fill="white">
<path d="M0 0H304V52H0V0Z"/>
</mask>
<path d="M304 51H0V53H304V51Z" fill="#E6E6E6" mask="url(#path-2-inside-1_3837_52384)"/>
<path d="M18.616 30L16.336 21.624H18.136L19.516 26.58L19.924 28.644L20.332 26.58L21.712 21.624H23.488L21.196 30H18.616ZM27.7767 30.144C27.0647 30.144 26.4527 30.004 25.9407 29.724C25.4367 29.444 25.0447 29.044 24.7647 28.524C24.4927 28.004 24.3567 27.388 24.3567 26.676C24.3567 25.948 24.4927 25.328 24.7647 24.816C25.0447 24.296 25.4447 23.9 25.9647 23.628C26.4847 23.348 27.1127 23.208 27.8487 23.208C28.9927 23.208 29.8247 23.528 30.3447 24.168C30.8727 24.808 31.0967 25.688 31.0167 26.808H25.6767V25.656H29.3367C29.3047 25.312 29.1487 25.036 28.8687 24.828C28.5967 24.612 28.2527 24.504 27.8367 24.504C27.2207 24.504 26.7607 24.696 26.4567 25.08C26.1607 25.464 26.0127 26.02 26.0127 26.748C26.0127 27.132 26.0807 27.48 26.2167 27.792C26.3527 28.104 26.5487 28.352 26.8047 28.536C27.0687 28.72 27.3927 28.812 27.7767 28.812C28.1927 28.812 28.5447 28.708 28.8327 28.5C29.1287 28.292 29.3087 28.024 29.3727 27.696H31.0167C30.9287 28.448 30.5967 29.044 30.0207 29.484C29.4447 29.924 28.6967 30.144 27.7767 30.144ZM37.0574 26.52V25.656C37.0574 25.336 36.9694 25.08 36.7934 24.888C36.6174 24.688 36.3574 24.588 36.0134 24.588C35.6054 24.588 35.2294 24.732 34.8854 25.02C34.5494 25.3 34.2454 25.764 33.9734 26.412L33.7814 24.96C33.9814 24.576 34.2054 24.256 34.4534 24C34.7094 23.736 34.9894 23.54 35.2934 23.412C35.6054 23.276 35.9494 23.208 36.3254 23.208C37.0214 23.208 37.5934 23.416 38.0414 23.832C38.4894 24.248 38.7134 24.856 38.7134 25.656V26.52H37.0574ZM32.6054 30V23.352H34.1774L34.2614 24.648V30H32.6054ZM43.4821 30.144C42.8741 30.144 42.3381 30.044 41.8741 29.844C41.4101 29.636 41.0501 29.344 40.7941 28.968C40.5461 28.592 40.4181 28.144 40.4101 27.624H41.9461C41.9381 28.032 42.0701 28.352 42.3421 28.584C42.6221 28.816 42.9981 28.932 43.4701 28.932C43.8381 28.932 44.1341 28.868 44.3581 28.74C44.5821 28.612 44.6941 28.432 44.6941 28.2C44.6941 28.008 44.6181 27.856 44.4661 27.744C44.3141 27.632 44.1141 27.544 43.8661 27.48C43.6261 27.408 43.3581 27.344 43.0621 27.288C42.7661 27.224 42.4701 27.152 42.1741 27.072C41.8781 26.984 41.6061 26.868 41.3581 26.724C41.1101 26.58 40.9101 26.392 40.7581 26.16C40.6061 25.92 40.5301 25.616 40.5301 25.248C40.5301 24.84 40.6461 24.484 40.8781 24.18C41.1101 23.876 41.4341 23.64 41.8501 23.472C42.2741 23.296 42.7621 23.208 43.3141 23.208C44.1621 23.208 44.8461 23.404 45.3661 23.796C45.8861 24.188 46.1701 24.732 46.2181 25.428H44.6941C44.6701 25.1 44.5341 24.852 44.2861 24.684C44.0461 24.508 43.7261 24.42 43.3261 24.42C42.9741 24.42 42.6981 24.488 42.4981 24.624C42.2981 24.752 42.1981 24.932 42.1981 25.164C42.1981 25.348 42.2741 25.492 42.4261 25.596C42.5781 25.692 42.7741 25.772 43.0141 25.836C43.2621 25.9 43.5341 25.956 43.8301 26.004C44.1341 26.052 44.4301 26.12 44.7181 26.208C45.0141 26.288 45.2821 26.4 45.5221 26.544C45.7701 26.68 45.9701 26.868 46.1221 27.108C46.2741 27.348 46.3501 27.656 46.3501 28.032C46.3501 28.696 46.0901 29.216 45.5701 29.592C45.0501 29.96 44.3541 30.144 43.4821 30.144ZM50.3148 30V23.352H51.9588V30H50.3148ZM48.0588 30V28.668H54.1788V30H48.0588ZM48.9108 24.684V23.352H51.1428V24.684H48.9108ZM50.2428 22.38V20.784H52.0188V22.38H50.2428ZM58.9234 30.144C58.2194 30.144 57.6114 30.004 57.0994 29.724C56.5954 29.444 56.2074 29.048 55.9354 28.536C55.6714 28.016 55.5394 27.396 55.5394 26.676C55.5394 25.956 55.6714 25.34 55.9354 24.828C56.2074 24.308 56.5954 23.908 57.0994 23.628C57.6114 23.348 58.2194 23.208 58.9234 23.208C59.9794 23.208 60.8034 23.516 61.3954 24.132C61.9954 24.748 62.2954 25.596 62.2954 26.676C62.2954 27.396 62.1594 28.016 61.8874 28.536C61.6234 29.048 61.2394 29.444 60.7354 29.724C60.2314 30.004 59.6274 30.144 58.9234 30.144ZM58.9234 28.8C59.4594 28.8 59.8794 28.612 60.1834 28.236C60.4954 27.852 60.6514 27.332 60.6514 26.676C60.6514 26.012 60.4954 25.492 60.1834 25.116C59.8794 24.74 59.4594 24.552 58.9234 24.552C58.3794 24.552 57.9514 24.74 57.6394 25.116C57.3354 25.492 57.1834 26.012 57.1834 26.676C57.1834 27.332 57.3354 27.852 57.6394 28.236C57.9514 28.612 58.3794 28.8 58.9234 28.8ZM68.1921 30V25.872C68.1921 25.488 68.0881 25.18 67.8801 24.948C67.6801 24.708 67.4121 24.588 67.0761 24.588C66.6921 24.588 66.3441 24.724 66.0321 24.996C65.7201 25.26 65.4281 25.696 65.1561 26.304L64.9161 24.792C65.2041 24.24 65.5681 23.84 66.0081 23.592C66.4481 23.336 66.9121 23.208 67.4001 23.208C67.9041 23.208 68.3361 23.316 68.6961 23.532C69.0641 23.748 69.3481 24.048 69.5481 24.432C69.7481 24.808 69.8481 25.256 69.8481 25.776V30H68.1921ZM63.6561 30V23.352H65.2401L65.3001 24.636V30H63.6561ZM83.8015 30V25.884C83.8015 25.492 83.6975 25.18 83.4895 24.948C83.2895 24.708 83.0215 24.588 82.6855 24.588C82.3015 24.588 81.9535 24.724 81.6415 24.996C81.3295 25.26 81.0375 25.696 80.7655 26.304L80.5255 24.804C80.8135 24.244 81.1775 23.84 81.6175 23.592C82.0575 23.336 82.5215 23.208 83.0095 23.208C83.5135 23.208 83.9455 23.316 84.3055 23.532C84.6735 23.748 84.9575 24.048 85.1575 24.432C85.3575 24.816 85.4575 25.268 85.4575 25.788V30H83.8015ZM79.2655 30V21.132H80.9095V30H79.2655ZM89.3382 30V23.352H90.9822V30H89.3382ZM87.0822 30V28.668H93.2022V30H87.0822ZM87.9342 24.684V23.352H90.1662V24.684H87.9342ZM89.2662 22.38V20.784H91.0422V22.38H89.2662ZM98.1149 30.144C97.5069 30.144 96.9709 30.044 96.5069 29.844C96.0429 29.636 95.6829 29.344 95.4269 28.968C95.1789 28.592 95.0509 28.144 95.0429 27.624H96.5789C96.5709 28.032 96.7029 28.352 96.9749 28.584C97.2549 28.816 97.6309 28.932 98.1029 28.932C98.4709 28.932 98.7669 28.868 98.9909 28.74C99.2149 28.612 99.3269 28.432 99.3269 28.2C99.3269 28.008 99.2509 27.856 99.0989 27.744C98.9469 27.632 98.7469 27.544 98.4989 27.48C98.2589 27.408 97.9909 27.344 97.6949 27.288C97.3989 27.224 97.1029 27.152 96.8069 27.072C96.5109 26.984 96.2389 26.868 95.9909 26.724C95.7429 26.58 95.5429 26.392 95.3909 26.16C95.2389 25.92 95.1629 25.616 95.1629 25.248C95.1629 24.84 95.2789 24.484 95.5109 24.18C95.7429 23.876 96.0669 23.64 96.4829 23.472C96.9069 23.296 97.3949 23.208 97.9469 23.208C98.7949 23.208 99.4789 23.404 99.9989 23.796C100.519 24.188 100.803 24.732 100.851 25.428H99.3269C99.3029 25.1 99.1669 24.852 98.9189 24.684C98.6789 24.508 98.3589 24.42 97.9589 24.42C97.6069 24.42 97.3309 24.488 97.1309 24.624C96.9309 24.752 96.8309 24.932 96.8309 25.164C96.8309 25.348 96.9069 25.492 97.0589 25.596C97.2109 25.692 97.4069 25.772 97.6469 25.836C97.8949 25.9 98.1669 25.956 98.4629 26.004C98.7669 26.052 99.0629 26.12 99.3509 26.208C99.6469 26.288 99.9149 26.4 100.155 26.544C100.403 26.68 100.603 26.868 100.755 27.108C100.907 27.348 100.983 27.656 100.983 28.032C100.983 28.696 100.723 29.216 100.203 29.592C99.6829 29.96 98.9869 30.144 98.1149 30.144ZM106.292 30C105.86 30 105.48 29.904 105.152 29.712C104.832 29.52 104.584 29.252 104.408 28.908C104.24 28.564 104.156 28.172 104.156 27.732V22.188L105.812 21.408V27.732C105.812 27.932 105.84 28.104 105.896 28.248C105.952 28.384 106.064 28.488 106.232 28.56C106.4 28.632 106.632 28.668 106.928 28.668H108.716V30H106.292ZM102.764 24.684V23.352H107.576V24.684H102.764ZM113.556 30.144C112.852 30.144 112.244 30.004 111.732 29.724C111.228 29.444 110.84 29.048 110.568 28.536C110.304 28.016 110.172 27.396 110.172 26.676C110.172 25.956 110.304 25.34 110.568 24.828C110.84 24.308 111.228 23.908 111.732 23.628C112.244 23.348 112.852 23.208 113.556 23.208C114.612 23.208 115.436 23.516 116.028 24.132C116.628 24.748 116.928 25.596 116.928 26.676C116.928 27.396 116.792 28.016 116.52 28.536C116.256 29.048 115.872 29.444 115.368 29.724C114.864 30.004 114.26 30.144 113.556 30.144ZM113.556 28.8C114.092 28.8 114.512 28.612 114.816 28.236C115.128 27.852 115.284 27.332 115.284 26.676C115.284 26.012 115.128 25.492 114.816 25.116C114.512 24.74 114.092 24.552 113.556 24.552C113.012 24.552 112.584 24.74 112.272 25.116C111.968 25.492 111.816 26.012 111.816 26.676C111.816 27.332 111.968 27.852 112.272 28.236C112.584 28.612 113.012 28.8 113.556 28.8ZM122.909 26.52V25.656C122.909 25.336 122.821 25.08 122.645 24.888C122.469 24.688 122.209 24.588 121.865 24.588C121.457 24.588 121.081 24.732 120.737 25.02C120.401 25.3 120.097 25.764 119.825 26.412L119.633 24.96C119.833 24.576 120.057 24.256 120.305 24C120.561 23.736 120.841 23.54 121.145 23.412C121.457 23.276 121.801 23.208 122.177 23.208C122.873 23.208 123.445 23.416 123.893 23.832C124.341 24.248 124.565 24.856 124.565 25.656V26.52H122.909ZM118.457 30V23.352H120.029L120.113 24.648V30H118.457ZM128.554 25.98L129.166 27.672L129.778 25.98L130.882 23.352H132.574L129.586 30.42C129.394 30.884 129.174 31.248 128.926 31.512C128.686 31.784 128.41 31.98 128.098 32.1C127.794 32.22 127.442 32.28 127.042 32.28H125.83V30.948H126.886C127.102 30.948 127.286 30.896 127.438 30.792C127.59 30.696 127.726 30.56 127.846 30.384C127.966 30.208 128.078 30 128.182 29.76L128.314 29.436L125.758 23.352H127.462L128.554 25.98Z" fill="#222222"/>
<path d="M274.4 32.3077L273.692 31.6L279.292 26L273.692 20.4L274.4 19.6923L280 25.2923L285.6 19.6923L286.308 20.4L280.708 26L286.308 31.6L285.6 32.3077L280 26.7077L274.4 32.3077Z" fill="#222222"/>
<circle cx="19" cy="76" r="2.5" fill="#222222" stroke="#222222"/>
<path d="M36.9425 74.6811H35.6143C35.5765 74.4633 35.5066 74.2704 35.4048 74.1023C35.303 73.9318 35.1764 73.7874 35.0249 73.669C34.8733 73.5507 34.7005 73.4619 34.5064 73.4027C34.3146 73.3411 34.1075 73.3104 33.8849 73.3104C33.4896 73.3104 33.1392 73.4098 32.8338 73.6087C32.5284 73.8052 32.2893 74.094 32.1165 74.4751C31.9437 74.8539 31.8572 75.3168 31.8572 75.8636C31.8572 76.42 31.9437 76.8887 32.1165 77.2699C32.2917 77.6487 32.5308 77.9351 32.8338 78.1293C33.1392 78.321 33.4884 78.4169 33.8814 78.4169C34.0992 78.4169 34.3028 78.3885 34.4922 78.3317C34.6839 78.2725 34.8556 78.1861 35.0071 78.0724C35.161 77.9588 35.29 77.8191 35.3942 77.6534C35.5007 77.4877 35.5741 77.2983 35.6143 77.0852L36.9425 77.0923C36.8928 77.438 36.785 77.7623 36.6193 78.0653C36.456 78.3684 36.2417 78.6359 35.9766 78.8679C35.7114 79.0975 35.4013 79.2775 35.0462 79.4077C34.6911 79.5355 34.2969 79.5994 33.8636 79.5994C33.2244 79.5994 32.6539 79.4515 32.152 79.1555C31.6501 78.8596 31.2547 78.4323 30.9659 77.8736C30.6771 77.3149 30.5327 76.6449 30.5327 75.8636C30.5327 75.08 30.6783 74.41 30.9695 73.8537C31.2607 73.295 31.6572 72.8677 32.1591 72.5717C32.661 72.2758 33.2292 72.1278 33.8636 72.1278C34.2685 72.1278 34.6449 72.1847 34.9929 72.2983C35.3409 72.4119 35.651 72.5788 35.9233 72.799C36.1955 73.0168 36.4193 73.2843 36.5945 73.6016C36.772 73.9164 36.888 74.2763 36.9425 74.6811ZM41.5687 77.206V74.0455H42.8542V79.5H41.6078V78.5305H41.551C41.4279 78.8359 41.2254 79.0857 40.9437 79.2798C40.6644 79.474 40.3199 79.571 39.9103 79.571C39.5529 79.571 39.2368 79.4917 38.9622 79.3331C38.6899 79.1721 38.4769 78.9389 38.323 78.6335C38.1691 78.3258 38.0922 77.9541 38.0922 77.5185V74.0455H39.3777V77.3196C39.3777 77.6652 39.4724 77.9399 39.6618 78.1435C39.8511 78.3471 40.0997 78.4489 40.4075 78.4489C40.5969 78.4489 40.7804 78.4027 40.9579 78.3104C41.1355 78.218 41.2811 78.0807 41.3947 77.8984C41.5107 77.7138 41.5687 77.483 41.5687 77.206ZM44.1761 79.5V74.0455H45.4226V74.9545H45.4794C45.5788 74.6397 45.7493 74.397 45.9908 74.2266C46.2346 74.0537 46.5128 73.9673 46.8253 73.9673C46.8963 73.9673 46.9756 73.9709 47.0632 73.978C47.1532 73.9827 47.2277 73.991 47.2869 74.0028V75.1854C47.2325 75.1664 47.1461 75.1499 47.0277 75.1357C46.9117 75.1191 46.7992 75.1108 46.6903 75.1108C46.456 75.1108 46.2453 75.1617 46.0582 75.2635C45.8736 75.3629 45.728 75.5014 45.6214 75.679C45.5149 75.8565 45.4616 76.0613 45.4616 76.2933V79.5H44.1761ZM48.141 79.5V74.0455H49.3874V74.9545H49.4442C49.5437 74.6397 49.7141 74.397 49.9556 74.2266C50.1995 74.0537 50.4776 73.9673 50.7901 73.9673C50.8612 73.9673 50.9405 73.9709 51.0281 73.978C51.118 73.9827 51.1926 73.991 51.2518 74.0028V75.1854C51.1973 75.1664 51.1109 75.1499 50.9925 75.1357C50.8765 75.1191 50.7641 75.1108 50.6552 75.1108C50.4208 75.1108 50.2101 75.1617 50.0231 75.2635C49.8384 75.3629 49.6928 75.5014 49.5863 75.679C49.4798 75.8565 49.4265 76.0613 49.4265 76.2933V79.5H48.141ZM54.296 79.6065C53.7491 79.6065 53.2768 79.4929 52.8791 79.2656C52.4837 79.036 52.1795 78.7116 51.9664 78.2926C51.7534 77.8712 51.6468 77.3752 51.6468 76.8047C51.6468 76.2436 51.7534 75.7512 51.9664 75.3274C52.1819 74.9013 52.4825 74.5698 52.8684 74.3331C53.2543 74.094 53.7077 73.9744 54.2285 73.9744C54.5647 73.9744 54.8819 74.0289 55.1802 74.1378C55.4809 74.2443 55.746 74.41 55.9757 74.6349C56.2077 74.8598 56.39 75.1463 56.5225 75.4943C56.6551 75.84 56.7214 76.2519 56.7214 76.7301V77.1243H52.2505V76.2578H55.4892C55.4868 76.0116 55.4335 75.7926 55.3294 75.6009C55.2252 75.4067 55.0796 75.254 54.8926 75.1428C54.7079 75.0315 54.4925 74.9759 54.2463 74.9759C53.9835 74.9759 53.7527 75.0398 53.5538 75.1676C53.3549 75.2931 53.1999 75.4588 53.0886 75.6648C52.9797 75.8684 52.9241 76.0921 52.9217 76.3359V77.0923C52.9217 77.4096 52.9797 77.6818 53.0957 77.9091C53.2117 78.134 53.3739 78.3068 53.5822 78.4276C53.7905 78.5459 54.0344 78.6051 54.3137 78.6051C54.5008 78.6051 54.67 78.5791 54.8216 78.527C54.9731 78.4725 55.1045 78.3932 55.2157 78.2891C55.327 78.1849 55.411 78.0559 55.4679 77.902L56.6681 78.0369C56.5924 78.3542 56.448 78.6312 56.2349 78.8679C56.0242 79.1023 55.7543 79.2846 55.4252 79.4148C55.0962 79.5426 54.7198 79.6065 54.296 79.6065ZM59.0945 76.304V79.5H57.8089V74.0455H59.0376V74.9723H59.1016C59.227 74.6669 59.4271 74.4242 59.7017 74.2443C59.9787 74.0644 60.3208 73.9744 60.728 73.9744C61.1044 73.9744 61.4323 74.0549 61.7116 74.2159C61.9934 74.3769 62.2112 74.6101 62.3651 74.9155C62.5213 75.2209 62.5982 75.5914 62.5959 76.027V79.5H61.3104V76.2259C61.3104 75.8613 61.2157 75.576 61.0263 75.37C60.8393 75.1641 60.58 75.0611 60.2486 75.0611C60.0237 75.0611 59.8236 75.1108 59.6484 75.2102C59.4756 75.3073 59.3395 75.4482 59.2401 75.6328C59.143 75.8175 59.0945 76.0412 59.0945 76.304ZM66.6264 74.0455V75.0398H63.4908V74.0455H66.6264ZM64.2649 72.7386H65.5504V77.8594C65.5504 78.0322 65.5765 78.1648 65.6286 78.2571C65.683 78.3471 65.754 78.4086 65.8416 78.4418C65.9292 78.4749 66.0263 78.4915 66.1328 78.4915C66.2133 78.4915 66.2867 78.4856 66.353 78.4737C66.4216 78.4619 66.4737 78.4512 66.5092 78.4418L66.7259 79.4467C66.6572 79.4704 66.5589 79.4964 66.4311 79.5249C66.3056 79.5533 66.1518 79.5698 65.9695 79.5746C65.6475 79.584 65.3575 79.5355 65.0994 79.429C64.8414 79.3201 64.6366 79.152 64.4851 78.9247C64.3359 78.6974 64.2625 78.4134 64.2649 78.0724V72.7386ZM75.0542 74.0455L73.1117 79.5H71.6912L69.7488 74.0455H71.1195L72.373 78.0973H72.4299L73.687 74.0455H75.0542ZM78.1729 79.6065C77.6261 79.6065 77.1538 79.4929 76.756 79.2656C76.3607 79.036 76.0565 78.7116 75.8434 78.2926C75.6303 77.8712 75.5238 77.3752 75.5238 76.8047C75.5238 76.2436 75.6303 75.7512 75.8434 75.3274C76.0588 74.9013 76.3595 74.5698 76.7454 74.3331C77.1313 74.094 77.5846 73.9744 78.1055 73.9744C78.4416 73.9744 78.7589 74.0289 79.0572 74.1378C79.3578 74.2443 79.623 74.41 79.8526 74.6349C80.0846 74.8598 80.2669 75.1463 80.3995 75.4943C80.5321 75.84 80.5984 76.2519 80.5984 76.7301V77.1243H76.1275V76.2578H79.3661C79.3638 76.0116 79.3105 75.7926 79.2063 75.6009C79.1022 75.4067 78.9566 75.254 78.7695 75.1428C78.5849 75.0315 78.3694 74.9759 78.1232 74.9759C77.8604 74.9759 77.6296 75.0398 77.4308 75.1676C77.2319 75.2931 77.0768 75.4588 76.9656 75.6648C76.8567 75.8684 76.801 76.0921 76.7987 76.3359V77.0923C76.7987 77.4096 76.8567 77.6818 76.9727 77.9091C77.0887 78.134 77.2508 78.3068 77.4592 78.4276C77.6675 78.5459 77.9113 78.6051 78.1907 78.6051C78.3777 78.6051 78.547 78.5791 78.6985 78.527C78.85 78.4725 78.9814 78.3932 79.0927 78.2891C79.204 78.1849 79.288 78.0559 79.3448 77.902L80.5451 78.0369C80.4693 78.3542 80.3249 78.6312 80.1119 78.8679C79.9012 79.1023 79.6313 79.2846 79.3022 79.4148C78.9731 79.5426 78.5967 79.6065 78.1729 79.6065ZM81.6859 79.5V74.0455H82.9324V74.9545H82.9892C83.0886 74.6397 83.2591 74.397 83.5005 74.2266C83.7444 74.0537 84.0225 73.9673 84.335 73.9673C84.4061 73.9673 84.4854 73.9709 84.573 73.978C84.6629 73.9827 84.7375 73.991 84.7967 74.0028V75.1854C84.7422 75.1664 84.6558 75.1499 84.5375 75.1357C84.4215 75.1191 84.309 75.1108 84.2001 75.1108C83.9657 75.1108 83.755 75.1617 83.568 75.2635C83.3833 75.3629 83.2377 75.5014 83.1312 75.679C83.0247 75.8565 82.9714 76.0613 82.9714 76.2933V79.5H81.6859ZM89.9618 75.4872L88.79 75.6151C88.7568 75.4967 88.6988 75.3854 88.6159 75.2812C88.5355 75.1771 88.4266 75.093 88.2892 75.0291C88.1519 74.9652 87.9838 74.9332 87.785 74.9332C87.5175 74.9332 87.2926 74.9912 87.1103 75.1072C86.9303 75.2232 86.8416 75.3736 86.8439 75.5582C86.8416 75.7169 86.8996 75.8459 87.0179 75.9453C87.1387 76.0447 87.3375 76.1264 87.6145 76.1903L88.5449 76.3892C89.061 76.5005 89.4445 76.6768 89.6955 76.9183C89.9488 77.1598 90.0766 77.4759 90.079 77.8665C90.0766 78.2098 89.976 78.5128 89.7772 78.7756C89.5807 79.036 89.3072 79.2396 88.9569 79.3864C88.6065 79.5331 88.204 79.6065 87.7495 79.6065C87.0819 79.6065 86.5444 79.4669 86.1373 79.1875C85.7301 78.9058 85.4874 78.514 85.4093 78.0121L86.6628 77.8913C86.7196 78.1375 86.8404 78.3234 87.025 78.4489C87.2097 78.5743 87.45 78.6371 87.7459 78.6371C88.0513 78.6371 88.2963 78.5743 88.481 78.4489C88.668 78.3234 88.7615 78.1683 88.7615 77.9837C88.7615 77.8274 88.7012 77.6984 88.5804 77.5966C88.4621 77.4948 88.2774 77.4167 88.0265 77.3622L87.0961 77.1669C86.5729 77.058 86.1858 76.8745 85.9348 76.6165C85.6839 76.3561 85.5596 76.027 85.562 75.6293C85.5596 75.2931 85.6507 75.0019 85.8354 74.7557C86.0224 74.5071 86.2817 74.3153 86.6131 74.1804C86.9469 74.0431 87.3316 73.9744 87.7672 73.9744C88.4064 73.9744 88.9095 74.1106 89.2765 74.3828C89.6458 74.6551 89.8742 75.0232 89.9618 75.4872ZM91.139 79.5V74.0455H92.4245V79.5H91.139ZM91.7853 73.2713C91.5817 73.2713 91.4065 73.2038 91.2598 73.0689C91.113 72.9316 91.0396 72.767 91.0396 72.5753C91.0396 72.3812 91.113 72.2166 91.2598 72.0817C91.4065 71.9444 91.5817 71.8757 91.7853 71.8757C91.9913 71.8757 92.1665 71.9444 92.3109 72.0817C92.4577 72.2166 92.5311 72.3812 92.5311 72.5753C92.5311 72.767 92.4577 72.9316 92.3109 73.0689C92.1665 73.2038 91.9913 73.2713 91.7853 73.2713ZM96.1257 79.6065C95.593 79.6065 95.1314 79.4893 94.7408 79.255C94.3501 79.0206 94.0471 78.6927 93.8317 78.2713C93.6186 77.8499 93.5121 77.3575 93.5121 76.794C93.5121 76.2306 93.6186 75.737 93.8317 75.3132C94.0471 74.8894 94.3501 74.5604 94.7408 74.326C95.1314 74.0916 95.593 73.9744 96.1257 73.9744C96.6584 73.9744 97.12 74.0916 97.5107 74.326C97.9013 74.5604 98.2031 74.8894 98.4162 75.3132C98.6316 75.737 98.7393 76.2306 98.7393 76.794C98.7393 77.3575 98.6316 77.8499 98.4162 78.2713C98.2031 78.6927 97.9013 79.0206 97.5107 79.255C97.12 79.4893 96.6584 79.6065 96.1257 79.6065ZM96.1328 78.5767C96.4216 78.5767 96.6631 78.4974 96.8572 78.3388C97.0514 78.1778 97.1958 77.9624 97.2905 77.6925C97.3875 77.4226 97.4361 77.1219 97.4361 76.7905C97.4361 76.4567 97.3875 76.1548 97.2905 75.8849C97.1958 75.6127 97.0514 75.3961 96.8572 75.2351C96.6631 75.0741 96.4216 74.9936 96.1328 74.9936C95.8369 74.9936 95.5907 75.0741 95.3942 75.2351C95.2 75.3961 95.0545 75.6127 94.9574 75.8849C94.8627 76.1548 94.8153 76.4567 94.8153 76.7905C94.8153 77.1219 94.8627 77.4226 94.9574 77.6925C95.0545 77.9624 95.2 78.1778 95.3942 78.3388C95.5907 78.4974 95.8369 78.5767 96.1328 78.5767ZM101.116 76.304V79.5H99.8304V74.0455H101.059V74.9723H101.123C101.249 74.6669 101.449 74.4242 101.723 74.2443C102 74.0644 102.342 73.9744 102.749 73.9744C103.126 73.9744 103.454 74.0549 103.733 74.2159C104.015 74.3769 104.233 74.6101 104.387 74.9155C104.543 75.2209 104.62 75.5914 104.617 76.027V79.5H103.332V76.2259C103.332 75.8613 103.237 75.576 103.048 75.37C102.861 75.1641 102.602 75.0611 102.27 75.0611C102.045 75.0611 101.845 75.1108 101.67 75.2102C101.497 75.3073 101.361 75.4482 101.262 75.6328C101.164 75.8175 101.116 76.0412 101.116 76.304Z" fill="#222222"/>
<path d="M19.31 123V118.46L19.34 117.06L18.23 117.97L16.95 118.99V117.95L19.54 116.02H20.17V123H19.31ZM16.95 123V122.25H21.7V123H16.95ZM25.5339 123.12C25.0806 123.12 24.6839 123.037 24.3439 122.87C24.0039 122.703 23.7339 122.47 23.5339 122.17C23.3339 121.87 23.2239 121.523 23.2039 121.13H24.0839C24.1239 121.497 24.2672 121.797 24.5139 122.03C24.7606 122.257 25.1039 122.37 25.5439 122.37C25.8639 122.37 26.1439 122.297 26.3839 122.15C26.6239 122.003 26.8106 121.797 26.9439 121.53C27.0772 121.263 27.1439 120.953 27.1439 120.6C27.1439 120.14 27.0039 119.767 26.7239 119.48C26.4439 119.193 26.0772 119.05 25.6239 119.05C25.3172 119.05 25.0272 119.127 24.7539 119.28C24.4872 119.433 24.2672 119.633 24.0939 119.88H23.2839L23.8639 116.02H27.7139V116.77H24.5639L24.2139 119.06C24.4139 118.833 24.6572 118.65 24.9439 118.51C25.2372 118.37 25.5306 118.3 25.8239 118.3C26.2572 118.3 26.6406 118.397 26.9739 118.59C27.3139 118.783 27.5772 119.05 27.7639 119.39C27.9506 119.73 28.0439 120.13 28.0439 120.59C28.0439 121.097 27.9372 121.54 27.7239 121.92C27.5172 122.3 27.2272 122.597 26.8539 122.81C26.4806 123.017 26.0406 123.12 25.5339 123.12ZM31.3278 119.2V118.13H32.3878V119.2H31.3278ZM31.3278 123V121.93H32.3878V123H31.3278ZM38.1417 123.12C37.6884 123.12 37.2917 123.037 36.9517 122.87C36.6117 122.703 36.3417 122.47 36.1417 122.17C35.9417 121.87 35.8317 121.523 35.8117 121.13H36.6917C36.7317 121.497 36.8751 121.797 37.1217 122.03C37.3684 122.257 37.7117 122.37 38.1517 122.37C38.4717 122.37 38.7517 122.297 38.9917 122.15C39.2317 122.003 39.4184 121.797 39.5517 121.53C39.6851 121.263 39.7517 120.953 39.7517 120.6C39.7517 120.14 39.6117 119.767 39.3317 119.48C39.0517 119.193 38.6851 119.05 38.2317 119.05C37.9251 119.05 37.6351 119.127 37.3617 119.28C37.0951 119.433 36.8751 119.633 36.7017 119.88H35.8917L36.4717 116.02H40.3217V116.77H37.1717L36.8217 119.06C37.0217 118.833 37.2651 118.65 37.5517 118.51C37.8451 118.37 38.1384 118.3 38.4317 118.3C38.8651 118.3 39.2484 118.397 39.5817 118.59C39.9217 118.783 40.1851 119.05 40.3717 119.39C40.5584 119.73 40.6517 120.13 40.6517 120.59C40.6517 121.097 40.5451 121.54 40.3317 121.92C40.1251 122.3 39.8351 122.597 39.4617 122.81C39.0884 123.017 38.6484 123.12 38.1417 123.12ZM44.4656 123.12C43.9856 123.12 43.559 123.033 43.1856 122.86C42.819 122.687 42.5323 122.447 42.3256 122.14C42.119 121.833 42.0156 121.483 42.0156 121.09C42.0156 120.81 42.079 120.553 42.2056 120.32C42.3323 120.08 42.5056 119.877 42.7256 119.71C42.9523 119.537 43.2123 119.41 43.5056 119.33H45.4156C45.7023 119.403 45.959 119.527 46.1856 119.7C46.4123 119.873 46.589 120.077 46.7156 120.31C46.8423 120.543 46.9056 120.8 46.9056 121.08C46.9056 121.48 46.8023 121.833 46.5956 122.14C46.389 122.447 46.1023 122.687 45.7356 122.86C45.369 123.033 44.9456 123.12 44.4656 123.12ZM44.4656 122.37C44.759 122.37 45.019 122.317 45.2456 122.21C45.479 122.097 45.6623 121.943 45.7956 121.75C45.929 121.55 45.9956 121.32 45.9956 121.06C45.9956 120.82 45.929 120.607 45.7956 120.42C45.6623 120.233 45.479 120.083 45.2456 119.97C45.019 119.85 44.759 119.78 44.4656 119.76C44.1723 119.78 43.909 119.85 43.6756 119.97C43.449 120.083 43.269 120.233 43.1356 120.42C43.0023 120.6 42.9356 120.813 42.9356 121.06C42.9356 121.32 43.0023 121.55 43.1356 121.75C43.269 121.943 43.449 122.097 43.6756 122.21C43.909 122.317 44.1723 122.37 44.4656 122.37ZM44.4656 119.08C44.7323 119.053 44.9723 118.99 45.1856 118.89C45.4056 118.783 45.579 118.643 45.7056 118.47C45.8323 118.297 45.8956 118.09 45.8956 117.85C45.8956 117.483 45.759 117.19 45.4856 116.97C45.219 116.75 44.879 116.64 44.4656 116.64C44.0456 116.64 43.7023 116.75 43.4356 116.97C43.169 117.19 43.0356 117.483 43.0356 117.85C43.0356 118.09 43.0956 118.297 43.2156 118.47C43.3423 118.643 43.5123 118.783 43.7256 118.89C43.9456 118.99 44.1923 119.053 44.4656 119.08ZM43.5656 119.46C43.299 119.393 43.059 119.283 42.8456 119.13C42.6323 118.97 42.4623 118.78 42.3356 118.56C42.2156 118.333 42.1556 118.087 42.1556 117.82C42.1556 117.447 42.2523 117.117 42.4456 116.83C42.6456 116.537 42.919 116.31 43.2656 116.15C43.6123 115.983 44.0123 115.9 44.4656 115.9C44.919 115.9 45.319 115.983 45.6656 116.15C46.0123 116.31 46.2823 116.537 46.4756 116.83C46.669 117.117 46.7656 117.45 46.7656 117.83C46.7656 118.09 46.7056 118.333 46.5856 118.56C46.4656 118.78 46.299 118.97 46.0856 119.13C45.8723 119.283 45.629 119.393 45.3556 119.46H43.5656ZM55.2134 121.11V120.36H59.0034V121.11H55.2134ZM56.4634 116.02H57.6734L59.9634 123H59.0734L57.4934 118.16L57.0734 116.75L56.6534 118.17L55.0634 123H54.1834L56.4634 116.02ZM60.4173 123L60.9573 116.02H62.1173L63.1673 120.55L63.3873 121.77L63.6073 120.55L64.6773 116.02H65.8073L66.3573 123H65.4973L65.1973 118.32L65.1473 116.92L64.8573 118.32L63.7573 123H62.9773L61.8973 118.32L61.6173 116.9L61.5573 118.32L61.2673 123H60.4173Z" fill="#222222"/>
<path d="M17.179 129.727L19.3381 135.849H19.4233L21.5824 129.727H22.5057L19.8352 137H18.9261L16.2557 129.727H17.179ZM25.304 137.114C24.7784 137.114 24.325 136.998 23.9439 136.766C23.5651 136.531 23.2727 136.205 23.0668 135.786C22.8632 135.364 22.7614 134.874 22.7614 134.315C22.7614 133.757 22.8632 133.264 23.0668 132.838C23.2727 132.41 23.5592 132.076 23.9261 131.837C24.2955 131.595 24.7263 131.474 25.2188 131.474C25.5028 131.474 25.7834 131.522 26.0604 131.616C26.3374 131.711 26.5895 131.865 26.8168 132.078C27.044 132.289 27.2251 132.568 27.3601 132.916C27.495 133.264 27.5625 133.693 27.5625 134.202V134.557H23.358V133.832H26.7102C26.7102 133.525 26.6487 133.25 26.5256 133.009C26.4048 132.767 26.232 132.576 26.0071 132.437C25.7846 132.297 25.5218 132.227 25.2188 132.227C24.8849 132.227 24.5961 132.31 24.3523 132.476C24.1108 132.639 23.925 132.852 23.7947 133.115C23.6645 133.378 23.5994 133.66 23.5994 133.96V134.443C23.5994 134.855 23.6705 135.204 23.8125 135.491C23.9569 135.775 24.157 135.991 24.4126 136.141C24.6683 136.287 24.9654 136.361 25.304 136.361C25.5241 136.361 25.723 136.33 25.9006 136.268C26.0805 136.205 26.2356 136.11 26.3658 135.984C26.496 135.857 26.5966 135.698 26.6676 135.509L27.4773 135.736C27.392 136.01 27.2488 136.252 27.0476 136.46C26.8464 136.666 26.5978 136.827 26.3018 136.943C26.0059 137.057 25.6733 137.114 25.304 137.114ZM28.8374 137V131.545H29.647V132.369H29.7038C29.8033 132.099 29.9832 131.88 30.2436 131.712C30.504 131.544 30.7976 131.46 31.1243 131.46C31.1858 131.46 31.2628 131.461 31.3551 131.464C31.4474 131.466 31.5173 131.47 31.5646 131.474V132.327C31.5362 132.32 31.4711 132.309 31.3693 132.295C31.2699 132.278 31.1645 132.27 31.0533 132.27C30.7881 132.27 30.5514 132.326 30.343 132.437C30.1371 132.546 29.9737 132.697 29.853 132.891C29.7346 133.083 29.6754 133.302 29.6754 133.548V137H28.8374ZM36.4217 132.767L35.6689 132.98C35.6215 132.855 35.5517 132.733 35.4593 132.614C35.3694 132.494 35.2463 132.394 35.09 132.316C34.9338 132.238 34.7337 132.199 34.4899 132.199C34.1561 132.199 33.8779 132.276 33.6554 132.43C33.4352 132.581 33.3251 132.774 33.3251 133.009C33.3251 133.217 33.4009 133.381 33.5524 133.502C33.7039 133.623 33.9406 133.723 34.2626 133.804L35.0723 134.003C35.56 134.121 35.9234 134.302 36.1625 134.546C36.4016 134.788 36.5211 135.099 36.5211 135.48C36.5211 135.793 36.4312 136.072 36.2512 136.318C36.0737 136.564 35.8251 136.759 35.5055 136.901C35.1859 137.043 34.8142 137.114 34.3904 137.114C33.8341 137.114 33.3736 136.993 33.0091 136.751C32.6445 136.51 32.4136 136.157 32.3166 135.693L33.112 135.494C33.1878 135.788 33.331 136.008 33.5417 136.155C33.7548 136.302 34.033 136.375 34.3762 136.375C34.7669 136.375 35.077 136.292 35.3066 136.126C35.5386 135.958 35.6547 135.757 35.6547 135.523C35.6547 135.333 35.5884 135.175 35.4558 135.047C35.3232 134.917 35.1196 134.82 34.845 134.756L33.9359 134.543C33.4364 134.424 33.0694 134.241 32.835 133.992C32.603 133.741 32.487 133.428 32.487 133.051C32.487 132.743 32.5734 132.471 32.7463 132.234C32.9215 131.998 33.1594 131.812 33.46 131.677C33.7631 131.542 34.1064 131.474 34.4899 131.474C35.0297 131.474 35.4534 131.593 35.7612 131.83C36.0713 132.066 36.2915 132.379 36.4217 132.767ZM37.7827 137V131.545H38.6207V137H37.7827ZM38.2088 130.636C38.0455 130.636 37.9046 130.581 37.7862 130.469C37.6702 130.358 37.6122 130.224 37.6122 130.068C37.6122 129.912 37.6702 129.778 37.7862 129.667C37.9046 129.556 38.0455 129.5 38.2088 129.5C38.3722 129.5 38.5118 129.556 38.6278 129.667C38.7462 129.778 38.8054 129.912 38.8054 130.068C38.8054 130.224 38.7462 130.358 38.6278 130.469C38.5118 130.581 38.3722 130.636 38.2088 130.636ZM42.3716 137.114C41.8792 137.114 41.4471 136.996 41.0755 136.762C40.7061 136.528 40.4173 136.2 40.209 135.778C40.003 135.357 39.9 134.865 39.9 134.301C39.9 133.733 40.003 133.237 40.209 132.813C40.4173 132.389 40.7061 132.06 41.0755 131.826C41.4471 131.592 41.8792 131.474 42.3716 131.474C42.8641 131.474 43.2949 131.592 43.6642 131.826C44.0359 132.06 44.3248 132.389 44.5307 132.813C44.7391 133.237 44.8432 133.733 44.8432 134.301C44.8432 134.865 44.7391 135.357 44.5307 135.778C44.3248 136.2 44.0359 136.528 43.6642 136.762C43.2949 136.996 42.8641 137.114 42.3716 137.114ZM42.3716 136.361C42.7457 136.361 43.0534 136.265 43.2949 136.073C43.5364 135.881 43.7151 135.629 43.8311 135.317C43.9471 135.004 44.0051 134.666 44.0051 134.301C44.0051 133.937 43.9471 133.597 43.8311 133.282C43.7151 132.967 43.5364 132.713 43.2949 132.518C43.0534 132.324 42.7457 132.227 42.3716 132.227C41.9976 132.227 41.6898 132.324 41.4483 132.518C41.2069 132.713 41.0281 132.967 40.9121 133.282C40.7961 133.597 40.7381 133.937 40.7381 134.301C40.7381 134.666 40.7961 135.004 40.9121 135.317C41.0281 135.629 41.2069 135.881 41.4483 136.073C41.6898 136.265 41.9976 136.361 42.3716 136.361ZM46.9606 133.719V137H46.1225V131.545H46.9322V132.398H47.0032C47.131 132.121 47.3252 131.898 47.5856 131.73C47.846 131.56 48.1822 131.474 48.5941 131.474C48.9634 131.474 49.2866 131.55 49.5636 131.702C49.8406 131.851 50.056 132.078 50.2099 132.384C50.3638 132.687 50.4407 133.07 50.4407 133.534V137H49.6026V133.591C49.6026 133.162 49.4914 132.829 49.2688 132.589C49.0463 132.348 48.7409 132.227 48.3526 132.227C48.0851 132.227 47.846 132.285 47.6353 132.401C47.427 132.517 47.2624 132.687 47.1417 132.909C47.021 133.132 46.9606 133.402 46.9606 133.719ZM54.7704 137V136.361L57.171 133.733C57.4527 133.425 57.6847 133.158 57.867 132.93C58.0493 132.701 58.1842 132.485 58.2718 132.284C58.3618 132.08 58.4068 131.867 58.4068 131.645C58.4068 131.389 58.3452 131.168 58.2221 130.981C58.1014 130.794 57.9357 130.649 57.725 130.548C57.5143 130.446 57.2775 130.395 57.0147 130.395C56.7354 130.395 56.4915 130.453 56.2832 130.569C56.0772 130.683 55.9174 130.842 55.8038 131.048C55.6925 131.254 55.6369 131.496 55.6369 131.773H54.7988C54.7988 131.347 54.8971 130.973 55.0936 130.651C55.2901 130.329 55.5576 130.078 55.8961 129.898C56.237 129.718 56.6194 129.628 57.0431 129.628C57.4693 129.628 57.8469 129.718 58.176 129.898C58.505 130.078 58.7631 130.32 58.9501 130.626C59.1371 130.931 59.2306 131.271 59.2306 131.645C59.2306 131.912 59.1821 132.174 59.085 132.43C58.9904 132.683 58.8246 132.966 58.5879 133.278C58.3535 133.589 58.028 133.967 57.6113 134.415L55.9778 136.162V136.219H59.3585V137H54.7704Z" fill="#808080"/>
<mask id="path-10-inside-2_3837_52384" fill="white">
<path d="M0 152H304V204H0V152Z"/>
</mask>
<path d="M0 152H304V204H0V152Z" fill="#FCFCFC"/>
<path d="M303 152V204H305V152H303ZM1 204V152H-1V204H1Z" fill="#E6E6E6" mask="url(#path-10-inside-2_3837_52384)"/>
<path d="M19.31 175V170.46L19.34 169.06L18.23 169.97L16.95 170.99V169.95L19.54 168.02H20.17V175H19.31ZM16.95 175V174.25H21.7V175H16.95ZM25.5339 175.12C25.0806 175.12 24.6839 175.037 24.3439 174.87C24.0039 174.703 23.7339 174.47 23.5339 174.17C23.3339 173.87 23.2239 173.523 23.2039 173.13H24.0839C24.1239 173.497 24.2672 173.797 24.5139 174.03C24.7606 174.257 25.1039 174.37 25.5439 174.37C25.8639 174.37 26.1439 174.297 26.3839 174.15C26.6239 174.003 26.8106 173.797 26.9439 173.53C27.0772 173.263 27.1439 172.953 27.1439 172.6C27.1439 172.14 27.0039 171.767 26.7239 171.48C26.4439 171.193 26.0772 171.05 25.6239 171.05C25.3172 171.05 25.0272 171.127 24.7539 171.28C24.4872 171.433 24.2672 171.633 24.0939 171.88H23.2839L23.8639 168.02H27.7139V168.77H24.5639L24.2139 171.06C24.4139 170.833 24.6572 170.65 24.9439 170.51C25.2372 170.37 25.5306 170.3 25.8239 170.3C26.2572 170.3 26.6406 170.397 26.9739 170.59C27.3139 170.783 27.5772 171.05 27.7639 171.39C27.9506 171.73 28.0439 172.13 28.0439 172.59C28.0439 173.097 27.9372 173.54 27.7239 173.92C27.5172 174.3 27.2272 174.597 26.8539 174.81C26.4806 175.017 26.0406 175.12 25.5339 175.12ZM31.3278 171.2V170.13H32.3878V171.2H31.3278ZM31.3278 175V173.93H32.3878V175H31.3278ZM38.1417 175.12C37.6884 175.12 37.2917 175.037 36.9517 174.87C36.6117 174.703 36.3417 174.47 36.1417 174.17C35.9417 173.87 35.8317 173.523 35.8117 173.13H36.6917C36.7317 173.497 36.8751 173.797 37.1217 174.03C37.3684 174.257 37.7117 174.37 38.1517 174.37C38.4717 174.37 38.7517 174.297 38.9917 174.15C39.2317 174.003 39.4184 173.797 39.5517 173.53C39.6851 173.263 39.7517 172.953 39.7517 172.6C39.7517 172.14 39.6117 171.767 39.3317 171.48C39.0517 171.193 38.6851 171.05 38.2317 171.05C37.9251 171.05 37.6351 171.127 37.3617 171.28C37.0951 171.433 36.8751 171.633 36.7017 171.88H35.8917L36.4717 168.02H40.3217V168.77H37.1717L36.8217 171.06C37.0217 170.833 37.2651 170.65 37.5517 170.51C37.8451 170.37 38.1384 170.3 38.4317 170.3C38.8651 170.3 39.2484 170.397 39.5817 170.59C39.9217 170.783 40.1851 171.05 40.3717 171.39C40.5584 171.73 40.6517 172.13 40.6517 172.59C40.6517 173.097 40.5451 173.54 40.3317 173.92C40.1251 174.3 39.8351 174.597 39.4617 174.81C39.0884 175.017 38.6484 175.12 38.1417 175.12ZM44.4656 175.12C43.9856 175.12 43.559 175.033 43.1856 174.86C42.819 174.687 42.5323 174.447 42.3256 174.14C42.119 173.833 42.0156 173.483 42.0156 173.09C42.0156 172.81 42.079 172.553 42.2056 172.32C42.3323 172.08 42.5056 171.877 42.7256 171.71C42.9523 171.537 43.2123 171.41 43.5056 171.33H45.4156C45.7023 171.403 45.959 171.527 46.1856 171.7C46.4123 171.873 46.589 172.077 46.7156 172.31C46.8423 172.543 46.9056 172.8 46.9056 173.08C46.9056 173.48 46.8023 173.833 46.5956 174.14C46.389 174.447 46.1023 174.687 45.7356 174.86C45.369 175.033 44.9456 175.12 44.4656 175.12ZM44.4656 174.37C44.759 174.37 45.019 174.317 45.2456 174.21C45.479 174.097 45.6623 173.943 45.7956 173.75C45.929 173.55 45.9956 173.32 45.9956 173.06C45.9956 172.82 45.929 172.607 45.7956 172.42C45.6623 172.233 45.479 172.083 45.2456 171.97C45.019 171.85 44.759 171.78 44.4656 171.76C44.1723 171.78 43.909 171.85 43.6756 171.97C43.449 172.083 43.269 172.233 43.1356 172.42C43.0023 172.6 42.9356 172.813 42.9356 173.06C42.9356 173.32 43.0023 173.55 43.1356 173.75C43.269 173.943 43.449 174.097 43.6756 174.21C43.909 174.317 44.1723 174.37 44.4656 174.37ZM44.4656 171.08C44.7323 171.053 44.9723 170.99 45.1856 170.89C45.4056 170.783 45.579 170.643 45.7056 170.47C45.8323 170.297 45.8956 170.09 45.8956 169.85C45.8956 169.483 45.759 169.19 45.4856 168.97C45.219 168.75 44.879 168.64 44.4656 168.64C44.0456 168.64 43.7023 168.75 43.4356 168.97C43.169 169.19 43.0356 169.483 43.0356 169.85C43.0356 170.09 43.0956 170.297 43.2156 170.47C43.3423 170.643 43.5123 170.783 43.7256 170.89C43.9456 170.99 44.1923 171.053 44.4656 171.08ZM43.5656 171.46C43.299 171.393 43.059 171.283 42.8456 171.13C42.6323 170.97 42.4623 170.78 42.3356 170.56C42.2156 170.333 42.1556 170.087 42.1556 169.82C42.1556 169.447 42.2523 169.117 42.4456 168.83C42.6456 168.537 42.919 168.31 43.2656 168.15C43.6123 167.983 44.0123 167.9 44.4656 167.9C44.919 167.9 45.319 167.983 45.6656 168.15C46.0123 168.31 46.2823 168.537 46.4756 168.83C46.669 169.117 46.7656 169.45 46.7656 169.83C46.7656 170.09 46.7056 170.333 46.5856 170.56C46.4656 170.78 46.299 170.97 46.0856 171.13C45.8723 171.283 45.629 171.393 45.3556 171.46H43.5656ZM55.3234 172.33V171.58H57.2234C57.7101 171.58 58.1034 171.45 58.4034 171.19C58.7034 170.93 58.8534 170.587 58.8534 170.16C58.8534 169.74 58.7134 169.403 58.4334 169.15C58.1601 168.897 57.7968 168.77 57.3434 168.77H55.3234V168.02H57.3534C57.8401 168.02 58.2634 168.11 58.6234 168.29C58.9834 168.463 59.2634 168.71 59.4634 169.03C59.6634 169.343 59.7634 169.72 59.7634 170.16C59.7634 170.593 59.6568 170.973 59.4434 171.3C59.2368 171.627 58.9434 171.88 58.5634 172.06C58.1834 172.24 57.7368 172.33 57.2234 172.33H55.3234ZM54.7034 175V168.02H55.5634V175H54.7034ZM60.4173 175L60.9573 168.02H62.1173L63.1673 172.55L63.3873 173.77L63.6073 172.55L64.6773 168.02H65.8073L66.3573 175H65.4973L65.1973 170.32L65.1473 168.92L64.8573 170.32L63.7573 175H62.9773L61.8973 170.32L61.6173 168.9L61.5573 170.32L61.2673 175H60.4173Z" fill="#222222"/>
<path d="M17.179 181.727L19.3381 187.849H19.4233L21.5824 181.727H22.5057L19.8352 189H18.9261L16.2557 181.727H17.179ZM25.304 189.114C24.7784 189.114 24.325 188.998 23.9439 188.766C23.5651 188.531 23.2727 188.205 23.0668 187.786C22.8632 187.364 22.7614 186.874 22.7614 186.315C22.7614 185.757 22.8632 185.264 23.0668 184.838C23.2727 184.41 23.5592 184.076 23.9261 183.837C24.2955 183.595 24.7263 183.474 25.2188 183.474C25.5028 183.474 25.7834 183.522 26.0604 183.616C26.3374 183.711 26.5895 183.865 26.8168 184.078C27.044 184.289 27.2251 184.568 27.3601 184.916C27.495 185.264 27.5625 185.693 27.5625 186.202V186.557H23.358V185.832H26.7102C26.7102 185.525 26.6487 185.25 26.5256 185.009C26.4048 184.767 26.232 184.576 26.0071 184.437C25.7846 184.297 25.5218 184.227 25.2188 184.227C24.8849 184.227 24.5961 184.31 24.3523 184.476C24.1108 184.639 23.925 184.852 23.7947 185.115C23.6645 185.378 23.5994 185.66 23.5994 185.96V186.443C23.5994 186.855 23.6705 187.204 23.8125 187.491C23.9569 187.775 24.157 187.991 24.4126 188.141C24.6683 188.287 24.9654 188.361 25.304 188.361C25.5241 188.361 25.723 188.33 25.9006 188.268C26.0805 188.205 26.2356 188.11 26.3658 187.984C26.496 187.857 26.5966 187.698 26.6676 187.509L27.4773 187.736C27.392 188.01 27.2488 188.252 27.0476 188.46C26.8464 188.666 26.5978 188.827 26.3018 188.943C26.0059 189.057 25.6733 189.114 25.304 189.114ZM28.8374 189V183.545H29.647V184.369H29.7038C29.8033 184.099 29.9832 183.88 30.2436 183.712C30.504 183.544 30.7976 183.46 31.1243 183.46C31.1858 183.46 31.2628 183.461 31.3551 183.464C31.4474 183.466 31.5173 183.47 31.5646 183.474V184.327C31.5362 184.32 31.4711 184.309 31.3693 184.295C31.2699 184.278 31.1645 184.27 31.0533 184.27C30.7881 184.27 30.5514 184.326 30.343 184.437C30.1371 184.546 29.9737 184.697 29.853 184.891C29.7346 185.083 29.6754 185.302 29.6754 185.548V189H28.8374ZM36.4217 184.767L35.6689 184.98C35.6215 184.855 35.5517 184.733 35.4593 184.614C35.3694 184.494 35.2463 184.394 35.09 184.316C34.9338 184.238 34.7337 184.199 34.4899 184.199C34.1561 184.199 33.8779 184.276 33.6554 184.43C33.4352 184.581 33.3251 184.774 33.3251 185.009C33.3251 185.217 33.4009 185.381 33.5524 185.502C33.7039 185.623 33.9406 185.723 34.2626 185.804L35.0723 186.003C35.56 186.121 35.9234 186.302 36.1625 186.546C36.4016 186.788 36.5211 187.099 36.5211 187.48C36.5211 187.793 36.4312 188.072 36.2512 188.318C36.0737 188.564 35.8251 188.759 35.5055 188.901C35.1859 189.043 34.8142 189.114 34.3904 189.114C33.8341 189.114 33.3736 188.993 33.0091 188.751C32.6445 188.51 32.4136 188.157 32.3166 187.693L33.112 187.494C33.1878 187.788 33.331 188.008 33.5417 188.155C33.7548 188.302 34.033 188.375 34.3762 188.375C34.7669 188.375 35.077 188.292 35.3066 188.126C35.5386 187.958 35.6547 187.757 35.6547 187.523C35.6547 187.333 35.5884 187.175 35.4558 187.047C35.3232 186.917 35.1196 186.82 34.845 186.756L33.9359 186.543C33.4364 186.424 33.0694 186.241 32.835 185.992C32.603 185.741 32.487 185.428 32.487 185.051C32.487 184.743 32.5734 184.471 32.7463 184.234C32.9215 183.998 33.1594 183.812 33.46 183.677C33.7631 183.542 34.1064 183.474 34.4899 183.474C35.0297 183.474 35.4534 183.593 35.7612 183.83C36.0713 184.066 36.2915 184.379 36.4217 184.767ZM37.7827 189V183.545H38.6207V189H37.7827ZM38.2088 182.636C38.0455 182.636 37.9046 182.581 37.7862 182.469C37.6702 182.358 37.6122 182.224 37.6122 182.068C37.6122 181.912 37.6702 181.778 37.7862 181.667C37.9046 181.556 38.0455 181.5 38.2088 181.5C38.3722 181.5 38.5118 181.556 38.6278 181.667C38.7462 181.778 38.8054 181.912 38.8054 182.068C38.8054 182.224 38.7462 182.358 38.6278 182.469C38.5118 182.581 38.3722 182.636 38.2088 182.636ZM42.3716 189.114C41.8792 189.114 41.4471 188.996 41.0755 188.762C40.7061 188.528 40.4173 188.2 40.209 187.778C40.003 187.357 39.9 186.865 39.9 186.301C39.9 185.733 40.003 185.237 40.209 184.813C40.4173 184.389 40.7061 184.06 41.0755 183.826C41.4471 183.592 41.8792 183.474 42.3716 183.474C42.8641 183.474 43.2949 183.592 43.6642 183.826C44.0359 184.06 44.3248 184.389 44.5307 184.813C44.7391 185.237 44.8432 185.733 44.8432 186.301C44.8432 186.865 44.7391 187.357 44.5307 187.778C44.3248 188.2 44.0359 188.528 43.6642 188.762C43.2949 188.996 42.8641 189.114 42.3716 189.114ZM42.3716 188.361C42.7457 188.361 43.0534 188.265 43.2949 188.073C43.5364 187.881 43.7151 187.629 43.8311 187.317C43.9471 187.004 44.0051 186.666 44.0051 186.301C44.0051 185.937 43.9471 185.597 43.8311 185.282C43.7151 184.967 43.5364 184.713 43.2949 184.518C43.0534 184.324 42.7457 184.227 42.3716 184.227C41.9976 184.227 41.6898 184.324 41.4483 184.518C41.2069 184.713 41.0281 184.967 40.9121 185.282C40.7961 185.597 40.7381 185.937 40.7381 186.301C40.7381 186.666 40.7961 187.004 40.9121 187.317C41.0281 187.629 41.2069 187.881 41.4483 188.073C41.6898 188.265 41.9976 188.361 42.3716 188.361ZM46.9606 185.719V189H46.1225V183.545H46.9322V184.398H47.0032C47.131 184.121 47.3252 183.898 47.5856 183.73C47.846 183.56 48.1822 183.474 48.5941 183.474C48.9634 183.474 49.2866 183.55 49.5636 183.702C49.8406 183.851 50.056 184.078 50.2099 184.384C50.3638 184.687 50.4407 185.07 50.4407 185.534V189H49.6026V185.591C49.6026 185.162 49.4914 184.829 49.2688 184.589C49.0463 184.348 48.7409 184.227 48.3526 184.227C48.0851 184.227 47.846 184.285 47.6353 184.401C47.427 184.517 47.2624 184.687 47.1417 184.909C47.021 185.132 46.9606 185.402 46.9606 185.719ZM57.3272 181.727V189H56.4466V182.651H56.4039L54.6284 183.83V182.935L56.4466 181.727H57.3272Z" fill="#808080"/>
<path d="M19.31 227V222.46L19.34 221.06L18.23 221.97L16.95 222.99V221.95L19.54 220.02H20.17V227H19.31ZM16.95 227V226.25H21.7V227H16.95ZM25.5339 227.12C25.0806 227.12 24.6839 227.037 24.3439 226.87C24.0039 226.703 23.7339 226.47 23.5339 226.17C23.3339 225.87 23.2239 225.523 23.2039 225.13H24.0839C24.1239 225.497 24.2672 225.797 24.5139 226.03C24.7606 226.257 25.1039 226.37 25.5439 226.37C25.8639 226.37 26.1439 226.297 26.3839 226.15C26.6239 226.003 26.8106 225.797 26.9439 225.53C27.0772 225.263 27.1439 224.953 27.1439 224.6C27.1439 224.14 27.0039 223.767 26.7239 223.48C26.4439 223.193 26.0772 223.05 25.6239 223.05C25.3172 223.05 25.0272 223.127 24.7539 223.28C24.4872 223.433 24.2672 223.633 24.0939 223.88H23.2839L23.8639 220.02H27.7139V220.77H24.5639L24.2139 223.06C24.4139 222.833 24.6572 222.65 24.9439 222.51C25.2372 222.37 25.5306 222.3 25.8239 222.3C26.2572 222.3 26.6406 222.397 26.9739 222.59C27.3139 222.783 27.5772 223.05 27.7639 223.39C27.9506 223.73 28.0439 224.13 28.0439 224.59C28.0439 225.097 27.9372 225.54 27.7239 225.92C27.5172 226.3 27.2272 226.597 26.8539 226.81C26.4806 227.017 26.0406 227.12 25.5339 227.12ZM31.3278 223.2V222.13H32.3878V223.2H31.3278ZM31.3278 227V225.93H32.3878V227H31.3278ZM38.1417 227.12C37.6884 227.12 37.2917 227.037 36.9517 226.87C36.6117 226.703 36.3417 226.47 36.1417 226.17C35.9417 225.87 35.8317 225.523 35.8117 225.13H36.6917C36.7317 225.497 36.8751 225.797 37.1217 226.03C37.3684 226.257 37.7117 226.37 38.1517 226.37C38.4717 226.37 38.7517 226.297 38.9917 226.15C39.2317 226.003 39.4184 225.797 39.5517 225.53C39.6851 225.263 39.7517 224.953 39.7517 224.6C39.7517 224.14 39.6117 223.767 39.3317 223.48C39.0517 223.193 38.6851 223.05 38.2317 223.05C37.9251 223.05 37.6351 223.127 37.3617 223.28C37.0951 223.433 36.8751 223.633 36.7017 223.88H35.8917L36.4717 220.02H40.3217V220.77H37.1717L36.8217 223.06C37.0217 222.833 37.2651 222.65 37.5517 222.51C37.8451 222.37 38.1384 222.3 38.4317 222.3C38.8651 222.3 39.2484 222.397 39.5817 222.59C39.9217 222.783 40.1851 223.05 40.3717 223.39C40.5584 223.73 40.6517 224.13 40.6517 224.59C40.6517 225.097 40.5451 225.54 40.3317 225.92C40.1251 226.3 39.8351 226.597 39.4617 226.81C39.0884 227.017 38.6484 227.12 38.1417 227.12ZM44.4656 227.12C43.9856 227.12 43.559 227.033 43.1856 226.86C42.819 226.687 42.5323 226.447 42.3256 226.14C42.119 225.833 42.0156 225.483 42.0156 225.09C42.0156 224.81 42.079 224.553 42.2056 224.32C42.3323 224.08 42.5056 223.877 42.7256 223.71C42.9523 223.537 43.2123 223.41 43.5056 223.33H45.4156C45.7023 223.403 45.959 223.527 46.1856 223.7C46.4123 223.873 46.589 224.077 46.7156 224.31C46.8423 224.543 46.9056 224.8 46.9056 225.08C46.9056 225.48 46.8023 225.833 46.5956 226.14C46.389 226.447 46.1023 226.687 45.7356 226.86C45.369 227.033 44.9456 227.12 44.4656 227.12ZM44.4656 226.37C44.759 226.37 45.019 226.317 45.2456 226.21C45.479 226.097 45.6623 225.943 45.7956 225.75C45.929 225.55 45.9956 225.32 45.9956 225.06C45.9956 224.82 45.929 224.607 45.7956 224.42C45.6623 224.233 45.479 224.083 45.2456 223.97C45.019 223.85 44.759 223.78 44.4656 223.76C44.1723 223.78 43.909 223.85 43.6756 223.97C43.449 224.083 43.269 224.233 43.1356 224.42C43.0023 224.6 42.9356 224.813 42.9356 225.06C42.9356 225.32 43.0023 225.55 43.1356 225.75C43.269 225.943 43.449 226.097 43.6756 226.21C43.909 226.317 44.1723 226.37 44.4656 226.37ZM44.4656 223.08C44.7323 223.053 44.9723 222.99 45.1856 222.89C45.4056 222.783 45.579 222.643 45.7056 222.47C45.8323 222.297 45.8956 222.09 45.8956 221.85C45.8956 221.483 45.759 221.19 45.4856 220.97C45.219 220.75 44.879 220.64 44.4656 220.64C44.0456 220.64 43.7023 220.75 43.4356 220.97C43.169 221.19 43.0356 221.483 43.0356 221.85C43.0356 222.09 43.0956 222.297 43.2156 222.47C43.3423 222.643 43.5123 222.783 43.7256 222.89C43.9456 222.99 44.1923 223.053 44.4656 223.08ZM43.5656 223.46C43.299 223.393 43.059 223.283 42.8456 223.13C42.6323 222.97 42.4623 222.78 42.3356 222.56C42.2156 222.333 42.1556 222.087 42.1556 221.82C42.1556 221.447 42.2523 221.117 42.4456 220.83C42.6456 220.537 42.919 220.31 43.2656 220.15C43.6123 219.983 44.0123 219.9 44.4656 219.9C44.919 219.9 45.319 219.983 45.6656 220.15C46.0123 220.31 46.2823 220.537 46.4756 220.83C46.669 221.117 46.7656 221.45 46.7656 221.83C46.7656 222.09 46.7056 222.333 46.5856 222.56C46.4656 222.78 46.299 222.97 46.0856 223.13C45.8723 223.283 45.629 223.393 45.3556 223.46H43.5656ZM55.2134 225.11V224.36H59.0034V225.11H55.2134ZM56.4634 220.02H57.6734L59.9634 227H59.0734L57.4934 222.16L57.0734 220.75L56.6534 222.17L55.0634 227H54.1834L56.4634 220.02ZM60.4173 227L60.9573 220.02H62.1173L63.1673 224.55L63.3873 225.77L63.6073 224.55L64.6773 220.02H65.8073L66.3573 227H65.4973L65.1973 222.32L65.1473 220.92L64.8573 222.32L63.7573 227H62.9773L61.8973 222.32L61.6173 220.9L61.5573 222.32L61.2673 227H60.4173Z" fill="#222222"/>
<path d="M17.179 233.727L19.3381 239.849H19.4233L21.5824 233.727H22.5057L19.8352 241H18.9261L16.2557 233.727H17.179ZM25.304 241.114C24.7784 241.114 24.325 240.998 23.9439 240.766C23.5651 240.531 23.2727 240.205 23.0668 239.786C22.8632 239.364 22.7614 238.874 22.7614 238.315C22.7614 237.757 22.8632 237.264 23.0668 236.838C23.2727 236.41 23.5592 236.076 23.9261 235.837C24.2955 235.595 24.7263 235.474 25.2188 235.474C25.5028 235.474 25.7834 235.522 26.0604 235.616C26.3374 235.711 26.5895 235.865 26.8168 236.078C27.044 236.289 27.2251 236.568 27.3601 236.916C27.495 237.264 27.5625 237.693 27.5625 238.202V238.557H23.358V237.832H26.7102C26.7102 237.525 26.6487 237.25 26.5256 237.009C26.4048 236.767 26.232 236.576 26.0071 236.437C25.7846 236.297 25.5218 236.227 25.2188 236.227C24.8849 236.227 24.5961 236.31 24.3523 236.476C24.1108 236.639 23.925 236.852 23.7947 237.115C23.6645 237.378 23.5994 237.66 23.5994 237.96V238.443C23.5994 238.855 23.6705 239.204 23.8125 239.491C23.9569 239.775 24.157 239.991 24.4126 240.141C24.6683 240.287 24.9654 240.361 25.304 240.361C25.5241 240.361 25.723 240.33 25.9006 240.268C26.0805 240.205 26.2356 240.11 26.3658 239.984C26.496 239.857 26.5966 239.698 26.6676 239.509L27.4773 239.736C27.392 240.01 27.2488 240.252 27.0476 240.46C26.8464 240.666 26.5978 240.827 26.3018 240.943C26.0059 241.057 25.6733 241.114 25.304 241.114ZM28.8374 241V235.545H29.647V236.369H29.7038C29.8033 236.099 29.9832 235.88 30.2436 235.712C30.504 235.544 30.7976 235.46 31.1243 235.46C31.1858 235.46 31.2628 235.461 31.3551 235.464C31.4474 235.466 31.5173 235.47 31.5646 235.474V236.327C31.5362 236.32 31.4711 236.309 31.3693 236.295C31.2699 236.278 31.1645 236.27 31.0533 236.27C30.7881 236.27 30.5514 236.326 30.343 236.437C30.1371 236.546 29.9737 236.697 29.853 236.891C29.7346 237.083 29.6754 237.302 29.6754 237.548V241H28.8374ZM36.4217 236.767L35.6689 236.98C35.6215 236.855 35.5517 236.733 35.4593 236.614C35.3694 236.494 35.2463 236.394 35.09 236.316C34.9338 236.238 34.7337 236.199 34.4899 236.199C34.1561 236.199 33.8779 236.276 33.6554 236.43C33.4352 236.581 33.3251 236.774 33.3251 237.009C33.3251 237.217 33.4009 237.381 33.5524 237.502C33.7039 237.623 33.9406 237.723 34.2626 237.804L35.0723 238.003C35.56 238.121 35.9234 238.302 36.1625 238.546C36.4016 238.788 36.5211 239.099 36.5211 239.48C36.5211 239.793 36.4312 240.072 36.2512 240.318C36.0737 240.564 35.8251 240.759 35.5055 240.901C35.1859 241.043 34.8142 241.114 34.3904 241.114C33.8341 241.114 33.3736 240.993 33.0091 240.751C32.6445 240.51 32.4136 240.157 32.3166 239.693L33.112 239.494C33.1878 239.788 33.331 240.008 33.5417 240.155C33.7548 240.302 34.033 240.375 34.3762 240.375C34.7669 240.375 35.077 240.292 35.3066 240.126C35.5386 239.958 35.6547 239.757 35.6547 239.523C35.6547 239.333 35.5884 239.175 35.4558 239.047C35.3232 238.917 35.1196 238.82 34.845 238.756L33.9359 238.543C33.4364 238.424 33.0694 238.241 32.835 237.992C32.603 237.741 32.487 237.428 32.487 237.051C32.487 236.743 32.5734 236.471 32.7463 236.234C32.9215 235.998 33.1594 235.812 33.46 235.677C33.7631 235.542 34.1064 235.474 34.4899 235.474C35.0297 235.474 35.4534 235.593 35.7612 235.83C36.0713 236.066 36.2915 236.379 36.4217 236.767ZM37.7827 241V235.545H38.6207V241H37.7827ZM38.2088 234.636C38.0455 234.636 37.9046 234.581 37.7862 234.469C37.6702 234.358 37.6122 234.224 37.6122 234.068C37.6122 233.912 37.6702 233.778 37.7862 233.667C37.9046 233.556 38.0455 233.5 38.2088 233.5C38.3722 233.5 38.5118 233.556 38.6278 233.667C38.7462 233.778 38.8054 233.912 38.8054 234.068C38.8054 234.224 38.7462 234.358 38.6278 234.469C38.5118 234.581 38.3722 234.636 38.2088 234.636ZM42.3716 241.114C41.8792 241.114 41.4471 240.996 41.0755 240.762C40.7061 240.528 40.4173 240.2 40.209 239.778C40.003 239.357 39.9 238.865 39.9 238.301C39.9 237.733 40.003 237.237 40.209 236.813C40.4173 236.389 40.7061 236.06 41.0755 235.826C41.4471 235.592 41.8792 235.474 42.3716 235.474C42.8641 235.474 43.2949 235.592 43.6642 235.826C44.0359 236.06 44.3248 236.389 44.5307 236.813C44.7391 237.237 44.8432 237.733 44.8432 238.301C44.8432 238.865 44.7391 239.357 44.5307 239.778C44.3248 240.2 44.0359 240.528 43.6642 240.762C43.2949 240.996 42.8641 241.114 42.3716 241.114ZM42.3716 240.361C42.7457 240.361 43.0534 240.265 43.2949 240.073C43.5364 239.881 43.7151 239.629 43.8311 239.317C43.9471 239.004 44.0051 238.666 44.0051 238.301C44.0051 237.937 43.9471 237.597 43.8311 237.282C43.7151 236.967 43.5364 236.713 43.2949 236.518C43.0534 236.324 42.7457 236.227 42.3716 236.227C41.9976 236.227 41.6898 236.324 41.4483 236.518C41.2069 236.713 41.0281 236.967 40.9121 237.282C40.7961 237.597 40.7381 237.937 40.7381 238.301C40.7381 238.666 40.7961 239.004 40.9121 239.317C41.0281 239.629 41.2069 239.881 41.4483 240.073C41.6898 240.265 41.9976 240.361 42.3716 240.361ZM46.9606 237.719V241H46.1225V235.545H46.9322V236.398H47.0032C47.131 236.121 47.3252 235.898 47.5856 235.73C47.846 235.56 48.1822 235.474 48.5941 235.474C48.9634 235.474 49.2866 235.55 49.5636 235.702C49.8406 235.851 50.056 236.078 50.2099 236.384C50.3638 236.687 50.4407 237.07 50.4407 237.534V241H49.6026V237.591C49.6026 237.162 49.4914 236.829 49.2688 236.589C49.0463 236.348 48.7409 236.227 48.3526 236.227C48.0851 236.227 47.846 236.285 47.6353 236.401C47.427 236.517 47.2624 236.687 47.1417 236.909C47.021 237.132 46.9606 237.402 46.9606 237.719ZM54.7704 241V240.361L57.171 237.733C57.4527 237.425 57.6847 237.158 57.867 236.93C58.0493 236.701 58.1842 236.485 58.2718 236.284C58.3618 236.08 58.4068 235.867 58.4068 235.645C58.4068 235.389 58.3452 235.168 58.2221 234.981C58.1014 234.794 57.9357 234.649 57.725 234.548C57.5143 234.446 57.2775 234.395 57.0147 234.395C56.7354 234.395 56.4915 234.453 56.2832 234.569C56.0772 234.683 55.9174 234.842 55.8038 235.048C55.6925 235.254 55.6369 235.496 55.6369 235.773H54.7988C54.7988 235.347 54.8971 234.973 55.0936 234.651C55.2901 234.329 55.5576 234.078 55.8961 233.898C56.237 233.718 56.6194 233.628 57.0431 233.628C57.4693 233.628 57.8469 233.718 58.176 233.898C58.505 234.078 58.7631 234.32 58.9501 234.626C59.1371 234.931 59.2306 235.271 59.2306 235.645C59.2306 235.912 59.1821 236.174 59.085 236.43C58.9904 236.683 58.8246 236.966 58.5879 237.278C58.3535 237.589 58.028 237.967 57.6113 238.415L55.9778 240.162V240.219H59.3585V241H54.7704Z" fill="#808080"/>
<path d="M19.31 279V274.46L19.34 273.06L18.23 273.97L16.95 274.99V273.95L19.54 272.02H20.17V279H19.31ZM16.95 279V278.25H21.7V279H16.95ZM25.5339 279.12C25.0806 279.12 24.6839 279.037 24.3439 278.87C24.0039 278.703 23.7339 278.47 23.5339 278.17C23.3339 277.87 23.2239 277.523 23.2039 277.13H24.0839C24.1239 277.497 24.2672 277.797 24.5139 278.03C24.7606 278.257 25.1039 278.37 25.5439 278.37C25.8639 278.37 26.1439 278.297 26.3839 278.15C26.6239 278.003 26.8106 277.797 26.9439 277.53C27.0772 277.263 27.1439 276.953 27.1439 276.6C27.1439 276.14 27.0039 275.767 26.7239 275.48C26.4439 275.193 26.0772 275.05 25.6239 275.05C25.3172 275.05 25.0272 275.127 24.7539 275.28C24.4872 275.433 24.2672 275.633 24.0939 275.88H23.2839L23.8639 272.02H27.7139V272.77H24.5639L24.2139 275.06C24.4139 274.833 24.6572 274.65 24.9439 274.51C25.2372 274.37 25.5306 274.3 25.8239 274.3C26.2572 274.3 26.6406 274.397 26.9739 274.59C27.3139 274.783 27.5772 275.05 27.7639 275.39C27.9506 275.73 28.0439 276.13 28.0439 276.59C28.0439 277.097 27.9372 277.54 27.7239 277.92C27.5172 278.3 27.2272 278.597 26.8539 278.81C26.4806 279.017 26.0406 279.12 25.5339 279.12ZM31.3278 275.2V274.13H32.3878V275.2H31.3278ZM31.3278 279V277.93H32.3878V279H31.3278ZM38.1417 279.12C37.6884 279.12 37.2917 279.037 36.9517 278.87C36.6117 278.703 36.3417 278.47 36.1417 278.17C35.9417 277.87 35.8317 277.523 35.8117 277.13H36.6917C36.7317 277.497 36.8751 277.797 37.1217 278.03C37.3684 278.257 37.7117 278.37 38.1517 278.37C38.4717 278.37 38.7517 278.297 38.9917 278.15C39.2317 278.003 39.4184 277.797 39.5517 277.53C39.6851 277.263 39.7517 276.953 39.7517 276.6C39.7517 276.14 39.6117 275.767 39.3317 275.48C39.0517 275.193 38.6851 275.05 38.2317 275.05C37.9251 275.05 37.6351 275.127 37.3617 275.28C37.0951 275.433 36.8751 275.633 36.7017 275.88H35.8917L36.4717 272.02H40.3217V272.77H37.1717L36.8217 275.06C37.0217 274.833 37.2651 274.65 37.5517 274.51C37.8451 274.37 38.1384 274.3 38.4317 274.3C38.8651 274.3 39.2484 274.397 39.5817 274.59C39.9217 274.783 40.1851 275.05 40.3717 275.39C40.5584 275.73 40.6517 276.13 40.6517 276.59C40.6517 277.097 40.5451 277.54 40.3317 277.92C40.1251 278.3 39.8351 278.597 39.4617 278.81C39.0884 279.017 38.6484 279.12 38.1417 279.12ZM44.4656 279.12C43.9856 279.12 43.559 279.033 43.1856 278.86C42.819 278.687 42.5323 278.447 42.3256 278.14C42.119 277.833 42.0156 277.483 42.0156 277.09C42.0156 276.81 42.079 276.553 42.2056 276.32C42.3323 276.08 42.5056 275.877 42.7256 275.71C42.9523 275.537 43.2123 275.41 43.5056 275.33H45.4156C45.7023 275.403 45.959 275.527 46.1856 275.7C46.4123 275.873 46.589 276.077 46.7156 276.31C46.8423 276.543 46.9056 276.8 46.9056 277.08C46.9056 277.48 46.8023 277.833 46.5956 278.14C46.389 278.447 46.1023 278.687 45.7356 278.86C45.369 279.033 44.9456 279.12 44.4656 279.12ZM44.4656 278.37C44.759 278.37 45.019 278.317 45.2456 278.21C45.479 278.097 45.6623 277.943 45.7956 277.75C45.929 277.55 45.9956 277.32 45.9956 277.06C45.9956 276.82 45.929 276.607 45.7956 276.42C45.6623 276.233 45.479 276.083 45.2456 275.97C45.019 275.85 44.759 275.78 44.4656 275.76C44.1723 275.78 43.909 275.85 43.6756 275.97C43.449 276.083 43.269 276.233 43.1356 276.42C43.0023 276.6 42.9356 276.813 42.9356 277.06C42.9356 277.32 43.0023 277.55 43.1356 277.75C43.269 277.943 43.449 278.097 43.6756 278.21C43.909 278.317 44.1723 278.37 44.4656 278.37ZM44.4656 275.08C44.7323 275.053 44.9723 274.99 45.1856 274.89C45.4056 274.783 45.579 274.643 45.7056 274.47C45.8323 274.297 45.8956 274.09 45.8956 273.85C45.8956 273.483 45.759 273.19 45.4856 272.97C45.219 272.75 44.879 272.64 44.4656 272.64C44.0456 272.64 43.7023 272.75 43.4356 272.97C43.169 273.19 43.0356 273.483 43.0356 273.85C43.0356 274.09 43.0956 274.297 43.2156 274.47C43.3423 274.643 43.5123 274.783 43.7256 274.89C43.9456 274.99 44.1923 275.053 44.4656 275.08ZM43.5656 275.46C43.299 275.393 43.059 275.283 42.8456 275.13C42.6323 274.97 42.4623 274.78 42.3356 274.56C42.2156 274.333 42.1556 274.087 42.1556 273.82C42.1556 273.447 42.2523 273.117 42.4456 272.83C42.6456 272.537 42.919 272.31 43.2656 272.15C43.6123 271.983 44.0123 271.9 44.4656 271.9C44.919 271.9 45.319 271.983 45.6656 272.15C46.0123 272.31 46.2823 272.537 46.4756 272.83C46.669 273.117 46.7656 273.45 46.7656 273.83C46.7656 274.09 46.7056 274.333 46.5856 274.56C46.4656 274.78 46.299 274.97 46.0856 275.13C45.8723 275.283 45.629 275.393 45.3556 275.46H43.5656ZM55.2134 277.11V276.36H59.0034V277.11H55.2134ZM56.4634 272.02H57.6734L59.9634 279H59.0734L57.4934 274.16L57.0734 272.75L56.6534 274.17L55.0634 279H54.1834L56.4634 272.02ZM60.4173 279L60.9573 272.02H62.1173L63.1673 276.55L63.3873 277.77L63.6073 276.55L64.6773 272.02H65.8073L66.3573 279H65.4973L65.1973 274.32L65.1473 272.92L64.8573 274.32L63.7573 279H62.9773L61.8973 274.32L61.6173 272.9L61.5573 274.32L61.2673 279H60.4173Z" fill="#222222"/>
<path d="M17.179 285.727L19.3381 291.849H19.4233L21.5824 285.727H22.5057L19.8352 293H18.9261L16.2557 285.727H17.179ZM25.304 293.114C24.7784 293.114 24.325 292.998 23.9439 292.766C23.5651 292.531 23.2727 292.205 23.0668 291.786C22.8632 291.364 22.7614 290.874 22.7614 290.315C22.7614 289.757 22.8632 289.264 23.0668 288.838C23.2727 288.41 23.5592 288.076 23.9261 287.837C24.2955 287.595 24.7263 287.474 25.2188 287.474C25.5028 287.474 25.7834 287.522 26.0604 287.616C26.3374 287.711 26.5895 287.865 26.8168 288.078C27.044 288.289 27.2251 288.568 27.3601 288.916C27.495 289.264 27.5625 289.693 27.5625 290.202V290.557H23.358V289.832H26.7102C26.7102 289.525 26.6487 289.25 26.5256 289.009C26.4048 288.767 26.232 288.576 26.0071 288.437C25.7846 288.297 25.5218 288.227 25.2188 288.227C24.8849 288.227 24.5961 288.31 24.3523 288.476C24.1108 288.639 23.925 288.852 23.7947 289.115C23.6645 289.378 23.5994 289.66 23.5994 289.96V290.443C23.5994 290.855 23.6705 291.204 23.8125 291.491C23.9569 291.775 24.157 291.991 24.4126 292.141C24.6683 292.287 24.9654 292.361 25.304 292.361C25.5241 292.361 25.723 292.33 25.9006 292.268C26.0805 292.205 26.2356 292.11 26.3658 291.984C26.496 291.857 26.5966 291.698 26.6676 291.509L27.4773 291.736C27.392 292.01 27.2488 292.252 27.0476 292.46C26.8464 292.666 26.5978 292.827 26.3018 292.943C26.0059 293.057 25.6733 293.114 25.304 293.114ZM28.8374 293V287.545H29.647V288.369H29.7038C29.8033 288.099 29.9832 287.88 30.2436 287.712C30.504 287.544 30.7976 287.46 31.1243 287.46C31.1858 287.46 31.2628 287.461 31.3551 287.464C31.4474 287.466 31.5173 287.47 31.5646 287.474V288.327C31.5362 288.32 31.4711 288.309 31.3693 288.295C31.2699 288.278 31.1645 288.27 31.0533 288.27C30.7881 288.27 30.5514 288.326 30.343 288.437C30.1371 288.546 29.9737 288.697 29.853 288.891C29.7346 289.083 29.6754 289.302 29.6754 289.548V293H28.8374ZM36.4217 288.767L35.6689 288.98C35.6215 288.855 35.5517 288.733 35.4593 288.614C35.3694 288.494 35.2463 288.394 35.09 288.316C34.9338 288.238 34.7337 288.199 34.4899 288.199C34.1561 288.199 33.8779 288.276 33.6554 288.43C33.4352 288.581 33.3251 288.774 33.3251 289.009C33.3251 289.217 33.4009 289.381 33.5524 289.502C33.7039 289.623 33.9406 289.723 34.2626 289.804L35.0723 290.003C35.56 290.121 35.9234 290.302 36.1625 290.546C36.4016 290.788 36.5211 291.099 36.5211 291.48C36.5211 291.793 36.4312 292.072 36.2512 292.318C36.0737 292.564 35.8251 292.759 35.5055 292.901C35.1859 293.043 34.8142 293.114 34.3904 293.114C33.8341 293.114 33.3736 292.993 33.0091 292.751C32.6445 292.51 32.4136 292.157 32.3166 291.693L33.112 291.494C33.1878 291.788 33.331 292.008 33.5417 292.155C33.7548 292.302 34.033 292.375 34.3762 292.375C34.7669 292.375 35.077 292.292 35.3066 292.126C35.5386 291.958 35.6547 291.757 35.6547 291.523C35.6547 291.333 35.5884 291.175 35.4558 291.047C35.3232 290.917 35.1196 290.82 34.845 290.756L33.9359 290.543C33.4364 290.424 33.0694 290.241 32.835 289.992C32.603 289.741 32.487 289.428 32.487 289.051C32.487 288.743 32.5734 288.471 32.7463 288.234C32.9215 287.998 33.1594 287.812 33.46 287.677C33.7631 287.542 34.1064 287.474 34.4899 287.474C35.0297 287.474 35.4534 287.593 35.7612 287.83C36.0713 288.066 36.2915 288.379 36.4217 288.767ZM37.7827 293V287.545H38.6207V293H37.7827ZM38.2088 286.636C38.0455 286.636 37.9046 286.581 37.7862 286.469C37.6702 286.358 37.6122 286.224 37.6122 286.068C37.6122 285.912 37.6702 285.778 37.7862 285.667C37.9046 285.556 38.0455 285.5 38.2088 285.5C38.3722 285.5 38.5118 285.556 38.6278 285.667C38.7462 285.778 38.8054 285.912 38.8054 286.068C38.8054 286.224 38.7462 286.358 38.6278 286.469C38.5118 286.581 38.3722 286.636 38.2088 286.636ZM42.3716 293.114C41.8792 293.114 41.4471 292.996 41.0755 292.762C40.7061 292.528 40.4173 292.2 40.209 291.778C40.003 291.357 39.9 290.865 39.9 290.301C39.9 289.733 40.003 289.237 40.209 288.813C40.4173 288.389 40.7061 288.06 41.0755 287.826C41.4471 287.592 41.8792 287.474 42.3716 287.474C42.8641 287.474 43.2949 287.592 43.6642 287.826C44.0359 288.06 44.3248 288.389 44.5307 288.813C44.7391 289.237 44.8432 289.733 44.8432 290.301C44.8432 290.865 44.7391 291.357 44.5307 291.778C44.3248 292.2 44.0359 292.528 43.6642 292.762C43.2949 292.996 42.8641 293.114 42.3716 293.114ZM42.3716 292.361C42.7457 292.361 43.0534 292.265 43.2949 292.073C43.5364 291.881 43.7151 291.629 43.8311 291.317C43.9471 291.004 44.0051 290.666 44.0051 290.301C44.0051 289.937 43.9471 289.597 43.8311 289.282C43.7151 288.967 43.5364 288.713 43.2949 288.518C43.0534 288.324 42.7457 288.227 42.3716 288.227C41.9976 288.227 41.6898 288.324 41.4483 288.518C41.2069 288.713 41.0281 288.967 40.9121 289.282C40.7961 289.597 40.7381 289.937 40.7381 290.301C40.7381 290.666 40.7961 291.004 40.9121 291.317C41.0281 291.629 41.2069 291.881 41.4483 292.073C41.6898 292.265 41.9976 292.361 42.3716 292.361ZM46.9606 289.719V293H46.1225V287.545H46.9322V288.398H47.0032C47.131 288.121 47.3252 287.898 47.5856 287.73C47.846 287.56 48.1822 287.474 48.5941 287.474C48.9634 287.474 49.2866 287.55 49.5636 287.702C49.8406 287.851 50.056 288.078 50.2099 288.384C50.3638 288.687 50.4407 289.07 50.4407 289.534V293H49.6026V289.591C49.6026 289.162 49.4914 288.829 49.2688 288.589C49.0463 288.348 48.7409 288.227 48.3526 288.227C48.0851 288.227 47.846 288.285 47.6353 288.401C47.427 288.517 47.2624 288.687 47.1417 288.909C47.021 289.132 46.9606 289.402 46.9606 289.719ZM54.7704 293V292.361L57.171 289.733C57.4527 289.425 57.6847 289.158 57.867 288.93C58.0493 288.701 58.1842 288.485 58.2718 288.284C58.3618 288.08 58.4068 287.867 58.4068 287.645C58.4068 287.389 58.3452 287.168 58.2221 286.981C58.1014 286.794 57.9357 286.649 57.725 286.548C57.5143 286.446 57.2775 286.395 57.0147 286.395C56.7354 286.395 56.4915 286.453 56.2832 286.569C56.0772 286.683 55.9174 286.842 55.8038 287.048C55.6925 287.254 55.6369 287.496 55.6369 287.773H54.7988C54.7988 287.347 54.8971 286.973 55.0936 286.651C55.2901 286.329 55.5576 286.078 55.8961 285.898C56.237 285.718 56.6194 285.628 57.0431 285.628C57.4693 285.628 57.8469 285.718 58.176 285.898C58.505 286.078 58.7631 286.32 58.9501 286.626C59.1371 286.931 59.2306 287.271 59.2306 287.645C59.2306 287.912 59.1821 288.174 59.085 288.43C58.9904 288.683 58.8246 288.966 58.5879 289.278C58.3535 289.589 58.028 289.967 57.6113 290.415L55.9778 292.162V292.219H59.3585V293H54.7704Z" fill="#808080"/>
<path d="M19.31 331V326.46L19.34 325.06L18.23 325.97L16.95 326.99V325.95L19.54 324.02H20.17V331H19.31ZM16.95 331V330.25H21.7V331H16.95ZM25.5339 331.12C25.0806 331.12 24.6839 331.037 24.3439 330.87C24.0039 330.703 23.7339 330.47 23.5339 330.17C23.3339 329.87 23.2239 329.523 23.2039 329.13H24.0839C24.1239 329.497 24.2672 329.797 24.5139 330.03C24.7606 330.257 25.1039 330.37 25.5439 330.37C25.8639 330.37 26.1439 330.297 26.3839 330.15C26.6239 330.003 26.8106 329.797 26.9439 329.53C27.0772 329.263 27.1439 328.953 27.1439 328.6C27.1439 328.14 27.0039 327.767 26.7239 327.48C26.4439 327.193 26.0772 327.05 25.6239 327.05C25.3172 327.05 25.0272 327.127 24.7539 327.28C24.4872 327.433 24.2672 327.633 24.0939 327.88H23.2839L23.8639 324.02H27.7139V324.77H24.5639L24.2139 327.06C24.4139 326.833 24.6572 326.65 24.9439 326.51C25.2372 326.37 25.5306 326.3 25.8239 326.3C26.2572 326.3 26.6406 326.397 26.9739 326.59C27.3139 326.783 27.5772 327.05 27.7639 327.39C27.9506 327.73 28.0439 328.13 28.0439 328.59C28.0439 329.097 27.9372 329.54 27.7239 329.92C27.5172 330.3 27.2272 330.597 26.8539 330.81C26.4806 331.017 26.0406 331.12 25.5339 331.12ZM31.3278 327.2V326.13H32.3878V327.2H31.3278ZM31.3278 331V329.93H32.3878V331H31.3278ZM38.1417 331.12C37.6884 331.12 37.2917 331.037 36.9517 330.87C36.6117 330.703 36.3417 330.47 36.1417 330.17C35.9417 329.87 35.8317 329.523 35.8117 329.13H36.6917C36.7317 329.497 36.8751 329.797 37.1217 330.03C37.3684 330.257 37.7117 330.37 38.1517 330.37C38.4717 330.37 38.7517 330.297 38.9917 330.15C39.2317 330.003 39.4184 329.797 39.5517 329.53C39.6851 329.263 39.7517 328.953 39.7517 328.6C39.7517 328.14 39.6117 327.767 39.3317 327.48C39.0517 327.193 38.6851 327.05 38.2317 327.05C37.9251 327.05 37.6351 327.127 37.3617 327.28C37.0951 327.433 36.8751 327.633 36.7017 327.88H35.8917L36.4717 324.02H40.3217V324.77H37.1717L36.8217 327.06C37.0217 326.833 37.2651 326.65 37.5517 326.51C37.8451 326.37 38.1384 326.3 38.4317 326.3C38.8651 326.3 39.2484 326.397 39.5817 326.59C39.9217 326.783 40.1851 327.05 40.3717 327.39C40.5584 327.73 40.6517 328.13 40.6517 328.59C40.6517 329.097 40.5451 329.54 40.3317 329.92C40.1251 330.3 39.8351 330.597 39.4617 330.81C39.0884 331.017 38.6484 331.12 38.1417 331.12ZM44.4656 331.12C43.9856 331.12 43.559 331.033 43.1856 330.86C42.819 330.687 42.5323 330.447 42.3256 330.14C42.119 329.833 42.0156 329.483 42.0156 329.09C42.0156 328.81 42.079 328.553 42.2056 328.32C42.3323 328.08 42.5056 327.877 42.7256 327.71C42.9523 327.537 43.2123 327.41 43.5056 327.33H45.4156C45.7023 327.403 45.959 327.527 46.1856 327.7C46.4123 327.873 46.589 328.077 46.7156 328.31C46.8423 328.543 46.9056 328.8 46.9056 329.08C46.9056 329.48 46.8023 329.833 46.5956 330.14C46.389 330.447 46.1023 330.687 45.7356 330.86C45.369 331.033 44.9456 331.12 44.4656 331.12ZM44.4656 330.37C44.759 330.37 45.019 330.317 45.2456 330.21C45.479 330.097 45.6623 329.943 45.7956 329.75C45.929 329.55 45.9956 329.32 45.9956 329.06C45.9956 328.82 45.929 328.607 45.7956 328.42C45.6623 328.233 45.479 328.083 45.2456 327.97C45.019 327.85 44.759 327.78 44.4656 327.76C44.1723 327.78 43.909 327.85 43.6756 327.97C43.449 328.083 43.269 328.233 43.1356 328.42C43.0023 328.6 42.9356 328.813 42.9356 329.06C42.9356 329.32 43.0023 329.55 43.1356 329.75C43.269 329.943 43.449 330.097 43.6756 330.21C43.909 330.317 44.1723 330.37 44.4656 330.37ZM44.4656 327.08C44.7323 327.053 44.9723 326.99 45.1856 326.89C45.4056 326.783 45.579 326.643 45.7056 326.47C45.8323 326.297 45.8956 326.09 45.8956 325.85C45.8956 325.483 45.759 325.19 45.4856 324.97C45.219 324.75 44.879 324.64 44.4656 324.64C44.0456 324.64 43.7023 324.75 43.4356 324.97C43.169 325.19 43.0356 325.483 43.0356 325.85C43.0356 326.09 43.0956 326.297 43.2156 326.47C43.3423 326.643 43.5123 326.783 43.7256 326.89C43.9456 326.99 44.1923 327.053 44.4656 327.08ZM43.5656 327.46C43.299 327.393 43.059 327.283 42.8456 327.13C42.6323 326.97 42.4623 326.78 42.3356 326.56C42.2156 326.333 42.1556 326.087 42.1556 325.82C42.1556 325.447 42.2523 325.117 42.4456 324.83C42.6456 324.537 42.919 324.31 43.2656 324.15C43.6123 323.983 44.0123 323.9 44.4656 323.9C44.919 323.9 45.319 323.983 45.6656 324.15C46.0123 324.31 46.2823 324.537 46.4756 324.83C46.669 325.117 46.7656 325.45 46.7656 325.83C46.7656 326.09 46.7056 326.333 46.5856 326.56C46.4656 326.78 46.299 326.97 46.0856 327.13C45.8723 327.283 45.629 327.393 45.3556 327.46H43.5656ZM55.2134 329.11V328.36H59.0034V329.11H55.2134ZM56.4634 324.02H57.6734L59.9634 331H59.0734L57.4934 326.16L57.0734 324.75L56.6534 326.17L55.0634 331H54.1834L56.4634 324.02ZM60.4173 331L60.9573 324.02H62.1173L63.1673 328.55L63.3873 329.77L63.6073 328.55L64.6773 324.02H65.8073L66.3573 331H65.4973L65.1973 326.32L65.1473 324.92L64.8573 326.32L63.7573 331H62.9773L61.8973 326.32L61.6173 324.9L61.5573 326.32L61.2673 331H60.4173Z" fill="#222222"/>
<path d="M17.179 337.727L19.3381 343.849H19.4233L21.5824 337.727H22.5057L19.8352 345H18.9261L16.2557 337.727H17.179ZM25.304 345.114C24.7784 345.114 24.325 344.998 23.9439 344.766C23.5651 344.531 23.2727 344.205 23.0668 343.786C22.8632 343.364 22.7614 342.874 22.7614 342.315C22.7614 341.757 22.8632 341.264 23.0668 340.838C23.2727 340.41 23.5592 340.076 23.9261 339.837C24.2955 339.595 24.7263 339.474 25.2188 339.474C25.5028 339.474 25.7834 339.522 26.0604 339.616C26.3374 339.711 26.5895 339.865 26.8168 340.078C27.044 340.289 27.2251 340.568 27.3601 340.916C27.495 341.264 27.5625 341.693 27.5625 342.202V342.557H23.358V341.832H26.7102C26.7102 341.525 26.6487 341.25 26.5256 341.009C26.4048 340.767 26.232 340.576 26.0071 340.437C25.7846 340.297 25.5218 340.227 25.2188 340.227C24.8849 340.227 24.5961 340.31 24.3523 340.476C24.1108 340.639 23.925 340.852 23.7947 341.115C23.6645 341.378 23.5994 341.66 23.5994 341.96V342.443C23.5994 342.855 23.6705 343.204 23.8125 343.491C23.9569 343.775 24.157 343.991 24.4126 344.141C24.6683 344.287 24.9654 344.361 25.304 344.361C25.5241 344.361 25.723 344.33 25.9006 344.268C26.0805 344.205 26.2356 344.11 26.3658 343.984C26.496 343.857 26.5966 343.698 26.6676 343.509L27.4773 343.736C27.392 344.01 27.2488 344.252 27.0476 344.46C26.8464 344.666 26.5978 344.827 26.3018 344.943C26.0059 345.057 25.6733 345.114 25.304 345.114ZM28.8374 345V339.545H29.647V340.369H29.7038C29.8033 340.099 29.9832 339.88 30.2436 339.712C30.504 339.544 30.7976 339.46 31.1243 339.46C31.1858 339.46 31.2628 339.461 31.3551 339.464C31.4474 339.466 31.5173 339.47 31.5646 339.474V340.327C31.5362 340.32 31.4711 340.309 31.3693 340.295C31.2699 340.278 31.1645 340.27 31.0533 340.27C30.7881 340.27 30.5514 340.326 30.343 340.437C30.1371 340.546 29.9737 340.697 29.853 340.891C29.7346 341.083 29.6754 341.302 29.6754 341.548V345H28.8374ZM36.4217 340.767L35.6689 340.98C35.6215 340.855 35.5517 340.733 35.4593 340.614C35.3694 340.494 35.2463 340.394 35.09 340.316C34.9338 340.238 34.7337 340.199 34.4899 340.199C34.1561 340.199 33.8779 340.276 33.6554 340.43C33.4352 340.581 33.3251 340.774 33.3251 341.009C33.3251 341.217 33.4009 341.381 33.5524 341.502C33.7039 341.623 33.9406 341.723 34.2626 341.804L35.0723 342.003C35.56 342.121 35.9234 342.302 36.1625 342.546C36.4016 342.788 36.5211 343.099 36.5211 343.48C36.5211 343.793 36.4312 344.072 36.2512 344.318C36.0737 344.564 35.8251 344.759 35.5055 344.901C35.1859 345.043 34.8142 345.114 34.3904 345.114C33.8341 345.114 33.3736 344.993 33.0091 344.751C32.6445 344.51 32.4136 344.157 32.3166 343.693L33.112 343.494C33.1878 343.788 33.331 344.008 33.5417 344.155C33.7548 344.302 34.033 344.375 34.3762 344.375C34.7669 344.375 35.077 344.292 35.3066 344.126C35.5386 343.958 35.6547 343.757 35.6547 343.523C35.6547 343.333 35.5884 343.175 35.4558 343.047C35.3232 342.917 35.1196 342.82 34.845 342.756L33.9359 342.543C33.4364 342.424 33.0694 342.241 32.835 341.992C32.603 341.741 32.487 341.428 32.487 341.051C32.487 340.743 32.5734 340.471 32.7463 340.234C32.9215 339.998 33.1594 339.812 33.46 339.677C33.7631 339.542 34.1064 339.474 34.4899 339.474C35.0297 339.474 35.4534 339.593 35.7612 339.83C36.0713 340.066 36.2915 340.379 36.4217 340.767ZM37.7827 345V339.545H38.6207V345H37.7827ZM38.2088 338.636C38.0455 338.636 37.9046 338.581 37.7862 338.469C37.6702 338.358 37.6122 338.224 37.6122 338.068C37.6122 337.912 37.6702 337.778 37.7862 337.667C37.9046 337.556 38.0455 337.5 38.2088 337.5C38.3722 337.5 38.5118 337.556 38.6278 337.667C38.7462 337.778 38.8054 337.912 38.8054 338.068C38.8054 338.224 38.7462 338.358 38.6278 338.469C38.5118 338.581 38.3722 338.636 38.2088 338.636ZM42.3716 345.114C41.8792 345.114 41.4471 344.996 41.0755 344.762C40.7061 344.528 40.4173 344.2 40.209 343.778C40.003 343.357 39.9 342.865 39.9 342.301C39.9 341.733 40.003 341.237 40.209 340.813C40.4173 340.389 40.7061 340.06 41.0755 339.826C41.4471 339.592 41.8792 339.474 42.3716 339.474C42.8641 339.474 43.2949 339.592 43.6642 339.826C44.0359 340.06 44.3248 340.389 44.5307 340.813C44.7391 341.237 44.8432 341.733 44.8432 342.301C44.8432 342.865 44.7391 343.357 44.5307 343.778C44.3248 344.2 44.0359 344.528 43.6642 344.762C43.2949 344.996 42.8641 345.114 42.3716 345.114ZM42.3716 344.361C42.7457 344.361 43.0534 344.265 43.2949 344.073C43.5364 343.881 43.7151 343.629 43.8311 343.317C43.9471 343.004 44.0051 342.666 44.0051 342.301C44.0051 341.937 43.9471 341.597 43.8311 341.282C43.7151 340.967 43.5364 340.713 43.2949 340.518C43.0534 340.324 42.7457 340.227 42.3716 340.227C41.9976 340.227 41.6898 340.324 41.4483 340.518C41.2069 340.713 41.0281 340.967 40.9121 341.282C40.7961 341.597 40.7381 341.937 40.7381 342.301C40.7381 342.666 40.7961 343.004 40.9121 343.317C41.0281 343.629 41.2069 343.881 41.4483 344.073C41.6898 344.265 41.9976 344.361 42.3716 344.361ZM46.9606 341.719V345H46.1225V339.545H46.9322V340.398H47.0032C47.131 340.121 47.3252 339.898 47.5856 339.73C47.846 339.56 48.1822 339.474 48.5941 339.474C48.9634 339.474 49.2866 339.55 49.5636 339.702C49.8406 339.851 50.056 340.078 50.2099 340.384C50.3638 340.687 50.4407 341.07 50.4407 341.534V345H49.6026V341.591C49.6026 341.162 49.4914 340.829 49.2688 340.589C49.0463 340.348 48.7409 340.227 48.3526 340.227C48.0851 340.227 47.846 340.285 47.6353 340.401C47.427 340.517 47.2624 340.687 47.1417 340.909C47.021 341.132 46.9606 341.402 46.9606 341.719ZM54.7704 345V344.361L57.171 341.733C57.4527 341.425 57.6847 341.158 57.867 340.93C58.0493 340.701 58.1842 340.485 58.2718 340.284C58.3618 340.08 58.4068 339.867 58.4068 339.645C58.4068 339.389 58.3452 339.168 58.2221 338.981C58.1014 338.794 57.9357 338.649 57.725 338.548C57.5143 338.446 57.2775 338.395 57.0147 338.395C56.7354 338.395 56.4915 338.453 56.2832 338.569C56.0772 338.683 55.9174 338.842 55.8038 339.048C55.6925 339.254 55.6369 339.496 55.6369 339.773H54.7988C54.7988 339.347 54.8971 338.973 55.0936 338.651C55.2901 338.329 55.5576 338.078 55.8961 337.898C56.237 337.718 56.6194 337.628 57.0431 337.628C57.4693 337.628 57.8469 337.718 58.176 337.898C58.505 338.078 58.7631 338.32 58.9501 338.626C59.1371 338.931 59.2306 339.271 59.2306 339.645C59.2306 339.912 59.1821 340.174 59.085 340.43C58.9904 340.683 58.8246 340.966 58.5879 341.278C58.3535 341.589 58.028 341.967 57.6113 342.415L55.9778 344.162V344.219H59.3585V345H54.7704Z" fill="#808080"/>
</svg>
