<svg width="1296" height="56" viewBox="0 0 1296 56" fill="none" xmlns="http://www.w3.org/2000/svg">
<path d="M6.73295 26.5H5.85227C5.80019 26.2467 5.70904 26.0241 5.57884 25.8324C5.45099 25.6406 5.29474 25.4796 5.11009 25.3494C4.92779 25.2169 4.72538 25.1174 4.50284 25.0511C4.2803 24.9848 4.0483 24.9517 3.80682 24.9517C3.36648 24.9517 2.96757 25.063 2.61009 25.2855C2.25497 25.508 1.97206 25.8359 1.76136 26.2692C1.55303 26.7024 1.44886 27.2339 1.44886 27.8636C1.44886 28.4934 1.55303 29.0249 1.76136 29.4581C1.97206 29.8913 2.25497 30.2192 2.61009 30.4418C2.96757 30.6643 3.36648 30.7756 3.80682 30.7756C4.0483 30.7756 4.2803 30.7424 4.50284 30.6761C4.72538 30.6098 4.92779 30.5116 5.11009 30.3814C5.29474 30.2488 5.45099 30.0866 5.57884 29.8949C5.70904 29.7008 5.80019 29.4782 5.85227 29.2273H6.73295C6.66667 29.599 6.54593 29.9316 6.37074 30.2251C6.19555 30.5187 5.97775 30.7685 5.71733 30.9744C5.45691 31.178 5.16454 31.3331 4.8402 31.4396C4.51823 31.5462 4.17377 31.5994 3.80682 31.5994C3.18655 31.5994 2.63494 31.4479 2.15199 31.1449C1.66903 30.8419 1.28906 30.411 1.01207 29.8523C0.735085 29.2936 0.596591 28.6307 0.596591 27.8636C0.596591 27.0966 0.735085 26.4337 1.01207 25.875C1.28906 25.3163 1.66903 24.8854 2.15199 24.5824C2.63494 24.2794 3.18655 24.1278 3.80682 24.1278C4.17377 24.1278 4.51823 24.1811 4.8402 24.2876C5.16454 24.3942 5.45691 24.5504 5.71733 24.7564C5.97775 24.96 6.19555 25.2086 6.37074 25.5021C6.54593 25.7933 6.66667 26.1259 6.73295 26.5ZM9.64755 31.6278C9.30191 31.6278 8.98822 31.5627 8.7065 31.4325C8.42478 31.3 8.20105 31.1094 8.03533 30.8608C7.86961 30.6098 7.78675 30.3068 7.78675 29.9517C7.78675 29.6392 7.84831 29.3859 7.97141 29.1918C8.09452 28.9953 8.25906 28.8414 8.46502 28.7301C8.67099 28.6188 8.89826 28.536 9.14684 28.4815C9.39779 28.4247 9.64992 28.3797 9.90323 28.3466C10.2347 28.304 10.5034 28.272 10.7093 28.2507C10.9177 28.227 11.0692 28.188 11.1639 28.1335C11.2609 28.0791 11.3095 27.9844 11.3095 27.8494V27.821C11.3095 27.4706 11.2136 27.1984 11.0218 27.0043C10.8324 26.8101 10.5448 26.7131 10.1589 26.7131C9.75882 26.7131 9.44514 26.8007 9.21786 26.9759C8.99059 27.151 8.83079 27.3381 8.73846 27.5369L7.943 27.2528C8.08505 26.9214 8.27444 26.6634 8.51119 26.4787C8.7503 26.2917 9.01071 26.1615 9.29244 26.0881C9.57653 26.0123 9.85588 25.9744 10.1305 25.9744C10.3057 25.9744 10.5069 25.9957 10.7342 26.0384C10.9638 26.0786 11.1852 26.1626 11.3983 26.2905C11.6137 26.4183 11.7924 26.6113 11.9345 26.8693C12.0765 27.1274 12.1475 27.473 12.1475 27.9062V31.5H11.3095V30.7614H11.2669C11.21 30.8797 11.1154 31.0064 10.9828 31.1413C10.8502 31.2763 10.6738 31.3911 10.4537 31.4858C10.2335 31.5805 9.96478 31.6278 9.64755 31.6278ZM9.77539 30.875C10.1068 30.875 10.3862 30.8099 10.6135 30.6797C10.8431 30.5495 11.0159 30.3814 11.1319 30.1754C11.2503 29.9695 11.3095 29.7528 11.3095 29.5256V28.7585C11.274 28.8011 11.1958 28.8402 11.0751 28.8757C10.9567 28.9089 10.8194 28.9384 10.6632 28.9645C10.5093 28.9882 10.359 29.0095 10.2122 29.0284C10.0678 29.045 9.95058 29.0592 9.86062 29.071C9.64281 29.0994 9.43922 29.1456 9.24982 29.2095C9.0628 29.2711 8.91128 29.3646 8.79528 29.4901C8.68164 29.6132 8.62482 29.7812 8.62482 29.9943C8.62482 30.2855 8.73254 30.5057 8.94798 30.6548C9.16578 30.8016 9.44158 30.875 9.77539 30.875ZM17.5408 27.267L16.788 27.4801C16.7406 27.3546 16.6708 27.2327 16.5785 27.1143C16.4885 26.9936 16.3654 26.8942 16.2092 26.8161C16.0529 26.7379 15.8529 26.6989 15.609 26.6989C15.2752 26.6989 14.997 26.7758 14.7745 26.9297C14.5543 27.0812 14.4442 27.2741 14.4442 27.5085C14.4442 27.7169 14.52 27.8814 14.6715 28.0021C14.823 28.1229 15.0598 28.2235 15.3817 28.304L16.1914 28.5028C16.6791 28.6212 17.0425 28.8023 17.2816 29.0462C17.5207 29.2876 17.6403 29.599 17.6403 29.9801C17.6403 30.2926 17.5503 30.572 17.3704 30.8182C17.1928 31.0644 16.9442 31.2585 16.6246 31.4006C16.305 31.5426 15.9334 31.6136 15.5096 31.6136C14.9532 31.6136 14.4928 31.4929 14.1282 31.2514C13.7636 31.0099 13.5328 30.6572 13.4357 30.1932L14.2312 29.9943C14.3069 30.2879 14.4502 30.508 14.6609 30.6548C14.8739 30.8016 15.1521 30.875 15.4954 30.875C15.886 30.875 16.1961 30.7921 16.4258 30.6264C16.6578 30.4583 16.7738 30.2571 16.7738 30.0227C16.7738 29.8333 16.7075 29.6747 16.5749 29.5469C16.4424 29.4167 16.2388 29.3196 15.9641 29.2557L15.055 29.0426C14.5555 28.9242 14.1886 28.7408 13.9542 28.4922C13.7222 28.2412 13.6062 27.9276 13.6062 27.5511C13.6062 27.2434 13.6926 26.9711 13.8654 26.7344C14.0406 26.4976 14.2785 26.3118 14.5792 26.1768C14.8822 26.0419 15.2255 25.9744 15.609 25.9744C16.1488 25.9744 16.5726 26.0928 16.8803 26.3295C17.1905 26.5663 17.4106 26.8788 17.5408 27.267ZM21.1887 31.6136C20.6632 31.6136 20.2098 31.4976 19.8287 31.2656C19.4499 31.0312 19.1575 30.7045 18.9515 30.2855C18.7479 29.8641 18.6461 29.3741 18.6461 28.8153C18.6461 28.2566 18.7479 27.7642 18.9515 27.3381C19.1575 26.9096 19.444 26.5758 19.8109 26.3366C20.1802 26.0952 20.6111 25.9744 21.1035 25.9744C21.3876 25.9744 21.6681 26.0218 21.9451 26.1165C22.2221 26.2112 22.4743 26.3651 22.7015 26.5781C22.9288 26.7888 23.1099 27.0682 23.2449 27.4162C23.3798 27.7642 23.4473 28.1927 23.4473 28.7017V29.0568H19.2427V28.3324H22.595C22.595 28.0246 22.5334 27.75 22.4103 27.5085C22.2896 27.267 22.1168 27.0765 21.8919 26.9368C21.6693 26.7971 21.4065 26.7273 21.1035 26.7273C20.7697 26.7273 20.4809 26.8101 20.237 26.9759C19.9956 27.1392 19.8097 27.3523 19.6795 27.6151C19.5493 27.8778 19.4842 28.1596 19.4842 28.4602V28.9432C19.4842 29.3551 19.5552 29.7043 19.6973 29.9908C19.8417 30.2749 20.0417 30.4915 20.2974 30.6406C20.5531 30.7874 20.8502 30.8608 21.1887 30.8608C21.4089 30.8608 21.6078 30.83 21.7853 30.7685C21.9653 30.7045 22.1203 30.6098 22.2505 30.4844C22.3807 30.3565 22.4814 30.1979 22.5524 30.0085L23.362 30.2358C23.2768 30.5104 23.1336 30.7519 22.9324 30.9602C22.7311 31.1662 22.4825 31.3272 22.1866 31.4432C21.8907 31.5568 21.5581 31.6136 21.1887 31.6136ZM28.3727 28.2188V31.5H27.5346V26.0455H28.3443V26.8977H28.4153C28.5431 26.6207 28.7373 26.3982 28.9977 26.2301C29.2581 26.0597 29.5943 25.9744 30.0062 25.9744C30.3755 25.9744 30.6987 26.0502 30.9757 26.2017C31.2527 26.3509 31.4681 26.5781 31.622 26.8835C31.7759 27.1866 31.8528 27.5701 31.8528 28.0341V31.5H31.0147V28.0909C31.0147 27.6624 30.9035 27.3286 30.6809 27.0895C30.4584 26.848 30.153 26.7273 29.7647 26.7273C29.4972 26.7273 29.2581 26.7853 29.0474 26.9013C28.8391 27.0173 28.6745 27.1866 28.5538 27.4091C28.4331 27.6316 28.3727 27.9015 28.3727 28.2188ZM34.9893 31.6278C34.6437 31.6278 34.33 31.5627 34.0483 31.4325C33.7666 31.3 33.5429 31.1094 33.3771 30.8608C33.2114 30.6098 33.1286 30.3068 33.1286 29.9517C33.1286 29.6392 33.1901 29.3859 33.3132 29.1918C33.4363 28.9953 33.6009 28.8414 33.8068 28.7301C34.0128 28.6188 34.2401 28.536 34.4886 28.4815C34.7396 28.4247 34.9917 28.3797 35.245 28.3466C35.5765 28.304 35.8452 28.272 36.0511 28.2507C36.2595 28.227 36.411 28.188 36.5057 28.1335C36.6027 28.0791 36.6513 27.9844 36.6513 27.8494V27.821C36.6513 27.4706 36.5554 27.1984 36.3636 27.0043C36.1742 26.8101 35.8866 26.7131 35.5007 26.7131C35.1006 26.7131 34.7869 26.8007 34.5597 26.9759C34.3324 27.151 34.1726 27.3381 34.0803 27.5369L33.2848 27.2528C33.4268 26.9214 33.6162 26.6634 33.853 26.4787C34.0921 26.2917 34.3525 26.1615 34.6342 26.0881C34.9183 26.0123 35.1977 25.9744 35.4723 25.9744C35.6475 25.9744 35.8487 25.9957 36.076 26.0384C36.3056 26.0786 36.527 26.1626 36.7401 26.2905C36.9555 26.4183 37.1342 26.6113 37.2763 26.8693C37.4183 27.1274 37.4893 27.473 37.4893 27.9062V31.5H36.6513V30.7614H36.6087C36.5518 30.8797 36.4571 31.0064 36.3246 31.1413C36.192 31.2763 36.0156 31.3911 35.7955 31.4858C35.5753 31.5805 35.3066 31.6278 34.9893 31.6278ZM35.1172 30.875C35.4486 30.875 35.728 30.8099 35.9553 30.6797C36.1849 30.5495 36.3577 30.3814 36.4737 30.1754C36.5921 29.9695 36.6513 29.7528 36.6513 29.5256V28.7585C36.6158 28.8011 36.5376 28.8402 36.4169 28.8757C36.2985 28.9089 36.1612 28.9384 36.005 28.9645C35.8511 28.9882 35.7008 29.0095 35.554 29.0284C35.4096 29.045 35.2924 29.0592 35.2024 29.071C34.9846 29.0994 34.781 29.1456 34.5916 29.2095C34.4046 29.2711 34.2531 29.3646 34.1371 29.4901C34.0234 29.6132 33.9666 29.7812 33.9666 29.9943C33.9666 30.2855 34.0743 30.5057 34.2898 30.6548C34.5076 30.8016 34.7834 30.875 35.1172 30.875ZM39.019 31.5V26.0455H39.8287V26.8977H39.8997C40.0133 26.6065 40.1968 26.3804 40.4501 26.2195C40.7034 26.0561 41.0076 25.9744 41.3627 25.9744C41.7226 25.9744 42.0221 26.0561 42.2612 26.2195C42.5027 26.3804 42.6909 26.6065 42.8258 26.8977H42.8826C43.0223 26.616 43.2318 26.3923 43.5112 26.2266C43.7905 26.0585 44.1255 25.9744 44.5162 25.9744C45.0038 25.9744 45.4028 26.1271 45.7129 26.4325C46.023 26.7356 46.1781 27.2079 46.1781 27.8494V31.5H45.34V27.8494C45.34 27.447 45.2299 27.1593 45.0098 26.9865C44.7896 26.8137 44.5304 26.7273 44.2321 26.7273C43.8485 26.7273 43.5514 26.8433 43.3407 27.0753C43.13 27.3049 43.0247 27.5961 43.0247 27.9489V31.5H42.1724V27.7642C42.1724 27.4541 42.0718 27.2043 41.8706 27.0149C41.6693 26.8232 41.4101 26.7273 41.0929 26.7273C40.8751 26.7273 40.6715 26.7853 40.4821 26.9013C40.295 27.0173 40.1435 27.1783 40.0275 27.3842C39.9139 27.5878 39.8571 27.8234 39.8571 28.0909V31.5H39.019ZM49.9973 31.6136C49.4718 31.6136 49.0184 31.4976 48.6373 31.2656C48.2585 31.0312 47.9661 30.7045 47.7601 30.2855C47.5565 29.8641 47.4547 29.3741 47.4547 28.8153C47.4547 28.2566 47.5565 27.7642 47.7601 27.3381C47.9661 26.9096 48.2525 26.5758 48.6195 26.3366C48.9888 26.0952 49.4197 25.9744 49.9121 25.9744C50.1962 25.9744 50.4767 26.0218 50.7537 26.1165C51.0307 26.2112 51.2828 26.3651 51.5101 26.5781C51.7374 26.7888 51.9185 27.0682 52.0534 27.4162C52.1884 27.7642 52.2559 28.1927 52.2559 28.7017V29.0568H48.0513V28.3324H51.4036C51.4036 28.0246 51.342 27.75 51.2189 27.5085C51.0982 27.267 50.9254 27.0765 50.7005 26.9368C50.4779 26.7971 50.2151 26.7273 49.9121 26.7273C49.5783 26.7273 49.2895 26.8101 49.0456 26.9759C48.8042 27.1392 48.6183 27.3523 48.4881 27.6151C48.3579 27.8778 48.2928 28.1596 48.2928 28.4602V28.9432C48.2928 29.3551 48.3638 29.7043 48.5059 29.9908C48.6503 30.2749 48.8503 30.4915 49.106 30.6406C49.3617 30.7874 49.6588 30.8608 49.9973 30.8608C50.2175 30.8608 50.4164 30.83 50.5939 30.7685C50.7739 30.7045 50.9289 30.6098 51.0591 30.4844C51.1893 30.3565 51.29 30.1979 51.361 30.0085L52.1706 30.2358C52.0854 30.5104 51.9422 30.7519 51.7409 30.9602C51.5397 31.1662 51.2911 31.3272 50.9952 31.4432C50.6993 31.5568 50.3667 31.6136 49.9973 31.6136Z" fill="var(--colors-neutral-neutral-700)"/>
<path d="M61.2 25.5L65 21.7L68.8 25.5H61.2Z" fill="var(--colors-neutral-neutral-800)"/>
<path d="M65 34.3077L61.1923 30.5H68.8077L65 34.3077Z" fill="var(--colors-neutral-neutral-800)"/>
<path d="M508.881 31.5V24.2273H509.761V30.7188H513.142V31.5H508.881ZM515.997 31.6278C515.652 31.6278 515.338 31.5627 515.056 31.4325C514.774 31.3 514.551 31.1094 514.385 30.8608C514.219 30.6098 514.136 30.3068 514.136 29.9517C514.136 29.6392 514.198 29.3859 514.321 29.1918C514.444 28.9953 514.609 28.8414 514.815 28.7301C515.021 28.6188 515.248 28.536 515.496 28.4815C515.747 28.4247 516 28.3797 516.253 28.3466C516.584 28.304 516.853 28.272 517.059 28.2507C517.267 28.227 517.419 28.188 517.513 28.1335C517.611 28.0791 517.659 27.9844 517.659 27.8494V27.821C517.659 27.4706 517.563 27.1984 517.371 27.0043C517.182 26.8101 516.894 26.7131 516.509 26.7131C516.108 26.7131 515.795 26.8007 515.567 26.9759C515.34 27.151 515.18 27.3381 515.088 27.5369L514.293 27.2528C514.435 26.9214 514.624 26.6634 514.861 26.4787C515.1 26.2917 515.36 26.1615 515.642 26.0881C515.926 26.0123 516.205 25.9744 516.48 25.9744C516.655 25.9744 516.857 25.9957 517.084 26.0384C517.313 26.0786 517.535 26.1626 517.748 26.2905C517.963 26.4183 518.142 26.6113 518.284 26.8693C518.426 27.1274 518.497 27.473 518.497 27.9062V31.5H517.659V30.7614H517.616C517.56 30.8797 517.465 31.0064 517.332 31.1413C517.2 31.2763 517.023 31.3911 516.803 31.4858C516.583 31.5805 516.314 31.6278 515.997 31.6278ZM516.125 30.875C516.456 30.875 516.736 30.8099 516.963 30.6797C517.193 30.5495 517.366 30.3814 517.482 30.1754C517.6 29.9695 517.659 29.7528 517.659 29.5256V28.7585C517.624 28.8011 517.545 28.8402 517.425 28.8757C517.306 28.9089 517.169 28.9384 517.013 28.9645C516.859 28.9882 516.709 29.0095 516.562 29.0284C516.417 29.045 516.3 29.0592 516.21 29.071C515.992 29.0994 515.789 29.1456 515.599 29.2095C515.412 29.2711 515.261 29.3646 515.145 29.4901C515.031 29.6132 514.974 29.7812 514.974 29.9943C514.974 30.2855 515.082 30.5057 515.298 30.6548C515.515 30.8016 515.791 30.875 516.125 30.875ZM523.89 27.267L523.138 27.4801C523.09 27.3546 523.02 27.2327 522.928 27.1143C522.838 26.9936 522.715 26.8942 522.559 26.8161C522.403 26.7379 522.202 26.6989 521.959 26.6989C521.625 26.6989 521.347 26.7758 521.124 26.9297C520.904 27.0812 520.794 27.2741 520.794 27.5085C520.794 27.7169 520.87 27.8814 521.021 28.0021C521.173 28.1229 521.409 28.2235 521.731 28.304L522.541 28.5028C523.029 28.6212 523.392 28.8023 523.631 29.0462C523.87 29.2876 523.99 29.599 523.99 29.9801C523.99 30.2926 523.9 30.572 523.72 30.8182C523.542 31.0644 523.294 31.2585 522.974 31.4006C522.655 31.5426 522.283 31.6136 521.859 31.6136C521.303 31.6136 520.842 31.4929 520.478 31.2514C520.113 31.0099 519.882 30.6572 519.785 30.1932L520.581 29.9943C520.657 30.2879 520.8 30.508 521.01 30.6548C521.224 30.8016 521.502 30.875 521.845 30.875C522.236 30.875 522.546 30.7921 522.775 30.6264C523.007 30.4583 523.123 30.2571 523.123 30.0227C523.123 29.8333 523.057 29.6747 522.925 29.5469C522.792 29.4167 522.588 29.3196 522.314 29.2557L521.405 29.0426C520.905 28.9242 520.538 28.7408 520.304 28.4922C520.072 28.2412 519.956 27.9276 519.956 27.5511C519.956 27.2434 520.042 26.9711 520.215 26.7344C520.39 26.4976 520.628 26.3118 520.929 26.1768C521.232 26.0419 521.575 25.9744 521.959 25.9744C522.498 25.9744 522.922 26.0928 523.23 26.3295C523.54 26.5663 523.76 26.8788 523.89 27.267ZM527.624 26.0455V26.7557H524.797V26.0455H527.624ZM525.621 24.7386H526.459V29.9375C526.459 30.1742 526.493 30.3518 526.562 30.4702C526.633 30.5862 526.723 30.6643 526.832 30.7045C526.943 30.7424 527.06 30.7614 527.183 30.7614C527.276 30.7614 527.351 30.7566 527.411 30.7472C527.47 30.7353 527.517 30.7259 527.553 30.7188L527.723 31.4716C527.666 31.4929 527.587 31.5142 527.485 31.5355C527.383 31.5592 527.254 31.571 527.098 31.571C526.861 31.571 526.629 31.5201 526.402 31.4183C526.177 31.3165 525.99 31.1615 525.841 30.9531C525.694 30.7448 525.621 30.482 525.621 30.1648V24.7386ZM531.697 31.5V26.0455H532.506V26.8977H532.577C532.691 26.6065 532.875 26.3804 533.128 26.2195C533.381 26.0561 533.685 25.9744 534.04 25.9744C534.4 25.9744 534.7 26.0561 534.939 26.2195C535.18 26.3804 535.369 26.6065 535.504 26.8977H535.56C535.7 26.616 535.91 26.3923 536.189 26.2266C536.468 26.0585 536.803 25.9744 537.194 25.9744C537.682 25.9744 538.08 26.1271 538.391 26.4325C538.701 26.7356 538.856 27.2079 538.856 27.8494V31.5H538.018V27.8494C538.018 27.447 537.908 27.1593 537.688 26.9865C537.467 26.8137 537.208 26.7273 536.91 26.7273C536.526 26.7273 536.229 26.8433 536.018 27.0753C535.808 27.3049 535.702 27.5961 535.702 27.9489V31.5H534.85V27.7642C534.85 27.4541 534.75 27.2043 534.548 27.0149C534.347 26.8232 534.088 26.7273 533.771 26.7273C533.553 26.7273 533.349 26.7853 533.16 26.9013C532.973 27.0173 532.821 27.1783 532.705 27.3842C532.592 27.5878 532.535 27.8234 532.535 28.0909V31.5H531.697ZM542.604 31.6136C542.112 31.6136 541.68 31.4964 541.308 31.2621C540.939 31.0277 540.65 30.6998 540.441 30.2784C540.235 29.857 540.132 29.3646 540.132 28.8011C540.132 28.233 540.235 27.737 540.441 27.3132C540.65 26.8894 540.939 26.5604 541.308 26.326C541.68 26.0916 542.112 25.9744 542.604 25.9744C543.096 25.9744 543.527 26.0916 543.897 26.326C544.268 26.5604 544.557 26.8894 544.763 27.3132C544.971 27.737 545.076 28.233 545.076 28.8011C545.076 29.3646 544.971 29.857 544.763 30.2784C544.557 30.6998 544.268 31.0277 543.897 31.2621C543.527 31.4964 543.096 31.6136 542.604 31.6136ZM542.604 30.8608C542.978 30.8608 543.286 30.7649 543.527 30.5732C543.769 30.3814 543.948 30.1293 544.064 29.8168C544.18 29.5043 544.238 29.1657 544.238 28.8011C544.238 28.4366 544.18 28.0968 544.064 27.782C543.948 27.4671 543.769 27.2126 543.527 27.0185C543.286 26.8243 542.978 26.7273 542.604 26.7273C542.23 26.7273 541.922 26.8243 541.681 27.0185C541.439 27.2126 541.261 27.4671 541.145 27.782C541.029 28.0968 540.971 28.4366 540.971 28.8011C540.971 29.1657 541.029 29.5043 541.145 29.8168C541.261 30.1293 541.439 30.3814 541.681 30.5732C541.922 30.7649 542.23 30.8608 542.604 30.8608ZM548.415 31.6136C547.96 31.6136 547.559 31.4988 547.211 31.2692C546.863 31.0372 546.59 30.7105 546.394 30.2891C546.198 29.8653 546.099 29.3646 546.099 28.7869C546.099 28.214 546.198 27.7169 546.394 27.2955C546.59 26.8741 546.864 26.5485 547.214 26.3189C547.565 26.0893 547.97 25.9744 548.429 25.9744C548.784 25.9744 549.064 26.0336 549.27 26.152C549.479 26.268 549.637 26.4006 549.746 26.5497C549.858 26.6965 549.944 26.8172 550.006 26.9119H550.077V24.2273H550.915V31.5H550.105V30.6619H550.006C549.944 30.7614 549.856 30.8868 549.743 31.0384C549.629 31.1875 549.467 31.3213 549.256 31.4396C549.046 31.5556 548.765 31.6136 548.415 31.6136ZM548.528 30.8608C548.864 30.8608 549.148 30.7732 549.381 30.598C549.613 30.4205 549.789 30.1754 549.91 29.8629C550.03 29.5481 550.091 29.1847 550.091 28.7727C550.091 28.3655 550.032 28.0092 549.913 27.7038C549.795 27.3961 549.62 27.157 549.388 26.9865C549.156 26.8137 548.869 26.7273 548.528 26.7273C548.173 26.7273 547.877 26.8184 547.64 27.0007C547.406 27.1806 547.23 27.4257 547.111 27.7358C546.995 28.0436 546.937 28.3892 546.937 28.7727C546.937 29.161 546.997 29.5137 547.115 29.831C547.236 30.1458 547.413 30.3968 547.648 30.5838C547.884 30.7685 548.178 30.8608 548.528 30.8608ZM552.566 31.5V26.0455H553.404V31.5H552.566ZM552.992 25.1364C552.829 25.1364 552.688 25.0807 552.569 24.9695C552.453 24.8582 552.395 24.7244 552.395 24.5682C552.395 24.4119 552.453 24.2782 552.569 24.1669C552.688 24.0556 552.829 24 552.992 24C553.155 24 553.295 24.0556 553.411 24.1669C553.529 24.2782 553.589 24.4119 553.589 24.5682C553.589 24.7244 553.529 24.8582 553.411 24.9695C553.295 25.0807 553.155 25.1364 552.992 25.1364ZM557.368 26.0455V26.7557H554.428V26.0455H557.368ZM555.308 31.5V25.2926C555.308 24.9801 555.382 24.7197 555.528 24.5114C555.675 24.303 555.866 24.1468 556.1 24.0426C556.335 23.9384 556.582 23.8864 556.842 23.8864C557.048 23.8864 557.216 23.9029 557.347 23.9361C557.477 23.9692 557.574 24 557.638 24.0284L557.396 24.7528C557.354 24.7386 557.295 24.7209 557.219 24.6996C557.145 24.6783 557.048 24.6676 556.928 24.6676C556.651 24.6676 556.451 24.7375 556.327 24.8771C556.207 25.0168 556.146 25.2216 556.146 25.4915V31.5H555.308ZM558.542 31.5V26.0455H559.381V31.5H558.542ZM558.969 25.1364C558.805 25.1364 558.664 25.0807 558.546 24.9695C558.43 24.8582 558.372 24.7244 558.372 24.5682C558.372 24.4119 558.43 24.2782 558.546 24.1669C558.664 24.0556 558.805 24 558.969 24C559.132 24 559.272 24.0556 559.388 24.1669C559.506 24.2782 559.565 24.4119 559.565 24.5682C559.565 24.7244 559.506 24.8582 559.388 24.9695C559.272 25.0807 559.132 25.1364 558.969 25.1364ZM563.202 31.6136C562.677 31.6136 562.223 31.4976 561.842 31.2656C561.464 31.0312 561.171 30.7045 560.965 30.2855C560.762 29.8641 560.66 29.3741 560.66 28.8153C560.66 28.2566 560.762 27.7642 560.965 27.3381C561.171 26.9096 561.458 26.5758 561.825 26.3366C562.194 26.0952 562.625 25.9744 563.117 25.9744C563.401 25.9744 563.682 26.0218 563.959 26.1165C564.236 26.2112 564.488 26.3651 564.715 26.5781C564.942 26.7888 565.124 27.0682 565.259 27.4162C565.393 27.7642 565.461 28.1927 565.461 28.7017V29.0568H561.256V28.3324H564.609C564.609 28.0246 564.547 27.75 564.424 27.5085C564.303 27.267 564.13 27.0765 563.906 26.9368C563.683 26.7971 563.42 26.7273 563.117 26.7273C562.783 26.7273 562.495 26.8101 562.251 26.9759C562.009 27.1392 561.823 27.3523 561.693 27.6151C561.563 27.8778 561.498 28.1596 561.498 28.4602V28.9432C561.498 29.3551 561.569 29.7043 561.711 29.9908C561.855 30.2749 562.055 30.4915 562.311 30.6406C562.567 30.7874 562.864 30.8608 563.202 30.8608C563.423 30.8608 563.621 30.83 563.799 30.7685C563.979 30.7045 564.134 30.6098 564.264 30.4844C564.394 30.3565 564.495 30.1979 564.566 30.0085L565.376 30.2358C565.29 30.5104 565.147 30.7519 564.946 30.9602C564.745 31.1662 564.496 31.3272 564.2 31.4432C563.904 31.5568 563.572 31.6136 563.202 31.6136ZM568.795 31.6136C568.341 31.6136 567.94 31.4988 567.592 31.2692C567.244 31.0372 566.971 30.7105 566.775 30.2891C566.578 29.8653 566.48 29.3646 566.48 28.7869C566.48 28.214 566.578 27.7169 566.775 27.2955C566.971 26.8741 567.245 26.5485 567.595 26.3189C567.946 26.0893 568.35 25.9744 568.81 25.9744C569.165 25.9744 569.445 26.0336 569.651 26.152C569.86 26.268 570.018 26.4006 570.127 26.5497C570.238 26.6965 570.325 26.8172 570.386 26.9119H570.457V24.2273H571.295V31.5H570.486V30.6619H570.386C570.325 30.7614 570.237 30.8868 570.124 31.0384C570.01 31.1875 569.848 31.3213 569.637 31.4396C569.426 31.5556 569.146 31.6136 568.795 31.6136ZM568.909 30.8608C569.245 30.8608 569.529 30.7732 569.761 30.598C569.993 30.4205 570.17 30.1754 570.29 29.8629C570.411 29.5481 570.472 29.1847 570.472 28.7727C570.472 28.3655 570.412 28.0092 570.294 27.7038C570.176 27.3961 570 27.157 569.768 26.9865C569.536 26.8137 569.25 26.7273 568.909 26.7273C568.554 26.7273 568.258 26.8184 568.021 27.0007C567.787 27.1806 567.611 27.4257 567.492 27.7358C567.376 28.0436 567.318 28.3892 567.318 28.7727C567.318 29.161 567.377 29.5137 567.496 29.831C567.616 30.1458 567.794 30.3968 568.028 30.5838C568.265 30.7685 568.559 30.8608 568.909 30.8608ZM575.873 31.5V24.2273H576.711V26.9119H576.782C576.844 26.8172 576.929 26.6965 577.038 26.5497C577.149 26.4006 577.308 26.268 577.513 26.152C577.722 26.0336 578.004 25.9744 578.359 25.9744C578.818 25.9744 579.223 26.0893 579.573 26.3189C579.924 26.5485 580.197 26.8741 580.393 27.2955C580.59 27.7169 580.688 28.214 580.688 28.7869C580.688 29.3646 580.59 29.8653 580.393 30.2891C580.197 30.7105 579.925 31.0372 579.577 31.2692C579.229 31.4988 578.827 31.6136 578.373 31.6136C578.022 31.6136 577.742 31.5556 577.531 31.4396C577.321 31.3213 577.158 31.1875 577.045 31.0384C576.931 30.8868 576.844 30.7614 576.782 30.6619H576.683V31.5H575.873ZM576.697 28.7727C576.697 29.1847 576.757 29.5481 576.878 29.8629C576.999 30.1754 577.175 30.4205 577.407 30.598C577.639 30.7732 577.923 30.8608 578.259 30.8608C578.61 30.8608 578.902 30.7685 579.136 30.5838C579.373 30.3968 579.551 30.1458 579.669 29.831C579.79 29.5137 579.85 29.161 579.85 28.7727C579.85 28.3892 579.791 28.0436 579.673 27.7358C579.557 27.4257 579.38 27.1806 579.143 27.0007C578.909 26.8184 578.614 26.7273 578.259 26.7273C577.918 26.7273 577.632 26.8137 577.4 26.9865C577.168 27.157 576.993 27.3961 576.874 27.7038C576.756 28.0092 576.697 28.3655 576.697 28.7727ZM582.315 33.5455C582.173 33.5455 582.046 33.5336 581.935 33.5099C581.823 33.4886 581.746 33.4673 581.704 33.446L581.917 32.7074C582.121 32.7595 582.3 32.7784 582.457 32.7642C582.613 32.75 582.751 32.6802 582.872 32.5547C582.995 32.4316 583.108 32.2315 583.21 31.9545L583.366 31.5284L581.349 26.0455H582.258L583.763 30.392H583.82L585.326 26.0455H586.235L583.92 32.2955C583.816 32.5772 583.687 32.8104 583.533 32.995C583.379 33.1821 583.2 33.3205 582.996 33.4105C582.795 33.5005 582.568 33.5455 582.315 33.5455Z" fill="var(--colors-neutral-neutral-700)"/>
<path d="M595.2 25.5L599 21.7L602.8 25.5H595.2Z" fill="var(--colors-neutral-neutral-800)"/>
<path d="M599 34.3077L595.192 30.5H602.808L599 34.3077Z" fill="var(--colors-neutral-neutral-800)"/>
<path d="M876.881 31.5V24.2273H877.761V30.7188H881.142V31.5H876.881ZM883.997 31.6278C883.652 31.6278 883.338 31.5627 883.056 31.4325C882.774 31.3 882.551 31.1094 882.385 30.8608C882.219 30.6098 882.136 30.3068 882.136 29.9517C882.136 29.6392 882.198 29.3859 882.321 29.1918C882.444 28.9953 882.609 28.8414 882.815 28.7301C883.021 28.6188 883.248 28.536 883.496 28.4815C883.747 28.4247 884 28.3797 884.253 28.3466C884.584 28.304 884.853 28.272 885.059 28.2507C885.267 28.227 885.419 28.188 885.513 28.1335C885.611 28.0791 885.659 27.9844 885.659 27.8494V27.821C885.659 27.4706 885.563 27.1984 885.371 27.0043C885.182 26.8101 884.894 26.7131 884.509 26.7131C884.108 26.7131 883.795 26.8007 883.567 26.9759C883.34 27.151 883.18 27.3381 883.088 27.5369L882.293 27.2528C882.435 26.9214 882.624 26.6634 882.861 26.4787C883.1 26.2917 883.36 26.1615 883.642 26.0881C883.926 26.0123 884.205 25.9744 884.48 25.9744C884.655 25.9744 884.857 25.9957 885.084 26.0384C885.313 26.0786 885.535 26.1626 885.748 26.2905C885.963 26.4183 886.142 26.6113 886.284 26.8693C886.426 27.1274 886.497 27.473 886.497 27.9062V31.5H885.659V30.7614H885.616C885.56 30.8797 885.465 31.0064 885.332 31.1413C885.2 31.2763 885.023 31.3911 884.803 31.4858C884.583 31.5805 884.314 31.6278 883.997 31.6278ZM884.125 30.875C884.456 30.875 884.736 30.8099 884.963 30.6797C885.193 30.5495 885.366 30.3814 885.482 30.1754C885.6 29.9695 885.659 29.7528 885.659 29.5256V28.7585C885.624 28.8011 885.545 28.8402 885.425 28.8757C885.306 28.9089 885.169 28.9384 885.013 28.9645C884.859 28.9882 884.709 29.0095 884.562 29.0284C884.417 29.045 884.3 29.0592 884.21 29.071C883.992 29.0994 883.789 29.1456 883.599 29.2095C883.412 29.2711 883.261 29.3646 883.145 29.4901C883.031 29.6132 882.974 29.7812 882.974 29.9943C882.974 30.2855 883.082 30.5057 883.298 30.6548C883.515 30.8016 883.791 30.875 884.125 30.875ZM891.89 27.267L891.138 27.4801C891.09 27.3546 891.02 27.2327 890.928 27.1143C890.838 26.9936 890.715 26.8942 890.559 26.8161C890.403 26.7379 890.202 26.6989 889.959 26.6989C889.625 26.6989 889.347 26.7758 889.124 26.9297C888.904 27.0812 888.794 27.2741 888.794 27.5085C888.794 27.7169 888.87 27.8814 889.021 28.0021C889.173 28.1229 889.409 28.2235 889.731 28.304L890.541 28.5028C891.029 28.6212 891.392 28.8023 891.631 29.0462C891.87 29.2876 891.99 29.599 891.99 29.9801C891.99 30.2926 891.9 30.572 891.72 30.8182C891.542 31.0644 891.294 31.2585 890.974 31.4006C890.655 31.5426 890.283 31.6136 889.859 31.6136C889.303 31.6136 888.842 31.4929 888.478 31.2514C888.113 31.0099 887.882 30.6572 887.785 30.1932L888.581 29.9943C888.657 30.2879 888.8 30.508 889.01 30.6548C889.224 30.8016 889.502 30.875 889.845 30.875C890.236 30.875 890.546 30.7921 890.775 30.6264C891.007 30.4583 891.123 30.2571 891.123 30.0227C891.123 29.8333 891.057 29.6747 890.925 29.5469C890.792 29.4167 890.588 29.3196 890.314 29.2557L889.405 29.0426C888.905 28.9242 888.538 28.7408 888.304 28.4922C888.072 28.2412 887.956 27.9276 887.956 27.5511C887.956 27.2434 888.042 26.9711 888.215 26.7344C888.39 26.4976 888.628 26.3118 888.929 26.1768C889.232 26.0419 889.575 25.9744 889.959 25.9744C890.498 25.9744 890.922 26.0928 891.23 26.3295C891.54 26.5663 891.76 26.8788 891.89 27.267ZM895.624 26.0455V26.7557H892.797V26.0455H895.624ZM893.621 24.7386H894.459V29.9375C894.459 30.1742 894.493 30.3518 894.562 30.4702C894.633 30.5862 894.723 30.6643 894.832 30.7045C894.943 30.7424 895.06 30.7614 895.183 30.7614C895.276 30.7614 895.351 30.7566 895.411 30.7472C895.47 30.7353 895.517 30.7259 895.553 30.7188L895.723 31.4716C895.666 31.4929 895.587 31.5142 895.485 31.5355C895.383 31.5592 895.254 31.571 895.098 31.571C894.861 31.571 894.629 31.5201 894.402 31.4183C894.177 31.3165 893.99 31.1615 893.841 30.9531C893.694 30.7448 893.621 30.482 893.621 30.1648V24.7386ZM899.697 31.5V26.0455H900.506V26.8977H900.577C900.691 26.6065 900.875 26.3804 901.128 26.2195C901.381 26.0561 901.685 25.9744 902.04 25.9744C902.4 25.9744 902.7 26.0561 902.939 26.2195C903.18 26.3804 903.369 26.6065 903.504 26.8977H903.56C903.7 26.616 903.91 26.3923 904.189 26.2266C904.468 26.0585 904.803 25.9744 905.194 25.9744C905.682 25.9744 906.08 26.1271 906.391 26.4325C906.701 26.7356 906.856 27.2079 906.856 27.8494V31.5H906.018V27.8494C906.018 27.447 905.908 27.1593 905.688 26.9865C905.467 26.8137 905.208 26.7273 904.91 26.7273C904.526 26.7273 904.229 26.8433 904.018 27.0753C903.808 27.3049 903.702 27.5961 903.702 27.9489V31.5H902.85V27.7642C902.85 27.4541 902.75 27.2043 902.548 27.0149C902.347 26.8232 902.088 26.7273 901.771 26.7273C901.553 26.7273 901.349 26.7853 901.16 26.9013C900.973 27.0173 900.821 27.1783 900.705 27.3842C900.592 27.5878 900.535 27.8234 900.535 28.0909V31.5H899.697ZM910.604 31.6136C910.112 31.6136 909.68 31.4964 909.308 31.2621C908.939 31.0277 908.65 30.6998 908.441 30.2784C908.235 29.857 908.132 29.3646 908.132 28.8011C908.132 28.233 908.235 27.737 908.441 27.3132C908.65 26.8894 908.939 26.5604 909.308 26.326C909.68 26.0916 910.112 25.9744 910.604 25.9744C911.096 25.9744 911.527 26.0916 911.897 26.326C912.268 26.5604 912.557 26.8894 912.763 27.3132C912.971 27.737 913.076 28.233 913.076 28.8011C913.076 29.3646 912.971 29.857 912.763 30.2784C912.557 30.6998 912.268 31.0277 911.897 31.2621C911.527 31.4964 911.096 31.6136 910.604 31.6136ZM910.604 30.8608C910.978 30.8608 911.286 30.7649 911.527 30.5732C911.769 30.3814 911.948 30.1293 912.064 29.8168C912.18 29.5043 912.238 29.1657 912.238 28.8011C912.238 28.4366 912.18 28.0968 912.064 27.782C911.948 27.4671 911.769 27.2126 911.527 27.0185C911.286 26.8243 910.978 26.7273 910.604 26.7273C910.23 26.7273 909.922 26.8243 909.681 27.0185C909.439 27.2126 909.261 27.4671 909.145 27.782C909.029 28.0968 908.971 28.4366 908.971 28.8011C908.971 29.1657 909.029 29.5043 909.145 29.8168C909.261 30.1293 909.439 30.3814 909.681 30.5732C909.922 30.7649 910.23 30.8608 910.604 30.8608ZM916.415 31.6136C915.96 31.6136 915.559 31.4988 915.211 31.2692C914.863 31.0372 914.59 30.7105 914.394 30.2891C914.198 29.8653 914.099 29.3646 914.099 28.7869C914.099 28.214 914.198 27.7169 914.394 27.2955C914.59 26.8741 914.864 26.5485 915.214 26.3189C915.565 26.0893 915.97 25.9744 916.429 25.9744C916.784 25.9744 917.064 26.0336 917.27 26.152C917.479 26.268 917.637 26.4006 917.746 26.5497C917.858 26.6965 917.944 26.8172 918.006 26.9119H918.077V24.2273H918.915V31.5H918.105V30.6619H918.006C917.944 30.7614 917.856 30.8868 917.743 31.0384C917.629 31.1875 917.467 31.3213 917.256 31.4396C917.046 31.5556 916.765 31.6136 916.415 31.6136ZM916.528 30.8608C916.864 30.8608 917.148 30.7732 917.381 30.598C917.613 30.4205 917.789 30.1754 917.91 29.8629C918.03 29.5481 918.091 29.1847 918.091 28.7727C918.091 28.3655 918.032 28.0092 917.913 27.7038C917.795 27.3961 917.62 27.157 917.388 26.9865C917.156 26.8137 916.869 26.7273 916.528 26.7273C916.173 26.7273 915.877 26.8184 915.64 27.0007C915.406 27.1806 915.23 27.4257 915.111 27.7358C914.995 28.0436 914.937 28.3892 914.937 28.7727C914.937 29.161 914.997 29.5137 915.115 29.831C915.236 30.1458 915.413 30.3968 915.648 30.5838C915.884 30.7685 916.178 30.8608 916.528 30.8608ZM920.566 31.5V26.0455H921.404V31.5H920.566ZM920.992 25.1364C920.829 25.1364 920.688 25.0807 920.569 24.9695C920.453 24.8582 920.395 24.7244 920.395 24.5682C920.395 24.4119 920.453 24.2782 920.569 24.1669C920.688 24.0556 920.829 24 920.992 24C921.155 24 921.295 24.0556 921.411 24.1669C921.529 24.2782 921.589 24.4119 921.589 24.5682C921.589 24.7244 921.529 24.8582 921.411 24.9695C921.295 25.0807 921.155 25.1364 920.992 25.1364ZM925.368 26.0455V26.7557H922.428V26.0455H925.368ZM923.308 31.5V25.2926C923.308 24.9801 923.382 24.7197 923.528 24.5114C923.675 24.303 923.866 24.1468 924.1 24.0426C924.335 23.9384 924.582 23.8864 924.842 23.8864C925.048 23.8864 925.216 23.9029 925.347 23.9361C925.477 23.9692 925.574 24 925.638 24.0284L925.396 24.7528C925.354 24.7386 925.295 24.7209 925.219 24.6996C925.145 24.6783 925.048 24.6676 924.928 24.6676C924.651 24.6676 924.451 24.7375 924.327 24.8771C924.207 25.0168 924.146 25.2216 924.146 25.4915V31.5H923.308ZM926.542 31.5V26.0455H927.381V31.5H926.542ZM926.969 25.1364C926.805 25.1364 926.664 25.0807 926.546 24.9695C926.43 24.8582 926.372 24.7244 926.372 24.5682C926.372 24.4119 926.43 24.2782 926.546 24.1669C926.664 24.0556 926.805 24 926.969 24C927.132 24 927.272 24.0556 927.388 24.1669C927.506 24.2782 927.565 24.4119 927.565 24.5682C927.565 24.7244 927.506 24.8582 927.388 24.9695C927.272 25.0807 927.132 25.1364 926.969 25.1364ZM931.202 31.6136C930.677 31.6136 930.223 31.4976 929.842 31.2656C929.464 31.0312 929.171 30.7045 928.965 30.2855C928.762 29.8641 928.66 29.3741 928.66 28.8153C928.66 28.2566 928.762 27.7642 928.965 27.3381C929.171 26.9096 929.458 26.5758 929.825 26.3366C930.194 26.0952 930.625 25.9744 931.117 25.9744C931.401 25.9744 931.682 26.0218 931.959 26.1165C932.236 26.2112 932.488 26.3651 932.715 26.5781C932.942 26.7888 933.124 27.0682 933.259 27.4162C933.393 27.7642 933.461 28.1927 933.461 28.7017V29.0568H929.256V28.3324H932.609C932.609 28.0246 932.547 27.75 932.424 27.5085C932.303 27.267 932.13 27.0765 931.906 26.9368C931.683 26.7971 931.42 26.7273 931.117 26.7273C930.783 26.7273 930.495 26.8101 930.251 26.9759C930.009 27.1392 929.823 27.3523 929.693 27.6151C929.563 27.8778 929.498 28.1596 929.498 28.4602V28.9432C929.498 29.3551 929.569 29.7043 929.711 29.9908C929.855 30.2749 930.055 30.4915 930.311 30.6406C930.567 30.7874 930.864 30.8608 931.202 30.8608C931.423 30.8608 931.621 30.83 931.799 30.7685C931.979 30.7045 932.134 30.6098 932.264 30.4844C932.394 30.3565 932.495 30.1979 932.566 30.0085L933.376 30.2358C933.29 30.5104 933.147 30.7519 932.946 30.9602C932.745 31.1662 932.496 31.3272 932.2 31.4432C931.904 31.5568 931.572 31.6136 931.202 31.6136ZM936.795 31.6136C936.341 31.6136 935.94 31.4988 935.592 31.2692C935.244 31.0372 934.971 30.7105 934.775 30.2891C934.578 29.8653 934.48 29.3646 934.48 28.7869C934.48 28.214 934.578 27.7169 934.775 27.2955C934.971 26.8741 935.245 26.5485 935.595 26.3189C935.946 26.0893 936.35 25.9744 936.81 25.9744C937.165 25.9744 937.445 26.0336 937.651 26.152C937.86 26.268 938.018 26.4006 938.127 26.5497C938.238 26.6965 938.325 26.8172 938.386 26.9119H938.457V24.2273H939.295V31.5H938.486V30.6619H938.386C938.325 30.7614 938.237 30.8868 938.124 31.0384C938.01 31.1875 937.848 31.3213 937.637 31.4396C937.426 31.5556 937.146 31.6136 936.795 31.6136ZM936.909 30.8608C937.245 30.8608 937.529 30.7732 937.761 30.598C937.993 30.4205 938.17 30.1754 938.29 29.8629C938.411 29.5481 938.472 29.1847 938.472 28.7727C938.472 28.3655 938.412 28.0092 938.294 27.7038C938.176 27.3961 938 27.157 937.768 26.9865C937.536 26.8137 937.25 26.7273 936.909 26.7273C936.554 26.7273 936.258 26.8184 936.021 27.0007C935.787 27.1806 935.611 27.4257 935.492 27.7358C935.376 28.0436 935.318 28.3892 935.318 28.7727C935.318 29.161 935.377 29.5137 935.496 29.831C935.616 30.1458 935.794 30.3968 936.028 30.5838C936.265 30.7685 936.559 30.8608 936.909 30.8608Z" fill="var(--colors-neutral-neutral-700)"/>
<path d="M949.2 25.5L953 21.7L956.8 25.5H949.2Z" fill="var(--colors-neutral-neutral-800)"/>
<path d="M953 34.3077L949.192 30.5H956.808L953 34.3077Z" fill="var(--colors-neutral-neutral-800)"/>
<path d="M1090.73 26.5H1089.85C1089.8 26.2467 1089.71 26.0241 1089.58 25.8324C1089.45 25.6406 1089.29 25.4796 1089.11 25.3494C1088.93 25.2169 1088.73 25.1174 1088.5 25.0511C1088.28 24.9848 1088.05 24.9517 1087.81 24.9517C1087.37 24.9517 1086.97 25.063 1086.61 25.2855C1086.25 25.508 1085.97 25.8359 1085.76 26.2692C1085.55 26.7024 1085.45 27.2339 1085.45 27.8636C1085.45 28.4934 1085.55 29.0249 1085.76 29.4581C1085.97 29.8913 1086.25 30.2192 1086.61 30.4418C1086.97 30.6643 1087.37 30.7756 1087.81 30.7756C1088.05 30.7756 1088.28 30.7424 1088.5 30.6761C1088.73 30.6098 1088.93 30.5116 1089.11 30.3814C1089.29 30.2488 1089.45 30.0866 1089.58 29.8949C1089.71 29.7008 1089.8 29.4782 1089.85 29.2273H1090.73C1090.67 29.599 1090.55 29.9316 1090.37 30.2251C1090.2 30.5187 1089.98 30.7685 1089.72 30.9744C1089.46 31.178 1089.16 31.3331 1088.84 31.4396C1088.52 31.5462 1088.17 31.5994 1087.81 31.5994C1087.19 31.5994 1086.63 31.4479 1086.15 31.1449C1085.67 30.8419 1085.29 30.411 1085.01 29.8523C1084.74 29.2936 1084.6 28.6307 1084.6 27.8636C1084.6 27.0966 1084.74 26.4337 1085.01 25.875C1085.29 25.3163 1085.67 24.8854 1086.15 24.5824C1086.63 24.2794 1087.19 24.1278 1087.81 24.1278C1088.17 24.1278 1088.52 24.1811 1088.84 24.2876C1089.16 24.3942 1089.46 24.5504 1089.72 24.7564C1089.98 24.96 1090.2 25.2086 1090.37 25.5021C1090.55 25.7933 1090.67 26.1259 1090.73 26.5ZM1092.04 31.5V26.0455H1092.85V26.8693H1092.91C1093.01 26.5994 1093.19 26.3804 1093.45 26.2124C1093.71 26.0443 1094 25.9602 1094.33 25.9602C1094.39 25.9602 1094.47 25.9614 1094.56 25.9638C1094.65 25.9661 1094.72 25.9697 1094.77 25.9744V26.8267C1094.74 26.8196 1094.68 26.8089 1094.57 26.7947C1094.47 26.7782 1094.37 26.7699 1094.26 26.7699C1093.99 26.7699 1093.76 26.8255 1093.55 26.9368C1093.34 27.0457 1093.18 27.1972 1093.06 27.3913C1092.94 27.5831 1092.88 27.8021 1092.88 28.0483V31.5H1092.04ZM1097.88 31.6136C1097.36 31.6136 1096.91 31.4976 1096.52 31.2656C1096.15 31.0312 1095.85 30.7045 1095.65 30.2855C1095.44 29.8641 1095.34 29.3741 1095.34 28.8153C1095.34 28.2566 1095.44 27.7642 1095.65 27.3381C1095.85 26.9096 1096.14 26.5758 1096.51 26.3366C1096.88 26.0952 1097.31 25.9744 1097.8 25.9744C1098.08 25.9744 1098.36 26.0218 1098.64 26.1165C1098.92 26.2112 1099.17 26.3651 1099.4 26.5781C1099.62 26.7888 1099.81 27.0682 1099.94 27.4162C1100.08 27.7642 1100.14 28.1927 1100.14 28.7017V29.0568H1095.94V28.3324H1099.29C1099.29 28.0246 1099.23 27.75 1099.11 27.5085C1098.98 27.267 1098.81 27.0765 1098.59 26.9368C1098.36 26.7971 1098.1 26.7273 1097.8 26.7273C1097.47 26.7273 1097.18 26.8101 1096.93 26.9759C1096.69 27.1392 1096.51 27.3523 1096.37 27.6151C1096.24 27.8778 1096.18 28.1596 1096.18 28.4602V28.9432C1096.18 29.3551 1096.25 29.7043 1096.39 29.9908C1096.54 30.2749 1096.74 30.4915 1096.99 30.6406C1097.25 30.7874 1097.55 30.8608 1097.88 30.8608C1098.1 30.8608 1098.3 30.83 1098.48 30.7685C1098.66 30.7045 1098.82 30.6098 1098.95 30.4844C1099.08 30.3565 1099.18 30.1979 1099.25 30.0085L1100.06 30.2358C1099.97 30.5104 1099.83 30.7519 1099.63 30.9602C1099.43 31.1662 1099.18 31.3272 1098.88 31.4432C1098.59 31.5568 1098.25 31.6136 1097.88 31.6136ZM1103.02 31.6278C1102.68 31.6278 1102.36 31.5627 1102.08 31.4325C1101.8 31.3 1101.58 31.1094 1101.41 30.8608C1101.24 30.6098 1101.16 30.3068 1101.16 29.9517C1101.16 29.6392 1101.22 29.3859 1101.35 29.1918C1101.47 28.9953 1101.63 28.8414 1101.84 28.7301C1102.05 28.6188 1102.27 28.536 1102.52 28.4815C1102.77 28.4247 1103.02 28.3797 1103.28 28.3466C1103.61 28.304 1103.88 28.272 1104.08 28.2507C1104.29 28.227 1104.44 28.188 1104.54 28.1335C1104.64 28.0791 1104.68 27.9844 1104.68 27.8494V27.821C1104.68 27.4706 1104.59 27.1984 1104.4 27.0043C1104.21 26.8101 1103.92 26.7131 1103.53 26.7131C1103.13 26.7131 1102.82 26.8007 1102.59 26.9759C1102.37 27.151 1102.21 27.3381 1102.11 27.5369L1101.32 27.2528C1101.46 26.9214 1101.65 26.6634 1101.89 26.4787C1102.13 26.2917 1102.39 26.1615 1102.67 26.0881C1102.95 26.0123 1103.23 25.9744 1103.51 25.9744C1103.68 25.9744 1103.88 25.9957 1104.11 26.0384C1104.34 26.0786 1104.56 26.1626 1104.77 26.2905C1104.99 26.4183 1105.17 26.6113 1105.31 26.8693C1105.45 27.1274 1105.52 27.473 1105.52 27.9062V31.5H1104.68V30.7614H1104.64C1104.59 30.8797 1104.49 31.0064 1104.36 31.1413C1104.23 31.2763 1104.05 31.3911 1103.83 31.4858C1103.61 31.5805 1103.34 31.6278 1103.02 31.6278ZM1103.15 30.875C1103.48 30.875 1103.76 30.8099 1103.99 30.6797C1104.22 30.5495 1104.39 30.3814 1104.51 30.1754C1104.63 29.9695 1104.68 29.7528 1104.68 29.5256V28.7585C1104.65 28.8011 1104.57 28.8402 1104.45 28.8757C1104.33 28.9089 1104.19 28.9384 1104.04 28.9645C1103.88 28.9882 1103.73 29.0095 1103.59 29.0284C1103.44 29.045 1103.33 29.0592 1103.24 29.071C1103.02 29.0994 1102.81 29.1456 1102.62 29.2095C1102.44 29.2711 1102.29 29.3646 1102.17 29.4901C1102.06 29.6132 1102 29.7812 1102 29.9943C1102 30.2855 1102.11 30.5057 1102.32 30.6548C1102.54 30.8016 1102.82 30.875 1103.15 30.875ZM1109.42 26.0455V26.7557H1106.6V26.0455H1109.42ZM1107.42 24.7386H1108.26V29.9375C1108.26 30.1742 1108.29 30.3518 1108.36 30.4702C1108.43 30.5862 1108.52 30.6643 1108.63 30.7045C1108.74 30.7424 1108.86 30.7614 1108.98 30.7614C1109.08 30.7614 1109.15 30.7566 1109.21 30.7472C1109.27 30.7353 1109.32 30.7259 1109.35 30.7188L1109.52 31.4716C1109.47 31.4929 1109.39 31.5142 1109.29 31.5355C1109.18 31.5592 1109.06 31.571 1108.9 31.571C1108.66 31.571 1108.43 31.5201 1108.2 31.4183C1107.98 31.3165 1107.79 31.1615 1107.64 30.9531C1107.49 30.7448 1107.42 30.482 1107.42 30.1648V24.7386ZM1112.91 31.6136C1112.39 31.6136 1111.93 31.4976 1111.55 31.2656C1111.17 31.0312 1110.88 30.7045 1110.68 30.2855C1110.47 29.8641 1110.37 29.3741 1110.37 28.8153C1110.37 28.2566 1110.47 27.7642 1110.68 27.3381C1110.88 26.9096 1111.17 26.5758 1111.54 26.3366C1111.9 26.0952 1112.34 25.9744 1112.83 25.9744C1113.11 25.9744 1113.39 26.0218 1113.67 26.1165C1113.95 26.2112 1114.2 26.3651 1114.43 26.5781C1114.65 26.7888 1114.83 27.0682 1114.97 27.4162C1115.1 27.7642 1115.17 28.1927 1115.17 28.7017V29.0568H1110.97V28.3324H1114.32C1114.32 28.0246 1114.26 27.75 1114.13 27.5085C1114.01 27.267 1113.84 27.0765 1113.62 26.9368C1113.39 26.7971 1113.13 26.7273 1112.83 26.7273C1112.49 26.7273 1112.21 26.8101 1111.96 26.9759C1111.72 27.1392 1111.53 27.3523 1111.4 27.6151C1111.27 27.8778 1111.21 28.1596 1111.21 28.4602V28.9432C1111.21 29.3551 1111.28 29.7043 1111.42 29.9908C1111.57 30.2749 1111.77 30.4915 1112.02 30.6406C1112.28 30.7874 1112.57 30.8608 1112.91 30.8608C1113.13 30.8608 1113.33 30.83 1113.51 30.7685C1113.69 30.7045 1113.84 30.6098 1113.98 30.4844C1114.11 30.3565 1114.21 30.1979 1114.28 30.0085L1115.09 30.2358C1115 30.5104 1114.86 30.7519 1114.66 30.9602C1114.46 31.1662 1114.21 31.3272 1113.91 31.4432C1113.62 31.5568 1113.28 31.6136 1112.91 31.6136ZM1118.51 31.6136C1118.05 31.6136 1117.65 31.4988 1117.3 31.2692C1116.95 31.0372 1116.68 30.7105 1116.49 30.2891C1116.29 29.8653 1116.19 29.3646 1116.19 28.7869C1116.19 28.214 1116.29 27.7169 1116.49 27.2955C1116.68 26.8741 1116.96 26.5485 1117.31 26.3189C1117.66 26.0893 1118.06 25.9744 1118.52 25.9744C1118.88 25.9744 1119.16 26.0336 1119.36 26.152C1119.57 26.268 1119.73 26.4006 1119.84 26.5497C1119.95 26.6965 1120.04 26.8172 1120.1 26.9119H1120.17V24.2273H1121.01V31.5H1120.2V30.6619H1120.1C1120.04 30.7614 1119.95 30.8868 1119.83 31.0384C1119.72 31.1875 1119.56 31.3213 1119.35 31.4396C1119.14 31.5556 1118.86 31.6136 1118.51 31.6136ZM1118.62 30.8608C1118.96 30.8608 1119.24 30.7732 1119.47 30.598C1119.7 30.4205 1119.88 30.1754 1120 29.8629C1120.12 29.5481 1120.18 29.1847 1120.18 28.7727C1120.18 28.3655 1120.12 28.0092 1120 27.7038C1119.89 27.3961 1119.71 27.157 1119.48 26.9865C1119.25 26.8137 1118.96 26.7273 1118.62 26.7273C1118.26 26.7273 1117.97 26.8184 1117.73 27.0007C1117.5 27.1806 1117.32 27.4257 1117.2 27.7358C1117.09 28.0436 1117.03 28.3892 1117.03 28.7727C1117.03 29.161 1117.09 29.5137 1117.21 29.831C1117.33 30.1458 1117.5 30.3968 1117.74 30.5838C1117.98 30.7685 1118.27 30.8608 1118.62 30.8608Z" fill="var(--colors-neutral-neutral-700)"/>
<path d="M1130.2 25.5L1134 21.7L1137.8 25.5H1130.2Z" fill="var(--colors-neutral-neutral-800)"/>
<path d="M1134 34.3077L1130.19 30.5H1137.81L1134 34.3077Z" fill="var(--colors-neutral-neutral-800)"/>
</svg>
