<svg width="302" height="274" viewBox="0 0 302 274" fill="none" xmlns="http://www.w3.org/2000/svg">
<path d="M3.00115 1.87228C2.96413 1.04396 2.26263 0.402481 1.43431 0.439501C0.605985 0.476521 -0.0354923 1.17802 0.00152769 2.00634L3.00115 1.87228ZM13.5118 270.673L12.012 270.74L12.1577 274L14.5384 271.769L13.5118 270.673ZM301.762 1.98798C301.789 1.15926 301.139 0.46567 300.31 0.438793L286.806 0.000803336C285.977 -0.0260739 285.283 0.623943 285.256 1.45266C285.229 2.28137 285.88 2.97496 286.708 3.00184L298.712 3.39116L298.323 15.3953C298.296 16.224 298.946 16.9176 299.775 16.9445C300.604 16.9714 301.297 16.3214 301.324 15.4926L301.762 1.98798ZM0.00152769 2.00634L12.012 270.74L15.0116 270.606L3.00115 1.87228L0.00152769 2.00634ZM14.5384 271.769L301.288 3.03475L299.235 0.843873L12.4852 269.578L14.5384 271.769Z" fill="var(--colors-primary-primary-700)"/>
</svg>
