<svg width="320" height="32" viewBox="0 0 320 32" fill="none" xmlns="http://www.w3.org/2000/svg">
<g clip-path="url(#clip0_3003_10451)">
<rect width="288" height="32" transform="translate(16)" fill="white"/>
<path d="M23.017 16.3636C23.017 17.1307 22.8786 17.7936 22.6016 18.3523C22.3246 18.911 21.9446 19.3419 21.4616 19.6449C20.9787 19.9479 20.4271 20.0994 19.8068 20.0994C19.1866 20.0994 18.6349 19.9479 18.152 19.6449C17.669 19.3419 17.2891 18.911 17.0121 18.3523C16.7351 17.7936 16.5966 17.1307 16.5966 16.3636C16.5966 15.5966 16.7351 14.9337 17.0121 14.375C17.2891 13.8163 17.669 13.3854 18.152 13.0824C18.6349 12.7794 19.1866 12.6278 19.8068 12.6278C20.4271 12.6278 20.9787 12.7794 21.4616 13.0824C21.9446 13.3854 22.3246 13.8163 22.6016 14.375C22.8786 14.9337 23.017 15.5966 23.017 16.3636ZM22.1648 16.3636C22.1648 15.7339 22.0594 15.2024 21.8487 14.7692C21.6404 14.3359 21.3575 14.008 21 13.7855C20.6449 13.563 20.2472 13.4517 19.8068 13.4517C19.3665 13.4517 18.9676 13.563 18.6101 13.7855C18.255 14.008 17.9721 14.3359 17.7614 14.7692C17.553 15.2024 17.4489 15.7339 17.4489 16.3636C17.4489 16.9934 17.553 17.5249 17.7614 17.9581C17.9721 18.3913 18.255 18.7192 18.6101 18.9418C18.9676 19.1643 19.3665 19.2756 19.8068 19.2756C20.2472 19.2756 20.6449 19.1643 21 18.9418C21.3575 18.7192 21.6404 18.3913 21.8487 17.9581C22.0594 17.5249 22.1648 16.9934 22.1648 16.3636ZM24.4979 20V12.7273H25.3359V15.4119H25.407C25.4685 15.3172 25.5537 15.1965 25.6626 15.0497C25.7739 14.9006 25.9325 14.768 26.1385 14.652C26.3468 14.5336 26.6286 14.4744 26.9837 14.4744C27.4429 14.4744 27.8478 14.5893 28.1982 14.8189C28.5485 15.0485 28.822 15.3741 29.0185 15.7955C29.215 16.2169 29.3132 16.714 29.3132 17.2869C29.3132 17.8646 29.215 18.3653 29.0185 18.7891C28.822 19.2105 28.5497 19.5372 28.2017 19.7692C27.8537 19.9988 27.4524 20.1136 26.9979 20.1136C26.6475 20.1136 26.367 20.0556 26.1562 19.9396C25.9455 19.8213 25.7834 19.6875 25.6697 19.5384C25.5561 19.3868 25.4685 19.2614 25.407 19.1619H25.3075V20H24.4979ZM25.3217 17.2727C25.3217 17.6847 25.3821 18.0481 25.5028 18.3629C25.6236 18.6754 25.8 18.9205 26.032 19.098C26.264 19.2732 26.5481 19.3608 26.8842 19.3608C27.2346 19.3608 27.527 19.2685 27.7614 19.0838C27.9981 18.8968 28.1757 18.6458 28.294 18.331C28.4148 18.0137 28.4751 17.661 28.4751 17.2727C28.4751 16.8892 28.416 16.5436 28.2976 16.2358C28.1816 15.9257 28.0052 15.6806 27.7685 15.5007C27.5341 15.3184 27.2393 15.2273 26.8842 15.2273C26.5433 15.2273 26.2569 15.3137 26.0249 15.4865C25.7929 15.657 25.6177 15.8961 25.4993 16.2038C25.3809 16.5092 25.3217 16.8655 25.3217 17.2727ZM34.4588 15.767L33.706 15.9801C33.6586 15.8546 33.5888 15.7327 33.4964 15.6143C33.4065 15.4936 33.2834 15.3942 33.1271 15.3161C32.9709 15.2379 32.7708 15.1989 32.527 15.1989C32.1932 15.1989 31.915 15.2758 31.6925 15.4297C31.4723 15.5812 31.3622 15.7741 31.3622 16.0085C31.3622 16.2169 31.438 16.3814 31.5895 16.5021C31.741 16.6229 31.9777 16.7235 32.2997 16.804L33.1094 17.0028C33.5971 17.1212 33.9605 17.3023 34.1996 17.5462C34.4387 17.7876 34.5582 18.099 34.5582 18.4801C34.5582 18.7926 34.4683 19.072 34.2884 19.3182C34.1108 19.5644 33.8622 19.7585 33.5426 19.9006C33.223 20.0426 32.8513 20.1136 32.4276 20.1136C31.8712 20.1136 31.4107 19.9929 31.0462 19.7514C30.6816 19.5099 30.4508 19.1572 30.3537 18.6932L31.1491 18.4943C31.2249 18.7879 31.3681 19.008 31.5788 19.1548C31.7919 19.3016 32.0701 19.375 32.4134 19.375C32.804 19.375 33.1141 19.2921 33.3438 19.1264C33.5758 18.9583 33.6918 18.7571 33.6918 18.5227C33.6918 18.3333 33.6255 18.1747 33.4929 18.0469C33.3603 17.9167 33.1567 17.8196 32.8821 17.7557L31.973 17.5426C31.4735 17.4242 31.1065 17.2408 30.8722 16.9922C30.6402 16.7412 30.5241 16.4276 30.5241 16.0511C30.5241 15.7434 30.6106 15.4711 30.7834 15.2344C30.9586 14.9976 31.1965 14.8118 31.4972 14.6768C31.8002 14.5419 32.1435 14.4744 32.527 14.4744C33.0668 14.4744 33.4905 14.5928 33.7983 14.8295C34.1084 15.0663 34.3286 15.3788 34.4588 15.767ZM38.1919 14.5455V15.2557H35.3652V14.5455H38.1919ZM36.1891 13.2386H37.0272V18.4375C37.0272 18.6742 37.0615 18.8518 37.1301 18.9702C37.2012 19.0862 37.2911 19.1643 37.4 19.2045C37.5113 19.2424 37.6285 19.2614 37.7516 19.2614C37.8439 19.2614 37.9197 19.2566 37.9789 19.2472C38.0381 19.2353 38.0854 19.2259 38.1209 19.2188L38.2914 19.9716C38.2346 19.9929 38.1552 20.0142 38.0534 20.0355C37.9516 20.0592 37.8226 20.071 37.6664 20.071C37.4296 20.071 37.1976 20.0201 36.9703 19.9183C36.7454 19.8165 36.5584 19.6615 36.4093 19.4531C36.2625 19.2448 36.1891 18.982 36.1891 18.6648V13.2386ZM41.0577 20.1278C40.7121 20.1278 40.3984 20.0627 40.1167 19.9325C39.8349 19.8 39.6112 19.6094 39.4455 19.3608C39.2798 19.1098 39.1969 18.8068 39.1969 18.4517C39.1969 18.1392 39.2585 17.8859 39.3816 17.6918C39.5047 17.4953 39.6692 17.3414 39.8752 17.2301C40.0811 17.1188 40.3084 17.036 40.557 16.9815C40.8079 16.9247 41.0601 16.8797 41.3134 16.8466C41.6448 16.804 41.9135 16.772 42.1195 16.7507C42.3278 16.727 42.4793 16.688 42.574 16.6335C42.6711 16.5791 42.7196 16.4844 42.7196 16.3494V16.321C42.7196 15.9706 42.6238 15.6984 42.432 15.5043C42.2426 15.3101 41.955 15.2131 41.5691 15.2131C41.169 15.2131 40.8553 15.3007 40.628 15.4759C40.4007 15.651 40.2409 15.8381 40.1486 16.0369L39.3532 15.7528C39.4952 15.4214 39.6846 15.1634 39.9213 14.9787C40.1605 14.7917 40.4209 14.6615 40.7026 14.5881C40.9867 14.5123 41.266 14.4744 41.5407 14.4744C41.7158 14.4744 41.9171 14.4957 42.1444 14.5384C42.374 14.5786 42.5953 14.6626 42.8084 14.7905C43.0239 14.9183 43.2026 15.1113 43.3446 15.3693C43.4867 15.6274 43.5577 15.973 43.5577 16.4062V20H42.7196V19.2614H42.677C42.6202 19.3797 42.5255 19.5064 42.3929 19.6413C42.2604 19.7763 42.084 19.8911 41.8638 19.9858C41.6436 20.0805 41.3749 20.1278 41.0577 20.1278ZM41.1855 19.375C41.517 19.375 41.7963 19.3099 42.0236 19.1797C42.2533 19.0495 42.4261 18.8814 42.5421 18.6754C42.6605 18.4695 42.7196 18.2528 42.7196 18.0256V17.2585C42.6841 17.3011 42.606 17.3402 42.4853 17.3757C42.3669 17.4089 42.2296 17.4384 42.0733 17.4645C41.9194 17.4882 41.7691 17.5095 41.6223 17.5284C41.4779 17.545 41.3607 17.5592 41.2708 17.571C41.053 17.5994 40.8494 17.6456 40.66 17.7095C40.473 17.7711 40.3214 17.8646 40.2054 17.9901C40.0918 18.1132 40.035 18.2812 40.035 18.4943C40.035 18.7855 40.1427 19.0057 40.3581 19.1548C40.5759 19.3016 40.8517 19.375 41.1855 19.375ZM47.3033 20.1136C46.7919 20.1136 46.3516 19.9929 45.9822 19.7514C45.6129 19.5099 45.3288 19.1773 45.13 18.7536C44.9311 18.3298 44.8317 17.8456 44.8317 17.3011C44.8317 16.7472 44.9335 16.2583 45.1371 15.8345C45.343 15.4084 45.6295 15.0758 45.9964 14.8366C46.3658 14.5952 46.7966 14.4744 47.2891 14.4744C47.6726 14.4744 48.0182 14.5455 48.326 14.6875C48.6338 14.8295 48.8859 15.0284 49.0824 15.2841C49.2789 15.5398 49.4008 15.8381 49.4482 16.179H48.6101C48.5462 15.9304 48.4041 15.7102 48.1839 15.5185C47.9661 15.3243 47.6726 15.2273 47.3033 15.2273C46.9766 15.2273 46.6901 15.3125 46.4439 15.483C46.2 15.651 46.0095 15.889 45.8722 16.1967C45.7372 16.5021 45.6697 16.8608 45.6697 17.2727C45.6697 17.6941 45.736 18.0611 45.8686 18.3736C46.0036 18.6861 46.1929 18.9287 46.4368 19.1016C46.683 19.2744 46.9718 19.3608 47.3033 19.3608C47.5211 19.3608 47.7188 19.3229 47.8963 19.2472C48.0739 19.1714 48.2242 19.0625 48.3473 18.9205C48.4704 18.7784 48.558 18.608 48.6101 18.4091H49.4482C49.4008 18.7311 49.2836 19.0211 49.0966 19.2791C48.9119 19.5348 48.6669 19.7384 48.3615 19.8899C48.0585 20.0391 47.7057 20.1136 47.3033 20.1136ZM51.5114 12.7273V20H50.6733V12.7273H51.5114ZM55.3333 20.1136C54.8077 20.1136 54.3543 19.9976 53.9732 19.7656C53.5944 19.5312 53.302 19.2045 53.0961 18.7855C52.8925 18.3641 52.7907 17.8741 52.7907 17.3153C52.7907 16.7566 52.8925 16.2642 53.0961 15.8381C53.302 15.4096 53.5885 15.0758 53.9554 14.8366C54.3248 14.5952 54.7556 14.4744 55.248 14.4744C55.5321 14.4744 55.8127 14.5218 56.0897 14.6165C56.3667 14.7112 56.6188 14.8651 56.8461 15.0781C57.0733 15.2888 57.2544 15.5682 57.3894 15.9162C57.5243 16.2642 57.5918 16.6927 57.5918 17.2017V17.5568H53.3873V16.8324H56.7395C56.7395 16.5246 56.678 16.25 56.5549 16.0085C56.4341 15.767 56.2613 15.5765 56.0364 15.4368C55.8139 15.2971 55.5511 15.2273 55.248 15.2273C54.9142 15.2273 54.6254 15.3101 54.3816 15.4759C54.1401 15.6392 53.9542 15.8523 53.824 16.1151C53.6938 16.3778 53.6287 16.6596 53.6287 16.9602V17.4432C53.6287 17.8551 53.6998 18.2043 53.8418 18.4908C53.9862 18.7749 54.1863 18.9915 54.4419 19.1406C54.6976 19.2874 54.9947 19.3608 55.3333 19.3608C55.5534 19.3608 55.7523 19.33 55.9299 19.2685C56.1098 19.2045 56.2649 19.1098 56.3951 18.9844C56.5253 18.8565 56.6259 18.6979 56.6969 18.5085L57.5066 18.7358C57.4213 19.0104 57.2781 19.2519 57.0769 19.4602C56.8757 19.6662 56.6271 19.8272 56.3311 19.9432C56.0352 20.0568 55.7026 20.1136 55.3333 20.1136ZM64.0513 14.5455V15.2557H61.2246V14.5455H64.0513ZM62.0485 13.2386H62.8865V18.4375C62.8865 18.6742 62.9209 18.8518 62.9895 18.9702C63.0605 19.0862 63.1505 19.1643 63.2594 19.2045C63.3707 19.2424 63.4879 19.2614 63.611 19.2614C63.7033 19.2614 63.7791 19.2566 63.8382 19.2472C63.8974 19.2353 63.9448 19.2259 63.9803 19.2188L64.1507 19.9716C64.0939 19.9929 64.0146 20.0142 63.9128 20.0355C63.811 20.0592 63.682 20.071 63.5257 20.071C63.289 20.071 63.057 20.0201 62.8297 19.9183C62.6048 19.8165 62.4178 19.6615 62.2686 19.4531C62.1219 19.2448 62.0485 18.982 62.0485 18.6648V13.2386ZM65.8517 22.0455C65.7097 22.0455 65.583 22.0336 65.4718 22.0099C65.3605 21.9886 65.2836 21.9673 65.2409 21.946L65.454 21.2074C65.6576 21.2595 65.8375 21.2784 65.9938 21.2642C66.15 21.25 66.2885 21.1802 66.4093 21.0547C66.5324 20.9316 66.6448 20.7315 66.7466 20.4545L66.9029 20.0284L64.8858 14.5455H65.7949L67.3006 18.892H67.3574L68.8631 14.5455H69.7722L67.4569 20.7955C67.3527 21.0772 67.2237 21.3104 67.0698 21.495C66.9159 21.6821 66.7372 21.8205 66.5336 21.9105C66.3323 22.0005 66.1051 22.0455 65.8517 22.0455ZM70.8784 22.0455V14.5455H71.688V15.4119H71.7875C71.849 15.3172 71.9342 15.1965 72.0431 15.0497C72.1544 14.9006 72.313 14.768 72.519 14.652C72.7273 14.5336 73.0091 14.4744 73.3642 14.4744C73.8234 14.4744 74.2283 14.5893 74.5787 14.8189C74.929 15.0485 75.2025 15.3741 75.399 15.7955C75.5955 16.2169 75.6937 16.714 75.6937 17.2869C75.6937 17.8646 75.5955 18.3653 75.399 18.7891C75.2025 19.2105 74.9302 19.5372 74.5822 19.7692C74.2342 19.9988 73.8329 20.1136 73.3784 20.1136C73.028 20.1136 72.7475 20.0556 72.5368 19.9396C72.3261 19.8213 72.1639 19.6875 72.0502 19.5384C71.9366 19.3868 71.849 19.2614 71.7875 19.1619H71.7164V22.0455H70.8784ZM71.7022 17.2727C71.7022 17.6847 71.7626 18.0481 71.8833 18.3629C72.0041 18.6754 72.1805 18.9205 72.4125 19.098C72.6445 19.2732 72.9286 19.3608 73.2647 19.3608C73.6151 19.3608 73.9075 19.2685 74.1419 19.0838C74.3786 18.8968 74.5562 18.6458 74.6745 18.331C74.7953 18.0137 74.8556 17.661 74.8556 17.2727C74.8556 16.8892 74.7965 16.5436 74.6781 16.2358C74.5621 15.9257 74.3857 15.6806 74.149 15.5007C73.9146 15.3184 73.6199 15.2273 73.2647 15.2273C72.9238 15.2273 72.6374 15.3137 72.4054 15.4865C72.1734 15.657 71.9982 15.8961 71.8798 16.2038C71.7614 16.5092 71.7022 16.8655 71.7022 17.2727ZM79.2591 20.1136C78.7335 20.1136 78.2801 19.9976 77.899 19.7656C77.5202 19.5312 77.2278 19.2045 77.0218 18.7855C76.8182 18.3641 76.7164 17.8741 76.7164 17.3153C76.7164 16.7566 76.8182 16.2642 77.0218 15.8381C77.2278 15.4096 77.5143 15.0758 77.8812 14.8366C78.2505 14.5952 78.6814 14.4744 79.1738 14.4744C79.4579 14.4744 79.7385 14.5218 80.0154 14.6165C80.2924 14.7112 80.5446 14.8651 80.7718 15.0781C80.9991 15.2888 81.1802 15.5682 81.3152 15.9162C81.4501 16.2642 81.5176 16.6927 81.5176 17.2017V17.5568H77.313V16.8324H80.6653C80.6653 16.5246 80.6038 16.25 80.4806 16.0085C80.3599 15.767 80.1871 15.5765 79.9622 15.4368C79.7396 15.2971 79.4769 15.2273 79.1738 15.2273C78.84 15.2273 78.5512 15.3101 78.3074 15.4759C78.0659 15.6392 77.88 15.8523 77.7498 16.1151C77.6196 16.3778 77.5545 16.6596 77.5545 16.9602V17.4432C77.5545 17.8551 77.6255 18.2043 77.7676 18.4908C77.912 18.7749 78.112 18.9915 78.3677 19.1406C78.6234 19.2874 78.9205 19.3608 79.2591 19.3608C79.4792 19.3608 79.6781 19.33 79.8556 19.2685C80.0356 19.2045 80.1906 19.1098 80.3208 18.9844C80.4511 18.8565 80.5517 18.6979 80.6227 18.5085L81.4324 18.7358C81.3471 19.0104 81.2039 19.2519 81.0027 19.4602C80.8014 19.6662 80.5529 19.8272 80.2569 19.9432C79.961 20.0568 79.6284 20.1136 79.2591 20.1136Z" fill="var(--colors-neutral-neutral-800)"/>
<rect width="184" height="32" transform="translate(120)" fill="var(--colors-neutral-neutral-300)"/>
<path d="M136.08 14H135.023C134.96 13.696 134.851 13.429 134.695 13.1989C134.541 12.9688 134.354 12.7756 134.132 12.6193C133.913 12.4602 133.67 12.3409 133.403 12.2614C133.136 12.1818 132.858 12.142 132.568 12.142C132.04 12.142 131.561 12.2756 131.132 12.5426C130.706 12.8097 130.366 13.2031 130.114 13.723C129.864 14.2429 129.739 14.8807 129.739 15.6364C129.739 16.392 129.864 17.0298 130.114 17.5497C130.366 18.0696 130.706 18.4631 131.132 18.7301C131.561 18.9972 132.04 19.1307 132.568 19.1307C132.858 19.1307 133.136 19.0909 133.403 19.0114C133.67 18.9318 133.913 18.8139 134.132 18.6577C134.354 18.4986 134.541 18.304 134.695 18.0739C134.851 17.8409 134.96 17.5739 135.023 17.2727H136.08C136 17.7187 135.855 18.1179 135.645 18.4702C135.435 18.8224 135.173 19.1222 134.861 19.3693C134.548 19.6136 134.197 19.7997 133.808 19.9276C133.422 20.0554 133.009 20.1193 132.568 20.1193C131.824 20.1193 131.162 19.9375 130.582 19.5739C130.003 19.2102 129.547 18.6932 129.214 18.0227C128.882 17.3523 128.716 16.5568 128.716 15.6364C128.716 14.7159 128.882 13.9205 129.214 13.25C129.547 12.5795 130.003 12.0625 130.582 11.6989C131.162 11.3352 131.824 11.1534 132.568 11.1534C133.009 11.1534 133.422 11.2173 133.808 11.3452C134.197 11.473 134.548 11.6605 134.861 11.9077C135.173 12.152 135.435 12.4503 135.645 12.8026C135.855 13.152 136 13.5511 136.08 14ZM140.31 20.1364C139.719 20.1364 139.201 19.9957 138.755 19.7145C138.311 19.4332 137.965 19.0398 137.715 18.5341C137.468 18.0284 137.344 17.4375 137.344 16.7614C137.344 16.0795 137.468 15.4844 137.715 14.9759C137.965 14.4673 138.311 14.0724 138.755 13.7912C139.201 13.5099 139.719 13.3693 140.31 13.3693C140.901 13.3693 141.418 13.5099 141.861 13.7912C142.307 14.0724 142.654 14.4673 142.901 14.9759C143.151 15.4844 143.276 16.0795 143.276 16.7614C143.276 17.4375 143.151 18.0284 142.901 18.5341C142.654 19.0398 142.307 19.4332 141.861 19.7145C141.418 19.9957 140.901 20.1364 140.31 20.1364ZM140.31 19.233C140.759 19.233 141.128 19.1179 141.418 18.8878C141.708 18.6577 141.922 18.3551 142.061 17.9801C142.201 17.6051 142.27 17.1989 142.27 16.7614C142.27 16.3239 142.201 15.9162 142.061 15.5384C141.922 15.1605 141.708 14.8551 141.418 14.6222C141.128 14.3892 140.759 14.2727 140.31 14.2727C139.861 14.2727 139.492 14.3892 139.202 14.6222C138.912 14.8551 138.698 15.1605 138.559 15.5384C138.419 15.9162 138.35 16.3239 138.35 16.7614C138.35 17.1989 138.419 17.6051 138.559 17.9801C138.698 18.3551 138.912 18.6577 139.202 18.8878C139.492 19.1179 139.861 19.233 140.31 19.233ZM145.817 16.0625V20H144.811V13.4545H145.783V14.4773H145.868C146.021 14.1449 146.254 13.8778 146.567 13.6761C146.879 13.4716 147.283 13.3693 147.777 13.3693C148.22 13.3693 148.608 13.4602 148.94 13.642C149.273 13.821 149.531 14.0938 149.716 14.4602C149.901 14.8239 149.993 15.2841 149.993 15.8409V20H148.987V15.9091C148.987 15.3949 148.854 14.9943 148.587 14.7074C148.32 14.4176 147.953 14.2727 147.487 14.2727C147.166 14.2727 146.879 14.3423 146.626 14.4815C146.376 14.6207 146.179 14.8239 146.034 15.0909C145.889 15.358 145.817 15.6818 145.817 16.0625ZM154.49 20.1364C153.876 20.1364 153.348 19.9915 152.904 19.7017C152.461 19.4119 152.12 19.0128 151.882 18.5043C151.643 17.9957 151.524 17.4148 151.524 16.7614C151.524 16.0966 151.646 15.5099 151.89 15.0014C152.137 14.4901 152.481 14.0909 152.922 13.804C153.365 13.5142 153.882 13.3693 154.473 13.3693C154.933 13.3693 155.348 13.4545 155.717 13.625C156.086 13.7955 156.389 14.0341 156.625 14.3409C156.86 14.6477 157.007 15.0057 157.064 15.4148H156.058C155.981 15.1165 155.811 14.8523 155.547 14.6222C155.285 14.3892 154.933 14.2727 154.49 14.2727C154.098 14.2727 153.754 14.375 153.458 14.5795C153.166 14.7812 152.937 15.0668 152.772 15.4361C152.61 15.8026 152.529 16.233 152.529 16.7273C152.529 17.233 152.609 17.6733 152.768 18.0483C152.93 18.4233 153.157 18.7145 153.45 18.9219C153.745 19.1293 154.092 19.233 154.49 19.233C154.751 19.233 154.988 19.1875 155.201 19.0966C155.414 19.0057 155.595 18.875 155.743 18.7045C155.89 18.5341 155.995 18.3295 156.058 18.0909H157.064C157.007 18.4773 156.866 18.8253 156.642 19.1349C156.42 19.4418 156.126 19.6861 155.76 19.8679C155.396 20.0469 154.973 20.1364 154.49 20.1364ZM158.534 20V13.4545H159.505V14.4432H159.574C159.693 14.1193 159.909 13.8565 160.221 13.6548C160.534 13.4531 160.886 13.3523 161.278 13.3523C161.352 13.3523 161.444 13.3537 161.555 13.3565C161.666 13.3594 161.75 13.3636 161.806 13.3693V14.392C161.772 14.3835 161.694 14.3707 161.572 14.3537C161.453 14.3338 161.326 14.3239 161.193 14.3239C160.875 14.3239 160.591 14.3906 160.341 14.5241C160.093 14.6548 159.897 14.8366 159.752 15.0696C159.61 15.2997 159.539 15.5625 159.539 15.858V20H158.534ZM165.544 20.1364C164.913 20.1364 164.369 19.9972 163.912 19.7188C163.457 19.4375 163.106 19.0455 162.859 18.5426C162.615 18.0369 162.493 17.4489 162.493 16.7784C162.493 16.108 162.615 15.517 162.859 15.0057C163.106 14.4915 163.45 14.0909 163.89 13.804C164.333 13.5142 164.85 13.3693 165.441 13.3693C165.782 13.3693 166.119 13.4261 166.451 13.5398C166.784 13.6534 167.086 13.8381 167.359 14.0938C167.632 14.3466 167.849 14.6818 168.011 15.0994C168.173 15.517 168.254 16.0312 168.254 16.642V17.0682H163.208V16.1989H167.231C167.231 15.8295 167.157 15.5 167.01 15.2102C166.865 14.9205 166.657 14.6918 166.387 14.5241C166.12 14.3565 165.805 14.2727 165.441 14.2727C165.041 14.2727 164.694 14.3722 164.402 14.571C164.112 14.767 163.889 15.0227 163.733 15.3381C163.576 15.6534 163.498 15.9915 163.498 16.3523V16.9318C163.498 17.4261 163.583 17.8452 163.754 18.1889C163.927 18.5298 164.167 18.7898 164.474 18.9688C164.781 19.1449 165.137 19.233 165.544 19.233C165.808 19.233 166.047 19.196 166.26 19.1222C166.475 19.0455 166.662 18.9318 166.818 18.7812C166.974 18.6278 167.095 18.4375 167.18 18.2102L168.152 18.483C168.049 18.8125 167.877 19.1023 167.636 19.3523C167.395 19.5994 167.096 19.7926 166.741 19.9318C166.386 20.0682 165.987 20.1364 165.544 20.1364ZM172.63 13.4545V14.3068H169.238V13.4545H172.63ZM170.227 11.8864H171.233V18.125C171.233 18.4091 171.274 18.6222 171.356 18.7642C171.441 18.9034 171.549 18.9972 171.68 19.0455C171.814 19.0909 171.954 19.1136 172.102 19.1136C172.213 19.1136 172.304 19.108 172.375 19.0966C172.446 19.0824 172.502 19.071 172.545 19.0625L172.75 19.9659C172.681 19.9915 172.586 20.017 172.464 20.0426C172.342 20.071 172.187 20.0852 172 20.0852C171.716 20.0852 171.437 20.0241 171.164 19.902C170.895 19.7798 170.67 19.5938 170.491 19.3438C170.315 19.0938 170.227 18.7784 170.227 18.3977V11.8864ZM176.817 20.1364C176.186 20.1364 175.642 19.9972 175.185 19.7188C174.73 19.4375 174.38 19.0455 174.132 18.5426C173.888 18.0369 173.766 17.4489 173.766 16.7784C173.766 16.108 173.888 15.517 174.132 15.0057C174.38 14.4915 174.723 14.0909 175.164 13.804C175.607 13.5142 176.124 13.3693 176.715 13.3693C177.056 13.3693 177.392 13.4261 177.725 13.5398C178.057 13.6534 178.36 13.8381 178.632 14.0938C178.905 14.3466 179.123 14.6818 179.284 15.0994C179.446 15.517 179.527 16.0312 179.527 16.642V17.0682H174.482V16.1989H178.505C178.505 15.8295 178.431 15.5 178.283 15.2102C178.138 14.9205 177.931 14.6918 177.661 14.5241C177.394 14.3565 177.078 14.2727 176.715 14.2727C176.314 14.2727 175.968 14.3722 175.675 14.571C175.385 14.767 175.162 15.0227 175.006 15.3381C174.85 15.6534 174.772 15.9915 174.772 16.3523V16.9318C174.772 17.4261 174.857 17.8452 175.027 18.1889C175.201 18.5298 175.441 18.7898 175.748 18.9688C176.054 19.1449 176.411 19.233 176.817 19.233C177.081 19.233 177.32 19.196 177.533 19.1222C177.749 19.0455 177.935 18.9318 178.091 18.7812C178.248 18.6278 178.368 18.4375 178.453 18.2102L179.425 18.483C179.323 18.8125 179.151 19.1023 178.909 19.3523C178.668 19.5994 178.37 19.7926 178.015 19.9318C177.659 20.0682 177.26 20.1364 176.817 20.1364Z" fill="var(--colors-neutral-neutral-800)"/>
<path d="M292 18.3077L288.192 14.5H295.808L292 18.3077Z" fill="var(--colors-neutral-neutral-700)"/>
</g>
<defs>
<clipPath id="clip0_3003_10451">
<rect width="288" height="32" fill="white" transform="translate(16)"/>
</clipPath>
</defs>
</svg>
