<svg width="616" height="96" viewBox="0 0 616 96" fill="none" xmlns="http://www.w3.org/2000/svg">
<g clip-path="url(#clip0_4672_38266)">
<mask id="mask0_4672_38266" style="mask-type:luminance" maskUnits="userSpaceOnUse" x="0" y="0" width="233" height="96">
<path d="M232.041 0H0V95.9102H232.041V0Z" fill="white"/>
</mask>
<g mask="url(#mask0_4672_38266)">
<path d="M93.6104 74.751V24.9099H105.267V44.9152H124.273V24.9099H135.909V74.751H124.273V54.7213H105.267V74.751H93.6104Z" fill="white"/>
<path d="M148.186 33.0053C146.639 33.035 145.141 32.436 144.018 31.3374C143.471 30.8331 143.031 30.2146 142.731 29.5228C142.431 28.831 142.276 28.0817 142.276 27.3234C142.276 26.5654 142.431 25.816 142.731 25.1242C143.031 24.4324 143.471 23.814 144.018 23.3097C145.16 22.2364 146.648 21.6421 148.192 21.6421C149.736 21.6421 151.224 22.2364 152.366 23.3097C152.91 23.8159 153.346 24.4349 153.646 25.1264C153.943 25.8179 154.098 26.5663 154.098 27.3234C154.098 28.0804 153.943 28.8292 153.646 29.5207C153.346 30.2121 152.91 30.8312 152.366 31.3374C151.239 32.4397 149.739 33.039 148.186 33.0053ZM142.416 74.7451V37.3704H153.931V74.7513L142.416 74.7451Z" fill="white"/>
<path d="M195.53 37.3704L183.117 74.7512H169.928L157.54 37.3704H169.662L176.329 63.1182H176.707L183.399 37.3704H195.53Z" fill="white"/>
<path d="M232.041 58.9322V55.9621C232.087 53.1838 231.648 50.4179 230.741 47.8008C229.962 45.5574 228.724 43.5127 227.115 41.803C225.553 40.1744 223.665 38.9195 221.583 38.1262C219.319 37.2773 216.927 36.8577 214.517 36.8877C210.872 36.8877 207.707 37.6946 205.025 39.3081C202.361 40.8983 200.195 43.2463 198.785 46.0722C197.309 48.9684 196.569 52.3485 196.569 56.2127C196.569 60.1852 197.303 63.6164 198.772 66.503C200.183 69.3215 202.383 71.6357 205.084 73.1486C207.831 74.6986 211.092 75.4752 214.87 75.4721C217.716 75.5278 220.547 75.0204 223.208 73.9747C225.46 73.0898 227.465 71.645 229.046 69.7639C230.537 67.9385 231.533 65.7326 231.929 63.3781L221.357 63.0564C221.076 63.8577 220.618 64.5755 220.015 65.1509C219.396 65.7326 218.666 66.175 217.871 66.4442C216.973 66.7443 216.036 66.8928 215.092 66.8804C213.762 66.9175 212.444 66.5896 211.275 65.9337C210.219 65.3087 209.359 64.3836 208.803 63.2667C208.196 62.0292 207.893 60.6555 207.921 59.2664V58.9508L232.041 58.9322ZM208.864 48.7732C209.455 47.7646 210.291 46.9339 211.29 46.3633C212.342 45.787 213.514 45.4813 214.706 45.4726C215.897 45.464 217.072 45.7526 218.131 46.3135C219.096 46.8562 219.897 47.6597 220.454 48.6383C221.026 49.6661 221.327 50.8325 221.32 52.0205H207.927C207.97 50.8727 208.292 49.7558 208.864 48.7732Z" fill="white"/>
<path d="M35.859 95.9102L0 74.8223V24.9419L42.4118 0L84.8307 24.9419V74.8223L49.662 95.5049V55.5846H65.5221V43.4674H19.3083V55.5846H35.859V95.9102Z" fill="var(--colors-brand-brand-800)"/>
</g>
<path d="M272 11V89" stroke="white"/>
<path d="M306.912 59L305.648 55.544H301.216L299.952 59H298.288L302.576 47.64H304.336L308.64 59H306.912ZM301.696 54.2H305.152L303.424 49.464L301.696 54.2ZM321.005 47.64V49.096H317.933V59H316.301V49.096H313.181V47.64H321.005ZM325.024 59.16C322.496 59.16 320.736 57.416 320.736 54.968C320.736 52.536 322.496 50.776 325.024 50.776C327.568 50.776 329.328 52.536 329.328 54.968C329.328 57.416 327.568 59.16 325.024 59.16ZM325.024 57.736C326.656 57.736 327.76 56.6 327.76 54.968C327.76 53.32 326.64 52.2 325.04 52.2C323.408 52.2 322.304 53.32 322.304 54.968C322.304 56.632 323.424 57.736 325.024 57.736ZM336.323 50.936H337.923L334.259 60.088C333.635 61.656 332.739 62.424 331.299 62.424C330.947 62.424 330.547 62.376 330.179 62.248L330.387 60.904C330.563 60.968 330.787 61.016 331.043 61.016C331.859 61.016 332.419 60.712 332.883 59.624L333.315 58.632L329.939 50.936H331.603L334.099 56.872L336.323 50.936ZM342.711 59.16C340.183 59.16 338.423 57.416 338.423 54.968C338.423 52.536 340.183 50.776 342.711 50.776C345.255 50.776 347.015 52.536 347.015 54.968C347.015 57.416 345.255 59.16 342.711 59.16ZM342.711 57.736C344.343 57.736 345.447 56.6 345.447 54.968C345.447 53.32 344.327 52.2 342.727 52.2C341.095 52.2 339.991 53.32 339.991 54.968C339.991 56.632 341.111 57.736 342.711 57.736ZM351.592 59.16C350.232 59.16 349.352 58.376 349.352 56.76V52.232H348.184V50.936H349.352V48.616L350.872 48.408V50.936H353.144V52.232H350.872V56.568C350.872 57.368 351.256 57.768 351.928 57.768C352.504 57.768 353.016 57.512 353.352 57.304L353.608 58.568C353.176 58.888 352.44 59.16 351.592 59.16ZM358.265 50.776C360.313 50.776 361.593 51.784 361.593 53.96V59H360.073V57.752C359.561 58.568 358.553 59.16 357.193 59.16C355.529 59.16 354.505 58.248 354.505 56.776C354.505 54.92 356.121 54.2 360.073 54.168V53.992C360.073 52.824 359.385 52.072 358.009 52.072C356.857 52.072 355.961 52.6 355.433 52.984L355.049 51.72C355.753 51.24 356.889 50.776 358.265 50.776ZM357.657 57.992C358.761 57.992 360.073 57.368 360.073 55.864V55.176C357.049 55.208 356.089 55.656 356.089 56.696C356.089 57.48 356.633 57.992 357.657 57.992ZM368.27 59V47.64H369.918V59H368.27ZM377.182 50.776C379.022 50.776 380.062 51.864 380.062 53.992V59H378.542V54.504C378.542 52.936 377.902 52.152 376.638 52.152C375.246 52.152 374.302 53.112 374.302 54.552V59H372.782V50.936H374.302V52.344C374.846 51.352 375.886 50.776 377.182 50.776ZM388.864 46.968H390.384V59.016H388.864V57.528C388.224 58.68 387.168 59.16 385.936 59.16C383.664 59.16 382.048 57.416 382.048 54.984C382.048 52.52 383.68 50.776 385.936 50.776C387.184 50.776 388.288 51.304 388.864 52.376V46.968ZM386.208 57.752C387.776 57.752 388.944 56.552 388.944 54.968C388.944 53.368 387.776 52.184 386.224 52.184C384.688 52.184 383.616 53.304 383.616 54.984C383.616 56.632 384.656 57.752 386.208 57.752ZM398.712 50.936H400.232V59H398.712V57.592C398.168 58.584 397.128 59.16 395.799 59.16C394.008 59.16 392.936 58.088 392.936 55.96V50.936H394.456V55.448C394.456 57.016 395.096 57.8 396.36 57.8C397.752 57.8 398.712 56.824 398.712 55.4V50.936ZM405.323 59.16C404.219 59.16 403.051 58.824 402.427 58.312L402.795 57.048C403.419 57.56 404.411 57.96 405.403 57.96C406.347 57.96 406.939 57.56 406.939 56.856C406.939 56.12 406.266 55.896 405.067 55.528C403.819 55.144 402.651 54.68 402.651 53.192C402.651 51.672 403.851 50.776 405.627 50.776C406.635 50.776 407.547 51.08 408.155 51.448L407.851 52.696C407.307 52.328 406.475 51.976 405.595 51.976C404.747 51.976 404.155 52.344 404.155 53C404.155 53.736 404.907 53.976 405.851 54.232C407.339 54.632 408.427 55.176 408.427 56.632C408.427 58.136 407.291 59.16 405.323 59.16ZM413.17 59.16C411.81 59.16 410.93 58.376 410.93 56.76V52.232H409.762V50.936H410.93V48.616L412.45 48.408V50.936H414.722V52.232H412.45V56.568C412.45 57.368 412.834 57.768 413.506 57.768C414.082 57.768 414.594 57.512 414.93 57.304L415.186 58.568C414.754 58.888 414.018 59.16 413.17 59.16ZM420.146 50.76C420.514 50.76 420.882 50.84 421.154 50.952L420.85 52.424C420.626 52.328 420.322 52.248 420.018 52.248C418.722 52.248 418.114 53.304 418.114 54.92V59H416.61V50.936H418.114V52.312C418.578 51.176 419.298 50.76 420.146 50.76ZM423.394 49.368C422.818 49.368 422.37 48.92 422.37 48.344C422.37 47.768 422.818 47.32 423.394 47.32C423.97 47.32 424.402 47.768 424.402 48.344C424.402 48.92 423.97 49.368 423.394 49.368ZM422.61 59V50.936H424.13V59H422.61ZM434.013 55V55.208H427.709C427.805 56.856 428.877 57.832 430.525 57.832C431.677 57.832 432.669 57.384 433.309 56.84L433.709 58.088C432.989 58.68 431.821 59.16 430.397 59.16C427.805 59.16 426.173 57.336 426.173 54.984C426.173 52.536 427.901 50.776 430.189 50.776C432.461 50.776 434.013 52.504 434.013 55ZM427.773 54.12H432.445C432.285 52.888 431.405 52.024 430.189 52.024C429.005 52.024 428.029 52.872 427.773 54.12ZM438.401 59.16C437.297 59.16 436.129 58.824 435.505 58.312L435.873 57.048C436.497 57.56 437.489 57.96 438.481 57.96C439.425 57.96 440.017 57.56 440.017 56.856C440.017 56.12 439.345 55.896 438.145 55.528C436.897 55.144 435.729 54.68 435.729 53.192C435.729 51.672 436.929 50.776 438.705 50.776C439.713 50.776 440.625 51.08 441.233 51.448L440.929 52.696C440.385 52.328 439.553 51.976 438.673 51.976C437.825 51.976 437.233 52.344 437.233 53C437.233 53.736 437.985 53.976 438.929 54.232C440.417 54.632 441.505 55.176 441.505 56.632C441.505 58.136 440.369 59.16 438.401 59.16ZM453.065 59.16C449.641 59.16 447.193 56.728 447.193 53.304C447.193 49.864 449.705 47.48 453.113 47.48C454.617 47.48 455.897 47.96 456.889 48.664L456.345 50.168C455.465 49.48 454.361 49.032 453.161 49.032C450.633 49.032 448.889 50.824 448.889 53.288C448.889 55.768 450.633 57.608 453.161 57.608C454.521 57.608 455.721 57.064 456.585 56.424L457.065 57.896C455.929 58.728 454.649 59.16 453.065 59.16ZM462.242 59.16C459.714 59.16 457.954 57.416 457.954 54.968C457.954 52.536 459.714 50.776 462.242 50.776C464.786 50.776 466.546 52.536 466.546 54.968C466.546 57.416 464.786 59.16 462.242 59.16ZM462.242 57.736C463.874 57.736 464.978 56.6 464.978 54.968C464.978 53.32 463.858 52.2 462.258 52.2C460.626 52.2 459.522 53.32 459.522 54.968C459.522 56.632 460.642 57.736 462.242 57.736ZM472.13 50.76C472.498 50.76 472.866 50.84 473.138 50.952L472.834 52.424C472.61 52.328 472.306 52.248 472.002 52.248C470.706 52.248 470.098 53.304 470.098 54.92V59H468.594V50.936H470.098V52.312C470.562 51.176 471.282 50.76 472.13 50.76ZM479.058 50.776C481.314 50.776 482.914 52.536 482.914 54.968C482.914 57.384 481.314 59.16 478.978 59.16C477.874 59.16 476.722 58.632 476.114 57.56V62.36H474.594V50.936H476.114V52.36C476.754 51.32 477.89 50.776 479.058 50.776ZM478.754 57.752C480.29 57.752 481.362 56.616 481.362 54.968C481.362 53.368 480.354 52.184 478.77 52.184C477.25 52.184 476.034 53.32 476.034 54.968C476.034 56.568 477.218 57.752 478.754 57.752ZM488.649 59.16C486.121 59.16 484.361 57.416 484.361 54.968C484.361 52.536 486.121 50.776 488.649 50.776C491.193 50.776 492.953 52.536 492.953 54.968C492.953 57.416 491.193 59.16 488.649 59.16ZM488.649 57.736C490.281 57.736 491.385 56.6 491.385 54.968C491.385 53.32 490.265 52.2 488.665 52.2C487.033 52.2 485.929 53.32 485.929 54.968C485.929 56.632 487.049 57.736 488.649 57.736ZM498.536 50.76C498.904 50.76 499.272 50.84 499.544 50.952L499.24 52.424C499.016 52.328 498.712 52.248 498.408 52.248C497.112 52.248 496.504 53.304 496.504 54.92V59H495V50.936H496.504V52.312C496.968 51.176 497.688 50.76 498.536 50.76ZM503.937 50.776C505.985 50.776 507.265 51.784 507.265 53.96V59H505.745V57.752C505.233 58.568 504.225 59.16 502.865 59.16C501.201 59.16 500.177 58.248 500.177 56.776C500.177 54.92 501.793 54.2 505.745 54.168V53.992C505.745 52.824 505.057 52.072 503.681 52.072C502.529 52.072 501.633 52.6 501.105 52.984L500.721 51.72C501.425 51.24 502.561 50.776 503.937 50.776ZM503.329 57.992C504.433 57.992 505.745 57.368 505.745 55.864V55.176C502.721 55.208 501.761 55.656 501.761 56.696C501.761 57.48 502.305 57.992 503.329 57.992ZM512.389 59.16C511.029 59.16 510.149 58.376 510.149 56.76V52.232H508.981V50.936H510.149V48.616L511.669 48.408V50.936H513.941V52.232H511.669V56.568C511.669 57.368 512.053 57.768 512.725 57.768C513.301 57.768 513.813 57.512 514.149 57.304L514.405 58.568C513.973 58.888 513.237 59.16 512.389 59.16ZM516.612 49.368C516.036 49.368 515.588 48.92 515.588 48.344C515.588 47.768 516.036 47.32 516.612 47.32C517.188 47.32 517.62 47.768 517.62 48.344C517.62 48.92 517.188 49.368 516.612 49.368ZM515.828 59V50.936H517.348V59H515.828ZM523.68 59.16C521.152 59.16 519.392 57.416 519.392 54.968C519.392 52.536 521.152 50.776 523.68 50.776C526.224 50.776 527.984 52.536 527.984 54.968C527.984 57.416 526.224 59.16 523.68 59.16ZM523.68 57.736C525.312 57.736 526.416 56.6 526.416 54.968C526.416 53.32 525.296 52.2 523.696 52.2C522.064 52.2 520.96 53.32 520.96 54.968C520.96 56.632 522.08 57.736 523.68 57.736ZM534.432 50.776C536.272 50.776 537.312 51.864 537.312 53.992V59H535.792V54.504C535.792 52.936 535.152 52.152 533.888 52.152C532.496 52.152 531.552 53.112 531.552 54.552V59H530.032V50.936H531.552V52.344C532.096 51.352 533.136 50.776 534.432 50.776ZM549.268 59.16C545.844 59.16 543.396 56.728 543.396 53.304C543.396 49.864 545.908 47.48 549.316 47.48C550.82 47.48 552.1 47.96 553.092 48.664L552.548 50.168C551.668 49.48 550.564 49.032 549.364 49.032C546.836 49.032 545.092 50.824 545.092 53.288C545.092 55.768 546.836 57.608 549.364 57.608C550.724 57.608 551.924 57.064 552.788 56.424L553.268 57.896C552.132 58.728 550.852 59.16 549.268 59.16ZM558.446 59.16C555.918 59.16 554.158 57.416 554.158 54.968C554.158 52.536 555.918 50.776 558.446 50.776C560.99 50.776 562.75 52.536 562.75 54.968C562.75 57.416 560.99 59.16 558.446 59.16ZM558.446 57.736C560.078 57.736 561.182 56.6 561.182 54.968C561.182 53.32 560.062 52.2 558.462 52.2C556.83 52.2 555.726 53.32 555.726 54.968C555.726 56.632 556.846 57.736 558.446 57.736ZM574.061 50.76C575.821 50.76 576.813 51.832 576.813 53.976V59H575.293V54.488C575.293 52.92 574.717 52.136 573.549 52.136C572.381 52.136 571.565 53.096 571.565 54.44V59H570.045V54.488C570.045 52.92 569.485 52.136 568.317 52.136C567.117 52.136 566.317 53.096 566.317 54.52V59H564.797V50.936H566.317V52.248C566.813 51.304 567.709 50.76 568.845 50.76C570.125 50.76 570.989 51.336 571.357 52.504C571.869 51.368 572.813 50.76 574.061 50.76ZM583.871 50.776C586.127 50.776 587.727 52.536 587.727 54.968C587.727 57.384 586.127 59.16 583.791 59.16C582.687 59.16 581.535 58.632 580.927 57.56V62.36H579.407V50.936H580.927V52.36C581.567 51.32 582.703 50.776 583.871 50.776ZM583.567 57.752C585.103 57.752 586.175 56.616 586.175 54.968C586.175 53.368 585.167 52.184 583.583 52.184C582.062 52.184 580.847 53.32 580.847 54.968C580.847 56.568 582.031 57.752 583.567 57.752ZM592.984 50.776C595.032 50.776 596.312 51.784 596.312 53.96V59H594.792V57.752C594.28 58.568 593.272 59.16 591.912 59.16C590.248 59.16 589.224 58.248 589.224 56.776C589.224 54.92 590.84 54.2 594.792 54.168V53.992C594.792 52.824 594.104 52.072 592.728 52.072C591.576 52.072 590.68 52.6 590.152 52.984L589.768 51.72C590.472 51.24 591.608 50.776 592.984 50.776ZM592.376 57.992C593.48 57.992 594.792 57.368 594.792 55.864V55.176C591.768 55.208 590.808 55.656 590.808 56.696C590.808 57.48 591.352 57.992 592.376 57.992ZM603.307 50.776C605.147 50.776 606.187 51.864 606.187 53.992V59H604.667V54.504C604.667 52.936 604.027 52.152 602.763 52.152C601.371 52.152 600.427 53.112 600.427 54.552V59H598.907V50.936H600.427V52.344C600.971 51.352 602.011 50.776 603.307 50.776ZM613.885 50.936H615.485L611.821 60.088C611.197 61.656 610.301 62.424 608.861 62.424C608.509 62.424 608.109 62.376 607.741 62.248L607.949 60.904C608.125 60.968 608.349 61.016 608.605 61.016C609.421 61.016 609.981 60.712 610.445 59.624L610.877 58.632L607.501 50.936H609.165L611.661 56.872L613.885 50.936Z" fill="white"/>
</g>
<defs>
<clipPath id="clip0_4672_38266">
<rect width="616" height="96" fill="white"/>
</clipPath>
</defs>
</svg>
