<svg width="304" height="64" viewBox="0 0 304 64" fill="none" xmlns="http://www.w3.org/2000/svg">
<rect x="16.5" y="0.5" width="271" height="31" fill="white"/>
<rect x="16.5" y="0.5" width="271" height="31" stroke="var(--colors-neutral-neutral-800)"/>
<path d="M115.185 11.3182H116.726V18.0149C116.726 18.7275 116.559 19.3589 116.224 19.9091C115.889 20.456 115.418 20.8868 114.812 21.2017C114.205 21.5133 113.494 21.669 112.679 21.669C111.867 21.669 111.158 21.5133 110.551 21.2017C109.945 20.8868 109.474 20.456 109.139 19.9091C108.805 19.3589 108.637 18.7275 108.637 18.0149V11.3182H110.173V17.8906C110.173 18.3513 110.274 18.7607 110.477 19.1186C110.682 19.4766 110.972 19.7583 111.347 19.9638C111.721 20.166 112.165 20.267 112.679 20.267C113.196 20.267 113.642 20.166 114.016 19.9638C114.394 19.7583 114.683 19.4766 114.881 19.1186C115.084 18.7607 115.185 18.3513 115.185 17.8906V11.3182ZM118.959 21.5V11.3182H122.589C123.381 11.3182 124.037 11.4624 124.557 11.7507C125.078 12.0391 125.467 12.4335 125.726 12.9339C125.984 13.4311 126.114 13.9912 126.114 14.6143C126.114 15.2408 125.983 15.8042 125.721 16.3047C125.462 16.8018 125.071 17.1963 124.547 17.4879C124.027 17.7763 123.373 17.9205 122.584 17.9205H120.088V16.6179H122.445C122.945 16.6179 123.351 16.5317 123.663 16.3594C123.974 16.1837 124.203 15.9451 124.349 15.6435C124.494 15.3419 124.567 14.9988 124.567 14.6143C124.567 14.2299 124.494 13.8885 124.349 13.5902C124.203 13.2919 123.972 13.0582 123.658 12.8892C123.346 12.7202 122.935 12.6357 122.425 12.6357H120.496V21.5H118.959ZM127.915 21.5V11.3182H129.451V20.1776H134.064V21.5H127.915ZM144.265 16.4091C144.265 17.4962 144.066 18.4309 143.668 19.2131C143.271 19.992 142.725 20.5919 142.033 21.0128C141.343 21.4304 140.559 21.6392 139.681 21.6392C138.799 21.6392 138.012 21.4304 137.32 21.0128C136.63 20.5919 136.087 19.9903 135.689 19.2081C135.291 18.4259 135.092 17.4929 135.092 16.4091C135.092 15.322 135.291 14.389 135.689 13.6101C136.087 12.8279 136.63 12.228 137.32 11.8104C138.012 11.3894 138.799 11.179 139.681 11.179C140.559 11.179 141.343 11.3894 142.033 11.8104C142.725 12.228 143.271 12.8279 143.668 13.6101C144.066 14.389 144.265 15.322 144.265 16.4091ZM142.744 16.4091C142.744 15.5805 142.609 14.8828 142.341 14.3161C142.076 13.746 141.711 13.3151 141.247 13.0234C140.786 12.7285 140.264 12.581 139.681 12.581C139.094 12.581 138.571 12.7285 138.11 13.0234C137.649 13.3151 137.285 13.746 137.016 14.3161C136.751 14.8828 136.619 15.5805 136.619 16.4091C136.619 17.2377 136.751 17.937 137.016 18.5071C137.285 19.0739 137.649 19.5047 138.11 19.7997C138.571 20.0914 139.094 20.2372 139.681 20.2372C140.264 20.2372 140.786 20.0914 141.247 19.7997C141.711 19.5047 142.076 19.0739 142.341 18.5071C142.609 17.937 142.744 17.2377 142.744 16.4091ZM146.534 21.5H144.904L148.568 11.3182H150.343L154.007 21.5H152.376L149.497 13.1676H149.418L146.534 21.5ZM146.808 17.5128H152.098V18.8054H146.808V17.5128ZM158.773 21.5H155.477V11.3182H158.878C159.875 11.3182 160.732 11.522 161.448 11.9297C162.164 12.334 162.712 12.9157 163.093 13.6747C163.478 14.4304 163.67 15.3369 163.67 16.3942C163.67 17.4548 163.476 18.3662 163.089 19.1286C162.704 19.8909 162.147 20.4775 161.418 20.8885C160.689 21.2962 159.807 21.5 158.773 21.5ZM157.013 20.1577H158.689C159.464 20.1577 160.109 20.0118 160.623 19.7202C161.136 19.4252 161.521 18.9993 161.776 18.4425C162.031 17.8823 162.159 17.1996 162.159 16.3942C162.159 15.5954 162.031 14.9176 161.776 14.3608C161.524 13.804 161.148 13.3814 160.647 13.093C160.147 12.8047 159.526 12.6605 158.783 12.6605H157.013V20.1577ZM169.286 21.5V11.3182H175.6V12.6406H170.822V15.7429H175.147V17.0604H170.822V21.5H169.286ZM179.025 11.3182V21.5H177.489V11.3182H179.025ZM181.262 21.5V11.3182H182.798V20.1776H187.412V21.5H181.262ZM189.165 21.5V11.3182H195.548V12.6406H190.701V15.7429H195.215V17.0604H190.701V20.1776H195.608V21.5H189.165Z" fill="var(--colors-neutral-neutral-800)"/>
<path d="M17.179 51.5H16.2557L18.9261 44.2273H19.8352L22.5057 51.5H21.5824L19.4091 45.3778H19.3523L17.179 51.5ZM17.5199 48.6591H21.2415V49.4403H17.5199V48.6591ZM24.3629 44.2273V51.5H23.5249V44.2273H24.3629ZM26.736 44.2273V51.5H25.8979V44.2273H26.736ZM30.4869 51.6136C29.9944 51.6136 29.5624 51.4964 29.1907 51.2621C28.8214 51.0277 28.5326 50.6998 28.3242 50.2784C28.1183 49.857 28.0153 49.3646 28.0153 48.8011C28.0153 48.233 28.1183 47.737 28.3242 47.3132C28.5326 46.8894 28.8214 46.5604 29.1907 46.326C29.5624 46.0916 29.9944 45.9744 30.4869 45.9744C30.9793 45.9744 31.4102 46.0916 31.7795 46.326C32.1512 46.5604 32.44 46.8894 32.646 47.3132C32.8543 47.737 32.9585 48.233 32.9585 48.8011C32.9585 49.3646 32.8543 49.857 32.646 50.2784C32.44 50.6998 32.1512 51.0277 31.7795 51.2621C31.4102 51.4964 30.9793 51.6136 30.4869 51.6136ZM30.4869 50.8608C30.8609 50.8608 31.1687 50.7649 31.4102 50.5732C31.6516 50.3814 31.8304 50.1293 31.9464 49.8168C32.0624 49.5043 32.1204 49.1657 32.1204 48.8011C32.1204 48.4366 32.0624 48.0968 31.9464 47.782C31.8304 47.4671 31.6516 47.2126 31.4102 47.0185C31.1687 46.8243 30.8609 46.7273 30.4869 46.7273C30.1128 46.7273 29.805 46.8243 29.5636 47.0185C29.3221 47.2126 29.1433 47.4671 29.0273 47.782C28.9113 48.0968 28.8533 48.4366 28.8533 48.8011C28.8533 49.1657 28.9113 49.5043 29.0273 49.8168C29.1433 50.1293 29.3221 50.3814 29.5636 50.5732C29.805 50.7649 30.1128 50.8608 30.4869 50.8608ZM35.288 51.5L33.6261 46.0455H34.5067L35.6857 50.2216H35.7425L36.9073 46.0455H37.8022L38.9528 50.2074H39.0096L40.1886 46.0455H41.0692L39.4073 51.5H38.5835L37.3903 47.3097H37.305L36.1119 51.5H35.288ZM44.2786 51.6136C43.753 51.6136 43.2997 51.4976 42.9185 51.2656C42.5397 51.0312 42.2473 50.7045 42.0414 50.2855C41.8378 49.8641 41.736 49.3741 41.736 48.8153C41.736 48.2566 41.8378 47.7642 42.0414 47.3381C42.2473 46.9096 42.5338 46.5758 42.9007 46.3366C43.2701 46.0952 43.7009 45.9744 44.1934 45.9744C44.4775 45.9744 44.758 46.0218 45.035 46.1165C45.312 46.2112 45.5641 46.3651 45.7914 46.5781C46.0186 46.7888 46.1998 47.0682 46.3347 47.4162C46.4696 47.7642 46.5371 48.1927 46.5371 48.7017V49.0568H42.3326V48.3324H45.6848C45.6848 48.0246 45.6233 47.75 45.5002 47.5085C45.3794 47.267 45.2066 47.0765 44.9817 46.9368C44.7592 46.7971 44.4964 46.7273 44.1934 46.7273C43.8596 46.7273 43.5707 46.8101 43.3269 46.9759C43.0854 47.1392 42.8996 47.3523 42.7694 47.6151C42.6391 47.8778 42.574 48.1596 42.574 48.4602V48.9432C42.574 49.3551 42.6451 49.7043 42.7871 49.9908C42.9315 50.2749 43.1316 50.4915 43.3873 50.6406C43.6429 50.7874 43.94 50.8608 44.2786 50.8608C44.4988 50.8608 44.6976 50.83 44.8752 50.7685C45.0551 50.7045 45.2102 50.6098 45.3404 50.4844C45.4706 50.3565 45.5712 50.1979 45.6422 50.0085L46.4519 50.2358C46.3667 50.5104 46.2234 50.7519 46.0222 50.9602C45.821 51.1662 45.5724 51.3272 45.2765 51.4432C44.9805 51.5568 44.6479 51.6136 44.2786 51.6136ZM49.8716 51.6136C49.4171 51.6136 49.0158 51.4988 48.6678 51.2692C48.3198 51.0372 48.0475 50.7105 47.851 50.2891C47.6545 49.8653 47.5563 49.3646 47.5563 48.7869C47.5563 48.214 47.6545 47.7169 47.851 47.2955C48.0475 46.8741 48.321 46.5485 48.6713 46.3189C49.0217 46.0893 49.4266 45.9744 49.8858 45.9744C50.2409 45.9744 50.5215 46.0336 50.7275 46.152C50.9358 46.268 51.0944 46.4006 51.2033 46.5497C51.3146 46.6965 51.401 46.8172 51.4625 46.9119H51.5336V44.2273H52.3716V51.5H51.562V50.6619H51.4625C51.401 50.7614 51.3134 50.8868 51.1998 51.0384C51.0861 51.1875 50.9239 51.3213 50.7132 51.4396C50.5025 51.5556 50.222 51.6136 49.8716 51.6136ZM49.9853 50.8608C50.3214 50.8608 50.6055 50.7732 50.8375 50.598C51.0695 50.4205 51.2459 50.1754 51.3667 49.8629C51.4874 49.5481 51.5478 49.1847 51.5478 48.7727C51.5478 48.3655 51.4886 48.0092 51.3702 47.7038C51.2518 47.3961 51.0766 47.157 50.8446 46.9865C50.6126 46.8137 50.3262 46.7273 49.9853 46.7273C49.6301 46.7273 49.3342 46.8184 49.0975 47.0007C48.8631 47.1806 48.6867 47.4257 48.5684 47.7358C48.4524 48.0436 48.3944 48.3892 48.3944 48.7727C48.3944 49.161 48.4535 49.5137 48.5719 49.831C48.6926 50.1458 48.8702 50.3968 49.1046 50.5838C49.3413 50.7685 49.6349 50.8608 49.9853 50.8608ZM59.2644 46.0455V46.7557H56.324V46.0455H59.2644ZM57.2047 51.5V45.2926C57.2047 44.9801 57.2781 44.7197 57.4249 44.5114C57.5717 44.303 57.7623 44.1468 57.9966 44.0426C58.231 43.9384 58.4784 43.8864 58.7388 43.8864C58.9448 43.8864 59.1129 43.9029 59.2431 43.9361C59.3733 43.9692 59.4703 44 59.5343 44.0284L59.2928 44.7528C59.2502 44.7386 59.191 44.7209 59.1152 44.6996C59.0418 44.6783 58.9448 44.6676 58.824 44.6676C58.5471 44.6676 58.347 44.7375 58.2239 44.8771C58.1032 45.0168 58.0428 45.2216 58.0428 45.4915V51.5H57.2047ZM62.4302 51.6136C61.9378 51.6136 61.5057 51.4964 61.1341 51.2621C60.7647 51.0277 60.4759 50.6998 60.2676 50.2784C60.0616 49.857 59.9586 49.3646 59.9586 48.8011C59.9586 48.233 60.0616 47.737 60.2676 47.3132C60.4759 46.8894 60.7647 46.5604 61.1341 46.326C61.5057 46.0916 61.9378 45.9744 62.4302 45.9744C62.9226 45.9744 63.3535 46.0916 63.7228 46.326C64.0945 46.5604 64.3833 46.8894 64.5893 47.3132C64.7976 47.737 64.9018 48.233 64.9018 48.8011C64.9018 49.3646 64.7976 49.857 64.5893 50.2784C64.3833 50.6998 64.0945 51.0277 63.7228 51.2621C63.3535 51.4964 62.9226 51.6136 62.4302 51.6136ZM62.4302 50.8608C62.8043 50.8608 63.112 50.7649 63.3535 50.5732C63.595 50.3814 63.7737 50.1293 63.8897 49.8168C64.0057 49.5043 64.0637 49.1657 64.0637 48.8011C64.0637 48.4366 64.0057 48.0968 63.8897 47.782C63.7737 47.4671 63.595 47.2126 63.3535 47.0185C63.112 46.8243 62.8043 46.7273 62.4302 46.7273C62.0562 46.7273 61.7484 46.8243 61.5069 47.0185C61.2654 47.2126 61.0867 47.4671 60.9707 47.782C60.8547 48.0968 60.7967 48.4366 60.7967 48.8011C60.7967 49.1657 60.8547 49.5043 60.9707 49.8168C61.0867 50.1293 61.2654 50.3814 61.5069 50.5732C61.7484 50.7649 62.0562 50.8608 62.4302 50.8608ZM66.1811 51.5V46.0455H66.9908V46.8693H67.0476C67.147 46.5994 67.3269 46.3804 67.5874 46.2124C67.8478 46.0443 68.1413 45.9602 68.468 45.9602C68.5296 45.9602 68.6065 45.9614 68.6989 45.9638C68.7912 45.9661 68.861 45.9697 68.9084 45.9744V46.8267C68.88 46.8196 68.8149 46.8089 68.7131 46.7947C68.6136 46.7782 68.5083 46.7699 68.397 46.7699C68.1319 46.7699 67.8951 46.8255 67.6868 46.9368C67.4808 47.0457 67.3175 47.1972 67.1967 47.3913C67.0784 47.5831 67.0192 47.8021 67.0192 48.0483V51.5H66.1811ZM69.9018 51.5V46.0455H70.7115V46.8977H70.7825C70.8961 46.6065 71.0796 46.3804 71.3329 46.2195C71.5862 46.0561 71.8904 45.9744 72.2456 45.9744C72.6054 45.9744 72.9049 46.0561 73.144 46.2195C73.3855 46.3804 73.5737 46.6065 73.7086 46.8977H73.7654C73.9051 46.616 74.1146 46.3923 74.394 46.2266C74.6734 46.0585 75.0083 45.9744 75.399 45.9744C75.8867 45.9744 76.2856 46.1271 76.5957 46.4325C76.9058 46.7356 77.0609 47.2079 77.0609 47.8494V51.5H76.2228V47.8494C76.2228 47.447 76.1127 47.1593 75.8926 46.9865C75.6724 46.8137 75.4132 46.7273 75.1149 46.7273C74.7314 46.7273 74.4342 46.8433 74.2235 47.0753C74.0128 47.3049 73.9075 47.5961 73.9075 47.9489V51.5H73.0552V47.7642C73.0552 47.4541 72.9546 47.2043 72.7534 47.0149C72.5521 46.8232 72.2929 46.7273 71.9757 46.7273C71.7579 46.7273 71.5543 46.7853 71.3649 46.9013C71.1779 47.0173 71.0263 47.1783 70.9103 47.3842C70.7967 47.5878 70.7399 47.8234 70.7399 48.0909V51.5H69.9018ZM80.1983 51.6278C79.8527 51.6278 79.539 51.5627 79.2573 51.4325C78.9756 51.3 78.7518 51.1094 78.5861 50.8608C78.4204 50.6098 78.3375 50.3068 78.3375 49.9517C78.3375 49.6392 78.3991 49.3859 78.5222 49.1918C78.6453 48.9953 78.8098 48.8414 79.0158 48.7301C79.2218 48.6188 79.449 48.536 79.6976 48.4815C79.9486 48.4247 80.2007 48.3797 80.454 48.3466C80.7855 48.304 81.0542 48.272 81.2601 48.2507C81.4685 48.227 81.62 48.188 81.7147 48.1335C81.8117 48.0791 81.8603 47.9844 81.8603 47.8494V47.821C81.8603 47.4706 81.7644 47.1984 81.5726 47.0043C81.3832 46.8101 81.0956 46.7131 80.7097 46.7131C80.3096 46.7131 79.9959 46.8007 79.7686 46.9759C79.5414 47.151 79.3816 47.3381 79.2892 47.5369L78.4938 47.2528C78.6358 46.9214 78.8252 46.6634 79.062 46.4787C79.3011 46.2917 79.5615 46.1615 79.8432 46.0881C80.1273 46.0123 80.4067 45.9744 80.6813 45.9744C80.8565 45.9744 81.0577 45.9957 81.285 46.0384C81.5146 46.0786 81.736 46.1626 81.949 46.2905C82.1645 46.4183 82.3432 46.6113 82.4853 46.8693C82.6273 47.1274 82.6983 47.473 82.6983 47.9062V51.5H81.8603V50.7614H81.8176C81.7608 50.8797 81.6661 51.0064 81.5336 51.1413C81.401 51.2763 81.2246 51.3911 81.0044 51.4858C80.7843 51.5805 80.5156 51.6278 80.1983 51.6278ZM80.3262 50.875C80.6576 50.875 80.937 50.8099 81.1642 50.6797C81.3939 50.5495 81.5667 50.3814 81.6827 50.1754C81.8011 49.9695 81.8603 49.7528 81.8603 49.5256V48.7585C81.8248 48.8011 81.7466 48.8402 81.6259 48.8757C81.5075 48.9089 81.3702 48.9384 81.214 48.9645C81.0601 48.9882 80.9097 49.0095 80.763 49.0284C80.6185 49.045 80.5014 49.0592 80.4114 49.071C80.1936 49.0994 79.99 49.1456 79.8006 49.2095C79.6136 49.2711 79.4621 49.3646 79.3461 49.4901C79.2324 49.6132 79.1756 49.7812 79.1756 49.9943C79.1756 50.2855 79.2833 50.5057 79.4988 50.6548C79.7166 50.8016 79.9924 50.875 80.3262 50.875ZM86.6001 46.0455V46.7557H83.7734V46.0455H86.6001ZM84.5973 44.7386H85.4354V49.9375C85.4354 50.1742 85.4697 50.3518 85.5384 50.4702C85.6094 50.5862 85.6993 50.6643 85.8082 50.7045C85.9195 50.7424 86.0367 50.7614 86.1598 50.7614C86.2521 50.7614 86.3279 50.7566 86.3871 50.7472C86.4463 50.7353 86.4936 50.7259 86.5291 50.7188L86.6996 51.4716C86.6428 51.4929 86.5634 51.5142 86.4616 51.5355C86.3598 51.5592 86.2308 51.571 86.0746 51.571C85.8378 51.571 85.6058 51.5201 85.3786 51.4183C85.1536 51.3165 84.9666 51.1615 84.8175 50.9531C84.6707 50.7448 84.5973 50.482 84.5973 50.1648V44.7386ZM91.6268 47.267L90.8739 47.4801C90.8266 47.3546 90.7567 47.2327 90.6644 47.1143C90.5745 46.9936 90.4513 46.8942 90.2951 46.8161C90.1388 46.7379 89.9388 46.6989 89.695 46.6989C89.3612 46.6989 89.083 46.7758 88.8604 46.9297C88.6403 47.0812 88.5302 47.2741 88.5302 47.5085C88.5302 47.7169 88.6059 47.8814 88.7575 48.0021C88.909 48.1229 89.1457 48.2235 89.4677 48.304L90.2773 48.5028C90.765 48.6212 91.1284 48.8023 91.3675 49.0462C91.6067 49.2876 91.7262 49.599 91.7262 49.9801C91.7262 50.2926 91.6362 50.572 91.4563 50.8182C91.2788 51.0644 91.0302 51.2585 90.7106 51.4006C90.391 51.5426 90.0193 51.6136 89.5955 51.6136C89.0392 51.6136 88.5787 51.4929 88.2141 51.2514C87.8496 51.0099 87.6187 50.6572 87.5217 50.1932L88.3171 49.9943C88.3929 50.2879 88.5361 50.508 88.7468 50.6548C88.9599 50.8016 89.238 50.875 89.5813 50.875C89.9719 50.875 90.2821 50.7921 90.5117 50.6264C90.7437 50.4583 90.8597 50.2571 90.8597 50.0227C90.8597 49.8333 90.7934 49.6747 90.6609 49.5469C90.5283 49.4167 90.3247 49.3196 90.0501 49.2557L89.141 49.0426C88.6415 48.9242 88.2745 48.7408 88.0401 48.4922C87.8081 48.2412 87.6921 47.9276 87.6921 47.5511C87.6921 47.2434 87.7785 46.9711 87.9513 46.7344C88.1265 46.4976 88.3645 46.3118 88.6651 46.1768C88.9682 46.0419 89.3114 45.9744 89.695 45.9744C90.2347 45.9744 90.6585 46.0928 90.9663 46.3295C91.2764 46.5663 91.4966 46.8788 91.6268 47.267ZM93.5985 51.5568C93.4234 51.5568 93.273 51.4941 93.1475 51.3686C93.0221 51.2431 92.9593 51.0928 92.9593 50.9176C92.9593 50.7424 93.0221 50.5921 93.1475 50.4666C93.273 50.3411 93.4234 50.2784 93.5985 50.2784C93.7737 50.2784 93.9241 50.3411 94.0495 50.4666C94.175 50.5921 94.2377 50.7424 94.2377 50.9176C94.2377 51.0336 94.2082 51.1402 94.149 51.2372C94.0922 51.3343 94.0152 51.4124 93.9181 51.4716C93.8234 51.5284 93.7169 51.5568 93.5985 51.5568ZM93.5985 47.5085C93.4234 47.5085 93.273 47.4458 93.1475 47.3203C93.0221 47.1948 92.9593 47.0445 92.9593 46.8693C92.9593 46.6941 93.0221 46.5438 93.1475 46.4183C93.273 46.2929 93.4234 46.2301 93.5985 46.2301C93.7737 46.2301 93.9241 46.2929 94.0495 46.4183C94.175 46.5438 94.2377 46.6941 94.2377 46.8693C94.2377 46.9853 94.2082 47.0919 94.149 47.1889C94.0922 47.286 94.0152 47.3641 93.9181 47.4233C93.8234 47.4801 93.7169 47.5085 93.5985 47.5085ZM101.452 44.2273H102.333V49.4261C102.333 49.8902 102.247 50.2843 102.077 50.6087C101.906 50.933 101.666 51.1792 101.356 51.3473C101.046 51.5154 100.68 51.5994 100.259 51.5994C99.861 51.5994 99.507 51.5272 99.1969 51.3828C98.8868 51.236 98.6429 51.0277 98.4654 50.7578C98.2878 50.4879 98.199 50.1671 98.199 49.7955H99.0655C99.0655 50.0014 99.1164 50.1813 99.2182 50.3352C99.3224 50.4867 99.4644 50.6051 99.6444 50.6903C99.8243 50.7756 100.029 50.8182 100.259 50.8182C100.512 50.8182 100.727 50.7649 100.905 50.6584C101.083 50.5518 101.218 50.3956 101.31 50.1896C101.405 49.9813 101.452 49.7268 101.452 49.4261V44.2273ZM104.097 51.5V44.2273H106.555C107.125 44.2273 107.592 44.3303 107.954 44.5362C108.319 44.7398 108.588 45.0156 108.764 45.3636C108.939 45.7116 109.026 46.0999 109.026 46.5284C109.026 46.9569 108.939 47.3464 108.764 47.6967C108.591 48.0471 108.323 48.3265 107.961 48.5348C107.599 48.7408 107.135 48.8438 106.569 48.8438H104.808V48.0625H106.541C106.931 48.0625 107.245 47.995 107.482 47.8601C107.718 47.7251 107.89 47.5429 107.997 47.3132C108.106 47.0812 108.16 46.8196 108.16 46.5284C108.16 46.2372 108.106 45.9768 107.997 45.7472C107.89 45.5175 107.717 45.3376 107.478 45.2074C107.239 45.0748 106.922 45.0085 106.526 45.0085H104.978V51.5H104.097ZM115.417 46.5C115.339 46.2609 115.236 46.0466 115.108 45.8572C114.982 45.6655 114.832 45.5021 114.657 45.3672C114.484 45.2322 114.287 45.1293 114.067 45.0582C113.847 44.9872 113.606 44.9517 113.343 44.9517C112.912 44.9517 112.52 45.063 112.167 45.2855C111.815 45.508 111.534 45.8359 111.326 46.2692C111.117 46.7024 111.013 47.2339 111.013 47.8636C111.013 48.4934 111.119 49.0249 111.329 49.4581C111.54 49.8913 111.825 50.2192 112.185 50.4418C112.545 50.6643 112.95 50.7756 113.4 50.7756C113.816 50.7756 114.183 50.6868 114.501 50.5092C114.82 50.3293 115.069 50.076 115.246 49.7493C115.426 49.4202 115.516 49.0331 115.516 48.5881L115.786 48.6449H113.599V47.8636H116.368V48.6449C116.368 49.2438 116.241 49.7647 115.985 50.2074C115.732 50.6501 115.381 50.9934 114.934 51.2372C114.489 51.4787 113.977 51.5994 113.4 51.5994C112.756 51.5994 112.19 51.4479 111.702 51.1449C111.217 50.8419 110.838 50.411 110.566 49.8523C110.296 49.2936 110.161 48.6307 110.161 47.8636C110.161 47.2884 110.238 46.7711 110.392 46.3118C110.548 45.8501 110.768 45.4571 111.052 45.1328C111.336 44.8085 111.673 44.5599 112.061 44.3871C112.449 44.2143 112.876 44.1278 113.343 44.1278C113.726 44.1278 114.084 44.1858 114.415 44.3018C114.749 44.4155 115.046 44.5777 115.307 44.7884C115.569 44.9967 115.788 45.2464 115.964 45.5376C116.139 45.8265 116.26 46.1473 116.326 46.5H115.417ZM119.013 50.5057L118.956 50.8892C118.916 51.1591 118.855 51.4479 118.772 51.7557C118.691 52.0634 118.607 52.3535 118.52 52.6257C118.432 52.898 118.36 53.1146 118.303 53.2756H117.664C117.694 53.1241 117.735 52.924 117.784 52.6754C117.834 52.4268 117.884 52.1487 117.934 51.8409C117.986 51.5355 118.028 51.223 118.061 50.9034L118.104 50.5057H119.013ZM123.492 51.5V44.2273H125.949C126.52 44.2273 126.986 44.3303 127.349 44.5362C127.713 44.7398 127.983 45.0156 128.158 45.3636C128.333 45.7116 128.421 46.0999 128.421 46.5284C128.421 46.9569 128.333 47.3464 128.158 47.6967C127.985 48.0471 127.718 48.3265 127.356 48.5348C126.993 48.7408 126.529 48.8438 125.964 48.8438H124.202V48.0625H125.935C126.326 48.0625 126.64 47.995 126.876 47.8601C127.113 47.7251 127.285 47.5429 127.391 47.3132C127.5 47.0812 127.555 46.8196 127.555 46.5284C127.555 46.2372 127.5 45.9768 127.391 45.7472C127.285 45.5175 127.112 45.3376 126.873 45.2074C126.634 45.0748 126.316 45.0085 125.921 45.0085H124.373V51.5H123.492ZM135.607 44.2273V51.5H134.754L130.791 45.7898H130.72V51.5H129.84V44.2273H130.692L134.669 49.9517H134.74V44.2273H135.607ZM142.341 46.5C142.262 46.2609 142.159 46.0466 142.032 45.8572C141.906 45.6655 141.756 45.5021 141.581 45.3672C141.408 45.2322 141.211 45.1293 140.991 45.0582C140.771 44.9872 140.529 44.9517 140.267 44.9517C139.836 44.9517 139.444 45.063 139.091 45.2855C138.739 45.508 138.458 45.8359 138.25 46.2692C138.041 46.7024 137.937 47.2339 137.937 47.8636C137.937 48.4934 138.042 49.0249 138.253 49.4581C138.464 49.8913 138.749 50.2192 139.109 50.4418C139.469 50.6643 139.874 50.7756 140.324 50.7756C140.74 50.7756 141.107 50.6868 141.424 50.5092C141.744 50.3293 141.993 50.076 142.17 49.7493C142.35 49.4202 142.44 49.0331 142.44 48.5881L142.71 48.6449H140.522V47.8636H143.292V48.6449C143.292 49.2438 143.164 49.7647 142.909 50.2074C142.655 50.6501 142.305 50.9934 141.858 51.2372C141.413 51.4787 140.901 51.5994 140.324 51.5994C139.68 51.5994 139.114 51.4479 138.626 51.1449C138.141 50.8419 137.762 50.411 137.49 49.8523C137.22 49.2936 137.085 48.6307 137.085 47.8636C137.085 47.2884 137.162 46.7711 137.316 46.3118C137.472 45.8501 137.692 45.4571 137.976 45.1328C138.26 44.8085 138.596 44.5599 138.985 44.3871C139.373 44.2143 139.8 44.1278 140.267 44.1278C140.65 44.1278 141.008 44.1858 141.339 44.3018C141.673 44.4155 141.97 44.5777 142.23 44.7884C142.493 44.9967 142.712 45.2464 142.887 45.5376C143.063 45.8265 143.183 46.1473 143.25 46.5H142.341ZM145.937 50.5057L145.88 50.8892C145.84 51.1591 145.778 51.4479 145.695 51.7557C145.615 52.0634 145.531 52.3535 145.443 52.6257C145.356 52.898 145.284 53.1146 145.227 53.2756H144.588C144.618 53.1241 144.659 52.924 144.708 52.6754C144.758 52.4268 144.808 52.1487 144.857 51.8409C144.91 51.5355 144.952 51.223 144.985 50.9034L145.028 50.5057H145.937ZM150.416 51.5V44.2273H152.873C153.444 44.2273 153.91 44.3303 154.272 44.5362C154.637 44.7398 154.907 45.0156 155.082 45.3636C155.257 45.7116 155.345 46.0999 155.345 46.5284C155.345 46.9569 155.257 47.3464 155.082 47.6967C154.909 48.0471 154.642 48.3265 154.279 48.5348C153.917 48.7408 153.453 48.8438 152.887 48.8438H151.126V48.0625H152.859C153.25 48.0625 153.563 47.995 153.8 47.8601C154.037 47.7251 154.208 47.5429 154.315 47.3132C154.424 47.0812 154.478 46.8196 154.478 46.5284C154.478 46.2372 154.424 45.9768 154.315 45.7472C154.208 45.5175 154.036 45.3376 153.797 45.2074C153.557 45.0748 153.24 45.0085 152.845 45.0085H151.297V51.5H150.416ZM159.008 51.5H156.763V44.2273H159.107C159.813 44.2273 160.416 44.3729 160.918 44.6641C161.42 44.9529 161.805 45.3684 162.072 45.9105C162.34 46.4503 162.474 47.0966 162.474 47.8494C162.474 48.607 162.339 49.2592 162.069 49.8061C161.799 50.3506 161.406 50.7696 160.89 51.0632C160.374 51.3544 159.746 51.5 159.008 51.5ZM157.644 50.7188H158.951C159.552 50.7188 160.051 50.6027 160.446 50.3707C160.841 50.1387 161.136 49.8085 161.33 49.38C161.524 48.9515 161.621 48.4413 161.621 47.8494C161.621 47.2623 161.526 46.7569 161.334 46.3331C161.142 45.907 160.856 45.5803 160.474 45.353C160.093 45.1233 159.619 45.0085 159.05 45.0085H157.644V50.7188ZM163.951 51.5V44.2273H168.312V45.0085H164.832V47.4659H167.985V48.2472H164.832V51.5H163.951ZM174.735 51.6136C174.242 51.6136 173.81 51.4964 173.439 51.2621C173.069 51.0277 172.781 50.6998 172.572 50.2784C172.366 49.857 172.263 49.3646 172.263 48.8011C172.263 48.233 172.366 47.737 172.572 47.3132C172.781 46.8894 173.069 46.5604 173.439 46.326C173.81 46.0916 174.242 45.9744 174.735 45.9744C175.227 45.9744 175.658 46.0916 176.028 46.326C176.399 46.5604 176.688 46.8894 176.894 47.3132C177.102 47.737 177.206 48.233 177.206 48.8011C177.206 49.3646 177.102 49.857 176.894 50.2784C176.688 50.6998 176.399 51.0277 176.028 51.2621C175.658 51.4964 175.227 51.6136 174.735 51.6136ZM174.735 50.8608C175.109 50.8608 175.417 50.7649 175.658 50.5732C175.9 50.3814 176.078 50.1293 176.194 49.8168C176.31 49.5043 176.368 49.1657 176.368 48.8011C176.368 48.4366 176.31 48.0968 176.194 47.782C176.078 47.4671 175.9 47.2126 175.658 47.0185C175.417 46.8243 175.109 46.7273 174.735 46.7273C174.361 46.7273 174.053 46.8243 173.812 47.0185C173.57 47.2126 173.391 47.4671 173.275 47.782C173.159 48.0968 173.101 48.4366 173.101 48.8011C173.101 49.1657 173.159 49.5043 173.275 49.8168C173.391 50.1293 173.57 50.3814 173.812 50.5732C174.053 50.7649 174.361 50.8608 174.735 50.8608ZM178.486 51.5V46.0455H179.295V46.8693H179.352C179.452 46.5994 179.632 46.3804 179.892 46.2124C180.152 46.0443 180.446 45.9602 180.773 45.9602C180.834 45.9602 180.911 45.9614 181.004 45.9638C181.096 45.9661 181.166 45.9697 181.213 45.9744V46.8267C181.185 46.8196 181.12 46.8089 181.018 46.7947C180.918 46.7782 180.813 46.7699 180.702 46.7699C180.437 46.7699 180.2 46.8255 179.991 46.9368C179.786 47.0457 179.622 47.1972 179.501 47.3913C179.383 47.5831 179.324 47.8021 179.324 48.0483V51.5H178.486ZM187.377 51.5H185.133V44.2273H187.476C188.182 44.2273 188.786 44.3729 189.287 44.6641C189.789 44.9529 190.174 45.3684 190.442 45.9105C190.709 46.4503 190.843 47.0966 190.843 47.8494C190.843 48.607 190.708 49.2592 190.438 49.8061C190.168 50.3506 189.775 50.7696 189.259 51.0632C188.743 51.3544 188.116 51.5 187.377 51.5ZM186.013 50.7188H187.32C187.921 50.7188 188.42 50.6027 188.815 50.3707C189.211 50.1387 189.505 49.8085 189.699 49.38C189.894 48.9515 189.991 48.4413 189.991 47.8494C189.991 47.2623 189.895 46.7569 189.703 46.3331C189.511 45.907 189.225 45.5803 188.844 45.353C188.462 45.1233 187.988 45.0085 187.42 45.0085H186.013V50.7188ZM193.641 51.5L191.653 44.2273H192.547L194.067 50.1506H194.138L195.687 44.2273H196.681L198.229 50.1506H198.3L199.82 44.2273H200.715L198.726 51.5H197.817L196.212 45.7045H196.155L194.55 51.5H193.641ZM206.442 46.5C206.364 46.2609 206.261 46.0466 206.133 45.8572C206.008 45.6655 205.857 45.5021 205.682 45.3672C205.509 45.2322 205.313 45.1293 205.093 45.0582C204.873 44.9872 204.631 44.9517 204.368 44.9517C203.937 44.9517 203.546 45.063 203.193 45.2855C202.84 45.508 202.56 45.8359 202.351 46.2692C202.143 46.7024 202.039 47.2339 202.039 47.8636C202.039 48.4934 202.144 49.0249 202.355 49.4581C202.565 49.8913 202.851 50.2192 203.211 50.4418C203.57 50.6643 203.975 50.7756 204.425 50.7756C204.842 50.7756 205.209 50.6868 205.526 50.5092C205.846 50.3293 206.094 50.076 206.272 49.7493C206.452 49.4202 206.542 49.0331 206.542 48.5881L206.811 48.6449H204.624V47.8636H207.394V48.6449C207.394 49.2438 207.266 49.7647 207.01 50.2074C206.757 50.6501 206.407 50.9934 205.959 51.2372C205.514 51.4787 205.003 51.5994 204.425 51.5994C203.781 51.5994 203.215 51.4479 202.728 51.1449C202.242 50.8419 201.864 50.411 201.591 49.8523C201.321 49.2936 201.186 48.6307 201.186 47.8636C201.186 47.2884 201.263 46.7711 201.417 46.3118C201.574 45.8501 201.794 45.4571 202.078 45.1328C202.362 44.8085 202.698 44.5599 203.086 44.3871C203.475 44.2143 203.902 44.1278 204.368 44.1278C204.752 44.1278 205.109 44.1858 205.441 44.3018C205.775 44.4155 206.072 44.5777 206.332 44.7884C206.595 44.9967 206.814 45.2464 206.989 45.5376C207.164 45.8265 207.285 46.1473 207.351 46.5H206.442Z" fill="var(--colors-neutral-neutral-600)"/>
</svg>
