<svg width="658" height="152" viewBox="0 0 658 152" fill="none" xmlns="http://www.w3.org/2000/svg">
<rect width="646" height="140" transform="translate(6 6)" fill="#EDF1F0"/>
<rect x="97" y="6" width="24" height="30" fill="#E0E8E3"/>
<rect x="97" y="36" width="24" height="30" fill="#E0E8E3"/>
<rect x="137" y="6" width="24" height="30" fill="#E0E8E3"/>
<rect x="137" y="36" width="24" height="30" fill="#E0E8E3"/>
<rect x="177" y="6" width="24" height="30" fill="#E0E8E3"/>
<rect x="177" y="36" width="24" height="30" fill="#E0E8E3"/>
<rect x="217" y="6" width="24" height="30" fill="#E0E8E3"/>
<rect x="217" y="36" width="24" height="30" fill="#E0E8E3"/>
<rect x="257" y="6" width="24" height="30" fill="#E0E8E3"/>
<rect x="257" y="36" width="24" height="30" fill="#E0E8E3"/>
<rect x="297" y="6" width="24" height="30" fill="#E0E8E3"/>
<rect x="297" y="36" width="24" height="30" fill="#E0E8E3"/>
<rect x="337" y="6" width="24" height="30" fill="#E0E8E3"/>
<rect x="337" y="36" width="24" height="30" fill="#E0E8E3"/>
<rect x="377" y="6" width="24" height="30" fill="#E0E8E3"/>
<rect x="377" y="36" width="24" height="30" fill="#E0E8E3"/>
<rect x="417" y="6" width="24" height="30" fill="#E0E8E3"/>
<rect x="417" y="36" width="24" height="30" fill="#E0E8E3"/>
<rect x="457" y="6" width="24" height="30" fill="#E0E8E3"/>
<rect x="457" y="36" width="24" height="30" fill="#E0E8E3"/>
<rect x="497" y="6" width="24" height="30" fill="#E0E8E3"/>
<rect x="497" y="36" width="24" height="30" fill="#E0E8E3"/>
<rect x="537" y="6" width="24" height="30" fill="#E0E8E3"/>
<rect x="537" y="36" width="24" height="30" fill="#E0E8E3"/>
</svg>
