<svg width="288" height="157" viewBox="0 0 288 157" fill="none" xmlns="http://www.w3.org/2000/svg">
<path d="M1.11861 24V13.8182H4.74787C5.5367 13.8182 6.19129 13.9541 6.71165 14.2259C7.23532 14.4976 7.62642 14.8738 7.88494 15.3544C8.14347 15.8317 8.27273 16.3835 8.27273 17.0099C8.27273 17.633 8.14181 18.1816 7.87997 18.6555C7.62145 19.1262 7.23035 19.4924 6.70668 19.7543C6.18632 20.0161 5.53172 20.147 4.7429 20.147H1.99361V18.8246H4.60369C5.10085 18.8246 5.50521 18.7533 5.81676 18.6108C6.13163 18.4683 6.36198 18.2611 6.50781 17.9893C6.65365 17.7176 6.72656 17.3911 6.72656 17.0099C6.72656 16.6255 6.65199 16.2924 6.50284 16.0107C6.35701 15.7289 6.12666 15.5135 5.81179 15.3643C5.50024 15.2119 5.09091 15.1357 4.58381 15.1357H2.65483V24H1.11861ZM6.14489 19.4062L8.66051 24H6.91051L4.4446 19.4062H6.14489ZM13.2182 24.1541C12.4658 24.1541 11.8179 23.9934 11.2743 23.6719C10.7341 23.3471 10.3165 22.8913 10.0215 22.3047C9.72982 21.7147 9.58398 21.0237 9.58398 20.2315C9.58398 19.4493 9.72982 18.7599 10.0215 18.1634C10.3165 17.5668 10.7275 17.1011 11.2544 16.7663C11.7847 16.4316 12.4045 16.2642 13.1138 16.2642C13.5447 16.2642 13.9623 16.3355 14.3667 16.478C14.771 16.6205 15.1339 16.8442 15.4554 17.1491C15.7769 17.4541 16.0305 17.8501 16.2161 18.3374C16.4017 18.8213 16.4945 19.4096 16.4945 20.1023V20.6293H10.4242V19.5156H15.0378C15.0378 19.1245 14.9583 18.7782 14.7992 18.4766C14.6401 18.1716 14.4164 17.9313 14.128 17.7557C13.843 17.58 13.5082 17.4922 13.1238 17.4922C12.7061 17.4922 12.3416 17.5949 12.03 17.8004C11.7218 18.0026 11.4831 18.2678 11.3141 18.5959C11.1484 18.9207 11.0655 19.2737 11.0655 19.6548V20.5249C11.0655 21.0353 11.155 21.4695 11.334 21.8274C11.5163 22.1854 11.7698 22.4588 12.0946 22.6477C12.4194 22.8333 12.7989 22.9261 13.2331 22.9261C13.5149 22.9261 13.7717 22.8864 14.0037 22.8068C14.2357 22.724 14.4363 22.6013 14.6053 22.4389C14.7743 22.2765 14.9036 22.076 14.9931 21.8374L16.4 22.0909C16.2873 22.5052 16.0852 22.8681 15.7935 23.1797C15.5051 23.4879 15.1422 23.7282 14.7047 23.9006C14.2705 24.0696 13.775 24.1541 13.2182 24.1541ZM21.7781 16.3636V17.5568H17.4627V16.3636H21.7781ZM18.646 24V15.4787C18.646 15.0014 18.7504 14.6053 18.9592 14.2905C19.168 13.9723 19.4447 13.7353 19.7894 13.5795C20.1341 13.4205 20.5086 13.3409 20.913 13.3409C21.2113 13.3409 21.4665 13.3658 21.6786 13.4155C21.8907 13.4619 22.0482 13.505 22.1509 13.5447L21.8029 14.7479C21.7333 14.728 21.6438 14.7048 21.5344 14.6783C21.4251 14.6484 21.2925 14.6335 21.1367 14.6335C20.7754 14.6335 20.5169 14.723 20.3612 14.902C20.2087 15.081 20.1325 15.3395 20.1325 15.6776V24H18.646ZM26.3022 24.1541C25.5498 24.1541 24.9019 23.9934 24.3583 23.6719C23.8181 23.3471 23.4004 22.8913 23.1055 22.3047C22.8138 21.7147 22.668 21.0237 22.668 20.2315C22.668 19.4493 22.8138 18.7599 23.1055 18.1634C23.4004 17.5668 23.8114 17.1011 24.3384 16.7663C24.8687 16.4316 25.4885 16.2642 26.1978 16.2642C26.6287 16.2642 27.0463 16.3355 27.4506 16.478C27.855 16.6205 28.2179 16.8442 28.5394 17.1491C28.8609 17.4541 29.1145 17.8501 29.3001 18.3374C29.4857 18.8213 29.5785 19.4096 29.5785 20.1023V20.6293H23.5082V19.5156H28.1218C28.1218 19.1245 28.0423 18.7782 27.8832 18.4766C27.7241 18.1716 27.5004 17.9313 27.212 17.7557C26.927 17.58 26.5922 17.4922 26.2077 17.4922C25.7901 17.4922 25.4255 17.5949 25.114 17.8004C24.8058 18.0026 24.5671 18.2678 24.3981 18.5959C24.2324 18.9207 24.1495 19.2737 24.1495 19.6548V20.5249C24.1495 21.0353 24.239 21.4695 24.418 21.8274C24.6003 22.1854 24.8538 22.4588 25.1786 22.6477C25.5034 22.8333 25.8829 22.9261 26.3171 22.9261C26.5988 22.9261 26.8557 22.8864 27.0877 22.8068C27.3197 22.724 27.5202 22.6013 27.6893 22.4389C27.8583 22.2765 27.9876 22.076 28.0771 21.8374L29.484 22.0909C29.3713 22.5052 29.1692 22.8681 28.8775 23.1797C28.5891 23.4879 28.2262 23.7282 27.7887 23.9006C27.3545 24.0696 26.859 24.1541 26.3022 24.1541ZM31.2278 24V16.3636H32.6646V17.5767H32.7441C32.8833 17.1657 33.1286 16.8426 33.4799 16.6072C33.8346 16.3686 34.2356 16.2493 34.6831 16.2493C34.7759 16.2493 34.8852 16.2526 35.0112 16.2592C35.1404 16.2659 35.2415 16.2741 35.3145 16.2841V17.706C35.2548 17.6894 35.1487 17.6712 34.9963 17.6513C34.8438 17.6281 34.6913 17.6165 34.5389 17.6165C34.1876 17.6165 33.8743 17.6911 33.5993 17.8402C33.3275 17.986 33.112 18.1899 32.9529 18.4517C32.7939 18.7102 32.7143 19.0052 32.7143 19.3366V24H31.2278ZM39.6186 24.1541C38.8662 24.1541 38.2183 23.9934 37.6747 23.6719C37.1345 23.3471 36.7169 22.8913 36.4219 22.3047C36.1302 21.7147 35.9844 21.0237 35.9844 20.2315C35.9844 19.4493 36.1302 18.7599 36.4219 18.1634C36.7169 17.5668 37.1278 17.1011 37.6548 16.7663C38.1851 16.4316 38.8049 16.2642 39.5142 16.2642C39.9451 16.2642 40.3627 16.3355 40.767 16.478C41.1714 16.6205 41.5343 16.8442 41.8558 17.1491C42.1773 17.4541 42.4309 17.8501 42.6165 18.3374C42.8021 18.8213 42.8949 19.4096 42.8949 20.1023V20.6293H36.8246V19.5156H41.4382C41.4382 19.1245 41.3587 18.7782 41.1996 18.4766C41.0405 18.1716 40.8168 17.9313 40.5284 17.7557C40.2434 17.58 39.9086 17.4922 39.5241 17.4922C39.1065 17.4922 38.742 17.5949 38.4304 17.8004C38.1222 18.0026 37.8835 18.2678 37.7145 18.5959C37.5488 18.9207 37.4659 19.2737 37.4659 19.6548V20.5249C37.4659 21.0353 37.5554 21.4695 37.7344 21.8274C37.9167 22.1854 38.1702 22.4588 38.495 22.6477C38.8198 22.8333 39.1993 22.9261 39.6335 22.9261C39.9152 22.9261 40.1721 22.8864 40.4041 22.8068C40.6361 22.724 40.8366 22.6013 41.0057 22.4389C41.1747 22.2765 41.304 22.076 41.3935 21.8374L42.8004 22.0909C42.6877 22.5052 42.4856 22.8681 42.1939 23.1797C41.9055 23.4879 41.5426 23.7282 41.1051 23.9006C40.6709 24.0696 40.1754 24.1541 39.6186 24.1541ZM46.0307 19.4659V24H44.5442V16.3636H45.9711V17.6065H46.0655C46.2412 17.2022 46.5163 16.8774 46.8908 16.6321C47.2686 16.3868 47.7443 16.2642 48.3176 16.2642C48.838 16.2642 49.2937 16.3736 49.6848 16.5923C50.0759 16.8078 50.3792 17.1293 50.5946 17.5568C50.8101 17.9844 50.9178 18.513 50.9178 19.1428V24H49.4313V19.3217C49.4313 18.7682 49.2871 18.3357 48.9988 18.0241C48.7104 17.7093 48.3143 17.5518 47.8105 17.5518C47.4658 17.5518 47.1593 17.6264 46.8908 17.7756C46.6257 17.9247 46.4152 18.1435 46.2594 18.4318C46.1069 18.7169 46.0307 19.0616 46.0307 19.4659ZM56.128 24.1541C55.3889 24.1541 54.7525 23.9867 54.2189 23.652C53.6886 23.3139 53.281 22.8482 52.9959 22.255C52.7109 21.6617 52.5684 20.9822 52.5684 20.2166C52.5684 19.4411 52.7142 18.7566 53.0059 18.1634C53.2975 17.5668 53.7085 17.1011 54.2388 16.7663C54.7691 16.4316 55.3939 16.2642 56.1131 16.2642C56.6931 16.2642 57.2102 16.3719 57.6642 16.5874C58.1183 16.7995 58.4846 17.0978 58.763 17.4822C59.0447 17.8667 59.2121 18.3158 59.2651 18.8295H57.8184C57.7388 18.4716 57.5565 18.1634 57.2715 17.9048C56.9898 17.6463 56.6119 17.517 56.138 17.517C55.7237 17.517 55.3607 17.6264 55.0492 17.8452C54.7409 18.0606 54.5007 18.3688 54.3283 18.7699C54.156 19.1676 54.0698 19.6383 54.0698 20.1818C54.0698 20.7386 54.1543 21.2192 54.3233 21.6236C54.4924 22.0279 54.731 22.3411 55.0392 22.5632C55.3508 22.7853 55.717 22.8963 56.138 22.8963C56.4197 22.8963 56.6749 22.8449 56.9036 22.7422C57.1356 22.6361 57.3295 22.4853 57.4853 22.2898C57.6444 22.0942 57.7554 21.8589 57.8184 21.5838H59.2651C59.2121 22.0777 59.0513 22.5185 58.7828 22.9062C58.5144 23.294 58.1548 23.599 57.704 23.821C57.2566 24.0431 56.7312 24.1541 56.128 24.1541ZM64.146 24.1541C63.3936 24.1541 62.7456 23.9934 62.2021 23.6719C61.6618 23.3471 61.2442 22.8913 60.9492 22.3047C60.6576 21.7147 60.5117 21.0237 60.5117 20.2315C60.5117 19.4493 60.6576 18.7599 60.9492 18.1634C61.2442 17.5668 61.6552 17.1011 62.1822 16.7663C62.7125 16.4316 63.3323 16.2642 64.0415 16.2642C64.4724 16.2642 64.89 16.3355 65.2944 16.478C65.6987 16.6205 66.0617 16.8442 66.3832 17.1491C66.7047 17.4541 66.9582 17.8501 67.1438 18.3374C67.3294 18.8213 67.4222 19.4096 67.4222 20.1023V20.6293H61.3519V19.5156H65.9656C65.9656 19.1245 65.886 18.7782 65.7269 18.4766C65.5678 18.1716 65.3441 17.9313 65.0558 17.7557C64.7707 17.58 64.436 17.4922 64.0515 17.4922C63.6339 17.4922 63.2693 17.5949 62.9577 17.8004C62.6495 18.0026 62.4109 18.2678 62.2418 18.5959C62.0761 18.9207 61.9933 19.2737 61.9933 19.6548V20.5249C61.9933 21.0353 62.0827 21.4695 62.2617 21.8274C62.444 22.1854 62.6976 22.4588 63.0224 22.6477C63.3472 22.8333 63.7267 22.9261 64.1609 22.9261C64.4426 22.9261 64.6995 22.8864 64.9315 22.8068C65.1635 22.724 65.364 22.6013 65.533 22.4389C65.7021 22.2765 65.8313 22.076 65.9208 21.8374L67.3278 22.0909C67.2151 22.5052 67.0129 22.8681 66.7212 23.1797C66.4329 23.4879 66.07 23.7282 65.6325 23.9006C65.1983 24.0696 64.7028 24.1541 64.146 24.1541ZM72.7766 24V16.3636H74.2631V24H72.7766ZM73.5273 15.1854C73.2688 15.1854 73.0468 15.0992 72.8612 14.9268C72.6789 14.7512 72.5877 14.5424 72.5877 14.3004C72.5877 14.0552 72.6789 13.8464 72.8612 13.674C73.0468 13.4983 73.2688 13.4105 73.5273 13.4105C73.7859 13.4105 74.0063 13.4983 74.1886 13.674C74.3742 13.8464 74.467 14.0552 74.467 14.3004C74.467 14.5424 74.3742 14.7512 74.1886 14.9268C74.0063 15.0992 73.7859 15.1854 73.5273 15.1854ZM76.263 24V16.3636H77.6898V17.6065H77.7843C77.9434 17.1856 78.2035 16.8575 78.5648 16.6222C78.9261 16.3835 79.3586 16.2642 79.8624 16.2642C80.3728 16.2642 80.8004 16.3835 81.1451 16.6222C81.4931 16.8608 81.7499 17.1889 81.9157 17.6065H81.9952C82.1775 17.1989 82.4675 16.8741 82.8652 16.6321C83.263 16.3868 83.7369 16.2642 84.2871 16.2642C84.9798 16.2642 85.5449 16.4813 85.9824 16.9155C86.4232 17.3497 86.6436 18.0043 86.6436 18.8793V24H85.1571V19.0185C85.1571 18.5014 85.0163 18.1269 84.7346 17.8949C84.4528 17.6629 84.1164 17.5469 83.7253 17.5469C83.2414 17.5469 82.8652 17.696 82.5968 17.9943C82.3283 18.2893 82.1941 18.6688 82.1941 19.1328V24H80.7125V18.924C80.7125 18.5097 80.5833 18.1766 80.3248 17.9247C80.0662 17.6728 79.7298 17.5469 79.3155 17.5469C79.0338 17.5469 78.7736 17.6214 78.535 17.7706C78.2997 17.9164 78.1091 18.1203 77.9632 18.3821C77.8207 18.6439 77.7495 18.9472 77.7495 19.2919V24H76.263ZM90.8583 24.169C90.3744 24.169 89.9369 24.0795 89.5458 23.9006C89.1547 23.7183 88.8448 23.4548 88.6161 23.1101C88.3907 22.7654 88.2781 22.3428 88.2781 21.8423C88.2781 21.4115 88.3609 21.0568 88.5266 20.7784C88.6924 20.5 88.9161 20.2796 89.1978 20.1172C89.4795 19.9548 89.7944 19.8321 90.1424 19.7493C90.4904 19.6664 90.8451 19.6035 91.2063 19.5604C91.6637 19.5073 92.0349 19.4643 92.32 19.4311C92.605 19.3946 92.8121 19.3366 92.9414 19.2571C93.0707 19.1776 93.1353 19.0483 93.1353 18.8693V18.8345C93.1353 18.4003 93.0127 18.0639 92.7674 17.8253C92.5255 17.5866 92.1642 17.4673 91.6836 17.4673C91.1831 17.4673 90.7887 17.5784 90.5004 17.8004C90.2153 18.0192 90.0181 18.2628 89.9087 18.5312L88.5117 18.2131C88.6774 17.7491 88.9194 17.3745 89.2376 17.0895C89.5591 16.8011 89.9286 16.5923 90.3462 16.4631C90.7638 16.3305 91.203 16.2642 91.6637 16.2642C91.9686 16.2642 92.2918 16.3007 92.6332 16.3736C92.9779 16.4432 93.2994 16.5724 93.5977 16.7614C93.8993 16.9503 94.1462 17.2204 94.3384 17.5717C94.5307 17.9197 94.6268 18.3722 94.6268 18.929V24H93.1751V22.956H93.1154C93.0193 23.1482 92.8751 23.3371 92.6829 23.5227C92.4906 23.7083 92.2437 23.8625 91.9421 23.9851C91.6405 24.1077 91.2792 24.169 90.8583 24.169ZM91.1815 22.9759C91.5924 22.9759 91.9438 22.8946 92.2354 22.7322C92.5304 22.5698 92.7541 22.3577 92.9066 22.0959C93.0624 21.8307 93.1403 21.5473 93.1403 21.2457V20.2614C93.0872 20.3144 92.9845 20.3641 92.832 20.4105C92.6829 20.4536 92.5122 20.4917 92.32 20.5249C92.1277 20.5547 91.9405 20.5829 91.7582 20.6094C91.5759 20.6326 91.4234 20.6525 91.3008 20.669C91.0124 20.7055 90.7489 20.7668 90.5103 20.853C90.275 20.9392 90.0861 21.0634 89.9435 21.2259C89.8043 21.3849 89.7347 21.5971 89.7347 21.8622C89.7347 22.2301 89.8706 22.5085 90.1424 22.6974C90.4142 22.883 90.7605 22.9759 91.1815 22.9759ZM99.8084 27.0227C99.2019 27.0227 98.6799 26.9432 98.2424 26.7841C97.8082 26.625 97.4535 26.4145 97.1784 26.1527C96.9033 25.8909 96.6979 25.6042 96.562 25.2926L97.8397 24.7656C97.9292 24.9115 98.0485 25.0656 98.1976 25.228C98.3501 25.3937 98.5556 25.5346 98.8141 25.6506C99.0759 25.7666 99.4123 25.8246 99.8233 25.8246C100.387 25.8246 100.852 25.687 101.22 25.4119C101.588 25.1402 101.772 24.706 101.772 24.1094V22.608H101.678C101.588 22.7704 101.459 22.951 101.29 23.1499C101.124 23.3487 100.896 23.5211 100.604 23.6669C100.312 23.8127 99.9327 23.8857 99.4654 23.8857C98.8622 23.8857 98.3186 23.7448 97.8347 23.4631C97.3541 23.178 96.973 22.7588 96.6912 22.2053C96.4128 21.6484 96.2736 20.964 96.2736 20.152C96.2736 19.34 96.4112 18.6439 96.6863 18.0639C96.9647 17.4839 97.3458 17.0398 97.8297 16.7315C98.3136 16.42 98.8622 16.2642 99.4753 16.2642C99.9493 16.2642 100.332 16.3438 100.624 16.5028C100.915 16.6586 101.142 16.8409 101.305 17.0497C101.471 17.2585 101.598 17.4425 101.688 17.6016H101.797V16.3636H103.254V24.169C103.254 24.8253 103.101 25.3639 102.796 25.7848C102.491 26.2057 102.079 26.5173 101.558 26.7195C101.041 26.9216 100.458 27.0227 99.8084 27.0227ZM99.7935 22.6527C100.221 22.6527 100.582 22.5533 100.877 22.3544C101.176 22.1522 101.401 21.8639 101.553 21.4893C101.709 21.1115 101.787 20.6591 101.787 20.1321C101.787 19.6184 101.711 19.166 101.558 18.7749C101.406 18.3838 101.182 18.0788 100.887 17.8601C100.592 17.638 100.228 17.527 99.7935 17.527C99.3461 17.527 98.9732 17.643 98.6749 17.875C98.3766 18.1037 98.1512 18.4152 97.9988 18.8097C97.8496 19.2041 97.775 19.6449 97.775 20.1321C97.775 20.6326 97.8513 21.0717 98.0037 21.4496C98.1562 21.8274 98.3816 22.1224 98.6799 22.3345C98.9815 22.5466 99.3527 22.6527 99.7935 22.6527ZM108.539 24.1541C107.786 24.1541 107.138 23.9934 106.595 23.6719C106.054 23.3471 105.637 22.8913 105.342 22.3047C105.05 21.7147 104.904 21.0237 104.904 20.2315C104.904 19.4493 105.05 18.7599 105.342 18.1634C105.637 17.5668 106.048 17.1011 106.575 16.7663C107.105 16.4316 107.725 16.2642 108.434 16.2642C108.865 16.2642 109.283 16.3355 109.687 16.478C110.091 16.6205 110.454 16.8442 110.776 17.1491C111.097 17.4541 111.351 17.8501 111.536 18.3374C111.722 18.8213 111.815 19.4096 111.815 20.1023V20.6293H105.744V19.5156H110.358C110.358 19.1245 110.279 18.7782 110.119 18.4766C109.96 18.1716 109.737 17.9313 109.448 17.7557C109.163 17.58 108.829 17.4922 108.444 17.4922C108.026 17.4922 107.662 17.5949 107.35 17.8004C107.042 18.0026 106.803 18.2678 106.634 18.5959C106.469 18.9207 106.386 19.2737 106.386 19.6548V20.5249C106.386 21.0353 106.475 21.4695 106.654 21.8274C106.837 22.1854 107.09 22.4588 107.415 22.6477C107.74 22.8333 108.119 22.9261 108.553 22.9261C108.835 22.9261 109.092 22.8864 109.324 22.8068C109.556 22.724 109.757 22.6013 109.926 22.4389C110.095 22.2765 110.224 22.076 110.313 21.8374L111.72 22.0909C111.608 22.5052 111.405 22.8681 111.114 23.1797C110.825 23.4879 110.463 23.7282 110.025 23.9006C109.591 24.0696 109.095 24.1541 108.539 24.1541Z" fill="#222222"/>
<path d="M271.4 21.2019L270.692 20.4942L276 15.1865L281.308 20.4942L280.6 21.2019L276 16.6019L271.4 21.2019Z" fill="#222222"/>
<path d="M5.61538 65C5.15513 65 4.77083 64.8458 4.4625 64.5375C4.15417 64.2292 4 63.8449 4 63.3846V50.6154C4 50.1551 4.15417 49.7708 4.4625 49.4625C4.77083 49.1542 5.15513 49 5.61538 49H18.3846C18.8449 49 19.2292 49.1542 19.5375 49.4625C19.8458 49.7708 20 50.1551 20 50.6154V63.3846C20 63.8449 19.8458 64.2292 19.5375 64.5375C19.2292 64.8458 18.8449 65 18.3846 65H5.61538ZM5.61538 64H18.3846C18.5385 64 18.6795 63.9359 18.8077 63.8077C18.9359 63.6795 19 63.5385 19 63.3846V50.6154C19 50.4615 18.9359 50.3205 18.8077 50.1923C18.6795 50.0641 18.5385 50 18.3846 50H5.61538C5.46154 50 5.32052 50.0641 5.1923 50.1923C5.0641 50.3205 5 50.4615 5 50.6154V63.3846C5 63.5385 5.0641 63.6795 5.1923 63.8077C5.32052 63.9359 5.46154 64 5.61538 64ZM7.5 61.5H16.6538L13.8269 57.7308L11.2116 61.0385L9.46152 58.9231L7.5 61.5Z" fill="#222222"/>
<path d="M33.0568 61V52.2727H38.2898V53.2102H34.1136V56.1591H37.8977V57.0966H34.1136V61H33.0568ZM40.9691 52.2727V61H39.9634V52.2727H40.9691ZM45.4702 61.1364C44.8793 61.1364 44.3608 60.9957 43.9148 60.7145C43.4716 60.4332 43.125 60.0398 42.875 59.5341C42.6278 59.0284 42.5043 58.4375 42.5043 57.7614C42.5043 57.0795 42.6278 56.4844 42.875 55.9759C43.125 55.4673 43.4716 55.0724 43.9148 54.7912C44.3608 54.5099 44.8793 54.3693 45.4702 54.3693C46.0611 54.3693 46.5781 54.5099 47.0213 54.7912C47.4673 55.0724 47.8139 55.4673 48.0611 55.9759C48.3111 56.4844 48.4361 57.0795 48.4361 57.7614C48.4361 58.4375 48.3111 59.0284 48.0611 59.5341C47.8139 60.0398 47.4673 60.4332 47.0213 60.7145C46.5781 60.9957 46.0611 61.1364 45.4702 61.1364ZM45.4702 60.233C45.919 60.233 46.2884 60.1179 46.5781 59.8878C46.8679 59.6577 47.0824 59.3551 47.2216 58.9801C47.3608 58.6051 47.4304 58.1989 47.4304 57.7614C47.4304 57.3239 47.3608 56.9162 47.2216 56.5384C47.0824 56.1605 46.8679 55.8551 46.5781 55.6222C46.2884 55.3892 45.919 55.2727 45.4702 55.2727C45.0213 55.2727 44.652 55.3892 44.3622 55.6222C44.0724 55.8551 43.858 56.1605 43.7188 56.5384C43.5795 56.9162 43.5099 57.3239 43.5099 57.7614C43.5099 58.1989 43.5795 58.6051 43.7188 58.9801C43.858 59.3551 44.0724 59.6577 44.3622 59.8878C44.652 60.1179 45.0213 60.233 45.4702 60.233ZM52.6303 61.1364C52.0394 61.1364 51.521 60.9957 51.0749 60.7145C50.6317 60.4332 50.2852 60.0398 50.0352 59.5341C49.788 59.0284 49.6644 58.4375 49.6644 57.7614C49.6644 57.0795 49.788 56.4844 50.0352 55.9759C50.2852 55.4673 50.6317 55.0724 51.0749 54.7912C51.521 54.5099 52.0394 54.3693 52.6303 54.3693C53.2212 54.3693 53.7383 54.5099 54.1815 54.7912C54.6275 55.0724 54.9741 55.4673 55.2212 55.9759C55.4712 56.4844 55.5962 57.0795 55.5962 57.7614C55.5962 58.4375 55.4712 59.0284 55.2212 59.5341C54.9741 60.0398 54.6275 60.4332 54.1815 60.7145C53.7383 60.9957 53.2212 61.1364 52.6303 61.1364ZM52.6303 60.233C53.0792 60.233 53.4485 60.1179 53.7383 59.8878C54.0281 59.6577 54.2425 59.3551 54.3817 58.9801C54.521 58.6051 54.5906 58.1989 54.5906 57.7614C54.5906 57.3239 54.521 56.9162 54.3817 56.5384C54.2425 56.1605 54.0281 55.8551 53.7383 55.6222C53.4485 55.3892 53.0792 55.2727 52.6303 55.2727C52.1815 55.2727 51.8121 55.3892 51.5224 55.6222C51.2326 55.8551 51.0181 56.1605 50.8789 56.5384C50.7397 56.9162 50.6701 57.3239 50.6701 57.7614C50.6701 58.1989 50.7397 58.6051 50.8789 58.9801C51.0181 59.3551 51.2326 59.6577 51.5224 59.8878C51.8121 60.1179 52.1815 60.233 52.6303 60.233ZM57.1314 61V54.4545H58.103V55.4432H58.1712C58.2905 55.1193 58.5064 54.8565 58.8189 54.6548C59.1314 54.4531 59.4837 54.3523 59.8757 54.3523C59.9496 54.3523 60.0419 54.3537 60.1527 54.3565C60.2635 54.3594 60.3473 54.3636 60.4041 54.3693V55.392C60.37 55.3835 60.2919 55.3707 60.1697 55.3537C60.0504 55.3338 59.924 55.3239 59.7905 55.3239C59.4723 55.3239 59.1882 55.3906 58.9382 55.5241C58.6911 55.6548 58.495 55.8366 58.3501 56.0696C58.2081 56.2997 58.1371 56.5625 58.1371 56.858V61H57.1314ZM61.5962 63.4545V54.4545H62.5678V55.4943H62.6871C62.761 55.3807 62.8633 55.2358 62.994 55.0597C63.1275 54.8807 63.3178 54.7216 63.565 54.5824C63.815 54.4403 64.1531 54.3693 64.5792 54.3693C65.1303 54.3693 65.6161 54.5071 66.0366 54.7827C66.457 55.0582 66.7852 55.4489 67.021 55.9545C67.2567 56.4602 67.3746 57.0568 67.3746 57.7443C67.3746 58.4375 67.2567 59.0384 67.021 59.5469C66.7852 60.0526 66.4585 60.4446 66.0408 60.723C65.6232 60.9986 65.1417 61.1364 64.5962 61.1364C64.1758 61.1364 63.8391 61.0668 63.5863 60.9276C63.3335 60.7855 63.1388 60.625 63.0025 60.446C62.8661 60.2642 62.761 60.1136 62.6871 59.9943H62.6019V63.4545H61.5962ZM62.5849 57.7273C62.5849 58.2216 62.6573 58.6577 62.8022 59.0355C62.9471 59.4105 63.1587 59.7045 63.4371 59.9176C63.7156 60.1278 64.0565 60.233 64.4599 60.233C64.8803 60.233 65.2312 60.1222 65.5124 59.9006C65.7965 59.6761 66.0096 59.375 66.1516 58.9972C66.2965 58.6165 66.369 58.1932 66.369 57.7273C66.369 57.267 66.2979 56.8523 66.1559 56.483C66.0167 56.1108 65.805 55.8168 65.521 55.6009C65.2397 55.3821 64.886 55.2727 64.4599 55.2727C64.0508 55.2727 63.707 55.3764 63.4286 55.5838C63.1502 55.7884 62.94 56.0753 62.7979 56.4446C62.6559 56.8111 62.5849 57.2386 62.5849 57.7273ZM69.9144 52.2727V61H68.9087V52.2727H69.9144ZM73.6825 61.1534C73.2678 61.1534 72.8913 61.0753 72.5533 60.919C72.2152 60.7599 71.9467 60.5312 71.7479 60.233C71.549 59.9318 71.4496 59.5682 71.4496 59.142C71.4496 58.767 71.5234 58.4631 71.6712 58.2301C71.8189 57.9943 72.0163 57.8097 72.2635 57.6761C72.5107 57.5426 72.7834 57.4432 73.0817 57.3778C73.3828 57.3097 73.6854 57.2557 73.9893 57.2159C74.3871 57.1648 74.7095 57.1264 74.9567 57.1009C75.2067 57.0724 75.3885 57.0256 75.5021 56.9602C75.6186 56.8949 75.6768 56.7812 75.6768 56.6193V56.5852C75.6768 56.1648 75.5618 55.8381 75.3317 55.6051C75.1044 55.3722 74.7592 55.2557 74.2962 55.2557C73.8161 55.2557 73.4396 55.3608 73.1669 55.571C72.8942 55.7812 72.7024 56.0057 72.5916 56.2443L71.6371 55.9034C71.8075 55.5057 72.0348 55.196 72.3189 54.9744C72.6058 54.75 72.9183 54.5937 73.2564 54.5057C73.5973 54.4148 73.9325 54.3693 74.2621 54.3693C74.4723 54.3693 74.7138 54.3949 74.9865 54.446C75.2621 54.4943 75.5277 54.5952 75.7834 54.7486C76.0419 54.902 76.2564 55.1335 76.4268 55.4432C76.5973 55.7528 76.6825 56.1676 76.6825 56.6875V61H75.6768V60.1136H75.6257C75.5575 60.2557 75.4439 60.4077 75.2848 60.5696C75.1257 60.7315 74.9141 60.8693 74.6499 60.983C74.3857 61.0966 74.0632 61.1534 73.6825 61.1534ZM73.8359 60.25C74.2337 60.25 74.5689 60.1719 74.8416 60.0156C75.1172 59.8594 75.3246 59.6577 75.4638 59.4105C75.6058 59.1634 75.6768 58.9034 75.6768 58.6307V57.7102C75.6342 57.7614 75.5405 57.8082 75.3956 57.8509C75.2536 57.8906 75.0888 57.9261 74.9013 57.9574C74.7166 57.9858 74.5362 58.0114 74.3601 58.0341C74.1868 58.054 74.0462 58.071 73.9382 58.0852C73.6768 58.1193 73.4325 58.1747 73.2053 58.2514C72.9808 58.3253 72.799 58.4375 72.6598 58.5881C72.5234 58.7358 72.4553 58.9375 72.4553 59.1932C72.4553 59.5426 72.5845 59.8068 72.843 59.9858C73.1044 60.1619 73.4354 60.25 73.8359 60.25ZM79.5238 57.0625V61H78.5181V54.4545H79.4897V55.4773H79.5749C79.7283 55.1449 79.9613 54.8778 80.2738 54.6761C80.5863 54.4716 80.9897 54.3693 81.484 54.3693C81.9272 54.3693 82.315 54.4602 82.6474 54.642C82.9798 54.821 83.2383 55.0938 83.4229 55.4602C83.6076 55.8239 83.6999 56.2841 83.6999 56.8409V61H82.6942V56.9091C82.6942 56.3949 82.5607 55.9943 82.2937 55.7074C82.0266 55.4176 81.6602 55.2727 81.1942 55.2727C80.8732 55.2727 80.5863 55.3423 80.3335 55.4815C80.0835 55.6207 79.886 55.8239 79.7411 56.0909C79.5962 56.358 79.5238 56.6818 79.5238 57.0625ZM86.2706 61.0682C86.0604 61.0682 85.88 60.9929 85.7294 60.8423C85.5788 60.6918 85.5036 60.5114 85.5036 60.3011C85.5036 60.0909 85.5788 59.9105 85.7294 59.7599C85.88 59.6094 86.0604 59.5341 86.2706 59.5341C86.4808 59.5341 86.6612 59.6094 86.8118 59.7599C86.9624 59.9105 87.0376 60.0909 87.0376 60.3011C87.0376 60.4403 87.0021 60.5682 86.9311 60.6847C86.8629 60.8011 86.7706 60.8949 86.6541 60.9659C86.5405 61.0341 86.4126 61.0682 86.2706 61.0682ZM91.6719 61H88.9787V52.2727H91.7912C92.6378 52.2727 93.3622 52.4474 93.9645 52.7969C94.5668 53.1435 95.0284 53.642 95.3494 54.2926C95.6705 54.9403 95.831 55.7159 95.831 56.6193C95.831 57.5284 95.669 58.3111 95.3452 58.9673C95.0213 59.6207 94.5497 60.1236 93.9304 60.4759C93.3111 60.8253 92.5582 61 91.6719 61ZM90.0355 60.0625H91.6037C92.3253 60.0625 92.9233 59.9233 93.3977 59.6449C93.8722 59.3665 94.2259 58.9702 94.4588 58.456C94.6918 57.9418 94.8082 57.3295 94.8082 56.6193C94.8082 55.9148 94.6932 55.3082 94.4631 54.7997C94.233 54.2884 93.8892 53.8963 93.4318 53.6236C92.9744 53.348 92.4048 53.2102 91.723 53.2102H90.0355V60.0625ZM99.1889 61L96.8026 52.2727H97.8764L99.7003 59.3807H99.7855L101.643 52.2727H102.837L104.695 59.3807H104.78L106.604 52.2727H107.678L105.291 61H104.2L102.274 54.0455H102.206L100.28 61H99.1889ZM114.55 55C114.456 54.7131 114.333 54.456 114.179 54.2287C114.029 53.9986 113.848 53.8026 113.638 53.6406C113.431 53.4787 113.195 53.3551 112.931 53.2699C112.667 53.1847 112.377 53.142 112.061 53.142C111.544 53.142 111.074 53.2756 110.651 53.5426C110.228 53.8097 109.891 54.2031 109.641 54.723C109.391 55.2429 109.266 55.8807 109.266 56.6364C109.266 57.392 109.392 58.0298 109.645 58.5497C109.898 59.0696 110.24 59.4631 110.672 59.7301C111.104 59.9972 111.59 60.1307 112.13 60.1307C112.63 60.1307 113.07 60.0241 113.451 59.8111C113.834 59.5952 114.132 59.2912 114.346 58.8991C114.561 58.5043 114.669 58.0398 114.669 57.5057L114.993 57.5739H112.368V56.6364H115.692V57.5739C115.692 58.2926 115.539 58.9176 115.232 59.4489C114.928 59.9801 114.507 60.392 113.971 60.6847C113.436 60.9744 112.823 61.1193 112.13 61.1193C111.357 61.1193 110.678 60.9375 110.093 60.5739C109.51 60.2102 109.056 59.6932 108.729 59.0227C108.405 58.3523 108.243 57.5568 108.243 56.6364C108.243 55.946 108.336 55.3253 108.52 54.7741C108.708 54.2202 108.972 53.7486 109.313 53.3594C109.654 52.9702 110.057 52.6719 110.523 52.4645C110.989 52.2571 111.502 52.1534 112.061 52.1534C112.522 52.1534 112.951 52.223 113.348 52.3622C113.749 52.4986 114.105 52.6932 114.418 52.946C114.733 53.196 114.996 53.4957 115.206 53.8452C115.417 54.1918 115.561 54.5767 115.641 55H114.55Z" fill="#222222"/>
<path d="M248.651 65V61.8372H240.592C240.193 61.8372 239.855 61.6988 239.578 61.4221C239.301 61.1453 239.163 60.8073 239.163 60.4079V52.3488H236V51.1628H239.163V48H240.349V60.4079C240.349 60.4687 240.374 60.5244 240.425 60.5751C240.476 60.6258 240.531 60.6512 240.592 60.6512H253V61.8372H249.837V65L248.651 65ZM248.651 59.4651V52.5921C248.651 52.5313 248.626 52.4755 248.575 52.4248C248.524 52.3742 248.469 52.3488 248.408 52.3488H241.535V51.1628H248.408C248.807 51.1628 249.145 51.3012 249.422 51.5779C249.699 51.8546 249.837 52.1927 249.837 52.5921V59.4651H248.651Z" fill="#222222"/>
<path d="M271.615 65C271.168 65 270.787 64.8426 270.472 64.5279C270.157 64.2131 270 63.832 270 63.3846V51H269V50H273V49.2307H279V50H283V51H282V63.3846C282 63.8448 281.846 64.2291 281.538 64.5375C281.229 64.8458 280.845 65 280.385 65H271.615ZM281 51H271V63.3846C271 63.5641 271.058 63.7115 271.173 63.8269C271.288 63.9423 271.436 64 271.615 64H280.385C280.538 64 280.679 63.9359 280.808 63.8077C280.936 63.6794 281 63.5384 281 63.3846V51ZM273.808 62H274.808V53H273.808V62ZM277.192 62H278.192V53H277.192V62Z" fill="#222222"/>
<path d="M0.880682 96.5V89.2273H3.33807C3.90625 89.2273 4.37263 89.3243 4.73722 89.5185C5.1018 89.7102 5.37169 89.9742 5.54688 90.3104C5.72206 90.6465 5.80966 91.0289 5.80966 91.4574C5.80966 91.8859 5.72206 92.2659 5.54688 92.5973C5.37169 92.9287 5.10298 93.1892 4.74077 93.3786C4.37855 93.5656 3.91572 93.6591 3.35227 93.6591H1.36364V92.8636H3.32386C3.71212 92.8636 4.02462 92.8068 4.26136 92.6932C4.50047 92.5795 4.6733 92.4186 4.77983 92.2102C4.88873 91.9995 4.94318 91.7486 4.94318 91.4574C4.94318 91.1662 4.88873 90.9117 4.77983 90.6939C4.67093 90.4761 4.49692 90.308 4.25781 90.1896C4.0187 90.0689 3.70265 90.0085 3.30966 90.0085H1.76136V96.5H0.880682ZM4.30398 93.233L6.09375 96.5H5.07102L3.30966 93.233H4.30398ZM9.32085 96.6136C8.82842 96.6136 8.39637 96.4964 8.02468 96.2621C7.65536 96.0277 7.36654 95.6998 7.1582 95.2784C6.95224 94.857 6.84925 94.3646 6.84925 93.8011C6.84925 93.233 6.95224 92.737 7.1582 92.3132C7.36654 91.8894 7.65536 91.5604 8.02468 91.326C8.39637 91.0916 8.82842 90.9744 9.32085 90.9744C9.81327 90.9744 10.2441 91.0916 10.6135 91.326C10.9851 91.5604 11.274 91.8894 11.4799 92.3132C11.6883 92.737 11.7924 93.233 11.7924 93.8011C11.7924 94.3646 11.6883 94.857 11.4799 95.2784C11.274 95.6998 10.9851 96.0277 10.6135 96.2621C10.2441 96.4964 9.81327 96.6136 9.32085 96.6136ZM9.32085 95.8608C9.6949 95.8608 10.0027 95.7649 10.2441 95.5732C10.4856 95.3814 10.6644 95.1293 10.7804 94.8168C10.8964 94.5043 10.9544 94.1657 10.9544 93.8011C10.9544 93.4366 10.8964 93.0968 10.7804 92.782C10.6644 92.4671 10.4856 92.2126 10.2441 92.0185C10.0027 91.8243 9.6949 91.7273 9.32085 91.7273C8.94679 91.7273 8.63903 91.8243 8.39755 92.0185C8.15607 92.2126 7.97733 92.4671 7.86133 92.782C7.74532 93.0968 7.68732 93.4366 7.68732 93.8011C7.68732 94.1657 7.74532 94.5043 7.86133 94.8168C7.97733 95.1293 8.15607 95.3814 8.39755 95.5732C8.63903 95.7649 8.94679 95.8608 9.32085 95.8608ZM15.4439 91.0455V91.7557H12.6172V91.0455H15.4439ZM13.4411 89.7386H14.2791V94.9375C14.2791 95.1742 14.3134 95.3518 14.3821 95.4702C14.4531 95.5862 14.5431 95.6643 14.652 95.7045C14.7633 95.7424 14.8804 95.7614 15.0036 95.7614C15.0959 95.7614 15.1716 95.7566 15.2308 95.7472C15.29 95.7353 15.3374 95.7259 15.3729 95.7188L15.5433 96.4716C15.4865 96.4929 15.4072 96.5142 15.3054 96.5355C15.2036 96.5592 15.0746 96.571 14.9183 96.571C14.6816 96.571 14.4496 96.5201 14.2223 96.4183C13.9974 96.3165 13.8104 96.1615 13.6612 95.9531C13.5144 95.7448 13.4411 95.482 13.4411 95.1648V89.7386ZM18.3097 96.6278C17.964 96.6278 17.6503 96.5627 17.3686 96.4325C17.0869 96.3 16.8632 96.1094 16.6974 95.8608C16.5317 95.6098 16.4489 95.3068 16.4489 94.9517C16.4489 94.6392 16.5104 94.3859 16.6335 94.1918C16.7566 93.9953 16.9212 93.8414 17.1271 93.7301C17.3331 93.6188 17.5604 93.536 17.8089 93.4815C18.0599 93.4247 18.312 93.3797 18.5653 93.3466C18.8968 93.304 19.1655 93.272 19.3714 93.2507C19.5798 93.227 19.7313 93.188 19.826 93.1335C19.9231 93.0791 19.9716 92.9844 19.9716 92.8494V92.821C19.9716 92.4706 19.8757 92.1984 19.6839 92.0043C19.4946 91.8101 19.2069 91.7131 18.821 91.7131C18.4209 91.7131 18.1072 91.8007 17.88 91.9759C17.6527 92.151 17.4929 92.3381 17.4006 92.5369L16.6051 92.2528C16.7472 91.9214 16.9366 91.6634 17.1733 91.4787C17.4124 91.2917 17.6728 91.1615 17.9545 91.0881C18.2386 91.0123 18.518 90.9744 18.7926 90.9744C18.9678 90.9744 19.169 90.9957 19.3963 91.0384C19.6259 91.0786 19.8473 91.1626 20.0604 91.2905C20.2758 91.4183 20.4545 91.6113 20.5966 91.8693C20.7386 92.1274 20.8097 92.473 20.8097 92.9062V96.5H19.9716V95.7614H19.929C19.8722 95.8797 19.7775 96.0064 19.6449 96.1413C19.5123 96.2763 19.3359 96.3911 19.1158 96.4858C18.8956 96.5805 18.6269 96.6278 18.3097 96.6278ZM18.4375 95.875C18.7689 95.875 19.0483 95.8099 19.2756 95.6797C19.5052 95.5495 19.678 95.3814 19.794 95.1754C19.9124 94.9695 19.9716 94.7528 19.9716 94.5256V93.7585C19.9361 93.8011 19.858 93.8402 19.7372 93.8757C19.6188 93.9089 19.4815 93.9384 19.3253 93.9645C19.1714 93.9882 19.0211 94.0095 18.8743 94.0284C18.7299 94.045 18.6127 94.0592 18.5227 94.071C18.3049 94.0994 18.1013 94.1456 17.9119 94.2095C17.7249 94.2711 17.5734 94.3646 17.4574 94.4901C17.3438 94.6132 17.2869 94.7812 17.2869 94.9943C17.2869 95.2855 17.3946 95.5057 17.6101 95.6548C17.8279 95.8016 18.1037 95.875 18.4375 95.875ZM24.7115 91.0455V91.7557H21.8848V91.0455H24.7115ZM22.7086 89.7386H23.5467V94.9375C23.5467 95.1742 23.581 95.3518 23.6497 95.4702C23.7207 95.5862 23.8107 95.6643 23.9196 95.7045C24.0308 95.7424 24.148 95.7614 24.2711 95.7614C24.3635 95.7614 24.4392 95.7566 24.4984 95.7472C24.5576 95.7353 24.6049 95.7259 24.6404 95.7188L24.8109 96.4716C24.7541 96.4929 24.6748 96.5142 24.573 96.5355C24.4712 96.5592 24.3422 96.571 24.1859 96.571C23.9492 96.571 23.7172 96.5201 23.4899 96.4183C23.265 96.3165 23.0779 96.1615 22.9288 95.9531C22.782 95.7448 22.7086 95.482 22.7086 95.1648V89.7386ZM25.9721 96.5V91.0455H26.8102V96.5H25.9721ZM26.3983 90.1364C26.2349 90.1364 26.094 90.0807 25.9757 89.9695C25.8597 89.8582 25.8017 89.7244 25.8017 89.5682C25.8017 89.4119 25.8597 89.2782 25.9757 89.1669C26.094 89.0556 26.2349 89 26.3983 89C26.5616 89 26.7013 89.0556 26.8173 89.1669C26.9357 89.2782 26.9949 89.4119 26.9949 89.5682C26.9949 89.7244 26.9357 89.8582 26.8173 89.9695C26.7013 90.0807 26.5616 90.1364 26.3983 90.1364ZM30.5611 96.6136C30.0687 96.6136 29.6366 96.4964 29.2649 96.2621C28.8956 96.0277 28.6068 95.6998 28.3984 95.2784C28.1925 94.857 28.0895 94.3646 28.0895 93.8011C28.0895 93.233 28.1925 92.737 28.3984 92.3132C28.6068 91.8894 28.8956 91.5604 29.2649 91.326C29.6366 91.0916 30.0687 90.9744 30.5611 90.9744C31.0535 90.9744 31.4844 91.0916 31.8537 91.326C32.2254 91.5604 32.5142 91.8894 32.7202 92.3132C32.9285 92.737 33.0327 93.233 33.0327 93.8011C33.0327 94.3646 32.9285 94.857 32.7202 95.2784C32.5142 95.6998 32.2254 96.0277 31.8537 96.2621C31.4844 96.4964 31.0535 96.6136 30.5611 96.6136ZM30.5611 95.8608C30.9351 95.8608 31.2429 95.7649 31.4844 95.5732C31.7259 95.3814 31.9046 95.1293 32.0206 94.8168C32.1366 94.5043 32.1946 94.1657 32.1946 93.8011C32.1946 93.4366 32.1366 93.0968 32.0206 92.782C31.9046 92.4671 31.7259 92.2126 31.4844 92.0185C31.2429 91.8243 30.9351 91.7273 30.5611 91.7273C30.187 91.7273 29.8793 91.8243 29.6378 92.0185C29.3963 92.2126 29.2176 92.4671 29.1016 92.782C28.9856 93.0968 28.9276 93.4366 28.9276 93.8011C28.9276 94.1657 28.9856 94.5043 29.1016 94.8168C29.2176 95.1293 29.3963 95.3814 29.6378 95.5732C29.8793 95.7649 30.187 95.8608 30.5611 95.8608ZM35.15 93.2188V96.5H34.312V91.0455H35.1216V91.8977H35.1926C35.3205 91.6207 35.5146 91.3982 35.775 91.2301C36.0355 91.0597 36.3716 90.9744 36.7836 90.9744C37.1529 90.9744 37.476 91.0502 37.753 91.2017C38.03 91.3509 38.2454 91.5781 38.3993 91.8835C38.5532 92.1866 38.6301 92.5701 38.6301 93.0341V96.5H37.7921V93.0909C37.7921 92.6624 37.6808 92.3286 37.4583 92.0895C37.2357 91.848 36.9303 91.7273 36.5421 91.7273C36.2746 91.7273 36.0355 91.7853 35.8248 91.9013C35.6164 92.0173 35.4519 92.1866 35.3311 92.4091C35.2104 92.6316 35.15 92.9015 35.15 93.2188Z" fill="#222222"/>
<rect width="90" height="32" transform="translate(198 77)" fill="#F7F7F7"/>
<path d="M209.75 97.1193C209.108 97.1193 208.561 96.9446 208.109 96.5952C207.658 96.2429 207.313 95.733 207.074 95.0653C206.835 94.3949 206.716 93.5852 206.716 92.6364C206.716 91.6932 206.835 90.8878 207.074 90.2202C207.315 89.5497 207.662 89.0384 208.114 88.6861C208.568 88.331 209.114 88.1534 209.75 88.1534C210.386 88.1534 210.93 88.331 211.382 88.6861C211.837 89.0384 212.183 89.5497 212.422 90.2202C212.663 90.8878 212.784 91.6932 212.784 92.6364C212.784 93.5852 212.665 94.3949 212.426 95.0653C212.188 95.733 211.842 96.2429 211.391 96.5952C210.939 96.9446 210.392 97.1193 209.75 97.1193ZM209.75 96.1818C210.386 96.1818 210.881 95.875 211.233 95.2614C211.585 94.6477 211.761 93.7727 211.761 92.6364C211.761 91.8807 211.68 91.2372 211.518 90.706C211.359 90.1747 211.129 89.7699 210.828 89.4915C210.53 89.2131 210.17 89.0739 209.75 89.0739C209.119 89.0739 208.626 89.3849 208.271 90.0071C207.916 90.6264 207.739 91.5028 207.739 92.6364C207.739 93.392 207.818 94.0341 207.977 94.5625C208.136 95.0909 208.365 95.4929 208.663 95.7685C208.964 96.044 209.327 96.1818 209.75 96.1818Z" fill="#222222"/>
<path d="M279.732 92.4375C279.431 92.4375 279.156 92.3641 278.908 92.2173C278.662 92.0705 278.465 91.8741 278.318 91.6278C278.172 91.3793 278.098 91.1046 278.098 90.804C278.098 90.5033 278.172 90.2299 278.318 89.9837C278.465 89.7351 278.662 89.5374 278.908 89.3906C279.156 89.2438 279.431 89.1705 279.732 89.1705C280.032 89.1705 280.306 89.2438 280.552 89.3906C280.801 89.5374 280.998 89.7351 281.145 89.9837C281.292 90.2299 281.365 90.5033 281.365 90.804C281.365 91.1046 281.292 91.3793 281.145 91.6278C280.998 91.8741 280.801 92.0705 280.552 92.2173C280.306 92.3641 280.032 92.4375 279.732 92.4375ZM279.732 91.7273C279.902 91.7273 280.057 91.6858 280.197 91.603C280.337 91.5201 280.448 91.4089 280.531 91.2692C280.614 91.1295 280.655 90.9744 280.655 90.804C280.655 90.6335 280.614 90.4785 280.531 90.3388C280.448 90.1991 280.337 90.0878 280.197 90.005C280.057 89.9221 279.902 89.8807 279.732 89.8807C279.561 89.8807 279.406 89.9221 279.267 90.005C279.127 90.0878 279.016 90.1991 278.933 90.3388C278.85 90.4785 278.808 90.6335 278.808 90.804C278.808 90.9744 278.85 91.1295 278.933 91.2692C279.016 91.4089 279.127 91.5201 279.267 91.603C279.406 91.6858 279.561 91.7273 279.732 91.7273Z" fill="#808080"/>
<path d="M7.01705 132.864C7.01705 133.631 6.87855 134.294 6.60156 134.852C6.32457 135.411 5.9446 135.842 5.46165 136.145C4.97869 136.448 4.42708 136.599 3.80682 136.599C3.18655 136.599 2.63494 136.448 2.15199 136.145C1.66903 135.842 1.28906 135.411 1.01207 134.852C0.735085 134.294 0.596591 133.631 0.596591 132.864C0.596591 132.097 0.735085 131.434 1.01207 130.875C1.28906 130.316 1.66903 129.885 2.15199 129.582C2.63494 129.279 3.18655 129.128 3.80682 129.128C4.42708 129.128 4.97869 129.279 5.46165 129.582C5.9446 129.885 6.32457 130.316 6.60156 130.875C6.87855 131.434 7.01705 132.097 7.01705 132.864ZM6.16477 132.864C6.16477 132.234 6.05942 131.702 5.84872 131.269C5.64039 130.836 5.35748 130.508 5 130.286C4.64489 130.063 4.24716 129.952 3.80682 129.952C3.36648 129.952 2.96757 130.063 2.61009 130.286C2.25497 130.508 1.97206 130.836 1.76136 131.269C1.55303 131.702 1.44886 132.234 1.44886 132.864C1.44886 133.493 1.55303 134.025 1.76136 134.458C1.97206 134.891 2.25497 135.219 2.61009 135.442C2.96757 135.664 3.36648 135.776 3.80682 135.776C4.24716 135.776 4.64489 135.664 5 135.442C5.35748 135.219 5.64039 134.891 5.84872 134.458C6.05942 134.025 6.16477 133.493 6.16477 132.864ZM8.38423 138.545V131.045H9.19389V131.912H9.29332C9.35488 131.817 9.4401 131.696 9.54901 131.55C9.66027 131.401 9.81889 131.268 10.0249 131.152C10.2332 131.034 10.5149 130.974 10.87 130.974C11.3293 130.974 11.7341 131.089 12.0845 131.319C12.4349 131.549 12.7083 131.874 12.9048 132.295C13.1013 132.717 13.1996 133.214 13.1996 133.787C13.1996 134.365 13.1013 134.865 12.9048 135.289C12.7083 135.71 12.4361 136.037 12.0881 136.269C11.7401 136.499 11.3388 136.614 10.8842 136.614C10.5339 136.614 10.2533 136.556 10.0426 136.44C9.83191 136.321 9.66974 136.187 9.55611 136.038C9.44247 135.887 9.35488 135.761 9.29332 135.662H9.2223V138.545H8.38423ZM9.2081 133.773C9.2081 134.185 9.26847 134.548 9.3892 134.863C9.50994 135.175 9.68632 135.42 9.91832 135.598C10.1503 135.773 10.4344 135.861 10.7706 135.861C11.121 135.861 11.4134 135.768 11.6477 135.584C11.8845 135.397 12.062 135.146 12.1804 134.831C12.3011 134.514 12.3615 134.161 12.3615 133.773C12.3615 133.389 12.3023 133.044 12.1839 132.736C12.0679 132.426 11.8916 132.181 11.6548 132.001C11.4205 131.818 11.1257 131.727 10.7706 131.727C10.4297 131.727 10.1432 131.814 9.91122 131.987C9.67921 132.157 9.50402 132.396 9.38565 132.704C9.26728 133.009 9.2081 133.366 9.2081 133.773ZM16.0831 136.628C15.7375 136.628 15.4238 136.563 15.142 136.433C14.8603 136.3 14.6366 136.109 14.4709 135.861C14.3052 135.61 14.2223 135.307 14.2223 134.952C14.2223 134.639 14.2839 134.386 14.407 134.192C14.5301 133.995 14.6946 133.841 14.9006 133.73C15.1065 133.619 15.3338 133.536 15.5824 133.482C15.8333 133.425 16.0855 133.38 16.3388 133.347C16.6702 133.304 16.9389 133.272 17.1449 133.251C17.3532 133.227 17.5047 133.188 17.5994 133.134C17.6965 133.079 17.745 132.984 17.745 132.849V132.821C17.745 132.471 17.6491 132.198 17.4574 132.004C17.268 131.81 16.9804 131.713 16.5945 131.713C16.1944 131.713 15.8807 131.801 15.6534 131.976C15.4261 132.151 15.2663 132.338 15.174 132.537L14.3786 132.253C14.5206 131.921 14.71 131.663 14.9467 131.479C15.1858 131.292 15.4463 131.161 15.728 131.088C16.0121 131.012 16.2914 130.974 16.5661 130.974C16.7412 130.974 16.9425 130.996 17.1697 131.038C17.3994 131.079 17.6207 131.163 17.8338 131.29C18.0492 131.418 18.228 131.611 18.37 131.869C18.5121 132.127 18.5831 132.473 18.5831 132.906V136.5H17.745V135.761H17.7024C17.6456 135.88 17.5509 136.006 17.4183 136.141C17.2857 136.276 17.1094 136.391 16.8892 136.486C16.669 136.58 16.4003 136.628 16.0831 136.628ZM16.2109 135.875C16.5424 135.875 16.8217 135.81 17.049 135.68C17.2786 135.549 17.4515 135.381 17.5675 135.175C17.6858 134.969 17.745 134.753 17.745 134.526V133.759C17.7095 133.801 17.6314 133.84 17.5107 133.876C17.3923 133.909 17.255 133.938 17.0987 133.964C16.9448 133.988 16.7945 134.009 16.6477 134.028C16.5033 134.045 16.3861 134.059 16.2962 134.071C16.0784 134.099 15.8748 134.146 15.6854 134.21C15.4983 134.271 15.3468 134.365 15.2308 134.49C15.1172 134.613 15.0604 134.781 15.0604 134.994C15.0604 135.286 15.1681 135.506 15.3835 135.655C15.6013 135.802 15.8771 135.875 16.2109 135.875ZM22.3287 136.614C21.8173 136.614 21.377 136.493 21.0076 136.251C20.6383 136.01 20.3542 135.677 20.1554 135.254C19.9565 134.83 19.8571 134.346 19.8571 133.801C19.8571 133.247 19.9589 132.758 20.1625 132.335C20.3684 131.908 20.6549 131.576 21.0218 131.337C21.3912 131.095 21.822 130.974 22.3145 130.974C22.698 130.974 23.0436 131.045 23.3514 131.188C23.6592 131.33 23.9113 131.528 24.1078 131.784C24.3043 132.04 24.4262 132.338 24.4735 132.679H23.6355C23.5716 132.43 23.4295 132.21 23.2093 132.018C22.9915 131.824 22.698 131.727 22.3287 131.727C22.002 131.727 21.7155 131.812 21.4693 131.983C21.2254 132.151 21.0349 132.389 20.8975 132.697C20.7626 133.002 20.6951 133.361 20.6951 133.773C20.6951 134.194 20.7614 134.561 20.894 134.874C21.0289 135.186 21.2183 135.429 21.4622 135.602C21.7084 135.774 21.9972 135.861 22.3287 135.861C22.5465 135.861 22.7441 135.823 22.9217 135.747C23.0993 135.671 23.2496 135.562 23.3727 135.42C23.4958 135.278 23.5834 135.108 23.6355 134.909H24.4735C24.4262 135.231 24.309 135.521 24.122 135.779C23.9373 136.035 23.6923 136.238 23.3869 136.39C23.0839 136.539 22.7311 136.614 22.3287 136.614ZM25.6987 136.5V131.045H26.5368V136.5H25.6987ZM26.1248 130.136C25.9615 130.136 25.8206 130.081 25.7022 129.969C25.5862 129.858 25.5282 129.724 25.5282 129.568C25.5282 129.412 25.5862 129.278 25.7022 129.167C25.8206 129.056 25.9615 129 26.1248 129C26.2882 129 26.4279 129.056 26.5439 129.167C26.6622 129.278 26.7214 129.412 26.7214 129.568C26.7214 129.724 26.6622 129.858 26.5439 129.969C26.4279 130.081 26.2882 130.136 26.1248 130.136ZM30.4439 131.045V131.756H27.6172V131.045H30.4439ZM28.4411 129.739H29.2791V134.938C29.2791 135.174 29.3134 135.352 29.3821 135.47C29.4531 135.586 29.5431 135.664 29.652 135.705C29.7633 135.742 29.8804 135.761 30.0036 135.761C30.0959 135.761 30.1716 135.757 30.2308 135.747C30.29 135.735 30.3374 135.726 30.3729 135.719L30.5433 136.472C30.4865 136.493 30.4072 136.514 30.3054 136.536C30.2036 136.559 30.0746 136.571 29.9183 136.571C29.6816 136.571 29.4496 136.52 29.2223 136.418C28.9974 136.317 28.8104 136.161 28.6612 135.953C28.5144 135.745 28.4411 135.482 28.4411 135.165V129.739ZM32.2443 138.545C32.1023 138.545 31.9756 138.534 31.8643 138.51C31.7531 138.489 31.6761 138.467 31.6335 138.446L31.8466 137.707C32.0502 137.759 32.2301 137.778 32.3864 137.764C32.5426 137.75 32.6811 137.68 32.8018 137.555C32.925 137.432 33.0374 137.232 33.1392 136.955L33.2955 136.528L31.2784 131.045H32.1875L33.6932 135.392H33.75L35.2557 131.045H36.1648L33.8494 137.295C33.7453 137.577 33.6162 137.81 33.4624 137.995C33.3085 138.182 33.1297 138.321 32.9261 138.411C32.7249 138.5 32.4976 138.545 32.2443 138.545Z" fill="#222222"/>
<rect width="90" height="32" transform="translate(198 117)" fill="#F7F7F7"/>
<path d="M209.699 137.119C209.114 137.119 208.597 137.016 208.148 136.808C207.702 136.598 207.354 136.31 207.104 135.943C206.854 135.574 206.73 135.153 206.733 134.682C206.73 134.312 206.803 133.972 206.95 133.659C207.098 133.344 207.3 133.081 207.555 132.871C207.814 132.658 208.102 132.523 208.42 132.466V132.415C208.003 132.307 207.67 132.072 207.423 131.712C207.176 131.348 207.054 130.935 207.057 130.472C207.054 130.028 207.166 129.632 207.393 129.283C207.621 128.933 207.933 128.658 208.331 128.456C208.732 128.254 209.188 128.153 209.699 128.153C210.205 128.153 210.656 128.254 211.054 128.456C211.452 128.658 211.764 128.933 211.991 129.283C212.222 129.632 212.338 130.028 212.341 130.472C212.338 130.935 212.212 131.348 211.962 131.712C211.714 132.072 211.386 132.307 210.977 132.415V132.466C211.293 132.523 211.577 132.658 211.83 132.871C212.082 133.081 212.284 133.344 212.435 133.659C212.585 133.972 212.662 134.312 212.665 134.682C212.662 135.153 212.534 135.574 212.281 135.943C212.031 136.31 211.683 136.598 211.237 136.808C210.794 137.016 210.281 137.119 209.699 137.119ZM209.699 136.182C210.094 136.182 210.435 136.118 210.722 135.99C211.009 135.862 211.23 135.682 211.386 135.449C211.543 135.216 211.622 134.943 211.625 134.631C211.622 134.301 211.537 134.01 211.369 133.757C211.202 133.504 210.973 133.305 210.683 133.161C210.396 133.016 210.068 132.943 209.699 132.943C209.327 132.943 208.994 133.016 208.702 133.161C208.412 133.305 208.183 133.504 208.016 133.757C207.851 134.01 207.77 134.301 207.773 134.631C207.77 134.943 207.845 135.216 207.999 135.449C208.155 135.682 208.378 135.862 208.668 135.99C208.957 136.118 209.301 136.182 209.699 136.182ZM209.699 132.04C210.011 132.04 210.288 131.977 210.53 131.852C210.774 131.727 210.966 131.553 211.105 131.328C211.244 131.104 211.315 130.841 211.318 130.54C211.315 130.244 211.246 129.987 211.109 129.768C210.973 129.547 210.784 129.376 210.543 129.257C210.301 129.135 210.02 129.074 209.699 129.074C209.372 129.074 209.087 129.135 208.842 129.257C208.598 129.376 208.409 129.547 208.276 129.768C208.142 129.987 208.077 130.244 208.08 130.54C208.077 130.841 208.143 131.104 208.28 131.328C208.419 131.553 208.611 131.727 208.855 131.852C209.099 131.977 209.381 132.04 209.699 132.04ZM217.145 137.119C216.502 137.119 215.956 136.945 215.504 136.595C215.052 136.243 214.707 135.733 214.468 135.065C214.23 134.395 214.11 133.585 214.11 132.636C214.11 131.693 214.23 130.888 214.468 130.22C214.71 129.55 215.056 129.038 215.508 128.686C215.963 128.331 216.508 128.153 217.145 128.153C217.781 128.153 218.325 128.331 218.777 128.686C219.231 129.038 219.578 129.55 219.816 130.22C220.058 130.888 220.179 131.693 220.179 132.636C220.179 133.585 220.059 134.395 219.821 135.065C219.582 135.733 219.237 136.243 218.785 136.595C218.333 136.945 217.787 137.119 217.145 137.119ZM217.145 136.182C217.781 136.182 218.275 135.875 218.627 135.261C218.98 134.648 219.156 133.773 219.156 132.636C219.156 131.881 219.075 131.237 218.913 130.706C218.754 130.175 218.524 129.77 218.223 129.491C217.924 129.213 217.565 129.074 217.145 129.074C216.514 129.074 216.021 129.385 215.666 130.007C215.311 130.626 215.133 131.503 215.133 132.636C215.133 133.392 215.213 134.034 215.372 134.562C215.531 135.091 215.76 135.493 216.058 135.768C216.359 136.044 216.721 136.182 217.145 136.182Z" fill="#222222"/>
<path d="M278.335 135.136V134.753C278.335 134.488 278.39 134.245 278.499 134.025C278.61 133.802 278.771 133.625 278.982 133.492C279.195 133.357 279.453 133.29 279.756 133.29C280.063 133.29 280.321 133.357 280.53 133.492C280.738 133.625 280.896 133.802 281.002 134.025C281.109 134.245 281.162 134.488 281.162 134.753V135.136C281.162 135.402 281.107 135.645 280.999 135.868C280.892 136.088 280.733 136.266 280.523 136.401C280.314 136.533 280.059 136.599 279.756 136.599C279.448 136.599 279.189 136.533 278.978 136.401C278.767 136.266 278.607 136.088 278.499 135.868C278.39 135.645 278.335 135.402 278.335 135.136ZM279.06 134.753V135.136C279.06 135.357 279.112 135.554 279.216 135.729C279.32 135.902 279.5 135.989 279.756 135.989C280.004 135.989 280.179 135.902 280.281 135.729C280.385 135.554 280.438 135.357 280.438 135.136V134.753C280.438 134.533 280.388 134.336 280.288 134.163C280.189 133.988 280.011 133.901 279.756 133.901C279.507 133.901 279.328 133.988 279.219 134.163C279.113 134.336 279.06 134.533 279.06 134.753ZM274.713 130.974V130.591C274.713 130.326 274.768 130.083 274.876 129.863C274.988 129.64 275.149 129.463 275.359 129.33C275.572 129.195 275.83 129.128 276.134 129.128C276.441 129.128 276.699 129.195 276.908 129.33C277.116 129.463 277.273 129.64 277.38 129.863C277.487 130.083 277.54 130.326 277.54 130.591V130.974C277.54 131.24 277.485 131.483 277.376 131.706C277.27 131.926 277.111 132.104 276.901 132.239C276.692 132.371 276.437 132.438 276.134 132.438C275.826 132.438 275.567 132.371 275.356 132.239C275.145 132.104 274.985 131.926 274.876 131.706C274.768 131.483 274.713 131.24 274.713 130.974ZM275.438 130.591V130.974C275.438 131.195 275.49 131.392 275.594 131.567C275.698 131.74 275.878 131.827 276.134 131.827C276.382 131.827 276.557 131.74 276.659 131.567C276.763 131.392 276.815 131.195 276.815 130.974V130.591C276.815 130.371 276.766 130.174 276.666 130.001C276.567 129.826 276.389 129.739 276.134 129.739C275.885 129.739 275.706 129.826 275.597 130.001C275.491 130.174 275.438 130.371 275.438 130.591ZM274.983 136.5L279.983 129.227H280.793L275.793 136.5H274.983Z" fill="#808080"/>
</svg>
