<svg width="304" height="52" viewBox="0 0 304 52" fill="none" xmlns="http://www.w3.org/2000/svg">
<mask id="path-1-inside-1_3786_53473" fill="white">
<path d="M0 0H304V52H0V0Z"/>
</mask>
<path d="M304 51H0V53H304V51Z" fill="#E6E6E6" mask="url(#path-1-inside-1_3786_53473)"/>
<path d="M19.972 30.144C19.3 30.144 18.72 30.016 18.232 29.76C17.744 29.504 17.368 29.14 17.104 28.668C16.84 28.196 16.708 27.636 16.708 26.988H18.424C18.424 27.54 18.552 27.964 18.808 28.26C19.072 28.556 19.46 28.704 19.972 28.704C20.38 28.704 20.704 28.616 20.944 28.44C21.192 28.256 21.316 27.996 21.316 27.66C21.316 27.42 21.236 27.228 21.076 27.084C20.916 26.94 20.7 26.824 20.428 26.736C20.164 26.64 19.872 26.552 19.552 26.472C19.24 26.392 18.924 26.296 18.604 26.184C18.284 26.072 17.988 25.928 17.716 25.752C17.452 25.576 17.24 25.344 17.08 25.056C16.92 24.76 16.84 24.388 16.84 23.94C16.84 23.476 16.964 23.06 17.212 22.692C17.468 22.316 17.824 22.02 18.28 21.804C18.736 21.588 19.272 21.48 19.888 21.48C20.456 21.48 20.976 21.588 21.448 21.804C21.928 22.02 22.316 22.332 22.612 22.74C22.908 23.148 23.064 23.644 23.08 24.228H21.328C21.32 23.94 21.244 23.7 21.1 23.508C20.964 23.316 20.788 23.172 20.572 23.076C20.364 22.972 20.136 22.92 19.888 22.92C19.528 22.92 19.228 23.004 18.988 23.172C18.756 23.34 18.64 23.58 18.64 23.892C18.64 24.116 18.72 24.296 18.88 24.432C19.04 24.568 19.252 24.68 19.516 24.768C19.788 24.848 20.084 24.928 20.404 25.008C20.724 25.08 21.04 25.172 21.352 25.284C21.672 25.388 21.964 25.536 22.228 25.728C22.5 25.912 22.716 26.16 22.876 26.472C23.036 26.784 23.116 27.18 23.116 27.66C23.116 28.148 22.98 28.58 22.708 28.956C22.436 29.332 22.064 29.624 21.592 29.832C21.12 30.04 20.58 30.144 19.972 30.144ZM27.7767 30.144C27.0647 30.144 26.4527 30.004 25.9407 29.724C25.4367 29.444 25.0447 29.044 24.7647 28.524C24.4927 28.004 24.3567 27.388 24.3567 26.676C24.3567 25.948 24.4927 25.328 24.7647 24.816C25.0447 24.296 25.4447 23.9 25.9647 23.628C26.4847 23.348 27.1127 23.208 27.8487 23.208C28.9927 23.208 29.8247 23.528 30.3447 24.168C30.8727 24.808 31.0967 25.688 31.0167 26.808H25.6767V25.656H29.3367C29.3047 25.312 29.1487 25.036 28.8687 24.828C28.5967 24.612 28.2527 24.504 27.8367 24.504C27.2207 24.504 26.7607 24.696 26.4567 25.08C26.1607 25.464 26.0127 26.02 26.0127 26.748C26.0127 27.132 26.0807 27.48 26.2167 27.792C26.3527 28.104 26.5487 28.352 26.8047 28.536C27.0687 28.72 27.3927 28.812 27.7767 28.812C28.1927 28.812 28.5447 28.708 28.8327 28.5C29.1287 28.292 29.3087 28.024 29.3727 27.696H31.0167C30.9287 28.448 30.5967 29.044 30.0207 29.484C29.4447 29.924 28.6967 30.144 27.7767 30.144ZM36.0494 30C35.6174 30 35.2374 29.904 34.9094 29.712C34.5894 29.52 34.3414 29.252 34.1654 28.908C33.9974 28.564 33.9134 28.172 33.9134 27.732V22.188L35.5694 21.408V27.732C35.5694 27.932 35.5974 28.104 35.6534 28.248C35.7094 28.384 35.8214 28.488 35.9894 28.56C36.1574 28.632 36.3894 28.668 36.6854 28.668H38.4734V30H36.0494ZM32.5214 24.684V23.352H37.3334V24.684H32.5214ZM41.7541 23.352V27.48C41.7541 27.864 41.8541 28.176 42.0541 28.416C42.2621 28.648 42.5341 28.764 42.8701 28.764C43.2541 28.764 43.6021 28.632 43.9141 28.368C44.2261 28.096 44.5181 27.656 44.7901 27.048L45.0301 28.56C44.7421 29.112 44.3781 29.516 43.9381 29.772C43.4981 30.02 43.0341 30.144 42.5461 30.144C42.0421 30.144 41.6061 30.036 41.2381 29.82C40.8781 29.604 40.5981 29.308 40.3981 28.932C40.1981 28.548 40.0981 28.096 40.0981 27.576V23.352H41.7541ZM46.2901 23.352V30H44.7061L44.6461 28.716V23.352H46.2901ZM51.6108 23.208C52.1948 23.208 52.7108 23.36 53.1588 23.664C53.6068 23.968 53.9548 24.384 54.2028 24.912C54.4588 25.432 54.5868 26.02 54.5868 26.676C54.5868 27.324 54.4588 27.912 54.2028 28.44C53.9548 28.96 53.6068 29.376 53.1588 29.688C52.7108 29.992 52.1948 30.144 51.6108 30.144C51.2028 30.144 50.8268 30.068 50.4828 29.916C50.1468 29.756 49.8628 29.544 49.6308 29.28V32.136H47.9748V23.352H49.5708L49.6068 24.084C49.8388 23.812 50.1268 23.6 50.4708 23.448C50.8148 23.288 51.1948 23.208 51.6108 23.208ZM51.2028 28.776C51.5468 28.776 51.8468 28.684 52.1028 28.5C52.3668 28.316 52.5708 28.068 52.7148 27.756C52.8668 27.436 52.9428 27.076 52.9428 26.676C52.9428 26.268 52.8668 25.908 52.7148 25.596C52.5708 25.276 52.3668 25.028 52.1028 24.852C51.8468 24.668 51.5468 24.576 51.2028 24.576C50.8428 24.576 50.5228 24.684 50.2428 24.9C49.9628 25.108 49.7588 25.392 49.6308 25.752V27.588C49.7588 27.948 49.9628 28.236 50.2428 28.452C50.5228 28.668 50.8428 28.776 51.2028 28.776Z" fill="#222222"/>
<path d="M81.32 30V21.624H82.592V28.92H86.984V30H81.32ZM93.1927 30L93.1447 28.5V25.68C93.1447 25.208 92.9887 24.84 92.6767 24.576C92.3727 24.304 91.9527 24.168 91.4167 24.168C90.8967 24.168 90.4727 24.288 90.1447 24.528C89.8167 24.76 89.6367 25.084 89.6047 25.5H88.4167C88.4567 25.028 88.6087 24.628 88.8727 24.3C89.1367 23.964 89.4887 23.708 89.9287 23.532C90.3687 23.348 90.8767 23.256 91.4527 23.256C92.0447 23.256 92.5567 23.356 92.9887 23.556C93.4207 23.748 93.7527 24.028 93.9847 24.396C94.2247 24.764 94.3447 25.212 94.3447 25.74V30H93.1927ZM90.8047 30.144C90.3727 30.144 89.9927 30.068 89.6647 29.916C89.3367 29.756 89.0807 29.532 88.8967 29.244C88.7127 28.948 88.6207 28.604 88.6207 28.212C88.6207 27.532 88.8807 27.004 89.4007 26.628C89.9287 26.252 90.6647 26.064 91.6087 26.064H93.3007V26.964H91.5607C91.0167 26.964 90.5887 27.068 90.2767 27.276C89.9727 27.484 89.8207 27.776 89.8207 28.152C89.8207 28.464 89.9287 28.708 90.1447 28.884C90.3687 29.06 90.6687 29.148 91.0447 29.148C91.5247 29.148 91.9487 29.02 92.3167 28.764C92.6927 28.5 92.9967 28.14 93.2287 27.684L93.3607 28.572C93.1527 29.076 92.8327 29.464 92.4007 29.736C91.9687 30.008 91.4367 30.144 90.8047 30.144ZM98.4174 26.664L99.0414 28.308L99.6654 26.652L101.045 23.4H102.305L99.2454 30.612C99.0614 31.036 98.8614 31.368 98.6454 31.608C98.4374 31.856 98.2014 32.028 97.9374 32.124C97.6734 32.228 97.3654 32.28 97.0134 32.28H95.8374V31.296H96.9294C97.1374 31.296 97.3134 31.248 97.4574 31.152C97.6094 31.064 97.7454 30.928 97.8654 30.744C97.9854 30.568 98.1054 30.336 98.2254 30.048L98.4054 29.616L95.7774 23.4H97.0374L98.4174 26.664ZM106.582 30.144C105.902 30.144 105.314 30.004 104.818 29.724C104.33 29.444 103.954 29.048 103.69 28.536C103.426 28.016 103.294 27.404 103.294 26.7C103.294 25.98 103.426 25.368 103.69 24.864C103.954 24.352 104.33 23.956 104.818 23.676C105.314 23.396 105.906 23.256 106.594 23.256C107.618 23.256 108.422 23.564 109.006 24.18C109.59 24.788 109.882 25.628 109.882 26.7C109.882 27.404 109.75 28.016 109.486 28.536C109.222 29.048 108.842 29.444 108.346 29.724C107.858 30.004 107.27 30.144 106.582 30.144ZM106.594 29.136C107.234 29.136 107.738 28.92 108.106 28.488C108.482 28.048 108.67 27.452 108.67 26.7C108.67 25.94 108.482 25.344 108.106 24.912C107.738 24.48 107.234 24.264 106.594 24.264C105.946 24.264 105.438 24.48 105.07 24.912C104.702 25.344 104.518 25.94 104.518 26.7C104.518 27.452 104.702 28.048 105.07 28.488C105.438 28.92 105.946 29.136 106.594 29.136ZM112.323 23.4V27.564C112.323 28.028 112.455 28.404 112.719 28.692C112.983 28.972 113.327 29.112 113.751 29.112C114.239 29.112 114.671 28.936 115.047 28.584C115.431 28.224 115.735 27.668 115.959 26.916L116.151 28.272C115.903 28.896 115.543 29.364 115.071 29.676C114.607 29.988 114.099 30.144 113.547 30.144C113.051 30.144 112.619 30.04 112.251 29.832C111.891 29.616 111.611 29.32 111.411 28.944C111.211 28.568 111.111 28.124 111.111 27.612V23.4H112.323ZM117.027 23.4V30H115.875L115.815 28.512V23.4H117.027ZM122.263 30C121.855 30 121.507 29.92 121.219 29.76C120.931 29.592 120.715 29.356 120.571 29.052C120.427 28.748 120.355 28.392 120.355 27.984V22.152L121.567 21.492V27.984C121.567 28.176 121.595 28.352 121.651 28.512C121.707 28.672 121.815 28.796 121.975 28.884C122.143 28.972 122.387 29.016 122.707 29.016H124.687V30H122.263ZM118.795 24.384V23.4H123.631V24.384H118.795Z" fill="#808080"/>
<path d="M154.02 30.144C153.372 30.144 152.808 30.02 152.328 29.772C151.848 29.524 151.476 29.168 151.212 28.704C150.948 28.24 150.816 27.676 150.816 27.012H152.076C152.076 27.668 152.248 28.176 152.592 28.536C152.936 28.888 153.408 29.064 154.008 29.064C154.52 29.064 154.932 28.948 155.244 28.716C155.556 28.476 155.712 28.144 155.712 27.72C155.712 27.432 155.624 27.2 155.448 27.024C155.28 26.848 155.052 26.704 154.764 26.592C154.484 26.48 154.176 26.38 153.84 26.292C153.504 26.204 153.164 26.108 152.82 26.004C152.484 25.892 152.172 25.752 151.884 25.584C151.604 25.416 151.376 25.192 151.2 24.912C151.032 24.632 150.948 24.276 150.948 23.844C150.948 23.388 151.068 22.984 151.308 22.632C151.556 22.272 151.896 21.992 152.328 21.792C152.768 21.584 153.284 21.48 153.876 21.48C154.452 21.48 154.968 21.588 155.424 21.804C155.88 22.012 156.244 22.312 156.516 22.704C156.796 23.088 156.94 23.552 156.948 24.096H155.676C155.668 23.776 155.58 23.504 155.412 23.28C155.252 23.048 155.036 22.872 154.764 22.752C154.5 22.624 154.204 22.56 153.876 22.56C153.404 22.56 153.02 22.672 152.724 22.896C152.428 23.12 152.28 23.424 152.28 23.808C152.28 24.08 152.364 24.296 152.532 24.456C152.708 24.616 152.936 24.748 153.216 24.852C153.504 24.948 153.816 25.04 154.152 25.128C154.496 25.208 154.836 25.304 155.172 25.416C155.508 25.52 155.816 25.664 156.096 25.848C156.384 26.024 156.612 26.264 156.78 26.568C156.956 26.864 157.044 27.244 157.044 27.708C157.044 28.204 156.912 28.636 156.648 29.004C156.384 29.364 156.024 29.644 155.568 29.844C155.112 30.044 154.596 30.144 154.02 30.144ZM160.925 30V23.4H162.137V30H160.925ZM158.489 30V29.016H164.405V30H158.489ZM159.365 24.384V23.4H161.525V24.384H159.365ZM160.841 22.272V20.964H162.197V22.272H160.841ZM171.213 30V25.176C171.213 24.888 171.161 24.664 171.057 24.504C170.961 24.344 170.809 24.264 170.601 24.264C170.313 24.264 170.053 24.448 169.821 24.816C169.597 25.184 169.441 25.764 169.353 26.556L169.245 25.536C169.269 24.816 169.437 24.256 169.749 23.856C170.069 23.456 170.461 23.256 170.925 23.256C171.357 23.256 171.697 23.416 171.945 23.736C172.201 24.048 172.329 24.496 172.329 25.08V30H171.213ZM165.729 30V23.4H166.797L166.845 24.684V30H165.729ZM168.477 30V25.176C168.477 24.872 168.421 24.644 168.309 24.492C168.205 24.34 168.045 24.264 167.829 24.264C167.525 24.264 167.265 24.456 167.049 24.84C166.833 25.224 166.681 25.796 166.593 26.556L166.569 25.5C166.585 25.028 166.669 24.624 166.821 24.288C166.973 23.952 167.169 23.696 167.409 23.52C167.649 23.344 167.905 23.256 168.177 23.256C168.625 23.256 168.969 23.42 169.209 23.748C169.457 24.068 169.581 24.508 169.581 25.068V30H168.477ZM174.758 23.4V27.564C174.758 28.028 174.89 28.404 175.154 28.692C175.418 28.972 175.762 29.112 176.186 29.112C176.674 29.112 177.106 28.936 177.482 28.584C177.866 28.224 178.17 27.668 178.394 26.916L178.586 28.272C178.338 28.896 177.978 29.364 177.506 29.676C177.042 29.988 176.534 30.144 175.982 30.144C175.486 30.144 175.054 30.04 174.686 29.832C174.326 29.616 174.046 29.32 173.846 28.944C173.646 28.568 173.546 28.124 173.546 27.612V23.4H174.758ZM179.462 23.4V30H178.31L178.25 28.512V23.4H179.462ZM183.559 30V21.18H184.771V30H183.559ZM181.123 30V29.016H187.219V30H181.123ZM181.999 22.164V21.18H184.159V22.164H181.999ZM193.451 30L193.403 28.5V25.68C193.403 25.208 193.247 24.84 192.935 24.576C192.631 24.304 192.211 24.168 191.675 24.168C191.155 24.168 190.731 24.288 190.403 24.528C190.075 24.76 189.895 25.084 189.863 25.5H188.675C188.715 25.028 188.867 24.628 189.131 24.3C189.395 23.964 189.747 23.708 190.187 23.532C190.627 23.348 191.135 23.256 191.711 23.256C192.303 23.256 192.815 23.356 193.247 23.556C193.679 23.748 194.011 24.028 194.243 24.396C194.483 24.764 194.603 25.212 194.603 25.74V30H193.451ZM191.063 30.144C190.631 30.144 190.251 30.068 189.923 29.916C189.595 29.756 189.339 29.532 189.155 29.244C188.971 28.948 188.879 28.604 188.879 28.212C188.879 27.532 189.139 27.004 189.659 26.628C190.187 26.252 190.923 26.064 191.867 26.064H193.559V26.964H191.819C191.275 26.964 190.847 27.068 190.535 27.276C190.231 27.484 190.079 27.776 190.079 28.152C190.079 28.464 190.187 28.708 190.403 28.884C190.627 29.06 190.927 29.148 191.303 29.148C191.783 29.148 192.207 29.02 192.575 28.764C192.951 28.5 193.255 28.14 193.487 27.684L193.619 28.572C193.411 29.076 193.091 29.464 192.659 29.736C192.227 30.008 191.695 30.144 191.063 30.144ZM199.828 30C199.42 30 199.072 29.92 198.784 29.76C198.496 29.592 198.28 29.356 198.136 29.052C197.992 28.748 197.92 28.392 197.92 27.984V22.152L199.132 21.492V27.984C199.132 28.176 199.16 28.352 199.216 28.512C199.272 28.672 199.38 28.796 199.54 28.884C199.708 28.972 199.952 29.016 200.272 29.016H202.252V30H199.828ZM196.36 24.384V23.4H201.196V24.384H196.36ZM206.313 30V23.4H207.525V30H206.313ZM203.877 30V29.016H209.793V30H203.877ZM204.753 24.384V23.4H206.913V24.384H204.753ZM206.229 22.272V20.964H207.585V22.272H206.229ZM214.406 30.144C213.726 30.144 213.138 30.004 212.642 29.724C212.154 29.444 211.778 29.048 211.514 28.536C211.25 28.016 211.118 27.404 211.118 26.7C211.118 25.98 211.25 25.368 211.514 24.864C211.778 24.352 212.154 23.956 212.642 23.676C213.138 23.396 213.73 23.256 214.418 23.256C215.442 23.256 216.246 23.564 216.83 24.18C217.414 24.788 217.706 25.628 217.706 26.7C217.706 27.404 217.574 28.016 217.31 28.536C217.046 29.048 216.666 29.444 216.17 29.724C215.682 30.004 215.094 30.144 214.406 30.144ZM214.418 29.136C215.058 29.136 215.562 28.92 215.93 28.488C216.306 28.048 216.494 27.452 216.494 26.7C216.494 25.94 216.306 25.344 215.93 24.912C215.562 24.48 215.058 24.264 214.418 24.264C213.77 24.264 213.262 24.48 212.894 24.912C212.526 25.344 212.342 25.94 212.342 26.7C212.342 27.452 212.526 28.048 212.894 28.488C213.262 28.92 213.77 29.136 214.418 29.136ZM223.758 30V25.836C223.758 25.372 223.626 25 223.362 24.72C223.098 24.432 222.754 24.288 222.33 24.288C221.842 24.288 221.406 24.468 221.022 24.828C220.646 25.18 220.346 25.732 220.122 26.484L219.93 25.128C220.178 24.504 220.534 24.036 220.998 23.724C221.47 23.412 221.982 23.256 222.534 23.256C223.03 23.256 223.458 23.364 223.818 23.58C224.186 23.788 224.47 24.08 224.67 24.456C224.87 24.832 224.97 25.276 224.97 25.788V30H223.758ZM219.054 30V23.4H220.206L220.266 24.888V30H219.054Z" fill="#808080"/>
</svg>
