<svg width="266" height="100" viewBox="0 0 266 100" fill="none" xmlns="http://www.w3.org/2000/svg">
<g filter="url(#filter0_d_5371_23494)">
<rect x="3" y="2" width="260" height="94" rx="4" fill="white" shape-rendering="crispEdges"/>
<rect x="7" y="6" width="252" height="40" rx="4" fill="white"/>
<path d="M24.8239 26.4091C24.8239 27.483 24.63 28.411 24.2422 29.1932C23.8544 29.9754 23.3224 30.5786 22.6463 31.0028C21.9702 31.4271 21.1979 31.6392 20.3295 31.6392C19.4612 31.6392 18.6889 31.4271 18.0128 31.0028C17.3366 30.5786 16.8047 29.9754 16.4169 29.1932C16.0291 28.411 15.8352 27.483 15.8352 26.4091C15.8352 25.3352 16.0291 24.4072 16.4169 23.625C16.8047 22.8428 17.3366 22.2396 18.0128 21.8153C18.6889 21.3911 19.4612 21.179 20.3295 21.179C21.1979 21.179 21.9702 21.3911 22.6463 21.8153C23.3224 22.2396 23.8544 22.8428 24.2422 23.625C24.63 24.4072 24.8239 25.3352 24.8239 26.4091ZM23.6307 26.4091C23.6307 25.5275 23.4832 24.7834 23.1882 24.1768C22.8965 23.5703 22.5005 23.1113 22 22.7997C21.5028 22.4882 20.946 22.3324 20.3295 22.3324C19.7131 22.3324 19.1546 22.4882 18.6541 22.7997C18.157 23.1113 17.7609 23.5703 17.4659 24.1768C17.1742 24.7834 17.0284 25.5275 17.0284 26.4091C17.0284 27.2907 17.1742 28.0348 17.4659 28.6413C17.7609 29.2479 18.157 29.7069 18.6541 30.0185C19.1546 30.33 19.7131 30.4858 20.3295 30.4858C20.946 30.4858 21.5028 30.33 22 30.0185C22.5005 29.7069 22.8965 29.2479 23.1882 28.6413C23.4832 28.0348 23.6307 27.2907 23.6307 26.4091ZM27.9112 26.9062V31.5H26.7379V23.8636H27.8714V25.0568H27.9709C28.1499 24.669 28.4216 24.3575 28.7862 24.1222C29.1508 23.8835 29.6214 23.7642 30.1982 23.7642C30.7152 23.7642 31.1676 23.8703 31.5554 24.0824C31.9432 24.2912 32.2448 24.6094 32.4602 25.0369C32.6757 25.4612 32.7834 25.9981 32.7834 26.6477V31.5H31.6101V26.7273C31.6101 26.1274 31.4543 25.66 31.1428 25.3253C30.8312 24.9872 30.4036 24.8182 29.8601 24.8182C29.4856 24.8182 29.1508 24.8994 28.8558 25.0618C28.5642 25.2242 28.3338 25.4612 28.1648 25.7727C27.9957 26.0843 27.9112 26.4621 27.9112 26.9062ZM38.1291 31.6591C37.3933 31.6591 36.7586 31.4967 36.225 31.1719C35.6947 30.8438 35.2853 30.3864 34.997 29.7997C34.7119 29.2098 34.5694 28.5237 34.5694 27.7415C34.5694 26.9593 34.7119 26.2699 34.997 25.6733C35.2853 25.0734 35.6864 24.6061 36.2001 24.2713C36.7172 23.9332 37.3204 23.7642 38.0098 23.7642C38.4075 23.7642 38.8002 23.8305 39.188 23.9631C39.5758 24.0956 39.9288 24.3111 40.247 24.6094C40.5652 24.9044 40.8187 25.2955 41.0076 25.7827C41.1966 26.2699 41.291 26.8698 41.291 27.5824V28.0795H35.4047V27.0653H40.0978C40.0978 26.6345 40.0117 26.25 39.8393 25.9119C39.6703 25.5739 39.4283 25.3071 39.1135 25.1115C38.8019 24.916 38.434 24.8182 38.0098 24.8182C37.5424 24.8182 37.1381 24.9342 36.7967 25.1662C36.4586 25.3949 36.1984 25.6932 36.0162 26.0611C35.8339 26.429 35.7427 26.8234 35.7427 27.2443V27.9205C35.7427 28.4972 35.8422 28.986 36.041 29.3871C36.2432 29.7848 36.5233 30.0881 36.8812 30.2969C37.2392 30.5024 37.6551 30.6051 38.1291 30.6051C38.4373 30.6051 38.7157 30.562 38.9643 30.4759C39.2162 30.3864 39.4333 30.2538 39.6156 30.0781C39.7979 29.8991 39.9387 29.6771 40.0382 29.4119L41.1717 29.7301C41.0524 30.1146 40.8519 30.4527 40.5701 30.7443C40.2884 31.0327 39.9404 31.258 39.5261 31.4205C39.1118 31.5795 38.6461 31.6591 38.1291 31.6591ZM50.215 31.6591C49.4792 31.6591 48.8445 31.4967 48.3109 31.1719C47.7806 30.8438 47.3713 30.3864 47.0829 29.7997C46.7979 29.2098 46.6554 28.5237 46.6554 27.7415C46.6554 26.9593 46.7979 26.2699 47.0829 25.6733C47.3713 25.0734 47.7723 24.6061 48.286 24.2713C48.8031 23.9332 49.4063 23.7642 50.0957 23.7642C50.4934 23.7642 50.8862 23.8305 51.274 23.9631C51.6618 24.0956 52.0147 24.3111 52.3329 24.6094C52.6511 24.9044 52.9047 25.2955 53.0936 25.7827C53.2825 26.2699 53.377 26.8698 53.377 27.5824V28.0795H47.4906V27.0653H52.1838C52.1838 26.6345 52.0976 26.25 51.9252 25.9119C51.7562 25.5739 51.5143 25.3071 51.1994 25.1115C50.8878 24.916 50.5199 24.8182 50.0957 24.8182C49.6284 24.8182 49.224 24.9342 48.8826 25.1662C48.5446 25.3949 48.2844 25.6932 48.1021 26.0611C47.9198 26.429 47.8287 26.8234 47.8287 27.2443V27.9205C47.8287 28.4972 47.9281 28.986 48.127 29.3871C48.3291 29.7848 48.6092 30.0881 48.9672 30.2969C49.3251 30.5024 49.7411 30.6051 50.215 30.6051C50.5233 30.6051 50.8017 30.562 51.0502 30.4759C51.3021 30.3864 51.5192 30.2538 51.7015 30.0781C51.8838 29.8991 52.0247 29.6771 52.1241 29.4119L53.2576 29.7301C53.1383 30.1146 52.9378 30.4527 52.6561 30.7443C52.3743 31.0327 52.0263 31.258 51.612 31.4205C51.1977 31.5795 50.7321 31.6591 50.215 31.6591ZM56.335 26.9062V31.5H55.1618V23.8636H56.2953V25.0568H56.3947C56.5737 24.669 56.8455 24.3575 57.21 24.1222C57.5746 23.8835 58.0453 23.7642 58.622 23.7642C59.139 23.7642 59.5914 23.8703 59.9792 24.0824C60.367 24.2912 60.6686 24.6094 60.8841 25.0369C61.0995 25.4612 61.2072 25.9981 61.2072 26.6477V31.5H60.0339V26.7273C60.0339 26.1274 59.8781 25.66 59.5666 25.3253C59.255 24.9872 58.8275 24.8182 58.2839 24.8182C57.9094 24.8182 57.5746 24.8994 57.2797 25.0618C56.988 25.2242 56.7576 25.4612 56.5886 25.7727C56.4196 26.0843 56.335 26.4621 56.335 26.9062ZM66.2347 31.6591C65.5984 31.6591 65.0366 31.4983 64.5494 31.1768C64.0621 30.852 63.681 30.3946 63.4059 29.8047C63.1308 29.2114 62.9933 28.5104 62.9933 27.7017C62.9933 26.8996 63.1308 26.2036 63.4059 25.6136C63.681 25.0237 64.0638 24.5679 64.5543 24.2464C65.0449 23.925 65.6116 23.7642 66.2546 23.7642C66.7518 23.7642 67.1445 23.8471 67.4329 24.0128C67.7246 24.1752 67.9466 24.3608 68.0991 24.5696C68.2549 24.7751 68.3758 24.9441 68.462 25.0767H68.5614V21.3182H69.7347V31.5H68.6012V30.3267H68.462C68.3758 30.4659 68.2532 30.6416 68.0941 30.8537C67.935 31.0625 67.708 31.2498 67.413 31.4155C67.118 31.5779 66.7253 31.6591 66.2347 31.6591ZM66.3938 30.6051C66.8645 30.6051 67.2622 30.4825 67.587 30.2372C67.9118 29.9886 68.1587 29.6456 68.3278 29.2081C68.4968 28.7673 68.5813 28.2585 68.5813 27.6818C68.5813 27.1117 68.4985 26.6129 68.3327 26.1854C68.167 25.7545 67.9218 25.4197 67.5969 25.1811C67.2721 24.9392 66.8711 24.8182 66.3938 24.8182C65.8967 24.8182 65.4824 24.9458 65.1509 25.201C64.8228 25.4529 64.5759 25.7959 64.4102 26.2301C64.2478 26.661 64.1665 27.1449 64.1665 27.6818C64.1665 28.2254 64.2494 28.7192 64.4151 29.1634C64.5842 29.6042 64.8327 29.9555 65.1609 30.2173C65.4923 30.4759 65.9033 30.6051 66.3938 30.6051ZM75.984 34.3636V23.8636H77.1175V25.0767H77.2567C77.3429 24.9441 77.4622 24.7751 77.6147 24.5696C77.7705 24.3608 77.9925 24.1752 78.2809 24.0128C78.5726 23.8471 78.967 23.7642 79.4641 23.7642C80.1071 23.7642 80.6739 23.925 81.1644 24.2464C81.6549 24.5679 82.0378 25.0237 82.3129 25.6136C82.5879 26.2036 82.7255 26.8996 82.7255 27.7017C82.7255 28.5104 82.5879 29.2114 82.3129 29.8047C82.0378 30.3946 81.6566 30.852 81.1694 31.1768C80.6822 31.4983 80.1204 31.6591 79.484 31.6591C78.9935 31.6591 78.6007 31.5779 78.3058 31.4155C78.0108 31.2498 77.7837 31.0625 77.6246 30.8537C77.4656 30.6416 77.3429 30.4659 77.2567 30.3267H77.1573V34.3636H75.984ZM77.1374 27.6818C77.1374 28.2585 77.2219 28.7673 77.391 29.2081C77.56 29.6456 77.8069 29.9886 78.1317 30.2372C78.4566 30.4825 78.8543 30.6051 79.3249 30.6051C79.8155 30.6051 80.2248 30.4759 80.5529 30.2173C80.8844 29.9555 81.1329 29.6042 81.2987 29.1634C81.4677 28.7192 81.5522 28.2254 81.5522 27.6818C81.5522 27.1449 81.4693 26.661 81.3036 26.2301C81.1412 25.7959 80.8943 25.4529 80.5629 25.201C80.2347 24.9458 79.8221 24.8182 79.3249 24.8182C78.8477 24.8182 78.4466 24.9392 78.1218 25.1811C77.797 25.4197 77.5517 25.7545 77.386 26.1854C77.2203 26.6129 77.1374 27.1117 77.1374 27.6818ZM87.6175 31.6591C86.9281 31.6591 86.3233 31.495 85.8029 31.1669C85.2859 30.8388 84.8815 30.3797 84.5898 29.7898C84.3015 29.1998 84.1573 28.5104 84.1573 27.7216C84.1573 26.9261 84.3015 26.2318 84.5898 25.6385C84.8815 25.0452 85.2859 24.5845 85.8029 24.2564C86.3233 23.9283 86.9281 23.7642 87.6175 23.7642C88.3069 23.7642 88.9102 23.9283 89.4272 24.2564C89.9476 24.5845 90.3519 25.0452 90.6403 25.6385C90.9319 26.2318 91.0778 26.9261 91.0778 27.7216C91.0778 28.5104 90.9319 29.1998 90.6403 29.7898C90.3519 30.3797 89.9476 30.8388 89.4272 31.1669C88.9102 31.495 88.3069 31.6591 87.6175 31.6591ZM87.6175 30.6051C88.1412 30.6051 88.5721 30.4709 88.9102 30.2024C89.2482 29.9339 89.4985 29.581 89.6609 29.1435C89.8233 28.706 89.9045 28.232 89.9045 27.7216C89.9045 27.2112 89.8233 26.7356 89.6609 26.2947C89.4985 25.8539 89.2482 25.4976 88.9102 25.2259C88.5721 24.9541 88.1412 24.8182 87.6175 24.8182C87.0939 24.8182 86.663 24.9541 86.3249 25.2259C85.9869 25.4976 85.7366 25.8539 85.5742 26.2947C85.4118 26.7356 85.3306 27.2112 85.3306 27.7216C85.3306 28.232 85.4118 28.706 85.5742 29.1435C85.7366 29.581 85.9869 29.9339 86.3249 30.2024C86.663 30.4709 87.0939 30.6051 87.6175 30.6051ZM92.8688 31.5V23.8636H94.0421V31.5H92.8688ZM93.4654 22.5909C93.2367 22.5909 93.0395 22.513 92.8738 22.3572C92.7114 22.2015 92.6301 22.0142 92.6301 21.7955C92.6301 21.5767 92.7114 21.3894 92.8738 21.2337C93.0395 21.0779 93.2367 21 93.4654 21C93.6941 21 93.8896 21.0779 94.052 21.2337C94.2177 21.3894 94.3006 21.5767 94.3006 21.7955C94.3006 22.0142 94.2177 22.2015 94.052 22.3572C93.8896 22.513 93.6941 22.5909 93.4654 22.5909ZM97.3643 26.9062V31.5H96.1911V23.8636H97.3246V25.0568H97.424C97.603 24.669 97.8748 24.3575 98.2393 24.1222C98.6039 23.8835 99.0746 23.7642 99.6513 23.7642C100.168 23.7642 100.621 23.8703 101.009 24.0824C101.396 24.2912 101.698 24.6094 101.913 25.0369C102.129 25.4612 102.237 25.9981 102.237 26.6477V31.5H101.063V26.7273C101.063 26.1274 100.907 25.66 100.596 25.3253C100.284 24.9872 99.8568 24.8182 99.3132 24.8182C98.9387 24.8182 98.6039 24.8994 98.3089 25.0618C98.0173 25.2242 97.7869 25.4612 97.6179 25.7727C97.4489 26.0843 97.3643 26.4621 97.3643 26.9062ZM107.702 23.8636V24.858H103.744V23.8636H107.702ZM104.898 22.0341H106.071V29.3125C106.071 29.6439 106.119 29.8925 106.215 30.0582C106.314 30.2206 106.44 30.33 106.593 30.3864C106.749 30.4394 106.913 30.4659 107.085 30.4659C107.214 30.4659 107.32 30.4593 107.403 30.446C107.486 30.4295 107.552 30.4162 107.602 30.4062L107.841 31.4602C107.761 31.4901 107.65 31.5199 107.508 31.5497C107.365 31.5829 107.184 31.5994 106.966 31.5994C106.634 31.5994 106.309 31.5282 105.991 31.3857C105.676 31.2431 105.415 31.026 105.206 30.7344C105 30.4427 104.898 30.0748 104.898 29.6307V22.0341Z" fill="#222222"/>
<rect x="7" y="52" width="252" height="40" rx="4" fill="white"/>
<path d="M15.6761 68.4119V67.3182H23.3125V68.4119H20.1108V77.5H18.8778V68.4119H15.6761ZM25.9114 77.5L23.5847 69.8636H24.8176L26.4682 75.7102H26.5478L28.1784 69.8636H29.4313L31.0421 75.6903H31.1216L32.7722 69.8636H34.0051L31.6784 77.5H30.525L28.8546 71.6335H28.7353L27.0648 77.5H25.9114ZM38.3988 77.6591C37.7094 77.6591 37.1045 77.495 36.5842 77.1669C36.0671 76.8388 35.6628 76.3797 35.3711 75.7898C35.0827 75.1998 34.9386 74.5104 34.9386 73.7216C34.9386 72.9261 35.0827 72.2318 35.3711 71.6385C35.6628 71.0452 36.0671 70.5845 36.5842 70.2564C37.1045 69.9283 37.7094 69.7642 38.3988 69.7642C39.0882 69.7642 39.6914 69.9283 40.2085 70.2564C40.7288 70.5845 41.1332 71.0452 41.4215 71.6385C41.7132 72.2318 41.859 72.9261 41.859 73.7216C41.859 74.5104 41.7132 75.1998 41.4215 75.7898C41.1332 76.3797 40.7288 76.8388 40.2085 77.1669C39.6914 77.495 39.0882 77.6591 38.3988 77.6591ZM38.3988 76.6051C38.9225 76.6051 39.3533 76.4709 39.6914 76.2024C40.0295 75.9339 40.2797 75.581 40.4421 75.1435C40.6045 74.706 40.6857 74.232 40.6857 73.7216C40.6857 73.2112 40.6045 72.7356 40.4421 72.2947C40.2797 71.8539 40.0295 71.4976 39.6914 71.2259C39.3533 70.9541 38.9225 70.8182 38.3988 70.8182C37.8751 70.8182 37.4442 70.9541 37.1062 71.2259C36.7681 71.4976 36.5179 71.8539 36.3555 72.2947C36.1931 72.7356 36.1119 73.2112 36.1119 73.7216C36.1119 74.232 36.1931 74.706 36.3555 75.1435C36.5179 75.581 36.7681 75.9339 37.1062 76.2024C37.4442 76.4709 37.8751 76.6051 38.3988 76.6051ZM50.7892 77.6591C50.0534 77.6591 49.4187 77.4967 48.8851 77.1719C48.3548 76.8438 47.9455 76.3864 47.6571 75.7997C47.3721 75.2098 47.2296 74.5237 47.2296 73.7415C47.2296 72.9593 47.3721 72.2699 47.6571 71.6733C47.9455 71.0734 48.3465 70.6061 48.8603 70.2713C49.3773 69.9332 49.9805 69.7642 50.6699 69.7642C51.0676 69.7642 51.4604 69.8305 51.8482 69.9631C52.236 70.0956 52.589 70.3111 52.9071 70.6094C53.2253 70.9044 53.4789 71.2955 53.6678 71.7827C53.8567 72.2699 53.9512 72.8698 53.9512 73.5824V74.0795H48.0648V73.0653H52.758C52.758 72.6345 52.6718 72.25 52.4995 71.9119C52.3304 71.5739 52.0885 71.3071 51.7736 71.1115C51.4621 70.916 51.0942 70.8182 50.6699 70.8182C50.2026 70.8182 49.7982 70.9342 49.4569 71.1662C49.1188 71.3949 48.8586 71.6932 48.6763 72.0611C48.494 72.429 48.4029 72.8234 48.4029 73.2443V73.9205C48.4029 74.4972 48.5023 74.986 48.7012 75.3871C48.9033 75.7848 49.1834 76.0881 49.5414 76.2969C49.8993 76.5024 50.3153 76.6051 50.7892 76.6051C51.0975 76.6051 51.3759 76.562 51.6245 76.4759C51.8764 76.3864 52.0935 76.2538 52.2757 76.0781C52.458 75.8991 52.5989 75.6771 52.6983 75.4119L53.8319 75.7301C53.7125 76.1146 53.512 76.4527 53.2303 76.7443C52.9486 77.0327 52.6006 77.258 52.1863 77.4205C51.772 77.5795 51.3063 77.6591 50.7892 77.6591ZM56.9093 72.9062V77.5H55.736V69.8636H56.8695V71.0568H56.9689C57.1479 70.669 57.4197 70.3575 57.7843 70.1222C58.1489 69.8835 58.6195 69.7642 59.1962 69.7642C59.7132 69.7642 60.1657 69.8703 60.5534 70.0824C60.9412 70.2912 61.2428 70.6094 61.4583 71.0369C61.6737 71.4612 61.7814 71.9981 61.7814 72.6477V77.5H60.6081V72.7273C60.6081 72.1274 60.4524 71.66 60.1408 71.3253C59.8292 70.9872 59.4017 70.8182 58.8581 70.8182C58.4836 70.8182 58.1489 70.8994 57.8539 71.0618C57.5622 71.2242 57.3319 71.4612 57.1628 71.7727C56.9938 72.0843 56.9093 72.4621 56.9093 72.9062ZM66.8089 77.6591C66.1726 77.6591 65.6108 77.4983 65.1236 77.1768C64.6364 76.852 64.2552 76.3946 63.9801 75.8047C63.705 75.2114 63.5675 74.5104 63.5675 73.7017C63.5675 72.8996 63.705 72.2036 63.9801 71.6136C64.2552 71.0237 64.638 70.5679 65.1286 70.2464C65.6191 69.925 66.1858 69.7642 66.8288 69.7642C67.326 69.7642 67.7188 69.8471 68.0071 70.0128C68.2988 70.1752 68.5208 70.3608 68.6733 70.5696C68.8291 70.7751 68.95 70.9441 69.0362 71.0767H69.1357V67.3182H70.3089V77.5H69.1754V76.3267H69.0362C68.95 76.4659 68.8274 76.6416 68.6683 76.8537C68.5092 77.0625 68.2822 77.2498 67.9872 77.4155C67.6922 77.5779 67.2995 77.6591 66.8089 77.6591ZM66.968 76.6051C67.4387 76.6051 67.8364 76.4825 68.1612 76.2372C68.486 75.9886 68.733 75.6456 68.902 75.2081C69.071 74.7673 69.1555 74.2585 69.1555 73.6818C69.1555 73.1117 69.0727 72.6129 68.907 72.1854C68.7412 71.7545 68.496 71.4197 68.1712 71.1811C67.8464 70.9392 67.4453 70.8182 66.968 70.8182C66.4709 70.8182 66.0566 70.9458 65.7251 71.201C65.397 71.4529 65.1501 71.7959 64.9844 72.2301C64.822 72.661 64.7408 73.1449 64.7408 73.6818C64.7408 74.2254 64.8236 74.7192 64.9893 75.1634C65.1584 75.6042 65.407 75.9555 65.7351 76.2173C66.0665 76.4759 66.4775 76.6051 66.968 76.6051ZM76.5582 80.3636V69.8636H77.6918V71.0767H77.831C77.9171 70.9441 78.0365 70.7751 78.1889 70.5696C78.3447 70.3608 78.5668 70.1752 78.8551 70.0128C79.1468 69.8471 79.5412 69.7642 80.0384 69.7642C80.6813 69.7642 81.2481 69.925 81.7386 70.2464C82.2292 70.5679 82.612 71.0237 82.8871 71.6136C83.1622 72.2036 83.2997 72.8996 83.2997 73.7017C83.2997 74.5104 83.1622 75.2114 82.8871 75.8047C82.612 76.3946 82.2308 76.852 81.7436 77.1768C81.2564 77.4983 80.6946 77.6591 80.0582 77.6591C79.5677 77.6591 79.175 77.5779 78.88 77.4155C78.585 77.2498 78.358 77.0625 78.1989 76.8537C78.0398 76.6416 77.9171 76.4659 77.831 76.3267H77.7315V80.3636H76.5582ZM77.7116 73.6818C77.7116 74.2585 77.7962 74.7673 77.9652 75.2081C78.1342 75.6456 78.3812 75.9886 78.706 76.2372C79.0308 76.4825 79.4285 76.6051 79.8991 76.6051C80.3897 76.6051 80.799 76.4759 81.1271 76.2173C81.4586 75.9555 81.7071 75.6042 81.8729 75.1634C82.0419 74.7192 82.1264 74.2254 82.1264 73.6818C82.1264 73.1449 82.0436 72.661 81.8778 72.2301C81.7154 71.7959 81.4685 71.4529 81.1371 71.201C80.8089 70.9458 80.3963 70.8182 79.8991 70.8182C79.4219 70.8182 79.0208 70.9392 78.696 71.1811C78.3712 71.4197 78.1259 71.7545 77.9602 72.1854C77.7945 72.6129 77.7116 73.1117 77.7116 73.6818ZM88.1918 77.6591C87.5024 77.6591 86.8975 77.495 86.3771 77.1669C85.8601 76.8388 85.4557 76.3797 85.1641 75.7898C84.8757 75.1998 84.7315 74.5104 84.7315 73.7216C84.7315 72.9261 84.8757 72.2318 85.1641 71.6385C85.4557 71.0452 85.8601 70.5845 86.3771 70.2564C86.8975 69.9283 87.5024 69.7642 88.1918 69.7642C88.8812 69.7642 89.4844 69.9283 90.0014 70.2564C90.5218 70.5845 90.9261 71.0452 91.2145 71.6385C91.5062 72.2318 91.652 72.9261 91.652 73.7216C91.652 74.5104 91.5062 75.1998 91.2145 75.7898C90.9261 76.3797 90.5218 76.8388 90.0014 77.1669C89.4844 77.495 88.8812 77.6591 88.1918 77.6591ZM88.1918 76.6051C88.7154 76.6051 89.1463 76.4709 89.4844 76.2024C89.8224 75.9339 90.0727 75.581 90.2351 75.1435C90.3975 74.706 90.4787 74.232 90.4787 73.7216C90.4787 73.2112 90.3975 72.7356 90.2351 72.2947C90.0727 71.8539 89.8224 71.4976 89.4844 71.2259C89.1463 70.9541 88.7154 70.8182 88.1918 70.8182C87.6681 70.8182 87.2372 70.9541 86.8991 71.2259C86.5611 71.4976 86.3108 71.8539 86.1484 72.2947C85.986 72.7356 85.9048 73.2112 85.9048 73.7216C85.9048 74.232 85.986 74.706 86.1484 75.1435C86.3108 75.581 86.5611 75.9339 86.8991 76.2024C87.2372 76.4709 87.6681 76.6051 88.1918 76.6051ZM93.443 77.5V69.8636H94.6163V77.5H93.443ZM94.0396 68.5909C93.8109 68.5909 93.6137 68.513 93.448 68.3572C93.2856 68.2015 93.2044 68.0142 93.2044 67.7955C93.2044 67.5767 93.2856 67.3894 93.448 67.2337C93.6137 67.0779 93.8109 67 94.0396 67C94.2683 67 94.4638 67.0779 94.6262 67.2337C94.792 67.3894 94.8748 67.5767 94.8748 67.7955C94.8748 68.0142 94.792 68.2015 94.6262 68.3572C94.4638 68.513 94.2683 68.5909 94.0396 68.5909ZM97.9386 72.9062V77.5H96.7653V69.8636H97.8988V71.0568H97.9982C98.1772 70.669 98.449 70.3575 98.8136 70.1222C99.1781 69.8835 99.6488 69.7642 100.225 69.7642C100.743 69.7642 101.195 69.8703 101.583 70.0824C101.971 70.2912 102.272 70.6094 102.488 71.0369C102.703 71.4612 102.811 71.9981 102.811 72.6477V77.5H101.637V72.7273C101.637 72.1274 101.482 71.66 101.17 71.3253C100.859 70.9872 100.431 70.8182 99.8874 70.8182C99.5129 70.8182 99.1781 70.8994 98.8832 71.0618C98.5915 71.2242 98.3612 71.4612 98.1921 71.7727C98.0231 72.0843 97.9386 72.4621 97.9386 72.9062ZM108.276 69.8636V70.858H104.318V69.8636H108.276ZM105.472 68.0341H106.645V75.3125C106.645 75.6439 106.693 75.8925 106.789 76.0582C106.889 76.2206 107.015 76.33 107.167 76.3864C107.323 76.4394 107.487 76.4659 107.659 76.4659C107.789 76.4659 107.895 76.4593 107.977 76.446C108.06 76.4295 108.127 76.4162 108.176 76.4062L108.415 77.4602C108.335 77.4901 108.224 77.5199 108.082 77.5497C107.939 77.5829 107.759 77.5994 107.54 77.5994C107.209 77.5994 106.884 77.5282 106.566 77.3857C106.251 77.2431 105.989 77.026 105.78 76.7344C105.575 76.4427 105.472 76.0748 105.472 75.6307V68.0341Z" fill="#222222"/>
</g>
<defs>
<filter id="filter0_d_5371_23494" x="0" y="0" width="266" height="100" filterUnits="userSpaceOnUse" color-interpolation-filters="sRGB">
<feFlood flood-opacity="0" result="BackgroundImageFix"/>
<feColorMatrix in="SourceAlpha" type="matrix" values="0 0 0 0 0 0 0 0 0 0 0 0 0 0 0 0 0 0 127 0" result="hardAlpha"/>
<feOffset dy="1"/>
<feGaussianBlur stdDeviation="1.5"/>
<feComposite in2="hardAlpha" operator="out"/>
<feColorMatrix type="matrix" values="0 0 0 0 0 0 0 0 0 0 0 0 0 0 0 0 0 0 0.2 0"/>
<feBlend mode="normal" in2="BackgroundImageFix" result="effect1_dropShadow_5371_23494"/>
<feBlend mode="normal" in="SourceGraphic" in2="effect1_dropShadow_5371_23494" result="shape"/>
</filter>
</defs>
</svg>
