<svg width="319" height="48" viewBox="0 0 319 48" fill="none" xmlns="http://www.w3.org/2000/svg">
<rect width="319" height="32" transform="translate(0 8.5)" fill="white"/>
<rect width="127" height="32" transform="translate(0 8.5)" fill="white"/>
<path d="M17.179 21.5H16.2557L18.9261 14.2273H19.8352L22.5057 21.5H21.5824L19.4091 15.3778H19.3523L17.179 21.5ZM17.5199 18.6591H21.2415V19.4403H17.5199V18.6591ZM25.7266 23.6591C25.3217 23.6591 24.9737 23.607 24.6825 23.5028C24.3913 23.401 24.1487 23.2661 23.9545 23.098C23.7628 22.9323 23.6101 22.7547 23.4964 22.5653L24.1641 22.0966C24.2398 22.196 24.3357 22.3097 24.4517 22.4375C24.5677 22.5677 24.7263 22.6802 24.9276 22.7749C25.1312 22.8719 25.3975 22.9205 25.7266 22.9205C26.1669 22.9205 26.5303 22.8139 26.8168 22.6009C27.1032 22.3878 27.2464 22.054 27.2464 21.5994V20.4915H27.1754C27.1139 20.5909 27.0263 20.714 26.9126 20.8608C26.8014 21.0052 26.6404 21.1342 26.4297 21.2479C26.2214 21.3591 25.9396 21.4148 25.5845 21.4148C25.1442 21.4148 24.7488 21.3106 24.3984 21.1023C24.0504 20.8939 23.7746 20.5909 23.571 20.1932C23.3698 19.7955 23.2692 19.3125 23.2692 18.7443C23.2692 18.1856 23.3674 17.6991 23.5639 17.2848C23.7604 16.8681 24.0339 16.5462 24.3842 16.3189C24.7346 16.0893 25.1394 15.9744 25.5987 15.9744C25.9538 15.9744 26.2356 16.0336 26.4439 16.152C26.6546 16.268 26.8156 16.4006 26.9268 16.5497C27.0405 16.6965 27.1281 16.8172 27.1896 16.9119H27.2749V16.0455H28.0845V21.6562C28.0845 22.125 27.978 22.5062 27.7649 22.7997C27.5542 23.0956 27.2701 23.3123 26.9126 23.4496C26.5575 23.5893 26.1622 23.6591 25.7266 23.6591ZM25.6982 20.6619C26.0343 20.6619 26.3184 20.585 26.5504 20.4311C26.7824 20.2772 26.9588 20.0559 27.0795 19.767C27.2003 19.4782 27.2607 19.1326 27.2607 18.7301C27.2607 18.3371 27.2015 17.9903 27.0831 17.6896C26.9647 17.389 26.7895 17.1534 26.5575 16.983C26.3255 16.8125 26.0391 16.7273 25.6982 16.7273C25.343 16.7273 25.0471 16.8172 24.8104 16.9972C24.576 17.1771 24.3996 17.4186 24.2812 17.7216C24.1652 18.0246 24.1072 18.3608 24.1072 18.7301C24.1072 19.1089 24.1664 19.4439 24.2848 19.7351C24.4055 20.0239 24.5831 20.2512 24.8175 20.4169C25.0542 20.5803 25.3478 20.6619 25.6982 20.6619ZM31.9055 21.6136C31.38 21.6136 30.9266 21.4976 30.5455 21.2656C30.1667 21.0312 29.8743 20.7045 29.6683 20.2855C29.4647 19.8641 29.3629 19.3741 29.3629 18.8153C29.3629 18.2566 29.4647 17.7642 29.6683 17.3381C29.8743 16.9096 30.1607 16.5758 30.5277 16.3366C30.897 16.0952 31.3279 15.9744 31.8203 15.9744C32.1044 15.9744 32.3849 16.0218 32.6619 16.1165C32.9389 16.2112 33.1911 16.3651 33.4183 16.5781C33.6456 16.7888 33.8267 17.0682 33.9616 17.4162C34.0966 17.7642 34.1641 18.1927 34.1641 18.7017V19.0568H29.9595V18.3324H33.3118C33.3118 18.0246 33.2502 17.75 33.1271 17.5085C33.0064 17.267 32.8336 17.0765 32.6087 16.9368C32.3861 16.7971 32.1233 16.7273 31.8203 16.7273C31.4865 16.7273 31.1977 16.8101 30.9538 16.9759C30.7124 17.1392 30.5265 17.3523 30.3963 17.6151C30.2661 17.8778 30.201 18.1596 30.201 18.4602V18.9432C30.201 19.3551 30.272 19.7043 30.4141 19.9908C30.5585 20.2749 30.7585 20.4915 31.0142 20.6406C31.2699 20.7874 31.567 20.8608 31.9055 20.8608C32.1257 20.8608 32.3246 20.83 32.5021 20.7685C32.6821 20.7045 32.8371 20.6098 32.9673 20.4844C33.0975 20.3565 33.1982 20.1979 33.2692 20.0085L34.0788 20.2358C33.9936 20.5104 33.8504 20.7519 33.6491 20.9602C33.4479 21.1662 33.1993 21.3272 32.9034 21.4432C32.6075 21.5568 32.2749 21.6136 31.9055 21.6136ZM36.277 18.2188V21.5H35.4389V16.0455H36.2486V16.8977H36.3196C36.4474 16.6207 36.6416 16.3982 36.902 16.2301C37.1624 16.0597 37.4986 15.9744 37.9105 15.9744C38.2798 15.9744 38.603 16.0502 38.88 16.2017C39.157 16.3509 39.3724 16.5781 39.5263 16.8835C39.6802 17.1866 39.7571 17.5701 39.7571 18.0341V21.5H38.919V18.0909C38.919 17.6624 38.8078 17.3286 38.5852 17.0895C38.3627 16.848 38.0573 16.7273 37.669 16.7273C37.4015 16.7273 37.1624 16.7853 36.9517 16.9013C36.7434 17.0173 36.5788 17.1866 36.4581 17.4091C36.3374 17.6316 36.277 17.9015 36.277 18.2188ZM43.6607 16.0455V16.7557H40.834V16.0455H43.6607ZM41.6578 14.7386H42.4959V19.9375C42.4959 20.1742 42.5302 20.3518 42.5989 20.4702C42.6699 20.5862 42.7599 20.6643 42.8688 20.7045C42.9801 20.7424 43.0972 20.7614 43.2203 20.7614C43.3127 20.7614 43.3884 20.7566 43.4476 20.7472C43.5068 20.7353 43.5542 20.7259 43.5897 20.7188L43.7601 21.4716C43.7033 21.4929 43.624 21.5142 43.5222 21.5355C43.4204 21.5592 43.2914 21.571 43.1351 21.571C42.8984 21.571 42.6664 21.5201 42.4391 21.4183C42.2142 21.3165 42.0272 21.1615 41.878 20.9531C41.7312 20.7448 41.6578 20.482 41.6578 20.1648V14.7386ZM47.7338 21.5V16.0455H48.5719V21.5H47.7338ZM48.16 15.1364C47.9966 15.1364 47.8558 15.0807 47.7374 14.9695C47.6214 14.8582 47.5634 14.7244 47.5634 14.5682C47.5634 14.4119 47.6214 14.2782 47.7374 14.1669C47.8558 14.0556 47.9966 14 48.16 14C48.3233 14 48.463 14.0556 48.579 14.1669C48.6974 14.2782 48.7566 14.4119 48.7566 14.5682C48.7566 14.7244 48.6974 14.8582 48.579 14.9695C48.463 15.0807 48.3233 15.1364 48.16 15.1364ZM50.945 18.2188V21.5H50.1069V16.0455H50.9165V16.8977H50.9876C51.1154 16.6207 51.3095 16.3982 51.57 16.2301C51.8304 16.0597 52.1665 15.9744 52.5785 15.9744C52.9478 15.9744 53.271 16.0502 53.5479 16.2017C53.8249 16.3509 54.0404 16.5781 54.1942 16.8835C54.3481 17.1866 54.4251 17.5701 54.4251 18.0341V21.5H53.587V18.0909C53.587 17.6624 53.4757 17.3286 53.2532 17.0895C53.0307 16.848 52.7253 16.7273 52.337 16.7273C52.0695 16.7273 51.8304 16.7853 51.6197 16.9013C51.4113 17.0173 51.2468 17.1866 51.1261 17.4091C51.0053 17.6316 50.945 17.9015 50.945 18.2188ZM58.3855 16.0455V16.7557H55.4451V16.0455H58.3855ZM56.3258 21.5V15.2926C56.3258 14.9801 56.3992 14.7197 56.546 14.5114C56.6928 14.303 56.8833 14.1468 57.1177 14.0426C57.3521 13.9384 57.5995 13.8864 57.8599 13.8864C58.0659 13.8864 58.234 13.9029 58.3642 13.9361C58.4944 13.9692 58.5914 14 58.6554 14.0284L58.4139 14.7528C58.3713 14.7386 58.3121 14.7209 58.2363 14.6996C58.1629 14.6783 58.0659 14.6676 57.9451 14.6676C57.6681 14.6676 57.4681 14.7375 57.345 14.8771C57.2243 15.0168 57.1639 15.2216 57.1639 15.4915V21.5H56.3258ZM61.5513 21.6136C61.0589 21.6136 60.6268 21.4964 60.2551 21.2621C59.8858 21.0277 59.597 20.6998 59.3887 20.2784C59.1827 19.857 59.0797 19.3646 59.0797 18.8011C59.0797 18.233 59.1827 17.737 59.3887 17.3132C59.597 16.8894 59.8858 16.5604 60.2551 16.326C60.6268 16.0916 61.0589 15.9744 61.5513 15.9744C62.0437 15.9744 62.4746 16.0916 62.8439 16.326C63.2156 16.5604 63.5044 16.8894 63.7104 17.3132C63.9187 17.737 64.0229 18.233 64.0229 18.8011C64.0229 19.3646 63.9187 19.857 63.7104 20.2784C63.5044 20.6998 63.2156 21.0277 62.8439 21.2621C62.4746 21.4964 62.0437 21.6136 61.5513 21.6136ZM61.5513 20.8608C61.9254 20.8608 62.2331 20.7649 62.4746 20.5732C62.7161 20.3814 62.8948 20.1293 63.0108 19.8168C63.1268 19.5043 63.1848 19.1657 63.1848 18.8011C63.1848 18.4366 63.1268 18.0968 63.0108 17.782C62.8948 17.4671 62.7161 17.2126 62.4746 17.0185C62.2331 16.8243 61.9254 16.7273 61.5513 16.7273C61.1773 16.7273 60.8695 16.8243 60.628 17.0185C60.3865 17.2126 60.2078 17.4671 60.0918 17.782C59.9758 18.0968 59.9178 18.4366 59.9178 18.8011C59.9178 19.1657 59.9758 19.5043 60.0918 19.8168C60.2078 20.1293 60.3865 20.3814 60.628 20.5732C60.8695 20.7649 61.1773 20.8608 61.5513 20.8608ZM71.9783 17.267L71.2255 17.4801C71.1781 17.3546 71.1083 17.2327 71.016 17.1143C70.926 16.9936 70.8029 16.8942 70.6467 16.8161C70.4904 16.7379 70.2904 16.6989 70.0465 16.6989C69.7127 16.6989 69.4345 16.7758 69.212 16.9297C68.9918 17.0812 68.8817 17.2741 68.8817 17.5085C68.8817 17.7169 68.9575 17.8814 69.109 18.0021C69.2605 18.1229 69.4973 18.2235 69.8192 18.304L70.6289 18.5028C71.1166 18.6212 71.48 18.8023 71.7191 19.0462C71.9582 19.2876 72.0778 19.599 72.0778 19.9801C72.0778 20.2926 71.9878 20.572 71.8079 20.8182C71.6303 21.0644 71.3817 21.2585 71.0621 21.4006C70.7425 21.5426 70.3709 21.6136 69.9471 21.6136C69.3907 21.6136 68.9303 21.4929 68.5657 21.2514C68.2011 21.0099 67.9703 20.6572 67.8732 20.1932L68.6687 19.9943C68.7444 20.2879 68.8877 20.508 69.0984 20.6548C69.3114 20.8016 69.5896 20.875 69.9329 20.875C70.3235 20.875 70.6336 20.7921 70.8633 20.6264C71.0953 20.4583 71.2113 20.2571 71.2113 20.0227C71.2113 19.8333 71.145 19.6747 71.0124 19.5469C70.8799 19.4167 70.6763 19.3196 70.4016 19.2557L69.4925 19.0426C68.993 18.9242 68.6261 18.7408 68.3917 18.4922C68.1597 18.2412 68.0437 17.9276 68.0437 17.5511C68.0437 17.2434 68.1301 16.9711 68.3029 16.7344C68.4781 16.4976 68.716 16.3118 69.0167 16.1768C69.3197 16.0419 69.663 15.9744 70.0465 15.9744C70.5863 15.9744 71.0101 16.0928 71.3178 16.3295C71.628 16.5663 71.8481 16.8788 71.9783 17.267ZM73.3393 21.5V16.0455H74.1774V21.5H73.3393ZM73.7654 15.1364C73.6021 15.1364 73.4612 15.0807 73.3429 14.9695C73.2269 14.8582 73.1689 14.7244 73.1689 14.5682C73.1689 14.4119 73.2269 14.2782 73.3429 14.1669C73.4612 14.0556 73.6021 14 73.7654 14C73.9288 14 74.0685 14.0556 74.1845 14.1669C74.3029 14.2782 74.362 14.4119 74.362 14.5682C74.362 14.7244 74.3029 14.8582 74.1845 14.9695C74.0685 15.0807 73.9288 15.1364 73.7654 15.1364ZM77.9141 23.6591C77.5092 23.6591 77.1612 23.607 76.87 23.5028C76.5788 23.401 76.3362 23.2661 76.142 23.098C75.9503 22.9323 75.7976 22.7547 75.6839 22.5653L76.3516 22.0966C76.4273 22.196 76.5232 22.3097 76.6392 22.4375C76.7552 22.5677 76.9138 22.6802 77.1151 22.7749C77.3187 22.8719 77.585 22.9205 77.9141 22.9205C78.3544 22.9205 78.7178 22.8139 79.0043 22.6009C79.2907 22.3878 79.4339 22.054 79.4339 21.5994V20.4915H79.3629C79.3014 20.5909 79.2138 20.714 79.1001 20.8608C78.9889 21.0052 78.8279 21.1342 78.6172 21.2479C78.4089 21.3591 78.1271 21.4148 77.772 21.4148C77.3317 21.4148 76.9363 21.3106 76.5859 21.1023C76.2379 20.8939 75.9621 20.5909 75.7585 20.1932C75.5573 19.7955 75.4567 19.3125 75.4567 18.7443C75.4567 18.1856 75.5549 17.6991 75.7514 17.2848C75.9479 16.8681 76.2214 16.5462 76.5717 16.3189C76.9221 16.0893 77.3269 15.9744 77.7862 15.9744C78.1413 15.9744 78.4231 16.0336 78.6314 16.152C78.8421 16.268 79.0031 16.4006 79.1143 16.5497C79.228 16.6965 79.3156 16.8172 79.3771 16.9119H79.4624V16.0455H80.272V21.6562C80.272 22.125 80.1655 22.5062 79.9524 22.7997C79.7417 23.0956 79.4576 23.3123 79.1001 23.4496C78.745 23.5893 78.3497 23.6591 77.9141 23.6591ZM77.8857 20.6619C78.2218 20.6619 78.5059 20.585 78.7379 20.4311C78.9699 20.2772 79.1463 20.0559 79.267 19.767C79.3878 19.4782 79.4482 19.1326 79.4482 18.7301C79.4482 18.3371 79.389 17.9903 79.2706 17.6896C79.1522 17.389 78.977 17.1534 78.745 16.983C78.513 16.8125 78.2266 16.7273 77.8857 16.7273C77.5305 16.7273 77.2346 16.8172 76.9979 16.9972C76.7635 17.1771 76.5871 17.4186 76.4688 17.7216C76.3527 18.0246 76.2947 18.3608 76.2947 18.7301C76.2947 19.1089 76.3539 19.4439 76.4723 19.7351C76.593 20.0239 76.7706 20.2512 77.005 20.4169C77.2417 20.5803 77.5353 20.6619 77.8857 20.6619ZM82.6442 18.2188V21.5H81.8061V16.0455H82.6158V16.8977H82.6868C82.8146 16.6207 83.0088 16.3982 83.2692 16.2301C83.5296 16.0597 83.8658 15.9744 84.2777 15.9744C84.647 15.9744 84.9702 16.0502 85.2472 16.2017C85.5241 16.3509 85.7396 16.5781 85.8935 16.8835C86.0473 17.1866 86.1243 17.5701 86.1243 18.0341V21.5H85.2862V18.0909C85.2862 17.6624 85.175 17.3286 84.9524 17.0895C84.7299 16.848 84.4245 16.7273 84.0362 16.7273C83.7687 16.7273 83.5296 16.7853 83.3189 16.9013C83.1106 17.0173 82.946 17.1866 82.8253 17.4091C82.7045 17.6316 82.6442 17.9015 82.6442 18.2188ZM20.6307 30.267L19.8778 30.4801C19.8305 30.3546 19.7607 30.2327 19.6683 30.1143C19.5784 29.9936 19.4553 29.8942 19.299 29.8161C19.1428 29.7379 18.9427 29.6989 18.6989 29.6989C18.3651 29.6989 18.0869 29.7758 17.8643 29.9297C17.6442 30.0812 17.5341 30.2741 17.5341 30.5085C17.5341 30.7169 17.6098 30.8814 17.7614 31.0021C17.9129 31.1229 18.1496 31.2235 18.4716 31.304L19.2812 31.5028C19.7689 31.6212 20.1323 31.8023 20.3714 32.0462C20.6106 32.2876 20.7301 32.599 20.7301 32.9801C20.7301 33.2926 20.6402 33.572 20.4602 33.8182C20.2827 34.0644 20.0341 34.2585 19.7145 34.4006C19.3949 34.5426 19.0232 34.6136 18.5994 34.6136C18.0431 34.6136 17.5826 34.4929 17.218 34.2514C16.8535 34.0099 16.6226 33.6572 16.5256 33.1932L17.321 32.9943C17.3968 33.2879 17.54 33.508 17.7507 33.6548C17.9638 33.8016 18.242 33.875 18.5852 33.875C18.9759 33.875 19.286 33.7921 19.5156 33.6264C19.7476 33.4583 19.8636 33.2571 19.8636 33.0227C19.8636 32.8333 19.7973 32.6747 19.6648 32.5469C19.5322 32.4167 19.3286 32.3196 19.054 32.2557L18.1449 32.0426C17.6454 31.9242 17.2784 31.7408 17.044 31.4922C16.812 31.2412 16.696 30.9276 16.696 30.5511C16.696 30.2434 16.7824 29.9711 16.9553 29.7344C17.1304 29.4976 17.3684 29.3118 17.669 29.1768C17.9721 29.0419 18.3153 28.9744 18.6989 28.9744C19.2386 28.9744 19.6624 29.0928 19.9702 29.3295C20.2803 29.5663 20.5005 29.8788 20.6307 30.267ZM24.2076 34.6136C23.6962 34.6136 23.2559 34.4929 22.8865 34.2514C22.5172 34.0099 22.2331 33.6773 22.0343 33.2536C21.8354 32.8298 21.736 32.3456 21.736 31.8011C21.736 31.2472 21.8378 30.7583 22.0414 30.3345C22.2473 29.9084 22.5338 29.5758 22.9007 29.3366C23.2701 29.0952 23.7009 28.9744 24.1934 28.9744C24.5769 28.9744 24.9225 29.0455 25.2303 29.1875C25.5381 29.3295 25.7902 29.5284 25.9867 29.7841C26.1832 30.0398 26.3051 30.3381 26.3525 30.679H25.5144C25.4505 30.4304 25.3084 30.2102 25.0882 30.0185C24.8704 29.8243 24.5769 29.7273 24.2076 29.7273C23.8809 29.7273 23.5944 29.8125 23.3482 29.983C23.1043 30.151 22.9138 30.389 22.7765 30.6967C22.6415 31.0021 22.574 31.3608 22.574 31.7727C22.574 32.1941 22.6403 32.5611 22.7729 32.8736C22.9078 33.1861 23.0972 33.4287 23.3411 33.6016C23.5873 33.7744 23.8761 33.8608 24.2076 33.8608C24.4254 33.8608 24.623 33.8229 24.8006 33.7472C24.9782 33.6714 25.1285 33.5625 25.2516 33.4205C25.3747 33.2784 25.4623 33.108 25.5144 32.9091H26.3525C26.3051 33.2311 26.1879 33.5211 26.0009 33.7791C25.8162 34.0348 25.5712 34.2384 25.2658 34.3899C24.9628 34.5391 24.61 34.6136 24.2076 34.6136ZM29.1827 34.6278C28.8371 34.6278 28.5234 34.5627 28.2417 34.4325C27.9599 34.3 27.7362 34.1094 27.5705 33.8608C27.4048 33.6098 27.3219 33.3068 27.3219 32.9517C27.3219 32.6392 27.3835 32.3859 27.5066 32.1918C27.6297 31.9953 27.7942 31.8414 28.0002 31.7301C28.2061 31.6188 28.4334 31.536 28.682 31.4815C28.9329 31.4247 29.1851 31.3797 29.4384 31.3466C29.7698 31.304 30.0385 31.272 30.2445 31.2507C30.4528 31.227 30.6043 31.188 30.699 31.1335C30.7961 31.0791 30.8446 30.9844 30.8446 30.8494V30.821C30.8446 30.4706 30.7488 30.1984 30.557 30.0043C30.3676 29.8101 30.08 29.7131 29.6941 29.7131C29.294 29.7131 28.9803 29.8007 28.753 29.9759C28.5257 30.151 28.3659 30.3381 28.2736 30.5369L27.4782 30.2528C27.6202 29.9214 27.8096 29.6634 28.0463 29.4787C28.2855 29.2917 28.5459 29.1615 28.8276 29.0881C29.1117 29.0123 29.391 28.9744 29.6657 28.9744C29.8408 28.9744 30.0421 28.9957 30.2694 29.0384C30.499 29.0786 30.7203 29.1626 30.9334 29.2905C31.1489 29.4183 31.3276 29.6113 31.4696 29.8693C31.6117 30.1274 31.6827 30.473 31.6827 30.9062V34.5H30.8446V33.7614H30.802C30.7452 33.8797 30.6505 34.0064 30.5179 34.1413C30.3854 34.2763 30.209 34.3911 29.9888 34.4858C29.7686 34.5805 29.4999 34.6278 29.1827 34.6278ZM29.3105 33.875C29.642 33.875 29.9213 33.8099 30.1486 33.6797C30.3783 33.5495 30.5511 33.3814 30.6671 33.1754C30.7855 32.9695 30.8446 32.7528 30.8446 32.5256V31.7585C30.8091 31.8011 30.731 31.8402 30.6103 31.8757C30.4919 31.9089 30.3546 31.9384 30.1983 31.9645C30.0444 31.9882 29.8941 32.0095 29.7473 32.0284C29.6029 32.045 29.4857 32.0592 29.3958 32.071C29.178 32.0994 28.9744 32.1456 28.785 32.2095C28.598 32.2711 28.4464 32.3646 28.3304 32.4901C28.2168 32.6132 28.16 32.7812 28.16 32.9943C28.16 33.2855 28.2677 33.5057 28.4831 33.6548C28.7009 33.8016 28.9767 33.875 29.3105 33.875ZM34.0504 27.2273V34.5H33.2124V27.2273H34.0504ZM35.5854 34.5V29.0455H36.4235V34.5H35.5854ZM36.0115 28.1364C35.8482 28.1364 35.7073 28.0807 35.589 27.9695C35.473 27.8582 35.415 27.7244 35.415 27.5682C35.415 27.4119 35.473 27.2782 35.589 27.1669C35.7073 27.0556 35.8482 27 36.0115 27C36.1749 27 36.3146 27.0556 36.4306 27.1669C36.5489 27.2782 36.6081 27.4119 36.6081 27.5682C36.6081 27.7244 36.5489 27.8582 36.4306 27.9695C36.3146 28.0807 36.1749 28.1364 36.0115 28.1364ZM38.7965 31.2188V34.5H37.9585V29.0455H38.7681V29.8977H38.8391C38.967 29.6207 39.1611 29.3982 39.4215 29.2301C39.6819 29.0597 40.0181 28.9744 40.43 28.9744C40.7994 28.9744 41.1225 29.0502 41.3995 29.2017C41.6765 29.3509 41.8919 29.5781 42.0458 29.8835C42.1997 30.1866 42.2766 30.5701 42.2766 31.0341V34.5H41.4386V31.0909C41.4386 30.6624 41.3273 30.3286 41.1048 30.0895C40.8822 29.848 40.5768 29.7273 40.1886 29.7273C39.921 29.7273 39.6819 29.7853 39.4712 29.9013C39.2629 30.0173 39.0984 30.1866 38.9776 30.4091C38.8569 30.6316 38.7965 30.9015 38.7965 31.2188ZM46.0098 36.6591C45.6049 36.6591 45.2569 36.607 44.9657 36.5028C44.6745 36.401 44.4319 36.2661 44.2377 36.098C44.046 35.9323 43.8933 35.7547 43.7797 35.5653L44.4473 35.0966C44.523 35.196 44.6189 35.3097 44.7349 35.4375C44.8509 35.5677 45.0095 35.6802 45.2108 35.7749C45.4144 35.8719 45.6807 35.9205 46.0098 35.9205C46.4501 35.9205 46.8135 35.8139 47.1 35.6009C47.3864 35.3878 47.5297 35.054 47.5297 34.5994V33.4915H47.4586C47.3971 33.5909 47.3095 33.714 47.1958 33.8608C47.0846 34.0052 46.9236 34.1342 46.7129 34.2479C46.5046 34.3591 46.2228 34.4148 45.8677 34.4148C45.4274 34.4148 45.032 34.3106 44.6816 34.1023C44.3336 33.8939 44.0578 33.5909 43.8542 33.1932C43.653 32.7955 43.5524 32.3125 43.5524 31.7443C43.5524 31.1856 43.6506 30.6991 43.8471 30.2848C44.0436 29.8681 44.3171 29.5462 44.6674 29.3189C45.0178 29.0893 45.4226 28.9744 45.8819 28.9744C46.237 28.9744 46.5188 29.0336 46.7271 29.152C46.9378 29.268 47.0988 29.4006 47.21 29.5497C47.3237 29.6965 47.4113 29.8172 47.4728 29.9119H47.5581V29.0455H48.3677V34.6562C48.3677 35.125 48.2612 35.5062 48.0481 35.7997C47.8374 36.0956 47.5533 36.3123 47.1958 36.4496C46.8407 36.5893 46.4454 36.6591 46.0098 36.6591ZM45.9814 33.6619C46.3175 33.6619 46.6016 33.585 46.8336 33.4311C47.0656 33.2772 47.242 33.0559 47.3627 32.767C47.4835 32.4782 47.5439 32.1326 47.5439 31.7301C47.5439 31.3371 47.4847 30.9903 47.3663 30.6896C47.2479 30.389 47.0727 30.1534 46.8407 29.983C46.6087 29.8125 46.3223 29.7273 45.9814 29.7273C45.6262 29.7273 45.3303 29.8172 45.0936 29.9972C44.8592 30.1771 44.6828 30.4186 44.5645 30.7216C44.4484 31.0246 44.3904 31.3608 44.3904 31.7301C44.3904 32.1089 44.4496 32.4439 44.568 32.7351C44.6887 33.0239 44.8663 33.2512 45.1007 33.4169C45.3374 33.5803 45.631 33.6619 45.9814 33.6619Z" fill="var(--colors-neutral-neutral-800)"/>
<g clip-path="url(#clip0_3023_9462)">
<rect x="148" y="24" width="118" height="1" rx="0.5" fill="var(--colors-neutral-neutral-700)"/>
</g>
<g clip-path="url(#clip1_3023_9462)">
<rect x="148" y="24" width="87" height="1" rx="0.5" fill="var(--colors-neutral-neutral-800)"/>
<rect x="148" y="24" width="87" height="1" rx="0.5" fill="var(--colors-neutral-neutral-800)"/>
</g>
<path d="M232.5 20.5C230.567 20.5 229 22.067 229 24C229 25.933 230.567 27.5 232.5 27.5C234.433 27.5 236 25.933 236 24C236 22.067 234.433 20.5 232.5 20.5Z" fill="white" stroke="var(--colors-neutral-neutral-800)"/>
<path d="M291.027 28.5994C290.558 28.5994 290.14 28.5189 289.773 28.358C289.408 28.197 289.118 27.9732 288.903 27.6868C288.69 27.398 288.574 27.063 288.555 26.6818H289.45C289.469 26.9162 289.549 27.1186 289.691 27.2891C289.833 27.4571 290.019 27.5874 290.249 27.6797C290.479 27.772 290.733 27.8182 291.012 27.8182C291.325 27.8182 291.602 27.7637 291.843 27.6548C292.085 27.5459 292.274 27.3944 292.412 27.2003C292.549 27.0062 292.618 26.7812 292.618 26.5256C292.618 26.258 292.551 26.0225 292.419 25.8189C292.286 25.6129 292.092 25.4519 291.836 25.3359C291.581 25.2199 291.268 25.1619 290.899 25.1619H290.316V24.3807H290.899C291.188 24.3807 291.441 24.3286 291.659 24.2244C291.879 24.1203 292.051 23.9735 292.174 23.7841C292.299 23.5947 292.362 23.3722 292.362 23.1165C292.362 22.8703 292.307 22.656 292.199 22.4737C292.09 22.2914 291.936 22.1494 291.737 22.0476C291.54 21.9458 291.308 21.8949 291.041 21.8949C290.79 21.8949 290.553 21.9411 290.331 22.0334C290.11 22.1233 289.931 22.2547 289.791 22.4276C289.651 22.598 289.575 22.804 289.564 23.0455H288.711C288.725 22.6643 288.84 22.3305 289.056 22.044C289.271 21.7552 289.553 21.5303 289.901 21.3693C290.251 21.2083 290.636 21.1278 291.055 21.1278C291.505 21.1278 291.891 21.219 292.213 21.4013C292.535 21.5812 292.782 21.8191 292.955 22.1151C293.128 22.411 293.214 22.7306 293.214 23.0739C293.214 23.4834 293.106 23.8326 292.891 24.1214C292.678 24.4103 292.388 24.6103 292.021 24.7216V24.7784C292.48 24.8542 292.839 25.0495 293.097 25.3643C293.355 25.6768 293.484 26.0639 293.484 26.5256C293.484 26.9209 293.376 27.276 293.161 27.5909C292.948 27.9034 292.657 28.1496 292.287 28.3295C291.918 28.5095 291.498 28.5994 291.027 28.5994Z" fill="var(--colors-neutral-neutral-800)"/>
<defs>
<clipPath id="clip0_3023_9462">
<rect x="148" y="24" width="118" height="1" rx="0.5" fill="white"/>
</clipPath>
<clipPath id="clip1_3023_9462">
<rect x="148" y="24" width="87" height="1" rx="0.5" fill="white"/>
</clipPath>
</defs>
</svg>
