<svg width="140" height="176" viewBox="0 0 140 176" fill="none" xmlns="http://www.w3.org/2000/svg">
<rect x="9.27635" y="77.4701" width="121.345" height="2.0057" fill="var(--colors-brand-brand-700)" stroke="var(--colors-neutral-neutral-800)" stroke-width="0.5"/>
<rect x="63.4302" y="79.4758" width="13.037" height="2.0057" fill="var(--colors-brand-brand-700)" stroke="var(--colors-neutral-neutral-800)" stroke-width="0.5"/>
<rect x="9.27635" y="79.4758" width="13.037" height="2.0057" fill="var(--colors-brand-brand-700)" stroke="var(--colors-neutral-neutral-800)" stroke-width="0.5"/>
<rect x="117.584" y="79.4758" width="13.037" height="2.0057" fill="var(--colors-brand-brand-700)" stroke="var(--colors-neutral-neutral-800)" stroke-width="0.5"/>
<rect x="9.27635" y="87.4986" width="121.345" height="2.0057" fill="var(--colors-brand-brand-700)" stroke="var(--colors-neutral-neutral-800)" stroke-width="0.5"/>
<rect x="63.4302" y="81.4815" width="13.037" height="6.01709" fill="var(--colors-brand-brand-700)" stroke="var(--colors-neutral-neutral-800)" stroke-width="0.5"/>
<rect x="9.27635" y="81.4815" width="13.037" height="6.01709" fill="var(--colors-brand-brand-700)" stroke="var(--colors-neutral-neutral-800)" stroke-width="0.5"/>
<rect x="117.584" y="81.4815" width="13.037" height="6.01709" fill="var(--colors-brand-brand-700)" stroke="var(--colors-neutral-neutral-800)" stroke-width="0.5"/>
<rect x="130.621" y="89.5043" width="4.0114" height="121.345" transform="rotate(90 130.621 89.5043)" fill="var(--colors-primary-primary-400)" stroke="var(--colors-neutral-neutral-800)" stroke-width="0.5"/>
<rect x="130.621" y="4.26211" width="4.0114" height="121.345" transform="rotate(90 130.621 4.26211)" fill="var(--colors-primary-primary-400)" stroke="var(--colors-neutral-neutral-800)" stroke-width="0.5"/>
<path d="M102.541 95.5214L99.6463 100.536L105.436 100.536L102.541 95.5214ZM102.541 122.598L105.436 117.584L99.6463 117.584L102.541 122.598ZM102.04 100.034L102.04 118.085L103.043 118.085L103.043 100.034L102.04 100.034Z" fill="var(--colors-neutral-neutral-800)"/>
<rect x="9.27635" y="163.715" width="121.345" height="2.0057" fill="var(--colors-brand-brand-700)" stroke="var(--colors-neutral-neutral-800)" stroke-width="0.5"/>
<rect x="63.4302" y="165.721" width="13.037" height="2.0057" fill="var(--colors-brand-brand-700)" stroke="var(--colors-neutral-neutral-800)" stroke-width="0.5"/>
<rect x="9.27635" y="165.721" width="13.037" height="2.0057" fill="var(--colors-brand-brand-700)" stroke="var(--colors-neutral-neutral-800)" stroke-width="0.5"/>
<rect x="117.584" y="165.721" width="13.037" height="2.0057" fill="var(--colors-brand-brand-700)" stroke="var(--colors-neutral-neutral-800)" stroke-width="0.5"/>
<rect x="9.27635" y="173.744" width="4.0114" height="2.0057" fill="var(--colors-brand-brand-700)" stroke="var(--colors-neutral-neutral-800)" stroke-width="0.5"/>
<rect x="9.27635" y="173.744" width="121.345" height="2.0057" fill="var(--colors-brand-brand-700)" stroke="var(--colors-neutral-neutral-800)" stroke-width="0.5"/>
<rect x="63.4302" y="167.726" width="13.037" height="6.01709" fill="var(--colors-brand-brand-700)" stroke="var(--colors-neutral-neutral-800)" stroke-width="0.5"/>
<rect x="9.27635" y="167.726" width="13.037" height="6.01709" fill="var(--colors-brand-brand-700)" stroke="var(--colors-neutral-neutral-800)" stroke-width="0.5"/>
<rect x="117.584" y="167.726" width="13.037" height="6.01709" fill="var(--colors-brand-brand-700)" stroke="var(--colors-neutral-neutral-800)" stroke-width="0.5"/>
<rect x="17.2991" y="135.635" width="41.1168" height="28.0798" fill="var(--colors-neutral-neutral-500)" stroke="var(--colors-neutral-neutral-800)" stroke-width="0.5"/>
<rect x="81.4815" y="49.3903" width="41.1168" height="28.0798" fill="var(--colors-neutral-neutral-500)" stroke="var(--colors-neutral-neutral-800)" stroke-width="0.5"/>
<rect x="81.4815" y="124.604" width="41.1168" height="39.1111" fill="var(--colors-neutral-neutral-500)" stroke="var(--colors-neutral-neutral-800)" stroke-width="0.5"/>
<rect x="17.2991" y="38.359" width="41.1168" height="39.1111" fill="var(--colors-neutral-neutral-500)" stroke="var(--colors-neutral-neutral-800)" stroke-width="0.5"/>
<rect x="130.621" y="0.250712" width="9.02564" height="174.496" fill="var(--colors-primary-primary-600)" stroke="var(--colors-neutral-neutral-800)" stroke-width="0.5"/>
<rect x="130.621" y="173.744" width="9.02564" height="2.0057" fill="var(--colors-feedback-error-red-300)" stroke="var(--colors-neutral-neutral-800)" stroke-width="0.5"/>
<rect x="0.250712" y="0.250712" width="9.02564" height="174.496" fill="var(--colors-primary-primary-600)" stroke="var(--colors-neutral-neutral-800)" stroke-width="0.5"/>
<rect x="0.250712" y="173.744" width="9.02564" height="2.0057" fill="var(--colors-feedback-error-red-300)" stroke="var(--colors-neutral-neutral-800)" stroke-width="0.5"/>
</svg>
