<svg width="41" height="53" viewBox="0 0 41 53" fill="none" xmlns="http://www.w3.org/2000/svg">
<path d="M9.39471 21.8182V32H8.20153L2.65323 24.0057H2.5538V32H1.32085V21.8182H2.51403L8.08221 29.8324H8.18164V21.8182H9.39471ZM12.2795 32H10.9869L14.7255 21.8182H15.9982L19.7369 32H18.4442L15.4016 23.429H15.3221L12.2795 32ZM12.7567 28.0227H17.967V29.1165H12.7567V28.0227ZM21.3228 21.8182H22.7944L26.2546 30.2699H26.3739L29.8342 21.8182H31.3058V32H30.1523V24.2642H30.0529L26.8711 32H25.7575L22.5756 24.2642H22.4762V32H21.3228V21.8182ZM33.7779 32V21.8182H39.9228V22.9119H35.0108V26.3523H39.6046V27.446H35.0108V30.9062H40.0023V32H33.7779Z" fill="var(--colors-neutral-neutral-700)"/>
</svg>
