<svg width="400" height="201" viewBox="0 0 400 201" fill="none" xmlns="http://www.w3.org/2000/svg">
<rect x="0.5" y="0.5" width="399" height="200" fill="white"/>
<rect x="0.5" y="0.5" width="399" height="200" stroke="#E6E6E6"/>
<path d="M22.8011 25.8636C22.7415 25.3598 22.4995 24.9688 22.0753 24.6903C21.651 24.4119 21.1307 24.2727 20.5142 24.2727C20.0634 24.2727 19.669 24.3456 19.331 24.4915C18.9962 24.6373 18.7344 24.8378 18.5455 25.093C18.3598 25.3482 18.267 25.6383 18.267 25.9631C18.267 26.2348 18.3317 26.4685 18.4609 26.6641C18.5935 26.8563 18.7625 27.017 18.968 27.1463C19.1735 27.2723 19.389 27.3767 19.6143 27.4595C19.8397 27.5391 20.0469 27.6037 20.2358 27.6534L21.2699 27.9318C21.535 28.0014 21.83 28.0975 22.1548 28.2202C22.483 28.3428 22.7962 28.5102 23.0945 28.7223C23.3961 28.9311 23.6446 29.1996 23.8402 29.5277C24.0357 29.8558 24.1335 30.2585 24.1335 30.7358C24.1335 31.286 23.9893 31.7831 23.701 32.2273C23.416 32.6714 22.9983 33.0244 22.4482 33.2862C21.9013 33.5481 21.2367 33.679 20.4545 33.679C19.7254 33.679 19.094 33.5613 18.5604 33.326C18.0301 33.0907 17.6125 32.7625 17.3075 32.3416C17.0059 31.9207 16.8352 31.4318 16.7955 30.875H18.0682C18.1013 31.2595 18.2306 31.5777 18.456 31.8295C18.6847 32.0781 18.973 32.2637 19.321 32.3864C19.6723 32.5057 20.0502 32.5653 20.4545 32.5653C20.9252 32.5653 21.3478 32.4891 21.7223 32.3366C22.0968 32.1809 22.3935 31.9654 22.6122 31.6903C22.831 31.4119 22.9403 31.0871 22.9403 30.7159C22.9403 30.3778 22.8459 30.1027 22.657 29.8906C22.468 29.6785 22.2195 29.5062 21.9112 29.3736C21.603 29.241 21.2699 29.125 20.9119 29.0256L19.6591 28.6676C18.8636 28.4389 18.2339 28.1125 17.7699 27.6882C17.3059 27.264 17.0739 26.7088 17.0739 26.0227C17.0739 25.4527 17.228 24.9555 17.5362 24.5312C17.8478 24.1037 18.2654 23.7723 18.7891 23.5369C19.3161 23.2983 19.9044 23.179 20.554 23.179C21.2102 23.179 21.7936 23.2966 22.304 23.532C22.8144 23.764 23.2188 24.0821 23.517 24.4865C23.8187 24.8909 23.9777 25.3499 23.9943 25.8636H22.8011ZM27.1749 28.9062V33.5H26.0016V23.3182H27.1749V27.0568H27.2743C27.4533 26.6624 27.7218 26.3492 28.0797 26.1172C28.441 25.8819 28.9216 25.7642 29.5215 25.7642C30.0418 25.7642 30.4976 25.8686 30.8887 26.0774C31.2798 26.2829 31.583 26.5994 31.7985 27.027C32.0172 27.4512 32.1266 27.9915 32.1266 28.6477V33.5H30.9533V28.7273C30.9533 28.1207 30.7959 27.6518 30.481 27.3203C30.1694 26.9856 29.7369 26.8182 29.1834 26.8182C28.7989 26.8182 28.4542 26.8994 28.1493 27.0618C27.8477 27.2242 27.6091 27.4612 27.4334 27.7727C27.2611 28.0843 27.1749 28.4621 27.1749 28.9062ZM39.0856 30.3778V25.8636H40.2589V33.5H39.0856V32.2074H39.006C38.8271 32.5952 38.5487 32.925 38.1708 33.1967C37.793 33.4652 37.3157 33.5994 36.739 33.5994C36.2617 33.5994 35.8375 33.495 35.4663 33.2862C35.0951 33.0741 34.8034 32.7559 34.5913 32.3317C34.3791 31.9041 34.2731 31.3655 34.2731 30.7159V25.8636H35.4464V30.6364C35.4464 31.1932 35.6022 31.6373 35.9137 31.9688C36.2286 32.3002 36.6296 32.4659 37.1168 32.4659C37.4085 32.4659 37.7051 32.3913 38.0067 32.2422C38.3117 32.093 38.5669 31.8643 38.7724 31.5561C38.9812 31.2479 39.0856 30.8551 39.0856 30.3778ZM45.7289 25.8636V26.858H41.7715V25.8636H45.7289ZM42.9249 24.0341H44.0982V31.3125C44.0982 31.6439 44.1462 31.8925 44.2424 32.0582C44.3418 32.2206 44.4677 32.33 44.6202 32.3864C44.776 32.4394 44.94 32.4659 45.1124 32.4659C45.2417 32.4659 45.3477 32.4593 45.4306 32.446C45.5134 32.4295 45.5797 32.4162 45.6294 32.4062L45.8681 33.4602C45.7885 33.4901 45.6775 33.5199 45.535 33.5497C45.3925 33.5829 45.2118 33.5994 44.9931 33.5994C44.6616 33.5994 44.3368 33.5282 44.0186 33.3857C43.7038 33.2431 43.4419 33.026 43.2331 32.7344C43.0276 32.4427 42.9249 32.0748 42.9249 31.6307V24.0341ZM50.8148 25.8636V26.858H46.8574V25.8636H50.8148ZM48.0108 24.0341H49.1841V31.3125C49.1841 31.6439 49.2322 31.8925 49.3283 32.0582C49.4277 32.2206 49.5537 32.33 49.7061 32.3864C49.8619 32.4394 50.026 32.4659 50.1983 32.4659C50.3276 32.4659 50.4337 32.4593 50.5165 32.446C50.5994 32.4295 50.6657 32.4162 50.7154 32.4062L50.954 33.4602C50.8745 33.4901 50.7634 33.5199 50.6209 33.5497C50.4784 33.5829 50.2978 33.5994 50.079 33.5994C49.7476 33.5994 49.4228 33.5282 49.1046 33.3857C48.7897 33.2431 48.5279 33.026 48.3191 32.7344C48.1136 32.4427 48.0108 32.0748 48.0108 31.6307V24.0341ZM53.9171 23.3182V33.5H52.7438V23.3182H53.9171ZM59.2678 33.6591C58.532 33.6591 57.8973 33.4967 57.3636 33.1719C56.8333 32.8438 56.424 32.3864 56.1357 31.7997C55.8506 31.2098 55.7081 30.5237 55.7081 29.7415C55.7081 28.9593 55.8506 28.2699 56.1357 27.6733C56.424 27.0734 56.825 26.6061 57.3388 26.2713C57.8558 25.9332 58.459 25.7642 59.1484 25.7642C59.5462 25.7642 59.9389 25.8305 60.3267 25.9631C60.7145 26.0956 61.0675 26.3111 61.3857 26.6094C61.7038 26.9044 61.9574 27.2955 62.1463 27.7827C62.3352 28.2699 62.4297 28.8698 62.4297 29.5824V30.0795H56.5433V29.0653H61.2365C61.2365 28.6345 61.1503 28.25 60.978 27.9119C60.8089 27.5739 60.567 27.3071 60.2521 27.1115C59.9406 26.916 59.5727 26.8182 59.1484 26.8182C58.6811 26.8182 58.2768 26.9342 57.9354 27.1662C57.5973 27.3949 57.3371 27.6932 57.1548 28.0611C56.9725 28.429 56.8814 28.8234 56.8814 29.2443V29.9205C56.8814 30.4972 56.9808 30.986 57.1797 31.3871C57.3819 31.7848 57.6619 32.0881 58.0199 32.2969C58.3778 32.5024 58.7938 32.6051 59.2678 32.6051C59.576 32.6051 59.8544 32.562 60.103 32.4759C60.3549 32.3864 60.572 32.2538 60.7543 32.0781C60.9366 31.8991 61.0774 31.6771 61.1768 31.4119L62.3104 31.7301C62.1911 32.1146 61.9905 32.4527 61.7088 32.7443C61.4271 33.0327 61.0791 33.258 60.6648 33.4205C60.2505 33.5795 59.7848 33.6591 59.2678 33.6591ZM68.152 33.5V25.8636H69.2855V27.017H69.3651C69.5043 26.6392 69.7562 26.3326 70.1207 26.0973C70.4853 25.862 70.8963 25.7443 71.3537 25.7443C71.4399 25.7443 71.5476 25.746 71.6768 25.7493C71.8061 25.7526 71.9039 25.7576 71.9702 25.7642V26.9574C71.9304 26.9474 71.8393 26.9325 71.6967 26.9126C71.5575 26.8894 71.41 26.8778 71.2543 26.8778C70.883 26.8778 70.5516 26.9557 70.2599 27.1115C69.9716 27.264 69.7429 27.4761 69.5739 27.7479C69.4081 28.0163 69.3253 28.3229 69.3253 28.6676V33.5H68.152ZM75.6081 33.679C75.1242 33.679 74.6851 33.5878 74.2907 33.4055C73.8962 33.2199 73.583 32.9531 73.351 32.6051C73.119 32.2538 73.003 31.8295 73.003 31.3324C73.003 30.8949 73.0892 30.5402 73.2615 30.2685C73.4339 29.9934 73.6642 29.7779 73.9526 29.6222C74.2409 29.4664 74.5591 29.3504 74.9071 29.2741C75.2585 29.1946 75.6114 29.1316 75.9661 29.0852C76.4301 29.0256 76.8063 28.9808 77.0946 28.951C77.3863 28.9179 77.5984 28.8632 77.731 28.7869C77.8669 28.7107 77.9348 28.5781 77.9348 28.3892V28.3494C77.9348 27.8589 77.8006 27.4777 77.5321 27.206C77.267 26.9342 76.8643 26.7983 76.324 26.7983C75.7639 26.7983 75.3248 26.9209 75.0066 27.1662C74.6884 27.4115 74.4647 27.6733 74.3354 27.9517L73.2218 27.554C73.4206 27.09 73.6858 26.7287 74.0172 26.4702C74.352 26.2083 74.7166 26.026 75.111 25.9233C75.5087 25.8172 75.8998 25.7642 76.2843 25.7642C76.5295 25.7642 76.8113 25.794 77.1294 25.8537C77.4509 25.91 77.7608 26.0277 78.0591 26.2067C78.3607 26.3857 78.611 26.6558 78.8098 27.017C79.0087 27.3783 79.1081 27.8622 79.1081 28.4688V33.5H77.9348V32.4659H77.8752C77.7956 32.6316 77.6631 32.8089 77.4775 32.9979C77.2918 33.1868 77.0449 33.3475 76.7367 33.4801C76.4284 33.6127 76.0523 33.679 75.6081 33.679ZM75.7871 32.625C76.2511 32.625 76.6422 32.5339 76.9604 32.3516C77.2819 32.1693 77.5239 31.9339 77.6863 31.6456C77.852 31.3572 77.9348 31.054 77.9348 30.7358V29.6619C77.8851 29.7216 77.7757 29.7763 77.6067 29.826C77.441 29.8724 77.2488 29.9138 77.03 29.9503C76.8146 29.9834 76.6041 30.0133 76.3986 30.0398C76.1964 30.063 76.0324 30.0829 75.9064 30.0994C75.6015 30.1392 75.3165 30.2038 75.0513 30.2933C74.7895 30.3795 74.5774 30.5104 74.415 30.6861C74.2559 30.8584 74.1763 31.0937 74.1763 31.392C74.1763 31.7997 74.3271 32.108 74.6287 32.3168C74.9337 32.5223 75.3198 32.625 75.7871 32.625ZM84.3519 33.6591C83.636 33.6591 83.0195 33.4901 82.5025 33.152C81.9854 32.8139 81.5877 32.3482 81.3093 31.755C81.0309 31.1617 80.8917 30.4839 80.8917 29.7216C80.8917 28.946 81.0342 28.2616 81.3192 27.6683C81.6076 27.0717 82.0086 26.6061 82.5224 26.2713C83.0394 25.9332 83.6426 25.7642 84.332 25.7642C84.869 25.7642 85.3529 25.8636 85.7837 26.0625C86.2146 26.2614 86.5676 26.5398 86.8427 26.8977C87.1178 27.2557 87.2885 27.6733 87.3548 28.1506H86.1815C86.092 27.8026 85.8931 27.4943 85.5849 27.2259C85.2799 26.9541 84.869 26.8182 84.3519 26.8182C83.8945 26.8182 83.4935 26.9375 83.1488 27.1761C82.8074 27.4115 82.5406 27.7446 82.3484 28.1754C82.1594 28.603 82.065 29.1051 82.065 29.6818C82.065 30.2718 82.1578 30.7855 82.3434 31.223C82.5323 31.6605 82.7975 32.0002 83.1388 32.2422C83.4835 32.4841 83.8879 32.6051 84.3519 32.6051C84.6568 32.6051 84.9336 32.5521 85.1822 32.446C85.4308 32.34 85.6412 32.1875 85.8136 31.9886C85.9859 31.7898 86.1085 31.5511 86.1815 31.2727H87.3548C87.2885 31.7235 87.1244 32.1295 86.8626 32.4908C86.604 32.8487 86.261 33.1338 85.8335 33.3459C85.4092 33.5547 84.9154 33.6591 84.3519 33.6591ZM90.1637 30.7159L90.1438 29.2642H90.3825L93.7234 25.8636H95.1751L91.6154 29.4631H91.516L90.1637 30.7159ZM89.07 33.5V23.3182H90.2433V33.5H89.07ZM93.9222 33.5L90.9393 29.7216L91.7745 28.9062L95.4137 33.5H93.9222ZM96.6852 33.5V25.8636H97.8585V33.5H96.6852ZM97.2818 24.5909C97.0531 24.5909 96.8559 24.513 96.6902 24.3572C96.5278 24.2015 96.4466 24.0142 96.4466 23.7955C96.4466 23.5767 96.5278 23.3894 96.6902 23.2337C96.8559 23.0779 97.0531 23 97.2818 23C97.5105 23 97.706 23.0779 97.8684 23.2337C98.0342 23.3894 98.117 23.5767 98.117 23.7955C98.117 24.0142 98.0342 24.2015 97.8684 24.3572C97.706 24.513 97.5105 24.5909 97.2818 24.5909ZM101.181 28.9062V33.5H100.007V25.8636H101.141V27.0568H101.24C101.419 26.669 101.691 26.3575 102.056 26.1222C102.42 25.8835 102.891 25.7642 103.468 25.7642C103.985 25.7642 104.437 25.8703 104.825 26.0824C105.213 26.2912 105.514 26.6094 105.73 27.0369C105.945 27.4612 106.053 27.9981 106.053 28.6477V33.5H104.88V28.7273C104.88 28.1274 104.724 27.66 104.412 27.3253C104.101 26.9872 103.673 26.8182 103.13 26.8182C102.755 26.8182 102.42 26.8994 102.125 27.0618C101.834 27.2242 101.603 27.4612 101.434 27.7727C101.265 28.0843 101.181 28.4621 101.181 28.9062ZM111.279 36.5227C110.713 36.5227 110.225 36.4498 109.818 36.304C109.41 36.1615 109.07 35.9725 108.798 35.7372C108.53 35.5052 108.316 35.2566 108.157 34.9915L109.092 34.3352C109.198 34.4744 109.332 34.6335 109.494 34.8125C109.657 34.9948 109.879 35.1522 110.161 35.2848C110.446 35.4207 110.819 35.4886 111.279 35.4886C111.896 35.4886 112.405 35.3395 112.806 35.0412C113.207 34.7429 113.407 34.2756 113.407 33.6392V32.0881H113.308C113.222 32.2273 113.099 32.3996 112.94 32.6051C112.784 32.8073 112.559 32.9879 112.264 33.147C111.972 33.3028 111.578 33.3807 111.08 33.3807C110.464 33.3807 109.91 33.2348 109.42 32.9432C108.933 32.6515 108.547 32.2273 108.262 31.6705C107.98 31.1136 107.839 30.4375 107.839 29.642C107.839 28.8598 107.977 28.1787 108.252 27.5987C108.527 27.0154 108.91 26.5646 109.4 26.2464C109.891 25.925 110.457 25.7642 111.1 25.7642C111.597 25.7642 111.992 25.8471 112.284 26.0128C112.579 26.1752 112.804 26.3608 112.96 26.5696C113.119 26.7751 113.241 26.9441 113.328 27.0767H113.447V25.8636H114.58V33.7188C114.58 34.375 114.431 34.9086 114.133 35.3196C113.838 35.7339 113.44 36.0372 112.94 36.2294C112.443 36.425 111.889 36.5227 111.279 36.5227ZM111.24 32.3267C111.71 32.3267 112.108 32.219 112.433 32.0036C112.758 31.7881 113.004 31.4782 113.173 31.0739C113.343 30.6695 113.427 30.1856 113.427 29.6222C113.427 29.072 113.344 28.5864 113.178 28.1655C113.013 27.7446 112.767 27.4148 112.443 27.1761C112.118 26.9375 111.717 26.8182 111.24 26.8182C110.742 26.8182 110.328 26.9441 109.997 27.196C109.669 27.4479 109.422 27.786 109.256 28.2102C109.093 28.6345 109.012 29.1051 109.012 29.6222C109.012 30.1525 109.095 30.6214 109.261 31.0291C109.43 31.4335 109.678 31.7517 110.007 31.9837C110.338 32.2124 110.749 32.3267 111.24 32.3267ZM126.075 27.5739L125.021 27.8722C124.954 27.6965 124.857 27.5258 124.727 27.3601C124.602 27.1911 124.429 27.0518 124.21 26.9425C123.992 26.8331 123.712 26.7784 123.37 26.7784C122.903 26.7784 122.513 26.8861 122.202 27.1016C121.894 27.3137 121.74 27.5838 121.74 27.9119C121.74 28.2036 121.846 28.4339 122.058 28.603C122.27 28.772 122.601 28.9129 123.052 29.0256L124.186 29.304C124.868 29.4697 125.377 29.7232 125.712 30.0646C126.047 30.4027 126.214 30.8385 126.214 31.3722C126.214 31.8097 126.088 32.2008 125.836 32.5455C125.588 32.8902 125.24 33.1619 124.792 33.3608C124.345 33.5597 123.824 33.6591 123.231 33.6591C122.452 33.6591 121.807 33.4901 121.297 33.152C120.787 32.8139 120.463 32.3201 120.328 31.6705L121.441 31.392C121.547 31.803 121.748 32.1113 122.043 32.3168C122.341 32.5223 122.731 32.625 123.211 32.625C123.758 32.625 124.192 32.509 124.514 32.277C124.838 32.0417 125.001 31.7599 125.001 31.4318C125.001 31.1667 124.908 30.9446 124.722 30.7656C124.537 30.5833 124.252 30.4474 123.867 30.358L122.595 30.0597C121.895 29.8939 121.382 29.6371 121.053 29.2891C120.729 28.9377 120.566 28.4986 120.566 27.9716C120.566 27.5407 120.687 27.1596 120.929 26.8281C121.174 26.4967 121.508 26.2365 121.928 26.0476C122.353 25.8587 122.833 25.7642 123.37 25.7642C124.126 25.7642 124.719 25.9299 125.15 26.2614C125.584 26.5928 125.892 27.0303 126.075 27.5739ZM131.182 33.6591C130.446 33.6591 129.811 33.4967 129.278 33.1719C128.747 32.8438 128.338 32.3864 128.05 31.7997C127.765 31.2098 127.622 30.5237 127.622 29.7415C127.622 28.9593 127.765 28.2699 128.05 27.6733C128.338 27.0734 128.739 26.6061 129.253 26.2713C129.77 25.9332 130.373 25.7642 131.062 25.7642C131.46 25.7642 131.853 25.8305 132.241 25.9631C132.629 26.0956 132.982 26.3111 133.3 26.6094C133.618 26.9044 133.871 27.2955 134.06 27.7827C134.249 28.2699 134.344 28.8698 134.344 29.5824V30.0795H128.457V29.0653H133.151C133.151 28.6345 133.064 28.25 132.892 27.9119C132.723 27.5739 132.481 27.3071 132.166 27.1115C131.855 26.916 131.487 26.8182 131.062 26.8182C130.595 26.8182 130.191 26.9342 129.849 27.1662C129.511 27.3949 129.251 27.6932 129.069 28.0611C128.887 28.429 128.795 28.8234 128.795 29.2443V29.9205C128.795 30.4972 128.895 30.986 129.094 31.3871C129.296 31.7848 129.576 32.0881 129.934 32.2969C130.292 32.5024 130.708 32.6051 131.182 32.6051C131.49 32.6051 131.768 32.562 132.017 32.4759C132.269 32.3864 132.486 32.2538 132.668 32.0781C132.851 31.8991 132.991 31.6771 133.091 31.4119L134.224 31.7301C134.105 32.1146 133.905 32.4527 133.623 32.7443C133.341 33.0327 132.993 33.258 132.579 33.4205C132.165 33.5795 131.699 33.6591 131.182 33.6591ZM139.45 25.8636V26.858H135.492V25.8636H139.45ZM136.646 24.0341H137.819V31.3125C137.819 31.6439 137.867 31.8925 137.963 32.0582C138.063 32.2206 138.188 32.33 138.341 32.3864C138.497 32.4394 138.661 32.4659 138.833 32.4659C138.962 32.4659 139.068 32.4593 139.151 32.446C139.234 32.4295 139.3 32.4162 139.35 32.4062L139.589 33.4602C139.509 33.4901 139.398 33.5199 139.256 33.5497C139.113 33.5829 138.933 33.5994 138.714 33.5994C138.382 33.5994 138.058 33.5282 137.739 33.3857C137.424 33.2431 137.163 33.026 136.954 32.7344C136.748 32.4427 136.646 32.0748 136.646 31.6307V24.0341ZM144.536 25.8636V26.858H140.578V25.8636H144.536ZM141.732 24.0341H142.905V31.3125C142.905 31.6439 142.953 31.8925 143.049 32.0582C143.148 32.2206 143.274 32.33 143.427 32.3864C143.583 32.4394 143.747 32.4659 143.919 32.4659C144.048 32.4659 144.154 32.4593 144.237 32.446C144.32 32.4295 144.386 32.4162 144.436 32.4062L144.675 33.4602C144.595 33.4901 144.484 33.5199 144.342 33.5497C144.199 33.5829 144.018 33.5994 143.8 33.5994C143.468 33.5994 143.143 33.5282 142.825 33.3857C142.51 33.2431 142.249 33.026 142.04 32.7344C141.834 32.4427 141.732 32.0748 141.732 31.6307V24.0341ZM146.3 33.5V25.8636H147.474V33.5H146.3ZM146.897 24.5909C146.668 24.5909 146.471 24.513 146.305 24.3572C146.143 24.2015 146.062 24.0142 146.062 23.7955C146.062 23.5767 146.143 23.3894 146.305 23.2337C146.471 23.0779 146.668 23 146.897 23C147.126 23 147.321 23.0779 147.484 23.2337C147.649 23.3894 147.732 23.5767 147.732 23.7955C147.732 24.0142 147.649 24.2015 147.484 24.3572C147.321 24.513 147.126 24.5909 146.897 24.5909ZM150.796 28.9062V33.5H149.623V25.8636H150.756V27.0568H150.856C151.035 26.669 151.306 26.3575 151.671 26.1222C152.036 25.8835 152.506 25.7642 153.083 25.7642C153.6 25.7642 154.052 25.8703 154.44 26.0824C154.828 26.2912 155.13 26.6094 155.345 27.0369C155.56 27.4612 155.668 27.9981 155.668 28.6477V33.5H154.495V28.7273C154.495 28.1274 154.339 27.66 154.028 27.3253C153.716 26.9872 153.288 26.8182 152.745 26.8182C152.37 26.8182 152.036 26.8994 151.741 27.0618C151.449 27.2242 151.219 27.4612 151.05 27.7727C150.881 28.0843 150.796 28.4621 150.796 28.9062ZM160.895 36.5227C160.328 36.5227 159.841 36.4498 159.433 36.304C159.025 36.1615 158.685 35.9725 158.414 35.7372C158.145 35.5052 157.931 35.2566 157.772 34.9915L158.707 34.3352C158.813 34.4744 158.947 34.6335 159.11 34.8125C159.272 34.9948 159.494 35.1522 159.776 35.2848C160.061 35.4207 160.434 35.4886 160.895 35.4886C161.511 35.4886 162.02 35.3395 162.421 35.0412C162.822 34.7429 163.022 34.2756 163.022 33.6392V32.0881H162.923C162.837 32.2273 162.714 32.3996 162.555 32.6051C162.399 32.8073 162.174 32.9879 161.879 33.147C161.587 33.3028 161.193 33.3807 160.696 33.3807C160.079 33.3807 159.526 33.2348 159.035 32.9432C158.548 32.6515 158.162 32.2273 157.877 31.6705C157.595 31.1136 157.454 30.4375 157.454 29.642C157.454 28.8598 157.592 28.1787 157.867 27.5987C158.142 27.0154 158.525 26.5646 159.015 26.2464C159.506 25.925 160.073 25.7642 160.716 25.7642C161.213 25.7642 161.607 25.8471 161.899 26.0128C162.194 26.1752 162.419 26.3608 162.575 26.5696C162.734 26.7751 162.857 26.9441 162.943 27.0767H163.062V25.8636H164.196V33.7188C164.196 34.375 164.047 34.9086 163.748 35.3196C163.453 35.7339 163.056 36.0372 162.555 36.2294C162.058 36.425 161.504 36.5227 160.895 36.5227ZM160.855 32.3267C161.325 32.3267 161.723 32.219 162.048 32.0036C162.373 31.7881 162.62 31.4782 162.789 31.0739C162.958 30.6695 163.042 30.1856 163.042 29.6222C163.042 29.072 162.959 28.5864 162.794 28.1655C162.628 27.7446 162.383 27.4148 162.058 27.1761C161.733 26.9375 161.332 26.8182 160.855 26.8182C160.358 26.8182 159.943 26.9441 159.612 27.196C159.284 27.4479 159.037 27.786 158.871 28.2102C158.709 28.6345 158.627 29.1051 158.627 29.6222C158.627 30.1525 158.71 30.6214 158.876 31.0291C159.045 31.4335 159.294 31.7517 159.622 31.9837C159.953 32.2124 160.364 32.3267 160.855 32.3267ZM171.752 27.5739L170.699 27.8722C170.632 27.6965 170.534 27.5258 170.405 27.3601C170.279 27.1911 170.107 27.0518 169.888 26.9425C169.669 26.8331 169.389 26.7784 169.048 26.7784C168.581 26.7784 168.191 26.8861 167.88 27.1016C167.571 27.3137 167.417 27.5838 167.417 27.9119C167.417 28.2036 167.523 28.4339 167.735 28.603C167.948 28.772 168.279 28.9129 168.73 29.0256L169.863 29.304C170.546 29.4697 171.055 29.7232 171.39 30.0646C171.724 30.4027 171.892 30.8385 171.892 31.3722C171.892 31.8097 171.766 32.2008 171.514 32.5455C171.265 32.8902 170.917 33.1619 170.47 33.3608C170.022 33.5597 169.502 33.6591 168.909 33.6591C168.13 33.6591 167.485 33.4901 166.975 33.152C166.464 32.8139 166.141 32.3201 166.005 31.6705L167.119 31.392C167.225 31.803 167.426 32.1113 167.721 32.3168C168.019 32.5223 168.408 32.625 168.889 32.625C169.436 32.625 169.87 32.509 170.191 32.277C170.516 32.0417 170.679 31.7599 170.679 31.4318C170.679 31.1667 170.586 30.9446 170.4 30.7656C170.215 30.5833 169.93 30.4474 169.545 30.358L168.272 30.0597C167.573 29.8939 167.059 29.6371 166.731 29.2891C166.406 28.9377 166.244 28.4986 166.244 27.9716C166.244 27.5407 166.365 27.1596 166.607 26.8281C166.852 26.4967 167.185 26.2365 167.606 26.0476C168.03 25.8587 168.511 25.7642 169.048 25.7642C169.804 25.7642 170.397 25.9299 170.828 26.2614C171.262 26.5928 171.57 27.0303 171.752 27.5739Z" fill="#222222"/>
<path d="M366.4 34.3077L365.692 33.6L371.292 28L365.692 22.4L366.4 21.6923L372 27.2923L377.6 21.6923L378.308 22.4L372.708 28L378.308 33.6L377.6 34.3077L372 28.7077L366.4 34.3077Z" fill="#222222"/>
<rect y="56" width="400" height="1" fill="#E6E6E6"/>
<g clip-path="url(#clip0_5341_20537)">
<rect width="368" height="32" transform="translate(16 73)" fill="white"/>
<path d="M18.49 93L16.31 86.02H17.42L18.89 90.6L19.27 92.11L19.64 90.61L21.12 86.02H22.2L20.02 93H18.49ZM25.8139 93.12C25.2472 93.12 24.7572 93.0067 24.3439 92.78C23.9306 92.5467 23.6139 92.2167 23.3939 91.79C23.1739 91.3567 23.0639 90.84 23.0639 90.24C23.0639 89.64 23.1739 89.1267 23.3939 88.7C23.6206 88.2733 23.9406 87.9467 24.3539 87.72C24.7739 87.4933 25.2739 87.38 25.8539 87.38C26.7406 87.38 27.4006 87.6267 27.8339 88.12C28.2672 88.6067 28.4572 89.2767 28.4039 90.13H23.8639L23.8739 89.37L27.3739 89.38C27.3472 89.0267 27.1939 88.7433 26.9139 88.53C26.6339 88.3167 26.2806 88.21 25.8539 88.21C25.2806 88.21 24.8406 88.39 24.5339 88.75C24.2272 89.11 24.0739 89.62 24.0739 90.28C24.0739 90.6733 24.1406 91.0233 24.2739 91.33C24.4139 91.63 24.6139 91.8633 24.8739 92.03C25.1339 92.1967 25.4472 92.28 25.8139 92.28C26.2472 92.28 26.6072 92.1767 26.8939 91.97C27.1872 91.7633 27.3672 91.4833 27.4339 91.13H28.4439C28.3572 91.75 28.0806 92.2367 27.6139 92.59C27.1472 92.9433 26.5472 93.12 25.8139 93.12ZM33.7378 93V89.54C33.7378 89.1467 33.6278 88.8333 33.4078 88.6C33.1878 88.36 32.9011 88.24 32.5478 88.24C32.1411 88.24 31.7778 88.39 31.4578 88.69C31.1445 88.9833 30.8945 89.4433 30.7078 90.07L30.5478 88.95C30.7545 88.4233 31.0511 88.03 31.4378 87.77C31.8311 87.51 32.2578 87.38 32.7178 87.38C33.1311 87.38 33.4878 87.47 33.7878 87.65C34.0945 87.8233 34.3311 88.07 34.4978 88.39C34.6645 88.7033 34.7478 89.0733 34.7478 89.5V93H33.7378ZM29.8178 93V85.64H30.8278V93H29.8178ZM38.3117 93V87.5H39.3217V93H38.3117ZM36.2817 93V92.18H41.2117V93H36.2817ZM37.0117 88.32V87.5H38.8117V88.32H37.0117ZM38.2417 86.56V85.47H39.3717V86.56H38.2417ZM45.4256 93.12C44.859 93.12 44.3656 93.0033 43.9456 92.77C43.5323 92.53 43.2123 92.1967 42.9856 91.77C42.759 91.3367 42.6456 90.83 42.6456 90.25C42.6456 89.6567 42.7623 89.1467 42.9956 88.72C43.229 88.2867 43.5556 87.9567 43.9756 87.73C44.3956 87.4967 44.8856 87.38 45.4456 87.38C45.8923 87.38 46.2923 87.4633 46.6456 87.63C47.0056 87.79 47.2956 88.02 47.5156 88.32C47.7423 88.62 47.8723 88.9767 47.9056 89.39H46.8956C46.8423 89.0167 46.6823 88.73 46.4156 88.53C46.1556 88.3233 45.8323 88.22 45.4456 88.22C45.0856 88.22 44.7723 88.3033 44.5056 88.47C44.239 88.63 44.0323 88.86 43.8856 89.16C43.739 89.46 43.6656 89.8233 43.6656 90.25C43.6656 90.8833 43.8256 91.38 44.1456 91.74C44.4723 92.1 44.899 92.28 45.4256 92.28C45.6656 92.28 45.889 92.2333 46.0956 92.14C46.3023 92.0467 46.479 91.9133 46.6256 91.74C46.7723 91.56 46.8723 91.3533 46.9256 91.12H47.9456C47.879 91.5333 47.7256 91.89 47.4856 92.19C47.2523 92.4833 46.9556 92.7133 46.5956 92.88C46.2423 93.04 45.8523 93.12 45.4256 93.12ZM51.2695 93V85.65H52.2795V93H51.2695ZM49.2395 93V92.18H54.3195V93H49.2395ZM49.9695 86.47V85.65H51.7695V86.47H49.9695ZM58.3334 93.12C57.7668 93.12 57.2768 93.0067 56.8634 92.78C56.4501 92.5467 56.1334 92.2167 55.9134 91.79C55.6934 91.3567 55.5834 90.84 55.5834 90.24C55.5834 89.64 55.6934 89.1267 55.9134 88.7C56.1401 88.2733 56.4601 87.9467 56.8734 87.72C57.2934 87.4933 57.7934 87.38 58.3734 87.38C59.2601 87.38 59.9201 87.6267 60.3534 88.12C60.7868 88.6067 60.9768 89.2767 60.9234 90.13H56.3834L56.3934 89.37L59.8934 89.38C59.8668 89.0267 59.7134 88.7433 59.4334 88.53C59.1534 88.3167 58.8001 88.21 58.3734 88.21C57.8001 88.21 57.3601 88.39 57.0534 88.75C56.7468 89.11 56.5934 89.62 56.5934 90.28C56.5934 90.6733 56.6601 91.0233 56.7934 91.33C56.9334 91.63 57.1334 91.8633 57.3934 92.03C57.6534 92.1967 57.9668 92.28 58.3334 92.28C58.7668 92.28 59.1268 92.1767 59.4134 91.97C59.7068 91.7633 59.8868 91.4833 59.9534 91.13H60.9634C60.8768 91.75 60.6001 92.2367 60.1334 92.59C59.6668 92.9433 59.0668 93.12 58.3334 93.12Z" fill="#222222"/>
<rect width="180" height="32" transform="translate(204 73)" fill="#F7F7F7"/>
<path d="M213.057 93V84.2727H216.006C216.688 84.2727 217.247 84.3892 217.685 84.6222C218.122 84.8523 218.446 85.169 218.656 85.5724C218.866 85.9759 218.972 86.4347 218.972 86.9489C218.972 87.4631 218.866 87.919 218.656 88.3168C218.446 88.7145 218.124 89.027 217.689 89.2543C217.254 89.4787 216.699 89.5909 216.023 89.5909H213.636V88.6364H215.989C216.455 88.6364 216.83 88.5682 217.114 88.4318C217.401 88.2955 217.608 88.1023 217.736 87.8523C217.866 87.5994 217.932 87.2983 217.932 86.9489C217.932 86.5994 217.866 86.294 217.736 86.0327C217.605 85.7713 217.396 85.5696 217.109 85.4276C216.822 85.2827 216.443 85.2102 215.972 85.2102H214.114V93H213.057ZM217.165 89.0795L219.312 93H218.085L215.972 89.0795H217.165ZM221.091 93H219.983L223.187 84.2727H224.278L227.483 93H226.375L223.767 85.6534H223.699L221.091 93ZM221.5 89.5909H225.966V90.5284H221.5V89.5909ZM228.842 93V84.2727H234.109V85.2102H229.899V88.1591H233.836V89.0966H229.899V92.0625H234.177V93H228.842ZM238.929 84.2727V93H237.872V85.3807H237.821L235.69 86.7955V85.7216L237.872 84.2727H238.929ZM244.336 93.1193C243.978 93.1136 243.62 93.0455 243.262 92.9148C242.904 92.7841 242.578 92.5639 242.282 92.2543C241.987 91.9418 241.75 91.5199 241.571 90.9886C241.392 90.4545 241.302 89.7841 241.302 88.9773C241.302 88.2045 241.375 87.5199 241.52 86.9233C241.664 86.3239 241.875 85.8196 242.15 85.4105C242.426 84.9986 242.758 84.6861 243.147 84.473C243.539 84.2599 243.981 84.1534 244.473 84.1534C244.961 84.1534 245.396 84.2514 245.777 84.4474C246.16 84.6406 246.473 84.9105 246.714 85.2571C246.956 85.6037 247.112 86.0028 247.183 86.4545H246.143C246.047 86.0625 245.859 85.7372 245.581 85.4787C245.302 85.2202 244.933 85.0909 244.473 85.0909C243.797 85.0909 243.264 85.3849 242.875 85.973C242.488 86.5611 242.294 87.3864 242.291 88.4489H242.359C242.518 88.2074 242.707 88.0014 242.926 87.831C243.147 87.6577 243.392 87.5241 243.659 87.4304C243.926 87.3366 244.208 87.2898 244.507 87.2898C245.007 87.2898 245.464 87.4148 245.879 87.6648C246.294 87.9119 246.626 88.2543 246.876 88.6918C247.126 89.1264 247.251 89.625 247.251 90.1875C247.251 90.7273 247.13 91.2216 246.889 91.6705C246.647 92.1165 246.308 92.4716 245.87 92.7358C245.436 92.9972 244.924 93.125 244.336 93.1193ZM244.336 92.1818C244.694 92.1818 245.015 92.0923 245.299 91.9134C245.586 91.7344 245.812 91.4943 245.977 91.1932C246.145 90.892 246.228 90.5568 246.228 90.1875C246.228 89.8267 246.147 89.4986 245.985 89.2031C245.826 88.9048 245.606 88.6676 245.325 88.4915C245.047 88.3153 244.728 88.2273 244.37 88.2273C244.1 88.2273 243.849 88.2812 243.616 88.3892C243.383 88.4943 243.179 88.6392 243.002 88.8239C242.829 89.0085 242.693 89.2202 242.593 89.4588C242.494 89.6946 242.444 89.9432 242.444 90.2045C242.444 90.5511 242.525 90.875 242.687 91.1761C242.852 91.4773 243.076 91.7202 243.36 91.9048C243.647 92.0895 243.973 92.1818 244.336 92.1818ZM251.773 93.1193C251.131 93.1193 250.585 92.9446 250.133 92.5952C249.681 92.2429 249.336 91.733 249.097 91.0653C248.859 90.3949 248.739 89.5852 248.739 88.6364C248.739 87.6932 248.859 86.8878 249.097 86.2202C249.339 85.5497 249.685 85.0384 250.137 84.6861C250.592 84.331 251.137 84.1534 251.773 84.1534C252.41 84.1534 252.954 84.331 253.406 84.6861C253.86 85.0384 254.207 85.5497 254.445 86.2202C254.687 86.8878 254.808 87.6932 254.808 88.6364C254.808 89.5852 254.688 90.3949 254.45 91.0653C254.211 91.733 253.866 92.2429 253.414 92.5952C252.962 92.9446 252.415 93.1193 251.773 93.1193ZM251.773 92.1818C252.41 92.1818 252.904 91.875 253.256 91.2614C253.609 90.6477 253.785 89.7727 253.785 88.6364C253.785 87.8807 253.704 87.2372 253.542 86.706C253.383 86.1747 253.153 85.7699 252.852 85.4915C252.553 85.2131 252.194 85.0739 251.773 85.0739C251.143 85.0739 250.65 85.3849 250.295 86.0071C249.94 86.6264 249.762 87.5028 249.762 88.6364C249.762 89.392 249.842 90.0341 250.001 90.5625C250.16 91.0909 250.388 91.4929 250.687 91.7685C250.988 92.044 251.35 92.1818 251.773 92.1818Z" fill="#222222"/>
<path d="M372 91.3077L368.192 87.5H375.808L372 91.3077Z" fill="#808080"/>
</g>
<g clip-path="url(#clip1_5341_20537)">
<rect width="368" height="32" transform="translate(16 113)" fill="white"/>
<path d="M19.37 133.12C18.7567 133.12 18.2233 132.967 17.77 132.66C17.3233 132.347 16.9767 131.92 16.73 131.38C16.49 130.833 16.37 130.207 16.37 129.5C16.37 128.767 16.4967 128.13 16.75 127.59C17.0033 127.05 17.3567 126.633 17.81 126.34C18.27 126.047 18.8033 125.9 19.41 125.9C19.8967 125.9 20.3367 125.997 20.73 126.19C21.13 126.377 21.4533 126.65 21.7 127.01C21.9533 127.363 22.1 127.787 22.14 128.28H20.98C20.9267 127.833 20.76 127.477 20.48 127.21C20.2 126.937 19.84 126.8 19.4 126.8C19.02 126.8 18.6833 126.91 18.39 127.13C18.1033 127.343 17.88 127.653 17.72 128.06C17.56 128.467 17.48 128.95 17.48 129.51C17.48 130.07 17.56 130.553 17.72 130.96C17.8867 131.367 18.1133 131.68 18.4 131.9C18.6867 132.113 19.01 132.22 19.37 132.22C19.6833 132.22 19.9567 132.157 20.19 132.03C20.4233 131.897 20.61 131.713 20.75 131.48C20.8967 131.247 20.9833 130.973 21.01 130.66H22.18C22.1333 131.153 21.99 131.587 21.75 131.96C21.51 132.327 21.1867 132.613 20.78 132.82C20.38 133.02 19.91 133.12 19.37 133.12ZM27.1939 133L27.1539 131.75V129.4C27.1539 129.007 27.0239 128.7 26.7639 128.48C26.5106 128.253 26.1606 128.14 25.7139 128.14C25.2806 128.14 24.9272 128.24 24.6539 128.44C24.3806 128.633 24.2306 128.903 24.2039 129.25H23.2139C23.2472 128.857 23.3739 128.523 23.5939 128.25C23.8139 127.97 24.1072 127.757 24.4739 127.61C24.8406 127.457 25.2639 127.38 25.7439 127.38C26.2372 127.38 26.6639 127.463 27.0239 127.63C27.3839 127.79 27.6606 128.023 27.8539 128.33C28.0539 128.637 28.1539 129.01 28.1539 129.45V133H27.1939ZM25.2039 133.12C24.8439 133.12 24.5272 133.057 24.2539 132.93C23.9806 132.797 23.7672 132.61 23.6139 132.37C23.4606 132.123 23.3839 131.837 23.3839 131.51C23.3839 130.943 23.6006 130.503 24.0339 130.19C24.4739 129.877 25.0872 129.72 25.8739 129.72H27.2839V130.47H25.8339C25.3806 130.47 25.0239 130.557 24.7639 130.73C24.5106 130.903 24.3839 131.147 24.3839 131.46C24.3839 131.72 24.4739 131.923 24.6539 132.07C24.8406 132.217 25.0906 132.29 25.4039 132.29C25.8039 132.29 26.1572 132.183 26.4639 131.97C26.7772 131.75 27.0306 131.45 27.2239 131.07L27.3339 131.81C27.1606 132.23 26.8939 132.553 26.5339 132.78C26.1739 133.007 25.7306 133.12 25.2039 133.12ZM33.7578 129.86V129.2C33.7578 128.913 33.6711 128.683 33.4978 128.51C33.3245 128.33 33.0745 128.24 32.7478 128.24C32.3345 128.24 31.9645 128.397 31.6378 128.71C31.3111 129.017 31.0511 129.487 30.8578 130.12L30.7178 129.1C30.8645 128.72 31.0411 128.403 31.2478 128.15C31.4611 127.897 31.7045 127.707 31.9778 127.58C32.2578 127.447 32.5645 127.38 32.8978 127.38C33.4511 127.38 33.9011 127.54 34.2478 127.86C34.5945 128.173 34.7678 128.62 34.7678 129.2V129.86H33.7578ZM30.0378 133V127.5H30.9878L31.0478 128.75V133H30.0378ZM40.2617 129.86V129.2C40.2617 128.913 40.1751 128.683 40.0017 128.51C39.8284 128.33 39.5784 128.24 39.2517 128.24C38.8384 128.24 38.4684 128.397 38.1417 128.71C37.8151 129.017 37.5551 129.487 37.3617 130.12L37.2217 129.1C37.3684 128.72 37.5451 128.403 37.7517 128.15C37.9651 127.897 38.2084 127.707 38.4817 127.58C38.7617 127.447 39.0684 127.38 39.4017 127.38C39.9551 127.38 40.4051 127.54 40.7517 127.86C41.0984 128.173 41.2717 128.62 41.2717 129.2V129.86H40.2617ZM36.5417 133V127.5H37.4917L37.5517 128.75V133H36.5417ZM44.8156 133V127.5H45.8256V133H44.8156ZM42.7856 133V132.18H47.7156V133H42.7856ZM43.5156 128.32V127.5H45.3156V128.32H43.5156ZM44.7456 126.56V125.47H45.8756V126.56H44.7456ZM51.8295 133.12C51.2629 133.12 50.7729 133.007 50.3595 132.78C49.9462 132.547 49.6295 132.217 49.4095 131.79C49.1895 131.357 49.0795 130.84 49.0795 130.24C49.0795 129.64 49.1895 129.127 49.4095 128.7C49.6362 128.273 49.9562 127.947 50.3695 127.72C50.7895 127.493 51.2895 127.38 51.8695 127.38C52.7562 127.38 53.4162 127.627 53.8495 128.12C54.2829 128.607 54.4729 129.277 54.4195 130.13H49.8795L49.8895 129.37L53.3895 129.38C53.3629 129.027 53.2095 128.743 52.9295 128.53C52.6495 128.317 52.2962 128.21 51.8695 128.21C51.2962 128.21 50.8562 128.39 50.5495 128.75C50.2429 129.11 50.0895 129.62 50.0895 130.28C50.0895 130.673 50.1562 131.023 50.2895 131.33C50.4295 131.63 50.6295 131.863 50.8895 132.03C51.1495 132.197 51.4629 132.28 51.8295 132.28C52.2629 132.28 52.6229 132.177 52.9095 131.97C53.2029 131.763 53.3829 131.483 53.4495 131.13H54.4595C54.3729 131.75 54.0962 132.237 53.6295 132.59C53.1629 132.943 52.5629 133.12 51.8295 133.12ZM59.7734 129.86V129.2C59.7734 128.913 59.6868 128.683 59.5134 128.51C59.3401 128.33 59.0901 128.24 58.7634 128.24C58.3501 128.24 57.9801 128.397 57.6534 128.71C57.3268 129.017 57.0668 129.487 56.8734 130.12L56.7334 129.1C56.8801 128.72 57.0568 128.403 57.2634 128.15C57.4768 127.897 57.7201 127.707 57.9934 127.58C58.2734 127.447 58.5801 127.38 58.9134 127.38C59.4668 127.38 59.9168 127.54 60.2634 127.86C60.6101 128.173 60.7834 128.62 60.7834 129.2V129.86H59.7734ZM56.0534 133V127.5H57.0034L57.0634 128.75V133H56.0534Z" fill="#222222"/>
<rect width="180" height="32" transform="translate(204 113)" fill="#F7F7F7"/>
<path d="M213.057 133V124.273H218.324V125.21H214.114V128.159H218.051V129.097H214.114V132.062H218.392V133H213.057ZM220.229 133V124.273H223.178C223.862 124.273 224.422 124.396 224.857 124.643C225.294 124.888 225.618 125.219 225.828 125.636C226.038 126.054 226.143 126.52 226.143 127.034C226.143 127.548 226.038 128.016 225.828 128.436C225.621 128.857 225.3 129.192 224.865 129.442C224.43 129.689 223.874 129.812 223.195 129.812H221.081V128.875H223.161C223.629 128.875 224.006 128.794 224.29 128.632C224.574 128.47 224.78 128.251 224.908 127.976C225.038 127.697 225.104 127.384 225.104 127.034C225.104 126.685 225.038 126.372 224.908 126.097C224.78 125.821 224.572 125.605 224.286 125.449C223.999 125.29 223.618 125.21 223.143 125.21H221.286V133H220.229ZM227.313 133H226.205L229.41 124.273H230.501L233.705 133H232.597L229.989 125.653H229.921L227.313 133ZM227.722 129.591H232.188V130.528H227.722V129.591ZM235.065 133V124.273H236.121V132.062H240.178V133H235.065ZM246.195 133V133.938H240.741V133H246.195ZM248.854 124.273V133H247.798V125.381H247.746L245.616 126.795V125.722L247.798 124.273H248.854Z" fill="#222222"/>
<path d="M372 131.308L368.192 127.5H375.808L372 131.308Z" fill="#808080"/>
</g>
<g clip-path="url(#clip2_5341_20537)">
<rect width="368" height="32" transform="translate(16 153)" fill="white"/>
<path d="M19.35 173.12C18.81 173.12 18.34 173.017 17.94 172.81C17.54 172.603 17.23 172.307 17.01 171.92C16.79 171.533 16.68 171.063 16.68 170.51H17.73C17.73 171.057 17.8733 171.48 18.16 171.78C18.4467 172.073 18.84 172.22 19.34 172.22C19.7667 172.22 20.11 172.123 20.37 171.93C20.63 171.73 20.76 171.453 20.76 171.1C20.76 170.86 20.6867 170.667 20.54 170.52C20.4 170.373 20.21 170.253 19.97 170.16C19.7367 170.067 19.48 169.983 19.2 169.91C18.92 169.837 18.6367 169.757 18.35 169.67C18.07 169.577 17.81 169.46 17.57 169.32C17.3367 169.18 17.1467 168.993 17 168.76C16.86 168.527 16.79 168.23 16.79 167.87C16.79 167.49 16.89 167.153 17.09 166.86C17.2967 166.56 17.58 166.327 17.94 166.16C18.3067 165.987 18.7367 165.9 19.23 165.9C19.71 165.9 20.14 165.99 20.52 166.17C20.9 166.343 21.2033 166.593 21.43 166.92C21.6633 167.24 21.7833 167.627 21.79 168.08H20.73C20.7233 167.813 20.65 167.587 20.51 167.4C20.3767 167.207 20.1967 167.06 19.97 166.96C19.75 166.853 19.5033 166.8 19.23 166.8C18.8367 166.8 18.5167 166.893 18.27 167.08C18.0233 167.267 17.9 167.52 17.9 167.84C17.9 168.067 17.97 168.247 18.11 168.38C18.2567 168.513 18.4467 168.623 18.68 168.71C18.92 168.79 19.18 168.867 19.46 168.94C19.7467 169.007 20.03 169.087 20.31 169.18C20.59 169.267 20.8467 169.387 21.08 169.54C21.32 169.687 21.51 169.887 21.65 170.14C21.7967 170.387 21.87 170.703 21.87 171.09C21.87 171.503 21.76 171.863 21.54 172.17C21.32 172.47 21.02 172.703 20.64 172.87C20.26 173.037 19.83 173.12 19.35 173.12ZM27.2339 173V169.54C27.2339 169.147 27.1239 168.833 26.9039 168.6C26.6839 168.36 26.3972 168.24 26.0439 168.24C25.6372 168.24 25.2739 168.39 24.9539 168.69C24.6406 168.983 24.3906 169.443 24.2039 170.07L24.0439 168.95C24.2506 168.423 24.5472 168.03 24.9339 167.77C25.3272 167.51 25.7539 167.38 26.2139 167.38C26.6272 167.38 26.9839 167.47 27.2839 167.65C27.5906 167.823 27.8272 168.07 27.9939 168.39C28.1606 168.703 28.2439 169.073 28.2439 169.5V173H27.2339ZM23.3139 173V165.64H24.3239V173H23.3139ZM30.7278 167.5V170.97C30.7278 171.357 30.8378 171.67 31.0578 171.91C31.2778 172.143 31.5645 172.26 31.9178 172.26C32.3245 172.26 32.6845 172.113 32.9978 171.82C33.3178 171.52 33.5711 171.057 33.7578 170.43L33.9178 171.56C33.7111 172.08 33.4111 172.47 33.0178 172.73C32.6311 172.99 32.2078 173.12 31.7478 173.12C31.3345 173.12 30.9745 173.033 30.6678 172.86C30.3678 172.68 30.1345 172.433 29.9678 172.12C29.8011 171.807 29.7178 171.437 29.7178 171.01V167.5H30.7278ZM34.6478 167.5V173H33.6878L33.6378 171.76V167.5H34.6478ZM39.2117 173C38.8717 173 38.5817 172.933 38.3417 172.8C38.1017 172.66 37.9217 172.463 37.8017 172.21C37.6817 171.957 37.6217 171.66 37.6217 171.32V166.46L38.6317 165.91V171.32C38.6317 171.48 38.6551 171.627 38.7017 171.76C38.7484 171.893 38.8384 171.997 38.9717 172.07C39.1117 172.143 39.3151 172.18 39.5817 172.18H41.2317V173H39.2117ZM36.3217 168.32V167.5H40.3517V168.32H36.3217ZM45.7156 173C45.3756 173 45.0856 172.933 44.8456 172.8C44.6056 172.66 44.4256 172.463 44.3056 172.21C44.1856 171.957 44.1256 171.66 44.1256 171.32V166.46L45.1356 165.91V171.32C45.1356 171.48 45.159 171.627 45.2056 171.76C45.2523 171.893 45.3423 171.997 45.4756 172.07C45.6156 172.143 45.819 172.18 46.0856 172.18H47.7356V173H45.7156ZM42.8256 168.32V167.5H46.8556V168.32H42.8256ZM51.2695 173V165.65H52.2795V173H51.2695ZM49.2395 173V172.18H54.3195V173H49.2395ZM49.9695 166.47V165.65H51.7695V166.47H49.9695ZM58.3334 173.12C57.7668 173.12 57.2768 173.007 56.8634 172.78C56.4501 172.547 56.1334 172.217 55.9134 171.79C55.6934 171.357 55.5834 170.84 55.5834 170.24C55.5834 169.64 55.6934 169.127 55.9134 168.7C56.1401 168.273 56.4601 167.947 56.8734 167.72C57.2934 167.493 57.7934 167.38 58.3734 167.38C59.2601 167.38 59.9201 167.627 60.3534 168.12C60.7868 168.607 60.9768 169.277 60.9234 170.13H56.3834L56.3934 169.37L59.8934 169.38C59.8668 169.027 59.7134 168.743 59.4334 168.53C59.1534 168.317 58.8001 168.21 58.3734 168.21C57.8001 168.21 57.3601 168.39 57.0534 168.75C56.7468 169.11 56.5934 169.62 56.5934 170.28C56.5934 170.673 56.6601 171.023 56.7934 171.33C56.9334 171.63 57.1334 171.863 57.3934 172.03C57.6534 172.197 57.9668 172.28 58.3334 172.28C58.7668 172.28 59.1268 172.177 59.4134 171.97C59.7068 171.763 59.8868 171.483 59.9534 171.13H60.9634C60.8768 171.75 60.6001 172.237 60.1334 172.59C59.6668 172.943 59.0668 173.12 58.3334 173.12Z" fill="#222222"/>
<rect width="180" height="32" transform="translate(204 153)" fill="#F7F7F7"/>
<path d="M213.057 173V164.273H216.006C216.688 164.273 217.247 164.389 217.685 164.622C218.122 164.852 218.446 165.169 218.656 165.572C218.866 165.976 218.972 166.435 218.972 166.949C218.972 167.463 218.866 167.919 218.656 168.317C218.446 168.714 218.124 169.027 217.689 169.254C217.254 169.479 216.699 169.591 216.023 169.591H213.636V168.636H215.989C216.455 168.636 216.83 168.568 217.114 168.432C217.401 168.295 217.608 168.102 217.736 167.852C217.866 167.599 217.932 167.298 217.932 166.949C217.932 166.599 217.866 166.294 217.736 166.033C217.605 165.771 217.396 165.57 217.109 165.428C216.822 165.283 216.443 165.21 215.972 165.21H214.114V173H213.057ZM217.165 169.08L219.312 173H218.085L215.972 169.08H217.165ZM225.505 166.455C225.454 166.023 225.247 165.688 224.883 165.449C224.52 165.21 224.074 165.091 223.545 165.091C223.159 165.091 222.821 165.153 222.531 165.278C222.244 165.403 222.02 165.575 221.858 165.794C221.699 166.013 221.619 166.261 221.619 166.54C221.619 166.773 221.674 166.973 221.785 167.141C221.899 167.305 222.044 167.443 222.22 167.554C222.396 167.662 222.581 167.751 222.774 167.822C222.967 167.891 223.145 167.946 223.306 167.989L224.193 168.227C224.42 168.287 224.673 168.369 224.951 168.474C225.233 168.58 225.501 168.723 225.757 168.905C226.015 169.084 226.228 169.314 226.396 169.595C226.564 169.876 226.647 170.222 226.647 170.631C226.647 171.102 226.524 171.528 226.277 171.909C226.032 172.29 225.674 172.592 225.203 172.817C224.734 173.041 224.164 173.153 223.494 173.153C222.869 173.153 222.328 173.053 221.87 172.851C221.416 172.649 221.058 172.368 220.797 172.007C220.538 171.646 220.392 171.227 220.358 170.75H221.449C221.477 171.08 221.588 171.352 221.781 171.568C221.977 171.781 222.224 171.94 222.522 172.045C222.824 172.148 223.147 172.199 223.494 172.199C223.897 172.199 224.26 172.134 224.581 172.003C224.902 171.869 225.156 171.685 225.343 171.449C225.531 171.21 225.625 170.932 225.625 170.614C225.625 170.324 225.544 170.088 225.382 169.906C225.22 169.724 225.007 169.577 224.743 169.463C224.478 169.349 224.193 169.25 223.886 169.165L222.812 168.858C222.13 168.662 221.591 168.382 221.193 168.018C220.795 167.655 220.596 167.179 220.596 166.591C220.596 166.102 220.728 165.676 220.993 165.312C221.26 164.946 221.618 164.662 222.066 164.46C222.518 164.256 223.022 164.153 223.579 164.153C224.142 164.153 224.642 164.254 225.079 164.456C225.517 164.655 225.863 164.928 226.119 165.274C226.377 165.621 226.514 166.014 226.528 166.455H225.505ZM231.3 164.273V173H230.243V165.381H230.192L228.061 166.795V165.722L230.243 164.273H231.3ZM236.537 173.119C236.037 173.119 235.587 173.02 235.186 172.821C234.786 172.622 234.464 172.349 234.223 172.003C233.982 171.656 233.849 171.261 233.827 170.818H234.849C234.889 171.213 235.068 171.54 235.386 171.798C235.707 172.054 236.091 172.182 236.537 172.182C236.895 172.182 237.213 172.098 237.491 171.93C237.773 171.763 237.993 171.533 238.152 171.24C238.314 170.945 238.395 170.611 238.395 170.239C238.395 169.858 238.311 169.518 238.143 169.22C237.979 168.919 237.751 168.682 237.462 168.509C237.172 168.335 236.841 168.247 236.469 168.244C236.202 168.241 235.928 168.283 235.646 168.368C235.365 168.45 235.134 168.557 234.952 168.688L233.963 168.568L234.491 164.273H239.026V165.21H235.378L235.071 167.784H235.122C235.301 167.642 235.526 167.524 235.795 167.43C236.065 167.337 236.347 167.29 236.639 167.29C237.173 167.29 237.649 167.418 238.067 167.673C238.487 167.926 238.817 168.273 239.055 168.713C239.297 169.153 239.418 169.656 239.418 170.222C239.418 170.778 239.293 171.276 239.043 171.713C238.795 172.148 238.455 172.491 238.02 172.744C237.585 172.994 237.091 173.119 236.537 173.119ZM243.957 173.119C243.315 173.119 242.768 172.945 242.316 172.595C241.865 172.243 241.52 171.733 241.281 171.065C241.042 170.395 240.923 169.585 240.923 168.636C240.923 167.693 241.042 166.888 241.281 166.22C241.522 165.55 241.869 165.038 242.321 164.686C242.775 164.331 243.321 164.153 243.957 164.153C244.593 164.153 245.137 164.331 245.589 164.686C246.044 165.038 246.39 165.55 246.629 166.22C246.87 166.888 246.991 167.693 246.991 168.636C246.991 169.585 246.872 170.395 246.633 171.065C246.395 171.733 246.049 172.243 245.598 172.595C245.146 172.945 244.599 173.119 243.957 173.119ZM243.957 172.182C244.593 172.182 245.088 171.875 245.44 171.261C245.792 170.648 245.968 169.773 245.968 168.636C245.968 167.881 245.887 167.237 245.725 166.706C245.566 166.175 245.336 165.77 245.035 165.491C244.737 165.213 244.377 165.074 243.957 165.074C243.326 165.074 242.833 165.385 242.478 166.007C242.123 166.626 241.946 167.503 241.946 168.636C241.946 169.392 242.025 170.034 242.184 170.562C242.343 171.091 242.572 171.493 242.87 171.768C243.172 172.044 243.534 172.182 243.957 172.182Z" fill="#222222"/>
<path d="M372 171.308L368.192 167.5H375.808L372 171.308Z" fill="#808080"/>
</g>
<defs>
<clipPath id="clip0_5341_20537">
<rect width="368" height="32" fill="white" transform="translate(16 73)"/>
</clipPath>
<clipPath id="clip1_5341_20537">
<rect width="368" height="32" fill="white" transform="translate(16 113)"/>
</clipPath>
<clipPath id="clip2_5341_20537">
<rect width="368" height="32" fill="white" transform="translate(16 153)"/>
</clipPath>
</defs>
</svg>
