<svg width="170" height="56" viewBox="0 0 170 56" fill="none" xmlns="http://www.w3.org/2000/svg">
<g filter="url(#filter0_d_3167_9364)">
<rect x="3" y="2" width="164" height="50" rx="4" fill="var(--colors-neutral-neutral-800)" shape-rendering="crispEdges"/>
<path d="M20.4148 22.2727L23.0057 29.6193H23.108L25.6989 22.2727H26.8068L23.6023 31H22.5114L19.3068 22.2727H20.4148ZM29.3466 31.1534C28.9318 31.1534 28.5554 31.0753 28.2173 30.919C27.8793 30.7599 27.6108 30.5312 27.4119 30.233C27.2131 29.9318 27.1136 29.5682 27.1136 29.142C27.1136 28.767 27.1875 28.4631 27.3352 28.2301C27.483 27.9943 27.6804 27.8097 27.9276 27.6761C28.1747 27.5426 28.4474 27.4432 28.7457 27.3778C29.0469 27.3097 29.3494 27.2557 29.6534 27.2159C30.0511 27.1648 30.3736 27.1264 30.6207 27.1009C30.8707 27.0724 31.0526 27.0256 31.1662 26.9602C31.2827 26.8949 31.3409 26.7812 31.3409 26.6193V26.5852C31.3409 26.1648 31.2259 25.8381 30.9957 25.6051C30.7685 25.3722 30.4233 25.2557 29.9602 25.2557C29.4801 25.2557 29.1037 25.3608 28.831 25.571C28.5582 25.7812 28.3665 26.0057 28.2557 26.2443L27.3011 25.9034C27.4716 25.5057 27.6989 25.196 27.983 24.9744C28.2699 24.75 28.5824 24.5937 28.9205 24.5057C29.2614 24.4148 29.5966 24.3693 29.9261 24.3693C30.1364 24.3693 30.3778 24.3949 30.6506 24.446C30.9261 24.4943 31.1918 24.5952 31.4474 24.7486C31.706 24.902 31.9205 25.1335 32.0909 25.4432C32.2614 25.7528 32.3466 26.1676 32.3466 26.6875V31H31.3409V30.1136H31.2898C31.2216 30.2557 31.108 30.4077 30.9489 30.5696C30.7898 30.7315 30.5781 30.8693 30.3139 30.983C30.0497 31.0966 29.7273 31.1534 29.3466 31.1534ZM29.5 30.25C29.8977 30.25 30.233 30.1719 30.5057 30.0156C30.7813 29.8594 30.9886 29.6577 31.1278 29.4105C31.2699 29.1634 31.3409 28.9034 31.3409 28.6307V27.7102C31.2983 27.7614 31.2045 27.8082 31.0597 27.8509C30.9176 27.8906 30.7528 27.9261 30.5653 27.9574C30.3807 27.9858 30.2003 28.0114 30.0241 28.0341C29.8509 28.054 29.7102 28.071 29.6023 28.0852C29.3409 28.1193 29.0966 28.1747 28.8693 28.2514C28.6449 28.3253 28.4631 28.4375 28.3239 28.5881C28.1875 28.7358 28.1193 28.9375 28.1193 29.1932C28.1193 29.5426 28.2486 29.8068 28.5071 29.9858C28.7685 30.1619 29.0994 30.25 29.5 30.25ZM35.1879 22.2727V31H34.1822V22.2727H35.1879ZM37.0298 31V24.4545H38.0355V31H37.0298ZM37.5412 23.3636C37.3452 23.3636 37.1761 23.2969 37.0341 23.1634C36.8949 23.0298 36.8253 22.8693 36.8253 22.6818C36.8253 22.4943 36.8949 22.3338 37.0341 22.2003C37.1761 22.0668 37.3452 22 37.5412 22C37.7372 22 37.9048 22.0668 38.044 22.2003C38.1861 22.3338 38.2571 22.4943 38.2571 22.6818C38.2571 22.8693 38.1861 23.0298 38.044 23.1634C37.9048 23.2969 37.7372 23.3636 37.5412 23.3636ZM42.3491 31.1364C41.8036 31.1364 41.3221 30.9986 40.9045 30.723C40.4869 30.4446 40.1602 30.0526 39.9244 29.5469C39.6886 29.0384 39.5707 28.4375 39.5707 27.7443C39.5707 27.0568 39.6886 26.4602 39.9244 25.9545C40.1602 25.4489 40.4883 25.0582 40.9087 24.7827C41.3292 24.5071 41.815 24.3693 42.3661 24.3693C42.7923 24.3693 43.1289 24.4403 43.3761 24.5824C43.6261 24.7216 43.8164 24.8807 43.9471 25.0597C44.0806 25.2358 44.1843 25.3807 44.2582 25.4943H44.3434V22.2727H45.3491V31H44.3775V29.9943H44.2582C44.1843 30.1136 44.0792 30.2642 43.9428 30.446C43.8065 30.625 43.6119 30.7855 43.359 30.9276C43.1062 31.0668 42.7695 31.1364 42.3491 31.1364ZM42.4854 30.233C42.8888 30.233 43.2298 30.1278 43.5082 29.9176C43.7866 29.7045 43.9982 29.4105 44.1431 29.0355C44.288 28.6577 44.3604 28.2216 44.3604 27.7273C44.3604 27.2386 44.2894 26.8111 44.1474 26.4446C44.0053 26.0753 43.7951 25.7884 43.5167 25.5838C43.2383 25.3764 42.8945 25.2727 42.4854 25.2727C42.0593 25.2727 41.7042 25.3821 41.4201 25.6009C41.1388 25.8168 40.9272 26.1108 40.7852 26.483C40.646 26.8523 40.5763 27.267 40.5763 27.7273C40.5763 28.1932 40.6474 28.6165 40.7894 28.9972C40.9343 29.375 41.1474 29.6761 41.4286 29.9006C41.7127 30.1222 42.065 30.233 42.4854 30.233ZM49.2567 31.1534C48.842 31.1534 48.4656 31.0753 48.1275 30.919C47.7894 30.7599 47.521 30.5312 47.3221 30.233C47.1232 29.9318 47.0238 29.5682 47.0238 29.142C47.0238 28.767 47.0977 28.4631 47.2454 28.2301C47.3931 27.9943 47.5906 27.8097 47.8377 27.6761C48.0849 27.5426 48.3576 27.4432 48.6559 27.3778C48.957 27.3097 49.2596 27.2557 49.5636 27.2159C49.9613 27.1648 50.2837 27.1264 50.5309 27.1009C50.7809 27.0724 50.9627 27.0256 51.0763 26.9602C51.1928 26.8949 51.2511 26.7812 51.2511 26.6193V26.5852C51.2511 26.1648 51.136 25.8381 50.9059 25.6051C50.6786 25.3722 50.3335 25.2557 49.8704 25.2557C49.3903 25.2557 49.0138 25.3608 48.7411 25.571C48.4684 25.7812 48.2766 26.0057 48.1658 26.2443L47.2113 25.9034C47.3817 25.5057 47.609 25.196 47.8931 24.9744C48.18 24.75 48.4925 24.5937 48.8306 24.5057C49.1715 24.4148 49.5067 24.3693 49.8363 24.3693C50.0465 24.3693 50.288 24.3949 50.5607 24.446C50.8363 24.4943 51.1019 24.5952 51.3576 24.7486C51.6161 24.902 51.8306 25.1335 52.0011 25.4432C52.1715 25.7528 52.2567 26.1676 52.2567 26.6875V31H51.2511V30.1136H51.1999C51.1317 30.2557 51.0181 30.4077 50.859 30.5696C50.6999 30.7315 50.4883 30.8693 50.2241 30.983C49.9599 31.0966 49.6374 31.1534 49.2567 31.1534ZM49.4102 30.25C49.8079 30.25 50.1431 30.1719 50.4158 30.0156C50.6914 29.8594 50.8988 29.6577 51.038 29.4105C51.18 29.1634 51.2511 28.9034 51.2511 28.6307V27.7102C51.2085 27.7614 51.1147 27.8082 50.9698 27.8509C50.8278 27.8906 50.663 27.9261 50.4755 27.9574C50.2908 27.9858 50.1104 28.0114 49.9343 28.0341C49.761 28.054 49.6204 28.071 49.5124 28.0852C49.2511 28.1193 49.0067 28.1747 48.7795 28.2514C48.555 28.3253 48.3732 28.4375 48.234 28.5881C48.0977 28.7358 48.0295 28.9375 48.0295 29.1932C48.0295 29.5426 48.1587 29.8068 48.4173 29.9858C48.6786 30.1619 49.0096 30.25 49.4102 30.25ZM56.9389 24.4545V25.3068H53.5469V24.4545H56.9389ZM54.5355 22.8864H55.5412V29.125C55.5412 29.4091 55.5824 29.6222 55.6648 29.7642C55.75 29.9034 55.858 29.9972 55.9886 30.0455C56.1222 30.0909 56.2628 30.1136 56.4105 30.1136C56.5213 30.1136 56.6122 30.108 56.6832 30.0966C56.7543 30.0824 56.8111 30.071 56.8537 30.0625L57.0582 30.9659C56.9901 30.9915 56.8949 31.017 56.7727 31.0426C56.6506 31.071 56.4957 31.0852 56.3082 31.0852C56.0241 31.0852 55.7457 31.0241 55.473 30.902C55.2031 30.7798 54.9787 30.5938 54.7997 30.3438C54.6236 30.0938 54.5355 29.7784 54.5355 29.3977V22.8864ZM58.4517 31V24.4545H59.4574V31H58.4517ZM58.9631 23.3636C58.767 23.3636 58.598 23.2969 58.456 23.1634C58.3168 23.0298 58.2472 22.8693 58.2472 22.6818C58.2472 22.4943 58.3168 22.3338 58.456 22.2003C58.598 22.0668 58.767 22 58.9631 22C59.1591 22 59.3267 22.0668 59.4659 22.2003C59.608 22.3338 59.679 22.4943 59.679 22.6818C59.679 22.8693 59.608 23.0298 59.4659 23.1634C59.3267 23.2969 59.1591 23.3636 58.9631 23.3636ZM63.9585 31.1364C63.3675 31.1364 62.8491 30.9957 62.4031 30.7145C61.9599 30.4332 61.6133 30.0398 61.3633 29.5341C61.1161 29.0284 60.9925 28.4375 60.9925 27.7614C60.9925 27.0795 61.1161 26.4844 61.3633 25.9759C61.6133 25.4673 61.9599 25.0724 62.4031 24.7912C62.8491 24.5099 63.3675 24.3693 63.9585 24.3693C64.5494 24.3693 65.0664 24.5099 65.5096 24.7912C65.9556 25.0724 66.3022 25.4673 66.5494 25.9759C66.7994 26.4844 66.9244 27.0795 66.9244 27.7614C66.9244 28.4375 66.7994 29.0284 66.5494 29.5341C66.3022 30.0398 65.9556 30.4332 65.5096 30.7145C65.0664 30.9957 64.5494 31.1364 63.9585 31.1364ZM63.9585 30.233C64.4073 30.233 64.7766 30.1179 65.0664 29.8878C65.3562 29.6577 65.5707 29.3551 65.7099 28.9801C65.8491 28.6051 65.9187 28.1989 65.9187 27.7614C65.9187 27.3239 65.8491 26.9162 65.7099 26.5384C65.5707 26.1605 65.3562 25.8551 65.0664 25.6222C64.7766 25.3892 64.4073 25.2727 63.9585 25.2727C63.5096 25.2727 63.1403 25.3892 62.8505 25.6222C62.5607 25.8551 62.3462 26.1605 62.207 26.5384C62.0678 26.9162 61.9982 27.3239 61.9982 27.7614C61.9982 28.1989 62.0678 28.6051 62.207 28.9801C62.3462 29.3551 62.5607 29.6577 62.8505 29.8878C63.1403 30.1179 63.5096 30.233 63.9585 30.233ZM69.4652 27.0625V31H68.4595V24.4545H69.4311V25.4773H69.5163C69.6697 25.1449 69.9027 24.8778 70.2152 24.6761C70.5277 24.4716 70.9311 24.3693 71.4254 24.3693C71.8686 24.3693 72.2564 24.4602 72.5888 24.642C72.9212 24.821 73.1797 25.0938 73.3643 25.4602C73.549 25.8239 73.6413 26.2841 73.6413 26.8409V31H72.6357V26.9091C72.6357 26.3949 72.5021 25.9943 72.2351 25.7074C71.968 25.4176 71.6016 25.2727 71.1357 25.2727C70.8146 25.2727 70.5277 25.3423 70.2749 25.4815C70.0249 25.6207 69.8274 25.8239 69.6825 26.0909C69.5376 26.358 69.4652 26.6818 69.4652 27.0625ZM81.3256 31.1364C80.7802 31.1364 80.2987 30.9986 79.881 30.723C79.4634 30.4446 79.1367 30.0526 78.9009 29.5469C78.6651 29.0384 78.5472 28.4375 78.5472 27.7443C78.5472 27.0568 78.6651 26.4602 78.9009 25.9545C79.1367 25.4489 79.4648 25.0582 79.8853 24.7827C80.3058 24.5071 80.7915 24.3693 81.3427 24.3693C81.7688 24.3693 82.1055 24.4403 82.3526 24.5824C82.6026 24.7216 82.793 24.8807 82.9237 25.0597C83.0572 25.2358 83.1609 25.3807 83.2347 25.4943H83.32V22.2727H84.3256V31H83.354V29.9943H83.2347C83.1609 30.1136 83.0558 30.2642 82.9194 30.446C82.783 30.625 82.5884 30.7855 82.3356 30.9276C82.0827 31.0668 81.7461 31.1364 81.3256 31.1364ZM81.462 30.233C81.8654 30.233 82.2063 30.1278 82.4847 29.9176C82.7631 29.7045 82.9748 29.4105 83.1197 29.0355C83.2646 28.6577 83.337 28.2216 83.337 27.7273C83.337 27.2386 83.266 26.8111 83.1239 26.4446C82.9819 26.0753 82.7717 25.7884 82.4933 25.5838C82.2148 25.3764 81.8711 25.2727 81.462 25.2727C81.0359 25.2727 80.6808 25.3821 80.3967 25.6009C80.1154 25.8168 79.9038 26.1108 79.7617 26.483C79.6225 26.8523 79.5529 27.267 79.5529 27.7273C79.5529 28.1932 79.6239 28.6165 79.766 28.9972C79.9109 29.375 80.1239 29.6761 80.4052 29.9006C80.6893 30.1222 81.0415 30.233 81.462 30.233ZM89.0515 31.1364C88.4208 31.1364 87.8768 30.9972 87.4194 30.7188C86.9648 30.4375 86.614 30.0455 86.3668 29.5426C86.1225 29.0369 86.0004 28.4489 86.0004 27.7784C86.0004 27.108 86.1225 26.517 86.3668 26.0057C86.614 25.4915 86.9577 25.0909 87.3981 24.804C87.8413 24.5142 88.3583 24.3693 88.9492 24.3693C89.2901 24.3693 89.6268 24.4261 89.9592 24.5398C90.2915 24.6534 90.5941 24.8381 90.8668 25.0938C91.1396 25.3466 91.3569 25.6818 91.5188 26.0994C91.6808 26.517 91.7617 27.0312 91.7617 27.642V28.0682H86.7163V27.1989H90.739C90.739 26.8295 90.6651 26.5 90.5174 26.2102C90.3725 25.9205 90.1651 25.6918 89.8952 25.5241C89.6282 25.3565 89.3129 25.2727 88.9492 25.2727C88.5487 25.2727 88.2021 25.3722 87.9094 25.571C87.6197 25.767 87.3967 26.0227 87.2404 26.3381C87.0842 26.6534 87.006 26.9915 87.006 27.3523V27.9318C87.006 28.4261 87.0913 28.8452 87.2617 29.1889C87.435 29.5298 87.6751 29.7898 87.9819 29.9688C88.2887 30.1449 88.6452 30.233 89.0515 30.233C89.3157 30.233 89.5543 30.196 89.7674 30.1222C89.9833 30.0455 90.1694 29.9318 90.3256 29.7812C90.4819 29.6278 90.6026 29.4375 90.6879 29.2102L91.6594 29.483C91.5572 29.8125 91.3853 30.1023 91.1438 30.3523C90.9023 30.5994 90.604 30.7926 90.2489 30.9318C89.8938 31.0682 89.4947 31.1364 89.0515 31.1364ZM97.9279 25.9205L97.0245 26.1761C96.9677 26.0256 96.8839 25.8793 96.7731 25.7372C96.6651 25.5923 96.5174 25.473 96.3299 25.3793C96.1424 25.2855 95.9023 25.2386 95.6097 25.2386C95.2092 25.2386 94.8754 25.331 94.6083 25.5156C94.3441 25.6974 94.212 25.929 94.212 26.2102C94.212 26.4602 94.3029 26.6577 94.4847 26.8026C94.6665 26.9474 94.9506 27.0682 95.337 27.1648L96.3086 27.4034C96.8938 27.5455 97.3299 27.7628 97.6168 28.0554C97.9038 28.3452 98.0472 28.7187 98.0472 29.1761C98.0472 29.5511 97.9393 29.8864 97.7234 30.1818C97.5103 30.4773 97.212 30.7102 96.8285 30.8807C96.445 31.0511 95.9989 31.1364 95.4904 31.1364C94.8228 31.1364 94.2702 30.9915 93.8327 30.7017C93.3952 30.4119 93.1183 29.9886 93.0018 29.4318L93.9563 29.1932C94.0472 29.5455 94.2191 29.8097 94.4719 29.9858C94.7276 30.1619 95.0614 30.25 95.4734 30.25C95.9421 30.25 96.3143 30.1506 96.5898 29.9517C96.8683 29.75 97.0075 29.5085 97.0075 29.2273C97.0075 29 96.9279 28.8097 96.7688 28.6562C96.6097 28.5 96.3654 28.3835 96.0359 28.3068L94.945 28.0511C94.3455 27.9091 93.9052 27.6889 93.6239 27.3906C93.3455 27.0895 93.2063 26.7131 93.2063 26.2614C93.2063 25.892 93.31 25.5653 93.5174 25.2812C93.7276 24.9972 94.0131 24.7741 94.3739 24.6122C94.7376 24.4503 95.1495 24.3693 95.6097 24.3693C96.2575 24.3693 96.766 24.5114 97.1353 24.7955C97.5075 25.0795 97.7717 25.4545 97.9279 25.9205ZM99.5611 31V24.4545H100.567V31H99.5611ZM100.072 23.3636C99.8764 23.3636 99.7074 23.2969 99.5653 23.1634C99.4261 23.0298 99.3565 22.8693 99.3565 22.6818C99.3565 22.4943 99.4261 22.3338 99.5653 22.2003C99.7074 22.0668 99.8764 22 100.072 22C100.268 22 100.436 22.0668 100.575 22.2003C100.717 22.3338 100.788 22.4943 100.788 22.6818C100.788 22.8693 100.717 23.0298 100.575 23.1634C100.436 23.2969 100.268 23.3636 100.072 23.3636ZM105.051 33.5909C104.565 33.5909 104.147 33.5284 103.798 33.4034C103.449 33.2812 103.157 33.1193 102.924 32.9176C102.694 32.7188 102.511 32.5057 102.375 32.2784L103.176 31.7159C103.267 31.8352 103.382 31.9716 103.521 32.125C103.66 32.2812 103.85 32.4162 104.092 32.5298C104.336 32.6463 104.656 32.7045 105.051 32.7045C105.579 32.7045 106.015 32.5767 106.359 32.321C106.703 32.0653 106.875 31.6648 106.875 31.1193V29.7898H106.789C106.716 29.9091 106.61 30.0568 106.474 30.233C106.341 30.4062 106.147 30.5611 105.895 30.6974C105.645 30.831 105.306 30.8977 104.88 30.8977C104.352 30.8977 103.877 30.7727 103.457 30.5227C103.039 30.2727 102.708 29.9091 102.464 29.4318C102.223 28.9545 102.102 28.375 102.102 27.6932C102.102 27.0227 102.22 26.4389 102.456 25.9418C102.691 25.4418 103.02 25.0554 103.44 24.7827C103.86 24.5071 104.346 24.3693 104.897 24.3693C105.324 24.3693 105.662 24.4403 105.912 24.5824C106.164 24.7216 106.358 24.8807 106.491 25.0597C106.627 25.2358 106.733 25.3807 106.806 25.4943H106.909V24.4545H107.88V31.1875C107.88 31.75 107.752 32.2074 107.497 32.5597C107.244 32.9148 106.903 33.1747 106.474 33.3395C106.048 33.5071 105.574 33.5909 105.051 33.5909ZM105.017 29.9943C105.42 29.9943 105.761 29.902 106.039 29.7173C106.318 29.5327 106.529 29.267 106.674 28.9205C106.819 28.5739 106.892 28.1591 106.892 27.6761C106.892 27.2045 106.821 26.7884 106.679 26.4276C106.537 26.0668 106.326 25.7841 106.048 25.5795C105.77 25.375 105.426 25.2727 105.017 25.2727C104.591 25.2727 104.235 25.3807 103.951 25.5966C103.67 25.8125 103.458 26.1023 103.316 26.4659C103.177 26.8295 103.108 27.233 103.108 27.6761C103.108 28.1307 103.179 28.5327 103.321 28.8821C103.466 29.2287 103.679 29.5014 103.96 29.7003C104.244 29.8963 104.596 29.9943 105.017 29.9943ZM110.727 27.0625V31H109.721V24.4545H110.693V25.4773H110.778C110.931 25.1449 111.164 24.8778 111.477 24.6761C111.789 24.4716 112.193 24.3693 112.687 24.3693C113.13 24.3693 113.518 24.4602 113.85 24.642C114.183 24.821 114.441 25.0938 114.626 25.4602C114.811 25.8239 114.903 26.2841 114.903 26.8409V31H113.897V26.9091C113.897 26.3949 113.764 25.9943 113.497 25.7074C113.23 25.4176 112.863 25.2727 112.397 25.2727C112.076 25.2727 111.789 25.3423 111.537 25.4815C111.287 25.6207 111.089 25.8239 110.944 26.0909C110.799 26.358 110.727 26.6818 110.727 27.0625ZM123.031 24.4545V25.3068H119.502V24.4545H123.031ZM120.559 31V23.5511C120.559 23.1761 120.647 22.8636 120.823 22.6136C120.999 22.3636 121.228 22.1761 121.509 22.0511C121.79 21.9261 122.087 21.8636 122.4 21.8636C122.647 21.8636 122.849 21.8835 123.005 21.9233C123.161 21.9631 123.278 22 123.354 22.0341L123.065 22.9034C123.013 22.8864 122.942 22.8651 122.852 22.8395C122.763 22.8139 122.647 22.8011 122.502 22.8011C122.17 22.8011 121.93 22.8849 121.782 23.0526C121.637 23.2202 121.565 23.4659 121.565 23.7898V31H120.559ZM126.179 31.1534C125.764 31.1534 125.387 31.0753 125.049 30.919C124.711 30.7599 124.443 30.5312 124.244 30.233C124.045 29.9318 123.946 29.5682 123.946 29.142C123.946 28.767 124.02 28.4631 124.167 28.2301C124.315 27.9943 124.512 27.8097 124.76 27.6761C125.007 27.5426 125.279 27.4432 125.578 27.3778C125.879 27.3097 126.181 27.2557 126.485 27.2159C126.883 27.1648 127.206 27.1264 127.453 27.1009C127.703 27.0724 127.885 27.0256 127.998 26.9602C128.115 26.8949 128.173 26.7812 128.173 26.6193V26.5852C128.173 26.1648 128.058 25.8381 127.828 25.6051C127.6 25.3722 127.255 25.2557 126.792 25.2557C126.312 25.2557 125.936 25.3608 125.663 25.571C125.39 25.7812 125.199 26.0057 125.088 26.2443L124.133 25.9034C124.304 25.5057 124.531 25.196 124.815 24.9744C125.102 24.75 125.414 24.5937 125.752 24.5057C126.093 24.4148 126.429 24.3693 126.758 24.3693C126.968 24.3693 127.21 24.3949 127.483 24.446C127.758 24.4943 128.024 24.5952 128.279 24.7486C128.538 24.902 128.752 25.1335 128.923 25.4432C129.093 25.7528 129.179 26.1676 129.179 26.6875V31H128.173V30.1136H128.122C128.054 30.2557 127.94 30.4077 127.781 30.5696C127.622 30.7315 127.41 30.8693 127.146 30.983C126.882 31.0966 126.559 31.1534 126.179 31.1534ZM126.332 30.25C126.73 30.25 127.065 30.1719 127.338 30.0156C127.613 29.8594 127.821 29.6577 127.96 29.4105C128.102 29.1634 128.173 28.9034 128.173 28.6307V27.7102C128.13 27.7614 128.037 27.8082 127.892 27.8509C127.75 27.8906 127.585 27.9261 127.397 27.9574C127.213 27.9858 127.032 28.0114 126.856 28.0341C126.683 28.054 126.542 28.071 126.434 28.0852C126.173 28.1193 125.929 28.1747 125.701 28.2514C125.477 28.3253 125.295 28.4375 125.156 28.5881C125.02 28.7358 124.951 28.9375 124.951 29.1932C124.951 29.5426 125.081 29.8068 125.339 29.9858C125.6 30.1619 125.931 30.25 126.332 30.25ZM131.014 31V24.4545H132.02V31H131.014ZM131.526 23.3636C131.33 23.3636 131.161 23.2969 131.018 23.1634C130.879 23.0298 130.81 22.8693 130.81 22.6818C130.81 22.4943 130.879 22.3338 131.018 22.2003C131.161 22.0668 131.33 22 131.526 22C131.722 22 131.889 22.0668 132.028 22.2003C132.17 22.3338 132.241 22.4943 132.241 22.6818C132.241 22.8693 132.17 23.0298 132.028 23.1634C131.889 23.2969 131.722 23.3636 131.526 23.3636ZM134.868 22.2727V31H133.862V22.2727H134.868ZM139.454 31.1364C138.823 31.1364 138.279 30.9972 137.822 30.7188C137.367 30.4375 137.016 30.0455 136.769 29.5426C136.525 29.0369 136.403 28.4489 136.403 27.7784C136.403 27.108 136.525 26.517 136.769 26.0057C137.016 25.4915 137.36 25.0909 137.8 24.804C138.244 24.5142 138.761 24.3693 139.352 24.3693C139.692 24.3693 140.029 24.4261 140.362 24.5398C140.694 24.6534 140.996 24.8381 141.269 25.0938C141.542 25.3466 141.759 25.6818 141.921 26.0994C142.083 26.517 142.164 27.0312 142.164 27.642V28.0682H137.119V27.1989H141.141C141.141 26.8295 141.067 26.5 140.92 26.2102C140.775 25.9205 140.567 25.6918 140.298 25.5241C140.031 25.3565 139.715 25.2727 139.352 25.2727C138.951 25.2727 138.604 25.3722 138.312 25.571C138.022 25.767 137.799 26.0227 137.643 26.3381C137.487 26.6534 137.408 26.9915 137.408 27.3523V27.9318C137.408 28.4261 137.494 28.8452 137.664 29.1889C137.837 29.5298 138.077 29.7898 138.384 29.9688C138.691 30.1449 139.048 30.233 139.454 30.233C139.718 30.233 139.957 30.196 140.17 30.1222C140.386 30.0455 140.572 29.9318 140.728 29.7812C140.884 29.6278 141.005 29.4375 141.09 29.2102L142.062 29.483C141.96 29.8125 141.788 30.1023 141.546 30.3523C141.305 30.5994 141.006 30.7926 140.651 30.9318C140.296 31.0682 139.897 31.1364 139.454 31.1364ZM146.165 31.1364C145.62 31.1364 145.138 30.9986 144.721 30.723C144.303 30.4446 143.977 30.0526 143.741 29.5469C143.505 29.0384 143.387 28.4375 143.387 27.7443C143.387 27.0568 143.505 26.4602 143.741 25.9545C143.977 25.4489 144.305 25.0582 144.725 24.7827C145.146 24.5071 145.631 24.3693 146.183 24.3693C146.609 24.3693 146.945 24.4403 147.192 24.5824C147.442 24.7216 147.633 24.8807 147.763 25.0597C147.897 25.2358 148.001 25.3807 148.075 25.4943H148.16V22.2727H149.165V31H148.194V29.9943H148.075C148.001 30.1136 147.896 30.2642 147.759 30.446C147.623 30.625 147.428 30.7855 147.175 30.9276C146.923 31.0668 146.586 31.1364 146.165 31.1364ZM146.302 30.233C146.705 30.233 147.046 30.1278 147.325 29.9176C147.603 29.7045 147.815 29.4105 147.96 29.0355C148.104 28.6577 148.177 28.2216 148.177 27.7273C148.177 27.2386 148.106 26.8111 147.964 26.4446C147.822 26.0753 147.612 25.7884 147.333 25.5838C147.055 25.3764 146.711 25.2727 146.302 25.2727C145.876 25.2727 145.521 25.3821 145.237 25.6009C144.955 25.8168 144.744 26.1108 144.602 26.483C144.462 26.8523 144.393 27.267 144.393 27.7273C144.393 28.1932 144.464 28.6165 144.606 28.9972C144.751 29.375 144.964 29.6761 145.245 29.9006C145.529 30.1222 145.881 30.233 146.302 30.233Z" fill="white"/>
</g>
<defs>
<filter id="filter0_d_3167_9364" x="0" y="0" width="170" height="56" filterUnits="userSpaceOnUse" color-interpolation-filters="sRGB">
<feFlood flood-opacity="0" result="BackgroundImageFix"/>
<feColorMatrix in="SourceAlpha" type="matrix" values="0 0 0 0 0 0 0 0 0 0 0 0 0 0 0 0 0 0 127 0" result="hardAlpha"/>
<feOffset dy="1"/>
<feGaussianBlur stdDeviation="1.5"/>
<feComposite in2="hardAlpha" operator="out"/>
<feColorMatrix type="matrix" values="0 0 0 0 0 0 0 0 0 0 0 0 0 0 0 0 0 0 0.2 0"/>
<feBlend mode="normal" in2="BackgroundImageFix" result="effect1_dropShadow_3167_9364"/>
<feBlend mode="normal" in="SourceGraphic" in2="effect1_dropShadow_3167_9364" result="shape"/>
</filter>
</defs>
</svg>
