<svg width="200" height="40" viewBox="0 0 200 40" fill="none" xmlns="http://www.w3.org/2000/svg">
<rect width="200" height="40" rx="4" fill="white"/>
<path fill-rule="evenodd" clip-rule="evenodd" d="M11.5 12.5C11.2239 12.5 11 12.7239 11 13V15.5H14V12.5H11.5ZM11.5 11.5C10.6716 11.5 10 12.1716 10 13V27C10 27.8284 10.6716 28.5 11.5 28.5H28.5C29.3284 28.5 30 27.8284 30 27V13C30 12.1716 29.3284 11.5 28.5 11.5H11.5ZM15 12.5V15.5H19.5V12.5H15ZM20.5 12.5V15.5H25V12.5H20.5ZM26 12.5V15.5H29V13C29 12.7239 28.7761 12.5 28.5 12.5H26ZM29 16.5H24V19.5H29V16.5ZM29 20.5H26V23.5H29V20.5ZM29 24.5H24V27.5H28.5C28.7761 27.5 29 27.2761 29 27V24.5ZM23 27.5V24.5H17V27.5H23ZM16 27.5V24.5H11V27C11 27.2761 11.2239 27.5 11.5 27.5H16ZM11 23.5H14V20.5H11V23.5ZM11 19.5H16V16.5H11V19.5ZM17 16.5V19.5H23V16.5H17ZM20.5 20.5V23.5H25V20.5H20.5ZM19.5 23.5V20.5H15V23.5H19.5Z" fill="#222222"/>
<path d="M51.0824 25.5L48.2983 15.3182H49.5511L51.679 23.6108H51.7784L53.946 15.3182H55.3381L57.5057 23.6108H57.6051L59.733 15.3182H60.9858L58.2017 25.5H56.929L54.6818 17.3864H54.6023L52.3551 25.5H51.0824ZM63.8991 25.679C63.4152 25.679 62.9761 25.5878 62.5817 25.4055C62.1873 25.2199 61.8741 24.9531 61.642 24.6051C61.41 24.2538 61.294 23.8295 61.294 23.3324C61.294 22.8949 61.3802 22.5402 61.5526 22.2685C61.7249 21.9934 61.9553 21.7779 62.2436 21.6222C62.532 21.4664 62.8501 21.3504 63.1982 21.2741C63.5495 21.1946 63.9025 21.1316 64.2571 21.0852C64.7211 21.0256 65.0973 20.9808 65.3857 20.951C65.6773 20.9179 65.8894 20.8632 66.022 20.7869C66.1579 20.7107 66.2259 20.5781 66.2259 20.3892V20.3494C66.2259 19.8589 66.0916 19.4777 65.8232 19.206C65.558 18.9342 65.1553 18.7983 64.6151 18.7983C64.0549 18.7983 63.6158 18.9209 63.2976 19.1662C62.9794 19.4115 62.7557 19.6733 62.6264 19.9517L61.5128 19.554C61.7116 19.09 61.9768 18.7287 62.3082 18.4702C62.643 18.2083 63.0076 18.026 63.402 17.9233C63.7997 17.8172 64.1908 17.7642 64.5753 17.7642C64.8205 17.7642 65.1023 17.794 65.4205 17.8537C65.742 17.91 66.0518 18.0277 66.3501 18.2067C66.6518 18.3857 66.902 18.6558 67.1009 19.017C67.2997 19.3783 67.3991 19.8622 67.3991 20.4688V25.5H66.2259V24.4659H66.1662C66.0866 24.6316 65.9541 24.8089 65.7685 24.9979C65.5829 25.1868 65.3359 25.3475 65.0277 25.4801C64.7195 25.6127 64.3433 25.679 63.8991 25.679ZM64.0781 24.625C64.5421 24.625 64.9332 24.5339 65.2514 24.3516C65.5729 24.1693 65.8149 23.9339 65.9773 23.6456C66.143 23.3572 66.2259 23.054 66.2259 22.7358V21.6619C66.1761 21.7216 66.0668 21.7763 65.8977 21.826C65.732 21.8724 65.5398 21.9138 65.321 21.9503C65.1056 21.9834 64.8951 22.0133 64.6896 22.0398C64.4875 22.063 64.3234 22.0829 64.1974 22.0994C63.8925 22.1392 63.6075 22.2038 63.3423 22.2933C63.0805 22.3795 62.8684 22.5104 62.706 22.6861C62.5469 22.8584 62.4673 23.0937 62.4673 23.392C62.4673 23.7997 62.6181 24.108 62.9197 24.3168C63.2247 24.5223 63.6108 24.625 64.0781 24.625ZM70.714 15.3182V25.5H69.5407V15.3182H70.714ZM74.0362 15.3182V25.5H72.8629V15.3182H74.0362Z" fill="#222222"/>
<path d="M170.058 20.4091C170.058 19.1562 170.22 18.0045 170.545 16.9538C170.873 15.8999 171.341 14.9304 171.947 14.0455H172.981C172.743 14.3736 172.519 14.7779 172.31 15.2585C172.105 15.7358 171.924 16.2611 171.768 16.8345C171.612 17.4046 171.49 17.9946 171.4 18.6044C171.314 19.2143 171.271 19.8158 171.271 20.4091C171.271 21.1979 171.347 21.9983 171.5 22.8104C171.652 23.6224 171.858 24.3764 172.116 25.0724C172.375 25.7685 172.663 26.3352 172.981 26.7727H171.947C171.341 25.8878 170.873 24.92 170.545 23.8693C170.22 22.8153 170.058 21.6619 170.058 20.4091ZM176.721 25.5L173.937 15.3182H175.19L177.318 23.6108H177.417L179.585 15.3182H180.977L183.144 23.6108H183.244L185.372 15.3182H186.624L183.84 25.5H182.568L180.32 17.3864H180.241L177.994 25.5H176.721ZM190.507 20.4091C190.507 21.6619 190.343 22.8153 190.015 23.8693C189.69 24.92 189.225 25.8878 188.618 26.7727H187.584C187.823 26.4446 188.045 26.0402 188.25 25.5597C188.459 25.0824 188.641 24.5587 188.797 23.9886C188.953 23.4152 189.074 22.8236 189.16 22.2138C189.249 21.6006 189.294 20.9991 189.294 20.4091C189.294 19.6203 189.218 18.8198 189.066 18.0078C188.913 17.1958 188.708 16.4418 188.449 15.7457C188.191 15.0497 187.902 14.483 187.584 14.0455H188.618C189.225 14.9304 189.69 15.8999 190.015 16.9538C190.343 18.0045 190.507 19.1562 190.507 20.4091Z" fill="#222222"/>
</svg>
