<svg width="180" height="32" viewBox="0 0 180 32" fill="none" xmlns="http://www.w3.org/2000/svg">
<rect width="180" height="32" fill="#F7F7F7"/>
<path d="M16.8807 20V12.7273H17.7614V19.2188H21.142V20H16.8807ZM23.9972 20.1278C23.6515 20.1278 23.3378 20.0627 23.0561 19.9325C22.7744 19.8 22.5507 19.6094 22.3849 19.3608C22.2192 19.1098 22.1364 18.8068 22.1364 18.4517C22.1364 18.1392 22.1979 17.8859 22.321 17.6918C22.4441 17.4953 22.6087 17.3414 22.8146 17.2301C23.0206 17.1188 23.2479 17.036 23.4964 16.9815C23.7474 16.9247 23.9995 16.8797 24.2528 16.8466C24.5843 16.804 24.853 16.772 25.0589 16.7507C25.2673 16.727 25.4188 16.688 25.5135 16.6335C25.6106 16.5791 25.6591 16.4844 25.6591 16.3494V16.321C25.6591 15.9706 25.5632 15.6984 25.3714 15.5043C25.1821 15.3101 24.8944 15.2131 24.5085 15.2131C24.1084 15.2131 23.7947 15.3007 23.5675 15.4759C23.3402 15.651 23.1804 15.8381 23.0881 16.0369L22.2926 15.7528C22.4347 15.4214 22.6241 15.1634 22.8608 14.9787C23.0999 14.7917 23.3603 14.6615 23.642 14.5881C23.9261 14.5123 24.2055 14.4744 24.4801 14.4744C24.6553 14.4744 24.8565 14.4957 25.0838 14.5384C25.3134 14.5786 25.5348 14.6626 25.7479 14.7905C25.9633 14.9183 26.142 15.1113 26.2841 15.3693C26.4261 15.6274 26.4972 15.973 26.4972 16.4062V20H25.6591V19.2614H25.6165C25.5597 19.3797 25.465 19.5064 25.3324 19.6413C25.1998 19.7763 25.0234 19.8911 24.8033 19.9858C24.5831 20.0805 24.3144 20.1278 23.9972 20.1278ZM24.125 19.375C24.4564 19.375 24.7358 19.3099 24.9631 19.1797C25.1927 19.0495 25.3655 18.8814 25.4815 18.6754C25.5999 18.4695 25.6591 18.2528 25.6591 18.0256V17.2585C25.6236 17.3011 25.5455 17.3402 25.4247 17.3757C25.3063 17.4089 25.169 17.4384 25.0128 17.4645C24.8589 17.4882 24.7086 17.5095 24.5618 17.5284C24.4174 17.545 24.3002 17.5592 24.2102 17.571C23.9924 17.5994 23.7888 17.6456 23.5994 17.7095C23.4124 17.7711 23.2609 17.8646 23.1449 17.9901C23.0313 18.1132 22.9744 18.2812 22.9744 18.4943C22.9744 18.7855 23.0821 19.0057 23.2976 19.1548C23.5154 19.3016 23.7912 19.375 24.125 19.375ZM28.1404 20V12.7273H28.9785V15.4119H29.0495C29.1111 15.3172 29.1963 15.1965 29.3052 15.0497C29.4165 14.9006 29.5751 14.768 29.7811 14.652C29.9894 14.5336 30.2711 14.4744 30.6262 14.4744C31.0855 14.4744 31.4904 14.5893 31.8407 14.8189C32.1911 15.0485 32.4645 15.3741 32.661 15.7955C32.8575 16.2169 32.9558 16.714 32.9558 17.2869C32.9558 17.8646 32.8575 18.3653 32.661 18.7891C32.4645 19.2105 32.1923 19.5372 31.8443 19.7692C31.4963 19.9988 31.095 20.1136 30.6404 20.1136C30.2901 20.1136 30.0095 20.0556 29.7988 19.9396C29.5881 19.8213 29.426 19.6875 29.3123 19.5384C29.1987 19.3868 29.1111 19.2614 29.0495 19.1619H28.9501V20H28.1404ZM28.9643 17.2727C28.9643 17.6847 29.0247 18.0481 29.1454 18.3629C29.2662 18.6754 29.4425 18.9205 29.6745 19.098C29.9065 19.2732 30.1906 19.3608 30.5268 19.3608C30.8772 19.3608 31.1696 19.2685 31.4039 19.0838C31.6407 18.8968 31.8182 18.6458 31.9366 18.331C32.0574 18.0137 32.1177 17.661 32.1177 17.2727C32.1177 16.8892 32.0585 16.5436 31.9402 16.2358C31.8242 15.9257 31.6478 15.6806 31.411 15.5007C31.1767 15.3184 30.8819 15.2273 30.5268 15.2273C30.1859 15.2273 29.8994 15.3137 29.6674 15.4865C29.4354 15.657 29.2602 15.8961 29.1419 16.2038C29.0235 16.5092 28.9643 16.8655 28.9643 17.2727ZM36.5247 20.1136C35.9991 20.1136 35.5458 19.9976 35.1646 19.7656C34.7858 19.5312 34.4934 19.2045 34.2875 18.7855C34.0839 18.3641 33.9821 17.8741 33.9821 17.3153C33.9821 16.7566 34.0839 16.2642 34.2875 15.8381C34.4934 15.4096 34.7799 15.0758 35.1468 14.8366C35.5162 14.5952 35.947 14.4744 36.4395 14.4744C36.7235 14.4744 37.0041 14.5218 37.2811 14.6165C37.5581 14.7112 37.8102 14.8651 38.0375 15.0781C38.2647 15.2888 38.4458 15.5682 38.5808 15.9162C38.7157 16.2642 38.7832 16.6927 38.7832 17.2017V17.5568H34.5787V16.8324H37.9309C37.9309 16.5246 37.8694 16.25 37.7463 16.0085C37.6255 15.767 37.4527 15.5765 37.2278 15.4368C37.0053 15.2971 36.7425 15.2273 36.4395 15.2273C36.1056 15.2273 35.8168 15.3101 35.573 15.4759C35.3315 15.6392 35.1457 15.8523 35.0154 16.1151C34.8852 16.3778 34.8201 16.6596 34.8201 16.9602V17.4432C34.8201 17.8551 34.8912 18.2043 35.0332 18.4908C35.1776 18.7749 35.3777 18.9915 35.6333 19.1406C35.889 19.2874 36.1861 19.3608 36.5247 19.3608C36.7449 19.3608 36.9437 19.33 37.1213 19.2685C37.3012 19.2045 37.4563 19.1098 37.5865 18.9844C37.7167 18.8565 37.8173 18.6979 37.8883 18.5085L38.698 18.7358C38.6127 19.0104 38.4695 19.2519 38.2683 19.4602C38.0671 19.6662 37.8185 19.8272 37.5225 19.9432C37.2266 20.0568 36.894 20.1136 36.5247 20.1136ZM40.8961 12.7273V20H40.0581V12.7273H40.8961ZM46.0817 16.7188V20H45.2436V14.5455H46.0533V15.3977H46.1243C46.2521 15.1207 46.4463 14.8982 46.7067 14.7301C46.9671 14.5597 47.3033 14.4744 47.7152 14.4744C48.0845 14.4744 48.4077 14.5502 48.6847 14.7017C48.9616 14.8509 49.1771 15.0781 49.331 15.3835C49.4848 15.6866 49.5618 16.0701 49.5618 16.5341V20H48.7237V16.5909C48.7237 16.1624 48.6125 15.8286 48.3899 15.5895C48.1674 15.348 47.862 15.2273 47.4737 15.2273C47.2062 15.2273 46.9671 15.2853 46.7564 15.4013C46.5481 15.5173 46.3835 15.6866 46.2628 15.9091C46.142 16.1316 46.0817 16.4015 46.0817 16.7188ZM52.6983 20.1278C52.3527 20.1278 52.039 20.0627 51.7573 19.9325C51.4756 19.8 51.2518 19.6094 51.0861 19.3608C50.9204 19.1098 50.8375 18.8068 50.8375 18.4517C50.8375 18.1392 50.8991 17.8859 51.0222 17.6918C51.1453 17.4953 51.3098 17.3414 51.5158 17.2301C51.7218 17.1188 51.949 17.036 52.1976 16.9815C52.4486 16.9247 52.7007 16.8797 52.954 16.8466C53.2855 16.804 53.5542 16.772 53.7601 16.7507C53.9685 16.727 54.12 16.688 54.2147 16.6335C54.3117 16.5791 54.3603 16.4844 54.3603 16.3494V16.321C54.3603 15.9706 54.2644 15.6984 54.0726 15.5043C53.8832 15.3101 53.5956 15.2131 53.2097 15.2131C52.8096 15.2131 52.4959 15.3007 52.2686 15.4759C52.0414 15.651 51.8816 15.8381 51.7892 16.0369L50.9938 15.7528C51.1358 15.4214 51.3252 15.1634 51.562 14.9787C51.8011 14.7917 52.0615 14.6615 52.3432 14.5881C52.6273 14.5123 52.9067 14.4744 53.1813 14.4744C53.3565 14.4744 53.5577 14.4957 53.785 14.5384C54.0146 14.5786 54.236 14.6626 54.449 14.7905C54.6645 14.9183 54.8432 15.1113 54.9853 15.3693C55.1273 15.6274 55.1983 15.973 55.1983 16.4062V20H54.3603V19.2614H54.3176C54.2608 19.3797 54.1661 19.5064 54.0336 19.6413C53.901 19.7763 53.7246 19.8911 53.5044 19.9858C53.2843 20.0805 53.0156 20.1278 52.6983 20.1278ZM52.8262 19.375C53.1576 19.375 53.437 19.3099 53.6642 19.1797C53.8939 19.0495 54.0667 18.8814 54.1827 18.6754C54.3011 18.4695 54.3603 18.2528 54.3603 18.0256V17.2585C54.3248 17.3011 54.2466 17.3402 54.1259 17.3757C54.0075 17.4089 53.8702 17.4384 53.714 17.4645C53.5601 17.4882 53.4097 17.5095 53.263 17.5284C53.1185 17.545 53.0014 17.5592 52.9114 17.571C52.6936 17.5994 52.49 17.6456 52.3006 17.7095C52.1136 17.7711 51.9621 17.8646 51.8461 17.9901C51.7324 18.1132 51.6756 18.2812 51.6756 18.4943C51.6756 18.7855 51.7833 19.0057 51.9988 19.1548C52.2166 19.3016 52.4924 19.375 52.8262 19.375ZM56.728 20V14.5455H57.5376V15.3977H57.6087C57.7223 15.1065 57.9058 14.8804 58.1591 14.7195C58.4124 14.5561 58.7166 14.4744 59.0717 14.4744C59.4316 14.4744 59.7311 14.5561 59.9702 14.7195C60.2116 14.8804 60.3999 15.1065 60.5348 15.3977H60.5916C60.7313 15.116 60.9408 14.8923 61.2202 14.7266C61.4995 14.5585 61.8345 14.4744 62.2251 14.4744C62.7128 14.4744 63.1117 14.6271 63.4219 14.9325C63.732 15.2356 63.8871 15.7079 63.8871 16.3494V20H63.049V16.3494C63.049 15.947 62.9389 15.6593 62.7188 15.4865C62.4986 15.3137 62.2393 15.2273 61.9411 15.2273C61.5575 15.2273 61.2604 15.3433 61.0497 15.5753C60.839 15.8049 60.7337 16.0961 60.7337 16.4489V20H59.8814V16.2642C59.8814 15.9541 59.7808 15.7043 59.5795 15.5149C59.3783 15.3232 59.1191 15.2273 58.8018 15.2273C58.584 15.2273 58.3804 15.2853 58.1911 15.4013C58.004 15.5173 57.8525 15.6783 57.7365 15.8842C57.6229 16.0878 57.5661 16.3234 57.5661 16.5909V20H56.728ZM67.7063 20.1136C67.1808 20.1136 66.7274 19.9976 66.3462 19.7656C65.9674 19.5312 65.6751 19.2045 65.4691 18.7855C65.2655 18.3641 65.1637 17.8741 65.1637 17.3153C65.1637 16.7566 65.2655 16.2642 65.4691 15.8381C65.6751 15.4096 65.9615 15.0758 66.3285 14.8366C66.6978 14.5952 67.1287 14.4744 67.6211 14.4744C67.9052 14.4744 68.1857 14.5218 68.4627 14.6165C68.7397 14.7112 68.9918 14.8651 69.2191 15.0781C69.4464 15.2888 69.6275 15.5682 69.7624 15.9162C69.8974 16.2642 69.9648 16.6927 69.9648 17.2017V17.5568H65.7603V16.8324H69.1126C69.1126 16.5246 69.051 16.25 68.9279 16.0085C68.8072 15.767 68.6344 15.5765 68.4094 15.4368C68.1869 15.2971 67.9241 15.2273 67.6211 15.2273C67.2873 15.2273 66.9985 15.3101 66.7546 15.4759C66.5131 15.6392 66.3273 15.8523 66.1971 16.1151C66.0669 16.3778 66.0018 16.6596 66.0018 16.9602V17.4432C66.0018 17.8551 66.0728 18.2043 66.2148 18.4908C66.3593 18.7749 66.5593 18.9915 66.815 19.1406C67.0707 19.2874 67.3678 19.3608 67.7063 19.3608C67.9265 19.3608 68.1254 19.33 68.3029 19.2685C68.4828 19.2045 68.6379 19.1098 68.7681 18.9844C68.8983 18.8565 68.9989 18.6979 69.07 18.5085L69.8796 18.7358C69.7944 19.0104 69.6512 19.2519 69.4499 19.4602C69.2487 19.6662 69.0001 19.8272 68.7042 19.9432C68.4083 20.0568 68.0756 20.1136 67.7063 20.1136Z" fill="#222222"/>
<path d="M158.421 19.5H157.498L160.168 12.2273H161.077L163.748 19.5H162.825L160.651 13.3778H160.594L158.421 19.5ZM158.762 16.6591H162.484V17.4403H158.762V16.6591Z" fill="#222222"/>
</svg>
