<svg width="57" height="16" viewBox="0 0 57 16" fill="none" xmlns="http://www.w3.org/2000/svg">
<rect width="57" height="16" rx="8" fill="var(--colors-neutral-neutral-400)"/>
<path d="M7.05646 11.5V4.22727H9.51385C10.0844 4.22727 10.5508 4.33026 10.913 4.53622C11.2776 4.73982 11.5475 5.01562 11.7227 5.36364C11.8978 5.71165 11.9854 6.09991 11.9854 6.52841C11.9854 6.95691 11.8978 7.34635 11.7227 7.69673C11.5498 8.04711 11.2823 8.32647 10.9201 8.5348C10.5579 8.74077 10.0939 8.84375 9.52805 8.84375H7.76669V8.0625H9.49964C9.89027 8.0625 10.204 7.99503 10.4407 7.86009C10.6774 7.72514 10.8491 7.54285 10.9556 7.31321C11.0645 7.0812 11.119 6.8196 11.119 6.52841C11.119 6.23722 11.0645 5.9768 10.9556 5.74716C10.8491 5.51752 10.6763 5.33759 10.4371 5.20739C10.198 5.07481 9.8808 5.00852 9.48544 5.00852H7.93714V11.5H7.05646ZM13.4041 11.5V4.22727H17.7933V5.00852H14.2848V7.46591H17.5661V8.24716H14.2848V10.7188H17.8501V11.5H13.4041ZM25.1477 4.22727V11.5H24.2955L20.3324 5.78977H20.2614V11.5H19.3807V4.22727H20.233L24.2102 9.9517H24.2812V4.22727H25.1477ZM29.1543 11.5H26.91V4.22727H29.2537C29.9592 4.22727 30.5629 4.37287 31.0648 4.66406C31.5667 4.95289 31.9514 5.36837 32.2189 5.91051C32.4864 6.45028 32.6202 7.09659 32.6202 7.84943C32.6202 8.60701 32.4853 9.25923 32.2154 9.80611C31.9455 10.3506 31.5525 10.7696 31.0364 11.0632C30.5203 11.3544 29.8929 11.5 29.1543 11.5ZM27.7907 10.7188H29.0975C29.6988 10.7188 30.1971 10.6027 30.5925 10.3707C30.9879 10.1387 31.2826 9.80848 31.4767 9.37997C31.6709 8.95147 31.7679 8.44129 31.7679 7.84943C31.7679 7.26231 31.6721 6.75687 31.4803 6.3331C31.2885 5.90696 31.0021 5.58026 30.6209 5.35298C30.2398 5.12334 29.7651 5.00852 29.1969 5.00852H27.7907V10.7188ZM34.9782 4.22727V11.5H34.0975V4.22727H34.9782ZM42.511 4.22727V11.5H41.6587L37.6957 5.78977H37.6246V11.5H36.744V4.22727H37.5962L41.5735 9.9517H41.6445V4.22727H42.511ZM49.2449 6.5C49.1667 6.26089 49.0637 6.04664 48.9359 5.85724C48.8104 5.66548 48.6601 5.50213 48.4849 5.36719C48.3121 5.23224 48.1156 5.12926 47.8954 5.05824C47.6752 4.98722 47.4338 4.9517 47.171 4.9517C46.7401 4.9517 46.3483 5.06297 45.9956 5.28551C45.6428 5.50805 45.3623 5.83594 45.1539 6.26918C44.9456 6.70241 44.8414 7.2339 44.8414 7.86364C44.8414 8.49337 44.9468 9.02486 45.1575 9.4581C45.3682 9.89134 45.6535 10.2192 46.0133 10.4418C46.3732 10.6643 46.778 10.7756 47.2278 10.7756C47.6445 10.7756 48.0114 10.6868 48.3287 10.5092C48.6483 10.3293 48.8968 10.076 49.0744 9.74929C49.2543 9.42022 49.3443 9.03314 49.3443 8.58807L49.6142 8.64489H47.4267V7.86364H50.1966V8.64489C50.1966 9.24384 50.0687 9.76468 49.813 10.2074C49.5597 10.6501 49.2093 10.9934 48.7619 11.2372C48.3168 11.4787 47.8055 11.5994 47.2278 11.5994C46.5839 11.5994 46.0181 11.4479 45.5304 11.1449C45.045 10.8419 44.6663 10.411 44.394 9.85227C44.1241 9.29356 43.9892 8.63068 43.9892 7.86364C43.9892 7.28835 44.0661 6.77107 44.22 6.31179C44.3762 5.85014 44.5964 5.45715 44.8805 5.13281C45.1646 4.80848 45.5008 4.5599 45.889 4.38707C46.2773 4.21425 46.7046 4.12784 47.171 4.12784C47.5545 4.12784 47.912 4.18584 48.2434 4.30185C48.5772 4.41548 48.8743 4.57765 49.1348 4.78835C49.3975 4.99669 49.6165 5.24645 49.7917 5.53764C49.9669 5.82647 50.0877 6.14725 50.1539 6.5H49.2449Z" fill="var(--colors-neutral-neutral-800)"/>
</svg>
