<svg width="39" height="16" viewBox="0 0 39 16" fill="none" xmlns="http://www.w3.org/2000/svg">
<rect width="39" height="16" rx="8" fill="var(--colors-neutral-neutral-800)"/>
<path d="M7.97834 12V4.72727H10.521C11.0276 4.72727 11.4454 4.81487 11.7745 4.99006C12.1036 5.16288 12.3486 5.39607 12.5096 5.68963C12.6706 5.98082 12.7511 6.30398 12.7511 6.65909C12.7511 6.97159 12.6954 7.22964 12.5842 7.43324C12.4753 7.63684 12.3308 7.79782 12.1509 7.91619C11.9734 8.03456 11.7804 8.12216 11.5721 8.17898V8.25C11.7946 8.2642 12.0183 8.34233 12.2433 8.48438C12.4682 8.62642 12.6564 8.83002 12.8079 9.09517C12.9594 9.36032 13.0352 9.68466 13.0352 10.0682C13.0352 10.4328 12.9523 10.7607 12.7866 11.0518C12.6209 11.343 12.3593 11.5739 12.0018 11.7443C11.6443 11.9148 11.1791 12 10.6062 12H7.97834ZM8.85902 11.2188H10.6062C11.1815 11.2188 11.5898 11.1075 11.8313 10.8849C12.0752 10.66 12.1971 10.3878 12.1971 10.0682C12.1971 9.82197 12.1344 9.5947 12.0089 9.38636C11.8834 9.17566 11.7047 9.00758 11.4727 8.8821C11.2406 8.75426 10.966 8.69034 10.6488 8.69034H8.85902V11.2188ZM8.85902 7.9233H10.4925C10.7577 7.9233 10.9968 7.87121 11.2099 7.76705C11.4253 7.66288 11.5958 7.5161 11.7212 7.3267C11.8491 7.13731 11.913 6.91477 11.913 6.65909C11.913 6.33949 11.8017 6.06842 11.5792 5.84588C11.3567 5.62098 11.0039 5.50852 10.521 5.50852H8.85902V7.9233ZM14.4822 12V4.72727H18.8714V5.50852H15.3629V7.96591H18.6442V8.74716H15.3629V11.2188H18.9283V12H14.4822ZM20.0611 5.50852V4.72727H25.5156V5.50852H23.2287V12H22.348V5.50852H20.0611ZM26.3235 12H25.4002L28.0707 4.72727H28.9798L31.6502 12H30.7269L28.5536 5.87784H28.4968L26.3235 12ZM26.6644 9.15909H30.386V9.94034H26.6644V9.15909Z" fill="white"/>
</svg>
