<svg width="60" height="16" viewBox="0 0 60 16" fill="none" xmlns="http://www.w3.org/2000/svg">
<rect width="60" height="16" rx="8" fill="var(--colors-neutral-neutral-400)"/>
<path d="M7.75124 12H6.82795L9.4984 4.72727H10.4075L13.0779 12H12.1547L9.98136 5.87784H9.92454L7.75124 12ZM8.09215 9.15909H11.8137V9.94034H8.09215V9.15909ZM14.2108 12V4.72727H16.7534C17.26 4.72727 17.6779 4.81487 18.0069 4.99006C18.336 5.16288 18.581 5.39607 18.742 5.68963C18.903 5.98082 18.9835 6.30398 18.9835 6.65909C18.9835 6.97159 18.9279 7.22964 18.8166 7.43324C18.7077 7.63684 18.5633 7.79782 18.3833 7.91619C18.2058 8.03456 18.0128 8.12216 17.8045 8.17898V8.25C18.027 8.2642 18.2508 8.34233 18.4757 8.48438C18.7006 8.62642 18.8888 8.83002 19.0403 9.09517C19.1918 9.36032 19.2676 9.68466 19.2676 10.0682C19.2676 10.4328 19.1847 10.7607 19.019 11.0518C18.8533 11.343 18.5917 11.5739 18.2342 11.7443C17.8767 11.9148 17.4115 12 16.8386 12H14.2108ZM15.0914 11.2188H16.8386C17.4139 11.2188 17.8223 11.1075 18.0637 10.8849C18.3076 10.66 18.4295 10.3878 18.4295 10.0682C18.4295 9.82197 18.3668 9.5947 18.2413 9.38636C18.1158 9.17566 17.9371 9.00758 17.7051 8.8821C17.4731 8.75426 17.1984 8.69034 16.8812 8.69034H15.0914V11.2188ZM15.0914 7.9233H16.725C16.9901 7.9233 17.2292 7.87121 17.4423 7.76705C17.6577 7.66288 17.8282 7.5161 17.9537 7.3267C18.0815 7.13731 18.1454 6.91477 18.1454 6.65909C18.1454 6.33949 18.0342 6.06842 17.8116 5.84588C17.5891 5.62098 17.2363 5.50852 16.7534 5.50852H15.0914V7.9233ZM26.851 8.36364C26.851 9.13068 26.7125 9.79356 26.4355 10.3523C26.1586 10.911 25.7786 11.3419 25.2956 11.6449C24.8127 11.9479 24.2611 12.0994 23.6408 12.0994C23.0205 12.0994 22.4689 11.9479 21.986 11.6449C21.503 11.3419 21.123 10.911 20.8461 10.3523C20.5691 9.79356 20.4306 9.13068 20.4306 8.36364C20.4306 7.59659 20.5691 6.93371 20.8461 6.375C21.123 5.81629 21.503 5.38542 21.986 5.08239C22.4689 4.77936 23.0205 4.62784 23.6408 4.62784C24.2611 4.62784 24.8127 4.77936 25.2956 5.08239C25.7786 5.38542 26.1586 5.81629 26.4355 6.375C26.7125 6.93371 26.851 7.59659 26.851 8.36364ZM25.9988 8.36364C25.9988 7.7339 25.8934 7.20241 25.6827 6.76918C25.4744 6.33594 25.1915 6.00805 24.834 5.78551C24.4789 5.56297 24.0811 5.4517 23.6408 5.4517C23.2005 5.4517 22.8016 5.56297 22.4441 5.78551C22.089 6.00805 21.806 6.33594 21.5953 6.76918C21.387 7.20241 21.2828 7.7339 21.2828 8.36364C21.2828 8.99337 21.387 9.52486 21.5953 9.9581C21.806 10.3913 22.089 10.7192 22.4441 10.9418C22.8016 11.1643 23.2005 11.2756 23.6408 11.2756C24.0811 11.2756 24.4789 11.1643 24.834 10.9418C25.1915 10.7192 25.4744 10.3913 25.6827 9.9581C25.8934 9.52486 25.9988 8.99337 25.9988 8.36364ZM28.3319 12V4.72727H30.7892C31.3574 4.72727 31.8238 4.82434 32.1884 5.01847C32.553 5.21023 32.8229 5.47419 32.998 5.81037C33.1732 6.14654 33.2608 6.52888 33.2608 6.95739C33.2608 7.38589 33.1732 7.76586 32.998 8.0973C32.8229 8.42874 32.5542 8.68916 32.1919 8.87855C31.8297 9.06558 31.3669 9.15909 30.8034 9.15909H28.8148V8.36364H30.775C31.1633 8.36364 31.4758 8.30682 31.7125 8.19318C31.9516 8.07955 32.1245 7.91856 32.231 7.71023C32.3399 7.49953 32.3944 7.24858 32.3944 6.95739C32.3944 6.66619 32.3399 6.41169 32.231 6.19389C32.1221 5.97609 31.9481 5.808 31.709 5.68963C31.4699 5.56889 31.1538 5.50852 30.7608 5.50852H29.2125V12H28.3319ZM31.7551 8.73295L33.5449 12H32.5222L30.7608 8.73295H31.7551ZM34.3306 5.50852V4.72727H39.7852V5.50852H37.4982V12H36.6175V5.50852H34.3306ZM41.1444 12V4.72727H45.5336V5.50852H42.025V7.96591H45.3063V8.74716H42.025V11.2188H45.5904V12H41.1444ZM49.3652 12H47.1209V4.72727H49.4647C50.1702 4.72727 50.7739 4.87287 51.2757 5.16406C51.7776 5.45289 52.1623 5.86837 52.4299 6.41051C52.6974 6.95028 52.8311 7.59659 52.8311 8.34943C52.8311 9.10701 52.6962 9.75923 52.4263 10.3061C52.1564 10.8506 51.7634 11.2696 51.2473 11.5632C50.7312 11.8544 50.1039 12 49.3652 12ZM48.0016 11.2188H49.3084C49.9097 11.2188 50.4081 11.1027 50.8034 10.8707C51.1988 10.6387 51.4935 10.3085 51.6877 9.87997C51.8818 9.45147 51.9789 8.94129 51.9789 8.34943C51.9789 7.76231 51.883 7.25687 51.6912 6.8331C51.4995 6.40696 51.213 6.08026 50.8319 5.85298C50.4507 5.62334 49.976 5.50852 49.4078 5.50852H48.0016V11.2188Z" fill="var(--colors-neutral-neutral-800)"/>
</svg>
