<svg width="180" height="32" viewBox="0 0 180 32" fill="none" xmlns="http://www.w3.org/2000/svg">
<rect width="180" height="32" fill="var(--colors-neutral-neutral-300)"/>
<path d="M21.6154 24C21.1551 24 20.7708 23.8458 20.4625 23.5375C20.1542 23.2292 20 22.8449 20 22.3846V9.61537C20 9.15512 20.1542 8.77083 20.4625 8.4625C20.7708 8.15417 21.1551 8 21.6154 8H34.3846C34.8449 8 35.2292 8.15417 35.5375 8.4625C35.8458 8.77083 36 9.15512 36 9.61537V22.3846C36 22.8449 35.8458 23.2292 35.5375 23.5375C35.2292 23.8458 34.8449 24 34.3846 24H21.6154ZM21.6154 23H34.3846C34.5385 23 34.6795 22.9359 34.8077 22.8077C34.9359 22.6795 35 22.5385 35 22.3846V9.61537C35 9.46154 34.9359 9.32052 34.8077 9.1923C34.6795 9.0641 34.5385 9 34.3846 9H21.6154C21.4615 9 21.3205 9.0641 21.1923 9.1923C21.0641 9.32052 21 9.46154 21 9.61537V22.3846C21 22.5385 21.0641 22.6795 21.1923 22.8077C21.3205 22.9359 21.4615 23 21.6154 23Z" fill="var(--colors-neutral-neutral-800)"/>
<path d="M48.8807 19.5V12.2273H49.7614V18.7188H53.142V19.5H48.8807ZM55.9972 19.6278C55.6515 19.6278 55.3378 19.5627 55.0561 19.4325C54.7744 19.3 54.5507 19.1094 54.3849 18.8608C54.2192 18.6098 54.1364 18.3068 54.1364 17.9517C54.1364 17.6392 54.1979 17.3859 54.321 17.1918C54.4441 16.9953 54.6087 16.8414 54.8146 16.7301C55.0206 16.6188 55.2479 16.536 55.4964 16.4815C55.7474 16.4247 55.9995 16.3797 56.2528 16.3466C56.5843 16.304 56.853 16.272 57.0589 16.2507C57.2673 16.227 57.4188 16.188 57.5135 16.1335C57.6106 16.0791 57.6591 15.9844 57.6591 15.8494V15.821C57.6591 15.4706 57.5632 15.1984 57.3714 15.0043C57.1821 14.8101 56.8944 14.7131 56.5085 14.7131C56.1084 14.7131 55.7947 14.8007 55.5675 14.9759C55.3402 15.151 55.1804 15.3381 55.0881 15.5369L54.2926 15.2528C54.4347 14.9214 54.6241 14.6634 54.8608 14.4787C55.0999 14.2917 55.3603 14.1615 55.642 14.0881C55.9261 14.0123 56.2055 13.9744 56.4801 13.9744C56.6553 13.9744 56.8565 13.9957 57.0838 14.0384C57.3134 14.0786 57.5348 14.1626 57.7479 14.2905C57.9633 14.4183 58.142 14.6113 58.2841 14.8693C58.4261 15.1274 58.4972 15.473 58.4972 15.9062V19.5H57.6591V18.7614H57.6165C57.5597 18.8797 57.465 19.0064 57.3324 19.1413C57.1998 19.2763 57.0234 19.3911 56.8033 19.4858C56.5831 19.5805 56.3144 19.6278 55.9972 19.6278ZM56.125 18.875C56.4564 18.875 56.7358 18.8099 56.9631 18.6797C57.1927 18.5495 57.3655 18.3814 57.4815 18.1754C57.5999 17.9695 57.6591 17.7528 57.6591 17.5256V16.7585C57.6236 16.8011 57.5455 16.8402 57.4247 16.8757C57.3063 16.9089 57.169 16.9384 57.0128 16.9645C56.8589 16.9882 56.7086 17.0095 56.5618 17.0284C56.4174 17.045 56.3002 17.0592 56.2102 17.071C55.9924 17.0994 55.7888 17.1456 55.5994 17.2095C55.4124 17.2711 55.2609 17.3646 55.1449 17.4901C55.0313 17.6132 54.9744 17.7812 54.9744 17.9943C54.9744 18.2855 55.0821 18.5057 55.2976 18.6548C55.5154 18.8016 55.7912 18.875 56.125 18.875ZM60.1404 19.5V12.2273H60.9785V14.9119H61.0495C61.1111 14.8172 61.1963 14.6965 61.3052 14.5497C61.4165 14.4006 61.5751 14.268 61.7811 14.152C61.9894 14.0336 62.2711 13.9744 62.6262 13.9744C63.0855 13.9744 63.4904 14.0893 63.8407 14.3189C64.1911 14.5485 64.4645 14.8741 64.661 15.2955C64.8575 15.7169 64.9558 16.214 64.9558 16.7869C64.9558 17.3646 64.8575 17.8653 64.661 18.2891C64.4645 18.7105 64.1923 19.0372 63.8443 19.2692C63.4963 19.4988 63.095 19.6136 62.6404 19.6136C62.2901 19.6136 62.0095 19.5556 61.7988 19.4396C61.5881 19.3213 61.426 19.1875 61.3123 19.0384C61.1987 18.8868 61.1111 18.7614 61.0495 18.6619H60.9501V19.5H60.1404ZM60.9643 16.7727C60.9643 17.1847 61.0247 17.5481 61.1454 17.8629C61.2662 18.1754 61.4425 18.4205 61.6745 18.598C61.9065 18.7732 62.1906 18.8608 62.5268 18.8608C62.8772 18.8608 63.1696 18.7685 63.4039 18.5838C63.6407 18.3968 63.8182 18.1458 63.9366 17.831C64.0574 17.5137 64.1177 17.161 64.1177 16.7727C64.1177 16.3892 64.0585 16.0436 63.9402 15.7358C63.8242 15.4257 63.6478 15.1806 63.411 15.0007C63.1767 14.8184 62.8819 14.7273 62.5268 14.7273C62.1859 14.7273 61.8994 14.8137 61.6674 14.9865C61.4354 15.157 61.2602 15.3961 61.1419 15.7038C61.0235 16.0092 60.9643 16.3655 60.9643 16.7727ZM68.5247 19.6136C67.9991 19.6136 67.5458 19.4976 67.1646 19.2656C66.7858 19.0312 66.4934 18.7045 66.2875 18.2855C66.0839 17.8641 65.9821 17.3741 65.9821 16.8153C65.9821 16.2566 66.0839 15.7642 66.2875 15.3381C66.4934 14.9096 66.7799 14.5758 67.1468 14.3366C67.5162 14.0952 67.947 13.9744 68.4395 13.9744C68.7235 13.9744 69.0041 14.0218 69.2811 14.1165C69.5581 14.2112 69.8102 14.3651 70.0375 14.5781C70.2647 14.7888 70.4458 15.0682 70.5808 15.4162C70.7157 15.7642 70.7832 16.1927 70.7832 16.7017V17.0568H66.5787V16.3324H69.9309C69.9309 16.0246 69.8694 15.75 69.7463 15.5085C69.6255 15.267 69.4527 15.0765 69.2278 14.9368C69.0053 14.7971 68.7425 14.7273 68.4395 14.7273C68.1056 14.7273 67.8168 14.8101 67.573 14.9759C67.3315 15.1392 67.1457 15.3523 67.0154 15.6151C66.8852 15.8778 66.8201 16.1596 66.8201 16.4602V16.9432C66.8201 17.3551 66.8912 17.7043 67.0332 17.9908C67.1776 18.2749 67.3777 18.4915 67.6333 18.6406C67.889 18.7874 68.1861 18.8608 68.5247 18.8608C68.7449 18.8608 68.9437 18.83 69.1213 18.7685C69.3012 18.7045 69.4563 18.6098 69.5865 18.4844C69.7167 18.3565 69.8173 18.1979 69.8883 18.0085L70.698 18.2358C70.6127 18.5104 70.4695 18.7519 70.2683 18.9602C70.0671 19.1662 69.8185 19.3272 69.5225 19.4432C69.2266 19.5568 68.894 19.6136 68.5247 19.6136ZM72.8961 12.2273V19.5H72.0581V12.2273H72.8961ZM78.0817 16.2188V19.5H77.2436V14.0455H78.0533V14.8977H78.1243C78.2521 14.6207 78.4463 14.3982 78.7067 14.2301C78.9671 14.0597 79.3033 13.9744 79.7152 13.9744C80.0845 13.9744 80.4077 14.0502 80.6847 14.2017C80.9616 14.3509 81.1771 14.5781 81.331 14.8835C81.4848 15.1866 81.5618 15.5701 81.5618 16.0341V19.5H80.7237V16.0909C80.7237 15.6624 80.6125 15.3286 80.3899 15.0895C80.1674 14.848 79.862 14.7273 79.4737 14.7273C79.2062 14.7273 78.9671 14.7853 78.7564 14.9013C78.5481 15.0173 78.3835 15.1866 78.2628 15.4091C78.142 15.6316 78.0817 15.9015 78.0817 16.2188ZM84.6983 19.6278C84.3527 19.6278 84.039 19.5627 83.7573 19.4325C83.4756 19.3 83.2518 19.1094 83.0861 18.8608C82.9204 18.6098 82.8375 18.3068 82.8375 17.9517C82.8375 17.6392 82.8991 17.3859 83.0222 17.1918C83.1453 16.9953 83.3098 16.8414 83.5158 16.7301C83.7218 16.6188 83.949 16.536 84.1976 16.4815C84.4486 16.4247 84.7007 16.3797 84.954 16.3466C85.2855 16.304 85.5542 16.272 85.7601 16.2507C85.9685 16.227 86.12 16.188 86.2147 16.1335C86.3117 16.0791 86.3603 15.9844 86.3603 15.8494V15.821C86.3603 15.4706 86.2644 15.1984 86.0726 15.0043C85.8832 14.8101 85.5956 14.7131 85.2097 14.7131C84.8096 14.7131 84.4959 14.8007 84.2686 14.9759C84.0414 15.151 83.8816 15.3381 83.7892 15.5369L82.9938 15.2528C83.1358 14.9214 83.3252 14.6634 83.562 14.4787C83.8011 14.2917 84.0615 14.1615 84.3432 14.0881C84.6273 14.0123 84.9067 13.9744 85.1813 13.9744C85.3565 13.9744 85.5577 13.9957 85.785 14.0384C86.0146 14.0786 86.236 14.1626 86.449 14.2905C86.6645 14.4183 86.8432 14.6113 86.9853 14.8693C87.1273 15.1274 87.1983 15.473 87.1983 15.9062V19.5H86.3603V18.7614H86.3176C86.2608 18.8797 86.1661 19.0064 86.0336 19.1413C85.901 19.2763 85.7246 19.3911 85.5044 19.4858C85.2843 19.5805 85.0156 19.6278 84.6983 19.6278ZM84.8262 18.875C85.1576 18.875 85.437 18.8099 85.6642 18.6797C85.8939 18.5495 86.0667 18.3814 86.1827 18.1754C86.3011 17.9695 86.3603 17.7528 86.3603 17.5256V16.7585C86.3248 16.8011 86.2466 16.8402 86.1259 16.8757C86.0075 16.9089 85.8702 16.9384 85.714 16.9645C85.5601 16.9882 85.4097 17.0095 85.263 17.0284C85.1185 17.045 85.0014 17.0592 84.9114 17.071C84.6936 17.0994 84.49 17.1456 84.3006 17.2095C84.1136 17.2711 83.9621 17.3646 83.8461 17.4901C83.7324 17.6132 83.6756 17.7812 83.6756 17.9943C83.6756 18.2855 83.7833 18.5057 83.9988 18.6548C84.2166 18.8016 84.4924 18.875 84.8262 18.875ZM88.728 19.5V14.0455H89.5376V14.8977H89.6087C89.7223 14.6065 89.9058 14.3804 90.1591 14.2195C90.4124 14.0561 90.7166 13.9744 91.0717 13.9744C91.4316 13.9744 91.7311 14.0561 91.9702 14.2195C92.2116 14.3804 92.3999 14.6065 92.5348 14.8977H92.5916C92.7313 14.616 92.9408 14.3923 93.2202 14.2266C93.4995 14.0585 93.8345 13.9744 94.2251 13.9744C94.7128 13.9744 95.1117 14.1271 95.4219 14.4325C95.732 14.7356 95.8871 15.2079 95.8871 15.8494V19.5H95.049V15.8494C95.049 15.447 94.9389 15.1593 94.7188 14.9865C94.4986 14.8137 94.2393 14.7273 93.9411 14.7273C93.5575 14.7273 93.2604 14.8433 93.0497 15.0753C92.839 15.3049 92.7337 15.5961 92.7337 15.9489V19.5H91.8814V15.7642C91.8814 15.4541 91.7808 15.2043 91.5795 15.0149C91.3783 14.8232 91.1191 14.7273 90.8018 14.7273C90.584 14.7273 90.3804 14.7853 90.1911 14.9013C90.004 15.0173 89.8525 15.1783 89.7365 15.3842C89.6229 15.5878 89.5661 15.8234 89.5661 16.0909V19.5H88.728ZM99.7063 19.6136C99.1808 19.6136 98.7274 19.4976 98.3462 19.2656C97.9674 19.0312 97.6751 18.7045 97.4691 18.2855C97.2655 17.8641 97.1637 17.3741 97.1637 16.8153C97.1637 16.2566 97.2655 15.7642 97.4691 15.3381C97.6751 14.9096 97.9615 14.5758 98.3285 14.3366C98.6978 14.0952 99.1287 13.9744 99.6211 13.9744C99.9052 13.9744 100.186 14.0218 100.463 14.1165C100.74 14.2112 100.992 14.3651 101.219 14.5781C101.446 14.7888 101.627 15.0682 101.762 15.4162C101.897 15.7642 101.965 16.1927 101.965 16.7017V17.0568H97.7603V16.3324H101.113C101.113 16.0246 101.051 15.75 100.928 15.5085C100.807 15.267 100.634 15.0765 100.409 14.9368C100.187 14.7971 99.9241 14.7273 99.6211 14.7273C99.2873 14.7273 98.9985 14.8101 98.7546 14.9759C98.5131 15.1392 98.3273 15.3523 98.1971 15.6151C98.0669 15.8778 98.0018 16.1596 98.0018 16.4602V16.9432C98.0018 17.3551 98.0728 17.7043 98.2148 17.9908C98.3593 18.2749 98.5593 18.4915 98.815 18.6406C99.0707 18.7874 99.3678 18.8608 99.7063 18.8608C99.9265 18.8608 100.125 18.83 100.303 18.7685C100.483 18.7045 100.638 18.6098 100.768 18.4844C100.898 18.3565 100.999 18.1979 101.07 18.0085L101.88 18.2358C101.794 18.5104 101.651 18.7519 101.45 18.9602C101.249 19.1662 101 19.3272 100.704 19.4432C100.408 19.5568 100.076 19.6136 99.7063 19.6136Z" fill="var(--colors-neutral-neutral-800)"/>
</svg>
