<svg width="271" height="271" viewBox="0 0 271 271" fill="none" xmlns="http://www.w3.org/2000/svg">
<g clip-path="url(#clip0_5360_37523)">
<rect width="271" height="271" fill="var(--colors-neutral-neutral-300)"/>
<rect x="-291" y="268.372" width="784" height="16" transform="rotate(-45 -291 268.372)" fill="var(--colors-neutral-neutral-600)"/>
<rect x="-262.715" y="296.656" width="784" height="16" transform="rotate(-45 -262.715 296.656)" fill="var(--colors-neutral-neutral-600)"/>
<rect x="-234.432" y="324.94" width="784" height="16" transform="rotate(-45 -234.432 324.94)" fill="var(--colors-neutral-neutral-600)"/>
<rect x="-206.146" y="353.225" width="784" height="16" transform="rotate(-45 -206.146 353.225)" fill="var(--colors-neutral-neutral-600)"/>
<rect x="-177.863" y="381.509" width="784" height="16" transform="rotate(-45 -177.863 381.509)" fill="var(--colors-neutral-neutral-600)"/>
<rect x="-149.578" y="409.793" width="784" height="16" transform="rotate(-45 -149.578 409.793)" fill="var(--colors-neutral-neutral-600)"/>
<rect x="-121.295" y="438.077" width="784" height="16" transform="rotate(-45 -121.295 438.077)" fill="var(--colors-neutral-neutral-600)"/>
<rect x="-93.0098" y="466.362" width="784" height="16" transform="rotate(-45 -93.0098 466.362)" fill="var(--colors-neutral-neutral-600)"/>
<rect x="-64.7266" y="494.646" width="784" height="16" transform="rotate(-45 -64.7266 494.646)" fill="var(--colors-neutral-neutral-600)"/>
<rect x="-36.4414" y="522.93" width="784" height="16" transform="rotate(-45 -36.4414 522.93)" fill="var(--colors-neutral-neutral-600)"/>
<rect x="-8.1582" y="551.215" width="784" height="16" transform="rotate(-45 -8.1582 551.215)" fill="var(--colors-neutral-neutral-600)"/>
<rect x="20.127" y="579.499" width="784" height="16" transform="rotate(-45 20.127 579.499)" fill="var(--colors-neutral-neutral-600)"/>
<rect x="48.4121" y="607.783" width="784" height="16" transform="rotate(-45 48.4121 607.783)" fill="var(--colors-neutral-neutral-600)"/>
<rect x="76.6953" y="636.067" width="784" height="16" transform="rotate(-45 76.6953 636.067)" fill="var(--colors-neutral-neutral-600)"/>
<rect x="104.98" y="664.352" width="784" height="16" transform="rotate(-45 104.98 664.352)" fill="var(--colors-neutral-neutral-600)"/>
<rect x="133.264" y="692.636" width="784" height="16" transform="rotate(-45 133.264 692.636)" fill="var(--colors-neutral-neutral-600)"/>
<rect x="161.549" y="720.92" width="784" height="16" transform="rotate(-45 161.549 720.92)" fill="var(--colors-neutral-neutral-600)"/>
<rect x="189.832" y="749.204" width="784" height="16" transform="rotate(-45 189.832 749.204)" fill="var(--colors-neutral-neutral-600)"/>
<rect x="218.117" y="777.489" width="784" height="16" transform="rotate(-45 218.117 777.489)" fill="var(--colors-neutral-neutral-600)"/>
</g>
<rect x="5" y="5" width="261" height="261" stroke="var(--colors-neutral-neutral-600)" stroke-width="10"/>
<defs>
<clipPath id="clip0_5360_37523">
<rect width="271" height="271" fill="white"/>
</clipPath>
</defs>
</svg>
