<svg width="59" height="16" viewBox="0 0 59 16" fill="none" xmlns="http://www.w3.org/2000/svg">
<rect width="59" height="16" rx="8" fill="var(--colors-neutral-neutral-400)"/>
<path d="M7.14338 11.5V4.22727H9.60076C10.1689 4.22727 10.6353 4.32434 10.9999 4.51847C11.3645 4.71023 11.6344 4.97419 11.8096 5.31037C11.9848 5.64654 12.0724 6.02888 12.0724 6.45739C12.0724 6.88589 11.9848 7.26586 11.8096 7.5973C11.6344 7.92874 11.3657 8.18916 11.0035 8.37855C10.6412 8.56558 10.1784 8.65909 9.61497 8.65909H7.62633V7.86364H9.58656C9.97482 7.86364 10.2873 7.80682 10.5241 7.69318C10.7632 7.57955 10.936 7.41856 11.0425 7.21023C11.1514 6.99953 11.2059 6.74858 11.2059 6.45739C11.2059 6.16619 11.1514 5.91169 11.0425 5.69389C10.9336 5.47609 10.7596 5.308 10.5205 5.18963C10.2814 5.06889 9.96535 5.00852 9.57235 5.00852H8.02406V11.5H7.14338ZM10.5667 8.23295L12.3564 11.5H11.3337L9.57235 8.23295H10.5667ZM18.3126 4.22727H19.1933V9.04261C19.1933 9.53977 19.0761 9.98366 18.8417 10.3743C18.6097 10.7625 18.2818 11.0691 17.858 11.294C17.4343 11.5166 16.9371 11.6278 16.3666 11.6278C15.796 11.6278 15.2989 11.5166 14.8751 11.294C14.4513 11.0691 14.1222 10.7625 13.8879 10.3743C13.6559 9.98366 13.5399 9.53977 13.5399 9.04261V4.22727H14.4205V8.97159C14.4205 9.3267 14.4987 9.64276 14.6549 9.91974C14.8112 10.1944 15.0337 10.411 15.3225 10.5696C15.6137 10.7259 15.9617 10.804 16.3666 10.804C16.7714 10.804 17.1194 10.7259 17.4106 10.5696C17.7018 10.411 17.9243 10.1944 18.0782 9.91974C18.2345 9.64276 18.3126 9.3267 18.3126 8.97159V4.22727ZM26.719 4.22727V11.5H25.8667L21.9037 5.78977H21.8327V11.5H20.952V4.22727H21.8042L25.7815 9.9517H25.8525V4.22727H26.719ZM34.2483 4.22727V11.5H33.396L29.433 5.78977H29.3619V11.5H28.4813V4.22727H29.3335L33.3108 9.9517H33.3818V4.22727H34.2483ZM36.8912 4.22727V11.5H36.0106V4.22727H36.8912ZM44.4241 4.22727V11.5H43.5718L39.6088 5.78977H39.5377V11.5H38.657V4.22727H39.5093L43.4866 9.9517H43.5576V4.22727H44.4241ZM51.1579 6.5C51.0798 6.26089 50.9768 6.04664 50.849 5.85724C50.7235 5.66548 50.5732 5.50213 50.398 5.36719C50.2252 5.23224 50.0287 5.12926 49.8085 5.05824C49.5883 4.98722 49.3469 4.9517 49.0841 4.9517C48.6532 4.9517 48.2614 5.06297 47.9086 5.28551C47.5559 5.50805 47.2754 5.83594 47.067 6.26918C46.8587 6.70241 46.7545 7.2339 46.7545 7.86364C46.7545 8.49337 46.8599 9.02486 47.0706 9.4581C47.2813 9.89134 47.5666 10.2192 47.9264 10.4418C48.2863 10.6643 48.6911 10.7756 49.1409 10.7756C49.5576 10.7756 49.9245 10.6868 50.2417 10.5092C50.5613 10.3293 50.8099 10.076 50.9875 9.74929C51.1674 9.42022 51.2574 9.03314 51.2574 8.58807L51.5273 8.64489H49.3398V7.86364H52.1096V8.64489C52.1096 9.24384 51.9818 9.76468 51.7261 10.2074C51.4728 10.6501 51.1224 10.9934 50.675 11.2372C50.2299 11.4787 49.7185 11.5994 49.1409 11.5994C48.497 11.5994 47.9311 11.4479 47.4434 11.1449C46.9581 10.8419 46.5793 10.411 46.3071 9.85227C46.0372 9.29356 45.9023 8.63068 45.9023 7.86364C45.9023 7.28835 45.9792 6.77107 46.1331 6.31179C46.2893 5.85014 46.5095 5.45715 46.7936 5.13281C47.0777 4.80848 47.4139 4.5599 47.8021 4.38707C48.1904 4.21425 48.6177 4.12784 49.0841 4.12784C49.4676 4.12784 49.8251 4.18584 50.1565 4.30185C50.4903 4.41548 50.7874 4.57765 51.0479 4.78835C51.3106 4.99669 51.5296 5.24645 51.7048 5.53764C51.88 5.82647 52.0007 6.14725 52.067 6.5H51.1579Z" fill="var(--colors-neutral-neutral-800)"/>
</svg>
