<svg width="52" height="16" viewBox="0 0 52 16" fill="none" xmlns="http://www.w3.org/2000/svg">
<rect width="52" height="16" rx="8" fill="#B42318"/>
<path d="M10.3035 12V4.72727H14.6643V5.50852H11.1842V7.96591H14.3376V8.74716H11.1842V12H10.3035ZM15.5628 12H14.6395L17.3099 4.72727H18.219L20.8895 12H19.9662L17.7929 5.87784H17.7361L15.5628 12ZM15.9037 9.15909H19.6253V9.94034H15.9037V9.15909ZM22.903 4.72727V12H22.0223V4.72727H22.903ZM24.6688 12V4.72727H25.5494V11.2188H28.9301V12H24.6688ZM30.2938 12V4.72727H34.683V5.50852H31.1744V7.96591H34.4557V8.74716H31.1744V11.2188H34.7398V12H30.2938ZM38.5146 12H36.2703V4.72727H38.6141C39.3196 4.72727 39.9233 4.87287 40.4252 5.16406C40.9271 5.45289 41.3118 5.86837 41.5793 6.41051C41.8468 6.95028 41.9806 7.59659 41.9806 8.34943C41.9806 9.10701 41.8456 9.75923 41.5757 10.3061C41.3058 10.8506 40.9128 11.2696 40.3968 11.5632C39.8807 11.8544 39.2533 12 38.5146 12ZM37.151 11.2188H38.4578C39.0592 11.2188 39.5575 11.1027 39.9529 10.8707C40.3482 10.6387 40.643 10.3085 40.8371 9.87997C41.0312 9.45147 41.1283 8.94129 41.1283 8.34943C41.1283 7.76231 41.0324 7.25687 40.8406 6.8331C40.6489 6.40696 40.3624 6.08026 39.9813 5.85298C39.6001 5.62334 39.1254 5.50852 38.5573 5.50852H37.151V11.2188Z" fill="white"/>
</svg>
