<svg width="400" height="91" viewBox="0 0 400 91" fill="none" xmlns="http://www.w3.org/2000/svg">
<rect width="8" height="91" fill="var(--colors-primary-primary-700)"/>
<rect width="392" height="91" transform="translate(8)" fill="#D0E7FD"/>
<path d="M35.5 35.5H36.5V30H35.5V35.5ZM36 28.5769C36.1744 28.5769 36.3205 28.518 36.4385 28.4C36.5564 28.2821 36.6154 28.1359 36.6154 27.9615C36.6154 27.7872 36.5564 27.641 36.4385 27.5231C36.3205 27.4051 36.1744 27.3462 36 27.3462C35.8256 27.3462 35.6795 27.4051 35.5615 27.5231C35.4436 27.641 35.3846 27.7872 35.3846 27.9615C35.3846 28.1359 35.4436 28.2821 35.5615 28.4C35.6795 28.518 35.8256 28.5769 36 28.5769ZM36.0034 40C34.7588 40 33.5887 39.7638 32.4931 39.2915C31.3975 38.8192 30.4444 38.1782 29.634 37.3685C28.8235 36.5588 28.1819 35.6066 27.7091 34.512C27.2364 33.4174 27 32.2479 27 31.0033C27 29.7588 27.2362 28.5887 27.7085 27.4931C28.1808 26.3975 28.8218 25.4444 29.6315 24.634C30.4412 23.8235 31.3934 23.1819 32.488 22.7091C33.5826 22.2364 34.7521 22 35.9966 22C37.2412 22 38.4113 22.2362 39.5069 22.7085C40.6025 23.1808 41.5556 23.8218 42.366 24.6315C43.1765 25.4412 43.8181 26.3934 44.2908 27.488C44.7636 28.5826 45 29.7521 45 30.9967C45 32.2412 44.7638 33.4113 44.2915 34.5069C43.8192 35.6025 43.1782 36.5556 42.3685 37.366C41.5588 38.1765 40.6066 38.8181 39.512 39.2908C38.4174 39.7636 37.2479 40 36.0034 40ZM36 39C38.2333 39 40.125 38.225 41.675 36.675C43.225 35.125 44 33.2333 44 31C44 28.7667 43.225 26.875 41.675 25.325C40.125 23.775 38.2333 23 36 23C33.7667 23 31.875 23.775 30.325 25.325C28.775 26.875 28 28.7667 28 31C28 33.2333 28.775 35.125 30.325 36.675C31.875 38.225 33.7667 39 36 39Z" fill="var(--colors-neutral-neutral-800)"/>
<path d="M59.3977 28.8317V27.7273H65.2003V28.8317H62.9524V35H61.6456V28.8317H59.3977ZM67.5476 31.804V35H66.2621V27.7273H67.5192V30.4723H67.5831C67.7109 30.1645 67.9086 29.9219 68.1761 29.7443C68.446 29.5644 68.7893 29.4744 69.206 29.4744C69.5848 29.4744 69.915 29.5537 70.1967 29.7124C70.4785 29.871 70.6963 30.103 70.8501 30.4084C71.0064 30.7138 71.0845 31.0866 71.0845 31.527V35H69.799V31.7259C69.799 31.3589 69.7043 31.0736 69.5149 30.87C69.3279 30.6641 69.0651 30.5611 68.7266 30.5611C68.4993 30.5611 68.2957 30.6108 68.1158 30.7102C67.9382 30.8073 67.7985 30.9482 67.6967 31.1328C67.5973 31.3175 67.5476 31.5412 67.5476 31.804ZM74.8097 35.1065C74.2628 35.1065 73.7905 34.9929 73.3928 34.7656C72.9974 34.536 72.6932 34.2116 72.4801 33.7926C72.267 33.3712 72.1605 32.8752 72.1605 32.3047C72.1605 31.7436 72.267 31.2512 72.4801 30.8274C72.6955 30.4013 72.9962 30.0698 73.3821 29.8331C73.768 29.594 74.2214 29.4744 74.7422 29.4744C75.0784 29.4744 75.3956 29.5289 75.6939 29.6378C75.9946 29.7443 76.2597 29.91 76.4893 30.1349C76.7214 30.3598 76.9036 30.6463 77.0362 30.9943C77.1688 31.34 77.2351 31.7519 77.2351 32.2301V32.6243H72.7642V31.7578H76.0028C76.0005 31.5116 75.9472 31.2926 75.843 31.1009C75.7389 30.9067 75.5933 30.754 75.4062 30.6428C75.2216 30.5315 75.0062 30.4759 74.7599 30.4759C74.4972 30.4759 74.2663 30.5398 74.0675 30.6676C73.8686 30.7931 73.7135 30.9588 73.6023 31.1648C73.4934 31.3684 73.4377 31.5921 73.4354 31.8359V32.5923C73.4354 32.9096 73.4934 33.1818 73.6094 33.4091C73.7254 33.634 73.8875 33.8068 74.0959 33.9276C74.3042 34.0459 74.5481 34.1051 74.8274 34.1051C75.0144 34.1051 75.1837 34.0791 75.3352 34.027C75.4867 33.9725 75.6181 33.8932 75.7294 33.7891C75.8407 33.6849 75.9247 33.5559 75.9815 33.402L77.1818 33.5369C77.1061 33.8542 76.9616 34.1312 76.7486 34.3679C76.5379 34.6023 76.268 34.7846 75.9389 34.9148C75.6098 35.0426 75.2334 35.1065 74.8097 35.1065ZM83.5268 29.5455V30.5398H80.3912V29.5455H83.5268ZM81.1653 28.2386H82.4508V33.3594C82.4508 33.5322 82.4769 33.6648 82.5289 33.7571C82.5834 33.8471 82.6544 33.9086 82.742 33.9418C82.8296 33.9749 82.9267 33.9915 83.0332 33.9915C83.1137 33.9915 83.1871 33.9856 83.2534 33.9737C83.322 33.9619 83.3741 33.9512 83.4096 33.9418L83.6262 34.9467C83.5576 34.9704 83.4593 34.9964 83.3315 35.0249C83.206 35.0533 83.0521 35.0698 82.8699 35.0746C82.5479 35.084 82.2579 35.0355 81.9998 34.929C81.7418 34.8201 81.537 34.652 81.3855 34.4247C81.2363 34.1974 81.1629 33.9134 81.1653 33.5724V28.2386ZM84.6019 35V29.5455H85.8874V35H84.6019ZM85.2482 28.7713C85.0446 28.7713 84.8694 28.7038 84.7227 28.5689C84.5759 28.4316 84.5025 28.267 84.5025 28.0753C84.5025 27.8812 84.5759 27.7166 84.7227 27.5817C84.8694 27.4444 85.0446 27.3757 85.2482 27.3757C85.4542 27.3757 85.6294 27.4444 85.7738 27.5817C85.9206 27.7166 85.994 27.8812 85.994 28.0753C85.994 28.267 85.9206 28.4316 85.7738 28.5689C85.6294 28.7038 85.4542 28.7713 85.2482 28.7713ZM89.9331 29.5455V30.5398H86.7974V29.5455H89.9331ZM87.5716 28.2386H88.8571V33.3594C88.8571 33.5322 88.8831 33.6648 88.9352 33.7571C88.9896 33.8471 89.0607 33.9086 89.1483 33.9418C89.2359 33.9749 89.3329 33.9915 89.4395 33.9915C89.5199 33.9915 89.5933 33.9856 89.6596 33.9737C89.7283 33.9619 89.7804 33.9512 89.8159 33.9418L90.0325 34.9467C89.9638 34.9704 89.8656 34.9964 89.7377 35.0249C89.6123 35.0533 89.4584 35.0698 89.2761 35.0746C88.9541 35.084 88.6641 35.0355 88.4061 34.929C88.148 34.8201 87.9432 34.652 87.7917 34.4247C87.6426 34.1974 87.5692 33.9134 87.5716 33.5724V28.2386ZM92.4109 27.7273V35H91.1254V27.7273H92.4109ZM96.1475 35.1065C95.6007 35.1065 95.1284 34.9929 94.7306 34.7656C94.3353 34.536 94.0311 34.2116 93.818 33.7926C93.6049 33.3712 93.4984 32.8752 93.4984 32.3047C93.4984 31.7436 93.6049 31.2512 93.818 30.8274C94.0334 30.4013 94.3341 30.0698 94.72 29.8331C95.1059 29.594 95.5592 29.4744 96.0801 29.4744C96.4163 29.4744 96.7335 29.5289 97.0318 29.6378C97.3324 29.7443 97.5976 29.91 97.8272 30.1349C98.0592 30.3598 98.2415 30.6463 98.3741 30.9943C98.5067 31.34 98.573 31.7519 98.573 32.2301V32.6243H94.1021V31.7578H97.3407C97.3384 31.5116 97.2851 31.2926 97.1809 31.1009C97.0768 30.9067 96.9312 30.754 96.7441 30.6428C96.5595 30.5315 96.344 30.4759 96.0978 30.4759C95.835 30.4759 95.6042 30.5398 95.4054 30.6676C95.2065 30.7931 95.0514 30.9588 94.9402 31.1648C94.8313 31.3684 94.7756 31.5921 94.7733 31.8359V32.5923C94.7733 32.9096 94.8313 33.1818 94.9473 33.4091C95.0633 33.634 95.2254 33.8068 95.4338 33.9276C95.6421 34.0459 95.8859 34.1051 96.1653 34.1051C96.3523 34.1051 96.5216 34.0791 96.6731 34.027C96.8246 33.9725 96.956 33.8932 97.0673 33.7891C97.1786 33.6849 97.2626 33.5559 97.3194 33.402L98.5197 33.5369C98.444 33.8542 98.2995 34.1312 98.0865 34.3679C97.8758 34.6023 97.6059 34.7846 97.2768 34.9148C96.9477 35.0426 96.5713 35.1065 96.1475 35.1065ZM104.52 35.1065C103.988 35.1065 103.526 34.9893 103.135 34.755C102.745 34.5206 102.442 34.1927 102.226 33.7713C102.013 33.3499 101.907 32.8575 101.907 32.294C101.907 31.7306 102.013 31.237 102.226 30.8132C102.442 30.3894 102.745 30.0604 103.135 29.826C103.526 29.5916 103.988 29.4744 104.52 29.4744C105.053 29.4744 105.515 29.5916 105.905 29.826C106.296 30.0604 106.598 30.3894 106.811 30.8132C107.026 31.237 107.134 31.7306 107.134 32.294C107.134 32.8575 107.026 33.3499 106.811 33.7713C106.598 34.1927 106.296 34.5206 105.905 34.755C105.515 34.9893 105.053 35.1065 104.52 35.1065ZM104.527 34.0767C104.816 34.0767 105.058 33.9974 105.252 33.8388C105.446 33.6778 105.59 33.4624 105.685 33.1925C105.782 32.9226 105.831 32.6219 105.831 32.2905C105.831 31.9567 105.782 31.6548 105.685 31.3849C105.59 31.1127 105.446 30.8961 105.252 30.7351C105.058 30.5741 104.816 30.4936 104.527 30.4936C104.231 30.4936 103.985 30.5741 103.789 30.7351C103.595 30.8961 103.449 31.1127 103.352 31.3849C103.257 31.6548 103.21 31.9567 103.21 32.2905C103.21 32.6219 103.257 32.9226 103.352 33.1925C103.449 33.4624 103.595 33.6778 103.789 33.8388C103.985 33.9974 104.231 34.0767 104.527 34.0767ZM110.988 29.5455V30.5398H107.763V29.5455H110.988ZM108.569 35V29.0305C108.569 28.6636 108.645 28.3582 108.797 28.1143C108.951 27.8705 109.157 27.6882 109.415 27.5675C109.673 27.4467 109.959 27.3864 110.274 27.3864C110.497 27.3864 110.694 27.4041 110.867 27.4396C111.04 27.4751 111.168 27.5071 111.251 27.5355L110.995 28.5298C110.94 28.5133 110.872 28.4967 110.789 28.4801C110.706 28.4612 110.614 28.4517 110.512 28.4517C110.273 28.4517 110.104 28.5097 110.004 28.6257C109.907 28.7393 109.858 28.9027 109.858 29.1158V35H108.569ZM117.199 29.5455V30.5398H114.063V29.5455H117.199ZM114.837 28.2386H116.123V33.3594C116.123 33.5322 116.149 33.6648 116.201 33.7571C116.255 33.8471 116.326 33.9086 116.414 33.9418C116.501 33.9749 116.599 33.9915 116.705 33.9915C116.786 33.9915 116.859 33.9856 116.925 33.9737C116.994 33.9619 117.046 33.9512 117.081 33.9418L117.298 34.9467C117.229 34.9704 117.131 34.9964 117.003 35.0249C116.878 35.0533 116.724 35.0698 116.542 35.0746C116.22 35.084 115.93 35.0355 115.672 34.929C115.414 34.8201 115.209 34.652 115.057 34.4247C114.908 34.1974 114.835 33.9134 114.837 33.5724V28.2386ZM119.676 31.804V35H118.391V27.7273H119.648V30.4723H119.712C119.84 30.1645 120.038 29.9219 120.305 29.7443C120.575 29.5644 120.918 29.4744 121.335 29.4744C121.714 29.4744 122.044 29.5537 122.326 29.7124C122.607 29.871 122.825 30.103 122.979 30.4084C123.135 30.7138 123.213 31.0866 123.213 31.527V35H121.928V31.7259C121.928 31.3589 121.833 31.0736 121.644 30.87C121.457 30.6641 121.194 30.5611 120.855 30.5611C120.628 30.5611 120.425 30.6108 120.245 30.7102C120.067 30.8073 119.927 30.9482 119.826 31.1328C119.726 31.3175 119.676 31.5412 119.676 31.804ZM126.939 35.1065C126.392 35.1065 125.919 34.9929 125.522 34.7656C125.126 34.536 124.822 34.2116 124.609 33.7926C124.396 33.3712 124.289 32.8752 124.289 32.3047C124.289 31.7436 124.396 31.2512 124.609 30.8274C124.824 30.4013 125.125 30.0698 125.511 29.8331C125.897 29.594 126.35 29.4744 126.871 29.4744C127.207 29.4744 127.525 29.5289 127.823 29.6378C128.123 29.7443 128.389 29.91 128.618 30.1349C128.85 30.3598 129.033 30.6463 129.165 30.9943C129.298 31.34 129.364 31.7519 129.364 32.2301V32.6243H124.893V31.7578H128.132C128.129 31.5116 128.076 31.2926 127.972 31.1009C127.868 30.9067 127.722 30.754 127.535 30.6428C127.35 30.5315 127.135 30.4759 126.889 30.4759C126.626 30.4759 126.395 30.5398 126.196 30.6676C125.998 30.7931 125.842 30.9588 125.731 31.1648C125.622 31.3684 125.567 31.5921 125.564 31.8359V32.5923C125.564 32.9096 125.622 33.1818 125.738 33.4091C125.854 33.634 126.016 33.8068 126.225 33.9276C126.433 34.0459 126.677 34.1051 126.956 34.1051C127.143 34.1051 127.313 34.0791 127.464 34.027C127.616 33.9725 127.747 33.8932 127.858 33.7891C127.97 33.6849 128.054 33.5559 128.11 33.402L129.311 33.5369C129.235 33.8542 129.091 34.1312 128.877 34.3679C128.667 34.6023 128.397 34.7846 128.068 34.9148C127.739 35.0426 127.362 35.1065 126.939 35.1065ZM135.347 35.1065C134.8 35.1065 134.328 34.9929 133.93 34.7656C133.535 34.536 133.23 34.2116 133.017 33.7926C132.804 33.3712 132.698 32.8752 132.698 32.3047C132.698 31.7436 132.804 31.2512 133.017 30.8274C133.233 30.4013 133.533 30.0698 133.919 29.8331C134.305 29.594 134.758 29.4744 135.279 29.4744C135.615 29.4744 135.933 29.5289 136.231 29.6378C136.532 29.7443 136.797 29.91 137.026 30.1349C137.258 30.3598 137.441 30.6463 137.573 30.9943C137.706 31.34 137.772 31.7519 137.772 32.2301V32.6243H133.301V31.7578H136.54C136.538 31.5116 136.484 31.2926 136.38 31.1009C136.276 30.9067 136.13 30.754 135.943 30.6428C135.759 30.5315 135.543 30.4759 135.297 30.4759C135.034 30.4759 134.803 30.5398 134.605 30.6676C134.406 30.7931 134.251 30.9588 134.139 31.1648C134.03 31.3684 133.975 31.5921 133.972 31.8359V32.5923C133.972 32.9096 134.03 33.1818 134.146 33.4091C134.262 33.634 134.425 33.8068 134.633 33.9276C134.841 34.0459 135.085 34.1051 135.365 34.1051C135.552 34.1051 135.721 34.0791 135.872 34.027C136.024 33.9725 136.155 33.8932 136.267 33.7891C136.378 33.6849 136.462 33.5559 136.519 33.402L137.719 33.5369C137.643 33.8542 137.499 34.1312 137.286 34.3679C137.075 34.6023 136.805 34.7846 136.476 34.9148C136.147 35.0426 135.771 35.1065 135.347 35.1065ZM143.576 29.5455L141.633 35H140.213L138.27 29.5455H139.641L140.895 33.5973H140.951L142.208 29.5455H143.576ZM146.694 35.1065C146.148 35.1065 145.675 34.9929 145.278 34.7656C144.882 34.536 144.578 34.2116 144.365 33.7926C144.152 33.3712 144.045 32.8752 144.045 32.3047C144.045 31.7436 144.152 31.2512 144.365 30.8274C144.58 30.4013 144.881 30.0698 145.267 29.8331C145.653 29.594 146.106 29.4744 146.627 29.4744C146.963 29.4744 147.28 29.5289 147.579 29.6378C147.879 29.7443 148.144 29.91 148.374 30.1349C148.606 30.3598 148.788 30.6463 148.921 30.9943C149.054 31.34 149.12 31.7519 149.12 32.2301V32.6243H144.649V31.7578H147.888C147.885 31.5116 147.832 31.2926 147.728 31.1009C147.624 30.9067 147.478 30.754 147.291 30.6428C147.106 30.5315 146.891 30.4759 146.645 30.4759C146.382 30.4759 146.151 30.5398 145.952 30.6676C145.753 30.7931 145.598 30.9588 145.487 31.1648C145.378 31.3684 145.323 31.5921 145.32 31.8359V32.5923C145.32 32.9096 145.378 33.1818 145.494 33.4091C145.61 33.634 145.772 33.8068 145.981 33.9276C146.189 34.0459 146.433 34.1051 146.712 34.1051C146.899 34.1051 147.068 34.0791 147.22 34.027C147.372 33.9725 147.503 33.8932 147.614 33.7891C147.725 33.6849 147.809 33.5559 147.866 33.402L149.067 33.5369C148.991 33.8542 148.846 34.1312 148.633 34.3679C148.423 34.6023 148.153 34.7846 147.824 34.9148C147.495 35.0426 147.118 35.1065 146.694 35.1065ZM151.493 31.804V35H150.207V29.5455H151.436V30.4723H151.5C151.625 30.1669 151.826 29.9242 152.1 29.7443C152.377 29.5644 152.719 29.4744 153.126 29.4744C153.503 29.4744 153.831 29.5549 154.11 29.7159C154.392 29.8769 154.61 30.1101 154.763 30.4155C154.92 30.7209 154.997 31.0914 154.994 31.527V35H153.709V31.7259C153.709 31.3613 153.614 31.076 153.425 30.87C153.238 30.6641 152.978 30.5611 152.647 30.5611C152.422 30.5611 152.222 30.6108 152.047 30.7102C151.874 30.8073 151.738 30.9482 151.638 31.1328C151.541 31.3175 151.493 31.5412 151.493 31.804ZM159.025 29.5455V30.5398H155.889V29.5455H159.025ZM156.663 28.2386H157.949V33.3594C157.949 33.5322 157.975 33.6648 158.027 33.7571C158.081 33.8471 158.152 33.9086 158.24 33.9418C158.328 33.9749 158.425 33.9915 158.531 33.9915C158.612 33.9915 158.685 33.9856 158.751 33.9737C158.82 33.9619 158.872 33.9512 158.908 33.9418L159.124 34.9467C159.056 34.9704 158.957 34.9964 158.83 35.0249C158.704 35.0533 158.55 35.0698 158.368 35.0746C158.046 35.084 157.756 35.0355 157.498 34.929C157.24 34.8201 157.035 34.652 156.884 34.4247C156.734 34.1974 156.661 33.9134 156.663 33.5724V28.2386ZM160.892 35.0781C160.676 35.0781 160.492 35.0024 160.338 34.8509C160.184 34.6993 160.108 34.5147 160.111 34.2969C160.108 34.0838 160.184 33.9015 160.338 33.75C160.492 33.5985 160.676 33.5227 160.892 33.5227C161.1 33.5227 161.281 33.5985 161.435 33.75C161.591 33.9015 161.671 34.0838 161.673 34.2969C161.671 34.4413 161.633 34.5727 161.559 34.6911C161.488 34.8094 161.394 34.9041 161.275 34.9751C161.159 35.0438 161.032 35.0781 160.892 35.0781Z" fill="var(--colors-neutral-neutral-800)"/>
<path d="M366.4 37.3077L365.692 36.6L371.292 31L365.692 25.4L366.4 24.6923L372 30.2923L377.6 24.6923L378.308 25.4L372.708 31L378.308 36.6L377.6 37.3077L372 31.7077L366.4 37.3077Z" fill="var(--colors-neutral-neutral-800)"/>
<path d="M60.179 72H59.2557L61.9261 64.7273H62.8352L65.5057 72H64.5824L62.4091 65.8778H62.3523L60.179 72ZM60.5199 69.1591H64.2415V69.9403H60.5199V69.1591ZM71.397 72.1136C70.9425 72.1136 70.5412 71.9988 70.1932 71.7692C69.8452 71.5372 69.5729 71.2105 69.3764 70.7891C69.1799 70.3653 69.0817 69.8646 69.0817 69.2869C69.0817 68.714 69.1799 68.2169 69.3764 67.7955C69.5729 67.3741 69.8464 67.0485 70.1967 66.8189C70.5471 66.5893 70.9519 66.4744 71.4112 66.4744C71.7663 66.4744 72.0469 66.5336 72.2528 66.652C72.4612 66.768 72.6198 66.9006 72.7287 67.0497C72.84 67.1965 72.9264 67.3172 72.9879 67.4119H73.0589V64.7273H73.897V72H73.0874V71.1619H72.9879C72.9264 71.2614 72.8388 71.3868 72.7251 71.5384C72.6115 71.6875 72.4493 71.8213 72.2386 71.9396C72.0279 72.0556 71.7474 72.1136 71.397 72.1136ZM71.5107 71.3608C71.8468 71.3608 72.1309 71.2732 72.3629 71.098C72.5949 70.9205 72.7713 70.6754 72.892 70.3629C73.0128 70.0481 73.0732 69.6847 73.0732 69.2727C73.0732 68.8655 73.014 68.5092 72.8956 68.2038C72.7772 67.8961 72.602 67.657 72.37 67.4865C72.138 67.3137 71.8516 67.2273 71.5107 67.2273C71.1555 67.2273 70.8596 67.3184 70.6229 67.5007C70.3885 67.6806 70.2121 67.9257 70.0938 68.2358C69.9777 68.5436 69.9197 68.8892 69.9197 69.2727C69.9197 69.661 69.9789 70.0137 70.0973 70.331C70.218 70.6458 70.3956 70.8968 70.63 71.0838C70.8667 71.2685 71.1603 71.3608 71.5107 71.3608ZM77.8352 72.1136C77.3097 72.1136 76.8563 71.9976 76.4751 71.7656C76.0964 71.5312 75.804 71.2045 75.598 70.7855C75.3944 70.3641 75.2926 69.8741 75.2926 69.3153C75.2926 68.7566 75.3944 68.2642 75.598 67.8381C75.804 67.4096 76.0904 67.0758 76.4574 66.8366C76.8267 66.5952 77.2576 66.4744 77.75 66.4744C78.0341 66.4744 78.3146 66.5218 78.5916 66.6165C78.8686 66.7112 79.1207 66.8651 79.348 67.0781C79.5753 67.2888 79.7564 67.5682 79.8913 67.9162C80.0263 68.2642 80.0938 68.6927 80.0938 69.2017V69.5568H75.8892V68.8324H79.2415C79.2415 68.5246 79.1799 68.25 79.0568 68.0085C78.9361 67.767 78.7633 67.5765 78.5384 67.4368C78.3158 67.2971 78.053 67.2273 77.75 67.2273C77.4162 67.2273 77.1274 67.3101 76.8835 67.4759C76.642 67.6392 76.4562 67.8523 76.326 68.1151C76.1958 68.3778 76.1307 68.6596 76.1307 68.9602V69.4432C76.1307 69.8551 76.2017 70.2043 76.3438 70.4908C76.4882 70.7749 76.6882 70.9915 76.9439 71.1406C77.1996 71.2874 77.4967 71.3608 77.8352 71.3608C78.0554 71.3608 78.2543 71.33 78.4318 71.2685C78.6117 71.2045 78.7668 71.1098 78.897 70.9844C79.0272 70.8565 79.1278 70.6979 79.1989 70.5085L80.0085 70.7358C79.9233 71.0104 79.7801 71.2519 79.5788 71.4602C79.3776 71.6662 79.129 71.8272 78.8331 71.9432C78.5372 72.0568 78.2045 72.1136 77.8352 72.1136ZM83.7408 66.5455V67.2557H80.9141V66.5455H83.7408ZM81.7379 65.2386H82.576V70.4375C82.576 70.6742 82.6103 70.8518 82.679 70.9702C82.75 71.0862 82.84 71.1643 82.9489 71.2045C83.0601 71.2424 83.1773 71.2614 83.3004 71.2614C83.3928 71.2614 83.4685 71.2566 83.5277 71.2472C83.5869 71.2353 83.6342 71.2259 83.6697 71.2188L83.8402 71.9716C83.7834 71.9929 83.7041 72.0142 83.6023 72.0355C83.5005 72.0592 83.3714 72.071 83.2152 72.071C82.9785 72.071 82.7464 72.0201 82.5192 71.9183C82.2943 71.8165 82.1072 71.6615 81.9581 71.4531C81.8113 71.2448 81.7379 70.982 81.7379 70.6648V65.2386ZM86.6065 72.1278C86.2609 72.1278 85.9472 72.0627 85.6655 71.9325C85.3838 71.8 85.16 71.6094 84.9943 71.3608C84.8286 71.1098 84.7457 70.8068 84.7457 70.4517C84.7457 70.1392 84.8073 69.8859 84.9304 69.6918C85.0535 69.4953 85.218 69.3414 85.424 69.2301C85.63 69.1188 85.8572 69.036 86.1058 68.9815C86.3568 68.9247 86.6089 68.8797 86.8622 68.8466C87.1937 68.804 87.4624 68.772 87.6683 68.7507C87.8767 68.727 88.0282 68.688 88.1229 68.6335C88.2199 68.5791 88.2685 68.4844 88.2685 68.3494V68.321C88.2685 67.9706 88.1726 67.6984 87.9808 67.5043C87.7914 67.3101 87.5038 67.2131 87.1179 67.2131C86.7178 67.2131 86.4041 67.3007 86.1768 67.4759C85.9496 67.651 85.7898 67.8381 85.6974 68.0369L84.902 67.7528C85.044 67.4214 85.2334 67.1634 85.4702 66.9787C85.7093 66.7917 85.9697 66.6615 86.2514 66.5881C86.5355 66.5123 86.8149 66.4744 87.0895 66.4744C87.2647 66.4744 87.4659 66.4957 87.6932 66.5384C87.9228 66.5786 88.1442 66.6626 88.3572 66.7905C88.5727 66.9183 88.7514 67.1113 88.8935 67.3693C89.0355 67.6274 89.1065 67.973 89.1065 68.4062V72H88.2685V71.2614H88.2259C88.169 71.3797 88.0743 71.5064 87.9418 71.6413C87.8092 71.7763 87.6328 71.8911 87.4126 71.9858C87.1925 72.0805 86.9238 72.1278 86.6065 72.1278ZM86.7344 71.375C87.0658 71.375 87.3452 71.3099 87.5724 71.1797C87.8021 71.0495 87.9749 70.8814 88.0909 70.6754C88.2093 70.4695 88.2685 70.2528 88.2685 70.0256V69.2585C88.233 69.3011 88.1548 69.3402 88.0341 69.3757C87.9157 69.4089 87.7784 69.4384 87.6222 69.4645C87.4683 69.4882 87.3179 69.5095 87.1712 69.5284C87.0268 69.545 86.9096 69.5592 86.8196 69.571C86.6018 69.5994 86.3982 69.6456 86.2088 69.7095C86.0218 69.7711 85.8703 69.8646 85.7543 69.9901C85.6406 70.1132 85.5838 70.2812 85.5838 70.4943C85.5838 70.7855 85.6915 71.0057 85.907 71.1548C86.1248 71.3016 86.4006 71.375 86.7344 71.375ZM90.6362 72V66.5455H91.4743V72H90.6362ZM91.0623 65.6364C90.899 65.6364 90.7581 65.5807 90.6397 65.4695C90.5237 65.3582 90.4657 65.2244 90.4657 65.0682C90.4657 64.9119 90.5237 64.7782 90.6397 64.6669C90.7581 64.5556 90.899 64.5 91.0623 64.5C91.2257 64.5 91.3654 64.5556 91.4814 64.6669C91.5997 64.7782 91.6589 64.9119 91.6589 65.0682C91.6589 65.2244 91.5997 65.3582 91.4814 65.4695C91.3654 65.5807 91.2257 65.6364 91.0623 65.6364ZM93.8473 64.7273V72H93.0092V64.7273H93.8473ZM97.6692 72.1136C97.1436 72.1136 96.6903 71.9976 96.3091 71.7656C95.9303 71.5312 95.638 71.2045 95.432 70.7855C95.2284 70.3641 95.1266 69.8741 95.1266 69.3153C95.1266 68.7566 95.2284 68.2642 95.432 67.8381C95.638 67.4096 95.9244 67.0758 96.2914 66.8366C96.6607 66.5952 97.0916 66.4744 97.584 66.4744C97.8681 66.4744 98.1486 66.5218 98.4256 66.6165C98.7026 66.7112 98.9547 66.8651 99.182 67.0781C99.4093 67.2888 99.5904 67.5682 99.7253 67.9162C99.8603 68.2642 99.9277 68.6927 99.9277 69.2017V69.5568H95.7232V68.8324H99.0755C99.0755 68.5246 99.0139 68.25 98.8908 68.0085C98.7701 67.767 98.5972 67.5765 98.3723 67.4368C98.1498 67.2971 97.887 67.2273 97.584 67.2273C97.2502 67.2273 96.9614 67.3101 96.7175 67.4759C96.476 67.6392 96.2902 67.8523 96.16 68.1151C96.0298 68.3778 95.9647 68.6596 95.9647 68.9602V69.4432C95.9647 69.8551 96.0357 70.2043 96.1777 70.4908C96.3221 70.7749 96.5222 70.9915 96.7779 71.1406C97.0336 71.2874 97.3307 71.3608 97.6692 71.3608C97.8894 71.3608 98.0882 71.33 98.2658 71.2685C98.4457 71.2045 98.6008 71.1098 98.731 70.9844C98.8612 70.8565 98.9618 70.6979 99.0328 70.5085L99.8425 70.7358C99.7573 71.0104 99.6141 71.2519 99.4128 71.4602C99.2116 71.6662 98.963 71.8272 98.6671 71.9432C98.3712 72.0568 98.0385 72.1136 97.6692 72.1136ZM103.262 72.1136C102.808 72.1136 102.406 71.9988 102.058 71.7692C101.71 71.5372 101.438 71.2105 101.242 70.7891C101.045 70.3653 100.947 69.8646 100.947 69.2869C100.947 68.714 101.045 68.2169 101.242 67.7955C101.438 67.3741 101.712 67.0485 102.062 66.8189C102.412 66.5893 102.817 66.4744 103.276 66.4744C103.632 66.4744 103.912 66.5336 104.118 66.652C104.326 66.768 104.485 66.9006 104.594 67.0497C104.705 67.1965 104.792 67.3172 104.853 67.4119H104.924V64.7273H105.762V72H104.953V71.1619H104.853C104.792 71.2614 104.704 71.3868 104.59 71.5384C104.477 71.6875 104.315 71.8213 104.104 71.9396C103.893 72.0556 103.613 72.1136 103.262 72.1136ZM103.376 71.3608C103.712 71.3608 103.996 71.2732 104.228 71.098C104.46 70.9205 104.637 70.6754 104.757 70.3629C104.878 70.0481 104.938 69.6847 104.938 69.2727C104.938 68.8655 104.879 68.5092 104.761 68.2038C104.642 67.8961 104.467 67.657 104.235 67.4865C104.003 67.3137 103.717 67.2273 103.376 67.2273C103.021 67.2273 102.725 67.3184 102.488 67.5007C102.254 67.6806 102.077 67.9257 101.959 68.2358C101.843 68.5436 101.785 68.8892 101.785 69.2727C101.785 69.661 101.844 70.0137 101.963 70.331C102.083 70.6458 102.261 70.8968 102.495 71.0838C102.732 71.2685 103.026 71.3608 103.376 71.3608ZM112.286 72.1136C111.831 72.1136 111.43 71.9988 111.082 71.7692C110.734 71.5372 110.462 71.2105 110.265 70.7891C110.069 70.3653 109.97 69.8646 109.97 69.2869C109.97 68.714 110.069 68.2169 110.265 67.7955C110.462 67.3741 110.735 67.0485 111.085 66.8189C111.436 66.5893 111.841 66.4744 112.3 66.4744C112.655 66.4744 112.936 66.5336 113.142 66.652C113.35 66.768 113.508 66.9006 113.617 67.0497C113.729 67.1965 113.815 67.3172 113.877 67.4119H113.948V64.7273H114.786V72H113.976V71.1619H113.877C113.815 71.2614 113.727 71.3868 113.614 71.5384C113.5 71.6875 113.338 71.8213 113.127 71.9396C112.917 72.0556 112.636 72.1136 112.286 72.1136ZM112.399 71.3608C112.735 71.3608 113.02 71.2732 113.252 71.098C113.484 70.9205 113.66 70.6754 113.781 70.3629C113.901 70.0481 113.962 69.6847 113.962 69.2727C113.962 68.8655 113.903 68.5092 113.784 68.2038C113.666 67.8961 113.491 67.657 113.259 67.4865C113.027 67.3137 112.74 67.2273 112.399 67.2273C112.044 67.2273 111.748 67.3184 111.512 67.5007C111.277 67.6806 111.101 67.9257 110.982 68.2358C110.866 68.5436 110.808 68.8892 110.808 69.2727C110.808 69.661 110.868 70.0137 110.986 70.331C111.107 70.6458 111.284 70.8968 111.519 71.0838C111.755 71.2685 112.049 71.3608 112.399 71.3608ZM118.724 72.1136C118.198 72.1136 117.745 71.9976 117.364 71.7656C116.985 71.5312 116.693 71.2045 116.487 70.7855C116.283 70.3641 116.181 69.8741 116.181 69.3153C116.181 68.7566 116.283 68.2642 116.487 67.8381C116.693 67.4096 116.979 67.0758 117.346 66.8366C117.715 66.5952 118.146 66.4744 118.639 66.4744C118.923 66.4744 119.203 66.5218 119.48 66.6165C119.757 66.7112 120.009 66.8651 120.237 67.0781C120.464 67.2888 120.645 67.5682 120.78 67.9162C120.915 68.2642 120.982 68.6927 120.982 69.2017V69.5568H116.778V68.8324H120.13C120.13 68.5246 120.069 68.25 119.945 68.0085C119.825 67.767 119.652 67.5765 119.427 67.4368C119.204 67.2971 118.942 67.2273 118.639 67.2273C118.305 67.2273 118.016 67.3101 117.772 67.4759C117.531 67.6392 117.345 67.8523 117.215 68.1151C117.084 68.3778 117.019 68.6596 117.019 68.9602V69.4432C117.019 69.8551 117.09 70.2043 117.232 70.4908C117.377 70.7749 117.577 70.9915 117.833 71.1406C118.088 71.2874 118.385 71.3608 118.724 71.3608C118.944 71.3608 119.143 71.33 119.32 71.2685C119.5 71.2045 119.655 71.1098 119.786 70.9844C119.916 70.8565 120.017 70.6979 120.088 70.5085L120.897 70.7358C120.812 71.0104 120.669 71.2519 120.468 71.4602C120.266 71.6662 120.018 71.8272 119.722 71.9432C119.426 72.0568 119.093 72.1136 118.724 72.1136ZM126.121 67.767L125.368 67.9801C125.321 67.8546 125.251 67.7327 125.159 67.6143C125.069 67.4936 124.945 67.3942 124.789 67.3161C124.633 67.2379 124.433 67.1989 124.189 67.1989C123.855 67.1989 123.577 67.2758 123.355 67.4297C123.134 67.5812 123.024 67.7741 123.024 68.0085C123.024 68.2169 123.1 68.3814 123.252 68.5021C123.403 68.6229 123.64 68.7235 123.962 68.804L124.771 69.0028C125.259 69.1212 125.623 69.3023 125.862 69.5462C126.101 69.7876 126.22 70.099 126.22 70.4801C126.22 70.7926 126.13 71.072 125.95 71.3182C125.773 71.5644 125.524 71.7585 125.205 71.9006C124.885 72.0426 124.513 72.1136 124.09 72.1136C123.533 72.1136 123.073 71.9929 122.708 71.7514C122.344 71.5099 122.113 71.1572 122.016 70.6932L122.811 70.4943C122.887 70.7879 123.03 71.008 123.241 71.1548C123.454 71.3016 123.732 71.375 124.075 71.375C124.466 71.375 124.776 71.2921 125.006 71.1264C125.238 70.9583 125.354 70.7571 125.354 70.5227C125.354 70.3333 125.288 70.1747 125.155 70.0469C125.022 69.9167 124.819 69.8196 124.544 69.7557L123.635 69.5426C123.136 69.4242 122.769 69.2408 122.534 68.9922C122.302 68.7412 122.186 68.4276 122.186 68.0511C122.186 67.7434 122.273 67.4711 122.445 67.2344C122.621 66.9976 122.859 66.8118 123.159 66.6768C123.462 66.5419 123.806 66.4744 124.189 66.4744C124.729 66.4744 125.153 66.5928 125.46 66.8295C125.771 67.0663 125.991 67.3788 126.121 67.767ZM129.698 72.1136C129.186 72.1136 128.746 71.9929 128.377 71.7514C128.007 71.5099 127.723 71.1773 127.525 70.7536C127.326 70.3298 127.226 69.8456 127.226 69.3011C127.226 68.7472 127.328 68.2583 127.532 67.8345C127.738 67.4084 128.024 67.0758 128.391 66.8366C128.76 66.5952 129.191 66.4744 129.684 66.4744C130.067 66.4744 130.413 66.5455 130.721 66.6875C131.028 66.8295 131.28 67.0284 131.477 67.2841C131.673 67.5398 131.795 67.8381 131.843 68.179H131.005C130.941 67.9304 130.799 67.7102 130.578 67.5185C130.361 67.3243 130.067 67.2273 129.698 67.2273C129.371 67.2273 129.085 67.3125 128.838 67.483C128.595 67.651 128.404 67.889 128.267 68.1967C128.132 68.5021 128.064 68.8608 128.064 69.2727C128.064 69.6941 128.131 70.0611 128.263 70.3736C128.398 70.6861 128.587 70.9287 128.831 71.1016C129.078 71.2744 129.366 71.3608 129.698 71.3608C129.916 71.3608 130.113 71.3229 130.291 71.2472C130.468 71.1714 130.619 71.0625 130.742 70.9205C130.865 70.7784 130.953 70.608 131.005 70.4091H131.843C131.795 70.7311 131.678 71.0211 131.491 71.2791C131.306 71.5348 131.061 71.7384 130.756 71.8899C130.453 72.0391 130.1 72.1136 129.698 72.1136ZM133.068 72V66.5455H133.877V67.3693H133.934C134.034 67.0994 134.214 66.8804 134.474 66.7124C134.734 66.5443 135.028 66.4602 135.355 66.4602C135.416 66.4602 135.493 66.4614 135.586 66.4638C135.678 66.4661 135.748 66.4697 135.795 66.4744V67.3267C135.767 67.3196 135.702 67.3089 135.6 67.2947C135.5 67.2782 135.395 67.2699 135.284 67.2699C135.019 67.2699 134.782 67.3255 134.574 67.4368C134.368 67.5457 134.204 67.6972 134.083 67.8913C133.965 68.0831 133.906 68.3021 133.906 68.5483V72H133.068ZM136.789 72V66.5455H137.627V72H136.789ZM137.215 65.6364C137.051 65.6364 136.91 65.5807 136.792 65.4695C136.676 65.3582 136.618 65.2244 136.618 65.0682C136.618 64.9119 136.676 64.7782 136.792 64.6669C136.91 64.5556 137.051 64.5 137.215 64.5C137.378 64.5 137.518 64.5556 137.634 64.6669C137.752 64.7782 137.811 64.9119 137.811 65.0682C137.811 65.2244 137.752 65.3582 137.634 65.4695C137.518 65.5807 137.378 65.6364 137.215 65.6364ZM139.162 74.0455V66.5455H139.971V67.4119H140.071C140.132 67.3172 140.217 67.1965 140.326 67.0497C140.438 66.9006 140.596 66.768 140.802 66.652C141.011 66.5336 141.292 66.4744 141.647 66.4744C142.107 66.4744 142.511 66.5893 142.862 66.8189C143.212 67.0485 143.486 67.3741 143.682 67.7955C143.879 68.2169 143.977 68.714 143.977 69.2869C143.977 69.8646 143.879 70.3653 143.682 70.7891C143.486 71.2105 143.213 71.5372 142.865 71.7692C142.517 71.9988 142.116 72.1136 141.662 72.1136C141.311 72.1136 141.031 72.0556 140.82 71.9396C140.609 71.8213 140.447 71.6875 140.333 71.5384C140.22 71.3868 140.132 71.2614 140.071 71.1619H140V74.0455H139.162ZM139.985 69.2727C139.985 69.6847 140.046 70.0481 140.167 70.3629C140.287 70.6754 140.464 70.9205 140.696 71.098C140.928 71.2732 141.212 71.3608 141.548 71.3608C141.898 71.3608 142.191 71.2685 142.425 71.0838C142.662 70.8968 142.839 70.6458 142.958 70.331C143.078 70.0137 143.139 69.661 143.139 69.2727C143.139 68.8892 143.08 68.5436 142.961 68.2358C142.845 67.9257 142.669 67.6806 142.432 67.5007C142.198 67.3184 141.903 67.2273 141.548 67.2273C141.207 67.2273 140.921 67.3137 140.689 67.4865C140.457 67.657 140.281 67.8961 140.163 68.2038C140.045 68.5092 139.985 68.8655 139.985 69.2727ZM147.627 66.5455V67.2557H144.801V66.5455H147.627ZM145.625 65.2386H146.463V70.4375C146.463 70.6742 146.497 70.8518 146.566 70.9702C146.637 71.0862 146.727 71.1643 146.836 71.2045C146.947 71.2424 147.064 71.2614 147.187 71.2614C147.279 71.2614 147.355 71.2566 147.414 71.2472C147.474 71.2353 147.521 71.2259 147.556 71.2188L147.727 71.9716C147.67 71.9929 147.591 72.0142 147.489 72.0355C147.387 72.0592 147.258 72.071 147.102 72.071C146.865 72.071 146.633 72.0201 146.406 71.9183C146.181 71.8165 145.994 71.6615 145.845 71.4531C145.698 71.2448 145.625 70.982 145.625 70.6648V65.2386ZM148.888 72V66.5455H149.726V72H148.888ZM149.314 65.6364C149.151 65.6364 149.01 65.5807 148.892 65.4695C148.776 65.3582 148.718 65.2244 148.718 65.0682C148.718 64.9119 148.776 64.7782 148.892 64.6669C149.01 64.5556 149.151 64.5 149.314 64.5C149.478 64.5 149.617 64.5556 149.733 64.6669C149.852 64.7782 149.911 64.9119 149.911 65.0682C149.911 65.2244 149.852 65.3582 149.733 65.4695C149.617 65.5807 149.478 65.6364 149.314 65.6364ZM153.477 72.1136C152.985 72.1136 152.553 71.9964 152.181 71.7621C151.812 71.5277 151.523 71.1998 151.314 70.7784C151.108 70.357 151.006 69.8646 151.006 69.3011C151.006 68.733 151.108 68.237 151.314 67.8132C151.523 67.3894 151.812 67.0604 152.181 66.826C152.553 66.5916 152.985 66.4744 153.477 66.4744C153.97 66.4744 154.4 66.5916 154.77 66.826C155.141 67.0604 155.43 67.3894 155.636 67.8132C155.845 68.237 155.949 68.733 155.949 69.3011C155.949 69.8646 155.845 70.357 155.636 70.7784C155.43 71.1998 155.141 71.5277 154.77 71.7621C154.4 71.9964 153.97 72.1136 153.477 72.1136ZM153.477 71.3608C153.851 71.3608 154.159 71.2649 154.4 71.0732C154.642 70.8814 154.821 70.6293 154.937 70.3168C155.053 70.0043 155.111 69.6657 155.111 69.3011C155.111 68.9366 155.053 68.5968 154.937 68.282C154.821 67.9671 154.642 67.7126 154.4 67.5185C154.159 67.3243 153.851 67.2273 153.477 67.2273C153.103 67.2273 152.795 67.3243 152.554 67.5185C152.312 67.7126 152.134 67.9671 152.018 68.282C151.902 68.5968 151.844 68.9366 151.844 69.3011C151.844 69.6657 151.902 70.0043 152.018 70.3168C152.134 70.6293 152.312 70.8814 152.554 71.0732C152.795 71.2649 153.103 71.3608 153.477 71.3608ZM158.066 68.7188V72H157.228V66.5455H158.038V67.3977H158.109C158.237 67.1207 158.431 66.8982 158.691 66.7301C158.951 66.5597 159.288 66.4744 159.7 66.4744C160.069 66.4744 160.392 66.5502 160.669 66.7017C160.946 66.8509 161.161 67.0781 161.315 67.3835C161.469 67.6866 161.546 68.0701 161.546 68.5341V72H160.708V68.5909C160.708 68.1624 160.597 67.8286 160.374 67.5895C160.152 67.348 159.846 67.2273 159.458 67.2273C159.191 67.2273 158.951 67.2853 158.741 67.4013C158.532 67.5173 158.368 67.6866 158.247 67.9091C158.126 68.1316 158.066 68.4015 158.066 68.7188ZM168.106 72.1136C167.614 72.1136 167.182 71.9964 166.81 71.7621C166.441 71.5277 166.152 71.1998 165.943 70.7784C165.737 70.357 165.634 69.8646 165.634 69.3011C165.634 68.733 165.737 68.237 165.943 67.8132C166.152 67.3894 166.441 67.0604 166.81 66.826C167.182 66.5916 167.614 66.4744 168.106 66.4744C168.598 66.4744 169.029 66.5916 169.399 66.826C169.77 67.0604 170.059 67.3894 170.265 67.8132C170.473 68.237 170.578 68.733 170.578 69.3011C170.578 69.8646 170.473 70.357 170.265 70.7784C170.059 71.1998 169.77 71.5277 169.399 71.7621C169.029 71.9964 168.598 72.1136 168.106 72.1136ZM168.106 71.3608C168.48 71.3608 168.788 71.2649 169.029 71.0732C169.271 70.8814 169.45 70.6293 169.566 70.3168C169.682 70.0043 169.74 69.6657 169.74 69.3011C169.74 68.9366 169.682 68.5968 169.566 68.282C169.45 67.9671 169.271 67.7126 169.029 67.5185C168.788 67.3243 168.48 67.2273 168.106 67.2273C167.732 67.2273 167.424 67.3243 167.183 67.5185C166.941 67.7126 166.762 67.9671 166.646 68.282C166.53 68.5968 166.472 68.9366 166.472 69.3011C166.472 69.6657 166.53 70.0043 166.646 70.3168C166.762 70.6293 166.941 70.8814 167.183 71.0732C167.424 71.2649 167.732 71.3608 168.106 71.3608ZM174.286 66.5455V67.2557H171.346V66.5455H174.286ZM172.226 72V65.7926C172.226 65.4801 172.3 65.2197 172.446 65.0114C172.593 64.803 172.784 64.6468 173.018 64.5426C173.252 64.4384 173.5 64.3864 173.76 64.3864C173.966 64.3864 174.134 64.4029 174.265 64.4361C174.395 64.4692 174.492 64.5 174.556 64.5284L174.314 65.2528C174.272 65.2386 174.212 65.2209 174.137 65.1996C174.063 65.1783 173.966 65.1676 173.846 65.1676C173.569 65.1676 173.368 65.2375 173.245 65.3771C173.125 65.5168 173.064 65.7216 173.064 65.9915V72H172.226ZM180.645 66.5455V67.2557H177.818V66.5455H180.645ZM178.642 65.2386H179.48V70.4375C179.48 70.6742 179.515 70.8518 179.583 70.9702C179.654 71.0862 179.744 71.1643 179.853 71.2045C179.964 71.2424 180.082 71.2614 180.205 71.2614C180.297 71.2614 180.373 71.2566 180.432 71.2472C180.491 71.2353 180.539 71.2259 180.574 71.2188L180.744 71.9716C180.688 71.9929 180.608 72.0142 180.507 72.0355C180.405 72.0592 180.276 72.071 180.119 72.071C179.883 72.071 179.651 72.0201 179.423 71.9183C179.199 71.8165 179.012 71.6615 178.862 71.4531C178.716 71.2448 178.642 70.982 178.642 70.6648V65.2386ZM182.861 68.7188V72H182.023V64.7273H182.861V67.3977H182.932C183.06 67.116 183.252 66.8923 183.507 66.7266C183.765 66.5585 184.109 66.4744 184.537 66.4744C184.909 66.4744 185.234 66.549 185.514 66.6982C185.793 66.8449 186.01 67.071 186.164 67.3764C186.32 67.6795 186.398 68.0653 186.398 68.5341V72H185.56V68.5909C185.56 68.1577 185.447 67.8227 185.222 67.5859C185 67.3468 184.691 67.2273 184.296 67.2273C184.021 67.2273 183.775 67.2853 183.557 67.4013C183.342 67.5173 183.171 67.6866 183.046 67.9091C182.923 68.1316 182.861 68.4015 182.861 68.7188ZM190.218 72.1136C189.692 72.1136 189.239 71.9976 188.858 71.7656C188.479 71.5312 188.187 71.2045 187.981 70.7855C187.777 70.3641 187.675 69.8741 187.675 69.3153C187.675 68.7566 187.777 68.2642 187.981 67.8381C188.187 67.4096 188.473 67.0758 188.84 66.8366C189.21 66.5952 189.64 66.4744 190.133 66.4744C190.417 66.4744 190.697 66.5218 190.974 66.6165C191.251 66.7112 191.504 66.8651 191.731 67.0781C191.958 67.2888 192.139 67.5682 192.274 67.9162C192.409 68.2642 192.477 68.6927 192.477 69.2017V69.5568H188.272V68.8324H191.624C191.624 68.5246 191.563 68.25 191.44 68.0085C191.319 67.767 191.146 67.5765 190.921 67.4368C190.699 67.2971 190.436 67.2273 190.133 67.2273C189.799 67.2273 189.51 67.3101 189.266 67.4759C189.025 67.6392 188.839 67.8523 188.709 68.1151C188.579 68.3778 188.513 68.6596 188.513 68.9602V69.4432C188.513 69.8551 188.585 70.2043 188.727 70.4908C188.871 70.7749 189.071 70.9915 189.327 71.1406C189.582 71.2874 189.879 71.3608 190.218 71.3608C190.438 71.3608 190.637 71.33 190.815 71.2685C190.995 71.2045 191.15 71.1098 191.28 70.9844C191.41 70.8565 191.511 70.6979 191.582 70.5085L192.391 70.7358C192.306 71.0104 192.163 71.2519 191.962 71.4602C191.76 71.6662 191.512 71.8272 191.216 71.9432C190.92 72.0568 190.587 72.1136 190.218 72.1136ZM198.851 72.1136C198.325 72.1136 197.872 71.9976 197.491 71.7656C197.112 71.5312 196.82 71.2045 196.614 70.7855C196.41 70.3641 196.308 69.8741 196.308 69.3153C196.308 68.7566 196.41 68.2642 196.614 67.8381C196.82 67.4096 197.106 67.0758 197.473 66.8366C197.842 66.5952 198.273 66.4744 198.766 66.4744C199.05 66.4744 199.33 66.5218 199.607 66.6165C199.884 66.7112 200.136 66.8651 200.364 67.0781C200.591 67.2888 200.772 67.5682 200.907 67.9162C201.042 68.2642 201.109 68.6927 201.109 69.2017V69.5568H196.905V68.8324H200.257C200.257 68.5246 200.196 68.25 200.072 68.0085C199.952 67.767 199.779 67.5765 199.554 67.4368C199.331 67.2971 199.069 67.2273 198.766 67.2273C198.432 67.2273 198.143 67.3101 197.899 67.4759C197.658 67.6392 197.472 67.8523 197.342 68.1151C197.211 68.3778 197.146 68.6596 197.146 68.9602V69.4432C197.146 69.8551 197.217 70.2043 197.359 70.4908C197.504 70.7749 197.704 70.9915 197.96 71.1406C198.215 71.2874 198.512 71.3608 198.851 71.3608C199.071 71.3608 199.27 71.33 199.447 71.2685C199.627 71.2045 199.782 71.1098 199.913 70.9844C200.043 70.8565 200.143 70.6979 200.214 70.5085L201.024 70.7358C200.939 71.0104 200.796 71.2519 200.594 71.4602C200.393 71.6662 200.145 71.8272 199.849 71.9432C199.553 72.0568 199.22 72.1136 198.851 72.1136ZM206.678 66.5455L204.661 72H203.809L201.792 66.5455H202.701L204.207 70.892H204.264L205.769 66.5455H206.678ZM209.876 72.1136C209.351 72.1136 208.897 71.9976 208.516 71.7656C208.137 71.5312 207.845 71.2045 207.639 70.7855C207.435 70.3641 207.334 69.8741 207.334 69.3153C207.334 68.7566 207.435 68.2642 207.639 67.8381C207.845 67.4096 208.131 67.0758 208.498 66.8366C208.868 66.5952 209.299 66.4744 209.791 66.4744C210.075 66.4744 210.356 66.5218 210.633 66.6165C210.91 66.7112 211.162 66.8651 211.389 67.0781C211.616 67.2888 211.797 67.5682 211.932 67.9162C212.067 68.2642 212.135 68.6927 212.135 69.2017V69.5568H207.93V68.8324H211.282C211.282 68.5246 211.221 68.25 211.098 68.0085C210.977 67.767 210.804 67.5765 210.579 67.4368C210.357 67.2971 210.094 67.2273 209.791 67.2273C209.457 67.2273 209.168 67.3101 208.925 67.4759C208.683 67.6392 208.497 67.8523 208.367 68.1151C208.237 68.3778 208.172 68.6596 208.172 68.9602V69.4432C208.172 69.8551 208.243 70.2043 208.385 70.4908C208.529 70.7749 208.729 70.9915 208.985 71.1406C209.241 71.2874 209.538 71.3608 209.876 71.3608C210.096 71.3608 210.295 71.33 210.473 71.2685C210.653 71.2045 210.808 71.1098 210.938 70.9844C211.068 70.8565 211.169 70.6979 211.24 70.5085L212.05 70.7358C211.964 71.0104 211.821 71.2519 211.62 71.4602C211.419 71.6662 211.17 71.8272 210.874 71.9432C210.578 72.0568 210.246 72.1136 209.876 72.1136ZM214.248 68.7188V72H213.41V66.5455H214.219V67.3977H214.29C214.418 67.1207 214.612 66.8982 214.873 66.7301C215.133 66.5597 215.469 66.4744 215.881 66.4744C216.251 66.4744 216.574 66.5502 216.851 66.7017C217.128 66.8509 217.343 67.0781 217.497 67.3835C217.651 67.6866 217.728 68.0701 217.728 68.5341V72H216.89V68.5909C216.89 68.1624 216.778 67.8286 216.556 67.5895C216.333 67.348 216.028 67.2273 215.64 67.2273C215.372 67.2273 215.133 67.2853 214.922 67.4013C214.714 67.5173 214.55 67.6866 214.429 67.9091C214.308 68.1316 214.248 68.4015 214.248 68.7188ZM221.631 66.5455V67.2557H218.805V66.5455H221.631ZM219.629 65.2386H220.467V70.4375C220.467 70.6742 220.501 70.8518 220.57 70.9702C220.641 71.0862 220.731 71.1643 220.839 71.2045C220.951 71.2424 221.068 71.2614 221.191 71.2614C221.283 71.2614 221.359 71.2566 221.418 71.2472C221.478 71.2353 221.525 71.2259 221.56 71.2188L221.731 71.9716C221.674 71.9929 221.595 72.0142 221.493 72.0355C221.391 72.0592 221.262 72.071 221.106 72.071C220.869 72.071 220.637 72.0201 220.41 71.9183C220.185 71.8165 219.998 71.6615 219.849 71.4531C219.702 71.2448 219.629 70.982 219.629 70.6648V65.2386ZM223.503 72.0568C223.328 72.0568 223.177 71.9941 223.052 71.8686C222.926 71.7431 222.864 71.5928 222.864 71.4176C222.864 71.2424 222.926 71.0921 223.052 70.9666C223.177 70.8411 223.328 70.7784 223.503 70.7784C223.678 70.7784 223.828 70.8411 223.954 70.9666C224.079 71.0921 224.142 71.2424 224.142 71.4176C224.142 71.5336 224.112 71.6402 224.053 71.7372C223.996 71.8343 223.92 71.9124 223.822 71.9716C223.728 72.0284 223.621 72.0568 223.503 72.0568Z" fill="var(--colors-neutral-neutral-800)"/>
</svg>
