<svg width="288" height="32" viewBox="0 0 288 32" fill="none" xmlns="http://www.w3.org/2000/svg">
<path d="M1.1 20V13.02H2.16V19.1H5.82V20H1.1ZM11.1939 20L11.1539 18.75V16.4C11.1539 16.0067 11.0239 15.7 10.7639 15.48C10.5106 15.2533 10.1606 15.14 9.71391 15.14C9.28057 15.14 8.92724 15.24 8.65391 15.44C8.38057 15.6333 8.23057 15.9033 8.20391 16.25H7.21391C7.24724 15.8567 7.37391 15.5233 7.59391 15.25C7.81391 14.97 8.10724 14.7567 8.47391 14.61C8.84057 14.4567 9.26391 14.38 9.74391 14.38C10.2372 14.38 10.6639 14.4633 11.0239 14.63C11.3839 14.79 11.6606 15.0233 11.8539 15.33C12.0539 15.6367 12.1539 16.01 12.1539 16.45V20H11.1939ZM9.20391 20.12C8.84391 20.12 8.52724 20.0567 8.25391 19.93C7.98057 19.7967 7.76724 19.61 7.61391 19.37C7.46057 19.1233 7.38391 18.8367 7.38391 18.51C7.38391 17.9433 7.60057 17.5033 8.03391 17.19C8.47391 16.8767 9.08724 16.72 9.87391 16.72H11.2839V17.47H9.83391C9.38057 17.47 9.02391 17.5567 8.76391 17.73C8.51057 17.9033 8.38391 18.1467 8.38391 18.46C8.38391 18.72 8.47391 18.9233 8.65391 19.07C8.84057 19.2167 9.09057 19.29 9.40391 19.29C9.80391 19.29 10.1572 19.1833 10.4639 18.97C10.7772 18.75 11.0306 18.45 11.2239 18.07L11.3339 18.81C11.1606 19.23 10.8939 19.5533 10.5339 19.78C10.1739 20.0067 9.73057 20.12 9.20391 20.12ZM16.5878 14.38C17.0811 14.38 17.5111 14.5033 17.8778 14.75C18.2511 14.99 18.5445 15.3267 18.7578 15.76C18.9711 16.1933 19.0778 16.69 19.0778 17.25C19.0778 17.8033 18.9711 18.2967 18.7578 18.73C18.5445 19.1633 18.2511 19.5033 17.8778 19.75C17.5111 19.9967 17.0811 20.12 16.5878 20.12C16.2078 20.12 15.8578 20.04 15.5378 19.88C15.2245 19.7133 14.9711 19.4967 14.7778 19.23L14.7478 20H13.7878V12.65H14.7978V15.23C14.9911 14.9633 15.2445 14.7567 15.5578 14.61C15.8711 14.4567 16.2145 14.38 16.5878 14.38ZM16.3678 19.27C16.7078 19.27 17.0045 19.1833 17.2578 19.01C17.5111 18.8367 17.7078 18.6 17.8478 18.3C17.9878 17.9933 18.0578 17.6433 18.0578 17.25C18.0578 16.85 17.9878 16.5 17.8478 16.2C17.7078 15.8933 17.5111 15.6567 17.2578 15.49C17.0045 15.3167 16.7078 15.23 16.3678 15.23C16.0145 15.23 15.6978 15.33 15.4178 15.53C15.1378 15.7233 14.9311 15.9967 14.7978 16.35V18.14C14.9311 18.4867 15.1378 18.7633 15.4178 18.97C15.6978 19.17 16.0145 19.27 16.3678 19.27ZM22.8217 20.12C22.2551 20.12 21.7651 20.0067 21.3517 19.78C20.9384 19.5467 20.6217 19.2167 20.4017 18.79C20.1817 18.3567 20.0717 17.84 20.0717 17.24C20.0717 16.64 20.1817 16.1267 20.4017 15.7C20.6284 15.2733 20.9484 14.9467 21.3617 14.72C21.7817 14.4933 22.2817 14.38 22.8617 14.38C23.7484 14.38 24.4084 14.6267 24.8417 15.12C25.2751 15.6067 25.4651 16.2767 25.4117 17.13H20.8717L20.8817 16.37L24.3817 16.38C24.3551 16.0267 24.2017 15.7433 23.9217 15.53C23.6417 15.3167 23.2884 15.21 22.8617 15.21C22.2884 15.21 21.8484 15.39 21.5417 15.75C21.2351 16.11 21.0817 16.62 21.0817 17.28C21.0817 17.6733 21.1484 18.0233 21.2817 18.33C21.4217 18.63 21.6217 18.8633 21.8817 19.03C22.1417 19.1967 22.4551 19.28 22.8217 19.28C23.2551 19.28 23.6151 19.1767 23.9017 18.97C24.1951 18.7633 24.3751 18.4833 24.4417 18.13H25.4517C25.3651 18.75 25.0884 19.2367 24.6217 19.59C24.1551 19.9433 23.5551 20.12 22.8217 20.12ZM28.7656 20V12.65H29.7756V20H28.7656ZM26.7356 20V19.18H31.8156V20H26.7356ZM27.4656 13.47V12.65H29.2656V13.47H27.4656Z" fill="var(--colors-neutral-neutral-800)"/>
<rect width="88" height="32" transform="translate(104)" fill="var(--colors-neutral-neutral-300)"/>
<path d="M111.596 24V16.5H107V15.5H111.596V8H113.635V15.5H118.365V11H120.404V15.5H125V16.5H120.404V21H118.365V16.5H113.635V24H111.596Z" fill="var(--colors-neutral-neutral-700)"/>
<path d="M142.273 13.4545L139.852 20H138.83L136.409 13.4545H137.5L139.307 18.6705H139.375L141.182 13.4545H142.273ZM145.327 20.1534C144.912 20.1534 144.536 20.0753 144.198 19.919C143.86 19.7599 143.591 19.5312 143.392 19.233C143.194 18.9318 143.094 18.5682 143.094 18.142C143.094 17.767 143.168 17.4631 143.316 17.2301C143.463 16.9943 143.661 16.8097 143.908 16.6761C144.155 16.5426 144.428 16.4432 144.726 16.3778C145.027 16.3097 145.33 16.2557 145.634 16.2159C146.032 16.1648 146.354 16.1264 146.601 16.1009C146.851 16.0724 147.033 16.0256 147.147 15.9602C147.263 15.8949 147.321 15.7812 147.321 15.6193V15.5852C147.321 15.1648 147.206 14.8381 146.976 14.6051C146.749 14.3722 146.404 14.2557 145.941 14.2557C145.461 14.2557 145.084 14.3608 144.811 14.571C144.539 14.7812 144.347 15.0057 144.236 15.2443L143.282 14.9034C143.452 14.5057 143.679 14.196 143.963 13.9744C144.25 13.75 144.563 13.5937 144.901 13.5057C145.242 13.4148 145.577 13.3693 145.907 13.3693C146.117 13.3693 146.358 13.3949 146.631 13.446C146.907 13.4943 147.172 13.5952 147.428 13.7486C147.686 13.902 147.901 14.1335 148.071 14.4432C148.242 14.7528 148.327 15.1676 148.327 15.6875V20H147.321V19.1136H147.27C147.202 19.2557 147.088 19.4077 146.929 19.5696C146.77 19.7315 146.559 19.8693 146.294 19.983C146.03 20.0966 145.708 20.1534 145.327 20.1534ZM145.48 19.25C145.878 19.25 146.213 19.1719 146.486 19.0156C146.762 18.8594 146.969 18.6577 147.108 18.4105C147.25 18.1634 147.321 17.9034 147.321 17.6307V16.7102C147.279 16.7614 147.185 16.8082 147.04 16.8509C146.898 16.8906 146.733 16.9261 146.546 16.9574C146.361 16.9858 146.181 17.0114 146.005 17.0341C145.831 17.054 145.691 17.071 145.583 17.0852C145.321 17.1193 145.077 17.1747 144.85 17.2514C144.625 17.3253 144.444 17.4375 144.304 17.5881C144.168 17.7358 144.1 17.9375 144.1 18.1932C144.1 18.5426 144.229 18.8068 144.488 18.9858C144.749 19.1619 145.08 19.25 145.48 19.25ZM151.168 11.2727V20H150.163V11.2727H151.168Z" fill="var(--colors-neutral-neutral-800)"/>
<rect width="88" height="32" transform="translate(200)" fill="var(--colors-neutral-neutral-300)"/>
<path d="M207.596 24V16.5H203V15.5H207.596V8H209.635V15.5H214.365V11H216.404V15.5H221V16.5H216.404V21H214.365V16.5H209.635V24H207.596Z" fill="var(--colors-neutral-neutral-700)"/>
<path d="M238.273 13.4545L235.852 20H234.83L232.409 13.4545H233.5L235.307 18.6705H235.375L237.182 13.4545H238.273ZM241.327 20.1534C240.912 20.1534 240.536 20.0753 240.198 19.919C239.86 19.7599 239.591 19.5312 239.392 19.233C239.194 18.9318 239.094 18.5682 239.094 18.142C239.094 17.767 239.168 17.4631 239.316 17.2301C239.463 16.9943 239.661 16.8097 239.908 16.6761C240.155 16.5426 240.428 16.4432 240.726 16.3778C241.027 16.3097 241.33 16.2557 241.634 16.2159C242.032 16.1648 242.354 16.1264 242.601 16.1009C242.851 16.0724 243.033 16.0256 243.147 15.9602C243.263 15.8949 243.321 15.7812 243.321 15.6193V15.5852C243.321 15.1648 243.206 14.8381 242.976 14.6051C242.749 14.3722 242.404 14.2557 241.941 14.2557C241.461 14.2557 241.084 14.3608 240.811 14.571C240.539 14.7812 240.347 15.0057 240.236 15.2443L239.282 14.9034C239.452 14.5057 239.679 14.196 239.963 13.9744C240.25 13.75 240.563 13.5937 240.901 13.5057C241.242 13.4148 241.577 13.3693 241.907 13.3693C242.117 13.3693 242.358 13.3949 242.631 13.446C242.907 13.4943 243.172 13.5952 243.428 13.7486C243.686 13.902 243.901 14.1335 244.071 14.4432C244.242 14.7528 244.327 15.1676 244.327 15.6875V20H243.321V19.1136H243.27C243.202 19.2557 243.088 19.4077 242.929 19.5696C242.77 19.7315 242.559 19.8693 242.294 19.983C242.03 20.0966 241.708 20.1534 241.327 20.1534ZM241.48 19.25C241.878 19.25 242.213 19.1719 242.486 19.0156C242.762 18.8594 242.969 18.6577 243.108 18.4105C243.25 18.1634 243.321 17.9034 243.321 17.6307V16.7102C243.279 16.7614 243.185 16.8082 243.04 16.8509C242.898 16.8906 242.733 16.9261 242.546 16.9574C242.361 16.9858 242.181 17.0114 242.005 17.0341C241.831 17.054 241.691 17.071 241.583 17.0852C241.321 17.1193 241.077 17.1747 240.85 17.2514C240.625 17.3253 240.444 17.4375 240.304 17.5881C240.168 17.7358 240.1 17.9375 240.1 18.1932C240.1 18.5426 240.229 18.8068 240.488 18.9858C240.749 19.1619 241.08 19.25 241.48 19.25ZM247.168 11.2727V20H246.163V11.2727H247.168Z" fill="var(--colors-neutral-neutral-800)"/>
</svg>
