<svg width="40" height="16" viewBox="0 0 40 16" fill="none" xmlns="http://www.w3.org/2000/svg">
<rect width="40" height="16" rx="8" fill="#E6E6E6"/>
<path d="M12.8098 4.22727V11.5H11.9576L7.9945 5.78977H7.92347V11.5H7.04279V4.22727H7.89506L11.8723 9.9517H11.9434V4.22727H12.8098ZM16.0636 11.6278C15.7179 11.6278 15.4042 11.5627 15.1225 11.4325C14.8408 11.3 14.6171 11.1094 14.4513 10.8608C14.2856 10.6098 14.2028 10.3068 14.2028 9.9517C14.2028 9.6392 14.2643 9.38589 14.3874 9.19176C14.5105 8.99527 14.6751 8.84138 14.881 8.73011C15.087 8.61884 15.3143 8.53598 15.5629 8.48153C15.8138 8.42472 16.0659 8.37973 16.3192 8.34659C16.6507 8.30398 16.9194 8.27202 17.1254 8.25071C17.3337 8.22704 17.4852 8.18797 17.5799 8.13352C17.677 8.07907 17.7255 7.98437 17.7255 7.84943V7.82102C17.7255 7.47064 17.6296 7.19839 17.4379 7.00426C17.2485 6.81013 16.9608 6.71307 16.5749 6.71307C16.1748 6.71307 15.8612 6.80066 15.6339 6.97585C15.4066 7.15104 15.2468 7.33807 15.1545 7.53693L14.359 7.25284C14.5011 6.9214 14.6905 6.66335 14.9272 6.47869C15.1663 6.29167 15.4267 6.16146 15.7085 6.08807C15.9925 6.01231 16.2719 5.97443 16.5465 5.97443C16.7217 5.97443 16.9229 5.99574 17.1502 6.03835C17.3799 6.0786 17.6012 6.16264 17.8143 6.29048C18.0297 6.41832 18.2085 6.61127 18.3505 6.86932C18.4925 7.12737 18.5636 7.47301 18.5636 7.90625V11.5H17.7255V10.7614H17.6829C17.6261 10.8797 17.5314 11.0064 17.3988 11.1413C17.2662 11.2763 17.0898 11.3911 16.8697 11.4858C16.6495 11.5805 16.3808 11.6278 16.0636 11.6278ZM16.1914 10.875C16.5228 10.875 16.8022 10.8099 17.0295 10.6797C17.2591 10.5495 17.4319 10.3814 17.5479 10.1754C17.6663 9.96946 17.7255 9.75284 17.7255 9.52557V8.75852C17.69 8.80114 17.6119 8.8402 17.4911 8.87571C17.3728 8.90885 17.2354 8.93845 17.0792 8.96449C16.9253 8.98816 16.775 9.00947 16.6282 9.02841C16.4838 9.04498 16.3666 9.05919 16.2766 9.07102C16.0588 9.09943 15.8552 9.1456 15.6658 9.20952C15.4788 9.27107 15.3273 9.36458 15.2113 9.49006C15.0977 9.61316 15.0408 9.78125 15.0408 9.99432C15.0408 10.2855 15.1486 10.5057 15.364 10.6548C15.5818 10.8016 15.8576 10.875 16.1914 10.875ZM20.0932 11.5V6.04545H20.9029V6.89773H20.9739C21.0875 6.60653 21.271 6.38045 21.5243 6.21946C21.7776 6.05611 22.0819 5.97443 22.437 5.97443C22.7968 5.97443 23.0963 6.05611 23.3354 6.21946C23.5769 6.38045 23.7651 6.60653 23.9 6.89773H23.9569C24.0965 6.616 24.306 6.39228 24.5854 6.22656C24.8648 6.05848 25.1998 5.97443 25.5904 5.97443C26.0781 5.97443 26.477 6.12713 26.7871 6.43253C27.0972 6.73556 27.2523 7.20786 27.2523 7.84943V11.5H26.4142V7.84943C26.4142 7.44697 26.3042 7.15933 26.084 6.98651C25.8638 6.81368 25.6046 6.72727 25.3063 6.72727C24.9228 6.72727 24.6257 6.84328 24.415 7.07528C24.2042 7.30492 24.0989 7.59612 24.0989 7.94886V11.5H23.2466V7.7642C23.2466 7.45407 23.146 7.20431 22.9448 7.01491C22.7435 6.82315 22.4843 6.72727 22.1671 6.72727C21.9493 6.72727 21.7457 6.78527 21.5563 6.90128C21.3693 7.01728 21.2177 7.17827 21.1017 7.38423C20.9881 7.58783 20.9313 7.82339 20.9313 8.09091V11.5H20.0932ZM31.0716 11.6136C30.546 11.6136 30.0926 11.4976 29.7115 11.2656C29.3327 11.0312 29.0403 10.7045 28.8343 10.2855C28.6307 9.86411 28.5289 9.37405 28.5289 8.81534C28.5289 8.25663 28.6307 7.7642 28.8343 7.33807C29.0403 6.90956 29.3268 6.57576 29.6937 6.33665C30.063 6.09517 30.4939 5.97443 30.9863 5.97443C31.2704 5.97443 31.551 6.02178 31.8279 6.11648C32.1049 6.21117 32.3571 6.36506 32.5843 6.57812C32.8116 6.78883 32.9927 7.06818 33.1277 7.41619C33.2626 7.7642 33.3301 8.19271 33.3301 8.7017V9.05682H29.1255V8.33239H32.4778C32.4778 8.02462 32.4163 7.75 32.2931 7.50852C32.1724 7.26705 31.9996 7.07647 31.7747 6.93679C31.5521 6.79711 31.2894 6.72727 30.9863 6.72727C30.6525 6.72727 30.3637 6.81013 30.1199 6.97585C29.8784 7.1392 29.6925 7.35227 29.5623 7.61506C29.4321 7.87784 29.367 8.15956 29.367 8.46023V8.94318C29.367 9.35511 29.438 9.70431 29.5801 9.99077C29.7245 10.2749 29.9245 10.4915 30.1802 10.6406C30.4359 10.7874 30.733 10.8608 31.0716 10.8608C31.2917 10.8608 31.4906 10.83 31.6681 10.7685C31.8481 10.7045 32.0031 10.6098 32.1333 10.4844C32.2636 10.3565 32.3642 10.1979 32.4352 10.0085L33.2449 10.2358C33.1596 10.5104 33.0164 10.7519 32.8152 10.9602C32.6139 11.1662 32.3654 11.3272 32.0694 11.4432C31.7735 11.5568 31.4409 11.6136 31.0716 11.6136Z" fill="#222222"/>
</svg>
