<svg width="184" height="32" viewBox="0 0 184 32" fill="none" xmlns="http://www.w3.org/2000/svg">
<rect width="184" height="32" fill="var(--colors-neutral-neutral-300)"/>
<path d="M14.2727 13.4545L11.8523 20H10.8295L8.40909 13.4545H9.5L11.3068 18.6705H11.375L13.1818 13.4545H14.2727ZM17.3271 20.1534C16.9123 20.1534 16.5359 20.0753 16.1978 19.919C15.8597 19.7599 15.5913 19.5312 15.3924 19.233C15.1935 18.9318 15.0941 18.5682 15.0941 18.142C15.0941 17.767 15.168 17.4631 15.3157 17.2301C15.4634 16.9943 15.6609 16.8097 15.908 16.6761C16.1552 16.5426 16.4279 16.4432 16.7262 16.3778C17.0273 16.3097 17.3299 16.2557 17.6339 16.2159C18.0316 16.1648 18.354 16.1264 18.6012 16.1009C18.8512 16.0724 19.033 16.0256 19.1467 15.9602C19.2631 15.8949 19.3214 15.7812 19.3214 15.6193V15.5852C19.3214 15.1648 19.2063 14.8381 18.9762 14.6051C18.7489 14.3722 18.4038 14.2557 17.9407 14.2557C17.4606 14.2557 17.0842 14.3608 16.8114 14.571C16.5387 14.7812 16.3469 15.0057 16.2362 15.2443L15.2816 14.9034C15.4521 14.5057 15.6793 14.196 15.9634 13.9744C16.2504 13.75 16.5629 13.5937 16.9009 13.5057C17.2418 13.4148 17.5771 13.3693 17.9066 13.3693C18.1168 13.3693 18.3583 13.3949 18.631 13.446C18.9066 13.4943 19.1722 13.5952 19.4279 13.7486C19.6864 13.902 19.9009 14.1335 20.0714 14.4432C20.2418 14.7528 20.3271 15.1676 20.3271 15.6875V20H19.3214V19.1136H19.2702C19.2021 19.2557 19.0884 19.4077 18.9293 19.5696C18.7702 19.7315 18.5586 19.8693 18.2944 19.983C18.0302 20.0966 17.7077 20.1534 17.3271 20.1534ZM17.4805 19.25C17.8782 19.25 18.2134 19.1719 18.4862 19.0156C18.7617 18.8594 18.9691 18.6577 19.1083 18.4105C19.2504 18.1634 19.3214 17.9034 19.3214 17.6307V16.7102C19.2788 16.7614 19.185 16.8082 19.0401 16.8509C18.8981 16.8906 18.7333 16.9261 18.5458 16.9574C18.3612 16.9858 18.1808 17.0114 18.0046 17.0341C17.8313 17.054 17.6907 17.071 17.5827 17.0852C17.3214 17.1193 17.0771 17.1747 16.8498 17.2514C16.6254 17.3253 16.4435 17.4375 16.3043 17.5881C16.168 17.7358 16.0998 17.9375 16.0998 18.1932C16.0998 18.5426 16.229 18.8068 16.4876 18.9858C16.7489 19.1619 17.0799 19.25 17.4805 19.25ZM23.1683 11.2727V20H22.1626V11.2727H23.1683Z" fill="var(--colors-neutral-neutral-800)"/>
<path d="M172 18.3077L168.192 14.5H175.808L172 18.3077Z" fill="var(--colors-neutral-neutral-700)"/>
</svg>
