<svg width="288" height="32" viewBox="0 0 288 32" fill="none" xmlns="http://www.w3.org/2000/svg">
<path d="M3.06818 12.2727L5.31818 15.9034H5.38636L7.63636 12.2727H8.88068L6.13636 16.6364L8.88068 21H7.63636L5.38636 17.4375H5.31818L3.06818 21H1.82386L4.63636 16.6364L1.82386 12.2727H3.06818Z" fill="#808080"/>
<path d="M21.4716 12.2727V21H20.4148V13.3807H20.3636L18.233 14.7955V13.7216L20.4148 12.2727H21.4716ZM26.8793 21.1193C26.5213 21.1136 26.1634 21.0455 25.8054 20.9148C25.4474 20.7841 25.1207 20.5639 24.8253 20.2543C24.5298 19.9418 24.2926 19.5199 24.1136 18.9886C23.9347 18.4545 23.8452 17.7841 23.8452 16.9773C23.8452 16.2045 23.9176 15.5199 24.0625 14.9233C24.2074 14.3239 24.4176 13.8196 24.6932 13.4105C24.9688 12.9986 25.3011 12.6861 25.6903 12.473C26.0824 12.2599 26.5241 12.1534 27.0156 12.1534C27.5043 12.1534 27.9389 12.2514 28.3196 12.4474C28.7031 12.6406 29.0156 12.9105 29.2571 13.2571C29.4986 13.6037 29.6548 14.0028 29.7259 14.4545H28.6861C28.5895 14.0625 28.402 13.7372 28.1236 13.4787C27.8452 13.2202 27.4759 13.0909 27.0156 13.0909C26.3395 13.0909 25.8068 13.3849 25.4176 13.973C25.0313 14.5611 24.8366 15.3864 24.8338 16.4489H24.902C25.0611 16.2074 25.25 16.0014 25.4688 15.831C25.6903 15.6577 25.9347 15.5241 26.2017 15.4304C26.4688 15.3366 26.7514 15.2898 27.0497 15.2898C27.5497 15.2898 28.0071 15.4148 28.4219 15.6648C28.8366 15.9119 29.169 16.2543 29.419 16.6918C29.669 17.1264 29.794 17.625 29.794 18.1875C29.794 18.7273 29.6733 19.2216 29.4318 19.6705C29.1903 20.1165 28.8509 20.4716 28.4134 20.7358C27.9787 20.9972 27.4673 21.125 26.8793 21.1193ZM26.8793 20.1818C27.2372 20.1818 27.5582 20.0923 27.8423 19.9134C28.1293 19.7344 28.3551 19.4943 28.5199 19.1932C28.6875 18.892 28.7713 18.5568 28.7713 18.1875C28.7713 17.8267 28.6903 17.4986 28.5284 17.2031C28.3693 16.9048 28.1491 16.6676 27.8679 16.4915C27.5895 16.3153 27.2713 16.2273 26.9134 16.2273C26.6435 16.2273 26.392 16.2812 26.1591 16.3892C25.9261 16.4943 25.7216 16.6392 25.5455 16.8239C25.3722 17.0085 25.2358 17.2202 25.1364 17.4588C25.0369 17.6946 24.9872 17.9432 24.9872 18.2045C24.9872 18.5511 25.0682 18.875 25.2301 19.1761C25.3949 19.4773 25.6193 19.7202 25.9034 19.9048C26.1903 20.0895 26.5156 20.1818 26.8793 20.1818ZM34.4187 21.1193C33.8562 21.1193 33.3548 21.0227 32.9144 20.8295C32.4769 20.6364 32.1289 20.3679 31.8704 20.0241C31.6147 19.6776 31.4755 19.2756 31.4528 18.8182H32.5266C32.5494 19.0994 32.646 19.3423 32.8164 19.5469C32.9869 19.7486 33.2099 19.9048 33.4854 20.0156C33.761 20.1264 34.0664 20.1818 34.4016 20.1818C34.7766 20.1818 35.109 20.1165 35.3988 19.9858C35.6886 19.8551 35.9158 19.6733 36.0806 19.4403C36.2454 19.2074 36.3278 18.9375 36.3278 18.6307C36.3278 18.3097 36.2482 18.027 36.0891 17.7827C35.93 17.5355 35.6971 17.3423 35.3903 17.2031C35.0835 17.0639 34.7085 16.9943 34.2653 16.9943H33.5664V16.0568H34.2653C34.6119 16.0568 34.9158 15.9943 35.1772 15.8693C35.4414 15.7443 35.6474 15.5682 35.7951 15.3409C35.9457 15.1136 36.021 14.8466 36.021 14.5398C36.021 14.2443 35.9556 13.9872 35.8249 13.7685C35.6942 13.5497 35.5096 13.3793 35.271 13.2571C35.0352 13.1349 34.7567 13.0739 34.4357 13.0739C34.1346 13.0739 33.8505 13.1293 33.5835 13.2401C33.3192 13.348 33.1033 13.5057 32.9357 13.7131C32.7681 13.9176 32.6772 14.1648 32.663 14.4545H31.6403C31.6573 13.9972 31.7951 13.5966 32.0536 13.2528C32.3121 12.9062 32.6502 12.6364 33.0678 12.4432C33.4883 12.25 33.9499 12.1534 34.4528 12.1534C34.9925 12.1534 35.4556 12.2628 35.842 12.4815C36.2283 12.6974 36.5252 12.983 36.7326 13.3381C36.94 13.6932 37.0437 14.0767 37.0437 14.4886C37.0437 14.9801 36.9144 15.3991 36.6559 15.7457C36.4002 16.0923 36.0522 16.3324 35.6119 16.4659V16.5341C36.163 16.625 36.5934 16.8594 36.9031 17.2372C37.2127 17.6122 37.3675 18.0767 37.3675 18.6307C37.3675 19.1051 37.2383 19.5312 36.9798 19.9091C36.7241 20.2841 36.3746 20.5795 35.9315 20.7955C35.4883 21.0114 34.984 21.1193 34.4187 21.1193ZM42.0082 21.1193C41.6502 21.1136 41.2923 21.0455 40.9343 20.9148C40.5763 20.7841 40.2496 20.5639 39.9542 20.2543C39.6587 19.9418 39.4215 19.5199 39.2425 18.9886C39.0636 18.4545 38.9741 17.7841 38.9741 16.9773C38.9741 16.2045 39.0465 15.5199 39.1914 14.9233C39.3363 14.3239 39.5465 13.8196 39.8221 13.4105C40.0977 12.9986 40.43 12.6861 40.8192 12.473C41.2113 12.2599 41.6531 12.1534 42.1445 12.1534C42.6332 12.1534 43.0678 12.2514 43.4485 12.4474C43.832 12.6406 44.1445 12.9105 44.386 13.2571C44.6275 13.6037 44.7837 14.0028 44.8548 14.4545H43.815C43.7184 14.0625 43.5309 13.7372 43.2525 13.4787C42.9741 13.2202 42.6048 13.0909 42.1445 13.0909C41.4684 13.0909 40.9357 13.3849 40.5465 13.973C40.1602 14.5611 39.9656 15.3864 39.9627 16.4489H40.0309C40.19 16.2074 40.3789 16.0014 40.5977 15.831C40.8192 15.6577 41.0636 15.5241 41.3306 15.4304C41.5977 15.3366 41.8803 15.2898 42.1786 15.2898C42.6786 15.2898 43.136 15.4148 43.5508 15.6648C43.9656 15.9119 44.2979 16.2543 44.5479 16.6918C44.7979 17.1264 44.9229 17.625 44.9229 18.1875C44.9229 18.7273 44.8022 19.2216 44.5607 19.6705C44.3192 20.1165 43.9798 20.4716 43.5423 20.7358C43.1076 20.9972 42.5962 21.125 42.0082 21.1193ZM42.0082 20.1818C42.3661 20.1818 42.6871 20.0923 42.9712 19.9134C43.2582 19.7344 43.484 19.4943 43.6488 19.1932C43.8164 18.892 43.9002 18.5568 43.9002 18.1875C43.9002 17.8267 43.8192 17.4986 43.6573 17.2031C43.4982 16.9048 43.2781 16.6676 42.9968 16.4915C42.7184 16.3153 42.4002 16.2273 42.0423 16.2273C41.7724 16.2273 41.521 16.2812 41.288 16.3892C41.055 16.4943 40.8505 16.6392 40.6744 16.8239C40.5011 17.0085 40.3647 17.2202 40.2653 17.4588C40.1658 17.6946 40.1161 17.9432 40.1161 18.2045C40.1161 18.5511 40.1971 18.875 40.359 19.1761C40.5238 19.4773 40.7482 19.7202 41.0323 19.9048C41.3192 20.0895 41.6445 20.1818 42.0082 20.1818ZM46.5987 21V20.233L49.4794 17.0795C49.8175 16.7102 50.0959 16.3892 50.3146 16.1165C50.5334 15.8409 50.6953 15.5824 50.8004 15.3409C50.9084 15.0966 50.9624 14.8409 50.9624 14.5739C50.9624 14.267 50.8885 14.0014 50.7408 13.777C50.5959 13.5526 50.397 13.3793 50.1442 13.2571C49.8913 13.1349 49.6072 13.0739 49.2919 13.0739C48.9567 13.0739 48.6641 13.1435 48.4141 13.2827C48.1669 13.419 47.9751 13.6108 47.8388 13.858C47.7053 14.1051 47.6385 14.3949 47.6385 14.7273H46.6328C46.6328 14.2159 46.7507 13.767 46.9865 13.3807C47.2223 12.9943 47.5433 12.6932 47.9496 12.4773C48.3587 12.2614 48.8175 12.1534 49.326 12.1534C49.8374 12.1534 50.2905 12.2614 50.6854 12.4773C51.0803 12.6932 51.3899 12.9844 51.6143 13.3509C51.8388 13.7173 51.951 14.125 51.951 14.5739C51.951 14.8949 51.8928 15.2088 51.7763 15.5156C51.6626 15.8196 51.4638 16.1591 51.1797 16.5341C50.8984 16.9062 50.5078 17.3608 50.0078 17.8977L48.0476 19.9943V20.0625H52.1044V21H46.5987Z" fill="#222222"/>
<path d="M78.9734 12.2727H80.1837L82.6041 16.3466H82.7064L85.1269 12.2727H86.3371L83.1837 17.4034V21H82.1269V17.4034L78.9734 12.2727Z" fill="#808080"/>
<path d="M95.57 21V20.233L98.4507 17.0795C98.7888 16.7102 99.0672 16.3892 99.2859 16.1165C99.5047 15.8409 99.6666 15.5824 99.7717 15.3409C99.8797 15.0966 99.9337 14.8409 99.9337 14.5739C99.9337 14.267 99.8598 14.0014 99.7121 13.777C99.5672 13.5526 99.3683 13.3793 99.1155 13.2571C98.8626 13.1349 98.5786 13.0739 98.2632 13.0739C97.928 13.0739 97.6354 13.1435 97.3854 13.2827C97.1382 13.419 96.9465 13.6108 96.8101 13.858C96.6766 14.1051 96.6098 14.3949 96.6098 14.7273H95.6041C95.6041 14.2159 95.722 13.767 95.9578 13.3807C96.1936 12.9943 96.5146 12.6932 96.9209 12.4773C97.33 12.2614 97.7888 12.1534 98.2973 12.1534C98.8087 12.1534 99.2618 12.2614 99.6567 12.4773C100.052 12.6932 100.361 12.9844 100.586 13.3509C100.81 13.7173 100.922 14.125 100.922 14.5739C100.922 14.8949 100.864 15.2088 100.748 15.5156C100.634 15.8196 100.435 16.1591 100.151 16.5341C99.8698 16.9062 99.4791 17.3608 98.9791 17.8977L97.0189 19.9943V20.0625H101.076V21H95.57ZM105.785 21.1193C105.222 21.1193 104.721 21.0227 104.28 20.8295C103.843 20.6364 103.495 20.3679 103.236 20.0241C102.981 19.6776 102.841 19.2756 102.819 18.8182H103.892C103.915 19.0994 104.012 19.3423 104.182 19.5469C104.353 19.7486 104.576 19.9048 104.851 20.0156C105.127 20.1264 105.432 20.1818 105.767 20.1818C106.142 20.1818 106.475 20.1165 106.765 19.9858C107.054 19.8551 107.282 19.6733 107.446 19.4403C107.611 19.2074 107.694 18.9375 107.694 18.6307C107.694 18.3097 107.614 18.027 107.455 17.7827C107.296 17.5355 107.063 17.3423 106.756 17.2031C106.449 17.0639 106.074 16.9943 105.631 16.9943H104.932V16.0568H105.631C105.978 16.0568 106.282 15.9943 106.543 15.8693C106.807 15.7443 107.013 15.5682 107.161 15.3409C107.312 15.1136 107.387 14.8466 107.387 14.5398C107.387 14.2443 107.321 13.9872 107.191 13.7685C107.06 13.5497 106.875 13.3793 106.637 13.2571C106.401 13.1349 106.123 13.0739 105.802 13.0739C105.5 13.0739 105.216 13.1293 104.949 13.2401C104.685 13.348 104.469 13.5057 104.302 13.7131C104.134 13.9176 104.043 14.1648 104.029 14.4545H103.006C103.023 13.9972 103.161 13.5966 103.419 13.2528C103.678 12.9062 104.016 12.6364 104.434 12.4432C104.854 12.25 105.316 12.1534 105.819 12.1534C106.358 12.1534 106.821 12.2628 107.208 12.4815C107.594 12.6974 107.891 12.983 108.098 13.3381C108.306 13.6932 108.41 14.0767 108.41 14.4886C108.41 14.9801 108.28 15.3991 108.022 15.7457C107.766 16.0923 107.418 16.3324 106.978 16.4659V16.5341C107.529 16.625 107.959 16.8594 108.269 17.2372C108.579 17.6122 108.733 18.0767 108.733 18.6307C108.733 19.1051 108.604 19.5312 108.346 19.9091C108.09 20.2841 107.74 20.5795 107.297 20.7955C106.854 21.0114 106.35 21.1193 105.785 21.1193ZM113.323 21.1193C112.681 21.1193 112.134 20.9446 111.682 20.5952C111.231 20.2429 110.885 19.733 110.647 19.0653C110.408 18.3949 110.289 17.5852 110.289 16.6364C110.289 15.6932 110.408 14.8878 110.647 14.2202C110.888 13.5497 111.235 13.0384 111.687 12.6861C112.141 12.331 112.687 12.1534 113.323 12.1534C113.959 12.1534 114.503 12.331 114.955 12.6861C115.41 13.0384 115.756 13.5497 115.995 14.2202C116.236 14.8878 116.357 15.6932 116.357 16.6364C116.357 17.5852 116.238 18.3949 115.999 19.0653C115.76 19.733 115.415 20.2429 114.964 20.5952C114.512 20.9446 113.965 21.1193 113.323 21.1193ZM113.323 20.1818C113.959 20.1818 114.454 19.875 114.806 19.2614C115.158 18.6477 115.334 17.7727 115.334 16.6364C115.334 15.8807 115.253 15.2372 115.091 14.706C114.932 14.1747 114.702 13.7699 114.401 13.4915C114.103 13.2131 113.743 13.0739 113.323 13.0739C112.692 13.0739 112.199 13.3849 111.844 14.0071C111.489 14.6264 111.312 15.5028 111.312 16.6364C111.312 17.392 111.391 18.0341 111.55 18.5625C111.709 19.0909 111.938 19.4929 112.236 19.7685C112.537 20.044 112.9 20.1818 113.323 20.1818ZM117.976 21V20.233L120.857 17.0795C121.195 16.7102 121.473 16.3892 121.692 16.1165C121.911 15.8409 122.073 15.5824 122.178 15.3409C122.286 15.0966 122.34 14.8409 122.34 14.5739C122.34 14.267 122.266 14.0014 122.118 13.777C121.973 13.5526 121.775 13.3793 121.522 13.2571C121.269 13.1349 120.985 13.0739 120.669 13.0739C120.334 13.0739 120.042 13.1435 119.792 13.2827C119.544 13.419 119.353 13.6108 119.216 13.858C119.083 14.1051 119.016 14.3949 119.016 14.7273H118.01C118.01 14.2159 118.128 13.767 118.364 13.3807C118.6 12.9943 118.921 12.6932 119.327 12.4773C119.736 12.2614 120.195 12.1534 120.704 12.1534C121.215 12.1534 121.668 12.2614 122.063 12.4773C122.458 12.6932 122.767 12.9844 122.992 13.3509C123.216 13.7173 123.329 14.125 123.329 14.5739C123.329 14.8949 123.27 15.2088 123.154 15.5156C123.04 15.8196 122.841 16.1591 122.557 16.5341C122.276 16.9062 121.885 17.3608 121.385 17.8977L119.425 19.9943V20.0625H123.482V21H117.976ZM125.242 21V20.233L128.123 17.0795C128.461 16.7102 128.739 16.3892 128.958 16.1165C129.177 15.8409 129.339 15.5824 129.444 15.3409C129.552 15.0966 129.606 14.8409 129.606 14.5739C129.606 14.267 129.532 14.0014 129.384 13.777C129.239 13.5526 129.04 13.3793 128.787 13.2571C128.535 13.1349 128.25 13.0739 127.935 13.0739C127.6 13.0739 127.307 13.1435 127.057 13.2827C126.81 13.419 126.618 13.6108 126.482 13.858C126.348 14.1051 126.282 14.3949 126.282 14.7273H125.276C125.276 14.2159 125.394 13.767 125.63 13.3807C125.865 12.9943 126.187 12.6932 126.593 12.4773C127.002 12.2614 127.461 12.1534 127.969 12.1534C128.481 12.1534 128.934 12.2614 129.329 12.4773C129.723 12.6932 130.033 12.9844 130.258 13.3509C130.482 13.7173 130.594 14.125 130.594 14.5739C130.594 14.8949 130.536 15.2088 130.419 15.5156C130.306 15.8196 130.107 16.1591 129.823 16.5341C129.542 16.9062 129.151 17.3608 128.651 17.8977L126.691 19.9943V20.0625H130.748V21H125.242Z" fill="#222222"/>
<path d="M168.1 21V20.233L172.805 13.2102H168.049V12.2727H174.066V13.0398L169.362 20.0625H174.117V21H168.1Z" fill="#808080"/>
<path d="M184.237 21V20.233L187.117 17.0795C187.456 16.7102 187.734 16.3892 187.953 16.1165C188.171 15.8409 188.333 15.5824 188.438 15.3409C188.546 15.0966 188.6 14.8409 188.6 14.5739C188.6 14.267 188.527 14.0014 188.379 13.777C188.234 13.5526 188.035 13.3793 187.782 13.2571C187.529 13.1349 187.245 13.0739 186.93 13.0739C186.595 13.0739 186.302 13.1435 186.052 13.2827C185.805 13.419 185.613 13.6108 185.477 13.858C185.343 14.1051 185.277 14.3949 185.277 14.7273H184.271C184.271 14.2159 184.389 13.767 184.625 13.3807C184.86 12.9943 185.181 12.6932 185.588 12.4773C185.997 12.2614 186.456 12.1534 186.964 12.1534C187.475 12.1534 187.929 12.2614 188.323 12.4773C188.718 12.6932 189.028 12.9844 189.252 13.3509C189.477 13.7173 189.589 14.125 189.589 14.5739C189.589 14.8949 189.531 15.2088 189.414 15.5156C189.301 15.8196 189.102 16.1591 188.818 16.5341C188.536 16.9062 188.146 17.3608 187.646 17.8977L185.686 19.9943V20.0625H189.742V21H184.237ZM194.451 21.1193C193.889 21.1193 193.387 21.0227 192.947 20.8295C192.51 20.6364 192.161 20.3679 191.903 20.0241C191.647 19.6776 191.508 19.2756 191.485 18.8182H192.559C192.582 19.0994 192.679 19.3423 192.849 19.5469C193.019 19.7486 193.242 19.9048 193.518 20.0156C193.794 20.1264 194.099 20.1818 194.434 20.1818C194.809 20.1818 195.142 20.1165 195.431 19.9858C195.721 19.8551 195.948 19.6733 196.113 19.4403C196.278 19.2074 196.36 18.9375 196.36 18.6307C196.36 18.3097 196.281 18.027 196.122 17.7827C195.963 17.5355 195.73 17.3423 195.423 17.2031C195.116 17.0639 194.741 16.9943 194.298 16.9943H193.599V16.0568H194.298C194.644 16.0568 194.948 15.9943 195.21 15.8693C195.474 15.7443 195.68 15.5682 195.828 15.3409C195.978 15.1136 196.054 14.8466 196.054 14.5398C196.054 14.2443 195.988 13.9872 195.858 13.7685C195.727 13.5497 195.542 13.3793 195.304 13.2571C195.068 13.1349 194.789 13.0739 194.468 13.0739C194.167 13.0739 193.883 13.1293 193.616 13.2401C193.352 13.348 193.136 13.5057 192.968 13.7131C192.801 13.9176 192.71 14.1648 192.696 14.4545H191.673C191.69 13.9972 191.828 13.5966 192.086 13.2528C192.345 12.9062 192.683 12.6364 193.1 12.4432C193.521 12.25 193.983 12.1534 194.485 12.1534C195.025 12.1534 195.488 12.2628 195.875 12.4815C196.261 12.6974 196.558 12.983 196.765 13.3381C196.973 13.6932 197.076 14.0767 197.076 14.4886C197.076 14.9801 196.947 15.3991 196.688 15.7457C196.433 16.0923 196.085 16.3324 195.644 16.4659V16.5341C196.196 16.625 196.626 16.8594 196.936 17.2372C197.245 17.6122 197.4 18.0767 197.4 18.6307C197.4 19.1051 197.271 19.5312 197.012 19.9091C196.757 20.2841 196.407 20.5795 195.964 20.7955C195.521 21.0114 195.017 21.1193 194.451 21.1193Z" fill="#222222"/>
<path d="M246.16 20.65C246.173 20.5367 246.18 20.4233 246.18 20.31C246.18 17.55 243.933 15.31 241.173 15.31C241.06 15.31 240.953 15.3167 240.847 15.33V10.6833H240.18V21.3167H250.82V20.65H246.16ZM240.847 20.65V15.99C240.953 15.9833 241.06 15.9767 241.173 15.9767C243.567 15.9767 245.513 17.9167 245.513 20.31C245.513 20.4233 245.507 20.5367 245.5 20.65H240.847Z" fill="#808080" stroke="#808080" stroke-width="0.333333" stroke-miterlimit="10"/>
<path d="M262.17 16.1676V17.1051H258.352V16.1676H262.17ZM266.731 21.1193C266.169 21.1193 265.667 21.0227 265.227 20.8295C264.789 20.6364 264.441 20.3679 264.183 20.0241C263.927 19.6776 263.788 19.2756 263.765 18.8182H264.839C264.862 19.0994 264.958 19.3423 265.129 19.5469C265.299 19.7486 265.522 19.9048 265.798 20.0156C266.074 20.1264 266.379 20.1818 266.714 20.1818C267.089 20.1818 267.422 20.1165 267.711 19.9858C268.001 19.8551 268.228 19.6733 268.393 19.4403C268.558 19.2074 268.64 18.9375 268.64 18.6307C268.64 18.3097 268.561 18.027 268.402 17.7827C268.243 17.5355 268.01 17.3423 267.703 17.2031C267.396 17.0639 267.021 16.9943 266.578 16.9943H265.879V16.0568H266.578C266.924 16.0568 267.228 15.9943 267.49 15.8693C267.754 15.7443 267.96 15.5682 268.108 15.3409C268.258 15.1136 268.333 14.8466 268.333 14.5398C268.333 14.2443 268.268 13.9872 268.137 13.7685C268.007 13.5497 267.822 13.3793 267.583 13.2571C267.348 13.1349 267.069 13.0739 266.748 13.0739C266.447 13.0739 266.163 13.1293 265.896 13.2401C265.632 13.348 265.416 13.5057 265.248 13.7131C265.081 13.9176 264.99 14.1648 264.975 14.4545H263.953C263.97 13.9972 264.108 13.5966 264.366 13.2528C264.625 12.9062 264.963 12.6364 265.38 12.4432C265.801 12.25 266.262 12.1534 266.765 12.1534C267.305 12.1534 267.768 12.2628 268.154 12.4815C268.541 12.6974 268.838 12.983 269.045 13.3381C269.252 13.6932 269.356 14.0767 269.356 14.4886C269.356 14.9801 269.227 15.3991 268.968 15.7457C268.713 16.0923 268.365 16.3324 267.924 16.4659V16.5341C268.475 16.625 268.906 16.8594 269.216 17.2372C269.525 17.6122 269.68 18.0767 269.68 18.6307C269.68 19.1051 269.551 19.5312 269.292 19.9091C269.037 20.2841 268.687 20.5795 268.244 20.7955C267.801 21.0114 267.297 21.1193 266.731 21.1193ZM274.27 21.1193C273.627 21.1193 273.081 20.9446 272.629 20.5952C272.177 20.2429 271.832 19.733 271.593 19.0653C271.355 18.3949 271.235 17.5852 271.235 16.6364C271.235 15.6932 271.355 14.8878 271.593 14.2202C271.835 13.5497 272.181 13.0384 272.633 12.6861C273.088 12.331 273.633 12.1534 274.27 12.1534C274.906 12.1534 275.45 12.331 275.902 12.6861C276.356 13.0384 276.703 13.5497 276.941 14.2202C277.183 14.8878 277.304 15.6932 277.304 16.6364C277.304 17.5852 277.184 18.3949 276.946 19.0653C276.707 19.733 276.362 20.2429 275.91 20.5952C275.458 20.9446 274.912 21.1193 274.27 21.1193ZM274.27 20.1818C274.906 20.1818 275.4 19.875 275.752 19.2614C276.105 18.6477 276.281 17.7727 276.281 16.6364C276.281 15.8807 276.2 15.2372 276.038 14.706C275.879 14.1747 275.649 13.7699 275.348 13.4915C275.049 13.2131 274.69 13.0739 274.27 13.0739C273.639 13.0739 273.146 13.3849 272.791 14.0071C272.436 14.6264 272.258 15.5028 272.258 16.6364C272.258 17.392 272.338 18.0341 272.497 18.5625C272.656 19.0909 272.885 19.4929 273.183 19.7685C273.484 20.044 273.846 20.1818 274.27 20.1818ZM280.747 16.125C280.386 16.125 280.056 16.0369 279.758 15.8608C279.463 15.6847 279.227 15.4489 279.051 15.1534C278.875 14.8551 278.787 14.5256 278.787 14.1648C278.787 13.804 278.875 13.4759 279.051 13.1804C279.227 12.8821 279.463 12.6449 279.758 12.4688C280.056 12.2926 280.386 12.2045 280.747 12.2045C281.108 12.2045 281.436 12.2926 281.731 12.4688C282.029 12.6449 282.267 12.8821 282.443 13.1804C282.619 13.4759 282.707 13.804 282.707 14.1648C282.707 14.5256 282.619 14.8551 282.443 15.1534C282.267 15.4489 282.029 15.6847 281.731 15.8608C281.436 16.0369 281.108 16.125 280.747 16.125ZM280.747 15.2727C280.951 15.2727 281.137 15.223 281.305 15.1236C281.473 15.0241 281.606 14.8906 281.706 14.723C281.805 14.5554 281.855 14.3693 281.855 14.1648C281.855 13.9602 281.805 13.7741 281.706 13.6065C281.606 13.4389 281.473 13.3054 281.305 13.206C281.137 13.1065 280.951 13.0568 280.747 13.0568C280.542 13.0568 280.356 13.1065 280.189 13.206C280.021 13.3054 279.887 13.4389 279.788 13.6065C279.689 13.7741 279.639 13.9602 279.639 14.1648C279.639 14.3693 279.689 14.5554 279.788 14.723C279.887 14.8906 280.021 15.0241 280.189 15.1236C280.356 15.223 280.542 15.2727 280.747 15.2727Z" fill="#222222"/>
</svg>
