<svg width="304" height="145" viewBox="0 0 304 145" fill="none" xmlns="http://www.w3.org/2000/svg">
<path d="M304 143.5H0V144.5H304V143.5Z" fill="#E6E6E6"/>
<path d="M18.004 24.616V23.368H20.056C20.368 23.368 20.644 23.316 20.884 23.212C21.124 23.1 21.312 22.948 21.448 22.756C21.584 22.556 21.652 22.328 21.652 22.072C21.652 21.824 21.592 21.612 21.472 21.436C21.352 21.26 21.188 21.124 20.98 21.028C20.772 20.932 20.536 20.884 20.272 20.884H18.004V19.624H20.272C20.84 19.624 21.344 19.72 21.784 19.912C22.232 20.104 22.584 20.384 22.84 20.752C23.096 21.112 23.224 21.552 23.224 22.072C23.224 22.392 23.148 22.704 22.996 23.008C22.844 23.312 22.628 23.588 22.348 23.836C22.068 24.076 21.728 24.268 21.328 24.412C20.928 24.548 20.476 24.616 19.972 24.616H18.004ZM16.924 28V19.624H18.436V28H16.924ZM21.652 28C21.62 27.632 21.532 27.268 21.388 26.908C21.244 26.54 21.04 26.188 20.776 25.852C20.52 25.516 20.204 25.208 19.828 24.928C19.452 24.64 19.012 24.392 18.508 24.184L20.188 23.824C20.692 24.08 21.128 24.368 21.496 24.688C21.864 25.008 22.168 25.352 22.408 25.72C22.656 26.08 22.844 26.456 22.972 26.848C23.1 27.232 23.176 27.616 23.2 28H21.652ZM26.0007 21.376V25.516C26.0007 25.948 26.1167 26.292 26.3487 26.548C26.5887 26.804 26.8967 26.932 27.2727 26.932C27.7047 26.932 28.0927 26.78 28.4367 26.476C28.7887 26.164 29.0887 25.668 29.3367 24.988L29.5527 26.416C29.2887 27 28.9287 27.436 28.4727 27.724C28.0167 28.004 27.5287 28.144 27.0087 28.144C26.5047 28.144 26.0687 28.04 25.7007 27.832C25.3407 27.616 25.0607 27.32 24.8607 26.944C24.6687 26.56 24.5727 26.112 24.5727 25.6V21.376H26.0007ZM30.6207 21.376V28H29.2527L29.1927 26.608V21.376H30.6207ZM37.1294 28V23.86C37.1294 23.428 37.0094 23.084 36.7694 22.828C36.5374 22.572 36.2334 22.444 35.8574 22.444C35.4254 22.444 35.0334 22.6 34.6814 22.912C34.3374 23.216 34.0414 23.708 33.7934 24.388L33.5774 22.96C33.8414 22.376 34.2014 21.944 34.6574 21.664C35.1134 21.376 35.6014 21.232 36.1214 21.232C36.6254 21.232 37.0574 21.34 37.4174 21.556C37.7854 21.764 38.0654 22.06 38.2574 22.444C38.4574 22.82 38.5574 23.264 38.5574 23.776V28H37.1294ZM32.5094 28V21.376H33.8774L33.9374 22.768V28H32.5094ZM50.8548 28V23.104L50.9388 21.376L49.5588 22.492L48.0828 23.668V21.928L51.2628 19.624H52.3668V28H50.8548ZM48.0828 28V26.74H54.2508V28H48.0828Z" fill="#222222"/>
<path d="M18.65 53.5L16.33 46.52H17.23L18.87 51.33L19.26 52.74L19.65 51.34L21.29 46.52H22.18L19.86 53.5H18.65ZM25.6139 53.62C25.0539 53.62 24.5706 53.5067 24.1639 53.28C23.7572 53.0467 23.4439 52.7167 23.2239 52.29C23.0106 51.8567 22.9039 51.3433 22.9039 50.75C22.9039 50.1567 23.0139 49.65 23.2339 49.23C23.4539 48.8033 23.7672 48.4767 24.1739 48.25C24.5806 48.0167 25.0672 47.9 25.6339 47.9C26.4872 47.9 27.1306 48.1333 27.5639 48.6C27.9972 49.0667 28.1906 49.71 28.1439 50.53H23.5639V49.88L27.2939 49.9C27.2672 49.5 27.1039 49.1833 26.8039 48.95C26.5039 48.71 26.1139 48.59 25.6339 48.59C25.0339 48.59 24.5672 48.7833 24.2339 49.17C23.9006 49.55 23.7339 50.0833 23.7339 50.77C23.7339 51.2033 23.8072 51.5833 23.9539 51.91C24.1072 52.23 24.3239 52.48 24.6039 52.66C24.8839 52.8333 25.2206 52.92 25.6139 52.92C26.0806 52.92 26.4706 52.81 26.7839 52.59C27.1039 52.3633 27.3006 52.0567 27.3739 51.67H28.2039C28.1039 52.2767 27.8239 52.7533 27.3639 53.1C26.9039 53.4467 26.3206 53.62 25.6139 53.62ZM33.4578 50.25V49.62C33.4578 49.3133 33.3645 49.07 33.1778 48.89C32.9911 48.7033 32.7245 48.61 32.3778 48.61C31.9245 48.61 31.5245 48.7833 31.1778 49.13C30.8378 49.4767 30.5778 49.99 30.3978 50.67L30.2578 49.75C30.3978 49.3433 30.5745 49.0033 30.7878 48.73C31.0011 48.4567 31.2478 48.25 31.5278 48.11C31.8145 47.97 32.1311 47.9 32.4778 47.9C33.0178 47.9 33.4545 48.0533 33.7878 48.36C34.1211 48.66 34.2878 49.08 34.2878 49.62V50.25H33.4578ZM29.7378 53.5V48.02H30.4978L30.5678 49.35V53.5H29.7378ZM38.3117 53.62C37.8317 53.62 37.4117 53.5367 37.0517 53.37C36.6917 53.2033 36.4117 52.9667 36.2117 52.66C36.0184 52.3467 35.9184 51.9733 35.9117 51.54H36.7017C36.7084 51.98 36.8584 52.3267 37.1517 52.58C37.4451 52.8333 37.8284 52.96 38.3017 52.96C38.7217 52.96 39.0584 52.88 39.3117 52.72C39.5651 52.56 39.6917 52.3433 39.6917 52.07C39.6917 51.8567 39.6217 51.6867 39.4817 51.56C39.3484 51.4333 39.1717 51.3333 38.9517 51.26C38.7384 51.1867 38.4984 51.1233 38.2317 51.07C37.9717 51.0167 37.7117 50.9567 37.4517 50.89C37.1917 50.8233 36.9517 50.74 36.7317 50.64C36.5184 50.5333 36.3417 50.39 36.2017 50.21C36.0684 50.0233 36.0017 49.7833 36.0017 49.49C36.0017 49.1833 36.0884 48.9133 36.2617 48.68C36.4351 48.44 36.6817 48.25 37.0017 48.11C37.3284 47.97 37.7151 47.9 38.1617 47.9C38.8417 47.9 39.3817 48.0567 39.7817 48.37C40.1884 48.6833 40.4084 49.11 40.4417 49.65H39.6517C39.6317 49.3033 39.4884 49.0367 39.2217 48.85C38.9617 48.6567 38.6084 48.56 38.1617 48.56C37.7284 48.56 37.3984 48.6467 37.1717 48.82C36.9517 48.9933 36.8417 49.2067 36.8417 49.46C36.8417 49.6533 36.9084 49.8067 37.0417 49.92C37.1751 50.0267 37.3517 50.1133 37.5717 50.18C37.7917 50.24 38.0317 50.2933 38.2917 50.34C38.5584 50.38 38.8217 50.4333 39.0817 50.5C39.3417 50.5667 39.5784 50.66 39.7917 50.78C40.0117 50.8933 40.1884 51.05 40.3217 51.25C40.4551 51.4433 40.5217 51.7 40.5217 52.02C40.5217 52.52 40.3184 52.9133 39.9117 53.2C39.5117 53.48 38.9784 53.62 38.3117 53.62ZM44.1156 53.5V48.02H44.9456V53.5H44.1156ZM42.0156 53.5V52.83H46.8656V53.5H42.0156ZM42.7556 48.69V48.02H44.5356V48.69H42.7556ZM44.0456 47.01V46.05H45.0056V47.01H44.0456ZM50.7595 53.62C50.1995 53.62 49.7162 53.5067 49.3095 53.28C48.9095 53.0467 48.5995 52.7167 48.3795 52.29C48.1662 51.8567 48.0595 51.3467 48.0595 50.76C48.0595 50.1667 48.1662 49.6567 48.3795 49.23C48.5995 48.8033 48.9095 48.4767 49.3095 48.25C49.7162 48.0167 50.1995 47.9 50.7595 47.9C51.6062 47.9 52.2695 48.1567 52.7495 48.67C53.2295 49.1767 53.4695 49.8733 53.4695 50.76C53.4695 51.3467 53.3595 51.8567 53.1395 52.29C52.9262 52.7167 52.6162 53.0467 52.2095 53.28C51.8095 53.5067 51.3262 53.62 50.7595 53.62ZM50.7595 52.92C51.3462 52.92 51.8062 52.7267 52.1395 52.34C52.4729 51.9533 52.6395 51.4267 52.6395 50.76C52.6395 50.0867 52.4729 49.56 52.1395 49.18C51.8062 48.7933 51.3462 48.6 50.7595 48.6C50.1795 48.6 49.7229 48.7933 49.3895 49.18C49.0562 49.56 48.8895 50.0867 48.8895 50.76C48.8895 51.4267 49.0562 51.9533 49.3895 52.34C49.7229 52.7267 50.1795 52.92 50.7595 52.92ZM58.6834 53.5V50.02C58.6834 49.6 58.5601 49.26 58.3134 49C58.0734 48.74 57.7534 48.61 57.3534 48.61C56.9068 48.61 56.5101 48.78 56.1634 49.12C55.8168 49.4533 55.5634 49.9633 55.4034 50.65L55.2534 49.58C55.4534 49.0333 55.7501 48.6167 56.1434 48.33C56.5434 48.0433 56.9868 47.9 57.4734 47.9C57.8868 47.9 58.2434 47.99 58.5434 48.17C58.8501 48.3433 59.0868 48.5867 59.2534 48.9C59.4268 49.2133 59.5134 49.58 59.5134 50V53.5H58.6834ZM54.6834 53.5V48.02H55.4634L55.5134 49.34V53.5H54.6834ZM70.4113 53.5V51.79H66.8713V51.16L70.1113 46.52H71.2913V51.04H72.5013V51.79H71.2913V53.5H70.4113ZM67.8213 51.04H70.4113V48.68L70.4313 47.26L69.6413 48.45L67.8213 51.04ZM81.8591 55.4V46.16H82.7191V55.4H81.8591ZM92.4669 53.5V52.87C93.4069 52.1567 94.1602 51.5333 94.7269 51C95.3002 50.4667 95.7169 49.9967 95.9769 49.59C96.2369 49.1767 96.3669 48.8 96.3669 48.46C96.3669 48.0667 96.2469 47.75 96.0069 47.51C95.7669 47.27 95.4235 47.15 94.9769 47.15C94.5235 47.15 94.1469 47.2867 93.8469 47.56C93.5535 47.8333 93.3902 48.22 93.3569 48.72H92.4869C92.5202 48.2267 92.6469 47.8067 92.8669 47.46C93.0869 47.1133 93.3802 46.85 93.7469 46.67C94.1135 46.49 94.5269 46.4 94.9869 46.4C95.4669 46.4 95.8769 46.4867 96.2169 46.66C96.5569 46.8267 96.8169 47.06 96.9969 47.36C97.1769 47.66 97.2669 48.01 97.2669 48.41C97.2669 48.85 97.1502 49.29 96.9169 49.73C96.6835 50.1633 96.3069 50.6267 95.7869 51.12C95.2669 51.6067 94.5802 52.15 93.7269 52.75H97.2869V53.5H92.4669ZM101.271 53.62C100.824 53.62 100.411 53.53 100.031 53.35C99.6574 53.17 99.3574 52.91 99.1308 52.57C98.9041 52.2233 98.7874 51.8 98.7808 51.3H99.6608C99.6674 51.6133 99.7408 51.8867 99.8808 52.12C100.027 52.3533 100.221 52.5367 100.461 52.67C100.701 52.7967 100.971 52.86 101.271 52.86C101.737 52.86 102.114 52.74 102.401 52.5C102.687 52.2533 102.831 51.9367 102.831 51.55C102.831 51.2567 102.747 51.0133 102.581 50.82C102.421 50.62 102.204 50.47 101.931 50.37C101.657 50.27 101.354 50.22 101.021 50.22H100.641V49.5H101.051C101.357 49.5 101.617 49.4433 101.831 49.33C102.044 49.2167 102.207 49.0667 102.321 48.88C102.441 48.6867 102.501 48.48 102.501 48.26C102.501 47.9267 102.384 47.66 102.151 47.46C101.917 47.2533 101.617 47.15 101.251 47.15C100.817 47.15 100.457 47.28 100.171 47.54C99.8908 47.7933 99.7374 48.1667 99.7108 48.66H98.8408C98.8674 48.1533 98.9941 47.7333 99.2208 47.4C99.4541 47.06 99.7474 46.81 100.101 46.65C100.461 46.4833 100.847 46.4 101.261 46.4C101.687 46.4 102.061 46.4767 102.381 46.63C102.701 46.7767 102.951 46.9833 103.131 47.25C103.317 47.5167 103.411 47.83 103.411 48.19C103.411 48.4367 103.354 48.6733 103.241 48.9C103.127 49.1267 102.974 49.32 102.781 49.48C102.594 49.6333 102.374 49.74 102.121 49.8C102.427 49.8467 102.701 49.95 102.941 50.11C103.187 50.2633 103.381 50.4633 103.521 50.71C103.661 50.9567 103.731 51.24 103.731 51.56C103.731 51.96 103.627 52.3167 103.421 52.63C103.221 52.9433 102.937 53.1867 102.571 53.36C102.204 53.5333 101.771 53.62 101.271 53.62ZM113.339 53.5L111.139 48.02H112.019L113.409 51.5L113.819 52.72L114.229 51.5L115.609 48.02H116.469L114.269 53.5H113.339ZM120.173 53.62C119.613 53.62 119.129 53.5067 118.723 53.28C118.316 53.0467 118.003 52.7167 117.783 52.29C117.569 51.8567 117.463 51.3433 117.463 50.75C117.463 50.1567 117.573 49.65 117.793 49.23C118.013 48.8033 118.326 48.4767 118.733 48.25C119.139 48.0167 119.626 47.9 120.193 47.9C121.046 47.9 121.689 48.1333 122.123 48.6C122.556 49.0667 122.749 49.71 122.703 50.53H118.123V49.88L121.853 49.9C121.826 49.5 121.663 49.1833 121.363 48.95C121.063 48.71 120.673 48.59 120.193 48.59C119.593 48.59 119.126 48.7833 118.793 49.17C118.459 49.55 118.293 50.0833 118.293 50.77C118.293 51.2033 118.366 51.5833 118.513 51.91C118.666 52.23 118.883 52.48 119.163 52.66C119.443 52.8333 119.779 52.92 120.173 52.92C120.639 52.92 121.029 52.81 121.343 52.59C121.663 52.3633 121.859 52.0567 121.933 51.67H122.763C122.663 52.2767 122.383 52.7533 121.923 53.1C121.463 53.4467 120.879 53.62 120.173 53.62ZM128.026 53.5V50.03C128.026 49.6033 127.903 49.26 127.656 49C127.416 48.74 127.096 48.61 126.696 48.61C126.25 48.61 125.853 48.78 125.506 49.12C125.16 49.4533 124.906 49.9633 124.746 50.65L124.596 49.59C124.796 49.0367 125.093 48.6167 125.486 48.33C125.886 48.0433 126.33 47.9 126.816 47.9C127.23 47.9 127.586 47.99 127.886 48.17C128.193 48.3433 128.43 48.5867 128.596 48.9C128.77 49.2133 128.856 49.5833 128.856 50.01V53.5H128.026ZM124.026 53.5V46.16H124.856V53.5H124.026ZM132.37 53.5V48.02H133.2V53.5H132.37ZM130.27 53.5V52.83H135.12V53.5H130.27ZM131.01 48.69V48.02H132.79V48.69H131.01ZM132.3 47.01V46.05H133.26V47.01H132.3ZM139.204 53.62C138.644 53.62 138.158 53.5033 137.744 53.27C137.331 53.03 137.011 52.6967 136.784 52.27C136.558 51.8433 136.444 51.34 136.444 50.76C136.444 50.18 136.561 49.6767 136.794 49.25C137.028 48.8167 137.351 48.4833 137.764 48.25C138.178 48.0167 138.661 47.9 139.214 47.9C139.641 47.9 140.028 47.98 140.374 48.14C140.728 48.3 141.014 48.5267 141.234 48.82C141.454 49.1067 141.584 49.45 141.624 49.85H140.794C140.734 49.4567 140.561 49.15 140.274 48.93C139.988 48.71 139.634 48.6 139.214 48.6C138.828 48.6 138.488 48.69 138.194 48.87C137.901 49.0433 137.674 49.29 137.514 49.61C137.354 49.93 137.274 50.3133 137.274 50.76C137.274 51.4267 137.448 51.9533 137.794 52.34C138.148 52.7267 138.618 52.92 139.204 52.92C139.458 52.92 139.694 52.87 139.914 52.77C140.141 52.67 140.334 52.5267 140.494 52.34C140.654 52.1467 140.764 51.9233 140.824 51.67H141.654C141.588 52.0767 141.434 52.4233 141.194 52.71C140.954 52.9967 140.661 53.22 140.314 53.38C139.974 53.54 139.604 53.62 139.204 53.62ZM144.918 53.5V46.17H145.738V53.5H144.918ZM142.818 53.5V52.83H147.858V53.5H142.818ZM143.548 46.84V46.17H145.328V46.84H143.548ZM151.692 53.62C151.132 53.62 150.649 53.5067 150.242 53.28C149.835 53.0467 149.522 52.7167 149.302 52.29C149.089 51.8567 148.982 51.3433 148.982 50.75C148.982 50.1567 149.092 49.65 149.312 49.23C149.532 48.8033 149.845 48.4767 150.252 48.25C150.659 48.0167 151.145 47.9 151.712 47.9C152.565 47.9 153.209 48.1333 153.642 48.6C154.075 49.0667 154.269 49.71 154.222 50.53H149.642V49.88L153.372 49.9C153.345 49.5 153.182 49.1833 152.882 48.95C152.582 48.71 152.192 48.59 151.712 48.59C151.112 48.59 150.645 48.7833 150.312 49.17C149.979 49.55 149.812 50.0833 149.812 50.77C149.812 51.2033 149.885 51.5833 150.032 51.91C150.185 52.23 150.402 52.48 150.682 52.66C150.962 52.8333 151.299 52.92 151.692 52.92C152.159 52.92 152.549 52.81 152.862 52.59C153.182 52.3633 153.379 52.0567 153.452 51.67H154.282C154.182 52.2767 153.902 52.7533 153.442 53.1C152.982 53.4467 152.399 53.62 151.692 53.62ZM158.086 53.62C157.606 53.62 157.186 53.5367 156.826 53.37C156.466 53.2033 156.186 52.9667 155.986 52.66C155.793 52.3467 155.693 51.9733 155.686 51.54H156.476C156.483 51.98 156.633 52.3267 156.926 52.58C157.219 52.8333 157.603 52.96 158.076 52.96C158.496 52.96 158.833 52.88 159.086 52.72C159.339 52.56 159.466 52.3433 159.466 52.07C159.466 51.8567 159.396 51.6867 159.256 51.56C159.123 51.4333 158.946 51.3333 158.726 51.26C158.513 51.1867 158.273 51.1233 158.006 51.07C157.746 51.0167 157.486 50.9567 157.226 50.89C156.966 50.8233 156.726 50.74 156.506 50.64C156.293 50.5333 156.116 50.39 155.976 50.21C155.843 50.0233 155.776 49.7833 155.776 49.49C155.776 49.1833 155.863 48.9133 156.036 48.68C156.209 48.44 156.456 48.25 156.776 48.11C157.103 47.97 157.489 47.9 157.936 47.9C158.616 47.9 159.156 48.0567 159.556 48.37C159.963 48.6833 160.183 49.11 160.216 49.65H159.426C159.406 49.3033 159.263 49.0367 158.996 48.85C158.736 48.6567 158.383 48.56 157.936 48.56C157.503 48.56 157.173 48.6467 156.946 48.82C156.726 48.9933 156.616 49.2067 156.616 49.46C156.616 49.6533 156.683 49.8067 156.816 49.92C156.949 50.0267 157.126 50.1133 157.346 50.18C157.566 50.24 157.806 50.2933 158.066 50.34C158.333 50.38 158.596 50.4333 158.856 50.5C159.116 50.5667 159.353 50.66 159.566 50.78C159.786 50.8933 159.963 51.05 160.096 51.25C160.229 51.4433 160.296 51.7 160.296 52.02C160.296 52.52 160.093 52.9133 159.686 53.2C159.286 53.48 158.753 53.62 158.086 53.62Z" fill="#808080"/>
<path d="M19.25 73.62C18.69 73.62 18.21 73.4733 17.81 73.18C17.4167 72.88 17.1167 72.46 16.91 71.92C16.7033 71.38 16.6 70.7433 16.6 70.01C16.6 69.27 16.7033 68.63 16.91 68.09C17.1167 67.55 17.4167 67.1333 17.81 66.84C18.21 66.5467 18.69 66.4 19.25 66.4C19.8167 66.4 20.2933 66.5467 20.68 66.84C21.0733 67.1333 21.3733 67.55 21.58 68.09C21.7867 68.6233 21.89 69.2633 21.89 70.01C21.89 70.75 21.7867 71.39 21.58 71.93C21.3733 72.47 21.0733 72.8867 20.68 73.18C20.2933 73.4733 19.8167 73.62 19.25 73.62ZM19.25 72.87C19.8233 72.87 20.2567 72.6167 20.55 72.11C20.8433 71.6033 20.99 70.9033 20.99 70.01C20.99 69.11 20.8433 68.41 20.55 67.91C20.2567 67.4033 19.8233 67.15 19.25 67.15C18.6767 67.15 18.2433 67.4033 17.95 67.91C17.6567 68.41 17.51 69.11 17.51 70.01C17.51 70.9033 17.6567 71.6033 17.95 72.11C18.2433 72.6167 18.6767 72.87 19.25 72.87ZM25.5539 73.62C24.9939 73.62 24.5139 73.4733 24.1139 73.18C23.7206 72.88 23.4206 72.46 23.2139 71.92C23.0072 71.38 22.9039 70.7433 22.9039 70.01C22.9039 69.27 23.0072 68.63 23.2139 68.09C23.4206 67.55 23.7206 67.1333 24.1139 66.84C24.5139 66.5467 24.9939 66.4 25.5539 66.4C26.1206 66.4 26.5972 66.5467 26.9839 66.84C27.3772 67.1333 27.6772 67.55 27.8839 68.09C28.0906 68.6233 28.1939 69.2633 28.1939 70.01C28.1939 70.75 28.0906 71.39 27.8839 71.93C27.6772 72.47 27.3772 72.8867 26.9839 73.18C26.5972 73.4733 26.1206 73.62 25.5539 73.62ZM25.5539 72.87C26.1272 72.87 26.5606 72.6167 26.8539 72.11C27.1472 71.6033 27.2939 70.9033 27.2939 70.01C27.2939 69.11 27.1472 68.41 26.8539 67.91C26.5606 67.4033 26.1272 67.15 25.5539 67.15C24.9806 67.15 24.5472 67.4033 24.2539 67.91C23.9606 68.41 23.8139 69.11 23.8139 70.01C23.8139 70.9033 23.9606 71.6033 24.2539 72.11C24.5472 72.6167 24.9806 72.87 25.5539 72.87ZM31.3278 69.7V68.63H32.3878V69.7H31.3278ZM31.3278 73.5V72.43H32.3878V73.5H31.3278ZM38.1617 73.62C37.6017 73.62 37.1217 73.4733 36.7217 73.18C36.3284 72.88 36.0284 72.46 35.8217 71.92C35.6151 71.38 35.5117 70.7433 35.5117 70.01C35.5117 69.27 35.6151 68.63 35.8217 68.09C36.0284 67.55 36.3284 67.1333 36.7217 66.84C37.1217 66.5467 37.6017 66.4 38.1617 66.4C38.7284 66.4 39.2051 66.5467 39.5917 66.84C39.9851 67.1333 40.2851 67.55 40.4917 68.09C40.6984 68.6233 40.8017 69.2633 40.8017 70.01C40.8017 70.75 40.6984 71.39 40.4917 71.93C40.2851 72.47 39.9851 72.8867 39.5917 73.18C39.2051 73.4733 38.7284 73.62 38.1617 73.62ZM38.1617 72.87C38.7351 72.87 39.1684 72.6167 39.4617 72.11C39.7551 71.6033 39.9017 70.9033 39.9017 70.01C39.9017 69.11 39.7551 68.41 39.4617 67.91C39.1684 67.4033 38.7351 67.15 38.1617 67.15C37.5884 67.15 37.1551 67.4033 36.8617 67.91C36.5684 68.41 36.4217 69.11 36.4217 70.01C36.4217 70.9033 36.5684 71.6033 36.8617 72.11C37.1551 72.6167 37.5884 72.87 38.1617 72.87ZM44.5256 73.5V68.96L44.5556 67.56L43.4456 68.47L42.1656 69.49V68.45L44.7556 66.52H45.3856V73.5H44.5256ZM42.1656 73.5V72.75H46.9156V73.5H42.1656ZM50.2395 69.7V68.63H51.2995V69.7H50.2395ZM50.2395 73.5V72.43H51.2995V73.5H50.2395ZM57.1334 73.5V68.96L57.1634 67.56L56.0534 68.47L54.7734 69.49V68.45L57.3634 66.52H57.9934V73.5H57.1334ZM54.7734 73.5V72.75H59.5234V73.5H54.7734ZM63.4473 73.62C63.0007 73.62 62.5873 73.53 62.2073 73.35C61.834 73.17 61.534 72.91 61.3073 72.57C61.0807 72.2233 60.964 71.8 60.9573 71.3H61.8373C61.844 71.6133 61.9173 71.8867 62.0573 72.12C62.204 72.3533 62.3973 72.5367 62.6373 72.67C62.8773 72.7967 63.1473 72.86 63.4473 72.86C63.914 72.86 64.2907 72.74 64.5773 72.5C64.864 72.2533 65.0073 71.9367 65.0073 71.55C65.0073 71.2567 64.924 71.0133 64.7573 70.82C64.5973 70.62 64.3807 70.47 64.1073 70.37C63.834 70.27 63.5307 70.22 63.1973 70.22H62.8173V69.5H63.2273C63.534 69.5 63.794 69.4433 64.0073 69.33C64.2207 69.2167 64.384 69.0667 64.4973 68.88C64.6173 68.6867 64.6773 68.48 64.6773 68.26C64.6773 67.9267 64.5607 67.66 64.3273 67.46C64.094 67.2533 63.794 67.15 63.4273 67.15C62.994 67.15 62.634 67.28 62.3473 67.54C62.0673 67.7933 61.914 68.1667 61.8873 68.66H61.0173C61.044 68.1533 61.1707 67.7333 61.3973 67.4C61.6307 67.06 61.924 66.81 62.2773 66.65C62.6373 66.4833 63.024 66.4 63.4373 66.4C63.864 66.4 64.2373 66.4767 64.5573 66.63C64.8773 66.7767 65.1273 66.9833 65.3073 67.25C65.494 67.5167 65.5873 67.83 65.5873 68.19C65.5873 68.4367 65.5307 68.6733 65.4173 68.9C65.304 69.1267 65.1507 69.32 64.9573 69.48C64.7707 69.6333 64.5507 69.74 64.2973 69.8C64.604 69.8467 64.8773 69.95 65.1173 70.11C65.364 70.2633 65.5573 70.4633 65.6973 70.71C65.8373 70.9567 65.9073 71.24 65.9073 71.56C65.9073 71.96 65.804 72.3167 65.5973 72.63C65.3973 72.9433 65.114 73.1867 64.7473 73.36C64.3807 73.5333 63.9473 73.62 63.4473 73.62Z" fill="#222222"/>
<path d="M88.593 73.62C88.033 73.62 87.553 73.4733 87.153 73.18C86.7596 72.88 86.4596 72.46 86.253 71.92C86.0463 71.38 85.943 70.7433 85.943 70.01C85.943 69.27 86.0463 68.63 86.253 68.09C86.4596 67.55 86.7596 67.1333 87.153 66.84C87.553 66.5467 88.033 66.4 88.593 66.4C89.1596 66.4 89.6363 66.5467 90.023 66.84C90.4163 67.1333 90.7163 67.55 90.923 68.09C91.1296 68.6233 91.233 69.2633 91.233 70.01C91.233 70.75 91.1296 71.39 90.923 71.93C90.7163 72.47 90.4163 72.8867 90.023 73.18C89.6363 73.4733 89.1596 73.62 88.593 73.62ZM88.593 72.87C89.1663 72.87 89.5996 72.6167 89.893 72.11C90.1863 71.6033 90.333 70.9033 90.333 70.01C90.333 69.11 90.1863 68.41 89.893 67.91C89.5996 67.4033 89.1663 67.15 88.593 67.15C88.0196 67.15 87.5863 67.4033 87.293 67.91C86.9996 68.41 86.853 69.11 86.853 70.01C86.853 70.9033 86.9996 71.6033 87.293 72.11C87.5863 72.6167 88.0196 72.87 88.593 72.87ZM94.9569 73.5V68.96L94.9869 67.56L93.8769 68.47L92.5969 69.49V68.45L95.1869 66.52H95.8169V73.5H94.9569ZM92.5969 73.5V72.75H97.3469V73.5H92.5969ZM100.671 69.7V68.63H101.731V69.7H100.671ZM100.671 73.5V72.43H101.731V73.5H100.671ZM107.505 73.62C106.945 73.62 106.465 73.4733 106.065 73.18C105.671 72.88 105.371 72.46 105.165 71.92C104.958 71.38 104.855 70.7433 104.855 70.01C104.855 69.27 104.958 68.63 105.165 68.09C105.371 67.55 105.671 67.1333 106.065 66.84C106.465 66.5467 106.945 66.4 107.505 66.4C108.071 66.4 108.548 66.5467 108.935 66.84C109.328 67.1333 109.628 67.55 109.835 68.09C110.041 68.6233 110.145 69.2633 110.145 70.01C110.145 70.75 110.041 71.39 109.835 71.93C109.628 72.47 109.328 72.8867 108.935 73.18C108.548 73.4733 108.071 73.62 107.505 73.62ZM107.505 72.87C108.078 72.87 108.511 72.6167 108.805 72.11C109.098 71.6033 109.245 70.9033 109.245 70.01C109.245 69.11 109.098 68.41 108.805 67.91C108.511 67.4033 108.078 67.15 107.505 67.15C106.931 67.15 106.498 67.4033 106.205 67.91C105.911 68.41 105.765 69.11 105.765 70.01C105.765 70.9033 105.911 71.6033 106.205 72.11C106.498 72.6167 106.931 72.87 107.505 72.87ZM113.809 73.62C113.249 73.62 112.769 73.4733 112.369 73.18C111.975 72.88 111.675 72.46 111.469 71.92C111.262 71.38 111.159 70.7433 111.159 70.01C111.159 69.27 111.262 68.63 111.469 68.09C111.675 67.55 111.975 67.1333 112.369 66.84C112.769 66.5467 113.249 66.4 113.809 66.4C114.375 66.4 114.852 66.5467 115.239 66.84C115.632 67.1333 115.932 67.55 116.139 68.09C116.345 68.6233 116.449 69.2633 116.449 70.01C116.449 70.75 116.345 71.39 116.139 71.93C115.932 72.47 115.632 72.8867 115.239 73.18C114.852 73.4733 114.375 73.62 113.809 73.62ZM113.809 72.87C114.382 72.87 114.815 72.6167 115.109 72.11C115.402 71.6033 115.549 70.9033 115.549 70.01C115.549 69.11 115.402 68.41 115.109 67.91C114.815 67.4033 114.382 67.15 113.809 67.15C113.235 67.15 112.802 67.4033 112.509 67.91C112.215 68.41 112.069 69.11 112.069 70.01C112.069 70.9033 112.215 71.6033 112.509 72.11C112.802 72.6167 113.235 72.87 113.809 72.87ZM119.583 69.7V68.63H120.643V69.7H119.583ZM119.583 73.5V72.43H120.643V73.5H119.583ZM126.416 73.62C125.856 73.62 125.376 73.4733 124.976 73.18C124.583 72.88 124.283 72.46 124.076 71.92C123.87 71.38 123.766 70.7433 123.766 70.01C123.766 69.27 123.87 68.63 124.076 68.09C124.283 67.55 124.583 67.1333 124.976 66.84C125.376 66.5467 125.856 66.4 126.416 66.4C126.983 66.4 127.46 66.5467 127.846 66.84C128.24 67.1333 128.54 67.55 128.746 68.09C128.953 68.6233 129.056 69.2633 129.056 70.01C129.056 70.75 128.953 71.39 128.746 71.93C128.54 72.47 128.24 72.8867 127.846 73.18C127.46 73.4733 126.983 73.62 126.416 73.62ZM126.416 72.87C126.99 72.87 127.423 72.6167 127.716 72.11C128.01 71.6033 128.156 70.9033 128.156 70.01C128.156 69.11 128.01 68.41 127.716 67.91C127.423 67.4033 126.99 67.15 126.416 67.15C125.843 67.15 125.41 67.4033 125.116 67.91C124.823 68.41 124.676 69.11 124.676 70.01C124.676 70.9033 124.823 71.6033 125.116 72.11C125.41 72.6167 125.843 72.87 126.416 72.87ZM132.72 73.62C132.16 73.62 131.68 73.4733 131.28 73.18C130.887 72.88 130.587 72.46 130.38 71.92C130.174 71.38 130.07 70.7433 130.07 70.01C130.07 69.27 130.174 68.63 130.38 68.09C130.587 67.55 130.887 67.1333 131.28 66.84C131.68 66.5467 132.16 66.4 132.72 66.4C133.287 66.4 133.764 66.5467 134.15 66.84C134.544 67.1333 134.844 67.55 135.05 68.09C135.257 68.6233 135.36 69.2633 135.36 70.01C135.36 70.75 135.257 71.39 135.05 71.93C134.844 72.47 134.544 72.8867 134.15 73.18C133.764 73.4733 133.287 73.62 132.72 73.62ZM132.72 72.87C133.294 72.87 133.727 72.6167 134.02 72.11C134.314 71.6033 134.46 70.9033 134.46 70.01C134.46 69.11 134.314 68.41 134.02 67.91C133.727 67.4033 133.294 67.15 132.72 67.15C132.147 67.15 131.714 67.4033 131.42 67.91C131.127 68.41 130.98 69.11 130.98 70.01C130.98 70.9033 131.127 71.6033 131.42 72.11C131.714 72.6167 132.147 72.87 132.72 72.87Z" fill="#808080"/>
<path d="M75.5552 75.4V66.16H76.4152V75.4H75.5552Z" fill="#666666"/>
<rect x="16.5" y="96.5" width="271" height="31" fill="white"/>
<rect x="16.5" y="96.5" width="271" height="31" stroke="#222222"/>
<path d="M104.248 112.966V117.5H102.762V109.864H104.189V111.107H104.283C104.459 110.702 104.734 110.377 105.109 110.132C105.486 109.887 105.962 109.764 106.535 109.764C107.056 109.764 107.512 109.874 107.903 110.092C108.294 110.308 108.597 110.629 108.812 111.057C109.028 111.484 109.136 112.013 109.136 112.643V117.5H107.649V112.822C107.649 112.268 107.505 111.836 107.217 111.524C106.928 111.209 106.532 111.052 106.028 111.052C105.684 111.052 105.377 111.126 105.109 111.276C104.843 111.425 104.633 111.643 104.477 111.932C104.325 112.217 104.248 112.562 104.248 112.966ZM114.42 117.654C113.668 117.654 113.02 117.493 112.476 117.172C111.936 116.847 111.519 116.391 111.224 115.805C110.932 115.215 110.786 114.524 110.786 113.732C110.786 112.949 110.932 112.26 111.224 111.663C111.519 111.067 111.93 110.601 112.457 110.266C112.987 109.932 113.607 109.764 114.316 109.764C114.747 109.764 115.164 109.835 115.569 109.978C115.973 110.121 116.336 110.344 116.658 110.649C116.979 110.954 117.233 111.35 117.418 111.837C117.604 112.321 117.697 112.91 117.697 113.602V114.129H111.626V113.016H116.24C116.24 112.625 116.16 112.278 116.001 111.977C115.842 111.672 115.619 111.431 115.33 111.256C115.045 111.08 114.71 110.992 114.326 110.992C113.908 110.992 113.544 111.095 113.232 111.3C112.924 111.503 112.685 111.768 112.516 112.096C112.351 112.421 112.268 112.774 112.268 113.155V114.025C112.268 114.535 112.357 114.969 112.536 115.327C112.718 115.685 112.972 115.959 113.297 116.148C113.622 116.333 114.001 116.426 114.435 116.426C114.717 116.426 114.974 116.386 115.206 116.307C115.438 116.224 115.638 116.101 115.807 115.939C115.976 115.777 116.106 115.576 116.195 115.337L117.602 115.591C117.489 116.005 117.287 116.368 116.996 116.68C116.707 116.988 116.344 117.228 115.907 117.401C115.473 117.57 114.977 117.654 114.42 117.654ZM120.988 117.5L118.741 109.864H120.277L121.773 115.472H121.848L123.349 109.864H124.886L126.377 115.447H126.452L127.938 109.864H129.474L127.232 117.5H125.716L124.165 111.987H124.05L122.499 117.5H120.988ZM140.312 111.728L138.965 111.967C138.909 111.794 138.819 111.63 138.697 111.474C138.577 111.319 138.415 111.191 138.209 111.092C138.004 110.992 137.747 110.942 137.439 110.942C137.018 110.942 136.667 111.037 136.385 111.226C136.103 111.411 135.962 111.652 135.962 111.947C135.962 112.202 136.057 112.407 136.246 112.563C136.435 112.719 136.739 112.847 137.16 112.946L138.373 113.224C139.076 113.387 139.6 113.637 139.945 113.975C140.289 114.313 140.462 114.752 140.462 115.293C140.462 115.75 140.329 116.158 140.064 116.516C139.802 116.87 139.436 117.149 138.965 117.351C138.498 117.553 137.956 117.654 137.339 117.654C136.484 117.654 135.787 117.472 135.246 117.107C134.706 116.739 134.375 116.217 134.252 115.541L135.689 115.322C135.778 115.697 135.962 115.98 136.241 116.173C136.519 116.362 136.882 116.456 137.329 116.456C137.817 116.456 138.206 116.355 138.498 116.153C138.789 115.947 138.935 115.697 138.935 115.402C138.935 115.163 138.846 114.963 138.667 114.8C138.491 114.638 138.221 114.515 137.856 114.433L136.564 114.149C135.851 113.987 135.324 113.728 134.983 113.374C134.645 113.019 134.476 112.57 134.476 112.026C134.476 111.576 134.602 111.181 134.854 110.843C135.105 110.505 135.454 110.241 135.898 110.053C136.342 109.86 136.851 109.764 137.424 109.764C138.249 109.764 138.899 109.943 139.373 110.301C139.847 110.656 140.16 111.131 140.312 111.728ZM142.096 117.5V109.864H143.582V117.5H142.096ZM142.847 108.685C142.588 108.685 142.366 108.599 142.18 108.427C141.998 108.251 141.907 108.042 141.907 107.8C141.907 107.555 141.998 107.346 142.18 107.174C142.366 106.998 142.588 106.911 142.847 106.911C143.105 106.911 143.326 106.998 143.508 107.174C143.694 107.346 143.786 107.555 143.786 107.8C143.786 108.042 143.694 108.251 143.508 108.427C143.326 108.599 143.105 108.685 142.847 108.685ZM145.582 117.5V109.864H147.009V111.107H147.104C147.263 110.686 147.523 110.357 147.884 110.122C148.245 109.884 148.678 109.764 149.182 109.764C149.692 109.764 150.12 109.884 150.464 110.122C150.812 110.361 151.069 110.689 151.235 111.107H151.315C151.497 110.699 151.787 110.374 152.185 110.132C152.582 109.887 153.056 109.764 153.606 109.764C154.299 109.764 154.864 109.981 155.302 110.415C155.743 110.85 155.963 111.504 155.963 112.379V117.5H154.476V112.518C154.476 112.001 154.336 111.627 154.054 111.395C153.772 111.163 153.436 111.047 153.045 111.047C152.561 111.047 152.185 111.196 151.916 111.494C151.648 111.789 151.513 112.169 151.513 112.633V117.5H150.032V112.424C150.032 112.01 149.903 111.677 149.644 111.425C149.386 111.173 149.049 111.047 148.635 111.047C148.353 111.047 148.093 111.121 147.854 111.271C147.619 111.416 147.428 111.62 147.283 111.882C147.14 112.144 147.069 112.447 147.069 112.792V117.5H145.582ZM162.793 114.333V109.864H164.284V117.5H162.823V116.178H162.743C162.567 116.585 162.286 116.925 161.898 117.197C161.513 117.465 161.034 117.599 160.461 117.599C159.97 117.599 159.536 117.492 159.158 117.276C158.784 117.058 158.489 116.734 158.274 116.307C158.061 115.879 157.955 115.351 157.955 114.721V109.864H159.442V114.542C159.442 115.062 159.586 115.477 159.874 115.785C160.163 116.093 160.537 116.247 160.998 116.247C161.276 116.247 161.553 116.178 161.828 116.038C162.107 115.899 162.337 115.689 162.519 115.407C162.705 115.125 162.796 114.767 162.793 114.333ZM167.768 107.318V117.5H166.282V107.318H167.768ZM171.99 117.669C171.506 117.669 171.069 117.58 170.678 117.401C170.287 117.218 169.977 116.955 169.748 116.61C169.523 116.265 169.41 115.843 169.41 115.342C169.41 114.911 169.493 114.557 169.658 114.278C169.824 114 170.048 113.78 170.33 113.617C170.611 113.455 170.926 113.332 171.274 113.249C171.622 113.166 171.977 113.103 172.338 113.06C172.796 113.007 173.167 112.964 173.452 112.931C173.737 112.895 173.944 112.837 174.073 112.757C174.203 112.678 174.267 112.548 174.267 112.369V112.335C174.267 111.9 174.145 111.564 173.899 111.325C173.657 111.087 173.296 110.967 172.815 110.967C172.315 110.967 171.921 111.078 171.632 111.3C171.347 111.519 171.15 111.763 171.041 112.031L169.644 111.713C169.809 111.249 170.051 110.875 170.369 110.589C170.691 110.301 171.06 110.092 171.478 109.963C171.896 109.83 172.335 109.764 172.796 109.764C173.1 109.764 173.424 109.801 173.765 109.874C174.11 109.943 174.431 110.072 174.729 110.261C175.031 110.45 175.278 110.72 175.47 111.072C175.662 111.42 175.759 111.872 175.759 112.429V117.5H174.307V116.456H174.247C174.151 116.648 174.007 116.837 173.815 117.023C173.622 117.208 173.376 117.362 173.074 117.485C172.772 117.608 172.411 117.669 171.99 117.669ZM172.313 116.476C172.724 116.476 173.076 116.395 173.367 116.232C173.662 116.07 173.886 115.858 174.038 115.596C174.194 115.331 174.272 115.047 174.272 114.746V113.761C174.219 113.814 174.116 113.864 173.964 113.911C173.815 113.954 173.644 113.992 173.452 114.025C173.26 114.055 173.072 114.083 172.89 114.109C172.708 114.133 172.555 114.152 172.433 114.169C172.144 114.205 171.881 114.267 171.642 114.353C171.407 114.439 171.218 114.563 171.075 114.726C170.936 114.885 170.867 115.097 170.867 115.362C170.867 115.73 171.002 116.009 171.274 116.197C171.546 116.383 171.892 116.476 172.313 116.476ZM181.303 109.864V111.057H177.132V109.864H181.303ZM178.251 108.034H179.737V115.258C179.737 115.546 179.78 115.763 179.866 115.909C179.953 116.052 180.064 116.149 180.199 116.202C180.339 116.252 180.489 116.277 180.652 116.277C180.771 116.277 180.876 116.269 180.965 116.252C181.055 116.236 181.124 116.222 181.174 116.212L181.442 117.44C181.356 117.473 181.234 117.507 181.074 117.54C180.915 117.576 180.717 117.596 180.478 117.599C180.087 117.606 179.722 117.536 179.384 117.391C179.046 117.245 178.773 117.019 178.564 116.714C178.355 116.41 178.251 116.027 178.251 115.566V108.034ZM182.948 117.5V109.864H184.434V117.5H182.948ZM183.698 108.685C183.44 108.685 183.218 108.599 183.032 108.427C182.85 108.251 182.759 108.042 182.759 107.8C182.759 107.555 182.85 107.346 183.032 107.174C183.218 106.998 183.44 106.911 183.698 106.911C183.957 106.911 184.177 106.998 184.359 107.174C184.545 107.346 184.638 107.555 184.638 107.8C184.638 108.042 184.545 108.251 184.359 108.427C184.177 108.599 183.957 108.685 183.698 108.685ZM189.65 117.654C188.935 117.654 188.31 117.49 187.776 117.162C187.243 116.834 186.828 116.375 186.533 115.785C186.238 115.195 186.091 114.505 186.091 113.717C186.091 112.924 186.238 112.232 186.533 111.638C186.828 111.045 187.243 110.585 187.776 110.256C188.31 109.928 188.935 109.764 189.65 109.764C190.366 109.764 190.991 109.928 191.525 110.256C192.058 110.585 192.473 111.045 192.768 111.638C193.063 112.232 193.21 112.924 193.21 113.717C193.21 114.505 193.063 115.195 192.768 115.785C192.473 116.375 192.058 116.834 191.525 117.162C190.991 117.49 190.366 117.654 189.65 117.654ZM189.655 116.406C190.119 116.406 190.504 116.284 190.809 116.038C191.114 115.793 191.339 115.467 191.485 115.059C191.634 114.651 191.709 114.202 191.709 113.712C191.709 113.224 191.634 112.777 191.485 112.369C191.339 111.958 191.114 111.629 190.809 111.38C190.504 111.131 190.119 111.007 189.655 111.007C189.188 111.007 188.8 111.131 188.492 111.38C188.187 111.629 187.96 111.958 187.811 112.369C187.665 112.777 187.592 113.224 187.592 113.712C187.592 114.202 187.665 114.651 187.811 115.059C187.96 115.467 188.187 115.793 188.492 116.038C188.8 116.284 189.188 116.406 189.655 116.406ZM196.356 112.966V117.5H194.869V109.864H196.296V111.107H196.391C196.566 110.702 196.841 110.377 197.216 110.132C197.594 109.887 198.069 109.764 198.643 109.764C199.163 109.764 199.619 109.874 200.01 110.092C200.401 110.308 200.704 110.629 200.92 111.057C201.135 111.484 201.243 112.013 201.243 112.643V117.5H199.756V112.822C199.756 112.268 199.612 111.836 199.324 111.524C199.036 111.209 198.64 111.052 198.136 111.052C197.791 111.052 197.484 111.126 197.216 111.276C196.951 111.425 196.74 111.643 196.585 111.932C196.432 112.217 196.356 112.562 196.356 112.966Z" fill="#222222"/>
</svg>
