<svg width="304" height="32" viewBox="0 0 304 32" fill="none" xmlns="http://www.w3.org/2000/svg">
<path d="M28.6602 20.65C28.6735 20.5367 28.6802 20.4233 28.6802 20.31C28.6802 17.55 26.4335 15.31 23.6735 15.31C23.5602 15.31 23.4535 15.3167 23.3468 15.33V10.6833H22.6802V21.3167H33.3202V20.65H28.6602ZM23.3468 20.65V15.99C23.4535 15.9833 23.5602 15.9767 23.6735 15.9767C26.0668 15.9767 28.0135 17.9167 28.0135 20.31C28.0135 20.4233 28.0068 20.5367 28.0002 20.65H23.3468Z" fill="#808080" stroke="#808080" stroke-width="0.333333" stroke-miterlimit="10"/>
<path d="M49.2273 14.0455L47.2102 19.5H46.358L44.3409 14.0455H45.25L46.7557 18.392H46.8125L48.3182 14.0455H49.2273ZM51.7725 19.6278C51.4269 19.6278 51.1132 19.5627 50.8315 19.4325C50.5498 19.3 50.3261 19.1094 50.1603 18.8608C49.9946 18.6098 49.9118 18.3068 49.9118 17.9517C49.9118 17.6392 49.9733 17.3859 50.0964 17.1918C50.2195 16.9953 50.3841 16.8414 50.59 16.7301C50.796 16.6188 51.0233 16.536 51.2718 16.4815C51.5228 16.4247 51.7749 16.3797 52.0282 16.3466C52.3597 16.304 52.6284 16.272 52.8343 16.2507C53.0427 16.227 53.1942 16.188 53.2889 16.1335C53.3859 16.0791 53.4345 15.9844 53.4345 15.8494V15.821C53.4345 15.4706 53.3386 15.1984 53.1468 15.0043C52.9574 14.8101 52.6698 14.7131 52.2839 14.7131C51.8838 14.7131 51.5701 14.8007 51.3429 14.9759C51.1156 15.151 50.9558 15.3381 50.8635 15.5369L50.068 15.2528C50.21 14.9214 50.3994 14.6634 50.6362 14.4787C50.8753 14.2917 51.1357 14.1615 51.4174 14.0881C51.7015 14.0123 51.9809 13.9744 52.2555 13.9744C52.4307 13.9744 52.6319 13.9957 52.8592 14.0384C53.0888 14.0786 53.3102 14.1626 53.5233 14.2905C53.7387 14.4183 53.9174 14.6113 54.0595 14.8693C54.2015 15.1274 54.2725 15.473 54.2725 15.9062V19.5H53.4345V18.7614H53.3919C53.335 18.8797 53.2404 19.0064 53.1078 19.1413C52.9752 19.2763 52.7988 19.3911 52.5787 19.4858C52.3585 19.5805 52.0898 19.6278 51.7725 19.6278ZM51.9004 18.875C52.2318 18.875 52.5112 18.8099 52.7385 18.6797C52.9681 18.5495 53.1409 18.3814 53.2569 18.1754C53.3753 17.9695 53.4345 17.7528 53.4345 17.5256V16.7585C53.399 16.8011 53.3208 16.8402 53.2001 16.8757C53.0817 16.9089 52.9444 16.9384 52.7882 16.9645C52.6343 16.9882 52.484 17.0095 52.3372 17.0284C52.1928 17.045 52.0756 17.0592 51.9856 17.071C51.7678 17.0994 51.5642 17.1456 51.3748 17.2095C51.1878 17.2711 51.0363 17.3646 50.9203 17.4901C50.8066 17.6132 50.7498 17.7812 50.7498 17.9943C50.7498 18.2855 50.8575 18.5057 51.073 18.6548C51.2908 18.8016 51.5666 18.875 51.9004 18.875ZM56.6403 12.2273V19.5H55.8022V12.2273H56.6403ZM61.6127 17.2699V14.0455H62.4508V19.5H61.6127V18.5767H61.5559C61.4281 18.8537 61.2292 19.0893 60.9593 19.2834C60.6895 19.4751 60.3485 19.571 59.9366 19.571C59.5957 19.571 59.2927 19.4964 59.0275 19.3473C58.7624 19.1958 58.554 18.9685 58.4025 18.6655C58.251 18.3601 58.1752 17.9754 58.1752 17.5114V14.0455H59.0133V17.4545C59.0133 17.8523 59.1246 18.1695 59.3471 18.4062C59.572 18.643 59.8585 18.7614 60.2065 18.7614C60.4148 18.7614 60.6267 18.7081 60.8422 18.6016C61.06 18.495 61.2422 18.3317 61.389 18.1115C61.5382 17.8913 61.6127 17.6108 61.6127 17.2699ZM66.2727 19.6136C65.7472 19.6136 65.2938 19.4976 64.9126 19.2656C64.5339 19.0312 64.2415 18.7045 64.0355 18.2855C63.8319 17.8641 63.7301 17.3741 63.7301 16.8153C63.7301 16.2566 63.8319 15.7642 64.0355 15.3381C64.2415 14.9096 64.5279 14.5758 64.8949 14.3366C65.2642 14.0952 65.6951 13.9744 66.1875 13.9744C66.4716 13.9744 66.7521 14.0218 67.0291 14.1165C67.3061 14.2112 67.5582 14.3651 67.7855 14.5781C68.0128 14.7888 68.1939 15.0682 68.3288 15.4162C68.4638 15.7642 68.5312 16.1927 68.5312 16.7017V17.0568H64.3267V16.3324H67.679C67.679 16.0246 67.6174 15.75 67.4943 15.5085C67.3736 15.267 67.2008 15.0765 66.9759 14.9368C66.7533 14.7971 66.4905 14.7273 66.1875 14.7273C65.8537 14.7273 65.5649 14.8101 65.321 14.9759C65.0795 15.1392 64.8937 15.3523 64.7635 15.6151C64.6333 15.8778 64.5682 16.1596 64.5682 16.4602V16.9432C64.5682 17.3551 64.6392 17.7043 64.7812 17.9908C64.9257 18.2749 65.1257 18.4915 65.3814 18.6406C65.6371 18.7874 65.9342 18.8608 66.2727 18.8608C66.4929 18.8608 66.6918 18.83 66.8693 18.7685C67.0492 18.7045 67.2043 18.6098 67.3345 18.4844C67.4647 18.3565 67.5653 18.1979 67.6364 18.0085L68.446 18.2358C68.3608 18.5104 68.2176 18.7519 68.0163 18.9602C67.8151 19.1662 67.5665 19.3272 67.2706 19.4432C66.9747 19.5568 66.642 19.6136 66.2727 19.6136Z" fill="#222222"/>
</svg>
