<svg width="304" height="179" viewBox="0 0 304 179" fill="none" xmlns="http://www.w3.org/2000/svg">
<path d="M304 177.5H0V178.5H304V177.5Z" fill="#E6E6E6"/>
<path d="M19.144 28V19.624H20.644V28H19.144ZM17.104 19.624H22.684V20.884H17.104V19.624ZM17.104 26.74H22.684V28H17.104V26.74ZM29.3247 28V23.86C29.3247 23.428 29.2047 23.084 28.9647 22.828C28.7327 22.572 28.4287 22.444 28.0527 22.444C27.6207 22.444 27.2287 22.6 26.8767 22.912C26.5327 23.216 26.2367 23.708 25.9887 24.388L25.7727 22.96C26.0367 22.376 26.3967 21.944 26.8527 21.664C27.3087 21.376 27.7967 21.232 28.3167 21.232C28.8207 21.232 29.2527 21.34 29.6127 21.556C29.9807 21.764 30.2607 22.06 30.4527 22.444C30.6527 22.82 30.7527 23.264 30.7527 23.776V28H29.3247ZM24.7047 28V21.376H26.0727L26.1327 22.768V28H24.7047ZM36.0494 28C35.6254 28 35.2614 27.912 34.9574 27.736C34.6534 27.56 34.4214 27.312 34.2614 26.992C34.1014 26.664 34.0214 26.284 34.0214 25.852V20.176L35.4614 19.456V25.852C35.4614 26.052 35.4894 26.228 35.5454 26.38C35.6014 26.532 35.7094 26.648 35.8694 26.728C36.0374 26.8 36.2774 26.836 36.5894 26.836H38.4734V28H36.0494ZM32.5454 22.54V21.376H37.3814V22.54H32.5454ZM44.8981 28L44.8381 26.596V23.62C44.8381 23.204 44.6981 22.876 44.4181 22.636C44.1381 22.396 43.7501 22.276 43.2541 22.276C42.7821 22.276 42.3941 22.384 42.0901 22.6C41.7941 22.816 41.6261 23.112 41.5861 23.488H40.1941C40.2341 23.016 40.3861 22.612 40.6501 22.276C40.9221 21.94 41.2821 21.684 41.7301 21.508C42.1861 21.324 42.7101 21.232 43.3021 21.232C43.9101 21.232 44.4341 21.328 44.8741 21.52C45.3221 21.712 45.6661 21.992 45.9061 22.36C46.1461 22.728 46.2661 23.176 46.2661 23.704V28H44.8981ZM42.5941 28.144C42.1621 28.144 41.7781 28.064 41.4421 27.904C41.1141 27.744 40.8581 27.516 40.6741 27.22C40.4901 26.924 40.3981 26.58 40.3981 26.188C40.3981 25.508 40.6621 24.98 41.1901 24.604C41.7181 24.22 42.4501 24.028 43.3861 24.028H45.0061V25.06L43.3381 25.072C42.8581 25.072 42.4821 25.164 42.2101 25.348C41.9381 25.524 41.8021 25.78 41.8021 26.116C41.8021 26.38 41.8981 26.592 42.0901 26.752C42.2901 26.912 42.5621 26.992 42.9061 26.992C43.3461 26.992 43.7381 26.876 44.0821 26.644C44.4341 26.404 44.7181 26.076 44.9341 25.66L45.0901 26.668C44.8821 27.156 44.5661 27.524 44.1421 27.772C43.7181 28.02 43.2021 28.144 42.5941 28.144ZM47.9268 28V19.156H49.3668V22.312L49.2828 24.196L50.5548 22.816L52.1028 21.376H53.9748L49.3668 25.696V28H47.9268ZM52.4268 28L50.1828 24.028L51.4668 23.452L54.0948 28H52.4268ZM58.9954 28.144C58.2994 28.144 57.6994 28.008 57.1954 27.736C56.6914 27.456 56.3034 27.056 56.0314 26.536C55.7674 26.016 55.6354 25.396 55.6354 24.676C55.6354 23.956 55.7714 23.34 56.0434 22.828C56.3154 22.308 56.7074 21.912 57.2194 21.64C57.7314 21.368 58.3434 21.232 59.0554 21.232C60.1594 21.232 60.9714 21.54 61.4914 22.156C62.0194 22.772 62.2474 23.616 62.1754 24.688H56.7754L56.7874 23.644L60.7114 23.656C60.6794 23.272 60.5114 22.964 60.2074 22.732C59.9034 22.5 59.5194 22.384 59.0554 22.384C58.3994 22.384 57.9034 22.588 57.5674 22.996C57.2314 23.404 57.0634 23.984 57.0634 24.736C57.0634 25.168 57.1394 25.556 57.2914 25.9C57.4434 26.236 57.6594 26.5 57.9394 26.692C58.2274 26.876 58.5794 26.968 58.9954 26.968C59.4674 26.968 59.8594 26.856 60.1714 26.632C60.4914 26.408 60.6874 26.108 60.7594 25.732H62.1994C62.1034 26.476 61.7674 27.064 61.1914 27.496C60.6234 27.928 59.8914 28.144 58.9954 28.144ZM74.2688 28V23.104L74.3528 21.376L72.9728 22.492L71.4968 23.668V21.928L74.6768 19.624H75.7808V28H74.2688ZM71.4968 28V26.74H77.6648V28H71.4968Z" fill="#222222"/>
<path fill-rule="evenodd" clip-rule="evenodd" d="M242.175 16.175C242.394 15.9562 242.691 15.8333 243 15.8333H255C255.309 15.8333 255.606 15.9562 255.825 16.175C256.044 16.3938 256.167 16.6905 256.167 16.9999V28.9999C256.167 29.3093 256.044 29.6061 255.825 29.8249C255.606 30.0437 255.309 30.1666 255 30.1666H253.5V30.9999C253.5 31.3093 253.377 31.6061 253.158 31.8249C252.939 32.0437 252.643 32.1666 252.333 32.1666H241C240.691 32.1666 240.394 32.0437 240.175 31.8249C239.956 31.6061 239.833 31.3093 239.833 30.9999V19.6666C239.833 19.3572 239.956 19.0604 240.175 18.8416C240.394 18.6228 240.691 18.4999 241 18.4999H241.833V16.9999C241.833 16.6905 241.956 16.3938 242.175 16.175ZM241.833 19.4999H241C240.956 19.4999 240.913 19.5175 240.882 19.5487C240.851 19.58 240.833 19.6224 240.833 19.6666V30.9999C240.833 31.0441 240.851 31.0865 240.882 31.1178C240.913 31.149 240.956 31.1666 241 31.1666H252.333C252.378 31.1666 252.42 31.149 252.451 31.1178C252.482 31.0865 252.5 31.0441 252.5 30.9999V30.1666H243C242.691 30.1666 242.394 30.0437 242.175 29.8249C241.956 29.6061 241.833 29.3093 241.833 28.9999V19.4999ZM243 29.1666C242.956 29.1666 242.913 29.149 242.882 29.1178C242.851 29.0865 242.833 29.0441 242.833 28.9999V16.9999C242.833 16.9557 242.851 16.9133 242.882 16.8821C242.913 16.8508 242.956 16.8333 243 16.8333H255C255.044 16.8333 255.087 16.8508 255.118 16.8821C255.149 16.9133 255.167 16.9557 255.167 16.9999V28.9999C255.167 29.0441 255.149 29.0865 255.118 29.1178C255.087 29.149 255.044 29.1666 255 29.1666H243Z" fill="#222222"/>
<path fill-rule="evenodd" clip-rule="evenodd" d="M249 20C249.276 20 249.5 20.0001 249.5 20.0001V22.5L252 22.5C252 22.5 252 22.7239 252 23C252 23.2761 252 23.5 252 23.5H249.5L249.5 26C249.5 26 249.276 26 249 26C248.724 26 248.5 26 248.5 26L248.5 23.5H246C246 23.5 246 23.2761 246 23C246 22.7239 246 22.5 246 22.5L248.5 22.5V20.0001C248.5 20.0001 248.724 20 249 20Z" fill="#222222"/>
<path fill-rule="evenodd" clip-rule="evenodd" d="M274.175 16.175C274.394 15.9562 274.691 15.8333 275 15.8333H287C287.309 15.8333 287.606 15.9562 287.825 16.175C288.044 16.3938 288.167 16.6905 288.167 16.9999V28.9999C288.167 29.3093 288.044 29.6061 287.825 29.8249C287.606 30.0437 287.309 30.1666 287 30.1666H285.5V30.9999C285.5 31.3093 285.377 31.6061 285.158 31.8249C284.939 32.0437 284.643 32.1666 284.333 32.1666H273C272.691 32.1666 272.394 32.0437 272.175 31.8249C271.956 31.6061 271.833 31.3093 271.833 30.9999V19.6666C271.833 19.3572 271.956 19.0604 272.175 18.8416C272.394 18.6228 272.691 18.4999 273 18.4999H273.833V16.9999C273.833 16.6905 273.956 16.3938 274.175 16.175ZM273.833 19.4999H273C272.956 19.4999 272.913 19.5175 272.882 19.5487C272.851 19.58 272.833 19.6224 272.833 19.6666V30.9999C272.833 31.0441 272.851 31.0865 272.882 31.1178C272.913 31.149 272.956 31.1666 273 31.1666H284.333C284.378 31.1666 284.42 31.149 284.451 31.1178C284.482 31.0865 284.5 31.0441 284.5 30.9999V30.1666H275C274.691 30.1666 274.394 30.0437 274.175 29.8249C273.956 29.6061 273.833 29.3093 273.833 28.9999V19.4999ZM275 29.1666C274.956 29.1666 274.913 29.149 274.882 29.1178C274.851 29.0865 274.833 29.0441 274.833 28.9999V16.9999C274.833 16.9557 274.851 16.9133 274.882 16.8821C274.913 16.8508 274.956 16.8333 275 16.8333H287C287.044 16.8333 287.087 16.8508 287.118 16.8821C287.149 16.9133 287.167 16.9557 287.167 16.9999V28.9999C287.167 29.0441 287.149 29.0865 287.118 29.1178C287.087 29.149 287.044 29.1666 287 29.1666H275Z" fill="#222222"/>
<rect width="272" height="114" transform="translate(16 48)" fill="#FCFCFC"/>
<path d="M32.996 77V68.624H39.008V69.704H34.268V72.116H37.532V73.196H34.268V75.92H39.056V77H32.996ZM41.4487 73.94V72.86H43.6327C44.1687 72.86 44.6007 72.712 44.9287 72.416C45.2567 72.12 45.4207 71.732 45.4207 71.252C45.4207 70.788 45.2687 70.416 44.9647 70.136C44.6607 69.848 44.2567 69.704 43.7527 69.704H41.4487V68.624H43.7527C44.3607 68.624 44.8887 68.732 45.3367 68.948C45.7847 69.164 46.1327 69.468 46.3807 69.86C46.6287 70.252 46.7527 70.716 46.7527 71.252C46.7527 71.788 46.6247 72.26 46.3687 72.668C46.1127 73.068 45.7487 73.38 45.2767 73.604C44.8127 73.828 44.2687 73.94 43.6447 73.94H41.4487ZM40.5367 77V68.624H41.8087V77H40.5367ZM48.7734 74.888V73.808H53.4174V74.888H48.7734ZM50.1174 68.624H51.9414L54.5334 77H53.2254L51.5334 71.456L51.0294 69.62L50.5254 71.468L48.8094 77H47.5254L50.1174 68.624ZM56.0141 77V68.624H57.2861V75.92H61.6781V77H56.0141ZM63.2668 78.056V77H69.0628V78.056H63.2668ZM73.6274 77V71.828L73.6874 70.124L72.3314 71.228L70.8314 72.428V70.928L73.9754 68.624H74.8994V77H73.6274ZM70.8314 77V75.92H76.7594V77H70.8314Z" fill="#222222"/>
<mask id="path-8-inside-1_3798_55300" fill="white">
<rect x="36.5" y="133.5" width="3" height="9" rx="0.333333"/>
</mask>
<rect x="36.5" y="133.5" width="3" height="9" rx="0.333333" stroke="#808080" stroke-width="1.33333" mask="url(#path-8-inside-1_3798_55300)"/>
<mask id="path-9-inside-2_3798_55300" fill="white">
<rect x="40.5" y="133.5" width="3" height="9" rx="0.333333"/>
</mask>
<rect x="40.5" y="133.5" width="3" height="9" rx="0.333333" stroke="#808080" stroke-width="1.33333" mask="url(#path-9-inside-2_3798_55300)"/>
<path d="M52.77 142V141.24C53.69 140.553 54.43 139.957 54.99 139.45C55.55 138.937 55.9567 138.483 56.21 138.09C56.4633 137.69 56.59 137.327 56.59 137C56.59 136.64 56.4767 136.35 56.25 136.13C56.03 135.91 55.72 135.8 55.32 135.8C54.9 135.8 54.5533 135.93 54.28 136.19C54.0067 136.443 53.86 136.803 53.84 137.27H52.77C52.8033 136.77 52.93 136.343 53.15 135.99C53.3767 135.63 53.6767 135.36 54.05 135.18C54.43 134.993 54.86 134.9 55.34 134.9C55.82 134.9 56.2367 134.987 56.59 135.16C56.9433 135.327 57.2133 135.567 57.4 135.88C57.5933 136.187 57.69 136.543 57.69 136.95C57.69 137.39 57.5767 137.823 57.35 138.25C57.13 138.67 56.7733 139.113 56.28 139.58C55.7933 140.04 55.1467 140.547 54.34 141.1H57.71V142H52.77ZM66.5578 142V134.65H67.5678V142H66.5578ZM64.5278 142V141.18H69.6078V142H64.5278ZM65.2578 135.47V134.65H67.0578V135.47H65.2578ZM74.4017 142L74.3617 140.75V138.4C74.3617 138.007 74.2317 137.7 73.9717 137.48C73.7184 137.253 73.3684 137.14 72.9217 137.14C72.4884 137.14 72.1351 137.24 71.8617 137.44C71.5884 137.633 71.4384 137.903 71.4117 138.25H70.4217C70.4551 137.857 70.5817 137.523 70.8017 137.25C71.0217 136.97 71.3151 136.757 71.6817 136.61C72.0484 136.457 72.4717 136.38 72.9517 136.38C73.4451 136.38 73.8717 136.463 74.2317 136.63C74.5917 136.79 74.8684 137.023 75.0617 137.33C75.2617 137.637 75.3617 138.01 75.3617 138.45V142H74.4017ZM72.4117 142.12C72.0517 142.12 71.7351 142.057 71.4617 141.93C71.1884 141.797 70.9751 141.61 70.8217 141.37C70.6684 141.123 70.5917 140.837 70.5917 140.51C70.5917 139.943 70.8084 139.503 71.2417 139.19C71.6817 138.877 72.2951 138.72 73.0817 138.72H74.4917V139.47H73.0417C72.5884 139.47 72.2317 139.557 71.9717 139.73C71.7184 139.903 71.5917 140.147 71.5917 140.46C71.5917 140.72 71.6817 140.923 71.8617 141.07C72.0484 141.217 72.2984 141.29 72.6117 141.29C73.0117 141.29 73.3651 141.183 73.6717 140.97C73.9851 140.75 74.2384 140.45 74.4317 140.07L74.5417 140.81C74.3684 141.23 74.1017 141.553 73.7417 141.78C73.3817 142.007 72.9384 142.12 72.4117 142.12ZM80.3456 142V138.53C80.3456 138.143 80.2356 137.833 80.0156 137.6C79.7956 137.36 79.509 137.24 79.1556 137.24C78.749 137.24 78.3856 137.39 78.0656 137.69C77.7523 137.983 77.5023 138.443 77.3156 139.07L77.1556 137.94C77.3623 137.42 77.659 137.03 78.0456 136.77C78.439 136.51 78.8656 136.38 79.3256 136.38C79.739 136.38 80.0956 136.47 80.3956 136.65C80.7023 136.823 80.939 137.067 81.1056 137.38C81.2723 137.693 81.3556 138.063 81.3556 138.49V142H80.3456ZM76.4256 142V136.5H77.3856L77.4356 137.74V142H76.4256ZM84.8295 142.12C84.2629 142.12 83.7729 142.007 83.3595 141.78C82.9462 141.547 82.6295 141.217 82.4095 140.79C82.1895 140.357 82.0795 139.84 82.0795 139.24C82.0795 138.64 82.1895 138.127 82.4095 137.7C82.6362 137.273 82.9562 136.947 83.3695 136.72C83.7895 136.493 84.2895 136.38 84.8695 136.38C85.7562 136.38 86.4162 136.627 86.8495 137.12C87.2829 137.607 87.4729 138.277 87.4195 139.13H82.8795L82.8895 138.37L86.3895 138.38C86.3629 138.027 86.2095 137.743 85.9295 137.53C85.6495 137.317 85.2962 137.21 84.8695 137.21C84.2962 137.21 83.8562 137.39 83.5495 137.75C83.2429 138.11 83.0895 138.62 83.0895 139.28C83.0895 139.673 83.1562 140.023 83.2895 140.33C83.4295 140.63 83.6295 140.863 83.8895 141.03C84.1495 141.197 84.4629 141.28 84.8295 141.28C85.2629 141.28 85.6229 141.177 85.9095 140.97C86.2029 140.763 86.3829 140.483 86.4495 140.13H87.4595C87.3729 140.75 87.0962 141.237 86.6295 141.59C86.1629 141.943 85.5629 142.12 84.8295 142.12ZM90.8234 142.12C90.3368 142.12 89.9068 142.037 89.5334 141.87C89.1668 141.697 88.8834 141.457 88.6834 141.15C88.4834 140.837 88.3801 140.463 88.3734 140.03H89.3234C89.3234 140.437 89.4601 140.757 89.7334 140.99C90.0068 141.223 90.3668 141.34 90.8134 141.34C91.1934 141.34 91.4968 141.27 91.7234 141.13C91.9568 140.983 92.0734 140.787 92.0734 140.54C92.0734 140.347 92.0068 140.193 91.8734 140.08C91.7468 139.96 91.5768 139.867 91.3634 139.8C91.1501 139.733 90.9134 139.677 90.6534 139.63C90.4001 139.577 90.1434 139.517 89.8834 139.45C89.6301 139.377 89.3968 139.287 89.1834 139.18C88.9701 139.067 88.7968 138.917 88.6634 138.73C88.5301 138.543 88.4634 138.3 88.4634 138C88.4634 137.687 88.5534 137.41 88.7334 137.17C88.9134 136.923 89.1668 136.73 89.4934 136.59C89.8268 136.45 90.2201 136.38 90.6734 136.38C91.3601 136.38 91.9101 136.54 92.3234 136.86C92.7434 137.173 92.9701 137.607 93.0034 138.16H92.0534C92.0334 137.84 91.9001 137.593 91.6534 137.42C91.4134 137.24 91.0868 137.15 90.6734 137.15C90.2868 137.15 89.9901 137.227 89.7834 137.38C89.5834 137.533 89.4834 137.727 89.4834 137.96C89.4834 138.14 89.5501 138.283 89.6834 138.39C89.8168 138.49 89.9901 138.57 90.2034 138.63C90.4168 138.683 90.6501 138.733 90.9034 138.78C91.1634 138.82 91.4201 138.873 91.6734 138.94C91.9334 139.007 92.1701 139.1 92.3834 139.22C92.5968 139.333 92.7668 139.49 92.8934 139.69C93.0268 139.89 93.0934 140.15 93.0934 140.47C93.0934 140.983 92.8868 141.387 92.4734 141.68C92.0601 141.973 91.5101 142.12 90.8234 142.12Z" fill="#B3B3B3"/>
<path d="M41.7365 100.263L42.2634 99.7365L40.375 97.848V95.5H39.625V98.1519L41.7365 100.263ZM40.0008 102.75C39.3439 102.75 38.7263 102.625 38.1483 102.376C37.5702 102.127 37.0674 101.788 36.6398 101.361C36.2121 100.933 35.8736 100.431 35.6242 99.853C35.3747 99.2752 35.25 98.6578 35.25 98.0008C35.25 97.3439 35.3747 96.7263 35.624 96.1483C35.8733 95.5702 36.2117 95.0674 36.6391 94.6398C37.0666 94.2121 37.5692 93.8736 38.147 93.6242C38.7248 93.3747 39.3422 93.25 39.9992 93.25C40.6561 93.25 41.2736 93.3747 41.8517 93.624C42.4298 93.8733 42.9326 94.2117 43.3602 94.6391C43.7878 95.0666 44.1264 95.5692 44.3758 96.147C44.6253 96.7248 44.75 97.3422 44.75 97.9992C44.75 98.6561 44.6253 99.2736 44.376 99.8517C44.1266 100.43 43.7883 100.933 43.3609 101.36C42.9334 101.788 42.4308 102.126 41.853 102.376C41.2752 102.625 40.6578 102.75 40.0008 102.75ZM40 102C41.1083 102 42.0521 101.61 42.8312 100.831C43.6104 100.052 44 99.1083 44 98C44 96.8917 43.6104 95.9479 42.8312 95.1687C42.0521 94.3896 41.1083 94 40 94C38.8917 94 37.9479 94.3896 37.1687 95.1687C36.3896 95.9479 36 96.8917 36 98C36 99.1083 36.3896 100.052 37.1687 100.831C37.9479 101.61 38.8917 102 40 102Z" fill="#808080"/>
<path d="M55.31 102.12C54.85 102.12 54.4267 102.027 54.04 101.84C53.6533 101.653 53.3433 101.383 53.11 101.03C52.8833 100.677 52.77 100.243 52.77 99.73H53.83C53.8367 100.023 53.9033 100.283 54.03 100.51C54.1567 100.73 54.33 100.9 54.55 101.02C54.7767 101.14 55.03 101.2 55.31 101.2C55.7367 101.2 56.08 101.09 56.34 100.87C56.6 100.65 56.73 100.367 56.73 100.02C56.73 99.7467 56.6533 99.5233 56.5 99.35C56.3533 99.17 56.1533 99.0367 55.9 98.95C55.6533 98.8633 55.3767 98.82 55.07 98.82H54.7V97.94H55.1C55.3733 97.94 55.6067 97.89 55.8 97.79C56 97.6833 56.1533 97.5433 56.26 97.37C56.3667 97.1967 56.42 97.01 56.42 96.81C56.42 96.5033 56.3133 96.26 56.1 96.08C55.8933 95.8933 55.6233 95.8 55.29 95.8C54.8833 95.8 54.5533 95.92 54.3 96.16C54.0467 96.3933 53.91 96.7333 53.89 97.18H52.83C52.85 96.68 52.9733 96.26 53.2 95.92C53.4333 95.58 53.7333 95.3267 54.1 95.16C54.4667 94.9867 54.8667 94.9 55.3 94.9C55.7467 94.9 56.1333 94.9767 56.46 95.13C56.7933 95.2767 57.0533 95.4867 57.24 95.76C57.4267 96.0267 57.52 96.3433 57.52 96.71C57.52 96.9567 57.4667 97.19 57.36 97.41C57.2533 97.63 57.1067 97.82 56.92 97.98C56.74 98.1333 56.53 98.2433 56.29 98.31C56.59 98.3567 56.8533 98.46 57.08 98.62C57.3133 98.7733 57.4967 98.9733 57.63 99.22C57.7633 99.46 57.83 99.73 57.83 100.03C57.83 100.437 57.7267 100.8 57.52 101.12C57.3133 101.433 57.02 101.68 56.64 101.86C56.2667 102.033 55.8233 102.12 55.31 102.12ZM61.1539 102.12C60.5872 102.12 60.1039 101.973 59.7039 101.68C59.3039 101.38 58.9972 100.96 58.7839 100.42C58.5706 99.8733 58.4639 99.2367 58.4639 98.51C58.4639 97.77 58.5706 97.13 58.7839 96.59C58.9972 96.05 59.3039 95.6333 59.7039 95.34C60.1039 95.0467 60.5872 94.9 61.1539 94.9C61.7272 94.9 62.2106 95.0467 62.6039 95.34C63.0039 95.6333 63.3106 96.05 63.5239 96.59C63.7372 97.1233 63.8439 97.7633 63.8439 98.51C63.8439 99.2433 63.7372 99.88 63.5239 100.42C63.3106 100.96 63.0039 101.38 62.6039 101.68C62.2106 101.973 61.7272 102.12 61.1539 102.12ZM61.1539 101.22C61.6806 101.22 62.0772 100.983 62.3439 100.51C62.6106 100.03 62.7439 99.3633 62.7439 98.51C62.7439 97.6433 62.6106 96.9767 62.3439 96.51C62.0772 96.0367 61.6806 95.8 61.1539 95.8C60.6339 95.8 60.2406 96.0367 59.9739 96.51C59.7072 96.9767 59.5739 97.6433 59.5739 98.51C59.5739 99.3633 59.7072 100.03 59.9739 100.51C60.2406 100.983 60.6339 101.22 61.1539 101.22ZM72.9517 102.12C72.3851 102.12 71.8951 102.003 71.4817 101.77C71.0751 101.537 70.7617 101.207 70.5417 100.78C70.3217 100.347 70.2117 99.8367 70.2117 99.25C70.2117 98.65 70.3217 98.14 70.5417 97.72C70.7617 97.2933 71.0751 96.9633 71.4817 96.73C71.8951 96.4967 72.3884 96.38 72.9617 96.38C73.8151 96.38 74.4851 96.6367 74.9717 97.15C75.4584 97.6567 75.7017 98.3567 75.7017 99.25C75.7017 99.8367 75.5917 100.347 75.3717 100.78C75.1517 101.207 74.8351 101.537 74.4217 101.77C74.0151 102.003 73.5251 102.12 72.9517 102.12ZM72.9617 101.28C73.4951 101.28 73.9151 101.1 74.2217 100.74C74.5351 100.373 74.6917 99.8767 74.6917 99.25C74.6917 98.6167 74.5351 98.12 74.2217 97.76C73.9151 97.4 73.4951 97.22 72.9617 97.22C72.4217 97.22 71.9984 97.4 71.6917 97.76C71.3851 98.12 71.2317 98.6167 71.2317 99.25C71.2317 99.8767 71.3851 100.373 71.6917 100.74C71.9984 101.1 72.4217 101.28 72.9617 101.28ZM80.3656 98.86V98.2C80.3656 97.9133 80.279 97.6833 80.1056 97.51C79.9323 97.33 79.6823 97.24 79.3556 97.24C78.9423 97.24 78.5723 97.3967 78.2456 97.71C77.919 98.0167 77.659 98.4867 77.4656 99.12L77.3256 98.1C77.4723 97.72 77.649 97.4033 77.8556 97.15C78.069 96.8967 78.3123 96.7067 78.5856 96.58C78.8656 96.4467 79.1723 96.38 79.5056 96.38C80.059 96.38 80.509 96.54 80.8556 96.86C81.2023 97.1733 81.3756 97.62 81.3756 98.2V98.86H80.3656ZM76.6456 102V96.5H77.5956L77.6556 97.75V102H76.6456ZM84.4795 96.38C84.8595 96.38 85.2062 96.4567 85.5195 96.61C85.8329 96.7567 86.0862 96.9633 86.2795 97.23V94.65H87.2795V102H86.3295L86.2995 101.23C86.1062 101.497 85.8495 101.713 85.5295 101.88C85.2162 102.04 84.8662 102.12 84.4795 102.12C83.9929 102.12 83.5629 101.997 83.1895 101.75C82.8162 101.503 82.5229 101.163 82.3095 100.73C82.1029 100.297 81.9995 99.8033 81.9995 99.25C81.9995 98.69 82.1029 98.1933 82.3095 97.76C82.5229 97.3267 82.8162 96.99 83.1895 96.75C83.5629 96.5033 83.9929 96.38 84.4795 96.38ZM84.6995 101.27C85.0595 101.27 85.3795 101.17 85.6595 100.97C85.9395 100.763 86.1462 100.487 86.2795 100.14V98.35C86.1462 97.9967 85.9395 97.7233 85.6595 97.53C85.3795 97.33 85.0595 97.23 84.6995 97.23C84.3662 97.23 84.0729 97.3167 83.8195 97.49C83.5662 97.6567 83.3662 97.8933 83.2195 98.2C83.0795 98.5 83.0095 98.85 83.0095 99.25C83.0095 99.6433 83.0795 99.9933 83.2195 100.3C83.3662 100.6 83.5662 100.837 83.8195 101.01C84.0729 101.183 84.3662 101.27 84.6995 101.27ZM90.7334 102.12C90.1668 102.12 89.6768 102.007 89.2634 101.78C88.8501 101.547 88.5334 101.217 88.3134 100.79C88.0934 100.357 87.9834 99.84 87.9834 99.24C87.9834 98.64 88.0934 98.1267 88.3134 97.7C88.5401 97.2733 88.8601 96.9467 89.2734 96.72C89.6934 96.4933 90.1934 96.38 90.7734 96.38C91.6601 96.38 92.3201 96.6267 92.7534 97.12C93.1868 97.6067 93.3768 98.2767 93.3234 99.13H88.7834L88.7934 98.37L92.2934 98.38C92.2668 98.0267 92.1134 97.7433 91.8334 97.53C91.5534 97.3167 91.2001 97.21 90.7734 97.21C90.2001 97.21 89.7601 97.39 89.4534 97.75C89.1468 98.11 88.9934 98.62 88.9934 99.28C88.9934 99.6733 89.0601 100.023 89.1934 100.33C89.3334 100.63 89.5334 100.863 89.7934 101.03C90.0534 101.197 90.3668 101.28 90.7334 101.28C91.1668 101.28 91.5268 101.177 91.8134 100.97C92.1068 100.763 92.2868 100.483 92.3534 100.13H93.3634C93.2768 100.75 93.0001 101.237 92.5334 101.59C92.0668 101.943 91.4668 102.12 90.7334 102.12ZM98.0773 98.86V98.2C98.0773 97.9133 97.9907 97.6833 97.8173 97.51C97.644 97.33 97.394 97.24 97.0673 97.24C96.654 97.24 96.284 97.3967 95.9573 97.71C95.6307 98.0167 95.3707 98.4867 95.1773 99.12L95.0373 98.1C95.184 97.72 95.3607 97.4033 95.5673 97.15C95.7807 96.8967 96.024 96.7067 96.2973 96.58C96.5773 96.4467 96.884 96.38 97.2173 96.38C97.7707 96.38 98.2207 96.54 98.5673 96.86C98.914 97.1733 99.0873 97.62 99.0873 98.2V98.86H98.0773ZM94.3573 102V96.5H95.3073L95.3673 97.75V102H94.3573ZM102.631 102.12C102.145 102.12 101.715 102.037 101.341 101.87C100.975 101.697 100.691 101.457 100.491 101.15C100.291 100.837 100.188 100.463 100.181 100.03H101.131C101.131 100.437 101.268 100.757 101.541 100.99C101.815 101.223 102.175 101.34 102.621 101.34C103.001 101.34 103.305 101.27 103.531 101.13C103.765 100.983 103.881 100.787 103.881 100.54C103.881 100.347 103.815 100.193 103.681 100.08C103.555 99.96 103.385 99.8667 103.171 99.8C102.958 99.7333 102.721 99.6767 102.461 99.63C102.208 99.5767 101.951 99.5167 101.691 99.45C101.438 99.3767 101.205 99.2867 100.991 99.18C100.778 99.0667 100.605 98.9167 100.471 98.73C100.338 98.5433 100.271 98.3 100.271 98C100.271 97.6867 100.361 97.41 100.541 97.17C100.721 96.9233 100.975 96.73 101.301 96.59C101.635 96.45 102.028 96.38 102.481 96.38C103.168 96.38 103.718 96.54 104.131 96.86C104.551 97.1733 104.778 97.6067 104.811 98.16H103.861C103.841 97.84 103.708 97.5933 103.461 97.42C103.221 97.24 102.895 97.15 102.481 97.15C102.095 97.15 101.798 97.2267 101.591 97.38C101.391 97.5333 101.291 97.7267 101.291 97.96C101.291 98.14 101.358 98.2833 101.491 98.39C101.625 98.49 101.798 98.57 102.011 98.63C102.225 98.6833 102.458 98.7333 102.711 98.78C102.971 98.82 103.228 98.8733 103.481 98.94C103.741 99.0067 103.978 99.1 104.191 99.22C104.405 99.3333 104.575 99.49 104.701 99.69C104.835 99.89 104.901 100.15 104.901 100.47C104.901 100.983 104.695 101.387 104.281 101.68C103.868 101.973 103.318 102.12 102.631 102.12ZM105.925 102.97L109.795 95.01H110.845L106.975 102.97H105.925ZM115.769 102V98.54C115.769 98.1467 115.659 97.8333 115.439 97.6C115.219 97.36 114.932 97.24 114.579 97.24C114.172 97.24 113.809 97.39 113.489 97.69C113.176 97.9833 112.926 98.4433 112.739 99.07L112.579 97.95C112.786 97.4233 113.082 97.03 113.469 96.77C113.862 96.51 114.289 96.38 114.749 96.38C115.162 96.38 115.519 96.47 115.819 96.65C116.126 96.8233 116.362 97.07 116.529 97.39C116.696 97.7033 116.779 98.0733 116.779 98.5V102H115.769ZM111.849 102V94.64H112.859V102H111.849Z" fill="#B3B3B3"/>
<path d="M33 118.611L34.7325 115.724C34.7692 115.662 34.8353 115.625 34.9066 115.625H45.4267C45.498 115.625 45.5641 115.662 45.6008 115.724L47.3333 118.611" stroke="#808080" stroke-width="0.5"/>
<path d="M35.3892 119.806L35.3892 120.941C35.3892 120.974 35.3625 121 35.3295 121L33.0601 121C33.0271 121 33.0003 120.974 33.0003 120.941L33.0003 119.806L35.3892 119.806Z" stroke="#808080" stroke-width="0.5"/>
<path d="M41.3608 119.806L41.3608 120.941C41.3608 120.974 41.334 121 41.3011 121L39.0316 121C38.9986 121 38.9719 120.974 38.9719 120.941L38.9719 119.806L41.3608 119.806Z" stroke="#808080" stroke-width="0.5"/>
<path d="M47.3333 119.806L47.3333 120.941C47.3333 120.974 47.3066 121 47.2736 121L45.0041 121C44.9712 121 44.9444 120.974 44.9444 120.941L44.9444 119.806L47.3333 119.806Z" stroke="#808080" stroke-width="0.5"/>
<path d="M37.7778 115.625L36.5833 118.611" stroke="#808080" stroke-width="0.5"/>
<path d="M40.1667 115.625V118.611" stroke="#808080" stroke-width="0.5"/>
<path d="M42.5556 115.625L43.75 118.611" stroke="#808080" stroke-width="0.5"/>
<path d="M33 118.623V119.805H47.3333V118.623C47.3333 118.616 47.328 118.611 47.3214 118.611H33.0119C33.0053 118.611 33 118.616 33 118.623Z" stroke="#808080" stroke-width="0.5"/>
<path d="M55.86 122V120.33H52.4V119.58L55.48 115.02H56.94V119.43H58.12V120.33H56.94V122H55.86ZM53.52 119.43H55.86V117.33L55.88 115.89L55.1 117.11L53.52 119.43ZM67.3778 116.38C67.8711 116.38 68.3011 116.503 68.6678 116.75C69.0411 116.99 69.3345 117.327 69.5478 117.76C69.7611 118.193 69.8678 118.69 69.8678 119.25C69.8678 119.803 69.7611 120.297 69.5478 120.73C69.3345 121.163 69.0411 121.503 68.6678 121.75C68.3011 121.997 67.8711 122.12 67.3778 122.12C67.0045 122.12 66.6611 122.043 66.3478 121.89C66.0411 121.737 65.7878 121.527 65.5878 121.26V123.78H64.5778V116.5H65.5378L65.5678 117.25C65.7678 116.983 66.0245 116.773 66.3378 116.62C66.6511 116.46 66.9978 116.38 67.3778 116.38ZM67.1578 121.27C67.4978 121.27 67.7945 121.183 68.0478 121.01C68.3011 120.837 68.4978 120.6 68.6378 120.3C68.7778 119.993 68.8478 119.643 68.8478 119.25C68.8478 118.85 68.7778 118.5 68.6378 118.2C68.4978 117.893 68.3011 117.657 68.0478 117.49C67.7945 117.317 67.4978 117.23 67.1578 117.23C66.8111 117.23 66.4945 117.33 66.2078 117.53C65.9278 117.723 65.7211 117.99 65.5878 118.33V120.15C65.7211 120.497 65.9278 120.77 66.2078 120.97C66.4945 121.17 66.8111 121.27 67.1578 121.27ZM74.4017 122L74.3617 120.75V118.4C74.3617 118.007 74.2317 117.7 73.9717 117.48C73.7184 117.253 73.3684 117.14 72.9217 117.14C72.4884 117.14 72.1351 117.24 71.8617 117.44C71.5884 117.633 71.4384 117.903 71.4117 118.25H70.4217C70.4551 117.857 70.5817 117.523 70.8017 117.25C71.0217 116.97 71.3151 116.757 71.6817 116.61C72.0484 116.457 72.4717 116.38 72.9517 116.38C73.4451 116.38 73.8717 116.463 74.2317 116.63C74.5917 116.79 74.8684 117.023 75.0617 117.33C75.2617 117.637 75.3617 118.01 75.3617 118.45V122H74.4017ZM72.4117 122.12C72.0517 122.12 71.7351 122.057 71.4617 121.93C71.1884 121.797 70.9751 121.61 70.8217 121.37C70.6684 121.123 70.5917 120.837 70.5917 120.51C70.5917 119.943 70.8084 119.503 71.2417 119.19C71.6817 118.877 72.2951 118.72 73.0817 118.72H74.4917V119.47H73.0417C72.5884 119.47 72.2317 119.557 71.9717 119.73C71.7184 119.903 71.5917 120.147 71.5917 120.46C71.5917 120.72 71.6817 120.923 71.8617 121.07C72.0484 121.217 72.2984 121.29 72.6117 121.29C73.0117 121.29 73.3651 121.183 73.6717 120.97C73.9851 120.75 74.2384 120.45 74.4317 120.07L74.5417 120.81C74.3684 121.23 74.1017 121.553 73.7417 121.78C73.3817 122.007 72.9384 122.12 72.4117 122.12ZM78.3656 122V114.65H79.3756V122H78.3656ZM76.3356 122V121.18H81.4156V122H76.3356ZM77.0656 115.47V114.65H78.8656V115.47H77.0656ZM84.2695 122V114.65H85.2795V122H84.2695ZM82.2395 122V121.18H87.3195V122H82.2395ZM82.9695 115.47V114.65H84.7695V115.47H82.9695ZM90.7334 122.12C90.1668 122.12 89.6768 122.007 89.2634 121.78C88.8501 121.547 88.5334 121.217 88.3134 120.79C88.0934 120.357 87.9834 119.84 87.9834 119.24C87.9834 118.64 88.0934 118.127 88.3134 117.7C88.5401 117.273 88.8601 116.947 89.2734 116.72C89.6934 116.493 90.1934 116.38 90.7734 116.38C91.6601 116.38 92.3201 116.627 92.7534 117.12C93.1868 117.607 93.3768 118.277 93.3234 119.13H88.7834L88.7934 118.37L92.2934 118.38C92.2668 118.027 92.1134 117.743 91.8334 117.53C91.5534 117.317 91.2001 117.21 90.7734 117.21C90.2001 117.21 89.7601 117.39 89.4534 117.75C89.1468 118.11 88.9934 118.62 88.9934 119.28C88.9934 119.673 89.0601 120.023 89.1934 120.33C89.3334 120.63 89.5334 120.863 89.7934 121.03C90.0534 121.197 90.3668 121.28 90.7334 121.28C91.1668 121.28 91.5268 121.177 91.8134 120.97C92.1068 120.763 92.2868 120.483 92.3534 120.13H93.3634C93.2768 120.75 93.0001 121.237 92.5334 121.59C92.0668 121.943 91.4668 122.12 90.7334 122.12ZM97.0273 122C96.6873 122 96.3973 121.933 96.1573 121.8C95.9173 121.66 95.7373 121.463 95.6173 121.21C95.4973 120.957 95.4373 120.66 95.4373 120.32V115.46L96.4473 114.91V120.32C96.4473 120.48 96.4707 120.627 96.5173 120.76C96.564 120.893 96.654 120.997 96.7873 121.07C96.9273 121.143 97.1307 121.18 97.3973 121.18H99.0473V122H97.0273ZM94.1373 117.32V116.5H98.1673V117.32H94.1373ZM102.631 122.12C102.145 122.12 101.715 122.037 101.341 121.87C100.975 121.697 100.691 121.457 100.491 121.15C100.291 120.837 100.188 120.463 100.181 120.03H101.131C101.131 120.437 101.268 120.757 101.541 120.99C101.815 121.223 102.175 121.34 102.621 121.34C103.001 121.34 103.305 121.27 103.531 121.13C103.765 120.983 103.881 120.787 103.881 120.54C103.881 120.347 103.815 120.193 103.681 120.08C103.555 119.96 103.385 119.867 103.171 119.8C102.958 119.733 102.721 119.677 102.461 119.63C102.208 119.577 101.951 119.517 101.691 119.45C101.438 119.377 101.205 119.287 100.991 119.18C100.778 119.067 100.605 118.917 100.471 118.73C100.338 118.543 100.271 118.3 100.271 118C100.271 117.687 100.361 117.41 100.541 117.17C100.721 116.923 100.975 116.73 101.301 116.59C101.635 116.45 102.028 116.38 102.481 116.38C103.168 116.38 103.718 116.54 104.131 116.86C104.551 117.173 104.778 117.607 104.811 118.16H103.861C103.841 117.84 103.708 117.593 103.461 117.42C103.221 117.24 102.895 117.15 102.481 117.15C102.095 117.15 101.798 117.227 101.591 117.38C101.391 117.533 101.291 117.727 101.291 117.96C101.291 118.14 101.358 118.283 101.491 118.39C101.625 118.49 101.798 118.57 102.011 118.63C102.225 118.683 102.458 118.733 102.711 118.78C102.971 118.82 103.228 118.873 103.481 118.94C103.741 119.007 103.978 119.1 104.191 119.22C104.405 119.333 104.575 119.49 104.701 119.69C104.835 119.89 104.901 120.15 104.901 120.47C104.901 120.983 104.695 121.387 104.281 121.68C103.868 121.973 103.318 122.12 102.631 122.12ZM114.499 122.97C114.092 122.263 113.799 121.59 113.619 120.95C113.446 120.31 113.359 119.66 113.359 119C113.359 118.32 113.446 117.663 113.619 117.03C113.799 116.39 114.092 115.72 114.499 115.02H115.529C115.109 115.7 114.812 116.367 114.639 117.02C114.466 117.673 114.379 118.333 114.379 119C114.379 119.653 114.466 120.307 114.639 120.96C114.812 121.613 115.109 122.283 115.529 122.97H114.499ZM117.713 122V121.24C118.633 120.553 119.373 119.957 119.933 119.45C120.493 118.937 120.9 118.483 121.153 118.09C121.406 117.69 121.533 117.327 121.533 117C121.533 116.64 121.42 116.35 121.193 116.13C120.973 115.91 120.663 115.8 120.263 115.8C119.843 115.8 119.496 115.93 119.223 116.19C118.95 116.443 118.803 116.803 118.783 117.27H117.713C117.746 116.77 117.873 116.343 118.093 115.99C118.32 115.63 118.62 115.36 118.993 115.18C119.373 114.993 119.803 114.9 120.283 114.9C120.763 114.9 121.18 114.987 121.533 115.16C121.886 115.327 122.156 115.567 122.343 115.88C122.536 116.187 122.633 116.543 122.633 116.95C122.633 117.39 122.52 117.823 122.293 118.25C122.073 118.67 121.716 119.113 121.223 119.58C120.736 120.04 120.09 120.547 119.283 121.1H122.653V122H117.713ZM123.637 122.97L127.507 115.01H128.557L124.687 122.97H123.637ZM131.501 122V114.65H132.511V122H131.501ZM129.471 122V121.18H134.551V122H129.471ZM130.201 115.47V114.65H132.001V115.47H130.201ZM139.345 122L139.305 120.75V118.4C139.305 118.007 139.175 117.7 138.915 117.48C138.661 117.253 138.311 117.14 137.865 117.14C137.431 117.14 137.078 117.24 136.805 117.44C136.531 117.633 136.381 117.903 136.355 118.25H135.365C135.398 117.857 135.525 117.523 135.745 117.25C135.965 116.97 136.258 116.757 136.625 116.61C136.991 116.457 137.415 116.38 137.895 116.38C138.388 116.38 138.815 116.463 139.175 116.63C139.535 116.79 139.811 117.023 140.005 117.33C140.205 117.637 140.305 118.01 140.305 118.45V122H139.345ZM137.355 122.12C136.995 122.12 136.678 122.057 136.405 121.93C136.131 121.797 135.918 121.61 135.765 121.37C135.611 121.123 135.535 120.837 135.535 120.51C135.535 119.943 135.751 119.503 136.185 119.19C136.625 118.877 137.238 118.72 138.025 118.72H139.435V119.47H137.985C137.531 119.47 137.175 119.557 136.915 119.73C136.661 119.903 136.535 120.147 136.535 120.46C136.535 120.72 136.625 120.923 136.805 121.07C136.991 121.217 137.241 121.29 137.555 121.29C137.955 121.29 138.308 121.183 138.615 120.97C138.928 120.75 139.181 120.45 139.375 120.07L139.485 120.81C139.311 121.23 139.045 121.553 138.685 121.78C138.325 122.007 137.881 122.12 137.355 122.12ZM145.289 122V118.53C145.289 118.143 145.179 117.833 144.959 117.6C144.739 117.36 144.452 117.24 144.099 117.24C143.692 117.24 143.329 117.39 143.009 117.69C142.695 117.983 142.445 118.443 142.259 119.07L142.099 117.94C142.305 117.42 142.602 117.03 142.989 116.77C143.382 116.51 143.809 116.38 144.269 116.38C144.682 116.38 145.039 116.47 145.339 116.65C145.645 116.823 145.882 117.067 146.049 117.38C146.215 117.693 146.299 118.063 146.299 118.49V122H145.289ZM141.369 122V116.5H142.329L142.379 117.74V122H141.369ZM149.773 122.12C149.206 122.12 148.716 122.007 148.303 121.78C147.889 121.547 147.573 121.217 147.353 120.79C147.133 120.357 147.023 119.84 147.023 119.24C147.023 118.64 147.133 118.127 147.353 117.7C147.579 117.273 147.899 116.947 148.313 116.72C148.733 116.493 149.233 116.38 149.813 116.38C150.699 116.38 151.359 116.627 151.793 117.12C152.226 117.607 152.416 118.277 152.363 119.13H147.823L147.833 118.37L151.333 118.38C151.306 118.027 151.153 117.743 150.873 117.53C150.593 117.317 150.239 117.21 149.813 117.21C149.239 117.21 148.799 117.39 148.493 117.75C148.186 118.11 148.033 118.62 148.033 119.28C148.033 119.673 148.099 120.023 148.233 120.33C148.373 120.63 148.573 120.863 148.833 121.03C149.093 121.197 149.406 121.28 149.773 121.28C150.206 121.28 150.566 121.177 150.853 120.97C151.146 120.763 151.326 120.483 151.393 120.13H152.403C152.316 120.75 152.039 121.237 151.573 121.59C151.106 121.943 150.506 122.12 149.773 122.12ZM155.416 122.97H154.386C154.806 122.283 155.103 121.613 155.276 120.96C155.45 120.307 155.536 119.653 155.536 119C155.536 118.333 155.45 117.673 155.276 117.02C155.103 116.367 154.806 115.7 154.386 115.02H155.416C155.823 115.72 156.113 116.39 156.286 117.03C156.46 117.663 156.546 118.32 156.546 119C156.546 119.66 156.46 120.31 156.286 120.95C156.113 121.59 155.823 122.263 155.416 122.97Z" fill="#B3B3B3"/>
</svg>
