<svg width="400" height="150" viewBox="0 0 400 150" fill="none" xmlns="http://www.w3.org/2000/svg">
<rect width="8" height="150" fill="#B42318"/>
<rect width="392" height="150" transform="translate(8)" fill="#F9D0D0"/>
<path d="M36 35.4615C36.1744 35.4615 36.3205 35.4026 36.4385 35.2846C36.5564 35.1667 36.6154 35.0205 36.6154 34.8462C36.6154 34.6718 36.5564 34.5257 36.4385 34.4077C36.3205 34.2898 36.1744 34.2308 36 34.2308C35.8256 34.2308 35.6795 34.2898 35.5615 34.4077C35.4436 34.5257 35.3846 34.6718 35.3846 34.8462C35.3846 35.0205 35.4436 35.1667 35.5615 35.2846C35.6795 35.4026 35.8256 35.4615 36 35.4615ZM35.5 32.1538H36.5V26.1539H35.5V32.1538ZM36.0034 40C34.7588 40 33.5887 39.7638 32.4931 39.2915C31.3975 38.8192 30.4444 38.1782 29.634 37.3685C28.8235 36.5588 28.1819 35.6066 27.7091 34.512C27.2364 33.4174 27 32.2479 27 31.0033C27 29.7588 27.2362 28.5887 27.7085 27.4931C28.1808 26.3975 28.8218 25.4444 29.6315 24.634C30.4412 23.8235 31.3934 23.1819 32.488 22.7091C33.5826 22.2364 34.7521 22 35.9966 22C37.2412 22 38.4113 22.2362 39.5069 22.7085C40.6025 23.1808 41.5556 23.8218 42.366 24.6315C43.1765 25.4412 43.8181 26.3934 44.2908 27.488C44.7636 28.5826 45 29.7521 45 30.9967C45 32.2412 44.7638 33.4113 44.2915 34.5069C43.8192 35.6025 43.1782 36.5556 42.3685 37.366C41.5588 38.1765 40.6066 38.8181 39.512 39.2908C38.4174 39.7636 37.2479 40 36.0034 40ZM36 39C38.2333 39 40.125 38.225 41.675 36.675C43.225 35.125 44 33.2333 44 31C44 28.7667 43.225 26.875 41.675 25.325C40.125 23.775 38.2333 23 36 23C33.7667 23 31.875 23.775 30.325 25.325C28.775 26.875 28 28.7667 28 31C28 33.2333 28.775 35.125 30.325 36.675C31.875 38.225 33.7667 39 36 39Z" fill="#222222"/>
<path d="M59.7173 35V27.7273H64.4474V28.8317H61.0348V30.8061H64.2024V31.9105H61.0348V33.8956H64.4759V35H59.7173ZM68.4087 35.1385C67.824 35.1385 67.3221 34.9905 66.9031 34.6946C66.4864 34.3963 66.1656 33.9666 65.9407 33.4055C65.7182 32.8421 65.6069 32.1638 65.6069 31.3707C65.6093 30.5777 65.7217 29.9029 65.9442 29.3466C66.1692 28.7879 66.4899 28.3617 66.9066 28.0682C67.3256 27.7746 67.8263 27.6278 68.4087 27.6278C68.9911 27.6278 69.4918 27.7746 69.9109 28.0682C70.3299 28.3617 70.6507 28.7879 70.8732 29.3466C71.0981 29.9053 71.2106 30.58 71.2106 31.3707C71.2106 32.1662 71.0981 32.8456 70.8732 33.4091C70.6507 33.9702 70.3299 34.3987 69.9109 34.6946C69.4942 34.9905 68.9935 35.1385 68.4087 35.1385ZM68.4087 34.027C68.8633 34.027 69.2219 33.8033 69.4847 33.3558C69.7499 32.906 69.8825 32.2443 69.8825 31.3707C69.8825 30.7931 69.8221 30.3078 69.7013 29.9148C69.5806 29.5218 69.4102 29.2259 69.19 29.027C68.9698 28.8258 68.7094 28.7251 68.4087 28.7251C67.9566 28.7251 67.5991 28.95 67.3363 29.3999C67.0735 29.8473 66.9409 30.5043 66.9386 31.3707C66.9362 31.9508 66.9942 32.4384 67.1126 32.8338C67.2333 33.2292 67.4038 33.5275 67.6239 33.7287C67.8441 33.9276 68.1057 34.027 68.4087 34.027ZM75.0005 35.0994C74.4892 35.0994 74.0346 35.0118 73.6369 34.8366C73.2415 34.6615 72.929 34.4176 72.6994 34.1051C72.4698 33.7926 72.3478 33.4316 72.3336 33.022H73.6689C73.6807 33.2185 73.7458 33.3902 73.8642 33.5369C73.9825 33.6813 74.14 33.7938 74.3365 33.8743C74.533 33.9548 74.7531 33.995 74.997 33.995C75.2574 33.995 75.4882 33.95 75.6895 33.8601C75.8907 33.7678 76.0481 33.6399 76.1618 33.4766C76.2754 33.3132 76.331 33.125 76.3287 32.9119C76.331 32.6918 76.2742 32.4976 76.1582 32.3295C76.0422 32.1615 75.8741 32.0301 75.6539 31.9354C75.4361 31.8407 75.1734 31.7933 74.8656 31.7933H74.2228V30.7777H74.8656C75.1189 30.7777 75.3403 30.7339 75.5297 30.6463C75.7214 30.5587 75.8717 30.4356 75.9806 30.277C76.0895 30.116 76.1428 29.9302 76.1404 29.7195C76.1428 29.5135 76.0967 29.3348 76.002 29.1832C75.9096 29.0294 75.7782 28.9098 75.6078 28.8246C75.4397 28.7393 75.242 28.6967 75.0147 28.6967C74.7922 28.6967 74.5862 28.737 74.3968 28.8175C74.2074 28.898 74.0547 29.0128 73.9387 29.1619C73.8227 29.3087 73.7612 29.4839 73.7541 29.6875H72.4863C72.4958 29.2803 72.613 28.9228 72.8379 28.6151C73.0652 28.3049 73.3682 28.0634 73.747 27.8906C74.1258 27.7154 74.5507 27.6278 75.0218 27.6278C75.5072 27.6278 75.9286 27.719 76.286 27.9013C76.6459 28.0812 76.9241 28.3239 77.1206 28.6293C77.3171 28.9347 77.4153 29.272 77.4153 29.6413C77.4177 30.0509 77.2969 30.3942 77.0531 30.6712C76.8116 30.9482 76.4944 31.1293 76.1014 31.2145V31.2713C76.6127 31.3423 77.0046 31.5317 77.2768 31.8395C77.5514 32.1449 77.6876 32.5249 77.6852 32.9794C77.6852 33.3866 77.5692 33.7512 77.3372 34.0732C77.1075 34.3928 76.7903 34.6437 76.3855 34.826C75.983 35.0083 75.5214 35.0994 75.0005 35.0994ZM78.7727 33.6506V32.603L81.8587 27.7273H82.7322V29.2188H82.1996L80.1222 32.5107V32.5675H84.4297V33.6506H78.7727ZM82.2422 35V33.331L82.2564 32.8622V27.7273H83.4993V35H82.2422ZM88.0927 35.0994C87.6192 35.0994 87.1954 35.0107 86.8214 34.8331C86.4473 34.6532 86.1502 34.407 85.93 34.0945C85.7122 33.782 85.5962 33.4245 85.582 33.022H86.8604C86.8841 33.3203 87.0131 33.5642 87.2475 33.7536C87.4819 33.9406 87.7636 34.0341 88.0927 34.0341C88.3507 34.0341 88.5804 33.9749 88.7816 33.8565C88.9828 33.7382 89.1415 33.5736 89.2575 33.3629C89.3735 33.1522 89.4303 32.9119 89.4279 32.642C89.4303 32.3674 89.3723 32.1236 89.2539 31.9105C89.1355 31.6974 88.9734 31.5305 88.7674 31.4098C88.5614 31.2867 88.3247 31.2251 88.0572 31.2251C87.8394 31.2228 87.6251 31.263 87.4144 31.3459C87.2037 31.4287 87.0368 31.5376 86.9137 31.6726L85.7241 31.4773L86.104 27.7273H90.3228V28.8281H87.1942L86.9847 30.7564H87.0273C87.1623 30.5978 87.3529 30.4664 87.5991 30.3622C87.8453 30.2557 88.1152 30.2024 88.4087 30.2024C88.8491 30.2024 89.2421 30.3066 89.5877 30.5149C89.9334 30.7209 90.2056 31.005 90.4045 31.3672C90.6033 31.7294 90.7028 32.1437 90.7028 32.6101C90.7028 33.0907 90.5915 33.5192 90.369 33.8956C90.1488 34.2696 89.8422 34.5644 89.4492 34.7798C89.0586 34.9929 88.6064 35.0994 88.0927 35.0994ZM94.5558 35.0994C94.2077 35.0971 93.868 35.0367 93.5366 34.9183C93.2051 34.7976 92.9068 34.6023 92.6417 34.3324C92.3765 34.0601 92.1658 33.6991 92.0096 33.2493C91.8533 32.7971 91.7764 32.2372 91.7788 31.5696C91.7788 30.947 91.8451 30.3918 91.9776 29.9041C92.1102 29.4164 92.3008 29.0045 92.5494 28.6683C92.7979 28.3298 93.0974 28.0717 93.4478 27.8942C93.8005 27.7166 94.1947 27.6278 94.6303 27.6278C95.0872 27.6278 95.4921 27.7178 95.8448 27.8977C96.1999 28.0777 96.4864 28.3239 96.7042 28.6364C96.922 28.9465 97.0569 29.2969 97.109 29.6875H95.8129C95.7466 29.4081 95.6104 29.1856 95.4045 29.0199C95.2009 28.8518 94.9428 28.7678 94.6303 28.7678C94.1261 28.7678 93.7378 28.9867 93.4656 29.4247C93.1957 29.8627 93.0595 30.464 93.0572 31.2287H93.1069C93.2229 31.0204 93.3732 30.8416 93.5579 30.6925C93.7425 30.5433 93.9509 30.4285 94.1829 30.348C94.4173 30.2652 94.6647 30.2237 94.9251 30.2237C95.3512 30.2237 95.7335 30.3255 96.0721 30.5291C96.413 30.7327 96.6829 31.0133 96.8817 31.3707C97.0806 31.7259 97.1789 32.133 97.1765 32.5923C97.1789 33.0705 97.07 33.5002 96.8498 33.8814C96.6296 34.2602 96.323 34.5585 95.93 34.7763C95.5371 34.9941 95.079 35.1018 94.5558 35.0994ZM94.5487 34.0341C94.8067 34.0341 95.0375 33.9714 95.2411 33.8459C95.4447 33.7204 95.6057 33.5511 95.7241 33.3381C95.8424 33.125 95.9004 32.8859 95.8981 32.6207C95.9004 32.3603 95.8436 32.1248 95.7276 31.9141C95.614 31.7034 95.4566 31.5365 95.2553 31.4134C95.0541 31.2902 94.8245 31.2287 94.5664 31.2287C94.3746 31.2287 94.1959 31.2654 94.0302 31.3388C93.8645 31.4122 93.7201 31.514 93.5969 31.6442C93.4738 31.772 93.3768 31.9212 93.3058 32.0916C93.2371 32.2597 93.2016 32.4396 93.1992 32.6314C93.2016 32.8847 93.2608 33.1179 93.3768 33.331C93.4928 33.544 93.6526 33.7145 93.8562 33.8423C94.0598 33.9702 94.2906 34.0341 94.5487 34.0341ZM98.2454 33.6506V32.603L101.331 27.7273H102.205V29.2188H101.672L99.5948 32.5107V32.5675H103.902V33.6506H98.2454ZM101.715 35V33.331L101.729 32.8622V27.7273H102.972V35H101.715ZM105.843 34.1264C105.628 34.1264 105.443 34.0507 105.289 33.8991C105.135 33.7453 105.059 33.5606 105.062 33.3452C105.059 33.1321 105.135 32.9498 105.289 32.7983C105.443 32.6468 105.628 32.571 105.843 32.571C106.051 32.571 106.232 32.6468 106.386 32.7983C106.543 32.9498 106.622 33.1321 106.624 33.3452C106.622 33.4896 106.584 33.621 106.511 33.7393C106.44 33.8577 106.345 33.9524 106.227 34.0234C106.111 34.0921 105.983 34.1264 105.843 34.1264ZM105.843 30.522C105.628 30.522 105.443 30.4463 105.289 30.2947C105.135 30.1409 105.059 29.9562 105.062 29.7408C105.059 29.5277 105.135 29.3454 105.289 29.1939C105.443 29.04 105.628 28.9631 105.843 28.9631C106.051 28.9631 106.232 29.04 106.386 29.1939C106.543 29.3454 106.622 29.5277 106.624 29.7408C106.622 29.8828 106.584 30.013 106.511 30.1314C106.44 30.2498 106.345 30.3445 106.227 30.4155C106.111 30.4865 105.983 30.522 105.843 30.522ZM110.169 28.8317V27.7273H115.972V28.8317H113.724V35H112.417V28.8317H110.169ZM118.319 31.804V35H117.034V27.7273H118.291V30.4723H118.355C118.482 30.1645 118.68 29.9219 118.948 29.7443C119.218 29.5644 119.561 29.4744 119.977 29.4744C120.356 29.4744 120.686 29.5537 120.968 29.7124C121.25 29.871 121.468 30.103 121.622 30.4084C121.778 30.7138 121.856 31.0866 121.856 31.527V35H120.57V31.7259C120.57 31.3589 120.476 31.0736 120.286 30.87C120.099 30.6641 119.837 30.5611 119.498 30.5611C119.271 30.5611 119.067 30.6108 118.887 30.7102C118.71 30.8073 118.57 30.9482 118.468 31.1328C118.369 31.3175 118.319 31.5412 118.319 31.804ZM125.581 35.1065C125.034 35.1065 124.562 34.9929 124.164 34.7656C123.769 34.536 123.465 34.2116 123.252 33.7926C123.039 33.3712 122.932 32.8752 122.932 32.3047C122.932 31.7436 123.039 31.2512 123.252 30.8274C123.467 30.4013 123.768 30.0698 124.154 29.8331C124.539 29.594 124.993 29.4744 125.514 29.4744C125.85 29.4744 126.167 29.5289 126.465 29.6378C126.766 29.7443 127.031 29.91 127.261 30.1349C127.493 30.3598 127.675 30.6463 127.808 30.9943C127.94 31.34 128.007 31.7519 128.007 32.2301V32.6243H123.536V31.7578H126.774C126.772 31.5116 126.719 31.2926 126.615 31.1009C126.51 30.9067 126.365 30.754 126.178 30.6428C125.993 30.5315 125.778 30.4759 125.531 30.4759C125.269 30.4759 125.038 30.5398 124.839 30.6676C124.64 30.7931 124.485 30.9588 124.374 31.1648C124.265 31.3684 124.209 31.5921 124.207 31.8359V32.5923C124.207 32.9096 124.265 33.1818 124.381 33.4091C124.497 33.634 124.659 33.8068 124.867 33.9276C125.076 34.0459 125.32 34.1051 125.599 34.1051C125.786 34.1051 125.955 34.0791 126.107 34.027C126.258 33.9725 126.39 33.8932 126.501 33.7891C126.612 33.6849 126.696 33.5559 126.753 33.402L127.953 33.5369C127.878 33.8542 127.733 34.1312 127.52 34.3679C127.309 34.6023 127.039 34.7846 126.71 34.9148C126.381 35.0426 126.005 35.1065 125.581 35.1065ZM134.298 29.5455V30.5398H131.163V29.5455H134.298ZM131.937 28.2386H133.222V33.3594C133.222 33.5322 133.248 33.6648 133.3 33.7571C133.355 33.8471 133.426 33.9086 133.513 33.9418C133.601 33.9749 133.698 33.9915 133.805 33.9915C133.885 33.9915 133.959 33.9856 134.025 33.9737C134.094 33.9619 134.146 33.9512 134.181 33.9418L134.398 34.9467C134.329 34.9704 134.231 34.9964 134.103 35.0249C133.978 35.0533 133.824 35.0698 133.641 35.0746C133.319 35.084 133.029 35.0355 132.771 34.929C132.513 34.8201 132.308 34.652 132.157 34.4247C132.008 34.1974 131.934 33.9134 131.937 33.5724V28.2386ZM135.373 35V29.5455H136.659V35H135.373ZM136.02 28.7713C135.816 28.7713 135.641 28.7038 135.494 28.5689C135.347 28.4316 135.274 28.267 135.274 28.0753C135.274 27.8812 135.347 27.7166 135.494 27.5817C135.641 27.4444 135.816 27.3757 136.02 27.3757C136.226 27.3757 136.401 27.4444 136.545 27.5817C136.692 27.7166 136.765 27.8812 136.765 28.0753C136.765 28.267 136.692 28.4316 136.545 28.5689C136.401 28.7038 136.226 28.7713 136.02 28.7713ZM140.705 29.5455V30.5398H137.569V29.5455H140.705ZM138.343 28.2386H139.629V33.3594C139.629 33.5322 139.655 33.6648 139.707 33.7571C139.761 33.8471 139.832 33.9086 139.92 33.9418C140.007 33.9749 140.104 33.9915 140.211 33.9915C140.291 33.9915 140.365 33.9856 140.431 33.9737C140.5 33.9619 140.552 33.9512 140.587 33.9418L140.804 34.9467C140.735 34.9704 140.637 34.9964 140.509 35.0249C140.384 35.0533 140.23 35.0698 140.048 35.0746C139.726 35.084 139.436 35.0355 139.178 34.929C138.92 34.8201 138.715 34.652 138.563 34.4247C138.414 34.1974 138.341 33.9134 138.343 33.5724V28.2386ZM143.182 27.7273V35H141.897V27.7273H143.182ZM146.919 35.1065C146.372 35.1065 145.9 34.9929 145.502 34.7656C145.107 34.536 144.803 34.2116 144.589 33.7926C144.376 33.3712 144.27 32.8752 144.27 32.3047C144.27 31.7436 144.376 31.2512 144.589 30.8274C144.805 30.4013 145.106 30.0698 145.491 29.8331C145.877 29.594 146.331 29.4744 146.852 29.4744C147.188 29.4744 147.505 29.5289 147.803 29.6378C148.104 29.7443 148.369 29.91 148.599 30.1349C148.831 30.3598 149.013 30.6463 149.146 30.9943C149.278 31.34 149.344 31.7519 149.344 32.2301V32.6243H144.874V31.7578H148.112C148.11 31.5116 148.057 31.2926 147.952 31.1009C147.848 30.9067 147.703 30.754 147.516 30.6428C147.331 30.5315 147.116 30.4759 146.869 30.4759C146.607 30.4759 146.376 30.5398 146.177 30.6676C145.978 30.7931 145.823 30.9588 145.712 31.1648C145.603 31.3684 145.547 31.5921 145.545 31.8359V32.5923C145.545 32.9096 145.603 33.1818 145.719 33.4091C145.835 33.634 145.997 33.8068 146.205 33.9276C146.414 34.0459 146.657 34.1051 146.937 34.1051C147.124 34.1051 147.293 34.0791 147.445 34.027C147.596 33.9725 147.728 33.8932 147.839 33.7891C147.95 33.6849 148.034 33.5559 148.091 33.402L149.291 33.5369C149.215 33.8542 149.071 34.1312 148.858 34.3679C148.647 34.6023 148.377 34.7846 148.048 34.9148C147.719 35.0426 147.343 35.1065 146.919 35.1065ZM155.292 35.1065C154.759 35.1065 154.297 34.9893 153.907 34.755C153.516 34.5206 153.213 34.1927 152.998 33.7713C152.785 33.3499 152.678 32.8575 152.678 32.294C152.678 31.7306 152.785 31.237 152.998 30.8132C153.213 30.3894 153.516 30.0604 153.907 29.826C154.297 29.5916 154.759 29.4744 155.292 29.4744C155.824 29.4744 156.286 29.5916 156.677 29.826C157.067 30.0604 157.369 30.3894 157.582 30.8132C157.798 31.237 157.905 31.7306 157.905 32.294C157.905 32.8575 157.798 33.3499 157.582 33.7713C157.369 34.1927 157.067 34.5206 156.677 34.755C156.286 34.9893 155.824 35.1065 155.292 35.1065ZM155.299 34.0767C155.588 34.0767 155.829 33.9974 156.023 33.8388C156.217 33.6778 156.362 33.4624 156.456 33.1925C156.554 32.9226 156.602 32.6219 156.602 32.2905C156.602 31.9567 156.554 31.6548 156.456 31.3849C156.362 31.1127 156.217 30.8961 156.023 30.7351C155.829 30.5741 155.588 30.4936 155.299 30.4936C155.003 30.4936 154.757 30.5741 154.56 30.7351C154.366 30.8961 154.22 31.1127 154.123 31.3849C154.029 31.6548 153.981 31.9567 153.981 32.2905C153.981 32.6219 154.029 32.9226 154.123 33.1925C154.22 33.4624 154.366 33.6778 154.56 33.8388C154.757 33.9974 155.003 34.0767 155.299 34.0767ZM161.759 29.5455V30.5398H158.535V29.5455H161.759ZM159.341 35V29.0305C159.341 28.6636 159.417 28.3582 159.568 28.1143C159.722 27.8705 159.928 27.6882 160.186 27.5675C160.444 27.4467 160.731 27.3864 161.045 27.3864C161.268 27.3864 161.466 27.4041 161.638 27.4396C161.811 27.4751 161.939 27.5071 162.022 27.5355L161.766 28.5298C161.712 28.5133 161.643 28.4967 161.56 28.4801C161.478 28.4612 161.385 28.4517 161.283 28.4517C161.044 28.4517 160.875 28.5097 160.776 28.6257C160.679 28.7393 160.63 28.9027 160.63 29.1158V35H159.341ZM167.97 29.5455V30.5398H164.835V29.5455H167.97ZM165.609 28.2386H166.894V33.3594C166.894 33.5322 166.92 33.6648 166.972 33.7571C167.027 33.8471 167.098 33.9086 167.185 33.9418C167.273 33.9749 167.37 33.9915 167.477 33.9915C167.557 33.9915 167.63 33.9856 167.697 33.9737C167.765 33.9619 167.817 33.9512 167.853 33.9418L168.07 34.9467C168.001 34.9704 167.903 34.9964 167.775 35.0249C167.649 35.0533 167.496 35.0698 167.313 35.0746C166.991 35.084 166.701 35.0355 166.443 34.929C166.185 34.8201 165.98 34.652 165.829 34.4247C165.68 34.1974 165.606 33.9134 165.609 33.5724V28.2386ZM170.448 31.804V35H169.162V27.7273H170.42V30.4723H170.483C170.611 30.1645 170.809 29.9219 171.077 29.7443C171.346 29.5644 171.69 29.4744 172.106 29.4744C172.485 29.4744 172.815 29.5537 173.097 29.7124C173.379 29.871 173.597 30.103 173.751 30.4084C173.907 30.7138 173.985 31.0866 173.985 31.527V35H172.699V31.7259C172.699 31.3589 172.605 31.0736 172.415 30.87C172.228 30.6641 171.965 30.5611 171.627 30.5611C171.4 30.5611 171.196 30.6108 171.016 30.7102C170.839 30.8073 170.699 30.9482 170.597 31.1328C170.498 31.3175 170.448 31.5412 170.448 31.804ZM177.71 35.1065C177.163 35.1065 176.691 34.9929 176.293 34.7656C175.898 34.536 175.594 34.2116 175.381 33.7926C175.167 33.3712 175.061 32.8752 175.061 32.3047C175.061 31.7436 175.167 31.2512 175.381 30.8274C175.596 30.4013 175.897 30.0698 176.282 29.8331C176.668 29.594 177.122 29.4744 177.643 29.4744C177.979 29.4744 178.296 29.5289 178.594 29.6378C178.895 29.7443 179.16 29.91 179.39 30.1349C179.622 30.3598 179.804 30.6463 179.937 30.9943C180.069 31.34 180.135 31.7519 180.135 32.2301V32.6243H175.665V31.7578H178.903C178.901 31.5116 178.848 31.2926 178.743 31.1009C178.639 30.9067 178.494 30.754 178.307 30.6428C178.122 30.5315 177.907 30.4759 177.66 30.4759C177.398 30.4759 177.167 30.5398 176.968 30.6676C176.769 30.7931 176.614 30.9588 176.503 31.1648C176.394 31.3684 176.338 31.5921 176.336 31.8359V32.5923C176.336 32.9096 176.394 33.1818 176.51 33.4091C176.626 33.634 176.788 33.8068 176.996 33.9276C177.205 34.0459 177.448 34.1051 177.728 34.1051C177.915 34.1051 178.084 34.0791 178.236 34.027C178.387 33.9725 178.519 33.8932 178.63 33.7891C178.741 33.6849 178.825 33.5559 178.882 33.402L180.082 33.5369C180.006 33.8542 179.862 34.1312 179.649 34.3679C179.438 34.6023 179.168 34.7846 178.839 34.9148C178.51 35.0426 178.134 35.1065 177.71 35.1065ZM186.118 35.1065C185.571 35.1065 185.099 34.9929 184.701 34.7656C184.306 34.536 184.002 34.2116 183.789 33.7926C183.576 33.3712 183.469 32.8752 183.469 32.3047C183.469 31.7436 183.576 31.2512 183.789 30.8274C184.004 30.4013 184.305 30.0698 184.691 29.8331C185.077 29.594 185.53 29.4744 186.051 29.4744C186.387 29.4744 186.704 29.5289 187.002 29.6378C187.303 29.7443 187.568 29.91 187.798 30.1349C188.03 30.3598 188.212 30.6463 188.345 30.9943C188.477 31.34 188.544 31.7519 188.544 32.2301V32.6243H184.073V31.7578H187.311C187.309 31.5116 187.256 31.2926 187.152 31.1009C187.047 30.9067 186.902 30.754 186.715 30.6428C186.53 30.5315 186.315 30.4759 186.069 30.4759C185.806 30.4759 185.575 30.5398 185.376 30.6676C185.177 30.7931 185.022 30.9588 184.911 31.1648C184.802 31.3684 184.746 31.5921 184.744 31.8359V32.5923C184.744 32.9096 184.802 33.1818 184.918 33.4091C185.034 33.634 185.196 33.8068 185.404 33.9276C185.613 34.0459 185.857 34.1051 186.136 34.1051C186.323 34.1051 186.492 34.0791 186.644 34.027C186.795 33.9725 186.927 33.8932 187.038 33.7891C187.149 33.6849 187.233 33.5559 187.29 33.402L188.49 33.5369C188.415 33.8542 188.27 34.1312 188.057 34.3679C187.846 34.6023 187.577 34.7846 187.248 34.9148C186.918 35.0426 186.542 35.1065 186.118 35.1065ZM194.347 29.5455L192.405 35H190.984L189.042 29.5455H190.412L191.666 33.5973H191.723L192.98 29.5455H194.347ZM197.466 35.1065C196.919 35.1065 196.447 34.9929 196.049 34.7656C195.654 34.536 195.349 34.2116 195.136 33.7926C194.923 33.3712 194.817 32.8752 194.817 32.3047C194.817 31.7436 194.923 31.2512 195.136 30.8274C195.352 30.4013 195.652 30.0698 196.038 29.8331C196.424 29.594 196.878 29.4744 197.398 29.4744C197.735 29.4744 198.052 29.5289 198.35 29.6378C198.651 29.7443 198.916 29.91 199.146 30.1349C199.378 30.3598 199.56 30.6463 199.692 30.9943C199.825 31.34 199.891 31.7519 199.891 32.2301V32.6243H195.42V31.7578H198.659C198.657 31.5116 198.603 31.2926 198.499 31.1009C198.395 30.9067 198.25 30.754 198.062 30.6428C197.878 30.5315 197.662 30.4759 197.416 30.4759C197.153 30.4759 196.923 30.5398 196.724 30.6676C196.525 30.7931 196.37 30.9588 196.259 31.1648C196.15 31.3684 196.094 31.5921 196.092 31.8359V32.5923C196.092 32.9096 196.15 33.1818 196.266 33.4091C196.382 33.634 196.544 33.8068 196.752 33.9276C196.96 34.0459 197.204 34.1051 197.484 34.1051C197.671 34.1051 197.84 34.0791 197.991 34.027C198.143 33.9725 198.274 33.8932 198.386 33.7891C198.497 33.6849 198.581 33.5559 198.638 33.402L199.838 33.5369C199.762 33.8542 199.618 34.1312 199.405 34.3679C199.194 34.6023 198.924 34.7846 198.595 34.9148C198.266 35.0426 197.89 35.1065 197.466 35.1065ZM202.264 31.804V35H200.979V29.5455H202.208V30.4723H202.271C202.397 30.1669 202.597 29.9242 202.872 29.7443C203.149 29.5644 203.491 29.4744 203.898 29.4744C204.274 29.4744 204.602 29.5549 204.882 29.7159C205.163 29.8769 205.381 30.1101 205.535 30.4155C205.691 30.7209 205.768 31.0914 205.766 31.527V35H204.48V31.7259C204.48 31.3613 204.386 31.076 204.196 30.87C204.009 30.6641 203.75 30.5611 203.419 30.5611C203.194 30.5611 202.994 30.6108 202.818 30.7102C202.646 30.8073 202.509 30.9482 202.41 31.1328C202.313 31.3175 202.264 31.5412 202.264 31.804ZM209.796 29.5455V30.5398H206.661V29.5455H209.796ZM207.435 28.2386H208.72V33.3594C208.72 33.5322 208.746 33.6648 208.798 33.7571C208.853 33.8471 208.924 33.9086 209.012 33.9418C209.099 33.9749 209.196 33.9915 209.303 33.9915C209.383 33.9915 209.457 33.9856 209.523 33.9737C209.592 33.9619 209.644 33.9512 209.679 33.9418L209.896 34.9467C209.827 34.9704 209.729 34.9964 209.601 35.0249C209.476 35.0533 209.322 35.0698 209.139 35.0746C208.817 35.084 208.527 35.0355 208.269 34.929C208.011 34.8201 207.807 34.652 207.655 34.4247C207.506 34.1974 207.432 33.9134 207.435 33.5724V28.2386ZM211.663 35.0781C211.448 35.0781 211.263 35.0024 211.109 34.8509C210.955 34.6993 210.88 34.5147 210.882 34.2969C210.88 34.0838 210.955 33.9015 211.109 33.75C211.263 33.5985 211.448 33.5227 211.663 33.5227C211.872 33.5227 212.053 33.5985 212.207 33.75C212.363 33.9015 212.442 34.0838 212.445 34.2969C212.442 34.4413 212.404 34.5727 212.331 34.6911C212.26 34.8094 212.165 34.9041 212.047 34.9751C211.931 35.0438 211.803 35.0781 211.663 35.0781Z" fill="#222222"/>
<path d="M366.4 37.3077L365.692 36.6L371.292 31L365.692 25.4L366.4 24.6923L372 30.2923L377.6 24.6923L378.308 25.4L372.708 31L378.308 36.6L377.6 37.3077L372 31.7077L366.4 37.3077Z" fill="#222222"/>
<path d="M60.179 72H59.2557L61.9261 64.7273H62.8352L65.5057 72H64.5824L62.4091 65.8778H62.3523L60.179 72ZM60.5199 69.1591H64.2415V69.9403H60.5199V69.1591ZM71.397 72.1136C70.9425 72.1136 70.5412 71.9988 70.1932 71.7692C69.8452 71.5372 69.5729 71.2105 69.3764 70.7891C69.1799 70.3653 69.0817 69.8646 69.0817 69.2869C69.0817 68.714 69.1799 68.2169 69.3764 67.7955C69.5729 67.3741 69.8464 67.0485 70.1967 66.8189C70.5471 66.5893 70.9519 66.4744 71.4112 66.4744C71.7663 66.4744 72.0469 66.5336 72.2528 66.652C72.4612 66.768 72.6198 66.9006 72.7287 67.0497C72.84 67.1965 72.9264 67.3172 72.9879 67.4119H73.0589V64.7273H73.897V72H73.0874V71.1619H72.9879C72.9264 71.2614 72.8388 71.3868 72.7251 71.5384C72.6115 71.6875 72.4493 71.8213 72.2386 71.9396C72.0279 72.0556 71.7474 72.1136 71.397 72.1136ZM71.5107 71.3608C71.8468 71.3608 72.1309 71.2732 72.3629 71.098C72.5949 70.9205 72.7713 70.6754 72.892 70.3629C73.0128 70.0481 73.0732 69.6847 73.0732 69.2727C73.0732 68.8655 73.014 68.5092 72.8956 68.2038C72.7772 67.8961 72.602 67.657 72.37 67.4865C72.138 67.3137 71.8516 67.2273 71.5107 67.2273C71.1555 67.2273 70.8596 67.3184 70.6229 67.5007C70.3885 67.6806 70.2121 67.9257 70.0938 68.2358C69.9777 68.5436 69.9197 68.8892 69.9197 69.2727C69.9197 69.661 69.9789 70.0137 70.0973 70.331C70.218 70.6458 70.3956 70.8968 70.63 71.0838C70.8667 71.2685 71.1603 71.3608 71.5107 71.3608ZM77.8352 72.1136C77.3097 72.1136 76.8563 71.9976 76.4751 71.7656C76.0964 71.5312 75.804 71.2045 75.598 70.7855C75.3944 70.3641 75.2926 69.8741 75.2926 69.3153C75.2926 68.7566 75.3944 68.2642 75.598 67.8381C75.804 67.4096 76.0904 67.0758 76.4574 66.8366C76.8267 66.5952 77.2576 66.4744 77.75 66.4744C78.0341 66.4744 78.3146 66.5218 78.5916 66.6165C78.8686 66.7112 79.1207 66.8651 79.348 67.0781C79.5753 67.2888 79.7564 67.5682 79.8913 67.9162C80.0263 68.2642 80.0938 68.6927 80.0938 69.2017V69.5568H75.8892V68.8324H79.2415C79.2415 68.5246 79.1799 68.25 79.0568 68.0085C78.9361 67.767 78.7633 67.5765 78.5384 67.4368C78.3158 67.2971 78.053 67.2273 77.75 67.2273C77.4162 67.2273 77.1274 67.3101 76.8835 67.4759C76.642 67.6392 76.4562 67.8523 76.326 68.1151C76.1958 68.3778 76.1307 68.6596 76.1307 68.9602V69.4432C76.1307 69.8551 76.2017 70.2043 76.3438 70.4908C76.4882 70.7749 76.6882 70.9915 76.9439 71.1406C77.1996 71.2874 77.4967 71.3608 77.8352 71.3608C78.0554 71.3608 78.2543 71.33 78.4318 71.2685C78.6117 71.2045 78.7668 71.1098 78.897 70.9844C79.0272 70.8565 79.1278 70.6979 79.1989 70.5085L80.0085 70.7358C79.9233 71.0104 79.7801 71.2519 79.5788 71.4602C79.3776 71.6662 79.129 71.8272 78.8331 71.9432C78.5372 72.0568 78.2045 72.1136 77.8352 72.1136ZM83.7408 66.5455V67.2557H80.9141V66.5455H83.7408ZM81.7379 65.2386H82.576V70.4375C82.576 70.6742 82.6103 70.8518 82.679 70.9702C82.75 71.0862 82.84 71.1643 82.9489 71.2045C83.0601 71.2424 83.1773 71.2614 83.3004 71.2614C83.3928 71.2614 83.4685 71.2566 83.5277 71.2472C83.5869 71.2353 83.6342 71.2259 83.6697 71.2188L83.8402 71.9716C83.7834 71.9929 83.7041 72.0142 83.6023 72.0355C83.5005 72.0592 83.3714 72.071 83.2152 72.071C82.9785 72.071 82.7464 72.0201 82.5192 71.9183C82.2943 71.8165 82.1072 71.6615 81.9581 71.4531C81.8113 71.2448 81.7379 70.982 81.7379 70.6648V65.2386ZM86.6065 72.1278C86.2609 72.1278 85.9472 72.0627 85.6655 71.9325C85.3838 71.8 85.16 71.6094 84.9943 71.3608C84.8286 71.1098 84.7457 70.8068 84.7457 70.4517C84.7457 70.1392 84.8073 69.8859 84.9304 69.6918C85.0535 69.4953 85.218 69.3414 85.424 69.2301C85.63 69.1188 85.8572 69.036 86.1058 68.9815C86.3568 68.9247 86.6089 68.8797 86.8622 68.8466C87.1937 68.804 87.4624 68.772 87.6683 68.7507C87.8767 68.727 88.0282 68.688 88.1229 68.6335C88.2199 68.5791 88.2685 68.4844 88.2685 68.3494V68.321C88.2685 67.9706 88.1726 67.6984 87.9808 67.5043C87.7914 67.3101 87.5038 67.2131 87.1179 67.2131C86.7178 67.2131 86.4041 67.3007 86.1768 67.4759C85.9496 67.651 85.7898 67.8381 85.6974 68.0369L84.902 67.7528C85.044 67.4214 85.2334 67.1634 85.4702 66.9787C85.7093 66.7917 85.9697 66.6615 86.2514 66.5881C86.5355 66.5123 86.8149 66.4744 87.0895 66.4744C87.2647 66.4744 87.4659 66.4957 87.6932 66.5384C87.9228 66.5786 88.1442 66.6626 88.3572 66.7905C88.5727 66.9183 88.7514 67.1113 88.8935 67.3693C89.0355 67.6274 89.1065 67.973 89.1065 68.4062V72H88.2685V71.2614H88.2259C88.169 71.3797 88.0743 71.5064 87.9418 71.6413C87.8092 71.7763 87.6328 71.8911 87.4126 71.9858C87.1925 72.0805 86.9238 72.1278 86.6065 72.1278ZM86.7344 71.375C87.0658 71.375 87.3452 71.3099 87.5724 71.1797C87.8021 71.0495 87.9749 70.8814 88.0909 70.6754C88.2093 70.4695 88.2685 70.2528 88.2685 70.0256V69.2585C88.233 69.3011 88.1548 69.3402 88.0341 69.3757C87.9157 69.4089 87.7784 69.4384 87.6222 69.4645C87.4683 69.4882 87.3179 69.5095 87.1712 69.5284C87.0268 69.545 86.9096 69.5592 86.8196 69.571C86.6018 69.5994 86.3982 69.6456 86.2088 69.7095C86.0218 69.7711 85.8703 69.8646 85.7543 69.9901C85.6406 70.1132 85.5838 70.2812 85.5838 70.4943C85.5838 70.7855 85.6915 71.0057 85.907 71.1548C86.1248 71.3016 86.4006 71.375 86.7344 71.375ZM90.6362 72V66.5455H91.4743V72H90.6362ZM91.0623 65.6364C90.899 65.6364 90.7581 65.5807 90.6397 65.4695C90.5237 65.3582 90.4657 65.2244 90.4657 65.0682C90.4657 64.9119 90.5237 64.7782 90.6397 64.6669C90.7581 64.5556 90.899 64.5 91.0623 64.5C91.2257 64.5 91.3654 64.5556 91.4814 64.6669C91.5997 64.7782 91.6589 64.9119 91.6589 65.0682C91.6589 65.2244 91.5997 65.3582 91.4814 65.4695C91.3654 65.5807 91.2257 65.6364 91.0623 65.6364ZM93.8473 64.7273V72H93.0092V64.7273H93.8473ZM97.6692 72.1136C97.1436 72.1136 96.6903 71.9976 96.3091 71.7656C95.9303 71.5312 95.638 71.2045 95.432 70.7855C95.2284 70.3641 95.1266 69.8741 95.1266 69.3153C95.1266 68.7566 95.2284 68.2642 95.432 67.8381C95.638 67.4096 95.9244 67.0758 96.2914 66.8366C96.6607 66.5952 97.0916 66.4744 97.584 66.4744C97.8681 66.4744 98.1486 66.5218 98.4256 66.6165C98.7026 66.7112 98.9547 66.8651 99.182 67.0781C99.4093 67.2888 99.5904 67.5682 99.7253 67.9162C99.8603 68.2642 99.9277 68.6927 99.9277 69.2017V69.5568H95.7232V68.8324H99.0755C99.0755 68.5246 99.0139 68.25 98.8908 68.0085C98.7701 67.767 98.5972 67.5765 98.3723 67.4368C98.1498 67.2971 97.887 67.2273 97.584 67.2273C97.2502 67.2273 96.9614 67.3101 96.7175 67.4759C96.476 67.6392 96.2902 67.8523 96.16 68.1151C96.0298 68.3778 95.9647 68.6596 95.9647 68.9602V69.4432C95.9647 69.8551 96.0357 70.2043 96.1777 70.4908C96.3221 70.7749 96.5222 70.9915 96.7779 71.1406C97.0336 71.2874 97.3307 71.3608 97.6692 71.3608C97.8894 71.3608 98.0882 71.33 98.2658 71.2685C98.4457 71.2045 98.6008 71.1098 98.731 70.9844C98.8612 70.8565 98.9618 70.6979 99.0328 70.5085L99.8425 70.7358C99.7573 71.0104 99.6141 71.2519 99.4128 71.4602C99.2116 71.6662 98.963 71.8272 98.6671 71.9432C98.3712 72.0568 98.0385 72.1136 97.6692 72.1136ZM103.262 72.1136C102.808 72.1136 102.406 71.9988 102.058 71.7692C101.71 71.5372 101.438 71.2105 101.242 70.7891C101.045 70.3653 100.947 69.8646 100.947 69.2869C100.947 68.714 101.045 68.2169 101.242 67.7955C101.438 67.3741 101.712 67.0485 102.062 66.8189C102.412 66.5893 102.817 66.4744 103.276 66.4744C103.632 66.4744 103.912 66.5336 104.118 66.652C104.326 66.768 104.485 66.9006 104.594 67.0497C104.705 67.1965 104.792 67.3172 104.853 67.4119H104.924V64.7273H105.762V72H104.953V71.1619H104.853C104.792 71.2614 104.704 71.3868 104.59 71.5384C104.477 71.6875 104.315 71.8213 104.104 71.9396C103.893 72.0556 103.613 72.1136 103.262 72.1136ZM103.376 71.3608C103.712 71.3608 103.996 71.2732 104.228 71.098C104.46 70.9205 104.637 70.6754 104.757 70.3629C104.878 70.0481 104.938 69.6847 104.938 69.2727C104.938 68.8655 104.879 68.5092 104.761 68.2038C104.642 67.8961 104.467 67.657 104.235 67.4865C104.003 67.3137 103.717 67.2273 103.376 67.2273C103.021 67.2273 102.725 67.3184 102.488 67.5007C102.254 67.6806 102.077 67.9257 101.959 68.2358C101.843 68.5436 101.785 68.8892 101.785 69.2727C101.785 69.661 101.844 70.0137 101.963 70.331C102.083 70.6458 102.261 70.8968 102.495 71.0838C102.732 71.2685 103.026 71.3608 103.376 71.3608ZM112.286 72.1136C111.831 72.1136 111.43 71.9988 111.082 71.7692C110.734 71.5372 110.462 71.2105 110.265 70.7891C110.069 70.3653 109.97 69.8646 109.97 69.2869C109.97 68.714 110.069 68.2169 110.265 67.7955C110.462 67.3741 110.735 67.0485 111.085 66.8189C111.436 66.5893 111.841 66.4744 112.3 66.4744C112.655 66.4744 112.936 66.5336 113.142 66.652C113.35 66.768 113.508 66.9006 113.617 67.0497C113.729 67.1965 113.815 67.3172 113.877 67.4119H113.948V64.7273H114.786V72H113.976V71.1619H113.877C113.815 71.2614 113.727 71.3868 113.614 71.5384C113.5 71.6875 113.338 71.8213 113.127 71.9396C112.917 72.0556 112.636 72.1136 112.286 72.1136ZM112.399 71.3608C112.735 71.3608 113.02 71.2732 113.252 71.098C113.484 70.9205 113.66 70.6754 113.781 70.3629C113.901 70.0481 113.962 69.6847 113.962 69.2727C113.962 68.8655 113.903 68.5092 113.784 68.2038C113.666 67.8961 113.491 67.657 113.259 67.4865C113.027 67.3137 112.74 67.2273 112.399 67.2273C112.044 67.2273 111.748 67.3184 111.512 67.5007C111.277 67.6806 111.101 67.9257 110.982 68.2358C110.866 68.5436 110.808 68.8892 110.808 69.2727C110.808 69.661 110.868 70.0137 110.986 70.331C111.107 70.6458 111.284 70.8968 111.519 71.0838C111.755 71.2685 112.049 71.3608 112.399 71.3608ZM118.724 72.1136C118.198 72.1136 117.745 71.9976 117.364 71.7656C116.985 71.5312 116.693 71.2045 116.487 70.7855C116.283 70.3641 116.181 69.8741 116.181 69.3153C116.181 68.7566 116.283 68.2642 116.487 67.8381C116.693 67.4096 116.979 67.0758 117.346 66.8366C117.715 66.5952 118.146 66.4744 118.639 66.4744C118.923 66.4744 119.203 66.5218 119.48 66.6165C119.757 66.7112 120.009 66.8651 120.237 67.0781C120.464 67.2888 120.645 67.5682 120.78 67.9162C120.915 68.2642 120.982 68.6927 120.982 69.2017V69.5568H116.778V68.8324H120.13C120.13 68.5246 120.069 68.25 119.945 68.0085C119.825 67.767 119.652 67.5765 119.427 67.4368C119.204 67.2971 118.942 67.2273 118.639 67.2273C118.305 67.2273 118.016 67.3101 117.772 67.4759C117.531 67.6392 117.345 67.8523 117.215 68.1151C117.084 68.3778 117.019 68.6596 117.019 68.9602V69.4432C117.019 69.8551 117.09 70.2043 117.232 70.4908C117.377 70.7749 117.577 70.9915 117.833 71.1406C118.088 71.2874 118.385 71.3608 118.724 71.3608C118.944 71.3608 119.143 71.33 119.32 71.2685C119.5 71.2045 119.655 71.1098 119.786 70.9844C119.916 70.8565 120.017 70.6979 120.088 70.5085L120.897 70.7358C120.812 71.0104 120.669 71.2519 120.468 71.4602C120.266 71.6662 120.018 71.8272 119.722 71.9432C119.426 72.0568 119.093 72.1136 118.724 72.1136ZM126.121 67.767L125.368 67.9801C125.321 67.8546 125.251 67.7327 125.159 67.6143C125.069 67.4936 124.945 67.3942 124.789 67.3161C124.633 67.2379 124.433 67.1989 124.189 67.1989C123.855 67.1989 123.577 67.2758 123.355 67.4297C123.134 67.5812 123.024 67.7741 123.024 68.0085C123.024 68.2169 123.1 68.3814 123.252 68.5021C123.403 68.6229 123.64 68.7235 123.962 68.804L124.771 69.0028C125.259 69.1212 125.623 69.3023 125.862 69.5462C126.101 69.7876 126.22 70.099 126.22 70.4801C126.22 70.7926 126.13 71.072 125.95 71.3182C125.773 71.5644 125.524 71.7585 125.205 71.9006C124.885 72.0426 124.513 72.1136 124.09 72.1136C123.533 72.1136 123.073 71.9929 122.708 71.7514C122.344 71.5099 122.113 71.1572 122.016 70.6932L122.811 70.4943C122.887 70.7879 123.03 71.008 123.241 71.1548C123.454 71.3016 123.732 71.375 124.075 71.375C124.466 71.375 124.776 71.2921 125.006 71.1264C125.238 70.9583 125.354 70.7571 125.354 70.5227C125.354 70.3333 125.288 70.1747 125.155 70.0469C125.022 69.9167 124.819 69.8196 124.544 69.7557L123.635 69.5426C123.136 69.4242 122.769 69.2408 122.534 68.9922C122.302 68.7412 122.186 68.4276 122.186 68.0511C122.186 67.7434 122.273 67.4711 122.445 67.2344C122.621 66.9976 122.859 66.8118 123.159 66.6768C123.462 66.5419 123.806 66.4744 124.189 66.4744C124.729 66.4744 125.153 66.5928 125.46 66.8295C125.771 67.0663 125.991 67.3788 126.121 67.767ZM129.698 72.1136C129.186 72.1136 128.746 71.9929 128.377 71.7514C128.007 71.5099 127.723 71.1773 127.525 70.7536C127.326 70.3298 127.226 69.8456 127.226 69.3011C127.226 68.7472 127.328 68.2583 127.532 67.8345C127.738 67.4084 128.024 67.0758 128.391 66.8366C128.76 66.5952 129.191 66.4744 129.684 66.4744C130.067 66.4744 130.413 66.5455 130.721 66.6875C131.028 66.8295 131.28 67.0284 131.477 67.2841C131.673 67.5398 131.795 67.8381 131.843 68.179H131.005C130.941 67.9304 130.799 67.7102 130.578 67.5185C130.361 67.3243 130.067 67.2273 129.698 67.2273C129.371 67.2273 129.085 67.3125 128.838 67.483C128.595 67.651 128.404 67.889 128.267 68.1967C128.132 68.5021 128.064 68.8608 128.064 69.2727C128.064 69.6941 128.131 70.0611 128.263 70.3736C128.398 70.6861 128.587 70.9287 128.831 71.1016C129.078 71.2744 129.366 71.3608 129.698 71.3608C129.916 71.3608 130.113 71.3229 130.291 71.2472C130.468 71.1714 130.619 71.0625 130.742 70.9205C130.865 70.7784 130.953 70.608 131.005 70.4091H131.843C131.795 70.7311 131.678 71.0211 131.491 71.2791C131.306 71.5348 131.061 71.7384 130.756 71.8899C130.453 72.0391 130.1 72.1136 129.698 72.1136ZM133.068 72V66.5455H133.877V67.3693H133.934C134.034 67.0994 134.214 66.8804 134.474 66.7124C134.734 66.5443 135.028 66.4602 135.355 66.4602C135.416 66.4602 135.493 66.4614 135.586 66.4638C135.678 66.4661 135.748 66.4697 135.795 66.4744V67.3267C135.767 67.3196 135.702 67.3089 135.6 67.2947C135.5 67.2782 135.395 67.2699 135.284 67.2699C135.019 67.2699 134.782 67.3255 134.574 67.4368C134.368 67.5457 134.204 67.6972 134.083 67.8913C133.965 68.0831 133.906 68.3021 133.906 68.5483V72H133.068ZM136.789 72V66.5455H137.627V72H136.789ZM137.215 65.6364C137.051 65.6364 136.91 65.5807 136.792 65.4695C136.676 65.3582 136.618 65.2244 136.618 65.0682C136.618 64.9119 136.676 64.7782 136.792 64.6669C136.91 64.5556 137.051 64.5 137.215 64.5C137.378 64.5 137.518 64.5556 137.634 64.6669C137.752 64.7782 137.811 64.9119 137.811 65.0682C137.811 65.2244 137.752 65.3582 137.634 65.4695C137.518 65.5807 137.378 65.6364 137.215 65.6364ZM139.162 74.0455V66.5455H139.971V67.4119H140.071C140.132 67.3172 140.217 67.1965 140.326 67.0497C140.438 66.9006 140.596 66.768 140.802 66.652C141.011 66.5336 141.292 66.4744 141.647 66.4744C142.107 66.4744 142.511 66.5893 142.862 66.8189C143.212 67.0485 143.486 67.3741 143.682 67.7955C143.879 68.2169 143.977 68.714 143.977 69.2869C143.977 69.8646 143.879 70.3653 143.682 70.7891C143.486 71.2105 143.213 71.5372 142.865 71.7692C142.517 71.9988 142.116 72.1136 141.662 72.1136C141.311 72.1136 141.031 72.0556 140.82 71.9396C140.609 71.8213 140.447 71.6875 140.333 71.5384C140.22 71.3868 140.132 71.2614 140.071 71.1619H140V74.0455H139.162ZM139.985 69.2727C139.985 69.6847 140.046 70.0481 140.167 70.3629C140.287 70.6754 140.464 70.9205 140.696 71.098C140.928 71.2732 141.212 71.3608 141.548 71.3608C141.898 71.3608 142.191 71.2685 142.425 71.0838C142.662 70.8968 142.839 70.6458 142.958 70.331C143.078 70.0137 143.139 69.661 143.139 69.2727C143.139 68.8892 143.08 68.5436 142.961 68.2358C142.845 67.9257 142.669 67.6806 142.432 67.5007C142.198 67.3184 141.903 67.2273 141.548 67.2273C141.207 67.2273 140.921 67.3137 140.689 67.4865C140.457 67.657 140.281 67.8961 140.163 68.2038C140.045 68.5092 139.985 68.8655 139.985 69.2727ZM147.627 66.5455V67.2557H144.801V66.5455H147.627ZM145.625 65.2386H146.463V70.4375C146.463 70.6742 146.497 70.8518 146.566 70.9702C146.637 71.0862 146.727 71.1643 146.836 71.2045C146.947 71.2424 147.064 71.2614 147.187 71.2614C147.279 71.2614 147.355 71.2566 147.414 71.2472C147.474 71.2353 147.521 71.2259 147.556 71.2188L147.727 71.9716C147.67 71.9929 147.591 72.0142 147.489 72.0355C147.387 72.0592 147.258 72.071 147.102 72.071C146.865 72.071 146.633 72.0201 146.406 71.9183C146.181 71.8165 145.994 71.6615 145.845 71.4531C145.698 71.2448 145.625 70.982 145.625 70.6648V65.2386ZM148.888 72V66.5455H149.726V72H148.888ZM149.314 65.6364C149.151 65.6364 149.01 65.5807 148.892 65.4695C148.776 65.3582 148.718 65.2244 148.718 65.0682C148.718 64.9119 148.776 64.7782 148.892 64.6669C149.01 64.5556 149.151 64.5 149.314 64.5C149.478 64.5 149.617 64.5556 149.733 64.6669C149.852 64.7782 149.911 64.9119 149.911 65.0682C149.911 65.2244 149.852 65.3582 149.733 65.4695C149.617 65.5807 149.478 65.6364 149.314 65.6364ZM153.477 72.1136C152.985 72.1136 152.553 71.9964 152.181 71.7621C151.812 71.5277 151.523 71.1998 151.314 70.7784C151.108 70.357 151.006 69.8646 151.006 69.3011C151.006 68.733 151.108 68.237 151.314 67.8132C151.523 67.3894 151.812 67.0604 152.181 66.826C152.553 66.5916 152.985 66.4744 153.477 66.4744C153.97 66.4744 154.4 66.5916 154.77 66.826C155.141 67.0604 155.43 67.3894 155.636 67.8132C155.845 68.237 155.949 68.733 155.949 69.3011C155.949 69.8646 155.845 70.357 155.636 70.7784C155.43 71.1998 155.141 71.5277 154.77 71.7621C154.4 71.9964 153.97 72.1136 153.477 72.1136ZM153.477 71.3608C153.851 71.3608 154.159 71.2649 154.4 71.0732C154.642 70.8814 154.821 70.6293 154.937 70.3168C155.053 70.0043 155.111 69.6657 155.111 69.3011C155.111 68.9366 155.053 68.5968 154.937 68.282C154.821 67.9671 154.642 67.7126 154.4 67.5185C154.159 67.3243 153.851 67.2273 153.477 67.2273C153.103 67.2273 152.795 67.3243 152.554 67.5185C152.312 67.7126 152.134 67.9671 152.018 68.282C151.902 68.5968 151.844 68.9366 151.844 69.3011C151.844 69.6657 151.902 70.0043 152.018 70.3168C152.134 70.6293 152.312 70.8814 152.554 71.0732C152.795 71.2649 153.103 71.3608 153.477 71.3608ZM158.066 68.7188V72H157.228V66.5455H158.038V67.3977H158.109C158.237 67.1207 158.431 66.8982 158.691 66.7301C158.951 66.5597 159.288 66.4744 159.7 66.4744C160.069 66.4744 160.392 66.5502 160.669 66.7017C160.946 66.8509 161.161 67.0781 161.315 67.3835C161.469 67.6866 161.546 68.0701 161.546 68.5341V72H160.708V68.5909C160.708 68.1624 160.597 67.8286 160.374 67.5895C160.152 67.348 159.846 67.2273 159.458 67.2273C159.191 67.2273 158.951 67.2853 158.741 67.4013C158.532 67.5173 158.368 67.6866 158.247 67.9091C158.126 68.1316 158.066 68.4015 158.066 68.7188ZM168.106 72.1136C167.614 72.1136 167.182 71.9964 166.81 71.7621C166.441 71.5277 166.152 71.1998 165.943 70.7784C165.737 70.357 165.634 69.8646 165.634 69.3011C165.634 68.733 165.737 68.237 165.943 67.8132C166.152 67.3894 166.441 67.0604 166.81 66.826C167.182 66.5916 167.614 66.4744 168.106 66.4744C168.598 66.4744 169.029 66.5916 169.399 66.826C169.77 67.0604 170.059 67.3894 170.265 67.8132C170.473 68.237 170.578 68.733 170.578 69.3011C170.578 69.8646 170.473 70.357 170.265 70.7784C170.059 71.1998 169.77 71.5277 169.399 71.7621C169.029 71.9964 168.598 72.1136 168.106 72.1136ZM168.106 71.3608C168.48 71.3608 168.788 71.2649 169.029 71.0732C169.271 70.8814 169.45 70.6293 169.566 70.3168C169.682 70.0043 169.74 69.6657 169.74 69.3011C169.74 68.9366 169.682 68.5968 169.566 68.282C169.45 67.9671 169.271 67.7126 169.029 67.5185C168.788 67.3243 168.48 67.2273 168.106 67.2273C167.732 67.2273 167.424 67.3243 167.183 67.5185C166.941 67.7126 166.762 67.9671 166.646 68.282C166.53 68.5968 166.472 68.9366 166.472 69.3011C166.472 69.6657 166.53 70.0043 166.646 70.3168C166.762 70.6293 166.941 70.8814 167.183 71.0732C167.424 71.2649 167.732 71.3608 168.106 71.3608ZM174.286 66.5455V67.2557H171.346V66.5455H174.286ZM172.226 72V65.7926C172.226 65.4801 172.3 65.2197 172.446 65.0114C172.593 64.803 172.784 64.6468 173.018 64.5426C173.252 64.4384 173.5 64.3864 173.76 64.3864C173.966 64.3864 174.134 64.4029 174.265 64.4361C174.395 64.4692 174.492 64.5 174.556 64.5284L174.314 65.2528C174.272 65.2386 174.212 65.2209 174.137 65.1996C174.063 65.1783 173.966 65.1676 173.846 65.1676C173.569 65.1676 173.368 65.2375 173.245 65.3771C173.125 65.5168 173.064 65.7216 173.064 65.9915V72H172.226ZM180.645 66.5455V67.2557H177.818V66.5455H180.645ZM178.642 65.2386H179.48V70.4375C179.48 70.6742 179.515 70.8518 179.583 70.9702C179.654 71.0862 179.744 71.1643 179.853 71.2045C179.964 71.2424 180.082 71.2614 180.205 71.2614C180.297 71.2614 180.373 71.2566 180.432 71.2472C180.491 71.2353 180.539 71.2259 180.574 71.2188L180.744 71.9716C180.688 71.9929 180.608 72.0142 180.507 72.0355C180.405 72.0592 180.276 72.071 180.119 72.071C179.883 72.071 179.651 72.0201 179.423 71.9183C179.199 71.8165 179.012 71.6615 178.862 71.4531C178.716 71.2448 178.642 70.982 178.642 70.6648V65.2386ZM182.861 68.7188V72H182.023V64.7273H182.861V67.3977H182.932C183.06 67.116 183.252 66.8923 183.507 66.7266C183.765 66.5585 184.109 66.4744 184.537 66.4744C184.909 66.4744 185.234 66.549 185.514 66.6982C185.793 66.8449 186.01 67.071 186.164 67.3764C186.32 67.6795 186.398 68.0653 186.398 68.5341V72H185.56V68.5909C185.56 68.1577 185.447 67.8227 185.222 67.5859C185 67.3468 184.691 67.2273 184.296 67.2273C184.021 67.2273 183.775 67.2853 183.557 67.4013C183.342 67.5173 183.171 67.6866 183.046 67.9091C182.923 68.1316 182.861 68.4015 182.861 68.7188ZM190.218 72.1136C189.692 72.1136 189.239 71.9976 188.858 71.7656C188.479 71.5312 188.187 71.2045 187.981 70.7855C187.777 70.3641 187.675 69.8741 187.675 69.3153C187.675 68.7566 187.777 68.2642 187.981 67.8381C188.187 67.4096 188.473 67.0758 188.84 66.8366C189.21 66.5952 189.64 66.4744 190.133 66.4744C190.417 66.4744 190.697 66.5218 190.974 66.6165C191.251 66.7112 191.504 66.8651 191.731 67.0781C191.958 67.2888 192.139 67.5682 192.274 67.9162C192.409 68.2642 192.477 68.6927 192.477 69.2017V69.5568H188.272V68.8324H191.624C191.624 68.5246 191.563 68.25 191.44 68.0085C191.319 67.767 191.146 67.5765 190.921 67.4368C190.699 67.2971 190.436 67.2273 190.133 67.2273C189.799 67.2273 189.51 67.3101 189.266 67.4759C189.025 67.6392 188.839 67.8523 188.709 68.1151C188.579 68.3778 188.513 68.6596 188.513 68.9602V69.4432C188.513 69.8551 188.585 70.2043 188.727 70.4908C188.871 70.7749 189.071 70.9915 189.327 71.1406C189.582 71.2874 189.879 71.3608 190.218 71.3608C190.438 71.3608 190.637 71.33 190.815 71.2685C190.995 71.2045 191.15 71.1098 191.28 70.9844C191.41 70.8565 191.511 70.6979 191.582 70.5085L192.391 70.7358C192.306 71.0104 192.163 71.2519 191.962 71.4602C191.76 71.6662 191.512 71.8272 191.216 71.9432C190.92 72.0568 190.587 72.1136 190.218 72.1136ZM198.851 72.1136C198.325 72.1136 197.872 71.9976 197.491 71.7656C197.112 71.5312 196.82 71.2045 196.614 70.7855C196.41 70.3641 196.308 69.8741 196.308 69.3153C196.308 68.7566 196.41 68.2642 196.614 67.8381C196.82 67.4096 197.106 67.0758 197.473 66.8366C197.842 66.5952 198.273 66.4744 198.766 66.4744C199.05 66.4744 199.33 66.5218 199.607 66.6165C199.884 66.7112 200.136 66.8651 200.364 67.0781C200.591 67.2888 200.772 67.5682 200.907 67.9162C201.042 68.2642 201.109 68.6927 201.109 69.2017V69.5568H196.905V68.8324H200.257C200.257 68.5246 200.196 68.25 200.072 68.0085C199.952 67.767 199.779 67.5765 199.554 67.4368C199.331 67.2971 199.069 67.2273 198.766 67.2273C198.432 67.2273 198.143 67.3101 197.899 67.4759C197.658 67.6392 197.472 67.8523 197.342 68.1151C197.211 68.3778 197.146 68.6596 197.146 68.9602V69.4432C197.146 69.8551 197.217 70.2043 197.359 70.4908C197.504 70.7749 197.704 70.9915 197.96 71.1406C198.215 71.2874 198.512 71.3608 198.851 71.3608C199.071 71.3608 199.27 71.33 199.447 71.2685C199.627 71.2045 199.782 71.1098 199.913 70.9844C200.043 70.8565 200.143 70.6979 200.214 70.5085L201.024 70.7358C200.939 71.0104 200.796 71.2519 200.594 71.4602C200.393 71.6662 200.145 71.8272 199.849 71.9432C199.553 72.0568 199.22 72.1136 198.851 72.1136ZM206.678 66.5455L204.661 72H203.809L201.792 66.5455H202.701L204.207 70.892H204.264L205.769 66.5455H206.678ZM209.876 72.1136C209.351 72.1136 208.897 71.9976 208.516 71.7656C208.137 71.5312 207.845 71.2045 207.639 70.7855C207.435 70.3641 207.334 69.8741 207.334 69.3153C207.334 68.7566 207.435 68.2642 207.639 67.8381C207.845 67.4096 208.131 67.0758 208.498 66.8366C208.868 66.5952 209.299 66.4744 209.791 66.4744C210.075 66.4744 210.356 66.5218 210.633 66.6165C210.91 66.7112 211.162 66.8651 211.389 67.0781C211.616 67.2888 211.797 67.5682 211.932 67.9162C212.067 68.2642 212.135 68.6927 212.135 69.2017V69.5568H207.93V68.8324H211.282C211.282 68.5246 211.221 68.25 211.098 68.0085C210.977 67.767 210.804 67.5765 210.579 67.4368C210.357 67.2971 210.094 67.2273 209.791 67.2273C209.457 67.2273 209.168 67.3101 208.925 67.4759C208.683 67.6392 208.497 67.8523 208.367 68.1151C208.237 68.3778 208.172 68.6596 208.172 68.9602V69.4432C208.172 69.8551 208.243 70.2043 208.385 70.4908C208.529 70.7749 208.729 70.9915 208.985 71.1406C209.241 71.2874 209.538 71.3608 209.876 71.3608C210.096 71.3608 210.295 71.33 210.473 71.2685C210.653 71.2045 210.808 71.1098 210.938 70.9844C211.068 70.8565 211.169 70.6979 211.24 70.5085L212.05 70.7358C211.964 71.0104 211.821 71.2519 211.62 71.4602C211.419 71.6662 211.17 71.8272 210.874 71.9432C210.578 72.0568 210.246 72.1136 209.876 72.1136ZM214.248 68.7188V72H213.41V66.5455H214.219V67.3977H214.29C214.418 67.1207 214.612 66.8982 214.873 66.7301C215.133 66.5597 215.469 66.4744 215.881 66.4744C216.251 66.4744 216.574 66.5502 216.851 66.7017C217.128 66.8509 217.343 67.0781 217.497 67.3835C217.651 67.6866 217.728 68.0701 217.728 68.5341V72H216.89V68.5909C216.89 68.1624 216.778 67.8286 216.556 67.5895C216.333 67.348 216.028 67.2273 215.64 67.2273C215.372 67.2273 215.133 67.2853 214.922 67.4013C214.714 67.5173 214.55 67.6866 214.429 67.9091C214.308 68.1316 214.248 68.4015 214.248 68.7188ZM221.631 66.5455V67.2557H218.805V66.5455H221.631ZM219.629 65.2386H220.467V70.4375C220.467 70.6742 220.501 70.8518 220.57 70.9702C220.641 71.0862 220.731 71.1643 220.839 71.2045C220.951 71.2424 221.068 71.2614 221.191 71.2614C221.283 71.2614 221.359 71.2566 221.418 71.2472C221.478 71.2353 221.525 71.2259 221.56 71.2188L221.731 71.9716C221.674 71.9929 221.595 72.0142 221.493 72.0355C221.391 72.0592 221.262 72.071 221.106 72.071C220.869 72.071 220.637 72.0201 220.41 71.9183C220.185 71.8165 219.998 71.6615 219.849 71.4531C219.702 71.2448 219.629 70.982 219.629 70.6648V65.2386ZM223.503 72.0568C223.328 72.0568 223.177 71.9941 223.052 71.8686C222.926 71.7431 222.864 71.5928 222.864 71.4176C222.864 71.2424 222.926 71.0921 223.052 70.9666C223.177 70.8411 223.328 70.7784 223.503 70.7784C223.678 70.7784 223.828 70.8411 223.954 70.9666C224.079 71.0921 224.142 71.2424 224.142 71.4176C224.142 71.5336 224.112 71.6402 224.053 71.7372C223.996 71.8343 223.92 71.9124 223.822 71.9716C223.728 72.0284 223.621 72.0568 223.503 72.0568Z" fill="#222222"/>
<path d="M60.179 93H59.2557L61.9261 85.7273H62.8352L65.5057 93H64.5824L62.4091 86.8778H62.3523L60.179 93ZM60.5199 90.1591H64.2415V90.9403H60.5199V90.1591ZM73.201 88.767L72.4482 88.9801C72.4008 88.8546 72.331 88.7327 72.2386 88.6143C72.1487 88.4936 72.0256 88.3942 71.8693 88.3161C71.7131 88.2379 71.513 88.1989 71.2692 88.1989C70.9354 88.1989 70.6572 88.2758 70.4347 88.4297C70.2145 88.5812 70.1044 88.7741 70.1044 89.0085C70.1044 89.2169 70.1802 89.3814 70.3317 89.5021C70.4832 89.6229 70.7199 89.7235 71.0419 89.804L71.8516 90.0028C72.3393 90.1212 72.7027 90.3023 72.9418 90.5462C73.1809 90.7876 73.3004 91.099 73.3004 91.4801C73.3004 91.7926 73.2105 92.072 73.0305 92.3182C72.853 92.5644 72.6044 92.7585 72.2848 92.9006C71.9652 93.0426 71.5935 93.1136 71.1697 93.1136C70.6134 93.1136 70.1529 92.9929 69.7884 92.7514C69.4238 92.5099 69.1929 92.1572 69.0959 91.6932L69.8913 91.4943C69.9671 91.7879 70.1103 92.008 70.321 92.1548C70.5341 92.3016 70.8123 92.375 71.1555 92.375C71.5462 92.375 71.8563 92.2921 72.0859 92.1264C72.3179 91.9583 72.4339 91.7571 72.4339 91.5227C72.4339 91.3333 72.3677 91.1747 72.2351 91.0469C72.1025 90.9167 71.8989 90.8196 71.6243 90.7557L70.7152 90.5426C70.2157 90.4242 69.8487 90.2408 69.6143 89.9922C69.3823 89.7412 69.2663 89.4276 69.2663 89.0511C69.2663 88.7434 69.3527 88.4711 69.5256 88.2344C69.7008 87.9976 69.9387 87.8118 70.2393 87.6768C70.5424 87.5419 70.8857 87.4744 71.2692 87.4744C71.8089 87.4744 72.2327 87.5928 72.5405 87.8295C72.8506 88.0663 73.0708 88.3788 73.201 88.767ZM77.9995 90.7699V87.5455H78.8375V93H77.9995V92.0767H77.9426C77.8148 92.3537 77.6159 92.5893 77.3461 92.7834C77.0762 92.9751 76.7353 93.071 76.3233 93.071C75.9824 93.071 75.6794 92.9964 75.4142 92.8473C75.1491 92.6958 74.9408 92.4685 74.7892 92.1655C74.6377 91.8601 74.562 91.4754 74.562 91.0114V87.5455H75.4V90.9545C75.4 91.3523 75.5113 91.6695 75.7338 91.9062C75.9587 92.143 76.2452 92.2614 76.5932 92.2614C76.8016 92.2614 77.0134 92.2081 77.2289 92.1016C77.4467 91.995 77.629 91.8317 77.7757 91.6115C77.9249 91.3913 77.9995 91.1108 77.9995 90.7699ZM82.5742 95.1591C82.1694 95.1591 81.8214 95.107 81.5302 95.0028C81.239 94.901 80.9963 94.7661 80.8022 94.598C80.6104 94.4323 80.4577 94.2547 80.3441 94.0653L81.0117 93.5966C81.0875 93.696 81.1834 93.8097 81.2994 93.9375C81.4154 94.0677 81.574 94.1802 81.7752 94.2749C81.9788 94.3719 82.2451 94.4205 82.5742 94.4205C83.0146 94.4205 83.378 94.3139 83.6644 94.1009C83.9509 93.8878 84.0941 93.554 84.0941 93.0994V91.9915H84.0231C83.9615 92.0909 83.8739 92.214 83.7603 92.3608C83.649 92.5052 83.488 92.6342 83.2773 92.7479C83.069 92.8591 82.7873 92.9148 82.4322 92.9148C81.9918 92.9148 81.5965 92.8106 81.2461 92.6023C80.8981 92.3939 80.6223 92.0909 80.4187 91.6932C80.2174 91.2955 80.1168 90.8125 80.1168 90.2443C80.1168 89.6856 80.2151 89.1991 80.4116 88.7848C80.6081 88.3681 80.8815 88.0462 81.2319 87.8189C81.5823 87.5893 81.9871 87.4744 82.4464 87.4744C82.8015 87.4744 83.0832 87.5336 83.2915 87.652C83.5022 87.768 83.6632 87.9006 83.7745 88.0497C83.8881 88.1965 83.9757 88.3172 84.0373 88.4119H84.1225V87.5455H84.9322V93.1562C84.9322 93.625 84.8256 94.0062 84.6126 94.2997C84.4019 94.5956 84.1178 94.8123 83.7603 94.9496C83.4052 95.0893 83.0098 95.1591 82.5742 95.1591ZM82.5458 92.1619C82.882 92.1619 83.1661 92.085 83.3981 91.9311C83.6301 91.7772 83.8065 91.5559 83.9272 91.267C84.0479 90.9782 84.1083 90.6326 84.1083 90.2301C84.1083 89.8371 84.0491 89.4903 83.9308 89.1896C83.8124 88.889 83.6372 88.6534 83.4052 88.483C83.1732 88.3125 82.8867 88.2273 82.5458 88.2273C82.1907 88.2273 81.8948 88.3172 81.658 88.4972C81.4237 88.6771 81.2473 88.9186 81.1289 89.2216C81.0129 89.5246 80.9549 89.8608 80.9549 90.2301C80.9549 90.6089 81.0141 90.9439 81.1325 91.2351C81.2532 91.5239 81.4308 91.7512 81.6651 91.9169C81.9019 92.0803 82.1954 92.1619 82.5458 92.1619ZM88.668 95.1591C88.2631 95.1591 87.9151 95.107 87.6239 95.0028C87.3327 94.901 87.0901 94.7661 86.896 94.598C86.7042 94.4323 86.5515 94.2547 86.4379 94.0653L87.1055 93.5966C87.1812 93.696 87.2771 93.8097 87.3931 93.9375C87.5091 94.0677 87.6677 94.1802 87.869 94.2749C88.0726 94.3719 88.3389 94.4205 88.668 94.4205C89.1083 94.4205 89.4717 94.3139 89.7582 94.1009C90.0446 93.8878 90.1879 93.554 90.1879 93.0994V91.9915H90.1168C90.0553 92.0909 89.9677 92.214 89.854 92.3608C89.7428 92.5052 89.5818 92.6342 89.3711 92.7479C89.1628 92.8591 88.881 92.9148 88.5259 92.9148C88.0856 92.9148 87.6902 92.8106 87.3398 92.6023C86.9918 92.3939 86.716 92.0909 86.5124 91.6932C86.3112 91.2955 86.2106 90.8125 86.2106 90.2443C86.2106 89.6856 86.3088 89.1991 86.5053 88.7848C86.7018 88.3681 86.9753 88.0462 87.3256 87.8189C87.676 87.5893 88.0808 87.4744 88.5401 87.4744C88.8952 87.4744 89.177 87.5336 89.3853 87.652C89.596 87.768 89.757 87.9006 89.8683 88.0497C89.9819 88.1965 90.0695 88.3172 90.131 88.4119H90.2163V87.5455H91.0259V93.1562C91.0259 93.625 90.9194 94.0062 90.7063 94.2997C90.4956 94.5956 90.2115 94.8123 89.854 94.9496C89.4989 95.0893 89.1036 95.1591 88.668 95.1591ZM88.6396 92.1619C88.9757 92.1619 89.2598 92.085 89.4918 91.9311C89.7238 91.7772 89.9002 91.5559 90.021 91.267C90.1417 90.9782 90.2021 90.6326 90.2021 90.2301C90.2021 89.8371 90.1429 89.4903 90.0245 89.1896C89.9061 88.889 89.7309 88.6534 89.4989 88.483C89.2669 88.3125 88.9805 88.2273 88.6396 88.2273C88.2844 88.2273 87.9885 88.3172 87.7518 88.4972C87.5174 88.6771 87.341 88.9186 87.2227 89.2216C87.1067 89.5246 87.0487 89.8608 87.0487 90.2301C87.0487 90.6089 87.1078 90.9439 87.2262 91.2351C87.3469 91.5239 87.5245 91.7512 87.7589 91.9169C87.9956 92.0803 88.2892 92.1619 88.6396 92.1619ZM94.8469 93.1136C94.3214 93.1136 93.868 92.9976 93.4869 92.7656C93.1081 92.5312 92.8157 92.2045 92.6097 91.7855C92.4061 91.3641 92.3043 90.8741 92.3043 90.3153C92.3043 89.7566 92.4061 89.2642 92.6097 88.8381C92.8157 88.4096 93.1022 88.0758 93.4691 87.8366C93.8384 87.5952 94.2693 87.4744 94.7617 87.4744C95.0458 87.4744 95.3263 87.5218 95.6033 87.6165C95.8803 87.7112 96.1325 87.8651 96.3597 88.0781C96.587 88.2888 96.7681 88.5682 96.9031 88.9162C97.038 89.2642 97.1055 89.6927 97.1055 90.2017V90.5568H92.9009V89.8324H96.2532C96.2532 89.5246 96.1916 89.25 96.0685 89.0085C95.9478 88.767 95.775 88.5765 95.5501 88.4368C95.3275 88.2971 95.0647 88.2273 94.7617 88.2273C94.4279 88.2273 94.1391 88.3101 93.8952 88.4759C93.6538 88.6392 93.4679 88.8523 93.3377 89.1151C93.2075 89.3778 93.1424 89.6596 93.1424 89.9602V90.4432C93.1424 90.8551 93.2134 91.2043 93.3555 91.4908C93.4999 91.7749 93.6999 91.9915 93.9556 92.1406C94.2113 92.2874 94.5084 92.3608 94.8469 92.3608C95.0671 92.3608 95.266 92.33 95.4435 92.2685C95.6235 92.2045 95.7785 92.1098 95.9087 91.9844C96.0389 91.8565 96.1396 91.6979 96.2106 91.5085L97.0202 91.7358C96.935 92.0104 96.7918 92.2519 96.5906 92.4602C96.3893 92.6662 96.1407 92.8272 95.8448 92.9432C95.5489 93.0568 95.2163 93.1136 94.8469 93.1136ZM102.244 88.767L101.491 88.9801C101.444 88.8546 101.374 88.7327 101.282 88.6143C101.192 88.4936 101.069 88.3942 100.912 88.3161C100.756 88.2379 100.556 88.1989 100.312 88.1989C99.9783 88.1989 99.7002 88.2758 99.4776 88.4297C99.2575 88.5812 99.1474 88.7741 99.1474 89.0085C99.1474 89.2169 99.2231 89.3814 99.3746 89.5021C99.5262 89.6229 99.7629 89.7235 100.085 89.804L100.895 90.0028C101.382 90.1212 101.746 90.3023 101.985 90.5462C102.224 90.7876 102.343 91.099 102.343 91.4801C102.343 91.7926 102.253 92.072 102.074 92.3182C101.896 92.5644 101.647 92.7585 101.328 92.9006C101.008 93.0426 100.636 93.1136 100.213 93.1136C99.6564 93.1136 99.1959 92.9929 98.8313 92.7514C98.4667 92.5099 98.2359 92.1572 98.1388 91.6932L98.9343 91.4943C99.0101 91.7879 99.1533 92.008 99.364 92.1548C99.5771 92.3016 99.8552 92.375 100.199 92.375C100.589 92.375 100.899 92.2921 101.129 92.1264C101.361 91.9583 101.477 91.7571 101.477 91.5227C101.477 91.3333 101.411 91.1747 101.278 91.0469C101.145 90.9167 100.942 90.8196 100.667 90.7557L99.7582 90.5426C99.2586 90.4242 98.8917 90.2408 98.6573 89.9922C98.4253 89.7412 98.3093 89.4276 98.3093 89.0511C98.3093 88.7434 98.3957 88.4711 98.5685 88.2344C98.7437 87.9976 98.9817 87.8118 99.2823 87.6768C99.5853 87.5419 99.9286 87.4744 100.312 87.4744C100.852 87.4744 101.276 87.5928 101.583 87.8295C101.894 88.0663 102.114 88.3788 102.244 88.767ZM105.977 87.5455V88.2557H103.15V87.5455H105.977ZM103.974 86.2386H104.812V91.4375C104.812 91.6742 104.847 91.8518 104.915 91.9702C104.986 92.0862 105.076 92.1643 105.185 92.2045C105.296 92.2424 105.414 92.2614 105.537 92.2614C105.629 92.2614 105.705 92.2566 105.764 92.2472C105.823 92.2353 105.871 92.2259 105.906 92.2188L106.077 92.9716C106.02 92.9929 105.94 93.0142 105.839 93.0355C105.737 93.0592 105.608 93.071 105.452 93.071C105.215 93.071 104.983 93.0201 104.756 92.9183C104.531 92.8165 104.344 92.6615 104.194 92.4531C104.048 92.2448 103.974 91.982 103.974 91.6648V86.2386ZM109.466 93.1136C108.941 93.1136 108.487 92.9976 108.106 92.7656C107.727 92.5312 107.435 92.2045 107.229 91.7855C107.025 91.3641 106.923 90.8741 106.923 90.3153C106.923 89.7566 107.025 89.2642 107.229 88.8381C107.435 88.4096 107.721 88.0758 108.088 87.8366C108.458 87.5952 108.888 87.4744 109.381 87.4744C109.665 87.4744 109.945 87.5218 110.222 87.6165C110.499 87.7112 110.752 87.8651 110.979 88.0781C111.206 88.2888 111.387 88.5682 111.522 88.9162C111.657 89.2642 111.725 89.6927 111.725 90.2017V90.5568H107.52V89.8324H110.872C110.872 89.5246 110.811 89.25 110.688 89.0085C110.567 88.767 110.394 88.5765 110.169 88.4368C109.947 88.2971 109.684 88.2273 109.381 88.2273C109.047 88.2273 108.758 88.3101 108.514 88.4759C108.273 88.6392 108.087 88.8523 107.957 89.1151C107.827 89.3778 107.762 89.6596 107.762 89.9602V90.4432C107.762 90.8551 107.833 91.2043 107.975 91.4908C108.119 91.7749 108.319 91.9915 108.575 92.1406C108.83 92.2874 109.128 92.3608 109.466 92.3608C109.686 92.3608 109.885 92.33 110.063 92.2685C110.243 92.2045 110.398 92.1098 110.528 91.9844C110.658 91.8565 110.759 91.6979 110.83 91.5085L111.639 91.7358C111.554 92.0104 111.411 92.2519 111.21 92.4602C111.008 92.6662 110.76 92.8272 110.464 92.9432C110.168 93.0568 109.835 93.1136 109.466 93.1136ZM115.059 93.1136C114.605 93.1136 114.203 92.9988 113.855 92.7692C113.507 92.5372 113.235 92.2105 113.039 91.7891C112.842 91.3653 112.744 90.8646 112.744 90.2869C112.744 89.714 112.842 89.2169 113.039 88.7955C113.235 88.3741 113.508 88.0485 113.859 87.8189C114.209 87.5893 114.614 87.4744 115.073 87.4744C115.428 87.4744 115.709 87.5336 115.915 87.652C116.123 87.768 116.282 87.9006 116.391 88.0497C116.502 88.1965 116.588 88.3172 116.65 88.4119H116.721V85.7273H117.559V93H116.749V92.1619H116.65C116.588 92.2614 116.501 92.3868 116.387 92.5384C116.274 92.6875 116.111 92.8213 115.901 92.9396C115.69 93.0556 115.41 93.1136 115.059 93.1136ZM115.173 92.3608C115.509 92.3608 115.793 92.2732 116.025 92.098C116.257 91.9205 116.433 91.6754 116.554 91.3629C116.675 91.0481 116.735 90.6847 116.735 90.2727C116.735 89.8655 116.676 89.5092 116.558 89.2038C116.439 88.8961 116.264 88.657 116.032 88.4865C115.8 88.3137 115.514 88.2273 115.173 88.2273C114.818 88.2273 114.522 88.3184 114.285 88.5007C114.051 88.6806 113.874 88.9257 113.756 89.2358C113.64 89.5436 113.582 89.8892 113.582 90.2727C113.582 90.661 113.641 91.0137 113.759 91.331C113.88 91.6458 114.058 91.8968 114.292 92.0838C114.529 92.2685 114.822 92.3608 115.173 92.3608ZM125.887 88.767L125.134 88.9801C125.086 88.8546 125.017 88.7327 124.924 88.6143C124.834 88.4936 124.711 88.3942 124.555 88.3161C124.399 88.2379 124.199 88.1989 123.955 88.1989C123.621 88.1989 123.343 88.2758 123.12 88.4297C122.9 88.5812 122.79 88.7741 122.79 89.0085C122.79 89.2169 122.866 89.3814 123.017 89.5021C123.169 89.6229 123.405 89.7235 123.727 89.804L124.537 90.0028C125.025 90.1212 125.388 90.3023 125.627 90.5462C125.866 90.7876 125.986 91.099 125.986 91.4801C125.986 91.7926 125.896 92.072 125.716 92.3182C125.539 92.5644 125.29 92.7585 124.97 92.9006C124.651 93.0426 124.279 93.1136 123.855 93.1136C123.299 93.1136 122.838 92.9929 122.474 92.7514C122.109 92.5099 121.878 92.1572 121.781 91.6932L122.577 91.4943C122.653 91.7879 122.796 92.008 123.007 92.1548C123.22 92.3016 123.498 92.375 123.841 92.375C124.232 92.375 124.542 92.2921 124.771 92.1264C125.003 91.9583 125.119 91.7571 125.119 91.5227C125.119 91.3333 125.053 91.1747 124.921 91.0469C124.788 90.9167 124.584 90.8196 124.31 90.7557L123.401 90.5426C122.901 90.4242 122.534 90.2408 122.3 89.9922C122.068 89.7412 121.952 89.4276 121.952 89.0511C121.952 88.7434 122.038 88.4711 122.211 88.2344C122.386 87.9976 122.624 87.8118 122.925 87.6768C123.228 87.5419 123.571 87.4744 123.955 87.4744C124.494 87.4744 124.918 87.5928 125.226 87.8295C125.536 88.0663 125.756 88.3788 125.887 88.767ZM129.463 93.1136C128.971 93.1136 128.539 92.9964 128.167 92.7621C127.798 92.5277 127.509 92.1998 127.301 91.7784C127.095 91.357 126.992 90.8646 126.992 90.3011C126.992 89.733 127.095 89.237 127.301 88.8132C127.509 88.3894 127.798 88.0604 128.167 87.826C128.539 87.5916 128.971 87.4744 129.463 87.4744C129.956 87.4744 130.387 87.5916 130.756 87.826C131.128 88.0604 131.417 88.3894 131.623 88.8132C131.831 89.237 131.935 89.733 131.935 90.3011C131.935 90.8646 131.831 91.357 131.623 91.7784C131.417 92.1998 131.128 92.5277 130.756 92.7621C130.387 92.9964 129.956 93.1136 129.463 93.1136ZM129.463 92.3608C129.837 92.3608 130.145 92.2649 130.387 92.0732C130.628 91.8814 130.807 91.6293 130.923 91.3168C131.039 91.0043 131.097 90.6657 131.097 90.3011C131.097 89.9366 131.039 89.5968 130.923 89.282C130.807 88.9671 130.628 88.7126 130.387 88.5185C130.145 88.3243 129.837 88.2273 129.463 88.2273C129.089 88.2273 128.782 88.3243 128.54 88.5185C128.299 88.7126 128.12 88.9671 128.004 89.282C127.888 89.5968 127.83 89.9366 127.83 90.3011C127.83 90.6657 127.888 91.0043 128.004 91.3168C128.12 91.6293 128.299 91.8814 128.54 92.0732C128.782 92.2649 129.089 92.3608 129.463 92.3608ZM134.052 85.7273V93H133.214V85.7273H134.052ZM139.025 90.7699V87.5455H139.863V93H139.025V92.0767H138.968C138.84 92.3537 138.641 92.5893 138.371 92.7834C138.102 92.9751 137.761 93.071 137.349 93.071C137.008 93.071 136.705 92.9964 136.44 92.8473C136.174 92.6958 135.966 92.4685 135.815 92.1655C135.663 91.8601 135.587 91.4754 135.587 91.0114V87.5455H136.425V90.9545C136.425 91.3523 136.537 91.6695 136.759 91.9062C136.984 92.143 137.271 92.2614 137.619 92.2614C137.827 92.2614 138.039 92.2081 138.254 92.1016C138.472 91.995 138.654 91.8317 138.801 91.6115C138.95 91.3913 139.025 91.1108 139.025 90.7699ZM143.77 87.5455V88.2557H140.943V87.5455H143.77ZM141.767 86.2386H142.605V91.4375C142.605 91.6742 142.64 91.8518 142.708 91.9702C142.779 92.0862 142.869 92.1643 142.978 92.2045C143.089 92.2424 143.207 92.2614 143.33 92.2614C143.422 92.2614 143.498 92.2566 143.557 92.2472C143.616 92.2353 143.664 92.2259 143.699 92.2188L143.869 92.9716C143.813 92.9929 143.733 93.0142 143.632 93.0355C143.53 93.0592 143.401 93.071 143.244 93.071C143.008 93.071 142.776 93.0201 142.548 92.9183C142.324 92.8165 142.137 92.6615 141.987 92.4531C141.841 92.2448 141.767 91.982 141.767 91.6648V86.2386ZM145.031 93V87.5455H145.869V93H145.031ZM145.457 86.6364C145.294 86.6364 145.153 86.5807 145.034 86.4695C144.918 86.3582 144.86 86.2244 144.86 86.0682C144.86 85.9119 144.918 85.7782 145.034 85.6669C145.153 85.5556 145.294 85.5 145.457 85.5C145.62 85.5 145.76 85.5556 145.876 85.6669C145.994 85.7782 146.053 85.9119 146.053 86.0682C146.053 86.2244 145.994 86.3582 145.876 86.4695C145.76 86.5807 145.62 86.6364 145.457 86.6364ZM149.62 93.1136C149.127 93.1136 148.695 92.9964 148.324 92.7621C147.954 92.5277 147.665 92.1998 147.457 91.7784C147.251 91.357 147.148 90.8646 147.148 90.3011C147.148 89.733 147.251 89.237 147.457 88.8132C147.665 88.3894 147.954 88.0604 148.324 87.826C148.695 87.5916 149.127 87.4744 149.62 87.4744C150.112 87.4744 150.543 87.5916 150.912 87.826C151.284 88.0604 151.573 88.3894 151.779 88.8132C151.987 89.237 152.091 89.733 152.091 90.3011C152.091 90.8646 151.987 91.357 151.779 91.7784C151.573 92.1998 151.284 92.5277 150.912 92.7621C150.543 92.9964 150.112 93.1136 149.62 93.1136ZM149.62 92.3608C149.994 92.3608 150.301 92.2649 150.543 92.0732C150.784 91.8814 150.963 91.6293 151.079 91.3168C151.195 91.0043 151.253 90.6657 151.253 90.3011C151.253 89.9366 151.195 89.5968 151.079 89.282C150.963 88.9671 150.784 88.7126 150.543 88.5185C150.301 88.3243 149.994 88.2273 149.62 88.2273C149.246 88.2273 148.938 88.3243 148.696 88.5185C148.455 88.7126 148.276 88.9671 148.16 89.282C148.044 89.5968 147.986 89.9366 147.986 90.3011C147.986 90.6657 148.044 91.0043 148.16 91.3168C148.276 91.6293 148.455 91.8814 148.696 92.0732C148.938 92.2649 149.246 92.3608 149.62 92.3608ZM154.209 89.7188V93H153.371V87.5455H154.18V88.3977H154.251C154.379 88.1207 154.573 87.8982 154.834 87.7301C155.094 87.5597 155.43 87.4744 155.842 87.4744C156.211 87.4744 156.535 87.5502 156.812 87.7017C157.089 87.8509 157.304 88.0781 157.458 88.3835C157.612 88.6866 157.689 89.0701 157.689 89.5341V93H156.851V89.5909C156.851 89.1624 156.739 88.8286 156.517 88.5895C156.294 88.348 155.989 88.2273 155.601 88.2273C155.333 88.2273 155.094 88.2853 154.883 88.4013C154.675 88.5173 154.51 88.6866 154.39 88.9091C154.269 89.1316 154.209 89.4015 154.209 89.7188ZM164.249 93.1136C163.756 93.1136 163.324 92.9964 162.952 92.7621C162.583 92.5277 162.294 92.1998 162.086 91.7784C161.88 91.357 161.777 90.8646 161.777 90.3011C161.777 89.733 161.88 89.237 162.086 88.8132C162.294 88.3894 162.583 88.0604 162.952 87.826C163.324 87.5916 163.756 87.4744 164.249 87.4744C164.741 87.4744 165.172 87.5916 165.541 87.826C165.913 88.0604 166.202 88.3894 166.408 88.8132C166.616 89.237 166.72 89.733 166.72 90.3011C166.72 90.8646 166.616 91.357 166.408 91.7784C166.202 92.1998 165.913 92.5277 165.541 92.7621C165.172 92.9964 164.741 93.1136 164.249 93.1136ZM164.249 92.3608C164.623 92.3608 164.93 92.2649 165.172 92.0732C165.413 91.8814 165.592 91.6293 165.708 91.3168C165.824 91.0043 165.882 90.6657 165.882 90.3011C165.882 89.9366 165.824 89.5968 165.708 89.282C165.592 88.9671 165.413 88.7126 165.172 88.5185C164.93 88.3243 164.623 88.2273 164.249 88.2273C163.875 88.2273 163.567 88.3243 163.325 88.5185C163.084 88.7126 162.905 88.9671 162.789 89.282C162.673 89.5968 162.615 89.9366 162.615 90.3011C162.615 90.6657 162.673 91.0043 162.789 91.3168C162.905 91.6293 163.084 91.8814 163.325 92.0732C163.567 92.2649 163.875 92.3608 164.249 92.3608ZM167.999 93V87.5455H168.809V88.3693H168.866C168.965 88.0994 169.145 87.8804 169.406 87.7124C169.666 87.5443 169.96 87.4602 170.286 87.4602C170.348 87.4602 170.425 87.4614 170.517 87.4638C170.61 87.4661 170.679 87.4697 170.727 87.4744V88.3267C170.698 88.3196 170.633 88.3089 170.531 88.2947C170.432 88.2782 170.327 88.2699 170.215 88.2699C169.95 88.2699 169.713 88.3255 169.505 88.4368C169.299 88.5457 169.136 88.6972 169.015 88.8913C168.897 89.0831 168.838 89.3021 168.838 89.5483V93H167.999ZM175.371 89.7188V93H174.533V87.5455H175.342V88.3977H175.413C175.541 88.1207 175.735 87.8982 175.996 87.7301C176.256 87.5597 176.592 87.4744 177.004 87.4744C177.374 87.4744 177.697 87.5502 177.974 87.7017C178.251 87.8509 178.466 88.0781 178.62 88.3835C178.774 88.6866 178.851 89.0701 178.851 89.5341V93H178.013V89.5909C178.013 89.1624 177.902 88.8286 177.679 88.5895C177.456 88.348 177.151 88.2273 176.763 88.2273C176.495 88.2273 176.256 88.2853 176.045 88.4013C175.837 88.5173 175.673 88.6866 175.552 88.9091C175.431 89.1316 175.371 89.4015 175.371 89.7188ZM182.669 93.1136C182.144 93.1136 181.69 92.9976 181.309 92.7656C180.93 92.5312 180.638 92.2045 180.432 91.7855C180.228 91.3641 180.127 90.8741 180.127 90.3153C180.127 89.7566 180.228 89.2642 180.432 88.8381C180.638 88.4096 180.924 88.0758 181.291 87.8366C181.661 87.5952 182.092 87.4744 182.584 87.4744C182.868 87.4744 183.149 87.5218 183.426 87.6165C183.703 87.7112 183.955 87.8651 184.182 88.0781C184.409 88.2888 184.59 88.5682 184.725 88.9162C184.86 89.2642 184.928 89.6927 184.928 90.2017V90.5568H180.723V89.8324H184.075C184.075 89.5246 184.014 89.25 183.891 89.0085C183.77 88.767 183.597 88.5765 183.372 88.4368C183.15 88.2971 182.887 88.2273 182.584 88.2273C182.25 88.2273 181.961 88.3101 181.718 88.4759C181.476 88.6392 181.29 88.8523 181.16 89.1151C181.03 89.3778 180.965 89.6596 180.965 89.9602V90.4432C180.965 90.8551 181.036 91.2043 181.178 91.4908C181.322 91.7749 181.522 91.9915 181.778 92.1406C182.034 92.2874 182.331 92.3608 182.669 92.3608C182.889 92.3608 183.088 92.33 183.266 92.2685C183.446 92.2045 183.601 92.1098 183.731 91.9844C183.861 91.8565 183.962 91.6979 184.033 91.5085L184.843 91.7358C184.757 92.0104 184.614 92.2519 184.413 92.4602C184.212 92.6662 183.963 92.8272 183.667 92.9432C183.371 93.0568 183.039 93.1136 182.669 93.1136ZM186.681 87.5455L187.988 89.7756L189.295 87.5455H190.261L188.499 90.2727L190.261 93H189.295L187.988 90.8835L186.681 93H185.715L187.448 90.2727L185.715 87.5455H186.681ZM193.829 87.5455V88.2557H191.002V87.5455H193.829ZM191.826 86.2386H192.664V91.4375C192.664 91.6742 192.698 91.8518 192.767 91.9702C192.838 92.0862 192.928 92.1643 193.037 92.2045C193.148 92.2424 193.265 92.2614 193.388 92.2614C193.481 92.2614 193.556 92.2566 193.616 92.2472C193.675 92.2353 193.722 92.2259 193.758 92.2188L193.928 92.9716C193.871 92.9929 193.792 93.0142 193.69 93.0355C193.588 93.0592 193.459 93.071 193.303 93.071C193.066 93.071 192.834 93.0201 192.607 92.9183C192.382 92.8165 192.195 92.6615 192.046 92.4531C191.899 92.2448 191.826 91.982 191.826 91.6648V86.2386ZM201.765 88.767L201.013 88.9801C200.965 88.8546 200.895 88.7327 200.803 88.6143C200.713 88.4936 200.59 88.3942 200.434 88.3161C200.278 88.2379 200.077 88.1989 199.834 88.1989C199.5 88.1989 199.222 88.2758 198.999 88.4297C198.779 88.5812 198.669 88.7741 198.669 89.0085C198.669 89.2169 198.745 89.3814 198.896 89.5021C199.048 89.6229 199.284 89.7235 199.606 89.804L200.416 90.0028C200.904 90.1212 201.267 90.3023 201.506 90.5462C201.745 90.7876 201.865 91.099 201.865 91.4801C201.865 91.7926 201.775 92.072 201.595 92.3182C201.417 92.5644 201.169 92.7585 200.849 92.9006C200.53 93.0426 200.158 93.1136 199.734 93.1136C199.178 93.1136 198.717 92.9929 198.353 92.7514C197.988 92.5099 197.757 92.1572 197.66 91.6932L198.456 91.4943C198.532 91.7879 198.675 92.008 198.885 92.1548C199.099 92.3016 199.377 92.375 199.72 92.375C200.111 92.375 200.421 92.2921 200.65 92.1264C200.882 91.9583 200.998 91.7571 200.998 91.5227C200.998 91.3333 200.932 91.1747 200.8 91.0469C200.667 90.9167 200.463 90.8196 200.189 90.7557L199.28 90.5426C198.78 90.4242 198.413 90.2408 198.179 89.9922C197.947 89.7412 197.831 89.4276 197.831 89.0511C197.831 88.7434 197.917 88.4711 198.09 88.2344C198.265 87.9976 198.503 87.8118 198.804 87.6768C199.107 87.5419 199.45 87.4744 199.834 87.4744C200.373 87.4744 200.797 87.5928 201.105 87.8295C201.415 88.0663 201.635 88.3788 201.765 88.767ZM205.499 87.5455V88.2557H202.672V87.5455H205.499ZM203.496 86.2386H204.334V91.4375C204.334 91.6742 204.368 91.8518 204.437 91.9702C204.508 92.0862 204.598 92.1643 204.707 92.2045C204.818 92.2424 204.935 92.2614 205.058 92.2614C205.151 92.2614 205.226 92.2566 205.286 92.2472C205.345 92.2353 205.392 92.2259 205.428 92.2188L205.598 92.9716C205.541 92.9929 205.462 93.0142 205.36 93.0355C205.258 93.0592 205.129 93.071 204.973 93.071C204.736 93.071 204.504 93.0201 204.277 92.9183C204.052 92.8165 203.865 92.6615 203.716 92.4531C203.569 92.2448 203.496 91.982 203.496 91.6648V86.2386ZM208.988 93.1136C208.462 93.1136 208.009 92.9976 207.627 92.7656C207.249 92.5312 206.956 92.2045 206.75 91.7855C206.547 91.3641 206.445 90.8741 206.445 90.3153C206.445 89.7566 206.547 89.2642 206.75 88.8381C206.956 88.4096 207.243 88.0758 207.61 87.8366C207.979 87.5952 208.41 87.4744 208.902 87.4744C209.186 87.4744 209.467 87.5218 209.744 87.6165C210.021 87.7112 210.273 87.8651 210.5 88.0781C210.728 88.2888 210.909 88.5682 211.044 88.9162C211.179 89.2642 211.246 89.6927 211.246 90.2017V90.5568H207.042V89.8324H210.394C210.394 89.5246 210.332 89.25 210.209 89.0085C210.088 88.767 209.916 88.5765 209.691 88.4368C209.468 88.2971 209.205 88.2273 208.902 88.2273C208.569 88.2273 208.28 88.3101 208.036 88.4759C207.794 88.6392 207.609 88.8523 207.478 89.1151C207.348 89.3778 207.283 89.6596 207.283 89.9602V90.4432C207.283 90.8551 207.354 91.2043 207.496 91.4908C207.641 91.7749 207.841 91.9915 208.096 92.1406C208.352 92.2874 208.649 92.3608 208.988 92.3608C209.208 92.3608 209.407 92.33 209.584 92.2685C209.764 92.2045 209.919 92.1098 210.049 91.9844C210.18 91.8565 210.28 91.6979 210.351 91.5085L211.161 91.7358C211.076 92.0104 210.932 92.2519 210.731 92.4602C210.53 92.6662 210.281 92.8272 209.985 92.9432C209.69 93.0568 209.357 93.1136 208.988 93.1136ZM212.521 95.0455V87.5455H213.331V88.4119H213.43C213.492 88.3172 213.577 88.1965 213.686 88.0497C213.797 87.9006 213.956 87.768 214.162 87.652C214.37 87.5336 214.652 87.4744 215.007 87.4744C215.466 87.4744 215.871 87.5893 216.221 87.8189C216.572 88.0485 216.845 88.3741 217.042 88.7955C217.238 89.2169 217.336 89.714 217.336 90.2869C217.336 90.8646 217.238 91.3653 217.042 91.7891C216.845 92.2105 216.573 92.5372 216.225 92.7692C215.877 92.9988 215.475 93.1136 215.021 93.1136C214.671 93.1136 214.39 93.0556 214.179 92.9396C213.969 92.8213 213.806 92.6875 213.693 92.5384C213.579 92.3868 213.492 92.2614 213.43 92.1619H213.359V95.0455H212.521ZM213.345 90.2727C213.345 90.6847 213.405 91.0481 213.526 91.3629C213.647 91.6754 213.823 91.9205 214.055 92.098C214.287 92.2732 214.571 92.3608 214.907 92.3608C215.258 92.3608 215.55 92.2685 215.784 92.0838C216.021 91.8968 216.199 91.6458 216.317 91.331C216.438 91.0137 216.498 90.661 216.498 90.2727C216.498 89.8892 216.439 89.5436 216.321 89.2358C216.205 88.9257 216.028 88.6806 215.792 88.5007C215.557 88.3184 215.262 88.2273 214.907 88.2273C214.566 88.2273 214.28 88.3137 214.048 88.4865C213.816 88.657 213.641 88.8961 213.522 89.2038C213.404 89.5092 213.345 89.8655 213.345 90.2727ZM222.478 88.767L221.725 88.9801C221.678 88.8546 221.608 88.7327 221.516 88.6143C221.426 88.4936 221.303 88.3942 221.147 88.3161C220.99 88.2379 220.79 88.1989 220.547 88.1989C220.213 88.1989 219.935 88.2758 219.712 88.4297C219.492 88.5812 219.382 88.7741 219.382 89.0085C219.382 89.2169 219.458 89.3814 219.609 89.5021C219.761 89.6229 219.997 89.7235 220.319 89.804L221.129 90.0028C221.617 90.1212 221.98 90.3023 222.219 90.5462C222.458 90.7876 222.578 91.099 222.578 91.4801C222.578 91.7926 222.488 92.072 222.308 92.3182C222.13 92.5644 221.882 92.7585 221.562 92.9006C221.243 93.0426 220.871 93.1136 220.447 93.1136C219.891 93.1136 219.43 92.9929 219.066 92.7514C218.701 92.5099 218.47 92.1572 218.373 91.6932L219.169 91.4943C219.244 91.7879 219.388 92.008 219.598 92.1548C219.811 92.3016 220.09 92.375 220.433 92.375C220.824 92.375 221.134 92.2921 221.363 92.1264C221.595 91.9583 221.711 91.7571 221.711 91.5227C221.711 91.3333 221.645 91.1747 221.512 91.0469C221.38 90.9167 221.176 90.8196 220.902 90.7557L219.993 90.5426C219.493 90.4242 219.126 90.2408 218.892 89.9922C218.66 89.7412 218.544 89.4276 218.544 89.0511C218.544 88.7434 218.63 88.4711 218.803 88.2344C218.978 87.9976 219.216 87.8118 219.517 87.6768C219.82 87.5419 220.163 87.4744 220.547 87.4744C221.086 87.4744 221.51 87.5928 221.818 87.8295C222.128 88.0663 222.348 88.3788 222.478 88.767ZM229.024 87.5455V88.2557H226.197V87.5455H229.024ZM227.021 86.2386H227.859V91.4375C227.859 91.6742 227.894 91.8518 227.962 91.9702C228.033 92.0862 228.123 92.1643 228.232 92.2045C228.343 92.2424 228.461 92.2614 228.584 92.2614C228.676 92.2614 228.752 92.2566 228.811 92.2472C228.87 92.2353 228.917 92.2259 228.953 92.2188L229.123 92.9716C229.067 92.9929 228.987 93.0142 228.885 93.0355C228.784 93.0592 228.655 93.071 228.498 93.071C228.262 93.071 228.03 93.0201 227.802 92.9183C227.577 92.8165 227.39 92.6615 227.241 92.4531C227.095 92.2448 227.021 91.982 227.021 91.6648V86.2386ZM232.442 93.1136C231.95 93.1136 231.517 92.9964 231.146 92.7621C230.776 92.5277 230.488 92.1998 230.279 91.7784C230.073 91.357 229.97 90.8646 229.97 90.3011C229.97 89.733 230.073 89.237 230.279 88.8132C230.488 88.3894 230.776 88.0604 231.146 87.826C231.517 87.5916 231.95 87.4744 232.442 87.4744C232.934 87.4744 233.365 87.5916 233.735 87.826C234.106 88.0604 234.395 88.3894 234.601 88.8132C234.809 89.237 234.914 89.733 234.914 90.3011C234.914 90.8646 234.809 91.357 234.601 91.7784C234.395 92.1998 234.106 92.5277 233.735 92.7621C233.365 92.9964 232.934 93.1136 232.442 93.1136ZM232.442 92.3608C232.816 92.3608 233.124 92.2649 233.365 92.0732C233.607 91.8814 233.785 91.6293 233.901 91.3168C234.017 91.0043 234.075 90.6657 234.075 90.3011C234.075 89.9366 234.017 89.5968 233.901 89.282C233.785 88.9671 233.607 88.7126 233.365 88.5185C233.124 88.3243 232.816 88.2273 232.442 88.2273C232.068 88.2273 231.76 88.3243 231.519 88.5185C231.277 88.7126 231.098 88.9671 230.982 89.282C230.866 89.5968 230.808 89.9366 230.808 90.3011C230.808 90.6657 230.866 91.0043 230.982 91.3168C231.098 91.6293 231.277 91.8814 231.519 92.0732C231.76 92.2649 232.068 92.3608 232.442 92.3608ZM239.005 93V87.5455H239.815V88.3693H239.872C239.971 88.0994 240.151 87.8804 240.412 87.7124C240.672 87.5443 240.966 87.4602 241.292 87.4602C241.354 87.4602 241.431 87.4614 241.523 87.4638C241.615 87.4661 241.685 87.4697 241.733 87.4744V88.3267C241.704 88.3196 241.639 88.3089 241.537 88.2947C241.438 88.2782 241.333 88.2699 241.221 88.2699C240.956 88.2699 240.719 88.3255 240.511 88.4368C240.305 88.5457 240.142 88.6972 240.021 88.8913C239.903 89.0831 239.843 89.3021 239.843 89.5483V93H239.005ZM244.847 93.1136C244.321 93.1136 243.868 92.9976 243.487 92.7656C243.108 92.5312 242.816 92.2045 242.61 91.7855C242.406 91.3641 242.304 90.8741 242.304 90.3153C242.304 89.7566 242.406 89.2642 242.61 88.8381C242.816 88.4096 243.102 88.0758 243.469 87.8366C243.838 87.5952 244.269 87.4744 244.762 87.4744C245.046 87.4744 245.326 87.5218 245.603 87.6165C245.88 87.7112 246.132 87.8651 246.36 88.0781C246.587 88.2888 246.768 88.5682 246.903 88.9162C247.038 89.2642 247.105 89.6927 247.105 90.2017V90.5568H242.901V89.8324H246.253C246.253 89.5246 246.192 89.25 246.069 89.0085C245.948 88.767 245.775 88.5765 245.55 88.4368C245.328 88.2971 245.065 88.2273 244.762 88.2273C244.428 88.2273 244.139 88.3101 243.895 88.4759C243.654 88.6392 243.468 88.8523 243.338 89.1151C243.208 89.3778 243.142 89.6596 243.142 89.9602V90.4432C243.142 90.8551 243.213 91.2043 243.355 91.4908C243.5 91.7749 243.7 91.9915 243.956 92.1406C244.211 92.2874 244.508 92.3608 244.847 92.3608C245.067 92.3608 245.266 92.33 245.444 92.2685C245.623 92.2045 245.779 92.1098 245.909 91.9844C246.039 91.8565 246.14 91.6979 246.211 91.5085L247.02 91.7358C246.935 92.0104 246.792 92.2519 246.591 92.4602C246.389 92.6662 246.141 92.8272 245.845 92.9432C245.549 93.0568 245.216 93.1136 244.847 93.1136ZM252.244 88.767L251.491 88.9801C251.444 88.8546 251.374 88.7327 251.282 88.6143C251.192 88.4936 251.069 88.3942 250.912 88.3161C250.756 88.2379 250.556 88.1989 250.312 88.1989C249.978 88.1989 249.7 88.2758 249.478 88.4297C249.257 88.5812 249.147 88.7741 249.147 89.0085C249.147 89.2169 249.223 89.3814 249.375 89.5021C249.526 89.6229 249.763 89.7235 250.085 89.804L250.895 90.0028C251.382 90.1212 251.746 90.3023 251.985 90.5462C252.224 90.7876 252.343 91.099 252.343 91.4801C252.343 91.7926 252.253 92.072 252.074 92.3182C251.896 92.5644 251.647 92.7585 251.328 92.9006C251.008 93.0426 250.636 93.1136 250.213 93.1136C249.656 93.1136 249.196 92.9929 248.831 92.7514C248.467 92.5099 248.236 92.1572 248.139 91.6932L248.934 91.4943C249.01 91.7879 249.153 92.008 249.364 92.1548C249.577 92.3016 249.855 92.375 250.199 92.375C250.589 92.375 250.899 92.2921 251.129 92.1264C251.361 91.9583 251.477 91.7571 251.477 91.5227C251.477 91.3333 251.411 91.1747 251.278 91.0469C251.145 90.9167 250.942 90.8196 250.667 90.7557L249.758 90.5426C249.259 90.4242 248.892 90.2408 248.657 89.9922C248.425 89.7412 248.309 89.4276 248.309 89.0511C248.309 88.7434 248.396 88.4711 248.569 88.2344C248.744 87.9976 248.982 87.8118 249.282 87.6768C249.585 87.5419 249.929 87.4744 250.312 87.4744C250.852 87.4744 251.276 87.5928 251.583 87.8295C251.894 88.0663 252.114 88.3788 252.244 88.767ZM255.821 93.1136C255.328 93.1136 254.896 92.9964 254.525 92.7621C254.155 92.5277 253.867 92.1998 253.658 91.7784C253.452 91.357 253.349 90.8646 253.349 90.3011C253.349 89.733 253.452 89.237 253.658 88.8132C253.867 88.3894 254.155 88.0604 254.525 87.826C254.896 87.5916 255.328 87.4744 255.821 87.4744C256.313 87.4744 256.744 87.5916 257.113 87.826C257.485 88.0604 257.774 88.3894 257.98 88.8132C258.188 89.237 258.292 89.733 258.292 90.3011C258.292 90.8646 258.188 91.357 257.98 91.7784C257.774 92.1998 257.485 92.5277 257.113 92.7621C256.744 92.9964 256.313 93.1136 255.821 93.1136ZM255.821 92.3608C256.195 92.3608 256.503 92.2649 256.744 92.0732C256.986 91.8814 257.164 91.6293 257.28 91.3168C257.396 91.0043 257.454 90.6657 257.454 90.3011C257.454 89.9366 257.396 89.5968 257.28 89.282C257.164 88.9671 256.986 88.7126 256.744 88.5185C256.503 88.3243 256.195 88.2273 255.821 88.2273C255.447 88.2273 255.139 88.3243 254.898 88.5185C254.656 88.7126 254.477 88.9671 254.361 89.282C254.245 89.5968 254.187 89.9366 254.187 90.3011C254.187 90.6657 254.245 91.0043 254.361 91.3168C254.477 91.6293 254.656 91.8814 254.898 92.0732C255.139 92.2649 255.447 92.3608 255.821 92.3608ZM260.41 85.7273V93H259.572V85.7273H260.41ZM266.405 87.5455L264.388 93H263.536L261.519 87.5455H262.428L263.933 91.892H263.99L265.496 87.5455H266.405ZM269.603 93.1136C269.077 93.1136 268.624 92.9976 268.243 92.7656C267.864 92.5312 267.572 92.2045 267.366 91.7855C267.162 91.3641 267.06 90.8741 267.06 90.3153C267.06 89.7566 267.162 89.2642 267.366 88.8381C267.572 88.4096 267.858 88.0758 268.225 87.8366C268.594 87.5952 269.025 87.4744 269.518 87.4744C269.802 87.4744 270.082 87.5218 270.359 87.6165C270.636 87.7112 270.888 87.8651 271.116 88.0781C271.343 88.2888 271.524 88.5682 271.659 88.9162C271.794 89.2642 271.861 89.6927 271.861 90.2017V90.5568H267.657V89.8324H271.009C271.009 89.5246 270.948 89.25 270.824 89.0085C270.704 88.767 270.531 88.5765 270.306 88.4368C270.083 88.2971 269.821 88.2273 269.518 88.2273C269.184 88.2273 268.895 88.3101 268.651 88.4759C268.41 88.6392 268.224 88.8523 268.094 89.1151C267.963 89.3778 267.898 89.6596 267.898 89.9602V90.4432C267.898 90.8551 267.969 91.2043 268.111 91.4908C268.256 91.7749 268.456 91.9915 268.711 92.1406C268.967 92.2874 269.264 92.3608 269.603 92.3608C269.823 92.3608 270.022 92.33 270.199 92.2685C270.379 92.2045 270.534 92.1098 270.665 91.9844C270.795 91.8565 270.895 91.6979 270.966 91.5085L271.776 91.7358C271.691 92.0104 271.548 92.2519 271.346 92.4602C271.145 92.6662 270.897 92.8272 270.601 92.9432C270.305 93.0568 269.972 93.1136 269.603 93.1136ZM278.321 87.5455V88.2557H275.494V87.5455H278.321ZM276.318 86.2386H277.156V91.4375C277.156 91.6742 277.19 91.8518 277.259 91.9702C277.33 92.0862 277.42 92.1643 277.529 92.2045C277.64 92.2424 277.757 92.2614 277.881 92.2614C277.973 92.2614 278.049 92.2566 278.108 92.2472C278.167 92.2353 278.214 92.2259 278.25 92.2188L278.42 92.9716C278.363 92.9929 278.284 93.0142 278.182 93.0355C278.081 93.0592 277.952 93.071 277.795 93.071C277.559 93.071 277.327 93.0201 277.099 92.9183C276.874 92.8165 276.687 92.6615 276.538 92.4531C276.391 92.2448 276.318 91.982 276.318 91.6648V86.2386ZM280.537 89.7188V93H279.699V85.7273H280.537V88.3977H280.608C280.736 88.116 280.927 87.8923 281.183 87.7266C281.441 87.5585 281.784 87.4744 282.213 87.4744C282.585 87.4744 282.91 87.549 283.189 87.6982C283.469 87.8449 283.685 88.071 283.839 88.3764C283.996 88.6795 284.074 89.0653 284.074 89.5341V93H283.236V89.5909C283.236 89.1577 283.123 88.8227 282.898 88.5859C282.676 88.3468 282.367 88.2273 281.971 88.2273C281.697 88.2273 281.451 88.2853 281.233 88.4013C281.017 88.5173 280.847 88.6866 280.721 88.9091C280.598 89.1316 280.537 89.4015 280.537 89.7188ZM287.894 93.1136C287.368 93.1136 286.915 92.9976 286.534 92.7656C286.155 92.5312 285.863 92.2045 285.657 91.7855C285.453 91.3641 285.351 90.8741 285.351 90.3153C285.351 89.7566 285.453 89.2642 285.657 88.8381C285.863 88.4096 286.149 88.0758 286.516 87.8366C286.885 87.5952 287.316 87.4744 287.809 87.4744C288.093 87.4744 288.373 87.5218 288.65 87.6165C288.927 87.7112 289.179 87.8651 289.407 88.0781C289.634 88.2888 289.815 88.5682 289.95 88.9162C290.085 89.2642 290.152 89.6927 290.152 90.2017V90.5568H285.948V89.8324H289.3C289.3 89.5246 289.239 89.25 289.115 89.0085C288.995 88.767 288.822 88.5765 288.597 88.4368C288.374 88.2971 288.112 88.2273 287.809 88.2273C287.475 88.2273 287.186 88.3101 286.942 88.4759C286.701 88.6392 286.515 88.8523 286.385 89.1151C286.254 89.3778 286.189 89.6596 286.189 89.9602V90.4432C286.189 90.8551 286.26 91.2043 286.402 91.4908C286.547 91.7749 286.747 91.9915 287.002 92.1406C287.258 92.2874 287.555 92.3608 287.894 92.3608C288.114 92.3608 288.313 92.33 288.49 92.2685C288.67 92.2045 288.825 92.1098 288.956 91.9844C289.086 91.8565 289.186 91.6979 289.257 91.5085L290.067 91.7358C289.982 92.0104 289.839 92.2519 289.637 92.4602C289.436 92.6662 289.188 92.8272 288.892 92.9432C288.596 93.0568 288.263 93.1136 287.894 93.1136ZM296.527 93.1136C296.001 93.1136 295.548 92.9976 295.167 92.7656C294.788 92.5312 294.495 92.2045 294.289 91.7855C294.086 91.3641 293.984 90.8741 293.984 90.3153C293.984 89.7566 294.086 89.2642 294.289 88.8381C294.495 88.4096 294.782 88.0758 295.149 87.8366C295.518 87.5952 295.949 87.4744 296.441 87.4744C296.725 87.4744 297.006 87.5218 297.283 87.6165C297.56 87.7112 297.812 87.8651 298.039 88.0781C298.267 88.2888 298.448 88.5682 298.583 88.9162C298.718 89.2642 298.785 89.6927 298.785 90.2017V90.5568H294.581V89.8324H297.933C297.933 89.5246 297.871 89.25 297.748 89.0085C297.627 88.767 297.455 88.5765 297.23 88.4368C297.007 88.2971 296.744 88.2273 296.441 88.2273C296.108 88.2273 295.819 88.3101 295.575 88.4759C295.333 88.6392 295.148 88.8523 295.017 89.1151C294.887 89.3778 294.822 89.6596 294.822 89.9602V90.4432C294.822 90.8551 294.893 91.2043 295.035 91.4908C295.18 91.7749 295.38 91.9915 295.635 92.1406C295.891 92.2874 296.188 92.3608 296.527 92.3608C296.747 92.3608 296.946 92.33 297.123 92.2685C297.303 92.2045 297.458 92.1098 297.588 91.9844C297.719 91.8565 297.819 91.6979 297.89 91.5085L298.7 91.7358C298.615 92.0104 298.471 92.2519 298.27 92.4602C298.069 92.6662 297.82 92.8272 297.525 92.9432C297.229 93.0568 296.896 93.1136 296.527 93.1136ZM304.354 87.5455L302.337 93H301.485L299.468 87.5455H300.377L301.883 91.892H301.939L303.445 87.5455H304.354ZM307.552 93.1136C307.026 93.1136 306.573 92.9976 306.192 92.7656C305.813 92.5312 305.521 92.2045 305.315 91.7855C305.111 91.3641 305.009 90.8741 305.009 90.3153C305.009 89.7566 305.111 89.2642 305.315 88.8381C305.521 88.4096 305.807 88.0758 306.174 87.8366C306.544 87.5952 306.974 87.4744 307.467 87.4744C307.751 87.4744 308.031 87.5218 308.308 87.6165C308.585 87.7112 308.838 87.8651 309.065 88.0781C309.292 88.2888 309.473 88.5682 309.608 88.9162C309.743 89.2642 309.811 89.6927 309.811 90.2017V90.5568H305.606V89.8324H308.958C308.958 89.5246 308.897 89.25 308.774 89.0085C308.653 88.767 308.48 88.5765 308.255 88.4368C308.033 88.2971 307.77 88.2273 307.467 88.2273C307.133 88.2273 306.844 88.3101 306.6 88.4759C306.359 88.6392 306.173 88.8523 306.043 89.1151C305.913 89.3778 305.847 89.6596 305.847 89.9602V90.4432C305.847 90.8551 305.919 91.2043 306.061 91.4908C306.205 91.7749 306.405 91.9915 306.661 92.1406C306.916 92.2874 307.213 92.3608 307.552 92.3608C307.772 92.3608 307.971 92.33 308.149 92.2685C308.329 92.2045 308.484 92.1098 308.614 91.9844C308.744 91.8565 308.845 91.6979 308.916 91.5085L309.725 91.7358C309.64 92.0104 309.497 92.2519 309.296 92.4602C309.094 92.6662 308.846 92.8272 308.55 92.9432C308.254 93.0568 307.921 93.1136 307.552 93.1136ZM311.923 89.7188V93H311.085V87.5455H311.895V88.3977H311.966C312.094 88.1207 312.288 87.8982 312.548 87.7301C312.809 87.5597 313.145 87.4744 313.557 87.4744C313.926 87.4744 314.249 87.5502 314.526 87.7017C314.803 87.8509 315.019 88.0781 315.173 88.3835C315.327 88.6866 315.404 89.0701 315.404 89.5341V93H314.566V89.5909C314.566 89.1624 314.454 88.8286 314.232 88.5895C314.009 88.348 313.704 88.2273 313.316 88.2273C313.048 88.2273 312.809 88.2853 312.598 88.4013C312.39 88.5173 312.225 88.6866 312.105 88.9091C311.984 89.1316 311.923 89.4015 311.923 89.7188ZM319.307 87.5455V88.2557H316.48V87.5455H319.307ZM317.304 86.2386H318.142V91.4375C318.142 91.6742 318.177 91.8518 318.245 91.9702C318.316 92.0862 318.406 92.1643 318.515 92.2045C318.627 92.2424 318.744 92.2614 318.867 92.2614C318.959 92.2614 319.035 92.2566 319.094 92.2472C319.153 92.2353 319.201 92.2259 319.236 92.2188L319.407 92.9716C319.35 92.9929 319.27 93.0142 319.169 93.0355C319.067 93.0592 318.938 93.071 318.782 93.071C318.545 93.071 318.313 93.0201 318.086 92.9183C317.861 92.8165 317.674 92.6615 317.525 92.4531C317.378 92.2448 317.304 91.982 317.304 91.6648V86.2386ZM321.179 93.0568C321.003 93.0568 320.853 92.9941 320.728 92.8686C320.602 92.7431 320.539 92.5928 320.539 92.4176C320.539 92.2424 320.602 92.0921 320.728 91.9666C320.853 91.8411 321.003 91.7784 321.179 91.7784C321.354 91.7784 321.504 91.8411 321.63 91.9666C321.755 92.0921 321.818 92.2424 321.818 92.4176C321.818 92.5336 321.788 92.6402 321.729 92.7372C321.672 92.8343 321.595 92.9124 321.498 92.9716C321.404 93.0284 321.297 93.0568 321.179 93.0568Z" fill="#222222"/>
<path d="M349.003 124.798C349.337 124.798 349.621 124.679 349.857 124.441C350.094 124.204 350.212 123.918 350.212 123.584C350.212 123.25 350.093 122.965 349.855 122.729C349.617 122.493 349.331 122.375 348.997 122.375C348.664 122.375 348.379 122.494 348.143 122.732C347.906 122.969 347.788 123.255 347.788 123.589C347.788 123.923 347.907 124.208 348.145 124.444C348.383 124.68 348.669 124.798 349.003 124.798ZM349 130.758C350.41 129.531 351.524 128.283 352.343 127.014C353.163 125.745 353.572 124.648 353.572 123.722C353.572 122.35 353.138 121.218 352.269 120.325C351.4 119.432 350.311 118.986 349 118.986C347.689 118.986 346.6 119.432 345.731 120.325C344.862 121.218 344.428 122.35 344.428 123.722C344.428 124.648 344.837 125.745 345.657 127.014C346.476 128.283 347.59 129.531 349 130.758ZM349 131.764C347.238 130.206 345.91 128.752 345.017 127.404C344.124 126.055 343.678 124.828 343.678 123.722C343.678 122.136 344.194 120.827 345.228 119.796C346.261 118.765 347.518 118.25 349 118.25C350.482 118.25 351.739 118.765 352.772 119.796C353.806 120.827 354.322 122.136 354.322 123.722C354.322 124.828 353.876 126.055 352.983 127.404C352.09 128.752 350.763 130.206 349 131.764Z" fill="#222222"/>
<path d="M372.375 129.125H377.625V128.375H372.375V129.125ZM372.375 126.125H377.625V125.375H372.375V126.125ZM370.962 131.75C370.616 131.75 370.328 131.634 370.097 131.403C369.866 131.172 369.75 130.884 369.75 130.538V119.462C369.75 119.116 369.866 118.828 370.097 118.597C370.328 118.366 370.616 118.25 370.962 118.25H376.875L380.25 121.625V130.538C380.25 130.884 380.134 131.172 379.903 131.403C379.672 131.634 379.384 131.75 379.038 131.75H370.962ZM376.5 122V119H370.962C370.846 119 370.74 119.048 370.644 119.144C370.548 119.24 370.5 119.346 370.5 119.462V130.538C370.5 130.654 370.548 130.76 370.644 130.856C370.74 130.952 370.846 131 370.962 131H379.038C379.154 131 379.26 130.952 379.356 130.856C379.452 130.76 379.5 130.654 379.5 130.538V122H376.5Z" fill="#222222"/>
</svg>
