<svg width="180" height="29" viewBox="0 0 180 29" fill="none" xmlns="http://www.w3.org/2000/svg">
<rect width="180" height="29" fill="white"/>
<path d="M16.8807 18V10.7273H17.7614V17.2188H21.142V18H16.8807ZM23.9972 18.1278C23.6515 18.1278 23.3378 18.0627 23.0561 17.9325C22.7744 17.8 22.5507 17.6094 22.3849 17.3608C22.2192 17.1098 22.1364 16.8068 22.1364 16.4517C22.1364 16.1392 22.1979 15.8859 22.321 15.6918C22.4441 15.4953 22.6087 15.3414 22.8146 15.2301C23.0206 15.1188 23.2479 15.036 23.4964 14.9815C23.7474 14.9247 23.9995 14.8797 24.2528 14.8466C24.5843 14.804 24.853 14.772 25.0589 14.7507C25.2673 14.727 25.4188 14.688 25.5135 14.6335C25.6106 14.5791 25.6591 14.4844 25.6591 14.3494V14.321C25.6591 13.9706 25.5632 13.6984 25.3714 13.5043C25.1821 13.3101 24.8944 13.2131 24.5085 13.2131C24.1084 13.2131 23.7947 13.3007 23.5675 13.4759C23.3402 13.651 23.1804 13.8381 23.0881 14.0369L22.2926 13.7528C22.4347 13.4214 22.6241 13.1634 22.8608 12.9787C23.0999 12.7917 23.3603 12.6615 23.642 12.5881C23.9261 12.5123 24.2055 12.4744 24.4801 12.4744C24.6553 12.4744 24.8565 12.4957 25.0838 12.5384C25.3134 12.5786 25.5348 12.6626 25.7479 12.7905C25.9633 12.9183 26.142 13.1113 26.2841 13.3693C26.4261 13.6274 26.4972 13.973 26.4972 14.4062V18H25.6591V17.2614H25.6165C25.5597 17.3797 25.465 17.5064 25.3324 17.6413C25.1998 17.7763 25.0234 17.8911 24.8033 17.9858C24.5831 18.0805 24.3144 18.1278 23.9972 18.1278ZM24.125 17.375C24.4564 17.375 24.7358 17.3099 24.9631 17.1797C25.1927 17.0495 25.3655 16.8814 25.4815 16.6754C25.5999 16.4695 25.6591 16.2528 25.6591 16.0256V15.2585C25.6236 15.3011 25.5455 15.3402 25.4247 15.3757C25.3063 15.4089 25.169 15.4384 25.0128 15.4645C24.8589 15.4882 24.7086 15.5095 24.5618 15.5284C24.4174 15.545 24.3002 15.5592 24.2102 15.571C23.9924 15.5994 23.7888 15.6456 23.5994 15.7095C23.4124 15.7711 23.2609 15.8646 23.1449 15.9901C23.0313 16.1132 22.9744 16.2812 22.9744 16.4943C22.9744 16.7855 23.0821 17.0057 23.2976 17.1548C23.5154 17.3016 23.7912 17.375 24.125 17.375ZM28.1404 18V10.7273H28.9785V13.4119H29.0495C29.1111 13.3172 29.1963 13.1965 29.3052 13.0497C29.4165 12.9006 29.5751 12.768 29.7811 12.652C29.9894 12.5336 30.2711 12.4744 30.6262 12.4744C31.0855 12.4744 31.4904 12.5893 31.8407 12.8189C32.1911 13.0485 32.4645 13.3741 32.661 13.7955C32.8575 14.2169 32.9558 14.714 32.9558 15.2869C32.9558 15.8646 32.8575 16.3653 32.661 16.7891C32.4645 17.2105 32.1923 17.5372 31.8443 17.7692C31.4963 17.9988 31.095 18.1136 30.6404 18.1136C30.2901 18.1136 30.0095 18.0556 29.7988 17.9396C29.5881 17.8213 29.426 17.6875 29.3123 17.5384C29.1987 17.3868 29.1111 17.2614 29.0495 17.1619H28.9501V18H28.1404ZM28.9643 15.2727C28.9643 15.6847 29.0247 16.0481 29.1454 16.3629C29.2662 16.6754 29.4425 16.9205 29.6745 17.098C29.9065 17.2732 30.1906 17.3608 30.5268 17.3608C30.8772 17.3608 31.1696 17.2685 31.4039 17.0838C31.6407 16.8968 31.8182 16.6458 31.9366 16.331C32.0574 16.0137 32.1177 15.661 32.1177 15.2727C32.1177 14.8892 32.0585 14.5436 31.9402 14.2358C31.8242 13.9257 31.6478 13.6806 31.411 13.5007C31.1767 13.3184 30.8819 13.2273 30.5268 13.2273C30.1859 13.2273 29.8994 13.3137 29.6674 13.4865C29.4354 13.657 29.2602 13.8961 29.1419 14.2038C29.0235 14.5092 28.9643 14.8655 28.9643 15.2727ZM36.5247 18.1136C35.9991 18.1136 35.5458 17.9976 35.1646 17.7656C34.7858 17.5312 34.4934 17.2045 34.2875 16.7855C34.0839 16.3641 33.9821 15.8741 33.9821 15.3153C33.9821 14.7566 34.0839 14.2642 34.2875 13.8381C34.4934 13.4096 34.7799 13.0758 35.1468 12.8366C35.5162 12.5952 35.947 12.4744 36.4395 12.4744C36.7235 12.4744 37.0041 12.5218 37.2811 12.6165C37.5581 12.7112 37.8102 12.8651 38.0375 13.0781C38.2647 13.2888 38.4458 13.5682 38.5808 13.9162C38.7157 14.2642 38.7832 14.6927 38.7832 15.2017V15.5568H34.5787V14.8324H37.9309C37.9309 14.5246 37.8694 14.25 37.7463 14.0085C37.6255 13.767 37.4527 13.5765 37.2278 13.4368C37.0053 13.2971 36.7425 13.2273 36.4395 13.2273C36.1056 13.2273 35.8168 13.3101 35.573 13.4759C35.3315 13.6392 35.1457 13.8523 35.0154 14.1151C34.8852 14.3778 34.8201 14.6596 34.8201 14.9602V15.4432C34.8201 15.8551 34.8912 16.2043 35.0332 16.4908C35.1776 16.7749 35.3777 16.9915 35.6333 17.1406C35.889 17.2874 36.1861 17.3608 36.5247 17.3608C36.7449 17.3608 36.9437 17.33 37.1213 17.2685C37.3012 17.2045 37.4563 17.1098 37.5865 16.9844C37.7167 16.8565 37.8173 16.6979 37.8883 16.5085L38.698 16.7358C38.6127 17.0104 38.4695 17.2519 38.2683 17.4602C38.0671 17.6662 37.8185 17.8272 37.5225 17.9432C37.2266 18.0568 36.894 18.1136 36.5247 18.1136ZM40.8961 10.7273V18H40.0581V10.7273H40.8961ZM46.0817 14.7188V18H45.2436V12.5455H46.0533V13.3977H46.1243C46.2521 13.1207 46.4463 12.8982 46.7067 12.7301C46.9671 12.5597 47.3033 12.4744 47.7152 12.4744C48.0845 12.4744 48.4077 12.5502 48.6847 12.7017C48.9616 12.8509 49.1771 13.0781 49.331 13.3835C49.4848 13.6866 49.5618 14.0701 49.5618 14.5341V18H48.7237V14.5909C48.7237 14.1624 48.6125 13.8286 48.3899 13.5895C48.1674 13.348 47.862 13.2273 47.4737 13.2273C47.2062 13.2273 46.9671 13.2853 46.7564 13.4013C46.5481 13.5173 46.3835 13.6866 46.2628 13.9091C46.142 14.1316 46.0817 14.4015 46.0817 14.7188ZM52.6983 18.1278C52.3527 18.1278 52.039 18.0627 51.7573 17.9325C51.4756 17.8 51.2518 17.6094 51.0861 17.3608C50.9204 17.1098 50.8375 16.8068 50.8375 16.4517C50.8375 16.1392 50.8991 15.8859 51.0222 15.6918C51.1453 15.4953 51.3098 15.3414 51.5158 15.2301C51.7218 15.1188 51.949 15.036 52.1976 14.9815C52.4486 14.9247 52.7007 14.8797 52.954 14.8466C53.2855 14.804 53.5542 14.772 53.7601 14.7507C53.9685 14.727 54.12 14.688 54.2147 14.6335C54.3117 14.5791 54.3603 14.4844 54.3603 14.3494V14.321C54.3603 13.9706 54.2644 13.6984 54.0726 13.5043C53.8832 13.3101 53.5956 13.2131 53.2097 13.2131C52.8096 13.2131 52.4959 13.3007 52.2686 13.4759C52.0414 13.651 51.8816 13.8381 51.7892 14.0369L50.9938 13.7528C51.1358 13.4214 51.3252 13.1634 51.562 12.9787C51.8011 12.7917 52.0615 12.6615 52.3432 12.5881C52.6273 12.5123 52.9067 12.4744 53.1813 12.4744C53.3565 12.4744 53.5577 12.4957 53.785 12.5384C54.0146 12.5786 54.236 12.6626 54.449 12.7905C54.6645 12.9183 54.8432 13.1113 54.9853 13.3693C55.1273 13.6274 55.1983 13.973 55.1983 14.4062V18H54.3603V17.2614H54.3176C54.2608 17.3797 54.1661 17.5064 54.0336 17.6413C53.901 17.7763 53.7246 17.8911 53.5044 17.9858C53.2843 18.0805 53.0156 18.1278 52.6983 18.1278ZM52.8262 17.375C53.1576 17.375 53.437 17.3099 53.6642 17.1797C53.8939 17.0495 54.0667 16.8814 54.1827 16.6754C54.3011 16.4695 54.3603 16.2528 54.3603 16.0256V15.2585C54.3248 15.3011 54.2466 15.3402 54.1259 15.3757C54.0075 15.4089 53.8702 15.4384 53.714 15.4645C53.5601 15.4882 53.4097 15.5095 53.263 15.5284C53.1185 15.545 53.0014 15.5592 52.9114 15.571C52.6936 15.5994 52.49 15.6456 52.3006 15.7095C52.1136 15.7711 51.9621 15.8646 51.8461 15.9901C51.7324 16.1132 51.6756 16.2812 51.6756 16.4943C51.6756 16.7855 51.7833 17.0057 51.9988 17.1548C52.2166 17.3016 52.4924 17.375 52.8262 17.375ZM56.728 18V12.5455H57.5376V13.3977H57.6087C57.7223 13.1065 57.9058 12.8804 58.1591 12.7195C58.4124 12.5561 58.7166 12.4744 59.0717 12.4744C59.4316 12.4744 59.7311 12.5561 59.9702 12.7195C60.2116 12.8804 60.3999 13.1065 60.5348 13.3977H60.5916C60.7313 13.116 60.9408 12.8923 61.2202 12.7266C61.4995 12.5585 61.8345 12.4744 62.2251 12.4744C62.7128 12.4744 63.1117 12.6271 63.4219 12.9325C63.732 13.2356 63.8871 13.7079 63.8871 14.3494V18H63.049V14.3494C63.049 13.947 62.9389 13.6593 62.7188 13.4865C62.4986 13.3137 62.2393 13.2273 61.9411 13.2273C61.5575 13.2273 61.2604 13.3433 61.0497 13.5753C60.839 13.8049 60.7337 14.0961 60.7337 14.4489V18H59.8814V14.2642C59.8814 13.9541 59.7808 13.7043 59.5795 13.5149C59.3783 13.3232 59.1191 13.2273 58.8018 13.2273C58.584 13.2273 58.3804 13.2853 58.1911 13.4013C58.004 13.5173 57.8525 13.6783 57.7365 13.8842C57.6229 14.0878 57.5661 14.3234 57.5661 14.5909V18H56.728ZM67.7063 18.1136C67.1808 18.1136 66.7274 17.9976 66.3462 17.7656C65.9674 17.5312 65.6751 17.2045 65.4691 16.7855C65.2655 16.3641 65.1637 15.8741 65.1637 15.3153C65.1637 14.7566 65.2655 14.2642 65.4691 13.8381C65.6751 13.4096 65.9615 13.0758 66.3285 12.8366C66.6978 12.5952 67.1287 12.4744 67.6211 12.4744C67.9052 12.4744 68.1857 12.5218 68.4627 12.6165C68.7397 12.7112 68.9918 12.8651 69.2191 13.0781C69.4464 13.2888 69.6275 13.5682 69.7624 13.9162C69.8974 14.2642 69.9648 14.6927 69.9648 15.2017V15.5568H65.7603V14.8324H69.1126C69.1126 14.5246 69.051 14.25 68.9279 14.0085C68.8072 13.767 68.6344 13.5765 68.4094 13.4368C68.1869 13.2971 67.9241 13.2273 67.6211 13.2273C67.2873 13.2273 66.9985 13.3101 66.7546 13.4759C66.5131 13.6392 66.3273 13.8523 66.1971 14.1151C66.0669 14.3778 66.0018 14.6596 66.0018 14.9602V15.4432C66.0018 15.8551 66.0728 16.2043 66.2148 16.4908C66.3593 16.7749 66.5593 16.9915 66.815 17.1406C67.0707 17.2874 67.3678 17.3608 67.7063 17.3608C67.9265 17.3608 68.1254 17.33 68.3029 17.2685C68.4828 17.2045 68.6379 17.1098 68.7681 16.9844C68.8983 16.8565 68.9989 16.6979 69.07 16.5085L69.8796 16.7358C69.7944 17.0104 69.6512 17.2519 69.4499 17.4602C69.2487 17.6662 69.0001 17.8272 68.7042 17.9432C68.4083 18.0568 68.0756 18.1136 67.7063 18.1136Z" fill="#222222"/>
</svg>
